<?xml version="1.0" encoding="utf-8"?>
<svg xmlns="http://www.w3.org/2000/svg" xmlns:xlink="http://www.w3.org/1999/xlink" width="600" height="400" viewBox="0 0 2400 1600">
<defs>
  <clipPath id="clip560">
    <rect x="0" y="0" width="2400" height="1600"/>
  </clipPath>
</defs>
<path clip-path="url(#clip560)" d="M0 1600 L2400 1600 L2400 0 L0 0  Z" fill="#ffffff" fill-rule="evenodd" fill-opacity="1"/>
<defs>
  <clipPath id="clip561">
    <rect x="480" y="0" width="1681" height="1600"/>
  </clipPath>
</defs>
<path clip-path="url(#clip560)" d="M264.287 1423.18 L2352.76 1423.18 L2352.76 123.472 L264.287 123.472  Z" fill="#ffffff" fill-rule="evenodd" fill-opacity="1"/>
<defs>
  <clipPath id="clip562">
    <rect x="264" y="123" width="2089" height="1301"/>
  </clipPath>
</defs>
<polyline clip-path="url(#clip562)" style="stroke:#000000; stroke-linecap:round; stroke-linejoin:round; stroke-width:2; stroke-opacity:0.1; fill:none" points="435.339,1423.18 435.339,123.472 "/>
<polyline clip-path="url(#clip562)" style="stroke:#000000; stroke-linecap:round; stroke-linejoin:round; stroke-width:2; stroke-opacity:0.1; fill:none" points="968.124,1423.18 968.124,123.472 "/>
<polyline clip-path="url(#clip562)" style="stroke:#000000; stroke-linecap:round; stroke-linejoin:round; stroke-width:2; stroke-opacity:0.1; fill:none" points="1500.91,1423.18 1500.91,123.472 "/>
<polyline clip-path="url(#clip562)" style="stroke:#000000; stroke-linecap:round; stroke-linejoin:round; stroke-width:2; stroke-opacity:0.1; fill:none" points="2033.69,1423.18 2033.69,123.472 "/>
<polyline clip-path="url(#clip562)" style="stroke:#000000; stroke-linecap:round; stroke-linejoin:round; stroke-width:2; stroke-opacity:0.1; fill:none" points="264.287,1316.73 2352.76,1316.73 "/>
<polyline clip-path="url(#clip562)" style="stroke:#000000; stroke-linecap:round; stroke-linejoin:round; stroke-width:2; stroke-opacity:0.1; fill:none" points="264.287,985.164 2352.76,985.164 "/>
<polyline clip-path="url(#clip562)" style="stroke:#000000; stroke-linecap:round; stroke-linejoin:round; stroke-width:2; stroke-opacity:0.1; fill:none" points="264.287,653.599 2352.76,653.599 "/>
<polyline clip-path="url(#clip562)" style="stroke:#000000; stroke-linecap:round; stroke-linejoin:round; stroke-width:2; stroke-opacity:0.1; fill:none" points="264.287,322.033 2352.76,322.033 "/>
<polyline clip-path="url(#clip560)" style="stroke:#000000; stroke-linecap:round; stroke-linejoin:round; stroke-width:4; stroke-opacity:1; fill:none" points="264.287,1423.18 2352.76,1423.18 "/>
<polyline clip-path="url(#clip560)" style="stroke:#000000; stroke-linecap:round; stroke-linejoin:round; stroke-width:4; stroke-opacity:1; fill:none" points="435.339,1423.18 435.339,1404.28 "/>
<polyline clip-path="url(#clip560)" style="stroke:#000000; stroke-linecap:round; stroke-linejoin:round; stroke-width:4; stroke-opacity:1; fill:none" points="968.124,1423.18 968.124,1404.28 "/>
<polyline clip-path="url(#clip560)" style="stroke:#000000; stroke-linecap:round; stroke-linejoin:round; stroke-width:4; stroke-opacity:1; fill:none" points="1500.91,1423.18 1500.91,1404.28 "/>
<polyline clip-path="url(#clip560)" style="stroke:#000000; stroke-linecap:round; stroke-linejoin:round; stroke-width:4; stroke-opacity:1; fill:none" points="2033.69,1423.18 2033.69,1404.28 "/>
<path clip-path="url(#clip560)" d="M379.865 1481.64 L387.504 1481.64 L387.504 1455.28 L379.193 1456.95 L379.193 1452.69 L387.457 1451.02 L392.133 1451.02 L392.133 1481.64 L399.772 1481.64 L399.772 1485.58 L379.865 1485.58 L379.865 1481.64 Z" fill="#000000" fill-rule="nonzero" fill-opacity="1" /><path clip-path="url(#clip560)" d="M408.036 1451.02 L430.258 1451.02 L430.258 1453.01 L417.712 1485.58 L412.827 1485.58 L424.633 1454.96 L408.036 1454.96 L408.036 1451.02 Z" fill="#000000" fill-rule="nonzero" fill-opacity="1" /><path clip-path="url(#clip560)" d="M449.378 1454.1 Q445.767 1454.1 443.938 1457.66 Q442.133 1461.2 442.133 1468.33 Q442.133 1475.44 443.938 1479.01 Q445.767 1482.55 449.378 1482.55 Q453.012 1482.55 454.818 1479.01 Q456.647 1475.44 456.647 1468.33 Q456.647 1461.2 454.818 1457.66 Q453.012 1454.1 449.378 1454.1 M449.378 1450.39 Q455.188 1450.39 458.244 1455 Q461.323 1459.58 461.323 1468.33 Q461.323 1477.06 458.244 1481.67 Q455.188 1486.25 449.378 1486.25 Q443.568 1486.25 440.489 1481.67 Q437.434 1477.06 437.434 1468.33 Q437.434 1459.58 440.489 1455 Q443.568 1450.39 449.378 1450.39 Z" fill="#000000" fill-rule="nonzero" fill-opacity="1" /><path clip-path="url(#clip560)" d="M479.54 1454.1 Q475.929 1454.1 474.1 1457.66 Q472.295 1461.2 472.295 1468.33 Q472.295 1475.44 474.1 1479.01 Q475.929 1482.55 479.54 1482.55 Q483.174 1482.55 484.98 1479.01 Q486.809 1475.44 486.809 1468.33 Q486.809 1461.2 484.98 1457.66 Q483.174 1454.1 479.54 1454.1 M479.54 1450.39 Q485.35 1450.39 488.406 1455 Q491.484 1459.58 491.484 1468.33 Q491.484 1477.06 488.406 1481.67 Q485.35 1486.25 479.54 1486.25 Q473.73 1486.25 470.651 1481.67 Q467.596 1477.06 467.596 1468.33 Q467.596 1459.58 470.651 1455 Q473.73 1450.39 479.54 1450.39 Z" fill="#000000" fill-rule="nonzero" fill-opacity="1" /><path clip-path="url(#clip560)" d="M912.649 1481.64 L920.288 1481.64 L920.288 1455.28 L911.978 1456.95 L911.978 1452.69 L920.242 1451.02 L924.918 1451.02 L924.918 1481.64 L932.557 1481.64 L932.557 1485.58 L912.649 1485.58 L912.649 1481.64 Z" fill="#000000" fill-rule="nonzero" fill-opacity="1" /><path clip-path="url(#clip560)" d="M952.001 1469.17 Q948.668 1469.17 946.746 1470.95 Q944.848 1472.73 944.848 1475.86 Q944.848 1478.98 946.746 1480.77 Q948.668 1482.55 952.001 1482.55 Q955.334 1482.55 957.256 1480.77 Q959.177 1478.96 959.177 1475.86 Q959.177 1472.73 957.256 1470.95 Q955.357 1469.17 952.001 1469.17 M947.325 1467.18 Q944.316 1466.44 942.626 1464.38 Q940.959 1462.32 940.959 1459.35 Q940.959 1455.21 943.899 1452.8 Q946.862 1450.39 952.001 1450.39 Q957.163 1450.39 960.103 1452.8 Q963.043 1455.21 963.043 1459.35 Q963.043 1462.32 961.353 1464.38 Q959.686 1466.44 956.7 1467.18 Q960.08 1467.96 961.955 1470.26 Q963.853 1472.55 963.853 1475.86 Q963.853 1480.88 960.774 1483.57 Q957.719 1486.25 952.001 1486.25 Q946.283 1486.25 943.205 1483.57 Q940.149 1480.88 940.149 1475.86 Q940.149 1472.55 942.047 1470.26 Q943.946 1467.96 947.325 1467.18 M945.612 1459.79 Q945.612 1462.48 947.279 1463.98 Q948.969 1465.49 952.001 1465.49 Q955.01 1465.49 956.7 1463.98 Q958.413 1462.48 958.413 1459.79 Q958.413 1457.11 956.7 1455.6 Q955.01 1454.1 952.001 1454.1 Q948.969 1454.1 947.279 1455.6 Q945.612 1457.11 945.612 1459.79 Z" fill="#000000" fill-rule="nonzero" fill-opacity="1" /><path clip-path="url(#clip560)" d="M982.163 1454.1 Q978.552 1454.1 976.723 1457.66 Q974.918 1461.2 974.918 1468.33 Q974.918 1475.44 976.723 1479.01 Q978.552 1482.55 982.163 1482.55 Q985.797 1482.55 987.603 1479.01 Q989.431 1475.44 989.431 1468.33 Q989.431 1461.2 987.603 1457.66 Q985.797 1454.1 982.163 1454.1 M982.163 1450.39 Q987.973 1450.39 991.029 1455 Q994.107 1459.58 994.107 1468.33 Q994.107 1477.06 991.029 1481.67 Q987.973 1486.25 982.163 1486.25 Q976.353 1486.25 973.274 1481.67 Q970.219 1477.06 970.219 1468.33 Q970.219 1459.58 973.274 1455 Q976.353 1450.39 982.163 1450.39 Z" fill="#000000" fill-rule="nonzero" fill-opacity="1" /><path clip-path="url(#clip560)" d="M1012.32 1454.1 Q1008.71 1454.1 1006.88 1457.66 Q1005.08 1461.2 1005.08 1468.33 Q1005.08 1475.44 1006.88 1479.01 Q1008.71 1482.55 1012.32 1482.55 Q1015.96 1482.55 1017.76 1479.01 Q1019.59 1475.44 1019.59 1468.33 Q1019.59 1461.2 1017.76 1457.66 Q1015.96 1454.1 1012.32 1454.1 M1012.32 1450.39 Q1018.13 1450.39 1021.19 1455 Q1024.27 1459.58 1024.27 1468.33 Q1024.27 1477.06 1021.19 1481.67 Q1018.13 1486.25 1012.32 1486.25 Q1006.51 1486.25 1003.44 1481.67 Q1000.38 1477.06 1000.38 1468.33 Q1000.38 1459.58 1003.44 1455 Q1006.51 1450.39 1012.32 1450.39 Z" fill="#000000" fill-rule="nonzero" fill-opacity="1" /><path clip-path="url(#clip560)" d="M1445.43 1481.64 L1453.07 1481.64 L1453.07 1455.28 L1444.76 1456.95 L1444.76 1452.69 L1453.03 1451.02 L1457.7 1451.02 L1457.7 1481.64 L1465.34 1481.64 L1465.34 1485.58 L1445.43 1485.58 L1445.43 1481.64 Z" fill="#000000" fill-rule="nonzero" fill-opacity="1" /><path clip-path="url(#clip560)" d="M1474.92 1484.86 L1474.92 1480.6 Q1476.68 1481.44 1478.49 1481.88 Q1480.29 1482.32 1482.03 1482.32 Q1486.66 1482.32 1489.09 1479.21 Q1491.54 1476.09 1491.89 1469.75 Q1490.55 1471.74 1488.49 1472.8 Q1486.43 1473.87 1483.93 1473.87 Q1478.74 1473.87 1475.71 1470.74 Q1472.7 1467.59 1472.7 1462.15 Q1472.7 1456.83 1475.85 1453.61 Q1479 1450.39 1484.23 1450.39 Q1490.23 1450.39 1493.37 1455 Q1496.54 1459.58 1496.54 1468.33 Q1496.54 1476.51 1492.66 1481.39 Q1488.79 1486.25 1482.24 1486.25 Q1480.48 1486.25 1478.67 1485.9 Q1476.87 1485.56 1474.92 1484.86 M1484.23 1470.21 Q1487.38 1470.21 1489.21 1468.06 Q1491.06 1465.9 1491.06 1462.15 Q1491.06 1458.43 1489.21 1456.27 Q1487.38 1454.1 1484.23 1454.1 Q1481.08 1454.1 1479.23 1456.27 Q1477.4 1458.43 1477.4 1462.15 Q1477.4 1465.9 1479.23 1468.06 Q1481.08 1470.21 1484.23 1470.21 Z" fill="#000000" fill-rule="nonzero" fill-opacity="1" /><path clip-path="url(#clip560)" d="M1514.95 1454.1 Q1511.34 1454.1 1509.51 1457.66 Q1507.7 1461.2 1507.7 1468.33 Q1507.7 1475.44 1509.51 1479.01 Q1511.34 1482.55 1514.95 1482.55 Q1518.58 1482.55 1520.39 1479.01 Q1522.22 1475.44 1522.22 1468.33 Q1522.22 1461.2 1520.39 1457.66 Q1518.58 1454.1 1514.95 1454.1 M1514.95 1450.39 Q1520.76 1450.39 1523.81 1455 Q1526.89 1459.58 1526.89 1468.33 Q1526.89 1477.06 1523.81 1481.67 Q1520.76 1486.25 1514.95 1486.25 Q1509.14 1486.25 1506.06 1481.67 Q1503 1477.06 1503 1468.33 Q1503 1459.58 1506.06 1455 Q1509.14 1450.39 1514.95 1450.39 Z" fill="#000000" fill-rule="nonzero" fill-opacity="1" /><path clip-path="url(#clip560)" d="M1545.11 1454.1 Q1541.5 1454.1 1539.67 1457.66 Q1537.86 1461.2 1537.86 1468.33 Q1537.86 1475.44 1539.67 1479.01 Q1541.5 1482.55 1545.11 1482.55 Q1548.74 1482.55 1550.55 1479.01 Q1552.38 1475.44 1552.38 1468.33 Q1552.38 1461.2 1550.55 1457.66 Q1548.74 1454.1 1545.11 1454.1 M1545.11 1450.39 Q1550.92 1450.39 1553.98 1455 Q1557.05 1459.58 1557.05 1468.33 Q1557.05 1477.06 1553.98 1481.67 Q1550.92 1486.25 1545.11 1486.25 Q1539.3 1486.25 1536.22 1481.67 Q1533.17 1477.06 1533.17 1468.33 Q1533.17 1459.58 1536.22 1455 Q1539.3 1450.39 1545.11 1450.39 Z" fill="#000000" fill-rule="nonzero" fill-opacity="1" /><path clip-path="url(#clip560)" d="M1982.3 1481.64 L1998.62 1481.64 L1998.62 1485.58 L1976.68 1485.58 L1976.68 1481.64 Q1979.34 1478.89 1983.92 1474.26 Q1988.53 1469.61 1989.71 1468.27 Q1991.96 1465.74 1992.84 1464.01 Q1993.74 1462.25 1993.74 1460.56 Q1993.74 1457.8 1991.8 1456.07 Q1989.87 1454.33 1986.77 1454.33 Q1984.57 1454.33 1982.12 1455.09 Q1979.69 1455.86 1976.91 1457.41 L1976.91 1452.69 Q1979.73 1451.55 1982.19 1450.97 Q1984.64 1450.39 1986.68 1450.39 Q1992.05 1450.39 1995.24 1453.08 Q1998.44 1455.77 1998.44 1460.26 Q1998.44 1462.39 1997.63 1464.31 Q1996.84 1466.2 1994.73 1468.8 Q1994.16 1469.47 1991.05 1472.69 Q1987.95 1475.88 1982.3 1481.64 Z" fill="#000000" fill-rule="nonzero" fill-opacity="1" /><path clip-path="url(#clip560)" d="M2018.44 1454.1 Q2014.83 1454.1 2013 1457.66 Q2011.19 1461.2 2011.19 1468.33 Q2011.19 1475.44 2013 1479.01 Q2014.83 1482.55 2018.44 1482.55 Q2022.07 1482.55 2023.88 1479.01 Q2025.71 1475.44 2025.71 1468.33 Q2025.71 1461.2 2023.88 1457.66 Q2022.07 1454.1 2018.44 1454.1 M2018.44 1450.39 Q2024.25 1450.39 2027.3 1455 Q2030.38 1459.58 2030.38 1468.33 Q2030.38 1477.06 2027.3 1481.67 Q2024.25 1486.25 2018.44 1486.25 Q2012.63 1486.25 2009.55 1481.67 Q2006.49 1477.06 2006.49 1468.33 Q2006.49 1459.58 2009.55 1455 Q2012.63 1450.39 2018.44 1450.39 Z" fill="#000000" fill-rule="nonzero" fill-opacity="1" /><path clip-path="url(#clip560)" d="M2048.6 1454.1 Q2044.99 1454.1 2043.16 1457.66 Q2041.35 1461.2 2041.35 1468.33 Q2041.35 1475.44 2043.16 1479.01 Q2044.99 1482.55 2048.6 1482.55 Q2052.23 1482.55 2054.04 1479.01 Q2055.87 1475.44 2055.87 1468.33 Q2055.87 1461.2 2054.04 1457.66 Q2052.23 1454.1 2048.6 1454.1 M2048.6 1450.39 Q2054.41 1450.39 2057.47 1455 Q2060.54 1459.58 2060.54 1468.33 Q2060.54 1477.06 2057.47 1481.67 Q2054.41 1486.25 2048.6 1486.25 Q2042.79 1486.25 2039.71 1481.67 Q2036.66 1477.06 2036.66 1468.33 Q2036.66 1459.58 2039.71 1455 Q2042.79 1450.39 2048.6 1450.39 Z" fill="#000000" fill-rule="nonzero" fill-opacity="1" /><path clip-path="url(#clip560)" d="M2078.76 1454.1 Q2075.15 1454.1 2073.32 1457.66 Q2071.52 1461.2 2071.52 1468.33 Q2071.52 1475.44 2073.32 1479.01 Q2075.15 1482.55 2078.76 1482.55 Q2082.4 1482.55 2084.2 1479.01 Q2086.03 1475.44 2086.03 1468.33 Q2086.03 1461.2 2084.2 1457.66 Q2082.4 1454.1 2078.76 1454.1 M2078.76 1450.39 Q2084.57 1450.39 2087.63 1455 Q2090.71 1459.58 2090.71 1468.33 Q2090.71 1477.06 2087.63 1481.67 Q2084.57 1486.25 2078.76 1486.25 Q2072.95 1486.25 2069.87 1481.67 Q2066.82 1477.06 2066.82 1468.33 Q2066.82 1459.58 2069.87 1455 Q2072.95 1450.39 2078.76 1450.39 Z" fill="#000000" fill-rule="nonzero" fill-opacity="1" /><path clip-path="url(#clip560)" d="M853.294 1520.52 L859.723 1520.52 L859.723 1562.63 L882.863 1562.63 L882.863 1568.04 L853.294 1568.04 L853.294 1520.52 Z" fill="#000000" fill-rule="nonzero" fill-opacity="1" /><path clip-path="url(#clip560)" d="M902.024 1536.5 Q897.313 1536.5 894.576 1540.19 Q891.838 1543.85 891.838 1550.25 Q891.838 1556.65 894.544 1560.34 Q897.281 1564 902.024 1564 Q906.702 1564 909.44 1560.31 Q912.177 1556.62 912.177 1550.25 Q912.177 1543.92 909.44 1540.23 Q906.702 1536.5 902.024 1536.5 M902.024 1531.54 Q909.662 1531.54 914.023 1536.5 Q918.383 1541.47 918.383 1550.25 Q918.383 1559 914.023 1564 Q909.662 1568.97 902.024 1568.97 Q894.353 1568.97 889.992 1564 Q885.664 1559 885.664 1550.25 Q885.664 1541.47 889.992 1536.5 Q894.353 1531.54 902.024 1531.54 Z" fill="#000000" fill-rule="nonzero" fill-opacity="1" /><path clip-path="url(#clip560)" d="M924.685 1532.4 L930.542 1532.4 L937.862 1560.21 L945.151 1532.4 L952.058 1532.4 L959.379 1560.21 L966.667 1532.4 L972.524 1532.4 L963.198 1568.04 L956.291 1568.04 L948.62 1538.83 L940.918 1568.04 L934.011 1568.04 L924.685 1532.4 Z" fill="#000000" fill-rule="nonzero" fill-opacity="1" /><path clip-path="url(#clip560)" d="M1011.9 1548.76 L1011.9 1551.62 L984.969 1551.62 Q985.351 1557.67 988.597 1560.85 Q991.875 1564 997.7 1564 Q1001.07 1564 1004.22 1563.17 Q1007.41 1562.35 1010.53 1560.69 L1010.53 1566.23 Q1007.38 1567.57 1004.07 1568.27 Q1000.76 1568.97 997.35 1568.97 Q988.82 1568.97 983.823 1564 Q978.858 1559.04 978.858 1550.57 Q978.858 1541.82 983.568 1536.69 Q988.311 1531.54 996.331 1531.54 Q1003.52 1531.54 1007.69 1536.18 Q1011.9 1540.8 1011.9 1548.76 M1006.04 1547.04 Q1005.98 1542.23 1003.33 1539.37 Q1000.72 1536.5 996.395 1536.5 Q991.494 1536.5 988.533 1539.27 Q985.605 1542.04 985.16 1547.07 L1006.04 1547.04 Z" fill="#000000" fill-rule="nonzero" fill-opacity="1" /><path clip-path="url(#clip560)" d="M1042.16 1537.87 Q1041.18 1537.3 1040 1537.04 Q1038.85 1536.76 1037.45 1536.76 Q1032.49 1536.76 1029.82 1540 Q1027.17 1543.22 1027.17 1549.27 L1027.17 1568.04 L1021.29 1568.04 L1021.29 1532.4 L1027.17 1532.4 L1027.17 1537.93 Q1029.02 1534.69 1031.98 1533.13 Q1034.94 1531.54 1039.17 1531.54 Q1039.78 1531.54 1040.51 1531.63 Q1041.24 1531.7 1042.13 1531.85 L1042.16 1537.87 Z" fill="#000000" fill-rule="nonzero" fill-opacity="1" /><path clip-path="url(#clip560)" d="M1041.18 1547.58 L1058.33 1547.58 L1058.33 1552.8 L1041.18 1552.8 L1041.18 1547.58 Z" fill="#000000" fill-rule="nonzero" fill-opacity="1" /><path clip-path="url(#clip560)" d="M1067.91 1520.52 L1074.34 1520.52 L1074.34 1562.63 L1097.48 1562.63 L1097.48 1568.04 L1067.91 1568.04 L1067.91 1520.52 Z" fill="#000000" fill-rule="nonzero" fill-opacity="1" /><path clip-path="url(#clip560)" d="M1133.32 1548.76 L1133.32 1551.62 L1106.39 1551.62 Q1106.78 1557.67 1110.02 1560.85 Q1113.3 1564 1119.13 1564 Q1122.5 1564 1125.65 1563.17 Q1128.83 1562.35 1131.95 1560.69 L1131.95 1566.23 Q1128.8 1567.57 1125.49 1568.27 Q1122.18 1568.97 1118.78 1568.97 Q1110.25 1568.97 1105.25 1564 Q1100.28 1559.04 1100.28 1550.57 Q1100.28 1541.82 1104.99 1536.69 Q1109.74 1531.54 1117.76 1531.54 Q1124.95 1531.54 1129.12 1536.18 Q1133.32 1540.8 1133.32 1548.76 M1127.47 1547.04 Q1127.4 1542.23 1124.76 1539.37 Q1122.15 1536.5 1117.82 1536.5 Q1112.92 1536.5 1109.96 1539.27 Q1107.03 1542.04 1106.59 1547.07 L1127.47 1547.04 Z" fill="#000000" fill-rule="nonzero" fill-opacity="1" /><path clip-path="url(#clip560)" d="M1138.73 1532.4 L1144.94 1532.4 L1156.08 1562.31 L1167.22 1532.4 L1173.43 1532.4 L1160.06 1568.04 L1152.1 1568.04 L1138.73 1532.4 Z" fill="#000000" fill-rule="nonzero" fill-opacity="1" /><path clip-path="url(#clip560)" d="M1212 1548.76 L1212 1551.62 L1185.07 1551.62 Q1185.46 1557.67 1188.7 1560.85 Q1191.98 1564 1197.81 1564 Q1201.18 1564 1204.33 1563.17 Q1207.51 1562.35 1210.63 1560.69 L1210.63 1566.23 Q1207.48 1567.57 1204.17 1568.27 Q1200.86 1568.97 1197.46 1568.97 Q1188.93 1568.97 1183.93 1564 Q1178.96 1559.04 1178.96 1550.57 Q1178.96 1541.82 1183.67 1536.69 Q1188.42 1531.54 1196.44 1531.54 Q1203.63 1531.54 1207.8 1536.18 Q1212 1540.8 1212 1548.76 M1206.15 1547.04 Q1206.08 1542.23 1203.44 1539.37 Q1200.83 1536.5 1196.5 1536.5 Q1191.6 1536.5 1188.64 1539.27 Q1185.71 1542.04 1185.27 1547.07 L1206.15 1547.04 Z" fill="#000000" fill-rule="nonzero" fill-opacity="1" /><path clip-path="url(#clip560)" d="M1221.61 1518.52 L1227.47 1518.52 L1227.47 1568.04 L1221.61 1568.04 L1221.61 1518.52 Z" fill="#000000" fill-rule="nonzero" fill-opacity="1" /><path clip-path="url(#clip560)" d="M1260.7 1520.52 L1267.13 1520.52 L1267.13 1562.63 L1290.27 1562.63 L1290.27 1568.04 L1260.7 1568.04 L1260.7 1520.52 Z" fill="#000000" fill-rule="nonzero" fill-opacity="1" /><path clip-path="url(#clip560)" d="M1309.43 1536.5 Q1304.72 1536.5 1301.98 1540.19 Q1299.24 1543.85 1299.24 1550.25 Q1299.24 1556.65 1301.95 1560.34 Q1304.69 1564 1309.43 1564 Q1314.11 1564 1316.84 1560.31 Q1319.58 1556.62 1319.58 1550.25 Q1319.58 1543.92 1316.84 1540.23 Q1314.11 1536.5 1309.43 1536.5 M1309.43 1531.54 Q1317.07 1531.54 1321.43 1536.5 Q1325.79 1541.47 1325.79 1550.25 Q1325.79 1559 1321.43 1564 Q1317.07 1568.97 1309.43 1568.97 Q1301.76 1568.97 1297.4 1564 Q1293.07 1559 1293.07 1550.25 Q1293.07 1541.47 1297.4 1536.5 Q1301.76 1531.54 1309.43 1531.54 Z" fill="#000000" fill-rule="nonzero" fill-opacity="1" /><path clip-path="url(#clip560)" d="M1351.7 1550.12 Q1344.6 1550.12 1341.86 1551.75 Q1339.12 1553.37 1339.12 1557.29 Q1339.12 1560.4 1341.16 1562.25 Q1343.23 1564.07 1346.76 1564.07 Q1351.63 1564.07 1354.56 1560.63 Q1357.52 1557.16 1357.52 1551.43 L1357.52 1550.12 L1351.7 1550.12 M1363.38 1547.71 L1363.38 1568.04 L1357.52 1568.04 L1357.52 1562.63 Q1355.52 1565.88 1352.52 1567.44 Q1349.53 1568.97 1345.2 1568.97 Q1339.73 1568.97 1336.48 1565.91 Q1333.27 1562.82 1333.27 1557.67 Q1333.27 1551.65 1337.28 1548.6 Q1341.32 1545.54 1349.31 1545.54 L1357.52 1545.54 L1357.52 1544.97 Q1357.52 1540.93 1354.85 1538.73 Q1352.21 1536.5 1347.4 1536.5 Q1344.34 1536.5 1341.45 1537.23 Q1338.55 1537.97 1335.88 1539.43 L1335.88 1534.02 Q1339.09 1532.78 1342.12 1532.17 Q1345.14 1531.54 1348 1531.54 Q1355.74 1531.54 1359.56 1535.55 Q1363.38 1539.56 1363.38 1547.71 Z" fill="#000000" fill-rule="nonzero" fill-opacity="1" /><path clip-path="url(#clip560)" d="M1398.9 1537.81 L1398.9 1518.52 L1404.76 1518.52 L1404.76 1568.04 L1398.9 1568.04 L1398.9 1562.7 Q1397.05 1565.88 1394.22 1567.44 Q1391.42 1568.97 1387.47 1568.97 Q1381.01 1568.97 1376.94 1563.81 Q1372.89 1558.65 1372.89 1550.25 Q1372.89 1541.85 1376.94 1536.69 Q1381.01 1531.54 1387.47 1531.54 Q1391.42 1531.54 1394.22 1533.1 Q1397.05 1534.62 1398.9 1537.81 M1378.94 1550.25 Q1378.94 1556.71 1381.58 1560.4 Q1384.26 1564.07 1388.9 1564.07 Q1393.55 1564.07 1396.23 1560.4 Q1398.9 1556.71 1398.9 1550.25 Q1398.9 1543.79 1396.23 1540.13 Q1393.55 1536.44 1388.9 1536.44 Q1384.26 1536.44 1381.58 1540.13 Q1378.94 1543.79 1378.94 1550.25 Z" fill="#000000" fill-rule="nonzero" fill-opacity="1" /><path clip-path="url(#clip560)" d="M1466.28 1522.08 L1466.28 1528.35 Q1462.62 1526.6 1459.37 1525.74 Q1456.13 1524.88 1453.1 1524.88 Q1447.85 1524.88 1444.99 1526.92 Q1442.15 1528.96 1442.15 1532.71 Q1442.15 1535.87 1444.03 1537.49 Q1445.94 1539.08 1451.22 1540.07 L1455.11 1540.86 Q1462.3 1542.23 1465.71 1545.7 Q1469.14 1549.14 1469.14 1554.93 Q1469.14 1561.84 1464.5 1565.4 Q1459.88 1568.97 1450.94 1568.97 Q1447.56 1568.97 1443.75 1568.2 Q1439.96 1567.44 1435.88 1565.94 L1435.88 1559.32 Q1439.8 1561.52 1443.55 1562.63 Q1447.31 1563.75 1450.94 1563.75 Q1456.44 1563.75 1459.44 1561.58 Q1462.43 1559.42 1462.43 1555.41 Q1462.43 1551.91 1460.26 1549.93 Q1458.13 1547.96 1453.23 1546.97 L1449.32 1546.21 Q1442.12 1544.78 1438.91 1541.72 Q1435.69 1538.67 1435.69 1533.22 Q1435.69 1526.92 1440.12 1523.29 Q1444.57 1519.66 1452.37 1519.66 Q1455.71 1519.66 1459.18 1520.27 Q1462.65 1520.87 1466.28 1522.08 Z" fill="#000000" fill-rule="nonzero" fill-opacity="1" /><path clip-path="url(#clip560)" d="M1508.55 1546.53 L1508.55 1568.04 L1502.69 1568.04 L1502.69 1546.72 Q1502.69 1541.66 1500.72 1539.14 Q1498.74 1536.63 1494.8 1536.63 Q1490.06 1536.63 1487.32 1539.65 Q1484.58 1542.68 1484.58 1547.9 L1484.58 1568.04 L1478.69 1568.04 L1478.69 1518.52 L1484.58 1518.52 L1484.58 1537.93 Q1486.68 1534.72 1489.51 1533.13 Q1492.38 1531.54 1496.1 1531.54 Q1502.25 1531.54 1505.4 1535.36 Q1508.55 1539.14 1508.55 1546.53 Z" fill="#000000" fill-rule="nonzero" fill-opacity="1" /><path clip-path="url(#clip560)" d="M1550.72 1548.76 L1550.72 1551.62 L1523.79 1551.62 Q1524.18 1557.67 1527.42 1560.85 Q1530.7 1564 1536.53 1564 Q1539.9 1564 1543.05 1563.17 Q1546.23 1562.35 1549.35 1560.69 L1549.35 1566.23 Q1546.2 1567.57 1542.89 1568.27 Q1539.58 1568.97 1536.18 1568.97 Q1527.65 1568.97 1522.65 1564 Q1517.68 1559.04 1517.68 1550.57 Q1517.68 1541.82 1522.39 1536.69 Q1527.14 1531.54 1535.16 1531.54 Q1542.35 1531.54 1546.52 1536.18 Q1550.72 1540.8 1550.72 1548.76 M1544.86 1547.04 Q1544.8 1542.23 1542.16 1539.37 Q1539.55 1536.5 1535.22 1536.5 Q1530.32 1536.5 1527.36 1539.27 Q1524.43 1542.04 1523.98 1547.07 L1544.86 1547.04 Z" fill="#000000" fill-rule="nonzero" fill-opacity="1" /><path clip-path="url(#clip560)" d="M1583.79 1537.81 L1583.79 1518.52 L1589.65 1518.52 L1589.65 1568.04 L1583.79 1568.04 L1583.79 1562.7 Q1581.94 1565.88 1579.11 1567.44 Q1576.31 1568.97 1572.36 1568.97 Q1565.9 1568.97 1561.83 1563.81 Q1557.79 1558.65 1557.79 1550.25 Q1557.79 1541.85 1561.83 1536.69 Q1565.9 1531.54 1572.36 1531.54 Q1576.31 1531.54 1579.11 1533.1 Q1581.94 1534.62 1583.79 1537.81 M1563.83 1550.25 Q1563.83 1556.71 1566.48 1560.4 Q1569.15 1564.07 1573.8 1564.07 Q1578.44 1564.07 1581.12 1560.4 Q1583.79 1556.71 1583.79 1550.25 Q1583.79 1543.79 1581.12 1540.13 Q1578.44 1536.44 1573.8 1536.44 Q1569.15 1536.44 1566.48 1540.13 Q1563.83 1543.79 1563.83 1550.25 Z" fill="#000000" fill-rule="nonzero" fill-opacity="1" /><path clip-path="url(#clip560)" d="M1636.5 1518.58 Q1632.23 1525.9 1630.16 1533.06 Q1628.1 1540.23 1628.1 1547.58 Q1628.1 1554.93 1630.16 1562.16 Q1632.27 1569.35 1636.5 1576.64 L1631.41 1576.64 Q1626.63 1569.16 1624.24 1561.93 Q1621.89 1554.71 1621.89 1547.58 Q1621.89 1540.48 1624.24 1533.29 Q1626.6 1526.09 1631.41 1518.58 L1636.5 1518.58 Z" fill="#000000" fill-rule="nonzero" fill-opacity="1" /><path clip-path="url(#clip560)" d="M1647.64 1518.52 L1653.53 1518.52 L1653.53 1547.77 L1671 1532.4 L1678.48 1532.4 L1659.57 1549.07 L1679.28 1568.04 L1671.64 1568.04 L1653.53 1550.63 L1653.53 1568.04 L1647.64 1568.04 L1647.64 1518.52 Z" fill="#000000" fill-rule="nonzero" fill-opacity="1" /><path clip-path="url(#clip560)" d="M1681.63 1520.52 L1688.12 1520.52 L1698.12 1560.69 L1708.08 1520.52 L1715.31 1520.52 L1725.3 1560.69 L1735.26 1520.52 L1741.79 1520.52 L1729.85 1568.04 L1721.77 1568.04 L1711.74 1526.79 L1701.62 1568.04 L1693.54 1568.04 L1681.63 1520.52 Z" fill="#000000" fill-rule="nonzero" fill-opacity="1" /><path clip-path="url(#clip560)" d="M1749.14 1518.58 L1754.23 1518.58 Q1759.01 1526.09 1761.36 1533.29 Q1763.75 1540.48 1763.75 1547.58 Q1763.75 1554.71 1761.36 1561.93 Q1759.01 1569.16 1754.23 1576.64 L1749.14 1576.64 Q1753.37 1569.35 1755.44 1562.16 Q1757.54 1554.93 1757.54 1547.58 Q1757.54 1540.23 1755.44 1533.06 Q1753.37 1525.9 1749.14 1518.58 Z" fill="#000000" fill-rule="nonzero" fill-opacity="1" /><polyline clip-path="url(#clip560)" style="stroke:#000000; stroke-linecap:round; stroke-linejoin:round; stroke-width:4; stroke-opacity:1; fill:none" points="264.287,1423.18 264.287,123.472 "/>
<polyline clip-path="url(#clip560)" style="stroke:#000000; stroke-linecap:round; stroke-linejoin:round; stroke-width:4; stroke-opacity:1; fill:none" points="264.287,1316.73 283.185,1316.73 "/>
<polyline clip-path="url(#clip560)" style="stroke:#000000; stroke-linecap:round; stroke-linejoin:round; stroke-width:4; stroke-opacity:1; fill:none" points="264.287,985.164 283.185,985.164 "/>
<polyline clip-path="url(#clip560)" style="stroke:#000000; stroke-linecap:round; stroke-linejoin:round; stroke-width:4; stroke-opacity:1; fill:none" points="264.287,653.599 283.185,653.599 "/>
<polyline clip-path="url(#clip560)" style="stroke:#000000; stroke-linecap:round; stroke-linejoin:round; stroke-width:4; stroke-opacity:1; fill:none" points="264.287,322.033 283.185,322.033 "/>
<path clip-path="url(#clip560)" d="M116.668 1330.07 L124.306 1330.07 L124.306 1303.71 L115.996 1305.38 L115.996 1301.12 L124.26 1299.45 L128.936 1299.45 L128.936 1330.07 L136.575 1330.07 L136.575 1334.01 L116.668 1334.01 L116.668 1330.07 Z" fill="#000000" fill-rule="nonzero" fill-opacity="1" /><path clip-path="url(#clip560)" d="M144.839 1299.45 L167.061 1299.45 L167.061 1301.44 L154.515 1334.01 L149.63 1334.01 L161.436 1303.39 L144.839 1303.39 L144.839 1299.45 Z" fill="#000000" fill-rule="nonzero" fill-opacity="1" /><path clip-path="url(#clip560)" d="M186.181 1302.53 Q182.57 1302.53 180.741 1306.09 Q178.936 1309.64 178.936 1316.76 Q178.936 1323.87 180.741 1327.44 Q182.57 1330.98 186.181 1330.98 Q189.815 1330.98 191.621 1327.44 Q193.45 1323.87 193.45 1316.76 Q193.45 1309.64 191.621 1306.09 Q189.815 1302.53 186.181 1302.53 M186.181 1298.83 Q191.991 1298.83 195.047 1303.43 Q198.125 1308.01 198.125 1316.76 Q198.125 1325.49 195.047 1330.1 Q191.991 1334.68 186.181 1334.68 Q180.371 1334.68 177.292 1330.1 Q174.237 1325.49 174.237 1316.76 Q174.237 1308.01 177.292 1303.43 Q180.371 1298.83 186.181 1298.83 Z" fill="#000000" fill-rule="nonzero" fill-opacity="1" /><path clip-path="url(#clip560)" d="M216.343 1302.53 Q212.732 1302.53 210.903 1306.09 Q209.098 1309.64 209.098 1316.76 Q209.098 1323.87 210.903 1327.44 Q212.732 1330.98 216.343 1330.98 Q219.977 1330.98 221.783 1327.44 Q223.611 1323.87 223.611 1316.76 Q223.611 1309.64 221.783 1306.09 Q219.977 1302.53 216.343 1302.53 M216.343 1298.83 Q222.153 1298.83 225.209 1303.43 Q228.287 1308.01 228.287 1316.76 Q228.287 1325.49 225.209 1330.1 Q222.153 1334.68 216.343 1334.68 Q210.533 1334.68 207.454 1330.1 Q204.399 1325.49 204.399 1316.76 Q204.399 1308.01 207.454 1303.43 Q210.533 1298.83 216.343 1298.83 Z" fill="#000000" fill-rule="nonzero" fill-opacity="1" /><path clip-path="url(#clip560)" d="M116.668 998.509 L124.306 998.509 L124.306 972.144 L115.996 973.81 L115.996 969.551 L124.26 967.884 L128.936 967.884 L128.936 998.509 L136.575 998.509 L136.575 1002.44 L116.668 1002.44 L116.668 998.509 Z" fill="#000000" fill-rule="nonzero" fill-opacity="1" /><path clip-path="url(#clip560)" d="M156.019 986.032 Q152.686 986.032 150.765 987.815 Q148.866 989.597 148.866 992.722 Q148.866 995.847 150.765 997.63 Q152.686 999.412 156.019 999.412 Q159.353 999.412 161.274 997.63 Q163.195 995.824 163.195 992.722 Q163.195 989.597 161.274 987.815 Q159.376 986.032 156.019 986.032 M151.343 984.042 Q148.334 983.301 146.644 981.241 Q144.978 979.181 144.978 976.218 Q144.978 972.074 147.917 969.667 Q150.88 967.259 156.019 967.259 Q161.181 967.259 164.121 969.667 Q167.061 972.074 167.061 976.218 Q167.061 979.181 165.371 981.241 Q163.704 983.301 160.718 984.042 Q164.098 984.829 165.973 987.12 Q167.871 989.412 167.871 992.722 Q167.871 997.745 164.792 1000.43 Q161.737 1003.12 156.019 1003.12 Q150.302 1003.12 147.223 1000.43 Q144.167 997.745 144.167 992.722 Q144.167 989.412 146.066 987.12 Q147.964 984.829 151.343 984.042 M149.63 976.658 Q149.63 979.343 151.297 980.847 Q152.987 982.352 156.019 982.352 Q159.028 982.352 160.718 980.847 Q162.431 979.343 162.431 976.658 Q162.431 973.972 160.718 972.468 Q159.028 970.963 156.019 970.963 Q152.987 970.963 151.297 972.468 Q149.63 973.972 149.63 976.658 Z" fill="#000000" fill-rule="nonzero" fill-opacity="1" /><path clip-path="url(#clip560)" d="M186.181 970.963 Q182.57 970.963 180.741 974.528 Q178.936 978.07 178.936 985.199 Q178.936 992.306 180.741 995.87 Q182.57 999.412 186.181 999.412 Q189.815 999.412 191.621 995.87 Q193.45 992.306 193.45 985.199 Q193.45 978.07 191.621 974.528 Q189.815 970.963 186.181 970.963 M186.181 967.259 Q191.991 967.259 195.047 971.866 Q198.125 976.449 198.125 985.199 Q198.125 993.926 195.047 998.532 Q191.991 1003.12 186.181 1003.12 Q180.371 1003.12 177.292 998.532 Q174.237 993.926 174.237 985.199 Q174.237 976.449 177.292 971.866 Q180.371 967.259 186.181 967.259 Z" fill="#000000" fill-rule="nonzero" fill-opacity="1" /><path clip-path="url(#clip560)" d="M216.343 970.963 Q212.732 970.963 210.903 974.528 Q209.098 978.07 209.098 985.199 Q209.098 992.306 210.903 995.87 Q212.732 999.412 216.343 999.412 Q219.977 999.412 221.783 995.87 Q223.611 992.306 223.611 985.199 Q223.611 978.07 221.783 974.528 Q219.977 970.963 216.343 970.963 M216.343 967.259 Q222.153 967.259 225.209 971.866 Q228.287 976.449 228.287 985.199 Q228.287 993.926 225.209 998.532 Q222.153 1003.12 216.343 1003.12 Q210.533 1003.12 207.454 998.532 Q204.399 993.926 204.399 985.199 Q204.399 976.449 207.454 971.866 Q210.533 967.259 216.343 967.259 Z" fill="#000000" fill-rule="nonzero" fill-opacity="1" /><path clip-path="url(#clip560)" d="M116.668 666.944 L124.306 666.944 L124.306 640.578 L115.996 642.245 L115.996 637.985 L124.26 636.319 L128.936 636.319 L128.936 666.944 L136.575 666.944 L136.575 670.879 L116.668 670.879 L116.668 666.944 Z" fill="#000000" fill-rule="nonzero" fill-opacity="1" /><path clip-path="url(#clip560)" d="M146.158 670.161 L146.158 665.902 Q147.917 666.735 149.723 667.175 Q151.528 667.615 153.265 667.615 Q157.894 667.615 160.325 664.513 Q162.778 661.388 163.126 655.046 Q161.783 657.036 159.723 658.101 Q157.663 659.166 155.163 659.166 Q149.978 659.166 146.945 656.041 Q143.936 652.893 143.936 647.453 Q143.936 642.129 147.084 638.911 Q150.232 635.694 155.464 635.694 Q161.459 635.694 164.607 640.3 Q167.778 644.884 167.778 653.634 Q167.778 661.805 163.89 666.689 Q160.024 671.55 153.473 671.55 Q151.714 671.55 149.908 671.203 Q148.103 670.856 146.158 670.161 M155.464 655.509 Q158.612 655.509 160.44 653.356 Q162.292 651.203 162.292 647.453 Q162.292 643.726 160.44 641.573 Q158.612 639.397 155.464 639.397 Q152.316 639.397 150.464 641.573 Q148.635 643.726 148.635 647.453 Q148.635 651.203 150.464 653.356 Q152.316 655.509 155.464 655.509 Z" fill="#000000" fill-rule="nonzero" fill-opacity="1" /><path clip-path="url(#clip560)" d="M186.181 639.397 Q182.57 639.397 180.741 642.962 Q178.936 646.504 178.936 653.634 Q178.936 660.74 180.741 664.305 Q182.57 667.846 186.181 667.846 Q189.815 667.846 191.621 664.305 Q193.45 660.74 193.45 653.634 Q193.45 646.504 191.621 642.962 Q189.815 639.397 186.181 639.397 M186.181 635.694 Q191.991 635.694 195.047 640.3 Q198.125 644.884 198.125 653.634 Q198.125 662.36 195.047 666.967 Q191.991 671.55 186.181 671.55 Q180.371 671.55 177.292 666.967 Q174.237 662.36 174.237 653.634 Q174.237 644.884 177.292 640.3 Q180.371 635.694 186.181 635.694 Z" fill="#000000" fill-rule="nonzero" fill-opacity="1" /><path clip-path="url(#clip560)" d="M216.343 639.397 Q212.732 639.397 210.903 642.962 Q209.098 646.504 209.098 653.634 Q209.098 660.74 210.903 664.305 Q212.732 667.846 216.343 667.846 Q219.977 667.846 221.783 664.305 Q223.611 660.74 223.611 653.634 Q223.611 646.504 221.783 642.962 Q219.977 639.397 216.343 639.397 M216.343 635.694 Q222.153 635.694 225.209 640.3 Q228.287 644.884 228.287 653.634 Q228.287 662.36 225.209 666.967 Q222.153 671.55 216.343 671.55 Q210.533 671.55 207.454 666.967 Q204.399 662.36 204.399 653.634 Q204.399 644.884 207.454 640.3 Q210.533 635.694 216.343 635.694 Z" fill="#000000" fill-rule="nonzero" fill-opacity="1" /><path clip-path="url(#clip560)" d="M119.885 335.378 L136.204 335.378 L136.204 339.313 L114.26 339.313 L114.26 335.378 Q116.922 332.623 121.505 327.994 Q126.112 323.341 127.292 321.998 Q129.538 319.475 130.417 317.739 Q131.32 315.98 131.32 314.29 Q131.32 311.536 129.376 309.799 Q127.455 308.063 124.353 308.063 Q122.154 308.063 119.7 308.827 Q117.269 309.591 114.492 311.142 L114.492 306.42 Q117.316 305.286 119.769 304.707 Q122.223 304.128 124.26 304.128 Q129.63 304.128 132.825 306.813 Q136.019 309.499 136.019 313.989 Q136.019 316.119 135.209 318.04 Q134.422 319.938 132.316 322.531 Q131.737 323.202 128.635 326.42 Q125.533 329.614 119.885 335.378 Z" fill="#000000" fill-rule="nonzero" fill-opacity="1" /><path clip-path="url(#clip560)" d="M156.019 307.832 Q152.408 307.832 150.579 311.397 Q148.774 314.938 148.774 322.068 Q148.774 329.174 150.579 332.739 Q152.408 336.281 156.019 336.281 Q159.653 336.281 161.459 332.739 Q163.288 329.174 163.288 322.068 Q163.288 314.938 161.459 311.397 Q159.653 307.832 156.019 307.832 M156.019 304.128 Q161.829 304.128 164.885 308.735 Q167.964 313.318 167.964 322.068 Q167.964 330.795 164.885 335.401 Q161.829 339.984 156.019 339.984 Q150.209 339.984 147.13 335.401 Q144.075 330.795 144.075 322.068 Q144.075 313.318 147.13 308.735 Q150.209 304.128 156.019 304.128 Z" fill="#000000" fill-rule="nonzero" fill-opacity="1" /><path clip-path="url(#clip560)" d="M186.181 307.832 Q182.57 307.832 180.741 311.397 Q178.936 314.938 178.936 322.068 Q178.936 329.174 180.741 332.739 Q182.57 336.281 186.181 336.281 Q189.815 336.281 191.621 332.739 Q193.45 329.174 193.45 322.068 Q193.45 314.938 191.621 311.397 Q189.815 307.832 186.181 307.832 M186.181 304.128 Q191.991 304.128 195.047 308.735 Q198.125 313.318 198.125 322.068 Q198.125 330.795 195.047 335.401 Q191.991 339.984 186.181 339.984 Q180.371 339.984 177.292 335.401 Q174.237 330.795 174.237 322.068 Q174.237 313.318 177.292 308.735 Q180.371 304.128 186.181 304.128 Z" fill="#000000" fill-rule="nonzero" fill-opacity="1" /><path clip-path="url(#clip560)" d="M216.343 307.832 Q212.732 307.832 210.903 311.397 Q209.098 314.938 209.098 322.068 Q209.098 329.174 210.903 332.739 Q212.732 336.281 216.343 336.281 Q219.977 336.281 221.783 332.739 Q223.611 329.174 223.611 322.068 Q223.611 314.938 221.783 311.397 Q219.977 307.832 216.343 307.832 M216.343 304.128 Q222.153 304.128 225.209 308.735 Q228.287 313.318 228.287 322.068 Q228.287 330.795 225.209 335.401 Q222.153 339.984 216.343 339.984 Q210.533 339.984 207.454 335.401 Q204.399 330.795 204.399 322.068 Q204.399 313.318 207.454 308.735 Q210.533 304.128 216.343 304.128 Z" fill="#000000" fill-rule="nonzero" fill-opacity="1" /><path clip-path="url(#clip560)" d="M16.4842 1229.97 L16.4842 1223.51 L45.3526 1223.51 Q52.9915 1223.51 56.3653 1220.74 Q59.7073 1217.97 59.7073 1211.76 Q59.7073 1205.59 56.3653 1202.82 Q52.9915 1200.05 45.3526 1200.05 L16.4842 1200.05 L16.4842 1193.59 L46.1484 1193.59 Q55.4423 1193.59 60.1847 1198.21 Q64.9272 1202.79 64.9272 1211.76 Q64.9272 1220.77 60.1847 1225.39 Q55.4423 1229.97 46.1484 1229.97 L16.4842 1229.97 Z" fill="#000000" fill-rule="nonzero" fill-opacity="1" /><path clip-path="url(#clip560)" d="M58.657 1176.12 L77.5631 1176.12 L77.5631 1182 L28.3562 1182 L28.3562 1176.12 L33.7671 1176.12 Q30.5842 1174.27 29.0564 1171.47 Q27.4968 1168.64 27.4968 1164.72 Q27.4968 1158.23 32.6531 1154.19 Q37.8093 1150.11 46.212 1150.11 Q54.6147 1150.11 59.771 1154.19 Q64.9272 1158.23 64.9272 1164.72 Q64.9272 1168.64 63.3994 1171.47 Q61.8398 1174.27 58.657 1176.12 M46.212 1156.19 Q39.7508 1156.19 36.0905 1158.87 Q32.3984 1161.51 32.3984 1166.15 Q32.3984 1170.8 36.0905 1173.47 Q39.7508 1176.12 46.212 1176.12 Q52.6732 1176.12 56.3653 1173.47 Q60.0256 1170.8 60.0256 1166.15 Q60.0256 1161.51 56.3653 1158.87 Q52.6732 1156.19 46.212 1156.19 Z" fill="#000000" fill-rule="nonzero" fill-opacity="1" /><path clip-path="url(#clip560)" d="M58.657 1134.74 L77.5631 1134.74 L77.5631 1140.63 L28.3562 1140.63 L28.3562 1134.74 L33.7671 1134.74 Q30.5842 1132.89 29.0564 1130.09 Q27.4968 1127.26 27.4968 1123.34 Q27.4968 1116.85 32.6531 1112.81 Q37.8093 1108.74 46.212 1108.74 Q54.6147 1108.74 59.771 1112.81 Q64.9272 1116.85 64.9272 1123.34 Q64.9272 1127.26 63.3994 1130.09 Q61.8398 1132.89 58.657 1134.74 M46.212 1114.81 Q39.7508 1114.81 36.0905 1117.49 Q32.3984 1120.13 32.3984 1124.78 Q32.3984 1129.42 36.0905 1132.1 Q39.7508 1134.74 46.212 1134.74 Q52.6732 1134.74 56.3653 1132.1 Q60.0256 1129.42 60.0256 1124.78 Q60.0256 1120.13 56.3653 1117.49 Q52.6732 1114.81 46.212 1114.81 Z" fill="#000000" fill-rule="nonzero" fill-opacity="1" /><path clip-path="url(#clip560)" d="M44.7161 1068.54 L47.5806 1068.54 L47.5806 1095.46 Q53.6281 1095.08 56.8109 1091.83 Q59.9619 1088.56 59.9619 1082.73 Q59.9619 1079.36 59.1344 1076.21 Q58.3069 1073.02 56.6518 1069.9 L62.1899 1069.9 Q63.5267 1073.06 64.227 1076.37 Q64.9272 1079.68 64.9272 1083.08 Q64.9272 1091.61 59.9619 1096.61 Q54.9967 1101.57 46.5303 1101.57 Q37.7774 1101.57 32.6531 1096.86 Q27.4968 1092.12 27.4968 1084.1 Q27.4968 1076.91 32.1438 1072.74 Q36.7589 1068.54 44.7161 1068.54 M42.9973 1074.39 Q38.1912 1074.46 35.3266 1077.1 Q32.4621 1079.71 32.4621 1084.04 Q32.4621 1088.94 35.2312 1091.9 Q38.0002 1094.83 43.0292 1095.27 L42.9973 1074.39 Z" fill="#000000" fill-rule="nonzero" fill-opacity="1" /><path clip-path="url(#clip560)" d="M33.8307 1038.27 Q33.2578 1039.25 33.0032 1040.43 Q32.7167 1041.58 32.7167 1042.98 Q32.7167 1047.94 35.9632 1050.62 Q39.1779 1053.26 45.2253 1053.26 L64.0042 1053.26 L64.0042 1059.15 L28.3562 1059.15 L28.3562 1053.26 L33.8944 1053.26 Q30.6479 1051.41 29.0883 1048.45 Q27.4968 1045.49 27.4968 1041.26 Q27.4968 1040.65 27.5923 1039.92 Q27.656 1039.19 27.8151 1038.3 L33.8307 1038.27 Z" fill="#000000" fill-rule="nonzero" fill-opacity="1" /><path clip-path="url(#clip560)" d="M43.5384 1039.25 L43.5384 1022.1 L48.7583 1022.1 L48.7583 1039.25 L43.5384 1039.25 Z" fill="#000000" fill-rule="nonzero" fill-opacity="1" /><path clip-path="url(#clip560)" d="M16.4842 1012.52 L16.4842 1006.09 L58.5933 1006.09 L58.5933 982.949 L64.0042 982.949 L64.0042 1012.52 L16.4842 1012.52 Z" fill="#000000" fill-rule="nonzero" fill-opacity="1" /><path clip-path="url(#clip560)" d="M44.7161 947.11 L47.5806 947.11 L47.5806 974.037 Q53.6281 973.655 56.8109 970.408 Q59.9619 967.13 59.9619 961.305 Q59.9619 957.931 59.1344 954.78 Q58.3069 951.598 56.6518 948.478 L62.1899 948.478 Q63.5267 951.629 64.227 954.94 Q64.9272 958.25 64.9272 961.655 Q64.9272 970.185 59.9619 975.183 Q54.9967 980.148 46.5303 980.148 Q37.7774 980.148 32.6531 975.437 Q27.4968 970.695 27.4968 962.674 Q27.4968 955.481 32.1438 951.311 Q36.7589 947.11 44.7161 947.11 M42.9973 952.966 Q38.1912 953.03 35.3266 955.672 Q32.4621 958.282 32.4621 962.61 Q32.4621 967.512 35.2312 970.472 Q38.0002 973.4 43.0292 973.846 L42.9973 952.966 Z" fill="#000000" fill-rule="nonzero" fill-opacity="1" /><path clip-path="url(#clip560)" d="M28.3562 941.699 L28.3562 935.492 L58.275 924.352 L28.3562 913.212 L28.3562 907.006 L64.0042 920.374 L64.0042 928.331 L28.3562 941.699 Z" fill="#000000" fill-rule="nonzero" fill-opacity="1" /><path clip-path="url(#clip560)" d="M44.7161 868.43 L47.5806 868.43 L47.5806 895.357 Q53.6281 894.975 56.8109 891.728 Q59.9619 888.45 59.9619 882.625 Q59.9619 879.251 59.1344 876.1 Q58.3069 872.917 56.6518 869.798 L62.1899 869.798 Q63.5267 872.949 64.227 876.259 Q64.9272 879.57 64.9272 882.975 Q64.9272 891.505 59.9619 896.502 Q54.9967 901.468 46.5303 901.468 Q37.7774 901.468 32.6531 896.757 Q27.4968 892.015 27.4968 883.994 Q27.4968 876.801 32.1438 872.631 Q36.7589 868.43 44.7161 868.43 M42.9973 874.286 Q38.1912 874.35 35.3266 876.992 Q32.4621 879.601 32.4621 883.93 Q32.4621 888.832 35.2312 891.792 Q38.0002 894.72 43.0292 895.166 L42.9973 874.286 Z" fill="#000000" fill-rule="nonzero" fill-opacity="1" /><path clip-path="url(#clip560)" d="M14.479 858.817 L14.479 852.961 L64.0042 852.961 L64.0042 858.817 L14.479 858.817 Z" fill="#000000" fill-rule="nonzero" fill-opacity="1" /><path clip-path="url(#clip560)" d="M16.4842 819.732 L16.4842 813.303 L58.5933 813.303 L58.5933 790.163 L64.0042 790.163 L64.0042 819.732 L16.4842 819.732 Z" fill="#000000" fill-rule="nonzero" fill-opacity="1" /><path clip-path="url(#clip560)" d="M32.4621 771.003 Q32.4621 775.713 36.1542 778.45 Q39.8145 781.188 46.212 781.188 Q52.6095 781.188 56.3017 778.482 Q59.9619 775.745 59.9619 771.003 Q59.9619 766.324 56.2698 763.586 Q52.5777 760.849 46.212 760.849 Q39.8781 760.849 36.186 763.586 Q32.4621 766.324 32.4621 771.003 M27.4968 771.003 Q27.4968 763.364 32.4621 759.003 Q37.4273 754.643 46.212 754.643 Q54.9649 754.643 59.9619 759.003 Q64.9272 763.364 64.9272 771.003 Q64.9272 778.673 59.9619 783.034 Q54.9649 787.362 46.212 787.362 Q37.4273 787.362 32.4621 783.034 Q27.4968 778.673 27.4968 771.003 Z" fill="#000000" fill-rule="nonzero" fill-opacity="1" /><path clip-path="url(#clip560)" d="M46.0847 728.734 Q46.0847 735.832 47.7079 738.569 Q49.3312 741.306 53.2461 741.306 Q56.3653 741.306 58.2114 739.269 Q60.0256 737.201 60.0256 733.668 Q60.0256 728.798 56.5881 725.87 Q53.1188 722.91 47.3897 722.91 L46.0847 722.91 L46.0847 728.734 M43.6657 717.053 L64.0042 717.053 L64.0042 722.91 L58.5933 722.91 Q61.8398 724.915 63.3994 727.907 Q64.9272 730.899 64.9272 735.227 Q64.9272 740.702 61.8716 743.948 Q58.7843 747.163 53.6281 747.163 Q47.6125 747.163 44.5569 743.153 Q41.5014 739.11 41.5014 731.121 L41.5014 722.91 L40.9285 722.91 Q36.8862 722.91 34.6901 725.583 Q32.4621 728.225 32.4621 733.031 Q32.4621 736.087 33.1941 738.983 Q33.9262 741.879 35.3903 744.553 L29.9795 744.553 Q28.7381 741.338 28.1334 738.315 Q27.4968 735.291 27.4968 732.426 Q27.4968 724.692 31.5072 720.873 Q35.5176 717.053 43.6657 717.053 Z" fill="#000000" fill-rule="nonzero" fill-opacity="1" /><path clip-path="url(#clip560)" d="M33.7671 681.532 L14.479 681.532 L14.479 675.676 L64.0042 675.676 L64.0042 681.532 L58.657 681.532 Q61.8398 683.379 63.3994 686.211 Q64.9272 689.012 64.9272 692.959 Q64.9272 699.42 59.771 703.494 Q54.6147 707.536 46.212 707.536 Q37.8093 707.536 32.6531 703.494 Q27.4968 699.42 27.4968 692.959 Q27.4968 689.012 29.0564 686.211 Q30.5842 683.379 33.7671 681.532 M46.212 701.489 Q52.6732 701.489 56.3653 698.847 Q60.0256 696.174 60.0256 691.527 Q60.0256 686.88 56.3653 684.206 Q52.6732 681.532 46.212 681.532 Q39.7508 681.532 36.0905 684.206 Q32.3984 686.88 32.3984 691.527 Q32.3984 696.174 36.0905 698.847 Q39.7508 701.489 46.212 701.489 Z" fill="#000000" fill-rule="nonzero" fill-opacity="1" /><path clip-path="url(#clip560)" d="M18.0438 614.151 L24.314 614.151 Q22.5634 617.812 21.704 621.058 Q20.8447 624.305 20.8447 627.329 Q20.8447 632.58 22.8817 635.445 Q24.9187 638.278 28.6745 638.278 Q31.8255 638.278 33.4488 636.4 Q35.0402 634.49 36.0269 629.206 L36.8226 625.323 Q38.1912 618.13 41.6605 614.724 Q45.098 611.287 50.8908 611.287 Q57.7976 611.287 61.3624 615.934 Q64.9272 620.549 64.9272 629.493 Q64.9272 632.867 64.1633 636.686 Q63.3994 640.474 61.9035 644.548 L55.2831 644.548 Q57.4793 640.633 58.5933 636.877 Q59.7073 633.121 59.7073 629.493 Q59.7073 623.987 57.543 620.995 Q55.3786 618.003 51.3682 618.003 Q47.8671 618.003 45.8937 620.167 Q43.9204 622.3 42.9337 627.201 L42.1698 631.116 Q40.7375 638.309 37.682 641.524 Q34.6264 644.739 29.1837 644.739 Q22.8817 644.739 19.2532 640.315 Q15.6248 635.859 15.6248 628.061 Q15.6248 624.719 16.2295 621.249 Q16.8343 617.78 18.0438 614.151 Z" fill="#000000" fill-rule="nonzero" fill-opacity="1" /><path clip-path="url(#clip560)" d="M42.4881 571.883 L64.0042 571.883 L64.0042 577.74 L42.679 577.74 Q37.6183 577.74 35.1038 579.713 Q32.5894 581.686 32.5894 585.633 Q32.5894 590.376 35.6131 593.113 Q38.6368 595.85 43.8567 595.85 L64.0042 595.85 L64.0042 601.738 L14.479 601.738 L14.479 595.85 L33.8944 595.85 Q30.6797 593.749 29.0883 590.917 Q27.4968 588.052 27.4968 584.328 Q27.4968 578.185 31.3163 575.034 Q35.1038 571.883 42.4881 571.883 Z" fill="#000000" fill-rule="nonzero" fill-opacity="1" /><path clip-path="url(#clip560)" d="M44.7161 529.71 L47.5806 529.71 L47.5806 556.637 Q53.6281 556.255 56.8109 553.009 Q59.9619 549.731 59.9619 543.906 Q59.9619 540.532 59.1344 537.381 Q58.3069 534.198 56.6518 531.079 L62.1899 531.079 Q63.5267 534.23 64.227 537.54 Q64.9272 540.85 64.9272 544.256 Q64.9272 552.786 59.9619 557.783 Q54.9967 562.748 46.5303 562.748 Q37.7774 562.748 32.6531 558.038 Q27.4968 553.295 27.4968 545.275 Q27.4968 538.081 32.1438 533.912 Q36.7589 529.71 44.7161 529.71 M42.9973 535.567 Q38.1912 535.63 35.3266 538.272 Q32.4621 540.882 32.4621 545.211 Q32.4621 550.112 35.2312 553.073 Q38.0002 556.001 43.0292 556.446 L42.9973 535.567 Z" fill="#000000" fill-rule="nonzero" fill-opacity="1" /><path clip-path="url(#clip560)" d="M33.7671 496.641 L14.479 496.641 L14.479 490.784 L64.0042 490.784 L64.0042 496.641 L58.657 496.641 Q61.8398 498.487 63.3994 501.319 Q64.9272 504.12 64.9272 508.067 Q64.9272 514.528 59.771 518.602 Q54.6147 522.644 46.212 522.644 Q37.8093 522.644 32.6531 518.602 Q27.4968 514.528 27.4968 508.067 Q27.4968 504.12 29.0564 501.319 Q30.5842 498.487 33.7671 496.641 M46.212 516.597 Q52.6732 516.597 56.3653 513.955 Q60.0256 511.282 60.0256 506.635 Q60.0256 501.988 56.3653 499.314 Q52.6732 496.641 46.212 496.641 Q39.7508 496.641 36.0905 499.314 Q32.3984 501.988 32.3984 506.635 Q32.3984 511.282 36.0905 513.955 Q39.7508 516.597 46.212 516.597 Z" fill="#000000" fill-rule="nonzero" fill-opacity="1" /><path clip-path="url(#clip560)" d="M14.5426 443.932 Q21.8632 448.198 29.0246 450.266 Q36.186 452.335 43.5384 452.335 Q50.8908 452.335 58.1159 450.266 Q65.3091 448.166 72.5979 443.932 L72.5979 449.025 Q65.1182 453.799 57.8931 456.186 Q50.668 458.542 43.5384 458.542 Q36.4406 458.542 29.2474 456.186 Q22.0542 453.831 14.5426 449.025 L14.5426 443.932 Z" fill="#000000" fill-rule="nonzero" fill-opacity="1" /><path clip-path="url(#clip560)" d="M14.479 432.793 L14.479 426.904 L43.7294 426.904 L28.3562 409.43 L28.3562 401.951 L45.0344 420.857 L64.0042 401.155 L64.0042 408.794 L46.5939 426.904 L64.0042 426.904 L64.0042 432.793 L14.479 432.793 Z" fill="#000000" fill-rule="nonzero" fill-opacity="1" /><path clip-path="url(#clip560)" d="M16.4842 398.8 L16.4842 392.307 L56.6518 382.312 L16.4842 372.35 L16.4842 365.125 L56.6518 355.131 L16.4842 345.169 L16.4842 338.644 L64.0042 350.579 L64.0042 358.664 L22.7544 368.69 L64.0042 378.811 L64.0042 386.896 L16.4842 398.8 Z" fill="#000000" fill-rule="nonzero" fill-opacity="1" /><path clip-path="url(#clip560)" d="M14.5426 331.291 L14.5426 326.199 Q22.0542 321.424 29.2474 319.069 Q36.4406 316.682 43.5384 316.682 Q50.668 316.682 57.8931 319.069 Q65.1182 321.424 72.5979 326.199 L72.5979 331.291 Q65.3091 327.058 58.1159 324.989 Q50.8908 322.889 43.5384 322.889 Q36.186 322.889 29.0246 324.989 Q21.8632 327.058 14.5426 331.291 Z" fill="#000000" fill-rule="nonzero" fill-opacity="1" /><path clip-path="url(#clip560)" d="M525.502 12.096 L533.685 12.096 L533.685 65.6895 L563.135 65.6895 L563.135 72.576 L525.502 72.576 L525.502 12.096 Z" fill="#000000" fill-rule="nonzero" fill-opacity="1" /><path clip-path="url(#clip560)" d="M587.521 32.4315 Q581.526 32.4315 578.042 37.1306 Q574.559 41.7891 574.559 49.9314 Q574.559 58.0738 578.002 62.7728 Q581.486 67.4314 587.521 67.4314 Q593.476 67.4314 596.96 62.7323 Q600.444 58.0333 600.444 49.9314 Q600.444 41.8701 596.96 37.1711 Q593.476 32.4315 587.521 32.4315 M587.521 26.1121 Q597.244 26.1121 602.793 32.4315 Q608.343 38.7509 608.343 49.9314 Q608.343 61.0714 602.793 67.4314 Q597.244 73.7508 587.521 73.7508 Q577.759 73.7508 572.209 67.4314 Q566.7 61.0714 566.7 49.9314 Q566.7 38.7509 572.209 32.4315 Q577.759 26.1121 587.521 26.1121 Z" fill="#000000" fill-rule="nonzero" fill-opacity="1" /><path clip-path="url(#clip560)" d="M641.317 49.7694 Q632.284 49.7694 628.8 51.8354 Q625.316 53.9013 625.316 58.8839 Q625.316 62.8538 627.909 65.2034 Q630.542 67.5124 635.039 67.5124 Q641.236 67.5124 644.963 63.1374 Q648.731 58.7219 648.731 51.4303 L648.731 49.7694 L641.317 49.7694 M656.184 46.6907 L656.184 72.576 L648.731 72.576 L648.731 65.6895 Q646.179 69.8214 642.371 71.8063 Q638.563 73.7508 633.054 73.7508 Q626.086 73.7508 621.954 69.8619 Q617.863 65.9325 617.863 59.3701 Q617.863 51.7138 622.967 47.825 Q628.111 43.9361 638.279 43.9361 L648.731 43.9361 L648.731 43.2069 Q648.731 38.0623 645.328 35.2672 Q641.966 32.4315 635.849 32.4315 Q631.96 32.4315 628.274 33.3632 Q624.587 34.295 621.184 36.1584 L621.184 29.2718 Q625.276 27.692 629.124 26.9223 Q632.973 26.1121 636.618 26.1121 Q646.462 26.1121 651.323 31.2163 Q656.184 36.3204 656.184 46.6907 Z" fill="#000000" fill-rule="nonzero" fill-opacity="1" /><path clip-path="url(#clip560)" d="M701.392 34.0924 L701.392 9.54393 L708.846 9.54393 L708.846 72.576 L701.392 72.576 L701.392 65.7705 Q699.043 69.8214 695.438 71.8063 Q691.873 73.7508 686.85 73.7508 Q678.626 73.7508 673.441 67.1883 Q668.296 60.6258 668.296 49.9314 Q668.296 39.2371 673.441 32.6746 Q678.626 26.1121 686.85 26.1121 Q691.873 26.1121 695.438 28.0971 Q699.043 30.0415 701.392 34.0924 M675.993 49.9314 Q675.993 58.1548 679.355 62.8538 Q682.758 67.5124 688.673 67.5124 Q694.587 67.5124 697.99 62.8538 Q701.392 58.1548 701.392 49.9314 Q701.392 41.7081 697.99 37.0496 Q694.587 32.3505 688.673 32.3505 Q682.758 32.3505 679.355 37.0496 Q675.993 41.7081 675.993 49.9314 Z" fill="#000000" fill-rule="nonzero" fill-opacity="1" /><path clip-path="url(#clip560)" d="M787.15 14.0809 L787.15 22.0612 Q782.491 19.8332 778.36 18.7395 Q774.228 17.6457 770.379 17.6457 Q763.695 17.6457 760.049 20.2383 Q756.444 22.8309 756.444 27.611 Q756.444 31.6214 758.834 33.6873 Q761.265 35.7128 767.989 36.9686 L772.931 37.9813 Q782.086 39.7232 786.421 44.1387 Q790.796 48.5136 790.796 55.8863 Q790.796 64.6767 784.881 69.2137 Q779.008 73.7508 767.625 73.7508 Q763.331 73.7508 758.47 72.7785 Q753.649 71.8063 748.464 69.9024 L748.464 61.4765 Q753.446 64.2716 758.227 65.6895 Q763.007 67.1073 767.625 67.1073 Q774.633 67.1073 778.441 64.3527 Q782.248 61.598 782.248 56.4939 Q782.248 52.0379 779.494 49.5264 Q776.78 47.0148 770.541 45.759 L765.559 44.7868 Q756.404 42.9639 752.312 39.075 Q748.221 35.1862 748.221 28.2591 Q748.221 20.2383 753.852 15.6203 Q759.523 11.0023 769.448 11.0023 Q773.701 11.0023 778.116 11.7719 Q782.532 12.5416 787.15 14.0809 Z" fill="#000000" fill-rule="nonzero" fill-opacity="1" /><path clip-path="url(#clip560)" d="M840.946 45.1919 L840.946 72.576 L833.492 72.576 L833.492 45.4349 Q833.492 38.994 830.981 35.7938 Q828.469 32.5936 823.446 32.5936 Q817.41 32.5936 813.926 36.4419 Q810.443 40.2903 810.443 46.9338 L810.443 72.576 L802.949 72.576 L802.949 9.54393 L810.443 9.54393 L810.443 34.2544 Q813.116 30.163 816.722 28.1376 Q820.367 26.1121 825.107 26.1121 Q832.925 26.1121 836.936 30.9732 Q840.946 35.7938 840.946 45.1919 Z" fill="#000000" fill-rule="nonzero" fill-opacity="1" /><path clip-path="url(#clip560)" d="M894.62 48.0275 L894.62 51.6733 L860.35 51.6733 Q860.836 59.3701 864.968 63.421 Q869.14 67.4314 876.553 67.4314 Q880.847 67.4314 884.858 66.3781 Q888.909 65.3249 892.879 63.2184 L892.879 70.267 Q888.868 71.9684 884.655 72.8596 Q880.442 73.7508 876.108 73.7508 Q865.251 73.7508 858.892 67.4314 Q852.572 61.1119 852.572 50.3365 Q852.572 39.1965 858.567 32.6746 Q864.603 26.1121 874.812 26.1121 Q883.967 26.1121 889.273 32.0264 Q894.62 37.9003 894.62 48.0275 M887.167 45.84 Q887.086 39.7232 883.724 36.0774 Q880.402 32.4315 874.893 32.4315 Q868.654 32.4315 864.887 35.9558 Q861.16 39.4801 860.593 45.8805 L887.167 45.84 Z" fill="#000000" fill-rule="nonzero" fill-opacity="1" /><path clip-path="url(#clip560)" d="M936.709 34.0924 L936.709 9.54393 L944.163 9.54393 L944.163 72.576 L936.709 72.576 L936.709 65.7705 Q934.36 69.8214 930.755 71.8063 Q927.19 73.7508 922.167 73.7508 Q913.943 73.7508 908.758 67.1883 Q903.613 60.6258 903.613 49.9314 Q903.613 39.2371 908.758 32.6746 Q913.943 26.1121 922.167 26.1121 Q927.19 26.1121 930.755 28.0971 Q934.36 30.0415 936.709 34.0924 M911.31 49.9314 Q911.31 58.1548 914.672 62.8538 Q918.075 67.5124 923.99 67.5124 Q929.904 67.5124 933.307 62.8538 Q936.709 58.1548 936.709 49.9314 Q936.709 41.7081 933.307 37.0496 Q929.904 32.3505 923.99 32.3505 Q918.075 32.3505 914.672 37.0496 Q911.31 41.7081 911.31 49.9314 Z" fill="#000000" fill-rule="nonzero" fill-opacity="1" /><path clip-path="url(#clip560)" d="M1031.5 16.7545 L1031.5 25.383 Q1027.37 21.5346 1022.67 19.6307 Q1018.01 17.7268 1012.74 17.7268 Q1002.37 17.7268 996.865 24.0867 Q991.356 30.4061 991.356 42.3968 Q991.356 54.3469 996.865 60.7069 Q1002.37 67.0263 1012.74 67.0263 Q1018.01 67.0263 1022.67 65.1223 Q1027.37 63.2184 1031.5 59.3701 L1031.5 67.9175 Q1027.21 70.8341 1022.39 72.2924 Q1017.61 73.7508 1012.26 73.7508 Q998.526 73.7508 990.627 65.3654 Q982.728 56.9395 982.728 42.3968 Q982.728 27.8135 990.627 19.4281 Q998.526 11.0023 1012.26 11.0023 Q1017.69 11.0023 1022.47 12.4606 Q1027.29 13.8784 1031.5 16.7545 Z" fill="#000000" fill-rule="nonzero" fill-opacity="1" /><path clip-path="url(#clip560)" d="M1061.4 32.4315 Q1055.4 32.4315 1051.92 37.1306 Q1048.43 41.7891 1048.43 49.9314 Q1048.43 58.0738 1051.88 62.7728 Q1055.36 67.4314 1061.4 67.4314 Q1067.35 67.4314 1070.83 62.7323 Q1074.32 58.0333 1074.32 49.9314 Q1074.32 41.8701 1070.83 37.1711 Q1067.35 32.4315 1061.4 32.4315 M1061.4 26.1121 Q1071.12 26.1121 1076.67 32.4315 Q1082.22 38.7509 1082.22 49.9314 Q1082.22 61.0714 1076.67 67.4314 Q1071.12 73.7508 1061.4 73.7508 Q1051.63 73.7508 1046.08 67.4314 Q1040.57 61.0714 1040.57 49.9314 Q1040.57 38.7509 1046.08 32.4315 Q1051.63 26.1121 1061.4 26.1121 Z" fill="#000000" fill-rule="nonzero" fill-opacity="1" /><path clip-path="url(#clip560)" d="M1129.9 35.9153 Q1132.69 30.8922 1136.58 28.5022 Q1140.47 26.1121 1145.74 26.1121 Q1152.83 26.1121 1156.67 31.0947 Q1160.52 36.0368 1160.52 45.1919 L1160.52 72.576 L1153.03 72.576 L1153.03 45.4349 Q1153.03 38.913 1150.72 35.7533 Q1148.41 32.5936 1143.67 32.5936 Q1137.88 32.5936 1134.52 36.4419 Q1131.15 40.2903 1131.15 46.9338 L1131.15 72.576 L1123.66 72.576 L1123.66 45.4349 Q1123.66 38.8725 1121.35 35.7533 Q1119.04 32.5936 1114.22 32.5936 Q1108.51 32.5936 1105.15 36.4824 Q1101.78 40.3308 1101.78 46.9338 L1101.78 72.576 L1094.29 72.576 L1094.29 27.2059 L1101.78 27.2059 L1101.78 34.2544 Q1104.34 30.082 1107.9 28.0971 Q1111.47 26.1121 1116.37 26.1121 Q1121.31 26.1121 1124.75 28.6237 Q1128.24 31.1352 1129.9 35.9153 Z" fill="#000000" fill-rule="nonzero" fill-opacity="1" /><path clip-path="url(#clip560)" d="M1182.6 65.7705 L1182.6 89.8329 L1175.11 89.8329 L1175.11 27.2059 L1182.6 27.2059 L1182.6 34.0924 Q1184.95 30.0415 1188.51 28.0971 Q1192.12 26.1121 1197.1 26.1121 Q1205.37 26.1121 1210.51 32.6746 Q1215.7 39.2371 1215.7 49.9314 Q1215.7 60.6258 1210.51 67.1883 Q1205.37 73.7508 1197.1 73.7508 Q1192.12 73.7508 1188.51 71.8063 Q1184.95 69.8214 1182.6 65.7705 M1207.96 49.9314 Q1207.96 41.7081 1204.56 37.0496 Q1201.19 32.3505 1195.28 32.3505 Q1189.36 32.3505 1185.96 37.0496 Q1182.6 41.7081 1182.6 49.9314 Q1182.6 58.1548 1185.96 62.8538 Q1189.36 67.5124 1195.28 67.5124 Q1201.19 67.5124 1204.56 62.8538 Q1207.96 58.1548 1207.96 49.9314 Z" fill="#000000" fill-rule="nonzero" fill-opacity="1" /><path clip-path="url(#clip560)" d="M1248.67 49.7694 Q1239.64 49.7694 1236.15 51.8354 Q1232.67 53.9013 1232.67 58.8839 Q1232.67 62.8538 1235.26 65.2034 Q1237.89 67.5124 1242.39 67.5124 Q1248.59 67.5124 1252.32 63.1374 Q1256.08 58.7219 1256.08 51.4303 L1256.08 49.7694 L1248.67 49.7694 M1263.54 46.6907 L1263.54 72.576 L1256.08 72.576 L1256.08 65.6895 Q1253.53 69.8214 1249.72 71.8063 Q1245.91 73.7508 1240.41 73.7508 Q1233.44 73.7508 1229.31 69.8619 Q1225.21 65.9325 1225.21 59.3701 Q1225.21 51.7138 1230.32 47.825 Q1235.46 43.9361 1245.63 43.9361 L1256.08 43.9361 L1256.08 43.2069 Q1256.08 38.0623 1252.68 35.2672 Q1249.32 32.4315 1243.2 32.4315 Q1239.31 32.4315 1235.63 33.3632 Q1231.94 34.295 1228.54 36.1584 L1228.54 29.2718 Q1232.63 27.692 1236.48 26.9223 Q1240.32 26.1121 1243.97 26.1121 Q1253.81 26.1121 1258.68 31.2163 Q1263.54 36.3204 1263.54 46.6907 Z" fill="#000000" fill-rule="nonzero" fill-opacity="1" /><path clip-path="url(#clip560)" d="M1305.18 34.1734 Q1303.92 33.4443 1302.43 33.1202 Q1300.97 32.7556 1299.18 32.7556 Q1292.86 32.7556 1289.46 36.8875 Q1286.1 40.9789 1286.1 48.6757 L1286.1 72.576 L1278.61 72.576 L1278.61 27.2059 L1286.1 27.2059 L1286.1 34.2544 Q1288.45 30.1225 1292.22 28.1376 Q1295.98 26.1121 1301.37 26.1121 Q1302.14 26.1121 1303.07 26.2337 Q1304 26.3147 1305.14 26.5172 L1305.18 34.1734 Z" fill="#000000" fill-rule="nonzero" fill-opacity="1" /><path clip-path="url(#clip560)" d="M1313 27.2059 L1320.45 27.2059 L1320.45 72.576 L1313 72.576 L1313 27.2059 M1313 9.54393 L1320.45 9.54393 L1320.45 18.9825 L1313 18.9825 L1313 9.54393 Z" fill="#000000" fill-rule="nonzero" fill-opacity="1" /><path clip-path="url(#clip560)" d="M1364.97 28.5427 L1364.97 35.5912 Q1361.81 33.9709 1358.41 33.1607 Q1355.01 32.3505 1351.36 32.3505 Q1345.81 32.3505 1343.02 34.0519 Q1340.26 35.7533 1340.26 39.156 Q1340.26 41.7486 1342.25 43.2475 Q1344.23 44.7058 1350.23 46.0426 L1352.78 46.6097 Q1360.72 48.3111 1364.04 51.4303 Q1367.4 54.509 1367.4 60.0587 Q1367.4 66.3781 1362.38 70.0644 Q1357.4 73.7508 1348.65 73.7508 Q1345 73.7508 1341.03 73.0216 Q1337.1 72.3329 1332.73 70.9151 L1332.73 63.2184 Q1336.86 65.3654 1340.87 66.4591 Q1344.88 67.5124 1348.81 67.5124 Q1354.07 67.5124 1356.91 65.73 Q1359.75 63.9071 1359.75 60.6258 Q1359.75 57.5877 1357.68 55.9673 Q1355.65 54.3469 1348.73 52.8481 L1346.13 52.2405 Q1339.21 50.7821 1336.13 47.7845 Q1333.05 44.7463 1333.05 39.4801 Q1333.05 33.0797 1337.59 29.5959 Q1342.12 26.1121 1350.47 26.1121 Q1354.6 26.1121 1358.25 26.7198 Q1361.89 27.3274 1364.97 28.5427 Z" fill="#000000" fill-rule="nonzero" fill-opacity="1" /><path clip-path="url(#clip560)" d="M1396.85 32.4315 Q1390.86 32.4315 1387.37 37.1306 Q1383.89 41.7891 1383.89 49.9314 Q1383.89 58.0738 1387.33 62.7728 Q1390.82 67.4314 1396.85 67.4314 Q1402.81 67.4314 1406.29 62.7323 Q1409.77 58.0333 1409.77 49.9314 Q1409.77 41.8701 1406.29 37.1711 Q1402.81 32.4315 1396.85 32.4315 M1396.85 26.1121 Q1406.57 26.1121 1412.12 32.4315 Q1417.67 38.7509 1417.67 49.9314 Q1417.67 61.0714 1412.12 67.4314 Q1406.57 73.7508 1396.85 73.7508 Q1387.09 73.7508 1381.54 67.4314 Q1376.03 61.0714 1376.03 49.9314 Q1376.03 38.7509 1381.54 32.4315 Q1387.09 26.1121 1396.85 26.1121 Z" fill="#000000" fill-rule="nonzero" fill-opacity="1" /><path clip-path="url(#clip560)" d="M1467.74 45.1919 L1467.74 72.576 L1460.29 72.576 L1460.29 45.4349 Q1460.29 38.994 1457.78 35.7938 Q1455.27 32.5936 1450.24 32.5936 Q1444.21 32.5936 1440.72 36.4419 Q1437.24 40.2903 1437.24 46.9338 L1437.24 72.576 L1429.74 72.576 L1429.74 27.2059 L1437.24 27.2059 L1437.24 34.2544 Q1439.91 30.163 1443.52 28.1376 Q1447.16 26.1121 1451.9 26.1121 Q1459.72 26.1121 1463.73 30.9732 Q1467.74 35.7938 1467.74 45.1919 Z" fill="#000000" fill-rule="nonzero" fill-opacity="1" /><path clip-path="url(#clip560)" d="M1526.89 9.62495 Q1521.46 18.942 1518.82 28.0566 Q1516.19 37.1711 1516.19 46.5287 Q1516.19 55.8863 1518.82 65.0818 Q1521.5 74.2369 1526.89 83.5134 L1520.4 83.5134 Q1514.33 73.9938 1511.29 64.7983 Q1508.29 55.6027 1508.29 46.5287 Q1508.29 37.4952 1511.29 28.3401 Q1514.29 19.1851 1520.4 9.62495 L1526.89 9.62495 Z" fill="#000000" fill-rule="nonzero" fill-opacity="1" /><path clip-path="url(#clip560)" d="M1580.15 48.0275 L1580.15 51.6733 L1545.88 51.6733 Q1546.37 59.3701 1550.5 63.421 Q1554.67 67.4314 1562.09 67.4314 Q1566.38 67.4314 1570.39 66.3781 Q1574.44 65.3249 1578.41 63.2184 L1578.41 70.267 Q1574.4 71.9684 1570.19 72.8596 Q1565.98 73.7508 1561.64 73.7508 Q1550.79 73.7508 1544.43 67.4314 Q1538.11 61.1119 1538.11 50.3365 Q1538.11 39.1965 1544.1 32.6746 Q1550.14 26.1121 1560.35 26.1121 Q1569.5 26.1121 1574.81 32.0264 Q1580.15 37.9003 1580.15 48.0275 M1572.7 45.84 Q1572.62 39.7232 1569.26 36.0774 Q1565.94 32.4315 1560.43 32.4315 Q1554.19 32.4315 1550.42 35.9558 Q1546.69 39.4801 1546.13 45.8805 L1572.7 45.84 Z" fill="#000000" fill-rule="nonzero" fill-opacity="1" /><path clip-path="url(#clip560)" d="M1596.84 49.9314 Q1596.84 58.1548 1600.21 62.8538 Q1603.61 67.5124 1609.52 67.5124 Q1615.44 67.5124 1618.84 62.8538 Q1622.24 58.1548 1622.24 49.9314 Q1622.24 41.7081 1618.84 37.0496 Q1615.44 32.3505 1609.52 32.3505 Q1603.61 32.3505 1600.21 37.0496 Q1596.84 41.7081 1596.84 49.9314 M1622.24 65.7705 Q1619.89 69.8214 1616.29 71.8063 Q1612.72 73.7508 1607.7 73.7508 Q1599.48 73.7508 1594.29 67.1883 Q1589.15 60.6258 1589.15 49.9314 Q1589.15 39.2371 1594.29 32.6746 Q1599.48 26.1121 1607.7 26.1121 Q1612.72 26.1121 1616.29 28.0971 Q1619.89 30.0415 1622.24 34.0924 L1622.24 27.2059 L1629.7 27.2059 L1629.7 89.8329 L1622.24 89.8329 L1622.24 65.7705 Z" fill="#000000" fill-rule="nonzero" fill-opacity="1" /><path clip-path="url(#clip560)" d="M1644.28 54.671 L1644.28 27.2059 L1651.73 27.2059 L1651.73 54.3874 Q1651.73 60.8284 1654.25 64.0691 Q1656.76 67.2693 1661.78 67.2693 Q1667.82 67.2693 1671.3 63.421 Q1674.82 59.5726 1674.82 52.9291 L1674.82 27.2059 L1682.28 27.2059 L1682.28 72.576 L1674.82 72.576 L1674.82 65.6084 Q1672.11 69.7404 1668.51 71.7658 Q1664.94 73.7508 1660.2 73.7508 Q1652.38 73.7508 1648.33 68.8897 Q1644.28 64.0286 1644.28 54.671 M1663.04 26.1121 L1663.04 26.1121 Z" fill="#000000" fill-rule="nonzero" fill-opacity="1" /><path clip-path="url(#clip560)" d="M1718.25 49.7694 Q1709.22 49.7694 1705.73 51.8354 Q1702.25 53.9013 1702.25 58.8839 Q1702.25 62.8538 1704.84 65.2034 Q1707.47 67.5124 1711.97 67.5124 Q1718.17 67.5124 1721.9 63.1374 Q1725.66 58.7219 1725.66 51.4303 L1725.66 49.7694 L1718.25 49.7694 M1733.12 46.6907 L1733.12 72.576 L1725.66 72.576 L1725.66 65.6895 Q1723.11 69.8214 1719.3 71.8063 Q1715.5 73.7508 1709.99 73.7508 Q1703.02 73.7508 1698.89 69.8619 Q1694.8 65.9325 1694.8 59.3701 Q1694.8 51.7138 1699.9 47.825 Q1705.04 43.9361 1715.21 43.9361 L1725.66 43.9361 L1725.66 43.2069 Q1725.66 38.0623 1722.26 35.2672 Q1718.9 32.4315 1712.78 32.4315 Q1708.89 32.4315 1705.21 33.3632 Q1701.52 34.295 1698.12 36.1584 L1698.12 29.2718 Q1702.21 27.692 1706.06 26.9223 Q1709.91 26.1121 1713.55 26.1121 Q1723.39 26.1121 1728.26 31.2163 Q1733.12 36.3204 1733.12 46.6907 Z" fill="#000000" fill-rule="nonzero" fill-opacity="1" /><path clip-path="url(#clip560)" d="M1748.47 9.54393 L1755.92 9.54393 L1755.92 72.576 L1748.47 72.576 L1748.47 9.54393 Z" fill="#000000" fill-rule="nonzero" fill-opacity="1" /><path clip-path="url(#clip560)" d="M1771.52 27.2059 L1778.97 27.2059 L1778.97 72.576 L1771.52 72.576 L1771.52 27.2059 M1771.52 9.54393 L1778.97 9.54393 L1778.97 18.9825 L1771.52 18.9825 L1771.52 9.54393 Z" fill="#000000" fill-rule="nonzero" fill-opacity="1" /><path clip-path="url(#clip560)" d="M1801.94 14.324 L1801.94 27.2059 L1817.29 27.2059 L1817.29 32.9987 L1801.94 32.9987 L1801.94 57.6282 Q1801.94 63.1779 1803.44 64.7578 Q1804.98 66.3376 1809.64 66.3376 L1817.29 66.3376 L1817.29 72.576 L1809.64 72.576 Q1801.01 72.576 1797.73 69.3758 Q1794.45 66.1351 1794.45 57.6282 L1794.45 32.9987 L1788.98 32.9987 L1788.98 27.2059 L1794.45 27.2059 L1794.45 14.324 L1801.94 14.324 Z" fill="#000000" fill-rule="nonzero" fill-opacity="1" /><path clip-path="url(#clip560)" d="M1845.98 76.7889 Q1842.82 84.8907 1839.82 87.3618 Q1836.82 89.8329 1831.8 89.8329 L1825.84 89.8329 L1825.84 83.5945 L1830.22 83.5945 Q1833.3 83.5945 1835 82.1361 Q1836.7 80.6778 1838.76 75.2496 L1840.1 71.8468 L1821.75 27.2059 L1829.65 27.2059 L1843.83 62.6918 L1858.01 27.2059 L1865.91 27.2059 L1845.98 76.7889 Z" fill="#000000" fill-rule="nonzero" fill-opacity="1" /><path clip-path="url(#clip560)" d="M1910.67 86.3491 L1910.67 92.1419 L1867.57 92.1419 L1867.57 86.3491 L1910.67 86.3491 Z" fill="#000000" fill-rule="nonzero" fill-opacity="1" /><path clip-path="url(#clip560)" d="M1953 35.9153 Q1955.8 30.8922 1959.68 28.5022 Q1963.57 26.1121 1968.84 26.1121 Q1975.93 26.1121 1979.78 31.0947 Q1983.63 36.0368 1983.63 45.1919 L1983.63 72.576 L1976.13 72.576 L1976.13 45.4349 Q1976.13 38.913 1973.82 35.7533 Q1971.51 32.5936 1966.77 32.5936 Q1960.98 32.5936 1957.62 36.4419 Q1954.26 40.2903 1954.26 46.9338 L1954.26 72.576 L1946.76 72.576 L1946.76 45.4349 Q1946.76 38.8725 1944.45 35.7533 Q1942.14 32.5936 1937.32 32.5936 Q1931.61 32.5936 1928.25 36.4824 Q1924.89 40.3308 1924.89 46.9338 L1924.89 72.576 L1917.39 72.576 L1917.39 27.2059 L1924.89 27.2059 L1924.89 34.2544 Q1927.44 30.082 1931 28.0971 Q1934.57 26.1121 1939.47 26.1121 Q1944.41 26.1121 1947.86 28.6237 Q1951.34 31.1352 1953 35.9153 Z" fill="#000000" fill-rule="nonzero" fill-opacity="1" /><path clip-path="url(#clip560)" d="M1998.49 27.2059 L2005.95 27.2059 L2005.95 72.576 L1998.49 72.576 L1998.49 27.2059 M1998.49 9.54393 L2005.95 9.54393 L2005.95 18.9825 L1998.49 18.9825 L1998.49 9.54393 Z" fill="#000000" fill-rule="nonzero" fill-opacity="1" /><path clip-path="url(#clip560)" d="M2059.26 45.1919 L2059.26 72.576 L2051.8 72.576 L2051.8 45.4349 Q2051.8 38.994 2049.29 35.7938 Q2046.78 32.5936 2041.76 32.5936 Q2035.72 32.5936 2032.24 36.4419 Q2028.75 40.2903 2028.75 46.9338 L2028.75 72.576 L2021.26 72.576 L2021.26 27.2059 L2028.75 27.2059 L2028.75 34.2544 Q2031.43 30.163 2035.03 28.1376 Q2038.68 26.1121 2043.42 26.1121 Q2051.23 26.1121 2055.25 30.9732 Q2059.26 35.7938 2059.26 45.1919 Z" fill="#000000" fill-rule="nonzero" fill-opacity="1" /><path clip-path="url(#clip560)" d="M2072.95 9.62495 L2079.43 9.62495 Q2085.51 19.1851 2088.5 28.3401 Q2091.54 37.4952 2091.54 46.5287 Q2091.54 55.6027 2088.5 64.7983 Q2085.51 73.9938 2079.43 83.5134 L2072.95 83.5134 Q2078.34 74.2369 2080.97 65.0818 Q2083.64 55.8863 2083.64 46.5287 Q2083.64 37.1711 2080.97 28.0566 Q2078.34 18.942 2072.95 9.62495 Z" fill="#000000" fill-rule="nonzero" fill-opacity="1" /><path clip-path="url(#clip562)" d="M327.106 1402.4 L315.794 1397.71 L311.106 1386.4 L315.794 1375.08 L327.106 1370.4 L338.418 1375.08 L343.106 1386.4 L338.418 1397.71 Z" fill="#009af9" fill-rule="evenodd" fill-opacity="1" stroke="#000000" stroke-opacity="1" stroke-width="3.2"/>
<path clip-path="url(#clip562)" d="M2288.72 179.326 L2277.41 174.638 L2272.72 163.326 L2277.41 152.014 L2288.72 147.326 L2300.03 152.014 L2304.72 163.326 L2300.03 174.638 Z" fill="#009af9" fill-rule="evenodd" fill-opacity="1" stroke="#000000" stroke-opacity="1" stroke-width="3.2"/>
<path clip-path="url(#clip562)" d="M2293.65 176.256 L2282.34 171.568 L2277.65 160.256 L2282.34 148.944 L2293.65 144.256 L2304.96 148.944 L2309.65 160.256 L2304.96 171.568 Z" fill="#009af9" fill-rule="evenodd" fill-opacity="1" stroke="#000000" stroke-opacity="1" stroke-width="3.2"/>
<path clip-path="url(#clip562)" d="M2293.63 176.27 L2282.31 171.582 L2277.63 160.27 L2282.31 148.958 L2293.63 144.27 L2304.94 148.958 L2309.63 160.27 L2304.94 171.582 Z" fill="#009af9" fill-rule="evenodd" fill-opacity="1" stroke="#000000" stroke-opacity="1" stroke-width="3.2"/>
<path clip-path="url(#clip562)" d="M2293.6 176.284 L2282.29 171.596 L2277.6 160.284 L2282.29 148.972 L2293.6 144.284 L2304.91 148.972 L2309.6 160.284 L2304.91 171.596 Z" fill="#009af9" fill-rule="evenodd" fill-opacity="1" stroke="#000000" stroke-opacity="1" stroke-width="3.2"/>
<polyline clip-path="url(#clip562)" style="stroke:#ff0000; stroke-linecap:round; stroke-linejoin:round; stroke-width:4; stroke-opacity:1; fill:none" stroke-dasharray="16, 10" points="323.395,1386.4 343.296,1374.01 363.198,1361.63 383.1,1349.24 403.001,1336.85 422.903,1324.47 442.804,1312.08 462.706,1299.7 482.607,1287.31 502.509,1274.93 522.41,1262.54 542.312,1250.16 562.214,1237.77 582.115,1225.39 602.017,1213 621.918,1200.62 641.82,1188.23 661.721,1175.85 681.623,1163.46 701.524,1151.08 721.426,1138.69 741.327,1126.31 761.229,1113.92 781.131,1101.54 801.032,1089.15 820.934,1076.76 840.835,1064.38 860.737,1051.99 880.638,1039.61 900.54,1027.22 920.441,1014.84 940.343,1002.45 960.245,990.068 980.146,977.683 1000.05,965.297 1019.95,952.912 1039.85,940.527 1059.75,928.142 1079.65,915.756 1099.56,903.371 1119.46,890.986 1139.36,878.601 1159.26,866.215 1179.16,853.83 1199.06,841.445 1218.96,829.06 1238.87,816.674 1258.77,804.289 1278.67,791.904 1298.57,779.519 1318.47,767.133 1338.37,754.748 1358.28,742.363 1378.18,729.978 1398.08,717.592 1417.98,705.207 1437.88,692.822 1457.78,680.437 1477.68,668.051 1497.59,655.666 1517.49,643.281 1537.39,630.896 1557.29,618.51 1577.19,606.125 1597.09,593.74 1617,581.355 1636.9,568.969 1656.8,556.584 1676.7,544.199 1696.6,531.814 1716.5,519.428 1736.4,507.043 1756.31,494.658 1776.21,482.273 1796.11,469.887 1816.01,457.502 1835.91,445.117 1855.81,432.732 1875.72,420.346 1895.62,407.961 1915.52,395.576 1935.42,383.191 1955.32,370.805 1975.22,358.42 1995.13,346.035 2015.03,333.65 2034.93,321.265 2054.83,308.879 2074.73,296.494 2094.63,284.109 2114.53,271.724 2134.44,259.338 2154.34,246.953 2174.24,234.568 2194.14,222.183 2214.04,209.797 2233.94,197.412 2253.85,185.027 2273.75,172.642 2293.65,160.256 "/>
<path clip-path="url(#clip560)" d="M333.903 322.316 L735.156 322.316 L735.156 166.796 L333.903 166.796  Z" fill="#ffffff" fill-rule="evenodd" fill-opacity="1"/>
<polyline clip-path="url(#clip560)" style="stroke:#000000; stroke-linecap:round; stroke-linejoin:round; stroke-width:4; stroke-opacity:1; fill:none" points="333.903,322.316 735.156,322.316 735.156,166.796 333.903,166.796 333.903,322.316 "/>
<path clip-path="url(#clip560)" d="M426.724 241.391 L410.636 234.724 L403.968 218.636 L410.636 202.548 L426.724 195.88 L442.812 202.548 L449.479 218.636 L442.812 234.724 Z" fill="#009af9" fill-rule="evenodd" fill-opacity="1" stroke="#000000" stroke-opacity="1" stroke-width="4.55111"/>
<path clip-path="url(#clip560)" d="M519.545 201.356 L524.22 201.356 L524.22 235.916 L519.545 235.916 L519.545 201.356 Z" fill="#000000" fill-rule="nonzero" fill-opacity="1" /><path clip-path="url(#clip560)" d="M537.554 202.629 L537.554 209.99 L546.327 209.99 L546.327 213.3 L537.554 213.3 L537.554 227.374 Q537.554 230.545 538.41 231.448 Q539.29 232.351 541.952 232.351 L546.327 232.351 L546.327 235.916 L541.952 235.916 Q537.021 235.916 535.146 234.087 Q533.271 232.235 533.271 227.374 L533.271 213.3 L530.146 213.3 L530.146 209.99 L533.271 209.99 L533.271 202.629 L537.554 202.629 Z" fill="#000000" fill-rule="nonzero" fill-opacity="1" /><path clip-path="url(#clip560)" d="M574.104 221.888 L574.104 223.971 L554.521 223.971 Q554.799 228.369 557.16 230.684 Q559.544 232.976 563.78 232.976 Q566.234 232.976 568.526 232.374 Q570.841 231.772 573.109 230.569 L573.109 234.596 Q570.817 235.568 568.41 236.078 Q566.003 236.587 563.526 236.587 Q557.322 236.587 553.688 232.976 Q550.077 229.365 550.077 223.207 Q550.077 216.842 553.503 213.115 Q556.952 209.365 562.785 209.365 Q568.017 209.365 571.049 212.745 Q574.104 216.101 574.104 221.888 M569.845 220.638 Q569.799 217.143 567.878 215.059 Q565.98 212.976 562.831 212.976 Q559.267 212.976 557.114 214.99 Q554.984 217.004 554.66 220.661 L569.845 220.638 Z" fill="#000000" fill-rule="nonzero" fill-opacity="1" /><path clip-path="url(#clip560)" d="M596.118 213.971 Q595.401 213.555 594.544 213.37 Q593.711 213.161 592.692 213.161 Q589.081 213.161 587.137 215.522 Q585.216 217.86 585.216 222.258 L585.216 235.916 L580.933 235.916 L580.933 209.99 L585.216 209.99 L585.216 214.018 Q586.558 211.657 588.711 210.522 Q590.864 209.365 593.942 209.365 Q594.382 209.365 594.915 209.434 Q595.447 209.481 596.095 209.596 L596.118 213.971 Z" fill="#000000" fill-rule="nonzero" fill-opacity="1" /><path clip-path="url(#clip560)" d="M612.368 222.883 Q607.206 222.883 605.215 224.064 Q603.225 225.244 603.225 228.092 Q603.225 230.36 604.706 231.703 Q606.211 233.022 608.78 233.022 Q612.322 233.022 614.451 230.522 Q616.604 227.999 616.604 223.832 L616.604 222.883 L612.368 222.883 M620.863 221.124 L620.863 235.916 L616.604 235.916 L616.604 231.981 Q615.146 234.342 612.97 235.476 Q610.794 236.587 607.646 236.587 Q603.665 236.587 601.303 234.365 Q598.965 232.119 598.965 228.369 Q598.965 223.994 601.882 221.772 Q604.822 219.55 610.632 219.55 L616.604 219.55 L616.604 219.133 Q616.604 216.194 614.66 214.596 Q612.739 212.976 609.243 212.976 Q607.021 212.976 604.915 213.508 Q602.808 214.041 600.864 215.106 L600.864 211.17 Q603.202 210.268 605.401 209.828 Q607.6 209.365 609.683 209.365 Q615.308 209.365 618.086 212.282 Q620.863 215.198 620.863 221.124 Z" fill="#000000" fill-rule="nonzero" fill-opacity="1" /><path clip-path="url(#clip560)" d="M633.85 202.629 L633.85 209.99 L642.623 209.99 L642.623 213.3 L633.85 213.3 L633.85 227.374 Q633.85 230.545 634.706 231.448 Q635.586 232.351 638.248 232.351 L642.623 232.351 L642.623 235.916 L638.248 235.916 Q633.317 235.916 631.442 234.087 Q629.567 232.235 629.567 227.374 L629.567 213.3 L626.442 213.3 L626.442 209.99 L629.567 209.99 L629.567 202.629 L633.85 202.629 Z" fill="#000000" fill-rule="nonzero" fill-opacity="1" /><path clip-path="url(#clip560)" d="M648.224 209.99 L652.484 209.99 L652.484 235.916 L648.224 235.916 L648.224 209.99 M648.224 199.897 L652.484 199.897 L652.484 205.291 L648.224 205.291 L648.224 199.897 Z" fill="#000000" fill-rule="nonzero" fill-opacity="1" /><path clip-path="url(#clip560)" d="M671.442 212.976 Q668.016 212.976 666.025 215.661 Q664.035 218.323 664.035 222.976 Q664.035 227.629 666.002 230.314 Q667.993 232.976 671.442 232.976 Q674.845 232.976 676.835 230.291 Q678.826 227.606 678.826 222.976 Q678.826 218.37 676.835 215.684 Q674.845 212.976 671.442 212.976 M671.442 209.365 Q676.997 209.365 680.169 212.976 Q683.34 216.587 683.34 222.976 Q683.34 229.342 680.169 232.976 Q676.997 236.587 671.442 236.587 Q665.863 236.587 662.692 232.976 Q659.544 229.342 659.544 222.976 Q659.544 216.587 662.692 212.976 Q665.863 209.365 671.442 209.365 Z" fill="#000000" fill-rule="nonzero" fill-opacity="1" /><path clip-path="url(#clip560)" d="M711.951 220.268 L711.951 235.916 L707.692 235.916 L707.692 220.407 Q707.692 216.726 706.257 214.897 Q704.821 213.069 701.951 213.069 Q698.502 213.069 696.511 215.268 Q694.521 217.467 694.521 221.263 L694.521 235.916 L690.238 235.916 L690.238 209.99 L694.521 209.99 L694.521 214.018 Q696.048 211.68 698.108 210.522 Q700.192 209.365 702.9 209.365 Q707.368 209.365 709.659 212.143 Q711.951 214.897 711.951 220.268 Z" fill="#000000" fill-rule="nonzero" fill-opacity="1" /><polyline clip-path="url(#clip560)" style="stroke:#ff0000; stroke-linecap:round; stroke-linejoin:round; stroke-width:4; stroke-opacity:1; fill:none" stroke-dasharray="16, 10" points="357.108,270.476 496.339,270.476 "/>
<path clip-path="url(#clip560)" d="M533.387 290.163 Q531.582 294.793 529.869 296.205 Q528.156 297.617 525.285 297.617 L521.883 297.617 L521.883 294.052 L524.383 294.052 Q526.142 294.052 527.114 293.219 Q528.086 292.385 529.267 289.283 L530.031 287.339 L519.545 261.83 L524.058 261.83 L532.16 282.108 L540.262 261.83 L544.776 261.83 L533.387 290.163 Z" fill="#000000" fill-rule="nonzero" fill-opacity="1" /><path clip-path="url(#clip560)" d="M551.211 266.228 L580.887 266.228 L580.887 270.117 L551.211 270.117 L551.211 266.228 M551.211 275.672 L580.887 275.672 L580.887 279.608 L551.211 279.608 L551.211 275.672 Z" fill="#000000" fill-rule="nonzero" fill-opacity="1" /><path clip-path="url(#clip560)" d="M611.928 261.83 L602.553 274.446 L612.414 287.756 L607.391 287.756 L599.845 277.571 L592.299 287.756 L587.276 287.756 L597.345 274.191 L588.132 261.83 L593.155 261.83 L600.03 271.066 L606.905 261.83 L611.928 261.83 Z" fill="#000000" fill-rule="nonzero" fill-opacity="1" /><path clip-path="url(#clip560)" d="M329.623 1436.44 L358.269 1436.44 L358.269 1337.57 L327.106 1343.82 L327.106 1327.85 L358.095 1321.6 L375.63 1321.6 L375.63 1436.44 L404.275 1436.44 L404.275 1451.2 L329.623 1451.2 L329.623 1436.44 Z" fill="#008000" fill-rule="nonzero" fill-opacity="1" /><path clip-path="url(#clip560)" d="M2309.82 213.37 L2371.01 213.37 L2371.01 228.126 L2288.72 228.126 L2288.72 213.37 Q2298.7 203.04 2315.89 185.679 Q2333.17 168.231 2337.59 163.196 Q2346.01 153.734 2349.31 147.224 Q2352.7 140.627 2352.7 134.29 Q2352.7 123.96 2345.41 117.45 Q2338.2 110.94 2326.57 110.94 Q2318.32 110.94 2309.12 113.804 Q2300.01 116.669 2289.59 122.485 L2289.59 104.776 Q2300.18 100.523 2309.38 98.3528 Q2318.58 96.1827 2326.22 96.1827 Q2346.36 96.1827 2358.34 106.252 Q2370.32 116.321 2370.32 133.162 Q2370.32 141.148 2367.28 148.353 Q2364.33 155.471 2356.43 165.193 Q2354.26 167.71 2342.63 179.776 Q2331 191.755 2309.82 213.37 Z" fill="#008000" fill-rule="nonzero" fill-opacity="1" /><path clip-path="url(#clip560)" d="M2352.24 155.178 Q2364.83 157.869 2371.86 166.376 Q2378.98 174.883 2378.98 187.383 Q2378.98 206.567 2365.78 217.07 Q2352.59 227.574 2328.28 227.574 Q2320.12 227.574 2311.44 225.924 Q2302.85 224.362 2293.65 221.15 L2293.65 204.223 Q2300.94 208.477 2309.62 210.647 Q2318.3 212.817 2327.76 212.817 Q2344.26 212.817 2352.85 206.306 Q2361.53 199.796 2361.53 187.383 Q2361.53 175.925 2353.46 169.501 Q2345.47 162.991 2331.15 162.991 L2316.04 162.991 L2316.04 148.581 L2331.84 148.581 Q2344.78 148.581 2351.63 143.46 Q2358.49 138.251 2358.49 128.529 Q2358.49 118.546 2351.37 113.251 Q2344.34 107.869 2331.15 107.869 Q2323.94 107.869 2315.7 109.432 Q2307.45 110.994 2297.55 114.293 L2297.55 98.6681 Q2307.54 95.8903 2316.22 94.5015 Q2324.98 93.1126 2332.71 93.1126 Q2352.68 93.1126 2364.31 102.227 Q2375.94 111.255 2375.94 126.706 Q2375.94 137.47 2369.78 144.935 Q2363.61 152.314 2352.24 155.178 Z" fill="#008000" fill-rule="nonzero" fill-opacity="1" /><path clip-path="url(#clip560)" d="M2352.13 110.748 L2307.86 179.932 L2352.13 179.932 L2352.13 110.748 M2347.53 95.4705 L2369.58 95.4705 L2369.58 179.932 L2388.07 179.932 L2388.07 194.515 L2369.58 194.515 L2369.58 225.07 L2352.13 225.07 L2352.13 194.515 L2293.63 194.515 L2293.63 177.588 L2347.53 95.4705 Z" fill="#008000" fill-rule="nonzero" fill-opacity="1" /><path clip-path="url(#clip560)" d="M2299.07 95.4845 L2367.91 95.4845 L2367.91 110.241 L2315.13 110.241 L2315.13 142.012 Q2318.95 140.71 2322.77 140.102 Q2326.59 139.408 2330.41 139.408 Q2352.11 139.408 2364.78 151.3 Q2377.46 163.192 2377.46 183.505 Q2377.46 204.425 2364.44 216.057 Q2351.41 227.602 2327.72 227.602 Q2319.56 227.602 2311.05 226.213 Q2302.63 224.824 2293.6 222.046 L2293.6 204.425 Q2301.42 208.678 2309.75 210.762 Q2318.08 212.845 2327.37 212.845 Q2342.39 212.845 2351.15 204.946 Q2359.92 197.046 2359.92 183.505 Q2359.92 169.963 2351.15 162.064 Q2342.39 154.165 2327.37 154.165 Q2320.34 154.165 2313.31 155.727 Q2306.36 157.29 2299.07 160.588 L2299.07 95.4845 Z" fill="#008000" fill-rule="nonzero" fill-opacity="1" /></svg>
