<?xml version="1.0" encoding="utf-8"?>
<svg xmlns="http://www.w3.org/2000/svg" xmlns:xlink="http://www.w3.org/1999/xlink" width="600" height="400" viewBox="0 0 2400 1600">
<defs>
  <clipPath id="clip070">
    <rect x="0" y="0" width="2400" height="1600"/>
  </clipPath>
</defs>
<path clip-path="url(#clip070)" d="M0 1600 L2400 1600 L2400 0 L0 0  Z" fill="#ffffff" fill-rule="evenodd" fill-opacity="1"/>
<defs>
  <clipPath id="clip071">
    <rect x="480" y="0" width="1681" height="1600"/>
  </clipPath>
</defs>
<path clip-path="url(#clip070)" d="M247.459 1423.18 L2352.76 1423.18 L2352.76 123.472 L247.459 123.472  Z" fill="#ffffff" fill-rule="evenodd" fill-opacity="1"/>
<defs>
  <clipPath id="clip072">
    <rect x="247" y="123" width="2106" height="1301"/>
  </clipPath>
</defs>
<polyline clip-path="url(#clip072)" style="stroke:#000000; stroke-linecap:round; stroke-linejoin:round; stroke-width:2; stroke-opacity:0.1; fill:none" points="287.293,1423.18 287.293,123.472 "/>
<polyline clip-path="url(#clip072)" style="stroke:#000000; stroke-linecap:round; stroke-linejoin:round; stroke-width:2; stroke-opacity:0.1; fill:none" points="920.302,1423.18 920.302,123.472 "/>
<polyline clip-path="url(#clip072)" style="stroke:#000000; stroke-linecap:round; stroke-linejoin:round; stroke-width:2; stroke-opacity:0.1; fill:none" points="1553.31,1423.18 1553.31,123.472 "/>
<polyline clip-path="url(#clip072)" style="stroke:#000000; stroke-linecap:round; stroke-linejoin:round; stroke-width:2; stroke-opacity:0.1; fill:none" points="2186.32,1423.18 2186.32,123.472 "/>
<polyline clip-path="url(#clip072)" style="stroke:#000000; stroke-linecap:round; stroke-linejoin:round; stroke-width:2; stroke-opacity:0.1; fill:none" points="247.459,1423.18 2352.76,1423.18 "/>
<polyline clip-path="url(#clip072)" style="stroke:#000000; stroke-linecap:round; stroke-linejoin:round; stroke-width:2; stroke-opacity:0.1; fill:none" points="247.459,1098.25 2352.76,1098.25 "/>
<polyline clip-path="url(#clip072)" style="stroke:#000000; stroke-linecap:round; stroke-linejoin:round; stroke-width:2; stroke-opacity:0.1; fill:none" points="247.459,773.326 2352.76,773.326 "/>
<polyline clip-path="url(#clip072)" style="stroke:#000000; stroke-linecap:round; stroke-linejoin:round; stroke-width:2; stroke-opacity:0.1; fill:none" points="247.459,448.399 2352.76,448.399 "/>
<polyline clip-path="url(#clip072)" style="stroke:#000000; stroke-linecap:round; stroke-linejoin:round; stroke-width:2; stroke-opacity:0.1; fill:none" points="247.459,123.472 2352.76,123.472 "/>
<polyline clip-path="url(#clip070)" style="stroke:#000000; stroke-linecap:round; stroke-linejoin:round; stroke-width:4; stroke-opacity:1; fill:none" points="247.459,1423.18 2352.76,1423.18 "/>
<polyline clip-path="url(#clip070)" style="stroke:#000000; stroke-linecap:round; stroke-linejoin:round; stroke-width:4; stroke-opacity:1; fill:none" points="287.293,1423.18 287.293,1404.28 "/>
<polyline clip-path="url(#clip070)" style="stroke:#000000; stroke-linecap:round; stroke-linejoin:round; stroke-width:4; stroke-opacity:1; fill:none" points="920.302,1423.18 920.302,1404.28 "/>
<polyline clip-path="url(#clip070)" style="stroke:#000000; stroke-linecap:round; stroke-linejoin:round; stroke-width:4; stroke-opacity:1; fill:none" points="1553.31,1423.18 1553.31,1404.28 "/>
<polyline clip-path="url(#clip070)" style="stroke:#000000; stroke-linecap:round; stroke-linejoin:round; stroke-width:4; stroke-opacity:1; fill:none" points="2186.32,1423.18 2186.32,1404.28 "/>
<path clip-path="url(#clip070)" d="M287.293 1454.1 Q283.682 1454.1 281.853 1457.66 Q280.047 1461.2 280.047 1468.33 Q280.047 1475.44 281.853 1479.01 Q283.682 1482.55 287.293 1482.55 Q290.927 1482.55 292.732 1479.01 Q294.561 1475.44 294.561 1468.33 Q294.561 1461.2 292.732 1457.66 Q290.927 1454.1 287.293 1454.1 M287.293 1450.39 Q293.103 1450.39 296.158 1455 Q299.237 1459.58 299.237 1468.33 Q299.237 1477.06 296.158 1481.67 Q293.103 1486.25 287.293 1486.25 Q281.483 1486.25 278.404 1481.67 Q275.348 1477.06 275.348 1468.33 Q275.348 1459.58 278.404 1455 Q281.483 1450.39 287.293 1450.39 Z" fill="#000000" fill-rule="nonzero" fill-opacity="1" /><path clip-path="url(#clip070)" d="M910.58 1451.02 L928.936 1451.02 L928.936 1454.96 L914.862 1454.96 L914.862 1463.43 Q915.881 1463.08 916.899 1462.92 Q917.918 1462.73 918.936 1462.73 Q924.723 1462.73 928.103 1465.9 Q931.482 1469.08 931.482 1474.49 Q931.482 1480.07 928.01 1483.17 Q924.538 1486.25 918.219 1486.25 Q916.043 1486.25 913.774 1485.88 Q911.529 1485.51 909.121 1484.77 L909.121 1480.07 Q911.205 1481.2 913.427 1481.76 Q915.649 1482.32 918.126 1482.32 Q922.131 1482.32 924.468 1480.21 Q926.806 1478.1 926.806 1474.49 Q926.806 1470.88 924.468 1468.77 Q922.131 1466.67 918.126 1466.67 Q916.251 1466.67 914.376 1467.08 Q912.524 1467.5 910.58 1468.38 L910.58 1451.02 Z" fill="#000000" fill-rule="nonzero" fill-opacity="1" /><path clip-path="url(#clip070)" d="M1528 1481.64 L1535.64 1481.64 L1535.64 1455.28 L1527.33 1456.95 L1527.33 1452.69 L1535.59 1451.02 L1540.27 1451.02 L1540.27 1481.64 L1547.91 1481.64 L1547.91 1485.58 L1528 1485.58 L1528 1481.64 Z" fill="#000000" fill-rule="nonzero" fill-opacity="1" /><path clip-path="url(#clip070)" d="M1567.35 1454.1 Q1563.74 1454.1 1561.91 1457.66 Q1560.1 1461.2 1560.1 1468.33 Q1560.1 1475.44 1561.91 1479.01 Q1563.74 1482.55 1567.35 1482.55 Q1570.98 1482.55 1572.79 1479.01 Q1574.62 1475.44 1574.62 1468.33 Q1574.62 1461.2 1572.79 1457.66 Q1570.98 1454.1 1567.35 1454.1 M1567.35 1450.39 Q1573.16 1450.39 1576.22 1455 Q1579.29 1459.58 1579.29 1468.33 Q1579.29 1477.06 1576.22 1481.67 Q1573.16 1486.25 1567.35 1486.25 Q1561.54 1486.25 1558.46 1481.67 Q1555.41 1477.06 1555.41 1468.33 Q1555.41 1459.58 1558.46 1455 Q1561.54 1450.39 1567.35 1450.39 Z" fill="#000000" fill-rule="nonzero" fill-opacity="1" /><path clip-path="url(#clip070)" d="M2161.51 1481.64 L2169.14 1481.64 L2169.14 1455.28 L2160.83 1456.95 L2160.83 1452.69 L2169.1 1451.02 L2173.77 1451.02 L2173.77 1481.64 L2181.41 1481.64 L2181.41 1485.58 L2161.51 1485.58 L2161.51 1481.64 Z" fill="#000000" fill-rule="nonzero" fill-opacity="1" /><path clip-path="url(#clip070)" d="M2190.9 1451.02 L2209.26 1451.02 L2209.26 1454.96 L2195.19 1454.96 L2195.19 1463.43 Q2196.2 1463.08 2197.22 1462.92 Q2198.24 1462.73 2199.26 1462.73 Q2205.05 1462.73 2208.43 1465.9 Q2211.81 1469.08 2211.81 1474.49 Q2211.81 1480.07 2208.33 1483.17 Q2204.86 1486.25 2198.54 1486.25 Q2196.37 1486.25 2194.1 1485.88 Q2191.85 1485.51 2189.45 1484.77 L2189.45 1480.07 Q2191.53 1481.2 2193.75 1481.76 Q2195.97 1482.32 2198.45 1482.32 Q2202.45 1482.32 2204.79 1480.21 Q2207.13 1478.1 2207.13 1474.49 Q2207.13 1470.88 2204.79 1468.77 Q2202.45 1466.67 2198.45 1466.67 Q2196.57 1466.67 2194.7 1467.08 Q2192.85 1467.5 2190.9 1468.38 L2190.9 1451.02 Z" fill="#000000" fill-rule="nonzero" fill-opacity="1" /><path clip-path="url(#clip070)" d="M1181.98 1520.52 L1188.41 1520.52 L1188.41 1562.63 L1211.54 1562.63 L1211.54 1568.04 L1181.98 1568.04 L1181.98 1520.52 Z" fill="#000000" fill-rule="nonzero" fill-opacity="1" /><path clip-path="url(#clip070)" d="M1230.71 1536.5 Q1225.99 1536.5 1223.26 1540.19 Q1220.52 1543.85 1220.52 1550.25 Q1220.52 1556.65 1223.23 1560.34 Q1225.96 1564 1230.71 1564 Q1235.38 1564 1238.12 1560.31 Q1240.86 1556.62 1240.86 1550.25 Q1240.86 1543.92 1238.12 1540.23 Q1235.38 1536.5 1230.71 1536.5 M1230.71 1531.54 Q1238.34 1531.54 1242.7 1536.5 Q1247.07 1541.47 1247.07 1550.25 Q1247.07 1559 1242.7 1564 Q1238.34 1568.97 1230.71 1568.97 Q1223.03 1568.97 1218.67 1564 Q1214.35 1559 1214.35 1550.25 Q1214.35 1541.47 1218.67 1536.5 Q1223.03 1531.54 1230.71 1531.54 Z" fill="#000000" fill-rule="nonzero" fill-opacity="1" /><path clip-path="url(#clip070)" d="M1272.97 1550.12 Q1265.88 1550.12 1263.14 1551.75 Q1260.4 1553.37 1260.4 1557.29 Q1260.4 1560.4 1262.44 1562.25 Q1264.51 1564.07 1268.04 1564.07 Q1272.91 1564.07 1275.84 1560.63 Q1278.8 1557.16 1278.8 1551.43 L1278.8 1550.12 L1272.97 1550.12 M1284.65 1547.71 L1284.65 1568.04 L1278.8 1568.04 L1278.8 1562.63 Q1276.79 1565.88 1273.8 1567.44 Q1270.81 1568.97 1266.48 1568.97 Q1261.01 1568.97 1257.76 1565.91 Q1254.54 1562.82 1254.54 1557.67 Q1254.54 1551.65 1258.56 1548.6 Q1262.6 1545.54 1270.59 1545.54 L1278.8 1545.54 L1278.8 1544.97 Q1278.8 1540.93 1276.12 1538.73 Q1273.48 1536.5 1268.68 1536.5 Q1265.62 1536.5 1262.72 1537.23 Q1259.83 1537.97 1257.15 1539.43 L1257.15 1534.02 Q1260.37 1532.78 1263.39 1532.17 Q1266.42 1531.54 1269.28 1531.54 Q1277.02 1531.54 1280.84 1535.55 Q1284.65 1539.56 1284.65 1547.71 Z" fill="#000000" fill-rule="nonzero" fill-opacity="1" /><path clip-path="url(#clip070)" d="M1320.18 1537.81 L1320.18 1518.52 L1326.03 1518.52 L1326.03 1568.04 L1320.18 1568.04 L1320.18 1562.7 Q1318.33 1565.88 1315.5 1567.44 Q1312.7 1568.97 1308.75 1568.97 Q1302.29 1568.97 1298.21 1563.81 Q1294.17 1558.65 1294.17 1550.25 Q1294.17 1541.85 1298.21 1536.69 Q1302.29 1531.54 1308.75 1531.54 Q1312.7 1531.54 1315.5 1533.1 Q1318.33 1534.62 1320.18 1537.81 M1300.22 1550.25 Q1300.22 1556.71 1302.86 1560.4 Q1305.53 1564.07 1310.18 1564.07 Q1314.83 1564.07 1317.5 1560.4 Q1320.18 1556.71 1320.18 1550.25 Q1320.18 1543.79 1317.5 1540.13 Q1314.83 1536.44 1310.18 1536.44 Q1305.53 1536.44 1302.86 1540.13 Q1300.22 1543.79 1300.22 1550.25 Z" fill="#000000" fill-rule="nonzero" fill-opacity="1" /><path clip-path="url(#clip070)" d="M1359.07 1520.52 L1365.5 1520.52 L1365.5 1568.04 L1359.07 1568.04 L1359.07 1520.52 Z" fill="#000000" fill-rule="nonzero" fill-opacity="1" /><path clip-path="url(#clip070)" d="M1384.72 1525.81 L1384.72 1562.76 L1392.49 1562.76 Q1402.32 1562.76 1406.88 1558.3 Q1411.46 1553.85 1411.46 1544.24 Q1411.46 1534.69 1406.88 1530.26 Q1402.32 1525.81 1392.49 1525.81 L1384.72 1525.81 M1378.29 1520.52 L1391.5 1520.52 Q1405.32 1520.52 1411.78 1526.28 Q1418.24 1532.01 1418.24 1544.24 Q1418.24 1556.52 1411.75 1562.28 Q1405.25 1568.04 1391.5 1568.04 L1378.29 1568.04 L1378.29 1520.52 Z" fill="#000000" fill-rule="nonzero" fill-opacity="1" /><polyline clip-path="url(#clip070)" style="stroke:#000000; stroke-linecap:round; stroke-linejoin:round; stroke-width:4; stroke-opacity:1; fill:none" points="247.459,1423.18 247.459,123.472 "/>
<polyline clip-path="url(#clip070)" style="stroke:#000000; stroke-linecap:round; stroke-linejoin:round; stroke-width:4; stroke-opacity:1; fill:none" points="247.459,1423.18 266.356,1423.18 "/>
<polyline clip-path="url(#clip070)" style="stroke:#000000; stroke-linecap:round; stroke-linejoin:round; stroke-width:4; stroke-opacity:1; fill:none" points="247.459,1098.25 266.356,1098.25 "/>
<polyline clip-path="url(#clip070)" style="stroke:#000000; stroke-linecap:round; stroke-linejoin:round; stroke-width:4; stroke-opacity:1; fill:none" points="247.459,773.326 266.356,773.326 "/>
<polyline clip-path="url(#clip070)" style="stroke:#000000; stroke-linecap:round; stroke-linejoin:round; stroke-width:4; stroke-opacity:1; fill:none" points="247.459,448.399 266.356,448.399 "/>
<polyline clip-path="url(#clip070)" style="stroke:#000000; stroke-linecap:round; stroke-linejoin:round; stroke-width:4; stroke-opacity:1; fill:none" points="247.459,123.472 266.356,123.472 "/>
<path clip-path="url(#clip070)" d="M154.283 1408.98 Q150.672 1408.98 148.843 1412.54 Q147.038 1416.08 147.038 1423.21 Q147.038 1430.32 148.843 1433.89 Q150.672 1437.43 154.283 1437.43 Q157.917 1437.43 159.723 1433.89 Q161.552 1430.32 161.552 1423.21 Q161.552 1416.08 159.723 1412.54 Q157.917 1408.98 154.283 1408.98 M154.283 1405.27 Q160.093 1405.27 163.149 1409.88 Q166.227 1414.46 166.227 1423.21 Q166.227 1431.94 163.149 1436.55 Q160.093 1441.13 154.283 1441.13 Q148.473 1441.13 145.394 1436.55 Q142.339 1431.94 142.339 1423.21 Q142.339 1414.46 145.394 1409.88 Q148.473 1405.27 154.283 1405.27 Z" fill="#000000" fill-rule="nonzero" fill-opacity="1" /><path clip-path="url(#clip070)" d="M174.445 1434.58 L179.329 1434.58 L179.329 1440.46 L174.445 1440.46 L174.445 1434.58 Z" fill="#000000" fill-rule="nonzero" fill-opacity="1" /><path clip-path="url(#clip070)" d="M199.514 1408.98 Q195.903 1408.98 194.075 1412.54 Q192.269 1416.08 192.269 1423.21 Q192.269 1430.32 194.075 1433.89 Q195.903 1437.43 199.514 1437.43 Q203.149 1437.43 204.954 1433.89 Q206.783 1430.32 206.783 1423.21 Q206.783 1416.08 204.954 1412.54 Q203.149 1408.98 199.514 1408.98 M199.514 1405.27 Q205.324 1405.27 208.38 1409.88 Q211.459 1414.46 211.459 1423.21 Q211.459 1431.94 208.38 1436.55 Q205.324 1441.13 199.514 1441.13 Q193.704 1441.13 190.625 1436.55 Q187.57 1431.94 187.57 1423.21 Q187.57 1414.46 190.625 1409.88 Q193.704 1405.27 199.514 1405.27 Z" fill="#000000" fill-rule="nonzero" fill-opacity="1" /><path clip-path="url(#clip070)" d="M149.306 1111.6 L165.626 1111.6 L165.626 1115.53 L143.681 1115.53 L143.681 1111.6 Q146.343 1108.84 150.927 1104.21 Q155.533 1099.56 156.714 1098.22 Q158.959 1095.7 159.839 1093.96 Q160.741 1092.2 160.741 1090.51 Q160.741 1087.76 158.797 1086.02 Q156.876 1084.28 153.774 1084.28 Q151.575 1084.28 149.121 1085.05 Q146.691 1085.81 143.913 1087.36 L143.913 1082.64 Q146.737 1081.51 149.191 1080.93 Q151.644 1080.35 153.681 1080.35 Q159.052 1080.35 162.246 1083.03 Q165.44 1085.72 165.44 1090.21 Q165.44 1092.34 164.63 1094.26 Q163.843 1096.16 161.737 1098.75 Q161.158 1099.42 158.056 1102.64 Q154.954 1105.83 149.306 1111.6 Z" fill="#000000" fill-rule="nonzero" fill-opacity="1" /><path clip-path="url(#clip070)" d="M175.44 1109.65 L180.325 1109.65 L180.325 1115.53 L175.44 1115.53 L175.44 1109.65 Z" fill="#000000" fill-rule="nonzero" fill-opacity="1" /><path clip-path="url(#clip070)" d="M190.556 1080.97 L208.912 1080.97 L208.912 1084.91 L194.838 1084.91 L194.838 1093.38 Q195.857 1093.03 196.875 1092.87 Q197.894 1092.69 198.912 1092.69 Q204.699 1092.69 208.079 1095.86 Q211.459 1099.03 211.459 1104.45 Q211.459 1110.02 207.987 1113.13 Q204.514 1116.2 198.195 1116.2 Q196.019 1116.2 193.75 1115.83 Q191.505 1115.46 189.098 1114.72 L189.098 1110.02 Q191.181 1111.16 193.403 1111.71 Q195.625 1112.27 198.102 1112.27 Q202.107 1112.27 204.445 1110.16 Q206.783 1108.06 206.783 1104.45 Q206.783 1100.83 204.445 1098.73 Q202.107 1096.62 198.102 1096.62 Q196.227 1096.62 194.352 1097.04 Q192.5 1097.45 190.556 1098.33 L190.556 1080.97 Z" fill="#000000" fill-rule="nonzero" fill-opacity="1" /><path clip-path="url(#clip070)" d="M144.329 756.046 L162.686 756.046 L162.686 759.981 L148.612 759.981 L148.612 768.453 Q149.63 768.106 150.649 767.944 Q151.667 767.759 152.686 767.759 Q158.473 767.759 161.852 770.93 Q165.232 774.101 165.232 779.518 Q165.232 785.097 161.76 788.199 Q158.288 791.277 151.968 791.277 Q149.792 791.277 147.524 790.907 Q145.279 790.537 142.871 789.796 L142.871 785.097 Q144.954 786.231 147.177 786.787 Q149.399 787.342 151.876 787.342 Q155.88 787.342 158.218 785.236 Q160.556 783.129 160.556 779.518 Q160.556 775.907 158.218 773.801 Q155.88 771.694 151.876 771.694 Q150.001 771.694 148.126 772.111 Q146.274 772.527 144.329 773.407 L144.329 756.046 Z" fill="#000000" fill-rule="nonzero" fill-opacity="1" /><path clip-path="url(#clip070)" d="M174.445 784.726 L179.329 784.726 L179.329 790.606 L174.445 790.606 L174.445 784.726 Z" fill="#000000" fill-rule="nonzero" fill-opacity="1" /><path clip-path="url(#clip070)" d="M199.514 759.125 Q195.903 759.125 194.075 762.689 Q192.269 766.231 192.269 773.361 Q192.269 780.467 194.075 784.032 Q195.903 787.574 199.514 787.574 Q203.149 787.574 204.954 784.032 Q206.783 780.467 206.783 773.361 Q206.783 766.231 204.954 762.689 Q203.149 759.125 199.514 759.125 M199.514 755.421 Q205.324 755.421 208.38 760.027 Q211.459 764.611 211.459 773.361 Q211.459 782.088 208.38 786.694 Q205.324 791.277 199.514 791.277 Q193.704 791.277 190.625 786.694 Q187.57 782.088 187.57 773.361 Q187.57 764.611 190.625 760.027 Q193.704 755.421 199.514 755.421 Z" fill="#000000" fill-rule="nonzero" fill-opacity="1" /><path clip-path="url(#clip070)" d="M144.098 431.119 L166.32 431.119 L166.32 433.11 L153.774 465.679 L148.89 465.679 L160.695 435.054 L144.098 435.054 L144.098 431.119 Z" fill="#000000" fill-rule="nonzero" fill-opacity="1" /><path clip-path="url(#clip070)" d="M175.44 459.799 L180.325 459.799 L180.325 465.679 L175.44 465.679 L175.44 459.799 Z" fill="#000000" fill-rule="nonzero" fill-opacity="1" /><path clip-path="url(#clip070)" d="M190.556 431.119 L208.912 431.119 L208.912 435.054 L194.838 435.054 L194.838 443.526 Q195.857 443.179 196.875 443.017 Q197.894 442.832 198.912 442.832 Q204.699 442.832 208.079 446.003 Q211.459 449.175 211.459 454.591 Q211.459 460.17 207.987 463.272 Q204.514 466.35 198.195 466.35 Q196.019 466.35 193.75 465.98 Q191.505 465.61 189.098 464.869 L189.098 460.17 Q191.181 461.304 193.403 461.86 Q195.625 462.415 198.102 462.415 Q202.107 462.415 204.445 460.309 Q206.783 458.202 206.783 454.591 Q206.783 450.98 204.445 448.874 Q202.107 446.767 198.102 446.767 Q196.227 446.767 194.352 447.184 Q192.5 447.6 190.556 448.48 L190.556 431.119 Z" fill="#000000" fill-rule="nonzero" fill-opacity="1" /><path clip-path="url(#clip070)" d="M114.931 136.817 L122.57 136.817 L122.57 110.451 L114.26 112.118 L114.26 107.859 L122.524 106.192 L127.2 106.192 L127.2 136.817 L134.839 136.817 L134.839 140.752 L114.931 140.752 L114.931 136.817 Z" fill="#000000" fill-rule="nonzero" fill-opacity="1" /><path clip-path="url(#clip070)" d="M154.283 109.271 Q150.672 109.271 148.843 112.836 Q147.038 116.377 147.038 123.507 Q147.038 130.613 148.843 134.178 Q150.672 137.72 154.283 137.72 Q157.917 137.72 159.723 134.178 Q161.552 130.613 161.552 123.507 Q161.552 116.377 159.723 112.836 Q157.917 109.271 154.283 109.271 M154.283 105.567 Q160.093 105.567 163.149 110.174 Q166.227 114.757 166.227 123.507 Q166.227 132.234 163.149 136.84 Q160.093 141.423 154.283 141.423 Q148.473 141.423 145.394 136.84 Q142.339 132.234 142.339 123.507 Q142.339 114.757 145.394 110.174 Q148.473 105.567 154.283 105.567 Z" fill="#000000" fill-rule="nonzero" fill-opacity="1" /><path clip-path="url(#clip070)" d="M174.445 134.873 L179.329 134.873 L179.329 140.752 L174.445 140.752 L174.445 134.873 Z" fill="#000000" fill-rule="nonzero" fill-opacity="1" /><path clip-path="url(#clip070)" d="M199.514 109.271 Q195.903 109.271 194.075 112.836 Q192.269 116.377 192.269 123.507 Q192.269 130.613 194.075 134.178 Q195.903 137.72 199.514 137.72 Q203.149 137.72 204.954 134.178 Q206.783 130.613 206.783 123.507 Q206.783 116.377 204.954 112.836 Q203.149 109.271 199.514 109.271 M199.514 105.567 Q205.324 105.567 208.38 110.174 Q211.459 114.757 211.459 123.507 Q211.459 132.234 208.38 136.84 Q205.324 141.423 199.514 141.423 Q193.704 141.423 190.625 136.84 Q187.57 132.234 187.57 123.507 Q187.57 114.757 190.625 110.174 Q193.704 105.567 199.514 105.567 Z" fill="#000000" fill-rule="nonzero" fill-opacity="1" /><path clip-path="url(#clip070)" d="M16.4842 1039.99 L16.4842 1012.68 L21.895 1012.68 L21.895 1033.56 L35.8996 1033.56 L35.8996 1014.71 L41.3104 1014.71 L41.3104 1033.56 L64.0042 1033.56 L64.0042 1039.99 L16.4842 1039.99 Z" fill="#000000" fill-rule="nonzero" fill-opacity="1" /><path clip-path="url(#clip070)" d="M46.0847 992.529 Q46.0847 999.627 47.7079 1002.36 Q49.3312 1005.1 53.2461 1005.1 Q56.3653 1005.1 58.2114 1003.06 Q60.0256 1001 60.0256 997.463 Q60.0256 992.593 56.5881 989.665 Q53.1188 986.704 47.3897 986.704 L46.0847 986.704 L46.0847 992.529 M43.6657 980.848 L64.0042 980.848 L64.0042 986.704 L58.5933 986.704 Q61.8398 988.71 63.3994 991.702 Q64.9272 994.693 64.9272 999.022 Q64.9272 1004.5 61.8716 1007.74 Q58.7843 1010.96 53.6281 1010.96 Q47.6125 1010.96 44.5569 1006.95 Q41.5014 1002.91 41.5014 994.916 L41.5014 986.704 L40.9285 986.704 Q36.8862 986.704 34.6901 989.378 Q32.4621 992.02 32.4621 996.826 Q32.4621 999.881 33.1941 1002.78 Q33.9262 1005.67 35.3903 1008.35 L29.9795 1008.35 Q28.7381 1005.13 28.1334 1002.11 Q27.4968 999.086 27.4968 996.221 Q27.4968 988.487 31.5072 984.667 Q35.5176 980.848 43.6657 980.848 Z" fill="#000000" fill-rule="nonzero" fill-opacity="1" /><path clip-path="url(#clip070)" d="M28.3562 968.785 L28.3562 962.929 L64.0042 962.929 L64.0042 968.785 L28.3562 968.785 M14.479 968.785 L14.479 962.929 L21.895 962.929 L21.895 968.785 L14.479 968.785 Z" fill="#000000" fill-rule="nonzero" fill-opacity="1" /><path clip-path="url(#clip070)" d="M33.8307 930.018 Q33.2578 931.005 33.0032 932.182 Q32.7167 933.328 32.7167 934.728 Q32.7167 939.694 35.9632 942.367 Q39.1779 945.009 45.2253 945.009 L64.0042 945.009 L64.0042 950.897 L28.3562 950.897 L28.3562 945.009 L33.8944 945.009 Q30.6479 943.163 29.0883 940.203 Q27.4968 937.243 27.4968 933.01 Q27.4968 932.405 27.5923 931.673 Q27.656 930.941 27.8151 930.05 L33.8307 930.018 Z" fill="#000000" fill-rule="nonzero" fill-opacity="1" /><path clip-path="url(#clip070)" d="M16.4842 902.9 L16.4842 896.471 L58.5933 896.471 L58.5933 873.331 L64.0042 873.331 L64.0042 902.9 L16.4842 902.9 Z" fill="#000000" fill-rule="nonzero" fill-opacity="1" /><path clip-path="url(#clip070)" d="M32.4621 854.17 Q32.4621 858.881 36.1542 861.618 Q39.8145 864.356 46.212 864.356 Q52.6095 864.356 56.3017 861.65 Q59.9619 858.913 59.9619 854.17 Q59.9619 849.492 56.2698 846.754 Q52.5777 844.017 46.212 844.017 Q39.8781 844.017 36.186 846.754 Q32.4621 849.492 32.4621 854.17 M27.4968 854.17 Q27.4968 846.532 32.4621 842.171 Q37.4273 837.811 46.212 837.811 Q54.9649 837.811 59.9619 842.171 Q64.9272 846.532 64.9272 854.17 Q64.9272 861.841 59.9619 866.202 Q54.9649 870.53 46.212 870.53 Q37.4273 870.53 32.4621 866.202 Q27.4968 861.841 27.4968 854.17 Z" fill="#000000" fill-rule="nonzero" fill-opacity="1" /><path clip-path="url(#clip070)" d="M46.0847 811.902 Q46.0847 819 47.7079 821.737 Q49.3312 824.474 53.2461 824.474 Q56.3653 824.474 58.2114 822.437 Q60.0256 820.369 60.0256 816.836 Q60.0256 811.966 56.5881 809.038 Q53.1188 806.078 47.3897 806.078 L46.0847 806.078 L46.0847 811.902 M43.6657 800.221 L64.0042 800.221 L64.0042 806.078 L58.5933 806.078 Q61.8398 808.083 63.3994 811.075 Q64.9272 814.067 64.9272 818.395 Q64.9272 823.87 61.8716 827.116 Q58.7843 830.331 53.6281 830.331 Q47.6125 830.331 44.5569 826.32 Q41.5014 822.278 41.5014 814.289 L41.5014 806.078 L40.9285 806.078 Q36.8862 806.078 34.6901 808.751 Q32.4621 811.393 32.4621 816.199 Q32.4621 819.255 33.1941 822.151 Q33.9262 825.047 35.3903 827.721 L29.9795 827.721 Q28.7381 824.506 28.1334 821.483 Q27.4968 818.459 27.4968 815.594 Q27.4968 807.86 31.5072 804.041 Q35.5176 800.221 43.6657 800.221 Z" fill="#000000" fill-rule="nonzero" fill-opacity="1" /><path clip-path="url(#clip070)" d="M33.7671 764.7 L14.479 764.7 L14.479 758.844 L64.0042 758.844 L64.0042 764.7 L58.657 764.7 Q61.8398 766.547 63.3994 769.379 Q64.9272 772.18 64.9272 776.127 Q64.9272 782.588 59.771 786.662 Q54.6147 790.704 46.212 790.704 Q37.8093 790.704 32.6531 786.662 Q27.4968 782.588 27.4968 776.127 Q27.4968 772.18 29.0564 769.379 Q30.5842 766.547 33.7671 764.7 M46.212 784.657 Q52.6732 784.657 56.3653 782.015 Q60.0256 779.342 60.0256 774.695 Q60.0256 770.048 56.3653 767.374 Q52.6732 764.7 46.212 764.7 Q39.7508 764.7 36.0905 767.374 Q32.3984 770.048 32.3984 774.695 Q32.3984 779.342 36.0905 782.015 Q39.7508 784.657 46.212 784.657 Z" fill="#000000" fill-rule="nonzero" fill-opacity="1" /><path clip-path="url(#clip070)" d="M16.4842 730.039 L16.4842 723.546 L56.6518 713.552 L16.4842 703.59 L16.4842 696.365 L56.6518 686.37 L16.4842 676.408 L16.4842 669.883 L64.0042 681.819 L64.0042 689.903 L22.7544 699.929 L64.0042 710.051 L64.0042 718.135 L16.4842 730.039 Z" fill="#000000" fill-rule="nonzero" fill-opacity="1" /><path clip-path="url(#clip070)" d="M44.7161 634.936 L47.5806 634.936 L47.5806 661.862 Q53.6281 661.481 56.8109 658.234 Q59.9619 654.956 59.9619 649.131 Q59.9619 645.757 59.1344 642.606 Q58.3069 639.423 56.6518 636.304 L62.1899 636.304 Q63.5267 639.455 64.227 642.765 Q64.9272 646.076 64.9272 649.481 Q64.9272 658.011 59.9619 663.008 Q54.9967 667.974 46.5303 667.974 Q37.7774 667.974 32.6531 663.263 Q27.4968 658.52 27.4968 650.5 Q27.4968 643.306 32.1438 639.137 Q36.7589 634.936 44.7161 634.936 M42.9973 640.792 Q38.1912 640.856 35.3266 643.497 Q32.4621 646.107 32.4621 650.436 Q32.4621 655.338 35.2312 658.298 Q38.0002 661.226 43.0292 661.671 L42.9973 640.792 Z" fill="#000000" fill-rule="nonzero" fill-opacity="1" /><path clip-path="url(#clip070)" d="M28.3562 625.323 L28.3562 619.467 L64.0042 619.467 L64.0042 625.323 L28.3562 625.323 M14.479 625.323 L14.479 619.467 L21.895 619.467 L21.895 625.323 L14.479 625.323 Z" fill="#000000" fill-rule="nonzero" fill-opacity="1" /><path clip-path="url(#clip070)" d="M45.7664 583.755 Q39.4007 583.755 35.8996 586.397 Q32.3984 589.007 32.3984 593.749 Q32.3984 598.46 35.8996 601.102 Q39.4007 603.712 45.7664 603.712 Q52.1003 603.712 55.6014 601.102 Q59.1026 598.46 59.1026 593.749 Q59.1026 589.007 55.6014 586.397 Q52.1003 583.755 45.7664 583.755 M59.58 577.899 Q68.683 577.899 73.1071 581.941 Q77.5631 585.983 77.5631 594.322 Q77.5631 597.41 77.0857 600.147 Q76.6401 602.884 75.6852 605.462 L69.9879 605.462 Q71.3884 602.884 72.0568 600.37 Q72.7252 597.855 72.7252 595.245 Q72.7252 589.484 69.7015 586.62 Q66.7096 583.755 60.6303 583.755 L57.7339 583.755 Q60.885 585.569 62.4446 588.402 Q64.0042 591.235 64.0042 595.182 Q64.0042 601.738 59.0071 605.749 Q54.01 609.759 45.7664 609.759 Q37.491 609.759 32.4939 605.749 Q27.4968 601.738 27.4968 595.182 Q27.4968 591.235 29.0564 588.402 Q30.616 585.569 33.7671 583.755 L28.3562 583.755 L28.3562 577.899 L59.58 577.899 Z" fill="#000000" fill-rule="nonzero" fill-opacity="1" /><path clip-path="url(#clip070)" d="M42.4881 536.203 L64.0042 536.203 L64.0042 542.06 L42.679 542.06 Q37.6183 542.06 35.1038 544.033 Q32.5894 546.007 32.5894 549.953 Q32.5894 554.696 35.6131 557.433 Q38.6368 560.17 43.8567 560.17 L64.0042 560.17 L64.0042 566.059 L14.479 566.059 L14.479 560.17 L33.8944 560.17 Q30.6797 558.07 29.0883 555.237 Q27.4968 552.372 27.4968 548.648 Q27.4968 542.505 31.3163 539.354 Q35.1038 536.203 42.4881 536.203 Z" fill="#000000" fill-rule="nonzero" fill-opacity="1" /><path clip-path="url(#clip070)" d="M18.2347 518.73 L28.3562 518.73 L28.3562 506.667 L32.9077 506.667 L32.9077 518.73 L52.2594 518.73 Q56.6199 518.73 57.8613 517.552 Q59.1026 516.342 59.1026 512.682 L59.1026 506.667 L64.0042 506.667 L64.0042 512.682 Q64.0042 519.462 61.4897 522.04 Q58.9434 524.618 52.2594 524.618 L32.9077 524.618 L32.9077 528.915 L28.3562 528.915 L28.3562 524.618 L18.2347 524.618 L18.2347 518.73 Z" fill="#000000" fill-rule="nonzero" fill-opacity="1" /><path clip-path="url(#clip070)" d="M463.393 12.096 L498.15 12.096 L498.15 18.9825 L471.576 18.9825 L471.576 36.8065 L495.557 36.8065 L495.557 43.6931 L471.576 43.6931 L471.576 72.576 L463.393 72.576 L463.393 12.096 Z" fill="#000000" fill-rule="nonzero" fill-opacity="1" /><path clip-path="url(#clip070)" d="M523.792 49.7694 Q514.759 49.7694 511.275 51.8354 Q507.791 53.9013 507.791 58.8839 Q507.791 62.8538 510.384 65.2034 Q513.017 67.5124 517.513 67.5124 Q523.711 67.5124 527.438 63.1374 Q531.205 58.7219 531.205 51.4303 L531.205 49.7694 L523.792 49.7694 M538.659 46.6907 L538.659 72.576 L531.205 72.576 L531.205 65.6895 Q528.653 69.8214 524.845 71.8063 Q521.037 73.7508 515.528 73.7508 Q508.561 73.7508 504.429 69.8619 Q500.337 65.9325 500.337 59.3701 Q500.337 51.7138 505.441 47.825 Q510.586 43.9361 520.754 43.9361 L531.205 43.9361 L531.205 43.2069 Q531.205 38.0623 527.802 35.2672 Q524.44 32.4315 518.323 32.4315 Q514.434 32.4315 510.748 33.3632 Q507.062 34.295 503.659 36.1584 L503.659 29.2718 Q507.75 27.692 511.599 26.9223 Q515.447 26.1121 519.093 26.1121 Q528.937 26.1121 533.798 31.2163 Q538.659 36.3204 538.659 46.6907 Z" fill="#000000" fill-rule="nonzero" fill-opacity="1" /><path clip-path="url(#clip070)" d="M554.012 27.2059 L561.465 27.2059 L561.465 72.576 L554.012 72.576 L554.012 27.2059 M554.012 9.54393 L561.465 9.54393 L561.465 18.9825 L554.012 18.9825 L554.012 9.54393 Z" fill="#000000" fill-rule="nonzero" fill-opacity="1" /><path clip-path="url(#clip070)" d="M603.352 34.1734 Q602.096 33.4443 600.597 33.1202 Q599.139 32.7556 597.356 32.7556 Q591.037 32.7556 587.634 36.8875 Q584.272 40.9789 584.272 48.6757 L584.272 72.576 L576.778 72.576 L576.778 27.2059 L584.272 27.2059 L584.272 34.2544 Q586.622 30.1225 590.389 28.1376 Q594.156 26.1121 599.544 26.1121 Q600.314 26.1121 601.245 26.2337 Q602.177 26.3147 603.311 26.5172 L603.352 34.1734 Z" fill="#000000" fill-rule="nonzero" fill-opacity="1" /><path clip-path="url(#clip070)" d="M637.865 12.096 L646.048 12.096 L646.048 65.6895 L675.498 65.6895 L675.498 72.576 L637.865 72.576 L637.865 12.096 Z" fill="#000000" fill-rule="nonzero" fill-opacity="1" /><path clip-path="url(#clip070)" d="M699.885 32.4315 Q693.889 32.4315 690.406 37.1306 Q686.922 41.7891 686.922 49.9314 Q686.922 58.0738 690.365 62.7728 Q693.849 67.4314 699.885 67.4314 Q705.84 67.4314 709.323 62.7323 Q712.807 58.0333 712.807 49.9314 Q712.807 41.8701 709.323 37.1711 Q705.84 32.4315 699.885 32.4315 M699.885 26.1121 Q709.607 26.1121 715.157 32.4315 Q720.706 38.7509 720.706 49.9314 Q720.706 61.0714 715.157 67.4314 Q709.607 73.7508 699.885 73.7508 Q690.122 73.7508 684.572 67.4314 Q679.063 61.0714 679.063 49.9314 Q679.063 38.7509 684.572 32.4315 Q690.122 26.1121 699.885 26.1121 Z" fill="#000000" fill-rule="nonzero" fill-opacity="1" /><path clip-path="url(#clip070)" d="M753.681 49.7694 Q744.647 49.7694 741.164 51.8354 Q737.68 53.9013 737.68 58.8839 Q737.68 62.8538 740.272 65.2034 Q742.905 67.5124 747.402 67.5124 Q753.6 67.5124 757.327 63.1374 Q761.094 58.7219 761.094 51.4303 L761.094 49.7694 L753.681 49.7694 M768.548 46.6907 L768.548 72.576 L761.094 72.576 L761.094 65.6895 Q758.542 69.8214 754.734 71.8063 Q750.926 73.7508 745.417 73.7508 Q738.449 73.7508 734.318 69.8619 Q730.226 65.9325 730.226 59.3701 Q730.226 51.7138 735.33 47.825 Q740.475 43.9361 750.643 43.9361 L761.094 43.9361 L761.094 43.2069 Q761.094 38.0623 757.691 35.2672 Q754.329 32.4315 748.212 32.4315 Q744.323 32.4315 740.637 33.3632 Q736.951 34.295 733.548 36.1584 L733.548 29.2718 Q737.639 27.692 741.488 26.9223 Q745.336 26.1121 748.982 26.1121 Q758.825 26.1121 763.687 31.2163 Q768.548 36.3204 768.548 46.6907 Z" fill="#000000" fill-rule="nonzero" fill-opacity="1" /><path clip-path="url(#clip070)" d="M813.756 34.0924 L813.756 9.54393 L821.209 9.54393 L821.209 72.576 L813.756 72.576 L813.756 65.7705 Q811.406 69.8214 807.801 71.8063 Q804.236 73.7508 799.213 73.7508 Q790.99 73.7508 785.805 67.1883 Q780.66 60.6258 780.66 49.9314 Q780.66 39.2371 785.805 32.6746 Q790.99 26.1121 799.213 26.1121 Q804.236 26.1121 807.801 28.0971 Q811.406 30.0415 813.756 34.0924 M788.357 49.9314 Q788.357 58.1548 791.719 62.8538 Q795.122 67.5124 801.036 67.5124 Q806.95 67.5124 810.353 62.8538 Q813.756 58.1548 813.756 49.9314 Q813.756 41.7081 810.353 37.0496 Q806.95 32.3505 801.036 32.3505 Q795.122 32.3505 791.719 37.0496 Q788.357 41.7081 788.357 49.9314 Z" fill="#000000" fill-rule="nonzero" fill-opacity="1" /><path clip-path="url(#clip070)" d="M857.87 12.096 L866.134 12.096 L878.854 63.2184 L891.533 12.096 L900.729 12.096 L913.449 63.2184 L926.128 12.096 L934.432 12.096 L919.241 72.576 L908.952 72.576 L896.192 20.0763 L883.31 72.576 L873.02 72.576 L857.87 12.096 Z" fill="#000000" fill-rule="nonzero" fill-opacity="1" /><path clip-path="url(#clip070)" d="M978.911 48.0275 L978.911 51.6733 L944.64 51.6733 Q945.127 59.3701 949.258 63.421 Q953.431 67.4314 960.844 67.4314 Q965.138 67.4314 969.148 66.3781 Q973.199 65.3249 977.169 63.2184 L977.169 70.267 Q973.159 71.9684 968.946 72.8596 Q964.733 73.7508 960.398 73.7508 Q949.542 73.7508 943.182 67.4314 Q936.863 61.1119 936.863 50.3365 Q936.863 39.1965 942.858 32.6746 Q948.894 26.1121 959.102 26.1121 Q968.257 26.1121 973.564 32.0264 Q978.911 37.9003 978.911 48.0275 M971.457 45.84 Q971.376 39.7232 968.014 36.0774 Q964.692 32.4315 959.183 32.4315 Q952.945 32.4315 949.177 35.9558 Q945.451 39.4801 944.884 45.8805 L971.457 45.84 Z" fill="#000000" fill-rule="nonzero" fill-opacity="1" /><path clip-path="url(#clip070)" d="M991.145 27.2059 L998.599 27.2059 L998.599 72.576 L991.145 72.576 L991.145 27.2059 M991.145 9.54393 L998.599 9.54393 L998.599 18.9825 L991.145 18.9825 L991.145 9.54393 Z" fill="#000000" fill-rule="nonzero" fill-opacity="1" /><path clip-path="url(#clip070)" d="M1044.05 49.3643 Q1044.05 41.2625 1040.69 36.8065 Q1037.37 32.3505 1031.33 32.3505 Q1025.33 32.3505 1021.97 36.8065 Q1018.65 41.2625 1018.65 49.3643 Q1018.65 57.4256 1021.97 61.8816 Q1025.33 66.3376 1031.33 66.3376 Q1037.37 66.3376 1040.69 61.8816 Q1044.05 57.4256 1044.05 49.3643 M1051.5 66.9452 Q1051.5 78.5308 1046.36 84.1616 Q1041.21 89.8329 1030.6 89.8329 Q1026.67 89.8329 1023.19 89.2252 Q1019.7 88.6581 1016.42 87.4428 L1016.42 80.1917 Q1019.7 81.9741 1022.9 82.8248 Q1026.1 83.6755 1029.43 83.6755 Q1036.76 83.6755 1040.4 79.8271 Q1044.05 76.0193 1044.05 68.282 L1044.05 64.5957 Q1041.74 68.6061 1038.14 70.5911 Q1034.53 72.576 1029.51 72.576 Q1021.16 72.576 1016.06 66.2161 Q1010.95 59.8562 1010.95 49.3643 Q1010.95 38.832 1016.06 32.472 Q1021.16 26.1121 1029.51 26.1121 Q1034.53 26.1121 1038.14 28.0971 Q1041.74 30.082 1044.05 34.0924 L1044.05 27.2059 L1051.5 27.2059 L1051.5 66.9452 Z" fill="#000000" fill-rule="nonzero" fill-opacity="1" /><path clip-path="url(#clip070)" d="M1104.57 45.1919 L1104.57 72.576 L1097.12 72.576 L1097.12 45.4349 Q1097.12 38.994 1094.6 35.7938 Q1092.09 32.5936 1087.07 32.5936 Q1081.03 32.5936 1077.55 36.4419 Q1074.07 40.2903 1074.07 46.9338 L1074.07 72.576 L1066.57 72.576 L1066.57 9.54393 L1074.07 9.54393 L1074.07 34.2544 Q1076.74 30.163 1080.35 28.1376 Q1083.99 26.1121 1088.73 26.1121 Q1096.55 26.1121 1100.56 30.9732 Q1104.57 35.7938 1104.57 45.1919 Z" fill="#000000" fill-rule="nonzero" fill-opacity="1" /><path clip-path="url(#clip070)" d="M1126.81 14.324 L1126.81 27.2059 L1142.16 27.2059 L1142.16 32.9987 L1126.81 32.9987 L1126.81 57.6282 Q1126.81 63.1779 1128.31 64.7578 Q1129.85 66.3376 1134.51 66.3376 L1142.16 66.3376 L1142.16 72.576 L1134.51 72.576 Q1125.88 72.576 1122.6 69.3758 Q1119.32 66.1351 1119.32 57.6282 L1119.32 32.9987 L1113.85 32.9987 L1113.85 27.2059 L1119.32 27.2059 L1119.32 14.324 L1126.81 14.324 Z" fill="#000000" fill-rule="nonzero" fill-opacity="1" /><path clip-path="url(#clip070)" d="M1180.89 28.5427 L1180.89 35.5912 Q1177.73 33.9709 1174.33 33.1607 Q1170.92 32.3505 1167.28 32.3505 Q1161.73 32.3505 1158.93 34.0519 Q1156.18 35.7533 1156.18 39.156 Q1156.18 41.7486 1158.16 43.2475 Q1160.15 44.7058 1166.14 46.0426 L1168.7 46.6097 Q1176.64 48.3111 1179.96 51.4303 Q1183.32 54.509 1183.32 60.0587 Q1183.32 66.3781 1178.3 70.0644 Q1173.31 73.7508 1164.56 73.7508 Q1160.92 73.7508 1156.95 73.0216 Q1153.02 72.3329 1148.64 70.9151 L1148.64 63.2184 Q1152.78 65.3654 1156.79 66.4591 Q1160.8 67.5124 1164.73 67.5124 Q1169.99 67.5124 1172.83 65.73 Q1175.66 63.9071 1175.66 60.6258 Q1175.66 57.5877 1173.6 55.9673 Q1171.57 54.3469 1164.65 52.8481 L1162.05 52.2405 Q1155.13 50.7821 1152.05 47.7845 Q1148.97 44.7463 1148.97 39.4801 Q1148.97 33.0797 1153.51 29.5959 Q1158.04 26.1121 1166.39 26.1121 Q1170.52 26.1121 1174.16 26.7198 Q1177.81 27.3274 1180.89 28.5427 Z" fill="#000000" fill-rule="nonzero" fill-opacity="1" /><path clip-path="url(#clip070)" d="M1228.77 65.7705 L1228.77 89.8329 L1221.28 89.8329 L1221.28 27.2059 L1228.77 27.2059 L1228.77 34.0924 Q1231.12 30.0415 1234.69 28.0971 Q1238.29 26.1121 1243.27 26.1121 Q1251.54 26.1121 1256.68 32.6746 Q1261.87 39.2371 1261.87 49.9314 Q1261.87 60.6258 1256.68 67.1883 Q1251.54 73.7508 1243.27 73.7508 Q1238.29 73.7508 1234.69 71.8063 Q1231.12 69.8214 1228.77 65.7705 M1254.13 49.9314 Q1254.13 41.7081 1250.73 37.0496 Q1247.36 32.3505 1241.45 32.3505 Q1235.54 32.3505 1232.13 37.0496 Q1228.77 41.7081 1228.77 49.9314 Q1228.77 58.1548 1232.13 62.8538 Q1235.54 67.5124 1241.45 67.5124 Q1247.36 67.5124 1250.73 62.8538 Q1254.13 58.1548 1254.13 49.9314 Z" fill="#000000" fill-rule="nonzero" fill-opacity="1" /><path clip-path="url(#clip070)" d="M1313.03 48.0275 L1313.03 51.6733 L1278.76 51.6733 Q1279.25 59.3701 1283.38 63.421 Q1287.55 67.4314 1294.96 67.4314 Q1299.26 67.4314 1303.27 66.3781 Q1307.32 65.3249 1311.29 63.2184 L1311.29 70.267 Q1307.28 71.9684 1303.06 72.8596 Q1298.85 73.7508 1294.52 73.7508 Q1283.66 73.7508 1277.3 67.4314 Q1270.98 61.1119 1270.98 50.3365 Q1270.98 39.1965 1276.98 32.6746 Q1283.01 26.1121 1293.22 26.1121 Q1302.38 26.1121 1307.68 32.0264 Q1313.03 37.9003 1313.03 48.0275 M1305.58 45.84 Q1305.5 39.7232 1302.13 36.0774 Q1298.81 32.4315 1293.3 32.4315 Q1287.06 32.4315 1283.3 35.9558 Q1279.57 39.4801 1279 45.8805 L1305.58 45.84 Z" fill="#000000" fill-rule="nonzero" fill-opacity="1" /><path clip-path="url(#clip070)" d="M1351.55 34.1734 Q1350.3 33.4443 1348.8 33.1202 Q1347.34 32.7556 1345.56 32.7556 Q1339.24 32.7556 1335.84 36.8875 Q1332.47 40.9789 1332.47 48.6757 L1332.47 72.576 L1324.98 72.576 L1324.98 27.2059 L1332.47 27.2059 L1332.47 34.2544 Q1334.82 30.1225 1338.59 28.1376 Q1342.36 26.1121 1347.75 26.1121 Q1348.52 26.1121 1349.45 26.2337 Q1350.38 26.3147 1351.51 26.5172 L1351.55 34.1734 Z" fill="#000000" fill-rule="nonzero" fill-opacity="1" /><path clip-path="url(#clip070)" d="M1386.07 12.096 L1394.25 12.096 L1394.25 65.6895 L1423.7 65.6895 L1423.7 72.576 L1386.07 72.576 L1386.07 12.096 Z" fill="#000000" fill-rule="nonzero" fill-opacity="1" /><path clip-path="url(#clip070)" d="M1448.09 32.4315 Q1442.09 32.4315 1438.61 37.1306 Q1435.12 41.7891 1435.12 49.9314 Q1435.12 58.0738 1438.57 62.7728 Q1442.05 67.4314 1448.09 67.4314 Q1454.04 67.4314 1457.53 62.7323 Q1461.01 58.0333 1461.01 49.9314 Q1461.01 41.8701 1457.53 37.1711 Q1454.04 32.4315 1448.09 32.4315 M1448.09 26.1121 Q1457.81 26.1121 1463.36 32.4315 Q1468.91 38.7509 1468.91 49.9314 Q1468.91 61.0714 1463.36 67.4314 Q1457.81 73.7508 1448.09 73.7508 Q1438.32 73.7508 1432.77 67.4314 Q1427.27 61.0714 1427.27 49.9314 Q1427.27 38.7509 1432.77 32.4315 Q1438.32 26.1121 1448.09 26.1121 Z" fill="#000000" fill-rule="nonzero" fill-opacity="1" /><path clip-path="url(#clip070)" d="M1501.88 49.7694 Q1492.85 49.7694 1489.37 51.8354 Q1485.88 53.9013 1485.88 58.8839 Q1485.88 62.8538 1488.47 65.2034 Q1491.11 67.5124 1495.6 67.5124 Q1501.8 67.5124 1505.53 63.1374 Q1509.3 58.7219 1509.3 51.4303 L1509.3 49.7694 L1501.88 49.7694 M1516.75 46.6907 L1516.75 72.576 L1509.3 72.576 L1509.3 65.6895 Q1506.74 69.8214 1502.94 71.8063 Q1499.13 73.7508 1493.62 73.7508 Q1486.65 73.7508 1482.52 69.8619 Q1478.43 65.9325 1478.43 59.3701 Q1478.43 51.7138 1483.53 47.825 Q1488.68 43.9361 1498.84 43.9361 L1509.3 43.9361 L1509.3 43.2069 Q1509.3 38.0623 1505.89 35.2672 Q1502.53 32.4315 1496.41 32.4315 Q1492.53 32.4315 1488.84 33.3632 Q1485.15 34.295 1481.75 36.1584 L1481.75 29.2718 Q1485.84 27.692 1489.69 26.9223 Q1493.54 26.1121 1497.18 26.1121 Q1507.03 26.1121 1511.89 31.2163 Q1516.75 36.3204 1516.75 46.6907 Z" fill="#000000" fill-rule="nonzero" fill-opacity="1" /><path clip-path="url(#clip070)" d="M1561.96 34.0924 L1561.96 9.54393 L1569.41 9.54393 L1569.41 72.576 L1561.96 72.576 L1561.96 65.7705 Q1559.61 69.8214 1556 71.8063 Q1552.44 73.7508 1547.42 73.7508 Q1539.19 73.7508 1534.01 67.1883 Q1528.86 60.6258 1528.86 49.9314 Q1528.86 39.2371 1534.01 32.6746 Q1539.19 26.1121 1547.42 26.1121 Q1552.44 26.1121 1556 28.0971 Q1559.61 30.0415 1561.96 34.0924 M1536.56 49.9314 Q1536.56 58.1548 1539.92 62.8538 Q1543.32 67.5124 1549.24 67.5124 Q1555.15 67.5124 1558.55 62.8538 Q1561.96 58.1548 1561.96 49.9314 Q1561.96 41.7081 1558.55 37.0496 Q1555.15 32.3505 1549.24 32.3505 Q1543.32 32.3505 1539.92 37.0496 Q1536.56 41.7081 1536.56 49.9314 Z" fill="#000000" fill-rule="nonzero" fill-opacity="1" /><path clip-path="url(#clip070)" d="M1607.37 46.5287 L1629.2 46.5287 L1629.2 53.1722 L1607.37 53.1722 L1607.37 46.5287 Z" fill="#000000" fill-rule="nonzero" fill-opacity="1" /><path clip-path="url(#clip070)" d="M1667.77 12.096 L1675.95 12.096 L1675.95 72.576 L1667.77 72.576 L1667.77 12.096 Z" fill="#000000" fill-rule="nonzero" fill-opacity="1" /><path clip-path="url(#clip070)" d="M1699.28 14.324 L1699.28 27.2059 L1714.64 27.2059 L1714.64 32.9987 L1699.28 32.9987 L1699.28 57.6282 Q1699.28 63.1779 1700.78 64.7578 Q1702.32 66.3376 1706.98 66.3376 L1714.64 66.3376 L1714.64 72.576 L1706.98 72.576 Q1698.35 72.576 1695.07 69.3758 Q1691.79 66.1351 1691.79 57.6282 L1691.79 32.9987 L1686.32 32.9987 L1686.32 27.2059 L1691.79 27.2059 L1691.79 14.324 L1699.28 14.324 Z" fill="#000000" fill-rule="nonzero" fill-opacity="1" /><path clip-path="url(#clip070)" d="M1763.25 48.0275 L1763.25 51.6733 L1728.98 51.6733 Q1729.46 59.3701 1733.59 63.421 Q1737.77 67.4314 1745.18 67.4314 Q1749.47 67.4314 1753.48 66.3781 Q1757.54 65.3249 1761.51 63.2184 L1761.51 70.267 Q1757.49 71.9684 1753.28 72.8596 Q1749.07 73.7508 1744.73 73.7508 Q1733.88 73.7508 1727.52 67.4314 Q1721.2 61.1119 1721.2 50.3365 Q1721.2 39.1965 1727.19 32.6746 Q1733.23 26.1121 1743.44 26.1121 Q1752.59 26.1121 1757.9 32.0264 Q1763.25 37.9003 1763.25 48.0275 M1755.79 45.84 Q1755.71 39.7232 1752.35 36.0774 Q1749.03 32.4315 1743.52 32.4315 Q1737.28 32.4315 1733.51 35.9558 Q1729.79 39.4801 1729.22 45.8805 L1755.79 45.84 Z" fill="#000000" fill-rule="nonzero" fill-opacity="1" /><path clip-path="url(#clip070)" d="M1801.77 34.1734 Q1800.52 33.4443 1799.02 33.1202 Q1797.56 32.7556 1795.78 32.7556 Q1789.46 32.7556 1786.05 36.8875 Q1782.69 40.9789 1782.69 48.6757 L1782.69 72.576 L1775.2 72.576 L1775.2 27.2059 L1782.69 27.2059 L1782.69 34.2544 Q1785.04 30.1225 1788.81 28.1376 Q1792.58 26.1121 1797.96 26.1121 Q1798.73 26.1121 1799.66 26.2337 Q1800.6 26.3147 1801.73 26.5172 L1801.77 34.1734 Z" fill="#000000" fill-rule="nonzero" fill-opacity="1" /><path clip-path="url(#clip070)" d="M1830.21 49.7694 Q1821.18 49.7694 1817.69 51.8354 Q1814.21 53.9013 1814.21 58.8839 Q1814.21 62.8538 1816.8 65.2034 Q1819.43 67.5124 1823.93 67.5124 Q1830.13 67.5124 1833.85 63.1374 Q1837.62 58.7219 1837.62 51.4303 L1837.62 49.7694 L1830.21 49.7694 M1845.08 46.6907 L1845.08 72.576 L1837.62 72.576 L1837.62 65.6895 Q1835.07 69.8214 1831.26 71.8063 Q1827.45 73.7508 1821.94 73.7508 Q1814.98 73.7508 1810.85 69.8619 Q1806.75 65.9325 1806.75 59.3701 Q1806.75 51.7138 1811.86 47.825 Q1817 43.9361 1827.17 43.9361 L1837.62 43.9361 L1837.62 43.2069 Q1837.62 38.0623 1834.22 35.2672 Q1830.86 32.4315 1824.74 32.4315 Q1820.85 32.4315 1817.16 33.3632 Q1813.48 34.295 1810.08 36.1584 L1810.08 29.2718 Q1814.17 27.692 1818.02 26.9223 Q1821.86 26.1121 1825.51 26.1121 Q1835.35 26.1121 1840.21 31.2163 Q1845.08 36.3204 1845.08 46.6907 Z" fill="#000000" fill-rule="nonzero" fill-opacity="1" /><path clip-path="url(#clip070)" d="M1867.8 14.324 L1867.8 27.2059 L1883.15 27.2059 L1883.15 32.9987 L1867.8 32.9987 L1867.8 57.6282 Q1867.8 63.1779 1869.3 64.7578 Q1870.84 66.3376 1875.5 66.3376 L1883.15 66.3376 L1883.15 72.576 L1875.5 72.576 Q1866.87 72.576 1863.59 69.3758 Q1860.31 66.1351 1860.31 57.6282 L1860.31 32.9987 L1854.84 32.9987 L1854.84 27.2059 L1860.31 27.2059 L1860.31 14.324 L1867.8 14.324 Z" fill="#000000" fill-rule="nonzero" fill-opacity="1" /><path clip-path="url(#clip070)" d="M1892.96 27.2059 L1900.41 27.2059 L1900.41 72.576 L1892.96 72.576 L1892.96 27.2059 M1892.96 9.54393 L1900.41 9.54393 L1900.41 18.9825 L1892.96 18.9825 L1892.96 9.54393 Z" fill="#000000" fill-rule="nonzero" fill-opacity="1" /><path clip-path="url(#clip070)" d="M1933.59 32.4315 Q1927.59 32.4315 1924.11 37.1306 Q1920.62 41.7891 1920.62 49.9314 Q1920.62 58.0738 1924.07 62.7728 Q1927.55 67.4314 1933.59 67.4314 Q1939.54 67.4314 1943.03 62.7323 Q1946.51 58.0333 1946.51 49.9314 Q1946.51 41.8701 1943.03 37.1711 Q1939.54 32.4315 1933.59 32.4315 M1933.59 26.1121 Q1943.31 26.1121 1948.86 32.4315 Q1954.41 38.7509 1954.41 49.9314 Q1954.41 61.0714 1948.86 67.4314 Q1943.31 73.7508 1933.59 73.7508 Q1923.83 73.7508 1918.28 67.4314 Q1912.77 61.0714 1912.77 49.9314 Q1912.77 38.7509 1918.28 32.4315 Q1923.83 26.1121 1933.59 26.1121 Z" fill="#000000" fill-rule="nonzero" fill-opacity="1" /><path clip-path="url(#clip070)" d="M2004.48 45.1919 L2004.48 72.576 L1997.02 72.576 L1997.02 45.4349 Q1997.02 38.994 1994.51 35.7938 Q1992 32.5936 1986.98 32.5936 Q1980.94 32.5936 1977.46 36.4419 Q1973.98 40.2903 1973.98 46.9338 L1973.98 72.576 L1966.48 72.576 L1966.48 27.2059 L1973.98 27.2059 L1973.98 34.2544 Q1976.65 30.163 1980.25 28.1376 Q1983.9 26.1121 1988.64 26.1121 Q1996.46 26.1121 2000.47 30.9732 Q2004.48 35.7938 2004.48 45.1919 Z" fill="#000000" fill-rule="nonzero" fill-opacity="1" /><path clip-path="url(#clip070)" d="M2044.7 12.096 L2083.59 12.096 L2083.59 15.5798 L2061.64 72.576 L2053.09 72.576 L2073.75 18.9825 L2044.7 18.9825 L2044.7 12.096 Z" fill="#000000" fill-rule="nonzero" fill-opacity="1" /><path clip-path="url(#clip070)" d="M2124.34 39.9662 Q2130.22 41.222 2133.5 45.1919 Q2136.82 49.1618 2136.82 54.9951 Q2136.82 63.9476 2130.66 68.8492 Q2124.51 73.7508 2113.16 73.7508 Q2109.36 73.7508 2105.31 72.9811 Q2101.3 72.2519 2097 70.7531 L2097 62.8538 Q2100.4 64.8388 2104.45 65.8515 Q2108.51 66.8642 2112.92 66.8642 Q2120.62 66.8642 2124.63 63.826 Q2128.68 60.7879 2128.68 54.9951 Q2128.68 49.6479 2124.91 46.6502 Q2121.19 43.612 2114.5 43.612 L2107.45 43.612 L2107.45 36.8875 L2114.83 36.8875 Q2120.86 36.8875 2124.06 34.4975 Q2127.26 32.067 2127.26 27.5299 Q2127.26 22.8714 2123.94 20.4004 Q2120.66 17.8888 2114.5 17.8888 Q2111.14 17.8888 2107.29 18.618 Q2103.44 19.3471 2098.82 20.8865 L2098.82 13.5948 Q2103.48 12.2985 2107.53 11.6504 Q2111.62 11.0023 2115.23 11.0023 Q2124.55 11.0023 2129.98 15.2557 Q2135.4 19.4686 2135.4 26.6793 Q2135.4 31.7024 2132.53 35.1862 Q2129.65 38.6294 2124.34 39.9662 Z" fill="#000000" fill-rule="nonzero" fill-opacity="1" /><path clip-path="url(#clip072)" d="M869.661 126.061 L869.661 1423.18 L970.943 1423.18 L970.943 126.061 L869.661 126.061 L869.661 126.061  Z" fill="#009af9" fill-rule="evenodd" fill-opacity="1"/>
<polyline clip-path="url(#clip072)" style="stroke:#000000; stroke-linecap:round; stroke-linejoin:round; stroke-width:4; stroke-opacity:1; fill:none" points="869.661,126.061 869.661,1423.18 970.943,1423.18 970.943,126.061 869.661,126.061 "/>
<path clip-path="url(#clip072)" d="M1755.87 1423.18 L1755.87 1423.18 L1857.16 1423.18 L1857.16 1423.18 L1755.87 1423.18 L1755.87 1423.18  Z" fill="#009af9" fill-rule="evenodd" fill-opacity="1"/>
<polyline clip-path="url(#clip072)" style="stroke:#000000; stroke-linecap:round; stroke-linejoin:round; stroke-width:4; stroke-opacity:1; fill:none" points="1755.87,1423.18 1755.87,1423.18 1857.16,1423.18 1857.16,1423.18 1755.87,1423.18 "/>
<path clip-path="url(#clip072)" d="M1249.47 123.472 L1249.47 1423.18 L1350.75 1423.18 L1350.75 123.472 L1249.47 123.472 L1249.47 123.472  Z" fill="#009af9" fill-rule="evenodd" fill-opacity="1"/>
<polyline clip-path="url(#clip072)" style="stroke:#000000; stroke-linecap:round; stroke-linejoin:round; stroke-width:4; stroke-opacity:1; fill:none" points="1249.47,123.472 1249.47,1423.18 1350.75,1423.18 1350.75,123.472 1249.47,123.472 "/>
<path clip-path="url(#clip072)" d="M363.254 1423.18 L363.254 1423.18 L464.535 1423.18 L464.535 1423.18 L363.254 1423.18 L363.254 1423.18  Z" fill="#009af9" fill-rule="evenodd" fill-opacity="1"/>
<polyline clip-path="url(#clip072)" style="stroke:#000000; stroke-linecap:round; stroke-linejoin:round; stroke-width:4; stroke-opacity:1; fill:none" points="363.254,1423.18 363.254,1423.18 464.535,1423.18 464.535,1423.18 363.254,1423.18 "/>
<path clip-path="url(#clip072)" d="M996.263 125.13 L996.263 1423.18 L1097.54 1423.18 L1097.54 125.13 L996.263 125.13 L996.263 125.13  Z" fill="#009af9" fill-rule="evenodd" fill-opacity="1"/>
<polyline clip-path="url(#clip072)" style="stroke:#000000; stroke-linecap:round; stroke-linejoin:round; stroke-width:4; stroke-opacity:1; fill:none" points="996.263,125.13 996.263,1423.18 1097.54,1423.18 1097.54,125.13 996.263,125.13 "/>
<path clip-path="url(#clip072)" d="M1629.27 1423.18 L1629.27 1423.18 L1730.55 1423.18 L1730.55 1423.18 L1629.27 1423.18 L1629.27 1423.18  Z" fill="#009af9" fill-rule="evenodd" fill-opacity="1"/>
<polyline clip-path="url(#clip072)" style="stroke:#000000; stroke-linecap:round; stroke-linejoin:round; stroke-width:4; stroke-opacity:1; fill:none" points="1629.27,1423.18 1629.27,1423.18 1730.55,1423.18 1730.55,1423.18 1629.27,1423.18 "/>
<path clip-path="url(#clip072)" d="M1376.07 1423.18 L1376.07 1423.18 L1477.35 1423.18 L1477.35 1423.18 L1376.07 1423.18 L1376.07 1423.18  Z" fill="#009af9" fill-rule="evenodd" fill-opacity="1"/>
<polyline clip-path="url(#clip072)" style="stroke:#000000; stroke-linecap:round; stroke-linejoin:round; stroke-width:4; stroke-opacity:1; fill:none" points="1376.07,1423.18 1376.07,1423.18 1477.35,1423.18 1477.35,1423.18 1376.07,1423.18 "/>
<path clip-path="url(#clip072)" d="M2009.08 123.472 L2009.08 1423.18 L2110.36 1423.18 L2110.36 123.472 L2009.08 123.472 L2009.08 123.472  Z" fill="#009af9" fill-rule="evenodd" fill-opacity="1"/>
<polyline clip-path="url(#clip072)" style="stroke:#000000; stroke-linecap:round; stroke-linejoin:round; stroke-width:4; stroke-opacity:1; fill:none" points="2009.08,123.472 2009.08,1423.18 2110.36,1423.18 2110.36,123.472 2009.08,123.472 "/>
<path clip-path="url(#clip072)" d="M616.457 123.49 L616.457 1423.18 L717.739 1423.18 L717.739 123.49 L616.457 123.49 L616.457 123.49  Z" fill="#009af9" fill-rule="evenodd" fill-opacity="1"/>
<polyline clip-path="url(#clip072)" style="stroke:#000000; stroke-linecap:round; stroke-linejoin:round; stroke-width:4; stroke-opacity:1; fill:none" points="616.457,123.49 616.457,1423.18 717.739,1423.18 717.739,123.49 616.457,123.49 "/>
<path clip-path="url(#clip072)" d="M1122.86 125.737 L1122.86 1423.18 L1224.15 1423.18 L1224.15 125.737 L1122.86 125.737 L1122.86 125.737  Z" fill="#009af9" fill-rule="evenodd" fill-opacity="1"/>
<polyline clip-path="url(#clip072)" style="stroke:#000000; stroke-linecap:round; stroke-linejoin:round; stroke-width:4; stroke-opacity:1; fill:none" points="1122.86,125.737 1122.86,1423.18 1224.15,1423.18 1224.15,125.737 1122.86,125.737 "/>
<path clip-path="url(#clip072)" d="M743.059 400.781 L743.059 1423.18 L844.341 1423.18 L844.341 400.781 L743.059 400.781 L743.059 400.781  Z" fill="#009af9" fill-rule="evenodd" fill-opacity="1"/>
<polyline clip-path="url(#clip072)" style="stroke:#000000; stroke-linecap:round; stroke-linejoin:round; stroke-width:4; stroke-opacity:1; fill:none" points="743.059,400.781 743.059,1423.18 844.341,1423.18 844.341,400.781 743.059,400.781 "/>
<path clip-path="url(#clip072)" d="M1882.48 1423.18 L1882.48 1423.18 L1983.76 1423.18 L1983.76 1423.18 L1882.48 1423.18 L1882.48 1423.18  Z" fill="#009af9" fill-rule="evenodd" fill-opacity="1"/>
<polyline clip-path="url(#clip072)" style="stroke:#000000; stroke-linecap:round; stroke-linejoin:round; stroke-width:4; stroke-opacity:1; fill:none" points="1882.48,1423.18 1882.48,1423.18 1983.76,1423.18 1983.76,1423.18 1882.48,1423.18 "/>
<path clip-path="url(#clip072)" d="M2135.68 125.736 L2135.68 1423.18 L2236.96 1423.18 L2236.96 125.736 L2135.68 125.736 L2135.68 125.736  Z" fill="#009af9" fill-rule="evenodd" fill-opacity="1"/>
<polyline clip-path="url(#clip072)" style="stroke:#000000; stroke-linecap:round; stroke-linejoin:round; stroke-width:4; stroke-opacity:1; fill:none" points="2135.68,125.736 2135.68,1423.18 2236.96,1423.18 2236.96,125.736 2135.68,125.736 "/>
<path clip-path="url(#clip072)" d="M489.856 1423.18 L489.856 1423.18 L591.137 1423.18 L591.137 1423.18 L489.856 1423.18 L489.856 1423.18  Z" fill="#009af9" fill-rule="evenodd" fill-opacity="1"/>
<polyline clip-path="url(#clip072)" style="stroke:#000000; stroke-linecap:round; stroke-linejoin:round; stroke-width:4; stroke-opacity:1; fill:none" points="489.856,1423.18 489.856,1423.18 591.137,1423.18 591.137,1423.18 489.856,1423.18 "/>
<path clip-path="url(#clip072)" d="M1502.67 123.472 L1502.67 1423.18 L1603.95 1423.18 L1603.95 123.472 L1502.67 123.472 L1502.67 123.472  Z" fill="#009af9" fill-rule="evenodd" fill-opacity="1"/>
<polyline clip-path="url(#clip072)" style="stroke:#000000; stroke-linecap:round; stroke-linejoin:round; stroke-width:4; stroke-opacity:1; fill:none" points="1502.67,123.472 1502.67,1423.18 1603.95,1423.18 1603.95,123.472 1502.67,123.472 "/>
<circle clip-path="url(#clip072)" style="fill:#009af9; stroke:none; fill-opacity:0" cx="920.302" cy="126.061" r="2"/>
<circle clip-path="url(#clip072)" style="fill:#009af9; stroke:none; fill-opacity:0" cx="1806.51" cy="1423.18" r="2"/>
<circle clip-path="url(#clip072)" style="fill:#009af9; stroke:none; fill-opacity:0" cx="1300.11" cy="123.472" r="2"/>
<circle clip-path="url(#clip072)" style="fill:#009af9; stroke:none; fill-opacity:0" cx="413.895" cy="1423.18" r="2"/>
<circle clip-path="url(#clip072)" style="fill:#009af9; stroke:none; fill-opacity:0" cx="1046.9" cy="125.13" r="2"/>
<circle clip-path="url(#clip072)" style="fill:#009af9; stroke:none; fill-opacity:0" cx="1679.91" cy="1423.18" r="2"/>
<circle clip-path="url(#clip072)" style="fill:#009af9; stroke:none; fill-opacity:0" cx="1426.71" cy="1423.18" r="2"/>
<circle clip-path="url(#clip072)" style="fill:#009af9; stroke:none; fill-opacity:0" cx="2059.72" cy="123.472" r="2"/>
<circle clip-path="url(#clip072)" style="fill:#009af9; stroke:none; fill-opacity:0" cx="667.098" cy="123.49" r="2"/>
<circle clip-path="url(#clip072)" style="fill:#009af9; stroke:none; fill-opacity:0" cx="1173.51" cy="125.737" r="2"/>
<circle clip-path="url(#clip072)" style="fill:#009af9; stroke:none; fill-opacity:0" cx="793.7" cy="400.781" r="2"/>
<circle clip-path="url(#clip072)" style="fill:#009af9; stroke:none; fill-opacity:0" cx="1933.12" cy="1423.18" r="2"/>
<circle clip-path="url(#clip072)" style="fill:#009af9; stroke:none; fill-opacity:0" cx="2186.32" cy="125.736" r="2"/>
<circle clip-path="url(#clip072)" style="fill:#009af9; stroke:none; fill-opacity:0" cx="540.496" cy="1423.18" r="2"/>
<circle clip-path="url(#clip072)" style="fill:#009af9; stroke:none; fill-opacity:0" cx="1553.31" cy="123.472" r="2"/>
</svg>
