<?xml version="1.0" encoding="utf-8"?>
<svg xmlns="http://www.w3.org/2000/svg" xmlns:xlink="http://www.w3.org/1999/xlink" width="600" height="400" viewBox="0 0 2400 1600">
<defs>
  <clipPath id="clip960">
    <rect x="0" y="0" width="2400" height="1600"/>
  </clipPath>
</defs>
<path clip-path="url(#clip960)" d="M0 1600 L2400 1600 L2400 0 L0 0  Z" fill="#ffffff" fill-rule="evenodd" fill-opacity="1"/>
<defs>
  <clipPath id="clip961">
    <rect x="480" y="0" width="1681" height="1600"/>
  </clipPath>
</defs>
<path clip-path="url(#clip960)" d="M175.445 1423.18 L2352.76 1423.18 L2352.76 123.472 L175.445 123.472  Z" fill="#ffffff" fill-rule="evenodd" fill-opacity="1"/>
<defs>
  <clipPath id="clip962">
    <rect x="175" y="123" width="2178" height="1301"/>
  </clipPath>
</defs>
<polyline clip-path="url(#clip962)" style="stroke:#000000; stroke-linecap:round; stroke-linejoin:round; stroke-width:2; stroke-opacity:0.1; fill:none" points="216.642,1423.18 216.642,123.472 "/>
<polyline clip-path="url(#clip962)" style="stroke:#000000; stroke-linecap:round; stroke-linejoin:round; stroke-width:2; stroke-opacity:0.1; fill:none" points="871.304,1423.18 871.304,123.472 "/>
<polyline clip-path="url(#clip962)" style="stroke:#000000; stroke-linecap:round; stroke-linejoin:round; stroke-width:2; stroke-opacity:0.1; fill:none" points="1525.97,1423.18 1525.97,123.472 "/>
<polyline clip-path="url(#clip962)" style="stroke:#000000; stroke-linecap:round; stroke-linejoin:round; stroke-width:2; stroke-opacity:0.1; fill:none" points="2180.63,1423.18 2180.63,123.472 "/>
<polyline clip-path="url(#clip962)" style="stroke:#000000; stroke-linecap:round; stroke-linejoin:round; stroke-width:2; stroke-opacity:0.1; fill:none" points="175.445,1423.18 2352.76,1423.18 "/>
<polyline clip-path="url(#clip962)" style="stroke:#000000; stroke-linecap:round; stroke-linejoin:round; stroke-width:2; stroke-opacity:0.1; fill:none" points="175.445,1163.21 2352.76,1163.21 "/>
<polyline clip-path="url(#clip962)" style="stroke:#000000; stroke-linecap:round; stroke-linejoin:round; stroke-width:2; stroke-opacity:0.1; fill:none" points="175.445,903.234 2352.76,903.234 "/>
<polyline clip-path="url(#clip962)" style="stroke:#000000; stroke-linecap:round; stroke-linejoin:round; stroke-width:2; stroke-opacity:0.1; fill:none" points="175.445,643.261 2352.76,643.261 "/>
<polyline clip-path="url(#clip962)" style="stroke:#000000; stroke-linecap:round; stroke-linejoin:round; stroke-width:2; stroke-opacity:0.1; fill:none" points="175.445,383.288 2352.76,383.288 "/>
<polyline clip-path="url(#clip960)" style="stroke:#000000; stroke-linecap:round; stroke-linejoin:round; stroke-width:4; stroke-opacity:1; fill:none" points="175.445,1423.18 2352.76,1423.18 "/>
<polyline clip-path="url(#clip960)" style="stroke:#000000; stroke-linecap:round; stroke-linejoin:round; stroke-width:4; stroke-opacity:1; fill:none" points="216.642,1423.18 216.642,1404.28 "/>
<polyline clip-path="url(#clip960)" style="stroke:#000000; stroke-linecap:round; stroke-linejoin:round; stroke-width:4; stroke-opacity:1; fill:none" points="871.304,1423.18 871.304,1404.28 "/>
<polyline clip-path="url(#clip960)" style="stroke:#000000; stroke-linecap:round; stroke-linejoin:round; stroke-width:4; stroke-opacity:1; fill:none" points="1525.97,1423.18 1525.97,1404.28 "/>
<polyline clip-path="url(#clip960)" style="stroke:#000000; stroke-linecap:round; stroke-linejoin:round; stroke-width:4; stroke-opacity:1; fill:none" points="2180.63,1423.18 2180.63,1404.28 "/>
<path clip-path="url(#clip960)" d="M216.642 1454.1 Q213.031 1454.1 211.202 1457.66 Q209.396 1461.2 209.396 1468.33 Q209.396 1475.44 211.202 1479.01 Q213.031 1482.55 216.642 1482.55 Q220.276 1482.55 222.082 1479.01 Q223.91 1475.44 223.91 1468.33 Q223.91 1461.2 222.082 1457.66 Q220.276 1454.1 216.642 1454.1 M216.642 1450.39 Q222.452 1450.39 225.507 1455 Q228.586 1459.58 228.586 1468.33 Q228.586 1477.06 225.507 1481.67 Q222.452 1486.25 216.642 1486.25 Q210.832 1486.25 207.753 1481.67 Q204.697 1477.06 204.697 1468.33 Q204.697 1459.58 207.753 1455 Q210.832 1450.39 216.642 1450.39 Z" fill="#000000" fill-rule="nonzero" fill-opacity="1" /><path clip-path="url(#clip960)" d="M861.581 1451.02 L879.938 1451.02 L879.938 1454.96 L865.864 1454.96 L865.864 1463.43 Q866.882 1463.08 867.901 1462.92 Q868.919 1462.73 869.938 1462.73 Q875.725 1462.73 879.104 1465.9 Q882.484 1469.08 882.484 1474.49 Q882.484 1480.07 879.012 1483.17 Q875.54 1486.25 869.22 1486.25 Q867.044 1486.25 864.776 1485.88 Q862.53 1485.51 860.123 1484.77 L860.123 1480.07 Q862.206 1481.2 864.429 1481.76 Q866.651 1482.32 869.128 1482.32 Q873.132 1482.32 875.47 1480.21 Q877.808 1478.1 877.808 1474.49 Q877.808 1470.88 875.47 1468.77 Q873.132 1466.67 869.128 1466.67 Q867.253 1466.67 865.378 1467.08 Q863.526 1467.5 861.581 1468.38 L861.581 1451.02 Z" fill="#000000" fill-rule="nonzero" fill-opacity="1" /><path clip-path="url(#clip960)" d="M1500.65 1481.64 L1508.29 1481.64 L1508.29 1455.28 L1499.98 1456.95 L1499.98 1452.69 L1508.25 1451.02 L1512.92 1451.02 L1512.92 1481.64 L1520.56 1481.64 L1520.56 1485.58 L1500.65 1485.58 L1500.65 1481.64 Z" fill="#000000" fill-rule="nonzero" fill-opacity="1" /><path clip-path="url(#clip960)" d="M1540 1454.1 Q1536.39 1454.1 1534.56 1457.66 Q1532.76 1461.2 1532.76 1468.33 Q1532.76 1475.44 1534.56 1479.01 Q1536.39 1482.55 1540 1482.55 Q1543.64 1482.55 1545.44 1479.01 Q1547.27 1475.44 1547.27 1468.33 Q1547.27 1461.2 1545.44 1457.66 Q1543.64 1454.1 1540 1454.1 M1540 1450.39 Q1545.81 1450.39 1548.87 1455 Q1551.95 1459.58 1551.95 1468.33 Q1551.95 1477.06 1548.87 1481.67 Q1545.81 1486.25 1540 1486.25 Q1534.19 1486.25 1531.12 1481.67 Q1528.06 1477.06 1528.06 1468.33 Q1528.06 1459.58 1531.12 1455 Q1534.19 1450.39 1540 1450.39 Z" fill="#000000" fill-rule="nonzero" fill-opacity="1" /><path clip-path="url(#clip960)" d="M2155.81 1481.64 L2163.45 1481.64 L2163.45 1455.28 L2155.14 1456.95 L2155.14 1452.69 L2163.4 1451.02 L2168.08 1451.02 L2168.08 1481.64 L2175.72 1481.64 L2175.72 1485.58 L2155.81 1485.58 L2155.81 1481.64 Z" fill="#000000" fill-rule="nonzero" fill-opacity="1" /><path clip-path="url(#clip960)" d="M2185.21 1451.02 L2203.57 1451.02 L2203.57 1454.96 L2189.49 1454.96 L2189.49 1463.43 Q2190.51 1463.08 2191.53 1462.92 Q2192.55 1462.73 2193.57 1462.73 Q2199.35 1462.73 2202.73 1465.9 Q2206.11 1469.08 2206.11 1474.49 Q2206.11 1480.07 2202.64 1483.17 Q2199.17 1486.25 2192.85 1486.25 Q2190.67 1486.25 2188.4 1485.88 Q2186.16 1485.51 2183.75 1484.77 L2183.75 1480.07 Q2185.84 1481.2 2188.06 1481.76 Q2190.28 1482.32 2192.76 1482.32 Q2196.76 1482.32 2199.1 1480.21 Q2201.44 1478.1 2201.44 1474.49 Q2201.44 1470.88 2199.1 1468.77 Q2196.76 1466.67 2192.76 1466.67 Q2190.88 1466.67 2189.01 1467.08 Q2187.15 1467.5 2185.21 1468.38 L2185.21 1451.02 Z" fill="#000000" fill-rule="nonzero" fill-opacity="1" /><path clip-path="url(#clip960)" d="M1145.97 1520.52 L1152.4 1520.52 L1152.4 1562.63 L1175.54 1562.63 L1175.54 1568.04 L1145.97 1568.04 L1145.97 1520.52 Z" fill="#000000" fill-rule="nonzero" fill-opacity="1" /><path clip-path="url(#clip960)" d="M1194.7 1536.5 Q1189.99 1536.5 1187.25 1540.19 Q1184.51 1543.85 1184.51 1550.25 Q1184.51 1556.65 1187.22 1560.34 Q1189.96 1564 1194.7 1564 Q1199.38 1564 1202.11 1560.31 Q1204.85 1556.62 1204.85 1550.25 Q1204.85 1543.92 1202.11 1540.23 Q1199.38 1536.5 1194.7 1536.5 M1194.7 1531.54 Q1202.34 1531.54 1206.7 1536.5 Q1211.06 1541.47 1211.06 1550.25 Q1211.06 1559 1206.7 1564 Q1202.34 1568.97 1194.7 1568.97 Q1187.03 1568.97 1182.67 1564 Q1178.34 1559 1178.34 1550.25 Q1178.34 1541.47 1182.67 1536.5 Q1187.03 1531.54 1194.7 1531.54 Z" fill="#000000" fill-rule="nonzero" fill-opacity="1" /><path clip-path="url(#clip960)" d="M1236.97 1550.12 Q1229.87 1550.12 1227.13 1551.75 Q1224.39 1553.37 1224.39 1557.29 Q1224.39 1560.4 1226.43 1562.25 Q1228.5 1564.07 1232.03 1564.07 Q1236.9 1564.07 1239.83 1560.63 Q1242.79 1557.16 1242.79 1551.43 L1242.79 1550.12 L1236.97 1550.12 M1248.65 1547.71 L1248.65 1568.04 L1242.79 1568.04 L1242.79 1562.63 Q1240.79 1565.88 1237.79 1567.44 Q1234.8 1568.97 1230.47 1568.97 Q1225 1568.97 1221.75 1565.91 Q1218.54 1562.82 1218.54 1557.67 Q1218.54 1551.65 1222.55 1548.6 Q1226.59 1545.54 1234.58 1545.54 L1242.79 1545.54 L1242.79 1544.97 Q1242.79 1540.93 1240.12 1538.73 Q1237.48 1536.5 1232.67 1536.5 Q1229.61 1536.5 1226.72 1537.23 Q1223.82 1537.97 1221.15 1539.43 L1221.15 1534.02 Q1224.36 1532.78 1227.39 1532.17 Q1230.41 1531.54 1233.27 1531.54 Q1241.01 1531.54 1244.83 1535.55 Q1248.65 1539.56 1248.65 1547.71 Z" fill="#000000" fill-rule="nonzero" fill-opacity="1" /><path clip-path="url(#clip960)" d="M1284.17 1537.81 L1284.17 1518.52 L1290.02 1518.52 L1290.02 1568.04 L1284.17 1568.04 L1284.17 1562.7 Q1282.32 1565.88 1279.49 1567.44 Q1276.69 1568.97 1272.74 1568.97 Q1266.28 1568.97 1262.21 1563.81 Q1258.16 1558.65 1258.16 1550.25 Q1258.16 1541.85 1262.21 1536.69 Q1266.28 1531.54 1272.74 1531.54 Q1276.69 1531.54 1279.49 1533.1 Q1282.32 1534.62 1284.17 1537.81 M1264.21 1550.25 Q1264.21 1556.71 1266.85 1560.4 Q1269.53 1564.07 1274.17 1564.07 Q1278.82 1564.07 1281.49 1560.4 Q1284.17 1556.71 1284.17 1550.25 Q1284.17 1543.79 1281.49 1540.13 Q1278.82 1536.44 1274.17 1536.44 Q1269.53 1536.44 1266.85 1540.13 Q1264.21 1543.79 1264.21 1550.25 Z" fill="#000000" fill-rule="nonzero" fill-opacity="1" /><path clip-path="url(#clip960)" d="M1323.06 1520.52 L1329.49 1520.52 L1329.49 1568.04 L1323.06 1568.04 L1323.06 1520.52 Z" fill="#000000" fill-rule="nonzero" fill-opacity="1" /><path clip-path="url(#clip960)" d="M1348.72 1525.81 L1348.72 1562.76 L1356.48 1562.76 Q1366.32 1562.76 1370.87 1558.3 Q1375.45 1553.85 1375.45 1544.24 Q1375.45 1534.69 1370.87 1530.26 Q1366.32 1525.81 1356.48 1525.81 L1348.72 1525.81 M1342.29 1520.52 L1355.5 1520.52 Q1369.31 1520.52 1375.77 1526.28 Q1382.23 1532.01 1382.23 1544.24 Q1382.23 1556.52 1375.74 1562.28 Q1369.25 1568.04 1355.5 1568.04 L1342.29 1568.04 L1342.29 1520.52 Z" fill="#000000" fill-rule="nonzero" fill-opacity="1" /><polyline clip-path="url(#clip960)" style="stroke:#000000; stroke-linecap:round; stroke-linejoin:round; stroke-width:4; stroke-opacity:1; fill:none" points="175.445,1423.18 175.445,123.472 "/>
<polyline clip-path="url(#clip960)" style="stroke:#000000; stroke-linecap:round; stroke-linejoin:round; stroke-width:4; stroke-opacity:1; fill:none" points="175.445,1423.18 194.343,1423.18 "/>
<polyline clip-path="url(#clip960)" style="stroke:#000000; stroke-linecap:round; stroke-linejoin:round; stroke-width:4; stroke-opacity:1; fill:none" points="175.445,1163.21 194.343,1163.21 "/>
<polyline clip-path="url(#clip960)" style="stroke:#000000; stroke-linecap:round; stroke-linejoin:round; stroke-width:4; stroke-opacity:1; fill:none" points="175.445,903.234 194.343,903.234 "/>
<polyline clip-path="url(#clip960)" style="stroke:#000000; stroke-linecap:round; stroke-linejoin:round; stroke-width:4; stroke-opacity:1; fill:none" points="175.445,643.261 194.343,643.261 "/>
<polyline clip-path="url(#clip960)" style="stroke:#000000; stroke-linecap:round; stroke-linejoin:round; stroke-width:4; stroke-opacity:1; fill:none" points="175.445,383.288 194.343,383.288 "/>
<path clip-path="url(#clip960)" d="M127.501 1408.98 Q123.89 1408.98 122.061 1412.54 Q120.255 1416.08 120.255 1423.21 Q120.255 1430.32 122.061 1433.89 Q123.89 1437.43 127.501 1437.43 Q131.135 1437.43 132.941 1433.89 Q134.769 1430.32 134.769 1423.21 Q134.769 1416.08 132.941 1412.54 Q131.135 1408.98 127.501 1408.98 M127.501 1405.27 Q133.311 1405.27 136.367 1409.88 Q139.445 1414.46 139.445 1423.21 Q139.445 1431.94 136.367 1436.55 Q133.311 1441.13 127.501 1441.13 Q121.691 1441.13 118.612 1436.55 Q115.556 1431.94 115.556 1423.21 Q115.556 1414.46 118.612 1409.88 Q121.691 1405.27 127.501 1405.27 Z" fill="#000000" fill-rule="nonzero" fill-opacity="1" /><path clip-path="url(#clip960)" d="M123.126 1176.55 L139.445 1176.55 L139.445 1180.49 L117.501 1180.49 L117.501 1176.55 Q120.163 1173.8 124.746 1169.17 Q129.353 1164.51 130.533 1163.17 Q132.779 1160.65 133.658 1158.91 Q134.561 1157.15 134.561 1155.46 Q134.561 1152.71 132.617 1150.97 Q130.695 1149.24 127.593 1149.24 Q125.394 1149.24 122.941 1150 Q120.51 1150.76 117.732 1152.32 L117.732 1147.59 Q120.556 1146.46 123.01 1145.88 Q125.464 1145.3 127.501 1145.3 Q132.871 1145.3 136.066 1147.99 Q139.26 1150.67 139.26 1155.16 Q139.26 1157.29 138.45 1159.21 Q137.663 1161.11 135.556 1163.7 Q134.978 1164.38 131.876 1167.59 Q128.774 1170.79 123.126 1176.55 Z" fill="#000000" fill-rule="nonzero" fill-opacity="1" /><path clip-path="url(#clip960)" d="M129.862 890.028 L118.056 908.477 L129.862 908.477 L129.862 890.028 M128.635 885.954 L134.515 885.954 L134.515 908.477 L139.445 908.477 L139.445 912.366 L134.515 912.366 L134.515 920.514 L129.862 920.514 L129.862 912.366 L114.26 912.366 L114.26 907.852 L128.635 885.954 Z" fill="#000000" fill-rule="nonzero" fill-opacity="1" /><path clip-path="url(#clip960)" d="M127.917 641.397 Q124.769 641.397 122.918 643.55 Q121.089 645.703 121.089 649.453 Q121.089 653.18 122.918 655.356 Q124.769 657.508 127.917 657.508 Q131.066 657.508 132.894 655.356 Q134.746 653.18 134.746 649.453 Q134.746 645.703 132.894 643.55 Q131.066 641.397 127.917 641.397 M137.2 626.745 L137.2 631.004 Q135.441 630.171 133.635 629.731 Q131.853 629.291 130.093 629.291 Q125.464 629.291 123.01 632.416 Q120.58 635.541 120.232 641.86 Q121.598 639.847 123.658 638.782 Q125.718 637.694 128.195 637.694 Q133.404 637.694 136.413 640.865 Q139.445 644.013 139.445 649.453 Q139.445 654.777 136.297 657.995 Q133.149 661.212 127.917 661.212 Q121.922 661.212 118.751 656.629 Q115.58 652.022 115.58 643.296 Q115.58 635.101 119.468 630.24 Q123.357 625.356 129.908 625.356 Q131.667 625.356 133.45 625.703 Q135.255 626.05 137.2 626.745 Z" fill="#000000" fill-rule="nonzero" fill-opacity="1" /><path clip-path="url(#clip960)" d="M127.593 384.156 Q124.26 384.156 122.339 385.938 Q120.441 387.721 120.441 390.846 Q120.441 393.971 122.339 395.753 Q124.26 397.535 127.593 397.535 Q130.927 397.535 132.848 395.753 Q134.769 393.948 134.769 390.846 Q134.769 387.721 132.848 385.938 Q130.95 384.156 127.593 384.156 M122.918 382.165 Q119.908 381.424 118.218 379.364 Q116.552 377.304 116.552 374.341 Q116.552 370.198 119.492 367.79 Q122.455 365.383 127.593 365.383 Q132.755 365.383 135.695 367.79 Q138.635 370.198 138.635 374.341 Q138.635 377.304 136.945 379.364 Q135.279 381.424 132.292 382.165 Q135.672 382.952 137.547 385.244 Q139.445 387.536 139.445 390.846 Q139.445 395.869 136.367 398.554 Q133.311 401.239 127.593 401.239 Q121.876 401.239 118.797 398.554 Q115.742 395.869 115.742 390.846 Q115.742 387.536 117.64 385.244 Q119.538 382.952 122.918 382.165 M121.205 374.781 Q121.205 377.466 122.871 378.971 Q124.561 380.475 127.593 380.475 Q130.603 380.475 132.292 378.971 Q134.005 377.466 134.005 374.781 Q134.005 372.096 132.292 370.591 Q130.603 369.087 127.593 369.087 Q124.561 369.087 122.871 370.591 Q121.205 372.096 121.205 374.781 Z" fill="#000000" fill-rule="nonzero" fill-opacity="1" /><path clip-path="url(#clip960)" d="M16.4842 1039.99 L16.4842 1012.68 L21.895 1012.68 L21.895 1033.56 L35.8996 1033.56 L35.8996 1014.71 L41.3104 1014.71 L41.3104 1033.56 L64.0042 1033.56 L64.0042 1039.99 L16.4842 1039.99 Z" fill="#000000" fill-rule="nonzero" fill-opacity="1" /><path clip-path="url(#clip960)" d="M46.0847 992.529 Q46.0847 999.627 47.7079 1002.36 Q49.3312 1005.1 53.2461 1005.1 Q56.3653 1005.1 58.2114 1003.06 Q60.0256 1001 60.0256 997.463 Q60.0256 992.593 56.5881 989.665 Q53.1188 986.704 47.3897 986.704 L46.0847 986.704 L46.0847 992.529 M43.6657 980.848 L64.0042 980.848 L64.0042 986.704 L58.5933 986.704 Q61.8398 988.71 63.3994 991.702 Q64.9272 994.693 64.9272 999.022 Q64.9272 1004.5 61.8716 1007.74 Q58.7843 1010.96 53.6281 1010.96 Q47.6125 1010.96 44.5569 1006.95 Q41.5014 1002.91 41.5014 994.916 L41.5014 986.704 L40.9285 986.704 Q36.8862 986.704 34.6901 989.378 Q32.4621 992.02 32.4621 996.826 Q32.4621 999.881 33.1941 1002.78 Q33.9262 1005.67 35.3903 1008.35 L29.9795 1008.35 Q28.7381 1005.13 28.1334 1002.11 Q27.4968 999.086 27.4968 996.221 Q27.4968 988.487 31.5072 984.667 Q35.5176 980.848 43.6657 980.848 Z" fill="#000000" fill-rule="nonzero" fill-opacity="1" /><path clip-path="url(#clip960)" d="M28.3562 968.785 L28.3562 962.929 L64.0042 962.929 L64.0042 968.785 L28.3562 968.785 M14.479 968.785 L14.479 962.929 L21.895 962.929 L21.895 968.785 L14.479 968.785 Z" fill="#000000" fill-rule="nonzero" fill-opacity="1" /><path clip-path="url(#clip960)" d="M33.8307 930.018 Q33.2578 931.005 33.0032 932.182 Q32.7167 933.328 32.7167 934.728 Q32.7167 939.694 35.9632 942.367 Q39.1779 945.009 45.2253 945.009 L64.0042 945.009 L64.0042 950.897 L28.3562 950.897 L28.3562 945.009 L33.8944 945.009 Q30.6479 943.163 29.0883 940.203 Q27.4968 937.243 27.4968 933.01 Q27.4968 932.405 27.5923 931.673 Q27.656 930.941 27.8151 930.05 L33.8307 930.018 Z" fill="#000000" fill-rule="nonzero" fill-opacity="1" /><path clip-path="url(#clip960)" d="M16.4842 902.9 L16.4842 896.471 L58.5933 896.471 L58.5933 873.331 L64.0042 873.331 L64.0042 902.9 L16.4842 902.9 Z" fill="#000000" fill-rule="nonzero" fill-opacity="1" /><path clip-path="url(#clip960)" d="M32.4621 854.17 Q32.4621 858.881 36.1542 861.618 Q39.8145 864.356 46.212 864.356 Q52.6095 864.356 56.3017 861.65 Q59.9619 858.913 59.9619 854.17 Q59.9619 849.492 56.2698 846.754 Q52.5777 844.017 46.212 844.017 Q39.8781 844.017 36.186 846.754 Q32.4621 849.492 32.4621 854.17 M27.4968 854.17 Q27.4968 846.532 32.4621 842.171 Q37.4273 837.811 46.212 837.811 Q54.9649 837.811 59.9619 842.171 Q64.9272 846.532 64.9272 854.17 Q64.9272 861.841 59.9619 866.202 Q54.9649 870.53 46.212 870.53 Q37.4273 870.53 32.4621 866.202 Q27.4968 861.841 27.4968 854.17 Z" fill="#000000" fill-rule="nonzero" fill-opacity="1" /><path clip-path="url(#clip960)" d="M46.0847 811.902 Q46.0847 819 47.7079 821.737 Q49.3312 824.474 53.2461 824.474 Q56.3653 824.474 58.2114 822.437 Q60.0256 820.369 60.0256 816.836 Q60.0256 811.966 56.5881 809.038 Q53.1188 806.078 47.3897 806.078 L46.0847 806.078 L46.0847 811.902 M43.6657 800.221 L64.0042 800.221 L64.0042 806.078 L58.5933 806.078 Q61.8398 808.083 63.3994 811.075 Q64.9272 814.067 64.9272 818.395 Q64.9272 823.87 61.8716 827.116 Q58.7843 830.331 53.6281 830.331 Q47.6125 830.331 44.5569 826.32 Q41.5014 822.278 41.5014 814.289 L41.5014 806.078 L40.9285 806.078 Q36.8862 806.078 34.6901 808.751 Q32.4621 811.393 32.4621 816.199 Q32.4621 819.255 33.1941 822.151 Q33.9262 825.047 35.3903 827.721 L29.9795 827.721 Q28.7381 824.506 28.1334 821.483 Q27.4968 818.459 27.4968 815.594 Q27.4968 807.86 31.5072 804.041 Q35.5176 800.221 43.6657 800.221 Z" fill="#000000" fill-rule="nonzero" fill-opacity="1" /><path clip-path="url(#clip960)" d="M33.7671 764.7 L14.479 764.7 L14.479 758.844 L64.0042 758.844 L64.0042 764.7 L58.657 764.7 Q61.8398 766.547 63.3994 769.379 Q64.9272 772.18 64.9272 776.127 Q64.9272 782.588 59.771 786.662 Q54.6147 790.704 46.212 790.704 Q37.8093 790.704 32.6531 786.662 Q27.4968 782.588 27.4968 776.127 Q27.4968 772.18 29.0564 769.379 Q30.5842 766.547 33.7671 764.7 M46.212 784.657 Q52.6732 784.657 56.3653 782.015 Q60.0256 779.342 60.0256 774.695 Q60.0256 770.048 56.3653 767.374 Q52.6732 764.7 46.212 764.7 Q39.7508 764.7 36.0905 767.374 Q32.3984 770.048 32.3984 774.695 Q32.3984 779.342 36.0905 782.015 Q39.7508 784.657 46.212 784.657 Z" fill="#000000" fill-rule="nonzero" fill-opacity="1" /><path clip-path="url(#clip960)" d="M16.4842 730.039 L16.4842 723.546 L56.6518 713.552 L16.4842 703.59 L16.4842 696.365 L56.6518 686.37 L16.4842 676.408 L16.4842 669.883 L64.0042 681.819 L64.0042 689.903 L22.7544 699.929 L64.0042 710.051 L64.0042 718.135 L16.4842 730.039 Z" fill="#000000" fill-rule="nonzero" fill-opacity="1" /><path clip-path="url(#clip960)" d="M44.7161 634.936 L47.5806 634.936 L47.5806 661.862 Q53.6281 661.481 56.8109 658.234 Q59.9619 654.956 59.9619 649.131 Q59.9619 645.757 59.1344 642.606 Q58.3069 639.423 56.6518 636.304 L62.1899 636.304 Q63.5267 639.455 64.227 642.765 Q64.9272 646.076 64.9272 649.481 Q64.9272 658.011 59.9619 663.008 Q54.9967 667.974 46.5303 667.974 Q37.7774 667.974 32.6531 663.263 Q27.4968 658.52 27.4968 650.5 Q27.4968 643.306 32.1438 639.137 Q36.7589 634.936 44.7161 634.936 M42.9973 640.792 Q38.1912 640.856 35.3266 643.497 Q32.4621 646.107 32.4621 650.436 Q32.4621 655.338 35.2312 658.298 Q38.0002 661.226 43.0292 661.671 L42.9973 640.792 Z" fill="#000000" fill-rule="nonzero" fill-opacity="1" /><path clip-path="url(#clip960)" d="M28.3562 625.323 L28.3562 619.467 L64.0042 619.467 L64.0042 625.323 L28.3562 625.323 M14.479 625.323 L14.479 619.467 L21.895 619.467 L21.895 625.323 L14.479 625.323 Z" fill="#000000" fill-rule="nonzero" fill-opacity="1" /><path clip-path="url(#clip960)" d="M45.7664 583.755 Q39.4007 583.755 35.8996 586.397 Q32.3984 589.007 32.3984 593.749 Q32.3984 598.46 35.8996 601.102 Q39.4007 603.712 45.7664 603.712 Q52.1003 603.712 55.6014 601.102 Q59.1026 598.46 59.1026 593.749 Q59.1026 589.007 55.6014 586.397 Q52.1003 583.755 45.7664 583.755 M59.58 577.899 Q68.683 577.899 73.1071 581.941 Q77.5631 585.983 77.5631 594.322 Q77.5631 597.41 77.0857 600.147 Q76.6401 602.884 75.6852 605.462 L69.9879 605.462 Q71.3884 602.884 72.0568 600.37 Q72.7252 597.855 72.7252 595.245 Q72.7252 589.484 69.7015 586.62 Q66.7096 583.755 60.6303 583.755 L57.7339 583.755 Q60.885 585.569 62.4446 588.402 Q64.0042 591.235 64.0042 595.182 Q64.0042 601.738 59.0071 605.749 Q54.01 609.759 45.7664 609.759 Q37.491 609.759 32.4939 605.749 Q27.4968 601.738 27.4968 595.182 Q27.4968 591.235 29.0564 588.402 Q30.616 585.569 33.7671 583.755 L28.3562 583.755 L28.3562 577.899 L59.58 577.899 Z" fill="#000000" fill-rule="nonzero" fill-opacity="1" /><path clip-path="url(#clip960)" d="M42.4881 536.203 L64.0042 536.203 L64.0042 542.06 L42.679 542.06 Q37.6183 542.06 35.1038 544.033 Q32.5894 546.007 32.5894 549.953 Q32.5894 554.696 35.6131 557.433 Q38.6368 560.17 43.8567 560.17 L64.0042 560.17 L64.0042 566.059 L14.479 566.059 L14.479 560.17 L33.8944 560.17 Q30.6797 558.07 29.0883 555.237 Q27.4968 552.372 27.4968 548.648 Q27.4968 542.505 31.3163 539.354 Q35.1038 536.203 42.4881 536.203 Z" fill="#000000" fill-rule="nonzero" fill-opacity="1" /><path clip-path="url(#clip960)" d="M18.2347 518.73 L28.3562 518.73 L28.3562 506.667 L32.9077 506.667 L32.9077 518.73 L52.2594 518.73 Q56.6199 518.73 57.8613 517.552 Q59.1026 516.342 59.1026 512.682 L59.1026 506.667 L64.0042 506.667 L64.0042 512.682 Q64.0042 519.462 61.4897 522.04 Q58.9434 524.618 52.2594 524.618 L32.9077 524.618 L32.9077 528.915 L28.3562 528.915 L28.3562 524.618 L18.2347 524.618 L18.2347 518.73 Z" fill="#000000" fill-rule="nonzero" fill-opacity="1" /><path clip-path="url(#clip960)" d="M454.284 12.096 L489.041 12.096 L489.041 18.9825 L462.467 18.9825 L462.467 36.8065 L486.448 36.8065 L486.448 43.6931 L462.467 43.6931 L462.467 72.576 L454.284 72.576 L454.284 12.096 Z" fill="#000000" fill-rule="nonzero" fill-opacity="1" /><path clip-path="url(#clip960)" d="M514.683 49.7694 Q505.65 49.7694 502.166 51.8354 Q498.682 53.9013 498.682 58.8839 Q498.682 62.8538 501.275 65.2034 Q503.908 67.5124 508.404 67.5124 Q514.602 67.5124 518.329 63.1374 Q522.096 58.7219 522.096 51.4303 L522.096 49.7694 L514.683 49.7694 M529.55 46.6907 L529.55 72.576 L522.096 72.576 L522.096 65.6895 Q519.544 69.8214 515.737 71.8063 Q511.929 73.7508 506.419 73.7508 Q499.452 73.7508 495.32 69.8619 Q491.229 65.9325 491.229 59.3701 Q491.229 51.7138 496.333 47.825 Q501.477 43.9361 511.645 43.9361 L522.096 43.9361 L522.096 43.2069 Q522.096 38.0623 518.694 35.2672 Q515.331 32.4315 509.215 32.4315 Q505.326 32.4315 501.639 33.3632 Q497.953 34.295 494.55 36.1584 L494.55 29.2718 Q498.642 27.692 502.49 26.9223 Q506.338 26.1121 509.984 26.1121 Q519.828 26.1121 524.689 31.2163 Q529.55 36.3204 529.55 46.6907 Z" fill="#000000" fill-rule="nonzero" fill-opacity="1" /><path clip-path="url(#clip960)" d="M544.903 27.2059 L552.357 27.2059 L552.357 72.576 L544.903 72.576 L544.903 27.2059 M544.903 9.54393 L552.357 9.54393 L552.357 18.9825 L544.903 18.9825 L544.903 9.54393 Z" fill="#000000" fill-rule="nonzero" fill-opacity="1" /><path clip-path="url(#clip960)" d="M594.243 34.1734 Q592.987 33.4443 591.488 33.1202 Q590.03 32.7556 588.248 32.7556 Q581.928 32.7556 578.526 36.8875 Q575.163 40.9789 575.163 48.6757 L575.163 72.576 L567.669 72.576 L567.669 27.2059 L575.163 27.2059 L575.163 34.2544 Q577.513 30.1225 581.28 28.1376 Q585.047 26.1121 590.435 26.1121 Q591.205 26.1121 592.137 26.2337 Q593.068 26.3147 594.203 26.5172 L594.243 34.1734 Z" fill="#000000" fill-rule="nonzero" fill-opacity="1" /><path clip-path="url(#clip960)" d="M628.757 12.096 L636.94 12.096 L636.94 65.6895 L666.39 65.6895 L666.39 72.576 L628.757 72.576 L628.757 12.096 Z" fill="#000000" fill-rule="nonzero" fill-opacity="1" /><path clip-path="url(#clip960)" d="M690.776 32.4315 Q684.781 32.4315 681.297 37.1306 Q677.813 41.7891 677.813 49.9314 Q677.813 58.0738 681.256 62.7728 Q684.74 67.4314 690.776 67.4314 Q696.731 67.4314 700.215 62.7323 Q703.698 58.0333 703.698 49.9314 Q703.698 41.8701 700.215 37.1711 Q696.731 32.4315 690.776 32.4315 M690.776 26.1121 Q700.498 26.1121 706.048 32.4315 Q711.598 38.7509 711.598 49.9314 Q711.598 61.0714 706.048 67.4314 Q700.498 73.7508 690.776 73.7508 Q681.013 73.7508 675.464 67.4314 Q669.954 61.0714 669.954 49.9314 Q669.954 38.7509 675.464 32.4315 Q681.013 26.1121 690.776 26.1121 Z" fill="#000000" fill-rule="nonzero" fill-opacity="1" /><path clip-path="url(#clip960)" d="M744.572 49.7694 Q735.539 49.7694 732.055 51.8354 Q728.571 53.9013 728.571 58.8839 Q728.571 62.8538 731.164 65.2034 Q733.797 67.5124 738.293 67.5124 Q744.491 67.5124 748.218 63.1374 Q751.985 58.7219 751.985 51.4303 L751.985 49.7694 L744.572 49.7694 M759.439 46.6907 L759.439 72.576 L751.985 72.576 L751.985 65.6895 Q749.433 69.8214 745.625 71.8063 Q741.817 73.7508 736.308 73.7508 Q729.341 73.7508 725.209 69.8619 Q721.117 65.9325 721.117 59.3701 Q721.117 51.7138 726.221 47.825 Q731.366 43.9361 741.534 43.9361 L751.985 43.9361 L751.985 43.2069 Q751.985 38.0623 748.582 35.2672 Q745.22 32.4315 739.103 32.4315 Q735.215 32.4315 731.528 33.3632 Q727.842 34.295 724.439 36.1584 L724.439 29.2718 Q728.531 27.692 732.379 26.9223 Q736.227 26.1121 739.873 26.1121 Q749.717 26.1121 754.578 31.2163 Q759.439 36.3204 759.439 46.6907 Z" fill="#000000" fill-rule="nonzero" fill-opacity="1" /><path clip-path="url(#clip960)" d="M804.647 34.0924 L804.647 9.54393 L812.101 9.54393 L812.101 72.576 L804.647 72.576 L804.647 65.7705 Q802.297 69.8214 798.692 71.8063 Q795.127 73.7508 790.104 73.7508 Q781.881 73.7508 776.696 67.1883 Q771.551 60.6258 771.551 49.9314 Q771.551 39.2371 776.696 32.6746 Q781.881 26.1121 790.104 26.1121 Q795.127 26.1121 798.692 28.0971 Q802.297 30.0415 804.647 34.0924 M779.248 49.9314 Q779.248 58.1548 782.61 62.8538 Q786.013 67.5124 791.927 67.5124 Q797.841 67.5124 801.244 62.8538 Q804.647 58.1548 804.647 49.9314 Q804.647 41.7081 801.244 37.0496 Q797.841 32.3505 791.927 32.3505 Q786.013 32.3505 782.61 37.0496 Q779.248 41.7081 779.248 49.9314 Z" fill="#000000" fill-rule="nonzero" fill-opacity="1" /><path clip-path="url(#clip960)" d="M848.761 12.096 L857.025 12.096 L869.745 63.2184 L882.424 12.096 L891.62 12.096 L904.34 63.2184 L917.019 12.096 L925.323 12.096 L910.133 72.576 L899.843 72.576 L887.083 20.0763 L874.201 72.576 L863.912 72.576 L848.761 12.096 Z" fill="#000000" fill-rule="nonzero" fill-opacity="1" /><path clip-path="url(#clip960)" d="M969.802 48.0275 L969.802 51.6733 L935.532 51.6733 Q936.018 59.3701 940.15 63.421 Q944.322 67.4314 951.735 67.4314 Q956.029 67.4314 960.04 66.3781 Q964.091 65.3249 968.06 63.2184 L968.06 70.267 Q964.05 71.9684 959.837 72.8596 Q955.624 73.7508 951.29 73.7508 Q940.433 73.7508 934.073 67.4314 Q927.754 61.1119 927.754 50.3365 Q927.754 39.1965 933.749 32.6746 Q939.785 26.1121 949.993 26.1121 Q959.148 26.1121 964.455 32.0264 Q969.802 37.9003 969.802 48.0275 M962.349 45.84 Q962.268 39.7232 958.905 36.0774 Q955.584 32.4315 950.074 32.4315 Q943.836 32.4315 940.069 35.9558 Q936.342 39.4801 935.775 45.8805 L962.349 45.84 Z" fill="#000000" fill-rule="nonzero" fill-opacity="1" /><path clip-path="url(#clip960)" d="M982.036 27.2059 L989.49 27.2059 L989.49 72.576 L982.036 72.576 L982.036 27.2059 M982.036 9.54393 L989.49 9.54393 L989.49 18.9825 L982.036 18.9825 L982.036 9.54393 Z" fill="#000000" fill-rule="nonzero" fill-opacity="1" /><path clip-path="url(#clip960)" d="M1034.94 49.3643 Q1034.94 41.2625 1031.58 36.8065 Q1028.26 32.3505 1022.22 32.3505 Q1016.23 32.3505 1012.86 36.8065 Q1009.54 41.2625 1009.54 49.3643 Q1009.54 57.4256 1012.86 61.8816 Q1016.23 66.3376 1022.22 66.3376 Q1028.26 66.3376 1031.58 61.8816 Q1034.94 57.4256 1034.94 49.3643 M1042.39 66.9452 Q1042.39 78.5308 1037.25 84.1616 Q1032.11 89.8329 1021.49 89.8329 Q1017.56 89.8329 1014.08 89.2252 Q1010.59 88.6581 1007.31 87.4428 L1007.31 80.1917 Q1010.59 81.9741 1013.8 82.8248 Q1017 83.6755 1020.32 83.6755 Q1027.65 83.6755 1031.3 79.8271 Q1034.94 76.0193 1034.94 68.282 L1034.94 64.5957 Q1032.63 68.6061 1029.03 70.5911 Q1025.42 72.576 1020.4 72.576 Q1012.05 72.576 1006.95 66.2161 Q1001.85 59.8562 1001.85 49.3643 Q1001.85 38.832 1006.95 32.472 Q1012.05 26.1121 1020.4 26.1121 Q1025.42 26.1121 1029.03 28.0971 Q1032.63 30.082 1034.94 34.0924 L1034.94 27.2059 L1042.39 27.2059 L1042.39 66.9452 Z" fill="#000000" fill-rule="nonzero" fill-opacity="1" /><path clip-path="url(#clip960)" d="M1095.46 45.1919 L1095.46 72.576 L1088.01 72.576 L1088.01 45.4349 Q1088.01 38.994 1085.5 35.7938 Q1082.98 32.5936 1077.96 32.5936 Q1071.93 32.5936 1068.44 36.4419 Q1064.96 40.2903 1064.96 46.9338 L1064.96 72.576 L1057.46 72.576 L1057.46 9.54393 L1064.96 9.54393 L1064.96 34.2544 Q1067.63 30.163 1071.24 28.1376 Q1074.88 26.1121 1079.62 26.1121 Q1087.44 26.1121 1091.45 30.9732 Q1095.46 35.7938 1095.46 45.1919 Z" fill="#000000" fill-rule="nonzero" fill-opacity="1" /><path clip-path="url(#clip960)" d="M1117.7 14.324 L1117.7 27.2059 L1133.05 27.2059 L1133.05 32.9987 L1117.7 32.9987 L1117.7 57.6282 Q1117.7 63.1779 1119.2 64.7578 Q1120.74 66.3376 1125.4 66.3376 L1133.05 66.3376 L1133.05 72.576 L1125.4 72.576 Q1116.77 72.576 1113.49 69.3758 Q1110.21 66.1351 1110.21 57.6282 L1110.21 32.9987 L1104.74 32.9987 L1104.74 27.2059 L1110.21 27.2059 L1110.21 14.324 L1117.7 14.324 Z" fill="#000000" fill-rule="nonzero" fill-opacity="1" /><path clip-path="url(#clip960)" d="M1171.78 28.5427 L1171.78 35.5912 Q1168.62 33.9709 1165.22 33.1607 Q1161.82 32.3505 1158.17 32.3505 Q1152.62 32.3505 1149.82 34.0519 Q1147.07 35.7533 1147.07 39.156 Q1147.07 41.7486 1149.05 43.2475 Q1151.04 44.7058 1157.04 46.0426 L1159.59 46.6097 Q1167.53 48.3111 1170.85 51.4303 Q1174.21 54.509 1174.21 60.0587 Q1174.21 66.3781 1169.19 70.0644 Q1164.21 73.7508 1155.46 73.7508 Q1151.81 73.7508 1147.84 73.0216 Q1143.91 72.3329 1139.54 70.9151 L1139.54 63.2184 Q1143.67 65.3654 1147.68 66.4591 Q1151.69 67.5124 1155.62 67.5124 Q1160.88 67.5124 1163.72 65.73 Q1166.55 63.9071 1166.55 60.6258 Q1166.55 57.5877 1164.49 55.9673 Q1162.46 54.3469 1155.54 52.8481 L1152.94 52.2405 Q1146.02 50.7821 1142.94 47.7845 Q1139.86 44.7463 1139.86 39.4801 Q1139.86 33.0797 1144.4 29.5959 Q1148.93 26.1121 1157.28 26.1121 Q1161.41 26.1121 1165.06 26.7198 Q1168.7 27.3274 1171.78 28.5427 Z" fill="#000000" fill-rule="nonzero" fill-opacity="1" /><path clip-path="url(#clip960)" d="M1219.66 65.7705 L1219.66 89.8329 L1212.17 89.8329 L1212.17 27.2059 L1219.66 27.2059 L1219.66 34.0924 Q1222.01 30.0415 1225.58 28.0971 Q1229.18 26.1121 1234.16 26.1121 Q1242.43 26.1121 1247.57 32.6746 Q1252.76 39.2371 1252.76 49.9314 Q1252.76 60.6258 1247.57 67.1883 Q1242.43 73.7508 1234.16 73.7508 Q1229.18 73.7508 1225.58 71.8063 Q1222.01 69.8214 1219.66 65.7705 M1245.02 49.9314 Q1245.02 41.7081 1241.62 37.0496 Q1238.26 32.3505 1232.34 32.3505 Q1226.43 32.3505 1223.02 37.0496 Q1219.66 41.7081 1219.66 49.9314 Q1219.66 58.1548 1223.02 62.8538 Q1226.43 67.5124 1232.34 67.5124 Q1238.26 67.5124 1241.62 62.8538 Q1245.02 58.1548 1245.02 49.9314 Z" fill="#000000" fill-rule="nonzero" fill-opacity="1" /><path clip-path="url(#clip960)" d="M1303.92 48.0275 L1303.92 51.6733 L1269.65 51.6733 Q1270.14 59.3701 1274.27 63.421 Q1278.44 67.4314 1285.85 67.4314 Q1290.15 67.4314 1294.16 66.3781 Q1298.21 65.3249 1302.18 63.2184 L1302.18 70.267 Q1298.17 71.9684 1293.96 72.8596 Q1289.74 73.7508 1285.41 73.7508 Q1274.55 73.7508 1268.19 67.4314 Q1261.87 61.1119 1261.87 50.3365 Q1261.87 39.1965 1267.87 32.6746 Q1273.9 26.1121 1284.11 26.1121 Q1293.27 26.1121 1298.57 32.0264 Q1303.92 37.9003 1303.92 48.0275 M1296.47 45.84 Q1296.39 39.7232 1293.02 36.0774 Q1289.7 32.4315 1284.19 32.4315 Q1277.95 32.4315 1274.19 35.9558 Q1270.46 39.4801 1269.89 45.8805 L1296.47 45.84 Z" fill="#000000" fill-rule="nonzero" fill-opacity="1" /><path clip-path="url(#clip960)" d="M1342.45 34.1734 Q1341.19 33.4443 1339.69 33.1202 Q1338.23 32.7556 1336.45 32.7556 Q1330.13 32.7556 1326.73 36.8875 Q1323.37 40.9789 1323.37 48.6757 L1323.37 72.576 L1315.87 72.576 L1315.87 27.2059 L1323.37 27.2059 L1323.37 34.2544 Q1325.71 30.1225 1329.48 28.1376 Q1333.25 26.1121 1338.64 26.1121 Q1339.41 26.1121 1340.34 26.2337 Q1341.27 26.3147 1342.4 26.5172 L1342.45 34.1734 Z" fill="#000000" fill-rule="nonzero" fill-opacity="1" /><path clip-path="url(#clip960)" d="M1376.96 12.096 L1385.14 12.096 L1385.14 65.6895 L1414.59 65.6895 L1414.59 72.576 L1376.96 72.576 L1376.96 12.096 Z" fill="#000000" fill-rule="nonzero" fill-opacity="1" /><path clip-path="url(#clip960)" d="M1438.98 32.4315 Q1432.98 32.4315 1429.5 37.1306 Q1426.02 41.7891 1426.02 49.9314 Q1426.02 58.0738 1429.46 62.7728 Q1432.94 67.4314 1438.98 67.4314 Q1444.93 67.4314 1448.42 62.7323 Q1451.9 58.0333 1451.9 49.9314 Q1451.9 41.8701 1448.42 37.1711 Q1444.93 32.4315 1438.98 32.4315 M1438.98 26.1121 Q1448.7 26.1121 1454.25 32.4315 Q1459.8 38.7509 1459.8 49.9314 Q1459.8 61.0714 1454.25 67.4314 Q1448.7 73.7508 1438.98 73.7508 Q1429.22 73.7508 1423.67 67.4314 Q1418.16 61.0714 1418.16 49.9314 Q1418.16 38.7509 1423.67 32.4315 Q1429.22 26.1121 1438.98 26.1121 Z" fill="#000000" fill-rule="nonzero" fill-opacity="1" /><path clip-path="url(#clip960)" d="M1492.77 49.7694 Q1483.74 49.7694 1480.26 51.8354 Q1476.77 53.9013 1476.77 58.8839 Q1476.77 62.8538 1479.37 65.2034 Q1482 67.5124 1486.5 67.5124 Q1492.69 67.5124 1496.42 63.1374 Q1500.19 58.7219 1500.19 51.4303 L1500.19 49.7694 L1492.77 49.7694 M1507.64 46.6907 L1507.64 72.576 L1500.19 72.576 L1500.19 65.6895 Q1497.64 69.8214 1493.83 71.8063 Q1490.02 73.7508 1484.51 73.7508 Q1477.54 73.7508 1473.41 69.8619 Q1469.32 65.9325 1469.32 59.3701 Q1469.32 51.7138 1474.42 47.825 Q1479.57 43.9361 1489.74 43.9361 L1500.19 43.9361 L1500.19 43.2069 Q1500.19 38.0623 1496.78 35.2672 Q1493.42 32.4315 1487.31 32.4315 Q1483.42 32.4315 1479.73 33.3632 Q1476.04 34.295 1472.64 36.1584 L1472.64 29.2718 Q1476.73 27.692 1480.58 26.9223 Q1484.43 26.1121 1488.08 26.1121 Q1497.92 26.1121 1502.78 31.2163 Q1507.64 36.3204 1507.64 46.6907 Z" fill="#000000" fill-rule="nonzero" fill-opacity="1" /><path clip-path="url(#clip960)" d="M1552.85 34.0924 L1552.85 9.54393 L1560.3 9.54393 L1560.3 72.576 L1552.85 72.576 L1552.85 65.7705 Q1550.5 69.8214 1546.89 71.8063 Q1543.33 73.7508 1538.31 73.7508 Q1530.08 73.7508 1524.9 67.1883 Q1519.75 60.6258 1519.75 49.9314 Q1519.75 39.2371 1524.9 32.6746 Q1530.08 26.1121 1538.31 26.1121 Q1543.33 26.1121 1546.89 28.0971 Q1550.5 30.0415 1552.85 34.0924 M1527.45 49.9314 Q1527.45 58.1548 1530.81 62.8538 Q1534.21 67.5124 1540.13 67.5124 Q1546.04 67.5124 1549.45 62.8538 Q1552.85 58.1548 1552.85 49.9314 Q1552.85 41.7081 1549.45 37.0496 Q1546.04 32.3505 1540.13 32.3505 Q1534.21 32.3505 1530.81 37.0496 Q1527.45 41.7081 1527.45 49.9314 Z" fill="#000000" fill-rule="nonzero" fill-opacity="1" /><path clip-path="url(#clip960)" d="M1598.26 46.5287 L1620.09 46.5287 L1620.09 53.1722 L1598.26 53.1722 L1598.26 46.5287 Z" fill="#000000" fill-rule="nonzero" fill-opacity="1" /><path clip-path="url(#clip960)" d="M1658.66 12.096 L1666.84 12.096 L1666.84 72.576 L1658.66 72.576 L1658.66 12.096 Z" fill="#000000" fill-rule="nonzero" fill-opacity="1" /><path clip-path="url(#clip960)" d="M1690.17 14.324 L1690.17 27.2059 L1705.53 27.2059 L1705.53 32.9987 L1690.17 32.9987 L1690.17 57.6282 Q1690.17 63.1779 1691.67 64.7578 Q1693.21 66.3376 1697.87 66.3376 L1705.53 66.3376 L1705.53 72.576 L1697.87 72.576 Q1689.24 72.576 1685.96 69.3758 Q1682.68 66.1351 1682.68 57.6282 L1682.68 32.9987 L1677.21 32.9987 L1677.21 27.2059 L1682.68 27.2059 L1682.68 14.324 L1690.17 14.324 Z" fill="#000000" fill-rule="nonzero" fill-opacity="1" /><path clip-path="url(#clip960)" d="M1754.14 48.0275 L1754.14 51.6733 L1719.87 51.6733 Q1720.35 59.3701 1724.49 63.421 Q1728.66 67.4314 1736.07 67.4314 Q1740.37 67.4314 1744.38 66.3781 Q1748.43 65.3249 1752.4 63.2184 L1752.4 70.267 Q1748.39 71.9684 1744.17 72.8596 Q1739.96 73.7508 1735.63 73.7508 Q1724.77 73.7508 1718.41 67.4314 Q1712.09 61.1119 1712.09 50.3365 Q1712.09 39.1965 1718.09 32.6746 Q1724.12 26.1121 1734.33 26.1121 Q1743.48 26.1121 1748.79 32.0264 Q1754.14 37.9003 1754.14 48.0275 M1746.68 45.84 Q1746.6 39.7232 1743.24 36.0774 Q1739.92 32.4315 1734.41 32.4315 Q1728.17 32.4315 1724.4 35.9558 Q1720.68 39.4801 1720.11 45.8805 L1746.68 45.84 Z" fill="#000000" fill-rule="nonzero" fill-opacity="1" /><path clip-path="url(#clip960)" d="M1792.66 34.1734 Q1791.41 33.4443 1789.91 33.1202 Q1788.45 32.7556 1786.67 32.7556 Q1780.35 32.7556 1776.95 36.8875 Q1773.58 40.9789 1773.58 48.6757 L1773.58 72.576 L1766.09 72.576 L1766.09 27.2059 L1773.58 27.2059 L1773.58 34.2544 Q1775.93 30.1225 1779.7 28.1376 Q1783.47 26.1121 1788.85 26.1121 Q1789.62 26.1121 1790.56 26.2337 Q1791.49 26.3147 1792.62 26.5172 L1792.66 34.1734 Z" fill="#000000" fill-rule="nonzero" fill-opacity="1" /><path clip-path="url(#clip960)" d="M1821.1 49.7694 Q1812.07 49.7694 1808.58 51.8354 Q1805.1 53.9013 1805.1 58.8839 Q1805.1 62.8538 1807.69 65.2034 Q1810.32 67.5124 1814.82 67.5124 Q1821.02 67.5124 1824.75 63.1374 Q1828.51 58.7219 1828.51 51.4303 L1828.51 49.7694 L1821.1 49.7694 M1835.97 46.6907 L1835.97 72.576 L1828.51 72.576 L1828.51 65.6895 Q1825.96 69.8214 1822.15 71.8063 Q1818.35 73.7508 1812.84 73.7508 Q1805.87 73.7508 1801.74 69.8619 Q1797.65 65.9325 1797.65 59.3701 Q1797.65 51.7138 1802.75 47.825 Q1807.89 43.9361 1818.06 43.9361 L1828.51 43.9361 L1828.51 43.2069 Q1828.51 38.0623 1825.11 35.2672 Q1821.75 32.4315 1815.63 32.4315 Q1811.74 32.4315 1808.06 33.3632 Q1804.37 34.295 1800.97 36.1584 L1800.97 29.2718 Q1805.06 27.692 1808.91 26.9223 Q1812.76 26.1121 1816.4 26.1121 Q1826.24 26.1121 1831.11 31.2163 Q1835.97 36.3204 1835.97 46.6907 Z" fill="#000000" fill-rule="nonzero" fill-opacity="1" /><path clip-path="url(#clip960)" d="M1858.69 14.324 L1858.69 27.2059 L1874.05 27.2059 L1874.05 32.9987 L1858.69 32.9987 L1858.69 57.6282 Q1858.69 63.1779 1860.19 64.7578 Q1861.73 66.3376 1866.39 66.3376 L1874.05 66.3376 L1874.05 72.576 L1866.39 72.576 Q1857.76 72.576 1854.48 69.3758 Q1851.2 66.1351 1851.2 57.6282 L1851.2 32.9987 L1845.73 32.9987 L1845.73 27.2059 L1851.2 27.2059 L1851.2 14.324 L1858.69 14.324 Z" fill="#000000" fill-rule="nonzero" fill-opacity="1" /><path clip-path="url(#clip960)" d="M1883.85 27.2059 L1891.3 27.2059 L1891.3 72.576 L1883.85 72.576 L1883.85 27.2059 M1883.85 9.54393 L1891.3 9.54393 L1891.3 18.9825 L1883.85 18.9825 L1883.85 9.54393 Z" fill="#000000" fill-rule="nonzero" fill-opacity="1" /><path clip-path="url(#clip960)" d="M1924.48 32.4315 Q1918.48 32.4315 1915 37.1306 Q1911.52 41.7891 1911.52 49.9314 Q1911.52 58.0738 1914.96 62.7728 Q1918.44 67.4314 1924.48 67.4314 Q1930.43 67.4314 1933.92 62.7323 Q1937.4 58.0333 1937.4 49.9314 Q1937.4 41.8701 1933.92 37.1711 Q1930.43 32.4315 1924.48 32.4315 M1924.48 26.1121 Q1934.2 26.1121 1939.75 32.4315 Q1945.3 38.7509 1945.3 49.9314 Q1945.3 61.0714 1939.75 67.4314 Q1934.2 73.7508 1924.48 73.7508 Q1914.72 73.7508 1909.17 67.4314 Q1903.66 61.0714 1903.66 49.9314 Q1903.66 38.7509 1909.17 32.4315 Q1914.72 26.1121 1924.48 26.1121 Z" fill="#000000" fill-rule="nonzero" fill-opacity="1" /><path clip-path="url(#clip960)" d="M1995.37 45.1919 L1995.37 72.576 L1987.92 72.576 L1987.92 45.4349 Q1987.92 38.994 1985.4 35.7938 Q1982.89 32.5936 1977.87 32.5936 Q1971.83 32.5936 1968.35 36.4419 Q1964.87 40.2903 1964.87 46.9338 L1964.87 72.576 L1957.37 72.576 L1957.37 27.2059 L1964.87 27.2059 L1964.87 34.2544 Q1967.54 30.163 1971.15 28.1376 Q1974.79 26.1121 1979.53 26.1121 Q1987.35 26.1121 1991.36 30.9732 Q1995.37 35.7938 1995.37 45.1919 Z" fill="#000000" fill-rule="nonzero" fill-opacity="1" /><path clip-path="url(#clip960)" d="M2039.08 65.6895 L2052.45 65.6895 L2052.45 19.5497 L2037.9 22.4663 L2037.9 15.0127 L2052.37 12.096 L2060.55 12.096 L2060.55 65.6895 L2073.92 65.6895 L2073.92 72.576 L2039.08 72.576 L2039.08 65.6895 Z" fill="#000000" fill-rule="nonzero" fill-opacity="1" /><path clip-path="url(#clip962)" d="M818.931 124.451 L818.931 1423.18 L923.676 1423.18 L923.676 124.451 L818.931 124.451 L818.931 124.451  Z" fill="#009af9" fill-rule="evenodd" fill-opacity="1"/>
<polyline clip-path="url(#clip962)" style="stroke:#000000; stroke-linecap:round; stroke-linejoin:round; stroke-width:4; stroke-opacity:1; fill:none" points="818.931,124.451 818.931,1423.18 923.676,1423.18 923.676,124.451 818.931,124.451 "/>
<path clip-path="url(#clip962)" d="M1735.46 306.282 L1735.46 1423.18 L1840.2 1423.18 L1840.2 306.282 L1735.46 306.282 L1735.46 306.282  Z" fill="#009af9" fill-rule="evenodd" fill-opacity="1"/>
<polyline clip-path="url(#clip962)" style="stroke:#000000; stroke-linecap:round; stroke-linejoin:round; stroke-width:4; stroke-opacity:1; fill:none" points="1735.46,306.282 1735.46,1423.18 1840.2,1423.18 1840.2,306.282 1735.46,306.282 "/>
<path clip-path="url(#clip962)" d="M1211.73 123.472 L1211.73 1423.18 L1316.47 1423.18 L1316.47 123.472 L1211.73 123.472 L1211.73 123.472  Z" fill="#009af9" fill-rule="evenodd" fill-opacity="1"/>
<polyline clip-path="url(#clip962)" style="stroke:#000000; stroke-linecap:round; stroke-linejoin:round; stroke-width:4; stroke-opacity:1; fill:none" points="1211.73,123.472 1211.73,1423.18 1316.47,1423.18 1316.47,123.472 1211.73,123.472 "/>
<path clip-path="url(#clip962)" d="M295.201 123.818 L295.201 1423.18 L399.947 1423.18 L399.947 123.818 L295.201 123.818 L295.201 123.818  Z" fill="#009af9" fill-rule="evenodd" fill-opacity="1"/>
<polyline clip-path="url(#clip962)" style="stroke:#000000; stroke-linecap:round; stroke-linejoin:round; stroke-width:4; stroke-opacity:1; fill:none" points="295.201,123.818 295.201,1423.18 399.947,1423.18 399.947,123.818 295.201,123.818 "/>
<path clip-path="url(#clip962)" d="M949.863 1422.88 L949.863 1423.18 L1054.61 1423.18 L1054.61 1422.88 L949.863 1422.88 L949.863 1422.88  Z" fill="#009af9" fill-rule="evenodd" fill-opacity="1"/>
<polyline clip-path="url(#clip962)" style="stroke:#000000; stroke-linecap:round; stroke-linejoin:round; stroke-width:4; stroke-opacity:1; fill:none" points="949.863,1422.88 949.863,1423.18 1054.61,1423.18 1054.61,1422.88 949.863,1422.88 "/>
<path clip-path="url(#clip962)" d="M1604.52 123.858 L1604.52 1423.18 L1709.27 1423.18 L1709.27 123.858 L1604.52 123.858 L1604.52 123.858  Z" fill="#009af9" fill-rule="evenodd" fill-opacity="1"/>
<polyline clip-path="url(#clip962)" style="stroke:#000000; stroke-linecap:round; stroke-linejoin:round; stroke-width:4; stroke-opacity:1; fill:none" points="1604.52,123.858 1604.52,1423.18 1709.27,1423.18 1709.27,123.858 1604.52,123.858 "/>
<path clip-path="url(#clip962)" d="M1342.66 124.285 L1342.66 1423.18 L1447.41 1423.18 L1447.41 124.285 L1342.66 124.285 L1342.66 124.285  Z" fill="#009af9" fill-rule="evenodd" fill-opacity="1"/>
<polyline clip-path="url(#clip962)" style="stroke:#000000; stroke-linecap:round; stroke-linejoin:round; stroke-width:4; stroke-opacity:1; fill:none" points="1342.66,124.285 1342.66,1423.18 1447.41,1423.18 1447.41,124.285 1342.66,124.285 "/>
<path clip-path="url(#clip962)" d="M1997.32 124.093 L1997.32 1423.18 L2102.07 1423.18 L2102.07 124.093 L1997.32 124.093 L1997.32 124.093  Z" fill="#009af9" fill-rule="evenodd" fill-opacity="1"/>
<polyline clip-path="url(#clip962)" style="stroke:#000000; stroke-linecap:round; stroke-linejoin:round; stroke-width:4; stroke-opacity:1; fill:none" points="1997.32,124.093 1997.32,1423.18 2102.07,1423.18 2102.07,124.093 1997.32,124.093 "/>
<path clip-path="url(#clip962)" d="M557.066 1423.14 L557.066 1423.18 L661.812 1423.18 L661.812 1423.14 L557.066 1423.14 L557.066 1423.14  Z" fill="#009af9" fill-rule="evenodd" fill-opacity="1"/>
<polyline clip-path="url(#clip962)" style="stroke:#000000; stroke-linecap:round; stroke-linejoin:round; stroke-width:4; stroke-opacity:1; fill:none" points="557.066,1423.14 557.066,1423.18 661.812,1423.18 661.812,1423.14 557.066,1423.14 "/>
<path clip-path="url(#clip962)" d="M1080.8 124.702 L1080.8 1423.18 L1185.54 1423.18 L1185.54 124.702 L1080.8 124.702 L1080.8 124.702  Z" fill="#009af9" fill-rule="evenodd" fill-opacity="1"/>
<polyline clip-path="url(#clip962)" style="stroke:#000000; stroke-linecap:round; stroke-linejoin:round; stroke-width:4; stroke-opacity:1; fill:none" points="1080.8,124.702 1080.8,1423.18 1185.54,1423.18 1185.54,124.702 1080.8,124.702 "/>
<path clip-path="url(#clip962)" d="M687.998 123.604 L687.998 1423.18 L792.744 1423.18 L792.744 123.604 L687.998 123.604 L687.998 123.604  Z" fill="#009af9" fill-rule="evenodd" fill-opacity="1"/>
<polyline clip-path="url(#clip962)" style="stroke:#000000; stroke-linecap:round; stroke-linejoin:round; stroke-width:4; stroke-opacity:1; fill:none" points="687.998,123.604 687.998,1423.18 792.744,1423.18 792.744,123.604 687.998,123.604 "/>
<path clip-path="url(#clip962)" d="M1866.39 123.957 L1866.39 1423.18 L1971.14 1423.18 L1971.14 123.957 L1866.39 123.957 L1866.39 123.957  Z" fill="#009af9" fill-rule="evenodd" fill-opacity="1"/>
<polyline clip-path="url(#clip962)" style="stroke:#000000; stroke-linecap:round; stroke-linejoin:round; stroke-width:4; stroke-opacity:1; fill:none" points="1866.39,123.957 1866.39,1423.18 1971.14,1423.18 1971.14,123.957 1866.39,123.957 "/>
<path clip-path="url(#clip962)" d="M2128.25 1421.54 L2128.25 1423.18 L2233 1423.18 L2233 1421.54 L2128.25 1421.54 L2128.25 1421.54  Z" fill="#009af9" fill-rule="evenodd" fill-opacity="1"/>
<polyline clip-path="url(#clip962)" style="stroke:#000000; stroke-linecap:round; stroke-linejoin:round; stroke-width:4; stroke-opacity:1; fill:none" points="2128.25,1421.54 2128.25,1423.18 2233,1423.18 2233,1421.54 2128.25,1421.54 "/>
<path clip-path="url(#clip962)" d="M426.134 124.328 L426.134 1423.18 L530.879 1423.18 L530.879 124.328 L426.134 124.328 L426.134 124.328  Z" fill="#009af9" fill-rule="evenodd" fill-opacity="1"/>
<polyline clip-path="url(#clip962)" style="stroke:#000000; stroke-linecap:round; stroke-linejoin:round; stroke-width:4; stroke-opacity:1; fill:none" points="426.134,124.328 426.134,1423.18 530.879,1423.18 530.879,124.328 426.134,124.328 "/>
<path clip-path="url(#clip962)" d="M1473.59 123.583 L1473.59 1423.18 L1578.34 1423.18 L1578.34 123.583 L1473.59 123.583 L1473.59 123.583  Z" fill="#009af9" fill-rule="evenodd" fill-opacity="1"/>
<polyline clip-path="url(#clip962)" style="stroke:#000000; stroke-linecap:round; stroke-linejoin:round; stroke-width:4; stroke-opacity:1; fill:none" points="1473.59,123.583 1473.59,1423.18 1578.34,1423.18 1578.34,123.583 1473.59,123.583 "/>
<circle clip-path="url(#clip962)" style="fill:#009af9; stroke:none; fill-opacity:0" cx="871.304" cy="124.451" r="2"/>
<circle clip-path="url(#clip962)" style="fill:#009af9; stroke:none; fill-opacity:0" cx="1787.83" cy="306.282" r="2"/>
<circle clip-path="url(#clip962)" style="fill:#009af9; stroke:none; fill-opacity:0" cx="1264.1" cy="123.472" r="2"/>
<circle clip-path="url(#clip962)" style="fill:#009af9; stroke:none; fill-opacity:0" cx="347.574" cy="123.818" r="2"/>
<circle clip-path="url(#clip962)" style="fill:#009af9; stroke:none; fill-opacity:0" cx="1002.24" cy="1422.88" r="2"/>
<circle clip-path="url(#clip962)" style="fill:#009af9; stroke:none; fill-opacity:0" cx="1656.9" cy="123.858" r="2"/>
<circle clip-path="url(#clip962)" style="fill:#009af9; stroke:none; fill-opacity:0" cx="1395.03" cy="124.285" r="2"/>
<circle clip-path="url(#clip962)" style="fill:#009af9; stroke:none; fill-opacity:0" cx="2049.69" cy="124.093" r="2"/>
<circle clip-path="url(#clip962)" style="fill:#009af9; stroke:none; fill-opacity:0" cx="609.439" cy="1423.14" r="2"/>
<circle clip-path="url(#clip962)" style="fill:#009af9; stroke:none; fill-opacity:0" cx="1133.17" cy="124.702" r="2"/>
<circle clip-path="url(#clip962)" style="fill:#009af9; stroke:none; fill-opacity:0" cx="740.371" cy="123.604" r="2"/>
<circle clip-path="url(#clip962)" style="fill:#009af9; stroke:none; fill-opacity:0" cx="1918.76" cy="123.957" r="2"/>
<circle clip-path="url(#clip962)" style="fill:#009af9; stroke:none; fill-opacity:0" cx="2180.63" cy="1421.54" r="2"/>
<circle clip-path="url(#clip962)" style="fill:#009af9; stroke:none; fill-opacity:0" cx="478.506" cy="124.328" r="2"/>
<circle clip-path="url(#clip962)" style="fill:#009af9; stroke:none; fill-opacity:0" cx="1525.97" cy="123.583" r="2"/>
</svg>
