<?xml version="1.0" encoding="utf-8"?>
<svg xmlns="http://www.w3.org/2000/svg" xmlns:xlink="http://www.w3.org/1999/xlink" width="600" height="400" viewBox="0 0 2400 1600">
<defs>
  <clipPath id="clip350">
    <rect x="0" y="0" width="2400" height="1600"/>
  </clipPath>
</defs>
<path clip-path="url(#clip350)" d="M0 1600 L2400 1600 L2400 0 L0 0  Z" fill="#ffffff" fill-rule="evenodd" fill-opacity="1"/>
<defs>
  <clipPath id="clip351">
    <rect x="480" y="0" width="1681" height="1600"/>
  </clipPath>
</defs>
<path clip-path="url(#clip350)" d="M247.459 1423.18 L2352.76 1423.18 L2352.76 123.472 L247.459 123.472  Z" fill="#ffffff" fill-rule="evenodd" fill-opacity="1"/>
<defs>
  <clipPath id="clip352">
    <rect x="247" y="123" width="2106" height="1301"/>
  </clipPath>
</defs>
<polyline clip-path="url(#clip352)" style="stroke:#000000; stroke-linecap:round; stroke-linejoin:round; stroke-width:2; stroke-opacity:0.1; fill:none" points="287.293,1423.18 287.293,123.472 "/>
<polyline clip-path="url(#clip352)" style="stroke:#000000; stroke-linecap:round; stroke-linejoin:round; stroke-width:2; stroke-opacity:0.1; fill:none" points="920.302,1423.18 920.302,123.472 "/>
<polyline clip-path="url(#clip352)" style="stroke:#000000; stroke-linecap:round; stroke-linejoin:round; stroke-width:2; stroke-opacity:0.1; fill:none" points="1553.31,1423.18 1553.31,123.472 "/>
<polyline clip-path="url(#clip352)" style="stroke:#000000; stroke-linecap:round; stroke-linejoin:round; stroke-width:2; stroke-opacity:0.1; fill:none" points="2186.32,1423.18 2186.32,123.472 "/>
<polyline clip-path="url(#clip352)" style="stroke:#000000; stroke-linecap:round; stroke-linejoin:round; stroke-width:2; stroke-opacity:0.1; fill:none" points="247.459,1423.18 2352.76,1423.18 "/>
<polyline clip-path="url(#clip352)" style="stroke:#000000; stroke-linecap:round; stroke-linejoin:round; stroke-width:2; stroke-opacity:0.1; fill:none" points="247.459,1098.25 2352.76,1098.25 "/>
<polyline clip-path="url(#clip352)" style="stroke:#000000; stroke-linecap:round; stroke-linejoin:round; stroke-width:2; stroke-opacity:0.1; fill:none" points="247.459,773.326 2352.76,773.326 "/>
<polyline clip-path="url(#clip352)" style="stroke:#000000; stroke-linecap:round; stroke-linejoin:round; stroke-width:2; stroke-opacity:0.1; fill:none" points="247.459,448.399 2352.76,448.399 "/>
<polyline clip-path="url(#clip352)" style="stroke:#000000; stroke-linecap:round; stroke-linejoin:round; stroke-width:2; stroke-opacity:0.1; fill:none" points="247.459,123.472 2352.76,123.472 "/>
<polyline clip-path="url(#clip350)" style="stroke:#000000; stroke-linecap:round; stroke-linejoin:round; stroke-width:4; stroke-opacity:1; fill:none" points="247.459,1423.18 2352.76,1423.18 "/>
<polyline clip-path="url(#clip350)" style="stroke:#000000; stroke-linecap:round; stroke-linejoin:round; stroke-width:4; stroke-opacity:1; fill:none" points="287.293,1423.18 287.293,1404.28 "/>
<polyline clip-path="url(#clip350)" style="stroke:#000000; stroke-linecap:round; stroke-linejoin:round; stroke-width:4; stroke-opacity:1; fill:none" points="920.302,1423.18 920.302,1404.28 "/>
<polyline clip-path="url(#clip350)" style="stroke:#000000; stroke-linecap:round; stroke-linejoin:round; stroke-width:4; stroke-opacity:1; fill:none" points="1553.31,1423.18 1553.31,1404.28 "/>
<polyline clip-path="url(#clip350)" style="stroke:#000000; stroke-linecap:round; stroke-linejoin:round; stroke-width:4; stroke-opacity:1; fill:none" points="2186.32,1423.18 2186.32,1404.28 "/>
<path clip-path="url(#clip350)" d="M287.293 1454.1 Q283.682 1454.1 281.853 1457.66 Q280.047 1461.2 280.047 1468.33 Q280.047 1475.44 281.853 1479.01 Q283.682 1482.55 287.293 1482.55 Q290.927 1482.55 292.732 1479.01 Q294.561 1475.44 294.561 1468.33 Q294.561 1461.2 292.732 1457.66 Q290.927 1454.1 287.293 1454.1 M287.293 1450.39 Q293.103 1450.39 296.158 1455 Q299.237 1459.58 299.237 1468.33 Q299.237 1477.06 296.158 1481.67 Q293.103 1486.25 287.293 1486.25 Q281.483 1486.25 278.404 1481.67 Q275.348 1477.06 275.348 1468.33 Q275.348 1459.58 278.404 1455 Q281.483 1450.39 287.293 1450.39 Z" fill="#000000" fill-rule="nonzero" fill-opacity="1" /><path clip-path="url(#clip350)" d="M910.58 1451.02 L928.936 1451.02 L928.936 1454.96 L914.862 1454.96 L914.862 1463.43 Q915.881 1463.08 916.899 1462.92 Q917.918 1462.73 918.936 1462.73 Q924.723 1462.73 928.103 1465.9 Q931.482 1469.08 931.482 1474.49 Q931.482 1480.07 928.01 1483.17 Q924.538 1486.25 918.219 1486.25 Q916.043 1486.25 913.774 1485.88 Q911.529 1485.51 909.121 1484.77 L909.121 1480.07 Q911.205 1481.2 913.427 1481.76 Q915.649 1482.32 918.126 1482.32 Q922.131 1482.32 924.468 1480.21 Q926.806 1478.1 926.806 1474.49 Q926.806 1470.88 924.468 1468.77 Q922.131 1466.67 918.126 1466.67 Q916.251 1466.67 914.376 1467.08 Q912.524 1467.5 910.58 1468.38 L910.58 1451.02 Z" fill="#000000" fill-rule="nonzero" fill-opacity="1" /><path clip-path="url(#clip350)" d="M1528 1481.64 L1535.64 1481.64 L1535.64 1455.28 L1527.33 1456.95 L1527.33 1452.69 L1535.59 1451.02 L1540.27 1451.02 L1540.27 1481.64 L1547.91 1481.64 L1547.91 1485.58 L1528 1485.58 L1528 1481.64 Z" fill="#000000" fill-rule="nonzero" fill-opacity="1" /><path clip-path="url(#clip350)" d="M1567.35 1454.1 Q1563.74 1454.1 1561.91 1457.66 Q1560.1 1461.2 1560.1 1468.33 Q1560.1 1475.44 1561.91 1479.01 Q1563.74 1482.55 1567.35 1482.55 Q1570.98 1482.55 1572.79 1479.01 Q1574.62 1475.44 1574.62 1468.33 Q1574.62 1461.2 1572.79 1457.66 Q1570.98 1454.1 1567.35 1454.1 M1567.35 1450.39 Q1573.16 1450.39 1576.22 1455 Q1579.29 1459.58 1579.29 1468.33 Q1579.29 1477.06 1576.22 1481.67 Q1573.16 1486.25 1567.35 1486.25 Q1561.54 1486.25 1558.46 1481.67 Q1555.41 1477.06 1555.41 1468.33 Q1555.41 1459.58 1558.46 1455 Q1561.54 1450.39 1567.35 1450.39 Z" fill="#000000" fill-rule="nonzero" fill-opacity="1" /><path clip-path="url(#clip350)" d="M2161.51 1481.64 L2169.14 1481.64 L2169.14 1455.28 L2160.83 1456.95 L2160.83 1452.69 L2169.1 1451.02 L2173.77 1451.02 L2173.77 1481.64 L2181.41 1481.64 L2181.41 1485.58 L2161.51 1485.58 L2161.51 1481.64 Z" fill="#000000" fill-rule="nonzero" fill-opacity="1" /><path clip-path="url(#clip350)" d="M2190.9 1451.02 L2209.26 1451.02 L2209.26 1454.96 L2195.19 1454.96 L2195.19 1463.43 Q2196.2 1463.08 2197.22 1462.92 Q2198.24 1462.73 2199.26 1462.73 Q2205.05 1462.73 2208.43 1465.9 Q2211.81 1469.08 2211.81 1474.49 Q2211.81 1480.07 2208.33 1483.17 Q2204.86 1486.25 2198.54 1486.25 Q2196.37 1486.25 2194.1 1485.88 Q2191.85 1485.51 2189.45 1484.77 L2189.45 1480.07 Q2191.53 1481.2 2193.75 1481.76 Q2195.97 1482.32 2198.45 1482.32 Q2202.45 1482.32 2204.79 1480.21 Q2207.13 1478.1 2207.13 1474.49 Q2207.13 1470.88 2204.79 1468.77 Q2202.45 1466.67 2198.45 1466.67 Q2196.57 1466.67 2194.7 1467.08 Q2192.85 1467.5 2190.9 1468.38 L2190.9 1451.02 Z" fill="#000000" fill-rule="nonzero" fill-opacity="1" /><path clip-path="url(#clip350)" d="M1181.98 1520.52 L1188.41 1520.52 L1188.41 1562.63 L1211.54 1562.63 L1211.54 1568.04 L1181.98 1568.04 L1181.98 1520.52 Z" fill="#000000" fill-rule="nonzero" fill-opacity="1" /><path clip-path="url(#clip350)" d="M1230.71 1536.5 Q1225.99 1536.5 1223.26 1540.19 Q1220.52 1543.85 1220.52 1550.25 Q1220.52 1556.65 1223.23 1560.34 Q1225.96 1564 1230.71 1564 Q1235.38 1564 1238.12 1560.31 Q1240.86 1556.62 1240.86 1550.25 Q1240.86 1543.92 1238.12 1540.23 Q1235.38 1536.5 1230.71 1536.5 M1230.71 1531.54 Q1238.34 1531.54 1242.7 1536.5 Q1247.07 1541.47 1247.07 1550.25 Q1247.07 1559 1242.7 1564 Q1238.34 1568.97 1230.71 1568.97 Q1223.03 1568.97 1218.67 1564 Q1214.35 1559 1214.35 1550.25 Q1214.35 1541.47 1218.67 1536.5 Q1223.03 1531.54 1230.71 1531.54 Z" fill="#000000" fill-rule="nonzero" fill-opacity="1" /><path clip-path="url(#clip350)" d="M1272.97 1550.12 Q1265.88 1550.12 1263.14 1551.75 Q1260.4 1553.37 1260.4 1557.29 Q1260.4 1560.4 1262.44 1562.25 Q1264.51 1564.07 1268.04 1564.07 Q1272.91 1564.07 1275.84 1560.63 Q1278.8 1557.16 1278.8 1551.43 L1278.8 1550.12 L1272.97 1550.12 M1284.65 1547.71 L1284.65 1568.04 L1278.8 1568.04 L1278.8 1562.63 Q1276.79 1565.88 1273.8 1567.44 Q1270.81 1568.97 1266.48 1568.97 Q1261.01 1568.97 1257.76 1565.91 Q1254.54 1562.82 1254.54 1557.67 Q1254.54 1551.65 1258.56 1548.6 Q1262.6 1545.54 1270.59 1545.54 L1278.8 1545.54 L1278.8 1544.97 Q1278.8 1540.93 1276.12 1538.73 Q1273.48 1536.5 1268.68 1536.5 Q1265.62 1536.5 1262.72 1537.23 Q1259.83 1537.97 1257.15 1539.43 L1257.15 1534.02 Q1260.37 1532.78 1263.39 1532.17 Q1266.42 1531.54 1269.28 1531.54 Q1277.02 1531.54 1280.84 1535.55 Q1284.65 1539.56 1284.65 1547.71 Z" fill="#000000" fill-rule="nonzero" fill-opacity="1" /><path clip-path="url(#clip350)" d="M1320.18 1537.81 L1320.18 1518.52 L1326.03 1518.52 L1326.03 1568.04 L1320.18 1568.04 L1320.18 1562.7 Q1318.33 1565.88 1315.5 1567.44 Q1312.7 1568.97 1308.75 1568.97 Q1302.29 1568.97 1298.21 1563.81 Q1294.17 1558.65 1294.17 1550.25 Q1294.17 1541.85 1298.21 1536.69 Q1302.29 1531.54 1308.75 1531.54 Q1312.7 1531.54 1315.5 1533.1 Q1318.33 1534.62 1320.18 1537.81 M1300.22 1550.25 Q1300.22 1556.71 1302.86 1560.4 Q1305.53 1564.07 1310.18 1564.07 Q1314.83 1564.07 1317.5 1560.4 Q1320.18 1556.71 1320.18 1550.25 Q1320.18 1543.79 1317.5 1540.13 Q1314.83 1536.44 1310.18 1536.44 Q1305.53 1536.44 1302.86 1540.13 Q1300.22 1543.79 1300.22 1550.25 Z" fill="#000000" fill-rule="nonzero" fill-opacity="1" /><path clip-path="url(#clip350)" d="M1359.07 1520.52 L1365.5 1520.52 L1365.5 1568.04 L1359.07 1568.04 L1359.07 1520.52 Z" fill="#000000" fill-rule="nonzero" fill-opacity="1" /><path clip-path="url(#clip350)" d="M1384.72 1525.81 L1384.72 1562.76 L1392.49 1562.76 Q1402.32 1562.76 1406.88 1558.3 Q1411.46 1553.85 1411.46 1544.24 Q1411.46 1534.69 1406.88 1530.26 Q1402.32 1525.81 1392.49 1525.81 L1384.72 1525.81 M1378.29 1520.52 L1391.5 1520.52 Q1405.32 1520.52 1411.78 1526.28 Q1418.24 1532.01 1418.24 1544.24 Q1418.24 1556.52 1411.75 1562.28 Q1405.25 1568.04 1391.5 1568.04 L1378.29 1568.04 L1378.29 1520.52 Z" fill="#000000" fill-rule="nonzero" fill-opacity="1" /><polyline clip-path="url(#clip350)" style="stroke:#000000; stroke-linecap:round; stroke-linejoin:round; stroke-width:4; stroke-opacity:1; fill:none" points="247.459,1423.18 247.459,123.472 "/>
<polyline clip-path="url(#clip350)" style="stroke:#000000; stroke-linecap:round; stroke-linejoin:round; stroke-width:4; stroke-opacity:1; fill:none" points="247.459,1423.18 266.356,1423.18 "/>
<polyline clip-path="url(#clip350)" style="stroke:#000000; stroke-linecap:round; stroke-linejoin:round; stroke-width:4; stroke-opacity:1; fill:none" points="247.459,1098.25 266.356,1098.25 "/>
<polyline clip-path="url(#clip350)" style="stroke:#000000; stroke-linecap:round; stroke-linejoin:round; stroke-width:4; stroke-opacity:1; fill:none" points="247.459,773.326 266.356,773.326 "/>
<polyline clip-path="url(#clip350)" style="stroke:#000000; stroke-linecap:round; stroke-linejoin:round; stroke-width:4; stroke-opacity:1; fill:none" points="247.459,448.399 266.356,448.399 "/>
<polyline clip-path="url(#clip350)" style="stroke:#000000; stroke-linecap:round; stroke-linejoin:round; stroke-width:4; stroke-opacity:1; fill:none" points="247.459,123.472 266.356,123.472 "/>
<path clip-path="url(#clip350)" d="M154.283 1408.98 Q150.672 1408.98 148.843 1412.54 Q147.038 1416.08 147.038 1423.21 Q147.038 1430.32 148.843 1433.89 Q150.672 1437.43 154.283 1437.43 Q157.917 1437.43 159.723 1433.89 Q161.552 1430.32 161.552 1423.21 Q161.552 1416.08 159.723 1412.54 Q157.917 1408.98 154.283 1408.98 M154.283 1405.27 Q160.093 1405.27 163.149 1409.88 Q166.227 1414.46 166.227 1423.21 Q166.227 1431.94 163.149 1436.55 Q160.093 1441.13 154.283 1441.13 Q148.473 1441.13 145.394 1436.55 Q142.339 1431.94 142.339 1423.21 Q142.339 1414.46 145.394 1409.88 Q148.473 1405.27 154.283 1405.27 Z" fill="#000000" fill-rule="nonzero" fill-opacity="1" /><path clip-path="url(#clip350)" d="M174.445 1434.58 L179.329 1434.58 L179.329 1440.46 L174.445 1440.46 L174.445 1434.58 Z" fill="#000000" fill-rule="nonzero" fill-opacity="1" /><path clip-path="url(#clip350)" d="M199.514 1408.98 Q195.903 1408.98 194.075 1412.54 Q192.269 1416.08 192.269 1423.21 Q192.269 1430.32 194.075 1433.89 Q195.903 1437.43 199.514 1437.43 Q203.149 1437.43 204.954 1433.89 Q206.783 1430.32 206.783 1423.21 Q206.783 1416.08 204.954 1412.54 Q203.149 1408.98 199.514 1408.98 M199.514 1405.27 Q205.324 1405.27 208.38 1409.88 Q211.459 1414.46 211.459 1423.21 Q211.459 1431.94 208.38 1436.55 Q205.324 1441.13 199.514 1441.13 Q193.704 1441.13 190.625 1436.55 Q187.57 1431.94 187.57 1423.21 Q187.57 1414.46 190.625 1409.88 Q193.704 1405.27 199.514 1405.27 Z" fill="#000000" fill-rule="nonzero" fill-opacity="1" /><path clip-path="url(#clip350)" d="M149.306 1111.6 L165.626 1111.6 L165.626 1115.53 L143.681 1115.53 L143.681 1111.6 Q146.343 1108.84 150.927 1104.21 Q155.533 1099.56 156.714 1098.22 Q158.959 1095.7 159.839 1093.96 Q160.741 1092.2 160.741 1090.51 Q160.741 1087.76 158.797 1086.02 Q156.876 1084.28 153.774 1084.28 Q151.575 1084.28 149.121 1085.05 Q146.691 1085.81 143.913 1087.36 L143.913 1082.64 Q146.737 1081.51 149.191 1080.93 Q151.644 1080.35 153.681 1080.35 Q159.052 1080.35 162.246 1083.03 Q165.44 1085.72 165.44 1090.21 Q165.44 1092.34 164.63 1094.26 Q163.843 1096.16 161.737 1098.75 Q161.158 1099.42 158.056 1102.64 Q154.954 1105.83 149.306 1111.6 Z" fill="#000000" fill-rule="nonzero" fill-opacity="1" /><path clip-path="url(#clip350)" d="M175.44 1109.65 L180.325 1109.65 L180.325 1115.53 L175.44 1115.53 L175.44 1109.65 Z" fill="#000000" fill-rule="nonzero" fill-opacity="1" /><path clip-path="url(#clip350)" d="M190.556 1080.97 L208.912 1080.97 L208.912 1084.91 L194.838 1084.91 L194.838 1093.38 Q195.857 1093.03 196.875 1092.87 Q197.894 1092.69 198.912 1092.69 Q204.699 1092.69 208.079 1095.86 Q211.459 1099.03 211.459 1104.45 Q211.459 1110.02 207.987 1113.13 Q204.514 1116.2 198.195 1116.2 Q196.019 1116.2 193.75 1115.83 Q191.505 1115.46 189.098 1114.72 L189.098 1110.02 Q191.181 1111.16 193.403 1111.71 Q195.625 1112.27 198.102 1112.27 Q202.107 1112.27 204.445 1110.16 Q206.783 1108.06 206.783 1104.45 Q206.783 1100.83 204.445 1098.73 Q202.107 1096.62 198.102 1096.62 Q196.227 1096.62 194.352 1097.04 Q192.5 1097.45 190.556 1098.33 L190.556 1080.97 Z" fill="#000000" fill-rule="nonzero" fill-opacity="1" /><path clip-path="url(#clip350)" d="M144.329 756.046 L162.686 756.046 L162.686 759.981 L148.612 759.981 L148.612 768.453 Q149.63 768.106 150.649 767.944 Q151.667 767.759 152.686 767.759 Q158.473 767.759 161.852 770.93 Q165.232 774.101 165.232 779.518 Q165.232 785.097 161.76 788.199 Q158.288 791.277 151.968 791.277 Q149.792 791.277 147.524 790.907 Q145.279 790.537 142.871 789.796 L142.871 785.097 Q144.954 786.231 147.177 786.787 Q149.399 787.342 151.876 787.342 Q155.88 787.342 158.218 785.236 Q160.556 783.129 160.556 779.518 Q160.556 775.907 158.218 773.801 Q155.88 771.694 151.876 771.694 Q150.001 771.694 148.126 772.111 Q146.274 772.527 144.329 773.407 L144.329 756.046 Z" fill="#000000" fill-rule="nonzero" fill-opacity="1" /><path clip-path="url(#clip350)" d="M174.445 784.726 L179.329 784.726 L179.329 790.606 L174.445 790.606 L174.445 784.726 Z" fill="#000000" fill-rule="nonzero" fill-opacity="1" /><path clip-path="url(#clip350)" d="M199.514 759.125 Q195.903 759.125 194.075 762.689 Q192.269 766.231 192.269 773.361 Q192.269 780.467 194.075 784.032 Q195.903 787.574 199.514 787.574 Q203.149 787.574 204.954 784.032 Q206.783 780.467 206.783 773.361 Q206.783 766.231 204.954 762.689 Q203.149 759.125 199.514 759.125 M199.514 755.421 Q205.324 755.421 208.38 760.027 Q211.459 764.611 211.459 773.361 Q211.459 782.088 208.38 786.694 Q205.324 791.277 199.514 791.277 Q193.704 791.277 190.625 786.694 Q187.57 782.088 187.57 773.361 Q187.57 764.611 190.625 760.027 Q193.704 755.421 199.514 755.421 Z" fill="#000000" fill-rule="nonzero" fill-opacity="1" /><path clip-path="url(#clip350)" d="M144.098 431.119 L166.32 431.119 L166.32 433.11 L153.774 465.679 L148.89 465.679 L160.695 435.054 L144.098 435.054 L144.098 431.119 Z" fill="#000000" fill-rule="nonzero" fill-opacity="1" /><path clip-path="url(#clip350)" d="M175.44 459.799 L180.325 459.799 L180.325 465.679 L175.44 465.679 L175.44 459.799 Z" fill="#000000" fill-rule="nonzero" fill-opacity="1" /><path clip-path="url(#clip350)" d="M190.556 431.119 L208.912 431.119 L208.912 435.054 L194.838 435.054 L194.838 443.526 Q195.857 443.179 196.875 443.017 Q197.894 442.832 198.912 442.832 Q204.699 442.832 208.079 446.003 Q211.459 449.175 211.459 454.591 Q211.459 460.17 207.987 463.272 Q204.514 466.35 198.195 466.35 Q196.019 466.35 193.75 465.98 Q191.505 465.61 189.098 464.869 L189.098 460.17 Q191.181 461.304 193.403 461.86 Q195.625 462.415 198.102 462.415 Q202.107 462.415 204.445 460.309 Q206.783 458.202 206.783 454.591 Q206.783 450.98 204.445 448.874 Q202.107 446.767 198.102 446.767 Q196.227 446.767 194.352 447.184 Q192.5 447.6 190.556 448.48 L190.556 431.119 Z" fill="#000000" fill-rule="nonzero" fill-opacity="1" /><path clip-path="url(#clip350)" d="M114.931 136.817 L122.57 136.817 L122.57 110.451 L114.26 112.118 L114.26 107.859 L122.524 106.192 L127.2 106.192 L127.2 136.817 L134.839 136.817 L134.839 140.752 L114.931 140.752 L114.931 136.817 Z" fill="#000000" fill-rule="nonzero" fill-opacity="1" /><path clip-path="url(#clip350)" d="M154.283 109.271 Q150.672 109.271 148.843 112.836 Q147.038 116.377 147.038 123.507 Q147.038 130.613 148.843 134.178 Q150.672 137.72 154.283 137.72 Q157.917 137.72 159.723 134.178 Q161.552 130.613 161.552 123.507 Q161.552 116.377 159.723 112.836 Q157.917 109.271 154.283 109.271 M154.283 105.567 Q160.093 105.567 163.149 110.174 Q166.227 114.757 166.227 123.507 Q166.227 132.234 163.149 136.84 Q160.093 141.423 154.283 141.423 Q148.473 141.423 145.394 136.84 Q142.339 132.234 142.339 123.507 Q142.339 114.757 145.394 110.174 Q148.473 105.567 154.283 105.567 Z" fill="#000000" fill-rule="nonzero" fill-opacity="1" /><path clip-path="url(#clip350)" d="M174.445 134.873 L179.329 134.873 L179.329 140.752 L174.445 140.752 L174.445 134.873 Z" fill="#000000" fill-rule="nonzero" fill-opacity="1" /><path clip-path="url(#clip350)" d="M199.514 109.271 Q195.903 109.271 194.075 112.836 Q192.269 116.377 192.269 123.507 Q192.269 130.613 194.075 134.178 Q195.903 137.72 199.514 137.72 Q203.149 137.72 204.954 134.178 Q206.783 130.613 206.783 123.507 Q206.783 116.377 204.954 112.836 Q203.149 109.271 199.514 109.271 M199.514 105.567 Q205.324 105.567 208.38 110.174 Q211.459 114.757 211.459 123.507 Q211.459 132.234 208.38 136.84 Q205.324 141.423 199.514 141.423 Q193.704 141.423 190.625 136.84 Q187.57 132.234 187.57 123.507 Q187.57 114.757 190.625 110.174 Q193.704 105.567 199.514 105.567 Z" fill="#000000" fill-rule="nonzero" fill-opacity="1" /><path clip-path="url(#clip350)" d="M16.4842 1039.99 L16.4842 1012.68 L21.895 1012.68 L21.895 1033.56 L35.8996 1033.56 L35.8996 1014.71 L41.3104 1014.71 L41.3104 1033.56 L64.0042 1033.56 L64.0042 1039.99 L16.4842 1039.99 Z" fill="#000000" fill-rule="nonzero" fill-opacity="1" /><path clip-path="url(#clip350)" d="M46.0847 992.529 Q46.0847 999.627 47.7079 1002.36 Q49.3312 1005.1 53.2461 1005.1 Q56.3653 1005.1 58.2114 1003.06 Q60.0256 1001 60.0256 997.463 Q60.0256 992.593 56.5881 989.665 Q53.1188 986.704 47.3897 986.704 L46.0847 986.704 L46.0847 992.529 M43.6657 980.848 L64.0042 980.848 L64.0042 986.704 L58.5933 986.704 Q61.8398 988.71 63.3994 991.702 Q64.9272 994.693 64.9272 999.022 Q64.9272 1004.5 61.8716 1007.74 Q58.7843 1010.96 53.6281 1010.96 Q47.6125 1010.96 44.5569 1006.95 Q41.5014 1002.91 41.5014 994.916 L41.5014 986.704 L40.9285 986.704 Q36.8862 986.704 34.6901 989.378 Q32.4621 992.02 32.4621 996.826 Q32.4621 999.881 33.1941 1002.78 Q33.9262 1005.67 35.3903 1008.35 L29.9795 1008.35 Q28.7381 1005.13 28.1334 1002.11 Q27.4968 999.086 27.4968 996.221 Q27.4968 988.487 31.5072 984.667 Q35.5176 980.848 43.6657 980.848 Z" fill="#000000" fill-rule="nonzero" fill-opacity="1" /><path clip-path="url(#clip350)" d="M28.3562 968.785 L28.3562 962.929 L64.0042 962.929 L64.0042 968.785 L28.3562 968.785 M14.479 968.785 L14.479 962.929 L21.895 962.929 L21.895 968.785 L14.479 968.785 Z" fill="#000000" fill-rule="nonzero" fill-opacity="1" /><path clip-path="url(#clip350)" d="M33.8307 930.018 Q33.2578 931.005 33.0032 932.182 Q32.7167 933.328 32.7167 934.728 Q32.7167 939.694 35.9632 942.367 Q39.1779 945.009 45.2253 945.009 L64.0042 945.009 L64.0042 950.897 L28.3562 950.897 L28.3562 945.009 L33.8944 945.009 Q30.6479 943.163 29.0883 940.203 Q27.4968 937.243 27.4968 933.01 Q27.4968 932.405 27.5923 931.673 Q27.656 930.941 27.8151 930.05 L33.8307 930.018 Z" fill="#000000" fill-rule="nonzero" fill-opacity="1" /><path clip-path="url(#clip350)" d="M16.4842 902.9 L16.4842 896.471 L58.5933 896.471 L58.5933 873.331 L64.0042 873.331 L64.0042 902.9 L16.4842 902.9 Z" fill="#000000" fill-rule="nonzero" fill-opacity="1" /><path clip-path="url(#clip350)" d="M32.4621 854.17 Q32.4621 858.881 36.1542 861.618 Q39.8145 864.356 46.212 864.356 Q52.6095 864.356 56.3017 861.65 Q59.9619 858.913 59.9619 854.17 Q59.9619 849.492 56.2698 846.754 Q52.5777 844.017 46.212 844.017 Q39.8781 844.017 36.186 846.754 Q32.4621 849.492 32.4621 854.17 M27.4968 854.17 Q27.4968 846.532 32.4621 842.171 Q37.4273 837.811 46.212 837.811 Q54.9649 837.811 59.9619 842.171 Q64.9272 846.532 64.9272 854.17 Q64.9272 861.841 59.9619 866.202 Q54.9649 870.53 46.212 870.53 Q37.4273 870.53 32.4621 866.202 Q27.4968 861.841 27.4968 854.17 Z" fill="#000000" fill-rule="nonzero" fill-opacity="1" /><path clip-path="url(#clip350)" d="M46.0847 811.902 Q46.0847 819 47.7079 821.737 Q49.3312 824.474 53.2461 824.474 Q56.3653 824.474 58.2114 822.437 Q60.0256 820.369 60.0256 816.836 Q60.0256 811.966 56.5881 809.038 Q53.1188 806.078 47.3897 806.078 L46.0847 806.078 L46.0847 811.902 M43.6657 800.221 L64.0042 800.221 L64.0042 806.078 L58.5933 806.078 Q61.8398 808.083 63.3994 811.075 Q64.9272 814.067 64.9272 818.395 Q64.9272 823.87 61.8716 827.116 Q58.7843 830.331 53.6281 830.331 Q47.6125 830.331 44.5569 826.32 Q41.5014 822.278 41.5014 814.289 L41.5014 806.078 L40.9285 806.078 Q36.8862 806.078 34.6901 808.751 Q32.4621 811.393 32.4621 816.199 Q32.4621 819.255 33.1941 822.151 Q33.9262 825.047 35.3903 827.721 L29.9795 827.721 Q28.7381 824.506 28.1334 821.483 Q27.4968 818.459 27.4968 815.594 Q27.4968 807.86 31.5072 804.041 Q35.5176 800.221 43.6657 800.221 Z" fill="#000000" fill-rule="nonzero" fill-opacity="1" /><path clip-path="url(#clip350)" d="M33.7671 764.7 L14.479 764.7 L14.479 758.844 L64.0042 758.844 L64.0042 764.7 L58.657 764.7 Q61.8398 766.547 63.3994 769.379 Q64.9272 772.18 64.9272 776.127 Q64.9272 782.588 59.771 786.662 Q54.6147 790.704 46.212 790.704 Q37.8093 790.704 32.6531 786.662 Q27.4968 782.588 27.4968 776.127 Q27.4968 772.18 29.0564 769.379 Q30.5842 766.547 33.7671 764.7 M46.212 784.657 Q52.6732 784.657 56.3653 782.015 Q60.0256 779.342 60.0256 774.695 Q60.0256 770.048 56.3653 767.374 Q52.6732 764.7 46.212 764.7 Q39.7508 764.7 36.0905 767.374 Q32.3984 770.048 32.3984 774.695 Q32.3984 779.342 36.0905 782.015 Q39.7508 784.657 46.212 784.657 Z" fill="#000000" fill-rule="nonzero" fill-opacity="1" /><path clip-path="url(#clip350)" d="M16.4842 730.039 L16.4842 723.546 L56.6518 713.552 L16.4842 703.59 L16.4842 696.365 L56.6518 686.37 L16.4842 676.408 L16.4842 669.883 L64.0042 681.819 L64.0042 689.903 L22.7544 699.929 L64.0042 710.051 L64.0042 718.135 L16.4842 730.039 Z" fill="#000000" fill-rule="nonzero" fill-opacity="1" /><path clip-path="url(#clip350)" d="M44.7161 634.936 L47.5806 634.936 L47.5806 661.862 Q53.6281 661.481 56.8109 658.234 Q59.9619 654.956 59.9619 649.131 Q59.9619 645.757 59.1344 642.606 Q58.3069 639.423 56.6518 636.304 L62.1899 636.304 Q63.5267 639.455 64.227 642.765 Q64.9272 646.076 64.9272 649.481 Q64.9272 658.011 59.9619 663.008 Q54.9967 667.974 46.5303 667.974 Q37.7774 667.974 32.6531 663.263 Q27.4968 658.52 27.4968 650.5 Q27.4968 643.306 32.1438 639.137 Q36.7589 634.936 44.7161 634.936 M42.9973 640.792 Q38.1912 640.856 35.3266 643.497 Q32.4621 646.107 32.4621 650.436 Q32.4621 655.338 35.2312 658.298 Q38.0002 661.226 43.0292 661.671 L42.9973 640.792 Z" fill="#000000" fill-rule="nonzero" fill-opacity="1" /><path clip-path="url(#clip350)" d="M28.3562 625.323 L28.3562 619.467 L64.0042 619.467 L64.0042 625.323 L28.3562 625.323 M14.479 625.323 L14.479 619.467 L21.895 619.467 L21.895 625.323 L14.479 625.323 Z" fill="#000000" fill-rule="nonzero" fill-opacity="1" /><path clip-path="url(#clip350)" d="M45.7664 583.755 Q39.4007 583.755 35.8996 586.397 Q32.3984 589.007 32.3984 593.749 Q32.3984 598.46 35.8996 601.102 Q39.4007 603.712 45.7664 603.712 Q52.1003 603.712 55.6014 601.102 Q59.1026 598.46 59.1026 593.749 Q59.1026 589.007 55.6014 586.397 Q52.1003 583.755 45.7664 583.755 M59.58 577.899 Q68.683 577.899 73.1071 581.941 Q77.5631 585.983 77.5631 594.322 Q77.5631 597.41 77.0857 600.147 Q76.6401 602.884 75.6852 605.462 L69.9879 605.462 Q71.3884 602.884 72.0568 600.37 Q72.7252 597.855 72.7252 595.245 Q72.7252 589.484 69.7015 586.62 Q66.7096 583.755 60.6303 583.755 L57.7339 583.755 Q60.885 585.569 62.4446 588.402 Q64.0042 591.235 64.0042 595.182 Q64.0042 601.738 59.0071 605.749 Q54.01 609.759 45.7664 609.759 Q37.491 609.759 32.4939 605.749 Q27.4968 601.738 27.4968 595.182 Q27.4968 591.235 29.0564 588.402 Q30.616 585.569 33.7671 583.755 L28.3562 583.755 L28.3562 577.899 L59.58 577.899 Z" fill="#000000" fill-rule="nonzero" fill-opacity="1" /><path clip-path="url(#clip350)" d="M42.4881 536.203 L64.0042 536.203 L64.0042 542.06 L42.679 542.06 Q37.6183 542.06 35.1038 544.033 Q32.5894 546.007 32.5894 549.953 Q32.5894 554.696 35.6131 557.433 Q38.6368 560.17 43.8567 560.17 L64.0042 560.17 L64.0042 566.059 L14.479 566.059 L14.479 560.17 L33.8944 560.17 Q30.6797 558.07 29.0883 555.237 Q27.4968 552.372 27.4968 548.648 Q27.4968 542.505 31.3163 539.354 Q35.1038 536.203 42.4881 536.203 Z" fill="#000000" fill-rule="nonzero" fill-opacity="1" /><path clip-path="url(#clip350)" d="M18.2347 518.73 L28.3562 518.73 L28.3562 506.667 L32.9077 506.667 L32.9077 518.73 L52.2594 518.73 Q56.6199 518.73 57.8613 517.552 Q59.1026 516.342 59.1026 512.682 L59.1026 506.667 L64.0042 506.667 L64.0042 512.682 Q64.0042 519.462 61.4897 522.04 Q58.9434 524.618 52.2594 524.618 L32.9077 524.618 L32.9077 528.915 L28.3562 528.915 L28.3562 524.618 L18.2347 524.618 L18.2347 518.73 Z" fill="#000000" fill-rule="nonzero" fill-opacity="1" /><path clip-path="url(#clip350)" d="M463.616 12.096 L498.373 12.096 L498.373 18.9825 L471.799 18.9825 L471.799 36.8065 L495.78 36.8065 L495.78 43.6931 L471.799 43.6931 L471.799 72.576 L463.616 72.576 L463.616 12.096 Z" fill="#000000" fill-rule="nonzero" fill-opacity="1" /><path clip-path="url(#clip350)" d="M524.015 49.7694 Q514.981 49.7694 511.498 51.8354 Q508.014 53.9013 508.014 58.8839 Q508.014 62.8538 510.606 65.2034 Q513.239 67.5124 517.736 67.5124 Q523.934 67.5124 527.661 63.1374 Q531.428 58.7219 531.428 51.4303 L531.428 49.7694 L524.015 49.7694 M538.882 46.6907 L538.882 72.576 L531.428 72.576 L531.428 65.6895 Q528.876 69.8214 525.068 71.8063 Q521.26 73.7508 515.751 73.7508 Q508.783 73.7508 504.652 69.8619 Q500.56 65.9325 500.56 59.3701 Q500.56 51.7138 505.664 47.825 Q510.809 43.9361 520.977 43.9361 L531.428 43.9361 L531.428 43.2069 Q531.428 38.0623 528.025 35.2672 Q524.663 32.4315 518.546 32.4315 Q514.657 32.4315 510.971 33.3632 Q507.285 34.295 503.882 36.1584 L503.882 29.2718 Q507.973 27.692 511.822 26.9223 Q515.67 26.1121 519.316 26.1121 Q529.159 26.1121 534.021 31.2163 Q538.882 36.3204 538.882 46.6907 Z" fill="#000000" fill-rule="nonzero" fill-opacity="1" /><path clip-path="url(#clip350)" d="M554.235 27.2059 L561.688 27.2059 L561.688 72.576 L554.235 72.576 L554.235 27.2059 M554.235 9.54393 L561.688 9.54393 L561.688 18.9825 L554.235 18.9825 L554.235 9.54393 Z" fill="#000000" fill-rule="nonzero" fill-opacity="1" /><path clip-path="url(#clip350)" d="M603.575 34.1734 Q602.319 33.4443 600.82 33.1202 Q599.362 32.7556 597.579 32.7556 Q591.26 32.7556 587.857 36.8875 Q584.495 40.9789 584.495 48.6757 L584.495 72.576 L577.001 72.576 L577.001 27.2059 L584.495 27.2059 L584.495 34.2544 Q586.844 30.1225 590.612 28.1376 Q594.379 26.1121 599.767 26.1121 Q600.536 26.1121 601.468 26.2337 Q602.4 26.3147 603.534 26.5172 L603.575 34.1734 Z" fill="#000000" fill-rule="nonzero" fill-opacity="1" /><path clip-path="url(#clip350)" d="M638.088 12.096 L646.271 12.096 L646.271 65.6895 L675.721 65.6895 L675.721 72.576 L638.088 72.576 L638.088 12.096 Z" fill="#000000" fill-rule="nonzero" fill-opacity="1" /><path clip-path="url(#clip350)" d="M700.108 32.4315 Q694.112 32.4315 690.629 37.1306 Q687.145 41.7891 687.145 49.9314 Q687.145 58.0738 690.588 62.7728 Q694.072 67.4314 700.108 67.4314 Q706.062 67.4314 709.546 62.7323 Q713.03 58.0333 713.03 49.9314 Q713.03 41.8701 709.546 37.1711 Q706.062 32.4315 700.108 32.4315 M700.108 26.1121 Q709.83 26.1121 715.38 32.4315 Q720.929 38.7509 720.929 49.9314 Q720.929 61.0714 715.38 67.4314 Q709.83 73.7508 700.108 73.7508 Q690.345 73.7508 684.795 67.4314 Q679.286 61.0714 679.286 49.9314 Q679.286 38.7509 684.795 32.4315 Q690.345 26.1121 700.108 26.1121 Z" fill="#000000" fill-rule="nonzero" fill-opacity="1" /><path clip-path="url(#clip350)" d="M753.904 49.7694 Q744.87 49.7694 741.386 51.8354 Q737.903 53.9013 737.903 58.8839 Q737.903 62.8538 740.495 65.2034 Q743.128 67.5124 747.625 67.5124 Q753.823 67.5124 757.549 63.1374 Q761.317 58.7219 761.317 51.4303 L761.317 49.7694 L753.904 49.7694 M768.77 46.6907 L768.77 72.576 L761.317 72.576 L761.317 65.6895 Q758.765 69.8214 754.957 71.8063 Q751.149 73.7508 745.64 73.7508 Q738.672 73.7508 734.54 69.8619 Q730.449 65.9325 730.449 59.3701 Q730.449 51.7138 735.553 47.825 Q740.698 43.9361 750.865 43.9361 L761.317 43.9361 L761.317 43.2069 Q761.317 38.0623 757.914 35.2672 Q754.552 32.4315 748.435 32.4315 Q744.546 32.4315 740.86 33.3632 Q737.173 34.295 733.771 36.1584 L733.771 29.2718 Q737.862 27.692 741.71 26.9223 Q745.559 26.1121 749.205 26.1121 Q759.048 26.1121 763.909 31.2163 Q768.77 36.3204 768.77 46.6907 Z" fill="#000000" fill-rule="nonzero" fill-opacity="1" /><path clip-path="url(#clip350)" d="M813.979 34.0924 L813.979 9.54393 L821.432 9.54393 L821.432 72.576 L813.979 72.576 L813.979 65.7705 Q811.629 69.8214 808.024 71.8063 Q804.459 73.7508 799.436 73.7508 Q791.212 73.7508 786.027 67.1883 Q780.883 60.6258 780.883 49.9314 Q780.883 39.2371 786.027 32.6746 Q791.212 26.1121 799.436 26.1121 Q804.459 26.1121 808.024 28.0971 Q811.629 30.0415 813.979 34.0924 M788.579 49.9314 Q788.579 58.1548 791.942 62.8538 Q795.344 67.5124 801.259 67.5124 Q807.173 67.5124 810.576 62.8538 Q813.979 58.1548 813.979 49.9314 Q813.979 41.7081 810.576 37.0496 Q807.173 32.3505 801.259 32.3505 Q795.344 32.3505 791.942 37.0496 Q788.579 41.7081 788.579 49.9314 Z" fill="#000000" fill-rule="nonzero" fill-opacity="1" /><path clip-path="url(#clip350)" d="M858.093 12.096 L866.357 12.096 L879.077 63.2184 L891.756 12.096 L900.951 12.096 L913.671 63.2184 L926.351 12.096 L934.655 12.096 L919.464 72.576 L909.175 72.576 L896.414 20.0763 L883.533 72.576 L873.243 72.576 L858.093 12.096 Z" fill="#000000" fill-rule="nonzero" fill-opacity="1" /><path clip-path="url(#clip350)" d="M979.134 48.0275 L979.134 51.6733 L944.863 51.6733 Q945.349 59.3701 949.481 63.421 Q953.654 67.4314 961.067 67.4314 Q965.361 67.4314 969.371 66.3781 Q973.422 65.3249 977.392 63.2184 L977.392 70.267 Q973.382 71.9684 969.169 72.8596 Q964.956 73.7508 960.621 73.7508 Q949.765 73.7508 943.405 67.4314 Q937.086 61.1119 937.086 50.3365 Q937.086 39.1965 943.081 32.6746 Q949.117 26.1121 959.325 26.1121 Q968.48 26.1121 973.787 32.0264 Q979.134 37.9003 979.134 48.0275 M971.68 45.84 Q971.599 39.7232 968.237 36.0774 Q964.915 32.4315 959.406 32.4315 Q953.168 32.4315 949.4 35.9558 Q945.673 39.4801 945.106 45.8805 L971.68 45.84 Z" fill="#000000" fill-rule="nonzero" fill-opacity="1" /><path clip-path="url(#clip350)" d="M991.368 27.2059 L998.821 27.2059 L998.821 72.576 L991.368 72.576 L991.368 27.2059 M991.368 9.54393 L998.821 9.54393 L998.821 18.9825 L991.368 18.9825 L991.368 9.54393 Z" fill="#000000" fill-rule="nonzero" fill-opacity="1" /><path clip-path="url(#clip350)" d="M1044.27 49.3643 Q1044.27 41.2625 1040.91 36.8065 Q1037.59 32.3505 1031.55 32.3505 Q1025.56 32.3505 1022.2 36.8065 Q1018.87 41.2625 1018.87 49.3643 Q1018.87 57.4256 1022.2 61.8816 Q1025.56 66.3376 1031.55 66.3376 Q1037.59 66.3376 1040.91 61.8816 Q1044.27 57.4256 1044.27 49.3643 M1051.73 66.9452 Q1051.73 78.5308 1046.58 84.1616 Q1041.44 89.8329 1030.82 89.8329 Q1026.89 89.8329 1023.41 89.2252 Q1019.93 88.6581 1016.65 87.4428 L1016.65 80.1917 Q1019.93 81.9741 1023.13 82.8248 Q1026.33 83.6755 1029.65 83.6755 Q1036.98 83.6755 1040.63 79.8271 Q1044.27 76.0193 1044.27 68.282 L1044.27 64.5957 Q1041.96 68.6061 1038.36 70.5911 Q1034.75 72.576 1029.73 72.576 Q1021.38 72.576 1016.28 66.2161 Q1011.18 59.8562 1011.18 49.3643 Q1011.18 38.832 1016.28 32.472 Q1021.38 26.1121 1029.73 26.1121 Q1034.75 26.1121 1038.36 28.0971 Q1041.96 30.082 1044.27 34.0924 L1044.27 27.2059 L1051.73 27.2059 L1051.73 66.9452 Z" fill="#000000" fill-rule="nonzero" fill-opacity="1" /><path clip-path="url(#clip350)" d="M1104.79 45.1919 L1104.79 72.576 L1097.34 72.576 L1097.34 45.4349 Q1097.34 38.994 1094.83 35.7938 Q1092.32 32.5936 1087.29 32.5936 Q1081.26 32.5936 1077.77 36.4419 Q1074.29 40.2903 1074.29 46.9338 L1074.29 72.576 L1066.8 72.576 L1066.8 9.54393 L1074.29 9.54393 L1074.29 34.2544 Q1076.96 30.163 1080.57 28.1376 Q1084.21 26.1121 1088.95 26.1121 Q1096.77 26.1121 1100.78 30.9732 Q1104.79 35.7938 1104.79 45.1919 Z" fill="#000000" fill-rule="nonzero" fill-opacity="1" /><path clip-path="url(#clip350)" d="M1127.03 14.324 L1127.03 27.2059 L1142.39 27.2059 L1142.39 32.9987 L1127.03 32.9987 L1127.03 57.6282 Q1127.03 63.1779 1128.53 64.7578 Q1130.07 66.3376 1134.73 66.3376 L1142.39 66.3376 L1142.39 72.576 L1134.73 72.576 Q1126.1 72.576 1122.82 69.3758 Q1119.54 66.1351 1119.54 57.6282 L1119.54 32.9987 L1114.07 32.9987 L1114.07 27.2059 L1119.54 27.2059 L1119.54 14.324 L1127.03 14.324 Z" fill="#000000" fill-rule="nonzero" fill-opacity="1" /><path clip-path="url(#clip350)" d="M1181.11 28.5427 L1181.11 35.5912 Q1177.95 33.9709 1174.55 33.1607 Q1171.15 32.3505 1167.5 32.3505 Q1161.95 32.3505 1159.16 34.0519 Q1156.4 35.7533 1156.4 39.156 Q1156.4 41.7486 1158.39 43.2475 Q1160.37 44.7058 1166.37 46.0426 L1168.92 46.6097 Q1176.86 48.3111 1180.18 51.4303 Q1183.54 54.509 1183.54 60.0587 Q1183.54 66.3781 1178.52 70.0644 Q1173.54 73.7508 1164.79 73.7508 Q1161.14 73.7508 1157.17 73.0216 Q1153.24 72.3329 1148.87 70.9151 L1148.87 63.2184 Q1153 65.3654 1157.01 66.4591 Q1161.02 67.5124 1164.95 67.5124 Q1170.22 67.5124 1173.05 65.73 Q1175.89 63.9071 1175.89 60.6258 Q1175.89 57.5877 1173.82 55.9673 Q1171.79 54.3469 1164.87 52.8481 L1162.28 52.2405 Q1155.35 50.7821 1152.27 47.7845 Q1149.19 44.7463 1149.19 39.4801 Q1149.19 33.0797 1153.73 29.5959 Q1158.26 26.1121 1166.61 26.1121 Q1170.74 26.1121 1174.39 26.7198 Q1178.03 27.3274 1181.11 28.5427 Z" fill="#000000" fill-rule="nonzero" fill-opacity="1" /><path clip-path="url(#clip350)" d="M1228.99 65.7705 L1228.99 89.8329 L1221.5 89.8329 L1221.5 27.2059 L1228.99 27.2059 L1228.99 34.0924 Q1231.34 30.0415 1234.91 28.0971 Q1238.51 26.1121 1243.5 26.1121 Q1251.76 26.1121 1256.9 32.6746 Q1262.09 39.2371 1262.09 49.9314 Q1262.09 60.6258 1256.9 67.1883 Q1251.76 73.7508 1243.5 73.7508 Q1238.51 73.7508 1234.91 71.8063 Q1231.34 69.8214 1228.99 65.7705 M1254.35 49.9314 Q1254.35 41.7081 1250.95 37.0496 Q1247.59 32.3505 1241.67 32.3505 Q1235.76 32.3505 1232.36 37.0496 Q1228.99 41.7081 1228.99 49.9314 Q1228.99 58.1548 1232.36 62.8538 Q1235.76 67.5124 1241.67 67.5124 Q1247.59 67.5124 1250.95 62.8538 Q1254.35 58.1548 1254.35 49.9314 Z" fill="#000000" fill-rule="nonzero" fill-opacity="1" /><path clip-path="url(#clip350)" d="M1313.25 48.0275 L1313.25 51.6733 L1278.98 51.6733 Q1279.47 59.3701 1283.6 63.421 Q1287.77 67.4314 1295.19 67.4314 Q1299.48 67.4314 1303.49 66.3781 Q1307.54 65.3249 1311.51 63.2184 L1311.51 70.267 Q1307.5 71.9684 1303.29 72.8596 Q1299.07 73.7508 1294.74 73.7508 Q1283.88 73.7508 1277.52 67.4314 Q1271.2 61.1119 1271.2 50.3365 Q1271.2 39.1965 1277.2 32.6746 Q1283.24 26.1121 1293.44 26.1121 Q1302.6 26.1121 1307.91 32.0264 Q1313.25 37.9003 1313.25 48.0275 M1305.8 45.84 Q1305.72 39.7232 1302.36 36.0774 Q1299.03 32.4315 1293.52 32.4315 Q1287.29 32.4315 1283.52 35.9558 Q1279.79 39.4801 1279.22 45.8805 L1305.8 45.84 Z" fill="#000000" fill-rule="nonzero" fill-opacity="1" /><path clip-path="url(#clip350)" d="M1351.78 34.1734 Q1350.52 33.4443 1349.02 33.1202 Q1347.56 32.7556 1345.78 32.7556 Q1339.46 32.7556 1336.06 36.8875 Q1332.7 40.9789 1332.7 48.6757 L1332.7 72.576 L1325.2 72.576 L1325.2 27.2059 L1332.7 27.2059 L1332.7 34.2544 Q1335.05 30.1225 1338.81 28.1376 Q1342.58 26.1121 1347.97 26.1121 Q1348.74 26.1121 1349.67 26.2337 Q1350.6 26.3147 1351.74 26.5172 L1351.78 34.1734 Z" fill="#000000" fill-rule="nonzero" fill-opacity="1" /><path clip-path="url(#clip350)" d="M1386.29 12.096 L1394.47 12.096 L1394.47 65.6895 L1423.92 65.6895 L1423.92 72.576 L1386.29 72.576 L1386.29 12.096 Z" fill="#000000" fill-rule="nonzero" fill-opacity="1" /><path clip-path="url(#clip350)" d="M1448.31 32.4315 Q1442.31 32.4315 1438.83 37.1306 Q1435.35 41.7891 1435.35 49.9314 Q1435.35 58.0738 1438.79 62.7728 Q1442.27 67.4314 1448.31 67.4314 Q1454.26 67.4314 1457.75 62.7323 Q1461.23 58.0333 1461.23 49.9314 Q1461.23 41.8701 1457.75 37.1711 Q1454.26 32.4315 1448.31 32.4315 M1448.31 26.1121 Q1458.03 26.1121 1463.58 32.4315 Q1469.13 38.7509 1469.13 49.9314 Q1469.13 61.0714 1463.58 67.4314 Q1458.03 73.7508 1448.31 73.7508 Q1438.55 73.7508 1433 67.4314 Q1427.49 61.0714 1427.49 49.9314 Q1427.49 38.7509 1433 32.4315 Q1438.55 26.1121 1448.31 26.1121 Z" fill="#000000" fill-rule="nonzero" fill-opacity="1" /><path clip-path="url(#clip350)" d="M1502.11 49.7694 Q1493.07 49.7694 1489.59 51.8354 Q1486.1 53.9013 1486.1 58.8839 Q1486.1 62.8538 1488.7 65.2034 Q1491.33 67.5124 1495.83 67.5124 Q1502.02 67.5124 1505.75 63.1374 Q1509.52 58.7219 1509.52 51.4303 L1509.52 49.7694 L1502.11 49.7694 M1516.97 46.6907 L1516.97 72.576 L1509.52 72.576 L1509.52 65.6895 Q1506.97 69.8214 1503.16 71.8063 Q1499.35 73.7508 1493.84 73.7508 Q1486.87 73.7508 1482.74 69.8619 Q1478.65 65.9325 1478.65 59.3701 Q1478.65 51.7138 1483.76 47.825 Q1488.9 43.9361 1499.07 43.9361 L1509.52 43.9361 L1509.52 43.2069 Q1509.52 38.0623 1506.12 35.2672 Q1502.75 32.4315 1496.64 32.4315 Q1492.75 32.4315 1489.06 33.3632 Q1485.38 34.295 1481.97 36.1584 L1481.97 29.2718 Q1486.06 27.692 1489.91 26.9223 Q1493.76 26.1121 1497.41 26.1121 Q1507.25 26.1121 1512.11 31.2163 Q1516.97 36.3204 1516.97 46.6907 Z" fill="#000000" fill-rule="nonzero" fill-opacity="1" /><path clip-path="url(#clip350)" d="M1562.18 34.0924 L1562.18 9.54393 L1569.63 9.54393 L1569.63 72.576 L1562.18 72.576 L1562.18 65.7705 Q1559.83 69.8214 1556.23 71.8063 Q1552.66 73.7508 1547.64 73.7508 Q1539.41 73.7508 1534.23 67.1883 Q1529.08 60.6258 1529.08 49.9314 Q1529.08 39.2371 1534.23 32.6746 Q1539.41 26.1121 1547.64 26.1121 Q1552.66 26.1121 1556.23 28.0971 Q1559.83 30.0415 1562.18 34.0924 M1536.78 49.9314 Q1536.78 58.1548 1540.14 62.8538 Q1543.55 67.5124 1549.46 67.5124 Q1555.38 67.5124 1558.78 62.8538 Q1562.18 58.1548 1562.18 49.9314 Q1562.18 41.7081 1558.78 37.0496 Q1555.38 32.3505 1549.46 32.3505 Q1543.55 32.3505 1540.14 37.0496 Q1536.78 41.7081 1536.78 49.9314 Z" fill="#000000" fill-rule="nonzero" fill-opacity="1" /><path clip-path="url(#clip350)" d="M1607.59 46.5287 L1629.43 46.5287 L1629.43 53.1722 L1607.59 53.1722 L1607.59 46.5287 Z" fill="#000000" fill-rule="nonzero" fill-opacity="1" /><path clip-path="url(#clip350)" d="M1667.99 12.096 L1676.17 12.096 L1676.17 72.576 L1667.99 72.576 L1667.99 12.096 Z" fill="#000000" fill-rule="nonzero" fill-opacity="1" /><path clip-path="url(#clip350)" d="M1699.51 14.324 L1699.51 27.2059 L1714.86 27.2059 L1714.86 32.9987 L1699.51 32.9987 L1699.51 57.6282 Q1699.51 63.1779 1701.01 64.7578 Q1702.54 66.3376 1707.2 66.3376 L1714.86 66.3376 L1714.86 72.576 L1707.2 72.576 Q1698.57 72.576 1695.29 69.3758 Q1692.01 66.1351 1692.01 57.6282 L1692.01 32.9987 L1686.54 32.9987 L1686.54 27.2059 L1692.01 27.2059 L1692.01 14.324 L1699.51 14.324 Z" fill="#000000" fill-rule="nonzero" fill-opacity="1" /><path clip-path="url(#clip350)" d="M1763.47 48.0275 L1763.47 51.6733 L1729.2 51.6733 Q1729.69 59.3701 1733.82 63.421 Q1737.99 67.4314 1745.4 67.4314 Q1749.7 67.4314 1753.71 66.3781 Q1757.76 65.3249 1761.73 63.2184 L1761.73 70.267 Q1757.72 71.9684 1753.5 72.8596 Q1749.29 73.7508 1744.96 73.7508 Q1734.1 73.7508 1727.74 67.4314 Q1721.42 61.1119 1721.42 50.3365 Q1721.42 39.1965 1727.42 32.6746 Q1733.45 26.1121 1743.66 26.1121 Q1752.82 26.1121 1758.12 32.0264 Q1763.47 37.9003 1763.47 48.0275 M1756.02 45.84 Q1755.94 39.7232 1752.57 36.0774 Q1749.25 32.4315 1743.74 32.4315 Q1737.5 32.4315 1733.74 35.9558 Q1730.01 39.4801 1729.44 45.8805 L1756.02 45.84 Z" fill="#000000" fill-rule="nonzero" fill-opacity="1" /><path clip-path="url(#clip350)" d="M1801.99 34.1734 Q1800.74 33.4443 1799.24 33.1202 Q1797.78 32.7556 1796 32.7556 Q1789.68 32.7556 1786.28 36.8875 Q1782.91 40.9789 1782.91 48.6757 L1782.91 72.576 L1775.42 72.576 L1775.42 27.2059 L1782.91 27.2059 L1782.91 34.2544 Q1785.26 30.1225 1789.03 28.1376 Q1792.8 26.1121 1798.19 26.1121 Q1798.96 26.1121 1799.89 26.2337 Q1800.82 26.3147 1801.95 26.5172 L1801.99 34.1734 Z" fill="#000000" fill-rule="nonzero" fill-opacity="1" /><path clip-path="url(#clip350)" d="M1830.43 49.7694 Q1821.4 49.7694 1817.91 51.8354 Q1814.43 53.9013 1814.43 58.8839 Q1814.43 62.8538 1817.02 65.2034 Q1819.66 67.5124 1824.15 67.5124 Q1830.35 67.5124 1834.08 63.1374 Q1837.84 58.7219 1837.84 51.4303 L1837.84 49.7694 L1830.43 49.7694 M1845.3 46.6907 L1845.3 72.576 L1837.84 72.576 L1837.84 65.6895 Q1835.29 69.8214 1831.48 71.8063 Q1827.68 73.7508 1822.17 73.7508 Q1815.2 73.7508 1811.07 69.8619 Q1806.98 65.9325 1806.98 59.3701 Q1806.98 51.7138 1812.08 47.825 Q1817.23 43.9361 1827.39 43.9361 L1837.84 43.9361 L1837.84 43.2069 Q1837.84 38.0623 1834.44 35.2672 Q1831.08 32.4315 1824.96 32.4315 Q1821.07 32.4315 1817.39 33.3632 Q1813.7 34.295 1810.3 36.1584 L1810.3 29.2718 Q1814.39 27.692 1818.24 26.9223 Q1822.09 26.1121 1825.73 26.1121 Q1835.58 26.1121 1840.44 31.2163 Q1845.3 36.3204 1845.3 46.6907 Z" fill="#000000" fill-rule="nonzero" fill-opacity="1" /><path clip-path="url(#clip350)" d="M1868.02 14.324 L1868.02 27.2059 L1883.38 27.2059 L1883.38 32.9987 L1868.02 32.9987 L1868.02 57.6282 Q1868.02 63.1779 1869.52 64.7578 Q1871.06 66.3376 1875.72 66.3376 L1883.38 66.3376 L1883.38 72.576 L1875.72 72.576 Q1867.09 72.576 1863.81 69.3758 Q1860.53 66.1351 1860.53 57.6282 L1860.53 32.9987 L1855.06 32.9987 L1855.06 27.2059 L1860.53 27.2059 L1860.53 14.324 L1868.02 14.324 Z" fill="#000000" fill-rule="nonzero" fill-opacity="1" /><path clip-path="url(#clip350)" d="M1893.18 27.2059 L1900.63 27.2059 L1900.63 72.576 L1893.18 72.576 L1893.18 27.2059 M1893.18 9.54393 L1900.63 9.54393 L1900.63 18.9825 L1893.18 18.9825 L1893.18 9.54393 Z" fill="#000000" fill-rule="nonzero" fill-opacity="1" /><path clip-path="url(#clip350)" d="M1933.81 32.4315 Q1927.82 32.4315 1924.33 37.1306 Q1920.85 41.7891 1920.85 49.9314 Q1920.85 58.0738 1924.29 62.7728 Q1927.77 67.4314 1933.81 67.4314 Q1939.77 67.4314 1943.25 62.7323 Q1946.73 58.0333 1946.73 49.9314 Q1946.73 41.8701 1943.25 37.1711 Q1939.77 32.4315 1933.81 32.4315 M1933.81 26.1121 Q1943.53 26.1121 1949.08 32.4315 Q1954.63 38.7509 1954.63 49.9314 Q1954.63 61.0714 1949.08 67.4314 Q1943.53 73.7508 1933.81 73.7508 Q1924.05 73.7508 1918.5 67.4314 Q1912.99 61.0714 1912.99 49.9314 Q1912.99 38.7509 1918.5 32.4315 Q1924.05 26.1121 1933.81 26.1121 Z" fill="#000000" fill-rule="nonzero" fill-opacity="1" /><path clip-path="url(#clip350)" d="M2004.7 45.1919 L2004.7 72.576 L1997.25 72.576 L1997.25 45.4349 Q1997.25 38.994 1994.74 35.7938 Q1992.22 32.5936 1987.2 32.5936 Q1981.17 32.5936 1977.68 36.4419 Q1974.2 40.2903 1974.2 46.9338 L1974.2 72.576 L1966.7 72.576 L1966.7 27.2059 L1974.2 27.2059 L1974.2 34.2544 Q1976.87 30.163 1980.48 28.1376 Q1984.12 26.1121 1988.86 26.1121 Q1996.68 26.1121 2000.69 30.9732 Q2004.7 35.7938 2004.7 45.1919 Z" fill="#000000" fill-rule="nonzero" fill-opacity="1" /><path clip-path="url(#clip350)" d="M2048.41 65.6895 L2061.78 65.6895 L2061.78 19.5497 L2047.24 22.4663 L2047.24 15.0127 L2061.7 12.096 L2069.88 12.096 L2069.88 65.6895 L2083.25 65.6895 L2083.25 72.576 L2048.41 72.576 L2048.41 65.6895 Z" fill="#000000" fill-rule="nonzero" fill-opacity="1" /><path clip-path="url(#clip350)" d="M2097.71 12.096 L2136.6 12.096 L2136.6 15.5798 L2114.64 72.576 L2106.1 72.576 L2126.76 18.9825 L2097.71 18.9825 L2097.71 12.096 Z" fill="#000000" fill-rule="nonzero" fill-opacity="1" /><path clip-path="url(#clip352)" d="M869.661 126.889 L869.661 1423.18 L970.943 1423.18 L970.943 126.889 L869.661 126.889 L869.661 126.889  Z" fill="#009af9" fill-rule="evenodd" fill-opacity="1"/>
<polyline clip-path="url(#clip352)" style="stroke:#000000; stroke-linecap:round; stroke-linejoin:round; stroke-width:4; stroke-opacity:1; fill:none" points="869.661,126.889 869.661,1423.18 970.943,1423.18 970.943,126.889 869.661,126.889 "/>
<path clip-path="url(#clip352)" d="M1755.87 1423.18 L1755.87 1423.18 L1857.16 1423.18 L1857.16 1423.18 L1755.87 1423.18 L1755.87 1423.18  Z" fill="#009af9" fill-rule="evenodd" fill-opacity="1"/>
<polyline clip-path="url(#clip352)" style="stroke:#000000; stroke-linecap:round; stroke-linejoin:round; stroke-width:4; stroke-opacity:1; fill:none" points="1755.87,1423.18 1755.87,1423.18 1857.16,1423.18 1857.16,1423.18 1755.87,1423.18 "/>
<path clip-path="url(#clip352)" d="M1249.47 123.472 L1249.47 1423.18 L1350.75 1423.18 L1350.75 123.472 L1249.47 123.472 L1249.47 123.472  Z" fill="#009af9" fill-rule="evenodd" fill-opacity="1"/>
<polyline clip-path="url(#clip352)" style="stroke:#000000; stroke-linecap:round; stroke-linejoin:round; stroke-width:4; stroke-opacity:1; fill:none" points="1249.47,123.472 1249.47,1423.18 1350.75,1423.18 1350.75,123.472 1249.47,123.472 "/>
<path clip-path="url(#clip352)" d="M363.254 1423.18 L363.254 1423.18 L464.535 1423.18 L464.535 1423.18 L363.254 1423.18 L363.254 1423.18  Z" fill="#009af9" fill-rule="evenodd" fill-opacity="1"/>
<polyline clip-path="url(#clip352)" style="stroke:#000000; stroke-linecap:round; stroke-linejoin:round; stroke-width:4; stroke-opacity:1; fill:none" points="363.254,1423.18 363.254,1423.18 464.535,1423.18 464.535,1423.18 363.254,1423.18 "/>
<path clip-path="url(#clip352)" d="M996.263 125.838 L996.263 1423.18 L1097.54 1423.18 L1097.54 125.838 L996.263 125.838 L996.263 125.838  Z" fill="#009af9" fill-rule="evenodd" fill-opacity="1"/>
<polyline clip-path="url(#clip352)" style="stroke:#000000; stroke-linecap:round; stroke-linejoin:round; stroke-width:4; stroke-opacity:1; fill:none" points="996.263,125.838 996.263,1423.18 1097.54,1423.18 1097.54,125.838 996.263,125.838 "/>
<path clip-path="url(#clip352)" d="M1629.27 1423.18 L1629.27 1423.18 L1730.55 1423.18 L1730.55 1423.18 L1629.27 1423.18 L1629.27 1423.18  Z" fill="#009af9" fill-rule="evenodd" fill-opacity="1"/>
<polyline clip-path="url(#clip352)" style="stroke:#000000; stroke-linecap:round; stroke-linejoin:round; stroke-width:4; stroke-opacity:1; fill:none" points="1629.27,1423.18 1629.27,1423.18 1730.55,1423.18 1730.55,1423.18 1629.27,1423.18 "/>
<path clip-path="url(#clip352)" d="M1376.07 1423.18 L1376.07 1423.18 L1477.35 1423.18 L1477.35 1423.18 L1376.07 1423.18 L1376.07 1423.18  Z" fill="#009af9" fill-rule="evenodd" fill-opacity="1"/>
<polyline clip-path="url(#clip352)" style="stroke:#000000; stroke-linecap:round; stroke-linejoin:round; stroke-width:4; stroke-opacity:1; fill:none" points="1376.07,1423.18 1376.07,1423.18 1477.35,1423.18 1477.35,1423.18 1376.07,1423.18 "/>
<path clip-path="url(#clip352)" d="M2009.08 123.472 L2009.08 1423.18 L2110.36 1423.18 L2110.36 123.472 L2009.08 123.472 L2009.08 123.472  Z" fill="#009af9" fill-rule="evenodd" fill-opacity="1"/>
<polyline clip-path="url(#clip352)" style="stroke:#000000; stroke-linecap:round; stroke-linejoin:round; stroke-width:4; stroke-opacity:1; fill:none" points="2009.08,123.472 2009.08,1423.18 2110.36,1423.18 2110.36,123.472 2009.08,123.472 "/>
<path clip-path="url(#clip352)" d="M616.457 123.507 L616.457 1423.18 L717.739 1423.18 L717.739 123.507 L616.457 123.507 L616.457 123.507  Z" fill="#009af9" fill-rule="evenodd" fill-opacity="1"/>
<polyline clip-path="url(#clip352)" style="stroke:#000000; stroke-linecap:round; stroke-linejoin:round; stroke-width:4; stroke-opacity:1; fill:none" points="616.457,123.507 616.457,1423.18 717.739,1423.18 717.739,123.507 616.457,123.507 "/>
<path clip-path="url(#clip352)" d="M1122.86 126.513 L1122.86 1423.18 L1224.15 1423.18 L1224.15 126.513 L1122.86 126.513 L1122.86 126.513  Z" fill="#009af9" fill-rule="evenodd" fill-opacity="1"/>
<polyline clip-path="url(#clip352)" style="stroke:#000000; stroke-linecap:round; stroke-linejoin:round; stroke-width:4; stroke-opacity:1; fill:none" points="1122.86,126.513 1122.86,1423.18 1224.15,1423.18 1224.15,126.513 1122.86,126.513 "/>
<path clip-path="url(#clip352)" d="M743.059 400.794 L743.059 1423.18 L844.341 1423.18 L844.341 400.794 L743.059 400.794 L743.059 400.794  Z" fill="#009af9" fill-rule="evenodd" fill-opacity="1"/>
<polyline clip-path="url(#clip352)" style="stroke:#000000; stroke-linecap:round; stroke-linejoin:round; stroke-width:4; stroke-opacity:1; fill:none" points="743.059,400.794 743.059,1423.18 844.341,1423.18 844.341,400.794 743.059,400.794 "/>
<path clip-path="url(#clip352)" d="M1882.48 1423.18 L1882.48 1423.18 L1983.76 1423.18 L1983.76 1423.18 L1882.48 1423.18 L1882.48 1423.18  Z" fill="#009af9" fill-rule="evenodd" fill-opacity="1"/>
<polyline clip-path="url(#clip352)" style="stroke:#000000; stroke-linecap:round; stroke-linejoin:round; stroke-width:4; stroke-opacity:1; fill:none" points="1882.48,1423.18 1882.48,1423.18 1983.76,1423.18 1983.76,1423.18 1882.48,1423.18 "/>
<path clip-path="url(#clip352)" d="M2135.68 126.502 L2135.68 1423.18 L2236.96 1423.18 L2236.96 126.502 L2135.68 126.502 L2135.68 126.502  Z" fill="#009af9" fill-rule="evenodd" fill-opacity="1"/>
<polyline clip-path="url(#clip352)" style="stroke:#000000; stroke-linecap:round; stroke-linejoin:round; stroke-width:4; stroke-opacity:1; fill:none" points="2135.68,126.502 2135.68,1423.18 2236.96,1423.18 2236.96,126.502 2135.68,126.502 "/>
<path clip-path="url(#clip352)" d="M489.856 1423.18 L489.856 1423.18 L591.137 1423.18 L591.137 1423.18 L489.856 1423.18 L489.856 1423.18  Z" fill="#009af9" fill-rule="evenodd" fill-opacity="1"/>
<polyline clip-path="url(#clip352)" style="stroke:#000000; stroke-linecap:round; stroke-linejoin:round; stroke-width:4; stroke-opacity:1; fill:none" points="489.856,1423.18 489.856,1423.18 591.137,1423.18 591.137,1423.18 489.856,1423.18 "/>
<path clip-path="url(#clip352)" d="M1502.67 123.472 L1502.67 1423.18 L1603.95 1423.18 L1603.95 123.472 L1502.67 123.472 L1502.67 123.472  Z" fill="#009af9" fill-rule="evenodd" fill-opacity="1"/>
<polyline clip-path="url(#clip352)" style="stroke:#000000; stroke-linecap:round; stroke-linejoin:round; stroke-width:4; stroke-opacity:1; fill:none" points="1502.67,123.472 1502.67,1423.18 1603.95,1423.18 1603.95,123.472 1502.67,123.472 "/>
<circle clip-path="url(#clip352)" style="fill:#009af9; stroke:none; fill-opacity:0" cx="920.302" cy="126.889" r="2"/>
<circle clip-path="url(#clip352)" style="fill:#009af9; stroke:none; fill-opacity:0" cx="1806.51" cy="1423.18" r="2"/>
<circle clip-path="url(#clip352)" style="fill:#009af9; stroke:none; fill-opacity:0" cx="1300.11" cy="123.472" r="2"/>
<circle clip-path="url(#clip352)" style="fill:#009af9; stroke:none; fill-opacity:0" cx="413.895" cy="1423.18" r="2"/>
<circle clip-path="url(#clip352)" style="fill:#009af9; stroke:none; fill-opacity:0" cx="1046.9" cy="125.838" r="2"/>
<circle clip-path="url(#clip352)" style="fill:#009af9; stroke:none; fill-opacity:0" cx="1679.91" cy="1423.18" r="2"/>
<circle clip-path="url(#clip352)" style="fill:#009af9; stroke:none; fill-opacity:0" cx="1426.71" cy="1423.18" r="2"/>
<circle clip-path="url(#clip352)" style="fill:#009af9; stroke:none; fill-opacity:0" cx="2059.72" cy="123.472" r="2"/>
<circle clip-path="url(#clip352)" style="fill:#009af9; stroke:none; fill-opacity:0" cx="667.098" cy="123.507" r="2"/>
<circle clip-path="url(#clip352)" style="fill:#009af9; stroke:none; fill-opacity:0" cx="1173.51" cy="126.513" r="2"/>
<circle clip-path="url(#clip352)" style="fill:#009af9; stroke:none; fill-opacity:0" cx="793.7" cy="400.794" r="2"/>
<circle clip-path="url(#clip352)" style="fill:#009af9; stroke:none; fill-opacity:0" cx="1933.12" cy="1423.18" r="2"/>
<circle clip-path="url(#clip352)" style="fill:#009af9; stroke:none; fill-opacity:0" cx="2186.32" cy="126.502" r="2"/>
<circle clip-path="url(#clip352)" style="fill:#009af9; stroke:none; fill-opacity:0" cx="540.496" cy="1423.18" r="2"/>
<circle clip-path="url(#clip352)" style="fill:#009af9; stroke:none; fill-opacity:0" cx="1553.31" cy="123.472" r="2"/>
</svg>
