<?xml version="1.0" encoding="utf-8"?>
<svg xmlns="http://www.w3.org/2000/svg" xmlns:xlink="http://www.w3.org/1999/xlink" width="600" height="400" viewBox="0 0 2400 1600">
<defs>
  <clipPath id="clip200">
    <rect x="0" y="0" width="2400" height="1600"/>
  </clipPath>
</defs>
<path clip-path="url(#clip200)" d="M0 1600 L2400 1600 L2400 0 L0 0  Z" fill="#ffffff" fill-rule="evenodd" fill-opacity="1"/>
<defs>
  <clipPath id="clip201">
    <rect x="480" y="0" width="1681" height="1600"/>
  </clipPath>
</defs>
<path clip-path="url(#clip200)" d="M262.551 1423.18 L2352.76 1423.18 L2352.76 123.472 L262.551 123.472  Z" fill="#ffffff" fill-rule="evenodd" fill-opacity="1"/>
<defs>
  <clipPath id="clip202">
    <rect x="262" y="123" width="2091" height="1301"/>
  </clipPath>
</defs>
<polyline clip-path="url(#clip202)" style="stroke:#000000; stroke-linecap:round; stroke-linejoin:round; stroke-width:2; stroke-opacity:0.1; fill:none" points="675.723,1423.18 675.723,123.472 "/>
<polyline clip-path="url(#clip202)" style="stroke:#000000; stroke-linecap:round; stroke-linejoin:round; stroke-width:2; stroke-opacity:0.1; fill:none" points="1093.34,1423.18 1093.34,123.472 "/>
<polyline clip-path="url(#clip202)" style="stroke:#000000; stroke-linecap:round; stroke-linejoin:round; stroke-width:2; stroke-opacity:0.1; fill:none" points="1510.95,1423.18 1510.95,123.472 "/>
<polyline clip-path="url(#clip202)" style="stroke:#000000; stroke-linecap:round; stroke-linejoin:round; stroke-width:2; stroke-opacity:0.1; fill:none" points="1928.57,1423.18 1928.57,123.472 "/>
<polyline clip-path="url(#clip202)" style="stroke:#000000; stroke-linecap:round; stroke-linejoin:round; stroke-width:2; stroke-opacity:0.1; fill:none" points="2346.19,1423.18 2346.19,123.472 "/>
<polyline clip-path="url(#clip202)" style="stroke:#000000; stroke-linecap:round; stroke-linejoin:round; stroke-width:2; stroke-opacity:0.1; fill:none" points="262.551,1166.27 2352.76,1166.27 "/>
<polyline clip-path="url(#clip202)" style="stroke:#000000; stroke-linecap:round; stroke-linejoin:round; stroke-width:2; stroke-opacity:0.1; fill:none" points="262.551,906.589 2352.76,906.589 "/>
<polyline clip-path="url(#clip202)" style="stroke:#000000; stroke-linecap:round; stroke-linejoin:round; stroke-width:2; stroke-opacity:0.1; fill:none" points="262.551,646.912 2352.76,646.912 "/>
<polyline clip-path="url(#clip202)" style="stroke:#000000; stroke-linecap:round; stroke-linejoin:round; stroke-width:2; stroke-opacity:0.1; fill:none" points="262.551,387.234 2352.76,387.234 "/>
<polyline clip-path="url(#clip202)" style="stroke:#000000; stroke-linecap:round; stroke-linejoin:round; stroke-width:2; stroke-opacity:0.1; fill:none" points="262.551,127.557 2352.76,127.557 "/>
<polyline clip-path="url(#clip200)" style="stroke:#000000; stroke-linecap:round; stroke-linejoin:round; stroke-width:4; stroke-opacity:1; fill:none" points="262.551,1423.18 2352.76,1423.18 "/>
<polyline clip-path="url(#clip200)" style="stroke:#000000; stroke-linecap:round; stroke-linejoin:round; stroke-width:4; stroke-opacity:1; fill:none" points="675.723,1423.18 675.723,1404.28 "/>
<polyline clip-path="url(#clip200)" style="stroke:#000000; stroke-linecap:round; stroke-linejoin:round; stroke-width:4; stroke-opacity:1; fill:none" points="1093.34,1423.18 1093.34,1404.28 "/>
<polyline clip-path="url(#clip200)" style="stroke:#000000; stroke-linecap:round; stroke-linejoin:round; stroke-width:4; stroke-opacity:1; fill:none" points="1510.95,1423.18 1510.95,1404.28 "/>
<polyline clip-path="url(#clip200)" style="stroke:#000000; stroke-linecap:round; stroke-linejoin:round; stroke-width:4; stroke-opacity:1; fill:none" points="1928.57,1423.18 1928.57,1404.28 "/>
<polyline clip-path="url(#clip200)" style="stroke:#000000; stroke-linecap:round; stroke-linejoin:round; stroke-width:4; stroke-opacity:1; fill:none" points="2346.19,1423.18 2346.19,1404.28 "/>
<path clip-path="url(#clip200)" d="M646.047 1466.44 Q642.899 1466.44 641.047 1468.59 Q639.218 1470.74 639.218 1474.49 Q639.218 1478.22 641.047 1480.39 Q642.899 1482.55 646.047 1482.55 Q649.195 1482.55 651.024 1480.39 Q652.876 1478.22 652.876 1474.49 Q652.876 1470.74 651.024 1468.59 Q649.195 1466.44 646.047 1466.44 M655.329 1451.78 L655.329 1456.04 Q653.57 1455.21 651.765 1454.77 Q649.982 1454.33 648.223 1454.33 Q643.593 1454.33 641.14 1457.45 Q638.709 1460.58 638.362 1466.9 Q639.728 1464.89 641.788 1463.82 Q643.848 1462.73 646.325 1462.73 Q651.533 1462.73 654.542 1465.9 Q657.575 1469.05 657.575 1474.49 Q657.575 1479.82 654.427 1483.03 Q651.278 1486.25 646.047 1486.25 Q640.052 1486.25 636.88 1481.67 Q633.709 1477.06 633.709 1468.33 Q633.709 1460.14 637.598 1455.28 Q641.487 1450.39 648.038 1450.39 Q649.797 1450.39 651.579 1450.74 Q653.385 1451.09 655.329 1451.78 Z" fill="#000000" fill-rule="nonzero" fill-opacity="1" /><path clip-path="url(#clip200)" d="M675.63 1454.1 Q672.019 1454.1 670.19 1457.66 Q668.385 1461.2 668.385 1468.33 Q668.385 1475.44 670.19 1479.01 Q672.019 1482.55 675.63 1482.55 Q679.264 1482.55 681.07 1479.01 Q682.899 1475.44 682.899 1468.33 Q682.899 1461.2 681.07 1457.66 Q679.264 1454.1 675.63 1454.1 M675.63 1450.39 Q681.44 1450.39 684.496 1455 Q687.575 1459.58 687.575 1468.33 Q687.575 1477.06 684.496 1481.67 Q681.44 1486.25 675.63 1486.25 Q669.82 1486.25 666.741 1481.67 Q663.686 1477.06 663.686 1468.33 Q663.686 1459.58 666.741 1455 Q669.82 1450.39 675.63 1450.39 Z" fill="#000000" fill-rule="nonzero" fill-opacity="1" /><path clip-path="url(#clip200)" d="M705.792 1454.1 Q702.181 1454.1 700.352 1457.66 Q698.547 1461.2 698.547 1468.33 Q698.547 1475.44 700.352 1479.01 Q702.181 1482.55 705.792 1482.55 Q709.426 1482.55 711.232 1479.01 Q713.061 1475.44 713.061 1468.33 Q713.061 1461.2 711.232 1457.66 Q709.426 1454.1 705.792 1454.1 M705.792 1450.39 Q711.602 1450.39 714.658 1455 Q717.736 1459.58 717.736 1468.33 Q717.736 1477.06 714.658 1481.67 Q711.602 1486.25 705.792 1486.25 Q699.982 1486.25 696.903 1481.67 Q693.848 1477.06 693.848 1468.33 Q693.848 1459.58 696.903 1455 Q699.982 1450.39 705.792 1450.39 Z" fill="#000000" fill-rule="nonzero" fill-opacity="1" /><path clip-path="url(#clip200)" d="M1053.39 1484.86 L1053.39 1480.6 Q1055.14 1481.44 1056.95 1481.88 Q1058.76 1482.32 1060.49 1482.32 Q1065.12 1482.32 1067.55 1479.21 Q1070.01 1476.09 1070.35 1469.75 Q1069.01 1471.74 1066.95 1472.8 Q1064.89 1473.87 1062.39 1473.87 Q1057.2 1473.87 1054.17 1470.74 Q1051.16 1467.59 1051.16 1462.15 Q1051.16 1456.83 1054.31 1453.61 Q1057.46 1450.39 1062.69 1450.39 Q1068.69 1450.39 1071.83 1455 Q1075.01 1459.58 1075.01 1468.33 Q1075.01 1476.51 1071.12 1481.39 Q1067.25 1486.25 1060.7 1486.25 Q1058.94 1486.25 1057.14 1485.9 Q1055.33 1485.56 1053.39 1484.86 M1062.69 1470.21 Q1065.84 1470.21 1067.67 1468.06 Q1069.52 1465.9 1069.52 1462.15 Q1069.52 1458.43 1067.67 1456.27 Q1065.84 1454.1 1062.69 1454.1 Q1059.54 1454.1 1057.69 1456.27 Q1055.86 1458.43 1055.86 1462.15 Q1055.86 1465.9 1057.69 1468.06 Q1059.54 1470.21 1062.69 1470.21 Z" fill="#000000" fill-rule="nonzero" fill-opacity="1" /><path clip-path="url(#clip200)" d="M1093.41 1454.1 Q1089.8 1454.1 1087.97 1457.66 Q1086.16 1461.2 1086.16 1468.33 Q1086.16 1475.44 1087.97 1479.01 Q1089.8 1482.55 1093.41 1482.55 Q1097.04 1482.55 1098.85 1479.01 Q1100.68 1475.44 1100.68 1468.33 Q1100.68 1461.2 1098.85 1457.66 Q1097.04 1454.1 1093.41 1454.1 M1093.41 1450.39 Q1099.22 1450.39 1102.27 1455 Q1105.35 1459.58 1105.35 1468.33 Q1105.35 1477.06 1102.27 1481.67 Q1099.22 1486.25 1093.41 1486.25 Q1087.6 1486.25 1084.52 1481.67 Q1081.46 1477.06 1081.46 1468.33 Q1081.46 1459.58 1084.52 1455 Q1087.6 1450.39 1093.41 1450.39 Z" fill="#000000" fill-rule="nonzero" fill-opacity="1" /><path clip-path="url(#clip200)" d="M1123.57 1454.1 Q1119.96 1454.1 1118.13 1457.66 Q1116.32 1461.2 1116.32 1468.33 Q1116.32 1475.44 1118.13 1479.01 Q1119.96 1482.55 1123.57 1482.55 Q1127.2 1482.55 1129.01 1479.01 Q1130.84 1475.44 1130.84 1468.33 Q1130.84 1461.2 1129.01 1457.66 Q1127.2 1454.1 1123.57 1454.1 M1123.57 1450.39 Q1129.38 1450.39 1132.44 1455 Q1135.51 1459.58 1135.51 1468.33 Q1135.51 1477.06 1132.44 1481.67 Q1129.38 1486.25 1123.57 1486.25 Q1117.76 1486.25 1114.68 1481.67 Q1111.63 1477.06 1111.63 1468.33 Q1111.63 1459.58 1114.68 1455 Q1117.76 1450.39 1123.57 1450.39 Z" fill="#000000" fill-rule="nonzero" fill-opacity="1" /><path clip-path="url(#clip200)" d="M1455.48 1481.64 L1463.12 1481.64 L1463.12 1455.28 L1454.81 1456.95 L1454.81 1452.69 L1463.07 1451.02 L1467.75 1451.02 L1467.75 1481.64 L1475.39 1481.64 L1475.39 1485.58 L1455.48 1485.58 L1455.48 1481.64 Z" fill="#000000" fill-rule="nonzero" fill-opacity="1" /><path clip-path="url(#clip200)" d="M1488.86 1481.64 L1505.18 1481.64 L1505.18 1485.58 L1483.23 1485.58 L1483.23 1481.64 Q1485.9 1478.89 1490.48 1474.26 Q1495.09 1469.61 1496.27 1468.27 Q1498.51 1465.74 1499.39 1464.01 Q1500.29 1462.25 1500.29 1460.56 Q1500.29 1457.8 1498.35 1456.07 Q1496.43 1454.33 1493.33 1454.33 Q1491.13 1454.33 1488.67 1455.09 Q1486.24 1455.86 1483.47 1457.41 L1483.47 1452.69 Q1486.29 1451.55 1488.74 1450.97 Q1491.2 1450.39 1493.23 1450.39 Q1498.6 1450.39 1501.8 1453.08 Q1504.99 1455.77 1504.99 1460.26 Q1504.99 1462.39 1504.18 1464.31 Q1503.4 1466.2 1501.29 1468.8 Q1500.71 1469.47 1497.61 1472.69 Q1494.51 1475.88 1488.86 1481.64 Z" fill="#000000" fill-rule="nonzero" fill-opacity="1" /><path clip-path="url(#clip200)" d="M1524.99 1454.1 Q1521.38 1454.1 1519.55 1457.66 Q1517.75 1461.2 1517.75 1468.33 Q1517.75 1475.44 1519.55 1479.01 Q1521.38 1482.55 1524.99 1482.55 Q1528.63 1482.55 1530.43 1479.01 Q1532.26 1475.44 1532.26 1468.33 Q1532.26 1461.2 1530.43 1457.66 Q1528.63 1454.1 1524.99 1454.1 M1524.99 1450.39 Q1530.8 1450.39 1533.86 1455 Q1536.94 1459.58 1536.94 1468.33 Q1536.94 1477.06 1533.86 1481.67 Q1530.8 1486.25 1524.99 1486.25 Q1519.18 1486.25 1516.1 1481.67 Q1513.05 1477.06 1513.05 1468.33 Q1513.05 1459.58 1516.1 1455 Q1519.18 1450.39 1524.99 1450.39 Z" fill="#000000" fill-rule="nonzero" fill-opacity="1" /><path clip-path="url(#clip200)" d="M1555.16 1454.1 Q1551.54 1454.1 1549.72 1457.66 Q1547.91 1461.2 1547.91 1468.33 Q1547.91 1475.44 1549.72 1479.01 Q1551.54 1482.55 1555.16 1482.55 Q1558.79 1482.55 1560.6 1479.01 Q1562.42 1475.44 1562.42 1468.33 Q1562.42 1461.2 1560.6 1457.66 Q1558.79 1454.1 1555.16 1454.1 M1555.16 1450.39 Q1560.97 1450.39 1564.02 1455 Q1567.1 1459.58 1567.1 1468.33 Q1567.1 1477.06 1564.02 1481.67 Q1560.97 1486.25 1555.16 1486.25 Q1549.35 1486.25 1546.27 1481.67 Q1543.21 1477.06 1543.21 1468.33 Q1543.21 1459.58 1546.27 1455 Q1549.35 1450.39 1555.16 1450.39 Z" fill="#000000" fill-rule="nonzero" fill-opacity="1" /><path clip-path="url(#clip200)" d="M1873.1 1481.64 L1880.73 1481.64 L1880.73 1455.28 L1872.42 1456.95 L1872.42 1452.69 L1880.69 1451.02 L1885.36 1451.02 L1885.36 1481.64 L1893 1481.64 L1893 1485.58 L1873.1 1485.58 L1873.1 1481.64 Z" fill="#000000" fill-rule="nonzero" fill-opacity="1" /><path clip-path="url(#clip200)" d="M1902.49 1451.02 L1920.85 1451.02 L1920.85 1454.96 L1906.78 1454.96 L1906.78 1463.43 Q1907.79 1463.08 1908.81 1462.92 Q1909.83 1462.73 1910.85 1462.73 Q1916.64 1462.73 1920.02 1465.9 Q1923.4 1469.08 1923.4 1474.49 Q1923.4 1480.07 1919.92 1483.17 Q1916.45 1486.25 1910.13 1486.25 Q1907.96 1486.25 1905.69 1485.88 Q1903.44 1485.51 1901.04 1484.77 L1901.04 1480.07 Q1903.12 1481.2 1905.34 1481.76 Q1907.56 1482.32 1910.04 1482.32 Q1914.04 1482.32 1916.38 1480.21 Q1918.72 1478.1 1918.72 1474.49 Q1918.72 1470.88 1916.38 1468.77 Q1914.04 1466.67 1910.04 1466.67 Q1908.17 1466.67 1906.29 1467.08 Q1904.44 1467.5 1902.49 1468.38 L1902.49 1451.02 Z" fill="#000000" fill-rule="nonzero" fill-opacity="1" /><path clip-path="url(#clip200)" d="M1942.61 1454.1 Q1939 1454.1 1937.17 1457.66 Q1935.36 1461.2 1935.36 1468.33 Q1935.36 1475.44 1937.17 1479.01 Q1939 1482.55 1942.61 1482.55 Q1946.24 1482.55 1948.05 1479.01 Q1949.88 1475.44 1949.88 1468.33 Q1949.88 1461.2 1948.05 1457.66 Q1946.24 1454.1 1942.61 1454.1 M1942.61 1450.39 Q1948.42 1450.39 1951.48 1455 Q1954.55 1459.58 1954.55 1468.33 Q1954.55 1477.06 1951.48 1481.67 Q1948.42 1486.25 1942.61 1486.25 Q1936.8 1486.25 1933.72 1481.67 Q1930.67 1477.06 1930.67 1468.33 Q1930.67 1459.58 1933.72 1455 Q1936.8 1450.39 1942.61 1450.39 Z" fill="#000000" fill-rule="nonzero" fill-opacity="1" /><path clip-path="url(#clip200)" d="M1972.77 1454.1 Q1969.16 1454.1 1967.33 1457.66 Q1965.53 1461.2 1965.53 1468.33 Q1965.53 1475.44 1967.33 1479.01 Q1969.16 1482.55 1972.77 1482.55 Q1976.41 1482.55 1978.21 1479.01 Q1980.04 1475.44 1980.04 1468.33 Q1980.04 1461.2 1978.21 1457.66 Q1976.41 1454.1 1972.77 1454.1 M1972.77 1450.39 Q1978.58 1450.39 1981.64 1455 Q1984.72 1459.58 1984.72 1468.33 Q1984.72 1477.06 1981.64 1481.67 Q1978.58 1486.25 1972.77 1486.25 Q1966.96 1486.25 1963.88 1481.67 Q1960.83 1477.06 1960.83 1468.33 Q1960.83 1459.58 1963.88 1455 Q1966.96 1450.39 1972.77 1450.39 Z" fill="#000000" fill-rule="nonzero" fill-opacity="1" /><path clip-path="url(#clip200)" d="M2290.71 1481.64 L2298.35 1481.64 L2298.35 1455.28 L2290.04 1456.95 L2290.04 1452.69 L2298.3 1451.02 L2302.98 1451.02 L2302.98 1481.64 L2310.62 1481.64 L2310.62 1485.58 L2290.71 1485.58 L2290.71 1481.64 Z" fill="#000000" fill-rule="nonzero" fill-opacity="1" /><path clip-path="url(#clip200)" d="M2330.06 1469.17 Q2326.73 1469.17 2324.81 1470.95 Q2322.91 1472.73 2322.91 1475.86 Q2322.91 1478.98 2324.81 1480.77 Q2326.73 1482.55 2330.06 1482.55 Q2333.4 1482.55 2335.32 1480.77 Q2337.24 1478.96 2337.24 1475.86 Q2337.24 1472.73 2335.32 1470.95 Q2333.42 1469.17 2330.06 1469.17 M2325.39 1467.18 Q2322.38 1466.44 2320.69 1464.38 Q2319.02 1462.32 2319.02 1459.35 Q2319.02 1455.21 2321.96 1452.8 Q2324.92 1450.39 2330.06 1450.39 Q2335.23 1450.39 2338.17 1452.8 Q2341.11 1455.21 2341.11 1459.35 Q2341.11 1462.32 2339.42 1464.38 Q2337.75 1466.44 2334.76 1467.18 Q2338.14 1467.96 2340.02 1470.26 Q2341.92 1472.55 2341.92 1475.86 Q2341.92 1480.88 2338.84 1483.57 Q2335.78 1486.25 2330.06 1486.25 Q2324.35 1486.25 2321.27 1483.57 Q2318.21 1480.88 2318.21 1475.86 Q2318.21 1472.55 2320.11 1470.26 Q2322.01 1467.96 2325.39 1467.18 M2323.67 1459.79 Q2323.67 1462.48 2325.34 1463.98 Q2327.03 1465.49 2330.06 1465.49 Q2333.07 1465.49 2334.76 1463.98 Q2336.48 1462.48 2336.48 1459.79 Q2336.48 1457.11 2334.76 1455.6 Q2333.07 1454.1 2330.06 1454.1 Q2327.03 1454.1 2325.34 1455.6 Q2323.67 1457.11 2323.67 1459.79 Z" fill="#000000" fill-rule="nonzero" fill-opacity="1" /><path clip-path="url(#clip200)" d="M2360.23 1454.1 Q2356.61 1454.1 2354.79 1457.66 Q2352.98 1461.2 2352.98 1468.33 Q2352.98 1475.44 2354.79 1479.01 Q2356.61 1482.55 2360.23 1482.55 Q2363.86 1482.55 2365.67 1479.01 Q2367.49 1475.44 2367.49 1468.33 Q2367.49 1461.2 2365.67 1457.66 Q2363.86 1454.1 2360.23 1454.1 M2360.23 1450.39 Q2366.04 1450.39 2369.09 1455 Q2372.17 1459.58 2372.17 1468.33 Q2372.17 1477.06 2369.09 1481.67 Q2366.04 1486.25 2360.23 1486.25 Q2354.42 1486.25 2351.34 1481.67 Q2348.28 1477.06 2348.28 1468.33 Q2348.28 1459.58 2351.34 1455 Q2354.42 1450.39 2360.23 1450.39 Z" fill="#000000" fill-rule="nonzero" fill-opacity="1" /><path clip-path="url(#clip200)" d="M2390.39 1454.1 Q2386.78 1454.1 2384.95 1457.66 Q2383.14 1461.2 2383.14 1468.33 Q2383.14 1475.44 2384.95 1479.01 Q2386.78 1482.55 2390.39 1482.55 Q2394.02 1482.55 2395.83 1479.01 Q2397.66 1475.44 2397.66 1468.33 Q2397.66 1461.2 2395.83 1457.66 Q2394.02 1454.1 2390.39 1454.1 M2390.39 1450.39 Q2396.2 1450.39 2399.25 1455 Q2402.33 1459.58 2402.33 1468.33 Q2402.33 1477.06 2399.25 1481.67 Q2396.2 1486.25 2390.39 1486.25 Q2384.58 1486.25 2381.5 1481.67 Q2378.44 1477.06 2378.44 1468.33 Q2378.44 1459.58 2381.5 1455 Q2384.58 1450.39 2390.39 1450.39 Z" fill="#000000" fill-rule="nonzero" fill-opacity="1" /><path clip-path="url(#clip200)" d="M852.426 1520.52 L858.855 1520.52 L858.855 1562.63 L881.995 1562.63 L881.995 1568.04 L852.426 1568.04 L852.426 1520.52 Z" fill="#000000" fill-rule="nonzero" fill-opacity="1" /><path clip-path="url(#clip200)" d="M901.155 1536.5 Q896.445 1536.5 893.708 1540.19 Q890.97 1543.85 890.97 1550.25 Q890.97 1556.65 893.676 1560.34 Q896.413 1564 901.155 1564 Q905.834 1564 908.572 1560.31 Q911.309 1556.62 911.309 1550.25 Q911.309 1543.92 908.572 1540.23 Q905.834 1536.5 901.155 1536.5 M901.155 1531.54 Q908.794 1531.54 913.155 1536.5 Q917.515 1541.47 917.515 1550.25 Q917.515 1559 913.155 1564 Q908.794 1568.97 901.155 1568.97 Q893.485 1568.97 889.124 1564 Q884.796 1559 884.796 1550.25 Q884.796 1541.47 889.124 1536.5 Q893.485 1531.54 901.155 1531.54 Z" fill="#000000" fill-rule="nonzero" fill-opacity="1" /><path clip-path="url(#clip200)" d="M923.817 1532.4 L929.674 1532.4 L936.994 1560.21 L944.283 1532.4 L951.19 1532.4 L958.51 1560.21 L965.799 1532.4 L971.656 1532.4 L962.33 1568.04 L955.423 1568.04 L947.752 1538.83 L940.05 1568.04 L933.143 1568.04 L923.817 1532.4 Z" fill="#000000" fill-rule="nonzero" fill-opacity="1" /><path clip-path="url(#clip200)" d="M1011.03 1548.76 L1011.03 1551.62 L984.101 1551.62 Q984.483 1557.67 987.729 1560.85 Q991.007 1564 996.832 1564 Q1000.21 1564 1003.36 1563.17 Q1006.54 1562.35 1009.66 1560.69 L1009.66 1566.23 Q1006.51 1567.57 1003.2 1568.27 Q999.888 1568.97 996.482 1568.97 Q987.952 1568.97 982.955 1564 Q977.99 1559.04 977.99 1550.57 Q977.99 1541.82 982.7 1536.69 Q987.443 1531.54 995.463 1531.54 Q1002.66 1531.54 1006.83 1536.18 Q1011.03 1540.8 1011.03 1548.76 M1005.17 1547.04 Q1005.11 1542.23 1002.47 1539.37 Q999.856 1536.5 995.527 1536.5 Q990.625 1536.5 987.665 1539.27 Q984.737 1542.04 984.292 1547.07 L1005.17 1547.04 Z" fill="#000000" fill-rule="nonzero" fill-opacity="1" /><path clip-path="url(#clip200)" d="M1041.3 1537.87 Q1040.31 1537.3 1039.13 1537.04 Q1037.99 1536.76 1036.59 1536.76 Q1031.62 1536.76 1028.95 1540 Q1026.31 1543.22 1026.31 1549.27 L1026.31 1568.04 L1020.42 1568.04 L1020.42 1532.4 L1026.31 1532.4 L1026.31 1537.93 Q1028.15 1534.69 1031.11 1533.13 Q1034.07 1531.54 1038.3 1531.54 Q1038.91 1531.54 1039.64 1531.63 Q1040.37 1531.7 1041.26 1531.85 L1041.3 1537.87 Z" fill="#000000" fill-rule="nonzero" fill-opacity="1" /><path clip-path="url(#clip200)" d="M1040.31 1547.58 L1057.47 1547.58 L1057.47 1552.8 L1040.31 1552.8 L1040.31 1547.58 Z" fill="#000000" fill-rule="nonzero" fill-opacity="1" /><path clip-path="url(#clip200)" d="M1067.05 1520.52 L1073.48 1520.52 L1073.48 1562.63 L1096.61 1562.63 L1096.61 1568.04 L1067.05 1568.04 L1067.05 1520.52 Z" fill="#000000" fill-rule="nonzero" fill-opacity="1" /><path clip-path="url(#clip200)" d="M1132.45 1548.76 L1132.45 1551.62 L1105.53 1551.62 Q1105.91 1557.67 1109.15 1560.85 Q1112.43 1564 1118.26 1564 Q1121.63 1564 1124.78 1563.17 Q1127.97 1562.35 1131.08 1560.69 L1131.08 1566.23 Q1127.93 1567.57 1124.62 1568.27 Q1121.31 1568.97 1117.91 1568.97 Q1109.38 1568.97 1104.38 1564 Q1099.42 1559.04 1099.42 1550.57 Q1099.42 1541.82 1104.13 1536.69 Q1108.87 1531.54 1116.89 1531.54 Q1124.08 1531.54 1128.25 1536.18 Q1132.45 1540.8 1132.45 1548.76 M1126.6 1547.04 Q1126.53 1542.23 1123.89 1539.37 Q1121.28 1536.5 1116.95 1536.5 Q1112.05 1536.5 1109.09 1539.27 Q1106.16 1542.04 1105.72 1547.07 L1126.6 1547.04 Z" fill="#000000" fill-rule="nonzero" fill-opacity="1" /><path clip-path="url(#clip200)" d="M1137.86 1532.4 L1144.07 1532.4 L1155.21 1562.31 L1166.35 1532.4 L1172.56 1532.4 L1159.19 1568.04 L1151.23 1568.04 L1137.86 1532.4 Z" fill="#000000" fill-rule="nonzero" fill-opacity="1" /><path clip-path="url(#clip200)" d="M1211.13 1548.76 L1211.13 1551.62 L1184.21 1551.62 Q1184.59 1557.67 1187.84 1560.85 Q1191.11 1564 1196.94 1564 Q1200.31 1564 1203.46 1563.17 Q1206.65 1562.35 1209.76 1560.69 L1209.76 1566.23 Q1206.61 1567.57 1203.3 1568.27 Q1199.99 1568.97 1196.59 1568.97 Q1188.06 1568.97 1183.06 1564 Q1178.1 1559.04 1178.1 1550.57 Q1178.1 1541.82 1182.81 1536.69 Q1187.55 1531.54 1195.57 1531.54 Q1202.76 1531.54 1206.93 1536.18 Q1211.13 1540.8 1211.13 1548.76 M1205.28 1547.04 Q1205.21 1542.23 1202.57 1539.37 Q1199.96 1536.5 1195.63 1536.5 Q1190.73 1536.5 1187.77 1539.27 Q1184.84 1542.04 1184.4 1547.07 L1205.28 1547.04 Z" fill="#000000" fill-rule="nonzero" fill-opacity="1" /><path clip-path="url(#clip200)" d="M1220.75 1518.52 L1226.6 1518.52 L1226.6 1568.04 L1220.75 1568.04 L1220.75 1518.52 Z" fill="#000000" fill-rule="nonzero" fill-opacity="1" /><path clip-path="url(#clip200)" d="M1259.83 1520.52 L1266.26 1520.52 L1266.26 1562.63 L1289.4 1562.63 L1289.4 1568.04 L1259.83 1568.04 L1259.83 1520.52 Z" fill="#000000" fill-rule="nonzero" fill-opacity="1" /><path clip-path="url(#clip200)" d="M1308.56 1536.5 Q1303.85 1536.5 1301.11 1540.19 Q1298.38 1543.85 1298.38 1550.25 Q1298.38 1556.65 1301.08 1560.34 Q1303.82 1564 1308.56 1564 Q1313.24 1564 1315.98 1560.31 Q1318.71 1556.62 1318.71 1550.25 Q1318.71 1543.92 1315.98 1540.23 Q1313.24 1536.5 1308.56 1536.5 M1308.56 1531.54 Q1316.2 1531.54 1320.56 1536.5 Q1324.92 1541.47 1324.92 1550.25 Q1324.92 1559 1320.56 1564 Q1316.2 1568.97 1308.56 1568.97 Q1300.89 1568.97 1296.53 1564 Q1292.2 1559 1292.2 1550.25 Q1292.2 1541.47 1296.53 1536.5 Q1300.89 1531.54 1308.56 1531.54 Z" fill="#000000" fill-rule="nonzero" fill-opacity="1" /><path clip-path="url(#clip200)" d="M1350.83 1550.12 Q1343.73 1550.12 1340.99 1551.75 Q1338.26 1553.37 1338.26 1557.29 Q1338.26 1560.4 1340.29 1562.25 Q1342.36 1564.07 1345.9 1564.07 Q1350.77 1564.07 1353.69 1560.63 Q1356.65 1557.16 1356.65 1551.43 L1356.65 1550.12 L1350.83 1550.12 M1362.51 1547.71 L1362.51 1568.04 L1356.65 1568.04 L1356.65 1562.63 Q1354.65 1565.88 1351.66 1567.44 Q1348.66 1568.97 1344.34 1568.97 Q1338.86 1568.97 1335.61 1565.91 Q1332.4 1562.82 1332.4 1557.67 Q1332.4 1551.65 1336.41 1548.6 Q1340.45 1545.54 1348.44 1545.54 L1356.65 1545.54 L1356.65 1544.97 Q1356.65 1540.93 1353.98 1538.73 Q1351.34 1536.5 1346.53 1536.5 Q1343.48 1536.5 1340.58 1537.23 Q1337.68 1537.97 1335.01 1539.43 L1335.01 1534.02 Q1338.22 1532.78 1341.25 1532.17 Q1344.27 1531.54 1347.14 1531.54 Q1354.87 1531.54 1358.69 1535.55 Q1362.51 1539.56 1362.51 1547.71 Z" fill="#000000" fill-rule="nonzero" fill-opacity="1" /><path clip-path="url(#clip200)" d="M1398.03 1537.81 L1398.03 1518.52 L1403.89 1518.52 L1403.89 1568.04 L1398.03 1568.04 L1398.03 1562.7 Q1396.18 1565.88 1393.35 1567.44 Q1390.55 1568.97 1386.6 1568.97 Q1380.14 1568.97 1376.07 1563.81 Q1372.03 1558.65 1372.03 1550.25 Q1372.03 1541.85 1376.07 1536.69 Q1380.14 1531.54 1386.6 1531.54 Q1390.55 1531.54 1393.35 1533.1 Q1396.18 1534.62 1398.03 1537.81 M1378.07 1550.25 Q1378.07 1556.71 1380.72 1560.4 Q1383.39 1564.07 1388.04 1564.07 Q1392.68 1564.07 1395.36 1560.4 Q1398.03 1556.71 1398.03 1550.25 Q1398.03 1543.79 1395.36 1540.13 Q1392.68 1536.44 1388.04 1536.44 Q1383.39 1536.44 1380.72 1540.13 Q1378.07 1543.79 1378.07 1550.25 Z" fill="#000000" fill-rule="nonzero" fill-opacity="1" /><path clip-path="url(#clip200)" d="M1465.41 1522.08 L1465.41 1528.35 Q1461.75 1526.6 1458.5 1525.74 Q1455.26 1524.88 1452.23 1524.88 Q1446.98 1524.88 1444.12 1526.92 Q1441.29 1528.96 1441.29 1532.71 Q1441.29 1535.87 1443.16 1537.49 Q1445.07 1539.08 1450.36 1540.07 L1454.24 1540.86 Q1461.43 1542.23 1464.84 1545.7 Q1468.28 1549.14 1468.28 1554.93 Q1468.28 1561.84 1463.63 1565.4 Q1459.01 1568.97 1450.07 1568.97 Q1446.7 1568.97 1442.88 1568.2 Q1439.09 1567.44 1435.02 1565.94 L1435.02 1559.32 Q1438.93 1561.52 1442.69 1562.63 Q1446.44 1563.75 1450.07 1563.75 Q1455.58 1563.75 1458.57 1561.58 Q1461.56 1559.42 1461.56 1555.41 Q1461.56 1551.91 1459.4 1549.93 Q1457.26 1547.96 1452.36 1546.97 L1448.45 1546.21 Q1441.25 1544.78 1438.04 1541.72 Q1434.82 1538.67 1434.82 1533.22 Q1434.82 1526.92 1439.25 1523.29 Q1443.7 1519.66 1451.5 1519.66 Q1454.84 1519.66 1458.31 1520.27 Q1461.78 1520.87 1465.41 1522.08 Z" fill="#000000" fill-rule="nonzero" fill-opacity="1" /><path clip-path="url(#clip200)" d="M1507.68 1546.53 L1507.68 1568.04 L1501.82 1568.04 L1501.82 1546.72 Q1501.82 1541.66 1499.85 1539.14 Q1497.88 1536.63 1493.93 1536.63 Q1489.19 1536.63 1486.45 1539.65 Q1483.71 1542.68 1483.71 1547.9 L1483.71 1568.04 L1477.82 1568.04 L1477.82 1518.52 L1483.71 1518.52 L1483.71 1537.93 Q1485.81 1534.72 1488.65 1533.13 Q1491.51 1531.54 1495.24 1531.54 Q1501.38 1531.54 1504.53 1535.36 Q1507.68 1539.14 1507.68 1546.53 Z" fill="#000000" fill-rule="nonzero" fill-opacity="1" /><path clip-path="url(#clip200)" d="M1549.85 1548.76 L1549.85 1551.62 L1522.93 1551.62 Q1523.31 1557.67 1526.55 1560.85 Q1529.83 1564 1535.66 1564 Q1539.03 1564 1542.18 1563.17 Q1545.36 1562.35 1548.48 1560.69 L1548.48 1566.23 Q1545.33 1567.57 1542.02 1568.27 Q1538.71 1568.97 1535.31 1568.97 Q1526.78 1568.97 1521.78 1564 Q1516.81 1559.04 1516.81 1550.57 Q1516.81 1541.82 1521.53 1536.69 Q1526.27 1531.54 1534.29 1531.54 Q1541.48 1531.54 1545.65 1536.18 Q1549.85 1540.8 1549.85 1548.76 M1544 1547.04 Q1543.93 1542.23 1541.29 1539.37 Q1538.68 1536.5 1534.35 1536.5 Q1529.45 1536.5 1526.49 1539.27 Q1523.56 1542.04 1523.12 1547.07 L1544 1547.04 Z" fill="#000000" fill-rule="nonzero" fill-opacity="1" /><path clip-path="url(#clip200)" d="M1582.92 1537.81 L1582.92 1518.52 L1588.78 1518.52 L1588.78 1568.04 L1582.92 1568.04 L1582.92 1562.7 Q1581.08 1565.88 1578.24 1567.44 Q1575.44 1568.97 1571.5 1568.97 Q1565.03 1568.97 1560.96 1563.81 Q1556.92 1558.65 1556.92 1550.25 Q1556.92 1541.85 1560.96 1536.69 Q1565.03 1531.54 1571.5 1531.54 Q1575.44 1531.54 1578.24 1533.1 Q1581.08 1534.62 1582.92 1537.81 M1562.97 1550.25 Q1562.97 1556.71 1565.61 1560.4 Q1568.28 1564.07 1572.93 1564.07 Q1577.58 1564.07 1580.25 1560.4 Q1582.92 1556.71 1582.92 1550.25 Q1582.92 1543.79 1580.25 1540.13 Q1577.58 1536.44 1572.93 1536.44 Q1568.28 1536.44 1565.61 1540.13 Q1562.97 1543.79 1562.97 1550.25 Z" fill="#000000" fill-rule="nonzero" fill-opacity="1" /><path clip-path="url(#clip200)" d="M1635.63 1518.58 Q1631.37 1525.9 1629.3 1533.06 Q1627.23 1540.23 1627.23 1547.58 Q1627.23 1554.93 1629.3 1562.16 Q1631.4 1569.35 1635.63 1576.64 L1630.54 1576.64 Q1625.76 1569.16 1623.38 1561.93 Q1621.02 1554.71 1621.02 1547.58 Q1621.02 1540.48 1623.38 1533.29 Q1625.73 1526.09 1630.54 1518.58 L1635.63 1518.58 Z" fill="#000000" fill-rule="nonzero" fill-opacity="1" /><path clip-path="url(#clip200)" d="M1646.77 1518.52 L1652.66 1518.52 L1652.66 1547.77 L1670.13 1532.4 L1677.61 1532.4 L1658.71 1549.07 L1678.41 1568.04 L1670.77 1568.04 L1652.66 1550.63 L1652.66 1568.04 L1646.77 1568.04 L1646.77 1518.52 Z" fill="#000000" fill-rule="nonzero" fill-opacity="1" /><path clip-path="url(#clip200)" d="M1680.76 1520.52 L1687.26 1520.52 L1697.25 1560.69 L1707.21 1520.52 L1714.44 1520.52 L1724.43 1560.69 L1734.39 1520.52 L1740.92 1520.52 L1728.98 1568.04 L1720.9 1568.04 L1710.87 1526.79 L1700.75 1568.04 L1692.67 1568.04 L1680.76 1520.52 Z" fill="#000000" fill-rule="nonzero" fill-opacity="1" /><path clip-path="url(#clip200)" d="M1748.27 1518.58 L1753.36 1518.58 Q1758.14 1526.09 1760.49 1533.29 Q1762.88 1540.48 1762.88 1547.58 Q1762.88 1554.71 1760.49 1561.93 Q1758.14 1569.16 1753.36 1576.64 L1748.27 1576.64 Q1752.51 1569.35 1754.57 1562.16 Q1756.67 1554.93 1756.67 1547.58 Q1756.67 1540.23 1754.57 1533.06 Q1752.51 1525.9 1748.27 1518.58 Z" fill="#000000" fill-rule="nonzero" fill-opacity="1" /><polyline clip-path="url(#clip200)" style="stroke:#000000; stroke-linecap:round; stroke-linejoin:round; stroke-width:4; stroke-opacity:1; fill:none" points="262.551,1423.18 262.551,123.472 "/>
<polyline clip-path="url(#clip200)" style="stroke:#000000; stroke-linecap:round; stroke-linejoin:round; stroke-width:4; stroke-opacity:1; fill:none" points="262.551,1166.27 281.449,1166.27 "/>
<polyline clip-path="url(#clip200)" style="stroke:#000000; stroke-linecap:round; stroke-linejoin:round; stroke-width:4; stroke-opacity:1; fill:none" points="262.551,906.589 281.449,906.589 "/>
<polyline clip-path="url(#clip200)" style="stroke:#000000; stroke-linecap:round; stroke-linejoin:round; stroke-width:4; stroke-opacity:1; fill:none" points="262.551,646.912 281.449,646.912 "/>
<polyline clip-path="url(#clip200)" style="stroke:#000000; stroke-linecap:round; stroke-linejoin:round; stroke-width:4; stroke-opacity:1; fill:none" points="262.551,387.234 281.449,387.234 "/>
<polyline clip-path="url(#clip200)" style="stroke:#000000; stroke-linecap:round; stroke-linejoin:round; stroke-width:4; stroke-opacity:1; fill:none" points="262.551,127.557 281.449,127.557 "/>
<path clip-path="url(#clip200)" d="M154.862 1164.4 Q151.714 1164.4 149.862 1166.56 Q148.033 1168.71 148.033 1172.46 Q148.033 1176.19 149.862 1178.36 Q151.714 1180.51 154.862 1180.51 Q158.01 1180.51 159.839 1178.36 Q161.69 1176.19 161.69 1172.46 Q161.69 1168.71 159.839 1166.56 Q158.01 1164.4 154.862 1164.4 M164.144 1149.75 L164.144 1154.01 Q162.385 1153.18 160.579 1152.74 Q158.797 1152.3 157.038 1152.3 Q152.408 1152.3 149.954 1155.42 Q147.524 1158.55 147.177 1164.87 Q148.542 1162.85 150.603 1161.79 Q152.663 1160.7 155.14 1160.7 Q160.348 1160.7 163.357 1163.87 Q166.39 1167.02 166.39 1172.46 Q166.39 1177.78 163.241 1181 Q160.093 1184.22 154.862 1184.22 Q148.866 1184.22 145.695 1179.63 Q142.524 1175.03 142.524 1166.3 Q142.524 1158.11 146.413 1153.25 Q150.302 1148.36 156.853 1148.36 Q158.612 1148.36 160.394 1148.71 Q162.2 1149.06 164.144 1149.75 Z" fill="#000000" fill-rule="nonzero" fill-opacity="1" /><path clip-path="url(#clip200)" d="M184.445 1152.06 Q180.834 1152.06 179.005 1155.63 Q177.2 1159.17 177.2 1166.3 Q177.2 1173.41 179.005 1176.97 Q180.834 1180.51 184.445 1180.51 Q188.079 1180.51 189.885 1176.97 Q191.713 1173.41 191.713 1166.3 Q191.713 1159.17 189.885 1155.63 Q188.079 1152.06 184.445 1152.06 M184.445 1148.36 Q190.255 1148.36 193.311 1152.97 Q196.389 1157.55 196.389 1166.3 Q196.389 1175.03 193.311 1179.63 Q190.255 1184.22 184.445 1184.22 Q178.635 1184.22 175.556 1179.63 Q172.501 1175.03 172.501 1166.3 Q172.501 1157.55 175.556 1152.97 Q178.635 1148.36 184.445 1148.36 Z" fill="#000000" fill-rule="nonzero" fill-opacity="1" /><path clip-path="url(#clip200)" d="M214.607 1152.06 Q210.996 1152.06 209.167 1155.63 Q207.362 1159.17 207.362 1166.3 Q207.362 1173.41 209.167 1176.97 Q210.996 1180.51 214.607 1180.51 Q218.241 1180.51 220.047 1176.97 Q221.875 1173.41 221.875 1166.3 Q221.875 1159.17 220.047 1155.63 Q218.241 1152.06 214.607 1152.06 M214.607 1148.36 Q220.417 1148.36 223.473 1152.97 Q226.551 1157.55 226.551 1166.3 Q226.551 1175.03 223.473 1179.63 Q220.417 1184.22 214.607 1184.22 Q208.797 1184.22 205.718 1179.63 Q202.662 1175.03 202.662 1166.3 Q202.662 1157.55 205.718 1152.97 Q208.797 1148.36 214.607 1148.36 Z" fill="#000000" fill-rule="nonzero" fill-opacity="1" /><path clip-path="url(#clip200)" d="M144.422 923.151 L144.422 918.892 Q146.181 919.725 147.987 920.165 Q149.792 920.605 151.528 920.605 Q156.158 920.605 158.589 917.503 Q161.042 914.378 161.39 908.036 Q160.047 910.026 157.987 911.091 Q155.927 912.156 153.427 912.156 Q148.241 912.156 145.209 909.031 Q142.2 905.883 142.2 900.443 Q142.2 895.119 145.348 891.902 Q148.496 888.684 153.728 888.684 Q159.723 888.684 162.871 893.29 Q166.042 897.874 166.042 906.624 Q166.042 914.795 162.153 919.679 Q158.288 924.54 151.737 924.54 Q149.978 924.54 148.172 924.193 Q146.366 923.846 144.422 923.151 M153.728 908.499 Q156.876 908.499 158.704 906.346 Q160.556 904.193 160.556 900.443 Q160.556 896.716 158.704 894.564 Q156.876 892.388 153.728 892.388 Q150.579 892.388 148.728 894.564 Q146.899 896.716 146.899 900.443 Q146.899 904.193 148.728 906.346 Q150.579 908.499 153.728 908.499 Z" fill="#000000" fill-rule="nonzero" fill-opacity="1" /><path clip-path="url(#clip200)" d="M184.445 892.388 Q180.834 892.388 179.005 895.952 Q177.2 899.494 177.2 906.624 Q177.2 913.73 179.005 917.295 Q180.834 920.837 184.445 920.837 Q188.079 920.837 189.885 917.295 Q191.713 913.73 191.713 906.624 Q191.713 899.494 189.885 895.952 Q188.079 892.388 184.445 892.388 M184.445 888.684 Q190.255 888.684 193.311 893.29 Q196.389 897.874 196.389 906.624 Q196.389 915.35 193.311 919.957 Q190.255 924.54 184.445 924.54 Q178.635 924.54 175.556 919.957 Q172.501 915.35 172.501 906.624 Q172.501 897.874 175.556 893.29 Q178.635 888.684 184.445 888.684 Z" fill="#000000" fill-rule="nonzero" fill-opacity="1" /><path clip-path="url(#clip200)" d="M214.607 892.388 Q210.996 892.388 209.167 895.952 Q207.362 899.494 207.362 906.624 Q207.362 913.73 209.167 917.295 Q210.996 920.837 214.607 920.837 Q218.241 920.837 220.047 917.295 Q221.875 913.73 221.875 906.624 Q221.875 899.494 220.047 895.952 Q218.241 892.388 214.607 892.388 M214.607 888.684 Q220.417 888.684 223.473 893.29 Q226.551 897.874 226.551 906.624 Q226.551 915.35 223.473 919.957 Q220.417 924.54 214.607 924.54 Q208.797 924.54 205.718 919.957 Q202.662 915.35 202.662 906.624 Q202.662 897.874 205.718 893.29 Q208.797 888.684 214.607 888.684 Z" fill="#000000" fill-rule="nonzero" fill-opacity="1" /><path clip-path="url(#clip200)" d="M114.931 660.257 L122.57 660.257 L122.57 633.891 L114.26 635.558 L114.26 631.298 L122.524 629.632 L127.2 629.632 L127.2 660.257 L134.839 660.257 L134.839 664.192 L114.931 664.192 L114.931 660.257 Z" fill="#000000" fill-rule="nonzero" fill-opacity="1" /><path clip-path="url(#clip200)" d="M148.311 660.257 L164.63 660.257 L164.63 664.192 L142.686 664.192 L142.686 660.257 Q145.348 657.502 149.931 652.872 Q154.538 648.22 155.718 646.877 Q157.964 644.354 158.843 642.618 Q159.746 640.858 159.746 639.169 Q159.746 636.414 157.802 634.678 Q155.88 632.942 152.778 632.942 Q150.579 632.942 148.126 633.706 Q145.695 634.47 142.917 636.021 L142.917 631.298 Q145.741 630.164 148.195 629.585 Q150.649 629.007 152.686 629.007 Q158.056 629.007 161.251 631.692 Q164.445 634.377 164.445 638.868 Q164.445 640.997 163.635 642.919 Q162.848 644.817 160.741 647.409 Q160.163 648.081 157.061 651.298 Q153.959 654.493 148.311 660.257 Z" fill="#000000" fill-rule="nonzero" fill-opacity="1" /><path clip-path="url(#clip200)" d="M184.445 632.71 Q180.834 632.71 179.005 636.275 Q177.2 639.817 177.2 646.946 Q177.2 654.053 179.005 657.618 Q180.834 661.159 184.445 661.159 Q188.079 661.159 189.885 657.618 Q191.713 654.053 191.713 646.946 Q191.713 639.817 189.885 636.275 Q188.079 632.71 184.445 632.71 M184.445 629.007 Q190.255 629.007 193.311 633.613 Q196.389 638.196 196.389 646.946 Q196.389 655.673 193.311 660.28 Q190.255 664.863 184.445 664.863 Q178.635 664.863 175.556 660.28 Q172.501 655.673 172.501 646.946 Q172.501 638.196 175.556 633.613 Q178.635 629.007 184.445 629.007 Z" fill="#000000" fill-rule="nonzero" fill-opacity="1" /><path clip-path="url(#clip200)" d="M214.607 632.71 Q210.996 632.71 209.167 636.275 Q207.362 639.817 207.362 646.946 Q207.362 654.053 209.167 657.618 Q210.996 661.159 214.607 661.159 Q218.241 661.159 220.047 657.618 Q221.875 654.053 221.875 646.946 Q221.875 639.817 220.047 636.275 Q218.241 632.71 214.607 632.71 M214.607 629.007 Q220.417 629.007 223.473 633.613 Q226.551 638.196 226.551 646.946 Q226.551 655.673 223.473 660.28 Q220.417 664.863 214.607 664.863 Q208.797 664.863 205.718 660.28 Q202.662 655.673 202.662 646.946 Q202.662 638.196 205.718 633.613 Q208.797 629.007 214.607 629.007 Z" fill="#000000" fill-rule="nonzero" fill-opacity="1" /><path clip-path="url(#clip200)" d="M114.931 400.579 L122.57 400.579 L122.57 374.214 L114.26 375.88 L114.26 371.621 L122.524 369.954 L127.2 369.954 L127.2 400.579 L134.839 400.579 L134.839 404.514 L114.931 404.514 L114.931 400.579 Z" fill="#000000" fill-rule="nonzero" fill-opacity="1" /><path clip-path="url(#clip200)" d="M144.329 369.954 L162.686 369.954 L162.686 373.89 L148.612 373.89 L148.612 382.362 Q149.63 382.015 150.649 381.853 Q151.667 381.667 152.686 381.667 Q158.473 381.667 161.852 384.839 Q165.232 388.01 165.232 393.427 Q165.232 399.005 161.76 402.107 Q158.288 405.186 151.968 405.186 Q149.792 405.186 147.524 404.815 Q145.279 404.445 142.871 403.704 L142.871 399.005 Q144.954 400.14 147.177 400.695 Q149.399 401.251 151.876 401.251 Q155.88 401.251 158.218 399.144 Q160.556 397.038 160.556 393.427 Q160.556 389.815 158.218 387.709 Q155.88 385.603 151.876 385.603 Q150.001 385.603 148.126 386.019 Q146.274 386.436 144.329 387.316 L144.329 369.954 Z" fill="#000000" fill-rule="nonzero" fill-opacity="1" /><path clip-path="url(#clip200)" d="M184.445 373.033 Q180.834 373.033 179.005 376.598 Q177.2 380.14 177.2 387.269 Q177.2 394.376 179.005 397.94 Q180.834 401.482 184.445 401.482 Q188.079 401.482 189.885 397.94 Q191.713 394.376 191.713 387.269 Q191.713 380.14 189.885 376.598 Q188.079 373.033 184.445 373.033 M184.445 369.329 Q190.255 369.329 193.311 373.936 Q196.389 378.519 196.389 387.269 Q196.389 395.996 193.311 400.602 Q190.255 405.186 184.445 405.186 Q178.635 405.186 175.556 400.602 Q172.501 395.996 172.501 387.269 Q172.501 378.519 175.556 373.936 Q178.635 369.329 184.445 369.329 Z" fill="#000000" fill-rule="nonzero" fill-opacity="1" /><path clip-path="url(#clip200)" d="M214.607 373.033 Q210.996 373.033 209.167 376.598 Q207.362 380.14 207.362 387.269 Q207.362 394.376 209.167 397.94 Q210.996 401.482 214.607 401.482 Q218.241 401.482 220.047 397.94 Q221.875 394.376 221.875 387.269 Q221.875 380.14 220.047 376.598 Q218.241 373.033 214.607 373.033 M214.607 369.329 Q220.417 369.329 223.473 373.936 Q226.551 378.519 226.551 387.269 Q226.551 395.996 223.473 400.602 Q220.417 405.186 214.607 405.186 Q208.797 405.186 205.718 400.602 Q202.662 395.996 202.662 387.269 Q202.662 378.519 205.718 373.936 Q208.797 369.329 214.607 369.329 Z" fill="#000000" fill-rule="nonzero" fill-opacity="1" /><path clip-path="url(#clip200)" d="M114.931 140.902 L122.57 140.902 L122.57 114.537 L114.26 116.203 L114.26 111.944 L122.524 110.277 L127.2 110.277 L127.2 140.902 L134.839 140.902 L134.839 144.837 L114.931 144.837 L114.931 140.902 Z" fill="#000000" fill-rule="nonzero" fill-opacity="1" /><path clip-path="url(#clip200)" d="M154.283 128.425 Q150.95 128.425 149.028 130.208 Q147.13 131.99 147.13 135.115 Q147.13 138.24 149.028 140.022 Q150.95 141.805 154.283 141.805 Q157.616 141.805 159.538 140.022 Q161.459 138.217 161.459 135.115 Q161.459 131.99 159.538 130.208 Q157.64 128.425 154.283 128.425 M149.607 126.435 Q146.598 125.694 144.908 123.634 Q143.241 121.574 143.241 118.611 Q143.241 114.467 146.181 112.06 Q149.144 109.652 154.283 109.652 Q159.445 109.652 162.385 112.06 Q165.325 114.467 165.325 118.611 Q165.325 121.574 163.635 123.634 Q161.968 125.694 158.982 126.435 Q162.362 127.222 164.237 129.513 Q166.135 131.805 166.135 135.115 Q166.135 140.138 163.056 142.823 Q160.001 145.509 154.283 145.509 Q148.566 145.509 145.487 142.823 Q142.431 140.138 142.431 135.115 Q142.431 131.805 144.329 129.513 Q146.228 127.222 149.607 126.435 M147.894 119.05 Q147.894 121.736 149.561 123.24 Q151.251 124.745 154.283 124.745 Q157.292 124.745 158.982 123.24 Q160.695 121.736 160.695 119.05 Q160.695 116.365 158.982 114.861 Q157.292 113.356 154.283 113.356 Q151.251 113.356 149.561 114.861 Q147.894 116.365 147.894 119.05 Z" fill="#000000" fill-rule="nonzero" fill-opacity="1" /><path clip-path="url(#clip200)" d="M184.445 113.356 Q180.834 113.356 179.005 116.921 Q177.2 120.462 177.2 127.592 Q177.2 134.698 179.005 138.263 Q180.834 141.805 184.445 141.805 Q188.079 141.805 189.885 138.263 Q191.713 134.698 191.713 127.592 Q191.713 120.462 189.885 116.921 Q188.079 113.356 184.445 113.356 M184.445 109.652 Q190.255 109.652 193.311 114.259 Q196.389 118.842 196.389 127.592 Q196.389 136.319 193.311 140.925 Q190.255 145.509 184.445 145.509 Q178.635 145.509 175.556 140.925 Q172.501 136.319 172.501 127.592 Q172.501 118.842 175.556 114.259 Q178.635 109.652 184.445 109.652 Z" fill="#000000" fill-rule="nonzero" fill-opacity="1" /><path clip-path="url(#clip200)" d="M214.607 113.356 Q210.996 113.356 209.167 116.921 Q207.362 120.462 207.362 127.592 Q207.362 134.698 209.167 138.263 Q210.996 141.805 214.607 141.805 Q218.241 141.805 220.047 138.263 Q221.875 134.698 221.875 127.592 Q221.875 120.462 220.047 116.921 Q218.241 113.356 214.607 113.356 M214.607 109.652 Q220.417 109.652 223.473 114.259 Q226.551 118.842 226.551 127.592 Q226.551 136.319 223.473 140.925 Q220.417 145.509 214.607 145.509 Q208.797 145.509 205.718 140.925 Q202.662 136.319 202.662 127.592 Q202.662 118.842 205.718 114.259 Q208.797 109.652 214.607 109.652 Z" fill="#000000" fill-rule="nonzero" fill-opacity="1" /><path clip-path="url(#clip200)" d="M16.4842 1229.97 L16.4842 1223.51 L45.3526 1223.51 Q52.9915 1223.51 56.3653 1220.74 Q59.7073 1217.97 59.7073 1211.76 Q59.7073 1205.59 56.3653 1202.82 Q52.9915 1200.05 45.3526 1200.05 L16.4842 1200.05 L16.4842 1193.59 L46.1484 1193.59 Q55.4423 1193.59 60.1847 1198.21 Q64.9272 1202.79 64.9272 1211.76 Q64.9272 1220.77 60.1847 1225.39 Q55.4423 1229.97 46.1484 1229.97 L16.4842 1229.97 Z" fill="#000000" fill-rule="nonzero" fill-opacity="1" /><path clip-path="url(#clip200)" d="M58.657 1176.12 L77.5631 1176.12 L77.5631 1182 L28.3562 1182 L28.3562 1176.12 L33.7671 1176.12 Q30.5842 1174.27 29.0564 1171.47 Q27.4968 1168.64 27.4968 1164.72 Q27.4968 1158.23 32.6531 1154.19 Q37.8093 1150.11 46.212 1150.11 Q54.6147 1150.11 59.771 1154.19 Q64.9272 1158.23 64.9272 1164.72 Q64.9272 1168.64 63.3994 1171.47 Q61.8398 1174.27 58.657 1176.12 M46.212 1156.19 Q39.7508 1156.19 36.0905 1158.87 Q32.3984 1161.51 32.3984 1166.15 Q32.3984 1170.8 36.0905 1173.47 Q39.7508 1176.12 46.212 1176.12 Q52.6732 1176.12 56.3653 1173.47 Q60.0256 1170.8 60.0256 1166.15 Q60.0256 1161.51 56.3653 1158.87 Q52.6732 1156.19 46.212 1156.19 Z" fill="#000000" fill-rule="nonzero" fill-opacity="1" /><path clip-path="url(#clip200)" d="M58.657 1134.74 L77.5631 1134.74 L77.5631 1140.63 L28.3562 1140.63 L28.3562 1134.74 L33.7671 1134.74 Q30.5842 1132.89 29.0564 1130.09 Q27.4968 1127.26 27.4968 1123.34 Q27.4968 1116.85 32.6531 1112.81 Q37.8093 1108.74 46.212 1108.74 Q54.6147 1108.74 59.771 1112.81 Q64.9272 1116.85 64.9272 1123.34 Q64.9272 1127.26 63.3994 1130.09 Q61.8398 1132.89 58.657 1134.74 M46.212 1114.81 Q39.7508 1114.81 36.0905 1117.49 Q32.3984 1120.13 32.3984 1124.78 Q32.3984 1129.42 36.0905 1132.1 Q39.7508 1134.74 46.212 1134.74 Q52.6732 1134.74 56.3653 1132.1 Q60.0256 1129.42 60.0256 1124.78 Q60.0256 1120.13 56.3653 1117.49 Q52.6732 1114.81 46.212 1114.81 Z" fill="#000000" fill-rule="nonzero" fill-opacity="1" /><path clip-path="url(#clip200)" d="M44.7161 1068.54 L47.5806 1068.54 L47.5806 1095.46 Q53.6281 1095.08 56.8109 1091.83 Q59.9619 1088.56 59.9619 1082.73 Q59.9619 1079.36 59.1344 1076.21 Q58.3069 1073.02 56.6518 1069.9 L62.1899 1069.9 Q63.5267 1073.06 64.227 1076.37 Q64.9272 1079.68 64.9272 1083.08 Q64.9272 1091.61 59.9619 1096.61 Q54.9967 1101.57 46.5303 1101.57 Q37.7774 1101.57 32.6531 1096.86 Q27.4968 1092.12 27.4968 1084.1 Q27.4968 1076.91 32.1438 1072.74 Q36.7589 1068.54 44.7161 1068.54 M42.9973 1074.39 Q38.1912 1074.46 35.3266 1077.1 Q32.4621 1079.71 32.4621 1084.04 Q32.4621 1088.94 35.2312 1091.9 Q38.0002 1094.83 43.0292 1095.27 L42.9973 1074.39 Z" fill="#000000" fill-rule="nonzero" fill-opacity="1" /><path clip-path="url(#clip200)" d="M33.8307 1038.27 Q33.2578 1039.25 33.0032 1040.43 Q32.7167 1041.58 32.7167 1042.98 Q32.7167 1047.94 35.9632 1050.62 Q39.1779 1053.26 45.2253 1053.26 L64.0042 1053.26 L64.0042 1059.15 L28.3562 1059.15 L28.3562 1053.26 L33.8944 1053.26 Q30.6479 1051.41 29.0883 1048.45 Q27.4968 1045.49 27.4968 1041.26 Q27.4968 1040.65 27.5923 1039.92 Q27.656 1039.19 27.8151 1038.3 L33.8307 1038.27 Z" fill="#000000" fill-rule="nonzero" fill-opacity="1" /><path clip-path="url(#clip200)" d="M43.5384 1039.25 L43.5384 1022.1 L48.7583 1022.1 L48.7583 1039.25 L43.5384 1039.25 Z" fill="#000000" fill-rule="nonzero" fill-opacity="1" /><path clip-path="url(#clip200)" d="M16.4842 1012.52 L16.4842 1006.09 L58.5933 1006.09 L58.5933 982.949 L64.0042 982.949 L64.0042 1012.52 L16.4842 1012.52 Z" fill="#000000" fill-rule="nonzero" fill-opacity="1" /><path clip-path="url(#clip200)" d="M44.7161 947.11 L47.5806 947.11 L47.5806 974.037 Q53.6281 973.655 56.8109 970.408 Q59.9619 967.13 59.9619 961.305 Q59.9619 957.931 59.1344 954.78 Q58.3069 951.598 56.6518 948.478 L62.1899 948.478 Q63.5267 951.629 64.227 954.94 Q64.9272 958.25 64.9272 961.655 Q64.9272 970.185 59.9619 975.183 Q54.9967 980.148 46.5303 980.148 Q37.7774 980.148 32.6531 975.437 Q27.4968 970.695 27.4968 962.674 Q27.4968 955.481 32.1438 951.311 Q36.7589 947.11 44.7161 947.11 M42.9973 952.966 Q38.1912 953.03 35.3266 955.672 Q32.4621 958.282 32.4621 962.61 Q32.4621 967.512 35.2312 970.472 Q38.0002 973.4 43.0292 973.846 L42.9973 952.966 Z" fill="#000000" fill-rule="nonzero" fill-opacity="1" /><path clip-path="url(#clip200)" d="M28.3562 941.699 L28.3562 935.492 L58.275 924.352 L28.3562 913.212 L28.3562 907.006 L64.0042 920.374 L64.0042 928.331 L28.3562 941.699 Z" fill="#000000" fill-rule="nonzero" fill-opacity="1" /><path clip-path="url(#clip200)" d="M44.7161 868.43 L47.5806 868.43 L47.5806 895.357 Q53.6281 894.975 56.8109 891.728 Q59.9619 888.45 59.9619 882.625 Q59.9619 879.251 59.1344 876.1 Q58.3069 872.917 56.6518 869.798 L62.1899 869.798 Q63.5267 872.949 64.227 876.259 Q64.9272 879.57 64.9272 882.975 Q64.9272 891.505 59.9619 896.502 Q54.9967 901.468 46.5303 901.468 Q37.7774 901.468 32.6531 896.757 Q27.4968 892.015 27.4968 883.994 Q27.4968 876.801 32.1438 872.631 Q36.7589 868.43 44.7161 868.43 M42.9973 874.286 Q38.1912 874.35 35.3266 876.992 Q32.4621 879.601 32.4621 883.93 Q32.4621 888.832 35.2312 891.792 Q38.0002 894.72 43.0292 895.166 L42.9973 874.286 Z" fill="#000000" fill-rule="nonzero" fill-opacity="1" /><path clip-path="url(#clip200)" d="M14.479 858.817 L14.479 852.961 L64.0042 852.961 L64.0042 858.817 L14.479 858.817 Z" fill="#000000" fill-rule="nonzero" fill-opacity="1" /><path clip-path="url(#clip200)" d="M16.4842 819.732 L16.4842 813.303 L58.5933 813.303 L58.5933 790.163 L64.0042 790.163 L64.0042 819.732 L16.4842 819.732 Z" fill="#000000" fill-rule="nonzero" fill-opacity="1" /><path clip-path="url(#clip200)" d="M32.4621 771.003 Q32.4621 775.713 36.1542 778.45 Q39.8145 781.188 46.212 781.188 Q52.6095 781.188 56.3017 778.482 Q59.9619 775.745 59.9619 771.003 Q59.9619 766.324 56.2698 763.586 Q52.5777 760.849 46.212 760.849 Q39.8781 760.849 36.186 763.586 Q32.4621 766.324 32.4621 771.003 M27.4968 771.003 Q27.4968 763.364 32.4621 759.003 Q37.4273 754.643 46.212 754.643 Q54.9649 754.643 59.9619 759.003 Q64.9272 763.364 64.9272 771.003 Q64.9272 778.673 59.9619 783.034 Q54.9649 787.362 46.212 787.362 Q37.4273 787.362 32.4621 783.034 Q27.4968 778.673 27.4968 771.003 Z" fill="#000000" fill-rule="nonzero" fill-opacity="1" /><path clip-path="url(#clip200)" d="M46.0847 728.734 Q46.0847 735.832 47.7079 738.569 Q49.3312 741.306 53.2461 741.306 Q56.3653 741.306 58.2114 739.269 Q60.0256 737.201 60.0256 733.668 Q60.0256 728.798 56.5881 725.87 Q53.1188 722.91 47.3897 722.91 L46.0847 722.91 L46.0847 728.734 M43.6657 717.053 L64.0042 717.053 L64.0042 722.91 L58.5933 722.91 Q61.8398 724.915 63.3994 727.907 Q64.9272 730.899 64.9272 735.227 Q64.9272 740.702 61.8716 743.948 Q58.7843 747.163 53.6281 747.163 Q47.6125 747.163 44.5569 743.153 Q41.5014 739.11 41.5014 731.121 L41.5014 722.91 L40.9285 722.91 Q36.8862 722.91 34.6901 725.583 Q32.4621 728.225 32.4621 733.031 Q32.4621 736.087 33.1941 738.983 Q33.9262 741.879 35.3903 744.553 L29.9795 744.553 Q28.7381 741.338 28.1334 738.315 Q27.4968 735.291 27.4968 732.426 Q27.4968 724.692 31.5072 720.873 Q35.5176 717.053 43.6657 717.053 Z" fill="#000000" fill-rule="nonzero" fill-opacity="1" /><path clip-path="url(#clip200)" d="M33.7671 681.532 L14.479 681.532 L14.479 675.676 L64.0042 675.676 L64.0042 681.532 L58.657 681.532 Q61.8398 683.379 63.3994 686.211 Q64.9272 689.012 64.9272 692.959 Q64.9272 699.42 59.771 703.494 Q54.6147 707.536 46.212 707.536 Q37.8093 707.536 32.6531 703.494 Q27.4968 699.42 27.4968 692.959 Q27.4968 689.012 29.0564 686.211 Q30.5842 683.379 33.7671 681.532 M46.212 701.489 Q52.6732 701.489 56.3653 698.847 Q60.0256 696.174 60.0256 691.527 Q60.0256 686.88 56.3653 684.206 Q52.6732 681.532 46.212 681.532 Q39.7508 681.532 36.0905 684.206 Q32.3984 686.88 32.3984 691.527 Q32.3984 696.174 36.0905 698.847 Q39.7508 701.489 46.212 701.489 Z" fill="#000000" fill-rule="nonzero" fill-opacity="1" /><path clip-path="url(#clip200)" d="M18.0438 614.151 L24.314 614.151 Q22.5634 617.812 21.704 621.058 Q20.8447 624.305 20.8447 627.329 Q20.8447 632.58 22.8817 635.445 Q24.9187 638.278 28.6745 638.278 Q31.8255 638.278 33.4488 636.4 Q35.0402 634.49 36.0269 629.206 L36.8226 625.323 Q38.1912 618.13 41.6605 614.724 Q45.098 611.287 50.8908 611.287 Q57.7976 611.287 61.3624 615.934 Q64.9272 620.549 64.9272 629.493 Q64.9272 632.867 64.1633 636.686 Q63.3994 640.474 61.9035 644.548 L55.2831 644.548 Q57.4793 640.633 58.5933 636.877 Q59.7073 633.121 59.7073 629.493 Q59.7073 623.987 57.543 620.995 Q55.3786 618.003 51.3682 618.003 Q47.8671 618.003 45.8937 620.167 Q43.9204 622.3 42.9337 627.201 L42.1698 631.116 Q40.7375 638.309 37.682 641.524 Q34.6264 644.739 29.1837 644.739 Q22.8817 644.739 19.2532 640.315 Q15.6248 635.859 15.6248 628.061 Q15.6248 624.719 16.2295 621.249 Q16.8343 617.78 18.0438 614.151 Z" fill="#000000" fill-rule="nonzero" fill-opacity="1" /><path clip-path="url(#clip200)" d="M42.4881 571.883 L64.0042 571.883 L64.0042 577.74 L42.679 577.74 Q37.6183 577.74 35.1038 579.713 Q32.5894 581.686 32.5894 585.633 Q32.5894 590.376 35.6131 593.113 Q38.6368 595.85 43.8567 595.85 L64.0042 595.85 L64.0042 601.738 L14.479 601.738 L14.479 595.85 L33.8944 595.85 Q30.6797 593.749 29.0883 590.917 Q27.4968 588.052 27.4968 584.328 Q27.4968 578.185 31.3163 575.034 Q35.1038 571.883 42.4881 571.883 Z" fill="#000000" fill-rule="nonzero" fill-opacity="1" /><path clip-path="url(#clip200)" d="M44.7161 529.71 L47.5806 529.71 L47.5806 556.637 Q53.6281 556.255 56.8109 553.009 Q59.9619 549.731 59.9619 543.906 Q59.9619 540.532 59.1344 537.381 Q58.3069 534.198 56.6518 531.079 L62.1899 531.079 Q63.5267 534.23 64.227 537.54 Q64.9272 540.85 64.9272 544.256 Q64.9272 552.786 59.9619 557.783 Q54.9967 562.748 46.5303 562.748 Q37.7774 562.748 32.6531 558.038 Q27.4968 553.295 27.4968 545.275 Q27.4968 538.081 32.1438 533.912 Q36.7589 529.71 44.7161 529.71 M42.9973 535.567 Q38.1912 535.63 35.3266 538.272 Q32.4621 540.882 32.4621 545.211 Q32.4621 550.112 35.2312 553.073 Q38.0002 556.001 43.0292 556.446 L42.9973 535.567 Z" fill="#000000" fill-rule="nonzero" fill-opacity="1" /><path clip-path="url(#clip200)" d="M33.7671 496.641 L14.479 496.641 L14.479 490.784 L64.0042 490.784 L64.0042 496.641 L58.657 496.641 Q61.8398 498.487 63.3994 501.319 Q64.9272 504.12 64.9272 508.067 Q64.9272 514.528 59.771 518.602 Q54.6147 522.644 46.212 522.644 Q37.8093 522.644 32.6531 518.602 Q27.4968 514.528 27.4968 508.067 Q27.4968 504.12 29.0564 501.319 Q30.5842 498.487 33.7671 496.641 M46.212 516.597 Q52.6732 516.597 56.3653 513.955 Q60.0256 511.282 60.0256 506.635 Q60.0256 501.988 56.3653 499.314 Q52.6732 496.641 46.212 496.641 Q39.7508 496.641 36.0905 499.314 Q32.3984 501.988 32.3984 506.635 Q32.3984 511.282 36.0905 513.955 Q39.7508 516.597 46.212 516.597 Z" fill="#000000" fill-rule="nonzero" fill-opacity="1" /><path clip-path="url(#clip200)" d="M14.5426 443.932 Q21.8632 448.198 29.0246 450.266 Q36.186 452.335 43.5384 452.335 Q50.8908 452.335 58.1159 450.266 Q65.3091 448.166 72.5979 443.932 L72.5979 449.025 Q65.1182 453.799 57.8931 456.186 Q50.668 458.542 43.5384 458.542 Q36.4406 458.542 29.2474 456.186 Q22.0542 453.831 14.5426 449.025 L14.5426 443.932 Z" fill="#000000" fill-rule="nonzero" fill-opacity="1" /><path clip-path="url(#clip200)" d="M14.479 432.793 L14.479 426.904 L43.7294 426.904 L28.3562 409.43 L28.3562 401.951 L45.0344 420.857 L64.0042 401.155 L64.0042 408.794 L46.5939 426.904 L64.0042 426.904 L64.0042 432.793 L14.479 432.793 Z" fill="#000000" fill-rule="nonzero" fill-opacity="1" /><path clip-path="url(#clip200)" d="M16.4842 398.8 L16.4842 392.307 L56.6518 382.312 L16.4842 372.35 L16.4842 365.125 L56.6518 355.131 L16.4842 345.169 L16.4842 338.644 L64.0042 350.579 L64.0042 358.664 L22.7544 368.69 L64.0042 378.811 L64.0042 386.896 L16.4842 398.8 Z" fill="#000000" fill-rule="nonzero" fill-opacity="1" /><path clip-path="url(#clip200)" d="M14.5426 331.291 L14.5426 326.199 Q22.0542 321.424 29.2474 319.069 Q36.4406 316.682 43.5384 316.682 Q50.668 316.682 57.8931 319.069 Q65.1182 321.424 72.5979 326.199 L72.5979 331.291 Q65.3091 327.058 58.1159 324.989 Q50.8908 322.889 43.5384 322.889 Q36.186 322.889 29.0246 324.989 Q21.8632 327.058 14.5426 331.291 Z" fill="#000000" fill-rule="nonzero" fill-opacity="1" /><path clip-path="url(#clip200)" d="M836.533 12.096 L844.716 12.096 L844.716 65.6895 L874.166 65.6895 L874.166 72.576 L836.533 72.576 L836.533 12.096 Z" fill="#000000" fill-rule="nonzero" fill-opacity="1" /><path clip-path="url(#clip200)" d="M898.553 32.4315 Q892.557 32.4315 889.074 37.1306 Q885.59 41.7891 885.59 49.9314 Q885.59 58.0738 889.033 62.7728 Q892.517 67.4314 898.553 67.4314 Q904.508 67.4314 907.991 62.7323 Q911.475 58.0333 911.475 49.9314 Q911.475 41.8701 907.991 37.1711 Q904.508 32.4315 898.553 32.4315 M898.553 26.1121 Q908.275 26.1121 913.825 32.4315 Q919.374 38.7509 919.374 49.9314 Q919.374 61.0714 913.825 67.4314 Q908.275 73.7508 898.553 73.7508 Q888.79 73.7508 883.24 67.4314 Q877.731 61.0714 877.731 49.9314 Q877.731 38.7509 883.24 32.4315 Q888.79 26.1121 898.553 26.1121 Z" fill="#000000" fill-rule="nonzero" fill-opacity="1" /><path clip-path="url(#clip200)" d="M952.349 49.7694 Q943.315 49.7694 939.831 51.8354 Q936.348 53.9013 936.348 58.8839 Q936.348 62.8538 938.94 65.2034 Q941.573 67.5124 946.07 67.5124 Q952.268 67.5124 955.995 63.1374 Q959.762 58.7219 959.762 51.4303 L959.762 49.7694 L952.349 49.7694 M967.216 46.6907 L967.216 72.576 L959.762 72.576 L959.762 65.6895 Q957.21 69.8214 953.402 71.8063 Q949.594 73.7508 944.085 73.7508 Q937.117 73.7508 932.985 69.8619 Q928.894 65.9325 928.894 59.3701 Q928.894 51.7138 933.998 47.825 Q939.143 43.9361 949.311 43.9361 L959.762 43.9361 L959.762 43.2069 Q959.762 38.0623 956.359 35.2672 Q952.997 32.4315 946.88 32.4315 Q942.991 32.4315 939.305 33.3632 Q935.619 34.295 932.216 36.1584 L932.216 29.2718 Q936.307 27.692 940.156 26.9223 Q944.004 26.1121 947.65 26.1121 Q957.493 26.1121 962.354 31.2163 Q967.216 36.3204 967.216 46.6907 Z" fill="#000000" fill-rule="nonzero" fill-opacity="1" /><path clip-path="url(#clip200)" d="M1012.42 34.0924 L1012.42 9.54393 L1019.88 9.54393 L1019.88 72.576 L1012.42 72.576 L1012.42 65.7705 Q1010.07 69.8214 1006.47 71.8063 Q1002.9 73.7508 997.881 73.7508 Q989.658 73.7508 984.472 67.1883 Q979.328 60.6258 979.328 49.9314 Q979.328 39.2371 984.472 32.6746 Q989.658 26.1121 997.881 26.1121 Q1002.9 26.1121 1006.47 28.0971 Q1010.07 30.0415 1012.42 34.0924 M987.024 49.9314 Q987.024 58.1548 990.387 62.8538 Q993.79 67.5124 999.704 67.5124 Q1005.62 67.5124 1009.02 62.8538 Q1012.42 58.1548 1012.42 49.9314 Q1012.42 41.7081 1009.02 37.0496 Q1005.62 32.3505 999.704 32.3505 Q993.79 32.3505 990.387 37.0496 Q987.024 41.7081 987.024 49.9314 Z" fill="#000000" fill-rule="nonzero" fill-opacity="1" /><path clip-path="url(#clip200)" d="M1098.18 14.0809 L1098.18 22.0612 Q1093.52 19.8332 1089.39 18.7395 Q1085.26 17.6457 1081.41 17.6457 Q1074.73 17.6457 1071.08 20.2383 Q1067.48 22.8309 1067.48 27.611 Q1067.48 31.6214 1069.87 33.6873 Q1072.3 35.7128 1079.02 36.9686 L1083.96 37.9813 Q1093.12 39.7232 1097.45 44.1387 Q1101.83 48.5136 1101.83 55.8863 Q1101.83 64.6767 1095.91 69.2137 Q1090.04 73.7508 1078.66 73.7508 Q1074.36 73.7508 1069.5 72.7785 Q1064.68 71.8063 1059.5 69.9024 L1059.5 61.4765 Q1064.48 64.2716 1069.26 65.6895 Q1074.04 67.1073 1078.66 67.1073 Q1085.66 67.1073 1089.47 64.3527 Q1093.28 61.598 1093.28 56.4939 Q1093.28 52.0379 1090.53 49.5264 Q1087.81 47.0148 1081.57 45.759 L1076.59 44.7868 Q1067.43 42.9639 1063.34 39.075 Q1059.25 35.1862 1059.25 28.2591 Q1059.25 20.2383 1064.88 15.6203 Q1070.55 11.0023 1080.48 11.0023 Q1084.73 11.0023 1089.15 11.7719 Q1093.56 12.5416 1098.18 14.0809 Z" fill="#000000" fill-rule="nonzero" fill-opacity="1" /><path clip-path="url(#clip200)" d="M1151.98 45.1919 L1151.98 72.576 L1144.52 72.576 L1144.52 45.4349 Q1144.52 38.994 1142.01 35.7938 Q1139.5 32.5936 1134.48 32.5936 Q1128.44 32.5936 1124.96 36.4419 Q1121.47 40.2903 1121.47 46.9338 L1121.47 72.576 L1113.98 72.576 L1113.98 9.54393 L1121.47 9.54393 L1121.47 34.2544 Q1124.15 30.163 1127.75 28.1376 Q1131.4 26.1121 1136.14 26.1121 Q1143.96 26.1121 1147.97 30.9732 Q1151.98 35.7938 1151.98 45.1919 Z" fill="#000000" fill-rule="nonzero" fill-opacity="1" /><path clip-path="url(#clip200)" d="M1205.65 48.0275 L1205.65 51.6733 L1171.38 51.6733 Q1171.87 59.3701 1176 63.421 Q1180.17 67.4314 1187.58 67.4314 Q1191.88 67.4314 1195.89 66.3781 Q1199.94 65.3249 1203.91 63.2184 L1203.91 70.267 Q1199.9 71.9684 1195.69 72.8596 Q1191.47 73.7508 1187.14 73.7508 Q1176.28 73.7508 1169.92 67.4314 Q1163.6 61.1119 1163.6 50.3365 Q1163.6 39.1965 1169.6 32.6746 Q1175.63 26.1121 1185.84 26.1121 Q1195 26.1121 1200.3 32.0264 Q1205.65 37.9003 1205.65 48.0275 M1198.2 45.84 Q1198.12 39.7232 1194.75 36.0774 Q1191.43 32.4315 1185.92 32.4315 Q1179.69 32.4315 1175.92 35.9558 Q1172.19 39.4801 1171.62 45.8805 L1198.2 45.84 Z" fill="#000000" fill-rule="nonzero" fill-opacity="1" /><path clip-path="url(#clip200)" d="M1247.74 34.0924 L1247.74 9.54393 L1255.19 9.54393 L1255.19 72.576 L1247.74 72.576 L1247.74 65.7705 Q1245.39 69.8214 1241.79 71.8063 Q1238.22 73.7508 1233.2 73.7508 Q1224.97 73.7508 1219.79 67.1883 Q1214.64 60.6258 1214.64 49.9314 Q1214.64 39.2371 1219.79 32.6746 Q1224.97 26.1121 1233.2 26.1121 Q1238.22 26.1121 1241.79 28.0971 Q1245.39 30.0415 1247.74 34.0924 M1222.34 49.9314 Q1222.34 58.1548 1225.7 62.8538 Q1229.11 67.5124 1235.02 67.5124 Q1240.94 67.5124 1244.34 62.8538 Q1247.74 58.1548 1247.74 49.9314 Q1247.74 41.7081 1244.34 37.0496 Q1240.94 32.3505 1235.02 32.3505 Q1229.11 32.3505 1225.7 37.0496 Q1222.34 41.7081 1222.34 49.9314 Z" fill="#000000" fill-rule="nonzero" fill-opacity="1" /><path clip-path="url(#clip200)" d="M1342.53 16.7545 L1342.53 25.383 Q1338.4 21.5346 1333.7 19.6307 Q1329.04 17.7268 1323.78 17.7268 Q1313.41 17.7268 1307.9 24.0867 Q1302.39 30.4061 1302.39 42.3968 Q1302.39 54.3469 1307.9 60.7069 Q1313.41 67.0263 1323.78 67.0263 Q1329.04 67.0263 1333.7 65.1223 Q1338.4 63.2184 1342.53 59.3701 L1342.53 67.9175 Q1338.24 70.8341 1333.42 72.2924 Q1328.64 73.7508 1323.29 73.7508 Q1309.56 73.7508 1301.66 65.3654 Q1293.76 56.9395 1293.76 42.3968 Q1293.76 27.8135 1301.66 19.4281 Q1309.56 11.0023 1323.29 11.0023 Q1328.72 11.0023 1333.5 12.4606 Q1338.32 13.8784 1342.53 16.7545 Z" fill="#000000" fill-rule="nonzero" fill-opacity="1" /><path clip-path="url(#clip200)" d="M1372.43 32.4315 Q1366.43 32.4315 1362.95 37.1306 Q1359.46 41.7891 1359.46 49.9314 Q1359.46 58.0738 1362.91 62.7728 Q1366.39 67.4314 1372.43 67.4314 Q1378.38 67.4314 1381.87 62.7323 Q1385.35 58.0333 1385.35 49.9314 Q1385.35 41.8701 1381.87 37.1711 Q1378.38 32.4315 1372.43 32.4315 M1372.43 26.1121 Q1382.15 26.1121 1387.7 32.4315 Q1393.25 38.7509 1393.25 49.9314 Q1393.25 61.0714 1387.7 67.4314 Q1382.15 73.7508 1372.43 73.7508 Q1362.66 73.7508 1357.12 67.4314 Q1351.61 61.0714 1351.61 49.9314 Q1351.61 38.7509 1357.12 32.4315 Q1362.66 26.1121 1372.43 26.1121 Z" fill="#000000" fill-rule="nonzero" fill-opacity="1" /><path clip-path="url(#clip200)" d="M1440.93 35.9153 Q1443.72 30.8922 1447.61 28.5022 Q1451.5 26.1121 1456.77 26.1121 Q1463.86 26.1121 1467.7 31.0947 Q1471.55 36.0368 1471.55 45.1919 L1471.55 72.576 L1464.06 72.576 L1464.06 45.4349 Q1464.06 38.913 1461.75 35.7533 Q1459.44 32.5936 1454.7 32.5936 Q1448.91 32.5936 1445.55 36.4419 Q1442.18 40.2903 1442.18 46.9338 L1442.18 72.576 L1434.69 72.576 L1434.69 45.4349 Q1434.69 38.8725 1432.38 35.7533 Q1430.07 32.5936 1425.25 32.5936 Q1419.54 32.5936 1416.18 36.4824 Q1412.82 40.3308 1412.82 46.9338 L1412.82 72.576 L1405.32 72.576 L1405.32 27.2059 L1412.82 27.2059 L1412.82 34.2544 Q1415.37 30.082 1418.93 28.0971 Q1422.5 26.1121 1427.4 26.1121 Q1432.34 26.1121 1435.78 28.6237 Q1439.27 31.1352 1440.93 35.9153 Z" fill="#000000" fill-rule="nonzero" fill-opacity="1" /><path clip-path="url(#clip200)" d="M1493.63 65.7705 L1493.63 89.8329 L1486.14 89.8329 L1486.14 27.2059 L1493.63 27.2059 L1493.63 34.0924 Q1495.98 30.0415 1499.54 28.0971 Q1503.15 26.1121 1508.13 26.1121 Q1516.4 26.1121 1521.54 32.6746 Q1526.73 39.2371 1526.73 49.9314 Q1526.73 60.6258 1521.54 67.1883 Q1516.4 73.7508 1508.13 73.7508 Q1503.15 73.7508 1499.54 71.8063 Q1495.98 69.8214 1493.63 65.7705 M1518.99 49.9314 Q1518.99 41.7081 1515.59 37.0496 Q1512.22 32.3505 1506.31 32.3505 Q1500.4 32.3505 1496.99 37.0496 Q1493.63 41.7081 1493.63 49.9314 Q1493.63 58.1548 1496.99 62.8538 Q1500.4 67.5124 1506.31 67.5124 Q1512.22 67.5124 1515.59 62.8538 Q1518.99 58.1548 1518.99 49.9314 Z" fill="#000000" fill-rule="nonzero" fill-opacity="1" /><path clip-path="url(#clip200)" d="M1559.7 49.7694 Q1550.67 49.7694 1547.18 51.8354 Q1543.7 53.9013 1543.7 58.8839 Q1543.7 62.8538 1546.29 65.2034 Q1548.93 67.5124 1553.42 67.5124 Q1559.62 67.5124 1563.35 63.1374 Q1567.11 58.7219 1567.11 51.4303 L1567.11 49.7694 L1559.7 49.7694 M1574.57 46.6907 L1574.57 72.576 L1567.11 72.576 L1567.11 65.6895 Q1564.56 69.8214 1560.75 71.8063 Q1556.95 73.7508 1551.44 73.7508 Q1544.47 73.7508 1540.34 69.8619 Q1536.25 65.9325 1536.25 59.3701 Q1536.25 51.7138 1541.35 47.825 Q1546.49 43.9361 1556.66 43.9361 L1567.11 43.9361 L1567.11 43.2069 Q1567.11 38.0623 1563.71 35.2672 Q1560.35 32.4315 1554.23 32.4315 Q1550.34 32.4315 1546.66 33.3632 Q1542.97 34.295 1539.57 36.1584 L1539.57 29.2718 Q1543.66 27.692 1547.51 26.9223 Q1551.36 26.1121 1555 26.1121 Q1564.85 26.1121 1569.71 31.2163 Q1574.57 36.3204 1574.57 46.6907 Z" fill="#000000" fill-rule="nonzero" fill-opacity="1" /><path clip-path="url(#clip200)" d="M1616.21 34.1734 Q1614.96 33.4443 1613.46 33.1202 Q1612 32.7556 1610.22 32.7556 Q1603.9 32.7556 1600.49 36.8875 Q1597.13 40.9789 1597.13 48.6757 L1597.13 72.576 L1589.64 72.576 L1589.64 27.2059 L1597.13 27.2059 L1597.13 34.2544 Q1599.48 30.1225 1603.25 28.1376 Q1607.02 26.1121 1612.4 26.1121 Q1613.17 26.1121 1614.1 26.2337 Q1615.04 26.3147 1616.17 26.5172 L1616.21 34.1734 Z" fill="#000000" fill-rule="nonzero" fill-opacity="1" /><path clip-path="url(#clip200)" d="M1624.03 27.2059 L1631.48 27.2059 L1631.48 72.576 L1624.03 72.576 L1624.03 27.2059 M1624.03 9.54393 L1631.48 9.54393 L1631.48 18.9825 L1624.03 18.9825 L1624.03 9.54393 Z" fill="#000000" fill-rule="nonzero" fill-opacity="1" /><path clip-path="url(#clip200)" d="M1676 28.5427 L1676 35.5912 Q1672.84 33.9709 1669.44 33.1607 Q1666.04 32.3505 1662.39 32.3505 Q1656.84 32.3505 1654.05 34.0519 Q1651.29 35.7533 1651.29 39.156 Q1651.29 41.7486 1653.28 43.2475 Q1655.26 44.7058 1661.26 46.0426 L1663.81 46.6097 Q1671.75 48.3111 1675.07 51.4303 Q1678.43 54.509 1678.43 60.0587 Q1678.43 66.3781 1673.41 70.0644 Q1668.43 73.7508 1659.68 73.7508 Q1656.03 73.7508 1652.06 73.0216 Q1648.13 72.3329 1643.76 70.9151 L1643.76 63.2184 Q1647.89 65.3654 1651.9 66.4591 Q1655.91 67.5124 1659.84 67.5124 Q1665.11 67.5124 1667.94 65.73 Q1670.78 63.9071 1670.78 60.6258 Q1670.78 57.5877 1668.71 55.9673 Q1666.69 54.3469 1659.76 52.8481 L1657.17 52.2405 Q1650.24 50.7821 1647.16 47.7845 Q1644.08 44.7463 1644.08 39.4801 Q1644.08 33.0797 1648.62 29.5959 Q1653.16 26.1121 1661.5 26.1121 Q1665.63 26.1121 1669.28 26.7198 Q1672.92 27.3274 1676 28.5427 Z" fill="#000000" fill-rule="nonzero" fill-opacity="1" /><path clip-path="url(#clip200)" d="M1707.88 32.4315 Q1701.89 32.4315 1698.4 37.1306 Q1694.92 41.7891 1694.92 49.9314 Q1694.92 58.0738 1698.36 62.7728 Q1701.85 67.4314 1707.88 67.4314 Q1713.84 67.4314 1717.32 62.7323 Q1720.81 58.0333 1720.81 49.9314 Q1720.81 41.8701 1717.32 37.1711 Q1713.84 32.4315 1707.88 32.4315 M1707.88 26.1121 Q1717.61 26.1121 1723.15 32.4315 Q1728.7 38.7509 1728.7 49.9314 Q1728.7 61.0714 1723.15 67.4314 Q1717.61 73.7508 1707.88 73.7508 Q1698.12 73.7508 1692.57 67.4314 Q1687.06 61.0714 1687.06 49.9314 Q1687.06 38.7509 1692.57 32.4315 Q1698.12 26.1121 1707.88 26.1121 Z" fill="#000000" fill-rule="nonzero" fill-opacity="1" /><path clip-path="url(#clip200)" d="M1778.77 45.1919 L1778.77 72.576 L1771.32 72.576 L1771.32 45.4349 Q1771.32 38.994 1768.81 35.7938 Q1766.3 32.5936 1761.27 32.5936 Q1755.24 32.5936 1751.75 36.4419 Q1748.27 40.2903 1748.27 46.9338 L1748.27 72.576 L1740.78 72.576 L1740.78 27.2059 L1748.27 27.2059 L1748.27 34.2544 Q1750.94 30.163 1754.55 28.1376 Q1758.2 26.1121 1762.93 26.1121 Q1770.75 26.1121 1774.76 30.9732 Q1778.77 35.7938 1778.77 45.1919 Z" fill="#000000" fill-rule="nonzero" fill-opacity="1" /><path clip-path="url(#clip202)" d="M322.977 1401.61 L311.665 1396.92 L306.977 1385.61 L311.665 1374.3 L322.977 1369.61 L334.289 1374.3 L338.977 1385.61 L334.289 1396.92 Z" fill="#009af9" fill-rule="evenodd" fill-opacity="1" stroke="#000000" stroke-opacity="1" stroke-width="3.2"/>
<path clip-path="url(#clip202)" d="M338.914 1402.4 L327.602 1397.71 L322.914 1386.4 L327.602 1375.08 L338.914 1370.4 L350.226 1375.08 L354.914 1386.4 L350.226 1397.71 Z" fill="#009af9" fill-rule="evenodd" fill-opacity="1" stroke="#000000" stroke-opacity="1" stroke-width="3.2"/>
<path clip-path="url(#clip202)" d="M474.046 1312.64 L462.734 1307.95 L458.046 1296.64 L462.734 1285.33 L474.046 1280.64 L485.358 1285.33 L490.046 1296.64 L485.358 1307.95 Z" fill="#009af9" fill-rule="evenodd" fill-opacity="1" stroke="#000000" stroke-opacity="1" stroke-width="3.2"/>
<path clip-path="url(#clip202)" d="M474.049 1307.69 L462.737 1303 L458.049 1291.69 L462.737 1280.38 L474.049 1275.69 L485.361 1280.38 L490.049 1291.69 L485.361 1303 Z" fill="#009af9" fill-rule="evenodd" fill-opacity="1" stroke="#000000" stroke-opacity="1" stroke-width="3.2"/>
<path clip-path="url(#clip202)" d="M2293.58 176.256 L2282.26 171.568 L2277.58 160.256 L2282.26 148.944 L2293.58 144.256 L2304.89 148.944 L2309.58 160.256 L2304.89 171.568 Z" fill="#009af9" fill-rule="evenodd" fill-opacity="1" stroke="#000000" stroke-opacity="1" stroke-width="3.2"/>
<path clip-path="url(#clip202)" d="M2157.39 260.949 L2146.08 256.261 L2141.39 244.949 L2146.08 233.637 L2157.39 228.949 L2168.71 233.637 L2173.39 244.949 L2168.71 256.261 Z" fill="#009af9" fill-rule="evenodd" fill-opacity="1" stroke="#000000" stroke-opacity="1" stroke-width="3.2"/>
<path clip-path="url(#clip202)" d="M2155.53 262.092 L2144.22 257.404 L2139.53 246.092 L2144.22 234.78 L2155.53 230.092 L2166.84 234.78 L2171.53 246.092 L2166.84 257.404 Z" fill="#009af9" fill-rule="evenodd" fill-opacity="1" stroke="#000000" stroke-opacity="1" stroke-width="3.2"/>
<path clip-path="url(#clip202)" d="M771.507 1122.48 L760.195 1117.79 L755.507 1106.48 L760.195 1095.16 L771.507 1090.48 L782.819 1095.16 L787.507 1106.48 L782.819 1117.79 Z" fill="#009af9" fill-rule="evenodd" fill-opacity="1" stroke="#000000" stroke-opacity="1" stroke-width="3.2"/>
<path clip-path="url(#clip202)" d="M474.194 1307.69 L462.882 1303 L458.194 1291.69 L462.882 1280.38 L474.194 1275.69 L485.506 1280.38 L490.194 1291.69 L485.506 1303 Z" fill="#009af9" fill-rule="evenodd" fill-opacity="1" stroke="#000000" stroke-opacity="1" stroke-width="3.2"/>
<path clip-path="url(#clip202)" d="M474.406 1307.51 L463.094 1302.82 L458.406 1291.51 L463.094 1280.2 L474.406 1275.51 L485.718 1280.2 L490.406 1291.51 L485.718 1302.82 Z" fill="#009af9" fill-rule="evenodd" fill-opacity="1" stroke="#000000" stroke-opacity="1" stroke-width="3.2"/>
<polyline clip-path="url(#clip202)" style="stroke:#ff0000; stroke-linecap:round; stroke-linejoin:round; stroke-width:4; stroke-opacity:1; fill:none" stroke-dasharray="16, 10" points="322.967,1385.61 321.708,1386.4 466.051,1296.64 474.017,1291.69 2293.6,160.256 2157.4,244.949 2155.56,246.092 771.879,1106.48 474.017,1291.69 474.304,1291.51 "/>
<polyline clip-path="url(#clip202)" style="stroke:#ff0000; stroke-linecap:round; stroke-linejoin:round; stroke-width:4; stroke-opacity:1; fill:none" stroke-dasharray="16, 10" points="322.977,1385.61 338.914,1375.7 474.046,1291.67 474.049,1291.67 2293.58,160.27 2157.39,244.95 2155.53,246.109 771.507,1106.71 474.194,1291.58 474.406,1291.45 "/>
<path clip-path="url(#clip200)" d="M332.225 374.156 L733.652 374.156 L733.652 166.796 L332.225 166.796  Z" fill="#ffffff" fill-rule="evenodd" fill-opacity="1"/>
<polyline clip-path="url(#clip200)" style="stroke:#000000; stroke-linecap:round; stroke-linejoin:round; stroke-width:4; stroke-opacity:1; fill:none" points="332.225,374.156 733.652,374.156 733.652,166.796 332.225,166.796 332.225,374.156 "/>
<path clip-path="url(#clip200)" d="M425.123 241.391 L409.035 234.724 L402.367 218.636 L409.035 202.548 L425.123 195.88 L441.211 202.548 L447.878 218.636 L441.211 234.724 Z" fill="#009af9" fill-rule="evenodd" fill-opacity="1" stroke="#000000" stroke-opacity="1" stroke-width="4.55111"/>
<path clip-path="url(#clip200)" d="M518.021 201.356 L522.697 201.356 L522.697 235.916 L518.021 235.916 L518.021 201.356 Z" fill="#000000" fill-rule="nonzero" fill-opacity="1" /><path clip-path="url(#clip200)" d="M536.03 202.629 L536.03 209.99 L544.803 209.99 L544.803 213.3 L536.03 213.3 L536.03 227.374 Q536.03 230.545 536.886 231.448 Q537.766 232.351 540.428 232.351 L544.803 232.351 L544.803 235.916 L540.428 235.916 Q535.497 235.916 533.622 234.087 Q531.747 232.235 531.747 227.374 L531.747 213.3 L528.622 213.3 L528.622 209.99 L531.747 209.99 L531.747 202.629 L536.03 202.629 Z" fill="#000000" fill-rule="nonzero" fill-opacity="1" /><path clip-path="url(#clip200)" d="M572.581 221.888 L572.581 223.971 L552.997 223.971 Q553.275 228.369 555.636 230.684 Q558.02 232.976 562.257 232.976 Q564.71 232.976 567.002 232.374 Q569.317 231.772 571.585 230.569 L571.585 234.596 Q569.294 235.568 566.886 236.078 Q564.479 236.587 562.002 236.587 Q555.798 236.587 552.164 232.976 Q548.553 229.365 548.553 223.207 Q548.553 216.842 551.979 213.115 Q555.428 209.365 561.261 209.365 Q566.493 209.365 569.525 212.745 Q572.581 216.101 572.581 221.888 M568.321 220.638 Q568.275 217.143 566.354 215.059 Q564.456 212.976 561.307 212.976 Q557.743 212.976 555.59 214.99 Q553.46 217.004 553.136 220.661 L568.321 220.638 Z" fill="#000000" fill-rule="nonzero" fill-opacity="1" /><path clip-path="url(#clip200)" d="M594.594 213.971 Q593.877 213.555 593.02 213.37 Q592.187 213.161 591.168 213.161 Q587.557 213.161 585.613 215.522 Q583.692 217.86 583.692 222.258 L583.692 235.916 L579.409 235.916 L579.409 209.99 L583.692 209.99 L583.692 214.018 Q585.034 211.657 587.187 210.522 Q589.34 209.365 592.418 209.365 Q592.858 209.365 593.391 209.434 Q593.923 209.481 594.571 209.596 L594.594 213.971 Z" fill="#000000" fill-rule="nonzero" fill-opacity="1" /><path clip-path="url(#clip200)" d="M610.844 222.883 Q605.682 222.883 603.692 224.064 Q601.701 225.244 601.701 228.092 Q601.701 230.36 603.182 231.703 Q604.687 233.022 607.256 233.022 Q610.798 233.022 612.928 230.522 Q615.08 227.999 615.08 223.832 L615.08 222.883 L610.844 222.883 M619.34 221.124 L619.34 235.916 L615.08 235.916 L615.08 231.981 Q613.622 234.342 611.446 235.476 Q609.27 236.587 606.122 236.587 Q602.141 236.587 599.78 234.365 Q597.442 232.119 597.442 228.369 Q597.442 223.994 600.358 221.772 Q603.298 219.55 609.108 219.55 L615.08 219.55 L615.08 219.133 Q615.08 216.194 613.136 214.596 Q611.215 212.976 607.719 212.976 Q605.497 212.976 603.391 213.508 Q601.284 214.041 599.34 215.106 L599.34 211.17 Q601.678 210.268 603.877 209.828 Q606.076 209.365 608.159 209.365 Q613.784 209.365 616.562 212.282 Q619.34 215.198 619.34 221.124 Z" fill="#000000" fill-rule="nonzero" fill-opacity="1" /><path clip-path="url(#clip200)" d="M632.326 202.629 L632.326 209.99 L641.099 209.99 L641.099 213.3 L632.326 213.3 L632.326 227.374 Q632.326 230.545 633.182 231.448 Q634.062 232.351 636.724 232.351 L641.099 232.351 L641.099 235.916 L636.724 235.916 Q631.793 235.916 629.918 234.087 Q628.043 232.235 628.043 227.374 L628.043 213.3 L624.918 213.3 L624.918 209.99 L628.043 209.99 L628.043 202.629 L632.326 202.629 Z" fill="#000000" fill-rule="nonzero" fill-opacity="1" /><path clip-path="url(#clip200)" d="M646.701 209.99 L650.96 209.99 L650.96 235.916 L646.701 235.916 L646.701 209.99 M646.701 199.897 L650.96 199.897 L650.96 205.291 L646.701 205.291 L646.701 199.897 Z" fill="#000000" fill-rule="nonzero" fill-opacity="1" /><path clip-path="url(#clip200)" d="M669.918 212.976 Q666.492 212.976 664.501 215.661 Q662.511 218.323 662.511 222.976 Q662.511 227.629 664.478 230.314 Q666.469 232.976 669.918 232.976 Q673.321 232.976 675.312 230.291 Q677.302 227.606 677.302 222.976 Q677.302 218.37 675.312 215.684 Q673.321 212.976 669.918 212.976 M669.918 209.365 Q675.474 209.365 678.645 212.976 Q681.816 216.587 681.816 222.976 Q681.816 229.342 678.645 232.976 Q675.474 236.587 669.918 236.587 Q664.339 236.587 661.168 232.976 Q658.02 229.342 658.02 222.976 Q658.02 216.587 661.168 212.976 Q664.339 209.365 669.918 209.365 Z" fill="#000000" fill-rule="nonzero" fill-opacity="1" /><path clip-path="url(#clip200)" d="M710.427 220.268 L710.427 235.916 L706.168 235.916 L706.168 220.407 Q706.168 216.726 704.733 214.897 Q703.297 213.069 700.427 213.069 Q696.978 213.069 694.987 215.268 Q692.997 217.467 692.997 221.263 L692.997 235.916 L688.714 235.916 L688.714 209.99 L692.997 209.99 L692.997 214.018 Q694.524 211.68 696.585 210.522 Q698.668 209.365 701.376 209.365 Q705.844 209.365 708.135 212.143 Q710.427 214.897 710.427 220.268 Z" fill="#000000" fill-rule="nonzero" fill-opacity="1" /><polyline clip-path="url(#clip200)" style="stroke:#ff0000; stroke-linecap:round; stroke-linejoin:round; stroke-width:4; stroke-opacity:1; fill:none" stroke-dasharray="16, 10" points="355.449,270.476 494.796,270.476 "/>
<path clip-path="url(#clip200)" d="M531.863 290.163 Q530.058 294.793 528.345 296.205 Q526.632 297.617 523.761 297.617 L520.359 297.617 L520.359 294.052 L522.859 294.052 Q524.618 294.052 525.59 293.219 Q526.562 292.385 527.743 289.283 L528.507 287.339 L518.021 261.83 L522.535 261.83 L530.636 282.108 L538.738 261.83 L543.252 261.83 L531.863 290.163 Z" fill="#000000" fill-rule="nonzero" fill-opacity="1" /><path clip-path="url(#clip200)" d="M549.687 266.228 L579.363 266.228 L579.363 270.117 L549.687 270.117 L549.687 266.228 M549.687 275.672 L579.363 275.672 L579.363 279.608 L549.687 279.608 L549.687 275.672 Z" fill="#000000" fill-rule="nonzero" fill-opacity="1" /><path clip-path="url(#clip200)" d="M610.404 261.83 L601.029 274.446 L610.891 287.756 L605.867 287.756 L598.321 277.571 L590.775 287.756 L585.752 287.756 L595.821 274.191 L586.608 261.83 L591.631 261.83 L598.506 271.066 L605.381 261.83 L610.404 261.83 Z" fill="#000000" fill-rule="nonzero" fill-opacity="1" /><polyline clip-path="url(#clip200)" style="stroke:#ff0000; stroke-linecap:round; stroke-linejoin:round; stroke-width:4; stroke-opacity:1; fill:none" stroke-dasharray="16, 10" points="355.449,322.316 494.796,322.316 "/>
<path clip-path="url(#clip200)" d="M531.863 342.003 Q530.058 346.633 528.345 348.045 Q526.632 349.457 523.761 349.457 L520.359 349.457 L520.359 345.892 L522.859 345.892 Q524.618 345.892 525.59 345.059 Q526.562 344.225 527.743 341.123 L528.507 339.179 L518.021 313.67 L522.535 313.67 L530.636 333.948 L538.738 313.67 L543.252 313.67 L531.863 342.003 Z" fill="#000000" fill-rule="nonzero" fill-opacity="1" /><path clip-path="url(#clip200)" d="M549.687 318.068 L579.363 318.068 L579.363 321.957 L549.687 321.957 L549.687 318.068 M549.687 327.512 L579.363 327.512 L579.363 331.448 L549.687 331.448 L549.687 327.512 Z" fill="#000000" fill-rule="nonzero" fill-opacity="1" /><path clip-path="url(#clip200)" d="M610.404 313.67 L601.029 326.286 L610.891 339.596 L605.867 339.596 L598.321 329.411 L590.775 339.596 L585.752 339.596 L595.821 326.031 L586.608 313.67 L591.631 313.67 L598.506 322.906 L605.381 313.67 L610.404 313.67 Z" fill="#000000" fill-rule="nonzero" fill-opacity="1" /><path clip-path="url(#clip200)" d="M325.494 1435.66 L354.14 1435.66 L354.14 1336.78 L322.977 1343.03 L322.977 1327.06 L353.966 1320.81 L371.501 1320.81 L371.501 1435.66 L400.146 1435.66 L400.146 1450.41 L325.494 1450.41 L325.494 1435.66 Z" fill="#008000" fill-rule="nonzero" fill-opacity="1" /><path clip-path="url(#clip200)" d="M360.007 1436.44 L421.205 1436.44 L421.205 1451.2 L338.914 1451.2 L338.914 1436.44 Q348.896 1426.11 366.084 1408.75 Q383.358 1391.3 387.785 1386.27 Q396.205 1376.8 399.504 1370.29 Q402.889 1363.7 402.889 1357.36 Q402.889 1347.03 395.597 1340.52 Q388.393 1334.01 376.761 1334.01 Q368.514 1334.01 359.313 1336.87 Q350.198 1339.74 339.782 1345.55 L339.782 1327.85 Q350.372 1323.59 359.573 1321.42 Q368.775 1319.25 376.413 1319.25 Q396.552 1319.25 408.531 1329.32 Q420.51 1339.39 420.51 1356.23 Q420.51 1364.22 417.472 1371.42 Q414.521 1378.54 406.622 1388.26 Q404.451 1390.78 392.82 1402.85 Q381.188 1414.82 360.007 1436.44 Z" fill="#008000" fill-rule="nonzero" fill-opacity="1" /><path clip-path="url(#clip200)" d="M532.639 1291.56 Q545.226 1294.25 552.257 1302.76 Q559.375 1311.27 559.375 1323.77 Q559.375 1342.95 546.181 1353.46 Q532.987 1363.96 508.681 1363.96 Q500.522 1363.96 491.841 1362.31 Q483.247 1360.75 474.046 1357.54 L474.046 1340.61 Q481.338 1344.86 490.018 1347.03 Q498.699 1349.2 508.16 1349.2 Q524.653 1349.2 533.247 1342.69 Q541.928 1336.18 541.928 1323.77 Q541.928 1312.31 533.855 1305.89 Q525.869 1299.38 511.546 1299.38 L496.442 1299.38 L496.442 1284.97 L512.24 1284.97 Q525.174 1284.97 532.032 1279.85 Q538.889 1274.64 538.889 1264.91 Q538.889 1254.93 531.771 1249.64 Q524.74 1244.25 511.546 1244.25 Q504.341 1244.25 496.095 1245.82 Q487.848 1247.38 477.952 1250.68 L477.952 1235.05 Q487.935 1232.28 496.615 1230.89 Q505.383 1229.5 513.108 1229.5 Q533.073 1229.5 544.705 1238.61 Q556.337 1247.64 556.337 1263.09 Q556.337 1273.86 550.174 1281.32 Q544.011 1288.7 532.639 1291.56 Z" fill="#008000" fill-rule="nonzero" fill-opacity="1" /><path clip-path="url(#clip200)" d="M532.555 1242.17 L488.285 1311.35 L532.555 1311.35 L532.555 1242.17 M527.955 1226.89 L550.003 1226.89 L550.003 1311.35 L568.493 1311.35 L568.493 1325.93 L550.003 1325.93 L550.003 1356.49 L532.555 1356.49 L532.555 1325.93 L474.049 1325.93 L474.049 1309.01 L527.955 1226.89 Z" fill="#008000" fill-rule="nonzero" fill-opacity="1" /><path clip-path="url(#clip200)" d="M2299.05 95.4563 L2367.88 95.4563 L2367.88 110.213 L2315.1 110.213 L2315.1 141.984 Q2318.92 140.682 2322.74 140.074 Q2326.56 139.38 2330.38 139.38 Q2352.08 139.38 2364.76 151.272 Q2377.43 163.164 2377.43 183.477 Q2377.43 204.397 2364.41 216.029 Q2351.39 227.574 2327.69 227.574 Q2319.53 227.574 2311.02 226.185 Q2302.6 224.796 2293.58 222.018 L2293.58 204.397 Q2301.39 208.65 2309.72 210.733 Q2318.06 212.817 2327.34 212.817 Q2342.36 212.817 2351.13 204.918 Q2359.9 197.018 2359.9 183.477 Q2359.9 169.935 2351.13 162.036 Q2342.36 154.137 2327.34 154.137 Q2320.31 154.137 2313.28 155.699 Q2306.34 157.262 2299.05 160.56 L2299.05 95.4563 Z" fill="#008000" fill-rule="nonzero" fill-opacity="1" /><path clip-path="url(#clip200)" d="M2203.66 237.961 Q2191.86 237.961 2184.91 246.034 Q2178.05 254.107 2178.05 268.169 Q2178.05 282.145 2184.91 290.305 Q2191.86 298.378 2203.66 298.378 Q2215.47 298.378 2222.32 290.305 Q2229.27 282.145 2229.27 268.169 Q2229.27 254.107 2222.32 246.034 Q2215.47 237.961 2203.66 237.961 M2238.47 183.014 L2238.47 198.986 Q2231.87 195.861 2225.1 194.211 Q2218.42 192.562 2211.82 192.562 Q2194.46 192.562 2185.26 204.281 Q2176.14 216 2174.84 239.697 Q2179.96 232.145 2187.69 228.152 Q2195.41 224.072 2204.7 224.072 Q2224.23 224.072 2235.52 235.965 Q2246.89 247.77 2246.89 268.169 Q2246.89 288.135 2235.08 300.201 Q2223.28 312.266 2203.66 312.266 Q2181.18 312.266 2169.29 295.079 Q2157.39 277.805 2157.39 245.079 Q2157.39 214.35 2171.98 196.121 Q2186.56 177.805 2211.13 177.805 Q2217.72 177.805 2224.41 179.107 Q2231.18 180.409 2238.47 183.014 Z" fill="#008000" fill-rule="nonzero" fill-opacity="1" /><path clip-path="url(#clip200)" d="M2155.53 181.292 L2238.86 181.292 L2238.86 188.757 L2191.81 310.892 L2173.5 310.892 L2217.77 196.049 L2155.53 196.049 L2155.53 181.292 Z" fill="#008000" fill-rule="nonzero" fill-opacity="1" /><path clip-path="url(#clip200)" d="M815.952 1109.73 Q803.452 1109.73 796.247 1116.41 Q789.129 1123.1 789.129 1134.82 Q789.129 1146.54 796.247 1153.22 Q803.452 1159.9 815.952 1159.9 Q828.452 1159.9 835.656 1153.22 Q842.861 1146.45 842.861 1134.82 Q842.861 1123.1 835.656 1116.41 Q828.538 1109.73 815.952 1109.73 M798.417 1102.27 Q787.132 1099.49 780.796 1091.76 Q774.546 1084.04 774.546 1072.93 Q774.546 1057.39 785.57 1048.36 Q796.681 1039.33 815.952 1039.33 Q835.309 1039.33 846.333 1048.36 Q857.358 1057.39 857.358 1072.93 Q857.358 1084.04 851.021 1091.76 Q844.771 1099.49 833.573 1102.27 Q846.247 1105.22 853.278 1113.81 Q860.396 1122.4 860.396 1134.82 Q860.396 1153.65 848.851 1163.72 Q837.392 1173.79 815.952 1173.79 Q794.511 1173.79 782.966 1163.72 Q771.507 1153.65 771.507 1134.82 Q771.507 1122.4 778.625 1113.81 Q785.743 1105.22 798.417 1102.27 M791.993 1074.57 Q791.993 1084.64 798.243 1090.29 Q804.58 1095.93 815.952 1095.93 Q827.236 1095.93 833.573 1090.29 Q839.997 1084.64 839.997 1074.57 Q839.997 1064.51 833.573 1058.86 Q827.236 1053.22 815.952 1053.22 Q804.58 1053.22 798.243 1058.86 Q791.993 1064.51 791.993 1074.57 Z" fill="#008000" fill-rule="nonzero" fill-opacity="1" /><path clip-path="url(#clip200)" d="M482.527 1353.8 L482.527 1337.83 Q489.124 1340.95 495.895 1342.6 Q502.666 1344.25 509.176 1344.25 Q526.537 1344.25 535.652 1332.62 Q544.853 1320.9 546.155 1297.11 Q541.121 1304.58 533.395 1308.57 Q525.669 1312.56 516.294 1312.56 Q496.85 1312.56 485.479 1300.85 Q474.194 1289.04 474.194 1268.64 Q474.194 1248.68 485.999 1236.61 Q497.805 1224.54 517.423 1224.54 Q539.905 1224.54 551.711 1241.82 Q563.603 1259.01 563.603 1291.82 Q563.603 1322.46 549.02 1340.78 Q534.524 1359.01 509.958 1359.01 Q503.36 1359.01 496.59 1357.7 Q489.819 1356.4 482.527 1353.8 M517.423 1298.85 Q529.228 1298.85 536.086 1290.78 Q543.03 1282.7 543.03 1268.64 Q543.03 1254.67 536.086 1246.59 Q529.228 1238.43 517.423 1238.43 Q505.617 1238.43 498.673 1246.59 Q491.815 1254.67 491.815 1268.64 Q491.815 1282.7 498.673 1290.78 Q505.617 1298.85 517.423 1298.85 Z" fill="#008000" fill-rule="nonzero" fill-opacity="1" /><path clip-path="url(#clip200)" d="M476.923 1341.55 L505.569 1341.55 L505.569 1242.68 L474.406 1248.93 L474.406 1232.96 L505.395 1226.71 L522.93 1226.71 L522.93 1341.55 L551.575 1341.55 L551.575 1356.31 L476.923 1356.31 L476.923 1341.55 Z" fill="#008000" fill-rule="nonzero" fill-opacity="1" /><path clip-path="url(#clip200)" d="M624.492 1238.26 Q610.95 1238.26 604.093 1251.62 Q597.322 1264.9 597.322 1291.64 Q597.322 1318.29 604.093 1331.66 Q610.95 1344.94 624.492 1344.94 Q638.12 1344.94 644.891 1331.66 Q651.749 1318.29 651.749 1291.64 Q651.749 1264.9 644.891 1251.62 Q638.12 1238.26 624.492 1238.26 M624.492 1224.37 Q646.28 1224.37 657.738 1241.64 Q669.283 1258.83 669.283 1291.64 Q669.283 1324.37 657.738 1341.64 Q646.28 1358.83 624.492 1358.83 Q602.704 1358.83 591.159 1341.64 Q579.7 1324.37 579.7 1291.64 Q579.7 1258.83 591.159 1241.64 Q602.704 1224.37 624.492 1224.37 Z" fill="#008000" fill-rule="nonzero" fill-opacity="1" /></svg>
