<?xml version="1.0" encoding="utf-8"?>
<svg xmlns="http://www.w3.org/2000/svg" xmlns:xlink="http://www.w3.org/1999/xlink" width="600" height="400" viewBox="0 0 2400 1600">
<defs>
  <clipPath id="clip040">
    <rect x="0" y="0" width="2400" height="1600"/>
  </clipPath>
</defs>
<path clip-path="url(#clip040)" d="M0 1600 L2400 1600 L2400 0 L0 0  Z" fill="#ffffff" fill-rule="evenodd" fill-opacity="1"/>
<defs>
  <clipPath id="clip041">
    <rect x="480" y="0" width="1681" height="1600"/>
  </clipPath>
</defs>
<path clip-path="url(#clip040)" d="M264.287 1423.18 L2352.76 1423.18 L2352.76 123.472 L264.287 123.472  Z" fill="#ffffff" fill-rule="evenodd" fill-opacity="1"/>
<defs>
  <clipPath id="clip042">
    <rect x="264" y="123" width="2089" height="1301"/>
  </clipPath>
</defs>
<polyline clip-path="url(#clip042)" style="stroke:#000000; stroke-linecap:round; stroke-linejoin:round; stroke-width:2; stroke-opacity:0.1; fill:none" points="542.312,1423.18 542.312,123.472 "/>
<polyline clip-path="url(#clip042)" style="stroke:#000000; stroke-linecap:round; stroke-linejoin:round; stroke-width:2; stroke-opacity:0.1; fill:none" points="980.146,1423.18 980.146,123.472 "/>
<polyline clip-path="url(#clip042)" style="stroke:#000000; stroke-linecap:round; stroke-linejoin:round; stroke-width:2; stroke-opacity:0.1; fill:none" points="1417.98,1423.18 1417.98,123.472 "/>
<polyline clip-path="url(#clip042)" style="stroke:#000000; stroke-linecap:round; stroke-linejoin:round; stroke-width:2; stroke-opacity:0.1; fill:none" points="1855.81,1423.18 1855.81,123.472 "/>
<polyline clip-path="url(#clip042)" style="stroke:#000000; stroke-linecap:round; stroke-linejoin:round; stroke-width:2; stroke-opacity:0.1; fill:none" points="2293.65,1423.18 2293.65,123.472 "/>
<polyline clip-path="url(#clip042)" style="stroke:#000000; stroke-linecap:round; stroke-linejoin:round; stroke-width:2; stroke-opacity:0.1; fill:none" points="264.287,1381.91 2352.76,1381.91 "/>
<polyline clip-path="url(#clip042)" style="stroke:#000000; stroke-linecap:round; stroke-linejoin:round; stroke-width:2; stroke-opacity:0.1; fill:none" points="264.287,1093.19 2352.76,1093.19 "/>
<polyline clip-path="url(#clip042)" style="stroke:#000000; stroke-linecap:round; stroke-linejoin:round; stroke-width:2; stroke-opacity:0.1; fill:none" points="264.287,804.468 2352.76,804.468 "/>
<polyline clip-path="url(#clip042)" style="stroke:#000000; stroke-linecap:round; stroke-linejoin:round; stroke-width:2; stroke-opacity:0.1; fill:none" points="264.287,515.747 2352.76,515.747 "/>
<polyline clip-path="url(#clip042)" style="stroke:#000000; stroke-linecap:round; stroke-linejoin:round; stroke-width:2; stroke-opacity:0.1; fill:none" points="264.287,227.026 2352.76,227.026 "/>
<polyline clip-path="url(#clip040)" style="stroke:#000000; stroke-linecap:round; stroke-linejoin:round; stroke-width:4; stroke-opacity:1; fill:none" points="264.287,1423.18 2352.76,1423.18 "/>
<polyline clip-path="url(#clip040)" style="stroke:#000000; stroke-linecap:round; stroke-linejoin:round; stroke-width:4; stroke-opacity:1; fill:none" points="542.312,1423.18 542.312,1404.28 "/>
<polyline clip-path="url(#clip040)" style="stroke:#000000; stroke-linecap:round; stroke-linejoin:round; stroke-width:4; stroke-opacity:1; fill:none" points="980.146,1423.18 980.146,1404.28 "/>
<polyline clip-path="url(#clip040)" style="stroke:#000000; stroke-linecap:round; stroke-linejoin:round; stroke-width:4; stroke-opacity:1; fill:none" points="1417.98,1423.18 1417.98,1404.28 "/>
<polyline clip-path="url(#clip040)" style="stroke:#000000; stroke-linecap:round; stroke-linejoin:round; stroke-width:4; stroke-opacity:1; fill:none" points="1855.81,1423.18 1855.81,1404.28 "/>
<polyline clip-path="url(#clip040)" style="stroke:#000000; stroke-linecap:round; stroke-linejoin:round; stroke-width:4; stroke-opacity:1; fill:none" points="2293.65,1423.18 2293.65,1404.28 "/>
<path clip-path="url(#clip040)" d="M536.965 1481.64 L553.284 1481.64 L553.284 1485.58 L531.34 1485.58 L531.34 1481.64 Q534.002 1478.89 538.585 1474.26 Q543.192 1469.61 544.372 1468.27 Q546.618 1465.74 547.497 1464.01 Q548.4 1462.25 548.4 1460.56 Q548.4 1457.8 546.455 1456.07 Q544.534 1454.33 541.432 1454.33 Q539.233 1454.33 536.78 1455.09 Q534.349 1455.86 531.571 1457.41 L531.571 1452.69 Q534.395 1451.55 536.849 1450.97 Q539.303 1450.39 541.34 1450.39 Q546.71 1450.39 549.905 1453.08 Q553.099 1455.77 553.099 1460.26 Q553.099 1462.39 552.289 1464.31 Q551.502 1466.2 549.395 1468.8 Q548.817 1469.47 545.715 1472.69 Q542.613 1475.88 536.965 1481.64 Z" fill="#000000" fill-rule="nonzero" fill-opacity="1" /><path clip-path="url(#clip040)" d="M983.155 1455.09 L971.35 1473.54 L983.155 1473.54 L983.155 1455.09 M981.928 1451.02 L987.808 1451.02 L987.808 1473.54 L992.739 1473.54 L992.739 1477.43 L987.808 1477.43 L987.808 1485.58 L983.155 1485.58 L983.155 1477.43 L967.554 1477.43 L967.554 1472.92 L981.928 1451.02 Z" fill="#000000" fill-rule="nonzero" fill-opacity="1" /><path clip-path="url(#clip040)" d="M1418.39 1466.44 Q1415.24 1466.44 1413.39 1468.59 Q1411.56 1470.74 1411.56 1474.49 Q1411.56 1478.22 1413.39 1480.39 Q1415.24 1482.55 1418.39 1482.55 Q1421.53 1482.55 1423.36 1480.39 Q1425.21 1478.22 1425.21 1474.49 Q1425.21 1470.74 1423.36 1468.59 Q1421.53 1466.44 1418.39 1466.44 M1427.67 1451.78 L1427.67 1456.04 Q1425.91 1455.21 1424.1 1454.77 Q1422.32 1454.33 1420.56 1454.33 Q1415.93 1454.33 1413.48 1457.45 Q1411.05 1460.58 1410.7 1466.9 Q1412.07 1464.89 1414.13 1463.82 Q1416.19 1462.73 1418.66 1462.73 Q1423.87 1462.73 1426.88 1465.9 Q1429.91 1469.05 1429.91 1474.49 Q1429.91 1479.82 1426.76 1483.03 Q1423.62 1486.25 1418.39 1486.25 Q1412.39 1486.25 1409.22 1481.67 Q1406.05 1477.06 1406.05 1468.33 Q1406.05 1460.14 1409.94 1455.28 Q1413.83 1450.39 1420.38 1450.39 Q1422.14 1450.39 1423.92 1450.74 Q1425.72 1451.09 1427.67 1451.78 Z" fill="#000000" fill-rule="nonzero" fill-opacity="1" /><path clip-path="url(#clip040)" d="M1855.81 1469.17 Q1852.48 1469.17 1850.56 1470.95 Q1848.66 1472.73 1848.66 1475.86 Q1848.66 1478.98 1850.56 1480.77 Q1852.48 1482.55 1855.81 1482.55 Q1859.15 1482.55 1861.07 1480.77 Q1862.99 1478.96 1862.99 1475.86 Q1862.99 1472.73 1861.07 1470.95 Q1859.17 1469.17 1855.81 1469.17 M1851.14 1467.18 Q1848.13 1466.44 1846.44 1464.38 Q1844.77 1462.32 1844.77 1459.35 Q1844.77 1455.21 1847.71 1452.8 Q1850.68 1450.39 1855.81 1450.39 Q1860.98 1450.39 1863.92 1452.8 Q1866.86 1455.21 1866.86 1459.35 Q1866.86 1462.32 1865.17 1464.38 Q1863.5 1466.44 1860.51 1467.18 Q1863.89 1467.96 1865.77 1470.26 Q1867.67 1472.55 1867.67 1475.86 Q1867.67 1480.88 1864.59 1483.57 Q1861.53 1486.25 1855.81 1486.25 Q1850.1 1486.25 1847.02 1483.57 Q1843.96 1480.88 1843.96 1475.86 Q1843.96 1472.55 1845.86 1470.26 Q1847.76 1467.96 1851.14 1467.18 M1849.43 1459.79 Q1849.43 1462.48 1851.09 1463.98 Q1852.78 1465.49 1855.81 1465.49 Q1858.82 1465.49 1860.51 1463.98 Q1862.23 1462.48 1862.23 1459.79 Q1862.23 1457.11 1860.51 1455.6 Q1858.82 1454.1 1855.81 1454.1 Q1852.78 1454.1 1851.09 1455.6 Q1849.43 1457.11 1849.43 1459.79 Z" fill="#000000" fill-rule="nonzero" fill-opacity="1" /><path clip-path="url(#clip040)" d="M2268.34 1481.64 L2275.97 1481.64 L2275.97 1455.28 L2267.66 1456.95 L2267.66 1452.69 L2275.93 1451.02 L2280.6 1451.02 L2280.6 1481.64 L2288.24 1481.64 L2288.24 1485.58 L2268.34 1485.58 L2268.34 1481.64 Z" fill="#000000" fill-rule="nonzero" fill-opacity="1" /><path clip-path="url(#clip040)" d="M2307.69 1454.1 Q2304.08 1454.1 2302.25 1457.66 Q2300.44 1461.2 2300.44 1468.33 Q2300.44 1475.44 2302.25 1479.01 Q2304.08 1482.55 2307.69 1482.55 Q2311.32 1482.55 2313.13 1479.01 Q2314.96 1475.44 2314.96 1468.33 Q2314.96 1461.2 2313.13 1457.66 Q2311.32 1454.1 2307.69 1454.1 M2307.69 1450.39 Q2313.5 1450.39 2316.55 1455 Q2319.63 1459.58 2319.63 1468.33 Q2319.63 1477.06 2316.55 1481.67 Q2313.5 1486.25 2307.69 1486.25 Q2301.88 1486.25 2298.8 1481.67 Q2295.74 1477.06 2295.74 1468.33 Q2295.74 1459.58 2298.8 1455 Q2301.88 1450.39 2307.69 1450.39 Z" fill="#000000" fill-rule="nonzero" fill-opacity="1" /><path clip-path="url(#clip040)" d="M1176.24 1520.52 L1182.67 1520.52 L1182.67 1568.04 L1176.24 1568.04 L1176.24 1520.52 Z" fill="#000000" fill-rule="nonzero" fill-opacity="1" /><path clip-path="url(#clip040)" d="M1201 1522.27 L1201 1532.4 L1213.07 1532.4 L1213.07 1536.95 L1201 1536.95 L1201 1556.3 Q1201 1560.66 1202.18 1561.9 Q1203.39 1563.14 1207.05 1563.14 L1213.07 1563.14 L1213.07 1568.04 L1207.05 1568.04 Q1200.27 1568.04 1197.69 1565.53 Q1195.12 1562.98 1195.12 1556.3 L1195.12 1536.95 L1190.82 1536.95 L1190.82 1532.4 L1195.12 1532.4 L1195.12 1522.27 L1201 1522.27 Z" fill="#000000" fill-rule="nonzero" fill-opacity="1" /><path clip-path="url(#clip040)" d="M1251.26 1548.76 L1251.26 1551.62 L1224.34 1551.62 Q1224.72 1557.67 1227.96 1560.85 Q1231.24 1564 1237.07 1564 Q1240.44 1564 1243.59 1563.17 Q1246.77 1562.35 1249.89 1560.69 L1249.89 1566.23 Q1246.74 1567.57 1243.43 1568.27 Q1240.12 1568.97 1236.72 1568.97 Q1228.19 1568.97 1223.19 1564 Q1218.22 1559.04 1218.22 1550.57 Q1218.22 1541.82 1222.93 1536.69 Q1227.68 1531.54 1235.7 1531.54 Q1242.89 1531.54 1247.06 1536.18 Q1251.26 1540.8 1251.26 1548.76 M1245.41 1547.04 Q1245.34 1542.23 1242.7 1539.37 Q1240.09 1536.5 1235.76 1536.5 Q1230.86 1536.5 1227.9 1539.27 Q1224.97 1542.04 1224.53 1547.07 L1245.41 1547.04 Z" fill="#000000" fill-rule="nonzero" fill-opacity="1" /><path clip-path="url(#clip040)" d="M1281.53 1537.87 Q1280.54 1537.3 1279.37 1537.04 Q1278.22 1536.76 1276.82 1536.76 Q1271.86 1536.76 1269.18 1540 Q1266.54 1543.22 1266.54 1549.27 L1266.54 1568.04 L1260.65 1568.04 L1260.65 1532.4 L1266.54 1532.4 L1266.54 1537.93 Q1268.39 1534.69 1271.35 1533.13 Q1274.31 1531.54 1278.54 1531.54 Q1279.14 1531.54 1279.88 1531.63 Q1280.61 1531.7 1281.5 1531.85 L1281.53 1537.87 Z" fill="#000000" fill-rule="nonzero" fill-opacity="1" /><path clip-path="url(#clip040)" d="M1303.87 1550.12 Q1296.78 1550.12 1294.04 1551.75 Q1291.3 1553.37 1291.3 1557.29 Q1291.3 1560.4 1293.34 1562.25 Q1295.41 1564.07 1298.94 1564.07 Q1303.81 1564.07 1306.74 1560.63 Q1309.7 1557.16 1309.7 1551.43 L1309.7 1550.12 L1303.87 1550.12 M1315.56 1547.71 L1315.56 1568.04 L1309.7 1568.04 L1309.7 1562.63 Q1307.69 1565.88 1304.7 1567.44 Q1301.71 1568.97 1297.38 1568.97 Q1291.91 1568.97 1288.66 1565.91 Q1285.45 1562.82 1285.45 1557.67 Q1285.45 1551.65 1289.46 1548.6 Q1293.5 1545.54 1301.49 1545.54 L1309.7 1545.54 L1309.7 1544.97 Q1309.7 1540.93 1307.03 1538.73 Q1304.38 1536.5 1299.58 1536.5 Q1296.52 1536.5 1293.63 1537.23 Q1290.73 1537.97 1288.06 1539.43 L1288.06 1534.02 Q1291.27 1532.78 1294.29 1532.17 Q1297.32 1531.54 1300.18 1531.54 Q1307.92 1531.54 1311.74 1535.55 Q1315.56 1539.56 1315.56 1547.71 Z" fill="#000000" fill-rule="nonzero" fill-opacity="1" /><path clip-path="url(#clip040)" d="M1333.41 1522.27 L1333.41 1532.4 L1345.47 1532.4 L1345.47 1536.95 L1333.41 1536.95 L1333.41 1556.3 Q1333.41 1560.66 1334.59 1561.9 Q1335.8 1563.14 1339.46 1563.14 L1345.47 1563.14 L1345.47 1568.04 L1339.46 1568.04 Q1332.68 1568.04 1330.1 1565.53 Q1327.52 1562.98 1327.52 1556.3 L1327.52 1536.95 L1323.23 1536.95 L1323.23 1532.4 L1327.52 1532.4 L1327.52 1522.27 L1333.41 1522.27 Z" fill="#000000" fill-rule="nonzero" fill-opacity="1" /><path clip-path="url(#clip040)" d="M1353.18 1532.4 L1359.03 1532.4 L1359.03 1568.04 L1353.18 1568.04 L1353.18 1532.4 M1353.18 1518.52 L1359.03 1518.52 L1359.03 1525.93 L1353.18 1525.93 L1353.18 1518.52 Z" fill="#000000" fill-rule="nonzero" fill-opacity="1" /><path clip-path="url(#clip040)" d="M1385.1 1536.5 Q1380.39 1536.5 1377.65 1540.19 Q1374.92 1543.85 1374.92 1550.25 Q1374.92 1556.65 1377.62 1560.34 Q1380.36 1564 1385.1 1564 Q1389.78 1564 1392.52 1560.31 Q1395.25 1556.62 1395.25 1550.25 Q1395.25 1543.92 1392.52 1540.23 Q1389.78 1536.5 1385.1 1536.5 M1385.1 1531.54 Q1392.74 1531.54 1397.1 1536.5 Q1401.46 1541.47 1401.46 1550.25 Q1401.46 1559 1397.1 1564 Q1392.74 1568.97 1385.1 1568.97 Q1377.43 1568.97 1373.07 1564 Q1368.74 1559 1368.74 1550.25 Q1368.74 1541.47 1373.07 1536.5 Q1377.43 1531.54 1385.1 1531.54 Z" fill="#000000" fill-rule="nonzero" fill-opacity="1" /><path clip-path="url(#clip040)" d="M1440.8 1546.53 L1440.8 1568.04 L1434.94 1568.04 L1434.94 1546.72 Q1434.94 1541.66 1432.97 1539.14 Q1431 1536.63 1427.05 1536.63 Q1422.31 1536.63 1419.57 1539.65 Q1416.83 1542.68 1416.83 1547.9 L1416.83 1568.04 L1410.95 1568.04 L1410.95 1532.4 L1416.83 1532.4 L1416.83 1537.93 Q1418.93 1534.72 1421.77 1533.13 Q1424.63 1531.54 1428.36 1531.54 Q1434.5 1531.54 1437.65 1535.36 Q1440.8 1539.14 1440.8 1546.53 Z" fill="#000000" fill-rule="nonzero" fill-opacity="1" /><polyline clip-path="url(#clip040)" style="stroke:#000000; stroke-linecap:round; stroke-linejoin:round; stroke-width:4; stroke-opacity:1; fill:none" points="264.287,1423.18 264.287,123.472 "/>
<polyline clip-path="url(#clip040)" style="stroke:#000000; stroke-linecap:round; stroke-linejoin:round; stroke-width:4; stroke-opacity:1; fill:none" points="264.287,1381.91 283.185,1381.91 "/>
<polyline clip-path="url(#clip040)" style="stroke:#000000; stroke-linecap:round; stroke-linejoin:round; stroke-width:4; stroke-opacity:1; fill:none" points="264.287,1093.19 283.185,1093.19 "/>
<polyline clip-path="url(#clip040)" style="stroke:#000000; stroke-linecap:round; stroke-linejoin:round; stroke-width:4; stroke-opacity:1; fill:none" points="264.287,804.468 283.185,804.468 "/>
<polyline clip-path="url(#clip040)" style="stroke:#000000; stroke-linecap:round; stroke-linejoin:round; stroke-width:4; stroke-opacity:1; fill:none" points="264.287,515.747 283.185,515.747 "/>
<polyline clip-path="url(#clip040)" style="stroke:#000000; stroke-linecap:round; stroke-linejoin:round; stroke-width:4; stroke-opacity:1; fill:none" points="264.287,227.026 283.185,227.026 "/>
<path clip-path="url(#clip040)" d="M116.668 1395.25 L124.306 1395.25 L124.306 1368.89 L115.996 1370.55 L115.996 1366.3 L124.26 1364.63 L128.936 1364.63 L128.936 1395.25 L136.575 1395.25 L136.575 1399.19 L116.668 1399.19 L116.668 1395.25 Z" fill="#000000" fill-rule="nonzero" fill-opacity="1" /><path clip-path="url(#clip040)" d="M156.019 1382.78 Q152.686 1382.78 150.765 1384.56 Q148.866 1386.34 148.866 1389.47 Q148.866 1392.59 150.765 1394.37 Q152.686 1396.16 156.019 1396.16 Q159.353 1396.16 161.274 1394.37 Q163.195 1392.57 163.195 1389.47 Q163.195 1386.34 161.274 1384.56 Q159.376 1382.78 156.019 1382.78 M151.343 1380.79 Q148.334 1380.05 146.644 1377.98 Q144.978 1375.92 144.978 1372.96 Q144.978 1368.82 147.917 1366.41 Q150.88 1364 156.019 1364 Q161.181 1364 164.121 1366.41 Q167.061 1368.82 167.061 1372.96 Q167.061 1375.92 165.371 1377.98 Q163.704 1380.05 160.718 1380.79 Q164.098 1381.57 165.973 1383.86 Q167.871 1386.16 167.871 1389.47 Q167.871 1394.49 164.792 1397.17 Q161.737 1399.86 156.019 1399.86 Q150.302 1399.86 147.223 1397.17 Q144.167 1394.49 144.167 1389.47 Q144.167 1386.16 146.066 1383.86 Q147.964 1381.57 151.343 1380.79 M149.63 1373.4 Q149.63 1376.09 151.297 1377.59 Q152.987 1379.1 156.019 1379.1 Q159.028 1379.1 160.718 1377.59 Q162.431 1376.09 162.431 1373.4 Q162.431 1370.72 160.718 1369.21 Q159.028 1367.71 156.019 1367.71 Q152.987 1367.71 151.297 1369.21 Q149.63 1370.72 149.63 1373.4 Z" fill="#000000" fill-rule="nonzero" fill-opacity="1" /><path clip-path="url(#clip040)" d="M186.181 1367.71 Q182.57 1367.71 180.741 1371.27 Q178.936 1374.81 178.936 1381.94 Q178.936 1389.05 180.741 1392.61 Q182.57 1396.16 186.181 1396.16 Q189.815 1396.16 191.621 1392.61 Q193.45 1389.05 193.45 1381.94 Q193.45 1374.81 191.621 1371.27 Q189.815 1367.71 186.181 1367.71 M186.181 1364 Q191.991 1364 195.047 1368.61 Q198.125 1373.19 198.125 1381.94 Q198.125 1390.67 195.047 1395.28 Q191.991 1399.86 186.181 1399.86 Q180.371 1399.86 177.292 1395.28 Q174.237 1390.67 174.237 1381.94 Q174.237 1373.19 177.292 1368.61 Q180.371 1364 186.181 1364 Z" fill="#000000" fill-rule="nonzero" fill-opacity="1" /><path clip-path="url(#clip040)" d="M216.343 1367.71 Q212.732 1367.71 210.903 1371.27 Q209.098 1374.81 209.098 1381.94 Q209.098 1389.05 210.903 1392.61 Q212.732 1396.16 216.343 1396.16 Q219.977 1396.16 221.783 1392.61 Q223.611 1389.05 223.611 1381.94 Q223.611 1374.81 221.783 1371.27 Q219.977 1367.71 216.343 1367.71 M216.343 1364 Q222.153 1364 225.209 1368.61 Q228.287 1373.19 228.287 1381.94 Q228.287 1390.67 225.209 1395.28 Q222.153 1399.86 216.343 1399.86 Q210.533 1399.86 207.454 1395.28 Q204.399 1390.67 204.399 1381.94 Q204.399 1373.19 207.454 1368.61 Q210.533 1364 216.343 1364 Z" fill="#000000" fill-rule="nonzero" fill-opacity="1" /><path clip-path="url(#clip040)" d="M116.668 1106.53 L124.306 1106.53 L124.306 1080.17 L115.996 1081.83 L115.996 1077.57 L124.26 1075.91 L128.936 1075.91 L128.936 1106.53 L136.575 1106.53 L136.575 1110.47 L116.668 1110.47 L116.668 1106.53 Z" fill="#000000" fill-rule="nonzero" fill-opacity="1" /><path clip-path="url(#clip040)" d="M146.158 1109.75 L146.158 1105.49 Q147.917 1106.32 149.723 1106.76 Q151.528 1107.2 153.265 1107.2 Q157.894 1107.2 160.325 1104.1 Q162.778 1100.98 163.126 1094.63 Q161.783 1096.63 159.723 1097.69 Q157.663 1098.76 155.163 1098.76 Q149.978 1098.76 146.945 1095.63 Q143.936 1092.48 143.936 1087.04 Q143.936 1081.72 147.084 1078.5 Q150.232 1075.28 155.464 1075.28 Q161.459 1075.28 164.607 1079.89 Q167.778 1084.47 167.778 1093.22 Q167.778 1101.39 163.89 1106.28 Q160.024 1111.14 153.473 1111.14 Q151.714 1111.14 149.908 1110.79 Q148.103 1110.44 146.158 1109.75 M155.464 1095.1 Q158.612 1095.1 160.44 1092.95 Q162.292 1090.79 162.292 1087.04 Q162.292 1083.32 160.44 1081.16 Q158.612 1078.99 155.464 1078.99 Q152.316 1078.99 150.464 1081.16 Q148.635 1083.32 148.635 1087.04 Q148.635 1090.79 150.464 1092.95 Q152.316 1095.1 155.464 1095.1 Z" fill="#000000" fill-rule="nonzero" fill-opacity="1" /><path clip-path="url(#clip040)" d="M186.181 1078.99 Q182.57 1078.99 180.741 1082.55 Q178.936 1086.09 178.936 1093.22 Q178.936 1100.33 180.741 1103.89 Q182.57 1107.44 186.181 1107.44 Q189.815 1107.44 191.621 1103.89 Q193.45 1100.33 193.45 1093.22 Q193.45 1086.09 191.621 1082.55 Q189.815 1078.99 186.181 1078.99 M186.181 1075.28 Q191.991 1075.28 195.047 1079.89 Q198.125 1084.47 198.125 1093.22 Q198.125 1101.95 195.047 1106.56 Q191.991 1111.14 186.181 1111.14 Q180.371 1111.14 177.292 1106.56 Q174.237 1101.95 174.237 1093.22 Q174.237 1084.47 177.292 1079.89 Q180.371 1075.28 186.181 1075.28 Z" fill="#000000" fill-rule="nonzero" fill-opacity="1" /><path clip-path="url(#clip040)" d="M216.343 1078.99 Q212.732 1078.99 210.903 1082.55 Q209.098 1086.09 209.098 1093.22 Q209.098 1100.33 210.903 1103.89 Q212.732 1107.44 216.343 1107.44 Q219.977 1107.44 221.783 1103.89 Q223.611 1100.33 223.611 1093.22 Q223.611 1086.09 221.783 1082.55 Q219.977 1078.99 216.343 1078.99 M216.343 1075.28 Q222.153 1075.28 225.209 1079.89 Q228.287 1084.47 228.287 1093.22 Q228.287 1101.95 225.209 1106.56 Q222.153 1111.14 216.343 1111.14 Q210.533 1111.14 207.454 1106.56 Q204.399 1101.95 204.399 1093.22 Q204.399 1084.47 207.454 1079.89 Q210.533 1075.28 216.343 1075.28 Z" fill="#000000" fill-rule="nonzero" fill-opacity="1" /><path clip-path="url(#clip040)" d="M119.885 817.812 L136.204 817.812 L136.204 821.748 L114.26 821.748 L114.26 817.812 Q116.922 815.058 121.505 810.428 Q126.112 805.775 127.292 804.433 Q129.538 801.91 130.417 800.174 Q131.32 798.414 131.32 796.725 Q131.32 793.97 129.376 792.234 Q127.455 790.498 124.353 790.498 Q122.154 790.498 119.7 791.262 Q117.269 792.025 114.492 793.576 L114.492 788.854 Q117.316 787.72 119.769 787.141 Q122.223 786.563 124.26 786.563 Q129.63 786.563 132.825 789.248 Q136.019 791.933 136.019 796.424 Q136.019 798.553 135.209 800.474 Q134.422 802.373 132.316 804.965 Q131.737 805.637 128.635 808.854 Q125.533 812.049 119.885 817.812 Z" fill="#000000" fill-rule="nonzero" fill-opacity="1" /><path clip-path="url(#clip040)" d="M156.019 790.266 Q152.408 790.266 150.579 793.831 Q148.774 797.373 148.774 804.502 Q148.774 811.609 150.579 815.173 Q152.408 818.715 156.019 818.715 Q159.653 818.715 161.459 815.173 Q163.288 811.609 163.288 804.502 Q163.288 797.373 161.459 793.831 Q159.653 790.266 156.019 790.266 M156.019 786.563 Q161.829 786.563 164.885 791.169 Q167.964 795.752 167.964 804.502 Q167.964 813.229 164.885 817.836 Q161.829 822.419 156.019 822.419 Q150.209 822.419 147.13 817.836 Q144.075 813.229 144.075 804.502 Q144.075 795.752 147.13 791.169 Q150.209 786.563 156.019 786.563 Z" fill="#000000" fill-rule="nonzero" fill-opacity="1" /><path clip-path="url(#clip040)" d="M186.181 790.266 Q182.57 790.266 180.741 793.831 Q178.936 797.373 178.936 804.502 Q178.936 811.609 180.741 815.173 Q182.57 818.715 186.181 818.715 Q189.815 818.715 191.621 815.173 Q193.45 811.609 193.45 804.502 Q193.45 797.373 191.621 793.831 Q189.815 790.266 186.181 790.266 M186.181 786.563 Q191.991 786.563 195.047 791.169 Q198.125 795.752 198.125 804.502 Q198.125 813.229 195.047 817.836 Q191.991 822.419 186.181 822.419 Q180.371 822.419 177.292 817.836 Q174.237 813.229 174.237 804.502 Q174.237 795.752 177.292 791.169 Q180.371 786.563 186.181 786.563 Z" fill="#000000" fill-rule="nonzero" fill-opacity="1" /><path clip-path="url(#clip040)" d="M216.343 790.266 Q212.732 790.266 210.903 793.831 Q209.098 797.373 209.098 804.502 Q209.098 811.609 210.903 815.173 Q212.732 818.715 216.343 818.715 Q219.977 818.715 221.783 815.173 Q223.611 811.609 223.611 804.502 Q223.611 797.373 221.783 793.831 Q219.977 790.266 216.343 790.266 M216.343 786.563 Q222.153 786.563 225.209 791.169 Q228.287 795.752 228.287 804.502 Q228.287 813.229 225.209 817.836 Q222.153 822.419 216.343 822.419 Q210.533 822.419 207.454 817.836 Q204.399 813.229 204.399 804.502 Q204.399 795.752 207.454 791.169 Q210.533 786.563 216.343 786.563 Z" fill="#000000" fill-rule="nonzero" fill-opacity="1" /><path clip-path="url(#clip040)" d="M119.885 529.092 L136.204 529.092 L136.204 533.027 L114.26 533.027 L114.26 529.092 Q116.922 526.337 121.505 521.708 Q126.112 517.055 127.292 515.712 Q129.538 513.189 130.417 511.453 Q131.32 509.694 131.32 508.004 Q131.32 505.249 129.376 503.513 Q127.455 501.777 124.353 501.777 Q122.154 501.777 119.7 502.541 Q117.269 503.305 114.492 504.856 L114.492 500.134 Q117.316 498.999 119.769 498.421 Q122.223 497.842 124.26 497.842 Q129.63 497.842 132.825 500.527 Q136.019 503.212 136.019 507.703 Q136.019 509.833 135.209 511.754 Q134.422 513.652 132.316 516.245 Q131.737 516.916 128.635 520.134 Q125.533 523.328 119.885 529.092 Z" fill="#000000" fill-rule="nonzero" fill-opacity="1" /><path clip-path="url(#clip040)" d="M146.829 529.092 L154.468 529.092 L154.468 502.726 L146.158 504.393 L146.158 500.134 L154.422 498.467 L159.098 498.467 L159.098 529.092 L166.737 529.092 L166.737 533.027 L146.829 533.027 L146.829 529.092 Z" fill="#000000" fill-rule="nonzero" fill-opacity="1" /><path clip-path="url(#clip040)" d="M186.181 501.546 Q182.57 501.546 180.741 505.11 Q178.936 508.652 178.936 515.782 Q178.936 522.888 180.741 526.453 Q182.57 529.995 186.181 529.995 Q189.815 529.995 191.621 526.453 Q193.45 522.888 193.45 515.782 Q193.45 508.652 191.621 505.11 Q189.815 501.546 186.181 501.546 M186.181 497.842 Q191.991 497.842 195.047 502.448 Q198.125 507.032 198.125 515.782 Q198.125 524.509 195.047 529.115 Q191.991 533.698 186.181 533.698 Q180.371 533.698 177.292 529.115 Q174.237 524.509 174.237 515.782 Q174.237 507.032 177.292 502.448 Q180.371 497.842 186.181 497.842 Z" fill="#000000" fill-rule="nonzero" fill-opacity="1" /><path clip-path="url(#clip040)" d="M216.343 501.546 Q212.732 501.546 210.903 505.11 Q209.098 508.652 209.098 515.782 Q209.098 522.888 210.903 526.453 Q212.732 529.995 216.343 529.995 Q219.977 529.995 221.783 526.453 Q223.611 522.888 223.611 515.782 Q223.611 508.652 221.783 505.11 Q219.977 501.546 216.343 501.546 M216.343 497.842 Q222.153 497.842 225.209 502.448 Q228.287 507.032 228.287 515.782 Q228.287 524.509 225.209 529.115 Q222.153 533.698 216.343 533.698 Q210.533 533.698 207.454 529.115 Q204.399 524.509 204.399 515.782 Q204.399 507.032 207.454 502.448 Q210.533 497.842 216.343 497.842 Z" fill="#000000" fill-rule="nonzero" fill-opacity="1" /><path clip-path="url(#clip040)" d="M119.885 240.371 L136.204 240.371 L136.204 244.306 L114.26 244.306 L114.26 240.371 Q116.922 237.617 121.505 232.987 Q126.112 228.334 127.292 226.992 Q129.538 224.469 130.417 222.733 Q131.32 220.973 131.32 219.283 Q131.32 216.529 129.376 214.793 Q127.455 213.057 124.353 213.057 Q122.154 213.057 119.7 213.821 Q117.269 214.584 114.492 216.135 L114.492 211.413 Q117.316 210.279 119.769 209.7 Q122.223 209.121 124.26 209.121 Q129.63 209.121 132.825 211.807 Q136.019 214.492 136.019 218.983 Q136.019 221.112 135.209 223.033 Q134.422 224.932 132.316 227.524 Q131.737 228.195 128.635 231.413 Q125.533 234.607 119.885 240.371 Z" fill="#000000" fill-rule="nonzero" fill-opacity="1" /><path clip-path="url(#clip040)" d="M150.047 240.371 L166.366 240.371 L166.366 244.306 L144.422 244.306 L144.422 240.371 Q147.084 237.617 151.667 232.987 Q156.274 228.334 157.454 226.992 Q159.7 224.469 160.579 222.733 Q161.482 220.973 161.482 219.283 Q161.482 216.529 159.538 214.793 Q157.616 213.057 154.515 213.057 Q152.316 213.057 149.862 213.821 Q147.431 214.584 144.654 216.135 L144.654 211.413 Q147.478 210.279 149.931 209.7 Q152.385 209.121 154.422 209.121 Q159.792 209.121 162.987 211.807 Q166.181 214.492 166.181 218.983 Q166.181 221.112 165.371 223.033 Q164.584 224.932 162.477 227.524 Q161.899 228.195 158.797 231.413 Q155.695 234.607 150.047 240.371 Z" fill="#000000" fill-rule="nonzero" fill-opacity="1" /><path clip-path="url(#clip040)" d="M186.181 212.825 Q182.57 212.825 180.741 216.39 Q178.936 219.932 178.936 227.061 Q178.936 234.168 180.741 237.732 Q182.57 241.274 186.181 241.274 Q189.815 241.274 191.621 237.732 Q193.45 234.168 193.45 227.061 Q193.45 219.932 191.621 216.39 Q189.815 212.825 186.181 212.825 M186.181 209.121 Q191.991 209.121 195.047 213.728 Q198.125 218.311 198.125 227.061 Q198.125 235.788 195.047 240.394 Q191.991 244.978 186.181 244.978 Q180.371 244.978 177.292 240.394 Q174.237 235.788 174.237 227.061 Q174.237 218.311 177.292 213.728 Q180.371 209.121 186.181 209.121 Z" fill="#000000" fill-rule="nonzero" fill-opacity="1" /><path clip-path="url(#clip040)" d="M216.343 212.825 Q212.732 212.825 210.903 216.39 Q209.098 219.932 209.098 227.061 Q209.098 234.168 210.903 237.732 Q212.732 241.274 216.343 241.274 Q219.977 241.274 221.783 237.732 Q223.611 234.168 223.611 227.061 Q223.611 219.932 221.783 216.39 Q219.977 212.825 216.343 212.825 M216.343 209.121 Q222.153 209.121 225.209 213.728 Q228.287 218.311 228.287 227.061 Q228.287 235.788 225.209 240.394 Q222.153 244.978 216.343 244.978 Q210.533 244.978 207.454 240.394 Q204.399 235.788 204.399 227.061 Q204.399 218.311 207.454 213.728 Q210.533 209.121 216.343 209.121 Z" fill="#000000" fill-rule="nonzero" fill-opacity="1" /><path clip-path="url(#clip040)" d="M16.4842 1114.62 L16.4842 1074.42 L21.895 1074.42 L21.895 1091.29 L64.0042 1091.29 L64.0042 1097.75 L21.895 1097.75 L21.895 1114.62 L16.4842 1114.62 Z" fill="#000000" fill-rule="nonzero" fill-opacity="1" /><path clip-path="url(#clip040)" d="M32.4621 1065.73 Q32.4621 1070.45 36.1542 1073.18 Q39.8145 1075.92 46.212 1075.92 Q52.6095 1075.92 56.3017 1073.21 Q59.9619 1070.48 59.9619 1065.73 Q59.9619 1061.06 56.2698 1058.32 Q52.5777 1055.58 46.212 1055.58 Q39.8781 1055.58 36.186 1058.32 Q32.4621 1061.06 32.4621 1065.73 M27.4968 1065.73 Q27.4968 1058.1 32.4621 1053.74 Q37.4273 1049.37 46.212 1049.37 Q54.9649 1049.37 59.9619 1053.74 Q64.9272 1058.1 64.9272 1065.73 Q64.9272 1073.41 59.9619 1077.77 Q54.9649 1082.09 46.212 1082.09 Q37.4273 1082.09 32.4621 1077.77 Q27.4968 1073.41 27.4968 1065.73 Z" fill="#000000" fill-rule="nonzero" fill-opacity="1" /><path clip-path="url(#clip040)" d="M18.2347 1033.87 L28.3562 1033.87 L28.3562 1021.81 L32.9077 1021.81 L32.9077 1033.87 L52.2594 1033.87 Q56.6199 1033.87 57.8613 1032.7 Q59.1026 1031.49 59.1026 1027.83 L59.1026 1021.81 L64.0042 1021.81 L64.0042 1027.83 Q64.0042 1034.61 61.4897 1037.18 Q58.9434 1039.76 52.2594 1039.76 L32.9077 1039.76 L32.9077 1044.06 L28.3562 1044.06 L28.3562 1039.76 L18.2347 1039.76 L18.2347 1033.87 Z" fill="#000000" fill-rule="nonzero" fill-opacity="1" /><path clip-path="url(#clip040)" d="M46.0847 997.908 Q46.0847 1005.01 47.7079 1007.74 Q49.3312 1010.48 53.2461 1010.48 Q56.3653 1010.48 58.2114 1008.44 Q60.0256 1006.37 60.0256 1002.84 Q60.0256 997.972 56.5881 995.044 Q53.1188 992.083 47.3897 992.083 L46.0847 992.083 L46.0847 997.908 M43.6657 986.227 L64.0042 986.227 L64.0042 992.083 L58.5933 992.083 Q61.8398 994.089 63.3994 997.081 Q64.9272 1000.07 64.9272 1004.4 Q64.9272 1009.88 61.8716 1013.12 Q58.7843 1016.34 53.6281 1016.34 Q47.6125 1016.34 44.5569 1012.33 Q41.5014 1008.28 41.5014 1000.3 L41.5014 992.083 L40.9285 992.083 Q36.8862 992.083 34.6901 994.757 Q32.4621 997.399 32.4621 1002.2 Q32.4621 1005.26 33.1941 1008.16 Q33.9262 1011.05 35.3903 1013.73 L29.9795 1013.73 Q28.7381 1010.51 28.1334 1007.49 Q27.4968 1004.46 27.4968 1001.6 Q27.4968 993.866 31.5072 990.046 Q35.5176 986.227 43.6657 986.227 Z" fill="#000000" fill-rule="nonzero" fill-opacity="1" /><path clip-path="url(#clip040)" d="M14.479 974.164 L14.479 968.308 L64.0042 968.308 L64.0042 974.164 L14.479 974.164 Z" fill="#000000" fill-rule="nonzero" fill-opacity="1" /><path clip-path="url(#clip040)" d="M16.4842 935.079 L16.4842 928.649 L58.5933 928.649 L58.5933 905.51 L64.0042 905.51 L64.0042 935.079 L16.4842 935.079 Z" fill="#000000" fill-rule="nonzero" fill-opacity="1" /><path clip-path="url(#clip040)" d="M32.4621 886.349 Q32.4621 891.06 36.1542 893.797 Q39.8145 896.534 46.212 896.534 Q52.6095 896.534 56.3017 893.829 Q59.9619 891.092 59.9619 886.349 Q59.9619 881.67 56.2698 878.933 Q52.5777 876.196 46.212 876.196 Q39.8781 876.196 36.186 878.933 Q32.4621 881.67 32.4621 886.349 M27.4968 886.349 Q27.4968 878.71 32.4621 874.35 Q37.4273 869.989 46.212 869.989 Q54.9649 869.989 59.9619 874.35 Q64.9272 878.71 64.9272 886.349 Q64.9272 894.02 59.9619 898.38 Q54.9649 902.709 46.212 902.709 Q37.4273 902.709 32.4621 898.38 Q27.4968 894.02 27.4968 886.349 Z" fill="#000000" fill-rule="nonzero" fill-opacity="1" /><path clip-path="url(#clip040)" d="M46.0847 844.081 Q46.0847 851.179 47.7079 853.916 Q49.3312 856.653 53.2461 856.653 Q56.3653 856.653 58.2114 854.616 Q60.0256 852.547 60.0256 849.014 Q60.0256 844.144 56.5881 841.216 Q53.1188 838.256 47.3897 838.256 L46.0847 838.256 L46.0847 844.081 M43.6657 832.4 L64.0042 832.4 L64.0042 838.256 L58.5933 838.256 Q61.8398 840.261 63.3994 843.253 Q64.9272 846.245 64.9272 850.574 Q64.9272 856.048 61.8716 859.295 Q58.7843 862.51 53.6281 862.51 Q47.6125 862.51 44.5569 858.499 Q41.5014 854.457 41.5014 846.468 L41.5014 838.256 L40.9285 838.256 Q36.8862 838.256 34.6901 840.93 Q32.4621 843.572 32.4621 848.378 Q32.4621 851.433 33.1941 854.33 Q33.9262 857.226 35.3903 859.9 L29.9795 859.9 Q28.7381 856.685 28.1334 853.661 Q27.4968 850.637 27.4968 847.773 Q27.4968 840.039 31.5072 836.219 Q35.5176 832.4 43.6657 832.4 Z" fill="#000000" fill-rule="nonzero" fill-opacity="1" /><path clip-path="url(#clip040)" d="M33.7671 796.879 L14.479 796.879 L14.479 791.023 L64.0042 791.023 L64.0042 796.879 L58.657 796.879 Q61.8398 798.725 63.3994 801.558 Q64.9272 804.359 64.9272 808.306 Q64.9272 814.767 59.771 818.841 Q54.6147 822.883 46.212 822.883 Q37.8093 822.883 32.6531 818.841 Q27.4968 814.767 27.4968 808.306 Q27.4968 804.359 29.0564 801.558 Q30.5842 798.725 33.7671 796.879 M46.212 816.836 Q52.6732 816.836 56.3653 814.194 Q60.0256 811.52 60.0256 806.873 Q60.0256 802.226 56.3653 799.553 Q52.6732 796.879 46.212 796.879 Q39.7508 796.879 36.0905 799.553 Q32.3984 802.226 32.3984 806.873 Q32.3984 811.52 36.0905 814.194 Q39.7508 816.836 46.212 816.836 Z" fill="#000000" fill-rule="nonzero" fill-opacity="1" /><path clip-path="url(#clip040)" d="M18.0438 729.498 L24.314 729.498 Q22.5634 733.158 21.704 736.405 Q20.8447 739.651 20.8447 742.675 Q20.8447 747.927 22.8817 750.791 Q24.9187 753.624 28.6745 753.624 Q31.8255 753.624 33.4488 751.746 Q35.0402 749.837 36.0269 744.553 L36.8226 740.67 Q38.1912 733.477 41.6605 730.071 Q45.098 726.634 50.8908 726.634 Q57.7976 726.634 61.3624 731.28 Q64.9272 735.896 64.9272 744.839 Q64.9272 748.213 64.1633 752.033 Q63.3994 755.82 61.9035 759.894 L55.2831 759.894 Q57.4793 755.979 58.5933 752.224 Q59.7073 748.468 59.7073 744.839 Q59.7073 739.333 57.543 736.341 Q55.3786 733.349 51.3682 733.349 Q47.8671 733.349 45.8937 735.514 Q43.9204 737.646 42.9337 742.548 L42.1698 746.463 Q40.7375 753.656 37.682 756.871 Q34.6264 760.085 29.1837 760.085 Q22.8817 760.085 19.2532 755.661 Q15.6248 751.205 15.6248 743.407 Q15.6248 740.065 16.2295 736.596 Q16.8343 733.127 18.0438 729.498 Z" fill="#000000" fill-rule="nonzero" fill-opacity="1" /><path clip-path="url(#clip040)" d="M42.4881 687.23 L64.0042 687.23 L64.0042 693.086 L42.679 693.086 Q37.6183 693.086 35.1038 695.06 Q32.5894 697.033 32.5894 700.98 Q32.5894 705.722 35.6131 708.459 Q38.6368 711.197 43.8567 711.197 L64.0042 711.197 L64.0042 717.085 L14.479 717.085 L14.479 711.197 L33.8944 711.197 Q30.6797 709.096 29.0883 706.263 Q27.4968 703.399 27.4968 699.675 Q27.4968 693.532 31.3163 690.381 Q35.1038 687.23 42.4881 687.23 Z" fill="#000000" fill-rule="nonzero" fill-opacity="1" /><path clip-path="url(#clip040)" d="M44.7161 645.057 L47.5806 645.057 L47.5806 671.984 Q53.6281 671.602 56.8109 668.355 Q59.9619 665.077 59.9619 659.253 Q59.9619 655.879 59.1344 652.728 Q58.3069 649.545 56.6518 646.426 L62.1899 646.426 Q63.5267 649.577 64.227 652.887 Q64.9272 656.197 64.9272 659.603 Q64.9272 668.133 59.9619 673.13 Q54.9967 678.095 46.5303 678.095 Q37.7774 678.095 32.6531 673.384 Q27.4968 668.642 27.4968 660.621 Q27.4968 653.428 32.1438 649.258 Q36.7589 645.057 44.7161 645.057 M42.9973 650.913 Q38.1912 650.977 35.3266 653.619 Q32.4621 656.229 32.4621 660.557 Q32.4621 665.459 35.2312 668.419 Q38.0002 671.347 43.0292 671.793 L42.9973 650.913 Z" fill="#000000" fill-rule="nonzero" fill-opacity="1" /><path clip-path="url(#clip040)" d="M33.7671 611.987 L14.479 611.987 L14.479 606.131 L64.0042 606.131 L64.0042 611.987 L58.657 611.987 Q61.8398 613.833 63.3994 616.666 Q64.9272 619.467 64.9272 623.414 Q64.9272 629.875 59.771 633.949 Q54.6147 637.991 46.212 637.991 Q37.8093 637.991 32.6531 633.949 Q27.4968 629.875 27.4968 623.414 Q27.4968 619.467 29.0564 616.666 Q30.5842 613.833 33.7671 611.987 M46.212 631.944 Q52.6732 631.944 56.3653 629.302 Q60.0256 626.628 60.0256 621.981 Q60.0256 617.334 56.3653 614.661 Q52.6732 611.987 46.212 611.987 Q39.7508 611.987 36.0905 614.661 Q32.3984 617.334 32.3984 621.981 Q32.3984 626.628 36.0905 629.302 Q39.7508 631.944 46.212 631.944 Z" fill="#000000" fill-rule="nonzero" fill-opacity="1" /><path clip-path="url(#clip040)" d="M14.5426 559.279 Q21.8632 563.544 29.0246 565.613 Q36.186 567.682 43.5384 567.682 Q50.8908 567.682 58.1159 565.613 Q65.3091 563.512 72.5979 559.279 L72.5979 564.372 Q65.1182 569.146 57.8931 571.533 Q50.668 573.888 43.5384 573.888 Q36.4406 573.888 29.2474 571.533 Q22.0542 569.178 14.5426 564.372 L14.5426 559.279 Z" fill="#000000" fill-rule="nonzero" fill-opacity="1" /><path clip-path="url(#clip040)" d="M14.479 548.139 L14.479 542.251 L43.7294 542.251 L28.3562 524.777 L28.3562 517.297 L45.0344 536.203 L64.0042 516.502 L64.0042 524.14 L46.5939 542.251 L64.0042 542.251 L64.0042 548.139 L14.479 548.139 Z" fill="#000000" fill-rule="nonzero" fill-opacity="1" /><path clip-path="url(#clip040)" d="M16.4842 514.146 L16.4842 507.653 L56.6518 497.659 L16.4842 487.697 L16.4842 480.472 L56.6518 470.477 L16.4842 460.515 L16.4842 453.99 L64.0042 465.926 L64.0042 474.01 L22.7544 484.036 L64.0042 494.158 L64.0042 502.242 L16.4842 514.146 Z" fill="#000000" fill-rule="nonzero" fill-opacity="1" /><path clip-path="url(#clip040)" d="M14.5426 446.638 L14.5426 441.545 Q22.0542 436.771 29.2474 434.416 Q36.4406 432.029 43.5384 432.029 Q50.668 432.029 57.8931 434.416 Q65.1182 436.771 72.5979 441.545 L72.5979 446.638 Q65.3091 442.405 58.1159 440.336 Q50.8908 438.235 43.5384 438.235 Q36.186 438.235 29.0246 440.336 Q21.8632 442.405 14.5426 446.638 Z" fill="#000000" fill-rule="nonzero" fill-opacity="1" /><path clip-path="url(#clip040)" d="M666.757 12.096 L717.92 12.096 L717.92 18.9825 L696.45 18.9825 L696.45 72.576 L688.227 72.576 L688.227 18.9825 L666.757 18.9825 L666.757 12.096 Z" fill="#000000" fill-rule="nonzero" fill-opacity="1" /><path clip-path="url(#clip040)" d="M728.979 32.4315 Q722.984 32.4315 719.5 37.1306 Q716.016 41.7891 716.016 49.9314 Q716.016 58.0738 719.459 62.7728 Q722.943 67.4314 728.979 67.4314 Q734.934 67.4314 738.418 62.7323 Q741.901 58.0333 741.901 49.9314 Q741.901 41.8701 738.418 37.1711 Q734.934 32.4315 728.979 32.4315 M728.979 26.1121 Q738.701 26.1121 744.251 32.4315 Q749.801 38.7509 749.801 49.9314 Q749.801 61.0714 744.251 67.4314 Q738.701 73.7508 728.979 73.7508 Q719.216 73.7508 713.667 67.4314 Q708.157 61.0714 708.157 49.9314 Q708.157 38.7509 713.667 32.4315 Q719.216 26.1121 728.979 26.1121 Z" fill="#000000" fill-rule="nonzero" fill-opacity="1" /><path clip-path="url(#clip040)" d="M769.529 14.324 L769.529 27.2059 L784.881 27.2059 L784.881 32.9987 L769.529 32.9987 L769.529 57.6282 Q769.529 63.1779 771.027 64.7578 Q772.567 66.3376 777.225 66.3376 L784.881 66.3376 L784.881 72.576 L777.225 72.576 Q768.597 72.576 765.316 69.3758 Q762.034 66.1351 762.034 57.6282 L762.034 32.9987 L756.566 32.9987 L756.566 27.2059 L762.034 27.2059 L762.034 14.324 L769.529 14.324 Z" fill="#000000" fill-rule="nonzero" fill-opacity="1" /><path clip-path="url(#clip040)" d="M815.304 49.7694 Q806.27 49.7694 802.786 51.8354 Q799.303 53.9013 799.303 58.8839 Q799.303 62.8538 801.895 65.2034 Q804.528 67.5124 809.025 67.5124 Q815.223 67.5124 818.95 63.1374 Q822.717 58.7219 822.717 51.4303 L822.717 49.7694 L815.304 49.7694 M830.171 46.6907 L830.171 72.576 L822.717 72.576 L822.717 65.6895 Q820.165 69.8214 816.357 71.8063 Q812.549 73.7508 807.04 73.7508 Q800.072 73.7508 795.94 69.8619 Q791.849 65.9325 791.849 59.3701 Q791.849 51.7138 796.953 47.825 Q802.098 43.9361 812.266 43.9361 L822.717 43.9361 L822.717 43.2069 Q822.717 38.0623 819.314 35.2672 Q815.952 32.4315 809.835 32.4315 Q805.946 32.4315 802.26 33.3632 Q798.574 34.295 795.171 36.1584 L795.171 29.2718 Q799.262 27.692 803.111 26.9223 Q806.959 26.1121 810.605 26.1121 Q820.448 26.1121 825.31 31.2163 Q830.171 36.3204 830.171 46.6907 Z" fill="#000000" fill-rule="nonzero" fill-opacity="1" /><path clip-path="url(#clip040)" d="M845.524 9.54393 L852.977 9.54393 L852.977 72.576 L845.524 72.576 L845.524 9.54393 Z" fill="#000000" fill-rule="nonzero" fill-opacity="1" /><path clip-path="url(#clip040)" d="M895.269 12.096 L903.451 12.096 L903.451 65.6895 L932.902 65.6895 L932.902 72.576 L895.269 72.576 L895.269 12.096 Z" fill="#000000" fill-rule="nonzero" fill-opacity="1" /><path clip-path="url(#clip040)" d="M957.288 32.4315 Q951.293 32.4315 947.809 37.1306 Q944.325 41.7891 944.325 49.9314 Q944.325 58.0738 947.768 62.7728 Q951.252 67.4314 957.288 67.4314 Q963.243 67.4314 966.727 62.7323 Q970.21 58.0333 970.21 49.9314 Q970.21 41.8701 966.727 37.1711 Q963.243 32.4315 957.288 32.4315 M957.288 26.1121 Q967.01 26.1121 972.56 32.4315 Q978.11 38.7509 978.11 49.9314 Q978.11 61.0714 972.56 67.4314 Q967.01 73.7508 957.288 73.7508 Q947.525 73.7508 941.976 67.4314 Q936.466 61.0714 936.466 49.9314 Q936.466 38.7509 941.976 32.4315 Q947.525 26.1121 957.288 26.1121 Z" fill="#000000" fill-rule="nonzero" fill-opacity="1" /><path clip-path="url(#clip040)" d="M1011.08 49.7694 Q1002.05 49.7694 998.567 51.8354 Q995.083 53.9013 995.083 58.8839 Q995.083 62.8538 997.675 65.2034 Q1000.31 67.5124 1004.81 67.5124 Q1011 67.5124 1014.73 63.1374 Q1018.5 58.7219 1018.5 51.4303 L1018.5 49.7694 L1011.08 49.7694 M1025.95 46.6907 L1025.95 72.576 L1018.5 72.576 L1018.5 65.6895 Q1015.95 69.8214 1012.14 71.8063 Q1008.33 73.7508 1002.82 73.7508 Q995.853 73.7508 991.721 69.8619 Q987.629 65.9325 987.629 59.3701 Q987.629 51.7138 992.733 47.825 Q997.878 43.9361 1008.05 43.9361 L1018.5 43.9361 L1018.5 43.2069 Q1018.5 38.0623 1015.09 35.2672 Q1011.73 32.4315 1005.62 32.4315 Q1001.73 32.4315 998.04 33.3632 Q994.354 34.295 990.951 36.1584 L990.951 29.2718 Q995.042 27.692 998.891 26.9223 Q1002.74 26.1121 1006.38 26.1121 Q1016.23 26.1121 1021.09 31.2163 Q1025.95 36.3204 1025.95 46.6907 Z" fill="#000000" fill-rule="nonzero" fill-opacity="1" /><path clip-path="url(#clip040)" d="M1071.16 34.0924 L1071.16 9.54393 L1078.61 9.54393 L1078.61 72.576 L1071.16 72.576 L1071.16 65.7705 Q1068.81 69.8214 1065.2 71.8063 Q1061.64 73.7508 1056.62 73.7508 Q1048.39 73.7508 1043.21 67.1883 Q1038.06 60.6258 1038.06 49.9314 Q1038.06 39.2371 1043.21 32.6746 Q1048.39 26.1121 1056.62 26.1121 Q1061.64 26.1121 1065.2 28.0971 Q1068.81 30.0415 1071.16 34.0924 M1045.76 49.9314 Q1045.76 58.1548 1049.12 62.8538 Q1052.52 67.5124 1058.44 67.5124 Q1064.35 67.5124 1067.76 62.8538 Q1071.16 58.1548 1071.16 49.9314 Q1071.16 41.7081 1067.76 37.0496 Q1064.35 32.3505 1058.44 32.3505 Q1052.52 32.3505 1049.12 37.0496 Q1045.76 41.7081 1045.76 49.9314 Z" fill="#000000" fill-rule="nonzero" fill-opacity="1" /><path clip-path="url(#clip040)" d="M1156.92 14.0809 L1156.92 22.0612 Q1152.26 19.8332 1148.13 18.7395 Q1143.99 17.6457 1140.15 17.6457 Q1133.46 17.6457 1129.82 20.2383 Q1126.21 22.8309 1126.21 27.611 Q1126.21 31.6214 1128.6 33.6873 Q1131.03 35.7128 1137.76 36.9686 L1142.7 37.9813 Q1151.85 39.7232 1156.19 44.1387 Q1160.56 48.5136 1160.56 55.8863 Q1160.56 64.6767 1154.65 69.2137 Q1148.77 73.7508 1137.39 73.7508 Q1133.1 73.7508 1128.24 72.7785 Q1123.42 71.8063 1118.23 69.9024 L1118.23 61.4765 Q1123.21 64.2716 1127.99 65.6895 Q1132.77 67.1073 1137.39 67.1073 Q1144.4 67.1073 1148.21 64.3527 Q1152.01 61.598 1152.01 56.4939 Q1152.01 52.0379 1149.26 49.5264 Q1146.55 47.0148 1140.31 45.759 L1135.33 44.7868 Q1126.17 42.9639 1122.08 39.075 Q1117.99 35.1862 1117.99 28.2591 Q1117.99 20.2383 1123.62 15.6203 Q1129.29 11.0023 1139.21 11.0023 Q1143.47 11.0023 1147.88 11.7719 Q1152.3 12.5416 1156.92 14.0809 Z" fill="#000000" fill-rule="nonzero" fill-opacity="1" /><path clip-path="url(#clip040)" d="M1210.71 45.1919 L1210.71 72.576 L1203.26 72.576 L1203.26 45.4349 Q1203.26 38.994 1200.75 35.7938 Q1198.24 32.5936 1193.21 32.5936 Q1187.18 32.5936 1183.69 36.4419 Q1180.21 40.2903 1180.21 46.9338 L1180.21 72.576 L1172.72 72.576 L1172.72 9.54393 L1180.21 9.54393 L1180.21 34.2544 Q1182.88 30.163 1186.49 28.1376 Q1190.13 26.1121 1194.87 26.1121 Q1202.69 26.1121 1206.7 30.9732 Q1210.71 35.7938 1210.71 45.1919 Z" fill="#000000" fill-rule="nonzero" fill-opacity="1" /><path clip-path="url(#clip040)" d="M1264.39 48.0275 L1264.39 51.6733 L1230.12 51.6733 Q1230.6 59.3701 1234.73 63.421 Q1238.91 67.4314 1246.32 67.4314 Q1250.61 67.4314 1254.62 66.3781 Q1258.68 65.3249 1262.65 63.2184 L1262.65 70.267 Q1258.63 71.9684 1254.42 72.8596 Q1250.21 73.7508 1245.87 73.7508 Q1235.02 73.7508 1228.66 67.4314 Q1222.34 61.1119 1222.34 50.3365 Q1222.34 39.1965 1228.33 32.6746 Q1234.37 26.1121 1244.58 26.1121 Q1253.73 26.1121 1259.04 32.0264 Q1264.39 37.9003 1264.39 48.0275 M1256.93 45.84 Q1256.85 39.7232 1253.49 36.0774 Q1250.17 32.4315 1244.66 32.4315 Q1238.42 32.4315 1234.65 35.9558 Q1230.93 39.4801 1230.36 45.8805 L1256.93 45.84 Z" fill="#000000" fill-rule="nonzero" fill-opacity="1" /><path clip-path="url(#clip040)" d="M1306.48 34.0924 L1306.48 9.54393 L1313.93 9.54393 L1313.93 72.576 L1306.48 72.576 L1306.48 65.7705 Q1304.13 69.8214 1300.52 71.8063 Q1296.96 73.7508 1291.93 73.7508 Q1283.71 73.7508 1278.52 67.1883 Q1273.38 60.6258 1273.38 49.9314 Q1273.38 39.2371 1278.52 32.6746 Q1283.71 26.1121 1291.93 26.1121 Q1296.96 26.1121 1300.52 28.0971 Q1304.13 30.0415 1306.48 34.0924 M1281.08 49.9314 Q1281.08 58.1548 1284.44 62.8538 Q1287.84 67.5124 1293.76 67.5124 Q1299.67 67.5124 1303.07 62.8538 Q1306.48 58.1548 1306.48 49.9314 Q1306.48 41.7081 1303.07 37.0496 Q1299.67 32.3505 1293.76 32.3505 Q1287.84 32.3505 1284.44 37.0496 Q1281.08 41.7081 1281.08 49.9314 Z" fill="#000000" fill-rule="nonzero" fill-opacity="1" /><path clip-path="url(#clip040)" d="M1373.23 32.4315 Q1367.24 32.4315 1363.76 37.1306 Q1360.27 41.7891 1360.27 49.9314 Q1360.27 58.0738 1363.72 62.7728 Q1367.2 67.4314 1373.23 67.4314 Q1379.19 67.4314 1382.67 62.7323 Q1386.16 58.0333 1386.16 49.9314 Q1386.16 41.8701 1382.67 37.1711 Q1379.19 32.4315 1373.23 32.4315 M1373.23 26.1121 Q1382.96 26.1121 1388.51 32.4315 Q1394.06 38.7509 1394.06 49.9314 Q1394.06 61.0714 1388.51 67.4314 Q1382.96 73.7508 1373.23 73.7508 Q1363.47 73.7508 1357.92 67.4314 Q1352.41 61.0714 1352.41 49.9314 Q1352.41 38.7509 1357.92 32.4315 Q1363.47 26.1121 1373.23 26.1121 Z" fill="#000000" fill-rule="nonzero" fill-opacity="1" /><path clip-path="url(#clip040)" d="M1401.06 27.2059 L1408.96 27.2059 L1423.14 65.2844 L1437.32 27.2059 L1445.22 27.2059 L1428.21 72.576 L1418.08 72.576 L1401.06 27.2059 Z" fill="#000000" fill-rule="nonzero" fill-opacity="1" /><path clip-path="url(#clip040)" d="M1494.32 48.0275 L1494.32 51.6733 L1460.05 51.6733 Q1460.53 59.3701 1464.66 63.421 Q1468.84 67.4314 1476.25 67.4314 Q1480.54 67.4314 1484.55 66.3781 Q1488.6 65.3249 1492.57 63.2184 L1492.57 70.267 Q1488.56 71.9684 1484.35 72.8596 Q1480.14 73.7508 1475.8 73.7508 Q1464.95 73.7508 1458.59 67.4314 Q1452.27 61.1119 1452.27 50.3365 Q1452.27 39.1965 1458.26 32.6746 Q1464.3 26.1121 1474.51 26.1121 Q1483.66 26.1121 1488.97 32.0264 Q1494.32 37.9003 1494.32 48.0275 M1486.86 45.84 Q1486.78 39.7232 1483.42 36.0774 Q1480.1 32.4315 1474.59 32.4315 Q1468.35 32.4315 1464.58 35.9558 Q1460.86 39.4801 1460.29 45.8805 L1486.86 45.84 Z" fill="#000000" fill-rule="nonzero" fill-opacity="1" /><path clip-path="url(#clip040)" d="M1532.84 34.1734 Q1531.58 33.4443 1530.09 33.1202 Q1528.63 32.7556 1526.85 32.7556 Q1520.53 32.7556 1517.12 36.8875 Q1513.76 40.9789 1513.76 48.6757 L1513.76 72.576 L1506.27 72.576 L1506.27 27.2059 L1513.76 27.2059 L1513.76 34.2544 Q1516.11 30.1225 1519.88 28.1376 Q1523.64 26.1121 1529.03 26.1121 Q1529.8 26.1121 1530.73 26.2337 Q1531.67 26.3147 1532.8 26.5172 L1532.84 34.1734 Z" fill="#000000" fill-rule="nonzero" fill-opacity="1" /><path clip-path="url(#clip040)" d="M1567.35 12.096 L1575.54 12.096 L1575.54 72.576 L1567.35 72.576 L1567.35 12.096 Z" fill="#000000" fill-rule="nonzero" fill-opacity="1" /><path clip-path="url(#clip040)" d="M1598.87 14.324 L1598.87 27.2059 L1614.22 27.2059 L1614.22 32.9987 L1598.87 32.9987 L1598.87 57.6282 Q1598.87 63.1779 1600.37 64.7578 Q1601.91 66.3376 1606.57 66.3376 L1614.22 66.3376 L1614.22 72.576 L1606.57 72.576 Q1597.94 72.576 1594.66 69.3758 Q1591.38 66.1351 1591.38 57.6282 L1591.38 32.9987 L1585.91 32.9987 L1585.91 27.2059 L1591.38 27.2059 L1591.38 14.324 L1598.87 14.324 Z" fill="#000000" fill-rule="nonzero" fill-opacity="1" /><path clip-path="url(#clip040)" d="M1662.83 48.0275 L1662.83 51.6733 L1628.56 51.6733 Q1629.05 59.3701 1633.18 63.421 Q1637.35 67.4314 1644.77 67.4314 Q1649.06 67.4314 1653.07 66.3781 Q1657.12 65.3249 1661.09 63.2184 L1661.09 70.267 Q1657.08 71.9684 1652.87 72.8596 Q1648.66 73.7508 1644.32 73.7508 Q1633.46 73.7508 1627.1 67.4314 Q1620.79 61.1119 1620.79 50.3365 Q1620.79 39.1965 1626.78 32.6746 Q1632.82 26.1121 1643.03 26.1121 Q1652.18 26.1121 1657.49 32.0264 Q1662.83 37.9003 1662.83 48.0275 M1655.38 45.84 Q1655.3 39.7232 1651.94 36.0774 Q1648.62 32.4315 1643.11 32.4315 Q1636.87 32.4315 1633.1 35.9558 Q1629.37 39.4801 1628.81 45.8805 L1655.38 45.84 Z" fill="#000000" fill-rule="nonzero" fill-opacity="1" /><path clip-path="url(#clip040)" d="M1701.36 34.1734 Q1700.1 33.4443 1698.6 33.1202 Q1697.15 32.7556 1695.36 32.7556 Q1689.04 32.7556 1685.64 36.8875 Q1682.28 40.9789 1682.28 48.6757 L1682.28 72.576 L1674.78 72.576 L1674.78 27.2059 L1682.28 27.2059 L1682.28 34.2544 Q1684.63 30.1225 1688.4 28.1376 Q1692.16 26.1121 1697.55 26.1121 Q1698.32 26.1121 1699.25 26.2337 Q1700.18 26.3147 1701.32 26.5172 L1701.36 34.1734 Z" fill="#000000" fill-rule="nonzero" fill-opacity="1" /><path clip-path="url(#clip040)" d="M1729.8 49.7694 Q1720.76 49.7694 1717.28 51.8354 Q1713.79 53.9013 1713.79 58.8839 Q1713.79 62.8538 1716.39 65.2034 Q1719.02 67.5124 1723.52 67.5124 Q1729.71 67.5124 1733.44 63.1374 Q1737.21 58.7219 1737.21 51.4303 L1737.21 49.7694 L1729.8 49.7694 M1744.66 46.6907 L1744.66 72.576 L1737.21 72.576 L1737.21 65.6895 Q1734.66 69.8214 1730.85 71.8063 Q1727.04 73.7508 1721.53 73.7508 Q1714.56 73.7508 1710.43 69.8619 Q1706.34 65.9325 1706.34 59.3701 Q1706.34 51.7138 1711.44 47.825 Q1716.59 43.9361 1726.76 43.9361 L1737.21 43.9361 L1737.21 43.2069 Q1737.21 38.0623 1733.81 35.2672 Q1730.44 32.4315 1724.33 32.4315 Q1720.44 32.4315 1716.75 33.3632 Q1713.07 34.295 1709.66 36.1584 L1709.66 29.2718 Q1713.75 27.692 1717.6 26.9223 Q1721.45 26.1121 1725.1 26.1121 Q1734.94 26.1121 1739.8 31.2163 Q1744.66 36.3204 1744.66 46.6907 Z" fill="#000000" fill-rule="nonzero" fill-opacity="1" /><path clip-path="url(#clip040)" d="M1767.39 14.324 L1767.39 27.2059 L1782.74 27.2059 L1782.74 32.9987 L1767.39 32.9987 L1767.39 57.6282 Q1767.39 63.1779 1768.89 64.7578 Q1770.43 66.3376 1775.08 66.3376 L1782.74 66.3376 L1782.74 72.576 L1775.08 72.576 Q1766.46 72.576 1763.17 69.3758 Q1759.89 66.1351 1759.89 57.6282 L1759.89 32.9987 L1754.42 32.9987 L1754.42 27.2059 L1759.89 27.2059 L1759.89 14.324 L1767.39 14.324 Z" fill="#000000" fill-rule="nonzero" fill-opacity="1" /><path clip-path="url(#clip040)" d="M1792.54 27.2059 L1800 27.2059 L1800 72.576 L1792.54 72.576 L1792.54 27.2059 M1792.54 9.54393 L1800 9.54393 L1800 18.9825 L1792.54 18.9825 L1792.54 9.54393 Z" fill="#000000" fill-rule="nonzero" fill-opacity="1" /><path clip-path="url(#clip040)" d="M1833.17 32.4315 Q1827.18 32.4315 1823.7 37.1306 Q1820.21 41.7891 1820.21 49.9314 Q1820.21 58.0738 1823.65 62.7728 Q1827.14 67.4314 1833.17 67.4314 Q1839.13 67.4314 1842.61 62.7323 Q1846.1 58.0333 1846.1 49.9314 Q1846.1 41.8701 1842.61 37.1711 Q1839.13 32.4315 1833.17 32.4315 M1833.17 26.1121 Q1842.9 26.1121 1848.45 32.4315 Q1854 38.7509 1854 49.9314 Q1854 61.0714 1848.45 67.4314 Q1842.9 73.7508 1833.17 73.7508 Q1823.41 73.7508 1817.86 67.4314 Q1812.35 61.0714 1812.35 49.9314 Q1812.35 38.7509 1817.86 32.4315 Q1823.41 26.1121 1833.17 26.1121 Z" fill="#000000" fill-rule="nonzero" fill-opacity="1" /><path clip-path="url(#clip040)" d="M1904.07 45.1919 L1904.07 72.576 L1896.61 72.576 L1896.61 45.4349 Q1896.61 38.994 1894.1 35.7938 Q1891.59 32.5936 1886.57 32.5936 Q1880.53 32.5936 1877.05 36.4419 Q1873.56 40.2903 1873.56 46.9338 L1873.56 72.576 L1866.07 72.576 L1866.07 27.2059 L1873.56 27.2059 L1873.56 34.2544 Q1876.24 30.163 1879.84 28.1376 Q1883.49 26.1121 1888.23 26.1121 Q1896.04 26.1121 1900.05 30.9732 Q1904.07 35.7938 1904.07 45.1919 Z" fill="#000000" fill-rule="nonzero" fill-opacity="1" /><path clip-path="url(#clip040)" d="M1947.86 28.5427 L1947.86 35.5912 Q1944.7 33.9709 1941.29 33.1607 Q1937.89 32.3505 1934.24 32.3505 Q1928.69 32.3505 1925.9 34.0519 Q1923.15 35.7533 1923.15 39.156 Q1923.15 41.7486 1925.13 43.2475 Q1927.11 44.7058 1933.11 46.0426 L1935.66 46.6097 Q1943.6 48.3111 1946.92 51.4303 Q1950.29 54.509 1950.29 60.0587 Q1950.29 66.3781 1945.26 70.0644 Q1940.28 73.7508 1931.53 73.7508 Q1927.88 73.7508 1923.91 73.0216 Q1919.99 72.3329 1915.61 70.9151 L1915.61 63.2184 Q1919.74 65.3654 1923.75 66.4591 Q1927.76 67.5124 1931.69 67.5124 Q1936.96 67.5124 1939.79 65.73 Q1942.63 63.9071 1942.63 60.6258 Q1942.63 57.5877 1940.56 55.9673 Q1938.54 54.3469 1931.61 52.8481 L1929.02 52.2405 Q1922.09 50.7821 1919.01 47.7845 Q1915.93 44.7463 1915.93 39.4801 Q1915.93 33.0797 1920.47 29.5959 Q1925.01 26.1121 1933.35 26.1121 Q1937.49 26.1121 1941.13 26.7198 Q1944.78 27.3274 1947.86 28.5427 Z" fill="#000000" fill-rule="nonzero" fill-opacity="1" /><polyline clip-path="url(#clip042)" style="stroke:#009af9; stroke-linecap:round; stroke-linejoin:round; stroke-width:4; stroke-opacity:1; fill:none" points="323.395,160.256 542.312,1386.4 761.229,575.03 980.146,575.03 1199.06,575.03 1417.98,575.03 1636.9,575.03 1855.81,311.35 2074.73,575.03 2293.65,575.03 "/>
<path clip-path="url(#clip042)" d="M323.395 176.256 L312.083 171.568 L307.395 160.256 L312.083 148.944 L323.395 144.256 L334.707 148.944 L339.395 160.256 L334.707 171.568 Z" fill="#009af9" fill-rule="evenodd" fill-opacity="1" stroke="#000000" stroke-opacity="1" stroke-width="3.2"/>
<path clip-path="url(#clip042)" d="M542.312 1402.4 L531 1397.71 L526.312 1386.4 L531 1375.08 L542.312 1370.4 L553.624 1375.08 L558.312 1386.4 L553.624 1397.71 Z" fill="#009af9" fill-rule="evenodd" fill-opacity="1" stroke="#000000" stroke-opacity="1" stroke-width="3.2"/>
<path clip-path="url(#clip042)" d="M761.229 591.03 L749.917 586.342 L745.229 575.03 L749.917 563.718 L761.229 559.03 L772.541 563.718 L777.229 575.03 L772.541 586.342 Z" fill="#009af9" fill-rule="evenodd" fill-opacity="1" stroke="#000000" stroke-opacity="1" stroke-width="3.2"/>
<path clip-path="url(#clip042)" d="M980.146 591.03 L968.834 586.342 L964.146 575.03 L968.834 563.718 L980.146 559.03 L991.458 563.718 L996.146 575.03 L991.458 586.342 Z" fill="#009af9" fill-rule="evenodd" fill-opacity="1" stroke="#000000" stroke-opacity="1" stroke-width="3.2"/>
<path clip-path="url(#clip042)" d="M1199.06 591.03 L1187.75 586.342 L1183.06 575.03 L1187.75 563.718 L1199.06 559.03 L1210.38 563.718 L1215.06 575.03 L1210.38 586.342 Z" fill="#009af9" fill-rule="evenodd" fill-opacity="1" stroke="#000000" stroke-opacity="1" stroke-width="3.2"/>
<path clip-path="url(#clip042)" d="M1417.98 591.03 L1406.67 586.342 L1401.98 575.03 L1406.67 563.718 L1417.98 559.03 L1429.29 563.718 L1433.98 575.03 L1429.29 586.342 Z" fill="#009af9" fill-rule="evenodd" fill-opacity="1" stroke="#000000" stroke-opacity="1" stroke-width="3.2"/>
<path clip-path="url(#clip042)" d="M1636.9 591.03 L1625.59 586.342 L1620.9 575.03 L1625.59 563.718 L1636.9 559.03 L1648.21 563.718 L1652.9 575.03 L1648.21 586.342 Z" fill="#009af9" fill-rule="evenodd" fill-opacity="1" stroke="#000000" stroke-opacity="1" stroke-width="3.2"/>
<path clip-path="url(#clip042)" d="M1855.81 327.35 L1844.5 322.662 L1839.81 311.35 L1844.5 300.038 L1855.81 295.35 L1867.13 300.038 L1871.81 311.35 L1867.13 322.662 Z" fill="#009af9" fill-rule="evenodd" fill-opacity="1" stroke="#000000" stroke-opacity="1" stroke-width="3.2"/>
<path clip-path="url(#clip042)" d="M2074.73 591.03 L2063.42 586.342 L2058.73 575.03 L2063.42 563.718 L2074.73 559.03 L2086.04 563.718 L2090.73 575.03 L2086.04 586.342 Z" fill="#009af9" fill-rule="evenodd" fill-opacity="1" stroke="#000000" stroke-opacity="1" stroke-width="3.2"/>
<path clip-path="url(#clip042)" d="M2293.65 591.03 L2282.34 586.342 L2277.65 575.03 L2282.34 563.718 L2293.65 559.03 L2304.96 563.718 L2309.65 575.03 L2304.96 586.342 Z" fill="#009af9" fill-rule="evenodd" fill-opacity="1" stroke="#000000" stroke-opacity="1" stroke-width="3.2"/>
<path clip-path="url(#clip040)" d="M2021.86 1379.86 L2283.14 1379.86 L2283.14 1276.18 L2021.86 1276.18  Z" fill="#ffffff" fill-rule="evenodd" fill-opacity="1"/>
<polyline clip-path="url(#clip040)" style="stroke:#000000; stroke-linecap:round; stroke-linejoin:round; stroke-width:4; stroke-opacity:1; fill:none" points="2021.86,1379.86 2283.14,1379.86 2283.14,1276.18 2021.86,1276.18 2021.86,1379.86 "/>
<polyline clip-path="url(#clip040)" style="stroke:#009af9; stroke-linecap:round; stroke-linejoin:round; stroke-width:4; stroke-opacity:1; fill:none" points="2045.07,1328.02 2184.3,1328.02 "/>
<path clip-path="url(#clip040)" d="M2114.68 1349.5 L2099.49 1343.21 L2093.2 1328.02 L2099.49 1312.83 L2114.68 1306.53 L2129.87 1312.83 L2136.17 1328.02 L2129.87 1343.21 Z" fill="#009af9" fill-rule="evenodd" fill-opacity="1" stroke="#000000" stroke-opacity="1" stroke-width="4.55111"/>
<path clip-path="url(#clip040)" d="M2221.35 1347.7 Q2219.54 1352.33 2217.83 1353.75 Q2216.12 1355.16 2213.25 1355.16 L2209.84 1355.16 L2209.84 1351.59 L2212.34 1351.59 Q2214.1 1351.59 2215.07 1350.76 Q2216.05 1349.93 2217.23 1346.82 L2217.99 1344.88 L2207.5 1319.37 L2212.02 1319.37 L2220.12 1339.65 L2228.22 1319.37 L2232.74 1319.37 L2221.35 1347.7 Z" fill="#000000" fill-rule="nonzero" fill-opacity="1" /><path clip-path="url(#clip040)" d="M2240.03 1341.36 L2247.67 1341.36 L2247.67 1315 L2239.36 1316.66 L2239.36 1312.4 L2247.62 1310.74 L2252.3 1310.74 L2252.3 1341.36 L2259.94 1341.36 L2259.94 1345.3 L2240.03 1345.3 L2240.03 1341.36 Z" fill="#000000" fill-rule="nonzero" fill-opacity="1" /></svg>
