<?xml version="1.0" encoding="utf-8"?>
<svg xmlns="http://www.w3.org/2000/svg" xmlns:xlink="http://www.w3.org/1999/xlink" width="600" height="400" viewBox="0 0 2400 1600">
<defs>
  <clipPath id="clip690">
    <rect x="0" y="0" width="2400" height="1600"/>
  </clipPath>
</defs>
<path clip-path="url(#clip690)" d="M0 1600 L2400 1600 L2400 0 L0 0  Z" fill="#ffffff" fill-rule="evenodd" fill-opacity="1"/>
<defs>
  <clipPath id="clip691">
    <rect x="480" y="0" width="1681" height="1600"/>
  </clipPath>
</defs>
<path clip-path="url(#clip690)" d="M309.866 1423.18 L2352.76 1423.18 L2352.76 123.472 L309.866 123.472  Z" fill="#ffffff" fill-rule="evenodd" fill-opacity="1"/>
<defs>
  <clipPath id="clip692">
    <rect x="309" y="123" width="2044" height="1301"/>
  </clipPath>
</defs>
<polyline clip-path="url(#clip692)" style="stroke:#000000; stroke-linecap:round; stroke-linejoin:round; stroke-width:2; stroke-opacity:0.1; fill:none" points="348.519,1423.18 348.519,123.472 "/>
<polyline clip-path="url(#clip692)" style="stroke:#000000; stroke-linecap:round; stroke-linejoin:round; stroke-width:2; stroke-opacity:0.1; fill:none" points="962.764,1423.18 962.764,123.472 "/>
<polyline clip-path="url(#clip692)" style="stroke:#000000; stroke-linecap:round; stroke-linejoin:round; stroke-width:2; stroke-opacity:0.1; fill:none" points="1577.01,1423.18 1577.01,123.472 "/>
<polyline clip-path="url(#clip692)" style="stroke:#000000; stroke-linecap:round; stroke-linejoin:round; stroke-width:2; stroke-opacity:0.1; fill:none" points="2191.25,1423.18 2191.25,123.472 "/>
<polyline clip-path="url(#clip692)" style="stroke:#000000; stroke-linecap:round; stroke-linejoin:round; stroke-width:2; stroke-opacity:0.1; fill:none" points="309.866,1423.18 2352.76,1423.18 "/>
<polyline clip-path="url(#clip692)" style="stroke:#000000; stroke-linecap:round; stroke-linejoin:round; stroke-width:2; stroke-opacity:0.1; fill:none" points="309.866,1100.29 2352.76,1100.29 "/>
<polyline clip-path="url(#clip692)" style="stroke:#000000; stroke-linecap:round; stroke-linejoin:round; stroke-width:2; stroke-opacity:0.1; fill:none" points="309.866,777.397 2352.76,777.397 "/>
<polyline clip-path="url(#clip692)" style="stroke:#000000; stroke-linecap:round; stroke-linejoin:round; stroke-width:2; stroke-opacity:0.1; fill:none" points="309.866,454.506 2352.76,454.506 "/>
<polyline clip-path="url(#clip692)" style="stroke:#000000; stroke-linecap:round; stroke-linejoin:round; stroke-width:2; stroke-opacity:0.1; fill:none" points="309.866,131.615 2352.76,131.615 "/>
<polyline clip-path="url(#clip690)" style="stroke:#000000; stroke-linecap:round; stroke-linejoin:round; stroke-width:4; stroke-opacity:1; fill:none" points="309.866,1423.18 2352.76,1423.18 "/>
<polyline clip-path="url(#clip690)" style="stroke:#000000; stroke-linecap:round; stroke-linejoin:round; stroke-width:4; stroke-opacity:1; fill:none" points="348.519,1423.18 348.519,1404.28 "/>
<polyline clip-path="url(#clip690)" style="stroke:#000000; stroke-linecap:round; stroke-linejoin:round; stroke-width:4; stroke-opacity:1; fill:none" points="962.764,1423.18 962.764,1404.28 "/>
<polyline clip-path="url(#clip690)" style="stroke:#000000; stroke-linecap:round; stroke-linejoin:round; stroke-width:4; stroke-opacity:1; fill:none" points="1577.01,1423.18 1577.01,1404.28 "/>
<polyline clip-path="url(#clip690)" style="stroke:#000000; stroke-linecap:round; stroke-linejoin:round; stroke-width:4; stroke-opacity:1; fill:none" points="2191.25,1423.18 2191.25,1404.28 "/>
<path clip-path="url(#clip690)" d="M348.519 1454.1 Q344.908 1454.1 343.079 1457.66 Q341.274 1461.2 341.274 1468.33 Q341.274 1475.44 343.079 1479.01 Q344.908 1482.55 348.519 1482.55 Q352.153 1482.55 353.959 1479.01 Q355.787 1475.44 355.787 1468.33 Q355.787 1461.2 353.959 1457.66 Q352.153 1454.1 348.519 1454.1 M348.519 1450.39 Q354.329 1450.39 357.385 1455 Q360.463 1459.58 360.463 1468.33 Q360.463 1477.06 357.385 1481.67 Q354.329 1486.25 348.519 1486.25 Q342.709 1486.25 339.63 1481.67 Q336.575 1477.06 336.575 1468.33 Q336.575 1459.58 339.63 1455 Q342.709 1450.39 348.519 1450.39 Z" fill="#000000" fill-rule="nonzero" fill-opacity="1" /><path clip-path="url(#clip690)" d="M953.042 1451.02 L971.398 1451.02 L971.398 1454.96 L957.324 1454.96 L957.324 1463.43 Q958.343 1463.08 959.361 1462.92 Q960.38 1462.73 961.398 1462.73 Q967.185 1462.73 970.565 1465.9 Q973.944 1469.08 973.944 1474.49 Q973.944 1480.07 970.472 1483.17 Q967 1486.25 960.681 1486.25 Q958.505 1486.25 956.236 1485.88 Q953.991 1485.51 951.583 1484.77 L951.583 1480.07 Q953.667 1481.2 955.889 1481.76 Q958.111 1482.32 960.588 1482.32 Q964.593 1482.32 966.931 1480.21 Q969.268 1478.1 969.268 1474.49 Q969.268 1470.88 966.931 1468.77 Q964.593 1466.67 960.588 1466.67 Q958.713 1466.67 956.838 1467.08 Q954.986 1467.5 953.042 1468.38 L953.042 1451.02 Z" fill="#000000" fill-rule="nonzero" fill-opacity="1" /><path clip-path="url(#clip690)" d="M1551.7 1481.64 L1559.34 1481.64 L1559.34 1455.28 L1551.03 1456.95 L1551.03 1452.69 L1559.29 1451.02 L1563.96 1451.02 L1563.96 1481.64 L1571.6 1481.64 L1571.6 1485.58 L1551.7 1485.58 L1551.7 1481.64 Z" fill="#000000" fill-rule="nonzero" fill-opacity="1" /><path clip-path="url(#clip690)" d="M1591.05 1454.1 Q1587.44 1454.1 1585.61 1457.66 Q1583.8 1461.2 1583.8 1468.33 Q1583.8 1475.44 1585.61 1479.01 Q1587.44 1482.55 1591.05 1482.55 Q1594.68 1482.55 1596.49 1479.01 Q1598.32 1475.44 1598.32 1468.33 Q1598.32 1461.2 1596.49 1457.66 Q1594.68 1454.1 1591.05 1454.1 M1591.05 1450.39 Q1596.86 1450.39 1599.91 1455 Q1602.99 1459.58 1602.99 1468.33 Q1602.99 1477.06 1599.91 1481.67 Q1596.86 1486.25 1591.05 1486.25 Q1585.24 1486.25 1582.16 1481.67 Q1579.1 1477.06 1579.1 1468.33 Q1579.1 1459.58 1582.16 1455 Q1585.24 1450.39 1591.05 1450.39 Z" fill="#000000" fill-rule="nonzero" fill-opacity="1" /><path clip-path="url(#clip690)" d="M2166.44 1481.64 L2174.08 1481.64 L2174.08 1455.28 L2165.77 1456.95 L2165.77 1452.69 L2174.03 1451.02 L2178.71 1451.02 L2178.71 1481.64 L2186.35 1481.64 L2186.35 1485.58 L2166.44 1485.58 L2166.44 1481.64 Z" fill="#000000" fill-rule="nonzero" fill-opacity="1" /><path clip-path="url(#clip690)" d="M2195.84 1451.02 L2214.19 1451.02 L2214.19 1454.96 L2200.12 1454.96 L2200.12 1463.43 Q2201.14 1463.08 2202.16 1462.92 Q2203.17 1462.73 2204.19 1462.73 Q2209.98 1462.73 2213.36 1465.9 Q2216.74 1469.08 2216.74 1474.49 Q2216.74 1480.07 2213.27 1483.17 Q2209.8 1486.25 2203.48 1486.25 Q2201.3 1486.25 2199.03 1485.88 Q2196.79 1485.51 2194.38 1484.77 L2194.38 1480.07 Q2196.46 1481.2 2198.68 1481.76 Q2200.91 1482.32 2203.38 1482.32 Q2207.39 1482.32 2209.73 1480.21 Q2212.06 1478.1 2212.06 1474.49 Q2212.06 1470.88 2209.73 1468.77 Q2207.39 1466.67 2203.38 1466.67 Q2201.51 1466.67 2199.63 1467.08 Q2197.78 1467.5 2195.84 1468.38 L2195.84 1451.02 Z" fill="#000000" fill-rule="nonzero" fill-opacity="1" /><path clip-path="url(#clip690)" d="M1213.18 1520.52 L1219.61 1520.52 L1219.61 1562.63 L1242.75 1562.63 L1242.75 1568.04 L1213.18 1568.04 L1213.18 1520.52 Z" fill="#000000" fill-rule="nonzero" fill-opacity="1" /><path clip-path="url(#clip690)" d="M1261.91 1536.5 Q1257.2 1536.5 1254.46 1540.19 Q1251.72 1543.85 1251.72 1550.25 Q1251.72 1556.65 1254.43 1560.34 Q1257.17 1564 1261.91 1564 Q1266.59 1564 1269.32 1560.31 Q1272.06 1556.62 1272.06 1550.25 Q1272.06 1543.92 1269.32 1540.23 Q1266.59 1536.5 1261.91 1536.5 M1261.91 1531.54 Q1269.55 1531.54 1273.91 1536.5 Q1278.27 1541.47 1278.27 1550.25 Q1278.27 1559 1273.91 1564 Q1269.55 1568.97 1261.91 1568.97 Q1254.24 1568.97 1249.88 1564 Q1245.55 1559 1245.55 1550.25 Q1245.55 1541.47 1249.88 1536.5 Q1254.24 1531.54 1261.91 1531.54 Z" fill="#000000" fill-rule="nonzero" fill-opacity="1" /><path clip-path="url(#clip690)" d="M1304.18 1550.12 Q1297.08 1550.12 1294.34 1551.75 Q1291.6 1553.37 1291.6 1557.29 Q1291.6 1560.4 1293.64 1562.25 Q1295.71 1564.07 1299.24 1564.07 Q1304.11 1564.07 1307.04 1560.63 Q1310 1557.16 1310 1551.43 L1310 1550.12 L1304.18 1550.12 M1315.86 1547.71 L1315.86 1568.04 L1310 1568.04 L1310 1562.63 Q1308 1565.88 1305 1567.44 Q1302.01 1568.97 1297.68 1568.97 Q1292.21 1568.97 1288.96 1565.91 Q1285.75 1562.82 1285.75 1557.67 Q1285.75 1551.65 1289.76 1548.6 Q1293.8 1545.54 1301.79 1545.54 L1310 1545.54 L1310 1544.97 Q1310 1540.93 1307.33 1538.73 Q1304.69 1536.5 1299.88 1536.5 Q1296.82 1536.5 1293.93 1537.23 Q1291.03 1537.97 1288.36 1539.43 L1288.36 1534.02 Q1291.57 1532.78 1294.6 1532.17 Q1297.62 1531.54 1300.48 1531.54 Q1308.22 1531.54 1312.04 1535.55 Q1315.86 1539.56 1315.86 1547.71 Z" fill="#000000" fill-rule="nonzero" fill-opacity="1" /><path clip-path="url(#clip690)" d="M1351.38 1537.81 L1351.38 1518.52 L1357.24 1518.52 L1357.24 1568.04 L1351.38 1568.04 L1351.38 1562.7 Q1349.53 1565.88 1346.7 1567.44 Q1343.9 1568.97 1339.95 1568.97 Q1333.49 1568.97 1329.42 1563.81 Q1325.37 1558.65 1325.37 1550.25 Q1325.37 1541.85 1329.42 1536.69 Q1333.49 1531.54 1339.95 1531.54 Q1343.9 1531.54 1346.7 1533.1 Q1349.53 1534.62 1351.38 1537.81 M1331.42 1550.25 Q1331.42 1556.71 1334.06 1560.4 Q1336.74 1564.07 1341.38 1564.07 Q1346.03 1564.07 1348.71 1560.4 Q1351.38 1556.71 1351.38 1550.25 Q1351.38 1543.79 1348.71 1540.13 Q1346.03 1536.44 1341.38 1536.44 Q1336.74 1536.44 1334.06 1540.13 Q1331.42 1543.79 1331.42 1550.25 Z" fill="#000000" fill-rule="nonzero" fill-opacity="1" /><path clip-path="url(#clip690)" d="M1390.27 1520.52 L1396.7 1520.52 L1396.7 1568.04 L1390.27 1568.04 L1390.27 1520.52 Z" fill="#000000" fill-rule="nonzero" fill-opacity="1" /><path clip-path="url(#clip690)" d="M1415.93 1525.81 L1415.93 1562.76 L1423.69 1562.76 Q1433.53 1562.76 1438.08 1558.3 Q1442.66 1553.85 1442.66 1544.24 Q1442.66 1534.69 1438.08 1530.26 Q1433.53 1525.81 1423.69 1525.81 L1415.93 1525.81 M1409.5 1520.52 L1422.71 1520.52 Q1436.52 1520.52 1442.98 1526.28 Q1449.44 1532.01 1449.44 1544.24 Q1449.44 1556.52 1442.95 1562.28 Q1436.46 1568.04 1422.71 1568.04 L1409.5 1568.04 L1409.5 1520.52 Z" fill="#000000" fill-rule="nonzero" fill-opacity="1" /><polyline clip-path="url(#clip690)" style="stroke:#000000; stroke-linecap:round; stroke-linejoin:round; stroke-width:4; stroke-opacity:1; fill:none" points="309.866,1423.18 309.866,123.472 "/>
<polyline clip-path="url(#clip690)" style="stroke:#000000; stroke-linecap:round; stroke-linejoin:round; stroke-width:4; stroke-opacity:1; fill:none" points="309.866,1423.18 328.763,1423.18 "/>
<polyline clip-path="url(#clip690)" style="stroke:#000000; stroke-linecap:round; stroke-linejoin:round; stroke-width:4; stroke-opacity:1; fill:none" points="309.866,1100.29 328.763,1100.29 "/>
<polyline clip-path="url(#clip690)" style="stroke:#000000; stroke-linecap:round; stroke-linejoin:round; stroke-width:4; stroke-opacity:1; fill:none" points="309.866,777.397 328.763,777.397 "/>
<polyline clip-path="url(#clip690)" style="stroke:#000000; stroke-linecap:round; stroke-linejoin:round; stroke-width:4; stroke-opacity:1; fill:none" points="309.866,454.506 328.763,454.506 "/>
<polyline clip-path="url(#clip690)" style="stroke:#000000; stroke-linecap:round; stroke-linejoin:round; stroke-width:4; stroke-opacity:1; fill:none" points="309.866,131.615 328.763,131.615 "/>
<path clip-path="url(#clip690)" d="M126.205 1408.98 Q122.593 1408.98 120.765 1412.54 Q118.959 1416.08 118.959 1423.21 Q118.959 1430.32 120.765 1433.89 Q122.593 1437.43 126.205 1437.43 Q129.839 1437.43 131.644 1433.89 Q133.473 1430.32 133.473 1423.21 Q133.473 1416.08 131.644 1412.54 Q129.839 1408.98 126.205 1408.98 M126.205 1405.27 Q132.015 1405.27 135.07 1409.88 Q138.149 1414.46 138.149 1423.21 Q138.149 1431.94 135.07 1436.55 Q132.015 1441.13 126.205 1441.13 Q120.394 1441.13 117.316 1436.55 Q114.26 1431.94 114.26 1423.21 Q114.26 1414.46 117.316 1409.88 Q120.394 1405.27 126.205 1405.27 Z" fill="#000000" fill-rule="nonzero" fill-opacity="1" /><path clip-path="url(#clip690)" d="M146.366 1434.58 L151.251 1434.58 L151.251 1440.46 L146.366 1440.46 L146.366 1434.58 Z" fill="#000000" fill-rule="nonzero" fill-opacity="1" /><path clip-path="url(#clip690)" d="M171.436 1408.98 Q167.825 1408.98 165.996 1412.54 Q164.19 1416.08 164.19 1423.21 Q164.19 1430.32 165.996 1433.89 Q167.825 1437.43 171.436 1437.43 Q175.07 1437.43 176.876 1433.89 Q178.704 1430.32 178.704 1423.21 Q178.704 1416.08 176.876 1412.54 Q175.07 1408.98 171.436 1408.98 M171.436 1405.27 Q177.246 1405.27 180.301 1409.88 Q183.38 1414.46 183.38 1423.21 Q183.38 1431.94 180.301 1436.55 Q177.246 1441.13 171.436 1441.13 Q165.626 1441.13 162.547 1436.55 Q159.491 1431.94 159.491 1423.21 Q159.491 1414.46 162.547 1409.88 Q165.626 1405.27 171.436 1405.27 Z" fill="#000000" fill-rule="nonzero" fill-opacity="1" /><path clip-path="url(#clip690)" d="M201.598 1408.98 Q197.987 1408.98 196.158 1412.54 Q194.352 1416.08 194.352 1423.21 Q194.352 1430.32 196.158 1433.89 Q197.987 1437.43 201.598 1437.43 Q205.232 1437.43 207.037 1433.89 Q208.866 1430.32 208.866 1423.21 Q208.866 1416.08 207.037 1412.54 Q205.232 1408.98 201.598 1408.98 M201.598 1405.27 Q207.408 1405.27 210.463 1409.88 Q213.542 1414.46 213.542 1423.21 Q213.542 1431.94 210.463 1436.55 Q207.408 1441.13 201.598 1441.13 Q195.787 1441.13 192.709 1436.55 Q189.653 1431.94 189.653 1423.21 Q189.653 1414.46 192.709 1409.88 Q195.787 1405.27 201.598 1405.27 Z" fill="#000000" fill-rule="nonzero" fill-opacity="1" /><path clip-path="url(#clip690)" d="M231.76 1408.98 Q228.148 1408.98 226.32 1412.54 Q224.514 1416.08 224.514 1423.21 Q224.514 1430.32 226.32 1433.89 Q228.148 1437.43 231.76 1437.43 Q235.394 1437.43 237.199 1433.89 Q239.028 1430.32 239.028 1423.21 Q239.028 1416.08 237.199 1412.54 Q235.394 1408.98 231.76 1408.98 M231.76 1405.27 Q237.57 1405.27 240.625 1409.88 Q243.704 1414.46 243.704 1423.21 Q243.704 1431.94 240.625 1436.55 Q237.57 1441.13 231.76 1441.13 Q225.949 1441.13 222.871 1436.55 Q219.815 1431.94 219.815 1423.21 Q219.815 1414.46 222.871 1409.88 Q225.949 1405.27 231.76 1405.27 Z" fill="#000000" fill-rule="nonzero" fill-opacity="1" /><path clip-path="url(#clip690)" d="M261.921 1408.98 Q258.31 1408.98 256.482 1412.54 Q254.676 1416.08 254.676 1423.21 Q254.676 1430.32 256.482 1433.89 Q258.31 1437.43 261.921 1437.43 Q265.556 1437.43 267.361 1433.89 Q269.19 1430.32 269.19 1423.21 Q269.19 1416.08 267.361 1412.54 Q265.556 1408.98 261.921 1408.98 M261.921 1405.27 Q267.732 1405.27 270.787 1409.88 Q273.866 1414.46 273.866 1423.21 Q273.866 1431.94 270.787 1436.55 Q267.732 1441.13 261.921 1441.13 Q256.111 1441.13 253.033 1436.55 Q249.977 1431.94 249.977 1423.21 Q249.977 1414.46 253.033 1409.88 Q256.111 1405.27 261.921 1405.27 Z" fill="#000000" fill-rule="nonzero" fill-opacity="1" /><path clip-path="url(#clip690)" d="M127.2 1086.09 Q123.589 1086.09 121.76 1089.65 Q119.955 1093.19 119.955 1100.32 Q119.955 1107.43 121.76 1110.99 Q123.589 1114.54 127.2 1114.54 Q130.834 1114.54 132.64 1110.99 Q134.468 1107.43 134.468 1100.32 Q134.468 1093.19 132.64 1089.65 Q130.834 1086.09 127.2 1086.09 M127.2 1082.38 Q133.01 1082.38 136.066 1086.99 Q139.144 1091.57 139.144 1100.32 Q139.144 1109.05 136.066 1113.66 Q133.01 1118.24 127.2 1118.24 Q121.39 1118.24 118.311 1113.66 Q115.256 1109.05 115.256 1100.32 Q115.256 1091.57 118.311 1086.99 Q121.39 1082.38 127.2 1082.38 Z" fill="#000000" fill-rule="nonzero" fill-opacity="1" /><path clip-path="url(#clip690)" d="M147.362 1111.69 L152.246 1111.69 L152.246 1117.57 L147.362 1117.57 L147.362 1111.69 Z" fill="#000000" fill-rule="nonzero" fill-opacity="1" /><path clip-path="url(#clip690)" d="M172.431 1086.09 Q168.82 1086.09 166.991 1089.65 Q165.186 1093.19 165.186 1100.32 Q165.186 1107.43 166.991 1110.99 Q168.82 1114.54 172.431 1114.54 Q176.065 1114.54 177.871 1110.99 Q179.7 1107.43 179.7 1100.32 Q179.7 1093.19 177.871 1089.65 Q176.065 1086.09 172.431 1086.09 M172.431 1082.38 Q178.241 1082.38 181.297 1086.99 Q184.376 1091.57 184.376 1100.32 Q184.376 1109.05 181.297 1113.66 Q178.241 1118.24 172.431 1118.24 Q166.621 1118.24 163.542 1113.66 Q160.487 1109.05 160.487 1100.32 Q160.487 1091.57 163.542 1086.99 Q166.621 1082.38 172.431 1082.38 Z" fill="#000000" fill-rule="nonzero" fill-opacity="1" /><path clip-path="url(#clip690)" d="M202.593 1086.09 Q198.982 1086.09 197.153 1089.65 Q195.348 1093.19 195.348 1100.32 Q195.348 1107.43 197.153 1110.99 Q198.982 1114.54 202.593 1114.54 Q206.227 1114.54 208.033 1110.99 Q209.861 1107.43 209.861 1100.32 Q209.861 1093.19 208.033 1089.65 Q206.227 1086.09 202.593 1086.09 M202.593 1082.38 Q208.403 1082.38 211.459 1086.99 Q214.537 1091.57 214.537 1100.32 Q214.537 1109.05 211.459 1113.66 Q208.403 1118.24 202.593 1118.24 Q196.783 1118.24 193.704 1113.66 Q190.649 1109.05 190.649 1100.32 Q190.649 1091.57 193.704 1086.99 Q196.783 1082.38 202.593 1082.38 Z" fill="#000000" fill-rule="nonzero" fill-opacity="1" /><path clip-path="url(#clip690)" d="M226.783 1113.63 L243.102 1113.63 L243.102 1117.57 L221.158 1117.57 L221.158 1113.63 Q223.82 1110.88 228.403 1106.25 Q233.01 1101.6 234.19 1100.25 Q236.435 1097.73 237.315 1095.99 Q238.218 1094.24 238.218 1092.55 Q238.218 1089.79 236.273 1088.05 Q234.352 1086.32 231.25 1086.32 Q229.051 1086.32 226.598 1087.08 Q224.167 1087.85 221.389 1089.4 L221.389 1084.68 Q224.213 1083.54 226.667 1082.96 Q229.121 1082.38 231.158 1082.38 Q236.528 1082.38 239.722 1085.07 Q242.917 1087.75 242.917 1092.24 Q242.917 1094.37 242.107 1096.3 Q241.32 1098.19 239.213 1100.79 Q238.634 1101.46 235.533 1104.68 Q232.431 1107.87 226.783 1113.63 Z" fill="#000000" fill-rule="nonzero" fill-opacity="1" /><path clip-path="url(#clip690)" d="M252.963 1083.01 L271.32 1083.01 L271.32 1086.94 L257.246 1086.94 L257.246 1095.42 Q258.264 1095.07 259.283 1094.91 Q260.301 1094.72 261.32 1094.72 Q267.107 1094.72 270.486 1097.89 Q273.866 1101.06 273.866 1106.48 Q273.866 1112.06 270.394 1115.16 Q266.921 1118.24 260.602 1118.24 Q258.426 1118.24 256.158 1117.87 Q253.912 1117.5 251.505 1116.76 L251.505 1112.06 Q253.588 1113.19 255.81 1113.75 Q258.033 1114.3 260.509 1114.3 Q264.514 1114.3 266.852 1112.2 Q269.19 1110.09 269.19 1106.48 Q269.19 1102.87 266.852 1100.76 Q264.514 1098.66 260.509 1098.66 Q258.634 1098.66 256.759 1099.07 Q254.908 1099.49 252.963 1100.37 L252.963 1083.01 Z" fill="#000000" fill-rule="nonzero" fill-opacity="1" /><path clip-path="url(#clip690)" d="M126.205 763.196 Q122.593 763.196 120.765 766.761 Q118.959 770.303 118.959 777.432 Q118.959 784.539 120.765 788.103 Q122.593 791.645 126.205 791.645 Q129.839 791.645 131.644 788.103 Q133.473 784.539 133.473 777.432 Q133.473 770.303 131.644 766.761 Q129.839 763.196 126.205 763.196 M126.205 759.492 Q132.015 759.492 135.07 764.099 Q138.149 768.682 138.149 777.432 Q138.149 786.159 135.07 790.765 Q132.015 795.349 126.205 795.349 Q120.394 795.349 117.316 790.765 Q114.26 786.159 114.26 777.432 Q114.26 768.682 117.316 764.099 Q120.394 759.492 126.205 759.492 Z" fill="#000000" fill-rule="nonzero" fill-opacity="1" /><path clip-path="url(#clip690)" d="M146.366 788.798 L151.251 788.798 L151.251 794.677 L146.366 794.677 L146.366 788.798 Z" fill="#000000" fill-rule="nonzero" fill-opacity="1" /><path clip-path="url(#clip690)" d="M171.436 763.196 Q167.825 763.196 165.996 766.761 Q164.19 770.303 164.19 777.432 Q164.19 784.539 165.996 788.103 Q167.825 791.645 171.436 791.645 Q175.07 791.645 176.876 788.103 Q178.704 784.539 178.704 777.432 Q178.704 770.303 176.876 766.761 Q175.07 763.196 171.436 763.196 M171.436 759.492 Q177.246 759.492 180.301 764.099 Q183.38 768.682 183.38 777.432 Q183.38 786.159 180.301 790.765 Q177.246 795.349 171.436 795.349 Q165.626 795.349 162.547 790.765 Q159.491 786.159 159.491 777.432 Q159.491 768.682 162.547 764.099 Q165.626 759.492 171.436 759.492 Z" fill="#000000" fill-rule="nonzero" fill-opacity="1" /><path clip-path="url(#clip690)" d="M201.598 763.196 Q197.987 763.196 196.158 766.761 Q194.352 770.303 194.352 777.432 Q194.352 784.539 196.158 788.103 Q197.987 791.645 201.598 791.645 Q205.232 791.645 207.037 788.103 Q208.866 784.539 208.866 777.432 Q208.866 770.303 207.037 766.761 Q205.232 763.196 201.598 763.196 M201.598 759.492 Q207.408 759.492 210.463 764.099 Q213.542 768.682 213.542 777.432 Q213.542 786.159 210.463 790.765 Q207.408 795.349 201.598 795.349 Q195.787 795.349 192.709 790.765 Q189.653 786.159 189.653 777.432 Q189.653 768.682 192.709 764.099 Q195.787 759.492 201.598 759.492 Z" fill="#000000" fill-rule="nonzero" fill-opacity="1" /><path clip-path="url(#clip690)" d="M221.806 760.117 L240.162 760.117 L240.162 764.053 L226.088 764.053 L226.088 772.525 Q227.107 772.178 228.125 772.016 Q229.144 771.83 230.162 771.83 Q235.949 771.83 239.329 775.002 Q242.709 778.173 242.709 783.59 Q242.709 789.168 239.236 792.27 Q235.764 795.349 229.445 795.349 Q227.269 795.349 225 794.978 Q222.755 794.608 220.348 793.867 L220.348 789.168 Q222.431 790.303 224.653 790.858 Q226.875 791.414 229.352 791.414 Q233.357 791.414 235.695 789.307 Q238.033 787.201 238.033 783.59 Q238.033 779.978 235.695 777.872 Q233.357 775.766 229.352 775.766 Q227.477 775.766 225.602 776.182 Q223.75 776.599 221.806 777.479 L221.806 760.117 Z" fill="#000000" fill-rule="nonzero" fill-opacity="1" /><path clip-path="url(#clip690)" d="M261.921 763.196 Q258.31 763.196 256.482 766.761 Q254.676 770.303 254.676 777.432 Q254.676 784.539 256.482 788.103 Q258.31 791.645 261.921 791.645 Q265.556 791.645 267.361 788.103 Q269.19 784.539 269.19 777.432 Q269.19 770.303 267.361 766.761 Q265.556 763.196 261.921 763.196 M261.921 759.492 Q267.732 759.492 270.787 764.099 Q273.866 768.682 273.866 777.432 Q273.866 786.159 270.787 790.765 Q267.732 795.349 261.921 795.349 Q256.111 795.349 253.033 790.765 Q249.977 786.159 249.977 777.432 Q249.977 768.682 253.033 764.099 Q256.111 759.492 261.921 759.492 Z" fill="#000000" fill-rule="nonzero" fill-opacity="1" /><path clip-path="url(#clip690)" d="M127.2 440.305 Q123.589 440.305 121.76 443.87 Q119.955 447.411 119.955 454.541 Q119.955 461.647 121.76 465.212 Q123.589 468.754 127.2 468.754 Q130.834 468.754 132.64 465.212 Q134.468 461.647 134.468 454.541 Q134.468 447.411 132.64 443.87 Q130.834 440.305 127.2 440.305 M127.2 436.601 Q133.01 436.601 136.066 441.208 Q139.144 445.791 139.144 454.541 Q139.144 463.268 136.066 467.874 Q133.01 472.458 127.2 472.458 Q121.39 472.458 118.311 467.874 Q115.256 463.268 115.256 454.541 Q115.256 445.791 118.311 441.208 Q121.39 436.601 127.2 436.601 Z" fill="#000000" fill-rule="nonzero" fill-opacity="1" /><path clip-path="url(#clip690)" d="M147.362 465.907 L152.246 465.907 L152.246 471.786 L147.362 471.786 L147.362 465.907 Z" fill="#000000" fill-rule="nonzero" fill-opacity="1" /><path clip-path="url(#clip690)" d="M172.431 440.305 Q168.82 440.305 166.991 443.87 Q165.186 447.411 165.186 454.541 Q165.186 461.647 166.991 465.212 Q168.82 468.754 172.431 468.754 Q176.065 468.754 177.871 465.212 Q179.7 461.647 179.7 454.541 Q179.7 447.411 177.871 443.87 Q176.065 440.305 172.431 440.305 M172.431 436.601 Q178.241 436.601 181.297 441.208 Q184.376 445.791 184.376 454.541 Q184.376 463.268 181.297 467.874 Q178.241 472.458 172.431 472.458 Q166.621 472.458 163.542 467.874 Q160.487 463.268 160.487 454.541 Q160.487 445.791 163.542 441.208 Q166.621 436.601 172.431 436.601 Z" fill="#000000" fill-rule="nonzero" fill-opacity="1" /><path clip-path="url(#clip690)" d="M202.593 440.305 Q198.982 440.305 197.153 443.87 Q195.348 447.411 195.348 454.541 Q195.348 461.647 197.153 465.212 Q198.982 468.754 202.593 468.754 Q206.227 468.754 208.033 465.212 Q209.861 461.647 209.861 454.541 Q209.861 447.411 208.033 443.87 Q206.227 440.305 202.593 440.305 M202.593 436.601 Q208.403 436.601 211.459 441.208 Q214.537 445.791 214.537 454.541 Q214.537 463.268 211.459 467.874 Q208.403 472.458 202.593 472.458 Q196.783 472.458 193.704 467.874 Q190.649 463.268 190.649 454.541 Q190.649 445.791 193.704 441.208 Q196.783 436.601 202.593 436.601 Z" fill="#000000" fill-rule="nonzero" fill-opacity="1" /><path clip-path="url(#clip690)" d="M221.574 437.226 L243.797 437.226 L243.797 439.217 L231.25 471.786 L226.366 471.786 L238.172 441.161 L221.574 441.161 L221.574 437.226 Z" fill="#000000" fill-rule="nonzero" fill-opacity="1" /><path clip-path="url(#clip690)" d="M252.963 437.226 L271.32 437.226 L271.32 441.161 L257.246 441.161 L257.246 449.634 Q258.264 449.286 259.283 449.124 Q260.301 448.939 261.32 448.939 Q267.107 448.939 270.486 452.11 Q273.866 455.282 273.866 460.698 Q273.866 466.277 270.394 469.379 Q266.921 472.458 260.602 472.458 Q258.426 472.458 256.158 472.087 Q253.912 471.717 251.505 470.976 L251.505 466.277 Q253.588 467.411 255.81 467.967 Q258.033 468.522 260.509 468.522 Q264.514 468.522 266.852 466.416 Q269.19 464.309 269.19 460.698 Q269.19 457.087 266.852 454.981 Q264.514 452.874 260.509 452.874 Q258.634 452.874 256.759 453.291 Q254.908 453.708 252.963 454.587 L252.963 437.226 Z" fill="#000000" fill-rule="nonzero" fill-opacity="1" /><path clip-path="url(#clip690)" d="M126.205 117.414 Q122.593 117.414 120.765 120.979 Q118.959 124.52 118.959 131.65 Q118.959 138.756 120.765 142.321 Q122.593 145.863 126.205 145.863 Q129.839 145.863 131.644 142.321 Q133.473 138.756 133.473 131.65 Q133.473 124.52 131.644 120.979 Q129.839 117.414 126.205 117.414 M126.205 113.71 Q132.015 113.71 135.07 118.317 Q138.149 122.9 138.149 131.65 Q138.149 140.377 135.07 144.983 Q132.015 149.566 126.205 149.566 Q120.394 149.566 117.316 144.983 Q114.26 140.377 114.26 131.65 Q114.26 122.9 117.316 118.317 Q120.394 113.71 126.205 113.71 Z" fill="#000000" fill-rule="nonzero" fill-opacity="1" /><path clip-path="url(#clip690)" d="M146.366 143.016 L151.251 143.016 L151.251 148.895 L146.366 148.895 L146.366 143.016 Z" fill="#000000" fill-rule="nonzero" fill-opacity="1" /><path clip-path="url(#clip690)" d="M171.436 117.414 Q167.825 117.414 165.996 120.979 Q164.19 124.52 164.19 131.65 Q164.19 138.756 165.996 142.321 Q167.825 145.863 171.436 145.863 Q175.07 145.863 176.876 142.321 Q178.704 138.756 178.704 131.65 Q178.704 124.52 176.876 120.979 Q175.07 117.414 171.436 117.414 M171.436 113.71 Q177.246 113.71 180.301 118.317 Q183.38 122.9 183.38 131.65 Q183.38 140.377 180.301 144.983 Q177.246 149.566 171.436 149.566 Q165.626 149.566 162.547 144.983 Q159.491 140.377 159.491 131.65 Q159.491 122.9 162.547 118.317 Q165.626 113.71 171.436 113.71 Z" fill="#000000" fill-rule="nonzero" fill-opacity="1" /><path clip-path="url(#clip690)" d="M192.408 144.96 L200.047 144.96 L200.047 118.594 L191.737 120.261 L191.737 116.002 L200 114.335 L204.676 114.335 L204.676 144.96 L212.315 144.96 L212.315 148.895 L192.408 148.895 L192.408 144.96 Z" fill="#000000" fill-rule="nonzero" fill-opacity="1" /><path clip-path="url(#clip690)" d="M231.76 117.414 Q228.148 117.414 226.32 120.979 Q224.514 124.52 224.514 131.65 Q224.514 138.756 226.32 142.321 Q228.148 145.863 231.76 145.863 Q235.394 145.863 237.199 142.321 Q239.028 138.756 239.028 131.65 Q239.028 124.52 237.199 120.979 Q235.394 117.414 231.76 117.414 M231.76 113.71 Q237.57 113.71 240.625 118.317 Q243.704 122.9 243.704 131.65 Q243.704 140.377 240.625 144.983 Q237.57 149.566 231.76 149.566 Q225.949 149.566 222.871 144.983 Q219.815 140.377 219.815 131.65 Q219.815 122.9 222.871 118.317 Q225.949 113.71 231.76 113.71 Z" fill="#000000" fill-rule="nonzero" fill-opacity="1" /><path clip-path="url(#clip690)" d="M261.921 117.414 Q258.31 117.414 256.482 120.979 Q254.676 124.52 254.676 131.65 Q254.676 138.756 256.482 142.321 Q258.31 145.863 261.921 145.863 Q265.556 145.863 267.361 142.321 Q269.19 138.756 269.19 131.65 Q269.19 124.52 267.361 120.979 Q265.556 117.414 261.921 117.414 M261.921 113.71 Q267.732 113.71 270.787 118.317 Q273.866 122.9 273.866 131.65 Q273.866 140.377 270.787 144.983 Q267.732 149.566 261.921 149.566 Q256.111 149.566 253.033 144.983 Q249.977 140.377 249.977 131.65 Q249.977 122.9 253.033 118.317 Q256.111 113.71 261.921 113.71 Z" fill="#000000" fill-rule="nonzero" fill-opacity="1" /><path clip-path="url(#clip690)" d="M16.4842 1039.99 L16.4842 1012.68 L21.895 1012.68 L21.895 1033.56 L35.8996 1033.56 L35.8996 1014.71 L41.3104 1014.71 L41.3104 1033.56 L64.0042 1033.56 L64.0042 1039.99 L16.4842 1039.99 Z" fill="#000000" fill-rule="nonzero" fill-opacity="1" /><path clip-path="url(#clip690)" d="M46.0847 992.529 Q46.0847 999.627 47.7079 1002.36 Q49.3312 1005.1 53.2461 1005.1 Q56.3653 1005.1 58.2114 1003.06 Q60.0256 1001 60.0256 997.463 Q60.0256 992.593 56.5881 989.665 Q53.1188 986.704 47.3897 986.704 L46.0847 986.704 L46.0847 992.529 M43.6657 980.848 L64.0042 980.848 L64.0042 986.704 L58.5933 986.704 Q61.8398 988.71 63.3994 991.702 Q64.9272 994.693 64.9272 999.022 Q64.9272 1004.5 61.8716 1007.74 Q58.7843 1010.96 53.6281 1010.96 Q47.6125 1010.96 44.5569 1006.95 Q41.5014 1002.91 41.5014 994.916 L41.5014 986.704 L40.9285 986.704 Q36.8862 986.704 34.6901 989.378 Q32.4621 992.02 32.4621 996.826 Q32.4621 999.881 33.1941 1002.78 Q33.9262 1005.67 35.3903 1008.35 L29.9795 1008.35 Q28.7381 1005.13 28.1334 1002.11 Q27.4968 999.086 27.4968 996.221 Q27.4968 988.487 31.5072 984.667 Q35.5176 980.848 43.6657 980.848 Z" fill="#000000" fill-rule="nonzero" fill-opacity="1" /><path clip-path="url(#clip690)" d="M28.3562 968.785 L28.3562 962.929 L64.0042 962.929 L64.0042 968.785 L28.3562 968.785 M14.479 968.785 L14.479 962.929 L21.895 962.929 L21.895 968.785 L14.479 968.785 Z" fill="#000000" fill-rule="nonzero" fill-opacity="1" /><path clip-path="url(#clip690)" d="M33.8307 930.018 Q33.2578 931.005 33.0032 932.182 Q32.7167 933.328 32.7167 934.728 Q32.7167 939.694 35.9632 942.367 Q39.1779 945.009 45.2253 945.009 L64.0042 945.009 L64.0042 950.897 L28.3562 950.897 L28.3562 945.009 L33.8944 945.009 Q30.6479 943.163 29.0883 940.203 Q27.4968 937.243 27.4968 933.01 Q27.4968 932.405 27.5923 931.673 Q27.656 930.941 27.8151 930.05 L33.8307 930.018 Z" fill="#000000" fill-rule="nonzero" fill-opacity="1" /><path clip-path="url(#clip690)" d="M16.4842 902.9 L16.4842 896.471 L58.5933 896.471 L58.5933 873.331 L64.0042 873.331 L64.0042 902.9 L16.4842 902.9 Z" fill="#000000" fill-rule="nonzero" fill-opacity="1" /><path clip-path="url(#clip690)" d="M32.4621 854.17 Q32.4621 858.881 36.1542 861.618 Q39.8145 864.356 46.212 864.356 Q52.6095 864.356 56.3017 861.65 Q59.9619 858.913 59.9619 854.17 Q59.9619 849.492 56.2698 846.754 Q52.5777 844.017 46.212 844.017 Q39.8781 844.017 36.186 846.754 Q32.4621 849.492 32.4621 854.17 M27.4968 854.17 Q27.4968 846.532 32.4621 842.171 Q37.4273 837.811 46.212 837.811 Q54.9649 837.811 59.9619 842.171 Q64.9272 846.532 64.9272 854.17 Q64.9272 861.841 59.9619 866.202 Q54.9649 870.53 46.212 870.53 Q37.4273 870.53 32.4621 866.202 Q27.4968 861.841 27.4968 854.17 Z" fill="#000000" fill-rule="nonzero" fill-opacity="1" /><path clip-path="url(#clip690)" d="M46.0847 811.902 Q46.0847 819 47.7079 821.737 Q49.3312 824.474 53.2461 824.474 Q56.3653 824.474 58.2114 822.437 Q60.0256 820.369 60.0256 816.836 Q60.0256 811.966 56.5881 809.038 Q53.1188 806.078 47.3897 806.078 L46.0847 806.078 L46.0847 811.902 M43.6657 800.221 L64.0042 800.221 L64.0042 806.078 L58.5933 806.078 Q61.8398 808.083 63.3994 811.075 Q64.9272 814.067 64.9272 818.395 Q64.9272 823.87 61.8716 827.116 Q58.7843 830.331 53.6281 830.331 Q47.6125 830.331 44.5569 826.32 Q41.5014 822.278 41.5014 814.289 L41.5014 806.078 L40.9285 806.078 Q36.8862 806.078 34.6901 808.751 Q32.4621 811.393 32.4621 816.199 Q32.4621 819.255 33.1941 822.151 Q33.9262 825.047 35.3903 827.721 L29.9795 827.721 Q28.7381 824.506 28.1334 821.483 Q27.4968 818.459 27.4968 815.594 Q27.4968 807.86 31.5072 804.041 Q35.5176 800.221 43.6657 800.221 Z" fill="#000000" fill-rule="nonzero" fill-opacity="1" /><path clip-path="url(#clip690)" d="M33.7671 764.7 L14.479 764.7 L14.479 758.844 L64.0042 758.844 L64.0042 764.7 L58.657 764.7 Q61.8398 766.547 63.3994 769.379 Q64.9272 772.18 64.9272 776.127 Q64.9272 782.588 59.771 786.662 Q54.6147 790.704 46.212 790.704 Q37.8093 790.704 32.6531 786.662 Q27.4968 782.588 27.4968 776.127 Q27.4968 772.18 29.0564 769.379 Q30.5842 766.547 33.7671 764.7 M46.212 784.657 Q52.6732 784.657 56.3653 782.015 Q60.0256 779.342 60.0256 774.695 Q60.0256 770.048 56.3653 767.374 Q52.6732 764.7 46.212 764.7 Q39.7508 764.7 36.0905 767.374 Q32.3984 770.048 32.3984 774.695 Q32.3984 779.342 36.0905 782.015 Q39.7508 784.657 46.212 784.657 Z" fill="#000000" fill-rule="nonzero" fill-opacity="1" /><path clip-path="url(#clip690)" d="M16.4842 730.039 L16.4842 723.546 L56.6518 713.552 L16.4842 703.59 L16.4842 696.365 L56.6518 686.37 L16.4842 676.408 L16.4842 669.883 L64.0042 681.819 L64.0042 689.903 L22.7544 699.929 L64.0042 710.051 L64.0042 718.135 L16.4842 730.039 Z" fill="#000000" fill-rule="nonzero" fill-opacity="1" /><path clip-path="url(#clip690)" d="M44.7161 634.936 L47.5806 634.936 L47.5806 661.862 Q53.6281 661.481 56.8109 658.234 Q59.9619 654.956 59.9619 649.131 Q59.9619 645.757 59.1344 642.606 Q58.3069 639.423 56.6518 636.304 L62.1899 636.304 Q63.5267 639.455 64.227 642.765 Q64.9272 646.076 64.9272 649.481 Q64.9272 658.011 59.9619 663.008 Q54.9967 667.974 46.5303 667.974 Q37.7774 667.974 32.6531 663.263 Q27.4968 658.52 27.4968 650.5 Q27.4968 643.306 32.1438 639.137 Q36.7589 634.936 44.7161 634.936 M42.9973 640.792 Q38.1912 640.856 35.3266 643.497 Q32.4621 646.107 32.4621 650.436 Q32.4621 655.338 35.2312 658.298 Q38.0002 661.226 43.0292 661.671 L42.9973 640.792 Z" fill="#000000" fill-rule="nonzero" fill-opacity="1" /><path clip-path="url(#clip690)" d="M28.3562 625.323 L28.3562 619.467 L64.0042 619.467 L64.0042 625.323 L28.3562 625.323 M14.479 625.323 L14.479 619.467 L21.895 619.467 L21.895 625.323 L14.479 625.323 Z" fill="#000000" fill-rule="nonzero" fill-opacity="1" /><path clip-path="url(#clip690)" d="M45.7664 583.755 Q39.4007 583.755 35.8996 586.397 Q32.3984 589.007 32.3984 593.749 Q32.3984 598.46 35.8996 601.102 Q39.4007 603.712 45.7664 603.712 Q52.1003 603.712 55.6014 601.102 Q59.1026 598.46 59.1026 593.749 Q59.1026 589.007 55.6014 586.397 Q52.1003 583.755 45.7664 583.755 M59.58 577.899 Q68.683 577.899 73.1071 581.941 Q77.5631 585.983 77.5631 594.322 Q77.5631 597.41 77.0857 600.147 Q76.6401 602.884 75.6852 605.462 L69.9879 605.462 Q71.3884 602.884 72.0568 600.37 Q72.7252 597.855 72.7252 595.245 Q72.7252 589.484 69.7015 586.62 Q66.7096 583.755 60.6303 583.755 L57.7339 583.755 Q60.885 585.569 62.4446 588.402 Q64.0042 591.235 64.0042 595.182 Q64.0042 601.738 59.0071 605.749 Q54.01 609.759 45.7664 609.759 Q37.491 609.759 32.4939 605.749 Q27.4968 601.738 27.4968 595.182 Q27.4968 591.235 29.0564 588.402 Q30.616 585.569 33.7671 583.755 L28.3562 583.755 L28.3562 577.899 L59.58 577.899 Z" fill="#000000" fill-rule="nonzero" fill-opacity="1" /><path clip-path="url(#clip690)" d="M42.4881 536.203 L64.0042 536.203 L64.0042 542.06 L42.679 542.06 Q37.6183 542.06 35.1038 544.033 Q32.5894 546.007 32.5894 549.953 Q32.5894 554.696 35.6131 557.433 Q38.6368 560.17 43.8567 560.17 L64.0042 560.17 L64.0042 566.059 L14.479 566.059 L14.479 560.17 L33.8944 560.17 Q30.6797 558.07 29.0883 555.237 Q27.4968 552.372 27.4968 548.648 Q27.4968 542.505 31.3163 539.354 Q35.1038 536.203 42.4881 536.203 Z" fill="#000000" fill-rule="nonzero" fill-opacity="1" /><path clip-path="url(#clip690)" d="M18.2347 518.73 L28.3562 518.73 L28.3562 506.667 L32.9077 506.667 L32.9077 518.73 L52.2594 518.73 Q56.6199 518.73 57.8613 517.552 Q59.1026 516.342 59.1026 512.682 L59.1026 506.667 L64.0042 506.667 L64.0042 512.682 Q64.0042 519.462 61.4897 522.04 Q58.9434 524.618 52.2594 524.618 L32.9077 524.618 L32.9077 528.915 L28.3562 528.915 L28.3562 524.618 L18.2347 524.618 L18.2347 518.73 Z" fill="#000000" fill-rule="nonzero" fill-opacity="1" /><path clip-path="url(#clip690)" d="M519.996 12.096 L554.753 12.096 L554.753 18.9825 L528.179 18.9825 L528.179 36.8065 L552.16 36.8065 L552.16 43.6931 L528.179 43.6931 L528.179 72.576 L519.996 72.576 L519.996 12.096 Z" fill="#000000" fill-rule="nonzero" fill-opacity="1" /><path clip-path="url(#clip690)" d="M580.395 49.7694 Q571.361 49.7694 567.877 51.8354 Q564.394 53.9013 564.394 58.8839 Q564.394 62.8538 566.986 65.2034 Q569.619 67.5124 574.116 67.5124 Q580.314 67.5124 584.041 63.1374 Q587.808 58.7219 587.808 51.4303 L587.808 49.7694 L580.395 49.7694 M595.262 46.6907 L595.262 72.576 L587.808 72.576 L587.808 65.6895 Q585.256 69.8214 581.448 71.8063 Q577.64 73.7508 572.131 73.7508 Q565.163 73.7508 561.031 69.8619 Q556.94 65.9325 556.94 59.3701 Q556.94 51.7138 562.044 47.825 Q567.189 43.9361 577.357 43.9361 L587.808 43.9361 L587.808 43.2069 Q587.808 38.0623 584.405 35.2672 Q581.043 32.4315 574.926 32.4315 Q571.037 32.4315 567.351 33.3632 Q563.664 34.295 560.262 36.1584 L560.262 29.2718 Q564.353 27.692 568.202 26.9223 Q572.05 26.1121 575.696 26.1121 Q585.539 26.1121 590.4 31.2163 Q595.262 36.3204 595.262 46.6907 Z" fill="#000000" fill-rule="nonzero" fill-opacity="1" /><path clip-path="url(#clip690)" d="M610.614 27.2059 L618.068 27.2059 L618.068 72.576 L610.614 72.576 L610.614 27.2059 M610.614 9.54393 L618.068 9.54393 L618.068 18.9825 L610.614 18.9825 L610.614 9.54393 Z" fill="#000000" fill-rule="nonzero" fill-opacity="1" /><path clip-path="url(#clip690)" d="M659.954 34.1734 Q658.699 33.4443 657.2 33.1202 Q655.742 32.7556 653.959 32.7556 Q647.64 32.7556 644.237 36.8875 Q640.875 40.9789 640.875 48.6757 L640.875 72.576 L633.381 72.576 L633.381 27.2059 L640.875 27.2059 L640.875 34.2544 Q643.224 30.1225 646.992 28.1376 Q650.759 26.1121 656.147 26.1121 Q656.916 26.1121 657.848 26.2337 Q658.78 26.3147 659.914 26.5172 L659.954 34.1734 Z" fill="#000000" fill-rule="nonzero" fill-opacity="1" /><path clip-path="url(#clip690)" d="M694.468 12.096 L702.651 12.096 L702.651 65.6895 L732.101 65.6895 L732.101 72.576 L694.468 72.576 L694.468 12.096 Z" fill="#000000" fill-rule="nonzero" fill-opacity="1" /><path clip-path="url(#clip690)" d="M756.488 32.4315 Q750.492 32.4315 747.008 37.1306 Q743.525 41.7891 743.525 49.9314 Q743.525 58.0738 746.968 62.7728 Q750.452 67.4314 756.488 67.4314 Q762.442 67.4314 765.926 62.7323 Q769.41 58.0333 769.41 49.9314 Q769.41 41.8701 765.926 37.1711 Q762.442 32.4315 756.488 32.4315 M756.488 26.1121 Q766.21 26.1121 771.759 32.4315 Q777.309 38.7509 777.309 49.9314 Q777.309 61.0714 771.759 67.4314 Q766.21 73.7508 756.488 73.7508 Q746.725 73.7508 741.175 67.4314 Q735.666 61.0714 735.666 49.9314 Q735.666 38.7509 741.175 32.4315 Q746.725 26.1121 756.488 26.1121 Z" fill="#000000" fill-rule="nonzero" fill-opacity="1" /><path clip-path="url(#clip690)" d="M810.284 49.7694 Q801.25 49.7694 797.766 51.8354 Q794.282 53.9013 794.282 58.8839 Q794.282 62.8538 796.875 65.2034 Q799.508 67.5124 804.005 67.5124 Q810.203 67.5124 813.929 63.1374 Q817.697 58.7219 817.697 51.4303 L817.697 49.7694 L810.284 49.7694 M825.15 46.6907 L825.15 72.576 L817.697 72.576 L817.697 65.6895 Q815.145 69.8214 811.337 71.8063 Q807.529 73.7508 802.02 73.7508 Q795.052 73.7508 790.92 69.8619 Q786.829 65.9325 786.829 59.3701 Q786.829 51.7138 791.933 47.825 Q797.078 43.9361 807.245 43.9361 L817.697 43.9361 L817.697 43.2069 Q817.697 38.0623 814.294 35.2672 Q810.932 32.4315 804.815 32.4315 Q800.926 32.4315 797.24 33.3632 Q793.553 34.295 790.151 36.1584 L790.151 29.2718 Q794.242 27.692 798.09 26.9223 Q801.939 26.1121 805.584 26.1121 Q815.428 26.1121 820.289 31.2163 Q825.15 36.3204 825.15 46.6907 Z" fill="#000000" fill-rule="nonzero" fill-opacity="1" /><path clip-path="url(#clip690)" d="M870.358 34.0924 L870.358 9.54393 L877.812 9.54393 L877.812 72.576 L870.358 72.576 L870.358 65.7705 Q868.009 69.8214 864.404 71.8063 Q860.839 73.7508 855.816 73.7508 Q847.592 73.7508 842.407 67.1883 Q837.263 60.6258 837.263 49.9314 Q837.263 39.2371 842.407 32.6746 Q847.592 26.1121 855.816 26.1121 Q860.839 26.1121 864.404 28.0971 Q868.009 30.0415 870.358 34.0924 M844.959 49.9314 Q844.959 58.1548 848.322 62.8538 Q851.724 67.5124 857.639 67.5124 Q863.553 67.5124 866.956 62.8538 Q870.358 58.1548 870.358 49.9314 Q870.358 41.7081 866.956 37.0496 Q863.553 32.3505 857.639 32.3505 Q851.724 32.3505 848.322 37.0496 Q844.959 41.7081 844.959 49.9314 Z" fill="#000000" fill-rule="nonzero" fill-opacity="1" /><path clip-path="url(#clip690)" d="M914.473 12.096 L922.737 12.096 L935.456 63.2184 L948.136 12.096 L957.331 12.096 L970.051 63.2184 L982.731 12.096 L991.035 12.096 L975.844 72.576 L965.555 72.576 L952.794 20.0763 L939.912 72.576 L929.623 72.576 L914.473 12.096 Z" fill="#000000" fill-rule="nonzero" fill-opacity="1" /><path clip-path="url(#clip690)" d="M1035.51 48.0275 L1035.51 51.6733 L1001.24 51.6733 Q1001.73 59.3701 1005.86 63.421 Q1010.03 67.4314 1017.45 67.4314 Q1021.74 67.4314 1025.75 66.3781 Q1029.8 65.3249 1033.77 63.2184 L1033.77 70.267 Q1029.76 71.9684 1025.55 72.8596 Q1021.34 73.7508 1017 73.7508 Q1006.14 73.7508 999.785 67.4314 Q993.465 61.1119 993.465 50.3365 Q993.465 39.1965 999.461 32.6746 Q1005.5 26.1121 1015.7 26.1121 Q1024.86 26.1121 1030.17 32.0264 Q1035.51 37.9003 1035.51 48.0275 M1028.06 45.84 Q1027.98 39.7232 1024.62 36.0774 Q1021.3 32.4315 1015.79 32.4315 Q1009.55 32.4315 1005.78 35.9558 Q1002.05 39.4801 1001.49 45.8805 L1028.06 45.84 Z" fill="#000000" fill-rule="nonzero" fill-opacity="1" /><path clip-path="url(#clip690)" d="M1047.75 27.2059 L1055.2 27.2059 L1055.2 72.576 L1047.75 72.576 L1047.75 27.2059 M1047.75 9.54393 L1055.2 9.54393 L1055.2 18.9825 L1047.75 18.9825 L1047.75 9.54393 Z" fill="#000000" fill-rule="nonzero" fill-opacity="1" /><path clip-path="url(#clip690)" d="M1100.65 49.3643 Q1100.65 41.2625 1097.29 36.8065 Q1093.97 32.3505 1087.93 32.3505 Q1081.94 32.3505 1078.57 36.8065 Q1075.25 41.2625 1075.25 49.3643 Q1075.25 57.4256 1078.57 61.8816 Q1081.94 66.3376 1087.93 66.3376 Q1093.97 66.3376 1097.29 61.8816 Q1100.65 57.4256 1100.65 49.3643 M1108.11 66.9452 Q1108.11 78.5308 1102.96 84.1616 Q1097.82 89.8329 1087.2 89.8329 Q1083.27 89.8329 1079.79 89.2252 Q1076.31 88.6581 1073.03 87.4428 L1073.03 80.1917 Q1076.31 81.9741 1079.51 82.8248 Q1082.71 83.6755 1086.03 83.6755 Q1093.36 83.6755 1097.01 79.8271 Q1100.65 76.0193 1100.65 68.282 L1100.65 64.5957 Q1098.34 68.6061 1094.74 70.5911 Q1091.13 72.576 1086.11 72.576 Q1077.76 72.576 1072.66 66.2161 Q1067.56 59.8562 1067.56 49.3643 Q1067.56 38.832 1072.66 32.472 Q1077.76 26.1121 1086.11 26.1121 Q1091.13 26.1121 1094.74 28.0971 Q1098.34 30.082 1100.65 34.0924 L1100.65 27.2059 L1108.11 27.2059 L1108.11 66.9452 Z" fill="#000000" fill-rule="nonzero" fill-opacity="1" /><path clip-path="url(#clip690)" d="M1161.17 45.1919 L1161.17 72.576 L1153.72 72.576 L1153.72 45.4349 Q1153.72 38.994 1151.21 35.7938 Q1148.7 32.5936 1143.67 32.5936 Q1137.64 32.5936 1134.15 36.4419 Q1130.67 40.2903 1130.67 46.9338 L1130.67 72.576 L1123.18 72.576 L1123.18 9.54393 L1130.67 9.54393 L1130.67 34.2544 Q1133.34 30.163 1136.95 28.1376 Q1140.59 26.1121 1145.33 26.1121 Q1153.15 26.1121 1157.16 30.9732 Q1161.17 35.7938 1161.17 45.1919 Z" fill="#000000" fill-rule="nonzero" fill-opacity="1" /><path clip-path="url(#clip690)" d="M1183.41 14.324 L1183.41 27.2059 L1198.77 27.2059 L1198.77 32.9987 L1183.41 32.9987 L1183.41 57.6282 Q1183.41 63.1779 1184.91 64.7578 Q1186.45 66.3376 1191.11 66.3376 L1198.77 66.3376 L1198.77 72.576 L1191.11 72.576 Q1182.48 72.576 1179.2 69.3758 Q1175.92 66.1351 1175.92 57.6282 L1175.92 32.9987 L1170.45 32.9987 L1170.45 27.2059 L1175.92 27.2059 L1175.92 14.324 L1183.41 14.324 Z" fill="#000000" fill-rule="nonzero" fill-opacity="1" /><path clip-path="url(#clip690)" d="M1237.49 28.5427 L1237.49 35.5912 Q1234.33 33.9709 1230.93 33.1607 Q1227.53 32.3505 1223.88 32.3505 Q1218.33 32.3505 1215.54 34.0519 Q1212.78 35.7533 1212.78 39.156 Q1212.78 41.7486 1214.77 43.2475 Q1216.75 44.7058 1222.75 46.0426 L1225.3 46.6097 Q1233.24 48.3111 1236.56 51.4303 Q1239.92 54.509 1239.92 60.0587 Q1239.92 66.3781 1234.9 70.0644 Q1229.92 73.7508 1221.17 73.7508 Q1217.52 73.7508 1213.55 73.0216 Q1209.62 72.3329 1205.25 70.9151 L1205.25 63.2184 Q1209.38 65.3654 1213.39 66.4591 Q1217.4 67.5124 1221.33 67.5124 Q1226.59 67.5124 1229.43 65.73 Q1232.27 63.9071 1232.27 60.6258 Q1232.27 57.5877 1230.2 55.9673 Q1228.17 54.3469 1221.25 52.8481 L1218.66 52.2405 Q1211.73 50.7821 1208.65 47.7845 Q1205.57 44.7463 1205.57 39.4801 Q1205.57 33.0797 1210.11 29.5959 Q1214.64 26.1121 1222.99 26.1121 Q1227.12 26.1121 1230.77 26.7198 Q1234.41 27.3274 1237.49 28.5427 Z" fill="#000000" fill-rule="nonzero" fill-opacity="1" /><path clip-path="url(#clip690)" d="M1285.37 65.7705 L1285.37 89.8329 L1277.88 89.8329 L1277.88 27.2059 L1285.37 27.2059 L1285.37 34.0924 Q1287.72 30.0415 1291.29 28.0971 Q1294.89 26.1121 1299.88 26.1121 Q1308.14 26.1121 1313.28 32.6746 Q1318.47 39.2371 1318.47 49.9314 Q1318.47 60.6258 1313.28 67.1883 Q1308.14 73.7508 1299.88 73.7508 Q1294.89 73.7508 1291.29 71.8063 Q1287.72 69.8214 1285.37 65.7705 M1310.73 49.9314 Q1310.73 41.7081 1307.33 37.0496 Q1303.97 32.3505 1298.05 32.3505 Q1292.14 32.3505 1288.74 37.0496 Q1285.37 41.7081 1285.37 49.9314 Q1285.37 58.1548 1288.74 62.8538 Q1292.14 67.5124 1298.05 67.5124 Q1303.97 67.5124 1307.33 62.8538 Q1310.73 58.1548 1310.73 49.9314 Z" fill="#000000" fill-rule="nonzero" fill-opacity="1" /><path clip-path="url(#clip690)" d="M1369.63 48.0275 L1369.63 51.6733 L1335.36 51.6733 Q1335.85 59.3701 1339.98 63.421 Q1344.15 67.4314 1351.57 67.4314 Q1355.86 67.4314 1359.87 66.3781 Q1363.92 65.3249 1367.89 63.2184 L1367.89 70.267 Q1363.88 71.9684 1359.67 72.8596 Q1355.45 73.7508 1351.12 73.7508 Q1340.26 73.7508 1333.9 67.4314 Q1327.58 61.1119 1327.58 50.3365 Q1327.58 39.1965 1333.58 32.6746 Q1339.62 26.1121 1349.82 26.1121 Q1358.98 26.1121 1364.29 32.0264 Q1369.63 37.9003 1369.63 48.0275 M1362.18 45.84 Q1362.1 39.7232 1358.74 36.0774 Q1355.41 32.4315 1349.9 32.4315 Q1343.67 32.4315 1339.9 35.9558 Q1336.17 39.4801 1335.6 45.8805 L1362.18 45.84 Z" fill="#000000" fill-rule="nonzero" fill-opacity="1" /><path clip-path="url(#clip690)" d="M1408.16 34.1734 Q1406.9 33.4443 1405.4 33.1202 Q1403.94 32.7556 1402.16 32.7556 Q1395.84 32.7556 1392.44 36.8875 Q1389.08 40.9789 1389.08 48.6757 L1389.08 72.576 L1381.58 72.576 L1381.58 27.2059 L1389.08 27.2059 L1389.08 34.2544 Q1391.43 30.1225 1395.19 28.1376 Q1398.96 26.1121 1404.35 26.1121 Q1405.12 26.1121 1406.05 26.2337 Q1406.98 26.3147 1408.12 26.5172 L1408.16 34.1734 Z" fill="#000000" fill-rule="nonzero" fill-opacity="1" /><path clip-path="url(#clip690)" d="M1442.67 12.096 L1450.85 12.096 L1450.85 65.6895 L1480.3 65.6895 L1480.3 72.576 L1442.67 72.576 L1442.67 12.096 Z" fill="#000000" fill-rule="nonzero" fill-opacity="1" /><path clip-path="url(#clip690)" d="M1504.69 32.4315 Q1498.69 32.4315 1495.21 37.1306 Q1491.73 41.7891 1491.73 49.9314 Q1491.73 58.0738 1495.17 62.7728 Q1498.65 67.4314 1504.69 67.4314 Q1510.64 67.4314 1514.13 62.7323 Q1517.61 58.0333 1517.61 49.9314 Q1517.61 41.8701 1514.13 37.1711 Q1510.64 32.4315 1504.69 32.4315 M1504.69 26.1121 Q1514.41 26.1121 1519.96 32.4315 Q1525.51 38.7509 1525.51 49.9314 Q1525.51 61.0714 1519.96 67.4314 Q1514.41 73.7508 1504.69 73.7508 Q1494.93 73.7508 1489.38 67.4314 Q1483.87 61.0714 1483.87 49.9314 Q1483.87 38.7509 1489.38 32.4315 Q1494.93 26.1121 1504.69 26.1121 Z" fill="#000000" fill-rule="nonzero" fill-opacity="1" /><path clip-path="url(#clip690)" d="M1558.49 49.7694 Q1549.45 49.7694 1545.97 51.8354 Q1542.48 53.9013 1542.48 58.8839 Q1542.48 62.8538 1545.08 65.2034 Q1547.71 67.5124 1552.21 67.5124 Q1558.4 67.5124 1562.13 63.1374 Q1565.9 58.7219 1565.9 51.4303 L1565.9 49.7694 L1558.49 49.7694 M1573.35 46.6907 L1573.35 72.576 L1565.9 72.576 L1565.9 65.6895 Q1563.35 69.8214 1559.54 71.8063 Q1555.73 73.7508 1550.22 73.7508 Q1543.25 73.7508 1539.12 69.8619 Q1535.03 65.9325 1535.03 59.3701 Q1535.03 51.7138 1540.13 47.825 Q1545.28 43.9361 1555.45 43.9361 L1565.9 43.9361 L1565.9 43.2069 Q1565.9 38.0623 1562.5 35.2672 Q1559.13 32.4315 1553.02 32.4315 Q1549.13 32.4315 1545.44 33.3632 Q1541.76 34.295 1538.35 36.1584 L1538.35 29.2718 Q1542.44 27.692 1546.29 26.9223 Q1550.14 26.1121 1553.79 26.1121 Q1563.63 26.1121 1568.49 31.2163 Q1573.35 36.3204 1573.35 46.6907 Z" fill="#000000" fill-rule="nonzero" fill-opacity="1" /><path clip-path="url(#clip690)" d="M1618.56 34.0924 L1618.56 9.54393 L1626.01 9.54393 L1626.01 72.576 L1618.56 72.576 L1618.56 65.7705 Q1616.21 69.8214 1612.61 71.8063 Q1609.04 73.7508 1604.02 73.7508 Q1595.79 73.7508 1590.61 67.1883 Q1585.46 60.6258 1585.46 49.9314 Q1585.46 39.2371 1590.61 32.6746 Q1595.79 26.1121 1604.02 26.1121 Q1609.04 26.1121 1612.61 28.0971 Q1616.21 30.0415 1618.56 34.0924 M1593.16 49.9314 Q1593.16 58.1548 1596.52 62.8538 Q1599.93 67.5124 1605.84 67.5124 Q1611.75 67.5124 1615.16 62.8538 Q1618.56 58.1548 1618.56 49.9314 Q1618.56 41.7081 1615.16 37.0496 Q1611.75 32.3505 1605.84 32.3505 Q1599.93 32.3505 1596.52 37.0496 Q1593.16 41.7081 1593.16 49.9314 Z" fill="#000000" fill-rule="nonzero" fill-opacity="1" /><path clip-path="url(#clip690)" d="M1663.97 46.5287 L1685.81 46.5287 L1685.81 53.1722 L1663.97 53.1722 L1663.97 46.5287 Z" fill="#000000" fill-rule="nonzero" fill-opacity="1" /><path clip-path="url(#clip690)" d="M1724.37 12.096 L1732.55 12.096 L1732.55 72.576 L1724.37 72.576 L1724.37 12.096 Z" fill="#000000" fill-rule="nonzero" fill-opacity="1" /><path clip-path="url(#clip690)" d="M1755.89 14.324 L1755.89 27.2059 L1771.24 27.2059 L1771.24 32.9987 L1755.89 32.9987 L1755.89 57.6282 Q1755.89 63.1779 1757.38 64.7578 Q1758.92 66.3376 1763.58 66.3376 L1771.24 66.3376 L1771.24 72.576 L1763.58 72.576 Q1754.95 72.576 1751.67 69.3758 Q1748.39 66.1351 1748.39 57.6282 L1748.39 32.9987 L1742.92 32.9987 L1742.92 27.2059 L1748.39 27.2059 L1748.39 14.324 L1755.89 14.324 Z" fill="#000000" fill-rule="nonzero" fill-opacity="1" /><path clip-path="url(#clip690)" d="M1819.85 48.0275 L1819.85 51.6733 L1785.58 51.6733 Q1786.07 59.3701 1790.2 63.421 Q1794.37 67.4314 1801.78 67.4314 Q1806.08 67.4314 1810.09 66.3781 Q1814.14 65.3249 1818.11 63.2184 L1818.11 70.267 Q1814.1 71.9684 1809.88 72.8596 Q1805.67 73.7508 1801.34 73.7508 Q1790.48 73.7508 1784.12 67.4314 Q1777.8 61.1119 1777.8 50.3365 Q1777.8 39.1965 1783.8 32.6746 Q1789.83 26.1121 1800.04 26.1121 Q1809.2 26.1121 1814.5 32.0264 Q1819.85 37.9003 1819.85 48.0275 M1812.4 45.84 Q1812.32 39.7232 1808.95 36.0774 Q1805.63 32.4315 1800.12 32.4315 Q1793.88 32.4315 1790.12 35.9558 Q1786.39 39.4801 1785.82 45.8805 L1812.4 45.84 Z" fill="#000000" fill-rule="nonzero" fill-opacity="1" /><path clip-path="url(#clip690)" d="M1858.37 34.1734 Q1857.12 33.4443 1855.62 33.1202 Q1854.16 32.7556 1852.38 32.7556 Q1846.06 32.7556 1842.66 36.8875 Q1839.29 40.9789 1839.29 48.6757 L1839.29 72.576 L1831.8 72.576 L1831.8 27.2059 L1839.29 27.2059 L1839.29 34.2544 Q1841.64 30.1225 1845.41 28.1376 Q1849.18 26.1121 1854.57 26.1121 Q1855.34 26.1121 1856.27 26.2337 Q1857.2 26.3147 1858.33 26.5172 L1858.37 34.1734 Z" fill="#000000" fill-rule="nonzero" fill-opacity="1" /><path clip-path="url(#clip690)" d="M1886.81 49.7694 Q1877.78 49.7694 1874.29 51.8354 Q1870.81 53.9013 1870.81 58.8839 Q1870.81 62.8538 1873.4 65.2034 Q1876.04 67.5124 1880.53 67.5124 Q1886.73 67.5124 1890.46 63.1374 Q1894.22 58.7219 1894.22 51.4303 L1894.22 49.7694 L1886.81 49.7694 M1901.68 46.6907 L1901.68 72.576 L1894.22 72.576 L1894.22 65.6895 Q1891.67 69.8214 1887.86 71.8063 Q1884.06 73.7508 1878.55 73.7508 Q1871.58 73.7508 1867.45 69.8619 Q1863.36 65.9325 1863.36 59.3701 Q1863.36 51.7138 1868.46 47.825 Q1873.61 43.9361 1883.77 43.9361 L1894.22 43.9361 L1894.22 43.2069 Q1894.22 38.0623 1890.82 35.2672 Q1887.46 32.4315 1881.34 32.4315 Q1877.45 32.4315 1873.77 33.3632 Q1870.08 34.295 1866.68 36.1584 L1866.68 29.2718 Q1870.77 27.692 1874.62 26.9223 Q1878.47 26.1121 1882.11 26.1121 Q1891.96 26.1121 1896.82 31.2163 Q1901.68 36.3204 1901.68 46.6907 Z" fill="#000000" fill-rule="nonzero" fill-opacity="1" /><path clip-path="url(#clip690)" d="M1924.4 14.324 L1924.4 27.2059 L1939.76 27.2059 L1939.76 32.9987 L1924.4 32.9987 L1924.4 57.6282 Q1924.4 63.1779 1925.9 64.7578 Q1927.44 66.3376 1932.1 66.3376 L1939.76 66.3376 L1939.76 72.576 L1932.1 72.576 Q1923.47 72.576 1920.19 69.3758 Q1916.91 66.1351 1916.91 57.6282 L1916.91 32.9987 L1911.44 32.9987 L1911.44 27.2059 L1916.91 27.2059 L1916.91 14.324 L1924.4 14.324 Z" fill="#000000" fill-rule="nonzero" fill-opacity="1" /><path clip-path="url(#clip690)" d="M1949.56 27.2059 L1957.01 27.2059 L1957.01 72.576 L1949.56 72.576 L1949.56 27.2059 M1949.56 9.54393 L1957.01 9.54393 L1957.01 18.9825 L1949.56 18.9825 L1949.56 9.54393 Z" fill="#000000" fill-rule="nonzero" fill-opacity="1" /><path clip-path="url(#clip690)" d="M1990.19 32.4315 Q1984.2 32.4315 1980.71 37.1306 Q1977.23 41.7891 1977.23 49.9314 Q1977.23 58.0738 1980.67 62.7728 Q1984.15 67.4314 1990.19 67.4314 Q1996.15 67.4314 1999.63 62.7323 Q2003.11 58.0333 2003.11 49.9314 Q2003.11 41.8701 1999.63 37.1711 Q1996.15 32.4315 1990.19 32.4315 M1990.19 26.1121 Q1999.91 26.1121 2005.46 32.4315 Q2011.01 38.7509 2011.01 49.9314 Q2011.01 61.0714 2005.46 67.4314 Q1999.91 73.7508 1990.19 73.7508 Q1980.43 73.7508 1974.88 67.4314 Q1969.37 61.0714 1969.37 49.9314 Q1969.37 38.7509 1974.88 32.4315 Q1980.43 26.1121 1990.19 26.1121 Z" fill="#000000" fill-rule="nonzero" fill-opacity="1" /><path clip-path="url(#clip690)" d="M2061.08 45.1919 L2061.08 72.576 L2053.63 72.576 L2053.63 45.4349 Q2053.63 38.994 2051.12 35.7938 Q2048.6 32.5936 2043.58 32.5936 Q2037.55 32.5936 2034.06 36.4419 Q2030.58 40.2903 2030.58 46.9338 L2030.58 72.576 L2023.08 72.576 L2023.08 27.2059 L2030.58 27.2059 L2030.58 34.2544 Q2033.25 30.163 2036.86 28.1376 Q2040.5 26.1121 2045.24 26.1121 Q2053.06 26.1121 2057.07 30.9732 Q2061.08 35.7938 2061.08 45.1919 Z" fill="#000000" fill-rule="nonzero" fill-opacity="1" /><path clip-path="url(#clip690)" d="M2125.86 19.2256 L2105.2 51.5113 L2125.86 51.5113 L2125.86 19.2256 M2123.71 12.096 L2134 12.096 L2134 51.5113 L2142.63 51.5113 L2142.63 58.3168 L2134 58.3168 L2134 72.576 L2125.86 72.576 L2125.86 58.3168 L2098.55 58.3168 L2098.55 50.4176 L2123.71 12.096 Z" fill="#000000" fill-rule="nonzero" fill-opacity="1" /><path clip-path="url(#clip692)" d="M913.624 123.866 L913.624 1423.18 L1011.9 1423.18 L1011.9 123.866 L913.624 123.866 L913.624 123.866  Z" fill="#009af9" fill-rule="evenodd" fill-opacity="1"/>
<polyline clip-path="url(#clip692)" style="stroke:#000000; stroke-linecap:round; stroke-linejoin:round; stroke-width:4; stroke-opacity:1; fill:none" points="913.624,123.866 913.624,1423.18 1011.9,1423.18 1011.9,123.866 913.624,123.866 "/>
<path clip-path="url(#clip692)" d="M1773.57 135.234 L1773.57 1423.18 L1871.85 1423.18 L1871.85 135.234 L1773.57 135.234 L1773.57 135.234  Z" fill="#009af9" fill-rule="evenodd" fill-opacity="1"/>
<polyline clip-path="url(#clip692)" style="stroke:#000000; stroke-linecap:round; stroke-linejoin:round; stroke-width:4; stroke-opacity:1; fill:none" points="1773.57,135.234 1773.57,1423.18 1871.85,1423.18 1871.85,135.234 1773.57,135.234 "/>
<path clip-path="url(#clip692)" d="M1282.17 131.593 L1282.17 1423.18 L1380.45 1423.18 L1380.45 131.593 L1282.17 131.593 L1282.17 131.593  Z" fill="#009af9" fill-rule="evenodd" fill-opacity="1"/>
<polyline clip-path="url(#clip692)" style="stroke:#000000; stroke-linecap:round; stroke-linejoin:round; stroke-width:4; stroke-opacity:1; fill:none" points="1282.17,131.593 1282.17,1423.18 1380.45,1423.18 1380.45,131.593 1282.17,131.593 "/>
<path clip-path="url(#clip692)" d="M422.228 124.471 L422.228 1423.18 L520.508 1423.18 L520.508 124.471 L422.228 124.471 L422.228 124.471  Z" fill="#009af9" fill-rule="evenodd" fill-opacity="1"/>
<polyline clip-path="url(#clip692)" style="stroke:#000000; stroke-linecap:round; stroke-linejoin:round; stroke-width:4; stroke-opacity:1; fill:none" points="422.228,124.471 422.228,1423.18 520.508,1423.18 520.508,124.471 422.228,124.471 "/>
<path clip-path="url(#clip692)" d="M1036.47 133.435 L1036.47 1423.18 L1134.75 1423.18 L1134.75 133.435 L1036.47 133.435 L1036.47 133.435  Z" fill="#009af9" fill-rule="evenodd" fill-opacity="1"/>
<polyline clip-path="url(#clip692)" style="stroke:#000000; stroke-linecap:round; stroke-linejoin:round; stroke-width:4; stroke-opacity:1; fill:none" points="1036.47,133.435 1036.47,1423.18 1134.75,1423.18 1134.75,133.435 1036.47,133.435 "/>
<path clip-path="url(#clip692)" d="M1650.72 136.649 L1650.72 1423.18 L1749 1423.18 L1749 136.649 L1650.72 136.649 L1650.72 136.649  Z" fill="#009af9" fill-rule="evenodd" fill-opacity="1"/>
<polyline clip-path="url(#clip692)" style="stroke:#000000; stroke-linecap:round; stroke-linejoin:round; stroke-width:4; stroke-opacity:1; fill:none" points="1650.72,136.649 1650.72,1423.18 1749,1423.18 1749,136.649 1650.72,136.649 "/>
<path clip-path="url(#clip692)" d="M1405.02 135.663 L1405.02 1423.18 L1503.3 1423.18 L1503.3 135.663 L1405.02 135.663 L1405.02 135.663  Z" fill="#009af9" fill-rule="evenodd" fill-opacity="1"/>
<polyline clip-path="url(#clip692)" style="stroke:#000000; stroke-linecap:round; stroke-linejoin:round; stroke-width:4; stroke-opacity:1; fill:none" points="1405.02,135.663 1405.02,1423.18 1503.3,1423.18 1503.3,135.663 1405.02,135.663 "/>
<path clip-path="url(#clip692)" d="M2019.27 140.395 L2019.27 1423.18 L2117.54 1423.18 L2117.54 140.395 L2019.27 140.395 L2019.27 140.395  Z" fill="#009af9" fill-rule="evenodd" fill-opacity="1"/>
<polyline clip-path="url(#clip692)" style="stroke:#000000; stroke-linecap:round; stroke-linejoin:round; stroke-width:4; stroke-opacity:1; fill:none" points="2019.27,140.395 2019.27,1423.18 2117.54,1423.18 2117.54,140.395 2019.27,140.395 "/>
<path clip-path="url(#clip692)" d="M667.926 130.1 L667.926 1423.18 L766.206 1423.18 L766.206 130.1 L667.926 130.1 L667.926 130.1  Z" fill="#009af9" fill-rule="evenodd" fill-opacity="1"/>
<polyline clip-path="url(#clip692)" style="stroke:#000000; stroke-linecap:round; stroke-linejoin:round; stroke-width:4; stroke-opacity:1; fill:none" points="667.926,130.1 667.926,1423.18 766.206,1423.18 766.206,130.1 667.926,130.1 "/>
<path clip-path="url(#clip692)" d="M1159.32 132.203 L1159.32 1423.18 L1257.6 1423.18 L1257.6 132.203 L1159.32 132.203 L1159.32 132.203  Z" fill="#009af9" fill-rule="evenodd" fill-opacity="1"/>
<polyline clip-path="url(#clip692)" style="stroke:#000000; stroke-linecap:round; stroke-linejoin:round; stroke-width:4; stroke-opacity:1; fill:none" points="1159.32,132.203 1159.32,1423.18 1257.6,1423.18 1257.6,132.203 1159.32,132.203 "/>
<path clip-path="url(#clip692)" d="M790.775 123.472 L790.775 1423.18 L889.055 1423.18 L889.055 123.472 L790.775 123.472 L790.775 123.472  Z" fill="#009af9" fill-rule="evenodd" fill-opacity="1"/>
<polyline clip-path="url(#clip692)" style="stroke:#000000; stroke-linecap:round; stroke-linejoin:round; stroke-width:4; stroke-opacity:1; fill:none" points="790.775,123.472 790.775,1423.18 889.055,1423.18 889.055,123.472 790.775,123.472 "/>
<path clip-path="url(#clip692)" d="M1896.42 129.395 L1896.42 1423.18 L1994.7 1423.18 L1994.7 129.395 L1896.42 129.395 L1896.42 129.395  Z" fill="#009af9" fill-rule="evenodd" fill-opacity="1"/>
<polyline clip-path="url(#clip692)" style="stroke:#000000; stroke-linecap:round; stroke-linejoin:round; stroke-width:4; stroke-opacity:1; fill:none" points="1896.42,129.395 1896.42,1423.18 1994.7,1423.18 1994.7,129.395 1896.42,129.395 "/>
<path clip-path="url(#clip692)" d="M2142.11 135.221 L2142.11 1423.18 L2240.39 1423.18 L2240.39 135.221 L2142.11 135.221 L2142.11 135.221  Z" fill="#009af9" fill-rule="evenodd" fill-opacity="1"/>
<polyline clip-path="url(#clip692)" style="stroke:#000000; stroke-linecap:round; stroke-linejoin:round; stroke-width:4; stroke-opacity:1; fill:none" points="2142.11,135.221 2142.11,1423.18 2240.39,1423.18 2240.39,135.221 2142.11,135.221 "/>
<path clip-path="url(#clip692)" d="M545.077 138.391 L545.077 1423.18 L643.357 1423.18 L643.357 138.391 L545.077 138.391 L545.077 138.391  Z" fill="#009af9" fill-rule="evenodd" fill-opacity="1"/>
<polyline clip-path="url(#clip692)" style="stroke:#000000; stroke-linecap:round; stroke-linejoin:round; stroke-width:4; stroke-opacity:1; fill:none" points="545.077,138.391 545.077,1423.18 643.357,1423.18 643.357,138.391 545.077,138.391 "/>
<path clip-path="url(#clip692)" d="M1527.87 132.102 L1527.87 1423.18 L1626.15 1423.18 L1626.15 132.102 L1527.87 132.102 L1527.87 132.102  Z" fill="#009af9" fill-rule="evenodd" fill-opacity="1"/>
<polyline clip-path="url(#clip692)" style="stroke:#000000; stroke-linecap:round; stroke-linejoin:round; stroke-width:4; stroke-opacity:1; fill:none" points="1527.87,132.102 1527.87,1423.18 1626.15,1423.18 1626.15,132.102 1527.87,132.102 "/>
<circle clip-path="url(#clip692)" style="fill:#009af9; stroke:none; fill-opacity:0" cx="962.764" cy="123.866" r="2"/>
<circle clip-path="url(#clip692)" style="fill:#009af9; stroke:none; fill-opacity:0" cx="1822.71" cy="135.234" r="2"/>
<circle clip-path="url(#clip692)" style="fill:#009af9; stroke:none; fill-opacity:0" cx="1331.31" cy="131.593" r="2"/>
<circle clip-path="url(#clip692)" style="fill:#009af9; stroke:none; fill-opacity:0" cx="471.368" cy="124.471" r="2"/>
<circle clip-path="url(#clip692)" style="fill:#009af9; stroke:none; fill-opacity:0" cx="1085.61" cy="133.435" r="2"/>
<circle clip-path="url(#clip692)" style="fill:#009af9; stroke:none; fill-opacity:0" cx="1699.86" cy="136.649" r="2"/>
<circle clip-path="url(#clip692)" style="fill:#009af9; stroke:none; fill-opacity:0" cx="1454.16" cy="135.663" r="2"/>
<circle clip-path="url(#clip692)" style="fill:#009af9; stroke:none; fill-opacity:0" cx="2068.4" cy="140.395" r="2"/>
<circle clip-path="url(#clip692)" style="fill:#009af9; stroke:none; fill-opacity:0" cx="717.066" cy="130.1" r="2"/>
<circle clip-path="url(#clip692)" style="fill:#009af9; stroke:none; fill-opacity:0" cx="1208.46" cy="132.203" r="2"/>
<circle clip-path="url(#clip692)" style="fill:#009af9; stroke:none; fill-opacity:0" cx="839.915" cy="123.472" r="2"/>
<circle clip-path="url(#clip692)" style="fill:#009af9; stroke:none; fill-opacity:0" cx="1945.56" cy="129.395" r="2"/>
<circle clip-path="url(#clip692)" style="fill:#009af9; stroke:none; fill-opacity:0" cx="2191.25" cy="135.221" r="2"/>
<circle clip-path="url(#clip692)" style="fill:#009af9; stroke:none; fill-opacity:0" cx="594.217" cy="138.391" r="2"/>
<circle clip-path="url(#clip692)" style="fill:#009af9; stroke:none; fill-opacity:0" cx="1577.01" cy="132.102" r="2"/>
</svg>
