<?xml version="1.0" encoding="UTF-8"?>
<svg xmlns="http://www.w3.org/2000/svg"
     xmlns:xlink="http://www.w3.org/1999/xlink"
     version="1.2"
     width="180mm" height="120mm" viewBox="0 0 180 120"
     stroke="none"
     fill="#000000"
     stroke-width="0.3"
     font-size="3.88"
>
<defs>
  <marker id="arrow" markerWidth="15" markerHeight="7" refX="5" refY="3.5" orient="auto" markerUnits="strokeWidth">
    <path d="M0,0 L15,3.5 L0,7 z" stroke="context-stroke" fill="context-stroke"/>
  </marker>
</defs>
<g stroke-width="0.3" stroke="#808080" fill="#FFFFFF" id="img-ec367534-1">
  <g transform="translate(155.7,36.48)">
    <path d="M-23.4,-29.88 L23.4,-29.88 23.4,29.88 -23.4,29.88  z" class="primitive"/>
  </g>
</g>
<g stroke-dasharray="3,2" stroke-width="1.42" stroke="#808080" id="img-ec367534-2">
  <g transform="translate(13.68,45.6)">
    <path fill="none" d="M0,-19.2 L0,19.2 " class="primitive"/>
  </g>
</g>
<g stroke-dasharray="3,2" stroke-width="1.42" stroke="#800080" id="img-ec367534-3">
  <g transform="translate(80.46,26.4)">
    <path fill="none" d="M-13.86,0 L13.86,0 " class="primitive"/>
  </g>
</g>
<g stroke-dasharray="3,2" stroke-width="1.42" stroke="#800080" id="img-ec367534-4">
  <g transform="translate(80.46,64.8)">
    <path fill="none" d="M-13.86,0 L13.86,0 " class="primitive"/>
  </g>
</g>
<g stroke-dasharray="3,2" stroke-width="1.42" stroke="#800080" id="img-ec367534-5">
  <g transform="translate(52.74,26.4)">
    <path fill="none" d="M13.86,0 L-13.86,0 " class="primitive"/>
  </g>
</g>
<g stroke-width="1.42" stroke="#008B8B" id="img-ec367534-6">
  <g transform="translate(21.24,64.8)">
    <path fill="none" d="M7.56,0 L-7.56,0 " class="primitive"/>
  </g>
</g>
<g stroke-width="1.42" stroke="#008B8B" id="img-ec367534-7">
  <g transform="translate(106.92,26.4)">
    <path fill="none" d="M-12.6,0 L12.6,0 " class="primitive"/>
  </g>
</g>
<g stroke-width="1.42" stroke="#008B8B" id="img-ec367534-8">
  <g transform="translate(28.8,75.6)">
    <path fill="none" d="M0,-10.8 L0,10.8 " class="primitive"/>
  </g>
</g>
<g stroke-width="1.42" stroke="#008B8B" id="img-ec367534-9">
  <g transform="translate(74.16,75.6)">
    <path fill="none" d="M-7.56,-10.8 L7.56,10.8 " class="primitive"/>
  </g>
</g>
<g stroke-width="1.42" stroke="#008B8B" id="img-ec367534-10">
  <g transform="translate(26.28,26.4)">
    <path fill="none" d="M12.6,0 L-12.6,0 " class="primitive"/>
  </g>
</g>
<g stroke-width="1.42" stroke="#008B8B" id="img-ec367534-11">
  <g transform="translate(66.6,16.8)">
    <path fill="none" d="M0,-9.6 L0,9.6 " class="primitive"/>
  </g>
</g>
<g stroke-width="1.42" stroke="#008B8B" id="img-ec367534-12">
  <g transform="translate(66.6,55.2)">
    <path fill="none" d="M0,-9.6 L0,9.6 " class="primitive"/>
  </g>
</g>
<g stroke-width="1.42" stroke="#008B8B" id="img-ec367534-13">
  <g transform="translate(47.7,64.8)">
    <path fill="none" d="M18.9,0 L-18.9,0 " class="primitive"/>
  </g>
</g>
<g stroke-width="1.42" stroke="#008B8B" id="img-ec367534-14">
  <g transform="translate(119.52,45.6)">
    <path fill="none" d="M0,-19.2 L0,19.2 " class="primitive"/>
  </g>
</g>
<g stroke-width="1.42" stroke="#008B8B" id="img-ec367534-15">
  <g transform="translate(66.6,36)">
    <path fill="none" d="M0,-9.6 L0,9.6 " class="primitive"/>
  </g>
</g>
<g stroke-width="1.42" stroke="#008B8B" id="img-ec367534-16">
  <g transform="translate(106.92,64.8)">
    <path fill="none" d="M-12.6,0 L12.6,0 " class="primitive"/>
  </g>
</g>
<g stroke="#000000" stroke-opacity="0.000" fill="#FFFFFF" id="img-ec367534-17">
  <g transform="translate(94.32,35.88)">
    <path d="M-10.8,-0.96 L10.8,-0.96 10.8,0.96 -10.8,0.96  z" class="primitive"/>
  </g>
</g>
<g stroke="#000000" stroke-opacity="0.000" fill="#FFFFFF" id="img-ec367534-18">
  <g transform="translate(94.32,33.48)">
    <path d="M-10.8,-0.96 L10.8,-0.96 10.8,0.96 -10.8,0.96  z" class="primitive"/>
  </g>
</g>
<g stroke="#000000" stroke-opacity="0.000" fill="#FFFFFF" id="img-ec367534-19">
  <g transform="translate(94.32,31.08)">
    <path d="M-10.8,-0.96 L10.8,-0.96 10.8,0.96 -10.8,0.96  z" class="primitive"/>
  </g>
</g>
<g stroke="#000000" stroke-opacity="0.000" fill="#FFFFFF" id="img-ec367534-20">
  <g transform="translate(74.52,95.88)">
    <path d="M-10.8,-0.96 L10.8,-0.96 10.8,0.96 -10.8,0.96  z" class="primitive"/>
  </g>
</g>
<g stroke="#000000" stroke-opacity="0.000" fill="#FFFFFF" id="img-ec367534-21">
  <g transform="translate(74.52,93.48)">
    <path d="M-10.8,-0.96 L10.8,-0.96 10.8,0.96 -10.8,0.96  z" class="primitive"/>
  </g>
</g>
<g stroke="#000000" stroke-opacity="0.000" fill="#FFFFFF" id="img-ec367534-22">
  <g transform="translate(74.52,91.08)">
    <path d="M-10.8,-0.96 L10.8,-0.96 10.8,0.96 -10.8,0.96  z" class="primitive"/>
  </g>
</g>
<g stroke="#000000" stroke-opacity="0.000" fill="#FFFFFF" id="img-ec367534-23">
  <g transform="translate(59.4,62.28)">
    <path d="M-10.8,-0.96 L10.8,-0.96 10.8,0.96 -10.8,0.96  z" class="primitive"/>
  </g>
</g>
<g stroke="#000000" stroke-opacity="0.000" fill="#FFFFFF" id="img-ec367534-24">
  <g transform="translate(59.4,59.88)">
    <path d="M-10.8,-0.96 L10.8,-0.96 10.8,0.96 -10.8,0.96  z" class="primitive"/>
  </g>
</g>
<g stroke="#000000" stroke-opacity="0.000" fill="#FFFFFF" id="img-ec367534-25">
  <g transform="translate(59.4,57.48)">
    <path d="M-10.8,-0.96 L10.8,-0.96 10.8,0.96 -10.8,0.96  z" class="primitive"/>
  </g>
</g>
<g stroke="#000000" stroke-opacity="0.000" fill="#FFFFFF" id="img-ec367534-26">
  <g transform="translate(59.4,55.08)">
    <path d="M-9,-0.96 L9,-0.96 9,0.96 -9,0.96  z" class="primitive"/>
  </g>
</g>
<g stroke="#000000" stroke-opacity="0.000" fill="#FFFFFF" id="img-ec367534-27">
  <g transform="translate(59.4,52.68)">
    <path d="M-9,-0.96 L9,-0.96 9,0.96 -9,0.96  z" class="primitive"/>
  </g>
</g>
<g stroke="#000000" stroke-opacity="0.000" fill="#FFFFFF" id="img-ec367534-28">
  <g transform="translate(59.4,50.28)">
    <path d="M-9,-0.96 L9,-0.96 9,0.96 -9,0.96  z" class="primitive"/>
  </g>
</g>
<g stroke="#000000" stroke-opacity="0.000" fill="#FFFFFF" id="img-ec367534-29">
  <g transform="translate(21.6,98.28)">
    <path d="M-10.8,-0.96 L10.8,-0.96 10.8,0.96 -10.8,0.96  z" class="primitive"/>
  </g>
</g>
<g stroke="#000000" stroke-opacity="0.000" fill="#FFFFFF" id="img-ec367534-30">
  <g transform="translate(21.6,95.88)">
    <path d="M-10.8,-0.96 L10.8,-0.96 10.8,0.96 -10.8,0.96  z" class="primitive"/>
  </g>
</g>
<g stroke="#000000" stroke-opacity="0.000" fill="#FFFFFF" id="img-ec367534-31">
  <g transform="translate(21.6,93.48)">
    <path d="M-10.8,-0.96 L10.8,-0.96 10.8,0.96 -10.8,0.96  z" class="primitive"/>
  </g>
</g>
<g stroke="#000000" stroke-opacity="0.000" fill="#FFFFFF" id="img-ec367534-32">
  <g transform="translate(21.6,91.08)">
    <path d="M-9,-0.96 L9,-0.96 9,0.96 -9,0.96  z" class="primitive"/>
  </g>
</g>
<g stroke="#000000" stroke-opacity="0.000" fill="#FFFFFF" id="img-ec367534-33">
  <g transform="translate(6.48,76.68)">
    <path d="M-10.8,-0.96 L10.8,-0.96 10.8,0.96 -10.8,0.96  z" class="primitive"/>
  </g>
</g>
<g stroke="#000000" stroke-opacity="0.000" fill="#FFFFFF" id="img-ec367534-34">
  <g transform="translate(6.48,74.28)">
    <path d="M-10.8,-0.96 L10.8,-0.96 10.8,0.96 -10.8,0.96  z" class="primitive"/>
  </g>
</g>
<g stroke="#000000" stroke-opacity="0.000" fill="#FFFFFF" id="img-ec367534-35">
  <g transform="translate(6.48,71.88)">
    <path d="M-10.8,-0.96 L10.8,-0.96 10.8,0.96 -10.8,0.96  z" class="primitive"/>
  </g>
</g>
<g stroke="#000000" stroke-opacity="0.000" fill="#FFFFFF" id="img-ec367534-36">
  <g transform="translate(6.48,69.48)">
    <path d="M-9,-0.96 L9,-0.96 9,0.96 -9,0.96  z" class="primitive"/>
  </g>
</g>
<g stroke="#000000" stroke-opacity="0.000" fill="#FFFFFF" id="img-ec367534-37">
  <g transform="translate(117.18,43.08)">
    <path d="M-10.8,-0.96 L10.8,-0.96 10.8,0.96 -10.8,0.96  z" class="primitive"/>
  </g>
</g>
<g stroke="#000000" stroke-opacity="0.000" fill="#FFFFFF" id="img-ec367534-38">
  <g transform="translate(117.18,40.68)">
    <path d="M-10.8,-0.96 L10.8,-0.96 10.8,0.96 -10.8,0.96  z" class="primitive"/>
  </g>
</g>
<g stroke="#000000" stroke-opacity="0.000" fill="#FFFFFF" id="img-ec367534-39">
  <g transform="translate(117.18,38.28)">
    <path d="M-10.8,-0.96 L10.8,-0.96 10.8,0.96 -10.8,0.96  z" class="primitive"/>
  </g>
</g>
<g stroke="#000000" stroke-opacity="0.000" fill="#FFFFFF" id="img-ec367534-40">
  <g transform="translate(117.18,35.88)">
    <path d="M-9,-0.96 L9,-0.96 9,0.96 -9,0.96  z" class="primitive"/>
  </g>
</g>
<g stroke="#000000" stroke-opacity="0.000" fill="#FFFFFF" id="img-ec367534-41">
  <g transform="translate(117.18,33.48)">
    <path d="M-9,-0.96 L9,-0.96 9,0.96 -9,0.96  z" class="primitive"/>
  </g>
</g>
<g stroke="#000000" stroke-opacity="0.000" fill="#FFFFFF" id="img-ec367534-42">
  <g transform="translate(117.18,31.08)">
    <path d="M-9,-0.96 L9,-0.96 9,0.96 -9,0.96  z" class="primitive"/>
  </g>
</g>
<g stroke="#000000" stroke-opacity="0.000" fill="#FFFFFF" id="img-ec367534-43">
  <g transform="translate(11.34,40.68)">
    <path d="M-10.8,-0.96 L10.8,-0.96 10.8,0.96 -10.8,0.96  z" class="primitive"/>
  </g>
</g>
<g stroke="#000000" stroke-opacity="0.000" fill="#FFFFFF" id="img-ec367534-44">
  <g transform="translate(11.34,38.28)">
    <path d="M-10.8,-0.96 L10.8,-0.96 10.8,0.96 -10.8,0.96  z" class="primitive"/>
  </g>
</g>
<g stroke="#000000" stroke-opacity="0.000" fill="#FFFFFF" id="img-ec367534-45">
  <g transform="translate(11.34,35.88)">
    <path d="M-10.8,-0.96 L10.8,-0.96 10.8,0.96 -10.8,0.96  z" class="primitive"/>
  </g>
</g>
<g stroke="#000000" stroke-opacity="0.000" fill="#FFFFFF" id="img-ec367534-46">
  <g transform="translate(11.34,33.48)">
    <path d="M-9,-0.96 L9,-0.96 9,0.96 -9,0.96  z" class="primitive"/>
  </g>
</g>
<g stroke="#000000" stroke-opacity="0.000" fill="#FFFFFF" id="img-ec367534-47">
  <g transform="translate(11.34,31.08)">
    <path d="M-9,-0.96 L9,-0.96 9,0.96 -9,0.96  z" class="primitive"/>
  </g>
</g>
<g stroke="#000000" stroke-opacity="0.000" fill="#FFFFFF" id="img-ec367534-48">
  <g transform="translate(59.4,35.88)">
    <path d="M-10.8,-0.96 L10.8,-0.96 10.8,0.96 -10.8,0.96  z" class="primitive"/>
  </g>
</g>
<g stroke="#000000" stroke-opacity="0.000" fill="#FFFFFF" id="img-ec367534-49">
  <g transform="translate(59.4,33.48)">
    <path d="M-10.8,-0.96 L10.8,-0.96 10.8,0.96 -10.8,0.96  z" class="primitive"/>
  </g>
</g>
<g stroke="#000000" stroke-opacity="0.000" fill="#FFFFFF" id="img-ec367534-50">
  <g transform="translate(59.4,31.08)">
    <path d="M-10.8,-0.96 L10.8,-0.96 10.8,0.96 -10.8,0.96  z" class="primitive"/>
  </g>
</g>
<g stroke="#000000" stroke-opacity="0.000" fill="#FFFFFF" id="img-ec367534-51">
  <g transform="translate(28.8,74.28)">
    <path d="M-10.8,-0.96 L10.8,-0.96 10.8,0.96 -10.8,0.96  z" class="primitive"/>
  </g>
</g>
<g stroke="#000000" stroke-opacity="0.000" fill="#FFFFFF" id="img-ec367534-52">
  <g transform="translate(28.8,71.88)">
    <path d="M-10.8,-0.96 L10.8,-0.96 10.8,0.96 -10.8,0.96  z" class="primitive"/>
  </g>
</g>
<g stroke="#000000" stroke-opacity="0.000" fill="#FFFFFF" id="img-ec367534-53">
  <g transform="translate(28.8,69.48)">
    <path d="M-10.8,-0.96 L10.8,-0.96 10.8,0.96 -10.8,0.96  z" class="primitive"/>
  </g>
</g>
<g stroke="#000000" stroke-opacity="0.000" fill="#FFFFFF" id="img-ec367534-54">
  <g transform="translate(66.6,16.68)">
    <path d="M-10.8,-0.96 L10.8,-0.96 10.8,0.96 -10.8,0.96  z" class="primitive"/>
  </g>
</g>
<g stroke="#000000" stroke-opacity="0.000" fill="#FFFFFF" id="img-ec367534-55">
  <g transform="translate(66.6,14.28)">
    <path d="M-10.8,-0.96 L10.8,-0.96 10.8,0.96 -10.8,0.96  z" class="primitive"/>
  </g>
</g>
<g stroke="#000000" stroke-opacity="0.000" fill="#FFFFFF" id="img-ec367534-56">
  <g transform="translate(66.6,11.88)">
    <path d="M-10.8,-0.96 L10.8,-0.96 10.8,0.96 -10.8,0.96  z" class="primitive"/>
  </g>
</g>
<g stroke="#000000" stroke-opacity="0.000" fill="#FFFFFF" id="img-ec367534-57">
  <g transform="translate(61.92,81.48)">
    <path d="M-10.8,-0.96 L10.8,-0.96 10.8,0.96 -10.8,0.96  z" class="primitive"/>
  </g>
</g>
<g stroke="#000000" stroke-opacity="0.000" fill="#FFFFFF" id="img-ec367534-58">
  <g transform="translate(61.92,79.08)">
    <path d="M-10.8,-0.96 L10.8,-0.96 10.8,0.96 -10.8,0.96  z" class="primitive"/>
  </g>
</g>
<g stroke="#000000" stroke-opacity="0.000" fill="#FFFFFF" id="img-ec367534-59">
  <g transform="translate(61.92,76.68)">
    <path d="M-10.8,-0.96 L10.8,-0.96 10.8,0.96 -10.8,0.96  z" class="primitive"/>
  </g>
</g>
<g stroke="#000000" stroke-opacity="0.000" fill="#FFFFFF" id="img-ec367534-60">
  <g transform="translate(61.92,74.28)">
    <path d="M-9,-0.96 L9,-0.96 9,0.96 -9,0.96  z" class="primitive"/>
  </g>
</g>
<g stroke="#000000" stroke-opacity="0.000" fill="#FFFFFF" id="img-ec367534-61">
  <g transform="translate(61.92,71.88)">
    <path d="M-9,-0.96 L9,-0.96 9,0.96 -9,0.96  z" class="primitive"/>
  </g>
</g>
<g stroke="#000000" stroke-opacity="0.000" fill="#FFFFFF" id="img-ec367534-62">
  <g transform="translate(61.92,69.48)">
    <path d="M-9,-0.96 L9,-0.96 9,0.96 -9,0.96  z" class="primitive"/>
  </g>
</g>
<g stroke="#000000" stroke-opacity="0.000" fill="#FFFFFF" id="img-ec367534-63">
  <g transform="translate(38.88,38.28)">
    <path d="M-10.8,-0.96 L10.8,-0.96 10.8,0.96 -10.8,0.96  z" class="primitive"/>
  </g>
</g>
<g stroke="#000000" stroke-opacity="0.000" fill="#FFFFFF" id="img-ec367534-64">
  <g transform="translate(38.88,35.88)">
    <path d="M-10.8,-0.96 L10.8,-0.96 10.8,0.96 -10.8,0.96  z" class="primitive"/>
  </g>
</g>
<g stroke="#000000" stroke-opacity="0.000" fill="#FFFFFF" id="img-ec367534-65">
  <g transform="translate(38.88,33.48)">
    <path d="M-10.8,-0.96 L10.8,-0.96 10.8,0.96 -10.8,0.96  z" class="primitive"/>
  </g>
</g>
<g stroke="#000000" stroke-opacity="0.000" fill="#FFFFFF" id="img-ec367534-66">
  <g transform="translate(38.88,31.08)">
    <path d="M-9,-0.96 L9,-0.96 9,0.96 -9,0.96  z" class="primitive"/>
  </g>
</g>
<g stroke="#000000" stroke-opacity="0.000" fill="#FFFFFF" id="img-ec367534-67">
  <g transform="translate(94.32,79.08)">
    <path d="M-10.8,-0.96 L10.8,-0.96 10.8,0.96 -10.8,0.96  z" class="primitive"/>
  </g>
</g>
<g stroke="#000000" stroke-opacity="0.000" fill="#FFFFFF" id="img-ec367534-68">
  <g transform="translate(94.32,76.68)">
    <path d="M-10.8,-0.96 L10.8,-0.96 10.8,0.96 -10.8,0.96  z" class="primitive"/>
  </g>
</g>
<g stroke="#000000" stroke-opacity="0.000" fill="#FFFFFF" id="img-ec367534-69">
  <g transform="translate(94.32,74.28)">
    <path d="M-10.8,-0.96 L10.8,-0.96 10.8,0.96 -10.8,0.96  z" class="primitive"/>
  </g>
</g>
<g stroke="#000000" stroke-opacity="0.000" fill="#FFFFFF" id="img-ec367534-70">
  <g transform="translate(94.32,71.88)">
    <path d="M-9,-0.96 L9,-0.96 9,0.96 -9,0.96  z" class="primitive"/>
  </g>
</g>
<g stroke="#000000" stroke-opacity="0.000" fill="#FFFFFF" id="img-ec367534-71">
  <g transform="translate(94.32,69.48)">
    <path d="M-9,-0.96 L9,-0.96 9,0.96 -9,0.96  z" class="primitive"/>
  </g>
</g>
<g stroke="#000000" stroke-opacity="0.000" fill="#FFFFFF" id="img-ec367534-72">
  <g transform="translate(112.32,81.48)">
    <path d="M-10.8,-0.96 L10.8,-0.96 10.8,0.96 -10.8,0.96  z" class="primitive"/>
  </g>
</g>
<g stroke="#000000" stroke-opacity="0.000" fill="#FFFFFF" id="img-ec367534-73">
  <g transform="translate(112.32,79.08)">
    <path d="M-10.8,-0.96 L10.8,-0.96 10.8,0.96 -10.8,0.96  z" class="primitive"/>
  </g>
</g>
<g stroke="#000000" stroke-opacity="0.000" fill="#FFFFFF" id="img-ec367534-74">
  <g transform="translate(112.32,76.68)">
    <path d="M-10.8,-0.96 L10.8,-0.96 10.8,0.96 -10.8,0.96  z" class="primitive"/>
  </g>
</g>
<g stroke="#000000" stroke-opacity="0.000" fill="#FFFFFF" id="img-ec367534-75">
  <g transform="translate(112.32,74.28)">
    <path d="M-9,-0.96 L9,-0.96 9,0.96 -9,0.96  z" class="primitive"/>
  </g>
</g>
<g stroke="#000000" stroke-opacity="0.000" fill="#FFFFFF" id="img-ec367534-76">
  <g transform="translate(112.32,71.88)">
    <path d="M-9,-0.96 L9,-0.96 9,0.96 -9,0.96  z" class="primitive"/>
  </g>
</g>
<g stroke="#000000" stroke-opacity="0.000" fill="#FFFFFF" id="img-ec367534-77">
  <g transform="translate(112.32,69.48)">
    <path d="M-9,-0.96 L9,-0.96 9,0.96 -9,0.96  z" class="primitive"/>
  </g>
</g>
<g stroke="#000000" stroke-opacity="0.000" fill="#FFFFFF" id="img-ec367534-78">
  <g transform="translate(80.46,34.2)">
    <path d="M-9,-0.96 L9,-0.96 9,0.96 -9,0.96  z" class="primitive"/>
  </g>
</g>
<g stroke="#000000" stroke-opacity="0.000" fill="#FFFFFF" id="img-ec367534-79">
  <g transform="translate(80.46,31.8)">
    <path d="M-9,-0.96 L9,-0.96 9,0.96 -9,0.96  z" class="primitive"/>
  </g>
</g>
<g stroke="#000000" stroke-opacity="0.000" fill="#FFFFFF" id="img-ec367534-80">
  <g transform="translate(80.46,29.4)">
    <path d="M-9,-0.96 L9,-0.96 9,0.96 -9,0.96  z" class="primitive"/>
  </g>
</g>
<g stroke="#000000" stroke-opacity="0.000" fill="#FFFFFF" id="img-ec367534-81">
  <g transform="translate(80.46,72.6)">
    <path d="M-9,-0.96 L9,-0.96 9,0.96 -9,0.96  z" class="primitive"/>
  </g>
</g>
<g stroke="#000000" stroke-opacity="0.000" fill="#FFFFFF" id="img-ec367534-82">
  <g transform="translate(80.46,70.2)">
    <path d="M-9,-0.96 L9,-0.96 9,0.96 -9,0.96  z" class="primitive"/>
  </g>
</g>
<g stroke="#000000" stroke-opacity="0.000" fill="#FFFFFF" id="img-ec367534-83">
  <g transform="translate(80.46,67.8)">
    <path d="M-9,-0.96 L9,-0.96 9,0.96 -9,0.96  z" class="primitive"/>
  </g>
</g>
<g stroke="#000000" stroke-opacity="0.000" fill="#FFFFFF" id="img-ec367534-84">
  <g transform="translate(52.74,28.2)">
    <path d="M-9,-0.96 L9,-0.96 9,0.96 -9,0.96  z" class="primitive"/>
  </g>
</g>
<g stroke="#000000" stroke-opacity="0.000" fill="#FFFFFF" id="img-ec367534-85">
  <g transform="translate(52.74,25.8)">
    <path d="M-9,-0.96 L9,-0.96 9,0.96 -9,0.96  z" class="primitive"/>
  </g>
</g>
<g stroke="#000000" stroke-opacity="0.000" fill="#FFFFFF" id="img-ec367534-86">
  <g transform="translate(52.74,23.4)">
    <path d="M-9,-0.96 L9,-0.96 9,0.96 -9,0.96  z" class="primitive"/>
  </g>
</g>
<g font-family="sans-serif" fill="#DAA520" font-size="2.12" id="img-ec367534-87">
  <g transform="translate(94.32,35.4)">
    <g class="primitive">
      <text text-anchor="middle" dy="0.6em">V3: 1.035 pu</text>
    </g>
  </g>
</g>
<g font-family="sans-serif" fill="#DAA520" font-size="2.12" id="img-ec367534-88">
  <g transform="translate(94.32,33)">
    <g class="primitive">
      <text text-anchor="middle" dy="0.6em">V2: 1.036 pu</text>
    </g>
  </g>
</g>
<g font-family="sans-serif" fill="#DAA520" font-size="2.12" id="img-ec367534-89">
  <g transform="translate(94.32,30.6)">
    <g class="primitive">
      <text text-anchor="middle" dy="0.6em">V1: 1.049 pu</text>
    </g>
  </g>
</g>
<g fill="#000000" font-size="3.18" id="img-ec367534-90">
  <g transform="translate(94.32,22.2)">
    <g class="primitive">
      <text text-anchor="middle" dy="-0em">633 (10)</text>
    </g>
  </g>
</g>
<g font-family="sans-serif" fill="#DAA520" font-size="2.12" id="img-ec367534-91">
  <g transform="translate(74.52,95.4)">
    <g class="primitive">
      <text text-anchor="middle" dy="0.6em">V3: 1.03 pu</text>
    </g>
  </g>
</g>
<g font-family="sans-serif" fill="#DAA520" font-size="2.12" id="img-ec367534-92">
  <g transform="translate(74.52,93)">
    <g class="primitive">
      <text text-anchor="middle" dy="0.6em">V2: 1.037 pu</text>
    </g>
  </g>
</g>
<g font-family="sans-serif" fill="#DAA520" font-size="2.12" id="img-ec367534-93">
  <g transform="translate(74.52,90.6)">
    <g class="primitive">
      <text text-anchor="middle" dy="0.6em">V1: 1.047 pu</text>
    </g>
  </g>
</g>
<g fill="#000000" font-size="3.18" id="img-ec367534-94">
  <g transform="translate(74.52,82.2)">
    <g class="primitive">
      <text text-anchor="middle" dy="-0em">680 (2)</text>
    </g>
  </g>
</g>
<g font-family="sans-serif" fill="#DAA520" font-size="2.12" id="img-ec367534-95">
  <g transform="translate(59.4,61.8)">
    <g class="primitive">
      <text text-anchor="middle" dy="0.6em">V3: 1.033 pu</text>
    </g>
  </g>
</g>
<g font-family="sans-serif" fill="#DAA520" font-size="2.12" id="img-ec367534-96">
  <g transform="translate(59.4,59.4)">
    <g class="primitive">
      <text text-anchor="middle" dy="0.6em">V2: 1.035 pu</text>
    </g>
  </g>
</g>
<g font-family="sans-serif" fill="#8B008B" font-size="2.12" id="img-ec367534-97">
  <g transform="translate(59.4,57)">
    <g class="primitive">
      <text text-anchor="middle" dy="0.6em">V1: 1.05 pu</text>
    </g>
  </g>
</g>
<g font-family="sans-serif" fill="#000000" font-size="2.12" id="img-ec367534-98">
  <g transform="translate(59.4,54.6)">
    <g class="primitive">
      <text text-anchor="middle" dy="0.6em">S3: 0.0%</text>
    </g>
  </g>
</g>
<g font-family="sans-serif" fill="#000000" font-size="2.12" id="img-ec367534-99">
  <g transform="translate(59.4,52.2)">
    <g class="primitive">
      <text text-anchor="middle" dy="0.6em">S2: 0.0%</text>
    </g>
  </g>
</g>
<g font-family="sans-serif" fill="#000000" font-size="2.12" id="img-ec367534-100">
  <g transform="translate(59.4,49.8)">
    <g class="primitive">
      <text text-anchor="middle" dy="0.6em">S1: 0.0%</text>
    </g>
  </g>
</g>
<g fill="#000000" font-size="3.18" id="img-ec367534-101">
  <g transform="translate(59.4,41.4)">
    <g class="primitive">
      <text text-anchor="middle" dy="-0em">670 (13)</text>
    </g>
  </g>
</g>
<g font-family="sans-serif" fill="#DAA520" font-size="2.12" id="img-ec367534-102">
  <g transform="translate(21.6,97.8)">
    <g class="primitive">
      <text text-anchor="middle" dy="0.6em">V3: 1.03 pu</text>
    </g>
  </g>
</g>
<g font-family="sans-serif" fill="#DAA520" font-size="2.12" id="img-ec367534-103">
  <g transform="translate(21.6,95.4)">
    <g class="primitive">
      <text text-anchor="middle" dy="0.6em">V2: 1.037 pu</text>
    </g>
  </g>
</g>
<g font-family="sans-serif" fill="#DAA520" font-size="2.12" id="img-ec367534-104">
  <g transform="translate(21.6,93)">
    <g class="primitive">
      <text text-anchor="middle" dy="0.6em">V1: 1.047 pu</text>
    </g>
  </g>
</g>
<g font-family="sans-serif" fill="#000000" font-size="2.12" id="img-ec367534-105">
  <g transform="translate(21.6,90.6)">
    <g class="primitive">
      <text text-anchor="middle" dy="0.6em">S1: 100.0%</text>
    </g>
  </g>
</g>
<g fill="#000000" font-size="3.18" id="img-ec367534-106">
  <g transform="translate(21.6,82.2)">
    <g class="primitive">
      <text text-anchor="middle" dy="-0em">652 (4)</text>
    </g>
  </g>
</g>
<g font-family="sans-serif" fill="#4682B4" font-size="2.12" id="img-ec367534-107">
  <g transform="translate(6.48,76.2)">
    <g class="primitive">
      <text text-anchor="middle" dy="0.6em">V3: 1.03 pu</text>
    </g>
  </g>
</g>
<g font-family="sans-serif" fill="#DAA520" font-size="2.12" id="img-ec367534-108">
  <g transform="translate(6.48,73.8)">
    <g class="primitive">
      <text text-anchor="middle" dy="0.6em">V2: 1.037 pu</text>
    </g>
  </g>
</g>
<g font-family="sans-serif" fill="#DAA520" font-size="2.12" id="img-ec367534-109">
  <g transform="translate(6.48,71.4)">
    <g class="primitive">
      <text text-anchor="middle" dy="0.6em">V1: 1.047 pu</text>
    </g>
  </g>
</g>
<g font-family="sans-serif" fill="#000000" font-size="2.12" id="img-ec367534-110">
  <g transform="translate(6.48,69)">
    <g class="primitive">
      <text text-anchor="middle" dy="0.6em">S3: 57.6%</text>
    </g>
  </g>
</g>
<g fill="#000000" font-size="3.18" id="img-ec367534-111">
  <g transform="translate(6.48,60.6)">
    <g class="primitive">
      <text text-anchor="middle" dy="-0em">611 (7)</text>
    </g>
  </g>
</g>
<g font-family="sans-serif" fill="#DAA520" font-size="2.12" id="img-ec367534-112">
  <g transform="translate(117.18,42.6)">
    <g class="primitive">
      <text text-anchor="middle" dy="0.6em">V3: 1.031 pu</text>
    </g>
  </g>
</g>
<g font-family="sans-serif" fill="#DAA520" font-size="2.12" id="img-ec367534-113">
  <g transform="translate(117.18,40.2)">
    <g class="primitive">
      <text text-anchor="middle" dy="0.6em">V2: 1.037 pu</text>
    </g>
  </g>
</g>
<g font-family="sans-serif" fill="#DAA520" font-size="2.12" id="img-ec367534-114">
  <g transform="translate(117.18,37.8)">
    <g class="primitive">
      <text text-anchor="middle" dy="0.6em">V1: 1.047 pu</text>
    </g>
  </g>
</g>
<g font-family="sans-serif" fill="#000000" font-size="2.12" id="img-ec367534-115">
  <g transform="translate(117.18,35.4)">
    <g class="primitive">
      <text text-anchor="middle" dy="0.6em">S3: 0.0%</text>
    </g>
  </g>
</g>
<g font-family="sans-serif" fill="#000000" font-size="2.12" id="img-ec367534-116">
  <g transform="translate(117.18,33)">
    <g class="primitive">
      <text text-anchor="middle" dy="0.6em">S2: 0.0%</text>
    </g>
  </g>
</g>
<g font-family="sans-serif" fill="#000000" font-size="2.12" id="img-ec367534-117">
  <g transform="translate(117.18,30.6)">
    <g class="primitive">
      <text text-anchor="middle" dy="0.6em">S1: 0.0%</text>
    </g>
  </g>
</g>
<g fill="#000000" font-size="3.18" id="img-ec367534-118">
  <g transform="translate(117.18,22.2)">
    <g class="primitive">
      <text text-anchor="middle" dy="-0em">634 (3)</text>
    </g>
  </g>
</g>
<g font-family="sans-serif" fill="#DAA520" font-size="2.12" id="img-ec367534-119">
  <g transform="translate(11.34,40.2)">
    <g class="primitive">
      <text text-anchor="middle" dy="0.6em">V3: 1.034 pu</text>
    </g>
  </g>
</g>
<g font-family="sans-serif" fill="#DAA520" font-size="2.12" id="img-ec367534-120">
  <g transform="translate(11.34,37.8)">
    <g class="primitive">
      <text text-anchor="middle" dy="0.6em">V2: 1.035 pu</text>
    </g>
  </g>
</g>
<g font-family="sans-serif" fill="#DAA520" font-size="2.12" id="img-ec367534-121">
  <g transform="translate(11.34,35.4)">
    <g class="primitive">
      <text text-anchor="middle" dy="0.6em">V1: 1.05 pu</text>
    </g>
  </g>
</g>
<g font-family="sans-serif" fill="#000000" font-size="2.12" id="img-ec367534-122">
  <g transform="translate(11.34,33)">
    <g class="primitive">
      <text text-anchor="middle" dy="0.6em">S3: -0.0%</text>
    </g>
  </g>
</g>
<g font-family="sans-serif" fill="#000000" font-size="2.12" id="img-ec367534-123">
  <g transform="translate(11.34,30.6)">
    <g class="primitive">
      <text text-anchor="middle" dy="0.6em">S2: -0.0%</text>
    </g>
  </g>
</g>
<g fill="#000000" font-size="3.18" id="img-ec367534-124">
  <g transform="translate(11.34,22.2)">
    <g class="primitive">
      <text text-anchor="middle" dy="-0em">646 (14)</text>
    </g>
  </g>
</g>
<g font-family="sans-serif" fill="#DAA520" font-size="2.12" id="img-ec367534-125">
  <g transform="translate(59.4,35.4)">
    <g class="primitive">
      <text text-anchor="middle" dy="0.6em">V3: 1.035 pu</text>
    </g>
  </g>
</g>
<g font-family="sans-serif" fill="#DAA520" font-size="2.12" id="img-ec367534-126">
  <g transform="translate(59.4,33)">
    <g class="primitive">
      <text text-anchor="middle" dy="0.6em">V2: 1.036 pu</text>
    </g>
  </g>
</g>
<g font-family="sans-serif" fill="#DAA520" font-size="2.12" id="img-ec367534-127">
  <g transform="translate(59.4,30.6)">
    <g class="primitive">
      <text text-anchor="middle" dy="0.6em">V1: 1.049 pu</text>
    </g>
  </g>
</g>
<g fill="#000000" font-size="3.18" id="img-ec367534-128">
  <g transform="translate(59.4,22.2)">
    <g class="primitive">
      <text text-anchor="middle" dy="-0em">632 (9)</text>
    </g>
  </g>
</g>
<g font-family="sans-serif" fill="#DAA520" font-size="2.12" id="img-ec367534-129">
  <g transform="translate(28.8,73.8)">
    <g class="primitive">
      <text text-anchor="middle" dy="0.6em">V3: 1.03 pu</text>
    </g>
  </g>
</g>
<g font-family="sans-serif" fill="#DAA520" font-size="2.12" id="img-ec367534-130">
  <g transform="translate(28.8,71.4)">
    <g class="primitive">
      <text text-anchor="middle" dy="0.6em">V2: 1.037 pu</text>
    </g>
  </g>
</g>
<g font-family="sans-serif" fill="#DAA520" font-size="2.12" id="img-ec367534-131">
  <g transform="translate(28.8,69)">
    <g class="primitive">
      <text text-anchor="middle" dy="0.6em">V1: 1.047 pu</text>
    </g>
  </g>
</g>
<g fill="#000000" font-size="3.18" id="img-ec367534-132">
  <g transform="translate(28.8,60.6)">
    <g class="primitive">
      <text text-anchor="middle" dy="-0em">684 (11)</text>
    </g>
  </g>
</g>
<g font-family="sans-serif" fill="#228B22" font-size="2.12" id="img-ec367534-133">
  <g transform="translate(66.6,18.6)">
    <g class="primitive">
      <text text-anchor="middle" dy="0.6em">Gen: source</text>
    </g>
  </g>
</g>
<g font-family="sans-serif" fill="#DAA520" font-size="2.12" id="img-ec367534-134">
  <g transform="translate(66.6,16.2)">
    <g class="primitive">
      <text text-anchor="middle" dy="0.6em">V3: 1.049 pu</text>
    </g>
  </g>
</g>
<g font-family="sans-serif" fill="#DAA520" font-size="2.12" id="img-ec367534-135">
  <g transform="translate(66.6,13.8)">
    <g class="primitive">
      <text text-anchor="middle" dy="0.6em">V2: 1.049 pu</text>
    </g>
  </g>
</g>
<g font-family="sans-serif" fill="#DAA520" font-size="2.12" id="img-ec367534-136">
  <g transform="translate(66.6,11.4)">
    <g class="primitive">
      <text text-anchor="middle" dy="0.6em">V1: 1.049 pu</text>
    </g>
  </g>
</g>
<g fill="#000000" font-size="3.18" id="img-ec367534-137">
  <g transform="translate(66.6,3)">
    <g class="primitive">
      <text text-anchor="middle" dy="-0em">rg60 (6)</text>
    </g>
  </g>
</g>
<g font-family="sans-serif" fill="#DAA520" font-size="2.12" id="img-ec367534-138">
  <g transform="translate(61.92,81)">
    <g class="primitive">
      <text text-anchor="middle" dy="0.6em">V3: 1.03 pu</text>
    </g>
  </g>
</g>
<g font-family="sans-serif" fill="#DAA520" font-size="2.12" id="img-ec367534-139">
  <g transform="translate(61.92,78.6)">
    <g class="primitive">
      <text text-anchor="middle" dy="0.6em">V2: 1.037 pu</text>
    </g>
  </g>
</g>
<g font-family="sans-serif" fill="#DAA520" font-size="2.12" id="img-ec367534-140">
  <g transform="translate(61.92,76.2)">
    <g class="primitive">
      <text text-anchor="middle" dy="0.6em">V1: 1.047 pu</text>
    </g>
  </g>
</g>
<g font-family="sans-serif" fill="#000000" font-size="2.12" id="img-ec367534-141">
  <g transform="translate(61.92,73.8)">
    <g class="primitive">
      <text text-anchor="middle" dy="0.6em">S3: 100.0%</text>
    </g>
  </g>
</g>
<g font-family="sans-serif" fill="#000000" font-size="2.12" id="img-ec367534-142">
  <g transform="translate(61.92,71.4)">
    <g class="primitive">
      <text text-anchor="middle" dy="0.6em">S2: 100.0%</text>
    </g>
  </g>
</g>
<g font-family="sans-serif" fill="#000000" font-size="2.12" id="img-ec367534-143">
  <g transform="translate(61.92,69)">
    <g class="primitive">
      <text text-anchor="middle" dy="0.6em">S1: 100.0%</text>
    </g>
  </g>
</g>
<g fill="#000000" font-size="3.18" id="img-ec367534-144">
  <g transform="translate(61.92,60.6)">
    <g class="primitive">
      <text text-anchor="middle" dy="-0em">671 (1)</text>
    </g>
  </g>
</g>
<g font-family="sans-serif" fill="#DAA520" font-size="2.12" id="img-ec367534-145">
  <g transform="translate(38.88,37.8)">
    <g class="primitive">
      <text text-anchor="middle" dy="0.6em">V3: 1.035 pu</text>
    </g>
  </g>
</g>
<g font-family="sans-serif" fill="#DAA520" font-size="2.12" id="img-ec367534-146">
  <g transform="translate(38.88,35.4)">
    <g class="primitive">
      <text text-anchor="middle" dy="0.6em">V2: 1.036 pu</text>
    </g>
  </g>
</g>
<g font-family="sans-serif" fill="#DAA520" font-size="2.12" id="img-ec367534-147">
  <g transform="translate(38.88,33)">
    <g class="primitive">
      <text text-anchor="middle" dy="0.6em">V1: 1.049 pu</text>
    </g>
  </g>
</g>
<g font-family="sans-serif" fill="#000000" font-size="2.12" id="img-ec367534-148">
  <g transform="translate(38.88,30.6)">
    <g class="primitive">
      <text text-anchor="middle" dy="0.6em">S2: 33.0%</text>
    </g>
  </g>
</g>
<g fill="#000000" font-size="3.18" id="img-ec367534-149">
  <g transform="translate(38.88,22.2)">
    <g class="primitive">
      <text text-anchor="middle" dy="-0em">645 (8)</text>
    </g>
  </g>
</g>
<g font-family="sans-serif" fill="#DAA520" font-size="2.12" id="img-ec367534-150">
  <g transform="translate(94.32,78.6)">
    <g class="primitive">
      <text text-anchor="middle" dy="0.6em">V3: 1.03 pu</text>
    </g>
  </g>
</g>
<g font-family="sans-serif" fill="#DAA520" font-size="2.12" id="img-ec367534-151">
  <g transform="translate(94.32,76.2)">
    <g class="primitive">
      <text text-anchor="middle" dy="0.6em">V2: 1.037 pu</text>
    </g>
  </g>
</g>
<g font-family="sans-serif" fill="#DAA520" font-size="2.12" id="img-ec367534-152">
  <g transform="translate(94.32,73.8)">
    <g class="primitive">
      <text text-anchor="middle" dy="0.6em">V1: 1.047 pu</text>
    </g>
  </g>
</g>
<g font-family="sans-serif" fill="#000000" font-size="2.12" id="img-ec367534-153">
  <g transform="translate(94.32,71.4)">
    <g class="primitive">
      <text text-anchor="middle" dy="0.6em">S3: 100.0%</text>
    </g>
  </g>
</g>
<g font-family="sans-serif" fill="#000000" font-size="2.12" id="img-ec367534-154">
  <g transform="translate(94.32,69)">
    <g class="primitive">
      <text text-anchor="middle" dy="0.6em">S1: 100.0%</text>
    </g>
  </g>
</g>
<g fill="#000000" font-size="3.18" id="img-ec367534-155">
  <g transform="translate(94.32,60.6)">
    <g class="primitive">
      <text text-anchor="middle" dy="-0em">692 (12)</text>
    </g>
  </g>
</g>
<g font-family="sans-serif" fill="#DAA520" font-size="2.12" id="img-ec367534-156">
  <g transform="translate(112.32,81)">
    <g class="primitive">
      <text text-anchor="middle" dy="0.6em">V3: 1.031 pu</text>
    </g>
  </g>
</g>
<g font-family="sans-serif" fill="#DAA520" font-size="2.12" id="img-ec367534-157">
  <g transform="translate(112.32,78.6)">
    <g class="primitive">
      <text text-anchor="middle" dy="0.6em">V2: 1.037 pu</text>
    </g>
  </g>
</g>
<g font-family="sans-serif" fill="#DAA520" font-size="2.12" id="img-ec367534-158">
  <g transform="translate(112.32,76.2)">
    <g class="primitive">
      <text text-anchor="middle" dy="0.6em">V1: 1.047 pu</text>
    </g>
  </g>
</g>
<g font-family="sans-serif" fill="#000000" font-size="2.12" id="img-ec367534-159">
  <g transform="translate(112.32,73.8)">
    <g class="primitive">
      <text text-anchor="middle" dy="0.6em">S3: 65.9%</text>
    </g>
  </g>
</g>
<g font-family="sans-serif" fill="#000000" font-size="2.12" id="img-ec367534-160">
  <g transform="translate(112.32,71.4)">
    <g class="primitive">
      <text text-anchor="middle" dy="0.6em">S2: 65.9%</text>
    </g>
  </g>
</g>
<g font-family="sans-serif" fill="#000000" font-size="2.12" id="img-ec367534-161">
  <g transform="translate(112.32,69)">
    <g class="primitive">
      <text text-anchor="middle" dy="0.6em">S1: 65.9%</text>
    </g>
  </g>
</g>
<g fill="#000000" font-size="3.18" id="img-ec367534-162">
  <g transform="translate(112.32,60.6)">
    <g class="primitive">
      <text text-anchor="middle" dy="-0em">675 (5)</text>
    </g>
  </g>
</g>
<g font-family="sans-serif" fill="#800080" font-size="2.12" id="img-ec367534-163">
  <g transform="translate(80.46,34.2)">
    <g class="primitive">
      <text text-anchor="middle" dy="0.35em">φ3: 90.7%</text>
    </g>
  </g>
</g>
<g font-family="sans-serif" fill="#4682B4" font-size="2.12" id="img-ec367534-164">
  <g transform="translate(80.46,31.8)">
    <g class="primitive">
      <text text-anchor="middle" dy="0.35em">φ2: 48.5%</text>
    </g>
  </g>
</g>
<g font-family="sans-serif" fill="#800080" font-size="2.12" id="img-ec367534-165">
  <g transform="translate(80.46,29.4)">
    <g class="primitive">
      <text text-anchor="middle" dy="0.35em">φ1: 100.0%</text>
    </g>
  </g>
</g>
<g font-family="sans-serif" fill="#800080" font-size="2.12" id="img-ec367534-166">
  <g transform="translate(80.46,72.6)">
    <g class="primitive">
      <text text-anchor="middle" dy="0.35em">φ3: 100.0%</text>
    </g>
  </g>
</g>
<g font-family="sans-serif" fill="#4682B4" font-size="2.12" id="img-ec367534-167">
  <g transform="translate(80.46,70.2)">
    <g class="primitive">
      <text text-anchor="middle" dy="0.35em">φ2: 0.0%</text>
    </g>
  </g>
</g>
<g font-family="sans-serif" fill="#4682B4" font-size="2.12" id="img-ec367534-168">
  <g transform="translate(80.46,67.8)">
    <g class="primitive">
      <text text-anchor="middle" dy="0.35em">φ1: 0.0%</text>
    </g>
  </g>
</g>
<g font-family="sans-serif" fill="#4682B4" font-size="2.12" id="img-ec367534-169">
  <g transform="translate(52.74,28.2)">
    <g class="primitive">
      <text text-anchor="middle" dy="0.35em">φ3: 48.5%</text>
    </g>
  </g>
</g>
<g font-family="sans-serif" fill="#800080" font-size="2.12" id="img-ec367534-170">
  <g transform="translate(52.74,25.8)">
    <g class="primitive">
      <text text-anchor="middle" dy="0.35em">φ2: 100.0%</text>
    </g>
  </g>
</g>
<g font-family="sans-serif" fill="#4682B4" font-size="2.12" id="img-ec367534-171">
  <g transform="translate(52.74,23.4)">
    <g class="primitive">
      <text text-anchor="middle" dy="0.35em">φ1: 0.0%</text>
    </g>
  </g>
</g>
<g fill="#000000" font-size="2.47" id="img-ec367534-172">
  <g transform="translate(140.4,63.36)">
    <g class="primitive">
      <text dy="0.35em">75-100% shed</text>
    </g>
  </g>
</g>
<g stroke-width="0.2" stroke="#000000" fill="#ADCFEB" id="img-ec367534-173">
  <g transform="translate(136.44,63.36)">
    <circle cx="0" cy="0" r="1.44" class="primitive"/>
  </g>
</g>
<g fill="#000000" font-size="2.47" id="img-ec367534-174">
  <g transform="translate(140.4,59.52)">
    <g class="primitive">
      <text dy="0.35em">50-75% shed</text>
    </g>
  </g>
</g>
<g stroke-width="0.2" stroke="#000000" fill="#5C9FD6" id="img-ec367534-175">
  <g transform="translate(136.44,59.52)">
    <circle cx="0" cy="0" r="1.44" class="primitive"/>
  </g>
</g>
<g fill="#000000" font-size="2.47" id="img-ec367534-176">
  <g transform="translate(140.4,55.68)">
    <g class="primitive">
      <text dy="0.35em">25-50% shed</text>
    </g>
  </g>
</g>
<g stroke-width="0.2" stroke="#000000" fill="#2E7AB8" id="img-ec367534-177">
  <g transform="translate(136.44,55.68)">
    <circle cx="0" cy="0" r="1.44" class="primitive"/>
  </g>
</g>
<g fill="#000000" font-size="2.47" id="img-ec367534-178">
  <g transform="translate(140.4,51.84)">
    <g class="primitive">
      <text dy="0.35em">0-25% shed</text>
    </g>
  </g>
</g>
<g stroke-width="0.2" stroke="#000000" fill="#1F517A" id="img-ec367534-179">
  <g transform="translate(136.44,51.84)">
    <circle cx="0" cy="0" r="1.44" class="primitive"/>
  </g>
</g>
<g fill="#000000" font-size="2.82" id="img-ec367534-180">
  <g transform="translate(135,48)">
    <g class="primitive">
      <text dy="0.6em">Load Bus (% shed):</text>
    </g>
  </g>
</g>
<g fill="#000000" font-size="2.47" id="img-ec367534-181">
  <g transform="translate(139.5,44.16)">
    <g class="primitive">
      <text dy="0.35em">Outside 0.95-1.05 pu</text>
    </g>
  </g>
</g>
<g fill="#8B008B" font-size="2.47" id="img-ec367534-182">
  <g transform="translate(135,44.16)">
    <g class="primitive">
      <text dy="0.35em">V:</text>
    </g>
  </g>
</g>
<g fill="#000000" font-size="2.47" id="img-ec367534-183">
  <g transform="translate(139.5,40.32)">
    <g class="primitive">
      <text dy="0.35em">0.95-0.97 or 1.03-1.05 pu</text>
    </g>
  </g>
</g>
<g fill="#DAA520" font-size="2.47" id="img-ec367534-184">
  <g transform="translate(135,40.32)">
    <g class="primitive">
      <text dy="0.35em">V:</text>
    </g>
  </g>
</g>
<g fill="#000000" font-size="2.47" id="img-ec367534-185">
  <g transform="translate(139.5,36.48)">
    <g class="primitive">
      <text dy="0.35em">0.97-1.03 pu (normal)</text>
    </g>
  </g>
</g>
<g fill="#4682B4" font-size="2.47" id="img-ec367534-186">
  <g transform="translate(135,36.48)">
    <g class="primitive">
      <text dy="0.35em">V:</text>
    </g>
  </g>
</g>
<g fill="#000000" font-size="2.82" id="img-ec367534-187">
  <g transform="translate(135,32.64)">
    <g class="primitive">
      <text dy="0.6em">Bus Voltage:</text>
    </g>
  </g>
</g>
<g fill="#000000" font-size="2.47" id="img-ec367534-188">
  <g transform="translate(144,28.8)">
    <g class="primitive">
      <text dy="0.35em">Open</text>
    </g>
  </g>
</g>
<g stroke-dasharray="2,1" stroke-width="1.2" stroke="#808080" id="img-ec367534-189">
  <g transform="translate(138.6,28.8)">
    <path fill="none" d="M-3.6,0 L3.6,0 " class="primitive"/>
  </g>
</g>
<g fill="#000000" font-size="2.47" id="img-ec367534-190">
  <g transform="translate(144,24.96)">
    <g class="primitive">
      <text dy="0.35em">>100% (violation)</text>
    </g>
  </g>
</g>
<g stroke-dasharray="2,1" stroke-width="1.2" stroke="#FF0000" id="img-ec367534-191">
  <g transform="translate(138.6,24.96)">
    <path fill="none" d="M-3.6,0 L3.6,0 " class="primitive"/>
  </g>
</g>
<g fill="#000000" font-size="2.47" id="img-ec367534-192">
  <g transform="translate(144,21.12)">
    <g class="primitive">
      <text dy="0.35em">80-100%</text>
    </g>
  </g>
</g>
<g stroke-dasharray="2,1" stroke-width="1.2" stroke="#800080" id="img-ec367534-193">
  <g transform="translate(138.6,21.12)">
    <path fill="none" d="M-3.6,0 L3.6,0 " class="primitive"/>
  </g>
</g>
<g fill="#000000" font-size="2.47" id="img-ec367534-194">
  <g transform="translate(144,17.28)">
    <g class="primitive">
      <text dy="0.35em">50-80%</text>
    </g>
  </g>
</g>
<g stroke-dasharray="2,1" stroke-width="1.2" stroke="#008B8B" id="img-ec367534-195">
  <g transform="translate(138.6,17.28)">
    <path fill="none" d="M-3.6,0 L3.6,0 " class="primitive"/>
  </g>
</g>
<g fill="#000000" font-size="2.47" id="img-ec367534-196">
  <g transform="translate(144,13.44)">
    <g class="primitive">
      <text dy="0.35em">Under 50%</text>
    </g>
  </g>
</g>
<g stroke-dasharray="2,1" stroke-width="1.2" stroke="#4682B4" id="img-ec367534-197">
  <g transform="translate(138.6,13.44)">
    <path fill="none" d="M-3.6,0 L3.6,0 " class="primitive"/>
  </g>
</g>
<g fill="#000000" font-size="2.82" id="img-ec367534-198">
  <g transform="translate(135,9.6)">
    <g class="primitive">
      <text dy="0.6em">Switch Utilization:</text>
    </g>
  </g>
</g>
<g stroke="#A9A9A9" fill="#808080" id="img-ec367534-199">
  <g transform="translate(94.32,26.4)">
    <circle cx="0" cy="0" r="2.16" class="primitive"/>
  </g>
</g>
<g stroke="#A9A9A9" fill="#808080" id="img-ec367534-200">
  <g transform="translate(81.72,86.4)">
    <circle cx="0" cy="0" r="2.16" class="primitive"/>
  </g>
</g>
<g stroke-width="0.3" stroke="#000000" fill="#1F517A" id="img-ec367534-201">
  <g transform="translate(66.6,45.6)">
    <circle cx="0" cy="0" r="3.24" class="primitive"/>
  </g>
</g>
<g stroke-width="0.3" stroke="#000000" fill="#ADCFEB" id="img-ec367534-202">
  <g transform="translate(28.8,86.4)">
    <circle cx="0" cy="0" r="3.24" class="primitive"/>
  </g>
</g>
<g stroke-width="0.3" stroke="#000000" fill="#579CD5" id="img-ec367534-203">
  <g transform="translate(13.68,64.8)">
    <circle cx="0" cy="0" r="3.24" class="primitive"/>
  </g>
</g>
<g stroke-width="0.3" stroke="#000000" fill="#1F517A" id="img-ec367534-204">
  <g transform="translate(119.52,26.4)">
    <circle cx="0" cy="0" r="3.24" class="primitive"/>
  </g>
</g>
<g stroke-width="0.3" stroke="#000000" fill="#1F517A" id="img-ec367534-205">
  <g transform="translate(13.68,26.4)">
    <circle cx="0" cy="0" r="3.24" class="primitive"/>
  </g>
</g>
<g stroke="#A9A9A9" fill="#808080" id="img-ec367534-206">
  <g transform="translate(66.6,26.4)">
    <circle cx="0" cy="0" r="2.16" class="primitive"/>
  </g>
</g>
<g stroke="#A9A9A9" fill="#808080" id="img-ec367534-207">
  <g transform="translate(28.8,64.8)">
    <circle cx="0" cy="0" r="2.16" class="primitive"/>
  </g>
</g>
<g stroke="#A9A9A9" fill="#808080" id="img-ec367534-208">
  <g transform="translate(66.6,7.2)">
    <circle cx="0" cy="0" r="2.16" class="primitive"/>
  </g>
</g>
<g stroke-width="0.3" stroke="#000000" fill="#ADCFEB" id="img-ec367534-209">
  <g transform="translate(66.6,64.8)">
    <circle cx="0" cy="0" r="3.24" class="primitive"/>
  </g>
</g>
<g stroke-width="0.3" stroke="#000000" fill="#2F7EBE" id="img-ec367534-210">
  <g transform="translate(38.88,26.4)">
    <circle cx="0" cy="0" r="3.24" class="primitive"/>
  </g>
</g>
<g stroke-width="0.3" stroke="#000000" fill="#ADCFEB" id="img-ec367534-211">
  <g transform="translate(94.32,64.8)">
    <circle cx="0" cy="0" r="3.24" class="primitive"/>
  </g>
</g>
<g stroke-width="0.3" stroke="#000000" fill="#68A6D9" id="img-ec367534-212">
  <g transform="translate(119.52,64.8)">
    <circle cx="0" cy="0" r="3.24" class="primitive"/>
  </g>
</g>
</svg>
