<?xml version="1.0" encoding="utf-8"?>
<svg xmlns="http://www.w3.org/2000/svg" xmlns:xlink="http://www.w3.org/1999/xlink" width="600" height="400" viewBox="0 0 2400 1600">
<defs>
  <clipPath id="clip730">
    <rect x="0" y="0" width="2400" height="1600"/>
  </clipPath>
</defs>
<path clip-path="url(#clip730)" d="M0 1600 L2400 1600 L2400 0 L0 0  Z" fill="#ffffff" fill-rule="evenodd" fill-opacity="1"/>
<defs>
  <clipPath id="clip731">
    <rect x="480" y="0" width="1681" height="1600"/>
  </clipPath>
</defs>
<path clip-path="url(#clip730)" d="M264.287 1423.18 L2352.76 1423.18 L2352.76 123.472 L264.287 123.472  Z" fill="#ffffff" fill-rule="evenodd" fill-opacity="1"/>
<defs>
  <clipPath id="clip732">
    <rect x="264" y="123" width="2089" height="1301"/>
  </clipPath>
</defs>
<polyline clip-path="url(#clip732)" style="stroke:#000000; stroke-linecap:round; stroke-linejoin:round; stroke-width:2; stroke-opacity:0.1; fill:none" points="542.312,1423.18 542.312,123.472 "/>
<polyline clip-path="url(#clip732)" style="stroke:#000000; stroke-linecap:round; stroke-linejoin:round; stroke-width:2; stroke-opacity:0.1; fill:none" points="980.146,1423.18 980.146,123.472 "/>
<polyline clip-path="url(#clip732)" style="stroke:#000000; stroke-linecap:round; stroke-linejoin:round; stroke-width:2; stroke-opacity:0.1; fill:none" points="1417.98,1423.18 1417.98,123.472 "/>
<polyline clip-path="url(#clip732)" style="stroke:#000000; stroke-linecap:round; stroke-linejoin:round; stroke-width:2; stroke-opacity:0.1; fill:none" points="1855.81,1423.18 1855.81,123.472 "/>
<polyline clip-path="url(#clip732)" style="stroke:#000000; stroke-linecap:round; stroke-linejoin:round; stroke-width:2; stroke-opacity:0.1; fill:none" points="2293.65,1423.18 2293.65,123.472 "/>
<polyline clip-path="url(#clip732)" style="stroke:#000000; stroke-linecap:round; stroke-linejoin:round; stroke-width:2; stroke-opacity:0.1; fill:none" points="264.287,1301.26 2352.76,1301.26 "/>
<polyline clip-path="url(#clip732)" style="stroke:#000000; stroke-linecap:round; stroke-linejoin:round; stroke-width:2; stroke-opacity:0.1; fill:none" points="264.287,1122.9 2352.76,1122.9 "/>
<polyline clip-path="url(#clip732)" style="stroke:#000000; stroke-linecap:round; stroke-linejoin:round; stroke-width:2; stroke-opacity:0.1; fill:none" points="264.287,944.547 2352.76,944.547 "/>
<polyline clip-path="url(#clip732)" style="stroke:#000000; stroke-linecap:round; stroke-linejoin:round; stroke-width:2; stroke-opacity:0.1; fill:none" points="264.287,766.193 2352.76,766.193 "/>
<polyline clip-path="url(#clip732)" style="stroke:#000000; stroke-linecap:round; stroke-linejoin:round; stroke-width:2; stroke-opacity:0.1; fill:none" points="264.287,587.839 2352.76,587.839 "/>
<polyline clip-path="url(#clip732)" style="stroke:#000000; stroke-linecap:round; stroke-linejoin:round; stroke-width:2; stroke-opacity:0.1; fill:none" points="264.287,409.484 2352.76,409.484 "/>
<polyline clip-path="url(#clip732)" style="stroke:#000000; stroke-linecap:round; stroke-linejoin:round; stroke-width:2; stroke-opacity:0.1; fill:none" points="264.287,231.13 2352.76,231.13 "/>
<polyline clip-path="url(#clip730)" style="stroke:#000000; stroke-linecap:round; stroke-linejoin:round; stroke-width:4; stroke-opacity:1; fill:none" points="264.287,1423.18 2352.76,1423.18 "/>
<polyline clip-path="url(#clip730)" style="stroke:#000000; stroke-linecap:round; stroke-linejoin:round; stroke-width:4; stroke-opacity:1; fill:none" points="542.312,1423.18 542.312,1404.28 "/>
<polyline clip-path="url(#clip730)" style="stroke:#000000; stroke-linecap:round; stroke-linejoin:round; stroke-width:4; stroke-opacity:1; fill:none" points="980.146,1423.18 980.146,1404.28 "/>
<polyline clip-path="url(#clip730)" style="stroke:#000000; stroke-linecap:round; stroke-linejoin:round; stroke-width:4; stroke-opacity:1; fill:none" points="1417.98,1423.18 1417.98,1404.28 "/>
<polyline clip-path="url(#clip730)" style="stroke:#000000; stroke-linecap:round; stroke-linejoin:round; stroke-width:4; stroke-opacity:1; fill:none" points="1855.81,1423.18 1855.81,1404.28 "/>
<polyline clip-path="url(#clip730)" style="stroke:#000000; stroke-linecap:round; stroke-linejoin:round; stroke-width:4; stroke-opacity:1; fill:none" points="2293.65,1423.18 2293.65,1404.28 "/>
<path clip-path="url(#clip730)" d="M536.965 1481.64 L553.284 1481.64 L553.284 1485.58 L531.34 1485.58 L531.34 1481.64 Q534.002 1478.89 538.585 1474.26 Q543.192 1469.61 544.372 1468.27 Q546.618 1465.74 547.497 1464.01 Q548.4 1462.25 548.4 1460.56 Q548.4 1457.8 546.455 1456.07 Q544.534 1454.33 541.432 1454.33 Q539.233 1454.33 536.78 1455.09 Q534.349 1455.86 531.571 1457.41 L531.571 1452.69 Q534.395 1451.55 536.849 1450.97 Q539.303 1450.39 541.34 1450.39 Q546.71 1450.39 549.905 1453.08 Q553.099 1455.77 553.099 1460.26 Q553.099 1462.39 552.289 1464.31 Q551.502 1466.2 549.395 1468.8 Q548.817 1469.47 545.715 1472.69 Q542.613 1475.88 536.965 1481.64 Z" fill="#000000" fill-rule="nonzero" fill-opacity="1" /><path clip-path="url(#clip730)" d="M983.155 1455.09 L971.35 1473.54 L983.155 1473.54 L983.155 1455.09 M981.928 1451.02 L987.808 1451.02 L987.808 1473.54 L992.739 1473.54 L992.739 1477.43 L987.808 1477.43 L987.808 1485.58 L983.155 1485.58 L983.155 1477.43 L967.554 1477.43 L967.554 1472.92 L981.928 1451.02 Z" fill="#000000" fill-rule="nonzero" fill-opacity="1" /><path clip-path="url(#clip730)" d="M1418.39 1466.44 Q1415.24 1466.44 1413.39 1468.59 Q1411.56 1470.74 1411.56 1474.49 Q1411.56 1478.22 1413.39 1480.39 Q1415.24 1482.55 1418.39 1482.55 Q1421.53 1482.55 1423.36 1480.39 Q1425.21 1478.22 1425.21 1474.49 Q1425.21 1470.74 1423.36 1468.59 Q1421.53 1466.44 1418.39 1466.44 M1427.67 1451.78 L1427.67 1456.04 Q1425.91 1455.21 1424.1 1454.77 Q1422.32 1454.33 1420.56 1454.33 Q1415.93 1454.33 1413.48 1457.45 Q1411.05 1460.58 1410.7 1466.9 Q1412.07 1464.89 1414.13 1463.82 Q1416.19 1462.73 1418.66 1462.73 Q1423.87 1462.73 1426.88 1465.9 Q1429.91 1469.05 1429.91 1474.49 Q1429.91 1479.82 1426.76 1483.03 Q1423.62 1486.25 1418.39 1486.25 Q1412.39 1486.25 1409.22 1481.67 Q1406.05 1477.06 1406.05 1468.33 Q1406.05 1460.14 1409.94 1455.28 Q1413.83 1450.39 1420.38 1450.39 Q1422.14 1450.39 1423.92 1450.74 Q1425.72 1451.09 1427.67 1451.78 Z" fill="#000000" fill-rule="nonzero" fill-opacity="1" /><path clip-path="url(#clip730)" d="M1855.81 1469.17 Q1852.48 1469.17 1850.56 1470.95 Q1848.66 1472.73 1848.66 1475.86 Q1848.66 1478.98 1850.56 1480.77 Q1852.48 1482.55 1855.81 1482.55 Q1859.15 1482.55 1861.07 1480.77 Q1862.99 1478.96 1862.99 1475.86 Q1862.99 1472.73 1861.07 1470.95 Q1859.17 1469.17 1855.81 1469.17 M1851.14 1467.18 Q1848.13 1466.44 1846.44 1464.38 Q1844.77 1462.32 1844.77 1459.35 Q1844.77 1455.21 1847.71 1452.8 Q1850.68 1450.39 1855.81 1450.39 Q1860.98 1450.39 1863.92 1452.8 Q1866.86 1455.21 1866.86 1459.35 Q1866.86 1462.32 1865.17 1464.38 Q1863.5 1466.44 1860.51 1467.18 Q1863.89 1467.96 1865.77 1470.26 Q1867.67 1472.55 1867.67 1475.86 Q1867.67 1480.88 1864.59 1483.57 Q1861.53 1486.25 1855.81 1486.25 Q1850.1 1486.25 1847.02 1483.57 Q1843.96 1480.88 1843.96 1475.86 Q1843.96 1472.55 1845.86 1470.26 Q1847.76 1467.96 1851.14 1467.18 M1849.43 1459.79 Q1849.43 1462.48 1851.09 1463.98 Q1852.78 1465.49 1855.81 1465.49 Q1858.82 1465.49 1860.51 1463.98 Q1862.23 1462.48 1862.23 1459.79 Q1862.23 1457.11 1860.51 1455.6 Q1858.82 1454.1 1855.81 1454.1 Q1852.78 1454.1 1851.09 1455.6 Q1849.43 1457.11 1849.43 1459.79 Z" fill="#000000" fill-rule="nonzero" fill-opacity="1" /><path clip-path="url(#clip730)" d="M2268.34 1481.64 L2275.97 1481.64 L2275.97 1455.28 L2267.66 1456.95 L2267.66 1452.69 L2275.93 1451.02 L2280.6 1451.02 L2280.6 1481.64 L2288.24 1481.64 L2288.24 1485.58 L2268.34 1485.58 L2268.34 1481.64 Z" fill="#000000" fill-rule="nonzero" fill-opacity="1" /><path clip-path="url(#clip730)" d="M2307.69 1454.1 Q2304.08 1454.1 2302.25 1457.66 Q2300.44 1461.2 2300.44 1468.33 Q2300.44 1475.44 2302.25 1479.01 Q2304.08 1482.55 2307.69 1482.55 Q2311.32 1482.55 2313.13 1479.01 Q2314.96 1475.44 2314.96 1468.33 Q2314.96 1461.2 2313.13 1457.66 Q2311.32 1454.1 2307.69 1454.1 M2307.69 1450.39 Q2313.5 1450.39 2316.55 1455 Q2319.63 1459.58 2319.63 1468.33 Q2319.63 1477.06 2316.55 1481.67 Q2313.5 1486.25 2307.69 1486.25 Q2301.88 1486.25 2298.8 1481.67 Q2295.74 1477.06 2295.74 1468.33 Q2295.74 1459.58 2298.8 1455 Q2301.88 1450.39 2307.69 1450.39 Z" fill="#000000" fill-rule="nonzero" fill-opacity="1" /><path clip-path="url(#clip730)" d="M1176.24 1520.52 L1182.67 1520.52 L1182.67 1568.04 L1176.24 1568.04 L1176.24 1520.52 Z" fill="#000000" fill-rule="nonzero" fill-opacity="1" /><path clip-path="url(#clip730)" d="M1201 1522.27 L1201 1532.4 L1213.07 1532.4 L1213.07 1536.95 L1201 1536.95 L1201 1556.3 Q1201 1560.66 1202.18 1561.9 Q1203.39 1563.14 1207.05 1563.14 L1213.07 1563.14 L1213.07 1568.04 L1207.05 1568.04 Q1200.27 1568.04 1197.69 1565.53 Q1195.12 1562.98 1195.12 1556.3 L1195.12 1536.95 L1190.82 1536.95 L1190.82 1532.4 L1195.12 1532.4 L1195.12 1522.27 L1201 1522.27 Z" fill="#000000" fill-rule="nonzero" fill-opacity="1" /><path clip-path="url(#clip730)" d="M1251.26 1548.76 L1251.26 1551.62 L1224.34 1551.62 Q1224.72 1557.67 1227.96 1560.85 Q1231.24 1564 1237.07 1564 Q1240.44 1564 1243.59 1563.17 Q1246.77 1562.35 1249.89 1560.69 L1249.89 1566.23 Q1246.74 1567.57 1243.43 1568.27 Q1240.12 1568.97 1236.72 1568.97 Q1228.19 1568.97 1223.19 1564 Q1218.22 1559.04 1218.22 1550.57 Q1218.22 1541.82 1222.93 1536.69 Q1227.68 1531.54 1235.7 1531.54 Q1242.89 1531.54 1247.06 1536.18 Q1251.26 1540.8 1251.26 1548.76 M1245.41 1547.04 Q1245.34 1542.23 1242.7 1539.37 Q1240.09 1536.5 1235.76 1536.5 Q1230.86 1536.5 1227.9 1539.27 Q1224.97 1542.04 1224.53 1547.07 L1245.41 1547.04 Z" fill="#000000" fill-rule="nonzero" fill-opacity="1" /><path clip-path="url(#clip730)" d="M1281.53 1537.87 Q1280.54 1537.3 1279.37 1537.04 Q1278.22 1536.76 1276.82 1536.76 Q1271.86 1536.76 1269.18 1540 Q1266.54 1543.22 1266.54 1549.27 L1266.54 1568.04 L1260.65 1568.04 L1260.65 1532.4 L1266.54 1532.4 L1266.54 1537.93 Q1268.39 1534.69 1271.35 1533.13 Q1274.31 1531.54 1278.54 1531.54 Q1279.14 1531.54 1279.88 1531.63 Q1280.61 1531.7 1281.5 1531.85 L1281.53 1537.87 Z" fill="#000000" fill-rule="nonzero" fill-opacity="1" /><path clip-path="url(#clip730)" d="M1303.87 1550.12 Q1296.78 1550.12 1294.04 1551.75 Q1291.3 1553.37 1291.3 1557.29 Q1291.3 1560.4 1293.34 1562.25 Q1295.41 1564.07 1298.94 1564.07 Q1303.81 1564.07 1306.74 1560.63 Q1309.7 1557.16 1309.7 1551.43 L1309.7 1550.12 L1303.87 1550.12 M1315.56 1547.71 L1315.56 1568.04 L1309.7 1568.04 L1309.7 1562.63 Q1307.69 1565.88 1304.7 1567.44 Q1301.71 1568.97 1297.38 1568.97 Q1291.91 1568.97 1288.66 1565.91 Q1285.45 1562.82 1285.45 1557.67 Q1285.45 1551.65 1289.46 1548.6 Q1293.5 1545.54 1301.49 1545.54 L1309.7 1545.54 L1309.7 1544.97 Q1309.7 1540.93 1307.03 1538.73 Q1304.38 1536.5 1299.58 1536.5 Q1296.52 1536.5 1293.63 1537.23 Q1290.73 1537.97 1288.06 1539.43 L1288.06 1534.02 Q1291.27 1532.78 1294.29 1532.17 Q1297.32 1531.54 1300.18 1531.54 Q1307.92 1531.54 1311.74 1535.55 Q1315.56 1539.56 1315.56 1547.71 Z" fill="#000000" fill-rule="nonzero" fill-opacity="1" /><path clip-path="url(#clip730)" d="M1333.41 1522.27 L1333.41 1532.4 L1345.47 1532.4 L1345.47 1536.95 L1333.41 1536.95 L1333.41 1556.3 Q1333.41 1560.66 1334.59 1561.9 Q1335.8 1563.14 1339.46 1563.14 L1345.47 1563.14 L1345.47 1568.04 L1339.46 1568.04 Q1332.68 1568.04 1330.1 1565.53 Q1327.52 1562.98 1327.52 1556.3 L1327.52 1536.95 L1323.23 1536.95 L1323.23 1532.4 L1327.52 1532.4 L1327.52 1522.27 L1333.41 1522.27 Z" fill="#000000" fill-rule="nonzero" fill-opacity="1" /><path clip-path="url(#clip730)" d="M1353.18 1532.4 L1359.03 1532.4 L1359.03 1568.04 L1353.18 1568.04 L1353.18 1532.4 M1353.18 1518.52 L1359.03 1518.52 L1359.03 1525.93 L1353.18 1525.93 L1353.18 1518.52 Z" fill="#000000" fill-rule="nonzero" fill-opacity="1" /><path clip-path="url(#clip730)" d="M1385.1 1536.5 Q1380.39 1536.5 1377.65 1540.19 Q1374.92 1543.85 1374.92 1550.25 Q1374.92 1556.65 1377.62 1560.34 Q1380.36 1564 1385.1 1564 Q1389.78 1564 1392.52 1560.31 Q1395.25 1556.62 1395.25 1550.25 Q1395.25 1543.92 1392.52 1540.23 Q1389.78 1536.5 1385.1 1536.5 M1385.1 1531.54 Q1392.74 1531.54 1397.1 1536.5 Q1401.46 1541.47 1401.46 1550.25 Q1401.46 1559 1397.1 1564 Q1392.74 1568.97 1385.1 1568.97 Q1377.43 1568.97 1373.07 1564 Q1368.74 1559 1368.74 1550.25 Q1368.74 1541.47 1373.07 1536.5 Q1377.43 1531.54 1385.1 1531.54 Z" fill="#000000" fill-rule="nonzero" fill-opacity="1" /><path clip-path="url(#clip730)" d="M1440.8 1546.53 L1440.8 1568.04 L1434.94 1568.04 L1434.94 1546.72 Q1434.94 1541.66 1432.97 1539.14 Q1431 1536.63 1427.05 1536.63 Q1422.31 1536.63 1419.57 1539.65 Q1416.83 1542.68 1416.83 1547.9 L1416.83 1568.04 L1410.95 1568.04 L1410.95 1532.4 L1416.83 1532.4 L1416.83 1537.93 Q1418.93 1534.72 1421.77 1533.13 Q1424.63 1531.54 1428.36 1531.54 Q1434.5 1531.54 1437.65 1535.36 Q1440.8 1539.14 1440.8 1546.53 Z" fill="#000000" fill-rule="nonzero" fill-opacity="1" /><polyline clip-path="url(#clip730)" style="stroke:#000000; stroke-linecap:round; stroke-linejoin:round; stroke-width:4; stroke-opacity:1; fill:none" points="264.287,1423.18 264.287,123.472 "/>
<polyline clip-path="url(#clip730)" style="stroke:#000000; stroke-linecap:round; stroke-linejoin:round; stroke-width:4; stroke-opacity:1; fill:none" points="264.287,1301.26 283.185,1301.26 "/>
<polyline clip-path="url(#clip730)" style="stroke:#000000; stroke-linecap:round; stroke-linejoin:round; stroke-width:4; stroke-opacity:1; fill:none" points="264.287,1122.9 283.185,1122.9 "/>
<polyline clip-path="url(#clip730)" style="stroke:#000000; stroke-linecap:round; stroke-linejoin:round; stroke-width:4; stroke-opacity:1; fill:none" points="264.287,944.547 283.185,944.547 "/>
<polyline clip-path="url(#clip730)" style="stroke:#000000; stroke-linecap:round; stroke-linejoin:round; stroke-width:4; stroke-opacity:1; fill:none" points="264.287,766.193 283.185,766.193 "/>
<polyline clip-path="url(#clip730)" style="stroke:#000000; stroke-linecap:round; stroke-linejoin:round; stroke-width:4; stroke-opacity:1; fill:none" points="264.287,587.839 283.185,587.839 "/>
<polyline clip-path="url(#clip730)" style="stroke:#000000; stroke-linecap:round; stroke-linejoin:round; stroke-width:4; stroke-opacity:1; fill:none" points="264.287,409.484 283.185,409.484 "/>
<polyline clip-path="url(#clip730)" style="stroke:#000000; stroke-linecap:round; stroke-linejoin:round; stroke-width:4; stroke-opacity:1; fill:none" points="264.287,231.13 283.185,231.13 "/>
<path clip-path="url(#clip730)" d="M116.668 1314.6 L124.306 1314.6 L124.306 1288.24 L115.996 1289.9 L115.996 1285.64 L124.26 1283.98 L128.936 1283.98 L128.936 1314.6 L136.575 1314.6 L136.575 1318.54 L116.668 1318.54 L116.668 1314.6 Z" fill="#000000" fill-rule="nonzero" fill-opacity="1" /><path clip-path="url(#clip730)" d="M156.598 1299.39 Q153.45 1299.39 151.598 1301.55 Q149.769 1303.7 149.769 1307.45 Q149.769 1311.17 151.598 1313.35 Q153.45 1315.5 156.598 1315.5 Q159.746 1315.5 161.575 1313.35 Q163.427 1311.17 163.427 1307.45 Q163.427 1303.7 161.575 1301.55 Q159.746 1299.39 156.598 1299.39 M165.88 1284.74 L165.88 1289 Q164.121 1288.17 162.315 1287.73 Q160.533 1287.29 158.774 1287.29 Q154.144 1287.29 151.691 1290.41 Q149.26 1293.54 148.913 1299.86 Q150.278 1297.84 152.339 1296.78 Q154.399 1295.69 156.876 1295.69 Q162.084 1295.69 165.093 1298.86 Q168.126 1302.01 168.126 1307.45 Q168.126 1312.77 164.977 1315.99 Q161.829 1319.21 156.598 1319.21 Q150.603 1319.21 147.431 1314.62 Q144.26 1310.02 144.26 1301.29 Q144.26 1293.1 148.149 1288.24 Q152.038 1283.35 158.589 1283.35 Q160.348 1283.35 162.13 1283.7 Q163.936 1284.05 165.88 1284.74 Z" fill="#000000" fill-rule="nonzero" fill-opacity="1" /><path clip-path="url(#clip730)" d="M186.181 1287.05 Q182.57 1287.05 180.741 1290.62 Q178.936 1294.16 178.936 1301.29 Q178.936 1308.4 180.741 1311.96 Q182.57 1315.5 186.181 1315.5 Q189.815 1315.5 191.621 1311.96 Q193.45 1308.4 193.45 1301.29 Q193.45 1294.16 191.621 1290.62 Q189.815 1287.05 186.181 1287.05 M186.181 1283.35 Q191.991 1283.35 195.047 1287.96 Q198.125 1292.54 198.125 1301.29 Q198.125 1310.02 195.047 1314.62 Q191.991 1319.21 186.181 1319.21 Q180.371 1319.21 177.292 1314.62 Q174.237 1310.02 174.237 1301.29 Q174.237 1292.54 177.292 1287.96 Q180.371 1283.35 186.181 1283.35 Z" fill="#000000" fill-rule="nonzero" fill-opacity="1" /><path clip-path="url(#clip730)" d="M216.343 1287.05 Q212.732 1287.05 210.903 1290.62 Q209.098 1294.16 209.098 1301.29 Q209.098 1308.4 210.903 1311.96 Q212.732 1315.5 216.343 1315.5 Q219.977 1315.5 221.783 1311.96 Q223.611 1308.4 223.611 1301.29 Q223.611 1294.16 221.783 1290.62 Q219.977 1287.05 216.343 1287.05 M216.343 1283.35 Q222.153 1283.35 225.209 1287.96 Q228.287 1292.54 228.287 1301.29 Q228.287 1310.02 225.209 1314.62 Q222.153 1319.21 216.343 1319.21 Q210.533 1319.21 207.454 1314.62 Q204.399 1310.02 204.399 1301.29 Q204.399 1292.54 207.454 1287.96 Q210.533 1283.35 216.343 1283.35 Z" fill="#000000" fill-rule="nonzero" fill-opacity="1" /><path clip-path="url(#clip730)" d="M116.668 1136.25 L124.306 1136.25 L124.306 1109.88 L115.996 1111.55 L115.996 1107.29 L124.26 1105.62 L128.936 1105.62 L128.936 1136.25 L136.575 1136.25 L136.575 1140.18 L116.668 1140.18 L116.668 1136.25 Z" fill="#000000" fill-rule="nonzero" fill-opacity="1" /><path clip-path="url(#clip730)" d="M156.019 1123.77 Q152.686 1123.77 150.765 1125.55 Q148.866 1127.33 148.866 1130.46 Q148.866 1133.58 150.765 1135.37 Q152.686 1137.15 156.019 1137.15 Q159.353 1137.15 161.274 1135.37 Q163.195 1133.56 163.195 1130.46 Q163.195 1127.33 161.274 1125.55 Q159.376 1123.77 156.019 1123.77 M151.343 1121.78 Q148.334 1121.04 146.644 1118.98 Q144.978 1116.92 144.978 1113.95 Q144.978 1109.81 147.917 1107.4 Q150.88 1105 156.019 1105 Q161.181 1105 164.121 1107.4 Q167.061 1109.81 167.061 1113.95 Q167.061 1116.92 165.371 1118.98 Q163.704 1121.04 160.718 1121.78 Q164.098 1122.57 165.973 1124.86 Q167.871 1127.15 167.871 1130.46 Q167.871 1135.48 164.792 1138.17 Q161.737 1140.85 156.019 1140.85 Q150.302 1140.85 147.223 1138.17 Q144.167 1135.48 144.167 1130.46 Q144.167 1127.15 146.066 1124.86 Q147.964 1122.57 151.343 1121.78 M149.63 1114.39 Q149.63 1117.08 151.297 1118.58 Q152.987 1120.09 156.019 1120.09 Q159.028 1120.09 160.718 1118.58 Q162.431 1117.08 162.431 1114.39 Q162.431 1111.71 160.718 1110.2 Q159.028 1108.7 156.019 1108.7 Q152.987 1108.7 151.297 1110.2 Q149.63 1111.71 149.63 1114.39 Z" fill="#000000" fill-rule="nonzero" fill-opacity="1" /><path clip-path="url(#clip730)" d="M186.181 1108.7 Q182.57 1108.7 180.741 1112.27 Q178.936 1115.81 178.936 1122.94 Q178.936 1130.04 180.741 1133.61 Q182.57 1137.15 186.181 1137.15 Q189.815 1137.15 191.621 1133.61 Q193.45 1130.04 193.45 1122.94 Q193.45 1115.81 191.621 1112.27 Q189.815 1108.7 186.181 1108.7 M186.181 1105 Q191.991 1105 195.047 1109.6 Q198.125 1114.19 198.125 1122.94 Q198.125 1131.66 195.047 1136.27 Q191.991 1140.85 186.181 1140.85 Q180.371 1140.85 177.292 1136.27 Q174.237 1131.66 174.237 1122.94 Q174.237 1114.19 177.292 1109.6 Q180.371 1105 186.181 1105 Z" fill="#000000" fill-rule="nonzero" fill-opacity="1" /><path clip-path="url(#clip730)" d="M216.343 1108.7 Q212.732 1108.7 210.903 1112.27 Q209.098 1115.81 209.098 1122.94 Q209.098 1130.04 210.903 1133.61 Q212.732 1137.15 216.343 1137.15 Q219.977 1137.15 221.783 1133.61 Q223.611 1130.04 223.611 1122.94 Q223.611 1115.81 221.783 1112.27 Q219.977 1108.7 216.343 1108.7 M216.343 1105 Q222.153 1105 225.209 1109.6 Q228.287 1114.19 228.287 1122.94 Q228.287 1131.66 225.209 1136.27 Q222.153 1140.85 216.343 1140.85 Q210.533 1140.85 207.454 1136.27 Q204.399 1131.66 204.399 1122.94 Q204.399 1114.19 207.454 1109.6 Q210.533 1105 216.343 1105 Z" fill="#000000" fill-rule="nonzero" fill-opacity="1" /><path clip-path="url(#clip730)" d="M119.885 957.892 L136.204 957.892 L136.204 961.827 L114.26 961.827 L114.26 957.892 Q116.922 955.137 121.505 950.508 Q126.112 945.855 127.292 944.513 Q129.538 941.989 130.417 940.253 Q131.32 938.494 131.32 936.804 Q131.32 934.05 129.376 932.313 Q127.455 930.577 124.353 930.577 Q122.154 930.577 119.7 931.341 Q117.269 932.105 114.492 933.656 L114.492 928.934 Q117.316 927.8 119.769 927.221 Q122.223 926.642 124.26 926.642 Q129.63 926.642 132.825 929.327 Q136.019 932.013 136.019 936.503 Q136.019 938.633 135.209 940.554 Q134.422 942.452 132.316 945.045 Q131.737 945.716 128.635 948.934 Q125.533 952.128 119.885 957.892 Z" fill="#000000" fill-rule="nonzero" fill-opacity="1" /><path clip-path="url(#clip730)" d="M156.019 930.346 Q152.408 930.346 150.579 933.911 Q148.774 937.452 148.774 944.582 Q148.774 951.688 150.579 955.253 Q152.408 958.795 156.019 958.795 Q159.653 958.795 161.459 955.253 Q163.288 951.688 163.288 944.582 Q163.288 937.452 161.459 933.911 Q159.653 930.346 156.019 930.346 M156.019 926.642 Q161.829 926.642 164.885 931.249 Q167.964 935.832 167.964 944.582 Q167.964 953.309 164.885 957.915 Q161.829 962.499 156.019 962.499 Q150.209 962.499 147.13 957.915 Q144.075 953.309 144.075 944.582 Q144.075 935.832 147.13 931.249 Q150.209 926.642 156.019 926.642 Z" fill="#000000" fill-rule="nonzero" fill-opacity="1" /><path clip-path="url(#clip730)" d="M186.181 930.346 Q182.57 930.346 180.741 933.911 Q178.936 937.452 178.936 944.582 Q178.936 951.688 180.741 955.253 Q182.57 958.795 186.181 958.795 Q189.815 958.795 191.621 955.253 Q193.45 951.688 193.45 944.582 Q193.45 937.452 191.621 933.911 Q189.815 930.346 186.181 930.346 M186.181 926.642 Q191.991 926.642 195.047 931.249 Q198.125 935.832 198.125 944.582 Q198.125 953.309 195.047 957.915 Q191.991 962.499 186.181 962.499 Q180.371 962.499 177.292 957.915 Q174.237 953.309 174.237 944.582 Q174.237 935.832 177.292 931.249 Q180.371 926.642 186.181 926.642 Z" fill="#000000" fill-rule="nonzero" fill-opacity="1" /><path clip-path="url(#clip730)" d="M216.343 930.346 Q212.732 930.346 210.903 933.911 Q209.098 937.452 209.098 944.582 Q209.098 951.688 210.903 955.253 Q212.732 958.795 216.343 958.795 Q219.977 958.795 221.783 955.253 Q223.611 951.688 223.611 944.582 Q223.611 937.452 221.783 933.911 Q219.977 930.346 216.343 930.346 M216.343 926.642 Q222.153 926.642 225.209 931.249 Q228.287 935.832 228.287 944.582 Q228.287 953.309 225.209 957.915 Q222.153 962.499 216.343 962.499 Q210.533 962.499 207.454 957.915 Q204.399 953.309 204.399 944.582 Q204.399 935.832 207.454 931.249 Q210.533 926.642 216.343 926.642 Z" fill="#000000" fill-rule="nonzero" fill-opacity="1" /><path clip-path="url(#clip730)" d="M119.885 779.538 L136.204 779.538 L136.204 783.473 L114.26 783.473 L114.26 779.538 Q116.922 776.783 121.505 772.154 Q126.112 767.501 127.292 766.158 Q129.538 763.635 130.417 761.899 Q131.32 760.14 131.32 758.45 Q131.32 755.695 129.376 753.959 Q127.455 752.223 124.353 752.223 Q122.154 752.223 119.7 752.987 Q117.269 753.751 114.492 755.302 L114.492 750.58 Q117.316 749.445 119.769 748.867 Q122.223 748.288 124.26 748.288 Q129.63 748.288 132.825 750.973 Q136.019 753.658 136.019 758.149 Q136.019 760.279 135.209 762.2 Q134.422 764.098 132.316 766.691 Q131.737 767.362 128.635 770.579 Q125.533 773.774 119.885 779.538 Z" fill="#000000" fill-rule="nonzero" fill-opacity="1" /><path clip-path="url(#clip730)" d="M150.047 779.538 L166.366 779.538 L166.366 783.473 L144.422 783.473 L144.422 779.538 Q147.084 776.783 151.667 772.154 Q156.274 767.501 157.454 766.158 Q159.7 763.635 160.579 761.899 Q161.482 760.14 161.482 758.45 Q161.482 755.695 159.538 753.959 Q157.616 752.223 154.515 752.223 Q152.316 752.223 149.862 752.987 Q147.431 753.751 144.654 755.302 L144.654 750.58 Q147.478 749.445 149.931 748.867 Q152.385 748.288 154.422 748.288 Q159.792 748.288 162.987 750.973 Q166.181 753.658 166.181 758.149 Q166.181 760.279 165.371 762.2 Q164.584 764.098 162.477 766.691 Q161.899 767.362 158.797 770.579 Q155.695 773.774 150.047 779.538 Z" fill="#000000" fill-rule="nonzero" fill-opacity="1" /><path clip-path="url(#clip730)" d="M186.181 751.992 Q182.57 751.992 180.741 755.556 Q178.936 759.098 178.936 766.228 Q178.936 773.334 180.741 776.899 Q182.57 780.441 186.181 780.441 Q189.815 780.441 191.621 776.899 Q193.45 773.334 193.45 766.228 Q193.45 759.098 191.621 755.556 Q189.815 751.992 186.181 751.992 M186.181 748.288 Q191.991 748.288 195.047 752.894 Q198.125 757.478 198.125 766.228 Q198.125 774.954 195.047 779.561 Q191.991 784.144 186.181 784.144 Q180.371 784.144 177.292 779.561 Q174.237 774.954 174.237 766.228 Q174.237 757.478 177.292 752.894 Q180.371 748.288 186.181 748.288 Z" fill="#000000" fill-rule="nonzero" fill-opacity="1" /><path clip-path="url(#clip730)" d="M216.343 751.992 Q212.732 751.992 210.903 755.556 Q209.098 759.098 209.098 766.228 Q209.098 773.334 210.903 776.899 Q212.732 780.441 216.343 780.441 Q219.977 780.441 221.783 776.899 Q223.611 773.334 223.611 766.228 Q223.611 759.098 221.783 755.556 Q219.977 751.992 216.343 751.992 M216.343 748.288 Q222.153 748.288 225.209 752.894 Q228.287 757.478 228.287 766.228 Q228.287 774.954 225.209 779.561 Q222.153 784.144 216.343 784.144 Q210.533 784.144 207.454 779.561 Q204.399 774.954 204.399 766.228 Q204.399 757.478 207.454 752.894 Q210.533 748.288 216.343 748.288 Z" fill="#000000" fill-rule="nonzero" fill-opacity="1" /><path clip-path="url(#clip730)" d="M119.885 601.183 L136.204 601.183 L136.204 605.119 L114.26 605.119 L114.26 601.183 Q116.922 598.429 121.505 593.799 Q126.112 589.146 127.292 587.804 Q129.538 585.281 130.417 583.545 Q131.32 581.785 131.32 580.096 Q131.32 577.341 129.376 575.605 Q127.455 573.869 124.353 573.869 Q122.154 573.869 119.7 574.633 Q117.269 575.397 114.492 576.947 L114.492 572.225 Q117.316 571.091 119.769 570.512 Q122.223 569.934 124.26 569.934 Q129.63 569.934 132.825 572.619 Q136.019 575.304 136.019 579.795 Q136.019 581.924 135.209 583.846 Q134.422 585.744 132.316 588.336 Q131.737 589.008 128.635 592.225 Q125.533 595.42 119.885 601.183 Z" fill="#000000" fill-rule="nonzero" fill-opacity="1" /><path clip-path="url(#clip730)" d="M158.866 574.633 L147.061 593.082 L158.866 593.082 L158.866 574.633 M157.64 570.559 L163.519 570.559 L163.519 593.082 L168.45 593.082 L168.45 596.97 L163.519 596.97 L163.519 605.119 L158.866 605.119 L158.866 596.97 L143.265 596.97 L143.265 592.457 L157.64 570.559 Z" fill="#000000" fill-rule="nonzero" fill-opacity="1" /><path clip-path="url(#clip730)" d="M186.181 573.637 Q182.57 573.637 180.741 577.202 Q178.936 580.744 178.936 587.873 Q178.936 594.98 180.741 598.545 Q182.57 602.086 186.181 602.086 Q189.815 602.086 191.621 598.545 Q193.45 594.98 193.45 587.873 Q193.45 580.744 191.621 577.202 Q189.815 573.637 186.181 573.637 M186.181 569.934 Q191.991 569.934 195.047 574.54 Q198.125 579.123 198.125 587.873 Q198.125 596.6 195.047 601.207 Q191.991 605.79 186.181 605.79 Q180.371 605.79 177.292 601.207 Q174.237 596.6 174.237 587.873 Q174.237 579.123 177.292 574.54 Q180.371 569.934 186.181 569.934 Z" fill="#000000" fill-rule="nonzero" fill-opacity="1" /><path clip-path="url(#clip730)" d="M216.343 573.637 Q212.732 573.637 210.903 577.202 Q209.098 580.744 209.098 587.873 Q209.098 594.98 210.903 598.545 Q212.732 602.086 216.343 602.086 Q219.977 602.086 221.783 598.545 Q223.611 594.98 223.611 587.873 Q223.611 580.744 221.783 577.202 Q219.977 573.637 216.343 573.637 M216.343 569.934 Q222.153 569.934 225.209 574.54 Q228.287 579.123 228.287 587.873 Q228.287 596.6 225.209 601.207 Q222.153 605.79 216.343 605.79 Q210.533 605.79 207.454 601.207 Q204.399 596.6 204.399 587.873 Q204.399 579.123 207.454 574.54 Q210.533 569.934 216.343 569.934 Z" fill="#000000" fill-rule="nonzero" fill-opacity="1" /><path clip-path="url(#clip730)" d="M119.885 422.829 L136.204 422.829 L136.204 426.764 L114.26 426.764 L114.26 422.829 Q116.922 420.074 121.505 415.445 Q126.112 410.792 127.292 409.45 Q129.538 406.926 130.417 405.19 Q131.32 403.431 131.32 401.741 Q131.32 398.987 129.376 397.251 Q127.455 395.514 124.353 395.514 Q122.154 395.514 119.7 396.278 Q117.269 397.042 114.492 398.593 L114.492 393.871 Q117.316 392.737 119.769 392.158 Q122.223 391.579 124.26 391.579 Q129.63 391.579 132.825 394.264 Q136.019 396.95 136.019 401.44 Q136.019 403.57 135.209 405.491 Q134.422 407.389 132.316 409.982 Q131.737 410.653 128.635 413.871 Q125.533 417.065 119.885 422.829 Z" fill="#000000" fill-rule="nonzero" fill-opacity="1" /><path clip-path="url(#clip730)" d="M156.598 407.621 Q153.45 407.621 151.598 409.774 Q149.769 411.926 149.769 415.676 Q149.769 419.403 151.598 421.579 Q153.45 423.732 156.598 423.732 Q159.746 423.732 161.575 421.579 Q163.427 419.403 163.427 415.676 Q163.427 411.926 161.575 409.774 Q159.746 407.621 156.598 407.621 M165.88 392.968 L165.88 397.227 Q164.121 396.394 162.315 395.954 Q160.533 395.514 158.774 395.514 Q154.144 395.514 151.691 398.639 Q149.26 401.764 148.913 408.084 Q150.278 406.07 152.339 405.005 Q154.399 403.917 156.876 403.917 Q162.084 403.917 165.093 407.088 Q168.126 410.237 168.126 415.676 Q168.126 421 164.977 424.218 Q161.829 427.436 156.598 427.436 Q150.603 427.436 147.431 422.852 Q144.26 418.246 144.26 409.519 Q144.26 401.325 148.149 396.463 Q152.038 391.579 158.589 391.579 Q160.348 391.579 162.13 391.926 Q163.936 392.274 165.88 392.968 Z" fill="#000000" fill-rule="nonzero" fill-opacity="1" /><path clip-path="url(#clip730)" d="M186.181 395.283 Q182.57 395.283 180.741 398.848 Q178.936 402.389 178.936 409.519 Q178.936 416.625 180.741 420.19 Q182.57 423.732 186.181 423.732 Q189.815 423.732 191.621 420.19 Q193.45 416.625 193.45 409.519 Q193.45 402.389 191.621 398.848 Q189.815 395.283 186.181 395.283 M186.181 391.579 Q191.991 391.579 195.047 396.186 Q198.125 400.769 198.125 409.519 Q198.125 418.246 195.047 422.852 Q191.991 427.436 186.181 427.436 Q180.371 427.436 177.292 422.852 Q174.237 418.246 174.237 409.519 Q174.237 400.769 177.292 396.186 Q180.371 391.579 186.181 391.579 Z" fill="#000000" fill-rule="nonzero" fill-opacity="1" /><path clip-path="url(#clip730)" d="M216.343 395.283 Q212.732 395.283 210.903 398.848 Q209.098 402.389 209.098 409.519 Q209.098 416.625 210.903 420.19 Q212.732 423.732 216.343 423.732 Q219.977 423.732 221.783 420.19 Q223.611 416.625 223.611 409.519 Q223.611 402.389 221.783 398.848 Q219.977 395.283 216.343 395.283 M216.343 391.579 Q222.153 391.579 225.209 396.186 Q228.287 400.769 228.287 409.519 Q228.287 418.246 225.209 422.852 Q222.153 427.436 216.343 427.436 Q210.533 427.436 207.454 422.852 Q204.399 418.246 204.399 409.519 Q204.399 400.769 207.454 396.186 Q210.533 391.579 216.343 391.579 Z" fill="#000000" fill-rule="nonzero" fill-opacity="1" /><path clip-path="url(#clip730)" d="M119.885 244.475 L136.204 244.475 L136.204 248.41 L114.26 248.41 L114.26 244.475 Q116.922 241.72 121.505 237.091 Q126.112 232.438 127.292 231.095 Q129.538 228.572 130.417 226.836 Q131.32 225.077 131.32 223.387 Q131.32 220.632 129.376 218.896 Q127.455 217.16 124.353 217.16 Q122.154 217.16 119.7 217.924 Q117.269 218.688 114.492 220.239 L114.492 215.517 Q117.316 214.382 119.769 213.804 Q122.223 213.225 124.26 213.225 Q129.63 213.225 132.825 215.91 Q136.019 218.595 136.019 223.086 Q136.019 225.216 135.209 227.137 Q134.422 229.035 132.316 231.628 Q131.737 232.299 128.635 235.516 Q125.533 238.711 119.885 244.475 Z" fill="#000000" fill-rule="nonzero" fill-opacity="1" /><path clip-path="url(#clip730)" d="M156.019 231.998 Q152.686 231.998 150.765 233.78 Q148.866 235.563 148.866 238.688 Q148.866 241.813 150.765 243.595 Q152.686 245.378 156.019 245.378 Q159.353 245.378 161.274 243.595 Q163.195 241.79 163.195 238.688 Q163.195 235.563 161.274 233.78 Q159.376 231.998 156.019 231.998 M151.343 230.007 Q148.334 229.266 146.644 227.206 Q144.978 225.146 144.978 222.183 Q144.978 218.04 147.917 215.632 Q150.88 213.225 156.019 213.225 Q161.181 213.225 164.121 215.632 Q167.061 218.04 167.061 222.183 Q167.061 225.146 165.371 227.206 Q163.704 229.266 160.718 230.007 Q164.098 230.794 165.973 233.086 Q167.871 235.378 167.871 238.688 Q167.871 243.711 164.792 246.396 Q161.737 249.081 156.019 249.081 Q150.302 249.081 147.223 246.396 Q144.167 243.711 144.167 238.688 Q144.167 235.378 146.066 233.086 Q147.964 230.794 151.343 230.007 M149.63 222.623 Q149.63 225.308 151.297 226.813 Q152.987 228.317 156.019 228.317 Q159.028 228.317 160.718 226.813 Q162.431 225.308 162.431 222.623 Q162.431 219.938 160.718 218.433 Q159.028 216.929 156.019 216.929 Q152.987 216.929 151.297 218.433 Q149.63 219.938 149.63 222.623 Z" fill="#000000" fill-rule="nonzero" fill-opacity="1" /><path clip-path="url(#clip730)" d="M186.181 216.929 Q182.57 216.929 180.741 220.493 Q178.936 224.035 178.936 231.165 Q178.936 238.271 180.741 241.836 Q182.57 245.378 186.181 245.378 Q189.815 245.378 191.621 241.836 Q193.45 238.271 193.45 231.165 Q193.45 224.035 191.621 220.493 Q189.815 216.929 186.181 216.929 M186.181 213.225 Q191.991 213.225 195.047 217.831 Q198.125 222.415 198.125 231.165 Q198.125 239.891 195.047 244.498 Q191.991 249.081 186.181 249.081 Q180.371 249.081 177.292 244.498 Q174.237 239.891 174.237 231.165 Q174.237 222.415 177.292 217.831 Q180.371 213.225 186.181 213.225 Z" fill="#000000" fill-rule="nonzero" fill-opacity="1" /><path clip-path="url(#clip730)" d="M216.343 216.929 Q212.732 216.929 210.903 220.493 Q209.098 224.035 209.098 231.165 Q209.098 238.271 210.903 241.836 Q212.732 245.378 216.343 245.378 Q219.977 245.378 221.783 241.836 Q223.611 238.271 223.611 231.165 Q223.611 224.035 221.783 220.493 Q219.977 216.929 216.343 216.929 M216.343 213.225 Q222.153 213.225 225.209 217.831 Q228.287 222.415 228.287 231.165 Q228.287 239.891 225.209 244.498 Q222.153 249.081 216.343 249.081 Q210.533 249.081 207.454 244.498 Q204.399 239.891 204.399 231.165 Q204.399 222.415 207.454 217.831 Q210.533 213.225 216.343 213.225 Z" fill="#000000" fill-rule="nonzero" fill-opacity="1" /><path clip-path="url(#clip730)" d="M16.4842 1228.55 L16.4842 1222.12 L58.5933 1222.12 L58.5933 1198.98 L64.0042 1198.98 L64.0042 1228.55 L16.4842 1228.55 Z" fill="#000000" fill-rule="nonzero" fill-opacity="1" /><path clip-path="url(#clip730)" d="M32.4621 1179.82 Q32.4621 1184.53 36.1542 1187.27 Q39.8145 1190.01 46.212 1190.01 Q52.6095 1190.01 56.3017 1187.3 Q59.9619 1184.57 59.9619 1179.82 Q59.9619 1175.15 56.2698 1172.41 Q52.5777 1169.67 46.212 1169.67 Q39.8781 1169.67 36.186 1172.41 Q32.4621 1175.15 32.4621 1179.82 M27.4968 1179.82 Q27.4968 1172.19 32.4621 1167.82 Q37.4273 1163.46 46.212 1163.46 Q54.9649 1163.46 59.9619 1167.82 Q64.9272 1172.19 64.9272 1179.82 Q64.9272 1187.49 59.9619 1191.86 Q54.9649 1196.18 46.212 1196.18 Q37.4273 1196.18 32.4621 1191.86 Q27.4968 1187.49 27.4968 1179.82 Z" fill="#000000" fill-rule="nonzero" fill-opacity="1" /><path clip-path="url(#clip730)" d="M28.3562 1157.16 L28.3562 1151.31 L56.1743 1143.99 L28.3562 1136.7 L28.3562 1129.79 L56.1743 1122.47 L28.3562 1115.18 L28.3562 1109.32 L64.0042 1118.65 L64.0042 1125.56 L34.7856 1133.23 L64.0042 1140.93 L64.0042 1147.84 L28.3562 1157.16 Z" fill="#000000" fill-rule="nonzero" fill-opacity="1" /><path clip-path="url(#clip730)" d="M44.7161 1069.95 L47.5806 1069.95 L47.5806 1096.88 Q53.6281 1096.5 56.8109 1093.25 Q59.9619 1089.97 59.9619 1084.15 Q59.9619 1080.77 59.1344 1077.62 Q58.3069 1074.44 56.6518 1071.32 L62.1899 1071.32 Q63.5267 1074.47 64.227 1077.78 Q64.9272 1081.09 64.9272 1084.5 Q64.9272 1093.03 59.9619 1098.02 Q54.9967 1102.99 46.5303 1102.99 Q37.7774 1102.99 32.6531 1098.28 Q27.4968 1093.54 27.4968 1085.52 Q27.4968 1078.32 32.1438 1074.15 Q36.7589 1069.95 44.7161 1069.95 M42.9973 1075.81 Q38.1912 1075.87 35.3266 1078.51 Q32.4621 1081.12 32.4621 1085.45 Q32.4621 1090.35 35.2312 1093.31 Q38.0002 1096.24 43.0292 1096.69 L42.9973 1075.81 Z" fill="#000000" fill-rule="nonzero" fill-opacity="1" /><path clip-path="url(#clip730)" d="M33.8307 1039.68 Q33.2578 1040.67 33.0032 1041.85 Q32.7167 1042.99 32.7167 1044.39 Q32.7167 1049.36 35.9632 1052.03 Q39.1779 1054.67 45.2253 1054.67 L64.0042 1054.67 L64.0042 1060.56 L28.3562 1060.56 L28.3562 1054.67 L33.8944 1054.67 Q30.6479 1052.83 29.0883 1049.87 Q27.4968 1046.91 27.4968 1042.67 Q27.4968 1042.07 27.5923 1041.34 Q27.656 1040.61 27.8151 1039.71 L33.8307 1039.68 Z" fill="#000000" fill-rule="nonzero" fill-opacity="1" /><path clip-path="url(#clip730)" d="M43.5384 1040.67 L43.5384 1023.51 L48.7583 1023.51 L48.7583 1040.67 L43.5384 1040.67 Z" fill="#000000" fill-rule="nonzero" fill-opacity="1" /><path clip-path="url(#clip730)" d="M16.4842 1013.93 L16.4842 1007.5 L58.5933 1007.5 L58.5933 984.365 L64.0042 984.365 L64.0042 1013.93 L16.4842 1013.93 Z" fill="#000000" fill-rule="nonzero" fill-opacity="1" /><path clip-path="url(#clip730)" d="M44.7161 948.526 L47.5806 948.526 L47.5806 975.453 Q53.6281 975.071 56.8109 971.825 Q59.9619 968.546 59.9619 962.722 Q59.9619 959.348 59.1344 956.197 Q58.3069 953.014 56.6518 949.895 L62.1899 949.895 Q63.5267 953.046 64.227 956.356 Q64.9272 959.666 64.9272 963.072 Q64.9272 971.602 59.9619 976.599 Q54.9967 981.564 46.5303 981.564 Q37.7774 981.564 32.6531 976.854 Q27.4968 972.111 27.4968 964.09 Q27.4968 956.897 32.1438 952.728 Q36.7589 948.526 44.7161 948.526 M42.9973 954.383 Q38.1912 954.446 35.3266 957.088 Q32.4621 959.698 32.4621 964.027 Q32.4621 968.928 35.2312 971.888 Q38.0002 974.817 43.0292 975.262 L42.9973 954.383 Z" fill="#000000" fill-rule="nonzero" fill-opacity="1" /><path clip-path="url(#clip730)" d="M28.3562 943.115 L28.3562 936.909 L58.275 925.769 L28.3562 914.629 L28.3562 908.422 L64.0042 921.79 L64.0042 929.747 L28.3562 943.115 Z" fill="#000000" fill-rule="nonzero" fill-opacity="1" /><path clip-path="url(#clip730)" d="M44.7161 869.846 L47.5806 869.846 L47.5806 896.773 Q53.6281 896.391 56.8109 893.144 Q59.9619 889.866 59.9619 884.042 Q59.9619 880.668 59.1344 877.517 Q58.3069 874.334 56.6518 871.215 L62.1899 871.215 Q63.5267 874.366 64.227 877.676 Q64.9272 880.986 64.9272 884.392 Q64.9272 892.922 59.9619 897.919 Q54.9967 902.884 46.5303 902.884 Q37.7774 902.884 32.6531 898.173 Q27.4968 893.431 27.4968 885.41 Q27.4968 878.217 32.1438 874.047 Q36.7589 869.846 44.7161 869.846 M42.9973 875.702 Q38.1912 875.766 35.3266 878.408 Q32.4621 881.018 32.4621 885.347 Q32.4621 890.248 35.2312 893.208 Q38.0002 896.136 43.0292 896.582 L42.9973 875.702 Z" fill="#000000" fill-rule="nonzero" fill-opacity="1" /><path clip-path="url(#clip730)" d="M14.479 860.234 L14.479 854.377 L64.0042 854.377 L64.0042 860.234 L14.479 860.234 Z" fill="#000000" fill-rule="nonzero" fill-opacity="1" /><path clip-path="url(#clip730)" d="M16.4842 821.148 L16.4842 814.719 L58.5933 814.719 L58.5933 791.58 L64.0042 791.58 L64.0042 821.148 L16.4842 821.148 Z" fill="#000000" fill-rule="nonzero" fill-opacity="1" /><path clip-path="url(#clip730)" d="M32.4621 772.419 Q32.4621 777.129 36.1542 779.867 Q39.8145 782.604 46.212 782.604 Q52.6095 782.604 56.3017 779.899 Q59.9619 777.161 59.9619 772.419 Q59.9619 767.74 56.2698 765.003 Q52.5777 762.266 46.212 762.266 Q39.8781 762.266 36.186 765.003 Q32.4621 767.74 32.4621 772.419 M27.4968 772.419 Q27.4968 764.78 32.4621 760.42 Q37.4273 756.059 46.212 756.059 Q54.9649 756.059 59.9619 760.42 Q64.9272 764.78 64.9272 772.419 Q64.9272 780.09 59.9619 784.45 Q54.9649 788.779 46.212 788.779 Q37.4273 788.779 32.4621 784.45 Q27.4968 780.09 27.4968 772.419 Z" fill="#000000" fill-rule="nonzero" fill-opacity="1" /><path clip-path="url(#clip730)" d="M46.0847 730.151 Q46.0847 737.248 47.7079 739.986 Q49.3312 742.723 53.2461 742.723 Q56.3653 742.723 58.2114 740.686 Q60.0256 738.617 60.0256 735.084 Q60.0256 730.214 56.5881 727.286 Q53.1188 724.326 47.3897 724.326 L46.0847 724.326 L46.0847 730.151 M43.6657 718.47 L64.0042 718.47 L64.0042 724.326 L58.5933 724.326 Q61.8398 726.331 63.3994 729.323 Q64.9272 732.315 64.9272 736.644 Q64.9272 742.118 61.8716 745.365 Q58.7843 748.579 53.6281 748.579 Q47.6125 748.579 44.5569 744.569 Q41.5014 740.527 41.5014 732.538 L41.5014 724.326 L40.9285 724.326 Q36.8862 724.326 34.6901 727 Q32.4621 729.641 32.4621 734.447 Q32.4621 737.503 33.1941 740.399 Q33.9262 743.296 35.3903 745.969 L29.9795 745.969 Q28.7381 742.755 28.1334 739.731 Q27.4968 736.707 27.4968 733.843 Q27.4968 726.108 31.5072 722.289 Q35.5176 718.47 43.6657 718.47 Z" fill="#000000" fill-rule="nonzero" fill-opacity="1" /><path clip-path="url(#clip730)" d="M33.7671 682.949 L14.479 682.949 L14.479 677.092 L64.0042 677.092 L64.0042 682.949 L58.657 682.949 Q61.8398 684.795 63.3994 687.628 Q64.9272 690.429 64.9272 694.375 Q64.9272 700.836 59.771 704.911 Q54.6147 708.953 46.212 708.953 Q37.8093 708.953 32.6531 704.911 Q27.4968 700.836 27.4968 694.375 Q27.4968 690.429 29.0564 687.628 Q30.5842 684.795 33.7671 682.949 M46.212 702.905 Q52.6732 702.905 56.3653 700.264 Q60.0256 697.59 60.0256 692.943 Q60.0256 688.296 56.3653 685.622 Q52.6732 682.949 46.212 682.949 Q39.7508 682.949 36.0905 685.622 Q32.3984 688.296 32.3984 692.943 Q32.3984 697.59 36.0905 700.264 Q39.7508 702.905 46.212 702.905 Z" fill="#000000" fill-rule="nonzero" fill-opacity="1" /><path clip-path="url(#clip730)" d="M18.0438 615.568 L24.314 615.568 Q22.5634 619.228 21.704 622.475 Q20.8447 625.721 20.8447 628.745 Q20.8447 633.997 22.8817 636.861 Q24.9187 639.694 28.6745 639.694 Q31.8255 639.694 33.4488 637.816 Q35.0402 635.906 36.0269 630.623 L36.8226 626.74 Q38.1912 619.546 41.6605 616.141 Q45.098 612.703 50.8908 612.703 Q57.7976 612.703 61.3624 617.35 Q64.9272 621.965 64.9272 630.909 Q64.9272 634.283 64.1633 638.102 Q63.3994 641.89 61.9035 645.964 L55.2831 645.964 Q57.4793 642.049 58.5933 638.293 Q59.7073 634.538 59.7073 630.909 Q59.7073 625.403 57.543 622.411 Q55.3786 619.419 51.3682 619.419 Q47.8671 619.419 45.8937 621.583 Q43.9204 623.716 42.9337 628.618 L42.1698 632.532 Q40.7375 639.726 37.682 642.94 Q34.6264 646.155 29.1837 646.155 Q22.8817 646.155 19.2532 641.731 Q15.6248 637.275 15.6248 629.477 Q15.6248 626.135 16.2295 622.666 Q16.8343 619.196 18.0438 615.568 Z" fill="#000000" fill-rule="nonzero" fill-opacity="1" /><path clip-path="url(#clip730)" d="M42.4881 573.3 L64.0042 573.3 L64.0042 579.156 L42.679 579.156 Q37.6183 579.156 35.1038 581.129 Q32.5894 583.103 32.5894 587.049 Q32.5894 591.792 35.6131 594.529 Q38.6368 597.266 43.8567 597.266 L64.0042 597.266 L64.0042 603.155 L14.479 603.155 L14.479 597.266 L33.8944 597.266 Q30.6797 595.166 29.0883 592.333 Q27.4968 589.468 27.4968 585.745 Q27.4968 579.602 31.3163 576.451 Q35.1038 573.3 42.4881 573.3 Z" fill="#000000" fill-rule="nonzero" fill-opacity="1" /><path clip-path="url(#clip730)" d="M44.7161 531.127 L47.5806 531.127 L47.5806 558.054 Q53.6281 557.672 56.8109 554.425 Q59.9619 551.147 59.9619 545.322 Q59.9619 541.948 59.1344 538.797 Q58.3069 535.615 56.6518 532.495 L62.1899 532.495 Q63.5267 535.646 64.227 538.957 Q64.9272 542.267 64.9272 545.672 Q64.9272 554.202 59.9619 559.2 Q54.9967 564.165 46.5303 564.165 Q37.7774 564.165 32.6531 559.454 Q27.4968 554.712 27.4968 546.691 Q27.4968 539.498 32.1438 535.328 Q36.7589 531.127 44.7161 531.127 M42.9973 536.983 Q38.1912 537.047 35.3266 539.689 Q32.4621 542.299 32.4621 546.627 Q32.4621 551.529 35.2312 554.489 Q38.0002 557.417 43.0292 557.863 L42.9973 536.983 Z" fill="#000000" fill-rule="nonzero" fill-opacity="1" /><path clip-path="url(#clip730)" d="M33.7671 498.057 L14.479 498.057 L14.479 492.2 L64.0042 492.2 L64.0042 498.057 L58.657 498.057 Q61.8398 499.903 63.3994 502.736 Q64.9272 505.537 64.9272 509.483 Q64.9272 515.945 59.771 520.019 Q54.6147 524.061 46.212 524.061 Q37.8093 524.061 32.6531 520.019 Q27.4968 515.945 27.4968 509.483 Q27.4968 505.537 29.0564 502.736 Q30.5842 499.903 33.7671 498.057 M46.212 518.013 Q52.6732 518.013 56.3653 515.372 Q60.0256 512.698 60.0256 508.051 Q60.0256 503.404 56.3653 500.731 Q52.6732 498.057 46.212 498.057 Q39.7508 498.057 36.0905 500.731 Q32.3984 503.404 32.3984 508.051 Q32.3984 512.698 36.0905 515.372 Q39.7508 518.013 46.212 518.013 Z" fill="#000000" fill-rule="nonzero" fill-opacity="1" /><path clip-path="url(#clip730)" d="M14.5426 445.349 Q21.8632 449.614 29.0246 451.683 Q36.186 453.752 43.5384 453.752 Q50.8908 453.752 58.1159 451.683 Q65.3091 449.582 72.5979 445.349 L72.5979 450.441 Q65.1182 455.216 57.8931 457.603 Q50.668 459.958 43.5384 459.958 Q36.4406 459.958 29.2474 457.603 Q22.0542 455.248 14.5426 450.441 L14.5426 445.349 Z" fill="#000000" fill-rule="nonzero" fill-opacity="1" /><path clip-path="url(#clip730)" d="M14.479 434.209 L14.479 428.321 L43.7294 428.321 L28.3562 410.847 L28.3562 403.367 L45.0344 422.273 L64.0042 402.571 L64.0042 410.21 L46.5939 428.321 L64.0042 428.321 L64.0042 434.209 L14.479 434.209 Z" fill="#000000" fill-rule="nonzero" fill-opacity="1" /><path clip-path="url(#clip730)" d="M16.4842 400.216 L16.4842 393.723 L56.6518 383.729 L16.4842 373.766 L16.4842 366.541 L56.6518 356.547 L16.4842 346.585 L16.4842 340.06 L64.0042 351.996 L64.0042 360.08 L22.7544 370.106 L64.0042 380.228 L64.0042 388.312 L16.4842 400.216 Z" fill="#000000" fill-rule="nonzero" fill-opacity="1" /><path clip-path="url(#clip730)" d="M14.5426 332.708 L14.5426 327.615 Q22.0542 322.841 29.2474 320.486 Q36.4406 318.098 43.5384 318.098 Q50.668 318.098 57.8931 320.486 Q65.1182 322.841 72.5979 327.615 L72.5979 332.708 Q65.3091 328.474 58.1159 326.406 Q50.8908 324.305 43.5384 324.305 Q36.186 324.305 29.0246 326.406 Q21.8632 328.474 14.5426 332.708 Z" fill="#000000" fill-rule="nonzero" fill-opacity="1" /><path clip-path="url(#clip730)" d="M307.341 44.2197 Q309.974 45.1109 312.445 48.0275 Q314.956 50.9442 317.468 56.0483 L325.772 72.576 L316.982 72.576 L309.245 57.061 Q306.247 50.9847 303.411 48.9997 Q300.616 47.0148 295.755 47.0148 L286.843 47.0148 L286.843 72.576 L278.66 72.576 L278.66 12.096 L297.132 12.096 Q307.503 12.096 312.607 16.4305 Q317.711 20.7649 317.711 29.5149 Q317.711 35.2267 315.037 38.994 Q312.404 42.7613 307.341 44.2197 M286.843 18.8205 L286.843 40.2903 L297.132 40.2903 Q303.047 40.2903 306.044 37.5762 Q309.083 34.8216 309.083 29.5149 Q309.083 24.2082 306.044 21.5346 Q303.047 18.8205 297.132 18.8205 L286.843 18.8205 Z" fill="#000000" fill-rule="nonzero" fill-opacity="1" /><path clip-path="url(#clip730)" d="M371.061 48.0275 L371.061 51.6733 L336.791 51.6733 Q337.277 59.3701 341.409 63.421 Q345.581 67.4314 352.994 67.4314 Q357.288 67.4314 361.299 66.3781 Q365.35 65.3249 369.319 63.2184 L369.319 70.267 Q365.309 71.9684 361.096 72.8596 Q356.883 73.7508 352.549 73.7508 Q341.692 73.7508 335.332 67.4314 Q329.013 61.1119 329.013 50.3365 Q329.013 39.1965 335.008 32.6746 Q341.044 26.1121 351.252 26.1121 Q360.407 26.1121 365.714 32.0264 Q371.061 37.9003 371.061 48.0275 M363.608 45.84 Q363.527 39.7232 360.164 36.0774 Q356.843 32.4315 351.333 32.4315 Q345.095 32.4315 341.328 35.9558 Q337.601 39.4801 337.034 45.8805 L363.608 45.84 Z" fill="#000000" fill-rule="nonzero" fill-opacity="1" /><path clip-path="url(#clip730)" d="M383.295 9.54393 L390.749 9.54393 L390.749 72.576 L383.295 72.576 L383.295 9.54393 Z" fill="#000000" fill-rule="nonzero" fill-opacity="1" /><path clip-path="url(#clip730)" d="M426.964 49.7694 Q417.93 49.7694 414.447 51.8354 Q410.963 53.9013 410.963 58.8839 Q410.963 62.8538 413.555 65.2034 Q416.188 67.5124 420.685 67.5124 Q426.883 67.5124 430.61 63.1374 Q434.377 58.7219 434.377 51.4303 L434.377 49.7694 L426.964 49.7694 M441.831 46.6907 L441.831 72.576 L434.377 72.576 L434.377 65.6895 Q431.825 69.8214 428.017 71.8063 Q424.209 73.7508 418.7 73.7508 Q411.732 73.7508 407.601 69.8619 Q403.509 65.9325 403.509 59.3701 Q403.509 51.7138 408.613 47.825 Q413.758 43.9361 423.926 43.9361 L434.377 43.9361 L434.377 43.2069 Q434.377 38.0623 430.974 35.2672 Q427.612 32.4315 421.495 32.4315 Q417.606 32.4315 413.92 33.3632 Q410.234 34.295 406.831 36.1584 L406.831 29.2718 Q410.922 27.692 414.771 26.9223 Q418.619 26.1121 422.265 26.1121 Q432.108 26.1121 436.97 31.2163 Q441.831 36.3204 441.831 46.6907 Z" fill="#000000" fill-rule="nonzero" fill-opacity="1" /><path clip-path="url(#clip730)" d="M494.898 27.2059 L478.491 49.2833 L495.748 72.576 L486.958 72.576 L473.752 54.752 L460.546 72.576 L451.755 72.576 L469.377 48.8377 L453.254 27.2059 L462.045 27.2059 L474.076 43.369 L486.107 27.2059 L494.898 27.2059 Z" fill="#000000" fill-rule="nonzero" fill-opacity="1" /><path clip-path="url(#clip730)" d="M542.536 48.0275 L542.536 51.6733 L508.265 51.6733 Q508.752 59.3701 512.884 63.421 Q517.056 67.4314 524.469 67.4314 Q528.763 67.4314 532.773 66.3781 Q536.824 65.3249 540.794 63.2184 L540.794 70.267 Q536.784 71.9684 532.571 72.8596 Q528.358 73.7508 524.024 73.7508 Q513.167 73.7508 506.807 67.4314 Q500.488 61.1119 500.488 50.3365 Q500.488 39.1965 506.483 32.6746 Q512.519 26.1121 522.727 26.1121 Q531.882 26.1121 537.189 32.0264 Q542.536 37.9003 542.536 48.0275 M535.082 45.84 Q535.001 39.7232 531.639 36.0774 Q528.317 32.4315 522.808 32.4315 Q516.57 32.4315 512.802 35.9558 Q509.076 39.4801 508.509 45.8805 L535.082 45.84 Z" fill="#000000" fill-rule="nonzero" fill-opacity="1" /><path clip-path="url(#clip730)" d="M584.625 34.0924 L584.625 9.54393 L592.079 9.54393 L592.079 72.576 L584.625 72.576 L584.625 65.7705 Q582.276 69.8214 578.67 71.8063 Q575.105 73.7508 570.082 73.7508 Q561.859 73.7508 556.674 67.1883 Q551.529 60.6258 551.529 49.9314 Q551.529 39.2371 556.674 32.6746 Q561.859 26.1121 570.082 26.1121 Q575.105 26.1121 578.67 28.0971 Q582.276 30.0415 584.625 34.0924 M559.226 49.9314 Q559.226 58.1548 562.588 62.8538 Q565.991 67.5124 571.905 67.5124 Q577.82 67.5124 581.222 62.8538 Q584.625 58.1548 584.625 49.9314 Q584.625 41.7081 581.222 37.0496 Q577.82 32.3505 571.905 32.3505 Q565.991 32.3505 562.588 37.0496 Q559.226 41.7081 559.226 49.9314 Z" fill="#000000" fill-rule="nonzero" fill-opacity="1" /><path clip-path="url(#clip730)" d="M642.31 18.8205 L642.31 41.5461 L652.599 41.5461 Q658.311 41.5461 661.43 38.5889 Q664.549 35.6318 664.549 30.163 Q664.549 24.7348 661.43 21.7777 Q658.311 18.8205 652.599 18.8205 L642.31 18.8205 M634.127 12.096 L652.599 12.096 Q662.767 12.096 667.952 16.714 Q673.178 21.2916 673.178 30.163 Q673.178 39.1155 667.952 43.6931 Q662.767 48.2706 652.599 48.2706 L642.31 48.2706 L642.31 72.576 L634.127 72.576 L634.127 12.096 Z" fill="#000000" fill-rule="nonzero" fill-opacity="1" /><path clip-path="url(#clip730)" d="M699.063 20.1573 L687.964 50.2555 L710.203 50.2555 L699.063 20.1573 M694.445 12.096 L703.722 12.096 L726.771 72.576 L718.264 72.576 L712.755 57.061 L685.493 57.061 L679.983 72.576 L671.355 72.576 L694.445 12.096 Z" fill="#000000" fill-rule="nonzero" fill-opacity="1" /><path clip-path="url(#clip730)" d="M743.785 18.8205 L743.785 65.8515 L753.669 65.8515 Q766.187 65.8515 771.979 60.1802 Q777.813 54.509 777.813 42.2752 Q777.813 30.1225 771.979 24.4918 Q766.187 18.8205 753.669 18.8205 L743.785 18.8205 M735.602 12.096 L752.413 12.096 Q769.994 12.096 778.218 19.4281 Q786.441 26.7198 786.441 42.2752 Q786.441 57.9117 778.177 65.2439 Q769.913 72.576 752.413 72.576 L735.602 72.576 L735.602 12.096 Z" fill="#000000" fill-rule="nonzero" fill-opacity="1" /><path clip-path="url(#clip730)" d="M807.668 18.8205 L807.668 41.5461 L817.957 41.5461 Q823.669 41.5461 826.788 38.5889 Q829.907 35.6318 829.907 30.163 Q829.907 24.7348 826.788 21.7777 Q823.669 18.8205 817.957 18.8205 L807.668 18.8205 M799.485 12.096 L817.957 12.096 Q828.125 12.096 833.31 16.714 Q838.536 21.2916 838.536 30.163 Q838.536 39.1155 833.31 43.6931 Q828.125 48.2706 817.957 48.2706 L807.668 48.2706 L807.668 72.576 L799.485 72.576 L799.485 12.096 Z" fill="#000000" fill-rule="nonzero" fill-opacity="1" /><path clip-path="url(#clip730)" d="M875.885 12.096 L884.068 12.096 L884.068 65.6895 L913.518 65.6895 L913.518 72.576 L875.885 72.576 L875.885 12.096 Z" fill="#000000" fill-rule="nonzero" fill-opacity="1" /><path clip-path="url(#clip730)" d="M937.904 32.4315 Q931.909 32.4315 928.425 37.1306 Q924.941 41.7891 924.941 49.9314 Q924.941 58.0738 928.385 62.7728 Q931.869 67.4314 937.904 67.4314 Q943.859 67.4314 947.343 62.7323 Q950.827 58.0333 950.827 49.9314 Q950.827 41.8701 947.343 37.1711 Q943.859 32.4315 937.904 32.4315 M937.904 26.1121 Q947.627 26.1121 953.176 32.4315 Q958.726 38.7509 958.726 49.9314 Q958.726 61.0714 953.176 67.4314 Q947.627 73.7508 937.904 73.7508 Q928.142 73.7508 922.592 67.4314 Q917.083 61.0714 917.083 49.9314 Q917.083 38.7509 922.592 32.4315 Q928.142 26.1121 937.904 26.1121 Z" fill="#000000" fill-rule="nonzero" fill-opacity="1" /><path clip-path="url(#clip730)" d="M966.747 27.2059 L974.2 27.2059 L983.518 62.6108 L992.794 27.2059 L1001.58 27.2059 L1010.9 62.6108 L1020.18 27.2059 L1027.63 27.2059 L1015.76 72.576 L1006.97 72.576 L997.21 35.3887 L987.406 72.576 L978.616 72.576 L966.747 27.2059 Z" fill="#000000" fill-rule="nonzero" fill-opacity="1" /><path clip-path="url(#clip730)" d="M1077.74 48.0275 L1077.74 51.6733 L1043.47 51.6733 Q1043.96 59.3701 1048.09 63.421 Q1052.26 67.4314 1059.67 67.4314 Q1063.97 67.4314 1067.98 66.3781 Q1072.03 65.3249 1076 63.2184 L1076 70.267 Q1071.99 71.9684 1067.78 72.8596 Q1063.56 73.7508 1059.23 73.7508 Q1048.37 73.7508 1042.01 67.4314 Q1035.69 61.1119 1035.69 50.3365 Q1035.69 39.1965 1041.69 32.6746 Q1047.72 26.1121 1057.93 26.1121 Q1067.09 26.1121 1072.39 32.0264 Q1077.74 37.9003 1077.74 48.0275 M1070.29 45.84 Q1070.21 39.7232 1066.84 36.0774 Q1063.52 32.4315 1058.01 32.4315 Q1051.78 32.4315 1048.01 35.9558 Q1044.28 39.4801 1043.71 45.8805 L1070.29 45.84 Z" fill="#000000" fill-rule="nonzero" fill-opacity="1" /><path clip-path="url(#clip730)" d="M1116.27 34.1734 Q1115.01 33.4443 1113.51 33.1202 Q1112.05 32.7556 1110.27 32.7556 Q1103.95 32.7556 1100.55 36.8875 Q1097.19 40.9789 1097.19 48.6757 L1097.19 72.576 L1089.69 72.576 L1089.69 27.2059 L1097.19 27.2059 L1097.19 34.2544 Q1099.54 30.1225 1103.3 28.1376 Q1107.07 26.1121 1112.46 26.1121 Q1113.23 26.1121 1114.16 26.2337 Q1115.09 26.3147 1116.23 26.5172 L1116.27 34.1734 Z" fill="#000000" fill-rule="nonzero" fill-opacity="1" /><path clip-path="url(#clip730)" d="M1150.78 12.096 L1158.96 12.096 L1158.96 65.6895 L1188.41 65.6895 L1188.41 72.576 L1150.78 72.576 L1150.78 12.096 Z" fill="#000000" fill-rule="nonzero" fill-opacity="1" /><path clip-path="url(#clip730)" d="M1234.03 48.0275 L1234.03 51.6733 L1199.75 51.6733 Q1200.24 59.3701 1204.37 63.421 Q1208.55 67.4314 1215.96 67.4314 Q1220.25 67.4314 1224.26 66.3781 Q1228.31 65.3249 1232.28 63.2184 L1232.28 70.267 Q1228.27 71.9684 1224.06 72.8596 Q1219.85 73.7508 1215.51 73.7508 Q1204.66 73.7508 1198.3 67.4314 Q1191.98 61.1119 1191.98 50.3365 Q1191.98 39.1965 1197.97 32.6746 Q1204.01 26.1121 1214.22 26.1121 Q1223.37 26.1121 1228.68 32.0264 Q1234.03 37.9003 1234.03 48.0275 M1226.57 45.84 Q1226.49 39.7232 1223.13 36.0774 Q1219.81 32.4315 1214.3 32.4315 Q1208.06 32.4315 1204.29 35.9558 Q1200.57 39.4801 1200 45.8805 L1226.57 45.84 Z" fill="#000000" fill-rule="nonzero" fill-opacity="1" /><path clip-path="url(#clip730)" d="M1240.91 27.2059 L1248.81 27.2059 L1262.99 65.2844 L1277.17 27.2059 L1285.07 27.2059 L1268.05 72.576 L1257.93 72.576 L1240.91 27.2059 Z" fill="#000000" fill-rule="nonzero" fill-opacity="1" /><path clip-path="url(#clip730)" d="M1334.16 48.0275 L1334.16 51.6733 L1299.89 51.6733 Q1300.38 59.3701 1304.51 63.421 Q1308.68 67.4314 1316.1 67.4314 Q1320.39 67.4314 1324.4 66.3781 Q1328.45 65.3249 1332.42 63.2184 L1332.42 70.267 Q1328.41 71.9684 1324.2 72.8596 Q1319.99 73.7508 1315.65 73.7508 Q1304.79 73.7508 1298.43 67.4314 Q1292.12 61.1119 1292.12 50.3365 Q1292.12 39.1965 1298.11 32.6746 Q1304.15 26.1121 1314.35 26.1121 Q1323.51 26.1121 1328.82 32.0264 Q1334.16 37.9003 1334.16 48.0275 M1326.71 45.84 Q1326.63 39.7232 1323.27 36.0774 Q1319.95 32.4315 1314.44 32.4315 Q1308.2 32.4315 1304.43 35.9558 Q1300.7 39.4801 1300.14 45.8805 L1326.71 45.84 Z" fill="#000000" fill-rule="nonzero" fill-opacity="1" /><path clip-path="url(#clip730)" d="M1346.4 9.54393 L1353.85 9.54393 L1353.85 72.576 L1346.4 72.576 L1346.4 9.54393 Z" fill="#000000" fill-rule="nonzero" fill-opacity="1" /><path clip-path="url(#clip730)" d="M1396.14 12.096 L1404.33 12.096 L1404.33 65.6895 L1433.78 65.6895 L1433.78 72.576 L1396.14 72.576 L1396.14 12.096 Z" fill="#000000" fill-rule="nonzero" fill-opacity="1" /><path clip-path="url(#clip730)" d="M1458.16 32.4315 Q1452.17 32.4315 1448.68 37.1306 Q1445.2 41.7891 1445.2 49.9314 Q1445.2 58.0738 1448.64 62.7728 Q1452.13 67.4314 1458.16 67.4314 Q1464.12 67.4314 1467.6 62.7323 Q1471.08 58.0333 1471.08 49.9314 Q1471.08 41.8701 1467.6 37.1711 Q1464.12 32.4315 1458.16 32.4315 M1458.16 26.1121 Q1467.88 26.1121 1473.43 32.4315 Q1478.98 38.7509 1478.98 49.9314 Q1478.98 61.0714 1473.43 67.4314 Q1467.88 73.7508 1458.16 73.7508 Q1448.4 73.7508 1442.85 67.4314 Q1437.34 61.0714 1437.34 49.9314 Q1437.34 38.7509 1442.85 32.4315 Q1448.4 26.1121 1458.16 26.1121 Z" fill="#000000" fill-rule="nonzero" fill-opacity="1" /><path clip-path="url(#clip730)" d="M1511.96 49.7694 Q1502.92 49.7694 1499.44 51.8354 Q1495.96 53.9013 1495.96 58.8839 Q1495.96 62.8538 1498.55 65.2034 Q1501.18 67.5124 1505.68 67.5124 Q1511.88 67.5124 1515.6 63.1374 Q1519.37 58.7219 1519.37 51.4303 L1519.37 49.7694 L1511.96 49.7694 M1526.82 46.6907 L1526.82 72.576 L1519.37 72.576 L1519.37 65.6895 Q1516.82 69.8214 1513.01 71.8063 Q1509.2 73.7508 1503.69 73.7508 Q1496.73 73.7508 1492.59 69.8619 Q1488.5 65.9325 1488.5 59.3701 Q1488.5 51.7138 1493.61 47.825 Q1498.75 43.9361 1508.92 43.9361 L1519.37 43.9361 L1519.37 43.2069 Q1519.37 38.0623 1515.97 35.2672 Q1512.61 32.4315 1506.49 32.4315 Q1502.6 32.4315 1498.91 33.3632 Q1495.23 34.295 1491.83 36.1584 L1491.83 29.2718 Q1495.92 27.692 1499.76 26.9223 Q1503.61 26.1121 1507.26 26.1121 Q1517.1 26.1121 1521.96 31.2163 Q1526.82 36.3204 1526.82 46.6907 Z" fill="#000000" fill-rule="nonzero" fill-opacity="1" /><path clip-path="url(#clip730)" d="M1572.03 34.0924 L1572.03 9.54393 L1579.49 9.54393 L1579.49 72.576 L1572.03 72.576 L1572.03 65.7705 Q1569.68 69.8214 1566.08 71.8063 Q1562.51 73.7508 1557.49 73.7508 Q1549.27 73.7508 1544.08 67.1883 Q1538.94 60.6258 1538.94 49.9314 Q1538.94 39.2371 1544.08 32.6746 Q1549.27 26.1121 1557.49 26.1121 Q1562.51 26.1121 1566.08 28.0971 Q1569.68 30.0415 1572.03 34.0924 M1546.63 49.9314 Q1546.63 58.1548 1550 62.8538 Q1553.4 67.5124 1559.31 67.5124 Q1565.23 67.5124 1568.63 62.8538 Q1572.03 58.1548 1572.03 49.9314 Q1572.03 41.7081 1568.63 37.0496 Q1565.23 32.3505 1559.31 32.3505 Q1553.4 32.3505 1550 37.0496 Q1546.63 41.7081 1546.63 49.9314 Z" fill="#000000" fill-rule="nonzero" fill-opacity="1" /><path clip-path="url(#clip730)" d="M1657.79 14.0809 L1657.79 22.0612 Q1653.13 19.8332 1649 18.7395 Q1644.87 17.6457 1641.02 17.6457 Q1634.34 17.6457 1630.69 20.2383 Q1627.08 22.8309 1627.08 27.611 Q1627.08 31.6214 1629.47 33.6873 Q1631.91 35.7128 1638.63 36.9686 L1643.57 37.9813 Q1652.73 39.7232 1657.06 44.1387 Q1661.44 48.5136 1661.44 55.8863 Q1661.44 64.6767 1655.52 69.2137 Q1649.65 73.7508 1638.27 73.7508 Q1633.97 73.7508 1629.11 72.7785 Q1624.29 71.8063 1619.1 69.9024 L1619.1 61.4765 Q1624.09 64.2716 1628.87 65.6895 Q1633.65 67.1073 1638.27 67.1073 Q1645.27 67.1073 1649.08 64.3527 Q1652.89 61.598 1652.89 56.4939 Q1652.89 52.0379 1650.13 49.5264 Q1647.42 47.0148 1641.18 45.759 L1636.2 44.7868 Q1627.04 42.9639 1622.95 39.075 Q1618.86 35.1862 1618.86 28.2591 Q1618.86 20.2383 1624.49 15.6203 Q1630.16 11.0023 1640.09 11.0023 Q1644.34 11.0023 1648.76 11.7719 Q1653.17 12.5416 1657.79 14.0809 Z" fill="#000000" fill-rule="nonzero" fill-opacity="1" /><path clip-path="url(#clip730)" d="M1711.59 45.1919 L1711.59 72.576 L1704.13 72.576 L1704.13 45.4349 Q1704.13 38.994 1701.62 35.7938 Q1699.11 32.5936 1694.09 32.5936 Q1688.05 32.5936 1684.57 36.4419 Q1681.08 40.2903 1681.08 46.9338 L1681.08 72.576 L1673.59 72.576 L1673.59 9.54393 L1681.08 9.54393 L1681.08 34.2544 Q1683.76 30.163 1687.36 28.1376 Q1691.01 26.1121 1695.75 26.1121 Q1703.57 26.1121 1707.58 30.9732 Q1711.59 35.7938 1711.59 45.1919 Z" fill="#000000" fill-rule="nonzero" fill-opacity="1" /><path clip-path="url(#clip730)" d="M1765.26 48.0275 L1765.26 51.6733 L1730.99 51.6733 Q1731.48 59.3701 1735.61 63.421 Q1739.78 67.4314 1747.19 67.4314 Q1751.49 67.4314 1755.5 66.3781 Q1759.55 65.3249 1763.52 63.2184 L1763.52 70.267 Q1759.51 71.9684 1755.3 72.8596 Q1751.08 73.7508 1746.75 73.7508 Q1735.89 73.7508 1729.53 67.4314 Q1723.21 61.1119 1723.21 50.3365 Q1723.21 39.1965 1729.21 32.6746 Q1735.24 26.1121 1745.45 26.1121 Q1754.61 26.1121 1759.91 32.0264 Q1765.26 37.9003 1765.26 48.0275 M1757.81 45.84 Q1757.73 39.7232 1754.36 36.0774 Q1751.04 32.4315 1745.53 32.4315 Q1739.29 32.4315 1735.53 35.9558 Q1731.8 39.4801 1731.23 45.8805 L1757.81 45.84 Z" fill="#000000" fill-rule="nonzero" fill-opacity="1" /><path clip-path="url(#clip730)" d="M1807.35 34.0924 L1807.35 9.54393 L1814.8 9.54393 L1814.8 72.576 L1807.35 72.576 L1807.35 65.7705 Q1805 69.8214 1801.4 71.8063 Q1797.83 73.7508 1792.81 73.7508 Q1784.58 73.7508 1779.4 67.1883 Q1774.25 60.6258 1774.25 49.9314 Q1774.25 39.2371 1779.4 32.6746 Q1784.58 26.1121 1792.81 26.1121 Q1797.83 26.1121 1801.4 28.0971 Q1805 30.0415 1807.35 34.0924 M1781.95 49.9314 Q1781.95 58.1548 1785.31 62.8538 Q1788.72 67.5124 1794.63 67.5124 Q1800.54 67.5124 1803.95 62.8538 Q1807.35 58.1548 1807.35 49.9314 Q1807.35 41.7081 1803.95 37.0496 Q1800.54 32.3505 1794.63 32.3505 Q1788.72 32.3505 1785.31 37.0496 Q1781.95 41.7081 1781.95 49.9314 Z" fill="#000000" fill-rule="nonzero" fill-opacity="1" /><path clip-path="url(#clip730)" d="M1902.14 16.7545 L1902.14 25.383 Q1898.01 21.5346 1893.31 19.6307 Q1888.65 17.7268 1883.39 17.7268 Q1873.02 17.7268 1867.51 24.0867 Q1862 30.4061 1862 42.3968 Q1862 54.3469 1867.51 60.7069 Q1873.02 67.0263 1883.39 67.0263 Q1888.65 67.0263 1893.31 65.1223 Q1898.01 63.2184 1902.14 59.3701 L1902.14 67.9175 Q1897.85 70.8341 1893.03 72.2924 Q1888.25 73.7508 1882.9 73.7508 Q1869.17 73.7508 1861.27 65.3654 Q1853.37 56.9395 1853.37 42.3968 Q1853.37 27.8135 1861.27 19.4281 Q1869.17 11.0023 1882.9 11.0023 Q1888.33 11.0023 1893.11 12.4606 Q1897.93 13.8784 1902.14 16.7545 Z" fill="#000000" fill-rule="nonzero" fill-opacity="1" /><path clip-path="url(#clip730)" d="M1932.04 32.4315 Q1926.04 32.4315 1922.56 37.1306 Q1919.07 41.7891 1919.07 49.9314 Q1919.07 58.0738 1922.52 62.7728 Q1926 67.4314 1932.04 67.4314 Q1937.99 67.4314 1941.48 62.7323 Q1944.96 58.0333 1944.96 49.9314 Q1944.96 41.8701 1941.48 37.1711 Q1937.99 32.4315 1932.04 32.4315 M1932.04 26.1121 Q1941.76 26.1121 1947.31 32.4315 Q1952.86 38.7509 1952.86 49.9314 Q1952.86 61.0714 1947.31 67.4314 Q1941.76 73.7508 1932.04 73.7508 Q1922.27 73.7508 1916.72 67.4314 Q1911.22 61.0714 1911.22 49.9314 Q1911.22 38.7509 1916.72 32.4315 Q1922.27 26.1121 1932.04 26.1121 Z" fill="#000000" fill-rule="nonzero" fill-opacity="1" /><path clip-path="url(#clip730)" d="M2000.54 35.9153 Q2003.33 30.8922 2007.22 28.5022 Q2011.11 26.1121 2016.38 26.1121 Q2023.47 26.1121 2027.31 31.0947 Q2031.16 36.0368 2031.16 45.1919 L2031.16 72.576 L2023.67 72.576 L2023.67 45.4349 Q2023.67 38.913 2021.36 35.7533 Q2019.05 32.5936 2014.31 32.5936 Q2008.52 32.5936 2005.16 36.4419 Q2001.79 40.2903 2001.79 46.9338 L2001.79 72.576 L1994.3 72.576 L1994.3 45.4349 Q1994.3 38.8725 1991.99 35.7533 Q1989.68 32.5936 1984.86 32.5936 Q1979.15 32.5936 1975.79 36.4824 Q1972.42 40.3308 1972.42 46.9338 L1972.42 72.576 L1964.93 72.576 L1964.93 27.2059 L1972.42 27.2059 L1972.42 34.2544 Q1974.98 30.082 1978.54 28.0971 Q1982.11 26.1121 1987.01 26.1121 Q1991.95 26.1121 1995.39 28.6237 Q1998.88 31.1352 2000.54 35.9153 Z" fill="#000000" fill-rule="nonzero" fill-opacity="1" /><path clip-path="url(#clip730)" d="M2053.24 65.7705 L2053.24 89.8329 L2045.75 89.8329 L2045.75 27.2059 L2053.24 27.2059 L2053.24 34.0924 Q2055.59 30.0415 2059.15 28.0971 Q2062.76 26.1121 2067.74 26.1121 Q2076.01 26.1121 2081.15 32.6746 Q2086.34 39.2371 2086.34 49.9314 Q2086.34 60.6258 2081.15 67.1883 Q2076.01 73.7508 2067.74 73.7508 Q2062.76 73.7508 2059.15 71.8063 Q2055.59 69.8214 2053.24 65.7705 M2078.6 49.9314 Q2078.6 41.7081 2075.2 37.0496 Q2071.83 32.3505 2065.92 32.3505 Q2060 32.3505 2056.6 37.0496 Q2053.24 41.7081 2053.24 49.9314 Q2053.24 58.1548 2056.6 62.8538 Q2060 67.5124 2065.92 67.5124 Q2071.83 67.5124 2075.2 62.8538 Q2078.6 58.1548 2078.6 49.9314 Z" fill="#000000" fill-rule="nonzero" fill-opacity="1" /><path clip-path="url(#clip730)" d="M2119.31 49.7694 Q2110.28 49.7694 2106.79 51.8354 Q2103.31 53.9013 2103.31 58.8839 Q2103.31 62.8538 2105.9 65.2034 Q2108.53 67.5124 2113.03 67.5124 Q2119.23 67.5124 2122.96 63.1374 Q2126.72 58.7219 2126.72 51.4303 L2126.72 49.7694 L2119.31 49.7694 M2134.18 46.6907 L2134.18 72.576 L2126.72 72.576 L2126.72 65.6895 Q2124.17 69.8214 2120.36 71.8063 Q2116.56 73.7508 2111.05 73.7508 Q2104.08 73.7508 2099.95 69.8619 Q2095.86 65.9325 2095.86 59.3701 Q2095.86 51.7138 2100.96 47.825 Q2106.1 43.9361 2116.27 43.9361 L2126.72 43.9361 L2126.72 43.2069 Q2126.72 38.0623 2123.32 35.2672 Q2119.96 32.4315 2113.84 32.4315 Q2109.95 32.4315 2106.27 33.3632 Q2102.58 34.295 2099.18 36.1584 L2099.18 29.2718 Q2103.27 27.692 2107.12 26.9223 Q2110.97 26.1121 2114.61 26.1121 Q2124.45 26.1121 2129.32 31.2163 Q2134.18 36.3204 2134.18 46.6907 Z" fill="#000000" fill-rule="nonzero" fill-opacity="1" /><path clip-path="url(#clip730)" d="M2175.82 34.1734 Q2174.56 33.4443 2173.07 33.1202 Q2171.61 32.7556 2169.82 32.7556 Q2163.51 32.7556 2160.1 36.8875 Q2156.74 40.9789 2156.74 48.6757 L2156.74 72.576 L2149.25 72.576 L2149.25 27.2059 L2156.74 27.2059 L2156.74 34.2544 Q2159.09 30.1225 2162.86 28.1376 Q2166.62 26.1121 2172.01 26.1121 Q2172.78 26.1121 2173.71 26.2337 Q2174.65 26.3147 2175.78 26.5172 L2175.82 34.1734 Z" fill="#000000" fill-rule="nonzero" fill-opacity="1" /><path clip-path="url(#clip730)" d="M2183.64 27.2059 L2191.09 27.2059 L2191.09 72.576 L2183.64 72.576 L2183.64 27.2059 M2183.64 9.54393 L2191.09 9.54393 L2191.09 18.9825 L2183.64 18.9825 L2183.64 9.54393 Z" fill="#000000" fill-rule="nonzero" fill-opacity="1" /><path clip-path="url(#clip730)" d="M2235.61 28.5427 L2235.61 35.5912 Q2232.45 33.9709 2229.05 33.1607 Q2225.65 32.3505 2222 32.3505 Q2216.45 32.3505 2213.66 34.0519 Q2210.9 35.7533 2210.9 39.156 Q2210.9 41.7486 2212.89 43.2475 Q2214.87 44.7058 2220.87 46.0426 L2223.42 46.6097 Q2231.36 48.3111 2234.68 51.4303 Q2238.04 54.509 2238.04 60.0587 Q2238.04 66.3781 2233.02 70.0644 Q2228.04 73.7508 2219.29 73.7508 Q2215.64 73.7508 2211.67 73.0216 Q2207.74 72.3329 2203.37 70.9151 L2203.37 63.2184 Q2207.5 65.3654 2211.51 66.4591 Q2215.52 67.5124 2219.45 67.5124 Q2224.71 67.5124 2227.55 65.73 Q2230.39 63.9071 2230.39 60.6258 Q2230.39 57.5877 2228.32 55.9673 Q2226.29 54.3469 2219.37 52.8481 L2216.77 52.2405 Q2209.85 50.7821 2206.77 47.7845 Q2203.69 44.7463 2203.69 39.4801 Q2203.69 33.0797 2208.23 29.5959 Q2212.76 26.1121 2221.11 26.1121 Q2225.24 26.1121 2228.89 26.7198 Q2232.53 27.3274 2235.61 28.5427 Z" fill="#000000" fill-rule="nonzero" fill-opacity="1" /><path clip-path="url(#clip730)" d="M2267.49 32.4315 Q2261.5 32.4315 2258.01 37.1306 Q2254.53 41.7891 2254.53 49.9314 Q2254.53 58.0738 2257.97 62.7728 Q2261.46 67.4314 2267.49 67.4314 Q2273.45 67.4314 2276.93 62.7323 Q2280.41 58.0333 2280.41 49.9314 Q2280.41 41.8701 2276.93 37.1711 Q2273.45 32.4315 2267.49 32.4315 M2267.49 26.1121 Q2277.21 26.1121 2282.76 32.4315 Q2288.31 38.7509 2288.31 49.9314 Q2288.31 61.0714 2282.76 67.4314 Q2277.21 73.7508 2267.49 73.7508 Q2257.73 73.7508 2252.18 67.4314 Q2246.67 61.0714 2246.67 49.9314 Q2246.67 38.7509 2252.18 32.4315 Q2257.73 26.1121 2267.49 26.1121 Z" fill="#000000" fill-rule="nonzero" fill-opacity="1" /><path clip-path="url(#clip730)" d="M2338.38 45.1919 L2338.38 72.576 L2330.93 72.576 L2330.93 45.4349 Q2330.93 38.994 2328.42 35.7938 Q2325.91 32.5936 2320.88 32.5936 Q2314.85 32.5936 2311.36 36.4419 Q2307.88 40.2903 2307.88 46.9338 L2307.88 72.576 L2300.39 72.576 L2300.39 27.2059 L2307.88 27.2059 L2307.88 34.2544 Q2310.55 30.163 2314.16 28.1376 Q2317.8 26.1121 2322.54 26.1121 Q2330.36 26.1121 2334.37 30.9732 Q2338.38 35.7938 2338.38 45.1919 Z" fill="#000000" fill-rule="nonzero" fill-opacity="1" /><polyline clip-path="url(#clip732)" style="stroke:#009af9; stroke-linecap:round; stroke-linejoin:round; stroke-width:4; stroke-opacity:1; fill:none" points="323.395,1386.4 542.312,1386.4 761.229,1386.4 980.146,1386.4 1199.06,1386.4 1417.98,1386.4 1636.9,1386.4 1855.81,1386.4 2074.73,1386.4 2293.65,1386.4 "/>
<polyline clip-path="url(#clip732)" style="stroke:#e26f46; stroke-linecap:round; stroke-linejoin:round; stroke-width:4; stroke-opacity:1; fill:none" points="323.395,1386.4 542.312,1386.4 761.229,1386.4 980.146,1386.4 1199.06,1386.4 1417.98,1386.4 1636.9,1386.4 1855.81,1386.4 2074.73,1386.4 2293.65,1386.4 "/>
<polyline clip-path="url(#clip732)" style="stroke:#3da44d; stroke-linecap:round; stroke-linejoin:round; stroke-width:4; stroke-opacity:1; fill:none" points="323.395,1386.4 542.312,1386.4 761.229,1386.4 980.146,1386.4 1199.06,1386.4 1417.98,1386.4 1636.9,1386.4 1855.81,1386.4 2074.73,1386.4 2293.65,1386.4 "/>
<polyline clip-path="url(#clip732)" style="stroke:#c271d2; stroke-linecap:round; stroke-linejoin:round; stroke-width:4; stroke-opacity:1; fill:none" points="323.395,1386.4 542.312,1386.4 761.229,1386.4 980.146,1386.4 1199.06,1386.4 1417.98,1386.4 1636.9,1386.4 1855.81,1386.4 2074.73,1386.4 2293.65,1386.4 "/>
<polyline clip-path="url(#clip732)" style="stroke:#ac8d18; stroke-linecap:round; stroke-linejoin:round; stroke-width:4; stroke-opacity:1; fill:none" points="323.395,1386.4 542.312,160.256 761.229,160.256 980.146,160.256 1199.06,160.256 1417.98,160.256 1636.9,160.256 1855.81,160.256 2074.73,160.256 2293.65,160.256 "/>
<path clip-path="url(#clip730)" d="M333.903 477.836 L840.549 477.836 L840.549 166.796 L333.903 166.796  Z" fill="#ffffff" fill-rule="evenodd" fill-opacity="1"/>
<polyline clip-path="url(#clip730)" style="stroke:#000000; stroke-linecap:round; stroke-linejoin:round; stroke-width:4; stroke-opacity:1; fill:none" points="333.903,477.836 840.549,477.836 840.549,166.796 333.903,166.796 333.903,477.836 "/>
<polyline clip-path="url(#clip730)" style="stroke:#009af9; stroke-linecap:round; stroke-linejoin:round; stroke-width:4; stroke-opacity:1; fill:none" points="357.108,218.636 496.339,218.636 "/>
<path clip-path="url(#clip730)" d="M523.827 232.027 L523.827 245.777 L519.545 245.777 L519.545 209.99 L523.827 209.99 L523.827 213.925 Q525.17 211.61 527.207 210.499 Q529.267 209.365 532.114 209.365 Q536.836 209.365 539.776 213.115 Q542.739 216.865 542.739 222.976 Q542.739 229.087 539.776 232.837 Q536.836 236.587 532.114 236.587 Q529.267 236.587 527.207 235.476 Q525.17 234.342 523.827 232.027 M538.318 222.976 Q538.318 218.277 536.373 215.615 Q534.452 212.93 531.072 212.93 Q527.693 212.93 525.748 215.615 Q523.827 218.277 523.827 222.976 Q523.827 227.675 525.748 230.36 Q527.693 233.022 531.072 233.022 Q534.452 233.022 536.373 230.36 Q538.318 227.675 538.318 222.976 Z" fill="#000000" fill-rule="nonzero" fill-opacity="1" /><path clip-path="url(#clip730)" d="M564.822 213.971 Q564.105 213.555 563.248 213.37 Q562.415 213.161 561.396 213.161 Q557.785 213.161 555.841 215.522 Q553.919 217.86 553.919 222.258 L553.919 235.916 L549.637 235.916 L549.637 209.99 L553.919 209.99 L553.919 214.018 Q555.262 211.657 557.415 210.522 Q559.568 209.365 562.646 209.365 Q563.086 209.365 563.618 209.434 Q564.151 209.481 564.799 209.596 L564.822 213.971 Z" fill="#000000" fill-rule="nonzero" fill-opacity="1" /><path clip-path="url(#clip730)" d="M578.294 212.976 Q574.868 212.976 572.878 215.661 Q570.887 218.323 570.887 222.976 Q570.887 227.629 572.854 230.314 Q574.845 232.976 578.294 232.976 Q581.697 232.976 583.688 230.291 Q585.679 227.606 585.679 222.976 Q585.679 218.37 583.688 215.684 Q581.697 212.976 578.294 212.976 M578.294 209.365 Q583.85 209.365 587.021 212.976 Q590.192 216.587 590.192 222.976 Q590.192 229.342 587.021 232.976 Q583.85 236.587 578.294 236.587 Q572.716 236.587 569.544 232.976 Q566.396 229.342 566.396 222.976 Q566.396 216.587 569.544 212.976 Q572.716 209.365 578.294 209.365 Z" fill="#000000" fill-rule="nonzero" fill-opacity="1" /><path clip-path="url(#clip730)" d="M601.373 232.027 L601.373 245.777 L597.09 245.777 L597.09 209.99 L601.373 209.99 L601.373 213.925 Q602.715 211.61 604.752 210.499 Q606.813 209.365 609.66 209.365 Q614.382 209.365 617.322 213.115 Q620.285 216.865 620.285 222.976 Q620.285 229.087 617.322 232.837 Q614.382 236.587 609.66 236.587 Q606.813 236.587 604.752 235.476 Q602.715 234.342 601.373 232.027 M615.864 222.976 Q615.864 218.277 613.919 215.615 Q611.998 212.93 608.618 212.93 Q605.239 212.93 603.294 215.615 Q601.373 218.277 601.373 222.976 Q601.373 227.675 603.294 230.36 Q605.239 233.022 608.618 233.022 Q611.998 233.022 613.919 230.36 Q615.864 227.675 615.864 222.976 Z" fill="#000000" fill-rule="nonzero" fill-opacity="1" /><path clip-path="url(#clip730)" d="M637.391 212.976 Q633.965 212.976 631.975 215.661 Q629.984 218.323 629.984 222.976 Q629.984 227.629 631.951 230.314 Q633.942 232.976 637.391 232.976 Q640.794 232.976 642.785 230.291 Q644.775 227.606 644.775 222.976 Q644.775 218.37 642.785 215.684 Q640.794 212.976 637.391 212.976 M637.391 209.365 Q642.947 209.365 646.118 212.976 Q649.289 216.587 649.289 222.976 Q649.289 229.342 646.118 232.976 Q642.947 236.587 637.391 236.587 Q631.813 236.587 628.641 232.976 Q625.493 229.342 625.493 222.976 Q625.493 216.587 628.641 212.976 Q631.813 209.365 637.391 209.365 Z" fill="#000000" fill-rule="nonzero" fill-opacity="1" /><path clip-path="url(#clip730)" d="M671.372 213.971 Q670.655 213.555 669.798 213.37 Q668.965 213.161 667.947 213.161 Q664.335 213.161 662.391 215.522 Q660.47 217.86 660.47 222.258 L660.47 235.916 L656.187 235.916 L656.187 209.99 L660.47 209.99 L660.47 214.018 Q661.812 211.657 663.965 210.522 Q666.118 209.365 669.197 209.365 Q669.636 209.365 670.169 209.434 Q670.701 209.481 671.349 209.596 L671.372 213.971 Z" fill="#000000" fill-rule="nonzero" fill-opacity="1" /><path clip-path="url(#clip730)" d="M680.053 202.629 L680.053 209.99 L688.826 209.99 L688.826 213.3 L680.053 213.3 L680.053 227.374 Q680.053 230.545 680.909 231.448 Q681.789 232.351 684.451 232.351 L688.826 232.351 L688.826 235.916 L684.451 235.916 Q679.521 235.916 677.646 234.087 Q675.771 232.235 675.771 227.374 L675.771 213.3 L672.646 213.3 L672.646 209.99 L675.771 209.99 L675.771 202.629 L680.053 202.629 Z" fill="#000000" fill-rule="nonzero" fill-opacity="1" /><path clip-path="url(#clip730)" d="M694.428 209.99 L698.687 209.99 L698.687 235.916 L694.428 235.916 L694.428 209.99 M694.428 199.897 L698.687 199.897 L698.687 205.291 L694.428 205.291 L694.428 199.897 Z" fill="#000000" fill-rule="nonzero" fill-opacity="1" /><path clip-path="url(#clip730)" d="M717.645 212.976 Q714.219 212.976 712.229 215.661 Q710.238 218.323 710.238 222.976 Q710.238 227.629 712.206 230.314 Q714.196 232.976 717.645 232.976 Q721.048 232.976 723.039 230.291 Q725.03 227.606 725.03 222.976 Q725.03 218.37 723.039 215.684 Q721.048 212.976 717.645 212.976 M717.645 209.365 Q723.201 209.365 726.372 212.976 Q729.543 216.587 729.543 222.976 Q729.543 229.342 726.372 232.976 Q723.201 236.587 717.645 236.587 Q712.067 236.587 708.895 232.976 Q705.747 229.342 705.747 222.976 Q705.747 216.587 708.895 212.976 Q712.067 209.365 717.645 209.365 Z" fill="#000000" fill-rule="nonzero" fill-opacity="1" /><path clip-path="url(#clip730)" d="M758.154 220.268 L758.154 235.916 L753.895 235.916 L753.895 220.407 Q753.895 216.726 752.46 214.897 Q751.025 213.069 748.154 213.069 Q744.705 213.069 742.715 215.268 Q740.724 217.467 740.724 221.263 L740.724 235.916 L736.442 235.916 L736.442 209.99 L740.724 209.99 L740.724 214.018 Q742.252 211.68 744.312 210.522 Q746.395 209.365 749.104 209.365 Q753.571 209.365 755.863 212.143 Q758.154 214.897 758.154 220.268 Z" fill="#000000" fill-rule="nonzero" fill-opacity="1" /><path clip-path="url(#clip730)" d="M778.432 222.883 Q773.27 222.883 771.279 224.064 Q769.289 225.244 769.289 228.092 Q769.289 230.36 770.77 231.703 Q772.275 233.022 774.844 233.022 Q778.386 233.022 780.515 230.522 Q782.668 227.999 782.668 223.832 L782.668 222.883 L778.432 222.883 M786.927 221.124 L786.927 235.916 L782.668 235.916 L782.668 231.981 Q781.21 234.342 779.034 235.476 Q776.858 236.587 773.71 236.587 Q769.728 236.587 767.367 234.365 Q765.029 232.119 765.029 228.369 Q765.029 223.994 767.946 221.772 Q770.886 219.55 776.696 219.55 L782.668 219.55 L782.668 219.133 Q782.668 216.194 780.724 214.596 Q778.802 212.976 775.307 212.976 Q773.085 212.976 770.978 213.508 Q768.872 214.041 766.928 215.106 L766.928 211.17 Q769.265 210.268 771.465 209.828 Q773.664 209.365 775.747 209.365 Q781.372 209.365 784.15 212.282 Q786.927 215.198 786.927 221.124 Z" fill="#000000" fill-rule="nonzero" fill-opacity="1" /><path clip-path="url(#clip730)" d="M795.701 199.897 L799.96 199.897 L799.96 235.916 L795.701 235.916 L795.701 199.897 Z" fill="#000000" fill-rule="nonzero" fill-opacity="1" /><polyline clip-path="url(#clip730)" style="stroke:#e26f46; stroke-linecap:round; stroke-linejoin:round; stroke-width:4; stroke-opacity:1; fill:none" points="357.108,270.476 496.339,270.476 "/>
<path clip-path="url(#clip730)" d="M543.572 273.728 L543.572 275.811 L523.989 275.811 Q524.267 280.209 526.628 282.524 Q529.012 284.816 533.248 284.816 Q535.702 284.816 537.994 284.214 Q540.308 283.612 542.577 282.409 L542.577 286.436 Q540.285 287.408 537.878 287.918 Q535.47 288.427 532.994 288.427 Q526.79 288.427 523.156 284.816 Q519.545 281.205 519.545 275.047 Q519.545 268.682 522.971 264.955 Q526.42 261.205 532.253 261.205 Q537.484 261.205 540.517 264.585 Q543.572 267.941 543.572 273.728 M539.313 272.478 Q539.267 268.983 537.345 266.899 Q535.447 264.816 532.299 264.816 Q528.734 264.816 526.582 266.83 Q524.452 268.844 524.128 272.501 L539.313 272.478 Z" fill="#000000" fill-rule="nonzero" fill-opacity="1" /><path clip-path="url(#clip730)" d="M563.688 251.737 L563.688 255.279 L559.614 255.279 Q557.322 255.279 556.419 256.205 Q555.54 257.131 555.54 259.538 L555.54 261.83 L562.554 261.83 L562.554 265.14 L555.54 265.14 L555.54 287.756 L551.257 287.756 L551.257 265.14 L547.183 265.14 L547.183 261.83 L551.257 261.83 L551.257 260.024 Q551.257 255.696 553.271 253.728 Q555.285 251.737 559.66 251.737 L563.688 251.737 Z" fill="#000000" fill-rule="nonzero" fill-opacity="1" /><path clip-path="url(#clip730)" d="M580.378 251.737 L580.378 255.279 L576.304 255.279 Q574.012 255.279 573.109 256.205 Q572.229 257.131 572.229 259.538 L572.229 261.83 L579.243 261.83 L579.243 265.14 L572.229 265.14 L572.229 287.756 L567.947 287.756 L567.947 265.14 L563.873 265.14 L563.873 261.83 L567.947 261.83 L567.947 260.024 Q567.947 255.696 569.961 253.728 Q571.975 251.737 576.35 251.737 L580.378 251.737 Z" fill="#000000" fill-rule="nonzero" fill-opacity="1" /><path clip-path="url(#clip730)" d="M583.942 261.83 L588.202 261.83 L588.202 287.756 L583.942 287.756 L583.942 261.83 M583.942 251.737 L588.202 251.737 L588.202 257.131 L583.942 257.131 L583.942 251.737 Z" fill="#000000" fill-rule="nonzero" fill-opacity="1" /><path clip-path="url(#clip730)" d="M615.771 262.825 L615.771 266.807 Q613.965 265.811 612.137 265.325 Q610.331 264.816 608.479 264.816 Q604.336 264.816 602.044 267.455 Q599.752 270.071 599.752 274.816 Q599.752 279.561 602.044 282.2 Q604.336 284.816 608.479 284.816 Q610.331 284.816 612.137 284.33 Q613.965 283.821 615.771 282.825 L615.771 286.76 Q613.989 287.594 612.067 288.01 Q610.169 288.427 608.016 288.427 Q602.16 288.427 598.711 284.746 Q595.262 281.066 595.262 274.816 Q595.262 268.473 598.734 264.839 Q602.229 261.205 608.294 261.205 Q610.262 261.205 612.137 261.622 Q614.012 262.015 615.771 262.825 Z" fill="#000000" fill-rule="nonzero" fill-opacity="1" /><path clip-path="url(#clip730)" d="M623.178 261.83 L627.438 261.83 L627.438 287.756 L623.178 287.756 L623.178 261.83 M623.178 251.737 L627.438 251.737 L627.438 257.131 L623.178 257.131 L623.178 251.737 Z" fill="#000000" fill-rule="nonzero" fill-opacity="1" /><path clip-path="url(#clip730)" d="M658.525 273.728 L658.525 275.811 L638.942 275.811 Q639.22 280.209 641.581 282.524 Q643.965 284.816 648.201 284.816 Q650.655 284.816 652.947 284.214 Q655.261 283.612 657.53 282.409 L657.53 286.436 Q655.238 287.408 652.831 287.918 Q650.424 288.427 647.947 288.427 Q641.743 288.427 638.109 284.816 Q634.498 281.205 634.498 275.047 Q634.498 268.682 637.924 264.955 Q641.373 261.205 647.206 261.205 Q652.437 261.205 655.47 264.585 Q658.525 267.941 658.525 273.728 M654.266 272.478 Q654.22 268.983 652.299 266.899 Q650.4 264.816 647.252 264.816 Q643.687 264.816 641.535 266.83 Q639.405 268.844 639.081 272.501 L654.266 272.478 Z" fill="#000000" fill-rule="nonzero" fill-opacity="1" /><path clip-path="url(#clip730)" d="M687.067 272.108 L687.067 287.756 L682.808 287.756 L682.808 272.247 Q682.808 268.566 681.372 266.737 Q679.937 264.909 677.067 264.909 Q673.618 264.909 671.627 267.108 Q669.636 269.307 669.636 273.103 L669.636 287.756 L665.354 287.756 L665.354 261.83 L669.636 261.83 L669.636 265.858 Q671.164 263.52 673.224 262.362 Q675.308 261.205 678.016 261.205 Q682.484 261.205 684.775 263.983 Q687.067 266.737 687.067 272.108 Z" fill="#000000" fill-rule="nonzero" fill-opacity="1" /><path clip-path="url(#clip730)" d="M714.219 262.825 L714.219 266.807 Q712.414 265.811 710.585 265.325 Q708.78 264.816 706.928 264.816 Q702.784 264.816 700.493 267.455 Q698.201 270.071 698.201 274.816 Q698.201 279.561 700.493 282.2 Q702.784 284.816 706.928 284.816 Q708.78 284.816 710.585 284.33 Q712.414 283.821 714.219 282.825 L714.219 286.76 Q712.437 287.594 710.516 288.01 Q708.618 288.427 706.465 288.427 Q700.608 288.427 697.159 284.746 Q693.71 281.066 693.71 274.816 Q693.71 268.473 697.183 264.839 Q700.678 261.205 706.743 261.205 Q708.71 261.205 710.585 261.622 Q712.46 262.015 714.219 262.825 Z" fill="#000000" fill-rule="nonzero" fill-opacity="1" /><path clip-path="url(#clip730)" d="M732.414 290.163 Q730.608 294.793 728.895 296.205 Q727.182 297.617 724.312 297.617 L720.909 297.617 L720.909 294.052 L723.409 294.052 Q725.168 294.052 726.141 293.219 Q727.113 292.385 728.293 289.283 L729.057 287.339 L718.571 261.83 L723.085 261.83 L731.187 282.108 L739.289 261.83 L743.803 261.83 L732.414 290.163 Z" fill="#000000" fill-rule="nonzero" fill-opacity="1" /><polyline clip-path="url(#clip730)" style="stroke:#3da44d; stroke-linecap:round; stroke-linejoin:round; stroke-width:4; stroke-opacity:1; fill:none" points="357.108,322.316 496.339,322.316 "/>
<path clip-path="url(#clip730)" d="M539.892 318.647 Q541.489 315.776 543.711 314.411 Q545.933 313.045 548.943 313.045 Q552.993 313.045 555.193 315.892 Q557.392 318.716 557.392 323.948 L557.392 339.596 L553.109 339.596 L553.109 324.087 Q553.109 320.36 551.79 318.554 Q550.47 316.749 547.762 316.749 Q544.452 316.749 542.531 318.948 Q540.609 321.147 540.609 324.943 L540.609 339.596 L536.327 339.596 L536.327 324.087 Q536.327 320.337 535.007 318.554 Q533.688 316.749 530.933 316.749 Q527.67 316.749 525.748 318.971 Q523.827 321.17 523.827 324.943 L523.827 339.596 L519.545 339.596 L519.545 313.67 L523.827 313.67 L523.827 317.698 Q525.285 315.313 527.322 314.179 Q529.359 313.045 532.16 313.045 Q534.984 313.045 536.952 314.48 Q538.943 315.915 539.892 318.647 Z" fill="#000000" fill-rule="nonzero" fill-opacity="1" /><path clip-path="url(#clip730)" d="M565.887 313.67 L570.146 313.67 L570.146 339.596 L565.887 339.596 L565.887 313.67 M565.887 303.577 L570.146 303.577 L570.146 308.971 L565.887 308.971 L565.887 303.577 Z" fill="#000000" fill-rule="nonzero" fill-opacity="1" /><path clip-path="url(#clip730)" d="M600.609 323.948 L600.609 339.596 L596.35 339.596 L596.35 324.087 Q596.35 320.406 594.915 318.577 Q593.479 316.749 590.609 316.749 Q587.16 316.749 585.169 318.948 Q583.179 321.147 583.179 324.943 L583.179 339.596 L578.896 339.596 L578.896 313.67 L583.179 313.67 L583.179 317.698 Q584.706 315.36 586.766 314.202 Q588.85 313.045 591.558 313.045 Q596.026 313.045 598.317 315.823 Q600.609 318.577 600.609 323.948 Z" fill="#000000" fill-rule="nonzero" fill-opacity="1" /><path clip-path="url(#clip730)" d="M628.803 347.466 L628.803 350.776 L604.174 350.776 L604.174 347.466 L628.803 347.466 Z" fill="#000000" fill-rule="nonzero" fill-opacity="1" /><path clip-path="url(#clip730)" d="M652.993 318.647 Q654.59 315.776 656.812 314.411 Q659.035 313.045 662.044 313.045 Q666.095 313.045 668.294 315.892 Q670.493 318.716 670.493 323.948 L670.493 339.596 L666.21 339.596 L666.21 324.087 Q666.21 320.36 664.891 318.554 Q663.572 316.749 660.863 316.749 Q657.553 316.749 655.632 318.948 Q653.711 321.147 653.711 324.943 L653.711 339.596 L649.428 339.596 L649.428 324.087 Q649.428 320.337 648.109 318.554 Q646.789 316.749 644.035 316.749 Q640.771 316.749 638.85 318.971 Q636.928 321.17 636.928 324.943 L636.928 339.596 L632.646 339.596 L632.646 313.67 L636.928 313.67 L636.928 317.698 Q638.387 315.313 640.424 314.179 Q642.461 313.045 645.262 313.045 Q648.086 313.045 650.053 314.48 Q652.044 315.915 652.993 318.647 Z" fill="#000000" fill-rule="nonzero" fill-opacity="1" /><path clip-path="url(#clip730)" d="M690.771 326.563 Q685.609 326.563 683.618 327.744 Q681.627 328.924 681.627 331.772 Q681.627 334.04 683.109 335.383 Q684.613 336.702 687.183 336.702 Q690.724 336.702 692.854 334.202 Q695.007 331.679 695.007 327.512 L695.007 326.563 L690.771 326.563 M699.266 324.804 L699.266 339.596 L695.007 339.596 L695.007 335.661 Q693.548 338.022 691.372 339.156 Q689.196 340.267 686.048 340.267 Q682.067 340.267 679.706 338.045 Q677.368 335.799 677.368 332.049 Q677.368 327.674 680.284 325.452 Q683.224 323.23 689.034 323.23 L695.007 323.23 L695.007 322.813 Q695.007 319.874 693.062 318.276 Q691.141 316.656 687.646 316.656 Q685.423 316.656 683.317 317.188 Q681.21 317.721 679.266 318.786 L679.266 314.85 Q681.604 313.948 683.803 313.508 Q686.002 313.045 688.085 313.045 Q693.71 313.045 696.488 315.962 Q699.266 318.878 699.266 324.804 Z" fill="#000000" fill-rule="nonzero" fill-opacity="1" /><path clip-path="url(#clip730)" d="M729.59 313.67 L720.215 326.286 L730.076 339.596 L725.053 339.596 L717.506 329.411 L709.96 339.596 L704.937 339.596 L715.007 326.031 L705.794 313.67 L710.817 313.67 L717.692 322.906 L724.567 313.67 L729.59 313.67 Z" fill="#000000" fill-rule="nonzero" fill-opacity="1" /><polyline clip-path="url(#clip730)" style="stroke:#c271d2; stroke-linecap:round; stroke-linejoin:round; stroke-width:4; stroke-opacity:1; fill:none" points="357.108,374.156 496.339,374.156 "/>
<path clip-path="url(#clip730)" d="M524.869 365.51 L529.128 365.51 L529.128 391.899 Q529.128 396.852 527.23 399.075 Q525.355 401.297 521.165 401.297 L519.545 401.297 L519.545 397.686 L520.679 397.686 Q523.109 397.686 523.989 396.551 Q524.869 395.44 524.869 391.899 L524.869 365.51 M524.869 355.417 L529.128 355.417 L529.128 360.811 L524.869 360.811 L524.869 355.417 Z" fill="#000000" fill-rule="nonzero" fill-opacity="1" /><path clip-path="url(#clip730)" d="M549.822 378.403 Q544.66 378.403 542.669 379.584 Q540.679 380.764 540.679 383.612 Q540.679 385.88 542.16 387.223 Q543.665 388.542 546.234 388.542 Q549.776 388.542 551.906 386.042 Q554.058 383.519 554.058 379.352 L554.058 378.403 L549.822 378.403 M558.318 376.644 L558.318 391.436 L554.058 391.436 L554.058 387.501 Q552.6 389.862 550.424 390.996 Q548.248 392.107 545.1 392.107 Q541.119 392.107 538.757 389.885 Q536.42 387.639 536.42 383.889 Q536.42 379.514 539.336 377.292 Q542.276 375.07 548.086 375.07 L554.058 375.07 L554.058 374.653 Q554.058 371.714 552.114 370.116 Q550.193 368.496 546.697 368.496 Q544.475 368.496 542.369 369.028 Q540.262 369.561 538.318 370.626 L538.318 366.69 Q540.656 365.788 542.855 365.348 Q545.054 364.885 547.137 364.885 Q552.762 364.885 555.54 367.802 Q558.318 370.718 558.318 376.644 Z" fill="#000000" fill-rule="nonzero" fill-opacity="1" /><path clip-path="url(#clip730)" d="M567.091 365.51 L571.35 365.51 L571.35 391.436 L567.091 391.436 L567.091 365.51 M567.091 355.417 L571.35 355.417 L571.35 360.811 L567.091 360.811 L567.091 355.417 Z" fill="#000000" fill-rule="nonzero" fill-opacity="1" /><path clip-path="url(#clip730)" d="M601.813 375.788 L601.813 391.436 L597.553 391.436 L597.553 375.927 Q597.553 372.246 596.118 370.417 Q594.683 368.589 591.813 368.589 Q588.364 368.589 586.373 370.788 Q584.382 372.987 584.382 376.783 L584.382 391.436 L580.1 391.436 L580.1 365.51 L584.382 365.51 L584.382 369.538 Q585.91 367.2 587.97 366.042 Q590.053 364.885 592.762 364.885 Q597.229 364.885 599.521 367.663 Q601.813 370.417 601.813 375.788 Z" fill="#000000" fill-rule="nonzero" fill-opacity="1" /><polyline clip-path="url(#clip730)" style="stroke:#ac8d18; stroke-linecap:round; stroke-linejoin:round; stroke-width:4; stroke-opacity:1; fill:none" points="357.108,425.996 496.339,425.996 "/>
<path clip-path="url(#clip730)" d="M543.572 429.248 L543.572 431.331 L523.989 431.331 Q524.267 435.729 526.628 438.044 Q529.012 440.336 533.248 440.336 Q535.702 440.336 537.994 439.734 Q540.308 439.132 542.577 437.929 L542.577 441.956 Q540.285 442.928 537.878 443.438 Q535.47 443.947 532.994 443.947 Q526.79 443.947 523.156 440.336 Q519.545 436.725 519.545 430.567 Q519.545 424.202 522.971 420.475 Q526.42 416.725 532.253 416.725 Q537.484 416.725 540.517 420.105 Q543.572 423.461 543.572 429.248 M539.313 427.998 Q539.267 424.503 537.345 422.419 Q535.447 420.336 532.299 420.336 Q528.734 420.336 526.582 422.35 Q524.452 424.364 524.128 428.021 L539.313 427.998 Z" fill="#000000" fill-rule="nonzero" fill-opacity="1" /><path clip-path="url(#clip730)" d="M553.109 430.336 Q553.109 435.035 555.031 437.72 Q556.975 440.382 560.355 440.382 Q563.734 440.382 565.679 437.72 Q567.623 435.035 567.623 430.336 Q567.623 425.637 565.679 422.975 Q563.734 420.29 560.355 420.29 Q556.975 420.29 555.031 422.975 Q553.109 425.637 553.109 430.336 M567.623 439.387 Q566.28 441.702 564.22 442.836 Q562.183 443.947 559.313 443.947 Q554.614 443.947 551.651 440.197 Q548.711 436.447 548.711 430.336 Q548.711 424.225 551.651 420.475 Q554.614 416.725 559.313 416.725 Q562.183 416.725 564.22 417.859 Q566.28 418.97 567.623 421.285 L567.623 417.35 L571.882 417.35 L571.882 453.137 L567.623 453.137 L567.623 439.387 Z" fill="#000000" fill-rule="nonzero" fill-opacity="1" /><path clip-path="url(#clip730)" d="M580.216 433.044 L580.216 417.35 L584.475 417.35 L584.475 432.882 Q584.475 436.563 585.91 438.415 Q587.345 440.243 590.216 440.243 Q593.665 440.243 595.655 438.044 Q597.669 435.845 597.669 432.049 L597.669 417.35 L601.928 417.35 L601.928 443.276 L597.669 443.276 L597.669 439.294 Q596.118 441.655 594.058 442.813 Q592.021 443.947 589.313 443.947 Q584.845 443.947 582.53 441.169 Q580.216 438.391 580.216 433.044 M590.933 416.725 L590.933 416.725 Z" fill="#000000" fill-rule="nonzero" fill-opacity="1" /><path clip-path="url(#clip730)" d="M622.484 430.243 Q617.322 430.243 615.331 431.424 Q613.34 432.604 613.34 435.452 Q613.34 437.72 614.822 439.063 Q616.326 440.382 618.896 440.382 Q622.438 440.382 624.567 437.882 Q626.72 435.359 626.72 431.192 L626.72 430.243 L622.484 430.243 M630.979 428.484 L630.979 443.276 L626.72 443.276 L626.72 439.341 Q625.262 441.702 623.086 442.836 Q620.91 443.947 617.762 443.947 Q613.78 443.947 611.419 441.725 Q609.081 439.479 609.081 435.729 Q609.081 431.354 611.998 429.132 Q614.938 426.91 620.748 426.91 L626.72 426.91 L626.72 426.493 Q626.72 423.554 624.776 421.956 Q622.854 420.336 619.359 420.336 Q617.137 420.336 615.03 420.868 Q612.924 421.401 610.979 422.466 L610.979 418.53 Q613.317 417.628 615.516 417.188 Q617.715 416.725 619.799 416.725 Q625.424 416.725 628.201 419.642 Q630.979 422.558 630.979 428.484 Z" fill="#000000" fill-rule="nonzero" fill-opacity="1" /><path clip-path="url(#clip730)" d="M639.752 407.257 L644.012 407.257 L644.012 443.276 L639.752 443.276 L639.752 407.257 Z" fill="#000000" fill-rule="nonzero" fill-opacity="1" /><path clip-path="url(#clip730)" d="M652.924 417.35 L657.183 417.35 L657.183 443.276 L652.924 443.276 L652.924 417.35 M652.924 407.257 L657.183 407.257 L657.183 412.651 L652.924 412.651 L652.924 407.257 Z" fill="#000000" fill-rule="nonzero" fill-opacity="1" /><path clip-path="url(#clip730)" d="M670.308 409.989 L670.308 417.35 L679.081 417.35 L679.081 420.66 L670.308 420.66 L670.308 434.734 Q670.308 437.905 671.164 438.808 Q672.044 439.711 674.706 439.711 L679.081 439.711 L679.081 443.276 L674.706 443.276 Q669.775 443.276 667.9 441.447 Q666.025 439.595 666.025 434.734 L666.025 420.66 L662.9 420.66 L662.9 417.35 L666.025 417.35 L666.025 409.989 L670.308 409.989 Z" fill="#000000" fill-rule="nonzero" fill-opacity="1" /><path clip-path="url(#clip730)" d="M695.47 445.683 Q693.664 450.313 691.951 451.725 Q690.238 453.137 687.368 453.137 L683.965 453.137 L683.965 449.572 L686.465 449.572 Q688.224 449.572 689.196 448.739 Q690.169 447.905 691.349 444.803 L692.113 442.859 L681.627 417.35 L686.141 417.35 L694.243 437.628 L702.345 417.35 L706.858 417.35 L695.47 445.683 Z" fill="#000000" fill-rule="nonzero" fill-opacity="1" /><path clip-path="url(#clip730)" d="M732.437 451.146 L732.437 454.456 L707.807 454.456 L707.807 451.146 L732.437 451.146 Z" fill="#000000" fill-rule="nonzero" fill-opacity="1" /><path clip-path="url(#clip730)" d="M756.627 422.327 Q758.224 419.456 760.446 418.091 Q762.668 416.725 765.678 416.725 Q769.728 416.725 771.928 419.572 Q774.127 422.396 774.127 427.628 L774.127 443.276 L769.844 443.276 L769.844 427.767 Q769.844 424.04 768.525 422.234 Q767.205 420.429 764.497 420.429 Q761.187 420.429 759.266 422.628 Q757.344 424.827 757.344 428.623 L757.344 443.276 L753.062 443.276 L753.062 427.767 Q753.062 424.017 751.742 422.234 Q750.423 420.429 747.668 420.429 Q744.405 420.429 742.483 422.651 Q740.562 424.85 740.562 428.623 L740.562 443.276 L736.28 443.276 L736.28 417.35 L740.562 417.35 L740.562 421.378 Q742.02 418.993 744.057 417.859 Q746.094 416.725 748.895 416.725 Q751.719 416.725 753.687 418.16 Q755.678 419.595 756.627 422.327 Z" fill="#000000" fill-rule="nonzero" fill-opacity="1" /><path clip-path="url(#clip730)" d="M782.622 417.35 L786.881 417.35 L786.881 443.276 L782.622 443.276 L782.622 417.35 M782.622 407.257 L786.881 407.257 L786.881 412.651 L782.622 412.651 L782.622 407.257 Z" fill="#000000" fill-rule="nonzero" fill-opacity="1" /><path clip-path="url(#clip730)" d="M817.344 427.628 L817.344 443.276 L813.085 443.276 L813.085 427.767 Q813.085 424.086 811.65 422.257 Q810.214 420.429 807.344 420.429 Q803.895 420.429 801.904 422.628 Q799.913 424.827 799.913 428.623 L799.913 443.276 L795.631 443.276 L795.631 417.35 L799.913 417.35 L799.913 421.378 Q801.441 419.04 803.501 417.882 Q805.585 416.725 808.293 416.725 Q812.761 416.725 815.052 419.503 Q817.344 422.257 817.344 427.628 Z" fill="#000000" fill-rule="nonzero" fill-opacity="1" /></svg>
