<?xml version="1.0" encoding="utf-8"?>
<svg xmlns="http://www.w3.org/2000/svg" xmlns:xlink="http://www.w3.org/1999/xlink" width="600" height="400" viewBox="0 0 2400 1600">
<defs>
  <clipPath id="clip540">
    <rect x="0" y="0" width="2400" height="1600"/>
  </clipPath>
</defs>
<path clip-path="url(#clip540)" d="M0 1600 L2400 1600 L2400 0 L0 0  Z" fill="#ffffff" fill-rule="evenodd" fill-opacity="1"/>
<defs>
  <clipPath id="clip541">
    <rect x="249" y="123" width="2105" height="1301"/>
  </clipPath>
</defs>
<path clip-path="url(#clip540)" d="M249.01 1423.18 L2352.76 1423.18 L2352.76 123.472 L249.01 123.472  Z" fill="#ffffff" fill-rule="evenodd" fill-opacity="1"/>
<polyline clip-path="url(#clip541)" style="stroke:#000000; stroke-linecap:round; stroke-linejoin:round; stroke-width:2; stroke-opacity:0.1; fill:none" points="308.55,1423.18 308.55,123.472 "/>
<polyline clip-path="url(#clip541)" style="stroke:#000000; stroke-linecap:round; stroke-linejoin:round; stroke-width:2; stroke-opacity:0.1; fill:none" points="970.105,1423.18 970.105,123.472 "/>
<polyline clip-path="url(#clip541)" style="stroke:#000000; stroke-linecap:round; stroke-linejoin:round; stroke-width:2; stroke-opacity:0.1; fill:none" points="1631.66,1423.18 1631.66,123.472 "/>
<polyline clip-path="url(#clip541)" style="stroke:#000000; stroke-linecap:round; stroke-linejoin:round; stroke-width:2; stroke-opacity:0.1; fill:none" points="2293.22,1423.18 2293.22,123.472 "/>
<polyline clip-path="url(#clip541)" style="stroke:#000000; stroke-linecap:round; stroke-linejoin:round; stroke-width:2; stroke-opacity:0.1; fill:none" points="249.01,1350.65 2352.76,1350.65 "/>
<polyline clip-path="url(#clip541)" style="stroke:#000000; stroke-linecap:round; stroke-linejoin:round; stroke-width:2; stroke-opacity:0.1; fill:none" points="249.01,1010.74 2352.76,1010.74 "/>
<polyline clip-path="url(#clip541)" style="stroke:#000000; stroke-linecap:round; stroke-linejoin:round; stroke-width:2; stroke-opacity:0.1; fill:none" points="249.01,670.826 2352.76,670.826 "/>
<polyline clip-path="url(#clip541)" style="stroke:#000000; stroke-linecap:round; stroke-linejoin:round; stroke-width:2; stroke-opacity:0.1; fill:none" points="249.01,330.915 2352.76,330.915 "/>
<polyline clip-path="url(#clip540)" style="stroke:#000000; stroke-linecap:round; stroke-linejoin:round; stroke-width:4; stroke-opacity:1; fill:none" points="249.01,1423.18 2352.76,1423.18 "/>
<polyline clip-path="url(#clip540)" style="stroke:#000000; stroke-linecap:round; stroke-linejoin:round; stroke-width:4; stroke-opacity:1; fill:none" points="308.55,1423.18 308.55,1404.28 "/>
<polyline clip-path="url(#clip540)" style="stroke:#000000; stroke-linecap:round; stroke-linejoin:round; stroke-width:4; stroke-opacity:1; fill:none" points="970.105,1423.18 970.105,1404.28 "/>
<polyline clip-path="url(#clip540)" style="stroke:#000000; stroke-linecap:round; stroke-linejoin:round; stroke-width:4; stroke-opacity:1; fill:none" points="1631.66,1423.18 1631.66,1404.28 "/>
<polyline clip-path="url(#clip540)" style="stroke:#000000; stroke-linecap:round; stroke-linejoin:round; stroke-width:4; stroke-opacity:1; fill:none" points="2293.22,1423.18 2293.22,1404.28 "/>
<path clip-path="url(#clip540)" d="M308.55 1454.1 Q304.939 1454.1 303.11 1457.66 Q301.304 1461.2 301.304 1468.33 Q301.304 1475.44 303.11 1479.01 Q304.939 1482.55 308.55 1482.55 Q312.184 1482.55 313.989 1479.01 Q315.818 1475.44 315.818 1468.33 Q315.818 1461.2 313.989 1457.66 Q312.184 1454.1 308.55 1454.1 M308.55 1450.39 Q314.36 1450.39 317.415 1455 Q320.494 1459.58 320.494 1468.33 Q320.494 1477.06 317.415 1481.67 Q314.36 1486.25 308.55 1486.25 Q302.739 1486.25 299.661 1481.67 Q296.605 1477.06 296.605 1468.33 Q296.605 1459.58 299.661 1455 Q302.739 1450.39 308.55 1450.39 Z" fill="#000000" fill-rule="nonzero" fill-opacity="1" /><path clip-path="url(#clip540)" d="M960.487 1481.64 L968.126 1481.64 L968.126 1455.28 L959.816 1456.95 L959.816 1452.69 L968.08 1451.02 L972.755 1451.02 L972.755 1481.64 L980.394 1481.64 L980.394 1485.58 L960.487 1485.58 L960.487 1481.64 Z" fill="#000000" fill-rule="nonzero" fill-opacity="1" /><path clip-path="url(#clip540)" d="M1626.31 1481.64 L1642.63 1481.64 L1642.63 1485.58 L1620.69 1485.58 L1620.69 1481.64 Q1623.35 1478.89 1627.93 1474.26 Q1632.54 1469.61 1633.72 1468.27 Q1635.97 1465.74 1636.85 1464.01 Q1637.75 1462.25 1637.75 1460.56 Q1637.75 1457.8 1635.8 1456.07 Q1633.88 1454.33 1630.78 1454.33 Q1628.58 1454.33 1626.13 1455.09 Q1623.7 1455.86 1620.92 1457.41 L1620.92 1452.69 Q1623.74 1451.55 1626.2 1450.97 Q1628.65 1450.39 1630.69 1450.39 Q1636.06 1450.39 1639.25 1453.08 Q1642.45 1455.77 1642.45 1460.26 Q1642.45 1462.39 1641.64 1464.31 Q1640.85 1466.2 1638.74 1468.8 Q1638.17 1469.47 1635.06 1472.69 Q1631.96 1475.88 1626.31 1481.64 Z" fill="#000000" fill-rule="nonzero" fill-opacity="1" /><path clip-path="url(#clip540)" d="M2297.46 1466.95 Q2300.82 1467.66 2302.7 1469.93 Q2304.59 1472.2 2304.59 1475.53 Q2304.59 1480.65 2301.07 1483.45 Q2297.56 1486.25 2291.07 1486.25 Q2288.9 1486.25 2286.58 1485.81 Q2284.29 1485.39 2281.84 1484.54 L2281.84 1480.02 Q2283.78 1481.16 2286.1 1481.74 Q2288.41 1482.32 2290.94 1482.32 Q2295.33 1482.32 2297.63 1480.58 Q2299.94 1478.84 2299.94 1475.53 Q2299.94 1472.48 2297.79 1470.77 Q2295.66 1469.03 2291.84 1469.03 L2287.81 1469.03 L2287.81 1465.19 L2292.02 1465.19 Q2295.47 1465.19 2297.3 1463.82 Q2299.13 1462.43 2299.13 1459.84 Q2299.13 1457.18 2297.23 1455.77 Q2295.36 1454.33 2291.84 1454.33 Q2289.92 1454.33 2287.72 1454.75 Q2285.52 1455.16 2282.88 1456.04 L2282.88 1451.88 Q2285.54 1451.14 2287.86 1450.77 Q2290.2 1450.39 2292.26 1450.39 Q2297.58 1450.39 2300.68 1452.83 Q2303.78 1455.23 2303.78 1459.35 Q2303.78 1462.22 2302.14 1464.21 Q2300.5 1466.18 2297.46 1466.95 Z" fill="#000000" fill-rule="nonzero" fill-opacity="1" /><path clip-path="url(#clip540)" d="M1168.6 1520.52 L1175.03 1520.52 L1175.03 1568.04 L1168.6 1568.04 L1168.6 1520.52 Z" fill="#000000" fill-rule="nonzero" fill-opacity="1" /><path clip-path="url(#clip540)" d="M1193.37 1522.27 L1193.37 1532.4 L1205.43 1532.4 L1205.43 1536.95 L1193.37 1536.95 L1193.37 1556.3 Q1193.37 1560.66 1194.54 1561.9 Q1195.75 1563.14 1199.41 1563.14 L1205.43 1563.14 L1205.43 1568.04 L1199.41 1568.04 Q1192.63 1568.04 1190.06 1565.53 Q1187.48 1562.98 1187.48 1556.3 L1187.48 1536.95 L1183.18 1536.95 L1183.18 1532.4 L1187.48 1532.4 L1187.48 1522.27 L1193.37 1522.27 Z" fill="#000000" fill-rule="nonzero" fill-opacity="1" /><path clip-path="url(#clip540)" d="M1243.62 1548.76 L1243.62 1551.62 L1216.7 1551.62 Q1217.08 1557.67 1220.32 1560.85 Q1223.6 1564 1229.43 1564 Q1232.8 1564 1235.95 1563.17 Q1239.14 1562.35 1242.25 1560.69 L1242.25 1566.23 Q1239.1 1567.57 1235.79 1568.27 Q1232.48 1568.97 1229.08 1568.97 Q1220.55 1568.97 1215.55 1564 Q1210.59 1559.04 1210.59 1550.57 Q1210.59 1541.82 1215.3 1536.69 Q1220.04 1531.54 1228.06 1531.54 Q1235.25 1531.54 1239.42 1536.18 Q1243.62 1540.8 1243.62 1548.76 M1237.77 1547.04 Q1237.7 1542.23 1235.06 1539.37 Q1232.45 1536.5 1228.12 1536.5 Q1223.22 1536.5 1220.26 1539.27 Q1217.33 1542.04 1216.89 1547.07 L1237.77 1547.04 Z" fill="#000000" fill-rule="nonzero" fill-opacity="1" /><path clip-path="url(#clip540)" d="M1273.89 1537.87 Q1272.91 1537.3 1271.73 1537.04 Q1270.58 1536.76 1269.18 1536.76 Q1264.22 1536.76 1261.54 1540 Q1258.9 1543.22 1258.9 1549.27 L1258.9 1568.04 L1253.01 1568.04 L1253.01 1532.4 L1258.9 1532.4 L1258.9 1537.93 Q1260.75 1534.69 1263.71 1533.13 Q1266.67 1531.54 1270.9 1531.54 Q1271.51 1531.54 1272.24 1531.63 Q1272.97 1531.7 1273.86 1531.85 L1273.89 1537.87 Z" fill="#000000" fill-rule="nonzero" fill-opacity="1" /><path clip-path="url(#clip540)" d="M1296.24 1550.12 Q1289.14 1550.12 1286.4 1551.75 Q1283.66 1553.37 1283.66 1557.29 Q1283.66 1560.4 1285.7 1562.25 Q1287.77 1564.07 1291.3 1564.07 Q1296.17 1564.07 1299.1 1560.63 Q1302.06 1557.16 1302.06 1551.43 L1302.06 1550.12 L1296.24 1550.12 M1307.92 1547.71 L1307.92 1568.04 L1302.06 1568.04 L1302.06 1562.63 Q1300.06 1565.88 1297.06 1567.44 Q1294.07 1568.97 1289.74 1568.97 Q1284.27 1568.97 1281.02 1565.91 Q1277.81 1562.82 1277.81 1557.67 Q1277.81 1551.65 1281.82 1548.6 Q1285.86 1545.54 1293.85 1545.54 L1302.06 1545.54 L1302.06 1544.97 Q1302.06 1540.93 1299.39 1538.73 Q1296.75 1536.5 1291.94 1536.5 Q1288.88 1536.5 1285.99 1537.23 Q1283.09 1537.97 1280.42 1539.43 L1280.42 1534.02 Q1283.63 1532.78 1286.66 1532.17 Q1289.68 1531.54 1292.54 1531.54 Q1300.28 1531.54 1304.1 1535.55 Q1307.92 1539.56 1307.92 1547.71 Z" fill="#000000" fill-rule="nonzero" fill-opacity="1" /><path clip-path="url(#clip540)" d="M1325.77 1522.27 L1325.77 1532.4 L1337.84 1532.4 L1337.84 1536.95 L1325.77 1536.95 L1325.77 1556.3 Q1325.77 1560.66 1326.95 1561.9 Q1328.16 1563.14 1331.82 1563.14 L1337.84 1563.14 L1337.84 1568.04 L1331.82 1568.04 Q1325.04 1568.04 1322.46 1565.53 Q1319.88 1562.98 1319.88 1556.3 L1319.88 1536.95 L1315.59 1536.95 L1315.59 1532.4 L1319.88 1532.4 L1319.88 1522.27 L1325.77 1522.27 Z" fill="#000000" fill-rule="nonzero" fill-opacity="1" /><path clip-path="url(#clip540)" d="M1345.54 1532.4 L1351.39 1532.4 L1351.39 1568.04 L1345.54 1568.04 L1345.54 1532.4 M1345.54 1518.52 L1351.39 1518.52 L1351.39 1525.93 L1345.54 1525.93 L1345.54 1518.52 Z" fill="#000000" fill-rule="nonzero" fill-opacity="1" /><path clip-path="url(#clip540)" d="M1377.46 1536.5 Q1372.75 1536.5 1370.01 1540.19 Q1367.28 1543.85 1367.28 1550.25 Q1367.28 1556.65 1369.98 1560.34 Q1372.72 1564 1377.46 1564 Q1382.14 1564 1384.88 1560.31 Q1387.62 1556.62 1387.62 1550.25 Q1387.62 1543.92 1384.88 1540.23 Q1382.14 1536.5 1377.46 1536.5 M1377.46 1531.54 Q1385.1 1531.54 1389.46 1536.5 Q1393.82 1541.47 1393.82 1550.25 Q1393.82 1559 1389.46 1564 Q1385.1 1568.97 1377.46 1568.97 Q1369.79 1568.97 1365.43 1564 Q1361.1 1559 1361.1 1550.25 Q1361.1 1541.47 1365.43 1536.5 Q1369.79 1531.54 1377.46 1531.54 Z" fill="#000000" fill-rule="nonzero" fill-opacity="1" /><path clip-path="url(#clip540)" d="M1433.16 1546.53 L1433.16 1568.04 L1427.31 1568.04 L1427.31 1546.72 Q1427.31 1541.66 1425.33 1539.14 Q1423.36 1536.63 1419.41 1536.63 Q1414.67 1536.63 1411.93 1539.65 Q1409.2 1542.68 1409.2 1547.9 L1409.2 1568.04 L1403.31 1568.04 L1403.31 1532.4 L1409.2 1532.4 L1409.2 1537.93 Q1411.3 1534.72 1414.13 1533.13 Q1416.99 1531.54 1420.72 1531.54 Q1426.86 1531.54 1430.01 1535.36 Q1433.16 1539.14 1433.16 1546.53 Z" fill="#000000" fill-rule="nonzero" fill-opacity="1" /><polyline clip-path="url(#clip540)" style="stroke:#000000; stroke-linecap:round; stroke-linejoin:round; stroke-width:4; stroke-opacity:1; fill:none" points="249.01,1423.18 249.01,123.472 "/>
<polyline clip-path="url(#clip540)" style="stroke:#000000; stroke-linecap:round; stroke-linejoin:round; stroke-width:4; stroke-opacity:1; fill:none" points="249.01,1350.65 267.907,1350.65 "/>
<polyline clip-path="url(#clip540)" style="stroke:#000000; stroke-linecap:round; stroke-linejoin:round; stroke-width:4; stroke-opacity:1; fill:none" points="249.01,1010.74 267.907,1010.74 "/>
<polyline clip-path="url(#clip540)" style="stroke:#000000; stroke-linecap:round; stroke-linejoin:round; stroke-width:4; stroke-opacity:1; fill:none" points="249.01,670.826 267.907,670.826 "/>
<polyline clip-path="url(#clip540)" style="stroke:#000000; stroke-linecap:round; stroke-linejoin:round; stroke-width:4; stroke-opacity:1; fill:none" points="249.01,330.915 267.907,330.915 "/>
<path clip-path="url(#clip540)" d="M115.718 1333.37 L134.075 1333.37 L134.075 1337.3 L120.001 1337.3 L120.001 1345.78 Q121.019 1345.43 122.038 1345.27 Q123.056 1345.08 124.075 1345.08 Q129.862 1345.08 133.242 1348.25 Q136.621 1351.42 136.621 1356.84 Q136.621 1362.42 133.149 1365.52 Q129.677 1368.6 123.357 1368.6 Q121.181 1368.6 118.913 1368.23 Q116.668 1367.86 114.26 1367.12 L114.26 1362.42 Q116.343 1363.55 118.566 1364.11 Q120.788 1364.67 123.265 1364.67 Q127.269 1364.67 129.607 1362.56 Q131.945 1360.45 131.945 1356.84 Q131.945 1353.23 129.607 1351.12 Q127.269 1349.02 123.265 1349.02 Q121.39 1349.02 119.515 1349.43 Q117.663 1349.85 115.718 1350.73 L115.718 1333.37 Z" fill="#000000" fill-rule="nonzero" fill-opacity="1" /><path clip-path="url(#clip540)" d="M145.834 1362.05 L150.718 1362.05 L150.718 1367.93 L145.834 1367.93 L145.834 1362.05 Z" fill="#000000" fill-rule="nonzero" fill-opacity="1" /><path clip-path="url(#clip540)" d="M170.903 1351.52 Q167.57 1351.52 165.649 1353.3 Q163.751 1355.08 163.751 1358.21 Q163.751 1361.33 165.649 1363.11 Q167.57 1364.9 170.903 1364.9 Q174.237 1364.9 176.158 1363.11 Q178.079 1361.31 178.079 1358.21 Q178.079 1355.08 176.158 1353.3 Q174.26 1351.52 170.903 1351.52 M166.227 1349.53 Q163.218 1348.79 161.528 1346.73 Q159.862 1344.67 159.862 1341.7 Q159.862 1337.56 162.802 1335.15 Q165.765 1332.74 170.903 1332.74 Q176.065 1332.74 179.005 1335.15 Q181.945 1337.56 181.945 1341.7 Q181.945 1344.67 180.255 1346.73 Q178.589 1348.79 175.602 1349.53 Q178.982 1350.31 180.857 1352.6 Q182.755 1354.9 182.755 1358.21 Q182.755 1363.23 179.676 1365.92 Q176.621 1368.6 170.903 1368.6 Q165.186 1368.6 162.107 1365.92 Q159.052 1363.23 159.052 1358.21 Q159.052 1354.9 160.95 1352.6 Q162.848 1350.31 166.227 1349.53 M164.515 1342.14 Q164.515 1344.83 166.181 1346.33 Q167.871 1347.84 170.903 1347.84 Q173.913 1347.84 175.602 1346.33 Q177.315 1344.83 177.315 1342.14 Q177.315 1339.46 175.602 1337.95 Q173.913 1336.45 170.903 1336.45 Q167.871 1336.45 166.181 1337.95 Q164.515 1339.46 164.515 1342.14 Z" fill="#000000" fill-rule="nonzero" fill-opacity="1" /><path clip-path="url(#clip540)" d="M201.065 1336.45 Q197.454 1336.45 195.625 1340.01 Q193.82 1343.55 193.82 1350.68 Q193.82 1357.79 195.625 1361.35 Q197.454 1364.9 201.065 1364.9 Q204.699 1364.9 206.505 1361.35 Q208.334 1357.79 208.334 1350.68 Q208.334 1343.55 206.505 1340.01 Q204.699 1336.45 201.065 1336.45 M201.065 1332.74 Q206.875 1332.74 209.931 1337.35 Q213.01 1341.93 213.01 1350.68 Q213.01 1359.41 209.931 1364.02 Q206.875 1368.6 201.065 1368.6 Q195.255 1368.6 192.176 1364.02 Q189.121 1359.41 189.121 1350.68 Q189.121 1341.93 192.176 1337.35 Q195.255 1332.74 201.065 1332.74 Z" fill="#000000" fill-rule="nonzero" fill-opacity="1" /><path clip-path="url(#clip540)" d="M116.714 993.458 L135.07 993.458 L135.07 997.393 L120.996 997.393 L120.996 1005.87 Q122.015 1005.52 123.033 1005.36 Q124.052 1005.17 125.07 1005.17 Q130.857 1005.17 134.237 1008.34 Q137.617 1011.51 137.617 1016.93 Q137.617 1022.51 134.144 1025.61 Q130.672 1028.69 124.353 1028.69 Q122.177 1028.69 119.908 1028.32 Q117.663 1027.95 115.256 1027.21 L115.256 1022.51 Q117.339 1023.64 119.561 1024.2 Q121.783 1024.75 124.26 1024.75 Q128.265 1024.75 130.603 1022.65 Q132.941 1020.54 132.941 1016.93 Q132.941 1013.32 130.603 1011.21 Q128.265 1009.11 124.26 1009.11 Q122.385 1009.11 120.51 1009.52 Q118.658 1009.94 116.714 1010.82 L116.714 993.458 Z" fill="#000000" fill-rule="nonzero" fill-opacity="1" /><path clip-path="url(#clip540)" d="M146.829 1022.14 L151.714 1022.14 L151.714 1028.02 L146.829 1028.02 L146.829 1022.14 Z" fill="#000000" fill-rule="nonzero" fill-opacity="1" /><path clip-path="url(#clip540)" d="M171.899 1011.61 Q168.565 1011.61 166.644 1013.39 Q164.746 1015.17 164.746 1018.3 Q164.746 1021.42 166.644 1023.2 Q168.565 1024.99 171.899 1024.99 Q175.232 1024.99 177.153 1023.2 Q179.075 1021.4 179.075 1018.3 Q179.075 1015.17 177.153 1013.39 Q175.255 1011.61 171.899 1011.61 M167.223 1009.62 Q164.214 1008.87 162.524 1006.81 Q160.857 1004.75 160.857 1001.79 Q160.857 997.647 163.797 995.24 Q166.76 992.833 171.899 992.833 Q177.061 992.833 180.001 995.24 Q182.94 997.647 182.94 1001.79 Q182.94 1004.75 181.251 1006.81 Q179.584 1008.87 176.598 1009.62 Q179.977 1010.4 181.852 1012.69 Q183.751 1014.99 183.751 1018.3 Q183.751 1023.32 180.672 1026 Q177.616 1028.69 171.899 1028.69 Q166.181 1028.69 163.102 1026 Q160.047 1023.32 160.047 1018.3 Q160.047 1014.99 161.945 1012.69 Q163.843 1010.4 167.223 1009.62 M165.51 1002.23 Q165.51 1004.92 167.177 1006.42 Q168.866 1007.93 171.899 1007.93 Q174.908 1007.93 176.598 1006.42 Q178.311 1004.92 178.311 1002.23 Q178.311 999.546 176.598 998.041 Q174.908 996.536 171.899 996.536 Q168.866 996.536 167.177 998.041 Q165.51 999.546 165.51 1002.23 Z" fill="#000000" fill-rule="nonzero" fill-opacity="1" /><path clip-path="url(#clip540)" d="M192.107 993.458 L210.463 993.458 L210.463 997.393 L196.389 997.393 L196.389 1005.87 Q197.408 1005.52 198.426 1005.36 Q199.445 1005.17 200.463 1005.17 Q206.25 1005.17 209.63 1008.34 Q213.01 1011.51 213.01 1016.93 Q213.01 1022.51 209.537 1025.61 Q206.065 1028.69 199.746 1028.69 Q197.57 1028.69 195.301 1028.32 Q193.056 1027.95 190.649 1027.21 L190.649 1022.51 Q192.732 1023.64 194.954 1024.2 Q197.176 1024.75 199.653 1024.75 Q203.658 1024.75 205.996 1022.65 Q208.334 1020.54 208.334 1016.93 Q208.334 1013.32 205.996 1011.21 Q203.658 1009.11 199.653 1009.11 Q197.778 1009.11 195.903 1009.52 Q194.051 1009.94 192.107 1010.82 L192.107 993.458 Z" fill="#000000" fill-rule="nonzero" fill-opacity="1" /><path clip-path="url(#clip540)" d="M115.718 653.546 L134.075 653.546 L134.075 657.482 L120.001 657.482 L120.001 665.954 Q121.019 665.607 122.038 665.445 Q123.056 665.259 124.075 665.259 Q129.862 665.259 133.242 668.431 Q136.621 671.602 136.621 677.019 Q136.621 682.597 133.149 685.699 Q129.677 688.778 123.357 688.778 Q121.181 688.778 118.913 688.407 Q116.668 688.037 114.26 687.296 L114.26 682.597 Q116.343 683.731 118.566 684.287 Q120.788 684.843 123.265 684.843 Q127.269 684.843 129.607 682.736 Q131.945 680.63 131.945 677.019 Q131.945 673.407 129.607 671.301 Q127.269 669.195 123.265 669.195 Q121.39 669.195 119.515 669.611 Q117.663 670.028 115.718 670.907 L115.718 653.546 Z" fill="#000000" fill-rule="nonzero" fill-opacity="1" /><path clip-path="url(#clip540)" d="M145.834 682.227 L150.718 682.227 L150.718 688.106 L145.834 688.106 L145.834 682.227 Z" fill="#000000" fill-rule="nonzero" fill-opacity="1" /><path clip-path="url(#clip540)" d="M161.042 687.389 L161.042 683.13 Q162.802 683.963 164.607 684.403 Q166.413 684.843 168.149 684.843 Q172.778 684.843 175.209 681.741 Q177.663 678.616 178.01 672.273 Q176.667 674.264 174.607 675.329 Q172.547 676.394 170.047 676.394 Q164.862 676.394 161.829 673.269 Q158.82 670.12 158.82 664.681 Q158.82 659.357 161.968 656.139 Q165.116 652.921 170.348 652.921 Q176.343 652.921 179.491 657.528 Q182.663 662.111 182.663 670.861 Q182.663 679.032 178.774 683.917 Q174.908 688.778 168.357 688.778 Q166.598 688.778 164.792 688.431 Q162.987 688.083 161.042 687.389 M170.348 672.736 Q173.496 672.736 175.325 670.583 Q177.176 668.431 177.176 664.681 Q177.176 660.954 175.325 658.801 Q173.496 656.625 170.348 656.625 Q167.2 656.625 165.348 658.801 Q163.519 660.954 163.519 664.681 Q163.519 668.431 165.348 670.583 Q167.2 672.736 170.348 672.736 Z" fill="#000000" fill-rule="nonzero" fill-opacity="1" /><path clip-path="url(#clip540)" d="M201.065 656.625 Q197.454 656.625 195.625 660.19 Q193.82 663.732 193.82 670.861 Q193.82 677.968 195.625 681.532 Q197.454 685.074 201.065 685.074 Q204.699 685.074 206.505 681.532 Q208.334 677.968 208.334 670.861 Q208.334 663.732 206.505 660.19 Q204.699 656.625 201.065 656.625 M201.065 652.921 Q206.875 652.921 209.931 657.528 Q213.01 662.111 213.01 670.861 Q213.01 679.588 209.931 684.194 Q206.875 688.778 201.065 688.778 Q195.255 688.778 192.176 684.194 Q189.121 679.588 189.121 670.861 Q189.121 662.111 192.176 657.528 Q195.255 652.921 201.065 652.921 Z" fill="#000000" fill-rule="nonzero" fill-opacity="1" /><path clip-path="url(#clip540)" d="M116.714 313.635 L135.07 313.635 L135.07 317.57 L120.996 317.57 L120.996 326.043 Q122.015 325.695 123.033 325.533 Q124.052 325.348 125.07 325.348 Q130.857 325.348 134.237 328.519 Q137.617 331.691 137.617 337.107 Q137.617 342.686 134.144 345.788 Q130.672 348.867 124.353 348.867 Q122.177 348.867 119.908 348.496 Q117.663 348.126 115.256 347.385 L115.256 342.686 Q117.339 343.82 119.561 344.376 Q121.783 344.931 124.26 344.931 Q128.265 344.931 130.603 342.825 Q132.941 340.718 132.941 337.107 Q132.941 333.496 130.603 331.39 Q128.265 329.283 124.26 329.283 Q122.385 329.283 120.51 329.7 Q118.658 330.117 116.714 330.996 L116.714 313.635 Z" fill="#000000" fill-rule="nonzero" fill-opacity="1" /><path clip-path="url(#clip540)" d="M146.829 342.316 L151.714 342.316 L151.714 348.195 L146.829 348.195 L146.829 342.316 Z" fill="#000000" fill-rule="nonzero" fill-opacity="1" /><path clip-path="url(#clip540)" d="M162.038 347.478 L162.038 343.218 Q163.797 344.052 165.602 344.492 Q167.408 344.931 169.144 344.931 Q173.774 344.931 176.204 341.83 Q178.658 338.705 179.005 332.362 Q177.663 334.353 175.602 335.418 Q173.542 336.482 171.042 336.482 Q165.857 336.482 162.825 333.357 Q159.815 330.209 159.815 324.769 Q159.815 319.445 162.964 316.228 Q166.112 313.01 171.343 313.01 Q177.339 313.01 180.487 317.617 Q183.658 322.2 183.658 330.95 Q183.658 339.121 179.769 344.005 Q175.903 348.867 169.352 348.867 Q167.593 348.867 165.788 348.519 Q163.982 348.172 162.038 347.478 M171.343 332.825 Q174.491 332.825 176.32 330.672 Q178.172 328.519 178.172 324.769 Q178.172 321.043 176.32 318.89 Q174.491 316.714 171.343 316.714 Q168.195 316.714 166.343 318.89 Q164.515 321.043 164.515 324.769 Q164.515 328.519 166.343 330.672 Q168.195 332.825 171.343 332.825 Z" fill="#000000" fill-rule="nonzero" fill-opacity="1" /><path clip-path="url(#clip540)" d="M192.107 313.635 L210.463 313.635 L210.463 317.57 L196.389 317.57 L196.389 326.043 Q197.408 325.695 198.426 325.533 Q199.445 325.348 200.463 325.348 Q206.25 325.348 209.63 328.519 Q213.01 331.691 213.01 337.107 Q213.01 342.686 209.537 345.788 Q206.065 348.867 199.746 348.867 Q197.57 348.867 195.301 348.496 Q193.056 348.126 190.649 347.385 L190.649 342.686 Q192.732 343.82 194.954 344.376 Q197.176 344.931 199.653 344.931 Q203.658 344.931 205.996 342.825 Q208.334 340.718 208.334 337.107 Q208.334 333.496 205.996 331.39 Q203.658 329.283 199.653 329.283 Q197.778 329.283 195.903 329.7 Q194.051 330.117 192.107 330.996 L192.107 313.635 Z" fill="#000000" fill-rule="nonzero" fill-opacity="1" /><path clip-path="url(#clip540)" d="M21.7677 954.892 L39.6235 954.892 L39.6235 946.807 Q39.6235 942.32 37.3 939.869 Q34.9765 937.418 30.6797 937.418 Q26.4147 937.418 24.0912 939.869 Q21.7677 942.32 21.7677 946.807 L21.7677 954.892 M16.4842 961.321 L16.4842 946.807 Q16.4842 938.818 20.1126 934.744 Q23.7092 930.639 30.6797 930.639 Q37.7138 930.639 41.3104 934.744 Q44.907 938.818 44.907 946.807 L44.907 954.892 L64.0042 954.892 L64.0042 961.321 L16.4842 961.321 Z" fill="#000000" fill-rule="nonzero" fill-opacity="1" /><path clip-path="url(#clip540)" d="M46.0847 908.995 Q46.0847 916.093 47.7079 918.83 Q49.3312 921.567 53.2461 921.567 Q56.3653 921.567 58.2114 919.53 Q60.0256 917.461 60.0256 913.929 Q60.0256 909.059 56.5881 906.131 Q53.1188 903.17 47.3897 903.17 L46.0847 903.17 L46.0847 908.995 M43.6657 897.314 L64.0042 897.314 L64.0042 903.17 L58.5933 903.17 Q61.8398 905.176 63.3994 908.168 Q64.9272 911.159 64.9272 915.488 Q64.9272 920.963 61.8716 924.209 Q58.7843 927.424 53.6281 927.424 Q47.6125 927.424 44.5569 923.413 Q41.5014 919.371 41.5014 911.382 L41.5014 903.17 L40.9285 903.17 Q36.8862 903.17 34.6901 905.844 Q32.4621 908.486 32.4621 913.292 Q32.4621 916.347 33.1941 919.244 Q33.9262 922.14 35.3903 924.814 L29.9795 924.814 Q28.7381 921.599 28.1334 918.575 Q27.4968 915.552 27.4968 912.687 Q27.4968 904.953 31.5072 901.133 Q35.5176 897.314 43.6657 897.314 Z" fill="#000000" fill-rule="nonzero" fill-opacity="1" /><path clip-path="url(#clip540)" d="M14.479 885.251 L14.479 879.395 L64.0042 879.395 L64.0042 885.251 L14.479 885.251 Z" fill="#000000" fill-rule="nonzero" fill-opacity="1" /><path clip-path="url(#clip540)" d="M35.1993 839.386 Q31.2526 837.19 29.3747 834.134 Q27.4968 831.079 27.4968 826.941 Q27.4968 821.371 31.4117 818.347 Q35.2948 815.324 42.4881 815.324 L64.0042 815.324 L64.0042 821.212 L42.679 821.212 Q37.5546 821.212 35.072 823.026 Q32.5894 824.84 32.5894 828.564 Q32.5894 833.116 35.6131 835.758 Q38.6368 838.399 43.8567 838.399 L64.0042 838.399 L64.0042 844.288 L42.679 844.288 Q37.5228 844.288 35.072 846.102 Q32.5894 847.916 32.5894 851.704 Q32.5894 856.192 35.6449 858.833 Q38.6686 861.475 43.8567 861.475 L64.0042 861.475 L64.0042 867.363 L28.3562 867.363 L28.3562 861.475 L33.8944 861.475 Q30.616 859.47 29.0564 856.669 Q27.4968 853.868 27.4968 850.017 Q27.4968 846.134 29.4702 843.428 Q31.4436 840.691 35.1993 839.386 Z" fill="#000000" fill-rule="nonzero" fill-opacity="1" /><path clip-path="url(#clip540)" d="M46.0847 787.442 Q46.0847 794.54 47.7079 797.277 Q49.3312 800.014 53.2461 800.014 Q56.3653 800.014 58.2114 797.977 Q60.0256 795.908 60.0256 792.375 Q60.0256 787.506 56.5881 784.577 Q53.1188 781.617 47.3897 781.617 L46.0847 781.617 L46.0847 787.442 M43.6657 775.761 L64.0042 775.761 L64.0042 781.617 L58.5933 781.617 Q61.8398 783.623 63.3994 786.614 Q64.9272 789.606 64.9272 793.935 Q64.9272 799.409 61.8716 802.656 Q58.7843 805.871 53.6281 805.871 Q47.6125 805.871 44.5569 801.86 Q41.5014 797.818 41.5014 789.829 L41.5014 781.617 L40.9285 781.617 Q36.8862 781.617 34.6901 784.291 Q32.4621 786.933 32.4621 791.739 Q32.4621 794.794 33.1941 797.691 Q33.9262 800.587 35.3903 803.261 L29.9795 803.261 Q28.7381 800.046 28.1334 797.022 Q27.4968 793.999 27.4968 791.134 Q27.4968 783.4 31.5072 779.58 Q35.5176 775.761 43.6657 775.761 Z" fill="#000000" fill-rule="nonzero" fill-opacity="1" /><path clip-path="url(#clip540)" d="M41.7242 720.188 Q42.4244 718.119 44.7161 716.178 Q47.0077 714.204 51.0181 712.231 L64.0042 705.706 L64.0042 712.613 L51.8138 718.692 Q47.0395 721.048 45.48 723.276 Q43.9204 725.472 43.9204 729.291 L43.9204 736.293 L64.0042 736.293 L64.0042 742.723 L16.4842 742.723 L16.4842 728.209 Q16.4842 720.061 19.8898 716.051 Q23.2955 712.04 30.1704 712.04 Q34.6582 712.04 37.6183 714.141 Q40.5784 716.21 41.7242 720.188 M21.7677 736.293 L38.6368 736.293 L38.6368 728.209 Q38.6368 723.562 36.5043 721.207 Q34.34 718.82 30.1704 718.82 Q26.0009 718.82 23.9002 721.207 Q21.7677 723.562 21.7677 728.209 L21.7677 736.293 Z" fill="#000000" fill-rule="nonzero" fill-opacity="1" /><path clip-path="url(#clip540)" d="M46.0847 682.917 Q46.0847 690.015 47.7079 692.752 Q49.3312 695.489 53.2461 695.489 Q56.3653 695.489 58.2114 693.452 Q60.0256 691.383 60.0256 687.85 Q60.0256 682.981 56.5881 680.052 Q53.1188 677.092 47.3897 677.092 L46.0847 677.092 L46.0847 682.917 M43.6657 671.236 L64.0042 671.236 L64.0042 677.092 L58.5933 677.092 Q61.8398 679.098 63.3994 682.089 Q64.9272 685.081 64.9272 689.41 Q64.9272 694.885 61.8716 698.131 Q58.7843 701.346 53.6281 701.346 Q47.6125 701.346 44.5569 697.335 Q41.5014 693.293 41.5014 685.304 L41.5014 677.092 L40.9285 677.092 Q36.8862 677.092 34.6901 679.766 Q32.4621 682.408 32.4621 687.214 Q32.4621 690.269 33.1941 693.166 Q33.9262 696.062 35.3903 698.736 L29.9795 698.736 Q28.7381 695.521 28.1334 692.497 Q27.4968 689.474 27.4968 686.609 Q27.4968 678.875 31.5072 675.055 Q35.5176 671.236 43.6657 671.236 Z" fill="#000000" fill-rule="nonzero" fill-opacity="1" /><path clip-path="url(#clip540)" d="M18.2347 653.38 L28.3562 653.38 L28.3562 641.317 L32.9077 641.317 L32.9077 653.38 L52.2594 653.38 Q56.6199 653.38 57.8613 652.203 Q59.1026 650.993 59.1026 647.333 L59.1026 641.317 L64.0042 641.317 L64.0042 647.333 Q64.0042 654.112 61.4897 656.69 Q58.9434 659.268 52.2594 659.268 L32.9077 659.268 L32.9077 663.565 L28.3562 663.565 L28.3562 659.268 L18.2347 659.268 L18.2347 653.38 Z" fill="#000000" fill-rule="nonzero" fill-opacity="1" /><path clip-path="url(#clip540)" d="M28.3562 633.615 L28.3562 627.758 L64.0042 627.758 L64.0042 633.615 L28.3562 633.615 M14.479 633.615 L14.479 627.758 L21.895 627.758 L21.895 633.615 L14.479 633.615 Z" fill="#000000" fill-rule="nonzero" fill-opacity="1" /><path clip-path="url(#clip540)" d="M32.4621 601.691 Q32.4621 606.401 36.1542 609.138 Q39.8145 611.876 46.212 611.876 Q52.6095 611.876 56.3017 609.17 Q59.9619 606.433 59.9619 601.691 Q59.9619 597.012 56.2698 594.275 Q52.5777 591.537 46.212 591.537 Q39.8781 591.537 36.186 594.275 Q32.4621 597.012 32.4621 601.691 M27.4968 601.691 Q27.4968 594.052 32.4621 589.691 Q37.4273 585.331 46.212 585.331 Q54.9649 585.331 59.9619 589.691 Q64.9272 594.052 64.9272 601.691 Q64.9272 609.361 59.9619 613.722 Q54.9649 618.05 46.212 618.05 Q37.4273 618.05 32.4621 613.722 Q27.4968 609.361 27.4968 601.691 Z" fill="#000000" fill-rule="nonzero" fill-opacity="1" /><path clip-path="url(#clip540)" d="M783.056 18.8205 L783.056 41.5461 L793.345 41.5461 Q799.057 41.5461 802.176 38.5889 Q805.295 35.6318 805.295 30.163 Q805.295 24.7348 802.176 21.7777 Q799.057 18.8205 793.345 18.8205 L783.056 18.8205 M774.873 12.096 L793.345 12.096 Q803.513 12.096 808.698 16.714 Q813.924 21.2916 813.924 30.163 Q813.924 39.1155 808.698 43.6931 Q803.513 48.2706 793.345 48.2706 L783.056 48.2706 L783.056 72.576 L774.873 72.576 L774.873 12.096 Z" fill="#000000" fill-rule="nonzero" fill-opacity="1" /><path clip-path="url(#clip540)" d="M841.47 49.7694 Q832.436 49.7694 828.952 51.8354 Q825.469 53.9013 825.469 58.8839 Q825.469 62.8538 828.061 65.2034 Q830.694 67.5124 835.191 67.5124 Q841.389 67.5124 845.116 63.1374 Q848.883 58.7219 848.883 51.4303 L848.883 49.7694 L841.47 49.7694 M856.337 46.6907 L856.337 72.576 L848.883 72.576 L848.883 65.6895 Q846.331 69.8214 842.523 71.8063 Q838.715 73.7508 833.206 73.7508 Q826.238 73.7508 822.106 69.8619 Q818.015 65.9325 818.015 59.3701 Q818.015 51.7138 823.119 47.825 Q828.264 43.9361 838.432 43.9361 L848.883 43.9361 L848.883 43.2069 Q848.883 38.0623 845.48 35.2672 Q842.118 32.4315 836.001 32.4315 Q832.112 32.4315 828.426 33.3632 Q824.739 34.295 821.337 36.1584 L821.337 29.2718 Q825.428 27.692 829.276 26.9223 Q833.125 26.1121 836.771 26.1121 Q846.614 26.1121 851.475 31.2163 Q856.337 36.3204 856.337 46.6907 Z" fill="#000000" fill-rule="nonzero" fill-opacity="1" /><path clip-path="url(#clip540)" d="M871.689 9.54393 L879.143 9.54393 L879.143 72.576 L871.689 72.576 L871.689 9.54393 Z" fill="#000000" fill-rule="nonzero" fill-opacity="1" /><path clip-path="url(#clip540)" d="M930.063 35.9153 Q932.858 30.8922 936.747 28.5022 Q940.636 26.1121 945.902 26.1121 Q952.991 26.1121 956.839 31.0947 Q960.688 36.0368 960.688 45.1919 L960.688 72.576 L953.194 72.576 L953.194 45.4349 Q953.194 38.913 950.885 35.7533 Q948.576 32.5936 943.836 32.5936 Q938.043 32.5936 934.681 36.4419 Q931.319 40.2903 931.319 46.9338 L931.319 72.576 L923.825 72.576 L923.825 45.4349 Q923.825 38.8725 921.516 35.7533 Q919.207 32.5936 914.386 32.5936 Q908.674 32.5936 905.312 36.4824 Q901.95 40.3308 901.95 46.9338 L901.95 72.576 L894.456 72.576 L894.456 27.2059 L901.95 27.2059 L901.95 34.2544 Q904.502 30.082 908.067 28.0971 Q911.631 26.1121 916.533 26.1121 Q921.475 26.1121 924.918 28.6237 Q928.402 31.1352 930.063 35.9153 Z" fill="#000000" fill-rule="nonzero" fill-opacity="1" /><path clip-path="url(#clip540)" d="M996.174 49.7694 Q987.14 49.7694 983.656 51.8354 Q980.173 53.9013 980.173 58.8839 Q980.173 62.8538 982.765 65.2034 Q985.398 67.5124 989.895 67.5124 Q996.093 67.5124 999.82 63.1374 Q1003.59 58.7219 1003.59 51.4303 L1003.59 49.7694 L996.174 49.7694 M1011.04 46.6907 L1011.04 72.576 L1003.59 72.576 L1003.59 65.6895 Q1001.03 69.8214 997.227 71.8063 Q993.419 73.7508 987.91 73.7508 Q980.942 73.7508 976.81 69.8619 Q972.719 65.9325 972.719 59.3701 Q972.719 51.7138 977.823 47.825 Q982.968 43.9361 993.136 43.9361 L1003.59 43.9361 L1003.59 43.2069 Q1003.59 38.0623 1000.18 35.2672 Q996.822 32.4315 990.705 32.4315 Q986.816 32.4315 983.13 33.3632 Q979.444 34.295 976.041 36.1584 L976.041 29.2718 Q980.132 27.692 983.981 26.9223 Q987.829 26.1121 991.475 26.1121 Q1001.32 26.1121 1006.18 31.2163 Q1011.04 36.3204 1011.04 46.6907 Z" fill="#000000" fill-rule="nonzero" fill-opacity="1" /><path clip-path="url(#clip540)" d="M1081.77 44.2197 Q1084.4 45.1109 1086.87 48.0275 Q1089.39 50.9442 1091.9 56.0483 L1100.2 72.576 L1091.41 72.576 L1083.67 57.061 Q1080.68 50.9847 1077.84 48.9997 Q1075.04 47.0148 1070.18 47.0148 L1061.27 47.0148 L1061.27 72.576 L1053.09 72.576 L1053.09 12.096 L1071.56 12.096 Q1081.93 12.096 1087.04 16.4305 Q1092.14 20.7649 1092.14 29.5149 Q1092.14 35.2267 1089.47 38.994 Q1086.83 42.7613 1081.77 44.2197 M1061.27 18.8205 L1061.27 40.2903 L1071.56 40.2903 Q1077.48 40.2903 1080.47 37.5762 Q1083.51 34.8216 1083.51 29.5149 Q1083.51 24.2082 1080.47 21.5346 Q1077.48 18.8205 1071.56 18.8205 L1061.27 18.8205 Z" fill="#000000" fill-rule="nonzero" fill-opacity="1" /><path clip-path="url(#clip540)" d="M1129.21 49.7694 Q1120.17 49.7694 1116.69 51.8354 Q1113.2 53.9013 1113.2 58.8839 Q1113.2 62.8538 1115.8 65.2034 Q1118.43 67.5124 1122.93 67.5124 Q1129.12 67.5124 1132.85 63.1374 Q1136.62 58.7219 1136.62 51.4303 L1136.62 49.7694 L1129.21 49.7694 M1144.07 46.6907 L1144.07 72.576 L1136.62 72.576 L1136.62 65.6895 Q1134.07 69.8214 1130.26 71.8063 Q1126.45 73.7508 1120.94 73.7508 Q1113.97 73.7508 1109.84 69.8619 Q1105.75 65.9325 1105.75 59.3701 Q1105.75 51.7138 1110.85 47.825 Q1116 43.9361 1126.17 43.9361 L1136.62 43.9361 L1136.62 43.2069 Q1136.62 38.0623 1133.22 35.2672 Q1129.85 32.4315 1123.74 32.4315 Q1119.85 32.4315 1116.16 33.3632 Q1112.48 34.295 1109.07 36.1584 L1109.07 29.2718 Q1113.16 27.692 1117.01 26.9223 Q1120.86 26.1121 1124.51 26.1121 Q1134.35 26.1121 1139.21 31.2163 Q1144.07 36.3204 1144.07 46.6907 Z" fill="#000000" fill-rule="nonzero" fill-opacity="1" /><path clip-path="url(#clip540)" d="M1166.8 14.324 L1166.8 27.2059 L1182.15 27.2059 L1182.15 32.9987 L1166.8 32.9987 L1166.8 57.6282 Q1166.8 63.1779 1168.3 64.7578 Q1169.84 66.3376 1174.49 66.3376 L1182.15 66.3376 L1182.15 72.576 L1174.49 72.576 Q1165.87 72.576 1162.58 69.3758 Q1159.3 66.1351 1159.3 57.6282 L1159.3 32.9987 L1153.83 32.9987 L1153.83 27.2059 L1159.3 27.2059 L1159.3 14.324 L1166.8 14.324 Z" fill="#000000" fill-rule="nonzero" fill-opacity="1" /><path clip-path="url(#clip540)" d="M1191.95 27.2059 L1199.41 27.2059 L1199.41 72.576 L1191.95 72.576 L1191.95 27.2059 M1191.95 9.54393 L1199.41 9.54393 L1199.41 18.9825 L1191.95 18.9825 L1191.95 9.54393 Z" fill="#000000" fill-rule="nonzero" fill-opacity="1" /><path clip-path="url(#clip540)" d="M1232.58 32.4315 Q1226.59 32.4315 1223.11 37.1306 Q1219.62 41.7891 1219.62 49.9314 Q1219.62 58.0738 1223.06 62.7728 Q1226.55 67.4314 1232.58 67.4314 Q1238.54 67.4314 1242.02 62.7323 Q1245.51 58.0333 1245.51 49.9314 Q1245.51 41.8701 1242.02 37.1711 Q1238.54 32.4315 1232.58 32.4315 M1232.58 26.1121 Q1242.31 26.1121 1247.86 32.4315 Q1253.41 38.7509 1253.41 49.9314 Q1253.41 61.0714 1247.86 67.4314 Q1242.31 73.7508 1232.58 73.7508 Q1222.82 73.7508 1217.27 67.4314 Q1211.76 61.0714 1211.76 49.9314 Q1211.76 38.7509 1217.27 32.4315 Q1222.82 26.1121 1232.58 26.1121 Z" fill="#000000" fill-rule="nonzero" fill-opacity="1" /><path clip-path="url(#clip540)" d="M1337.75 16.7545 L1337.75 25.383 Q1333.61 21.5346 1328.92 19.6307 Q1324.26 17.7268 1318.99 17.7268 Q1308.62 17.7268 1303.11 24.0867 Q1297.6 30.4061 1297.6 42.3968 Q1297.6 54.3469 1303.11 60.7069 Q1308.62 67.0263 1318.99 67.0263 Q1324.26 67.0263 1328.92 65.1223 Q1333.61 63.2184 1337.75 59.3701 L1337.75 67.9175 Q1333.45 70.8341 1328.63 72.2924 Q1323.85 73.7508 1318.5 73.7508 Q1304.77 73.7508 1296.87 65.3654 Q1288.97 56.9395 1288.97 42.3968 Q1288.97 27.8135 1296.87 19.4281 Q1304.77 11.0023 1318.5 11.0023 Q1323.93 11.0023 1328.71 12.4606 Q1333.53 13.8784 1337.75 16.7545 Z" fill="#000000" fill-rule="nonzero" fill-opacity="1" /><path clip-path="url(#clip540)" d="M1367.64 32.4315 Q1361.65 32.4315 1358.16 37.1306 Q1354.68 41.7891 1354.68 49.9314 Q1354.68 58.0738 1358.12 62.7728 Q1361.61 67.4314 1367.64 67.4314 Q1373.6 67.4314 1377.08 62.7323 Q1380.56 58.0333 1380.56 49.9314 Q1380.56 41.8701 1377.08 37.1711 Q1373.6 32.4315 1367.64 32.4315 M1367.64 26.1121 Q1377.36 26.1121 1382.91 32.4315 Q1388.46 38.7509 1388.46 49.9314 Q1388.46 61.0714 1382.91 67.4314 Q1377.36 73.7508 1367.64 73.7508 Q1357.88 73.7508 1352.33 67.4314 Q1346.82 61.0714 1346.82 49.9314 Q1346.82 38.7509 1352.33 32.4315 Q1357.88 26.1121 1367.64 26.1121 Z" fill="#000000" fill-rule="nonzero" fill-opacity="1" /><path clip-path="url(#clip540)" d="M1438.53 45.1919 L1438.53 72.576 L1431.08 72.576 L1431.08 45.4349 Q1431.08 38.994 1428.57 35.7938 Q1426.06 32.5936 1421.03 32.5936 Q1415 32.5936 1411.51 36.4419 Q1408.03 40.2903 1408.03 46.9338 L1408.03 72.576 L1400.54 72.576 L1400.54 27.2059 L1408.03 27.2059 L1408.03 34.2544 Q1410.7 30.163 1414.31 28.1376 Q1417.95 26.1121 1422.69 26.1121 Q1430.51 26.1121 1434.52 30.9732 Q1438.53 35.7938 1438.53 45.1919 Z" fill="#000000" fill-rule="nonzero" fill-opacity="1" /><path clip-path="url(#clip540)" d="M1448.05 27.2059 L1455.95 27.2059 L1470.13 65.2844 L1484.31 27.2059 L1492.21 27.2059 L1475.19 72.576 L1465.07 72.576 L1448.05 27.2059 Z" fill="#000000" fill-rule="nonzero" fill-opacity="1" /><path clip-path="url(#clip540)" d="M1541.3 48.0275 L1541.3 51.6733 L1507.03 51.6733 Q1507.52 59.3701 1511.65 63.421 Q1515.82 67.4314 1523.24 67.4314 Q1527.53 67.4314 1531.54 66.3781 Q1535.59 65.3249 1539.56 63.2184 L1539.56 70.267 Q1535.55 71.9684 1531.34 72.8596 Q1527.13 73.7508 1522.79 73.7508 Q1511.93 73.7508 1505.57 67.4314 Q1499.26 61.1119 1499.26 50.3365 Q1499.26 39.1965 1505.25 32.6746 Q1511.29 26.1121 1521.5 26.1121 Q1530.65 26.1121 1535.96 32.0264 Q1541.3 37.9003 1541.3 48.0275 M1533.85 45.84 Q1533.77 39.7232 1530.41 36.0774 Q1527.09 32.4315 1521.58 32.4315 Q1515.34 32.4315 1511.57 35.9558 Q1507.84 39.4801 1507.28 45.8805 L1533.85 45.84 Z" fill="#000000" fill-rule="nonzero" fill-opacity="1" /><path clip-path="url(#clip540)" d="M1579.83 34.1734 Q1578.57 33.4443 1577.07 33.1202 Q1575.62 32.7556 1573.83 32.7556 Q1567.51 32.7556 1564.11 36.8875 Q1560.75 40.9789 1560.75 48.6757 L1560.75 72.576 L1553.25 72.576 L1553.25 27.2059 L1560.75 27.2059 L1560.75 34.2544 Q1563.1 30.1225 1566.87 28.1376 Q1570.63 26.1121 1576.02 26.1121 Q1576.79 26.1121 1577.72 26.2337 Q1578.65 26.3147 1579.79 26.5172 L1579.83 34.1734 Z" fill="#000000" fill-rule="nonzero" fill-opacity="1" /><path clip-path="url(#clip540)" d="M1616.04 49.3643 Q1616.04 41.2625 1612.68 36.8065 Q1609.36 32.3505 1603.32 32.3505 Q1597.33 32.3505 1593.97 36.8065 Q1590.64 41.2625 1590.64 49.3643 Q1590.64 57.4256 1593.97 61.8816 Q1597.33 66.3376 1603.32 66.3376 Q1609.36 66.3376 1612.68 61.8816 Q1616.04 57.4256 1616.04 49.3643 M1623.5 66.9452 Q1623.5 78.5308 1618.35 84.1616 Q1613.21 89.8329 1602.59 89.8329 Q1598.66 89.8329 1595.18 89.2252 Q1591.7 88.6581 1588.42 87.4428 L1588.42 80.1917 Q1591.7 81.9741 1594.9 82.8248 Q1598.1 83.6755 1601.42 83.6755 Q1608.75 83.6755 1612.4 79.8271 Q1616.04 76.0193 1616.04 68.282 L1616.04 64.5957 Q1613.73 68.6061 1610.13 70.5911 Q1606.52 72.576 1601.5 72.576 Q1593.16 72.576 1588.05 66.2161 Q1582.95 59.8562 1582.95 49.3643 Q1582.95 38.832 1588.05 32.472 Q1593.16 26.1121 1601.5 26.1121 Q1606.52 26.1121 1610.13 28.0971 Q1613.73 30.082 1616.04 34.0924 L1616.04 27.2059 L1623.5 27.2059 L1623.5 66.9452 Z" fill="#000000" fill-rule="nonzero" fill-opacity="1" /><path clip-path="url(#clip540)" d="M1677.66 48.0275 L1677.66 51.6733 L1643.39 51.6733 Q1643.87 59.3701 1648 63.421 Q1652.18 67.4314 1659.59 67.4314 Q1663.88 67.4314 1667.89 66.3781 Q1671.95 65.3249 1675.92 63.2184 L1675.92 70.267 Q1671.91 71.9684 1667.69 72.8596 Q1663.48 73.7508 1659.14 73.7508 Q1648.29 73.7508 1641.93 67.4314 Q1635.61 61.1119 1635.61 50.3365 Q1635.61 39.1965 1641.6 32.6746 Q1647.64 26.1121 1657.85 26.1121 Q1667 26.1121 1672.31 32.0264 Q1677.66 37.9003 1677.66 48.0275 M1670.2 45.84 Q1670.12 39.7232 1666.76 36.0774 Q1663.44 32.4315 1657.93 32.4315 Q1651.69 32.4315 1647.92 35.9558 Q1644.2 39.4801 1643.63 45.8805 L1670.2 45.84 Z" fill="#000000" fill-rule="nonzero" fill-opacity="1" /><path clip-path="url(#clip540)" d="M1727.61 45.1919 L1727.61 72.576 L1720.15 72.576 L1720.15 45.4349 Q1720.15 38.994 1717.64 35.7938 Q1715.13 32.5936 1710.11 32.5936 Q1704.07 32.5936 1700.59 36.4419 Q1697.1 40.2903 1697.1 46.9338 L1697.1 72.576 L1689.61 72.576 L1689.61 27.2059 L1697.1 27.2059 L1697.1 34.2544 Q1699.78 30.163 1703.38 28.1376 Q1707.03 26.1121 1711.77 26.1121 Q1719.58 26.1121 1723.59 30.9732 Q1727.61 35.7938 1727.61 45.1919 Z" fill="#000000" fill-rule="nonzero" fill-opacity="1" /><path clip-path="url(#clip540)" d="M1775.12 28.9478 L1775.12 35.9153 Q1771.96 34.1734 1768.76 33.3227 Q1765.6 32.4315 1762.36 32.4315 Q1755.11 32.4315 1751.1 37.0496 Q1747.09 41.6271 1747.09 49.9314 Q1747.09 58.2358 1751.1 62.8538 Q1755.11 67.4314 1762.36 67.4314 Q1765.6 67.4314 1768.76 66.5807 Q1771.96 65.6895 1775.12 63.9476 L1775.12 70.8341 Q1772 72.2924 1768.64 73.0216 Q1765.32 73.7508 1761.55 73.7508 Q1751.3 73.7508 1745.27 67.3098 Q1739.23 60.8689 1739.23 49.9314 Q1739.23 38.832 1745.31 32.472 Q1751.42 26.1121 1762.04 26.1121 Q1765.48 26.1121 1768.76 26.8413 Q1772.04 27.5299 1775.12 28.9478 Z" fill="#000000" fill-rule="nonzero" fill-opacity="1" /><path clip-path="url(#clip540)" d="M1826.89 48.0275 L1826.89 51.6733 L1792.62 51.6733 Q1793.11 59.3701 1797.24 63.421 Q1801.41 67.4314 1808.83 67.4314 Q1813.12 67.4314 1817.13 66.3781 Q1821.18 65.3249 1825.15 63.2184 L1825.15 70.267 Q1821.14 71.9684 1816.93 72.8596 Q1812.71 73.7508 1808.38 73.7508 Q1797.52 73.7508 1791.16 67.4314 Q1784.84 61.1119 1784.84 50.3365 Q1784.84 39.1965 1790.84 32.6746 Q1796.88 26.1121 1807.08 26.1121 Q1816.24 26.1121 1821.55 32.0264 Q1826.89 37.9003 1826.89 48.0275 M1819.44 45.84 Q1819.36 39.7232 1816 36.0774 Q1812.67 32.4315 1807.16 32.4315 Q1800.93 32.4315 1797.16 35.9558 Q1793.43 39.4801 1792.87 45.8805 L1819.44 45.84 Z" fill="#000000" fill-rule="nonzero" fill-opacity="1" /><polyline clip-path="url(#clip541)" style="stroke:#009af9; stroke-linecap:round; stroke-linejoin:round; stroke-width:8; stroke-opacity:1; fill:none" points="308.55,160.256 970.105,577.489 1631.66,986.053 2293.22,1386.4 "/>
<circle clip-path="url(#clip541)" cx="308.55" cy="160.256" r="14.4" fill="#009af9" fill-rule="evenodd" fill-opacity="1" stroke="#000000" stroke-opacity="1" stroke-width="3.2"/>
<circle clip-path="url(#clip541)" cx="970.105" cy="577.489" r="14.4" fill="#009af9" fill-rule="evenodd" fill-opacity="1" stroke="#000000" stroke-opacity="1" stroke-width="3.2"/>
<circle clip-path="url(#clip541)" cx="1631.66" cy="986.053" r="14.4" fill="#009af9" fill-rule="evenodd" fill-opacity="1" stroke="#000000" stroke-opacity="1" stroke-width="3.2"/>
<circle clip-path="url(#clip541)" cx="2293.22" cy="1386.4" r="14.4" fill="#009af9" fill-rule="evenodd" fill-opacity="1" stroke="#000000" stroke-opacity="1" stroke-width="3.2"/>
</svg>
