<?xml version="1.0" encoding="utf-8"?>
<svg xmlns="http://www.w3.org/2000/svg" xmlns:xlink="http://www.w3.org/1999/xlink" width="1100" height="500" viewBox="0 0 4400 2000">
<defs>
  <clipPath id="clip490">
    <rect x="0" y="0" width="4400" height="2000"/>
  </clipPath>
</defs>
<path clip-path="url(#clip490)" d="M0 2000 L4400 2000 L4400 0 L0 0  Z" fill="#ffffff" fill-rule="evenodd" fill-opacity="1"/>
<defs>
  <clipPath id="clip491">
    <rect x="880" y="0" width="3081" height="2000"/>
  </clipPath>
</defs>
<path clip-path="url(#clip490)" d="M207.107 1845.3 L3526.56 1845.3 L3526.56 104.228 L207.107 104.228  Z" fill="#ffffff" fill-rule="evenodd" fill-opacity="1"/>
<defs>
  <clipPath id="clip492">
    <rect x="207" y="104" width="3320" height="1742"/>
  </clipPath>
</defs>
<polyline clip-path="url(#clip492)" style="stroke:#000000; stroke-linecap:round; stroke-linejoin:round; stroke-width:2; stroke-opacity:0.1; fill:none" points="461.935,1845.3 461.935,104.228 "/>
<polyline clip-path="url(#clip492)" style="stroke:#000000; stroke-linecap:round; stroke-linejoin:round; stroke-width:2; stroke-opacity:0.1; fill:none" points="662.634,1845.3 662.634,104.228 "/>
<polyline clip-path="url(#clip492)" style="stroke:#000000; stroke-linecap:round; stroke-linejoin:round; stroke-width:2; stroke-opacity:0.1; fill:none" points="863.334,1845.3 863.334,104.228 "/>
<polyline clip-path="url(#clip492)" style="stroke:#000000; stroke-linecap:round; stroke-linejoin:round; stroke-width:2; stroke-opacity:0.1; fill:none" points="1064.03,1845.3 1064.03,104.228 "/>
<polyline clip-path="url(#clip492)" style="stroke:#000000; stroke-linecap:round; stroke-linejoin:round; stroke-width:2; stroke-opacity:0.1; fill:none" points="1264.73,1845.3 1264.73,104.228 "/>
<polyline clip-path="url(#clip492)" style="stroke:#000000; stroke-linecap:round; stroke-linejoin:round; stroke-width:2; stroke-opacity:0.1; fill:none" points="1465.43,1845.3 1465.43,104.228 "/>
<polyline clip-path="url(#clip492)" style="stroke:#000000; stroke-linecap:round; stroke-linejoin:round; stroke-width:2; stroke-opacity:0.1; fill:none" points="1666.13,1845.3 1666.13,104.228 "/>
<polyline clip-path="url(#clip492)" style="stroke:#000000; stroke-linecap:round; stroke-linejoin:round; stroke-width:2; stroke-opacity:0.1; fill:none" points="1866.83,1845.3 1866.83,104.228 "/>
<polyline clip-path="url(#clip492)" style="stroke:#000000; stroke-linecap:round; stroke-linejoin:round; stroke-width:2; stroke-opacity:0.1; fill:none" points="2067.53,1845.3 2067.53,104.228 "/>
<polyline clip-path="url(#clip492)" style="stroke:#000000; stroke-linecap:round; stroke-linejoin:round; stroke-width:2; stroke-opacity:0.1; fill:none" points="2268.23,1845.3 2268.23,104.228 "/>
<polyline clip-path="url(#clip492)" style="stroke:#000000; stroke-linecap:round; stroke-linejoin:round; stroke-width:2; stroke-opacity:0.1; fill:none" points="2468.93,1845.3 2468.93,104.228 "/>
<polyline clip-path="url(#clip492)" style="stroke:#000000; stroke-linecap:round; stroke-linejoin:round; stroke-width:2; stroke-opacity:0.1; fill:none" points="2669.63,1845.3 2669.63,104.228 "/>
<polyline clip-path="url(#clip492)" style="stroke:#000000; stroke-linecap:round; stroke-linejoin:round; stroke-width:2; stroke-opacity:0.1; fill:none" points="2870.33,1845.3 2870.33,104.228 "/>
<polyline clip-path="url(#clip492)" style="stroke:#000000; stroke-linecap:round; stroke-linejoin:round; stroke-width:2; stroke-opacity:0.1; fill:none" points="3071.03,1845.3 3071.03,104.228 "/>
<polyline clip-path="url(#clip492)" style="stroke:#000000; stroke-linecap:round; stroke-linejoin:round; stroke-width:2; stroke-opacity:0.1; fill:none" points="3271.73,1845.3 3271.73,104.228 "/>
<polyline clip-path="url(#clip492)" style="stroke:#000000; stroke-linecap:round; stroke-linejoin:round; stroke-width:2; stroke-opacity:0.1; fill:none" points="207.107,1845.3 3526.56,1845.3 "/>
<polyline clip-path="url(#clip492)" style="stroke:#000000; stroke-linecap:round; stroke-linejoin:round; stroke-width:2; stroke-opacity:0.1; fill:none" points="207.107,1497.08 3526.56,1497.08 "/>
<polyline clip-path="url(#clip492)" style="stroke:#000000; stroke-linecap:round; stroke-linejoin:round; stroke-width:2; stroke-opacity:0.1; fill:none" points="207.107,1148.87 3526.56,1148.87 "/>
<polyline clip-path="url(#clip492)" style="stroke:#000000; stroke-linecap:round; stroke-linejoin:round; stroke-width:2; stroke-opacity:0.1; fill:none" points="207.107,800.656 3526.56,800.656 "/>
<polyline clip-path="url(#clip492)" style="stroke:#000000; stroke-linecap:round; stroke-linejoin:round; stroke-width:2; stroke-opacity:0.1; fill:none" points="207.107,452.442 3526.56,452.442 "/>
<polyline clip-path="url(#clip492)" style="stroke:#000000; stroke-linecap:round; stroke-linejoin:round; stroke-width:2; stroke-opacity:0.1; fill:none" points="207.107,104.228 3526.56,104.228 "/>
<polyline clip-path="url(#clip490)" style="stroke:#000000; stroke-linecap:round; stroke-linejoin:round; stroke-width:4; stroke-opacity:1; fill:none" points="207.107,1845.3 3526.56,1845.3 "/>
<polyline clip-path="url(#clip490)" style="stroke:#000000; stroke-linecap:round; stroke-linejoin:round; stroke-width:4; stroke-opacity:1; fill:none" points="461.935,1845.3 461.935,1826.4 "/>
<polyline clip-path="url(#clip490)" style="stroke:#000000; stroke-linecap:round; stroke-linejoin:round; stroke-width:4; stroke-opacity:1; fill:none" points="662.634,1845.3 662.634,1826.4 "/>
<polyline clip-path="url(#clip490)" style="stroke:#000000; stroke-linecap:round; stroke-linejoin:round; stroke-width:4; stroke-opacity:1; fill:none" points="863.334,1845.3 863.334,1826.4 "/>
<polyline clip-path="url(#clip490)" style="stroke:#000000; stroke-linecap:round; stroke-linejoin:round; stroke-width:4; stroke-opacity:1; fill:none" points="1064.03,1845.3 1064.03,1826.4 "/>
<polyline clip-path="url(#clip490)" style="stroke:#000000; stroke-linecap:round; stroke-linejoin:round; stroke-width:4; stroke-opacity:1; fill:none" points="1264.73,1845.3 1264.73,1826.4 "/>
<polyline clip-path="url(#clip490)" style="stroke:#000000; stroke-linecap:round; stroke-linejoin:round; stroke-width:4; stroke-opacity:1; fill:none" points="1465.43,1845.3 1465.43,1826.4 "/>
<polyline clip-path="url(#clip490)" style="stroke:#000000; stroke-linecap:round; stroke-linejoin:round; stroke-width:4; stroke-opacity:1; fill:none" points="1666.13,1845.3 1666.13,1826.4 "/>
<polyline clip-path="url(#clip490)" style="stroke:#000000; stroke-linecap:round; stroke-linejoin:round; stroke-width:4; stroke-opacity:1; fill:none" points="1866.83,1845.3 1866.83,1826.4 "/>
<polyline clip-path="url(#clip490)" style="stroke:#000000; stroke-linecap:round; stroke-linejoin:round; stroke-width:4; stroke-opacity:1; fill:none" points="2067.53,1845.3 2067.53,1826.4 "/>
<polyline clip-path="url(#clip490)" style="stroke:#000000; stroke-linecap:round; stroke-linejoin:round; stroke-width:4; stroke-opacity:1; fill:none" points="2268.23,1845.3 2268.23,1826.4 "/>
<polyline clip-path="url(#clip490)" style="stroke:#000000; stroke-linecap:round; stroke-linejoin:round; stroke-width:4; stroke-opacity:1; fill:none" points="2468.93,1845.3 2468.93,1826.4 "/>
<polyline clip-path="url(#clip490)" style="stroke:#000000; stroke-linecap:round; stroke-linejoin:round; stroke-width:4; stroke-opacity:1; fill:none" points="2669.63,1845.3 2669.63,1826.4 "/>
<polyline clip-path="url(#clip490)" style="stroke:#000000; stroke-linecap:round; stroke-linejoin:round; stroke-width:4; stroke-opacity:1; fill:none" points="2870.33,1845.3 2870.33,1826.4 "/>
<polyline clip-path="url(#clip490)" style="stroke:#000000; stroke-linecap:round; stroke-linejoin:round; stroke-width:4; stroke-opacity:1; fill:none" points="3071.03,1845.3 3071.03,1826.4 "/>
<polyline clip-path="url(#clip490)" style="stroke:#000000; stroke-linecap:round; stroke-linejoin:round; stroke-width:4; stroke-opacity:1; fill:none" points="3271.73,1845.3 3271.73,1826.4 "/>
<path clip-path="url(#clip490)" d="M452.317 1919.76 L459.956 1919.76 L459.956 1893.4 L451.646 1895.06 L451.646 1890.8 L459.909 1889.14 L464.585 1889.14 L464.585 1919.76 L472.224 1919.76 L472.224 1923.7 L452.317 1923.7 L452.317 1919.76 Z" fill="#000000" fill-rule="nonzero" fill-opacity="1" /><path clip-path="url(#clip490)" d="M657.287 1919.76 L673.606 1919.76 L673.606 1923.7 L651.662 1923.7 L651.662 1919.76 Q654.324 1917.01 658.907 1912.38 Q663.514 1907.72 664.694 1906.38 Q666.94 1903.86 667.819 1902.12 Q668.722 1900.36 668.722 1898.67 Q668.722 1895.92 666.778 1894.18 Q664.857 1892.45 661.755 1892.45 Q659.556 1892.45 657.102 1893.21 Q654.671 1893.97 651.894 1895.53 L651.894 1890.8 Q654.718 1889.67 657.171 1889.09 Q659.625 1888.51 661.662 1888.51 Q667.032 1888.51 670.227 1891.2 Q673.421 1893.88 673.421 1898.37 Q673.421 1900.5 672.611 1902.42 Q671.824 1904.32 669.718 1906.91 Q669.139 1907.59 666.037 1910.8 Q662.935 1914 657.287 1919.76 Z" fill="#000000" fill-rule="nonzero" fill-opacity="1" /><path clip-path="url(#clip490)" d="M867.581 1905.06 Q870.938 1905.78 872.813 1908.05 Q874.711 1910.32 874.711 1913.65 Q874.711 1918.77 871.193 1921.57 Q867.674 1924.37 861.193 1924.37 Q859.017 1924.37 856.702 1923.93 Q854.41 1923.51 851.957 1922.65 L851.957 1918.14 Q853.901 1919.27 856.216 1919.85 Q858.531 1920.43 861.054 1920.43 Q865.452 1920.43 867.744 1918.7 Q870.058 1916.96 870.058 1913.65 Q870.058 1910.59 867.906 1908.88 Q865.776 1907.15 861.957 1907.15 L857.929 1907.15 L857.929 1903.3 L862.142 1903.3 Q865.591 1903.3 867.419 1901.94 Q869.248 1900.55 869.248 1897.96 Q869.248 1895.29 867.35 1893.88 Q865.475 1892.45 861.957 1892.45 Q860.035 1892.45 857.836 1892.86 Q855.637 1893.28 852.998 1894.16 L852.998 1889.99 Q855.66 1889.25 857.975 1888.88 Q860.313 1888.51 862.373 1888.51 Q867.697 1888.51 870.799 1890.94 Q873.901 1893.35 873.901 1897.47 Q873.901 1900.34 872.257 1902.33 Q870.614 1904.3 867.581 1905.06 Z" fill="#000000" fill-rule="nonzero" fill-opacity="1" /><path clip-path="url(#clip490)" d="M1067.04 1893.21 L1055.24 1911.66 L1067.04 1911.66 L1067.04 1893.21 M1065.82 1889.14 L1071.7 1889.14 L1071.7 1911.66 L1076.63 1911.66 L1076.63 1915.55 L1071.7 1915.55 L1071.7 1923.7 L1067.04 1923.7 L1067.04 1915.55 L1051.44 1915.55 L1051.44 1911.03 L1065.82 1889.14 Z" fill="#000000" fill-rule="nonzero" fill-opacity="1" /><path clip-path="url(#clip490)" d="M1255.01 1889.14 L1273.37 1889.14 L1273.37 1893.07 L1259.29 1893.07 L1259.29 1901.54 Q1260.31 1901.2 1261.33 1901.03 Q1262.35 1900.85 1263.37 1900.85 Q1269.15 1900.85 1272.53 1904.02 Q1275.91 1907.19 1275.91 1912.61 Q1275.91 1918.19 1272.44 1921.29 Q1268.97 1924.37 1262.65 1924.37 Q1260.47 1924.37 1258.21 1924 Q1255.96 1923.63 1253.55 1922.89 L1253.55 1918.19 Q1255.64 1919.32 1257.86 1919.88 Q1260.08 1920.43 1262.56 1920.43 Q1266.56 1920.43 1268.9 1918.33 Q1271.24 1916.22 1271.24 1912.61 Q1271.24 1909 1268.9 1906.89 Q1266.56 1904.78 1262.56 1904.78 Q1260.68 1904.78 1258.81 1905.2 Q1256.96 1905.62 1255.01 1906.5 L1255.01 1889.14 Z" fill="#000000" fill-rule="nonzero" fill-opacity="1" /><path clip-path="url(#clip490)" d="M1465.84 1904.55 Q1462.69 1904.55 1460.84 1906.71 Q1459.01 1908.86 1459.01 1912.61 Q1459.01 1916.34 1460.84 1918.51 Q1462.69 1920.66 1465.84 1920.66 Q1468.99 1920.66 1470.81 1918.51 Q1472.67 1916.34 1472.67 1912.61 Q1472.67 1908.86 1470.81 1906.71 Q1468.99 1904.55 1465.84 1904.55 M1475.12 1889.9 L1475.12 1894.16 Q1473.36 1893.33 1471.55 1892.89 Q1469.77 1892.45 1468.01 1892.45 Q1463.38 1892.45 1460.93 1895.57 Q1458.5 1898.7 1458.15 1905.02 Q1459.52 1903 1461.58 1901.94 Q1463.64 1900.85 1466.12 1900.85 Q1471.32 1900.85 1474.33 1904.02 Q1477.37 1907.17 1477.37 1912.61 Q1477.37 1917.93 1474.22 1921.15 Q1471.07 1924.37 1465.84 1924.37 Q1459.84 1924.37 1456.67 1919.78 Q1453.5 1915.18 1453.5 1906.45 Q1453.5 1898.26 1457.39 1893.4 Q1461.28 1888.51 1467.83 1888.51 Q1469.59 1888.51 1471.37 1888.86 Q1473.18 1889.21 1475.12 1889.9 Z" fill="#000000" fill-rule="nonzero" fill-opacity="1" /><path clip-path="url(#clip490)" d="M1655.02 1889.14 L1677.24 1889.14 L1677.24 1891.13 L1664.7 1923.7 L1659.81 1923.7 L1671.62 1893.07 L1655.02 1893.07 L1655.02 1889.14 Z" fill="#000000" fill-rule="nonzero" fill-opacity="1" /><path clip-path="url(#clip490)" d="M1866.83 1907.28 Q1863.5 1907.28 1861.58 1909.07 Q1859.68 1910.85 1859.68 1913.97 Q1859.68 1917.1 1861.58 1918.88 Q1863.5 1920.66 1866.83 1920.66 Q1870.16 1920.66 1872.09 1918.88 Q1874.01 1917.08 1874.01 1913.97 Q1874.01 1910.85 1872.09 1909.07 Q1870.19 1907.28 1866.83 1907.28 M1862.16 1905.29 Q1859.15 1904.55 1857.46 1902.49 Q1855.79 1900.43 1855.79 1897.47 Q1855.79 1893.33 1858.73 1890.92 Q1861.69 1888.51 1866.83 1888.51 Q1871.99 1888.51 1874.93 1890.92 Q1877.87 1893.33 1877.87 1897.47 Q1877.87 1900.43 1876.18 1902.49 Q1874.52 1904.55 1871.53 1905.29 Q1874.91 1906.08 1876.78 1908.37 Q1878.68 1910.66 1878.68 1913.97 Q1878.68 1919 1875.6 1921.68 Q1872.55 1924.37 1866.83 1924.37 Q1861.11 1924.37 1858.04 1921.68 Q1854.98 1919 1854.98 1913.97 Q1854.98 1910.66 1856.88 1908.37 Q1858.78 1906.08 1862.16 1905.29 M1860.44 1897.91 Q1860.44 1900.59 1862.11 1902.1 Q1863.8 1903.6 1866.83 1903.6 Q1869.84 1903.6 1871.53 1902.1 Q1873.24 1900.59 1873.24 1897.91 Q1873.24 1895.22 1871.53 1893.72 Q1869.84 1892.21 1866.83 1892.21 Q1863.8 1892.21 1862.11 1893.72 Q1860.44 1895.22 1860.44 1897.91 Z" fill="#000000" fill-rule="nonzero" fill-opacity="1" /><path clip-path="url(#clip490)" d="M2057.83 1922.98 L2057.83 1918.72 Q2059.59 1919.55 2061.4 1919.99 Q2063.2 1920.43 2064.94 1920.43 Q2069.57 1920.43 2072 1917.33 Q2074.45 1914.21 2074.8 1907.86 Q2073.46 1909.85 2071.4 1910.92 Q2069.34 1911.98 2066.84 1911.98 Q2061.65 1911.98 2058.62 1908.86 Q2055.61 1905.71 2055.61 1900.27 Q2055.61 1894.95 2058.76 1891.73 Q2061.91 1888.51 2067.14 1888.51 Q2073.13 1888.51 2076.28 1893.12 Q2079.45 1897.7 2079.45 1906.45 Q2079.45 1914.62 2075.56 1919.51 Q2071.7 1924.37 2065.15 1924.37 Q2063.39 1924.37 2061.58 1924.02 Q2059.78 1923.67 2057.83 1922.98 M2067.14 1908.33 Q2070.29 1908.33 2072.11 1906.17 Q2073.97 1904.02 2073.97 1900.27 Q2073.97 1896.54 2072.11 1894.39 Q2070.29 1892.21 2067.14 1892.21 Q2063.99 1892.21 2062.14 1894.39 Q2060.31 1896.54 2060.31 1900.27 Q2060.31 1904.02 2062.14 1906.17 Q2063.99 1908.33 2067.14 1908.33 Z" fill="#000000" fill-rule="nonzero" fill-opacity="1" /><path clip-path="url(#clip490)" d="M2242.92 1919.76 L2250.56 1919.76 L2250.56 1893.4 L2242.25 1895.06 L2242.25 1890.8 L2250.51 1889.14 L2255.19 1889.14 L2255.19 1919.76 L2262.83 1919.76 L2262.83 1923.7 L2242.92 1923.7 L2242.92 1919.76 Z" fill="#000000" fill-rule="nonzero" fill-opacity="1" /><path clip-path="url(#clip490)" d="M2282.27 1892.21 Q2278.66 1892.21 2276.83 1895.78 Q2275.02 1899.32 2275.02 1906.45 Q2275.02 1913.56 2276.83 1917.12 Q2278.66 1920.66 2282.27 1920.66 Q2285.9 1920.66 2287.71 1917.12 Q2289.54 1913.56 2289.54 1906.45 Q2289.54 1899.32 2287.71 1895.78 Q2285.9 1892.21 2282.27 1892.21 M2282.27 1888.51 Q2288.08 1888.51 2291.14 1893.12 Q2294.21 1897.7 2294.21 1906.45 Q2294.21 1915.18 2291.14 1919.78 Q2288.08 1924.37 2282.27 1924.37 Q2276.46 1924.37 2273.38 1919.78 Q2270.33 1915.18 2270.33 1906.45 Q2270.33 1897.7 2273.38 1893.12 Q2276.46 1888.51 2282.27 1888.51 Z" fill="#000000" fill-rule="nonzero" fill-opacity="1" /><path clip-path="url(#clip490)" d="M2444.23 1919.76 L2451.87 1919.76 L2451.87 1893.4 L2443.56 1895.06 L2443.56 1890.8 L2451.82 1889.14 L2456.5 1889.14 L2456.5 1919.76 L2464.14 1919.76 L2464.14 1923.7 L2444.23 1923.7 L2444.23 1919.76 Z" fill="#000000" fill-rule="nonzero" fill-opacity="1" /><path clip-path="url(#clip490)" d="M2474.39 1919.76 L2482.03 1919.76 L2482.03 1893.4 L2473.72 1895.06 L2473.72 1890.8 L2481.99 1889.14 L2486.66 1889.14 L2486.66 1919.76 L2494.3 1919.76 L2494.3 1923.7 L2474.39 1923.7 L2474.39 1919.76 Z" fill="#000000" fill-rule="nonzero" fill-opacity="1" /><path clip-path="url(#clip490)" d="M2645.12 1919.76 L2652.75 1919.76 L2652.75 1893.4 L2644.44 1895.06 L2644.44 1890.8 L2652.71 1889.14 L2657.38 1889.14 L2657.38 1919.76 L2665.02 1919.76 L2665.02 1923.7 L2645.12 1923.7 L2645.12 1919.76 Z" fill="#000000" fill-rule="nonzero" fill-opacity="1" /><path clip-path="url(#clip490)" d="M2678.5 1919.76 L2694.81 1919.76 L2694.81 1923.7 L2672.87 1923.7 L2672.87 1919.76 Q2675.53 1917.01 2680.12 1912.38 Q2684.72 1907.72 2685.9 1906.38 Q2688.15 1903.86 2689.03 1902.12 Q2689.93 1900.36 2689.93 1898.67 Q2689.93 1895.92 2687.99 1894.18 Q2686.06 1892.45 2682.96 1892.45 Q2680.76 1892.45 2678.31 1893.21 Q2675.88 1893.97 2673.1 1895.53 L2673.1 1890.8 Q2675.93 1889.67 2678.38 1889.09 Q2680.83 1888.51 2682.87 1888.51 Q2688.24 1888.51 2691.43 1891.2 Q2694.63 1893.88 2694.63 1898.37 Q2694.63 1900.5 2693.82 1902.42 Q2693.03 1904.32 2690.93 1906.91 Q2690.35 1907.59 2687.24 1910.8 Q2684.14 1914 2678.5 1919.76 Z" fill="#000000" fill-rule="nonzero" fill-opacity="1" /><path clip-path="url(#clip490)" d="M2845.34 1919.76 L2852.98 1919.76 L2852.98 1893.4 L2844.67 1895.06 L2844.67 1890.8 L2852.93 1889.14 L2857.61 1889.14 L2857.61 1919.76 L2865.25 1919.76 L2865.25 1923.7 L2845.34 1923.7 L2845.34 1919.76 Z" fill="#000000" fill-rule="nonzero" fill-opacity="1" /><path clip-path="url(#clip490)" d="M2888.86 1905.06 Q2892.22 1905.78 2894.09 1908.05 Q2895.99 1910.32 2895.99 1913.65 Q2895.99 1918.77 2892.47 1921.57 Q2888.95 1924.37 2882.47 1924.37 Q2880.29 1924.37 2877.98 1923.93 Q2875.69 1923.51 2873.23 1922.65 L2873.23 1918.14 Q2875.18 1919.27 2877.49 1919.85 Q2879.81 1920.43 2882.33 1920.43 Q2886.73 1920.43 2889.02 1918.7 Q2891.34 1916.96 2891.34 1913.65 Q2891.34 1910.59 2889.18 1908.88 Q2887.05 1907.15 2883.23 1907.15 L2879.21 1907.15 L2879.21 1903.3 L2883.42 1903.3 Q2886.87 1903.3 2888.7 1901.94 Q2890.53 1900.55 2890.53 1897.96 Q2890.53 1895.29 2888.63 1893.88 Q2886.75 1892.45 2883.23 1892.45 Q2881.31 1892.45 2879.11 1892.86 Q2876.91 1893.28 2874.28 1894.16 L2874.28 1889.99 Q2876.94 1889.25 2879.25 1888.88 Q2881.59 1888.51 2883.65 1888.51 Q2888.97 1888.51 2892.08 1890.94 Q2895.18 1893.35 2895.18 1897.47 Q2895.18 1900.34 2893.53 1902.33 Q2891.89 1904.3 2888.86 1905.06 Z" fill="#000000" fill-rule="nonzero" fill-opacity="1" /><path clip-path="url(#clip490)" d="M3045.47 1919.76 L3053.11 1919.76 L3053.11 1893.4 L3044.8 1895.06 L3044.8 1890.8 L3053.07 1889.14 L3057.74 1889.14 L3057.74 1919.76 L3065.38 1919.76 L3065.38 1923.7 L3045.47 1923.7 L3045.47 1919.76 Z" fill="#000000" fill-rule="nonzero" fill-opacity="1" /><path clip-path="url(#clip490)" d="M3087.67 1893.21 L3075.87 1911.66 L3087.67 1911.66 L3087.67 1893.21 M3086.44 1889.14 L3092.32 1889.14 L3092.32 1911.66 L3097.26 1911.66 L3097.26 1915.55 L3092.32 1915.55 L3092.32 1923.7 L3087.67 1923.7 L3087.67 1915.55 L3072.07 1915.55 L3072.07 1911.03 L3086.44 1889.14 Z" fill="#000000" fill-rule="nonzero" fill-opacity="1" /><path clip-path="url(#clip490)" d="M3246.91 1919.76 L3254.55 1919.76 L3254.55 1893.4 L3246.24 1895.06 L3246.24 1890.8 L3254.51 1889.14 L3259.18 1889.14 L3259.18 1919.76 L3266.82 1919.76 L3266.82 1923.7 L3246.91 1923.7 L3246.91 1919.76 Z" fill="#000000" fill-rule="nonzero" fill-opacity="1" /><path clip-path="url(#clip490)" d="M3276.31 1889.14 L3294.67 1889.14 L3294.67 1893.07 L3280.59 1893.07 L3280.59 1901.54 Q3281.61 1901.2 3282.63 1901.03 Q3283.65 1900.85 3284.67 1900.85 Q3290.45 1900.85 3293.83 1904.02 Q3297.21 1907.19 3297.21 1912.61 Q3297.21 1918.19 3293.74 1921.29 Q3290.27 1924.37 3283.95 1924.37 Q3281.77 1924.37 3279.51 1924 Q3277.26 1923.63 3274.85 1922.89 L3274.85 1918.19 Q3276.94 1919.32 3279.16 1919.88 Q3281.38 1920.43 3283.86 1920.43 Q3287.86 1920.43 3290.2 1918.33 Q3292.54 1916.22 3292.54 1912.61 Q3292.54 1909 3290.2 1906.89 Q3287.86 1904.78 3283.86 1904.78 Q3281.98 1904.78 3280.11 1905.2 Q3278.26 1905.62 3276.31 1906.5 L3276.31 1889.14 Z" fill="#000000" fill-rule="nonzero" fill-opacity="1" /><path clip-path="url(#clip490)" d="M1748.7 1972.64 L1755.13 1972.64 L1755.13 2014.75 L1778.27 2014.75 L1778.27 2020.16 L1748.7 2020.16 L1748.7 1972.64 Z" fill="#000000" fill-rule="nonzero" fill-opacity="1" /><path clip-path="url(#clip490)" d="M1797.43 1988.62 Q1792.72 1988.62 1789.98 1992.31 Q1787.24 1995.97 1787.24 2002.37 Q1787.24 2008.77 1789.95 2012.46 Q1792.69 2016.12 1797.43 2016.12 Q1802.11 2016.12 1804.85 2012.43 Q1807.58 2008.73 1807.58 2002.37 Q1807.58 1996.03 1804.85 1992.34 Q1802.11 1988.62 1797.43 1988.62 M1797.43 1983.65 Q1805.07 1983.65 1809.43 1988.62 Q1813.79 1993.58 1813.79 2002.37 Q1813.79 2011.12 1809.43 2016.12 Q1805.07 2021.08 1797.43 2021.08 Q1789.76 2021.08 1785.4 2016.12 Q1781.07 2011.12 1781.07 2002.37 Q1781.07 1993.58 1785.4 1988.62 Q1789.76 1983.65 1797.43 1983.65 Z" fill="#000000" fill-rule="nonzero" fill-opacity="1" /><path clip-path="url(#clip490)" d="M1839.7 2002.24 Q1832.6 2002.24 1829.86 2003.86 Q1827.13 2005.49 1827.13 2009.4 Q1827.13 2012.52 1829.16 2014.37 Q1831.23 2016.18 1834.76 2016.18 Q1839.63 2016.18 1842.56 2012.74 Q1845.52 2009.27 1845.52 2003.55 L1845.52 2002.24 L1839.7 2002.24 M1851.38 1999.82 L1851.38 2020.16 L1845.52 2020.16 L1845.52 2014.75 Q1843.52 2018 1840.53 2019.56 Q1837.53 2021.08 1833.2 2021.08 Q1827.73 2021.08 1824.48 2018.03 Q1821.27 2014.94 1821.27 2009.78 Q1821.27 2003.77 1825.28 2000.71 Q1829.32 1997.66 1837.31 1997.66 L1845.52 1997.66 L1845.52 1997.08 Q1845.52 1993.04 1842.85 1990.85 Q1840.21 1988.62 1835.4 1988.62 Q1832.35 1988.62 1829.45 1989.35 Q1826.55 1990.08 1823.88 1991.55 L1823.88 1986.14 Q1827.09 1984.89 1830.12 1984.29 Q1833.14 1983.65 1836.01 1983.65 Q1843.74 1983.65 1847.56 1987.66 Q1851.38 1991.67 1851.38 1999.82 Z" fill="#000000" fill-rule="nonzero" fill-opacity="1" /><path clip-path="url(#clip490)" d="M1886.9 1989.92 L1886.9 1970.64 L1892.76 1970.64 L1892.76 2020.16 L1886.9 2020.16 L1886.9 2014.81 Q1885.05 2018 1882.22 2019.56 Q1879.42 2021.08 1875.47 2021.08 Q1869.01 2021.08 1864.94 2015.93 Q1860.9 2010.77 1860.9 2002.37 Q1860.9 1993.97 1864.94 1988.81 Q1869.01 1983.65 1875.47 1983.65 Q1879.42 1983.65 1882.22 1985.21 Q1885.05 1986.74 1886.9 1989.92 M1866.94 2002.37 Q1866.94 2008.83 1869.58 2012.52 Q1872.26 2016.18 1876.91 2016.18 Q1881.55 2016.18 1884.23 2012.52 Q1886.9 2008.83 1886.9 2002.37 Q1886.9 1995.91 1884.23 1992.25 Q1881.55 1988.55 1876.91 1988.55 Q1872.26 1988.55 1869.58 1992.25 Q1866.94 1995.91 1866.94 2002.37 Z" fill="#000000" fill-rule="nonzero" fill-opacity="1" /><path clip-path="url(#clip490)" d="M1925.79 1972.64 L1932.22 1972.64 L1932.22 2020.16 L1925.79 2020.16 L1925.79 1972.64 Z" fill="#000000" fill-rule="nonzero" fill-opacity="1" /><path clip-path="url(#clip490)" d="M1951.45 1977.92 L1951.45 2014.88 L1959.21 2014.88 Q1969.05 2014.88 1973.6 2010.42 Q1978.18 2005.96 1978.18 1996.35 Q1978.18 1986.8 1973.6 1982.38 Q1969.05 1977.92 1959.21 1977.92 L1951.45 1977.92 M1945.02 1972.64 L1958.23 1972.64 Q1972.04 1972.64 1978.5 1978.4 Q1984.96 1984.13 1984.96 1996.35 Q1984.96 2008.64 1978.47 2014.4 Q1971.98 2020.16 1958.23 2020.16 L1945.02 2020.16 L1945.02 1972.64 Z" fill="#000000" fill-rule="nonzero" fill-opacity="1" /><polyline clip-path="url(#clip490)" style="stroke:#000000; stroke-linecap:round; stroke-linejoin:round; stroke-width:4; stroke-opacity:1; fill:none" points="207.107,1845.3 207.107,104.228 "/>
<polyline clip-path="url(#clip490)" style="stroke:#000000; stroke-linecap:round; stroke-linejoin:round; stroke-width:4; stroke-opacity:1; fill:none" points="207.107,1845.3 222.239,1845.3 "/>
<polyline clip-path="url(#clip490)" style="stroke:#000000; stroke-linecap:round; stroke-linejoin:round; stroke-width:4; stroke-opacity:1; fill:none" points="207.107,1497.08 222.239,1497.08 "/>
<polyline clip-path="url(#clip490)" style="stroke:#000000; stroke-linecap:round; stroke-linejoin:round; stroke-width:4; stroke-opacity:1; fill:none" points="207.107,1148.87 222.239,1148.87 "/>
<polyline clip-path="url(#clip490)" style="stroke:#000000; stroke-linecap:round; stroke-linejoin:round; stroke-width:4; stroke-opacity:1; fill:none" points="207.107,800.656 222.239,800.656 "/>
<polyline clip-path="url(#clip490)" style="stroke:#000000; stroke-linecap:round; stroke-linejoin:round; stroke-width:4; stroke-opacity:1; fill:none" points="207.107,452.442 222.239,452.442 "/>
<polyline clip-path="url(#clip490)" style="stroke:#000000; stroke-linecap:round; stroke-linejoin:round; stroke-width:4; stroke-opacity:1; fill:none" points="207.107,104.228 222.239,104.228 "/>
<path clip-path="url(#clip490)" d="M129.163 1831.09 Q125.552 1831.09 123.723 1834.66 Q121.918 1838.2 121.918 1845.33 Q121.918 1852.44 123.723 1856 Q125.552 1859.54 129.163 1859.54 Q132.797 1859.54 134.603 1856 Q136.432 1852.44 136.432 1845.33 Q136.432 1838.2 134.603 1834.66 Q132.797 1831.09 129.163 1831.09 M129.163 1827.39 Q134.973 1827.39 138.029 1832 Q141.107 1836.58 141.107 1845.33 Q141.107 1854.06 138.029 1858.66 Q134.973 1863.25 129.163 1863.25 Q123.353 1863.25 120.274 1858.66 Q117.219 1854.06 117.219 1845.33 Q117.219 1836.58 120.274 1832 Q123.353 1827.39 129.163 1827.39 Z" fill="#000000" fill-rule="nonzero" fill-opacity="1" /><path clip-path="url(#clip490)" d="M124.788 1510.43 L141.107 1510.43 L141.107 1514.36 L119.163 1514.36 L119.163 1510.43 Q121.825 1507.67 126.408 1503.04 Q131.015 1498.39 132.195 1497.05 Q134.441 1494.52 135.32 1492.79 Q136.223 1491.03 136.223 1489.34 Q136.223 1486.59 134.279 1484.85 Q132.358 1483.11 129.256 1483.11 Q127.057 1483.11 124.603 1483.88 Q122.172 1484.64 119.395 1486.19 L119.395 1481.47 Q122.219 1480.34 124.672 1479.76 Q127.126 1479.18 129.163 1479.18 Q134.533 1479.18 137.728 1481.86 Q140.922 1484.55 140.922 1489.04 Q140.922 1491.17 140.112 1493.09 Q139.325 1494.99 137.219 1497.58 Q136.64 1498.25 133.538 1501.47 Q130.436 1504.66 124.788 1510.43 Z" fill="#000000" fill-rule="nonzero" fill-opacity="1" /><path clip-path="url(#clip490)" d="M131.524 1135.66 L119.719 1154.11 L131.524 1154.11 L131.524 1135.66 M130.297 1131.59 L136.177 1131.59 L136.177 1154.11 L141.107 1154.11 L141.107 1158 L136.177 1158 L136.177 1166.15 L131.524 1166.15 L131.524 1158 L115.922 1158 L115.922 1153.49 L130.297 1131.59 Z" fill="#000000" fill-rule="nonzero" fill-opacity="1" /><path clip-path="url(#clip490)" d="M129.58 798.792 Q126.432 798.792 124.58 800.945 Q122.751 803.098 122.751 806.848 Q122.751 810.575 124.58 812.75 Q126.432 814.903 129.58 814.903 Q132.728 814.903 134.557 812.75 Q136.408 810.575 136.408 806.848 Q136.408 803.098 134.557 800.945 Q132.728 798.792 129.58 798.792 M138.862 784.139 L138.862 788.399 Q137.103 787.565 135.297 787.126 Q133.515 786.686 131.756 786.686 Q127.126 786.686 124.672 789.811 Q122.242 792.936 121.895 799.255 Q123.26 797.241 125.321 796.176 Q127.381 795.088 129.858 795.088 Q135.066 795.088 138.075 798.26 Q141.107 801.408 141.107 806.848 Q141.107 812.172 137.959 815.389 Q134.811 818.607 129.58 818.607 Q123.584 818.607 120.413 814.024 Q117.242 809.417 117.242 800.69 Q117.242 792.496 121.131 787.635 Q125.02 782.751 131.57 782.751 Q133.33 782.751 135.112 783.098 Q136.918 783.445 138.862 784.139 Z" fill="#000000" fill-rule="nonzero" fill-opacity="1" /><path clip-path="url(#clip490)" d="M129.256 453.31 Q125.922 453.31 124.001 455.092 Q122.103 456.875 122.103 460 Q122.103 463.125 124.001 464.907 Q125.922 466.69 129.256 466.69 Q132.589 466.69 134.51 464.907 Q136.432 463.102 136.432 460 Q136.432 456.875 134.51 455.092 Q132.612 453.31 129.256 453.31 M124.58 451.319 Q121.571 450.579 119.881 448.518 Q118.214 446.458 118.214 443.495 Q118.214 439.352 121.154 436.944 Q124.117 434.537 129.256 434.537 Q134.418 434.537 137.357 436.944 Q140.297 439.352 140.297 443.495 Q140.297 446.458 138.607 448.518 Q136.941 450.579 133.955 451.319 Q137.334 452.106 139.209 454.398 Q141.107 456.69 141.107 460 Q141.107 465.023 138.029 467.708 Q134.973 470.393 129.256 470.393 Q123.538 470.393 120.459 467.708 Q117.404 465.023 117.404 460 Q117.404 456.69 119.302 454.398 Q121.2 452.106 124.58 451.319 M122.867 443.935 Q122.867 446.62 124.533 448.125 Q126.223 449.63 129.256 449.63 Q132.265 449.63 133.955 448.125 Q135.668 446.62 135.668 443.935 Q135.668 441.25 133.955 439.745 Q132.265 438.241 129.256 438.241 Q126.223 438.241 124.533 439.745 Q122.867 441.25 122.867 443.935 Z" fill="#000000" fill-rule="nonzero" fill-opacity="1" /><path clip-path="url(#clip490)" d="M89.8115 117.573 L97.4503 117.573 L97.4503 91.2077 L89.1402 92.8744 L89.1402 88.6151 L97.404 86.9485 L102.08 86.9485 L102.08 117.573 L109.719 117.573 L109.719 121.508 L89.8115 121.508 L89.8115 117.573 Z" fill="#000000" fill-rule="nonzero" fill-opacity="1" /><path clip-path="url(#clip490)" d="M129.163 90.0272 Q125.552 90.0272 123.723 93.592 Q121.918 97.1336 121.918 104.263 Q121.918 111.37 123.723 114.934 Q125.552 118.476 129.163 118.476 Q132.797 118.476 134.603 114.934 Q136.432 111.37 136.432 104.263 Q136.432 97.1336 134.603 93.592 Q132.797 90.0272 129.163 90.0272 M129.163 86.3235 Q134.973 86.3235 138.029 90.9299 Q141.107 95.5133 141.107 104.263 Q141.107 112.99 138.029 117.596 Q134.973 122.18 129.163 122.18 Q123.353 122.18 120.274 117.596 Q117.219 112.99 117.219 104.263 Q117.219 95.5133 120.274 90.9299 Q123.353 86.3235 129.163 86.3235 Z" fill="#000000" fill-rule="nonzero" fill-opacity="1" /><path clip-path="url(#clip490)" d="M-38.6358 1169.81 L-38.6358 1142.5 L-33.225 1142.5 L-33.225 1163.38 L-19.2204 1163.38 L-19.2204 1144.54 L-13.8096 1144.54 L-13.8096 1163.38 L8.88416 1163.38 L8.88416 1169.81 L-38.6358 1169.81 Z" fill="#000000" fill-rule="nonzero" fill-opacity="1" /><path clip-path="url(#clip490)" d="M-26.7638 1137.31 L-26.7638 1131.45 L8.88416 1131.45 L8.88416 1137.31 L-26.7638 1137.31 M-40.641 1137.31 L-40.641 1131.45 L-33.225 1131.45 L-33.225 1137.31 L-40.641 1137.31 Z" fill="#000000" fill-rule="nonzero" fill-opacity="1" /><path clip-path="url(#clip490)" d="M-12.6319 1089.57 L8.88416 1089.57 L8.88416 1095.42 L-12.441 1095.42 Q-17.5017 1095.42 -20.0162 1097.4 Q-22.5306 1099.37 -22.5306 1103.32 Q-22.5306 1108.06 -19.5069 1110.8 Q-16.4832 1113.53 -11.2633 1113.53 L8.88416 1113.53 L8.88416 1119.42 L-26.7638 1119.42 L-26.7638 1113.53 L-21.2256 1113.53 Q-24.4403 1111.43 -26.0317 1108.6 Q-27.6232 1105.74 -27.6232 1102.01 Q-27.6232 1095.87 -23.8037 1092.72 Q-20.0162 1089.57 -12.6319 1089.57 Z" fill="#000000" fill-rule="nonzero" fill-opacity="1" /><path clip-path="url(#clip490)" d="M-9.03531 1061.69 Q-9.03531 1068.78 -7.41205 1071.52 Q-5.7888 1074.26 -1.87389 1074.26 Q1.24531 1074.26 3.09136 1072.22 Q4.90559 1070.15 4.90559 1066.62 Q4.90559 1061.75 1.46811 1058.82 Q-2.0012 1055.86 -7.73034 1055.86 L-9.03531 1055.86 L-9.03531 1061.69 M-11.4543 1050.01 L8.88416 1050.01 L8.88416 1055.86 L3.47331 1055.86 Q6.71982 1057.87 8.27942 1060.86 Q9.80718 1063.85 9.80718 1068.18 Q9.80718 1073.65 6.75165 1076.9 Q3.66428 1080.11 -1.49194 1080.11 Q-7.50754 1080.11 -10.5631 1076.1 Q-13.6186 1072.06 -13.6186 1064.07 L-13.6186 1055.86 L-14.1915 1055.86 Q-18.2338 1055.86 -20.4299 1058.54 Q-22.6579 1061.18 -22.6579 1065.98 Q-22.6579 1069.04 -21.9259 1071.93 Q-21.1938 1074.83 -19.7297 1077.5 L-25.1405 1077.5 Q-26.3819 1074.29 -26.9866 1071.27 Q-27.6232 1068.24 -27.6232 1065.38 Q-27.6232 1057.64 -23.6128 1053.82 Q-19.6024 1050.01 -11.4543 1050.01 Z" fill="#000000" fill-rule="nonzero" fill-opacity="1" /><path clip-path="url(#clip490)" d="M-40.641 1037.94 L-40.641 1032.09 L8.88416 1032.09 L8.88416 1037.94 L-40.641 1037.94 Z" fill="#000000" fill-rule="nonzero" fill-opacity="1" /><path clip-path="url(#clip490)" d="M-38.6358 1003.09 L-38.6358 996.597 L1.53177 986.603 L-38.6358 976.64 L-38.6358 969.415 L1.53177 959.421 L-38.6358 949.459 L-38.6358 942.934 L8.88416 954.87 L8.88416 962.954 L-32.3656 972.98 L8.88416 983.101 L8.88416 991.186 L-38.6358 1003.09 Z" fill="#000000" fill-rule="nonzero" fill-opacity="1" /><path clip-path="url(#clip490)" d="M-10.4039 907.986 L-7.53937 907.986 L-7.53937 934.913 Q-1.49194 934.531 1.69091 931.285 Q4.84193 928.006 4.84193 922.182 Q4.84193 918.808 4.01439 915.657 Q3.18685 912.474 1.53177 909.355 L7.06993 909.355 Q8.40673 912.506 9.10696 915.816 Q9.80718 919.126 9.80718 922.532 Q9.80718 931.062 4.84193 936.059 Q-0.123317 941.024 -8.58971 941.024 Q-17.3426 941.024 -22.4669 936.313 Q-27.6232 931.571 -27.6232 923.55 Q-27.6232 916.357 -22.9762 912.187 Q-18.3611 907.986 -10.4039 907.986 M-12.1227 913.843 Q-16.9288 913.906 -19.7934 916.548 Q-22.6579 919.158 -22.6579 923.487 Q-22.6579 928.388 -19.8888 931.348 Q-17.1198 934.276 -12.0908 934.722 L-12.1227 913.843 Z" fill="#000000" fill-rule="nonzero" fill-opacity="1" /><path clip-path="url(#clip490)" d="M-26.7638 898.374 L-26.7638 892.517 L8.88416 892.517 L8.88416 898.374 L-26.7638 898.374 M-40.641 898.374 L-40.641 892.517 L-33.225 892.517 L-33.225 898.374 L-40.641 898.374 Z" fill="#000000" fill-rule="nonzero" fill-opacity="1" /><path clip-path="url(#clip490)" d="M-9.35359 856.806 Q-15.7193 856.806 -19.2204 859.448 Q-22.7216 862.058 -22.7216 866.8 Q-22.7216 871.511 -19.2204 874.152 Q-15.7193 876.762 -9.35359 876.762 Q-3.01971 876.762 0.481425 874.152 Q3.98256 871.511 3.98256 866.8 Q3.98256 862.058 0.481425 859.448 Q-3.01971 856.806 -9.35359 856.806 M4.45999 850.949 Q13.563 850.949 17.9871 854.992 Q22.4431 859.034 22.4431 867.373 Q22.4431 870.46 21.9657 873.197 Q21.5201 875.935 20.5652 878.513 L14.8679 878.513 Q16.2684 875.935 16.9368 873.42 Q17.6052 870.906 17.6052 868.296 Q17.6052 862.535 14.5815 859.67 Q11.5896 856.806 5.51033 856.806 L2.61394 856.806 Q5.76496 858.62 7.32456 861.453 Q8.88416 864.286 8.88416 868.232 Q8.88416 874.789 3.88708 878.799 Q-1.11 882.81 -9.35359 882.81 Q-17.629 882.81 -22.6261 878.799 Q-27.6232 874.789 -27.6232 868.232 Q-27.6232 864.286 -26.0636 861.453 Q-24.504 858.62 -21.3529 856.806 L-26.7638 856.806 L-26.7638 850.949 L4.45999 850.949 Z" fill="#000000" fill-rule="nonzero" fill-opacity="1" /><path clip-path="url(#clip490)" d="M-12.6319 809.254 L8.88416 809.254 L8.88416 815.11 L-12.441 815.11 Q-17.5017 815.11 -20.0162 817.084 Q-22.5306 819.057 -22.5306 823.004 Q-22.5306 827.746 -19.5069 830.484 Q-16.4832 833.221 -11.2633 833.221 L8.88416 833.221 L8.88416 839.109 L-40.641 839.109 L-40.641 833.221 L-21.2256 833.221 Q-24.4403 831.12 -26.0317 828.287 Q-27.6232 825.423 -27.6232 821.699 Q-27.6232 815.556 -23.8037 812.405 Q-20.0162 809.254 -12.6319 809.254 Z" fill="#000000" fill-rule="nonzero" fill-opacity="1" /><path clip-path="url(#clip490)" d="M-36.8853 791.78 L-26.7638 791.78 L-26.7638 779.717 L-22.2123 779.717 L-22.2123 791.78 L-2.86057 791.78 Q1.49994 791.78 2.74125 790.602 Q3.98256 789.393 3.98256 785.733 L3.98256 779.717 L8.88416 779.717 L8.88416 785.733 Q8.88416 792.512 6.3697 795.09 Q3.82342 797.668 -2.86057 797.668 L-22.2123 797.668 L-22.2123 801.965 L-26.7638 801.965 L-26.7638 797.668 L-36.8853 797.668 L-36.8853 791.78 Z" fill="#000000" fill-rule="nonzero" fill-opacity="1" /><path clip-path="url(#clip490)" d="M1304.85 12.096 L1339.61 12.096 L1339.61 18.9825 L1313.03 18.9825 L1313.03 36.8065 L1337.01 36.8065 L1337.01 43.6931 L1313.03 43.6931 L1313.03 72.576 L1304.85 72.576 L1304.85 12.096 Z" fill="#000000" fill-rule="nonzero" fill-opacity="1" /><path clip-path="url(#clip490)" d="M1346.21 27.2059 L1353.66 27.2059 L1353.66 72.576 L1346.21 72.576 L1346.21 27.2059 M1346.21 9.54393 L1353.66 9.54393 L1353.66 18.9825 L1346.21 18.9825 L1346.21 9.54393 Z" fill="#000000" fill-rule="nonzero" fill-opacity="1" /><path clip-path="url(#clip490)" d="M1406.97 45.1919 L1406.97 72.576 L1399.52 72.576 L1399.52 45.4349 Q1399.52 38.994 1397.01 35.7938 Q1394.5 32.5936 1389.47 32.5936 Q1383.44 32.5936 1379.95 36.4419 Q1376.47 40.2903 1376.47 46.9338 L1376.47 72.576 L1368.98 72.576 L1368.98 27.2059 L1376.47 27.2059 L1376.47 34.2544 Q1379.14 30.163 1382.75 28.1376 Q1386.39 26.1121 1391.13 26.1121 Q1398.95 26.1121 1402.96 30.9732 Q1406.97 35.7938 1406.97 45.1919 Z" fill="#000000" fill-rule="nonzero" fill-opacity="1" /><path clip-path="url(#clip490)" d="M1442.46 49.7694 Q1433.43 49.7694 1429.94 51.8354 Q1426.46 53.9013 1426.46 58.8839 Q1426.46 62.8538 1429.05 65.2034 Q1431.68 67.5124 1436.18 67.5124 Q1442.38 67.5124 1446.1 63.1374 Q1449.87 58.7219 1449.87 51.4303 L1449.87 49.7694 L1442.46 49.7694 M1457.33 46.6907 L1457.33 72.576 L1449.87 72.576 L1449.87 65.6895 Q1447.32 69.8214 1443.51 71.8063 Q1439.7 73.7508 1434.19 73.7508 Q1427.23 73.7508 1423.1 69.8619 Q1419 65.9325 1419 59.3701 Q1419 51.7138 1424.11 47.825 Q1429.25 43.9361 1439.42 43.9361 L1449.87 43.9361 L1449.87 43.2069 Q1449.87 38.0623 1446.47 35.2672 Q1443.11 32.4315 1436.99 32.4315 Q1433.1 32.4315 1429.41 33.3632 Q1425.73 34.295 1422.33 36.1584 L1422.33 29.2718 Q1426.42 27.692 1430.27 26.9223 Q1434.11 26.1121 1437.76 26.1121 Q1447.6 26.1121 1452.46 31.2163 Q1457.33 36.3204 1457.33 46.6907 Z" fill="#000000" fill-rule="nonzero" fill-opacity="1" /><path clip-path="url(#clip490)" d="M1472.68 9.54393 L1480.13 9.54393 L1480.13 72.576 L1472.68 72.576 L1472.68 9.54393 Z" fill="#000000" fill-rule="nonzero" fill-opacity="1" /><path clip-path="url(#clip490)" d="M1517.04 12.096 L1525.3 12.096 L1538.02 63.2184 L1550.7 12.096 L1559.89 12.096 L1572.61 63.2184 L1585.29 12.096 L1593.6 12.096 L1578.41 72.576 L1568.12 72.576 L1555.36 20.0763 L1542.48 72.576 L1532.19 72.576 L1517.04 12.096 Z" fill="#000000" fill-rule="nonzero" fill-opacity="1" /><path clip-path="url(#clip490)" d="M1638.08 48.0275 L1638.08 51.6733 L1603.81 51.6733 Q1604.29 59.3701 1608.42 63.421 Q1612.6 67.4314 1620.01 67.4314 Q1624.3 67.4314 1628.31 66.3781 Q1632.36 65.3249 1636.33 63.2184 L1636.33 70.267 Q1632.32 71.9684 1628.11 72.8596 Q1623.9 73.7508 1619.56 73.7508 Q1608.71 73.7508 1602.35 67.4314 Q1596.03 61.1119 1596.03 50.3365 Q1596.03 39.1965 1602.02 32.6746 Q1608.06 26.1121 1618.27 26.1121 Q1627.42 26.1121 1632.73 32.0264 Q1638.08 37.9003 1638.08 48.0275 M1630.62 45.84 Q1630.54 39.7232 1627.18 36.0774 Q1623.86 32.4315 1618.35 32.4315 Q1612.11 32.4315 1608.34 35.9558 Q1604.62 39.4801 1604.05 45.8805 L1630.62 45.84 Z" fill="#000000" fill-rule="nonzero" fill-opacity="1" /><path clip-path="url(#clip490)" d="M1650.31 27.2059 L1657.76 27.2059 L1657.76 72.576 L1650.31 72.576 L1650.31 27.2059 M1650.31 9.54393 L1657.76 9.54393 L1657.76 18.9825 L1650.31 18.9825 L1650.31 9.54393 Z" fill="#000000" fill-rule="nonzero" fill-opacity="1" /><path clip-path="url(#clip490)" d="M1703.22 49.3643 Q1703.22 41.2625 1699.85 36.8065 Q1696.53 32.3505 1690.5 32.3505 Q1684.5 32.3505 1681.14 36.8065 Q1677.82 41.2625 1677.82 49.3643 Q1677.82 57.4256 1681.14 61.8816 Q1684.5 66.3376 1690.5 66.3376 Q1696.53 66.3376 1699.85 61.8816 Q1703.22 57.4256 1703.22 49.3643 M1710.67 66.9452 Q1710.67 78.5308 1705.52 84.1616 Q1700.38 89.8329 1689.77 89.8329 Q1685.84 89.8329 1682.35 89.2252 Q1678.87 88.6581 1675.59 87.4428 L1675.59 80.1917 Q1678.87 81.9741 1682.07 82.8248 Q1685.27 83.6755 1688.59 83.6755 Q1695.92 83.6755 1699.57 79.8271 Q1703.22 76.0193 1703.22 68.282 L1703.22 64.5957 Q1700.91 68.6061 1697.3 70.5911 Q1693.7 72.576 1688.67 72.576 Q1680.33 72.576 1675.22 66.2161 Q1670.12 59.8562 1670.12 49.3643 Q1670.12 38.832 1675.22 32.472 Q1680.33 26.1121 1688.67 26.1121 Q1693.7 26.1121 1697.3 28.0971 Q1700.91 30.082 1703.22 34.0924 L1703.22 27.2059 L1710.67 27.2059 L1710.67 66.9452 Z" fill="#000000" fill-rule="nonzero" fill-opacity="1" /><path clip-path="url(#clip490)" d="M1763.74 45.1919 L1763.74 72.576 L1756.28 72.576 L1756.28 45.4349 Q1756.28 38.994 1753.77 35.7938 Q1751.26 32.5936 1746.24 32.5936 Q1740.2 32.5936 1736.72 36.4419 Q1733.23 40.2903 1733.23 46.9338 L1733.23 72.576 L1725.74 72.576 L1725.74 9.54393 L1733.23 9.54393 L1733.23 34.2544 Q1735.91 30.163 1739.51 28.1376 Q1743.16 26.1121 1747.9 26.1121 Q1755.72 26.1121 1759.73 30.9732 Q1763.74 35.7938 1763.74 45.1919 Z" fill="#000000" fill-rule="nonzero" fill-opacity="1" /><path clip-path="url(#clip490)" d="M1785.98 14.324 L1785.98 27.2059 L1801.33 27.2059 L1801.33 32.9987 L1785.98 32.9987 L1785.98 57.6282 Q1785.98 63.1779 1787.47 64.7578 Q1789.01 66.3376 1793.67 66.3376 L1801.33 66.3376 L1801.33 72.576 L1793.67 72.576 Q1785.04 72.576 1781.76 69.3758 Q1778.48 66.1351 1778.48 57.6282 L1778.48 32.9987 L1773.01 32.9987 L1773.01 27.2059 L1778.48 27.2059 L1778.48 14.324 L1785.98 14.324 Z" fill="#000000" fill-rule="nonzero" fill-opacity="1" /><path clip-path="url(#clip490)" d="M1840.05 28.5427 L1840.05 35.5912 Q1836.9 33.9709 1833.49 33.1607 Q1830.09 32.3505 1826.44 32.3505 Q1820.89 32.3505 1818.1 34.0519 Q1815.34 35.7533 1815.34 39.156 Q1815.34 41.7486 1817.33 43.2475 Q1819.31 44.7058 1825.31 46.0426 L1827.86 46.6097 Q1835.8 48.3111 1839.12 51.4303 Q1842.49 54.509 1842.49 60.0587 Q1842.49 66.3781 1837.46 70.0644 Q1832.48 73.7508 1823.73 73.7508 Q1820.08 73.7508 1816.11 73.0216 Q1812.18 72.3329 1807.81 70.9151 L1807.81 63.2184 Q1811.94 65.3654 1815.95 66.4591 Q1819.96 67.5124 1823.89 67.5124 Q1829.16 67.5124 1831.99 65.73 Q1834.83 63.9071 1834.83 60.6258 Q1834.83 57.5877 1832.76 55.9673 Q1830.74 54.3469 1823.81 52.8481 L1821.22 52.2405 Q1814.29 50.7821 1811.21 47.7845 Q1808.13 44.7463 1808.13 39.4801 Q1808.13 33.0797 1812.67 29.5959 Q1817.21 26.1121 1825.55 26.1121 Q1829.68 26.1121 1833.33 26.7198 Q1836.98 27.3274 1840.05 28.5427 Z" fill="#000000" fill-rule="nonzero" fill-opacity="1" /><path clip-path="url(#clip490)" d="M1856.26 62.2867 L1864.81 62.2867 L1864.81 72.576 L1856.26 72.576 L1856.26 62.2867 M1856.26 29.6769 L1864.81 29.6769 L1864.81 39.9662 L1856.26 39.9662 L1856.26 29.6769 Z" fill="#000000" fill-rule="nonzero" fill-opacity="1" /><path clip-path="url(#clip490)" d="M1944 35.9153 Q1946.8 30.8922 1950.69 28.5022 Q1954.57 26.1121 1959.84 26.1121 Q1966.93 26.1121 1970.78 31.0947 Q1974.63 36.0368 1974.63 45.1919 L1974.63 72.576 L1967.13 72.576 L1967.13 45.4349 Q1967.13 38.913 1964.82 35.7533 Q1962.51 32.5936 1957.77 32.5936 Q1951.98 32.5936 1948.62 36.4419 Q1945.26 40.2903 1945.26 46.9338 L1945.26 72.576 L1937.76 72.576 L1937.76 45.4349 Q1937.76 38.8725 1935.45 35.7533 Q1933.14 32.5936 1928.32 32.5936 Q1922.61 32.5936 1919.25 36.4824 Q1915.89 40.3308 1915.89 46.9338 L1915.89 72.576 L1908.39 72.576 L1908.39 27.2059 L1915.89 27.2059 L1915.89 34.2544 Q1918.44 30.082 1922 28.0971 Q1925.57 26.1121 1930.47 26.1121 Q1935.41 26.1121 1938.86 28.6237 Q1942.34 31.1352 1944 35.9153 Z" fill="#000000" fill-rule="nonzero" fill-opacity="1" /><path clip-path="url(#clip490)" d="M2007.07 32.4315 Q2001.08 32.4315 1997.59 37.1306 Q1994.11 41.7891 1994.11 49.9314 Q1994.11 58.0738 1997.55 62.7728 Q2001.04 67.4314 2007.07 67.4314 Q2013.03 67.4314 2016.51 62.7323 Q2020 58.0333 2020 49.9314 Q2020 41.8701 2016.51 37.1711 Q2013.03 32.4315 2007.07 32.4315 M2007.07 26.1121 Q2016.8 26.1121 2022.35 32.4315 Q2027.9 38.7509 2027.9 49.9314 Q2027.9 61.0714 2022.35 67.4314 Q2016.8 73.7508 2007.07 73.7508 Q1997.31 73.7508 1991.76 67.4314 Q1986.25 61.0714 1986.25 49.9314 Q1986.25 38.7509 1991.76 32.4315 Q1997.31 26.1121 2007.07 26.1121 Z" fill="#000000" fill-rule="nonzero" fill-opacity="1" /><path clip-path="url(#clip490)" d="M2047.62 14.324 L2047.62 27.2059 L2062.98 27.2059 L2062.98 32.9987 L2047.62 32.9987 L2047.62 57.6282 Q2047.62 63.1779 2049.12 64.7578 Q2050.66 66.3376 2055.32 66.3376 L2062.98 66.3376 L2062.98 72.576 L2055.32 72.576 Q2046.69 72.576 2043.41 69.3758 Q2040.13 66.1351 2040.13 57.6282 L2040.13 32.9987 L2034.66 32.9987 L2034.66 27.2059 L2040.13 27.2059 L2040.13 14.324 L2047.62 14.324 Z" fill="#000000" fill-rule="nonzero" fill-opacity="1" /><path clip-path="url(#clip490)" d="M2072.78 27.2059 L2080.23 27.2059 L2080.23 72.576 L2072.78 72.576 L2072.78 27.2059 M2072.78 9.54393 L2080.23 9.54393 L2080.23 18.9825 L2072.78 18.9825 L2072.78 9.54393 Z" fill="#000000" fill-rule="nonzero" fill-opacity="1" /><path clip-path="url(#clip490)" d="M2090.48 27.2059 L2098.38 27.2059 L2112.56 65.2844 L2126.74 27.2059 L2134.64 27.2059 L2117.62 72.576 L2107.5 72.576 L2090.48 27.2059 Z" fill="#000000" fill-rule="nonzero" fill-opacity="1" /><path clip-path="url(#clip490)" d="M2165.54 49.7694 Q2156.51 49.7694 2153.03 51.8354 Q2149.54 53.9013 2149.54 58.8839 Q2149.54 62.8538 2152.14 65.2034 Q2154.77 67.5124 2159.27 67.5124 Q2165.46 67.5124 2169.19 63.1374 Q2172.96 58.7219 2172.96 51.4303 L2172.96 49.7694 L2165.54 49.7694 M2180.41 46.6907 L2180.41 72.576 L2172.96 72.576 L2172.96 65.6895 Q2170.41 69.8214 2166.6 71.8063 Q2162.79 73.7508 2157.28 73.7508 Q2150.31 73.7508 2146.18 69.8619 Q2142.09 65.9325 2142.09 59.3701 Q2142.09 51.7138 2147.19 47.825 Q2152.34 43.9361 2162.51 43.9361 L2172.96 43.9361 L2172.96 43.2069 Q2172.96 38.0623 2169.56 35.2672 Q2166.19 32.4315 2160.08 32.4315 Q2156.19 32.4315 2152.5 33.3632 Q2148.81 34.295 2145.41 36.1584 L2145.41 29.2718 Q2149.5 27.692 2153.35 26.9223 Q2157.2 26.1121 2160.85 26.1121 Q2170.69 26.1121 2175.55 31.2163 Q2180.41 36.3204 2180.41 46.6907 Z" fill="#000000" fill-rule="nonzero" fill-opacity="1" /><path clip-path="url(#clip490)" d="M2203.14 14.324 L2203.14 27.2059 L2218.49 27.2059 L2218.49 32.9987 L2203.14 32.9987 L2203.14 57.6282 Q2203.14 63.1779 2204.64 64.7578 Q2206.18 66.3376 2210.83 66.3376 L2218.49 66.3376 L2218.49 72.576 L2210.83 72.576 Q2202.21 72.576 2198.92 69.3758 Q2195.64 66.1351 2195.64 57.6282 L2195.64 32.9987 L2190.17 32.9987 L2190.17 27.2059 L2195.64 27.2059 L2195.64 14.324 L2203.14 14.324 Z" fill="#000000" fill-rule="nonzero" fill-opacity="1" /><path clip-path="url(#clip490)" d="M2228.29 27.2059 L2235.75 27.2059 L2235.75 72.576 L2228.29 72.576 L2228.29 27.2059 M2228.29 9.54393 L2235.75 9.54393 L2235.75 18.9825 L2228.29 18.9825 L2228.29 9.54393 Z" fill="#000000" fill-rule="nonzero" fill-opacity="1" /><path clip-path="url(#clip490)" d="M2268.92 32.4315 Q2262.93 32.4315 2259.44 37.1306 Q2255.96 41.7891 2255.96 49.9314 Q2255.96 58.0738 2259.4 62.7728 Q2262.89 67.4314 2268.92 67.4314 Q2274.88 67.4314 2278.36 62.7323 Q2281.85 58.0333 2281.85 49.9314 Q2281.85 41.8701 2278.36 37.1711 Q2274.88 32.4315 2268.92 32.4315 M2268.92 26.1121 Q2278.65 26.1121 2284.2 32.4315 Q2289.75 38.7509 2289.75 49.9314 Q2289.75 61.0714 2284.2 67.4314 Q2278.65 73.7508 2268.92 73.7508 Q2259.16 73.7508 2253.61 67.4314 Q2248.1 61.0714 2248.1 49.9314 Q2248.1 38.7509 2253.61 32.4315 Q2259.16 26.1121 2268.92 26.1121 Z" fill="#000000" fill-rule="nonzero" fill-opacity="1" /><path clip-path="url(#clip490)" d="M2339.81 45.1919 L2339.81 72.576 L2332.36 72.576 L2332.36 45.4349 Q2332.36 38.994 2329.85 35.7938 Q2327.34 32.5936 2322.31 32.5936 Q2316.28 32.5936 2312.8 36.4419 Q2309.31 40.2903 2309.31 46.9338 L2309.31 72.576 L2301.82 72.576 L2301.82 27.2059 L2309.31 27.2059 L2309.31 34.2544 Q2311.99 30.163 2315.59 28.1376 Q2319.24 26.1121 2323.98 26.1121 Q2331.79 26.1121 2335.8 30.9732 Q2339.81 35.7938 2339.81 45.1919 Z" fill="#000000" fill-rule="nonzero" fill-opacity="1" /><path clip-path="url(#clip490)" d="M2389.15 86.3491 L2389.15 92.1419 L2346.05 92.1419 L2346.05 86.3491 L2389.15 86.3491 Z" fill="#000000" fill-rule="nonzero" fill-opacity="1" /><path clip-path="url(#clip490)" d="M2428.81 28.9478 L2428.81 35.9153 Q2425.65 34.1734 2422.45 33.3227 Q2419.29 32.4315 2416.05 32.4315 Q2408.8 32.4315 2404.79 37.0496 Q2400.78 41.6271 2400.78 49.9314 Q2400.78 58.2358 2404.79 62.8538 Q2408.8 67.4314 2416.05 67.4314 Q2419.29 67.4314 2422.45 66.5807 Q2425.65 65.6895 2428.81 63.9476 L2428.81 70.8341 Q2425.69 72.2924 2422.33 73.0216 Q2419.01 73.7508 2415.24 73.7508 Q2404.99 73.7508 2398.96 67.3098 Q2392.92 60.8689 2392.92 49.9314 Q2392.92 38.832 2399 32.472 Q2405.12 26.1121 2415.73 26.1121 Q2419.17 26.1121 2422.45 26.8413 Q2425.73 27.5299 2428.81 28.9478 Z" fill="#000000" fill-rule="nonzero" fill-opacity="1" /><path clip-path="url(#clip492)" d="M389.683 1671.19 L389.683 1845.3 L534.187 1845.3 L534.187 1671.19 L389.683 1671.19 L389.683 1671.19  Z" fill="#cc7299" fill-rule="evenodd" fill-opacity="1"/>
<polyline clip-path="url(#clip492)" style="stroke:#000000; stroke-linecap:round; stroke-linejoin:round; stroke-width:4; stroke-opacity:1; fill:none" points="389.683,1671.19 389.683,1845.3 534.187,1845.3 534.187,1671.19 389.683,1671.19 "/>
<path clip-path="url(#clip492)" d="M590.383 104.228 L590.383 1845.3 L734.886 1845.3 L734.886 104.228 L590.383 104.228 L590.383 104.228  Z" fill="#cc7299" fill-rule="evenodd" fill-opacity="1"/>
<polyline clip-path="url(#clip492)" style="stroke:#000000; stroke-linecap:round; stroke-linejoin:round; stroke-width:4; stroke-opacity:1; fill:none" points="590.383,104.228 590.383,1845.3 734.886,1845.3 734.886,104.228 590.383,104.228 "/>
<path clip-path="url(#clip492)" d="M791.082 104.228 L791.082 1845.3 L935.586 1845.3 L935.586 104.228 L791.082 104.228 L791.082 104.228  Z" fill="#cc7299" fill-rule="evenodd" fill-opacity="1"/>
<polyline clip-path="url(#clip492)" style="stroke:#000000; stroke-linecap:round; stroke-linejoin:round; stroke-width:4; stroke-opacity:1; fill:none" points="791.082,104.228 791.082,1845.3 935.586,1845.3 935.586,104.228 791.082,104.228 "/>
<path clip-path="url(#clip492)" d="M991.782 104.228 L991.782 1845.3 L1136.29 1845.3 L1136.29 104.228 L991.782 104.228 L991.782 104.228  Z" fill="#cc7299" fill-rule="evenodd" fill-opacity="1"/>
<polyline clip-path="url(#clip492)" style="stroke:#000000; stroke-linecap:round; stroke-linejoin:round; stroke-width:4; stroke-opacity:1; fill:none" points="991.782,104.228 991.782,1845.3 1136.29,1845.3 1136.29,104.228 991.782,104.228 "/>
<path clip-path="url(#clip492)" d="M1192.48 1552.4 L1192.48 1845.3 L1336.98 1845.3 L1336.98 1552.4 L1192.48 1552.4 L1192.48 1552.4  Z" fill="#cc7299" fill-rule="evenodd" fill-opacity="1"/>
<polyline clip-path="url(#clip492)" style="stroke:#000000; stroke-linecap:round; stroke-linejoin:round; stroke-width:4; stroke-opacity:1; fill:none" points="1192.48,1552.4 1192.48,1845.3 1336.98,1845.3 1336.98,1552.4 1192.48,1552.4 "/>
<path clip-path="url(#clip492)" d="M1393.18 1671.19 L1393.18 1845.3 L1537.68 1845.3 L1537.68 1671.19 L1393.18 1671.19 L1393.18 1671.19  Z" fill="#cc7299" fill-rule="evenodd" fill-opacity="1"/>
<polyline clip-path="url(#clip492)" style="stroke:#000000; stroke-linecap:round; stroke-linejoin:round; stroke-width:4; stroke-opacity:1; fill:none" points="1393.18,1671.19 1393.18,1845.3 1537.68,1845.3 1537.68,1671.19 1393.18,1671.19 "/>
<path clip-path="url(#clip492)" d="M1593.88 1671.19 L1593.88 1845.3 L1738.38 1845.3 L1738.38 1671.19 L1593.88 1671.19 L1593.88 1671.19  Z" fill="#cc7299" fill-rule="evenodd" fill-opacity="1"/>
<polyline clip-path="url(#clip492)" style="stroke:#000000; stroke-linecap:round; stroke-linejoin:round; stroke-width:4; stroke-opacity:1; fill:none" points="1593.88,1671.19 1593.88,1845.3 1738.38,1845.3 1738.38,1671.19 1593.88,1671.19 "/>
<path clip-path="url(#clip492)" d="M1794.58 1671.19 L1794.58 1845.3 L1939.08 1845.3 L1939.08 1671.19 L1794.58 1671.19 L1794.58 1671.19  Z" fill="#cc7299" fill-rule="evenodd" fill-opacity="1"/>
<polyline clip-path="url(#clip492)" style="stroke:#000000; stroke-linecap:round; stroke-linejoin:round; stroke-width:4; stroke-opacity:1; fill:none" points="1794.58,1671.19 1794.58,1845.3 1939.08,1845.3 1939.08,1671.19 1794.58,1671.19 "/>
<path clip-path="url(#clip492)" d="M1995.28 1671.19 L1995.28 1845.3 L2139.78 1845.3 L2139.78 1671.19 L1995.28 1671.19 L1995.28 1671.19  Z" fill="#cc7299" fill-rule="evenodd" fill-opacity="1"/>
<polyline clip-path="url(#clip492)" style="stroke:#000000; stroke-linecap:round; stroke-linejoin:round; stroke-width:4; stroke-opacity:1; fill:none" points="1995.28,1671.19 1995.28,1845.3 2139.78,1845.3 2139.78,1671.19 1995.28,1671.19 "/>
<path clip-path="url(#clip492)" d="M2195.98 1671.19 L2195.98 1845.3 L2340.48 1845.3 L2340.48 1671.19 L2195.98 1671.19 L2195.98 1671.19  Z" fill="#cc7299" fill-rule="evenodd" fill-opacity="1"/>
<polyline clip-path="url(#clip492)" style="stroke:#000000; stroke-linecap:round; stroke-linejoin:round; stroke-width:4; stroke-opacity:1; fill:none" points="2195.98,1671.19 2195.98,1845.3 2340.48,1845.3 2340.48,1671.19 2195.98,1671.19 "/>
<path clip-path="url(#clip492)" d="M2396.68 1671.19 L2396.68 1845.3 L2541.18 1845.3 L2541.18 1671.19 L2396.68 1671.19 L2396.68 1671.19  Z" fill="#cc7299" fill-rule="evenodd" fill-opacity="1"/>
<polyline clip-path="url(#clip492)" style="stroke:#000000; stroke-linecap:round; stroke-linejoin:round; stroke-width:4; stroke-opacity:1; fill:none" points="2396.68,1671.19 2396.68,1845.3 2541.18,1845.3 2541.18,1671.19 2396.68,1671.19 "/>
<path clip-path="url(#clip492)" d="M2597.38 104.228 L2597.38 1845.3 L2741.88 1845.3 L2741.88 104.228 L2597.38 104.228 L2597.38 104.228  Z" fill="#cc7299" fill-rule="evenodd" fill-opacity="1"/>
<polyline clip-path="url(#clip492)" style="stroke:#000000; stroke-linecap:round; stroke-linejoin:round; stroke-width:4; stroke-opacity:1; fill:none" points="2597.38,104.228 2597.38,1845.3 2741.88,1845.3 2741.88,104.228 2597.38,104.228 "/>
<path clip-path="url(#clip492)" d="M2798.08 1655.83 L2798.08 1845.3 L2942.58 1845.3 L2942.58 1655.83 L2798.08 1655.83 L2798.08 1655.83  Z" fill="#cc7299" fill-rule="evenodd" fill-opacity="1"/>
<polyline clip-path="url(#clip492)" style="stroke:#000000; stroke-linecap:round; stroke-linejoin:round; stroke-width:4; stroke-opacity:1; fill:none" points="2798.08,1655.83 2798.08,1845.3 2942.58,1845.3 2942.58,1655.83 2798.08,1655.83 "/>
<path clip-path="url(#clip492)" d="M2998.78 1671.19 L2998.78 1845.3 L3143.28 1845.3 L3143.28 1671.19 L2998.78 1671.19 L2998.78 1671.19  Z" fill="#cc7299" fill-rule="evenodd" fill-opacity="1"/>
<polyline clip-path="url(#clip492)" style="stroke:#000000; stroke-linecap:round; stroke-linejoin:round; stroke-width:4; stroke-opacity:1; fill:none" points="2998.78,1671.19 2998.78,1845.3 3143.28,1845.3 3143.28,1671.19 2998.78,1671.19 "/>
<path clip-path="url(#clip492)" d="M3199.48 1671.19 L3199.48 1845.3 L3343.98 1845.3 L3343.98 1671.19 L3199.48 1671.19 L3199.48 1671.19  Z" fill="#cc7299" fill-rule="evenodd" fill-opacity="1"/>
<polyline clip-path="url(#clip492)" style="stroke:#000000; stroke-linecap:round; stroke-linejoin:round; stroke-width:4; stroke-opacity:1; fill:none" points="3199.48,1671.19 3199.48,1845.3 3343.98,1845.3 3343.98,1671.19 3199.48,1671.19 "/>
<circle clip-path="url(#clip492)" style="fill:#cc7299; stroke:none; fill-opacity:0" cx="461.935" cy="1671.19" r="2"/>
<circle clip-path="url(#clip492)" style="fill:#cc7299; stroke:none; fill-opacity:0" cx="1264.73" cy="1552.4" r="2"/>
<circle clip-path="url(#clip492)" style="fill:#cc7299; stroke:none; fill-opacity:0" cx="1465.43" cy="1671.19" r="2"/>
<circle clip-path="url(#clip492)" style="fill:#cc7299; stroke:none; fill-opacity:0" cx="1666.13" cy="1671.19" r="2"/>
<circle clip-path="url(#clip492)" style="fill:#cc7299; stroke:none; fill-opacity:0" cx="1866.83" cy="1671.19" r="2"/>
<circle clip-path="url(#clip492)" style="fill:#cc7299; stroke:none; fill-opacity:0" cx="2067.53" cy="1671.19" r="2"/>
<circle clip-path="url(#clip492)" style="fill:#cc7299; stroke:none; fill-opacity:0" cx="2268.23" cy="1671.19" r="2"/>
<circle clip-path="url(#clip492)" style="fill:#cc7299; stroke:none; fill-opacity:0" cx="2468.93" cy="1671.19" r="2"/>
<circle clip-path="url(#clip492)" style="fill:#cc7299; stroke:none; fill-opacity:0" cx="2870.33" cy="1655.83" r="2"/>
<circle clip-path="url(#clip492)" style="fill:#cc7299; stroke:none; fill-opacity:0" cx="3071.03" cy="1671.19" r="2"/>
<circle clip-path="url(#clip492)" style="fill:#cc7299; stroke:none; fill-opacity:0" cx="3271.73" cy="1671.19" r="2"/>
<path clip-path="url(#clip490)" d="M3664.74 265.944 L4352.76 265.944 L4352.76 162.264 L3664.74 162.264  Z" fill="#ffffff" fill-rule="evenodd" fill-opacity="1"/>
<polyline clip-path="url(#clip490)" style="stroke:#000000; stroke-linecap:round; stroke-linejoin:round; stroke-width:4; stroke-opacity:1; fill:none" points="3664.74,265.944 4352.76,265.944 4352.76,162.264 3664.74,162.264 3664.74,265.944 "/>
<path clip-path="url(#clip490)" d="M3710.81 234.84 L3987.18 234.84 L3987.18 193.368 L3710.81 193.368 L3710.81 234.84  Z" fill="#cc7299" fill-rule="evenodd" fill-opacity="1"/>
<polyline clip-path="url(#clip490)" style="stroke:#000000; stroke-linecap:round; stroke-linejoin:round; stroke-width:4; stroke-opacity:1; fill:none" points="3710.81,234.84 3987.18,234.84 3987.18,193.368 3710.81,193.368 3710.81,234.84 "/>
<path clip-path="url(#clip490)" d="M4037.92 200.667 L4037.92 213.653 L4043.8 213.653 Q4047.06 213.653 4048.85 211.963 Q4050.63 210.273 4050.63 207.148 Q4050.63 204.046 4048.85 202.356 Q4047.06 200.667 4043.8 200.667 L4037.92 200.667 M4033.25 196.824 L4043.8 196.824 Q4049.61 196.824 4052.57 199.463 Q4055.56 202.079 4055.56 207.148 Q4055.56 212.264 4052.57 214.88 Q4049.61 217.495 4043.8 217.495 L4037.92 217.495 L4037.92 231.384 L4033.25 231.384 L4033.25 196.824 Z" fill="#000000" fill-rule="nonzero" fill-opacity="1" /><path clip-path="url(#clip490)" d="M4071.3 218.352 Q4066.14 218.352 4064.15 219.532 Q4062.16 220.713 4062.16 223.56 Q4062.16 225.829 4063.64 227.171 Q4065.14 228.491 4067.71 228.491 Q4071.25 228.491 4073.38 225.991 Q4075.54 223.467 4075.54 219.301 L4075.54 218.352 L4071.3 218.352 M4079.8 216.592 L4079.8 231.384 L4075.54 231.384 L4075.54 227.449 Q4074.08 229.81 4071.9 230.944 Q4069.73 232.055 4066.58 232.055 Q4062.6 232.055 4060.24 229.833 Q4057.9 227.588 4057.9 223.838 Q4057.9 219.463 4060.81 217.241 Q4063.75 215.018 4069.56 215.018 L4075.54 215.018 L4075.54 214.602 Q4075.54 211.662 4073.59 210.065 Q4071.67 208.444 4068.18 208.444 Q4065.95 208.444 4063.85 208.977 Q4061.74 209.509 4059.8 210.574 L4059.8 206.639 Q4062.13 205.736 4064.33 205.296 Q4066.53 204.833 4068.62 204.833 Q4074.24 204.833 4077.02 207.75 Q4079.8 210.667 4079.8 216.592 Z" fill="#000000" fill-rule="nonzero" fill-opacity="1" /><path clip-path="url(#clip490)" d="M4088.57 195.366 L4092.83 195.366 L4092.83 231.384 L4088.57 231.384 L4088.57 195.366 Z" fill="#000000" fill-rule="nonzero" fill-opacity="1" /><path clip-path="url(#clip490)" d="M4121.93 210.435 Q4123.52 207.565 4125.75 206.199 Q4127.97 204.833 4130.98 204.833 Q4135.03 204.833 4137.23 207.681 Q4139.43 210.505 4139.43 215.736 L4139.43 231.384 L4135.14 231.384 L4135.14 215.875 Q4135.14 212.148 4133.82 210.343 Q4132.5 208.537 4129.8 208.537 Q4126.49 208.537 4124.56 210.736 Q4122.64 212.935 4122.64 216.731 L4122.64 231.384 L4118.36 231.384 L4118.36 215.875 Q4118.36 212.125 4117.04 210.343 Q4115.72 208.537 4112.97 208.537 Q4109.7 208.537 4107.78 210.759 Q4105.86 212.958 4105.86 216.731 L4105.86 231.384 L4101.58 231.384 L4101.58 205.458 L4105.86 205.458 L4105.86 209.486 Q4107.32 207.102 4109.36 205.968 Q4111.39 204.833 4114.19 204.833 Q4117.02 204.833 4118.99 206.268 Q4120.98 207.704 4121.93 210.435 Z" fill="#000000" fill-rule="nonzero" fill-opacity="1" /><path clip-path="url(#clip490)" d="M4159.7 218.352 Q4154.54 218.352 4152.55 219.532 Q4150.56 220.713 4150.56 223.56 Q4150.56 225.829 4152.04 227.171 Q4153.55 228.491 4156.12 228.491 Q4159.66 228.491 4161.79 225.991 Q4163.94 223.467 4163.94 219.301 L4163.94 218.352 L4159.7 218.352 M4168.2 216.592 L4168.2 231.384 L4163.94 231.384 L4163.94 227.449 Q4162.48 229.81 4160.31 230.944 Q4158.13 232.055 4154.98 232.055 Q4151 232.055 4148.64 229.833 Q4146.3 227.588 4146.3 223.838 Q4146.3 219.463 4149.22 217.241 Q4152.16 215.018 4157.97 215.018 L4163.94 215.018 L4163.94 214.602 Q4163.94 211.662 4161.99 210.065 Q4160.07 208.444 4156.58 208.444 Q4154.36 208.444 4152.25 208.977 Q4150.14 209.509 4148.2 210.574 L4148.2 206.639 Q4150.54 205.736 4152.74 205.296 Q4154.93 204.833 4157.02 204.833 Q4162.64 204.833 4165.42 207.75 Q4168.2 210.667 4168.2 216.592 Z" fill="#000000" fill-rule="nonzero" fill-opacity="1" /><path clip-path="url(#clip490)" d="M4208.61 215.18 Q4210.12 215.69 4211.53 217.356 Q4212.97 219.023 4214.4 221.94 L4219.15 231.384 L4214.12 231.384 L4209.7 222.518 Q4207.99 219.046 4206.37 217.912 Q4204.77 216.778 4201.99 216.778 L4196.9 216.778 L4196.9 231.384 L4192.23 231.384 L4192.23 196.824 L4202.78 196.824 Q4208.71 196.824 4211.62 199.301 Q4214.54 201.778 4214.54 206.778 Q4214.54 210.042 4213.01 212.194 Q4211.51 214.347 4208.61 215.18 M4196.9 200.667 L4196.9 212.935 L4202.78 212.935 Q4206.16 212.935 4207.87 211.384 Q4209.61 209.81 4209.61 206.778 Q4209.61 203.745 4207.87 202.218 Q4206.16 200.667 4202.78 200.667 L4196.9 200.667 Z" fill="#000000" fill-rule="nonzero" fill-opacity="1" /><path clip-path="url(#clip490)" d="M4235.72 218.352 Q4230.56 218.352 4228.57 219.532 Q4226.58 220.713 4226.58 223.56 Q4226.58 225.829 4228.06 227.171 Q4229.56 228.491 4232.13 228.491 Q4235.68 228.491 4237.8 225.991 Q4239.96 223.467 4239.96 219.301 L4239.96 218.352 L4235.72 218.352 M4244.22 216.592 L4244.22 231.384 L4239.96 231.384 L4239.96 227.449 Q4238.5 229.81 4236.32 230.944 Q4234.15 232.055 4231 232.055 Q4227.02 232.055 4224.66 229.833 Q4222.32 227.588 4222.32 223.838 Q4222.32 219.463 4225.24 217.241 Q4228.18 215.018 4233.99 215.018 L4239.96 215.018 L4239.96 214.602 Q4239.96 211.662 4238.01 210.065 Q4236.09 208.444 4232.6 208.444 Q4230.37 208.444 4228.27 208.977 Q4226.16 209.509 4224.22 210.574 L4224.22 206.639 Q4226.55 205.736 4228.75 205.296 Q4230.95 204.833 4233.04 204.833 Q4238.66 204.833 4241.44 207.75 Q4244.22 210.667 4244.22 216.592 Z" fill="#000000" fill-rule="nonzero" fill-opacity="1" /><path clip-path="url(#clip490)" d="M4257.2 198.097 L4257.2 205.458 L4265.98 205.458 L4265.98 208.768 L4257.2 208.768 L4257.2 222.842 Q4257.2 226.014 4258.06 226.917 Q4258.94 227.819 4261.6 227.819 L4265.98 227.819 L4265.98 231.384 L4261.6 231.384 Q4256.67 231.384 4254.8 229.555 Q4252.92 227.704 4252.92 222.842 L4252.92 208.768 L4249.8 208.768 L4249.8 205.458 L4252.92 205.458 L4252.92 198.097 L4257.2 198.097 Z" fill="#000000" fill-rule="nonzero" fill-opacity="1" /><path clip-path="url(#clip490)" d="M4271.58 205.458 L4275.84 205.458 L4275.84 231.384 L4271.58 231.384 L4271.58 205.458 M4271.58 195.366 L4275.84 195.366 L4275.84 200.759 L4271.58 200.759 L4271.58 195.366 Z" fill="#000000" fill-rule="nonzero" fill-opacity="1" /><path clip-path="url(#clip490)" d="M4294.8 208.444 Q4291.37 208.444 4289.38 211.13 Q4287.39 213.792 4287.39 218.444 Q4287.39 223.097 4289.36 225.782 Q4291.35 228.444 4294.8 228.444 Q4298.2 228.444 4300.19 225.759 Q4302.18 223.074 4302.18 218.444 Q4302.18 213.838 4300.19 211.153 Q4298.2 208.444 4294.8 208.444 M4294.8 204.833 Q4300.35 204.833 4303.52 208.444 Q4306.69 212.055 4306.69 218.444 Q4306.69 224.81 4303.52 228.444 Q4300.35 232.055 4294.8 232.055 Q4289.22 232.055 4286.05 228.444 Q4282.9 224.81 4282.9 218.444 Q4282.9 212.055 4286.05 208.444 Q4289.22 204.833 4294.8 204.833 Z" fill="#000000" fill-rule="nonzero" fill-opacity="1" /></svg>
