<?xml version="1.0" encoding="utf-8"?>
<svg xmlns="http://www.w3.org/2000/svg" xmlns:xlink="http://www.w3.org/1999/xlink" width="1200" height="600" viewBox="0 0 4800 2400">
<defs>
  <clipPath id="clip330">
    <rect x="0" y="0" width="4800" height="2400"/>
  </clipPath>
</defs>
<path clip-path="url(#clip330)" d="M0 2400 L4800 2400 L4800 0 L0 0  Z" fill="#ffffff" fill-rule="evenodd" fill-opacity="1"/>
<defs>
  <clipPath id="clip331">
    <rect x="960" y="0" width="3361" height="2400"/>
  </clipPath>
</defs>
<path clip-path="url(#clip330)" d="M386.242 1992.94 L3897.11 1992.94 L3897.11 171.344 L386.242 171.344  Z" fill="#ffffff" fill-rule="evenodd" fill-opacity="1"/>
<defs>
  <clipPath id="clip332">
    <rect x="386" y="171" width="3512" height="1823"/>
  </clipPath>
</defs>
<polyline clip-path="url(#clip332)" style="stroke:#000000; stroke-linecap:round; stroke-linejoin:round; stroke-width:2; stroke-opacity:0.1; fill:none" points="708.345,1992.94 708.345,171.344 "/>
<polyline clip-path="url(#clip332)" style="stroke:#000000; stroke-linecap:round; stroke-linejoin:round; stroke-width:2; stroke-opacity:0.1; fill:none" points="1066.68,1992.94 1066.68,171.344 "/>
<polyline clip-path="url(#clip332)" style="stroke:#000000; stroke-linecap:round; stroke-linejoin:round; stroke-width:2; stroke-opacity:0.1; fill:none" points="1425.01,1992.94 1425.01,171.344 "/>
<polyline clip-path="url(#clip332)" style="stroke:#000000; stroke-linecap:round; stroke-linejoin:round; stroke-width:2; stroke-opacity:0.1; fill:none" points="1783.34,1992.94 1783.34,171.344 "/>
<polyline clip-path="url(#clip332)" style="stroke:#000000; stroke-linecap:round; stroke-linejoin:round; stroke-width:2; stroke-opacity:0.1; fill:none" points="2141.67,1992.94 2141.67,171.344 "/>
<polyline clip-path="url(#clip332)" style="stroke:#000000; stroke-linecap:round; stroke-linejoin:round; stroke-width:2; stroke-opacity:0.1; fill:none" points="2500.01,1992.94 2500.01,171.344 "/>
<polyline clip-path="url(#clip332)" style="stroke:#000000; stroke-linecap:round; stroke-linejoin:round; stroke-width:2; stroke-opacity:0.1; fill:none" points="2858.34,1992.94 2858.34,171.344 "/>
<polyline clip-path="url(#clip332)" style="stroke:#000000; stroke-linecap:round; stroke-linejoin:round; stroke-width:2; stroke-opacity:0.1; fill:none" points="3216.67,1992.94 3216.67,171.344 "/>
<polyline clip-path="url(#clip332)" style="stroke:#000000; stroke-linecap:round; stroke-linejoin:round; stroke-width:2; stroke-opacity:0.1; fill:none" points="3575,1992.94 3575,171.344 "/>
<polyline clip-path="url(#clip332)" style="stroke:#000000; stroke-linecap:round; stroke-linejoin:round; stroke-width:2; stroke-opacity:0.1; fill:none" points="386.242,1992.94 3897.11,1992.94 "/>
<polyline clip-path="url(#clip332)" style="stroke:#000000; stroke-linecap:round; stroke-linejoin:round; stroke-width:2; stroke-opacity:0.1; fill:none" points="386.242,1628.62 3897.11,1628.62 "/>
<polyline clip-path="url(#clip332)" style="stroke:#000000; stroke-linecap:round; stroke-linejoin:round; stroke-width:2; stroke-opacity:0.1; fill:none" points="386.242,1264.3 3897.11,1264.3 "/>
<polyline clip-path="url(#clip332)" style="stroke:#000000; stroke-linecap:round; stroke-linejoin:round; stroke-width:2; stroke-opacity:0.1; fill:none" points="386.242,899.982 3897.11,899.982 "/>
<polyline clip-path="url(#clip332)" style="stroke:#000000; stroke-linecap:round; stroke-linejoin:round; stroke-width:2; stroke-opacity:0.1; fill:none" points="386.242,535.663 3897.11,535.663 "/>
<polyline clip-path="url(#clip332)" style="stroke:#000000; stroke-linecap:round; stroke-linejoin:round; stroke-width:2; stroke-opacity:0.1; fill:none" points="386.242,171.344 3897.11,171.344 "/>
<polyline clip-path="url(#clip330)" style="stroke:#000000; stroke-linecap:round; stroke-linejoin:round; stroke-width:4; stroke-opacity:1; fill:none" points="386.242,1992.94 3897.11,1992.94 "/>
<polyline clip-path="url(#clip330)" style="stroke:#000000; stroke-linecap:round; stroke-linejoin:round; stroke-width:4; stroke-opacity:1; fill:none" points="708.345,1992.94 708.345,1974.04 "/>
<polyline clip-path="url(#clip330)" style="stroke:#000000; stroke-linecap:round; stroke-linejoin:round; stroke-width:4; stroke-opacity:1; fill:none" points="1066.68,1992.94 1066.68,1974.04 "/>
<polyline clip-path="url(#clip330)" style="stroke:#000000; stroke-linecap:round; stroke-linejoin:round; stroke-width:4; stroke-opacity:1; fill:none" points="1425.01,1992.94 1425.01,1974.04 "/>
<polyline clip-path="url(#clip330)" style="stroke:#000000; stroke-linecap:round; stroke-linejoin:round; stroke-width:4; stroke-opacity:1; fill:none" points="1783.34,1992.94 1783.34,1974.04 "/>
<polyline clip-path="url(#clip330)" style="stroke:#000000; stroke-linecap:round; stroke-linejoin:round; stroke-width:4; stroke-opacity:1; fill:none" points="2141.67,1992.94 2141.67,1974.04 "/>
<polyline clip-path="url(#clip330)" style="stroke:#000000; stroke-linecap:round; stroke-linejoin:round; stroke-width:4; stroke-opacity:1; fill:none" points="2500.01,1992.94 2500.01,1974.04 "/>
<polyline clip-path="url(#clip330)" style="stroke:#000000; stroke-linecap:round; stroke-linejoin:round; stroke-width:4; stroke-opacity:1; fill:none" points="2858.34,1992.94 2858.34,1974.04 "/>
<polyline clip-path="url(#clip330)" style="stroke:#000000; stroke-linecap:round; stroke-linejoin:round; stroke-width:4; stroke-opacity:1; fill:none" points="3216.67,1992.94 3216.67,1974.04 "/>
<polyline clip-path="url(#clip330)" style="stroke:#000000; stroke-linecap:round; stroke-linejoin:round; stroke-width:4; stroke-opacity:1; fill:none" points="3575,1992.94 3575,1974.04 "/>
<path clip-path="url(#clip330)" d="M657.203 2098.17 Q654.977 2100.4 655.19 2103.23 Q655.419 2106.05 658.07 2108.7 Q660.706 2111.33 663.537 2111.58 Q666.369 2111.79 668.595 2109.57 Q670.821 2107.34 670.592 2104.53 Q670.363 2101.68 667.728 2099.04 Q665.076 2096.39 662.244 2096.18 Q659.429 2095.95 657.203 2098.17 M653.405 2081.25 L656.417 2084.26 Q654.584 2084.92 652.996 2085.88 Q651.425 2086.83 650.181 2088.08 Q646.907 2091.35 647.382 2095.29 Q647.873 2099.22 652.096 2103.94 Q651.638 2101.55 652.342 2099.34 Q653.029 2097.11 654.78 2095.36 Q658.463 2091.68 662.833 2091.79 Q667.204 2091.87 671.05 2095.72 Q674.815 2099.48 674.864 2103.99 Q674.913 2108.49 671.214 2112.19 Q666.975 2116.42 661.491 2115.43 Q655.992 2114.41 649.821 2108.24 Q644.027 2102.45 643.339 2096.26 Q642.635 2090.06 647.267 2085.42 Q648.511 2084.18 650.017 2083.16 Q651.539 2082.13 653.405 2081.25 Z" fill="#000000" fill-rule="nonzero" fill-opacity="1" /><path clip-path="url(#clip330)" d="M659.314 2074.26 L675.028 2058.55 L676.435 2059.95 L690.594 2091.86 L687.14 2095.31 L673.833 2065.31 L662.097 2077.04 L659.314 2074.26 Z" fill="#000000" fill-rule="nonzero" fill-opacity="1" /><path clip-path="url(#clip330)" d="M703.705 2073.18 L709.106 2067.78 L690.463 2049.14 L685.765 2056.19 L682.753 2053.18 L687.418 2046.16 L690.725 2042.85 L712.38 2064.51 L717.781 2059.1 L720.564 2061.89 L706.487 2075.96 L703.705 2073.18 Z" fill="#000000" fill-rule="nonzero" fill-opacity="1" /><path clip-path="url(#clip330)" d="M1014.32 2099.39 Q1012.1 2101.61 1012.31 2104.44 Q1012.54 2107.26 1015.19 2109.91 Q1017.83 2112.55 1020.66 2112.79 Q1023.49 2113 1025.72 2110.78 Q1027.94 2108.55 1027.71 2105.74 Q1027.48 2102.89 1024.85 2100.25 Q1022.2 2097.6 1019.37 2097.39 Q1016.55 2097.16 1014.32 2099.39 M1010.53 2082.46 L1013.54 2085.47 Q1011.7 2086.13 1010.12 2087.09 Q1008.55 2088.04 1007.3 2089.29 Q1004.03 2092.56 1004.5 2096.5 Q1004.99 2100.43 1009.22 2105.15 Q1008.76 2102.76 1009.46 2100.55 Q1010.15 2098.32 1011.9 2096.57 Q1015.58 2092.89 1019.95 2093 Q1024.32 2093.08 1028.17 2096.93 Q1031.94 2100.7 1031.99 2105.2 Q1032.03 2109.7 1028.33 2113.4 Q1024.1 2117.64 1018.61 2116.64 Q1013.11 2115.62 1006.94 2109.45 Q1001.15 2103.66 1000.46 2097.47 Q999.756 2091.27 1004.39 2086.63 Q1005.63 2085.39 1007.14 2084.38 Q1008.66 2083.34 1010.53 2082.46 Z" fill="#000000" fill-rule="nonzero" fill-opacity="1" /><path clip-path="url(#clip330)" d="M1038.55 2075.88 Q1041.43 2074.01 1044.36 2074.29 Q1047.31 2074.56 1049.66 2076.91 Q1053.28 2080.53 1052.77 2085 Q1052.27 2089.47 1047.68 2094.05 Q1046.14 2095.59 1044.2 2096.91 Q1042.28 2098.24 1039.94 2099.37 L1036.75 2096.18 Q1038.93 2095.6 1040.97 2094.38 Q1043.02 2093.15 1044.8 2091.37 Q1047.91 2088.26 1048.3 2085.41 Q1048.71 2082.54 1046.37 2080.2 Q1044.21 2078.04 1041.48 2078.35 Q1038.75 2078.63 1036.04 2081.33 L1033.2 2084.18 L1030.48 2081.46 L1033.46 2078.48 Q1035.9 2076.04 1036.22 2073.79 Q1036.54 2071.51 1034.7 2069.68 Q1032.82 2067.8 1030.48 2068.14 Q1028.14 2068.45 1025.65 2070.94 Q1024.29 2072.3 1023.03 2074.15 Q1021.77 2076 1020.53 2078.48 L1017.58 2075.54 Q1018.94 2073.13 1020.31 2071.23 Q1021.71 2069.32 1023.16 2067.86 Q1026.93 2064.1 1030.84 2063.62 Q1034.73 2063.13 1037.65 2066.04 Q1039.68 2068.07 1039.92 2070.64 Q1040.15 2073.2 1038.55 2075.88 Z" fill="#000000" fill-rule="nonzero" fill-opacity="1" /><path clip-path="url(#clip330)" d="M1050.56 2047.11 L1055.26 2068.5 L1063.61 2060.15 L1050.56 2047.11 M1046.81 2045.09 L1050.97 2040.93 L1066.9 2056.86 L1070.38 2053.37 L1073.13 2056.12 L1069.65 2059.61 L1075.41 2065.37 L1072.12 2068.66 L1066.36 2062.9 L1055.33 2073.93 L1052.13 2070.74 L1046.81 2045.09 Z" fill="#000000" fill-rule="nonzero" fill-opacity="1" /><path clip-path="url(#clip330)" d="M1374.13 2097.91 Q1371.9 2100.14 1372.12 2102.97 Q1372.35 2105.79 1375 2108.44 Q1377.63 2111.07 1380.46 2111.32 Q1383.3 2111.53 1385.52 2109.3 Q1387.75 2107.08 1387.52 2104.26 Q1387.29 2101.42 1384.65 2098.78 Q1382 2096.13 1379.17 2095.92 Q1376.36 2095.69 1374.13 2097.91 M1370.33 2080.99 L1373.34 2084 Q1371.51 2084.65 1369.92 2085.62 Q1368.35 2086.57 1367.11 2087.81 Q1363.83 2091.09 1364.31 2095.03 Q1364.8 2098.96 1369.02 2103.67 Q1368.56 2101.28 1369.27 2099.07 Q1369.96 2096.85 1371.71 2095.1 Q1375.39 2091.41 1379.76 2091.53 Q1384.13 2091.61 1387.98 2095.46 Q1391.74 2099.22 1391.79 2103.72 Q1391.84 2108.22 1388.14 2111.92 Q1383.9 2116.16 1378.42 2115.16 Q1372.92 2114.15 1366.75 2107.98 Q1360.95 2102.18 1360.27 2096 Q1359.56 2089.79 1364.19 2085.16 Q1365.44 2083.92 1366.94 2082.9 Q1368.47 2081.87 1370.33 2080.99 Z" fill="#000000" fill-rule="nonzero" fill-opacity="1" /><path clip-path="url(#clip330)" d="M1377.11 2073.13 L1390.09 2060.15 L1392.87 2062.93 L1382.92 2072.89 L1388.91 2078.88 Q1389.38 2077.91 1389.99 2077.08 Q1390.58 2076.22 1391.3 2075.5 Q1395.39 2071.41 1400.02 2071.27 Q1404.66 2071.12 1408.49 2074.95 Q1412.43 2078.89 1412.17 2083.54 Q1411.89 2088.17 1407.42 2092.64 Q1405.88 2094.18 1404.02 2095.52 Q1402.17 2096.85 1399.94 2098.03 L1396.62 2094.7 Q1398.89 2094.03 1400.86 2092.85 Q1402.82 2091.68 1404.57 2089.92 Q1407.41 2087.09 1407.57 2083.95 Q1407.73 2080.81 1405.18 2078.25 Q1402.63 2075.7 1399.48 2075.86 Q1396.34 2076.03 1393.51 2078.86 Q1392.18 2080.19 1391.15 2081.81 Q1390.14 2083.41 1389.38 2085.41 L1377.11 2073.13 Z" fill="#000000" fill-rule="nonzero" fill-opacity="1" /><path clip-path="url(#clip330)" d="M1422.91 2070.64 L1434.45 2059.1 L1437.23 2061.89 L1421.71 2077.4 L1418.93 2074.62 Q1418.86 2070.79 1418.83 2064.28 Q1418.8 2057.73 1418.68 2055.94 Q1418.49 2052.57 1417.88 2050.72 Q1417.28 2048.84 1416.08 2047.65 Q1414.13 2045.7 1411.53 2045.85 Q1408.94 2045.98 1406.75 2048.17 Q1405.2 2049.72 1404 2052 Q1402.82 2054.26 1401.96 2057.32 L1398.62 2053.98 Q1399.81 2051.18 1401.14 2049.04 Q1402.46 2046.89 1403.9 2045.45 Q1407.7 2041.66 1411.86 2041.3 Q1416.02 2040.93 1419.19 2044.11 Q1420.7 2045.62 1421.48 2047.55 Q1422.27 2049.45 1422.61 2052.77 Q1422.68 2053.65 1422.76 2058.12 Q1422.82 2062.57 1422.91 2070.64 Z" fill="#000000" fill-rule="nonzero" fill-opacity="1" /><path clip-path="url(#clip330)" d="M1732.04 2098.34 Q1729.81 2100.56 1730.02 2103.4 Q1730.25 2106.21 1732.9 2108.86 Q1735.54 2111.5 1738.37 2111.74 Q1741.2 2111.96 1743.43 2109.73 Q1745.65 2107.5 1745.43 2104.69 Q1745.2 2101.84 1742.56 2099.21 Q1739.91 2096.55 1737.08 2096.34 Q1734.26 2096.11 1732.04 2098.34 M1728.24 2081.41 L1731.25 2084.43 Q1729.42 2085.08 1727.83 2086.05 Q1726.26 2086.99 1725.01 2088.24 Q1721.74 2091.51 1722.22 2095.46 Q1722.71 2099.39 1726.93 2104.1 Q1726.47 2101.71 1727.17 2099.5 Q1727.86 2097.27 1729.61 2095.52 Q1733.3 2091.84 1737.67 2091.95 Q1742.04 2092.04 1745.88 2095.88 Q1749.65 2099.65 1749.7 2104.15 Q1749.75 2108.65 1746.05 2112.35 Q1741.81 2116.59 1736.32 2115.59 Q1730.82 2114.58 1724.65 2108.4 Q1718.86 2102.61 1718.17 2096.42 Q1717.47 2090.22 1722.1 2085.59 Q1723.34 2084.34 1724.85 2083.33 Q1726.37 2082.3 1728.24 2081.41 Z" fill="#000000" fill-rule="nonzero" fill-opacity="1" /><path clip-path="url(#clip330)" d="M1734.15 2074.42 L1749.86 2058.71 L1751.27 2060.12 L1765.43 2092.02 L1761.97 2095.47 L1748.67 2065.47 L1736.93 2077.21 L1734.15 2074.42 Z" fill="#000000" fill-rule="nonzero" fill-opacity="1" /><path clip-path="url(#clip330)" d="M1756.34 2052.23 L1769.32 2039.25 L1772.11 2042.03 L1762.15 2051.98 L1768.14 2057.97 Q1768.62 2057.01 1769.22 2056.17 Q1769.81 2055.32 1770.53 2054.6 Q1774.63 2050.51 1779.26 2050.36 Q1783.89 2050.22 1787.72 2054.05 Q1791.66 2057.99 1791.4 2062.64 Q1791.12 2067.27 1786.66 2071.74 Q1785.12 2073.28 1783.25 2074.62 Q1781.4 2075.95 1779.18 2077.12 L1775.85 2073.8 Q1778.13 2073.13 1780.09 2071.95 Q1782.06 2070.77 1783.81 2069.02 Q1786.64 2066.19 1786.8 2063.05 Q1786.97 2059.91 1784.41 2057.35 Q1781.86 2054.8 1778.72 2054.96 Q1775.58 2055.13 1772.74 2057.96 Q1771.42 2059.28 1770.39 2060.9 Q1769.37 2062.51 1768.62 2064.51 L1756.34 2052.23 Z" fill="#000000" fill-rule="nonzero" fill-opacity="1" /><path clip-path="url(#clip330)" d="M2090.53 2098.17 Q2088.31 2100.4 2088.52 2103.23 Q2088.75 2106.05 2091.4 2108.7 Q2094.03 2111.33 2096.87 2111.58 Q2099.7 2111.79 2101.92 2109.57 Q2104.15 2107.34 2103.92 2104.53 Q2103.69 2101.68 2101.06 2099.04 Q2098.4 2096.39 2095.57 2096.18 Q2092.76 2095.95 2090.53 2098.17 M2086.73 2081.25 L2089.75 2084.26 Q2087.91 2084.92 2086.33 2085.88 Q2084.75 2086.83 2083.51 2088.08 Q2080.24 2091.35 2080.71 2095.29 Q2081.2 2099.22 2085.42 2103.94 Q2084.97 2101.55 2085.67 2099.34 Q2086.36 2097.11 2088.11 2095.36 Q2091.79 2091.68 2096.16 2091.79 Q2100.53 2091.87 2104.38 2095.72 Q2108.14 2099.48 2108.19 2103.99 Q2108.24 2108.49 2104.54 2112.19 Q2100.3 2116.42 2094.82 2115.43 Q2089.32 2114.41 2083.15 2108.24 Q2077.36 2102.45 2076.67 2096.26 Q2075.96 2090.06 2080.6 2085.42 Q2081.84 2084.18 2083.35 2083.16 Q2084.87 2082.13 2086.73 2081.25 Z" fill="#000000" fill-rule="nonzero" fill-opacity="1" /><path clip-path="url(#clip330)" d="M2115.71 2094.51 L2121.11 2089.11 L2102.46 2070.46 L2097.77 2077.52 L2094.75 2074.51 L2099.42 2067.48 L2102.73 2064.18 L2124.38 2085.83 L2129.78 2080.43 L2132.57 2083.21 L2118.49 2097.29 L2115.71 2094.51 Z" fill="#000000" fill-rule="nonzero" fill-opacity="1" /><path clip-path="url(#clip330)" d="M2137.03 2073.18 L2142.44 2067.78 L2123.79 2049.14 L2119.09 2056.19 L2116.08 2053.18 L2120.75 2046.16 L2124.05 2042.85 L2145.71 2064.51 L2151.11 2059.1 L2153.89 2061.89 L2139.82 2075.96 L2137.03 2073.18 Z" fill="#000000" fill-rule="nonzero" fill-opacity="1" /><path clip-path="url(#clip330)" d="M2448.7 2098.34 Q2446.47 2100.56 2446.69 2103.4 Q2446.92 2106.21 2449.57 2108.86 Q2452.2 2111.5 2455.03 2111.74 Q2457.87 2111.96 2460.09 2109.73 Q2462.32 2107.5 2462.09 2104.69 Q2461.86 2101.84 2459.23 2099.21 Q2456.57 2096.55 2453.74 2096.34 Q2450.93 2096.11 2448.7 2098.34 M2444.9 2081.41 L2447.91 2084.43 Q2446.08 2085.08 2444.49 2086.05 Q2442.92 2086.99 2441.68 2088.24 Q2438.4 2091.51 2438.88 2095.46 Q2439.37 2099.39 2443.59 2104.1 Q2443.14 2101.71 2443.84 2099.5 Q2444.53 2097.27 2446.28 2095.52 Q2449.96 2091.84 2454.33 2091.95 Q2458.7 2092.04 2462.55 2095.88 Q2466.31 2099.65 2466.36 2104.15 Q2466.41 2108.65 2462.71 2112.35 Q2458.47 2116.59 2452.99 2115.59 Q2447.49 2114.58 2441.32 2108.4 Q2435.52 2102.61 2434.84 2096.42 Q2434.13 2090.22 2438.76 2085.59 Q2440.01 2084.34 2441.51 2083.33 Q2443.04 2082.3 2444.9 2081.41 Z" fill="#000000" fill-rule="nonzero" fill-opacity="1" /><path clip-path="url(#clip330)" d="M2463.61 2067.39 L2468.31 2088.78 L2476.66 2080.43 L2463.61 2067.39 M2459.86 2065.37 L2464.02 2061.22 L2479.95 2077.14 L2483.43 2073.65 L2486.18 2076.4 L2482.7 2079.89 L2488.46 2085.65 L2485.17 2088.94 L2479.41 2083.18 L2468.37 2094.21 L2465.18 2091.02 L2459.86 2065.37 Z" fill="#000000" fill-rule="nonzero" fill-opacity="1" /><path clip-path="url(#clip330)" d="M2473.01 2052.23 L2485.99 2039.25 L2488.77 2042.03 L2478.82 2051.98 L2484.81 2057.97 Q2485.28 2057.01 2485.89 2056.17 Q2486.48 2055.32 2487.2 2054.6 Q2491.29 2050.51 2495.92 2050.36 Q2500.55 2050.22 2504.38 2054.05 Q2508.33 2057.99 2508.07 2062.64 Q2507.79 2067.27 2503.32 2071.74 Q2501.78 2073.28 2499.92 2074.62 Q2498.07 2075.95 2495.84 2077.12 L2492.52 2073.8 Q2494.79 2073.13 2496.76 2071.95 Q2498.72 2070.77 2500.47 2069.02 Q2503.3 2066.19 2503.47 2063.05 Q2503.63 2059.91 2501.08 2057.35 Q2498.52 2054.8 2495.38 2054.96 Q2492.24 2055.13 2489.41 2057.96 Q2488.08 2059.28 2487.05 2060.9 Q2486.04 2062.51 2485.28 2064.51 L2473.01 2052.23 Z" fill="#000000" fill-rule="nonzero" fill-opacity="1" /><path clip-path="url(#clip330)" d="M2807.46 2097.91 Q2805.23 2100.14 2805.44 2102.97 Q2805.67 2105.79 2808.33 2108.44 Q2810.96 2111.07 2813.79 2111.32 Q2816.62 2111.53 2818.85 2109.3 Q2821.08 2107.08 2820.85 2104.26 Q2820.62 2101.42 2817.98 2098.78 Q2815.33 2096.13 2812.5 2095.92 Q2809.68 2095.69 2807.46 2097.91 M2803.66 2080.99 L2806.67 2084 Q2804.84 2084.65 2803.25 2085.62 Q2801.68 2086.57 2800.44 2087.81 Q2797.16 2091.09 2797.64 2095.03 Q2798.13 2098.96 2802.35 2103.67 Q2801.89 2101.28 2802.6 2099.07 Q2803.28 2096.85 2805.04 2095.1 Q2808.72 2091.41 2813.09 2091.53 Q2817.46 2091.61 2821.31 2095.46 Q2825.07 2099.22 2825.12 2103.72 Q2825.17 2108.22 2821.47 2111.92 Q2817.23 2116.16 2811.75 2115.16 Q2806.25 2114.15 2800.08 2107.98 Q2794.28 2102.18 2793.59 2096 Q2792.89 2089.79 2797.52 2085.16 Q2798.77 2083.92 2800.27 2082.9 Q2801.79 2081.87 2803.66 2080.99 Z" fill="#000000" fill-rule="nonzero" fill-opacity="1" /><path clip-path="url(#clip330)" d="M2834.43 2097 L2831.42 2093.98 Q2833.25 2093.33 2834.84 2092.36 Q2836.43 2091.4 2837.66 2090.17 Q2840.93 2086.9 2840.46 2082.98 Q2839.98 2079.04 2835.74 2074.31 Q2836.2 2076.67 2835.5 2078.88 Q2834.79 2081.09 2833.03 2082.85 Q2829.36 2086.52 2825 2086.45 Q2820.65 2086.36 2816.8 2082.51 Q2813.04 2078.75 2812.99 2074.24 Q2812.94 2069.74 2816.64 2066.04 Q2820.88 2061.8 2826.36 2062.84 Q2831.85 2063.83 2838.03 2070.02 Q2843.81 2075.8 2844.52 2082 Q2845.22 2088.17 2840.59 2092.81 Q2839.34 2094.05 2837.82 2095.08 Q2836.3 2096.11 2834.43 2097 M2830.65 2080.05 Q2832.88 2077.83 2832.65 2075.01 Q2832.44 2072.18 2829.78 2069.53 Q2827.15 2066.89 2824.32 2066.68 Q2821.49 2066.44 2819.26 2068.66 Q2817.03 2070.89 2817.26 2073.74 Q2817.49 2076.55 2820.13 2079.19 Q2822.78 2081.84 2825.59 2082.07 Q2828.43 2082.28 2830.65 2080.05 Z" fill="#000000" fill-rule="nonzero" fill-opacity="1" /><path clip-path="url(#clip330)" d="M2856.24 2070.64 L2867.77 2059.1 L2870.56 2061.89 L2855.04 2077.4 L2852.26 2074.62 Q2852.19 2070.79 2852.16 2064.28 Q2852.13 2057.73 2852.01 2055.94 Q2851.82 2052.57 2851.21 2050.72 Q2850.6 2048.84 2849.41 2047.65 Q2847.46 2045.7 2844.86 2045.85 Q2842.27 2045.98 2840.08 2048.17 Q2838.52 2049.72 2837.33 2052 Q2836.15 2054.26 2835.28 2057.32 L2831.94 2053.98 Q2833.14 2051.18 2834.47 2049.04 Q2835.79 2046.89 2837.23 2045.45 Q2841.03 2041.66 2845.19 2041.3 Q2849.34 2040.93 2852.52 2044.11 Q2854.03 2045.62 2854.81 2047.55 Q2855.6 2049.45 2855.94 2052.77 Q2856.01 2053.65 2856.09 2058.12 Q2856.15 2062.57 2856.24 2070.64 Z" fill="#000000" fill-rule="nonzero" fill-opacity="1" /><path clip-path="url(#clip330)" d="M3164.66 2099.04 Q3162.43 2101.27 3162.65 2104.1 Q3162.88 2106.91 3165.53 2109.57 Q3168.16 2112.2 3171 2112.45 Q3173.83 2112.66 3176.05 2110.43 Q3178.28 2108.21 3178.05 2105.39 Q3177.82 2102.54 3175.19 2099.91 Q3172.53 2097.26 3169.7 2097.04 Q3166.89 2096.82 3164.66 2099.04 M3160.86 2082.12 L3163.88 2085.13 Q3162.04 2085.78 3160.45 2086.75 Q3158.88 2087.7 3157.64 2088.94 Q3154.37 2092.22 3154.84 2096.16 Q3155.33 2100.09 3159.55 2104.8 Q3159.1 2102.41 3159.8 2100.2 Q3160.49 2097.98 3162.24 2096.23 Q3165.92 2092.54 3170.29 2092.66 Q3174.66 2092.74 3178.51 2096.59 Q3182.27 2100.35 3182.32 2104.85 Q3182.37 2109.35 3178.67 2113.05 Q3174.43 2117.29 3168.95 2116.29 Q3163.45 2115.28 3157.28 2109.11 Q3151.48 2103.31 3150.8 2097.13 Q3150.09 2090.92 3154.73 2086.29 Q3155.97 2085.05 3157.48 2084.03 Q3159 2083 3160.86 2082.12 Z" fill="#000000" fill-rule="nonzero" fill-opacity="1" /><path clip-path="url(#clip330)" d="M3166.77 2075.13 L3182.49 2059.41 L3183.89 2060.82 L3198.05 2092.72 L3194.6 2096.18 L3181.29 2066.17 L3169.56 2077.91 L3166.77 2075.13 Z" fill="#000000" fill-rule="nonzero" fill-opacity="1" /><path clip-path="url(#clip330)" d="M3198.18 2048.07 Q3195.63 2050.62 3196.86 2054.44 Q3198.08 2058.22 3203.13 2063.26 Q3208.15 2068.29 3211.95 2069.53 Q3215.75 2070.74 3218.3 2068.19 Q3220.87 2065.62 3219.64 2061.84 Q3218.41 2058.02 3213.39 2053 Q3208.35 2047.96 3204.55 2046.75 Q3200.75 2045.5 3198.18 2048.07 M3195.56 2045.45 Q3199.67 2041.34 3205.09 2042.44 Q3210.51 2043.5 3216.7 2049.69 Q3222.87 2055.86 3223.95 2061.3 Q3225.03 2066.7 3220.92 2070.81 Q3216.81 2074.92 3211.39 2073.85 Q3205.97 2072.75 3199.8 2066.58 Q3193.62 2060.4 3192.54 2055 Q3191.46 2049.56 3195.56 2045.45 Z" fill="#000000" fill-rule="nonzero" fill-opacity="1" /><path clip-path="url(#clip330)" d="M3522.88 2099.16 Q3520.65 2101.38 3520.87 2104.21 Q3521.09 2107.03 3523.75 2109.68 Q3526.38 2112.32 3529.21 2112.56 Q3532.04 2112.77 3534.27 2110.55 Q3536.5 2108.32 3536.27 2105.51 Q3536.04 2102.66 3533.4 2100.02 Q3530.75 2097.37 3527.92 2097.16 Q3525.1 2096.93 3522.88 2099.16 M3519.08 2082.23 L3522.09 2085.24 Q3520.26 2085.9 3518.67 2086.86 Q3517.1 2087.81 3515.86 2089.06 Q3512.58 2092.33 3513.06 2096.28 Q3513.55 2100.2 3517.77 2104.92 Q3517.31 2102.53 3518.02 2100.32 Q3518.7 2098.09 3520.46 2096.34 Q3524.14 2092.66 3528.51 2092.77 Q3532.88 2092.85 3536.73 2096.7 Q3540.49 2100.47 3540.54 2104.97 Q3540.59 2109.47 3536.89 2113.17 Q3532.65 2117.41 3527.17 2116.41 Q3521.67 2115.39 3515.5 2109.22 Q3509.7 2103.43 3509.01 2097.24 Q3508.31 2091.04 3512.94 2086.41 Q3514.19 2085.16 3515.69 2084.15 Q3517.22 2083.12 3519.08 2082.23 Z" fill="#000000" fill-rule="nonzero" fill-opacity="1" /><path clip-path="url(#clip330)" d="M3537.79 2068.2 L3542.49 2089.6 L3550.84 2081.25 L3537.79 2068.2 M3534.04 2066.19 L3538.2 2062.03 L3554.13 2077.96 L3557.61 2074.47 L3560.36 2077.22 L3556.88 2080.71 L3562.64 2086.47 L3559.35 2089.76 L3553.59 2084 L3542.55 2095.03 L3539.36 2091.84 L3534.04 2066.19 Z" fill="#000000" fill-rule="nonzero" fill-opacity="1" /><path clip-path="url(#clip330)" d="M3565.53 2056.5 Q3563.31 2058.73 3563.52 2061.56 Q3563.75 2064.37 3566.4 2067.03 Q3569.04 2069.66 3571.87 2069.91 Q3574.7 2070.12 3576.93 2067.89 Q3579.15 2065.67 3578.92 2062.85 Q3578.69 2060 3576.06 2057.37 Q3573.41 2054.72 3570.58 2054.5 Q3567.76 2054.28 3565.53 2056.5 M3561.74 2039.58 L3564.75 2042.59 Q3562.92 2043.24 3561.33 2044.21 Q3559.76 2045.16 3558.51 2046.4 Q3555.24 2049.68 3555.71 2053.62 Q3556.2 2057.55 3560.43 2062.26 Q3559.97 2059.87 3560.67 2057.66 Q3561.36 2055.44 3563.11 2053.69 Q3566.79 2050 3571.16 2050.12 Q3575.53 2050.2 3579.38 2054.05 Q3583.15 2057.81 3583.2 2062.31 Q3583.24 2066.81 3579.55 2070.51 Q3575.31 2074.75 3569.82 2073.75 Q3564.32 2072.74 3558.15 2066.57 Q3552.36 2060.77 3551.67 2054.59 Q3550.97 2048.38 3555.6 2043.75 Q3556.84 2042.51 3558.35 2041.49 Q3559.87 2040.46 3561.74 2039.58 Z" fill="#000000" fill-rule="nonzero" fill-opacity="1" /><path clip-path="url(#clip330)" d="M2092.9 2195.69 L2092.9 2213.1 L2103.21 2213.1 Q2108.4 2213.1 2110.88 2210.96 Q2113.39 2208.8 2113.39 2204.38 Q2113.39 2199.92 2110.88 2197.82 Q2108.4 2195.69 2103.21 2195.69 L2092.9 2195.69 M2092.9 2176.14 L2092.9 2190.47 L2102.41 2190.47 Q2107.12 2190.47 2109.42 2188.72 Q2111.74 2186.93 2111.74 2183.3 Q2111.74 2179.71 2109.42 2177.93 Q2107.12 2176.14 2102.41 2176.14 L2092.9 2176.14 M2086.47 2170.86 L2102.89 2170.86 Q2110.24 2170.86 2114.22 2173.92 Q2118.2 2176.97 2118.2 2182.6 Q2118.2 2186.96 2116.16 2189.54 Q2114.13 2192.12 2110.18 2192.76 Q2114.92 2193.78 2117.53 2197.02 Q2120.17 2200.24 2120.17 2205.08 Q2120.17 2211.44 2115.85 2214.91 Q2111.52 2218.38 2103.53 2218.38 L2086.47 2218.38 L2086.47 2170.86 Z" fill="#000000" fill-rule="nonzero" fill-opacity="1" /><path clip-path="url(#clip330)" d="M2130.33 2204.31 L2130.33 2182.73 L2136.18 2182.73 L2136.18 2204.09 Q2136.18 2209.15 2138.16 2211.7 Q2140.13 2214.21 2144.08 2214.21 Q2148.82 2214.21 2151.56 2211.19 Q2154.33 2208.16 2154.33 2202.94 L2154.33 2182.73 L2160.18 2182.73 L2160.18 2218.38 L2154.33 2218.38 L2154.33 2212.91 Q2152.19 2216.15 2149.36 2217.74 Q2146.56 2219.3 2142.84 2219.3 Q2136.69 2219.3 2133.51 2215.48 Q2130.33 2211.66 2130.33 2204.31 M2145.06 2181.87 L2145.06 2181.87 Z" fill="#000000" fill-rule="nonzero" fill-opacity="1" /><path clip-path="url(#clip330)" d="M2194.97 2183.78 L2194.97 2189.32 Q2192.49 2188.05 2189.81 2187.41 Q2187.14 2186.77 2184.28 2186.77 Q2179.92 2186.77 2177.72 2188.11 Q2175.56 2189.45 2175.56 2192.12 Q2175.56 2194.16 2177.12 2195.34 Q2178.67 2196.48 2183.39 2197.53 L2185.39 2197.98 Q2191.63 2199.31 2194.24 2201.77 Q2196.88 2204.18 2196.88 2208.54 Q2196.88 2213.51 2192.93 2216.41 Q2189.02 2219.3 2182.14 2219.3 Q2179.28 2219.3 2176.16 2218.73 Q2173.07 2218.19 2169.64 2217.07 L2169.64 2211.03 Q2172.88 2212.71 2176.03 2213.57 Q2179.18 2214.4 2182.27 2214.4 Q2186.41 2214.4 2188.64 2213 Q2190.87 2211.57 2190.87 2208.99 Q2190.87 2206.6 2189.24 2205.33 Q2187.65 2204.06 2182.21 2202.88 L2180.17 2202.4 Q2174.73 2201.26 2172.31 2198.9 Q2169.89 2196.51 2169.89 2192.38 Q2169.89 2187.35 2173.45 2184.61 Q2177.02 2181.87 2183.58 2181.87 Q2186.82 2181.87 2189.69 2182.35 Q2192.55 2182.83 2194.97 2183.78 Z" fill="#000000" fill-rule="nonzero" fill-opacity="1" /><polyline clip-path="url(#clip330)" style="stroke:#000000; stroke-linecap:round; stroke-linejoin:round; stroke-width:4; stroke-opacity:1; fill:none" points="386.242,1992.94 386.242,171.344 "/>
<polyline clip-path="url(#clip330)" style="stroke:#000000; stroke-linecap:round; stroke-linejoin:round; stroke-width:4; stroke-opacity:1; fill:none" points="386.242,1992.94 401.436,1992.94 "/>
<polyline clip-path="url(#clip330)" style="stroke:#000000; stroke-linecap:round; stroke-linejoin:round; stroke-width:4; stroke-opacity:1; fill:none" points="386.242,1628.62 401.436,1628.62 "/>
<polyline clip-path="url(#clip330)" style="stroke:#000000; stroke-linecap:round; stroke-linejoin:round; stroke-width:4; stroke-opacity:1; fill:none" points="386.242,1264.3 401.436,1264.3 "/>
<polyline clip-path="url(#clip330)" style="stroke:#000000; stroke-linecap:round; stroke-linejoin:round; stroke-width:4; stroke-opacity:1; fill:none" points="386.242,899.982 401.436,899.982 "/>
<polyline clip-path="url(#clip330)" style="stroke:#000000; stroke-linecap:round; stroke-linejoin:round; stroke-width:4; stroke-opacity:1; fill:none" points="386.242,535.663 401.436,535.663 "/>
<polyline clip-path="url(#clip330)" style="stroke:#000000; stroke-linecap:round; stroke-linejoin:round; stroke-width:4; stroke-opacity:1; fill:none" points="386.242,171.344 401.436,171.344 "/>
<path clip-path="url(#clip330)" d="M302.297 1978.74 Q298.686 1978.74 296.857 1982.3 Q295.052 1985.84 295.052 1992.97 Q295.052 2000.08 296.857 2003.65 Q298.686 2007.19 302.297 2007.19 Q305.931 2007.19 307.737 2003.65 Q309.566 2000.08 309.566 1992.97 Q309.566 1985.84 307.737 1982.3 Q305.931 1978.74 302.297 1978.74 M302.297 1975.03 Q308.107 1975.03 311.163 1979.64 Q314.242 1984.22 314.242 1992.97 Q314.242 2001.7 311.163 2006.31 Q308.107 2010.89 302.297 2010.89 Q296.487 2010.89 293.408 2006.31 Q290.353 2001.7 290.353 1992.97 Q290.353 1984.22 293.408 1979.64 Q296.487 1975.03 302.297 1975.03 Z" fill="#000000" fill-rule="nonzero" fill-opacity="1" /><path clip-path="url(#clip330)" d="M266.163 1641.97 L282.483 1641.97 L282.483 1645.9 L260.538 1645.9 L260.538 1641.97 Q263.2 1639.21 267.784 1634.58 Q272.39 1629.93 273.571 1628.59 Q275.816 1626.06 276.696 1624.33 Q277.598 1622.57 277.598 1620.88 Q277.598 1618.12 275.654 1616.39 Q273.733 1614.65 270.631 1614.65 Q268.432 1614.65 265.978 1615.41 Q263.547 1616.18 260.77 1617.73 L260.77 1613.01 Q263.594 1611.87 266.047 1611.29 Q268.501 1610.72 270.538 1610.72 Q275.909 1610.72 279.103 1613.4 Q282.297 1616.09 282.297 1620.58 Q282.297 1622.71 281.487 1624.63 Q280.7 1626.53 278.594 1629.12 Q278.015 1629.79 274.913 1633.01 Q271.811 1636.2 266.163 1641.97 Z" fill="#000000" fill-rule="nonzero" fill-opacity="1" /><path clip-path="url(#clip330)" d="M302.297 1614.42 Q298.686 1614.42 296.857 1617.98 Q295.052 1621.53 295.052 1628.65 Q295.052 1635.76 296.857 1639.33 Q298.686 1642.87 302.297 1642.87 Q305.931 1642.87 307.737 1639.33 Q309.566 1635.76 309.566 1628.65 Q309.566 1621.53 307.737 1617.98 Q305.931 1614.42 302.297 1614.42 M302.297 1610.72 Q308.107 1610.72 311.163 1615.32 Q314.242 1619.9 314.242 1628.65 Q314.242 1637.38 311.163 1641.99 Q308.107 1646.57 302.297 1646.57 Q296.487 1646.57 293.408 1641.99 Q290.353 1637.38 290.353 1628.65 Q290.353 1619.9 293.408 1615.32 Q296.487 1610.72 302.297 1610.72 Z" fill="#000000" fill-rule="nonzero" fill-opacity="1" /><path clip-path="url(#clip330)" d="M274.983 1251.1 L263.177 1269.54 L274.983 1269.54 L274.983 1251.1 M273.756 1247.02 L279.635 1247.02 L279.635 1269.54 L284.566 1269.54 L284.566 1273.43 L279.635 1273.43 L279.635 1281.58 L274.983 1281.58 L274.983 1273.43 L259.381 1273.43 L259.381 1268.92 L273.756 1247.02 Z" fill="#000000" fill-rule="nonzero" fill-opacity="1" /><path clip-path="url(#clip330)" d="M302.297 1250.1 Q298.686 1250.1 296.857 1253.66 Q295.052 1257.21 295.052 1264.34 Q295.052 1271.44 296.857 1275.01 Q298.686 1278.55 302.297 1278.55 Q305.931 1278.55 307.737 1275.01 Q309.566 1271.44 309.566 1264.34 Q309.566 1257.21 307.737 1253.66 Q305.931 1250.1 302.297 1250.1 M302.297 1246.4 Q308.107 1246.4 311.163 1251 Q314.242 1255.59 314.242 1264.34 Q314.242 1273.06 311.163 1277.67 Q308.107 1282.25 302.297 1282.25 Q296.487 1282.25 293.408 1277.67 Q290.353 1273.06 290.353 1264.34 Q290.353 1255.59 293.408 1251 Q296.487 1246.4 302.297 1246.4 Z" fill="#000000" fill-rule="nonzero" fill-opacity="1" /><path clip-path="url(#clip330)" d="M272.714 898.119 Q269.566 898.119 267.714 900.272 Q265.885 902.424 265.885 906.174 Q265.885 909.901 267.714 912.077 Q269.566 914.23 272.714 914.23 Q275.862 914.23 277.691 912.077 Q279.543 909.901 279.543 906.174 Q279.543 902.424 277.691 900.272 Q275.862 898.119 272.714 898.119 M281.996 883.466 L281.996 887.725 Q280.237 886.892 278.432 886.452 Q276.649 886.012 274.89 886.012 Q270.26 886.012 267.807 889.137 Q265.376 892.262 265.029 898.582 Q266.395 896.568 268.455 895.503 Q270.515 894.415 272.992 894.415 Q278.2 894.415 281.209 897.586 Q284.242 900.735 284.242 906.174 Q284.242 911.498 281.094 914.716 Q277.946 917.934 272.714 917.934 Q266.719 917.934 263.547 913.35 Q260.376 908.744 260.376 900.017 Q260.376 891.823 264.265 886.961 Q268.154 882.077 274.705 882.077 Q276.464 882.077 278.246 882.424 Q280.052 882.772 281.996 883.466 Z" fill="#000000" fill-rule="nonzero" fill-opacity="1" /><path clip-path="url(#clip330)" d="M302.297 885.781 Q298.686 885.781 296.857 889.346 Q295.052 892.887 295.052 900.017 Q295.052 907.123 296.857 910.688 Q298.686 914.23 302.297 914.23 Q305.931 914.23 307.737 910.688 Q309.566 907.123 309.566 900.017 Q309.566 892.887 307.737 889.346 Q305.931 885.781 302.297 885.781 M302.297 882.077 Q308.107 882.077 311.163 886.684 Q314.242 891.267 314.242 900.017 Q314.242 908.744 311.163 913.35 Q308.107 917.934 302.297 917.934 Q296.487 917.934 293.408 913.35 Q290.353 908.744 290.353 900.017 Q290.353 891.267 293.408 886.684 Q296.487 882.077 302.297 882.077 Z" fill="#000000" fill-rule="nonzero" fill-opacity="1" /><path clip-path="url(#clip330)" d="M272.135 536.531 Q268.802 536.531 266.881 538.314 Q264.983 540.096 264.983 543.221 Q264.983 546.346 266.881 548.128 Q268.802 549.911 272.135 549.911 Q275.469 549.911 277.39 548.128 Q279.311 546.323 279.311 543.221 Q279.311 540.096 277.39 538.314 Q275.492 536.531 272.135 536.531 M267.459 534.541 Q264.45 533.8 262.76 531.74 Q261.094 529.679 261.094 526.717 Q261.094 522.573 264.034 520.166 Q266.997 517.758 272.135 517.758 Q277.297 517.758 280.237 520.166 Q283.177 522.573 283.177 526.717 Q283.177 529.679 281.487 531.74 Q279.821 533.8 276.834 534.541 Q280.214 535.328 282.089 537.619 Q283.987 539.911 283.987 543.221 Q283.987 548.244 280.908 550.929 Q277.853 553.615 272.135 553.615 Q266.418 553.615 263.339 550.929 Q260.284 548.244 260.284 543.221 Q260.284 539.911 262.182 537.619 Q264.08 535.328 267.459 534.541 M265.747 527.156 Q265.747 529.842 267.413 531.346 Q269.103 532.851 272.135 532.851 Q275.145 532.851 276.834 531.346 Q278.547 529.842 278.547 527.156 Q278.547 524.471 276.834 522.967 Q275.145 521.462 272.135 521.462 Q269.103 521.462 267.413 522.967 Q265.747 524.471 265.747 527.156 Z" fill="#000000" fill-rule="nonzero" fill-opacity="1" /><path clip-path="url(#clip330)" d="M302.297 521.462 Q298.686 521.462 296.857 525.027 Q295.052 528.568 295.052 535.698 Q295.052 542.804 296.857 546.369 Q298.686 549.911 302.297 549.911 Q305.931 549.911 307.737 546.369 Q309.566 542.804 309.566 535.698 Q309.566 528.568 307.737 525.027 Q305.931 521.462 302.297 521.462 M302.297 517.758 Q308.107 517.758 311.163 522.365 Q314.242 526.948 314.242 535.698 Q314.242 544.425 311.163 549.031 Q308.107 553.615 302.297 553.615 Q296.487 553.615 293.408 549.031 Q290.353 544.425 290.353 535.698 Q290.353 526.948 293.408 522.365 Q296.487 517.758 302.297 517.758 Z" fill="#000000" fill-rule="nonzero" fill-opacity="1" /><path clip-path="url(#clip330)" d="M232.784 184.689 L240.423 184.689 L240.423 158.323 L232.112 159.99 L232.112 155.731 L240.376 154.064 L245.052 154.064 L245.052 184.689 L252.691 184.689 L252.691 188.624 L232.784 188.624 L232.784 184.689 Z" fill="#000000" fill-rule="nonzero" fill-opacity="1" /><path clip-path="url(#clip330)" d="M272.135 157.143 Q268.524 157.143 266.696 160.708 Q264.89 164.249 264.89 171.379 Q264.89 178.485 266.696 182.05 Q268.524 185.592 272.135 185.592 Q275.77 185.592 277.575 182.05 Q279.404 178.485 279.404 171.379 Q279.404 164.249 277.575 160.708 Q275.77 157.143 272.135 157.143 M272.135 153.439 Q277.946 153.439 281.001 158.046 Q284.08 162.629 284.08 171.379 Q284.08 180.106 281.001 184.712 Q277.946 189.296 272.135 189.296 Q266.325 189.296 263.247 184.712 Q260.191 180.106 260.191 171.379 Q260.191 162.629 263.247 158.046 Q266.325 153.439 272.135 153.439 Z" fill="#000000" fill-rule="nonzero" fill-opacity="1" /><path clip-path="url(#clip330)" d="M302.297 157.143 Q298.686 157.143 296.857 160.708 Q295.052 164.249 295.052 171.379 Q295.052 178.485 296.857 182.05 Q298.686 185.592 302.297 185.592 Q305.931 185.592 307.737 182.05 Q309.566 178.485 309.566 171.379 Q309.566 164.249 307.737 160.708 Q305.931 157.143 302.297 157.143 M302.297 153.439 Q308.107 153.439 311.163 158.046 Q314.242 162.629 314.242 171.379 Q314.242 180.106 311.163 184.712 Q308.107 189.296 302.297 189.296 Q296.487 189.296 293.408 184.712 Q290.353 180.106 290.353 171.379 Q290.353 162.629 293.408 158.046 Q296.487 153.439 302.297 153.439 Z" fill="#000000" fill-rule="nonzero" fill-opacity="1" /><path clip-path="url(#clip330)" d="M98.3364 1313.54 L98.3364 1307.11 L140.446 1307.11 L140.446 1283.97 L145.856 1283.97 L145.856 1313.54 L98.3364 1313.54 Z" fill="#000000" fill-rule="nonzero" fill-opacity="1" /><path clip-path="url(#clip330)" d="M114.314 1264.81 Q114.314 1269.52 118.006 1272.25 Q121.667 1274.99 128.064 1274.99 Q134.462 1274.99 138.154 1272.29 Q141.814 1269.55 141.814 1264.81 Q141.814 1260.13 138.122 1257.39 Q134.43 1254.65 128.064 1254.65 Q121.73 1254.65 118.038 1257.39 Q114.314 1260.13 114.314 1264.81 M109.349 1264.81 Q109.349 1257.17 114.314 1252.81 Q119.28 1248.45 128.064 1248.45 Q136.817 1248.45 141.814 1252.81 Q146.779 1257.17 146.779 1264.81 Q146.779 1272.48 141.814 1276.84 Q136.817 1281.17 128.064 1281.17 Q119.28 1281.17 114.314 1276.84 Q109.349 1272.48 109.349 1264.81 Z" fill="#000000" fill-rule="nonzero" fill-opacity="1" /><path clip-path="url(#clip330)" d="M127.937 1222.54 Q127.937 1229.64 129.56 1232.37 Q131.183 1235.11 135.098 1235.11 Q138.218 1235.11 140.064 1233.07 Q141.878 1231 141.878 1227.47 Q141.878 1222.6 138.44 1219.67 Q134.971 1216.71 129.242 1216.71 L127.937 1216.71 L127.937 1222.54 M125.518 1210.86 L145.856 1210.86 L145.856 1216.71 L140.446 1216.71 Q143.692 1218.72 145.252 1221.71 Q146.779 1224.7 146.779 1229.03 Q146.779 1234.5 143.724 1237.75 Q140.637 1240.97 135.48 1240.97 Q129.465 1240.97 126.409 1236.96 Q123.354 1232.91 123.354 1224.92 L123.354 1216.71 L122.781 1216.71 Q118.739 1216.71 116.542 1219.39 Q114.314 1222.03 114.314 1226.83 Q114.314 1229.89 115.046 1232.79 Q115.778 1235.68 117.243 1238.36 L111.832 1238.36 Q110.59 1235.14 109.986 1232.12 Q109.349 1229.09 109.349 1226.23 Q109.349 1218.5 113.36 1214.68 Q117.37 1210.86 125.518 1210.86 Z" fill="#000000" fill-rule="nonzero" fill-opacity="1" /><path clip-path="url(#clip330)" d="M115.619 1175.34 L96.3312 1175.34 L96.3312 1169.48 L145.856 1169.48 L145.856 1175.34 L140.509 1175.34 Q143.692 1177.18 145.252 1180.01 Q146.779 1182.82 146.779 1186.76 Q146.779 1193.22 141.623 1197.3 Q136.467 1201.34 128.064 1201.34 Q119.662 1201.34 114.505 1197.3 Q109.349 1193.22 109.349 1186.76 Q109.349 1182.82 110.909 1180.01 Q112.436 1177.18 115.619 1175.34 M128.064 1195.29 Q134.525 1195.29 138.218 1192.65 Q141.878 1189.98 141.878 1185.33 Q141.878 1180.68 138.218 1178.01 Q134.525 1175.34 128.064 1175.34 Q121.603 1175.34 117.943 1178.01 Q114.251 1180.68 114.251 1185.33 Q114.251 1189.98 117.943 1192.65 Q121.603 1195.29 128.064 1195.29 Z" fill="#000000" fill-rule="nonzero" fill-opacity="1" /><path clip-path="url(#clip330)" d="M99.896 1107.95 L106.166 1107.95 Q104.416 1111.61 103.556 1114.86 Q102.697 1118.11 102.697 1121.13 Q102.697 1126.38 104.734 1129.25 Q106.771 1132.08 110.527 1132.08 Q113.678 1132.08 115.301 1130.2 Q116.892 1128.29 117.879 1123.01 L118.675 1119.13 Q120.044 1111.93 123.513 1108.53 Q126.95 1105.09 132.743 1105.09 Q139.65 1105.09 143.215 1109.74 Q146.779 1114.35 146.779 1123.3 Q146.779 1126.67 146.016 1130.49 Q145.252 1134.28 143.756 1138.35 L137.135 1138.35 Q139.332 1134.44 140.446 1130.68 Q141.56 1126.92 141.56 1123.3 Q141.56 1117.79 139.395 1114.8 Q137.231 1111.81 133.221 1111.81 Q129.719 1111.81 127.746 1113.97 Q125.773 1116.1 124.786 1121 L124.022 1124.92 Q122.59 1132.11 119.534 1135.33 Q116.479 1138.54 111.036 1138.54 Q104.734 1138.54 101.106 1134.12 Q97.4771 1129.66 97.4771 1121.86 Q97.4771 1118.52 98.0818 1115.05 Q98.6866 1111.58 99.896 1107.95 Z" fill="#000000" fill-rule="nonzero" fill-opacity="1" /><path clip-path="url(#clip330)" d="M124.34 1065.69 L145.856 1065.69 L145.856 1071.54 L124.531 1071.54 Q119.471 1071.54 116.956 1073.52 Q114.442 1075.49 114.442 1079.44 Q114.442 1084.18 117.465 1086.92 Q120.489 1089.65 125.709 1089.65 L145.856 1089.65 L145.856 1095.54 L96.3312 1095.54 L96.3312 1089.65 L115.747 1089.65 Q112.532 1087.55 110.941 1084.72 Q109.349 1081.86 109.349 1078.13 Q109.349 1071.99 113.169 1068.84 Q116.956 1065.69 124.34 1065.69 Z" fill="#000000" fill-rule="nonzero" fill-opacity="1" /><path clip-path="url(#clip330)" d="M126.568 1023.51 L129.433 1023.51 L129.433 1050.44 Q135.48 1050.06 138.663 1046.81 Q141.814 1043.53 141.814 1037.71 Q141.814 1034.34 140.987 1031.18 Q140.159 1028 138.504 1024.88 L144.042 1024.88 Q145.379 1028.03 146.079 1031.34 Q146.779 1034.65 146.779 1038.06 Q146.779 1046.59 141.814 1051.59 Q136.849 1056.55 128.383 1056.55 Q119.63 1056.55 114.505 1051.84 Q109.349 1047.1 109.349 1039.08 Q109.349 1031.88 113.996 1027.71 Q118.611 1023.51 126.568 1023.51 M124.85 1029.37 Q120.044 1029.43 117.179 1032.08 Q114.314 1034.69 114.314 1039.01 Q114.314 1043.92 117.083 1046.88 Q119.853 1049.8 124.881 1050.25 L124.85 1029.37 Z" fill="#000000" fill-rule="nonzero" fill-opacity="1" /><path clip-path="url(#clip330)" d="M115.619 990.444 L96.3312 990.444 L96.3312 984.587 L145.856 984.587 L145.856 990.444 L140.509 990.444 Q143.692 992.29 145.252 995.123 Q146.779 997.923 146.779 1001.87 Q146.779 1008.33 141.623 1012.41 Q136.467 1016.45 128.064 1016.45 Q119.662 1016.45 114.505 1012.41 Q109.349 1008.33 109.349 1001.87 Q109.349 997.923 110.909 995.123 Q112.436 992.29 115.619 990.444 M128.064 1010.4 Q134.525 1010.4 138.218 1007.76 Q141.878 1005.08 141.878 1000.44 Q141.878 995.791 138.218 993.117 Q134.525 990.444 128.064 990.444 Q121.603 990.444 117.943 993.117 Q114.251 995.791 114.251 1000.44 Q114.251 1005.08 117.943 1007.76 Q121.603 1010.4 128.064 1010.4 Z" fill="#000000" fill-rule="nonzero" fill-opacity="1" /><path clip-path="url(#clip330)" d="M96.3949 937.736 Q103.715 942.001 110.877 944.07 Q118.038 946.138 125.391 946.138 Q132.743 946.138 139.968 944.07 Q147.161 941.969 154.45 937.736 L154.45 942.828 Q146.97 947.603 139.745 949.99 Q132.52 952.345 125.391 952.345 Q118.293 952.345 111.1 949.99 Q103.906 947.634 96.3949 942.828 L96.3949 937.736 Z" fill="#000000" fill-rule="nonzero" fill-opacity="1" /><path clip-path="url(#clip330)" d="M124.945 885.123 Q124.945 887.892 127.3 889.484 Q129.656 891.043 133.857 891.043 Q137.995 891.043 140.382 889.484 Q142.737 887.892 142.737 885.123 Q142.737 882.418 140.382 880.858 Q137.995 879.267 133.857 879.267 Q129.688 879.267 127.332 880.858 Q124.945 882.418 124.945 885.123 M120.903 885.123 Q120.903 880.094 124.404 877.134 Q127.905 874.174 133.857 874.174 Q139.809 874.174 143.31 877.166 Q146.779 880.126 146.779 885.123 Q146.779 890.216 143.31 893.176 Q139.809 896.136 133.857 896.136 Q127.873 896.136 124.404 893.176 Q120.903 890.184 120.903 885.123 M101.519 917.97 Q101.519 920.707 103.906 922.299 Q106.262 923.858 110.399 923.858 Q114.601 923.858 116.956 922.299 Q119.311 920.739 119.311 917.97 Q119.311 915.201 116.956 913.641 Q114.601 912.05 110.399 912.05 Q106.294 912.05 103.906 913.641 Q101.519 915.233 101.519 917.97 M97.4771 889.229 L97.4771 884.136 L146.779 913.864 L146.779 918.957 L97.4771 889.229 M97.4771 917.97 Q97.4771 912.941 100.978 909.949 Q104.448 906.957 110.399 906.957 Q116.415 906.957 119.884 909.949 Q123.354 912.909 123.354 917.97 Q123.354 923.031 119.884 925.991 Q116.383 928.919 110.399 928.919 Q104.479 928.919 100.978 925.959 Q97.4771 922.999 97.4771 917.97 Z" fill="#000000" fill-rule="nonzero" fill-opacity="1" /><path clip-path="url(#clip330)" d="M96.3949 865.358 L96.3949 860.265 Q103.906 855.491 111.1 853.135 Q118.293 850.748 125.391 850.748 Q132.52 850.748 139.745 853.135 Q146.97 855.491 154.45 860.265 L154.45 865.358 Q147.161 861.124 139.968 859.056 Q132.743 856.955 125.391 856.955 Q118.038 856.955 110.877 859.056 Q103.715 861.124 96.3949 865.358 Z" fill="#000000" fill-rule="nonzero" fill-opacity="1" /><path clip-path="url(#clip330)" d="M1209.66 20.1573 L1198.56 50.2555 L1220.8 50.2555 L1209.66 20.1573 M1205.04 12.096 L1214.32 12.096 L1237.37 72.576 L1228.86 72.576 L1223.35 57.061 L1196.09 57.061 L1190.58 72.576 L1181.95 72.576 L1205.04 12.096 Z" fill="#000000" fill-rule="nonzero" fill-opacity="1" /><path clip-path="url(#clip330)" d="M1277.07 28.9478 L1277.07 35.9153 Q1273.91 34.1734 1270.71 33.3227 Q1267.55 32.4315 1264.31 32.4315 Q1257.06 32.4315 1253.05 37.0496 Q1249.04 41.6271 1249.04 49.9314 Q1249.04 58.2358 1253.05 62.8538 Q1257.06 67.4314 1264.31 67.4314 Q1267.55 67.4314 1270.71 66.5807 Q1273.91 65.6895 1277.07 63.9476 L1277.07 70.8341 Q1273.95 72.2924 1270.59 73.0216 Q1267.27 73.7508 1263.5 73.7508 Q1253.25 73.7508 1247.21 67.3098 Q1241.18 60.8689 1241.18 49.9314 Q1241.18 38.832 1247.25 32.472 Q1253.37 26.1121 1263.98 26.1121 Q1267.43 26.1121 1270.71 26.8413 Q1273.99 27.5299 1277.07 28.9478 Z" fill="#000000" fill-rule="nonzero" fill-opacity="1" /><path clip-path="url(#clip330)" d="M1297.4 14.324 L1297.4 27.2059 L1312.76 27.2059 L1312.76 32.9987 L1297.4 32.9987 L1297.4 57.6282 Q1297.4 63.1779 1298.9 64.7578 Q1300.44 66.3376 1305.1 66.3376 L1312.76 66.3376 L1312.76 72.576 L1305.1 72.576 Q1296.47 72.576 1293.19 69.3758 Q1289.91 66.1351 1289.91 57.6282 L1289.91 32.9987 L1284.44 32.9987 L1284.44 27.2059 L1289.91 27.2059 L1289.91 14.324 L1297.4 14.324 Z" fill="#000000" fill-rule="nonzero" fill-opacity="1" /><path clip-path="url(#clip330)" d="M1322.56 27.2059 L1330.01 27.2059 L1330.01 72.576 L1322.56 72.576 L1322.56 27.2059 M1322.56 9.54393 L1330.01 9.54393 L1330.01 18.9825 L1322.56 18.9825 L1322.56 9.54393 Z" fill="#000000" fill-rule="nonzero" fill-opacity="1" /><path clip-path="url(#clip330)" d="M1340.26 27.2059 L1348.16 27.2059 L1362.34 65.2844 L1376.52 27.2059 L1384.42 27.2059 L1367.4 72.576 L1357.28 72.576 L1340.26 27.2059 Z" fill="#000000" fill-rule="nonzero" fill-opacity="1" /><path clip-path="url(#clip330)" d="M1433.52 48.0275 L1433.52 51.6733 L1399.24 51.6733 Q1399.73 59.3701 1403.86 63.421 Q1408.04 67.4314 1415.45 67.4314 Q1419.74 67.4314 1423.75 66.3781 Q1427.8 65.3249 1431.77 63.2184 L1431.77 70.267 Q1427.76 71.9684 1423.55 72.8596 Q1419.34 73.7508 1415 73.7508 Q1404.15 73.7508 1397.79 67.4314 Q1391.47 61.1119 1391.47 50.3365 Q1391.47 39.1965 1397.46 32.6746 Q1403.5 26.1121 1413.71 26.1121 Q1422.86 26.1121 1428.17 32.0264 Q1433.52 37.9003 1433.52 48.0275 M1426.06 45.84 Q1425.98 39.7232 1422.62 36.0774 Q1419.3 32.4315 1413.79 32.4315 Q1407.55 32.4315 1403.78 35.9558 Q1400.05 39.4801 1399.49 45.8805 L1426.06 45.84 Z" fill="#000000" fill-rule="nonzero" fill-opacity="1" /><path clip-path="url(#clip330)" d="M1480.63 18.8205 L1480.63 41.5461 L1490.92 41.5461 Q1496.63 41.5461 1499.75 38.5889 Q1502.87 35.6318 1502.87 30.163 Q1502.87 24.7348 1499.75 21.7777 Q1496.63 18.8205 1490.92 18.8205 L1480.63 18.8205 M1472.44 12.096 L1490.92 12.096 Q1501.08 12.096 1506.27 16.714 Q1511.5 21.2916 1511.5 30.163 Q1511.5 39.1155 1506.27 43.6931 Q1501.08 48.2706 1490.92 48.2706 L1480.63 48.2706 L1480.63 72.576 L1472.44 72.576 L1472.44 12.096 Z" fill="#000000" fill-rule="nonzero" fill-opacity="1" /><path clip-path="url(#clip330)" d="M1536.77 32.4315 Q1530.78 32.4315 1527.29 37.1306 Q1523.81 41.7891 1523.81 49.9314 Q1523.81 58.0738 1527.25 62.7728 Q1530.74 67.4314 1536.77 67.4314 Q1542.73 67.4314 1546.21 62.7323 Q1549.7 58.0333 1549.7 49.9314 Q1549.7 41.8701 1546.21 37.1711 Q1542.73 32.4315 1536.77 32.4315 M1536.77 26.1121 Q1546.49 26.1121 1552.04 32.4315 Q1557.59 38.7509 1557.59 49.9314 Q1557.59 61.0714 1552.04 67.4314 Q1546.49 73.7508 1536.77 73.7508 Q1527.01 73.7508 1521.46 67.4314 Q1515.95 61.0714 1515.95 49.9314 Q1515.95 38.7509 1521.46 32.4315 Q1527.01 26.1121 1536.77 26.1121 Z" fill="#000000" fill-rule="nonzero" fill-opacity="1" /><path clip-path="url(#clip330)" d="M1565.62 27.2059 L1573.07 27.2059 L1582.39 62.6108 L1591.66 27.2059 L1600.45 27.2059 L1609.77 62.6108 L1619.05 27.2059 L1626.5 27.2059 L1614.63 72.576 L1605.84 72.576 L1596.08 35.3887 L1586.27 72.576 L1577.48 72.576 L1565.62 27.2059 Z" fill="#000000" fill-rule="nonzero" fill-opacity="1" /><path clip-path="url(#clip330)" d="M1676.61 48.0275 L1676.61 51.6733 L1642.34 51.6733 Q1642.83 59.3701 1646.96 63.421 Q1651.13 67.4314 1658.54 67.4314 Q1662.84 67.4314 1666.85 66.3781 Q1670.9 65.3249 1674.87 63.2184 L1674.87 70.267 Q1670.86 71.9684 1666.64 72.8596 Q1662.43 73.7508 1658.1 73.7508 Q1647.24 73.7508 1640.88 67.4314 Q1634.56 61.1119 1634.56 50.3365 Q1634.56 39.1965 1640.56 32.6746 Q1646.59 26.1121 1656.8 26.1121 Q1665.96 26.1121 1671.26 32.0264 Q1676.61 37.9003 1676.61 48.0275 M1669.16 45.84 Q1669.08 39.7232 1665.71 36.0774 Q1662.39 32.4315 1656.88 32.4315 Q1650.64 32.4315 1646.88 35.9558 Q1643.15 39.4801 1642.58 45.8805 L1669.16 45.84 Z" fill="#000000" fill-rule="nonzero" fill-opacity="1" /><path clip-path="url(#clip330)" d="M1715.13 34.1734 Q1713.88 33.4443 1712.38 33.1202 Q1710.92 32.7556 1709.14 32.7556 Q1702.82 32.7556 1699.42 36.8875 Q1696.05 40.9789 1696.05 48.6757 L1696.05 72.576 L1688.56 72.576 L1688.56 27.2059 L1696.05 27.2059 L1696.05 34.2544 Q1698.4 30.1225 1702.17 28.1376 Q1705.94 26.1121 1711.33 26.1121 Q1712.1 26.1121 1713.03 26.2337 Q1713.96 26.3147 1715.09 26.5172 L1715.13 34.1734 Z" fill="#000000" fill-rule="nonzero" fill-opacity="1" /><path clip-path="url(#clip330)" d="M1749.65 12.096 L1757.83 12.096 L1757.83 65.6895 L1787.28 65.6895 L1787.28 72.576 L1749.65 72.576 L1749.65 12.096 Z" fill="#000000" fill-rule="nonzero" fill-opacity="1" /><path clip-path="url(#clip330)" d="M1811.67 32.4315 Q1805.67 32.4315 1802.19 37.1306 Q1798.7 41.7891 1798.7 49.9314 Q1798.7 58.0738 1802.15 62.7728 Q1805.63 67.4314 1811.67 67.4314 Q1817.62 67.4314 1821.11 62.7323 Q1824.59 58.0333 1824.59 49.9314 Q1824.59 41.8701 1821.11 37.1711 Q1817.62 32.4315 1811.67 32.4315 M1811.67 26.1121 Q1821.39 26.1121 1826.94 32.4315 Q1832.49 38.7509 1832.49 49.9314 Q1832.49 61.0714 1826.94 67.4314 Q1821.39 73.7508 1811.67 73.7508 Q1801.9 73.7508 1796.35 67.4314 Q1790.85 61.0714 1790.85 49.9314 Q1790.85 38.7509 1796.35 32.4315 Q1801.9 26.1121 1811.67 26.1121 Z" fill="#000000" fill-rule="nonzero" fill-opacity="1" /><path clip-path="url(#clip330)" d="M1865.46 49.7694 Q1856.43 49.7694 1852.95 51.8354 Q1849.46 53.9013 1849.46 58.8839 Q1849.46 62.8538 1852.05 65.2034 Q1854.69 67.5124 1859.18 67.5124 Q1865.38 67.5124 1869.11 63.1374 Q1872.88 58.7219 1872.88 51.4303 L1872.88 49.7694 L1865.46 49.7694 M1880.33 46.6907 L1880.33 72.576 L1872.88 72.576 L1872.88 65.6895 Q1870.32 69.8214 1866.52 71.8063 Q1862.71 73.7508 1857.2 73.7508 Q1850.23 73.7508 1846.1 69.8619 Q1842.01 65.9325 1842.01 59.3701 Q1842.01 51.7138 1847.11 47.825 Q1852.26 43.9361 1862.42 43.9361 L1872.88 43.9361 L1872.88 43.2069 Q1872.88 38.0623 1869.47 35.2672 Q1866.11 32.4315 1859.99 32.4315 Q1856.11 32.4315 1852.42 33.3632 Q1848.73 34.295 1845.33 36.1584 L1845.33 29.2718 Q1849.42 27.692 1853.27 26.9223 Q1857.12 26.1121 1860.76 26.1121 Q1870.61 26.1121 1875.47 31.2163 Q1880.33 36.3204 1880.33 46.6907 Z" fill="#000000" fill-rule="nonzero" fill-opacity="1" /><path clip-path="url(#clip330)" d="M1925.54 34.0924 L1925.54 9.54393 L1932.99 9.54393 L1932.99 72.576 L1925.54 72.576 L1925.54 65.7705 Q1923.19 69.8214 1919.58 71.8063 Q1916.02 73.7508 1911 73.7508 Q1902.77 73.7508 1897.59 67.1883 Q1892.44 60.6258 1892.44 49.9314 Q1892.44 39.2371 1897.59 32.6746 Q1902.77 26.1121 1911 26.1121 Q1916.02 26.1121 1919.58 28.0971 Q1923.19 30.0415 1925.54 34.0924 M1900.14 49.9314 Q1900.14 58.1548 1903.5 62.8538 Q1906.9 67.5124 1912.82 67.5124 Q1918.73 67.5124 1922.14 62.8538 Q1925.54 58.1548 1925.54 49.9314 Q1925.54 41.7081 1922.14 37.0496 Q1918.73 32.3505 1912.82 32.3505 Q1906.9 32.3505 1903.5 37.0496 Q1900.14 41.7081 1900.14 49.9314 Z" fill="#000000" fill-rule="nonzero" fill-opacity="1" /><path clip-path="url(#clip330)" d="M2011.3 14.0809 L2011.3 22.0612 Q2006.64 19.8332 2002.51 18.7395 Q1998.37 17.6457 1994.52 17.6457 Q1987.84 17.6457 1984.2 20.2383 Q1980.59 22.8309 1980.59 27.611 Q1980.59 31.6214 1982.98 33.6873 Q1985.41 35.7128 1992.13 36.9686 L1997.08 37.9813 Q2006.23 39.7232 2010.57 44.1387 Q2014.94 48.5136 2014.94 55.8863 Q2014.94 64.6767 2009.03 69.2137 Q2003.15 73.7508 1991.77 73.7508 Q1987.48 73.7508 1982.62 72.7785 Q1977.79 71.8063 1972.61 69.9024 L1972.61 61.4765 Q1977.59 64.2716 1982.37 65.6895 Q1987.15 67.1073 1991.77 67.1073 Q1998.78 67.1073 2002.59 64.3527 Q2006.39 61.598 2006.39 56.4939 Q2006.39 52.0379 2003.64 49.5264 Q2000.93 47.0148 1994.69 45.759 L1989.7 44.7868 Q1980.55 42.9639 1976.46 39.075 Q1972.37 35.1862 1972.37 28.2591 Q1972.37 20.2383 1978 15.6203 Q1983.67 11.0023 1993.59 11.0023 Q1997.85 11.0023 2002.26 11.7719 Q2006.68 12.5416 2011.3 14.0809 Z" fill="#000000" fill-rule="nonzero" fill-opacity="1" /><path clip-path="url(#clip330)" d="M2065.09 45.1919 L2065.09 72.576 L2057.64 72.576 L2057.64 45.4349 Q2057.64 38.994 2055.13 35.7938 Q2052.61 32.5936 2047.59 32.5936 Q2041.56 32.5936 2038.07 36.4419 Q2034.59 40.2903 2034.59 46.9338 L2034.59 72.576 L2027.09 72.576 L2027.09 9.54393 L2034.59 9.54393 L2034.59 34.2544 Q2037.26 30.163 2040.87 28.1376 Q2044.51 26.1121 2049.25 26.1121 Q2057.07 26.1121 2061.08 30.9732 Q2065.09 35.7938 2065.09 45.1919 Z" fill="#000000" fill-rule="nonzero" fill-opacity="1" /><path clip-path="url(#clip330)" d="M2118.77 48.0275 L2118.77 51.6733 L2084.5 51.6733 Q2084.98 59.3701 2089.11 63.421 Q2093.29 67.4314 2100.7 67.4314 Q2104.99 67.4314 2109 66.3781 Q2113.05 65.3249 2117.02 63.2184 L2117.02 70.267 Q2113.01 71.9684 2108.8 72.8596 Q2104.59 73.7508 2100.25 73.7508 Q2089.4 73.7508 2083.04 67.4314 Q2076.72 61.1119 2076.72 50.3365 Q2076.72 39.1965 2082.71 32.6746 Q2088.75 26.1121 2098.96 26.1121 Q2108.11 26.1121 2113.42 32.0264 Q2118.77 37.9003 2118.77 48.0275 M2111.31 45.84 Q2111.23 39.7232 2107.87 36.0774 Q2104.55 32.4315 2099.04 32.4315 Q2092.8 32.4315 2089.03 35.9558 Q2085.31 39.4801 2084.74 45.8805 L2111.31 45.84 Z" fill="#000000" fill-rule="nonzero" fill-opacity="1" /><path clip-path="url(#clip330)" d="M2160.86 34.0924 L2160.86 9.54393 L2168.31 9.54393 L2168.31 72.576 L2160.86 72.576 L2160.86 65.7705 Q2158.51 69.8214 2154.9 71.8063 Q2151.34 73.7508 2146.31 73.7508 Q2138.09 73.7508 2132.9 67.1883 Q2127.76 60.6258 2127.76 49.9314 Q2127.76 39.2371 2132.9 32.6746 Q2138.09 26.1121 2146.31 26.1121 Q2151.34 26.1121 2154.9 28.0971 Q2158.51 30.0415 2160.86 34.0924 M2135.46 49.9314 Q2135.46 58.1548 2138.82 62.8538 Q2142.22 67.5124 2148.14 67.5124 Q2154.05 67.5124 2157.45 62.8538 Q2160.86 58.1548 2160.86 49.9314 Q2160.86 41.7081 2157.45 37.0496 Q2154.05 32.3505 2148.14 32.3505 Q2142.22 32.3505 2138.82 37.0496 Q2135.46 41.7081 2135.46 49.9314 Z" fill="#000000" fill-rule="nonzero" fill-opacity="1" /><path clip-path="url(#clip330)" d="M2217.24 65.7705 L2217.24 89.8329 L2209.75 89.8329 L2209.75 27.2059 L2217.24 27.2059 L2217.24 34.0924 Q2219.59 30.0415 2223.16 28.0971 Q2226.76 26.1121 2231.75 26.1121 Q2240.01 26.1121 2245.15 32.6746 Q2250.34 39.2371 2250.34 49.9314 Q2250.34 60.6258 2245.15 67.1883 Q2240.01 73.7508 2231.75 73.7508 Q2226.76 73.7508 2223.16 71.8063 Q2219.59 69.8214 2217.24 65.7705 M2242.6 49.9314 Q2242.6 41.7081 2239.2 37.0496 Q2235.84 32.3505 2229.92 32.3505 Q2224.01 32.3505 2220.61 37.0496 Q2217.24 41.7081 2217.24 49.9314 Q2217.24 58.1548 2220.61 62.8538 Q2224.01 67.5124 2229.92 67.5124 Q2235.84 67.5124 2239.2 62.8538 Q2242.6 58.1548 2242.6 49.9314 Z" fill="#000000" fill-rule="nonzero" fill-opacity="1" /><path clip-path="url(#clip330)" d="M2301.5 48.0275 L2301.5 51.6733 L2267.23 51.6733 Q2267.72 59.3701 2271.85 63.421 Q2276.02 67.4314 2283.44 67.4314 Q2287.73 67.4314 2291.74 66.3781 Q2295.79 65.3249 2299.76 63.2184 L2299.76 70.267 Q2295.75 71.9684 2291.54 72.8596 Q2287.32 73.7508 2282.99 73.7508 Q2272.13 73.7508 2265.77 67.4314 Q2259.45 61.1119 2259.45 50.3365 Q2259.45 39.1965 2265.45 32.6746 Q2271.49 26.1121 2281.69 26.1121 Q2290.85 26.1121 2296.16 32.0264 Q2301.5 37.9003 2301.5 48.0275 M2294.05 45.84 Q2293.97 39.7232 2290.61 36.0774 Q2287.28 32.4315 2281.77 32.4315 Q2275.54 32.4315 2271.77 35.9558 Q2268.04 39.4801 2267.47 45.8805 L2294.05 45.84 Z" fill="#000000" fill-rule="nonzero" fill-opacity="1" /><path clip-path="url(#clip330)" d="M2340.03 34.1734 Q2338.77 33.4443 2337.27 33.1202 Q2335.81 32.7556 2334.03 32.7556 Q2327.71 32.7556 2324.31 36.8875 Q2320.95 40.9789 2320.95 48.6757 L2320.95 72.576 L2313.45 72.576 L2313.45 27.2059 L2320.95 27.2059 L2320.95 34.2544 Q2323.3 30.1225 2327.06 28.1376 Q2330.83 26.1121 2336.22 26.1121 Q2336.99 26.1121 2337.92 26.2337 Q2338.85 26.3147 2339.99 26.5172 L2340.03 34.1734 Z" fill="#000000" fill-rule="nonzero" fill-opacity="1" /><path clip-path="url(#clip330)" d="M2382.72 43.6931 L2382.72 65.8515 L2395.85 65.8515 Q2402.45 65.8515 2405.61 63.1374 Q2408.81 60.3828 2408.81 54.752 Q2408.81 49.0808 2405.61 46.4072 Q2402.45 43.6931 2395.85 43.6931 L2382.72 43.6931 M2382.72 18.8205 L2382.72 37.0496 L2394.84 37.0496 Q2400.83 37.0496 2403.75 34.8216 Q2406.7 32.5531 2406.7 27.935 Q2406.7 23.3575 2403.75 21.089 Q2400.83 18.8205 2394.84 18.8205 L2382.72 18.8205 M2374.54 12.096 L2395.44 12.096 Q2404.8 12.096 2409.86 15.9849 Q2414.93 19.8737 2414.93 27.0438 Q2414.93 32.5936 2412.34 35.8748 Q2409.74 39.156 2404.72 39.9662 Q2410.76 41.2625 2414.08 45.3944 Q2417.44 49.4858 2417.44 55.6432 Q2417.44 63.745 2411.93 68.1605 Q2406.42 72.576 2396.25 72.576 L2374.54 72.576 L2374.54 12.096 Z" fill="#000000" fill-rule="nonzero" fill-opacity="1" /><path clip-path="url(#clip330)" d="M2430.36 54.671 L2430.36 27.2059 L2437.82 27.2059 L2437.82 54.3874 Q2437.82 60.8284 2440.33 64.0691 Q2442.84 67.2693 2447.86 67.2693 Q2453.9 67.2693 2457.38 63.421 Q2460.91 59.5726 2460.91 52.9291 L2460.91 27.2059 L2468.36 27.2059 L2468.36 72.576 L2460.91 72.576 L2460.91 65.6084 Q2458.19 69.7404 2454.59 71.7658 Q2451.02 73.7508 2446.28 73.7508 Q2438.46 73.7508 2434.41 68.8897 Q2430.36 64.0286 2430.36 54.671 M2449.12 26.1121 L2449.12 26.1121 Z" fill="#000000" fill-rule="nonzero" fill-opacity="1" /><path clip-path="url(#clip330)" d="M2512.64 28.5427 L2512.64 35.5912 Q2509.48 33.9709 2506.07 33.1607 Q2502.67 32.3505 2499.02 32.3505 Q2493.47 32.3505 2490.68 34.0519 Q2487.93 35.7533 2487.93 39.156 Q2487.93 41.7486 2489.91 43.2475 Q2491.89 44.7058 2497.89 46.0426 L2500.44 46.6097 Q2508.38 48.3111 2511.7 51.4303 Q2515.07 54.509 2515.07 60.0587 Q2515.07 66.3781 2510.04 70.0644 Q2505.06 73.7508 2496.31 73.7508 Q2492.66 73.7508 2488.69 73.0216 Q2484.77 72.3329 2480.39 70.9151 L2480.39 63.2184 Q2484.52 65.3654 2488.53 66.4591 Q2492.54 67.5124 2496.47 67.5124 Q2501.74 67.5124 2504.57 65.73 Q2507.41 63.9071 2507.41 60.6258 Q2507.41 57.5877 2505.34 55.9673 Q2503.32 54.3469 2496.39 52.8481 L2493.8 52.2405 Q2486.87 50.7821 2483.79 47.7845 Q2480.71 44.7463 2480.71 39.4801 Q2480.71 33.0797 2485.25 29.5959 Q2489.79 26.1121 2498.13 26.1121 Q2502.27 26.1121 2505.91 26.7198 Q2509.56 27.3274 2512.64 28.5427 Z" fill="#000000" fill-rule="nonzero" fill-opacity="1" /><path clip-path="url(#clip330)" d="M2528.84 62.2867 L2537.39 62.2867 L2537.39 72.576 L2528.84 72.576 L2528.84 62.2867 M2528.84 29.6769 L2537.39 29.6769 L2537.39 39.9662 L2528.84 39.9662 L2528.84 29.6769 Z" fill="#000000" fill-rule="nonzero" fill-opacity="1" /><path clip-path="url(#clip330)" d="M2616.58 35.9153 Q2619.38 30.8922 2623.27 28.5022 Q2627.15 26.1121 2632.42 26.1121 Q2639.51 26.1121 2643.36 31.0947 Q2647.21 36.0368 2647.21 45.1919 L2647.21 72.576 L2639.71 72.576 L2639.71 45.4349 Q2639.71 38.913 2637.4 35.7533 Q2635.09 32.5936 2630.35 32.5936 Q2624.56 32.5936 2621.2 36.4419 Q2617.84 40.2903 2617.84 46.9338 L2617.84 72.576 L2610.34 72.576 L2610.34 45.4349 Q2610.34 38.8725 2608.03 35.7533 Q2605.73 32.5936 2600.9 32.5936 Q2595.19 32.5936 2591.83 36.4824 Q2588.47 40.3308 2588.47 46.9338 L2588.47 72.576 L2580.97 72.576 L2580.97 27.2059 L2588.47 27.2059 L2588.47 34.2544 Q2591.02 30.082 2594.59 28.0971 Q2598.15 26.1121 2603.05 26.1121 Q2607.99 26.1121 2611.44 28.6237 Q2614.92 31.1352 2616.58 35.9153 Z" fill="#000000" fill-rule="nonzero" fill-opacity="1" /><path clip-path="url(#clip330)" d="M2679.65 32.4315 Q2673.66 32.4315 2670.18 37.1306 Q2666.69 41.7891 2666.69 49.9314 Q2666.69 58.0738 2670.13 62.7728 Q2673.62 67.4314 2679.65 67.4314 Q2685.61 67.4314 2689.09 62.7323 Q2692.58 58.0333 2692.58 49.9314 Q2692.58 41.8701 2689.09 37.1711 Q2685.61 32.4315 2679.65 32.4315 M2679.65 26.1121 Q2689.38 26.1121 2694.93 32.4315 Q2700.48 38.7509 2700.48 49.9314 Q2700.48 61.0714 2694.93 67.4314 Q2689.38 73.7508 2679.65 73.7508 Q2669.89 73.7508 2664.34 67.4314 Q2658.83 61.0714 2658.83 49.9314 Q2658.83 38.7509 2664.34 32.4315 Q2669.89 26.1121 2679.65 26.1121 Z" fill="#000000" fill-rule="nonzero" fill-opacity="1" /><path clip-path="url(#clip330)" d="M2720.2 14.324 L2720.2 27.2059 L2735.56 27.2059 L2735.56 32.9987 L2720.2 32.9987 L2720.2 57.6282 Q2720.2 63.1779 2721.7 64.7578 Q2723.24 66.3376 2727.9 66.3376 L2735.56 66.3376 L2735.56 72.576 L2727.9 72.576 Q2719.27 72.576 2715.99 69.3758 Q2712.71 66.1351 2712.71 57.6282 L2712.71 32.9987 L2707.24 32.9987 L2707.24 27.2059 L2712.71 27.2059 L2712.71 14.324 L2720.2 14.324 Z" fill="#000000" fill-rule="nonzero" fill-opacity="1" /><path clip-path="url(#clip330)" d="M2745.36 27.2059 L2752.81 27.2059 L2752.81 72.576 L2745.36 72.576 L2745.36 27.2059 M2745.36 9.54393 L2752.81 9.54393 L2752.81 18.9825 L2745.36 18.9825 L2745.36 9.54393 Z" fill="#000000" fill-rule="nonzero" fill-opacity="1" /><path clip-path="url(#clip330)" d="M2763.06 27.2059 L2770.96 27.2059 L2785.14 65.2844 L2799.32 27.2059 L2807.22 27.2059 L2790.2 72.576 L2780.08 72.576 L2763.06 27.2059 Z" fill="#000000" fill-rule="nonzero" fill-opacity="1" /><path clip-path="url(#clip330)" d="M2838.13 49.7694 Q2829.09 49.7694 2825.61 51.8354 Q2822.12 53.9013 2822.12 58.8839 Q2822.12 62.8538 2824.72 65.2034 Q2827.35 67.5124 2831.85 67.5124 Q2838.04 67.5124 2841.77 63.1374 Q2845.54 58.7219 2845.54 51.4303 L2845.54 49.7694 L2838.13 49.7694 M2852.99 46.6907 L2852.99 72.576 L2845.54 72.576 L2845.54 65.6895 Q2842.99 69.8214 2839.18 71.8063 Q2835.37 73.7508 2829.86 73.7508 Q2822.89 73.7508 2818.76 69.8619 Q2814.67 65.9325 2814.67 59.3701 Q2814.67 51.7138 2819.78 47.825 Q2824.92 43.9361 2835.09 43.9361 L2845.54 43.9361 L2845.54 43.2069 Q2845.54 38.0623 2842.14 35.2672 Q2838.77 32.4315 2832.66 32.4315 Q2828.77 32.4315 2825.08 33.3632 Q2821.4 34.295 2817.99 36.1584 L2817.99 29.2718 Q2822.08 27.692 2825.93 26.9223 Q2829.78 26.1121 2833.43 26.1121 Q2843.27 26.1121 2848.13 31.2163 Q2852.99 36.3204 2852.99 46.6907 Z" fill="#000000" fill-rule="nonzero" fill-opacity="1" /><path clip-path="url(#clip330)" d="M2875.72 14.324 L2875.72 27.2059 L2891.07 27.2059 L2891.07 32.9987 L2875.72 32.9987 L2875.72 57.6282 Q2875.72 63.1779 2877.22 64.7578 Q2878.76 66.3376 2883.41 66.3376 L2891.07 66.3376 L2891.07 72.576 L2883.41 72.576 Q2874.79 72.576 2871.51 69.3758 Q2868.22 66.1351 2868.22 57.6282 L2868.22 32.9987 L2862.76 32.9987 L2862.76 27.2059 L2868.22 27.2059 L2868.22 14.324 L2875.72 14.324 Z" fill="#000000" fill-rule="nonzero" fill-opacity="1" /><path clip-path="url(#clip330)" d="M2900.87 27.2059 L2908.33 27.2059 L2908.33 72.576 L2900.87 72.576 L2900.87 27.2059 M2900.87 9.54393 L2908.33 9.54393 L2908.33 18.9825 L2900.87 18.9825 L2900.87 9.54393 Z" fill="#000000" fill-rule="nonzero" fill-opacity="1" /><path clip-path="url(#clip330)" d="M2941.5 32.4315 Q2935.51 32.4315 2932.03 37.1306 Q2928.54 41.7891 2928.54 49.9314 Q2928.54 58.0738 2931.99 62.7728 Q2935.47 67.4314 2941.5 67.4314 Q2947.46 67.4314 2950.94 62.7323 Q2954.43 58.0333 2954.43 49.9314 Q2954.43 41.8701 2950.94 37.1711 Q2947.46 32.4315 2941.5 32.4315 M2941.5 26.1121 Q2951.23 26.1121 2956.78 32.4315 Q2962.33 38.7509 2962.33 49.9314 Q2962.33 61.0714 2956.78 67.4314 Q2951.23 73.7508 2941.5 73.7508 Q2931.74 73.7508 2926.19 67.4314 Q2920.68 61.0714 2920.68 49.9314 Q2920.68 38.7509 2926.19 32.4315 Q2931.74 26.1121 2941.5 26.1121 Z" fill="#000000" fill-rule="nonzero" fill-opacity="1" /><path clip-path="url(#clip330)" d="M3012.4 45.1919 L3012.4 72.576 L3004.94 72.576 L3004.94 45.4349 Q3004.94 38.994 3002.43 35.7938 Q2999.92 32.5936 2994.9 32.5936 Q2988.86 32.5936 2985.38 36.4419 Q2981.89 40.2903 2981.89 46.9338 L2981.89 72.576 L2974.4 72.576 L2974.4 27.2059 L2981.89 27.2059 L2981.89 34.2544 Q2984.57 30.163 2988.17 28.1376 Q2991.82 26.1121 2996.56 26.1121 Q3004.37 26.1121 3008.39 30.9732 Q3012.4 35.7938 3012.4 45.1919 Z" fill="#000000" fill-rule="nonzero" fill-opacity="1" /><path clip-path="url(#clip330)" d="M3061.74 86.3491 L3061.74 92.1419 L3018.63 92.1419 L3018.63 86.3491 L3061.74 86.3491 Z" fill="#000000" fill-rule="nonzero" fill-opacity="1" /><path clip-path="url(#clip330)" d="M3101.39 28.9478 L3101.39 35.9153 Q3098.23 34.1734 3095.03 33.3227 Q3091.87 32.4315 3088.63 32.4315 Q3081.38 32.4315 3077.37 37.0496 Q3073.36 41.6271 3073.36 49.9314 Q3073.36 58.2358 3077.37 62.8538 Q3081.38 67.4314 3088.63 67.4314 Q3091.87 67.4314 3095.03 66.5807 Q3098.23 65.6895 3101.39 63.9476 L3101.39 70.8341 Q3098.27 72.2924 3094.91 73.0216 Q3091.59 73.7508 3087.82 73.7508 Q3077.57 73.7508 3071.54 67.3098 Q3065.5 60.8689 3065.5 49.9314 Q3065.5 38.832 3071.58 32.472 Q3077.7 26.1121 3088.31 26.1121 Q3091.75 26.1121 3095.03 26.8413 Q3098.32 27.5299 3101.39 28.9478 Z" fill="#000000" fill-rule="nonzero" fill-opacity="1" /><path clip-path="url(#clip332)" d="M579.345 171.344 L579.345 1992.94 L837.345 1992.94 L837.345 171.344 L579.345 171.344 L579.345 171.344  Z" fill="#cc7299" fill-rule="evenodd" fill-opacity="1"/>
<polyline clip-path="url(#clip332)" style="stroke:#000000; stroke-linecap:round; stroke-linejoin:round; stroke-width:4; stroke-opacity:1; fill:none" points="579.345,171.344 579.345,1992.94 837.345,1992.94 837.345,171.344 579.345,171.344 "/>
<path clip-path="url(#clip332)" d="M937.678 171.344 L937.678 1992.94 L1195.68 1992.94 L1195.68 171.344 L937.678 171.344 L937.678 171.344  Z" fill="#cc7299" fill-rule="evenodd" fill-opacity="1"/>
<polyline clip-path="url(#clip332)" style="stroke:#000000; stroke-linecap:round; stroke-linejoin:round; stroke-width:4; stroke-opacity:1; fill:none" points="937.678,171.344 937.678,1992.94 1195.68,1992.94 1195.68,171.344 937.678,171.344 "/>
<path clip-path="url(#clip332)" d="M1296.01 171.344 L1296.01 1992.94 L1554.01 1992.94 L1554.01 171.344 L1296.01 171.344 L1296.01 171.344  Z" fill="#cc7299" fill-rule="evenodd" fill-opacity="1"/>
<polyline clip-path="url(#clip332)" style="stroke:#000000; stroke-linecap:round; stroke-linejoin:round; stroke-width:4; stroke-opacity:1; fill:none" points="1296.01,171.344 1296.01,1992.94 1554.01,1992.94 1554.01,171.344 1296.01,171.344 "/>
<path clip-path="url(#clip332)" d="M1654.34 171.344 L1654.34 1992.94 L1912.34 1992.94 L1912.34 171.344 L1654.34 171.344 L1654.34 171.344  Z" fill="#cc7299" fill-rule="evenodd" fill-opacity="1"/>
<polyline clip-path="url(#clip332)" style="stroke:#000000; stroke-linecap:round; stroke-linejoin:round; stroke-width:4; stroke-opacity:1; fill:none" points="1654.34,171.344 1654.34,1992.94 1912.34,1992.94 1912.34,171.344 1654.34,171.344 "/>
<path clip-path="url(#clip332)" d="M2012.67 171.344 L2012.67 1992.94 L2270.67 1992.94 L2270.67 171.344 L2012.67 171.344 L2012.67 171.344  Z" fill="#cc7299" fill-rule="evenodd" fill-opacity="1"/>
<polyline clip-path="url(#clip332)" style="stroke:#000000; stroke-linecap:round; stroke-linejoin:round; stroke-width:4; stroke-opacity:1; fill:none" points="2012.67,171.344 2012.67,1992.94 2270.67,1992.94 2270.67,171.344 2012.67,171.344 "/>
<path clip-path="url(#clip332)" d="M2371.01 171.344 L2371.01 1992.94 L2629.01 1992.94 L2629.01 171.344 L2371.01 171.344 L2371.01 171.344  Z" fill="#cc7299" fill-rule="evenodd" fill-opacity="1"/>
<polyline clip-path="url(#clip332)" style="stroke:#000000; stroke-linecap:round; stroke-linejoin:round; stroke-width:4; stroke-opacity:1; fill:none" points="2371.01,171.344 2371.01,1992.94 2629.01,1992.94 2629.01,171.344 2371.01,171.344 "/>
<path clip-path="url(#clip332)" d="M2729.34 171.344 L2729.34 1992.94 L2987.34 1992.94 L2987.34 171.344 L2729.34 171.344 L2729.34 171.344  Z" fill="#cc7299" fill-rule="evenodd" fill-opacity="1"/>
<polyline clip-path="url(#clip332)" style="stroke:#000000; stroke-linecap:round; stroke-linejoin:round; stroke-width:4; stroke-opacity:1; fill:none" points="2729.34,171.344 2729.34,1992.94 2987.34,1992.94 2987.34,171.344 2729.34,171.344 "/>
<path clip-path="url(#clip332)" d="M3087.67 1992.94 L3087.67 1992.94 L3345.67 1992.94 L3345.67 1992.94 L3087.67 1992.94 L3087.67 1992.94  Z" fill="#cc7299" fill-rule="evenodd" fill-opacity="1"/>
<polyline clip-path="url(#clip332)" style="stroke:#000000; stroke-linecap:round; stroke-linejoin:round; stroke-width:4; stroke-opacity:1; fill:none" points="3087.67,1992.94 3087.67,1992.94 3345.67,1992.94 3087.67,1992.94 "/>
<path clip-path="url(#clip332)" d="M3446 171.344 L3446 1992.94 L3704 1992.94 L3704 171.344 L3446 171.344 L3446 171.344  Z" fill="#cc7299" fill-rule="evenodd" fill-opacity="1"/>
<polyline clip-path="url(#clip332)" style="stroke:#000000; stroke-linecap:round; stroke-linejoin:round; stroke-width:4; stroke-opacity:1; fill:none" points="3446,171.344 3446,1992.94 3704,1992.94 3704,171.344 3446,171.344 "/>
<circle clip-path="url(#clip332)" style="fill:#cc7299; stroke:none; fill-opacity:0" cx="708.345" cy="171.344" r="2"/>
<circle clip-path="url(#clip332)" style="fill:#cc7299; stroke:none; fill-opacity:0" cx="1066.68" cy="171.344" r="2"/>
<circle clip-path="url(#clip332)" style="fill:#cc7299; stroke:none; fill-opacity:0" cx="1425.01" cy="171.344" r="2"/>
<circle clip-path="url(#clip332)" style="fill:#cc7299; stroke:none; fill-opacity:0" cx="1783.34" cy="171.344" r="2"/>
<circle clip-path="url(#clip332)" style="fill:#cc7299; stroke:none; fill-opacity:0" cx="2141.67" cy="171.344" r="2"/>
<circle clip-path="url(#clip332)" style="fill:#cc7299; stroke:none; fill-opacity:0" cx="2500.01" cy="171.344" r="2"/>
<circle clip-path="url(#clip332)" style="fill:#cc7299; stroke:none; fill-opacity:0" cx="2858.34" cy="171.344" r="2"/>
<circle clip-path="url(#clip332)" style="fill:#cc7299; stroke:none; fill-opacity:0" cx="3216.67" cy="1992.94" r="2"/>
<circle clip-path="url(#clip332)" style="fill:#cc7299; stroke:none; fill-opacity:0" cx="3575" cy="171.344" r="2"/>
<path clip-path="url(#clip330)" d="M4042.66 335.744 L4752.76 335.744 L4752.76 232.064 L4042.66 232.064  Z" fill="#ffffff" fill-rule="evenodd" fill-opacity="1"/>
<polyline clip-path="url(#clip330)" style="stroke:#000000; stroke-linecap:round; stroke-linejoin:round; stroke-width:4; stroke-opacity:1; fill:none" points="4042.66,335.744 4752.76,335.744 4752.76,232.064 4042.66,232.064 4042.66,335.744 "/>
<path clip-path="url(#clip330)" d="M4091.17 304.64 L4382.27 304.64 L4382.27 263.168 L4091.17 263.168 L4091.17 304.64  Z" fill="#cc7299" fill-rule="evenodd" fill-opacity="1"/>
<polyline clip-path="url(#clip330)" style="stroke:#000000; stroke-linecap:round; stroke-linejoin:round; stroke-width:4; stroke-opacity:1; fill:none" points="4091.17,304.64 4382.27,304.64 4382.27,263.168 4091.17,263.168 4091.17,304.64 "/>
<path clip-path="url(#clip330)" d="M4435.47 270.467 L4435.47 283.453 L4441.35 283.453 Q4444.61 283.453 4446.39 281.763 Q4448.18 280.073 4448.18 276.948 Q4448.18 273.846 4446.39 272.156 Q4444.61 270.467 4441.35 270.467 L4435.47 270.467 M4430.79 266.624 L4441.35 266.624 Q4447.16 266.624 4450.12 269.263 Q4453.11 271.879 4453.11 276.948 Q4453.11 282.064 4450.12 284.68 Q4447.16 287.295 4441.35 287.295 L4435.47 287.295 L4435.47 301.184 L4430.79 301.184 L4430.79 266.624 Z" fill="#000000" fill-rule="nonzero" fill-opacity="1" /><path clip-path="url(#clip330)" d="M4468.85 288.152 Q4463.68 288.152 4461.69 289.332 Q4459.7 290.513 4459.7 293.36 Q4459.7 295.629 4461.18 296.971 Q4462.69 298.291 4465.26 298.291 Q4468.8 298.291 4470.93 295.791 Q4473.08 293.267 4473.08 289.101 L4473.08 288.152 L4468.85 288.152 M4477.34 286.392 L4477.34 301.184 L4473.08 301.184 L4473.08 297.249 Q4471.62 299.61 4469.45 300.744 Q4467.27 301.855 4464.12 301.855 Q4460.14 301.855 4457.78 299.633 Q4455.44 297.388 4455.44 293.638 Q4455.44 289.263 4458.36 287.041 Q4461.3 284.818 4467.11 284.818 L4473.08 284.818 L4473.08 284.402 Q4473.08 281.462 4471.14 279.865 Q4469.22 278.244 4465.72 278.244 Q4463.5 278.244 4461.39 278.777 Q4459.29 279.309 4457.34 280.374 L4457.34 276.439 Q4459.68 275.536 4461.88 275.096 Q4464.08 274.633 4466.16 274.633 Q4471.79 274.633 4474.56 277.55 Q4477.34 280.467 4477.34 286.392 Z" fill="#000000" fill-rule="nonzero" fill-opacity="1" /><path clip-path="url(#clip330)" d="M4486.12 265.166 L4490.37 265.166 L4490.37 301.184 L4486.12 301.184 L4486.12 265.166 Z" fill="#000000" fill-rule="nonzero" fill-opacity="1" /><path clip-path="url(#clip330)" d="M4519.47 280.235 Q4521.07 277.365 4523.29 275.999 Q4525.51 274.633 4528.52 274.633 Q4532.57 274.633 4534.77 277.481 Q4536.97 280.305 4536.97 285.536 L4536.97 301.184 L4532.69 301.184 L4532.69 285.675 Q4532.69 281.948 4531.37 280.143 Q4530.05 278.337 4527.34 278.337 Q4524.03 278.337 4522.11 280.536 Q4520.19 282.735 4520.19 286.531 L4520.19 301.184 L4515.91 301.184 L4515.91 285.675 Q4515.91 281.925 4514.59 280.143 Q4513.27 278.337 4510.51 278.337 Q4507.25 278.337 4505.33 280.559 Q4503.41 282.758 4503.41 286.531 L4503.41 301.184 L4499.12 301.184 L4499.12 275.258 L4503.41 275.258 L4503.41 279.286 Q4504.87 276.902 4506.9 275.768 Q4508.94 274.633 4511.74 274.633 Q4514.56 274.633 4516.53 276.068 Q4518.52 277.504 4519.47 280.235 Z" fill="#000000" fill-rule="nonzero" fill-opacity="1" /><path clip-path="url(#clip330)" d="M4557.25 288.152 Q4552.09 288.152 4550.1 289.332 Q4548.11 290.513 4548.11 293.36 Q4548.11 295.629 4549.59 296.971 Q4551.09 298.291 4553.66 298.291 Q4557.2 298.291 4559.33 295.791 Q4561.49 293.267 4561.49 289.101 L4561.49 288.152 L4557.25 288.152 M4565.74 286.392 L4565.74 301.184 L4561.49 301.184 L4561.49 297.249 Q4560.03 299.61 4557.85 300.744 Q4555.68 301.855 4552.53 301.855 Q4548.55 301.855 4546.18 299.633 Q4543.85 297.388 4543.85 293.638 Q4543.85 289.263 4546.76 287.041 Q4549.7 284.818 4555.51 284.818 L4561.49 284.818 L4561.49 284.402 Q4561.49 281.462 4559.54 279.865 Q4557.62 278.244 4554.12 278.244 Q4551.9 278.244 4549.8 278.777 Q4547.69 279.309 4545.74 280.374 L4545.74 276.439 Q4548.08 275.536 4550.28 275.096 Q4552.48 274.633 4554.56 274.633 Q4560.19 274.633 4562.97 277.55 Q4565.74 280.467 4565.74 286.392 Z" fill="#000000" fill-rule="nonzero" fill-opacity="1" /><path clip-path="url(#clip330)" d="M4606.16 284.98 Q4607.67 285.49 4609.08 287.156 Q4610.51 288.823 4611.95 291.74 L4616.69 301.184 L4611.67 301.184 L4607.25 292.318 Q4605.54 288.846 4603.92 287.712 Q4602.32 286.578 4599.54 286.578 L4594.45 286.578 L4594.45 301.184 L4589.77 301.184 L4589.77 266.624 L4600.33 266.624 Q4606.25 266.624 4609.17 269.101 Q4612.09 271.578 4612.09 276.578 Q4612.09 279.842 4610.56 281.994 Q4609.05 284.147 4606.16 284.98 M4594.45 270.467 L4594.45 282.735 L4600.33 282.735 Q4603.71 282.735 4605.42 281.184 Q4607.16 279.61 4607.16 276.578 Q4607.16 273.545 4605.42 272.018 Q4603.71 270.467 4600.33 270.467 L4594.45 270.467 Z" fill="#000000" fill-rule="nonzero" fill-opacity="1" /><path clip-path="url(#clip330)" d="M4633.27 288.152 Q4628.11 288.152 4626.11 289.332 Q4624.12 290.513 4624.12 293.36 Q4624.12 295.629 4625.61 296.971 Q4627.11 298.291 4629.68 298.291 Q4633.22 298.291 4635.35 295.791 Q4637.5 293.267 4637.5 289.101 L4637.5 288.152 L4633.27 288.152 M4641.76 286.392 L4641.76 301.184 L4637.5 301.184 L4637.5 297.249 Q4636.05 299.61 4633.87 300.744 Q4631.69 301.855 4628.55 301.855 Q4624.56 301.855 4622.2 299.633 Q4619.86 297.388 4619.86 293.638 Q4619.86 289.263 4622.78 287.041 Q4625.72 284.818 4631.53 284.818 L4637.5 284.818 L4637.5 284.402 Q4637.5 281.462 4635.56 279.865 Q4633.64 278.244 4630.14 278.244 Q4627.92 278.244 4625.81 278.777 Q4623.71 279.309 4621.76 280.374 L4621.76 276.439 Q4624.1 275.536 4626.3 275.096 Q4628.5 274.633 4630.58 274.633 Q4636.21 274.633 4638.98 277.55 Q4641.76 280.467 4641.76 286.392 Z" fill="#000000" fill-rule="nonzero" fill-opacity="1" /><path clip-path="url(#clip330)" d="M4654.75 267.897 L4654.75 275.258 L4663.52 275.258 L4663.52 278.568 L4654.75 278.568 L4654.75 292.642 Q4654.75 295.814 4655.61 296.717 Q4656.48 297.619 4659.15 297.619 L4663.52 297.619 L4663.52 301.184 L4659.15 301.184 Q4654.22 301.184 4652.34 299.355 Q4650.47 297.504 4650.47 292.642 L4650.47 278.568 L4647.34 278.568 L4647.34 275.258 L4650.47 275.258 L4650.47 267.897 L4654.75 267.897 Z" fill="#000000" fill-rule="nonzero" fill-opacity="1" /><path clip-path="url(#clip330)" d="M4669.12 275.258 L4673.38 275.258 L4673.38 301.184 L4669.12 301.184 L4669.12 275.258 M4669.12 265.166 L4673.38 265.166 L4673.38 270.559 L4669.12 270.559 L4669.12 265.166 Z" fill="#000000" fill-rule="nonzero" fill-opacity="1" /><path clip-path="url(#clip330)" d="M4692.34 278.244 Q4688.92 278.244 4686.92 280.93 Q4684.93 283.592 4684.93 288.244 Q4684.93 292.897 4686.9 295.582 Q4688.89 298.244 4692.34 298.244 Q4695.74 298.244 4697.73 295.559 Q4699.73 292.874 4699.73 288.244 Q4699.73 283.638 4697.73 280.953 Q4695.74 278.244 4692.34 278.244 M4692.34 274.633 Q4697.9 274.633 4701.07 278.244 Q4704.24 281.855 4704.24 288.244 Q4704.24 294.61 4701.07 298.244 Q4697.9 301.855 4692.34 301.855 Q4686.76 301.855 4683.59 298.244 Q4680.44 294.61 4680.44 288.244 Q4680.44 281.855 4683.59 278.244 Q4686.76 274.633 4692.34 274.633 Z" fill="#000000" fill-rule="nonzero" fill-opacity="1" /></svg>
