<?xml version="1.0" encoding="utf-8"?>
<svg xmlns="http://www.w3.org/2000/svg" xmlns:xlink="http://www.w3.org/1999/xlink" width="600" height="400" viewBox="0 0 2400 1600">
<defs>
  <clipPath id="clip580">
    <rect x="0" y="0" width="2400" height="1600"/>
  </clipPath>
</defs>
<path clip-path="url(#clip580)" d="M0 1600 L2400 1600 L2400 0 L0 0  Z" fill="#ffffff" fill-rule="evenodd" fill-opacity="1"/>
<defs>
  <clipPath id="clip581">
    <rect x="480" y="0" width="1681" height="1600"/>
  </clipPath>
</defs>
<path clip-path="url(#clip580)" d="M262.551 1423.18 L2289.76 1423.18 L2289.76 186.464 L262.551 186.464  Z" fill="#ffffff" fill-rule="evenodd" fill-opacity="1"/>
<defs>
  <clipPath id="clip582">
    <rect x="262" y="186" width="2028" height="1238"/>
  </clipPath>
</defs>
<polyline clip-path="url(#clip582)" style="stroke:#000000; stroke-linecap:round; stroke-linejoin:round; stroke-width:2; stroke-opacity:0.1; fill:none" points="426.348,1423.18 426.348,186.464 "/>
<polyline clip-path="url(#clip582)" style="stroke:#000000; stroke-linecap:round; stroke-linejoin:round; stroke-width:2; stroke-opacity:0.1; fill:none" points="557.088,1423.18 557.088,186.464 "/>
<polyline clip-path="url(#clip582)" style="stroke:#000000; stroke-linecap:round; stroke-linejoin:round; stroke-width:2; stroke-opacity:0.1; fill:none" points="687.828,1423.18 687.828,186.464 "/>
<polyline clip-path="url(#clip582)" style="stroke:#000000; stroke-linecap:round; stroke-linejoin:round; stroke-width:2; stroke-opacity:0.1; fill:none" points="818.568,1423.18 818.568,186.464 "/>
<polyline clip-path="url(#clip582)" style="stroke:#000000; stroke-linecap:round; stroke-linejoin:round; stroke-width:2; stroke-opacity:0.1; fill:none" points="949.308,1423.18 949.308,186.464 "/>
<polyline clip-path="url(#clip582)" style="stroke:#000000; stroke-linecap:round; stroke-linejoin:round; stroke-width:2; stroke-opacity:0.1; fill:none" points="1080.05,1423.18 1080.05,186.464 "/>
<polyline clip-path="url(#clip582)" style="stroke:#000000; stroke-linecap:round; stroke-linejoin:round; stroke-width:2; stroke-opacity:0.1; fill:none" points="1210.79,1423.18 1210.79,186.464 "/>
<polyline clip-path="url(#clip582)" style="stroke:#000000; stroke-linecap:round; stroke-linejoin:round; stroke-width:2; stroke-opacity:0.1; fill:none" points="1341.53,1423.18 1341.53,186.464 "/>
<polyline clip-path="url(#clip582)" style="stroke:#000000; stroke-linecap:round; stroke-linejoin:round; stroke-width:2; stroke-opacity:0.1; fill:none" points="1472.27,1423.18 1472.27,186.464 "/>
<polyline clip-path="url(#clip582)" style="stroke:#000000; stroke-linecap:round; stroke-linejoin:round; stroke-width:2; stroke-opacity:0.1; fill:none" points="1603.01,1423.18 1603.01,186.464 "/>
<polyline clip-path="url(#clip582)" style="stroke:#000000; stroke-linecap:round; stroke-linejoin:round; stroke-width:2; stroke-opacity:0.1; fill:none" points="1733.75,1423.18 1733.75,186.464 "/>
<polyline clip-path="url(#clip582)" style="stroke:#000000; stroke-linecap:round; stroke-linejoin:round; stroke-width:2; stroke-opacity:0.1; fill:none" points="1864.49,1423.18 1864.49,186.464 "/>
<polyline clip-path="url(#clip582)" style="stroke:#000000; stroke-linecap:round; stroke-linejoin:round; stroke-width:2; stroke-opacity:0.1; fill:none" points="1995.23,1423.18 1995.23,186.464 "/>
<polyline clip-path="url(#clip582)" style="stroke:#000000; stroke-linecap:round; stroke-linejoin:round; stroke-width:2; stroke-opacity:0.1; fill:none" points="2125.97,1423.18 2125.97,186.464 "/>
<polyline clip-path="url(#clip582)" style="stroke:#000000; stroke-linecap:round; stroke-linejoin:round; stroke-width:2; stroke-opacity:0.1; fill:none" points="262.551,1423.18 2289.76,1423.18 "/>
<polyline clip-path="url(#clip582)" style="stroke:#000000; stroke-linecap:round; stroke-linejoin:round; stroke-width:2; stroke-opacity:0.1; fill:none" points="262.551,1136.79 2289.76,1136.79 "/>
<polyline clip-path="url(#clip582)" style="stroke:#000000; stroke-linecap:round; stroke-linejoin:round; stroke-width:2; stroke-opacity:0.1; fill:none" points="262.551,850.399 2289.76,850.399 "/>
<polyline clip-path="url(#clip582)" style="stroke:#000000; stroke-linecap:round; stroke-linejoin:round; stroke-width:2; stroke-opacity:0.1; fill:none" points="262.551,564.009 2289.76,564.009 "/>
<polyline clip-path="url(#clip582)" style="stroke:#000000; stroke-linecap:round; stroke-linejoin:round; stroke-width:2; stroke-opacity:0.1; fill:none" points="262.551,277.619 2289.76,277.619 "/>
<polyline clip-path="url(#clip580)" style="stroke:#000000; stroke-linecap:round; stroke-linejoin:round; stroke-width:4; stroke-opacity:1; fill:none" points="262.551,1423.18 2289.76,1423.18 "/>
<polyline clip-path="url(#clip580)" style="stroke:#000000; stroke-linecap:round; stroke-linejoin:round; stroke-width:4; stroke-opacity:1; fill:none" points="426.348,1423.18 426.348,1404.28 "/>
<polyline clip-path="url(#clip580)" style="stroke:#000000; stroke-linecap:round; stroke-linejoin:round; stroke-width:4; stroke-opacity:1; fill:none" points="557.088,1423.18 557.088,1404.28 "/>
<polyline clip-path="url(#clip580)" style="stroke:#000000; stroke-linecap:round; stroke-linejoin:round; stroke-width:4; stroke-opacity:1; fill:none" points="687.828,1423.18 687.828,1404.28 "/>
<polyline clip-path="url(#clip580)" style="stroke:#000000; stroke-linecap:round; stroke-linejoin:round; stroke-width:4; stroke-opacity:1; fill:none" points="818.568,1423.18 818.568,1404.28 "/>
<polyline clip-path="url(#clip580)" style="stroke:#000000; stroke-linecap:round; stroke-linejoin:round; stroke-width:4; stroke-opacity:1; fill:none" points="949.308,1423.18 949.308,1404.28 "/>
<polyline clip-path="url(#clip580)" style="stroke:#000000; stroke-linecap:round; stroke-linejoin:round; stroke-width:4; stroke-opacity:1; fill:none" points="1080.05,1423.18 1080.05,1404.28 "/>
<polyline clip-path="url(#clip580)" style="stroke:#000000; stroke-linecap:round; stroke-linejoin:round; stroke-width:4; stroke-opacity:1; fill:none" points="1210.79,1423.18 1210.79,1404.28 "/>
<polyline clip-path="url(#clip580)" style="stroke:#000000; stroke-linecap:round; stroke-linejoin:round; stroke-width:4; stroke-opacity:1; fill:none" points="1341.53,1423.18 1341.53,1404.28 "/>
<polyline clip-path="url(#clip580)" style="stroke:#000000; stroke-linecap:round; stroke-linejoin:round; stroke-width:4; stroke-opacity:1; fill:none" points="1472.27,1423.18 1472.27,1404.28 "/>
<polyline clip-path="url(#clip580)" style="stroke:#000000; stroke-linecap:round; stroke-linejoin:round; stroke-width:4; stroke-opacity:1; fill:none" points="1603.01,1423.18 1603.01,1404.28 "/>
<polyline clip-path="url(#clip580)" style="stroke:#000000; stroke-linecap:round; stroke-linejoin:round; stroke-width:4; stroke-opacity:1; fill:none" points="1733.75,1423.18 1733.75,1404.28 "/>
<polyline clip-path="url(#clip580)" style="stroke:#000000; stroke-linecap:round; stroke-linejoin:round; stroke-width:4; stroke-opacity:1; fill:none" points="1864.49,1423.18 1864.49,1404.28 "/>
<polyline clip-path="url(#clip580)" style="stroke:#000000; stroke-linecap:round; stroke-linejoin:round; stroke-width:4; stroke-opacity:1; fill:none" points="1995.23,1423.18 1995.23,1404.28 "/>
<polyline clip-path="url(#clip580)" style="stroke:#000000; stroke-linecap:round; stroke-linejoin:round; stroke-width:4; stroke-opacity:1; fill:none" points="2125.97,1423.18 2125.97,1404.28 "/>
<path clip-path="url(#clip580)" d="M416.625 1451.02 L434.982 1451.02 L434.982 1454.96 L420.908 1454.96 L420.908 1463.43 Q421.926 1463.08 422.945 1462.92 Q423.963 1462.73 424.982 1462.73 Q430.769 1462.73 434.148 1465.9 Q437.528 1469.08 437.528 1474.49 Q437.528 1480.07 434.056 1483.17 Q430.584 1486.25 424.264 1486.25 Q422.088 1486.25 419.82 1485.88 Q417.574 1485.51 415.167 1484.77 L415.167 1480.07 Q417.25 1481.2 419.473 1481.76 Q421.695 1482.32 424.172 1482.32 Q428.176 1482.32 430.514 1480.21 Q432.852 1478.1 432.852 1474.49 Q432.852 1470.88 430.514 1468.77 Q428.176 1466.67 424.172 1466.67 Q422.297 1466.67 420.422 1467.08 Q418.57 1467.5 416.625 1468.38 L416.625 1451.02 Z" fill="#000000" fill-rule="nonzero" fill-opacity="1" /><path clip-path="url(#clip580)" d="M532.574 1481.64 L540.213 1481.64 L540.213 1455.28 L531.902 1456.95 L531.902 1452.69 L540.166 1451.02 L544.842 1451.02 L544.842 1481.64 L552.481 1481.64 L552.481 1485.58 L532.574 1485.58 L532.574 1481.64 Z" fill="#000000" fill-rule="nonzero" fill-opacity="1" /><path clip-path="url(#clip580)" d="M565.953 1481.64 L582.273 1481.64 L582.273 1485.58 L560.328 1485.58 L560.328 1481.64 Q562.99 1478.89 567.574 1474.26 Q572.18 1469.61 573.361 1468.27 Q575.606 1465.74 576.486 1464.01 Q577.388 1462.25 577.388 1460.56 Q577.388 1457.8 575.444 1456.07 Q573.523 1454.33 570.421 1454.33 Q568.222 1454.33 565.768 1455.09 Q563.337 1455.86 560.56 1457.41 L560.56 1452.69 Q563.384 1451.55 565.837 1450.97 Q568.291 1450.39 570.328 1450.39 Q575.699 1450.39 578.893 1453.08 Q582.087 1455.77 582.087 1460.26 Q582.087 1462.39 581.277 1464.31 Q580.49 1466.2 578.384 1468.8 Q577.805 1469.47 574.703 1472.69 Q571.601 1475.88 565.953 1481.64 Z" fill="#000000" fill-rule="nonzero" fill-opacity="1" /><path clip-path="url(#clip580)" d="M687.828 1469.17 Q684.494 1469.17 682.573 1470.95 Q680.675 1472.73 680.675 1475.86 Q680.675 1478.98 682.573 1480.77 Q684.494 1482.55 687.828 1482.55 Q691.161 1482.55 693.082 1480.77 Q695.003 1478.96 695.003 1475.86 Q695.003 1472.73 693.082 1470.95 Q691.184 1469.17 687.828 1469.17 M683.152 1467.18 Q680.142 1466.44 678.453 1464.38 Q676.786 1462.32 676.786 1459.35 Q676.786 1455.21 679.726 1452.8 Q682.689 1450.39 687.828 1450.39 Q692.99 1450.39 695.929 1452.8 Q698.869 1455.21 698.869 1459.35 Q698.869 1462.32 697.179 1464.38 Q695.513 1466.44 692.527 1467.18 Q695.906 1467.96 697.781 1470.26 Q699.679 1472.55 699.679 1475.86 Q699.679 1480.88 696.601 1483.57 Q693.545 1486.25 687.828 1486.25 Q682.11 1486.25 679.031 1483.57 Q675.976 1480.88 675.976 1475.86 Q675.976 1472.55 677.874 1470.26 Q679.772 1467.96 683.152 1467.18 M681.439 1459.79 Q681.439 1462.48 683.105 1463.98 Q684.795 1465.49 687.828 1465.49 Q690.837 1465.49 692.527 1463.98 Q694.24 1462.48 694.24 1459.79 Q694.24 1457.11 692.527 1455.6 Q690.837 1454.1 687.828 1454.1 Q684.795 1454.1 683.105 1455.6 Q681.439 1457.11 681.439 1459.79 Z" fill="#000000" fill-rule="nonzero" fill-opacity="1" /><path clip-path="url(#clip580)" d="M808.95 1481.64 L816.588 1481.64 L816.588 1455.28 L808.278 1456.95 L808.278 1452.69 L816.542 1451.02 L821.218 1451.02 L821.218 1481.64 L828.857 1481.64 L828.857 1485.58 L808.95 1485.58 L808.95 1481.64 Z" fill="#000000" fill-rule="nonzero" fill-opacity="1" /><path clip-path="url(#clip580)" d="M949.713 1466.44 Q946.564 1466.44 944.713 1468.59 Q942.884 1470.74 942.884 1474.49 Q942.884 1478.22 944.713 1480.39 Q946.564 1482.55 949.713 1482.55 Q952.861 1482.55 954.689 1480.39 Q956.541 1478.22 956.541 1474.49 Q956.541 1470.74 954.689 1468.59 Q952.861 1466.44 949.713 1466.44 M958.995 1451.78 L958.995 1456.04 Q957.236 1455.21 955.43 1454.77 Q953.648 1454.33 951.889 1454.33 Q947.259 1454.33 944.805 1457.45 Q942.375 1460.58 942.027 1466.9 Q943.393 1464.89 945.453 1463.82 Q947.514 1462.73 949.99 1462.73 Q955.199 1462.73 958.208 1465.9 Q961.24 1469.05 961.24 1474.49 Q961.24 1479.82 958.092 1483.03 Q954.944 1486.25 949.713 1486.25 Q943.717 1486.25 940.546 1481.67 Q937.375 1477.06 937.375 1468.33 Q937.375 1460.14 941.264 1455.28 Q945.152 1450.39 951.703 1450.39 Q953.463 1450.39 955.245 1450.74 Q957.051 1451.09 958.995 1451.78 Z" fill="#000000" fill-rule="nonzero" fill-opacity="1" /><path clip-path="url(#clip580)" d="M1055.35 1481.64 L1062.99 1481.64 L1062.99 1455.28 L1054.68 1456.95 L1054.68 1452.69 L1062.94 1451.02 L1067.62 1451.02 L1067.62 1481.64 L1075.26 1481.64 L1075.26 1485.58 L1055.35 1485.58 L1055.35 1481.64 Z" fill="#000000" fill-rule="nonzero" fill-opacity="1" /><path clip-path="url(#clip580)" d="M1085.51 1481.64 L1093.15 1481.64 L1093.15 1455.28 L1084.84 1456.95 L1084.84 1452.69 L1093.1 1451.02 L1097.78 1451.02 L1097.78 1481.64 L1105.42 1481.64 L1105.42 1485.58 L1085.51 1485.58 L1085.51 1481.64 Z" fill="#000000" fill-rule="nonzero" fill-opacity="1" /><path clip-path="url(#clip580)" d="M1201.09 1484.86 L1201.09 1480.6 Q1202.85 1481.44 1204.65 1481.88 Q1206.46 1482.32 1208.19 1482.32 Q1212.82 1482.32 1215.26 1479.21 Q1217.71 1476.09 1218.06 1469.75 Q1216.71 1471.74 1214.65 1472.8 Q1212.59 1473.87 1210.09 1473.87 Q1204.91 1473.87 1201.88 1470.74 Q1198.87 1467.59 1198.87 1462.15 Q1198.87 1456.83 1202.01 1453.61 Q1205.16 1450.39 1210.39 1450.39 Q1216.39 1450.39 1219.54 1455 Q1222.71 1459.58 1222.71 1468.33 Q1222.71 1476.51 1218.82 1481.39 Q1214.95 1486.25 1208.4 1486.25 Q1206.64 1486.25 1204.84 1485.9 Q1203.03 1485.56 1201.09 1484.86 M1210.39 1470.21 Q1213.54 1470.21 1215.37 1468.06 Q1217.22 1465.9 1217.22 1462.15 Q1217.22 1458.43 1215.37 1456.27 Q1213.54 1454.1 1210.39 1454.1 Q1207.25 1454.1 1205.39 1456.27 Q1203.57 1458.43 1203.57 1462.15 Q1203.57 1465.9 1205.39 1468.06 Q1207.25 1470.21 1210.39 1470.21 Z" fill="#000000" fill-rule="nonzero" fill-opacity="1" /><path clip-path="url(#clip580)" d="M1315.97 1481.64 L1323.61 1481.64 L1323.61 1455.28 L1315.3 1456.95 L1315.3 1452.69 L1323.56 1451.02 L1328.24 1451.02 L1328.24 1481.64 L1335.88 1481.64 L1335.88 1485.58 L1315.97 1485.58 L1315.97 1481.64 Z" fill="#000000" fill-rule="nonzero" fill-opacity="1" /><path clip-path="url(#clip580)" d="M1358.17 1455.09 L1346.37 1473.54 L1358.17 1473.54 L1358.17 1455.09 M1356.94 1451.02 L1362.82 1451.02 L1362.82 1473.54 L1367.75 1473.54 L1367.75 1477.43 L1362.82 1477.43 L1362.82 1485.58 L1358.17 1485.58 L1358.17 1477.43 L1342.57 1477.43 L1342.57 1472.92 L1356.94 1451.02 Z" fill="#000000" fill-rule="nonzero" fill-opacity="1" /><path clip-path="url(#clip580)" d="M1476.52 1466.95 Q1479.87 1467.66 1481.75 1469.93 Q1483.64 1472.2 1483.64 1475.53 Q1483.64 1480.65 1480.13 1483.45 Q1476.61 1486.25 1470.13 1486.25 Q1467.95 1486.25 1465.64 1485.81 Q1463.34 1485.39 1460.89 1484.54 L1460.89 1480.02 Q1462.83 1481.16 1465.15 1481.74 Q1467.46 1482.32 1469.99 1482.32 Q1474.39 1482.32 1476.68 1480.58 Q1478.99 1478.84 1478.99 1475.53 Q1478.99 1472.48 1476.84 1470.77 Q1474.71 1469.03 1470.89 1469.03 L1466.86 1469.03 L1466.86 1465.19 L1471.08 1465.19 Q1474.52 1465.19 1476.35 1463.82 Q1478.18 1462.43 1478.18 1459.84 Q1478.18 1457.18 1476.28 1455.77 Q1474.41 1454.33 1470.89 1454.33 Q1468.97 1454.33 1466.77 1454.75 Q1464.57 1455.16 1461.93 1456.04 L1461.93 1451.88 Q1464.59 1451.14 1466.91 1450.77 Q1469.25 1450.39 1471.31 1450.39 Q1476.63 1450.39 1479.73 1452.83 Q1482.83 1455.23 1482.83 1459.35 Q1482.83 1462.22 1481.19 1464.21 Q1479.55 1466.18 1476.52 1466.95 Z" fill="#000000" fill-rule="nonzero" fill-opacity="1" /><path clip-path="url(#clip580)" d="M1591.9 1451.02 L1614.12 1451.02 L1614.12 1453.01 L1601.57 1485.58 L1596.69 1485.58 L1608.49 1454.96 L1591.9 1454.96 L1591.9 1451.02 Z" fill="#000000" fill-rule="nonzero" fill-opacity="1" /><path clip-path="url(#clip580)" d="M1736.76 1455.09 L1724.95 1473.54 L1736.76 1473.54 L1736.76 1455.09 M1735.53 1451.02 L1741.41 1451.02 L1741.41 1473.54 L1746.34 1473.54 L1746.34 1477.43 L1741.41 1477.43 L1741.41 1485.58 L1736.76 1485.58 L1736.76 1477.43 L1721.15 1477.43 L1721.15 1472.92 L1735.53 1451.02 Z" fill="#000000" fill-rule="nonzero" fill-opacity="1" /><path clip-path="url(#clip580)" d="M1839.5 1481.64 L1847.14 1481.64 L1847.14 1455.28 L1838.83 1456.95 L1838.83 1452.69 L1847.09 1451.02 L1851.77 1451.02 L1851.77 1481.64 L1859.41 1481.64 L1859.41 1485.58 L1839.5 1485.58 L1839.5 1481.64 Z" fill="#000000" fill-rule="nonzero" fill-opacity="1" /><path clip-path="url(#clip580)" d="M1883.02 1466.95 Q1886.37 1467.66 1888.25 1469.93 Q1890.15 1472.2 1890.15 1475.53 Q1890.15 1480.65 1886.63 1483.45 Q1883.11 1486.25 1876.63 1486.25 Q1874.45 1486.25 1872.14 1485.81 Q1869.85 1485.39 1867.39 1484.54 L1867.39 1480.02 Q1869.34 1481.16 1871.65 1481.74 Q1873.97 1482.32 1876.49 1482.32 Q1880.89 1482.32 1883.18 1480.58 Q1885.49 1478.84 1885.49 1475.53 Q1885.49 1472.48 1883.34 1470.77 Q1881.21 1469.03 1877.39 1469.03 L1873.36 1469.03 L1873.36 1465.19 L1877.58 1465.19 Q1881.03 1465.19 1882.86 1463.82 Q1884.68 1462.43 1884.68 1459.84 Q1884.68 1457.18 1882.79 1455.77 Q1880.91 1454.33 1877.39 1454.33 Q1875.47 1454.33 1873.27 1454.75 Q1871.07 1455.16 1868.43 1456.04 L1868.43 1451.88 Q1871.1 1451.14 1873.41 1450.77 Q1875.75 1450.39 1877.81 1450.39 Q1883.13 1450.39 1886.24 1452.83 Q1889.34 1455.23 1889.34 1459.35 Q1889.34 1462.22 1887.69 1464.21 Q1886.05 1466.18 1883.02 1466.95 Z" fill="#000000" fill-rule="nonzero" fill-opacity="1" /><path clip-path="url(#clip580)" d="M1989.88 1481.64 L2006.2 1481.64 L2006.2 1485.58 L1984.26 1485.58 L1984.26 1481.64 Q1986.92 1478.89 1991.5 1474.26 Q1996.11 1469.61 1997.29 1468.27 Q1999.53 1465.74 2000.41 1464.01 Q2001.32 1462.25 2001.32 1460.56 Q2001.32 1457.8 1999.37 1456.07 Q1997.45 1454.33 1994.35 1454.33 Q1992.15 1454.33 1989.7 1455.09 Q1987.26 1455.86 1984.49 1457.41 L1984.49 1452.69 Q1987.31 1451.55 1989.76 1450.97 Q1992.22 1450.39 1994.26 1450.39 Q1999.63 1450.39 2002.82 1453.08 Q2006.01 1455.77 2006.01 1460.26 Q2006.01 1462.39 2005.2 1464.31 Q2004.42 1466.2 2002.31 1468.8 Q2001.73 1469.47 1998.63 1472.69 Q1995.53 1475.88 1989.88 1481.64 Z" fill="#000000" fill-rule="nonzero" fill-opacity="1" /><path clip-path="url(#clip580)" d="M2100.66 1481.64 L2108.29 1481.64 L2108.29 1455.28 L2099.98 1456.95 L2099.98 1452.69 L2108.25 1451.02 L2112.92 1451.02 L2112.92 1481.64 L2120.56 1481.64 L2120.56 1485.58 L2100.66 1485.58 L2100.66 1481.64 Z" fill="#000000" fill-rule="nonzero" fill-opacity="1" /><path clip-path="url(#clip580)" d="M2140.01 1454.1 Q2136.4 1454.1 2134.57 1457.66 Q2132.76 1461.2 2132.76 1468.33 Q2132.76 1475.44 2134.57 1479.01 Q2136.4 1482.55 2140.01 1482.55 Q2143.64 1482.55 2145.45 1479.01 Q2147.28 1475.44 2147.28 1468.33 Q2147.28 1461.2 2145.45 1457.66 Q2143.64 1454.1 2140.01 1454.1 M2140.01 1450.39 Q2145.82 1450.39 2148.87 1455 Q2151.95 1459.58 2151.95 1468.33 Q2151.95 1477.06 2148.87 1481.67 Q2145.82 1486.25 2140.01 1486.25 Q2134.2 1486.25 2131.12 1481.67 Q2128.06 1477.06 2128.06 1468.33 Q2128.06 1459.58 2131.12 1455 Q2134.2 1450.39 2140.01 1450.39 Z" fill="#000000" fill-rule="nonzero" fill-opacity="1" /><path clip-path="url(#clip580)" d="M1158.03 1520.52 L1164.46 1520.52 L1164.46 1562.63 L1187.59 1562.63 L1187.59 1568.04 L1158.03 1568.04 L1158.03 1520.52 Z" fill="#000000" fill-rule="nonzero" fill-opacity="1" /><path clip-path="url(#clip580)" d="M1206.76 1536.5 Q1202.04 1536.5 1199.31 1540.19 Q1196.57 1543.85 1196.57 1550.25 Q1196.57 1556.65 1199.28 1560.34 Q1202.01 1564 1206.76 1564 Q1211.43 1564 1214.17 1560.31 Q1216.91 1556.62 1216.91 1550.25 Q1216.91 1543.92 1214.17 1540.23 Q1211.43 1536.5 1206.76 1536.5 M1206.76 1531.54 Q1214.39 1531.54 1218.75 1536.5 Q1223.12 1541.47 1223.12 1550.25 Q1223.12 1559 1218.75 1564 Q1214.39 1568.97 1206.76 1568.97 Q1199.08 1568.97 1194.72 1564 Q1190.4 1559 1190.4 1550.25 Q1190.4 1541.47 1194.72 1536.5 Q1199.08 1531.54 1206.76 1531.54 Z" fill="#000000" fill-rule="nonzero" fill-opacity="1" /><path clip-path="url(#clip580)" d="M1249.02 1550.12 Q1241.93 1550.12 1239.19 1551.75 Q1236.45 1553.37 1236.45 1557.29 Q1236.45 1560.4 1238.49 1562.25 Q1240.56 1564.07 1244.09 1564.07 Q1248.96 1564.07 1251.89 1560.63 Q1254.85 1557.16 1254.85 1551.43 L1254.85 1550.12 L1249.02 1550.12 M1260.7 1547.71 L1260.7 1568.04 L1254.85 1568.04 L1254.85 1562.63 Q1252.84 1565.88 1249.85 1567.44 Q1246.86 1568.97 1242.53 1568.97 Q1237.06 1568.97 1233.81 1565.91 Q1230.59 1562.82 1230.59 1557.67 Q1230.59 1551.65 1234.61 1548.6 Q1238.65 1545.54 1246.64 1545.54 L1254.85 1545.54 L1254.85 1544.97 Q1254.85 1540.93 1252.17 1538.73 Q1249.53 1536.5 1244.73 1536.5 Q1241.67 1536.5 1238.77 1537.23 Q1235.88 1537.97 1233.2 1539.43 L1233.2 1534.02 Q1236.42 1532.78 1239.44 1532.17 Q1242.47 1531.54 1245.33 1531.54 Q1253.07 1531.54 1256.89 1535.55 Q1260.7 1539.56 1260.7 1547.71 Z" fill="#000000" fill-rule="nonzero" fill-opacity="1" /><path clip-path="url(#clip580)" d="M1296.23 1537.81 L1296.23 1518.52 L1302.08 1518.52 L1302.08 1568.04 L1296.23 1568.04 L1296.23 1562.7 Q1294.38 1565.88 1291.55 1567.44 Q1288.75 1568.97 1284.8 1568.97 Q1278.34 1568.97 1274.26 1563.81 Q1270.22 1558.65 1270.22 1550.25 Q1270.22 1541.85 1274.26 1536.69 Q1278.34 1531.54 1284.8 1531.54 Q1288.75 1531.54 1291.55 1533.1 Q1294.38 1534.62 1296.23 1537.81 M1276.27 1550.25 Q1276.27 1556.71 1278.91 1560.4 Q1281.58 1564.07 1286.23 1564.07 Q1290.88 1564.07 1293.55 1560.4 Q1296.23 1556.71 1296.23 1550.25 Q1296.23 1543.79 1293.55 1540.13 Q1290.88 1536.44 1286.23 1536.44 Q1281.58 1536.44 1278.91 1540.13 Q1276.27 1543.79 1276.27 1550.25 Z" fill="#000000" fill-rule="nonzero" fill-opacity="1" /><path clip-path="url(#clip580)" d="M1335.12 1520.52 L1341.55 1520.52 L1341.55 1568.04 L1335.12 1568.04 L1335.12 1520.52 Z" fill="#000000" fill-rule="nonzero" fill-opacity="1" /><path clip-path="url(#clip580)" d="M1360.77 1525.81 L1360.77 1562.76 L1368.54 1562.76 Q1378.37 1562.76 1382.93 1558.3 Q1387.51 1553.85 1387.51 1544.24 Q1387.51 1534.69 1382.93 1530.26 Q1378.37 1525.81 1368.54 1525.81 L1360.77 1525.81 M1354.34 1520.52 L1367.55 1520.52 Q1381.37 1520.52 1387.83 1526.28 Q1394.29 1532.01 1394.29 1544.24 Q1394.29 1556.52 1387.8 1562.28 Q1381.3 1568.04 1367.55 1568.04 L1354.34 1568.04 L1354.34 1520.52 Z" fill="#000000" fill-rule="nonzero" fill-opacity="1" /><polyline clip-path="url(#clip580)" style="stroke:#000000; stroke-linecap:round; stroke-linejoin:round; stroke-width:4; stroke-opacity:1; fill:none" points="262.551,1423.18 262.551,186.464 "/>
<polyline clip-path="url(#clip580)" style="stroke:#000000; stroke-linecap:round; stroke-linejoin:round; stroke-width:4; stroke-opacity:1; fill:none" points="262.551,1423.18 281.449,1423.18 "/>
<polyline clip-path="url(#clip580)" style="stroke:#000000; stroke-linecap:round; stroke-linejoin:round; stroke-width:4; stroke-opacity:1; fill:none" points="262.551,1136.79 281.449,1136.79 "/>
<polyline clip-path="url(#clip580)" style="stroke:#000000; stroke-linecap:round; stroke-linejoin:round; stroke-width:4; stroke-opacity:1; fill:none" points="262.551,850.399 281.449,850.399 "/>
<polyline clip-path="url(#clip580)" style="stroke:#000000; stroke-linecap:round; stroke-linejoin:round; stroke-width:4; stroke-opacity:1; fill:none" points="262.551,564.009 281.449,564.009 "/>
<polyline clip-path="url(#clip580)" style="stroke:#000000; stroke-linecap:round; stroke-linejoin:round; stroke-width:4; stroke-opacity:1; fill:none" points="262.551,277.619 281.449,277.619 "/>
<path clip-path="url(#clip580)" d="M214.607 1408.98 Q210.996 1408.98 209.167 1412.54 Q207.362 1416.08 207.362 1423.21 Q207.362 1430.32 209.167 1433.89 Q210.996 1437.43 214.607 1437.43 Q218.241 1437.43 220.047 1433.89 Q221.875 1430.32 221.875 1423.21 Q221.875 1416.08 220.047 1412.54 Q218.241 1408.98 214.607 1408.98 M214.607 1405.27 Q220.417 1405.27 223.473 1409.88 Q226.551 1414.46 226.551 1423.21 Q226.551 1431.94 223.473 1436.55 Q220.417 1441.13 214.607 1441.13 Q208.797 1441.13 205.718 1436.55 Q202.662 1431.94 202.662 1423.21 Q202.662 1414.46 205.718 1409.88 Q208.797 1405.27 214.607 1405.27 Z" fill="#000000" fill-rule="nonzero" fill-opacity="1" /><path clip-path="url(#clip580)" d="M148.311 1150.13 L164.63 1150.13 L164.63 1154.07 L142.686 1154.07 L142.686 1150.13 Q145.348 1147.38 149.931 1142.75 Q154.538 1138.1 155.718 1136.75 Q157.964 1134.23 158.843 1132.5 Q159.746 1130.74 159.746 1129.05 Q159.746 1126.29 157.802 1124.56 Q155.88 1122.82 152.778 1122.82 Q150.579 1122.82 148.126 1123.58 Q145.695 1124.35 142.917 1125.9 L142.917 1121.18 Q145.741 1120.04 148.195 1119.46 Q150.649 1118.88 152.686 1118.88 Q158.056 1118.88 161.251 1121.57 Q164.445 1124.25 164.445 1128.75 Q164.445 1130.88 163.635 1132.8 Q162.848 1134.69 160.741 1137.29 Q160.163 1137.96 157.061 1141.18 Q153.959 1144.37 148.311 1150.13 Z" fill="#000000" fill-rule="nonzero" fill-opacity="1" /><path clip-path="url(#clip580)" d="M174.491 1119.51 L192.848 1119.51 L192.848 1123.44 L178.774 1123.44 L178.774 1131.92 Q179.792 1131.57 180.811 1131.41 Q181.829 1131.22 182.848 1131.22 Q188.635 1131.22 192.014 1134.39 Q195.394 1137.57 195.394 1142.98 Q195.394 1148.56 191.922 1151.66 Q188.45 1154.74 182.13 1154.74 Q179.954 1154.74 177.686 1154.37 Q175.44 1154 173.033 1153.26 L173.033 1148.56 Q175.116 1149.69 177.339 1150.25 Q179.561 1150.81 182.038 1150.81 Q186.042 1150.81 188.38 1148.7 Q190.718 1146.59 190.718 1142.98 Q190.718 1139.37 188.38 1137.26 Q186.042 1135.16 182.038 1135.16 Q180.163 1135.16 178.288 1135.57 Q176.436 1135.99 174.491 1136.87 L174.491 1119.51 Z" fill="#000000" fill-rule="nonzero" fill-opacity="1" /><path clip-path="url(#clip580)" d="M214.607 1122.59 Q210.996 1122.59 209.167 1126.15 Q207.362 1129.69 207.362 1136.82 Q207.362 1143.93 209.167 1147.5 Q210.996 1151.04 214.607 1151.04 Q218.241 1151.04 220.047 1147.5 Q221.875 1143.93 221.875 1136.82 Q221.875 1129.69 220.047 1126.15 Q218.241 1122.59 214.607 1122.59 M214.607 1118.88 Q220.417 1118.88 223.473 1123.49 Q226.551 1128.07 226.551 1136.82 Q226.551 1145.55 223.473 1150.16 Q220.417 1154.74 214.607 1154.74 Q208.797 1154.74 205.718 1150.16 Q202.662 1145.55 202.662 1136.82 Q202.662 1128.07 205.718 1123.49 Q208.797 1118.88 214.607 1118.88 Z" fill="#000000" fill-rule="nonzero" fill-opacity="1" /><path clip-path="url(#clip580)" d="M144.329 833.119 L162.686 833.119 L162.686 837.055 L148.612 837.055 L148.612 845.527 Q149.63 845.18 150.649 845.017 Q151.667 844.832 152.686 844.832 Q158.473 844.832 161.852 848.004 Q165.232 851.175 165.232 856.591 Q165.232 862.17 161.76 865.272 Q158.288 868.351 151.968 868.351 Q149.792 868.351 147.524 867.98 Q145.279 867.61 142.871 866.869 L142.871 862.17 Q144.954 863.304 147.177 863.86 Q149.399 864.416 151.876 864.416 Q155.88 864.416 158.218 862.309 Q160.556 860.203 160.556 856.591 Q160.556 852.98 158.218 850.874 Q155.88 848.767 151.876 848.767 Q150.001 848.767 148.126 849.184 Q146.274 849.601 144.329 850.48 L144.329 833.119 Z" fill="#000000" fill-rule="nonzero" fill-opacity="1" /><path clip-path="url(#clip580)" d="M184.445 836.198 Q180.834 836.198 179.005 839.763 Q177.2 843.305 177.2 850.434 Q177.2 857.541 179.005 861.105 Q180.834 864.647 184.445 864.647 Q188.079 864.647 189.885 861.105 Q191.713 857.541 191.713 850.434 Q191.713 843.305 189.885 839.763 Q188.079 836.198 184.445 836.198 M184.445 832.494 Q190.255 832.494 193.311 837.101 Q196.389 841.684 196.389 850.434 Q196.389 859.161 193.311 863.767 Q190.255 868.351 184.445 868.351 Q178.635 868.351 175.556 863.767 Q172.501 859.161 172.501 850.434 Q172.501 841.684 175.556 837.101 Q178.635 832.494 184.445 832.494 Z" fill="#000000" fill-rule="nonzero" fill-opacity="1" /><path clip-path="url(#clip580)" d="M214.607 836.198 Q210.996 836.198 209.167 839.763 Q207.362 843.305 207.362 850.434 Q207.362 857.541 209.167 861.105 Q210.996 864.647 214.607 864.647 Q218.241 864.647 220.047 861.105 Q221.875 857.541 221.875 850.434 Q221.875 843.305 220.047 839.763 Q218.241 836.198 214.607 836.198 M214.607 832.494 Q220.417 832.494 223.473 837.101 Q226.551 841.684 226.551 850.434 Q226.551 859.161 223.473 863.767 Q220.417 868.351 214.607 868.351 Q208.797 868.351 205.718 863.767 Q202.662 859.161 202.662 850.434 Q202.662 841.684 205.718 837.101 Q208.797 832.494 214.607 832.494 Z" fill="#000000" fill-rule="nonzero" fill-opacity="1" /><path clip-path="url(#clip580)" d="M143.103 546.729 L165.325 546.729 L165.325 548.72 L152.778 581.289 L147.894 581.289 L159.7 550.664 L143.103 550.664 L143.103 546.729 Z" fill="#000000" fill-rule="nonzero" fill-opacity="1" /><path clip-path="url(#clip580)" d="M174.491 546.729 L192.848 546.729 L192.848 550.664 L178.774 550.664 L178.774 559.136 Q179.792 558.789 180.811 558.627 Q181.829 558.442 182.848 558.442 Q188.635 558.442 192.014 561.613 Q195.394 564.785 195.394 570.201 Q195.394 575.78 191.922 578.882 Q188.45 581.96 182.13 581.96 Q179.954 581.96 177.686 581.59 Q175.44 581.22 173.033 580.479 L173.033 575.78 Q175.116 576.914 177.339 577.47 Q179.561 578.025 182.038 578.025 Q186.042 578.025 188.38 575.919 Q190.718 573.812 190.718 570.201 Q190.718 566.59 188.38 564.484 Q186.042 562.377 182.038 562.377 Q180.163 562.377 178.288 562.794 Q176.436 563.211 174.491 564.09 L174.491 546.729 Z" fill="#000000" fill-rule="nonzero" fill-opacity="1" /><path clip-path="url(#clip580)" d="M214.607 549.808 Q210.996 549.808 209.167 553.373 Q207.362 556.914 207.362 564.044 Q207.362 571.15 209.167 574.715 Q210.996 578.257 214.607 578.257 Q218.241 578.257 220.047 574.715 Q221.875 571.15 221.875 564.044 Q221.875 556.914 220.047 553.373 Q218.241 549.808 214.607 549.808 M214.607 546.104 Q220.417 546.104 223.473 550.711 Q226.551 555.294 226.551 564.044 Q226.551 572.771 223.473 577.377 Q220.417 581.96 214.607 581.96 Q208.797 581.96 205.718 577.377 Q202.662 572.771 202.662 564.044 Q202.662 555.294 205.718 550.711 Q208.797 546.104 214.607 546.104 Z" fill="#000000" fill-rule="nonzero" fill-opacity="1" /><path clip-path="url(#clip580)" d="M114.931 290.964 L122.57 290.964 L122.57 264.598 L114.26 266.265 L114.26 262.006 L122.524 260.339 L127.2 260.339 L127.2 290.964 L134.839 290.964 L134.839 294.899 L114.931 294.899 L114.931 290.964 Z" fill="#000000" fill-rule="nonzero" fill-opacity="1" /><path clip-path="url(#clip580)" d="M154.283 263.418 Q150.672 263.418 148.843 266.982 Q147.038 270.524 147.038 277.654 Q147.038 284.76 148.843 288.325 Q150.672 291.867 154.283 291.867 Q157.917 291.867 159.723 288.325 Q161.552 284.76 161.552 277.654 Q161.552 270.524 159.723 266.982 Q157.917 263.418 154.283 263.418 M154.283 259.714 Q160.093 259.714 163.149 264.32 Q166.227 268.904 166.227 277.654 Q166.227 286.38 163.149 290.987 Q160.093 295.57 154.283 295.57 Q148.473 295.57 145.394 290.987 Q142.339 286.38 142.339 277.654 Q142.339 268.904 145.394 264.32 Q148.473 259.714 154.283 259.714 Z" fill="#000000" fill-rule="nonzero" fill-opacity="1" /><path clip-path="url(#clip580)" d="M184.445 263.418 Q180.834 263.418 179.005 266.982 Q177.2 270.524 177.2 277.654 Q177.2 284.76 179.005 288.325 Q180.834 291.867 184.445 291.867 Q188.079 291.867 189.885 288.325 Q191.713 284.76 191.713 277.654 Q191.713 270.524 189.885 266.982 Q188.079 263.418 184.445 263.418 M184.445 259.714 Q190.255 259.714 193.311 264.32 Q196.389 268.904 196.389 277.654 Q196.389 286.38 193.311 290.987 Q190.255 295.57 184.445 295.57 Q178.635 295.57 175.556 290.987 Q172.501 286.38 172.501 277.654 Q172.501 268.904 175.556 264.32 Q178.635 259.714 184.445 259.714 Z" fill="#000000" fill-rule="nonzero" fill-opacity="1" /><path clip-path="url(#clip580)" d="M214.607 263.418 Q210.996 263.418 209.167 266.982 Q207.362 270.524 207.362 277.654 Q207.362 284.76 209.167 288.325 Q210.996 291.867 214.607 291.867 Q218.241 291.867 220.047 288.325 Q221.875 284.76 221.875 277.654 Q221.875 270.524 220.047 266.982 Q218.241 263.418 214.607 263.418 M214.607 259.714 Q220.417 259.714 223.473 264.32 Q226.551 268.904 226.551 277.654 Q226.551 286.38 223.473 290.987 Q220.417 295.57 214.607 295.57 Q208.797 295.57 205.718 290.987 Q202.662 286.38 202.662 277.654 Q202.662 268.904 205.718 264.32 Q208.797 259.714 214.607 259.714 Z" fill="#000000" fill-rule="nonzero" fill-opacity="1" /><path clip-path="url(#clip580)" d="M16.4842 1138.4 L16.4842 1131.97 L58.5933 1131.97 L58.5933 1108.83 L64.0042 1108.83 L64.0042 1138.4 L16.4842 1138.4 Z" fill="#000000" fill-rule="nonzero" fill-opacity="1" /><path clip-path="url(#clip580)" d="M32.4621 1089.67 Q32.4621 1094.38 36.1542 1097.12 Q39.8145 1099.86 46.212 1099.86 Q52.6095 1099.86 56.3017 1097.15 Q59.9619 1094.41 59.9619 1089.67 Q59.9619 1084.99 56.2698 1082.26 Q52.5777 1079.52 46.212 1079.52 Q39.8781 1079.52 36.186 1082.26 Q32.4621 1084.99 32.4621 1089.67 M27.4968 1089.67 Q27.4968 1082.03 32.4621 1077.67 Q37.4273 1073.31 46.212 1073.31 Q54.9649 1073.31 59.9619 1077.67 Q64.9272 1082.03 64.9272 1089.67 Q64.9272 1097.34 59.9619 1101.7 Q54.9649 1106.03 46.212 1106.03 Q37.4273 1106.03 32.4621 1101.7 Q27.4968 1097.34 27.4968 1089.67 Z" fill="#000000" fill-rule="nonzero" fill-opacity="1" /><path clip-path="url(#clip580)" d="M46.0847 1047.4 Q46.0847 1054.5 47.7079 1057.24 Q49.3312 1059.98 53.2461 1059.98 Q56.3653 1059.98 58.2114 1057.94 Q60.0256 1055.87 60.0256 1052.34 Q60.0256 1047.47 56.5881 1044.54 Q53.1188 1041.58 47.3897 1041.58 L46.0847 1041.58 L46.0847 1047.4 M43.6657 1035.72 L64.0042 1035.72 L64.0042 1041.58 L58.5933 1041.58 Q61.8398 1043.58 63.3994 1046.58 Q64.9272 1049.57 64.9272 1053.9 Q64.9272 1059.37 61.8716 1062.62 Q58.7843 1065.83 53.6281 1065.83 Q47.6125 1065.83 44.5569 1061.82 Q41.5014 1057.78 41.5014 1049.79 L41.5014 1041.58 L40.9285 1041.58 Q36.8862 1041.58 34.6901 1044.25 Q32.4621 1046.89 32.4621 1051.7 Q32.4621 1054.76 33.1941 1057.65 Q33.9262 1060.55 35.3903 1063.22 L29.9795 1063.22 Q28.7381 1060.01 28.1334 1056.98 Q27.4968 1053.96 27.4968 1051.1 Q27.4968 1043.36 31.5072 1039.54 Q35.5176 1035.72 43.6657 1035.72 Z" fill="#000000" fill-rule="nonzero" fill-opacity="1" /><path clip-path="url(#clip580)" d="M33.7671 1000.2 L14.479 1000.2 L14.479 994.345 L64.0042 994.345 L64.0042 1000.2 L58.657 1000.2 Q61.8398 1002.05 63.3994 1004.88 Q64.9272 1007.68 64.9272 1011.63 Q64.9272 1018.09 59.771 1022.16 Q54.6147 1026.21 46.212 1026.21 Q37.8093 1026.21 32.6531 1022.16 Q27.4968 1018.09 27.4968 1011.63 Q27.4968 1007.68 29.0564 1004.88 Q30.5842 1002.05 33.7671 1000.2 M46.212 1020.16 Q52.6732 1020.16 56.3653 1017.52 Q60.0256 1014.84 60.0256 1010.2 Q60.0256 1005.55 56.3653 1002.88 Q52.6732 1000.2 46.212 1000.2 Q39.7508 1000.2 36.0905 1002.88 Q32.3984 1005.55 32.3984 1010.2 Q32.3984 1014.84 36.0905 1017.52 Q39.7508 1020.16 46.212 1020.16 Z" fill="#000000" fill-rule="nonzero" fill-opacity="1" /><path clip-path="url(#clip580)" d="M18.0438 932.82 L24.314 932.82 Q22.5634 936.481 21.704 939.727 Q20.8447 942.974 20.8447 945.998 Q20.8447 951.249 22.8817 954.114 Q24.9187 956.947 28.6745 956.947 Q31.8255 956.947 33.4488 955.069 Q35.0402 953.159 36.0269 947.875 L36.8226 943.992 Q38.1912 936.799 41.6605 933.393 Q45.098 929.956 50.8908 929.956 Q57.7976 929.956 61.3624 934.603 Q64.9272 939.218 64.9272 948.162 Q64.9272 951.536 64.1633 955.355 Q63.3994 959.143 61.9035 963.217 L55.2831 963.217 Q57.4793 959.302 58.5933 955.546 Q59.7073 951.79 59.7073 948.162 Q59.7073 942.656 57.543 939.664 Q55.3786 936.672 51.3682 936.672 Q47.8671 936.672 45.8937 938.836 Q43.9204 940.969 42.9337 945.87 L42.1698 949.785 Q40.7375 956.978 37.682 960.193 Q34.6264 963.408 29.1837 963.408 Q22.8817 963.408 19.2532 958.984 Q15.6248 954.528 15.6248 946.73 Q15.6248 943.388 16.2295 939.918 Q16.8343 936.449 18.0438 932.82 Z" fill="#000000" fill-rule="nonzero" fill-opacity="1" /><path clip-path="url(#clip580)" d="M42.4881 890.552 L64.0042 890.552 L64.0042 896.409 L42.679 896.409 Q37.6183 896.409 35.1038 898.382 Q32.5894 900.355 32.5894 904.302 Q32.5894 909.045 35.6131 911.782 Q38.6368 914.519 43.8567 914.519 L64.0042 914.519 L64.0042 920.407 L14.479 920.407 L14.479 914.519 L33.8944 914.519 Q30.6797 912.418 29.0883 909.586 Q27.4968 906.721 27.4968 902.997 Q27.4968 896.854 31.3163 893.703 Q35.1038 890.552 42.4881 890.552 Z" fill="#000000" fill-rule="nonzero" fill-opacity="1" /><path clip-path="url(#clip580)" d="M44.7161 848.379 L47.5806 848.379 L47.5806 875.306 Q53.6281 874.924 56.8109 871.678 Q59.9619 868.4 59.9619 862.575 Q59.9619 859.201 59.1344 856.05 Q58.3069 852.867 56.6518 849.748 L62.1899 849.748 Q63.5267 852.899 64.227 856.209 Q64.9272 859.519 64.9272 862.925 Q64.9272 871.455 59.9619 876.452 Q54.9967 881.417 46.5303 881.417 Q37.7774 881.417 32.6531 876.707 Q27.4968 871.964 27.4968 863.944 Q27.4968 856.75 32.1438 852.581 Q36.7589 848.379 44.7161 848.379 M42.9973 854.236 Q38.1912 854.3 35.3266 856.941 Q32.4621 859.551 32.4621 863.88 Q32.4621 868.781 35.2312 871.742 Q38.0002 874.67 43.0292 875.115 L42.9973 854.236 Z" fill="#000000" fill-rule="nonzero" fill-opacity="1" /><path clip-path="url(#clip580)" d="M33.7671 815.31 L14.479 815.31 L14.479 809.453 L64.0042 809.453 L64.0042 815.31 L58.657 815.31 Q61.8398 817.156 63.3994 819.988 Q64.9272 822.789 64.9272 826.736 Q64.9272 833.197 59.771 837.271 Q54.6147 841.313 46.212 841.313 Q37.8093 841.313 32.6531 837.271 Q27.4968 833.197 27.4968 826.736 Q27.4968 822.789 29.0564 819.988 Q30.5842 817.156 33.7671 815.31 M46.212 835.266 Q52.6732 835.266 56.3653 832.624 Q60.0256 829.951 60.0256 825.304 Q60.0256 820.657 56.3653 817.983 Q52.6732 815.31 46.212 815.31 Q39.7508 815.31 36.0905 817.983 Q32.3984 820.657 32.3984 825.304 Q32.3984 829.951 36.0905 832.624 Q39.7508 835.266 46.212 835.266 Z" fill="#000000" fill-rule="nonzero" fill-opacity="1" /><path clip-path="url(#clip580)" d="M33.7671 773.932 L14.479 773.932 L14.479 768.076 L64.0042 768.076 L64.0042 773.932 L58.657 773.932 Q61.8398 775.779 63.3994 778.611 Q64.9272 781.412 64.9272 785.359 Q64.9272 791.82 59.771 795.894 Q54.6147 799.936 46.212 799.936 Q37.8093 799.936 32.6531 795.894 Q27.4968 791.82 27.4968 785.359 Q27.4968 781.412 29.0564 778.611 Q30.5842 775.779 33.7671 773.932 M46.212 793.889 Q52.6732 793.889 56.3653 791.247 Q60.0256 788.574 60.0256 783.927 Q60.0256 779.28 56.3653 776.606 Q52.6732 773.932 46.212 773.932 Q39.7508 773.932 36.0905 776.606 Q32.3984 779.28 32.3984 783.927 Q32.3984 788.574 36.0905 791.247 Q39.7508 793.889 46.212 793.889 Z" fill="#000000" fill-rule="nonzero" fill-opacity="1" /><path clip-path="url(#clip580)" d="M28.3562 756.013 L28.3562 750.157 L64.0042 750.157 L64.0042 756.013 L28.3562 756.013 M14.479 756.013 L14.479 750.157 L21.895 750.157 L21.895 756.013 L14.479 756.013 Z" fill="#000000" fill-rule="nonzero" fill-opacity="1" /><path clip-path="url(#clip580)" d="M42.4881 708.27 L64.0042 708.27 L64.0042 714.127 L42.679 714.127 Q37.6183 714.127 35.1038 716.1 Q32.5894 718.073 32.5894 722.02 Q32.5894 726.763 35.6131 729.5 Q38.6368 732.237 43.8567 732.237 L64.0042 732.237 L64.0042 738.125 L28.3562 738.125 L28.3562 732.237 L33.8944 732.237 Q30.6797 730.136 29.0883 727.304 Q27.4968 724.439 27.4968 720.715 Q27.4968 714.572 31.3163 711.421 Q35.1038 708.27 42.4881 708.27 Z" fill="#000000" fill-rule="nonzero" fill-opacity="1" /><path clip-path="url(#clip580)" d="M45.7664 673.131 Q39.4007 673.131 35.8996 675.773 Q32.3984 678.383 32.3984 683.126 Q32.3984 687.836 35.8996 690.478 Q39.4007 693.088 45.7664 693.088 Q52.1003 693.088 55.6014 690.478 Q59.1026 687.836 59.1026 683.126 Q59.1026 678.383 55.6014 675.773 Q52.1003 673.131 45.7664 673.131 M59.58 667.275 Q68.683 667.275 73.1071 671.317 Q77.5631 675.359 77.5631 683.699 Q77.5631 686.786 77.0857 689.523 Q76.6401 692.26 75.6852 694.839 L69.9879 694.839 Q71.3884 692.26 72.0568 689.746 Q72.7252 687.232 72.7252 684.622 Q72.7252 678.861 69.7015 675.996 Q66.7096 673.131 60.6303 673.131 L57.7339 673.131 Q60.885 674.946 62.4446 677.778 Q64.0042 680.611 64.0042 684.558 Q64.0042 691.115 59.0071 695.125 Q54.01 699.135 45.7664 699.135 Q37.491 699.135 32.4939 695.125 Q27.4968 691.115 27.4968 684.558 Q27.4968 680.611 29.0564 677.778 Q30.616 674.946 33.7671 673.131 L28.3562 673.131 L28.3562 667.275 L59.58 667.275 Z" fill="#000000" fill-rule="nonzero" fill-opacity="1" /><path clip-path="url(#clip580)" d="M14.5426 620.423 Q21.8632 624.688 29.0246 626.757 Q36.186 628.826 43.5384 628.826 Q50.8908 628.826 58.1159 626.757 Q65.3091 624.657 72.5979 620.423 L72.5979 625.516 Q65.1182 630.29 57.8931 632.677 Q50.668 635.033 43.5384 635.033 Q36.4406 635.033 29.2474 632.677 Q22.0542 630.322 14.5426 625.516 L14.5426 620.423 Z" fill="#000000" fill-rule="nonzero" fill-opacity="1" /><path clip-path="url(#clip580)" d="M58.657 603.395 L77.5631 603.395 L77.5631 609.283 L28.3562 609.283 L28.3562 603.395 L33.7671 603.395 Q30.5842 601.549 29.0564 598.748 Q27.4968 595.915 27.4968 592.001 Q27.4968 585.508 32.6531 581.465 Q37.8093 577.391 46.212 577.391 Q54.6147 577.391 59.771 581.465 Q64.9272 585.508 64.9272 592.001 Q64.9272 595.915 63.3994 598.748 Q61.8398 601.549 58.657 603.395 M46.212 583.471 Q39.7508 583.471 36.0905 586.144 Q32.3984 588.786 32.3984 593.433 Q32.3984 598.08 36.0905 600.753 Q39.7508 603.395 46.212 603.395 Q52.6732 603.395 56.3653 600.753 Q60.0256 598.08 60.0256 593.433 Q60.0256 588.786 56.3653 586.144 Q52.6732 583.471 46.212 583.471 Z" fill="#000000" fill-rule="nonzero" fill-opacity="1" /><path clip-path="url(#clip580)" d="M55.9197 566.856 L55.9197 560.14 L64.0042 560.14 L64.0042 566.856 L55.9197 566.856 Z" fill="#000000" fill-rule="nonzero" fill-opacity="1" /><path clip-path="url(#clip580)" d="M49.9359 547.568 L28.3562 547.568 L28.3562 541.711 L49.7131 541.711 Q54.7739 541.711 57.3202 539.738 Q59.8346 537.765 59.8346 533.818 Q59.8346 529.076 56.8109 526.338 Q53.7872 523.569 48.5673 523.569 L28.3562 523.569 L28.3562 517.713 L64.0042 517.713 L64.0042 523.569 L58.5296 523.569 Q61.7762 525.702 63.3676 528.534 Q64.9272 531.335 64.9272 535.059 Q64.9272 541.202 61.1078 544.385 Q57.2883 547.568 49.9359 547.568 M27.4968 532.831 L27.4968 532.831 Z" fill="#000000" fill-rule="nonzero" fill-opacity="1" /><path clip-path="url(#clip580)" d="M55.9197 504.822 L55.9197 498.106 L64.0042 498.106 L64.0042 504.822 L55.9197 504.822 Z" fill="#000000" fill-rule="nonzero" fill-opacity="1" /><path clip-path="url(#clip580)" d="M14.5426 485.852 L14.5426 480.76 Q22.0542 475.986 29.2474 473.63 Q36.4406 471.243 43.5384 471.243 Q50.668 471.243 57.8931 473.63 Q65.1182 475.986 72.5979 480.76 L72.5979 485.852 Q65.3091 481.619 58.1159 479.55 Q50.8908 477.45 43.5384 477.45 Q36.186 477.45 29.0246 479.55 Q21.8632 481.619 14.5426 485.852 Z" fill="#000000" fill-rule="nonzero" fill-opacity="1" /><path clip-path="url(#clip580)" d="M722.885 12.096 L731.068 12.096 L731.068 65.6895 L760.518 65.6895 L760.518 72.576 L722.885 72.576 L722.885 12.096 Z" fill="#000000" fill-rule="nonzero" fill-opacity="1" /><path clip-path="url(#clip580)" d="M784.904 32.4315 Q778.909 32.4315 775.425 37.1306 Q771.941 41.7891 771.941 49.9314 Q771.941 58.0738 775.385 62.7728 Q778.868 67.4314 784.904 67.4314 Q790.859 67.4314 794.343 62.7323 Q797.827 58.0333 797.827 49.9314 Q797.827 41.8701 794.343 37.1711 Q790.859 32.4315 784.904 32.4315 M784.904 26.1121 Q794.627 26.1121 800.176 32.4315 Q805.726 38.7509 805.726 49.9314 Q805.726 61.0714 800.176 67.4314 Q794.627 73.7508 784.904 73.7508 Q775.142 73.7508 769.592 67.4314 Q764.083 61.0714 764.083 49.9314 Q764.083 38.7509 769.592 32.4315 Q775.142 26.1121 784.904 26.1121 Z" fill="#000000" fill-rule="nonzero" fill-opacity="1" /><path clip-path="url(#clip580)" d="M838.7 49.7694 Q829.667 49.7694 826.183 51.8354 Q822.699 53.9013 822.699 58.8839 Q822.699 62.8538 825.292 65.2034 Q827.925 67.5124 832.421 67.5124 Q838.619 67.5124 842.346 63.1374 Q846.114 58.7219 846.114 51.4303 L846.114 49.7694 L838.7 49.7694 M853.567 46.6907 L853.567 72.576 L846.114 72.576 L846.114 65.6895 Q843.561 69.8214 839.754 71.8063 Q835.946 73.7508 830.437 73.7508 Q823.469 73.7508 819.337 69.8619 Q815.246 65.9325 815.246 59.3701 Q815.246 51.7138 820.35 47.825 Q825.494 43.9361 835.662 43.9361 L846.114 43.9361 L846.114 43.2069 Q846.114 38.0623 842.711 35.2672 Q839.348 32.4315 833.232 32.4315 Q829.343 32.4315 825.656 33.3632 Q821.97 34.295 818.567 36.1584 L818.567 29.2718 Q822.659 27.692 826.507 26.9223 Q830.355 26.1121 834.001 26.1121 Q843.845 26.1121 848.706 31.2163 Q853.567 36.3204 853.567 46.6907 Z" fill="#000000" fill-rule="nonzero" fill-opacity="1" /><path clip-path="url(#clip580)" d="M898.775 34.0924 L898.775 9.54393 L906.229 9.54393 L906.229 72.576 L898.775 72.576 L898.775 65.7705 Q896.426 69.8214 892.82 71.8063 Q889.256 73.7508 884.233 73.7508 Q876.009 73.7508 870.824 67.1883 Q865.679 60.6258 865.679 49.9314 Q865.679 39.2371 870.824 32.6746 Q876.009 26.1121 884.233 26.1121 Q889.256 26.1121 892.82 28.0971 Q896.426 30.0415 898.775 34.0924 M873.376 49.9314 Q873.376 58.1548 876.738 62.8538 Q880.141 67.5124 886.055 67.5124 Q891.97 67.5124 895.373 62.8538 Q898.775 58.1548 898.775 49.9314 Q898.775 41.7081 895.373 37.0496 Q891.97 32.3505 886.055 32.3505 Q880.141 32.3505 876.738 37.0496 Q873.376 41.7081 873.376 49.9314 Z" fill="#000000" fill-rule="nonzero" fill-opacity="1" /><path clip-path="url(#clip580)" d="M984.533 14.0809 L984.533 22.0612 Q979.874 19.8332 975.742 18.7395 Q971.611 17.6457 967.762 17.6457 Q961.078 17.6457 957.432 20.2383 Q953.827 22.8309 953.827 27.611 Q953.827 31.6214 956.217 33.6873 Q958.648 35.7128 965.372 36.9686 L970.314 37.9813 Q979.469 39.7232 983.804 44.1387 Q988.179 48.5136 988.179 55.8863 Q988.179 64.6767 982.264 69.2137 Q976.391 73.7508 965.008 73.7508 Q960.714 73.7508 955.853 72.7785 Q951.032 71.8063 945.847 69.9024 L945.847 61.4765 Q950.829 64.2716 955.609 65.6895 Q960.39 67.1073 965.008 67.1073 Q972.016 67.1073 975.823 64.3527 Q979.631 61.598 979.631 56.4939 Q979.631 52.0379 976.877 49.5264 Q974.163 47.0148 967.924 45.759 L962.942 44.7868 Q953.787 42.9639 949.695 39.075 Q945.604 35.1862 945.604 28.2591 Q945.604 20.2383 951.234 15.6203 Q956.906 11.0023 966.83 11.0023 Q971.084 11.0023 975.499 11.7719 Q979.915 12.5416 984.533 14.0809 Z" fill="#000000" fill-rule="nonzero" fill-opacity="1" /><path clip-path="url(#clip580)" d="M1038.33 45.1919 L1038.33 72.576 L1030.88 72.576 L1030.88 45.4349 Q1030.88 38.994 1028.36 35.7938 Q1025.85 32.5936 1020.83 32.5936 Q1014.79 32.5936 1011.31 36.4419 Q1007.83 40.2903 1007.83 46.9338 L1007.83 72.576 L1000.33 72.576 L1000.33 9.54393 L1007.83 9.54393 L1007.83 34.2544 Q1010.5 30.163 1014.1 28.1376 Q1017.75 26.1121 1022.49 26.1121 Q1030.31 26.1121 1034.32 30.9732 Q1038.33 35.7938 1038.33 45.1919 Z" fill="#000000" fill-rule="nonzero" fill-opacity="1" /><path clip-path="url(#clip580)" d="M1092 48.0275 L1092 51.6733 L1057.73 51.6733 Q1058.22 59.3701 1062.35 63.421 Q1066.52 67.4314 1073.94 67.4314 Q1078.23 67.4314 1082.24 66.3781 Q1086.29 65.3249 1090.26 63.2184 L1090.26 70.267 Q1086.25 71.9684 1082.04 72.8596 Q1077.83 73.7508 1073.49 73.7508 Q1062.63 73.7508 1056.27 67.4314 Q1049.96 61.1119 1049.96 50.3365 Q1049.96 39.1965 1055.95 32.6746 Q1061.99 26.1121 1072.19 26.1121 Q1081.35 26.1121 1086.66 32.0264 Q1092 37.9003 1092 48.0275 M1084.55 45.84 Q1084.47 39.7232 1081.11 36.0774 Q1077.78 32.4315 1072.28 32.4315 Q1066.04 32.4315 1062.27 35.9558 Q1058.54 39.4801 1057.98 45.8805 L1084.55 45.84 Z" fill="#000000" fill-rule="nonzero" fill-opacity="1" /><path clip-path="url(#clip580)" d="M1134.09 34.0924 L1134.09 9.54393 L1141.55 9.54393 L1141.55 72.576 L1134.09 72.576 L1134.09 65.7705 Q1131.74 69.8214 1128.14 71.8063 Q1124.57 73.7508 1119.55 73.7508 Q1111.33 73.7508 1106.14 67.1883 Q1101 60.6258 1101 49.9314 Q1101 39.2371 1106.14 32.6746 Q1111.33 26.1121 1119.55 26.1121 Q1124.57 26.1121 1128.14 28.0971 Q1131.74 30.0415 1134.09 34.0924 M1108.69 49.9314 Q1108.69 58.1548 1112.06 62.8538 Q1115.46 67.5124 1121.37 67.5124 Q1127.29 67.5124 1130.69 62.8538 Q1134.09 58.1548 1134.09 49.9314 Q1134.09 41.7081 1130.69 37.0496 Q1127.29 32.3505 1121.37 32.3505 Q1115.46 32.3505 1112.06 37.0496 Q1108.69 41.7081 1108.69 49.9314 Z" fill="#000000" fill-rule="nonzero" fill-opacity="1" /><path clip-path="url(#clip580)" d="M1186.75 34.0924 L1186.75 9.54393 L1194.21 9.54393 L1194.21 72.576 L1186.75 72.576 L1186.75 65.7705 Q1184.4 69.8214 1180.8 71.8063 Q1177.23 73.7508 1172.21 73.7508 Q1163.99 73.7508 1158.8 67.1883 Q1153.66 60.6258 1153.66 49.9314 Q1153.66 39.2371 1158.8 32.6746 Q1163.99 26.1121 1172.21 26.1121 Q1177.23 26.1121 1180.8 28.0971 Q1184.4 30.0415 1186.75 34.0924 M1161.35 49.9314 Q1161.35 58.1548 1164.72 62.8538 Q1168.12 67.5124 1174.03 67.5124 Q1179.95 67.5124 1183.35 62.8538 Q1186.75 58.1548 1186.75 49.9314 Q1186.75 41.7081 1183.35 37.0496 Q1179.95 32.3505 1174.03 32.3505 Q1168.12 32.3505 1164.72 37.0496 Q1161.35 41.7081 1161.35 49.9314 Z" fill="#000000" fill-rule="nonzero" fill-opacity="1" /><path clip-path="url(#clip580)" d="M1209.56 27.2059 L1217.01 27.2059 L1217.01 72.576 L1209.56 72.576 L1209.56 27.2059 M1209.56 9.54393 L1217.01 9.54393 L1217.01 18.9825 L1209.56 18.9825 L1209.56 9.54393 Z" fill="#000000" fill-rule="nonzero" fill-opacity="1" /><path clip-path="url(#clip580)" d="M1270.32 45.1919 L1270.32 72.576 L1262.87 72.576 L1262.87 45.4349 Q1262.87 38.994 1260.36 35.7938 Q1257.85 32.5936 1252.82 32.5936 Q1246.79 32.5936 1243.3 36.4419 Q1239.82 40.2903 1239.82 46.9338 L1239.82 72.576 L1232.33 72.576 L1232.33 27.2059 L1239.82 27.2059 L1239.82 34.2544 Q1242.49 30.163 1246.1 28.1376 Q1249.75 26.1121 1254.49 26.1121 Q1262.3 26.1121 1266.31 30.9732 Q1270.32 35.7938 1270.32 45.1919 Z" fill="#000000" fill-rule="nonzero" fill-opacity="1" /><path clip-path="url(#clip580)" d="M1315.05 49.3643 Q1315.05 41.2625 1311.68 36.8065 Q1308.36 32.3505 1302.33 32.3505 Q1296.33 32.3505 1292.97 36.8065 Q1289.65 41.2625 1289.65 49.3643 Q1289.65 57.4256 1292.97 61.8816 Q1296.33 66.3376 1302.33 66.3376 Q1308.36 66.3376 1311.68 61.8816 Q1315.05 57.4256 1315.05 49.3643 M1322.5 66.9452 Q1322.5 78.5308 1317.36 84.1616 Q1312.21 89.8329 1301.6 89.8329 Q1297.67 89.8329 1294.18 89.2252 Q1290.7 88.6581 1287.42 87.4428 L1287.42 80.1917 Q1290.7 81.9741 1293.9 82.8248 Q1297.1 83.6755 1300.42 83.6755 Q1307.75 83.6755 1311.4 79.8271 Q1315.05 76.0193 1315.05 68.282 L1315.05 64.5957 Q1312.74 68.6061 1309.13 70.5911 Q1305.53 72.576 1300.5 72.576 Q1292.16 72.576 1287.05 66.2161 Q1281.95 59.8562 1281.95 49.3643 Q1281.95 38.832 1287.05 32.472 Q1292.16 26.1121 1300.5 26.1121 Q1305.53 26.1121 1309.13 28.0971 Q1312.74 30.082 1315.05 34.0924 L1315.05 27.2059 L1322.5 27.2059 L1322.5 66.9452 Z" fill="#000000" fill-rule="nonzero" fill-opacity="1" /><path clip-path="url(#clip580)" d="M1371.43 65.7705 L1371.43 89.8329 L1363.94 89.8329 L1363.94 27.2059 L1371.43 27.2059 L1371.43 34.0924 Q1373.78 30.0415 1377.35 28.0971 Q1380.95 26.1121 1385.94 26.1121 Q1394.2 26.1121 1399.35 32.6746 Q1404.53 39.2371 1404.53 49.9314 Q1404.53 60.6258 1399.35 67.1883 Q1394.2 73.7508 1385.94 73.7508 Q1380.95 73.7508 1377.35 71.8063 Q1373.78 69.8214 1371.43 65.7705 M1396.79 49.9314 Q1396.79 41.7081 1393.39 37.0496 Q1390.03 32.3505 1384.11 32.3505 Q1378.2 32.3505 1374.8 37.0496 Q1371.43 41.7081 1371.43 49.9314 Q1371.43 58.1548 1374.8 62.8538 Q1378.2 67.5124 1384.11 67.5124 Q1390.03 67.5124 1393.39 62.8538 Q1396.79 58.1548 1396.79 49.9314 Z" fill="#000000" fill-rule="nonzero" fill-opacity="1" /><path clip-path="url(#clip580)" d="M1455.69 48.0275 L1455.69 51.6733 L1421.42 51.6733 Q1421.91 59.3701 1426.04 63.421 Q1430.21 67.4314 1437.63 67.4314 Q1441.92 67.4314 1445.93 66.3781 Q1449.98 65.3249 1453.95 63.2184 L1453.95 70.267 Q1449.94 71.9684 1445.73 72.8596 Q1441.52 73.7508 1437.18 73.7508 Q1426.32 73.7508 1419.96 67.4314 Q1413.65 61.1119 1413.65 50.3365 Q1413.65 39.1965 1419.64 32.6746 Q1425.68 26.1121 1435.88 26.1121 Q1445.04 26.1121 1450.35 32.0264 Q1455.69 37.9003 1455.69 48.0275 M1448.24 45.84 Q1448.16 39.7232 1444.8 36.0774 Q1441.47 32.4315 1435.97 32.4315 Q1429.73 32.4315 1425.96 35.9558 Q1422.23 39.4801 1421.67 45.8805 L1448.24 45.84 Z" fill="#000000" fill-rule="nonzero" fill-opacity="1" /><path clip-path="url(#clip580)" d="M1494.22 34.1734 Q1492.96 33.4443 1491.46 33.1202 Q1490 32.7556 1488.22 32.7556 Q1481.9 32.7556 1478.5 36.8875 Q1475.14 40.9789 1475.14 48.6757 L1475.14 72.576 L1467.64 72.576 L1467.64 27.2059 L1475.14 27.2059 L1475.14 34.2544 Q1477.49 30.1225 1481.25 28.1376 Q1485.02 26.1121 1490.41 26.1121 Q1491.18 26.1121 1492.11 26.2337 Q1493.04 26.3147 1494.18 26.5172 L1494.22 34.1734 Z" fill="#000000" fill-rule="nonzero" fill-opacity="1" /><path clip-path="url(#clip580)" d="M1528.73 12.096 L1536.91 12.096 L1536.91 65.6895 L1566.36 65.6895 L1566.36 72.576 L1528.73 72.576 L1528.73 12.096 Z" fill="#000000" fill-rule="nonzero" fill-opacity="1" /><path clip-path="url(#clip580)" d="M1590.75 32.4315 Q1584.76 32.4315 1581.27 37.1306 Q1577.79 41.7891 1577.79 49.9314 Q1577.79 58.0738 1581.23 62.7728 Q1584.71 67.4314 1590.75 67.4314 Q1596.71 67.4314 1600.19 62.7323 Q1603.67 58.0333 1603.67 49.9314 Q1603.67 41.8701 1600.19 37.1711 Q1596.71 32.4315 1590.75 32.4315 M1590.75 26.1121 Q1600.47 26.1121 1606.02 32.4315 Q1611.57 38.7509 1611.57 49.9314 Q1611.57 61.0714 1606.02 67.4314 Q1600.47 73.7508 1590.75 73.7508 Q1580.99 73.7508 1575.44 67.4314 Q1569.93 61.0714 1569.93 49.9314 Q1569.93 38.7509 1575.44 32.4315 Q1580.99 26.1121 1590.75 26.1121 Z" fill="#000000" fill-rule="nonzero" fill-opacity="1" /><path clip-path="url(#clip580)" d="M1644.55 49.7694 Q1635.51 49.7694 1632.03 51.8354 Q1628.55 53.9013 1628.55 58.8839 Q1628.55 62.8538 1631.14 65.2034 Q1633.77 67.5124 1638.27 67.5124 Q1644.47 67.5124 1648.19 63.1374 Q1651.96 58.7219 1651.96 51.4303 L1651.96 49.7694 L1644.55 49.7694 M1659.41 46.6907 L1659.41 72.576 L1651.96 72.576 L1651.96 65.6895 Q1649.41 69.8214 1645.6 71.8063 Q1641.79 73.7508 1636.28 73.7508 Q1629.32 73.7508 1625.18 69.8619 Q1621.09 65.9325 1621.09 59.3701 Q1621.09 51.7138 1626.2 47.825 Q1631.34 43.9361 1641.51 43.9361 L1651.96 43.9361 L1651.96 43.2069 Q1651.96 38.0623 1648.56 35.2672 Q1645.19 32.4315 1639.08 32.4315 Q1635.19 32.4315 1631.5 33.3632 Q1627.82 34.295 1624.41 36.1584 L1624.41 29.2718 Q1628.51 27.692 1632.35 26.9223 Q1636.2 26.1121 1639.85 26.1121 Q1649.69 26.1121 1654.55 31.2163 Q1659.41 36.3204 1659.41 46.6907 Z" fill="#000000" fill-rule="nonzero" fill-opacity="1" /><path clip-path="url(#clip580)" d="M1704.62 34.0924 L1704.62 9.54393 L1712.08 9.54393 L1712.08 72.576 L1704.62 72.576 L1704.62 65.7705 Q1702.27 69.8214 1698.67 71.8063 Q1695.1 73.7508 1690.08 73.7508 Q1681.86 73.7508 1676.67 67.1883 Q1671.53 60.6258 1671.53 49.9314 Q1671.53 39.2371 1676.67 32.6746 Q1681.86 26.1121 1690.08 26.1121 Q1695.1 26.1121 1698.67 28.0971 Q1702.27 30.0415 1704.62 34.0924 M1679.22 49.9314 Q1679.22 58.1548 1682.58 62.8538 Q1685.99 67.5124 1691.9 67.5124 Q1697.82 67.5124 1701.22 62.8538 Q1704.62 58.1548 1704.62 49.9314 Q1704.62 41.7081 1701.22 37.0496 Q1697.82 32.3505 1691.9 32.3505 Q1685.99 32.3505 1682.58 37.0496 Q1679.22 41.7081 1679.22 49.9314 Z" fill="#000000" fill-rule="nonzero" fill-opacity="1" /><path clip-path="url(#clip580)" d="M1754.12 12.096 L1762.31 12.096 L1762.31 72.576 L1754.12 72.576 L1754.12 12.096 Z" fill="#000000" fill-rule="nonzero" fill-opacity="1" /><path clip-path="url(#clip580)" d="M1786.77 18.8205 L1786.77 65.8515 L1796.66 65.8515 Q1809.18 65.8515 1814.97 60.1802 Q1820.8 54.509 1820.8 42.2752 Q1820.8 30.1225 1814.97 24.4918 Q1809.18 18.8205 1796.66 18.8205 L1786.77 18.8205 M1778.59 12.096 L1795.4 12.096 Q1812.98 12.096 1821.21 19.4281 Q1829.43 26.7198 1829.43 42.2752 Q1829.43 57.9117 1821.17 65.2439 Q1812.9 72.576 1795.4 72.576 L1778.59 72.576 L1778.59 12.096 Z" fill="#000000" fill-rule="nonzero" fill-opacity="1" /><path clip-path="url(#clip582)" d="M374.052 1307.73 L374.052 1423.18 L478.644 1423.18 L478.644 1307.73 L374.052 1307.73 L374.052 1307.73  Z" fill="#009af9" fill-rule="evenodd" fill-opacity="1"/>
<polyline clip-path="url(#clip582)" style="stroke:#000000; stroke-linecap:round; stroke-linejoin:round; stroke-width:4; stroke-opacity:1; fill:none" points="374.052,1307.73 374.052,1423.18 478.644,1423.18 478.644,1307.73 374.052,1307.73 "/>
<path clip-path="url(#clip582)" d="M504.792 1270.01 L504.792 1423.18 L609.384 1423.18 L609.384 1270.01 L504.792 1270.01 L504.792 1270.01  Z" fill="#009af9" fill-rule="evenodd" fill-opacity="1"/>
<polyline clip-path="url(#clip582)" style="stroke:#000000; stroke-linecap:round; stroke-linejoin:round; stroke-width:4; stroke-opacity:1; fill:none" points="504.792,1270.01 504.792,1423.18 609.384,1423.18 609.384,1270.01 504.792,1270.01 "/>
<path clip-path="url(#clip582)" d="M635.532 1317.29 L635.532 1423.18 L740.124 1423.18 L740.124 1317.29 L635.532 1317.29 L635.532 1317.29  Z" fill="#009af9" fill-rule="evenodd" fill-opacity="1"/>
<polyline clip-path="url(#clip582)" style="stroke:#000000; stroke-linecap:round; stroke-linejoin:round; stroke-width:4; stroke-opacity:1; fill:none" points="635.532,1317.29 635.532,1423.18 740.124,1423.18 740.124,1317.29 635.532,1317.29 "/>
<path clip-path="url(#clip582)" d="M766.272 1278.52 L766.272 1423.18 L870.864 1423.18 L870.864 1278.52 L766.272 1278.52 L766.272 1278.52  Z" fill="#009af9" fill-rule="evenodd" fill-opacity="1"/>
<polyline clip-path="url(#clip582)" style="stroke:#000000; stroke-linecap:round; stroke-linejoin:round; stroke-width:4; stroke-opacity:1; fill:none" points="766.272,1278.52 766.272,1423.18 870.864,1423.18 870.864,1278.52 766.272,1278.52 "/>
<path clip-path="url(#clip582)" d="M897.012 1276.21 L897.012 1423.18 L1001.6 1423.18 L1001.6 1276.21 L897.012 1276.21 L897.012 1276.21  Z" fill="#009af9" fill-rule="evenodd" fill-opacity="1"/>
<polyline clip-path="url(#clip582)" style="stroke:#000000; stroke-linecap:round; stroke-linejoin:round; stroke-width:4; stroke-opacity:1; fill:none" points="897.012,1276.21 897.012,1423.18 1001.6,1423.18 1001.6,1276.21 897.012,1276.21 "/>
<path clip-path="url(#clip582)" d="M1027.75 1149.3 L1027.75 1423.18 L1132.34 1423.18 L1132.34 1149.3 L1027.75 1149.3 L1027.75 1149.3  Z" fill="#009af9" fill-rule="evenodd" fill-opacity="1"/>
<polyline clip-path="url(#clip582)" style="stroke:#000000; stroke-linecap:round; stroke-linejoin:round; stroke-width:4; stroke-opacity:1; fill:none" points="1027.75,1149.3 1027.75,1423.18 1132.34,1423.18 1132.34,1149.3 1027.75,1149.3 "/>
<path clip-path="url(#clip582)" d="M1158.49 1372.92 L1158.49 1423.18 L1263.08 1423.18 L1263.08 1372.92 L1158.49 1372.92 L1158.49 1372.92  Z" fill="#009af9" fill-rule="evenodd" fill-opacity="1"/>
<polyline clip-path="url(#clip582)" style="stroke:#000000; stroke-linecap:round; stroke-linejoin:round; stroke-width:4; stroke-opacity:1; fill:none" points="1158.49,1372.92 1158.49,1423.18 1263.08,1423.18 1263.08,1372.92 1158.49,1372.92 "/>
<path clip-path="url(#clip582)" d="M1289.23 1265.99 L1289.23 1423.18 L1393.82 1423.18 L1393.82 1265.99 L1289.23 1265.99 L1289.23 1265.99  Z" fill="#009af9" fill-rule="evenodd" fill-opacity="1"/>
<polyline clip-path="url(#clip582)" style="stroke:#000000; stroke-linecap:round; stroke-linejoin:round; stroke-width:4; stroke-opacity:1; fill:none" points="1289.23,1265.99 1289.23,1423.18 1393.82,1423.18 1393.82,1265.99 1289.23,1265.99 "/>
<path clip-path="url(#clip582)" d="M1419.97 186.464 L1419.97 1423.18 L1524.56 1423.18 L1524.56 186.464 L1419.97 186.464 L1419.97 186.464  Z" fill="#009af9" fill-rule="evenodd" fill-opacity="1"/>
<polyline clip-path="url(#clip582)" style="stroke:#000000; stroke-linecap:round; stroke-linejoin:round; stroke-width:4; stroke-opacity:1; fill:none" points="1419.97,186.464 1419.97,1423.18 1524.56,1423.18 1524.56,186.464 1419.97,186.464 "/>
<path clip-path="url(#clip582)" d="M1550.71 1337.24 L1550.71 1423.18 L1655.3 1423.18 L1655.3 1337.24 L1550.71 1337.24 L1550.71 1337.24  Z" fill="#009af9" fill-rule="evenodd" fill-opacity="1"/>
<polyline clip-path="url(#clip582)" style="stroke:#000000; stroke-linecap:round; stroke-linejoin:round; stroke-width:4; stroke-opacity:1; fill:none" points="1550.71,1337.24 1550.71,1423.18 1655.3,1423.18 1655.3,1337.24 1550.71,1337.24 "/>
<path clip-path="url(#clip582)" d="M1681.45 934.117 L1681.45 1423.18 L1786.04 1423.18 L1786.04 934.117 L1681.45 934.117 L1681.45 934.117  Z" fill="#009af9" fill-rule="evenodd" fill-opacity="1"/>
<polyline clip-path="url(#clip582)" style="stroke:#000000; stroke-linecap:round; stroke-linejoin:round; stroke-width:4; stroke-opacity:1; fill:none" points="1681.45,934.117 1681.45,1423.18 1786.04,1423.18 1786.04,934.117 1681.45,934.117 "/>
<path clip-path="url(#clip582)" d="M1812.19 1409.63 L1812.19 1423.18 L1916.78 1423.18 L1916.78 1409.63 L1812.19 1409.63 L1812.19 1409.63  Z" fill="#009af9" fill-rule="evenodd" fill-opacity="1"/>
<polyline clip-path="url(#clip582)" style="stroke:#000000; stroke-linecap:round; stroke-linejoin:round; stroke-width:4; stroke-opacity:1; fill:none" points="1812.19,1409.63 1812.19,1423.18 1916.78,1423.18 1916.78,1409.63 1812.19,1409.63 "/>
<path clip-path="url(#clip582)" d="M1942.93 1368.9 L1942.93 1423.18 L2047.52 1423.18 L2047.52 1368.9 L1942.93 1368.9 L1942.93 1368.9  Z" fill="#009af9" fill-rule="evenodd" fill-opacity="1"/>
<polyline clip-path="url(#clip582)" style="stroke:#000000; stroke-linecap:round; stroke-linejoin:round; stroke-width:4; stroke-opacity:1; fill:none" points="1942.93,1368.9 1942.93,1423.18 2047.52,1423.18 2047.52,1368.9 1942.93,1368.9 "/>
<path clip-path="url(#clip582)" d="M2073.67 1328.75 L2073.67 1423.18 L2178.26 1423.18 L2178.26 1328.75 L2073.67 1328.75 L2073.67 1328.75  Z" fill="#009af9" fill-rule="evenodd" fill-opacity="1"/>
<polyline clip-path="url(#clip582)" style="stroke:#000000; stroke-linecap:round; stroke-linejoin:round; stroke-width:4; stroke-opacity:1; fill:none" points="2073.67,1328.75 2073.67,1423.18 2178.26,1423.18 2178.26,1328.75 2073.67,1328.75 "/>
<circle clip-path="url(#clip582)" style="fill:#009af9; stroke:none; fill-opacity:0" cx="426.348" cy="1307.73" r="2"/>
<circle clip-path="url(#clip582)" style="fill:#009af9; stroke:none; fill-opacity:0" cx="557.088" cy="1270.01" r="2"/>
<circle clip-path="url(#clip582)" style="fill:#009af9; stroke:none; fill-opacity:0" cx="687.828" cy="1317.29" r="2"/>
<circle clip-path="url(#clip582)" style="fill:#009af9; stroke:none; fill-opacity:0" cx="818.568" cy="1278.52" r="2"/>
<circle clip-path="url(#clip582)" style="fill:#009af9; stroke:none; fill-opacity:0" cx="949.308" cy="1276.21" r="2"/>
<circle clip-path="url(#clip582)" style="fill:#009af9; stroke:none; fill-opacity:0" cx="1080.05" cy="1149.3" r="2"/>
<circle clip-path="url(#clip582)" style="fill:#009af9; stroke:none; fill-opacity:0" cx="1210.79" cy="1372.92" r="2"/>
<circle clip-path="url(#clip582)" style="fill:#009af9; stroke:none; fill-opacity:0" cx="1341.53" cy="1265.99" r="2"/>
<circle clip-path="url(#clip582)" style="fill:#009af9; stroke:none; fill-opacity:0" cx="1472.27" cy="186.464" r="2"/>
<circle clip-path="url(#clip582)" style="fill:#009af9; stroke:none; fill-opacity:0" cx="1603.01" cy="1337.24" r="2"/>
<circle clip-path="url(#clip582)" style="fill:#009af9; stroke:none; fill-opacity:0" cx="1733.75" cy="934.117" r="2"/>
<circle clip-path="url(#clip582)" style="fill:#009af9; stroke:none; fill-opacity:0" cx="1864.49" cy="1409.63" r="2"/>
<circle clip-path="url(#clip582)" style="fill:#009af9; stroke:none; fill-opacity:0" cx="1995.23" cy="1368.9" r="2"/>
<circle clip-path="url(#clip582)" style="fill:#009af9; stroke:none; fill-opacity:0" cx="2125.97" cy="1328.75" r="2"/>
</svg>
