<?xml version="1.0" encoding="utf-8"?>
<svg xmlns="http://www.w3.org/2000/svg" xmlns:xlink="http://www.w3.org/1999/xlink" width="700" height="500" viewBox="0 0 2800 2000">
<defs>
  <clipPath id="clip420">
    <rect x="0" y="0" width="2800" height="2000"/>
  </clipPath>
</defs>
<path clip-path="url(#clip420)" d="M0 2000 L2800 2000 L2800 0 L0 0  Z" fill="#ffffff" fill-rule="evenodd" fill-opacity="1"/>
<defs>
  <clipPath id="clip421">
    <rect x="560" y="0" width="1961" height="1961"/>
  </clipPath>
</defs>
<path clip-path="url(#clip420)" d="M303.226 1758.68 L2689.76 1758.68 L2689.76 125.984 L303.226 125.984  Z" fill="#ffffff" fill-rule="evenodd" fill-opacity="1"/>
<defs>
  <clipPath id="clip422">
    <rect x="303" y="125" width="2388" height="1634"/>
  </clipPath>
</defs>
<polyline clip-path="url(#clip422)" style="stroke:#000000; stroke-linecap:round; stroke-linejoin:round; stroke-width:2; stroke-opacity:0.1; fill:none" points="527.712,1758.68 527.712,125.984 "/>
<polyline clip-path="url(#clip422)" style="stroke:#000000; stroke-linecap:round; stroke-linejoin:round; stroke-width:2; stroke-opacity:0.1; fill:none" points="769.908,1758.68 769.908,125.984 "/>
<polyline clip-path="url(#clip422)" style="stroke:#000000; stroke-linecap:round; stroke-linejoin:round; stroke-width:2; stroke-opacity:0.1; fill:none" points="1012.1,1758.68 1012.1,125.984 "/>
<polyline clip-path="url(#clip422)" style="stroke:#000000; stroke-linecap:round; stroke-linejoin:round; stroke-width:2; stroke-opacity:0.1; fill:none" points="1254.3,1758.68 1254.3,125.984 "/>
<polyline clip-path="url(#clip422)" style="stroke:#000000; stroke-linecap:round; stroke-linejoin:round; stroke-width:2; stroke-opacity:0.1; fill:none" points="1496.49,1758.68 1496.49,125.984 "/>
<polyline clip-path="url(#clip422)" style="stroke:#000000; stroke-linecap:round; stroke-linejoin:round; stroke-width:2; stroke-opacity:0.1; fill:none" points="1738.69,1758.68 1738.69,125.984 "/>
<polyline clip-path="url(#clip422)" style="stroke:#000000; stroke-linecap:round; stroke-linejoin:round; stroke-width:2; stroke-opacity:0.1; fill:none" points="1980.89,1758.68 1980.89,125.984 "/>
<polyline clip-path="url(#clip422)" style="stroke:#000000; stroke-linecap:round; stroke-linejoin:round; stroke-width:2; stroke-opacity:0.1; fill:none" points="2223.08,1758.68 2223.08,125.984 "/>
<polyline clip-path="url(#clip422)" style="stroke:#000000; stroke-linecap:round; stroke-linejoin:round; stroke-width:2; stroke-opacity:0.1; fill:none" points="2465.28,1758.68 2465.28,125.984 "/>
<polyline clip-path="url(#clip422)" style="stroke:#000000; stroke-linecap:round; stroke-linejoin:round; stroke-width:2; stroke-opacity:0.1; fill:none" points="303.226,1758.68 2689.76,1758.68 "/>
<polyline clip-path="url(#clip422)" style="stroke:#000000; stroke-linecap:round; stroke-linejoin:round; stroke-width:2; stroke-opacity:0.1; fill:none" points="303.226,1254.6 2689.76,1254.6 "/>
<polyline clip-path="url(#clip422)" style="stroke:#000000; stroke-linecap:round; stroke-linejoin:round; stroke-width:2; stroke-opacity:0.1; fill:none" points="303.226,750.512 2689.76,750.512 "/>
<polyline clip-path="url(#clip422)" style="stroke:#000000; stroke-linecap:round; stroke-linejoin:round; stroke-width:2; stroke-opacity:0.1; fill:none" points="303.226,246.429 2689.76,246.429 "/>
<polyline clip-path="url(#clip420)" style="stroke:#000000; stroke-linecap:round; stroke-linejoin:round; stroke-width:4; stroke-opacity:1; fill:none" points="303.226,1758.68 2689.76,1758.68 "/>
<polyline clip-path="url(#clip420)" style="stroke:#000000; stroke-linecap:round; stroke-linejoin:round; stroke-width:4; stroke-opacity:1; fill:none" points="527.712,1758.68 527.712,1739.78 "/>
<polyline clip-path="url(#clip420)" style="stroke:#000000; stroke-linecap:round; stroke-linejoin:round; stroke-width:4; stroke-opacity:1; fill:none" points="769.908,1758.68 769.908,1739.78 "/>
<polyline clip-path="url(#clip420)" style="stroke:#000000; stroke-linecap:round; stroke-linejoin:round; stroke-width:4; stroke-opacity:1; fill:none" points="1012.1,1758.68 1012.1,1739.78 "/>
<polyline clip-path="url(#clip420)" style="stroke:#000000; stroke-linecap:round; stroke-linejoin:round; stroke-width:4; stroke-opacity:1; fill:none" points="1254.3,1758.68 1254.3,1739.78 "/>
<polyline clip-path="url(#clip420)" style="stroke:#000000; stroke-linecap:round; stroke-linejoin:round; stroke-width:4; stroke-opacity:1; fill:none" points="1496.49,1758.68 1496.49,1739.78 "/>
<polyline clip-path="url(#clip420)" style="stroke:#000000; stroke-linecap:round; stroke-linejoin:round; stroke-width:4; stroke-opacity:1; fill:none" points="1738.69,1758.68 1738.69,1739.78 "/>
<polyline clip-path="url(#clip420)" style="stroke:#000000; stroke-linecap:round; stroke-linejoin:round; stroke-width:4; stroke-opacity:1; fill:none" points="1980.89,1758.68 1980.89,1739.78 "/>
<polyline clip-path="url(#clip420)" style="stroke:#000000; stroke-linecap:round; stroke-linejoin:round; stroke-width:4; stroke-opacity:1; fill:none" points="2223.08,1758.68 2223.08,1739.78 "/>
<polyline clip-path="url(#clip420)" style="stroke:#000000; stroke-linecap:round; stroke-linejoin:round; stroke-width:4; stroke-opacity:1; fill:none" points="2465.28,1758.68 2465.28,1739.78 "/>
<path clip-path="url(#clip420)" d="M513.285 1839.98 L524.744 1839.98 L524.744 1800.43 L512.278 1802.93 L512.278 1796.54 L524.674 1794.04 L531.688 1794.04 L531.688 1839.98 L543.146 1839.98 L543.146 1845.88 L513.285 1845.88 L513.285 1839.98 Z" fill="#000000" fill-rule="nonzero" fill-opacity="1" /><path clip-path="url(#clip420)" d="M761.887 1839.98 L786.366 1839.98 L786.366 1845.88 L753.45 1845.88 L753.45 1839.98 Q757.443 1835.84 764.318 1828.9 Q771.227 1821.92 772.998 1819.91 Q776.366 1816.12 777.686 1813.52 Q779.04 1810.88 779.04 1808.34 Q779.04 1804.21 776.123 1801.61 Q773.241 1799 768.589 1799 Q765.29 1799 761.609 1800.15 Q757.964 1801.29 753.797 1803.62 L753.797 1796.54 Q758.033 1794.84 761.714 1793.97 Q765.394 1793.1 768.45 1793.1 Q776.505 1793.1 781.297 1797.13 Q786.089 1801.16 786.089 1807.89 Q786.089 1811.09 784.873 1813.97 Q783.693 1816.82 780.533 1820.7 Q779.665 1821.71 775.012 1826.54 Q770.359 1831.33 761.887 1839.98 Z" fill="#000000" fill-rule="nonzero" fill-opacity="1" /><path clip-path="url(#clip420)" d="M1018.48 1817.93 Q1023.51 1819 1026.32 1822.41 Q1029.17 1825.81 1029.17 1830.81 Q1029.17 1838.48 1023.89 1842.68 Q1018.61 1846.89 1008.89 1846.89 Q1005.63 1846.89 1002.16 1846.23 Q998.718 1845.6 995.038 1844.32 L995.038 1837.54 Q997.954 1839.25 1001.43 1840.11 Q1004.9 1840.98 1008.68 1840.98 Q1015.28 1840.98 1018.72 1838.38 Q1022.19 1835.77 1022.19 1830.81 Q1022.19 1826.23 1018.96 1823.66 Q1015.77 1821.05 1010.04 1821.05 L1004 1821.05 L1004 1815.29 L1010.32 1815.29 Q1015.49 1815.29 1018.23 1813.24 Q1020.98 1811.16 1020.98 1807.27 Q1020.98 1803.27 1018.13 1801.16 Q1015.32 1799 1010.04 1799 Q1007.16 1799 1003.86 1799.63 Q1000.56 1800.25 996.6 1801.57 L996.6 1795.32 Q1000.59 1794.21 1004.07 1793.66 Q1007.57 1793.1 1010.66 1793.1 Q1018.65 1793.1 1023.3 1796.75 Q1027.95 1800.36 1027.95 1806.54 Q1027.95 1810.84 1025.49 1813.83 Q1023.02 1816.78 1018.48 1817.93 Z" fill="#000000" fill-rule="nonzero" fill-opacity="1" /><path clip-path="url(#clip420)" d="M1258.81 1800.15 L1241.1 1827.82 L1258.81 1827.82 L1258.81 1800.15 M1256.97 1794.04 L1265.79 1794.04 L1265.79 1827.82 L1273.19 1827.82 L1273.19 1833.66 L1265.79 1833.66 L1265.79 1845.88 L1258.81 1845.88 L1258.81 1833.66 L1235.41 1833.66 L1235.41 1826.89 L1256.97 1794.04 Z" fill="#000000" fill-rule="nonzero" fill-opacity="1" /><path clip-path="url(#clip420)" d="M1481.91 1794.04 L1509.45 1794.04 L1509.45 1799.94 L1488.34 1799.94 L1488.34 1812.65 Q1489.86 1812.13 1491.39 1811.89 Q1492.92 1811.61 1494.45 1811.61 Q1503.13 1811.61 1508.2 1816.36 Q1513.27 1821.12 1513.27 1829.25 Q1513.27 1837.61 1508.06 1842.27 Q1502.85 1846.89 1493.37 1846.89 Q1490.11 1846.89 1486.7 1846.33 Q1483.34 1845.77 1479.72 1844.66 L1479.72 1837.61 Q1482.85 1839.32 1486.18 1840.15 Q1489.52 1840.98 1493.23 1840.98 Q1499.24 1840.98 1502.74 1837.82 Q1506.25 1834.66 1506.25 1829.25 Q1506.25 1823.83 1502.74 1820.67 Q1499.24 1817.51 1493.23 1817.51 Q1490.42 1817.51 1487.61 1818.14 Q1484.83 1818.76 1481.91 1820.08 L1481.91 1794.04 Z" fill="#000000" fill-rule="nonzero" fill-opacity="1" /><path clip-path="url(#clip420)" d="M1739.3 1817.16 Q1734.58 1817.16 1731.8 1820.39 Q1729.06 1823.62 1729.06 1829.25 Q1729.06 1834.84 1731.8 1838.1 Q1734.58 1841.33 1739.3 1841.33 Q1744.02 1841.33 1746.76 1838.1 Q1749.54 1834.84 1749.54 1829.25 Q1749.54 1823.62 1746.76 1820.39 Q1744.02 1817.16 1739.3 1817.16 M1753.22 1795.18 L1753.22 1801.57 Q1750.58 1800.32 1747.87 1799.66 Q1745.2 1799 1742.56 1799 Q1735.62 1799 1731.94 1803.69 Q1728.29 1808.38 1727.77 1817.86 Q1729.82 1814.84 1732.91 1813.24 Q1736 1811.61 1739.71 1811.61 Q1747.53 1811.61 1752.04 1816.36 Q1756.59 1821.09 1756.59 1829.25 Q1756.59 1837.23 1751.87 1842.06 Q1747.15 1846.89 1739.3 1846.89 Q1730.31 1846.89 1725.55 1840.01 Q1720.79 1833.1 1720.79 1820.01 Q1720.79 1807.72 1726.62 1800.43 Q1732.46 1793.1 1742.28 1793.1 Q1744.92 1793.1 1747.6 1793.62 Q1750.31 1794.14 1753.22 1795.18 Z" fill="#000000" fill-rule="nonzero" fill-opacity="1" /><path clip-path="url(#clip420)" d="M1964.22 1794.04 L1997.55 1794.04 L1997.55 1797.02 L1978.73 1845.88 L1971.41 1845.88 L1989.12 1799.94 L1964.22 1799.94 L1964.22 1794.04 Z" fill="#000000" fill-rule="nonzero" fill-opacity="1" /><path clip-path="url(#clip420)" d="M2223.08 1821.26 Q2218.08 1821.26 2215.2 1823.93 Q2212.35 1826.61 2212.35 1831.29 Q2212.35 1835.98 2215.2 1838.66 Q2218.08 1841.33 2223.08 1841.33 Q2228.08 1841.33 2230.96 1838.66 Q2233.85 1835.95 2233.85 1831.29 Q2233.85 1826.61 2230.96 1823.93 Q2228.12 1821.26 2223.08 1821.26 M2216.07 1818.27 Q2211.55 1817.16 2209.02 1814.07 Q2206.52 1810.98 2206.52 1806.54 Q2206.52 1800.32 2210.93 1796.71 Q2215.37 1793.1 2223.08 1793.1 Q2230.82 1793.1 2235.23 1796.71 Q2239.64 1800.32 2239.64 1806.54 Q2239.64 1810.98 2237.11 1814.07 Q2234.61 1817.16 2230.13 1818.27 Q2235.2 1819.45 2238.01 1822.89 Q2240.86 1826.33 2240.86 1831.29 Q2240.86 1838.83 2236.24 1842.86 Q2231.66 1846.89 2223.08 1846.89 Q2214.51 1846.89 2209.89 1842.86 Q2205.3 1838.83 2205.3 1831.29 Q2205.3 1826.33 2208.15 1822.89 Q2211 1819.45 2216.07 1818.27 M2213.5 1807.2 Q2213.5 1811.23 2216 1813.48 Q2218.53 1815.74 2223.08 1815.74 Q2227.6 1815.74 2230.13 1813.48 Q2232.7 1811.23 2232.7 1807.2 Q2232.7 1803.17 2230.13 1800.91 Q2227.6 1798.66 2223.08 1798.66 Q2218.53 1798.66 2216 1800.91 Q2213.5 1803.17 2213.5 1807.2 Z" fill="#000000" fill-rule="nonzero" fill-opacity="1" /><path clip-path="url(#clip420)" d="M2450.73 1844.8 L2450.73 1838.41 Q2453.37 1839.66 2456.08 1840.32 Q2458.78 1840.98 2461.39 1840.98 Q2468.33 1840.98 2471.98 1836.33 Q2475.66 1831.64 2476.18 1822.13 Q2474.17 1825.11 2471.08 1826.71 Q2467.99 1828.31 2464.24 1828.31 Q2456.46 1828.31 2451.91 1823.62 Q2447.4 1818.9 2447.4 1810.74 Q2447.4 1802.75 2452.12 1797.93 Q2456.84 1793.1 2464.69 1793.1 Q2473.68 1793.1 2478.4 1800.01 Q2483.16 1806.89 2483.16 1820.01 Q2483.16 1832.27 2477.33 1839.59 Q2471.53 1846.89 2461.7 1846.89 Q2459.06 1846.89 2456.35 1846.36 Q2453.65 1845.84 2450.73 1844.8 M2464.69 1822.82 Q2469.41 1822.82 2472.15 1819.59 Q2474.93 1816.36 2474.93 1810.74 Q2474.93 1805.15 2472.15 1801.92 Q2469.41 1798.66 2464.69 1798.66 Q2459.97 1798.66 2457.19 1801.92 Q2454.44 1805.15 2454.44 1810.74 Q2454.44 1816.36 2457.19 1819.59 Q2459.97 1822.82 2464.69 1822.82 Z" fill="#000000" fill-rule="nonzero" fill-opacity="1" /><path clip-path="url(#clip420)" d="M1417.92 1888.81 L1424.93 1888.81 L1424.93 1934.74 L1450.18 1934.74 L1450.18 1940.65 L1417.92 1940.65 L1417.92 1888.81 Z" fill="#000000" fill-rule="nonzero" fill-opacity="1" /><path clip-path="url(#clip420)" d="M1471.08 1906.24 Q1465.94 1906.24 1462.95 1910.26 Q1459.97 1914.26 1459.97 1921.24 Q1459.97 1928.22 1462.92 1932.24 Q1465.9 1936.24 1471.08 1936.24 Q1476.18 1936.24 1479.17 1932.21 Q1482.15 1928.18 1482.15 1921.24 Q1482.15 1914.33 1479.17 1910.3 Q1476.18 1906.24 1471.08 1906.24 M1471.08 1900.82 Q1479.41 1900.82 1484.17 1906.24 Q1488.93 1911.65 1488.93 1921.24 Q1488.93 1930.79 1484.17 1936.24 Q1479.41 1941.65 1471.08 1941.65 Q1462.71 1941.65 1457.95 1936.24 Q1453.23 1930.79 1453.23 1921.24 Q1453.23 1911.65 1457.95 1906.24 Q1462.71 1900.82 1471.08 1900.82 Z" fill="#000000" fill-rule="nonzero" fill-opacity="1" /><path clip-path="url(#clip420)" d="M1517.19 1921.1 Q1509.45 1921.1 1506.46 1922.87 Q1503.47 1924.64 1503.47 1928.91 Q1503.47 1932.31 1505.7 1934.33 Q1507.95 1936.31 1511.81 1936.31 Q1517.12 1936.31 1520.31 1932.56 Q1523.54 1928.77 1523.54 1922.52 L1523.54 1921.1 L1517.19 1921.1 M1529.93 1918.46 L1529.93 1940.65 L1523.54 1940.65 L1523.54 1934.74 Q1521.36 1938.28 1518.09 1939.99 Q1514.83 1941.65 1510.11 1941.65 Q1504.13 1941.65 1500.59 1938.32 Q1497.09 1934.95 1497.09 1929.33 Q1497.09 1922.76 1501.46 1919.43 Q1505.87 1916.1 1514.59 1916.1 L1523.54 1916.1 L1523.54 1915.47 Q1523.54 1911.06 1520.63 1908.67 Q1517.74 1906.24 1512.5 1906.24 Q1509.17 1906.24 1506.01 1907.04 Q1502.85 1907.83 1499.93 1909.43 L1499.93 1903.53 Q1503.44 1902.17 1506.74 1901.51 Q1510.04 1900.82 1513.16 1900.82 Q1521.6 1900.82 1525.77 1905.19 Q1529.93 1909.57 1529.93 1918.46 Z" fill="#000000" fill-rule="nonzero" fill-opacity="1" /><path clip-path="url(#clip420)" d="M1568.68 1907.66 L1568.68 1886.62 L1575.07 1886.62 L1575.07 1940.65 L1568.68 1940.65 L1568.68 1934.81 Q1566.67 1938.28 1563.58 1939.99 Q1560.52 1941.65 1556.22 1941.65 Q1549.17 1941.65 1544.72 1936.03 Q1540.31 1930.4 1540.31 1921.24 Q1540.31 1912.07 1544.72 1906.44 Q1549.17 1900.82 1556.22 1900.82 Q1560.52 1900.82 1563.58 1902.52 Q1566.67 1904.19 1568.68 1907.66 M1546.91 1921.24 Q1546.91 1928.29 1549.79 1932.31 Q1552.71 1936.31 1557.78 1936.31 Q1562.85 1936.31 1565.77 1932.31 Q1568.68 1928.29 1568.68 1921.24 Q1568.68 1914.19 1565.77 1910.19 Q1562.85 1906.17 1557.78 1906.17 Q1552.71 1906.17 1549.79 1910.19 Q1546.91 1914.19 1546.91 1921.24 Z" fill="#000000" fill-rule="nonzero" fill-opacity="1" /><polyline clip-path="url(#clip420)" style="stroke:#000000; stroke-linecap:round; stroke-linejoin:round; stroke-width:4; stroke-opacity:1; fill:none" points="303.226,1758.68 303.226,125.984 "/>
<polyline clip-path="url(#clip420)" style="stroke:#000000; stroke-linecap:round; stroke-linejoin:round; stroke-width:4; stroke-opacity:1; fill:none" points="303.226,1758.68 322.124,1758.68 "/>
<polyline clip-path="url(#clip420)" style="stroke:#000000; stroke-linecap:round; stroke-linejoin:round; stroke-width:4; stroke-opacity:1; fill:none" points="303.226,1254.6 322.124,1254.6 "/>
<polyline clip-path="url(#clip420)" style="stroke:#000000; stroke-linecap:round; stroke-linejoin:round; stroke-width:4; stroke-opacity:1; fill:none" points="303.226,750.512 322.124,750.512 "/>
<polyline clip-path="url(#clip420)" style="stroke:#000000; stroke-linecap:round; stroke-linejoin:round; stroke-width:4; stroke-opacity:1; fill:none" points="303.226,246.429 322.124,246.429 "/>
<path clip-path="url(#clip420)" d="M243.31 1737.38 Q237.893 1737.38 235.15 1742.72 Q232.442 1748.04 232.442 1758.73 Q232.442 1769.39 235.15 1774.74 Q237.893 1780.05 243.31 1780.05 Q248.761 1780.05 251.469 1774.74 Q254.212 1769.39 254.212 1758.73 Q254.212 1748.04 251.469 1742.72 Q248.761 1737.38 243.31 1737.38 M243.31 1731.82 Q252.025 1731.82 256.608 1738.73 Q261.226 1745.61 261.226 1758.73 Q261.226 1771.82 256.608 1778.73 Q252.025 1785.61 243.31 1785.61 Q234.594 1785.61 229.976 1778.73 Q225.393 1771.82 225.393 1758.73 Q225.393 1745.61 229.976 1738.73 Q234.594 1731.82 243.31 1731.82 Z" fill="#000000" fill-rule="nonzero" fill-opacity="1" /><path clip-path="url(#clip420)" d="M229.872 1228.68 L257.407 1228.68 L257.407 1234.58 L236.296 1234.58 L236.296 1247.29 Q237.823 1246.77 239.351 1246.52 Q240.879 1246.24 242.407 1246.24 Q251.087 1246.24 256.157 1251 Q261.226 1255.76 261.226 1263.88 Q261.226 1272.25 256.018 1276.9 Q250.81 1281.52 241.33 1281.52 Q238.067 1281.52 234.664 1280.97 Q231.296 1280.41 227.685 1279.3 L227.685 1272.25 Q230.81 1273.95 234.143 1274.79 Q237.476 1275.62 241.191 1275.62 Q247.198 1275.62 250.705 1272.46 Q254.212 1269.3 254.212 1263.88 Q254.212 1258.47 250.705 1255.31 Q247.198 1252.15 241.191 1252.15 Q238.379 1252.15 235.567 1252.77 Q232.789 1253.4 229.872 1254.72 L229.872 1228.68 Z" fill="#000000" fill-rule="nonzero" fill-opacity="1" /><path clip-path="url(#clip420)" d="M184.282 770.529 L195.74 770.529 L195.74 730.981 L183.275 733.481 L183.275 727.092 L195.671 724.592 L202.685 724.592 L202.685 770.529 L214.143 770.529 L214.143 776.432 L184.282 776.432 L184.282 770.529 Z" fill="#000000" fill-rule="nonzero" fill-opacity="1" /><path clip-path="url(#clip420)" d="M243.31 729.21 Q237.893 729.21 235.15 734.557 Q232.442 739.87 232.442 750.564 Q232.442 761.224 235.15 766.571 Q237.893 771.883 243.31 771.883 Q248.761 771.883 251.469 766.571 Q254.212 761.224 254.212 750.564 Q254.212 739.87 251.469 734.557 Q248.761 729.21 243.31 729.21 M243.31 723.654 Q252.025 723.654 256.608 730.564 Q261.226 737.439 261.226 750.564 Q261.226 763.654 256.608 770.564 Q252.025 777.439 243.31 777.439 Q234.594 777.439 229.976 770.564 Q225.393 763.654 225.393 750.564 Q225.393 737.439 229.976 730.564 Q234.594 723.654 243.31 723.654 Z" fill="#000000" fill-rule="nonzero" fill-opacity="1" /><path clip-path="url(#clip420)" d="M185.775 266.446 L197.233 266.446 L197.233 226.898 L184.768 229.398 L184.768 223.009 L197.164 220.509 L204.178 220.509 L204.178 266.446 L215.636 266.446 L215.636 272.349 L185.775 272.349 L185.775 266.446 Z" fill="#000000" fill-rule="nonzero" fill-opacity="1" /><path clip-path="url(#clip420)" d="M229.872 220.509 L257.407 220.509 L257.407 226.412 L236.296 226.412 L236.296 239.12 Q237.823 238.599 239.351 238.356 Q240.879 238.078 242.407 238.078 Q251.087 238.078 256.157 242.835 Q261.226 247.592 261.226 255.717 Q261.226 264.085 256.018 268.738 Q250.81 273.356 241.33 273.356 Q238.067 273.356 234.664 272.8 Q231.296 272.245 227.685 271.134 L227.685 264.085 Q230.81 265.786 234.143 266.62 Q237.476 267.453 241.191 267.453 Q247.198 267.453 250.705 264.293 Q254.212 261.134 254.212 255.717 Q254.212 250.3 250.705 247.141 Q247.198 243.981 241.191 243.981 Q238.379 243.981 235.567 244.606 Q232.789 245.231 229.872 246.55 L229.872 220.509 Z" fill="#000000" fill-rule="nonzero" fill-opacity="1" /><path clip-path="url(#clip420)" d="M73.8831 1212.68 L73.8831 1205.66 L119.82 1205.66 L119.82 1180.42 L125.723 1180.42 L125.723 1212.68 L73.8831 1212.68 Z" fill="#000000" fill-rule="nonzero" fill-opacity="1" /><path clip-path="url(#clip420)" d="M91.3136 1159.52 Q91.3136 1164.66 95.3414 1167.64 Q99.3344 1170.63 106.314 1170.63 Q113.293 1170.63 117.32 1167.68 Q121.313 1164.69 121.313 1159.52 Q121.313 1154.41 117.286 1151.43 Q113.258 1148.44 106.314 1148.44 Q99.4038 1148.44 95.3761 1151.43 Q91.3136 1154.41 91.3136 1159.52 M85.897 1159.52 Q85.897 1151.18 91.3136 1146.43 Q96.7302 1141.67 106.314 1141.67 Q115.862 1141.67 121.313 1146.43 Q126.73 1151.18 126.73 1159.52 Q126.73 1167.89 121.313 1172.64 Q115.862 1177.36 106.314 1177.36 Q96.7302 1177.36 91.3136 1172.64 Q85.897 1167.89 85.897 1159.52 Z" fill="#000000" fill-rule="nonzero" fill-opacity="1" /><path clip-path="url(#clip420)" d="M106.175 1113.41 Q106.175 1121.15 107.945 1124.14 Q109.716 1127.12 113.987 1127.12 Q117.39 1127.12 119.404 1124.9 Q121.383 1122.64 121.383 1118.79 Q121.383 1113.48 117.633 1110.28 Q113.848 1107.05 107.598 1107.05 L106.175 1107.05 L106.175 1113.41 M103.536 1100.66 L125.723 1100.66 L125.723 1107.05 L119.82 1107.05 Q123.362 1109.24 125.063 1112.5 Q126.73 1115.77 126.73 1120.49 Q126.73 1126.46 123.397 1130 Q120.029 1133.51 114.404 1133.51 Q107.841 1133.51 104.508 1129.14 Q101.175 1124.73 101.175 1116.01 L101.175 1107.05 L100.55 1107.05 Q96.14 1107.05 93.7441 1109.97 Q91.3136 1112.85 91.3136 1118.09 Q91.3136 1121.43 92.1122 1124.59 Q92.9108 1127.75 94.508 1130.66 L88.6053 1130.66 Q87.2511 1127.16 86.5914 1123.86 Q85.897 1120.56 85.897 1117.43 Q85.897 1109 90.2719 1104.83 Q94.6469 1100.66 103.536 1100.66 Z" fill="#000000" fill-rule="nonzero" fill-opacity="1" /><path clip-path="url(#clip420)" d="M92.7372 1061.91 L71.6957 1061.91 L71.6957 1055.52 L125.723 1055.52 L125.723 1061.91 L119.89 1061.91 Q123.362 1063.93 125.063 1067.02 Q126.73 1070.07 126.73 1074.38 Q126.73 1081.43 121.105 1085.87 Q115.48 1090.28 106.314 1090.28 Q97.1469 1090.28 91.5219 1085.87 Q85.897 1081.43 85.897 1074.38 Q85.897 1070.07 87.5983 1067.02 Q89.265 1063.93 92.7372 1061.91 M106.314 1083.68 Q113.362 1083.68 117.39 1080.8 Q121.383 1077.89 121.383 1072.82 Q121.383 1067.75 117.39 1064.83 Q113.362 1061.91 106.314 1061.91 Q99.2649 1061.91 95.2719 1064.83 Q91.2442 1067.75 91.2442 1072.82 Q91.2442 1077.89 95.2719 1080.8 Q99.2649 1083.68 106.314 1083.68 Z" fill="#000000" fill-rule="nonzero" fill-opacity="1" /><path clip-path="url(#clip420)" d="M87.9803 994.97 L94.0219 994.97 Q92.633 997.678 91.9386 1000.59 Q91.2442 1003.51 91.2442 1006.64 Q91.2442 1011.39 92.7025 1013.79 Q94.1608 1016.15 97.0775 1016.15 Q99.2997 1016.15 100.584 1014.45 Q101.834 1012.75 102.98 1007.61 L103.466 1005.42 Q104.925 998.616 107.598 995.768 Q110.237 992.886 114.994 992.886 Q120.411 992.886 123.57 997.192 Q126.73 1001.46 126.73 1008.96 Q126.73 1012.09 126.105 1015.49 Q125.515 1018.86 124.3 1022.61 L117.702 1022.61 Q119.543 1019.07 120.48 1015.63 Q121.383 1012.19 121.383 1008.82 Q121.383 1004.31 119.855 1001.88 Q118.293 999.449 115.48 999.449 Q112.876 999.449 111.487 1001.22 Q110.098 1002.96 108.814 1008.89 L108.293 1011.12 Q107.043 1017.05 104.473 1019.69 Q101.869 1022.33 97.3552 1022.33 Q91.8692 1022.33 88.8831 1018.44 Q85.897 1014.55 85.897 1007.4 Q85.897 1003.86 86.4178 1000.73 Q86.9386 997.609 87.9803 994.97 Z" fill="#000000" fill-rule="nonzero" fill-opacity="1" /><path clip-path="url(#clip420)" d="M102.251 950.387 L125.723 950.387 L125.723 956.776 L102.459 956.776 Q96.9386 956.776 94.1955 958.928 Q91.4525 961.081 91.4525 965.387 Q91.4525 970.56 94.7511 973.546 Q98.0497 976.532 103.744 976.532 L125.723 976.532 L125.723 982.956 L71.6957 982.956 L71.6957 976.532 L92.8761 976.532 Q89.3692 974.241 87.6331 971.15 Q85.897 968.025 85.897 963.963 Q85.897 957.262 90.0636 953.824 Q94.1955 950.387 102.251 950.387 Z" fill="#000000" fill-rule="nonzero" fill-opacity="1" /><path clip-path="url(#clip420)" d="M104.682 904.38 L107.807 904.38 L107.807 933.755 Q114.404 933.338 117.876 929.797 Q121.313 926.22 121.313 919.866 Q121.313 916.185 120.411 912.748 Q119.508 909.276 117.702 905.873 L123.744 905.873 Q125.202 909.311 125.966 912.922 Q126.73 916.533 126.73 920.248 Q126.73 929.553 121.313 935.005 Q115.897 940.421 106.661 940.421 Q97.1122 940.421 91.5219 935.283 Q85.897 930.109 85.897 921.359 Q85.897 913.512 90.9664 908.963 Q96.0011 904.38 104.682 904.38 M102.807 910.769 Q97.5636 910.838 94.4386 913.72 Q91.3136 916.567 91.3136 921.29 Q91.3136 926.637 94.3344 929.866 Q97.3552 933.06 102.841 933.546 L102.807 910.769 Z" fill="#000000" fill-rule="nonzero" fill-opacity="1" /><path clip-path="url(#clip420)" d="M92.7372 868.304 L71.6957 868.304 L71.6957 861.915 L125.723 861.915 L125.723 868.304 L119.89 868.304 Q123.362 870.318 125.063 873.408 Q126.73 876.463 126.73 880.769 Q126.73 887.818 121.105 892.262 Q115.48 896.672 106.314 896.672 Q97.1469 896.672 91.5219 892.262 Q85.897 887.818 85.897 880.769 Q85.897 876.463 87.5983 873.408 Q89.265 870.318 92.7372 868.304 M106.314 890.074 Q113.362 890.074 117.39 887.193 Q121.383 884.276 121.383 879.206 Q121.383 874.137 117.39 871.22 Q113.362 868.304 106.314 868.304 Q99.2649 868.304 95.2719 871.22 Q91.2442 874.137 91.2442 879.206 Q91.2442 884.276 95.2719 887.193 Q99.2649 890.074 106.314 890.074 Z" fill="#000000" fill-rule="nonzero" fill-opacity="1" /><path clip-path="url(#clip420)" d="M71.7651 810.804 Q79.7512 815.457 87.5636 817.714 Q95.3761 819.971 103.397 819.971 Q111.418 819.971 119.3 817.714 Q127.147 815.422 135.098 810.804 L135.098 816.36 Q126.938 821.568 119.057 824.172 Q111.175 826.742 103.397 826.742 Q95.6539 826.742 87.8067 824.172 Q79.9595 821.603 71.7651 816.36 L71.7651 810.804 Z" fill="#000000" fill-rule="nonzero" fill-opacity="1" /><path clip-path="url(#clip420)" d="M71.6957 798.651 L71.6957 792.228 L103.605 792.228 L86.8345 773.165 L86.8345 765.006 L105.029 785.631 L125.723 764.138 L125.723 772.471 L106.73 792.228 L125.723 792.228 L125.723 798.651 L71.6957 798.651 Z" fill="#000000" fill-rule="nonzero" fill-opacity="1" /><path clip-path="url(#clip420)" d="M73.8831 761.568 L73.8831 754.485 L117.702 743.582 L73.8831 732.714 L73.8831 724.832 L117.702 713.93 L73.8831 703.062 L73.8831 695.944 L125.723 708.964 L125.723 717.784 L80.7234 728.721 L125.723 739.763 L125.723 748.582 L73.8831 761.568 Z" fill="#000000" fill-rule="nonzero" fill-opacity="1" /><path clip-path="url(#clip420)" d="M71.7651 687.923 L71.7651 682.367 Q79.9595 677.159 87.8067 674.59 Q95.6539 671.985 103.397 671.985 Q111.175 671.985 119.057 674.59 Q126.938 677.159 135.098 682.367 L135.098 687.923 Q127.147 683.305 119.3 681.048 Q111.418 678.756 103.397 678.756 Q95.3761 678.756 87.5636 681.048 Q79.7512 683.305 71.7651 687.923 Z" fill="#000000" fill-rule="nonzero" fill-opacity="1" /><path clip-path="url(#clip422)" d="M430.834 1758.68 L430.834 1758.68 L495.42 1758.68 L495.42 1758.68 L430.834 1758.68 L430.834 1758.68  Z" fill="#009af9" fill-rule="evenodd" fill-opacity="1"/>
<polyline clip-path="url(#clip422)" style="stroke:#000000; stroke-linecap:round; stroke-linejoin:round; stroke-width:24; stroke-opacity:1; fill:none" points="430.834,1758.68 430.834,1758.68 495.42,1758.68 430.834,1758.68 "/>
<path clip-path="url(#clip422)" d="M673.03 1758.68 L673.03 1758.68 L737.615 1758.68 L737.615 1758.68 L673.03 1758.68 L673.03 1758.68  Z" fill="#009af9" fill-rule="evenodd" fill-opacity="1"/>
<polyline clip-path="url(#clip422)" style="stroke:#000000; stroke-linecap:round; stroke-linejoin:round; stroke-width:24; stroke-opacity:1; fill:none" points="673.03,1758.68 673.03,1758.68 737.615,1758.68 673.03,1758.68 "/>
<path clip-path="url(#clip422)" d="M915.225 805.827 L915.225 1758.68 L979.811 1758.68 L979.811 805.827 L915.225 805.827 L915.225 805.827  Z" fill="#009af9" fill-rule="evenodd" fill-opacity="1"/>
<polyline clip-path="url(#clip422)" style="stroke:#000000; stroke-linecap:round; stroke-linejoin:round; stroke-width:24; stroke-opacity:1; fill:none" points="915.225,805.827 915.225,1758.68 979.811,1758.68 979.811,805.827 915.225,805.827 "/>
<path clip-path="url(#clip422)" d="M1157.42 1370.9 L1157.42 1758.68 L1222.01 1758.68 L1222.01 1370.9 L1157.42 1370.9 L1157.42 1370.9  Z" fill="#009af9" fill-rule="evenodd" fill-opacity="1"/>
<polyline clip-path="url(#clip422)" style="stroke:#000000; stroke-linecap:round; stroke-linejoin:round; stroke-width:24; stroke-opacity:1; fill:none" points="1157.42,1370.9 1157.42,1758.68 1222.01,1758.68 1222.01,1370.9 1157.42,1370.9 "/>
<path clip-path="url(#clip422)" d="M1399.62 1758.68 L1399.62 1758.68 L1464.2 1758.68 L1464.2 1758.68 L1399.62 1758.68 L1399.62 1758.68  Z" fill="#009af9" fill-rule="evenodd" fill-opacity="1"/>
<polyline clip-path="url(#clip422)" style="stroke:#000000; stroke-linecap:round; stroke-linejoin:round; stroke-width:24; stroke-opacity:1; fill:none" points="1399.62,1758.68 1399.62,1758.68 1464.2,1758.68 1399.62,1758.68 "/>
<path clip-path="url(#clip422)" d="M1641.81 1758.68 L1641.81 1758.68 L1706.4 1758.68 L1706.4 1758.68 L1641.81 1758.68 L1641.81 1758.68  Z" fill="#009af9" fill-rule="evenodd" fill-opacity="1"/>
<polyline clip-path="url(#clip422)" style="stroke:#000000; stroke-linecap:round; stroke-linejoin:round; stroke-width:24; stroke-opacity:1; fill:none" points="1641.81,1758.68 1641.81,1758.68 1706.4,1758.68 1641.81,1758.68 "/>
<path clip-path="url(#clip422)" d="M1884.01 1137.72 L1884.01 1758.68 L1948.59 1758.68 L1948.59 1137.72 L1884.01 1137.72 L1884.01 1137.72  Z" fill="#009af9" fill-rule="evenodd" fill-opacity="1"/>
<polyline clip-path="url(#clip422)" style="stroke:#000000; stroke-linecap:round; stroke-linejoin:round; stroke-width:24; stroke-opacity:1; fill:none" points="1884.01,1137.72 1884.01,1758.68 1948.59,1758.68 1948.59,1137.72 1884.01,1137.72 "/>
<path clip-path="url(#clip422)" d="M2126.2 1758.68 L2126.2 1758.68 L2190.79 1758.68 L2190.79 1758.68 L2126.2 1758.68 L2126.2 1758.68  Z" fill="#009af9" fill-rule="evenodd" fill-opacity="1"/>
<polyline clip-path="url(#clip422)" style="stroke:#000000; stroke-linecap:round; stroke-linejoin:round; stroke-width:24; stroke-opacity:1; fill:none" points="2126.2,1758.68 2126.2,1758.68 2190.79,1758.68 2126.2,1758.68 "/>
<path clip-path="url(#clip422)" d="M2368.4 1055.22 L2368.4 1758.68 L2432.98 1758.68 L2432.98 1055.22 L2368.4 1055.22 L2368.4 1055.22  Z" fill="#009af9" fill-rule="evenodd" fill-opacity="1"/>
<polyline clip-path="url(#clip422)" style="stroke:#000000; stroke-linecap:round; stroke-linejoin:round; stroke-width:24; stroke-opacity:1; fill:none" points="2368.4,1055.22 2368.4,1758.68 2432.98,1758.68 2432.98,1055.22 2368.4,1055.22 "/>
<circle clip-path="url(#clip422)" style="fill:#009af9; stroke:none; fill-opacity:0" cx="463.127" cy="1758.68" r="2"/>
<circle clip-path="url(#clip422)" style="fill:#009af9; stroke:none; fill-opacity:0" cx="705.323" cy="1758.68" r="2"/>
<circle clip-path="url(#clip422)" style="fill:#009af9; stroke:none; fill-opacity:0" cx="947.518" cy="805.827" r="2"/>
<circle clip-path="url(#clip422)" style="fill:#009af9; stroke:none; fill-opacity:0" cx="1189.71" cy="1370.9" r="2"/>
<circle clip-path="url(#clip422)" style="fill:#009af9; stroke:none; fill-opacity:0" cx="1431.91" cy="1758.68" r="2"/>
<circle clip-path="url(#clip422)" style="fill:#009af9; stroke:none; fill-opacity:0" cx="1674.11" cy="1758.68" r="2"/>
<circle clip-path="url(#clip422)" style="fill:#009af9; stroke:none; fill-opacity:0" cx="1916.3" cy="1137.72" r="2"/>
<circle clip-path="url(#clip422)" style="fill:#009af9; stroke:none; fill-opacity:0" cx="2158.5" cy="1758.68" r="2"/>
<circle clip-path="url(#clip422)" style="fill:#009af9; stroke:none; fill-opacity:0" cx="2400.69" cy="1055.22" r="2"/>
<path clip-path="url(#clip422)" d="M495.42 1336.09 L495.42 1758.68 L560.005 1758.68 L560.005 1336.09 L495.42 1336.09 L495.42 1336.09  Z" fill="#e26f46" fill-rule="evenodd" fill-opacity="1"/>
<polyline clip-path="url(#clip422)" style="stroke:#000000; stroke-linecap:round; stroke-linejoin:round; stroke-width:24; stroke-opacity:1; fill:none" points="495.42,1336.09 495.42,1758.68 560.005,1758.68 560.005,1336.09 495.42,1336.09 "/>
<path clip-path="url(#clip422)" d="M737.615 702.197 L737.615 1758.68 L802.201 1758.68 L802.201 702.197 L737.615 702.197 L737.615 702.197  Z" fill="#e26f46" fill-rule="evenodd" fill-opacity="1"/>
<polyline clip-path="url(#clip422)" style="stroke:#000000; stroke-linecap:round; stroke-linejoin:round; stroke-width:24; stroke-opacity:1; fill:none" points="737.615,702.197 737.615,1758.68 802.201,1758.68 802.201,702.197 737.615,702.197 "/>
<path clip-path="url(#clip422)" d="M979.811 125.984 L979.811 1758.68 L1044.4 1758.68 L1044.4 125.984 L979.811 125.984 L979.811 125.984  Z" fill="#e26f46" fill-rule="evenodd" fill-opacity="1"/>
<polyline clip-path="url(#clip422)" style="stroke:#000000; stroke-linecap:round; stroke-linejoin:round; stroke-width:24; stroke-opacity:1; fill:none" points="979.811,125.984 979.811,1758.68 1044.4,1758.68 1044.4,125.984 979.811,125.984 "/>
<path clip-path="url(#clip422)" d="M1222.01 1403.21 L1222.01 1758.68 L1286.59 1758.68 L1286.59 1403.21 L1222.01 1403.21 L1222.01 1403.21  Z" fill="#e26f46" fill-rule="evenodd" fill-opacity="1"/>
<polyline clip-path="url(#clip422)" style="stroke:#000000; stroke-linecap:round; stroke-linejoin:round; stroke-width:24; stroke-opacity:1; fill:none" points="1222.01,1403.21 1222.01,1758.68 1286.59,1758.68 1286.59,1403.21 1222.01,1403.21 "/>
<path clip-path="url(#clip422)" d="M1464.2 1758.68 L1464.2 1758.68 L1528.79 1758.68 L1528.79 1758.68 L1464.2 1758.68 L1464.2 1758.68  Z" fill="#e26f46" fill-rule="evenodd" fill-opacity="1"/>
<polyline clip-path="url(#clip422)" style="stroke:#000000; stroke-linecap:round; stroke-linejoin:round; stroke-width:24; stroke-opacity:1; fill:none" points="1464.2,1758.68 1464.2,1758.68 1528.79,1758.68 1464.2,1758.68 "/>
<path clip-path="url(#clip422)" d="M1706.4 913.493 L1706.4 1758.68 L1770.98 1758.68 L1770.98 913.493 L1706.4 913.493 L1706.4 913.493  Z" fill="#e26f46" fill-rule="evenodd" fill-opacity="1"/>
<polyline clip-path="url(#clip422)" style="stroke:#000000; stroke-linecap:round; stroke-linejoin:round; stroke-width:24; stroke-opacity:1; fill:none" points="1706.4,913.493 1706.4,1758.68 1770.98,1758.68 1770.98,913.493 1706.4,913.493 "/>
<path clip-path="url(#clip422)" d="M1948.59 666.647 L1948.59 1758.68 L2013.18 1758.68 L2013.18 666.647 L1948.59 666.647 L1948.59 666.647  Z" fill="#e26f46" fill-rule="evenodd" fill-opacity="1"/>
<polyline clip-path="url(#clip422)" style="stroke:#000000; stroke-linecap:round; stroke-linejoin:round; stroke-width:24; stroke-opacity:1; fill:none" points="1948.59,666.647 1948.59,1758.68 2013.18,1758.68 2013.18,666.647 1948.59,666.647 "/>
<path clip-path="url(#clip422)" d="M2190.79 173.957 L2190.79 1758.68 L2255.37 1758.68 L2255.37 173.957 L2190.79 173.957 L2190.79 173.957  Z" fill="#e26f46" fill-rule="evenodd" fill-opacity="1"/>
<polyline clip-path="url(#clip422)" style="stroke:#000000; stroke-linecap:round; stroke-linejoin:round; stroke-width:24; stroke-opacity:1; fill:none" points="2190.79,173.957 2190.79,1758.68 2255.37,1758.68 2255.37,173.957 2190.79,173.957 "/>
<path clip-path="url(#clip422)" d="M2432.98 1019.14 L2432.98 1758.68 L2497.57 1758.68 L2497.57 1019.14 L2432.98 1019.14 L2432.98 1019.14  Z" fill="#e26f46" fill-rule="evenodd" fill-opacity="1"/>
<polyline clip-path="url(#clip422)" style="stroke:#000000; stroke-linecap:round; stroke-linejoin:round; stroke-width:24; stroke-opacity:1; fill:none" points="2432.98,1019.14 2432.98,1758.68 2497.57,1758.68 2497.57,1019.14 2432.98,1019.14 "/>
<circle clip-path="url(#clip422)" style="fill:#e26f46; stroke:none; fill-opacity:0" cx="527.712" cy="1336.09" r="2"/>
<circle clip-path="url(#clip422)" style="fill:#e26f46; stroke:none; fill-opacity:0" cx="769.908" cy="702.197" r="2"/>
<circle clip-path="url(#clip422)" style="fill:#e26f46; stroke:none; fill-opacity:0" cx="1012.1" cy="125.984" r="2"/>
<circle clip-path="url(#clip422)" style="fill:#e26f46; stroke:none; fill-opacity:0" cx="1254.3" cy="1403.21" r="2"/>
<circle clip-path="url(#clip422)" style="fill:#e26f46; stroke:none; fill-opacity:0" cx="1496.49" cy="1758.68" r="2"/>
<circle clip-path="url(#clip422)" style="fill:#e26f46; stroke:none; fill-opacity:0" cx="1738.69" cy="913.493" r="2"/>
<circle clip-path="url(#clip422)" style="fill:#e26f46; stroke:none; fill-opacity:0" cx="1980.89" cy="666.647" r="2"/>
<circle clip-path="url(#clip422)" style="fill:#e26f46; stroke:none; fill-opacity:0" cx="2223.08" cy="173.957" r="2"/>
<circle clip-path="url(#clip422)" style="fill:#e26f46; stroke:none; fill-opacity:0" cx="2465.28" cy="1019.14" r="2"/>
<path clip-path="url(#clip422)" d="M560.005 1325.78 L560.005 1758.68 L624.591 1758.68 L624.591 1325.78 L560.005 1325.78 L560.005 1325.78  Z" fill="#3da44d" fill-rule="evenodd" fill-opacity="1"/>
<polyline clip-path="url(#clip422)" style="stroke:#000000; stroke-linecap:round; stroke-linejoin:round; stroke-width:24; stroke-opacity:1; fill:none" points="560.005,1325.78 560.005,1758.68 624.591,1758.68 624.591,1325.78 560.005,1325.78 "/>
<path clip-path="url(#clip422)" d="M802.201 650.662 L802.201 1758.68 L866.786 1758.68 L866.786 650.662 L802.201 650.662 L802.201 650.662  Z" fill="#3da44d" fill-rule="evenodd" fill-opacity="1"/>
<polyline clip-path="url(#clip422)" style="stroke:#000000; stroke-linecap:round; stroke-linejoin:round; stroke-width:24; stroke-opacity:1; fill:none" points="802.201,650.662 802.201,1758.68 866.786,1758.68 866.786,650.662 802.201,650.662 "/>
<path clip-path="url(#clip422)" d="M1044.4 666.647 L1044.4 1758.68 L1108.98 1758.68 L1108.98 666.647 L1044.4 666.647 L1044.4 666.647  Z" fill="#3da44d" fill-rule="evenodd" fill-opacity="1"/>
<polyline clip-path="url(#clip422)" style="stroke:#000000; stroke-linecap:round; stroke-linejoin:round; stroke-width:24; stroke-opacity:1; fill:none" points="1044.4,666.647 1044.4,1758.68 1108.98,1758.68 1108.98,666.647 1044.4,666.647 "/>
<path clip-path="url(#clip422)" d="M1286.59 1209.32 L1286.59 1758.68 L1351.18 1758.68 L1351.18 1209.32 L1286.59 1209.32 L1286.59 1209.32  Z" fill="#3da44d" fill-rule="evenodd" fill-opacity="1"/>
<polyline clip-path="url(#clip422)" style="stroke:#000000; stroke-linecap:round; stroke-linejoin:round; stroke-width:24; stroke-opacity:1; fill:none" points="1286.59,1209.32 1286.59,1758.68 1351.18,1758.68 1351.18,1209.32 1286.59,1209.32 "/>
<path clip-path="url(#clip422)" d="M1528.79 1758.68 L1528.79 1758.68 L1593.37 1758.68 L1593.37 1758.68 L1528.79 1758.68 L1528.79 1758.68  Z" fill="#3da44d" fill-rule="evenodd" fill-opacity="1"/>
<polyline clip-path="url(#clip422)" style="stroke:#000000; stroke-linecap:round; stroke-linejoin:round; stroke-width:24; stroke-opacity:1; fill:none" points="1528.79,1758.68 1528.79,1758.68 1593.37,1758.68 1528.79,1758.68 "/>
<path clip-path="url(#clip422)" d="M1770.98 913.493 L1770.98 1758.68 L1835.57 1758.68 L1835.57 913.493 L1770.98 913.493 L1770.98 913.493  Z" fill="#3da44d" fill-rule="evenodd" fill-opacity="1"/>
<polyline clip-path="url(#clip422)" style="stroke:#000000; stroke-linecap:round; stroke-linejoin:round; stroke-width:24; stroke-opacity:1; fill:none" points="1770.98,913.493 1770.98,1758.68 1835.57,1758.68 1835.57,913.493 1770.98,913.493 "/>
<path clip-path="url(#clip422)" d="M2013.18 1030.66 L2013.18 1758.68 L2077.76 1758.68 L2077.76 1030.66 L2013.18 1030.66 L2013.18 1030.66  Z" fill="#3da44d" fill-rule="evenodd" fill-opacity="1"/>
<polyline clip-path="url(#clip422)" style="stroke:#000000; stroke-linecap:round; stroke-linejoin:round; stroke-width:24; stroke-opacity:1; fill:none" points="2013.18,1030.66 2013.18,1758.68 2077.76,1758.68 2077.76,1030.66 2013.18,1030.66 "/>
<path clip-path="url(#clip422)" d="M2255.37 135.305 L2255.37 1758.68 L2319.96 1758.68 L2319.96 135.305 L2255.37 135.305 L2255.37 135.305  Z" fill="#3da44d" fill-rule="evenodd" fill-opacity="1"/>
<polyline clip-path="url(#clip422)" style="stroke:#000000; stroke-linecap:round; stroke-linejoin:round; stroke-width:24; stroke-opacity:1; fill:none" points="2255.37,135.305 2255.37,1758.68 2319.96,1758.68 2319.96,135.305 2255.37,135.305 "/>
<path clip-path="url(#clip422)" d="M2497.57 1019.14 L2497.57 1758.68 L2562.16 1758.68 L2562.16 1019.14 L2497.57 1019.14 L2497.57 1019.14  Z" fill="#3da44d" fill-rule="evenodd" fill-opacity="1"/>
<polyline clip-path="url(#clip422)" style="stroke:#000000; stroke-linecap:round; stroke-linejoin:round; stroke-width:24; stroke-opacity:1; fill:none" points="2497.57,1019.14 2497.57,1758.68 2562.16,1758.68 2562.16,1019.14 2497.57,1019.14 "/>
<circle clip-path="url(#clip422)" style="fill:#3da44d; stroke:none; fill-opacity:0" cx="592.298" cy="1325.78" r="2"/>
<circle clip-path="url(#clip422)" style="fill:#3da44d; stroke:none; fill-opacity:0" cx="834.494" cy="650.662" r="2"/>
<circle clip-path="url(#clip422)" style="fill:#3da44d; stroke:none; fill-opacity:0" cx="1076.69" cy="666.647" r="2"/>
<circle clip-path="url(#clip422)" style="fill:#3da44d; stroke:none; fill-opacity:0" cx="1318.88" cy="1209.32" r="2"/>
<circle clip-path="url(#clip422)" style="fill:#3da44d; stroke:none; fill-opacity:0" cx="1561.08" cy="1758.68" r="2"/>
<circle clip-path="url(#clip422)" style="fill:#3da44d; stroke:none; fill-opacity:0" cx="1803.28" cy="913.493" r="2"/>
<circle clip-path="url(#clip422)" style="fill:#3da44d; stroke:none; fill-opacity:0" cx="2045.47" cy="1030.66" r="2"/>
<circle clip-path="url(#clip422)" style="fill:#3da44d; stroke:none; fill-opacity:0" cx="2287.67" cy="135.305" r="2"/>
<circle clip-path="url(#clip422)" style="fill:#3da44d; stroke:none; fill-opacity:0" cx="2529.86" cy="1019.14" r="2"/>
<path clip-path="url(#clip420)" d="M2200.24 491.447 L2610.21 491.447 L2610.21 180.407 L2200.24 180.407  Z" fill="#ffffff" fill-rule="evenodd" fill-opacity="1"/>
<polyline clip-path="url(#clip420)" style="stroke:#000000; stroke-linecap:round; stroke-linejoin:round; stroke-width:4; stroke-opacity:1; fill:none" points="2200.24,491.447 2610.21,491.447 2610.21,180.407 2200.24,180.407 2200.24,491.447 "/>
<path clip-path="url(#clip420)" d="M2226.76 289.271 L2385.86 289.271 L2385.86 227.063 L2226.76 227.063 L2226.76 289.271  Z" fill="#009af9" fill-rule="evenodd" fill-opacity="1"/>
<polyline clip-path="url(#clip420)" style="stroke:#000000; stroke-linecap:round; stroke-linejoin:round; stroke-width:30; stroke-opacity:1; fill:none" points="2226.76,289.271 2385.86,289.271 2385.86,227.063 2226.76,227.063 2226.76,289.271 "/>
<path clip-path="url(#clip420)" d="M2423.49 234.157 L2423.49 245.199 L2436.65 245.199 L2436.65 250.164 L2423.49 250.164 L2423.49 271.275 Q2423.49 276.032 2424.77 277.386 Q2426.09 278.74 2430.09 278.74 L2436.65 278.74 L2436.65 284.087 L2430.09 284.087 Q2422.69 284.087 2419.88 281.344 Q2417.06 278.567 2417.06 271.275 L2417.06 250.164 L2412.38 250.164 L2412.38 245.199 L2417.06 245.199 L2417.06 234.157 L2423.49 234.157 Z" fill="#000000" fill-rule="nonzero" fill-opacity="1" /><path clip-path="url(#clip420)" d="M2445.88 251.796 L2490.4 251.796 L2490.4 257.629 L2445.88 257.629 L2445.88 251.796 M2445.88 265.962 L2490.4 265.962 L2490.4 271.865 L2445.88 271.865 L2445.88 265.962 Z" fill="#000000" fill-rule="nonzero" fill-opacity="1" /><path clip-path="url(#clip420)" d="M2521.4 255.372 Q2516.68 255.372 2513.9 258.601 Q2511.16 261.831 2511.16 267.456 Q2511.16 273.046 2513.9 276.31 Q2516.68 279.539 2521.4 279.539 Q2526.13 279.539 2528.87 276.31 Q2531.65 273.046 2531.65 267.456 Q2531.65 261.831 2528.87 258.601 Q2526.13 255.372 2521.4 255.372 M2535.33 233.393 L2535.33 239.782 Q2532.69 238.532 2529.98 237.872 Q2527.31 237.213 2524.67 237.213 Q2517.72 237.213 2514.04 241.9 Q2510.4 246.588 2509.88 256.067 Q2511.92 253.046 2515.02 251.449 Q2518.11 249.817 2521.82 249.817 Q2529.63 249.817 2534.15 254.574 Q2538.7 259.296 2538.7 267.456 Q2538.7 275.442 2533.97 280.268 Q2529.25 285.094 2521.4 285.094 Q2512.41 285.094 2507.65 278.219 Q2502.9 271.31 2502.9 258.219 Q2502.9 245.928 2508.73 238.636 Q2514.56 231.31 2524.39 231.31 Q2527.03 231.31 2529.7 231.831 Q2532.41 232.352 2535.33 233.393 Z" fill="#000000" fill-rule="nonzero" fill-opacity="1" /><path clip-path="url(#clip420)" d="M2226.76 367.031 L2385.86 367.031 L2385.86 304.823 L2226.76 304.823 L2226.76 367.031  Z" fill="#e26f46" fill-rule="evenodd" fill-opacity="1"/>
<polyline clip-path="url(#clip420)" style="stroke:#000000; stroke-linecap:round; stroke-linejoin:round; stroke-width:30; stroke-opacity:1; fill:none" points="2226.76,367.031 2385.86,367.031 2385.86,304.823 2226.76,304.823 2226.76,367.031 "/>
<path clip-path="url(#clip420)" d="M2423.49 311.917 L2423.49 322.959 L2436.65 322.959 L2436.65 327.924 L2423.49 327.924 L2423.49 349.035 Q2423.49 353.792 2424.77 355.146 Q2426.09 356.5 2430.09 356.5 L2436.65 356.5 L2436.65 361.847 L2430.09 361.847 Q2422.69 361.847 2419.88 359.104 Q2417.06 356.327 2417.06 349.035 L2417.06 327.924 L2412.38 327.924 L2412.38 322.959 L2417.06 322.959 L2417.06 311.917 L2423.49 311.917 Z" fill="#000000" fill-rule="nonzero" fill-opacity="1" /><path clip-path="url(#clip420)" d="M2445.88 329.556 L2490.4 329.556 L2490.4 335.389 L2445.88 335.389 L2445.88 329.556 M2445.88 343.722 L2490.4 343.722 L2490.4 349.625 L2445.88 349.625 L2445.88 343.722 Z" fill="#000000" fill-rule="nonzero" fill-opacity="1" /><path clip-path="url(#clip420)" d="M2506.75 355.945 L2518.21 355.945 L2518.21 316.396 L2505.74 318.896 L2505.74 312.507 L2518.14 310.007 L2525.15 310.007 L2525.15 355.945 L2536.61 355.945 L2536.61 361.847 L2506.75 361.847 L2506.75 355.945 Z" fill="#000000" fill-rule="nonzero" fill-opacity="1" /><path clip-path="url(#clip420)" d="M2551.99 355.945 L2563.45 355.945 L2563.45 316.396 L2550.99 318.896 L2550.99 312.507 L2563.38 310.007 L2570.4 310.007 L2570.4 355.945 L2581.86 355.945 L2581.86 361.847 L2551.99 361.847 L2551.99 355.945 Z" fill="#000000" fill-rule="nonzero" fill-opacity="1" /><path clip-path="url(#clip420)" d="M2226.76 444.791 L2385.86 444.791 L2385.86 382.583 L2226.76 382.583 L2226.76 444.791  Z" fill="#3da44d" fill-rule="evenodd" fill-opacity="1"/>
<polyline clip-path="url(#clip420)" style="stroke:#000000; stroke-linecap:round; stroke-linejoin:round; stroke-width:30; stroke-opacity:1; fill:none" points="2226.76,444.791 2385.86,444.791 2385.86,382.583 2226.76,382.583 2226.76,444.791 "/>
<path clip-path="url(#clip420)" d="M2423.49 389.677 L2423.49 400.719 L2436.65 400.719 L2436.65 405.684 L2423.49 405.684 L2423.49 426.795 Q2423.49 431.552 2424.77 432.906 Q2426.09 434.26 2430.09 434.26 L2436.65 434.26 L2436.65 439.607 L2430.09 439.607 Q2422.69 439.607 2419.88 436.864 Q2417.06 434.087 2417.06 426.795 L2417.06 405.684 L2412.38 405.684 L2412.38 400.719 L2417.06 400.719 L2417.06 389.677 L2423.49 389.677 Z" fill="#000000" fill-rule="nonzero" fill-opacity="1" /><path clip-path="url(#clip420)" d="M2445.88 407.316 L2490.4 407.316 L2490.4 413.149 L2445.88 413.149 L2445.88 407.316 M2445.88 421.482 L2490.4 421.482 L2490.4 427.385 L2445.88 427.385 L2445.88 421.482 Z" fill="#000000" fill-rule="nonzero" fill-opacity="1" /><path clip-path="url(#clip420)" d="M2511.58 433.705 L2536.06 433.705 L2536.06 439.607 L2503.14 439.607 L2503.14 433.705 Q2507.13 429.573 2514.01 422.628 Q2520.92 415.649 2522.69 413.635 Q2526.06 409.851 2527.38 407.246 Q2528.73 404.608 2528.73 402.073 Q2528.73 397.941 2525.81 395.337 Q2522.93 392.733 2518.28 392.733 Q2514.98 392.733 2511.3 393.878 Q2507.65 395.024 2503.49 397.351 L2503.49 390.267 Q2507.72 388.566 2511.4 387.698 Q2515.08 386.83 2518.14 386.83 Q2526.2 386.83 2530.99 390.858 Q2535.78 394.885 2535.78 401.621 Q2535.78 404.816 2534.56 407.698 Q2533.38 410.545 2530.22 414.434 Q2529.36 415.441 2524.7 420.267 Q2520.05 425.059 2511.58 433.705 Z" fill="#000000" fill-rule="nonzero" fill-opacity="1" /><path clip-path="url(#clip420)" d="M2565.78 392.385 Q2560.36 392.385 2557.62 397.733 Q2554.91 403.045 2554.91 413.739 Q2554.91 424.399 2557.62 429.746 Q2560.36 435.059 2565.78 435.059 Q2571.23 435.059 2573.94 429.746 Q2576.68 424.399 2576.68 413.739 Q2576.68 403.045 2573.94 397.733 Q2571.23 392.385 2565.78 392.385 M2565.78 386.83 Q2574.49 386.83 2579.08 393.74 Q2583.7 400.615 2583.7 413.739 Q2583.7 426.83 2579.08 433.739 Q2574.49 440.614 2565.78 440.614 Q2557.06 440.614 2552.45 433.739 Q2547.86 426.83 2547.86 413.739 Q2547.86 400.615 2552.45 393.74 Q2557.06 386.83 2565.78 386.83 Z" fill="#000000" fill-rule="nonzero" fill-opacity="1" /></svg>
