<?xml version="1.0" encoding="utf-8"?>
<svg xmlns="http://www.w3.org/2000/svg" xmlns:xlink="http://www.w3.org/1999/xlink" width="1200" height="600" viewBox="0 0 4800 2400">
<defs>
  <clipPath id="clip500">
    <rect x="0" y="0" width="4800" height="2400"/>
  </clipPath>
</defs>
<path clip-path="url(#clip500)" d="M0 2400 L4800 2400 L4800 0 L0 0  Z" fill="#ffffff" fill-rule="evenodd" fill-opacity="1"/>
<defs>
  <clipPath id="clip501">
    <rect x="960" y="0" width="3361" height="2400"/>
  </clipPath>
</defs>
<path clip-path="url(#clip500)" d="M443.793 1982.28 L3955.22 1982.28 L3955.22 171.344 L443.793 171.344  Z" fill="#ffffff" fill-rule="evenodd" fill-opacity="1"/>
<defs>
  <clipPath id="clip502">
    <rect x="443" y="171" width="3512" height="1812"/>
  </clipPath>
</defs>
<polyline clip-path="url(#clip502)" style="stroke:#000000; stroke-linecap:round; stroke-linejoin:round; stroke-width:2; stroke-opacity:0.1; fill:none" points="543.173,1982.28 543.173,171.346 "/>
<polyline clip-path="url(#clip502)" style="stroke:#000000; stroke-linecap:round; stroke-linejoin:round; stroke-width:2; stroke-opacity:0.1; fill:none" points="2199.51,1982.28 2199.51,171.346 "/>
<polyline clip-path="url(#clip502)" style="stroke:#000000; stroke-linecap:round; stroke-linejoin:round; stroke-width:2; stroke-opacity:0.1; fill:none" points="3855.84,1982.28 3855.84,171.346 "/>
<polyline clip-path="url(#clip502)" style="stroke:#000000; stroke-linecap:round; stroke-linejoin:round; stroke-width:2; stroke-opacity:0.1; fill:none" points="443.793,1780.27 3955.22,1780.27 "/>
<polyline clip-path="url(#clip502)" style="stroke:#000000; stroke-linecap:round; stroke-linejoin:round; stroke-width:2; stroke-opacity:0.1; fill:none" points="443.793,1470.2 3955.22,1470.2 "/>
<polyline clip-path="url(#clip502)" style="stroke:#000000; stroke-linecap:round; stroke-linejoin:round; stroke-width:2; stroke-opacity:0.1; fill:none" points="443.793,1160.12 3955.22,1160.12 "/>
<polyline clip-path="url(#clip502)" style="stroke:#000000; stroke-linecap:round; stroke-linejoin:round; stroke-width:2; stroke-opacity:0.1; fill:none" points="443.793,850.044 3955.22,850.044 "/>
<polyline clip-path="url(#clip502)" style="stroke:#000000; stroke-linecap:round; stroke-linejoin:round; stroke-width:2; stroke-opacity:0.1; fill:none" points="443.793,539.964 3955.22,539.964 "/>
<polyline clip-path="url(#clip502)" style="stroke:#000000; stroke-linecap:round; stroke-linejoin:round; stroke-width:2; stroke-opacity:0.1; fill:none" points="443.793,229.889 3955.22,229.889 "/>
<polyline clip-path="url(#clip500)" style="stroke:#000000; stroke-linecap:round; stroke-linejoin:round; stroke-width:4; stroke-opacity:1; fill:none" points="443.793,1982.28 3955.22,1982.28 "/>
<polyline clip-path="url(#clip500)" style="stroke:#000000; stroke-linecap:round; stroke-linejoin:round; stroke-width:4; stroke-opacity:1; fill:none" points="543.173,1982.28 543.173,1963.38 "/>
<polyline clip-path="url(#clip500)" style="stroke:#000000; stroke-linecap:round; stroke-linejoin:round; stroke-width:4; stroke-opacity:1; fill:none" points="2199.51,1982.28 2199.51,1963.38 "/>
<polyline clip-path="url(#clip500)" style="stroke:#000000; stroke-linecap:round; stroke-linejoin:round; stroke-width:4; stroke-opacity:1; fill:none" points="3855.84,1982.28 3855.84,1963.38 "/>
<path clip-path="url(#clip500)" d="M472.586 2106.96 Q470.36 2109.18 470.573 2112.02 Q470.802 2114.83 473.453 2117.48 Q476.089 2120.12 478.92 2120.36 Q481.752 2120.58 483.978 2118.35 Q486.204 2116.12 485.975 2113.31 Q485.746 2110.46 483.111 2107.82 Q480.459 2105.17 477.627 2104.96 Q474.812 2104.73 472.586 2106.96 M468.788 2090.03 L471.8 2093.04 Q469.967 2093.7 468.379 2094.66 Q466.808 2095.61 465.564 2096.86 Q462.29 2100.13 462.765 2104.08 Q463.256 2108 467.479 2112.72 Q467.021 2110.33 467.725 2108.12 Q468.412 2105.89 470.163 2104.14 Q473.846 2100.46 478.216 2100.57 Q482.587 2100.66 486.433 2104.5 Q490.198 2108.27 490.247 2112.77 Q490.296 2117.27 486.597 2120.97 Q482.358 2125.21 476.874 2124.21 Q471.375 2123.19 465.204 2117.02 Q459.41 2111.23 458.722 2105.04 Q458.018 2098.84 462.65 2094.21 Q463.894 2092.96 465.4 2091.95 Q466.922 2090.92 468.788 2090.03 Z" fill="#000000" fill-rule="nonzero" fill-opacity="1" /><path clip-path="url(#clip500)" d="M474.697 2083.04 L490.411 2067.33 L491.818 2068.74 L505.977 2100.64 L502.523 2104.09 L489.216 2074.09 L477.48 2085.83 L474.697 2083.04 Z" fill="#000000" fill-rule="nonzero" fill-opacity="1" /><path clip-path="url(#clip500)" d="M506.108 2055.99 Q503.554 2058.54 504.782 2062.35 Q506.01 2066.14 511.051 2071.18 Q516.076 2076.2 519.873 2077.45 Q523.671 2078.66 526.224 2076.1 Q528.794 2073.53 527.566 2069.75 Q526.339 2065.94 521.314 2060.91 Q516.272 2055.87 512.475 2054.66 Q508.678 2053.42 506.108 2055.99 M503.489 2053.37 Q507.597 2049.26 513.015 2050.36 Q518.433 2051.42 524.62 2057.61 Q530.791 2063.78 531.871 2069.21 Q532.951 2074.61 528.843 2078.72 Q524.735 2082.83 519.317 2081.77 Q513.899 2080.67 507.728 2074.5 Q501.541 2068.31 500.461 2062.91 Q499.38 2057.48 503.489 2053.37 Z" fill="#000000" fill-rule="nonzero" fill-opacity="1" /><path clip-path="url(#clip500)" d="M537.764 2033.6 L540.579 2036.41 Q538.598 2036.98 536.962 2037.93 Q535.325 2038.85 534.015 2040.16 Q531.086 2043.09 531.331 2046.58 Q531.56 2050.05 534.916 2053.4 Q538.271 2056.76 541.758 2057 Q545.228 2057.23 548.157 2054.3 Q549.467 2052.99 550.4 2051.37 Q551.333 2049.72 551.906 2047.74 L554.688 2050.52 Q554.017 2052.37 552.953 2054.02 Q551.906 2055.66 550.384 2057.18 Q546.242 2061.32 541.201 2061.16 Q536.16 2061 531.74 2056.58 Q527.255 2052.09 527.141 2047.07 Q527.043 2042.03 531.331 2037.74 Q532.722 2036.35 534.343 2035.31 Q535.947 2034.27 537.764 2033.6 Z" fill="#000000" fill-rule="nonzero" fill-opacity="1" /><path clip-path="url(#clip500)" d="M2125.83 2110.05 Q2123.6 2112.28 2123.81 2115.11 Q2124.04 2117.92 2126.69 2120.58 Q2129.33 2123.21 2132.16 2123.46 Q2134.99 2123.67 2137.22 2121.44 Q2139.44 2119.22 2139.21 2116.4 Q2138.99 2113.55 2136.35 2110.92 Q2133.7 2108.27 2130.87 2108.05 Q2128.05 2107.82 2125.83 2110.05 M2122.03 2093.13 L2125.04 2096.14 Q2123.21 2096.79 2121.62 2097.76 Q2120.05 2098.71 2118.8 2099.95 Q2115.53 2103.23 2116 2107.17 Q2116.5 2111.1 2120.72 2115.81 Q2120.26 2113.42 2120.96 2111.21 Q2121.65 2108.99 2123.4 2107.24 Q2127.09 2103.55 2131.46 2103.67 Q2135.83 2103.75 2139.67 2107.6 Q2143.44 2111.36 2143.49 2115.86 Q2143.54 2120.36 2139.84 2124.06 Q2135.6 2128.3 2130.11 2127.3 Q2124.61 2126.29 2118.44 2120.12 Q2112.65 2114.32 2111.96 2108.14 Q2111.26 2101.93 2115.89 2097.3 Q2117.13 2096.06 2118.64 2095.04 Q2120.16 2094.01 2122.03 2093.13 Z" fill="#000000" fill-rule="nonzero" fill-opacity="1" /><path clip-path="url(#clip500)" d="M2127.94 2086.14 L2143.65 2070.42 L2145.06 2071.83 L2159.22 2103.73 L2155.76 2107.19 L2142.46 2077.18 L2130.72 2088.92 L2127.94 2086.14 Z" fill="#000000" fill-rule="nonzero" fill-opacity="1" /><path clip-path="url(#clip500)" d="M2159.35 2059.08 Q2156.79 2061.63 2158.02 2065.45 Q2159.25 2069.23 2164.29 2074.27 Q2169.32 2079.3 2173.11 2080.54 Q2176.91 2081.75 2179.46 2079.2 Q2182.03 2076.63 2180.81 2072.85 Q2179.58 2069.03 2174.55 2064.01 Q2169.51 2058.97 2165.71 2057.75 Q2161.92 2056.51 2159.35 2059.08 M2156.73 2056.46 Q2160.84 2052.35 2166.25 2053.45 Q2171.67 2054.51 2177.86 2060.7 Q2184.03 2066.87 2185.11 2072.31 Q2186.19 2077.71 2182.08 2081.82 Q2177.97 2085.92 2172.56 2084.86 Q2167.14 2083.76 2160.97 2077.59 Q2154.78 2071.41 2153.7 2066 Q2152.62 2060.57 2156.73 2056.46 Z" fill="#000000" fill-rule="nonzero" fill-opacity="1" /><path clip-path="url(#clip500)" d="M2199.45 2045.2 Q2196.13 2041.88 2192.87 2041.37 Q2189.61 2040.83 2187.22 2043.22 Q2184.83 2045.61 2185.36 2048.88 Q2185.88 2052.12 2189.2 2055.45 Q2192.53 2058.77 2195.78 2059.31 Q2199.04 2059.82 2201.43 2057.43 Q2203.82 2055.04 2203.3 2051.8 Q2202.77 2048.52 2199.45 2045.2 M2182.8 2049.05 Q2182.12 2046.46 2182.77 2044.23 Q2183.42 2041.98 2185.44 2039.96 Q2188.78 2036.62 2193.51 2037.2 Q2198.25 2037.75 2202.58 2042.07 Q2206.9 2046.4 2207.45 2051.14 Q2208.03 2055.87 2204.69 2059.21 Q2202.67 2061.22 2200.43 2061.9 Q2198.19 2062.53 2195.6 2061.85 L2198.35 2064.6 L2195.32 2067.62 L2169.86 2042.16 L2172.88 2039.13 L2182.8 2049.05 Z" fill="#000000" fill-rule="nonzero" fill-opacity="1" /><path clip-path="url(#clip500)" d="M3784.11 2108.1 Q3781.88 2110.33 3782.09 2113.16 Q3782.32 2115.98 3784.97 2118.63 Q3787.61 2121.26 3790.44 2121.51 Q3793.27 2121.72 3795.5 2119.5 Q3797.72 2117.27 3797.5 2114.45 Q3797.27 2111.61 3794.63 2108.97 Q3791.98 2106.32 3789.15 2106.11 Q3786.33 2105.88 3784.11 2108.1 M3780.31 2091.18 L3783.32 2094.19 Q3781.49 2094.84 3779.9 2095.81 Q3778.33 2096.76 3777.08 2098 Q3773.81 2101.28 3774.29 2105.22 Q3774.78 2109.15 3779 2113.86 Q3778.54 2111.47 3779.24 2109.27 Q3779.93 2107.04 3781.68 2105.29 Q3785.37 2101.61 3789.74 2101.72 Q3794.11 2101.8 3797.95 2105.65 Q3801.72 2109.41 3801.77 2113.91 Q3801.82 2118.42 3798.12 2122.11 Q3793.88 2126.35 3788.39 2125.36 Q3782.89 2124.34 3776.72 2118.17 Q3770.93 2112.38 3770.24 2106.19 Q3769.54 2099.98 3774.17 2095.35 Q3775.41 2094.11 3776.92 2093.09 Q3778.44 2092.06 3780.31 2091.18 Z" fill="#000000" fill-rule="nonzero" fill-opacity="1" /><path clip-path="url(#clip500)" d="M3786.22 2084.19 L3801.93 2068.48 L3803.34 2069.88 L3817.5 2101.79 L3814.04 2105.24 L3800.74 2075.24 L3789 2086.97 L3786.22 2084.19 Z" fill="#000000" fill-rule="nonzero" fill-opacity="1" /><path clip-path="url(#clip500)" d="M3817.63 2057.13 Q3815.07 2059.69 3816.3 2063.5 Q3817.53 2067.28 3822.57 2072.32 Q3827.6 2077.35 3831.39 2078.59 Q3835.19 2079.8 3837.74 2077.25 Q3840.31 2074.68 3839.09 2070.9 Q3837.86 2067.08 3832.83 2062.06 Q3827.79 2057.02 3824 2055.81 Q3820.2 2054.56 3817.63 2057.13 M3815.01 2054.51 Q3819.12 2050.41 3824.54 2051.5 Q3829.95 2052.57 3836.14 2058.75 Q3842.31 2064.92 3843.39 2070.36 Q3844.47 2075.76 3840.36 2079.87 Q3836.26 2083.98 3830.84 2082.91 Q3825.42 2081.82 3819.25 2075.65 Q3813.06 2069.46 3811.98 2064.06 Q3810.9 2058.62 3815.01 2054.51 Z" fill="#000000" fill-rule="nonzero" fill-opacity="1" /><path clip-path="url(#clip500)" d="M3852.84 2048.02 Q3849.19 2051.67 3848.61 2053.91 Q3848.04 2056.15 3850.05 2058.16 Q3851.66 2059.77 3853.65 2059.67 Q3855.65 2059.54 3857.47 2057.72 Q3859.97 2055.22 3859.71 2051.94 Q3859.45 2048.64 3856.5 2045.69 L3855.83 2045.02 L3852.84 2048.02 M3857.6 2040.76 L3868.06 2051.22 L3865.05 2054.24 L3862.26 2051.45 Q3862.9 2054.15 3862.17 2056.49 Q3861.41 2058.82 3859.19 2061.04 Q3856.37 2063.86 3853.13 2063.96 Q3849.89 2064.02 3847.24 2061.37 Q3844.14 2058.28 3844.64 2054.64 Q3845.14 2050.99 3849.25 2046.89 L3853.47 2042.66 L3853.18 2042.37 Q3851.1 2040.29 3848.6 2040.54 Q3846.09 2040.75 3843.62 2043.22 Q3842.05 2044.79 3840.94 2046.66 Q3839.82 2048.52 3839.2 2050.65 L3836.42 2047.87 Q3837.43 2045.58 3838.68 2043.71 Q3839.91 2041.83 3841.38 2040.36 Q3845.36 2036.38 3849.38 2036.48 Q3853.41 2036.57 3857.6 2040.76 Z" fill="#000000" fill-rule="nonzero" fill-opacity="1" /><path clip-path="url(#clip500)" d="M2127.48 2181.52 L2133.91 2181.52 L2133.91 2223.63 L2157.05 2223.63 L2157.05 2229.04 L2127.48 2229.04 L2127.48 2181.52 Z" fill="#000000" fill-rule="nonzero" fill-opacity="1" /><path clip-path="url(#clip500)" d="M2176.21 2197.5 Q2171.5 2197.5 2168.76 2201.19 Q2166.02 2204.85 2166.02 2211.25 Q2166.02 2217.65 2168.73 2221.34 Q2171.47 2225 2176.21 2225 Q2180.89 2225 2183.62 2221.31 Q2186.36 2217.62 2186.36 2211.25 Q2186.36 2204.92 2183.62 2201.23 Q2180.89 2197.5 2176.21 2197.5 M2176.21 2192.54 Q2183.85 2192.54 2188.21 2197.5 Q2192.57 2202.47 2192.57 2211.25 Q2192.57 2220 2188.21 2225 Q2183.85 2229.97 2176.21 2229.97 Q2168.54 2229.97 2164.18 2225 Q2159.85 2220 2159.85 2211.25 Q2159.85 2202.47 2164.18 2197.5 Q2168.54 2192.54 2176.21 2192.54 Z" fill="#000000" fill-rule="nonzero" fill-opacity="1" /><path clip-path="url(#clip500)" d="M2218.48 2211.12 Q2211.38 2211.12 2208.64 2212.75 Q2205.9 2214.37 2205.9 2218.29 Q2205.9 2221.4 2207.94 2223.25 Q2210.01 2225.06 2213.54 2225.06 Q2218.41 2225.06 2221.34 2221.63 Q2224.3 2218.16 2224.3 2212.43 L2224.3 2211.12 L2218.48 2211.12 M2230.16 2208.71 L2230.16 2229.04 L2224.3 2229.04 L2224.3 2223.63 Q2222.3 2226.88 2219.3 2228.44 Q2216.31 2229.97 2211.98 2229.97 Q2206.51 2229.97 2203.26 2226.91 Q2200.05 2223.82 2200.05 2218.67 Q2200.05 2212.65 2204.06 2209.6 Q2208.1 2206.54 2216.09 2206.54 L2224.3 2206.54 L2224.3 2205.97 Q2224.3 2201.93 2221.63 2199.73 Q2218.99 2197.5 2214.18 2197.5 Q2211.12 2197.5 2208.23 2198.23 Q2205.33 2198.97 2202.66 2200.43 L2202.66 2195.02 Q2205.87 2193.78 2208.9 2193.17 Q2211.92 2192.54 2214.78 2192.54 Q2222.52 2192.54 2226.34 2196.55 Q2230.16 2200.56 2230.16 2208.71 Z" fill="#000000" fill-rule="nonzero" fill-opacity="1" /><path clip-path="url(#clip500)" d="M2265.68 2198.81 L2265.68 2179.52 L2271.53 2179.52 L2271.53 2229.04 L2265.68 2229.04 L2265.68 2223.7 Q2263.83 2226.88 2261 2228.44 Q2258.2 2229.97 2254.25 2229.97 Q2247.79 2229.97 2243.72 2224.81 Q2239.67 2219.65 2239.67 2211.25 Q2239.67 2202.85 2243.72 2197.69 Q2247.79 2192.54 2254.25 2192.54 Q2258.2 2192.54 2261 2194.1 Q2263.83 2195.62 2265.68 2198.81 M2245.72 2211.25 Q2245.72 2217.71 2248.36 2221.4 Q2251.04 2225.06 2255.68 2225.06 Q2260.33 2225.06 2263 2221.4 Q2265.68 2217.71 2265.68 2211.25 Q2265.68 2204.79 2263 2201.13 Q2260.33 2197.44 2255.68 2197.44 Q2251.04 2197.44 2248.36 2201.13 Q2245.72 2204.79 2245.72 2211.25 Z" fill="#000000" fill-rule="nonzero" fill-opacity="1" /><polyline clip-path="url(#clip500)" style="stroke:#000000; stroke-linecap:round; stroke-linejoin:round; stroke-width:4; stroke-opacity:1; fill:none" points="443.793,1982.28 443.793,171.346 "/>
<polyline clip-path="url(#clip500)" style="stroke:#000000; stroke-linecap:round; stroke-linejoin:round; stroke-width:4; stroke-opacity:1; fill:none" points="443.793,1780.27 459.193,1780.27 "/>
<polyline clip-path="url(#clip500)" style="stroke:#000000; stroke-linecap:round; stroke-linejoin:round; stroke-width:4; stroke-opacity:1; fill:none" points="443.793,1470.2 459.193,1470.2 "/>
<polyline clip-path="url(#clip500)" style="stroke:#000000; stroke-linecap:round; stroke-linejoin:round; stroke-width:4; stroke-opacity:1; fill:none" points="443.793,1160.12 459.193,1160.12 "/>
<polyline clip-path="url(#clip500)" style="stroke:#000000; stroke-linecap:round; stroke-linejoin:round; stroke-width:4; stroke-opacity:1; fill:none" points="443.793,850.044 459.193,850.044 "/>
<polyline clip-path="url(#clip500)" style="stroke:#000000; stroke-linecap:round; stroke-linejoin:round; stroke-width:4; stroke-opacity:1; fill:none" points="443.793,539.964 459.193,539.964 "/>
<polyline clip-path="url(#clip500)" style="stroke:#000000; stroke-linecap:round; stroke-linejoin:round; stroke-width:4; stroke-opacity:1; fill:none" points="443.793,229.889 459.193,229.889 "/>
<path clip-path="url(#clip500)" d="M232.784 1800.07 L240.423 1800.07 L240.423 1773.7 L232.112 1775.37 L232.112 1771.11 L240.376 1769.44 L245.052 1769.44 L245.052 1800.07 L252.691 1800.07 L252.691 1804 L232.784 1804 L232.784 1800.07 Z" fill="#000000" fill-rule="nonzero" fill-opacity="1" /><path clip-path="url(#clip500)" d="M290.307 1778.54 L279.728 1789.16 L290.307 1799.74 L287.552 1802.54 L276.927 1791.92 L266.302 1802.54 L263.571 1799.74 L274.126 1789.16 L263.571 1778.54 L266.302 1775.74 L276.927 1786.36 L287.552 1775.74 L290.307 1778.54 Z" fill="#000000" fill-rule="nonzero" fill-opacity="1" /><path clip-path="url(#clip500)" d="M302.668 1800.07 L310.306 1800.07 L310.306 1773.7 L301.996 1775.37 L301.996 1771.11 L310.26 1769.44 L314.936 1769.44 L314.936 1800.07 L322.575 1800.07 L322.575 1804 L302.668 1804 L302.668 1800.07 Z" fill="#000000" fill-rule="nonzero" fill-opacity="1" /><path clip-path="url(#clip500)" d="M342.019 1772.52 Q338.408 1772.52 336.579 1776.09 Q334.774 1779.63 334.774 1786.76 Q334.774 1793.86 336.579 1797.43 Q338.408 1800.97 342.019 1800.97 Q345.653 1800.97 347.459 1797.43 Q349.288 1793.86 349.288 1786.76 Q349.288 1779.63 347.459 1776.09 Q345.653 1772.52 342.019 1772.52 M342.019 1768.82 Q347.829 1768.82 350.885 1773.42 Q353.964 1778.01 353.964 1786.76 Q353.964 1795.48 350.885 1800.09 Q347.829 1804.67 342.019 1804.67 Q336.209 1804.67 333.13 1800.09 Q330.075 1795.48 330.075 1786.76 Q330.075 1778.01 333.13 1773.42 Q336.209 1768.82 342.019 1768.82 Z" fill="#000000" fill-rule="nonzero" fill-opacity="1" /><path clip-path="url(#clip500)" d="M358.534 1773.39 L371.793 1773.39 L371.793 1776.59 L353.964 1776.59 L353.964 1773.39 Q356.127 1771.16 359.85 1767.4 Q363.593 1763.61 364.552 1762.52 Q366.377 1760.47 367.091 1759.06 Q367.825 1757.63 367.825 1756.26 Q367.825 1754.02 366.245 1752.61 Q364.684 1751.2 362.164 1751.2 Q360.377 1751.2 358.383 1751.82 Q356.409 1752.44 354.152 1753.7 L354.152 1749.87 Q356.446 1748.94 358.44 1748.47 Q360.434 1748 362.089 1748 Q366.452 1748 369.047 1750.19 Q371.643 1752.37 371.643 1756.02 Q371.643 1757.75 370.985 1759.31 Q370.345 1760.85 368.634 1762.96 Q368.164 1763.5 365.643 1766.12 Q363.123 1768.71 358.534 1773.39 Z" fill="#000000" fill-rule="nonzero" fill-opacity="1" /><path clip-path="url(#clip500)" d="M232.784 1489.99 L240.423 1489.99 L240.423 1463.62 L232.112 1465.29 L232.112 1461.03 L240.376 1459.36 L245.052 1459.36 L245.052 1489.99 L252.691 1489.99 L252.691 1493.92 L232.784 1493.92 L232.784 1489.99 Z" fill="#000000" fill-rule="nonzero" fill-opacity="1" /><path clip-path="url(#clip500)" d="M290.307 1468.46 L279.728 1479.08 L290.307 1489.66 L287.552 1492.46 L276.927 1481.84 L266.302 1492.46 L263.571 1489.66 L274.126 1479.08 L263.571 1468.46 L266.302 1465.66 L276.927 1476.28 L287.552 1465.66 L290.307 1468.46 Z" fill="#000000" fill-rule="nonzero" fill-opacity="1" /><path clip-path="url(#clip500)" d="M302.668 1489.99 L310.306 1489.99 L310.306 1463.62 L301.996 1465.29 L301.996 1461.03 L310.26 1459.36 L314.936 1459.36 L314.936 1489.99 L322.575 1489.99 L322.575 1493.92 L302.668 1493.92 L302.668 1489.99 Z" fill="#000000" fill-rule="nonzero" fill-opacity="1" /><path clip-path="url(#clip500)" d="M342.019 1462.44 Q338.408 1462.44 336.579 1466.01 Q334.774 1469.55 334.774 1476.68 Q334.774 1483.78 336.579 1487.35 Q338.408 1490.89 342.019 1490.89 Q345.653 1490.89 347.459 1487.35 Q349.288 1483.78 349.288 1476.68 Q349.288 1469.55 347.459 1466.01 Q345.653 1462.44 342.019 1462.44 M342.019 1458.74 Q347.829 1458.74 350.885 1463.34 Q353.964 1467.93 353.964 1476.68 Q353.964 1485.4 350.885 1490.01 Q347.829 1494.59 342.019 1494.59 Q336.209 1494.59 333.13 1490.01 Q330.075 1485.4 330.075 1476.68 Q330.075 1467.93 333.13 1463.34 Q336.209 1458.74 342.019 1458.74 Z" fill="#000000" fill-rule="nonzero" fill-opacity="1" /><path clip-path="url(#clip500)" d="M358.534 1463.31 L371.793 1463.31 L371.793 1466.51 L353.964 1466.51 L353.964 1463.31 Q356.127 1461.08 359.85 1457.32 Q363.593 1453.53 364.552 1452.44 Q366.377 1450.39 367.091 1448.98 Q367.825 1447.55 367.825 1446.18 Q367.825 1443.94 366.245 1442.53 Q364.684 1441.12 362.164 1441.12 Q360.377 1441.12 358.383 1441.74 Q356.409 1442.36 354.152 1443.62 L354.152 1439.79 Q356.446 1438.86 358.44 1438.39 Q360.434 1437.92 362.089 1437.92 Q366.452 1437.92 369.047 1440.11 Q371.643 1442.29 371.643 1445.94 Q371.643 1447.67 370.985 1449.23 Q370.345 1450.77 368.634 1452.88 Q368.164 1453.42 365.643 1456.04 Q363.123 1458.63 358.534 1463.31 Z" fill="#000000" fill-rule="nonzero" fill-opacity="1" /><path clip-path="url(#clip500)" d="M232.784 1179.92 L240.423 1179.92 L240.423 1153.55 L232.112 1155.22 L232.112 1150.96 L240.376 1149.29 L245.052 1149.29 L245.052 1179.92 L252.691 1179.92 L252.691 1183.85 L232.784 1183.85 L232.784 1179.92 Z" fill="#000000" fill-rule="nonzero" fill-opacity="1" /><path clip-path="url(#clip500)" d="M290.307 1158.39 L279.728 1169.01 L290.307 1179.59 L287.552 1182.39 L276.927 1171.77 L266.302 1182.39 L263.571 1179.59 L274.126 1169.01 L263.571 1158.39 L266.302 1155.59 L276.927 1166.21 L287.552 1155.59 L290.307 1158.39 Z" fill="#000000" fill-rule="nonzero" fill-opacity="1" /><path clip-path="url(#clip500)" d="M302.668 1179.92 L310.306 1179.92 L310.306 1153.55 L301.996 1155.22 L301.996 1150.96 L310.26 1149.29 L314.936 1149.29 L314.936 1179.92 L322.575 1179.92 L322.575 1183.85 L302.668 1183.85 L302.668 1179.92 Z" fill="#000000" fill-rule="nonzero" fill-opacity="1" /><path clip-path="url(#clip500)" d="M342.019 1152.37 Q338.408 1152.37 336.579 1155.94 Q334.774 1159.48 334.774 1166.61 Q334.774 1173.71 336.579 1177.28 Q338.408 1180.82 342.019 1180.82 Q345.653 1180.82 347.459 1177.28 Q349.288 1173.71 349.288 1166.61 Q349.288 1159.48 347.459 1155.94 Q345.653 1152.37 342.019 1152.37 M342.019 1148.67 Q347.829 1148.67 350.885 1153.27 Q353.964 1157.86 353.964 1166.61 Q353.964 1175.33 350.885 1179.94 Q347.829 1184.52 342.019 1184.52 Q336.209 1184.52 333.13 1179.94 Q330.075 1175.33 330.075 1166.61 Q330.075 1157.86 333.13 1153.27 Q336.209 1148.67 342.019 1148.67 Z" fill="#000000" fill-rule="nonzero" fill-opacity="1" /><path clip-path="url(#clip500)" d="M358.534 1153.24 L371.793 1153.24 L371.793 1156.44 L353.964 1156.44 L353.964 1153.24 Q356.127 1151.01 359.85 1147.24 Q363.593 1143.46 364.552 1142.37 Q366.377 1140.32 367.091 1138.91 Q367.825 1137.48 367.825 1136.11 Q367.825 1133.87 366.245 1132.46 Q364.684 1131.05 362.164 1131.05 Q360.377 1131.05 358.383 1131.67 Q356.409 1132.29 354.152 1133.55 L354.152 1129.72 Q356.446 1128.79 358.44 1128.32 Q360.434 1127.85 362.089 1127.85 Q366.452 1127.85 369.047 1130.04 Q371.643 1132.22 371.643 1135.87 Q371.643 1137.6 370.985 1139.16 Q370.345 1140.7 368.634 1142.81 Q368.164 1143.35 365.643 1145.97 Q363.123 1148.56 358.534 1153.24 Z" fill="#000000" fill-rule="nonzero" fill-opacity="1" /><path clip-path="url(#clip500)" d="M232.784 869.837 L240.423 869.837 L240.423 843.471 L232.112 845.138 L232.112 840.879 L240.376 839.212 L245.052 839.212 L245.052 869.837 L252.691 869.837 L252.691 873.772 L232.784 873.772 L232.784 869.837 Z" fill="#000000" fill-rule="nonzero" fill-opacity="1" /><path clip-path="url(#clip500)" d="M290.307 848.309 L279.728 858.934 L290.307 869.513 L287.552 872.314 L276.927 861.689 L266.302 872.314 L263.571 869.513 L274.126 858.934 L263.571 848.309 L266.302 845.508 L276.927 856.133 L287.552 845.508 L290.307 848.309 Z" fill="#000000" fill-rule="nonzero" fill-opacity="1" /><path clip-path="url(#clip500)" d="M302.668 869.837 L310.306 869.837 L310.306 843.471 L301.996 845.138 L301.996 840.879 L310.26 839.212 L314.936 839.212 L314.936 869.837 L322.575 869.837 L322.575 873.772 L302.668 873.772 L302.668 869.837 Z" fill="#000000" fill-rule="nonzero" fill-opacity="1" /><path clip-path="url(#clip500)" d="M342.019 842.291 Q338.408 842.291 336.579 845.855 Q334.774 849.397 334.774 856.527 Q334.774 863.633 336.579 867.198 Q338.408 870.739 342.019 870.739 Q345.653 870.739 347.459 867.198 Q349.288 863.633 349.288 856.527 Q349.288 849.397 347.459 845.855 Q345.653 842.291 342.019 842.291 M342.019 838.587 Q347.829 838.587 350.885 843.193 Q353.964 847.777 353.964 856.527 Q353.964 865.253 350.885 869.86 Q347.829 874.443 342.019 874.443 Q336.209 874.443 333.13 869.86 Q330.075 865.253 330.075 856.527 Q330.075 847.777 333.13 843.193 Q336.209 838.587 342.019 838.587 Z" fill="#000000" fill-rule="nonzero" fill-opacity="1" /><path clip-path="url(#clip500)" d="M358.534 843.164 L371.793 843.164 L371.793 846.361 L353.964 846.361 L353.964 843.164 Q356.127 840.926 359.85 837.164 Q363.593 833.384 364.552 832.293 Q366.377 830.243 367.091 828.833 Q367.825 827.403 367.825 826.03 Q367.825 823.792 366.245 822.382 Q364.684 820.971 362.164 820.971 Q360.377 820.971 358.383 821.592 Q356.409 822.212 354.152 823.472 L354.152 819.636 Q356.446 818.714 358.44 818.244 Q360.434 817.774 362.089 817.774 Q366.452 817.774 369.047 819.955 Q371.643 822.137 371.643 825.786 Q371.643 827.516 370.985 829.077 Q370.345 830.619 368.634 832.726 Q368.164 833.271 365.643 835.886 Q363.123 838.481 358.534 843.164 Z" fill="#000000" fill-rule="nonzero" fill-opacity="1" /><path clip-path="url(#clip500)" d="M232.784 559.757 L240.423 559.757 L240.423 533.391 L232.112 535.058 L232.112 530.799 L240.376 529.132 L245.052 529.132 L245.052 559.757 L252.691 559.757 L252.691 563.692 L232.784 563.692 L232.784 559.757 Z" fill="#000000" fill-rule="nonzero" fill-opacity="1" /><path clip-path="url(#clip500)" d="M290.307 538.229 L279.728 548.854 L290.307 559.433 L287.552 562.234 L276.927 551.609 L266.302 562.234 L263.571 559.433 L274.126 548.854 L263.571 538.229 L266.302 535.428 L276.927 546.053 L287.552 535.428 L290.307 538.229 Z" fill="#000000" fill-rule="nonzero" fill-opacity="1" /><path clip-path="url(#clip500)" d="M302.668 559.757 L310.306 559.757 L310.306 533.391 L301.996 535.058 L301.996 530.799 L310.26 529.132 L314.936 529.132 L314.936 559.757 L322.575 559.757 L322.575 563.692 L302.668 563.692 L302.668 559.757 Z" fill="#000000" fill-rule="nonzero" fill-opacity="1" /><path clip-path="url(#clip500)" d="M342.019 532.211 Q338.408 532.211 336.579 535.775 Q334.774 539.317 334.774 546.447 Q334.774 553.553 336.579 557.118 Q338.408 560.66 342.019 560.66 Q345.653 560.66 347.459 557.118 Q349.288 553.553 349.288 546.447 Q349.288 539.317 347.459 535.775 Q345.653 532.211 342.019 532.211 M342.019 528.507 Q347.829 528.507 350.885 533.113 Q353.964 537.697 353.964 546.447 Q353.964 555.173 350.885 559.78 Q347.829 564.363 342.019 564.363 Q336.209 564.363 333.13 559.78 Q330.075 555.173 330.075 546.447 Q330.075 537.697 333.13 533.113 Q336.209 528.507 342.019 528.507 Z" fill="#000000" fill-rule="nonzero" fill-opacity="1" /><path clip-path="url(#clip500)" d="M358.534 533.084 L371.793 533.084 L371.793 536.281 L353.964 536.281 L353.964 533.084 Q356.127 530.846 359.85 527.084 Q363.593 523.304 364.552 522.213 Q366.377 520.163 367.091 518.753 Q367.825 517.323 367.825 515.95 Q367.825 513.712 366.245 512.302 Q364.684 510.891 362.164 510.891 Q360.377 510.891 358.383 511.512 Q356.409 512.132 354.152 513.392 L354.152 509.556 Q356.446 508.634 358.44 508.164 Q360.434 507.694 362.089 507.694 Q366.452 507.694 369.047 509.875 Q371.643 512.057 371.643 515.706 Q371.643 517.436 370.985 518.997 Q370.345 520.539 368.634 522.646 Q368.164 523.191 365.643 525.806 Q363.123 528.401 358.534 533.084 Z" fill="#000000" fill-rule="nonzero" fill-opacity="1" /><path clip-path="url(#clip500)" d="M232.784 249.681 L240.423 249.681 L240.423 223.316 L232.112 224.982 L232.112 220.723 L240.376 219.057 L245.052 219.057 L245.052 249.681 L252.691 249.681 L252.691 253.617 L232.784 253.617 L232.784 249.681 Z" fill="#000000" fill-rule="nonzero" fill-opacity="1" /><path clip-path="url(#clip500)" d="M290.307 228.154 L279.728 238.779 L290.307 249.357 L287.552 252.158 L276.927 241.533 L266.302 252.158 L263.571 249.357 L274.126 238.779 L263.571 228.154 L266.302 225.353 L276.927 235.978 L287.552 225.353 L290.307 228.154 Z" fill="#000000" fill-rule="nonzero" fill-opacity="1" /><path clip-path="url(#clip500)" d="M302.668 249.681 L310.306 249.681 L310.306 223.316 L301.996 224.982 L301.996 220.723 L310.26 219.057 L314.936 219.057 L314.936 249.681 L322.575 249.681 L322.575 253.617 L302.668 253.617 L302.668 249.681 Z" fill="#000000" fill-rule="nonzero" fill-opacity="1" /><path clip-path="url(#clip500)" d="M342.019 222.135 Q338.408 222.135 336.579 225.7 Q334.774 229.242 334.774 236.371 Q334.774 243.478 336.579 247.042 Q338.408 250.584 342.019 250.584 Q345.653 250.584 347.459 247.042 Q349.288 243.478 349.288 236.371 Q349.288 229.242 347.459 225.7 Q345.653 222.135 342.019 222.135 M342.019 218.432 Q347.829 218.432 350.885 223.038 Q353.964 227.621 353.964 236.371 Q353.964 245.098 350.885 249.704 Q347.829 254.288 342.019 254.288 Q336.209 254.288 333.13 249.704 Q330.075 245.098 330.075 236.371 Q330.075 227.621 333.13 223.038 Q336.209 218.432 342.019 218.432 Z" fill="#000000" fill-rule="nonzero" fill-opacity="1" /><path clip-path="url(#clip500)" d="M358.534 223.009 L371.793 223.009 L371.793 226.206 L353.964 226.206 L353.964 223.009 Q356.127 220.771 359.85 217.009 Q363.593 213.229 364.552 212.138 Q366.377 210.088 367.091 208.677 Q367.825 207.248 367.825 205.875 Q367.825 203.637 366.245 202.226 Q364.684 200.816 362.164 200.816 Q360.377 200.816 358.383 201.436 Q356.409 202.057 354.152 203.317 L354.152 199.48 Q356.446 198.559 358.44 198.089 Q360.434 197.618 362.089 197.618 Q366.452 197.618 369.047 199.8 Q371.643 201.982 371.643 205.63 Q371.643 207.361 370.985 208.922 Q370.345 210.464 368.634 212.57 Q368.164 213.116 365.643 215.73 Q363.123 218.326 358.534 223.009 Z" fill="#000000" fill-rule="nonzero" fill-opacity="1" /><path clip-path="url(#clip500)" d="M98.3364 1308.2 L98.3364 1301.77 L140.446 1301.77 L140.446 1278.63 L145.856 1278.63 L145.856 1308.2 L98.3364 1308.2 Z" fill="#000000" fill-rule="nonzero" fill-opacity="1" /><path clip-path="url(#clip500)" d="M114.314 1259.47 Q114.314 1264.18 118.006 1266.92 Q121.667 1269.66 128.064 1269.66 Q134.462 1269.66 138.154 1266.95 Q141.814 1264.22 141.814 1259.47 Q141.814 1254.79 138.122 1252.06 Q134.43 1249.32 128.064 1249.32 Q121.73 1249.32 118.038 1252.06 Q114.314 1254.79 114.314 1259.47 M109.349 1259.47 Q109.349 1251.83 114.314 1247.47 Q119.28 1243.11 128.064 1243.11 Q136.817 1243.11 141.814 1247.47 Q146.779 1251.83 146.779 1259.47 Q146.779 1267.14 141.814 1271.5 Q136.817 1275.83 128.064 1275.83 Q119.28 1275.83 114.314 1271.5 Q109.349 1267.14 109.349 1259.47 Z" fill="#000000" fill-rule="nonzero" fill-opacity="1" /><path clip-path="url(#clip500)" d="M127.937 1217.21 Q127.937 1224.3 129.56 1227.04 Q131.183 1229.78 135.098 1229.78 Q138.218 1229.78 140.064 1227.74 Q141.878 1225.67 141.878 1222.14 Q141.878 1217.27 138.44 1214.34 Q134.971 1211.38 129.242 1211.38 L127.937 1211.38 L127.937 1217.21 M125.518 1205.52 L145.856 1205.52 L145.856 1211.38 L140.446 1211.38 Q143.692 1213.39 145.252 1216.38 Q146.779 1219.37 146.779 1223.7 Q146.779 1229.17 143.724 1232.42 Q140.637 1235.63 135.48 1235.63 Q129.465 1235.63 126.409 1231.62 Q123.354 1227.58 123.354 1219.59 L123.354 1211.38 L122.781 1211.38 Q118.739 1211.38 116.542 1214.05 Q114.314 1216.7 114.314 1221.5 Q114.314 1224.56 115.046 1227.45 Q115.778 1230.35 117.243 1233.02 L111.832 1233.02 Q110.59 1229.81 109.986 1226.79 Q109.349 1223.76 109.349 1220.9 Q109.349 1213.16 113.36 1209.34 Q117.37 1205.52 125.518 1205.52 Z" fill="#000000" fill-rule="nonzero" fill-opacity="1" /><path clip-path="url(#clip500)" d="M115.619 1170 L96.3312 1170 L96.3312 1164.15 L145.856 1164.15 L145.856 1170 L140.509 1170 Q143.692 1171.85 145.252 1174.68 Q146.779 1177.48 146.779 1181.43 Q146.779 1187.89 141.623 1191.97 Q136.467 1196.01 128.064 1196.01 Q119.662 1196.01 114.505 1191.97 Q109.349 1187.89 109.349 1181.43 Q109.349 1177.48 110.909 1174.68 Q112.436 1171.85 115.619 1170 M128.064 1189.96 Q134.525 1189.96 138.218 1187.32 Q141.878 1184.64 141.878 1180 Q141.878 1175.35 138.218 1172.68 Q134.525 1170 128.064 1170 Q121.603 1170 117.943 1172.68 Q114.251 1175.35 114.251 1180 Q114.251 1184.64 117.943 1187.32 Q121.603 1189.96 128.064 1189.96 Z" fill="#000000" fill-rule="nonzero" fill-opacity="1" /><path clip-path="url(#clip500)" d="M99.896 1102.62 L106.166 1102.62 Q104.416 1106.28 103.556 1109.53 Q102.697 1112.78 102.697 1115.8 Q102.697 1121.05 104.734 1123.92 Q106.771 1126.75 110.527 1126.75 Q113.678 1126.75 115.301 1124.87 Q116.892 1122.96 117.879 1117.68 L118.675 1113.79 Q120.044 1106.6 123.513 1103.2 Q126.95 1099.76 132.743 1099.76 Q139.65 1099.76 143.215 1104.41 Q146.779 1109.02 146.779 1117.96 Q146.779 1121.34 146.016 1125.16 Q145.252 1128.94 143.756 1133.02 L137.135 1133.02 Q139.332 1129.1 140.446 1125.35 Q141.56 1121.59 141.56 1117.96 Q141.56 1112.46 139.395 1109.47 Q137.231 1106.47 133.221 1106.47 Q129.719 1106.47 127.746 1108.64 Q125.773 1110.77 124.786 1115.67 L124.022 1119.59 Q122.59 1126.78 119.534 1130 Q116.479 1133.21 111.036 1133.21 Q104.734 1133.21 101.106 1128.79 Q97.4771 1124.33 97.4771 1116.53 Q97.4771 1113.19 98.0818 1109.72 Q98.6866 1106.25 99.896 1102.62 Z" fill="#000000" fill-rule="nonzero" fill-opacity="1" /><path clip-path="url(#clip500)" d="M124.34 1060.35 L145.856 1060.35 L145.856 1066.21 L124.531 1066.21 Q119.471 1066.21 116.956 1068.18 Q114.442 1070.16 114.442 1074.1 Q114.442 1078.85 117.465 1081.58 Q120.489 1084.32 125.709 1084.32 L145.856 1084.32 L145.856 1090.21 L96.3312 1090.21 L96.3312 1084.32 L115.747 1084.32 Q112.532 1082.22 110.941 1079.39 Q109.349 1076.52 109.349 1072.8 Q109.349 1066.66 113.169 1063.51 Q116.956 1060.35 124.34 1060.35 Z" fill="#000000" fill-rule="nonzero" fill-opacity="1" /><path clip-path="url(#clip500)" d="M126.568 1018.18 L129.433 1018.18 L129.433 1045.11 Q135.48 1044.73 138.663 1041.48 Q141.814 1038.2 141.814 1032.38 Q141.814 1029 140.987 1025.85 Q140.159 1022.67 138.504 1019.55 L144.042 1019.55 Q145.379 1022.7 146.079 1026.01 Q146.779 1029.32 146.779 1032.73 Q146.779 1041.26 141.814 1046.25 Q136.849 1051.22 128.383 1051.22 Q119.63 1051.22 114.505 1046.51 Q109.349 1041.77 109.349 1033.75 Q109.349 1026.55 113.996 1022.38 Q118.611 1018.18 126.568 1018.18 M124.85 1024.04 Q120.044 1024.1 117.179 1026.74 Q114.314 1029.35 114.314 1033.68 Q114.314 1038.58 117.083 1041.54 Q119.853 1044.47 124.881 1044.92 L124.85 1024.04 Z" fill="#000000" fill-rule="nonzero" fill-opacity="1" /><path clip-path="url(#clip500)" d="M115.619 985.112 L96.3312 985.112 L96.3312 979.255 L145.856 979.255 L145.856 985.112 L140.509 985.112 Q143.692 986.958 145.252 989.791 Q146.779 992.592 146.779 996.538 Q146.779 1003 141.623 1007.07 Q136.467 1011.12 128.064 1011.12 Q119.662 1011.12 114.505 1007.07 Q109.349 1003 109.349 996.538 Q109.349 992.592 110.909 989.791 Q112.436 986.958 115.619 985.112 M128.064 1005.07 Q134.525 1005.07 138.218 1002.43 Q141.878 999.753 141.878 995.106 Q141.878 990.459 138.218 987.785 Q134.525 985.112 128.064 985.112 Q121.603 985.112 117.943 987.785 Q114.251 990.459 114.251 995.106 Q114.251 999.753 117.943 1002.43 Q121.603 1005.07 128.064 1005.07 Z" fill="#000000" fill-rule="nonzero" fill-opacity="1" /><path clip-path="url(#clip500)" d="M96.3949 932.404 Q103.715 936.669 110.877 938.738 Q118.038 940.806 125.391 940.806 Q132.743 940.806 139.968 938.738 Q147.161 936.637 154.45 932.404 L154.45 937.496 Q146.97 942.271 139.745 944.658 Q132.52 947.013 125.391 947.013 Q118.293 947.013 111.1 944.658 Q103.906 942.302 96.3949 937.496 L96.3949 932.404 Z" fill="#000000" fill-rule="nonzero" fill-opacity="1" /><path clip-path="url(#clip500)" d="M124.945 879.791 Q124.945 882.56 127.3 884.152 Q129.656 885.711 133.857 885.711 Q137.995 885.711 140.382 884.152 Q142.737 882.56 142.737 879.791 Q142.737 877.086 140.382 875.526 Q137.995 873.935 133.857 873.935 Q129.688 873.935 127.332 875.526 Q124.945 877.086 124.945 879.791 M120.903 879.791 Q120.903 874.762 124.404 871.802 Q127.905 868.842 133.857 868.842 Q139.809 868.842 143.31 871.834 Q146.779 874.794 146.779 879.791 Q146.779 884.884 143.31 887.844 Q139.809 890.804 133.857 890.804 Q127.873 890.804 124.404 887.844 Q120.903 884.852 120.903 879.791 M101.519 912.638 Q101.519 915.375 103.906 916.967 Q106.262 918.527 110.399 918.527 Q114.601 918.527 116.956 916.967 Q119.311 915.407 119.311 912.638 Q119.311 909.869 116.956 908.31 Q114.601 906.718 110.399 906.718 Q106.294 906.718 103.906 908.31 Q101.519 909.901 101.519 912.638 M97.4771 883.897 L97.4771 878.804 L146.779 908.532 L146.779 913.625 L97.4771 883.897 M97.4771 912.638 Q97.4771 907.609 100.978 904.617 Q104.448 901.626 110.399 901.626 Q116.415 901.626 119.884 904.617 Q123.354 907.577 123.354 912.638 Q123.354 917.699 119.884 920.659 Q116.383 923.587 110.399 923.587 Q104.479 923.587 100.978 920.627 Q97.4771 917.667 97.4771 912.638 Z" fill="#000000" fill-rule="nonzero" fill-opacity="1" /><path clip-path="url(#clip500)" d="M96.3949 860.026 L96.3949 854.933 Q103.906 850.159 111.1 847.804 Q118.293 845.416 125.391 845.416 Q132.52 845.416 139.745 847.804 Q146.97 850.159 154.45 854.933 L154.45 860.026 Q147.161 855.792 139.968 853.724 Q132.743 851.623 125.391 851.623 Q118.038 851.623 110.877 853.724 Q103.715 855.792 96.3949 860.026 Z" fill="#000000" fill-rule="nonzero" fill-opacity="1" /><path clip-path="url(#clip500)" d="M1295.22 20.1573 L1284.12 50.2555 L1306.36 50.2555 L1295.22 20.1573 M1290.61 12.096 L1299.88 12.096 L1322.93 72.576 L1314.42 72.576 L1308.92 57.061 L1281.65 57.061 L1276.14 72.576 L1267.51 72.576 L1290.61 12.096 Z" fill="#000000" fill-rule="nonzero" fill-opacity="1" /><path clip-path="url(#clip500)" d="M1362.63 28.9478 L1362.63 35.9153 Q1359.47 34.1734 1356.27 33.3227 Q1353.11 32.4315 1349.87 32.4315 Q1342.62 32.4315 1338.61 37.0496 Q1334.6 41.6271 1334.6 49.9314 Q1334.6 58.2358 1338.61 62.8538 Q1342.62 67.4314 1349.87 67.4314 Q1353.11 67.4314 1356.27 66.5807 Q1359.47 65.6895 1362.63 63.9476 L1362.63 70.8341 Q1359.51 72.2924 1356.15 73.0216 Q1352.83 73.7508 1349.06 73.7508 Q1338.81 73.7508 1332.77 67.3098 Q1326.74 60.8689 1326.74 49.9314 Q1326.74 38.832 1332.82 32.472 Q1338.93 26.1121 1349.55 26.1121 Q1352.99 26.1121 1356.27 26.8413 Q1359.55 27.5299 1362.63 28.9478 Z" fill="#000000" fill-rule="nonzero" fill-opacity="1" /><path clip-path="url(#clip500)" d="M1382.97 14.324 L1382.97 27.2059 L1398.32 27.2059 L1398.32 32.9987 L1382.97 32.9987 L1382.97 57.6282 Q1382.97 63.1779 1384.46 64.7578 Q1386 66.3376 1390.66 66.3376 L1398.32 66.3376 L1398.32 72.576 L1390.66 72.576 Q1382.03 72.576 1378.75 69.3758 Q1375.47 66.1351 1375.47 57.6282 L1375.47 32.9987 L1370 32.9987 L1370 27.2059 L1375.47 27.2059 L1375.47 14.324 L1382.97 14.324 Z" fill="#000000" fill-rule="nonzero" fill-opacity="1" /><path clip-path="url(#clip500)" d="M1408.12 27.2059 L1415.58 27.2059 L1415.58 72.576 L1408.12 72.576 L1408.12 27.2059 M1408.12 9.54393 L1415.58 9.54393 L1415.58 18.9825 L1408.12 18.9825 L1408.12 9.54393 Z" fill="#000000" fill-rule="nonzero" fill-opacity="1" /><path clip-path="url(#clip500)" d="M1425.82 27.2059 L1433.72 27.2059 L1447.9 65.2844 L1462.08 27.2059 L1469.98 27.2059 L1452.97 72.576 L1442.84 72.576 L1425.82 27.2059 Z" fill="#000000" fill-rule="nonzero" fill-opacity="1" /><path clip-path="url(#clip500)" d="M1519.08 48.0275 L1519.08 51.6733 L1484.81 51.6733 Q1485.29 59.3701 1489.42 63.421 Q1493.6 67.4314 1501.01 67.4314 Q1505.3 67.4314 1509.31 66.3781 Q1513.36 65.3249 1517.33 63.2184 L1517.33 70.267 Q1513.32 71.9684 1509.11 72.8596 Q1504.9 73.7508 1500.56 73.7508 Q1489.71 73.7508 1483.35 67.4314 Q1477.03 61.1119 1477.03 50.3365 Q1477.03 39.1965 1483.02 32.6746 Q1489.06 26.1121 1499.27 26.1121 Q1508.42 26.1121 1513.73 32.0264 Q1519.08 37.9003 1519.08 48.0275 M1511.62 45.84 Q1511.54 39.7232 1508.18 36.0774 Q1504.86 32.4315 1499.35 32.4315 Q1493.11 32.4315 1489.34 35.9558 Q1485.62 39.4801 1485.05 45.8805 L1511.62 45.84 Z" fill="#000000" fill-rule="nonzero" fill-opacity="1" /><path clip-path="url(#clip500)" d="M1566.19 18.8205 L1566.19 41.5461 L1576.48 41.5461 Q1582.19 41.5461 1585.31 38.5889 Q1588.43 35.6318 1588.43 30.163 Q1588.43 24.7348 1585.31 21.7777 Q1582.19 18.8205 1576.48 18.8205 L1566.19 18.8205 M1558.01 12.096 L1576.48 12.096 Q1586.65 12.096 1591.83 16.714 Q1597.06 21.2916 1597.06 30.163 Q1597.06 39.1155 1591.83 43.6931 Q1586.65 48.2706 1576.48 48.2706 L1566.19 48.2706 L1566.19 72.576 L1558.01 72.576 L1558.01 12.096 Z" fill="#000000" fill-rule="nonzero" fill-opacity="1" /><path clip-path="url(#clip500)" d="M1622.33 32.4315 Q1616.34 32.4315 1612.85 37.1306 Q1609.37 41.7891 1609.37 49.9314 Q1609.37 58.0738 1612.81 62.7728 Q1616.3 67.4314 1622.33 67.4314 Q1628.29 67.4314 1631.77 62.7323 Q1635.26 58.0333 1635.26 49.9314 Q1635.26 41.8701 1631.77 37.1711 Q1628.29 32.4315 1622.33 32.4315 M1622.33 26.1121 Q1632.06 26.1121 1637.61 32.4315 Q1643.16 38.7509 1643.16 49.9314 Q1643.16 61.0714 1637.61 67.4314 Q1632.06 73.7508 1622.33 73.7508 Q1612.57 73.7508 1607.02 67.4314 Q1601.51 61.0714 1601.51 49.9314 Q1601.51 38.7509 1607.02 32.4315 Q1612.57 26.1121 1622.33 26.1121 Z" fill="#000000" fill-rule="nonzero" fill-opacity="1" /><path clip-path="url(#clip500)" d="M1651.18 27.2059 L1658.63 27.2059 L1667.95 62.6108 L1677.22 27.2059 L1686.01 27.2059 L1695.33 62.6108 L1704.61 27.2059 L1712.06 27.2059 L1700.19 72.576 L1691.4 72.576 L1681.64 35.3887 L1671.84 72.576 L1663.05 72.576 L1651.18 27.2059 Z" fill="#000000" fill-rule="nonzero" fill-opacity="1" /><path clip-path="url(#clip500)" d="M1762.17 48.0275 L1762.17 51.6733 L1727.9 51.6733 Q1728.39 59.3701 1732.52 63.421 Q1736.69 67.4314 1744.1 67.4314 Q1748.4 67.4314 1752.41 66.3781 Q1756.46 65.3249 1760.43 63.2184 L1760.43 70.267 Q1756.42 71.9684 1752.21 72.8596 Q1747.99 73.7508 1743.66 73.7508 Q1732.8 73.7508 1726.44 67.4314 Q1720.12 61.1119 1720.12 50.3365 Q1720.12 39.1965 1726.12 32.6746 Q1732.15 26.1121 1742.36 26.1121 Q1751.52 26.1121 1756.82 32.0264 Q1762.17 37.9003 1762.17 48.0275 M1754.72 45.84 Q1754.64 39.7232 1751.27 36.0774 Q1747.95 32.4315 1742.44 32.4315 Q1736.2 32.4315 1732.44 35.9558 Q1728.71 39.4801 1728.14 45.8805 L1754.72 45.84 Z" fill="#000000" fill-rule="nonzero" fill-opacity="1" /><path clip-path="url(#clip500)" d="M1800.69 34.1734 Q1799.44 33.4443 1797.94 33.1202 Q1796.48 32.7556 1794.7 32.7556 Q1788.38 32.7556 1784.98 36.8875 Q1781.62 40.9789 1781.62 48.6757 L1781.62 72.576 L1774.12 72.576 L1774.12 27.2059 L1781.62 27.2059 L1781.62 34.2544 Q1783.96 30.1225 1787.73 28.1376 Q1791.5 26.1121 1796.89 26.1121 Q1797.66 26.1121 1798.59 26.2337 Q1799.52 26.3147 1800.65 26.5172 L1800.69 34.1734 Z" fill="#000000" fill-rule="nonzero" fill-opacity="1" /><path clip-path="url(#clip500)" d="M1871.46 14.0809 L1871.46 22.0612 Q1866.81 19.8332 1862.67 18.7395 Q1858.54 17.6457 1854.69 17.6457 Q1848.01 17.6457 1844.36 20.2383 Q1840.76 22.8309 1840.76 27.611 Q1840.76 31.6214 1843.15 33.6873 Q1845.58 35.7128 1852.3 36.9686 L1857.25 37.9813 Q1866.4 39.7232 1870.74 44.1387 Q1875.11 48.5136 1875.11 55.8863 Q1875.11 64.6767 1869.2 69.2137 Q1863.32 73.7508 1851.94 73.7508 Q1847.64 73.7508 1842.78 72.7785 Q1837.96 71.8063 1832.78 69.9024 L1832.78 61.4765 Q1837.76 64.2716 1842.54 65.6895 Q1847.32 67.1073 1851.94 67.1073 Q1858.95 67.1073 1862.75 64.3527 Q1866.56 61.598 1866.56 56.4939 Q1866.56 52.0379 1863.81 49.5264 Q1861.09 47.0148 1854.86 45.759 L1849.87 44.7868 Q1840.72 42.9639 1836.63 39.075 Q1832.54 35.1862 1832.54 28.2591 Q1832.54 20.2383 1838.17 15.6203 Q1843.84 11.0023 1853.76 11.0023 Q1858.02 11.0023 1862.43 11.7719 Q1866.85 12.5416 1871.46 14.0809 Z" fill="#000000" fill-rule="nonzero" fill-opacity="1" /><path clip-path="url(#clip500)" d="M1925.26 45.1919 L1925.26 72.576 L1917.81 72.576 L1917.81 45.4349 Q1917.81 38.994 1915.3 35.7938 Q1912.78 32.5936 1907.76 32.5936 Q1901.72 32.5936 1898.24 36.4419 Q1894.76 40.2903 1894.76 46.9338 L1894.76 72.576 L1887.26 72.576 L1887.26 9.54393 L1894.76 9.54393 L1894.76 34.2544 Q1897.43 30.163 1901.04 28.1376 Q1904.68 26.1121 1909.42 26.1121 Q1917.24 26.1121 1921.25 30.9732 Q1925.26 35.7938 1925.26 45.1919 Z" fill="#000000" fill-rule="nonzero" fill-opacity="1" /><path clip-path="url(#clip500)" d="M1978.93 48.0275 L1978.93 51.6733 L1944.66 51.6733 Q1945.15 59.3701 1949.28 63.421 Q1953.45 67.4314 1960.87 67.4314 Q1965.16 67.4314 1969.17 66.3781 Q1973.22 65.3249 1977.19 63.2184 L1977.19 70.267 Q1973.18 71.9684 1968.97 72.8596 Q1964.76 73.7508 1960.42 73.7508 Q1949.57 73.7508 1943.21 67.4314 Q1936.89 61.1119 1936.89 50.3365 Q1936.89 39.1965 1942.88 32.6746 Q1948.92 26.1121 1959.13 26.1121 Q1968.28 26.1121 1973.59 32.0264 Q1978.93 37.9003 1978.93 48.0275 M1971.48 45.84 Q1971.4 39.7232 1968.04 36.0774 Q1964.72 32.4315 1959.21 32.4315 Q1952.97 32.4315 1949.2 35.9558 Q1945.47 39.4801 1944.91 45.8805 L1971.48 45.84 Z" fill="#000000" fill-rule="nonzero" fill-opacity="1" /><path clip-path="url(#clip500)" d="M2021.02 34.0924 L2021.02 9.54393 L2028.48 9.54393 L2028.48 72.576 L2021.02 72.576 L2021.02 65.7705 Q2018.67 69.8214 2015.07 71.8063 Q2011.5 73.7508 2006.48 73.7508 Q1998.26 73.7508 1993.07 67.1883 Q1987.93 60.6258 1987.93 49.9314 Q1987.93 39.2371 1993.07 32.6746 Q1998.26 26.1121 2006.48 26.1121 Q2011.5 26.1121 2015.07 28.0971 Q2018.67 30.0415 2021.02 34.0924 M1995.62 49.9314 Q1995.62 58.1548 1998.99 62.8538 Q2002.39 67.5124 2008.3 67.5124 Q2014.22 67.5124 2017.62 62.8538 Q2021.02 58.1548 2021.02 49.9314 Q2021.02 41.7081 2017.62 37.0496 Q2014.22 32.3505 2008.3 32.3505 Q2002.39 32.3505 1998.99 37.0496 Q1995.62 41.7081 1995.62 49.9314 Z" fill="#000000" fill-rule="nonzero" fill-opacity="1" /><path clip-path="url(#clip500)" d="M2078.71 18.8205 L2078.71 65.8515 L2088.59 65.8515 Q2101.11 65.8515 2106.9 60.1802 Q2112.74 54.509 2112.74 42.2752 Q2112.74 30.1225 2106.9 24.4918 Q2101.11 18.8205 2088.59 18.8205 L2078.71 18.8205 M2070.53 12.096 L2087.34 12.096 Q2104.92 12.096 2113.14 19.4281 Q2121.36 26.7198 2121.36 42.2752 Q2121.36 57.9117 2113.1 65.2439 Q2104.84 72.576 2087.34 72.576 L2070.53 72.576 L2070.53 12.096 Z" fill="#000000" fill-rule="nonzero" fill-opacity="1" /><path clip-path="url(#clip500)" d="M2134.08 27.2059 L2141.54 27.2059 L2141.54 72.576 L2134.08 72.576 L2134.08 27.2059 M2134.08 9.54393 L2141.54 9.54393 L2141.54 18.9825 L2134.08 18.9825 L2134.08 9.54393 Z" fill="#000000" fill-rule="nonzero" fill-opacity="1" /><path clip-path="url(#clip500)" d="M2186.06 28.5427 L2186.06 35.5912 Q2182.9 33.9709 2179.49 33.1607 Q2176.09 32.3505 2172.45 32.3505 Q2166.9 32.3505 2164.1 34.0519 Q2161.35 35.7533 2161.35 39.156 Q2161.35 41.7486 2163.33 43.2475 Q2165.32 44.7058 2171.31 46.0426 L2173.86 46.6097 Q2181.8 48.3111 2185.13 51.4303 Q2188.49 54.509 2188.49 60.0587 Q2188.49 66.3781 2183.46 70.0644 Q2178.48 73.7508 2169.73 73.7508 Q2166.09 73.7508 2162.12 73.0216 Q2158.19 72.3329 2153.81 70.9151 L2153.81 63.2184 Q2157.94 65.3654 2161.95 66.4591 Q2165.96 67.5124 2169.89 67.5124 Q2175.16 67.5124 2178 65.73 Q2180.83 63.9071 2180.83 60.6258 Q2180.83 57.5877 2178.77 55.9673 Q2176.74 54.3469 2169.81 52.8481 L2167.22 52.2405 Q2160.29 50.7821 2157.22 47.7845 Q2154.14 44.7463 2154.14 39.4801 Q2154.14 33.0797 2158.67 29.5959 Q2163.21 26.1121 2171.56 26.1121 Q2175.69 26.1121 2179.33 26.7198 Q2182.98 27.3274 2186.06 28.5427 Z" fill="#000000" fill-rule="nonzero" fill-opacity="1" /><path clip-path="url(#clip500)" d="M2207.73 14.324 L2207.73 27.2059 L2223.08 27.2059 L2223.08 32.9987 L2207.73 32.9987 L2207.73 57.6282 Q2207.73 63.1779 2209.23 64.7578 Q2210.77 66.3376 2215.43 66.3376 L2223.08 66.3376 L2223.08 72.576 L2215.43 72.576 Q2206.8 72.576 2203.52 69.3758 Q2200.24 66.1351 2200.24 57.6282 L2200.24 32.9987 L2194.77 32.9987 L2194.77 27.2059 L2200.24 27.2059 L2200.24 14.324 L2207.73 14.324 Z" fill="#000000" fill-rule="nonzero" fill-opacity="1" /><path clip-path="url(#clip500)" d="M2259.18 34.1734 Q2257.92 33.4443 2256.42 33.1202 Q2254.96 32.7556 2253.18 32.7556 Q2246.86 32.7556 2243.46 36.8875 Q2240.1 40.9789 2240.1 48.6757 L2240.1 72.576 L2232.6 72.576 L2232.6 27.2059 L2240.1 27.2059 L2240.1 34.2544 Q2242.45 30.1225 2246.21 28.1376 Q2249.98 26.1121 2255.37 26.1121 Q2256.14 26.1121 2257.07 26.2337 Q2258 26.3147 2259.14 26.5172 L2259.18 34.1734 Z" fill="#000000" fill-rule="nonzero" fill-opacity="1" /><path clip-path="url(#clip500)" d="M2266.99 27.2059 L2274.45 27.2059 L2274.45 72.576 L2266.99 72.576 L2266.99 27.2059 M2266.99 9.54393 L2274.45 9.54393 L2274.45 18.9825 L2266.99 18.9825 L2266.99 9.54393 Z" fill="#000000" fill-rule="nonzero" fill-opacity="1" /><path clip-path="url(#clip500)" d="M2322.61 49.9314 Q2322.61 41.7081 2319.21 37.0496 Q2315.85 32.3505 2309.93 32.3505 Q2304.02 32.3505 2300.62 37.0496 Q2297.25 41.7081 2297.25 49.9314 Q2297.25 58.1548 2300.62 62.8538 Q2304.02 67.5124 2309.93 67.5124 Q2315.85 67.5124 2319.21 62.8538 Q2322.61 58.1548 2322.61 49.9314 M2297.25 34.0924 Q2299.6 30.0415 2303.17 28.0971 Q2306.77 26.1121 2311.76 26.1121 Q2320.02 26.1121 2325.17 32.6746 Q2330.35 39.2371 2330.35 49.9314 Q2330.35 60.6258 2325.17 67.1883 Q2320.02 73.7508 2311.76 73.7508 Q2306.77 73.7508 2303.17 71.8063 Q2299.6 69.8214 2297.25 65.7705 L2297.25 72.576 L2289.76 72.576 L2289.76 9.54393 L2297.25 9.54393 L2297.25 34.0924 Z" fill="#000000" fill-rule="nonzero" fill-opacity="1" /><path clip-path="url(#clip500)" d="M2341.94 54.671 L2341.94 27.2059 L2349.39 27.2059 L2349.39 54.3874 Q2349.39 60.8284 2351.9 64.0691 Q2354.41 67.2693 2359.44 67.2693 Q2365.47 67.2693 2368.96 63.421 Q2372.48 59.5726 2372.48 52.9291 L2372.48 27.2059 L2379.93 27.2059 L2379.93 72.576 L2372.48 72.576 L2372.48 65.6084 Q2369.77 69.7404 2366.16 71.7658 Q2362.6 73.7508 2357.86 73.7508 Q2350.04 73.7508 2345.99 68.8897 Q2341.94 64.0286 2341.94 54.671 M2360.69 26.1121 L2360.69 26.1121 Z" fill="#000000" fill-rule="nonzero" fill-opacity="1" /><path clip-path="url(#clip500)" d="M2402.66 14.324 L2402.66 27.2059 L2418.01 27.2059 L2418.01 32.9987 L2402.66 32.9987 L2402.66 57.6282 Q2402.66 63.1779 2404.16 64.7578 Q2405.7 66.3376 2410.36 66.3376 L2418.01 66.3376 L2418.01 72.576 L2410.36 72.576 Q2401.73 72.576 2398.45 69.3758 Q2395.17 66.1351 2395.17 57.6282 L2395.17 32.9987 L2389.7 32.9987 L2389.7 27.2059 L2395.17 27.2059 L2395.17 14.324 L2402.66 14.324 Z" fill="#000000" fill-rule="nonzero" fill-opacity="1" /><path clip-path="url(#clip500)" d="M2427.82 27.2059 L2435.27 27.2059 L2435.27 72.576 L2427.82 72.576 L2427.82 27.2059 M2427.82 9.54393 L2435.27 9.54393 L2435.27 18.9825 L2427.82 18.9825 L2427.82 9.54393 Z" fill="#000000" fill-rule="nonzero" fill-opacity="1" /><path clip-path="url(#clip500)" d="M2468.45 32.4315 Q2462.45 32.4315 2458.97 37.1306 Q2455.48 41.7891 2455.48 49.9314 Q2455.48 58.0738 2458.93 62.7728 Q2462.41 67.4314 2468.45 67.4314 Q2474.4 67.4314 2477.88 62.7323 Q2481.37 58.0333 2481.37 49.9314 Q2481.37 41.8701 2477.88 37.1711 Q2474.4 32.4315 2468.45 32.4315 M2468.45 26.1121 Q2478.17 26.1121 2483.72 32.4315 Q2489.27 38.7509 2489.27 49.9314 Q2489.27 61.0714 2483.72 67.4314 Q2478.17 73.7508 2468.45 73.7508 Q2458.68 73.7508 2453.13 67.4314 Q2447.62 61.0714 2447.62 49.9314 Q2447.62 38.7509 2453.13 32.4315 Q2458.68 26.1121 2468.45 26.1121 Z" fill="#000000" fill-rule="nonzero" fill-opacity="1" /><path clip-path="url(#clip500)" d="M2539.34 45.1919 L2539.34 72.576 L2531.88 72.576 L2531.88 45.4349 Q2531.88 38.994 2529.37 35.7938 Q2526.86 32.5936 2521.84 32.5936 Q2515.8 32.5936 2512.32 36.4419 Q2508.83 40.2903 2508.83 46.9338 L2508.83 72.576 L2501.34 72.576 L2501.34 27.2059 L2508.83 27.2059 L2508.83 34.2544 Q2511.51 30.163 2515.11 28.1376 Q2518.76 26.1121 2523.5 26.1121 Q2531.32 26.1121 2535.33 30.9732 Q2539.34 35.7938 2539.34 45.1919 Z" fill="#000000" fill-rule="nonzero" fill-opacity="1" /><path clip-path="url(#clip500)" d="M2556.11 62.2867 L2564.65 62.2867 L2564.65 72.576 L2556.11 72.576 L2556.11 62.2867 M2556.11 29.6769 L2564.65 29.6769 L2564.65 39.9662 L2556.11 39.9662 L2556.11 29.6769 Z" fill="#000000" fill-rule="nonzero" fill-opacity="1" /><path clip-path="url(#clip500)" d="M2643.85 35.9153 Q2646.65 30.8922 2650.53 28.5022 Q2654.42 26.1121 2659.69 26.1121 Q2666.78 26.1121 2670.63 31.0947 Q2674.47 36.0368 2674.47 45.1919 L2674.47 72.576 L2666.98 72.576 L2666.98 45.4349 Q2666.98 38.913 2664.67 35.7533 Q2662.36 32.5936 2657.62 32.5936 Q2651.83 32.5936 2648.47 36.4419 Q2645.11 40.2903 2645.11 46.9338 L2645.11 72.576 L2637.61 72.576 L2637.61 45.4349 Q2637.61 38.8725 2635.3 35.7533 Q2632.99 32.5936 2628.17 32.5936 Q2622.46 32.5936 2619.1 36.4824 Q2615.74 40.3308 2615.74 46.9338 L2615.74 72.576 L2608.24 72.576 L2608.24 27.2059 L2615.74 27.2059 L2615.74 34.2544 Q2618.29 30.082 2621.85 28.0971 Q2625.42 26.1121 2630.32 26.1121 Q2635.26 26.1121 2638.71 28.6237 Q2642.19 31.1352 2643.85 35.9153 Z" fill="#000000" fill-rule="nonzero" fill-opacity="1" /><path clip-path="url(#clip500)" d="M2706.92 32.4315 Q2700.93 32.4315 2697.44 37.1306 Q2693.96 41.7891 2693.96 49.9314 Q2693.96 58.0738 2697.4 62.7728 Q2700.89 67.4314 2706.92 67.4314 Q2712.88 67.4314 2716.36 62.7323 Q2719.85 58.0333 2719.85 49.9314 Q2719.85 41.8701 2716.36 37.1711 Q2712.88 32.4315 2706.92 32.4315 M2706.92 26.1121 Q2716.64 26.1121 2722.19 32.4315 Q2727.74 38.7509 2727.74 49.9314 Q2727.74 61.0714 2722.19 67.4314 Q2716.64 73.7508 2706.92 73.7508 Q2697.16 73.7508 2691.61 67.4314 Q2686.1 61.0714 2686.1 49.9314 Q2686.1 38.7509 2691.61 32.4315 Q2697.16 26.1121 2706.92 26.1121 Z" fill="#000000" fill-rule="nonzero" fill-opacity="1" /><path clip-path="url(#clip500)" d="M2747.47 14.324 L2747.47 27.2059 L2762.83 27.2059 L2762.83 32.9987 L2747.47 32.9987 L2747.47 57.6282 Q2747.47 63.1779 2748.97 64.7578 Q2750.51 66.3376 2755.17 66.3376 L2762.83 66.3376 L2762.83 72.576 L2755.17 72.576 Q2746.54 72.576 2743.26 69.3758 Q2739.98 66.1351 2739.98 57.6282 L2739.98 32.9987 L2734.51 32.9987 L2734.51 27.2059 L2739.98 27.2059 L2739.98 14.324 L2747.47 14.324 Z" fill="#000000" fill-rule="nonzero" fill-opacity="1" /><path clip-path="url(#clip500)" d="M2772.63 27.2059 L2780.08 27.2059 L2780.08 72.576 L2772.63 72.576 L2772.63 27.2059 M2772.63 9.54393 L2780.08 9.54393 L2780.08 18.9825 L2772.63 18.9825 L2772.63 9.54393 Z" fill="#000000" fill-rule="nonzero" fill-opacity="1" /><path clip-path="url(#clip500)" d="M2790.33 27.2059 L2798.23 27.2059 L2812.41 65.2844 L2826.59 27.2059 L2834.49 27.2059 L2817.47 72.576 L2807.34 72.576 L2790.33 27.2059 Z" fill="#000000" fill-rule="nonzero" fill-opacity="1" /><path clip-path="url(#clip500)" d="M2865.39 49.7694 Q2856.36 49.7694 2852.88 51.8354 Q2849.39 53.9013 2849.39 58.8839 Q2849.39 62.8538 2851.99 65.2034 Q2854.62 67.5124 2859.12 67.5124 Q2865.31 67.5124 2869.04 63.1374 Q2872.81 58.7219 2872.81 51.4303 L2872.81 49.7694 L2865.39 49.7694 M2880.26 46.6907 L2880.26 72.576 L2872.81 72.576 L2872.81 65.6895 Q2870.26 69.8214 2866.45 71.8063 Q2862.64 73.7508 2857.13 73.7508 Q2850.16 73.7508 2846.03 69.8619 Q2841.94 65.9325 2841.94 59.3701 Q2841.94 51.7138 2847.04 47.825 Q2852.19 43.9361 2862.36 43.9361 L2872.81 43.9361 L2872.81 43.2069 Q2872.81 38.0623 2869.4 35.2672 Q2866.04 32.4315 2859.93 32.4315 Q2856.04 32.4315 2852.35 33.3632 Q2848.66 34.295 2845.26 36.1584 L2845.26 29.2718 Q2849.35 27.692 2853.2 26.9223 Q2857.05 26.1121 2860.7 26.1121 Q2870.54 26.1121 2875.4 31.2163 Q2880.26 36.3204 2880.26 46.6907 Z" fill="#000000" fill-rule="nonzero" fill-opacity="1" /><path clip-path="url(#clip500)" d="M2902.99 14.324 L2902.99 27.2059 L2918.34 27.2059 L2918.34 32.9987 L2902.99 32.9987 L2902.99 57.6282 Q2902.99 63.1779 2904.49 64.7578 Q2906.02 66.3376 2910.68 66.3376 L2918.34 66.3376 L2918.34 72.576 L2910.68 72.576 Q2902.05 72.576 2898.77 69.3758 Q2895.49 66.1351 2895.49 57.6282 L2895.49 32.9987 L2890.02 32.9987 L2890.02 27.2059 L2895.49 27.2059 L2895.49 14.324 L2902.99 14.324 Z" fill="#000000" fill-rule="nonzero" fill-opacity="1" /><path clip-path="url(#clip500)" d="M2928.14 27.2059 L2935.6 27.2059 L2935.6 72.576 L2928.14 72.576 L2928.14 27.2059 M2928.14 9.54393 L2935.6 9.54393 L2935.6 18.9825 L2928.14 18.9825 L2928.14 9.54393 Z" fill="#000000" fill-rule="nonzero" fill-opacity="1" /><path clip-path="url(#clip500)" d="M2968.77 32.4315 Q2962.78 32.4315 2959.29 37.1306 Q2955.81 41.7891 2955.81 49.9314 Q2955.81 58.0738 2959.25 62.7728 Q2962.74 67.4314 2968.77 67.4314 Q2974.73 67.4314 2978.21 62.7323 Q2981.7 58.0333 2981.7 49.9314 Q2981.7 41.8701 2978.21 37.1711 Q2974.73 32.4315 2968.77 32.4315 M2968.77 26.1121 Q2978.5 26.1121 2984.05 32.4315 Q2989.59 38.7509 2989.59 49.9314 Q2989.59 61.0714 2984.05 67.4314 Q2978.5 73.7508 2968.77 73.7508 Q2959.01 73.7508 2953.46 67.4314 Q2947.95 61.0714 2947.95 49.9314 Q2947.95 38.7509 2953.46 32.4315 Q2959.01 26.1121 2968.77 26.1121 Z" fill="#000000" fill-rule="nonzero" fill-opacity="1" /><path clip-path="url(#clip500)" d="M3039.66 45.1919 L3039.66 72.576 L3032.21 72.576 L3032.21 45.4349 Q3032.21 38.994 3029.7 35.7938 Q3027.19 32.5936 3022.16 32.5936 Q3016.13 32.5936 3012.64 36.4419 Q3009.16 40.2903 3009.16 46.9338 L3009.16 72.576 L3001.67 72.576 L3001.67 27.2059 L3009.16 27.2059 L3009.16 34.2544 Q3011.83 30.163 3015.44 28.1376 Q3019.09 26.1121 3023.82 26.1121 Q3031.64 26.1121 3035.65 30.9732 Q3039.66 35.7938 3039.66 45.1919 Z" fill="#000000" fill-rule="nonzero" fill-opacity="1" /><path clip-path="url(#clip500)" d="M3089 86.3491 L3089 92.1419 L3045.9 92.1419 L3045.9 86.3491 L3089 86.3491 Z" fill="#000000" fill-rule="nonzero" fill-opacity="1" /><path clip-path="url(#clip500)" d="M3116.63 49.7694 Q3107.6 49.7694 3104.11 51.8354 Q3100.63 53.9013 3100.63 58.8839 Q3100.63 62.8538 3103.22 65.2034 Q3105.86 67.5124 3110.35 67.5124 Q3116.55 67.5124 3120.28 63.1374 Q3124.04 58.7219 3124.04 51.4303 L3124.04 49.7694 L3116.63 49.7694 M3131.5 46.6907 L3131.5 72.576 L3124.04 72.576 L3124.04 65.6895 Q3121.49 69.8214 3117.68 71.8063 Q3113.88 73.7508 3108.37 73.7508 Q3101.4 73.7508 3097.27 69.8619 Q3093.18 65.9325 3093.18 59.3701 Q3093.18 51.7138 3098.28 47.825 Q3103.43 43.9361 3113.59 43.9361 L3124.04 43.9361 L3124.04 43.2069 Q3124.04 38.0623 3120.64 35.2672 Q3117.28 32.4315 3111.16 32.4315 Q3107.27 32.4315 3103.59 33.3632 Q3099.9 34.295 3096.5 36.1584 L3096.5 29.2718 Q3100.59 27.692 3104.44 26.9223 Q3108.29 26.1121 3111.93 26.1121 Q3121.78 26.1121 3126.64 31.2163 Q3131.5 36.3204 3131.5 46.6907 Z" fill="#000000" fill-rule="nonzero" fill-opacity="1" /><circle clip-path="url(#clip502)" cx="543.173" cy="222.601" r="28.8" fill="#0000ff" fill-rule="evenodd" fill-opacity="1" stroke="#000000" stroke-opacity="1" stroke-width="4.8"/>
<circle clip-path="url(#clip502)" cx="2199.51" cy="427.625" r="28.8" fill="#0000ff" fill-rule="evenodd" fill-opacity="1" stroke="#000000" stroke-opacity="1" stroke-width="4.8"/>
<circle clip-path="url(#clip502)" cx="3855.84" cy="1931.03" r="28.8" fill="#0000ff" fill-rule="evenodd" fill-opacity="1" stroke="#000000" stroke-opacity="1" stroke-width="4.8"/>
<path clip-path="url(#clip500)" d="M4098.85 335.389 L4752.76 335.389 L4752.76 231.709 L4098.85 231.709  Z" fill="#ffffff" fill-rule="evenodd" fill-opacity="1"/>
<polyline clip-path="url(#clip500)" style="stroke:#000000; stroke-linecap:round; stroke-linejoin:round; stroke-width:4; stroke-opacity:1; fill:none" points="4098.85,335.389 4752.76,335.389 4752.76,231.709 4098.85,231.709 4098.85,335.389 "/>
<circle clip-path="url(#clip500)" cx="4290.36" cy="283.549" r="21.6847" fill="#0000ff" fill-rule="evenodd" fill-opacity="1" stroke="#000000" stroke-opacity="1" stroke-width="3.61412"/>
<path clip-path="url(#clip500)" d="M4481.87 266.269 L4503.72 266.269 L4503.72 270.204 L4486.55 270.204 L4486.55 280.435 L4503 280.435 L4503 284.37 L4486.55 284.37 L4486.55 296.893 L4504.14 296.893 L4504.14 300.829 L4481.87 300.829 L4481.87 266.269 Z" fill="#000000" fill-rule="nonzero" fill-opacity="1" /><path clip-path="url(#clip500)" d="M4524.76 264.81 L4524.76 268.352 L4520.69 268.352 Q4518.4 268.352 4517.5 269.278 Q4516.62 270.204 4516.62 272.611 L4516.62 274.903 L4523.63 274.903 L4523.63 278.213 L4516.62 278.213 L4516.62 300.829 L4512.33 300.829 L4512.33 278.213 L4508.26 278.213 L4508.26 274.903 L4512.33 274.903 L4512.33 273.097 Q4512.33 268.769 4514.35 266.801 Q4516.36 264.81 4520.74 264.81 L4524.76 264.81 Z" fill="#000000" fill-rule="nonzero" fill-opacity="1" /><path clip-path="url(#clip500)" d="M4541.45 264.81 L4541.45 268.352 L4537.38 268.352 Q4535.09 268.352 4534.19 269.278 Q4533.31 270.204 4533.31 272.611 L4533.31 274.903 L4540.32 274.903 L4540.32 278.213 L4533.31 278.213 L4533.31 300.829 L4529.02 300.829 L4529.02 278.213 L4524.95 278.213 L4524.95 274.903 L4529.02 274.903 L4529.02 273.097 Q4529.02 268.769 4531.04 266.801 Q4533.05 264.81 4537.43 264.81 L4541.45 264.81 Z" fill="#000000" fill-rule="nonzero" fill-opacity="1" /><path clip-path="url(#clip500)" d="M4545.02 274.903 L4549.28 274.903 L4549.28 300.829 L4545.02 300.829 L4545.02 274.903 M4545.02 264.81 L4549.28 264.81 L4549.28 270.204 L4545.02 270.204 L4545.02 264.81 Z" fill="#000000" fill-rule="nonzero" fill-opacity="1" /><path clip-path="url(#clip500)" d="M4576.85 275.898 L4576.85 279.88 Q4575.04 278.884 4573.21 278.398 Q4571.41 277.889 4569.56 277.889 Q4565.41 277.889 4563.12 280.528 Q4560.83 283.144 4560.83 287.889 Q4560.83 292.634 4563.12 295.273 Q4565.41 297.889 4569.56 297.889 Q4571.41 297.889 4573.21 297.403 Q4575.04 296.893 4576.85 295.898 L4576.85 299.833 Q4575.06 300.667 4573.14 301.083 Q4571.25 301.5 4569.09 301.5 Q4563.24 301.5 4559.79 297.819 Q4556.34 294.139 4556.34 287.889 Q4556.34 281.546 4559.81 277.912 Q4563.31 274.278 4569.37 274.278 Q4571.34 274.278 4573.21 274.695 Q4575.09 275.088 4576.85 275.898 Z" fill="#000000" fill-rule="nonzero" fill-opacity="1" /><path clip-path="url(#clip500)" d="M4584.25 274.903 L4588.51 274.903 L4588.51 300.829 L4584.25 300.829 L4584.25 274.903 M4584.25 264.81 L4588.51 264.81 L4588.51 270.204 L4584.25 270.204 L4584.25 264.81 Z" fill="#000000" fill-rule="nonzero" fill-opacity="1" /><path clip-path="url(#clip500)" d="M4619.6 286.801 L4619.6 288.884 L4600.02 288.884 Q4600.3 293.282 4602.66 295.597 Q4605.04 297.889 4609.28 297.889 Q4611.73 297.889 4614.02 297.287 Q4616.34 296.685 4618.61 295.481 L4618.61 299.509 Q4616.31 300.481 4613.91 300.991 Q4611.5 301.5 4609.02 301.5 Q4602.82 301.5 4599.18 297.889 Q4595.57 294.278 4595.57 288.12 Q4595.57 281.755 4599 278.028 Q4602.45 274.278 4608.28 274.278 Q4613.51 274.278 4616.55 277.657 Q4619.6 281.014 4619.6 286.801 M4615.34 285.551 Q4615.3 282.056 4613.37 279.972 Q4611.48 277.889 4608.33 277.889 Q4604.76 277.889 4602.61 279.903 Q4600.48 281.917 4600.16 285.574 L4615.34 285.551 Z" fill="#000000" fill-rule="nonzero" fill-opacity="1" /><path clip-path="url(#clip500)" d="M4648.14 285.181 L4648.14 300.829 L4643.88 300.829 L4643.88 285.319 Q4643.88 281.639 4642.45 279.81 Q4641.01 277.982 4638.14 277.982 Q4634.69 277.982 4632.7 280.181 Q4630.71 282.38 4630.71 286.176 L4630.71 300.829 L4626.43 300.829 L4626.43 274.903 L4630.71 274.903 L4630.71 278.931 Q4632.24 276.593 4634.3 275.435 Q4636.38 274.278 4639.09 274.278 Q4643.56 274.278 4645.85 277.056 Q4648.14 279.81 4648.14 285.181 Z" fill="#000000" fill-rule="nonzero" fill-opacity="1" /><path clip-path="url(#clip500)" d="M4675.3 275.898 L4675.3 279.88 Q4673.49 278.884 4671.66 278.398 Q4669.86 277.889 4668 277.889 Q4663.86 277.889 4661.57 280.528 Q4659.28 283.144 4659.28 287.889 Q4659.28 292.634 4661.57 295.273 Q4663.86 297.889 4668 297.889 Q4669.86 297.889 4671.66 297.403 Q4673.49 296.893 4675.3 295.898 L4675.3 299.833 Q4673.51 300.667 4671.59 301.083 Q4669.69 301.5 4667.54 301.5 Q4661.68 301.5 4658.24 297.819 Q4654.79 294.139 4654.79 287.889 Q4654.79 281.546 4658.26 277.912 Q4661.75 274.278 4667.82 274.278 Q4669.79 274.278 4671.66 274.695 Q4673.54 275.088 4675.3 275.898 Z" fill="#000000" fill-rule="nonzero" fill-opacity="1" /><path clip-path="url(#clip500)" d="M4693.49 303.236 Q4691.68 307.866 4689.97 309.278 Q4688.26 310.69 4685.39 310.69 L4681.99 310.69 L4681.99 307.125 L4684.49 307.125 Q4686.24 307.125 4687.22 306.292 Q4688.19 305.458 4689.37 302.356 L4690.13 300.412 L4679.65 274.903 L4684.16 274.903 L4692.26 295.181 L4700.36 274.903 L4704.88 274.903 L4693.49 303.236 Z" fill="#000000" fill-rule="nonzero" fill-opacity="1" /></svg>
