<?xml version="1.0" encoding="utf-8"?>
<svg xmlns="http://www.w3.org/2000/svg" xmlns:xlink="http://www.w3.org/1999/xlink" width="1100" height="500" viewBox="0 0 4400 2000">
<defs>
  <clipPath id="clip590">
    <rect x="0" y="0" width="4400" height="2000"/>
  </clipPath>
</defs>
<path clip-path="url(#clip590)" d="M0 2000 L4400 2000 L4400 0 L0 0  Z" fill="#ffffff" fill-rule="evenodd" fill-opacity="1"/>
<defs>
  <clipPath id="clip591">
    <rect x="880" y="0" width="3081" height="2000"/>
  </clipPath>
</defs>
<path clip-path="url(#clip590)" d="M237.269 1845.3 L3581.02 1845.3 L3581.02 104.228 L237.269 104.228  Z" fill="#ffffff" fill-rule="evenodd" fill-opacity="1"/>
<defs>
  <clipPath id="clip592">
    <rect x="237" y="104" width="3345" height="1742"/>
  </clipPath>
</defs>
<polyline clip-path="url(#clip592)" style="stroke:#000000; stroke-linecap:round; stroke-linejoin:round; stroke-width:2; stroke-opacity:0.1; fill:none" points="557.224,1845.3 557.224,104.228 "/>
<polyline clip-path="url(#clip592)" style="stroke:#000000; stroke-linecap:round; stroke-linejoin:round; stroke-width:2; stroke-opacity:0.1; fill:none" points="1007.86,1845.3 1007.86,104.228 "/>
<polyline clip-path="url(#clip592)" style="stroke:#000000; stroke-linecap:round; stroke-linejoin:round; stroke-width:2; stroke-opacity:0.1; fill:none" points="1458.5,1845.3 1458.5,104.228 "/>
<polyline clip-path="url(#clip592)" style="stroke:#000000; stroke-linecap:round; stroke-linejoin:round; stroke-width:2; stroke-opacity:0.1; fill:none" points="1909.14,1845.3 1909.14,104.228 "/>
<polyline clip-path="url(#clip592)" style="stroke:#000000; stroke-linecap:round; stroke-linejoin:round; stroke-width:2; stroke-opacity:0.1; fill:none" points="2359.78,1845.3 2359.78,104.228 "/>
<polyline clip-path="url(#clip592)" style="stroke:#000000; stroke-linecap:round; stroke-linejoin:round; stroke-width:2; stroke-opacity:0.1; fill:none" points="2810.42,1845.3 2810.42,104.228 "/>
<polyline clip-path="url(#clip592)" style="stroke:#000000; stroke-linecap:round; stroke-linejoin:round; stroke-width:2; stroke-opacity:0.1; fill:none" points="3261.06,1845.3 3261.06,104.228 "/>
<polyline clip-path="url(#clip592)" style="stroke:#000000; stroke-linecap:round; stroke-linejoin:round; stroke-width:2; stroke-opacity:0.1; fill:none" points="237.269,1796.02 3581.02,1796.02 "/>
<polyline clip-path="url(#clip592)" style="stroke:#000000; stroke-linecap:round; stroke-linejoin:round; stroke-width:2; stroke-opacity:0.1; fill:none" points="237.269,1373.41 3581.02,1373.41 "/>
<polyline clip-path="url(#clip592)" style="stroke:#000000; stroke-linecap:round; stroke-linejoin:round; stroke-width:2; stroke-opacity:0.1; fill:none" points="237.269,950.802 3581.02,950.802 "/>
<polyline clip-path="url(#clip592)" style="stroke:#000000; stroke-linecap:round; stroke-linejoin:round; stroke-width:2; stroke-opacity:0.1; fill:none" points="237.269,528.193 3581.02,528.193 "/>
<polyline clip-path="url(#clip592)" style="stroke:#000000; stroke-linecap:round; stroke-linejoin:round; stroke-width:2; stroke-opacity:0.1; fill:none" points="237.269,105.584 3581.02,105.584 "/>
<polyline clip-path="url(#clip590)" style="stroke:#000000; stroke-linecap:round; stroke-linejoin:round; stroke-width:4; stroke-opacity:1; fill:none" points="237.269,1845.3 3581.02,1845.3 "/>
<polyline clip-path="url(#clip590)" style="stroke:#000000; stroke-linecap:round; stroke-linejoin:round; stroke-width:4; stroke-opacity:1; fill:none" points="557.224,1845.3 557.224,1826.4 "/>
<polyline clip-path="url(#clip590)" style="stroke:#000000; stroke-linecap:round; stroke-linejoin:round; stroke-width:4; stroke-opacity:1; fill:none" points="1007.86,1845.3 1007.86,1826.4 "/>
<polyline clip-path="url(#clip590)" style="stroke:#000000; stroke-linecap:round; stroke-linejoin:round; stroke-width:4; stroke-opacity:1; fill:none" points="1458.5,1845.3 1458.5,1826.4 "/>
<polyline clip-path="url(#clip590)" style="stroke:#000000; stroke-linecap:round; stroke-linejoin:round; stroke-width:4; stroke-opacity:1; fill:none" points="1909.14,1845.3 1909.14,1826.4 "/>
<polyline clip-path="url(#clip590)" style="stroke:#000000; stroke-linecap:round; stroke-linejoin:round; stroke-width:4; stroke-opacity:1; fill:none" points="2359.78,1845.3 2359.78,1826.4 "/>
<polyline clip-path="url(#clip590)" style="stroke:#000000; stroke-linecap:round; stroke-linejoin:round; stroke-width:4; stroke-opacity:1; fill:none" points="2810.42,1845.3 2810.42,1826.4 "/>
<polyline clip-path="url(#clip590)" style="stroke:#000000; stroke-linecap:round; stroke-linejoin:round; stroke-width:4; stroke-opacity:1; fill:none" points="3261.06,1845.3 3261.06,1826.4 "/>
<path clip-path="url(#clip590)" d="M551.876 1919.76 L568.196 1919.76 L568.196 1923.7 L546.251 1923.7 L546.251 1919.76 Q548.913 1917.01 553.497 1912.38 Q558.103 1907.72 559.284 1906.38 Q561.529 1903.86 562.409 1902.12 Q563.312 1900.36 563.312 1898.67 Q563.312 1895.92 561.367 1894.18 Q559.446 1892.45 556.344 1892.45 Q554.145 1892.45 551.691 1893.21 Q549.261 1893.97 546.483 1895.53 L546.483 1890.8 Q549.307 1889.67 551.761 1889.09 Q554.214 1888.51 556.251 1888.51 Q561.622 1888.51 564.816 1891.2 Q568.011 1893.88 568.011 1898.37 Q568.011 1900.5 567.2 1902.42 Q566.413 1904.32 564.307 1906.91 Q563.728 1907.59 560.626 1910.8 Q557.524 1914 551.876 1919.76 Z" fill="#000000" fill-rule="nonzero" fill-opacity="1" /><path clip-path="url(#clip590)" d="M1010.87 1893.21 L999.067 1911.66 L1010.87 1911.66 L1010.87 1893.21 M1009.65 1889.14 L1015.53 1889.14 L1015.53 1911.66 L1020.46 1911.66 L1020.46 1915.55 L1015.53 1915.55 L1015.53 1923.7 L1010.87 1923.7 L1010.87 1915.55 L995.271 1915.55 L995.271 1911.03 L1009.65 1889.14 Z" fill="#000000" fill-rule="nonzero" fill-opacity="1" /><path clip-path="url(#clip590)" d="M1458.91 1904.55 Q1455.76 1904.55 1453.91 1906.71 Q1452.08 1908.86 1452.08 1912.61 Q1452.08 1916.34 1453.91 1918.51 Q1455.76 1920.66 1458.91 1920.66 Q1462.06 1920.66 1463.88 1918.51 Q1465.74 1916.34 1465.74 1912.61 Q1465.74 1908.86 1463.88 1906.71 Q1462.06 1904.55 1458.91 1904.55 M1468.19 1889.9 L1468.19 1894.16 Q1466.43 1893.33 1464.63 1892.89 Q1462.84 1892.45 1461.08 1892.45 Q1456.45 1892.45 1454 1895.57 Q1451.57 1898.7 1451.22 1905.02 Q1452.59 1903 1454.65 1901.94 Q1456.71 1900.85 1459.19 1900.85 Q1464.39 1900.85 1467.4 1904.02 Q1470.44 1907.17 1470.44 1912.61 Q1470.44 1917.93 1467.29 1921.15 Q1464.14 1924.37 1458.91 1924.37 Q1452.91 1924.37 1449.74 1919.78 Q1446.57 1915.18 1446.57 1906.45 Q1446.57 1898.26 1450.46 1893.4 Q1454.35 1888.51 1460.9 1888.51 Q1462.66 1888.51 1464.44 1888.86 Q1466.25 1889.21 1468.19 1889.9 Z" fill="#000000" fill-rule="nonzero" fill-opacity="1" /><path clip-path="url(#clip590)" d="M1909.14 1907.28 Q1905.81 1907.28 1903.89 1909.07 Q1901.99 1910.85 1901.99 1913.97 Q1901.99 1917.1 1903.89 1918.88 Q1905.81 1920.66 1909.14 1920.66 Q1912.48 1920.66 1914.4 1918.88 Q1916.32 1917.08 1916.32 1913.97 Q1916.32 1910.85 1914.4 1909.07 Q1912.5 1907.28 1909.14 1907.28 M1904.47 1905.29 Q1901.46 1904.55 1899.77 1902.49 Q1898.1 1900.43 1898.1 1897.47 Q1898.1 1893.33 1901.04 1890.92 Q1904 1888.51 1909.14 1888.51 Q1914.3 1888.51 1917.24 1890.92 Q1920.18 1893.33 1920.18 1897.47 Q1920.18 1900.43 1918.49 1902.49 Q1916.83 1904.55 1913.84 1905.29 Q1917.22 1906.08 1919.1 1908.37 Q1920.99 1910.66 1920.99 1913.97 Q1920.99 1919 1917.92 1921.68 Q1914.86 1924.37 1909.14 1924.37 Q1903.43 1924.37 1900.35 1921.68 Q1897.29 1919 1897.29 1913.97 Q1897.29 1910.66 1899.19 1908.37 Q1901.09 1906.08 1904.47 1905.29 M1902.75 1897.91 Q1902.75 1900.59 1904.42 1902.1 Q1906.11 1903.6 1909.14 1903.6 Q1912.15 1903.6 1913.84 1902.1 Q1915.55 1900.59 1915.55 1897.91 Q1915.55 1895.22 1913.84 1893.72 Q1912.15 1892.21 1909.14 1892.21 Q1906.11 1892.21 1904.42 1893.72 Q1902.75 1895.22 1902.75 1897.91 Z" fill="#000000" fill-rule="nonzero" fill-opacity="1" /><path clip-path="url(#clip590)" d="M2334.47 1919.76 L2342.11 1919.76 L2342.11 1893.4 L2333.8 1895.06 L2333.8 1890.8 L2342.06 1889.14 L2346.74 1889.14 L2346.74 1919.76 L2354.38 1919.76 L2354.38 1923.7 L2334.47 1923.7 L2334.47 1919.76 Z" fill="#000000" fill-rule="nonzero" fill-opacity="1" /><path clip-path="url(#clip590)" d="M2373.82 1892.21 Q2370.21 1892.21 2368.38 1895.78 Q2366.58 1899.32 2366.58 1906.45 Q2366.58 1913.56 2368.38 1917.12 Q2370.21 1920.66 2373.82 1920.66 Q2377.46 1920.66 2379.26 1917.12 Q2381.09 1913.56 2381.09 1906.45 Q2381.09 1899.32 2379.26 1895.78 Q2377.46 1892.21 2373.82 1892.21 M2373.82 1888.51 Q2379.63 1888.51 2382.69 1893.12 Q2385.77 1897.7 2385.77 1906.45 Q2385.77 1915.18 2382.69 1919.78 Q2379.63 1924.37 2373.82 1924.37 Q2368.01 1924.37 2364.93 1919.78 Q2361.88 1915.18 2361.88 1906.45 Q2361.88 1897.7 2364.93 1893.12 Q2368.01 1888.51 2373.82 1888.51 Z" fill="#000000" fill-rule="nonzero" fill-opacity="1" /><path clip-path="url(#clip590)" d="M2785.91 1919.76 L2793.55 1919.76 L2793.55 1893.4 L2785.24 1895.06 L2785.24 1890.8 L2793.5 1889.14 L2798.18 1889.14 L2798.18 1919.76 L2805.82 1919.76 L2805.82 1923.7 L2785.91 1923.7 L2785.91 1919.76 Z" fill="#000000" fill-rule="nonzero" fill-opacity="1" /><path clip-path="url(#clip590)" d="M2819.29 1919.76 L2835.61 1919.76 L2835.61 1923.7 L2813.66 1923.7 L2813.66 1919.76 Q2816.33 1917.01 2820.91 1912.38 Q2825.51 1907.72 2826.7 1906.38 Q2828.94 1903.86 2829.82 1902.12 Q2830.72 1900.36 2830.72 1898.67 Q2830.72 1895.92 2828.78 1894.18 Q2826.86 1892.45 2823.76 1892.45 Q2821.56 1892.45 2819.1 1893.21 Q2816.67 1893.97 2813.89 1895.53 L2813.89 1890.8 Q2816.72 1889.67 2819.17 1889.09 Q2821.63 1888.51 2823.66 1888.51 Q2829.03 1888.51 2832.23 1891.2 Q2835.42 1893.88 2835.42 1898.37 Q2835.42 1900.5 2834.61 1902.42 Q2833.82 1904.32 2831.72 1906.91 Q2831.14 1907.59 2828.04 1910.8 Q2824.94 1914 2819.29 1919.76 Z" fill="#000000" fill-rule="nonzero" fill-opacity="1" /><path clip-path="url(#clip590)" d="M3235.51 1919.76 L3243.15 1919.76 L3243.15 1893.4 L3234.84 1895.06 L3234.84 1890.8 L3243.1 1889.14 L3247.78 1889.14 L3247.78 1919.76 L3255.41 1919.76 L3255.41 1923.7 L3235.51 1923.7 L3235.51 1919.76 Z" fill="#000000" fill-rule="nonzero" fill-opacity="1" /><path clip-path="url(#clip590)" d="M3277.71 1893.21 L3265.9 1911.66 L3277.71 1911.66 L3277.71 1893.21 M3276.48 1889.14 L3282.36 1889.14 L3282.36 1911.66 L3287.29 1911.66 L3287.29 1915.55 L3282.36 1915.55 L3282.36 1923.7 L3277.71 1923.7 L3277.71 1915.55 L3262.1 1915.55 L3262.1 1911.03 L3276.48 1889.14 Z" fill="#000000" fill-rule="nonzero" fill-opacity="1" /><path clip-path="url(#clip590)" d="M1791.01 1972.64 L1797.44 1972.64 L1797.44 2014.75 L1820.58 2014.75 L1820.58 2020.16 L1791.01 2020.16 L1791.01 1972.64 Z" fill="#000000" fill-rule="nonzero" fill-opacity="1" /><path clip-path="url(#clip590)" d="M1839.74 1988.62 Q1835.03 1988.62 1832.29 1992.31 Q1829.56 1995.97 1829.56 2002.37 Q1829.56 2008.77 1832.26 2012.46 Q1835 2016.12 1839.74 2016.12 Q1844.42 2016.12 1847.16 2012.43 Q1849.89 2008.73 1849.89 2002.37 Q1849.89 1996.03 1847.16 1992.34 Q1844.42 1988.62 1839.74 1988.62 M1839.74 1983.65 Q1847.38 1983.65 1851.74 1988.62 Q1856.1 1993.58 1856.1 2002.37 Q1856.1 2011.12 1851.74 2016.12 Q1847.38 2021.08 1839.74 2021.08 Q1832.07 2021.08 1827.71 2016.12 Q1823.38 2011.12 1823.38 2002.37 Q1823.38 1993.58 1827.71 1988.62 Q1832.07 1983.65 1839.74 1983.65 Z" fill="#000000" fill-rule="nonzero" fill-opacity="1" /><path clip-path="url(#clip590)" d="M1882.01 2002.24 Q1874.91 2002.24 1872.17 2003.86 Q1869.44 2005.49 1869.44 2009.4 Q1869.44 2012.52 1871.47 2014.37 Q1873.54 2016.18 1877.08 2016.18 Q1881.95 2016.18 1884.87 2012.74 Q1887.83 2009.27 1887.83 2003.55 L1887.83 2002.24 L1882.01 2002.24 M1893.69 1999.82 L1893.69 2020.16 L1887.83 2020.16 L1887.83 2014.75 Q1885.83 2018 1882.84 2019.56 Q1879.84 2021.08 1875.52 2021.08 Q1870.04 2021.08 1866.79 2018.03 Q1863.58 2014.94 1863.58 2009.78 Q1863.58 2003.77 1867.59 2000.71 Q1871.63 1997.66 1879.62 1997.66 L1887.83 1997.66 L1887.83 1997.08 Q1887.83 1993.04 1885.16 1990.85 Q1882.52 1988.62 1877.71 1988.62 Q1874.66 1988.62 1871.76 1989.35 Q1868.86 1990.08 1866.19 1991.55 L1866.19 1986.14 Q1869.4 1984.89 1872.43 1984.29 Q1875.45 1983.65 1878.32 1983.65 Q1886.05 1983.65 1889.87 1987.66 Q1893.69 1991.67 1893.69 1999.82 Z" fill="#000000" fill-rule="nonzero" fill-opacity="1" /><path clip-path="url(#clip590)" d="M1929.21 1989.92 L1929.21 1970.64 L1935.07 1970.64 L1935.07 2020.16 L1929.21 2020.16 L1929.21 2014.81 Q1927.36 2018 1924.53 2019.56 Q1921.73 2021.08 1917.78 2021.08 Q1911.32 2021.08 1907.25 2015.93 Q1903.21 2010.77 1903.21 2002.37 Q1903.21 1993.97 1907.25 1988.81 Q1911.32 1983.65 1917.78 1983.65 Q1921.73 1983.65 1924.53 1985.21 Q1927.36 1986.74 1929.21 1989.92 M1909.25 2002.37 Q1909.25 2008.83 1911.9 2012.52 Q1914.57 2016.18 1919.22 2016.18 Q1923.86 2016.18 1926.54 2012.52 Q1929.21 2008.83 1929.21 2002.37 Q1929.21 1995.91 1926.54 1992.25 Q1923.86 1988.55 1919.22 1988.55 Q1914.57 1988.55 1911.9 1992.25 Q1909.25 1995.91 1909.25 2002.37 Z" fill="#000000" fill-rule="nonzero" fill-opacity="1" /><path clip-path="url(#clip590)" d="M1968.11 1972.64 L1974.53 1972.64 L1974.53 2020.16 L1968.11 2020.16 L1968.11 1972.64 Z" fill="#000000" fill-rule="nonzero" fill-opacity="1" /><path clip-path="url(#clip590)" d="M1993.76 1977.92 L1993.76 2014.88 L2001.53 2014.88 Q2011.36 2014.88 2015.91 2010.42 Q2020.49 2005.96 2020.49 1996.35 Q2020.49 1986.8 2015.91 1982.38 Q2011.36 1977.92 2001.53 1977.92 L1993.76 1977.92 M1987.33 1972.64 L2000.54 1972.64 Q2014.35 1972.64 2020.81 1978.4 Q2027.27 1984.13 2027.27 1996.35 Q2027.27 2008.64 2020.78 2014.4 Q2014.29 2020.16 2000.54 2020.16 L1987.33 2020.16 L1987.33 1972.64 Z" fill="#000000" fill-rule="nonzero" fill-opacity="1" /><polyline clip-path="url(#clip590)" style="stroke:#000000; stroke-linecap:round; stroke-linejoin:round; stroke-width:4; stroke-opacity:1; fill:none" points="237.269,1845.3 237.269,104.228 "/>
<polyline clip-path="url(#clip590)" style="stroke:#000000; stroke-linecap:round; stroke-linejoin:round; stroke-width:4; stroke-opacity:1; fill:none" points="237.269,1796.02 252.623,1796.02 "/>
<polyline clip-path="url(#clip590)" style="stroke:#000000; stroke-linecap:round; stroke-linejoin:round; stroke-width:4; stroke-opacity:1; fill:none" points="237.269,1373.41 252.623,1373.41 "/>
<polyline clip-path="url(#clip590)" style="stroke:#000000; stroke-linecap:round; stroke-linejoin:round; stroke-width:4; stroke-opacity:1; fill:none" points="237.269,950.802 252.623,950.802 "/>
<polyline clip-path="url(#clip590)" style="stroke:#000000; stroke-linecap:round; stroke-linejoin:round; stroke-width:4; stroke-opacity:1; fill:none" points="237.269,528.193 252.623,528.193 "/>
<polyline clip-path="url(#clip590)" style="stroke:#000000; stroke-linecap:round; stroke-linejoin:round; stroke-width:4; stroke-opacity:1; fill:none" points="237.269,105.584 252.623,105.584 "/>
<path clip-path="url(#clip590)" d="M159.325 1781.82 Q155.714 1781.82 153.885 1785.38 Q152.08 1788.93 152.08 1796.06 Q152.08 1803.16 153.885 1806.73 Q155.714 1810.27 159.325 1810.27 Q162.959 1810.27 164.765 1806.73 Q166.593 1803.16 166.593 1796.06 Q166.593 1788.93 164.765 1785.38 Q162.959 1781.82 159.325 1781.82 M159.325 1778.12 Q165.135 1778.12 168.191 1782.72 Q171.269 1787.31 171.269 1796.06 Q171.269 1804.78 168.191 1809.39 Q165.135 1813.97 159.325 1813.97 Q153.515 1813.97 150.436 1809.39 Q147.381 1804.78 147.381 1796.06 Q147.381 1787.31 150.436 1782.72 Q153.515 1778.12 159.325 1778.12 Z" fill="#000000" fill-rule="nonzero" fill-opacity="1" /><path clip-path="url(#clip590)" d="M124.186 1386.76 L140.506 1386.76 L140.506 1390.69 L118.561 1390.69 L118.561 1386.76 Q121.223 1384 125.807 1379.37 Q130.413 1374.72 131.594 1373.38 Q133.839 1370.85 134.719 1369.12 Q135.621 1367.36 135.621 1365.67 Q135.621 1362.91 133.677 1361.18 Q131.756 1359.44 128.654 1359.44 Q126.455 1359.44 124.001 1360.21 Q121.571 1360.97 118.793 1362.52 L118.793 1357.8 Q121.617 1356.66 124.071 1356.09 Q126.524 1355.51 128.561 1355.51 Q133.932 1355.51 137.126 1358.19 Q140.32 1360.88 140.32 1365.37 Q140.32 1367.5 139.51 1369.42 Q138.723 1371.32 136.617 1373.91 Q136.038 1374.58 132.936 1377.8 Q129.834 1380.99 124.186 1386.76 Z" fill="#000000" fill-rule="nonzero" fill-opacity="1" /><path clip-path="url(#clip590)" d="M150.367 1356.13 L168.723 1356.13 L168.723 1360.07 L154.649 1360.07 L154.649 1368.54 Q155.668 1368.19 156.686 1368.03 Q157.705 1367.84 158.723 1367.84 Q164.51 1367.84 167.89 1371.02 Q171.269 1374.19 171.269 1379.6 Q171.269 1385.18 167.797 1388.28 Q164.325 1391.36 158.006 1391.36 Q155.83 1391.36 153.561 1390.99 Q151.316 1390.62 148.908 1389.88 L148.908 1385.18 Q150.992 1386.32 153.214 1386.87 Q155.436 1387.43 157.913 1387.43 Q161.918 1387.43 164.255 1385.32 Q166.593 1383.21 166.593 1379.6 Q166.593 1375.99 164.255 1373.89 Q161.918 1371.78 157.913 1371.78 Q156.038 1371.78 154.163 1372.2 Q152.311 1372.61 150.367 1373.49 L150.367 1356.13 Z" fill="#000000" fill-rule="nonzero" fill-opacity="1" /><path clip-path="url(#clip590)" d="M119.209 933.522 L137.566 933.522 L137.566 937.458 L123.492 937.458 L123.492 945.93 Q124.51 945.582 125.529 945.42 Q126.547 945.235 127.566 945.235 Q133.353 945.235 136.732 948.407 Q140.112 951.578 140.112 956.994 Q140.112 962.573 136.64 965.675 Q133.168 968.754 126.848 968.754 Q124.672 968.754 122.404 968.383 Q120.159 968.013 117.751 967.272 L117.751 962.573 Q119.834 963.707 122.057 964.263 Q124.279 964.819 126.756 964.819 Q130.76 964.819 133.098 962.712 Q135.436 960.606 135.436 956.994 Q135.436 953.383 133.098 951.277 Q130.76 949.17 126.756 949.17 Q124.881 949.17 123.006 949.587 Q121.154 950.004 119.209 950.883 L119.209 933.522 Z" fill="#000000" fill-rule="nonzero" fill-opacity="1" /><path clip-path="url(#clip590)" d="M159.325 936.601 Q155.714 936.601 153.885 940.166 Q152.08 943.708 152.08 950.837 Q152.08 957.944 153.885 961.508 Q155.714 965.05 159.325 965.05 Q162.959 965.05 164.765 961.508 Q166.593 957.944 166.593 950.837 Q166.593 943.708 164.765 940.166 Q162.959 936.601 159.325 936.601 M159.325 932.897 Q165.135 932.897 168.191 937.504 Q171.269 942.087 171.269 950.837 Q171.269 959.564 168.191 964.17 Q165.135 968.754 159.325 968.754 Q153.515 968.754 150.436 964.17 Q147.381 959.564 147.381 950.837 Q147.381 942.087 150.436 937.504 Q153.515 932.897 159.325 932.897 Z" fill="#000000" fill-rule="nonzero" fill-opacity="1" /><path clip-path="url(#clip590)" d="M118.978 510.913 L141.2 510.913 L141.2 512.904 L128.654 545.473 L123.77 545.473 L135.575 514.848 L118.978 514.848 L118.978 510.913 Z" fill="#000000" fill-rule="nonzero" fill-opacity="1" /><path clip-path="url(#clip590)" d="M150.367 510.913 L168.723 510.913 L168.723 514.848 L154.649 514.848 L154.649 523.321 Q155.668 522.973 156.686 522.811 Q157.705 522.626 158.723 522.626 Q164.51 522.626 167.89 525.797 Q171.269 528.969 171.269 534.385 Q171.269 539.964 167.797 543.066 Q164.325 546.145 158.006 546.145 Q155.83 546.145 153.561 545.774 Q151.316 545.404 148.908 544.663 L148.908 539.964 Q150.992 541.098 153.214 541.654 Q155.436 542.209 157.913 542.209 Q161.918 542.209 164.255 540.103 Q166.593 537.996 166.593 534.385 Q166.593 530.774 164.255 528.668 Q161.918 526.561 157.913 526.561 Q156.038 526.561 154.163 526.978 Q152.311 527.395 150.367 528.274 L150.367 510.913 Z" fill="#000000" fill-rule="nonzero" fill-opacity="1" /><path clip-path="url(#clip590)" d="M89.8115 118.929 L97.4503 118.929 L97.4503 92.5635 L89.1402 94.2301 L89.1402 89.9709 L97.404 88.3042 L102.08 88.3042 L102.08 118.929 L109.719 118.929 L109.719 122.864 L89.8115 122.864 L89.8115 118.929 Z" fill="#000000" fill-rule="nonzero" fill-opacity="1" /><path clip-path="url(#clip590)" d="M129.163 91.3829 Q125.552 91.3829 123.723 94.9477 Q121.918 98.4894 121.918 105.619 Q121.918 112.725 123.723 116.29 Q125.552 119.832 129.163 119.832 Q132.797 119.832 134.603 116.29 Q136.432 112.725 136.432 105.619 Q136.432 98.4894 134.603 94.9477 Q132.797 91.3829 129.163 91.3829 M129.163 87.6792 Q134.973 87.6792 138.029 92.2857 Q141.107 96.869 141.107 105.619 Q141.107 114.346 138.029 118.952 Q134.973 123.536 129.163 123.536 Q123.353 123.536 120.274 118.952 Q117.219 114.346 117.219 105.619 Q117.219 96.869 120.274 92.2857 Q123.353 87.6792 129.163 87.6792 Z" fill="#000000" fill-rule="nonzero" fill-opacity="1" /><path clip-path="url(#clip590)" d="M159.325 91.3829 Q155.714 91.3829 153.885 94.9477 Q152.08 98.4894 152.08 105.619 Q152.08 112.725 153.885 116.29 Q155.714 119.832 159.325 119.832 Q162.959 119.832 164.765 116.29 Q166.593 112.725 166.593 105.619 Q166.593 98.4894 164.765 94.9477 Q162.959 91.3829 159.325 91.3829 M159.325 87.6792 Q165.135 87.6792 168.191 92.2857 Q171.269 96.869 171.269 105.619 Q171.269 114.346 168.191 118.952 Q165.135 123.536 159.325 123.536 Q153.515 123.536 150.436 118.952 Q147.381 114.346 147.381 105.619 Q147.381 96.869 150.436 92.2857 Q153.515 87.6792 159.325 87.6792 Z" fill="#000000" fill-rule="nonzero" fill-opacity="1" /><path clip-path="url(#clip590)" d="M-38.6358 1226.29 L-38.6358 1219.86 L3.47331 1219.86 L3.47331 1196.72 L8.88416 1196.72 L8.88416 1226.29 L-38.6358 1226.29 Z" fill="#000000" fill-rule="nonzero" fill-opacity="1" /><path clip-path="url(#clip590)" d="M-22.6579 1177.56 Q-22.6579 1182.27 -18.9658 1185.01 Q-15.3055 1187.74 -8.90799 1187.74 Q-2.51046 1187.74 1.18165 1185.04 Q4.84193 1182.3 4.84193 1177.56 Q4.84193 1172.88 1.14982 1170.14 Q-2.54229 1167.4 -8.90799 1167.4 Q-15.2419 1167.4 -18.934 1170.14 Q-22.6579 1172.88 -22.6579 1177.56 M-27.6232 1177.56 Q-27.6232 1169.92 -22.6579 1165.56 Q-17.6927 1161.2 -8.90799 1161.2 Q-0.155146 1161.2 4.84193 1165.56 Q9.80718 1169.92 9.80718 1177.56 Q9.80718 1185.23 4.84193 1189.59 Q-0.155146 1193.92 -8.90799 1193.92 Q-17.6927 1193.92 -22.6579 1189.59 Q-27.6232 1185.23 -27.6232 1177.56 Z" fill="#000000" fill-rule="nonzero" fill-opacity="1" /><path clip-path="url(#clip590)" d="M-9.03531 1135.29 Q-9.03531 1142.39 -7.41205 1145.12 Q-5.7888 1147.86 -1.87389 1147.86 Q1.24531 1147.86 3.09136 1145.82 Q4.90559 1143.76 4.90559 1140.22 Q4.90559 1135.35 1.46811 1132.42 Q-2.0012 1129.46 -7.73034 1129.46 L-9.03531 1129.46 L-9.03531 1135.29 M-11.4543 1123.61 L8.88416 1123.61 L8.88416 1129.46 L3.47331 1129.46 Q6.71982 1131.47 8.27942 1134.46 Q9.80718 1137.45 9.80718 1141.78 Q9.80718 1147.26 6.75165 1150.5 Q3.66428 1153.72 -1.49194 1153.72 Q-7.50754 1153.72 -10.5631 1149.71 Q-13.6186 1145.67 -13.6186 1137.68 L-13.6186 1129.46 L-14.1915 1129.46 Q-18.2338 1129.46 -20.4299 1132.14 Q-22.6579 1134.78 -22.6579 1139.59 Q-22.6579 1142.64 -21.9259 1145.54 Q-21.1938 1148.43 -19.7297 1151.11 L-25.1405 1151.11 Q-26.3819 1147.89 -26.9866 1144.87 Q-27.6232 1141.85 -27.6232 1138.98 Q-27.6232 1131.25 -23.6128 1127.43 Q-19.6024 1123.61 -11.4543 1123.61 Z" fill="#000000" fill-rule="nonzero" fill-opacity="1" /><path clip-path="url(#clip590)" d="M-21.3529 1088.09 L-40.641 1088.09 L-40.641 1082.23 L8.88416 1082.23 L8.88416 1088.09 L3.53696 1088.09 Q6.71982 1089.93 8.27942 1092.77 Q9.80718 1095.57 9.80718 1099.51 Q9.80718 1105.98 4.65096 1110.05 Q-0.50526 1114.09 -8.90799 1114.09 Q-17.3107 1114.09 -22.4669 1110.05 Q-27.6232 1105.98 -27.6232 1099.51 Q-27.6232 1095.57 -26.0636 1092.77 Q-24.5358 1089.93 -21.3529 1088.09 M-8.90799 1108.04 Q-2.4468 1108.04 1.24531 1105.4 Q4.90559 1102.73 4.90559 1098.08 Q4.90559 1093.44 1.24531 1090.76 Q-2.4468 1088.09 -8.90799 1088.09 Q-15.3692 1088.09 -19.0295 1090.76 Q-22.7216 1093.44 -22.7216 1098.08 Q-22.7216 1102.73 -19.0295 1105.4 Q-15.3692 1108.04 -8.90799 1108.04 Z" fill="#000000" fill-rule="nonzero" fill-opacity="1" /><path clip-path="url(#clip590)" d="M-37.0762 1020.71 L-30.806 1020.71 Q-32.5566 1024.37 -33.416 1027.61 Q-34.2753 1030.86 -34.2753 1033.88 Q-34.2753 1039.14 -32.2383 1042 Q-30.2013 1044.83 -26.4455 1044.83 Q-23.2945 1044.83 -21.6712 1042.95 Q-20.0798 1041.05 -19.0931 1035.76 L-18.2974 1031.88 Q-16.9288 1024.69 -13.4595 1021.28 Q-10.022 1017.84 -4.2292 1017.84 Q2.67759 1017.84 6.24239 1022.49 Q9.80718 1027.1 9.80718 1036.05 Q9.80718 1039.42 9.0433 1043.24 Q8.27942 1047.03 6.78347 1051.1 L0.163139 1051.1 Q2.35931 1047.19 3.47331 1043.43 Q4.58731 1039.68 4.58731 1036.05 Q4.58731 1030.54 2.42297 1027.55 Q0.258625 1024.56 -3.75177 1024.56 Q-7.25291 1024.56 -9.22628 1026.72 Q-11.1996 1028.85 -12.1863 1033.76 L-12.9502 1037.67 Q-14.3825 1044.86 -17.438 1048.08 Q-20.4936 1051.29 -25.9363 1051.29 Q-32.2383 1051.29 -35.8668 1046.87 Q-39.4952 1042.41 -39.4952 1034.62 Q-39.4952 1031.27 -38.8905 1027.8 Q-38.2857 1024.34 -37.0762 1020.71 Z" fill="#000000" fill-rule="nonzero" fill-opacity="1" /><path clip-path="url(#clip590)" d="M-12.6319 978.439 L8.88416 978.439 L8.88416 984.295 L-12.441 984.295 Q-17.5017 984.295 -20.0162 986.268 Q-22.5306 988.242 -22.5306 992.188 Q-22.5306 996.931 -19.5069 999.668 Q-16.4832 1002.41 -11.2633 1002.41 L8.88416 1002.41 L8.88416 1008.29 L-40.641 1008.29 L-40.641 1002.41 L-21.2256 1002.41 Q-24.4403 1000.3 -26.0317 997.472 Q-27.6232 994.607 -27.6232 990.883 Q-27.6232 984.741 -23.8037 981.59 Q-20.0162 978.439 -12.6319 978.439 Z" fill="#000000" fill-rule="nonzero" fill-opacity="1" /><path clip-path="url(#clip590)" d="M-10.4039 936.266 L-7.53937 936.266 L-7.53937 963.193 Q-1.49194 962.811 1.69091 959.564 Q4.84193 956.286 4.84193 950.461 Q4.84193 947.087 4.01439 943.936 Q3.18685 940.754 1.53177 937.634 L7.06993 937.634 Q8.40673 940.785 9.10696 944.096 Q9.80718 947.406 9.80718 950.811 Q9.80718 959.341 4.84193 964.339 Q-0.123317 969.304 -8.58971 969.304 Q-17.3426 969.304 -22.4669 964.593 Q-27.6232 959.851 -27.6232 951.83 Q-27.6232 944.637 -22.9762 940.467 Q-18.3611 936.266 -10.4039 936.266 M-12.1227 942.122 Q-16.9288 942.186 -19.7934 944.828 Q-22.6579 947.438 -22.6579 951.766 Q-22.6579 956.668 -19.8888 959.628 Q-17.1198 962.556 -12.0908 963.002 L-12.1227 942.122 Z" fill="#000000" fill-rule="nonzero" fill-opacity="1" /><path clip-path="url(#clip590)" d="M-21.3529 903.196 L-40.641 903.196 L-40.641 897.339 L8.88416 897.339 L8.88416 903.196 L3.53696 903.196 Q6.71982 905.042 8.27942 907.875 Q9.80718 910.676 9.80718 914.622 Q9.80718 921.084 4.65096 925.158 Q-0.50526 929.2 -8.90799 929.2 Q-17.3107 929.2 -22.4669 925.158 Q-27.6232 921.084 -27.6232 914.622 Q-27.6232 910.676 -26.0636 907.875 Q-24.5358 905.042 -21.3529 903.196 M-8.90799 923.152 Q-2.4468 923.152 1.24531 920.511 Q4.90559 917.837 4.90559 913.19 Q4.90559 908.543 1.24531 905.869 Q-2.4468 903.196 -8.90799 903.196 Q-15.3692 903.196 -19.0295 905.869 Q-22.7216 908.543 -22.7216 913.19 Q-22.7216 917.837 -19.0295 920.511 Q-15.3692 923.152 -8.90799 923.152 Z" fill="#000000" fill-rule="nonzero" fill-opacity="1" /><path clip-path="url(#clip590)" d="M-40.5774 850.488 Q-33.2568 854.753 -26.0954 856.822 Q-18.934 858.891 -11.5816 858.891 Q-4.2292 858.891 2.99588 856.822 Q10.1891 854.721 17.4779 850.488 L17.4779 855.58 Q9.99816 860.355 2.77308 862.742 Q-4.452 865.097 -11.5816 865.097 Q-18.6794 865.097 -25.8726 862.742 Q-33.0658 860.387 -40.5774 855.58 L-40.5774 850.488 Z" fill="#000000" fill-rule="nonzero" fill-opacity="1" /><path clip-path="url(#clip590)" d="M-40.641 839.348 L-40.641 833.46 L-11.3906 833.46 L-26.7638 815.986 L-26.7638 808.506 L-10.0856 827.412 L8.88416 807.71 L8.88416 815.349 L-8.52605 833.46 L8.88416 833.46 L8.88416 839.348 L-40.641 839.348 Z" fill="#000000" fill-rule="nonzero" fill-opacity="1" /><path clip-path="url(#clip590)" d="M-38.6358 805.355 L-38.6358 798.862 L1.53177 788.868 L-38.6358 778.905 L-38.6358 771.68 L1.53177 761.686 L-38.6358 751.724 L-38.6358 745.199 L8.88416 757.135 L8.88416 765.219 L-32.3656 775.245 L8.88416 785.367 L8.88416 793.451 L-38.6358 805.355 Z" fill="#000000" fill-rule="nonzero" fill-opacity="1" /><path clip-path="url(#clip590)" d="M-40.5774 737.847 L-40.5774 732.754 Q-33.0658 727.98 -25.8726 725.625 Q-18.6794 723.237 -11.5816 723.237 Q-4.452 723.237 2.77308 725.625 Q9.99816 727.98 17.4779 732.754 L17.4779 737.847 Q10.1891 733.613 2.99588 731.545 Q-4.2292 729.444 -11.5816 729.444 Q-18.934 729.444 -26.0954 731.545 Q-33.2568 733.613 -40.5774 737.847 Z" fill="#000000" fill-rule="nonzero" fill-opacity="1" /><path clip-path="url(#clip590)" d="M863.361 14.0809 L863.361 22.0612 Q858.703 19.8332 854.571 18.7395 Q850.439 17.6457 846.591 17.6457 Q839.907 17.6457 836.261 20.2383 Q832.656 22.8309 832.656 27.611 Q832.656 31.6214 835.046 33.6873 Q837.476 35.7128 844.201 36.9686 L849.143 37.9813 Q858.298 39.7232 862.632 44.1387 Q867.007 48.5136 867.007 55.8863 Q867.007 64.6767 861.093 69.2137 Q855.219 73.7508 843.836 73.7508 Q839.542 73.7508 834.681 72.7785 Q829.86 71.8063 824.675 69.9024 L824.675 61.4765 Q829.658 64.2716 834.438 65.6895 Q839.218 67.1073 843.836 67.1073 Q850.844 67.1073 854.652 64.3527 Q858.46 61.598 858.46 56.4939 Q858.46 52.0379 855.705 49.5264 Q852.991 47.0148 846.753 45.759 L841.77 44.7868 Q832.615 42.9639 828.524 39.075 Q824.432 35.1862 824.432 28.2591 Q824.432 20.2383 830.063 15.6203 Q835.734 11.0023 845.659 11.0023 Q849.912 11.0023 854.328 11.7719 Q858.743 12.5416 863.361 14.0809 Z" fill="#000000" fill-rule="nonzero" fill-opacity="1" /><path clip-path="url(#clip590)" d="M917.157 45.1919 L917.157 72.576 L909.704 72.576 L909.704 45.4349 Q909.704 38.994 907.192 35.7938 Q904.681 32.5936 899.657 32.5936 Q893.622 32.5936 890.138 36.4419 Q886.654 40.2903 886.654 46.9338 L886.654 72.576 L879.16 72.576 L879.16 9.54393 L886.654 9.54393 L886.654 34.2544 Q889.328 30.163 892.933 28.1376 Q896.579 26.1121 901.318 26.1121 Q909.137 26.1121 913.147 30.9732 Q917.157 35.7938 917.157 45.1919 Z" fill="#000000" fill-rule="nonzero" fill-opacity="1" /><path clip-path="url(#clip590)" d="M970.832 48.0275 L970.832 51.6733 L936.561 51.6733 Q937.047 59.3701 941.179 63.421 Q945.352 67.4314 952.765 67.4314 Q957.059 67.4314 961.069 66.3781 Q965.12 65.3249 969.09 63.2184 L969.09 70.267 Q965.08 71.9684 960.867 72.8596 Q956.654 73.7508 952.319 73.7508 Q941.463 73.7508 935.103 67.4314 Q928.783 61.1119 928.783 50.3365 Q928.783 39.1965 934.779 32.6746 Q940.815 26.1121 951.023 26.1121 Q960.178 26.1121 965.485 32.0264 Q970.832 37.9003 970.832 48.0275 M963.378 45.84 Q963.297 39.7232 959.935 36.0774 Q956.613 32.4315 951.104 32.4315 Q944.866 32.4315 941.098 35.9558 Q937.371 39.4801 936.804 45.8805 L963.378 45.84 Z" fill="#000000" fill-rule="nonzero" fill-opacity="1" /><path clip-path="url(#clip590)" d="M1012.92 34.0924 L1012.92 9.54393 L1020.37 9.54393 L1020.37 72.576 L1012.92 72.576 L1012.92 65.7705 Q1010.57 69.8214 1006.97 71.8063 Q1003.4 73.7508 998.378 73.7508 Q990.155 73.7508 984.97 67.1883 Q979.825 60.6258 979.825 49.9314 Q979.825 39.2371 984.97 32.6746 Q990.155 26.1121 998.378 26.1121 Q1003.4 26.1121 1006.97 28.0971 Q1010.57 30.0415 1012.92 34.0924 M987.522 49.9314 Q987.522 58.1548 990.884 62.8538 Q994.287 67.5124 1000.2 67.5124 Q1006.12 67.5124 1009.52 62.8538 Q1012.92 58.1548 1012.92 49.9314 Q1012.92 41.7081 1009.52 37.0496 Q1006.12 32.3505 1000.2 32.3505 Q994.287 32.3505 990.884 37.0496 Q987.522 41.7081 987.522 49.9314 Z" fill="#000000" fill-rule="nonzero" fill-opacity="1" /><path clip-path="url(#clip590)" d="M1070.61 18.8205 L1070.61 65.8515 L1080.49 65.8515 Q1093.01 65.8515 1098.8 60.1802 Q1104.63 54.509 1104.63 42.2752 Q1104.63 30.1225 1098.8 24.4918 Q1093.01 18.8205 1080.49 18.8205 L1070.61 18.8205 M1062.42 12.096 L1079.23 12.096 Q1096.82 12.096 1105.04 19.4281 Q1113.26 26.7198 1113.26 42.2752 Q1113.26 57.9117 1105 65.2439 Q1096.73 72.576 1079.23 72.576 L1062.42 72.576 L1062.42 12.096 Z" fill="#000000" fill-rule="nonzero" fill-opacity="1" /><path clip-path="url(#clip590)" d="M1125.98 27.2059 L1133.44 27.2059 L1133.44 72.576 L1125.98 72.576 L1125.98 27.2059 M1125.98 9.54393 L1133.44 9.54393 L1133.44 18.9825 L1125.98 18.9825 L1125.98 9.54393 Z" fill="#000000" fill-rule="nonzero" fill-opacity="1" /><path clip-path="url(#clip590)" d="M1177.95 28.5427 L1177.95 35.5912 Q1174.79 33.9709 1171.39 33.1607 Q1167.99 32.3505 1164.34 32.3505 Q1158.79 32.3505 1156 34.0519 Q1153.24 35.7533 1153.24 39.156 Q1153.24 41.7486 1155.23 43.2475 Q1157.21 44.7058 1163.21 46.0426 L1165.76 46.6097 Q1173.7 48.3111 1177.02 51.4303 Q1180.39 54.509 1180.39 60.0587 Q1180.39 66.3781 1175.36 70.0644 Q1170.38 73.7508 1161.63 73.7508 Q1157.98 73.7508 1154.01 73.0216 Q1150.08 72.3329 1145.71 70.9151 L1145.71 63.2184 Q1149.84 65.3654 1153.85 66.4591 Q1157.86 67.5124 1161.79 67.5124 Q1167.06 67.5124 1169.89 65.73 Q1172.73 63.9071 1172.73 60.6258 Q1172.73 57.5877 1170.66 55.9673 Q1168.64 54.3469 1161.71 52.8481 L1159.12 52.2405 Q1152.19 50.7821 1149.11 47.7845 Q1146.03 44.7463 1146.03 39.4801 Q1146.03 33.0797 1150.57 29.5959 Q1155.11 26.1121 1163.45 26.1121 Q1167.58 26.1121 1171.23 26.7198 Q1174.88 27.3274 1177.95 28.5427 Z" fill="#000000" fill-rule="nonzero" fill-opacity="1" /><path clip-path="url(#clip590)" d="M1199.63 14.324 L1199.63 27.2059 L1214.98 27.2059 L1214.98 32.9987 L1199.63 32.9987 L1199.63 57.6282 Q1199.63 63.1779 1201.13 64.7578 Q1202.67 66.3376 1207.32 66.3376 L1214.98 66.3376 L1214.98 72.576 L1207.32 72.576 Q1198.7 72.576 1195.41 69.3758 Q1192.13 66.1351 1192.13 57.6282 L1192.13 32.9987 L1186.66 32.9987 L1186.66 27.2059 L1192.13 27.2059 L1192.13 14.324 L1199.63 14.324 Z" fill="#000000" fill-rule="nonzero" fill-opacity="1" /><path clip-path="url(#clip590)" d="M1251.07 34.1734 Q1249.82 33.4443 1248.32 33.1202 Q1246.86 32.7556 1245.08 32.7556 Q1238.76 32.7556 1235.36 36.8875 Q1231.99 40.9789 1231.99 48.6757 L1231.99 72.576 L1224.5 72.576 L1224.5 27.2059 L1231.99 27.2059 L1231.99 34.2544 Q1234.34 30.1225 1238.11 28.1376 Q1241.88 26.1121 1247.27 26.1121 Q1248.04 26.1121 1248.97 26.2337 Q1249.9 26.3147 1251.03 26.5172 L1251.07 34.1734 Z" fill="#000000" fill-rule="nonzero" fill-opacity="1" /><path clip-path="url(#clip590)" d="M1258.89 27.2059 L1266.35 27.2059 L1266.35 72.576 L1258.89 72.576 L1258.89 27.2059 M1258.89 9.54393 L1266.35 9.54393 L1266.35 18.9825 L1258.89 18.9825 L1258.89 9.54393 Z" fill="#000000" fill-rule="nonzero" fill-opacity="1" /><path clip-path="url(#clip590)" d="M1314.51 49.9314 Q1314.51 41.7081 1311.11 37.0496 Q1307.75 32.3505 1301.83 32.3505 Q1295.92 32.3505 1292.51 37.0496 Q1289.15 41.7081 1289.15 49.9314 Q1289.15 58.1548 1292.51 62.8538 Q1295.92 67.5124 1301.83 67.5124 Q1307.75 67.5124 1311.11 62.8538 Q1314.51 58.1548 1314.51 49.9314 M1289.15 34.0924 Q1291.5 30.0415 1295.07 28.0971 Q1298.67 26.1121 1303.65 26.1121 Q1311.92 26.1121 1317.06 32.6746 Q1322.25 39.2371 1322.25 49.9314 Q1322.25 60.6258 1317.06 67.1883 Q1311.92 73.7508 1303.65 73.7508 Q1298.67 73.7508 1295.07 71.8063 Q1291.5 69.8214 1289.15 65.7705 L1289.15 72.576 L1281.66 72.576 L1281.66 9.54393 L1289.15 9.54393 L1289.15 34.0924 Z" fill="#000000" fill-rule="nonzero" fill-opacity="1" /><path clip-path="url(#clip590)" d="M1333.83 54.671 L1333.83 27.2059 L1341.29 27.2059 L1341.29 54.3874 Q1341.29 60.8284 1343.8 64.0691 Q1346.31 67.2693 1351.33 67.2693 Q1357.37 67.2693 1360.85 63.421 Q1364.38 59.5726 1364.38 52.9291 L1364.38 27.2059 L1371.83 27.2059 L1371.83 72.576 L1364.38 72.576 L1364.38 65.6084 Q1361.66 69.7404 1358.06 71.7658 Q1354.49 73.7508 1349.75 73.7508 Q1341.94 73.7508 1337.88 68.8897 Q1333.83 64.0286 1333.83 54.671 M1352.59 26.1121 L1352.59 26.1121 Z" fill="#000000" fill-rule="nonzero" fill-opacity="1" /><path clip-path="url(#clip590)" d="M1394.56 14.324 L1394.56 27.2059 L1409.91 27.2059 L1409.91 32.9987 L1394.56 32.9987 L1394.56 57.6282 Q1394.56 63.1779 1396.06 64.7578 Q1397.59 66.3376 1402.25 66.3376 L1409.91 66.3376 L1409.91 72.576 L1402.25 72.576 Q1393.62 72.576 1390.34 69.3758 Q1387.06 66.1351 1387.06 57.6282 L1387.06 32.9987 L1381.59 32.9987 L1381.59 27.2059 L1387.06 27.2059 L1387.06 14.324 L1394.56 14.324 Z" fill="#000000" fill-rule="nonzero" fill-opacity="1" /><path clip-path="url(#clip590)" d="M1419.71 27.2059 L1427.17 27.2059 L1427.17 72.576 L1419.71 72.576 L1419.71 27.2059 M1419.71 9.54393 L1427.17 9.54393 L1427.17 18.9825 L1419.71 18.9825 L1419.71 9.54393 Z" fill="#000000" fill-rule="nonzero" fill-opacity="1" /><path clip-path="url(#clip590)" d="M1460.34 32.4315 Q1454.35 32.4315 1450.86 37.1306 Q1447.38 41.7891 1447.38 49.9314 Q1447.38 58.0738 1450.82 62.7728 Q1454.31 67.4314 1460.34 67.4314 Q1466.3 67.4314 1469.78 62.7323 Q1473.27 58.0333 1473.27 49.9314 Q1473.27 41.8701 1469.78 37.1711 Q1466.3 32.4315 1460.34 32.4315 M1460.34 26.1121 Q1470.07 26.1121 1475.62 32.4315 Q1481.16 38.7509 1481.16 49.9314 Q1481.16 61.0714 1475.62 67.4314 Q1470.07 73.7508 1460.34 73.7508 Q1450.58 73.7508 1445.03 67.4314 Q1439.52 61.0714 1439.52 49.9314 Q1439.52 38.7509 1445.03 32.4315 Q1450.58 26.1121 1460.34 26.1121 Z" fill="#000000" fill-rule="nonzero" fill-opacity="1" /><path clip-path="url(#clip590)" d="M1531.23 45.1919 L1531.23 72.576 L1523.78 72.576 L1523.78 45.4349 Q1523.78 38.994 1521.27 35.7938 Q1518.76 32.5936 1513.73 32.5936 Q1507.7 32.5936 1504.21 36.4419 Q1500.73 40.2903 1500.73 46.9338 L1500.73 72.576 L1493.24 72.576 L1493.24 27.2059 L1500.73 27.2059 L1500.73 34.2544 Q1503.4 30.163 1507.01 28.1376 Q1510.66 26.1121 1515.39 26.1121 Q1523.21 26.1121 1527.22 30.9732 Q1531.23 35.7938 1531.23 45.1919 Z" fill="#000000" fill-rule="nonzero" fill-opacity="1" /><path clip-path="url(#clip590)" d="M1605.04 49.9314 Q1605.04 41.7081 1601.64 37.0496 Q1598.28 32.3505 1592.36 32.3505 Q1586.45 32.3505 1583.05 37.0496 Q1579.68 41.7081 1579.68 49.9314 Q1579.68 58.1548 1583.05 62.8538 Q1586.45 67.5124 1592.36 67.5124 Q1598.28 67.5124 1601.64 62.8538 Q1605.04 58.1548 1605.04 49.9314 M1579.68 34.0924 Q1582.03 30.0415 1585.6 28.0971 Q1589.2 26.1121 1594.19 26.1121 Q1602.45 26.1121 1607.59 32.6746 Q1612.78 39.2371 1612.78 49.9314 Q1612.78 60.6258 1607.59 67.1883 Q1602.45 73.7508 1594.19 73.7508 Q1589.2 73.7508 1585.6 71.8063 Q1582.03 69.8214 1579.68 65.7705 L1579.68 72.576 L1572.19 72.576 L1572.19 9.54393 L1579.68 9.54393 L1579.68 34.0924 Z" fill="#000000" fill-rule="nonzero" fill-opacity="1" /><path clip-path="url(#clip590)" d="M1644.01 76.7889 Q1640.85 84.8907 1637.85 87.3618 Q1634.86 89.8329 1629.83 89.8329 L1623.88 89.8329 L1623.88 83.5945 L1628.25 83.5945 Q1631.33 83.5945 1633.03 82.1361 Q1634.73 80.6778 1636.8 75.2496 L1638.14 71.8468 L1619.79 27.2059 L1627.69 27.2059 L1641.86 62.6918 L1656.04 27.2059 L1663.94 27.2059 L1644.01 76.7889 Z" fill="#000000" fill-rule="nonzero" fill-opacity="1" /><path clip-path="url(#clip590)" d="M1700.93 12.096 L1735.68 12.096 L1735.68 18.9825 L1709.11 18.9825 L1709.11 36.8065 L1733.09 36.8065 L1733.09 43.6931 L1709.11 43.6931 L1709.11 72.576 L1700.93 72.576 L1700.93 12.096 Z" fill="#000000" fill-rule="nonzero" fill-opacity="1" /><path clip-path="url(#clip590)" d="M1761.33 49.7694 Q1752.29 49.7694 1748.81 51.8354 Q1745.32 53.9013 1745.32 58.8839 Q1745.32 62.8538 1747.92 65.2034 Q1750.55 67.5124 1755.05 67.5124 Q1761.24 67.5124 1764.97 63.1374 Q1768.74 58.7219 1768.74 51.4303 L1768.74 49.7694 L1761.33 49.7694 M1776.19 46.6907 L1776.19 72.576 L1768.74 72.576 L1768.74 65.6895 Q1766.19 69.8214 1762.38 71.8063 Q1758.57 73.7508 1753.06 73.7508 Q1746.09 73.7508 1741.96 69.8619 Q1737.87 65.9325 1737.87 59.3701 Q1737.87 51.7138 1742.97 47.825 Q1748.12 43.9361 1758.29 43.9361 L1768.74 43.9361 L1768.74 43.2069 Q1768.74 38.0623 1765.34 35.2672 Q1761.97 32.4315 1755.86 32.4315 Q1751.97 32.4315 1748.28 33.3632 Q1744.6 34.295 1741.19 36.1584 L1741.19 29.2718 Q1745.28 27.692 1749.13 26.9223 Q1752.98 26.1121 1756.63 26.1121 Q1766.47 26.1121 1771.33 31.2163 Q1776.19 36.3204 1776.19 46.6907 Z" fill="#000000" fill-rule="nonzero" fill-opacity="1" /><path clip-path="url(#clip590)" d="M1791.55 27.2059 L1799 27.2059 L1799 72.576 L1791.55 72.576 L1791.55 27.2059 M1791.55 9.54393 L1799 9.54393 L1799 18.9825 L1791.55 18.9825 L1791.55 9.54393 Z" fill="#000000" fill-rule="nonzero" fill-opacity="1" /><path clip-path="url(#clip590)" d="M1840.89 34.1734 Q1839.63 33.4443 1838.13 33.1202 Q1836.67 32.7556 1834.89 32.7556 Q1828.57 32.7556 1825.17 36.8875 Q1821.81 40.9789 1821.81 48.6757 L1821.81 72.576 L1814.31 72.576 L1814.31 27.2059 L1821.81 27.2059 L1821.81 34.2544 Q1824.15 30.1225 1827.92 28.1376 Q1831.69 26.1121 1837.08 26.1121 Q1837.85 26.1121 1838.78 26.2337 Q1839.71 26.3147 1840.84 26.5172 L1840.89 34.1734 Z" fill="#000000" fill-rule="nonzero" fill-opacity="1" /><path clip-path="url(#clip590)" d="M1884.96 45.1919 L1884.96 72.576 L1877.51 72.576 L1877.51 45.4349 Q1877.51 38.994 1874.99 35.7938 Q1872.48 32.5936 1867.46 32.5936 Q1861.42 32.5936 1857.94 36.4419 Q1854.46 40.2903 1854.46 46.9338 L1854.46 72.576 L1846.96 72.576 L1846.96 27.2059 L1854.46 27.2059 L1854.46 34.2544 Q1857.13 30.163 1860.73 28.1376 Q1864.38 26.1121 1869.12 26.1121 Q1876.94 26.1121 1880.95 30.9732 Q1884.96 35.7938 1884.96 45.1919 Z" fill="#000000" fill-rule="nonzero" fill-opacity="1" /><path clip-path="url(#clip590)" d="M1938.63 48.0275 L1938.63 51.6733 L1904.36 51.6733 Q1904.85 59.3701 1908.98 63.421 Q1913.15 67.4314 1920.57 67.4314 Q1924.86 67.4314 1928.87 66.3781 Q1932.92 65.3249 1936.89 63.2184 L1936.89 70.267 Q1932.88 71.9684 1928.67 72.8596 Q1924.46 73.7508 1920.12 73.7508 Q1909.26 73.7508 1902.9 67.4314 Q1896.59 61.1119 1896.59 50.3365 Q1896.59 39.1965 1902.58 32.6746 Q1908.62 26.1121 1918.82 26.1121 Q1927.98 26.1121 1933.29 32.0264 Q1938.63 37.9003 1938.63 48.0275 M1931.18 45.84 Q1931.1 39.7232 1927.74 36.0774 Q1924.41 32.4315 1918.91 32.4315 Q1912.67 32.4315 1908.9 35.9558 Q1905.17 39.4801 1904.61 45.8805 L1931.18 45.84 Z" fill="#000000" fill-rule="nonzero" fill-opacity="1" /><path clip-path="url(#clip590)" d="M1979.79 28.5427 L1979.79 35.5912 Q1976.63 33.9709 1973.23 33.1607 Q1969.83 32.3505 1966.18 32.3505 Q1960.63 32.3505 1957.83 34.0519 Q1955.08 35.7533 1955.08 39.156 Q1955.08 41.7486 1957.07 43.2475 Q1959.05 44.7058 1965.05 46.0426 L1967.6 46.6097 Q1975.54 48.3111 1978.86 51.4303 Q1982.22 54.509 1982.22 60.0587 Q1982.22 66.3781 1977.2 70.0644 Q1972.22 73.7508 1963.47 73.7508 Q1959.82 73.7508 1955.85 73.0216 Q1951.92 72.3329 1947.55 70.9151 L1947.55 63.2184 Q1951.68 65.3654 1955.69 66.4591 Q1959.7 67.5124 1963.63 67.5124 Q1968.89 67.5124 1971.73 65.73 Q1974.56 63.9071 1974.56 60.6258 Q1974.56 57.5877 1972.5 55.9673 Q1970.47 54.3469 1963.55 52.8481 L1960.95 52.2405 Q1954.03 50.7821 1950.95 47.7845 Q1947.87 44.7463 1947.87 39.4801 Q1947.87 33.0797 1952.41 29.5959 Q1956.94 26.1121 1965.29 26.1121 Q1969.42 26.1121 1973.07 26.7198 Q1976.71 27.3274 1979.79 28.5427 Z" fill="#000000" fill-rule="nonzero" fill-opacity="1" /><path clip-path="url(#clip590)" d="M2023.01 28.5427 L2023.01 35.5912 Q2019.85 33.9709 2016.45 33.1607 Q2013.05 32.3505 2009.4 32.3505 Q2003.85 32.3505 2001.06 34.0519 Q1998.3 35.7533 1998.3 39.156 Q1998.3 41.7486 2000.29 43.2475 Q2002.27 44.7058 2008.27 46.0426 L2010.82 46.6097 Q2018.76 48.3111 2022.08 51.4303 Q2025.44 54.509 2025.44 60.0587 Q2025.44 66.3781 2020.42 70.0644 Q2015.44 73.7508 2006.69 73.7508 Q2003.04 73.7508 1999.07 73.0216 Q1995.14 72.3329 1990.77 70.9151 L1990.77 63.2184 Q1994.9 65.3654 1998.91 66.4591 Q2002.92 67.5124 2006.85 67.5124 Q2012.12 67.5124 2014.95 65.73 Q2017.79 63.9071 2017.79 60.6258 Q2017.79 57.5877 2015.72 55.9673 Q2013.7 54.3469 2006.77 52.8481 L2004.18 52.2405 Q1997.25 50.7821 1994.17 47.7845 Q1991.09 44.7463 1991.09 39.4801 Q1991.09 33.0797 1995.63 29.5959 Q2000.17 26.1121 2008.51 26.1121 Q2012.64 26.1121 2016.29 26.7198 Q2019.94 27.3274 2023.01 28.5427 Z" fill="#000000" fill-rule="nonzero" fill-opacity="1" /><path clip-path="url(#clip590)" d="M2064.01 12.096 L2098.77 12.096 L2098.77 18.9825 L2072.19 18.9825 L2072.19 36.8065 L2096.17 36.8065 L2096.17 43.6931 L2072.19 43.6931 L2072.19 72.576 L2064.01 72.576 L2064.01 12.096 Z" fill="#000000" fill-rule="nonzero" fill-opacity="1" /><path clip-path="url(#clip590)" d="M2106.1 54.671 L2106.1 27.2059 L2113.55 27.2059 L2113.55 54.3874 Q2113.55 60.8284 2116.06 64.0691 Q2118.57 67.2693 2123.6 67.2693 Q2129.63 67.2693 2133.12 63.421 Q2136.64 59.5726 2136.64 52.9291 L2136.64 27.2059 L2144.1 27.2059 L2144.1 72.576 L2136.64 72.576 L2136.64 65.6084 Q2133.93 69.7404 2130.32 71.7658 Q2126.76 73.7508 2122.02 73.7508 Q2114.2 73.7508 2110.15 68.8897 Q2106.1 64.0286 2106.1 54.671 M2124.85 26.1121 L2124.85 26.1121 Z" fill="#000000" fill-rule="nonzero" fill-opacity="1" /><path clip-path="url(#clip590)" d="M2197.16 45.1919 L2197.16 72.576 L2189.71 72.576 L2189.71 45.4349 Q2189.71 38.994 2187.2 35.7938 Q2184.69 32.5936 2179.66 32.5936 Q2173.63 32.5936 2170.14 36.4419 Q2166.66 40.2903 2166.66 46.9338 L2166.66 72.576 L2159.16 72.576 L2159.16 27.2059 L2166.66 27.2059 L2166.66 34.2544 Q2169.33 30.163 2172.94 28.1376 Q2176.58 26.1121 2181.32 26.1121 Q2189.14 26.1121 2193.15 30.9732 Q2197.16 35.7938 2197.16 45.1919 Z" fill="#000000" fill-rule="nonzero" fill-opacity="1" /><path clip-path="url(#clip590)" d="M2244.68 28.9478 L2244.68 35.9153 Q2241.52 34.1734 2238.32 33.3227 Q2235.16 32.4315 2231.92 32.4315 Q2224.67 32.4315 2220.66 37.0496 Q2216.65 41.6271 2216.65 49.9314 Q2216.65 58.2358 2220.66 62.8538 Q2224.67 67.4314 2231.92 67.4314 Q2235.16 67.4314 2238.32 66.5807 Q2241.52 65.6895 2244.68 63.9476 L2244.68 70.8341 Q2241.56 72.2924 2238.2 73.0216 Q2234.88 73.7508 2231.11 73.7508 Q2220.86 73.7508 2214.82 67.3098 Q2208.79 60.8689 2208.79 49.9314 Q2208.79 38.832 2214.86 32.472 Q2220.98 26.1121 2231.59 26.1121 Q2235.04 26.1121 2238.32 26.8413 Q2241.6 27.5299 2244.68 28.9478 Z" fill="#000000" fill-rule="nonzero" fill-opacity="1" /><path clip-path="url(#clip590)" d="M2265.01 14.324 L2265.01 27.2059 L2280.37 27.2059 L2280.37 32.9987 L2265.01 32.9987 L2265.01 57.6282 Q2265.01 63.1779 2266.51 64.7578 Q2268.05 66.3376 2272.71 66.3376 L2280.37 66.3376 L2280.37 72.576 L2272.71 72.576 Q2264.08 72.576 2260.8 69.3758 Q2257.52 66.1351 2257.52 57.6282 L2257.52 32.9987 L2252.05 32.9987 L2252.05 27.2059 L2257.52 27.2059 L2257.52 14.324 L2265.01 14.324 Z" fill="#000000" fill-rule="nonzero" fill-opacity="1" /><path clip-path="url(#clip590)" d="M2290.17 27.2059 L2297.62 27.2059 L2297.62 72.576 L2290.17 72.576 L2290.17 27.2059 M2290.17 9.54393 L2297.62 9.54393 L2297.62 18.9825 L2290.17 18.9825 L2290.17 9.54393 Z" fill="#000000" fill-rule="nonzero" fill-opacity="1" /><path clip-path="url(#clip590)" d="M2330.8 32.4315 Q2324.81 32.4315 2321.32 37.1306 Q2317.84 41.7891 2317.84 49.9314 Q2317.84 58.0738 2321.28 62.7728 Q2324.77 67.4314 2330.8 67.4314 Q2336.76 67.4314 2340.24 62.7323 Q2343.72 58.0333 2343.72 49.9314 Q2343.72 41.8701 2340.24 37.1711 Q2336.76 32.4315 2330.8 32.4315 M2330.8 26.1121 Q2340.52 26.1121 2346.07 32.4315 Q2351.62 38.7509 2351.62 49.9314 Q2351.62 61.0714 2346.07 67.4314 Q2340.52 73.7508 2330.8 73.7508 Q2321.04 73.7508 2315.49 67.4314 Q2309.98 61.0714 2309.98 49.9314 Q2309.98 38.7509 2315.49 32.4315 Q2321.04 26.1121 2330.8 26.1121 Z" fill="#000000" fill-rule="nonzero" fill-opacity="1" /><path clip-path="url(#clip590)" d="M2401.69 45.1919 L2401.69 72.576 L2394.24 72.576 L2394.24 45.4349 Q2394.24 38.994 2391.73 35.7938 Q2389.22 32.5936 2384.19 32.5936 Q2378.16 32.5936 2374.67 36.4419 Q2371.19 40.2903 2371.19 46.9338 L2371.19 72.576 L2363.69 72.576 L2363.69 27.2059 L2371.19 27.2059 L2371.19 34.2544 Q2373.86 30.163 2377.47 28.1376 Q2381.11 26.1121 2385.85 26.1121 Q2393.67 26.1121 2397.68 30.9732 Q2401.69 35.7938 2401.69 45.1919 Z" fill="#000000" fill-rule="nonzero" fill-opacity="1" /><path clip-path="url(#clip590)" d="M2418.46 62.2867 L2427.01 62.2867 L2427.01 72.576 L2418.46 72.576 L2418.46 62.2867 M2418.46 29.6769 L2427.01 29.6769 L2427.01 39.9662 L2418.46 39.9662 L2418.46 29.6769 Z" fill="#000000" fill-rule="nonzero" fill-opacity="1" /><path clip-path="url(#clip590)" d="M2506.21 35.9153 Q2509 30.8922 2512.89 28.5022 Q2516.78 26.1121 2522.04 26.1121 Q2529.13 26.1121 2532.98 31.0947 Q2536.83 36.0368 2536.83 45.1919 L2536.83 72.576 L2529.34 72.576 L2529.34 45.4349 Q2529.34 38.913 2527.03 35.7533 Q2524.72 32.5936 2519.98 32.5936 Q2514.19 32.5936 2510.82 36.4419 Q2507.46 40.2903 2507.46 46.9338 L2507.46 72.576 L2499.97 72.576 L2499.97 45.4349 Q2499.97 38.8725 2497.66 35.7533 Q2495.35 32.5936 2490.53 32.5936 Q2484.82 32.5936 2481.45 36.4824 Q2478.09 40.3308 2478.09 46.9338 L2478.09 72.576 L2470.6 72.576 L2470.6 27.2059 L2478.09 27.2059 L2478.09 34.2544 Q2480.64 30.082 2484.21 28.0971 Q2487.77 26.1121 2492.68 26.1121 Q2497.62 26.1121 2501.06 28.6237 Q2504.54 31.1352 2506.21 35.9153 Z" fill="#000000" fill-rule="nonzero" fill-opacity="1" /><path clip-path="url(#clip590)" d="M2569.28 32.4315 Q2563.28 32.4315 2559.8 37.1306 Q2556.32 41.7891 2556.32 49.9314 Q2556.32 58.0738 2559.76 62.7728 Q2563.24 67.4314 2569.28 67.4314 Q2575.23 67.4314 2578.72 62.7323 Q2582.2 58.0333 2582.2 49.9314 Q2582.2 41.8701 2578.72 37.1711 Q2575.23 32.4315 2569.28 32.4315 M2569.28 26.1121 Q2579 26.1121 2584.55 32.4315 Q2590.1 38.7509 2590.1 49.9314 Q2590.1 61.0714 2584.55 67.4314 Q2579 73.7508 2569.28 73.7508 Q2559.52 73.7508 2553.97 67.4314 Q2548.46 61.0714 2548.46 49.9314 Q2548.46 38.7509 2553.97 32.4315 Q2559.52 26.1121 2569.28 26.1121 Z" fill="#000000" fill-rule="nonzero" fill-opacity="1" /><path clip-path="url(#clip590)" d="M2609.83 14.324 L2609.83 27.2059 L2625.18 27.2059 L2625.18 32.9987 L2609.83 32.9987 L2609.83 57.6282 Q2609.83 63.1779 2611.33 64.7578 Q2612.87 66.3376 2617.52 66.3376 L2625.18 66.3376 L2625.18 72.576 L2617.52 72.576 Q2608.9 72.576 2605.61 69.3758 Q2602.33 66.1351 2602.33 57.6282 L2602.33 32.9987 L2596.86 32.9987 L2596.86 27.2059 L2602.33 27.2059 L2602.33 14.324 L2609.83 14.324 Z" fill="#000000" fill-rule="nonzero" fill-opacity="1" /><path clip-path="url(#clip590)" d="M2634.98 27.2059 L2642.44 27.2059 L2642.44 72.576 L2634.98 72.576 L2634.98 27.2059 M2634.98 9.54393 L2642.44 9.54393 L2642.44 18.9825 L2634.98 18.9825 L2634.98 9.54393 Z" fill="#000000" fill-rule="nonzero" fill-opacity="1" /><path clip-path="url(#clip590)" d="M2652.69 27.2059 L2660.59 27.2059 L2674.76 65.2844 L2688.94 27.2059 L2696.84 27.2059 L2679.83 72.576 L2669.7 72.576 L2652.69 27.2059 Z" fill="#000000" fill-rule="nonzero" fill-opacity="1" /><path clip-path="url(#clip590)" d="M2727.75 49.7694 Q2718.72 49.7694 2715.23 51.8354 Q2711.75 53.9013 2711.75 58.8839 Q2711.75 62.8538 2714.34 65.2034 Q2716.97 67.5124 2721.47 67.5124 Q2727.67 67.5124 2731.4 63.1374 Q2735.16 58.7219 2735.16 51.4303 L2735.16 49.7694 L2727.75 49.7694 M2742.62 46.6907 L2742.62 72.576 L2735.16 72.576 L2735.16 65.6895 Q2732.61 69.8214 2728.8 71.8063 Q2724.99 73.7508 2719.49 73.7508 Q2712.52 73.7508 2708.39 69.8619 Q2704.29 65.9325 2704.29 59.3701 Q2704.29 51.7138 2709.4 47.825 Q2714.54 43.9361 2724.71 43.9361 L2735.16 43.9361 L2735.16 43.2069 Q2735.16 38.0623 2731.76 35.2672 Q2728.4 32.4315 2722.28 32.4315 Q2718.39 32.4315 2714.71 33.3632 Q2711.02 34.295 2707.62 36.1584 L2707.62 29.2718 Q2711.71 27.692 2715.56 26.9223 Q2719.4 26.1121 2723.05 26.1121 Q2732.89 26.1121 2737.76 31.2163 Q2742.62 36.3204 2742.62 46.6907 Z" fill="#000000" fill-rule="nonzero" fill-opacity="1" /><path clip-path="url(#clip590)" d="M2765.34 14.324 L2765.34 27.2059 L2780.69 27.2059 L2780.69 32.9987 L2765.34 32.9987 L2765.34 57.6282 Q2765.34 63.1779 2766.84 64.7578 Q2768.38 66.3376 2773.04 66.3376 L2780.69 66.3376 L2780.69 72.576 L2773.04 72.576 Q2764.41 72.576 2761.13 69.3758 Q2757.85 66.1351 2757.85 57.6282 L2757.85 32.9987 L2752.38 32.9987 L2752.38 27.2059 L2757.85 27.2059 L2757.85 14.324 L2765.34 14.324 Z" fill="#000000" fill-rule="nonzero" fill-opacity="1" /><path clip-path="url(#clip590)" d="M2790.5 27.2059 L2797.95 27.2059 L2797.95 72.576 L2790.5 72.576 L2790.5 27.2059 M2790.5 9.54393 L2797.95 9.54393 L2797.95 18.9825 L2790.5 18.9825 L2790.5 9.54393 Z" fill="#000000" fill-rule="nonzero" fill-opacity="1" /><path clip-path="url(#clip590)" d="M2831.13 32.4315 Q2825.13 32.4315 2821.65 37.1306 Q2818.17 41.7891 2818.17 49.9314 Q2818.17 58.0738 2821.61 62.7728 Q2825.09 67.4314 2831.13 67.4314 Q2837.08 67.4314 2840.57 62.7323 Q2844.05 58.0333 2844.05 49.9314 Q2844.05 41.8701 2840.57 37.1711 Q2837.08 32.4315 2831.13 32.4315 M2831.13 26.1121 Q2840.85 26.1121 2846.4 32.4315 Q2851.95 38.7509 2851.95 49.9314 Q2851.95 61.0714 2846.4 67.4314 Q2840.85 73.7508 2831.13 73.7508 Q2821.37 73.7508 2815.82 67.4314 Q2810.31 61.0714 2810.31 49.9314 Q2810.31 38.7509 2815.82 32.4315 Q2821.37 26.1121 2831.13 26.1121 Z" fill="#000000" fill-rule="nonzero" fill-opacity="1" /><path clip-path="url(#clip590)" d="M2902.02 45.1919 L2902.02 72.576 L2894.57 72.576 L2894.57 45.4349 Q2894.57 38.994 2892.05 35.7938 Q2889.54 32.5936 2884.52 32.5936 Q2878.48 32.5936 2875 36.4419 Q2871.52 40.2903 2871.52 46.9338 L2871.52 72.576 L2864.02 72.576 L2864.02 27.2059 L2871.52 27.2059 L2871.52 34.2544 Q2874.19 30.163 2877.8 28.1376 Q2881.44 26.1121 2886.18 26.1121 Q2894 26.1121 2898.01 30.9732 Q2902.02 35.7938 2902.02 45.1919 Z" fill="#000000" fill-rule="nonzero" fill-opacity="1" /><path clip-path="url(#clip590)" d="M2951.36 86.3491 L2951.36 92.1419 L2908.26 92.1419 L2908.26 86.3491 L2951.36 86.3491 Z" fill="#000000" fill-rule="nonzero" fill-opacity="1" /><path clip-path="url(#clip590)" d="M2978.99 49.7694 Q2969.95 49.7694 2966.47 51.8354 Q2962.99 53.9013 2962.99 58.8839 Q2962.99 62.8538 2965.58 65.2034 Q2968.21 67.5124 2972.71 67.5124 Q2978.91 67.5124 2982.63 63.1374 Q2986.4 58.7219 2986.4 51.4303 L2986.4 49.7694 L2978.99 49.7694 M2993.85 46.6907 L2993.85 72.576 L2986.4 72.576 L2986.4 65.6895 Q2983.85 69.8214 2980.04 71.8063 Q2976.23 73.7508 2970.72 73.7508 Q2963.76 73.7508 2959.62 69.8619 Q2955.53 65.9325 2955.53 59.3701 Q2955.53 51.7138 2960.64 47.825 Q2965.78 43.9361 2975.95 43.9361 L2986.4 43.9361 L2986.4 43.2069 Q2986.4 38.0623 2983 35.2672 Q2979.63 32.4315 2973.52 32.4315 Q2969.63 32.4315 2965.94 33.3632 Q2962.26 34.295 2958.85 36.1584 L2958.85 29.2718 Q2962.95 27.692 2966.79 26.9223 Q2970.64 26.1121 2974.29 26.1121 Q2984.13 26.1121 2988.99 31.2163 Q2993.85 36.3204 2993.85 46.6907 Z" fill="#000000" fill-rule="nonzero" fill-opacity="1" /><circle clip-path="url(#clip592)" cx="331.904" cy="1796.02" r="28.8" fill="#0000ff" fill-rule="evenodd" fill-opacity="1" stroke="#000000" stroke-opacity="1" stroke-width="4"/>
<circle clip-path="url(#clip592)" cx="557.224" cy="1744.88" r="28.8" fill="#0000ff" fill-rule="evenodd" fill-opacity="1" stroke="#000000" stroke-opacity="1" stroke-width="4"/>
<circle clip-path="url(#clip592)" cx="782.543" cy="1796.02" r="28.8" fill="#0000ff" fill-rule="evenodd" fill-opacity="1" stroke="#000000" stroke-opacity="1" stroke-width="4"/>
<circle clip-path="url(#clip592)" cx="1007.86" cy="1431.26" r="28.8" fill="#0000ff" fill-rule="evenodd" fill-opacity="1" stroke="#000000" stroke-opacity="1" stroke-width="4"/>
<circle clip-path="url(#clip592)" cx="1233.18" cy="1796.02" r="28.8" fill="#0000ff" fill-rule="evenodd" fill-opacity="1" stroke="#000000" stroke-opacity="1" stroke-width="4"/>
<circle clip-path="url(#clip592)" cx="1458.5" cy="153.504" r="28.8" fill="#0000ff" fill-rule="evenodd" fill-opacity="1" stroke="#000000" stroke-opacity="1" stroke-width="4"/>
<circle clip-path="url(#clip592)" cx="1683.82" cy="1796.02" r="28.8" fill="#0000ff" fill-rule="evenodd" fill-opacity="1" stroke="#000000" stroke-opacity="1" stroke-width="4"/>
<circle clip-path="url(#clip592)" cx="1909.14" cy="1796.02" r="28.8" fill="#0000ff" fill-rule="evenodd" fill-opacity="1" stroke="#000000" stroke-opacity="1" stroke-width="4"/>
<circle clip-path="url(#clip592)" cx="2134.46" cy="1796.02" r="28.8" fill="#0000ff" fill-rule="evenodd" fill-opacity="1" stroke="#000000" stroke-opacity="1" stroke-width="4"/>
<circle clip-path="url(#clip592)" cx="2359.78" cy="1796.02" r="28.8" fill="#0000ff" fill-rule="evenodd" fill-opacity="1" stroke="#000000" stroke-opacity="1" stroke-width="4"/>
<circle clip-path="url(#clip592)" cx="2585.1" cy="1796.02" r="28.8" fill="#0000ff" fill-rule="evenodd" fill-opacity="1" stroke="#000000" stroke-opacity="1" stroke-width="4"/>
<circle clip-path="url(#clip592)" cx="2810.42" cy="1577.92" r="28.8" fill="#0000ff" fill-rule="evenodd" fill-opacity="1" stroke="#000000" stroke-opacity="1" stroke-width="4"/>
<circle clip-path="url(#clip592)" cx="3035.74" cy="1796.02" r="28.8" fill="#0000ff" fill-rule="evenodd" fill-opacity="1" stroke="#000000" stroke-opacity="1" stroke-width="4"/>
<circle clip-path="url(#clip592)" cx="3261.06" cy="1796.02" r="28.8" fill="#0000ff" fill-rule="evenodd" fill-opacity="1" stroke="#000000" stroke-opacity="1" stroke-width="4"/>
<circle clip-path="url(#clip592)" cx="3486.38" cy="1796.02" r="28.8" fill="#0000ff" fill-rule="evenodd" fill-opacity="1" stroke="#000000" stroke-opacity="1" stroke-width="4"/>
<path clip-path="url(#clip590)" d="M3718.2 265.944 L4352.76 265.944 L4352.76 162.264 L3718.2 162.264  Z" fill="#ffffff" fill-rule="evenodd" fill-opacity="1"/>
<polyline clip-path="url(#clip590)" style="stroke:#000000; stroke-linecap:round; stroke-linejoin:round; stroke-width:4; stroke-opacity:1; fill:none" points="3718.2,265.944 4352.76,265.944 4352.76,162.264 3718.2,162.264 3718.2,265.944 "/>
<circle clip-path="url(#clip590)" cx="3901.11" cy="214.104" r="21.6847" fill="#0000ff" fill-rule="evenodd" fill-opacity="1" stroke="#000000" stroke-opacity="1" stroke-width="3.01176"/>
<path clip-path="url(#clip590)" d="M4084.02 196.824 L4105.87 196.824 L4105.87 200.759 L4088.7 200.759 L4088.7 210.991 L4105.15 210.991 L4105.15 214.926 L4088.7 214.926 L4088.7 227.449 L4106.29 227.449 L4106.29 231.384 L4084.02 231.384 L4084.02 196.824 Z" fill="#000000" fill-rule="nonzero" fill-opacity="1" /><path clip-path="url(#clip590)" d="M4126.91 195.366 L4126.91 198.907 L4122.84 198.907 Q4120.55 198.907 4119.65 199.833 Q4118.77 200.759 4118.77 203.167 L4118.77 205.458 L4125.78 205.458 L4125.78 208.768 L4118.77 208.768 L4118.77 231.384 L4114.48 231.384 L4114.48 208.768 L4110.41 208.768 L4110.41 205.458 L4114.48 205.458 L4114.48 203.653 Q4114.48 199.324 4116.5 197.356 Q4118.51 195.366 4122.89 195.366 L4126.91 195.366 Z" fill="#000000" fill-rule="nonzero" fill-opacity="1" /><path clip-path="url(#clip590)" d="M4143.6 195.366 L4143.6 198.907 L4139.53 198.907 Q4137.24 198.907 4136.33 199.833 Q4135.46 200.759 4135.46 203.167 L4135.46 205.458 L4142.47 205.458 L4142.47 208.768 L4135.46 208.768 L4135.46 231.384 L4131.17 231.384 L4131.17 208.768 L4127.1 208.768 L4127.1 205.458 L4131.17 205.458 L4131.17 203.653 Q4131.17 199.324 4133.19 197.356 Q4135.2 195.366 4139.58 195.366 L4143.6 195.366 Z" fill="#000000" fill-rule="nonzero" fill-opacity="1" /><path clip-path="url(#clip590)" d="M4147.17 205.458 L4151.43 205.458 L4151.43 231.384 L4147.17 231.384 L4147.17 205.458 M4147.17 195.366 L4151.43 195.366 L4151.43 200.759 L4147.17 200.759 L4147.17 195.366 Z" fill="#000000" fill-rule="nonzero" fill-opacity="1" /><path clip-path="url(#clip590)" d="M4179 206.454 L4179 210.435 Q4177.19 209.44 4175.36 208.954 Q4173.56 208.444 4171.7 208.444 Q4167.56 208.444 4165.27 211.083 Q4162.98 213.699 4162.98 218.444 Q4162.98 223.19 4165.27 225.829 Q4167.56 228.444 4171.7 228.444 Q4173.56 228.444 4175.36 227.958 Q4177.19 227.449 4179 226.454 L4179 230.389 Q4177.21 231.222 4175.29 231.639 Q4173.39 232.055 4171.24 232.055 Q4165.39 232.055 4161.94 228.375 Q4158.49 224.694 4158.49 218.444 Q4158.49 212.102 4161.96 208.468 Q4165.45 204.833 4171.52 204.833 Q4173.49 204.833 4175.36 205.25 Q4177.24 205.643 4179 206.454 Z" fill="#000000" fill-rule="nonzero" fill-opacity="1" /><path clip-path="url(#clip590)" d="M4186.4 205.458 L4190.66 205.458 L4190.66 231.384 L4186.4 231.384 L4186.4 205.458 M4186.4 195.366 L4190.66 195.366 L4190.66 200.759 L4186.4 200.759 L4186.4 195.366 Z" fill="#000000" fill-rule="nonzero" fill-opacity="1" /><path clip-path="url(#clip590)" d="M4221.75 217.356 L4221.75 219.44 L4202.17 219.44 Q4202.45 223.838 4204.81 226.153 Q4207.19 228.444 4211.43 228.444 Q4213.88 228.444 4216.17 227.842 Q4218.49 227.241 4220.76 226.037 L4220.76 230.065 Q4218.46 231.037 4216.06 231.546 Q4213.65 232.055 4211.17 232.055 Q4204.97 232.055 4201.33 228.444 Q4197.72 224.833 4197.72 218.676 Q4197.72 212.31 4201.15 208.583 Q4204.6 204.833 4210.43 204.833 Q4215.66 204.833 4218.7 208.213 Q4221.75 211.569 4221.75 217.356 M4217.49 216.106 Q4217.45 212.611 4215.52 210.528 Q4213.63 208.444 4210.48 208.444 Q4206.91 208.444 4204.76 210.458 Q4202.63 212.472 4202.31 216.13 L4217.49 216.106 Z" fill="#000000" fill-rule="nonzero" fill-opacity="1" /><path clip-path="url(#clip590)" d="M4250.29 215.736 L4250.29 231.384 L4246.03 231.384 L4246.03 215.875 Q4246.03 212.194 4244.6 210.366 Q4243.16 208.537 4240.29 208.537 Q4236.84 208.537 4234.85 210.736 Q4232.86 212.935 4232.86 216.731 L4232.86 231.384 L4228.58 231.384 L4228.58 205.458 L4232.86 205.458 L4232.86 209.486 Q4234.39 207.148 4236.45 205.991 Q4238.53 204.833 4241.24 204.833 Q4245.71 204.833 4248 207.611 Q4250.29 210.366 4250.29 215.736 Z" fill="#000000" fill-rule="nonzero" fill-opacity="1" /><path clip-path="url(#clip590)" d="M4277.45 206.454 L4277.45 210.435 Q4275.64 209.44 4273.81 208.954 Q4272.01 208.444 4270.15 208.444 Q4266.01 208.444 4263.72 211.083 Q4261.43 213.699 4261.43 218.444 Q4261.43 223.19 4263.72 225.829 Q4266.01 228.444 4270.15 228.444 Q4272.01 228.444 4273.81 227.958 Q4275.64 227.449 4277.45 226.454 L4277.45 230.389 Q4275.66 231.222 4273.74 231.639 Q4271.84 232.055 4269.69 232.055 Q4263.83 232.055 4260.39 228.375 Q4256.94 224.694 4256.94 218.444 Q4256.94 212.102 4260.41 208.468 Q4263.9 204.833 4269.97 204.833 Q4271.94 204.833 4273.81 205.25 Q4275.69 205.643 4277.45 206.454 Z" fill="#000000" fill-rule="nonzero" fill-opacity="1" /><path clip-path="url(#clip590)" d="M4295.64 233.791 Q4293.83 238.421 4292.12 239.833 Q4290.41 241.245 4287.54 241.245 L4284.13 241.245 L4284.13 237.68 L4286.63 237.68 Q4288.39 237.68 4289.37 236.847 Q4290.34 236.014 4291.52 232.912 L4292.28 230.967 L4281.8 205.458 L4286.31 205.458 L4294.41 225.736 L4302.51 205.458 L4307.03 205.458 L4295.64 233.791 Z" fill="#000000" fill-rule="nonzero" fill-opacity="1" /></svg>
