<?xml version="1.0" encoding="utf-8"?>
<svg xmlns="http://www.w3.org/2000/svg" xmlns:xlink="http://www.w3.org/1999/xlink" width="600" height="400" viewBox="0 0 2400 1600">
<defs>
  <clipPath id="clip680">
    <rect x="0" y="0" width="2400" height="1600"/>
  </clipPath>
</defs>
<path clip-path="url(#clip680)" d="M0 1600 L2400 1600 L2400 0 L0 0  Z" fill="#ffffff" fill-rule="evenodd" fill-opacity="1"/>
<defs>
  <clipPath id="clip681">
    <rect x="480" y="0" width="1681" height="1600"/>
  </clipPath>
</defs>
<path clip-path="url(#clip680)" d="M202.227 1423.18 L2352.76 1423.18 L2352.76 123.472 L202.227 123.472  Z" fill="#ffffff" fill-rule="evenodd" fill-opacity="1"/>
<defs>
  <clipPath id="clip682">
    <rect x="202" y="123" width="2152" height="1301"/>
  </clipPath>
</defs>
<polyline clip-path="url(#clip682)" style="stroke:#000000; stroke-linecap:round; stroke-linejoin:round; stroke-width:2; stroke-opacity:0.1; fill:none" points="237.295,1423.18 237.295,123.472 "/>
<polyline clip-path="url(#clip682)" style="stroke:#000000; stroke-linecap:round; stroke-linejoin:round; stroke-width:2; stroke-opacity:0.1; fill:none" points="930.759,1423.18 930.759,123.472 "/>
<polyline clip-path="url(#clip682)" style="stroke:#000000; stroke-linecap:round; stroke-linejoin:round; stroke-width:2; stroke-opacity:0.1; fill:none" points="1624.22,1423.18 1624.22,123.472 "/>
<polyline clip-path="url(#clip682)" style="stroke:#000000; stroke-linecap:round; stroke-linejoin:round; stroke-width:2; stroke-opacity:0.1; fill:none" points="2317.69,1423.18 2317.69,123.472 "/>
<polyline clip-path="url(#clip682)" style="stroke:#000000; stroke-linecap:round; stroke-linejoin:round; stroke-width:2; stroke-opacity:0.1; fill:none" points="202.227,1423.18 2352.76,1423.18 "/>
<polyline clip-path="url(#clip682)" style="stroke:#000000; stroke-linecap:round; stroke-linejoin:round; stroke-width:2; stroke-opacity:0.1; fill:none" points="202.227,1020.06 2352.76,1020.06 "/>
<polyline clip-path="url(#clip682)" style="stroke:#000000; stroke-linecap:round; stroke-linejoin:round; stroke-width:2; stroke-opacity:0.1; fill:none" points="202.227,616.936 2352.76,616.936 "/>
<polyline clip-path="url(#clip682)" style="stroke:#000000; stroke-linecap:round; stroke-linejoin:round; stroke-width:2; stroke-opacity:0.1; fill:none" points="202.227,213.814 2352.76,213.814 "/>
<polyline clip-path="url(#clip680)" style="stroke:#000000; stroke-linecap:round; stroke-linejoin:round; stroke-width:4; stroke-opacity:1; fill:none" points="202.227,1423.18 2352.76,1423.18 "/>
<polyline clip-path="url(#clip680)" style="stroke:#000000; stroke-linecap:round; stroke-linejoin:round; stroke-width:4; stroke-opacity:1; fill:none" points="237.295,1423.18 237.295,1404.28 "/>
<polyline clip-path="url(#clip680)" style="stroke:#000000; stroke-linecap:round; stroke-linejoin:round; stroke-width:4; stroke-opacity:1; fill:none" points="930.759,1423.18 930.759,1404.28 "/>
<polyline clip-path="url(#clip680)" style="stroke:#000000; stroke-linecap:round; stroke-linejoin:round; stroke-width:4; stroke-opacity:1; fill:none" points="1624.22,1423.18 1624.22,1404.28 "/>
<polyline clip-path="url(#clip680)" style="stroke:#000000; stroke-linecap:round; stroke-linejoin:round; stroke-width:4; stroke-opacity:1; fill:none" points="2317.69,1423.18 2317.69,1404.28 "/>
<path clip-path="url(#clip680)" d="M237.295 1454.1 Q233.684 1454.1 231.855 1457.66 Q230.049 1461.2 230.049 1468.33 Q230.049 1475.44 231.855 1479.01 Q233.684 1482.55 237.295 1482.55 Q240.929 1482.55 242.734 1479.01 Q244.563 1475.44 244.563 1468.33 Q244.563 1461.2 242.734 1457.66 Q240.929 1454.1 237.295 1454.1 M237.295 1450.39 Q243.105 1450.39 246.16 1455 Q249.239 1459.58 249.239 1468.33 Q249.239 1477.06 246.16 1481.67 Q243.105 1486.25 237.295 1486.25 Q231.484 1486.25 228.406 1481.67 Q225.35 1477.06 225.35 1468.33 Q225.35 1459.58 228.406 1455 Q231.484 1450.39 237.295 1450.39 Z" fill="#000000" fill-rule="nonzero" fill-opacity="1" /><path clip-path="url(#clip680)" d="M921.037 1451.02 L939.394 1451.02 L939.394 1454.96 L925.32 1454.96 L925.32 1463.43 Q926.338 1463.08 927.357 1462.92 Q928.375 1462.73 929.394 1462.73 Q935.181 1462.73 938.56 1465.9 Q941.94 1469.08 941.94 1474.49 Q941.94 1480.07 938.468 1483.17 Q934.995 1486.25 928.676 1486.25 Q926.5 1486.25 924.232 1485.88 Q921.986 1485.51 919.579 1484.77 L919.579 1480.07 Q921.662 1481.2 923.884 1481.76 Q926.107 1482.32 928.583 1482.32 Q932.588 1482.32 934.926 1480.21 Q937.264 1478.1 937.264 1474.49 Q937.264 1470.88 934.926 1468.77 Q932.588 1466.67 928.583 1466.67 Q926.708 1466.67 924.833 1467.08 Q922.982 1467.5 921.037 1468.38 L921.037 1451.02 Z" fill="#000000" fill-rule="nonzero" fill-opacity="1" /><path clip-path="url(#clip680)" d="M1598.91 1481.64 L1606.55 1481.64 L1606.55 1455.28 L1598.24 1456.95 L1598.24 1452.69 L1606.5 1451.02 L1611.18 1451.02 L1611.18 1481.64 L1618.82 1481.64 L1618.82 1485.58 L1598.91 1485.58 L1598.91 1481.64 Z" fill="#000000" fill-rule="nonzero" fill-opacity="1" /><path clip-path="url(#clip680)" d="M1638.26 1454.1 Q1634.65 1454.1 1632.82 1457.66 Q1631.02 1461.2 1631.02 1468.33 Q1631.02 1475.44 1632.82 1479.01 Q1634.65 1482.55 1638.26 1482.55 Q1641.9 1482.55 1643.7 1479.01 Q1645.53 1475.44 1645.53 1468.33 Q1645.53 1461.2 1643.7 1457.66 Q1641.9 1454.1 1638.26 1454.1 M1638.26 1450.39 Q1644.07 1450.39 1647.13 1455 Q1650.21 1459.58 1650.21 1468.33 Q1650.21 1477.06 1647.13 1481.67 Q1644.07 1486.25 1638.26 1486.25 Q1632.45 1486.25 1629.37 1481.67 Q1626.32 1477.06 1626.32 1468.33 Q1626.32 1459.58 1629.37 1455 Q1632.45 1450.39 1638.26 1450.39 Z" fill="#000000" fill-rule="nonzero" fill-opacity="1" /><path clip-path="url(#clip680)" d="M2292.87 1481.64 L2300.51 1481.64 L2300.51 1455.28 L2292.2 1456.95 L2292.2 1452.69 L2300.47 1451.02 L2305.14 1451.02 L2305.14 1481.64 L2312.78 1481.64 L2312.78 1485.58 L2292.87 1485.58 L2292.87 1481.64 Z" fill="#000000" fill-rule="nonzero" fill-opacity="1" /><path clip-path="url(#clip680)" d="M2322.27 1451.02 L2340.63 1451.02 L2340.63 1454.96 L2326.55 1454.96 L2326.55 1463.43 Q2327.57 1463.08 2328.59 1462.92 Q2329.61 1462.73 2330.63 1462.73 Q2336.42 1462.73 2339.8 1465.9 Q2343.17 1469.08 2343.17 1474.49 Q2343.17 1480.07 2339.7 1483.17 Q2336.23 1486.25 2329.91 1486.25 Q2327.74 1486.25 2325.47 1485.88 Q2323.22 1485.51 2320.81 1484.77 L2320.81 1480.07 Q2322.9 1481.2 2325.12 1481.76 Q2327.34 1482.32 2329.82 1482.32 Q2333.82 1482.32 2336.16 1480.21 Q2338.5 1478.1 2338.5 1474.49 Q2338.5 1470.88 2336.16 1468.77 Q2333.82 1466.67 2329.82 1466.67 Q2327.94 1466.67 2326.07 1467.08 Q2324.22 1467.5 2322.27 1468.38 L2322.27 1451.02 Z" fill="#000000" fill-rule="nonzero" fill-opacity="1" /><path clip-path="url(#clip680)" d="M1159.36 1520.52 L1165.79 1520.52 L1165.79 1562.63 L1188.93 1562.63 L1188.93 1568.04 L1159.36 1568.04 L1159.36 1520.52 Z" fill="#000000" fill-rule="nonzero" fill-opacity="1" /><path clip-path="url(#clip680)" d="M1208.09 1536.5 Q1203.38 1536.5 1200.64 1540.19 Q1197.9 1543.85 1197.9 1550.25 Q1197.9 1556.65 1200.61 1560.34 Q1203.35 1564 1208.09 1564 Q1212.77 1564 1215.51 1560.31 Q1218.24 1556.62 1218.24 1550.25 Q1218.24 1543.92 1215.51 1540.23 Q1212.77 1536.5 1208.09 1536.5 M1208.09 1531.54 Q1215.73 1531.54 1220.09 1536.5 Q1224.45 1541.47 1224.45 1550.25 Q1224.45 1559 1220.09 1564 Q1215.73 1568.97 1208.09 1568.97 Q1200.42 1568.97 1196.06 1564 Q1191.73 1559 1191.73 1550.25 Q1191.73 1541.47 1196.06 1536.5 Q1200.42 1531.54 1208.09 1531.54 Z" fill="#000000" fill-rule="nonzero" fill-opacity="1" /><path clip-path="url(#clip680)" d="M1250.36 1550.12 Q1243.26 1550.12 1240.52 1551.75 Q1237.79 1553.37 1237.79 1557.29 Q1237.79 1560.4 1239.82 1562.25 Q1241.89 1564.07 1245.42 1564.07 Q1250.29 1564.07 1253.22 1560.63 Q1256.18 1557.16 1256.18 1551.43 L1256.18 1550.12 L1250.36 1550.12 M1262.04 1547.71 L1262.04 1568.04 L1256.18 1568.04 L1256.18 1562.63 Q1254.18 1565.88 1251.19 1567.44 Q1248.19 1568.97 1243.86 1568.97 Q1238.39 1568.97 1235.14 1565.91 Q1231.93 1562.82 1231.93 1557.67 Q1231.93 1551.65 1235.94 1548.6 Q1239.98 1545.54 1247.97 1545.54 L1256.18 1545.54 L1256.18 1544.97 Q1256.18 1540.93 1253.51 1538.73 Q1250.87 1536.5 1246.06 1536.5 Q1243.01 1536.5 1240.11 1537.23 Q1237.21 1537.97 1234.54 1539.43 L1234.54 1534.02 Q1237.75 1532.78 1240.78 1532.17 Q1243.8 1531.54 1246.67 1531.54 Q1254.4 1531.54 1258.22 1535.55 Q1262.04 1539.56 1262.04 1547.71 Z" fill="#000000" fill-rule="nonzero" fill-opacity="1" /><path clip-path="url(#clip680)" d="M1297.56 1537.81 L1297.56 1518.52 L1303.42 1518.52 L1303.42 1568.04 L1297.56 1568.04 L1297.56 1562.7 Q1295.71 1565.88 1292.88 1567.44 Q1290.08 1568.97 1286.13 1568.97 Q1279.67 1568.97 1275.6 1563.81 Q1271.56 1558.65 1271.56 1550.25 Q1271.56 1541.85 1275.6 1536.69 Q1279.67 1531.54 1286.13 1531.54 Q1290.08 1531.54 1292.88 1533.1 Q1295.71 1534.62 1297.56 1537.81 M1277.6 1550.25 Q1277.6 1556.71 1280.24 1560.4 Q1282.92 1564.07 1287.57 1564.07 Q1292.21 1564.07 1294.89 1560.4 Q1297.56 1556.71 1297.56 1550.25 Q1297.56 1543.79 1294.89 1540.13 Q1292.21 1536.44 1287.57 1536.44 Q1282.92 1536.44 1280.24 1540.13 Q1277.6 1543.79 1277.6 1550.25 Z" fill="#000000" fill-rule="nonzero" fill-opacity="1" /><path clip-path="url(#clip680)" d="M1336.45 1520.52 L1342.88 1520.52 L1342.88 1568.04 L1336.45 1568.04 L1336.45 1520.52 Z" fill="#000000" fill-rule="nonzero" fill-opacity="1" /><path clip-path="url(#clip680)" d="M1362.11 1525.81 L1362.11 1562.76 L1369.87 1562.76 Q1379.71 1562.76 1384.26 1558.3 Q1388.84 1553.85 1388.84 1544.24 Q1388.84 1534.69 1384.26 1530.26 Q1379.71 1525.81 1369.87 1525.81 L1362.11 1525.81 M1355.68 1520.52 L1368.89 1520.52 Q1382.7 1520.52 1389.16 1526.28 Q1395.62 1532.01 1395.62 1544.24 Q1395.62 1556.52 1389.13 1562.28 Q1382.64 1568.04 1368.89 1568.04 L1355.68 1568.04 L1355.68 1520.52 Z" fill="#000000" fill-rule="nonzero" fill-opacity="1" /><polyline clip-path="url(#clip680)" style="stroke:#000000; stroke-linecap:round; stroke-linejoin:round; stroke-width:4; stroke-opacity:1; fill:none" points="202.227,1423.18 202.227,123.472 "/>
<polyline clip-path="url(#clip680)" style="stroke:#000000; stroke-linecap:round; stroke-linejoin:round; stroke-width:4; stroke-opacity:1; fill:none" points="202.227,1423.18 221.125,1423.18 "/>
<polyline clip-path="url(#clip680)" style="stroke:#000000; stroke-linecap:round; stroke-linejoin:round; stroke-width:4; stroke-opacity:1; fill:none" points="202.227,1020.06 221.125,1020.06 "/>
<polyline clip-path="url(#clip680)" style="stroke:#000000; stroke-linecap:round; stroke-linejoin:round; stroke-width:4; stroke-opacity:1; fill:none" points="202.227,616.936 221.125,616.936 "/>
<polyline clip-path="url(#clip680)" style="stroke:#000000; stroke-linecap:round; stroke-linejoin:round; stroke-width:4; stroke-opacity:1; fill:none" points="202.227,213.814 221.125,213.814 "/>
<path clip-path="url(#clip680)" d="M154.283 1408.98 Q150.672 1408.98 148.843 1412.54 Q147.038 1416.08 147.038 1423.21 Q147.038 1430.32 148.843 1433.89 Q150.672 1437.43 154.283 1437.43 Q157.917 1437.43 159.723 1433.89 Q161.552 1430.32 161.552 1423.21 Q161.552 1416.08 159.723 1412.54 Q157.917 1408.98 154.283 1408.98 M154.283 1405.27 Q160.093 1405.27 163.149 1409.88 Q166.227 1414.46 166.227 1423.21 Q166.227 1431.94 163.149 1436.55 Q160.093 1441.13 154.283 1441.13 Q148.473 1441.13 145.394 1436.55 Q142.339 1431.94 142.339 1423.21 Q142.339 1414.46 145.394 1409.88 Q148.473 1405.27 154.283 1405.27 Z" fill="#000000" fill-rule="nonzero" fill-opacity="1" /><path clip-path="url(#clip680)" d="M145.325 1002.78 L163.681 1002.78 L163.681 1006.71 L149.607 1006.71 L149.607 1015.19 Q150.626 1014.84 151.644 1014.68 Q152.663 1014.49 153.681 1014.49 Q159.468 1014.49 162.848 1017.66 Q166.227 1020.83 166.227 1026.25 Q166.227 1031.83 162.755 1034.93 Q159.283 1038.01 152.964 1038.01 Q150.788 1038.01 148.519 1037.64 Q146.274 1037.27 143.866 1036.53 L143.866 1031.83 Q145.95 1032.96 148.172 1033.52 Q150.394 1034.07 152.871 1034.07 Q156.876 1034.07 159.214 1031.97 Q161.552 1029.86 161.552 1026.25 Q161.552 1022.64 159.214 1020.53 Q156.876 1018.43 152.871 1018.43 Q150.996 1018.43 149.121 1018.84 Q147.269 1019.26 145.325 1020.14 L145.325 1002.78 Z" fill="#000000" fill-rule="nonzero" fill-opacity="1" /><path clip-path="url(#clip680)" d="M114.931 630.281 L122.57 630.281 L122.57 603.915 L114.26 605.582 L114.26 601.323 L122.524 599.656 L127.2 599.656 L127.2 630.281 L134.839 630.281 L134.839 634.216 L114.931 634.216 L114.931 630.281 Z" fill="#000000" fill-rule="nonzero" fill-opacity="1" /><path clip-path="url(#clip680)" d="M154.283 602.735 Q150.672 602.735 148.843 606.299 Q147.038 609.841 147.038 616.971 Q147.038 624.077 148.843 627.642 Q150.672 631.184 154.283 631.184 Q157.917 631.184 159.723 627.642 Q161.552 624.077 161.552 616.971 Q161.552 609.841 159.723 606.299 Q157.917 602.735 154.283 602.735 M154.283 599.031 Q160.093 599.031 163.149 603.637 Q166.227 608.221 166.227 616.971 Q166.227 625.698 163.149 630.304 Q160.093 634.887 154.283 634.887 Q148.473 634.887 145.394 630.304 Q142.339 625.698 142.339 616.971 Q142.339 608.221 145.394 603.637 Q148.473 599.031 154.283 599.031 Z" fill="#000000" fill-rule="nonzero" fill-opacity="1" /><path clip-path="url(#clip680)" d="M115.927 227.159 L123.566 227.159 L123.566 200.793 L115.256 202.46 L115.256 198.201 L123.519 196.534 L128.195 196.534 L128.195 227.159 L135.834 227.159 L135.834 231.094 L115.927 231.094 L115.927 227.159 Z" fill="#000000" fill-rule="nonzero" fill-opacity="1" /><path clip-path="url(#clip680)" d="M145.325 196.534 L163.681 196.534 L163.681 200.469 L149.607 200.469 L149.607 208.941 Q150.626 208.594 151.644 208.432 Q152.663 208.247 153.681 208.247 Q159.468 208.247 162.848 211.418 Q166.227 214.59 166.227 220.006 Q166.227 225.585 162.755 228.687 Q159.283 231.765 152.964 231.765 Q150.788 231.765 148.519 231.395 Q146.274 231.025 143.866 230.284 L143.866 225.585 Q145.95 226.719 148.172 227.275 Q150.394 227.83 152.871 227.83 Q156.876 227.83 159.214 225.724 Q161.552 223.617 161.552 220.006 Q161.552 216.395 159.214 214.289 Q156.876 212.182 152.871 212.182 Q150.996 212.182 149.121 212.599 Q147.269 213.015 145.325 213.895 L145.325 196.534 Z" fill="#000000" fill-rule="nonzero" fill-opacity="1" /><path clip-path="url(#clip680)" d="M16.4842 1039.99 L16.4842 1012.68 L21.895 1012.68 L21.895 1033.56 L35.8996 1033.56 L35.8996 1014.71 L41.3104 1014.71 L41.3104 1033.56 L64.0042 1033.56 L64.0042 1039.99 L16.4842 1039.99 Z" fill="#000000" fill-rule="nonzero" fill-opacity="1" /><path clip-path="url(#clip680)" d="M46.0847 992.529 Q46.0847 999.627 47.7079 1002.36 Q49.3312 1005.1 53.2461 1005.1 Q56.3653 1005.1 58.2114 1003.06 Q60.0256 1001 60.0256 997.463 Q60.0256 992.593 56.5881 989.665 Q53.1188 986.704 47.3897 986.704 L46.0847 986.704 L46.0847 992.529 M43.6657 980.848 L64.0042 980.848 L64.0042 986.704 L58.5933 986.704 Q61.8398 988.71 63.3994 991.702 Q64.9272 994.693 64.9272 999.022 Q64.9272 1004.5 61.8716 1007.74 Q58.7843 1010.96 53.6281 1010.96 Q47.6125 1010.96 44.5569 1006.95 Q41.5014 1002.91 41.5014 994.916 L41.5014 986.704 L40.9285 986.704 Q36.8862 986.704 34.6901 989.378 Q32.4621 992.02 32.4621 996.826 Q32.4621 999.881 33.1941 1002.78 Q33.9262 1005.67 35.3903 1008.35 L29.9795 1008.35 Q28.7381 1005.13 28.1334 1002.11 Q27.4968 999.086 27.4968 996.221 Q27.4968 988.487 31.5072 984.667 Q35.5176 980.848 43.6657 980.848 Z" fill="#000000" fill-rule="nonzero" fill-opacity="1" /><path clip-path="url(#clip680)" d="M28.3562 968.785 L28.3562 962.929 L64.0042 962.929 L64.0042 968.785 L28.3562 968.785 M14.479 968.785 L14.479 962.929 L21.895 962.929 L21.895 968.785 L14.479 968.785 Z" fill="#000000" fill-rule="nonzero" fill-opacity="1" /><path clip-path="url(#clip680)" d="M33.8307 930.018 Q33.2578 931.005 33.0032 932.182 Q32.7167 933.328 32.7167 934.728 Q32.7167 939.694 35.9632 942.367 Q39.1779 945.009 45.2253 945.009 L64.0042 945.009 L64.0042 950.897 L28.3562 950.897 L28.3562 945.009 L33.8944 945.009 Q30.6479 943.163 29.0883 940.203 Q27.4968 937.243 27.4968 933.01 Q27.4968 932.405 27.5923 931.673 Q27.656 930.941 27.8151 930.05 L33.8307 930.018 Z" fill="#000000" fill-rule="nonzero" fill-opacity="1" /><path clip-path="url(#clip680)" d="M16.4842 902.9 L16.4842 896.471 L58.5933 896.471 L58.5933 873.331 L64.0042 873.331 L64.0042 902.9 L16.4842 902.9 Z" fill="#000000" fill-rule="nonzero" fill-opacity="1" /><path clip-path="url(#clip680)" d="M32.4621 854.17 Q32.4621 858.881 36.1542 861.618 Q39.8145 864.356 46.212 864.356 Q52.6095 864.356 56.3017 861.65 Q59.9619 858.913 59.9619 854.17 Q59.9619 849.492 56.2698 846.754 Q52.5777 844.017 46.212 844.017 Q39.8781 844.017 36.186 846.754 Q32.4621 849.492 32.4621 854.17 M27.4968 854.17 Q27.4968 846.532 32.4621 842.171 Q37.4273 837.811 46.212 837.811 Q54.9649 837.811 59.9619 842.171 Q64.9272 846.532 64.9272 854.17 Q64.9272 861.841 59.9619 866.202 Q54.9649 870.53 46.212 870.53 Q37.4273 870.53 32.4621 866.202 Q27.4968 861.841 27.4968 854.17 Z" fill="#000000" fill-rule="nonzero" fill-opacity="1" /><path clip-path="url(#clip680)" d="M46.0847 811.902 Q46.0847 819 47.7079 821.737 Q49.3312 824.474 53.2461 824.474 Q56.3653 824.474 58.2114 822.437 Q60.0256 820.369 60.0256 816.836 Q60.0256 811.966 56.5881 809.038 Q53.1188 806.078 47.3897 806.078 L46.0847 806.078 L46.0847 811.902 M43.6657 800.221 L64.0042 800.221 L64.0042 806.078 L58.5933 806.078 Q61.8398 808.083 63.3994 811.075 Q64.9272 814.067 64.9272 818.395 Q64.9272 823.87 61.8716 827.116 Q58.7843 830.331 53.6281 830.331 Q47.6125 830.331 44.5569 826.32 Q41.5014 822.278 41.5014 814.289 L41.5014 806.078 L40.9285 806.078 Q36.8862 806.078 34.6901 808.751 Q32.4621 811.393 32.4621 816.199 Q32.4621 819.255 33.1941 822.151 Q33.9262 825.047 35.3903 827.721 L29.9795 827.721 Q28.7381 824.506 28.1334 821.483 Q27.4968 818.459 27.4968 815.594 Q27.4968 807.86 31.5072 804.041 Q35.5176 800.221 43.6657 800.221 Z" fill="#000000" fill-rule="nonzero" fill-opacity="1" /><path clip-path="url(#clip680)" d="M33.7671 764.7 L14.479 764.7 L14.479 758.844 L64.0042 758.844 L64.0042 764.7 L58.657 764.7 Q61.8398 766.547 63.3994 769.379 Q64.9272 772.18 64.9272 776.127 Q64.9272 782.588 59.771 786.662 Q54.6147 790.704 46.212 790.704 Q37.8093 790.704 32.6531 786.662 Q27.4968 782.588 27.4968 776.127 Q27.4968 772.18 29.0564 769.379 Q30.5842 766.547 33.7671 764.7 M46.212 784.657 Q52.6732 784.657 56.3653 782.015 Q60.0256 779.342 60.0256 774.695 Q60.0256 770.048 56.3653 767.374 Q52.6732 764.7 46.212 764.7 Q39.7508 764.7 36.0905 767.374 Q32.3984 770.048 32.3984 774.695 Q32.3984 779.342 36.0905 782.015 Q39.7508 784.657 46.212 784.657 Z" fill="#000000" fill-rule="nonzero" fill-opacity="1" /><path clip-path="url(#clip680)" d="M16.4842 730.039 L16.4842 723.546 L56.6518 713.552 L16.4842 703.59 L16.4842 696.365 L56.6518 686.37 L16.4842 676.408 L16.4842 669.883 L64.0042 681.819 L64.0042 689.903 L22.7544 699.929 L64.0042 710.051 L64.0042 718.135 L16.4842 730.039 Z" fill="#000000" fill-rule="nonzero" fill-opacity="1" /><path clip-path="url(#clip680)" d="M44.7161 634.936 L47.5806 634.936 L47.5806 661.862 Q53.6281 661.481 56.8109 658.234 Q59.9619 654.956 59.9619 649.131 Q59.9619 645.757 59.1344 642.606 Q58.3069 639.423 56.6518 636.304 L62.1899 636.304 Q63.5267 639.455 64.227 642.765 Q64.9272 646.076 64.9272 649.481 Q64.9272 658.011 59.9619 663.008 Q54.9967 667.974 46.5303 667.974 Q37.7774 667.974 32.6531 663.263 Q27.4968 658.52 27.4968 650.5 Q27.4968 643.306 32.1438 639.137 Q36.7589 634.936 44.7161 634.936 M42.9973 640.792 Q38.1912 640.856 35.3266 643.497 Q32.4621 646.107 32.4621 650.436 Q32.4621 655.338 35.2312 658.298 Q38.0002 661.226 43.0292 661.671 L42.9973 640.792 Z" fill="#000000" fill-rule="nonzero" fill-opacity="1" /><path clip-path="url(#clip680)" d="M28.3562 625.323 L28.3562 619.467 L64.0042 619.467 L64.0042 625.323 L28.3562 625.323 M14.479 625.323 L14.479 619.467 L21.895 619.467 L21.895 625.323 L14.479 625.323 Z" fill="#000000" fill-rule="nonzero" fill-opacity="1" /><path clip-path="url(#clip680)" d="M45.7664 583.755 Q39.4007 583.755 35.8996 586.397 Q32.3984 589.007 32.3984 593.749 Q32.3984 598.46 35.8996 601.102 Q39.4007 603.712 45.7664 603.712 Q52.1003 603.712 55.6014 601.102 Q59.1026 598.46 59.1026 593.749 Q59.1026 589.007 55.6014 586.397 Q52.1003 583.755 45.7664 583.755 M59.58 577.899 Q68.683 577.899 73.1071 581.941 Q77.5631 585.983 77.5631 594.322 Q77.5631 597.41 77.0857 600.147 Q76.6401 602.884 75.6852 605.462 L69.9879 605.462 Q71.3884 602.884 72.0568 600.37 Q72.7252 597.855 72.7252 595.245 Q72.7252 589.484 69.7015 586.62 Q66.7096 583.755 60.6303 583.755 L57.7339 583.755 Q60.885 585.569 62.4446 588.402 Q64.0042 591.235 64.0042 595.182 Q64.0042 601.738 59.0071 605.749 Q54.01 609.759 45.7664 609.759 Q37.491 609.759 32.4939 605.749 Q27.4968 601.738 27.4968 595.182 Q27.4968 591.235 29.0564 588.402 Q30.616 585.569 33.7671 583.755 L28.3562 583.755 L28.3562 577.899 L59.58 577.899 Z" fill="#000000" fill-rule="nonzero" fill-opacity="1" /><path clip-path="url(#clip680)" d="M42.4881 536.203 L64.0042 536.203 L64.0042 542.06 L42.679 542.06 Q37.6183 542.06 35.1038 544.033 Q32.5894 546.007 32.5894 549.953 Q32.5894 554.696 35.6131 557.433 Q38.6368 560.17 43.8567 560.17 L64.0042 560.17 L64.0042 566.059 L14.479 566.059 L14.479 560.17 L33.8944 560.17 Q30.6797 558.07 29.0883 555.237 Q27.4968 552.372 27.4968 548.648 Q27.4968 542.505 31.3163 539.354 Q35.1038 536.203 42.4881 536.203 Z" fill="#000000" fill-rule="nonzero" fill-opacity="1" /><path clip-path="url(#clip680)" d="M18.2347 518.73 L28.3562 518.73 L28.3562 506.667 L32.9077 506.667 L32.9077 518.73 L52.2594 518.73 Q56.6199 518.73 57.8613 517.552 Q59.1026 516.342 59.1026 512.682 L59.1026 506.667 L64.0042 506.667 L64.0042 512.682 Q64.0042 519.462 61.4897 522.04 Q58.9434 524.618 52.2594 524.618 L32.9077 524.618 L32.9077 528.915 L28.3562 528.915 L28.3562 524.618 L18.2347 524.618 L18.2347 518.73 Z" fill="#000000" fill-rule="nonzero" fill-opacity="1" /><path clip-path="url(#clip680)" d="M466.46 12.096 L501.217 12.096 L501.217 18.9825 L474.643 18.9825 L474.643 36.8065 L498.624 36.8065 L498.624 43.6931 L474.643 43.6931 L474.643 72.576 L466.46 72.576 L466.46 12.096 Z" fill="#000000" fill-rule="nonzero" fill-opacity="1" /><path clip-path="url(#clip680)" d="M526.859 49.7694 Q517.826 49.7694 514.342 51.8354 Q510.858 53.9013 510.858 58.8839 Q510.858 62.8538 513.451 65.2034 Q516.084 67.5124 520.58 67.5124 Q526.778 67.5124 530.505 63.1374 Q534.272 58.7219 534.272 51.4303 L534.272 49.7694 L526.859 49.7694 M541.726 46.6907 L541.726 72.576 L534.272 72.576 L534.272 65.6895 Q531.72 69.8214 527.912 71.8063 Q524.105 73.7508 518.595 73.7508 Q511.628 73.7508 507.496 69.8619 Q503.404 65.9325 503.404 59.3701 Q503.404 51.7138 508.509 47.825 Q513.653 43.9361 523.821 43.9361 L534.272 43.9361 L534.272 43.2069 Q534.272 38.0623 530.87 35.2672 Q527.507 32.4315 521.39 32.4315 Q517.502 32.4315 513.815 33.3632 Q510.129 34.295 506.726 36.1584 L506.726 29.2718 Q510.818 27.692 514.666 26.9223 Q518.514 26.1121 522.16 26.1121 Q532.004 26.1121 536.865 31.2163 Q541.726 36.3204 541.726 46.6907 Z" fill="#000000" fill-rule="nonzero" fill-opacity="1" /><path clip-path="url(#clip680)" d="M557.079 27.2059 L564.533 27.2059 L564.533 72.576 L557.079 72.576 L557.079 27.2059 M557.079 9.54393 L564.533 9.54393 L564.533 18.9825 L557.079 18.9825 L557.079 9.54393 Z" fill="#000000" fill-rule="nonzero" fill-opacity="1" /><path clip-path="url(#clip680)" d="M606.419 34.1734 Q605.163 33.4443 603.664 33.1202 Q602.206 32.7556 600.424 32.7556 Q594.104 32.7556 590.701 36.8875 Q587.339 40.9789 587.339 48.6757 L587.339 72.576 L579.845 72.576 L579.845 27.2059 L587.339 27.2059 L587.339 34.2544 Q589.689 30.1225 593.456 28.1376 Q597.223 26.1121 602.611 26.1121 Q603.381 26.1121 604.312 26.2337 Q605.244 26.3147 606.378 26.5172 L606.419 34.1734 Z" fill="#000000" fill-rule="nonzero" fill-opacity="1" /><path clip-path="url(#clip680)" d="M640.933 12.096 L649.115 12.096 L649.115 65.6895 L678.565 65.6895 L678.565 72.576 L640.933 72.576 L640.933 12.096 Z" fill="#000000" fill-rule="nonzero" fill-opacity="1" /><path clip-path="url(#clip680)" d="M702.952 32.4315 Q696.957 32.4315 693.473 37.1306 Q689.989 41.7891 689.989 49.9314 Q689.989 58.0738 693.432 62.7728 Q696.916 67.4314 702.952 67.4314 Q708.907 67.4314 712.391 62.7323 Q715.874 58.0333 715.874 49.9314 Q715.874 41.8701 712.391 37.1711 Q708.907 32.4315 702.952 32.4315 M702.952 26.1121 Q712.674 26.1121 718.224 32.4315 Q723.774 38.7509 723.774 49.9314 Q723.774 61.0714 718.224 67.4314 Q712.674 73.7508 702.952 73.7508 Q693.189 73.7508 687.64 67.4314 Q682.13 61.0714 682.13 49.9314 Q682.13 38.7509 687.64 32.4315 Q693.189 26.1121 702.952 26.1121 Z" fill="#000000" fill-rule="nonzero" fill-opacity="1" /><path clip-path="url(#clip680)" d="M756.748 49.7694 Q747.714 49.7694 744.231 51.8354 Q740.747 53.9013 740.747 58.8839 Q740.747 62.8538 743.339 65.2034 Q745.973 67.5124 750.469 67.5124 Q756.667 67.5124 760.394 63.1374 Q764.161 58.7219 764.161 51.4303 L764.161 49.7694 L756.748 49.7694 M771.615 46.6907 L771.615 72.576 L764.161 72.576 L764.161 65.6895 Q761.609 69.8214 757.801 71.8063 Q753.993 73.7508 748.484 73.7508 Q741.517 73.7508 737.385 69.8619 Q733.293 65.9325 733.293 59.3701 Q733.293 51.7138 738.397 47.825 Q743.542 43.9361 753.71 43.9361 L764.161 43.9361 L764.161 43.2069 Q764.161 38.0623 760.758 35.2672 Q757.396 32.4315 751.279 32.4315 Q747.39 32.4315 743.704 33.3632 Q740.018 34.295 736.615 36.1584 L736.615 29.2718 Q740.706 27.692 744.555 26.9223 Q748.403 26.1121 752.049 26.1121 Q761.893 26.1121 766.754 31.2163 Q771.615 36.3204 771.615 46.6907 Z" fill="#000000" fill-rule="nonzero" fill-opacity="1" /><path clip-path="url(#clip680)" d="M816.823 34.0924 L816.823 9.54393 L824.277 9.54393 L824.277 72.576 L816.823 72.576 L816.823 65.7705 Q814.473 69.8214 810.868 71.8063 Q807.303 73.7508 802.28 73.7508 Q794.057 73.7508 788.872 67.1883 Q783.727 60.6258 783.727 49.9314 Q783.727 39.2371 788.872 32.6746 Q794.057 26.1121 802.28 26.1121 Q807.303 26.1121 810.868 28.0971 Q814.473 30.0415 816.823 34.0924 M791.424 49.9314 Q791.424 58.1548 794.786 62.8538 Q798.189 67.5124 804.103 67.5124 Q810.017 67.5124 813.42 62.8538 Q816.823 58.1548 816.823 49.9314 Q816.823 41.7081 813.42 37.0496 Q810.017 32.3505 804.103 32.3505 Q798.189 32.3505 794.786 37.0496 Q791.424 41.7081 791.424 49.9314 Z" fill="#000000" fill-rule="nonzero" fill-opacity="1" /><path clip-path="url(#clip680)" d="M860.937 12.096 L869.201 12.096 L881.921 63.2184 L894.6 12.096 L903.796 12.096 L916.516 63.2184 L929.195 12.096 L937.499 12.096 L922.308 72.576 L912.019 72.576 L899.259 20.0763 L886.377 72.576 L876.088 72.576 L860.937 12.096 Z" fill="#000000" fill-rule="nonzero" fill-opacity="1" /><path clip-path="url(#clip680)" d="M981.978 48.0275 L981.978 51.6733 L947.708 51.6733 Q948.194 59.3701 952.326 63.421 Q956.498 67.4314 963.911 67.4314 Q968.205 67.4314 972.216 66.3781 Q976.266 65.3249 980.236 63.2184 L980.236 70.267 Q976.226 71.9684 972.013 72.8596 Q967.8 73.7508 963.466 73.7508 Q952.609 73.7508 946.249 67.4314 Q939.93 61.1119 939.93 50.3365 Q939.93 39.1965 945.925 32.6746 Q951.961 26.1121 962.169 26.1121 Q971.324 26.1121 976.631 32.0264 Q981.978 37.9003 981.978 48.0275 M974.525 45.84 Q974.444 39.7232 971.081 36.0774 Q967.76 32.4315 962.25 32.4315 Q956.012 32.4315 952.245 35.9558 Q948.518 39.4801 947.951 45.8805 L974.525 45.84 Z" fill="#000000" fill-rule="nonzero" fill-opacity="1" /><path clip-path="url(#clip680)" d="M994.212 27.2059 L1001.67 27.2059 L1001.67 72.576 L994.212 72.576 L994.212 27.2059 M994.212 9.54393 L1001.67 9.54393 L1001.67 18.9825 L994.212 18.9825 L994.212 9.54393 Z" fill="#000000" fill-rule="nonzero" fill-opacity="1" /><path clip-path="url(#clip680)" d="M1047.12 49.3643 Q1047.12 41.2625 1043.75 36.8065 Q1040.43 32.3505 1034.4 32.3505 Q1028.4 32.3505 1025.04 36.8065 Q1021.72 41.2625 1021.72 49.3643 Q1021.72 57.4256 1025.04 61.8816 Q1028.4 66.3376 1034.4 66.3376 Q1040.43 66.3376 1043.75 61.8816 Q1047.12 57.4256 1047.12 49.3643 M1054.57 66.9452 Q1054.57 78.5308 1049.43 84.1616 Q1044.28 89.8329 1033.67 89.8329 Q1029.74 89.8329 1026.25 89.2252 Q1022.77 88.6581 1019.49 87.4428 L1019.49 80.1917 Q1022.77 81.9741 1025.97 82.8248 Q1029.17 83.6755 1032.49 83.6755 Q1039.83 83.6755 1043.47 79.8271 Q1047.12 76.0193 1047.12 68.282 L1047.12 64.5957 Q1044.81 68.6061 1041.2 70.5911 Q1037.6 72.576 1032.57 72.576 Q1024.23 72.576 1019.13 66.2161 Q1014.02 59.8562 1014.02 49.3643 Q1014.02 38.832 1019.13 32.472 Q1024.23 26.1121 1032.57 26.1121 Q1037.6 26.1121 1041.2 28.0971 Q1044.81 30.082 1047.12 34.0924 L1047.12 27.2059 L1054.57 27.2059 L1054.57 66.9452 Z" fill="#000000" fill-rule="nonzero" fill-opacity="1" /><path clip-path="url(#clip680)" d="M1107.64 45.1919 L1107.64 72.576 L1100.18 72.576 L1100.18 45.4349 Q1100.18 38.994 1097.67 35.7938 Q1095.16 32.5936 1090.14 32.5936 Q1084.1 32.5936 1080.62 36.4419 Q1077.13 40.2903 1077.13 46.9338 L1077.13 72.576 L1069.64 72.576 L1069.64 9.54393 L1077.13 9.54393 L1077.13 34.2544 Q1079.81 30.163 1083.41 28.1376 Q1087.06 26.1121 1091.8 26.1121 Q1099.62 26.1121 1103.63 30.9732 Q1107.64 35.7938 1107.64 45.1919 Z" fill="#000000" fill-rule="nonzero" fill-opacity="1" /><path clip-path="url(#clip680)" d="M1129.88 14.324 L1129.88 27.2059 L1145.23 27.2059 L1145.23 32.9987 L1129.88 32.9987 L1129.88 57.6282 Q1129.88 63.1779 1131.38 64.7578 Q1132.91 66.3376 1137.57 66.3376 L1145.23 66.3376 L1145.23 72.576 L1137.57 72.576 Q1128.95 72.576 1125.66 69.3758 Q1122.38 66.1351 1122.38 57.6282 L1122.38 32.9987 L1116.91 32.9987 L1116.91 27.2059 L1122.38 27.2059 L1122.38 14.324 L1129.88 14.324 Z" fill="#000000" fill-rule="nonzero" fill-opacity="1" /><path clip-path="url(#clip680)" d="M1183.96 28.5427 L1183.96 35.5912 Q1180.8 33.9709 1177.39 33.1607 Q1173.99 32.3505 1170.35 32.3505 Q1164.8 32.3505 1162 34.0519 Q1159.25 35.7533 1159.25 39.156 Q1159.25 41.7486 1161.23 43.2475 Q1163.22 44.7058 1169.21 46.0426 L1171.76 46.6097 Q1179.7 48.3111 1183.02 51.4303 Q1186.39 54.509 1186.39 60.0587 Q1186.39 66.3781 1181.36 70.0644 Q1176.38 73.7508 1167.63 73.7508 Q1163.99 73.7508 1160.02 73.0216 Q1156.09 72.3329 1151.71 70.9151 L1151.71 63.2184 Q1155.84 65.3654 1159.85 66.4591 Q1163.86 67.5124 1167.79 67.5124 Q1173.06 67.5124 1175.9 65.73 Q1178.73 63.9071 1178.73 60.6258 Q1178.73 57.5877 1176.66 55.9673 Q1174.64 54.3469 1167.71 52.8481 L1165.12 52.2405 Q1158.19 50.7821 1155.11 47.7845 Q1152.04 44.7463 1152.04 39.4801 Q1152.04 33.0797 1156.57 29.5959 Q1161.11 26.1121 1169.45 26.1121 Q1173.59 26.1121 1177.23 26.7198 Q1180.88 27.3274 1183.96 28.5427 Z" fill="#000000" fill-rule="nonzero" fill-opacity="1" /><path clip-path="url(#clip680)" d="M1231.84 65.7705 L1231.84 89.8329 L1224.34 89.8329 L1224.34 27.2059 L1231.84 27.2059 L1231.84 34.0924 Q1234.19 30.0415 1237.75 28.0971 Q1241.36 26.1121 1246.34 26.1121 Q1254.6 26.1121 1259.75 32.6746 Q1264.93 39.2371 1264.93 49.9314 Q1264.93 60.6258 1259.75 67.1883 Q1254.6 73.7508 1246.34 73.7508 Q1241.36 73.7508 1237.75 71.8063 Q1234.19 69.8214 1231.84 65.7705 M1257.2 49.9314 Q1257.2 41.7081 1253.79 37.0496 Q1250.43 32.3505 1244.52 32.3505 Q1238.6 32.3505 1235.2 37.0496 Q1231.84 41.7081 1231.84 49.9314 Q1231.84 58.1548 1235.2 62.8538 Q1238.6 67.5124 1244.52 67.5124 Q1250.43 67.5124 1253.79 62.8538 Q1257.2 58.1548 1257.2 49.9314 Z" fill="#000000" fill-rule="nonzero" fill-opacity="1" /><path clip-path="url(#clip680)" d="M1316.1 48.0275 L1316.1 51.6733 L1281.83 51.6733 Q1282.31 59.3701 1286.44 63.421 Q1290.62 67.4314 1298.03 67.4314 Q1302.32 67.4314 1306.33 66.3781 Q1310.39 65.3249 1314.35 63.2184 L1314.35 70.267 Q1310.34 71.9684 1306.13 72.8596 Q1301.92 73.7508 1297.58 73.7508 Q1286.73 73.7508 1280.37 67.4314 Q1274.05 61.1119 1274.05 50.3365 Q1274.05 39.1965 1280.04 32.6746 Q1286.08 26.1121 1296.29 26.1121 Q1305.44 26.1121 1310.75 32.0264 Q1316.1 37.9003 1316.1 48.0275 M1308.64 45.84 Q1308.56 39.7232 1305.2 36.0774 Q1301.88 32.4315 1296.37 32.4315 Q1290.13 32.4315 1286.36 35.9558 Q1282.64 39.4801 1282.07 45.8805 L1308.64 45.84 Z" fill="#000000" fill-rule="nonzero" fill-opacity="1" /><path clip-path="url(#clip680)" d="M1354.62 34.1734 Q1353.37 33.4443 1351.87 33.1202 Q1350.41 32.7556 1348.63 32.7556 Q1342.31 32.7556 1338.9 36.8875 Q1335.54 40.9789 1335.54 48.6757 L1335.54 72.576 L1328.05 72.576 L1328.05 27.2059 L1335.54 27.2059 L1335.54 34.2544 Q1337.89 30.1225 1341.66 28.1376 Q1345.43 26.1121 1350.81 26.1121 Q1351.58 26.1121 1352.51 26.2337 Q1353.45 26.3147 1354.58 26.5172 L1354.62 34.1734 Z" fill="#000000" fill-rule="nonzero" fill-opacity="1" /><path clip-path="url(#clip680)" d="M1389.13 12.096 L1397.32 12.096 L1397.32 65.6895 L1426.77 65.6895 L1426.77 72.576 L1389.13 72.576 L1389.13 12.096 Z" fill="#000000" fill-rule="nonzero" fill-opacity="1" /><path clip-path="url(#clip680)" d="M1451.15 32.4315 Q1445.16 32.4315 1441.67 37.1306 Q1438.19 41.7891 1438.19 49.9314 Q1438.19 58.0738 1441.63 62.7728 Q1445.12 67.4314 1451.15 67.4314 Q1457.11 67.4314 1460.59 62.7323 Q1464.08 58.0333 1464.08 49.9314 Q1464.08 41.8701 1460.59 37.1711 Q1457.11 32.4315 1451.15 32.4315 M1451.15 26.1121 Q1460.88 26.1121 1466.43 32.4315 Q1471.98 38.7509 1471.98 49.9314 Q1471.98 61.0714 1466.43 67.4314 Q1460.88 73.7508 1451.15 73.7508 Q1441.39 73.7508 1435.84 67.4314 Q1430.33 61.0714 1430.33 49.9314 Q1430.33 38.7509 1435.84 32.4315 Q1441.39 26.1121 1451.15 26.1121 Z" fill="#000000" fill-rule="nonzero" fill-opacity="1" /><path clip-path="url(#clip680)" d="M1504.95 49.7694 Q1495.92 49.7694 1492.43 51.8354 Q1488.95 53.9013 1488.95 58.8839 Q1488.95 62.8538 1491.54 65.2034 Q1494.17 67.5124 1498.67 67.5124 Q1504.87 67.5124 1508.6 63.1374 Q1512.36 58.7219 1512.36 51.4303 L1512.36 49.7694 L1504.95 49.7694 M1519.82 46.6907 L1519.82 72.576 L1512.36 72.576 L1512.36 65.6895 Q1509.81 69.8214 1506 71.8063 Q1502.2 73.7508 1496.69 73.7508 Q1489.72 73.7508 1485.59 69.8619 Q1481.5 65.9325 1481.5 59.3701 Q1481.5 51.7138 1486.6 47.825 Q1491.74 43.9361 1501.91 43.9361 L1512.36 43.9361 L1512.36 43.2069 Q1512.36 38.0623 1508.96 35.2672 Q1505.6 32.4315 1499.48 32.4315 Q1495.59 32.4315 1491.91 33.3632 Q1488.22 34.295 1484.82 36.1584 L1484.82 29.2718 Q1488.91 27.692 1492.76 26.9223 Q1496.61 26.1121 1500.25 26.1121 Q1510.09 26.1121 1514.96 31.2163 Q1519.82 36.3204 1519.82 46.6907 Z" fill="#000000" fill-rule="nonzero" fill-opacity="1" /><path clip-path="url(#clip680)" d="M1565.02 34.0924 L1565.02 9.54393 L1572.48 9.54393 L1572.48 72.576 L1565.02 72.576 L1565.02 65.7705 Q1562.68 69.8214 1559.07 71.8063 Q1555.51 73.7508 1550.48 73.7508 Q1542.26 73.7508 1537.07 67.1883 Q1531.93 60.6258 1531.93 49.9314 Q1531.93 39.2371 1537.07 32.6746 Q1542.26 26.1121 1550.48 26.1121 Q1555.51 26.1121 1559.07 28.0971 Q1562.68 30.0415 1565.02 34.0924 M1539.63 49.9314 Q1539.63 58.1548 1542.99 62.8538 Q1546.39 67.5124 1552.31 67.5124 Q1558.22 67.5124 1561.62 62.8538 Q1565.02 58.1548 1565.02 49.9314 Q1565.02 41.7081 1561.62 37.0496 Q1558.22 32.3505 1552.31 32.3505 Q1546.39 32.3505 1542.99 37.0496 Q1539.63 41.7081 1539.63 49.9314 Z" fill="#000000" fill-rule="nonzero" fill-opacity="1" /><path clip-path="url(#clip680)" d="M1610.44 46.5287 L1632.27 46.5287 L1632.27 53.1722 L1610.44 53.1722 L1610.44 46.5287 Z" fill="#000000" fill-rule="nonzero" fill-opacity="1" /><path clip-path="url(#clip680)" d="M1670.83 12.096 L1679.02 12.096 L1679.02 72.576 L1670.83 72.576 L1670.83 12.096 Z" fill="#000000" fill-rule="nonzero" fill-opacity="1" /><path clip-path="url(#clip680)" d="M1702.35 14.324 L1702.35 27.2059 L1717.7 27.2059 L1717.7 32.9987 L1702.35 32.9987 L1702.35 57.6282 Q1702.35 63.1779 1703.85 64.7578 Q1705.39 66.3376 1710.05 66.3376 L1717.7 66.3376 L1717.7 72.576 L1710.05 72.576 Q1701.42 72.576 1698.14 69.3758 Q1694.86 66.1351 1694.86 57.6282 L1694.86 32.9987 L1689.39 32.9987 L1689.39 27.2059 L1694.86 27.2059 L1694.86 14.324 L1702.35 14.324 Z" fill="#000000" fill-rule="nonzero" fill-opacity="1" /><path clip-path="url(#clip680)" d="M1766.31 48.0275 L1766.31 51.6733 L1732.04 51.6733 Q1732.53 59.3701 1736.66 63.421 Q1740.83 67.4314 1748.25 67.4314 Q1752.54 67.4314 1756.55 66.3781 Q1760.6 65.3249 1764.57 63.2184 L1764.57 70.267 Q1760.56 71.9684 1756.35 72.8596 Q1752.14 73.7508 1747.8 73.7508 Q1736.95 73.7508 1730.59 67.4314 Q1724.27 61.1119 1724.27 50.3365 Q1724.27 39.1965 1730.26 32.6746 Q1736.3 26.1121 1746.51 26.1121 Q1755.66 26.1121 1760.97 32.0264 Q1766.31 37.9003 1766.31 48.0275 M1758.86 45.84 Q1758.78 39.7232 1755.42 36.0774 Q1752.1 32.4315 1746.59 32.4315 Q1740.35 32.4315 1736.58 35.9558 Q1732.85 39.4801 1732.29 45.8805 L1758.86 45.84 Z" fill="#000000" fill-rule="nonzero" fill-opacity="1" /><path clip-path="url(#clip680)" d="M1804.84 34.1734 Q1803.58 33.4443 1802.08 33.1202 Q1800.63 32.7556 1798.84 32.7556 Q1792.52 32.7556 1789.12 36.8875 Q1785.76 40.9789 1785.76 48.6757 L1785.76 72.576 L1778.26 72.576 L1778.26 27.2059 L1785.76 27.2059 L1785.76 34.2544 Q1788.11 30.1225 1791.88 28.1376 Q1795.64 26.1121 1801.03 26.1121 Q1801.8 26.1121 1802.73 26.2337 Q1803.66 26.3147 1804.8 26.5172 L1804.84 34.1734 Z" fill="#000000" fill-rule="nonzero" fill-opacity="1" /><path clip-path="url(#clip680)" d="M1833.28 49.7694 Q1824.24 49.7694 1820.76 51.8354 Q1817.27 53.9013 1817.27 58.8839 Q1817.27 62.8538 1819.87 65.2034 Q1822.5 67.5124 1827 67.5124 Q1833.19 67.5124 1836.92 63.1374 Q1840.69 58.7219 1840.69 51.4303 L1840.69 49.7694 L1833.28 49.7694 M1848.14 46.6907 L1848.14 72.576 L1840.69 72.576 L1840.69 65.6895 Q1838.14 69.8214 1834.33 71.8063 Q1830.52 73.7508 1825.01 73.7508 Q1818.04 73.7508 1813.91 69.8619 Q1809.82 65.9325 1809.82 59.3701 Q1809.82 51.7138 1814.93 47.825 Q1820.07 43.9361 1830.24 43.9361 L1840.69 43.9361 L1840.69 43.2069 Q1840.69 38.0623 1837.29 35.2672 Q1833.92 32.4315 1827.81 32.4315 Q1823.92 32.4315 1820.23 33.3632 Q1816.55 34.295 1813.14 36.1584 L1813.14 29.2718 Q1817.23 27.692 1821.08 26.9223 Q1824.93 26.1121 1828.58 26.1121 Q1838.42 26.1121 1843.28 31.2163 Q1848.14 36.3204 1848.14 46.6907 Z" fill="#000000" fill-rule="nonzero" fill-opacity="1" /><path clip-path="url(#clip680)" d="M1870.87 14.324 L1870.87 27.2059 L1886.22 27.2059 L1886.22 32.9987 L1870.87 32.9987 L1870.87 57.6282 Q1870.87 63.1779 1872.37 64.7578 Q1873.91 66.3376 1878.56 66.3376 L1886.22 66.3376 L1886.22 72.576 L1878.56 72.576 Q1869.94 72.576 1866.66 69.3758 Q1863.37 66.1351 1863.37 57.6282 L1863.37 32.9987 L1857.91 32.9987 L1857.91 27.2059 L1863.37 27.2059 L1863.37 14.324 L1870.87 14.324 Z" fill="#000000" fill-rule="nonzero" fill-opacity="1" /><path clip-path="url(#clip680)" d="M1896.02 27.2059 L1903.48 27.2059 L1903.48 72.576 L1896.02 72.576 L1896.02 27.2059 M1896.02 9.54393 L1903.48 9.54393 L1903.48 18.9825 L1896.02 18.9825 L1896.02 9.54393 Z" fill="#000000" fill-rule="nonzero" fill-opacity="1" /><path clip-path="url(#clip680)" d="M1936.65 32.4315 Q1930.66 32.4315 1927.18 37.1306 Q1923.69 41.7891 1923.69 49.9314 Q1923.69 58.0738 1927.14 62.7728 Q1930.62 67.4314 1936.65 67.4314 Q1942.61 67.4314 1946.09 62.7323 Q1949.58 58.0333 1949.58 49.9314 Q1949.58 41.8701 1946.09 37.1711 Q1942.61 32.4315 1936.65 32.4315 M1936.65 26.1121 Q1946.38 26.1121 1951.93 32.4315 Q1957.48 38.7509 1957.48 49.9314 Q1957.48 61.0714 1951.93 67.4314 Q1946.38 73.7508 1936.65 73.7508 Q1926.89 73.7508 1921.34 67.4314 Q1915.83 61.0714 1915.83 49.9314 Q1915.83 38.7509 1921.34 32.4315 Q1926.89 26.1121 1936.65 26.1121 Z" fill="#000000" fill-rule="nonzero" fill-opacity="1" /><path clip-path="url(#clip680)" d="M2007.55 45.1919 L2007.55 72.576 L2000.09 72.576 L2000.09 45.4349 Q2000.09 38.994 1997.58 35.7938 Q1995.07 32.5936 1990.05 32.5936 Q1984.01 32.5936 1980.53 36.4419 Q1977.04 40.2903 1977.04 46.9338 L1977.04 72.576 L1969.55 72.576 L1969.55 27.2059 L1977.04 27.2059 L1977.04 34.2544 Q1979.72 30.163 1983.32 28.1376 Q1986.97 26.1121 1991.71 26.1121 Q1999.52 26.1121 2003.54 30.9732 Q2007.55 35.7938 2007.55 45.1919 Z" fill="#000000" fill-rule="nonzero" fill-opacity="1" /><path clip-path="url(#clip680)" d="M2068.35 39.075 Q2062.84 39.075 2059.6 42.8424 Q2056.4 46.6097 2056.4 53.1722 Q2056.4 59.6941 2059.6 63.502 Q2062.84 67.2693 2068.35 67.2693 Q2073.86 67.2693 2077.06 63.502 Q2080.3 59.6941 2080.3 53.1722 Q2080.3 46.6097 2077.06 42.8424 Q2073.86 39.075 2068.35 39.075 M2084.59 13.4328 L2084.59 20.8865 Q2081.52 19.4281 2078.36 18.6585 Q2075.24 17.8888 2072.16 17.8888 Q2064.06 17.8888 2059.76 23.3575 Q2055.51 28.8262 2054.9 39.8852 Q2057.29 36.3609 2060.9 34.4975 Q2064.5 32.5936 2068.84 32.5936 Q2077.95 32.5936 2083.22 38.1433 Q2088.52 43.6525 2088.52 53.1722 Q2088.52 62.4892 2083.01 68.12 Q2077.5 73.7508 2068.35 73.7508 Q2057.86 73.7508 2052.31 65.73 Q2046.76 57.6687 2046.76 42.3968 Q2046.76 28.0566 2053.56 19.5497 Q2060.37 11.0023 2071.83 11.0023 Q2074.91 11.0023 2078.03 11.6099 Q2081.19 12.2175 2084.59 13.4328 Z" fill="#000000" fill-rule="nonzero" fill-opacity="1" /><path clip-path="url(#clip682)" d="M875.282 1390.93 L875.282 1423.18 L986.237 1423.18 L986.237 1390.93 L875.282 1390.93 L875.282 1390.93  Z" fill="#009af9" fill-rule="evenodd" fill-opacity="1"/>
<polyline clip-path="url(#clip682)" style="stroke:#000000; stroke-linecap:round; stroke-linejoin:round; stroke-width:4; stroke-opacity:1; fill:none" points="875.282,1390.93 875.282,1423.18 986.237,1423.18 986.237,1390.93 875.282,1390.93 "/>
<path clip-path="url(#clip682)" d="M1846.13 616.936 L1846.13 1423.18 L1957.09 1423.18 L1957.09 616.936 L1846.13 616.936 L1846.13 616.936  Z" fill="#009af9" fill-rule="evenodd" fill-opacity="1"/>
<polyline clip-path="url(#clip682)" style="stroke:#000000; stroke-linecap:round; stroke-linejoin:round; stroke-width:4; stroke-opacity:1; fill:none" points="1846.13,616.936 1846.13,1423.18 1957.09,1423.18 1957.09,616.936 1846.13,616.936 "/>
<path clip-path="url(#clip682)" d="M1291.36 1423.18 L1291.36 1423.18 L1402.32 1423.18 L1402.32 1423.18 L1291.36 1423.18 L1291.36 1423.18  Z" fill="#009af9" fill-rule="evenodd" fill-opacity="1"/>
<polyline clip-path="url(#clip682)" style="stroke:#000000; stroke-linecap:round; stroke-linejoin:round; stroke-width:4; stroke-opacity:1; fill:none" points="1291.36,1423.18 1291.36,1423.18 1402.32,1423.18 1402.32,1423.18 1291.36,1423.18 "/>
<path clip-path="url(#clip682)" d="M320.51 1415.12 L320.51 1423.18 L431.465 1423.18 L431.465 1415.12 L320.51 1415.12 L320.51 1415.12  Z" fill="#009af9" fill-rule="evenodd" fill-opacity="1"/>
<polyline clip-path="url(#clip682)" style="stroke:#000000; stroke-linecap:round; stroke-linejoin:round; stroke-width:4; stroke-opacity:1; fill:none" points="320.51,1415.12 320.51,1423.18 431.465,1423.18 431.465,1415.12 320.51,1415.12 "/>
<path clip-path="url(#clip682)" d="M1013.98 1415.12 L1013.98 1423.18 L1124.93 1423.18 L1124.93 1415.12 L1013.98 1415.12 L1013.98 1415.12  Z" fill="#009af9" fill-rule="evenodd" fill-opacity="1"/>
<polyline clip-path="url(#clip682)" style="stroke:#000000; stroke-linecap:round; stroke-linejoin:round; stroke-width:4; stroke-opacity:1; fill:none" points="1013.98,1415.12 1013.98,1423.18 1124.93,1423.18 1124.93,1415.12 1013.98,1415.12 "/>
<path clip-path="url(#clip682)" d="M1707.44 1423.18 L1707.44 1423.18 L1818.39 1423.18 L1818.39 1423.18 L1707.44 1423.18 L1707.44 1423.18  Z" fill="#009af9" fill-rule="evenodd" fill-opacity="1"/>
<polyline clip-path="url(#clip682)" style="stroke:#000000; stroke-linecap:round; stroke-linejoin:round; stroke-width:4; stroke-opacity:1; fill:none" points="1707.44,1423.18 1707.44,1423.18 1818.39,1423.18 1818.39,1423.18 1707.44,1423.18 "/>
<path clip-path="url(#clip682)" d="M1430.05 1423.18 L1430.05 1423.18 L1541.01 1423.18 L1541.01 1423.18 L1430.05 1423.18 L1430.05 1423.18  Z" fill="#009af9" fill-rule="evenodd" fill-opacity="1"/>
<polyline clip-path="url(#clip682)" style="stroke:#000000; stroke-linecap:round; stroke-linejoin:round; stroke-width:4; stroke-opacity:1; fill:none" points="1430.05,1423.18 1430.05,1423.18 1541.01,1423.18 1541.01,1423.18 1430.05,1423.18 "/>
<path clip-path="url(#clip682)" d="M2123.52 1358.68 L2123.52 1423.18 L2234.47 1423.18 L2234.47 1358.68 L2123.52 1358.68 L2123.52 1358.68  Z" fill="#009af9" fill-rule="evenodd" fill-opacity="1"/>
<polyline clip-path="url(#clip682)" style="stroke:#000000; stroke-linecap:round; stroke-linejoin:round; stroke-width:4; stroke-opacity:1; fill:none" points="2123.52,1358.68 2123.52,1423.18 2234.47,1423.18 2234.47,1358.68 2123.52,1358.68 "/>
<path clip-path="url(#clip682)" d="M597.896 123.472 L597.896 1423.18 L708.851 1423.18 L708.851 123.472 L597.896 123.472 L597.896 123.472  Z" fill="#009af9" fill-rule="evenodd" fill-opacity="1"/>
<polyline clip-path="url(#clip682)" style="stroke:#000000; stroke-linecap:round; stroke-linejoin:round; stroke-width:4; stroke-opacity:1; fill:none" points="597.896,123.472 597.896,1423.18 708.851,1423.18 708.851,123.472 597.896,123.472 "/>
<path clip-path="url(#clip682)" d="M1152.67 1423.18 L1152.67 1423.18 L1263.62 1423.18 L1263.62 1423.18 L1152.67 1423.18 L1152.67 1423.18  Z" fill="#009af9" fill-rule="evenodd" fill-opacity="1"/>
<polyline clip-path="url(#clip682)" style="stroke:#000000; stroke-linecap:round; stroke-linejoin:round; stroke-width:4; stroke-opacity:1; fill:none" points="1152.67,1423.18 1152.67,1423.18 1263.62,1423.18 1263.62,1423.18 1152.67,1423.18 "/>
<path clip-path="url(#clip682)" d="M736.589 1214.29 L736.589 1423.18 L847.544 1423.18 L847.544 1214.29 L736.589 1214.29 L736.589 1214.29  Z" fill="#009af9" fill-rule="evenodd" fill-opacity="1"/>
<polyline clip-path="url(#clip682)" style="stroke:#000000; stroke-linecap:round; stroke-linejoin:round; stroke-width:4; stroke-opacity:1; fill:none" points="736.589,1214.29 736.589,1423.18 847.544,1423.18 847.544,1214.29 736.589,1214.29 "/>
<path clip-path="url(#clip682)" d="M1984.83 1415.12 L1984.83 1423.18 L2095.78 1423.18 L2095.78 1415.12 L1984.83 1415.12 L1984.83 1415.12  Z" fill="#009af9" fill-rule="evenodd" fill-opacity="1"/>
<polyline clip-path="url(#clip682)" style="stroke:#000000; stroke-linecap:round; stroke-linejoin:round; stroke-width:4; stroke-opacity:1; fill:none" points="1984.83,1415.12 1984.83,1423.18 2095.78,1423.18 2095.78,1415.12 1984.83,1415.12 "/>
<path clip-path="url(#clip682)" d="M459.203 1423.18 L459.203 1423.18 L570.158 1423.18 L570.158 1423.18 L459.203 1423.18 L459.203 1423.18  Z" fill="#009af9" fill-rule="evenodd" fill-opacity="1"/>
<polyline clip-path="url(#clip682)" style="stroke:#000000; stroke-linecap:round; stroke-linejoin:round; stroke-width:4; stroke-opacity:1; fill:none" points="459.203,1423.18 459.203,1423.18 570.158,1423.18 570.158,1423.18 459.203,1423.18 "/>
<path clip-path="url(#clip682)" d="M1568.75 616.936 L1568.75 1423.18 L1679.7 1423.18 L1679.7 616.936 L1568.75 616.936 L1568.75 616.936  Z" fill="#009af9" fill-rule="evenodd" fill-opacity="1"/>
<polyline clip-path="url(#clip682)" style="stroke:#000000; stroke-linecap:round; stroke-linejoin:round; stroke-width:4; stroke-opacity:1; fill:none" points="1568.75,616.936 1568.75,1423.18 1679.7,1423.18 1679.7,616.936 1568.75,616.936 "/>
<circle clip-path="url(#clip682)" style="fill:#009af9; stroke:none; fill-opacity:0" cx="930.759" cy="1390.93" r="2"/>
<circle clip-path="url(#clip682)" style="fill:#009af9; stroke:none; fill-opacity:0" cx="1901.61" cy="616.936" r="2"/>
<circle clip-path="url(#clip682)" style="fill:#009af9; stroke:none; fill-opacity:0" cx="1346.84" cy="1423.18" r="2"/>
<circle clip-path="url(#clip682)" style="fill:#009af9; stroke:none; fill-opacity:0" cx="375.988" cy="1415.12" r="2"/>
<circle clip-path="url(#clip682)" style="fill:#009af9; stroke:none; fill-opacity:0" cx="1069.45" cy="1415.12" r="2"/>
<circle clip-path="url(#clip682)" style="fill:#009af9; stroke:none; fill-opacity:0" cx="1762.92" cy="1423.18" r="2"/>
<circle clip-path="url(#clip682)" style="fill:#009af9; stroke:none; fill-opacity:0" cx="1485.53" cy="1423.18" r="2"/>
<circle clip-path="url(#clip682)" style="fill:#009af9; stroke:none; fill-opacity:0" cx="2179" cy="1358.68" r="2"/>
<circle clip-path="url(#clip682)" style="fill:#009af9; stroke:none; fill-opacity:0" cx="653.373" cy="123.472" r="2"/>
<circle clip-path="url(#clip682)" style="fill:#009af9; stroke:none; fill-opacity:0" cx="1208.15" cy="1423.18" r="2"/>
<circle clip-path="url(#clip682)" style="fill:#009af9; stroke:none; fill-opacity:0" cx="792.066" cy="1214.29" r="2"/>
<circle clip-path="url(#clip682)" style="fill:#009af9; stroke:none; fill-opacity:0" cx="2040.3" cy="1415.12" r="2"/>
<circle clip-path="url(#clip682)" style="fill:#009af9; stroke:none; fill-opacity:0" cx="514.68" cy="1423.18" r="2"/>
<circle clip-path="url(#clip682)" style="fill:#009af9; stroke:none; fill-opacity:0" cx="1624.22" cy="616.936" r="2"/>
</svg>
