<?xml version="1.0" encoding="utf-8"?>
<svg xmlns="http://www.w3.org/2000/svg" xmlns:xlink="http://www.w3.org/1999/xlink" width="900" height="500" viewBox="0 0 3600 2000">
<defs>
  <clipPath id="clip460">
    <rect x="0" y="0" width="3600" height="2000"/>
  </clipPath>
</defs>
<path clip-path="url(#clip460)" d="M0 2000 L3600 2000 L3600 0 L0 0  Z" fill="#ffffff" fill-rule="evenodd" fill-opacity="1"/>
<defs>
  <clipPath id="clip461">
    <rect x="720" y="0" width="2521" height="2000"/>
  </clipPath>
</defs>
<path clip-path="url(#clip460)" d="M378.202 1587.62 L3552.76 1587.62 L3552.76 113.392 L378.202 113.392  Z" fill="#ffffff" fill-rule="evenodd" fill-opacity="1"/>
<defs>
  <clipPath id="clip462">
    <rect x="378" y="113" width="3176" height="1475"/>
  </clipPath>
</defs>
<polyline clip-path="url(#clip462)" style="stroke:#000000; stroke-linecap:round; stroke-linejoin:round; stroke-width:2; stroke-opacity:0.1; fill:none" points="651.366,1587.62 651.366,113.392 "/>
<polyline clip-path="url(#clip462)" style="stroke:#000000; stroke-linecap:round; stroke-linejoin:round; stroke-width:2; stroke-opacity:0.1; fill:none" points="979.894,1587.62 979.894,113.392 "/>
<polyline clip-path="url(#clip462)" style="stroke:#000000; stroke-linecap:round; stroke-linejoin:round; stroke-width:2; stroke-opacity:0.1; fill:none" points="1308.42,1587.62 1308.42,113.392 "/>
<polyline clip-path="url(#clip462)" style="stroke:#000000; stroke-linecap:round; stroke-linejoin:round; stroke-width:2; stroke-opacity:0.1; fill:none" points="1636.95,1587.62 1636.95,113.392 "/>
<polyline clip-path="url(#clip462)" style="stroke:#000000; stroke-linecap:round; stroke-linejoin:round; stroke-width:2; stroke-opacity:0.1; fill:none" points="1965.48,1587.62 1965.48,113.392 "/>
<polyline clip-path="url(#clip462)" style="stroke:#000000; stroke-linecap:round; stroke-linejoin:round; stroke-width:2; stroke-opacity:0.1; fill:none" points="2294.01,1587.62 2294.01,113.392 "/>
<polyline clip-path="url(#clip462)" style="stroke:#000000; stroke-linecap:round; stroke-linejoin:round; stroke-width:2; stroke-opacity:0.1; fill:none" points="2622.54,1587.62 2622.54,113.392 "/>
<polyline clip-path="url(#clip462)" style="stroke:#000000; stroke-linecap:round; stroke-linejoin:round; stroke-width:2; stroke-opacity:0.1; fill:none" points="2951.06,1587.62 2951.06,113.392 "/>
<polyline clip-path="url(#clip462)" style="stroke:#000000; stroke-linecap:round; stroke-linejoin:round; stroke-width:2; stroke-opacity:0.1; fill:none" points="3279.59,1587.62 3279.59,113.392 "/>
<polyline clip-path="url(#clip462)" style="stroke:#000000; stroke-linecap:round; stroke-linejoin:round; stroke-width:2; stroke-opacity:0.1; fill:none" points="378.202,1587.62 3552.76,1587.62 "/>
<polyline clip-path="url(#clip462)" style="stroke:#000000; stroke-linecap:round; stroke-linejoin:round; stroke-width:2; stroke-opacity:0.1; fill:none" points="378.202,1292.78 3552.76,1292.78 "/>
<polyline clip-path="url(#clip462)" style="stroke:#000000; stroke-linecap:round; stroke-linejoin:round; stroke-width:2; stroke-opacity:0.1; fill:none" points="378.202,997.93 3552.76,997.93 "/>
<polyline clip-path="url(#clip462)" style="stroke:#000000; stroke-linecap:round; stroke-linejoin:round; stroke-width:2; stroke-opacity:0.1; fill:none" points="378.202,703.084 3552.76,703.084 "/>
<polyline clip-path="url(#clip462)" style="stroke:#000000; stroke-linecap:round; stroke-linejoin:round; stroke-width:2; stroke-opacity:0.1; fill:none" points="378.202,408.238 3552.76,408.238 "/>
<polyline clip-path="url(#clip462)" style="stroke:#000000; stroke-linecap:round; stroke-linejoin:round; stroke-width:2; stroke-opacity:0.1; fill:none" points="378.202,113.392 3552.76,113.392 "/>
<polyline clip-path="url(#clip460)" style="stroke:#000000; stroke-linecap:round; stroke-linejoin:round; stroke-width:4; stroke-opacity:1; fill:none" points="378.202,1587.62 3552.76,1587.62 "/>
<polyline clip-path="url(#clip460)" style="stroke:#000000; stroke-linecap:round; stroke-linejoin:round; stroke-width:4; stroke-opacity:1; fill:none" points="651.366,1587.62 651.366,1568.73 "/>
<polyline clip-path="url(#clip460)" style="stroke:#000000; stroke-linecap:round; stroke-linejoin:round; stroke-width:4; stroke-opacity:1; fill:none" points="979.894,1587.62 979.894,1568.73 "/>
<polyline clip-path="url(#clip460)" style="stroke:#000000; stroke-linecap:round; stroke-linejoin:round; stroke-width:4; stroke-opacity:1; fill:none" points="1308.42,1587.62 1308.42,1568.73 "/>
<polyline clip-path="url(#clip460)" style="stroke:#000000; stroke-linecap:round; stroke-linejoin:round; stroke-width:4; stroke-opacity:1; fill:none" points="1636.95,1587.62 1636.95,1568.73 "/>
<polyline clip-path="url(#clip460)" style="stroke:#000000; stroke-linecap:round; stroke-linejoin:round; stroke-width:4; stroke-opacity:1; fill:none" points="1965.48,1587.62 1965.48,1568.73 "/>
<polyline clip-path="url(#clip460)" style="stroke:#000000; stroke-linecap:round; stroke-linejoin:round; stroke-width:4; stroke-opacity:1; fill:none" points="2294.01,1587.62 2294.01,1568.73 "/>
<polyline clip-path="url(#clip460)" style="stroke:#000000; stroke-linecap:round; stroke-linejoin:round; stroke-width:4; stroke-opacity:1; fill:none" points="2622.54,1587.62 2622.54,1568.73 "/>
<polyline clip-path="url(#clip460)" style="stroke:#000000; stroke-linecap:round; stroke-linejoin:round; stroke-width:4; stroke-opacity:1; fill:none" points="2951.06,1587.62 2951.06,1568.73 "/>
<polyline clip-path="url(#clip460)" style="stroke:#000000; stroke-linecap:round; stroke-linejoin:round; stroke-width:4; stroke-opacity:1; fill:none" points="3279.59,1587.62 3279.59,1568.73 "/>
<path clip-path="url(#clip460)" d="M600.224 1683.26 Q597.998 1685.48 598.211 1688.32 Q598.44 1691.13 601.092 1693.78 Q603.727 1696.42 606.558 1696.66 Q609.39 1696.88 611.616 1694.65 Q613.842 1692.42 613.613 1689.61 Q613.384 1686.76 610.749 1684.13 Q608.097 1681.47 605.265 1681.26 Q602.45 1681.03 600.224 1683.26 M596.427 1666.33 L599.438 1669.34 Q597.605 1670 596.017 1670.97 Q594.446 1671.91 593.202 1673.16 Q589.928 1676.43 590.403 1680.38 Q590.894 1684.31 595.117 1689.02 Q594.659 1686.63 595.363 1684.42 Q596.05 1682.19 597.802 1680.44 Q601.484 1676.76 605.855 1676.87 Q610.225 1676.96 614.071 1680.8 Q617.836 1684.57 617.885 1689.07 Q617.934 1693.57 614.235 1697.27 Q609.996 1701.51 604.512 1700.51 Q599.013 1699.5 592.842 1693.32 Q587.048 1687.53 586.36 1681.34 Q585.656 1675.14 590.289 1670.51 Q591.533 1669.26 593.038 1668.25 Q594.561 1667.22 596.427 1666.33 Z" fill="#000000" fill-rule="nonzero" fill-opacity="1" /><path clip-path="url(#clip460)" d="M602.335 1659.34 L618.049 1643.63 L619.457 1645.04 L633.615 1676.94 L630.161 1680.39 L616.854 1650.39 L605.118 1662.13 L602.335 1659.34 Z" fill="#000000" fill-rule="nonzero" fill-opacity="1" /><path clip-path="url(#clip460)" d="M646.726 1658.26 L652.127 1652.86 L633.484 1634.22 L628.786 1641.27 L625.775 1638.26 L630.44 1631.24 L633.746 1627.93 L655.401 1649.59 L660.802 1644.19 L663.585 1646.97 L649.508 1661.05 L646.726 1658.26 Z" fill="#000000" fill-rule="nonzero" fill-opacity="1" /><path clip-path="url(#clip460)" d="M927.541 1684.47 Q925.315 1686.7 925.528 1689.53 Q925.757 1692.34 928.408 1694.99 Q931.044 1697.63 933.875 1697.87 Q936.707 1698.09 938.933 1695.86 Q941.159 1693.64 940.93 1690.82 Q940.701 1687.97 938.066 1685.34 Q935.414 1682.68 932.582 1682.47 Q929.767 1682.24 927.541 1684.47 M923.743 1667.54 L926.755 1670.56 Q924.922 1671.21 923.334 1672.18 Q921.763 1673.13 920.519 1674.37 Q917.245 1677.64 917.72 1681.59 Q918.211 1685.52 922.434 1690.23 Q921.976 1687.84 922.68 1685.63 Q923.367 1683.41 925.118 1681.65 Q928.801 1677.97 933.172 1678.09 Q937.542 1678.17 941.388 1682.01 Q945.153 1685.78 945.202 1690.28 Q945.251 1694.78 941.552 1698.48 Q937.313 1702.72 931.829 1701.72 Q926.33 1700.71 920.159 1694.54 Q914.365 1688.74 913.677 1682.55 Q912.973 1676.35 917.605 1671.72 Q918.849 1670.47 920.355 1669.46 Q921.878 1668.43 923.743 1667.54 Z" fill="#000000" fill-rule="nonzero" fill-opacity="1" /><path clip-path="url(#clip460)" d="M951.766 1660.96 Q954.647 1659.1 957.576 1659.38 Q960.523 1659.64 962.88 1662 Q966.497 1665.61 965.99 1670.08 Q965.482 1674.55 960.899 1679.13 Q959.361 1680.67 957.413 1682 Q955.498 1683.32 953.157 1684.45 L949.965 1681.26 Q952.142 1680.69 954.188 1679.46 Q956.234 1678.23 958.018 1676.45 Q961.128 1673.34 961.521 1670.49 Q961.93 1667.63 959.59 1665.29 Q957.429 1663.13 954.696 1663.44 Q951.962 1663.71 949.261 1666.42 L946.413 1669.26 L943.696 1666.55 L946.675 1663.57 Q949.114 1661.13 949.441 1658.87 Q949.752 1656.59 947.919 1654.76 Q946.037 1652.88 943.696 1653.22 Q941.356 1653.53 938.868 1656.02 Q937.509 1657.38 936.249 1659.23 Q934.988 1661.08 933.744 1663.57 L930.798 1660.62 Q932.157 1658.21 933.532 1656.32 Q934.923 1654.4 936.38 1652.94 Q940.144 1649.18 944.056 1648.7 Q947.952 1648.21 950.865 1651.13 Q952.895 1653.16 953.141 1655.73 Q953.37 1658.28 951.766 1660.96 Z" fill="#000000" fill-rule="nonzero" fill-opacity="1" /><path clip-path="url(#clip460)" d="M963.78 1632.19 L968.478 1653.58 L976.825 1645.23 L963.78 1632.19 M960.032 1630.18 L964.189 1626.02 L980.115 1641.94 L983.602 1638.46 L986.352 1641.21 L982.865 1644.69 L988.627 1650.46 L985.337 1653.75 L979.575 1647.98 L968.543 1659.02 L965.351 1655.82 L960.032 1630.18 Z" fill="#000000" fill-rule="nonzero" fill-opacity="1" /><path clip-path="url(#clip460)" d="M1257.54 1683 Q1255.32 1685.22 1255.53 1688.05 Q1255.76 1690.87 1258.41 1693.52 Q1261.04 1696.16 1263.88 1696.4 Q1266.71 1696.61 1268.93 1694.39 Q1271.16 1692.16 1270.93 1689.35 Q1270.7 1686.5 1268.07 1683.86 Q1265.42 1681.21 1262.58 1681 Q1259.77 1680.77 1257.54 1683 M1253.74 1666.07 L1256.76 1669.08 Q1254.92 1669.74 1253.34 1670.7 Q1251.76 1671.65 1250.52 1672.9 Q1247.25 1676.17 1247.72 1680.12 Q1248.21 1684.04 1252.44 1688.76 Q1251.98 1686.37 1252.68 1684.16 Q1253.37 1681.93 1255.12 1680.18 Q1258.8 1676.5 1263.17 1676.61 Q1267.54 1676.69 1271.39 1680.54 Q1275.15 1684.31 1275.2 1688.81 Q1275.25 1693.31 1271.55 1697.01 Q1267.31 1701.25 1261.83 1700.25 Q1256.33 1699.23 1250.16 1693.06 Q1244.37 1687.27 1243.68 1681.08 Q1242.97 1674.88 1247.61 1670.25 Q1248.85 1669 1250.36 1667.99 Q1251.88 1666.96 1253.74 1666.07 Z" fill="#000000" fill-rule="nonzero" fill-opacity="1" /><path clip-path="url(#clip460)" d="M1260.52 1658.21 L1273.5 1645.23 L1276.28 1648.02 L1266.33 1657.97 L1272.32 1663.96 Q1272.8 1662.99 1273.4 1662.16 Q1273.99 1661.31 1274.71 1660.59 Q1278.8 1656.5 1283.44 1656.35 Q1288.07 1656.2 1291.9 1660.03 Q1295.84 1663.98 1295.58 1668.62 Q1295.3 1673.26 1290.83 1677.73 Q1289.3 1679.26 1287.43 1680.61 Q1285.58 1681.93 1283.35 1683.11 L1280.03 1679.79 Q1282.31 1679.12 1284.27 1677.94 Q1286.24 1676.76 1287.99 1675.01 Q1290.82 1672.18 1290.98 1669.03 Q1291.15 1665.89 1288.59 1663.34 Q1286.04 1660.78 1282.9 1660.95 Q1279.75 1661.11 1276.92 1663.94 Q1275.6 1665.27 1274.57 1666.89 Q1273.55 1668.49 1272.8 1670.49 L1260.52 1658.21 Z" fill="#000000" fill-rule="nonzero" fill-opacity="1" /><path clip-path="url(#clip460)" d="M1306.32 1655.73 L1317.86 1644.19 L1320.64 1646.97 L1305.12 1662.49 L1302.34 1659.7 Q1302.28 1655.87 1302.24 1649.36 Q1302.21 1642.81 1302.1 1641.03 Q1301.9 1637.66 1301.29 1635.81 Q1300.69 1633.92 1299.49 1632.73 Q1297.55 1630.78 1294.94 1630.93 Q1292.36 1631.06 1290.16 1633.25 Q1288.61 1634.81 1287.41 1637.08 Q1286.24 1639.34 1285.37 1642.4 L1282.03 1639.06 Q1283.22 1636.26 1284.55 1634.12 Q1285.88 1631.98 1287.32 1630.54 Q1291.11 1626.74 1295.27 1626.38 Q1299.43 1626.02 1302.6 1629.19 Q1304.11 1630.7 1304.9 1632.63 Q1305.68 1634.53 1306.02 1637.85 Q1306.09 1638.74 1306.17 1643.21 Q1306.24 1647.66 1306.32 1655.73 Z" fill="#000000" fill-rule="nonzero" fill-opacity="1" /><path clip-path="url(#clip460)" d="M1585.64 1683.42 Q1583.42 1685.65 1583.63 1688.48 Q1583.86 1691.29 1586.51 1693.95 Q1589.15 1696.58 1591.98 1696.83 Q1594.81 1697.04 1597.04 1694.81 Q1599.26 1692.59 1599.03 1689.77 Q1598.8 1686.92 1596.17 1684.29 Q1593.52 1681.64 1590.69 1681.42 Q1587.87 1681.2 1585.64 1683.42 M1581.85 1666.5 L1584.86 1669.51 Q1583.03 1670.16 1581.44 1671.13 Q1579.87 1672.08 1578.62 1673.32 Q1575.35 1676.6 1575.82 1680.54 Q1576.31 1684.47 1580.54 1689.18 Q1580.08 1686.79 1580.78 1684.58 Q1581.47 1682.36 1583.22 1680.61 Q1586.91 1676.92 1591.28 1677.04 Q1595.65 1677.12 1599.49 1680.97 Q1603.26 1684.73 1603.31 1689.23 Q1603.36 1693.73 1599.66 1697.43 Q1595.42 1701.67 1589.93 1700.67 Q1584.43 1699.66 1578.26 1693.49 Q1572.47 1687.69 1571.78 1681.51 Q1571.08 1675.3 1575.71 1670.67 Q1576.95 1669.43 1578.46 1668.41 Q1579.98 1667.38 1581.85 1666.5 Z" fill="#000000" fill-rule="nonzero" fill-opacity="1" /><path clip-path="url(#clip460)" d="M1587.76 1659.51 L1603.47 1643.79 L1604.88 1645.2 L1619.04 1677.1 L1615.58 1680.56 L1602.27 1650.55 L1590.54 1662.29 L1587.76 1659.51 Z" fill="#000000" fill-rule="nonzero" fill-opacity="1" /><path clip-path="url(#clip460)" d="M1609.95 1637.31 L1622.93 1624.33 L1625.71 1627.12 L1615.76 1637.07 L1621.75 1643.06 Q1622.23 1642.09 1622.83 1641.26 Q1623.42 1640.41 1624.14 1639.69 Q1628.23 1635.59 1632.87 1635.45 Q1637.5 1635.3 1641.33 1639.13 Q1645.27 1643.07 1645.01 1647.72 Q1644.73 1652.35 1640.27 1656.82 Q1638.73 1658.36 1636.86 1659.7 Q1635.01 1661.03 1632.78 1662.21 L1629.46 1658.89 Q1631.74 1658.21 1633.7 1657.04 Q1635.67 1655.86 1637.42 1654.11 Q1640.25 1651.27 1640.41 1648.13 Q1640.58 1644.99 1638.02 1642.44 Q1635.47 1639.88 1632.33 1640.05 Q1629.18 1640.21 1626.35 1643.04 Q1625.03 1644.37 1624 1645.99 Q1622.98 1647.59 1622.23 1649.59 L1609.95 1637.31 Z" fill="#000000" fill-rule="nonzero" fill-opacity="1" /><path clip-path="url(#clip460)" d="M1914.34 1683.26 Q1912.11 1685.48 1912.32 1688.32 Q1912.55 1691.13 1915.2 1693.78 Q1917.84 1696.42 1920.67 1696.66 Q1923.5 1696.88 1925.73 1694.65 Q1927.95 1692.42 1927.73 1689.61 Q1927.5 1686.76 1924.86 1684.13 Q1922.21 1681.47 1919.38 1681.26 Q1916.56 1681.03 1914.34 1683.26 M1910.54 1666.33 L1913.55 1669.34 Q1911.72 1670 1910.13 1670.97 Q1908.56 1671.91 1907.31 1673.16 Q1904.04 1676.43 1904.52 1680.38 Q1905.01 1684.31 1909.23 1689.02 Q1908.77 1686.63 1909.48 1684.42 Q1910.16 1682.19 1911.91 1680.44 Q1915.6 1676.76 1919.97 1676.87 Q1924.34 1676.96 1928.18 1680.8 Q1931.95 1684.57 1932 1689.07 Q1932.05 1693.57 1928.35 1697.27 Q1924.11 1701.51 1918.63 1700.51 Q1913.13 1699.5 1906.95 1693.32 Q1901.16 1687.53 1900.47 1681.34 Q1899.77 1675.14 1904.4 1670.51 Q1905.65 1669.26 1907.15 1668.25 Q1908.67 1667.22 1910.54 1666.33 Z" fill="#000000" fill-rule="nonzero" fill-opacity="1" /><path clip-path="url(#clip460)" d="M1939.51 1679.59 L1944.91 1674.19 L1926.27 1655.55 L1921.57 1662.6 L1918.56 1659.59 L1923.22 1652.57 L1926.53 1649.26 L1948.19 1670.92 L1953.59 1665.51 L1956.37 1668.3 L1942.29 1682.37 L1939.51 1679.59 Z" fill="#000000" fill-rule="nonzero" fill-opacity="1" /><path clip-path="url(#clip460)" d="M1960.84 1658.26 L1966.24 1652.86 L1947.6 1634.22 L1942.9 1641.27 L1939.89 1638.26 L1944.55 1631.24 L1947.86 1627.93 L1969.51 1649.59 L1974.91 1644.19 L1977.7 1646.97 L1963.62 1661.05 L1960.84 1658.26 Z" fill="#000000" fill-rule="nonzero" fill-opacity="1" /><path clip-path="url(#clip460)" d="M2242.7 1683.42 Q2240.47 1685.65 2240.69 1688.48 Q2240.92 1691.29 2243.57 1693.95 Q2246.2 1696.58 2249.04 1696.83 Q2251.87 1697.04 2254.09 1694.81 Q2256.32 1692.59 2256.09 1689.77 Q2255.86 1686.92 2253.23 1684.29 Q2250.57 1681.64 2247.74 1681.42 Q2244.93 1681.2 2242.7 1683.42 M2238.9 1666.5 L2241.92 1669.51 Q2240.08 1670.16 2238.49 1671.13 Q2236.92 1672.08 2235.68 1673.32 Q2232.41 1676.6 2232.88 1680.54 Q2233.37 1684.47 2237.59 1689.18 Q2237.14 1686.79 2237.84 1684.58 Q2238.53 1682.36 2240.28 1680.61 Q2243.96 1676.92 2248.33 1677.04 Q2252.7 1677.12 2256.55 1680.97 Q2260.31 1684.73 2260.36 1689.23 Q2260.41 1693.73 2256.71 1697.43 Q2252.47 1701.67 2246.99 1700.67 Q2241.49 1699.66 2235.32 1693.49 Q2229.52 1687.69 2228.84 1681.51 Q2228.13 1675.3 2232.77 1670.67 Q2234.01 1669.43 2235.52 1668.41 Q2237.04 1667.38 2238.9 1666.5 Z" fill="#000000" fill-rule="nonzero" fill-opacity="1" /><path clip-path="url(#clip460)" d="M2257.61 1652.47 L2262.31 1673.86 L2270.66 1665.51 L2257.61 1652.47 M2253.86 1650.46 L2258.02 1646.3 L2273.95 1662.22 L2277.43 1658.74 L2280.18 1661.49 L2276.7 1664.97 L2282.46 1670.74 L2279.17 1674.03 L2273.41 1668.26 L2262.38 1679.3 L2259.18 1676.1 L2253.86 1650.46 Z" fill="#000000" fill-rule="nonzero" fill-opacity="1" /><path clip-path="url(#clip460)" d="M2267.01 1637.31 L2279.99 1624.33 L2282.77 1627.12 L2272.82 1637.07 L2278.81 1643.06 Q2279.28 1642.09 2279.89 1641.26 Q2280.48 1640.41 2281.2 1639.69 Q2285.29 1635.59 2289.92 1635.45 Q2294.56 1635.3 2298.39 1639.13 Q2302.33 1643.07 2302.07 1647.72 Q2301.79 1652.35 2297.32 1656.82 Q2295.78 1658.36 2293.92 1659.7 Q2292.07 1661.03 2289.84 1662.21 L2286.52 1658.89 Q2288.79 1658.21 2290.76 1657.04 Q2292.72 1655.86 2294.47 1654.11 Q2297.31 1651.27 2297.47 1648.13 Q2297.63 1644.99 2295.08 1642.44 Q2292.53 1639.88 2289.38 1640.05 Q2286.24 1640.21 2283.41 1643.04 Q2282.08 1644.37 2281.05 1645.99 Q2280.04 1647.59 2279.28 1649.59 L2267.01 1637.31 Z" fill="#000000" fill-rule="nonzero" fill-opacity="1" /><path clip-path="url(#clip460)" d="M2571.65 1683 Q2569.43 1685.22 2569.64 1688.05 Q2569.87 1690.87 2572.52 1693.52 Q2575.16 1696.16 2577.99 1696.4 Q2580.82 1696.61 2583.05 1694.39 Q2585.27 1692.16 2585.04 1689.35 Q2584.81 1686.5 2582.18 1683.86 Q2579.53 1681.21 2576.7 1681 Q2573.88 1680.77 2571.65 1683 M2567.86 1666.07 L2570.87 1669.08 Q2569.04 1669.74 2567.45 1670.7 Q2565.88 1671.65 2564.63 1672.9 Q2561.36 1676.17 2561.83 1680.12 Q2562.32 1684.04 2566.55 1688.76 Q2566.09 1686.37 2566.79 1684.16 Q2567.48 1681.93 2569.23 1680.18 Q2572.92 1676.5 2577.29 1676.61 Q2581.66 1676.69 2585.5 1680.54 Q2589.27 1684.31 2589.32 1688.81 Q2589.37 1693.31 2585.67 1697.01 Q2581.43 1701.25 2575.94 1700.25 Q2570.44 1699.23 2564.27 1693.06 Q2558.48 1687.27 2557.79 1681.08 Q2557.09 1674.88 2561.72 1670.25 Q2562.96 1669 2564.47 1667.99 Q2565.99 1666.96 2567.86 1666.07 Z" fill="#000000" fill-rule="nonzero" fill-opacity="1" /><path clip-path="url(#clip460)" d="M2598.63 1682.08 L2595.62 1679.07 Q2597.45 1678.41 2599.04 1677.45 Q2600.63 1676.48 2601.85 1675.25 Q2605.13 1671.98 2604.65 1668.07 Q2604.18 1664.12 2599.94 1659.39 Q2600.4 1661.75 2599.69 1663.96 Q2598.99 1666.17 2597.22 1667.94 Q2593.56 1671.6 2589.2 1671.54 Q2584.85 1671.44 2581 1667.59 Q2577.24 1663.83 2577.19 1659.33 Q2577.14 1654.83 2580.84 1651.13 Q2585.08 1646.89 2590.56 1647.92 Q2596.04 1648.92 2602.23 1655.1 Q2608.01 1660.88 2608.71 1667.09 Q2609.42 1673.26 2604.78 1677.89 Q2603.54 1679.13 2602.02 1680.16 Q2600.5 1681.2 2598.63 1682.08 M2594.85 1665.14 Q2597.07 1662.91 2596.85 1660.1 Q2596.63 1657.27 2593.98 1654.61 Q2591.35 1651.98 2588.51 1651.77 Q2585.68 1651.52 2583.46 1653.75 Q2581.23 1655.97 2581.46 1658.82 Q2581.69 1661.64 2584.32 1664.27 Q2586.98 1666.92 2589.79 1667.15 Q2592.62 1667.36 2594.85 1665.14 Z" fill="#000000" fill-rule="nonzero" fill-opacity="1" /><path clip-path="url(#clip460)" d="M2620.43 1655.73 L2631.97 1644.19 L2634.75 1646.97 L2619.24 1662.49 L2616.45 1659.7 Q2616.39 1655.87 2616.36 1649.36 Q2616.32 1642.81 2616.21 1641.03 Q2616.01 1637.66 2615.41 1635.81 Q2614.8 1633.92 2613.61 1632.73 Q2611.66 1630.78 2609.06 1630.93 Q2606.47 1631.06 2604.28 1633.25 Q2602.72 1634.81 2601.53 1637.08 Q2600.35 1639.34 2599.48 1642.4 L2596.14 1639.06 Q2597.34 1636.26 2598.66 1634.12 Q2599.99 1631.98 2601.43 1630.54 Q2605.23 1626.74 2609.38 1626.38 Q2613.54 1626.02 2616.72 1629.19 Q2618.22 1630.7 2619.01 1632.63 Q2619.79 1634.53 2620.14 1637.85 Q2620.2 1638.74 2620.28 1643.21 Q2620.35 1647.66 2620.43 1655.73 Z" fill="#000000" fill-rule="nonzero" fill-opacity="1" /><path clip-path="url(#clip460)" d="M2899.05 1684.13 Q2896.83 1686.35 2897.04 1689.18 Q2897.27 1692 2899.92 1694.65 Q2902.56 1697.29 2905.39 1697.53 Q2908.22 1697.74 2910.45 1695.52 Q2912.67 1693.29 2912.44 1690.48 Q2912.21 1687.63 2909.58 1684.99 Q2906.93 1682.34 2904.09 1682.13 Q2901.28 1681.9 2899.05 1684.13 M2895.26 1667.2 L2898.27 1670.21 Q2896.43 1670.87 2894.85 1671.83 Q2893.28 1672.78 2892.03 1674.03 Q2888.76 1677.3 2889.23 1681.24 Q2889.72 1685.17 2893.95 1689.89 Q2893.49 1687.5 2894.19 1685.29 Q2894.88 1683.06 2896.63 1681.31 Q2900.31 1677.63 2904.68 1677.74 Q2909.05 1677.82 2912.9 1681.67 Q2916.67 1685.43 2916.71 1689.94 Q2916.76 1694.44 2913.06 1698.14 Q2908.83 1702.38 2903.34 1701.38 Q2897.84 1700.36 2891.67 1694.19 Q2885.88 1688.4 2885.19 1682.21 Q2884.49 1676.01 2889.12 1671.37 Q2890.36 1670.13 2891.87 1669.12 Q2893.39 1668.08 2895.26 1667.2 Z" fill="#000000" fill-rule="nonzero" fill-opacity="1" /><path clip-path="url(#clip460)" d="M2901.16 1660.21 L2916.88 1644.5 L2918.29 1645.91 L2932.44 1677.81 L2928.99 1681.26 L2915.68 1651.26 L2903.95 1662.99 L2901.16 1660.21 Z" fill="#000000" fill-rule="nonzero" fill-opacity="1" /><path clip-path="url(#clip460)" d="M2932.58 1633.16 Q2930.02 1635.71 2931.25 1639.52 Q2932.48 1643.3 2937.52 1648.34 Q2942.54 1653.37 2946.34 1654.61 Q2950.14 1655.82 2952.69 1653.27 Q2955.26 1650.7 2954.03 1646.92 Q2952.81 1643.11 2947.78 1638.08 Q2942.74 1633.04 2938.94 1631.83 Q2935.15 1630.59 2932.58 1633.16 M2929.96 1630.54 Q2934.06 1626.43 2939.48 1627.52 Q2944.9 1628.59 2951.09 1634.78 Q2957.26 1640.95 2958.34 1646.38 Q2959.42 1651.78 2955.31 1655.89 Q2951.2 1660 2945.78 1658.93 Q2940.37 1657.84 2934.2 1651.67 Q2928.01 1645.48 2926.93 1640.08 Q2925.85 1634.64 2929.96 1630.54 Z" fill="#000000" fill-rule="nonzero" fill-opacity="1" /><path clip-path="url(#clip460)" d="M3227.47 1684.24 Q3225.24 1686.47 3225.45 1689.3 Q3225.68 1692.11 3228.33 1694.76 Q3230.97 1697.4 3233.8 1697.65 Q3236.63 1697.86 3238.86 1695.63 Q3241.09 1693.41 3240.86 1690.59 Q3240.63 1687.74 3237.99 1685.11 Q3235.34 1682.46 3232.51 1682.24 Q3229.69 1682.01 3227.47 1684.24 M3223.67 1667.32 L3226.68 1670.33 Q3224.85 1670.98 3223.26 1671.95 Q3221.69 1672.9 3220.45 1674.14 Q3217.17 1677.41 3217.65 1681.36 Q3218.14 1685.29 3222.36 1690 Q3221.9 1687.61 3222.61 1685.4 Q3223.29 1683.18 3225.04 1681.42 Q3228.73 1677.74 3233.1 1677.86 Q3237.47 1677.94 3241.31 1681.78 Q3245.08 1685.55 3245.13 1690.05 Q3245.18 1694.55 3241.48 1698.25 Q3237.24 1702.49 3231.76 1701.49 Q3226.26 1700.48 3220.09 1694.31 Q3214.29 1688.51 3213.6 1682.32 Q3212.9 1676.12 3217.53 1671.49 Q3218.78 1670.25 3220.28 1669.23 Q3221.8 1668.2 3223.67 1667.32 Z" fill="#000000" fill-rule="nonzero" fill-opacity="1" /><path clip-path="url(#clip460)" d="M3242.38 1653.29 L3247.08 1674.68 L3255.42 1666.33 L3242.38 1653.29 M3238.63 1651.27 L3242.79 1647.12 L3258.71 1663.04 L3262.2 1659.56 L3264.95 1662.31 L3261.46 1665.79 L3267.23 1671.55 L3263.94 1674.84 L3258.17 1669.08 L3247.14 1680.12 L3243.95 1676.92 L3238.63 1651.27 Z" fill="#000000" fill-rule="nonzero" fill-opacity="1" /><path clip-path="url(#clip460)" d="M3270.12 1641.58 Q3267.9 1643.81 3268.11 1646.64 Q3268.34 1649.46 3270.99 1652.11 Q3273.63 1654.74 3276.46 1654.99 Q3279.29 1655.2 3281.51 1652.98 Q3283.74 1650.75 3283.51 1647.94 Q3283.28 1645.09 3280.65 1642.45 Q3278 1639.8 3275.16 1639.59 Q3272.35 1639.36 3270.12 1641.58 M3266.32 1624.66 L3269.34 1627.67 Q3267.5 1628.33 3265.92 1629.29 Q3264.34 1630.24 3263.1 1631.49 Q3259.83 1634.76 3260.3 1638.7 Q3260.79 1642.63 3265.02 1647.35 Q3264.56 1644.96 3265.26 1642.75 Q3265.95 1640.52 3267.7 1638.77 Q3271.38 1635.09 3275.75 1635.2 Q3280.12 1635.28 3283.97 1639.13 Q3287.73 1642.89 3287.78 1647.4 Q3287.83 1651.9 3284.13 1655.6 Q3279.89 1659.84 3274.41 1658.84 Q3268.91 1657.82 3262.74 1651.65 Q3256.95 1645.86 3256.26 1639.67 Q3255.55 1633.47 3260.19 1628.83 Q3261.43 1627.59 3262.94 1626.58 Q3264.46 1625.54 3266.32 1624.66 Z" fill="#000000" fill-rule="nonzero" fill-opacity="1" /><path clip-path="url(#clip460)" d="M1916.7 1772.37 L1916.7 1789.78 L1927.01 1789.78 Q1932.2 1789.78 1934.68 1787.65 Q1937.2 1785.48 1937.2 1781.06 Q1937.2 1776.6 1934.68 1774.5 Q1932.2 1772.37 1927.01 1772.37 L1916.7 1772.37 M1916.7 1752.83 L1916.7 1767.15 L1926.22 1767.15 Q1930.93 1767.15 1933.22 1765.4 Q1935.54 1763.62 1935.54 1759.99 Q1935.54 1756.39 1933.22 1754.61 Q1930.93 1752.83 1926.22 1752.83 L1916.7 1752.83 M1910.27 1747.54 L1926.7 1747.54 Q1934.05 1747.54 1938.03 1750.6 Q1942.01 1753.65 1942.01 1759.29 Q1942.01 1763.65 1939.97 1766.23 Q1937.93 1768.8 1933.98 1769.44 Q1938.73 1770.46 1941.34 1773.71 Q1943.98 1776.92 1943.98 1781.76 Q1943.98 1788.12 1939.65 1791.59 Q1935.32 1795.06 1927.33 1795.06 L1910.27 1795.06 L1910.27 1747.54 Z" fill="#000000" fill-rule="nonzero" fill-opacity="1" /><path clip-path="url(#clip460)" d="M1954.13 1780.99 L1954.13 1759.42 L1959.99 1759.42 L1959.99 1780.77 Q1959.99 1785.83 1961.96 1788.38 Q1963.94 1790.89 1967.88 1790.89 Q1972.62 1790.89 1975.36 1787.87 Q1978.13 1784.85 1978.13 1779.63 L1978.13 1759.42 L1983.99 1759.42 L1983.99 1795.06 L1978.13 1795.06 L1978.13 1789.59 Q1976 1792.84 1973.17 1794.43 Q1970.36 1795.99 1966.64 1795.99 Q1960.5 1795.99 1957.31 1792.17 Q1954.13 1788.35 1954.13 1780.99 M1968.87 1758.56 L1968.87 1758.56 Z" fill="#000000" fill-rule="nonzero" fill-opacity="1" /><path clip-path="url(#clip460)" d="M2018.78 1760.47 L2018.78 1766 Q2016.29 1764.73 2013.62 1764.09 Q2010.95 1763.46 2008.08 1763.46 Q2003.72 1763.46 2001.52 1764.79 Q1999.36 1766.13 1999.36 1768.8 Q1999.36 1770.84 2000.92 1772.02 Q2002.48 1773.17 2007.19 1774.22 L2009.2 1774.66 Q2015.43 1776 2018.04 1778.45 Q2020.69 1780.87 2020.69 1785.23 Q2020.69 1790.19 2016.74 1793.09 Q2012.82 1795.99 2005.95 1795.99 Q2003.08 1795.99 1999.96 1795.41 Q1996.88 1794.87 1993.44 1793.76 L1993.44 1787.71 Q1996.69 1789.4 1999.84 1790.26 Q2002.99 1791.08 2006.08 1791.08 Q2010.21 1791.08 2012.44 1789.68 Q2014.67 1788.25 2014.67 1785.67 Q2014.67 1783.29 2013.05 1782.01 Q2011.46 1780.74 2006.01 1779.56 L2003.98 1779.09 Q1998.53 1777.94 1996.11 1775.58 Q1993.69 1773.2 1993.69 1769.06 Q1993.69 1764.03 1997.26 1761.29 Q2000.82 1758.56 2007.38 1758.56 Q2010.63 1758.56 2013.49 1759.03 Q2016.36 1759.51 2018.78 1760.47 Z" fill="#000000" fill-rule="nonzero" fill-opacity="1" /><polyline clip-path="url(#clip460)" style="stroke:#000000; stroke-linecap:round; stroke-linejoin:round; stroke-width:4; stroke-opacity:1; fill:none" points="378.202,1587.62 378.202,113.392 "/>
<polyline clip-path="url(#clip460)" style="stroke:#000000; stroke-linecap:round; stroke-linejoin:round; stroke-width:4; stroke-opacity:1; fill:none" points="378.202,1587.62 397.099,1587.62 "/>
<polyline clip-path="url(#clip460)" style="stroke:#000000; stroke-linecap:round; stroke-linejoin:round; stroke-width:4; stroke-opacity:1; fill:none" points="378.202,1292.78 397.099,1292.78 "/>
<polyline clip-path="url(#clip460)" style="stroke:#000000; stroke-linecap:round; stroke-linejoin:round; stroke-width:4; stroke-opacity:1; fill:none" points="378.202,997.93 397.099,997.93 "/>
<polyline clip-path="url(#clip460)" style="stroke:#000000; stroke-linecap:round; stroke-linejoin:round; stroke-width:4; stroke-opacity:1; fill:none" points="378.202,703.084 397.099,703.084 "/>
<polyline clip-path="url(#clip460)" style="stroke:#000000; stroke-linecap:round; stroke-linejoin:round; stroke-width:4; stroke-opacity:1; fill:none" points="378.202,408.238 397.099,408.238 "/>
<polyline clip-path="url(#clip460)" style="stroke:#000000; stroke-linecap:round; stroke-linejoin:round; stroke-width:4; stroke-opacity:1; fill:none" points="378.202,113.392 397.099,113.392 "/>
<path clip-path="url(#clip460)" d="M312.257 1573.42 Q308.646 1573.42 306.817 1576.99 Q305.012 1580.53 305.012 1587.66 Q305.012 1594.76 306.817 1598.33 Q308.646 1601.87 312.257 1601.87 Q315.891 1601.87 317.697 1598.33 Q319.526 1594.76 319.526 1587.66 Q319.526 1580.53 317.697 1576.99 Q315.891 1573.42 312.257 1573.42 M312.257 1569.72 Q318.067 1569.72 321.123 1574.32 Q324.202 1578.91 324.202 1587.66 Q324.202 1596.38 321.123 1600.99 Q318.067 1605.57 312.257 1605.57 Q306.447 1605.57 303.368 1600.99 Q300.313 1596.38 300.313 1587.66 Q300.313 1578.91 303.368 1574.32 Q306.447 1569.72 312.257 1569.72 Z" fill="#000000" fill-rule="nonzero" fill-opacity="1" /><path clip-path="url(#clip460)" d="M276.123 1306.12 L292.443 1306.12 L292.443 1310.06 L270.498 1310.06 L270.498 1306.12 Q273.16 1303.37 277.744 1298.74 Q282.35 1294.08 283.531 1292.74 Q285.776 1290.22 286.656 1288.48 Q287.558 1286.72 287.558 1285.03 Q287.558 1282.28 285.614 1280.54 Q283.693 1278.81 280.591 1278.81 Q278.392 1278.81 275.938 1279.57 Q273.507 1280.33 270.73 1281.89 L270.73 1277.16 Q273.554 1276.03 276.007 1275.45 Q278.461 1274.87 280.498 1274.87 Q285.869 1274.87 289.063 1277.56 Q292.257 1280.24 292.257 1284.73 Q292.257 1286.86 291.447 1288.78 Q290.66 1290.68 288.554 1293.27 Q287.975 1293.95 284.873 1297.16 Q281.771 1300.36 276.123 1306.12 Z" fill="#000000" fill-rule="nonzero" fill-opacity="1" /><path clip-path="url(#clip460)" d="M312.257 1278.58 Q308.646 1278.58 306.817 1282.14 Q305.012 1285.68 305.012 1292.81 Q305.012 1299.92 306.817 1303.48 Q308.646 1307.02 312.257 1307.02 Q315.891 1307.02 317.697 1303.48 Q319.526 1299.92 319.526 1292.81 Q319.526 1285.68 317.697 1282.14 Q315.891 1278.58 312.257 1278.58 M312.257 1274.87 Q318.067 1274.87 321.123 1279.48 Q324.202 1284.06 324.202 1292.81 Q324.202 1301.54 321.123 1306.14 Q318.067 1310.73 312.257 1310.73 Q306.447 1310.73 303.368 1306.14 Q300.313 1301.54 300.313 1292.81 Q300.313 1284.06 303.368 1279.48 Q306.447 1274.87 312.257 1274.87 Z" fill="#000000" fill-rule="nonzero" fill-opacity="1" /><path clip-path="url(#clip460)" d="M284.943 984.725 L273.137 1003.17 L284.943 1003.17 L284.943 984.725 M283.716 980.65 L289.595 980.65 L289.595 1003.17 L294.526 1003.17 L294.526 1007.06 L289.595 1007.06 L289.595 1015.21 L284.943 1015.21 L284.943 1007.06 L269.341 1007.06 L269.341 1002.55 L283.716 980.65 Z" fill="#000000" fill-rule="nonzero" fill-opacity="1" /><path clip-path="url(#clip460)" d="M312.257 983.729 Q308.646 983.729 306.817 987.294 Q305.012 990.836 305.012 997.965 Q305.012 1005.07 306.817 1008.64 Q308.646 1012.18 312.257 1012.18 Q315.891 1012.18 317.697 1008.64 Q319.526 1005.07 319.526 997.965 Q319.526 990.836 317.697 987.294 Q315.891 983.729 312.257 983.729 M312.257 980.025 Q318.067 980.025 321.123 984.632 Q324.202 989.215 324.202 997.965 Q324.202 1006.69 321.123 1011.3 Q318.067 1015.88 312.257 1015.88 Q306.447 1015.88 303.368 1011.3 Q300.313 1006.69 300.313 997.965 Q300.313 989.215 303.368 984.632 Q306.447 980.025 312.257 980.025 Z" fill="#000000" fill-rule="nonzero" fill-opacity="1" /><path clip-path="url(#clip460)" d="M282.674 701.221 Q279.526 701.221 277.674 703.374 Q275.845 705.526 275.845 709.276 Q275.845 713.003 277.674 715.179 Q279.526 717.332 282.674 717.332 Q285.822 717.332 287.651 715.179 Q289.503 713.003 289.503 709.276 Q289.503 705.526 287.651 703.374 Q285.822 701.221 282.674 701.221 M291.956 686.568 L291.956 690.827 Q290.197 689.994 288.392 689.554 Q286.609 689.115 284.85 689.115 Q280.22 689.115 277.767 692.24 Q275.336 695.364 274.989 701.684 Q276.355 699.67 278.415 698.605 Q280.475 697.517 282.952 697.517 Q288.16 697.517 291.169 700.689 Q294.202 703.837 294.202 709.276 Q294.202 714.601 291.054 717.818 Q287.906 721.036 282.674 721.036 Q276.679 721.036 273.507 716.452 Q270.336 711.846 270.336 703.119 Q270.336 694.925 274.225 690.064 Q278.114 685.179 284.665 685.179 Q286.424 685.179 288.206 685.527 Q290.012 685.874 291.956 686.568 Z" fill="#000000" fill-rule="nonzero" fill-opacity="1" /><path clip-path="url(#clip460)" d="M312.257 688.883 Q308.646 688.883 306.817 692.448 Q305.012 695.989 305.012 703.119 Q305.012 710.226 306.817 713.79 Q308.646 717.332 312.257 717.332 Q315.891 717.332 317.697 713.79 Q319.526 710.226 319.526 703.119 Q319.526 695.989 317.697 692.448 Q315.891 688.883 312.257 688.883 M312.257 685.179 Q318.067 685.179 321.123 689.786 Q324.202 694.369 324.202 703.119 Q324.202 711.846 321.123 716.452 Q318.067 721.036 312.257 721.036 Q306.447 721.036 303.368 716.452 Q300.313 711.846 300.313 703.119 Q300.313 694.369 303.368 689.786 Q306.447 685.179 312.257 685.179 Z" fill="#000000" fill-rule="nonzero" fill-opacity="1" /><path clip-path="url(#clip460)" d="M282.095 409.106 Q278.762 409.106 276.841 410.889 Q274.943 412.671 274.943 415.796 Q274.943 418.921 276.841 420.703 Q278.762 422.486 282.095 422.486 Q285.429 422.486 287.35 420.703 Q289.271 418.898 289.271 415.796 Q289.271 412.671 287.35 410.889 Q285.452 409.106 282.095 409.106 M277.419 407.116 Q274.41 406.375 272.72 404.315 Q271.054 402.254 271.054 399.292 Q271.054 395.148 273.994 392.741 Q276.957 390.333 282.095 390.333 Q287.257 390.333 290.197 392.741 Q293.137 395.148 293.137 399.292 Q293.137 402.254 291.447 404.315 Q289.781 406.375 286.794 407.116 Q290.174 407.903 292.049 410.194 Q293.947 412.486 293.947 415.796 Q293.947 420.819 290.868 423.504 Q287.813 426.19 282.095 426.19 Q276.378 426.19 273.299 423.504 Q270.244 420.819 270.244 415.796 Q270.244 412.486 272.142 410.194 Q274.04 407.903 277.419 407.116 M275.707 399.731 Q275.707 402.417 277.373 403.921 Q279.063 405.426 282.095 405.426 Q285.105 405.426 286.794 403.921 Q288.507 402.417 288.507 399.731 Q288.507 397.046 286.794 395.542 Q285.105 394.037 282.095 394.037 Q279.063 394.037 277.373 395.542 Q275.707 397.046 275.707 399.731 Z" fill="#000000" fill-rule="nonzero" fill-opacity="1" /><path clip-path="url(#clip460)" d="M312.257 394.037 Q308.646 394.037 306.817 397.602 Q305.012 401.143 305.012 408.273 Q305.012 415.379 306.817 418.944 Q308.646 422.486 312.257 422.486 Q315.891 422.486 317.697 418.944 Q319.526 415.379 319.526 408.273 Q319.526 401.143 317.697 397.602 Q315.891 394.037 312.257 394.037 M312.257 390.333 Q318.067 390.333 321.123 394.94 Q324.202 399.523 324.202 408.273 Q324.202 417 321.123 421.606 Q318.067 426.19 312.257 426.19 Q306.447 426.19 303.368 421.606 Q300.313 417 300.313 408.273 Q300.313 399.523 303.368 394.94 Q306.447 390.333 312.257 390.333 Z" fill="#000000" fill-rule="nonzero" fill-opacity="1" /><path clip-path="url(#clip460)" d="M242.744 126.737 L250.383 126.737 L250.383 100.371 L242.072 102.038 L242.072 97.7788 L250.336 96.1121 L255.012 96.1121 L255.012 126.737 L262.651 126.737 L262.651 130.672 L242.744 130.672 L242.744 126.737 Z" fill="#000000" fill-rule="nonzero" fill-opacity="1" /><path clip-path="url(#clip460)" d="M282.095 99.1908 Q278.484 99.1908 276.656 102.756 Q274.85 106.297 274.85 113.427 Q274.85 120.533 276.656 124.098 Q278.484 127.64 282.095 127.64 Q285.73 127.64 287.535 124.098 Q289.364 120.533 289.364 113.427 Q289.364 106.297 287.535 102.756 Q285.73 99.1908 282.095 99.1908 M282.095 95.4871 Q287.906 95.4871 290.961 100.094 Q294.04 104.677 294.04 113.427 Q294.04 122.154 290.961 126.76 Q287.906 131.343 282.095 131.343 Q276.285 131.343 273.207 126.76 Q270.151 122.154 270.151 113.427 Q270.151 104.677 273.207 100.094 Q276.285 95.4871 282.095 95.4871 Z" fill="#000000" fill-rule="nonzero" fill-opacity="1" /><path clip-path="url(#clip460)" d="M312.257 99.1908 Q308.646 99.1908 306.817 102.756 Q305.012 106.297 305.012 113.427 Q305.012 120.533 306.817 124.098 Q308.646 127.64 312.257 127.64 Q315.891 127.64 317.697 124.098 Q319.526 120.533 319.526 113.427 Q319.526 106.297 317.697 102.756 Q315.891 99.1908 312.257 99.1908 M312.257 95.4871 Q318.067 95.4871 321.123 100.094 Q324.202 104.677 324.202 113.427 Q324.202 122.154 321.123 126.76 Q318.067 131.343 312.257 131.343 Q306.447 131.343 303.368 126.76 Q300.313 122.154 300.313 113.427 Q300.313 104.677 303.368 100.094 Q306.447 95.4871 312.257 95.4871 Z" fill="#000000" fill-rule="nonzero" fill-opacity="1" /><path clip-path="url(#clip460)" d="M126.296 1081.9 L126.296 1075.47 L168.406 1075.47 L168.406 1052.33 L173.816 1052.33 L173.816 1081.9 L126.296 1081.9 Z" fill="#000000" fill-rule="nonzero" fill-opacity="1" /><path clip-path="url(#clip460)" d="M142.274 1033.17 Q142.274 1037.88 145.966 1040.62 Q149.627 1043.36 156.024 1043.36 Q162.422 1043.36 166.114 1040.65 Q169.774 1037.91 169.774 1033.17 Q169.774 1028.49 166.082 1025.76 Q162.39 1023.02 156.024 1023.02 Q149.69 1023.02 145.998 1025.76 Q142.274 1028.49 142.274 1033.17 M137.309 1033.17 Q137.309 1025.53 142.274 1021.17 Q147.24 1016.81 156.024 1016.81 Q164.777 1016.81 169.774 1021.17 Q174.739 1025.53 174.739 1033.17 Q174.739 1040.84 169.774 1045.2 Q164.777 1049.53 156.024 1049.53 Q147.24 1049.53 142.274 1045.2 Q137.309 1040.84 137.309 1033.17 Z" fill="#000000" fill-rule="nonzero" fill-opacity="1" /><path clip-path="url(#clip460)" d="M155.897 990.903 Q155.897 998.001 157.52 1000.74 Q159.143 1003.48 163.058 1003.48 Q166.178 1003.48 168.024 1001.44 Q169.838 999.369 169.838 995.837 Q169.838 990.967 166.4 988.039 Q162.931 985.078 157.202 985.078 L155.897 985.078 L155.897 990.903 M153.478 979.222 L173.816 979.222 L173.816 985.078 L168.406 985.078 Q171.652 987.084 173.212 990.076 Q174.739 993.067 174.739 997.396 Q174.739 1002.87 171.684 1006.12 Q168.597 1009.33 163.44 1009.33 Q157.425 1009.33 154.369 1005.32 Q151.314 1001.28 151.314 993.29 L151.314 985.078 L150.741 985.078 Q146.699 985.078 144.502 987.752 Q142.274 990.394 142.274 995.2 Q142.274 998.255 143.006 1001.15 Q143.738 1004.05 145.203 1006.72 L139.792 1006.72 Q138.55 1003.51 137.946 1000.48 Q137.309 997.46 137.309 994.595 Q137.309 986.861 141.32 983.041 Q145.33 979.222 153.478 979.222 Z" fill="#000000" fill-rule="nonzero" fill-opacity="1" /><path clip-path="url(#clip460)" d="M143.579 943.701 L124.291 943.701 L124.291 937.845 L173.816 937.845 L173.816 943.701 L168.469 943.701 Q171.652 945.547 173.212 948.38 Q174.739 951.181 174.739 955.128 Q174.739 961.589 169.583 965.663 Q164.427 969.705 156.024 969.705 Q147.622 969.705 142.465 965.663 Q137.309 961.589 137.309 955.128 Q137.309 951.181 138.869 948.38 Q140.396 945.547 143.579 943.701 M156.024 963.658 Q162.485 963.658 166.178 961.016 Q169.838 958.342 169.838 953.696 Q169.838 949.049 166.178 946.375 Q162.485 943.701 156.024 943.701 Q149.563 943.701 145.903 946.375 Q142.211 949.049 142.211 953.696 Q142.211 958.342 145.903 961.016 Q149.563 963.658 156.024 963.658 Z" fill="#000000" fill-rule="nonzero" fill-opacity="1" /><path clip-path="url(#clip460)" d="M127.856 876.32 L134.126 876.32 Q132.376 879.981 131.516 883.227 Q130.657 886.474 130.657 889.497 Q130.657 894.749 132.694 897.614 Q134.731 900.446 138.487 900.446 Q141.638 900.446 143.261 898.569 Q144.852 896.659 145.839 891.375 L146.635 887.492 Q148.004 880.299 151.473 876.893 Q154.91 873.456 160.703 873.456 Q167.61 873.456 171.175 878.103 Q174.739 882.718 174.739 891.662 Q174.739 895.036 173.976 898.855 Q173.212 902.643 171.716 906.717 L165.095 906.717 Q167.292 902.802 168.406 899.046 Q169.52 895.29 169.52 891.662 Q169.52 886.155 167.355 883.163 Q165.191 880.172 161.181 880.172 Q157.679 880.172 155.706 882.336 Q153.733 884.468 152.746 889.37 L151.982 893.285 Q150.55 900.478 147.494 903.693 Q144.439 906.908 138.996 906.908 Q132.694 906.908 129.066 902.483 Q125.437 898.027 125.437 890.229 Q125.437 886.887 126.042 883.418 Q126.647 879.949 127.856 876.32 Z" fill="#000000" fill-rule="nonzero" fill-opacity="1" /><path clip-path="url(#clip460)" d="M152.3 834.052 L173.816 834.052 L173.816 839.909 L152.491 839.909 Q147.431 839.909 144.916 841.882 Q142.402 843.855 142.402 847.802 Q142.402 852.544 145.425 855.282 Q148.449 858.019 153.669 858.019 L173.816 858.019 L173.816 863.907 L124.291 863.907 L124.291 858.019 L143.707 858.019 Q140.492 855.918 138.901 853.086 Q137.309 850.221 137.309 846.497 Q137.309 840.354 141.129 837.203 Q144.916 834.052 152.3 834.052 Z" fill="#000000" fill-rule="nonzero" fill-opacity="1" /><path clip-path="url(#clip460)" d="M154.528 791.879 L157.393 791.879 L157.393 818.806 Q163.44 818.424 166.623 815.178 Q169.774 811.899 169.774 806.075 Q169.774 802.701 168.947 799.55 Q168.119 796.367 166.464 793.248 L172.002 793.248 Q173.339 796.399 174.039 799.709 Q174.739 803.019 174.739 806.425 Q174.739 814.955 169.774 819.952 Q164.809 824.917 156.343 824.917 Q147.59 824.917 142.465 820.207 Q137.309 815.464 137.309 807.443 Q137.309 800.25 141.956 796.081 Q146.571 791.879 154.528 791.879 M152.81 797.736 Q148.004 797.799 145.139 800.441 Q142.274 803.051 142.274 807.38 Q142.274 812.281 145.043 815.241 Q147.813 818.17 152.841 818.615 L152.81 797.736 Z" fill="#000000" fill-rule="nonzero" fill-opacity="1" /><path clip-path="url(#clip460)" d="M143.579 758.809 L124.291 758.809 L124.291 752.953 L173.816 752.953 L173.816 758.809 L168.469 758.809 Q171.652 760.655 173.212 763.488 Q174.739 766.289 174.739 770.236 Q174.739 776.697 169.583 780.771 Q164.427 784.813 156.024 784.813 Q147.622 784.813 142.465 780.771 Q137.309 776.697 137.309 770.236 Q137.309 766.289 138.869 763.488 Q140.396 760.655 143.579 758.809 M156.024 778.766 Q162.485 778.766 166.178 776.124 Q169.838 773.451 169.838 768.804 Q169.838 764.157 166.178 761.483 Q162.485 758.809 156.024 758.809 Q149.563 758.809 145.903 761.483 Q142.211 764.157 142.211 768.804 Q142.211 773.451 145.903 776.124 Q149.563 778.766 156.024 778.766 Z" fill="#000000" fill-rule="nonzero" fill-opacity="1" /><path clip-path="url(#clip460)" d="M124.355 706.101 Q131.675 710.366 138.837 712.435 Q145.998 714.504 153.351 714.504 Q160.703 714.504 167.928 712.435 Q175.121 710.335 182.41 706.101 L182.41 711.194 Q174.93 715.968 167.705 718.355 Q160.48 720.711 153.351 720.711 Q146.253 720.711 139.06 718.355 Q131.866 716 124.355 711.194 L124.355 706.101 Z" fill="#000000" fill-rule="nonzero" fill-opacity="1" /><path clip-path="url(#clip460)" d="M152.905 653.489 Q152.905 656.258 155.26 657.849 Q157.616 659.409 161.817 659.409 Q165.955 659.409 168.342 657.849 Q170.697 656.258 170.697 653.489 Q170.697 650.783 168.342 649.224 Q165.955 647.632 161.817 647.632 Q157.648 647.632 155.292 649.224 Q152.905 650.783 152.905 653.489 M148.863 653.489 Q148.863 648.46 152.364 645.5 Q155.865 642.54 161.817 642.54 Q167.769 642.54 171.27 645.532 Q174.739 648.492 174.739 653.489 Q174.739 658.581 171.27 661.541 Q167.769 664.501 161.817 664.501 Q155.833 664.501 152.364 661.541 Q148.863 658.55 148.863 653.489 M129.479 686.336 Q129.479 689.073 131.866 690.665 Q134.222 692.224 138.359 692.224 Q142.561 692.224 144.916 690.665 Q147.271 689.105 147.271 686.336 Q147.271 683.567 144.916 682.007 Q142.561 680.416 138.359 680.416 Q134.254 680.416 131.866 682.007 Q129.479 683.599 129.479 686.336 M125.437 657.595 L125.437 652.502 L174.739 682.23 L174.739 687.323 L125.437 657.595 M125.437 686.336 Q125.437 681.307 128.938 678.315 Q132.408 675.323 138.359 675.323 Q144.375 675.323 147.844 678.315 Q151.314 681.275 151.314 686.336 Q151.314 691.397 147.844 694.357 Q144.343 697.285 138.359 697.285 Q132.439 697.285 128.938 694.325 Q125.437 691.365 125.437 686.336 Z" fill="#000000" fill-rule="nonzero" fill-opacity="1" /><path clip-path="url(#clip460)" d="M124.355 633.723 L124.355 628.631 Q131.866 623.856 139.06 621.501 Q146.253 619.114 153.351 619.114 Q160.48 619.114 167.705 621.501 Q174.93 623.856 182.41 628.631 L182.41 633.723 Q175.121 629.49 167.928 627.421 Q160.703 625.321 153.351 625.321 Q145.998 625.321 138.837 627.421 Q131.675 629.49 124.355 633.723 Z" fill="#000000" fill-rule="nonzero" fill-opacity="1" /><path clip-path="url(#clip460)" d="M1124.37 12.096 L1132.55 12.096 L1132.55 65.6895 L1162 65.6895 L1162 72.576 L1124.37 72.576 L1124.37 12.096 Z" fill="#000000" fill-rule="nonzero" fill-opacity="1" /><path clip-path="url(#clip460)" d="M1186.39 32.4315 Q1180.39 32.4315 1176.91 37.1306 Q1173.43 41.7891 1173.43 49.9314 Q1173.43 58.0738 1176.87 62.7728 Q1180.35 67.4314 1186.39 67.4314 Q1192.34 67.4314 1195.83 62.7323 Q1199.31 58.0333 1199.31 49.9314 Q1199.31 41.8701 1195.83 37.1711 Q1192.34 32.4315 1186.39 32.4315 M1186.39 26.1121 Q1196.11 26.1121 1201.66 32.4315 Q1207.21 38.7509 1207.21 49.9314 Q1207.21 61.0714 1201.66 67.4314 Q1196.11 73.7508 1186.39 73.7508 Q1176.63 73.7508 1171.08 67.4314 Q1165.57 61.0714 1165.57 49.9314 Q1165.57 38.7509 1171.08 32.4315 Q1176.63 26.1121 1186.39 26.1121 Z" fill="#000000" fill-rule="nonzero" fill-opacity="1" /><path clip-path="url(#clip460)" d="M1240.18 49.7694 Q1231.15 49.7694 1227.67 51.8354 Q1224.18 53.9013 1224.18 58.8839 Q1224.18 62.8538 1226.78 65.2034 Q1229.41 67.5124 1233.91 67.5124 Q1240.1 67.5124 1243.83 63.1374 Q1247.6 58.7219 1247.6 51.4303 L1247.6 49.7694 L1240.18 49.7694 M1255.05 46.6907 L1255.05 72.576 L1247.6 72.576 L1247.6 65.6895 Q1245.05 69.8214 1241.24 71.8063 Q1237.43 73.7508 1231.92 73.7508 Q1224.95 73.7508 1220.82 69.8619 Q1216.73 65.9325 1216.73 59.3701 Q1216.73 51.7138 1221.83 47.825 Q1226.98 43.9361 1237.15 43.9361 L1247.6 43.9361 L1247.6 43.2069 Q1247.6 38.0623 1244.2 35.2672 Q1240.83 32.4315 1234.72 32.4315 Q1230.83 32.4315 1227.14 33.3632 Q1223.45 34.295 1220.05 36.1584 L1220.05 29.2718 Q1224.14 27.692 1227.99 26.9223 Q1231.84 26.1121 1235.49 26.1121 Q1245.33 26.1121 1250.19 31.2163 Q1255.05 36.3204 1255.05 46.6907 Z" fill="#000000" fill-rule="nonzero" fill-opacity="1" /><path clip-path="url(#clip460)" d="M1300.26 34.0924 L1300.26 9.54393 L1307.71 9.54393 L1307.71 72.576 L1300.26 72.576 L1300.26 65.7705 Q1297.91 69.8214 1294.3 71.8063 Q1290.74 73.7508 1285.72 73.7508 Q1277.49 73.7508 1272.31 67.1883 Q1267.16 60.6258 1267.16 49.9314 Q1267.16 39.2371 1272.31 32.6746 Q1277.49 26.1121 1285.72 26.1121 Q1290.74 26.1121 1294.3 28.0971 Q1297.91 30.0415 1300.26 34.0924 M1274.86 49.9314 Q1274.86 58.1548 1278.22 62.8538 Q1281.63 67.5124 1287.54 67.5124 Q1293.45 67.5124 1296.86 62.8538 Q1300.26 58.1548 1300.26 49.9314 Q1300.26 41.7081 1296.86 37.0496 Q1293.45 32.3505 1287.54 32.3505 Q1281.63 32.3505 1278.22 37.0496 Q1274.86 41.7081 1274.86 49.9314 Z" fill="#000000" fill-rule="nonzero" fill-opacity="1" /><path clip-path="url(#clip460)" d="M1386.02 14.0809 L1386.02 22.0612 Q1381.36 19.8332 1377.23 18.7395 Q1373.09 17.6457 1369.25 17.6457 Q1362.56 17.6457 1358.92 20.2383 Q1355.31 22.8309 1355.31 27.611 Q1355.31 31.6214 1357.7 33.6873 Q1360.13 35.7128 1366.86 36.9686 L1371.8 37.9813 Q1380.95 39.7232 1385.29 44.1387 Q1389.66 48.5136 1389.66 55.8863 Q1389.66 64.6767 1383.75 69.2137 Q1377.87 73.7508 1366.49 73.7508 Q1362.2 73.7508 1357.34 72.7785 Q1352.52 71.8063 1347.33 69.9024 L1347.33 61.4765 Q1352.31 64.2716 1357.09 65.6895 Q1361.87 67.1073 1366.49 67.1073 Q1373.5 67.1073 1377.31 64.3527 Q1381.12 61.598 1381.12 56.4939 Q1381.12 52.0379 1378.36 49.5264 Q1375.65 47.0148 1369.41 45.759 L1364.43 44.7868 Q1355.27 42.9639 1351.18 39.075 Q1347.09 35.1862 1347.09 28.2591 Q1347.09 20.2383 1352.72 15.6203 Q1358.39 11.0023 1368.31 11.0023 Q1372.57 11.0023 1376.98 11.7719 Q1381.4 12.5416 1386.02 14.0809 Z" fill="#000000" fill-rule="nonzero" fill-opacity="1" /><path clip-path="url(#clip460)" d="M1439.81 45.1919 L1439.81 72.576 L1432.36 72.576 L1432.36 45.4349 Q1432.36 38.994 1429.85 35.7938 Q1427.34 32.5936 1422.31 32.5936 Q1416.28 32.5936 1412.79 36.4419 Q1409.31 40.2903 1409.31 46.9338 L1409.31 72.576 L1401.82 72.576 L1401.82 9.54393 L1409.31 9.54393 L1409.31 34.2544 Q1411.98 30.163 1415.59 28.1376 Q1419.23 26.1121 1423.97 26.1121 Q1431.79 26.1121 1435.8 30.9732 Q1439.81 35.7938 1439.81 45.1919 Z" fill="#000000" fill-rule="nonzero" fill-opacity="1" /><path clip-path="url(#clip460)" d="M1493.49 48.0275 L1493.49 51.6733 L1459.22 51.6733 Q1459.7 59.3701 1463.84 63.421 Q1468.01 67.4314 1475.42 67.4314 Q1479.71 67.4314 1483.72 66.3781 Q1487.78 65.3249 1491.75 63.2184 L1491.75 70.267 Q1487.74 71.9684 1483.52 72.8596 Q1479.31 73.7508 1474.98 73.7508 Q1464.12 73.7508 1457.76 67.4314 Q1451.44 61.1119 1451.44 50.3365 Q1451.44 39.1965 1457.43 32.6746 Q1463.47 26.1121 1473.68 26.1121 Q1482.83 26.1121 1488.14 32.0264 Q1493.49 37.9003 1493.49 48.0275 M1486.03 45.84 Q1485.95 39.7232 1482.59 36.0774 Q1479.27 32.4315 1473.76 32.4315 Q1467.52 32.4315 1463.75 35.9558 Q1460.03 39.4801 1459.46 45.8805 L1486.03 45.84 Z" fill="#000000" fill-rule="nonzero" fill-opacity="1" /><path clip-path="url(#clip460)" d="M1535.58 34.0924 L1535.58 9.54393 L1543.03 9.54393 L1543.03 72.576 L1535.58 72.576 L1535.58 65.7705 Q1533.23 69.8214 1529.62 71.8063 Q1526.06 73.7508 1521.03 73.7508 Q1512.81 73.7508 1507.63 67.1883 Q1502.48 60.6258 1502.48 49.9314 Q1502.48 39.2371 1507.63 32.6746 Q1512.81 26.1121 1521.03 26.1121 Q1526.06 26.1121 1529.62 28.0971 Q1533.23 30.0415 1535.58 34.0924 M1510.18 49.9314 Q1510.18 58.1548 1513.54 62.8538 Q1516.94 67.5124 1522.86 67.5124 Q1528.77 67.5124 1532.17 62.8538 Q1535.58 58.1548 1535.58 49.9314 Q1535.58 41.7081 1532.17 37.0496 Q1528.77 32.3505 1522.86 32.3505 Q1516.94 32.3505 1513.54 37.0496 Q1510.18 41.7081 1510.18 49.9314 Z" fill="#000000" fill-rule="nonzero" fill-opacity="1" /><path clip-path="url(#clip460)" d="M1591.97 65.7705 L1591.97 89.8329 L1584.47 89.8329 L1584.47 27.2059 L1591.97 27.2059 L1591.97 34.0924 Q1594.31 30.0415 1597.88 28.0971 Q1601.48 26.1121 1606.47 26.1121 Q1614.73 26.1121 1619.88 32.6746 Q1625.06 39.2371 1625.06 49.9314 Q1625.06 60.6258 1619.88 67.1883 Q1614.73 73.7508 1606.47 73.7508 Q1601.48 73.7508 1597.88 71.8063 Q1594.31 69.8214 1591.97 65.7705 M1617.32 49.9314 Q1617.32 41.7081 1613.92 37.0496 Q1610.56 32.3505 1604.64 32.3505 Q1598.73 32.3505 1595.33 37.0496 Q1591.97 41.7081 1591.97 49.9314 Q1591.97 58.1548 1595.33 62.8538 Q1598.73 67.5124 1604.64 67.5124 Q1610.56 67.5124 1613.92 62.8538 Q1617.32 58.1548 1617.32 49.9314 Z" fill="#000000" fill-rule="nonzero" fill-opacity="1" /><path clip-path="url(#clip460)" d="M1676.22 48.0275 L1676.22 51.6733 L1641.95 51.6733 Q1642.44 59.3701 1646.57 63.421 Q1650.74 67.4314 1658.16 67.4314 Q1662.45 67.4314 1666.46 66.3781 Q1670.51 65.3249 1674.48 63.2184 L1674.48 70.267 Q1670.47 71.9684 1666.26 72.8596 Q1662.05 73.7508 1657.71 73.7508 Q1646.85 73.7508 1640.49 67.4314 Q1634.18 61.1119 1634.18 50.3365 Q1634.18 39.1965 1640.17 32.6746 Q1646.21 26.1121 1656.42 26.1121 Q1665.57 26.1121 1670.88 32.0264 Q1676.22 37.9003 1676.22 48.0275 M1668.77 45.84 Q1668.69 39.7232 1665.33 36.0774 Q1662.01 32.4315 1656.5 32.4315 Q1650.26 32.4315 1646.49 35.9558 Q1642.76 39.4801 1642.2 45.8805 L1668.77 45.84 Z" fill="#000000" fill-rule="nonzero" fill-opacity="1" /><path clip-path="url(#clip460)" d="M1714.75 34.1734 Q1713.49 33.4443 1711.99 33.1202 Q1710.54 32.7556 1708.75 32.7556 Q1702.43 32.7556 1699.03 36.8875 Q1695.67 40.9789 1695.67 48.6757 L1695.67 72.576 L1688.17 72.576 L1688.17 27.2059 L1695.67 27.2059 L1695.67 34.2544 Q1698.02 30.1225 1701.79 28.1376 Q1705.55 26.1121 1710.94 26.1121 Q1711.71 26.1121 1712.64 26.2337 Q1713.57 26.3147 1714.71 26.5172 L1714.75 34.1734 Z" fill="#000000" fill-rule="nonzero" fill-opacity="1" /><path clip-path="url(#clip460)" d="M1757.44 43.6931 L1757.44 65.8515 L1770.57 65.8515 Q1777.17 65.8515 1780.33 63.1374 Q1783.53 60.3828 1783.53 54.752 Q1783.53 49.0808 1780.33 46.4072 Q1777.17 43.6931 1770.57 43.6931 L1757.44 43.6931 M1757.44 18.8205 L1757.44 37.0496 L1769.56 37.0496 Q1775.55 37.0496 1778.47 34.8216 Q1781.43 32.5531 1781.43 27.935 Q1781.43 23.3575 1778.47 21.089 Q1775.55 18.8205 1769.56 18.8205 L1757.44 18.8205 M1749.26 12.096 L1770.16 12.096 Q1779.52 12.096 1784.59 15.9849 Q1789.65 19.8737 1789.65 27.0438 Q1789.65 32.5936 1787.06 35.8748 Q1784.46 39.156 1779.44 39.9662 Q1785.48 41.2625 1788.8 45.3944 Q1792.16 49.4858 1792.16 55.6432 Q1792.16 63.745 1786.65 68.1605 Q1781.14 72.576 1770.97 72.576 L1749.26 72.576 L1749.26 12.096 Z" fill="#000000" fill-rule="nonzero" fill-opacity="1" /><path clip-path="url(#clip460)" d="M1805.08 54.671 L1805.08 27.2059 L1812.54 27.2059 L1812.54 54.3874 Q1812.54 60.8284 1815.05 64.0691 Q1817.56 67.2693 1822.58 67.2693 Q1828.62 67.2693 1832.1 63.421 Q1835.63 59.5726 1835.63 52.9291 L1835.63 27.2059 L1843.08 27.2059 L1843.08 72.576 L1835.63 72.576 L1835.63 65.6084 Q1832.91 69.7404 1829.31 71.7658 Q1825.74 73.7508 1821 73.7508 Q1813.19 73.7508 1809.13 68.8897 Q1805.08 64.0286 1805.08 54.671 M1823.84 26.1121 L1823.84 26.1121 Z" fill="#000000" fill-rule="nonzero" fill-opacity="1" /><path clip-path="url(#clip460)" d="M1887.36 28.5427 L1887.36 35.5912 Q1884.2 33.9709 1880.79 33.1607 Q1877.39 32.3505 1873.75 32.3505 Q1868.2 32.3505 1865.4 34.0519 Q1862.65 35.7533 1862.65 39.156 Q1862.65 41.7486 1864.63 43.2475 Q1866.62 44.7058 1872.61 46.0426 L1875.16 46.6097 Q1883.1 48.3111 1886.43 51.4303 Q1889.79 54.509 1889.79 60.0587 Q1889.79 66.3781 1884.76 70.0644 Q1879.78 73.7508 1871.03 73.7508 Q1867.39 73.7508 1863.42 73.0216 Q1859.49 72.3329 1855.11 70.9151 L1855.11 63.2184 Q1859.24 65.3654 1863.25 66.4591 Q1867.26 67.5124 1871.19 67.5124 Q1876.46 67.5124 1879.3 65.73 Q1882.13 63.9071 1882.13 60.6258 Q1882.13 57.5877 1880.07 55.9673 Q1878.04 54.3469 1871.11 52.8481 L1868.52 52.2405 Q1861.59 50.7821 1858.51 47.7845 Q1855.44 44.7463 1855.44 39.4801 Q1855.44 33.0797 1859.97 29.5959 Q1864.51 26.1121 1872.85 26.1121 Q1876.99 26.1121 1880.63 26.7198 Q1884.28 27.3274 1887.36 28.5427 Z" fill="#000000" fill-rule="nonzero" fill-opacity="1" /><path clip-path="url(#clip460)" d="M1924.26 46.9338 L1999.12 46.9338 L1999.12 52.7671 L1924.26 52.7671 L1924.26 46.9338 Z" fill="#000000" fill-rule="nonzero" fill-opacity="1" /><path clip-path="url(#clip460)" d="M2045.87 43.6931 L2045.87 65.8515 L2058.99 65.8515 Q2065.6 65.8515 2068.76 63.1374 Q2071.96 60.3828 2071.96 54.752 Q2071.96 49.0808 2068.76 46.4072 Q2065.6 43.6931 2058.99 43.6931 L2045.87 43.6931 M2045.87 18.8205 L2045.87 37.0496 L2057.98 37.0496 Q2063.98 37.0496 2066.89 34.8216 Q2069.85 32.5531 2069.85 27.935 Q2069.85 23.3575 2066.89 21.089 Q2063.98 18.8205 2057.98 18.8205 L2045.87 18.8205 M2037.69 12.096 L2058.59 12.096 Q2067.95 12.096 2073.01 15.9849 Q2078.07 19.8737 2078.07 27.0438 Q2078.07 32.5936 2075.48 35.8748 Q2072.89 39.156 2067.87 39.9662 Q2073.9 41.2625 2077.22 45.3944 Q2080.59 49.4858 2080.59 55.6432 Q2080.59 63.745 2075.08 68.1605 Q2069.57 72.576 2059.4 72.576 L2037.69 72.576 L2037.69 12.096 Z" fill="#000000" fill-rule="nonzero" fill-opacity="1" /><path clip-path="url(#clip460)" d="M2133.08 48.0275 L2133.08 51.6733 L2098.81 51.6733 Q2099.3 59.3701 2103.43 63.421 Q2107.6 67.4314 2115.02 67.4314 Q2119.31 67.4314 2123.32 66.3781 Q2127.37 65.3249 2131.34 63.2184 L2131.34 70.267 Q2127.33 71.9684 2123.12 72.8596 Q2118.91 73.7508 2114.57 73.7508 Q2103.72 73.7508 2097.36 67.4314 Q2091.04 61.1119 2091.04 50.3365 Q2091.04 39.1965 2097.03 32.6746 Q2103.07 26.1121 2113.28 26.1121 Q2122.43 26.1121 2127.74 32.0264 Q2133.08 37.9003 2133.08 48.0275 M2125.63 45.84 Q2125.55 39.7232 2122.19 36.0774 Q2118.87 32.4315 2113.36 32.4315 Q2107.12 32.4315 2103.35 35.9558 Q2099.62 39.4801 2099.06 45.8805 L2125.63 45.84 Z" fill="#000000" fill-rule="nonzero" fill-opacity="1" /><path clip-path="url(#clip460)" d="M2174.24 28.5427 L2174.24 35.5912 Q2171.08 33.9709 2167.68 33.1607 Q2164.28 32.3505 2160.63 32.3505 Q2155.08 32.3505 2152.29 34.0519 Q2149.53 35.7533 2149.53 39.156 Q2149.53 41.7486 2151.52 43.2475 Q2153.5 44.7058 2159.5 46.0426 L2162.05 46.6097 Q2169.99 48.3111 2173.31 51.4303 Q2176.67 54.509 2176.67 60.0587 Q2176.67 66.3781 2171.65 70.0644 Q2166.67 73.7508 2157.92 73.7508 Q2154.27 73.7508 2150.3 73.0216 Q2146.37 72.3329 2142 70.9151 L2142 63.2184 Q2146.13 65.3654 2150.14 66.4591 Q2154.15 67.5124 2158.08 67.5124 Q2163.35 67.5124 2166.18 65.73 Q2169.02 63.9071 2169.02 60.6258 Q2169.02 57.5877 2166.95 55.9673 Q2164.93 54.3469 2158 52.8481 L2155.41 52.2405 Q2148.48 50.7821 2145.4 47.7845 Q2142.32 44.7463 2142.32 39.4801 Q2142.32 33.0797 2146.86 29.5959 Q2151.4 26.1121 2159.74 26.1121 Q2163.87 26.1121 2167.52 26.7198 Q2171.16 27.3274 2174.24 28.5427 Z" fill="#000000" fill-rule="nonzero" fill-opacity="1" /><path clip-path="url(#clip460)" d="M2195.91 14.324 L2195.91 27.2059 L2211.27 27.2059 L2211.27 32.9987 L2195.91 32.9987 L2195.91 57.6282 Q2195.91 63.1779 2197.41 64.7578 Q2198.95 66.3376 2203.61 66.3376 L2211.27 66.3376 L2211.27 72.576 L2203.61 72.576 Q2194.98 72.576 2191.7 69.3758 Q2188.42 66.1351 2188.42 57.6282 L2188.42 32.9987 L2182.95 32.9987 L2182.95 27.2059 L2188.42 27.2059 L2188.42 14.324 L2195.91 14.324 Z" fill="#000000" fill-rule="nonzero" fill-opacity="1" /><path clip-path="url(#clip460)" d="M2247.77 12.096 L2255.95 12.096 L2255.95 68.3631 Q2255.95 79.3005 2251.78 84.2426 Q2247.64 89.1847 2238.45 89.1847 L2235.33 89.1847 L2235.33 82.2982 L2237.88 82.2982 Q2243.31 82.2982 2245.54 79.26 Q2247.77 76.2218 2247.77 68.3631 L2247.77 12.096 Z" fill="#000000" fill-rule="nonzero" fill-opacity="1" /><path clip-path="url(#clip460)" d="M2290.99 20.1573 L2279.89 50.2555 L2302.13 50.2555 L2290.99 20.1573 M2286.37 12.096 L2295.65 12.096 L2318.7 72.576 L2310.19 72.576 L2304.68 57.061 L2277.42 57.061 L2271.91 72.576 L2263.28 72.576 L2286.37 12.096 Z" fill="#000000" fill-rule="nonzero" fill-opacity="1" /><path clip-path="url(#clip460)" d="M2327.53 12.096 L2335.71 12.096 L2335.71 72.576 L2327.53 72.576 L2327.53 12.096 Z" fill="#000000" fill-rule="nonzero" fill-opacity="1" /><path clip-path="url(#clip460)" d="M2352 12.096 L2363.01 12.096 L2389.83 62.6918 L2389.83 12.096 L2397.77 12.096 L2397.77 72.576 L2386.75 72.576 L2359.94 21.9802 L2359.94 72.576 L2352 72.576 L2352 12.096 Z" fill="#000000" fill-rule="nonzero" fill-opacity="1" /><path clip-path="url(#clip460)" d="M2458.01 9.62495 Q2452.58 18.942 2449.95 28.0566 Q2447.31 37.1711 2447.31 46.5287 Q2447.31 55.8863 2449.95 65.0818 Q2452.62 74.2369 2458.01 83.5134 L2451.53 83.5134 Q2445.45 73.9938 2442.41 64.7983 Q2439.41 55.6027 2439.41 46.5287 Q2439.41 37.4952 2442.41 28.3401 Q2445.41 19.1851 2451.53 9.62495 L2458.01 9.62495 Z" fill="#000000" fill-rule="nonzero" fill-opacity="1" /><path clip-path="url(#clip460)" d="M2474.94 65.6895 L2488.31 65.6895 L2488.31 19.5497 L2473.77 22.4663 L2473.77 15.0127 L2488.23 12.096 L2496.41 12.096 L2496.41 65.6895 L2509.78 65.6895 L2509.78 72.576 L2474.94 72.576 L2474.94 65.6895 Z" fill="#000000" fill-rule="nonzero" fill-opacity="1" /><path clip-path="url(#clip460)" d="M2527.72 65.6895 L2541.09 65.6895 L2541.09 19.5497 L2526.55 22.4663 L2526.55 15.0127 L2541.01 12.096 L2549.19 12.096 L2549.19 65.6895 L2562.56 65.6895 L2562.56 72.576 L2527.72 72.576 L2527.72 65.6895 Z" fill="#000000" fill-rule="nonzero" fill-opacity="1" /><path clip-path="url(#clip460)" d="M2580.51 65.6895 L2593.88 65.6895 L2593.88 19.5497 L2579.33 22.4663 L2579.33 15.0127 L2593.79 12.096 L2601.98 12.096 L2601.98 65.6895 L2615.35 65.6895 L2615.35 72.576 L2580.51 72.576 L2580.51 65.6895 Z" fill="#000000" fill-rule="nonzero" fill-opacity="1" /><path clip-path="url(#clip460)" d="M2649.37 17.4837 Q2643.05 17.4837 2639.85 23.7221 Q2636.69 29.92 2636.69 42.3968 Q2636.69 54.833 2639.85 61.0714 Q2643.05 67.2693 2649.37 67.2693 Q2655.73 67.2693 2658.89 61.0714 Q2662.09 54.833 2662.09 42.3968 Q2662.09 29.92 2658.89 23.7221 Q2655.73 17.4837 2649.37 17.4837 M2649.37 11.0023 Q2659.54 11.0023 2664.89 19.0636 Q2670.28 27.0843 2670.28 42.3968 Q2670.28 57.6687 2664.89 65.73 Q2659.54 73.7508 2649.37 73.7508 Q2639.2 73.7508 2633.82 65.73 Q2628.47 57.6687 2628.47 42.3968 Q2628.47 27.0843 2633.82 19.0636 Q2639.2 11.0023 2649.37 11.0023 Z" fill="#000000" fill-rule="nonzero" fill-opacity="1" /><path clip-path="url(#clip460)" d="M2686.07 65.6895 L2699.44 65.6895 L2699.44 19.5497 L2684.9 22.4663 L2684.9 15.0127 L2699.36 12.096 L2707.54 12.096 L2707.54 65.6895 L2720.91 65.6895 L2720.91 72.576 L2686.07 72.576 L2686.07 65.6895 Z" fill="#000000" fill-rule="nonzero" fill-opacity="1" /><path clip-path="url(#clip460)" d="M2754.94 17.4837 Q2748.62 17.4837 2745.42 23.7221 Q2742.26 29.92 2742.26 42.3968 Q2742.26 54.833 2745.42 61.0714 Q2748.62 67.2693 2754.94 67.2693 Q2761.3 67.2693 2764.46 61.0714 Q2767.66 54.833 2767.66 42.3968 Q2767.66 29.92 2764.46 23.7221 Q2761.3 17.4837 2754.94 17.4837 M2754.94 11.0023 Q2765.11 11.0023 2770.45 19.0636 Q2775.84 27.0843 2775.84 42.3968 Q2775.84 57.6687 2770.45 65.73 Q2765.11 73.7508 2754.94 73.7508 Q2744.77 73.7508 2739.38 65.73 Q2734.04 57.6687 2734.04 42.3968 Q2734.04 27.0843 2739.38 19.0636 Q2744.77 11.0023 2754.94 11.0023 Z" fill="#000000" fill-rule="nonzero" fill-opacity="1" /><path clip-path="url(#clip460)" d="M2787.99 9.62495 L2794.48 9.62495 Q2800.55 19.1851 2803.55 28.3401 Q2806.59 37.4952 2806.59 46.5287 Q2806.59 55.6027 2803.55 64.7983 Q2800.55 73.9938 2794.48 83.5134 L2787.99 83.5134 Q2793.38 74.2369 2796.02 65.0818 Q2798.69 55.8863 2798.69 46.5287 Q2798.69 37.1711 2796.02 28.0566 Q2793.38 18.942 2787.99 9.62495 Z" fill="#000000" fill-rule="nonzero" fill-opacity="1" /><path clip-path="url(#clip462)" d="M552.808 113.392 L552.808 1587.62 L749.925 1587.62 L749.925 113.392 L552.808 113.392 L552.808 113.392  Z" fill="#339933" fill-rule="evenodd" fill-opacity="1"/>
<polyline clip-path="url(#clip462)" style="stroke:#000000; stroke-linecap:round; stroke-linejoin:round; stroke-width:4; stroke-opacity:1; fill:none" points="552.808,113.392 552.808,1587.62 749.925,1587.62 749.925,113.392 552.808,113.392 "/>
<path clip-path="url(#clip462)" d="M881.336 1587.62 L881.336 1587.62 L1078.45 1587.62 L1078.45 1587.62 L881.336 1587.62 L881.336 1587.62  Z" fill="#339933" fill-rule="evenodd" fill-opacity="1"/>
<polyline clip-path="url(#clip462)" style="stroke:#000000; stroke-linecap:round; stroke-linejoin:round; stroke-width:4; stroke-opacity:1; fill:none" points="881.336,1587.62 881.336,1587.62 1078.45,1587.62 881.336,1587.62 "/>
<path clip-path="url(#clip462)" d="M1209.86 938.496 L1209.86 1587.62 L1406.98 1587.62 L1406.98 938.496 L1209.86 938.496 L1209.86 938.496  Z" fill="#339933" fill-rule="evenodd" fill-opacity="1"/>
<polyline clip-path="url(#clip462)" style="stroke:#000000; stroke-linecap:round; stroke-linejoin:round; stroke-width:4; stroke-opacity:1; fill:none" points="1209.86,938.496 1209.86,1587.62 1406.98,1587.62 1406.98,938.496 1209.86,938.496 "/>
<path clip-path="url(#clip462)" d="M1538.39 248.371 L1538.39 1587.62 L1735.51 1587.62 L1735.51 248.371 L1538.39 248.371 L1538.39 248.371  Z" fill="#339933" fill-rule="evenodd" fill-opacity="1"/>
<polyline clip-path="url(#clip462)" style="stroke:#000000; stroke-linecap:round; stroke-linejoin:round; stroke-width:4; stroke-opacity:1; fill:none" points="1538.39,248.371 1538.39,1587.62 1735.51,1587.62 1735.51,248.371 1538.39,248.371 "/>
<path clip-path="url(#clip462)" d="M1866.92 628.964 L1866.92 1587.62 L2064.04 1587.62 L2064.04 628.964 L1866.92 628.964 L1866.92 628.964  Z" fill="#339933" fill-rule="evenodd" fill-opacity="1"/>
<polyline clip-path="url(#clip462)" style="stroke:#000000; stroke-linecap:round; stroke-linejoin:round; stroke-width:4; stroke-opacity:1; fill:none" points="1866.92,628.964 1866.92,1587.62 2064.04,1587.62 2064.04,628.964 1866.92,628.964 "/>
<path clip-path="url(#clip462)" d="M2195.45 1553.14 L2195.45 1587.62 L2392.57 1587.62 L2392.57 1553.14 L2195.45 1553.14 L2195.45 1553.14  Z" fill="#339933" fill-rule="evenodd" fill-opacity="1"/>
<polyline clip-path="url(#clip462)" style="stroke:#000000; stroke-linecap:round; stroke-linejoin:round; stroke-width:4; stroke-opacity:1; fill:none" points="2195.45,1553.14 2195.45,1587.62 2392.57,1587.62 2392.57,1553.14 2195.45,1553.14 "/>
<path clip-path="url(#clip462)" d="M2523.98 1587.62 L2523.98 1587.62 L2721.09 1587.62 L2721.09 1587.62 L2523.98 1587.62 L2523.98 1587.62  Z" fill="#339933" fill-rule="evenodd" fill-opacity="1"/>
<polyline clip-path="url(#clip462)" style="stroke:#000000; stroke-linecap:round; stroke-linejoin:round; stroke-width:4; stroke-opacity:1; fill:none" points="2523.98,1587.62 2523.98,1587.62 2721.09,1587.62 2721.09,1587.62 2523.98,1587.62 "/>
<path clip-path="url(#clip462)" d="M2852.5 1587.62 L2852.5 1587.62 L3049.62 1587.62 L3049.62 1587.62 L2852.5 1587.62 L2852.5 1587.62  Z" fill="#339933" fill-rule="evenodd" fill-opacity="1"/>
<polyline clip-path="url(#clip462)" style="stroke:#000000; stroke-linecap:round; stroke-linejoin:round; stroke-width:4; stroke-opacity:1; fill:none" points="2852.5,1587.62 2852.5,1587.62 3049.62,1587.62 2852.5,1587.62 "/>
<path clip-path="url(#clip462)" d="M3181.03 487.72 L3181.03 1587.62 L3378.15 1587.62 L3378.15 487.72 L3181.03 487.72 L3181.03 487.72  Z" fill="#339933" fill-rule="evenodd" fill-opacity="1"/>
<polyline clip-path="url(#clip462)" style="stroke:#000000; stroke-linecap:round; stroke-linejoin:round; stroke-width:4; stroke-opacity:1; fill:none" points="3181.03,487.72 3181.03,1587.62 3378.15,1587.62 3378.15,487.72 3181.03,487.72 "/>
<circle clip-path="url(#clip462)" style="fill:#339933; stroke:none; fill-opacity:0" cx="651.366" cy="113.392" r="2"/>
<circle clip-path="url(#clip462)" style="fill:#339933; stroke:none; fill-opacity:0" cx="979.894" cy="1587.62" r="2"/>
<circle clip-path="url(#clip462)" style="fill:#339933; stroke:none; fill-opacity:0" cx="1308.42" cy="938.496" r="2"/>
<circle clip-path="url(#clip462)" style="fill:#339933; stroke:none; fill-opacity:0" cx="1636.95" cy="248.371" r="2"/>
<circle clip-path="url(#clip462)" style="fill:#339933; stroke:none; fill-opacity:0" cx="1965.48" cy="628.964" r="2"/>
<circle clip-path="url(#clip462)" style="fill:#339933; stroke:none; fill-opacity:0" cx="2294.01" cy="1553.14" r="2"/>
<circle clip-path="url(#clip462)" style="fill:#339933; stroke:none; fill-opacity:0" cx="2622.54" cy="1587.62" r="2"/>
<circle clip-path="url(#clip462)" style="fill:#339933; stroke:none; fill-opacity:0" cx="2951.06" cy="1587.62" r="2"/>
<circle clip-path="url(#clip462)" style="fill:#339933; stroke:none; fill-opacity:0" cx="3279.59" cy="487.72" r="2"/>
</svg>
