<?xml version="1.0" encoding="utf-8"?>
<svg xmlns="http://www.w3.org/2000/svg" xmlns:xlink="http://www.w3.org/1999/xlink" width="1400" height="600" viewBox="0 0 5600 2400">
<defs>
  <clipPath id="clip330">
    <rect x="0" y="0" width="5600" height="2400"/>
  </clipPath>
</defs>
<path clip-path="url(#clip330)" d="M0 2400 L5600 2400 L5600 0 L0 0  Z" fill="#ffffff" fill-rule="evenodd" fill-opacity="1"/>
<defs>
  <clipPath id="clip331">
    <rect x="1120" y="0" width="3921" height="2400"/>
  </clipPath>
</defs>
<path clip-path="url(#clip330)" d="M392.089 1981.48 L5253.54 1981.48 L5253.54 164.864 L392.089 164.864  Z" fill="#ffffff" fill-rule="evenodd" fill-opacity="1"/>
<defs>
  <clipPath id="clip332">
    <rect x="392" y="164" width="4862" height="1818"/>
  </clipPath>
</defs>
<polyline clip-path="url(#clip332)" style="stroke:#000000; stroke-linecap:round; stroke-linejoin:round; stroke-width:2; stroke-opacity:0.1; fill:none" points="838.102,1981.48 838.102,164.864 "/>
<polyline clip-path="url(#clip332)" style="stroke:#000000; stroke-linecap:round; stroke-linejoin:round; stroke-width:2; stroke-opacity:0.1; fill:none" points="1334.28,1981.48 1334.28,164.864 "/>
<polyline clip-path="url(#clip332)" style="stroke:#000000; stroke-linecap:round; stroke-linejoin:round; stroke-width:2; stroke-opacity:0.1; fill:none" points="1830.46,1981.48 1830.46,164.864 "/>
<polyline clip-path="url(#clip332)" style="stroke:#000000; stroke-linecap:round; stroke-linejoin:round; stroke-width:2; stroke-opacity:0.1; fill:none" points="2326.64,1981.48 2326.64,164.864 "/>
<polyline clip-path="url(#clip332)" style="stroke:#000000; stroke-linecap:round; stroke-linejoin:round; stroke-width:2; stroke-opacity:0.1; fill:none" points="2822.82,1981.48 2822.82,164.864 "/>
<polyline clip-path="url(#clip332)" style="stroke:#000000; stroke-linecap:round; stroke-linejoin:round; stroke-width:2; stroke-opacity:0.1; fill:none" points="3318.99,1981.48 3318.99,164.864 "/>
<polyline clip-path="url(#clip332)" style="stroke:#000000; stroke-linecap:round; stroke-linejoin:round; stroke-width:2; stroke-opacity:0.1; fill:none" points="3815.17,1981.48 3815.17,164.864 "/>
<polyline clip-path="url(#clip332)" style="stroke:#000000; stroke-linecap:round; stroke-linejoin:round; stroke-width:2; stroke-opacity:0.1; fill:none" points="4311.35,1981.48 4311.35,164.864 "/>
<polyline clip-path="url(#clip332)" style="stroke:#000000; stroke-linecap:round; stroke-linejoin:round; stroke-width:2; stroke-opacity:0.1; fill:none" points="4807.53,1981.48 4807.53,164.864 "/>
<polyline clip-path="url(#clip332)" style="stroke:#000000; stroke-linecap:round; stroke-linejoin:round; stroke-width:2; stroke-opacity:0.1; fill:none" points="392.089,1981.48 5253.54,1981.48 "/>
<polyline clip-path="url(#clip332)" style="stroke:#000000; stroke-linecap:round; stroke-linejoin:round; stroke-width:2; stroke-opacity:0.1; fill:none" points="392.089,1618.16 5253.54,1618.16 "/>
<polyline clip-path="url(#clip332)" style="stroke:#000000; stroke-linecap:round; stroke-linejoin:round; stroke-width:2; stroke-opacity:0.1; fill:none" points="392.089,1254.83 5253.54,1254.83 "/>
<polyline clip-path="url(#clip332)" style="stroke:#000000; stroke-linecap:round; stroke-linejoin:round; stroke-width:2; stroke-opacity:0.1; fill:none" points="392.089,891.51 5253.54,891.51 "/>
<polyline clip-path="url(#clip332)" style="stroke:#000000; stroke-linecap:round; stroke-linejoin:round; stroke-width:2; stroke-opacity:0.1; fill:none" points="392.089,528.187 5253.54,528.187 "/>
<polyline clip-path="url(#clip330)" style="stroke:#000000; stroke-linecap:round; stroke-linejoin:round; stroke-width:4; stroke-opacity:1; fill:none" points="392.089,1981.48 5253.54,1981.48 "/>
<polyline clip-path="url(#clip330)" style="stroke:#000000; stroke-linecap:round; stroke-linejoin:round; stroke-width:4; stroke-opacity:1; fill:none" points="838.102,1981.48 838.102,1962.58 "/>
<polyline clip-path="url(#clip330)" style="stroke:#000000; stroke-linecap:round; stroke-linejoin:round; stroke-width:4; stroke-opacity:1; fill:none" points="1334.28,1981.48 1334.28,1962.58 "/>
<polyline clip-path="url(#clip330)" style="stroke:#000000; stroke-linecap:round; stroke-linejoin:round; stroke-width:4; stroke-opacity:1; fill:none" points="1830.46,1981.48 1830.46,1962.58 "/>
<polyline clip-path="url(#clip330)" style="stroke:#000000; stroke-linecap:round; stroke-linejoin:round; stroke-width:4; stroke-opacity:1; fill:none" points="2326.64,1981.48 2326.64,1962.58 "/>
<polyline clip-path="url(#clip330)" style="stroke:#000000; stroke-linecap:round; stroke-linejoin:round; stroke-width:4; stroke-opacity:1; fill:none" points="2822.82,1981.48 2822.82,1962.58 "/>
<polyline clip-path="url(#clip330)" style="stroke:#000000; stroke-linecap:round; stroke-linejoin:round; stroke-width:4; stroke-opacity:1; fill:none" points="3318.99,1981.48 3318.99,1962.58 "/>
<polyline clip-path="url(#clip330)" style="stroke:#000000; stroke-linecap:round; stroke-linejoin:round; stroke-width:4; stroke-opacity:1; fill:none" points="3815.17,1981.48 3815.17,1962.58 "/>
<polyline clip-path="url(#clip330)" style="stroke:#000000; stroke-linecap:round; stroke-linejoin:round; stroke-width:4; stroke-opacity:1; fill:none" points="4311.35,1981.48 4311.35,1962.58 "/>
<polyline clip-path="url(#clip330)" style="stroke:#000000; stroke-linecap:round; stroke-linejoin:round; stroke-width:4; stroke-opacity:1; fill:none" points="4807.53,1981.48 4807.53,1962.58 "/>
<path clip-path="url(#clip330)" d="M761.389 2126.53 Q758.05 2129.87 758.369 2134.12 Q758.713 2138.34 762.69 2142.32 Q766.643 2146.27 770.891 2146.64 Q775.138 2146.96 778.477 2143.62 Q781.816 2140.28 781.473 2136.06 Q781.129 2131.79 777.176 2127.83 Q773.199 2123.86 768.951 2123.54 Q764.728 2123.19 761.389 2126.53 M755.693 2101.15 L760.21 2105.66 Q757.461 2106.65 755.079 2108.09 Q752.722 2109.52 750.856 2111.38 Q745.946 2116.29 746.658 2122.21 Q747.394 2128.1 753.729 2135.17 Q753.041 2131.59 754.097 2128.28 Q755.128 2124.94 757.755 2122.31 Q763.279 2116.79 769.835 2116.96 Q776.39 2117.08 782.16 2122.85 Q787.807 2128.5 787.881 2135.25 Q787.954 2142 782.406 2147.55 Q776.047 2153.91 767.822 2152.41 Q759.572 2150.89 750.316 2141.63 Q741.624 2132.94 740.593 2123.66 Q739.538 2114.35 746.486 2107.41 Q748.352 2105.54 750.611 2104.02 Q752.894 2102.47 755.693 2101.15 Z" fill="#000000" fill-rule="nonzero" fill-opacity="1" /><path clip-path="url(#clip330)" d="M799.15 2121.03 L807.252 2112.93 L779.288 2084.97 L772.241 2095.55 L767.723 2091.03 L774.721 2080.5 L779.68 2075.54 L812.163 2108.02 L820.265 2099.92 L824.439 2104.09 L803.324 2125.21 L799.15 2121.03 Z" fill="#000000" fill-rule="nonzero" fill-opacity="1" /><path clip-path="url(#clip330)" d="M831.142 2089.04 L839.244 2080.94 L811.279 2052.97 L804.233 2063.56 L799.715 2059.04 L806.712 2048.51 L811.672 2043.55 L844.154 2076.03 L852.257 2067.93 L856.43 2072.1 L835.316 2093.22 L831.142 2089.04 Z" fill="#000000" fill-rule="nonzero" fill-opacity="1" /><path clip-path="url(#clip330)" d="M1255.75 2128.35 Q1252.41 2131.69 1252.73 2135.94 Q1253.07 2140.16 1257.05 2144.14 Q1261 2148.09 1265.25 2148.46 Q1269.5 2148.78 1272.84 2145.44 Q1276.18 2142.1 1275.83 2137.88 Q1275.49 2133.6 1271.54 2129.65 Q1267.56 2125.67 1263.31 2125.35 Q1259.09 2125.01 1255.75 2128.35 M1250.05 2102.96 L1254.57 2107.48 Q1251.82 2108.46 1249.44 2109.91 Q1247.08 2111.33 1245.22 2113.2 Q1240.31 2118.11 1241.02 2124.03 Q1241.76 2129.92 1248.09 2136.99 Q1247.4 2133.41 1248.46 2130.09 Q1249.49 2126.75 1252.12 2124.13 Q1257.64 2118.6 1264.2 2118.77 Q1270.75 2118.9 1276.52 2124.67 Q1282.17 2130.31 1282.24 2137.07 Q1282.32 2143.82 1276.77 2149.37 Q1270.41 2155.72 1262.18 2154.23 Q1253.93 2152.71 1244.68 2143.45 Q1235.99 2134.76 1234.95 2125.48 Q1233.9 2116.17 1240.85 2109.22 Q1242.71 2107.36 1244.97 2105.83 Q1247.26 2104.29 1250.05 2102.96 Z" fill="#000000" fill-rule="nonzero" fill-opacity="1" /><path clip-path="url(#clip330)" d="M1292.09 2093.09 Q1296.41 2090.29 1300.8 2090.71 Q1305.22 2091.1 1308.76 2094.64 Q1314.18 2100.07 1313.42 2106.77 Q1312.66 2113.47 1305.79 2120.35 Q1303.48 2122.65 1300.56 2124.64 Q1297.69 2126.63 1294.17 2128.32 L1289.39 2123.54 Q1292.65 2122.68 1295.72 2120.84 Q1298.79 2118.99 1301.47 2116.32 Q1306.13 2111.65 1306.72 2107.38 Q1307.33 2103.09 1303.82 2099.57 Q1300.58 2096.33 1296.48 2096.8 Q1292.38 2097.22 1288.33 2101.27 L1284.06 2105.54 L1279.98 2101.46 L1284.45 2097 Q1288.11 2093.34 1288.6 2089.95 Q1289.07 2086.54 1286.32 2083.79 Q1283.49 2080.96 1279.98 2081.48 Q1276.47 2081.95 1272.74 2085.68 Q1270.7 2087.72 1268.81 2090.49 Q1266.92 2093.26 1265.06 2097 L1260.64 2092.58 Q1262.67 2088.97 1264.74 2086.12 Q1266.82 2083.25 1269.01 2081.06 Q1274.66 2075.41 1280.52 2074.7 Q1286.37 2073.97 1290.74 2078.34 Q1293.78 2081.38 1294.15 2085.24 Q1294.49 2089.07 1292.09 2093.09 Z" fill="#000000" fill-rule="nonzero" fill-opacity="1" /><path clip-path="url(#clip330)" d="M1310.11 2049.93 L1317.16 2082.02 L1329.68 2069.5 L1310.11 2049.93 M1304.49 2046.91 L1310.72 2040.67 L1334.61 2064.56 L1339.84 2059.33 L1343.97 2063.46 L1338.74 2068.69 L1347.38 2077.33 L1342.44 2082.26 L1333.8 2073.62 L1317.25 2090.17 L1312.47 2085.38 L1304.49 2046.91 Z" fill="#000000" fill-rule="nonzero" fill-opacity="1" /><path clip-path="url(#clip330)" d="M1753.5 2126.78 Q1750.16 2130.12 1750.48 2134.36 Q1750.82 2138.59 1754.8 2142.56 Q1758.75 2146.52 1763 2146.89 Q1767.25 2147.21 1770.59 2143.87 Q1773.93 2140.53 1773.58 2136.3 Q1773.24 2132.03 1769.29 2128.08 Q1765.31 2124.1 1761.06 2123.78 Q1756.84 2123.44 1753.5 2126.78 M1747.8 2101.39 L1752.32 2105.91 Q1749.57 2106.89 1747.19 2108.34 Q1744.83 2109.76 1742.97 2111.63 Q1738.06 2116.54 1738.77 2122.46 Q1739.51 2128.35 1745.84 2135.42 Q1745.15 2131.84 1746.21 2128.52 Q1747.24 2125.18 1749.87 2122.55 Q1755.39 2117.03 1761.95 2117.2 Q1768.5 2117.33 1774.27 2123.1 Q1779.92 2128.74 1779.99 2135.49 Q1780.07 2142.25 1774.52 2147.79 Q1768.16 2154.15 1759.93 2152.66 Q1751.68 2151.13 1742.43 2141.88 Q1733.74 2133.19 1732.7 2123.91 Q1731.65 2114.6 1738.6 2107.65 Q1740.46 2105.79 1742.72 2104.26 Q1745.01 2102.72 1747.8 2101.39 Z" fill="#000000" fill-rule="nonzero" fill-opacity="1" /><path clip-path="url(#clip330)" d="M1775.87 2080.35 L1782.91 2112.44 L1795.44 2099.92 L1775.87 2080.35 M1770.25 2077.33 L1776.48 2071.09 L1800.37 2094.98 L1805.6 2089.75 L1809.72 2093.88 L1804.5 2099.11 L1813.14 2107.75 L1808.2 2112.68 L1799.56 2104.04 L1783.01 2120.59 L1778.22 2115.8 L1770.25 2077.33 Z" fill="#000000" fill-rule="nonzero" fill-opacity="1" /><path clip-path="url(#clip330)" d="M1789.96 2057.61 L1809.43 2038.14 L1813.6 2042.32 L1798.68 2057.25 L1807.66 2066.23 Q1808.37 2064.78 1809.28 2063.53 Q1810.17 2062.25 1811.25 2061.17 Q1817.39 2055.04 1824.33 2054.82 Q1831.28 2054.59 1837.03 2060.34 Q1842.94 2066.26 1842.55 2073.23 Q1842.13 2080.18 1835.43 2086.88 Q1833.12 2089.19 1830.32 2091.2 Q1827.55 2093.19 1824.21 2094.96 L1819.23 2089.97 Q1822.64 2088.97 1825.59 2087.2 Q1828.53 2085.43 1831.16 2082.8 Q1835.41 2078.56 1835.65 2073.84 Q1835.9 2069.13 1832.07 2065.3 Q1828.24 2061.47 1823.52 2061.71 Q1818.81 2061.96 1814.56 2066.21 Q1812.57 2068.2 1811.03 2070.63 Q1809.5 2073.03 1808.37 2076.03 L1789.96 2057.61 Z" fill="#000000" fill-rule="nonzero" fill-opacity="1" /><path clip-path="url(#clip330)" d="M2248.45 2128.01 Q2245.11 2131.34 2245.43 2135.59 Q2245.78 2139.82 2249.75 2143.79 Q2253.71 2147.75 2257.95 2148.11 Q2262.2 2148.43 2265.54 2145.09 Q2268.88 2141.75 2268.54 2137.53 Q2268.19 2133.26 2264.24 2129.31 Q2260.26 2125.33 2256.01 2125.01 Q2251.79 2124.67 2248.45 2128.01 M2242.76 2102.62 L2247.27 2107.14 Q2244.52 2108.12 2242.14 2109.57 Q2239.78 2110.99 2237.92 2112.86 Q2233.01 2117.77 2233.72 2123.68 Q2234.46 2129.58 2240.79 2136.65 Q2240.1 2133.06 2241.16 2129.75 Q2242.19 2126.41 2244.82 2123.78 Q2250.34 2118.26 2256.9 2118.43 Q2263.45 2118.55 2269.22 2124.32 Q2274.87 2129.97 2274.94 2136.72 Q2275.02 2143.47 2269.47 2149.02 Q2263.11 2155.38 2254.88 2153.88 Q2246.63 2152.36 2237.38 2143.11 Q2228.69 2134.41 2227.66 2125.13 Q2226.6 2115.83 2233.55 2108.88 Q2235.41 2107.01 2237.67 2105.49 Q2239.96 2103.94 2242.76 2102.62 Z" fill="#000000" fill-rule="nonzero" fill-opacity="1" /><path clip-path="url(#clip330)" d="M2270.82 2081.58 L2277.86 2113.67 L2290.39 2101.15 L2270.82 2081.58 M2265.2 2078.56 L2271.43 2072.32 L2295.32 2096.21 L2300.55 2090.98 L2304.68 2095.11 L2299.45 2100.34 L2308.09 2108.98 L2303.15 2113.91 L2294.51 2105.27 L2277.96 2121.82 L2273.18 2117.03 L2265.2 2078.56 Z" fill="#000000" fill-rule="nonzero" fill-opacity="1" /><path clip-path="url(#clip330)" d="M2312.43 2064.02 Q2309.1 2067.36 2309.41 2071.61 Q2309.76 2075.83 2313.74 2079.81 Q2317.69 2083.76 2321.94 2084.13 Q2326.18 2084.45 2329.52 2081.11 Q2332.86 2077.77 2332.52 2073.55 Q2332.17 2069.28 2328.22 2065.32 Q2324.24 2061.35 2320 2061.03 Q2315.77 2060.68 2312.43 2064.02 M2306.74 2038.64 L2311.26 2043.15 Q2308.51 2044.14 2306.12 2045.58 Q2303.77 2047.01 2301.9 2048.87 Q2296.99 2053.78 2297.7 2059.7 Q2298.44 2065.59 2304.77 2072.66 Q2304.09 2069.08 2305.14 2065.77 Q2306.17 2062.43 2308.8 2059.8 Q2314.32 2054.28 2320.88 2054.45 Q2327.44 2054.57 2333.21 2060.34 Q2338.85 2065.99 2338.93 2072.74 Q2339 2079.49 2333.45 2085.04 Q2327.09 2091.4 2318.87 2089.9 Q2310.62 2088.38 2301.36 2079.12 Q2292.67 2070.43 2291.64 2061.15 Q2290.58 2051.84 2297.53 2044.9 Q2299.4 2043.03 2301.66 2041.51 Q2303.94 2039.96 2306.74 2038.64 Z" fill="#000000" fill-rule="nonzero" fill-opacity="1" /><path clip-path="url(#clip330)" d="M2746.5 2126.14 Q2743.16 2129.48 2743.48 2133.73 Q2743.82 2137.95 2747.8 2141.93 Q2751.75 2145.88 2756 2146.25 Q2760.25 2146.57 2763.58 2143.23 Q2766.92 2139.89 2766.58 2135.67 Q2766.24 2131.39 2762.28 2127.44 Q2758.31 2123.46 2754.06 2123.14 Q2749.83 2122.8 2746.5 2126.14 M2740.8 2100.75 L2745.32 2105.27 Q2742.57 2106.25 2740.19 2107.7 Q2737.83 2109.12 2735.96 2110.99 Q2731.05 2115.9 2731.76 2121.82 Q2732.5 2127.71 2738.84 2134.78 Q2738.15 2131.2 2739.2 2127.88 Q2740.24 2124.54 2742.86 2121.92 Q2748.39 2116.39 2754.94 2116.56 Q2761.5 2116.69 2767.27 2122.46 Q2772.91 2128.1 2772.99 2134.86 Q2773.06 2141.61 2767.51 2147.16 Q2761.15 2153.52 2752.93 2152.02 Q2744.68 2150.5 2735.42 2141.24 Q2726.73 2132.55 2725.7 2123.27 Q2724.64 2113.96 2731.59 2107.01 Q2733.46 2105.15 2735.72 2103.63 Q2738 2102.08 2740.8 2100.75 Z" fill="#000000" fill-rule="nonzero" fill-opacity="1" /><path clip-path="url(#clip330)" d="M2750.96 2088.97 L2770.43 2069.5 L2774.61 2073.67 L2759.68 2088.6 L2768.67 2097.59 Q2769.38 2096.14 2770.29 2094.88 Q2771.17 2093.61 2772.25 2092.53 Q2778.39 2086.39 2785.34 2086.17 Q2792.29 2085.95 2798.03 2091.69 Q2803.95 2097.61 2803.56 2104.58 Q2803.14 2111.53 2796.44 2118.23 Q2794.13 2120.54 2791.33 2122.55 Q2788.55 2124.54 2785.21 2126.31 L2780.23 2121.33 Q2783.64 2120.32 2786.59 2118.55 Q2789.54 2116.79 2792.16 2114.16 Q2796.41 2109.91 2796.66 2105.2 Q2796.9 2100.48 2793.07 2096.65 Q2789.24 2092.82 2784.53 2093.07 Q2779.81 2093.31 2775.57 2097.56 Q2773.58 2099.55 2772.03 2101.98 Q2770.51 2104.39 2769.38 2107.38 L2750.96 2088.97 Z" fill="#000000" fill-rule="nonzero" fill-opacity="1" /><path clip-path="url(#clip330)" d="M2819.66 2085.24 L2836.97 2067.93 L2841.14 2072.1 L2817.87 2095.38 L2813.7 2091.2 Q2813.6 2085.46 2813.55 2075.68 Q2813.5 2065.86 2813.33 2063.19 Q2813.03 2058.13 2812.12 2055.36 Q2811.22 2052.53 2809.42 2050.74 Q2806.5 2047.82 2802.6 2048.04 Q2798.72 2048.24 2795.43 2051.53 Q2793.1 2053.86 2791.3 2057.27 Q2789.54 2060.66 2788.23 2065.25 L2783.23 2060.24 Q2785.02 2056.04 2787.01 2052.83 Q2789 2049.61 2791.16 2047.45 Q2796.85 2041.75 2803.09 2041.21 Q2809.32 2040.67 2814.09 2045.44 Q2816.35 2047.7 2817.53 2050.59 Q2818.7 2053.44 2819.22 2058.42 Q2819.32 2059.75 2819.44 2066.45 Q2819.54 2073.13 2819.66 2085.24 Z" fill="#000000" fill-rule="nonzero" fill-opacity="1" /><path clip-path="url(#clip330)" d="M3240.98 2127.83 Q3237.64 2131.17 3237.96 2135.42 Q3238.3 2139.64 3242.28 2143.62 Q3246.23 2147.57 3250.48 2147.94 Q3254.73 2148.26 3258.07 2144.92 Q3261.41 2141.58 3261.06 2137.36 Q3260.72 2133.09 3256.77 2129.13 Q3252.79 2125.16 3248.54 2124.84 Q3244.32 2124.49 3240.98 2127.83 M3235.28 2102.45 L3239.8 2106.96 Q3237.05 2107.95 3234.67 2109.39 Q3232.31 2110.82 3230.45 2112.68 Q3225.54 2117.6 3226.25 2123.51 Q3226.99 2129.41 3233.32 2136.48 Q3232.63 2132.89 3233.69 2129.58 Q3234.72 2126.24 3237.35 2123.61 Q3242.87 2118.09 3249.43 2118.26 Q3255.98 2118.38 3261.75 2124.15 Q3267.4 2129.8 3267.47 2136.55 Q3267.55 2143.3 3262 2148.85 Q3255.64 2155.21 3247.41 2153.71 Q3239.16 2152.19 3229.91 2142.93 Q3221.22 2134.24 3220.18 2124.96 Q3219.13 2115.66 3226.08 2108.71 Q3227.94 2106.84 3230.2 2105.32 Q3232.49 2103.77 3235.28 2102.45 Z" fill="#000000" fill-rule="nonzero" fill-opacity="1" /><path clip-path="url(#clip330)" d="M3244.15 2091.96 L3267.72 2068.39 L3269.83 2070.5 L3291.07 2118.36 L3285.89 2123.54 L3265.93 2078.53 L3248.32 2096.14 L3244.15 2091.96 Z" fill="#000000" fill-rule="nonzero" fill-opacity="1" /><path clip-path="url(#clip330)" d="M3291.26 2051.38 Q3287.43 2055.21 3289.27 2060.93 Q3291.12 2066.6 3298.68 2074.16 Q3306.22 2081.7 3311.91 2083.57 Q3317.61 2085.38 3321.44 2081.55 Q3325.29 2077.7 3323.45 2072.03 Q3321.61 2066.31 3314.07 2058.77 Q3306.51 2051.21 3300.81 2049.39 Q3295.12 2047.52 3291.26 2051.38 M3287.33 2047.45 Q3293.5 2041.29 3301.62 2042.93 Q3309.75 2044.53 3319.03 2053.81 Q3328.29 2063.07 3329.91 2071.22 Q3331.53 2079.32 3325.37 2085.48 Q3319.2 2091.64 3311.08 2090.05 Q3302.95 2088.4 3293.69 2079.15 Q3284.41 2069.87 3282.79 2061.76 Q3281.17 2053.61 3287.33 2047.45 Z" fill="#000000" fill-rule="nonzero" fill-opacity="1" /><path clip-path="url(#clip330)" d="M3738.46 2126.53 Q3735.12 2129.87 3735.44 2134.12 Q3735.78 2138.34 3739.76 2142.32 Q3743.71 2146.27 3747.96 2146.64 Q3752.21 2146.96 3755.55 2143.62 Q3758.89 2140.28 3758.54 2136.06 Q3758.2 2131.79 3754.25 2127.83 Q3750.27 2123.86 3746.02 2123.54 Q3741.8 2123.19 3738.46 2126.53 M3732.76 2101.15 L3737.28 2105.66 Q3734.53 2106.65 3732.15 2108.09 Q3729.79 2109.52 3727.93 2111.38 Q3723.02 2116.29 3723.73 2122.21 Q3724.47 2128.1 3730.8 2135.17 Q3730.11 2131.59 3731.17 2128.28 Q3732.2 2124.94 3734.83 2122.31 Q3740.35 2116.79 3746.91 2116.96 Q3753.46 2117.08 3759.23 2122.85 Q3764.88 2128.5 3764.95 2135.25 Q3765.03 2142 3759.48 2147.55 Q3753.12 2153.91 3744.89 2152.41 Q3736.64 2150.89 3727.39 2141.63 Q3718.7 2132.94 3717.66 2123.66 Q3716.61 2114.35 3723.56 2107.41 Q3725.42 2105.54 3727.68 2104.02 Q3729.97 2102.47 3732.76 2101.15 Z" fill="#000000" fill-rule="nonzero" fill-opacity="1" /><path clip-path="url(#clip330)" d="M3741.63 2090.66 L3765.2 2067.09 L3767.31 2069.2 L3788.55 2117.06 L3783.37 2122.24 L3763.41 2077.23 L3745.8 2094.84 L3741.63 2090.66 Z" fill="#000000" fill-rule="nonzero" fill-opacity="1" /><path clip-path="url(#clip330)" d="M3808.21 2089.04 L3816.32 2080.94 L3788.35 2052.97 L3781.3 2063.56 L3776.79 2059.04 L3783.78 2048.51 L3788.74 2043.55 L3821.23 2076.03 L3829.33 2067.93 L3833.5 2072.1 L3812.39 2093.22 L3808.21 2089.04 Z" fill="#000000" fill-rule="nonzero" fill-opacity="1" /><path clip-path="url(#clip330)" d="M4234.39 2126.78 Q4231.05 2130.12 4231.37 2134.36 Q4231.72 2138.59 4235.69 2142.56 Q4239.65 2146.52 4243.89 2146.89 Q4248.14 2147.21 4251.48 2143.87 Q4254.82 2140.53 4254.48 2136.3 Q4254.13 2132.03 4250.18 2128.08 Q4246.2 2124.1 4241.96 2123.78 Q4237.73 2123.44 4234.39 2126.78 M4228.7 2101.39 L4233.21 2105.91 Q4230.46 2106.89 4228.08 2108.34 Q4225.73 2109.76 4223.86 2111.63 Q4218.95 2116.54 4219.66 2122.46 Q4220.4 2128.35 4226.73 2135.42 Q4226.05 2131.84 4227.1 2128.52 Q4228.13 2125.18 4230.76 2122.55 Q4236.28 2117.03 4242.84 2117.2 Q4249.39 2117.33 4255.16 2123.1 Q4260.81 2128.74 4260.88 2135.49 Q4260.96 2142.25 4255.41 2147.79 Q4249.05 2154.15 4240.83 2152.66 Q4232.58 2151.13 4223.32 2141.88 Q4214.63 2133.19 4213.6 2123.91 Q4212.54 2114.6 4219.49 2107.65 Q4221.36 2105.79 4223.61 2104.26 Q4225.9 2102.72 4228.7 2101.39 Z" fill="#000000" fill-rule="nonzero" fill-opacity="1" /><path clip-path="url(#clip330)" d="M4237.56 2090.91 L4261.13 2067.34 L4263.24 2069.45 L4284.48 2117.3 L4279.3 2122.48 L4259.34 2077.48 L4241.73 2095.08 L4237.56 2090.91 Z" fill="#000000" fill-rule="nonzero" fill-opacity="1" /><path clip-path="url(#clip330)" d="M4270.85 2057.61 L4290.32 2038.14 L4294.5 2042.32 L4279.57 2057.25 L4288.56 2066.23 Q4289.27 2064.78 4290.18 2063.53 Q4291.06 2062.25 4292.14 2061.17 Q4298.28 2055.04 4305.23 2054.82 Q4312.17 2054.59 4317.92 2060.34 Q4323.84 2066.26 4323.44 2073.23 Q4323.03 2080.18 4316.32 2086.88 Q4314.02 2089.19 4311.22 2091.2 Q4308.44 2093.19 4305.1 2094.96 L4300.12 2089.97 Q4303.53 2088.97 4306.48 2087.2 Q4309.42 2085.43 4312.05 2082.8 Q4316.3 2078.56 4316.54 2073.84 Q4316.79 2069.13 4312.96 2065.3 Q4309.13 2061.47 4304.42 2061.71 Q4299.7 2061.96 4295.45 2066.21 Q4293.47 2068.2 4291.92 2070.63 Q4290.4 2073.03 4289.27 2076.03 L4270.85 2057.61 Z" fill="#000000" fill-rule="nonzero" fill-opacity="1" /><path clip-path="url(#clip330)" d="M4731.21 2126.14 Q4727.87 2129.48 4728.19 2133.73 Q4728.53 2137.95 4732.51 2141.93 Q4736.46 2145.88 4740.71 2146.25 Q4744.96 2146.57 4748.3 2143.23 Q4751.64 2139.89 4751.29 2135.67 Q4750.95 2131.39 4747 2127.44 Q4743.02 2123.46 4738.77 2123.14 Q4734.55 2122.8 4731.21 2126.14 M4725.51 2100.75 L4730.03 2105.27 Q4727.28 2106.25 4724.9 2107.7 Q4722.54 2109.12 4720.68 2110.99 Q4715.77 2115.9 4716.48 2121.82 Q4717.22 2127.71 4723.55 2134.78 Q4722.86 2131.2 4723.92 2127.88 Q4724.95 2124.54 4727.58 2121.92 Q4733.1 2116.39 4739.66 2116.56 Q4746.21 2116.69 4751.98 2122.46 Q4757.63 2128.1 4757.7 2134.86 Q4757.78 2141.61 4752.23 2147.16 Q4745.87 2153.52 4737.64 2152.02 Q4729.39 2150.5 4720.14 2141.24 Q4711.45 2132.55 4710.41 2123.27 Q4709.36 2113.96 4716.31 2107.01 Q4718.17 2105.15 4720.43 2103.63 Q4722.71 2102.08 4725.51 2100.75 Z" fill="#000000" fill-rule="nonzero" fill-opacity="1" /><path clip-path="url(#clip330)" d="M4771.67 2124.76 L4767.15 2120.25 Q4769.9 2119.26 4772.29 2117.82 Q4774.67 2116.37 4776.51 2114.53 Q4781.42 2109.62 4780.71 2103.75 Q4780 2097.83 4773.64 2090.74 Q4774.32 2094.27 4773.27 2097.59 Q4772.21 2100.9 4769.56 2103.55 Q4764.06 2109.05 4757.53 2108.95 Q4751 2108.81 4745.23 2103.04 Q4739.58 2097.39 4739.51 2090.64 Q4739.43 2083.89 4744.98 2078.34 Q4751.34 2071.98 4759.57 2073.52 Q4767.79 2075.02 4777.07 2084.3 Q4785.74 2092.97 4786.8 2102.27 Q4787.85 2111.53 4780.9 2118.48 Q4779.04 2120.35 4776.75 2121.89 Q4774.47 2123.44 4771.67 2124.76 M4766 2099.35 Q4769.34 2096.01 4769 2091.79 Q4768.68 2087.54 4764.7 2083.57 Q4760.75 2079.61 4756.5 2079.29 Q4752.25 2078.93 4748.91 2082.26 Q4745.57 2085.6 4745.92 2089.88 Q4746.26 2094.1 4750.21 2098.05 Q4754.19 2102.03 4758.41 2102.37 Q4762.66 2102.69 4766 2099.35 Z" fill="#000000" fill-rule="nonzero" fill-opacity="1" /><path clip-path="url(#clip330)" d="M4804.38 2085.24 L4821.68 2067.93 L4825.86 2072.1 L4802.58 2095.38 L4798.41 2091.2 Q4798.31 2085.46 4798.26 2075.68 Q4798.21 2065.86 4798.04 2063.19 Q4797.75 2058.13 4796.84 2055.36 Q4795.93 2052.53 4794.14 2050.74 Q4791.22 2047.82 4787.31 2048.04 Q4783.43 2048.24 4780.14 2051.53 Q4777.81 2053.86 4776.02 2057.27 Q4774.25 2060.66 4772.95 2065.25 L4767.94 2060.24 Q4769.73 2056.04 4771.72 2052.83 Q4773.71 2049.61 4775.87 2047.45 Q4781.57 2041.75 4787.8 2041.21 Q4794.04 2040.67 4798.8 2045.44 Q4801.06 2047.7 4802.24 2050.59 Q4803.42 2053.44 4803.93 2058.42 Q4804.03 2059.75 4804.15 2066.45 Q4804.25 2073.13 4804.38 2085.24 Z" fill="#000000" fill-rule="nonzero" fill-opacity="1" /><path clip-path="url(#clip330)" d="M2769.6 2247.56 L2769.6 2266.55 L2780.85 2266.55 Q2786.51 2266.55 2789.22 2264.22 Q2791.97 2261.86 2791.97 2257.03 Q2791.97 2252.17 2789.22 2249.88 Q2786.51 2247.56 2780.85 2247.56 L2769.6 2247.56 M2769.6 2226.24 L2769.6 2241.86 L2779.99 2241.86 Q2785.13 2241.86 2787.63 2239.95 Q2790.16 2238.01 2790.16 2234.05 Q2790.16 2230.13 2787.63 2228.18 Q2785.13 2226.24 2779.99 2226.24 L2769.6 2226.24 M2762.59 2220.47 L2780.51 2220.47 Q2788.53 2220.47 2792.87 2223.81 Q2797.21 2227.14 2797.21 2233.28 Q2797.21 2238.04 2794.99 2240.85 Q2792.76 2243.67 2788.46 2244.36 Q2793.63 2245.47 2796.48 2249.01 Q2799.36 2252.52 2799.36 2257.8 Q2799.36 2264.74 2794.64 2268.53 Q2789.92 2272.31 2781.2 2272.31 L2762.59 2272.31 L2762.59 2220.47 Z" fill="#000000" fill-rule="nonzero" fill-opacity="1" /><path clip-path="url(#clip330)" d="M2810.44 2256.97 L2810.44 2233.42 L2816.83 2233.42 L2816.83 2256.72 Q2816.83 2262.24 2818.98 2265.02 Q2821.13 2267.76 2825.44 2267.76 Q2830.61 2267.76 2833.6 2264.47 Q2836.62 2261.17 2836.62 2255.47 L2836.62 2233.42 L2843.01 2233.42 L2843.01 2272.31 L2836.62 2272.31 L2836.62 2266.34 Q2834.29 2269.88 2831.2 2271.62 Q2828.15 2273.32 2824.08 2273.32 Q2817.38 2273.32 2813.91 2269.15 Q2810.44 2264.99 2810.44 2256.97 M2826.51 2232.49 L2826.51 2232.49 Z" fill="#000000" fill-rule="nonzero" fill-opacity="1" /><path clip-path="url(#clip330)" d="M2880.96 2234.57 L2880.96 2240.61 Q2878.25 2239.22 2875.33 2238.53 Q2872.42 2237.83 2869.29 2237.83 Q2864.53 2237.83 2862.14 2239.29 Q2859.78 2240.75 2859.78 2243.67 Q2859.78 2245.89 2861.48 2247.17 Q2863.18 2248.42 2868.32 2249.57 L2870.51 2250.06 Q2877.31 2251.51 2880.16 2254.19 Q2883.04 2256.83 2883.04 2261.58 Q2883.04 2267 2878.74 2270.16 Q2874.47 2273.32 2866.97 2273.32 Q2863.84 2273.32 2860.44 2272.69 Q2857.07 2272.1 2853.32 2270.89 L2853.32 2264.29 Q2856.86 2266.13 2860.3 2267.07 Q2863.74 2267.97 2867.1 2267.97 Q2871.62 2267.97 2874.05 2266.44 Q2876.48 2264.88 2876.48 2262.07 Q2876.48 2259.47 2874.71 2258.08 Q2872.97 2256.69 2867.03 2255.4 L2864.81 2254.88 Q2858.88 2253.63 2856.24 2251.06 Q2853.6 2248.46 2853.6 2243.94 Q2853.6 2238.46 2857.49 2235.47 Q2861.38 2232.49 2868.53 2232.49 Q2872.07 2232.49 2875.19 2233.01 Q2878.32 2233.53 2880.96 2234.57 Z" fill="#000000" fill-rule="nonzero" fill-opacity="1" /><polyline clip-path="url(#clip330)" style="stroke:#000000; stroke-linecap:round; stroke-linejoin:round; stroke-width:4; stroke-opacity:1; fill:none" points="392.089,1981.48 392.089,164.864 "/>
<polyline clip-path="url(#clip330)" style="stroke:#000000; stroke-linecap:round; stroke-linejoin:round; stroke-width:4; stroke-opacity:1; fill:none" points="392.089,1981.48 410.987,1981.48 "/>
<polyline clip-path="url(#clip330)" style="stroke:#000000; stroke-linecap:round; stroke-linejoin:round; stroke-width:4; stroke-opacity:1; fill:none" points="392.089,1618.16 410.987,1618.16 "/>
<polyline clip-path="url(#clip330)" style="stroke:#000000; stroke-linecap:round; stroke-linejoin:round; stroke-width:4; stroke-opacity:1; fill:none" points="392.089,1254.83 410.987,1254.83 "/>
<polyline clip-path="url(#clip330)" style="stroke:#000000; stroke-linecap:round; stroke-linejoin:round; stroke-width:4; stroke-opacity:1; fill:none" points="392.089,891.51 410.987,891.51 "/>
<polyline clip-path="url(#clip330)" style="stroke:#000000; stroke-linecap:round; stroke-linejoin:round; stroke-width:4; stroke-opacity:1; fill:none" points="392.089,528.187 410.987,528.187 "/>
<path clip-path="url(#clip330)" d="M290.173 1960.18 Q284.756 1960.18 282.013 1965.52 Q279.305 1970.84 279.305 1981.53 Q279.305 1992.19 282.013 1997.54 Q284.756 2002.85 290.173 2002.85 Q295.624 2002.85 298.332 1997.54 Q301.076 1992.19 301.076 1981.53 Q301.076 1970.84 298.332 1965.52 Q295.624 1960.18 290.173 1960.18 M290.173 1954.62 Q298.888 1954.62 303.471 1961.53 Q308.089 1968.41 308.089 1981.53 Q308.089 1994.62 303.471 2001.53 Q298.888 2008.41 290.173 2008.41 Q281.458 2008.41 276.84 2001.53 Q272.256 1994.62 272.256 1981.53 Q272.256 1968.41 276.84 1961.53 Q281.458 1954.62 290.173 1954.62 Z" fill="#000000" fill-rule="nonzero" fill-opacity="1" /><path clip-path="url(#clip330)" d="M235.972 1638.17 L260.451 1638.17 L260.451 1644.08 L227.534 1644.08 L227.534 1638.17 Q231.527 1634.04 238.402 1627.1 Q245.312 1620.12 247.083 1618.1 Q250.451 1614.32 251.77 1611.72 Q253.124 1609.08 253.124 1606.54 Q253.124 1602.41 250.208 1599.81 Q247.326 1597.2 242.673 1597.2 Q239.374 1597.2 235.694 1598.35 Q232.048 1599.49 227.881 1601.82 L227.881 1594.74 Q232.118 1593.04 235.798 1592.17 Q239.479 1591.3 242.534 1591.3 Q250.59 1591.3 255.381 1595.33 Q260.173 1599.35 260.173 1606.09 Q260.173 1609.29 258.958 1612.17 Q257.777 1615.01 254.617 1618.9 Q253.749 1619.91 249.097 1624.74 Q244.444 1629.53 235.972 1638.17 Z" fill="#000000" fill-rule="nonzero" fill-opacity="1" /><path clip-path="url(#clip330)" d="M290.173 1596.85 Q284.756 1596.85 282.013 1602.2 Q279.305 1607.51 279.305 1618.21 Q279.305 1628.87 282.013 1634.22 Q284.756 1639.53 290.173 1639.53 Q295.624 1639.53 298.332 1634.22 Q301.076 1628.87 301.076 1618.21 Q301.076 1607.51 298.332 1602.2 Q295.624 1596.85 290.173 1596.85 M290.173 1591.3 Q298.888 1591.3 303.471 1598.21 Q308.089 1605.08 308.089 1618.21 Q308.089 1631.3 303.471 1638.21 Q298.888 1645.08 290.173 1645.08 Q281.458 1645.08 276.84 1638.21 Q272.256 1631.3 272.256 1618.21 Q272.256 1605.08 276.84 1598.21 Q281.458 1591.3 290.173 1591.3 Z" fill="#000000" fill-rule="nonzero" fill-opacity="1" /><path clip-path="url(#clip330)" d="M249.201 1235.02 L231.493 1262.7 L249.201 1262.7 L249.201 1235.02 M247.361 1228.91 L256.18 1228.91 L256.18 1262.7 L263.576 1262.7 L263.576 1268.53 L256.18 1268.53 L256.18 1280.75 L249.201 1280.75 L249.201 1268.53 L225.798 1268.53 L225.798 1261.76 L247.361 1228.91 Z" fill="#000000" fill-rule="nonzero" fill-opacity="1" /><path clip-path="url(#clip330)" d="M290.173 1233.53 Q284.756 1233.53 282.013 1238.88 Q279.305 1244.19 279.305 1254.89 Q279.305 1265.55 282.013 1270.89 Q284.756 1276.2 290.173 1276.2 Q295.624 1276.2 298.332 1270.89 Q301.076 1265.55 301.076 1254.89 Q301.076 1244.19 298.332 1238.88 Q295.624 1233.53 290.173 1233.53 M290.173 1227.98 Q298.888 1227.98 303.471 1234.89 Q308.089 1241.76 308.089 1254.89 Q308.089 1267.98 303.471 1274.89 Q298.888 1281.76 290.173 1281.76 Q281.458 1281.76 276.84 1274.89 Q272.256 1267.98 272.256 1254.89 Q272.256 1241.76 276.84 1234.89 Q281.458 1227.98 290.173 1227.98 Z" fill="#000000" fill-rule="nonzero" fill-opacity="1" /><path clip-path="url(#clip330)" d="M245.798 888.715 Q241.076 888.715 238.298 891.944 Q235.555 895.173 235.555 900.798 Q235.555 906.389 238.298 909.652 Q241.076 912.882 245.798 912.882 Q250.52 912.882 253.263 909.652 Q256.041 906.389 256.041 900.798 Q256.041 895.173 253.263 891.944 Q250.52 888.715 245.798 888.715 M259.722 866.736 L259.722 873.125 Q257.083 871.875 254.374 871.215 Q251.701 870.555 249.062 870.555 Q242.118 870.555 238.437 875.243 Q234.791 879.93 234.27 889.41 Q236.319 886.389 239.409 884.792 Q242.499 883.16 246.215 883.16 Q254.027 883.16 258.541 887.916 Q263.09 892.639 263.09 900.798 Q263.09 908.784 258.367 913.611 Q253.645 918.437 245.798 918.437 Q236.805 918.437 232.048 911.562 Q227.291 904.653 227.291 891.562 Q227.291 879.271 233.125 871.979 Q238.958 864.653 248.784 864.653 Q251.423 864.653 254.097 865.174 Q256.805 865.694 259.722 866.736 Z" fill="#000000" fill-rule="nonzero" fill-opacity="1" /><path clip-path="url(#clip330)" d="M290.173 870.208 Q284.756 870.208 282.013 875.555 Q279.305 880.868 279.305 891.562 Q279.305 902.222 282.013 907.569 Q284.756 912.882 290.173 912.882 Q295.624 912.882 298.332 907.569 Q301.076 902.222 301.076 891.562 Q301.076 880.868 298.332 875.555 Q295.624 870.208 290.173 870.208 M290.173 864.653 Q298.888 864.653 303.471 871.562 Q308.089 878.437 308.089 891.562 Q308.089 904.653 303.471 911.562 Q298.888 918.437 290.173 918.437 Q281.458 918.437 276.84 911.562 Q272.256 904.653 272.256 891.562 Q272.256 878.437 276.84 871.562 Q281.458 864.653 290.173 864.653 Z" fill="#000000" fill-rule="nonzero" fill-opacity="1" /><path clip-path="url(#clip330)" d="M244.93 529.489 Q239.93 529.489 237.048 532.163 Q234.201 534.836 234.201 539.524 Q234.201 544.211 237.048 546.885 Q239.93 549.558 244.93 549.558 Q249.93 549.558 252.812 546.885 Q255.694 544.177 255.694 539.524 Q255.694 534.836 252.812 532.163 Q249.965 529.489 244.93 529.489 M237.916 526.503 Q233.402 525.392 230.868 522.302 Q228.368 519.211 228.368 514.767 Q228.368 508.552 232.777 504.941 Q237.222 501.33 244.93 501.33 Q252.673 501.33 257.083 504.941 Q261.492 508.552 261.492 514.767 Q261.492 519.211 258.958 522.302 Q256.458 525.392 251.979 526.503 Q257.048 527.684 259.86 531.121 Q262.708 534.559 262.708 539.524 Q262.708 547.058 258.09 551.086 Q253.506 555.114 244.93 555.114 Q236.354 555.114 231.736 551.086 Q227.152 547.058 227.152 539.524 Q227.152 534.559 230 531.121 Q232.847 527.684 237.916 526.503 M235.347 515.427 Q235.347 519.454 237.847 521.711 Q240.381 523.968 244.93 523.968 Q249.444 523.968 251.979 521.711 Q254.548 519.454 254.548 515.427 Q254.548 511.399 251.979 509.142 Q249.444 506.885 244.93 506.885 Q240.381 506.885 237.847 509.142 Q235.347 511.399 235.347 515.427 Z" fill="#000000" fill-rule="nonzero" fill-opacity="1" /><path clip-path="url(#clip330)" d="M290.173 506.885 Q284.756 506.885 282.013 512.232 Q279.305 517.545 279.305 528.239 Q279.305 538.899 282.013 544.246 Q284.756 549.558 290.173 549.558 Q295.624 549.558 298.332 544.246 Q301.076 538.899 301.076 528.239 Q301.076 517.545 298.332 512.232 Q295.624 506.885 290.173 506.885 M290.173 501.33 Q298.888 501.33 303.471 508.239 Q308.089 515.114 308.089 528.239 Q308.089 541.329 303.471 548.239 Q298.888 555.114 290.173 555.114 Q281.458 555.114 276.84 548.239 Q272.256 541.329 272.256 528.239 Q272.256 515.114 276.84 508.239 Q281.458 501.33 290.173 501.33 Z" fill="#000000" fill-rule="nonzero" fill-opacity="1" /><path clip-path="url(#clip330)" d="M81.3158 1545.15 L107.114 1554.66 L107.114 1535.6 L81.3158 1545.15 M74.4062 1549.11 L74.4062 1541.16 L126.246 1521.4 L126.246 1528.69 L112.948 1533.41 L112.948 1556.78 L126.246 1561.5 L126.246 1568.9 L74.4062 1549.11 Z" fill="#000000" fill-rule="nonzero" fill-opacity="1" /><path clip-path="url(#clip330)" d="M88.8505 1487.37 L94.8227 1487.37 Q93.3297 1490.08 92.6005 1492.82 Q91.8366 1495.53 91.8366 1498.31 Q91.8366 1504.52 95.7949 1507.96 Q99.7185 1511.4 106.837 1511.4 Q113.955 1511.4 117.913 1507.96 Q121.836 1504.52 121.836 1498.31 Q121.836 1495.53 121.107 1492.82 Q120.343 1490.08 118.85 1487.37 L124.753 1487.37 Q126.003 1490.04 126.628 1492.93 Q127.253 1495.77 127.253 1499 Q127.253 1507.79 121.732 1512.96 Q116.211 1518.13 106.837 1518.13 Q97.3227 1518.13 91.8713 1512.93 Q86.42 1507.68 86.42 1498.59 Q86.42 1495.63 87.045 1492.82 Q87.6353 1490.01 88.8505 1487.37 Z" fill="#000000" fill-rule="nonzero" fill-opacity="1" /><path clip-path="url(#clip330)" d="M76.3159 1469.94 L87.3575 1469.94 L87.3575 1456.78 L92.3227 1456.78 L92.3227 1469.94 L113.434 1469.94 Q118.191 1469.94 119.545 1468.66 Q120.899 1467.34 120.899 1463.34 L120.899 1456.78 L126.246 1456.78 L126.246 1463.34 Q126.246 1470.74 123.503 1473.55 Q120.725 1476.36 113.434 1476.36 L92.3227 1476.36 L92.3227 1481.05 L87.3575 1481.05 L87.3575 1476.36 L76.3159 1476.36 L76.3159 1469.94 Z" fill="#000000" fill-rule="nonzero" fill-opacity="1" /><path clip-path="url(#clip330)" d="M87.3575 1448.38 L87.3575 1441.99 L126.246 1441.99 L126.246 1448.38 L87.3575 1448.38 M72.2187 1448.38 L72.2187 1441.99 L80.3089 1441.99 L80.3089 1448.38 L72.2187 1448.38 Z" fill="#000000" fill-rule="nonzero" fill-opacity="1" /><path clip-path="url(#clip330)" d="M87.3575 1433.2 L87.3575 1426.43 L119.996 1414.28 L87.3575 1402.13 L87.3575 1395.36 L126.246 1409.94 L126.246 1418.62 L87.3575 1433.2 Z" fill="#000000" fill-rule="nonzero" fill-opacity="1" /><path clip-path="url(#clip330)" d="M105.205 1353.27 L108.33 1353.27 L108.33 1382.65 Q114.927 1382.23 118.399 1378.69 Q121.836 1375.11 121.836 1368.76 Q121.836 1365.08 120.934 1361.64 Q120.031 1358.17 118.225 1354.77 L124.267 1354.77 Q125.725 1358.21 126.489 1361.82 Q127.253 1365.43 127.253 1369.14 Q127.253 1378.45 121.836 1383.9 Q116.42 1389.32 107.184 1389.32 Q97.6352 1389.32 92.0449 1384.18 Q86.42 1379 86.42 1370.25 Q86.42 1362.41 91.4894 1357.86 Q96.5241 1353.27 105.205 1353.27 M103.33 1359.66 Q98.0866 1359.73 94.9616 1362.61 Q91.8366 1365.46 91.8366 1370.18 Q91.8366 1375.53 94.8574 1378.76 Q97.8783 1381.96 103.364 1382.44 L103.33 1359.66 Z" fill="#000000" fill-rule="nonzero" fill-opacity="1" /><path clip-path="url(#clip330)" d="M80.17 1312.89 L99.6491 1312.89 L99.6491 1304.07 Q99.6491 1299.18 97.1144 1296.5 Q94.5797 1293.83 89.8922 1293.83 Q85.2394 1293.83 82.7047 1296.5 Q80.17 1299.18 80.17 1304.07 L80.17 1312.89 M74.4062 1319.91 L74.4062 1304.07 Q74.4062 1295.36 78.3645 1290.91 Q82.2881 1286.43 89.8922 1286.43 Q97.5658 1286.43 101.489 1290.91 Q105.413 1295.36 105.413 1304.07 L105.413 1312.89 L126.246 1312.89 L126.246 1319.91 L74.4062 1319.91 Z" fill="#000000" fill-rule="nonzero" fill-opacity="1" /><path clip-path="url(#clip330)" d="M91.8366 1264.77 Q91.8366 1269.91 95.8644 1272.89 Q99.8574 1275.88 106.837 1275.88 Q113.816 1275.88 117.843 1272.93 Q121.836 1269.94 121.836 1264.77 Q121.836 1259.66 117.809 1256.68 Q113.781 1253.69 106.837 1253.69 Q99.9269 1253.69 95.8991 1256.68 Q91.8366 1259.66 91.8366 1264.77 M86.42 1264.77 Q86.42 1256.43 91.8366 1251.68 Q97.2533 1246.92 106.837 1246.92 Q116.385 1246.92 121.836 1251.68 Q127.253 1256.43 127.253 1264.77 Q127.253 1273.14 121.836 1277.89 Q116.385 1282.62 106.837 1282.62 Q97.2533 1282.62 91.8366 1277.89 Q86.42 1273.14 86.42 1264.77 Z" fill="#000000" fill-rule="nonzero" fill-opacity="1" /><path clip-path="url(#clip330)" d="M87.3575 1240.05 L87.3575 1233.66 L117.705 1225.67 L87.3575 1217.72 L87.3575 1210.19 L117.705 1202.2 L87.3575 1194.25 L87.3575 1187.86 L126.246 1198.03 L126.246 1205.57 L94.3713 1213.94 L126.246 1222.34 L126.246 1229.87 L87.3575 1240.05 Z" fill="#000000" fill-rule="nonzero" fill-opacity="1" /><path clip-path="url(#clip330)" d="M105.205 1144.91 L108.33 1144.91 L108.33 1174.28 Q114.927 1173.87 118.399 1170.32 Q121.836 1166.75 121.836 1160.39 Q121.836 1156.71 120.934 1153.28 Q120.031 1149.8 118.225 1146.4 L124.267 1146.4 Q125.725 1149.84 126.489 1153.45 Q127.253 1157.06 127.253 1160.78 Q127.253 1170.08 121.836 1175.53 Q116.42 1180.95 107.184 1180.95 Q97.6352 1180.95 92.0449 1175.81 Q86.42 1170.64 86.42 1161.89 Q86.42 1154.04 91.4894 1149.49 Q96.5241 1144.91 105.205 1144.91 M103.33 1151.3 Q98.0866 1151.37 94.9616 1154.25 Q91.8366 1157.1 91.8366 1161.82 Q91.8366 1167.16 94.8574 1170.39 Q97.8783 1173.59 103.364 1174.07 L103.33 1151.3 Z" fill="#000000" fill-rule="nonzero" fill-opacity="1" /><path clip-path="url(#clip330)" d="M93.3297 1111.89 Q92.7047 1112.96 92.4269 1114.25 Q92.1144 1115.5 92.1144 1117.03 Q92.1144 1122.44 95.656 1125.36 Q99.163 1128.24 105.76 1128.24 L126.246 1128.24 L126.246 1134.66 L87.3575 1134.66 L87.3575 1128.24 L93.3991 1128.24 Q89.8575 1126.23 88.1561 1123 Q86.42 1119.77 86.42 1115.15 Q86.42 1114.49 86.5241 1113.69 Q86.5936 1112.89 86.7672 1111.92 L93.3297 1111.89 Z" fill="#000000" fill-rule="nonzero" fill-opacity="1" /><path clip-path="url(#clip330)" d="M74.4062 1082.3 L74.4062 1075.29 L120.343 1075.29 L120.343 1050.05 L126.246 1050.05 L126.246 1082.3 L74.4062 1082.3 Z" fill="#000000" fill-rule="nonzero" fill-opacity="1" /><path clip-path="url(#clip330)" d="M91.8366 1029.14 Q91.8366 1034.28 95.8644 1037.27 Q99.8574 1040.26 106.837 1040.26 Q113.816 1040.26 117.843 1037.3 Q121.836 1034.32 121.836 1029.14 Q121.836 1024.04 117.809 1021.05 Q113.781 1018.07 106.837 1018.07 Q99.9269 1018.07 95.8991 1021.05 Q91.8366 1024.04 91.8366 1029.14 M86.42 1029.14 Q86.42 1020.81 91.8366 1016.05 Q97.2533 1011.3 106.837 1011.3 Q116.385 1011.3 121.836 1016.05 Q127.253 1020.81 127.253 1029.14 Q127.253 1037.51 121.836 1042.27 Q116.385 1046.99 106.837 1046.99 Q97.2533 1046.99 91.8366 1042.27 Q86.42 1037.51 86.42 1029.14 Z" fill="#000000" fill-rule="nonzero" fill-opacity="1" /><path clip-path="url(#clip330)" d="M106.698 983.034 Q106.698 990.777 108.468 993.763 Q110.239 996.749 114.51 996.749 Q117.913 996.749 119.927 994.527 Q121.906 992.27 121.906 988.415 Q121.906 983.103 118.156 979.909 Q114.371 976.679 108.121 976.679 L106.698 976.679 L106.698 983.034 M104.059 970.291 L126.246 970.291 L126.246 976.679 L120.343 976.679 Q123.885 978.867 125.586 982.131 Q127.253 985.395 127.253 990.117 Q127.253 996.089 123.92 999.631 Q120.552 1003.14 114.927 1003.14 Q108.364 1003.14 105.031 998.763 Q101.698 994.353 101.698 985.638 L101.698 976.679 L101.073 976.679 Q96.663 976.679 94.2672 979.596 Q91.8366 982.478 91.8366 987.721 Q91.8366 991.054 92.6352 994.214 Q93.4338 997.374 95.031 1000.29 L89.1283 1000.29 Q87.7741 996.783 87.1144 993.485 Q86.42 990.186 86.42 987.061 Q86.42 978.624 90.795 974.457 Q95.1699 970.291 104.059 970.291 Z" fill="#000000" fill-rule="nonzero" fill-opacity="1" /><path clip-path="url(#clip330)" d="M93.2602 931.541 L72.2187 931.541 L72.2187 925.152 L126.246 925.152 L126.246 931.541 L120.413 931.541 Q123.885 933.555 125.586 936.645 Q127.253 939.7 127.253 944.006 Q127.253 951.055 121.628 955.499 Q116.003 959.909 106.837 959.909 Q97.6699 959.909 92.0449 955.499 Q86.42 951.055 86.42 944.006 Q86.42 939.7 88.1214 936.645 Q89.788 933.555 93.2602 931.541 M106.837 953.312 Q113.885 953.312 117.913 950.43 Q121.906 947.513 121.906 942.444 Q121.906 937.374 117.913 934.457 Q113.885 931.541 106.837 931.541 Q99.788 931.541 95.7949 934.457 Q91.7672 937.374 91.7672 942.444 Q91.7672 947.513 95.7949 950.43 Q99.788 953.312 106.837 953.312 Z" fill="#000000" fill-rule="nonzero" fill-opacity="1" /><path clip-path="url(#clip330)" d="M76.1075 858.034 L82.9478 858.034 Q81.0381 862.027 80.1006 865.569 Q79.1631 869.111 79.1631 872.409 Q79.1631 878.138 81.3853 881.263 Q83.6075 884.354 87.7047 884.354 Q91.1422 884.354 92.913 882.305 Q94.6491 880.222 95.7255 874.458 L96.5935 870.222 Q98.0866 862.374 101.871 858.659 Q105.621 854.909 111.941 854.909 Q119.475 854.909 123.364 859.979 Q127.253 865.013 127.253 874.77 Q127.253 878.451 126.42 882.617 Q125.586 886.749 123.955 891.194 L116.732 891.194 Q119.128 886.923 120.343 882.826 Q121.559 878.729 121.559 874.77 Q121.559 868.763 119.198 865.499 Q116.836 862.236 112.462 862.236 Q108.642 862.236 106.489 864.597 Q104.337 866.923 103.26 872.27 L102.427 876.541 Q100.864 884.388 97.531 887.895 Q94.1977 891.402 88.2602 891.402 Q81.3853 891.402 77.427 886.576 Q73.4687 881.715 73.4687 873.208 Q73.4687 869.562 74.1284 865.777 Q74.7881 861.993 76.1075 858.034 Z" fill="#000000" fill-rule="nonzero" fill-opacity="1" /><path clip-path="url(#clip330)" d="M102.774 811.923 L126.246 811.923 L126.246 818.312 L102.982 818.312 Q97.4616 818.312 94.7185 820.465 Q91.9755 822.618 91.9755 826.923 Q91.9755 832.097 95.2741 835.083 Q98.5727 838.069 104.267 838.069 L126.246 838.069 L126.246 844.493 L72.2187 844.493 L72.2187 838.069 L93.3991 838.069 Q89.8922 835.777 88.1561 832.687 Q86.42 829.562 86.42 825.5 Q86.42 818.798 90.5866 815.361 Q94.7185 811.923 102.774 811.923 Z" fill="#000000" fill-rule="nonzero" fill-opacity="1" /><path clip-path="url(#clip330)" d="M105.205 765.917 L108.33 765.917 L108.33 795.292 Q114.927 794.875 118.399 791.333 Q121.836 787.757 121.836 781.403 Q121.836 777.722 120.934 774.285 Q120.031 770.812 118.225 767.41 L124.267 767.41 Q125.725 770.847 126.489 774.458 Q127.253 778.069 127.253 781.785 Q127.253 791.09 121.836 796.542 Q116.42 801.958 107.184 801.958 Q97.6352 801.958 92.0449 796.819 Q86.42 791.646 86.42 782.896 Q86.42 775.049 91.4894 770.5 Q96.5241 765.917 105.205 765.917 M103.33 772.306 Q98.0866 772.375 94.9616 775.257 Q91.8366 778.104 91.8366 782.826 Q91.8366 788.173 94.8574 791.403 Q97.8783 794.597 103.364 795.083 L103.33 772.306 Z" fill="#000000" fill-rule="nonzero" fill-opacity="1" /><path clip-path="url(#clip330)" d="M93.2602 729.84 L72.2187 729.84 L72.2187 723.452 L126.246 723.452 L126.246 729.84 L120.413 729.84 Q123.885 731.854 125.586 734.945 Q127.253 738 127.253 742.306 Q127.253 749.354 121.628 753.799 Q116.003 758.208 106.837 758.208 Q97.6699 758.208 92.0449 753.799 Q86.42 749.354 86.42 742.306 Q86.42 738 88.1214 734.945 Q89.788 731.854 93.2602 729.84 M106.837 751.611 Q113.885 751.611 117.913 748.729 Q121.906 745.813 121.906 740.743 Q121.906 735.674 117.913 732.757 Q113.885 729.84 106.837 729.84 Q99.788 729.84 95.7949 732.757 Q91.7672 735.674 91.7672 740.743 Q91.7672 745.813 95.7949 748.729 Q99.788 751.611 106.837 751.611 Z" fill="#000000" fill-rule="nonzero" fill-opacity="1" /><path clip-path="url(#clip330)" d="M72.2881 672.341 Q80.2742 676.994 88.0866 679.25 Q95.8991 681.507 103.92 681.507 Q111.941 681.507 119.823 679.25 Q127.67 676.959 135.621 672.341 L135.621 677.896 Q127.461 683.105 119.58 685.709 Q111.698 688.278 103.92 688.278 Q96.1769 688.278 88.3297 685.709 Q80.4825 683.139 72.2881 677.896 L72.2881 672.341 Z" fill="#000000" fill-rule="nonzero" fill-opacity="1" /><path clip-path="url(#clip330)" d="M103.434 614.945 Q103.434 617.966 106.003 619.702 Q108.573 621.404 113.156 621.404 Q117.67 621.404 120.274 619.702 Q122.843 617.966 122.843 614.945 Q122.843 611.994 120.274 610.293 Q117.67 608.556 113.156 608.556 Q108.607 608.556 106.038 610.293 Q103.434 611.994 103.434 614.945 M99.0241 614.945 Q99.0241 609.459 102.844 606.23 Q106.663 603.001 113.156 603.001 Q119.649 603.001 123.468 606.265 Q127.253 609.494 127.253 614.945 Q127.253 620.501 123.468 623.73 Q119.649 626.959 113.156 626.959 Q106.628 626.959 102.844 623.73 Q99.0241 620.466 99.0241 614.945 M77.8784 650.778 Q77.8784 653.764 80.4825 655.501 Q83.0519 657.202 87.5658 657.202 Q92.1491 657.202 94.7185 655.501 Q97.288 653.799 97.288 650.778 Q97.288 647.758 94.7185 646.056 Q92.1491 644.32 87.5658 644.32 Q83.0867 644.32 80.4825 646.056 Q77.8784 647.792 77.8784 650.778 M73.4687 619.424 L73.4687 613.869 L127.253 646.299 L127.253 651.855 L73.4687 619.424 M73.4687 650.778 Q73.4687 645.292 77.2881 642.028 Q81.0728 638.765 87.5658 638.765 Q94.1283 638.765 97.913 642.028 Q101.698 645.258 101.698 650.778 Q101.698 656.299 97.913 659.528 Q94.0935 662.723 87.5658 662.723 Q81.1075 662.723 77.2881 659.494 Q73.4687 656.264 73.4687 650.778 Z" fill="#000000" fill-rule="nonzero" fill-opacity="1" /><path clip-path="url(#clip330)" d="M72.2881 593.383 L72.2881 587.827 Q80.4825 582.619 88.3297 580.05 Q96.1769 577.445 103.92 577.445 Q111.698 577.445 119.58 580.05 Q127.461 582.619 135.621 587.827 L135.621 593.383 Q127.67 588.765 119.823 586.508 Q111.941 584.216 103.92 584.216 Q95.8991 584.216 88.0866 586.508 Q80.2742 588.765 72.2881 593.383 Z" fill="#000000" fill-rule="nonzero" fill-opacity="1" /><path clip-path="url(#clip330)" d="M1751.66 12.096 L1759.84 12.096 L1759.84 65.6895 L1789.29 65.6895 L1789.29 72.576 L1751.66 72.576 L1751.66 12.096 Z" fill="#000000" fill-rule="nonzero" fill-opacity="1" /><path clip-path="url(#clip330)" d="M1813.68 32.4315 Q1807.68 32.4315 1804.2 37.1306 Q1800.71 41.7891 1800.71 49.9314 Q1800.71 58.0738 1804.16 62.7728 Q1807.64 67.4314 1813.68 67.4314 Q1819.63 67.4314 1823.11 62.7323 Q1826.6 58.0333 1826.6 49.9314 Q1826.6 41.8701 1823.11 37.1711 Q1819.63 32.4315 1813.68 32.4315 M1813.68 26.1121 Q1823.4 26.1121 1828.95 32.4315 Q1834.5 38.7509 1834.5 49.9314 Q1834.5 61.0714 1828.95 67.4314 Q1823.4 73.7508 1813.68 73.7508 Q1803.91 73.7508 1798.36 67.4314 Q1792.85 61.0714 1792.85 49.9314 Q1792.85 38.7509 1798.36 32.4315 Q1803.91 26.1121 1813.68 26.1121 Z" fill="#000000" fill-rule="nonzero" fill-opacity="1" /><path clip-path="url(#clip330)" d="M1867.47 49.7694 Q1858.44 49.7694 1854.95 51.8354 Q1851.47 53.9013 1851.47 58.8839 Q1851.47 62.8538 1854.06 65.2034 Q1856.7 67.5124 1861.19 67.5124 Q1867.39 67.5124 1871.12 63.1374 Q1874.88 58.7219 1874.88 51.4303 L1874.88 49.7694 L1867.47 49.7694 M1882.34 46.6907 L1882.34 72.576 L1874.88 72.576 L1874.88 65.6895 Q1872.33 69.8214 1868.52 71.8063 Q1864.72 73.7508 1859.21 73.7508 Q1852.24 73.7508 1848.11 69.8619 Q1844.02 65.9325 1844.02 59.3701 Q1844.02 51.7138 1849.12 47.825 Q1854.27 43.9361 1864.43 43.9361 L1874.88 43.9361 L1874.88 43.2069 Q1874.88 38.0623 1871.48 35.2672 Q1868.12 32.4315 1862 32.4315 Q1858.11 32.4315 1854.43 33.3632 Q1850.74 34.295 1847.34 36.1584 L1847.34 29.2718 Q1851.43 27.692 1855.28 26.9223 Q1859.13 26.1121 1862.77 26.1121 Q1872.62 26.1121 1877.48 31.2163 Q1882.34 36.3204 1882.34 46.6907 Z" fill="#000000" fill-rule="nonzero" fill-opacity="1" /><path clip-path="url(#clip330)" d="M1927.55 34.0924 L1927.55 9.54393 L1935 9.54393 L1935 72.576 L1927.55 72.576 L1927.55 65.7705 Q1925.2 69.8214 1921.59 71.8063 Q1918.03 73.7508 1913 73.7508 Q1904.78 73.7508 1899.6 67.1883 Q1894.45 60.6258 1894.45 49.9314 Q1894.45 39.2371 1899.6 32.6746 Q1904.78 26.1121 1913 26.1121 Q1918.03 26.1121 1921.59 28.0971 Q1925.2 30.0415 1927.55 34.0924 M1902.15 49.9314 Q1902.15 58.1548 1905.51 62.8538 Q1908.91 67.5124 1914.83 67.5124 Q1920.74 67.5124 1924.14 62.8538 Q1927.55 58.1548 1927.55 49.9314 Q1927.55 41.7081 1924.14 37.0496 Q1920.74 32.3505 1914.83 32.3505 Q1908.91 32.3505 1905.51 37.0496 Q1902.15 41.7081 1902.15 49.9314 Z" fill="#000000" fill-rule="nonzero" fill-opacity="1" /><path clip-path="url(#clip330)" d="M2013.3 14.0809 L2013.3 22.0612 Q2008.65 19.8332 2004.51 18.7395 Q2000.38 17.6457 1996.53 17.6457 Q1989.85 17.6457 1986.2 20.2383 Q1982.6 22.8309 1982.6 27.611 Q1982.6 31.6214 1984.99 33.6873 Q1987.42 35.7128 1994.14 36.9686 L1999.09 37.9813 Q2008.24 39.7232 2012.57 44.1387 Q2016.95 48.5136 2016.95 55.8863 Q2016.95 64.6767 2011.04 69.2137 Q2005.16 73.7508 1993.78 73.7508 Q1989.48 73.7508 1984.62 72.7785 Q1979.8 71.8063 1974.62 69.9024 L1974.62 61.4765 Q1979.6 64.2716 1984.38 65.6895 Q1989.16 67.1073 1993.78 67.1073 Q2000.79 67.1073 2004.59 64.3527 Q2008.4 61.598 2008.4 56.4939 Q2008.4 52.0379 2005.65 49.5264 Q2002.93 47.0148 1996.7 45.759 L1991.71 44.7868 Q1982.56 42.9639 1978.47 39.075 Q1974.37 35.1862 1974.37 28.2591 Q1974.37 20.2383 1980.01 15.6203 Q1985.68 11.0023 1995.6 11.0023 Q1999.85 11.0023 2004.27 11.7719 Q2008.69 12.5416 2013.3 14.0809 Z" fill="#000000" fill-rule="nonzero" fill-opacity="1" /><path clip-path="url(#clip330)" d="M2067.1 45.1919 L2067.1 72.576 L2059.65 72.576 L2059.65 45.4349 Q2059.65 38.994 2057.13 35.7938 Q2054.62 32.5936 2049.6 32.5936 Q2043.56 32.5936 2040.08 36.4419 Q2036.6 40.2903 2036.6 46.9338 L2036.6 72.576 L2029.1 72.576 L2029.1 9.54393 L2036.6 9.54393 L2036.6 34.2544 Q2039.27 30.163 2042.88 28.1376 Q2046.52 26.1121 2051.26 26.1121 Q2059.08 26.1121 2063.09 30.9732 Q2067.1 35.7938 2067.1 45.1919 Z" fill="#000000" fill-rule="nonzero" fill-opacity="1" /><path clip-path="url(#clip330)" d="M2120.77 48.0275 L2120.77 51.6733 L2086.5 51.6733 Q2086.99 59.3701 2091.12 63.421 Q2095.29 67.4314 2102.71 67.4314 Q2107 67.4314 2111.01 66.3781 Q2115.06 65.3249 2119.03 63.2184 L2119.03 70.267 Q2115.02 71.9684 2110.81 72.8596 Q2106.6 73.7508 2102.26 73.7508 Q2091.41 73.7508 2085.05 67.4314 Q2078.73 61.1119 2078.73 50.3365 Q2078.73 39.1965 2084.72 32.6746 Q2090.76 26.1121 2100.97 26.1121 Q2110.12 26.1121 2115.43 32.0264 Q2120.77 37.9003 2120.77 48.0275 M2113.32 45.84 Q2113.24 39.7232 2109.88 36.0774 Q2106.56 32.4315 2101.05 32.4315 Q2094.81 32.4315 2091.04 35.9558 Q2087.31 39.4801 2086.75 45.8805 L2113.32 45.84 Z" fill="#000000" fill-rule="nonzero" fill-opacity="1" /><path clip-path="url(#clip330)" d="M2162.86 34.0924 L2162.86 9.54393 L2170.32 9.54393 L2170.32 72.576 L2162.86 72.576 L2162.86 65.7705 Q2160.51 69.8214 2156.91 71.8063 Q2153.34 73.7508 2148.32 73.7508 Q2140.1 73.7508 2134.91 67.1883 Q2129.77 60.6258 2129.77 49.9314 Q2129.77 39.2371 2134.91 32.6746 Q2140.1 26.1121 2148.32 26.1121 Q2153.34 26.1121 2156.91 28.0971 Q2160.51 30.0415 2162.86 34.0924 M2137.46 49.9314 Q2137.46 58.1548 2140.83 62.8538 Q2144.23 67.5124 2150.14 67.5124 Q2156.06 67.5124 2159.46 62.8538 Q2162.86 58.1548 2162.86 49.9314 Q2162.86 41.7081 2159.46 37.0496 Q2156.06 32.3505 2150.14 32.3505 Q2144.23 32.3505 2140.83 37.0496 Q2137.46 41.7081 2137.46 49.9314 Z" fill="#000000" fill-rule="nonzero" fill-opacity="1" /><path clip-path="url(#clip330)" d="M2220.55 18.8205 L2220.55 41.5461 L2230.84 41.5461 Q2236.55 41.5461 2239.67 38.5889 Q2242.79 35.6318 2242.79 30.163 Q2242.79 24.7348 2239.67 21.7777 Q2236.55 18.8205 2230.84 18.8205 L2220.55 18.8205 M2212.37 12.096 L2230.84 12.096 Q2241.01 12.096 2246.19 16.714 Q2251.42 21.2916 2251.42 30.163 Q2251.42 39.1155 2246.19 43.6931 Q2241.01 48.2706 2230.84 48.2706 L2220.55 48.2706 L2220.55 72.576 L2212.37 72.576 L2212.37 12.096 Z" fill="#000000" fill-rule="nonzero" fill-opacity="1" /><path clip-path="url(#clip330)" d="M2297.92 48.0275 L2297.92 51.6733 L2263.65 51.6733 Q2264.14 59.3701 2268.27 63.421 Q2272.44 67.4314 2279.85 67.4314 Q2284.15 67.4314 2288.16 66.3781 Q2292.21 65.3249 2296.18 63.2184 L2296.18 70.267 Q2292.17 71.9684 2287.96 72.8596 Q2283.74 73.7508 2279.41 73.7508 Q2268.55 73.7508 2262.19 67.4314 Q2255.87 61.1119 2255.87 50.3365 Q2255.87 39.1965 2261.87 32.6746 Q2267.9 26.1121 2278.11 26.1121 Q2287.27 26.1121 2292.57 32.0264 Q2297.92 37.9003 2297.92 48.0275 M2290.47 45.84 Q2290.39 39.7232 2287.02 36.0774 Q2283.7 32.4315 2278.19 32.4315 Q2271.95 32.4315 2268.19 35.9558 Q2264.46 39.4801 2263.89 45.8805 L2290.47 45.84 Z" fill="#000000" fill-rule="nonzero" fill-opacity="1" /><path clip-path="url(#clip330)" d="M2336.44 34.1734 Q2335.19 33.4443 2333.69 33.1202 Q2332.23 32.7556 2330.45 32.7556 Q2324.13 32.7556 2320.73 36.8875 Q2317.36 40.9789 2317.36 48.6757 L2317.36 72.576 L2309.87 72.576 L2309.87 27.2059 L2317.36 27.2059 L2317.36 34.2544 Q2319.71 30.1225 2323.48 28.1376 Q2327.25 26.1121 2332.64 26.1121 Q2333.41 26.1121 2334.34 26.2337 Q2335.27 26.3147 2336.4 26.5172 L2336.44 34.1734 Z" fill="#000000" fill-rule="nonzero" fill-opacity="1" /><path clip-path="url(#clip330)" d="M2379.14 43.6931 L2379.14 65.8515 L2392.27 65.8515 Q2398.87 65.8515 2402.03 63.1374 Q2405.23 60.3828 2405.23 54.752 Q2405.23 49.0808 2402.03 46.4072 Q2398.87 43.6931 2392.27 43.6931 L2379.14 43.6931 M2379.14 18.8205 L2379.14 37.0496 L2391.25 37.0496 Q2397.25 37.0496 2400.17 34.8216 Q2403.12 32.5531 2403.12 27.935 Q2403.12 23.3575 2400.17 21.089 Q2397.25 18.8205 2391.25 18.8205 L2379.14 18.8205 M2370.96 12.096 L2391.86 12.096 Q2401.22 12.096 2406.28 15.9849 Q2411.35 19.8737 2411.35 27.0438 Q2411.35 32.5936 2408.75 35.8748 Q2406.16 39.156 2401.14 39.9662 Q2407.17 41.2625 2410.5 45.3944 Q2413.86 49.4858 2413.86 55.6432 Q2413.86 63.745 2408.35 68.1605 Q2402.84 72.576 2392.67 72.576 L2370.96 72.576 L2370.96 12.096 Z" fill="#000000" fill-rule="nonzero" fill-opacity="1" /><path clip-path="url(#clip330)" d="M2426.78 54.671 L2426.78 27.2059 L2434.23 27.2059 L2434.23 54.3874 Q2434.23 60.8284 2436.74 64.0691 Q2439.26 67.2693 2444.28 67.2693 Q2450.32 67.2693 2453.8 63.421 Q2457.32 59.5726 2457.32 52.9291 L2457.32 27.2059 L2464.78 27.2059 L2464.78 72.576 L2457.32 72.576 L2457.32 65.6084 Q2454.61 69.7404 2451 71.7658 Q2447.44 73.7508 2442.7 73.7508 Q2434.88 73.7508 2430.83 68.8897 Q2426.78 64.0286 2426.78 54.671 M2445.54 26.1121 L2445.54 26.1121 Z" fill="#000000" fill-rule="nonzero" fill-opacity="1" /><path clip-path="url(#clip330)" d="M2509.05 28.5427 L2509.05 35.5912 Q2505.89 33.9709 2502.49 33.1607 Q2499.09 32.3505 2495.44 32.3505 Q2489.89 32.3505 2487.1 34.0519 Q2484.34 35.7533 2484.34 39.156 Q2484.34 41.7486 2486.33 43.2475 Q2488.31 44.7058 2494.31 46.0426 L2496.86 46.6097 Q2504.8 48.3111 2508.12 51.4303 Q2511.48 54.509 2511.48 60.0587 Q2511.48 66.3781 2506.46 70.0644 Q2501.48 73.7508 2492.73 73.7508 Q2489.08 73.7508 2485.11 73.0216 Q2481.18 72.3329 2476.81 70.9151 L2476.81 63.2184 Q2480.94 65.3654 2484.95 66.4591 Q2488.96 67.5124 2492.89 67.5124 Q2498.16 67.5124 2500.99 65.73 Q2503.83 63.9071 2503.83 60.6258 Q2503.83 57.5877 2501.76 55.9673 Q2499.74 54.3469 2492.81 52.8481 L2490.22 52.2405 Q2483.29 50.7821 2480.21 47.7845 Q2477.13 44.7463 2477.13 39.4801 Q2477.13 33.0797 2481.67 29.5959 Q2486.21 26.1121 2494.55 26.1121 Q2498.68 26.1121 2502.33 26.7198 Q2505.97 27.3274 2509.05 28.5427 Z" fill="#000000" fill-rule="nonzero" fill-opacity="1" /><path clip-path="url(#clip330)" d="M2567.63 9.62495 Q2562.2 18.942 2559.57 28.0566 Q2556.94 37.1711 2556.94 46.5287 Q2556.94 55.8863 2559.57 65.0818 Q2562.24 74.2369 2567.63 83.5134 L2561.15 83.5134 Q2555.07 73.9938 2552.03 64.7983 Q2549.04 55.6027 2549.04 46.5287 Q2549.04 37.4952 2552.03 28.3401 Q2555.03 19.1851 2561.15 9.62495 L2567.63 9.62495 Z" fill="#000000" fill-rule="nonzero" fill-opacity="1" /><path clip-path="url(#clip330)" d="M2611.1 44.2197 Q2613.73 45.1109 2616.2 48.0275 Q2618.71 50.9442 2621.22 56.0483 L2629.53 72.576 L2620.74 72.576 L2613 57.061 Q2610 50.9847 2607.17 48.9997 Q2604.37 47.0148 2599.51 47.0148 L2590.6 47.0148 L2590.6 72.576 L2582.42 72.576 L2582.42 12.096 L2600.89 12.096 Q2611.26 12.096 2616.36 16.4305 Q2621.47 20.7649 2621.47 29.5149 Q2621.47 35.2267 2618.79 38.994 Q2616.16 42.7613 2611.1 44.2197 M2590.6 18.8205 L2590.6 40.2903 L2600.89 40.2903 Q2606.8 40.2903 2609.8 37.5762 Q2612.84 34.8216 2612.84 29.5149 Q2612.84 24.2082 2609.8 21.5346 Q2606.8 18.8205 2600.89 18.8205 L2590.6 18.8205 Z" fill="#000000" fill-rule="nonzero" fill-opacity="1" /><path clip-path="url(#clip330)" d="M2674.82 48.0275 L2674.82 51.6733 L2640.55 51.6733 Q2641.03 59.3701 2645.16 63.421 Q2649.34 67.4314 2656.75 67.4314 Q2661.04 67.4314 2665.05 66.3781 Q2669.1 65.3249 2673.07 63.2184 L2673.07 70.267 Q2669.06 71.9684 2664.85 72.8596 Q2660.64 73.7508 2656.3 73.7508 Q2645.45 73.7508 2639.09 67.4314 Q2632.77 61.1119 2632.77 50.3365 Q2632.77 39.1965 2638.76 32.6746 Q2644.8 26.1121 2655.01 26.1121 Q2664.16 26.1121 2669.47 32.0264 Q2674.82 37.9003 2674.82 48.0275 M2667.36 45.84 Q2667.28 39.7232 2663.92 36.0774 Q2660.6 32.4315 2655.09 32.4315 Q2648.85 32.4315 2645.08 35.9558 Q2641.36 39.4801 2640.79 45.8805 L2667.36 45.84 Z" fill="#000000" fill-rule="nonzero" fill-opacity="1" /><path clip-path="url(#clip330)" d="M2687.05 9.54393 L2694.5 9.54393 L2694.5 72.576 L2687.05 72.576 L2687.05 9.54393 Z" fill="#000000" fill-rule="nonzero" fill-opacity="1" /><path clip-path="url(#clip330)" d="M2730.72 49.7694 Q2721.69 49.7694 2718.2 51.8354 Q2714.72 53.9013 2714.72 58.8839 Q2714.72 62.8538 2717.31 65.2034 Q2719.94 67.5124 2724.44 67.5124 Q2730.64 67.5124 2734.36 63.1374 Q2738.13 58.7219 2738.13 51.4303 L2738.13 49.7694 L2730.72 49.7694 M2745.59 46.6907 L2745.59 72.576 L2738.13 72.576 L2738.13 65.6895 Q2735.58 69.8214 2731.77 71.8063 Q2727.96 73.7508 2722.46 73.7508 Q2715.49 73.7508 2711.36 69.8619 Q2707.26 65.9325 2707.26 59.3701 Q2707.26 51.7138 2712.37 47.825 Q2717.51 43.9361 2727.68 43.9361 L2738.13 43.9361 L2738.13 43.2069 Q2738.13 38.0623 2734.73 35.2672 Q2731.37 32.4315 2725.25 32.4315 Q2721.36 32.4315 2717.68 33.3632 Q2713.99 34.295 2710.59 36.1584 L2710.59 29.2718 Q2714.68 27.692 2718.53 26.9223 Q2722.37 26.1121 2726.02 26.1121 Q2735.86 26.1121 2740.72 31.2163 Q2745.59 36.3204 2745.59 46.6907 Z" fill="#000000" fill-rule="nonzero" fill-opacity="1" /><path clip-path="url(#clip330)" d="M2798.65 27.2059 L2782.25 49.2833 L2799.5 72.576 L2790.71 72.576 L2777.51 54.752 L2764.3 72.576 L2755.51 72.576 L2773.13 48.8377 L2757.01 27.2059 L2765.8 27.2059 L2777.83 43.369 L2789.86 27.2059 L2798.65 27.2059 Z" fill="#000000" fill-rule="nonzero" fill-opacity="1" /><path clip-path="url(#clip330)" d="M2846.29 48.0275 L2846.29 51.6733 L2812.02 51.6733 Q2812.51 59.3701 2816.64 63.421 Q2820.81 67.4314 2828.22 67.4314 Q2832.52 67.4314 2836.53 66.3781 Q2840.58 65.3249 2844.55 63.2184 L2844.55 70.267 Q2840.54 71.9684 2836.33 72.8596 Q2832.11 73.7508 2827.78 73.7508 Q2816.92 73.7508 2810.56 67.4314 Q2804.24 61.1119 2804.24 50.3365 Q2804.24 39.1965 2810.24 32.6746 Q2816.27 26.1121 2826.48 26.1121 Q2835.64 26.1121 2840.94 32.0264 Q2846.29 37.9003 2846.29 48.0275 M2838.84 45.84 Q2838.76 39.7232 2835.39 36.0774 Q2832.07 32.4315 2826.56 32.4315 Q2820.33 32.4315 2816.56 35.9558 Q2812.83 39.4801 2812.26 45.8805 L2838.84 45.84 Z" fill="#000000" fill-rule="nonzero" fill-opacity="1" /><path clip-path="url(#clip330)" d="M2888.38 34.0924 L2888.38 9.54393 L2895.83 9.54393 L2895.83 72.576 L2888.38 72.576 L2888.38 65.7705 Q2886.03 69.8214 2882.43 71.8063 Q2878.86 73.7508 2873.84 73.7508 Q2865.61 73.7508 2860.43 67.1883 Q2855.28 60.6258 2855.28 49.9314 Q2855.28 39.2371 2860.43 32.6746 Q2865.61 26.1121 2873.84 26.1121 Q2878.86 26.1121 2882.43 28.0971 Q2886.03 30.0415 2888.38 34.0924 M2862.98 49.9314 Q2862.98 58.1548 2866.34 62.8538 Q2869.75 67.5124 2875.66 67.5124 Q2881.57 67.5124 2884.98 62.8538 Q2888.38 58.1548 2888.38 49.9314 Q2888.38 41.7081 2884.98 37.0496 Q2881.57 32.3505 2875.66 32.3505 Q2869.75 32.3505 2866.34 37.0496 Q2862.98 41.7081 2862.98 49.9314 Z" fill="#000000" fill-rule="nonzero" fill-opacity="1" /><path clip-path="url(#clip330)" d="M2910.01 9.62495 L2916.49 9.62495 Q2922.57 19.1851 2925.57 28.3401 Q2928.61 37.4952 2928.61 46.5287 Q2928.61 55.6027 2925.57 64.7983 Q2922.57 73.9938 2916.49 83.5134 L2910.01 83.5134 Q2915.4 74.2369 2918.03 65.0818 Q2920.71 55.8863 2920.71 46.5287 Q2920.71 37.1711 2918.03 28.0566 Q2915.4 18.942 2910.01 9.62495 Z" fill="#000000" fill-rule="nonzero" fill-opacity="1" /><path clip-path="url(#clip330)" d="M2945.46 62.2867 L2954 62.2867 L2954 72.576 L2945.46 72.576 L2945.46 62.2867 M2945.46 29.6769 L2954 29.6769 L2954 39.9662 L2945.46 39.9662 L2945.46 29.6769 Z" fill="#000000" fill-rule="nonzero" fill-opacity="1" /><path clip-path="url(#clip330)" d="M3033.2 35.9153 Q3036 30.8922 3039.88 28.5022 Q3043.77 26.1121 3049.04 26.1121 Q3056.13 26.1121 3059.98 31.0947 Q3063.82 36.0368 3063.82 45.1919 L3063.82 72.576 L3056.33 72.576 L3056.33 45.4349 Q3056.33 38.913 3054.02 35.7533 Q3051.71 32.5936 3046.97 32.5936 Q3041.18 32.5936 3037.82 36.4419 Q3034.46 40.2903 3034.46 46.9338 L3034.46 72.576 L3026.96 72.576 L3026.96 45.4349 Q3026.96 38.8725 3024.65 35.7533 Q3022.34 32.5936 3017.52 32.5936 Q3011.81 32.5936 3008.45 36.4824 Q3005.09 40.3308 3005.09 46.9338 L3005.09 72.576 L2997.59 72.576 L2997.59 27.2059 L3005.09 27.2059 L3005.09 34.2544 Q3007.64 30.082 3011.2 28.0971 Q3014.77 26.1121 3019.67 26.1121 Q3024.61 26.1121 3028.06 28.6237 Q3031.54 31.1352 3033.2 35.9153 Z" fill="#000000" fill-rule="nonzero" fill-opacity="1" /><path clip-path="url(#clip330)" d="M3096.27 32.4315 Q3090.28 32.4315 3086.79 37.1306 Q3083.31 41.7891 3083.31 49.9314 Q3083.31 58.0738 3086.75 62.7728 Q3090.24 67.4314 3096.27 67.4314 Q3102.23 67.4314 3105.71 62.7323 Q3109.2 58.0333 3109.2 49.9314 Q3109.2 41.8701 3105.71 37.1711 Q3102.23 32.4315 3096.27 32.4315 M3096.27 26.1121 Q3105.99 26.1121 3111.54 32.4315 Q3117.09 38.7509 3117.09 49.9314 Q3117.09 61.0714 3111.54 67.4314 Q3105.99 73.7508 3096.27 73.7508 Q3086.51 73.7508 3080.96 67.4314 Q3075.45 61.0714 3075.45 49.9314 Q3075.45 38.7509 3080.96 32.4315 Q3086.51 26.1121 3096.27 26.1121 Z" fill="#000000" fill-rule="nonzero" fill-opacity="1" /><path clip-path="url(#clip330)" d="M3136.82 14.324 L3136.82 27.2059 L3152.18 27.2059 L3152.18 32.9987 L3136.82 32.9987 L3136.82 57.6282 Q3136.82 63.1779 3138.32 64.7578 Q3139.86 66.3376 3144.52 66.3376 L3152.18 66.3376 L3152.18 72.576 L3144.52 72.576 Q3135.89 72.576 3132.61 69.3758 Q3129.33 66.1351 3129.33 57.6282 L3129.33 32.9987 L3123.86 32.9987 L3123.86 27.2059 L3129.33 27.2059 L3129.33 14.324 L3136.82 14.324 Z" fill="#000000" fill-rule="nonzero" fill-opacity="1" /><path clip-path="url(#clip330)" d="M3161.98 27.2059 L3169.43 27.2059 L3169.43 72.576 L3161.98 72.576 L3161.98 27.2059 M3161.98 9.54393 L3169.43 9.54393 L3169.43 18.9825 L3161.98 18.9825 L3161.98 9.54393 Z" fill="#000000" fill-rule="nonzero" fill-opacity="1" /><path clip-path="url(#clip330)" d="M3179.68 27.2059 L3187.58 27.2059 L3201.76 65.2844 L3215.94 27.2059 L3223.84 27.2059 L3206.82 72.576 L3196.69 72.576 L3179.68 27.2059 Z" fill="#000000" fill-rule="nonzero" fill-opacity="1" /><path clip-path="url(#clip330)" d="M3254.74 49.7694 Q3245.71 49.7694 3242.23 51.8354 Q3238.74 53.9013 3238.74 58.8839 Q3238.74 62.8538 3241.34 65.2034 Q3243.97 67.5124 3248.47 67.5124 Q3254.66 67.5124 3258.39 63.1374 Q3262.16 58.7219 3262.16 51.4303 L3262.16 49.7694 L3254.74 49.7694 M3269.61 46.6907 L3269.61 72.576 L3262.16 72.576 L3262.16 65.6895 Q3259.61 69.8214 3255.8 71.8063 Q3251.99 73.7508 3246.48 73.7508 Q3239.51 73.7508 3235.38 69.8619 Q3231.29 65.9325 3231.29 59.3701 Q3231.29 51.7138 3236.39 47.825 Q3241.54 43.9361 3251.71 43.9361 L3262.16 43.9361 L3262.16 43.2069 Q3262.16 38.0623 3258.75 35.2672 Q3255.39 32.4315 3249.28 32.4315 Q3245.39 32.4315 3241.7 33.3632 Q3238.01 34.295 3234.61 36.1584 L3234.61 29.2718 Q3238.7 27.692 3242.55 26.9223 Q3246.4 26.1121 3250.04 26.1121 Q3259.89 26.1121 3264.75 31.2163 Q3269.61 36.3204 3269.61 46.6907 Z" fill="#000000" fill-rule="nonzero" fill-opacity="1" /><path clip-path="url(#clip330)" d="M3292.34 14.324 L3292.34 27.2059 L3307.69 27.2059 L3307.69 32.9987 L3292.34 32.9987 L3292.34 57.6282 Q3292.34 63.1779 3293.84 64.7578 Q3295.37 66.3376 3300.03 66.3376 L3307.69 66.3376 L3307.69 72.576 L3300.03 72.576 Q3291.4 72.576 3288.12 69.3758 Q3284.84 66.1351 3284.84 57.6282 L3284.84 32.9987 L3279.37 32.9987 L3279.37 27.2059 L3284.84 27.2059 L3284.84 14.324 L3292.34 14.324 Z" fill="#000000" fill-rule="nonzero" fill-opacity="1" /><path clip-path="url(#clip330)" d="M3317.49 27.2059 L3324.95 27.2059 L3324.95 72.576 L3317.49 72.576 L3317.49 27.2059 M3317.49 9.54393 L3324.95 9.54393 L3324.95 18.9825 L3317.49 18.9825 L3317.49 9.54393 Z" fill="#000000" fill-rule="nonzero" fill-opacity="1" /><path clip-path="url(#clip330)" d="M3358.12 32.4315 Q3352.13 32.4315 3348.64 37.1306 Q3345.16 41.7891 3345.16 49.9314 Q3345.16 58.0738 3348.6 62.7728 Q3352.09 67.4314 3358.12 67.4314 Q3364.08 67.4314 3367.56 62.7323 Q3371.05 58.0333 3371.05 49.9314 Q3371.05 41.8701 3367.56 37.1711 Q3364.08 32.4315 3358.12 32.4315 M3358.12 26.1121 Q3367.85 26.1121 3373.39 32.4315 Q3378.94 38.7509 3378.94 49.9314 Q3378.94 61.0714 3373.39 67.4314 Q3367.85 73.7508 3358.12 73.7508 Q3348.36 73.7508 3342.81 67.4314 Q3337.3 61.0714 3337.3 49.9314 Q3337.3 38.7509 3342.81 32.4315 Q3348.36 26.1121 3358.12 26.1121 Z" fill="#000000" fill-rule="nonzero" fill-opacity="1" /><path clip-path="url(#clip330)" d="M3429.01 45.1919 L3429.01 72.576 L3421.56 72.576 L3421.56 45.4349 Q3421.56 38.994 3419.05 35.7938 Q3416.54 32.5936 3411.51 32.5936 Q3405.48 32.5936 3401.99 36.4419 Q3398.51 40.2903 3398.51 46.9338 L3398.51 72.576 L3391.02 72.576 L3391.02 27.2059 L3398.51 27.2059 L3398.51 34.2544 Q3401.18 30.163 3404.79 28.1376 Q3408.44 26.1121 3413.17 26.1121 Q3420.99 26.1121 3425 30.9732 Q3429.01 35.7938 3429.01 45.1919 Z" fill="#000000" fill-rule="nonzero" fill-opacity="1" /><path clip-path="url(#clip330)" d="M3478.35 86.3491 L3478.35 92.1419 L3435.25 92.1419 L3435.25 86.3491 L3478.35 86.3491 Z" fill="#000000" fill-rule="nonzero" fill-opacity="1" /><path clip-path="url(#clip330)" d="M3518.01 28.9478 L3518.01 35.9153 Q3514.85 34.1734 3511.65 33.3227 Q3508.49 32.4315 3505.25 32.4315 Q3498 32.4315 3493.99 37.0496 Q3489.98 41.6271 3489.98 49.9314 Q3489.98 58.2358 3493.99 62.8538 Q3498 67.4314 3505.25 67.4314 Q3508.49 67.4314 3511.65 66.5807 Q3514.85 65.6895 3518.01 63.9476 L3518.01 70.8341 Q3514.89 72.2924 3511.53 73.0216 Q3508.21 73.7508 3504.44 73.7508 Q3494.19 73.7508 3488.16 67.3098 Q3482.12 60.8689 3482.12 49.9314 Q3482.12 38.832 3488.2 32.472 Q3494.31 26.1121 3504.93 26.1121 Q3508.37 26.1121 3511.65 26.8413 Q3514.93 27.5299 3518.01 28.9478 Z" fill="#000000" fill-rule="nonzero" fill-opacity="1" /><path clip-path="url(#clip330)" d="M3565.45 86.3491 L3565.45 92.1419 L3522.35 92.1419 L3522.35 86.3491 L3565.45 86.3491 Z" fill="#000000" fill-rule="nonzero" fill-opacity="1" /><path clip-path="url(#clip330)" d="M3579.67 65.7705 L3579.67 89.8329 L3572.17 89.8329 L3572.17 27.2059 L3579.67 27.2059 L3579.67 34.0924 Q3582.02 30.0415 3585.58 28.0971 Q3589.19 26.1121 3594.17 26.1121 Q3602.43 26.1121 3607.58 32.6746 Q3612.76 39.2371 3612.76 49.9314 Q3612.76 60.6258 3607.58 67.1883 Q3602.43 73.7508 3594.17 73.7508 Q3589.19 73.7508 3585.58 71.8063 Q3582.02 69.8214 3579.67 65.7705 M3605.03 49.9314 Q3605.03 41.7081 3601.62 37.0496 Q3598.26 32.3505 3592.35 32.3505 Q3586.43 32.3505 3583.03 37.0496 Q3579.67 41.7081 3579.67 49.9314 Q3579.67 58.1548 3583.03 62.8538 Q3586.43 67.5124 3592.35 67.5124 Q3598.26 67.5124 3601.62 62.8538 Q3605.03 58.1548 3605.03 49.9314 Z" fill="#000000" fill-rule="nonzero" fill-opacity="1" /><path clip-path="url(#clip330)" d="M3619.77 27.2059 L3627.67 27.2059 L3641.85 65.2844 L3656.03 27.2059 L3663.93 27.2059 L3646.91 72.576 L3636.78 72.576 L3619.77 27.2059 Z" fill="#000000" fill-rule="nonzero" fill-opacity="1" /><path clip-path="url(#clip330)" d="M3708.69 86.3491 L3708.69 92.1419 L3665.59 92.1419 L3665.59 86.3491 L3708.69 86.3491 Z" fill="#000000" fill-rule="nonzero" fill-opacity="1" /><path clip-path="url(#clip330)" d="M3748.27 49.9314 Q3748.27 41.7081 3744.86 37.0496 Q3741.5 32.3505 3735.59 32.3505 Q3729.67 32.3505 3726.27 37.0496 Q3722.91 41.7081 3722.91 49.9314 Q3722.91 58.1548 3726.27 62.8538 Q3729.67 67.5124 3735.59 67.5124 Q3741.5 67.5124 3744.86 62.8538 Q3748.27 58.1548 3748.27 49.9314 M3722.91 34.0924 Q3725.26 30.0415 3728.82 28.0971 Q3732.43 26.1121 3737.41 26.1121 Q3745.67 26.1121 3750.82 32.6746 Q3756 39.2371 3756 49.9314 Q3756 60.6258 3750.82 67.1883 Q3745.67 73.7508 3737.41 73.7508 Q3732.43 73.7508 3728.82 71.8063 Q3725.26 69.8214 3722.91 65.7705 L3722.91 72.576 L3715.41 72.576 L3715.41 9.54393 L3722.91 9.54393 L3722.91 34.0924 Z" fill="#000000" fill-rule="nonzero" fill-opacity="1" /><path clip-path="url(#clip330)" d="M3807.17 48.0275 L3807.17 51.6733 L3772.9 51.6733 Q3773.38 59.3701 3777.51 63.421 Q3781.69 67.4314 3789.1 67.4314 Q3793.39 67.4314 3797.4 66.3781 Q3801.45 65.3249 3805.42 63.2184 L3805.42 70.267 Q3801.41 71.9684 3797.2 72.8596 Q3792.99 73.7508 3788.65 73.7508 Q3777.8 73.7508 3771.44 67.4314 Q3765.12 61.1119 3765.12 50.3365 Q3765.12 39.1965 3771.11 32.6746 Q3777.15 26.1121 3787.36 26.1121 Q3796.51 26.1121 3801.82 32.0264 Q3807.17 37.9003 3807.17 48.0275 M3799.71 45.84 Q3799.63 39.7232 3796.27 36.0774 Q3792.95 32.4315 3787.44 32.4315 Q3781.2 32.4315 3777.43 35.9558 Q3773.71 39.4801 3773.14 45.8805 L3799.71 45.84 Z" fill="#000000" fill-rule="nonzero" fill-opacity="1" /><path clip-path="url(#clip330)" d="M3848.32 28.5427 L3848.32 35.5912 Q3845.16 33.9709 3841.76 33.1607 Q3838.36 32.3505 3834.71 32.3505 Q3829.16 32.3505 3826.37 34.0519 Q3823.61 35.7533 3823.61 39.156 Q3823.61 41.7486 3825.6 43.2475 Q3827.58 44.7058 3833.58 46.0426 L3836.13 46.6097 Q3844.07 48.3111 3847.39 51.4303 Q3850.75 54.509 3850.75 60.0587 Q3850.75 66.3781 3845.73 70.0644 Q3840.75 73.7508 3832 73.7508 Q3828.35 73.7508 3824.38 73.0216 Q3820.45 72.3329 3816.08 70.9151 L3816.08 63.2184 Q3820.21 65.3654 3824.22 66.4591 Q3828.23 67.5124 3832.16 67.5124 Q3837.43 67.5124 3840.26 65.73 Q3843.1 63.9071 3843.1 60.6258 Q3843.1 57.5877 3841.03 55.9673 Q3839.01 54.3469 3832.08 52.8481 L3829.49 52.2405 Q3822.56 50.7821 3819.48 47.7845 Q3816.4 44.7463 3816.4 39.4801 Q3816.4 33.0797 3820.94 29.5959 Q3825.48 26.1121 3833.82 26.1121 Q3837.95 26.1121 3841.6 26.7198 Q3845.24 27.3274 3848.32 28.5427 Z" fill="#000000" fill-rule="nonzero" fill-opacity="1" /><path clip-path="url(#clip330)" d="M3891.55 28.5427 L3891.55 35.5912 Q3888.39 33.9709 3884.98 33.1607 Q3881.58 32.3505 3877.94 32.3505 Q3872.39 32.3505 3869.59 34.0519 Q3866.84 35.7533 3866.84 39.156 Q3866.84 41.7486 3868.82 43.2475 Q3870.81 44.7058 3876.8 46.0426 L3879.35 46.6097 Q3887.29 48.3111 3890.61 51.4303 Q3893.98 54.509 3893.98 60.0587 Q3893.98 66.3781 3888.95 70.0644 Q3883.97 73.7508 3875.22 73.7508 Q3871.58 73.7508 3867.61 73.0216 Q3863.68 72.3329 3859.3 70.9151 L3859.3 63.2184 Q3863.43 65.3654 3867.44 66.4591 Q3871.45 67.5124 3875.38 67.5124 Q3880.65 67.5124 3883.48 65.73 Q3886.32 63.9071 3886.32 60.6258 Q3886.32 57.5877 3884.25 55.9673 Q3882.23 54.3469 3875.3 52.8481 L3872.71 52.2405 Q3865.78 50.7821 3862.7 47.7845 Q3859.63 44.7463 3859.63 39.4801 Q3859.63 33.0797 3864.16 29.5959 Q3868.7 26.1121 3877.04 26.1121 Q3881.18 26.1121 3884.82 26.7198 Q3888.47 27.3274 3891.55 28.5427 Z" fill="#000000" fill-rule="nonzero" fill-opacity="1" /><path clip-path="url(#clip332)" d="M659.478 1981.48 L659.478 1981.48 L1016.73 1981.48 L1016.73 1981.48 L659.478 1981.48 L659.478 1981.48  Z" fill="#4ca566" fill-rule="evenodd" fill-opacity="1"/>
<polyline clip-path="url(#clip332)" style="stroke:#4d4d4d; stroke-linecap:round; stroke-linejoin:round; stroke-width:6; stroke-opacity:1; fill:none" stroke-dasharray="24, 15" points="659.478,1981.48 659.478,1981.48 1016.73,1981.48 1016.73,1981.48 659.478,1981.48 "/>
<path clip-path="url(#clip332)" d="M1155.66 1981.48 L1155.66 1981.48 L1512.91 1981.48 L1512.91 1981.48 L1155.66 1981.48 L1155.66 1981.48  Z" fill="#4ca566" fill-rule="evenodd" fill-opacity="1"/>
<polyline clip-path="url(#clip332)" style="stroke:#4d4d4d; stroke-linecap:round; stroke-linejoin:round; stroke-width:6; stroke-opacity:1; fill:none" stroke-dasharray="24, 15" points="1155.66,1981.48 1155.66,1981.48 1512.91,1981.48 1512.91,1981.48 1155.66,1981.48 "/>
<path clip-path="url(#clip332)" d="M1651.84 164.864 L1651.84 1981.48 L2009.08 1981.48 L2009.08 164.864 L1651.84 164.864 L1651.84 164.864  Z" fill="#4ca566" fill-rule="evenodd" fill-opacity="1"/>
<polyline clip-path="url(#clip332)" style="stroke:#4d4d4d; stroke-linecap:round; stroke-linejoin:round; stroke-width:6; stroke-opacity:1; fill:none" stroke-dasharray="24, 15" points="1651.84,164.864 1651.84,1981.48 2009.08,1981.48 2009.08,164.864 1651.84,164.864 "/>
<path clip-path="url(#clip332)" d="M2148.01 164.864 L2148.01 1981.48 L2505.26 1981.48 L2505.26 164.864 L2148.01 164.864 L2148.01 164.864  Z" fill="#4ca566" fill-rule="evenodd" fill-opacity="1"/>
<polyline clip-path="url(#clip332)" style="stroke:#4d4d4d; stroke-linecap:round; stroke-linejoin:round; stroke-width:6; stroke-opacity:1; fill:none" stroke-dasharray="24, 15" points="2148.01,164.864 2148.01,1981.48 2505.26,1981.48 2505.26,164.864 2148.01,164.864 "/>
<path clip-path="url(#clip332)" d="M2644.19 1981.48 L2644.19 1981.48 L3001.44 1981.48 L3001.44 1981.48 L2644.19 1981.48 L2644.19 1981.48  Z" fill="#4ca566" fill-rule="evenodd" fill-opacity="1"/>
<polyline clip-path="url(#clip332)" style="stroke:#4d4d4d; stroke-linecap:round; stroke-linejoin:round; stroke-width:6; stroke-opacity:1; fill:none" stroke-dasharray="24, 15" points="2644.19,1981.48 2644.19,1981.48 3001.44,1981.48 3001.44,1981.48 2644.19,1981.48 "/>
<path clip-path="url(#clip332)" d="M3140.37 1981.48 L3140.37 1981.48 L3497.62 1981.48 L3497.62 1981.48 L3140.37 1981.48 L3140.37 1981.48  Z" fill="#4ca566" fill-rule="evenodd" fill-opacity="1"/>
<polyline clip-path="url(#clip332)" style="stroke:#4d4d4d; stroke-linecap:round; stroke-linejoin:round; stroke-width:6; stroke-opacity:1; fill:none" stroke-dasharray="24, 15" points="3140.37,1981.48 3140.37,1981.48 3497.62,1981.48 3497.62,1981.48 3140.37,1981.48 "/>
<path clip-path="url(#clip332)" d="M3636.55 1981.48 L3636.55 1981.48 L3993.8 1981.48 L3993.8 1981.48 L3636.55 1981.48 L3636.55 1981.48  Z" fill="#4ca566" fill-rule="evenodd" fill-opacity="1"/>
<polyline clip-path="url(#clip332)" style="stroke:#4d4d4d; stroke-linecap:round; stroke-linejoin:round; stroke-width:6; stroke-opacity:1; fill:none" stroke-dasharray="24, 15" points="3636.55,1981.48 3636.55,1981.48 3993.8,1981.48 3993.8,1981.48 3636.55,1981.48 "/>
<path clip-path="url(#clip332)" d="M4132.73 1981.48 L4132.73 1981.48 L4489.98 1981.48 L4489.98 1981.48 L4132.73 1981.48 L4132.73 1981.48  Z" fill="#4ca566" fill-rule="evenodd" fill-opacity="1"/>
<polyline clip-path="url(#clip332)" style="stroke:#4d4d4d; stroke-linecap:round; stroke-linejoin:round; stroke-width:6; stroke-opacity:1; fill:none" stroke-dasharray="24, 15" points="4132.73,1981.48 4132.73,1981.48 4489.98,1981.48 4489.98,1981.48 4132.73,1981.48 "/>
<path clip-path="url(#clip332)" d="M4628.91 1981.48 L4628.91 1981.48 L4986.15 1981.48 L4986.15 1981.48 L4628.91 1981.48 L4628.91 1981.48  Z" fill="#4ca566" fill-rule="evenodd" fill-opacity="1"/>
<polyline clip-path="url(#clip332)" style="stroke:#4d4d4d; stroke-linecap:round; stroke-linejoin:round; stroke-width:6; stroke-opacity:1; fill:none" stroke-dasharray="24, 15" points="4628.91,1981.48 4628.91,1981.48 4986.15,1981.48 4986.15,1981.48 4628.91,1981.48 "/>
<circle clip-path="url(#clip332)" style="fill:#4ca566; stroke:none; fill-opacity:0" cx="838.102" cy="1981.48" r="2"/>
<circle clip-path="url(#clip332)" style="fill:#4ca566; stroke:none; fill-opacity:0" cx="1334.28" cy="1981.48" r="2"/>
<circle clip-path="url(#clip332)" style="fill:#4ca566; stroke:none; fill-opacity:0" cx="1830.46" cy="164.864" r="2"/>
<circle clip-path="url(#clip332)" style="fill:#4ca566; stroke:none; fill-opacity:0" cx="2326.64" cy="164.864" r="2"/>
<circle clip-path="url(#clip332)" style="fill:#4ca566; stroke:none; fill-opacity:0" cx="2822.82" cy="1981.48" r="2"/>
<circle clip-path="url(#clip332)" style="fill:#4ca566; stroke:none; fill-opacity:0" cx="3318.99" cy="1981.48" r="2"/>
<circle clip-path="url(#clip332)" style="fill:#4ca566; stroke:none; fill-opacity:0" cx="3815.17" cy="1981.48" r="2"/>
<circle clip-path="url(#clip332)" style="fill:#4ca566; stroke:none; fill-opacity:0" cx="4311.35" cy="1981.48" r="2"/>
<circle clip-path="url(#clip332)" style="fill:#4ca566; stroke:none; fill-opacity:0" cx="4807.53" cy="1981.48" r="2"/>
<path clip-path="url(#clip332)" d="M1810.46 1598.16 L1810.46 1638.16 L1850.46 1638.16 L1850.46 1598.16 L1810.46 1598.16 Z" fill="#666666" fill-rule="evenodd" fill-opacity="1" stroke="none"/>
<path clip-path="url(#clip332)" d="M1810.46 1234.83 L1810.46 1274.83 L1850.46 1274.83 L1850.46 1234.83 L1810.46 1234.83 Z" fill="#666666" fill-rule="evenodd" fill-opacity="1" stroke="none"/>
<path clip-path="url(#clip332)" d="M1810.46 871.51 L1810.46 911.51 L1850.46 911.51 L1850.46 871.51 L1810.46 871.51 Z" fill="#666666" fill-rule="evenodd" fill-opacity="1" stroke="none"/>
<path clip-path="url(#clip332)" d="M1810.46 508.187 L1810.46 548.187 L1850.46 548.187 L1850.46 508.187 L1810.46 508.187 Z" fill="#666666" fill-rule="evenodd" fill-opacity="1" stroke="none"/>
<path clip-path="url(#clip332)" d="M2306.64 1598.16 L2306.64 1638.16 L2346.64 1638.16 L2346.64 1598.16 L2306.64 1598.16 Z" fill="#666666" fill-rule="evenodd" fill-opacity="1" stroke="none"/>
<path clip-path="url(#clip332)" d="M2306.64 1234.83 L2306.64 1274.83 L2346.64 1274.83 L2346.64 1234.83 L2306.64 1234.83 Z" fill="#666666" fill-rule="evenodd" fill-opacity="1" stroke="none"/>
<path clip-path="url(#clip332)" d="M2306.64 871.51 L2306.64 911.51 L2346.64 911.51 L2346.64 871.51 L2306.64 871.51 Z" fill="#666666" fill-rule="evenodd" fill-opacity="1" stroke="none"/>
<path clip-path="url(#clip332)" d="M2306.64 508.187 L2306.64 548.187 L2346.64 548.187 L2346.64 508.187 L2306.64 508.187 Z" fill="#666666" fill-rule="evenodd" fill-opacity="1" stroke="none"/>
<path clip-path="url(#clip330)" d="M2371.45 380.938 L3274.19 380.938 L3274.19 225.418 L2371.45 225.418  Z" fill="#ffffff" fill-rule="evenodd" fill-opacity="1"/>
<polyline clip-path="url(#clip330)" style="stroke:#000000; stroke-linecap:round; stroke-linejoin:round; stroke-width:4; stroke-opacity:1; fill:none" points="2371.45,380.938 3274.19,380.938 3274.19,225.418 2371.45,225.418 2371.45,380.938 "/>
<path clip-path="url(#clip330)" d="M2551.37 267.037 L2551.37 339.319 L2623.65 339.319 L2623.65 267.037 L2551.37 267.037 Z" fill="#4ca566" fill-rule="evenodd" fill-opacity="1" stroke="#4d4d4d" stroke-opacity="1" stroke-width="5.42118"/>
<path clip-path="url(#clip330)" d="M2810.59 283.022 L2810.59 302.501 L2819.41 302.501 Q2824.3 302.501 2826.98 299.966 Q2829.65 297.432 2829.65 292.744 Q2829.65 288.091 2826.98 285.557 Q2824.3 283.022 2819.41 283.022 L2810.59 283.022 M2803.58 277.258 L2819.41 277.258 Q2828.12 277.258 2832.57 281.216 Q2837.05 285.14 2837.05 292.744 Q2837.05 300.418 2832.57 304.341 Q2828.12 308.265 2819.41 308.265 L2810.59 308.265 L2810.59 329.098 L2803.58 329.098 L2803.58 277.258 Z" fill="#000000" fill-rule="nonzero" fill-opacity="1" /><path clip-path="url(#clip330)" d="M2867.46 296.182 Q2866.39 295.557 2865.1 295.279 Q2863.85 294.966 2862.33 294.966 Q2856.91 294.966 2853.99 298.508 Q2851.11 302.015 2851.11 308.612 L2851.11 329.098 L2844.69 329.098 L2844.69 290.209 L2851.11 290.209 L2851.11 296.251 Q2853.12 292.709 2856.35 291.008 Q2859.58 289.272 2864.2 289.272 Q2864.86 289.272 2865.66 289.376 Q2866.46 289.446 2867.43 289.619 L2867.46 296.182 Z" fill="#000000" fill-rule="nonzero" fill-opacity="1" /><path clip-path="url(#clip330)" d="M2887.67 294.689 Q2882.53 294.689 2879.55 298.716 Q2876.56 302.709 2876.56 309.688 Q2876.56 316.668 2879.51 320.695 Q2882.5 324.688 2887.67 324.688 Q2892.78 324.688 2895.76 320.661 Q2898.75 316.633 2898.75 309.688 Q2898.75 302.779 2895.76 298.751 Q2892.78 294.689 2887.67 294.689 M2887.67 289.272 Q2896.01 289.272 2900.76 294.689 Q2905.52 300.105 2905.52 309.688 Q2905.52 319.237 2900.76 324.688 Q2896.01 330.105 2887.67 330.105 Q2879.3 330.105 2874.55 324.688 Q2869.83 319.237 2869.83 309.688 Q2869.83 300.105 2874.55 294.689 Q2879.3 289.272 2887.67 289.272 Z" fill="#000000" fill-rule="nonzero" fill-opacity="1" /><path clip-path="url(#clip330)" d="M2922.29 323.265 L2922.29 343.89 L2915.87 343.89 L2915.87 290.209 L2922.29 290.209 L2922.29 296.112 Q2924.3 292.64 2927.36 290.973 Q2930.45 289.272 2934.72 289.272 Q2941.8 289.272 2946.21 294.897 Q2950.66 300.522 2950.66 309.688 Q2950.66 318.855 2946.21 324.48 Q2941.8 330.105 2934.72 330.105 Q2930.45 330.105 2927.36 328.438 Q2924.3 326.737 2922.29 323.265 M2944.03 309.688 Q2944.03 302.64 2941.11 298.647 Q2938.23 294.619 2933.16 294.619 Q2928.09 294.619 2925.17 298.647 Q2922.29 302.64 2922.29 309.688 Q2922.29 316.737 2925.17 320.765 Q2928.09 324.758 2933.16 324.758 Q2938.23 324.758 2941.11 320.765 Q2944.03 316.737 2944.03 309.688 Z" fill="#000000" fill-rule="nonzero" fill-opacity="1" /><path clip-path="url(#clip330)" d="M2976.32 294.689 Q2971.18 294.689 2968.19 298.716 Q2965.21 302.709 2965.21 309.688 Q2965.21 316.668 2968.16 320.695 Q2971.14 324.688 2976.32 324.688 Q2981.42 324.688 2984.41 320.661 Q2987.39 316.633 2987.39 309.688 Q2987.39 302.779 2984.41 298.751 Q2981.42 294.689 2976.32 294.689 M2976.32 289.272 Q2984.65 289.272 2989.41 294.689 Q2994.16 300.105 2994.16 309.688 Q2994.16 319.237 2989.41 324.688 Q2984.65 330.105 2976.32 330.105 Q2967.95 330.105 2963.19 324.688 Q2958.47 319.237 2958.47 309.688 Q2958.47 300.105 2963.19 294.689 Q2967.95 289.272 2976.32 289.272 Z" fill="#000000" fill-rule="nonzero" fill-opacity="1" /><path clip-path="url(#clip330)" d="M3027.29 296.182 Q3026.21 295.557 3024.93 295.279 Q3023.68 294.966 3022.15 294.966 Q3016.73 294.966 3013.82 298.508 Q3010.94 302.015 3010.94 308.612 L3010.94 329.098 L3004.51 329.098 L3004.51 290.209 L3010.94 290.209 L3010.94 296.251 Q3012.95 292.709 3016.18 291.008 Q3019.41 289.272 3024.03 289.272 Q3024.69 289.272 3025.48 289.376 Q3026.28 289.446 3027.25 289.619 L3027.29 296.182 Z" fill="#000000" fill-rule="nonzero" fill-opacity="1" /><path clip-path="url(#clip330)" d="M3040.31 279.168 L3040.31 290.209 L3053.47 290.209 L3053.47 295.175 L3040.31 295.175 L3040.31 316.286 Q3040.31 321.043 3041.59 322.397 Q3042.91 323.751 3046.91 323.751 L3053.47 323.751 L3053.47 329.098 L3046.91 329.098 Q3039.51 329.098 3036.7 326.355 Q3033.89 323.577 3033.89 316.286 L3033.89 295.175 L3029.2 295.175 L3029.2 290.209 L3033.89 290.209 L3033.89 279.168 L3040.31 279.168 Z" fill="#000000" fill-rule="nonzero" fill-opacity="1" /><path clip-path="url(#clip330)" d="M3061.87 290.209 L3068.26 290.209 L3068.26 329.098 L3061.87 329.098 L3061.87 290.209 M3061.87 275.071 L3068.26 275.071 L3068.26 283.161 L3061.87 283.161 L3061.87 275.071 Z" fill="#000000" fill-rule="nonzero" fill-opacity="1" /><path clip-path="url(#clip330)" d="M3096.7 294.689 Q3091.56 294.689 3088.57 298.716 Q3085.59 302.709 3085.59 309.688 Q3085.59 316.668 3088.54 320.695 Q3091.53 324.688 3096.7 324.688 Q3101.8 324.688 3104.79 320.661 Q3107.78 316.633 3107.78 309.688 Q3107.78 302.779 3104.79 298.751 Q3101.8 294.689 3096.7 294.689 M3096.7 289.272 Q3105.03 289.272 3109.79 294.689 Q3114.55 300.105 3114.55 309.688 Q3114.55 319.237 3109.79 324.688 Q3105.03 330.105 3096.7 330.105 Q3088.33 330.105 3083.57 324.688 Q3078.85 319.237 3078.85 309.688 Q3078.85 300.105 3083.57 294.689 Q3088.33 289.272 3096.7 289.272 Z" fill="#000000" fill-rule="nonzero" fill-opacity="1" /><path clip-path="url(#clip330)" d="M3157.46 305.626 L3157.46 329.098 L3151.07 329.098 L3151.07 305.834 Q3151.07 300.314 3148.92 297.57 Q3146.77 294.827 3142.46 294.827 Q3137.29 294.827 3134.3 298.126 Q3131.32 301.425 3131.32 307.119 L3131.32 329.098 L3124.89 329.098 L3124.89 290.209 L3131.32 290.209 L3131.32 296.251 Q3133.61 292.744 3136.7 291.008 Q3139.82 289.272 3143.89 289.272 Q3150.59 289.272 3154.02 293.439 Q3157.46 297.57 3157.46 305.626 Z" fill="#000000" fill-rule="nonzero" fill-opacity="1" /><path clip-path="url(#clip330)" d="M3187.88 309.55 Q3180.14 309.55 3177.15 311.32 Q3174.16 313.091 3174.16 317.362 Q3174.16 320.765 3176.39 322.779 Q3178.64 324.758 3182.5 324.758 Q3187.81 324.758 3191 321.008 Q3194.23 317.223 3194.23 310.973 L3194.23 309.55 L3187.88 309.55 M3200.62 306.911 L3200.62 329.098 L3194.23 329.098 L3194.23 323.195 Q3192.05 326.737 3188.78 328.438 Q3185.52 330.105 3180.8 330.105 Q3174.82 330.105 3171.28 326.772 Q3167.77 323.404 3167.77 317.779 Q3167.77 311.216 3172.15 307.883 Q3176.56 304.55 3185.27 304.55 L3194.23 304.55 L3194.23 303.925 Q3194.23 299.515 3191.32 297.119 Q3188.43 294.689 3183.19 294.689 Q3179.86 294.689 3176.7 295.487 Q3173.54 296.286 3170.62 297.883 L3170.62 291.98 Q3174.13 290.626 3177.43 289.966 Q3180.73 289.272 3183.85 289.272 Q3192.29 289.272 3196.46 293.647 Q3200.62 298.022 3200.62 306.911 Z" fill="#000000" fill-rule="nonzero" fill-opacity="1" /><path clip-path="url(#clip330)" d="M3213.78 275.071 L3220.17 275.071 L3220.17 329.098 L3213.78 329.098 L3213.78 275.071 Z" fill="#000000" fill-rule="nonzero" fill-opacity="1" /></svg>
