<?xml version="1.0" encoding="utf-8"?>
<svg xmlns="http://www.w3.org/2000/svg" xmlns:xlink="http://www.w3.org/1999/xlink" width="600" height="400" viewBox="0 0 2400 1600">
<defs>
  <clipPath id="clip290">
    <rect x="0" y="0" width="2400" height="1600"/>
  </clipPath>
</defs>
<path clip-path="url(#clip290)" d="M0 1600 L2400 1600 L2400 0 L0 0  Z" fill="#ffffff" fill-rule="evenodd" fill-opacity="1"/>
<defs>
  <clipPath id="clip291">
    <rect x="480" y="0" width="1681" height="1600"/>
  </clipPath>
</defs>
<path clip-path="url(#clip290)" d="M309.866 1423.18 L2352.76 1423.18 L2352.76 123.472 L309.866 123.472  Z" fill="#ffffff" fill-rule="evenodd" fill-opacity="1"/>
<defs>
  <clipPath id="clip292">
    <rect x="309" y="123" width="2044" height="1301"/>
  </clipPath>
</defs>
<polyline clip-path="url(#clip292)" style="stroke:#000000; stroke-linecap:round; stroke-linejoin:round; stroke-width:2; stroke-opacity:0.1; fill:none" points="348.519,1423.18 348.519,123.472 "/>
<polyline clip-path="url(#clip292)" style="stroke:#000000; stroke-linecap:round; stroke-linejoin:round; stroke-width:2; stroke-opacity:0.1; fill:none" points="962.764,1423.18 962.764,123.472 "/>
<polyline clip-path="url(#clip292)" style="stroke:#000000; stroke-linecap:round; stroke-linejoin:round; stroke-width:2; stroke-opacity:0.1; fill:none" points="1577.01,1423.18 1577.01,123.472 "/>
<polyline clip-path="url(#clip292)" style="stroke:#000000; stroke-linecap:round; stroke-linejoin:round; stroke-width:2; stroke-opacity:0.1; fill:none" points="2191.25,1423.18 2191.25,123.472 "/>
<polyline clip-path="url(#clip292)" style="stroke:#000000; stroke-linecap:round; stroke-linejoin:round; stroke-width:2; stroke-opacity:0.1; fill:none" points="309.866,1423.18 2352.76,1423.18 "/>
<polyline clip-path="url(#clip292)" style="stroke:#000000; stroke-linecap:round; stroke-linejoin:round; stroke-width:2; stroke-opacity:0.1; fill:none" points="309.866,1098.63 2352.76,1098.63 "/>
<polyline clip-path="url(#clip292)" style="stroke:#000000; stroke-linecap:round; stroke-linejoin:round; stroke-width:2; stroke-opacity:0.1; fill:none" points="309.866,774.07 2352.76,774.07 "/>
<polyline clip-path="url(#clip292)" style="stroke:#000000; stroke-linecap:round; stroke-linejoin:round; stroke-width:2; stroke-opacity:0.1; fill:none" points="309.866,449.516 2352.76,449.516 "/>
<polyline clip-path="url(#clip292)" style="stroke:#000000; stroke-linecap:round; stroke-linejoin:round; stroke-width:2; stroke-opacity:0.1; fill:none" points="309.866,124.961 2352.76,124.961 "/>
<polyline clip-path="url(#clip290)" style="stroke:#000000; stroke-linecap:round; stroke-linejoin:round; stroke-width:4; stroke-opacity:1; fill:none" points="309.866,1423.18 2352.76,1423.18 "/>
<polyline clip-path="url(#clip290)" style="stroke:#000000; stroke-linecap:round; stroke-linejoin:round; stroke-width:4; stroke-opacity:1; fill:none" points="348.519,1423.18 348.519,1404.28 "/>
<polyline clip-path="url(#clip290)" style="stroke:#000000; stroke-linecap:round; stroke-linejoin:round; stroke-width:4; stroke-opacity:1; fill:none" points="962.764,1423.18 962.764,1404.28 "/>
<polyline clip-path="url(#clip290)" style="stroke:#000000; stroke-linecap:round; stroke-linejoin:round; stroke-width:4; stroke-opacity:1; fill:none" points="1577.01,1423.18 1577.01,1404.28 "/>
<polyline clip-path="url(#clip290)" style="stroke:#000000; stroke-linecap:round; stroke-linejoin:round; stroke-width:4; stroke-opacity:1; fill:none" points="2191.25,1423.18 2191.25,1404.28 "/>
<path clip-path="url(#clip290)" d="M348.519 1454.1 Q344.908 1454.1 343.079 1457.66 Q341.274 1461.2 341.274 1468.33 Q341.274 1475.44 343.079 1479.01 Q344.908 1482.55 348.519 1482.55 Q352.153 1482.55 353.959 1479.01 Q355.787 1475.44 355.787 1468.33 Q355.787 1461.2 353.959 1457.66 Q352.153 1454.1 348.519 1454.1 M348.519 1450.39 Q354.329 1450.39 357.385 1455 Q360.463 1459.58 360.463 1468.33 Q360.463 1477.06 357.385 1481.67 Q354.329 1486.25 348.519 1486.25 Q342.709 1486.25 339.63 1481.67 Q336.575 1477.06 336.575 1468.33 Q336.575 1459.58 339.63 1455 Q342.709 1450.39 348.519 1450.39 Z" fill="#000000" fill-rule="nonzero" fill-opacity="1" /><path clip-path="url(#clip290)" d="M953.042 1451.02 L971.398 1451.02 L971.398 1454.96 L957.324 1454.96 L957.324 1463.43 Q958.343 1463.08 959.361 1462.92 Q960.38 1462.73 961.398 1462.73 Q967.185 1462.73 970.565 1465.9 Q973.944 1469.08 973.944 1474.49 Q973.944 1480.07 970.472 1483.17 Q967 1486.25 960.681 1486.25 Q958.505 1486.25 956.236 1485.88 Q953.991 1485.51 951.583 1484.77 L951.583 1480.07 Q953.667 1481.2 955.889 1481.76 Q958.111 1482.32 960.588 1482.32 Q964.593 1482.32 966.931 1480.21 Q969.268 1478.1 969.268 1474.49 Q969.268 1470.88 966.931 1468.77 Q964.593 1466.67 960.588 1466.67 Q958.713 1466.67 956.838 1467.08 Q954.986 1467.5 953.042 1468.38 L953.042 1451.02 Z" fill="#000000" fill-rule="nonzero" fill-opacity="1" /><path clip-path="url(#clip290)" d="M1551.7 1481.64 L1559.34 1481.64 L1559.34 1455.28 L1551.03 1456.95 L1551.03 1452.69 L1559.29 1451.02 L1563.96 1451.02 L1563.96 1481.64 L1571.6 1481.64 L1571.6 1485.58 L1551.7 1485.58 L1551.7 1481.64 Z" fill="#000000" fill-rule="nonzero" fill-opacity="1" /><path clip-path="url(#clip290)" d="M1591.05 1454.1 Q1587.44 1454.1 1585.61 1457.66 Q1583.8 1461.2 1583.8 1468.33 Q1583.8 1475.44 1585.61 1479.01 Q1587.44 1482.55 1591.05 1482.55 Q1594.68 1482.55 1596.49 1479.01 Q1598.32 1475.44 1598.32 1468.33 Q1598.32 1461.2 1596.49 1457.66 Q1594.68 1454.1 1591.05 1454.1 M1591.05 1450.39 Q1596.86 1450.39 1599.91 1455 Q1602.99 1459.58 1602.99 1468.33 Q1602.99 1477.06 1599.91 1481.67 Q1596.86 1486.25 1591.05 1486.25 Q1585.24 1486.25 1582.16 1481.67 Q1579.1 1477.06 1579.1 1468.33 Q1579.1 1459.58 1582.16 1455 Q1585.24 1450.39 1591.05 1450.39 Z" fill="#000000" fill-rule="nonzero" fill-opacity="1" /><path clip-path="url(#clip290)" d="M2166.44 1481.64 L2174.08 1481.64 L2174.08 1455.28 L2165.77 1456.95 L2165.77 1452.69 L2174.03 1451.02 L2178.71 1451.02 L2178.71 1481.64 L2186.35 1481.64 L2186.35 1485.58 L2166.44 1485.58 L2166.44 1481.64 Z" fill="#000000" fill-rule="nonzero" fill-opacity="1" /><path clip-path="url(#clip290)" d="M2195.84 1451.02 L2214.19 1451.02 L2214.19 1454.96 L2200.12 1454.96 L2200.12 1463.43 Q2201.14 1463.08 2202.16 1462.92 Q2203.17 1462.73 2204.19 1462.73 Q2209.98 1462.73 2213.36 1465.9 Q2216.74 1469.08 2216.74 1474.49 Q2216.74 1480.07 2213.27 1483.17 Q2209.8 1486.25 2203.48 1486.25 Q2201.3 1486.25 2199.03 1485.88 Q2196.79 1485.51 2194.38 1484.77 L2194.38 1480.07 Q2196.46 1481.2 2198.68 1481.76 Q2200.91 1482.32 2203.38 1482.32 Q2207.39 1482.32 2209.73 1480.21 Q2212.06 1478.1 2212.06 1474.49 Q2212.06 1470.88 2209.73 1468.77 Q2207.39 1466.67 2203.38 1466.67 Q2201.51 1466.67 2199.63 1467.08 Q2197.78 1467.5 2195.84 1468.38 L2195.84 1451.02 Z" fill="#000000" fill-rule="nonzero" fill-opacity="1" /><path clip-path="url(#clip290)" d="M1213.18 1520.52 L1219.61 1520.52 L1219.61 1562.63 L1242.75 1562.63 L1242.75 1568.04 L1213.18 1568.04 L1213.18 1520.52 Z" fill="#000000" fill-rule="nonzero" fill-opacity="1" /><path clip-path="url(#clip290)" d="M1261.91 1536.5 Q1257.2 1536.5 1254.46 1540.19 Q1251.72 1543.85 1251.72 1550.25 Q1251.72 1556.65 1254.43 1560.34 Q1257.17 1564 1261.91 1564 Q1266.59 1564 1269.32 1560.31 Q1272.06 1556.62 1272.06 1550.25 Q1272.06 1543.92 1269.32 1540.23 Q1266.59 1536.5 1261.91 1536.5 M1261.91 1531.54 Q1269.55 1531.54 1273.91 1536.5 Q1278.27 1541.47 1278.27 1550.25 Q1278.27 1559 1273.91 1564 Q1269.55 1568.97 1261.91 1568.97 Q1254.24 1568.97 1249.88 1564 Q1245.55 1559 1245.55 1550.25 Q1245.55 1541.47 1249.88 1536.5 Q1254.24 1531.54 1261.91 1531.54 Z" fill="#000000" fill-rule="nonzero" fill-opacity="1" /><path clip-path="url(#clip290)" d="M1304.18 1550.12 Q1297.08 1550.12 1294.34 1551.75 Q1291.6 1553.37 1291.6 1557.29 Q1291.6 1560.4 1293.64 1562.25 Q1295.71 1564.07 1299.24 1564.07 Q1304.11 1564.07 1307.04 1560.63 Q1310 1557.16 1310 1551.43 L1310 1550.12 L1304.18 1550.12 M1315.86 1547.71 L1315.86 1568.04 L1310 1568.04 L1310 1562.63 Q1308 1565.88 1305 1567.44 Q1302.01 1568.97 1297.68 1568.97 Q1292.21 1568.97 1288.96 1565.91 Q1285.75 1562.82 1285.75 1557.67 Q1285.75 1551.65 1289.76 1548.6 Q1293.8 1545.54 1301.79 1545.54 L1310 1545.54 L1310 1544.97 Q1310 1540.93 1307.33 1538.73 Q1304.69 1536.5 1299.88 1536.5 Q1296.82 1536.5 1293.93 1537.23 Q1291.03 1537.97 1288.36 1539.43 L1288.36 1534.02 Q1291.57 1532.78 1294.6 1532.17 Q1297.62 1531.54 1300.48 1531.54 Q1308.22 1531.54 1312.04 1535.55 Q1315.86 1539.56 1315.86 1547.71 Z" fill="#000000" fill-rule="nonzero" fill-opacity="1" /><path clip-path="url(#clip290)" d="M1351.38 1537.81 L1351.38 1518.52 L1357.24 1518.52 L1357.24 1568.04 L1351.38 1568.04 L1351.38 1562.7 Q1349.53 1565.88 1346.7 1567.44 Q1343.9 1568.97 1339.95 1568.97 Q1333.49 1568.97 1329.42 1563.81 Q1325.37 1558.65 1325.37 1550.25 Q1325.37 1541.85 1329.42 1536.69 Q1333.49 1531.54 1339.95 1531.54 Q1343.9 1531.54 1346.7 1533.1 Q1349.53 1534.62 1351.38 1537.81 M1331.42 1550.25 Q1331.42 1556.71 1334.06 1560.4 Q1336.74 1564.07 1341.38 1564.07 Q1346.03 1564.07 1348.71 1560.4 Q1351.38 1556.71 1351.38 1550.25 Q1351.38 1543.79 1348.71 1540.13 Q1346.03 1536.44 1341.38 1536.44 Q1336.74 1536.44 1334.06 1540.13 Q1331.42 1543.79 1331.42 1550.25 Z" fill="#000000" fill-rule="nonzero" fill-opacity="1" /><path clip-path="url(#clip290)" d="M1390.27 1520.52 L1396.7 1520.52 L1396.7 1568.04 L1390.27 1568.04 L1390.27 1520.52 Z" fill="#000000" fill-rule="nonzero" fill-opacity="1" /><path clip-path="url(#clip290)" d="M1415.93 1525.81 L1415.93 1562.76 L1423.69 1562.76 Q1433.53 1562.76 1438.08 1558.3 Q1442.66 1553.85 1442.66 1544.24 Q1442.66 1534.69 1438.08 1530.26 Q1433.53 1525.81 1423.69 1525.81 L1415.93 1525.81 M1409.5 1520.52 L1422.71 1520.52 Q1436.52 1520.52 1442.98 1526.28 Q1449.44 1532.01 1449.44 1544.24 Q1449.44 1556.52 1442.95 1562.28 Q1436.46 1568.04 1422.71 1568.04 L1409.5 1568.04 L1409.5 1520.52 Z" fill="#000000" fill-rule="nonzero" fill-opacity="1" /><polyline clip-path="url(#clip290)" style="stroke:#000000; stroke-linecap:round; stroke-linejoin:round; stroke-width:4; stroke-opacity:1; fill:none" points="309.866,1423.18 309.866,123.472 "/>
<polyline clip-path="url(#clip290)" style="stroke:#000000; stroke-linecap:round; stroke-linejoin:round; stroke-width:4; stroke-opacity:1; fill:none" points="309.866,1423.18 328.763,1423.18 "/>
<polyline clip-path="url(#clip290)" style="stroke:#000000; stroke-linecap:round; stroke-linejoin:round; stroke-width:4; stroke-opacity:1; fill:none" points="309.866,1098.63 328.763,1098.63 "/>
<polyline clip-path="url(#clip290)" style="stroke:#000000; stroke-linecap:round; stroke-linejoin:round; stroke-width:4; stroke-opacity:1; fill:none" points="309.866,774.07 328.763,774.07 "/>
<polyline clip-path="url(#clip290)" style="stroke:#000000; stroke-linecap:round; stroke-linejoin:round; stroke-width:4; stroke-opacity:1; fill:none" points="309.866,449.516 328.763,449.516 "/>
<polyline clip-path="url(#clip290)" style="stroke:#000000; stroke-linecap:round; stroke-linejoin:round; stroke-width:4; stroke-opacity:1; fill:none" points="309.866,124.961 328.763,124.961 "/>
<path clip-path="url(#clip290)" d="M126.205 1408.98 Q122.593 1408.98 120.765 1412.54 Q118.959 1416.08 118.959 1423.21 Q118.959 1430.32 120.765 1433.89 Q122.593 1437.43 126.205 1437.43 Q129.839 1437.43 131.644 1433.89 Q133.473 1430.32 133.473 1423.21 Q133.473 1416.08 131.644 1412.54 Q129.839 1408.98 126.205 1408.98 M126.205 1405.27 Q132.015 1405.27 135.07 1409.88 Q138.149 1414.46 138.149 1423.21 Q138.149 1431.94 135.07 1436.55 Q132.015 1441.13 126.205 1441.13 Q120.394 1441.13 117.316 1436.55 Q114.26 1431.94 114.26 1423.21 Q114.26 1414.46 117.316 1409.88 Q120.394 1405.27 126.205 1405.27 Z" fill="#000000" fill-rule="nonzero" fill-opacity="1" /><path clip-path="url(#clip290)" d="M146.366 1434.58 L151.251 1434.58 L151.251 1440.46 L146.366 1440.46 L146.366 1434.58 Z" fill="#000000" fill-rule="nonzero" fill-opacity="1" /><path clip-path="url(#clip290)" d="M171.436 1408.98 Q167.825 1408.98 165.996 1412.54 Q164.19 1416.08 164.19 1423.21 Q164.19 1430.32 165.996 1433.89 Q167.825 1437.43 171.436 1437.43 Q175.07 1437.43 176.876 1433.89 Q178.704 1430.32 178.704 1423.21 Q178.704 1416.08 176.876 1412.54 Q175.07 1408.98 171.436 1408.98 M171.436 1405.27 Q177.246 1405.27 180.301 1409.88 Q183.38 1414.46 183.38 1423.21 Q183.38 1431.94 180.301 1436.55 Q177.246 1441.13 171.436 1441.13 Q165.626 1441.13 162.547 1436.55 Q159.491 1431.94 159.491 1423.21 Q159.491 1414.46 162.547 1409.88 Q165.626 1405.27 171.436 1405.27 Z" fill="#000000" fill-rule="nonzero" fill-opacity="1" /><path clip-path="url(#clip290)" d="M201.598 1408.98 Q197.987 1408.98 196.158 1412.54 Q194.352 1416.08 194.352 1423.21 Q194.352 1430.32 196.158 1433.89 Q197.987 1437.43 201.598 1437.43 Q205.232 1437.43 207.037 1433.89 Q208.866 1430.32 208.866 1423.21 Q208.866 1416.08 207.037 1412.54 Q205.232 1408.98 201.598 1408.98 M201.598 1405.27 Q207.408 1405.27 210.463 1409.88 Q213.542 1414.46 213.542 1423.21 Q213.542 1431.94 210.463 1436.55 Q207.408 1441.13 201.598 1441.13 Q195.787 1441.13 192.709 1436.55 Q189.653 1431.94 189.653 1423.21 Q189.653 1414.46 192.709 1409.88 Q195.787 1405.27 201.598 1405.27 Z" fill="#000000" fill-rule="nonzero" fill-opacity="1" /><path clip-path="url(#clip290)" d="M231.76 1408.98 Q228.148 1408.98 226.32 1412.54 Q224.514 1416.08 224.514 1423.21 Q224.514 1430.32 226.32 1433.89 Q228.148 1437.43 231.76 1437.43 Q235.394 1437.43 237.199 1433.89 Q239.028 1430.32 239.028 1423.21 Q239.028 1416.08 237.199 1412.54 Q235.394 1408.98 231.76 1408.98 M231.76 1405.27 Q237.57 1405.27 240.625 1409.88 Q243.704 1414.46 243.704 1423.21 Q243.704 1431.94 240.625 1436.55 Q237.57 1441.13 231.76 1441.13 Q225.949 1441.13 222.871 1436.55 Q219.815 1431.94 219.815 1423.21 Q219.815 1414.46 222.871 1409.88 Q225.949 1405.27 231.76 1405.27 Z" fill="#000000" fill-rule="nonzero" fill-opacity="1" /><path clip-path="url(#clip290)" d="M261.921 1408.98 Q258.31 1408.98 256.482 1412.54 Q254.676 1416.08 254.676 1423.21 Q254.676 1430.32 256.482 1433.89 Q258.31 1437.43 261.921 1437.43 Q265.556 1437.43 267.361 1433.89 Q269.19 1430.32 269.19 1423.21 Q269.19 1416.08 267.361 1412.54 Q265.556 1408.98 261.921 1408.98 M261.921 1405.27 Q267.732 1405.27 270.787 1409.88 Q273.866 1414.46 273.866 1423.21 Q273.866 1431.94 270.787 1436.55 Q267.732 1441.13 261.921 1441.13 Q256.111 1441.13 253.033 1436.55 Q249.977 1431.94 249.977 1423.21 Q249.977 1414.46 253.033 1409.88 Q256.111 1405.27 261.921 1405.27 Z" fill="#000000" fill-rule="nonzero" fill-opacity="1" /><path clip-path="url(#clip290)" d="M127.2 1084.42 Q123.589 1084.42 121.76 1087.99 Q119.955 1091.53 119.955 1098.66 Q119.955 1105.77 121.76 1109.33 Q123.589 1112.87 127.2 1112.87 Q130.834 1112.87 132.64 1109.33 Q134.468 1105.77 134.468 1098.66 Q134.468 1091.53 132.64 1087.99 Q130.834 1084.42 127.2 1084.42 M127.2 1080.72 Q133.01 1080.72 136.066 1085.33 Q139.144 1089.91 139.144 1098.66 Q139.144 1107.39 136.066 1111.99 Q133.01 1116.58 127.2 1116.58 Q121.39 1116.58 118.311 1111.99 Q115.256 1107.39 115.256 1098.66 Q115.256 1089.91 118.311 1085.33 Q121.39 1080.72 127.2 1080.72 Z" fill="#000000" fill-rule="nonzero" fill-opacity="1" /><path clip-path="url(#clip290)" d="M147.362 1110.03 L152.246 1110.03 L152.246 1115.91 L147.362 1115.91 L147.362 1110.03 Z" fill="#000000" fill-rule="nonzero" fill-opacity="1" /><path clip-path="url(#clip290)" d="M172.431 1084.42 Q168.82 1084.42 166.991 1087.99 Q165.186 1091.53 165.186 1098.66 Q165.186 1105.77 166.991 1109.33 Q168.82 1112.87 172.431 1112.87 Q176.065 1112.87 177.871 1109.33 Q179.7 1105.77 179.7 1098.66 Q179.7 1091.53 177.871 1087.99 Q176.065 1084.42 172.431 1084.42 M172.431 1080.72 Q178.241 1080.72 181.297 1085.33 Q184.376 1089.91 184.376 1098.66 Q184.376 1107.39 181.297 1111.99 Q178.241 1116.58 172.431 1116.58 Q166.621 1116.58 163.542 1111.99 Q160.487 1107.39 160.487 1098.66 Q160.487 1089.91 163.542 1085.33 Q166.621 1080.72 172.431 1080.72 Z" fill="#000000" fill-rule="nonzero" fill-opacity="1" /><path clip-path="url(#clip290)" d="M202.593 1084.42 Q198.982 1084.42 197.153 1087.99 Q195.348 1091.53 195.348 1098.66 Q195.348 1105.77 197.153 1109.33 Q198.982 1112.87 202.593 1112.87 Q206.227 1112.87 208.033 1109.33 Q209.861 1105.77 209.861 1098.66 Q209.861 1091.53 208.033 1087.99 Q206.227 1084.42 202.593 1084.42 M202.593 1080.72 Q208.403 1080.72 211.459 1085.33 Q214.537 1089.91 214.537 1098.66 Q214.537 1107.39 211.459 1111.99 Q208.403 1116.58 202.593 1116.58 Q196.783 1116.58 193.704 1111.99 Q190.649 1107.39 190.649 1098.66 Q190.649 1089.91 193.704 1085.33 Q196.783 1080.72 202.593 1080.72 Z" fill="#000000" fill-rule="nonzero" fill-opacity="1" /><path clip-path="url(#clip290)" d="M226.783 1111.97 L243.102 1111.97 L243.102 1115.91 L221.158 1115.91 L221.158 1111.97 Q223.82 1109.22 228.403 1104.59 Q233.01 1099.93 234.19 1098.59 Q236.435 1096.07 237.315 1094.33 Q238.218 1092.57 238.218 1090.88 Q238.218 1088.13 236.273 1086.39 Q234.352 1084.66 231.25 1084.66 Q229.051 1084.66 226.598 1085.42 Q224.167 1086.18 221.389 1087.73 L221.389 1083.01 Q224.213 1081.88 226.667 1081.3 Q229.121 1080.72 231.158 1080.72 Q236.528 1080.72 239.722 1083.41 Q242.917 1086.09 242.917 1090.58 Q242.917 1092.71 242.107 1094.63 Q241.32 1096.53 239.213 1099.12 Q238.634 1099.79 235.533 1103.01 Q232.431 1106.21 226.783 1111.97 Z" fill="#000000" fill-rule="nonzero" fill-opacity="1" /><path clip-path="url(#clip290)" d="M252.963 1081.35 L271.32 1081.35 L271.32 1085.28 L257.246 1085.28 L257.246 1093.75 Q258.264 1093.41 259.283 1093.24 Q260.301 1093.06 261.32 1093.06 Q267.107 1093.06 270.486 1096.23 Q273.866 1099.4 273.866 1104.82 Q273.866 1110.4 270.394 1113.5 Q266.921 1116.58 260.602 1116.58 Q258.426 1116.58 256.158 1116.21 Q253.912 1115.84 251.505 1115.09 L251.505 1110.4 Q253.588 1111.53 255.81 1112.09 Q258.033 1112.64 260.509 1112.64 Q264.514 1112.64 266.852 1110.53 Q269.19 1108.43 269.19 1104.82 Q269.19 1101.21 266.852 1099.1 Q264.514 1096.99 260.509 1096.99 Q258.634 1096.99 256.759 1097.41 Q254.908 1097.83 252.963 1098.71 L252.963 1081.35 Z" fill="#000000" fill-rule="nonzero" fill-opacity="1" /><path clip-path="url(#clip290)" d="M126.205 759.869 Q122.593 759.869 120.765 763.434 Q118.959 766.975 118.959 774.105 Q118.959 781.211 120.765 784.776 Q122.593 788.318 126.205 788.318 Q129.839 788.318 131.644 784.776 Q133.473 781.211 133.473 774.105 Q133.473 766.975 131.644 763.434 Q129.839 759.869 126.205 759.869 M126.205 756.165 Q132.015 756.165 135.07 760.772 Q138.149 765.355 138.149 774.105 Q138.149 782.832 135.07 787.438 Q132.015 792.022 126.205 792.022 Q120.394 792.022 117.316 787.438 Q114.26 782.832 114.26 774.105 Q114.26 765.355 117.316 760.772 Q120.394 756.165 126.205 756.165 Z" fill="#000000" fill-rule="nonzero" fill-opacity="1" /><path clip-path="url(#clip290)" d="M146.366 785.471 L151.251 785.471 L151.251 791.35 L146.366 791.35 L146.366 785.471 Z" fill="#000000" fill-rule="nonzero" fill-opacity="1" /><path clip-path="url(#clip290)" d="M171.436 759.869 Q167.825 759.869 165.996 763.434 Q164.19 766.975 164.19 774.105 Q164.19 781.211 165.996 784.776 Q167.825 788.318 171.436 788.318 Q175.07 788.318 176.876 784.776 Q178.704 781.211 178.704 774.105 Q178.704 766.975 176.876 763.434 Q175.07 759.869 171.436 759.869 M171.436 756.165 Q177.246 756.165 180.301 760.772 Q183.38 765.355 183.38 774.105 Q183.38 782.832 180.301 787.438 Q177.246 792.022 171.436 792.022 Q165.626 792.022 162.547 787.438 Q159.491 782.832 159.491 774.105 Q159.491 765.355 162.547 760.772 Q165.626 756.165 171.436 756.165 Z" fill="#000000" fill-rule="nonzero" fill-opacity="1" /><path clip-path="url(#clip290)" d="M201.598 759.869 Q197.987 759.869 196.158 763.434 Q194.352 766.975 194.352 774.105 Q194.352 781.211 196.158 784.776 Q197.987 788.318 201.598 788.318 Q205.232 788.318 207.037 784.776 Q208.866 781.211 208.866 774.105 Q208.866 766.975 207.037 763.434 Q205.232 759.869 201.598 759.869 M201.598 756.165 Q207.408 756.165 210.463 760.772 Q213.542 765.355 213.542 774.105 Q213.542 782.832 210.463 787.438 Q207.408 792.022 201.598 792.022 Q195.787 792.022 192.709 787.438 Q189.653 782.832 189.653 774.105 Q189.653 765.355 192.709 760.772 Q195.787 756.165 201.598 756.165 Z" fill="#000000" fill-rule="nonzero" fill-opacity="1" /><path clip-path="url(#clip290)" d="M221.806 756.79 L240.162 756.79 L240.162 760.725 L226.088 760.725 L226.088 769.198 Q227.107 768.85 228.125 768.688 Q229.144 768.503 230.162 768.503 Q235.949 768.503 239.329 771.675 Q242.709 774.846 242.709 780.262 Q242.709 785.841 239.236 788.943 Q235.764 792.022 229.445 792.022 Q227.269 792.022 225 791.651 Q222.755 791.281 220.348 790.54 L220.348 785.841 Q222.431 786.975 224.653 787.531 Q226.875 788.086 229.352 788.086 Q233.357 788.086 235.695 785.98 Q238.033 783.874 238.033 780.262 Q238.033 776.651 235.695 774.545 Q233.357 772.438 229.352 772.438 Q227.477 772.438 225.602 772.855 Q223.75 773.272 221.806 774.151 L221.806 756.79 Z" fill="#000000" fill-rule="nonzero" fill-opacity="1" /><path clip-path="url(#clip290)" d="M261.921 759.869 Q258.31 759.869 256.482 763.434 Q254.676 766.975 254.676 774.105 Q254.676 781.211 256.482 784.776 Q258.31 788.318 261.921 788.318 Q265.556 788.318 267.361 784.776 Q269.19 781.211 269.19 774.105 Q269.19 766.975 267.361 763.434 Q265.556 759.869 261.921 759.869 M261.921 756.165 Q267.732 756.165 270.787 760.772 Q273.866 765.355 273.866 774.105 Q273.866 782.832 270.787 787.438 Q267.732 792.022 261.921 792.022 Q256.111 792.022 253.033 787.438 Q249.977 782.832 249.977 774.105 Q249.977 765.355 253.033 760.772 Q256.111 756.165 261.921 756.165 Z" fill="#000000" fill-rule="nonzero" fill-opacity="1" /><path clip-path="url(#clip290)" d="M127.2 435.314 Q123.589 435.314 121.76 438.879 Q119.955 442.421 119.955 449.55 Q119.955 456.657 121.76 460.222 Q123.589 463.763 127.2 463.763 Q130.834 463.763 132.64 460.222 Q134.468 456.657 134.468 449.55 Q134.468 442.421 132.64 438.879 Q130.834 435.314 127.2 435.314 M127.2 431.611 Q133.01 431.611 136.066 436.217 Q139.144 440.8 139.144 449.55 Q139.144 458.277 136.066 462.884 Q133.01 467.467 127.2 467.467 Q121.39 467.467 118.311 462.884 Q115.256 458.277 115.256 449.55 Q115.256 440.8 118.311 436.217 Q121.39 431.611 127.2 431.611 Z" fill="#000000" fill-rule="nonzero" fill-opacity="1" /><path clip-path="url(#clip290)" d="M147.362 460.916 L152.246 460.916 L152.246 466.796 L147.362 466.796 L147.362 460.916 Z" fill="#000000" fill-rule="nonzero" fill-opacity="1" /><path clip-path="url(#clip290)" d="M172.431 435.314 Q168.82 435.314 166.991 438.879 Q165.186 442.421 165.186 449.55 Q165.186 456.657 166.991 460.222 Q168.82 463.763 172.431 463.763 Q176.065 463.763 177.871 460.222 Q179.7 456.657 179.7 449.55 Q179.7 442.421 177.871 438.879 Q176.065 435.314 172.431 435.314 M172.431 431.611 Q178.241 431.611 181.297 436.217 Q184.376 440.8 184.376 449.55 Q184.376 458.277 181.297 462.884 Q178.241 467.467 172.431 467.467 Q166.621 467.467 163.542 462.884 Q160.487 458.277 160.487 449.55 Q160.487 440.8 163.542 436.217 Q166.621 431.611 172.431 431.611 Z" fill="#000000" fill-rule="nonzero" fill-opacity="1" /><path clip-path="url(#clip290)" d="M202.593 435.314 Q198.982 435.314 197.153 438.879 Q195.348 442.421 195.348 449.55 Q195.348 456.657 197.153 460.222 Q198.982 463.763 202.593 463.763 Q206.227 463.763 208.033 460.222 Q209.861 456.657 209.861 449.55 Q209.861 442.421 208.033 438.879 Q206.227 435.314 202.593 435.314 M202.593 431.611 Q208.403 431.611 211.459 436.217 Q214.537 440.8 214.537 449.55 Q214.537 458.277 211.459 462.884 Q208.403 467.467 202.593 467.467 Q196.783 467.467 193.704 462.884 Q190.649 458.277 190.649 449.55 Q190.649 440.8 193.704 436.217 Q196.783 431.611 202.593 431.611 Z" fill="#000000" fill-rule="nonzero" fill-opacity="1" /><path clip-path="url(#clip290)" d="M221.574 432.236 L243.797 432.236 L243.797 434.226 L231.25 466.796 L226.366 466.796 L238.172 436.171 L221.574 436.171 L221.574 432.236 Z" fill="#000000" fill-rule="nonzero" fill-opacity="1" /><path clip-path="url(#clip290)" d="M252.963 432.236 L271.32 432.236 L271.32 436.171 L257.246 436.171 L257.246 444.643 Q258.264 444.296 259.283 444.134 Q260.301 443.948 261.32 443.948 Q267.107 443.948 270.486 447.12 Q273.866 450.291 273.866 455.708 Q273.866 461.286 270.394 464.388 Q266.921 467.467 260.602 467.467 Q258.426 467.467 256.158 467.096 Q253.912 466.726 251.505 465.985 L251.505 461.286 Q253.588 462.421 255.81 462.976 Q258.033 463.532 260.509 463.532 Q264.514 463.532 266.852 461.425 Q269.19 459.319 269.19 455.708 Q269.19 452.097 266.852 449.99 Q264.514 447.884 260.509 447.884 Q258.634 447.884 256.759 448.3 Q254.908 448.717 252.963 449.597 L252.963 432.236 Z" fill="#000000" fill-rule="nonzero" fill-opacity="1" /><path clip-path="url(#clip290)" d="M126.205 110.759 Q122.593 110.759 120.765 114.324 Q118.959 117.866 118.959 124.996 Q118.959 132.102 120.765 135.667 Q122.593 139.208 126.205 139.208 Q129.839 139.208 131.644 135.667 Q133.473 132.102 133.473 124.996 Q133.473 117.866 131.644 114.324 Q129.839 110.759 126.205 110.759 M126.205 107.056 Q132.015 107.056 135.07 111.662 Q138.149 116.246 138.149 124.996 Q138.149 133.722 135.07 138.329 Q132.015 142.912 126.205 142.912 Q120.394 142.912 117.316 138.329 Q114.26 133.722 114.26 124.996 Q114.26 116.246 117.316 111.662 Q120.394 107.056 126.205 107.056 Z" fill="#000000" fill-rule="nonzero" fill-opacity="1" /><path clip-path="url(#clip290)" d="M146.366 136.361 L151.251 136.361 L151.251 142.241 L146.366 142.241 L146.366 136.361 Z" fill="#000000" fill-rule="nonzero" fill-opacity="1" /><path clip-path="url(#clip290)" d="M171.436 110.759 Q167.825 110.759 165.996 114.324 Q164.19 117.866 164.19 124.996 Q164.19 132.102 165.996 135.667 Q167.825 139.208 171.436 139.208 Q175.07 139.208 176.876 135.667 Q178.704 132.102 178.704 124.996 Q178.704 117.866 176.876 114.324 Q175.07 110.759 171.436 110.759 M171.436 107.056 Q177.246 107.056 180.301 111.662 Q183.38 116.246 183.38 124.996 Q183.38 133.722 180.301 138.329 Q177.246 142.912 171.436 142.912 Q165.626 142.912 162.547 138.329 Q159.491 133.722 159.491 124.996 Q159.491 116.246 162.547 111.662 Q165.626 107.056 171.436 107.056 Z" fill="#000000" fill-rule="nonzero" fill-opacity="1" /><path clip-path="url(#clip290)" d="M192.408 138.306 L200.047 138.306 L200.047 111.94 L191.737 113.607 L191.737 109.347 L200 107.681 L204.676 107.681 L204.676 138.306 L212.315 138.306 L212.315 142.241 L192.408 142.241 L192.408 138.306 Z" fill="#000000" fill-rule="nonzero" fill-opacity="1" /><path clip-path="url(#clip290)" d="M231.76 110.759 Q228.148 110.759 226.32 114.324 Q224.514 117.866 224.514 124.996 Q224.514 132.102 226.32 135.667 Q228.148 139.208 231.76 139.208 Q235.394 139.208 237.199 135.667 Q239.028 132.102 239.028 124.996 Q239.028 117.866 237.199 114.324 Q235.394 110.759 231.76 110.759 M231.76 107.056 Q237.57 107.056 240.625 111.662 Q243.704 116.246 243.704 124.996 Q243.704 133.722 240.625 138.329 Q237.57 142.912 231.76 142.912 Q225.949 142.912 222.871 138.329 Q219.815 133.722 219.815 124.996 Q219.815 116.246 222.871 111.662 Q225.949 107.056 231.76 107.056 Z" fill="#000000" fill-rule="nonzero" fill-opacity="1" /><path clip-path="url(#clip290)" d="M261.921 110.759 Q258.31 110.759 256.482 114.324 Q254.676 117.866 254.676 124.996 Q254.676 132.102 256.482 135.667 Q258.31 139.208 261.921 139.208 Q265.556 139.208 267.361 135.667 Q269.19 132.102 269.19 124.996 Q269.19 117.866 267.361 114.324 Q265.556 110.759 261.921 110.759 M261.921 107.056 Q267.732 107.056 270.787 111.662 Q273.866 116.246 273.866 124.996 Q273.866 133.722 270.787 138.329 Q267.732 142.912 261.921 142.912 Q256.111 142.912 253.033 138.329 Q249.977 133.722 249.977 124.996 Q249.977 116.246 253.033 111.662 Q256.111 107.056 261.921 107.056 Z" fill="#000000" fill-rule="nonzero" fill-opacity="1" /><path clip-path="url(#clip290)" d="M16.4842 1039.99 L16.4842 1012.68 L21.895 1012.68 L21.895 1033.56 L35.8996 1033.56 L35.8996 1014.71 L41.3104 1014.71 L41.3104 1033.56 L64.0042 1033.56 L64.0042 1039.99 L16.4842 1039.99 Z" fill="#000000" fill-rule="nonzero" fill-opacity="1" /><path clip-path="url(#clip290)" d="M46.0847 992.529 Q46.0847 999.627 47.7079 1002.36 Q49.3312 1005.1 53.2461 1005.1 Q56.3653 1005.1 58.2114 1003.06 Q60.0256 1001 60.0256 997.463 Q60.0256 992.593 56.5881 989.665 Q53.1188 986.704 47.3897 986.704 L46.0847 986.704 L46.0847 992.529 M43.6657 980.848 L64.0042 980.848 L64.0042 986.704 L58.5933 986.704 Q61.8398 988.71 63.3994 991.702 Q64.9272 994.693 64.9272 999.022 Q64.9272 1004.5 61.8716 1007.74 Q58.7843 1010.96 53.6281 1010.96 Q47.6125 1010.96 44.5569 1006.95 Q41.5014 1002.91 41.5014 994.916 L41.5014 986.704 L40.9285 986.704 Q36.8862 986.704 34.6901 989.378 Q32.4621 992.02 32.4621 996.826 Q32.4621 999.881 33.1941 1002.78 Q33.9262 1005.67 35.3903 1008.35 L29.9795 1008.35 Q28.7381 1005.13 28.1334 1002.11 Q27.4968 999.086 27.4968 996.221 Q27.4968 988.487 31.5072 984.667 Q35.5176 980.848 43.6657 980.848 Z" fill="#000000" fill-rule="nonzero" fill-opacity="1" /><path clip-path="url(#clip290)" d="M28.3562 968.785 L28.3562 962.929 L64.0042 962.929 L64.0042 968.785 L28.3562 968.785 M14.479 968.785 L14.479 962.929 L21.895 962.929 L21.895 968.785 L14.479 968.785 Z" fill="#000000" fill-rule="nonzero" fill-opacity="1" /><path clip-path="url(#clip290)" d="M33.8307 930.018 Q33.2578 931.005 33.0032 932.182 Q32.7167 933.328 32.7167 934.728 Q32.7167 939.694 35.9632 942.367 Q39.1779 945.009 45.2253 945.009 L64.0042 945.009 L64.0042 950.897 L28.3562 950.897 L28.3562 945.009 L33.8944 945.009 Q30.6479 943.163 29.0883 940.203 Q27.4968 937.243 27.4968 933.01 Q27.4968 932.405 27.5923 931.673 Q27.656 930.941 27.8151 930.05 L33.8307 930.018 Z" fill="#000000" fill-rule="nonzero" fill-opacity="1" /><path clip-path="url(#clip290)" d="M16.4842 902.9 L16.4842 896.471 L58.5933 896.471 L58.5933 873.331 L64.0042 873.331 L64.0042 902.9 L16.4842 902.9 Z" fill="#000000" fill-rule="nonzero" fill-opacity="1" /><path clip-path="url(#clip290)" d="M32.4621 854.17 Q32.4621 858.881 36.1542 861.618 Q39.8145 864.356 46.212 864.356 Q52.6095 864.356 56.3017 861.65 Q59.9619 858.913 59.9619 854.17 Q59.9619 849.492 56.2698 846.754 Q52.5777 844.017 46.212 844.017 Q39.8781 844.017 36.186 846.754 Q32.4621 849.492 32.4621 854.17 M27.4968 854.17 Q27.4968 846.532 32.4621 842.171 Q37.4273 837.811 46.212 837.811 Q54.9649 837.811 59.9619 842.171 Q64.9272 846.532 64.9272 854.17 Q64.9272 861.841 59.9619 866.202 Q54.9649 870.53 46.212 870.53 Q37.4273 870.53 32.4621 866.202 Q27.4968 861.841 27.4968 854.17 Z" fill="#000000" fill-rule="nonzero" fill-opacity="1" /><path clip-path="url(#clip290)" d="M46.0847 811.902 Q46.0847 819 47.7079 821.737 Q49.3312 824.474 53.2461 824.474 Q56.3653 824.474 58.2114 822.437 Q60.0256 820.369 60.0256 816.836 Q60.0256 811.966 56.5881 809.038 Q53.1188 806.078 47.3897 806.078 L46.0847 806.078 L46.0847 811.902 M43.6657 800.221 L64.0042 800.221 L64.0042 806.078 L58.5933 806.078 Q61.8398 808.083 63.3994 811.075 Q64.9272 814.067 64.9272 818.395 Q64.9272 823.87 61.8716 827.116 Q58.7843 830.331 53.6281 830.331 Q47.6125 830.331 44.5569 826.32 Q41.5014 822.278 41.5014 814.289 L41.5014 806.078 L40.9285 806.078 Q36.8862 806.078 34.6901 808.751 Q32.4621 811.393 32.4621 816.199 Q32.4621 819.255 33.1941 822.151 Q33.9262 825.047 35.3903 827.721 L29.9795 827.721 Q28.7381 824.506 28.1334 821.483 Q27.4968 818.459 27.4968 815.594 Q27.4968 807.86 31.5072 804.041 Q35.5176 800.221 43.6657 800.221 Z" fill="#000000" fill-rule="nonzero" fill-opacity="1" /><path clip-path="url(#clip290)" d="M33.7671 764.7 L14.479 764.7 L14.479 758.844 L64.0042 758.844 L64.0042 764.7 L58.657 764.7 Q61.8398 766.547 63.3994 769.379 Q64.9272 772.18 64.9272 776.127 Q64.9272 782.588 59.771 786.662 Q54.6147 790.704 46.212 790.704 Q37.8093 790.704 32.6531 786.662 Q27.4968 782.588 27.4968 776.127 Q27.4968 772.18 29.0564 769.379 Q30.5842 766.547 33.7671 764.7 M46.212 784.657 Q52.6732 784.657 56.3653 782.015 Q60.0256 779.342 60.0256 774.695 Q60.0256 770.048 56.3653 767.374 Q52.6732 764.7 46.212 764.7 Q39.7508 764.7 36.0905 767.374 Q32.3984 770.048 32.3984 774.695 Q32.3984 779.342 36.0905 782.015 Q39.7508 784.657 46.212 784.657 Z" fill="#000000" fill-rule="nonzero" fill-opacity="1" /><path clip-path="url(#clip290)" d="M16.4842 730.039 L16.4842 723.546 L56.6518 713.552 L16.4842 703.59 L16.4842 696.365 L56.6518 686.37 L16.4842 676.408 L16.4842 669.883 L64.0042 681.819 L64.0042 689.903 L22.7544 699.929 L64.0042 710.051 L64.0042 718.135 L16.4842 730.039 Z" fill="#000000" fill-rule="nonzero" fill-opacity="1" /><path clip-path="url(#clip290)" d="M44.7161 634.936 L47.5806 634.936 L47.5806 661.862 Q53.6281 661.481 56.8109 658.234 Q59.9619 654.956 59.9619 649.131 Q59.9619 645.757 59.1344 642.606 Q58.3069 639.423 56.6518 636.304 L62.1899 636.304 Q63.5267 639.455 64.227 642.765 Q64.9272 646.076 64.9272 649.481 Q64.9272 658.011 59.9619 663.008 Q54.9967 667.974 46.5303 667.974 Q37.7774 667.974 32.6531 663.263 Q27.4968 658.52 27.4968 650.5 Q27.4968 643.306 32.1438 639.137 Q36.7589 634.936 44.7161 634.936 M42.9973 640.792 Q38.1912 640.856 35.3266 643.497 Q32.4621 646.107 32.4621 650.436 Q32.4621 655.338 35.2312 658.298 Q38.0002 661.226 43.0292 661.671 L42.9973 640.792 Z" fill="#000000" fill-rule="nonzero" fill-opacity="1" /><path clip-path="url(#clip290)" d="M28.3562 625.323 L28.3562 619.467 L64.0042 619.467 L64.0042 625.323 L28.3562 625.323 M14.479 625.323 L14.479 619.467 L21.895 619.467 L21.895 625.323 L14.479 625.323 Z" fill="#000000" fill-rule="nonzero" fill-opacity="1" /><path clip-path="url(#clip290)" d="M45.7664 583.755 Q39.4007 583.755 35.8996 586.397 Q32.3984 589.007 32.3984 593.749 Q32.3984 598.46 35.8996 601.102 Q39.4007 603.712 45.7664 603.712 Q52.1003 603.712 55.6014 601.102 Q59.1026 598.46 59.1026 593.749 Q59.1026 589.007 55.6014 586.397 Q52.1003 583.755 45.7664 583.755 M59.58 577.899 Q68.683 577.899 73.1071 581.941 Q77.5631 585.983 77.5631 594.322 Q77.5631 597.41 77.0857 600.147 Q76.6401 602.884 75.6852 605.462 L69.9879 605.462 Q71.3884 602.884 72.0568 600.37 Q72.7252 597.855 72.7252 595.245 Q72.7252 589.484 69.7015 586.62 Q66.7096 583.755 60.6303 583.755 L57.7339 583.755 Q60.885 585.569 62.4446 588.402 Q64.0042 591.235 64.0042 595.182 Q64.0042 601.738 59.0071 605.749 Q54.01 609.759 45.7664 609.759 Q37.491 609.759 32.4939 605.749 Q27.4968 601.738 27.4968 595.182 Q27.4968 591.235 29.0564 588.402 Q30.616 585.569 33.7671 583.755 L28.3562 583.755 L28.3562 577.899 L59.58 577.899 Z" fill="#000000" fill-rule="nonzero" fill-opacity="1" /><path clip-path="url(#clip290)" d="M42.4881 536.203 L64.0042 536.203 L64.0042 542.06 L42.679 542.06 Q37.6183 542.06 35.1038 544.033 Q32.5894 546.007 32.5894 549.953 Q32.5894 554.696 35.6131 557.433 Q38.6368 560.17 43.8567 560.17 L64.0042 560.17 L64.0042 566.059 L14.479 566.059 L14.479 560.17 L33.8944 560.17 Q30.6797 558.07 29.0883 555.237 Q27.4968 552.372 27.4968 548.648 Q27.4968 542.505 31.3163 539.354 Q35.1038 536.203 42.4881 536.203 Z" fill="#000000" fill-rule="nonzero" fill-opacity="1" /><path clip-path="url(#clip290)" d="M18.2347 518.73 L28.3562 518.73 L28.3562 506.667 L32.9077 506.667 L32.9077 518.73 L52.2594 518.73 Q56.6199 518.73 57.8613 517.552 Q59.1026 516.342 59.1026 512.682 L59.1026 506.667 L64.0042 506.667 L64.0042 512.682 Q64.0042 519.462 61.4897 522.04 Q58.9434 524.618 52.2594 524.618 L32.9077 524.618 L32.9077 528.915 L28.3562 528.915 L28.3562 524.618 L18.2347 524.618 L18.2347 518.73 Z" fill="#000000" fill-rule="nonzero" fill-opacity="1" /><path clip-path="url(#clip290)" d="M521.819 12.096 L556.575 12.096 L556.575 18.9825 L530.001 18.9825 L530.001 36.8065 L553.983 36.8065 L553.983 43.6931 L530.001 43.6931 L530.001 72.576 L521.819 72.576 L521.819 12.096 Z" fill="#000000" fill-rule="nonzero" fill-opacity="1" /><path clip-path="url(#clip290)" d="M582.218 49.7694 Q573.184 49.7694 569.7 51.8354 Q566.217 53.9013 566.217 58.8839 Q566.217 62.8538 568.809 65.2034 Q571.442 67.5124 575.939 67.5124 Q582.137 67.5124 585.863 63.1374 Q589.631 58.7219 589.631 51.4303 L589.631 49.7694 L582.218 49.7694 M597.084 46.6907 L597.084 72.576 L589.631 72.576 L589.631 65.6895 Q587.079 69.8214 583.271 71.8063 Q579.463 73.7508 573.954 73.7508 Q566.986 73.7508 562.854 69.8619 Q558.763 65.9325 558.763 59.3701 Q558.763 51.7138 563.867 47.825 Q569.012 43.9361 579.179 43.9361 L589.631 43.9361 L589.631 43.2069 Q589.631 38.0623 586.228 35.2672 Q582.866 32.4315 576.749 32.4315 Q572.86 32.4315 569.174 33.3632 Q565.487 34.295 562.085 36.1584 L562.085 29.2718 Q566.176 27.692 570.024 26.9223 Q573.873 26.1121 577.519 26.1121 Q587.362 26.1121 592.223 31.2163 Q597.084 36.3204 597.084 46.6907 Z" fill="#000000" fill-rule="nonzero" fill-opacity="1" /><path clip-path="url(#clip290)" d="M612.437 27.2059 L619.891 27.2059 L619.891 72.576 L612.437 72.576 L612.437 27.2059 M612.437 9.54393 L619.891 9.54393 L619.891 18.9825 L612.437 18.9825 L612.437 9.54393 Z" fill="#000000" fill-rule="nonzero" fill-opacity="1" /><path clip-path="url(#clip290)" d="M661.777 34.1734 Q660.522 33.4443 659.023 33.1202 Q657.564 32.7556 655.782 32.7556 Q649.463 32.7556 646.06 36.8875 Q642.698 40.9789 642.698 48.6757 L642.698 72.576 L635.203 72.576 L635.203 27.2059 L642.698 27.2059 L642.698 34.2544 Q645.047 30.1225 648.815 28.1376 Q652.582 26.1121 657.97 26.1121 Q658.739 26.1121 659.671 26.2337 Q660.603 26.3147 661.737 26.5172 L661.777 34.1734 Z" fill="#000000" fill-rule="nonzero" fill-opacity="1" /><path clip-path="url(#clip290)" d="M696.291 12.096 L704.474 12.096 L704.474 65.6895 L733.924 65.6895 L733.924 72.576 L696.291 72.576 L696.291 12.096 Z" fill="#000000" fill-rule="nonzero" fill-opacity="1" /><path clip-path="url(#clip290)" d="M758.31 32.4315 Q752.315 32.4315 748.831 37.1306 Q745.348 41.7891 745.348 49.9314 Q745.348 58.0738 748.791 62.7728 Q752.275 67.4314 758.31 67.4314 Q764.265 67.4314 767.749 62.7323 Q771.233 58.0333 771.233 49.9314 Q771.233 41.8701 767.749 37.1711 Q764.265 32.4315 758.31 32.4315 M758.31 26.1121 Q768.033 26.1121 773.582 32.4315 Q779.132 38.7509 779.132 49.9314 Q779.132 61.0714 773.582 67.4314 Q768.033 73.7508 758.31 73.7508 Q748.548 73.7508 742.998 67.4314 Q737.489 61.0714 737.489 49.9314 Q737.489 38.7509 742.998 32.4315 Q748.548 26.1121 758.31 26.1121 Z" fill="#000000" fill-rule="nonzero" fill-opacity="1" /><path clip-path="url(#clip290)" d="M812.106 49.7694 Q803.073 49.7694 799.589 51.8354 Q796.105 53.9013 796.105 58.8839 Q796.105 62.8538 798.698 65.2034 Q801.331 67.5124 805.828 67.5124 Q812.025 67.5124 815.752 63.1374 Q819.52 58.7219 819.52 51.4303 L819.52 49.7694 L812.106 49.7694 M826.973 46.6907 L826.973 72.576 L819.52 72.576 L819.52 65.6895 Q816.968 69.8214 813.16 71.8063 Q809.352 73.7508 803.843 73.7508 Q796.875 73.7508 792.743 69.8619 Q788.652 65.9325 788.652 59.3701 Q788.652 51.7138 793.756 47.825 Q798.901 43.9361 809.068 43.9361 L819.52 43.9361 L819.52 43.2069 Q819.52 38.0623 816.117 35.2672 Q812.755 32.4315 806.638 32.4315 Q802.749 32.4315 799.063 33.3632 Q795.376 34.295 791.973 36.1584 L791.973 29.2718 Q796.065 27.692 799.913 26.9223 Q803.762 26.1121 807.407 26.1121 Q817.251 26.1121 822.112 31.2163 Q826.973 36.3204 826.973 46.6907 Z" fill="#000000" fill-rule="nonzero" fill-opacity="1" /><path clip-path="url(#clip290)" d="M872.181 34.0924 L872.181 9.54393 L879.635 9.54393 L879.635 72.576 L872.181 72.576 L872.181 65.7705 Q869.832 69.8214 866.227 71.8063 Q862.662 73.7508 857.639 73.7508 Q849.415 73.7508 844.23 67.1883 Q839.085 60.6258 839.085 49.9314 Q839.085 39.2371 844.23 32.6746 Q849.415 26.1121 857.639 26.1121 Q862.662 26.1121 866.227 28.0971 Q869.832 30.0415 872.181 34.0924 M846.782 49.9314 Q846.782 58.1548 850.144 62.8538 Q853.547 67.5124 859.462 67.5124 Q865.376 67.5124 868.779 62.8538 Q872.181 58.1548 872.181 49.9314 Q872.181 41.7081 868.779 37.0496 Q865.376 32.3505 859.462 32.3505 Q853.547 32.3505 850.144 37.0496 Q846.782 41.7081 846.782 49.9314 Z" fill="#000000" fill-rule="nonzero" fill-opacity="1" /><path clip-path="url(#clip290)" d="M916.296 12.096 L924.56 12.096 L937.279 63.2184 L949.959 12.096 L959.154 12.096 L971.874 63.2184 L984.553 12.096 L992.858 12.096 L977.667 72.576 L967.378 72.576 L954.617 20.0763 L941.735 72.576 L931.446 72.576 L916.296 12.096 Z" fill="#000000" fill-rule="nonzero" fill-opacity="1" /><path clip-path="url(#clip290)" d="M1037.34 48.0275 L1037.34 51.6733 L1003.07 51.6733 Q1003.55 59.3701 1007.68 63.421 Q1011.86 67.4314 1019.27 67.4314 Q1023.56 67.4314 1027.57 66.3781 Q1031.62 65.3249 1035.59 63.2184 L1035.59 70.267 Q1031.58 71.9684 1027.37 72.8596 Q1023.16 73.7508 1018.82 73.7508 Q1007.97 73.7508 1001.61 67.4314 Q995.288 61.1119 995.288 50.3365 Q995.288 39.1965 1001.28 32.6746 Q1007.32 26.1121 1017.53 26.1121 Q1026.68 26.1121 1031.99 32.0264 Q1037.34 37.9003 1037.34 48.0275 M1029.88 45.84 Q1029.8 39.7232 1026.44 36.0774 Q1023.12 32.4315 1017.61 32.4315 Q1011.37 32.4315 1007.6 35.9558 Q1003.88 39.4801 1003.31 45.8805 L1029.88 45.84 Z" fill="#000000" fill-rule="nonzero" fill-opacity="1" /><path clip-path="url(#clip290)" d="M1049.57 27.2059 L1057.02 27.2059 L1057.02 72.576 L1049.57 72.576 L1049.57 27.2059 M1049.57 9.54393 L1057.02 9.54393 L1057.02 18.9825 L1049.57 18.9825 L1049.57 9.54393 Z" fill="#000000" fill-rule="nonzero" fill-opacity="1" /><path clip-path="url(#clip290)" d="M1102.48 49.3643 Q1102.48 41.2625 1099.11 36.8065 Q1095.79 32.3505 1089.76 32.3505 Q1083.76 32.3505 1080.4 36.8065 Q1077.08 41.2625 1077.08 49.3643 Q1077.08 57.4256 1080.4 61.8816 Q1083.76 66.3376 1089.76 66.3376 Q1095.79 66.3376 1099.11 61.8816 Q1102.48 57.4256 1102.48 49.3643 M1109.93 66.9452 Q1109.93 78.5308 1104.78 84.1616 Q1099.64 89.8329 1089.03 89.8329 Q1085.1 89.8329 1081.61 89.2252 Q1078.13 88.6581 1074.85 87.4428 L1074.85 80.1917 Q1078.13 81.9741 1081.33 82.8248 Q1084.53 83.6755 1087.85 83.6755 Q1095.18 83.6755 1098.83 79.8271 Q1102.48 76.0193 1102.48 68.282 L1102.48 64.5957 Q1100.17 68.6061 1096.56 70.5911 Q1092.96 72.576 1087.93 72.576 Q1079.59 72.576 1074.48 66.2161 Q1069.38 59.8562 1069.38 49.3643 Q1069.38 38.832 1074.48 32.472 Q1079.59 26.1121 1087.93 26.1121 Q1092.96 26.1121 1096.56 28.0971 Q1100.17 30.082 1102.48 34.0924 L1102.48 27.2059 L1109.93 27.2059 L1109.93 66.9452 Z" fill="#000000" fill-rule="nonzero" fill-opacity="1" /><path clip-path="url(#clip290)" d="M1163 45.1919 L1163 72.576 L1155.54 72.576 L1155.54 45.4349 Q1155.54 38.994 1153.03 35.7938 Q1150.52 32.5936 1145.5 32.5936 Q1139.46 32.5936 1135.98 36.4419 Q1132.49 40.2903 1132.49 46.9338 L1132.49 72.576 L1125 72.576 L1125 9.54393 L1132.49 9.54393 L1132.49 34.2544 Q1135.17 30.163 1138.77 28.1376 Q1142.42 26.1121 1147.16 26.1121 Q1154.97 26.1121 1158.99 30.9732 Q1163 35.7938 1163 45.1919 Z" fill="#000000" fill-rule="nonzero" fill-opacity="1" /><path clip-path="url(#clip290)" d="M1185.24 14.324 L1185.24 27.2059 L1200.59 27.2059 L1200.59 32.9987 L1185.24 32.9987 L1185.24 57.6282 Q1185.24 63.1779 1186.73 64.7578 Q1188.27 66.3376 1192.93 66.3376 L1200.59 66.3376 L1200.59 72.576 L1192.93 72.576 Q1184.3 72.576 1181.02 69.3758 Q1177.74 66.1351 1177.74 57.6282 L1177.74 32.9987 L1172.27 32.9987 L1172.27 27.2059 L1177.74 27.2059 L1177.74 14.324 L1185.24 14.324 Z" fill="#000000" fill-rule="nonzero" fill-opacity="1" /><path clip-path="url(#clip290)" d="M1239.31 28.5427 L1239.31 35.5912 Q1236.16 33.9709 1232.75 33.1607 Q1229.35 32.3505 1225.7 32.3505 Q1220.15 32.3505 1217.36 34.0519 Q1214.6 35.7533 1214.6 39.156 Q1214.6 41.7486 1216.59 43.2475 Q1218.57 44.7058 1224.57 46.0426 L1227.12 46.6097 Q1235.06 48.3111 1238.38 51.4303 Q1241.75 54.509 1241.75 60.0587 Q1241.75 66.3781 1236.72 70.0644 Q1231.74 73.7508 1222.99 73.7508 Q1219.34 73.7508 1215.37 73.0216 Q1211.44 72.3329 1207.07 70.9151 L1207.07 63.2184 Q1211.2 65.3654 1215.21 66.4591 Q1219.22 67.5124 1223.15 67.5124 Q1228.42 67.5124 1231.25 65.73 Q1234.09 63.9071 1234.09 60.6258 Q1234.09 57.5877 1232.02 55.9673 Q1230 54.3469 1223.07 52.8481 L1220.48 52.2405 Q1213.55 50.7821 1210.47 47.7845 Q1207.39 44.7463 1207.39 39.4801 Q1207.39 33.0797 1211.93 29.5959 Q1216.47 26.1121 1224.81 26.1121 Q1228.94 26.1121 1232.59 26.7198 Q1236.24 27.3274 1239.31 28.5427 Z" fill="#000000" fill-rule="nonzero" fill-opacity="1" /><path clip-path="url(#clip290)" d="M1287.2 65.7705 L1287.2 89.8329 L1279.7 89.8329 L1279.7 27.2059 L1287.2 27.2059 L1287.2 34.0924 Q1289.55 30.0415 1293.11 28.0971 Q1296.72 26.1121 1301.7 26.1121 Q1309.96 26.1121 1315.11 32.6746 Q1320.29 39.2371 1320.29 49.9314 Q1320.29 60.6258 1315.11 67.1883 Q1309.96 73.7508 1301.7 73.7508 Q1296.72 73.7508 1293.11 71.8063 Q1289.55 69.8214 1287.2 65.7705 M1312.56 49.9314 Q1312.56 41.7081 1309.15 37.0496 Q1305.79 32.3505 1299.88 32.3505 Q1293.96 32.3505 1290.56 37.0496 Q1287.2 41.7081 1287.2 49.9314 Q1287.2 58.1548 1290.56 62.8538 Q1293.96 67.5124 1299.88 67.5124 Q1305.79 67.5124 1309.15 62.8538 Q1312.56 58.1548 1312.56 49.9314 Z" fill="#000000" fill-rule="nonzero" fill-opacity="1" /><path clip-path="url(#clip290)" d="M1371.46 48.0275 L1371.46 51.6733 L1337.18 51.6733 Q1337.67 59.3701 1341.8 63.421 Q1345.98 67.4314 1353.39 67.4314 Q1357.68 67.4314 1361.69 66.3781 Q1365.74 65.3249 1369.71 63.2184 L1369.71 70.267 Q1365.7 71.9684 1361.49 72.8596 Q1357.28 73.7508 1352.94 73.7508 Q1342.09 73.7508 1335.73 67.4314 Q1329.41 61.1119 1329.41 50.3365 Q1329.41 39.1965 1335.4 32.6746 Q1341.44 26.1121 1351.65 26.1121 Q1360.8 26.1121 1366.11 32.0264 Q1371.46 37.9003 1371.46 48.0275 M1364 45.84 Q1363.92 39.7232 1360.56 36.0774 Q1357.24 32.4315 1351.73 32.4315 Q1345.49 32.4315 1341.72 35.9558 Q1337.99 39.4801 1337.43 45.8805 L1364 45.84 Z" fill="#000000" fill-rule="nonzero" fill-opacity="1" /><path clip-path="url(#clip290)" d="M1409.98 34.1734 Q1408.72 33.4443 1407.22 33.1202 Q1405.77 32.7556 1403.98 32.7556 Q1397.66 32.7556 1394.26 36.8875 Q1390.9 40.9789 1390.9 48.6757 L1390.9 72.576 L1383.41 72.576 L1383.41 27.2059 L1390.9 27.2059 L1390.9 34.2544 Q1393.25 30.1225 1397.02 28.1376 Q1400.78 26.1121 1406.17 26.1121 Q1406.94 26.1121 1407.87 26.2337 Q1408.8 26.3147 1409.94 26.5172 L1409.98 34.1734 Z" fill="#000000" fill-rule="nonzero" fill-opacity="1" /><path clip-path="url(#clip290)" d="M1444.49 12.096 L1452.68 12.096 L1452.68 65.6895 L1482.13 65.6895 L1482.13 72.576 L1444.49 72.576 L1444.49 12.096 Z" fill="#000000" fill-rule="nonzero" fill-opacity="1" /><path clip-path="url(#clip290)" d="M1506.51 32.4315 Q1500.52 32.4315 1497.03 37.1306 Q1493.55 41.7891 1493.55 49.9314 Q1493.55 58.0738 1496.99 62.7728 Q1500.48 67.4314 1506.51 67.4314 Q1512.47 67.4314 1515.95 62.7323 Q1519.43 58.0333 1519.43 49.9314 Q1519.43 41.8701 1515.95 37.1711 Q1512.47 32.4315 1506.51 32.4315 M1506.51 26.1121 Q1516.23 26.1121 1521.78 32.4315 Q1527.33 38.7509 1527.33 49.9314 Q1527.33 61.0714 1521.78 67.4314 Q1516.23 73.7508 1506.51 73.7508 Q1496.75 73.7508 1491.2 67.4314 Q1485.69 61.0714 1485.69 49.9314 Q1485.69 38.7509 1491.2 32.4315 Q1496.75 26.1121 1506.51 26.1121 Z" fill="#000000" fill-rule="nonzero" fill-opacity="1" /><path clip-path="url(#clip290)" d="M1560.31 49.7694 Q1551.27 49.7694 1547.79 51.8354 Q1544.31 53.9013 1544.31 58.8839 Q1544.31 62.8538 1546.9 65.2034 Q1549.53 67.5124 1554.03 67.5124 Q1560.23 67.5124 1563.95 63.1374 Q1567.72 58.7219 1567.72 51.4303 L1567.72 49.7694 L1560.31 49.7694 M1575.18 46.6907 L1575.18 72.576 L1567.72 72.576 L1567.72 65.6895 Q1565.17 69.8214 1561.36 71.8063 Q1557.55 73.7508 1552.04 73.7508 Q1545.08 73.7508 1540.95 69.8619 Q1536.85 65.9325 1536.85 59.3701 Q1536.85 51.7138 1541.96 47.825 Q1547.1 43.9361 1557.27 43.9361 L1567.72 43.9361 L1567.72 43.2069 Q1567.72 38.0623 1564.32 35.2672 Q1560.96 32.4315 1554.84 32.4315 Q1550.95 32.4315 1547.26 33.3632 Q1543.58 34.295 1540.18 36.1584 L1540.18 29.2718 Q1544.27 27.692 1548.12 26.9223 Q1551.96 26.1121 1555.61 26.1121 Q1565.45 26.1121 1570.31 31.2163 Q1575.18 36.3204 1575.18 46.6907 Z" fill="#000000" fill-rule="nonzero" fill-opacity="1" /><path clip-path="url(#clip290)" d="M1620.38 34.0924 L1620.38 9.54393 L1627.84 9.54393 L1627.84 72.576 L1620.38 72.576 L1620.38 65.7705 Q1618.03 69.8214 1614.43 71.8063 Q1610.86 73.7508 1605.84 73.7508 Q1597.62 73.7508 1592.43 67.1883 Q1587.29 60.6258 1587.29 49.9314 Q1587.29 39.2371 1592.43 32.6746 Q1597.62 26.1121 1605.84 26.1121 Q1610.86 26.1121 1614.43 28.0971 Q1618.03 30.0415 1620.38 34.0924 M1594.98 49.9314 Q1594.98 58.1548 1598.35 62.8538 Q1601.75 67.5124 1607.66 67.5124 Q1613.58 67.5124 1616.98 62.8538 Q1620.38 58.1548 1620.38 49.9314 Q1620.38 41.7081 1616.98 37.0496 Q1613.58 32.3505 1607.66 32.3505 Q1601.75 32.3505 1598.35 37.0496 Q1594.98 41.7081 1594.98 49.9314 Z" fill="#000000" fill-rule="nonzero" fill-opacity="1" /><path clip-path="url(#clip290)" d="M1665.79 46.5287 L1687.63 46.5287 L1687.63 53.1722 L1665.79 53.1722 L1665.79 46.5287 Z" fill="#000000" fill-rule="nonzero" fill-opacity="1" /><path clip-path="url(#clip290)" d="M1726.19 12.096 L1734.38 12.096 L1734.38 72.576 L1726.19 72.576 L1726.19 12.096 Z" fill="#000000" fill-rule="nonzero" fill-opacity="1" /><path clip-path="url(#clip290)" d="M1757.71 14.324 L1757.71 27.2059 L1773.06 27.2059 L1773.06 32.9987 L1757.71 32.9987 L1757.71 57.6282 Q1757.71 63.1779 1759.21 64.7578 Q1760.75 66.3376 1765.41 66.3376 L1773.06 66.3376 L1773.06 72.576 L1765.41 72.576 Q1756.78 72.576 1753.5 69.3758 Q1750.21 66.1351 1750.21 57.6282 L1750.21 32.9987 L1744.75 32.9987 L1744.75 27.2059 L1750.21 27.2059 L1750.21 14.324 L1757.71 14.324 Z" fill="#000000" fill-rule="nonzero" fill-opacity="1" /><path clip-path="url(#clip290)" d="M1821.67 48.0275 L1821.67 51.6733 L1787.4 51.6733 Q1787.89 59.3701 1792.02 63.421 Q1796.19 67.4314 1803.61 67.4314 Q1807.9 67.4314 1811.91 66.3781 Q1815.96 65.3249 1819.93 63.2184 L1819.93 70.267 Q1815.92 71.9684 1811.71 72.8596 Q1807.49 73.7508 1803.16 73.7508 Q1792.3 73.7508 1785.94 67.4314 Q1779.62 61.1119 1779.62 50.3365 Q1779.62 39.1965 1785.62 32.6746 Q1791.66 26.1121 1801.86 26.1121 Q1811.02 26.1121 1816.33 32.0264 Q1821.67 37.9003 1821.67 48.0275 M1814.22 45.84 Q1814.14 39.7232 1810.78 36.0774 Q1807.45 32.4315 1801.94 32.4315 Q1795.71 32.4315 1791.94 35.9558 Q1788.21 39.4801 1787.65 45.8805 L1814.22 45.84 Z" fill="#000000" fill-rule="nonzero" fill-opacity="1" /><path clip-path="url(#clip290)" d="M1860.2 34.1734 Q1858.94 33.4443 1857.44 33.1202 Q1855.98 32.7556 1854.2 32.7556 Q1847.88 32.7556 1844.48 36.8875 Q1841.12 40.9789 1841.12 48.6757 L1841.12 72.576 L1833.62 72.576 L1833.62 27.2059 L1841.12 27.2059 L1841.12 34.2544 Q1843.47 30.1225 1847.23 28.1376 Q1851 26.1121 1856.39 26.1121 Q1857.16 26.1121 1858.09 26.2337 Q1859.02 26.3147 1860.16 26.5172 L1860.2 34.1734 Z" fill="#000000" fill-rule="nonzero" fill-opacity="1" /><path clip-path="url(#clip290)" d="M1888.63 49.7694 Q1879.6 49.7694 1876.12 51.8354 Q1872.63 53.9013 1872.63 58.8839 Q1872.63 62.8538 1875.23 65.2034 Q1877.86 67.5124 1882.36 67.5124 Q1888.55 67.5124 1892.28 63.1374 Q1896.05 58.7219 1896.05 51.4303 L1896.05 49.7694 L1888.63 49.7694 M1903.5 46.6907 L1903.5 72.576 L1896.05 72.576 L1896.05 65.6895 Q1893.5 69.8214 1889.69 71.8063 Q1885.88 73.7508 1880.37 73.7508 Q1873.4 73.7508 1869.27 69.8619 Q1865.18 65.9325 1865.18 59.3701 Q1865.18 51.7138 1870.28 47.825 Q1875.43 43.9361 1885.6 43.9361 L1896.05 43.9361 L1896.05 43.2069 Q1896.05 38.0623 1892.64 35.2672 Q1889.28 32.4315 1883.17 32.4315 Q1879.28 32.4315 1875.59 33.3632 Q1871.9 34.295 1868.5 36.1584 L1868.5 29.2718 Q1872.59 27.692 1876.44 26.9223 Q1880.29 26.1121 1883.94 26.1121 Q1893.78 26.1121 1898.64 31.2163 Q1903.5 36.3204 1903.5 46.6907 Z" fill="#000000" fill-rule="nonzero" fill-opacity="1" /><path clip-path="url(#clip290)" d="M1926.23 14.324 L1926.23 27.2059 L1941.58 27.2059 L1941.58 32.9987 L1926.23 32.9987 L1926.23 57.6282 Q1926.23 63.1779 1927.73 64.7578 Q1929.26 66.3376 1933.92 66.3376 L1941.58 66.3376 L1941.58 72.576 L1933.92 72.576 Q1925.29 72.576 1922.01 69.3758 Q1918.73 66.1351 1918.73 57.6282 L1918.73 32.9987 L1913.26 32.9987 L1913.26 27.2059 L1918.73 27.2059 L1918.73 14.324 L1926.23 14.324 Z" fill="#000000" fill-rule="nonzero" fill-opacity="1" /><path clip-path="url(#clip290)" d="M1951.38 27.2059 L1958.84 27.2059 L1958.84 72.576 L1951.38 72.576 L1951.38 27.2059 M1951.38 9.54393 L1958.84 9.54393 L1958.84 18.9825 L1951.38 18.9825 L1951.38 9.54393 Z" fill="#000000" fill-rule="nonzero" fill-opacity="1" /><path clip-path="url(#clip290)" d="M1992.01 32.4315 Q1986.02 32.4315 1982.53 37.1306 Q1979.05 41.7891 1979.05 49.9314 Q1979.05 58.0738 1982.49 62.7728 Q1985.98 67.4314 1992.01 67.4314 Q1997.97 67.4314 2001.45 62.7323 Q2004.94 58.0333 2004.94 49.9314 Q2004.94 41.8701 2001.45 37.1711 Q1997.97 32.4315 1992.01 32.4315 M1992.01 26.1121 Q2001.74 26.1121 2007.29 32.4315 Q2012.83 38.7509 2012.83 49.9314 Q2012.83 61.0714 2007.29 67.4314 Q2001.74 73.7508 1992.01 73.7508 Q1982.25 73.7508 1976.7 67.4314 Q1971.19 61.0714 1971.19 49.9314 Q1971.19 38.7509 1976.7 32.4315 Q1982.25 26.1121 1992.01 26.1121 Z" fill="#000000" fill-rule="nonzero" fill-opacity="1" /><path clip-path="url(#clip290)" d="M2062.9 45.1919 L2062.9 72.576 L2055.45 72.576 L2055.45 45.4349 Q2055.45 38.994 2052.94 35.7938 Q2050.43 32.5936 2045.4 32.5936 Q2039.37 32.5936 2035.88 36.4419 Q2032.4 40.2903 2032.4 46.9338 L2032.4 72.576 L2024.91 72.576 L2024.91 27.2059 L2032.4 27.2059 L2032.4 34.2544 Q2035.07 30.163 2038.68 28.1376 Q2042.33 26.1121 2047.07 26.1121 Q2054.88 26.1121 2058.89 30.9732 Q2062.9 35.7938 2062.9 45.1919 Z" fill="#000000" fill-rule="nonzero" fill-opacity="1" /><path clip-path="url(#clip290)" d="M2112.24 65.6895 L2140.8 65.6895 L2140.8 72.576 L2102.4 72.576 L2102.4 65.6895 Q2107.06 60.8689 2115.08 52.7671 Q2123.14 44.6248 2125.21 42.2752 Q2129.14 37.8598 2130.68 34.8216 Q2132.26 31.7429 2132.26 28.7857 Q2132.26 23.9651 2128.85 20.927 Q2125.49 17.8888 2120.06 17.8888 Q2116.21 17.8888 2111.92 19.2256 Q2107.67 20.5624 2102.81 23.2765 L2102.81 15.0127 Q2107.75 13.0277 2112.04 12.015 Q2116.34 11.0023 2119.9 11.0023 Q2129.3 11.0023 2134.89 15.7013 Q2140.48 20.4004 2140.48 28.2591 Q2140.48 31.9859 2139.06 35.3482 Q2137.68 38.6699 2134 43.2069 Q2132.98 44.3817 2127.56 50.0125 Q2122.13 55.6027 2112.24 65.6895 Z" fill="#000000" fill-rule="nonzero" fill-opacity="1" /><path clip-path="url(#clip292)" d="M913.624 131.124 L913.624 1423.18 L1011.9 1423.18 L1011.9 131.124 L913.624 131.124 L913.624 131.124  Z" fill="#009af9" fill-rule="evenodd" fill-opacity="1"/>
<polyline clip-path="url(#clip292)" style="stroke:#000000; stroke-linecap:round; stroke-linejoin:round; stroke-width:4; stroke-opacity:1; fill:none" points="913.624,131.124 913.624,1423.18 1011.9,1423.18 1011.9,131.124 913.624,131.124 "/>
<path clip-path="url(#clip292)" d="M1773.57 123.472 L1773.57 1423.18 L1871.85 1423.18 L1871.85 123.472 L1773.57 123.472 L1773.57 123.472  Z" fill="#009af9" fill-rule="evenodd" fill-opacity="1"/>
<polyline clip-path="url(#clip292)" style="stroke:#000000; stroke-linecap:round; stroke-linejoin:round; stroke-width:4; stroke-opacity:1; fill:none" points="1773.57,123.472 1773.57,1423.18 1871.85,1423.18 1871.85,123.472 1773.57,123.472 "/>
<path clip-path="url(#clip292)" d="M1282.17 124.394 L1282.17 1423.18 L1380.45 1423.18 L1380.45 124.394 L1282.17 124.394 L1282.17 124.394  Z" fill="#009af9" fill-rule="evenodd" fill-opacity="1"/>
<polyline clip-path="url(#clip292)" style="stroke:#000000; stroke-linecap:round; stroke-linejoin:round; stroke-width:4; stroke-opacity:1; fill:none" points="1282.17,124.394 1282.17,1423.18 1380.45,1423.18 1380.45,124.394 1282.17,124.394 "/>
<path clip-path="url(#clip292)" d="M422.228 124.213 L422.228 1423.18 L520.508 1423.18 L520.508 124.213 L422.228 124.213 L422.228 124.213  Z" fill="#009af9" fill-rule="evenodd" fill-opacity="1"/>
<polyline clip-path="url(#clip292)" style="stroke:#000000; stroke-linecap:round; stroke-linejoin:round; stroke-width:4; stroke-opacity:1; fill:none" points="422.228,124.213 422.228,1423.18 520.508,1423.18 520.508,124.213 422.228,124.213 "/>
<path clip-path="url(#clip292)" d="M1036.47 125.427 L1036.47 1423.18 L1134.75 1423.18 L1134.75 125.427 L1036.47 125.427 L1036.47 125.427  Z" fill="#009af9" fill-rule="evenodd" fill-opacity="1"/>
<polyline clip-path="url(#clip292)" style="stroke:#000000; stroke-linecap:round; stroke-linejoin:round; stroke-width:4; stroke-opacity:1; fill:none" points="1036.47,125.427 1036.47,1423.18 1134.75,1423.18 1134.75,125.427 1036.47,125.427 "/>
<path clip-path="url(#clip292)" d="M1650.72 128.008 L1650.72 1423.18 L1749 1423.18 L1749 128.008 L1650.72 128.008 L1650.72 128.008  Z" fill="#009af9" fill-rule="evenodd" fill-opacity="1"/>
<polyline clip-path="url(#clip292)" style="stroke:#000000; stroke-linecap:round; stroke-linejoin:round; stroke-width:4; stroke-opacity:1; fill:none" points="1650.72,128.008 1650.72,1423.18 1749,1423.18 1749,128.008 1650.72,128.008 "/>
<path clip-path="url(#clip292)" d="M1405.02 123.728 L1405.02 1423.18 L1503.3 1423.18 L1503.3 123.728 L1405.02 123.728 L1405.02 123.728  Z" fill="#009af9" fill-rule="evenodd" fill-opacity="1"/>
<polyline clip-path="url(#clip292)" style="stroke:#000000; stroke-linecap:round; stroke-linejoin:round; stroke-width:4; stroke-opacity:1; fill:none" points="1405.02,123.728 1405.02,1423.18 1503.3,1423.18 1503.3,123.728 1405.02,123.728 "/>
<path clip-path="url(#clip292)" d="M2019.27 129.999 L2019.27 1423.18 L2117.54 1423.18 L2117.54 129.999 L2019.27 129.999 L2019.27 129.999  Z" fill="#009af9" fill-rule="evenodd" fill-opacity="1"/>
<polyline clip-path="url(#clip292)" style="stroke:#000000; stroke-linecap:round; stroke-linejoin:round; stroke-width:4; stroke-opacity:1; fill:none" points="2019.27,129.999 2019.27,1423.18 2117.54,1423.18 2117.54,129.999 2019.27,129.999 "/>
<path clip-path="url(#clip292)" d="M667.926 124.682 L667.926 1423.18 L766.206 1423.18 L766.206 124.682 L667.926 124.682 L667.926 124.682  Z" fill="#009af9" fill-rule="evenodd" fill-opacity="1"/>
<polyline clip-path="url(#clip292)" style="stroke:#000000; stroke-linecap:round; stroke-linejoin:round; stroke-width:4; stroke-opacity:1; fill:none" points="667.926,124.682 667.926,1423.18 766.206,1423.18 766.206,124.682 667.926,124.682 "/>
<path clip-path="url(#clip292)" d="M1159.32 125.66 L1159.32 1423.18 L1257.6 1423.18 L1257.6 125.66 L1159.32 125.66 L1159.32 125.66  Z" fill="#009af9" fill-rule="evenodd" fill-opacity="1"/>
<polyline clip-path="url(#clip292)" style="stroke:#000000; stroke-linecap:round; stroke-linejoin:round; stroke-width:4; stroke-opacity:1; fill:none" points="1159.32,125.66 1159.32,1423.18 1257.6,1423.18 1257.6,125.66 1159.32,125.66 "/>
<path clip-path="url(#clip292)" d="M790.775 123.581 L790.775 1423.18 L889.055 1423.18 L889.055 123.581 L790.775 123.581 L790.775 123.581  Z" fill="#009af9" fill-rule="evenodd" fill-opacity="1"/>
<polyline clip-path="url(#clip292)" style="stroke:#000000; stroke-linecap:round; stroke-linejoin:round; stroke-width:4; stroke-opacity:1; fill:none" points="790.775,123.581 790.775,1423.18 889.055,1423.18 889.055,123.581 790.775,123.581 "/>
<path clip-path="url(#clip292)" d="M1896.42 123.525 L1896.42 1423.18 L1994.7 1423.18 L1994.7 123.525 L1896.42 123.525 L1896.42 123.525  Z" fill="#009af9" fill-rule="evenodd" fill-opacity="1"/>
<polyline clip-path="url(#clip292)" style="stroke:#000000; stroke-linecap:round; stroke-linejoin:round; stroke-width:4; stroke-opacity:1; fill:none" points="1896.42,123.525 1896.42,1423.18 1994.7,1423.18 1994.7,123.525 1896.42,123.525 "/>
<path clip-path="url(#clip292)" d="M2142.11 124.377 L2142.11 1423.18 L2240.39 1423.18 L2240.39 124.377 L2142.11 124.377 L2142.11 124.377  Z" fill="#009af9" fill-rule="evenodd" fill-opacity="1"/>
<polyline clip-path="url(#clip292)" style="stroke:#000000; stroke-linecap:round; stroke-linejoin:round; stroke-width:4; stroke-opacity:1; fill:none" points="2142.11,124.377 2142.11,1423.18 2240.39,1423.18 2240.39,124.377 2142.11,124.377 "/>
<path clip-path="url(#clip292)" d="M545.077 129.287 L545.077 1423.18 L643.357 1423.18 L643.357 129.287 L545.077 129.287 L545.077 129.287  Z" fill="#009af9" fill-rule="evenodd" fill-opacity="1"/>
<polyline clip-path="url(#clip292)" style="stroke:#000000; stroke-linecap:round; stroke-linejoin:round; stroke-width:4; stroke-opacity:1; fill:none" points="545.077,129.287 545.077,1423.18 643.357,1423.18 643.357,129.287 545.077,129.287 "/>
<path clip-path="url(#clip292)" d="M1527.87 124.954 L1527.87 1423.18 L1626.15 1423.18 L1626.15 124.954 L1527.87 124.954 L1527.87 124.954  Z" fill="#009af9" fill-rule="evenodd" fill-opacity="1"/>
<polyline clip-path="url(#clip292)" style="stroke:#000000; stroke-linecap:round; stroke-linejoin:round; stroke-width:4; stroke-opacity:1; fill:none" points="1527.87,124.954 1527.87,1423.18 1626.15,1423.18 1626.15,124.954 1527.87,124.954 "/>
<circle clip-path="url(#clip292)" style="fill:#009af9; stroke:none; fill-opacity:0" cx="962.764" cy="131.124" r="2"/>
<circle clip-path="url(#clip292)" style="fill:#009af9; stroke:none; fill-opacity:0" cx="1822.71" cy="123.472" r="2"/>
<circle clip-path="url(#clip292)" style="fill:#009af9; stroke:none; fill-opacity:0" cx="1331.31" cy="124.394" r="2"/>
<circle clip-path="url(#clip292)" style="fill:#009af9; stroke:none; fill-opacity:0" cx="471.368" cy="124.213" r="2"/>
<circle clip-path="url(#clip292)" style="fill:#009af9; stroke:none; fill-opacity:0" cx="1085.61" cy="125.427" r="2"/>
<circle clip-path="url(#clip292)" style="fill:#009af9; stroke:none; fill-opacity:0" cx="1699.86" cy="128.008" r="2"/>
<circle clip-path="url(#clip292)" style="fill:#009af9; stroke:none; fill-opacity:0" cx="1454.16" cy="123.728" r="2"/>
<circle clip-path="url(#clip292)" style="fill:#009af9; stroke:none; fill-opacity:0" cx="2068.4" cy="129.999" r="2"/>
<circle clip-path="url(#clip292)" style="fill:#009af9; stroke:none; fill-opacity:0" cx="717.066" cy="124.682" r="2"/>
<circle clip-path="url(#clip292)" style="fill:#009af9; stroke:none; fill-opacity:0" cx="1208.46" cy="125.66" r="2"/>
<circle clip-path="url(#clip292)" style="fill:#009af9; stroke:none; fill-opacity:0" cx="839.915" cy="123.581" r="2"/>
<circle clip-path="url(#clip292)" style="fill:#009af9; stroke:none; fill-opacity:0" cx="1945.56" cy="123.525" r="2"/>
<circle clip-path="url(#clip292)" style="fill:#009af9; stroke:none; fill-opacity:0" cx="2191.25" cy="124.377" r="2"/>
<circle clip-path="url(#clip292)" style="fill:#009af9; stroke:none; fill-opacity:0" cx="594.217" cy="129.287" r="2"/>
<circle clip-path="url(#clip292)" style="fill:#009af9; stroke:none; fill-opacity:0" cx="1577.01" cy="124.954" r="2"/>
</svg>
