<?xml version="1.0" encoding="utf-8"?>
<svg xmlns="http://www.w3.org/2000/svg" xmlns:xlink="http://www.w3.org/1999/xlink" width="600" height="400" viewBox="0 0 2400 1600">
<defs>
  <clipPath id="clip460">
    <rect x="0" y="0" width="2400" height="1600"/>
  </clipPath>
</defs>
<path clip-path="url(#clip460)" d="M0 1600 L2400 1600 L2400 0 L0 0  Z" fill="#ffffff" fill-rule="evenodd" fill-opacity="1"/>
<defs>
  <clipPath id="clip461">
    <rect x="480" y="0" width="1681" height="1600"/>
  </clipPath>
</defs>
<path clip-path="url(#clip460)" d="M249.542 1423.18 L2352.76 1423.18 L2352.76 123.472 L249.542 123.472  Z" fill="#ffffff" fill-rule="evenodd" fill-opacity="1"/>
<defs>
  <clipPath id="clip462">
    <rect x="249" y="123" width="2104" height="1301"/>
  </clipPath>
</defs>
<polyline clip-path="url(#clip462)" style="stroke:#000000; stroke-linecap:round; stroke-linejoin:round; stroke-width:2; stroke-opacity:0.1; fill:none" points="289.337,1423.18 289.337,123.472 "/>
<polyline clip-path="url(#clip462)" style="stroke:#000000; stroke-linecap:round; stroke-linejoin:round; stroke-width:2; stroke-opacity:0.1; fill:none" points="921.719,1423.18 921.719,123.472 "/>
<polyline clip-path="url(#clip462)" style="stroke:#000000; stroke-linecap:round; stroke-linejoin:round; stroke-width:2; stroke-opacity:0.1; fill:none" points="1554.1,1423.18 1554.1,123.472 "/>
<polyline clip-path="url(#clip462)" style="stroke:#000000; stroke-linecap:round; stroke-linejoin:round; stroke-width:2; stroke-opacity:0.1; fill:none" points="2186.48,1423.18 2186.48,123.472 "/>
<polyline clip-path="url(#clip462)" style="stroke:#000000; stroke-linecap:round; stroke-linejoin:round; stroke-width:2; stroke-opacity:0.1; fill:none" points="249.542,1423.18 2352.76,1423.18 "/>
<polyline clip-path="url(#clip462)" style="stroke:#000000; stroke-linecap:round; stroke-linejoin:round; stroke-width:2; stroke-opacity:0.1; fill:none" points="249.542,1204.75 2352.76,1204.75 "/>
<polyline clip-path="url(#clip462)" style="stroke:#000000; stroke-linecap:round; stroke-linejoin:round; stroke-width:2; stroke-opacity:0.1; fill:none" points="249.542,986.32 2352.76,986.32 "/>
<polyline clip-path="url(#clip462)" style="stroke:#000000; stroke-linecap:round; stroke-linejoin:round; stroke-width:2; stroke-opacity:0.1; fill:none" points="249.542,767.889 2352.76,767.889 "/>
<polyline clip-path="url(#clip462)" style="stroke:#000000; stroke-linecap:round; stroke-linejoin:round; stroke-width:2; stroke-opacity:0.1; fill:none" points="249.542,549.459 2352.76,549.459 "/>
<polyline clip-path="url(#clip462)" style="stroke:#000000; stroke-linecap:round; stroke-linejoin:round; stroke-width:2; stroke-opacity:0.1; fill:none" points="249.542,331.029 2352.76,331.029 "/>
<polyline clip-path="url(#clip460)" style="stroke:#000000; stroke-linecap:round; stroke-linejoin:round; stroke-width:4; stroke-opacity:1; fill:none" points="249.542,1423.18 2352.76,1423.18 "/>
<polyline clip-path="url(#clip460)" style="stroke:#000000; stroke-linecap:round; stroke-linejoin:round; stroke-width:4; stroke-opacity:1; fill:none" points="289.337,1423.18 289.337,1404.28 "/>
<polyline clip-path="url(#clip460)" style="stroke:#000000; stroke-linecap:round; stroke-linejoin:round; stroke-width:4; stroke-opacity:1; fill:none" points="921.719,1423.18 921.719,1404.28 "/>
<polyline clip-path="url(#clip460)" style="stroke:#000000; stroke-linecap:round; stroke-linejoin:round; stroke-width:4; stroke-opacity:1; fill:none" points="1554.1,1423.18 1554.1,1404.28 "/>
<polyline clip-path="url(#clip460)" style="stroke:#000000; stroke-linecap:round; stroke-linejoin:round; stroke-width:4; stroke-opacity:1; fill:none" points="2186.48,1423.18 2186.48,1404.28 "/>
<path clip-path="url(#clip460)" d="M289.337 1454.1 Q285.726 1454.1 283.897 1457.66 Q282.091 1461.2 282.091 1468.33 Q282.091 1475.44 283.897 1479.01 Q285.726 1482.55 289.337 1482.55 Q292.971 1482.55 294.776 1479.01 Q296.605 1475.44 296.605 1468.33 Q296.605 1461.2 294.776 1457.66 Q292.971 1454.1 289.337 1454.1 M289.337 1450.39 Q295.147 1450.39 298.202 1455 Q301.281 1459.58 301.281 1468.33 Q301.281 1477.06 298.202 1481.67 Q295.147 1486.25 289.337 1486.25 Q283.526 1486.25 280.448 1481.67 Q277.392 1477.06 277.392 1468.33 Q277.392 1459.58 280.448 1455 Q283.526 1450.39 289.337 1450.39 Z" fill="#000000" fill-rule="nonzero" fill-opacity="1" /><path clip-path="url(#clip460)" d="M911.997 1451.02 L930.354 1451.02 L930.354 1454.96 L916.28 1454.96 L916.28 1463.43 Q917.298 1463.08 918.317 1462.92 Q919.335 1462.73 920.354 1462.73 Q926.141 1462.73 929.52 1465.9 Q932.9 1469.08 932.9 1474.49 Q932.9 1480.07 929.428 1483.17 Q925.955 1486.25 919.636 1486.25 Q917.46 1486.25 915.192 1485.88 Q912.946 1485.51 910.539 1484.77 L910.539 1480.07 Q912.622 1481.2 914.844 1481.76 Q917.067 1482.32 919.543 1482.32 Q923.548 1482.32 925.886 1480.21 Q928.224 1478.1 928.224 1474.49 Q928.224 1470.88 925.886 1468.77 Q923.548 1466.67 919.543 1466.67 Q917.668 1466.67 915.793 1467.08 Q913.942 1467.5 911.997 1468.38 L911.997 1451.02 Z" fill="#000000" fill-rule="nonzero" fill-opacity="1" /><path clip-path="url(#clip460)" d="M1528.79 1481.64 L1536.43 1481.64 L1536.43 1455.28 L1528.12 1456.95 L1528.12 1452.69 L1536.38 1451.02 L1541.06 1451.02 L1541.06 1481.64 L1548.7 1481.64 L1548.7 1485.58 L1528.79 1485.58 L1528.79 1481.64 Z" fill="#000000" fill-rule="nonzero" fill-opacity="1" /><path clip-path="url(#clip460)" d="M1568.14 1454.1 Q1564.53 1454.1 1562.7 1457.66 Q1560.9 1461.2 1560.9 1468.33 Q1560.9 1475.44 1562.7 1479.01 Q1564.53 1482.55 1568.14 1482.55 Q1571.78 1482.55 1573.58 1479.01 Q1575.41 1475.44 1575.41 1468.33 Q1575.41 1461.2 1573.58 1457.66 Q1571.78 1454.1 1568.14 1454.1 M1568.14 1450.39 Q1573.95 1450.39 1577.01 1455 Q1580.09 1459.58 1580.09 1468.33 Q1580.09 1477.06 1577.01 1481.67 Q1573.95 1486.25 1568.14 1486.25 Q1562.33 1486.25 1559.25 1481.67 Q1556.2 1477.06 1556.2 1468.33 Q1556.2 1459.58 1559.25 1455 Q1562.33 1450.39 1568.14 1450.39 Z" fill="#000000" fill-rule="nonzero" fill-opacity="1" /><path clip-path="url(#clip460)" d="M2161.67 1481.64 L2169.31 1481.64 L2169.31 1455.28 L2161 1456.95 L2161 1452.69 L2169.26 1451.02 L2173.94 1451.02 L2173.94 1481.64 L2181.58 1481.64 L2181.58 1485.58 L2161.67 1485.58 L2161.67 1481.64 Z" fill="#000000" fill-rule="nonzero" fill-opacity="1" /><path clip-path="url(#clip460)" d="M2191.07 1451.02 L2209.42 1451.02 L2209.42 1454.96 L2195.35 1454.96 L2195.35 1463.43 Q2196.37 1463.08 2197.39 1462.92 Q2198.41 1462.73 2199.42 1462.73 Q2205.21 1462.73 2208.59 1465.9 Q2211.97 1469.08 2211.97 1474.49 Q2211.97 1480.07 2208.5 1483.17 Q2205.03 1486.25 2198.71 1486.25 Q2196.53 1486.25 2194.26 1485.88 Q2192.02 1485.51 2189.61 1484.77 L2189.61 1480.07 Q2191.69 1481.2 2193.92 1481.76 Q2196.14 1482.32 2198.61 1482.32 Q2202.62 1482.32 2204.96 1480.21 Q2207.29 1478.1 2207.29 1474.49 Q2207.29 1470.88 2204.96 1468.77 Q2202.62 1466.67 2198.61 1466.67 Q2196.74 1466.67 2194.86 1467.08 Q2193.01 1467.5 2191.07 1468.38 L2191.07 1451.02 Z" fill="#000000" fill-rule="nonzero" fill-opacity="1" /><path clip-path="url(#clip460)" d="M1183.02 1520.52 L1189.45 1520.52 L1189.45 1562.63 L1212.59 1562.63 L1212.59 1568.04 L1183.02 1568.04 L1183.02 1520.52 Z" fill="#000000" fill-rule="nonzero" fill-opacity="1" /><path clip-path="url(#clip460)" d="M1231.75 1536.5 Q1227.04 1536.5 1224.3 1540.19 Q1221.56 1543.85 1221.56 1550.25 Q1221.56 1556.65 1224.27 1560.34 Q1227 1564 1231.75 1564 Q1236.43 1564 1239.16 1560.31 Q1241.9 1556.62 1241.9 1550.25 Q1241.9 1543.92 1239.16 1540.23 Q1236.43 1536.5 1231.75 1536.5 M1231.75 1531.54 Q1239.39 1531.54 1243.75 1536.5 Q1248.11 1541.47 1248.11 1550.25 Q1248.11 1559 1243.75 1564 Q1239.39 1568.97 1231.75 1568.97 Q1224.08 1568.97 1219.72 1564 Q1215.39 1559 1215.39 1550.25 Q1215.39 1541.47 1219.72 1536.5 Q1224.08 1531.54 1231.75 1531.54 Z" fill="#000000" fill-rule="nonzero" fill-opacity="1" /><path clip-path="url(#clip460)" d="M1274.02 1550.12 Q1266.92 1550.12 1264.18 1551.75 Q1261.44 1553.37 1261.44 1557.29 Q1261.44 1560.4 1263.48 1562.25 Q1265.55 1564.07 1269.08 1564.07 Q1273.95 1564.07 1276.88 1560.63 Q1279.84 1557.16 1279.84 1551.43 L1279.84 1550.12 L1274.02 1550.12 M1285.7 1547.71 L1285.7 1568.04 L1279.84 1568.04 L1279.84 1562.63 Q1277.83 1565.88 1274.84 1567.44 Q1271.85 1568.97 1267.52 1568.97 Q1262.05 1568.97 1258.8 1565.91 Q1255.59 1562.82 1255.59 1557.67 Q1255.59 1551.65 1259.6 1548.6 Q1263.64 1545.54 1271.63 1545.54 L1279.84 1545.54 L1279.84 1544.97 Q1279.84 1540.93 1277.17 1538.73 Q1274.52 1536.5 1269.72 1536.5 Q1266.66 1536.5 1263.77 1537.23 Q1260.87 1537.97 1258.2 1539.43 L1258.2 1534.02 Q1261.41 1532.78 1264.43 1532.17 Q1267.46 1531.54 1270.32 1531.54 Q1278.06 1531.54 1281.88 1535.55 Q1285.7 1539.56 1285.7 1547.71 Z" fill="#000000" fill-rule="nonzero" fill-opacity="1" /><path clip-path="url(#clip460)" d="M1321.22 1537.81 L1321.22 1518.52 L1327.07 1518.52 L1327.07 1568.04 L1321.22 1568.04 L1321.22 1562.7 Q1319.37 1565.88 1316.54 1567.44 Q1313.74 1568.97 1309.79 1568.97 Q1303.33 1568.97 1299.26 1563.81 Q1295.21 1558.65 1295.21 1550.25 Q1295.21 1541.85 1299.26 1536.69 Q1303.33 1531.54 1309.79 1531.54 Q1313.74 1531.54 1316.54 1533.1 Q1319.37 1534.62 1321.22 1537.81 M1301.26 1550.25 Q1301.26 1556.71 1303.9 1560.4 Q1306.58 1564.07 1311.22 1564.07 Q1315.87 1564.07 1318.54 1560.4 Q1321.22 1556.71 1321.22 1550.25 Q1321.22 1543.79 1318.54 1540.13 Q1315.87 1536.44 1311.22 1536.44 Q1306.58 1536.44 1303.9 1540.13 Q1301.26 1543.79 1301.26 1550.25 Z" fill="#000000" fill-rule="nonzero" fill-opacity="1" /><path clip-path="url(#clip460)" d="M1360.11 1520.52 L1366.54 1520.52 L1366.54 1568.04 L1360.11 1568.04 L1360.11 1520.52 Z" fill="#000000" fill-rule="nonzero" fill-opacity="1" /><path clip-path="url(#clip460)" d="M1385.77 1525.81 L1385.77 1562.76 L1393.53 1562.76 Q1403.37 1562.76 1407.92 1558.3 Q1412.5 1553.85 1412.5 1544.24 Q1412.5 1534.69 1407.92 1530.26 Q1403.37 1525.81 1393.53 1525.81 L1385.77 1525.81 M1379.34 1520.52 L1392.54 1520.52 Q1406.36 1520.52 1412.82 1526.28 Q1419.28 1532.01 1419.28 1544.24 Q1419.28 1556.52 1412.79 1562.28 Q1406.29 1568.04 1392.54 1568.04 L1379.34 1568.04 L1379.34 1520.52 Z" fill="#000000" fill-rule="nonzero" fill-opacity="1" /><polyline clip-path="url(#clip460)" style="stroke:#000000; stroke-linecap:round; stroke-linejoin:round; stroke-width:4; stroke-opacity:1; fill:none" points="249.542,1423.18 249.542,123.472 "/>
<polyline clip-path="url(#clip460)" style="stroke:#000000; stroke-linecap:round; stroke-linejoin:round; stroke-width:4; stroke-opacity:1; fill:none" points="249.542,1423.18 268.44,1423.18 "/>
<polyline clip-path="url(#clip460)" style="stroke:#000000; stroke-linecap:round; stroke-linejoin:round; stroke-width:4; stroke-opacity:1; fill:none" points="249.542,1204.75 268.44,1204.75 "/>
<polyline clip-path="url(#clip460)" style="stroke:#000000; stroke-linecap:round; stroke-linejoin:round; stroke-width:4; stroke-opacity:1; fill:none" points="249.542,986.32 268.44,986.32 "/>
<polyline clip-path="url(#clip460)" style="stroke:#000000; stroke-linecap:round; stroke-linejoin:round; stroke-width:4; stroke-opacity:1; fill:none" points="249.542,767.889 268.44,767.889 "/>
<polyline clip-path="url(#clip460)" style="stroke:#000000; stroke-linecap:round; stroke-linejoin:round; stroke-width:4; stroke-opacity:1; fill:none" points="249.542,549.459 268.44,549.459 "/>
<polyline clip-path="url(#clip460)" style="stroke:#000000; stroke-linecap:round; stroke-linejoin:round; stroke-width:4; stroke-opacity:1; fill:none" points="249.542,331.029 268.44,331.029 "/>
<path clip-path="url(#clip460)" d="M126.205 1408.98 Q122.593 1408.98 120.765 1412.54 Q118.959 1416.08 118.959 1423.21 Q118.959 1430.32 120.765 1433.89 Q122.593 1437.43 126.205 1437.43 Q129.839 1437.43 131.644 1433.89 Q133.473 1430.32 133.473 1423.21 Q133.473 1416.08 131.644 1412.54 Q129.839 1408.98 126.205 1408.98 M126.205 1405.27 Q132.015 1405.27 135.07 1409.88 Q138.149 1414.46 138.149 1423.21 Q138.149 1431.94 135.07 1436.55 Q132.015 1441.13 126.205 1441.13 Q120.394 1441.13 117.316 1436.55 Q114.26 1431.94 114.26 1423.21 Q114.26 1414.46 117.316 1409.88 Q120.394 1405.27 126.205 1405.27 Z" fill="#000000" fill-rule="nonzero" fill-opacity="1" /><path clip-path="url(#clip460)" d="M146.366 1434.58 L151.251 1434.58 L151.251 1440.46 L146.366 1440.46 L146.366 1434.58 Z" fill="#000000" fill-rule="nonzero" fill-opacity="1" /><path clip-path="url(#clip460)" d="M171.436 1408.98 Q167.825 1408.98 165.996 1412.54 Q164.19 1416.08 164.19 1423.21 Q164.19 1430.32 165.996 1433.89 Q167.825 1437.43 171.436 1437.43 Q175.07 1437.43 176.876 1433.89 Q178.704 1430.32 178.704 1423.21 Q178.704 1416.08 176.876 1412.54 Q175.07 1408.98 171.436 1408.98 M171.436 1405.27 Q177.246 1405.27 180.301 1409.88 Q183.38 1414.46 183.38 1423.21 Q183.38 1431.94 180.301 1436.55 Q177.246 1441.13 171.436 1441.13 Q165.626 1441.13 162.547 1436.55 Q159.491 1431.94 159.491 1423.21 Q159.491 1414.46 162.547 1409.88 Q165.626 1405.27 171.436 1405.27 Z" fill="#000000" fill-rule="nonzero" fill-opacity="1" /><path clip-path="url(#clip460)" d="M201.598 1408.98 Q197.987 1408.98 196.158 1412.54 Q194.352 1416.08 194.352 1423.21 Q194.352 1430.32 196.158 1433.89 Q197.987 1437.43 201.598 1437.43 Q205.232 1437.43 207.037 1433.89 Q208.866 1430.32 208.866 1423.21 Q208.866 1416.08 207.037 1412.54 Q205.232 1408.98 201.598 1408.98 M201.598 1405.27 Q207.408 1405.27 210.463 1409.88 Q213.542 1414.46 213.542 1423.21 Q213.542 1431.94 210.463 1436.55 Q207.408 1441.13 201.598 1441.13 Q195.787 1441.13 192.709 1436.55 Q189.653 1431.94 189.653 1423.21 Q189.653 1414.46 192.709 1409.88 Q195.787 1405.27 201.598 1405.27 Z" fill="#000000" fill-rule="nonzero" fill-opacity="1" /><path clip-path="url(#clip460)" d="M127.2 1190.55 Q123.589 1190.55 121.76 1194.11 Q119.955 1197.65 119.955 1204.78 Q119.955 1211.89 121.76 1215.46 Q123.589 1219 127.2 1219 Q130.834 1219 132.64 1215.46 Q134.468 1211.89 134.468 1204.78 Q134.468 1197.65 132.64 1194.11 Q130.834 1190.55 127.2 1190.55 M127.2 1186.84 Q133.01 1186.84 136.066 1191.45 Q139.144 1196.03 139.144 1204.78 Q139.144 1213.51 136.066 1218.12 Q133.01 1222.7 127.2 1222.7 Q121.39 1222.7 118.311 1218.12 Q115.256 1213.51 115.256 1204.78 Q115.256 1196.03 118.311 1191.45 Q121.39 1186.84 127.2 1186.84 Z" fill="#000000" fill-rule="nonzero" fill-opacity="1" /><path clip-path="url(#clip460)" d="M147.362 1216.15 L152.246 1216.15 L152.246 1222.03 L147.362 1222.03 L147.362 1216.15 Z" fill="#000000" fill-rule="nonzero" fill-opacity="1" /><path clip-path="url(#clip460)" d="M172.431 1190.55 Q168.82 1190.55 166.991 1194.11 Q165.186 1197.65 165.186 1204.78 Q165.186 1211.89 166.991 1215.46 Q168.82 1219 172.431 1219 Q176.065 1219 177.871 1215.46 Q179.7 1211.89 179.7 1204.78 Q179.7 1197.65 177.871 1194.11 Q176.065 1190.55 172.431 1190.55 M172.431 1186.84 Q178.241 1186.84 181.297 1191.45 Q184.376 1196.03 184.376 1204.78 Q184.376 1213.51 181.297 1218.12 Q178.241 1222.7 172.431 1222.7 Q166.621 1222.7 163.542 1218.12 Q160.487 1213.51 160.487 1204.78 Q160.487 1196.03 163.542 1191.45 Q166.621 1186.84 172.431 1186.84 Z" fill="#000000" fill-rule="nonzero" fill-opacity="1" /><path clip-path="url(#clip460)" d="M192.639 1187.47 L210.996 1187.47 L210.996 1191.4 L196.922 1191.4 L196.922 1199.88 Q197.94 1199.53 198.959 1199.37 Q199.977 1199.18 200.996 1199.18 Q206.783 1199.18 210.162 1202.35 Q213.542 1205.53 213.542 1210.94 Q213.542 1216.52 210.07 1219.62 Q206.598 1222.7 200.278 1222.7 Q198.102 1222.7 195.834 1222.33 Q193.588 1221.96 191.181 1221.22 L191.181 1216.52 Q193.264 1217.65 195.487 1218.21 Q197.709 1218.77 200.186 1218.77 Q204.19 1218.77 206.528 1216.66 Q208.866 1214.55 208.866 1210.94 Q208.866 1207.33 206.528 1205.22 Q204.19 1203.12 200.186 1203.12 Q198.311 1203.12 196.436 1203.53 Q194.584 1203.95 192.639 1204.83 L192.639 1187.47 Z" fill="#000000" fill-rule="nonzero" fill-opacity="1" /><path clip-path="url(#clip460)" d="M126.205 972.118 Q122.593 972.118 120.765 975.683 Q118.959 979.225 118.959 986.354 Q118.959 993.461 120.765 997.026 Q122.593 1000.57 126.205 1000.57 Q129.839 1000.57 131.644 997.026 Q133.473 993.461 133.473 986.354 Q133.473 979.225 131.644 975.683 Q129.839 972.118 126.205 972.118 M126.205 968.415 Q132.015 968.415 135.07 973.021 Q138.149 977.604 138.149 986.354 Q138.149 995.081 135.07 999.688 Q132.015 1004.27 126.205 1004.27 Q120.394 1004.27 117.316 999.688 Q114.26 995.081 114.26 986.354 Q114.26 977.604 117.316 973.021 Q120.394 968.415 126.205 968.415 Z" fill="#000000" fill-rule="nonzero" fill-opacity="1" /><path clip-path="url(#clip460)" d="M146.366 997.72 L151.251 997.72 L151.251 1003.6 L146.366 1003.6 L146.366 997.72 Z" fill="#000000" fill-rule="nonzero" fill-opacity="1" /><path clip-path="url(#clip460)" d="M162.246 999.664 L169.885 999.664 L169.885 973.299 L161.575 974.965 L161.575 970.706 L169.839 969.04 L174.514 969.04 L174.514 999.664 L182.153 999.664 L182.153 1003.6 L162.246 1003.6 L162.246 999.664 Z" fill="#000000" fill-rule="nonzero" fill-opacity="1" /><path clip-path="url(#clip460)" d="M201.598 972.118 Q197.987 972.118 196.158 975.683 Q194.352 979.225 194.352 986.354 Q194.352 993.461 196.158 997.026 Q197.987 1000.57 201.598 1000.57 Q205.232 1000.57 207.037 997.026 Q208.866 993.461 208.866 986.354 Q208.866 979.225 207.037 975.683 Q205.232 972.118 201.598 972.118 M201.598 968.415 Q207.408 968.415 210.463 973.021 Q213.542 977.604 213.542 986.354 Q213.542 995.081 210.463 999.688 Q207.408 1004.27 201.598 1004.27 Q195.787 1004.27 192.709 999.688 Q189.653 995.081 189.653 986.354 Q189.653 977.604 192.709 973.021 Q195.787 968.415 201.598 968.415 Z" fill="#000000" fill-rule="nonzero" fill-opacity="1" /><path clip-path="url(#clip460)" d="M127.2 753.688 Q123.589 753.688 121.76 757.253 Q119.955 760.795 119.955 767.924 Q119.955 775.031 121.76 778.595 Q123.589 782.137 127.2 782.137 Q130.834 782.137 132.64 778.595 Q134.468 775.031 134.468 767.924 Q134.468 760.795 132.64 757.253 Q130.834 753.688 127.2 753.688 M127.2 749.984 Q133.01 749.984 136.066 754.591 Q139.144 759.174 139.144 767.924 Q139.144 776.651 136.066 781.257 Q133.01 785.841 127.2 785.841 Q121.39 785.841 118.311 781.257 Q115.256 776.651 115.256 767.924 Q115.256 759.174 118.311 754.591 Q121.39 749.984 127.2 749.984 Z" fill="#000000" fill-rule="nonzero" fill-opacity="1" /><path clip-path="url(#clip460)" d="M147.362 779.29 L152.246 779.29 L152.246 785.169 L147.362 785.169 L147.362 779.29 Z" fill="#000000" fill-rule="nonzero" fill-opacity="1" /><path clip-path="url(#clip460)" d="M163.241 781.234 L170.88 781.234 L170.88 754.869 L162.57 756.535 L162.57 752.276 L170.834 750.609 L175.51 750.609 L175.51 781.234 L183.149 781.234 L183.149 785.169 L163.241 785.169 L163.241 781.234 Z" fill="#000000" fill-rule="nonzero" fill-opacity="1" /><path clip-path="url(#clip460)" d="M192.639 750.609 L210.996 750.609 L210.996 754.545 L196.922 754.545 L196.922 763.017 Q197.94 762.67 198.959 762.508 Q199.977 762.322 200.996 762.322 Q206.783 762.322 210.162 765.494 Q213.542 768.665 213.542 774.082 Q213.542 779.66 210.07 782.762 Q206.598 785.841 200.278 785.841 Q198.102 785.841 195.834 785.47 Q193.588 785.1 191.181 784.359 L191.181 779.66 Q193.264 780.794 195.487 781.35 Q197.709 781.906 200.186 781.906 Q204.19 781.906 206.528 779.799 Q208.866 777.693 208.866 774.082 Q208.866 770.47 206.528 768.364 Q204.19 766.258 200.186 766.258 Q198.311 766.258 196.436 766.674 Q194.584 767.091 192.639 767.97 L192.639 750.609 Z" fill="#000000" fill-rule="nonzero" fill-opacity="1" /><path clip-path="url(#clip460)" d="M126.205 535.258 Q122.593 535.258 120.765 538.823 Q118.959 542.364 118.959 549.494 Q118.959 556.601 120.765 560.165 Q122.593 563.707 126.205 563.707 Q129.839 563.707 131.644 560.165 Q133.473 556.601 133.473 549.494 Q133.473 542.364 131.644 538.823 Q129.839 535.258 126.205 535.258 M126.205 531.554 Q132.015 531.554 135.07 536.161 Q138.149 540.744 138.149 549.494 Q138.149 558.221 135.07 562.827 Q132.015 567.411 126.205 567.411 Q120.394 567.411 117.316 562.827 Q114.26 558.221 114.26 549.494 Q114.26 540.744 117.316 536.161 Q120.394 531.554 126.205 531.554 Z" fill="#000000" fill-rule="nonzero" fill-opacity="1" /><path clip-path="url(#clip460)" d="M146.366 560.86 L151.251 560.86 L151.251 566.739 L146.366 566.739 L146.366 560.86 Z" fill="#000000" fill-rule="nonzero" fill-opacity="1" /><path clip-path="url(#clip460)" d="M165.464 562.804 L181.783 562.804 L181.783 566.739 L159.839 566.739 L159.839 562.804 Q162.501 560.05 167.084 555.42 Q171.69 550.767 172.871 549.425 Q175.116 546.901 175.996 545.165 Q176.899 543.406 176.899 541.716 Q176.899 538.962 174.954 537.226 Q173.033 535.49 169.931 535.49 Q167.732 535.49 165.278 536.253 Q162.848 537.017 160.07 538.568 L160.07 533.846 Q162.894 532.712 165.348 532.133 Q167.802 531.554 169.839 531.554 Q175.209 531.554 178.403 534.24 Q181.598 536.925 181.598 541.415 Q181.598 543.545 180.788 545.466 Q180.001 547.364 177.894 549.957 Q177.315 550.628 174.214 553.846 Q171.112 557.04 165.464 562.804 Z" fill="#000000" fill-rule="nonzero" fill-opacity="1" /><path clip-path="url(#clip460)" d="M201.598 535.258 Q197.987 535.258 196.158 538.823 Q194.352 542.364 194.352 549.494 Q194.352 556.601 196.158 560.165 Q197.987 563.707 201.598 563.707 Q205.232 563.707 207.037 560.165 Q208.866 556.601 208.866 549.494 Q208.866 542.364 207.037 538.823 Q205.232 535.258 201.598 535.258 M201.598 531.554 Q207.408 531.554 210.463 536.161 Q213.542 540.744 213.542 549.494 Q213.542 558.221 210.463 562.827 Q207.408 567.411 201.598 567.411 Q195.787 567.411 192.709 562.827 Q189.653 558.221 189.653 549.494 Q189.653 540.744 192.709 536.161 Q195.787 531.554 201.598 531.554 Z" fill="#000000" fill-rule="nonzero" fill-opacity="1" /><path clip-path="url(#clip460)" d="M127.2 316.828 Q123.589 316.828 121.76 320.393 Q119.955 323.934 119.955 331.064 Q119.955 338.17 121.76 341.735 Q123.589 345.277 127.2 345.277 Q130.834 345.277 132.64 341.735 Q134.468 338.17 134.468 331.064 Q134.468 323.934 132.64 320.393 Q130.834 316.828 127.2 316.828 M127.2 313.124 Q133.01 313.124 136.066 317.731 Q139.144 322.314 139.144 331.064 Q139.144 339.791 136.066 344.397 Q133.01 348.981 127.2 348.981 Q121.39 348.981 118.311 344.397 Q115.256 339.791 115.256 331.064 Q115.256 322.314 118.311 317.731 Q121.39 313.124 127.2 313.124 Z" fill="#000000" fill-rule="nonzero" fill-opacity="1" /><path clip-path="url(#clip460)" d="M147.362 342.43 L152.246 342.43 L152.246 348.309 L147.362 348.309 L147.362 342.43 Z" fill="#000000" fill-rule="nonzero" fill-opacity="1" /><path clip-path="url(#clip460)" d="M166.459 344.374 L182.778 344.374 L182.778 348.309 L160.834 348.309 L160.834 344.374 Q163.496 341.619 168.079 336.99 Q172.686 332.337 173.866 330.995 Q176.112 328.471 176.991 326.735 Q177.894 324.976 177.894 323.286 Q177.894 320.532 175.95 318.796 Q174.028 317.059 170.927 317.059 Q168.727 317.059 166.274 317.823 Q163.843 318.587 161.065 320.138 L161.065 315.416 Q163.89 314.282 166.343 313.703 Q168.797 313.124 170.834 313.124 Q176.204 313.124 179.399 315.809 Q182.593 318.495 182.593 322.985 Q182.593 325.115 181.783 327.036 Q180.996 328.934 178.889 331.527 Q178.311 332.198 175.209 335.416 Q172.107 338.61 166.459 344.374 Z" fill="#000000" fill-rule="nonzero" fill-opacity="1" /><path clip-path="url(#clip460)" d="M192.639 313.749 L210.996 313.749 L210.996 317.684 L196.922 317.684 L196.922 326.157 Q197.94 325.809 198.959 325.647 Q199.977 325.462 200.996 325.462 Q206.783 325.462 210.162 328.633 Q213.542 331.805 213.542 337.221 Q213.542 342.8 210.07 345.902 Q206.598 348.981 200.278 348.981 Q198.102 348.981 195.834 348.61 Q193.588 348.24 191.181 347.499 L191.181 342.8 Q193.264 343.934 195.487 344.49 Q197.709 345.045 200.186 345.045 Q204.19 345.045 206.528 342.939 Q208.866 340.832 208.866 337.221 Q208.866 333.61 206.528 331.504 Q204.19 329.397 200.186 329.397 Q198.311 329.397 196.436 329.814 Q194.584 330.231 192.639 331.11 L192.639 313.749 Z" fill="#000000" fill-rule="nonzero" fill-opacity="1" /><path clip-path="url(#clip460)" d="M16.4842 1039.99 L16.4842 1012.68 L21.895 1012.68 L21.895 1033.56 L35.8996 1033.56 L35.8996 1014.71 L41.3104 1014.71 L41.3104 1033.56 L64.0042 1033.56 L64.0042 1039.99 L16.4842 1039.99 Z" fill="#000000" fill-rule="nonzero" fill-opacity="1" /><path clip-path="url(#clip460)" d="M46.0847 992.529 Q46.0847 999.627 47.7079 1002.36 Q49.3312 1005.1 53.2461 1005.1 Q56.3653 1005.1 58.2114 1003.06 Q60.0256 1001 60.0256 997.463 Q60.0256 992.593 56.5881 989.665 Q53.1188 986.704 47.3897 986.704 L46.0847 986.704 L46.0847 992.529 M43.6657 980.848 L64.0042 980.848 L64.0042 986.704 L58.5933 986.704 Q61.8398 988.71 63.3994 991.702 Q64.9272 994.693 64.9272 999.022 Q64.9272 1004.5 61.8716 1007.74 Q58.7843 1010.96 53.6281 1010.96 Q47.6125 1010.96 44.5569 1006.95 Q41.5014 1002.91 41.5014 994.916 L41.5014 986.704 L40.9285 986.704 Q36.8862 986.704 34.6901 989.378 Q32.4621 992.02 32.4621 996.826 Q32.4621 999.881 33.1941 1002.78 Q33.9262 1005.67 35.3903 1008.35 L29.9795 1008.35 Q28.7381 1005.13 28.1334 1002.11 Q27.4968 999.086 27.4968 996.221 Q27.4968 988.487 31.5072 984.667 Q35.5176 980.848 43.6657 980.848 Z" fill="#000000" fill-rule="nonzero" fill-opacity="1" /><path clip-path="url(#clip460)" d="M28.3562 968.785 L28.3562 962.929 L64.0042 962.929 L64.0042 968.785 L28.3562 968.785 M14.479 968.785 L14.479 962.929 L21.895 962.929 L21.895 968.785 L14.479 968.785 Z" fill="#000000" fill-rule="nonzero" fill-opacity="1" /><path clip-path="url(#clip460)" d="M33.8307 930.018 Q33.2578 931.005 33.0032 932.182 Q32.7167 933.328 32.7167 934.728 Q32.7167 939.694 35.9632 942.367 Q39.1779 945.009 45.2253 945.009 L64.0042 945.009 L64.0042 950.897 L28.3562 950.897 L28.3562 945.009 L33.8944 945.009 Q30.6479 943.163 29.0883 940.203 Q27.4968 937.243 27.4968 933.01 Q27.4968 932.405 27.5923 931.673 Q27.656 930.941 27.8151 930.05 L33.8307 930.018 Z" fill="#000000" fill-rule="nonzero" fill-opacity="1" /><path clip-path="url(#clip460)" d="M16.4842 902.9 L16.4842 896.471 L58.5933 896.471 L58.5933 873.331 L64.0042 873.331 L64.0042 902.9 L16.4842 902.9 Z" fill="#000000" fill-rule="nonzero" fill-opacity="1" /><path clip-path="url(#clip460)" d="M32.4621 854.17 Q32.4621 858.881 36.1542 861.618 Q39.8145 864.356 46.212 864.356 Q52.6095 864.356 56.3017 861.65 Q59.9619 858.913 59.9619 854.17 Q59.9619 849.492 56.2698 846.754 Q52.5777 844.017 46.212 844.017 Q39.8781 844.017 36.186 846.754 Q32.4621 849.492 32.4621 854.17 M27.4968 854.17 Q27.4968 846.532 32.4621 842.171 Q37.4273 837.811 46.212 837.811 Q54.9649 837.811 59.9619 842.171 Q64.9272 846.532 64.9272 854.17 Q64.9272 861.841 59.9619 866.202 Q54.9649 870.53 46.212 870.53 Q37.4273 870.53 32.4621 866.202 Q27.4968 861.841 27.4968 854.17 Z" fill="#000000" fill-rule="nonzero" fill-opacity="1" /><path clip-path="url(#clip460)" d="M46.0847 811.902 Q46.0847 819 47.7079 821.737 Q49.3312 824.474 53.2461 824.474 Q56.3653 824.474 58.2114 822.437 Q60.0256 820.369 60.0256 816.836 Q60.0256 811.966 56.5881 809.038 Q53.1188 806.078 47.3897 806.078 L46.0847 806.078 L46.0847 811.902 M43.6657 800.221 L64.0042 800.221 L64.0042 806.078 L58.5933 806.078 Q61.8398 808.083 63.3994 811.075 Q64.9272 814.067 64.9272 818.395 Q64.9272 823.87 61.8716 827.116 Q58.7843 830.331 53.6281 830.331 Q47.6125 830.331 44.5569 826.32 Q41.5014 822.278 41.5014 814.289 L41.5014 806.078 L40.9285 806.078 Q36.8862 806.078 34.6901 808.751 Q32.4621 811.393 32.4621 816.199 Q32.4621 819.255 33.1941 822.151 Q33.9262 825.047 35.3903 827.721 L29.9795 827.721 Q28.7381 824.506 28.1334 821.483 Q27.4968 818.459 27.4968 815.594 Q27.4968 807.86 31.5072 804.041 Q35.5176 800.221 43.6657 800.221 Z" fill="#000000" fill-rule="nonzero" fill-opacity="1" /><path clip-path="url(#clip460)" d="M33.7671 764.7 L14.479 764.7 L14.479 758.844 L64.0042 758.844 L64.0042 764.7 L58.657 764.7 Q61.8398 766.547 63.3994 769.379 Q64.9272 772.18 64.9272 776.127 Q64.9272 782.588 59.771 786.662 Q54.6147 790.704 46.212 790.704 Q37.8093 790.704 32.6531 786.662 Q27.4968 782.588 27.4968 776.127 Q27.4968 772.18 29.0564 769.379 Q30.5842 766.547 33.7671 764.7 M46.212 784.657 Q52.6732 784.657 56.3653 782.015 Q60.0256 779.342 60.0256 774.695 Q60.0256 770.048 56.3653 767.374 Q52.6732 764.7 46.212 764.7 Q39.7508 764.7 36.0905 767.374 Q32.3984 770.048 32.3984 774.695 Q32.3984 779.342 36.0905 782.015 Q39.7508 784.657 46.212 784.657 Z" fill="#000000" fill-rule="nonzero" fill-opacity="1" /><path clip-path="url(#clip460)" d="M16.4842 730.039 L16.4842 723.546 L56.6518 713.552 L16.4842 703.59 L16.4842 696.365 L56.6518 686.37 L16.4842 676.408 L16.4842 669.883 L64.0042 681.819 L64.0042 689.903 L22.7544 699.929 L64.0042 710.051 L64.0042 718.135 L16.4842 730.039 Z" fill="#000000" fill-rule="nonzero" fill-opacity="1" /><path clip-path="url(#clip460)" d="M44.7161 634.936 L47.5806 634.936 L47.5806 661.862 Q53.6281 661.481 56.8109 658.234 Q59.9619 654.956 59.9619 649.131 Q59.9619 645.757 59.1344 642.606 Q58.3069 639.423 56.6518 636.304 L62.1899 636.304 Q63.5267 639.455 64.227 642.765 Q64.9272 646.076 64.9272 649.481 Q64.9272 658.011 59.9619 663.008 Q54.9967 667.974 46.5303 667.974 Q37.7774 667.974 32.6531 663.263 Q27.4968 658.52 27.4968 650.5 Q27.4968 643.306 32.1438 639.137 Q36.7589 634.936 44.7161 634.936 M42.9973 640.792 Q38.1912 640.856 35.3266 643.497 Q32.4621 646.107 32.4621 650.436 Q32.4621 655.338 35.2312 658.298 Q38.0002 661.226 43.0292 661.671 L42.9973 640.792 Z" fill="#000000" fill-rule="nonzero" fill-opacity="1" /><path clip-path="url(#clip460)" d="M28.3562 625.323 L28.3562 619.467 L64.0042 619.467 L64.0042 625.323 L28.3562 625.323 M14.479 625.323 L14.479 619.467 L21.895 619.467 L21.895 625.323 L14.479 625.323 Z" fill="#000000" fill-rule="nonzero" fill-opacity="1" /><path clip-path="url(#clip460)" d="M45.7664 583.755 Q39.4007 583.755 35.8996 586.397 Q32.3984 589.007 32.3984 593.749 Q32.3984 598.46 35.8996 601.102 Q39.4007 603.712 45.7664 603.712 Q52.1003 603.712 55.6014 601.102 Q59.1026 598.46 59.1026 593.749 Q59.1026 589.007 55.6014 586.397 Q52.1003 583.755 45.7664 583.755 M59.58 577.899 Q68.683 577.899 73.1071 581.941 Q77.5631 585.983 77.5631 594.322 Q77.5631 597.41 77.0857 600.147 Q76.6401 602.884 75.6852 605.462 L69.9879 605.462 Q71.3884 602.884 72.0568 600.37 Q72.7252 597.855 72.7252 595.245 Q72.7252 589.484 69.7015 586.62 Q66.7096 583.755 60.6303 583.755 L57.7339 583.755 Q60.885 585.569 62.4446 588.402 Q64.0042 591.235 64.0042 595.182 Q64.0042 601.738 59.0071 605.749 Q54.01 609.759 45.7664 609.759 Q37.491 609.759 32.4939 605.749 Q27.4968 601.738 27.4968 595.182 Q27.4968 591.235 29.0564 588.402 Q30.616 585.569 33.7671 583.755 L28.3562 583.755 L28.3562 577.899 L59.58 577.899 Z" fill="#000000" fill-rule="nonzero" fill-opacity="1" /><path clip-path="url(#clip460)" d="M42.4881 536.203 L64.0042 536.203 L64.0042 542.06 L42.679 542.06 Q37.6183 542.06 35.1038 544.033 Q32.5894 546.007 32.5894 549.953 Q32.5894 554.696 35.6131 557.433 Q38.6368 560.17 43.8567 560.17 L64.0042 560.17 L64.0042 566.059 L14.479 566.059 L14.479 560.17 L33.8944 560.17 Q30.6797 558.07 29.0883 555.237 Q27.4968 552.372 27.4968 548.648 Q27.4968 542.505 31.3163 539.354 Q35.1038 536.203 42.4881 536.203 Z" fill="#000000" fill-rule="nonzero" fill-opacity="1" /><path clip-path="url(#clip460)" d="M18.2347 518.73 L28.3562 518.73 L28.3562 506.667 L32.9077 506.667 L32.9077 518.73 L52.2594 518.73 Q56.6199 518.73 57.8613 517.552 Q59.1026 516.342 59.1026 512.682 L59.1026 506.667 L64.0042 506.667 L64.0042 512.682 Q64.0042 519.462 61.4897 522.04 Q58.9434 524.618 52.2594 524.618 L32.9077 524.618 L32.9077 528.915 L28.3562 528.915 L28.3562 524.618 L18.2347 524.618 L18.2347 518.73 Z" fill="#000000" fill-rule="nonzero" fill-opacity="1" /><path clip-path="url(#clip460)" d="M463.868 12.096 L498.624 12.096 L498.624 18.9825 L472.05 18.9825 L472.05 36.8065 L496.032 36.8065 L496.032 43.6931 L472.05 43.6931 L472.05 72.576 L463.868 72.576 L463.868 12.096 Z" fill="#000000" fill-rule="nonzero" fill-opacity="1" /><path clip-path="url(#clip460)" d="M524.267 49.7694 Q515.233 49.7694 511.749 51.8354 Q508.265 53.9013 508.265 58.8839 Q508.265 62.8538 510.858 65.2034 Q513.491 67.5124 517.988 67.5124 Q524.186 67.5124 527.912 63.1374 Q531.68 58.7219 531.68 51.4303 L531.68 49.7694 L524.267 49.7694 M539.133 46.6907 L539.133 72.576 L531.68 72.576 L531.68 65.6895 Q529.128 69.8214 525.32 71.8063 Q521.512 73.7508 516.003 73.7508 Q509.035 73.7508 504.903 69.8619 Q500.812 65.9325 500.812 59.3701 Q500.812 51.7138 505.916 47.825 Q511.061 43.9361 521.228 43.9361 L531.68 43.9361 L531.68 43.2069 Q531.68 38.0623 528.277 35.2672 Q524.915 32.4315 518.798 32.4315 Q514.909 32.4315 511.223 33.3632 Q507.536 34.295 504.134 36.1584 L504.134 29.2718 Q508.225 27.692 512.073 26.9223 Q515.922 26.1121 519.568 26.1121 Q529.411 26.1121 534.272 31.2163 Q539.133 36.3204 539.133 46.6907 Z" fill="#000000" fill-rule="nonzero" fill-opacity="1" /><path clip-path="url(#clip460)" d="M554.486 27.2059 L561.94 27.2059 L561.94 72.576 L554.486 72.576 L554.486 27.2059 M554.486 9.54393 L561.94 9.54393 L561.94 18.9825 L554.486 18.9825 L554.486 9.54393 Z" fill="#000000" fill-rule="nonzero" fill-opacity="1" /><path clip-path="url(#clip460)" d="M603.826 34.1734 Q602.571 33.4443 601.072 33.1202 Q599.613 32.7556 597.831 32.7556 Q591.512 32.7556 588.109 36.8875 Q584.747 40.9789 584.747 48.6757 L584.747 72.576 L577.252 72.576 L577.252 27.2059 L584.747 27.2059 L584.747 34.2544 Q587.096 30.1225 590.863 28.1376 Q594.631 26.1121 600.018 26.1121 Q600.788 26.1121 601.72 26.2337 Q602.652 26.3147 603.786 26.5172 L603.826 34.1734 Z" fill="#000000" fill-rule="nonzero" fill-opacity="1" /><path clip-path="url(#clip460)" d="M638.34 12.096 L646.523 12.096 L646.523 65.6895 L675.973 65.6895 L675.973 72.576 L638.34 72.576 L638.34 12.096 Z" fill="#000000" fill-rule="nonzero" fill-opacity="1" /><path clip-path="url(#clip460)" d="M700.359 32.4315 Q694.364 32.4315 690.88 37.1306 Q687.396 41.7891 687.396 49.9314 Q687.396 58.0738 690.84 62.7728 Q694.324 67.4314 700.359 67.4314 Q706.314 67.4314 709.798 62.7323 Q713.282 58.0333 713.282 49.9314 Q713.282 41.8701 709.798 37.1711 Q706.314 32.4315 700.359 32.4315 M700.359 26.1121 Q710.082 26.1121 715.631 32.4315 Q721.181 38.7509 721.181 49.9314 Q721.181 61.0714 715.631 67.4314 Q710.082 73.7508 700.359 73.7508 Q690.597 73.7508 685.047 67.4314 Q679.538 61.0714 679.538 49.9314 Q679.538 38.7509 685.047 32.4315 Q690.597 26.1121 700.359 26.1121 Z" fill="#000000" fill-rule="nonzero" fill-opacity="1" /><path clip-path="url(#clip460)" d="M754.155 49.7694 Q745.122 49.7694 741.638 51.8354 Q738.154 53.9013 738.154 58.8839 Q738.154 62.8538 740.747 65.2034 Q743.38 67.5124 747.876 67.5124 Q754.074 67.5124 757.801 63.1374 Q761.569 58.7219 761.569 51.4303 L761.569 49.7694 L754.155 49.7694 M769.022 46.6907 L769.022 72.576 L761.569 72.576 L761.569 65.6895 Q759.016 69.8214 755.209 71.8063 Q751.401 73.7508 745.892 73.7508 Q738.924 73.7508 734.792 69.8619 Q730.701 65.9325 730.701 59.3701 Q730.701 51.7138 735.805 47.825 Q740.949 43.9361 751.117 43.9361 L761.569 43.9361 L761.569 43.2069 Q761.569 38.0623 758.166 35.2672 Q754.804 32.4315 748.687 32.4315 Q744.798 32.4315 741.111 33.3632 Q737.425 34.295 734.022 36.1584 L734.022 29.2718 Q738.114 27.692 741.962 26.9223 Q745.811 26.1121 749.456 26.1121 Q759.3 26.1121 764.161 31.2163 Q769.022 36.3204 769.022 46.6907 Z" fill="#000000" fill-rule="nonzero" fill-opacity="1" /><path clip-path="url(#clip460)" d="M814.23 34.0924 L814.23 9.54393 L821.684 9.54393 L821.684 72.576 L814.23 72.576 L814.23 65.7705 Q811.881 69.8214 808.275 71.8063 Q804.711 73.7508 799.688 73.7508 Q791.464 73.7508 786.279 67.1883 Q781.134 60.6258 781.134 49.9314 Q781.134 39.2371 786.279 32.6746 Q791.464 26.1121 799.688 26.1121 Q804.711 26.1121 808.275 28.0971 Q811.881 30.0415 814.23 34.0924 M788.831 49.9314 Q788.831 58.1548 792.193 62.8538 Q795.596 67.5124 801.51 67.5124 Q807.425 67.5124 810.828 62.8538 Q814.23 58.1548 814.23 49.9314 Q814.23 41.7081 810.828 37.0496 Q807.425 32.3505 801.51 32.3505 Q795.596 32.3505 792.193 37.0496 Q788.831 41.7081 788.831 49.9314 Z" fill="#000000" fill-rule="nonzero" fill-opacity="1" /><path clip-path="url(#clip460)" d="M858.345 12.096 L866.608 12.096 L879.328 63.2184 L892.008 12.096 L901.203 12.096 L913.923 63.2184 L926.602 12.096 L934.907 12.096 L919.716 72.576 L909.427 72.576 L896.666 20.0763 L883.784 72.576 L873.495 72.576 L858.345 12.096 Z" fill="#000000" fill-rule="nonzero" fill-opacity="1" /><path clip-path="url(#clip460)" d="M979.386 48.0275 L979.386 51.6733 L945.115 51.6733 Q945.601 59.3701 949.733 63.421 Q953.905 67.4314 961.319 67.4314 Q965.613 67.4314 969.623 66.3781 Q973.674 65.3249 977.644 63.2184 L977.644 70.267 Q973.633 71.9684 969.42 72.8596 Q965.207 73.7508 960.873 73.7508 Q950.017 73.7508 943.657 67.4314 Q937.337 61.1119 937.337 50.3365 Q937.337 39.1965 943.333 32.6746 Q949.368 26.1121 959.577 26.1121 Q968.732 26.1121 974.038 32.0264 Q979.386 37.9003 979.386 48.0275 M971.932 45.84 Q971.851 39.7232 968.489 36.0774 Q965.167 32.4315 959.658 32.4315 Q953.419 32.4315 949.652 35.9558 Q945.925 39.4801 945.358 45.8805 L971.932 45.84 Z" fill="#000000" fill-rule="nonzero" fill-opacity="1" /><path clip-path="url(#clip460)" d="M991.619 27.2059 L999.073 27.2059 L999.073 72.576 L991.619 72.576 L991.619 27.2059 M991.619 9.54393 L999.073 9.54393 L999.073 18.9825 L991.619 18.9825 L991.619 9.54393 Z" fill="#000000" fill-rule="nonzero" fill-opacity="1" /><path clip-path="url(#clip460)" d="M1044.52 49.3643 Q1044.52 41.2625 1041.16 36.8065 Q1037.84 32.3505 1031.8 32.3505 Q1025.81 32.3505 1022.45 36.8065 Q1019.13 41.2625 1019.13 49.3643 Q1019.13 57.4256 1022.45 61.8816 Q1025.81 66.3376 1031.8 66.3376 Q1037.84 66.3376 1041.16 61.8816 Q1044.52 57.4256 1044.52 49.3643 M1051.98 66.9452 Q1051.98 78.5308 1046.83 84.1616 Q1041.69 89.8329 1031.08 89.8329 Q1027.15 89.8329 1023.66 89.2252 Q1020.18 88.6581 1016.9 87.4428 L1016.9 80.1917 Q1020.18 81.9741 1023.38 82.8248 Q1026.58 83.6755 1029.9 83.6755 Q1037.23 83.6755 1040.88 79.8271 Q1044.52 76.0193 1044.52 68.282 L1044.52 64.5957 Q1042.22 68.6061 1038.61 70.5911 Q1035 72.576 1029.98 72.576 Q1021.64 72.576 1016.53 66.2161 Q1011.43 59.8562 1011.43 49.3643 Q1011.43 38.832 1016.53 32.472 Q1021.64 26.1121 1029.98 26.1121 Q1035 26.1121 1038.61 28.0971 Q1042.22 30.082 1044.52 34.0924 L1044.52 27.2059 L1051.98 27.2059 L1051.98 66.9452 Z" fill="#000000" fill-rule="nonzero" fill-opacity="1" /><path clip-path="url(#clip460)" d="M1105.04 45.1919 L1105.04 72.576 L1097.59 72.576 L1097.59 45.4349 Q1097.59 38.994 1095.08 35.7938 Q1092.57 32.5936 1087.54 32.5936 Q1081.51 32.5936 1078.03 36.4419 Q1074.54 40.2903 1074.54 46.9338 L1074.54 72.576 L1067.05 72.576 L1067.05 9.54393 L1074.54 9.54393 L1074.54 34.2544 Q1077.21 30.163 1080.82 28.1376 Q1084.47 26.1121 1089.21 26.1121 Q1097.02 26.1121 1101.03 30.9732 Q1105.04 35.7938 1105.04 45.1919 Z" fill="#000000" fill-rule="nonzero" fill-opacity="1" /><path clip-path="url(#clip460)" d="M1127.28 14.324 L1127.28 27.2059 L1142.64 27.2059 L1142.64 32.9987 L1127.28 32.9987 L1127.28 57.6282 Q1127.28 63.1779 1128.78 64.7578 Q1130.32 66.3376 1134.98 66.3376 L1142.64 66.3376 L1142.64 72.576 L1134.98 72.576 Q1126.35 72.576 1123.07 69.3758 Q1119.79 66.1351 1119.79 57.6282 L1119.79 32.9987 L1114.32 32.9987 L1114.32 27.2059 L1119.79 27.2059 L1119.79 14.324 L1127.28 14.324 Z" fill="#000000" fill-rule="nonzero" fill-opacity="1" /><path clip-path="url(#clip460)" d="M1181.36 28.5427 L1181.36 35.5912 Q1178.2 33.9709 1174.8 33.1607 Q1171.4 32.3505 1167.75 32.3505 Q1162.2 32.3505 1159.41 34.0519 Q1156.65 35.7533 1156.65 39.156 Q1156.65 41.7486 1158.64 43.2475 Q1160.62 44.7058 1166.62 46.0426 L1169.17 46.6097 Q1177.11 48.3111 1180.43 51.4303 Q1183.79 54.509 1183.79 60.0587 Q1183.79 66.3781 1178.77 70.0644 Q1173.79 73.7508 1165.04 73.7508 Q1161.39 73.7508 1157.42 73.0216 Q1153.49 72.3329 1149.12 70.9151 L1149.12 63.2184 Q1153.25 65.3654 1157.26 66.4591 Q1161.27 67.5124 1165.2 67.5124 Q1170.47 67.5124 1173.3 65.73 Q1176.14 63.9071 1176.14 60.6258 Q1176.14 57.5877 1174.07 55.9673 Q1172.05 54.3469 1165.12 52.8481 L1162.53 52.2405 Q1155.6 50.7821 1152.52 47.7845 Q1149.44 44.7463 1149.44 39.4801 Q1149.44 33.0797 1153.98 29.5959 Q1158.52 26.1121 1166.86 26.1121 Q1170.99 26.1121 1174.64 26.7198 Q1178.29 27.3274 1181.36 28.5427 Z" fill="#000000" fill-rule="nonzero" fill-opacity="1" /><path clip-path="url(#clip460)" d="M1229.25 65.7705 L1229.25 89.8329 L1221.75 89.8329 L1221.75 27.2059 L1229.25 27.2059 L1229.25 34.0924 Q1231.59 30.0415 1235.16 28.0971 Q1238.77 26.1121 1243.75 26.1121 Q1252.01 26.1121 1257.16 32.6746 Q1262.34 39.2371 1262.34 49.9314 Q1262.34 60.6258 1257.16 67.1883 Q1252.01 73.7508 1243.75 73.7508 Q1238.77 73.7508 1235.16 71.8063 Q1231.59 69.8214 1229.25 65.7705 M1254.6 49.9314 Q1254.6 41.7081 1251.2 37.0496 Q1247.84 32.3505 1241.92 32.3505 Q1236.01 32.3505 1232.61 37.0496 Q1229.25 41.7081 1229.25 49.9314 Q1229.25 58.1548 1232.61 62.8538 Q1236.01 67.5124 1241.92 67.5124 Q1247.84 67.5124 1251.2 62.8538 Q1254.6 58.1548 1254.6 49.9314 Z" fill="#000000" fill-rule="nonzero" fill-opacity="1" /><path clip-path="url(#clip460)" d="M1313.5 48.0275 L1313.5 51.6733 L1279.23 51.6733 Q1279.72 59.3701 1283.85 63.421 Q1288.02 67.4314 1295.44 67.4314 Q1299.73 67.4314 1303.74 66.3781 Q1307.79 65.3249 1311.76 63.2184 L1311.76 70.267 Q1307.75 71.9684 1303.54 72.8596 Q1299.33 73.7508 1294.99 73.7508 Q1284.14 73.7508 1277.78 67.4314 Q1271.46 61.1119 1271.46 50.3365 Q1271.46 39.1965 1277.45 32.6746 Q1283.49 26.1121 1293.7 26.1121 Q1302.85 26.1121 1308.16 32.0264 Q1313.5 37.9003 1313.5 48.0275 M1306.05 45.84 Q1305.97 39.7232 1302.61 36.0774 Q1299.29 32.4315 1293.78 32.4315 Q1287.54 32.4315 1283.77 35.9558 Q1280.04 39.4801 1279.48 45.8805 L1306.05 45.84 Z" fill="#000000" fill-rule="nonzero" fill-opacity="1" /><path clip-path="url(#clip460)" d="M1352.03 34.1734 Q1350.77 33.4443 1349.27 33.1202 Q1347.82 32.7556 1346.03 32.7556 Q1339.71 32.7556 1336.31 36.8875 Q1332.95 40.9789 1332.95 48.6757 L1332.95 72.576 L1325.45 72.576 L1325.45 27.2059 L1332.95 27.2059 L1332.95 34.2544 Q1335.3 30.1225 1339.07 28.1376 Q1342.83 26.1121 1348.22 26.1121 Q1348.99 26.1121 1349.92 26.2337 Q1350.85 26.3147 1351.99 26.5172 L1352.03 34.1734 Z" fill="#000000" fill-rule="nonzero" fill-opacity="1" /><path clip-path="url(#clip460)" d="M1386.54 12.096 L1394.72 12.096 L1394.72 65.6895 L1424.17 65.6895 L1424.17 72.576 L1386.54 72.576 L1386.54 12.096 Z" fill="#000000" fill-rule="nonzero" fill-opacity="1" /><path clip-path="url(#clip460)" d="M1448.56 32.4315 Q1442.57 32.4315 1439.08 37.1306 Q1435.6 41.7891 1435.6 49.9314 Q1435.6 58.0738 1439.04 62.7728 Q1442.53 67.4314 1448.56 67.4314 Q1454.52 67.4314 1458 62.7323 Q1461.48 58.0333 1461.48 49.9314 Q1461.48 41.8701 1458 37.1711 Q1454.52 32.4315 1448.56 32.4315 M1448.56 26.1121 Q1458.28 26.1121 1463.83 32.4315 Q1469.38 38.7509 1469.38 49.9314 Q1469.38 61.0714 1463.83 67.4314 Q1458.28 73.7508 1448.56 73.7508 Q1438.8 73.7508 1433.25 67.4314 Q1427.74 61.0714 1427.74 49.9314 Q1427.74 38.7509 1433.25 32.4315 Q1438.8 26.1121 1448.56 26.1121 Z" fill="#000000" fill-rule="nonzero" fill-opacity="1" /><path clip-path="url(#clip460)" d="M1502.36 49.7694 Q1493.32 49.7694 1489.84 51.8354 Q1486.36 53.9013 1486.36 58.8839 Q1486.36 62.8538 1488.95 65.2034 Q1491.58 67.5124 1496.08 67.5124 Q1502.28 67.5124 1506 63.1374 Q1509.77 58.7219 1509.77 51.4303 L1509.77 49.7694 L1502.36 49.7694 M1517.22 46.6907 L1517.22 72.576 L1509.77 72.576 L1509.77 65.6895 Q1507.22 69.8214 1503.41 71.8063 Q1499.6 73.7508 1494.09 73.7508 Q1487.13 73.7508 1482.99 69.8619 Q1478.9 65.9325 1478.9 59.3701 Q1478.9 51.7138 1484.01 47.825 Q1489.15 43.9361 1499.32 43.9361 L1509.77 43.9361 L1509.77 43.2069 Q1509.77 38.0623 1506.37 35.2672 Q1503.01 32.4315 1496.89 32.4315 Q1493 32.4315 1489.31 33.3632 Q1485.63 34.295 1482.22 36.1584 L1482.22 29.2718 Q1486.32 27.692 1490.16 26.9223 Q1494.01 26.1121 1497.66 26.1121 Q1507.5 26.1121 1512.36 31.2163 Q1517.22 36.3204 1517.22 46.6907 Z" fill="#000000" fill-rule="nonzero" fill-opacity="1" /><path clip-path="url(#clip460)" d="M1562.43 34.0924 L1562.43 9.54393 L1569.89 9.54393 L1569.89 72.576 L1562.43 72.576 L1562.43 65.7705 Q1560.08 69.8214 1556.48 71.8063 Q1552.91 73.7508 1547.89 73.7508 Q1539.67 73.7508 1534.48 67.1883 Q1529.34 60.6258 1529.34 49.9314 Q1529.34 39.2371 1534.48 32.6746 Q1539.67 26.1121 1547.89 26.1121 Q1552.91 26.1121 1556.48 28.0971 Q1560.08 30.0415 1562.43 34.0924 M1537.03 49.9314 Q1537.03 58.1548 1540.4 62.8538 Q1543.8 67.5124 1549.71 67.5124 Q1555.63 67.5124 1559.03 62.8538 Q1562.43 58.1548 1562.43 49.9314 Q1562.43 41.7081 1559.03 37.0496 Q1555.63 32.3505 1549.71 32.3505 Q1543.8 32.3505 1540.4 37.0496 Q1537.03 41.7081 1537.03 49.9314 Z" fill="#000000" fill-rule="nonzero" fill-opacity="1" /><path clip-path="url(#clip460)" d="M1607.84 46.5287 L1629.68 46.5287 L1629.68 53.1722 L1607.84 53.1722 L1607.84 46.5287 Z" fill="#000000" fill-rule="nonzero" fill-opacity="1" /><path clip-path="url(#clip460)" d="M1668.24 12.096 L1676.42 12.096 L1676.42 72.576 L1668.24 72.576 L1668.24 12.096 Z" fill="#000000" fill-rule="nonzero" fill-opacity="1" /><path clip-path="url(#clip460)" d="M1699.76 14.324 L1699.76 27.2059 L1715.11 27.2059 L1715.11 32.9987 L1699.76 32.9987 L1699.76 57.6282 Q1699.76 63.1779 1701.26 64.7578 Q1702.8 66.3376 1707.45 66.3376 L1715.11 66.3376 L1715.11 72.576 L1707.45 72.576 Q1698.83 72.576 1695.55 69.3758 Q1692.26 66.1351 1692.26 57.6282 L1692.26 32.9987 L1686.8 32.9987 L1686.8 27.2059 L1692.26 27.2059 L1692.26 14.324 L1699.76 14.324 Z" fill="#000000" fill-rule="nonzero" fill-opacity="1" /><path clip-path="url(#clip460)" d="M1763.72 48.0275 L1763.72 51.6733 L1729.45 51.6733 Q1729.94 59.3701 1734.07 63.421 Q1738.24 67.4314 1745.65 67.4314 Q1749.95 67.4314 1753.96 66.3781 Q1758.01 65.3249 1761.98 63.2184 L1761.98 70.267 Q1757.97 71.9684 1753.76 72.8596 Q1749.54 73.7508 1745.21 73.7508 Q1734.35 73.7508 1727.99 67.4314 Q1721.67 61.1119 1721.67 50.3365 Q1721.67 39.1965 1727.67 32.6746 Q1733.7 26.1121 1743.91 26.1121 Q1753.07 26.1121 1758.37 32.0264 Q1763.72 37.9003 1763.72 48.0275 M1756.27 45.84 Q1756.19 39.7232 1752.82 36.0774 Q1749.5 32.4315 1743.99 32.4315 Q1737.76 32.4315 1733.99 35.9558 Q1730.26 39.4801 1729.69 45.8805 L1756.27 45.84 Z" fill="#000000" fill-rule="nonzero" fill-opacity="1" /><path clip-path="url(#clip460)" d="M1802.25 34.1734 Q1800.99 33.4443 1799.49 33.1202 Q1798.03 32.7556 1796.25 32.7556 Q1789.93 32.7556 1786.53 36.8875 Q1783.17 40.9789 1783.17 48.6757 L1783.17 72.576 L1775.67 72.576 L1775.67 27.2059 L1783.17 27.2059 L1783.17 34.2544 Q1785.52 30.1225 1789.28 28.1376 Q1793.05 26.1121 1798.44 26.1121 Q1799.21 26.1121 1800.14 26.2337 Q1801.07 26.3147 1802.21 26.5172 L1802.25 34.1734 Z" fill="#000000" fill-rule="nonzero" fill-opacity="1" /><path clip-path="url(#clip460)" d="M1830.68 49.7694 Q1821.65 49.7694 1818.17 51.8354 Q1814.68 53.9013 1814.68 58.8839 Q1814.68 62.8538 1817.27 65.2034 Q1819.91 67.5124 1824.4 67.5124 Q1830.6 67.5124 1834.33 63.1374 Q1838.1 58.7219 1838.1 51.4303 L1838.1 49.7694 L1830.68 49.7694 M1845.55 46.6907 L1845.55 72.576 L1838.1 72.576 L1838.1 65.6895 Q1835.54 69.8214 1831.74 71.8063 Q1827.93 73.7508 1822.42 73.7508 Q1815.45 73.7508 1811.32 69.8619 Q1807.23 65.9325 1807.23 59.3701 Q1807.23 51.7138 1812.33 47.825 Q1817.48 43.9361 1827.64 43.9361 L1838.1 43.9361 L1838.1 43.2069 Q1838.1 38.0623 1834.69 35.2672 Q1831.33 32.4315 1825.21 32.4315 Q1821.33 32.4315 1817.64 33.3632 Q1813.95 34.295 1810.55 36.1584 L1810.55 29.2718 Q1814.64 27.692 1818.49 26.9223 Q1822.34 26.1121 1825.98 26.1121 Q1835.83 26.1121 1840.69 31.2163 Q1845.55 36.3204 1845.55 46.6907 Z" fill="#000000" fill-rule="nonzero" fill-opacity="1" /><path clip-path="url(#clip460)" d="M1868.28 14.324 L1868.28 27.2059 L1883.63 27.2059 L1883.63 32.9987 L1868.28 32.9987 L1868.28 57.6282 Q1868.28 63.1779 1869.77 64.7578 Q1871.31 66.3376 1875.97 66.3376 L1883.63 66.3376 L1883.63 72.576 L1875.97 72.576 Q1867.34 72.576 1864.06 69.3758 Q1860.78 66.1351 1860.78 57.6282 L1860.78 32.9987 L1855.31 32.9987 L1855.31 27.2059 L1860.78 27.2059 L1860.78 14.324 L1868.28 14.324 Z" fill="#000000" fill-rule="nonzero" fill-opacity="1" /><path clip-path="url(#clip460)" d="M1893.43 27.2059 L1900.89 27.2059 L1900.89 72.576 L1893.43 72.576 L1893.43 27.2059 M1893.43 9.54393 L1900.89 9.54393 L1900.89 18.9825 L1893.43 18.9825 L1893.43 9.54393 Z" fill="#000000" fill-rule="nonzero" fill-opacity="1" /><path clip-path="url(#clip460)" d="M1934.06 32.4315 Q1928.07 32.4315 1924.58 37.1306 Q1921.1 41.7891 1921.1 49.9314 Q1921.1 58.0738 1924.54 62.7728 Q1928.03 67.4314 1934.06 67.4314 Q1940.02 67.4314 1943.5 62.7323 Q1946.98 58.0333 1946.98 49.9314 Q1946.98 41.8701 1943.5 37.1711 Q1940.02 32.4315 1934.06 32.4315 M1934.06 26.1121 Q1943.78 26.1121 1949.33 32.4315 Q1954.88 38.7509 1954.88 49.9314 Q1954.88 61.0714 1949.33 67.4314 Q1943.78 73.7508 1934.06 73.7508 Q1924.3 73.7508 1918.75 67.4314 Q1913.24 61.0714 1913.24 49.9314 Q1913.24 38.7509 1918.75 32.4315 Q1924.3 26.1121 1934.06 26.1121 Z" fill="#000000" fill-rule="nonzero" fill-opacity="1" /><path clip-path="url(#clip460)" d="M2004.95 45.1919 L2004.95 72.576 L1997.5 72.576 L1997.5 45.4349 Q1997.5 38.994 1994.99 35.7938 Q1992.48 32.5936 1987.45 32.5936 Q1981.42 32.5936 1977.93 36.4419 Q1974.45 40.2903 1974.45 46.9338 L1974.45 72.576 L1966.96 72.576 L1966.96 27.2059 L1974.45 27.2059 L1974.45 34.2544 Q1977.12 30.163 1980.73 28.1376 Q1984.37 26.1121 1989.11 26.1121 Q1996.93 26.1121 2000.94 30.9732 Q2004.95 35.7938 2004.95 45.1919 Z" fill="#000000" fill-rule="nonzero" fill-opacity="1" /><path clip-path="url(#clip460)" d="M2048.66 65.6895 L2062.03 65.6895 L2062.03 19.5497 L2047.49 22.4663 L2047.49 15.0127 L2061.95 12.096 L2070.13 12.096 L2070.13 65.6895 L2083.5 65.6895 L2083.5 72.576 L2048.66 72.576 L2048.66 65.6895 Z" fill="#000000" fill-rule="nonzero" fill-opacity="1" /><path clip-path="url(#clip460)" d="M2117.53 17.4837 Q2111.21 17.4837 2108.01 23.7221 Q2104.85 29.92 2104.85 42.3968 Q2104.85 54.833 2108.01 61.0714 Q2111.21 67.2693 2117.53 67.2693 Q2123.89 67.2693 2127.05 61.0714 Q2130.25 54.833 2130.25 42.3968 Q2130.25 29.92 2127.05 23.7221 Q2123.89 17.4837 2117.53 17.4837 M2117.53 11.0023 Q2127.7 11.0023 2133.04 19.0636 Q2138.43 27.0843 2138.43 42.3968 Q2138.43 57.6687 2133.04 65.73 Q2127.7 73.7508 2117.53 73.7508 Q2107.36 73.7508 2101.97 65.73 Q2096.63 57.6687 2096.63 42.3968 Q2096.63 27.0843 2101.97 19.0636 Q2107.36 11.0023 2117.53 11.0023 Z" fill="#000000" fill-rule="nonzero" fill-opacity="1" /><path clip-path="url(#clip462)" d="M871.129 1423.18 L871.129 1423.18 L972.31 1423.18 L972.31 1423.18 L871.129 1423.18 L871.129 1423.18  Z" fill="#009af9" fill-rule="evenodd" fill-opacity="1"/>
<polyline clip-path="url(#clip462)" style="stroke:#000000; stroke-linecap:round; stroke-linejoin:round; stroke-width:4; stroke-opacity:1; fill:none" points="871.129,1423.18 871.129,1423.18 972.31,1423.18 972.31,1423.18 871.129,1423.18 "/>
<path clip-path="url(#clip462)" d="M1756.46 1423.18 L1756.46 1423.18 L1857.65 1423.18 L1857.65 1423.18 L1756.46 1423.18 L1756.46 1423.18  Z" fill="#009af9" fill-rule="evenodd" fill-opacity="1"/>
<polyline clip-path="url(#clip462)" style="stroke:#000000; stroke-linecap:round; stroke-linejoin:round; stroke-width:4; stroke-opacity:1; fill:none" points="1756.46,1423.18 1756.46,1423.18 1857.65,1423.18 1857.65,1423.18 1756.46,1423.18 "/>
<path clip-path="url(#clip462)" d="M1250.56 1423.18 L1250.56 1423.18 L1351.74 1423.18 L1351.74 1423.18 L1250.56 1423.18 L1250.56 1423.18  Z" fill="#009af9" fill-rule="evenodd" fill-opacity="1"/>
<polyline clip-path="url(#clip462)" style="stroke:#000000; stroke-linecap:round; stroke-linejoin:round; stroke-width:4; stroke-opacity:1; fill:none" points="1250.56,1423.18 1250.56,1423.18 1351.74,1423.18 1351.74,1423.18 1250.56,1423.18 "/>
<path clip-path="url(#clip462)" d="M365.223 1423.18 L365.223 1423.18 L466.404 1423.18 L466.404 1423.18 L365.223 1423.18 L365.223 1423.18  Z" fill="#009af9" fill-rule="evenodd" fill-opacity="1"/>
<polyline clip-path="url(#clip462)" style="stroke:#000000; stroke-linecap:round; stroke-linejoin:round; stroke-width:4; stroke-opacity:1; fill:none" points="365.223,1423.18 365.223,1423.18 466.404,1423.18 466.404,1423.18 365.223,1423.18 "/>
<path clip-path="url(#clip462)" d="M997.605 163.561 L997.605 1423.18 L1098.79 1423.18 L1098.79 163.561 L997.605 163.561 L997.605 163.561  Z" fill="#009af9" fill-rule="evenodd" fill-opacity="1"/>
<polyline clip-path="url(#clip462)" style="stroke:#000000; stroke-linecap:round; stroke-linejoin:round; stroke-width:4; stroke-opacity:1; fill:none" points="997.605,163.561 997.605,1423.18 1098.79,1423.18 1098.79,163.561 997.605,163.561 "/>
<path clip-path="url(#clip462)" d="M1629.99 1423.18 L1629.99 1423.18 L1731.17 1423.18 L1731.17 1423.18 L1629.99 1423.18 L1629.99 1423.18  Z" fill="#009af9" fill-rule="evenodd" fill-opacity="1"/>
<polyline clip-path="url(#clip462)" style="stroke:#000000; stroke-linecap:round; stroke-linejoin:round; stroke-width:4; stroke-opacity:1; fill:none" points="1629.99,1423.18 1629.99,1423.18 1731.17,1423.18 1731.17,1423.18 1629.99,1423.18 "/>
<path clip-path="url(#clip462)" d="M1377.03 1422.55 L1377.03 1423.18 L1478.22 1423.18 L1478.22 1422.55 L1377.03 1422.55 L1377.03 1422.55  Z" fill="#009af9" fill-rule="evenodd" fill-opacity="1"/>
<polyline clip-path="url(#clip462)" style="stroke:#000000; stroke-linecap:round; stroke-linejoin:round; stroke-width:4; stroke-opacity:1; fill:none" points="1377.03,1422.55 1377.03,1423.18 1478.22,1423.18 1478.22,1422.55 1377.03,1422.55 "/>
<path clip-path="url(#clip462)" d="M2009.42 983.706 L2009.42 1423.18 L2110.6 1423.18 L2110.6 983.706 L2009.42 983.706 L2009.42 983.706  Z" fill="#009af9" fill-rule="evenodd" fill-opacity="1"/>
<polyline clip-path="url(#clip462)" style="stroke:#000000; stroke-linecap:round; stroke-linejoin:round; stroke-width:4; stroke-opacity:1; fill:none" points="2009.42,983.706 2009.42,1423.18 2110.6,1423.18 2110.6,983.706 2009.42,983.706 "/>
<path clip-path="url(#clip462)" d="M618.176 1423.18 L618.176 1423.18 L719.357 1423.18 L719.357 1423.18 L618.176 1423.18 L618.176 1423.18  Z" fill="#009af9" fill-rule="evenodd" fill-opacity="1"/>
<polyline clip-path="url(#clip462)" style="stroke:#000000; stroke-linecap:round; stroke-linejoin:round; stroke-width:4; stroke-opacity:1; fill:none" points="618.176,1423.18 618.176,1423.18 719.357,1423.18 719.357,1423.18 618.176,1423.18 "/>
<path clip-path="url(#clip462)" d="M1124.08 123.472 L1124.08 1423.18 L1225.26 1423.18 L1225.26 123.472 L1124.08 123.472 L1124.08 123.472  Z" fill="#009af9" fill-rule="evenodd" fill-opacity="1"/>
<polyline clip-path="url(#clip462)" style="stroke:#000000; stroke-linecap:round; stroke-linejoin:round; stroke-width:4; stroke-opacity:1; fill:none" points="1124.08,123.472 1124.08,1423.18 1225.26,1423.18 1225.26,123.472 1124.08,123.472 "/>
<path clip-path="url(#clip462)" d="M744.652 1423.18 L744.652 1423.18 L845.833 1423.18 L845.833 1423.18 L744.652 1423.18 L744.652 1423.18  Z" fill="#009af9" fill-rule="evenodd" fill-opacity="1"/>
<polyline clip-path="url(#clip462)" style="stroke:#000000; stroke-linecap:round; stroke-linejoin:round; stroke-width:4; stroke-opacity:1; fill:none" points="744.652,1423.18 744.652,1423.18 845.833,1423.18 845.833,1423.18 744.652,1423.18 "/>
<path clip-path="url(#clip462)" d="M1882.94 1421.66 L1882.94 1423.18 L1984.12 1423.18 L1984.12 1421.66 L1882.94 1421.66 L1882.94 1421.66  Z" fill="#009af9" fill-rule="evenodd" fill-opacity="1"/>
<polyline clip-path="url(#clip462)" style="stroke:#000000; stroke-linecap:round; stroke-linejoin:round; stroke-width:4; stroke-opacity:1; fill:none" points="1882.94,1421.66 1882.94,1423.18 1984.12,1423.18 1984.12,1421.66 1882.94,1421.66 "/>
<path clip-path="url(#clip462)" d="M2135.89 1423.18 L2135.89 1423.18 L2237.08 1423.18 L2237.08 1423.18 L2135.89 1423.18 L2135.89 1423.18  Z" fill="#009af9" fill-rule="evenodd" fill-opacity="1"/>
<polyline clip-path="url(#clip462)" style="stroke:#000000; stroke-linecap:round; stroke-linejoin:round; stroke-width:4; stroke-opacity:1; fill:none" points="2135.89,1423.18 2135.89,1423.18 2237.08,1423.18 2237.08,1423.18 2135.89,1423.18 "/>
<path clip-path="url(#clip462)" d="M491.699 1423.18 L491.699 1423.18 L592.88 1423.18 L592.88 1423.18 L491.699 1423.18 L491.699 1423.18  Z" fill="#009af9" fill-rule="evenodd" fill-opacity="1"/>
<polyline clip-path="url(#clip462)" style="stroke:#000000; stroke-linecap:round; stroke-linejoin:round; stroke-width:4; stroke-opacity:1; fill:none" points="491.699,1423.18 491.699,1423.18 592.88,1423.18 592.88,1423.18 491.699,1423.18 "/>
<path clip-path="url(#clip462)" d="M1503.51 1423.18 L1503.51 1423.18 L1604.69 1423.18 L1604.69 1423.18 L1503.51 1423.18 L1503.51 1423.18  Z" fill="#009af9" fill-rule="evenodd" fill-opacity="1"/>
<polyline clip-path="url(#clip462)" style="stroke:#000000; stroke-linecap:round; stroke-linejoin:round; stroke-width:4; stroke-opacity:1; fill:none" points="1503.51,1423.18 1503.51,1423.18 1604.69,1423.18 1604.69,1423.18 1503.51,1423.18 "/>
<circle clip-path="url(#clip462)" style="fill:#009af9; stroke:none; fill-opacity:0" cx="921.719" cy="1423.18" r="2"/>
<circle clip-path="url(#clip462)" style="fill:#009af9; stroke:none; fill-opacity:0" cx="1807.06" cy="1423.18" r="2"/>
<circle clip-path="url(#clip462)" style="fill:#009af9; stroke:none; fill-opacity:0" cx="1301.15" cy="1423.18" r="2"/>
<circle clip-path="url(#clip462)" style="fill:#009af9; stroke:none; fill-opacity:0" cx="415.813" cy="1423.18" r="2"/>
<circle clip-path="url(#clip462)" style="fill:#009af9; stroke:none; fill-opacity:0" cx="1048.2" cy="163.561" r="2"/>
<circle clip-path="url(#clip462)" style="fill:#009af9; stroke:none; fill-opacity:0" cx="1680.58" cy="1423.18" r="2"/>
<circle clip-path="url(#clip462)" style="fill:#009af9; stroke:none; fill-opacity:0" cx="1427.63" cy="1422.55" r="2"/>
<circle clip-path="url(#clip462)" style="fill:#009af9; stroke:none; fill-opacity:0" cx="2060.01" cy="983.706" r="2"/>
<circle clip-path="url(#clip462)" style="fill:#009af9; stroke:none; fill-opacity:0" cx="668.766" cy="1423.18" r="2"/>
<circle clip-path="url(#clip462)" style="fill:#009af9; stroke:none; fill-opacity:0" cx="1174.67" cy="123.472" r="2"/>
<circle clip-path="url(#clip462)" style="fill:#009af9; stroke:none; fill-opacity:0" cx="795.243" cy="1423.18" r="2"/>
<circle clip-path="url(#clip462)" style="fill:#009af9; stroke:none; fill-opacity:0" cx="1933.53" cy="1421.66" r="2"/>
<circle clip-path="url(#clip462)" style="fill:#009af9; stroke:none; fill-opacity:0" cx="2186.48" cy="1423.18" r="2"/>
<circle clip-path="url(#clip462)" style="fill:#009af9; stroke:none; fill-opacity:0" cx="542.29" cy="1423.18" r="2"/>
<circle clip-path="url(#clip462)" style="fill:#009af9; stroke:none; fill-opacity:0" cx="1554.1" cy="1423.18" r="2"/>
</svg>
