<?xml version="1.0" encoding="utf-8"?>
<svg xmlns="http://www.w3.org/2000/svg" xmlns:xlink="http://www.w3.org/1999/xlink" width="600" height="400" viewBox="0 0 2400 1600">
<defs>
  <clipPath id="clip920">
    <rect x="0" y="0" width="2400" height="1600"/>
  </clipPath>
</defs>
<path clip-path="url(#clip920)" d="M0 1600 L2400 1600 L2400 0 L0 0  Z" fill="#ffffff" fill-rule="evenodd" fill-opacity="1"/>
<defs>
  <clipPath id="clip921">
    <rect x="480" y="0" width="1681" height="1600"/>
  </clipPath>
</defs>
<path clip-path="url(#clip920)" d="M279.704 1423.18 L2352.76 1423.18 L2352.76 123.472 L279.704 123.472  Z" fill="#ffffff" fill-rule="evenodd" fill-opacity="1"/>
<defs>
  <clipPath id="clip922">
    <rect x="279" y="123" width="2074" height="1301"/>
  </clipPath>
</defs>
<polyline clip-path="url(#clip922)" style="stroke:#000000; stroke-linecap:round; stroke-linejoin:round; stroke-width:2; stroke-opacity:0.1; fill:none" points="318.928,1423.18 318.928,123.472 "/>
<polyline clip-path="url(#clip922)" style="stroke:#000000; stroke-linecap:round; stroke-linejoin:round; stroke-width:2; stroke-opacity:0.1; fill:none" points="942.242,1423.18 942.242,123.472 "/>
<polyline clip-path="url(#clip922)" style="stroke:#000000; stroke-linecap:round; stroke-linejoin:round; stroke-width:2; stroke-opacity:0.1; fill:none" points="1565.56,1423.18 1565.56,123.472 "/>
<polyline clip-path="url(#clip922)" style="stroke:#000000; stroke-linecap:round; stroke-linejoin:round; stroke-width:2; stroke-opacity:0.1; fill:none" points="2188.87,1423.18 2188.87,123.472 "/>
<polyline clip-path="url(#clip922)" style="stroke:#000000; stroke-linecap:round; stroke-linejoin:round; stroke-width:2; stroke-opacity:0.1; fill:none" points="279.704,1423.18 2352.76,1423.18 "/>
<polyline clip-path="url(#clip922)" style="stroke:#000000; stroke-linecap:round; stroke-linejoin:round; stroke-width:2; stroke-opacity:0.1; fill:none" points="279.704,1098.25 2352.76,1098.25 "/>
<polyline clip-path="url(#clip922)" style="stroke:#000000; stroke-linecap:round; stroke-linejoin:round; stroke-width:2; stroke-opacity:0.1; fill:none" points="279.704,773.326 2352.76,773.326 "/>
<polyline clip-path="url(#clip922)" style="stroke:#000000; stroke-linecap:round; stroke-linejoin:round; stroke-width:2; stroke-opacity:0.1; fill:none" points="279.704,448.399 2352.76,448.399 "/>
<polyline clip-path="url(#clip922)" style="stroke:#000000; stroke-linecap:round; stroke-linejoin:round; stroke-width:2; stroke-opacity:0.1; fill:none" points="279.704,123.472 2352.76,123.472 "/>
<polyline clip-path="url(#clip920)" style="stroke:#000000; stroke-linecap:round; stroke-linejoin:round; stroke-width:4; stroke-opacity:1; fill:none" points="279.704,1423.18 2352.76,1423.18 "/>
<polyline clip-path="url(#clip920)" style="stroke:#000000; stroke-linecap:round; stroke-linejoin:round; stroke-width:4; stroke-opacity:1; fill:none" points="318.928,1423.18 318.928,1404.28 "/>
<polyline clip-path="url(#clip920)" style="stroke:#000000; stroke-linecap:round; stroke-linejoin:round; stroke-width:4; stroke-opacity:1; fill:none" points="942.242,1423.18 942.242,1404.28 "/>
<polyline clip-path="url(#clip920)" style="stroke:#000000; stroke-linecap:round; stroke-linejoin:round; stroke-width:4; stroke-opacity:1; fill:none" points="1565.56,1423.18 1565.56,1404.28 "/>
<polyline clip-path="url(#clip920)" style="stroke:#000000; stroke-linecap:round; stroke-linejoin:round; stroke-width:4; stroke-opacity:1; fill:none" points="2188.87,1423.18 2188.87,1404.28 "/>
<path clip-path="url(#clip920)" d="M318.928 1454.1 Q315.317 1454.1 313.488 1457.66 Q311.682 1461.2 311.682 1468.33 Q311.682 1475.44 313.488 1479.01 Q315.317 1482.55 318.928 1482.55 Q322.562 1482.55 324.368 1479.01 Q326.196 1475.44 326.196 1468.33 Q326.196 1461.2 324.368 1457.66 Q322.562 1454.1 318.928 1454.1 M318.928 1450.39 Q324.738 1450.39 327.793 1455 Q330.872 1459.58 330.872 1468.33 Q330.872 1477.06 327.793 1481.67 Q324.738 1486.25 318.928 1486.25 Q313.118 1486.25 310.039 1481.67 Q306.983 1477.06 306.983 1468.33 Q306.983 1459.58 310.039 1455 Q313.118 1450.39 318.928 1450.39 Z" fill="#000000" fill-rule="nonzero" fill-opacity="1" /><path clip-path="url(#clip920)" d="M932.519 1451.02 L950.876 1451.02 L950.876 1454.96 L936.802 1454.96 L936.802 1463.43 Q937.82 1463.08 938.839 1462.92 Q939.857 1462.73 940.876 1462.73 Q946.663 1462.73 950.043 1465.9 Q953.422 1469.08 953.422 1474.49 Q953.422 1480.07 949.95 1483.17 Q946.478 1486.25 940.158 1486.25 Q937.982 1486.25 935.714 1485.88 Q933.469 1485.51 931.061 1484.77 L931.061 1480.07 Q933.144 1481.2 935.367 1481.76 Q937.589 1482.32 940.066 1482.32 Q944.07 1482.32 946.408 1480.21 Q948.746 1478.1 948.746 1474.49 Q948.746 1470.88 946.408 1468.77 Q944.07 1466.67 940.066 1466.67 Q938.191 1466.67 936.316 1467.08 Q934.464 1467.5 932.519 1468.38 L932.519 1451.02 Z" fill="#000000" fill-rule="nonzero" fill-opacity="1" /><path clip-path="url(#clip920)" d="M1540.24 1481.64 L1547.88 1481.64 L1547.88 1455.28 L1539.57 1456.95 L1539.57 1452.69 L1547.84 1451.02 L1552.51 1451.02 L1552.51 1481.64 L1560.15 1481.64 L1560.15 1485.58 L1540.24 1485.58 L1540.24 1481.64 Z" fill="#000000" fill-rule="nonzero" fill-opacity="1" /><path clip-path="url(#clip920)" d="M1579.59 1454.1 Q1575.98 1454.1 1574.15 1457.66 Q1572.35 1461.2 1572.35 1468.33 Q1572.35 1475.44 1574.15 1479.01 Q1575.98 1482.55 1579.59 1482.55 Q1583.23 1482.55 1585.03 1479.01 Q1586.86 1475.44 1586.86 1468.33 Q1586.86 1461.2 1585.03 1457.66 Q1583.23 1454.1 1579.59 1454.1 M1579.59 1450.39 Q1585.4 1450.39 1588.46 1455 Q1591.54 1459.58 1591.54 1468.33 Q1591.54 1477.06 1588.46 1481.67 Q1585.4 1486.25 1579.59 1486.25 Q1573.78 1486.25 1570.71 1481.67 Q1567.65 1477.06 1567.65 1468.33 Q1567.65 1459.58 1570.71 1455 Q1573.78 1450.39 1579.59 1450.39 Z" fill="#000000" fill-rule="nonzero" fill-opacity="1" /><path clip-path="url(#clip920)" d="M2164.05 1481.64 L2171.69 1481.64 L2171.69 1455.28 L2163.38 1456.95 L2163.38 1452.69 L2171.65 1451.02 L2176.32 1451.02 L2176.32 1481.64 L2183.96 1481.64 L2183.96 1485.58 L2164.05 1485.58 L2164.05 1481.64 Z" fill="#000000" fill-rule="nonzero" fill-opacity="1" /><path clip-path="url(#clip920)" d="M2193.45 1451.02 L2211.81 1451.02 L2211.81 1454.96 L2197.73 1454.96 L2197.73 1463.43 Q2198.75 1463.08 2199.77 1462.92 Q2200.79 1462.73 2201.81 1462.73 Q2207.6 1462.73 2210.98 1465.9 Q2214.36 1469.08 2214.36 1474.49 Q2214.36 1480.07 2210.88 1483.17 Q2207.41 1486.25 2201.09 1486.25 Q2198.92 1486.25 2196.65 1485.88 Q2194.4 1485.51 2191.99 1484.77 L2191.99 1480.07 Q2194.08 1481.2 2196.3 1481.76 Q2198.52 1482.32 2201 1482.32 Q2205 1482.32 2207.34 1480.21 Q2209.68 1478.1 2209.68 1474.49 Q2209.68 1470.88 2207.34 1468.77 Q2205 1466.67 2201 1466.67 Q2199.12 1466.67 2197.25 1467.08 Q2195.4 1467.5 2193.45 1468.38 L2193.45 1451.02 Z" fill="#000000" fill-rule="nonzero" fill-opacity="1" /><path clip-path="url(#clip920)" d="M1198.1 1520.52 L1204.53 1520.52 L1204.53 1562.63 L1227.67 1562.63 L1227.67 1568.04 L1198.1 1568.04 L1198.1 1520.52 Z" fill="#000000" fill-rule="nonzero" fill-opacity="1" /><path clip-path="url(#clip920)" d="M1246.83 1536.5 Q1242.12 1536.5 1239.38 1540.19 Q1236.64 1543.85 1236.64 1550.25 Q1236.64 1556.65 1239.35 1560.34 Q1242.09 1564 1246.83 1564 Q1251.51 1564 1254.24 1560.31 Q1256.98 1556.62 1256.98 1550.25 Q1256.98 1543.92 1254.24 1540.23 Q1251.51 1536.5 1246.83 1536.5 M1246.83 1531.54 Q1254.47 1531.54 1258.83 1536.5 Q1263.19 1541.47 1263.19 1550.25 Q1263.19 1559 1258.83 1564 Q1254.47 1568.97 1246.83 1568.97 Q1239.16 1568.97 1234.8 1564 Q1230.47 1559 1230.47 1550.25 Q1230.47 1541.47 1234.8 1536.5 Q1239.16 1531.54 1246.83 1531.54 Z" fill="#000000" fill-rule="nonzero" fill-opacity="1" /><path clip-path="url(#clip920)" d="M1289.1 1550.12 Q1282 1550.12 1279.26 1551.75 Q1276.52 1553.37 1276.52 1557.29 Q1276.52 1560.4 1278.56 1562.25 Q1280.63 1564.07 1284.16 1564.07 Q1289.03 1564.07 1291.96 1560.63 Q1294.92 1557.16 1294.92 1551.43 L1294.92 1550.12 L1289.1 1550.12 M1300.78 1547.71 L1300.78 1568.04 L1294.92 1568.04 L1294.92 1562.63 Q1292.92 1565.88 1289.92 1567.44 Q1286.93 1568.97 1282.6 1568.97 Q1277.13 1568.97 1273.88 1565.91 Q1270.67 1562.82 1270.67 1557.67 Q1270.67 1551.65 1274.68 1548.6 Q1278.72 1545.54 1286.71 1545.54 L1294.92 1545.54 L1294.92 1544.97 Q1294.92 1540.93 1292.25 1538.73 Q1289.61 1536.5 1284.8 1536.5 Q1281.74 1536.5 1278.85 1537.23 Q1275.95 1537.97 1273.28 1539.43 L1273.28 1534.02 Q1276.49 1532.78 1279.52 1532.17 Q1282.54 1531.54 1285.4 1531.54 Q1293.14 1531.54 1296.96 1535.55 Q1300.78 1539.56 1300.78 1547.71 Z" fill="#000000" fill-rule="nonzero" fill-opacity="1" /><path clip-path="url(#clip920)" d="M1336.3 1537.81 L1336.3 1518.52 L1342.15 1518.52 L1342.15 1568.04 L1336.3 1568.04 L1336.3 1562.7 Q1334.45 1565.88 1331.62 1567.44 Q1328.82 1568.97 1324.87 1568.97 Q1318.41 1568.97 1314.34 1563.81 Q1310.29 1558.65 1310.29 1550.25 Q1310.29 1541.85 1314.34 1536.69 Q1318.41 1531.54 1324.87 1531.54 Q1328.82 1531.54 1331.62 1533.1 Q1334.45 1534.62 1336.3 1537.81 M1316.34 1550.25 Q1316.34 1556.71 1318.98 1560.4 Q1321.66 1564.07 1326.3 1564.07 Q1330.95 1564.07 1333.62 1560.4 Q1336.3 1556.71 1336.3 1550.25 Q1336.3 1543.79 1333.62 1540.13 Q1330.95 1536.44 1326.3 1536.44 Q1321.66 1536.44 1318.98 1540.13 Q1316.34 1543.79 1316.34 1550.25 Z" fill="#000000" fill-rule="nonzero" fill-opacity="1" /><path clip-path="url(#clip920)" d="M1375.19 1520.52 L1381.62 1520.52 L1381.62 1568.04 L1375.19 1568.04 L1375.19 1520.52 Z" fill="#000000" fill-rule="nonzero" fill-opacity="1" /><path clip-path="url(#clip920)" d="M1400.85 1525.81 L1400.85 1562.76 L1408.61 1562.76 Q1418.45 1562.76 1423 1558.3 Q1427.58 1553.85 1427.58 1544.24 Q1427.58 1534.69 1423 1530.26 Q1418.45 1525.81 1408.61 1525.81 L1400.85 1525.81 M1394.42 1520.52 L1407.63 1520.52 Q1421.44 1520.52 1427.9 1526.28 Q1434.36 1532.01 1434.36 1544.24 Q1434.36 1556.52 1427.87 1562.28 Q1421.38 1568.04 1407.63 1568.04 L1394.42 1568.04 L1394.42 1520.52 Z" fill="#000000" fill-rule="nonzero" fill-opacity="1" /><polyline clip-path="url(#clip920)" style="stroke:#000000; stroke-linecap:round; stroke-linejoin:round; stroke-width:4; stroke-opacity:1; fill:none" points="279.704,1423.18 279.704,123.472 "/>
<polyline clip-path="url(#clip920)" style="stroke:#000000; stroke-linecap:round; stroke-linejoin:round; stroke-width:4; stroke-opacity:1; fill:none" points="279.704,1423.18 298.602,1423.18 "/>
<polyline clip-path="url(#clip920)" style="stroke:#000000; stroke-linecap:round; stroke-linejoin:round; stroke-width:4; stroke-opacity:1; fill:none" points="279.704,1098.25 298.602,1098.25 "/>
<polyline clip-path="url(#clip920)" style="stroke:#000000; stroke-linecap:round; stroke-linejoin:round; stroke-width:4; stroke-opacity:1; fill:none" points="279.704,773.326 298.602,773.326 "/>
<polyline clip-path="url(#clip920)" style="stroke:#000000; stroke-linecap:round; stroke-linejoin:round; stroke-width:4; stroke-opacity:1; fill:none" points="279.704,448.399 298.602,448.399 "/>
<polyline clip-path="url(#clip920)" style="stroke:#000000; stroke-linecap:round; stroke-linejoin:round; stroke-width:4; stroke-opacity:1; fill:none" points="279.704,123.472 298.602,123.472 "/>
<path clip-path="url(#clip920)" d="M126.205 1408.98 Q122.593 1408.98 120.765 1412.54 Q118.959 1416.08 118.959 1423.21 Q118.959 1430.32 120.765 1433.89 Q122.593 1437.43 126.205 1437.43 Q129.839 1437.43 131.644 1433.89 Q133.473 1430.32 133.473 1423.21 Q133.473 1416.08 131.644 1412.54 Q129.839 1408.98 126.205 1408.98 M126.205 1405.27 Q132.015 1405.27 135.07 1409.88 Q138.149 1414.46 138.149 1423.21 Q138.149 1431.94 135.07 1436.55 Q132.015 1441.13 126.205 1441.13 Q120.394 1441.13 117.316 1436.55 Q114.26 1431.94 114.26 1423.21 Q114.26 1414.46 117.316 1409.88 Q120.394 1405.27 126.205 1405.27 Z" fill="#000000" fill-rule="nonzero" fill-opacity="1" /><path clip-path="url(#clip920)" d="M146.366 1434.58 L151.251 1434.58 L151.251 1440.46 L146.366 1440.46 L146.366 1434.58 Z" fill="#000000" fill-rule="nonzero" fill-opacity="1" /><path clip-path="url(#clip920)" d="M171.436 1408.98 Q167.825 1408.98 165.996 1412.54 Q164.19 1416.08 164.19 1423.21 Q164.19 1430.32 165.996 1433.89 Q167.825 1437.43 171.436 1437.43 Q175.07 1437.43 176.876 1433.89 Q178.704 1430.32 178.704 1423.21 Q178.704 1416.08 176.876 1412.54 Q175.07 1408.98 171.436 1408.98 M171.436 1405.27 Q177.246 1405.27 180.301 1409.88 Q183.38 1414.46 183.38 1423.21 Q183.38 1431.94 180.301 1436.55 Q177.246 1441.13 171.436 1441.13 Q165.626 1441.13 162.547 1436.55 Q159.491 1431.94 159.491 1423.21 Q159.491 1414.46 162.547 1409.88 Q165.626 1405.27 171.436 1405.27 Z" fill="#000000" fill-rule="nonzero" fill-opacity="1" /><path clip-path="url(#clip920)" d="M201.598 1408.98 Q197.987 1408.98 196.158 1412.54 Q194.352 1416.08 194.352 1423.21 Q194.352 1430.32 196.158 1433.89 Q197.987 1437.43 201.598 1437.43 Q205.232 1437.43 207.037 1433.89 Q208.866 1430.32 208.866 1423.21 Q208.866 1416.08 207.037 1412.54 Q205.232 1408.98 201.598 1408.98 M201.598 1405.27 Q207.408 1405.27 210.463 1409.88 Q213.542 1414.46 213.542 1423.21 Q213.542 1431.94 210.463 1436.55 Q207.408 1441.13 201.598 1441.13 Q195.787 1441.13 192.709 1436.55 Q189.653 1431.94 189.653 1423.21 Q189.653 1414.46 192.709 1409.88 Q195.787 1405.27 201.598 1405.27 Z" fill="#000000" fill-rule="nonzero" fill-opacity="1" /><path clip-path="url(#clip920)" d="M231.76 1408.98 Q228.148 1408.98 226.32 1412.54 Q224.514 1416.08 224.514 1423.21 Q224.514 1430.32 226.32 1433.89 Q228.148 1437.43 231.76 1437.43 Q235.394 1437.43 237.199 1433.89 Q239.028 1430.32 239.028 1423.21 Q239.028 1416.08 237.199 1412.54 Q235.394 1408.98 231.76 1408.98 M231.76 1405.27 Q237.57 1405.27 240.625 1409.88 Q243.704 1414.46 243.704 1423.21 Q243.704 1431.94 240.625 1436.55 Q237.57 1441.13 231.76 1441.13 Q225.949 1441.13 222.871 1436.55 Q219.815 1431.94 219.815 1423.21 Q219.815 1414.46 222.871 1409.88 Q225.949 1405.27 231.76 1405.27 Z" fill="#000000" fill-rule="nonzero" fill-opacity="1" /><path clip-path="url(#clip920)" d="M127.2 1084.05 Q123.589 1084.05 121.76 1087.62 Q119.955 1091.16 119.955 1098.29 Q119.955 1105.39 121.76 1108.96 Q123.589 1112.5 127.2 1112.5 Q130.834 1112.5 132.64 1108.96 Q134.468 1105.39 134.468 1098.29 Q134.468 1091.16 132.64 1087.62 Q130.834 1084.05 127.2 1084.05 M127.2 1080.35 Q133.01 1080.35 136.066 1084.95 Q139.144 1089.54 139.144 1098.29 Q139.144 1107.01 136.066 1111.62 Q133.01 1116.2 127.2 1116.2 Q121.39 1116.2 118.311 1111.62 Q115.256 1107.01 115.256 1098.29 Q115.256 1089.54 118.311 1084.95 Q121.39 1080.35 127.2 1080.35 Z" fill="#000000" fill-rule="nonzero" fill-opacity="1" /><path clip-path="url(#clip920)" d="M147.362 1109.65 L152.246 1109.65 L152.246 1115.53 L147.362 1115.53 L147.362 1109.65 Z" fill="#000000" fill-rule="nonzero" fill-opacity="1" /><path clip-path="url(#clip920)" d="M172.431 1084.05 Q168.82 1084.05 166.991 1087.62 Q165.186 1091.16 165.186 1098.29 Q165.186 1105.39 166.991 1108.96 Q168.82 1112.5 172.431 1112.5 Q176.065 1112.5 177.871 1108.96 Q179.7 1105.39 179.7 1098.29 Q179.7 1091.16 177.871 1087.62 Q176.065 1084.05 172.431 1084.05 M172.431 1080.35 Q178.241 1080.35 181.297 1084.95 Q184.376 1089.54 184.376 1098.29 Q184.376 1107.01 181.297 1111.62 Q178.241 1116.2 172.431 1116.2 Q166.621 1116.2 163.542 1111.62 Q160.487 1107.01 160.487 1098.29 Q160.487 1089.54 163.542 1084.95 Q166.621 1080.35 172.431 1080.35 Z" fill="#000000" fill-rule="nonzero" fill-opacity="1" /><path clip-path="url(#clip920)" d="M196.621 1111.6 L212.94 1111.6 L212.94 1115.53 L190.996 1115.53 L190.996 1111.6 Q193.658 1108.84 198.241 1104.21 Q202.848 1099.56 204.028 1098.22 Q206.274 1095.7 207.153 1093.96 Q208.056 1092.2 208.056 1090.51 Q208.056 1087.76 206.112 1086.02 Q204.19 1084.28 201.088 1084.28 Q198.889 1084.28 196.436 1085.05 Q194.005 1085.81 191.227 1087.36 L191.227 1082.64 Q194.051 1081.51 196.505 1080.93 Q198.959 1080.35 200.996 1080.35 Q206.366 1080.35 209.561 1083.03 Q212.755 1085.72 212.755 1090.21 Q212.755 1092.34 211.945 1094.26 Q211.158 1096.16 209.051 1098.75 Q208.473 1099.42 205.371 1102.64 Q202.269 1105.83 196.621 1111.6 Z" fill="#000000" fill-rule="nonzero" fill-opacity="1" /><path clip-path="url(#clip920)" d="M222.801 1080.97 L241.158 1080.97 L241.158 1084.91 L227.084 1084.91 L227.084 1093.38 Q228.102 1093.03 229.121 1092.87 Q230.139 1092.69 231.158 1092.69 Q236.945 1092.69 240.324 1095.86 Q243.704 1099.03 243.704 1104.44 Q243.704 1110.02 240.232 1113.13 Q236.76 1116.2 230.44 1116.2 Q228.264 1116.2 225.996 1115.83 Q223.75 1115.46 221.343 1114.72 L221.343 1110.02 Q223.426 1111.16 225.648 1111.71 Q227.871 1112.27 230.347 1112.27 Q234.352 1112.27 236.69 1110.16 Q239.028 1108.06 239.028 1104.44 Q239.028 1100.83 236.69 1098.73 Q234.352 1096.62 230.347 1096.62 Q228.473 1096.62 226.598 1097.04 Q224.746 1097.45 222.801 1098.33 L222.801 1080.97 Z" fill="#000000" fill-rule="nonzero" fill-opacity="1" /><path clip-path="url(#clip920)" d="M126.205 759.125 Q122.593 759.125 120.765 762.69 Q118.959 766.231 118.959 773.361 Q118.959 780.467 120.765 784.032 Q122.593 787.574 126.205 787.574 Q129.839 787.574 131.644 784.032 Q133.473 780.467 133.473 773.361 Q133.473 766.231 131.644 762.69 Q129.839 759.125 126.205 759.125 M126.205 755.421 Q132.015 755.421 135.07 760.027 Q138.149 764.611 138.149 773.361 Q138.149 782.088 135.07 786.694 Q132.015 791.277 126.205 791.277 Q120.394 791.277 117.316 786.694 Q114.26 782.088 114.26 773.361 Q114.26 764.611 117.316 760.027 Q120.394 755.421 126.205 755.421 Z" fill="#000000" fill-rule="nonzero" fill-opacity="1" /><path clip-path="url(#clip920)" d="M146.366 784.726 L151.251 784.726 L151.251 790.606 L146.366 790.606 L146.366 784.726 Z" fill="#000000" fill-rule="nonzero" fill-opacity="1" /><path clip-path="url(#clip920)" d="M171.436 759.125 Q167.825 759.125 165.996 762.69 Q164.19 766.231 164.19 773.361 Q164.19 780.467 165.996 784.032 Q167.825 787.574 171.436 787.574 Q175.07 787.574 176.876 784.032 Q178.704 780.467 178.704 773.361 Q178.704 766.231 176.876 762.69 Q175.07 759.125 171.436 759.125 M171.436 755.421 Q177.246 755.421 180.301 760.027 Q183.38 764.611 183.38 773.361 Q183.38 782.088 180.301 786.694 Q177.246 791.277 171.436 791.277 Q165.626 791.277 162.547 786.694 Q159.491 782.088 159.491 773.361 Q159.491 764.611 162.547 760.027 Q165.626 755.421 171.436 755.421 Z" fill="#000000" fill-rule="nonzero" fill-opacity="1" /><path clip-path="url(#clip920)" d="M191.644 756.046 L210 756.046 L210 759.981 L195.926 759.981 L195.926 768.453 Q196.945 768.106 197.963 767.944 Q198.982 767.759 200 767.759 Q205.787 767.759 209.167 770.93 Q212.547 774.101 212.547 779.518 Q212.547 785.097 209.074 788.199 Q205.602 791.277 199.283 791.277 Q197.107 791.277 194.838 790.907 Q192.593 790.537 190.186 789.796 L190.186 785.097 Q192.269 786.231 194.491 786.787 Q196.713 787.342 199.19 787.342 Q203.195 787.342 205.533 785.236 Q207.871 783.129 207.871 779.518 Q207.871 775.907 205.533 773.801 Q203.195 771.694 199.19 771.694 Q197.315 771.694 195.44 772.111 Q193.588 772.527 191.644 773.407 L191.644 756.046 Z" fill="#000000" fill-rule="nonzero" fill-opacity="1" /><path clip-path="url(#clip920)" d="M231.76 759.125 Q228.148 759.125 226.32 762.69 Q224.514 766.231 224.514 773.361 Q224.514 780.467 226.32 784.032 Q228.148 787.574 231.76 787.574 Q235.394 787.574 237.199 784.032 Q239.028 780.467 239.028 773.361 Q239.028 766.231 237.199 762.69 Q235.394 759.125 231.76 759.125 M231.76 755.421 Q237.57 755.421 240.625 760.027 Q243.704 764.611 243.704 773.361 Q243.704 782.088 240.625 786.694 Q237.57 791.277 231.76 791.277 Q225.949 791.277 222.871 786.694 Q219.815 782.088 219.815 773.361 Q219.815 764.611 222.871 760.027 Q225.949 755.421 231.76 755.421 Z" fill="#000000" fill-rule="nonzero" fill-opacity="1" /><path clip-path="url(#clip920)" d="M127.2 434.198 Q123.589 434.198 121.76 437.763 Q119.955 441.304 119.955 448.434 Q119.955 455.54 121.76 459.105 Q123.589 462.647 127.2 462.647 Q130.834 462.647 132.64 459.105 Q134.468 455.54 134.468 448.434 Q134.468 441.304 132.64 437.763 Q130.834 434.198 127.2 434.198 M127.2 430.494 Q133.01 430.494 136.066 435.101 Q139.144 439.684 139.144 448.434 Q139.144 457.161 136.066 461.767 Q133.01 466.35 127.2 466.35 Q121.39 466.35 118.311 461.767 Q115.256 457.161 115.256 448.434 Q115.256 439.684 118.311 435.101 Q121.39 430.494 127.2 430.494 Z" fill="#000000" fill-rule="nonzero" fill-opacity="1" /><path clip-path="url(#clip920)" d="M147.362 459.8 L152.246 459.8 L152.246 465.679 L147.362 465.679 L147.362 459.8 Z" fill="#000000" fill-rule="nonzero" fill-opacity="1" /><path clip-path="url(#clip920)" d="M172.431 434.198 Q168.82 434.198 166.991 437.763 Q165.186 441.304 165.186 448.434 Q165.186 455.54 166.991 459.105 Q168.82 462.647 172.431 462.647 Q176.065 462.647 177.871 459.105 Q179.7 455.54 179.7 448.434 Q179.7 441.304 177.871 437.763 Q176.065 434.198 172.431 434.198 M172.431 430.494 Q178.241 430.494 181.297 435.101 Q184.376 439.684 184.376 448.434 Q184.376 457.161 181.297 461.767 Q178.241 466.35 172.431 466.35 Q166.621 466.35 163.542 461.767 Q160.487 457.161 160.487 448.434 Q160.487 439.684 163.542 435.101 Q166.621 430.494 172.431 430.494 Z" fill="#000000" fill-rule="nonzero" fill-opacity="1" /><path clip-path="url(#clip920)" d="M191.413 431.119 L213.635 431.119 L213.635 433.11 L201.088 465.679 L196.204 465.679 L208.01 435.054 L191.413 435.054 L191.413 431.119 Z" fill="#000000" fill-rule="nonzero" fill-opacity="1" /><path clip-path="url(#clip920)" d="M222.801 431.119 L241.158 431.119 L241.158 435.054 L227.084 435.054 L227.084 443.527 Q228.102 443.179 229.121 443.017 Q230.139 442.832 231.158 442.832 Q236.945 442.832 240.324 446.003 Q243.704 449.175 243.704 454.591 Q243.704 460.17 240.232 463.272 Q236.76 466.35 230.44 466.35 Q228.264 466.35 225.996 465.98 Q223.75 465.61 221.343 464.869 L221.343 460.17 Q223.426 461.304 225.648 461.86 Q227.871 462.415 230.347 462.415 Q234.352 462.415 236.69 460.309 Q239.028 458.202 239.028 454.591 Q239.028 450.98 236.69 448.874 Q234.352 446.767 230.347 446.767 Q228.473 446.767 226.598 447.184 Q224.746 447.601 222.801 448.48 L222.801 431.119 Z" fill="#000000" fill-rule="nonzero" fill-opacity="1" /><path clip-path="url(#clip920)" d="M126.205 109.271 Q122.593 109.271 120.765 112.836 Q118.959 116.377 118.959 123.507 Q118.959 130.613 120.765 134.178 Q122.593 137.72 126.205 137.72 Q129.839 137.72 131.644 134.178 Q133.473 130.613 133.473 123.507 Q133.473 116.377 131.644 112.836 Q129.839 109.271 126.205 109.271 M126.205 105.567 Q132.015 105.567 135.07 110.174 Q138.149 114.757 138.149 123.507 Q138.149 132.234 135.07 136.84 Q132.015 141.424 126.205 141.424 Q120.394 141.424 117.316 136.84 Q114.26 132.234 114.26 123.507 Q114.26 114.757 117.316 110.174 Q120.394 105.567 126.205 105.567 Z" fill="#000000" fill-rule="nonzero" fill-opacity="1" /><path clip-path="url(#clip920)" d="M146.366 134.873 L151.251 134.873 L151.251 140.752 L146.366 140.752 L146.366 134.873 Z" fill="#000000" fill-rule="nonzero" fill-opacity="1" /><path clip-path="url(#clip920)" d="M162.246 136.817 L169.885 136.817 L169.885 110.452 L161.575 112.118 L161.575 107.859 L169.839 106.192 L174.514 106.192 L174.514 136.817 L182.153 136.817 L182.153 140.752 L162.246 140.752 L162.246 136.817 Z" fill="#000000" fill-rule="nonzero" fill-opacity="1" /><path clip-path="url(#clip920)" d="M201.598 109.271 Q197.987 109.271 196.158 112.836 Q194.352 116.377 194.352 123.507 Q194.352 130.613 196.158 134.178 Q197.987 137.72 201.598 137.72 Q205.232 137.72 207.037 134.178 Q208.866 130.613 208.866 123.507 Q208.866 116.377 207.037 112.836 Q205.232 109.271 201.598 109.271 M201.598 105.567 Q207.408 105.567 210.463 110.174 Q213.542 114.757 213.542 123.507 Q213.542 132.234 210.463 136.84 Q207.408 141.424 201.598 141.424 Q195.787 141.424 192.709 136.84 Q189.653 132.234 189.653 123.507 Q189.653 114.757 192.709 110.174 Q195.787 105.567 201.598 105.567 Z" fill="#000000" fill-rule="nonzero" fill-opacity="1" /><path clip-path="url(#clip920)" d="M231.76 109.271 Q228.148 109.271 226.32 112.836 Q224.514 116.377 224.514 123.507 Q224.514 130.613 226.32 134.178 Q228.148 137.72 231.76 137.72 Q235.394 137.72 237.199 134.178 Q239.028 130.613 239.028 123.507 Q239.028 116.377 237.199 112.836 Q235.394 109.271 231.76 109.271 M231.76 105.567 Q237.57 105.567 240.625 110.174 Q243.704 114.757 243.704 123.507 Q243.704 132.234 240.625 136.84 Q237.57 141.424 231.76 141.424 Q225.949 141.424 222.871 136.84 Q219.815 132.234 219.815 123.507 Q219.815 114.757 222.871 110.174 Q225.949 105.567 231.76 105.567 Z" fill="#000000" fill-rule="nonzero" fill-opacity="1" /><path clip-path="url(#clip920)" d="M16.4842 1039.99 L16.4842 1012.68 L21.895 1012.68 L21.895 1033.56 L35.8996 1033.56 L35.8996 1014.71 L41.3104 1014.71 L41.3104 1033.56 L64.0042 1033.56 L64.0042 1039.99 L16.4842 1039.99 Z" fill="#000000" fill-rule="nonzero" fill-opacity="1" /><path clip-path="url(#clip920)" d="M46.0847 992.529 Q46.0847 999.627 47.7079 1002.36 Q49.3312 1005.1 53.2461 1005.1 Q56.3653 1005.1 58.2114 1003.06 Q60.0256 1001 60.0256 997.463 Q60.0256 992.593 56.5881 989.665 Q53.1188 986.704 47.3897 986.704 L46.0847 986.704 L46.0847 992.529 M43.6657 980.848 L64.0042 980.848 L64.0042 986.704 L58.5933 986.704 Q61.8398 988.71 63.3994 991.702 Q64.9272 994.693 64.9272 999.022 Q64.9272 1004.5 61.8716 1007.74 Q58.7843 1010.96 53.6281 1010.96 Q47.6125 1010.96 44.5569 1006.95 Q41.5014 1002.91 41.5014 994.916 L41.5014 986.704 L40.9285 986.704 Q36.8862 986.704 34.6901 989.378 Q32.4621 992.02 32.4621 996.826 Q32.4621 999.881 33.1941 1002.78 Q33.9262 1005.67 35.3903 1008.35 L29.9795 1008.35 Q28.7381 1005.13 28.1334 1002.11 Q27.4968 999.086 27.4968 996.221 Q27.4968 988.487 31.5072 984.667 Q35.5176 980.848 43.6657 980.848 Z" fill="#000000" fill-rule="nonzero" fill-opacity="1" /><path clip-path="url(#clip920)" d="M28.3562 968.785 L28.3562 962.929 L64.0042 962.929 L64.0042 968.785 L28.3562 968.785 M14.479 968.785 L14.479 962.929 L21.895 962.929 L21.895 968.785 L14.479 968.785 Z" fill="#000000" fill-rule="nonzero" fill-opacity="1" /><path clip-path="url(#clip920)" d="M33.8307 930.018 Q33.2578 931.005 33.0032 932.182 Q32.7167 933.328 32.7167 934.728 Q32.7167 939.694 35.9632 942.367 Q39.1779 945.009 45.2253 945.009 L64.0042 945.009 L64.0042 950.897 L28.3562 950.897 L28.3562 945.009 L33.8944 945.009 Q30.6479 943.163 29.0883 940.203 Q27.4968 937.243 27.4968 933.01 Q27.4968 932.405 27.5923 931.673 Q27.656 930.941 27.8151 930.05 L33.8307 930.018 Z" fill="#000000" fill-rule="nonzero" fill-opacity="1" /><path clip-path="url(#clip920)" d="M16.4842 902.9 L16.4842 896.471 L58.5933 896.471 L58.5933 873.331 L64.0042 873.331 L64.0042 902.9 L16.4842 902.9 Z" fill="#000000" fill-rule="nonzero" fill-opacity="1" /><path clip-path="url(#clip920)" d="M32.4621 854.17 Q32.4621 858.881 36.1542 861.618 Q39.8145 864.356 46.212 864.356 Q52.6095 864.356 56.3017 861.65 Q59.9619 858.913 59.9619 854.17 Q59.9619 849.492 56.2698 846.754 Q52.5777 844.017 46.212 844.017 Q39.8781 844.017 36.186 846.754 Q32.4621 849.492 32.4621 854.17 M27.4968 854.17 Q27.4968 846.532 32.4621 842.171 Q37.4273 837.811 46.212 837.811 Q54.9649 837.811 59.9619 842.171 Q64.9272 846.532 64.9272 854.17 Q64.9272 861.841 59.9619 866.202 Q54.9649 870.53 46.212 870.53 Q37.4273 870.53 32.4621 866.202 Q27.4968 861.841 27.4968 854.17 Z" fill="#000000" fill-rule="nonzero" fill-opacity="1" /><path clip-path="url(#clip920)" d="M46.0847 811.902 Q46.0847 819 47.7079 821.737 Q49.3312 824.474 53.2461 824.474 Q56.3653 824.474 58.2114 822.437 Q60.0256 820.369 60.0256 816.836 Q60.0256 811.966 56.5881 809.038 Q53.1188 806.078 47.3897 806.078 L46.0847 806.078 L46.0847 811.902 M43.6657 800.221 L64.0042 800.221 L64.0042 806.078 L58.5933 806.078 Q61.8398 808.083 63.3994 811.075 Q64.9272 814.067 64.9272 818.395 Q64.9272 823.87 61.8716 827.116 Q58.7843 830.331 53.6281 830.331 Q47.6125 830.331 44.5569 826.32 Q41.5014 822.278 41.5014 814.289 L41.5014 806.078 L40.9285 806.078 Q36.8862 806.078 34.6901 808.751 Q32.4621 811.393 32.4621 816.199 Q32.4621 819.255 33.1941 822.151 Q33.9262 825.047 35.3903 827.721 L29.9795 827.721 Q28.7381 824.506 28.1334 821.483 Q27.4968 818.459 27.4968 815.594 Q27.4968 807.86 31.5072 804.041 Q35.5176 800.221 43.6657 800.221 Z" fill="#000000" fill-rule="nonzero" fill-opacity="1" /><path clip-path="url(#clip920)" d="M33.7671 764.7 L14.479 764.7 L14.479 758.844 L64.0042 758.844 L64.0042 764.7 L58.657 764.7 Q61.8398 766.547 63.3994 769.379 Q64.9272 772.18 64.9272 776.127 Q64.9272 782.588 59.771 786.662 Q54.6147 790.704 46.212 790.704 Q37.8093 790.704 32.6531 786.662 Q27.4968 782.588 27.4968 776.127 Q27.4968 772.18 29.0564 769.379 Q30.5842 766.547 33.7671 764.7 M46.212 784.657 Q52.6732 784.657 56.3653 782.015 Q60.0256 779.342 60.0256 774.695 Q60.0256 770.048 56.3653 767.374 Q52.6732 764.7 46.212 764.7 Q39.7508 764.7 36.0905 767.374 Q32.3984 770.048 32.3984 774.695 Q32.3984 779.342 36.0905 782.015 Q39.7508 784.657 46.212 784.657 Z" fill="#000000" fill-rule="nonzero" fill-opacity="1" /><path clip-path="url(#clip920)" d="M16.4842 730.039 L16.4842 723.546 L56.6518 713.552 L16.4842 703.59 L16.4842 696.365 L56.6518 686.37 L16.4842 676.408 L16.4842 669.883 L64.0042 681.819 L64.0042 689.903 L22.7544 699.929 L64.0042 710.051 L64.0042 718.135 L16.4842 730.039 Z" fill="#000000" fill-rule="nonzero" fill-opacity="1" /><path clip-path="url(#clip920)" d="M44.7161 634.936 L47.5806 634.936 L47.5806 661.862 Q53.6281 661.481 56.8109 658.234 Q59.9619 654.956 59.9619 649.131 Q59.9619 645.757 59.1344 642.606 Q58.3069 639.423 56.6518 636.304 L62.1899 636.304 Q63.5267 639.455 64.227 642.765 Q64.9272 646.076 64.9272 649.481 Q64.9272 658.011 59.9619 663.008 Q54.9967 667.974 46.5303 667.974 Q37.7774 667.974 32.6531 663.263 Q27.4968 658.52 27.4968 650.5 Q27.4968 643.306 32.1438 639.137 Q36.7589 634.936 44.7161 634.936 M42.9973 640.792 Q38.1912 640.856 35.3266 643.497 Q32.4621 646.107 32.4621 650.436 Q32.4621 655.338 35.2312 658.298 Q38.0002 661.226 43.0292 661.671 L42.9973 640.792 Z" fill="#000000" fill-rule="nonzero" fill-opacity="1" /><path clip-path="url(#clip920)" d="M28.3562 625.323 L28.3562 619.467 L64.0042 619.467 L64.0042 625.323 L28.3562 625.323 M14.479 625.323 L14.479 619.467 L21.895 619.467 L21.895 625.323 L14.479 625.323 Z" fill="#000000" fill-rule="nonzero" fill-opacity="1" /><path clip-path="url(#clip920)" d="M45.7664 583.755 Q39.4007 583.755 35.8996 586.397 Q32.3984 589.007 32.3984 593.749 Q32.3984 598.46 35.8996 601.102 Q39.4007 603.712 45.7664 603.712 Q52.1003 603.712 55.6014 601.102 Q59.1026 598.46 59.1026 593.749 Q59.1026 589.007 55.6014 586.397 Q52.1003 583.755 45.7664 583.755 M59.58 577.899 Q68.683 577.899 73.1071 581.941 Q77.5631 585.983 77.5631 594.322 Q77.5631 597.41 77.0857 600.147 Q76.6401 602.884 75.6852 605.462 L69.9879 605.462 Q71.3884 602.884 72.0568 600.37 Q72.7252 597.855 72.7252 595.245 Q72.7252 589.484 69.7015 586.62 Q66.7096 583.755 60.6303 583.755 L57.7339 583.755 Q60.885 585.569 62.4446 588.402 Q64.0042 591.235 64.0042 595.182 Q64.0042 601.738 59.0071 605.749 Q54.01 609.759 45.7664 609.759 Q37.491 609.759 32.4939 605.749 Q27.4968 601.738 27.4968 595.182 Q27.4968 591.235 29.0564 588.402 Q30.616 585.569 33.7671 583.755 L28.3562 583.755 L28.3562 577.899 L59.58 577.899 Z" fill="#000000" fill-rule="nonzero" fill-opacity="1" /><path clip-path="url(#clip920)" d="M42.4881 536.203 L64.0042 536.203 L64.0042 542.06 L42.679 542.06 Q37.6183 542.06 35.1038 544.033 Q32.5894 546.007 32.5894 549.953 Q32.5894 554.696 35.6131 557.433 Q38.6368 560.17 43.8567 560.17 L64.0042 560.17 L64.0042 566.059 L14.479 566.059 L14.479 560.17 L33.8944 560.17 Q30.6797 558.07 29.0883 555.237 Q27.4968 552.372 27.4968 548.648 Q27.4968 542.505 31.3163 539.354 Q35.1038 536.203 42.4881 536.203 Z" fill="#000000" fill-rule="nonzero" fill-opacity="1" /><path clip-path="url(#clip920)" d="M18.2347 518.73 L28.3562 518.73 L28.3562 506.667 L32.9077 506.667 L32.9077 518.73 L52.2594 518.73 Q56.6199 518.73 57.8613 517.552 Q59.1026 516.342 59.1026 512.682 L59.1026 506.667 L64.0042 506.667 L64.0042 512.682 Q64.0042 519.462 61.4897 522.04 Q58.9434 524.618 52.2594 524.618 L32.9077 524.618 L32.9077 528.915 L28.3562 528.915 L28.3562 524.618 L18.2347 524.618 L18.2347 518.73 Z" fill="#000000" fill-rule="nonzero" fill-opacity="1" /><path clip-path="url(#clip920)" d="M506.738 12.096 L541.494 12.096 L541.494 18.9825 L514.921 18.9825 L514.921 36.8065 L538.902 36.8065 L538.902 43.6931 L514.921 43.6931 L514.921 72.576 L506.738 72.576 L506.738 12.096 Z" fill="#000000" fill-rule="nonzero" fill-opacity="1" /><path clip-path="url(#clip920)" d="M567.137 49.7694 Q558.103 49.7694 554.619 51.8354 Q551.136 53.9013 551.136 58.8839 Q551.136 62.8538 553.728 65.2034 Q556.361 67.5124 560.858 67.5124 Q567.056 67.5124 570.783 63.1374 Q574.55 58.7219 574.55 51.4303 L574.55 49.7694 L567.137 49.7694 M582.004 46.6907 L582.004 72.576 L574.55 72.576 L574.55 65.6895 Q571.998 69.8214 568.19 71.8063 Q564.382 73.7508 558.873 73.7508 Q551.905 73.7508 547.773 69.8619 Q543.682 65.9325 543.682 59.3701 Q543.682 51.7138 548.786 47.825 Q553.931 43.9361 564.099 43.9361 L574.55 43.9361 L574.55 43.2069 Q574.55 38.0623 571.147 35.2672 Q567.785 32.4315 561.668 32.4315 Q557.779 32.4315 554.093 33.3632 Q550.406 34.295 547.004 36.1584 L547.004 29.2718 Q551.095 27.692 554.943 26.9223 Q558.792 26.1121 562.438 26.1121 Q572.281 26.1121 577.142 31.2163 Q582.004 36.3204 582.004 46.6907 Z" fill="#000000" fill-rule="nonzero" fill-opacity="1" /><path clip-path="url(#clip920)" d="M597.356 27.2059 L604.81 27.2059 L604.81 72.576 L597.356 72.576 L597.356 27.2059 M597.356 9.54393 L604.81 9.54393 L604.81 18.9825 L597.356 18.9825 L597.356 9.54393 Z" fill="#000000" fill-rule="nonzero" fill-opacity="1" /><path clip-path="url(#clip920)" d="M646.696 34.1734 Q645.441 33.4443 643.942 33.1202 Q642.484 32.7556 640.701 32.7556 Q634.382 32.7556 630.979 36.8875 Q627.617 40.9789 627.617 48.6757 L627.617 72.576 L620.123 72.576 L620.123 27.2059 L627.617 27.2059 L627.617 34.2544 Q629.966 30.1225 633.734 28.1376 Q637.501 26.1121 642.889 26.1121 Q643.658 26.1121 644.59 26.2337 Q645.522 26.3147 646.656 26.5172 L646.696 34.1734 Z" fill="#000000" fill-rule="nonzero" fill-opacity="1" /><path clip-path="url(#clip920)" d="M681.21 12.096 L689.393 12.096 L689.393 65.6895 L718.843 65.6895 L718.843 72.576 L681.21 72.576 L681.21 12.096 Z" fill="#000000" fill-rule="nonzero" fill-opacity="1" /><path clip-path="url(#clip920)" d="M743.23 32.4315 Q737.234 32.4315 733.75 37.1306 Q730.267 41.7891 730.267 49.9314 Q730.267 58.0738 733.71 62.7728 Q737.194 67.4314 743.23 67.4314 Q749.184 67.4314 752.668 62.7323 Q756.152 58.0333 756.152 49.9314 Q756.152 41.8701 752.668 37.1711 Q749.184 32.4315 743.23 32.4315 M743.23 26.1121 Q752.952 26.1121 758.501 32.4315 Q764.051 38.7509 764.051 49.9314 Q764.051 61.0714 758.501 67.4314 Q752.952 73.7508 743.23 73.7508 Q733.467 73.7508 727.917 67.4314 Q722.408 61.0714 722.408 49.9314 Q722.408 38.7509 727.917 32.4315 Q733.467 26.1121 743.23 26.1121 Z" fill="#000000" fill-rule="nonzero" fill-opacity="1" /><path clip-path="url(#clip920)" d="M797.026 49.7694 Q787.992 49.7694 784.508 51.8354 Q781.024 53.9013 781.024 58.8839 Q781.024 62.8538 783.617 65.2034 Q786.25 67.5124 790.747 67.5124 Q796.944 67.5124 800.671 63.1374 Q804.439 58.7219 804.439 51.4303 L804.439 49.7694 L797.026 49.7694 M811.892 46.6907 L811.892 72.576 L804.439 72.576 L804.439 65.6895 Q801.887 69.8214 798.079 71.8063 Q794.271 73.7508 788.762 73.7508 Q781.794 73.7508 777.662 69.8619 Q773.571 65.9325 773.571 59.3701 Q773.571 51.7138 778.675 47.825 Q783.82 43.9361 793.987 43.9361 L804.439 43.9361 L804.439 43.2069 Q804.439 38.0623 801.036 35.2672 Q797.674 32.4315 791.557 32.4315 Q787.668 32.4315 783.982 33.3632 Q780.295 34.295 776.893 36.1584 L776.893 29.2718 Q780.984 27.692 784.832 26.9223 Q788.681 26.1121 792.326 26.1121 Q802.17 26.1121 807.031 31.2163 Q811.892 36.3204 811.892 46.6907 Z" fill="#000000" fill-rule="nonzero" fill-opacity="1" /><path clip-path="url(#clip920)" d="M857.1 34.0924 L857.1 9.54393 L864.554 9.54393 L864.554 72.576 L857.1 72.576 L857.1 65.7705 Q854.751 69.8214 851.146 71.8063 Q847.581 73.7508 842.558 73.7508 Q834.334 73.7508 829.149 67.1883 Q824.005 60.6258 824.005 49.9314 Q824.005 39.2371 829.149 32.6746 Q834.334 26.1121 842.558 26.1121 Q847.581 26.1121 851.146 28.0971 Q854.751 30.0415 857.1 34.0924 M831.701 49.9314 Q831.701 58.1548 835.064 62.8538 Q838.466 67.5124 844.381 67.5124 Q850.295 67.5124 853.698 62.8538 Q857.1 58.1548 857.1 49.9314 Q857.1 41.7081 853.698 37.0496 Q850.295 32.3505 844.381 32.3505 Q838.466 32.3505 835.064 37.0496 Q831.701 41.7081 831.701 49.9314 Z" fill="#000000" fill-rule="nonzero" fill-opacity="1" /><path clip-path="url(#clip920)" d="M901.215 12.096 L909.479 12.096 L922.198 63.2184 L934.878 12.096 L944.073 12.096 L956.793 63.2184 L969.473 12.096 L977.777 12.096 L962.586 72.576 L952.297 72.576 L939.536 20.0763 L926.654 72.576 L916.365 72.576 L901.215 12.096 Z" fill="#000000" fill-rule="nonzero" fill-opacity="1" /><path clip-path="url(#clip920)" d="M1022.26 48.0275 L1022.26 51.6733 L987.985 51.6733 Q988.471 59.3701 992.603 63.421 Q996.776 67.4314 1004.19 67.4314 Q1008.48 67.4314 1012.49 66.3781 Q1016.54 65.3249 1020.51 63.2184 L1020.51 70.267 Q1016.5 71.9684 1012.29 72.8596 Q1008.08 73.7508 1003.74 73.7508 Q992.887 73.7508 986.527 67.4314 Q980.207 61.1119 980.207 50.3365 Q980.207 39.1965 986.203 32.6746 Q992.239 26.1121 1002.45 26.1121 Q1011.6 26.1121 1016.91 32.0264 Q1022.26 37.9003 1022.26 48.0275 M1014.8 45.84 Q1014.72 39.7232 1011.36 36.0774 Q1008.04 32.4315 1002.53 32.4315 Q996.289 32.4315 992.522 35.9558 Q988.795 39.4801 988.228 45.8805 L1014.8 45.84 Z" fill="#000000" fill-rule="nonzero" fill-opacity="1" /><path clip-path="url(#clip920)" d="M1034.49 27.2059 L1041.94 27.2059 L1041.94 72.576 L1034.49 72.576 L1034.49 27.2059 M1034.49 9.54393 L1041.94 9.54393 L1041.94 18.9825 L1034.49 18.9825 L1034.49 9.54393 Z" fill="#000000" fill-rule="nonzero" fill-opacity="1" /><path clip-path="url(#clip920)" d="M1087.39 49.3643 Q1087.39 41.2625 1084.03 36.8065 Q1080.71 32.3505 1074.67 32.3505 Q1068.68 32.3505 1065.32 36.8065 Q1062 41.2625 1062 49.3643 Q1062 57.4256 1065.32 61.8816 Q1068.68 66.3376 1074.67 66.3376 Q1080.71 66.3376 1084.03 61.8816 Q1087.39 57.4256 1087.39 49.3643 M1094.85 66.9452 Q1094.85 78.5308 1089.7 84.1616 Q1084.56 89.8329 1073.95 89.8329 Q1070.02 89.8329 1066.53 89.2252 Q1063.05 88.6581 1059.77 87.4428 L1059.77 80.1917 Q1063.05 81.9741 1066.25 82.8248 Q1069.45 83.6755 1072.77 83.6755 Q1080.1 83.6755 1083.75 79.8271 Q1087.39 76.0193 1087.39 68.282 L1087.39 64.5957 Q1085.09 68.6061 1081.48 70.5911 Q1077.87 72.576 1072.85 72.576 Q1064.51 72.576 1059.4 66.2161 Q1054.3 59.8562 1054.3 49.3643 Q1054.3 38.832 1059.4 32.472 Q1064.51 26.1121 1072.85 26.1121 Q1077.87 26.1121 1081.48 28.0971 Q1085.09 30.082 1087.39 34.0924 L1087.39 27.2059 L1094.85 27.2059 L1094.85 66.9452 Z" fill="#000000" fill-rule="nonzero" fill-opacity="1" /><path clip-path="url(#clip920)" d="M1147.91 45.1919 L1147.91 72.576 L1140.46 72.576 L1140.46 45.4349 Q1140.46 38.994 1137.95 35.7938 Q1135.44 32.5936 1130.41 32.5936 Q1124.38 32.5936 1120.9 36.4419 Q1117.41 40.2903 1117.41 46.9338 L1117.41 72.576 L1109.92 72.576 L1109.92 9.54393 L1117.41 9.54393 L1117.41 34.2544 Q1120.09 30.163 1123.69 28.1376 Q1127.34 26.1121 1132.08 26.1121 Q1139.89 26.1121 1143.9 30.9732 Q1147.91 35.7938 1147.91 45.1919 Z" fill="#000000" fill-rule="nonzero" fill-opacity="1" /><path clip-path="url(#clip920)" d="M1170.15 14.324 L1170.15 27.2059 L1185.51 27.2059 L1185.51 32.9987 L1170.15 32.9987 L1170.15 57.6282 Q1170.15 63.1779 1171.65 64.7578 Q1173.19 66.3376 1177.85 66.3376 L1185.51 66.3376 L1185.51 72.576 L1177.85 72.576 Q1169.22 72.576 1165.94 69.3758 Q1162.66 66.1351 1162.66 57.6282 L1162.66 32.9987 L1157.19 32.9987 L1157.19 27.2059 L1162.66 27.2059 L1162.66 14.324 L1170.15 14.324 Z" fill="#000000" fill-rule="nonzero" fill-opacity="1" /><path clip-path="url(#clip920)" d="M1224.23 28.5427 L1224.23 35.5912 Q1221.07 33.9709 1217.67 33.1607 Q1214.27 32.3505 1210.62 32.3505 Q1205.07 32.3505 1202.28 34.0519 Q1199.52 35.7533 1199.52 39.156 Q1199.52 41.7486 1201.51 43.2475 Q1203.49 44.7058 1209.49 46.0426 L1212.04 46.6097 Q1219.98 48.3111 1223.3 51.4303 Q1226.66 54.509 1226.66 60.0587 Q1226.66 66.3781 1221.64 70.0644 Q1216.66 73.7508 1207.91 73.7508 Q1204.26 73.7508 1200.29 73.0216 Q1196.36 72.3329 1191.99 70.9151 L1191.99 63.2184 Q1196.12 65.3654 1200.13 66.4591 Q1204.14 67.5124 1208.07 67.5124 Q1213.34 67.5124 1216.17 65.73 Q1219.01 63.9071 1219.01 60.6258 Q1219.01 57.5877 1216.94 55.9673 Q1214.92 54.3469 1207.99 52.8481 L1205.4 52.2405 Q1198.47 50.7821 1195.39 47.7845 Q1192.31 44.7463 1192.31 39.4801 Q1192.31 33.0797 1196.85 29.5959 Q1201.39 26.1121 1209.73 26.1121 Q1213.86 26.1121 1217.51 26.7198 Q1221.16 27.3274 1224.23 28.5427 Z" fill="#000000" fill-rule="nonzero" fill-opacity="1" /><path clip-path="url(#clip920)" d="M1272.12 65.7705 L1272.12 89.8329 L1264.62 89.8329 L1264.62 27.2059 L1272.12 27.2059 L1272.12 34.0924 Q1274.47 30.0415 1278.03 28.0971 Q1281.64 26.1121 1286.62 26.1121 Q1294.88 26.1121 1300.03 32.6746 Q1305.21 39.2371 1305.21 49.9314 Q1305.21 60.6258 1300.03 67.1883 Q1294.88 73.7508 1286.62 73.7508 Q1281.64 73.7508 1278.03 71.8063 Q1274.47 69.8214 1272.12 65.7705 M1297.47 49.9314 Q1297.47 41.7081 1294.07 37.0496 Q1290.71 32.3505 1284.79 32.3505 Q1278.88 32.3505 1275.48 37.0496 Q1272.12 41.7081 1272.12 49.9314 Q1272.12 58.1548 1275.48 62.8538 Q1278.88 67.5124 1284.79 67.5124 Q1290.71 67.5124 1294.07 62.8538 Q1297.47 58.1548 1297.47 49.9314 Z" fill="#000000" fill-rule="nonzero" fill-opacity="1" /><path clip-path="url(#clip920)" d="M1356.37 48.0275 L1356.37 51.6733 L1322.1 51.6733 Q1322.59 59.3701 1326.72 63.421 Q1330.89 67.4314 1338.31 67.4314 Q1342.6 67.4314 1346.61 66.3781 Q1350.66 65.3249 1354.63 63.2184 L1354.63 70.267 Q1350.62 71.9684 1346.41 72.8596 Q1342.2 73.7508 1337.86 73.7508 Q1327.01 73.7508 1320.65 67.4314 Q1314.33 61.1119 1314.33 50.3365 Q1314.33 39.1965 1320.32 32.6746 Q1326.36 26.1121 1336.57 26.1121 Q1345.72 26.1121 1351.03 32.0264 Q1356.37 37.9003 1356.37 48.0275 M1348.92 45.84 Q1348.84 39.7232 1345.48 36.0774 Q1342.16 32.4315 1336.65 32.4315 Q1330.41 32.4315 1326.64 35.9558 Q1322.91 39.4801 1322.35 45.8805 L1348.92 45.84 Z" fill="#000000" fill-rule="nonzero" fill-opacity="1" /><path clip-path="url(#clip920)" d="M1394.9 34.1734 Q1393.64 33.4443 1392.14 33.1202 Q1390.69 32.7556 1388.9 32.7556 Q1382.58 32.7556 1379.18 36.8875 Q1375.82 40.9789 1375.82 48.6757 L1375.82 72.576 L1368.32 72.576 L1368.32 27.2059 L1375.82 27.2059 L1375.82 34.2544 Q1378.17 30.1225 1381.94 28.1376 Q1385.7 26.1121 1391.09 26.1121 Q1391.86 26.1121 1392.79 26.2337 Q1393.72 26.3147 1394.86 26.5172 L1394.9 34.1734 Z" fill="#000000" fill-rule="nonzero" fill-opacity="1" /><path clip-path="url(#clip920)" d="M1429.41 12.096 L1437.59 12.096 L1437.59 65.6895 L1467.05 65.6895 L1467.05 72.576 L1429.41 72.576 L1429.41 12.096 Z" fill="#000000" fill-rule="nonzero" fill-opacity="1" /><path clip-path="url(#clip920)" d="M1491.43 32.4315 Q1485.44 32.4315 1481.95 37.1306 Q1478.47 41.7891 1478.47 49.9314 Q1478.47 58.0738 1481.91 62.7728 Q1485.4 67.4314 1491.43 67.4314 Q1497.39 67.4314 1500.87 62.7323 Q1504.35 58.0333 1504.35 49.9314 Q1504.35 41.8701 1500.87 37.1711 Q1497.39 32.4315 1491.43 32.4315 M1491.43 26.1121 Q1501.15 26.1121 1506.7 32.4315 Q1512.25 38.7509 1512.25 49.9314 Q1512.25 61.0714 1506.7 67.4314 Q1501.15 73.7508 1491.43 73.7508 Q1481.67 73.7508 1476.12 67.4314 Q1470.61 61.0714 1470.61 49.9314 Q1470.61 38.7509 1476.12 32.4315 Q1481.67 26.1121 1491.43 26.1121 Z" fill="#000000" fill-rule="nonzero" fill-opacity="1" /><path clip-path="url(#clip920)" d="M1545.23 49.7694 Q1536.19 49.7694 1532.71 51.8354 Q1529.23 53.9013 1529.23 58.8839 Q1529.23 62.8538 1531.82 65.2034 Q1534.45 67.5124 1538.95 67.5124 Q1545.15 67.5124 1548.87 63.1374 Q1552.64 58.7219 1552.64 51.4303 L1552.64 49.7694 L1545.23 49.7694 M1560.09 46.6907 L1560.09 72.576 L1552.64 72.576 L1552.64 65.6895 Q1550.09 69.8214 1546.28 71.8063 Q1542.47 73.7508 1536.96 73.7508 Q1530 73.7508 1525.86 69.8619 Q1521.77 65.9325 1521.77 59.3701 Q1521.77 51.7138 1526.88 47.825 Q1532.02 43.9361 1542.19 43.9361 L1552.64 43.9361 L1552.64 43.2069 Q1552.64 38.0623 1549.24 35.2672 Q1545.88 32.4315 1539.76 32.4315 Q1535.87 32.4315 1532.18 33.3632 Q1528.5 34.295 1525.09 36.1584 L1525.09 29.2718 Q1529.19 27.692 1533.03 26.9223 Q1536.88 26.1121 1540.53 26.1121 Q1550.37 26.1121 1555.23 31.2163 Q1560.09 36.3204 1560.09 46.6907 Z" fill="#000000" fill-rule="nonzero" fill-opacity="1" /><path clip-path="url(#clip920)" d="M1605.3 34.0924 L1605.3 9.54393 L1612.76 9.54393 L1612.76 72.576 L1605.3 72.576 L1605.3 65.7705 Q1602.95 69.8214 1599.35 71.8063 Q1595.78 73.7508 1590.76 73.7508 Q1582.54 73.7508 1577.35 67.1883 Q1572.21 60.6258 1572.21 49.9314 Q1572.21 39.2371 1577.35 32.6746 Q1582.54 26.1121 1590.76 26.1121 Q1595.78 26.1121 1599.35 28.0971 Q1602.95 30.0415 1605.3 34.0924 M1579.9 49.9314 Q1579.9 58.1548 1583.27 62.8538 Q1586.67 67.5124 1592.58 67.5124 Q1598.5 67.5124 1601.9 62.8538 Q1605.3 58.1548 1605.3 49.9314 Q1605.3 41.7081 1601.9 37.0496 Q1598.5 32.3505 1592.58 32.3505 Q1586.67 32.3505 1583.27 37.0496 Q1579.9 41.7081 1579.9 49.9314 Z" fill="#000000" fill-rule="nonzero" fill-opacity="1" /><path clip-path="url(#clip920)" d="M1650.71 46.5287 L1672.55 46.5287 L1672.55 53.1722 L1650.71 53.1722 L1650.71 46.5287 Z" fill="#000000" fill-rule="nonzero" fill-opacity="1" /><path clip-path="url(#clip920)" d="M1711.11 12.096 L1719.29 12.096 L1719.29 72.576 L1711.11 72.576 L1711.11 12.096 Z" fill="#000000" fill-rule="nonzero" fill-opacity="1" /><path clip-path="url(#clip920)" d="M1742.63 14.324 L1742.63 27.2059 L1757.98 27.2059 L1757.98 32.9987 L1742.63 32.9987 L1742.63 57.6282 Q1742.63 63.1779 1744.13 64.7578 Q1745.67 66.3376 1750.32 66.3376 L1757.98 66.3376 L1757.98 72.576 L1750.32 72.576 Q1741.7 72.576 1738.42 69.3758 Q1735.13 66.1351 1735.13 57.6282 L1735.13 32.9987 L1729.67 32.9987 L1729.67 27.2059 L1735.13 27.2059 L1735.13 14.324 L1742.63 14.324 Z" fill="#000000" fill-rule="nonzero" fill-opacity="1" /><path clip-path="url(#clip920)" d="M1806.59 48.0275 L1806.59 51.6733 L1772.32 51.6733 Q1772.81 59.3701 1776.94 63.421 Q1781.11 67.4314 1788.52 67.4314 Q1792.82 67.4314 1796.83 66.3781 Q1800.88 65.3249 1804.85 63.2184 L1804.85 70.267 Q1800.84 71.9684 1796.63 72.8596 Q1792.41 73.7508 1788.08 73.7508 Q1777.22 73.7508 1770.86 67.4314 Q1764.54 61.1119 1764.54 50.3365 Q1764.54 39.1965 1770.54 32.6746 Q1776.57 26.1121 1786.78 26.1121 Q1795.94 26.1121 1801.24 32.0264 Q1806.59 37.9003 1806.59 48.0275 M1799.14 45.84 Q1799.06 39.7232 1795.69 36.0774 Q1792.37 32.4315 1786.86 32.4315 Q1780.63 32.4315 1776.86 35.9558 Q1773.13 39.4801 1772.56 45.8805 L1799.14 45.84 Z" fill="#000000" fill-rule="nonzero" fill-opacity="1" /><path clip-path="url(#clip920)" d="M1845.12 34.1734 Q1843.86 33.4443 1842.36 33.1202 Q1840.9 32.7556 1839.12 32.7556 Q1832.8 32.7556 1829.4 36.8875 Q1826.04 40.9789 1826.04 48.6757 L1826.04 72.576 L1818.54 72.576 L1818.54 27.2059 L1826.04 27.2059 L1826.04 34.2544 Q1828.39 30.1225 1832.15 28.1376 Q1835.92 26.1121 1841.31 26.1121 Q1842.08 26.1121 1843.01 26.2337 Q1843.94 26.3147 1845.08 26.5172 L1845.12 34.1734 Z" fill="#000000" fill-rule="nonzero" fill-opacity="1" /><path clip-path="url(#clip920)" d="M1873.55 49.7694 Q1864.52 49.7694 1861.04 51.8354 Q1857.55 53.9013 1857.55 58.8839 Q1857.55 62.8538 1860.14 65.2034 Q1862.78 67.5124 1867.27 67.5124 Q1873.47 67.5124 1877.2 63.1374 Q1880.97 58.7219 1880.97 51.4303 L1880.97 49.7694 L1873.55 49.7694 M1888.42 46.6907 L1888.42 72.576 L1880.97 72.576 L1880.97 65.6895 Q1878.41 69.8214 1874.61 71.8063 Q1870.8 73.7508 1865.29 73.7508 Q1858.32 73.7508 1854.19 69.8619 Q1850.1 65.9325 1850.1 59.3701 Q1850.1 51.7138 1855.2 47.825 Q1860.35 43.9361 1870.52 43.9361 L1880.97 43.9361 L1880.97 43.2069 Q1880.97 38.0623 1877.56 35.2672 Q1874.2 32.4315 1868.08 32.4315 Q1864.2 32.4315 1860.51 33.3632 Q1856.82 34.295 1853.42 36.1584 L1853.42 29.2718 Q1857.51 27.692 1861.36 26.9223 Q1865.21 26.1121 1868.85 26.1121 Q1878.7 26.1121 1883.56 31.2163 Q1888.42 36.3204 1888.42 46.6907 Z" fill="#000000" fill-rule="nonzero" fill-opacity="1" /><path clip-path="url(#clip920)" d="M1911.15 14.324 L1911.15 27.2059 L1926.5 27.2059 L1926.5 32.9987 L1911.15 32.9987 L1911.15 57.6282 Q1911.15 63.1779 1912.64 64.7578 Q1914.18 66.3376 1918.84 66.3376 L1926.5 66.3376 L1926.5 72.576 L1918.84 72.576 Q1910.21 72.576 1906.93 69.3758 Q1903.65 66.1351 1903.65 57.6282 L1903.65 32.9987 L1898.18 32.9987 L1898.18 27.2059 L1903.65 27.2059 L1903.65 14.324 L1911.15 14.324 Z" fill="#000000" fill-rule="nonzero" fill-opacity="1" /><path clip-path="url(#clip920)" d="M1936.3 27.2059 L1943.76 27.2059 L1943.76 72.576 L1936.3 72.576 L1936.3 27.2059 M1936.3 9.54393 L1943.76 9.54393 L1943.76 18.9825 L1936.3 18.9825 L1936.3 9.54393 Z" fill="#000000" fill-rule="nonzero" fill-opacity="1" /><path clip-path="url(#clip920)" d="M1976.93 32.4315 Q1970.94 32.4315 1967.45 37.1306 Q1963.97 41.7891 1963.97 49.9314 Q1963.97 58.0738 1967.41 62.7728 Q1970.9 67.4314 1976.93 67.4314 Q1982.89 67.4314 1986.37 62.7323 Q1989.85 58.0333 1989.85 49.9314 Q1989.85 41.8701 1986.37 37.1711 Q1982.89 32.4315 1976.93 32.4315 M1976.93 26.1121 Q1986.65 26.1121 1992.2 32.4315 Q1997.75 38.7509 1997.75 49.9314 Q1997.75 61.0714 1992.2 67.4314 Q1986.65 73.7508 1976.93 73.7508 Q1967.17 73.7508 1961.62 67.4314 Q1956.11 61.0714 1956.11 49.9314 Q1956.11 38.7509 1961.62 32.4315 Q1967.17 26.1121 1976.93 26.1121 Z" fill="#000000" fill-rule="nonzero" fill-opacity="1" /><path clip-path="url(#clip920)" d="M2047.82 45.1919 L2047.82 72.576 L2040.37 72.576 L2040.37 45.4349 Q2040.37 38.994 2037.86 35.7938 Q2035.35 32.5936 2030.32 32.5936 Q2024.29 32.5936 2020.8 36.4419 Q2017.32 40.2903 2017.32 46.9338 L2017.32 72.576 L2009.83 72.576 L2009.83 27.2059 L2017.32 27.2059 L2017.32 34.2544 Q2019.99 30.163 2023.6 28.1376 Q2027.24 26.1121 2031.98 26.1121 Q2039.8 26.1121 2043.81 30.9732 Q2047.82 35.7938 2047.82 45.1919 Z" fill="#000000" fill-rule="nonzero" fill-opacity="1" /><path clip-path="url(#clip920)" d="M2097.16 65.6895 L2125.72 65.6895 L2125.72 72.576 L2087.32 72.576 L2087.32 65.6895 Q2091.98 60.8689 2100 52.7671 Q2108.06 44.6248 2110.13 42.2752 Q2114.06 37.8598 2115.59 34.8216 Q2117.17 31.7429 2117.17 28.7857 Q2117.17 23.9651 2113.77 20.927 Q2110.41 17.8888 2104.98 17.8888 Q2101.13 17.8888 2096.84 19.2256 Q2092.59 20.5624 2087.72 23.2765 L2087.72 15.0127 Q2092.67 13.0277 2096.96 12.015 Q2101.25 11.0023 2104.82 11.0023 Q2114.22 11.0023 2119.81 15.7013 Q2125.4 20.4004 2125.4 28.2591 Q2125.4 31.9859 2123.98 35.3482 Q2122.6 38.6699 2118.92 43.2069 Q2117.9 44.3817 2112.48 50.0125 Q2107.05 55.6027 2097.16 65.6895 Z" fill="#000000" fill-rule="nonzero" fill-opacity="1" /><path clip-path="url(#clip922)" d="M892.377 1423.18 L892.377 1423.18 L992.107 1423.18 L992.107 1423.18 L892.377 1423.18 L892.377 1423.18  Z" fill="#009af9" fill-rule="evenodd" fill-opacity="1"/>
<polyline clip-path="url(#clip922)" style="stroke:#000000; stroke-linecap:round; stroke-linejoin:round; stroke-width:4; stroke-opacity:1; fill:none" points="892.377,1423.18 892.377,1423.18 992.107,1423.18 992.107,1423.18 892.377,1423.18 "/>
<path clip-path="url(#clip922)" d="M1765.02 1423.18 L1765.02 1423.18 L1864.75 1423.18 L1864.75 1423.18 L1765.02 1423.18 L1765.02 1423.18  Z" fill="#009af9" fill-rule="evenodd" fill-opacity="1"/>
<polyline clip-path="url(#clip922)" style="stroke:#000000; stroke-linecap:round; stroke-linejoin:round; stroke-width:4; stroke-opacity:1; fill:none" points="1765.02,1423.18 1765.02,1423.18 1864.75,1423.18 1864.75,1423.18 1765.02,1423.18 "/>
<path clip-path="url(#clip922)" d="M1266.36 1423.18 L1266.36 1423.18 L1366.1 1423.18 L1366.1 1423.18 L1266.36 1423.18 L1266.36 1423.18  Z" fill="#009af9" fill-rule="evenodd" fill-opacity="1"/>
<polyline clip-path="url(#clip922)" style="stroke:#000000; stroke-linecap:round; stroke-linejoin:round; stroke-width:4; stroke-opacity:1; fill:none" points="1266.36,1423.18 1266.36,1423.18 1366.1,1423.18 1366.1,1423.18 1266.36,1423.18 "/>
<path clip-path="url(#clip922)" d="M393.725 1423.18 L393.725 1423.18 L493.456 1423.18 L493.456 1423.18 L393.725 1423.18 L393.725 1423.18  Z" fill="#009af9" fill-rule="evenodd" fill-opacity="1"/>
<polyline clip-path="url(#clip922)" style="stroke:#000000; stroke-linecap:round; stroke-linejoin:round; stroke-width:4; stroke-opacity:1; fill:none" points="393.725,1423.18 393.725,1423.18 493.456,1423.18 493.456,1423.18 393.725,1423.18 "/>
<path clip-path="url(#clip922)" d="M1017.04 1413.67 L1017.04 1423.18 L1116.77 1423.18 L1116.77 1413.67 L1017.04 1413.67 L1017.04 1413.67  Z" fill="#009af9" fill-rule="evenodd" fill-opacity="1"/>
<polyline clip-path="url(#clip922)" style="stroke:#000000; stroke-linecap:round; stroke-linejoin:round; stroke-width:4; stroke-opacity:1; fill:none" points="1017.04,1413.67 1017.04,1423.18 1116.77,1423.18 1116.77,1413.67 1017.04,1413.67 "/>
<path clip-path="url(#clip922)" d="M1640.35 1423.18 L1640.35 1423.18 L1740.08 1423.18 L1740.08 1423.18 L1640.35 1423.18 L1640.35 1423.18  Z" fill="#009af9" fill-rule="evenodd" fill-opacity="1"/>
<polyline clip-path="url(#clip922)" style="stroke:#000000; stroke-linecap:round; stroke-linejoin:round; stroke-width:4; stroke-opacity:1; fill:none" points="1640.35,1423.18 1640.35,1423.18 1740.08,1423.18 1740.08,1423.18 1640.35,1423.18 "/>
<path clip-path="url(#clip922)" d="M1391.03 1423.18 L1391.03 1423.18 L1490.76 1423.18 L1490.76 1423.18 L1391.03 1423.18 L1391.03 1423.18  Z" fill="#009af9" fill-rule="evenodd" fill-opacity="1"/>
<polyline clip-path="url(#clip922)" style="stroke:#000000; stroke-linecap:round; stroke-linejoin:round; stroke-width:4; stroke-opacity:1; fill:none" points="1391.03,1423.18 1391.03,1423.18 1490.76,1423.18 1490.76,1423.18 1391.03,1423.18 "/>
<path clip-path="url(#clip922)" d="M2014.34 1423.18 L2014.34 1423.18 L2114.07 1423.18 L2114.07 1423.18 L2014.34 1423.18 L2014.34 1423.18  Z" fill="#009af9" fill-rule="evenodd" fill-opacity="1"/>
<polyline clip-path="url(#clip922)" style="stroke:#000000; stroke-linecap:round; stroke-linejoin:round; stroke-width:4; stroke-opacity:1; fill:none" points="2014.34,1423.18 2014.34,1423.18 2114.07,1423.18 2114.07,1423.18 2014.34,1423.18 "/>
<path clip-path="url(#clip922)" d="M643.051 1423.18 L643.051 1423.18 L742.781 1423.18 L742.781 1423.18 L643.051 1423.18 L643.051 1423.18  Z" fill="#009af9" fill-rule="evenodd" fill-opacity="1"/>
<polyline clip-path="url(#clip922)" style="stroke:#000000; stroke-linecap:round; stroke-linejoin:round; stroke-width:4; stroke-opacity:1; fill:none" points="643.051,1423.18 643.051,1423.18 742.781,1423.18 742.781,1423.18 643.051,1423.18 "/>
<path clip-path="url(#clip922)" d="M1141.7 123.472 L1141.7 1423.18 L1241.43 1423.18 L1241.43 123.472 L1141.7 123.472 L1141.7 123.472  Z" fill="#009af9" fill-rule="evenodd" fill-opacity="1"/>
<polyline clip-path="url(#clip922)" style="stroke:#000000; stroke-linecap:round; stroke-linejoin:round; stroke-width:4; stroke-opacity:1; fill:none" points="1141.7,123.472 1141.7,1423.18 1241.43,1423.18 1241.43,123.472 1141.7,123.472 "/>
<path clip-path="url(#clip922)" d="M767.714 1423.18 L767.714 1423.18 L867.444 1423.18 L867.444 1423.18 L767.714 1423.18 L767.714 1423.18  Z" fill="#009af9" fill-rule="evenodd" fill-opacity="1"/>
<polyline clip-path="url(#clip922)" style="stroke:#000000; stroke-linecap:round; stroke-linejoin:round; stroke-width:4; stroke-opacity:1; fill:none" points="767.714,1423.18 767.714,1423.18 867.444,1423.18 867.444,1423.18 767.714,1423.18 "/>
<path clip-path="url(#clip922)" d="M1889.68 1423.18 L1889.68 1423.18 L1989.41 1423.18 L1989.41 1423.18 L1889.68 1423.18 L1889.68 1423.18  Z" fill="#009af9" fill-rule="evenodd" fill-opacity="1"/>
<polyline clip-path="url(#clip922)" style="stroke:#000000; stroke-linecap:round; stroke-linejoin:round; stroke-width:4; stroke-opacity:1; fill:none" points="1889.68,1423.18 1889.68,1423.18 1989.41,1423.18 1989.41,1423.18 1889.68,1423.18 "/>
<path clip-path="url(#clip922)" d="M2139 1423.18 L2139 1423.18 L2238.73 1423.18 L2238.73 1423.18 L2139 1423.18 L2139 1423.18  Z" fill="#009af9" fill-rule="evenodd" fill-opacity="1"/>
<polyline clip-path="url(#clip922)" style="stroke:#000000; stroke-linecap:round; stroke-linejoin:round; stroke-width:4; stroke-opacity:1; fill:none" points="2139,1423.18 2139,1423.18 2238.73,1423.18 2238.73,1423.18 2139,1423.18 "/>
<path clip-path="url(#clip922)" d="M518.388 1423.18 L518.388 1423.18 L618.118 1423.18 L618.118 1423.18 L518.388 1423.18 L518.388 1423.18  Z" fill="#009af9" fill-rule="evenodd" fill-opacity="1"/>
<polyline clip-path="url(#clip922)" style="stroke:#000000; stroke-linecap:round; stroke-linejoin:round; stroke-width:4; stroke-opacity:1; fill:none" points="518.388,1423.18 518.388,1423.18 618.118,1423.18 618.118,1423.18 518.388,1423.18 "/>
<path clip-path="url(#clip922)" d="M1515.69 1423.18 L1515.69 1423.18 L1615.42 1423.18 L1615.42 1423.18 L1515.69 1423.18 L1515.69 1423.18  Z" fill="#009af9" fill-rule="evenodd" fill-opacity="1"/>
<polyline clip-path="url(#clip922)" style="stroke:#000000; stroke-linecap:round; stroke-linejoin:round; stroke-width:4; stroke-opacity:1; fill:none" points="1515.69,1423.18 1515.69,1423.18 1615.42,1423.18 1615.42,1423.18 1515.69,1423.18 "/>
<circle clip-path="url(#clip922)" style="fill:#009af9; stroke:none; fill-opacity:0" cx="942.242" cy="1423.18" r="2"/>
<circle clip-path="url(#clip922)" style="fill:#009af9; stroke:none; fill-opacity:0" cx="1814.88" cy="1423.18" r="2"/>
<circle clip-path="url(#clip922)" style="fill:#009af9; stroke:none; fill-opacity:0" cx="1316.23" cy="1423.18" r="2"/>
<circle clip-path="url(#clip922)" style="fill:#009af9; stroke:none; fill-opacity:0" cx="443.591" cy="1423.18" r="2"/>
<circle clip-path="url(#clip922)" style="fill:#009af9; stroke:none; fill-opacity:0" cx="1066.9" cy="1413.67" r="2"/>
<circle clip-path="url(#clip922)" style="fill:#009af9; stroke:none; fill-opacity:0" cx="1690.22" cy="1423.18" r="2"/>
<circle clip-path="url(#clip922)" style="fill:#009af9; stroke:none; fill-opacity:0" cx="1440.89" cy="1423.18" r="2"/>
<circle clip-path="url(#clip922)" style="fill:#009af9; stroke:none; fill-opacity:0" cx="2064.21" cy="1423.18" r="2"/>
<circle clip-path="url(#clip922)" style="fill:#009af9; stroke:none; fill-opacity:0" cx="692.916" cy="1423.18" r="2"/>
<circle clip-path="url(#clip922)" style="fill:#009af9; stroke:none; fill-opacity:0" cx="1191.57" cy="123.472" r="2"/>
<circle clip-path="url(#clip922)" style="fill:#009af9; stroke:none; fill-opacity:0" cx="817.579" cy="1423.18" r="2"/>
<circle clip-path="url(#clip922)" style="fill:#009af9; stroke:none; fill-opacity:0" cx="1939.54" cy="1423.18" r="2"/>
<circle clip-path="url(#clip922)" style="fill:#009af9; stroke:none; fill-opacity:0" cx="2188.87" cy="1423.18" r="2"/>
<circle clip-path="url(#clip922)" style="fill:#009af9; stroke:none; fill-opacity:0" cx="568.253" cy="1423.18" r="2"/>
<circle clip-path="url(#clip922)" style="fill:#009af9; stroke:none; fill-opacity:0" cx="1565.56" cy="1423.18" r="2"/>
</svg>
