<?xml version="1.0" encoding="utf-8"?>
<svg xmlns="http://www.w3.org/2000/svg" xmlns:xlink="http://www.w3.org/1999/xlink" width="600" height="400" viewBox="0 0 2400 1600">
<defs>
  <clipPath id="clip380">
    <rect x="0" y="0" width="2400" height="1600"/>
  </clipPath>
</defs>
<path clip-path="url(#clip380)" d="M0 1600 L2400 1600 L2400 0 L0 0  Z" fill="#ffffff" fill-rule="evenodd" fill-opacity="1"/>
<defs>
  <clipPath id="clip381">
    <rect x="480" y="0" width="1681" height="1600"/>
  </clipPath>
</defs>
<path clip-path="url(#clip380)" d="M302.458 1423.18 L2352.76 1423.18 L2352.76 123.472 L302.458 123.472  Z" fill="#ffffff" fill-rule="evenodd" fill-opacity="1"/>
<defs>
  <clipPath id="clip382">
    <rect x="302" y="123" width="2051" height="1301"/>
  </clipPath>
</defs>
<polyline clip-path="url(#clip382)" style="stroke:#000000; stroke-linecap:round; stroke-linejoin:round; stroke-width:2; stroke-opacity:0.1; fill:none" points="551.985,1423.18 551.985,123.472 "/>
<polyline clip-path="url(#clip382)" style="stroke:#000000; stroke-linecap:round; stroke-linejoin:round; stroke-width:2; stroke-opacity:0.1; fill:none" points="839.468,1423.18 839.468,123.472 "/>
<polyline clip-path="url(#clip382)" style="stroke:#000000; stroke-linecap:round; stroke-linejoin:round; stroke-width:2; stroke-opacity:0.1; fill:none" points="1126.95,1423.18 1126.95,123.472 "/>
<polyline clip-path="url(#clip382)" style="stroke:#000000; stroke-linecap:round; stroke-linejoin:round; stroke-width:2; stroke-opacity:0.1; fill:none" points="1414.43,1423.18 1414.43,123.472 "/>
<polyline clip-path="url(#clip382)" style="stroke:#000000; stroke-linecap:round; stroke-linejoin:round; stroke-width:2; stroke-opacity:0.1; fill:none" points="1701.92,1423.18 1701.92,123.472 "/>
<polyline clip-path="url(#clip382)" style="stroke:#000000; stroke-linecap:round; stroke-linejoin:round; stroke-width:2; stroke-opacity:0.1; fill:none" points="1989.4,1423.18 1989.4,123.472 "/>
<polyline clip-path="url(#clip382)" style="stroke:#000000; stroke-linecap:round; stroke-linejoin:round; stroke-width:2; stroke-opacity:0.1; fill:none" points="2276.88,1423.18 2276.88,123.472 "/>
<polyline clip-path="url(#clip382)" style="stroke:#000000; stroke-linecap:round; stroke-linejoin:round; stroke-width:2; stroke-opacity:0.1; fill:none" points="302.458,1265 2352.76,1265 "/>
<polyline clip-path="url(#clip382)" style="stroke:#000000; stroke-linecap:round; stroke-linejoin:round; stroke-width:2; stroke-opacity:0.1; fill:none" points="302.458,1082.76 2352.76,1082.76 "/>
<polyline clip-path="url(#clip382)" style="stroke:#000000; stroke-linecap:round; stroke-linejoin:round; stroke-width:2; stroke-opacity:0.1; fill:none" points="302.458,900.524 2352.76,900.524 "/>
<polyline clip-path="url(#clip382)" style="stroke:#000000; stroke-linecap:round; stroke-linejoin:round; stroke-width:2; stroke-opacity:0.1; fill:none" points="302.458,718.285 2352.76,718.285 "/>
<polyline clip-path="url(#clip382)" style="stroke:#000000; stroke-linecap:round; stroke-linejoin:round; stroke-width:2; stroke-opacity:0.1; fill:none" points="302.458,536.047 2352.76,536.047 "/>
<polyline clip-path="url(#clip382)" style="stroke:#000000; stroke-linecap:round; stroke-linejoin:round; stroke-width:2; stroke-opacity:0.1; fill:none" points="302.458,353.808 2352.76,353.808 "/>
<polyline clip-path="url(#clip382)" style="stroke:#000000; stroke-linecap:round; stroke-linejoin:round; stroke-width:2; stroke-opacity:0.1; fill:none" points="302.458,171.569 2352.76,171.569 "/>
<polyline clip-path="url(#clip380)" style="stroke:#000000; stroke-linecap:round; stroke-linejoin:round; stroke-width:4; stroke-opacity:1; fill:none" points="302.458,1423.18 2352.76,1423.18 "/>
<polyline clip-path="url(#clip380)" style="stroke:#000000; stroke-linecap:round; stroke-linejoin:round; stroke-width:4; stroke-opacity:1; fill:none" points="551.985,1423.18 551.985,1404.28 "/>
<polyline clip-path="url(#clip380)" style="stroke:#000000; stroke-linecap:round; stroke-linejoin:round; stroke-width:4; stroke-opacity:1; fill:none" points="839.468,1423.18 839.468,1404.28 "/>
<polyline clip-path="url(#clip380)" style="stroke:#000000; stroke-linecap:round; stroke-linejoin:round; stroke-width:4; stroke-opacity:1; fill:none" points="1126.95,1423.18 1126.95,1404.28 "/>
<polyline clip-path="url(#clip380)" style="stroke:#000000; stroke-linecap:round; stroke-linejoin:round; stroke-width:4; stroke-opacity:1; fill:none" points="1414.43,1423.18 1414.43,1404.28 "/>
<polyline clip-path="url(#clip380)" style="stroke:#000000; stroke-linecap:round; stroke-linejoin:round; stroke-width:4; stroke-opacity:1; fill:none" points="1701.92,1423.18 1701.92,1404.28 "/>
<polyline clip-path="url(#clip380)" style="stroke:#000000; stroke-linecap:round; stroke-linejoin:round; stroke-width:4; stroke-opacity:1; fill:none" points="1989.4,1423.18 1989.4,1404.28 "/>
<polyline clip-path="url(#clip380)" style="stroke:#000000; stroke-linecap:round; stroke-linejoin:round; stroke-width:4; stroke-opacity:1; fill:none" points="2276.88,1423.18 2276.88,1404.28 "/>
<path clip-path="url(#clip380)" d="M475.886 1468.75 L505.562 1468.75 L505.562 1472.69 L475.886 1472.69 L475.886 1468.75 Z" fill="#000000" fill-rule="nonzero" fill-opacity="1" /><path clip-path="url(#clip380)" d="M529.821 1466.95 Q533.178 1467.66 535.053 1469.93 Q536.951 1472.2 536.951 1475.53 Q536.951 1480.65 533.432 1483.45 Q529.914 1486.25 523.432 1486.25 Q521.256 1486.25 518.942 1485.81 Q516.65 1485.39 514.196 1484.54 L514.196 1480.02 Q516.141 1481.16 518.456 1481.74 Q520.77 1482.32 523.293 1482.32 Q527.692 1482.32 529.983 1480.58 Q532.298 1478.84 532.298 1475.53 Q532.298 1472.48 530.145 1470.77 Q528.016 1469.03 524.196 1469.03 L520.168 1469.03 L520.168 1465.19 L524.381 1465.19 Q527.83 1465.19 529.659 1463.82 Q531.488 1462.43 531.488 1459.84 Q531.488 1457.18 529.59 1455.77 Q527.715 1454.33 524.196 1454.33 Q522.275 1454.33 520.076 1454.75 Q517.877 1455.16 515.238 1456.04 L515.238 1451.88 Q517.9 1451.14 520.215 1450.77 Q522.553 1450.39 524.613 1450.39 Q529.937 1450.39 533.039 1452.83 Q536.141 1455.23 536.141 1459.35 Q536.141 1462.22 534.497 1464.21 Q532.854 1466.18 529.821 1466.95 Z" fill="#000000" fill-rule="nonzero" fill-opacity="1" /><path clip-path="url(#clip380)" d="M555.816 1454.1 Q552.205 1454.1 550.377 1457.66 Q548.571 1461.2 548.571 1468.33 Q548.571 1475.44 550.377 1479.01 Q552.205 1482.55 555.816 1482.55 Q559.451 1482.55 561.256 1479.01 Q563.085 1475.44 563.085 1468.33 Q563.085 1461.2 561.256 1457.66 Q559.451 1454.1 555.816 1454.1 M555.816 1450.39 Q561.627 1450.39 564.682 1455 Q567.761 1459.58 567.761 1468.33 Q567.761 1477.06 564.682 1481.67 Q561.627 1486.25 555.816 1486.25 Q550.006 1486.25 546.928 1481.67 Q543.872 1477.06 543.872 1468.33 Q543.872 1459.58 546.928 1455 Q550.006 1450.39 555.816 1450.39 Z" fill="#000000" fill-rule="nonzero" fill-opacity="1" /><path clip-path="url(#clip380)" d="M585.978 1454.1 Q582.367 1454.1 580.539 1457.66 Q578.733 1461.2 578.733 1468.33 Q578.733 1475.44 580.539 1479.01 Q582.367 1482.55 585.978 1482.55 Q589.613 1482.55 591.418 1479.01 Q593.247 1475.44 593.247 1468.33 Q593.247 1461.2 591.418 1457.66 Q589.613 1454.1 585.978 1454.1 M585.978 1450.39 Q591.788 1450.39 594.844 1455 Q597.923 1459.58 597.923 1468.33 Q597.923 1477.06 594.844 1481.67 Q591.788 1486.25 585.978 1486.25 Q580.168 1486.25 577.089 1481.67 Q574.034 1477.06 574.034 1468.33 Q574.034 1459.58 577.089 1455 Q580.168 1450.39 585.978 1450.39 Z" fill="#000000" fill-rule="nonzero" fill-opacity="1" /><path clip-path="url(#clip380)" d="M616.14 1454.1 Q612.529 1454.1 610.7 1457.66 Q608.895 1461.2 608.895 1468.33 Q608.895 1475.44 610.7 1479.01 Q612.529 1482.55 616.14 1482.55 Q619.774 1482.55 621.58 1479.01 Q623.409 1475.44 623.409 1468.33 Q623.409 1461.2 621.58 1457.66 Q619.774 1454.1 616.14 1454.1 M616.14 1450.39 Q621.95 1450.39 625.006 1455 Q628.085 1459.58 628.085 1468.33 Q628.085 1477.06 625.006 1481.67 Q621.95 1486.25 616.14 1486.25 Q610.33 1486.25 607.251 1481.67 Q604.196 1477.06 604.196 1468.33 Q604.196 1459.58 607.251 1455 Q610.33 1450.39 616.14 1450.39 Z" fill="#000000" fill-rule="nonzero" fill-opacity="1" /><path clip-path="url(#clip380)" d="M763.369 1468.75 L793.045 1468.75 L793.045 1472.69 L763.369 1472.69 L763.369 1468.75 Z" fill="#000000" fill-rule="nonzero" fill-opacity="1" /><path clip-path="url(#clip380)" d="M807.165 1481.64 L823.485 1481.64 L823.485 1485.58 L801.54 1485.58 L801.54 1481.64 Q804.202 1478.89 808.786 1474.26 Q813.392 1469.61 814.573 1468.27 Q816.818 1465.74 817.698 1464.01 Q818.6 1462.25 818.6 1460.56 Q818.6 1457.8 816.656 1456.07 Q814.735 1454.33 811.633 1454.33 Q809.434 1454.33 806.98 1455.09 Q804.55 1455.86 801.772 1457.41 L801.772 1452.69 Q804.596 1451.55 807.05 1450.97 Q809.503 1450.39 811.54 1450.39 Q816.911 1450.39 820.105 1453.08 Q823.299 1455.77 823.299 1460.26 Q823.299 1462.39 822.489 1464.31 Q821.702 1466.2 819.596 1468.8 Q819.017 1469.47 815.915 1472.69 Q812.813 1475.88 807.165 1481.64 Z" fill="#000000" fill-rule="nonzero" fill-opacity="1" /><path clip-path="url(#clip380)" d="M843.299 1454.1 Q839.688 1454.1 837.86 1457.66 Q836.054 1461.2 836.054 1468.33 Q836.054 1475.44 837.86 1479.01 Q839.688 1482.55 843.299 1482.55 Q846.934 1482.55 848.739 1479.01 Q850.568 1475.44 850.568 1468.33 Q850.568 1461.2 848.739 1457.66 Q846.934 1454.1 843.299 1454.1 M843.299 1450.39 Q849.11 1450.39 852.165 1455 Q855.244 1459.58 855.244 1468.33 Q855.244 1477.06 852.165 1481.67 Q849.11 1486.25 843.299 1486.25 Q837.489 1486.25 834.411 1481.67 Q831.355 1477.06 831.355 1468.33 Q831.355 1459.58 834.411 1455 Q837.489 1450.39 843.299 1450.39 Z" fill="#000000" fill-rule="nonzero" fill-opacity="1" /><path clip-path="url(#clip380)" d="M873.461 1454.1 Q869.85 1454.1 868.021 1457.66 Q866.216 1461.2 866.216 1468.33 Q866.216 1475.44 868.021 1479.01 Q869.85 1482.55 873.461 1482.55 Q877.095 1482.55 878.901 1479.01 Q880.73 1475.44 880.73 1468.33 Q880.73 1461.2 878.901 1457.66 Q877.095 1454.1 873.461 1454.1 M873.461 1450.39 Q879.271 1450.39 882.327 1455 Q885.406 1459.58 885.406 1468.33 Q885.406 1477.06 882.327 1481.67 Q879.271 1486.25 873.461 1486.25 Q867.651 1486.25 864.572 1481.67 Q861.517 1477.06 861.517 1468.33 Q861.517 1459.58 864.572 1455 Q867.651 1450.39 873.461 1450.39 Z" fill="#000000" fill-rule="nonzero" fill-opacity="1" /><path clip-path="url(#clip380)" d="M903.623 1454.1 Q900.012 1454.1 898.183 1457.66 Q896.378 1461.2 896.378 1468.33 Q896.378 1475.44 898.183 1479.01 Q900.012 1482.55 903.623 1482.55 Q907.257 1482.55 909.063 1479.01 Q910.892 1475.44 910.892 1468.33 Q910.892 1461.2 909.063 1457.66 Q907.257 1454.1 903.623 1454.1 M903.623 1450.39 Q909.433 1450.39 912.489 1455 Q915.567 1459.58 915.567 1468.33 Q915.567 1477.06 912.489 1481.67 Q909.433 1486.25 903.623 1486.25 Q897.813 1486.25 894.734 1481.67 Q891.679 1477.06 891.679 1468.33 Q891.679 1459.58 894.734 1455 Q897.813 1450.39 903.623 1450.39 Z" fill="#000000" fill-rule="nonzero" fill-opacity="1" /><path clip-path="url(#clip380)" d="M1050.85 1468.75 L1080.53 1468.75 L1080.53 1472.69 L1050.85 1472.69 L1050.85 1468.75 Z" fill="#000000" fill-rule="nonzero" fill-opacity="1" /><path clip-path="url(#clip380)" d="M1091.43 1481.64 L1099.07 1481.64 L1099.07 1455.28 L1090.76 1456.95 L1090.76 1452.69 L1099.02 1451.02 L1103.7 1451.02 L1103.7 1481.64 L1111.34 1481.64 L1111.34 1485.58 L1091.43 1485.58 L1091.43 1481.64 Z" fill="#000000" fill-rule="nonzero" fill-opacity="1" /><path clip-path="url(#clip380)" d="M1130.78 1454.1 Q1127.17 1454.1 1125.34 1457.66 Q1123.54 1461.2 1123.54 1468.33 Q1123.54 1475.44 1125.34 1479.01 Q1127.17 1482.55 1130.78 1482.55 Q1134.42 1482.55 1136.22 1479.01 Q1138.05 1475.44 1138.05 1468.33 Q1138.05 1461.2 1136.22 1457.66 Q1134.42 1454.1 1130.78 1454.1 M1130.78 1450.39 Q1136.59 1450.39 1139.65 1455 Q1142.73 1459.58 1142.73 1468.33 Q1142.73 1477.06 1139.65 1481.67 Q1136.59 1486.25 1130.78 1486.25 Q1124.97 1486.25 1121.89 1481.67 Q1118.84 1477.06 1118.84 1468.33 Q1118.84 1459.58 1121.89 1455 Q1124.97 1450.39 1130.78 1450.39 Z" fill="#000000" fill-rule="nonzero" fill-opacity="1" /><path clip-path="url(#clip380)" d="M1160.94 1454.1 Q1157.33 1454.1 1155.5 1457.66 Q1153.7 1461.2 1153.7 1468.33 Q1153.7 1475.44 1155.5 1479.01 Q1157.33 1482.55 1160.94 1482.55 Q1164.58 1482.55 1166.38 1479.01 Q1168.21 1475.44 1168.21 1468.33 Q1168.21 1461.2 1166.38 1457.66 Q1164.58 1454.1 1160.94 1454.1 M1160.94 1450.39 Q1166.75 1450.39 1169.81 1455 Q1172.89 1459.58 1172.89 1468.33 Q1172.89 1477.06 1169.81 1481.67 Q1166.75 1486.25 1160.94 1486.25 Q1155.13 1486.25 1152.06 1481.67 Q1149 1477.06 1149 1468.33 Q1149 1459.58 1152.06 1455 Q1155.13 1450.39 1160.94 1450.39 Z" fill="#000000" fill-rule="nonzero" fill-opacity="1" /><path clip-path="url(#clip380)" d="M1191.11 1454.1 Q1187.49 1454.1 1185.67 1457.66 Q1183.86 1461.2 1183.86 1468.33 Q1183.86 1475.44 1185.67 1479.01 Q1187.49 1482.55 1191.11 1482.55 Q1194.74 1482.55 1196.55 1479.01 Q1198.37 1475.44 1198.37 1468.33 Q1198.37 1461.2 1196.55 1457.66 Q1194.74 1454.1 1191.11 1454.1 M1191.11 1450.39 Q1196.92 1450.39 1199.97 1455 Q1203.05 1459.58 1203.05 1468.33 Q1203.05 1477.06 1199.97 1481.67 Q1196.92 1486.25 1191.11 1486.25 Q1185.3 1486.25 1182.22 1481.67 Q1179.16 1477.06 1179.16 1468.33 Q1179.16 1459.58 1182.22 1455 Q1185.3 1450.39 1191.11 1450.39 Z" fill="#000000" fill-rule="nonzero" fill-opacity="1" /><path clip-path="url(#clip380)" d="M1414.43 1454.1 Q1410.82 1454.1 1408.99 1457.66 Q1407.19 1461.2 1407.19 1468.33 Q1407.19 1475.44 1408.99 1479.01 Q1410.82 1482.55 1414.43 1482.55 Q1418.07 1482.55 1419.87 1479.01 Q1421.7 1475.44 1421.7 1468.33 Q1421.7 1461.2 1419.87 1457.66 Q1418.07 1454.1 1414.43 1454.1 M1414.43 1450.39 Q1420.24 1450.39 1423.3 1455 Q1426.38 1459.58 1426.38 1468.33 Q1426.38 1477.06 1423.3 1481.67 Q1420.24 1486.25 1414.43 1486.25 Q1408.62 1486.25 1405.55 1481.67 Q1402.49 1477.06 1402.49 1468.33 Q1402.49 1459.58 1405.55 1455 Q1408.62 1450.39 1414.43 1450.39 Z" fill="#000000" fill-rule="nonzero" fill-opacity="1" /><path clip-path="url(#clip380)" d="M1646.44 1481.64 L1654.08 1481.64 L1654.08 1455.28 L1645.77 1456.95 L1645.77 1452.69 L1654.04 1451.02 L1658.71 1451.02 L1658.71 1481.64 L1666.35 1481.64 L1666.35 1485.58 L1646.44 1485.58 L1646.44 1481.64 Z" fill="#000000" fill-rule="nonzero" fill-opacity="1" /><path clip-path="url(#clip380)" d="M1685.79 1454.1 Q1682.18 1454.1 1680.35 1457.66 Q1678.55 1461.2 1678.55 1468.33 Q1678.55 1475.44 1680.35 1479.01 Q1682.18 1482.55 1685.79 1482.55 Q1689.43 1482.55 1691.23 1479.01 Q1693.06 1475.44 1693.06 1468.33 Q1693.06 1461.2 1691.23 1457.66 Q1689.43 1454.1 1685.79 1454.1 M1685.79 1450.39 Q1691.6 1450.39 1694.66 1455 Q1697.74 1459.58 1697.74 1468.33 Q1697.74 1477.06 1694.66 1481.67 Q1691.6 1486.25 1685.79 1486.25 Q1679.98 1486.25 1676.91 1481.67 Q1673.85 1477.06 1673.85 1468.33 Q1673.85 1459.58 1676.91 1455 Q1679.98 1450.39 1685.79 1450.39 Z" fill="#000000" fill-rule="nonzero" fill-opacity="1" /><path clip-path="url(#clip380)" d="M1715.96 1454.1 Q1712.35 1454.1 1710.52 1457.66 Q1708.71 1461.2 1708.71 1468.33 Q1708.71 1475.44 1710.52 1479.01 Q1712.35 1482.55 1715.96 1482.55 Q1719.59 1482.55 1721.4 1479.01 Q1723.22 1475.44 1723.22 1468.33 Q1723.22 1461.2 1721.4 1457.66 Q1719.59 1454.1 1715.96 1454.1 M1715.96 1450.39 Q1721.77 1450.39 1724.82 1455 Q1727.9 1459.58 1727.9 1468.33 Q1727.9 1477.06 1724.82 1481.67 Q1721.77 1486.25 1715.96 1486.25 Q1710.15 1486.25 1707.07 1481.67 Q1704.01 1477.06 1704.01 1468.33 Q1704.01 1459.58 1707.07 1455 Q1710.15 1450.39 1715.96 1450.39 Z" fill="#000000" fill-rule="nonzero" fill-opacity="1" /><path clip-path="url(#clip380)" d="M1746.12 1454.1 Q1742.51 1454.1 1740.68 1457.66 Q1738.87 1461.2 1738.87 1468.33 Q1738.87 1475.44 1740.68 1479.01 Q1742.51 1482.55 1746.12 1482.55 Q1749.75 1482.55 1751.56 1479.01 Q1753.39 1475.44 1753.39 1468.33 Q1753.39 1461.2 1751.56 1457.66 Q1749.75 1454.1 1746.12 1454.1 M1746.12 1450.39 Q1751.93 1450.39 1754.98 1455 Q1758.06 1459.58 1758.06 1468.33 Q1758.06 1477.06 1754.98 1481.67 Q1751.93 1486.25 1746.12 1486.25 Q1740.31 1486.25 1737.23 1481.67 Q1734.17 1477.06 1734.17 1468.33 Q1734.17 1459.58 1737.23 1455 Q1740.31 1450.39 1746.12 1450.39 Z" fill="#000000" fill-rule="nonzero" fill-opacity="1" /><path clip-path="url(#clip380)" d="M1938.01 1481.64 L1954.33 1481.64 L1954.33 1485.58 L1932.39 1485.58 L1932.39 1481.64 Q1935.05 1478.89 1939.63 1474.26 Q1944.24 1469.61 1945.42 1468.27 Q1947.66 1465.74 1948.54 1464.01 Q1949.45 1462.25 1949.45 1460.56 Q1949.45 1457.8 1947.5 1456.07 Q1945.58 1454.33 1942.48 1454.33 Q1940.28 1454.33 1937.83 1455.09 Q1935.4 1455.86 1932.62 1457.41 L1932.62 1452.69 Q1935.44 1451.55 1937.9 1450.97 Q1940.35 1450.39 1942.39 1450.39 Q1947.76 1450.39 1950.95 1453.08 Q1954.15 1455.77 1954.15 1460.26 Q1954.15 1462.39 1953.34 1464.31 Q1952.55 1466.2 1950.44 1468.8 Q1949.86 1469.47 1946.76 1472.69 Q1943.66 1475.88 1938.01 1481.64 Z" fill="#000000" fill-rule="nonzero" fill-opacity="1" /><path clip-path="url(#clip380)" d="M1974.15 1454.1 Q1970.53 1454.1 1968.71 1457.66 Q1966.9 1461.2 1966.9 1468.33 Q1966.9 1475.44 1968.71 1479.01 Q1970.53 1482.55 1974.15 1482.55 Q1977.78 1482.55 1979.59 1479.01 Q1981.41 1475.44 1981.41 1468.33 Q1981.41 1461.2 1979.59 1457.66 Q1977.78 1454.1 1974.15 1454.1 M1974.15 1450.39 Q1979.96 1450.39 1983.01 1455 Q1986.09 1459.58 1986.09 1468.33 Q1986.09 1477.06 1983.01 1481.67 Q1979.96 1486.25 1974.15 1486.25 Q1968.34 1486.25 1965.26 1481.67 Q1962.2 1477.06 1962.2 1468.33 Q1962.2 1459.58 1965.26 1455 Q1968.34 1450.39 1974.15 1450.39 Z" fill="#000000" fill-rule="nonzero" fill-opacity="1" /><path clip-path="url(#clip380)" d="M2004.31 1454.1 Q2000.7 1454.1 1998.87 1457.66 Q1997.06 1461.2 1997.06 1468.33 Q1997.06 1475.44 1998.87 1479.01 Q2000.7 1482.55 2004.31 1482.55 Q2007.94 1482.55 2009.75 1479.01 Q2011.58 1475.44 2011.58 1468.33 Q2011.58 1461.2 2009.75 1457.66 Q2007.94 1454.1 2004.31 1454.1 M2004.31 1450.39 Q2010.12 1450.39 2013.17 1455 Q2016.25 1459.58 2016.25 1468.33 Q2016.25 1477.06 2013.17 1481.67 Q2010.12 1486.25 2004.31 1486.25 Q1998.5 1486.25 1995.42 1481.67 Q1992.36 1477.06 1992.36 1468.33 Q1992.36 1459.58 1995.42 1455 Q1998.5 1450.39 2004.31 1450.39 Z" fill="#000000" fill-rule="nonzero" fill-opacity="1" /><path clip-path="url(#clip380)" d="M2034.47 1454.1 Q2030.86 1454.1 2029.03 1457.66 Q2027.22 1461.2 2027.22 1468.33 Q2027.22 1475.44 2029.03 1479.01 Q2030.86 1482.55 2034.47 1482.55 Q2038.1 1482.55 2039.91 1479.01 Q2041.74 1475.44 2041.74 1468.33 Q2041.74 1461.2 2039.91 1457.66 Q2038.1 1454.1 2034.47 1454.1 M2034.47 1450.39 Q2040.28 1450.39 2043.33 1455 Q2046.41 1459.58 2046.41 1468.33 Q2046.41 1477.06 2043.33 1481.67 Q2040.28 1486.25 2034.47 1486.25 Q2028.66 1486.25 2025.58 1481.67 Q2022.52 1477.06 2022.52 1468.33 Q2022.52 1459.58 2025.58 1455 Q2028.66 1450.39 2034.47 1450.39 Z" fill="#000000" fill-rule="nonzero" fill-opacity="1" /><path clip-path="url(#clip380)" d="M2235.56 1466.95 Q2238.92 1467.66 2240.8 1469.93 Q2242.69 1472.2 2242.69 1475.53 Q2242.69 1480.65 2239.17 1483.45 Q2235.66 1486.25 2229.17 1486.25 Q2227 1486.25 2224.68 1485.81 Q2222.39 1485.39 2219.94 1484.54 L2219.94 1480.02 Q2221.88 1481.16 2224.2 1481.74 Q2226.51 1482.32 2229.04 1482.32 Q2233.43 1482.32 2235.73 1480.58 Q2238.04 1478.84 2238.04 1475.53 Q2238.04 1472.48 2235.89 1470.77 Q2233.76 1469.03 2229.94 1469.03 L2225.91 1469.03 L2225.91 1465.19 L2230.12 1465.19 Q2233.57 1465.19 2235.4 1463.82 Q2237.23 1462.43 2237.23 1459.84 Q2237.23 1457.18 2235.33 1455.77 Q2233.46 1454.33 2229.94 1454.33 Q2228.02 1454.33 2225.82 1454.75 Q2223.62 1455.16 2220.98 1456.04 L2220.98 1451.88 Q2223.64 1451.14 2225.96 1450.77 Q2228.3 1450.39 2230.36 1450.39 Q2235.68 1450.39 2238.78 1452.83 Q2241.88 1455.23 2241.88 1459.35 Q2241.88 1462.22 2240.24 1464.21 Q2238.6 1466.18 2235.56 1466.95 Z" fill="#000000" fill-rule="nonzero" fill-opacity="1" /><path clip-path="url(#clip380)" d="M2261.56 1454.1 Q2257.95 1454.1 2256.12 1457.66 Q2254.31 1461.2 2254.31 1468.33 Q2254.31 1475.44 2256.12 1479.01 Q2257.95 1482.55 2261.56 1482.55 Q2265.19 1482.55 2267 1479.01 Q2268.83 1475.44 2268.83 1468.33 Q2268.83 1461.2 2267 1457.66 Q2265.19 1454.1 2261.56 1454.1 M2261.56 1450.39 Q2267.37 1450.39 2270.42 1455 Q2273.5 1459.58 2273.5 1468.33 Q2273.5 1477.06 2270.42 1481.67 Q2267.37 1486.25 2261.56 1486.25 Q2255.75 1486.25 2252.67 1481.67 Q2249.61 1477.06 2249.61 1468.33 Q2249.61 1459.58 2252.67 1455 Q2255.75 1450.39 2261.56 1450.39 Z" fill="#000000" fill-rule="nonzero" fill-opacity="1" /><path clip-path="url(#clip380)" d="M2291.72 1454.1 Q2288.11 1454.1 2286.28 1457.66 Q2284.48 1461.2 2284.48 1468.33 Q2284.48 1475.44 2286.28 1479.01 Q2288.11 1482.55 2291.72 1482.55 Q2295.35 1482.55 2297.16 1479.01 Q2298.99 1475.44 2298.99 1468.33 Q2298.99 1461.2 2297.16 1457.66 Q2295.35 1454.1 2291.72 1454.1 M2291.72 1450.39 Q2297.53 1450.39 2300.59 1455 Q2303.67 1459.58 2303.67 1468.33 Q2303.67 1477.06 2300.59 1481.67 Q2297.53 1486.25 2291.72 1486.25 Q2285.91 1486.25 2282.83 1481.67 Q2279.78 1477.06 2279.78 1468.33 Q2279.78 1459.58 2282.83 1455 Q2285.91 1450.39 2291.72 1450.39 Z" fill="#000000" fill-rule="nonzero" fill-opacity="1" /><path clip-path="url(#clip380)" d="M2321.88 1454.1 Q2318.27 1454.1 2316.44 1457.66 Q2314.64 1461.2 2314.64 1468.33 Q2314.64 1475.44 2316.44 1479.01 Q2318.27 1482.55 2321.88 1482.55 Q2325.52 1482.55 2327.32 1479.01 Q2329.15 1475.44 2329.15 1468.33 Q2329.15 1461.2 2327.32 1457.66 Q2325.52 1454.1 2321.88 1454.1 M2321.88 1450.39 Q2327.69 1450.39 2330.75 1455 Q2333.83 1459.58 2333.83 1468.33 Q2333.83 1477.06 2330.75 1481.67 Q2327.69 1486.25 2321.88 1486.25 Q2316.07 1486.25 2312.99 1481.67 Q2309.94 1477.06 2309.94 1468.33 Q2309.94 1459.58 2312.99 1455 Q2316.07 1450.39 2321.88 1450.39 Z" fill="#000000" fill-rule="nonzero" fill-opacity="1" /><path clip-path="url(#clip380)" d="M872.38 1520.52 L878.809 1520.52 L878.809 1562.63 L901.948 1562.63 L901.948 1568.04 L872.38 1568.04 L872.38 1520.52 Z" fill="#000000" fill-rule="nonzero" fill-opacity="1" /><path clip-path="url(#clip380)" d="M921.109 1536.5 Q916.398 1536.5 913.661 1540.19 Q910.924 1543.85 910.924 1550.25 Q910.924 1556.65 913.629 1560.34 Q916.367 1564 921.109 1564 Q925.788 1564 928.525 1560.31 Q931.262 1556.62 931.262 1550.25 Q931.262 1543.92 928.525 1540.23 Q925.788 1536.5 921.109 1536.5 M921.109 1531.54 Q928.748 1531.54 933.108 1536.5 Q937.469 1541.47 937.469 1550.25 Q937.469 1559 933.108 1564 Q928.748 1568.97 921.109 1568.97 Q913.438 1568.97 909.078 1564 Q904.749 1559 904.749 1550.25 Q904.749 1541.47 909.078 1536.5 Q913.438 1531.54 921.109 1531.54 Z" fill="#000000" fill-rule="nonzero" fill-opacity="1" /><path clip-path="url(#clip380)" d="M943.771 1532.4 L949.627 1532.4 L956.948 1560.21 L964.237 1532.4 L971.144 1532.4 L978.464 1560.21 L985.753 1532.4 L991.609 1532.4 L982.283 1568.04 L975.377 1568.04 L967.706 1538.83 L960.004 1568.04 L953.097 1568.04 L943.771 1532.4 Z" fill="#000000" fill-rule="nonzero" fill-opacity="1" /><path clip-path="url(#clip380)" d="M1030.98 1548.76 L1030.98 1551.62 L1004.05 1551.62 Q1004.44 1557.67 1007.68 1560.85 Q1010.96 1564 1016.79 1564 Q1020.16 1564 1023.31 1563.17 Q1026.49 1562.35 1029.61 1560.69 L1029.61 1566.23 Q1026.46 1567.57 1023.15 1568.27 Q1019.84 1568.97 1016.44 1568.97 Q1007.91 1568.97 1002.91 1564 Q997.943 1559.04 997.943 1550.57 Q997.943 1541.82 1002.65 1536.69 Q1007.4 1531.54 1015.42 1531.54 Q1022.61 1531.54 1026.78 1536.18 Q1030.98 1540.8 1030.98 1548.76 M1025.12 1547.04 Q1025.06 1542.23 1022.42 1539.37 Q1019.81 1536.5 1015.48 1536.5 Q1010.58 1536.5 1007.62 1539.27 Q1004.69 1542.04 1004.25 1547.07 L1025.12 1547.04 Z" fill="#000000" fill-rule="nonzero" fill-opacity="1" /><path clip-path="url(#clip380)" d="M1061.25 1537.87 Q1060.26 1537.3 1059.09 1537.04 Q1057.94 1536.76 1056.54 1536.76 Q1051.57 1536.76 1048.9 1540 Q1046.26 1543.22 1046.26 1549.27 L1046.26 1568.04 L1040.37 1568.04 L1040.37 1532.4 L1046.26 1532.4 L1046.26 1537.93 Q1048.1 1534.69 1051.06 1533.13 Q1054.03 1531.54 1058.26 1531.54 Q1058.86 1531.54 1059.59 1531.63 Q1060.33 1531.7 1061.22 1531.85 L1061.25 1537.87 Z" fill="#000000" fill-rule="nonzero" fill-opacity="1" /><path clip-path="url(#clip380)" d="M1060.26 1547.58 L1077.42 1547.58 L1077.42 1552.8 L1060.26 1552.8 L1060.26 1547.58 Z" fill="#000000" fill-rule="nonzero" fill-opacity="1" /><path clip-path="url(#clip380)" d="M1087 1520.52 L1093.43 1520.52 L1093.43 1562.63 L1116.57 1562.63 L1116.57 1568.04 L1087 1568.04 L1087 1520.52 Z" fill="#000000" fill-rule="nonzero" fill-opacity="1" /><path clip-path="url(#clip380)" d="M1152.41 1548.76 L1152.41 1551.62 L1125.48 1551.62 Q1125.86 1557.67 1129.11 1560.85 Q1132.39 1564 1138.21 1564 Q1141.59 1564 1144.74 1563.17 Q1147.92 1562.35 1151.04 1560.69 L1151.04 1566.23 Q1147.89 1567.57 1144.58 1568.27 Q1141.27 1568.97 1137.86 1568.97 Q1129.33 1568.97 1124.33 1564 Q1119.37 1559.04 1119.37 1550.57 Q1119.37 1541.82 1124.08 1536.69 Q1128.82 1531.54 1136.84 1531.54 Q1144.04 1531.54 1148.21 1536.18 Q1152.41 1540.8 1152.41 1548.76 M1146.55 1547.04 Q1146.49 1542.23 1143.85 1539.37 Q1141.24 1536.5 1136.91 1536.5 Q1132 1536.5 1129.04 1539.27 Q1126.12 1542.04 1125.67 1547.07 L1146.55 1547.04 Z" fill="#000000" fill-rule="nonzero" fill-opacity="1" /><path clip-path="url(#clip380)" d="M1157.82 1532.4 L1164.02 1532.4 L1175.16 1562.31 L1186.3 1532.4 L1192.51 1532.4 L1179.14 1568.04 L1171.19 1568.04 L1157.82 1532.4 Z" fill="#000000" fill-rule="nonzero" fill-opacity="1" /><path clip-path="url(#clip380)" d="M1231.09 1548.76 L1231.09 1551.62 L1204.16 1551.62 Q1204.54 1557.67 1207.79 1560.85 Q1211.07 1564 1216.89 1564 Q1220.27 1564 1223.42 1563.17 Q1226.6 1562.35 1229.72 1560.69 L1229.72 1566.23 Q1226.57 1567.57 1223.26 1568.27 Q1219.95 1568.97 1216.54 1568.97 Q1208.01 1568.97 1203.01 1564 Q1198.05 1559.04 1198.05 1550.57 Q1198.05 1541.82 1202.76 1536.69 Q1207.5 1531.54 1215.52 1531.54 Q1222.72 1531.54 1226.89 1536.18 Q1231.09 1540.8 1231.09 1548.76 M1225.23 1547.04 Q1225.17 1542.23 1222.53 1539.37 Q1219.92 1536.5 1215.59 1536.5 Q1210.69 1536.5 1207.72 1539.27 Q1204.8 1542.04 1204.35 1547.07 L1225.23 1547.04 Z" fill="#000000" fill-rule="nonzero" fill-opacity="1" /><path clip-path="url(#clip380)" d="M1240.7 1518.52 L1246.56 1518.52 L1246.56 1568.04 L1240.7 1568.04 L1240.7 1518.52 Z" fill="#000000" fill-rule="nonzero" fill-opacity="1" /><path clip-path="url(#clip380)" d="M1279.78 1520.52 L1286.21 1520.52 L1286.21 1562.63 L1309.35 1562.63 L1309.35 1568.04 L1279.78 1568.04 L1279.78 1520.52 Z" fill="#000000" fill-rule="nonzero" fill-opacity="1" /><path clip-path="url(#clip380)" d="M1328.51 1536.5 Q1323.8 1536.5 1321.07 1540.19 Q1318.33 1543.85 1318.33 1550.25 Q1318.33 1556.65 1321.03 1560.34 Q1323.77 1564 1328.51 1564 Q1333.19 1564 1335.93 1560.31 Q1338.67 1556.62 1338.67 1550.25 Q1338.67 1543.92 1335.93 1540.23 Q1333.19 1536.5 1328.51 1536.5 M1328.51 1531.54 Q1336.15 1531.54 1340.51 1536.5 Q1344.87 1541.47 1344.87 1550.25 Q1344.87 1559 1340.51 1564 Q1336.15 1568.97 1328.51 1568.97 Q1320.84 1568.97 1316.48 1564 Q1312.15 1559 1312.15 1550.25 Q1312.15 1541.47 1316.48 1536.5 Q1320.84 1531.54 1328.51 1531.54 Z" fill="#000000" fill-rule="nonzero" fill-opacity="1" /><path clip-path="url(#clip380)" d="M1370.78 1550.12 Q1363.68 1550.12 1360.95 1551.75 Q1358.21 1553.37 1358.21 1557.29 Q1358.21 1560.4 1360.25 1562.25 Q1362.32 1564.07 1365.85 1564.07 Q1370.72 1564.07 1373.65 1560.63 Q1376.61 1557.16 1376.61 1551.43 L1376.61 1550.12 L1370.78 1550.12 M1382.46 1547.71 L1382.46 1568.04 L1376.61 1568.04 L1376.61 1562.63 Q1374.6 1565.88 1371.61 1567.44 Q1368.62 1568.97 1364.29 1568.97 Q1358.82 1568.97 1355.57 1565.91 Q1352.35 1562.82 1352.35 1557.67 Q1352.35 1551.65 1356.36 1548.6 Q1360.41 1545.54 1368.4 1545.54 L1376.61 1545.54 L1376.61 1544.97 Q1376.61 1540.93 1373.93 1538.73 Q1371.29 1536.5 1366.49 1536.5 Q1363.43 1536.5 1360.53 1537.23 Q1357.64 1537.97 1354.96 1539.43 L1354.96 1534.02 Q1358.18 1532.78 1361.2 1532.17 Q1364.23 1531.54 1367.09 1531.54 Q1374.82 1531.54 1378.64 1535.55 Q1382.46 1539.56 1382.46 1547.71 Z" fill="#000000" fill-rule="nonzero" fill-opacity="1" /><path clip-path="url(#clip380)" d="M1417.98 1537.81 L1417.98 1518.52 L1423.84 1518.52 L1423.84 1568.04 L1417.98 1568.04 L1417.98 1562.7 Q1416.14 1565.88 1413.31 1567.44 Q1410.5 1568.97 1406.56 1568.97 Q1400.1 1568.97 1396.02 1563.81 Q1391.98 1558.65 1391.98 1550.25 Q1391.98 1541.85 1396.02 1536.69 Q1400.1 1531.54 1406.56 1531.54 Q1410.5 1531.54 1413.31 1533.1 Q1416.14 1534.62 1417.98 1537.81 M1398.03 1550.25 Q1398.03 1556.71 1400.67 1560.4 Q1403.34 1564.07 1407.99 1564.07 Q1412.64 1564.07 1415.31 1560.4 Q1417.98 1556.71 1417.98 1550.25 Q1417.98 1543.79 1415.31 1540.13 Q1412.64 1536.44 1407.99 1536.44 Q1403.34 1536.44 1400.67 1540.13 Q1398.03 1543.79 1398.03 1550.25 Z" fill="#000000" fill-rule="nonzero" fill-opacity="1" /><path clip-path="url(#clip380)" d="M1485.37 1522.08 L1485.37 1528.35 Q1481.71 1526.6 1478.46 1525.74 Q1475.21 1524.88 1472.19 1524.88 Q1466.94 1524.88 1464.07 1526.92 Q1461.24 1528.96 1461.24 1532.71 Q1461.24 1535.87 1463.12 1537.49 Q1465.03 1539.08 1470.31 1540.07 L1474.19 1540.86 Q1481.39 1542.23 1484.79 1545.7 Q1488.23 1549.14 1488.23 1554.93 Q1488.23 1561.84 1483.58 1565.4 Q1478.97 1568.97 1470.02 1568.97 Q1466.65 1568.97 1462.83 1568.2 Q1459.04 1567.44 1454.97 1565.94 L1454.97 1559.32 Q1458.88 1561.52 1462.64 1562.63 Q1466.4 1563.75 1470.02 1563.75 Q1475.53 1563.75 1478.52 1561.58 Q1481.51 1559.42 1481.51 1555.41 Q1481.51 1551.91 1479.35 1549.93 Q1477.22 1547.96 1472.32 1546.97 L1468.4 1546.21 Q1461.21 1544.78 1457.99 1541.72 Q1454.78 1538.67 1454.78 1533.22 Q1454.78 1526.92 1459.2 1523.29 Q1463.66 1519.66 1471.46 1519.66 Q1474.8 1519.66 1478.27 1520.27 Q1481.74 1520.87 1485.37 1522.08 Z" fill="#000000" fill-rule="nonzero" fill-opacity="1" /><path clip-path="url(#clip380)" d="M1527.63 1546.53 L1527.63 1568.04 L1521.78 1568.04 L1521.78 1546.72 Q1521.78 1541.66 1519.8 1539.14 Q1517.83 1536.63 1513.88 1536.63 Q1509.14 1536.63 1506.4 1539.65 Q1503.67 1542.68 1503.67 1547.9 L1503.67 1568.04 L1497.78 1568.04 L1497.78 1518.52 L1503.67 1518.52 L1503.67 1537.93 Q1505.77 1534.72 1508.6 1533.13 Q1511.46 1531.54 1515.19 1531.54 Q1521.33 1531.54 1524.48 1535.36 Q1527.63 1539.14 1527.63 1546.53 Z" fill="#000000" fill-rule="nonzero" fill-opacity="1" /><path clip-path="url(#clip380)" d="M1569.81 1548.76 L1569.81 1551.62 L1542.88 1551.62 Q1543.26 1557.67 1546.51 1560.85 Q1549.79 1564 1555.61 1564 Q1558.98 1564 1562.14 1563.17 Q1565.32 1562.35 1568.44 1560.69 L1568.44 1566.23 Q1565.29 1567.57 1561.98 1568.27 Q1558.67 1568.97 1555.26 1568.97 Q1546.73 1568.97 1541.73 1564 Q1536.77 1559.04 1536.77 1550.57 Q1536.77 1541.82 1541.48 1536.69 Q1546.22 1531.54 1554.24 1531.54 Q1561.44 1531.54 1565.61 1536.18 Q1569.81 1540.8 1569.81 1548.76 M1563.95 1547.04 Q1563.89 1542.23 1561.24 1539.37 Q1558.63 1536.5 1554.31 1536.5 Q1549.4 1536.5 1546.44 1539.27 Q1543.52 1542.04 1543.07 1547.07 L1563.95 1547.04 Z" fill="#000000" fill-rule="nonzero" fill-opacity="1" /><path clip-path="url(#clip380)" d="M1602.88 1537.81 L1602.88 1518.52 L1608.73 1518.52 L1608.73 1568.04 L1602.88 1568.04 L1602.88 1562.7 Q1601.03 1565.88 1598.2 1567.44 Q1595.4 1568.97 1591.45 1568.97 Q1584.99 1568.97 1580.91 1563.81 Q1576.87 1558.65 1576.87 1550.25 Q1576.87 1541.85 1580.91 1536.69 Q1584.99 1531.54 1591.45 1531.54 Q1595.4 1531.54 1598.2 1533.1 Q1601.03 1534.62 1602.88 1537.81 M1582.92 1550.25 Q1582.92 1556.71 1585.56 1560.4 Q1588.24 1564.07 1592.88 1564.07 Q1597.53 1564.07 1600.2 1560.4 Q1602.88 1556.71 1602.88 1550.25 Q1602.88 1543.79 1600.2 1540.13 Q1597.53 1536.44 1592.88 1536.44 Q1588.24 1536.44 1585.56 1540.13 Q1582.92 1543.79 1582.92 1550.25 Z" fill="#000000" fill-rule="nonzero" fill-opacity="1" /><path clip-path="url(#clip380)" d="M1655.58 1518.58 Q1651.32 1525.9 1649.25 1533.06 Q1647.18 1540.23 1647.18 1547.58 Q1647.18 1554.93 1649.25 1562.16 Q1651.35 1569.35 1655.58 1576.64 L1650.49 1576.64 Q1645.72 1569.16 1643.33 1561.93 Q1640.97 1554.71 1640.97 1547.58 Q1640.97 1540.48 1643.33 1533.29 Q1645.69 1526.09 1650.49 1518.58 L1655.58 1518.58 Z" fill="#000000" fill-rule="nonzero" fill-opacity="1" /><path clip-path="url(#clip380)" d="M1666.72 1518.52 L1672.61 1518.52 L1672.61 1547.77 L1690.09 1532.4 L1697.57 1532.4 L1678.66 1549.07 L1698.36 1568.04 L1690.72 1568.04 L1672.61 1550.63 L1672.61 1568.04 L1666.72 1568.04 L1666.72 1518.52 Z" fill="#000000" fill-rule="nonzero" fill-opacity="1" /><path clip-path="url(#clip380)" d="M1700.72 1520.52 L1707.21 1520.52 L1717.2 1560.69 L1727.17 1520.52 L1734.39 1520.52 L1744.39 1560.69 L1754.35 1520.52 L1760.87 1520.52 L1748.94 1568.04 L1740.85 1568.04 L1730.83 1526.79 L1720.71 1568.04 L1712.62 1568.04 L1700.72 1520.52 Z" fill="#000000" fill-rule="nonzero" fill-opacity="1" /><path clip-path="url(#clip380)" d="M1768.23 1518.58 L1773.32 1518.58 Q1778.09 1526.09 1780.45 1533.29 Q1782.83 1540.48 1782.83 1547.58 Q1782.83 1554.71 1780.45 1561.93 Q1778.09 1569.16 1773.32 1576.64 L1768.23 1576.64 Q1772.46 1569.35 1774.53 1562.16 Q1776.63 1554.93 1776.63 1547.58 Q1776.63 1540.23 1774.53 1533.06 Q1772.46 1525.9 1768.23 1518.58 Z" fill="#000000" fill-rule="nonzero" fill-opacity="1" /><polyline clip-path="url(#clip380)" style="stroke:#000000; stroke-linecap:round; stroke-linejoin:round; stroke-width:4; stroke-opacity:1; fill:none" points="302.458,1423.18 302.458,123.472 "/>
<polyline clip-path="url(#clip380)" style="stroke:#000000; stroke-linecap:round; stroke-linejoin:round; stroke-width:4; stroke-opacity:1; fill:none" points="302.458,1265 321.356,1265 "/>
<polyline clip-path="url(#clip380)" style="stroke:#000000; stroke-linecap:round; stroke-linejoin:round; stroke-width:4; stroke-opacity:1; fill:none" points="302.458,1082.76 321.356,1082.76 "/>
<polyline clip-path="url(#clip380)" style="stroke:#000000; stroke-linecap:round; stroke-linejoin:round; stroke-width:4; stroke-opacity:1; fill:none" points="302.458,900.524 321.356,900.524 "/>
<polyline clip-path="url(#clip380)" style="stroke:#000000; stroke-linecap:round; stroke-linejoin:round; stroke-width:4; stroke-opacity:1; fill:none" points="302.458,718.285 321.356,718.285 "/>
<polyline clip-path="url(#clip380)" style="stroke:#000000; stroke-linecap:round; stroke-linejoin:round; stroke-width:4; stroke-opacity:1; fill:none" points="302.458,536.047 321.356,536.047 "/>
<polyline clip-path="url(#clip380)" style="stroke:#000000; stroke-linecap:round; stroke-linejoin:round; stroke-width:4; stroke-opacity:1; fill:none" points="302.458,353.808 321.356,353.808 "/>
<polyline clip-path="url(#clip380)" style="stroke:#000000; stroke-linecap:round; stroke-linejoin:round; stroke-width:4; stroke-opacity:1; fill:none" points="302.458,171.569 321.356,171.569 "/>
<path clip-path="url(#clip380)" d="M114.26 1265.45 L143.936 1265.45 L143.936 1269.39 L114.26 1269.39 L114.26 1265.45 Z" fill="#000000" fill-rule="nonzero" fill-opacity="1" /><path clip-path="url(#clip380)" d="M168.195 1263.65 Q171.552 1264.37 173.427 1266.63 Q175.325 1268.9 175.325 1272.24 Q175.325 1277.35 171.806 1280.15 Q168.288 1282.95 161.806 1282.95 Q159.63 1282.95 157.315 1282.51 Q155.024 1282.1 152.57 1281.24 L152.57 1276.73 Q154.515 1277.86 156.829 1278.44 Q159.144 1279.02 161.667 1279.02 Q166.065 1279.02 168.357 1277.28 Q170.672 1275.55 170.672 1272.24 Q170.672 1269.18 168.519 1267.47 Q166.39 1265.73 162.57 1265.73 L158.542 1265.73 L158.542 1261.89 L162.755 1261.89 Q166.204 1261.89 168.033 1260.52 Q169.862 1259.13 169.862 1256.54 Q169.862 1253.88 167.964 1252.47 Q166.089 1251.03 162.57 1251.03 Q160.649 1251.03 158.45 1251.45 Q156.251 1251.87 153.612 1252.74 L153.612 1248.58 Q156.274 1247.84 158.589 1247.47 Q160.927 1247.1 162.987 1247.1 Q168.311 1247.1 171.413 1249.53 Q174.514 1251.93 174.514 1256.06 Q174.514 1258.93 172.871 1260.92 Q171.227 1262.88 168.195 1263.65 Z" fill="#000000" fill-rule="nonzero" fill-opacity="1" /><path clip-path="url(#clip380)" d="M194.19 1250.8 Q190.579 1250.8 188.75 1254.37 Q186.945 1257.91 186.945 1265.04 Q186.945 1272.14 188.75 1275.71 Q190.579 1279.25 194.19 1279.25 Q197.825 1279.25 199.63 1275.71 Q201.459 1272.14 201.459 1265.04 Q201.459 1257.91 199.63 1254.37 Q197.825 1250.8 194.19 1250.8 M194.19 1247.1 Q200 1247.1 203.056 1251.7 Q206.135 1256.29 206.135 1265.04 Q206.135 1273.76 203.056 1278.37 Q200 1282.95 194.19 1282.95 Q188.38 1282.95 185.301 1278.37 Q182.246 1273.76 182.246 1265.04 Q182.246 1256.29 185.301 1251.7 Q188.38 1247.1 194.19 1247.1 Z" fill="#000000" fill-rule="nonzero" fill-opacity="1" /><path clip-path="url(#clip380)" d="M224.352 1250.8 Q220.741 1250.8 218.912 1254.37 Q217.107 1257.91 217.107 1265.04 Q217.107 1272.14 218.912 1275.71 Q220.741 1279.25 224.352 1279.25 Q227.986 1279.25 229.792 1275.71 Q231.621 1272.14 231.621 1265.04 Q231.621 1257.91 229.792 1254.37 Q227.986 1250.8 224.352 1250.8 M224.352 1247.1 Q230.162 1247.1 233.218 1251.7 Q236.297 1256.29 236.297 1265.04 Q236.297 1273.76 233.218 1278.37 Q230.162 1282.95 224.352 1282.95 Q218.542 1282.95 215.463 1278.37 Q212.408 1273.76 212.408 1265.04 Q212.408 1256.29 215.463 1251.7 Q218.542 1247.1 224.352 1247.1 Z" fill="#000000" fill-rule="nonzero" fill-opacity="1" /><path clip-path="url(#clip380)" d="M254.514 1250.8 Q250.903 1250.8 249.074 1254.37 Q247.269 1257.91 247.269 1265.04 Q247.269 1272.14 249.074 1275.71 Q250.903 1279.25 254.514 1279.25 Q258.148 1279.25 259.954 1275.71 Q261.783 1272.14 261.783 1265.04 Q261.783 1257.91 259.954 1254.37 Q258.148 1250.8 254.514 1250.8 M254.514 1247.1 Q260.324 1247.1 263.38 1251.7 Q266.458 1256.29 266.458 1265.04 Q266.458 1273.76 263.38 1278.37 Q260.324 1282.95 254.514 1282.95 Q248.704 1282.95 245.625 1278.37 Q242.57 1273.76 242.57 1265.04 Q242.57 1256.29 245.625 1251.7 Q248.704 1247.1 254.514 1247.1 Z" fill="#000000" fill-rule="nonzero" fill-opacity="1" /><path clip-path="url(#clip380)" d="M114.26 1083.21 L143.936 1083.21 L143.936 1087.15 L114.26 1087.15 L114.26 1083.21 Z" fill="#000000" fill-rule="nonzero" fill-opacity="1" /><path clip-path="url(#clip380)" d="M158.056 1096.11 L174.376 1096.11 L174.376 1100.04 L152.431 1100.04 L152.431 1096.11 Q155.093 1093.35 159.677 1088.72 Q164.283 1084.07 165.464 1082.73 Q167.709 1080.21 168.589 1078.47 Q169.491 1076.71 169.491 1075.02 Q169.491 1072.27 167.547 1070.53 Q165.626 1068.79 162.524 1068.79 Q160.325 1068.79 157.871 1069.56 Q155.44 1070.32 152.663 1071.87 L152.663 1067.15 Q155.487 1066.02 157.94 1065.44 Q160.394 1064.86 162.431 1064.86 Q167.802 1064.86 170.996 1067.54 Q174.19 1070.23 174.19 1074.72 Q174.19 1076.85 173.38 1078.77 Q172.593 1080.67 170.487 1083.26 Q169.908 1083.93 166.806 1087.15 Q163.704 1090.34 158.056 1096.11 Z" fill="#000000" fill-rule="nonzero" fill-opacity="1" /><path clip-path="url(#clip380)" d="M194.19 1068.56 Q190.579 1068.56 188.75 1072.13 Q186.945 1075.67 186.945 1082.8 Q186.945 1089.9 188.75 1093.47 Q190.579 1097.01 194.19 1097.01 Q197.825 1097.01 199.63 1093.47 Q201.459 1089.9 201.459 1082.8 Q201.459 1075.67 199.63 1072.13 Q197.825 1068.56 194.19 1068.56 M194.19 1064.86 Q200 1064.86 203.056 1069.46 Q206.135 1074.05 206.135 1082.8 Q206.135 1091.52 203.056 1096.13 Q200 1100.71 194.19 1100.71 Q188.38 1100.71 185.301 1096.13 Q182.246 1091.52 182.246 1082.8 Q182.246 1074.05 185.301 1069.46 Q188.38 1064.86 194.19 1064.86 Z" fill="#000000" fill-rule="nonzero" fill-opacity="1" /><path clip-path="url(#clip380)" d="M224.352 1068.56 Q220.741 1068.56 218.912 1072.13 Q217.107 1075.67 217.107 1082.8 Q217.107 1089.9 218.912 1093.47 Q220.741 1097.01 224.352 1097.01 Q227.986 1097.01 229.792 1093.47 Q231.621 1089.9 231.621 1082.8 Q231.621 1075.67 229.792 1072.13 Q227.986 1068.56 224.352 1068.56 M224.352 1064.86 Q230.162 1064.86 233.218 1069.46 Q236.297 1074.05 236.297 1082.8 Q236.297 1091.52 233.218 1096.13 Q230.162 1100.71 224.352 1100.71 Q218.542 1100.71 215.463 1096.13 Q212.408 1091.52 212.408 1082.8 Q212.408 1074.05 215.463 1069.46 Q218.542 1064.86 224.352 1064.86 Z" fill="#000000" fill-rule="nonzero" fill-opacity="1" /><path clip-path="url(#clip380)" d="M254.514 1068.56 Q250.903 1068.56 249.074 1072.13 Q247.269 1075.67 247.269 1082.8 Q247.269 1089.9 249.074 1093.47 Q250.903 1097.01 254.514 1097.01 Q258.148 1097.01 259.954 1093.47 Q261.783 1089.9 261.783 1082.8 Q261.783 1075.67 259.954 1072.13 Q258.148 1068.56 254.514 1068.56 M254.514 1064.86 Q260.324 1064.86 263.38 1069.46 Q266.458 1074.05 266.458 1082.8 Q266.458 1091.52 263.38 1096.13 Q260.324 1100.71 254.514 1100.71 Q248.704 1100.71 245.625 1096.13 Q242.57 1091.52 242.57 1082.8 Q242.57 1074.05 245.625 1069.46 Q248.704 1064.86 254.514 1064.86 Z" fill="#000000" fill-rule="nonzero" fill-opacity="1" /><path clip-path="url(#clip380)" d="M114.26 900.976 L143.936 900.976 L143.936 904.911 L114.26 904.911 L114.26 900.976 Z" fill="#000000" fill-rule="nonzero" fill-opacity="1" /><path clip-path="url(#clip380)" d="M154.839 913.869 L162.477 913.869 L162.477 887.503 L154.167 889.17 L154.167 884.911 L162.431 883.244 L167.107 883.244 L167.107 913.869 L174.746 913.869 L174.746 917.804 L154.839 917.804 L154.839 913.869 Z" fill="#000000" fill-rule="nonzero" fill-opacity="1" /><path clip-path="url(#clip380)" d="M194.19 886.323 Q190.579 886.323 188.75 889.888 Q186.945 893.429 186.945 900.559 Q186.945 907.665 188.75 911.23 Q190.579 914.772 194.19 914.772 Q197.825 914.772 199.63 911.23 Q201.459 907.665 201.459 900.559 Q201.459 893.429 199.63 889.888 Q197.825 886.323 194.19 886.323 M194.19 882.619 Q200 882.619 203.056 887.226 Q206.135 891.809 206.135 900.559 Q206.135 909.286 203.056 913.892 Q200 918.475 194.19 918.475 Q188.38 918.475 185.301 913.892 Q182.246 909.286 182.246 900.559 Q182.246 891.809 185.301 887.226 Q188.38 882.619 194.19 882.619 Z" fill="#000000" fill-rule="nonzero" fill-opacity="1" /><path clip-path="url(#clip380)" d="M224.352 886.323 Q220.741 886.323 218.912 889.888 Q217.107 893.429 217.107 900.559 Q217.107 907.665 218.912 911.23 Q220.741 914.772 224.352 914.772 Q227.986 914.772 229.792 911.23 Q231.621 907.665 231.621 900.559 Q231.621 893.429 229.792 889.888 Q227.986 886.323 224.352 886.323 M224.352 882.619 Q230.162 882.619 233.218 887.226 Q236.297 891.809 236.297 900.559 Q236.297 909.286 233.218 913.892 Q230.162 918.475 224.352 918.475 Q218.542 918.475 215.463 913.892 Q212.408 909.286 212.408 900.559 Q212.408 891.809 215.463 887.226 Q218.542 882.619 224.352 882.619 Z" fill="#000000" fill-rule="nonzero" fill-opacity="1" /><path clip-path="url(#clip380)" d="M254.514 886.323 Q250.903 886.323 249.074 889.888 Q247.269 893.429 247.269 900.559 Q247.269 907.665 249.074 911.23 Q250.903 914.772 254.514 914.772 Q258.148 914.772 259.954 911.23 Q261.783 907.665 261.783 900.559 Q261.783 893.429 259.954 889.888 Q258.148 886.323 254.514 886.323 M254.514 882.619 Q260.324 882.619 263.38 887.226 Q266.458 891.809 266.458 900.559 Q266.458 909.286 263.38 913.892 Q260.324 918.475 254.514 918.475 Q248.704 918.475 245.625 913.892 Q242.57 909.286 242.57 900.559 Q242.57 891.809 245.625 887.226 Q248.704 882.619 254.514 882.619 Z" fill="#000000" fill-rule="nonzero" fill-opacity="1" /><path clip-path="url(#clip380)" d="M254.514 704.084 Q250.903 704.084 249.074 707.649 Q247.269 711.19 247.269 718.32 Q247.269 725.427 249.074 728.991 Q250.903 732.533 254.514 732.533 Q258.148 732.533 259.954 728.991 Q261.783 725.427 261.783 718.32 Q261.783 711.19 259.954 707.649 Q258.148 704.084 254.514 704.084 M254.514 700.38 Q260.324 700.38 263.38 704.987 Q266.458 709.57 266.458 718.32 Q266.458 727.047 263.38 731.653 Q260.324 736.237 254.514 736.237 Q248.704 736.237 245.625 731.653 Q242.57 727.047 242.57 718.32 Q242.57 709.57 245.625 704.987 Q248.704 700.38 254.514 700.38 Z" fill="#000000" fill-rule="nonzero" fill-opacity="1" /><path clip-path="url(#clip380)" d="M154.839 549.391 L162.477 549.391 L162.477 523.026 L154.167 524.692 L154.167 520.433 L162.431 518.767 L167.107 518.767 L167.107 549.391 L174.746 549.391 L174.746 553.327 L154.839 553.327 L154.839 549.391 Z" fill="#000000" fill-rule="nonzero" fill-opacity="1" /><path clip-path="url(#clip380)" d="M194.19 521.845 Q190.579 521.845 188.75 525.41 Q186.945 528.952 186.945 536.081 Q186.945 543.188 188.75 546.753 Q190.579 550.294 194.19 550.294 Q197.825 550.294 199.63 546.753 Q201.459 543.188 201.459 536.081 Q201.459 528.952 199.63 525.41 Q197.825 521.845 194.19 521.845 M194.19 518.142 Q200 518.142 203.056 522.748 Q206.135 527.331 206.135 536.081 Q206.135 544.808 203.056 549.415 Q200 553.998 194.19 553.998 Q188.38 553.998 185.301 549.415 Q182.246 544.808 182.246 536.081 Q182.246 527.331 185.301 522.748 Q188.38 518.142 194.19 518.142 Z" fill="#000000" fill-rule="nonzero" fill-opacity="1" /><path clip-path="url(#clip380)" d="M224.352 521.845 Q220.741 521.845 218.912 525.41 Q217.107 528.952 217.107 536.081 Q217.107 543.188 218.912 546.753 Q220.741 550.294 224.352 550.294 Q227.986 550.294 229.792 546.753 Q231.621 543.188 231.621 536.081 Q231.621 528.952 229.792 525.41 Q227.986 521.845 224.352 521.845 M224.352 518.142 Q230.162 518.142 233.218 522.748 Q236.297 527.331 236.297 536.081 Q236.297 544.808 233.218 549.415 Q230.162 553.998 224.352 553.998 Q218.542 553.998 215.463 549.415 Q212.408 544.808 212.408 536.081 Q212.408 527.331 215.463 522.748 Q218.542 518.142 224.352 518.142 Z" fill="#000000" fill-rule="nonzero" fill-opacity="1" /><path clip-path="url(#clip380)" d="M254.514 521.845 Q250.903 521.845 249.074 525.41 Q247.269 528.952 247.269 536.081 Q247.269 543.188 249.074 546.753 Q250.903 550.294 254.514 550.294 Q258.148 550.294 259.954 546.753 Q261.783 543.188 261.783 536.081 Q261.783 528.952 259.954 525.41 Q258.148 521.845 254.514 521.845 M254.514 518.142 Q260.324 518.142 263.38 522.748 Q266.458 527.331 266.458 536.081 Q266.458 544.808 263.38 549.415 Q260.324 553.998 254.514 553.998 Q248.704 553.998 245.625 549.415 Q242.57 544.808 242.57 536.081 Q242.57 527.331 245.625 522.748 Q248.704 518.142 254.514 518.142 Z" fill="#000000" fill-rule="nonzero" fill-opacity="1" /><path clip-path="url(#clip380)" d="M158.056 367.153 L174.376 367.153 L174.376 371.088 L152.431 371.088 L152.431 367.153 Q155.093 364.398 159.677 359.768 Q164.283 355.116 165.464 353.773 Q167.709 351.25 168.589 349.514 Q169.491 347.755 169.491 346.065 Q169.491 343.31 167.547 341.574 Q165.626 339.838 162.524 339.838 Q160.325 339.838 157.871 340.602 Q155.44 341.366 152.663 342.917 L152.663 338.194 Q155.487 337.06 157.94 336.481 Q160.394 335.903 162.431 335.903 Q167.802 335.903 170.996 338.588 Q174.19 341.273 174.19 345.764 Q174.19 347.893 173.38 349.815 Q172.593 351.713 170.487 354.305 Q169.908 354.977 166.806 358.194 Q163.704 361.389 158.056 367.153 Z" fill="#000000" fill-rule="nonzero" fill-opacity="1" /><path clip-path="url(#clip380)" d="M194.19 339.606 Q190.579 339.606 188.75 343.171 Q186.945 346.713 186.945 353.842 Q186.945 360.949 188.75 364.514 Q190.579 368.055 194.19 368.055 Q197.825 368.055 199.63 364.514 Q201.459 360.949 201.459 353.842 Q201.459 346.713 199.63 343.171 Q197.825 339.606 194.19 339.606 M194.19 335.903 Q200 335.903 203.056 340.509 Q206.135 345.093 206.135 353.842 Q206.135 362.569 203.056 367.176 Q200 371.759 194.19 371.759 Q188.38 371.759 185.301 367.176 Q182.246 362.569 182.246 353.842 Q182.246 345.093 185.301 340.509 Q188.38 335.903 194.19 335.903 Z" fill="#000000" fill-rule="nonzero" fill-opacity="1" /><path clip-path="url(#clip380)" d="M224.352 339.606 Q220.741 339.606 218.912 343.171 Q217.107 346.713 217.107 353.842 Q217.107 360.949 218.912 364.514 Q220.741 368.055 224.352 368.055 Q227.986 368.055 229.792 364.514 Q231.621 360.949 231.621 353.842 Q231.621 346.713 229.792 343.171 Q227.986 339.606 224.352 339.606 M224.352 335.903 Q230.162 335.903 233.218 340.509 Q236.297 345.093 236.297 353.842 Q236.297 362.569 233.218 367.176 Q230.162 371.759 224.352 371.759 Q218.542 371.759 215.463 367.176 Q212.408 362.569 212.408 353.842 Q212.408 345.093 215.463 340.509 Q218.542 335.903 224.352 335.903 Z" fill="#000000" fill-rule="nonzero" fill-opacity="1" /><path clip-path="url(#clip380)" d="M254.514 339.606 Q250.903 339.606 249.074 343.171 Q247.269 346.713 247.269 353.842 Q247.269 360.949 249.074 364.514 Q250.903 368.055 254.514 368.055 Q258.148 368.055 259.954 364.514 Q261.783 360.949 261.783 353.842 Q261.783 346.713 259.954 343.171 Q258.148 339.606 254.514 339.606 M254.514 335.903 Q260.324 335.903 263.38 340.509 Q266.458 345.093 266.458 353.842 Q266.458 362.569 263.38 367.176 Q260.324 371.759 254.514 371.759 Q248.704 371.759 245.625 367.176 Q242.57 362.569 242.57 353.842 Q242.57 345.093 245.625 340.509 Q248.704 335.903 254.514 335.903 Z" fill="#000000" fill-rule="nonzero" fill-opacity="1" /><path clip-path="url(#clip380)" d="M168.195 170.215 Q171.552 170.932 173.427 173.201 Q175.325 175.469 175.325 178.803 Q175.325 183.918 171.806 186.719 Q168.288 189.52 161.806 189.52 Q159.63 189.52 157.315 189.08 Q155.024 188.664 152.57 187.807 L152.57 183.293 Q154.515 184.428 156.829 185.006 Q159.144 185.585 161.667 185.585 Q166.065 185.585 168.357 183.849 Q170.672 182.113 170.672 178.803 Q170.672 175.747 168.519 174.034 Q166.39 172.298 162.57 172.298 L158.542 172.298 L158.542 168.456 L162.755 168.456 Q166.204 168.456 168.033 167.09 Q169.862 165.701 169.862 163.108 Q169.862 160.446 167.964 159.034 Q166.089 157.599 162.57 157.599 Q160.649 157.599 158.45 158.016 Q156.251 158.432 153.612 159.312 L153.612 155.145 Q156.274 154.405 158.589 154.034 Q160.927 153.664 162.987 153.664 Q168.311 153.664 171.413 156.095 Q174.514 158.502 174.514 162.622 Q174.514 165.493 172.871 167.483 Q171.227 169.451 168.195 170.215 Z" fill="#000000" fill-rule="nonzero" fill-opacity="1" /><path clip-path="url(#clip380)" d="M194.19 157.368 Q190.579 157.368 188.75 160.932 Q186.945 164.474 186.945 171.604 Q186.945 178.71 188.75 182.275 Q190.579 185.817 194.19 185.817 Q197.825 185.817 199.63 182.275 Q201.459 178.71 201.459 171.604 Q201.459 164.474 199.63 160.932 Q197.825 157.368 194.19 157.368 M194.19 153.664 Q200 153.664 203.056 158.27 Q206.135 162.854 206.135 171.604 Q206.135 180.33 203.056 184.937 Q200 189.52 194.19 189.52 Q188.38 189.52 185.301 184.937 Q182.246 180.33 182.246 171.604 Q182.246 162.854 185.301 158.27 Q188.38 153.664 194.19 153.664 Z" fill="#000000" fill-rule="nonzero" fill-opacity="1" /><path clip-path="url(#clip380)" d="M224.352 157.368 Q220.741 157.368 218.912 160.932 Q217.107 164.474 217.107 171.604 Q217.107 178.71 218.912 182.275 Q220.741 185.817 224.352 185.817 Q227.986 185.817 229.792 182.275 Q231.621 178.71 231.621 171.604 Q231.621 164.474 229.792 160.932 Q227.986 157.368 224.352 157.368 M224.352 153.664 Q230.162 153.664 233.218 158.27 Q236.297 162.854 236.297 171.604 Q236.297 180.33 233.218 184.937 Q230.162 189.52 224.352 189.52 Q218.542 189.52 215.463 184.937 Q212.408 180.33 212.408 171.604 Q212.408 162.854 215.463 158.27 Q218.542 153.664 224.352 153.664 Z" fill="#000000" fill-rule="nonzero" fill-opacity="1" /><path clip-path="url(#clip380)" d="M254.514 157.368 Q250.903 157.368 249.074 160.932 Q247.269 164.474 247.269 171.604 Q247.269 178.71 249.074 182.275 Q250.903 185.817 254.514 185.817 Q258.148 185.817 259.954 182.275 Q261.783 178.71 261.783 171.604 Q261.783 164.474 259.954 160.932 Q258.148 157.368 254.514 157.368 M254.514 153.664 Q260.324 153.664 263.38 158.27 Q266.458 162.854 266.458 171.604 Q266.458 180.33 263.38 184.937 Q260.324 189.52 254.514 189.52 Q248.704 189.52 245.625 184.937 Q242.57 180.33 242.57 171.604 Q242.57 162.854 245.625 158.27 Q248.704 153.664 254.514 153.664 Z" fill="#000000" fill-rule="nonzero" fill-opacity="1" /><path clip-path="url(#clip380)" d="M16.4842 1229.97 L16.4842 1223.51 L45.3526 1223.51 Q52.9915 1223.51 56.3653 1220.74 Q59.7073 1217.97 59.7073 1211.76 Q59.7073 1205.59 56.3653 1202.82 Q52.9915 1200.05 45.3526 1200.05 L16.4842 1200.05 L16.4842 1193.59 L46.1484 1193.59 Q55.4423 1193.59 60.1847 1198.21 Q64.9272 1202.79 64.9272 1211.76 Q64.9272 1220.77 60.1847 1225.39 Q55.4423 1229.97 46.1484 1229.97 L16.4842 1229.97 Z" fill="#000000" fill-rule="nonzero" fill-opacity="1" /><path clip-path="url(#clip380)" d="M58.657 1176.12 L77.5631 1176.12 L77.5631 1182 L28.3562 1182 L28.3562 1176.12 L33.7671 1176.12 Q30.5842 1174.27 29.0564 1171.47 Q27.4968 1168.64 27.4968 1164.72 Q27.4968 1158.23 32.6531 1154.19 Q37.8093 1150.11 46.212 1150.11 Q54.6147 1150.11 59.771 1154.19 Q64.9272 1158.23 64.9272 1164.72 Q64.9272 1168.64 63.3994 1171.47 Q61.8398 1174.27 58.657 1176.12 M46.212 1156.19 Q39.7508 1156.19 36.0905 1158.87 Q32.3984 1161.51 32.3984 1166.15 Q32.3984 1170.8 36.0905 1173.47 Q39.7508 1176.12 46.212 1176.12 Q52.6732 1176.12 56.3653 1173.47 Q60.0256 1170.8 60.0256 1166.15 Q60.0256 1161.51 56.3653 1158.87 Q52.6732 1156.19 46.212 1156.19 Z" fill="#000000" fill-rule="nonzero" fill-opacity="1" /><path clip-path="url(#clip380)" d="M58.657 1134.74 L77.5631 1134.74 L77.5631 1140.63 L28.3562 1140.63 L28.3562 1134.74 L33.7671 1134.74 Q30.5842 1132.89 29.0564 1130.09 Q27.4968 1127.26 27.4968 1123.34 Q27.4968 1116.85 32.6531 1112.81 Q37.8093 1108.74 46.212 1108.74 Q54.6147 1108.74 59.771 1112.81 Q64.9272 1116.85 64.9272 1123.34 Q64.9272 1127.26 63.3994 1130.09 Q61.8398 1132.89 58.657 1134.74 M46.212 1114.81 Q39.7508 1114.81 36.0905 1117.49 Q32.3984 1120.13 32.3984 1124.78 Q32.3984 1129.42 36.0905 1132.1 Q39.7508 1134.74 46.212 1134.74 Q52.6732 1134.74 56.3653 1132.1 Q60.0256 1129.42 60.0256 1124.78 Q60.0256 1120.13 56.3653 1117.49 Q52.6732 1114.81 46.212 1114.81 Z" fill="#000000" fill-rule="nonzero" fill-opacity="1" /><path clip-path="url(#clip380)" d="M44.7161 1068.54 L47.5806 1068.54 L47.5806 1095.46 Q53.6281 1095.08 56.8109 1091.83 Q59.9619 1088.56 59.9619 1082.73 Q59.9619 1079.36 59.1344 1076.21 Q58.3069 1073.02 56.6518 1069.9 L62.1899 1069.9 Q63.5267 1073.06 64.227 1076.37 Q64.9272 1079.68 64.9272 1083.08 Q64.9272 1091.61 59.9619 1096.61 Q54.9967 1101.57 46.5303 1101.57 Q37.7774 1101.57 32.6531 1096.86 Q27.4968 1092.12 27.4968 1084.1 Q27.4968 1076.91 32.1438 1072.74 Q36.7589 1068.54 44.7161 1068.54 M42.9973 1074.39 Q38.1912 1074.46 35.3266 1077.1 Q32.4621 1079.71 32.4621 1084.04 Q32.4621 1088.94 35.2312 1091.9 Q38.0002 1094.83 43.0292 1095.27 L42.9973 1074.39 Z" fill="#000000" fill-rule="nonzero" fill-opacity="1" /><path clip-path="url(#clip380)" d="M33.8307 1038.27 Q33.2578 1039.25 33.0032 1040.43 Q32.7167 1041.58 32.7167 1042.98 Q32.7167 1047.94 35.9632 1050.62 Q39.1779 1053.26 45.2253 1053.26 L64.0042 1053.26 L64.0042 1059.15 L28.3562 1059.15 L28.3562 1053.26 L33.8944 1053.26 Q30.6479 1051.41 29.0883 1048.45 Q27.4968 1045.49 27.4968 1041.26 Q27.4968 1040.65 27.5923 1039.92 Q27.656 1039.19 27.8151 1038.3 L33.8307 1038.27 Z" fill="#000000" fill-rule="nonzero" fill-opacity="1" /><path clip-path="url(#clip380)" d="M43.5384 1039.25 L43.5384 1022.1 L48.7583 1022.1 L48.7583 1039.25 L43.5384 1039.25 Z" fill="#000000" fill-rule="nonzero" fill-opacity="1" /><path clip-path="url(#clip380)" d="M16.4842 1012.52 L16.4842 1006.09 L58.5933 1006.09 L58.5933 982.949 L64.0042 982.949 L64.0042 1012.52 L16.4842 1012.52 Z" fill="#000000" fill-rule="nonzero" fill-opacity="1" /><path clip-path="url(#clip380)" d="M44.7161 947.11 L47.5806 947.11 L47.5806 974.037 Q53.6281 973.655 56.8109 970.408 Q59.9619 967.13 59.9619 961.305 Q59.9619 957.931 59.1344 954.78 Q58.3069 951.598 56.6518 948.478 L62.1899 948.478 Q63.5267 951.629 64.227 954.94 Q64.9272 958.25 64.9272 961.655 Q64.9272 970.185 59.9619 975.183 Q54.9967 980.148 46.5303 980.148 Q37.7774 980.148 32.6531 975.437 Q27.4968 970.695 27.4968 962.674 Q27.4968 955.481 32.1438 951.311 Q36.7589 947.11 44.7161 947.11 M42.9973 952.966 Q38.1912 953.03 35.3266 955.672 Q32.4621 958.282 32.4621 962.61 Q32.4621 967.512 35.2312 970.472 Q38.0002 973.4 43.0292 973.846 L42.9973 952.966 Z" fill="#000000" fill-rule="nonzero" fill-opacity="1" /><path clip-path="url(#clip380)" d="M28.3562 941.699 L28.3562 935.492 L58.275 924.352 L28.3562 913.212 L28.3562 907.006 L64.0042 920.374 L64.0042 928.331 L28.3562 941.699 Z" fill="#000000" fill-rule="nonzero" fill-opacity="1" /><path clip-path="url(#clip380)" d="M44.7161 868.43 L47.5806 868.43 L47.5806 895.357 Q53.6281 894.975 56.8109 891.728 Q59.9619 888.45 59.9619 882.625 Q59.9619 879.251 59.1344 876.1 Q58.3069 872.917 56.6518 869.798 L62.1899 869.798 Q63.5267 872.949 64.227 876.259 Q64.9272 879.57 64.9272 882.975 Q64.9272 891.505 59.9619 896.502 Q54.9967 901.468 46.5303 901.468 Q37.7774 901.468 32.6531 896.757 Q27.4968 892.015 27.4968 883.994 Q27.4968 876.801 32.1438 872.631 Q36.7589 868.43 44.7161 868.43 M42.9973 874.286 Q38.1912 874.35 35.3266 876.992 Q32.4621 879.601 32.4621 883.93 Q32.4621 888.832 35.2312 891.792 Q38.0002 894.72 43.0292 895.166 L42.9973 874.286 Z" fill="#000000" fill-rule="nonzero" fill-opacity="1" /><path clip-path="url(#clip380)" d="M14.479 858.817 L14.479 852.961 L64.0042 852.961 L64.0042 858.817 L14.479 858.817 Z" fill="#000000" fill-rule="nonzero" fill-opacity="1" /><path clip-path="url(#clip380)" d="M16.4842 819.732 L16.4842 813.303 L58.5933 813.303 L58.5933 790.163 L64.0042 790.163 L64.0042 819.732 L16.4842 819.732 Z" fill="#000000" fill-rule="nonzero" fill-opacity="1" /><path clip-path="url(#clip380)" d="M32.4621 771.003 Q32.4621 775.713 36.1542 778.45 Q39.8145 781.188 46.212 781.188 Q52.6095 781.188 56.3017 778.482 Q59.9619 775.745 59.9619 771.003 Q59.9619 766.324 56.2698 763.586 Q52.5777 760.849 46.212 760.849 Q39.8781 760.849 36.186 763.586 Q32.4621 766.324 32.4621 771.003 M27.4968 771.003 Q27.4968 763.364 32.4621 759.003 Q37.4273 754.643 46.212 754.643 Q54.9649 754.643 59.9619 759.003 Q64.9272 763.364 64.9272 771.003 Q64.9272 778.673 59.9619 783.034 Q54.9649 787.362 46.212 787.362 Q37.4273 787.362 32.4621 783.034 Q27.4968 778.673 27.4968 771.003 Z" fill="#000000" fill-rule="nonzero" fill-opacity="1" /><path clip-path="url(#clip380)" d="M46.0847 728.734 Q46.0847 735.832 47.7079 738.569 Q49.3312 741.306 53.2461 741.306 Q56.3653 741.306 58.2114 739.269 Q60.0256 737.201 60.0256 733.668 Q60.0256 728.798 56.5881 725.87 Q53.1188 722.91 47.3897 722.91 L46.0847 722.91 L46.0847 728.734 M43.6657 717.053 L64.0042 717.053 L64.0042 722.91 L58.5933 722.91 Q61.8398 724.915 63.3994 727.907 Q64.9272 730.899 64.9272 735.227 Q64.9272 740.702 61.8716 743.948 Q58.7843 747.163 53.6281 747.163 Q47.6125 747.163 44.5569 743.153 Q41.5014 739.11 41.5014 731.121 L41.5014 722.91 L40.9285 722.91 Q36.8862 722.91 34.6901 725.583 Q32.4621 728.225 32.4621 733.031 Q32.4621 736.087 33.1941 738.983 Q33.9262 741.879 35.3903 744.553 L29.9795 744.553 Q28.7381 741.338 28.1334 738.315 Q27.4968 735.291 27.4968 732.426 Q27.4968 724.692 31.5072 720.873 Q35.5176 717.053 43.6657 717.053 Z" fill="#000000" fill-rule="nonzero" fill-opacity="1" /><path clip-path="url(#clip380)" d="M33.7671 681.532 L14.479 681.532 L14.479 675.676 L64.0042 675.676 L64.0042 681.532 L58.657 681.532 Q61.8398 683.379 63.3994 686.211 Q64.9272 689.012 64.9272 692.959 Q64.9272 699.42 59.771 703.494 Q54.6147 707.536 46.212 707.536 Q37.8093 707.536 32.6531 703.494 Q27.4968 699.42 27.4968 692.959 Q27.4968 689.012 29.0564 686.211 Q30.5842 683.379 33.7671 681.532 M46.212 701.489 Q52.6732 701.489 56.3653 698.847 Q60.0256 696.174 60.0256 691.527 Q60.0256 686.88 56.3653 684.206 Q52.6732 681.532 46.212 681.532 Q39.7508 681.532 36.0905 684.206 Q32.3984 686.88 32.3984 691.527 Q32.3984 696.174 36.0905 698.847 Q39.7508 701.489 46.212 701.489 Z" fill="#000000" fill-rule="nonzero" fill-opacity="1" /><path clip-path="url(#clip380)" d="M18.0438 614.151 L24.314 614.151 Q22.5634 617.812 21.704 621.058 Q20.8447 624.305 20.8447 627.329 Q20.8447 632.58 22.8817 635.445 Q24.9187 638.278 28.6745 638.278 Q31.8255 638.278 33.4488 636.4 Q35.0402 634.49 36.0269 629.206 L36.8226 625.323 Q38.1912 618.13 41.6605 614.724 Q45.098 611.287 50.8908 611.287 Q57.7976 611.287 61.3624 615.934 Q64.9272 620.549 64.9272 629.493 Q64.9272 632.867 64.1633 636.686 Q63.3994 640.474 61.9035 644.548 L55.2831 644.548 Q57.4793 640.633 58.5933 636.877 Q59.7073 633.121 59.7073 629.493 Q59.7073 623.987 57.543 620.995 Q55.3786 618.003 51.3682 618.003 Q47.8671 618.003 45.8937 620.167 Q43.9204 622.3 42.9337 627.201 L42.1698 631.116 Q40.7375 638.309 37.682 641.524 Q34.6264 644.739 29.1837 644.739 Q22.8817 644.739 19.2532 640.315 Q15.6248 635.859 15.6248 628.061 Q15.6248 624.719 16.2295 621.249 Q16.8343 617.78 18.0438 614.151 Z" fill="#000000" fill-rule="nonzero" fill-opacity="1" /><path clip-path="url(#clip380)" d="M42.4881 571.883 L64.0042 571.883 L64.0042 577.74 L42.679 577.74 Q37.6183 577.74 35.1038 579.713 Q32.5894 581.686 32.5894 585.633 Q32.5894 590.376 35.6131 593.113 Q38.6368 595.85 43.8567 595.85 L64.0042 595.85 L64.0042 601.738 L14.479 601.738 L14.479 595.85 L33.8944 595.85 Q30.6797 593.749 29.0883 590.917 Q27.4968 588.052 27.4968 584.328 Q27.4968 578.185 31.3163 575.034 Q35.1038 571.883 42.4881 571.883 Z" fill="#000000" fill-rule="nonzero" fill-opacity="1" /><path clip-path="url(#clip380)" d="M44.7161 529.71 L47.5806 529.71 L47.5806 556.637 Q53.6281 556.255 56.8109 553.009 Q59.9619 549.731 59.9619 543.906 Q59.9619 540.532 59.1344 537.381 Q58.3069 534.198 56.6518 531.079 L62.1899 531.079 Q63.5267 534.23 64.227 537.54 Q64.9272 540.85 64.9272 544.256 Q64.9272 552.786 59.9619 557.783 Q54.9967 562.748 46.5303 562.748 Q37.7774 562.748 32.6531 558.038 Q27.4968 553.295 27.4968 545.275 Q27.4968 538.081 32.1438 533.912 Q36.7589 529.71 44.7161 529.71 M42.9973 535.567 Q38.1912 535.63 35.3266 538.272 Q32.4621 540.882 32.4621 545.211 Q32.4621 550.112 35.2312 553.073 Q38.0002 556.001 43.0292 556.446 L42.9973 535.567 Z" fill="#000000" fill-rule="nonzero" fill-opacity="1" /><path clip-path="url(#clip380)" d="M33.7671 496.641 L14.479 496.641 L14.479 490.784 L64.0042 490.784 L64.0042 496.641 L58.657 496.641 Q61.8398 498.487 63.3994 501.319 Q64.9272 504.12 64.9272 508.067 Q64.9272 514.528 59.771 518.602 Q54.6147 522.644 46.212 522.644 Q37.8093 522.644 32.6531 518.602 Q27.4968 514.528 27.4968 508.067 Q27.4968 504.12 29.0564 501.319 Q30.5842 498.487 33.7671 496.641 M46.212 516.597 Q52.6732 516.597 56.3653 513.955 Q60.0256 511.282 60.0256 506.635 Q60.0256 501.988 56.3653 499.314 Q52.6732 496.641 46.212 496.641 Q39.7508 496.641 36.0905 499.314 Q32.3984 501.988 32.3984 506.635 Q32.3984 511.282 36.0905 513.955 Q39.7508 516.597 46.212 516.597 Z" fill="#000000" fill-rule="nonzero" fill-opacity="1" /><path clip-path="url(#clip380)" d="M14.5426 443.932 Q21.8632 448.198 29.0246 450.266 Q36.186 452.335 43.5384 452.335 Q50.8908 452.335 58.1159 450.266 Q65.3091 448.166 72.5979 443.932 L72.5979 449.025 Q65.1182 453.799 57.8931 456.186 Q50.668 458.542 43.5384 458.542 Q36.4406 458.542 29.2474 456.186 Q22.0542 453.831 14.5426 449.025 L14.5426 443.932 Z" fill="#000000" fill-rule="nonzero" fill-opacity="1" /><path clip-path="url(#clip380)" d="M14.479 432.793 L14.479 426.904 L43.7294 426.904 L28.3562 409.43 L28.3562 401.951 L45.0344 420.857 L64.0042 401.155 L64.0042 408.794 L46.5939 426.904 L64.0042 426.904 L64.0042 432.793 L14.479 432.793 Z" fill="#000000" fill-rule="nonzero" fill-opacity="1" /><path clip-path="url(#clip380)" d="M16.4842 398.8 L16.4842 392.307 L56.6518 382.312 L16.4842 372.35 L16.4842 365.125 L56.6518 355.131 L16.4842 345.169 L16.4842 338.644 L64.0042 350.579 L64.0042 358.664 L22.7544 368.69 L64.0042 378.811 L64.0042 386.896 L16.4842 398.8 Z" fill="#000000" fill-rule="nonzero" fill-opacity="1" /><path clip-path="url(#clip380)" d="M14.5426 331.291 L14.5426 326.199 Q22.0542 321.424 29.2474 319.069 Q36.4406 316.682 43.5384 316.682 Q50.668 316.682 57.8931 319.069 Q65.1182 321.424 72.5979 326.199 L72.5979 331.291 Q65.3091 327.058 58.1159 324.989 Q50.8908 322.889 43.5384 322.889 Q36.186 322.889 29.0246 324.989 Q21.8632 327.058 14.5426 331.291 Z" fill="#000000" fill-rule="nonzero" fill-opacity="1" /><path clip-path="url(#clip380)" d="M611.225 12.096 L619.408 12.096 L619.408 65.6895 L648.858 65.6895 L648.858 72.576 L611.225 72.576 L611.225 12.096 Z" fill="#000000" fill-rule="nonzero" fill-opacity="1" /><path clip-path="url(#clip380)" d="M673.244 32.4315 Q667.249 32.4315 663.765 37.1306 Q660.281 41.7891 660.281 49.9314 Q660.281 58.0738 663.725 62.7728 Q667.209 67.4314 673.244 67.4314 Q679.199 67.4314 682.683 62.7323 Q686.167 58.0333 686.167 49.9314 Q686.167 41.8701 682.683 37.1711 Q679.199 32.4315 673.244 32.4315 M673.244 26.1121 Q682.967 26.1121 688.516 32.4315 Q694.066 38.7509 694.066 49.9314 Q694.066 61.0714 688.516 67.4314 Q682.967 73.7508 673.244 73.7508 Q663.482 73.7508 657.932 67.4314 Q652.423 61.0714 652.423 49.9314 Q652.423 38.7509 657.932 32.4315 Q663.482 26.1121 673.244 26.1121 Z" fill="#000000" fill-rule="nonzero" fill-opacity="1" /><path clip-path="url(#clip380)" d="M727.04 49.7694 Q718.007 49.7694 714.523 51.8354 Q711.039 53.9013 711.039 58.8839 Q711.039 62.8538 713.632 65.2034 Q716.265 67.5124 720.761 67.5124 Q726.959 67.5124 730.686 63.1374 Q734.454 58.7219 734.454 51.4303 L734.454 49.7694 L727.04 49.7694 M741.907 46.6907 L741.907 72.576 L734.454 72.576 L734.454 65.6895 Q731.901 69.8214 728.094 71.8063 Q724.286 73.7508 718.777 73.7508 Q711.809 73.7508 707.677 69.8619 Q703.586 65.9325 703.586 59.3701 Q703.586 51.7138 708.69 47.825 Q713.834 43.9361 724.002 43.9361 L734.454 43.9361 L734.454 43.2069 Q734.454 38.0623 731.051 35.2672 Q727.689 32.4315 721.572 32.4315 Q717.683 32.4315 713.996 33.3632 Q710.31 34.295 706.907 36.1584 L706.907 29.2718 Q710.999 27.692 714.847 26.9223 Q718.695 26.1121 722.341 26.1121 Q732.185 26.1121 737.046 31.2163 Q741.907 36.3204 741.907 46.6907 Z" fill="#000000" fill-rule="nonzero" fill-opacity="1" /><path clip-path="url(#clip380)" d="M787.115 34.0924 L787.115 9.54393 L794.569 9.54393 L794.569 72.576 L787.115 72.576 L787.115 65.7705 Q784.766 69.8214 781.16 71.8063 Q777.596 73.7508 772.573 73.7508 Q764.349 73.7508 759.164 67.1883 Q754.019 60.6258 754.019 49.9314 Q754.019 39.2371 759.164 32.6746 Q764.349 26.1121 772.573 26.1121 Q777.596 26.1121 781.16 28.0971 Q784.766 30.0415 787.115 34.0924 M761.716 49.9314 Q761.716 58.1548 765.078 62.8538 Q768.481 67.5124 774.395 67.5124 Q780.31 67.5124 783.713 62.8538 Q787.115 58.1548 787.115 49.9314 Q787.115 41.7081 783.713 37.0496 Q780.31 32.3505 774.395 32.3505 Q768.481 32.3505 765.078 37.0496 Q761.716 41.7081 761.716 49.9314 Z" fill="#000000" fill-rule="nonzero" fill-opacity="1" /><path clip-path="url(#clip380)" d="M872.873 14.0809 L872.873 22.0612 Q868.214 19.8332 864.082 18.7395 Q859.951 17.6457 856.102 17.6457 Q849.418 17.6457 845.772 20.2383 Q842.167 22.8309 842.167 27.611 Q842.167 31.6214 844.557 33.6873 Q846.988 35.7128 853.712 36.9686 L858.654 37.9813 Q867.809 39.7232 872.144 44.1387 Q876.519 48.5136 876.519 55.8863 Q876.519 64.6767 870.604 69.2137 Q864.731 73.7508 853.348 73.7508 Q849.054 73.7508 844.193 72.7785 Q839.372 71.8063 834.187 69.9024 L834.187 61.4765 Q839.169 64.2716 843.949 65.6895 Q848.73 67.1073 853.348 67.1073 Q860.356 67.1073 864.163 64.3527 Q867.971 61.598 867.971 56.4939 Q867.971 52.0379 865.217 49.5264 Q862.503 47.0148 856.264 45.759 L851.282 44.7868 Q842.127 42.9639 838.035 39.075 Q833.944 35.1862 833.944 28.2591 Q833.944 20.2383 839.574 15.6203 Q845.246 11.0023 855.17 11.0023 Q859.424 11.0023 863.839 11.7719 Q868.255 12.5416 872.873 14.0809 Z" fill="#000000" fill-rule="nonzero" fill-opacity="1" /><path clip-path="url(#clip380)" d="M926.669 45.1919 L926.669 72.576 L919.215 72.576 L919.215 45.4349 Q919.215 38.994 916.704 35.7938 Q914.192 32.5936 909.169 32.5936 Q903.133 32.5936 899.649 36.4419 Q896.166 40.2903 896.166 46.9338 L896.166 72.576 L888.671 72.576 L888.671 9.54393 L896.166 9.54393 L896.166 34.2544 Q898.839 30.163 902.445 28.1376 Q906.09 26.1121 910.83 26.1121 Q918.648 26.1121 922.659 30.9732 Q926.669 35.7938 926.669 45.1919 Z" fill="#000000" fill-rule="nonzero" fill-opacity="1" /><path clip-path="url(#clip380)" d="M980.343 48.0275 L980.343 51.6733 L946.073 51.6733 Q946.559 59.3701 950.691 63.421 Q954.863 67.4314 962.276 67.4314 Q966.57 67.4314 970.581 66.3781 Q974.632 65.3249 978.602 63.2184 L978.602 70.267 Q974.591 71.9684 970.378 72.8596 Q966.165 73.7508 961.831 73.7508 Q950.974 73.7508 944.614 67.4314 Q938.295 61.1119 938.295 50.3365 Q938.295 39.1965 944.29 32.6746 Q950.326 26.1121 960.534 26.1121 Q969.69 26.1121 974.996 32.0264 Q980.343 37.9003 980.343 48.0275 M972.89 45.84 Q972.809 39.7232 969.446 36.0774 Q966.125 32.4315 960.615 32.4315 Q954.377 32.4315 950.61 35.9558 Q946.883 39.4801 946.316 45.8805 L972.89 45.84 Z" fill="#000000" fill-rule="nonzero" fill-opacity="1" /><path clip-path="url(#clip380)" d="M1022.43 34.0924 L1022.43 9.54393 L1029.89 9.54393 L1029.89 72.576 L1022.43 72.576 L1022.43 65.7705 Q1020.08 69.8214 1016.48 71.8063 Q1012.91 73.7508 1007.89 73.7508 Q999.666 73.7508 994.481 67.1883 Q989.336 60.6258 989.336 49.9314 Q989.336 39.2371 994.481 32.6746 Q999.666 26.1121 1007.89 26.1121 Q1012.91 26.1121 1016.48 28.0971 Q1020.08 30.0415 1022.43 34.0924 M997.033 49.9314 Q997.033 58.1548 1000.4 62.8538 Q1003.8 67.5124 1009.71 67.5124 Q1015.63 67.5124 1019.03 62.8538 Q1022.43 58.1548 1022.43 49.9314 Q1022.43 41.7081 1019.03 37.0496 Q1015.63 32.3505 1009.71 32.3505 Q1003.8 32.3505 1000.4 37.0496 Q997.033 41.7081 997.033 49.9314 Z" fill="#000000" fill-rule="nonzero" fill-opacity="1" /><path clip-path="url(#clip380)" d="M1117.22 16.7545 L1117.22 25.383 Q1113.09 21.5346 1108.39 19.6307 Q1103.73 17.7268 1098.47 17.7268 Q1088.1 17.7268 1082.59 24.0867 Q1077.08 30.4061 1077.08 42.3968 Q1077.08 54.3469 1082.59 60.7069 Q1088.1 67.0263 1098.47 67.0263 Q1103.73 67.0263 1108.39 65.1223 Q1113.09 63.2184 1117.22 59.3701 L1117.22 67.9175 Q1112.93 70.8341 1108.11 72.2924 Q1103.33 73.7508 1097.98 73.7508 Q1084.25 73.7508 1076.35 65.3654 Q1068.45 56.9395 1068.45 42.3968 Q1068.45 27.8135 1076.35 19.4281 Q1084.25 11.0023 1097.98 11.0023 Q1103.41 11.0023 1108.19 12.4606 Q1113.01 13.8784 1117.22 16.7545 Z" fill="#000000" fill-rule="nonzero" fill-opacity="1" /><path clip-path="url(#clip380)" d="M1147.12 32.4315 Q1141.12 32.4315 1137.64 37.1306 Q1134.16 41.7891 1134.16 49.9314 Q1134.16 58.0738 1137.6 62.7728 Q1141.08 67.4314 1147.12 67.4314 Q1153.07 67.4314 1156.56 62.7323 Q1160.04 58.0333 1160.04 49.9314 Q1160.04 41.8701 1156.56 37.1711 Q1153.07 32.4315 1147.12 32.4315 M1147.12 26.1121 Q1156.84 26.1121 1162.39 32.4315 Q1167.94 38.7509 1167.94 49.9314 Q1167.94 61.0714 1162.39 67.4314 Q1156.84 73.7508 1147.12 73.7508 Q1137.36 73.7508 1131.81 67.4314 Q1126.3 61.0714 1126.3 49.9314 Q1126.3 38.7509 1131.81 32.4315 Q1137.36 26.1121 1147.12 26.1121 Z" fill="#000000" fill-rule="nonzero" fill-opacity="1" /><path clip-path="url(#clip380)" d="M1215.62 35.9153 Q1218.42 30.8922 1222.3 28.5022 Q1226.19 26.1121 1231.46 26.1121 Q1238.55 26.1121 1242.4 31.0947 Q1246.24 36.0368 1246.24 45.1919 L1246.24 72.576 L1238.75 72.576 L1238.75 45.4349 Q1238.75 38.913 1236.44 35.7533 Q1234.13 32.5936 1229.39 32.5936 Q1223.6 32.5936 1220.24 36.4419 Q1216.88 40.2903 1216.88 46.9338 L1216.88 72.576 L1209.38 72.576 L1209.38 45.4349 Q1209.38 38.8725 1207.07 35.7533 Q1204.76 32.5936 1199.94 32.5936 Q1194.23 32.5936 1190.87 36.4824 Q1187.51 40.3308 1187.51 46.9338 L1187.51 72.576 L1180.01 72.576 L1180.01 27.2059 L1187.51 27.2059 L1187.51 34.2544 Q1190.06 30.082 1193.62 28.0971 Q1197.19 26.1121 1202.09 26.1121 Q1207.03 26.1121 1210.48 28.6237 Q1213.96 31.1352 1215.62 35.9153 Z" fill="#000000" fill-rule="nonzero" fill-opacity="1" /><path clip-path="url(#clip380)" d="M1268.32 65.7705 L1268.32 89.8329 L1260.83 89.8329 L1260.83 27.2059 L1268.32 27.2059 L1268.32 34.0924 Q1270.67 30.0415 1274.24 28.0971 Q1277.84 26.1121 1282.82 26.1121 Q1291.09 26.1121 1296.23 32.6746 Q1301.42 39.2371 1301.42 49.9314 Q1301.42 60.6258 1296.23 67.1883 Q1291.09 73.7508 1282.82 73.7508 Q1277.84 73.7508 1274.24 71.8063 Q1270.67 69.8214 1268.32 65.7705 M1293.68 49.9314 Q1293.68 41.7081 1290.28 37.0496 Q1286.92 32.3505 1281 32.3505 Q1275.09 32.3505 1271.68 37.0496 Q1268.32 41.7081 1268.32 49.9314 Q1268.32 58.1548 1271.68 62.8538 Q1275.09 67.5124 1281 67.5124 Q1286.92 67.5124 1290.28 62.8538 Q1293.68 58.1548 1293.68 49.9314 Z" fill="#000000" fill-rule="nonzero" fill-opacity="1" /><path clip-path="url(#clip380)" d="M1334.39 49.7694 Q1325.36 49.7694 1321.88 51.8354 Q1318.39 53.9013 1318.39 58.8839 Q1318.39 62.8538 1320.98 65.2034 Q1323.62 67.5124 1328.11 67.5124 Q1334.31 67.5124 1338.04 63.1374 Q1341.81 58.7219 1341.81 51.4303 L1341.81 49.7694 L1334.39 49.7694 M1349.26 46.6907 L1349.26 72.576 L1341.81 72.576 L1341.81 65.6895 Q1339.25 69.8214 1335.45 71.8063 Q1331.64 73.7508 1326.13 73.7508 Q1319.16 73.7508 1315.03 69.8619 Q1310.94 65.9325 1310.94 59.3701 Q1310.94 51.7138 1316.04 47.825 Q1321.19 43.9361 1331.35 43.9361 L1341.81 43.9361 L1341.81 43.2069 Q1341.81 38.0623 1338.4 35.2672 Q1335.04 32.4315 1328.92 32.4315 Q1325.03 32.4315 1321.35 33.3632 Q1317.66 34.295 1314.26 36.1584 L1314.26 29.2718 Q1318.35 27.692 1322.2 26.9223 Q1326.05 26.1121 1329.69 26.1121 Q1339.54 26.1121 1344.4 31.2163 Q1349.26 36.3204 1349.26 46.6907 Z" fill="#000000" fill-rule="nonzero" fill-opacity="1" /><path clip-path="url(#clip380)" d="M1390.9 34.1734 Q1389.65 33.4443 1388.15 33.1202 Q1386.69 32.7556 1384.91 32.7556 Q1378.59 32.7556 1375.19 36.8875 Q1371.82 40.9789 1371.82 48.6757 L1371.82 72.576 L1364.33 72.576 L1364.33 27.2059 L1371.82 27.2059 L1371.82 34.2544 Q1374.17 30.1225 1377.94 28.1376 Q1381.71 26.1121 1387.09 26.1121 Q1387.86 26.1121 1388.8 26.2337 Q1389.73 26.3147 1390.86 26.5172 L1390.9 34.1734 Z" fill="#000000" fill-rule="nonzero" fill-opacity="1" /><path clip-path="url(#clip380)" d="M1398.72 27.2059 L1406.17 27.2059 L1406.17 72.576 L1398.72 72.576 L1398.72 27.2059 M1398.72 9.54393 L1406.17 9.54393 L1406.17 18.9825 L1398.72 18.9825 L1398.72 9.54393 Z" fill="#000000" fill-rule="nonzero" fill-opacity="1" /><path clip-path="url(#clip380)" d="M1450.69 28.5427 L1450.69 35.5912 Q1447.53 33.9709 1444.13 33.1607 Q1440.73 32.3505 1437.08 32.3505 Q1431.53 32.3505 1428.74 34.0519 Q1425.98 35.7533 1425.98 39.156 Q1425.98 41.7486 1427.97 43.2475 Q1429.95 44.7058 1435.95 46.0426 L1438.5 46.6097 Q1446.44 48.3111 1449.76 51.4303 Q1453.12 54.509 1453.12 60.0587 Q1453.12 66.3781 1448.1 70.0644 Q1443.12 73.7508 1434.37 73.7508 Q1430.72 73.7508 1426.75 73.0216 Q1422.82 72.3329 1418.45 70.9151 L1418.45 63.2184 Q1422.58 65.3654 1426.59 66.4591 Q1430.6 67.5124 1434.53 67.5124 Q1439.8 67.5124 1442.63 65.73 Q1445.47 63.9071 1445.47 60.6258 Q1445.47 57.5877 1443.4 55.9673 Q1441.38 54.3469 1434.45 52.8481 L1431.86 52.2405 Q1424.93 50.7821 1421.85 47.7845 Q1418.77 44.7463 1418.77 39.4801 Q1418.77 33.0797 1423.31 29.5959 Q1427.85 26.1121 1436.19 26.1121 Q1440.32 26.1121 1443.97 26.7198 Q1447.62 27.3274 1450.69 28.5427 Z" fill="#000000" fill-rule="nonzero" fill-opacity="1" /><path clip-path="url(#clip380)" d="M1482.57 32.4315 Q1476.58 32.4315 1473.1 37.1306 Q1469.61 41.7891 1469.61 49.9314 Q1469.61 58.0738 1473.05 62.7728 Q1476.54 67.4314 1482.57 67.4314 Q1488.53 67.4314 1492.01 62.7323 Q1495.5 58.0333 1495.5 49.9314 Q1495.5 41.8701 1492.01 37.1711 Q1488.53 32.4315 1482.57 32.4315 M1482.57 26.1121 Q1492.3 26.1121 1497.85 32.4315 Q1503.4 38.7509 1503.4 49.9314 Q1503.4 61.0714 1497.85 67.4314 Q1492.3 73.7508 1482.57 73.7508 Q1472.81 73.7508 1467.26 67.4314 Q1461.75 61.0714 1461.75 49.9314 Q1461.75 38.7509 1467.26 32.4315 Q1472.81 26.1121 1482.57 26.1121 Z" fill="#000000" fill-rule="nonzero" fill-opacity="1" /><path clip-path="url(#clip380)" d="M1553.47 45.1919 L1553.47 72.576 L1546.01 72.576 L1546.01 45.4349 Q1546.01 38.994 1543.5 35.7938 Q1540.99 32.5936 1535.97 32.5936 Q1529.93 32.5936 1526.45 36.4419 Q1522.96 40.2903 1522.96 46.9338 L1522.96 72.576 L1515.47 72.576 L1515.47 27.2059 L1522.96 27.2059 L1522.96 34.2544 Q1525.64 30.163 1529.24 28.1376 Q1532.89 26.1121 1537.63 26.1121 Q1545.44 26.1121 1549.45 30.9732 Q1553.47 35.7938 1553.47 45.1919 Z" fill="#000000" fill-rule="nonzero" fill-opacity="1" /><path clip-path="url(#clip380)" d="M1612.61 9.62495 Q1607.18 18.942 1604.55 28.0566 Q1601.91 37.1711 1601.91 46.5287 Q1601.91 55.8863 1604.55 65.0818 Q1607.22 74.2369 1612.61 83.5134 L1606.13 83.5134 Q1600.05 73.9938 1597.01 64.7983 Q1594.01 55.6027 1594.01 46.5287 Q1594.01 37.4952 1597.01 28.3401 Q1600.01 19.1851 1606.13 9.62495 L1612.61 9.62495 Z" fill="#000000" fill-rule="nonzero" fill-opacity="1" /><path clip-path="url(#clip380)" d="M1665.88 48.0275 L1665.88 51.6733 L1631.61 51.6733 Q1632.09 59.3701 1636.23 63.421 Q1640.4 67.4314 1647.81 67.4314 Q1652.1 67.4314 1656.12 66.3781 Q1660.17 65.3249 1664.14 63.2184 L1664.14 70.267 Q1660.13 71.9684 1655.91 72.8596 Q1651.7 73.7508 1647.37 73.7508 Q1636.51 73.7508 1630.15 67.4314 Q1623.83 61.1119 1623.83 50.3365 Q1623.83 39.1965 1629.82 32.6746 Q1635.86 26.1121 1646.07 26.1121 Q1655.22 26.1121 1660.53 32.0264 Q1665.88 37.9003 1665.88 48.0275 M1658.42 45.84 Q1658.34 39.7232 1654.98 36.0774 Q1651.66 32.4315 1646.15 32.4315 Q1639.91 32.4315 1636.14 35.9558 Q1632.42 39.4801 1631.85 45.8805 L1658.42 45.84 Z" fill="#000000" fill-rule="nonzero" fill-opacity="1" /><path clip-path="url(#clip380)" d="M1701.08 9.54393 L1701.08 15.7418 L1693.95 15.7418 Q1689.94 15.7418 1688.36 17.3622 Q1686.82 18.9825 1686.82 23.1955 L1686.82 27.2059 L1699.1 27.2059 L1699.1 32.9987 L1686.82 32.9987 L1686.82 72.576 L1679.33 72.576 L1679.33 32.9987 L1672.2 32.9987 L1672.2 27.2059 L1679.33 27.2059 L1679.33 24.0462 Q1679.33 16.471 1682.85 13.0277 Q1686.38 9.54393 1694.03 9.54393 L1701.08 9.54393 Z" fill="#000000" fill-rule="nonzero" fill-opacity="1" /><path clip-path="url(#clip380)" d="M1730.29 9.54393 L1730.29 15.7418 L1723.16 15.7418 Q1719.15 15.7418 1717.57 17.3622 Q1716.03 18.9825 1716.03 23.1955 L1716.03 27.2059 L1728.3 27.2059 L1728.3 32.9987 L1716.03 32.9987 L1716.03 72.576 L1708.53 72.576 L1708.53 32.9987 L1701.4 32.9987 L1701.4 27.2059 L1708.53 27.2059 L1708.53 24.0462 Q1708.53 16.471 1712.06 13.0277 Q1715.58 9.54393 1723.24 9.54393 L1730.29 9.54393 Z" fill="#000000" fill-rule="nonzero" fill-opacity="1" /><path clip-path="url(#clip380)" d="M1736.53 27.2059 L1743.98 27.2059 L1743.98 72.576 L1736.53 72.576 L1736.53 27.2059 M1736.53 9.54393 L1743.98 9.54393 L1743.98 18.9825 L1736.53 18.9825 L1736.53 9.54393 Z" fill="#000000" fill-rule="nonzero" fill-opacity="1" /><path clip-path="url(#clip380)" d="M1792.23 28.9478 L1792.23 35.9153 Q1789.07 34.1734 1785.87 33.3227 Q1782.71 32.4315 1779.47 32.4315 Q1772.21 32.4315 1768.2 37.0496 Q1764.19 41.6271 1764.19 49.9314 Q1764.19 58.2358 1768.2 62.8538 Q1772.21 67.4314 1779.47 67.4314 Q1782.71 67.4314 1785.87 66.5807 Q1789.07 65.6895 1792.23 63.9476 L1792.23 70.8341 Q1789.11 72.2924 1785.74 73.0216 Q1782.42 73.7508 1778.66 73.7508 Q1768.41 73.7508 1762.37 67.3098 Q1756.33 60.8689 1756.33 49.9314 Q1756.33 38.832 1762.41 32.472 Q1768.53 26.1121 1779.14 26.1121 Q1782.58 26.1121 1785.87 26.8413 Q1789.15 27.5299 1792.23 28.9478 Z" fill="#000000" fill-rule="nonzero" fill-opacity="1" /><path clip-path="url(#clip380)" d="M1805.19 27.2059 L1812.64 27.2059 L1812.64 72.576 L1805.19 72.576 L1805.19 27.2059 M1805.19 9.54393 L1812.64 9.54393 L1812.64 18.9825 L1805.19 18.9825 L1805.19 9.54393 Z" fill="#000000" fill-rule="nonzero" fill-opacity="1" /><path clip-path="url(#clip380)" d="M1867.05 48.0275 L1867.05 51.6733 L1832.78 51.6733 Q1833.26 59.3701 1837.39 63.421 Q1841.57 67.4314 1848.98 67.4314 Q1853.27 67.4314 1857.28 66.3781 Q1861.33 65.3249 1865.3 63.2184 L1865.3 70.267 Q1861.29 71.9684 1857.08 72.8596 Q1852.87 73.7508 1848.53 73.7508 Q1837.68 73.7508 1831.32 67.4314 Q1825 61.1119 1825 50.3365 Q1825 39.1965 1830.99 32.6746 Q1837.03 26.1121 1847.24 26.1121 Q1856.39 26.1121 1861.7 32.0264 Q1867.05 37.9003 1867.05 48.0275 M1859.59 45.84 Q1859.51 39.7232 1856.15 36.0774 Q1852.83 32.4315 1847.32 32.4315 Q1841.08 32.4315 1837.31 35.9558 Q1833.59 39.4801 1833.02 45.8805 L1859.59 45.84 Z" fill="#000000" fill-rule="nonzero" fill-opacity="1" /><path clip-path="url(#clip380)" d="M1916.99 45.1919 L1916.99 72.576 L1909.54 72.576 L1909.54 45.4349 Q1909.54 38.994 1907.03 35.7938 Q1904.52 32.5936 1899.49 32.5936 Q1893.46 32.5936 1889.97 36.4419 Q1886.49 40.2903 1886.49 46.9338 L1886.49 72.576 L1879 72.576 L1879 27.2059 L1886.49 27.2059 L1886.49 34.2544 Q1889.16 30.163 1892.77 28.1376 Q1896.41 26.1121 1901.15 26.1121 Q1908.97 26.1121 1912.98 30.9732 Q1916.99 35.7938 1916.99 45.1919 Z" fill="#000000" fill-rule="nonzero" fill-opacity="1" /><path clip-path="url(#clip380)" d="M1964.51 28.9478 L1964.51 35.9153 Q1961.35 34.1734 1958.15 33.3227 Q1954.99 32.4315 1951.75 32.4315 Q1944.5 32.4315 1940.49 37.0496 Q1936.48 41.6271 1936.48 49.9314 Q1936.48 58.2358 1940.49 62.8538 Q1944.5 67.4314 1951.75 67.4314 Q1954.99 67.4314 1958.15 66.5807 Q1961.35 65.6895 1964.51 63.9476 L1964.51 70.8341 Q1961.39 72.2924 1958.03 73.0216 Q1954.71 73.7508 1950.94 73.7508 Q1940.69 73.7508 1934.66 67.3098 Q1928.62 60.8689 1928.62 49.9314 Q1928.62 38.832 1934.7 32.472 Q1940.81 26.1121 1951.43 26.1121 Q1954.87 26.1121 1958.15 26.8413 Q1961.43 27.5299 1964.51 28.9478 Z" fill="#000000" fill-rule="nonzero" fill-opacity="1" /><path clip-path="url(#clip380)" d="M1996.35 76.7889 Q1993.19 84.8907 1990.19 87.3618 Q1987.2 89.8329 1982.17 89.8329 L1976.22 89.8329 L1976.22 83.5945 L1980.59 83.5945 Q1983.67 83.5945 1985.37 82.1361 Q1987.07 80.6778 1989.14 75.2496 L1990.48 71.8468 L1972.13 27.2059 L1980.03 27.2059 L1994.2 62.6918 L2008.38 27.2059 L2016.28 27.2059 L1996.35 76.7889 Z" fill="#000000" fill-rule="nonzero" fill-opacity="1" /><path clip-path="url(#clip380)" d="M2025.4 9.62495 L2031.88 9.62495 Q2037.95 19.1851 2040.95 28.3401 Q2043.99 37.4952 2043.99 46.5287 Q2043.99 55.6027 2040.95 64.7983 Q2037.95 73.9938 2031.88 83.5134 L2025.4 83.5134 Q2030.78 74.2369 2033.42 65.0818 Q2036.09 55.8863 2036.09 46.5287 Q2036.09 37.1711 2033.42 28.0566 Q2030.78 18.942 2025.4 9.62495 Z" fill="#000000" fill-rule="nonzero" fill-opacity="1" /><path clip-path="url(#clip382)" d="M1830.4 470.643 L1819.09 465.955 L1814.4 454.643 L1819.09 443.331 L1830.4 438.643 L1841.72 443.331 L1846.4 454.643 L1841.72 465.955 Z" fill="#009af9" fill-rule="evenodd" fill-opacity="1" stroke="#000000" stroke-opacity="1" stroke-width="3.2"/>
<path clip-path="url(#clip382)" d="M2080.11 1402.4 L2068.8 1397.71 L2064.11 1386.4 L2068.8 1375.08 L2080.11 1370.4 L2091.42 1375.08 L2096.11 1386.4 L2091.42 1397.71 Z" fill="#009af9" fill-rule="evenodd" fill-opacity="1" stroke="#000000" stroke-opacity="1" stroke-width="3.2"/>
<path clip-path="url(#clip382)" d="M2294.73 273.152 L2283.42 268.464 L2278.73 257.152 L2283.42 245.84 L2294.73 241.152 L2306.04 245.84 L2310.73 257.152 L2306.04 268.464 Z" fill="#009af9" fill-rule="evenodd" fill-opacity="1" stroke="#000000" stroke-opacity="1" stroke-width="3.2"/>
<path clip-path="url(#clip382)" d="M2088.57 309.886 L2077.26 305.198 L2072.57 293.886 L2077.26 282.574 L2088.57 277.886 L2099.89 282.574 L2104.57 293.886 L2099.89 305.198 Z" fill="#009af9" fill-rule="evenodd" fill-opacity="1" stroke="#000000" stroke-opacity="1" stroke-width="3.2"/>
<path clip-path="url(#clip382)" d="M2250.71 204.183 L2239.39 199.495 L2234.71 188.183 L2239.39 176.871 L2250.71 172.183 L2262.02 176.871 L2266.71 188.183 L2262.02 199.495 Z" fill="#009af9" fill-rule="evenodd" fill-opacity="1" stroke="#000000" stroke-opacity="1" stroke-width="3.2"/>
<polyline clip-path="url(#clip382)" style="stroke:#ff0000; stroke-linecap:round; stroke-linejoin:round; stroke-width:4; stroke-opacity:1; fill:none" stroke-dasharray="16, 10" points="360.486,1386.4 380.024,1374.01 399.561,1361.63 419.099,1349.24 438.637,1336.85 458.175,1324.47 477.713,1312.08 497.25,1299.7 516.788,1287.31 536.326,1274.93 555.864,1262.54 575.402,1250.16 594.939,1237.77 614.477,1225.39 634.015,1213 653.553,1200.62 673.091,1188.23 692.628,1175.85 712.166,1163.46 731.704,1151.08 751.242,1138.69 770.78,1126.31 790.317,1113.92 809.855,1101.54 829.393,1089.15 848.931,1076.76 868.469,1064.38 888.006,1051.99 907.544,1039.61 927.082,1027.22 946.62,1014.84 966.158,1002.45 985.696,990.068 1005.23,977.683 1024.77,965.297 1044.31,952.912 1063.85,940.527 1083.38,928.142 1102.92,915.756 1122.46,903.371 1142,890.986 1161.54,878.601 1181.07,866.215 1200.61,853.83 1220.15,841.445 1239.69,829.06 1259.22,816.674 1278.76,804.289 1298.3,791.904 1317.84,779.519 1337.38,767.133 1356.91,754.748 1376.45,742.363 1395.99,729.978 1415.53,717.592 1435.07,705.207 1454.6,692.822 1474.14,680.437 1493.68,668.051 1513.22,655.666 1532.75,643.281 1552.29,630.896 1571.83,618.51 1591.37,606.125 1610.91,593.74 1630.44,581.355 1649.98,568.969 1669.52,556.584 1689.06,544.199 1708.59,531.814 1728.13,519.428 1747.67,507.043 1767.21,494.658 1786.75,482.273 1806.28,469.887 1825.82,457.502 1845.36,445.117 1864.9,432.732 1884.43,420.346 1903.97,407.961 1923.51,395.576 1943.05,383.191 1962.59,370.805 1982.12,358.42 2001.66,346.035 2021.2,333.65 2040.74,321.265 2060.27,308.879 2079.81,296.494 2099.35,284.109 2118.89,271.724 2138.43,259.338 2157.96,246.953 2177.5,234.568 2197.04,222.183 2216.58,209.797 2236.12,197.412 2255.65,185.027 2275.19,172.642 2294.73,160.256 "/>
<path clip-path="url(#clip380)" d="M370.802 322.316 L768.238 322.316 L768.238 166.796 L370.802 166.796  Z" fill="#ffffff" fill-rule="evenodd" fill-opacity="1"/>
<polyline clip-path="url(#clip380)" style="stroke:#000000; stroke-linecap:round; stroke-linejoin:round; stroke-width:4; stroke-opacity:1; fill:none" points="370.802,322.316 768.238,322.316 768.238,166.796 370.802,166.796 370.802,322.316 "/>
<path clip-path="url(#clip380)" d="M461.926 241.391 L445.838 234.724 L439.17 218.636 L445.838 202.548 L461.926 195.88 L478.014 202.548 L484.682 218.636 L478.014 234.724 Z" fill="#009af9" fill-rule="evenodd" fill-opacity="1" stroke="#000000" stroke-opacity="1" stroke-width="4.55111"/>
<path clip-path="url(#clip380)" d="M553.05 201.356 L557.726 201.356 L557.726 235.916 L553.05 235.916 L553.05 201.356 Z" fill="#000000" fill-rule="nonzero" fill-opacity="1" /><path clip-path="url(#clip380)" d="M571.059 202.629 L571.059 209.99 L579.833 209.99 L579.833 213.3 L571.059 213.3 L571.059 227.374 Q571.059 230.545 571.916 231.448 Q572.796 232.351 575.458 232.351 L579.833 232.351 L579.833 235.916 L575.458 235.916 Q570.527 235.916 568.652 234.087 Q566.777 232.235 566.777 227.374 L566.777 213.3 L563.652 213.3 L563.652 209.99 L566.777 209.99 L566.777 202.629 L571.059 202.629 Z" fill="#000000" fill-rule="nonzero" fill-opacity="1" /><path clip-path="url(#clip380)" d="M607.61 221.888 L607.61 223.971 L588.027 223.971 Q588.305 228.369 590.666 230.684 Q593.05 232.976 597.286 232.976 Q599.74 232.976 602.032 232.374 Q604.346 231.772 606.615 230.569 L606.615 234.596 Q604.323 235.568 601.916 236.078 Q599.508 236.587 597.032 236.587 Q590.828 236.587 587.194 232.976 Q583.583 229.365 583.583 223.207 Q583.583 216.842 587.008 213.115 Q590.458 209.365 596.291 209.365 Q601.522 209.365 604.555 212.745 Q607.61 216.101 607.61 221.888 M603.351 220.638 Q603.305 217.143 601.383 215.059 Q599.485 212.976 596.337 212.976 Q592.772 212.976 590.62 214.99 Q588.49 217.004 588.166 220.661 L603.351 220.638 Z" fill="#000000" fill-rule="nonzero" fill-opacity="1" /><path clip-path="url(#clip380)" d="M629.624 213.971 Q628.906 213.555 628.05 213.37 Q627.217 213.161 626.198 213.161 Q622.587 213.161 620.643 215.522 Q618.721 217.86 618.721 222.258 L618.721 235.916 L614.439 235.916 L614.439 209.99 L618.721 209.99 L618.721 214.018 Q620.064 211.657 622.217 210.522 Q624.369 209.365 627.448 209.365 Q627.888 209.365 628.42 209.434 Q628.953 209.481 629.601 209.596 L629.624 213.971 Z" fill="#000000" fill-rule="nonzero" fill-opacity="1" /><path clip-path="url(#clip380)" d="M645.874 222.883 Q640.712 222.883 638.721 224.064 Q636.73 225.244 636.73 228.092 Q636.73 230.36 638.212 231.703 Q639.717 233.022 642.286 233.022 Q645.828 233.022 647.957 230.522 Q650.11 227.999 650.11 223.832 L650.11 222.883 L645.874 222.883 M654.369 221.124 L654.369 235.916 L650.11 235.916 L650.11 231.981 Q648.652 234.342 646.476 235.476 Q644.3 236.587 641.152 236.587 Q637.17 236.587 634.809 234.365 Q632.471 232.119 632.471 228.369 Q632.471 223.994 635.388 221.772 Q638.328 219.55 644.138 219.55 L650.11 219.55 L650.11 219.133 Q650.11 216.194 648.166 214.596 Q646.244 212.976 642.749 212.976 Q640.527 212.976 638.42 213.508 Q636.314 214.041 634.369 215.106 L634.369 211.17 Q636.707 210.268 638.906 209.828 Q641.105 209.365 643.189 209.365 Q648.814 209.365 651.591 212.282 Q654.369 215.198 654.369 221.124 Z" fill="#000000" fill-rule="nonzero" fill-opacity="1" /><path clip-path="url(#clip380)" d="M667.355 202.629 L667.355 209.99 L676.128 209.99 L676.128 213.3 L667.355 213.3 L667.355 227.374 Q667.355 230.545 668.212 231.448 Q669.091 232.351 671.753 232.351 L676.128 232.351 L676.128 235.916 L671.753 235.916 Q666.823 235.916 664.948 234.087 Q663.073 232.235 663.073 227.374 L663.073 213.3 L659.948 213.3 L659.948 209.99 L663.073 209.99 L663.073 202.629 L667.355 202.629 Z" fill="#000000" fill-rule="nonzero" fill-opacity="1" /><path clip-path="url(#clip380)" d="M681.73 209.99 L685.989 209.99 L685.989 235.916 L681.73 235.916 L681.73 209.99 M681.73 199.897 L685.989 199.897 L685.989 205.291 L681.73 205.291 L681.73 199.897 Z" fill="#000000" fill-rule="nonzero" fill-opacity="1" /><path clip-path="url(#clip380)" d="M704.948 212.976 Q701.522 212.976 699.531 215.661 Q697.54 218.323 697.54 222.976 Q697.54 227.629 699.508 230.314 Q701.499 232.976 704.948 232.976 Q708.35 232.976 710.341 230.291 Q712.332 227.606 712.332 222.976 Q712.332 218.37 710.341 215.684 Q708.35 212.976 704.948 212.976 M704.948 209.365 Q710.503 209.365 713.674 212.976 Q716.846 216.587 716.846 222.976 Q716.846 229.342 713.674 232.976 Q710.503 236.587 704.948 236.587 Q699.369 236.587 696.198 232.976 Q693.05 229.342 693.05 222.976 Q693.05 216.587 696.198 212.976 Q699.369 209.365 704.948 209.365 Z" fill="#000000" fill-rule="nonzero" fill-opacity="1" /><path clip-path="url(#clip380)" d="M745.457 220.268 L745.457 235.916 L741.197 235.916 L741.197 220.407 Q741.197 216.726 739.762 214.897 Q738.327 213.069 735.457 213.069 Q732.008 213.069 730.017 215.268 Q728.026 217.467 728.026 221.263 L728.026 235.916 L723.744 235.916 L723.744 209.99 L728.026 209.99 L728.026 214.018 Q729.554 211.68 731.614 210.522 Q733.698 209.365 736.406 209.365 Q740.873 209.365 743.165 212.143 Q745.457 214.897 745.457 220.268 Z" fill="#000000" fill-rule="nonzero" fill-opacity="1" /><polyline clip-path="url(#clip380)" style="stroke:#ff0000; stroke-linecap:round; stroke-linejoin:round; stroke-width:4; stroke-opacity:1; fill:none" stroke-dasharray="16, 10" points="393.583,270.476 530.269,270.476 "/>
<path clip-path="url(#clip380)" d="M566.893 290.163 Q565.087 294.793 563.374 296.205 Q561.661 297.617 558.791 297.617 L555.388 297.617 L555.388 294.052 L557.888 294.052 Q559.648 294.052 560.62 293.219 Q561.592 292.385 562.773 289.283 L563.536 287.339 L553.05 261.83 L557.564 261.83 L565.666 282.108 L573.768 261.83 L578.282 261.83 L566.893 290.163 Z" fill="#000000" fill-rule="nonzero" fill-opacity="1" /><path clip-path="url(#clip380)" d="M584.717 266.228 L614.393 266.228 L614.393 270.117 L584.717 270.117 L584.717 266.228 M584.717 275.672 L614.393 275.672 L614.393 279.608 L584.717 279.608 L584.717 275.672 Z" fill="#000000" fill-rule="nonzero" fill-opacity="1" /><path clip-path="url(#clip380)" d="M645.434 261.83 L636.059 274.446 L645.92 287.756 L640.897 287.756 L633.351 277.571 L625.805 287.756 L620.781 287.756 L630.851 274.191 L621.638 261.83 L626.661 261.83 L633.536 271.066 L640.411 261.83 L645.434 261.83 Z" fill="#000000" fill-rule="nonzero" fill-opacity="1" /><path clip-path="url(#clip380)" d="M1832.92 504.686 L1861.57 504.686 L1861.57 405.815 L1830.4 412.065 L1830.4 396.093 L1861.39 389.843 L1878.93 389.843 L1878.93 504.686 L1907.57 504.686 L1907.57 519.443 L1832.92 519.443 L1832.92 504.686 Z" fill="#008000" fill-rule="nonzero" fill-opacity="1" /><path clip-path="url(#clip380)" d="M2101.2 1436.44 L2162.4 1436.44 L2162.4 1451.2 L2080.11 1451.2 L2080.11 1436.44 Q2090.09 1426.11 2107.28 1408.75 Q2124.56 1391.3 2128.98 1386.27 Q2137.4 1376.8 2140.7 1370.29 Q2144.09 1363.7 2144.09 1357.36 Q2144.09 1347.03 2136.79 1340.52 Q2129.59 1334.01 2117.96 1334.01 Q2109.71 1334.01 2100.51 1336.87 Q2091.4 1339.74 2080.98 1345.55 L2080.98 1327.85 Q2091.57 1323.59 2100.77 1321.42 Q2109.97 1319.25 2117.61 1319.25 Q2137.75 1319.25 2149.73 1329.32 Q2161.71 1339.39 2161.71 1356.23 Q2161.71 1364.22 2158.67 1371.42 Q2155.72 1378.54 2147.82 1388.26 Q2145.65 1390.78 2134.02 1402.85 Q2122.39 1414.82 2101.2 1436.44 Z" fill="#008000" fill-rule="nonzero" fill-opacity="1" /><path clip-path="url(#clip380)" d="M2353.32 252.074 Q2365.91 254.765 2372.94 263.272 Q2380.06 271.779 2380.06 284.279 Q2380.06 303.463 2366.86 313.966 Q2353.67 324.47 2329.36 324.47 Q2321.2 324.47 2312.52 322.82 Q2303.93 321.258 2294.73 318.046 L2294.73 301.119 Q2302.02 305.373 2310.7 307.543 Q2319.38 309.713 2328.84 309.713 Q2345.34 309.713 2353.93 303.202 Q2362.61 296.692 2362.61 284.279 Q2362.61 272.821 2354.54 266.397 Q2346.55 259.887 2332.23 259.887 L2317.12 259.887 L2317.12 245.477 L2332.92 245.477 Q2345.86 245.477 2352.71 240.356 Q2359.57 235.147 2359.57 225.425 Q2359.57 215.443 2352.45 210.147 Q2345.42 204.765 2332.23 204.765 Q2325.02 204.765 2316.78 206.328 Q2308.53 207.89 2298.63 211.189 L2298.63 195.564 Q2308.62 192.786 2317.3 191.398 Q2326.07 190.009 2333.79 190.009 Q2353.76 190.009 2365.39 199.123 Q2377.02 208.151 2377.02 223.602 Q2377.02 234.366 2370.86 241.831 Q2364.69 249.21 2353.32 252.074 Z" fill="#008000" fill-rule="nonzero" fill-opacity="1" /><path clip-path="url(#clip380)" d="M2147.08 244.363 L2102.81 313.547 L2147.08 313.547 L2147.08 244.363 M2142.48 229.086 L2164.53 229.086 L2164.53 313.547 L2183.02 313.547 L2183.02 328.13 L2164.53 328.13 L2164.53 358.686 L2147.08 358.686 L2147.08 328.13 L2088.57 328.13 L2088.57 311.203 L2142.48 229.086 Z" fill="#008000" fill-rule="nonzero" fill-opacity="1" /><path clip-path="url(#clip380)" d="M2256.17 123.383 L2325.01 123.383 L2325.01 138.14 L2272.23 138.14 L2272.23 169.911 Q2276.05 168.609 2279.87 168.001 Q2283.69 167.307 2287.51 167.307 Q2309.21 167.307 2321.89 179.199 Q2334.56 191.091 2334.56 211.404 Q2334.56 232.324 2321.54 243.956 Q2308.52 255.501 2284.82 255.501 Q2276.66 255.501 2268.15 254.112 Q2259.73 252.723 2250.71 249.945 L2250.71 232.324 Q2258.52 236.577 2266.85 238.661 Q2275.18 240.744 2284.47 240.744 Q2299.49 240.744 2308.26 232.845 Q2317.02 224.945 2317.02 211.404 Q2317.02 197.862 2308.26 189.963 Q2299.49 182.064 2284.47 182.064 Q2277.44 182.064 2270.41 183.626 Q2263.47 185.189 2256.17 188.487 L2256.17 123.383 Z" fill="#008000" fill-rule="nonzero" fill-opacity="1" /></svg>
