<?xml version="1.0" encoding="utf-8"?>
<svg xmlns="http://www.w3.org/2000/svg" xmlns:xlink="http://www.w3.org/1999/xlink" width="600" height="400" viewBox="0 0 2400 1600">
<defs>
  <clipPath id="clip880">
    <rect x="0" y="0" width="2400" height="1600"/>
  </clipPath>
</defs>
<path clip-path="url(#clip880)" d="M0 1600 L2400 1600 L2400 0 L0 0  Z" fill="#ffffff" fill-rule="evenodd" fill-opacity="1"/>
<defs>
  <clipPath id="clip881">
    <rect x="480" y="0" width="1681" height="1600"/>
  </clipPath>
</defs>
<path clip-path="url(#clip880)" d="M219.866 1423.18 L2352.76 1423.18 L2352.76 123.472 L219.866 123.472  Z" fill="#ffffff" fill-rule="evenodd" fill-opacity="1"/>
<defs>
  <clipPath id="clip882">
    <rect x="219" y="123" width="2134" height="1301"/>
  </clipPath>
</defs>
<polyline clip-path="url(#clip882)" style="stroke:#000000; stroke-linecap:round; stroke-linejoin:round; stroke-width:2; stroke-opacity:0.1; fill:none" points="260.222,1423.18 260.222,123.472 "/>
<polyline clip-path="url(#clip882)" style="stroke:#000000; stroke-linecap:round; stroke-linejoin:round; stroke-width:2; stroke-opacity:0.1; fill:none" points="901.528,1423.18 901.528,123.472 "/>
<polyline clip-path="url(#clip882)" style="stroke:#000000; stroke-linecap:round; stroke-linejoin:round; stroke-width:2; stroke-opacity:0.1; fill:none" points="1542.83,1423.18 1542.83,123.472 "/>
<polyline clip-path="url(#clip882)" style="stroke:#000000; stroke-linecap:round; stroke-linejoin:round; stroke-width:2; stroke-opacity:0.1; fill:none" points="2184.14,1423.18 2184.14,123.472 "/>
<polyline clip-path="url(#clip882)" style="stroke:#000000; stroke-linecap:round; stroke-linejoin:round; stroke-width:2; stroke-opacity:0.1; fill:none" points="219.866,1423.18 2352.76,1423.18 "/>
<polyline clip-path="url(#clip882)" style="stroke:#000000; stroke-linecap:round; stroke-linejoin:round; stroke-width:2; stroke-opacity:0.1; fill:none" points="219.866,1214.27 2352.76,1214.27 "/>
<polyline clip-path="url(#clip882)" style="stroke:#000000; stroke-linecap:round; stroke-linejoin:round; stroke-width:2; stroke-opacity:0.1; fill:none" points="219.866,1005.37 2352.76,1005.37 "/>
<polyline clip-path="url(#clip882)" style="stroke:#000000; stroke-linecap:round; stroke-linejoin:round; stroke-width:2; stroke-opacity:0.1; fill:none" points="219.866,796.464 2352.76,796.464 "/>
<polyline clip-path="url(#clip882)" style="stroke:#000000; stroke-linecap:round; stroke-linejoin:round; stroke-width:2; stroke-opacity:0.1; fill:none" points="219.866,587.559 2352.76,587.559 "/>
<polyline clip-path="url(#clip882)" style="stroke:#000000; stroke-linecap:round; stroke-linejoin:round; stroke-width:2; stroke-opacity:0.1; fill:none" points="219.866,378.654 2352.76,378.654 "/>
<polyline clip-path="url(#clip882)" style="stroke:#000000; stroke-linecap:round; stroke-linejoin:round; stroke-width:2; stroke-opacity:0.1; fill:none" points="219.866,169.749 2352.76,169.749 "/>
<polyline clip-path="url(#clip880)" style="stroke:#000000; stroke-linecap:round; stroke-linejoin:round; stroke-width:4; stroke-opacity:1; fill:none" points="219.866,1423.18 2352.76,1423.18 "/>
<polyline clip-path="url(#clip880)" style="stroke:#000000; stroke-linecap:round; stroke-linejoin:round; stroke-width:4; stroke-opacity:1; fill:none" points="260.222,1423.18 260.222,1404.28 "/>
<polyline clip-path="url(#clip880)" style="stroke:#000000; stroke-linecap:round; stroke-linejoin:round; stroke-width:4; stroke-opacity:1; fill:none" points="901.528,1423.18 901.528,1404.28 "/>
<polyline clip-path="url(#clip880)" style="stroke:#000000; stroke-linecap:round; stroke-linejoin:round; stroke-width:4; stroke-opacity:1; fill:none" points="1542.83,1423.18 1542.83,1404.28 "/>
<polyline clip-path="url(#clip880)" style="stroke:#000000; stroke-linecap:round; stroke-linejoin:round; stroke-width:4; stroke-opacity:1; fill:none" points="2184.14,1423.18 2184.14,1404.28 "/>
<path clip-path="url(#clip880)" d="M260.222 1454.1 Q256.611 1454.1 254.783 1457.66 Q252.977 1461.2 252.977 1468.33 Q252.977 1475.44 254.783 1479.01 Q256.611 1482.55 260.222 1482.55 Q263.857 1482.55 265.662 1479.01 Q267.491 1475.44 267.491 1468.33 Q267.491 1461.2 265.662 1457.66 Q263.857 1454.1 260.222 1454.1 M260.222 1450.39 Q266.032 1450.39 269.088 1455 Q272.167 1459.58 272.167 1468.33 Q272.167 1477.06 269.088 1481.67 Q266.032 1486.25 260.222 1486.25 Q254.412 1486.25 251.333 1481.67 Q248.278 1477.06 248.278 1468.33 Q248.278 1459.58 251.333 1455 Q254.412 1450.39 260.222 1450.39 Z" fill="#000000" fill-rule="nonzero" fill-opacity="1" /><path clip-path="url(#clip880)" d="M891.806 1451.02 L910.162 1451.02 L910.162 1454.96 L896.088 1454.96 L896.088 1463.43 Q897.107 1463.08 898.125 1462.92 Q899.144 1462.73 900.162 1462.73 Q905.949 1462.73 909.329 1465.9 Q912.708 1469.08 912.708 1474.49 Q912.708 1480.07 909.236 1483.17 Q905.764 1486.25 899.444 1486.25 Q897.269 1486.25 895 1485.88 Q892.755 1485.51 890.347 1484.77 L890.347 1480.07 Q892.431 1481.2 894.653 1481.76 Q896.875 1482.32 899.352 1482.32 Q903.356 1482.32 905.694 1480.21 Q908.032 1478.1 908.032 1474.49 Q908.032 1470.88 905.694 1468.77 Q903.356 1466.67 899.352 1466.67 Q897.477 1466.67 895.602 1467.08 Q893.75 1467.5 891.806 1468.38 L891.806 1451.02 Z" fill="#000000" fill-rule="nonzero" fill-opacity="1" /><path clip-path="url(#clip880)" d="M1517.52 1481.64 L1525.16 1481.64 L1525.16 1455.28 L1516.85 1456.95 L1516.85 1452.69 L1525.11 1451.02 L1529.79 1451.02 L1529.79 1481.64 L1537.43 1481.64 L1537.43 1485.58 L1517.52 1485.58 L1517.52 1481.64 Z" fill="#000000" fill-rule="nonzero" fill-opacity="1" /><path clip-path="url(#clip880)" d="M1556.87 1454.1 Q1553.26 1454.1 1551.43 1457.66 Q1549.63 1461.2 1549.63 1468.33 Q1549.63 1475.44 1551.43 1479.01 Q1553.26 1482.55 1556.87 1482.55 Q1560.51 1482.55 1562.31 1479.01 Q1564.14 1475.44 1564.14 1468.33 Q1564.14 1461.2 1562.31 1457.66 Q1560.51 1454.1 1556.87 1454.1 M1556.87 1450.39 Q1562.68 1450.39 1565.74 1455 Q1568.82 1459.58 1568.82 1468.33 Q1568.82 1477.06 1565.74 1481.67 Q1562.68 1486.25 1556.87 1486.25 Q1551.06 1486.25 1547.98 1481.67 Q1544.93 1477.06 1544.93 1468.33 Q1544.93 1459.58 1547.98 1455 Q1551.06 1450.39 1556.87 1450.39 Z" fill="#000000" fill-rule="nonzero" fill-opacity="1" /><path clip-path="url(#clip880)" d="M2159.32 1481.64 L2166.96 1481.64 L2166.96 1455.28 L2158.65 1456.95 L2158.65 1452.69 L2166.92 1451.02 L2171.59 1451.02 L2171.59 1481.64 L2179.23 1481.64 L2179.23 1485.58 L2159.32 1485.58 L2159.32 1481.64 Z" fill="#000000" fill-rule="nonzero" fill-opacity="1" /><path clip-path="url(#clip880)" d="M2188.72 1451.02 L2207.08 1451.02 L2207.08 1454.96 L2193 1454.96 L2193 1463.43 Q2194.02 1463.08 2195.04 1462.92 Q2196.06 1462.73 2197.08 1462.73 Q2202.87 1462.73 2206.25 1465.9 Q2209.62 1469.08 2209.62 1474.49 Q2209.62 1480.07 2206.15 1483.17 Q2202.68 1486.25 2196.36 1486.25 Q2194.18 1486.25 2191.92 1485.88 Q2189.67 1485.51 2187.26 1484.77 L2187.26 1480.07 Q2189.35 1481.2 2191.57 1481.76 Q2193.79 1482.32 2196.27 1482.32 Q2200.27 1482.32 2202.61 1480.21 Q2204.95 1478.1 2204.95 1474.49 Q2204.95 1470.88 2202.61 1468.77 Q2200.27 1466.67 2196.27 1466.67 Q2194.39 1466.67 2192.52 1467.08 Q2190.67 1467.5 2188.72 1468.38 L2188.72 1451.02 Z" fill="#000000" fill-rule="nonzero" fill-opacity="1" /><path clip-path="url(#clip880)" d="M1168.18 1520.52 L1174.61 1520.52 L1174.61 1562.63 L1197.75 1562.63 L1197.75 1568.04 L1168.18 1568.04 L1168.18 1520.52 Z" fill="#000000" fill-rule="nonzero" fill-opacity="1" /><path clip-path="url(#clip880)" d="M1216.91 1536.5 Q1212.2 1536.5 1209.46 1540.19 Q1206.72 1543.85 1206.72 1550.25 Q1206.72 1556.65 1209.43 1560.34 Q1212.17 1564 1216.91 1564 Q1221.59 1564 1224.33 1560.31 Q1227.06 1556.62 1227.06 1550.25 Q1227.06 1543.92 1224.33 1540.23 Q1221.59 1536.5 1216.91 1536.5 M1216.91 1531.54 Q1224.55 1531.54 1228.91 1536.5 Q1233.27 1541.47 1233.27 1550.25 Q1233.27 1559 1228.91 1564 Q1224.55 1568.97 1216.91 1568.97 Q1209.24 1568.97 1204.88 1564 Q1200.55 1559 1200.55 1550.25 Q1200.55 1541.47 1204.88 1536.5 Q1209.24 1531.54 1216.91 1531.54 Z" fill="#000000" fill-rule="nonzero" fill-opacity="1" /><path clip-path="url(#clip880)" d="M1259.18 1550.12 Q1252.08 1550.12 1249.34 1551.75 Q1246.6 1553.37 1246.6 1557.29 Q1246.6 1560.4 1248.64 1562.25 Q1250.71 1564.07 1254.24 1564.07 Q1259.11 1564.07 1262.04 1560.63 Q1265 1557.16 1265 1551.43 L1265 1550.12 L1259.18 1550.12 M1270.86 1547.71 L1270.86 1568.04 L1265 1568.04 L1265 1562.63 Q1263 1565.88 1260 1567.44 Q1257.01 1568.97 1252.68 1568.97 Q1247.21 1568.97 1243.96 1565.91 Q1240.75 1562.82 1240.75 1557.67 Q1240.75 1551.65 1244.76 1548.6 Q1248.8 1545.54 1256.79 1545.54 L1265 1545.54 L1265 1544.97 Q1265 1540.93 1262.33 1538.73 Q1259.69 1536.5 1254.88 1536.5 Q1251.82 1536.5 1248.93 1537.23 Q1246.03 1537.97 1243.36 1539.43 L1243.36 1534.02 Q1246.57 1532.78 1249.6 1532.17 Q1252.62 1531.54 1255.49 1531.54 Q1263.22 1531.54 1267.04 1535.55 Q1270.86 1539.56 1270.86 1547.71 Z" fill="#000000" fill-rule="nonzero" fill-opacity="1" /><path clip-path="url(#clip880)" d="M1306.38 1537.81 L1306.38 1518.52 L1312.24 1518.52 L1312.24 1568.04 L1306.38 1568.04 L1306.38 1562.7 Q1304.53 1565.88 1301.7 1567.44 Q1298.9 1568.97 1294.95 1568.97 Q1288.49 1568.97 1284.42 1563.81 Q1280.38 1558.65 1280.38 1550.25 Q1280.38 1541.85 1284.42 1536.69 Q1288.49 1531.54 1294.95 1531.54 Q1298.9 1531.54 1301.7 1533.1 Q1304.53 1534.62 1306.38 1537.81 M1286.42 1550.25 Q1286.42 1556.71 1289.06 1560.4 Q1291.74 1564.07 1296.38 1564.07 Q1301.03 1564.07 1303.71 1560.4 Q1306.38 1556.71 1306.38 1550.25 Q1306.38 1543.79 1303.71 1540.13 Q1301.03 1536.44 1296.38 1536.44 Q1291.74 1536.44 1289.06 1540.13 Q1286.42 1543.79 1286.42 1550.25 Z" fill="#000000" fill-rule="nonzero" fill-opacity="1" /><path clip-path="url(#clip880)" d="M1345.27 1520.52 L1351.7 1520.52 L1351.7 1568.04 L1345.27 1568.04 L1345.27 1520.52 Z" fill="#000000" fill-rule="nonzero" fill-opacity="1" /><path clip-path="url(#clip880)" d="M1370.93 1525.81 L1370.93 1562.76 L1378.69 1562.76 Q1388.53 1562.76 1393.08 1558.3 Q1397.66 1553.85 1397.66 1544.24 Q1397.66 1534.69 1393.08 1530.26 Q1388.53 1525.81 1378.69 1525.81 L1370.93 1525.81 M1364.5 1520.52 L1377.71 1520.52 Q1391.52 1520.52 1397.98 1526.28 Q1404.44 1532.01 1404.44 1544.24 Q1404.44 1556.52 1397.95 1562.28 Q1391.46 1568.04 1377.71 1568.04 L1364.5 1568.04 L1364.5 1520.52 Z" fill="#000000" fill-rule="nonzero" fill-opacity="1" /><polyline clip-path="url(#clip880)" style="stroke:#000000; stroke-linecap:round; stroke-linejoin:round; stroke-width:4; stroke-opacity:1; fill:none" points="219.866,1423.18 219.866,123.472 "/>
<polyline clip-path="url(#clip880)" style="stroke:#000000; stroke-linecap:round; stroke-linejoin:round; stroke-width:4; stroke-opacity:1; fill:none" points="219.866,1423.18 238.764,1423.18 "/>
<polyline clip-path="url(#clip880)" style="stroke:#000000; stroke-linecap:round; stroke-linejoin:round; stroke-width:4; stroke-opacity:1; fill:none" points="219.866,1214.27 238.764,1214.27 "/>
<polyline clip-path="url(#clip880)" style="stroke:#000000; stroke-linecap:round; stroke-linejoin:round; stroke-width:4; stroke-opacity:1; fill:none" points="219.866,1005.37 238.764,1005.37 "/>
<polyline clip-path="url(#clip880)" style="stroke:#000000; stroke-linecap:round; stroke-linejoin:round; stroke-width:4; stroke-opacity:1; fill:none" points="219.866,796.464 238.764,796.464 "/>
<polyline clip-path="url(#clip880)" style="stroke:#000000; stroke-linecap:round; stroke-linejoin:round; stroke-width:4; stroke-opacity:1; fill:none" points="219.866,587.559 238.764,587.559 "/>
<polyline clip-path="url(#clip880)" style="stroke:#000000; stroke-linecap:round; stroke-linejoin:round; stroke-width:4; stroke-opacity:1; fill:none" points="219.866,378.654 238.764,378.654 "/>
<polyline clip-path="url(#clip880)" style="stroke:#000000; stroke-linecap:round; stroke-linejoin:round; stroke-width:4; stroke-opacity:1; fill:none" points="219.866,169.749 238.764,169.749 "/>
<path clip-path="url(#clip880)" d="M126.691 1408.98 Q123.08 1408.98 121.251 1412.54 Q119.445 1416.08 119.445 1423.21 Q119.445 1430.32 121.251 1433.89 Q123.08 1437.43 126.691 1437.43 Q130.325 1437.43 132.13 1433.89 Q133.959 1430.32 133.959 1423.21 Q133.959 1416.08 132.13 1412.54 Q130.325 1408.98 126.691 1408.98 M126.691 1405.27 Q132.501 1405.27 135.556 1409.88 Q138.635 1414.46 138.635 1423.21 Q138.635 1431.94 135.556 1436.55 Q132.501 1441.13 126.691 1441.13 Q120.88 1441.13 117.802 1436.55 Q114.746 1431.94 114.746 1423.21 Q114.746 1414.46 117.802 1409.88 Q120.88 1405.27 126.691 1405.27 Z" fill="#000000" fill-rule="nonzero" fill-opacity="1" /><path clip-path="url(#clip880)" d="M146.853 1434.58 L151.737 1434.58 L151.737 1440.46 L146.853 1440.46 L146.853 1434.58 Z" fill="#000000" fill-rule="nonzero" fill-opacity="1" /><path clip-path="url(#clip880)" d="M171.922 1408.98 Q168.311 1408.98 166.482 1412.54 Q164.677 1416.08 164.677 1423.21 Q164.677 1430.32 166.482 1433.89 Q168.311 1437.43 171.922 1437.43 Q175.556 1437.43 177.362 1433.89 Q179.19 1430.32 179.19 1423.21 Q179.19 1416.08 177.362 1412.54 Q175.556 1408.98 171.922 1408.98 M171.922 1405.27 Q177.732 1405.27 180.788 1409.88 Q183.866 1414.46 183.866 1423.21 Q183.866 1431.94 180.788 1436.55 Q177.732 1441.13 171.922 1441.13 Q166.112 1441.13 163.033 1436.55 Q159.978 1431.94 159.978 1423.21 Q159.978 1414.46 163.033 1409.88 Q166.112 1405.27 171.922 1405.27 Z" fill="#000000" fill-rule="nonzero" fill-opacity="1" /><path clip-path="url(#clip880)" d="M127.917 1200.07 Q124.306 1200.07 122.478 1203.64 Q120.672 1207.18 120.672 1214.31 Q120.672 1221.42 122.478 1224.98 Q124.306 1228.52 127.917 1228.52 Q131.552 1228.52 133.357 1224.98 Q135.186 1221.42 135.186 1214.31 Q135.186 1207.18 133.357 1203.64 Q131.552 1200.07 127.917 1200.07 M127.917 1196.37 Q133.728 1196.37 136.783 1200.98 Q139.862 1205.56 139.862 1214.31 Q139.862 1223.04 136.783 1227.64 Q133.728 1232.23 127.917 1232.23 Q122.107 1232.23 119.029 1227.64 Q115.973 1223.04 115.973 1214.31 Q115.973 1205.56 119.029 1200.98 Q122.107 1196.37 127.917 1196.37 Z" fill="#000000" fill-rule="nonzero" fill-opacity="1" /><path clip-path="url(#clip880)" d="M148.079 1225.68 L152.964 1225.68 L152.964 1231.55 L148.079 1231.55 L148.079 1225.68 Z" fill="#000000" fill-rule="nonzero" fill-opacity="1" /><path clip-path="url(#clip880)" d="M163.959 1227.62 L171.598 1227.62 L171.598 1201.25 L163.288 1202.92 L163.288 1198.66 L171.552 1196.99 L176.227 1196.99 L176.227 1227.62 L183.866 1227.62 L183.866 1231.55 L163.959 1231.55 L163.959 1227.62 Z" fill="#000000" fill-rule="nonzero" fill-opacity="1" /><path clip-path="url(#clip880)" d="M128.288 991.168 Q124.677 991.168 122.848 994.733 Q121.043 998.275 121.043 1005.4 Q121.043 1012.51 122.848 1016.08 Q124.677 1019.62 128.288 1019.62 Q131.922 1019.62 133.728 1016.08 Q135.556 1012.51 135.556 1005.4 Q135.556 998.275 133.728 994.733 Q131.922 991.168 128.288 991.168 M128.288 987.464 Q134.098 987.464 137.154 992.071 Q140.232 996.654 140.232 1005.4 Q140.232 1014.13 137.154 1018.74 Q134.098 1023.32 128.288 1023.32 Q122.478 1023.32 119.399 1018.74 Q116.343 1014.13 116.343 1005.4 Q116.343 996.654 119.399 992.071 Q122.478 987.464 128.288 987.464 Z" fill="#000000" fill-rule="nonzero" fill-opacity="1" /><path clip-path="url(#clip880)" d="M148.45 1016.77 L153.334 1016.77 L153.334 1022.65 L148.45 1022.65 L148.45 1016.77 Z" fill="#000000" fill-rule="nonzero" fill-opacity="1" /><path clip-path="url(#clip880)" d="M167.547 1018.71 L183.866 1018.71 L183.866 1022.65 L161.922 1022.65 L161.922 1018.71 Q164.584 1015.96 169.167 1011.33 Q173.774 1006.68 174.954 1005.33 Q177.2 1002.81 178.079 1001.08 Q178.982 999.316 178.982 997.626 Q178.982 994.872 177.038 993.136 Q175.116 991.4 172.014 991.4 Q169.815 991.4 167.362 992.164 Q164.931 992.927 162.153 994.478 L162.153 989.756 Q164.977 988.622 167.431 988.043 Q169.885 987.464 171.922 987.464 Q177.292 987.464 180.487 990.15 Q183.681 992.835 183.681 997.326 Q183.681 999.455 182.871 1001.38 Q182.084 1003.27 179.977 1005.87 Q179.399 1006.54 176.297 1009.76 Q173.195 1012.95 167.547 1018.71 Z" fill="#000000" fill-rule="nonzero" fill-opacity="1" /><path clip-path="url(#clip880)" d="M127.339 782.263 Q123.728 782.263 121.899 785.828 Q120.093 789.369 120.093 796.499 Q120.093 803.605 121.899 807.17 Q123.728 810.712 127.339 810.712 Q130.973 810.712 132.779 807.17 Q134.607 803.605 134.607 796.499 Q134.607 789.369 132.779 785.828 Q130.973 782.263 127.339 782.263 M127.339 778.559 Q133.149 778.559 136.204 783.166 Q139.283 787.749 139.283 796.499 Q139.283 805.226 136.204 809.832 Q133.149 814.416 127.339 814.416 Q121.529 814.416 118.45 809.832 Q115.394 805.226 115.394 796.499 Q115.394 787.749 118.45 783.166 Q121.529 778.559 127.339 778.559 Z" fill="#000000" fill-rule="nonzero" fill-opacity="1" /><path clip-path="url(#clip880)" d="M147.501 807.865 L152.385 807.865 L152.385 813.744 L147.501 813.744 L147.501 807.865 Z" fill="#000000" fill-rule="nonzero" fill-opacity="1" /><path clip-path="url(#clip880)" d="M176.737 795.11 Q180.093 795.828 181.968 798.096 Q183.866 800.365 183.866 803.698 Q183.866 808.814 180.348 811.615 Q176.829 814.416 170.348 814.416 Q168.172 814.416 165.857 813.976 Q163.565 813.559 161.112 812.703 L161.112 808.189 Q163.056 809.323 165.371 809.902 Q167.686 810.48 170.209 810.48 Q174.607 810.48 176.899 808.744 Q179.214 807.008 179.214 803.698 Q179.214 800.643 177.061 798.93 Q174.931 797.193 171.112 797.193 L167.084 797.193 L167.084 793.351 L171.297 793.351 Q174.746 793.351 176.575 791.985 Q178.403 790.596 178.403 788.004 Q178.403 785.342 176.505 783.93 Q174.63 782.494 171.112 782.494 Q169.19 782.494 166.991 782.911 Q164.792 783.328 162.153 784.207 L162.153 780.041 Q164.815 779.3 167.13 778.93 Q169.468 778.559 171.528 778.559 Q176.852 778.559 179.954 780.99 Q183.056 783.397 183.056 787.518 Q183.056 790.388 181.413 792.379 Q179.769 794.346 176.737 795.11 Z" fill="#000000" fill-rule="nonzero" fill-opacity="1" /><path clip-path="url(#clip880)" d="M126.205 573.358 Q122.593 573.358 120.765 576.923 Q118.959 580.464 118.959 587.594 Q118.959 594.7 120.765 598.265 Q122.593 601.807 126.205 601.807 Q129.839 601.807 131.644 598.265 Q133.473 594.7 133.473 587.594 Q133.473 580.464 131.644 576.923 Q129.839 573.358 126.205 573.358 M126.205 569.654 Q132.015 569.654 135.07 574.261 Q138.149 578.844 138.149 587.594 Q138.149 596.321 135.07 600.927 Q132.015 605.51 126.205 605.51 Q120.394 605.51 117.316 600.927 Q114.26 596.321 114.26 587.594 Q114.26 578.844 117.316 574.261 Q120.394 569.654 126.205 569.654 Z" fill="#000000" fill-rule="nonzero" fill-opacity="1" /><path clip-path="url(#clip880)" d="M146.366 598.96 L151.251 598.96 L151.251 604.839 L146.366 604.839 L146.366 598.96 Z" fill="#000000" fill-rule="nonzero" fill-opacity="1" /><path clip-path="url(#clip880)" d="M174.283 574.353 L162.477 592.802 L174.283 592.802 L174.283 574.353 M173.056 570.279 L178.936 570.279 L178.936 592.802 L183.866 592.802 L183.866 596.691 L178.936 596.691 L178.936 604.839 L174.283 604.839 L174.283 596.691 L158.681 596.691 L158.681 592.177 L173.056 570.279 Z" fill="#000000" fill-rule="nonzero" fill-opacity="1" /><path clip-path="url(#clip880)" d="M127.686 364.453 Q124.075 364.453 122.246 368.017 Q120.441 371.559 120.441 378.689 Q120.441 385.795 122.246 389.36 Q124.075 392.902 127.686 392.902 Q131.32 392.902 133.126 389.36 Q134.954 385.795 134.954 378.689 Q134.954 371.559 133.126 368.017 Q131.32 364.453 127.686 364.453 M127.686 360.749 Q133.496 360.749 136.552 365.355 Q139.63 369.939 139.63 378.689 Q139.63 387.415 136.552 392.022 Q133.496 396.605 127.686 396.605 Q121.876 396.605 118.797 392.022 Q115.742 387.415 115.742 378.689 Q115.742 369.939 118.797 365.355 Q121.876 360.749 127.686 360.749 Z" fill="#000000" fill-rule="nonzero" fill-opacity="1" /><path clip-path="url(#clip880)" d="M147.848 390.054 L152.732 390.054 L152.732 395.934 L147.848 395.934 L147.848 390.054 Z" fill="#000000" fill-rule="nonzero" fill-opacity="1" /><path clip-path="url(#clip880)" d="M162.964 361.374 L181.32 361.374 L181.32 365.309 L167.246 365.309 L167.246 373.781 Q168.264 373.434 169.283 373.272 Q170.302 373.087 171.32 373.087 Q177.107 373.087 180.487 376.258 Q183.866 379.429 183.866 384.846 Q183.866 390.425 180.394 393.527 Q176.922 396.605 170.602 396.605 Q168.427 396.605 166.158 396.235 Q163.913 395.864 161.505 395.124 L161.505 390.425 Q163.589 391.559 165.811 392.114 Q168.033 392.67 170.51 392.67 Q174.514 392.67 176.852 390.564 Q179.19 388.457 179.19 384.846 Q179.19 381.235 176.852 379.128 Q174.514 377.022 170.51 377.022 Q168.635 377.022 166.76 377.439 Q164.908 377.855 162.964 378.735 L162.964 361.374 Z" fill="#000000" fill-rule="nonzero" fill-opacity="1" /><path clip-path="url(#clip880)" d="M126.529 155.547 Q122.918 155.547 121.089 159.112 Q119.283 162.654 119.283 169.783 Q119.283 176.89 121.089 180.455 Q122.918 183.996 126.529 183.996 Q130.163 183.996 131.968 180.455 Q133.797 176.89 133.797 169.783 Q133.797 162.654 131.968 159.112 Q130.163 155.547 126.529 155.547 M126.529 151.844 Q132.339 151.844 135.394 156.45 Q138.473 161.034 138.473 169.783 Q138.473 178.51 135.394 183.117 Q132.339 187.7 126.529 187.7 Q120.718 187.7 117.64 183.117 Q114.584 178.51 114.584 169.783 Q114.584 161.034 117.64 156.45 Q120.718 151.844 126.529 151.844 Z" fill="#000000" fill-rule="nonzero" fill-opacity="1" /><path clip-path="url(#clip880)" d="M146.691 181.149 L151.575 181.149 L151.575 187.029 L146.691 187.029 L146.691 181.149 Z" fill="#000000" fill-rule="nonzero" fill-opacity="1" /><path clip-path="url(#clip880)" d="M172.339 167.885 Q169.19 167.885 167.339 170.038 Q165.51 172.191 165.51 175.941 Q165.51 179.668 167.339 181.844 Q169.19 183.996 172.339 183.996 Q175.487 183.996 177.315 181.844 Q179.167 179.668 179.167 175.941 Q179.167 172.191 177.315 170.038 Q175.487 167.885 172.339 167.885 M181.621 153.233 L181.621 157.492 Q179.862 156.659 178.056 156.219 Q176.274 155.779 174.514 155.779 Q169.885 155.779 167.431 158.904 Q165.001 162.029 164.653 168.348 Q166.019 166.334 168.079 165.27 Q170.139 164.182 172.616 164.182 Q177.825 164.182 180.834 167.353 Q183.866 170.501 183.866 175.941 Q183.866 181.265 180.718 184.482 Q177.57 187.7 172.339 187.7 Q166.343 187.7 163.172 183.117 Q160.001 178.51 160.001 169.783 Q160.001 161.589 163.89 156.728 Q167.778 151.844 174.329 151.844 Q176.089 151.844 177.871 152.191 Q179.676 152.538 181.621 153.233 Z" fill="#000000" fill-rule="nonzero" fill-opacity="1" /><path clip-path="url(#clip880)" d="M16.4842 1039.99 L16.4842 1012.68 L21.895 1012.68 L21.895 1033.56 L35.8996 1033.56 L35.8996 1014.71 L41.3104 1014.71 L41.3104 1033.56 L64.0042 1033.56 L64.0042 1039.99 L16.4842 1039.99 Z" fill="#000000" fill-rule="nonzero" fill-opacity="1" /><path clip-path="url(#clip880)" d="M46.0847 992.529 Q46.0847 999.627 47.7079 1002.36 Q49.3312 1005.1 53.2461 1005.1 Q56.3653 1005.1 58.2114 1003.06 Q60.0256 1001 60.0256 997.463 Q60.0256 992.593 56.5881 989.665 Q53.1188 986.704 47.3897 986.704 L46.0847 986.704 L46.0847 992.529 M43.6657 980.848 L64.0042 980.848 L64.0042 986.704 L58.5933 986.704 Q61.8398 988.71 63.3994 991.702 Q64.9272 994.693 64.9272 999.022 Q64.9272 1004.5 61.8716 1007.74 Q58.7843 1010.96 53.6281 1010.96 Q47.6125 1010.96 44.5569 1006.95 Q41.5014 1002.91 41.5014 994.916 L41.5014 986.704 L40.9285 986.704 Q36.8862 986.704 34.6901 989.378 Q32.4621 992.02 32.4621 996.826 Q32.4621 999.881 33.1941 1002.78 Q33.9262 1005.67 35.3903 1008.35 L29.9795 1008.35 Q28.7381 1005.13 28.1334 1002.11 Q27.4968 999.086 27.4968 996.221 Q27.4968 988.487 31.5072 984.667 Q35.5176 980.848 43.6657 980.848 Z" fill="#000000" fill-rule="nonzero" fill-opacity="1" /><path clip-path="url(#clip880)" d="M28.3562 968.785 L28.3562 962.929 L64.0042 962.929 L64.0042 968.785 L28.3562 968.785 M14.479 968.785 L14.479 962.929 L21.895 962.929 L21.895 968.785 L14.479 968.785 Z" fill="#000000" fill-rule="nonzero" fill-opacity="1" /><path clip-path="url(#clip880)" d="M33.8307 930.018 Q33.2578 931.005 33.0032 932.182 Q32.7167 933.328 32.7167 934.728 Q32.7167 939.694 35.9632 942.367 Q39.1779 945.009 45.2253 945.009 L64.0042 945.009 L64.0042 950.897 L28.3562 950.897 L28.3562 945.009 L33.8944 945.009 Q30.6479 943.163 29.0883 940.203 Q27.4968 937.243 27.4968 933.01 Q27.4968 932.405 27.5923 931.673 Q27.656 930.941 27.8151 930.05 L33.8307 930.018 Z" fill="#000000" fill-rule="nonzero" fill-opacity="1" /><path clip-path="url(#clip880)" d="M16.4842 902.9 L16.4842 896.471 L58.5933 896.471 L58.5933 873.331 L64.0042 873.331 L64.0042 902.9 L16.4842 902.9 Z" fill="#000000" fill-rule="nonzero" fill-opacity="1" /><path clip-path="url(#clip880)" d="M32.4621 854.17 Q32.4621 858.881 36.1542 861.618 Q39.8145 864.356 46.212 864.356 Q52.6095 864.356 56.3017 861.65 Q59.9619 858.913 59.9619 854.17 Q59.9619 849.492 56.2698 846.754 Q52.5777 844.017 46.212 844.017 Q39.8781 844.017 36.186 846.754 Q32.4621 849.492 32.4621 854.17 M27.4968 854.17 Q27.4968 846.532 32.4621 842.171 Q37.4273 837.811 46.212 837.811 Q54.9649 837.811 59.9619 842.171 Q64.9272 846.532 64.9272 854.17 Q64.9272 861.841 59.9619 866.202 Q54.9649 870.53 46.212 870.53 Q37.4273 870.53 32.4621 866.202 Q27.4968 861.841 27.4968 854.17 Z" fill="#000000" fill-rule="nonzero" fill-opacity="1" /><path clip-path="url(#clip880)" d="M46.0847 811.902 Q46.0847 819 47.7079 821.737 Q49.3312 824.474 53.2461 824.474 Q56.3653 824.474 58.2114 822.437 Q60.0256 820.369 60.0256 816.836 Q60.0256 811.966 56.5881 809.038 Q53.1188 806.078 47.3897 806.078 L46.0847 806.078 L46.0847 811.902 M43.6657 800.221 L64.0042 800.221 L64.0042 806.078 L58.5933 806.078 Q61.8398 808.083 63.3994 811.075 Q64.9272 814.067 64.9272 818.395 Q64.9272 823.87 61.8716 827.116 Q58.7843 830.331 53.6281 830.331 Q47.6125 830.331 44.5569 826.32 Q41.5014 822.278 41.5014 814.289 L41.5014 806.078 L40.9285 806.078 Q36.8862 806.078 34.6901 808.751 Q32.4621 811.393 32.4621 816.199 Q32.4621 819.255 33.1941 822.151 Q33.9262 825.047 35.3903 827.721 L29.9795 827.721 Q28.7381 824.506 28.1334 821.483 Q27.4968 818.459 27.4968 815.594 Q27.4968 807.86 31.5072 804.041 Q35.5176 800.221 43.6657 800.221 Z" fill="#000000" fill-rule="nonzero" fill-opacity="1" /><path clip-path="url(#clip880)" d="M33.7671 764.7 L14.479 764.7 L14.479 758.844 L64.0042 758.844 L64.0042 764.7 L58.657 764.7 Q61.8398 766.547 63.3994 769.379 Q64.9272 772.18 64.9272 776.127 Q64.9272 782.588 59.771 786.662 Q54.6147 790.704 46.212 790.704 Q37.8093 790.704 32.6531 786.662 Q27.4968 782.588 27.4968 776.127 Q27.4968 772.18 29.0564 769.379 Q30.5842 766.547 33.7671 764.7 M46.212 784.657 Q52.6732 784.657 56.3653 782.015 Q60.0256 779.342 60.0256 774.695 Q60.0256 770.048 56.3653 767.374 Q52.6732 764.7 46.212 764.7 Q39.7508 764.7 36.0905 767.374 Q32.3984 770.048 32.3984 774.695 Q32.3984 779.342 36.0905 782.015 Q39.7508 784.657 46.212 784.657 Z" fill="#000000" fill-rule="nonzero" fill-opacity="1" /><path clip-path="url(#clip880)" d="M16.4842 730.039 L16.4842 723.546 L56.6518 713.552 L16.4842 703.59 L16.4842 696.365 L56.6518 686.37 L16.4842 676.408 L16.4842 669.883 L64.0042 681.819 L64.0042 689.903 L22.7544 699.929 L64.0042 710.051 L64.0042 718.135 L16.4842 730.039 Z" fill="#000000" fill-rule="nonzero" fill-opacity="1" /><path clip-path="url(#clip880)" d="M44.7161 634.936 L47.5806 634.936 L47.5806 661.862 Q53.6281 661.481 56.8109 658.234 Q59.9619 654.956 59.9619 649.131 Q59.9619 645.757 59.1344 642.606 Q58.3069 639.423 56.6518 636.304 L62.1899 636.304 Q63.5267 639.455 64.227 642.765 Q64.9272 646.076 64.9272 649.481 Q64.9272 658.011 59.9619 663.008 Q54.9967 667.974 46.5303 667.974 Q37.7774 667.974 32.6531 663.263 Q27.4968 658.52 27.4968 650.5 Q27.4968 643.306 32.1438 639.137 Q36.7589 634.936 44.7161 634.936 M42.9973 640.792 Q38.1912 640.856 35.3266 643.497 Q32.4621 646.107 32.4621 650.436 Q32.4621 655.338 35.2312 658.298 Q38.0002 661.226 43.0292 661.671 L42.9973 640.792 Z" fill="#000000" fill-rule="nonzero" fill-opacity="1" /><path clip-path="url(#clip880)" d="M28.3562 625.323 L28.3562 619.467 L64.0042 619.467 L64.0042 625.323 L28.3562 625.323 M14.479 625.323 L14.479 619.467 L21.895 619.467 L21.895 625.323 L14.479 625.323 Z" fill="#000000" fill-rule="nonzero" fill-opacity="1" /><path clip-path="url(#clip880)" d="M45.7664 583.755 Q39.4007 583.755 35.8996 586.397 Q32.3984 589.007 32.3984 593.749 Q32.3984 598.46 35.8996 601.102 Q39.4007 603.712 45.7664 603.712 Q52.1003 603.712 55.6014 601.102 Q59.1026 598.46 59.1026 593.749 Q59.1026 589.007 55.6014 586.397 Q52.1003 583.755 45.7664 583.755 M59.58 577.899 Q68.683 577.899 73.1071 581.941 Q77.5631 585.983 77.5631 594.322 Q77.5631 597.41 77.0857 600.147 Q76.6401 602.884 75.6852 605.462 L69.9879 605.462 Q71.3884 602.884 72.0568 600.37 Q72.7252 597.855 72.7252 595.245 Q72.7252 589.484 69.7015 586.62 Q66.7096 583.755 60.6303 583.755 L57.7339 583.755 Q60.885 585.569 62.4446 588.402 Q64.0042 591.235 64.0042 595.182 Q64.0042 601.738 59.0071 605.749 Q54.01 609.759 45.7664 609.759 Q37.491 609.759 32.4939 605.749 Q27.4968 601.738 27.4968 595.182 Q27.4968 591.235 29.0564 588.402 Q30.616 585.569 33.7671 583.755 L28.3562 583.755 L28.3562 577.899 L59.58 577.899 Z" fill="#000000" fill-rule="nonzero" fill-opacity="1" /><path clip-path="url(#clip880)" d="M42.4881 536.203 L64.0042 536.203 L64.0042 542.06 L42.679 542.06 Q37.6183 542.06 35.1038 544.033 Q32.5894 546.007 32.5894 549.953 Q32.5894 554.696 35.6131 557.433 Q38.6368 560.17 43.8567 560.17 L64.0042 560.17 L64.0042 566.059 L14.479 566.059 L14.479 560.17 L33.8944 560.17 Q30.6797 558.07 29.0883 555.237 Q27.4968 552.372 27.4968 548.648 Q27.4968 542.505 31.3163 539.354 Q35.1038 536.203 42.4881 536.203 Z" fill="#000000" fill-rule="nonzero" fill-opacity="1" /><path clip-path="url(#clip880)" d="M18.2347 518.73 L28.3562 518.73 L28.3562 506.667 L32.9077 506.667 L32.9077 518.73 L52.2594 518.73 Q56.6199 518.73 57.8613 517.552 Q59.1026 516.342 59.1026 512.682 L59.1026 506.667 L64.0042 506.667 L64.0042 512.682 Q64.0042 519.462 61.4897 522.04 Q58.9434 524.618 52.2594 524.618 L32.9077 524.618 L32.9077 528.915 L28.3562 528.915 L28.3562 524.618 L18.2347 524.618 L18.2347 518.73 Z" fill="#000000" fill-rule="nonzero" fill-opacity="1" /><path clip-path="url(#clip880)" d="M474.996 12.096 L509.753 12.096 L509.753 18.9825 L483.179 18.9825 L483.179 36.8065 L507.16 36.8065 L507.16 43.6931 L483.179 43.6931 L483.179 72.576 L474.996 72.576 L474.996 12.096 Z" fill="#000000" fill-rule="nonzero" fill-opacity="1" /><path clip-path="url(#clip880)" d="M535.395 49.7694 Q526.361 49.7694 522.878 51.8354 Q519.394 53.9013 519.394 58.8839 Q519.394 62.8538 521.986 65.2034 Q524.62 67.5124 529.116 67.5124 Q535.314 67.5124 539.041 63.1374 Q542.808 58.7219 542.808 51.4303 L542.808 49.7694 L535.395 49.7694 M550.262 46.6907 L550.262 72.576 L542.808 72.576 L542.808 65.6895 Q540.256 69.8214 536.448 71.8063 Q532.64 73.7508 527.131 73.7508 Q520.164 73.7508 516.032 69.8619 Q511.94 65.9325 511.94 59.3701 Q511.94 51.7138 517.044 47.825 Q522.189 43.9361 532.357 43.9361 L542.808 43.9361 L542.808 43.2069 Q542.808 38.0623 539.405 35.2672 Q536.043 32.4315 529.926 32.4315 Q526.037 32.4315 522.351 33.3632 Q518.665 34.295 515.262 36.1584 L515.262 29.2718 Q519.353 27.692 523.202 26.9223 Q527.05 26.1121 530.696 26.1121 Q540.54 26.1121 545.401 31.2163 Q550.262 36.3204 550.262 46.6907 Z" fill="#000000" fill-rule="nonzero" fill-opacity="1" /><path clip-path="url(#clip880)" d="M565.615 27.2059 L573.068 27.2059 L573.068 72.576 L565.615 72.576 L565.615 27.2059 M565.615 9.54393 L573.068 9.54393 L573.068 18.9825 L565.615 18.9825 L565.615 9.54393 Z" fill="#000000" fill-rule="nonzero" fill-opacity="1" /><path clip-path="url(#clip880)" d="M614.955 34.1734 Q613.699 33.4443 612.2 33.1202 Q610.742 32.7556 608.959 32.7556 Q602.64 32.7556 599.237 36.8875 Q595.875 40.9789 595.875 48.6757 L595.875 72.576 L588.381 72.576 L588.381 27.2059 L595.875 27.2059 L595.875 34.2544 Q598.224 30.1225 601.992 28.1376 Q605.759 26.1121 611.147 26.1121 Q611.917 26.1121 612.848 26.2337 Q613.78 26.3147 614.914 26.5172 L614.955 34.1734 Z" fill="#000000" fill-rule="nonzero" fill-opacity="1" /><path clip-path="url(#clip880)" d="M649.468 12.096 L657.651 12.096 L657.651 65.6895 L687.101 65.6895 L687.101 72.576 L649.468 72.576 L649.468 12.096 Z" fill="#000000" fill-rule="nonzero" fill-opacity="1" /><path clip-path="url(#clip880)" d="M711.488 32.4315 Q705.492 32.4315 702.009 37.1306 Q698.525 41.7891 698.525 49.9314 Q698.525 58.0738 701.968 62.7728 Q705.452 67.4314 711.488 67.4314 Q717.443 67.4314 720.926 62.7323 Q724.41 58.0333 724.41 49.9314 Q724.41 41.8701 720.926 37.1711 Q717.443 32.4315 711.488 32.4315 M711.488 26.1121 Q721.21 26.1121 726.76 32.4315 Q732.309 38.7509 732.309 49.9314 Q732.309 61.0714 726.76 67.4314 Q721.21 73.7508 711.488 73.7508 Q701.725 73.7508 696.175 67.4314 Q690.666 61.0714 690.666 49.9314 Q690.666 38.7509 696.175 32.4315 Q701.725 26.1121 711.488 26.1121 Z" fill="#000000" fill-rule="nonzero" fill-opacity="1" /><path clip-path="url(#clip880)" d="M765.284 49.7694 Q756.25 49.7694 752.766 51.8354 Q749.283 53.9013 749.283 58.8839 Q749.283 62.8538 751.875 65.2034 Q754.508 67.5124 759.005 67.5124 Q765.203 67.5124 768.93 63.1374 Q772.697 58.7219 772.697 51.4303 L772.697 49.7694 L765.284 49.7694 M780.151 46.6907 L780.151 72.576 L772.697 72.576 L772.697 65.6895 Q770.145 69.8214 766.337 71.8063 Q762.529 73.7508 757.02 73.7508 Q750.052 73.7508 745.92 69.8619 Q741.829 65.9325 741.829 59.3701 Q741.829 51.7138 746.933 47.825 Q752.078 43.9361 762.246 43.9361 L772.697 43.9361 L772.697 43.2069 Q772.697 38.0623 769.294 35.2672 Q765.932 32.4315 759.815 32.4315 Q755.926 32.4315 752.24 33.3632 Q748.554 34.295 745.151 36.1584 L745.151 29.2718 Q749.242 27.692 753.091 26.9223 Q756.939 26.1121 760.585 26.1121 Q770.428 26.1121 775.29 31.2163 Q780.151 36.3204 780.151 46.6907 Z" fill="#000000" fill-rule="nonzero" fill-opacity="1" /><path clip-path="url(#clip880)" d="M825.359 34.0924 L825.359 9.54393 L832.812 9.54393 L832.812 72.576 L825.359 72.576 L825.359 65.7705 Q823.009 69.8214 819.404 71.8063 Q815.839 73.7508 810.816 73.7508 Q802.593 73.7508 797.407 67.1883 Q792.263 60.6258 792.263 49.9314 Q792.263 39.2371 797.407 32.6746 Q802.593 26.1121 810.816 26.1121 Q815.839 26.1121 819.404 28.0971 Q823.009 30.0415 825.359 34.0924 M799.96 49.9314 Q799.96 58.1548 803.322 62.8538 Q806.725 67.5124 812.639 67.5124 Q818.553 67.5124 821.956 62.8538 Q825.359 58.1548 825.359 49.9314 Q825.359 41.7081 821.956 37.0496 Q818.553 32.3505 812.639 32.3505 Q806.725 32.3505 803.322 37.0496 Q799.96 41.7081 799.96 49.9314 Z" fill="#000000" fill-rule="nonzero" fill-opacity="1" /><path clip-path="url(#clip880)" d="M869.473 12.096 L877.737 12.096 L890.457 63.2184 L903.136 12.096 L912.332 12.096 L925.051 63.2184 L937.731 12.096 L946.035 12.096 L930.844 72.576 L920.555 72.576 L907.795 20.0763 L894.913 72.576 L884.623 72.576 L869.473 12.096 Z" fill="#000000" fill-rule="nonzero" fill-opacity="1" /><path clip-path="url(#clip880)" d="M990.514 48.0275 L990.514 51.6733 L956.243 51.6733 Q956.73 59.3701 960.861 63.421 Q965.034 67.4314 972.447 67.4314 Q976.741 67.4314 980.751 66.3781 Q984.802 65.3249 988.772 63.2184 L988.772 70.267 Q984.762 71.9684 980.549 72.8596 Q976.336 73.7508 972.001 73.7508 Q961.145 73.7508 954.785 67.4314 Q948.466 61.1119 948.466 50.3365 Q948.466 39.1965 954.461 32.6746 Q960.497 26.1121 970.705 26.1121 Q979.86 26.1121 985.167 32.0264 Q990.514 37.9003 990.514 48.0275 M983.06 45.84 Q982.979 39.7232 979.617 36.0774 Q976.295 32.4315 970.786 32.4315 Q964.548 32.4315 960.78 35.9558 Q957.054 39.4801 956.486 45.8805 L983.06 45.84 Z" fill="#000000" fill-rule="nonzero" fill-opacity="1" /><path clip-path="url(#clip880)" d="M1002.75 27.2059 L1010.2 27.2059 L1010.2 72.576 L1002.75 72.576 L1002.75 27.2059 M1002.75 9.54393 L1010.2 9.54393 L1010.2 18.9825 L1002.75 18.9825 L1002.75 9.54393 Z" fill="#000000" fill-rule="nonzero" fill-opacity="1" /><path clip-path="url(#clip880)" d="M1055.65 49.3643 Q1055.65 41.2625 1052.29 36.8065 Q1048.97 32.3505 1042.93 32.3505 Q1036.94 32.3505 1033.58 36.8065 Q1030.25 41.2625 1030.25 49.3643 Q1030.25 57.4256 1033.58 61.8816 Q1036.94 66.3376 1042.93 66.3376 Q1048.97 66.3376 1052.29 61.8816 Q1055.65 57.4256 1055.65 49.3643 M1063.11 66.9452 Q1063.11 78.5308 1057.96 84.1616 Q1052.82 89.8329 1042.2 89.8329 Q1038.27 89.8329 1034.79 89.2252 Q1031.31 88.6581 1028.03 87.4428 L1028.03 80.1917 Q1031.31 81.9741 1034.51 82.8248 Q1037.71 83.6755 1041.03 83.6755 Q1048.36 83.6755 1052.01 79.8271 Q1055.65 76.0193 1055.65 68.282 L1055.65 64.5957 Q1053.34 68.6061 1049.74 70.5911 Q1046.13 72.576 1041.11 72.576 Q1032.76 72.576 1027.66 66.2161 Q1022.56 59.8562 1022.56 49.3643 Q1022.56 38.832 1027.66 32.472 Q1032.76 26.1121 1041.11 26.1121 Q1046.13 26.1121 1049.74 28.0971 Q1053.34 30.082 1055.65 34.0924 L1055.65 27.2059 L1063.11 27.2059 L1063.11 66.9452 Z" fill="#000000" fill-rule="nonzero" fill-opacity="1" /><path clip-path="url(#clip880)" d="M1116.17 45.1919 L1116.17 72.576 L1108.72 72.576 L1108.72 45.4349 Q1108.72 38.994 1106.21 35.7938 Q1103.7 32.5936 1098.67 32.5936 Q1092.64 32.5936 1089.15 36.4419 Q1085.67 40.2903 1085.67 46.9338 L1085.67 72.576 L1078.18 72.576 L1078.18 9.54393 L1085.67 9.54393 L1085.67 34.2544 Q1088.34 30.163 1091.95 28.1376 Q1095.59 26.1121 1100.33 26.1121 Q1108.15 26.1121 1112.16 30.9732 Q1116.17 35.7938 1116.17 45.1919 Z" fill="#000000" fill-rule="nonzero" fill-opacity="1" /><path clip-path="url(#clip880)" d="M1138.41 14.324 L1138.41 27.2059 L1153.77 27.2059 L1153.77 32.9987 L1138.41 32.9987 L1138.41 57.6282 Q1138.41 63.1779 1139.91 64.7578 Q1141.45 66.3376 1146.11 66.3376 L1153.77 66.3376 L1153.77 72.576 L1146.11 72.576 Q1137.48 72.576 1134.2 69.3758 Q1130.92 66.1351 1130.92 57.6282 L1130.92 32.9987 L1125.45 32.9987 L1125.45 27.2059 L1130.92 27.2059 L1130.92 14.324 L1138.41 14.324 Z" fill="#000000" fill-rule="nonzero" fill-opacity="1" /><path clip-path="url(#clip880)" d="M1192.49 28.5427 L1192.49 35.5912 Q1189.33 33.9709 1185.93 33.1607 Q1182.53 32.3505 1178.88 32.3505 Q1173.33 32.3505 1170.54 34.0519 Q1167.78 35.7533 1167.78 39.156 Q1167.78 41.7486 1169.77 43.2475 Q1171.75 44.7058 1177.75 46.0426 L1180.3 46.6097 Q1188.24 48.3111 1191.56 51.4303 Q1194.92 54.509 1194.92 60.0587 Q1194.92 66.3781 1189.9 70.0644 Q1184.92 73.7508 1176.17 73.7508 Q1172.52 73.7508 1168.55 73.0216 Q1164.62 72.3329 1160.25 70.9151 L1160.25 63.2184 Q1164.38 65.3654 1168.39 66.4591 Q1172.4 67.5124 1176.33 67.5124 Q1181.6 67.5124 1184.43 65.73 Q1187.27 63.9071 1187.27 60.6258 Q1187.27 57.5877 1185.2 55.9673 Q1183.18 54.3469 1176.25 52.8481 L1173.66 52.2405 Q1166.73 50.7821 1163.65 47.7845 Q1160.57 44.7463 1160.57 39.4801 Q1160.57 33.0797 1165.11 29.5959 Q1169.65 26.1121 1177.99 26.1121 Q1182.12 26.1121 1185.77 26.7198 Q1189.41 27.3274 1192.49 28.5427 Z" fill="#000000" fill-rule="nonzero" fill-opacity="1" /><path clip-path="url(#clip880)" d="M1240.37 65.7705 L1240.37 89.8329 L1232.88 89.8329 L1232.88 27.2059 L1240.37 27.2059 L1240.37 34.0924 Q1242.72 30.0415 1246.29 28.0971 Q1249.89 26.1121 1254.88 26.1121 Q1263.14 26.1121 1268.28 32.6746 Q1273.47 39.2371 1273.47 49.9314 Q1273.47 60.6258 1268.28 67.1883 Q1263.14 73.7508 1254.88 73.7508 Q1249.89 73.7508 1246.29 71.8063 Q1242.72 69.8214 1240.37 65.7705 M1265.73 49.9314 Q1265.73 41.7081 1262.33 37.0496 Q1258.97 32.3505 1253.05 32.3505 Q1247.14 32.3505 1243.74 37.0496 Q1240.37 41.7081 1240.37 49.9314 Q1240.37 58.1548 1243.74 62.8538 Q1247.14 67.5124 1253.05 67.5124 Q1258.97 67.5124 1262.33 62.8538 Q1265.73 58.1548 1265.73 49.9314 Z" fill="#000000" fill-rule="nonzero" fill-opacity="1" /><path clip-path="url(#clip880)" d="M1324.63 48.0275 L1324.63 51.6733 L1290.36 51.6733 Q1290.85 59.3701 1294.98 63.421 Q1299.15 67.4314 1306.57 67.4314 Q1310.86 67.4314 1314.87 66.3781 Q1318.92 65.3249 1322.89 63.2184 L1322.89 70.267 Q1318.88 71.9684 1314.67 72.8596 Q1310.45 73.7508 1306.12 73.7508 Q1295.26 73.7508 1288.9 67.4314 Q1282.58 61.1119 1282.58 50.3365 Q1282.58 39.1965 1288.58 32.6746 Q1294.62 26.1121 1304.82 26.1121 Q1313.98 26.1121 1319.29 32.0264 Q1324.63 37.9003 1324.63 48.0275 M1317.18 45.84 Q1317.1 39.7232 1313.74 36.0774 Q1310.41 32.4315 1304.9 32.4315 Q1298.67 32.4315 1294.9 35.9558 Q1291.17 39.4801 1290.61 45.8805 L1317.18 45.84 Z" fill="#000000" fill-rule="nonzero" fill-opacity="1" /><path clip-path="url(#clip880)" d="M1363.16 34.1734 Q1361.9 33.4443 1360.4 33.1202 Q1358.94 32.7556 1357.16 32.7556 Q1350.84 32.7556 1347.44 36.8875 Q1344.08 40.9789 1344.08 48.6757 L1344.08 72.576 L1336.58 72.576 L1336.58 27.2059 L1344.08 27.2059 L1344.08 34.2544 Q1346.43 30.1225 1350.19 28.1376 Q1353.96 26.1121 1359.35 26.1121 Q1360.12 26.1121 1361.05 26.2337 Q1361.98 26.3147 1363.12 26.5172 L1363.16 34.1734 Z" fill="#000000" fill-rule="nonzero" fill-opacity="1" /><path clip-path="url(#clip880)" d="M1397.67 12.096 L1405.85 12.096 L1405.85 65.6895 L1435.3 65.6895 L1435.3 72.576 L1397.67 72.576 L1397.67 12.096 Z" fill="#000000" fill-rule="nonzero" fill-opacity="1" /><path clip-path="url(#clip880)" d="M1459.69 32.4315 Q1453.69 32.4315 1450.21 37.1306 Q1446.73 41.7891 1446.73 49.9314 Q1446.73 58.0738 1450.17 62.7728 Q1453.65 67.4314 1459.69 67.4314 Q1465.64 67.4314 1469.13 62.7323 Q1472.61 58.0333 1472.61 49.9314 Q1472.61 41.8701 1469.13 37.1711 Q1465.64 32.4315 1459.69 32.4315 M1459.69 26.1121 Q1469.41 26.1121 1474.96 32.4315 Q1480.51 38.7509 1480.51 49.9314 Q1480.51 61.0714 1474.96 67.4314 Q1469.41 73.7508 1459.69 73.7508 Q1449.93 73.7508 1444.38 67.4314 Q1438.87 61.0714 1438.87 49.9314 Q1438.87 38.7509 1444.38 32.4315 Q1449.93 26.1121 1459.69 26.1121 Z" fill="#000000" fill-rule="nonzero" fill-opacity="1" /><path clip-path="url(#clip880)" d="M1513.49 49.7694 Q1504.45 49.7694 1500.97 51.8354 Q1497.48 53.9013 1497.48 58.8839 Q1497.48 62.8538 1500.08 65.2034 Q1502.71 67.5124 1507.21 67.5124 Q1513.4 67.5124 1517.13 63.1374 Q1520.9 58.7219 1520.9 51.4303 L1520.9 49.7694 L1513.49 49.7694 M1528.35 46.6907 L1528.35 72.576 L1520.9 72.576 L1520.9 65.6895 Q1518.35 69.8214 1514.54 71.8063 Q1510.73 73.7508 1505.22 73.7508 Q1498.25 73.7508 1494.12 69.8619 Q1490.03 65.9325 1490.03 59.3701 Q1490.03 51.7138 1495.14 47.825 Q1500.28 43.9361 1510.45 43.9361 L1520.9 43.9361 L1520.9 43.2069 Q1520.9 38.0623 1517.5 35.2672 Q1514.13 32.4315 1508.02 32.4315 Q1504.13 32.4315 1500.44 33.3632 Q1496.76 34.295 1493.35 36.1584 L1493.35 29.2718 Q1497.44 27.692 1501.29 26.9223 Q1505.14 26.1121 1508.79 26.1121 Q1518.63 26.1121 1523.49 31.2163 Q1528.35 36.3204 1528.35 46.6907 Z" fill="#000000" fill-rule="nonzero" fill-opacity="1" /><path clip-path="url(#clip880)" d="M1573.56 34.0924 L1573.56 9.54393 L1581.01 9.54393 L1581.01 72.576 L1573.56 72.576 L1573.56 65.7705 Q1571.21 69.8214 1567.61 71.8063 Q1564.04 73.7508 1559.02 73.7508 Q1550.79 73.7508 1545.61 67.1883 Q1540.46 60.6258 1540.46 49.9314 Q1540.46 39.2371 1545.61 32.6746 Q1550.79 26.1121 1559.02 26.1121 Q1564.04 26.1121 1567.61 28.0971 Q1571.21 30.0415 1573.56 34.0924 M1548.16 49.9314 Q1548.16 58.1548 1551.52 62.8538 Q1554.93 67.5124 1560.84 67.5124 Q1566.76 67.5124 1570.16 62.8538 Q1573.56 58.1548 1573.56 49.9314 Q1573.56 41.7081 1570.16 37.0496 Q1566.76 32.3505 1560.84 32.3505 Q1554.93 32.3505 1551.52 37.0496 Q1548.16 41.7081 1548.16 49.9314 Z" fill="#000000" fill-rule="nonzero" fill-opacity="1" /><path clip-path="url(#clip880)" d="M1618.97 46.5287 L1640.81 46.5287 L1640.81 53.1722 L1618.97 53.1722 L1618.97 46.5287 Z" fill="#000000" fill-rule="nonzero" fill-opacity="1" /><path clip-path="url(#clip880)" d="M1679.37 12.096 L1687.55 12.096 L1687.55 72.576 L1679.37 72.576 L1679.37 12.096 Z" fill="#000000" fill-rule="nonzero" fill-opacity="1" /><path clip-path="url(#clip880)" d="M1710.89 14.324 L1710.89 27.2059 L1726.24 27.2059 L1726.24 32.9987 L1710.89 32.9987 L1710.89 57.6282 Q1710.89 63.1779 1712.39 64.7578 Q1713.92 66.3376 1718.58 66.3376 L1726.24 66.3376 L1726.24 72.576 L1718.58 72.576 Q1709.95 72.576 1706.67 69.3758 Q1703.39 66.1351 1703.39 57.6282 L1703.39 32.9987 L1697.92 32.9987 L1697.92 27.2059 L1703.39 27.2059 L1703.39 14.324 L1710.89 14.324 Z" fill="#000000" fill-rule="nonzero" fill-opacity="1" /><path clip-path="url(#clip880)" d="M1774.85 48.0275 L1774.85 51.6733 L1740.58 51.6733 Q1741.07 59.3701 1745.2 63.421 Q1749.37 67.4314 1756.78 67.4314 Q1761.08 67.4314 1765.09 66.3781 Q1769.14 65.3249 1773.11 63.2184 L1773.11 70.267 Q1769.1 71.9684 1764.88 72.8596 Q1760.67 73.7508 1756.34 73.7508 Q1745.48 73.7508 1739.12 67.4314 Q1732.8 61.1119 1732.8 50.3365 Q1732.8 39.1965 1738.8 32.6746 Q1744.83 26.1121 1755.04 26.1121 Q1764.2 26.1121 1769.5 32.0264 Q1774.85 37.9003 1774.85 48.0275 M1767.4 45.84 Q1767.32 39.7232 1763.95 36.0774 Q1760.63 32.4315 1755.12 32.4315 Q1748.88 32.4315 1745.12 35.9558 Q1741.39 39.4801 1740.82 45.8805 L1767.4 45.84 Z" fill="#000000" fill-rule="nonzero" fill-opacity="1" /><path clip-path="url(#clip880)" d="M1813.37 34.1734 Q1812.12 33.4443 1810.62 33.1202 Q1809.16 32.7556 1807.38 32.7556 Q1801.06 32.7556 1797.66 36.8875 Q1794.29 40.9789 1794.29 48.6757 L1794.29 72.576 L1786.8 72.576 L1786.8 27.2059 L1794.29 27.2059 L1794.29 34.2544 Q1796.64 30.1225 1800.41 28.1376 Q1804.18 26.1121 1809.57 26.1121 Q1810.34 26.1121 1811.27 26.2337 Q1812.2 26.3147 1813.33 26.5172 L1813.37 34.1734 Z" fill="#000000" fill-rule="nonzero" fill-opacity="1" /><path clip-path="url(#clip880)" d="M1841.81 49.7694 Q1832.78 49.7694 1829.29 51.8354 Q1825.81 53.9013 1825.81 58.8839 Q1825.81 62.8538 1828.4 65.2034 Q1831.04 67.5124 1835.53 67.5124 Q1841.73 67.5124 1845.46 63.1374 Q1849.22 58.7219 1849.22 51.4303 L1849.22 49.7694 L1841.81 49.7694 M1856.68 46.6907 L1856.68 72.576 L1849.22 72.576 L1849.22 65.6895 Q1846.67 69.8214 1842.86 71.8063 Q1839.06 73.7508 1833.55 73.7508 Q1826.58 73.7508 1822.45 69.8619 Q1818.36 65.9325 1818.36 59.3701 Q1818.36 51.7138 1823.46 47.825 Q1828.61 43.9361 1838.77 43.9361 L1849.22 43.9361 L1849.22 43.2069 Q1849.22 38.0623 1845.82 35.2672 Q1842.46 32.4315 1836.34 32.4315 Q1832.45 32.4315 1828.77 33.3632 Q1825.08 34.295 1821.68 36.1584 L1821.68 29.2718 Q1825.77 27.692 1829.62 26.9223 Q1833.47 26.1121 1837.11 26.1121 Q1846.96 26.1121 1851.82 31.2163 Q1856.68 36.3204 1856.68 46.6907 Z" fill="#000000" fill-rule="nonzero" fill-opacity="1" /><path clip-path="url(#clip880)" d="M1879.4 14.324 L1879.4 27.2059 L1894.76 27.2059 L1894.76 32.9987 L1879.4 32.9987 L1879.4 57.6282 Q1879.4 63.1779 1880.9 64.7578 Q1882.44 66.3376 1887.1 66.3376 L1894.76 66.3376 L1894.76 72.576 L1887.1 72.576 Q1878.47 72.576 1875.19 69.3758 Q1871.91 66.1351 1871.91 57.6282 L1871.91 32.9987 L1866.44 32.9987 L1866.44 27.2059 L1871.91 27.2059 L1871.91 14.324 L1879.4 14.324 Z" fill="#000000" fill-rule="nonzero" fill-opacity="1" /><path clip-path="url(#clip880)" d="M1904.56 27.2059 L1912.01 27.2059 L1912.01 72.576 L1904.56 72.576 L1904.56 27.2059 M1904.56 9.54393 L1912.01 9.54393 L1912.01 18.9825 L1904.56 18.9825 L1904.56 9.54393 Z" fill="#000000" fill-rule="nonzero" fill-opacity="1" /><path clip-path="url(#clip880)" d="M1945.19 32.4315 Q1939.2 32.4315 1935.71 37.1306 Q1932.23 41.7891 1932.23 49.9314 Q1932.23 58.0738 1935.67 62.7728 Q1939.15 67.4314 1945.19 67.4314 Q1951.15 67.4314 1954.63 62.7323 Q1958.11 58.0333 1958.11 49.9314 Q1958.11 41.8701 1954.63 37.1711 Q1951.15 32.4315 1945.19 32.4315 M1945.19 26.1121 Q1954.91 26.1121 1960.46 32.4315 Q1966.01 38.7509 1966.01 49.9314 Q1966.01 61.0714 1960.46 67.4314 Q1954.91 73.7508 1945.19 73.7508 Q1935.43 73.7508 1929.88 67.4314 Q1924.37 61.0714 1924.37 49.9314 Q1924.37 38.7509 1929.88 32.4315 Q1935.43 26.1121 1945.19 26.1121 Z" fill="#000000" fill-rule="nonzero" fill-opacity="1" /><path clip-path="url(#clip880)" d="M2016.08 45.1919 L2016.08 72.576 L2008.63 72.576 L2008.63 45.4349 Q2008.63 38.994 2006.12 35.7938 Q2003.6 32.5936 1998.58 32.5936 Q1992.55 32.5936 1989.06 36.4419 Q1985.58 40.2903 1985.58 46.9338 L1985.58 72.576 L1978.08 72.576 L1978.08 27.2059 L1985.58 27.2059 L1985.58 34.2544 Q1988.25 30.163 1991.86 28.1376 Q1995.5 26.1121 2000.24 26.1121 Q2008.06 26.1121 2012.07 30.9732 Q2016.08 35.7938 2016.08 45.1919 Z" fill="#000000" fill-rule="nonzero" fill-opacity="1" /><path clip-path="url(#clip880)" d="M2080.86 19.2256 L2060.2 51.5113 L2080.86 51.5113 L2080.86 19.2256 M2078.71 12.096 L2089 12.096 L2089 51.5113 L2097.63 51.5113 L2097.63 58.3168 L2089 58.3168 L2089 72.576 L2080.86 72.576 L2080.86 58.3168 L2053.55 58.3168 L2053.55 50.4176 L2078.71 12.096 Z" fill="#000000" fill-rule="nonzero" fill-opacity="1" /><path clip-path="url(#clip882)" d="M850.223 596.048 L850.223 1423.18 L952.832 1423.18 L952.832 596.048 L850.223 596.048 L850.223 596.048  Z" fill="#009af9" fill-rule="evenodd" fill-opacity="1"/>
<polyline clip-path="url(#clip882)" style="stroke:#000000; stroke-linecap:round; stroke-linejoin:round; stroke-width:4; stroke-opacity:1; fill:none" points="850.223,596.048 850.223,1423.18 952.832,1423.18 952.832,596.048 850.223,596.048 "/>
<path clip-path="url(#clip882)" d="M1748.05 532.448 L1748.05 1423.18 L1850.66 1423.18 L1850.66 532.448 L1748.05 532.448 L1748.05 532.448  Z" fill="#009af9" fill-rule="evenodd" fill-opacity="1"/>
<polyline clip-path="url(#clip882)" style="stroke:#000000; stroke-linecap:round; stroke-linejoin:round; stroke-width:4; stroke-opacity:1; fill:none" points="1748.05,532.448 1748.05,1423.18 1850.66,1423.18 1850.66,532.448 1748.05,532.448 "/>
<path clip-path="url(#clip882)" d="M1235.01 160.543 L1235.01 1423.18 L1337.62 1423.18 L1337.62 160.543 L1235.01 160.543 L1235.01 160.543  Z" fill="#009af9" fill-rule="evenodd" fill-opacity="1"/>
<polyline clip-path="url(#clip882)" style="stroke:#000000; stroke-linecap:round; stroke-linejoin:round; stroke-width:4; stroke-opacity:1; fill:none" points="1235.01,160.543 1235.01,1423.18 1337.62,1423.18 1337.62,160.543 1235.01,160.543 "/>
<path clip-path="url(#clip882)" d="M337.179 160.722 L337.179 1423.18 L439.788 1423.18 L439.788 160.722 L337.179 160.722 L337.179 160.722  Z" fill="#009af9" fill-rule="evenodd" fill-opacity="1"/>
<polyline clip-path="url(#clip882)" style="stroke:#000000; stroke-linecap:round; stroke-linejoin:round; stroke-width:4; stroke-opacity:1; fill:none" points="337.179,160.722 337.179,1423.18 439.788,1423.18 439.788,160.722 337.179,160.722 "/>
<path clip-path="url(#clip882)" d="M978.484 334.393 L978.484 1423.18 L1081.09 1423.18 L1081.09 334.393 L978.484 334.393 L978.484 334.393  Z" fill="#009af9" fill-rule="evenodd" fill-opacity="1"/>
<polyline clip-path="url(#clip882)" style="stroke:#000000; stroke-linecap:round; stroke-linejoin:round; stroke-width:4; stroke-opacity:1; fill:none" points="978.484,334.393 978.484,1423.18 1081.09,1423.18 1081.09,334.393 978.484,334.393 "/>
<path clip-path="url(#clip882)" d="M1619.79 165.48 L1619.79 1423.18 L1722.4 1423.18 L1722.4 165.48 L1619.79 165.48 L1619.79 165.48  Z" fill="#009af9" fill-rule="evenodd" fill-opacity="1"/>
<polyline clip-path="url(#clip882)" style="stroke:#000000; stroke-linecap:round; stroke-linejoin:round; stroke-width:4; stroke-opacity:1; fill:none" points="1619.79,165.48 1619.79,1423.18 1722.4,1423.18 1722.4,165.48 1619.79,165.48 "/>
<path clip-path="url(#clip882)" d="M1363.27 550.962 L1363.27 1423.18 L1465.88 1423.18 L1465.88 550.962 L1363.27 550.962 L1363.27 550.962  Z" fill="#009af9" fill-rule="evenodd" fill-opacity="1"/>
<polyline clip-path="url(#clip882)" style="stroke:#000000; stroke-linecap:round; stroke-linejoin:round; stroke-width:4; stroke-opacity:1; fill:none" points="1363.27,550.962 1363.27,1423.18 1465.88,1423.18 1465.88,550.962 1363.27,550.962 "/>
<path clip-path="url(#clip882)" d="M2004.57 810.768 L2004.57 1423.18 L2107.18 1423.18 L2107.18 810.768 L2004.57 810.768 L2004.57 810.768  Z" fill="#009af9" fill-rule="evenodd" fill-opacity="1"/>
<polyline clip-path="url(#clip882)" style="stroke:#000000; stroke-linecap:round; stroke-linejoin:round; stroke-width:4; stroke-opacity:1; fill:none" points="2004.57,810.768 2004.57,1423.18 2107.18,1423.18 2107.18,810.768 2004.57,810.768 "/>
<path clip-path="url(#clip882)" d="M593.701 1423.13 L593.701 1423.18 L696.31 1423.18 L696.31 1423.13 L593.701 1423.13 L593.701 1423.13  Z" fill="#009af9" fill-rule="evenodd" fill-opacity="1"/>
<polyline clip-path="url(#clip882)" style="stroke:#000000; stroke-linecap:round; stroke-linejoin:round; stroke-width:4; stroke-opacity:1; fill:none" points="593.701,1423.13 593.701,1423.18 696.31,1423.18 696.31,1423.13 593.701,1423.13 "/>
<path clip-path="url(#clip882)" d="M1106.75 123.472 L1106.75 1423.18 L1209.35 1423.18 L1209.35 123.472 L1106.75 123.472 L1106.75 123.472  Z" fill="#009af9" fill-rule="evenodd" fill-opacity="1"/>
<polyline clip-path="url(#clip882)" style="stroke:#000000; stroke-linecap:round; stroke-linejoin:round; stroke-width:4; stroke-opacity:1; fill:none" points="1106.75,123.472 1106.75,1423.18 1209.35,1423.18 1209.35,123.472 1106.75,123.472 "/>
<path clip-path="url(#clip882)" d="M721.962 796.748 L721.962 1423.18 L824.571 1423.18 L824.571 796.748 L721.962 796.748 L721.962 796.748  Z" fill="#009af9" fill-rule="evenodd" fill-opacity="1"/>
<polyline clip-path="url(#clip882)" style="stroke:#000000; stroke-linecap:round; stroke-linejoin:round; stroke-width:4; stroke-opacity:1; fill:none" points="721.962,796.748 721.962,1423.18 824.571,1423.18 824.571,796.748 721.962,796.748 "/>
<path clip-path="url(#clip882)" d="M1876.31 190.474 L1876.31 1423.18 L1978.92 1423.18 L1978.92 190.474 L1876.31 190.474 L1876.31 190.474  Z" fill="#009af9" fill-rule="evenodd" fill-opacity="1"/>
<polyline clip-path="url(#clip882)" style="stroke:#000000; stroke-linecap:round; stroke-linejoin:round; stroke-width:4; stroke-opacity:1; fill:none" points="1876.31,190.474 1876.31,1423.18 1978.92,1423.18 1978.92,190.474 1876.31,190.474 "/>
<path clip-path="url(#clip882)" d="M2132.83 493.359 L2132.83 1423.18 L2235.44 1423.18 L2235.44 493.359 L2132.83 493.359 L2132.83 493.359  Z" fill="#009af9" fill-rule="evenodd" fill-opacity="1"/>
<polyline clip-path="url(#clip882)" style="stroke:#000000; stroke-linecap:round; stroke-linejoin:round; stroke-width:4; stroke-opacity:1; fill:none" points="2132.83,493.359 2132.83,1423.18 2235.44,1423.18 2235.44,493.359 2132.83,493.359 "/>
<path clip-path="url(#clip882)" d="M465.44 194.262 L465.44 1423.18 L568.049 1423.18 L568.049 194.262 L465.44 194.262 L465.44 194.262  Z" fill="#009af9" fill-rule="evenodd" fill-opacity="1"/>
<polyline clip-path="url(#clip882)" style="stroke:#000000; stroke-linecap:round; stroke-linejoin:round; stroke-width:4; stroke-opacity:1; fill:none" points="465.44,194.262 465.44,1423.18 568.049,1423.18 568.049,194.262 465.44,194.262 "/>
<path clip-path="url(#clip882)" d="M1491.53 549.93 L1491.53 1423.18 L1594.14 1423.18 L1594.14 549.93 L1491.53 549.93 L1491.53 549.93  Z" fill="#009af9" fill-rule="evenodd" fill-opacity="1"/>
<polyline clip-path="url(#clip882)" style="stroke:#000000; stroke-linecap:round; stroke-linejoin:round; stroke-width:4; stroke-opacity:1; fill:none" points="1491.53,549.93 1491.53,1423.18 1594.14,1423.18 1594.14,549.93 1491.53,549.93 "/>
<circle clip-path="url(#clip882)" style="fill:#009af9; stroke:none; fill-opacity:0" cx="901.528" cy="596.048" r="2"/>
<circle clip-path="url(#clip882)" style="fill:#009af9; stroke:none; fill-opacity:0" cx="1799.36" cy="532.448" r="2"/>
<circle clip-path="url(#clip882)" style="fill:#009af9; stroke:none; fill-opacity:0" cx="1286.31" cy="160.543" r="2"/>
<circle clip-path="url(#clip882)" style="fill:#009af9; stroke:none; fill-opacity:0" cx="388.483" cy="160.722" r="2"/>
<circle clip-path="url(#clip882)" style="fill:#009af9; stroke:none; fill-opacity:0" cx="1029.79" cy="334.393" r="2"/>
<circle clip-path="url(#clip882)" style="fill:#009af9; stroke:none; fill-opacity:0" cx="1671.09" cy="165.48" r="2"/>
<circle clip-path="url(#clip882)" style="fill:#009af9; stroke:none; fill-opacity:0" cx="1414.57" cy="550.962" r="2"/>
<circle clip-path="url(#clip882)" style="fill:#009af9; stroke:none; fill-opacity:0" cx="2055.88" cy="810.768" r="2"/>
<circle clip-path="url(#clip882)" style="fill:#009af9; stroke:none; fill-opacity:0" cx="645.006" cy="1423.13" r="2"/>
<circle clip-path="url(#clip882)" style="fill:#009af9; stroke:none; fill-opacity:0" cx="1158.05" cy="123.472" r="2"/>
<circle clip-path="url(#clip882)" style="fill:#009af9; stroke:none; fill-opacity:0" cx="773.267" cy="796.748" r="2"/>
<circle clip-path="url(#clip882)" style="fill:#009af9; stroke:none; fill-opacity:0" cx="1927.62" cy="190.474" r="2"/>
<circle clip-path="url(#clip882)" style="fill:#009af9; stroke:none; fill-opacity:0" cx="2184.14" cy="493.359" r="2"/>
<circle clip-path="url(#clip882)" style="fill:#009af9; stroke:none; fill-opacity:0" cx="516.745" cy="194.262" r="2"/>
<circle clip-path="url(#clip882)" style="fill:#009af9; stroke:none; fill-opacity:0" cx="1542.83" cy="549.93" r="2"/>
</svg>
