<?xml version="1.0" encoding="utf-8"?>
<svg xmlns="http://www.w3.org/2000/svg" xmlns:xlink="http://www.w3.org/1999/xlink" width="600" height="400" viewBox="0 0 2400 1600">
<defs>
  <clipPath id="clip640">
    <rect x="0" y="0" width="2400" height="1600"/>
  </clipPath>
</defs>
<path clip-path="url(#clip640)" d="M0 1600 L2400 1600 L2400 0 L0 0  Z" fill="#ffffff" fill-rule="evenodd" fill-opacity="1"/>
<defs>
  <clipPath id="clip641">
    <rect x="480" y="0" width="1681" height="1600"/>
  </clipPath>
</defs>
<path clip-path="url(#clip640)" d="M337.944 1423.18 L2352.76 1423.18 L2352.76 123.472 L337.944 123.472  Z" fill="#ffffff" fill-rule="evenodd" fill-opacity="1"/>
<defs>
  <clipPath id="clip642">
    <rect x="337" y="123" width="2016" height="1301"/>
  </clipPath>
</defs>
<polyline clip-path="url(#clip642)" style="stroke:#000000; stroke-linecap:round; stroke-linejoin:round; stroke-width:2; stroke-opacity:0.1; fill:none" points="394.967,1423.18 394.967,123.472 "/>
<polyline clip-path="url(#clip642)" style="stroke:#000000; stroke-linecap:round; stroke-linejoin:round; stroke-width:2; stroke-opacity:0.1; fill:none" points="870.159,1423.18 870.159,123.472 "/>
<polyline clip-path="url(#clip642)" style="stroke:#000000; stroke-linecap:round; stroke-linejoin:round; stroke-width:2; stroke-opacity:0.1; fill:none" points="1345.35,1423.18 1345.35,123.472 "/>
<polyline clip-path="url(#clip642)" style="stroke:#000000; stroke-linecap:round; stroke-linejoin:round; stroke-width:2; stroke-opacity:0.1; fill:none" points="1820.54,1423.18 1820.54,123.472 "/>
<polyline clip-path="url(#clip642)" style="stroke:#000000; stroke-linecap:round; stroke-linejoin:round; stroke-width:2; stroke-opacity:0.1; fill:none" points="2295.73,1423.18 2295.73,123.472 "/>
<polyline clip-path="url(#clip642)" style="stroke:#000000; stroke-linecap:round; stroke-linejoin:round; stroke-width:2; stroke-opacity:0.1; fill:none" points="337.944,1418.44 2352.76,1418.44 "/>
<polyline clip-path="url(#clip642)" style="stroke:#000000; stroke-linecap:round; stroke-linejoin:round; stroke-width:2; stroke-opacity:0.1; fill:none" points="337.944,1111.91 2352.76,1111.91 "/>
<polyline clip-path="url(#clip642)" style="stroke:#000000; stroke-linecap:round; stroke-linejoin:round; stroke-width:2; stroke-opacity:0.1; fill:none" points="337.944,805.371 2352.76,805.371 "/>
<polyline clip-path="url(#clip642)" style="stroke:#000000; stroke-linecap:round; stroke-linejoin:round; stroke-width:2; stroke-opacity:0.1; fill:none" points="337.944,498.836 2352.76,498.836 "/>
<polyline clip-path="url(#clip642)" style="stroke:#000000; stroke-linecap:round; stroke-linejoin:round; stroke-width:2; stroke-opacity:0.1; fill:none" points="337.944,192.302 2352.76,192.302 "/>
<polyline clip-path="url(#clip640)" style="stroke:#000000; stroke-linecap:round; stroke-linejoin:round; stroke-width:4; stroke-opacity:1; fill:none" points="337.944,1423.18 2352.76,1423.18 "/>
<polyline clip-path="url(#clip640)" style="stroke:#000000; stroke-linecap:round; stroke-linejoin:round; stroke-width:4; stroke-opacity:1; fill:none" points="394.967,1423.18 394.967,1404.28 "/>
<polyline clip-path="url(#clip640)" style="stroke:#000000; stroke-linecap:round; stroke-linejoin:round; stroke-width:4; stroke-opacity:1; fill:none" points="870.159,1423.18 870.159,1404.28 "/>
<polyline clip-path="url(#clip640)" style="stroke:#000000; stroke-linecap:round; stroke-linejoin:round; stroke-width:4; stroke-opacity:1; fill:none" points="1345.35,1423.18 1345.35,1404.28 "/>
<polyline clip-path="url(#clip640)" style="stroke:#000000; stroke-linecap:round; stroke-linejoin:round; stroke-width:4; stroke-opacity:1; fill:none" points="1820.54,1423.18 1820.54,1404.28 "/>
<polyline clip-path="url(#clip640)" style="stroke:#000000; stroke-linecap:round; stroke-linejoin:round; stroke-width:4; stroke-opacity:1; fill:none" points="2295.73,1423.18 2295.73,1404.28 "/>
<path clip-path="url(#clip640)" d="M347.039 1481.64 L354.678 1481.64 L354.678 1455.28 L346.368 1456.95 L346.368 1452.69 L354.632 1451.02 L359.308 1451.02 L359.308 1481.64 L366.947 1481.64 L366.947 1485.58 L347.039 1485.58 L347.039 1481.64 Z" fill="#000000" fill-rule="nonzero" fill-opacity="1" /><path clip-path="url(#clip640)" d="M376.391 1479.7 L381.275 1479.7 L381.275 1485.58 L376.391 1485.58 L376.391 1479.7 Z" fill="#000000" fill-rule="nonzero" fill-opacity="1" /><path clip-path="url(#clip640)" d="M401.46 1454.1 Q397.849 1454.1 396.021 1457.66 Q394.215 1461.2 394.215 1468.33 Q394.215 1475.44 396.021 1479.01 Q397.849 1482.55 401.46 1482.55 Q405.095 1482.55 406.9 1479.01 Q408.729 1475.44 408.729 1468.33 Q408.729 1461.2 406.9 1457.66 Q405.095 1454.1 401.46 1454.1 M401.46 1450.39 Q407.27 1450.39 410.326 1455 Q413.405 1459.58 413.405 1468.33 Q413.405 1477.06 410.326 1481.67 Q407.27 1486.25 401.46 1486.25 Q395.65 1486.25 392.571 1481.67 Q389.516 1477.06 389.516 1468.33 Q389.516 1459.58 392.571 1455 Q395.65 1450.39 401.46 1450.39 Z" fill="#000000" fill-rule="nonzero" fill-opacity="1" /><path clip-path="url(#clip640)" d="M431.622 1454.1 Q428.011 1454.1 426.182 1457.66 Q424.377 1461.2 424.377 1468.33 Q424.377 1475.44 426.182 1479.01 Q428.011 1482.55 431.622 1482.55 Q435.256 1482.55 437.062 1479.01 Q438.891 1475.44 438.891 1468.33 Q438.891 1461.2 437.062 1457.66 Q435.256 1454.1 431.622 1454.1 M431.622 1450.39 Q437.432 1450.39 440.488 1455 Q443.567 1459.58 443.567 1468.33 Q443.567 1477.06 440.488 1481.67 Q437.432 1486.25 431.622 1486.25 Q425.812 1486.25 422.733 1481.67 Q419.678 1477.06 419.678 1468.33 Q419.678 1459.58 422.733 1455 Q425.812 1450.39 431.622 1450.39 Z" fill="#000000" fill-rule="nonzero" fill-opacity="1" /><path clip-path="url(#clip640)" d="M822.728 1481.64 L830.367 1481.64 L830.367 1455.28 L822.057 1456.95 L822.057 1452.69 L830.321 1451.02 L834.997 1451.02 L834.997 1481.64 L842.636 1481.64 L842.636 1485.58 L822.728 1485.58 L822.728 1481.64 Z" fill="#000000" fill-rule="nonzero" fill-opacity="1" /><path clip-path="url(#clip640)" d="M852.08 1479.7 L856.964 1479.7 L856.964 1485.58 L852.08 1485.58 L852.08 1479.7 Z" fill="#000000" fill-rule="nonzero" fill-opacity="1" /><path clip-path="url(#clip640)" d="M871.177 1481.64 L887.497 1481.64 L887.497 1485.58 L865.552 1485.58 L865.552 1481.64 Q868.214 1478.89 872.798 1474.26 Q877.404 1469.61 878.585 1468.27 Q880.83 1465.74 881.71 1464.01 Q882.612 1462.25 882.612 1460.56 Q882.612 1457.8 880.668 1456.07 Q878.747 1454.33 875.645 1454.33 Q873.446 1454.33 870.992 1455.09 Q868.561 1455.86 865.784 1457.41 L865.784 1452.69 Q868.608 1451.55 871.061 1450.97 Q873.515 1450.39 875.552 1450.39 Q880.923 1450.39 884.117 1453.08 Q887.311 1455.77 887.311 1460.26 Q887.311 1462.39 886.501 1464.31 Q885.714 1466.2 883.608 1468.8 Q883.029 1469.47 879.927 1472.69 Q876.825 1475.88 871.177 1481.64 Z" fill="#000000" fill-rule="nonzero" fill-opacity="1" /><path clip-path="url(#clip640)" d="M897.358 1451.02 L915.714 1451.02 L915.714 1454.96 L901.64 1454.96 L901.64 1463.43 Q902.659 1463.08 903.677 1462.92 Q904.696 1462.73 905.714 1462.73 Q911.501 1462.73 914.881 1465.9 Q918.26 1469.08 918.26 1474.49 Q918.26 1480.07 914.788 1483.17 Q911.316 1486.25 904.996 1486.25 Q902.821 1486.25 900.552 1485.88 Q898.307 1485.51 895.899 1484.77 L895.899 1480.07 Q897.983 1481.2 900.205 1481.76 Q902.427 1482.32 904.904 1482.32 Q908.909 1482.32 911.246 1480.21 Q913.584 1478.1 913.584 1474.49 Q913.584 1470.88 911.246 1468.77 Q908.909 1466.67 904.904 1466.67 Q903.029 1466.67 901.154 1467.08 Q899.302 1467.5 897.358 1468.38 L897.358 1451.02 Z" fill="#000000" fill-rule="nonzero" fill-opacity="1" /><path clip-path="url(#clip640)" d="M1297.42 1481.64 L1305.06 1481.64 L1305.06 1455.28 L1296.75 1456.95 L1296.75 1452.69 L1305.01 1451.02 L1309.69 1451.02 L1309.69 1481.64 L1317.33 1481.64 L1317.33 1485.58 L1297.42 1485.58 L1297.42 1481.64 Z" fill="#000000" fill-rule="nonzero" fill-opacity="1" /><path clip-path="url(#clip640)" d="M1326.77 1479.7 L1331.66 1479.7 L1331.66 1485.58 L1326.77 1485.58 L1326.77 1479.7 Z" fill="#000000" fill-rule="nonzero" fill-opacity="1" /><path clip-path="url(#clip640)" d="M1341.89 1451.02 L1360.25 1451.02 L1360.25 1454.96 L1346.17 1454.96 L1346.17 1463.43 Q1347.19 1463.08 1348.21 1462.92 Q1349.23 1462.73 1350.25 1462.73 Q1356.03 1462.73 1359.41 1465.9 Q1362.79 1469.08 1362.79 1474.49 Q1362.79 1480.07 1359.32 1483.17 Q1355.85 1486.25 1349.53 1486.25 Q1347.35 1486.25 1345.08 1485.88 Q1342.84 1485.51 1340.43 1484.77 L1340.43 1480.07 Q1342.51 1481.2 1344.74 1481.76 Q1346.96 1482.32 1349.44 1482.32 Q1353.44 1482.32 1355.78 1480.21 Q1358.12 1478.1 1358.12 1474.49 Q1358.12 1470.88 1355.78 1468.77 Q1353.44 1466.67 1349.44 1466.67 Q1347.56 1466.67 1345.69 1467.08 Q1343.83 1467.5 1341.89 1468.38 L1341.89 1451.02 Z" fill="#000000" fill-rule="nonzero" fill-opacity="1" /><path clip-path="url(#clip640)" d="M1382.01 1454.1 Q1378.39 1454.1 1376.57 1457.66 Q1374.76 1461.2 1374.76 1468.33 Q1374.76 1475.44 1376.57 1479.01 Q1378.39 1482.55 1382.01 1482.55 Q1385.64 1482.55 1387.44 1479.01 Q1389.27 1475.44 1389.27 1468.33 Q1389.27 1461.2 1387.44 1457.66 Q1385.64 1454.1 1382.01 1454.1 M1382.01 1450.39 Q1387.82 1450.39 1390.87 1455 Q1393.95 1459.58 1393.95 1468.33 Q1393.95 1477.06 1390.87 1481.67 Q1387.82 1486.25 1382.01 1486.25 Q1376.19 1486.25 1373.12 1481.67 Q1370.06 1477.06 1370.06 1468.33 Q1370.06 1459.58 1373.12 1455 Q1376.19 1450.39 1382.01 1450.39 Z" fill="#000000" fill-rule="nonzero" fill-opacity="1" /><path clip-path="url(#clip640)" d="M1773.11 1481.64 L1780.75 1481.64 L1780.75 1455.28 L1772.44 1456.95 L1772.44 1452.69 L1780.7 1451.02 L1785.38 1451.02 L1785.38 1481.64 L1793.02 1481.64 L1793.02 1485.58 L1773.11 1485.58 L1773.11 1481.64 Z" fill="#000000" fill-rule="nonzero" fill-opacity="1" /><path clip-path="url(#clip640)" d="M1802.46 1479.7 L1807.35 1479.7 L1807.35 1485.58 L1802.46 1485.58 L1802.46 1479.7 Z" fill="#000000" fill-rule="nonzero" fill-opacity="1" /><path clip-path="url(#clip640)" d="M1816.35 1451.02 L1838.57 1451.02 L1838.57 1453.01 L1826.03 1485.58 L1821.14 1485.58 L1832.95 1454.96 L1816.35 1454.96 L1816.35 1451.02 Z" fill="#000000" fill-rule="nonzero" fill-opacity="1" /><path clip-path="url(#clip640)" d="M1847.74 1451.02 L1866.1 1451.02 L1866.1 1454.96 L1852.02 1454.96 L1852.02 1463.43 Q1853.04 1463.08 1854.06 1462.92 Q1855.08 1462.73 1856.1 1462.73 Q1861.88 1462.73 1865.26 1465.9 Q1868.64 1469.08 1868.64 1474.49 Q1868.64 1480.07 1865.17 1483.17 Q1861.7 1486.25 1855.38 1486.25 Q1853.2 1486.25 1850.93 1485.88 Q1848.69 1485.51 1846.28 1484.77 L1846.28 1480.07 Q1848.37 1481.2 1850.59 1481.76 Q1852.81 1482.32 1855.29 1482.32 Q1859.29 1482.32 1861.63 1480.21 Q1863.97 1478.1 1863.97 1474.49 Q1863.97 1470.88 1861.63 1468.77 Q1859.29 1466.67 1855.29 1466.67 Q1853.41 1466.67 1851.54 1467.08 Q1849.68 1467.5 1847.74 1468.38 L1847.74 1451.02 Z" fill="#000000" fill-rule="nonzero" fill-opacity="1" /><path clip-path="url(#clip640)" d="M2251.89 1481.64 L2268.21 1481.64 L2268.21 1485.58 L2246.27 1485.58 L2246.27 1481.64 Q2248.93 1478.89 2253.51 1474.26 Q2258.12 1469.61 2259.3 1468.27 Q2261.54 1465.74 2262.42 1464.01 Q2263.33 1462.25 2263.33 1460.56 Q2263.33 1457.8 2261.38 1456.07 Q2259.46 1454.33 2256.36 1454.33 Q2254.16 1454.33 2251.71 1455.09 Q2249.27 1455.86 2246.5 1457.41 L2246.5 1452.69 Q2249.32 1451.55 2251.77 1450.97 Q2254.23 1450.39 2256.27 1450.39 Q2261.64 1450.39 2264.83 1453.08 Q2268.02 1455.77 2268.02 1460.26 Q2268.02 1462.39 2267.21 1464.31 Q2266.43 1466.2 2264.32 1468.8 Q2263.74 1469.47 2260.64 1472.69 Q2257.54 1475.88 2251.89 1481.64 Z" fill="#000000" fill-rule="nonzero" fill-opacity="1" /><path clip-path="url(#clip640)" d="M2278.02 1479.7 L2282.91 1479.7 L2282.91 1485.58 L2278.02 1485.58 L2278.02 1479.7 Z" fill="#000000" fill-rule="nonzero" fill-opacity="1" /><path clip-path="url(#clip640)" d="M2303.09 1454.1 Q2299.48 1454.1 2297.65 1457.66 Q2295.85 1461.2 2295.85 1468.33 Q2295.85 1475.44 2297.65 1479.01 Q2299.48 1482.55 2303.09 1482.55 Q2306.73 1482.55 2308.53 1479.01 Q2310.36 1475.44 2310.36 1468.33 Q2310.36 1461.2 2308.53 1457.66 Q2306.73 1454.1 2303.09 1454.1 M2303.09 1450.39 Q2308.9 1450.39 2311.96 1455 Q2315.04 1459.58 2315.04 1468.33 Q2315.04 1477.06 2311.96 1481.67 Q2308.9 1486.25 2303.09 1486.25 Q2297.28 1486.25 2294.21 1481.67 Q2291.15 1477.06 2291.15 1468.33 Q2291.15 1459.58 2294.21 1455 Q2297.28 1450.39 2303.09 1450.39 Z" fill="#000000" fill-rule="nonzero" fill-opacity="1" /><path clip-path="url(#clip640)" d="M2333.26 1454.1 Q2329.64 1454.1 2327.82 1457.66 Q2326.01 1461.2 2326.01 1468.33 Q2326.01 1475.44 2327.82 1479.01 Q2329.64 1482.55 2333.26 1482.55 Q2336.89 1482.55 2338.7 1479.01 Q2340.52 1475.44 2340.52 1468.33 Q2340.52 1461.2 2338.7 1457.66 Q2336.89 1454.1 2333.26 1454.1 M2333.26 1450.39 Q2339.07 1450.39 2342.12 1455 Q2345.2 1459.58 2345.2 1468.33 Q2345.2 1477.06 2342.12 1481.67 Q2339.07 1486.25 2333.26 1486.25 Q2327.45 1486.25 2324.37 1481.67 Q2321.31 1477.06 2321.31 1468.33 Q2321.31 1459.58 2324.37 1455 Q2327.45 1450.39 2333.26 1450.39 Z" fill="#000000" fill-rule="nonzero" fill-opacity="1" /><path clip-path="url(#clip640)" d="M1213.07 1520.52 L1219.5 1520.52 L1219.5 1568.04 L1213.07 1568.04 L1213.07 1520.52 Z" fill="#000000" fill-rule="nonzero" fill-opacity="1" /><path clip-path="url(#clip640)" d="M1237.83 1522.27 L1237.83 1532.4 L1249.9 1532.4 L1249.9 1536.95 L1237.83 1536.95 L1237.83 1556.3 Q1237.83 1560.66 1239.01 1561.9 Q1240.22 1563.14 1243.88 1563.14 L1249.9 1563.14 L1249.9 1568.04 L1243.88 1568.04 Q1237.1 1568.04 1234.52 1565.53 Q1231.95 1562.98 1231.95 1556.3 L1231.95 1536.95 L1227.65 1536.95 L1227.65 1532.4 L1231.95 1532.4 L1231.95 1522.27 L1237.83 1522.27 Z" fill="#000000" fill-rule="nonzero" fill-opacity="1" /><path clip-path="url(#clip640)" d="M1288.09 1548.76 L1288.09 1551.62 L1261.16 1551.62 Q1261.55 1557.67 1264.79 1560.85 Q1268.07 1564 1273.9 1564 Q1277.27 1564 1280.42 1563.17 Q1283.6 1562.35 1286.72 1560.69 L1286.72 1566.23 Q1283.57 1567.57 1280.26 1568.27 Q1276.95 1568.97 1273.54 1568.97 Q1265.01 1568.97 1260.02 1564 Q1255.05 1559.04 1255.05 1550.57 Q1255.05 1541.82 1259.76 1536.69 Q1264.51 1531.54 1272.53 1531.54 Q1279.72 1531.54 1283.89 1536.18 Q1288.09 1540.8 1288.09 1548.76 M1282.23 1547.04 Q1282.17 1542.23 1279.53 1539.37 Q1276.92 1536.5 1272.59 1536.5 Q1267.69 1536.5 1264.73 1539.27 Q1261.8 1542.04 1261.35 1547.07 L1282.23 1547.04 Z" fill="#000000" fill-rule="nonzero" fill-opacity="1" /><path clip-path="url(#clip640)" d="M1318.36 1537.87 Q1317.37 1537.3 1316.2 1537.04 Q1315.05 1536.76 1313.65 1536.76 Q1308.68 1536.76 1306.01 1540 Q1303.37 1543.22 1303.37 1549.27 L1303.37 1568.04 L1297.48 1568.04 L1297.48 1532.4 L1303.37 1532.4 L1303.37 1537.93 Q1305.21 1534.69 1308.17 1533.13 Q1311.13 1531.54 1315.37 1531.54 Q1315.97 1531.54 1316.7 1531.63 Q1317.44 1531.7 1318.33 1531.85 L1318.36 1537.87 Z" fill="#000000" fill-rule="nonzero" fill-opacity="1" /><path clip-path="url(#clip640)" d="M1340.7 1550.12 Q1333.61 1550.12 1330.87 1551.75 Q1328.13 1553.37 1328.13 1557.29 Q1328.13 1560.4 1330.17 1562.25 Q1332.24 1564.07 1335.77 1564.07 Q1340.64 1564.07 1343.57 1560.63 Q1346.53 1557.16 1346.53 1551.43 L1346.53 1550.12 L1340.7 1550.12 M1352.38 1547.71 L1352.38 1568.04 L1346.53 1568.04 L1346.53 1562.63 Q1344.52 1565.88 1341.53 1567.44 Q1338.54 1568.97 1334.21 1568.97 Q1328.74 1568.97 1325.49 1565.91 Q1322.27 1562.82 1322.27 1557.67 Q1322.27 1551.65 1326.28 1548.6 Q1330.33 1545.54 1338.32 1545.54 L1346.53 1545.54 L1346.53 1544.97 Q1346.53 1540.93 1343.85 1538.73 Q1341.21 1536.5 1336.41 1536.5 Q1333.35 1536.5 1330.45 1537.23 Q1327.56 1537.97 1324.88 1539.43 L1324.88 1534.02 Q1328.1 1532.78 1331.12 1532.17 Q1334.15 1531.54 1337.01 1531.54 Q1344.75 1531.54 1348.56 1535.55 Q1352.38 1539.56 1352.38 1547.71 Z" fill="#000000" fill-rule="nonzero" fill-opacity="1" /><path clip-path="url(#clip640)" d="M1370.24 1522.27 L1370.24 1532.4 L1382.3 1532.4 L1382.3 1536.95 L1370.24 1536.95 L1370.24 1556.3 Q1370.24 1560.66 1371.42 1561.9 Q1372.63 1563.14 1376.29 1563.14 L1382.3 1563.14 L1382.3 1568.04 L1376.29 1568.04 Q1369.51 1568.04 1366.93 1565.53 Q1364.35 1562.98 1364.35 1556.3 L1364.35 1536.95 L1360.05 1536.95 L1360.05 1532.4 L1364.35 1532.4 L1364.35 1522.27 L1370.24 1522.27 Z" fill="#000000" fill-rule="nonzero" fill-opacity="1" /><path clip-path="url(#clip640)" d="M1390.01 1532.4 L1395.86 1532.4 L1395.86 1568.04 L1390.01 1568.04 L1390.01 1532.4 M1390.01 1518.52 L1395.86 1518.52 L1395.86 1525.93 L1390.01 1525.93 L1390.01 1518.52 Z" fill="#000000" fill-rule="nonzero" fill-opacity="1" /><path clip-path="url(#clip640)" d="M1421.93 1536.5 Q1417.22 1536.5 1414.48 1540.19 Q1411.74 1543.85 1411.74 1550.25 Q1411.74 1556.65 1414.45 1560.34 Q1417.19 1564 1421.93 1564 Q1426.61 1564 1429.35 1560.31 Q1432.08 1556.62 1432.08 1550.25 Q1432.08 1543.92 1429.35 1540.23 Q1426.61 1536.5 1421.93 1536.5 M1421.93 1531.54 Q1429.57 1531.54 1433.93 1536.5 Q1438.29 1541.47 1438.29 1550.25 Q1438.29 1559 1433.93 1564 Q1429.57 1568.97 1421.93 1568.97 Q1414.26 1568.97 1409.9 1564 Q1405.57 1559 1405.57 1550.25 Q1405.57 1541.47 1409.9 1536.5 Q1414.26 1531.54 1421.93 1531.54 Z" fill="#000000" fill-rule="nonzero" fill-opacity="1" /><path clip-path="url(#clip640)" d="M1477.63 1546.53 L1477.63 1568.04 L1471.77 1568.04 L1471.77 1546.72 Q1471.77 1541.66 1469.8 1539.14 Q1467.83 1536.63 1463.88 1536.63 Q1459.14 1536.63 1456.4 1539.65 Q1453.66 1542.68 1453.66 1547.9 L1453.66 1568.04 L1447.77 1568.04 L1447.77 1532.4 L1453.66 1532.4 L1453.66 1537.93 Q1455.76 1534.72 1458.6 1533.13 Q1461.46 1531.54 1465.18 1531.54 Q1471.33 1531.54 1474.48 1535.36 Q1477.63 1539.14 1477.63 1546.53 Z" fill="#000000" fill-rule="nonzero" fill-opacity="1" /><polyline clip-path="url(#clip640)" style="stroke:#000000; stroke-linecap:round; stroke-linejoin:round; stroke-width:4; stroke-opacity:1; fill:none" points="337.944,1423.18 337.944,123.472 "/>
<polyline clip-path="url(#clip640)" style="stroke:#000000; stroke-linecap:round; stroke-linejoin:round; stroke-width:4; stroke-opacity:1; fill:none" points="337.944,1418.44 356.842,1418.44 "/>
<polyline clip-path="url(#clip640)" style="stroke:#000000; stroke-linecap:round; stroke-linejoin:round; stroke-width:4; stroke-opacity:1; fill:none" points="337.944,1111.91 356.842,1111.91 "/>
<polyline clip-path="url(#clip640)" style="stroke:#000000; stroke-linecap:round; stroke-linejoin:round; stroke-width:4; stroke-opacity:1; fill:none" points="337.944,805.371 356.842,805.371 "/>
<polyline clip-path="url(#clip640)" style="stroke:#000000; stroke-linecap:round; stroke-linejoin:round; stroke-width:4; stroke-opacity:1; fill:none" points="337.944,498.836 356.842,498.836 "/>
<polyline clip-path="url(#clip640)" style="stroke:#000000; stroke-linecap:round; stroke-linejoin:round; stroke-width:4; stroke-opacity:1; fill:none" points="337.944,192.302 356.842,192.302 "/>
<path clip-path="url(#clip640)" d="M115.927 1431.79 L123.566 1431.79 L123.566 1405.42 L115.256 1407.09 L115.256 1402.83 L123.519 1401.16 L128.195 1401.16 L128.195 1431.79 L135.834 1431.79 L135.834 1435.72 L115.927 1435.72 L115.927 1431.79 Z" fill="#000000" fill-rule="nonzero" fill-opacity="1" /><path clip-path="url(#clip640)" d="M159.445 1417.09 Q162.802 1417.8 164.677 1420.07 Q166.575 1422.34 166.575 1425.67 Q166.575 1430.79 163.056 1433.59 Q159.538 1436.39 153.056 1436.39 Q150.88 1436.39 148.566 1435.95 Q146.274 1435.54 143.82 1434.68 L143.82 1430.17 Q145.765 1431.3 148.079 1431.88 Q150.394 1432.46 152.917 1432.46 Q157.315 1432.46 159.607 1430.72 Q161.922 1428.98 161.922 1425.67 Q161.922 1422.62 159.769 1420.91 Q157.64 1419.17 153.82 1419.17 L149.792 1419.17 L149.792 1415.33 L154.005 1415.33 Q157.454 1415.33 159.283 1413.96 Q161.112 1412.57 161.112 1409.98 Q161.112 1407.32 159.214 1405.91 Q157.339 1404.47 153.82 1404.47 Q151.899 1404.47 149.7 1404.89 Q147.501 1405.3 144.862 1406.18 L144.862 1402.02 Q147.524 1401.28 149.839 1400.91 Q152.177 1400.54 154.237 1400.54 Q159.561 1400.54 162.663 1402.97 Q165.765 1405.37 165.765 1409.49 Q165.765 1412.36 164.121 1414.36 Q162.477 1416.32 159.445 1417.09 Z" fill="#000000" fill-rule="nonzero" fill-opacity="1" /><path clip-path="url(#clip640)" d="M174.26 1401.16 L196.482 1401.16 L196.482 1403.15 L183.936 1435.72 L179.051 1435.72 L190.857 1405.1 L174.26 1405.1 L174.26 1401.16 Z" fill="#000000" fill-rule="nonzero" fill-opacity="1" /><path clip-path="url(#clip640)" d="M218.449 1405.23 L206.644 1423.68 L218.449 1423.68 L218.449 1405.23 M217.223 1401.16 L223.102 1401.16 L223.102 1423.68 L228.033 1423.68 L228.033 1427.57 L223.102 1427.57 L223.102 1435.72 L218.449 1435.72 L218.449 1427.57 L202.848 1427.57 L202.848 1423.06 L217.223 1401.16 Z" fill="#000000" fill-rule="nonzero" fill-opacity="1" /><path clip-path="url(#clip640)" d="M235.764 1429.84 L240.648 1429.84 L240.648 1435.72 L235.764 1435.72 L235.764 1429.84 Z" fill="#000000" fill-rule="nonzero" fill-opacity="1" /><path clip-path="url(#clip640)" d="M249.653 1401.16 L271.875 1401.16 L271.875 1403.15 L259.329 1435.72 L254.445 1435.72 L266.25 1405.1 L249.653 1405.1 L249.653 1401.16 Z" fill="#000000" fill-rule="nonzero" fill-opacity="1" /><path clip-path="url(#clip640)" d="M281.042 1401.16 L299.398 1401.16 L299.398 1405.1 L285.324 1405.1 L285.324 1413.57 Q286.343 1413.22 287.361 1413.06 Q288.38 1412.87 289.398 1412.87 Q295.185 1412.87 298.565 1416.05 Q301.944 1419.22 301.944 1424.63 Q301.944 1430.21 298.472 1433.31 Q295 1436.39 288.681 1436.39 Q286.505 1436.39 284.236 1436.02 Q281.991 1435.65 279.583 1434.91 L279.583 1430.21 Q281.667 1431.35 283.889 1431.9 Q286.111 1432.46 288.588 1432.46 Q292.593 1432.46 294.93 1430.35 Q297.268 1428.24 297.268 1424.63 Q297.268 1421.02 294.93 1418.92 Q292.593 1416.81 288.588 1416.81 Q286.713 1416.81 284.838 1417.23 Q282.986 1417.64 281.042 1418.52 L281.042 1401.16 Z" fill="#000000" fill-rule="nonzero" fill-opacity="1" /><path clip-path="url(#clip640)" d="M114.931 1125.25 L122.57 1125.25 L122.57 1098.89 L114.26 1100.55 L114.26 1096.29 L122.524 1094.63 L127.2 1094.63 L127.2 1125.25 L134.839 1125.25 L134.839 1129.19 L114.931 1129.19 L114.931 1125.25 Z" fill="#000000" fill-rule="nonzero" fill-opacity="1" /><path clip-path="url(#clip640)" d="M158.45 1110.55 Q161.806 1111.27 163.681 1113.54 Q165.579 1115.81 165.579 1119.14 Q165.579 1124.26 162.061 1127.06 Q158.542 1129.86 152.061 1129.86 Q149.885 1129.86 147.57 1129.42 Q145.279 1129 142.825 1128.14 L142.825 1123.63 Q144.769 1124.76 147.084 1125.34 Q149.399 1125.92 151.922 1125.92 Q156.32 1125.92 158.612 1124.19 Q160.927 1122.45 160.927 1119.14 Q160.927 1116.08 158.774 1114.37 Q156.644 1112.64 152.825 1112.64 L148.797 1112.64 L148.797 1108.79 L153.01 1108.79 Q156.459 1108.79 158.288 1107.43 Q160.116 1106.04 160.116 1103.45 Q160.116 1100.78 158.218 1099.37 Q156.343 1097.94 152.825 1097.94 Q150.903 1097.94 148.704 1098.35 Q146.505 1098.77 143.866 1099.65 L143.866 1095.48 Q146.529 1094.74 148.843 1094.37 Q151.181 1094 153.241 1094 Q158.565 1094 161.667 1096.43 Q164.769 1098.84 164.769 1102.96 Q164.769 1105.83 163.126 1107.82 Q161.482 1109.79 158.45 1110.55 Z" fill="#000000" fill-rule="nonzero" fill-opacity="1" /><path clip-path="url(#clip640)" d="M173.264 1094.63 L195.487 1094.63 L195.487 1096.62 L182.94 1129.19 L178.056 1129.19 L189.862 1098.56 L173.264 1098.56 L173.264 1094.63 Z" fill="#000000" fill-rule="nonzero" fill-opacity="1" /><path clip-path="url(#clip640)" d="M204.653 1094.63 L223.01 1094.63 L223.01 1098.56 L208.936 1098.56 L208.936 1107.03 Q209.954 1106.69 210.973 1106.52 Q211.991 1106.34 213.01 1106.34 Q218.797 1106.34 222.176 1109.51 Q225.556 1112.68 225.556 1118.1 Q225.556 1123.68 222.084 1126.78 Q218.611 1129.86 212.292 1129.86 Q210.116 1129.86 207.848 1129.49 Q205.602 1129.12 203.195 1128.38 L203.195 1123.68 Q205.278 1124.81 207.5 1125.37 Q209.723 1125.92 212.199 1125.92 Q216.204 1125.92 218.542 1123.82 Q220.88 1121.71 220.88 1118.1 Q220.88 1114.49 218.542 1112.38 Q216.204 1110.27 212.199 1110.27 Q210.324 1110.27 208.449 1110.69 Q206.598 1111.11 204.653 1111.99 L204.653 1094.63 Z" fill="#000000" fill-rule="nonzero" fill-opacity="1" /><path clip-path="url(#clip640)" d="M234.769 1123.31 L239.653 1123.31 L239.653 1129.19 L234.769 1129.19 L234.769 1123.31 Z" fill="#000000" fill-rule="nonzero" fill-opacity="1" /><path clip-path="url(#clip640)" d="M259.838 1097.7 Q256.227 1097.7 254.398 1101.27 Q252.593 1104.81 252.593 1111.94 Q252.593 1119.05 254.398 1122.61 Q256.227 1126.15 259.838 1126.15 Q263.472 1126.15 265.278 1122.61 Q267.107 1119.05 267.107 1111.94 Q267.107 1104.81 265.278 1101.27 Q263.472 1097.7 259.838 1097.7 M259.838 1094 Q265.648 1094 268.704 1098.61 Q271.782 1103.19 271.782 1111.94 Q271.782 1120.67 268.704 1125.27 Q265.648 1129.86 259.838 1129.86 Q254.028 1129.86 250.949 1125.27 Q247.894 1120.67 247.894 1111.94 Q247.894 1103.19 250.949 1098.61 Q254.028 1094 259.838 1094 Z" fill="#000000" fill-rule="nonzero" fill-opacity="1" /><path clip-path="url(#clip640)" d="M290 1097.7 Q286.389 1097.7 284.56 1101.27 Q282.755 1104.81 282.755 1111.94 Q282.755 1119.05 284.56 1122.61 Q286.389 1126.15 290 1126.15 Q293.634 1126.15 295.44 1122.61 Q297.268 1119.05 297.268 1111.94 Q297.268 1104.81 295.44 1101.27 Q293.634 1097.7 290 1097.7 M290 1094 Q295.81 1094 298.866 1098.61 Q301.944 1103.19 301.944 1111.94 Q301.944 1120.67 298.866 1125.27 Q295.81 1129.86 290 1129.86 Q284.19 1129.86 281.111 1125.27 Q278.056 1120.67 278.056 1111.94 Q278.056 1103.19 281.111 1098.61 Q284.19 1094 290 1094 Z" fill="#000000" fill-rule="nonzero" fill-opacity="1" /><path clip-path="url(#clip640)" d="M115.927 818.716 L123.566 818.716 L123.566 792.35 L115.256 794.017 L115.256 789.758 L123.519 788.091 L128.195 788.091 L128.195 818.716 L135.834 818.716 L135.834 822.651 L115.927 822.651 L115.927 818.716 Z" fill="#000000" fill-rule="nonzero" fill-opacity="1" /><path clip-path="url(#clip640)" d="M159.445 804.017 Q162.802 804.735 164.677 807.003 Q166.575 809.272 166.575 812.605 Q166.575 817.721 163.056 820.522 Q159.538 823.323 153.056 823.323 Q150.88 823.323 148.566 822.883 Q146.274 822.466 143.82 821.61 L143.82 817.096 Q145.765 818.23 148.079 818.809 Q150.394 819.387 152.917 819.387 Q157.315 819.387 159.607 817.651 Q161.922 815.915 161.922 812.605 Q161.922 809.549 159.769 807.836 Q157.64 806.1 153.82 806.1 L149.792 806.1 L149.792 802.258 L154.005 802.258 Q157.454 802.258 159.283 800.892 Q161.112 799.503 161.112 796.911 Q161.112 794.249 159.214 792.837 Q157.339 791.401 153.82 791.401 Q151.899 791.401 149.7 791.818 Q147.501 792.235 144.862 793.114 L144.862 788.948 Q147.524 788.207 149.839 787.837 Q152.177 787.466 154.237 787.466 Q159.561 787.466 162.663 789.897 Q165.765 792.304 165.765 796.425 Q165.765 799.295 164.121 801.286 Q162.477 803.253 159.445 804.017 Z" fill="#000000" fill-rule="nonzero" fill-opacity="1" /><path clip-path="url(#clip640)" d="M174.26 788.091 L196.482 788.091 L196.482 790.082 L183.936 822.651 L179.051 822.651 L190.857 792.026 L174.26 792.026 L174.26 788.091 Z" fill="#000000" fill-rule="nonzero" fill-opacity="1" /><path clip-path="url(#clip640)" d="M205.649 788.091 L224.005 788.091 L224.005 792.026 L209.931 792.026 L209.931 800.499 Q210.949 800.151 211.968 799.989 Q212.986 799.804 214.005 799.804 Q219.792 799.804 223.172 802.975 Q226.551 806.147 226.551 811.563 Q226.551 817.142 223.079 820.244 Q219.607 823.323 213.287 823.323 Q211.111 823.323 208.843 822.952 Q206.598 822.582 204.19 821.841 L204.19 817.142 Q206.274 818.276 208.496 818.832 Q210.718 819.387 213.195 819.387 Q217.199 819.387 219.537 817.281 Q221.875 815.174 221.875 811.563 Q221.875 807.952 219.537 805.846 Q217.199 803.739 213.195 803.739 Q211.32 803.739 209.445 804.156 Q207.593 804.573 205.649 805.452 L205.649 788.091 Z" fill="#000000" fill-rule="nonzero" fill-opacity="1" /><path clip-path="url(#clip640)" d="M235.764 816.772 L240.648 816.772 L240.648 822.651 L235.764 822.651 L235.764 816.772 Z" fill="#000000" fill-rule="nonzero" fill-opacity="1" /><path clip-path="url(#clip640)" d="M254.861 818.716 L271.181 818.716 L271.181 822.651 L249.236 822.651 L249.236 818.716 Q251.898 815.961 256.482 811.332 Q261.088 806.679 262.269 805.336 Q264.514 802.813 265.394 801.077 Q266.296 799.318 266.296 797.628 Q266.296 794.874 264.352 793.137 Q262.431 791.401 259.329 791.401 Q257.13 791.401 254.676 792.165 Q252.246 792.929 249.468 794.48 L249.468 789.758 Q252.292 788.624 254.746 788.045 Q257.199 787.466 259.236 787.466 Q264.607 787.466 267.801 790.151 Q270.995 792.837 270.995 797.327 Q270.995 799.457 270.185 801.378 Q269.398 803.276 267.292 805.869 Q266.713 806.54 263.611 809.758 Q260.509 812.952 254.861 818.716 Z" fill="#000000" fill-rule="nonzero" fill-opacity="1" /><path clip-path="url(#clip640)" d="M281.042 788.091 L299.398 788.091 L299.398 792.026 L285.324 792.026 L285.324 800.499 Q286.343 800.151 287.361 799.989 Q288.38 799.804 289.398 799.804 Q295.185 799.804 298.565 802.975 Q301.944 806.147 301.944 811.563 Q301.944 817.142 298.472 820.244 Q295 823.323 288.681 823.323 Q286.505 823.323 284.236 822.952 Q281.991 822.582 279.583 821.841 L279.583 817.142 Q281.667 818.276 283.889 818.832 Q286.111 819.387 288.588 819.387 Q292.593 819.387 294.93 817.281 Q297.268 815.174 297.268 811.563 Q297.268 807.952 294.93 805.846 Q292.593 803.739 288.588 803.739 Q286.713 803.739 284.838 804.156 Q282.986 804.573 281.042 805.452 L281.042 788.091 Z" fill="#000000" fill-rule="nonzero" fill-opacity="1" /><path clip-path="url(#clip640)" d="M114.931 512.181 L122.57 512.181 L122.57 485.816 L114.26 487.482 L114.26 483.223 L122.524 481.556 L127.2 481.556 L127.2 512.181 L134.839 512.181 L134.839 516.116 L114.931 516.116 L114.931 512.181 Z" fill="#000000" fill-rule="nonzero" fill-opacity="1" /><path clip-path="url(#clip640)" d="M158.45 497.482 Q161.806 498.2 163.681 500.468 Q165.579 502.737 165.579 506.07 Q165.579 511.186 162.061 513.987 Q158.542 516.788 152.061 516.788 Q149.885 516.788 147.57 516.348 Q145.279 515.931 142.825 515.075 L142.825 510.561 Q144.769 511.695 147.084 512.274 Q149.399 512.853 151.922 512.853 Q156.32 512.853 158.612 511.116 Q160.927 509.38 160.927 506.07 Q160.927 503.015 158.774 501.302 Q156.644 499.566 152.825 499.566 L148.797 499.566 L148.797 495.723 L153.01 495.723 Q156.459 495.723 158.288 494.357 Q160.116 492.968 160.116 490.376 Q160.116 487.714 158.218 486.302 Q156.343 484.867 152.825 484.867 Q150.903 484.867 148.704 485.283 Q146.505 485.7 143.866 486.579 L143.866 482.413 Q146.529 481.672 148.843 481.302 Q151.181 480.931 153.241 480.931 Q158.565 480.931 161.667 483.362 Q164.769 485.769 164.769 489.89 Q164.769 492.76 163.126 494.751 Q161.482 496.718 158.45 497.482 Z" fill="#000000" fill-rule="nonzero" fill-opacity="1" /><path clip-path="url(#clip640)" d="M173.264 481.556 L195.487 481.556 L195.487 483.547 L182.94 516.116 L178.056 516.116 L189.862 485.492 L173.264 485.492 L173.264 481.556 Z" fill="#000000" fill-rule="nonzero" fill-opacity="1" /><path clip-path="url(#clip640)" d="M204.653 481.556 L223.01 481.556 L223.01 485.492 L208.936 485.492 L208.936 493.964 Q209.954 493.616 210.973 493.454 Q211.991 493.269 213.01 493.269 Q218.797 493.269 222.176 496.441 Q225.556 499.612 225.556 505.028 Q225.556 510.607 222.084 513.709 Q218.611 516.788 212.292 516.788 Q210.116 516.788 207.848 516.417 Q205.602 516.047 203.195 515.306 L203.195 510.607 Q205.278 511.741 207.5 512.297 Q209.723 512.853 212.199 512.853 Q216.204 512.853 218.542 510.746 Q220.88 508.64 220.88 505.028 Q220.88 501.417 218.542 499.311 Q216.204 497.204 212.199 497.204 Q210.324 497.204 208.449 497.621 Q206.598 498.038 204.653 498.917 L204.653 481.556 Z" fill="#000000" fill-rule="nonzero" fill-opacity="1" /><path clip-path="url(#clip640)" d="M234.769 510.237 L239.653 510.237 L239.653 516.116 L234.769 516.116 L234.769 510.237 Z" fill="#000000" fill-rule="nonzero" fill-opacity="1" /><path clip-path="url(#clip640)" d="M249.884 481.556 L268.241 481.556 L268.241 485.492 L254.167 485.492 L254.167 493.964 Q255.185 493.616 256.204 493.454 Q257.222 493.269 258.241 493.269 Q264.028 493.269 267.407 496.441 Q270.787 499.612 270.787 505.028 Q270.787 510.607 267.315 513.709 Q263.843 516.788 257.523 516.788 Q255.347 516.788 253.079 516.417 Q250.833 516.047 248.426 515.306 L248.426 510.607 Q250.509 511.741 252.732 512.297 Q254.954 512.853 257.431 512.853 Q261.435 512.853 263.773 510.746 Q266.111 508.64 266.111 505.028 Q266.111 501.417 263.773 499.311 Q261.435 497.204 257.431 497.204 Q255.556 497.204 253.681 497.621 Q251.829 498.038 249.884 498.917 L249.884 481.556 Z" fill="#000000" fill-rule="nonzero" fill-opacity="1" /><path clip-path="url(#clip640)" d="M290 484.635 Q286.389 484.635 284.56 488.2 Q282.755 491.742 282.755 498.871 Q282.755 505.978 284.56 509.542 Q286.389 513.084 290 513.084 Q293.634 513.084 295.44 509.542 Q297.268 505.978 297.268 498.871 Q297.268 491.742 295.44 488.2 Q293.634 484.635 290 484.635 M290 480.931 Q295.81 480.931 298.866 485.538 Q301.944 490.121 301.944 498.871 Q301.944 507.598 298.866 512.204 Q295.81 516.788 290 516.788 Q284.19 516.788 281.111 512.204 Q278.056 507.598 278.056 498.871 Q278.056 490.121 281.111 485.538 Q284.19 480.931 290 480.931 Z" fill="#000000" fill-rule="nonzero" fill-opacity="1" /><path clip-path="url(#clip640)" d="M115.927 205.646 L123.566 205.646 L123.566 179.281 L115.256 180.947 L115.256 176.688 L123.519 175.022 L128.195 175.022 L128.195 205.646 L135.834 205.646 L135.834 209.582 L115.927 209.582 L115.927 205.646 Z" fill="#000000" fill-rule="nonzero" fill-opacity="1" /><path clip-path="url(#clip640)" d="M159.445 190.947 Q162.802 191.665 164.677 193.933 Q166.575 196.202 166.575 199.535 Q166.575 204.651 163.056 207.452 Q159.538 210.253 153.056 210.253 Q150.88 210.253 148.566 209.813 Q146.274 209.396 143.82 208.54 L143.82 204.026 Q145.765 205.16 148.079 205.739 Q150.394 206.318 152.917 206.318 Q157.315 206.318 159.607 204.582 Q161.922 202.845 161.922 199.535 Q161.922 196.48 159.769 194.767 Q157.64 193.031 153.82 193.031 L149.792 193.031 L149.792 189.188 L154.005 189.188 Q157.454 189.188 159.283 187.822 Q161.112 186.434 161.112 183.841 Q161.112 181.179 159.214 179.767 Q157.339 178.332 153.82 178.332 Q151.899 178.332 149.7 178.748 Q147.501 179.165 144.862 180.045 L144.862 175.878 Q147.524 175.137 149.839 174.767 Q152.177 174.397 154.237 174.397 Q159.561 174.397 162.663 176.827 Q165.765 179.234 165.765 183.355 Q165.765 186.225 164.121 188.216 Q162.477 190.183 159.445 190.947 Z" fill="#000000" fill-rule="nonzero" fill-opacity="1" /><path clip-path="url(#clip640)" d="M174.26 175.022 L196.482 175.022 L196.482 177.012 L183.936 209.582 L179.051 209.582 L190.857 178.957 L174.26 178.957 L174.26 175.022 Z" fill="#000000" fill-rule="nonzero" fill-opacity="1" /><path clip-path="url(#clip640)" d="M205.649 175.022 L224.005 175.022 L224.005 178.957 L209.931 178.957 L209.931 187.429 Q210.949 187.082 211.968 186.92 Q212.986 186.734 214.005 186.734 Q219.792 186.734 223.172 189.906 Q226.551 193.077 226.551 198.494 Q226.551 204.072 223.079 207.174 Q219.607 210.253 213.287 210.253 Q211.111 210.253 208.843 209.882 Q206.598 209.512 204.19 208.771 L204.19 204.072 Q206.274 205.207 208.496 205.762 Q210.718 206.318 213.195 206.318 Q217.199 206.318 219.537 204.211 Q221.875 202.105 221.875 198.494 Q221.875 194.883 219.537 192.776 Q217.199 190.67 213.195 190.67 Q211.32 190.67 209.445 191.086 Q207.593 191.503 205.649 192.383 L205.649 175.022 Z" fill="#000000" fill-rule="nonzero" fill-opacity="1" /><path clip-path="url(#clip640)" d="M235.764 203.702 L240.648 203.702 L240.648 209.582 L235.764 209.582 L235.764 203.702 Z" fill="#000000" fill-rule="nonzero" fill-opacity="1" /><path clip-path="url(#clip640)" d="M249.653 175.022 L271.875 175.022 L271.875 177.012 L259.329 209.582 L254.445 209.582 L266.25 178.957 L249.653 178.957 L249.653 175.022 Z" fill="#000000" fill-rule="nonzero" fill-opacity="1" /><path clip-path="url(#clip640)" d="M281.042 175.022 L299.398 175.022 L299.398 178.957 L285.324 178.957 L285.324 187.429 Q286.343 187.082 287.361 186.92 Q288.38 186.734 289.398 186.734 Q295.185 186.734 298.565 189.906 Q301.944 193.077 301.944 198.494 Q301.944 204.072 298.472 207.174 Q295 210.253 288.681 210.253 Q286.505 210.253 284.236 209.882 Q281.991 209.512 279.583 208.771 L279.583 204.072 Q281.667 205.207 283.889 205.762 Q286.111 206.318 288.588 206.318 Q292.593 206.318 294.93 204.211 Q297.268 202.105 297.268 198.494 Q297.268 194.883 294.93 192.776 Q292.593 190.67 288.588 190.67 Q286.713 190.67 284.838 191.086 Q282.986 191.503 281.042 192.383 L281.042 175.022 Z" fill="#000000" fill-rule="nonzero" fill-opacity="1" /><path clip-path="url(#clip640)" d="M16.4842 1228.55 L16.4842 1222.12 L58.5933 1222.12 L58.5933 1198.98 L64.0042 1198.98 L64.0042 1228.55 L16.4842 1228.55 Z" fill="#000000" fill-rule="nonzero" fill-opacity="1" /><path clip-path="url(#clip640)" d="M32.4621 1179.82 Q32.4621 1184.53 36.1542 1187.27 Q39.8145 1190.01 46.212 1190.01 Q52.6095 1190.01 56.3017 1187.3 Q59.9619 1184.57 59.9619 1179.82 Q59.9619 1175.15 56.2698 1172.41 Q52.5777 1169.67 46.212 1169.67 Q39.8781 1169.67 36.186 1172.41 Q32.4621 1175.15 32.4621 1179.82 M27.4968 1179.82 Q27.4968 1172.19 32.4621 1167.82 Q37.4273 1163.46 46.212 1163.46 Q54.9649 1163.46 59.9619 1167.82 Q64.9272 1172.19 64.9272 1179.82 Q64.9272 1187.49 59.9619 1191.86 Q54.9649 1196.18 46.212 1196.18 Q37.4273 1196.18 32.4621 1191.86 Q27.4968 1187.49 27.4968 1179.82 Z" fill="#000000" fill-rule="nonzero" fill-opacity="1" /><path clip-path="url(#clip640)" d="M28.3562 1157.16 L28.3562 1151.31 L56.1743 1143.99 L28.3562 1136.7 L28.3562 1129.79 L56.1743 1122.47 L28.3562 1115.18 L28.3562 1109.32 L64.0042 1118.65 L64.0042 1125.56 L34.7856 1133.23 L64.0042 1140.93 L64.0042 1147.84 L28.3562 1157.16 Z" fill="#000000" fill-rule="nonzero" fill-opacity="1" /><path clip-path="url(#clip640)" d="M44.7161 1069.95 L47.5806 1069.95 L47.5806 1096.88 Q53.6281 1096.5 56.8109 1093.25 Q59.9619 1089.97 59.9619 1084.15 Q59.9619 1080.77 59.1344 1077.62 Q58.3069 1074.44 56.6518 1071.32 L62.1899 1071.32 Q63.5267 1074.47 64.227 1077.78 Q64.9272 1081.09 64.9272 1084.5 Q64.9272 1093.03 59.9619 1098.02 Q54.9967 1102.99 46.5303 1102.99 Q37.7774 1102.99 32.6531 1098.28 Q27.4968 1093.54 27.4968 1085.52 Q27.4968 1078.32 32.1438 1074.15 Q36.7589 1069.95 44.7161 1069.95 M42.9973 1075.81 Q38.1912 1075.87 35.3266 1078.51 Q32.4621 1081.12 32.4621 1085.45 Q32.4621 1090.35 35.2312 1093.31 Q38.0002 1096.24 43.0292 1096.69 L42.9973 1075.81 Z" fill="#000000" fill-rule="nonzero" fill-opacity="1" /><path clip-path="url(#clip640)" d="M33.8307 1039.68 Q33.2578 1040.67 33.0032 1041.85 Q32.7167 1042.99 32.7167 1044.39 Q32.7167 1049.36 35.9632 1052.03 Q39.1779 1054.67 45.2253 1054.67 L64.0042 1054.67 L64.0042 1060.56 L28.3562 1060.56 L28.3562 1054.67 L33.8944 1054.67 Q30.6479 1052.83 29.0883 1049.87 Q27.4968 1046.91 27.4968 1042.67 Q27.4968 1042.07 27.5923 1041.34 Q27.656 1040.61 27.8151 1039.71 L33.8307 1039.68 Z" fill="#000000" fill-rule="nonzero" fill-opacity="1" /><path clip-path="url(#clip640)" d="M43.5384 1040.67 L43.5384 1023.51 L48.7583 1023.51 L48.7583 1040.67 L43.5384 1040.67 Z" fill="#000000" fill-rule="nonzero" fill-opacity="1" /><path clip-path="url(#clip640)" d="M16.4842 1013.93 L16.4842 1007.5 L58.5933 1007.5 L58.5933 984.365 L64.0042 984.365 L64.0042 1013.93 L16.4842 1013.93 Z" fill="#000000" fill-rule="nonzero" fill-opacity="1" /><path clip-path="url(#clip640)" d="M44.7161 948.526 L47.5806 948.526 L47.5806 975.453 Q53.6281 975.071 56.8109 971.825 Q59.9619 968.546 59.9619 962.722 Q59.9619 959.348 59.1344 956.197 Q58.3069 953.014 56.6518 949.895 L62.1899 949.895 Q63.5267 953.046 64.227 956.356 Q64.9272 959.666 64.9272 963.072 Q64.9272 971.602 59.9619 976.599 Q54.9967 981.564 46.5303 981.564 Q37.7774 981.564 32.6531 976.854 Q27.4968 972.111 27.4968 964.09 Q27.4968 956.897 32.1438 952.728 Q36.7589 948.526 44.7161 948.526 M42.9973 954.383 Q38.1912 954.446 35.3266 957.088 Q32.4621 959.698 32.4621 964.027 Q32.4621 968.928 35.2312 971.888 Q38.0002 974.817 43.0292 975.262 L42.9973 954.383 Z" fill="#000000" fill-rule="nonzero" fill-opacity="1" /><path clip-path="url(#clip640)" d="M28.3562 943.115 L28.3562 936.909 L58.275 925.769 L28.3562 914.629 L28.3562 908.422 L64.0042 921.79 L64.0042 929.747 L28.3562 943.115 Z" fill="#000000" fill-rule="nonzero" fill-opacity="1" /><path clip-path="url(#clip640)" d="M44.7161 869.846 L47.5806 869.846 L47.5806 896.773 Q53.6281 896.391 56.8109 893.144 Q59.9619 889.866 59.9619 884.042 Q59.9619 880.668 59.1344 877.517 Q58.3069 874.334 56.6518 871.215 L62.1899 871.215 Q63.5267 874.366 64.227 877.676 Q64.9272 880.986 64.9272 884.392 Q64.9272 892.922 59.9619 897.919 Q54.9967 902.884 46.5303 902.884 Q37.7774 902.884 32.6531 898.173 Q27.4968 893.431 27.4968 885.41 Q27.4968 878.217 32.1438 874.047 Q36.7589 869.846 44.7161 869.846 M42.9973 875.702 Q38.1912 875.766 35.3266 878.408 Q32.4621 881.018 32.4621 885.347 Q32.4621 890.248 35.2312 893.208 Q38.0002 896.136 43.0292 896.582 L42.9973 875.702 Z" fill="#000000" fill-rule="nonzero" fill-opacity="1" /><path clip-path="url(#clip640)" d="M14.479 860.234 L14.479 854.377 L64.0042 854.377 L64.0042 860.234 L14.479 860.234 Z" fill="#000000" fill-rule="nonzero" fill-opacity="1" /><path clip-path="url(#clip640)" d="M16.4842 821.148 L16.4842 814.719 L58.5933 814.719 L58.5933 791.58 L64.0042 791.58 L64.0042 821.148 L16.4842 821.148 Z" fill="#000000" fill-rule="nonzero" fill-opacity="1" /><path clip-path="url(#clip640)" d="M32.4621 772.419 Q32.4621 777.129 36.1542 779.867 Q39.8145 782.604 46.212 782.604 Q52.6095 782.604 56.3017 779.899 Q59.9619 777.161 59.9619 772.419 Q59.9619 767.74 56.2698 765.003 Q52.5777 762.266 46.212 762.266 Q39.8781 762.266 36.186 765.003 Q32.4621 767.74 32.4621 772.419 M27.4968 772.419 Q27.4968 764.78 32.4621 760.42 Q37.4273 756.059 46.212 756.059 Q54.9649 756.059 59.9619 760.42 Q64.9272 764.78 64.9272 772.419 Q64.9272 780.09 59.9619 784.45 Q54.9649 788.779 46.212 788.779 Q37.4273 788.779 32.4621 784.45 Q27.4968 780.09 27.4968 772.419 Z" fill="#000000" fill-rule="nonzero" fill-opacity="1" /><path clip-path="url(#clip640)" d="M46.0847 730.151 Q46.0847 737.248 47.7079 739.986 Q49.3312 742.723 53.2461 742.723 Q56.3653 742.723 58.2114 740.686 Q60.0256 738.617 60.0256 735.084 Q60.0256 730.214 56.5881 727.286 Q53.1188 724.326 47.3897 724.326 L46.0847 724.326 L46.0847 730.151 M43.6657 718.47 L64.0042 718.47 L64.0042 724.326 L58.5933 724.326 Q61.8398 726.331 63.3994 729.323 Q64.9272 732.315 64.9272 736.644 Q64.9272 742.118 61.8716 745.365 Q58.7843 748.579 53.6281 748.579 Q47.6125 748.579 44.5569 744.569 Q41.5014 740.527 41.5014 732.538 L41.5014 724.326 L40.9285 724.326 Q36.8862 724.326 34.6901 727 Q32.4621 729.641 32.4621 734.447 Q32.4621 737.503 33.1941 740.399 Q33.9262 743.296 35.3903 745.969 L29.9795 745.969 Q28.7381 742.755 28.1334 739.731 Q27.4968 736.707 27.4968 733.843 Q27.4968 726.108 31.5072 722.289 Q35.5176 718.47 43.6657 718.47 Z" fill="#000000" fill-rule="nonzero" fill-opacity="1" /><path clip-path="url(#clip640)" d="M33.7671 682.949 L14.479 682.949 L14.479 677.092 L64.0042 677.092 L64.0042 682.949 L58.657 682.949 Q61.8398 684.795 63.3994 687.628 Q64.9272 690.429 64.9272 694.375 Q64.9272 700.836 59.771 704.911 Q54.6147 708.953 46.212 708.953 Q37.8093 708.953 32.6531 704.911 Q27.4968 700.836 27.4968 694.375 Q27.4968 690.429 29.0564 687.628 Q30.5842 684.795 33.7671 682.949 M46.212 702.905 Q52.6732 702.905 56.3653 700.264 Q60.0256 697.59 60.0256 692.943 Q60.0256 688.296 56.3653 685.622 Q52.6732 682.949 46.212 682.949 Q39.7508 682.949 36.0905 685.622 Q32.3984 688.296 32.3984 692.943 Q32.3984 697.59 36.0905 700.264 Q39.7508 702.905 46.212 702.905 Z" fill="#000000" fill-rule="nonzero" fill-opacity="1" /><path clip-path="url(#clip640)" d="M18.0438 615.568 L24.314 615.568 Q22.5634 619.228 21.704 622.475 Q20.8447 625.721 20.8447 628.745 Q20.8447 633.997 22.8817 636.861 Q24.9187 639.694 28.6745 639.694 Q31.8255 639.694 33.4488 637.816 Q35.0402 635.906 36.0269 630.623 L36.8226 626.74 Q38.1912 619.546 41.6605 616.141 Q45.098 612.703 50.8908 612.703 Q57.7976 612.703 61.3624 617.35 Q64.9272 621.965 64.9272 630.909 Q64.9272 634.283 64.1633 638.102 Q63.3994 641.89 61.9035 645.964 L55.2831 645.964 Q57.4793 642.049 58.5933 638.293 Q59.7073 634.538 59.7073 630.909 Q59.7073 625.403 57.543 622.411 Q55.3786 619.419 51.3682 619.419 Q47.8671 619.419 45.8937 621.583 Q43.9204 623.716 42.9337 628.618 L42.1698 632.532 Q40.7375 639.726 37.682 642.94 Q34.6264 646.155 29.1837 646.155 Q22.8817 646.155 19.2532 641.731 Q15.6248 637.275 15.6248 629.477 Q15.6248 626.135 16.2295 622.666 Q16.8343 619.196 18.0438 615.568 Z" fill="#000000" fill-rule="nonzero" fill-opacity="1" /><path clip-path="url(#clip640)" d="M42.4881 573.3 L64.0042 573.3 L64.0042 579.156 L42.679 579.156 Q37.6183 579.156 35.1038 581.129 Q32.5894 583.103 32.5894 587.049 Q32.5894 591.792 35.6131 594.529 Q38.6368 597.266 43.8567 597.266 L64.0042 597.266 L64.0042 603.155 L14.479 603.155 L14.479 597.266 L33.8944 597.266 Q30.6797 595.166 29.0883 592.333 Q27.4968 589.468 27.4968 585.745 Q27.4968 579.602 31.3163 576.451 Q35.1038 573.3 42.4881 573.3 Z" fill="#000000" fill-rule="nonzero" fill-opacity="1" /><path clip-path="url(#clip640)" d="M44.7161 531.127 L47.5806 531.127 L47.5806 558.054 Q53.6281 557.672 56.8109 554.425 Q59.9619 551.147 59.9619 545.322 Q59.9619 541.948 59.1344 538.797 Q58.3069 535.615 56.6518 532.495 L62.1899 532.495 Q63.5267 535.646 64.227 538.957 Q64.9272 542.267 64.9272 545.672 Q64.9272 554.202 59.9619 559.2 Q54.9967 564.165 46.5303 564.165 Q37.7774 564.165 32.6531 559.454 Q27.4968 554.712 27.4968 546.691 Q27.4968 539.498 32.1438 535.328 Q36.7589 531.127 44.7161 531.127 M42.9973 536.983 Q38.1912 537.047 35.3266 539.689 Q32.4621 542.299 32.4621 546.627 Q32.4621 551.529 35.2312 554.489 Q38.0002 557.417 43.0292 557.863 L42.9973 536.983 Z" fill="#000000" fill-rule="nonzero" fill-opacity="1" /><path clip-path="url(#clip640)" d="M33.7671 498.057 L14.479 498.057 L14.479 492.2 L64.0042 492.2 L64.0042 498.057 L58.657 498.057 Q61.8398 499.903 63.3994 502.736 Q64.9272 505.537 64.9272 509.483 Q64.9272 515.945 59.771 520.019 Q54.6147 524.061 46.212 524.061 Q37.8093 524.061 32.6531 520.019 Q27.4968 515.945 27.4968 509.483 Q27.4968 505.537 29.0564 502.736 Q30.5842 499.903 33.7671 498.057 M46.212 518.013 Q52.6732 518.013 56.3653 515.372 Q60.0256 512.698 60.0256 508.051 Q60.0256 503.404 56.3653 500.731 Q52.6732 498.057 46.212 498.057 Q39.7508 498.057 36.0905 500.731 Q32.3984 503.404 32.3984 508.051 Q32.3984 512.698 36.0905 515.372 Q39.7508 518.013 46.212 518.013 Z" fill="#000000" fill-rule="nonzero" fill-opacity="1" /><path clip-path="url(#clip640)" d="M14.5426 445.349 Q21.8632 449.614 29.0246 451.683 Q36.186 453.752 43.5384 453.752 Q50.8908 453.752 58.1159 451.683 Q65.3091 449.582 72.5979 445.349 L72.5979 450.441 Q65.1182 455.216 57.8931 457.603 Q50.668 459.958 43.5384 459.958 Q36.4406 459.958 29.2474 457.603 Q22.0542 455.248 14.5426 450.441 L14.5426 445.349 Z" fill="#000000" fill-rule="nonzero" fill-opacity="1" /><path clip-path="url(#clip640)" d="M14.479 434.209 L14.479 428.321 L43.7294 428.321 L28.3562 410.847 L28.3562 403.367 L45.0344 422.273 L64.0042 402.571 L64.0042 410.21 L46.5939 428.321 L64.0042 428.321 L64.0042 434.209 L14.479 434.209 Z" fill="#000000" fill-rule="nonzero" fill-opacity="1" /><path clip-path="url(#clip640)" d="M16.4842 400.216 L16.4842 393.723 L56.6518 383.729 L16.4842 373.766 L16.4842 366.541 L56.6518 356.547 L16.4842 346.585 L16.4842 340.06 L64.0042 351.996 L64.0042 360.08 L22.7544 370.106 L64.0042 380.228 L64.0042 388.312 L16.4842 400.216 Z" fill="#000000" fill-rule="nonzero" fill-opacity="1" /><path clip-path="url(#clip640)" d="M14.5426 332.708 L14.5426 327.615 Q22.0542 322.841 29.2474 320.486 Q36.4406 318.098 43.5384 318.098 Q50.668 318.098 57.8931 320.486 Q65.1182 322.841 72.5979 327.615 L72.5979 332.708 Q65.3091 328.474 58.1159 326.406 Q50.8908 324.305 43.5384 324.305 Q36.186 324.305 29.0246 326.406 Q21.8632 328.474 14.5426 332.708 Z" fill="#000000" fill-rule="nonzero" fill-opacity="1" /><path clip-path="url(#clip640)" d="M344.169 44.2197 Q346.802 45.1109 349.273 48.0275 Q351.785 50.9442 354.296 56.0483 L362.601 72.576 L353.81 72.576 L346.073 57.061 Q343.075 50.9847 340.24 48.9997 Q337.445 47.0148 332.584 47.0148 L323.672 47.0148 L323.672 72.576 L315.489 72.576 L315.489 12.096 L333.961 12.096 Q344.331 12.096 349.435 16.4305 Q354.539 20.7649 354.539 29.5149 Q354.539 35.2267 351.866 38.994 Q349.233 42.7613 344.169 44.2197 M323.672 18.8205 L323.672 40.2903 L333.961 40.2903 Q339.875 40.2903 342.873 37.5762 Q345.911 34.8216 345.911 29.5149 Q345.911 24.2082 342.873 21.5346 Q339.875 18.8205 333.961 18.8205 L323.672 18.8205 Z" fill="#000000" fill-rule="nonzero" fill-opacity="1" /><path clip-path="url(#clip640)" d="M407.89 48.0275 L407.89 51.6733 L373.619 51.6733 Q374.105 59.3701 378.237 63.421 Q382.41 67.4314 389.823 67.4314 Q394.117 67.4314 398.127 66.3781 Q402.178 65.3249 406.148 63.2184 L406.148 70.267 Q402.138 71.9684 397.925 72.8596 Q393.712 73.7508 389.377 73.7508 Q378.521 73.7508 372.161 67.4314 Q365.841 61.1119 365.841 50.3365 Q365.841 39.1965 371.837 32.6746 Q377.873 26.1121 388.081 26.1121 Q397.236 26.1121 402.543 32.0264 Q407.89 37.9003 407.89 48.0275 M400.436 45.84 Q400.355 39.7232 396.993 36.0774 Q393.671 32.4315 388.162 32.4315 Q381.924 32.4315 378.156 35.9558 Q374.429 39.4801 373.862 45.8805 L400.436 45.84 Z" fill="#000000" fill-rule="nonzero" fill-opacity="1" /><path clip-path="url(#clip640)" d="M420.124 9.54393 L427.577 9.54393 L427.577 72.576 L420.124 72.576 L420.124 9.54393 Z" fill="#000000" fill-rule="nonzero" fill-opacity="1" /><path clip-path="url(#clip640)" d="M463.792 49.7694 Q454.759 49.7694 451.275 51.8354 Q447.791 53.9013 447.791 58.8839 Q447.791 62.8538 450.384 65.2034 Q453.017 67.5124 457.513 67.5124 Q463.711 67.5124 467.438 63.1374 Q471.205 58.7219 471.205 51.4303 L471.205 49.7694 L463.792 49.7694 M478.659 46.6907 L478.659 72.576 L471.205 72.576 L471.205 65.6895 Q468.653 69.8214 464.846 71.8063 Q461.038 73.7508 455.529 73.7508 Q448.561 73.7508 444.429 69.8619 Q440.338 65.9325 440.338 59.3701 Q440.338 51.7138 445.442 47.825 Q450.586 43.9361 460.754 43.9361 L471.205 43.9361 L471.205 43.2069 Q471.205 38.0623 467.803 35.2672 Q464.44 32.4315 458.324 32.4315 Q454.435 32.4315 450.748 33.3632 Q447.062 34.295 443.659 36.1584 L443.659 29.2718 Q447.751 27.692 451.599 26.9223 Q455.447 26.1121 459.093 26.1121 Q468.937 26.1121 473.798 31.2163 Q478.659 36.3204 478.659 46.6907 Z" fill="#000000" fill-rule="nonzero" fill-opacity="1" /><path clip-path="url(#clip640)" d="M531.726 27.2059 L515.32 49.2833 L532.577 72.576 L523.786 72.576 L510.58 54.752 L497.374 72.576 L488.584 72.576 L506.205 48.8377 L490.083 27.2059 L498.873 27.2059 L510.904 43.369 L522.936 27.2059 L531.726 27.2059 Z" fill="#000000" fill-rule="nonzero" fill-opacity="1" /><path clip-path="url(#clip640)" d="M579.365 48.0275 L579.365 51.6733 L545.094 51.6733 Q545.58 59.3701 549.712 63.421 Q553.884 67.4314 561.298 67.4314 Q565.592 67.4314 569.602 66.3781 Q573.653 65.3249 577.623 63.2184 L577.623 70.267 Q573.612 71.9684 569.399 72.8596 Q565.186 73.7508 560.852 73.7508 Q549.996 73.7508 543.636 67.4314 Q537.316 61.1119 537.316 50.3365 Q537.316 39.1965 543.312 32.6746 Q549.347 26.1121 559.556 26.1121 Q568.711 26.1121 574.017 32.0264 Q579.365 37.9003 579.365 48.0275 M571.911 45.84 Q571.83 39.7232 568.468 36.0774 Q565.146 32.4315 559.637 32.4315 Q553.398 32.4315 549.631 35.9558 Q545.904 39.4801 545.337 45.8805 L571.911 45.84 Z" fill="#000000" fill-rule="nonzero" fill-opacity="1" /><path clip-path="url(#clip640)" d="M621.454 34.0924 L621.454 9.54393 L628.907 9.54393 L628.907 72.576 L621.454 72.576 L621.454 65.7705 Q619.104 69.8214 615.499 71.8063 Q611.934 73.7508 606.911 73.7508 Q598.687 73.7508 593.502 67.1883 Q588.358 60.6258 588.358 49.9314 Q588.358 39.2371 593.502 32.6746 Q598.687 26.1121 606.911 26.1121 Q611.934 26.1121 615.499 28.0971 Q619.104 30.0415 621.454 34.0924 M596.054 49.9314 Q596.054 58.1548 599.417 62.8538 Q602.819 67.5124 608.734 67.5124 Q614.648 67.5124 618.051 62.8538 Q621.454 58.1548 621.454 49.9314 Q621.454 41.7081 618.051 37.0496 Q614.648 32.3505 608.734 32.3505 Q602.819 32.3505 599.417 37.0496 Q596.054 41.7081 596.054 49.9314 Z" fill="#000000" fill-rule="nonzero" fill-opacity="1" /><path clip-path="url(#clip640)" d="M679.138 18.8205 L679.138 41.5461 L689.428 41.5461 Q695.139 41.5461 698.259 38.5889 Q701.378 35.6318 701.378 30.163 Q701.378 24.7348 698.259 21.7777 Q695.139 18.8205 689.428 18.8205 L679.138 18.8205 M670.956 12.096 L689.428 12.096 Q699.595 12.096 704.781 16.714 Q710.006 21.2916 710.006 30.163 Q710.006 39.1155 704.781 43.6931 Q699.595 48.2706 689.428 48.2706 L679.138 48.2706 L679.138 72.576 L670.956 72.576 L670.956 12.096 Z" fill="#000000" fill-rule="nonzero" fill-opacity="1" /><path clip-path="url(#clip640)" d="M735.892 20.1573 L724.792 50.2555 L747.032 50.2555 L735.892 20.1573 M731.274 12.096 L740.55 12.096 L763.6 72.576 L755.093 72.576 L749.584 57.061 L722.321 57.061 L716.812 72.576 L708.183 72.576 L731.274 12.096 Z" fill="#000000" fill-rule="nonzero" fill-opacity="1" /><path clip-path="url(#clip640)" d="M780.614 18.8205 L780.614 65.8515 L790.498 65.8515 Q803.015 65.8515 808.808 60.1802 Q814.641 54.509 814.641 42.2752 Q814.641 30.1225 808.808 24.4918 Q803.015 18.8205 790.498 18.8205 L780.614 18.8205 M772.431 12.096 L789.242 12.096 Q806.823 12.096 815.046 19.4281 Q823.27 26.7198 823.27 42.2752 Q823.27 57.9117 815.006 65.2439 Q806.742 72.576 789.242 72.576 L772.431 72.576 L772.431 12.096 Z" fill="#000000" fill-rule="nonzero" fill-opacity="1" /><path clip-path="url(#clip640)" d="M844.496 18.8205 L844.496 41.5461 L854.786 41.5461 Q860.497 41.5461 863.617 38.5889 Q866.736 35.6318 866.736 30.163 Q866.736 24.7348 863.617 21.7777 Q860.497 18.8205 854.786 18.8205 L844.496 18.8205 M836.313 12.096 L854.786 12.096 Q864.953 12.096 870.139 16.714 Q875.364 21.2916 875.364 30.163 Q875.364 39.1155 870.139 43.6931 Q864.953 48.2706 854.786 48.2706 L844.496 48.2706 L844.496 72.576 L836.313 72.576 L836.313 12.096 Z" fill="#000000" fill-rule="nonzero" fill-opacity="1" /><path clip-path="url(#clip640)" d="M912.714 12.096 L920.896 12.096 L920.896 65.6895 L950.346 65.6895 L950.346 72.576 L912.714 72.576 L912.714 12.096 Z" fill="#000000" fill-rule="nonzero" fill-opacity="1" /><path clip-path="url(#clip640)" d="M974.733 32.4315 Q968.738 32.4315 965.254 37.1306 Q961.77 41.7891 961.77 49.9314 Q961.77 58.0738 965.213 62.7728 Q968.697 67.4314 974.733 67.4314 Q980.688 67.4314 984.172 62.7323 Q987.655 58.0333 987.655 49.9314 Q987.655 41.8701 984.172 37.1711 Q980.688 32.4315 974.733 32.4315 M974.733 26.1121 Q984.455 26.1121 990.005 32.4315 Q995.555 38.7509 995.555 49.9314 Q995.555 61.0714 990.005 67.4314 Q984.455 73.7508 974.733 73.7508 Q964.97 73.7508 959.42 67.4314 Q953.911 61.0714 953.911 49.9314 Q953.911 38.7509 959.42 32.4315 Q964.97 26.1121 974.733 26.1121 Z" fill="#000000" fill-rule="nonzero" fill-opacity="1" /><path clip-path="url(#clip640)" d="M1003.58 27.2059 L1011.03 27.2059 L1020.35 62.6108 L1029.62 27.2059 L1038.41 27.2059 L1047.73 62.6108 L1057.01 27.2059 L1064.46 27.2059 L1052.59 72.576 L1043.8 72.576 L1034.04 35.3887 L1024.23 72.576 L1015.44 72.576 L1003.58 27.2059 Z" fill="#000000" fill-rule="nonzero" fill-opacity="1" /><path clip-path="url(#clip640)" d="M1114.57 48.0275 L1114.57 51.6733 L1080.3 51.6733 Q1080.79 59.3701 1084.92 63.421 Q1089.09 67.4314 1096.5 67.4314 Q1100.8 67.4314 1104.81 66.3781 Q1108.86 65.3249 1112.83 63.2184 L1112.83 70.267 Q1108.82 71.9684 1104.6 72.8596 Q1100.39 73.7508 1096.06 73.7508 Q1085.2 73.7508 1078.84 67.4314 Q1072.52 61.1119 1072.52 50.3365 Q1072.52 39.1965 1078.52 32.6746 Q1084.55 26.1121 1094.76 26.1121 Q1103.92 26.1121 1109.22 32.0264 Q1114.57 37.9003 1114.57 48.0275 M1107.12 45.84 Q1107.04 39.7232 1103.67 36.0774 Q1100.35 32.4315 1094.84 32.4315 Q1088.6 32.4315 1084.84 35.9558 Q1081.11 39.4801 1080.54 45.8805 L1107.12 45.84 Z" fill="#000000" fill-rule="nonzero" fill-opacity="1" /><path clip-path="url(#clip640)" d="M1153.09 34.1734 Q1151.84 33.4443 1150.34 33.1202 Q1148.88 32.7556 1147.1 32.7556 Q1140.78 32.7556 1137.38 36.8875 Q1134.01 40.9789 1134.01 48.6757 L1134.01 72.576 L1126.52 72.576 L1126.52 27.2059 L1134.01 27.2059 L1134.01 34.2544 Q1136.36 30.1225 1140.13 28.1376 Q1143.9 26.1121 1149.29 26.1121 Q1150.06 26.1121 1150.99 26.2337 Q1151.92 26.3147 1153.05 26.5172 L1153.09 34.1734 Z" fill="#000000" fill-rule="nonzero" fill-opacity="1" /><path clip-path="url(#clip640)" d="M1187.61 12.096 L1195.79 12.096 L1195.79 65.6895 L1225.24 65.6895 L1225.24 72.576 L1187.61 72.576 L1187.61 12.096 Z" fill="#000000" fill-rule="nonzero" fill-opacity="1" /><path clip-path="url(#clip640)" d="M1270.85 48.0275 L1270.85 51.6733 L1236.58 51.6733 Q1237.07 59.3701 1241.2 63.421 Q1245.37 67.4314 1252.79 67.4314 Q1257.08 67.4314 1261.09 66.3781 Q1265.14 65.3249 1269.11 63.2184 L1269.11 70.267 Q1265.1 71.9684 1260.89 72.8596 Q1256.68 73.7508 1252.34 73.7508 Q1241.48 73.7508 1235.13 67.4314 Q1228.81 61.1119 1228.81 50.3365 Q1228.81 39.1965 1234.8 32.6746 Q1240.84 26.1121 1251.05 26.1121 Q1260.2 26.1121 1265.51 32.0264 Q1270.85 37.9003 1270.85 48.0275 M1263.4 45.84 Q1263.32 39.7232 1259.96 36.0774 Q1256.64 32.4315 1251.13 32.4315 Q1244.89 32.4315 1241.12 35.9558 Q1237.39 39.4801 1236.83 45.8805 L1263.4 45.84 Z" fill="#000000" fill-rule="nonzero" fill-opacity="1" /><path clip-path="url(#clip640)" d="M1277.74 27.2059 L1285.64 27.2059 L1299.82 65.2844 L1314 27.2059 L1321.9 27.2059 L1304.88 72.576 L1294.75 72.576 L1277.74 27.2059 Z" fill="#000000" fill-rule="nonzero" fill-opacity="1" /><path clip-path="url(#clip640)" d="M1370.99 48.0275 L1370.99 51.6733 L1336.72 51.6733 Q1337.21 59.3701 1341.34 63.421 Q1345.51 67.4314 1352.93 67.4314 Q1357.22 67.4314 1361.23 66.3781 Q1365.28 65.3249 1369.25 63.2184 L1369.25 70.267 Q1365.24 71.9684 1361.03 72.8596 Q1356.81 73.7508 1352.48 73.7508 Q1341.62 73.7508 1335.26 67.4314 Q1328.94 61.1119 1328.94 50.3365 Q1328.94 39.1965 1334.94 32.6746 Q1340.98 26.1121 1351.18 26.1121 Q1360.34 26.1121 1365.65 32.0264 Q1370.99 37.9003 1370.99 48.0275 M1363.54 45.84 Q1363.46 39.7232 1360.1 36.0774 Q1356.77 32.4315 1351.26 32.4315 Q1345.03 32.4315 1341.26 35.9558 Q1337.53 39.4801 1336.96 45.8805 L1363.54 45.84 Z" fill="#000000" fill-rule="nonzero" fill-opacity="1" /><path clip-path="url(#clip640)" d="M1383.23 9.54393 L1390.68 9.54393 L1390.68 72.576 L1383.23 72.576 L1383.23 9.54393 Z" fill="#000000" fill-rule="nonzero" fill-opacity="1" /><path clip-path="url(#clip640)" d="M1432.97 12.096 L1441.15 12.096 L1441.15 65.6895 L1470.6 65.6895 L1470.6 72.576 L1432.97 72.576 L1432.97 12.096 Z" fill="#000000" fill-rule="nonzero" fill-opacity="1" /><path clip-path="url(#clip640)" d="M1494.99 32.4315 Q1489 32.4315 1485.51 37.1306 Q1482.03 41.7891 1482.03 49.9314 Q1482.03 58.0738 1485.47 62.7728 Q1488.95 67.4314 1494.99 67.4314 Q1500.95 67.4314 1504.43 62.7323 Q1507.91 58.0333 1507.91 49.9314 Q1507.91 41.8701 1504.43 37.1711 Q1500.95 32.4315 1494.99 32.4315 M1494.99 26.1121 Q1504.71 26.1121 1510.26 32.4315 Q1515.81 38.7509 1515.81 49.9314 Q1515.81 61.0714 1510.26 67.4314 Q1504.71 73.7508 1494.99 73.7508 Q1485.23 73.7508 1479.68 67.4314 Q1474.17 61.0714 1474.17 49.9314 Q1474.17 38.7509 1479.68 32.4315 Q1485.23 26.1121 1494.99 26.1121 Z" fill="#000000" fill-rule="nonzero" fill-opacity="1" /><path clip-path="url(#clip640)" d="M1548.79 49.7694 Q1539.75 49.7694 1536.27 51.8354 Q1532.79 53.9013 1532.79 58.8839 Q1532.79 62.8538 1535.38 65.2034 Q1538.01 67.5124 1542.51 67.5124 Q1548.71 67.5124 1552.43 63.1374 Q1556.2 58.7219 1556.2 51.4303 L1556.2 49.7694 L1548.79 49.7694 M1563.65 46.6907 L1563.65 72.576 L1556.2 72.576 L1556.2 65.6895 Q1553.65 69.8214 1549.84 71.8063 Q1546.03 73.7508 1540.52 73.7508 Q1533.56 73.7508 1529.42 69.8619 Q1525.33 65.9325 1525.33 59.3701 Q1525.33 51.7138 1530.44 47.825 Q1535.58 43.9361 1545.75 43.9361 L1556.2 43.9361 L1556.2 43.2069 Q1556.2 38.0623 1552.8 35.2672 Q1549.43 32.4315 1543.32 32.4315 Q1539.43 32.4315 1535.74 33.3632 Q1532.06 34.295 1528.65 36.1584 L1528.65 29.2718 Q1532.74 27.692 1536.59 26.9223 Q1540.44 26.1121 1544.09 26.1121 Q1553.93 26.1121 1558.79 31.2163 Q1563.65 36.3204 1563.65 46.6907 Z" fill="#000000" fill-rule="nonzero" fill-opacity="1" /><path clip-path="url(#clip640)" d="M1608.86 34.0924 L1608.86 9.54393 L1616.32 9.54393 L1616.32 72.576 L1608.86 72.576 L1608.86 65.7705 Q1606.51 69.8214 1602.91 71.8063 Q1599.34 73.7508 1594.32 73.7508 Q1586.1 73.7508 1580.91 67.1883 Q1575.77 60.6258 1575.77 49.9314 Q1575.77 39.2371 1580.91 32.6746 Q1586.1 26.1121 1594.32 26.1121 Q1599.34 26.1121 1602.91 28.0971 Q1606.51 30.0415 1608.86 34.0924 M1583.46 49.9314 Q1583.46 58.1548 1586.82 62.8538 Q1590.23 67.5124 1596.14 67.5124 Q1602.06 67.5124 1605.46 62.8538 Q1608.86 58.1548 1608.86 49.9314 Q1608.86 41.7081 1605.46 37.0496 Q1602.06 32.3505 1596.14 32.3505 Q1590.23 32.3505 1586.82 37.0496 Q1583.46 41.7081 1583.46 49.9314 Z" fill="#000000" fill-rule="nonzero" fill-opacity="1" /><path clip-path="url(#clip640)" d="M1694.62 14.0809 L1694.62 22.0612 Q1689.96 19.8332 1685.83 18.7395 Q1681.7 17.6457 1677.85 17.6457 Q1671.16 17.6457 1667.52 20.2383 Q1663.91 22.8309 1663.91 27.611 Q1663.91 31.6214 1666.3 33.6873 Q1668.73 35.7128 1675.46 36.9686 L1680.4 37.9813 Q1689.56 39.7232 1693.89 44.1387 Q1698.26 48.5136 1698.26 55.8863 Q1698.26 64.6767 1692.35 69.2137 Q1686.48 73.7508 1675.09 73.7508 Q1670.8 73.7508 1665.94 72.7785 Q1661.12 71.8063 1655.93 69.9024 L1655.93 61.4765 Q1660.92 64.2716 1665.7 65.6895 Q1670.48 67.1073 1675.09 67.1073 Q1682.1 67.1073 1685.91 64.3527 Q1689.72 61.598 1689.72 56.4939 Q1689.72 52.0379 1686.96 49.5264 Q1684.25 47.0148 1678.01 45.759 L1673.03 44.7868 Q1663.87 42.9639 1659.78 39.075 Q1655.69 35.1862 1655.69 28.2591 Q1655.69 20.2383 1661.32 15.6203 Q1666.99 11.0023 1676.92 11.0023 Q1681.17 11.0023 1685.59 11.7719 Q1690 12.5416 1694.62 14.0809 Z" fill="#000000" fill-rule="nonzero" fill-opacity="1" /><path clip-path="url(#clip640)" d="M1748.42 45.1919 L1748.42 72.576 L1740.96 72.576 L1740.96 45.4349 Q1740.96 38.994 1738.45 35.7938 Q1735.94 32.5936 1730.92 32.5936 Q1724.88 32.5936 1721.4 36.4419 Q1717.91 40.2903 1717.91 46.9338 L1717.91 72.576 L1710.42 72.576 L1710.42 9.54393 L1717.91 9.54393 L1717.91 34.2544 Q1720.59 30.163 1724.19 28.1376 Q1727.84 26.1121 1732.58 26.1121 Q1740.39 26.1121 1744.4 30.9732 Q1748.42 35.7938 1748.42 45.1919 Z" fill="#000000" fill-rule="nonzero" fill-opacity="1" /><path clip-path="url(#clip640)" d="M1802.09 48.0275 L1802.09 51.6733 L1767.82 51.6733 Q1768.31 59.3701 1772.44 63.421 Q1776.61 67.4314 1784.02 67.4314 Q1788.32 67.4314 1792.33 66.3781 Q1796.38 65.3249 1800.35 63.2184 L1800.35 70.267 Q1796.34 71.9684 1792.12 72.8596 Q1787.91 73.7508 1783.58 73.7508 Q1772.72 73.7508 1766.36 67.4314 Q1760.04 61.1119 1760.04 50.3365 Q1760.04 39.1965 1766.04 32.6746 Q1772.07 26.1121 1782.28 26.1121 Q1791.44 26.1121 1796.74 32.0264 Q1802.09 37.9003 1802.09 48.0275 M1794.64 45.84 Q1794.55 39.7232 1791.19 36.0774 Q1787.87 32.4315 1782.36 32.4315 Q1776.12 32.4315 1772.36 35.9558 Q1768.63 39.4801 1768.06 45.8805 L1794.64 45.84 Z" fill="#000000" fill-rule="nonzero" fill-opacity="1" /><path clip-path="url(#clip640)" d="M1844.18 34.0924 L1844.18 9.54393 L1851.63 9.54393 L1851.63 72.576 L1844.18 72.576 L1844.18 65.7705 Q1841.83 69.8214 1838.22 71.8063 Q1834.66 73.7508 1829.64 73.7508 Q1821.41 73.7508 1816.23 67.1883 Q1811.08 60.6258 1811.08 49.9314 Q1811.08 39.2371 1816.23 32.6746 Q1821.41 26.1121 1829.64 26.1121 Q1834.66 26.1121 1838.22 28.0971 Q1841.83 30.0415 1844.18 34.0924 M1818.78 49.9314 Q1818.78 58.1548 1822.14 62.8538 Q1825.54 67.5124 1831.46 67.5124 Q1837.37 67.5124 1840.78 62.8538 Q1844.18 58.1548 1844.18 49.9314 Q1844.18 41.7081 1840.78 37.0496 Q1837.37 32.3505 1831.46 32.3505 Q1825.54 32.3505 1822.14 37.0496 Q1818.78 41.7081 1818.78 49.9314 Z" fill="#000000" fill-rule="nonzero" fill-opacity="1" /><path clip-path="url(#clip640)" d="M1938.97 16.7545 L1938.97 25.383 Q1934.84 21.5346 1930.14 19.6307 Q1925.48 17.7268 1920.21 17.7268 Q1909.84 17.7268 1904.33 24.0867 Q1898.83 30.4061 1898.83 42.3968 Q1898.83 54.3469 1904.33 60.7069 Q1909.84 67.0263 1920.21 67.0263 Q1925.48 67.0263 1930.14 65.1223 Q1934.84 63.2184 1938.97 59.3701 L1938.97 67.9175 Q1934.68 70.8341 1929.86 72.2924 Q1925.08 73.7508 1919.73 73.7508 Q1906 73.7508 1898.1 65.3654 Q1890.2 56.9395 1890.2 42.3968 Q1890.2 27.8135 1898.1 19.4281 Q1906 11.0023 1919.73 11.0023 Q1925.16 11.0023 1929.94 12.4606 Q1934.76 13.8784 1938.97 16.7545 Z" fill="#000000" fill-rule="nonzero" fill-opacity="1" /><path clip-path="url(#clip640)" d="M1968.87 32.4315 Q1962.87 32.4315 1959.39 37.1306 Q1955.9 41.7891 1955.9 49.9314 Q1955.9 58.0738 1959.35 62.7728 Q1962.83 67.4314 1968.87 67.4314 Q1974.82 67.4314 1978.3 62.7323 Q1981.79 58.0333 1981.79 49.9314 Q1981.79 41.8701 1978.3 37.1711 Q1974.82 32.4315 1968.87 32.4315 M1968.87 26.1121 Q1978.59 26.1121 1984.14 32.4315 Q1989.69 38.7509 1989.69 49.9314 Q1989.69 61.0714 1984.14 67.4314 Q1978.59 73.7508 1968.87 73.7508 Q1959.1 73.7508 1953.55 67.4314 Q1948.04 61.0714 1948.04 49.9314 Q1948.04 38.7509 1953.55 32.4315 Q1959.1 26.1121 1968.87 26.1121 Z" fill="#000000" fill-rule="nonzero" fill-opacity="1" /><path clip-path="url(#clip640)" d="M2037.37 35.9153 Q2040.16 30.8922 2044.05 28.5022 Q2047.94 26.1121 2053.21 26.1121 Q2060.29 26.1121 2064.14 31.0947 Q2067.99 36.0368 2067.99 45.1919 L2067.99 72.576 L2060.5 72.576 L2060.5 45.4349 Q2060.5 38.913 2058.19 35.7533 Q2055.88 32.5936 2051.14 32.5936 Q2045.35 32.5936 2041.98 36.4419 Q2038.62 40.2903 2038.62 46.9338 L2038.62 72.576 L2031.13 72.576 L2031.13 45.4349 Q2031.13 38.8725 2028.82 35.7533 Q2026.51 32.5936 2021.69 32.5936 Q2015.98 32.5936 2012.62 36.4824 Q2009.25 40.3308 2009.25 46.9338 L2009.25 72.576 L2001.76 72.576 L2001.76 27.2059 L2009.25 27.2059 L2009.25 34.2544 Q2011.8 30.082 2015.37 28.0971 Q2018.93 26.1121 2023.84 26.1121 Q2028.78 26.1121 2032.22 28.6237 Q2035.71 31.1352 2037.37 35.9153 Z" fill="#000000" fill-rule="nonzero" fill-opacity="1" /><path clip-path="url(#clip640)" d="M2090.07 65.7705 L2090.07 89.8329 L2082.57 89.8329 L2082.57 27.2059 L2090.07 27.2059 L2090.07 34.0924 Q2092.42 30.0415 2095.98 28.0971 Q2099.59 26.1121 2104.57 26.1121 Q2112.83 26.1121 2117.98 32.6746 Q2123.16 39.2371 2123.16 49.9314 Q2123.16 60.6258 2117.98 67.1883 Q2112.83 73.7508 2104.57 73.7508 Q2099.59 73.7508 2095.98 71.8063 Q2092.42 69.8214 2090.07 65.7705 M2115.43 49.9314 Q2115.43 41.7081 2112.02 37.0496 Q2108.66 32.3505 2102.75 32.3505 Q2096.83 32.3505 2093.43 37.0496 Q2090.07 41.7081 2090.07 49.9314 Q2090.07 58.1548 2093.43 62.8538 Q2096.83 67.5124 2102.75 67.5124 Q2108.66 67.5124 2112.02 62.8538 Q2115.43 58.1548 2115.43 49.9314 Z" fill="#000000" fill-rule="nonzero" fill-opacity="1" /><path clip-path="url(#clip640)" d="M2156.14 49.7694 Q2147.11 49.7694 2143.62 51.8354 Q2140.14 53.9013 2140.14 58.8839 Q2140.14 62.8538 2142.73 65.2034 Q2145.36 67.5124 2149.86 67.5124 Q2156.06 67.5124 2159.78 63.1374 Q2163.55 58.7219 2163.55 51.4303 L2163.55 49.7694 L2156.14 49.7694 M2171.01 46.6907 L2171.01 72.576 L2163.55 72.576 L2163.55 65.6895 Q2161 69.8214 2157.19 71.8063 Q2153.38 73.7508 2147.87 73.7508 Q2140.91 73.7508 2136.78 69.8619 Q2132.68 65.9325 2132.68 59.3701 Q2132.68 51.7138 2137.79 47.825 Q2142.93 43.9361 2153.1 43.9361 L2163.55 43.9361 L2163.55 43.2069 Q2163.55 38.0623 2160.15 35.2672 Q2156.79 32.4315 2150.67 32.4315 Q2146.78 32.4315 2143.09 33.3632 Q2139.41 34.295 2136.01 36.1584 L2136.01 29.2718 Q2140.1 27.692 2143.95 26.9223 Q2147.79 26.1121 2151.44 26.1121 Q2161.28 26.1121 2166.14 31.2163 Q2171.01 36.3204 2171.01 46.6907 Z" fill="#000000" fill-rule="nonzero" fill-opacity="1" /><path clip-path="url(#clip640)" d="M2212.65 34.1734 Q2211.39 33.4443 2209.89 33.1202 Q2208.44 32.7556 2206.65 32.7556 Q2200.33 32.7556 2196.93 36.8875 Q2193.57 40.9789 2193.57 48.6757 L2193.57 72.576 L2186.07 72.576 L2186.07 27.2059 L2193.57 27.2059 L2193.57 34.2544 Q2195.92 30.1225 2199.69 28.1376 Q2203.45 26.1121 2208.84 26.1121 Q2209.61 26.1121 2210.54 26.2337 Q2211.47 26.3147 2212.61 26.5172 L2212.65 34.1734 Z" fill="#000000" fill-rule="nonzero" fill-opacity="1" /><path clip-path="url(#clip640)" d="M2220.47 27.2059 L2227.92 27.2059 L2227.92 72.576 L2220.47 72.576 L2220.47 27.2059 M2220.47 9.54393 L2227.92 9.54393 L2227.92 18.9825 L2220.47 18.9825 L2220.47 9.54393 Z" fill="#000000" fill-rule="nonzero" fill-opacity="1" /><path clip-path="url(#clip640)" d="M2272.44 28.5427 L2272.44 35.5912 Q2269.28 33.9709 2265.88 33.1607 Q2262.47 32.3505 2258.83 32.3505 Q2253.28 32.3505 2250.48 34.0519 Q2247.73 35.7533 2247.73 39.156 Q2247.73 41.7486 2249.71 43.2475 Q2251.7 44.7058 2257.69 46.0426 L2260.25 46.6097 Q2268.19 48.3111 2271.51 51.4303 Q2274.87 54.509 2274.87 60.0587 Q2274.87 66.3781 2269.85 70.0644 Q2264.86 73.7508 2256.11 73.7508 Q2252.47 73.7508 2248.5 73.0216 Q2244.57 72.3329 2240.19 70.9151 L2240.19 63.2184 Q2244.33 65.3654 2248.34 66.4591 Q2252.35 67.5124 2256.28 67.5124 Q2261.54 67.5124 2264.38 65.73 Q2267.21 63.9071 2267.21 60.6258 Q2267.21 57.5877 2265.15 55.9673 Q2263.12 54.3469 2256.2 52.8481 L2253.6 52.2405 Q2246.68 50.7821 2243.6 47.7845 Q2240.52 44.7463 2240.52 39.4801 Q2240.52 33.0797 2245.06 29.5959 Q2249.59 26.1121 2257.94 26.1121 Q2262.07 26.1121 2265.72 26.7198 Q2269.36 27.3274 2272.44 28.5427 Z" fill="#000000" fill-rule="nonzero" fill-opacity="1" /><path clip-path="url(#clip640)" d="M2304.32 32.4315 Q2298.33 32.4315 2294.84 37.1306 Q2291.36 41.7891 2291.36 49.9314 Q2291.36 58.0738 2294.8 62.7728 Q2298.28 67.4314 2304.32 67.4314 Q2310.28 67.4314 2313.76 62.7323 Q2317.24 58.0333 2317.24 49.9314 Q2317.24 41.8701 2313.76 37.1711 Q2310.28 32.4315 2304.32 32.4315 M2304.32 26.1121 Q2314.04 26.1121 2319.59 32.4315 Q2325.14 38.7509 2325.14 49.9314 Q2325.14 61.0714 2319.59 67.4314 Q2314.04 73.7508 2304.32 73.7508 Q2294.56 73.7508 2289.01 67.4314 Q2283.5 61.0714 2283.5 49.9314 Q2283.5 38.7509 2289.01 32.4315 Q2294.56 26.1121 2304.32 26.1121 Z" fill="#000000" fill-rule="nonzero" fill-opacity="1" /><path clip-path="url(#clip640)" d="M2375.21 45.1919 L2375.21 72.576 L2367.76 72.576 L2367.76 45.4349 Q2367.76 38.994 2365.25 35.7938 Q2362.73 32.5936 2357.71 32.5936 Q2351.68 32.5936 2348.19 36.4419 Q2344.71 40.2903 2344.71 46.9338 L2344.71 72.576 L2337.21 72.576 L2337.21 27.2059 L2344.71 27.2059 L2344.71 34.2544 Q2347.38 30.163 2350.99 28.1376 Q2354.63 26.1121 2359.37 26.1121 Q2367.19 26.1121 2371.2 30.9732 Q2375.21 35.7938 2375.21 45.1919 Z" fill="#000000" fill-rule="nonzero" fill-opacity="1" /><path clip-path="url(#clip640)" d="M1803.7 270.476 L2285.6 270.476 L2285.6 166.796 L1803.7 166.796  Z" fill="#ffffff" fill-rule="evenodd" fill-opacity="1"/>
<polyline clip-path="url(#clip640)" style="stroke:#000000; stroke-linecap:round; stroke-linejoin:round; stroke-width:4; stroke-opacity:1; fill:none" points="1803.7,270.476 2285.6,270.476 2285.6,166.796 1803.7,166.796 1803.7,270.476 "/>
<polyline clip-path="url(#clip640)" style="stroke:#009af9; stroke-linecap:round; stroke-linejoin:round; stroke-width:4; stroke-opacity:1; fill:none" points="1826.09,218.636 1960.41,218.636 "/>
<path clip-path="url(#clip640)" d="M1987.08 232.027 L1987.08 245.777 L1982.79 245.777 L1982.79 209.99 L1987.08 209.99 L1987.08 213.925 Q1988.42 211.61 1990.46 210.499 Q1992.52 209.365 1995.36 209.365 Q2000.09 209.365 2003.02 213.115 Q2005.99 216.865 2005.99 222.976 Q2005.99 229.087 2003.02 232.837 Q2000.09 236.587 1995.36 236.587 Q1992.52 236.587 1990.46 235.476 Q1988.42 234.342 1987.08 232.027 M2001.57 222.976 Q2001.57 218.277 1999.62 215.615 Q1997.7 212.93 1994.32 212.93 Q1990.94 212.93 1989 215.615 Q1987.08 218.277 1987.08 222.976 Q1987.08 227.675 1989 230.36 Q1990.94 233.022 1994.32 233.022 Q1997.7 233.022 1999.62 230.36 Q2001.57 227.675 2001.57 222.976 Z" fill="#000000" fill-rule="nonzero" fill-opacity="1" /><path clip-path="url(#clip640)" d="M2028.07 213.971 Q2027.35 213.555 2026.5 213.37 Q2025.66 213.161 2024.65 213.161 Q2021.03 213.161 2019.09 215.522 Q2017.17 217.86 2017.17 222.258 L2017.17 235.916 L2012.89 235.916 L2012.89 209.99 L2017.17 209.99 L2017.17 214.018 Q2018.51 211.657 2020.66 210.522 Q2022.82 209.365 2025.9 209.365 Q2026.33 209.365 2026.87 209.434 Q2027.4 209.481 2028.05 209.596 L2028.07 213.971 Z" fill="#000000" fill-rule="nonzero" fill-opacity="1" /><path clip-path="url(#clip640)" d="M2041.54 212.976 Q2038.12 212.976 2036.13 215.661 Q2034.14 218.323 2034.14 222.976 Q2034.14 227.629 2036.1 230.314 Q2038.09 232.976 2041.54 232.976 Q2044.95 232.976 2046.94 230.291 Q2048.93 227.606 2048.93 222.976 Q2048.93 218.37 2046.94 215.684 Q2044.95 212.976 2041.54 212.976 M2041.54 209.365 Q2047.1 209.365 2050.27 212.976 Q2053.44 216.587 2053.44 222.976 Q2053.44 229.342 2050.27 232.976 Q2047.1 236.587 2041.54 236.587 Q2035.96 236.587 2032.79 232.976 Q2029.65 229.342 2029.65 222.976 Q2029.65 216.587 2032.79 212.976 Q2035.96 209.365 2041.54 209.365 Z" fill="#000000" fill-rule="nonzero" fill-opacity="1" /><path clip-path="url(#clip640)" d="M2064.62 232.027 L2064.62 245.777 L2060.34 245.777 L2060.34 209.99 L2064.62 209.99 L2064.62 213.925 Q2065.96 211.61 2068 210.499 Q2070.06 209.365 2072.91 209.365 Q2077.63 209.365 2080.57 213.115 Q2083.53 216.865 2083.53 222.976 Q2083.53 229.087 2080.57 232.837 Q2077.63 236.587 2072.91 236.587 Q2070.06 236.587 2068 235.476 Q2065.96 234.342 2064.62 232.027 M2079.11 222.976 Q2079.11 218.277 2077.17 215.615 Q2075.25 212.93 2071.87 212.93 Q2068.49 212.93 2066.54 215.615 Q2064.62 218.277 2064.62 222.976 Q2064.62 227.675 2066.54 230.36 Q2068.49 233.022 2071.87 233.022 Q2075.25 233.022 2077.17 230.36 Q2079.11 227.675 2079.11 222.976 Z" fill="#000000" fill-rule="nonzero" fill-opacity="1" /><path clip-path="url(#clip640)" d="M2100.64 212.976 Q2097.21 212.976 2095.22 215.661 Q2093.23 218.323 2093.23 222.976 Q2093.23 227.629 2095.2 230.314 Q2097.19 232.976 2100.64 232.976 Q2104.04 232.976 2106.03 230.291 Q2108.02 227.606 2108.02 222.976 Q2108.02 218.37 2106.03 215.684 Q2104.04 212.976 2100.64 212.976 M2100.64 209.365 Q2106.2 209.365 2109.37 212.976 Q2112.54 216.587 2112.54 222.976 Q2112.54 229.342 2109.37 232.976 Q2106.2 236.587 2100.64 236.587 Q2095.06 236.587 2091.89 232.976 Q2088.74 229.342 2088.74 222.976 Q2088.74 216.587 2091.89 212.976 Q2095.06 209.365 2100.64 209.365 Z" fill="#000000" fill-rule="nonzero" fill-opacity="1" /><path clip-path="url(#clip640)" d="M2134.62 213.971 Q2133.9 213.555 2133.05 213.37 Q2132.21 213.161 2131.2 213.161 Q2127.58 213.161 2125.64 215.522 Q2123.72 217.86 2123.72 222.258 L2123.72 235.916 L2119.44 235.916 L2119.44 209.99 L2123.72 209.99 L2123.72 214.018 Q2125.06 211.657 2127.21 210.522 Q2129.37 209.365 2132.45 209.365 Q2132.89 209.365 2133.42 209.434 Q2133.95 209.481 2134.6 209.596 L2134.62 213.971 Z" fill="#000000" fill-rule="nonzero" fill-opacity="1" /><path clip-path="url(#clip640)" d="M2143.3 202.629 L2143.3 209.99 L2152.08 209.99 L2152.08 213.3 L2143.3 213.3 L2143.3 227.374 Q2143.3 230.545 2144.16 231.448 Q2145.04 232.351 2147.7 232.351 L2152.08 232.351 L2152.08 235.916 L2147.7 235.916 Q2142.77 235.916 2140.89 234.087 Q2139.02 232.235 2139.02 227.374 L2139.02 213.3 L2135.89 213.3 L2135.89 209.99 L2139.02 209.99 L2139.02 202.629 L2143.3 202.629 Z" fill="#000000" fill-rule="nonzero" fill-opacity="1" /><path clip-path="url(#clip640)" d="M2157.68 209.99 L2161.94 209.99 L2161.94 235.916 L2157.68 235.916 L2157.68 209.99 M2157.68 199.897 L2161.94 199.897 L2161.94 205.291 L2157.68 205.291 L2157.68 199.897 Z" fill="#000000" fill-rule="nonzero" fill-opacity="1" /><path clip-path="url(#clip640)" d="M2180.89 212.976 Q2177.47 212.976 2175.48 215.661 Q2173.49 218.323 2173.49 222.976 Q2173.49 227.629 2175.45 230.314 Q2177.45 232.976 2180.89 232.976 Q2184.3 232.976 2186.29 230.291 Q2188.28 227.606 2188.28 222.976 Q2188.28 218.37 2186.29 215.684 Q2184.3 212.976 2180.89 212.976 M2180.89 209.365 Q2186.45 209.365 2189.62 212.976 Q2192.79 216.587 2192.79 222.976 Q2192.79 229.342 2189.62 232.976 Q2186.45 236.587 2180.89 236.587 Q2175.32 236.587 2172.14 232.976 Q2169 229.342 2169 222.976 Q2169 216.587 2172.14 212.976 Q2175.32 209.365 2180.89 209.365 Z" fill="#000000" fill-rule="nonzero" fill-opacity="1" /><path clip-path="url(#clip640)" d="M2221.4 220.268 L2221.4 235.916 L2217.14 235.916 L2217.14 220.407 Q2217.14 216.726 2215.71 214.897 Q2214.27 213.069 2211.4 213.069 Q2207.95 213.069 2205.96 215.268 Q2203.97 217.467 2203.97 221.263 L2203.97 235.916 L2199.69 235.916 L2199.69 209.99 L2203.97 209.99 L2203.97 214.018 Q2205.5 211.68 2207.56 210.522 Q2209.64 209.365 2212.35 209.365 Q2216.82 209.365 2219.11 212.143 Q2221.4 214.897 2221.4 220.268 Z" fill="#000000" fill-rule="nonzero" fill-opacity="1" /><path clip-path="url(#clip640)" d="M2241.68 222.883 Q2236.52 222.883 2234.53 224.064 Q2232.54 225.244 2232.54 228.092 Q2232.54 230.36 2234.02 231.703 Q2235.52 233.022 2238.09 233.022 Q2241.63 233.022 2243.76 230.522 Q2245.92 227.999 2245.92 223.832 L2245.92 222.883 L2241.68 222.883 M2250.18 221.124 L2250.18 235.916 L2245.92 235.916 L2245.92 231.981 Q2244.46 234.342 2242.28 235.476 Q2240.11 236.587 2236.96 236.587 Q2232.98 236.587 2230.62 234.365 Q2228.28 232.119 2228.28 228.369 Q2228.28 223.994 2231.2 221.772 Q2234.13 219.55 2239.94 219.55 L2245.92 219.55 L2245.92 219.133 Q2245.92 216.194 2243.97 214.596 Q2242.05 212.976 2238.56 212.976 Q2236.33 212.976 2234.23 213.508 Q2232.12 214.041 2230.18 215.106 L2230.18 211.17 Q2232.51 210.268 2234.71 209.828 Q2236.91 209.365 2239 209.365 Q2244.62 209.365 2247.4 212.282 Q2250.18 215.198 2250.18 221.124 Z" fill="#000000" fill-rule="nonzero" fill-opacity="1" /><path clip-path="url(#clip640)" d="M2258.95 199.897 L2263.21 199.897 L2263.21 235.916 L2258.95 235.916 L2258.95 199.897 Z" fill="#000000" fill-rule="nonzero" fill-opacity="1" /></svg>
