<?xml version="1.0" encoding="utf-8"?>
<svg xmlns="http://www.w3.org/2000/svg" xmlns:xlink="http://www.w3.org/1999/xlink" width="600" height="400" viewBox="0 0 2400 1600">
<defs>
  <clipPath id="clip680">
    <rect x="0" y="0" width="2400" height="1600"/>
  </clipPath>
</defs>
<path clip-path="url(#clip680)" d="M0 1600 L2400 1600 L2400 0 L0 0  Z" fill="#ffffff" fill-rule="evenodd" fill-opacity="1"/>
<defs>
  <clipPath id="clip681">
    <rect x="480" y="0" width="1681" height="1600"/>
  </clipPath>
</defs>
<path clip-path="url(#clip680)" d="M249.542 1423.18 L2352.76 1423.18 L2352.76 123.472 L249.542 123.472  Z" fill="#ffffff" fill-rule="evenodd" fill-opacity="1"/>
<defs>
  <clipPath id="clip682">
    <rect x="249" y="123" width="2104" height="1301"/>
  </clipPath>
</defs>
<polyline clip-path="url(#clip682)" style="stroke:#000000; stroke-linecap:round; stroke-linejoin:round; stroke-width:2; stroke-opacity:0.1; fill:none" points="538.009,1423.18 538.009,123.472 "/>
<polyline clip-path="url(#clip682)" style="stroke:#000000; stroke-linecap:round; stroke-linejoin:round; stroke-width:2; stroke-opacity:0.1; fill:none" points="919.579,1423.18 919.579,123.472 "/>
<polyline clip-path="url(#clip682)" style="stroke:#000000; stroke-linecap:round; stroke-linejoin:round; stroke-width:2; stroke-opacity:0.1; fill:none" points="1301.15,1423.18 1301.15,123.472 "/>
<polyline clip-path="url(#clip682)" style="stroke:#000000; stroke-linecap:round; stroke-linejoin:round; stroke-width:2; stroke-opacity:0.1; fill:none" points="1682.72,1423.18 1682.72,123.472 "/>
<polyline clip-path="url(#clip682)" style="stroke:#000000; stroke-linecap:round; stroke-linejoin:round; stroke-width:2; stroke-opacity:0.1; fill:none" points="2064.29,1423.18 2064.29,123.472 "/>
<polyline clip-path="url(#clip682)" style="stroke:#000000; stroke-linecap:round; stroke-linejoin:round; stroke-width:2; stroke-opacity:0.1; fill:none" points="249.542,1398.66 2352.76,1398.66 "/>
<polyline clip-path="url(#clip682)" style="stroke:#000000; stroke-linecap:round; stroke-linejoin:round; stroke-width:2; stroke-opacity:0.1; fill:none" points="249.542,1092.12 2352.76,1092.12 "/>
<polyline clip-path="url(#clip682)" style="stroke:#000000; stroke-linecap:round; stroke-linejoin:round; stroke-width:2; stroke-opacity:0.1; fill:none" points="249.542,785.587 2352.76,785.587 "/>
<polyline clip-path="url(#clip682)" style="stroke:#000000; stroke-linecap:round; stroke-linejoin:round; stroke-width:2; stroke-opacity:0.1; fill:none" points="249.542,479.053 2352.76,479.053 "/>
<polyline clip-path="url(#clip682)" style="stroke:#000000; stroke-linecap:round; stroke-linejoin:round; stroke-width:2; stroke-opacity:0.1; fill:none" points="249.542,172.518 2352.76,172.518 "/>
<polyline clip-path="url(#clip680)" style="stroke:#000000; stroke-linecap:round; stroke-linejoin:round; stroke-width:4; stroke-opacity:1; fill:none" points="249.542,1423.18 2352.76,1423.18 "/>
<polyline clip-path="url(#clip680)" style="stroke:#000000; stroke-linecap:round; stroke-linejoin:round; stroke-width:4; stroke-opacity:1; fill:none" points="538.009,1423.18 538.009,1404.28 "/>
<polyline clip-path="url(#clip680)" style="stroke:#000000; stroke-linecap:round; stroke-linejoin:round; stroke-width:4; stroke-opacity:1; fill:none" points="919.579,1423.18 919.579,1404.28 "/>
<polyline clip-path="url(#clip680)" style="stroke:#000000; stroke-linecap:round; stroke-linejoin:round; stroke-width:4; stroke-opacity:1; fill:none" points="1301.15,1423.18 1301.15,1404.28 "/>
<polyline clip-path="url(#clip680)" style="stroke:#000000; stroke-linecap:round; stroke-linejoin:round; stroke-width:4; stroke-opacity:1; fill:none" points="1682.72,1423.18 1682.72,1404.28 "/>
<polyline clip-path="url(#clip680)" style="stroke:#000000; stroke-linecap:round; stroke-linejoin:round; stroke-width:4; stroke-opacity:1; fill:none" points="2064.29,1423.18 2064.29,1404.28 "/>
<path clip-path="url(#clip680)" d="M509.745 1481.64 L526.065 1481.64 L526.065 1485.58 L504.12 1485.58 L504.12 1481.64 Q506.782 1478.89 511.366 1474.26 Q515.972 1469.61 517.153 1468.27 Q519.398 1465.74 520.278 1464.01 Q521.18 1462.25 521.18 1460.56 Q521.18 1457.8 519.236 1456.07 Q517.315 1454.33 514.213 1454.33 Q512.014 1454.33 509.56 1455.09 Q507.129 1455.86 504.352 1457.41 L504.352 1452.69 Q507.176 1451.55 509.629 1450.97 Q512.083 1450.39 514.12 1450.39 Q519.491 1450.39 522.685 1453.08 Q525.879 1455.77 525.879 1460.26 Q525.879 1462.39 525.069 1464.31 Q524.282 1466.2 522.176 1468.8 Q521.597 1469.47 518.495 1472.69 Q515.393 1475.88 509.745 1481.64 Z" fill="#000000" fill-rule="nonzero" fill-opacity="1" /><path clip-path="url(#clip680)" d="M535.879 1479.7 L540.764 1479.7 L540.764 1485.58 L535.879 1485.58 L535.879 1479.7 Z" fill="#000000" fill-rule="nonzero" fill-opacity="1" /><path clip-path="url(#clip680)" d="M550.995 1451.02 L569.351 1451.02 L569.351 1454.96 L555.277 1454.96 L555.277 1463.43 Q556.296 1463.08 557.314 1462.92 Q558.333 1462.73 559.351 1462.73 Q565.138 1462.73 568.518 1465.9 Q571.898 1469.08 571.898 1474.49 Q571.898 1480.07 568.425 1483.17 Q564.953 1486.25 558.634 1486.25 Q556.458 1486.25 554.189 1485.88 Q551.944 1485.51 549.537 1484.77 L549.537 1480.07 Q551.62 1481.2 553.842 1481.76 Q556.064 1482.32 558.541 1482.32 Q562.546 1482.32 564.884 1480.21 Q567.222 1478.1 567.222 1474.49 Q567.222 1470.88 564.884 1468.77 Q562.546 1466.67 558.541 1466.67 Q556.666 1466.67 554.791 1467.08 Q552.939 1467.5 550.995 1468.38 L550.995 1451.02 Z" fill="#000000" fill-rule="nonzero" fill-opacity="1" /><path clip-path="url(#clip680)" d="M886.743 1451.02 L905.1 1451.02 L905.1 1454.96 L891.026 1454.96 L891.026 1463.43 Q892.044 1463.08 893.063 1462.92 Q894.081 1462.73 895.1 1462.73 Q900.887 1462.73 904.267 1465.9 Q907.646 1469.08 907.646 1474.49 Q907.646 1480.07 904.174 1483.17 Q900.702 1486.25 894.382 1486.25 Q892.206 1486.25 889.938 1485.88 Q887.693 1485.51 885.285 1484.77 L885.285 1480.07 Q887.368 1481.2 889.591 1481.76 Q891.813 1482.32 894.29 1482.32 Q898.294 1482.32 900.632 1480.21 Q902.97 1478.1 902.97 1474.49 Q902.97 1470.88 900.632 1468.77 Q898.294 1466.67 894.29 1466.67 Q892.415 1466.67 890.54 1467.08 Q888.688 1467.5 886.743 1468.38 L886.743 1451.02 Z" fill="#000000" fill-rule="nonzero" fill-opacity="1" /><path clip-path="url(#clip680)" d="M916.859 1479.7 L921.743 1479.7 L921.743 1485.58 L916.859 1485.58 L916.859 1479.7 Z" fill="#000000" fill-rule="nonzero" fill-opacity="1" /><path clip-path="url(#clip680)" d="M941.928 1454.1 Q938.317 1454.1 936.489 1457.66 Q934.683 1461.2 934.683 1468.33 Q934.683 1475.44 936.489 1479.01 Q938.317 1482.55 941.928 1482.55 Q945.563 1482.55 947.368 1479.01 Q949.197 1475.44 949.197 1468.33 Q949.197 1461.2 947.368 1457.66 Q945.563 1454.1 941.928 1454.1 M941.928 1450.39 Q947.739 1450.39 950.794 1455 Q953.873 1459.58 953.873 1468.33 Q953.873 1477.06 950.794 1481.67 Q947.739 1486.25 941.928 1486.25 Q936.118 1486.25 933.04 1481.67 Q929.984 1477.06 929.984 1468.33 Q929.984 1459.58 933.04 1455 Q936.118 1450.39 941.928 1450.39 Z" fill="#000000" fill-rule="nonzero" fill-opacity="1" /><path clip-path="url(#clip680)" d="M1267.47 1451.02 L1289.69 1451.02 L1289.69 1453.01 L1277.14 1485.58 L1272.26 1485.58 L1284.07 1454.96 L1267.47 1454.96 L1267.47 1451.02 Z" fill="#000000" fill-rule="nonzero" fill-opacity="1" /><path clip-path="url(#clip680)" d="M1298.81 1479.7 L1303.7 1479.7 L1303.7 1485.58 L1298.81 1485.58 L1298.81 1479.7 Z" fill="#000000" fill-rule="nonzero" fill-opacity="1" /><path clip-path="url(#clip680)" d="M1313.93 1451.02 L1332.28 1451.02 L1332.28 1454.96 L1318.21 1454.96 L1318.21 1463.43 Q1319.23 1463.08 1320.25 1462.92 Q1321.26 1462.73 1322.28 1462.73 Q1328.07 1462.73 1331.45 1465.9 Q1334.83 1469.08 1334.83 1474.49 Q1334.83 1480.07 1331.36 1483.17 Q1327.88 1486.25 1321.57 1486.25 Q1319.39 1486.25 1317.12 1485.88 Q1314.88 1485.51 1312.47 1484.77 L1312.47 1480.07 Q1314.55 1481.2 1316.77 1481.76 Q1319 1482.32 1321.47 1482.32 Q1325.48 1482.32 1327.82 1480.21 Q1330.15 1478.1 1330.15 1474.49 Q1330.15 1470.88 1327.82 1468.77 Q1325.48 1466.67 1321.47 1466.67 Q1319.6 1466.67 1317.72 1467.08 Q1315.87 1467.5 1313.93 1468.38 L1313.93 1451.02 Z" fill="#000000" fill-rule="nonzero" fill-opacity="1" /><path clip-path="url(#clip680)" d="M1634.79 1481.64 L1642.43 1481.64 L1642.43 1455.28 L1634.12 1456.95 L1634.12 1452.69 L1642.38 1451.02 L1647.06 1451.02 L1647.06 1481.64 L1654.7 1481.64 L1654.7 1485.58 L1634.79 1485.58 L1634.79 1481.64 Z" fill="#000000" fill-rule="nonzero" fill-opacity="1" /><path clip-path="url(#clip680)" d="M1674.14 1454.1 Q1670.53 1454.1 1668.7 1457.66 Q1666.9 1461.2 1666.9 1468.33 Q1666.9 1475.44 1668.7 1479.01 Q1670.53 1482.55 1674.14 1482.55 Q1677.78 1482.55 1679.58 1479.01 Q1681.41 1475.44 1681.41 1468.33 Q1681.41 1461.2 1679.58 1457.66 Q1677.78 1454.1 1674.14 1454.1 M1674.14 1450.39 Q1679.95 1450.39 1683.01 1455 Q1686.09 1459.58 1686.09 1468.33 Q1686.09 1477.06 1683.01 1481.67 Q1679.95 1486.25 1674.14 1486.25 Q1668.33 1486.25 1665.25 1481.67 Q1662.2 1477.06 1662.2 1468.33 Q1662.2 1459.58 1665.25 1455 Q1668.33 1450.39 1674.14 1450.39 Z" fill="#000000" fill-rule="nonzero" fill-opacity="1" /><path clip-path="url(#clip680)" d="M1694.3 1479.7 L1699.19 1479.7 L1699.19 1485.58 L1694.3 1485.58 L1694.3 1479.7 Z" fill="#000000" fill-rule="nonzero" fill-opacity="1" /><path clip-path="url(#clip680)" d="M1719.37 1454.1 Q1715.76 1454.1 1713.93 1457.66 Q1712.13 1461.2 1712.13 1468.33 Q1712.13 1475.44 1713.93 1479.01 Q1715.76 1482.55 1719.37 1482.55 Q1723.01 1482.55 1724.81 1479.01 Q1726.64 1475.44 1726.64 1468.33 Q1726.64 1461.2 1724.81 1457.66 Q1723.01 1454.1 1719.37 1454.1 M1719.37 1450.39 Q1725.18 1450.39 1728.24 1455 Q1731.32 1459.58 1731.32 1468.33 Q1731.32 1477.06 1728.24 1481.67 Q1725.18 1486.25 1719.37 1486.25 Q1713.56 1486.25 1710.49 1481.67 Q1707.43 1477.06 1707.43 1468.33 Q1707.43 1459.58 1710.49 1455 Q1713.56 1450.39 1719.37 1450.39 Z" fill="#000000" fill-rule="nonzero" fill-opacity="1" /><path clip-path="url(#clip680)" d="M2016.86 1481.64 L2024.5 1481.64 L2024.5 1455.28 L2016.19 1456.95 L2016.19 1452.69 L2024.45 1451.02 L2029.13 1451.02 L2029.13 1481.64 L2036.77 1481.64 L2036.77 1485.58 L2016.86 1485.58 L2016.86 1481.64 Z" fill="#000000" fill-rule="nonzero" fill-opacity="1" /><path clip-path="url(#clip680)" d="M2050.24 1481.64 L2066.56 1481.64 L2066.56 1485.58 L2044.61 1485.58 L2044.61 1481.64 Q2047.28 1478.89 2051.86 1474.26 Q2056.46 1469.61 2057.65 1468.27 Q2059.89 1465.74 2060.77 1464.01 Q2061.67 1462.25 2061.67 1460.56 Q2061.67 1457.8 2059.73 1456.07 Q2057.81 1454.33 2054.71 1454.33 Q2052.51 1454.33 2050.05 1455.09 Q2047.62 1455.86 2044.84 1457.41 L2044.84 1452.69 Q2047.67 1451.55 2050.12 1450.97 Q2052.58 1450.39 2054.61 1450.39 Q2059.98 1450.39 2063.18 1453.08 Q2066.37 1455.77 2066.37 1460.26 Q2066.37 1462.39 2065.56 1464.31 Q2064.78 1466.2 2062.67 1468.8 Q2062.09 1469.47 2058.99 1472.69 Q2055.89 1475.88 2050.24 1481.64 Z" fill="#000000" fill-rule="nonzero" fill-opacity="1" /><path clip-path="url(#clip680)" d="M2076.37 1479.7 L2081.26 1479.7 L2081.26 1485.58 L2076.37 1485.58 L2076.37 1479.7 Z" fill="#000000" fill-rule="nonzero" fill-opacity="1" /><path clip-path="url(#clip680)" d="M2091.49 1451.02 L2109.84 1451.02 L2109.84 1454.96 L2095.77 1454.96 L2095.77 1463.43 Q2096.79 1463.08 2097.81 1462.92 Q2098.83 1462.73 2099.84 1462.73 Q2105.63 1462.73 2109.01 1465.9 Q2112.39 1469.08 2112.39 1474.49 Q2112.39 1480.07 2108.92 1483.17 Q2105.45 1486.25 2099.13 1486.25 Q2096.95 1486.25 2094.68 1485.88 Q2092.44 1485.51 2090.03 1484.77 L2090.03 1480.07 Q2092.11 1481.2 2094.34 1481.76 Q2096.56 1482.32 2099.03 1482.32 Q2103.04 1482.32 2105.38 1480.21 Q2107.71 1478.1 2107.71 1474.49 Q2107.71 1470.88 2105.38 1468.77 Q2103.04 1466.67 2099.03 1466.67 Q2097.16 1466.67 2095.28 1467.08 Q2093.43 1467.5 2091.49 1468.38 L2091.49 1451.02 Z" fill="#000000" fill-rule="nonzero" fill-opacity="1" /><path clip-path="url(#clip680)" d="M1127.14 1520.52 L1133.57 1520.52 L1133.57 1562.63 L1156.71 1562.63 L1156.71 1568.04 L1127.14 1568.04 L1127.14 1520.52 Z" fill="#000000" fill-rule="nonzero" fill-opacity="1" /><path clip-path="url(#clip680)" d="M1175.87 1536.5 Q1171.16 1536.5 1168.42 1540.19 Q1165.69 1543.85 1165.69 1550.25 Q1165.69 1556.65 1168.39 1560.34 Q1171.13 1564 1175.87 1564 Q1180.55 1564 1183.29 1560.31 Q1186.03 1556.62 1186.03 1550.25 Q1186.03 1543.92 1183.29 1540.23 Q1180.55 1536.5 1175.87 1536.5 M1175.87 1531.54 Q1183.51 1531.54 1187.87 1536.5 Q1192.23 1541.47 1192.23 1550.25 Q1192.23 1559 1187.87 1564 Q1183.51 1568.97 1175.87 1568.97 Q1168.2 1568.97 1163.84 1564 Q1159.51 1559 1159.51 1550.25 Q1159.51 1541.47 1163.84 1536.5 Q1168.2 1531.54 1175.87 1531.54 Z" fill="#000000" fill-rule="nonzero" fill-opacity="1" /><path clip-path="url(#clip680)" d="M1218.14 1550.12 Q1211.04 1550.12 1208.31 1551.75 Q1205.57 1553.37 1205.57 1557.29 Q1205.57 1560.4 1207.6 1562.25 Q1209.67 1564.07 1213.21 1564.07 Q1218.08 1564.07 1221 1560.63 Q1223.96 1557.16 1223.96 1551.43 L1223.96 1550.12 L1218.14 1550.12 M1229.82 1547.71 L1229.82 1568.04 L1223.96 1568.04 L1223.96 1562.63 Q1221.96 1565.88 1218.97 1567.44 Q1215.98 1568.97 1211.65 1568.97 Q1206.17 1568.97 1202.93 1565.91 Q1199.71 1562.82 1199.71 1557.67 Q1199.71 1551.65 1203.72 1548.6 Q1207.76 1545.54 1215.75 1545.54 L1223.96 1545.54 L1223.96 1544.97 Q1223.96 1540.93 1221.29 1538.73 Q1218.65 1536.5 1213.84 1536.5 Q1210.79 1536.5 1207.89 1537.23 Q1204.99 1537.97 1202.32 1539.43 L1202.32 1534.02 Q1205.54 1532.78 1208.56 1532.17 Q1211.58 1531.54 1214.45 1531.54 Q1222.18 1531.54 1226 1535.55 Q1229.82 1539.56 1229.82 1547.71 Z" fill="#000000" fill-rule="nonzero" fill-opacity="1" /><path clip-path="url(#clip680)" d="M1265.34 1537.81 L1265.34 1518.52 L1271.2 1518.52 L1271.2 1568.04 L1265.34 1568.04 L1265.34 1562.7 Q1263.5 1565.88 1260.66 1567.44 Q1257.86 1568.97 1253.92 1568.97 Q1247.45 1568.97 1243.38 1563.81 Q1239.34 1558.65 1239.34 1550.25 Q1239.34 1541.85 1243.38 1536.69 Q1247.45 1531.54 1253.92 1531.54 Q1257.86 1531.54 1260.66 1533.1 Q1263.5 1534.62 1265.34 1537.81 M1245.39 1550.25 Q1245.39 1556.71 1248.03 1560.4 Q1250.7 1564.07 1255.35 1564.07 Q1259.99 1564.07 1262.67 1560.4 Q1265.34 1556.71 1265.34 1550.25 Q1265.34 1543.79 1262.67 1540.13 Q1259.99 1536.44 1255.35 1536.44 Q1250.7 1536.44 1248.03 1540.13 Q1245.39 1543.79 1245.39 1550.25 Z" fill="#000000" fill-rule="nonzero" fill-opacity="1" /><path clip-path="url(#clip680)" d="M1304.24 1520.52 L1310.67 1520.52 L1310.67 1568.04 L1304.24 1568.04 L1304.24 1520.52 Z" fill="#000000" fill-rule="nonzero" fill-opacity="1" /><path clip-path="url(#clip680)" d="M1352.84 1546.53 L1352.84 1568.04 L1346.98 1568.04 L1346.98 1546.72 Q1346.98 1541.66 1345.01 1539.14 Q1343.04 1536.63 1339.09 1536.63 Q1334.35 1536.63 1331.61 1539.65 Q1328.87 1542.68 1328.87 1547.9 L1328.87 1568.04 L1322.98 1568.04 L1322.98 1532.4 L1328.87 1532.4 L1328.87 1537.93 Q1330.97 1534.72 1333.81 1533.13 Q1336.67 1531.54 1340.39 1531.54 Q1346.54 1531.54 1349.69 1535.36 Q1352.84 1539.14 1352.84 1546.53 Z" fill="#000000" fill-rule="nonzero" fill-opacity="1" /><path clip-path="url(#clip680)" d="M1387.98 1537.81 L1387.98 1518.52 L1393.83 1518.52 L1393.83 1568.04 L1387.98 1568.04 L1387.98 1562.7 Q1386.13 1565.88 1383.3 1567.44 Q1380.5 1568.97 1376.55 1568.97 Q1370.09 1568.97 1366.02 1563.81 Q1361.97 1558.65 1361.97 1550.25 Q1361.97 1541.85 1366.02 1536.69 Q1370.09 1531.54 1376.55 1531.54 Q1380.5 1531.54 1383.3 1533.1 Q1386.13 1534.62 1387.98 1537.81 M1368.02 1550.25 Q1368.02 1556.71 1370.66 1560.4 Q1373.34 1564.07 1377.98 1564.07 Q1382.63 1564.07 1385.3 1560.4 Q1387.98 1556.71 1387.98 1550.25 Q1387.98 1543.79 1385.3 1540.13 Q1382.63 1536.44 1377.98 1536.44 Q1373.34 1536.44 1370.66 1540.13 Q1368.02 1543.79 1368.02 1550.25 Z" fill="#000000" fill-rule="nonzero" fill-opacity="1" /><path clip-path="url(#clip680)" d="M1436.39 1548.76 L1436.39 1551.62 L1409.46 1551.62 Q1409.84 1557.67 1413.09 1560.85 Q1416.37 1564 1422.19 1564 Q1425.57 1564 1428.72 1563.17 Q1431.9 1562.35 1435.02 1560.69 L1435.02 1566.23 Q1431.87 1567.57 1428.56 1568.27 Q1425.25 1568.97 1421.84 1568.97 Q1413.31 1568.97 1408.32 1564 Q1403.35 1559.04 1403.35 1550.57 Q1403.35 1541.82 1408.06 1536.69 Q1412.8 1531.54 1420.82 1531.54 Q1428.02 1531.54 1432.19 1536.18 Q1436.39 1540.8 1436.39 1548.76 M1430.53 1547.04 Q1430.47 1542.23 1427.83 1539.37 Q1425.22 1536.5 1420.89 1536.5 Q1415.99 1536.5 1413.03 1539.27 Q1410.1 1542.04 1409.65 1547.07 L1430.53 1547.04 Z" fill="#000000" fill-rule="nonzero" fill-opacity="1" /><path clip-path="url(#clip680)" d="M1474.49 1532.4 L1461.6 1549.74 L1475.16 1568.04 L1468.25 1568.04 L1457.87 1554.04 L1447.5 1568.04 L1440.59 1568.04 L1454.44 1549.39 L1441.77 1532.4 L1448.67 1532.4 L1458.13 1545.1 L1467.58 1532.4 L1474.49 1532.4 Z" fill="#000000" fill-rule="nonzero" fill-opacity="1" /><polyline clip-path="url(#clip680)" style="stroke:#000000; stroke-linecap:round; stroke-linejoin:round; stroke-width:4; stroke-opacity:1; fill:none" points="249.542,1423.18 249.542,123.472 "/>
<polyline clip-path="url(#clip680)" style="stroke:#000000; stroke-linecap:round; stroke-linejoin:round; stroke-width:4; stroke-opacity:1; fill:none" points="249.542,1398.66 268.44,1398.66 "/>
<polyline clip-path="url(#clip680)" style="stroke:#000000; stroke-linecap:round; stroke-linejoin:round; stroke-width:4; stroke-opacity:1; fill:none" points="249.542,1092.12 268.44,1092.12 "/>
<polyline clip-path="url(#clip680)" style="stroke:#000000; stroke-linecap:round; stroke-linejoin:round; stroke-width:4; stroke-opacity:1; fill:none" points="249.542,785.587 268.44,785.587 "/>
<polyline clip-path="url(#clip680)" style="stroke:#000000; stroke-linecap:round; stroke-linejoin:round; stroke-width:4; stroke-opacity:1; fill:none" points="249.542,479.053 268.44,479.053 "/>
<polyline clip-path="url(#clip680)" style="stroke:#000000; stroke-linecap:round; stroke-linejoin:round; stroke-width:4; stroke-opacity:1; fill:none" points="249.542,172.518 268.44,172.518 "/>
<path clip-path="url(#clip680)" d="M126.205 1384.46 Q122.593 1384.46 120.765 1388.02 Q118.959 1391.56 118.959 1398.69 Q118.959 1405.8 120.765 1409.36 Q122.593 1412.9 126.205 1412.9 Q129.839 1412.9 131.644 1409.36 Q133.473 1405.8 133.473 1398.69 Q133.473 1391.56 131.644 1388.02 Q129.839 1384.46 126.205 1384.46 M126.205 1380.75 Q132.015 1380.75 135.07 1385.36 Q138.149 1389.94 138.149 1398.69 Q138.149 1407.42 135.07 1412.03 Q132.015 1416.61 126.205 1416.61 Q120.394 1416.61 117.316 1412.03 Q114.26 1407.42 114.26 1398.69 Q114.26 1389.94 117.316 1385.36 Q120.394 1380.75 126.205 1380.75 Z" fill="#000000" fill-rule="nonzero" fill-opacity="1" /><path clip-path="url(#clip680)" d="M146.366 1410.06 L151.251 1410.06 L151.251 1415.94 L146.366 1415.94 L146.366 1410.06 Z" fill="#000000" fill-rule="nonzero" fill-opacity="1" /><path clip-path="url(#clip680)" d="M171.436 1384.46 Q167.825 1384.46 165.996 1388.02 Q164.19 1391.56 164.19 1398.69 Q164.19 1405.8 165.996 1409.36 Q167.825 1412.9 171.436 1412.9 Q175.07 1412.9 176.876 1409.36 Q178.704 1405.8 178.704 1398.69 Q178.704 1391.56 176.876 1388.02 Q175.07 1384.46 171.436 1384.46 M171.436 1380.75 Q177.246 1380.75 180.301 1385.36 Q183.38 1389.94 183.38 1398.69 Q183.38 1407.42 180.301 1412.03 Q177.246 1416.61 171.436 1416.61 Q165.626 1416.61 162.547 1412.03 Q159.491 1407.42 159.491 1398.69 Q159.491 1389.94 162.547 1385.36 Q165.626 1380.75 171.436 1380.75 Z" fill="#000000" fill-rule="nonzero" fill-opacity="1" /><path clip-path="url(#clip680)" d="M201.598 1384.46 Q197.987 1384.46 196.158 1388.02 Q194.352 1391.56 194.352 1398.69 Q194.352 1405.8 196.158 1409.36 Q197.987 1412.9 201.598 1412.9 Q205.232 1412.9 207.037 1409.36 Q208.866 1405.8 208.866 1398.69 Q208.866 1391.56 207.037 1388.02 Q205.232 1384.46 201.598 1384.46 M201.598 1380.75 Q207.408 1380.75 210.463 1385.36 Q213.542 1389.94 213.542 1398.69 Q213.542 1407.42 210.463 1412.03 Q207.408 1416.61 201.598 1416.61 Q195.787 1416.61 192.709 1412.03 Q189.653 1407.42 189.653 1398.69 Q189.653 1389.94 192.709 1385.36 Q195.787 1380.75 201.598 1380.75 Z" fill="#000000" fill-rule="nonzero" fill-opacity="1" /><path clip-path="url(#clip680)" d="M127.2 1077.92 Q123.589 1077.92 121.76 1081.49 Q119.955 1085.03 119.955 1092.16 Q119.955 1099.26 121.76 1102.83 Q123.589 1106.37 127.2 1106.37 Q130.834 1106.37 132.64 1102.83 Q134.468 1099.26 134.468 1092.16 Q134.468 1085.03 132.64 1081.49 Q130.834 1077.92 127.2 1077.92 M127.2 1074.22 Q133.01 1074.22 136.066 1078.82 Q139.144 1083.41 139.144 1092.16 Q139.144 1100.88 136.066 1105.49 Q133.01 1110.07 127.2 1110.07 Q121.39 1110.07 118.311 1105.49 Q115.256 1100.88 115.256 1092.16 Q115.256 1083.41 118.311 1078.82 Q121.39 1074.22 127.2 1074.22 Z" fill="#000000" fill-rule="nonzero" fill-opacity="1" /><path clip-path="url(#clip680)" d="M147.362 1103.52 L152.246 1103.52 L152.246 1109.4 L147.362 1109.4 L147.362 1103.52 Z" fill="#000000" fill-rule="nonzero" fill-opacity="1" /><path clip-path="url(#clip680)" d="M166.459 1105.47 L182.778 1105.47 L182.778 1109.4 L160.834 1109.4 L160.834 1105.47 Q163.496 1102.71 168.079 1098.08 Q172.686 1093.43 173.866 1092.09 Q176.112 1089.56 176.991 1087.83 Q177.894 1086.07 177.894 1084.38 Q177.894 1081.62 175.95 1079.89 Q174.028 1078.15 170.927 1078.15 Q168.727 1078.15 166.274 1078.92 Q163.843 1079.68 161.065 1081.23 L161.065 1076.51 Q163.89 1075.37 166.343 1074.8 Q168.797 1074.22 170.834 1074.22 Q176.204 1074.22 179.399 1076.9 Q182.593 1079.59 182.593 1084.08 Q182.593 1086.21 181.783 1088.13 Q180.996 1090.03 178.889 1092.62 Q178.311 1093.29 175.209 1096.51 Q172.107 1099.7 166.459 1105.47 Z" fill="#000000" fill-rule="nonzero" fill-opacity="1" /><path clip-path="url(#clip680)" d="M192.639 1074.84 L210.996 1074.84 L210.996 1078.78 L196.922 1078.78 L196.922 1087.25 Q197.94 1086.9 198.959 1086.74 Q199.977 1086.56 200.996 1086.56 Q206.783 1086.56 210.162 1089.73 Q213.542 1092.9 213.542 1098.31 Q213.542 1103.89 210.07 1106.99 Q206.598 1110.07 200.278 1110.07 Q198.102 1110.07 195.834 1109.7 Q193.588 1109.33 191.181 1108.59 L191.181 1103.89 Q193.264 1105.03 195.487 1105.58 Q197.709 1106.14 200.186 1106.14 Q204.19 1106.14 206.528 1104.03 Q208.866 1101.93 208.866 1098.31 Q208.866 1094.7 206.528 1092.6 Q204.19 1090.49 200.186 1090.49 Q198.311 1090.49 196.436 1090.91 Q194.584 1091.32 192.639 1092.2 L192.639 1074.84 Z" fill="#000000" fill-rule="nonzero" fill-opacity="1" /><path clip-path="url(#clip680)" d="M126.205 771.386 Q122.593 771.386 120.765 774.951 Q118.959 778.492 118.959 785.622 Q118.959 792.729 120.765 796.293 Q122.593 799.835 126.205 799.835 Q129.839 799.835 131.644 796.293 Q133.473 792.729 133.473 785.622 Q133.473 778.492 131.644 774.951 Q129.839 771.386 126.205 771.386 M126.205 767.682 Q132.015 767.682 135.07 772.289 Q138.149 776.872 138.149 785.622 Q138.149 794.349 135.07 798.955 Q132.015 803.539 126.205 803.539 Q120.394 803.539 117.316 798.955 Q114.26 794.349 114.26 785.622 Q114.26 776.872 117.316 772.289 Q120.394 767.682 126.205 767.682 Z" fill="#000000" fill-rule="nonzero" fill-opacity="1" /><path clip-path="url(#clip680)" d="M146.366 796.988 L151.251 796.988 L151.251 802.867 L146.366 802.867 L146.366 796.988 Z" fill="#000000" fill-rule="nonzero" fill-opacity="1" /><path clip-path="url(#clip680)" d="M161.482 768.307 L179.839 768.307 L179.839 772.243 L165.765 772.243 L165.765 780.715 Q166.783 780.367 167.802 780.205 Q168.82 780.02 169.839 780.02 Q175.626 780.02 179.005 783.192 Q182.385 786.363 182.385 791.779 Q182.385 797.358 178.913 800.46 Q175.44 803.539 169.121 803.539 Q166.945 803.539 164.677 803.168 Q162.431 802.798 160.024 802.057 L160.024 797.358 Q162.107 798.492 164.329 799.048 Q166.552 799.603 169.028 799.603 Q173.033 799.603 175.371 797.497 Q177.709 795.391 177.709 791.779 Q177.709 788.168 175.371 786.062 Q173.033 783.955 169.028 783.955 Q167.153 783.955 165.278 784.372 Q163.427 784.789 161.482 785.668 L161.482 768.307 Z" fill="#000000" fill-rule="nonzero" fill-opacity="1" /><path clip-path="url(#clip680)" d="M201.598 771.386 Q197.987 771.386 196.158 774.951 Q194.352 778.492 194.352 785.622 Q194.352 792.729 196.158 796.293 Q197.987 799.835 201.598 799.835 Q205.232 799.835 207.037 796.293 Q208.866 792.729 208.866 785.622 Q208.866 778.492 207.037 774.951 Q205.232 771.386 201.598 771.386 M201.598 767.682 Q207.408 767.682 210.463 772.289 Q213.542 776.872 213.542 785.622 Q213.542 794.349 210.463 798.955 Q207.408 803.539 201.598 803.539 Q195.787 803.539 192.709 798.955 Q189.653 794.349 189.653 785.622 Q189.653 776.872 192.709 772.289 Q195.787 767.682 201.598 767.682 Z" fill="#000000" fill-rule="nonzero" fill-opacity="1" /><path clip-path="url(#clip680)" d="M127.2 464.851 Q123.589 464.851 121.76 468.416 Q119.955 471.958 119.955 479.087 Q119.955 486.194 121.76 489.758 Q123.589 493.3 127.2 493.3 Q130.834 493.3 132.64 489.758 Q134.468 486.194 134.468 479.087 Q134.468 471.958 132.64 468.416 Q130.834 464.851 127.2 464.851 M127.2 461.148 Q133.01 461.148 136.066 465.754 Q139.144 470.337 139.144 479.087 Q139.144 487.814 136.066 492.421 Q133.01 497.004 127.2 497.004 Q121.39 497.004 118.311 492.421 Q115.256 487.814 115.256 479.087 Q115.256 470.337 118.311 465.754 Q121.39 461.148 127.2 461.148 Z" fill="#000000" fill-rule="nonzero" fill-opacity="1" /><path clip-path="url(#clip680)" d="M147.362 490.453 L152.246 490.453 L152.246 496.333 L147.362 496.333 L147.362 490.453 Z" fill="#000000" fill-rule="nonzero" fill-opacity="1" /><path clip-path="url(#clip680)" d="M161.251 461.773 L183.473 461.773 L183.473 463.763 L170.927 496.333 L166.042 496.333 L177.848 465.708 L161.251 465.708 L161.251 461.773 Z" fill="#000000" fill-rule="nonzero" fill-opacity="1" /><path clip-path="url(#clip680)" d="M192.639 461.773 L210.996 461.773 L210.996 465.708 L196.922 465.708 L196.922 474.18 Q197.94 473.833 198.959 473.671 Q199.977 473.485 200.996 473.485 Q206.783 473.485 210.162 476.657 Q213.542 479.828 213.542 485.245 Q213.542 490.823 210.07 493.925 Q206.598 497.004 200.278 497.004 Q198.102 497.004 195.834 496.633 Q193.588 496.263 191.181 495.522 L191.181 490.823 Q193.264 491.958 195.487 492.513 Q197.709 493.069 200.186 493.069 Q204.19 493.069 206.528 490.962 Q208.866 488.856 208.866 485.245 Q208.866 481.634 206.528 479.527 Q204.19 477.421 200.186 477.421 Q198.311 477.421 196.436 477.837 Q194.584 478.254 192.639 479.134 L192.639 461.773 Z" fill="#000000" fill-rule="nonzero" fill-opacity="1" /><path clip-path="url(#clip680)" d="M117.015 185.863 L124.654 185.863 L124.654 159.497 L116.343 161.164 L116.343 156.904 L124.607 155.238 L129.283 155.238 L129.283 185.863 L136.922 185.863 L136.922 189.798 L117.015 189.798 L117.015 185.863 Z" fill="#000000" fill-rule="nonzero" fill-opacity="1" /><path clip-path="url(#clip680)" d="M146.366 183.918 L151.251 183.918 L151.251 189.798 L146.366 189.798 L146.366 183.918 Z" fill="#000000" fill-rule="nonzero" fill-opacity="1" /><path clip-path="url(#clip680)" d="M171.436 158.316 Q167.825 158.316 165.996 161.881 Q164.19 165.423 164.19 172.552 Q164.19 179.659 165.996 183.224 Q167.825 186.765 171.436 186.765 Q175.07 186.765 176.876 183.224 Q178.704 179.659 178.704 172.552 Q178.704 165.423 176.876 161.881 Q175.07 158.316 171.436 158.316 M171.436 154.613 Q177.246 154.613 180.301 159.219 Q183.38 163.802 183.38 172.552 Q183.38 181.279 180.301 185.886 Q177.246 190.469 171.436 190.469 Q165.626 190.469 162.547 185.886 Q159.491 181.279 159.491 172.552 Q159.491 163.802 162.547 159.219 Q165.626 154.613 171.436 154.613 Z" fill="#000000" fill-rule="nonzero" fill-opacity="1" /><path clip-path="url(#clip680)" d="M201.598 158.316 Q197.987 158.316 196.158 161.881 Q194.352 165.423 194.352 172.552 Q194.352 179.659 196.158 183.224 Q197.987 186.765 201.598 186.765 Q205.232 186.765 207.037 183.224 Q208.866 179.659 208.866 172.552 Q208.866 165.423 207.037 161.881 Q205.232 158.316 201.598 158.316 M201.598 154.613 Q207.408 154.613 210.463 159.219 Q213.542 163.802 213.542 172.552 Q213.542 181.279 210.463 185.886 Q207.408 190.469 201.598 190.469 Q195.787 190.469 192.709 185.886 Q189.653 181.279 189.653 172.552 Q189.653 163.802 192.709 159.219 Q195.787 154.613 201.598 154.613 Z" fill="#000000" fill-rule="nonzero" fill-opacity="1" /><path clip-path="url(#clip680)" d="M16.4842 1067.28 L16.4842 1039.97 L21.895 1039.97 L21.895 1060.85 L35.8996 1060.85 L35.8996 1042.01 L41.3104 1042.01 L41.3104 1060.85 L64.0042 1060.85 L64.0042 1067.28 L16.4842 1067.28 Z" fill="#000000" fill-rule="nonzero" fill-opacity="1" /><path clip-path="url(#clip680)" d="M28.3562 1034.78 L28.3562 1028.93 L64.0042 1028.93 L64.0042 1034.78 L28.3562 1034.78 M14.479 1034.78 L14.479 1028.93 L21.895 1028.93 L21.895 1034.78 L14.479 1034.78 Z" fill="#000000" fill-rule="nonzero" fill-opacity="1" /><path clip-path="url(#clip680)" d="M42.4881 987.039 L64.0042 987.039 L64.0042 992.895 L42.679 992.895 Q37.6183 992.895 35.1038 994.868 Q32.5894 996.842 32.5894 1000.79 Q32.5894 1005.53 35.6131 1008.27 Q38.6368 1011.01 43.8567 1011.01 L64.0042 1011.01 L64.0042 1016.89 L28.3562 1016.89 L28.3562 1011.01 L33.8944 1011.01 Q30.6797 1008.9 29.0883 1006.07 Q27.4968 1003.21 27.4968 999.484 Q27.4968 993.341 31.3163 990.19 Q35.1038 987.039 42.4881 987.039 Z" fill="#000000" fill-rule="nonzero" fill-opacity="1" /><path clip-path="url(#clip680)" d="M46.0847 959.157 Q46.0847 966.255 47.7079 968.992 Q49.3312 971.729 53.2461 971.729 Q56.3653 971.729 58.2114 969.692 Q60.0256 967.623 60.0256 964.09 Q60.0256 959.221 56.5881 956.292 Q53.1188 953.332 47.3897 953.332 L46.0847 953.332 L46.0847 959.157 M43.6657 947.476 L64.0042 947.476 L64.0042 953.332 L58.5933 953.332 Q61.8398 955.337 63.3994 958.329 Q64.9272 961.321 64.9272 965.65 Q64.9272 971.124 61.8716 974.371 Q58.7843 977.586 53.6281 977.586 Q47.6125 977.586 44.5569 973.575 Q41.5014 969.533 41.5014 961.544 L41.5014 953.332 L40.9285 953.332 Q36.8862 953.332 34.6901 956.006 Q32.4621 958.648 32.4621 963.454 Q32.4621 966.509 33.1941 969.406 Q33.9262 972.302 35.3903 974.976 L29.9795 974.976 Q28.7381 971.761 28.1334 968.737 Q27.4968 965.714 27.4968 962.849 Q27.4968 955.115 31.5072 951.295 Q35.5176 947.476 43.6657 947.476 Z" fill="#000000" fill-rule="nonzero" fill-opacity="1" /><path clip-path="url(#clip680)" d="M14.479 935.413 L14.479 929.556 L64.0042 929.556 L64.0042 935.413 L14.479 935.413 Z" fill="#000000" fill-rule="nonzero" fill-opacity="1" /><path clip-path="url(#clip680)" d="M16.4842 900.561 L16.4842 894.068 L56.6518 884.073 L16.4842 874.111 L16.4842 866.886 L56.6518 856.892 L16.4842 846.929 L16.4842 840.405 L64.0042 852.34 L64.0042 860.425 L22.7544 870.451 L64.0042 880.572 L64.0042 888.657 L16.4842 900.561 Z" fill="#000000" fill-rule="nonzero" fill-opacity="1" /><path clip-path="url(#clip680)" d="M44.7161 805.457 L47.5806 805.457 L47.5806 832.384 Q53.6281 832.002 56.8109 828.755 Q59.9619 825.477 59.9619 819.652 Q59.9619 816.279 59.1344 813.128 Q58.3069 809.945 56.6518 806.826 L62.1899 806.826 Q63.5267 809.977 64.227 813.287 Q64.9272 816.597 64.9272 820.003 Q64.9272 828.533 59.9619 833.53 Q54.9967 838.495 46.5303 838.495 Q37.7774 838.495 32.6531 833.784 Q27.4968 829.042 27.4968 821.021 Q27.4968 813.828 32.1438 809.658 Q36.7589 805.457 44.7161 805.457 M42.9973 811.313 Q38.1912 811.377 35.3266 814.019 Q32.4621 816.629 32.4621 820.957 Q32.4621 825.859 35.2312 828.819 Q38.0002 831.747 43.0292 832.193 L42.9973 811.313 Z" fill="#000000" fill-rule="nonzero" fill-opacity="1" /><path clip-path="url(#clip680)" d="M28.3562 795.845 L28.3562 789.988 L64.0042 789.988 L64.0042 795.845 L28.3562 795.845 M14.479 795.845 L14.479 789.988 L21.895 789.988 L21.895 795.845 L14.479 795.845 Z" fill="#000000" fill-rule="nonzero" fill-opacity="1" /><path clip-path="url(#clip680)" d="M45.7664 754.277 Q39.4007 754.277 35.8996 756.918 Q32.3984 759.528 32.3984 764.271 Q32.3984 768.981 35.8996 771.623 Q39.4007 774.233 45.7664 774.233 Q52.1003 774.233 55.6014 771.623 Q59.1026 768.981 59.1026 764.271 Q59.1026 759.528 55.6014 756.918 Q52.1003 754.277 45.7664 754.277 M59.58 748.42 Q68.683 748.42 73.1071 752.462 Q77.5631 756.505 77.5631 764.844 Q77.5631 767.931 77.0857 770.668 Q76.6401 773.406 75.6852 775.984 L69.9879 775.984 Q71.3884 773.406 72.0568 770.891 Q72.7252 768.377 72.7252 765.767 Q72.7252 760.006 69.7015 757.141 Q66.7096 754.277 60.6303 754.277 L57.7339 754.277 Q60.885 756.091 62.4446 758.924 Q64.0042 761.756 64.0042 765.703 Q64.0042 772.26 59.0071 776.27 Q54.01 780.281 45.7664 780.281 Q37.491 780.281 32.4939 776.27 Q27.4968 772.26 27.4968 765.703 Q27.4968 761.756 29.0564 758.924 Q30.616 756.091 33.7671 754.277 L28.3562 754.277 L28.3562 748.42 L59.58 748.42 Z" fill="#000000" fill-rule="nonzero" fill-opacity="1" /><path clip-path="url(#clip680)" d="M42.4881 706.725 L64.0042 706.725 L64.0042 712.581 L42.679 712.581 Q37.6183 712.581 35.1038 714.555 Q32.5894 716.528 32.5894 720.475 Q32.5894 725.217 35.6131 727.954 Q38.6368 730.692 43.8567 730.692 L64.0042 730.692 L64.0042 736.58 L14.479 736.58 L14.479 730.692 L33.8944 730.692 Q30.6797 728.591 29.0883 725.758 Q27.4968 722.894 27.4968 719.17 Q27.4968 713.027 31.3163 709.876 Q35.1038 706.725 42.4881 706.725 Z" fill="#000000" fill-rule="nonzero" fill-opacity="1" /><path clip-path="url(#clip680)" d="M18.2347 689.251 L28.3562 689.251 L28.3562 677.188 L32.9077 677.188 L32.9077 689.251 L52.2594 689.251 Q56.6199 689.251 57.8613 688.073 Q59.1026 686.864 59.1026 683.203 L59.1026 677.188 L64.0042 677.188 L64.0042 683.203 Q64.0042 689.983 61.4897 692.561 Q58.9434 695.139 52.2594 695.139 L32.9077 695.139 L32.9077 699.436 L28.3562 699.436 L28.3562 695.139 L18.2347 695.139 L18.2347 689.251 Z" fill="#000000" fill-rule="nonzero" fill-opacity="1" /><path clip-path="url(#clip680)" d="M64.0042 636.256 L16.4842 654.399 L16.4842 647.683 L56.4926 632.628 L16.4842 617.541 L16.4842 610.857 L64.0042 628.968 L64.0042 636.256 Z" fill="#000000" fill-rule="nonzero" fill-opacity="1" /><path clip-path="url(#clip680)" d="M46.0847 593.033 Q46.0847 600.131 47.7079 602.868 Q49.3312 605.606 53.2461 605.606 Q56.3653 605.606 58.2114 603.569 Q60.0256 601.5 60.0256 597.967 Q60.0256 593.097 56.5881 590.169 Q53.1188 587.209 47.3897 587.209 L46.0847 587.209 L46.0847 593.033 M43.6657 581.352 L64.0042 581.352 L64.0042 587.209 L58.5933 587.209 Q61.8398 589.214 63.3994 592.206 Q64.9272 595.198 64.9272 599.526 Q64.9272 605.001 61.8716 608.247 Q58.7843 611.462 53.6281 611.462 Q47.6125 611.462 44.5569 607.452 Q41.5014 603.409 41.5014 595.42 L41.5014 587.209 L40.9285 587.209 Q36.8862 587.209 34.6901 589.882 Q32.4621 592.524 32.4621 597.33 Q32.4621 600.386 33.1941 603.282 Q33.9262 606.178 35.3903 608.852 L29.9795 608.852 Q28.7381 605.637 28.1334 602.614 Q27.4968 599.59 27.4968 596.725 Q27.4968 588.991 31.5072 585.172 Q35.5176 581.352 43.6657 581.352 Z" fill="#000000" fill-rule="nonzero" fill-opacity="1" /><path clip-path="url(#clip680)" d="M14.479 569.289 L14.479 563.433 L64.0042 563.433 L64.0042 569.289 L14.479 569.289 Z" fill="#000000" fill-rule="nonzero" fill-opacity="1" /><path clip-path="url(#clip680)" d="M49.9359 551.783 L28.3562 551.783 L28.3562 545.927 L49.7131 545.927 Q54.7739 545.927 57.3202 543.954 Q59.8346 541.98 59.8346 538.034 Q59.8346 533.291 56.8109 530.554 Q53.7872 527.785 48.5673 527.785 L28.3562 527.785 L28.3562 521.928 L64.0042 521.928 L64.0042 527.785 L58.5296 527.785 Q61.7762 529.917 63.3676 532.75 Q64.9272 535.551 64.9272 539.275 Q64.9272 545.418 61.1078 548.601 Q57.2883 551.783 49.9359 551.783 M27.4968 537.047 L27.4968 537.047 Z" fill="#000000" fill-rule="nonzero" fill-opacity="1" /><path clip-path="url(#clip680)" d="M44.7161 479.374 L47.5806 479.374 L47.5806 506.301 Q53.6281 505.919 56.8109 502.672 Q59.9619 499.394 59.9619 493.569 Q59.9619 490.195 59.1344 487.044 Q58.3069 483.861 56.6518 480.742 L62.1899 480.742 Q63.5267 483.893 64.227 487.203 Q64.9272 490.514 64.9272 493.919 Q64.9272 502.449 59.9619 507.446 Q54.9967 512.412 46.5303 512.412 Q37.7774 512.412 32.6531 507.701 Q27.4968 502.959 27.4968 494.938 Q27.4968 487.744 32.1438 483.575 Q36.7589 479.374 44.7161 479.374 M42.9973 485.23 Q38.1912 485.294 35.3266 487.935 Q32.4621 490.545 32.4621 494.874 Q32.4621 499.776 35.2312 502.736 Q38.0002 505.664 43.0292 506.11 L42.9973 485.23 Z" fill="#000000" fill-rule="nonzero" fill-opacity="1" /><path clip-path="url(#clip680)" d="M502.351 44.2197 Q504.984 45.1109 507.455 48.0275 Q509.967 50.9442 512.478 56.0483 L520.783 72.576 L511.992 72.576 L504.255 57.061 Q501.257 50.9847 498.422 48.9997 Q495.627 47.0148 490.766 47.0148 L481.854 47.0148 L481.854 72.576 L473.671 72.576 L473.671 12.096 L492.143 12.096 Q502.513 12.096 507.617 16.4305 Q512.721 20.7649 512.721 29.5149 Q512.721 35.2267 510.048 38.994 Q507.415 42.7613 502.351 44.2197 M481.854 18.8205 L481.854 40.2903 L492.143 40.2903 Q498.057 40.2903 501.055 37.5762 Q504.093 34.8216 504.093 29.5149 Q504.093 24.2082 501.055 21.5346 Q498.057 18.8205 492.143 18.8205 L481.854 18.8205 Z" fill="#000000" fill-rule="nonzero" fill-opacity="1" /><path clip-path="url(#clip680)" d="M566.072 48.0275 L566.072 51.6733 L531.801 51.6733 Q532.287 59.3701 536.419 63.421 Q540.592 67.4314 548.005 67.4314 Q552.299 67.4314 556.309 66.3781 Q560.36 65.3249 564.33 63.2184 L564.33 70.267 Q560.32 71.9684 556.107 72.8596 Q551.894 73.7508 547.559 73.7508 Q536.703 73.7508 530.343 67.4314 Q524.024 61.1119 524.024 50.3365 Q524.024 39.1965 530.019 32.6746 Q536.055 26.1121 546.263 26.1121 Q555.418 26.1121 560.725 32.0264 Q566.072 37.9003 566.072 48.0275 M558.618 45.84 Q558.537 39.7232 555.175 36.0774 Q551.853 32.4315 546.344 32.4315 Q540.106 32.4315 536.338 35.9558 Q532.611 39.4801 532.044 45.8805 L558.618 45.84 Z" fill="#000000" fill-rule="nonzero" fill-opacity="1" /><path clip-path="url(#clip680)" d="M578.306 9.54393 L585.759 9.54393 L585.759 72.576 L578.306 72.576 L578.306 9.54393 Z" fill="#000000" fill-rule="nonzero" fill-opacity="1" /><path clip-path="url(#clip680)" d="M621.974 49.7694 Q612.941 49.7694 609.457 51.8354 Q605.973 53.9013 605.973 58.8839 Q605.973 62.8538 608.566 65.2034 Q611.199 67.5124 615.695 67.5124 Q621.893 67.5124 625.62 63.1374 Q629.388 58.7219 629.388 51.4303 L629.388 49.7694 L621.974 49.7694 M636.841 46.6907 L636.841 72.576 L629.388 72.576 L629.388 65.6895 Q626.835 69.8214 623.028 71.8063 Q619.22 73.7508 613.711 73.7508 Q606.743 73.7508 602.611 69.8619 Q598.52 65.9325 598.52 59.3701 Q598.52 51.7138 603.624 47.825 Q608.768 43.9361 618.936 43.9361 L629.388 43.9361 L629.388 43.2069 Q629.388 38.0623 625.985 35.2672 Q622.623 32.4315 616.506 32.4315 Q612.617 32.4315 608.93 33.3632 Q605.244 34.295 601.841 36.1584 L601.841 29.2718 Q605.933 27.692 609.781 26.9223 Q613.63 26.1121 617.275 26.1121 Q627.119 26.1121 631.98 31.2163 Q636.841 36.3204 636.841 46.6907 Z" fill="#000000" fill-rule="nonzero" fill-opacity="1" /><path clip-path="url(#clip680)" d="M689.908 27.2059 L673.502 49.2833 L690.759 72.576 L681.968 72.576 L668.762 54.752 L655.556 72.576 L646.766 72.576 L664.387 48.8377 L648.265 27.2059 L657.055 27.2059 L669.086 43.369 L681.118 27.2059 L689.908 27.2059 Z" fill="#000000" fill-rule="nonzero" fill-opacity="1" /><path clip-path="url(#clip680)" d="M737.547 48.0275 L737.547 51.6733 L703.276 51.6733 Q703.762 59.3701 707.894 63.421 Q712.066 67.4314 719.48 67.4314 Q723.774 67.4314 727.784 66.3781 Q731.835 65.3249 735.805 63.2184 L735.805 70.267 Q731.794 71.9684 727.581 72.8596 Q723.369 73.7508 719.034 73.7508 Q708.178 73.7508 701.818 67.4314 Q695.498 61.1119 695.498 50.3365 Q695.498 39.1965 701.494 32.6746 Q707.529 26.1121 717.738 26.1121 Q726.893 26.1121 732.199 32.0264 Q737.547 37.9003 737.547 48.0275 M730.093 45.84 Q730.012 39.7232 726.65 36.0774 Q723.328 32.4315 717.819 32.4315 Q711.58 32.4315 707.813 35.9558 Q704.086 39.4801 703.519 45.8805 L730.093 45.84 Z" fill="#000000" fill-rule="nonzero" fill-opacity="1" /><path clip-path="url(#clip680)" d="M779.636 34.0924 L779.636 9.54393 L787.089 9.54393 L787.089 72.576 L779.636 72.576 L779.636 65.7705 Q777.286 69.8214 773.681 71.8063 Q770.116 73.7508 765.093 73.7508 Q756.869 73.7508 751.684 67.1883 Q746.54 60.6258 746.54 49.9314 Q746.54 39.2371 751.684 32.6746 Q756.869 26.1121 765.093 26.1121 Q770.116 26.1121 773.681 28.0971 Q777.286 30.0415 779.636 34.0924 M754.236 49.9314 Q754.236 58.1548 757.599 62.8538 Q761.001 67.5124 766.916 67.5124 Q772.83 67.5124 776.233 62.8538 Q779.636 58.1548 779.636 49.9314 Q779.636 41.7081 776.233 37.0496 Q772.83 32.3505 766.916 32.3505 Q761.001 32.3505 757.599 37.0496 Q754.236 41.7081 754.236 49.9314 Z" fill="#000000" fill-rule="nonzero" fill-opacity="1" /><path clip-path="url(#clip680)" d="M837.32 18.8205 L837.32 41.5461 L847.61 41.5461 Q853.322 41.5461 856.441 38.5889 Q859.56 35.6318 859.56 30.163 Q859.56 24.7348 856.441 21.7777 Q853.322 18.8205 847.61 18.8205 L837.32 18.8205 M829.138 12.096 L847.61 12.096 Q857.778 12.096 862.963 16.714 Q868.188 21.2916 868.188 30.163 Q868.188 39.1155 862.963 43.6931 Q857.778 48.2706 847.61 48.2706 L837.32 48.2706 L837.32 72.576 L829.138 72.576 L829.138 12.096 Z" fill="#000000" fill-rule="nonzero" fill-opacity="1" /><path clip-path="url(#clip680)" d="M894.074 20.1573 L882.974 50.2555 L905.214 50.2555 L894.074 20.1573 M889.456 12.096 L898.732 12.096 L921.782 72.576 L913.275 72.576 L907.766 57.061 L880.503 57.061 L874.994 72.576 L866.365 72.576 L889.456 12.096 Z" fill="#000000" fill-rule="nonzero" fill-opacity="1" /><path clip-path="url(#clip680)" d="M938.796 18.8205 L938.796 65.8515 L948.68 65.8515 Q961.197 65.8515 966.99 60.1802 Q972.823 54.509 972.823 42.2752 Q972.823 30.1225 966.99 24.4918 Q961.197 18.8205 948.68 18.8205 L938.796 18.8205 M930.613 12.096 L947.424 12.096 Q965.005 12.096 973.228 19.4281 Q981.452 26.7198 981.452 42.2752 Q981.452 57.9117 973.188 65.2439 Q964.924 72.576 947.424 72.576 L930.613 72.576 L930.613 12.096 Z" fill="#000000" fill-rule="nonzero" fill-opacity="1" /><path clip-path="url(#clip680)" d="M1002.68 18.8205 L1002.68 41.5461 L1012.97 41.5461 Q1018.68 41.5461 1021.8 38.5889 Q1024.92 35.6318 1024.92 30.163 Q1024.92 24.7348 1021.8 21.7777 Q1018.68 18.8205 1012.97 18.8205 L1002.68 18.8205 M994.496 12.096 L1012.97 12.096 Q1023.14 12.096 1028.32 16.714 Q1033.55 21.2916 1033.55 30.163 Q1033.55 39.1155 1028.32 43.6931 Q1023.14 48.2706 1012.97 48.2706 L1002.68 48.2706 L1002.68 72.576 L994.496 72.576 L994.496 12.096 Z" fill="#000000" fill-rule="nonzero" fill-opacity="1" /><path clip-path="url(#clip680)" d="M1070.9 12.096 L1105.65 12.096 L1105.65 18.9825 L1079.08 18.9825 L1079.08 36.8065 L1103.06 36.8065 L1103.06 43.6931 L1079.08 43.6931 L1079.08 72.576 L1070.9 72.576 L1070.9 12.096 Z" fill="#000000" fill-rule="nonzero" fill-opacity="1" /><path clip-path="url(#clip680)" d="M1112.26 27.2059 L1119.71 27.2059 L1119.71 72.576 L1112.26 72.576 L1112.26 27.2059 M1112.26 9.54393 L1119.71 9.54393 L1119.71 18.9825 L1112.26 18.9825 L1112.26 9.54393 Z" fill="#000000" fill-rule="nonzero" fill-opacity="1" /><path clip-path="url(#clip680)" d="M1173.02 45.1919 L1173.02 72.576 L1165.57 72.576 L1165.57 45.4349 Q1165.57 38.994 1163.05 35.7938 Q1160.54 32.5936 1155.52 32.5936 Q1149.48 32.5936 1146 36.4419 Q1142.52 40.2903 1142.52 46.9338 L1142.52 72.576 L1135.02 72.576 L1135.02 27.2059 L1142.52 27.2059 L1142.52 34.2544 Q1145.19 30.163 1148.79 28.1376 Q1152.44 26.1121 1157.18 26.1121 Q1165 26.1121 1169.01 30.9732 Q1173.02 35.7938 1173.02 45.1919 Z" fill="#000000" fill-rule="nonzero" fill-opacity="1" /><path clip-path="url(#clip680)" d="M1208.5 49.7694 Q1199.47 49.7694 1195.99 51.8354 Q1192.5 53.9013 1192.5 58.8839 Q1192.5 62.8538 1195.1 65.2034 Q1197.73 67.5124 1202.23 67.5124 Q1208.42 67.5124 1212.15 63.1374 Q1215.92 58.7219 1215.92 51.4303 L1215.92 49.7694 L1208.5 49.7694 M1223.37 46.6907 L1223.37 72.576 L1215.92 72.576 L1215.92 65.6895 Q1213.37 69.8214 1209.56 71.8063 Q1205.75 73.7508 1200.24 73.7508 Q1193.27 73.7508 1189.14 69.8619 Q1185.05 65.9325 1185.05 59.3701 Q1185.05 51.7138 1190.15 47.825 Q1195.3 43.9361 1205.47 43.9361 L1215.92 43.9361 L1215.92 43.2069 Q1215.92 38.0623 1212.52 35.2672 Q1209.15 32.4315 1203.04 32.4315 Q1199.15 32.4315 1195.46 33.3632 Q1191.77 34.295 1188.37 36.1584 L1188.37 29.2718 Q1192.46 27.692 1196.31 26.9223 Q1200.16 26.1121 1203.81 26.1121 Q1213.65 26.1121 1218.51 31.2163 Q1223.37 36.3204 1223.37 46.6907 Z" fill="#000000" fill-rule="nonzero" fill-opacity="1" /><path clip-path="url(#clip680)" d="M1238.72 9.54393 L1246.18 9.54393 L1246.18 72.576 L1238.72 72.576 L1238.72 9.54393 Z" fill="#000000" fill-rule="nonzero" fill-opacity="1" /><path clip-path="url(#clip680)" d="M1283.08 12.096 L1291.35 12.096 L1304.07 63.2184 L1316.74 12.096 L1325.94 12.096 L1338.66 63.2184 L1351.34 12.096 L1359.64 12.096 L1344.45 72.576 L1334.16 72.576 L1321.4 20.0763 L1308.52 72.576 L1298.23 72.576 L1283.08 12.096 Z" fill="#000000" fill-rule="nonzero" fill-opacity="1" /><path clip-path="url(#clip680)" d="M1404.12 48.0275 L1404.12 51.6733 L1369.85 51.6733 Q1370.34 59.3701 1374.47 63.421 Q1378.64 67.4314 1386.06 67.4314 Q1390.35 67.4314 1394.36 66.3781 Q1398.41 65.3249 1402.38 63.2184 L1402.38 70.267 Q1398.37 71.9684 1394.16 72.8596 Q1389.94 73.7508 1385.61 73.7508 Q1374.75 73.7508 1368.39 67.4314 Q1362.07 61.1119 1362.07 50.3365 Q1362.07 39.1965 1368.07 32.6746 Q1374.11 26.1121 1384.31 26.1121 Q1393.47 26.1121 1398.78 32.0264 Q1404.12 37.9003 1404.12 48.0275 M1396.67 45.84 Q1396.59 39.7232 1393.23 36.0774 Q1389.9 32.4315 1384.4 32.4315 Q1378.16 32.4315 1374.39 35.9558 Q1370.66 39.4801 1370.1 45.8805 L1396.67 45.84 Z" fill="#000000" fill-rule="nonzero" fill-opacity="1" /><path clip-path="url(#clip680)" d="M1416.36 27.2059 L1423.81 27.2059 L1423.81 72.576 L1416.36 72.576 L1416.36 27.2059 M1416.36 9.54393 L1423.81 9.54393 L1423.81 18.9825 L1416.36 18.9825 L1416.36 9.54393 Z" fill="#000000" fill-rule="nonzero" fill-opacity="1" /><path clip-path="url(#clip680)" d="M1469.26 49.3643 Q1469.26 41.2625 1465.9 36.8065 Q1462.58 32.3505 1456.54 32.3505 Q1450.55 32.3505 1447.18 36.8065 Q1443.86 41.2625 1443.86 49.3643 Q1443.86 57.4256 1447.18 61.8816 Q1450.55 66.3376 1456.54 66.3376 Q1462.58 66.3376 1465.9 61.8816 Q1469.26 57.4256 1469.26 49.3643 M1476.72 66.9452 Q1476.72 78.5308 1471.57 84.1616 Q1466.43 89.8329 1455.81 89.8329 Q1451.88 89.8329 1448.4 89.2252 Q1444.92 88.6581 1441.63 87.4428 L1441.63 80.1917 Q1444.92 81.9741 1448.12 82.8248 Q1451.32 83.6755 1454.64 83.6755 Q1461.97 83.6755 1465.62 79.8271 Q1469.26 76.0193 1469.26 68.282 L1469.26 64.5957 Q1466.95 68.6061 1463.35 70.5911 Q1459.74 72.576 1454.72 72.576 Q1446.37 72.576 1441.27 66.2161 Q1436.17 59.8562 1436.17 49.3643 Q1436.17 38.832 1441.27 32.472 Q1446.37 26.1121 1454.72 26.1121 Q1459.74 26.1121 1463.35 28.0971 Q1466.95 30.082 1469.26 34.0924 L1469.26 27.2059 L1476.72 27.2059 L1476.72 66.9452 Z" fill="#000000" fill-rule="nonzero" fill-opacity="1" /><path clip-path="url(#clip680)" d="M1529.78 45.1919 L1529.78 72.576 L1522.33 72.576 L1522.33 45.4349 Q1522.33 38.994 1519.82 35.7938 Q1517.31 32.5936 1512.28 32.5936 Q1506.25 32.5936 1502.76 36.4419 Q1499.28 40.2903 1499.28 46.9338 L1499.28 72.576 L1491.78 72.576 L1491.78 9.54393 L1499.28 9.54393 L1499.28 34.2544 Q1501.95 30.163 1505.56 28.1376 Q1509.2 26.1121 1513.94 26.1121 Q1521.76 26.1121 1525.77 30.9732 Q1529.78 35.7938 1529.78 45.1919 Z" fill="#000000" fill-rule="nonzero" fill-opacity="1" /><path clip-path="url(#clip680)" d="M1552.02 14.324 L1552.02 27.2059 L1567.37 27.2059 L1567.37 32.9987 L1552.02 32.9987 L1552.02 57.6282 Q1552.02 63.1779 1553.52 64.7578 Q1555.06 66.3376 1559.72 66.3376 L1567.37 66.3376 L1567.37 72.576 L1559.72 72.576 Q1551.09 72.576 1547.81 69.3758 Q1544.53 66.1351 1544.53 57.6282 L1544.53 32.9987 L1539.06 32.9987 L1539.06 27.2059 L1544.53 27.2059 L1544.53 14.324 L1552.02 14.324 Z" fill="#000000" fill-rule="nonzero" fill-opacity="1" /><path clip-path="url(#clip680)" d="M1606.1 28.5427 L1606.1 35.5912 Q1602.94 33.9709 1599.54 33.1607 Q1596.14 32.3505 1592.49 32.3505 Q1586.94 32.3505 1584.15 34.0519 Q1581.39 35.7533 1581.39 39.156 Q1581.39 41.7486 1583.38 43.2475 Q1585.36 44.7058 1591.36 46.0426 L1593.91 46.6097 Q1601.85 48.3111 1605.17 51.4303 Q1608.53 54.509 1608.53 60.0587 Q1608.53 66.3781 1603.51 70.0644 Q1598.53 73.7508 1589.78 73.7508 Q1586.13 73.7508 1582.16 73.0216 Q1578.23 72.3329 1573.86 70.9151 L1573.86 63.2184 Q1577.99 65.3654 1582 66.4591 Q1586.01 67.5124 1589.94 67.5124 Q1595.2 67.5124 1598.04 65.73 Q1600.88 63.9071 1600.88 60.6258 Q1600.88 57.5877 1598.81 55.9673 Q1596.78 54.3469 1589.86 52.8481 L1587.26 52.2405 Q1580.34 50.7821 1577.26 47.7845 Q1574.18 44.7463 1574.18 39.4801 Q1574.18 33.0797 1578.72 29.5959 Q1583.25 26.1121 1591.6 26.1121 Q1595.73 26.1121 1599.38 26.7198 Q1603.02 27.3274 1606.1 28.5427 Z" fill="#000000" fill-rule="nonzero" fill-opacity="1" /><path clip-path="url(#clip680)" d="M1692.39 16.7545 L1692.39 25.383 Q1688.25 21.5346 1683.55 19.6307 Q1678.9 17.7268 1673.63 17.7268 Q1663.26 17.7268 1657.75 24.0867 Q1652.24 30.4061 1652.24 42.3968 Q1652.24 54.3469 1657.75 60.7069 Q1663.26 67.0263 1673.63 67.0263 Q1678.9 67.0263 1683.55 65.1223 Q1688.25 63.2184 1692.39 59.3701 L1692.39 67.9175 Q1688.09 70.8341 1683.27 72.2924 Q1678.49 73.7508 1673.14 73.7508 Q1659.41 73.7508 1651.51 65.3654 Q1643.61 56.9395 1643.61 42.3968 Q1643.61 27.8135 1651.51 19.4281 Q1659.41 11.0023 1673.14 11.0023 Q1678.57 11.0023 1683.35 12.4606 Q1688.17 13.8784 1692.39 16.7545 Z" fill="#000000" fill-rule="nonzero" fill-opacity="1" /><path clip-path="url(#clip680)" d="M1722.28 32.4315 Q1716.29 32.4315 1712.8 37.1306 Q1709.32 41.7891 1709.32 49.9314 Q1709.32 58.0738 1712.76 62.7728 Q1716.25 67.4314 1722.28 67.4314 Q1728.24 67.4314 1731.72 62.7323 Q1735.2 58.0333 1735.2 49.9314 Q1735.2 41.8701 1731.72 37.1711 Q1728.24 32.4315 1722.28 32.4315 M1722.28 26.1121 Q1732 26.1121 1737.55 32.4315 Q1743.1 38.7509 1743.1 49.9314 Q1743.1 61.0714 1737.55 67.4314 Q1732 73.7508 1722.28 73.7508 Q1712.52 73.7508 1706.97 67.4314 Q1701.46 61.0714 1701.46 49.9314 Q1701.46 38.7509 1706.97 32.4315 Q1712.52 26.1121 1722.28 26.1121 Z" fill="#000000" fill-rule="nonzero" fill-opacity="1" /><path clip-path="url(#clip680)" d="M1790.78 35.9153 Q1793.58 30.8922 1797.47 28.5022 Q1801.35 26.1121 1806.62 26.1121 Q1813.71 26.1121 1817.56 31.0947 Q1821.41 36.0368 1821.41 45.1919 L1821.41 72.576 L1813.91 72.576 L1813.91 45.4349 Q1813.91 38.913 1811.6 35.7533 Q1809.29 32.5936 1804.55 32.5936 Q1798.76 32.5936 1795.4 36.4419 Q1792.04 40.2903 1792.04 46.9338 L1792.04 72.576 L1784.54 72.576 L1784.54 45.4349 Q1784.54 38.8725 1782.23 35.7533 Q1779.93 32.5936 1775.1 32.5936 Q1769.39 32.5936 1766.03 36.4824 Q1762.67 40.3308 1762.67 46.9338 L1762.67 72.576 L1755.17 72.576 L1755.17 27.2059 L1762.67 27.2059 L1762.67 34.2544 Q1765.22 30.082 1768.79 28.0971 Q1772.35 26.1121 1777.25 26.1121 Q1782.19 26.1121 1785.64 28.6237 Q1789.12 31.1352 1790.78 35.9153 Z" fill="#000000" fill-rule="nonzero" fill-opacity="1" /><path clip-path="url(#clip680)" d="M1843.48 65.7705 L1843.48 89.8329 L1835.99 89.8329 L1835.99 27.2059 L1843.48 27.2059 L1843.48 34.0924 Q1845.83 30.0415 1849.4 28.0971 Q1853 26.1121 1857.99 26.1121 Q1866.25 26.1121 1871.39 32.6746 Q1876.58 39.2371 1876.58 49.9314 Q1876.58 60.6258 1871.39 67.1883 Q1866.25 73.7508 1857.99 73.7508 Q1853 73.7508 1849.4 71.8063 Q1845.83 69.8214 1843.48 65.7705 M1868.84 49.9314 Q1868.84 41.7081 1865.44 37.0496 Q1862.08 32.3505 1856.16 32.3505 Q1850.25 32.3505 1846.85 37.0496 Q1843.48 41.7081 1843.48 49.9314 Q1843.48 58.1548 1846.85 62.8538 Q1850.25 67.5124 1856.16 67.5124 Q1862.08 67.5124 1865.44 62.8538 Q1868.84 58.1548 1868.84 49.9314 Z" fill="#000000" fill-rule="nonzero" fill-opacity="1" /><path clip-path="url(#clip680)" d="M1909.55 49.7694 Q1900.52 49.7694 1897.04 51.8354 Q1893.55 53.9013 1893.55 58.8839 Q1893.55 62.8538 1896.15 65.2034 Q1898.78 67.5124 1903.28 67.5124 Q1909.47 67.5124 1913.2 63.1374 Q1916.97 58.7219 1916.97 51.4303 L1916.97 49.7694 L1909.55 49.7694 M1924.42 46.6907 L1924.42 72.576 L1916.97 72.576 L1916.97 65.6895 Q1914.42 69.8214 1910.61 71.8063 Q1906.8 73.7508 1901.29 73.7508 Q1894.32 73.7508 1890.19 69.8619 Q1886.1 65.9325 1886.1 59.3701 Q1886.1 51.7138 1891.2 47.825 Q1896.35 43.9361 1906.52 43.9361 L1916.97 43.9361 L1916.97 43.2069 Q1916.97 38.0623 1913.56 35.2672 Q1910.2 32.4315 1904.09 32.4315 Q1900.2 32.4315 1896.51 33.3632 Q1892.82 34.295 1889.42 36.1584 L1889.42 29.2718 Q1893.51 27.692 1897.36 26.9223 Q1901.21 26.1121 1904.86 26.1121 Q1914.7 26.1121 1919.56 31.2163 Q1924.42 36.3204 1924.42 46.6907 Z" fill="#000000" fill-rule="nonzero" fill-opacity="1" /><path clip-path="url(#clip680)" d="M1966.06 34.1734 Q1964.81 33.4443 1963.31 33.1202 Q1961.85 32.7556 1960.07 32.7556 Q1953.75 32.7556 1950.35 36.8875 Q1946.98 40.9789 1946.98 48.6757 L1946.98 72.576 L1939.49 72.576 L1939.49 27.2059 L1946.98 27.2059 L1946.98 34.2544 Q1949.33 30.1225 1953.1 28.1376 Q1956.87 26.1121 1962.26 26.1121 Q1963.03 26.1121 1963.96 26.2337 Q1964.89 26.3147 1966.02 26.5172 L1966.06 34.1734 Z" fill="#000000" fill-rule="nonzero" fill-opacity="1" /><path clip-path="url(#clip680)" d="M1973.88 27.2059 L1981.34 27.2059 L1981.34 72.576 L1973.88 72.576 L1973.88 27.2059 M1973.88 9.54393 L1981.34 9.54393 L1981.34 18.9825 L1973.88 18.9825 L1973.88 9.54393 Z" fill="#000000" fill-rule="nonzero" fill-opacity="1" /><path clip-path="url(#clip680)" d="M2025.86 28.5427 L2025.86 35.5912 Q2022.7 33.9709 2019.29 33.1607 Q2015.89 32.3505 2012.24 32.3505 Q2006.69 32.3505 2003.9 34.0519 Q2001.15 35.7533 2001.15 39.156 Q2001.15 41.7486 2003.13 43.2475 Q2005.12 44.7058 2011.11 46.0426 L2013.66 46.6097 Q2021.6 48.3111 2024.92 51.4303 Q2028.29 54.509 2028.29 60.0587 Q2028.29 66.3781 2023.26 70.0644 Q2018.28 73.7508 2009.53 73.7508 Q2005.88 73.7508 2001.91 73.0216 Q1997.99 72.3329 1993.61 70.9151 L1993.61 63.2184 Q1997.74 65.3654 2001.75 66.4591 Q2005.76 67.5124 2009.69 67.5124 Q2014.96 67.5124 2017.79 65.73 Q2020.63 63.9071 2020.63 60.6258 Q2020.63 57.5877 2018.56 55.9673 Q2016.54 54.3469 2009.61 52.8481 L2007.02 52.2405 Q2000.09 50.7821 1997.01 47.7845 Q1993.93 44.7463 1993.93 39.4801 Q1993.93 33.0797 1998.47 29.5959 Q2003.01 26.1121 2011.35 26.1121 Q2015.49 26.1121 2019.13 26.7198 Q2022.78 27.3274 2025.86 28.5427 Z" fill="#000000" fill-rule="nonzero" fill-opacity="1" /><path clip-path="url(#clip680)" d="M2057.74 32.4315 Q2051.74 32.4315 2048.26 37.1306 Q2044.77 41.7891 2044.77 49.9314 Q2044.77 58.0738 2048.22 62.7728 Q2051.7 67.4314 2057.74 67.4314 Q2063.69 67.4314 2067.17 62.7323 Q2070.66 58.0333 2070.66 49.9314 Q2070.66 41.8701 2067.17 37.1711 Q2063.69 32.4315 2057.74 32.4315 M2057.74 26.1121 Q2067.46 26.1121 2073.01 32.4315 Q2078.56 38.7509 2078.56 49.9314 Q2078.56 61.0714 2073.01 67.4314 Q2067.46 73.7508 2057.74 73.7508 Q2047.97 73.7508 2042.42 67.4314 Q2036.91 61.0714 2036.91 49.9314 Q2036.91 38.7509 2042.42 32.4315 Q2047.97 26.1121 2057.74 26.1121 Z" fill="#000000" fill-rule="nonzero" fill-opacity="1" /><path clip-path="url(#clip680)" d="M2128.63 45.1919 L2128.63 72.576 L2121.17 72.576 L2121.17 45.4349 Q2121.17 38.994 2118.66 35.7938 Q2116.15 32.5936 2111.13 32.5936 Q2105.09 32.5936 2101.61 36.4419 Q2098.12 40.2903 2098.12 46.9338 L2098.12 72.576 L2090.63 72.576 L2090.63 27.2059 L2098.12 27.2059 L2098.12 34.2544 Q2100.8 30.163 2104.4 28.1376 Q2108.05 26.1121 2112.79 26.1121 Q2120.61 26.1121 2124.62 30.9732 Q2128.63 35.7938 2128.63 45.1919 Z" fill="#000000" fill-rule="nonzero" fill-opacity="1" /><polyline clip-path="url(#clip682)" style="stroke:#009af9; stroke-linecap:round; stroke-linejoin:round; stroke-width:4; stroke-opacity:1; fill:none" points="309.067,1386.4 461.695,1386.4 614.323,1386.4 766.951,1386.4 919.579,1386.4 1072.21,1386.4 1224.83,1386.4 1377.46,1386.4 1530.09,1386.4 1682.72,1386.4 1835.35,1386.4 1987.97,1386.4 2140.6,1386.4 2293.23,1386.4 "/>
<path clip-path="url(#clip680)" d="M1791.91 270.476 L2282.65 270.476 L2282.65 166.796 L1791.91 166.796  Z" fill="#ffffff" fill-rule="evenodd" fill-opacity="1"/>
<polyline clip-path="url(#clip680)" style="stroke:#000000; stroke-linecap:round; stroke-linejoin:round; stroke-width:4; stroke-opacity:1; fill:none" points="1791.91,270.476 2282.65,270.476 2282.65,166.796 1791.91,166.796 1791.91,270.476 "/>
<polyline clip-path="url(#clip680)" style="stroke:#009af9; stroke-linecap:round; stroke-linejoin:round; stroke-width:4; stroke-opacity:1; fill:none" points="1815.28,218.636 1955.5,218.636 "/>
<path clip-path="url(#clip680)" d="M1983.15 232.027 L1983.15 245.777 L1978.86 245.777 L1978.86 209.99 L1983.15 209.99 L1983.15 213.925 Q1984.49 211.61 1986.53 210.499 Q1988.59 209.365 1991.43 209.365 Q1996.16 209.365 1999.1 213.115 Q2002.06 216.865 2002.06 222.976 Q2002.06 229.087 1999.1 232.837 Q1996.16 236.587 1991.43 236.587 Q1988.59 236.587 1986.53 235.476 Q1984.49 234.342 1983.15 232.027 M1997.64 222.976 Q1997.64 218.277 1995.69 215.615 Q1993.77 212.93 1990.39 212.93 Q1987.01 212.93 1985.07 215.615 Q1983.15 218.277 1983.15 222.976 Q1983.15 227.675 1985.07 230.36 Q1987.01 233.022 1990.39 233.022 Q1993.77 233.022 1995.69 230.36 Q1997.64 227.675 1997.64 222.976 Z" fill="#000000" fill-rule="nonzero" fill-opacity="1" /><path clip-path="url(#clip680)" d="M2024.14 213.971 Q2023.42 213.555 2022.57 213.37 Q2021.73 213.161 2020.72 213.161 Q2017.11 213.161 2015.16 215.522 Q2013.24 217.86 2013.24 222.258 L2013.24 235.916 L2008.96 235.916 L2008.96 209.99 L2013.24 209.99 L2013.24 214.018 Q2014.58 211.657 2016.73 210.522 Q2018.89 209.365 2021.97 209.365 Q2022.41 209.365 2022.94 209.434 Q2023.47 209.481 2024.12 209.596 L2024.14 213.971 Z" fill="#000000" fill-rule="nonzero" fill-opacity="1" /><path clip-path="url(#clip680)" d="M2037.61 212.976 Q2034.19 212.976 2032.2 215.661 Q2030.21 218.323 2030.21 222.976 Q2030.21 227.629 2032.17 230.314 Q2034.17 232.976 2037.61 232.976 Q2041.02 232.976 2043.01 230.291 Q2045 227.606 2045 222.976 Q2045 218.37 2043.01 215.684 Q2041.02 212.976 2037.61 212.976 M2037.61 209.365 Q2043.17 209.365 2046.34 212.976 Q2049.51 216.587 2049.51 222.976 Q2049.51 229.342 2046.34 232.976 Q2043.17 236.587 2037.61 236.587 Q2032.04 236.587 2028.86 232.976 Q2025.72 229.342 2025.72 222.976 Q2025.72 216.587 2028.86 212.976 Q2032.04 209.365 2037.61 209.365 Z" fill="#000000" fill-rule="nonzero" fill-opacity="1" /><path clip-path="url(#clip680)" d="M2060.69 232.027 L2060.69 245.777 L2056.41 245.777 L2056.41 209.99 L2060.69 209.99 L2060.69 213.925 Q2062.04 211.61 2064.07 210.499 Q2066.13 209.365 2068.98 209.365 Q2073.7 209.365 2076.64 213.115 Q2079.6 216.865 2079.6 222.976 Q2079.6 229.087 2076.64 232.837 Q2073.7 236.587 2068.98 236.587 Q2066.13 236.587 2064.07 235.476 Q2062.04 234.342 2060.69 232.027 M2075.18 222.976 Q2075.18 218.277 2073.24 215.615 Q2071.32 212.93 2067.94 212.93 Q2064.56 212.93 2062.61 215.615 Q2060.69 218.277 2060.69 222.976 Q2060.69 227.675 2062.61 230.36 Q2064.56 233.022 2067.94 233.022 Q2071.32 233.022 2073.24 230.36 Q2075.18 227.675 2075.18 222.976 Z" fill="#000000" fill-rule="nonzero" fill-opacity="1" /><path clip-path="url(#clip680)" d="M2096.71 212.976 Q2093.29 212.976 2091.29 215.661 Q2089.3 218.323 2089.3 222.976 Q2089.3 227.629 2091.27 230.314 Q2093.26 232.976 2096.71 232.976 Q2100.11 232.976 2102.1 230.291 Q2104.1 227.606 2104.1 222.976 Q2104.1 218.37 2102.1 215.684 Q2100.11 212.976 2096.71 212.976 M2096.71 209.365 Q2102.27 209.365 2105.44 212.976 Q2108.61 216.587 2108.61 222.976 Q2108.61 229.342 2105.44 232.976 Q2102.27 236.587 2096.71 236.587 Q2091.13 236.587 2087.96 232.976 Q2084.81 229.342 2084.81 222.976 Q2084.81 216.587 2087.96 212.976 Q2091.13 209.365 2096.71 209.365 Z" fill="#000000" fill-rule="nonzero" fill-opacity="1" /><path clip-path="url(#clip680)" d="M2130.69 213.971 Q2129.97 213.555 2129.12 213.37 Q2128.29 213.161 2127.27 213.161 Q2123.66 213.161 2121.71 215.522 Q2119.79 217.86 2119.79 222.258 L2119.79 235.916 L2115.51 235.916 L2115.51 209.99 L2119.79 209.99 L2119.79 214.018 Q2121.13 211.657 2123.29 210.522 Q2125.44 209.365 2128.52 209.365 Q2128.96 209.365 2129.49 209.434 Q2130.02 209.481 2130.67 209.596 L2130.69 213.971 Z" fill="#000000" fill-rule="nonzero" fill-opacity="1" /><path clip-path="url(#clip680)" d="M2139.37 202.629 L2139.37 209.99 L2148.15 209.99 L2148.15 213.3 L2139.37 213.3 L2139.37 227.374 Q2139.37 230.545 2140.23 231.448 Q2141.11 232.351 2143.77 232.351 L2148.15 232.351 L2148.15 235.916 L2143.77 235.916 Q2138.84 235.916 2136.97 234.087 Q2135.09 232.235 2135.09 227.374 L2135.09 213.3 L2131.97 213.3 L2131.97 209.99 L2135.09 209.99 L2135.09 202.629 L2139.37 202.629 Z" fill="#000000" fill-rule="nonzero" fill-opacity="1" /><path clip-path="url(#clip680)" d="M2153.75 209.99 L2158.01 209.99 L2158.01 235.916 L2153.75 235.916 L2153.75 209.99 M2153.75 199.897 L2158.01 199.897 L2158.01 205.291 L2153.75 205.291 L2153.75 199.897 Z" fill="#000000" fill-rule="nonzero" fill-opacity="1" /><path clip-path="url(#clip680)" d="M2176.97 212.976 Q2173.54 212.976 2171.55 215.661 Q2169.56 218.323 2169.56 222.976 Q2169.56 227.629 2171.53 230.314 Q2173.52 232.976 2176.97 232.976 Q2180.37 232.976 2182.36 230.291 Q2184.35 227.606 2184.35 222.976 Q2184.35 218.37 2182.36 215.684 Q2180.37 212.976 2176.97 212.976 M2176.97 209.365 Q2182.52 209.365 2185.69 212.976 Q2188.86 216.587 2188.86 222.976 Q2188.86 229.342 2185.69 232.976 Q2182.52 236.587 2176.97 236.587 Q2171.39 236.587 2168.22 232.976 Q2165.07 229.342 2165.07 222.976 Q2165.07 216.587 2168.22 212.976 Q2171.39 209.365 2176.97 209.365 Z" fill="#000000" fill-rule="nonzero" fill-opacity="1" /><path clip-path="url(#clip680)" d="M2217.47 220.268 L2217.47 235.916 L2213.22 235.916 L2213.22 220.407 Q2213.22 216.726 2211.78 214.897 Q2210.34 213.069 2207.47 213.069 Q2204.03 213.069 2202.03 215.268 Q2200.04 217.467 2200.04 221.263 L2200.04 235.916 L2195.76 235.916 L2195.76 209.99 L2200.04 209.99 L2200.04 214.018 Q2201.57 211.68 2203.63 210.522 Q2205.72 209.365 2208.42 209.365 Q2212.89 209.365 2215.18 212.143 Q2217.47 214.897 2217.47 220.268 Z" fill="#000000" fill-rule="nonzero" fill-opacity="1" /><path clip-path="url(#clip680)" d="M2237.75 222.883 Q2232.59 222.883 2230.6 224.064 Q2228.61 225.244 2228.61 228.092 Q2228.61 230.36 2230.09 231.703 Q2231.59 233.022 2234.16 233.022 Q2237.71 233.022 2239.84 230.522 Q2241.99 227.999 2241.99 223.832 L2241.99 222.883 L2237.75 222.883 M2246.25 221.124 L2246.25 235.916 L2241.99 235.916 L2241.99 231.981 Q2240.53 234.342 2238.35 235.476 Q2236.18 236.587 2233.03 236.587 Q2229.05 236.587 2226.69 234.365 Q2224.35 232.119 2224.35 228.369 Q2224.35 223.994 2227.27 221.772 Q2230.21 219.55 2236.02 219.55 L2241.99 219.55 L2241.99 219.133 Q2241.99 216.194 2240.04 214.596 Q2238.12 212.976 2234.63 212.976 Q2232.4 212.976 2230.3 213.508 Q2228.19 214.041 2226.25 215.106 L2226.25 211.17 Q2228.59 210.268 2230.78 209.828 Q2232.98 209.365 2235.07 209.365 Q2240.69 209.365 2243.47 212.282 Q2246.25 215.198 2246.25 221.124 Z" fill="#000000" fill-rule="nonzero" fill-opacity="1" /><path clip-path="url(#clip680)" d="M2255.02 199.897 L2259.28 199.897 L2259.28 235.916 L2255.02 235.916 L2255.02 199.897 Z" fill="#000000" fill-rule="nonzero" fill-opacity="1" /></svg>
