<?xml version="1.0" encoding="utf-8"?>
<svg xmlns="http://www.w3.org/2000/svg" xmlns:xlink="http://www.w3.org/1999/xlink" width="600" height="400" viewBox="0 0 2400 1600">
<defs>
  <clipPath id="clip190">
    <rect x="0" y="0" width="2400" height="1600"/>
  </clipPath>
</defs>
<path clip-path="url(#clip190)" d="M0 1600 L2400 1600 L2400 0 L0 0  Z" fill="#ffffff" fill-rule="evenodd" fill-opacity="1"/>
<defs>
  <clipPath id="clip191">
    <rect x="480" y="0" width="1681" height="1600"/>
  </clipPath>
</defs>
<path clip-path="url(#clip190)" d="M264.287 1423.18 L2352.76 1423.18 L2352.76 123.472 L264.287 123.472  Z" fill="#ffffff" fill-rule="evenodd" fill-opacity="1"/>
<defs>
  <clipPath id="clip192">
    <rect x="264" y="123" width="2089" height="1301"/>
  </clipPath>
</defs>
<polyline clip-path="url(#clip192)" style="stroke:#000000; stroke-linecap:round; stroke-linejoin:round; stroke-width:2; stroke-opacity:0.1; fill:none" points="593.626,1423.18 593.626,123.472 "/>
<polyline clip-path="url(#clip192)" style="stroke:#000000; stroke-linecap:round; stroke-linejoin:round; stroke-width:2; stroke-opacity:0.1; fill:none" points="951.074,1423.18 951.074,123.472 "/>
<polyline clip-path="url(#clip192)" style="stroke:#000000; stroke-linecap:round; stroke-linejoin:round; stroke-width:2; stroke-opacity:0.1; fill:none" points="1308.52,1423.18 1308.52,123.472 "/>
<polyline clip-path="url(#clip192)" style="stroke:#000000; stroke-linecap:round; stroke-linejoin:round; stroke-width:2; stroke-opacity:0.1; fill:none" points="1665.97,1423.18 1665.97,123.472 "/>
<polyline clip-path="url(#clip192)" style="stroke:#000000; stroke-linecap:round; stroke-linejoin:round; stroke-width:2; stroke-opacity:0.1; fill:none" points="2023.42,1423.18 2023.42,123.472 "/>
<polyline clip-path="url(#clip192)" style="stroke:#000000; stroke-linecap:round; stroke-linejoin:round; stroke-width:2; stroke-opacity:0.1; fill:none" points="264.287,1423.18 2352.76,1423.18 "/>
<polyline clip-path="url(#clip192)" style="stroke:#000000; stroke-linecap:round; stroke-linejoin:round; stroke-width:2; stroke-opacity:0.1; fill:none" points="264.287,1048.19 2352.76,1048.19 "/>
<polyline clip-path="url(#clip192)" style="stroke:#000000; stroke-linecap:round; stroke-linejoin:round; stroke-width:2; stroke-opacity:0.1; fill:none" points="264.287,673.204 2352.76,673.204 "/>
<polyline clip-path="url(#clip192)" style="stroke:#000000; stroke-linecap:round; stroke-linejoin:round; stroke-width:2; stroke-opacity:0.1; fill:none" points="264.287,298.216 2352.76,298.216 "/>
<polyline clip-path="url(#clip190)" style="stroke:#000000; stroke-linecap:round; stroke-linejoin:round; stroke-width:4; stroke-opacity:1; fill:none" points="264.287,1423.18 2352.76,1423.18 "/>
<polyline clip-path="url(#clip190)" style="stroke:#000000; stroke-linecap:round; stroke-linejoin:round; stroke-width:4; stroke-opacity:1; fill:none" points="593.626,1423.18 593.626,1404.28 "/>
<polyline clip-path="url(#clip190)" style="stroke:#000000; stroke-linecap:round; stroke-linejoin:round; stroke-width:4; stroke-opacity:1; fill:none" points="951.074,1423.18 951.074,1404.28 "/>
<polyline clip-path="url(#clip190)" style="stroke:#000000; stroke-linecap:round; stroke-linejoin:round; stroke-width:4; stroke-opacity:1; fill:none" points="1308.52,1423.18 1308.52,1404.28 "/>
<polyline clip-path="url(#clip190)" style="stroke:#000000; stroke-linecap:round; stroke-linejoin:round; stroke-width:4; stroke-opacity:1; fill:none" points="1665.97,1423.18 1665.97,1404.28 "/>
<polyline clip-path="url(#clip190)" style="stroke:#000000; stroke-linecap:round; stroke-linejoin:round; stroke-width:4; stroke-opacity:1; fill:none" points="2023.42,1423.18 2023.42,1404.28 "/>
<path clip-path="url(#clip190)" d="M560.779 1481.64 L568.417 1481.64 L568.417 1455.28 L560.107 1456.95 L560.107 1452.69 L568.371 1451.02 L573.047 1451.02 L573.047 1481.64 L580.686 1481.64 L580.686 1485.58 L560.779 1485.58 L560.779 1481.64 Z" fill="#000000" fill-rule="nonzero" fill-opacity="1" /><path clip-path="url(#clip190)" d="M590.13 1479.7 L595.014 1479.7 L595.014 1485.58 L590.13 1485.58 L590.13 1479.7 Z" fill="#000000" fill-rule="nonzero" fill-opacity="1" /><path clip-path="url(#clip190)" d="M615.2 1454.1 Q611.588 1454.1 609.76 1457.66 Q607.954 1461.2 607.954 1468.33 Q607.954 1475.44 609.76 1479.01 Q611.588 1482.55 615.2 1482.55 Q618.834 1482.55 620.639 1479.01 Q622.468 1475.44 622.468 1468.33 Q622.468 1461.2 620.639 1457.66 Q618.834 1454.1 615.2 1454.1 M615.2 1450.39 Q621.01 1450.39 624.065 1455 Q627.144 1459.58 627.144 1468.33 Q627.144 1477.06 624.065 1481.67 Q621.01 1486.25 615.2 1486.25 Q609.389 1486.25 606.311 1481.67 Q603.255 1477.06 603.255 1468.33 Q603.255 1459.58 606.311 1455 Q609.389 1450.39 615.2 1450.39 Z" fill="#000000" fill-rule="nonzero" fill-opacity="1" /><path clip-path="url(#clip190)" d="M918.724 1481.64 L926.363 1481.64 L926.363 1455.28 L918.053 1456.95 L918.053 1452.69 L926.317 1451.02 L930.993 1451.02 L930.993 1481.64 L938.632 1481.64 L938.632 1485.58 L918.724 1485.58 L918.724 1481.64 Z" fill="#000000" fill-rule="nonzero" fill-opacity="1" /><path clip-path="url(#clip190)" d="M948.076 1479.7 L952.96 1479.7 L952.96 1485.58 L948.076 1485.58 L948.076 1479.7 Z" fill="#000000" fill-rule="nonzero" fill-opacity="1" /><path clip-path="url(#clip190)" d="M963.192 1451.02 L981.548 1451.02 L981.548 1454.96 L967.474 1454.96 L967.474 1463.43 Q968.493 1463.08 969.511 1462.92 Q970.53 1462.73 971.548 1462.73 Q977.335 1462.73 980.715 1465.9 Q984.094 1469.08 984.094 1474.49 Q984.094 1480.07 980.622 1483.17 Q977.15 1486.25 970.83 1486.25 Q968.655 1486.25 966.386 1485.88 Q964.141 1485.51 961.733 1484.77 L961.733 1480.07 Q963.817 1481.2 966.039 1481.76 Q968.261 1482.32 970.738 1482.32 Q974.742 1482.32 977.08 1480.21 Q979.418 1478.1 979.418 1474.49 Q979.418 1470.88 977.08 1468.77 Q974.742 1466.67 970.738 1466.67 Q968.863 1466.67 966.988 1467.08 Q965.136 1467.5 963.192 1468.38 L963.192 1451.02 Z" fill="#000000" fill-rule="nonzero" fill-opacity="1" /><path clip-path="url(#clip190)" d="M1279.76 1481.64 L1296.08 1481.64 L1296.08 1485.58 L1274.14 1485.58 L1274.14 1481.64 Q1276.8 1478.89 1281.38 1474.26 Q1285.99 1469.61 1287.17 1468.27 Q1289.41 1465.74 1290.29 1464.01 Q1291.2 1462.25 1291.2 1460.56 Q1291.2 1457.8 1289.25 1456.07 Q1287.33 1454.33 1284.23 1454.33 Q1282.03 1454.33 1279.58 1455.09 Q1277.14 1455.86 1274.37 1457.41 L1274.37 1452.69 Q1277.19 1451.55 1279.64 1450.97 Q1282.1 1450.39 1284.14 1450.39 Q1289.51 1450.39 1292.7 1453.08 Q1295.89 1455.77 1295.89 1460.26 Q1295.89 1462.39 1295.08 1464.31 Q1294.3 1466.2 1292.19 1468.8 Q1291.61 1469.47 1288.51 1472.69 Q1285.41 1475.88 1279.76 1481.64 Z" fill="#000000" fill-rule="nonzero" fill-opacity="1" /><path clip-path="url(#clip190)" d="M1305.89 1479.7 L1310.78 1479.7 L1310.78 1485.58 L1305.89 1485.58 L1305.89 1479.7 Z" fill="#000000" fill-rule="nonzero" fill-opacity="1" /><path clip-path="url(#clip190)" d="M1330.96 1454.1 Q1327.35 1454.1 1325.52 1457.66 Q1323.72 1461.2 1323.72 1468.33 Q1323.72 1475.44 1325.52 1479.01 Q1327.35 1482.55 1330.96 1482.55 Q1334.6 1482.55 1336.4 1479.01 Q1338.23 1475.44 1338.23 1468.33 Q1338.23 1461.2 1336.4 1457.66 Q1334.6 1454.1 1330.96 1454.1 M1330.96 1450.39 Q1336.77 1450.39 1339.83 1455 Q1342.91 1459.58 1342.91 1468.33 Q1342.91 1477.06 1339.83 1481.67 Q1336.77 1486.25 1330.96 1486.25 Q1325.15 1486.25 1322.07 1481.67 Q1319.02 1477.06 1319.02 1468.33 Q1319.02 1459.58 1322.07 1455 Q1325.15 1450.39 1330.96 1450.39 Z" fill="#000000" fill-rule="nonzero" fill-opacity="1" /><path clip-path="url(#clip190)" d="M1637.71 1481.64 L1654.03 1481.64 L1654.03 1485.58 L1632.08 1485.58 L1632.08 1481.64 Q1634.74 1478.89 1639.33 1474.26 Q1643.93 1469.61 1645.11 1468.27 Q1647.36 1465.74 1648.24 1464.01 Q1649.14 1462.25 1649.14 1460.56 Q1649.14 1457.8 1647.2 1456.07 Q1645.28 1454.33 1642.17 1454.33 Q1639.97 1454.33 1637.52 1455.09 Q1635.09 1455.86 1632.31 1457.41 L1632.31 1452.69 Q1635.14 1451.55 1637.59 1450.97 Q1640.04 1450.39 1642.08 1450.39 Q1647.45 1450.39 1650.65 1453.08 Q1653.84 1455.77 1653.84 1460.26 Q1653.84 1462.39 1653.03 1464.31 Q1652.24 1466.2 1650.14 1468.8 Q1649.56 1469.47 1646.46 1472.69 Q1643.35 1475.88 1637.71 1481.64 Z" fill="#000000" fill-rule="nonzero" fill-opacity="1" /><path clip-path="url(#clip190)" d="M1663.84 1479.7 L1668.72 1479.7 L1668.72 1485.58 L1663.84 1485.58 L1663.84 1479.7 Z" fill="#000000" fill-rule="nonzero" fill-opacity="1" /><path clip-path="url(#clip190)" d="M1678.96 1451.02 L1697.31 1451.02 L1697.31 1454.96 L1683.24 1454.96 L1683.24 1463.43 Q1684.26 1463.08 1685.28 1462.92 Q1686.29 1462.73 1687.31 1462.73 Q1693.1 1462.73 1696.48 1465.9 Q1699.86 1469.08 1699.86 1474.49 Q1699.86 1480.07 1696.39 1483.17 Q1692.91 1486.25 1686.59 1486.25 Q1684.42 1486.25 1682.15 1485.88 Q1679.9 1485.51 1677.5 1484.77 L1677.5 1480.07 Q1679.58 1481.2 1681.8 1481.76 Q1684.03 1482.32 1686.5 1482.32 Q1690.51 1482.32 1692.84 1480.21 Q1695.18 1478.1 1695.18 1474.49 Q1695.18 1470.88 1692.84 1468.77 Q1690.51 1466.67 1686.5 1466.67 Q1684.63 1466.67 1682.75 1467.08 Q1680.9 1467.5 1678.96 1468.38 L1678.96 1451.02 Z" fill="#000000" fill-rule="nonzero" fill-opacity="1" /><path clip-path="url(#clip190)" d="M2004.73 1466.95 Q2008.08 1467.66 2009.96 1469.93 Q2011.86 1472.2 2011.86 1475.53 Q2011.86 1480.65 2008.34 1483.45 Q2004.82 1486.25 1998.34 1486.25 Q1996.16 1486.25 1993.85 1485.81 Q1991.55 1485.39 1989.1 1484.54 L1989.1 1480.02 Q1991.05 1481.16 1993.36 1481.74 Q1995.67 1482.32 1998.2 1482.32 Q2002.6 1482.32 2004.89 1480.58 Q2007.2 1478.84 2007.2 1475.53 Q2007.2 1472.48 2005.05 1470.77 Q2002.92 1469.03 1999.1 1469.03 L1995.07 1469.03 L1995.07 1465.19 L1999.29 1465.19 Q2002.73 1465.19 2004.56 1463.82 Q2006.39 1462.43 2006.39 1459.84 Q2006.39 1457.18 2004.49 1455.77 Q2002.62 1454.33 1999.1 1454.33 Q1997.18 1454.33 1994.98 1454.75 Q1992.78 1455.16 1990.14 1456.04 L1990.14 1451.88 Q1992.8 1451.14 1995.12 1450.77 Q1997.46 1450.39 1999.52 1450.39 Q2004.84 1450.39 2007.94 1452.83 Q2011.04 1455.23 2011.04 1459.35 Q2011.04 1462.22 2009.4 1464.21 Q2007.76 1466.18 2004.73 1466.95 Z" fill="#000000" fill-rule="nonzero" fill-opacity="1" /><path clip-path="url(#clip190)" d="M2020.72 1479.7 L2025.61 1479.7 L2025.61 1485.58 L2020.72 1485.58 L2020.72 1479.7 Z" fill="#000000" fill-rule="nonzero" fill-opacity="1" /><path clip-path="url(#clip190)" d="M2045.79 1454.1 Q2042.18 1454.1 2040.35 1457.66 Q2038.54 1461.2 2038.54 1468.33 Q2038.54 1475.44 2040.35 1479.01 Q2042.18 1482.55 2045.79 1482.55 Q2049.42 1482.55 2051.23 1479.01 Q2053.06 1475.44 2053.06 1468.33 Q2053.06 1461.2 2051.23 1457.66 Q2049.42 1454.1 2045.79 1454.1 M2045.79 1450.39 Q2051.6 1450.39 2054.66 1455 Q2057.73 1459.58 2057.73 1468.33 Q2057.73 1477.06 2054.66 1481.67 Q2051.6 1486.25 2045.79 1486.25 Q2039.98 1486.25 2036.9 1481.67 Q2033.85 1477.06 2033.85 1468.33 Q2033.85 1459.58 2036.9 1455 Q2039.98 1450.39 2045.79 1450.39 Z" fill="#000000" fill-rule="nonzero" fill-opacity="1" /><path clip-path="url(#clip190)" d="M1119.64 1520.52 L1159.83 1520.52 L1159.83 1525.93 L1142.97 1525.93 L1142.97 1568.04 L1136.5 1568.04 L1136.5 1525.93 L1119.64 1525.93 L1119.64 1520.52 Z" fill="#000000" fill-rule="nonzero" fill-opacity="1" /><path clip-path="url(#clip190)" d="M1163.78 1532.4 L1169.64 1532.4 L1169.64 1568.04 L1163.78 1568.04 L1163.78 1532.4 M1163.78 1518.52 L1169.64 1518.52 L1169.64 1525.93 L1163.78 1525.93 L1163.78 1518.52 Z" fill="#000000" fill-rule="nonzero" fill-opacity="1" /><path clip-path="url(#clip190)" d="M1209.65 1539.24 Q1211.84 1535.29 1214.9 1533.41 Q1217.95 1531.54 1222.09 1531.54 Q1227.66 1531.54 1230.68 1535.45 Q1233.71 1539.33 1233.71 1546.53 L1233.71 1568.04 L1227.82 1568.04 L1227.82 1546.72 Q1227.82 1541.59 1226.01 1539.11 Q1224.19 1536.63 1220.47 1536.63 Q1215.92 1536.63 1213.27 1539.65 Q1210.63 1542.68 1210.63 1547.9 L1210.63 1568.04 L1204.74 1568.04 L1204.74 1546.72 Q1204.74 1541.56 1202.93 1539.11 Q1201.12 1536.63 1197.33 1536.63 Q1192.84 1536.63 1190.2 1539.68 Q1187.56 1542.71 1187.56 1547.9 L1187.56 1568.04 L1181.67 1568.04 L1181.67 1532.4 L1187.56 1532.4 L1187.56 1537.93 Q1189.56 1534.66 1192.36 1533.1 Q1195.16 1531.54 1199.02 1531.54 Q1202.9 1531.54 1205.6 1533.51 Q1208.34 1535.48 1209.65 1539.24 Z" fill="#000000" fill-rule="nonzero" fill-opacity="1" /><path clip-path="url(#clip190)" d="M1275.88 1548.76 L1275.88 1551.62 L1248.95 1551.62 Q1249.34 1557.67 1252.58 1560.85 Q1255.86 1564 1261.69 1564 Q1265.06 1564 1268.21 1563.17 Q1271.39 1562.35 1274.51 1560.69 L1274.51 1566.23 Q1271.36 1567.57 1268.05 1568.27 Q1264.74 1568.97 1261.34 1568.97 Q1252.81 1568.97 1247.81 1564 Q1242.84 1559.04 1242.84 1550.57 Q1242.84 1541.82 1247.55 1536.69 Q1252.3 1531.54 1260.32 1531.54 Q1267.51 1531.54 1271.68 1536.18 Q1275.88 1540.8 1275.88 1548.76 M1270.03 1547.04 Q1269.96 1542.23 1267.32 1539.37 Q1264.71 1536.5 1260.38 1536.5 Q1255.48 1536.5 1252.52 1539.27 Q1249.59 1542.04 1249.15 1547.07 L1270.03 1547.04 Z" fill="#000000" fill-rule="nonzero" fill-opacity="1" /><path clip-path="url(#clip190)" d="M1312.9 1525.81 L1312.9 1543.66 L1320.98 1543.66 Q1325.47 1543.66 1327.92 1541.34 Q1330.37 1539.02 1330.37 1534.72 Q1330.37 1530.45 1327.92 1528.13 Q1325.47 1525.81 1320.98 1525.81 L1312.9 1525.81 M1306.47 1520.52 L1320.98 1520.52 Q1328.97 1520.52 1333.05 1524.15 Q1337.15 1527.75 1337.15 1534.72 Q1337.15 1541.75 1333.05 1545.35 Q1328.97 1548.95 1320.98 1548.95 L1312.9 1548.95 L1312.9 1568.04 L1306.47 1568.04 L1306.47 1520.52 Z" fill="#000000" fill-rule="nonzero" fill-opacity="1" /><path clip-path="url(#clip190)" d="M1373.69 1548.76 L1373.69 1551.62 L1346.76 1551.62 Q1347.15 1557.67 1350.39 1560.85 Q1353.67 1564 1359.5 1564 Q1362.87 1564 1366.02 1563.17 Q1369.2 1562.35 1372.32 1560.69 L1372.32 1566.23 Q1369.17 1567.57 1365.86 1568.27 Q1362.55 1568.97 1359.14 1568.97 Q1350.61 1568.97 1345.62 1564 Q1340.65 1559.04 1340.65 1550.57 Q1340.65 1541.82 1345.36 1536.69 Q1350.11 1531.54 1358.13 1531.54 Q1365.32 1531.54 1369.49 1536.18 Q1373.69 1540.8 1373.69 1548.76 M1367.83 1547.04 Q1367.77 1542.23 1365.13 1539.37 Q1362.52 1536.5 1358.19 1536.5 Q1353.29 1536.5 1350.33 1539.27 Q1347.4 1542.04 1346.95 1547.07 L1367.83 1547.04 Z" fill="#000000" fill-rule="nonzero" fill-opacity="1" /><path clip-path="url(#clip190)" d="M1403.96 1537.87 Q1402.97 1537.3 1401.8 1537.04 Q1400.65 1536.76 1399.25 1536.76 Q1394.28 1536.76 1391.61 1540 Q1388.97 1543.22 1388.97 1549.27 L1388.97 1568.04 L1383.08 1568.04 L1383.08 1532.4 L1388.97 1532.4 L1388.97 1537.93 Q1390.81 1534.69 1393.77 1533.13 Q1396.73 1531.54 1400.97 1531.54 Q1401.57 1531.54 1402.3 1531.63 Q1403.04 1531.7 1403.93 1531.85 L1403.96 1537.87 Z" fill="#000000" fill-rule="nonzero" fill-opacity="1" /><path clip-path="url(#clip190)" d="M1410.1 1532.4 L1415.96 1532.4 L1415.96 1568.04 L1410.1 1568.04 L1410.1 1532.4 M1410.1 1518.52 L1415.96 1518.52 L1415.96 1525.93 L1410.1 1525.93 L1410.1 1518.52 Z" fill="#000000" fill-rule="nonzero" fill-opacity="1" /><path clip-path="url(#clip190)" d="M1442.03 1536.5 Q1437.32 1536.5 1434.58 1540.19 Q1431.84 1543.85 1431.84 1550.25 Q1431.84 1556.65 1434.55 1560.34 Q1437.28 1564 1442.03 1564 Q1446.71 1564 1449.44 1560.31 Q1452.18 1556.62 1452.18 1550.25 Q1452.18 1543.92 1449.44 1540.23 Q1446.71 1536.5 1442.03 1536.5 M1442.03 1531.54 Q1449.67 1531.54 1454.03 1536.5 Q1458.39 1541.47 1458.39 1550.25 Q1458.39 1559 1454.03 1564 Q1449.67 1568.97 1442.03 1568.97 Q1434.36 1568.97 1430 1564 Q1425.67 1559 1425.67 1550.25 Q1425.67 1541.47 1430 1536.5 Q1434.36 1531.54 1442.03 1531.54 Z" fill="#000000" fill-rule="nonzero" fill-opacity="1" /><path clip-path="url(#clip190)" d="M1491.55 1537.81 L1491.55 1518.52 L1497.41 1518.52 L1497.41 1568.04 L1491.55 1568.04 L1491.55 1562.7 Q1489.71 1565.88 1486.87 1567.44 Q1484.07 1568.97 1480.13 1568.97 Q1473.66 1568.97 1469.59 1563.81 Q1465.55 1558.65 1465.55 1550.25 Q1465.55 1541.85 1469.59 1536.69 Q1473.66 1531.54 1480.13 1531.54 Q1484.07 1531.54 1486.87 1533.1 Q1489.71 1534.62 1491.55 1537.81 M1471.6 1550.25 Q1471.6 1556.71 1474.24 1560.4 Q1476.91 1564.07 1481.56 1564.07 Q1486.2 1564.07 1488.88 1560.4 Q1491.55 1556.71 1491.55 1550.25 Q1491.55 1543.79 1488.88 1540.13 Q1486.2 1536.44 1481.56 1536.44 Q1476.91 1536.44 1474.24 1540.13 Q1471.6 1543.79 1471.6 1550.25 Z" fill="#000000" fill-rule="nonzero" fill-opacity="1" /><polyline clip-path="url(#clip190)" style="stroke:#000000; stroke-linecap:round; stroke-linejoin:round; stroke-width:4; stroke-opacity:1; fill:none" points="264.287,1423.18 264.287,123.472 "/>
<polyline clip-path="url(#clip190)" style="stroke:#000000; stroke-linecap:round; stroke-linejoin:round; stroke-width:4; stroke-opacity:1; fill:none" points="264.287,1423.18 283.185,1423.18 "/>
<polyline clip-path="url(#clip190)" style="stroke:#000000; stroke-linecap:round; stroke-linejoin:round; stroke-width:4; stroke-opacity:1; fill:none" points="264.287,1048.19 283.185,1048.19 "/>
<polyline clip-path="url(#clip190)" style="stroke:#000000; stroke-linecap:round; stroke-linejoin:round; stroke-width:4; stroke-opacity:1; fill:none" points="264.287,673.204 283.185,673.204 "/>
<polyline clip-path="url(#clip190)" style="stroke:#000000; stroke-linecap:round; stroke-linejoin:round; stroke-width:4; stroke-opacity:1; fill:none" points="264.287,298.216 283.185,298.216 "/>
<path clip-path="url(#clip190)" d="M216.343 1408.98 Q212.732 1408.98 210.903 1412.54 Q209.098 1416.08 209.098 1423.21 Q209.098 1430.32 210.903 1433.89 Q212.732 1437.43 216.343 1437.43 Q219.977 1437.43 221.783 1433.89 Q223.611 1430.32 223.611 1423.21 Q223.611 1416.08 221.783 1412.54 Q219.977 1408.98 216.343 1408.98 M216.343 1405.27 Q222.153 1405.27 225.209 1409.88 Q228.287 1414.46 228.287 1423.21 Q228.287 1431.94 225.209 1436.55 Q222.153 1441.13 216.343 1441.13 Q210.533 1441.13 207.454 1436.55 Q204.399 1431.94 204.399 1423.21 Q204.399 1414.46 207.454 1409.88 Q210.533 1405.27 216.343 1405.27 Z" fill="#000000" fill-rule="nonzero" fill-opacity="1" /><path clip-path="url(#clip190)" d="M116.668 1061.54 L124.306 1061.54 L124.306 1035.17 L115.996 1036.84 L115.996 1032.58 L124.26 1030.91 L128.936 1030.91 L128.936 1061.54 L136.575 1061.54 L136.575 1065.47 L116.668 1065.47 L116.668 1061.54 Z" fill="#000000" fill-rule="nonzero" fill-opacity="1" /><path clip-path="url(#clip190)" d="M156.019 1033.99 Q152.408 1033.99 150.579 1037.56 Q148.774 1041.1 148.774 1048.23 Q148.774 1055.33 150.579 1058.9 Q152.408 1062.44 156.019 1062.44 Q159.653 1062.44 161.459 1058.9 Q163.288 1055.33 163.288 1048.23 Q163.288 1041.1 161.459 1037.56 Q159.653 1033.99 156.019 1033.99 M156.019 1030.29 Q161.829 1030.29 164.885 1034.89 Q167.964 1039.48 167.964 1048.23 Q167.964 1056.95 164.885 1061.56 Q161.829 1066.14 156.019 1066.14 Q150.209 1066.14 147.13 1061.56 Q144.075 1056.95 144.075 1048.23 Q144.075 1039.48 147.13 1034.89 Q150.209 1030.29 156.019 1030.29 Z" fill="#000000" fill-rule="nonzero" fill-opacity="1" /><path clip-path="url(#clip190)" d="M186.181 1033.99 Q182.57 1033.99 180.741 1037.56 Q178.936 1041.1 178.936 1048.23 Q178.936 1055.33 180.741 1058.9 Q182.57 1062.44 186.181 1062.44 Q189.815 1062.44 191.621 1058.9 Q193.45 1055.33 193.45 1048.23 Q193.45 1041.1 191.621 1037.56 Q189.815 1033.99 186.181 1033.99 M186.181 1030.29 Q191.991 1030.29 195.047 1034.89 Q198.125 1039.48 198.125 1048.23 Q198.125 1056.95 195.047 1061.56 Q191.991 1066.14 186.181 1066.14 Q180.371 1066.14 177.292 1061.56 Q174.237 1056.95 174.237 1048.23 Q174.237 1039.48 177.292 1034.89 Q180.371 1030.29 186.181 1030.29 Z" fill="#000000" fill-rule="nonzero" fill-opacity="1" /><path clip-path="url(#clip190)" d="M216.343 1033.99 Q212.732 1033.99 210.903 1037.56 Q209.098 1041.1 209.098 1048.23 Q209.098 1055.33 210.903 1058.9 Q212.732 1062.44 216.343 1062.44 Q219.977 1062.44 221.783 1058.9 Q223.611 1055.33 223.611 1048.23 Q223.611 1041.1 221.783 1037.56 Q219.977 1033.99 216.343 1033.99 M216.343 1030.29 Q222.153 1030.29 225.209 1034.89 Q228.287 1039.48 228.287 1048.23 Q228.287 1056.95 225.209 1061.56 Q222.153 1066.14 216.343 1066.14 Q210.533 1066.14 207.454 1061.56 Q204.399 1056.95 204.399 1048.23 Q204.399 1039.48 207.454 1034.89 Q210.533 1030.29 216.343 1030.29 Z" fill="#000000" fill-rule="nonzero" fill-opacity="1" /><path clip-path="url(#clip190)" d="M119.885 686.549 L136.204 686.549 L136.204 690.484 L114.26 690.484 L114.26 686.549 Q116.922 683.794 121.505 679.165 Q126.112 674.512 127.292 673.17 Q129.538 670.646 130.417 668.91 Q131.32 667.151 131.32 665.461 Q131.32 662.707 129.376 660.971 Q127.455 659.234 124.353 659.234 Q122.154 659.234 119.7 659.998 Q117.269 660.762 114.492 662.313 L114.492 657.591 Q117.316 656.457 119.769 655.878 Q122.223 655.299 124.26 655.299 Q129.63 655.299 132.825 657.984 Q136.019 660.67 136.019 665.16 Q136.019 667.29 135.209 669.211 Q134.422 671.109 132.316 673.702 Q131.737 674.373 128.635 677.591 Q125.533 680.785 119.885 686.549 Z" fill="#000000" fill-rule="nonzero" fill-opacity="1" /><path clip-path="url(#clip190)" d="M156.019 659.003 Q152.408 659.003 150.579 662.568 Q148.774 666.109 148.774 673.239 Q148.774 680.345 150.579 683.91 Q152.408 687.452 156.019 687.452 Q159.653 687.452 161.459 683.91 Q163.288 680.345 163.288 673.239 Q163.288 666.109 161.459 662.568 Q159.653 659.003 156.019 659.003 M156.019 655.299 Q161.829 655.299 164.885 659.906 Q167.964 664.489 167.964 673.239 Q167.964 681.966 164.885 686.572 Q161.829 691.156 156.019 691.156 Q150.209 691.156 147.13 686.572 Q144.075 681.966 144.075 673.239 Q144.075 664.489 147.13 659.906 Q150.209 655.299 156.019 655.299 Z" fill="#000000" fill-rule="nonzero" fill-opacity="1" /><path clip-path="url(#clip190)" d="M186.181 659.003 Q182.57 659.003 180.741 662.568 Q178.936 666.109 178.936 673.239 Q178.936 680.345 180.741 683.91 Q182.57 687.452 186.181 687.452 Q189.815 687.452 191.621 683.91 Q193.45 680.345 193.45 673.239 Q193.45 666.109 191.621 662.568 Q189.815 659.003 186.181 659.003 M186.181 655.299 Q191.991 655.299 195.047 659.906 Q198.125 664.489 198.125 673.239 Q198.125 681.966 195.047 686.572 Q191.991 691.156 186.181 691.156 Q180.371 691.156 177.292 686.572 Q174.237 681.966 174.237 673.239 Q174.237 664.489 177.292 659.906 Q180.371 655.299 186.181 655.299 Z" fill="#000000" fill-rule="nonzero" fill-opacity="1" /><path clip-path="url(#clip190)" d="M216.343 659.003 Q212.732 659.003 210.903 662.568 Q209.098 666.109 209.098 673.239 Q209.098 680.345 210.903 683.91 Q212.732 687.452 216.343 687.452 Q219.977 687.452 221.783 683.91 Q223.611 680.345 223.611 673.239 Q223.611 666.109 221.783 662.568 Q219.977 659.003 216.343 659.003 M216.343 655.299 Q222.153 655.299 225.209 659.906 Q228.287 664.489 228.287 673.239 Q228.287 681.966 225.209 686.572 Q222.153 691.156 216.343 691.156 Q210.533 691.156 207.454 686.572 Q204.399 681.966 204.399 673.239 Q204.399 664.489 207.454 659.906 Q210.533 655.299 216.343 655.299 Z" fill="#000000" fill-rule="nonzero" fill-opacity="1" /><path clip-path="url(#clip190)" d="M130.024 296.862 Q133.38 297.58 135.255 299.848 Q137.154 302.117 137.154 305.45 Q137.154 310.566 133.635 313.367 Q130.117 316.168 123.635 316.168 Q121.459 316.168 119.144 315.728 Q116.853 315.311 114.399 314.455 L114.399 309.941 Q116.343 311.075 118.658 311.654 Q120.973 312.233 123.496 312.233 Q127.894 312.233 130.186 310.496 Q132.501 308.76 132.501 305.45 Q132.501 302.395 130.348 300.682 Q128.218 298.946 124.399 298.946 L120.371 298.946 L120.371 295.103 L124.584 295.103 Q128.033 295.103 129.862 293.737 Q131.691 292.348 131.691 289.756 Q131.691 287.094 129.792 285.682 Q127.917 284.247 124.399 284.247 Q122.478 284.247 120.279 284.663 Q118.08 285.08 115.441 285.96 L115.441 281.793 Q118.103 281.052 120.418 280.682 Q122.755 280.311 124.816 280.311 Q130.14 280.311 133.242 282.742 Q136.343 285.149 136.343 289.27 Q136.343 292.14 134.7 294.131 Q133.056 296.098 130.024 296.862 Z" fill="#000000" fill-rule="nonzero" fill-opacity="1" /><path clip-path="url(#clip190)" d="M156.019 284.015 Q152.408 284.015 150.579 287.58 Q148.774 291.122 148.774 298.251 Q148.774 305.358 150.579 308.922 Q152.408 312.464 156.019 312.464 Q159.653 312.464 161.459 308.922 Q163.288 305.358 163.288 298.251 Q163.288 291.122 161.459 287.58 Q159.653 284.015 156.019 284.015 M156.019 280.311 Q161.829 280.311 164.885 284.918 Q167.964 289.501 167.964 298.251 Q167.964 306.978 164.885 311.584 Q161.829 316.168 156.019 316.168 Q150.209 316.168 147.13 311.584 Q144.075 306.978 144.075 298.251 Q144.075 289.501 147.13 284.918 Q150.209 280.311 156.019 280.311 Z" fill="#000000" fill-rule="nonzero" fill-opacity="1" /><path clip-path="url(#clip190)" d="M186.181 284.015 Q182.57 284.015 180.741 287.58 Q178.936 291.122 178.936 298.251 Q178.936 305.358 180.741 308.922 Q182.57 312.464 186.181 312.464 Q189.815 312.464 191.621 308.922 Q193.45 305.358 193.45 298.251 Q193.45 291.122 191.621 287.58 Q189.815 284.015 186.181 284.015 M186.181 280.311 Q191.991 280.311 195.047 284.918 Q198.125 289.501 198.125 298.251 Q198.125 306.978 195.047 311.584 Q191.991 316.168 186.181 316.168 Q180.371 316.168 177.292 311.584 Q174.237 306.978 174.237 298.251 Q174.237 289.501 177.292 284.918 Q180.371 280.311 186.181 280.311 Z" fill="#000000" fill-rule="nonzero" fill-opacity="1" /><path clip-path="url(#clip190)" d="M216.343 284.015 Q212.732 284.015 210.903 287.58 Q209.098 291.122 209.098 298.251 Q209.098 305.358 210.903 308.922 Q212.732 312.464 216.343 312.464 Q219.977 312.464 221.783 308.922 Q223.611 305.358 223.611 298.251 Q223.611 291.122 221.783 287.58 Q219.977 284.015 216.343 284.015 M216.343 280.311 Q222.153 280.311 225.209 284.918 Q228.287 289.501 228.287 298.251 Q228.287 306.978 225.209 311.584 Q222.153 316.168 216.343 316.168 Q210.533 316.168 207.454 311.584 Q204.399 306.978 204.399 298.251 Q204.399 289.501 207.454 284.918 Q210.533 280.311 216.343 280.311 Z" fill="#000000" fill-rule="nonzero" fill-opacity="1" /><path clip-path="url(#clip190)" d="M16.4842 941.651 L16.4842 935.222 L58.5933 935.222 L58.5933 912.082 L64.0042 912.082 L64.0042 941.651 L16.4842 941.651 Z" fill="#000000" fill-rule="nonzero" fill-opacity="1" /><path clip-path="url(#clip190)" d="M32.4621 892.922 Q32.4621 897.632 36.1542 900.37 Q39.8145 903.107 46.212 903.107 Q52.6095 903.107 56.3017 900.401 Q59.9619 897.664 59.9619 892.922 Q59.9619 888.243 56.2698 885.506 Q52.5777 882.768 46.212 882.768 Q39.8781 882.768 36.186 885.506 Q32.4621 888.243 32.4621 892.922 M27.4968 892.922 Q27.4968 885.283 32.4621 880.922 Q37.4273 876.562 46.212 876.562 Q54.9649 876.562 59.9619 880.922 Q64.9272 885.283 64.9272 892.922 Q64.9272 900.592 59.9619 904.953 Q54.9649 909.282 46.212 909.282 Q37.4273 909.282 32.4621 904.953 Q27.4968 900.592 27.4968 892.922 Z" fill="#000000" fill-rule="nonzero" fill-opacity="1" /><path clip-path="url(#clip190)" d="M46.0847 850.653 Q46.0847 857.751 47.7079 860.488 Q49.3312 863.226 53.2461 863.226 Q56.3653 863.226 58.2114 861.189 Q60.0256 859.12 60.0256 855.587 Q60.0256 850.717 56.5881 847.789 Q53.1188 844.829 47.3897 844.829 L46.0847 844.829 L46.0847 850.653 M43.6657 838.972 L64.0042 838.972 L64.0042 844.829 L58.5933 844.829 Q61.8398 846.834 63.3994 849.826 Q64.9272 852.818 64.9272 857.146 Q64.9272 862.621 61.8716 865.867 Q58.7843 869.082 53.6281 869.082 Q47.6125 869.082 44.5569 865.072 Q41.5014 861.03 41.5014 853.041 L41.5014 844.829 L40.9285 844.829 Q36.8862 844.829 34.6901 847.502 Q32.4621 850.144 32.4621 854.95 Q32.4621 858.006 33.1941 860.902 Q33.9262 863.799 35.3903 866.472 L29.9795 866.472 Q28.7381 863.258 28.1334 860.234 Q27.4968 857.21 27.4968 854.346 Q27.4968 846.611 31.5072 842.792 Q35.5176 838.972 43.6657 838.972 Z" fill="#000000" fill-rule="nonzero" fill-opacity="1" /><path clip-path="url(#clip190)" d="M33.7671 803.452 L14.479 803.452 L14.479 797.595 L64.0042 797.595 L64.0042 803.452 L58.657 803.452 Q61.8398 805.298 63.3994 808.13 Q64.9272 810.931 64.9272 814.878 Q64.9272 821.339 59.771 825.413 Q54.6147 829.456 46.212 829.456 Q37.8093 829.456 32.6531 825.413 Q27.4968 821.339 27.4968 814.878 Q27.4968 810.931 29.0564 808.13 Q30.5842 805.298 33.7671 803.452 M46.212 823.408 Q52.6732 823.408 56.3653 820.766 Q60.0256 818.093 60.0256 813.446 Q60.0256 808.799 56.3653 806.125 Q52.6732 803.452 46.212 803.452 Q39.7508 803.452 36.0905 806.125 Q32.3984 808.799 32.3984 813.446 Q32.3984 818.093 36.0905 820.766 Q39.7508 823.408 46.212 823.408 Z" fill="#000000" fill-rule="nonzero" fill-opacity="1" /><path clip-path="url(#clip190)" d="M14.5426 750.744 Q21.8632 755.009 29.0246 757.078 Q36.186 759.146 43.5384 759.146 Q50.8908 759.146 58.1159 757.078 Q65.3091 754.977 72.5979 750.744 L72.5979 755.836 Q65.1182 760.61 57.8931 762.998 Q50.668 765.353 43.5384 765.353 Q36.4406 765.353 29.2474 762.998 Q22.0542 760.642 14.5426 755.836 L14.5426 750.744 Z" fill="#000000" fill-rule="nonzero" fill-opacity="1" /><path clip-path="url(#clip190)" d="M16.4842 739.126 L16.4842 729.546 L48.8219 717.419 L16.4842 705.229 L16.4842 695.648 L64.0042 695.648 L64.0042 701.919 L22.277 701.919 L54.8694 714.173 L54.8694 720.634 L22.277 732.888 L64.0042 732.888 L64.0042 739.126 L16.4842 739.126 Z" fill="#000000" fill-rule="nonzero" fill-opacity="1" /><path clip-path="url(#clip190)" d="M16.4842 687.118 L16.4842 680.625 L56.6518 670.631 L16.4842 660.669 L16.4842 653.444 L56.6518 643.45 L16.4842 633.487 L16.4842 626.962 L64.0042 638.898 L64.0042 646.983 L22.7544 657.009 L64.0042 667.13 L64.0042 675.215 L16.4842 687.118 Z" fill="#000000" fill-rule="nonzero" fill-opacity="1" /><path clip-path="url(#clip190)" d="M14.5426 619.61 L14.5426 614.518 Q22.0542 609.743 29.2474 607.388 Q36.4406 605.001 43.5384 605.001 Q50.668 605.001 57.8931 607.388 Q65.1182 609.743 72.5979 614.518 L72.5979 619.61 Q65.3091 615.377 58.1159 613.308 Q50.8908 611.207 43.5384 611.207 Q36.186 611.207 29.0246 613.308 Q21.8632 615.377 14.5426 619.61 Z" fill="#000000" fill-rule="nonzero" fill-opacity="1" /><path clip-path="url(#clip190)" d="M597.284 12.096 L609.477 12.096 L624.911 53.2532 L640.426 12.096 L652.619 12.096 L652.619 72.576 L644.639 72.576 L644.639 19.4686 L629.043 60.9499 L620.82 60.9499 L605.224 19.4686 L605.224 72.576 L597.284 72.576 L597.284 12.096 Z" fill="#000000" fill-rule="nonzero" fill-opacity="1" /><path clip-path="url(#clip190)" d="M667.77 54.671 L667.77 27.2059 L675.224 27.2059 L675.224 54.3874 Q675.224 60.8284 677.735 64.0691 Q680.247 67.2693 685.27 67.2693 Q691.306 67.2693 694.789 63.421 Q698.314 59.5726 698.314 52.9291 L698.314 27.2059 L705.767 27.2059 L705.767 72.576 L698.314 72.576 L698.314 65.6084 Q695.6 69.7404 691.994 71.7658 Q688.429 73.7508 683.69 73.7508 Q675.872 73.7508 671.821 68.8897 Q667.77 64.0286 667.77 54.671 M686.526 26.1121 L686.526 26.1121 Z" fill="#000000" fill-rule="nonzero" fill-opacity="1" /><path clip-path="url(#clip190)" d="M721.12 9.54393 L728.574 9.54393 L728.574 72.576 L721.12 72.576 L721.12 9.54393 Z" fill="#000000" fill-rule="nonzero" fill-opacity="1" /><path clip-path="url(#clip190)" d="M751.543 14.324 L751.543 27.2059 L766.895 27.2059 L766.895 32.9987 L751.543 32.9987 L751.543 57.6282 Q751.543 63.1779 753.041 64.7578 Q754.581 66.3376 759.239 66.3376 L766.895 66.3376 L766.895 72.576 L759.239 72.576 Q750.611 72.576 747.33 69.3758 Q744.048 66.1351 744.048 57.6282 L744.048 32.9987 L738.58 32.9987 L738.58 27.2059 L744.048 27.2059 L744.048 14.324 L751.543 14.324 Z" fill="#000000" fill-rule="nonzero" fill-opacity="1" /><path clip-path="url(#clip190)" d="M776.699 27.2059 L784.152 27.2059 L784.152 72.576 L776.699 72.576 L776.699 27.2059 M776.699 9.54393 L784.152 9.54393 L784.152 18.9825 L776.699 18.9825 L776.699 9.54393 Z" fill="#000000" fill-rule="nonzero" fill-opacity="1" /><path clip-path="url(#clip190)" d="M806.959 65.7705 L806.959 89.8329 L799.465 89.8329 L799.465 27.2059 L806.959 27.2059 L806.959 34.0924 Q809.308 30.0415 812.873 28.0971 Q816.479 26.1121 821.461 26.1121 Q829.725 26.1121 834.87 32.6746 Q840.055 39.2371 840.055 49.9314 Q840.055 60.6258 834.87 67.1883 Q829.725 73.7508 821.461 73.7508 Q816.479 73.7508 812.873 71.8063 Q809.308 69.8214 806.959 65.7705 M832.318 49.9314 Q832.318 41.7081 828.915 37.0496 Q825.553 32.3505 819.638 32.3505 Q813.724 32.3505 810.321 37.0496 Q806.959 41.7081 806.959 49.9314 Q806.959 58.1548 810.321 62.8538 Q813.724 67.5124 819.638 67.5124 Q825.553 67.5124 828.915 62.8538 Q832.318 58.1548 832.318 49.9314 Z" fill="#000000" fill-rule="nonzero" fill-opacity="1" /><path clip-path="url(#clip190)" d="M891.218 48.0275 L891.218 51.6733 L856.947 51.6733 Q857.433 59.3701 861.565 63.421 Q865.738 67.4314 873.151 67.4314 Q877.445 67.4314 881.455 66.3781 Q885.506 65.3249 889.476 63.2184 L889.476 70.267 Q885.465 71.9684 881.252 72.8596 Q877.04 73.7508 872.705 73.7508 Q861.849 73.7508 855.489 67.4314 Q849.169 61.1119 849.169 50.3365 Q849.169 39.1965 855.165 32.6746 Q861.201 26.1121 871.409 26.1121 Q880.564 26.1121 885.871 32.0264 Q891.218 37.9003 891.218 48.0275 M883.764 45.84 Q883.683 39.7232 880.321 36.0774 Q876.999 32.4315 871.49 32.4315 Q865.251 32.4315 861.484 35.9558 Q857.757 39.4801 857.19 45.8805 L883.764 45.84 Z" fill="#000000" fill-rule="nonzero" fill-opacity="1" /><path clip-path="url(#clip190)" d="M929.742 34.1734 Q928.486 33.4443 926.987 33.1202 Q925.529 32.7556 923.746 32.7556 Q917.427 32.7556 914.024 36.8875 Q910.662 40.9789 910.662 48.6757 L910.662 72.576 L903.168 72.576 L903.168 27.2059 L910.662 27.2059 L910.662 34.2544 Q913.012 30.1225 916.779 28.1376 Q920.546 26.1121 925.934 26.1121 Q926.704 26.1121 927.635 26.2337 Q928.567 26.3147 929.701 26.5172 L929.742 34.1734 Z" fill="#000000" fill-rule="nonzero" fill-opacity="1" /><path clip-path="url(#clip190)" d="M937.56 27.2059 L945.014 27.2059 L945.014 72.576 L937.56 72.576 L937.56 27.2059 M937.56 9.54393 L945.014 9.54393 L945.014 18.9825 L937.56 18.9825 L937.56 9.54393 Z" fill="#000000" fill-rule="nonzero" fill-opacity="1" /><path clip-path="url(#clip190)" d="M978.191 32.4315 Q972.195 32.4315 968.712 37.1306 Q965.228 41.7891 965.228 49.9314 Q965.228 58.0738 968.671 62.7728 Q972.155 67.4314 978.191 67.4314 Q984.145 67.4314 987.629 62.7323 Q991.113 58.0333 991.113 49.9314 Q991.113 41.8701 987.629 37.1711 Q984.145 32.4315 978.191 32.4315 M978.191 26.1121 Q987.913 26.1121 993.463 32.4315 Q999.012 38.7509 999.012 49.9314 Q999.012 61.0714 993.463 67.4314 Q987.913 73.7508 978.191 73.7508 Q968.428 73.7508 962.878 67.4314 Q957.369 61.0714 957.369 49.9314 Q957.369 38.7509 962.878 32.4315 Q968.428 26.1121 978.191 26.1121 Z" fill="#000000" fill-rule="nonzero" fill-opacity="1" /><path clip-path="url(#clip190)" d="M1041.22 34.0924 L1041.22 9.54393 L1048.68 9.54393 L1048.68 72.576 L1041.22 72.576 L1041.22 65.7705 Q1038.87 69.8214 1035.27 71.8063 Q1031.7 73.7508 1026.68 73.7508 Q1018.46 73.7508 1013.27 67.1883 Q1008.13 60.6258 1008.13 49.9314 Q1008.13 39.2371 1013.27 32.6746 Q1018.46 26.1121 1026.68 26.1121 Q1031.7 26.1121 1035.27 28.0971 Q1038.87 30.0415 1041.22 34.0924 M1015.82 49.9314 Q1015.82 58.1548 1019.19 62.8538 Q1022.59 67.5124 1028.5 67.5124 Q1034.42 67.5124 1037.82 62.8538 Q1041.22 58.1548 1041.22 49.9314 Q1041.22 41.7081 1037.82 37.0496 Q1034.42 32.3505 1028.5 32.3505 Q1022.59 32.3505 1019.19 37.0496 Q1015.82 41.7081 1015.82 49.9314 Z" fill="#000000" fill-rule="nonzero" fill-opacity="1" /><path clip-path="url(#clip190)" d="M1090.72 12.096 L1098.91 12.096 L1098.91 65.6895 L1128.36 65.6895 L1128.36 72.576 L1090.72 72.576 L1090.72 12.096 Z" fill="#000000" fill-rule="nonzero" fill-opacity="1" /><path clip-path="url(#clip190)" d="M1152.74 32.4315 Q1146.75 32.4315 1143.26 37.1306 Q1139.78 41.7891 1139.78 49.9314 Q1139.78 58.0738 1143.22 62.7728 Q1146.71 67.4314 1152.74 67.4314 Q1158.7 67.4314 1162.18 62.7323 Q1165.67 58.0333 1165.67 49.9314 Q1165.67 41.8701 1162.18 37.1711 Q1158.7 32.4315 1152.74 32.4315 M1152.74 26.1121 Q1162.47 26.1121 1168.02 32.4315 Q1173.57 38.7509 1173.57 49.9314 Q1173.57 61.0714 1168.02 67.4314 Q1162.47 73.7508 1152.74 73.7508 Q1142.98 73.7508 1137.43 67.4314 Q1131.92 61.0714 1131.92 49.9314 Q1131.92 38.7509 1137.43 32.4315 Q1142.98 26.1121 1152.74 26.1121 Z" fill="#000000" fill-rule="nonzero" fill-opacity="1" /><path clip-path="url(#clip190)" d="M1206.54 49.7694 Q1197.51 49.7694 1194.02 51.8354 Q1190.54 53.9013 1190.54 58.8839 Q1190.54 62.8538 1193.13 65.2034 Q1195.76 67.5124 1200.26 67.5124 Q1206.46 67.5124 1210.19 63.1374 Q1213.95 58.7219 1213.95 51.4303 L1213.95 49.7694 L1206.54 49.7694 M1221.41 46.6907 L1221.41 72.576 L1213.95 72.576 L1213.95 65.6895 Q1211.4 69.8214 1207.59 71.8063 Q1203.79 73.7508 1198.28 73.7508 Q1191.31 73.7508 1187.18 69.8619 Q1183.09 65.9325 1183.09 59.3701 Q1183.09 51.7138 1188.19 47.825 Q1193.33 43.9361 1203.5 43.9361 L1213.95 43.9361 L1213.95 43.2069 Q1213.95 38.0623 1210.55 35.2672 Q1207.19 32.4315 1201.07 32.4315 Q1197.18 32.4315 1193.5 33.3632 Q1189.81 34.295 1186.41 36.1584 L1186.41 29.2718 Q1190.5 27.692 1194.35 26.9223 Q1198.2 26.1121 1201.84 26.1121 Q1211.68 26.1121 1216.55 31.2163 Q1221.41 36.3204 1221.41 46.6907 Z" fill="#000000" fill-rule="nonzero" fill-opacity="1" /><path clip-path="url(#clip190)" d="M1266.62 34.0924 L1266.62 9.54393 L1274.07 9.54393 L1274.07 72.576 L1266.62 72.576 L1266.62 65.7705 Q1264.27 69.8214 1260.66 71.8063 Q1257.1 73.7508 1252.07 73.7508 Q1243.85 73.7508 1238.66 67.1883 Q1233.52 60.6258 1233.52 49.9314 Q1233.52 39.2371 1238.66 32.6746 Q1243.85 26.1121 1252.07 26.1121 Q1257.1 26.1121 1260.66 28.0971 Q1264.27 30.0415 1266.62 34.0924 M1241.22 49.9314 Q1241.22 58.1548 1244.58 62.8538 Q1247.98 67.5124 1253.9 67.5124 Q1259.81 67.5124 1263.21 62.8538 Q1266.62 58.1548 1266.62 49.9314 Q1266.62 41.7081 1263.21 37.0496 Q1259.81 32.3505 1253.9 32.3505 Q1247.98 32.3505 1244.58 37.0496 Q1241.22 41.7081 1241.22 49.9314 Z" fill="#000000" fill-rule="nonzero" fill-opacity="1" /><path clip-path="url(#clip190)" d="M1352.37 14.0809 L1352.37 22.0612 Q1347.71 19.8332 1343.58 18.7395 Q1339.45 17.6457 1335.6 17.6457 Q1328.92 17.6457 1325.27 20.2383 Q1321.67 22.8309 1321.67 27.611 Q1321.67 31.6214 1324.06 33.6873 Q1326.49 35.7128 1333.21 36.9686 L1338.15 37.9813 Q1347.31 39.7232 1351.64 44.1387 Q1356.02 48.5136 1356.02 55.8863 Q1356.02 64.6767 1350.1 69.2137 Q1344.23 73.7508 1332.85 73.7508 Q1328.55 73.7508 1323.69 72.7785 Q1318.87 71.8063 1313.69 69.9024 L1313.69 61.4765 Q1318.67 64.2716 1323.45 65.6895 Q1328.23 67.1073 1332.85 67.1073 Q1339.86 67.1073 1343.66 64.3527 Q1347.47 61.598 1347.47 56.4939 Q1347.47 52.0379 1344.72 49.5264 Q1342 47.0148 1335.76 45.759 L1330.78 44.7868 Q1321.63 42.9639 1317.53 39.075 Q1313.44 35.1862 1313.44 28.2591 Q1313.44 20.2383 1319.07 15.6203 Q1324.75 11.0023 1334.67 11.0023 Q1338.92 11.0023 1343.34 11.7719 Q1347.75 12.5416 1352.37 14.0809 Z" fill="#000000" fill-rule="nonzero" fill-opacity="1" /><path clip-path="url(#clip190)" d="M1406.17 45.1919 L1406.17 72.576 L1398.71 72.576 L1398.71 45.4349 Q1398.71 38.994 1396.2 35.7938 Q1393.69 32.5936 1388.67 32.5936 Q1382.63 32.5936 1379.15 36.4419 Q1375.67 40.2903 1375.67 46.9338 L1375.67 72.576 L1368.17 72.576 L1368.17 9.54393 L1375.67 9.54393 L1375.67 34.2544 Q1378.34 30.163 1381.94 28.1376 Q1385.59 26.1121 1390.33 26.1121 Q1398.15 26.1121 1402.16 30.9732 Q1406.17 35.7938 1406.17 45.1919 Z" fill="#000000" fill-rule="nonzero" fill-opacity="1" /><path clip-path="url(#clip190)" d="M1459.84 48.0275 L1459.84 51.6733 L1425.57 51.6733 Q1426.06 59.3701 1430.19 63.421 Q1434.36 67.4314 1441.78 67.4314 Q1446.07 67.4314 1450.08 66.3781 Q1454.13 65.3249 1458.1 63.2184 L1458.1 70.267 Q1454.09 71.9684 1449.88 72.8596 Q1445.66 73.7508 1441.33 73.7508 Q1430.47 73.7508 1424.11 67.4314 Q1417.79 61.1119 1417.79 50.3365 Q1417.79 39.1965 1423.79 32.6746 Q1429.83 26.1121 1440.03 26.1121 Q1449.19 26.1121 1454.5 32.0264 Q1459.84 37.9003 1459.84 48.0275 M1452.39 45.84 Q1452.31 39.7232 1448.95 36.0774 Q1445.62 32.4315 1440.12 32.4315 Q1433.88 32.4315 1430.11 35.9558 Q1426.38 39.4801 1425.82 45.8805 L1452.39 45.84 Z" fill="#000000" fill-rule="nonzero" fill-opacity="1" /><path clip-path="url(#clip190)" d="M1501.93 34.0924 L1501.93 9.54393 L1509.39 9.54393 L1509.39 72.576 L1501.93 72.576 L1501.93 65.7705 Q1499.58 69.8214 1495.98 71.8063 Q1492.41 73.7508 1487.39 73.7508 Q1479.17 73.7508 1473.98 67.1883 Q1468.84 60.6258 1468.84 49.9314 Q1468.84 39.2371 1473.98 32.6746 Q1479.17 26.1121 1487.39 26.1121 Q1492.41 26.1121 1495.98 28.0971 Q1499.58 30.0415 1501.93 34.0924 M1476.53 49.9314 Q1476.53 58.1548 1479.9 62.8538 Q1483.3 67.5124 1489.21 67.5124 Q1495.13 67.5124 1498.53 62.8538 Q1501.93 58.1548 1501.93 49.9314 Q1501.93 41.7081 1498.53 37.0496 Q1495.13 32.3505 1489.21 32.3505 Q1483.3 32.3505 1479.9 37.0496 Q1476.53 41.7081 1476.53 49.9314 Z" fill="#000000" fill-rule="nonzero" fill-opacity="1" /><path clip-path="url(#clip190)" d="M1554.59 34.0924 L1554.59 9.54393 L1562.05 9.54393 L1562.05 72.576 L1554.59 72.576 L1554.59 65.7705 Q1552.24 69.8214 1548.64 71.8063 Q1545.07 73.7508 1540.05 73.7508 Q1531.83 73.7508 1526.64 67.1883 Q1521.5 60.6258 1521.5 49.9314 Q1521.5 39.2371 1526.64 32.6746 Q1531.83 26.1121 1540.05 26.1121 Q1545.07 26.1121 1548.64 28.0971 Q1552.24 30.0415 1554.59 34.0924 M1529.19 49.9314 Q1529.19 58.1548 1532.56 62.8538 Q1535.96 67.5124 1541.87 67.5124 Q1547.79 67.5124 1551.19 62.8538 Q1554.59 58.1548 1554.59 49.9314 Q1554.59 41.7081 1551.19 37.0496 Q1547.79 32.3505 1541.87 32.3505 Q1535.96 32.3505 1532.56 37.0496 Q1529.19 41.7081 1529.19 49.9314 Z" fill="#000000" fill-rule="nonzero" fill-opacity="1" /><path clip-path="url(#clip190)" d="M1577.4 27.2059 L1584.85 27.2059 L1584.85 72.576 L1577.4 72.576 L1577.4 27.2059 M1577.4 9.54393 L1584.85 9.54393 L1584.85 18.9825 L1577.4 18.9825 L1577.4 9.54393 Z" fill="#000000" fill-rule="nonzero" fill-opacity="1" /><path clip-path="url(#clip190)" d="M1638.16 45.1919 L1638.16 72.576 L1630.71 72.576 L1630.71 45.4349 Q1630.71 38.994 1628.2 35.7938 Q1625.69 32.5936 1620.66 32.5936 Q1614.63 32.5936 1611.14 36.4419 Q1607.66 40.2903 1607.66 46.9338 L1607.66 72.576 L1600.17 72.576 L1600.17 27.2059 L1607.66 27.2059 L1607.66 34.2544 Q1610.33 30.163 1613.94 28.1376 Q1617.59 26.1121 1622.32 26.1121 Q1630.14 26.1121 1634.15 30.9732 Q1638.16 35.7938 1638.16 45.1919 Z" fill="#000000" fill-rule="nonzero" fill-opacity="1" /><path clip-path="url(#clip190)" d="M1682.89 49.3643 Q1682.89 41.2625 1679.52 36.8065 Q1676.2 32.3505 1670.17 32.3505 Q1664.17 32.3505 1660.81 36.8065 Q1657.49 41.2625 1657.49 49.3643 Q1657.49 57.4256 1660.81 61.8816 Q1664.17 66.3376 1670.17 66.3376 Q1676.2 66.3376 1679.52 61.8816 Q1682.89 57.4256 1682.89 49.3643 M1690.34 66.9452 Q1690.34 78.5308 1685.19 84.1616 Q1680.05 89.8329 1669.44 89.8329 Q1665.51 89.8329 1662.02 89.2252 Q1658.54 88.6581 1655.26 87.4428 L1655.26 80.1917 Q1658.54 81.9741 1661.74 82.8248 Q1664.94 83.6755 1668.26 83.6755 Q1675.59 83.6755 1679.24 79.8271 Q1682.89 76.0193 1682.89 68.282 L1682.89 64.5957 Q1680.58 68.6061 1676.97 70.5911 Q1673.37 72.576 1668.34 72.576 Q1660 72.576 1654.89 66.2161 Q1649.79 59.8562 1649.79 49.3643 Q1649.79 38.832 1654.89 32.472 Q1660 26.1121 1668.34 26.1121 Q1673.37 26.1121 1676.97 28.0971 Q1680.58 30.082 1682.89 34.0924 L1682.89 27.2059 L1690.34 27.2059 L1690.34 66.9452 Z" fill="#000000" fill-rule="nonzero" fill-opacity="1" /><path clip-path="url(#clip190)" d="M1761.07 44.2197 Q1763.7 45.1109 1766.17 48.0275 Q1768.68 50.9442 1771.2 56.0483 L1779.5 72.576 L1770.71 72.576 L1762.97 57.061 Q1759.97 50.9847 1757.14 48.9997 Q1754.34 47.0148 1749.48 47.0148 L1740.57 47.0148 L1740.57 72.576 L1732.39 72.576 L1732.39 12.096 L1750.86 12.096 Q1761.23 12.096 1766.33 16.4305 Q1771.44 20.7649 1771.44 29.5149 Q1771.44 35.2267 1768.77 38.994 Q1766.13 42.7613 1761.07 44.2197 M1740.57 18.8205 L1740.57 40.2903 L1750.86 40.2903 Q1756.77 40.2903 1759.77 37.5762 Q1762.81 34.8216 1762.81 29.5149 Q1762.81 24.2082 1759.77 21.5346 Q1756.77 18.8205 1750.86 18.8205 L1740.57 18.8205 Z" fill="#000000" fill-rule="nonzero" fill-opacity="1" /><path clip-path="url(#clip190)" d="M1824.79 48.0275 L1824.79 51.6733 L1790.52 51.6733 Q1791 59.3701 1795.14 63.421 Q1799.31 67.4314 1806.72 67.4314 Q1811.02 67.4314 1815.03 66.3781 Q1819.08 65.3249 1823.05 63.2184 L1823.05 70.267 Q1819.04 71.9684 1814.82 72.8596 Q1810.61 73.7508 1806.28 73.7508 Q1795.42 73.7508 1789.06 67.4314 Q1782.74 61.1119 1782.74 50.3365 Q1782.74 39.1965 1788.74 32.6746 Q1794.77 26.1121 1804.98 26.1121 Q1814.14 26.1121 1819.44 32.0264 Q1824.79 37.9003 1824.79 48.0275 M1817.34 45.84 Q1817.25 39.7232 1813.89 36.0774 Q1810.57 32.4315 1805.06 32.4315 Q1798.82 32.4315 1795.06 35.9558 Q1791.33 39.4801 1790.76 45.8805 L1817.34 45.84 Z" fill="#000000" fill-rule="nonzero" fill-opacity="1" /><path clip-path="url(#clip190)" d="M1865.95 28.5427 L1865.95 35.5912 Q1862.79 33.9709 1859.38 33.1607 Q1855.98 32.3505 1852.34 32.3505 Q1846.79 32.3505 1843.99 34.0519 Q1841.24 35.7533 1841.24 39.156 Q1841.24 41.7486 1843.22 43.2475 Q1845.21 44.7058 1851.2 46.0426 L1853.75 46.6097 Q1861.69 48.3111 1865.01 51.4303 Q1868.38 54.509 1868.38 60.0587 Q1868.38 66.3781 1863.35 70.0644 Q1858.37 73.7508 1849.62 73.7508 Q1845.98 73.7508 1842.01 73.0216 Q1838.08 72.3329 1833.7 70.9151 L1833.7 63.2184 Q1837.83 65.3654 1841.84 66.4591 Q1845.85 67.5124 1849.78 67.5124 Q1855.05 67.5124 1857.88 65.73 Q1860.72 63.9071 1860.72 60.6258 Q1860.72 57.5877 1858.65 55.9673 Q1856.63 54.3469 1849.7 52.8481 L1847.11 52.2405 Q1840.18 50.7821 1837.1 47.7845 Q1834.03 44.7463 1834.03 39.4801 Q1834.03 33.0797 1838.56 29.5959 Q1843.1 26.1121 1851.44 26.1121 Q1855.58 26.1121 1859.22 26.7198 Q1862.87 27.3274 1865.95 28.5427 Z" fill="#000000" fill-rule="nonzero" fill-opacity="1" /><path clip-path="url(#clip190)" d="M1879.48 54.671 L1879.48 27.2059 L1886.93 27.2059 L1886.93 54.3874 Q1886.93 60.8284 1889.44 64.0691 Q1891.95 67.2693 1896.98 67.2693 Q1903.01 67.2693 1906.5 63.421 Q1910.02 59.5726 1910.02 52.9291 L1910.02 27.2059 L1917.47 27.2059 L1917.47 72.576 L1910.02 72.576 L1910.02 65.6084 Q1907.31 69.7404 1903.7 71.7658 Q1900.14 73.7508 1895.4 73.7508 Q1887.58 73.7508 1883.53 68.8897 Q1879.48 64.0286 1879.48 54.671 M1898.23 26.1121 L1898.23 26.1121 Z" fill="#000000" fill-rule="nonzero" fill-opacity="1" /><path clip-path="url(#clip190)" d="M1932.83 9.54393 L1940.28 9.54393 L1940.28 72.576 L1932.83 72.576 L1932.83 9.54393 Z" fill="#000000" fill-rule="nonzero" fill-opacity="1" /><path clip-path="url(#clip190)" d="M1963.25 14.324 L1963.25 27.2059 L1978.6 27.2059 L1978.6 32.9987 L1963.25 32.9987 L1963.25 57.6282 Q1963.25 63.1779 1964.75 64.7578 Q1966.29 66.3376 1970.95 66.3376 L1978.6 66.3376 L1978.6 72.576 L1970.95 72.576 Q1962.32 72.576 1959.04 69.3758 Q1955.75 66.1351 1955.75 57.6282 L1955.75 32.9987 L1950.29 32.9987 L1950.29 27.2059 L1955.75 27.2059 L1955.75 14.324 L1963.25 14.324 Z" fill="#000000" fill-rule="nonzero" fill-opacity="1" /><path clip-path="url(#clip190)" d="M2017.33 28.5427 L2017.33 35.5912 Q2014.17 33.9709 2010.77 33.1607 Q2007.36 32.3505 2003.72 32.3505 Q1998.17 32.3505 1995.37 34.0519 Q1992.62 35.7533 1992.62 39.156 Q1992.62 41.7486 1994.6 43.2475 Q1996.59 44.7058 2002.58 46.0426 L2005.14 46.6097 Q2013.08 48.3111 2016.4 51.4303 Q2019.76 54.509 2019.76 60.0587 Q2019.76 66.3781 2014.74 70.0644 Q2009.75 73.7508 2001 73.7508 Q1997.36 73.7508 1993.39 73.0216 Q1989.46 72.3329 1985.08 70.9151 L1985.08 63.2184 Q1989.22 65.3654 1993.23 66.4591 Q1997.24 67.5124 2001.17 67.5124 Q2006.43 67.5124 2009.27 65.73 Q2012.1 63.9071 2012.1 60.6258 Q2012.1 57.5877 2010.04 55.9673 Q2008.01 54.3469 2001.08 52.8481 L1998.49 52.2405 Q1991.56 50.7821 1988.49 47.7845 Q1985.41 44.7463 1985.41 39.4801 Q1985.41 33.0797 1989.94 29.5959 Q1994.48 26.1121 2002.83 26.1121 Q2006.96 26.1121 2010.6 26.7198 Q2014.25 27.3274 2017.33 28.5427 Z" fill="#000000" fill-rule="nonzero" fill-opacity="1" /><path clip-path="url(#clip192)" d="M379.157 383.414 L379.157 1423.18 L808.094 1423.18 L808.094 383.414 L379.157 383.414 L379.157 383.414  Z" fill="#d3d3d3" fill-rule="evenodd" fill-opacity="0.5"/>
<polyline clip-path="url(#clip192)" style="stroke:#000000; stroke-linecap:round; stroke-linejoin:round; stroke-width:4; stroke-opacity:0.5; fill:none" points="379.157,383.414 379.157,1423.18 808.094,1423.18 808.094,383.414 379.157,383.414 "/>
<path clip-path="url(#clip192)" d="M1094.05 123.472 L1094.05 1423.18 L1522.99 1423.18 L1522.99 123.472 L1094.05 123.472 L1094.05 123.472  Z" fill="#d3d3d3" fill-rule="evenodd" fill-opacity="0.5"/>
<polyline clip-path="url(#clip192)" style="stroke:#000000; stroke-linecap:round; stroke-linejoin:round; stroke-width:4; stroke-opacity:0.5; fill:none" points="1094.05,123.472 1094.05,1423.18 1522.99,1423.18 1522.99,123.472 1094.05,123.472 "/>
<path clip-path="url(#clip192)" d="M1808.95 253.443 L1808.95 1423.18 L2237.89 1423.18 L2237.89 253.443 L1808.95 253.443 L1808.95 253.443  Z" fill="#d3d3d3" fill-rule="evenodd" fill-opacity="0.5"/>
<polyline clip-path="url(#clip192)" style="stroke:#000000; stroke-linecap:round; stroke-linejoin:round; stroke-width:4; stroke-opacity:0.5; fill:none" points="1808.95,253.443 1808.95,1423.18 2237.89,1423.18 2237.89,253.443 1808.95,253.443 "/>
<circle clip-path="url(#clip192)" style="fill:#d3d3d3; stroke:none; fill-opacity:0" cx="593.626" cy="383.414" r="2"/>
<circle clip-path="url(#clip192)" style="fill:#d3d3d3; stroke:none; fill-opacity:0" cx="1308.52" cy="123.472" r="2"/>
<circle clip-path="url(#clip192)" style="fill:#d3d3d3; stroke:none; fill-opacity:0" cx="2023.42" cy="253.443" r="2"/>
<path clip-path="url(#clip192)" d="M450.646 383.414 L450.646 1423.18 L736.605 1423.18 L736.605 383.414 L450.646 383.414 L450.646 383.414  Z" fill="#008000" fill-rule="evenodd" fill-opacity="1"/>
<polyline clip-path="url(#clip192)" style="stroke:#000000; stroke-linecap:round; stroke-linejoin:round; stroke-width:4; stroke-opacity:1; fill:none" points="450.646,383.414 450.646,1423.18 736.605,1423.18 736.605,383.414 450.646,383.414 "/>
<path clip-path="url(#clip192)" d="M1165.54 253.443 L1165.54 1423.18 L1451.5 1423.18 L1451.5 253.443 L1165.54 253.443 L1165.54 253.443  Z" fill="#008000" fill-rule="evenodd" fill-opacity="1"/>
<polyline clip-path="url(#clip192)" style="stroke:#000000; stroke-linecap:round; stroke-linejoin:round; stroke-width:4; stroke-opacity:1; fill:none" points="1165.54,253.443 1165.54,1423.18 1451.5,1423.18 1451.5,253.443 1165.54,253.443 "/>
<path clip-path="url(#clip192)" d="M1880.44 253.443 L1880.44 1423.18 L2166.4 1423.18 L2166.4 253.443 L1880.44 253.443 L1880.44 253.443  Z" fill="#008000" fill-rule="evenodd" fill-opacity="1"/>
<polyline clip-path="url(#clip192)" style="stroke:#000000; stroke-linecap:round; stroke-linejoin:round; stroke-width:4; stroke-opacity:1; fill:none" points="1880.44,253.443 1880.44,1423.18 2166.4,1423.18 2166.4,253.443 1880.44,253.443 "/>
<circle clip-path="url(#clip192)" style="fill:#008000; stroke:none; fill-opacity:0" cx="593.626" cy="383.414" r="2"/>
<circle clip-path="url(#clip192)" style="fill:#008000; stroke:none; fill-opacity:0" cx="1308.52" cy="253.443" r="2"/>
<circle clip-path="url(#clip192)" style="fill:#008000; stroke:none; fill-opacity:0" cx="2023.42" cy="253.443" r="2"/>
<path clip-path="url(#clip190)" d="M1547.93 322.316 L2283.14 322.316 L2283.14 166.796 L1547.93 166.796  Z" fill="#ffffff" fill-rule="evenodd" fill-opacity="1"/>
<polyline clip-path="url(#clip190)" style="stroke:#000000; stroke-linecap:round; stroke-linejoin:round; stroke-width:4; stroke-opacity:1; fill:none" points="1547.93,322.316 2283.14,322.316 2283.14,166.796 1547.93,166.796 1547.93,322.316 "/>
<path clip-path="url(#clip190)" d="M1571.14 239.372 L1710.37 239.372 L1710.37 197.9 L1571.14 197.9 L1571.14 239.372  Z" fill="#d3d3d3" fill-rule="evenodd" fill-opacity="0.5"/>
<polyline clip-path="url(#clip190)" style="stroke:#000000; stroke-linecap:round; stroke-linejoin:round; stroke-width:4; stroke-opacity:1; fill:none" points="1571.14,239.372 1710.37,239.372 1710.37,197.9 1571.14,197.9 1571.14,239.372 "/>
<path clip-path="url(#clip190)" d="M1733.57 201.356 L1762.81 201.356 L1762.81 205.291 L1750.54 205.291 L1750.54 235.916 L1745.84 235.916 L1745.84 205.291 L1733.57 205.291 L1733.57 201.356 Z" fill="#000000" fill-rule="nonzero" fill-opacity="1" /><path clip-path="url(#clip190)" d="M1769.13 212.976 Q1765.7 212.976 1763.71 215.661 Q1761.72 218.323 1761.72 222.976 Q1761.72 227.629 1763.69 230.314 Q1765.68 232.976 1769.13 232.976 Q1772.53 232.976 1774.52 230.291 Q1776.51 227.606 1776.51 222.976 Q1776.51 218.37 1774.52 215.684 Q1772.53 212.976 1769.13 212.976 M1769.13 209.365 Q1774.68 209.365 1777.85 212.976 Q1781.03 216.587 1781.03 222.976 Q1781.03 229.342 1777.85 232.976 Q1774.68 236.587 1769.13 236.587 Q1763.55 236.587 1760.38 232.976 Q1757.23 229.342 1757.23 222.976 Q1757.23 216.587 1760.38 212.976 Q1763.55 209.365 1769.13 209.365 Z" fill="#000000" fill-rule="nonzero" fill-opacity="1" /><path clip-path="url(#clip190)" d="M1792.3 202.629 L1792.3 209.99 L1801.07 209.99 L1801.07 213.3 L1792.3 213.3 L1792.3 227.374 Q1792.3 230.545 1793.16 231.448 Q1794.03 232.351 1796.7 232.351 L1801.07 232.351 L1801.07 235.916 L1796.7 235.916 Q1791.77 235.916 1789.89 234.087 Q1788.02 232.235 1788.02 227.374 L1788.02 213.3 L1784.89 213.3 L1784.89 209.99 L1788.02 209.99 L1788.02 202.629 L1792.3 202.629 Z" fill="#000000" fill-rule="nonzero" fill-opacity="1" /><path clip-path="url(#clip190)" d="M1818.46 222.883 Q1813.29 222.883 1811.3 224.064 Q1809.31 225.244 1809.31 228.092 Q1809.31 230.36 1810.79 231.703 Q1812.3 233.022 1814.87 233.022 Q1818.41 233.022 1820.54 230.522 Q1822.69 227.999 1822.69 223.832 L1822.69 222.883 L1818.46 222.883 M1826.95 221.124 L1826.95 235.916 L1822.69 235.916 L1822.69 231.981 Q1821.23 234.342 1819.06 235.476 Q1816.88 236.587 1813.73 236.587 Q1809.75 236.587 1807.39 234.365 Q1805.05 232.119 1805.05 228.369 Q1805.05 223.994 1807.97 221.772 Q1810.91 219.55 1816.72 219.55 L1822.69 219.55 L1822.69 219.133 Q1822.69 216.194 1820.75 214.596 Q1818.83 212.976 1815.33 212.976 Q1813.11 212.976 1811 213.508 Q1808.9 214.041 1806.95 215.106 L1806.95 211.17 Q1809.29 210.268 1811.49 209.828 Q1813.69 209.365 1815.77 209.365 Q1821.4 209.365 1824.17 212.282 Q1826.95 215.198 1826.95 221.124 Z" fill="#000000" fill-rule="nonzero" fill-opacity="1" /><path clip-path="url(#clip190)" d="M1835.72 199.897 L1839.98 199.897 L1839.98 235.916 L1835.72 235.916 L1835.72 199.897 Z" fill="#000000" fill-rule="nonzero" fill-opacity="1" /><path clip-path="url(#clip190)" d="M1864.15 201.356 L1868.83 201.356 L1868.83 231.981 L1885.65 231.981 L1885.65 235.916 L1864.15 235.916 L1864.15 201.356 Z" fill="#000000" fill-rule="nonzero" fill-opacity="1" /><path clip-path="url(#clip190)" d="M1899.59 212.976 Q1896.16 212.976 1894.17 215.661 Q1892.18 218.323 1892.18 222.976 Q1892.18 227.629 1894.15 230.314 Q1896.14 232.976 1899.59 232.976 Q1902.99 232.976 1904.98 230.291 Q1906.97 227.606 1906.97 222.976 Q1906.97 218.37 1904.98 215.684 Q1902.99 212.976 1899.59 212.976 M1899.59 209.365 Q1905.15 209.365 1908.32 212.976 Q1911.49 216.587 1911.49 222.976 Q1911.49 229.342 1908.32 232.976 Q1905.15 236.587 1899.59 236.587 Q1894.01 236.587 1890.84 232.976 Q1887.69 229.342 1887.69 222.976 Q1887.69 216.587 1890.84 212.976 Q1894.01 209.365 1899.59 209.365 Z" fill="#000000" fill-rule="nonzero" fill-opacity="1" /><path clip-path="url(#clip190)" d="M1930.33 222.883 Q1925.17 222.883 1923.18 224.064 Q1921.19 225.244 1921.19 228.092 Q1921.19 230.36 1922.67 231.703 Q1924.17 233.022 1926.74 233.022 Q1930.28 233.022 1932.41 230.522 Q1934.57 227.999 1934.57 223.832 L1934.57 222.883 L1930.33 222.883 M1938.83 221.124 L1938.83 235.916 L1934.57 235.916 L1934.57 231.981 Q1933.11 234.342 1930.93 235.476 Q1928.76 236.587 1925.61 236.587 Q1921.63 236.587 1919.27 234.365 Q1916.93 232.119 1916.93 228.369 Q1916.93 223.994 1919.84 221.772 Q1922.78 219.55 1928.59 219.55 L1934.57 219.55 L1934.57 219.133 Q1934.57 216.194 1932.62 214.596 Q1930.7 212.976 1927.21 212.976 Q1924.98 212.976 1922.88 213.508 Q1920.77 214.041 1918.83 215.106 L1918.83 211.17 Q1921.16 210.268 1923.36 209.828 Q1925.56 209.365 1927.65 209.365 Q1933.27 209.365 1936.05 212.282 Q1938.83 215.198 1938.83 221.124 Z" fill="#000000" fill-rule="nonzero" fill-opacity="1" /><path clip-path="url(#clip190)" d="M1964.66 213.925 L1964.66 199.897 L1968.92 199.897 L1968.92 235.916 L1964.66 235.916 L1964.66 232.027 Q1963.32 234.342 1961.26 235.476 Q1959.22 236.587 1956.35 236.587 Q1951.65 236.587 1948.69 232.837 Q1945.75 229.087 1945.75 222.976 Q1945.75 216.865 1948.69 213.115 Q1951.65 209.365 1956.35 209.365 Q1959.22 209.365 1961.26 210.499 Q1963.32 211.61 1964.66 213.925 M1950.15 222.976 Q1950.15 227.675 1952.07 230.36 Q1954.01 233.022 1957.39 233.022 Q1960.77 233.022 1962.71 230.36 Q1964.66 227.675 1964.66 222.976 Q1964.66 218.277 1962.71 215.615 Q1960.77 212.93 1957.39 212.93 Q1954.01 212.93 1952.07 215.615 Q1950.15 218.277 1950.15 222.976 Z" fill="#000000" fill-rule="nonzero" fill-opacity="1" /><path clip-path="url(#clip190)" d="M2002.99 199.944 Q1999.89 205.268 1998.39 210.476 Q1996.88 215.684 1996.88 221.032 Q1996.88 226.379 1998.39 231.633 Q1999.91 236.865 2002.99 242.166 L1999.29 242.166 Q1995.82 236.726 1994.08 231.471 Q1992.37 226.217 1992.37 221.032 Q1992.37 215.87 1994.08 210.638 Q1995.79 205.407 1999.29 199.944 L2002.99 199.944 Z" fill="#000000" fill-rule="nonzero" fill-opacity="1" /><path clip-path="url(#clip190)" d="M2027.83 219.712 Q2029.33 220.221 2030.75 221.888 Q2032.18 223.555 2033.62 226.471 L2038.36 235.916 L2033.34 235.916 L2028.92 227.05 Q2027.2 223.578 2025.58 222.444 Q2023.99 221.309 2021.21 221.309 L2016.12 221.309 L2016.12 235.916 L2011.44 235.916 L2011.44 201.356 L2022 201.356 Q2027.92 201.356 2030.84 203.833 Q2033.76 206.309 2033.76 211.309 Q2033.76 214.573 2032.23 216.726 Q2030.72 218.879 2027.83 219.712 M2016.12 205.198 L2016.12 217.467 L2022 217.467 Q2025.38 217.467 2027.09 215.916 Q2028.83 214.342 2028.83 211.309 Q2028.83 208.277 2027.09 206.749 Q2025.38 205.198 2022 205.198 L2016.12 205.198 Z" fill="#000000" fill-rule="nonzero" fill-opacity="1" /><path clip-path="url(#clip190)" d="M2064.24 221.888 L2064.24 223.971 L2044.66 223.971 Q2044.94 228.369 2047.3 230.684 Q2049.68 232.976 2053.92 232.976 Q2056.37 232.976 2058.66 232.374 Q2060.98 231.772 2063.25 230.569 L2063.25 234.596 Q2060.95 235.568 2058.55 236.078 Q2056.14 236.587 2053.66 236.587 Q2047.46 236.587 2043.83 232.976 Q2040.21 229.365 2040.21 223.207 Q2040.21 216.842 2043.64 213.115 Q2047.09 209.365 2052.92 209.365 Q2058.15 209.365 2061.19 212.745 Q2064.24 216.101 2064.24 221.888 M2059.98 220.638 Q2059.94 217.143 2058.01 215.059 Q2056.12 212.976 2052.97 212.976 Q2049.4 212.976 2047.25 214.99 Q2045.12 217.004 2044.8 220.661 L2059.98 220.638 Z" fill="#000000" fill-rule="nonzero" fill-opacity="1" /><path clip-path="url(#clip190)" d="M2084.36 199.897 L2084.36 203.439 L2080.28 203.439 Q2077.99 203.439 2077.09 204.365 Q2076.21 205.291 2076.21 207.698 L2076.21 209.99 L2083.22 209.99 L2083.22 213.3 L2076.21 213.3 L2076.21 235.916 L2071.93 235.916 L2071.93 213.3 L2067.85 213.3 L2067.85 209.99 L2071.93 209.99 L2071.93 208.184 Q2071.93 203.856 2073.94 201.888 Q2075.95 199.897 2080.33 199.897 L2084.36 199.897 Z" fill="#000000" fill-rule="nonzero" fill-opacity="1" /><path clip-path="url(#clip190)" d="M2110.1 221.888 L2110.1 223.971 L2090.51 223.971 Q2090.79 228.369 2093.15 230.684 Q2095.54 232.976 2099.77 232.976 Q2102.23 232.976 2104.52 232.374 Q2106.83 231.772 2109.1 230.569 L2109.1 234.596 Q2106.81 235.568 2104.4 236.078 Q2102 236.587 2099.52 236.587 Q2093.32 236.587 2089.68 232.976 Q2086.07 229.365 2086.07 223.207 Q2086.07 216.842 2089.5 213.115 Q2092.95 209.365 2098.78 209.365 Q2104.01 209.365 2107.04 212.745 Q2110.1 216.101 2110.1 221.888 M2105.84 220.638 Q2105.79 217.143 2103.87 215.059 Q2101.97 212.976 2098.82 212.976 Q2095.26 212.976 2093.11 214.99 Q2090.98 217.004 2090.65 220.661 L2105.84 220.638 Z" fill="#000000" fill-rule="nonzero" fill-opacity="1" /><path clip-path="url(#clip190)" d="M2132.11 213.971 Q2131.39 213.555 2130.54 213.37 Q2129.7 213.161 2128.69 213.161 Q2125.07 213.161 2123.13 215.522 Q2121.21 217.86 2121.21 222.258 L2121.21 235.916 L2116.93 235.916 L2116.93 209.99 L2121.21 209.99 L2121.21 214.018 Q2122.55 211.657 2124.7 210.522 Q2126.86 209.365 2129.94 209.365 Q2130.38 209.365 2130.91 209.434 Q2131.44 209.481 2132.09 209.596 L2132.11 213.971 Z" fill="#000000" fill-rule="nonzero" fill-opacity="1" /><path clip-path="url(#clip190)" d="M2157.71 221.888 L2157.71 223.971 L2138.13 223.971 Q2138.41 228.369 2140.77 230.684 Q2143.15 232.976 2147.39 232.976 Q2149.84 232.976 2152.13 232.374 Q2154.45 231.772 2156.72 230.569 L2156.72 234.596 Q2154.43 235.568 2152.02 236.078 Q2149.61 236.587 2147.13 236.587 Q2140.93 236.587 2137.3 232.976 Q2133.69 229.365 2133.69 223.207 Q2133.69 216.842 2137.11 213.115 Q2140.56 209.365 2146.39 209.365 Q2151.63 209.365 2154.66 212.745 Q2157.71 216.101 2157.71 221.888 M2153.45 220.638 Q2153.41 217.143 2151.49 215.059 Q2149.59 212.976 2146.44 212.976 Q2142.88 212.976 2140.72 214.99 Q2138.59 217.004 2138.27 220.661 L2153.45 220.638 Z" fill="#000000" fill-rule="nonzero" fill-opacity="1" /><path clip-path="url(#clip190)" d="M2186.25 220.268 L2186.25 235.916 L2182 235.916 L2182 220.407 Q2182 216.726 2180.56 214.897 Q2179.13 213.069 2176.25 213.069 Q2172.81 213.069 2170.82 215.268 Q2168.82 217.467 2168.82 221.263 L2168.82 235.916 L2164.54 235.916 L2164.54 209.99 L2168.82 209.99 L2168.82 214.018 Q2170.35 211.68 2172.41 210.522 Q2174.5 209.365 2177.2 209.365 Q2181.67 209.365 2183.96 212.143 Q2186.25 214.897 2186.25 220.268 Z" fill="#000000" fill-rule="nonzero" fill-opacity="1" /><path clip-path="url(#clip190)" d="M2213.41 210.985 L2213.41 214.967 Q2211.6 213.971 2209.77 213.485 Q2207.97 212.976 2206.12 212.976 Q2201.97 212.976 2199.68 215.615 Q2197.39 218.231 2197.39 222.976 Q2197.39 227.721 2199.68 230.36 Q2201.97 232.976 2206.12 232.976 Q2207.97 232.976 2209.77 232.49 Q2211.6 231.981 2213.41 230.985 L2213.41 234.92 Q2211.63 235.754 2209.7 236.17 Q2207.81 236.587 2205.65 236.587 Q2199.8 236.587 2196.35 232.906 Q2192.9 229.226 2192.9 222.976 Q2192.9 216.633 2196.37 212.999 Q2199.87 209.365 2205.93 209.365 Q2207.9 209.365 2209.77 209.782 Q2211.65 210.175 2213.41 210.985 Z" fill="#000000" fill-rule="nonzero" fill-opacity="1" /><path clip-path="url(#clip190)" d="M2242.99 221.888 L2242.99 223.971 L2223.41 223.971 Q2223.69 228.369 2226.05 230.684 Q2228.43 232.976 2232.67 232.976 Q2235.12 232.976 2237.41 232.374 Q2239.73 231.772 2242 230.569 L2242 234.596 Q2239.7 235.568 2237.3 236.078 Q2234.89 236.587 2232.41 236.587 Q2226.21 236.587 2222.57 232.976 Q2218.96 229.365 2218.96 223.207 Q2218.96 216.842 2222.39 213.115 Q2225.84 209.365 2231.67 209.365 Q2236.9 209.365 2239.94 212.745 Q2242.99 216.101 2242.99 221.888 M2238.73 220.638 Q2238.69 217.143 2236.76 215.059 Q2234.87 212.976 2231.72 212.976 Q2228.15 212.976 2226 214.99 Q2223.87 217.004 2223.55 220.661 L2238.73 220.638 Z" fill="#000000" fill-rule="nonzero" fill-opacity="1" /><path clip-path="url(#clip190)" d="M2249.31 199.944 L2253.01 199.944 Q2256.49 205.407 2258.2 210.638 Q2259.94 215.87 2259.94 221.032 Q2259.94 226.217 2258.2 231.471 Q2256.49 236.726 2253.01 242.166 L2249.31 242.166 Q2252.39 236.865 2253.89 231.633 Q2255.42 226.379 2255.42 221.032 Q2255.42 215.684 2253.89 210.476 Q2252.39 205.268 2249.31 199.944 Z" fill="#000000" fill-rule="nonzero" fill-opacity="1" /><path clip-path="url(#clip190)" d="M1571.14 291.212 L1710.37 291.212 L1710.37 249.74 L1571.14 249.74 L1571.14 291.212  Z" fill="#008000" fill-rule="evenodd" fill-opacity="1"/>
<polyline clip-path="url(#clip190)" style="stroke:#000000; stroke-linecap:round; stroke-linejoin:round; stroke-width:4; stroke-opacity:1; fill:none" points="1571.14,291.212 1710.37,291.212 1710.37,249.74 1571.14,249.74 1571.14,291.212 "/>
<path clip-path="url(#clip190)" d="M1733.57 253.196 L1738.25 253.196 L1738.25 283.821 L1755.08 283.821 L1755.08 287.756 L1733.57 287.756 L1733.57 253.196 Z" fill="#000000" fill-rule="nonzero" fill-opacity="1" /><path clip-path="url(#clip190)" d="M1769.01 264.816 Q1765.59 264.816 1763.6 267.501 Q1761.6 270.163 1761.6 274.816 Q1761.6 279.469 1763.57 282.154 Q1765.56 284.816 1769.01 284.816 Q1772.41 284.816 1774.41 282.131 Q1776.4 279.446 1776.4 274.816 Q1776.4 270.21 1774.41 267.524 Q1772.41 264.816 1769.01 264.816 M1769.01 261.205 Q1774.57 261.205 1777.74 264.816 Q1780.91 268.427 1780.91 274.816 Q1780.91 281.182 1777.74 284.816 Q1774.57 288.427 1769.01 288.427 Q1763.43 288.427 1760.26 284.816 Q1757.11 281.182 1757.11 274.816 Q1757.11 268.427 1760.26 264.816 Q1763.43 261.205 1769.01 261.205 Z" fill="#000000" fill-rule="nonzero" fill-opacity="1" /><path clip-path="url(#clip190)" d="M1799.75 274.723 Q1794.59 274.723 1792.6 275.904 Q1790.61 277.084 1790.61 279.932 Q1790.61 282.2 1792.09 283.543 Q1793.59 284.862 1796.16 284.862 Q1799.71 284.862 1801.84 282.362 Q1803.99 279.839 1803.99 275.672 L1803.99 274.723 L1799.75 274.723 M1808.25 272.964 L1808.25 287.756 L1803.99 287.756 L1803.99 283.821 Q1802.53 286.182 1800.35 287.316 Q1798.18 288.427 1795.03 288.427 Q1791.05 288.427 1788.69 286.205 Q1786.35 283.959 1786.35 280.209 Q1786.35 275.834 1789.27 273.612 Q1792.21 271.39 1798.02 271.39 L1803.99 271.39 L1803.99 270.973 Q1803.99 268.034 1802.04 266.436 Q1800.12 264.816 1796.63 264.816 Q1794.41 264.816 1792.3 265.348 Q1790.19 265.881 1788.25 266.946 L1788.25 263.01 Q1790.59 262.108 1792.78 261.668 Q1794.98 261.205 1797.07 261.205 Q1802.69 261.205 1805.47 264.122 Q1808.25 267.038 1808.25 272.964 Z" fill="#000000" fill-rule="nonzero" fill-opacity="1" /><path clip-path="url(#clip190)" d="M1834.08 265.765 L1834.08 251.737 L1838.34 251.737 L1838.34 287.756 L1834.08 287.756 L1834.08 283.867 Q1832.74 286.182 1830.68 287.316 Q1828.64 288.427 1825.77 288.427 Q1821.07 288.427 1818.11 284.677 Q1815.17 280.927 1815.17 274.816 Q1815.17 268.705 1818.11 264.955 Q1821.07 261.205 1825.77 261.205 Q1828.64 261.205 1830.68 262.339 Q1832.74 263.45 1834.08 265.765 M1819.57 274.816 Q1819.57 279.515 1821.49 282.2 Q1823.43 284.862 1826.81 284.862 Q1830.19 284.862 1832.14 282.2 Q1834.08 279.515 1834.08 274.816 Q1834.08 270.117 1832.14 267.455 Q1830.19 264.77 1826.81 264.77 Q1823.43 264.77 1821.49 267.455 Q1819.57 270.117 1819.57 274.816 Z" fill="#000000" fill-rule="nonzero" fill-opacity="1" /><path clip-path="url(#clip190)" d="M1883.09 254.33 L1883.09 258.89 Q1880.42 257.617 1878.06 256.992 Q1875.7 256.367 1873.5 256.367 Q1869.68 256.367 1867.6 257.848 Q1865.54 259.33 1865.54 262.061 Q1865.54 264.353 1866.9 265.534 Q1868.29 266.691 1872.14 267.409 L1874.96 267.987 Q1880.19 268.983 1882.67 271.506 Q1885.17 274.006 1885.17 278.219 Q1885.17 283.242 1881.79 285.834 Q1878.43 288.427 1871.93 288.427 Q1869.47 288.427 1866.7 287.871 Q1863.94 287.316 1860.98 286.228 L1860.98 281.413 Q1863.83 283.01 1866.56 283.821 Q1869.29 284.631 1871.93 284.631 Q1875.93 284.631 1878.11 283.057 Q1880.28 281.483 1880.28 278.566 Q1880.28 276.02 1878.71 274.584 Q1877.16 273.149 1873.59 272.432 L1870.75 271.876 Q1865.52 270.835 1863.18 268.612 Q1860.84 266.39 1860.84 262.432 Q1860.84 257.848 1864.06 255.21 Q1867.3 252.571 1872.97 252.571 Q1875.4 252.571 1877.92 253.011 Q1880.45 253.45 1883.09 254.33 Z" fill="#000000" fill-rule="nonzero" fill-opacity="1" /><path clip-path="url(#clip190)" d="M1914.45 273.728 L1914.45 275.811 L1894.87 275.811 Q1895.15 280.209 1897.51 282.524 Q1899.89 284.816 1904.13 284.816 Q1906.58 284.816 1908.87 284.214 Q1911.19 283.612 1913.46 282.409 L1913.46 286.436 Q1911.16 287.408 1908.76 287.918 Q1906.35 288.427 1903.87 288.427 Q1897.67 288.427 1894.03 284.816 Q1890.42 281.205 1890.42 275.047 Q1890.42 268.682 1893.85 264.955 Q1897.3 261.205 1903.13 261.205 Q1908.36 261.205 1911.4 264.585 Q1914.45 267.941 1914.45 273.728 M1910.19 272.478 Q1910.15 268.983 1908.22 266.899 Q1906.33 264.816 1903.18 264.816 Q1899.61 264.816 1897.46 266.83 Q1895.33 268.844 1895.01 272.501 L1910.19 272.478 Z" fill="#000000" fill-rule="nonzero" fill-opacity="1" /><path clip-path="url(#clip190)" d="M1936.46 265.811 Q1935.75 265.395 1934.89 265.21 Q1934.06 265.001 1933.04 265.001 Q1929.43 265.001 1927.48 267.362 Q1925.56 269.7 1925.56 274.098 L1925.56 287.756 L1921.28 287.756 L1921.28 261.83 L1925.56 261.83 L1925.56 265.858 Q1926.9 263.497 1929.06 262.362 Q1931.21 261.205 1934.29 261.205 Q1934.73 261.205 1935.26 261.274 Q1935.79 261.321 1936.44 261.436 L1936.46 265.811 Z" fill="#000000" fill-rule="nonzero" fill-opacity="1" /><path clip-path="url(#clip190)" d="M1937.88 261.83 L1942.39 261.83 L1950.49 283.589 L1958.59 261.83 L1963.11 261.83 L1953.39 287.756 L1947.6 287.756 L1937.88 261.83 Z" fill="#000000" fill-rule="nonzero" fill-opacity="1" /><path clip-path="url(#clip190)" d="M1991.16 273.728 L1991.16 275.811 L1971.58 275.811 Q1971.86 280.209 1974.22 282.524 Q1976.6 284.816 1980.84 284.816 Q1983.29 284.816 1985.58 284.214 Q1987.9 283.612 1990.17 282.409 L1990.17 286.436 Q1987.88 287.408 1985.47 287.918 Q1983.06 288.427 1980.58 288.427 Q1974.38 288.427 1970.75 284.816 Q1967.14 281.205 1967.14 275.047 Q1967.14 268.682 1970.56 264.955 Q1974.01 261.205 1979.84 261.205 Q1985.08 261.205 1988.11 264.585 Q1991.16 267.941 1991.16 273.728 M1986.9 272.478 Q1986.86 268.983 1984.94 266.899 Q1983.04 264.816 1979.89 264.816 Q1976.33 264.816 1974.17 266.83 Q1972.04 268.844 1971.72 272.501 L1986.9 272.478 Z" fill="#000000" fill-rule="nonzero" fill-opacity="1" /><path clip-path="url(#clip190)" d="M2015.21 265.765 L2015.21 251.737 L2019.47 251.737 L2019.47 287.756 L2015.21 287.756 L2015.21 283.867 Q2013.87 286.182 2011.81 287.316 Q2009.77 288.427 2006.9 288.427 Q2002.2 288.427 1999.24 284.677 Q1996.3 280.927 1996.3 274.816 Q1996.3 268.705 1999.24 264.955 Q2002.2 261.205 2006.9 261.205 Q2009.77 261.205 2011.81 262.339 Q2013.87 263.45 2015.21 265.765 M2000.7 274.816 Q2000.7 279.515 2002.62 282.2 Q2004.57 284.862 2007.95 284.862 Q2011.33 284.862 2013.27 282.2 Q2015.21 279.515 2015.21 274.816 Q2015.21 270.117 2013.27 267.455 Q2011.33 264.77 2007.95 264.77 Q2004.57 264.77 2002.62 267.455 Q2000.7 270.117 2000.7 274.816 Z" fill="#000000" fill-rule="nonzero" fill-opacity="1" /><path clip-path="url(#clip190)" d="M507.827 359.26 L515.466 359.26 L515.466 332.894 L507.156 334.561 L507.156 330.302 L515.42 328.635 L520.096 328.635 L520.096 359.26 L527.735 359.26 L527.735 363.195 L507.827 363.195 L507.827 359.26 Z" fill="#000000" fill-rule="nonzero" fill-opacity="1" /><path clip-path="url(#clip190)" d="M547.179 331.714 Q543.568 331.714 541.739 335.278 Q539.934 338.82 539.934 345.95 Q539.934 353.056 541.739 356.621 Q543.568 360.162 547.179 360.162 Q550.813 360.162 552.619 356.621 Q554.448 353.056 554.448 345.95 Q554.448 338.82 552.619 335.278 Q550.813 331.714 547.179 331.714 M547.179 328.01 Q552.989 328.01 556.045 332.616 Q559.123 337.2 559.123 345.95 Q559.123 354.676 556.045 359.283 Q552.989 363.866 547.179 363.866 Q541.369 363.866 538.29 359.283 Q535.235 354.676 535.235 345.95 Q535.235 337.2 538.29 332.616 Q541.369 328.01 547.179 328.01 Z" fill="#000000" fill-rule="nonzero" fill-opacity="1" /><path clip-path="url(#clip190)" d="M577.341 331.714 Q573.73 331.714 571.901 335.278 Q570.096 338.82 570.096 345.95 Q570.096 353.056 571.901 356.621 Q573.73 360.162 577.341 360.162 Q580.975 360.162 582.781 356.621 Q584.609 353.056 584.609 345.95 Q584.609 338.82 582.781 335.278 Q580.975 331.714 577.341 331.714 M577.341 328.01 Q583.151 328.01 586.207 332.616 Q589.285 337.2 589.285 345.95 Q589.285 354.676 586.207 359.283 Q583.151 363.866 577.341 363.866 Q571.531 363.866 568.452 359.283 Q565.397 354.676 565.397 345.95 Q565.397 337.2 568.452 332.616 Q571.531 328.01 577.341 328.01 Z" fill="#000000" fill-rule="nonzero" fill-opacity="1" /><path clip-path="url(#clip190)" d="M597.503 357.315 L602.387 357.315 L602.387 363.195 L597.503 363.195 L597.503 357.315 Z" fill="#000000" fill-rule="nonzero" fill-opacity="1" /><path clip-path="url(#clip190)" d="M622.572 331.714 Q618.961 331.714 617.132 335.278 Q615.327 338.82 615.327 345.95 Q615.327 353.056 617.132 356.621 Q618.961 360.162 622.572 360.162 Q626.206 360.162 628.012 356.621 Q629.841 353.056 629.841 345.95 Q629.841 338.82 628.012 335.278 Q626.206 331.714 622.572 331.714 M622.572 328.01 Q628.382 328.01 631.438 332.616 Q634.517 337.2 634.517 345.95 Q634.517 354.676 631.438 359.283 Q628.382 363.866 622.572 363.866 Q616.762 363.866 613.683 359.283 Q610.628 354.676 610.628 345.95 Q610.628 337.2 613.683 332.616 Q616.762 328.01 622.572 328.01 Z" fill="#000000" fill-rule="nonzero" fill-opacity="1" /><path clip-path="url(#clip190)" d="M672.132 347.987 Q670.118 347.987 668.961 349.7 Q667.827 351.413 667.827 354.468 Q667.827 357.477 668.961 359.213 Q670.118 360.926 672.132 360.926 Q674.1 360.926 675.234 359.213 Q676.391 357.477 676.391 354.468 Q676.391 351.436 675.234 349.723 Q674.1 347.987 672.132 347.987 M672.132 345.047 Q675.79 345.047 677.942 347.593 Q680.095 350.139 680.095 354.468 Q680.095 358.797 677.919 361.343 Q675.766 363.866 672.132 363.866 Q668.428 363.866 666.276 361.343 Q664.123 358.797 664.123 354.468 Q664.123 350.116 666.276 347.593 Q668.452 345.047 672.132 345.047 M648.243 330.95 Q646.253 330.95 645.095 332.686 Q643.961 334.399 643.961 337.408 Q643.961 340.464 645.095 342.176 Q646.229 343.889 648.243 343.889 Q650.257 343.889 651.392 342.176 Q652.549 340.464 652.549 337.408 Q652.549 334.422 651.392 332.686 Q650.234 330.95 648.243 330.95 M669.146 328.01 L672.85 328.01 L651.229 363.866 L647.526 363.866 L669.146 328.01 M648.243 328.01 Q651.901 328.01 654.077 330.556 Q656.253 333.079 656.253 337.408 Q656.253 341.783 654.077 344.306 Q651.924 346.829 648.243 346.829 Q644.563 346.829 642.41 344.306 Q640.28 341.76 640.28 337.408 Q640.28 333.102 642.433 330.556 Q644.586 328.01 648.243 328.01 Z" fill="#000000" fill-rule="nonzero" fill-opacity="1" /><path clip-path="url(#clip190)" d="M1238.24 232.507 L1238.24 228.247 Q1240 229.081 1241.81 229.52 Q1243.61 229.96 1245.35 229.96 Q1249.98 229.96 1252.41 226.858 Q1254.86 223.733 1255.21 217.391 Q1253.87 219.382 1251.81 220.446 Q1249.75 221.511 1247.25 221.511 Q1242.06 221.511 1239.03 218.386 Q1236.02 215.238 1236.02 209.798 Q1236.02 204.474 1239.17 201.257 Q1242.32 198.039 1247.55 198.039 Q1253.55 198.039 1256.69 202.646 Q1259.86 207.229 1259.86 215.979 Q1259.86 224.15 1255.98 229.034 Q1252.11 233.895 1245.56 233.895 Q1243.8 233.895 1241.99 233.548 Q1240.19 233.201 1238.24 232.507 M1247.55 217.854 Q1250.7 217.854 1252.53 215.701 Q1254.38 213.548 1254.38 209.798 Q1254.38 206.071 1252.53 203.919 Q1250.7 201.743 1247.55 201.743 Q1244.4 201.743 1242.55 203.919 Q1240.72 206.071 1240.72 209.798 Q1240.72 213.548 1242.55 215.701 Q1244.4 217.854 1247.55 217.854 Z" fill="#000000" fill-rule="nonzero" fill-opacity="1" /><path clip-path="url(#clip190)" d="M1278.27 201.743 Q1274.66 201.743 1272.83 205.308 Q1271.02 208.849 1271.02 215.979 Q1271.02 223.085 1272.83 226.65 Q1274.66 230.192 1278.27 230.192 Q1281.9 230.192 1283.71 226.65 Q1285.54 223.085 1285.54 215.979 Q1285.54 208.849 1283.71 205.308 Q1281.9 201.743 1278.27 201.743 M1278.27 198.039 Q1284.08 198.039 1287.13 202.646 Q1290.21 207.229 1290.21 215.979 Q1290.21 224.706 1287.13 229.312 Q1284.08 233.895 1278.27 233.895 Q1272.46 233.895 1269.38 229.312 Q1266.32 224.706 1266.32 215.979 Q1266.32 207.229 1269.38 202.646 Q1272.46 198.039 1278.27 198.039 Z" fill="#000000" fill-rule="nonzero" fill-opacity="1" /><path clip-path="url(#clip190)" d="M1298.43 227.345 L1303.31 227.345 L1303.31 233.224 L1298.43 233.224 L1298.43 227.345 Z" fill="#000000" fill-rule="nonzero" fill-opacity="1" /><path clip-path="url(#clip190)" d="M1323.5 201.743 Q1319.89 201.743 1318.06 205.308 Q1316.25 208.849 1316.25 215.979 Q1316.25 223.085 1318.06 226.65 Q1319.89 230.192 1323.5 230.192 Q1327.13 230.192 1328.94 226.65 Q1330.77 223.085 1330.77 215.979 Q1330.77 208.849 1328.94 205.308 Q1327.13 201.743 1323.5 201.743 M1323.5 198.039 Q1329.31 198.039 1332.36 202.646 Q1335.44 207.229 1335.44 215.979 Q1335.44 224.706 1332.36 229.312 Q1329.31 233.895 1323.5 233.895 Q1317.69 233.895 1314.61 229.312 Q1311.55 224.706 1311.55 215.979 Q1311.55 207.229 1314.61 202.646 Q1317.69 198.039 1323.5 198.039 Z" fill="#000000" fill-rule="nonzero" fill-opacity="1" /><path clip-path="url(#clip190)" d="M1373.06 218.016 Q1371.04 218.016 1369.89 219.729 Q1368.75 221.442 1368.75 224.497 Q1368.75 227.507 1369.89 229.243 Q1371.04 230.956 1373.06 230.956 Q1375.03 230.956 1376.16 229.243 Q1377.32 227.507 1377.32 224.497 Q1377.32 221.465 1376.16 219.752 Q1375.03 218.016 1373.06 218.016 M1373.06 215.076 Q1376.72 215.076 1378.87 217.622 Q1381.02 220.169 1381.02 224.497 Q1381.02 228.826 1378.85 231.372 Q1376.69 233.895 1373.06 233.895 Q1369.35 233.895 1367.2 231.372 Q1365.05 228.826 1365.05 224.497 Q1365.05 220.145 1367.2 217.622 Q1369.38 215.076 1373.06 215.076 M1349.17 200.979 Q1347.18 200.979 1346.02 202.715 Q1344.89 204.428 1344.89 207.437 Q1344.89 210.493 1346.02 212.206 Q1347.16 213.919 1349.17 213.919 Q1351.18 213.919 1352.32 212.206 Q1353.48 210.493 1353.48 207.437 Q1353.48 204.451 1352.32 202.715 Q1351.16 200.979 1349.17 200.979 M1370.07 198.039 L1373.78 198.039 L1352.16 233.895 L1348.45 233.895 L1370.07 198.039 M1349.17 198.039 Q1352.83 198.039 1355 200.585 Q1357.18 203.109 1357.18 207.437 Q1357.18 211.812 1355 214.335 Q1352.85 216.858 1349.17 216.858 Q1345.49 216.858 1343.34 214.335 Q1341.21 211.789 1341.21 207.437 Q1341.21 203.132 1343.36 200.585 Q1345.51 198.039 1349.17 198.039 Z" fill="#000000" fill-rule="nonzero" fill-opacity="1" /><path clip-path="url(#clip190)" d="M1937.62 229.289 L1945.26 229.289 L1945.26 202.923 L1936.95 204.59 L1936.95 200.331 L1945.21 198.664 L1949.89 198.664 L1949.89 229.289 L1957.53 229.289 L1957.53 233.224 L1937.62 233.224 L1937.62 229.289 Z" fill="#000000" fill-rule="nonzero" fill-opacity="1" /><path clip-path="url(#clip190)" d="M1976.97 201.743 Q1973.36 201.743 1971.53 205.308 Q1969.73 208.849 1969.73 215.979 Q1969.73 223.085 1971.53 226.65 Q1973.36 230.192 1976.97 230.192 Q1980.61 230.192 1982.41 226.65 Q1984.24 223.085 1984.24 215.979 Q1984.24 208.849 1982.41 205.308 Q1980.61 201.743 1976.97 201.743 M1976.97 198.039 Q1982.78 198.039 1985.84 202.646 Q1988.92 207.229 1988.92 215.979 Q1988.92 224.706 1985.84 229.312 Q1982.78 233.895 1976.97 233.895 Q1971.16 233.895 1968.08 229.312 Q1965.03 224.706 1965.03 215.979 Q1965.03 207.229 1968.08 202.646 Q1971.16 198.039 1976.97 198.039 Z" fill="#000000" fill-rule="nonzero" fill-opacity="1" /><path clip-path="url(#clip190)" d="M2007.13 201.743 Q2003.52 201.743 2001.69 205.308 Q1999.89 208.849 1999.89 215.979 Q1999.89 223.085 2001.69 226.65 Q2003.52 230.192 2007.13 230.192 Q2010.77 230.192 2012.57 226.65 Q2014.4 223.085 2014.4 215.979 Q2014.4 208.849 2012.57 205.308 Q2010.77 201.743 2007.13 201.743 M2007.13 198.039 Q2012.94 198.039 2016 202.646 Q2019.08 207.229 2019.08 215.979 Q2019.08 224.706 2016 229.312 Q2012.94 233.895 2007.13 233.895 Q2001.32 233.895 1998.24 229.312 Q1995.19 224.706 1995.19 215.979 Q1995.19 207.229 1998.24 202.646 Q2001.32 198.039 2007.13 198.039 Z" fill="#000000" fill-rule="nonzero" fill-opacity="1" /><path clip-path="url(#clip190)" d="M2027.29 227.345 L2032.18 227.345 L2032.18 233.224 L2027.29 233.224 L2027.29 227.345 Z" fill="#000000" fill-rule="nonzero" fill-opacity="1" /><path clip-path="url(#clip190)" d="M2052.36 201.743 Q2048.75 201.743 2046.92 205.308 Q2045.12 208.849 2045.12 215.979 Q2045.12 223.085 2046.92 226.65 Q2048.75 230.192 2052.36 230.192 Q2056 230.192 2057.8 226.65 Q2059.63 223.085 2059.63 215.979 Q2059.63 208.849 2057.8 205.308 Q2056 201.743 2052.36 201.743 M2052.36 198.039 Q2058.17 198.039 2061.23 202.646 Q2064.31 207.229 2064.31 215.979 Q2064.31 224.706 2061.23 229.312 Q2058.17 233.895 2052.36 233.895 Q2046.55 233.895 2043.48 229.312 Q2040.42 224.706 2040.42 215.979 Q2040.42 207.229 2043.48 202.646 Q2046.55 198.039 2052.36 198.039 Z" fill="#000000" fill-rule="nonzero" fill-opacity="1" /><path clip-path="url(#clip190)" d="M2101.92 218.016 Q2099.91 218.016 2098.75 219.729 Q2097.62 221.442 2097.62 224.497 Q2097.62 227.507 2098.75 229.243 Q2099.91 230.956 2101.92 230.956 Q2103.89 230.956 2105.03 229.243 Q2106.18 227.507 2106.18 224.497 Q2106.18 221.465 2105.03 219.752 Q2103.89 218.016 2101.92 218.016 M2101.92 215.076 Q2105.58 215.076 2107.73 217.622 Q2109.89 220.169 2109.89 224.497 Q2109.89 228.826 2107.71 231.372 Q2105.56 233.895 2101.92 233.895 Q2098.22 233.895 2096.07 231.372 Q2093.91 228.826 2093.91 224.497 Q2093.91 220.145 2096.07 217.622 Q2098.24 215.076 2101.92 215.076 M2078.04 200.979 Q2076.04 200.979 2074.89 202.715 Q2073.75 204.428 2073.75 207.437 Q2073.75 210.493 2074.89 212.206 Q2076.02 213.919 2078.04 213.919 Q2080.05 213.919 2081.18 212.206 Q2082.34 210.493 2082.34 207.437 Q2082.34 204.451 2081.18 202.715 Q2080.03 200.979 2078.04 200.979 M2098.94 198.039 L2102.64 198.039 L2081.02 233.895 L2077.32 233.895 L2098.94 198.039 M2078.04 198.039 Q2081.69 198.039 2083.87 200.585 Q2086.04 203.109 2086.04 207.437 Q2086.04 211.812 2083.87 214.335 Q2081.72 216.858 2078.04 216.858 Q2074.35 216.858 2072.2 214.335 Q2070.07 211.789 2070.07 207.437 Q2070.07 203.132 2072.23 200.585 Q2074.38 198.039 2078.04 198.039 Z" fill="#000000" fill-rule="nonzero" fill-opacity="1" /></svg>
