<?xml version="1.0" encoding="utf-8"?>
<svg xmlns="http://www.w3.org/2000/svg" xmlns:xlink="http://www.w3.org/1999/xlink" width="1200" height="600" viewBox="0 0 4800 2400">
<defs>
  <clipPath id="clip060">
    <rect x="0" y="0" width="4800" height="2400"/>
  </clipPath>
</defs>
<path clip-path="url(#clip060)" d="M0 2400 L4800 2400 L4800 0 L0 0  Z" fill="#ffffff" fill-rule="evenodd" fill-opacity="1"/>
<defs>
  <clipPath id="clip061">
    <rect x="960" y="0" width="3361" height="2400"/>
  </clipPath>
</defs>
<path clip-path="url(#clip060)" d="M386.242 1992.94 L3887.92 1992.94 L3887.92 171.344 L386.242 171.344  Z" fill="#ffffff" fill-rule="evenodd" fill-opacity="1"/>
<defs>
  <clipPath id="clip062">
    <rect x="386" y="171" width="3503" height="1823"/>
  </clipPath>
</defs>
<polyline clip-path="url(#clip062)" style="stroke:#000000; stroke-linecap:round; stroke-linejoin:round; stroke-width:2; stroke-opacity:0.1; fill:none" points="710.342,1992.94 710.342,171.344 "/>
<polyline clip-path="url(#clip062)" style="stroke:#000000; stroke-linecap:round; stroke-linejoin:round; stroke-width:2; stroke-opacity:0.1; fill:none" points="1067.03,1992.94 1067.03,171.344 "/>
<polyline clip-path="url(#clip062)" style="stroke:#000000; stroke-linecap:round; stroke-linejoin:round; stroke-width:2; stroke-opacity:0.1; fill:none" points="1423.71,1992.94 1423.71,171.344 "/>
<polyline clip-path="url(#clip062)" style="stroke:#000000; stroke-linecap:round; stroke-linejoin:round; stroke-width:2; stroke-opacity:0.1; fill:none" points="1780.39,1992.94 1780.39,171.344 "/>
<polyline clip-path="url(#clip062)" style="stroke:#000000; stroke-linecap:round; stroke-linejoin:round; stroke-width:2; stroke-opacity:0.1; fill:none" points="2137.08,1992.94 2137.08,171.344 "/>
<polyline clip-path="url(#clip062)" style="stroke:#000000; stroke-linecap:round; stroke-linejoin:round; stroke-width:2; stroke-opacity:0.1; fill:none" points="2493.76,1992.94 2493.76,171.344 "/>
<polyline clip-path="url(#clip062)" style="stroke:#000000; stroke-linecap:round; stroke-linejoin:round; stroke-width:2; stroke-opacity:0.1; fill:none" points="2850.45,1992.94 2850.45,171.344 "/>
<polyline clip-path="url(#clip062)" style="stroke:#000000; stroke-linecap:round; stroke-linejoin:round; stroke-width:2; stroke-opacity:0.1; fill:none" points="3207.13,1992.94 3207.13,171.344 "/>
<polyline clip-path="url(#clip062)" style="stroke:#000000; stroke-linecap:round; stroke-linejoin:round; stroke-width:2; stroke-opacity:0.1; fill:none" points="3563.82,1992.94 3563.82,171.344 "/>
<polyline clip-path="url(#clip062)" style="stroke:#000000; stroke-linecap:round; stroke-linejoin:round; stroke-width:2; stroke-opacity:0.1; fill:none" points="386.242,1992.94 3887.92,1992.94 "/>
<polyline clip-path="url(#clip062)" style="stroke:#000000; stroke-linecap:round; stroke-linejoin:round; stroke-width:2; stroke-opacity:0.1; fill:none" points="386.242,1537.54 3887.92,1537.54 "/>
<polyline clip-path="url(#clip062)" style="stroke:#000000; stroke-linecap:round; stroke-linejoin:round; stroke-width:2; stroke-opacity:0.1; fill:none" points="386.242,1082.14 3887.92,1082.14 "/>
<polyline clip-path="url(#clip062)" style="stroke:#000000; stroke-linecap:round; stroke-linejoin:round; stroke-width:2; stroke-opacity:0.1; fill:none" points="386.242,626.743 3887.92,626.743 "/>
<polyline clip-path="url(#clip062)" style="stroke:#000000; stroke-linecap:round; stroke-linejoin:round; stroke-width:2; stroke-opacity:0.1; fill:none" points="386.242,171.344 3887.92,171.344 "/>
<polyline clip-path="url(#clip060)" style="stroke:#000000; stroke-linecap:round; stroke-linejoin:round; stroke-width:4; stroke-opacity:1; fill:none" points="386.242,1992.94 3887.92,1992.94 "/>
<polyline clip-path="url(#clip060)" style="stroke:#000000; stroke-linecap:round; stroke-linejoin:round; stroke-width:4; stroke-opacity:1; fill:none" points="710.342,1992.94 710.342,1974.04 "/>
<polyline clip-path="url(#clip060)" style="stroke:#000000; stroke-linecap:round; stroke-linejoin:round; stroke-width:4; stroke-opacity:1; fill:none" points="1067.03,1992.94 1067.03,1974.04 "/>
<polyline clip-path="url(#clip060)" style="stroke:#000000; stroke-linecap:round; stroke-linejoin:round; stroke-width:4; stroke-opacity:1; fill:none" points="1423.71,1992.94 1423.71,1974.04 "/>
<polyline clip-path="url(#clip060)" style="stroke:#000000; stroke-linecap:round; stroke-linejoin:round; stroke-width:4; stroke-opacity:1; fill:none" points="1780.39,1992.94 1780.39,1974.04 "/>
<polyline clip-path="url(#clip060)" style="stroke:#000000; stroke-linecap:round; stroke-linejoin:round; stroke-width:4; stroke-opacity:1; fill:none" points="2137.08,1992.94 2137.08,1974.04 "/>
<polyline clip-path="url(#clip060)" style="stroke:#000000; stroke-linecap:round; stroke-linejoin:round; stroke-width:4; stroke-opacity:1; fill:none" points="2493.76,1992.94 2493.76,1974.04 "/>
<polyline clip-path="url(#clip060)" style="stroke:#000000; stroke-linecap:round; stroke-linejoin:round; stroke-width:4; stroke-opacity:1; fill:none" points="2850.45,1992.94 2850.45,1974.04 "/>
<polyline clip-path="url(#clip060)" style="stroke:#000000; stroke-linecap:round; stroke-linejoin:round; stroke-width:4; stroke-opacity:1; fill:none" points="3207.13,1992.94 3207.13,1974.04 "/>
<polyline clip-path="url(#clip060)" style="stroke:#000000; stroke-linecap:round; stroke-linejoin:round; stroke-width:4; stroke-opacity:1; fill:none" points="3563.82,1992.94 3563.82,1974.04 "/>
<path clip-path="url(#clip060)" d="M659.2 2098.17 Q656.974 2100.4 657.187 2103.23 Q657.416 2106.05 660.067 2108.7 Q662.703 2111.33 665.534 2111.58 Q668.366 2111.79 670.592 2109.57 Q672.818 2107.34 672.589 2104.53 Q672.36 2101.68 669.725 2099.04 Q667.073 2096.39 664.241 2096.18 Q661.426 2095.95 659.2 2098.17 M655.402 2081.25 L658.414 2084.26 Q656.581 2084.92 654.993 2085.88 Q653.422 2086.83 652.178 2088.08 Q648.904 2091.35 649.379 2095.29 Q649.87 2099.22 654.093 2103.94 Q653.635 2101.55 654.339 2099.34 Q655.026 2097.11 656.777 2095.36 Q660.46 2091.68 664.831 2091.79 Q669.201 2091.87 673.047 2095.72 Q676.812 2099.48 676.861 2103.99 Q676.91 2108.49 673.211 2112.19 Q668.972 2116.42 663.488 2115.43 Q657.989 2114.41 651.818 2108.24 Q646.024 2102.45 645.336 2096.26 Q644.632 2090.06 649.264 2085.42 Q650.508 2084.18 652.014 2083.16 Q653.536 2082.13 655.402 2081.25 Z" fill="#000000" fill-rule="nonzero" fill-opacity="1" /><path clip-path="url(#clip060)" d="M661.311 2074.26 L677.025 2058.55 L678.432 2059.95 L692.591 2091.86 L689.137 2095.31 L675.83 2065.31 L664.094 2077.04 L661.311 2074.26 Z" fill="#000000" fill-rule="nonzero" fill-opacity="1" /><path clip-path="url(#clip060)" d="M705.702 2073.18 L711.103 2067.78 L692.46 2049.14 L687.762 2056.19 L684.751 2053.18 L689.415 2046.16 L692.722 2042.85 L714.377 2064.51 L719.778 2059.1 L722.561 2061.89 L708.484 2075.96 L705.702 2073.18 Z" fill="#000000" fill-rule="nonzero" fill-opacity="1" /><path clip-path="url(#clip060)" d="M1014.67 2099.39 Q1012.45 2101.61 1012.66 2104.44 Q1012.89 2107.26 1015.54 2109.91 Q1018.18 2112.55 1021.01 2112.79 Q1023.84 2113 1026.07 2110.78 Q1028.29 2108.55 1028.06 2105.74 Q1027.83 2102.89 1025.2 2100.25 Q1022.55 2097.6 1019.71 2097.39 Q1016.9 2097.16 1014.67 2099.39 M1010.88 2082.46 L1013.89 2085.47 Q1012.05 2086.13 1010.47 2087.09 Q1008.89 2088.04 1007.65 2089.29 Q1004.38 2092.56 1004.85 2096.5 Q1005.34 2100.43 1009.57 2105.15 Q1009.11 2102.76 1009.81 2100.55 Q1010.5 2098.32 1012.25 2096.57 Q1015.93 2092.89 1020.3 2093 Q1024.67 2093.08 1028.52 2096.93 Q1032.28 2100.7 1032.33 2105.2 Q1032.38 2109.7 1028.68 2113.4 Q1024.44 2117.64 1018.96 2116.64 Q1013.46 2115.62 1007.29 2109.45 Q1001.5 2103.66 1000.81 2097.47 Q1000.11 2091.27 1004.74 2086.63 Q1005.98 2085.39 1007.49 2084.38 Q1009.01 2083.34 1010.88 2082.46 Z" fill="#000000" fill-rule="nonzero" fill-opacity="1" /><path clip-path="url(#clip060)" d="M1038.9 2075.88 Q1041.78 2074.01 1044.71 2074.29 Q1047.65 2074.56 1050.01 2076.91 Q1053.63 2080.53 1053.12 2085 Q1052.61 2089.47 1048.03 2094.05 Q1046.49 2095.59 1044.54 2096.91 Q1042.63 2098.24 1040.29 2099.37 L1037.1 2096.18 Q1039.27 2095.6 1041.32 2094.38 Q1043.37 2093.15 1045.15 2091.37 Q1048.26 2088.26 1048.65 2085.41 Q1049.06 2082.54 1046.72 2080.2 Q1044.56 2078.04 1041.83 2078.35 Q1039.09 2078.63 1036.39 2081.33 L1033.55 2084.18 L1030.83 2081.46 L1033.81 2078.48 Q1036.25 2076.04 1036.57 2073.79 Q1036.88 2071.51 1035.05 2069.68 Q1033.17 2067.8 1030.83 2068.14 Q1028.49 2068.45 1026 2070.94 Q1024.64 2072.3 1023.38 2074.15 Q1022.12 2076 1020.88 2078.48 L1017.93 2075.54 Q1019.29 2073.13 1020.66 2071.23 Q1022.05 2069.32 1023.51 2067.86 Q1027.28 2064.1 1031.19 2063.62 Q1035.08 2063.13 1038 2066.04 Q1040.03 2068.07 1040.27 2070.64 Q1040.5 2073.2 1038.9 2075.88 Z" fill="#000000" fill-rule="nonzero" fill-opacity="1" /><path clip-path="url(#clip060)" d="M1050.91 2047.11 L1055.61 2068.5 L1063.96 2060.15 L1050.91 2047.11 M1047.16 2045.09 L1051.32 2040.93 L1067.25 2056.86 L1070.73 2053.37 L1073.48 2056.12 L1070 2059.61 L1075.76 2065.37 L1072.47 2068.66 L1066.71 2062.9 L1055.68 2073.93 L1052.48 2070.74 L1047.16 2045.09 Z" fill="#000000" fill-rule="nonzero" fill-opacity="1" /><path clip-path="url(#clip060)" d="M1372.83 2097.91 Q1370.6 2100.14 1370.82 2102.97 Q1371.05 2105.79 1373.7 2108.44 Q1376.33 2111.07 1379.16 2111.32 Q1382 2111.53 1384.22 2109.3 Q1386.45 2107.08 1386.22 2104.26 Q1385.99 2101.42 1383.35 2098.78 Q1380.7 2096.13 1377.87 2095.92 Q1375.06 2095.69 1372.83 2097.91 M1369.03 2080.99 L1372.04 2084 Q1370.21 2084.65 1368.62 2085.62 Q1367.05 2086.57 1365.81 2087.81 Q1362.53 2091.09 1363.01 2095.03 Q1363.5 2098.96 1367.72 2103.67 Q1367.27 2101.28 1367.97 2099.07 Q1368.66 2096.85 1370.41 2095.1 Q1374.09 2091.41 1378.46 2091.53 Q1382.83 2091.61 1386.68 2095.46 Q1390.44 2099.22 1390.49 2103.72 Q1390.54 2108.22 1386.84 2111.92 Q1382.6 2116.16 1377.12 2115.16 Q1371.62 2114.15 1365.45 2107.98 Q1359.65 2102.18 1358.97 2096 Q1358.26 2089.79 1362.89 2085.16 Q1364.14 2083.92 1365.64 2082.9 Q1367.17 2081.87 1369.03 2080.99 Z" fill="#000000" fill-rule="nonzero" fill-opacity="1" /><path clip-path="url(#clip060)" d="M1375.81 2073.13 L1388.79 2060.15 L1391.57 2062.93 L1381.62 2072.89 L1387.61 2078.88 Q1388.09 2077.91 1388.69 2077.08 Q1389.28 2076.22 1390 2075.5 Q1394.09 2071.41 1398.72 2071.27 Q1403.36 2071.12 1407.19 2074.95 Q1411.13 2078.89 1410.87 2083.54 Q1410.59 2088.17 1406.12 2092.64 Q1404.58 2094.18 1402.72 2095.52 Q1400.87 2096.85 1398.64 2098.03 L1395.32 2094.7 Q1397.6 2094.03 1399.56 2092.85 Q1401.52 2091.68 1403.27 2089.92 Q1406.11 2087.09 1406.27 2083.95 Q1406.43 2080.81 1403.88 2078.25 Q1401.33 2075.7 1398.18 2075.86 Q1395.04 2076.03 1392.21 2078.86 Q1390.88 2080.19 1389.85 2081.81 Q1388.84 2083.41 1388.09 2085.41 L1375.81 2073.13 Z" fill="#000000" fill-rule="nonzero" fill-opacity="1" /><path clip-path="url(#clip060)" d="M1421.61 2070.64 L1433.15 2059.1 L1435.93 2061.89 L1420.41 2077.4 L1417.63 2074.62 Q1417.56 2070.79 1417.53 2064.28 Q1417.5 2057.73 1417.38 2055.94 Q1417.19 2052.57 1416.58 2050.72 Q1415.98 2048.84 1414.78 2047.65 Q1412.83 2045.7 1410.23 2045.85 Q1407.65 2045.98 1405.45 2048.17 Q1403.9 2049.72 1402.7 2052 Q1401.52 2054.26 1400.66 2057.32 L1397.32 2053.98 Q1398.51 2051.18 1399.84 2049.04 Q1401.16 2046.89 1402.6 2045.45 Q1406.4 2041.66 1410.56 2041.3 Q1414.72 2040.93 1417.89 2044.11 Q1419.4 2045.62 1420.18 2047.55 Q1420.97 2049.45 1421.31 2052.77 Q1421.38 2053.65 1421.46 2058.12 Q1421.53 2062.57 1421.61 2070.64 Z" fill="#000000" fill-rule="nonzero" fill-opacity="1" /><path clip-path="url(#clip060)" d="M1729.09 2098.34 Q1726.86 2100.56 1727.08 2103.4 Q1727.3 2106.21 1729.96 2108.86 Q1732.59 2111.5 1735.42 2111.74 Q1738.26 2111.96 1740.48 2109.73 Q1742.71 2107.5 1742.48 2104.69 Q1742.25 2101.84 1739.61 2099.21 Q1736.96 2096.55 1734.13 2096.34 Q1731.32 2096.11 1729.09 2098.34 M1725.29 2081.41 L1728.3 2084.43 Q1726.47 2085.08 1724.88 2086.05 Q1723.31 2086.99 1722.07 2088.24 Q1718.79 2091.51 1719.27 2095.46 Q1719.76 2099.39 1723.98 2104.1 Q1723.52 2101.71 1724.23 2099.5 Q1724.92 2097.27 1726.67 2095.52 Q1730.35 2091.84 1734.72 2091.95 Q1739.09 2092.04 1742.94 2095.88 Q1746.7 2099.65 1746.75 2104.15 Q1746.8 2108.65 1743.1 2112.35 Q1738.86 2116.59 1733.38 2115.59 Q1727.88 2114.58 1721.71 2108.4 Q1715.91 2102.61 1715.23 2096.42 Q1714.52 2090.22 1719.15 2085.59 Q1720.4 2084.34 1721.9 2083.33 Q1723.43 2082.3 1725.29 2081.41 Z" fill="#000000" fill-rule="nonzero" fill-opacity="1" /><path clip-path="url(#clip060)" d="M1731.2 2074.42 L1746.91 2058.71 L1748.32 2060.12 L1762.48 2092.02 L1759.03 2095.47 L1745.72 2065.47 L1733.98 2077.21 L1731.2 2074.42 Z" fill="#000000" fill-rule="nonzero" fill-opacity="1" /><path clip-path="url(#clip060)" d="M1753.4 2052.23 L1766.38 2039.25 L1769.16 2042.03 L1759.21 2051.98 L1765.2 2057.97 Q1765.67 2057.01 1766.28 2056.17 Q1766.87 2055.32 1767.59 2054.6 Q1771.68 2050.51 1776.31 2050.36 Q1780.94 2050.22 1784.77 2054.05 Q1788.72 2057.99 1788.46 2062.64 Q1788.18 2067.27 1783.71 2071.74 Q1782.17 2073.28 1780.3 2074.62 Q1778.46 2075.95 1776.23 2077.12 L1772.91 2073.8 Q1775.18 2073.13 1777.15 2071.95 Q1779.11 2070.77 1780.86 2069.02 Q1783.69 2066.19 1783.86 2063.05 Q1784.02 2059.91 1781.47 2057.35 Q1778.91 2054.8 1775.77 2054.96 Q1772.63 2055.13 1769.8 2057.96 Q1768.47 2059.28 1767.44 2060.9 Q1766.42 2062.51 1765.67 2064.51 L1753.4 2052.23 Z" fill="#000000" fill-rule="nonzero" fill-opacity="1" /><path clip-path="url(#clip060)" d="M2085.94 2098.17 Q2083.71 2100.4 2083.92 2103.23 Q2084.15 2106.05 2086.8 2108.7 Q2089.44 2111.33 2092.27 2111.58 Q2095.1 2111.79 2097.33 2109.57 Q2099.56 2107.34 2099.33 2104.53 Q2099.1 2101.68 2096.46 2099.04 Q2093.81 2096.39 2090.98 2096.18 Q2088.16 2095.95 2085.94 2098.17 M2082.14 2081.25 L2085.15 2084.26 Q2083.32 2084.92 2081.73 2085.88 Q2080.16 2086.83 2078.91 2088.08 Q2075.64 2091.35 2076.12 2095.29 Q2076.61 2099.22 2080.83 2103.94 Q2080.37 2101.55 2081.08 2099.34 Q2081.76 2097.11 2083.51 2095.36 Q2087.2 2091.68 2091.57 2091.79 Q2095.94 2091.87 2099.78 2095.72 Q2103.55 2099.48 2103.6 2103.99 Q2103.65 2108.49 2099.95 2112.19 Q2095.71 2116.42 2090.23 2115.43 Q2084.73 2114.41 2078.55 2108.24 Q2072.76 2102.45 2072.07 2096.26 Q2071.37 2090.06 2076 2085.42 Q2077.25 2084.18 2078.75 2083.16 Q2080.27 2082.13 2082.14 2081.25 Z" fill="#000000" fill-rule="nonzero" fill-opacity="1" /><path clip-path="url(#clip060)" d="M2111.11 2094.51 L2116.51 2089.11 L2097.87 2070.46 L2093.17 2077.52 L2090.16 2074.51 L2094.82 2067.48 L2098.13 2064.18 L2119.79 2085.83 L2125.19 2080.43 L2127.97 2083.21 L2113.89 2097.29 L2111.11 2094.51 Z" fill="#000000" fill-rule="nonzero" fill-opacity="1" /><path clip-path="url(#clip060)" d="M2132.44 2073.18 L2137.84 2067.78 L2119.2 2049.14 L2114.5 2056.19 L2111.49 2053.18 L2116.15 2046.16 L2119.46 2042.85 L2141.11 2064.51 L2146.52 2059.1 L2149.3 2061.89 L2135.22 2075.96 L2132.44 2073.18 Z" fill="#000000" fill-rule="nonzero" fill-opacity="1" /><path clip-path="url(#clip060)" d="M2442.46 2098.34 Q2440.23 2100.56 2440.44 2103.4 Q2440.67 2106.21 2443.33 2108.86 Q2445.96 2111.5 2448.79 2111.74 Q2451.62 2111.96 2453.85 2109.73 Q2456.08 2107.5 2455.85 2104.69 Q2455.62 2101.84 2452.98 2099.21 Q2450.33 2096.55 2447.5 2096.34 Q2444.68 2096.11 2442.46 2098.34 M2438.66 2081.41 L2441.67 2084.43 Q2439.84 2085.08 2438.25 2086.05 Q2436.68 2086.99 2435.44 2088.24 Q2432.16 2091.51 2432.64 2095.46 Q2433.13 2099.39 2437.35 2104.1 Q2436.89 2101.71 2437.6 2099.5 Q2438.28 2097.27 2440.04 2095.52 Q2443.72 2091.84 2448.09 2091.95 Q2452.46 2092.04 2456.3 2095.88 Q2460.07 2099.65 2460.12 2104.15 Q2460.17 2108.65 2456.47 2112.35 Q2452.23 2116.59 2446.75 2115.59 Q2441.25 2114.58 2435.08 2108.4 Q2429.28 2102.61 2428.59 2096.42 Q2427.89 2090.22 2432.52 2085.59 Q2433.77 2084.34 2435.27 2083.33 Q2436.79 2082.3 2438.66 2081.41 Z" fill="#000000" fill-rule="nonzero" fill-opacity="1" /><path clip-path="url(#clip060)" d="M2457.37 2067.39 L2462.07 2088.78 L2470.41 2080.43 L2457.37 2067.39 M2453.62 2065.37 L2457.78 2061.22 L2473.7 2077.14 L2477.19 2073.65 L2479.94 2076.4 L2476.45 2079.89 L2482.22 2085.65 L2478.93 2088.94 L2473.16 2083.18 L2462.13 2094.21 L2458.94 2091.02 L2453.62 2065.37 Z" fill="#000000" fill-rule="nonzero" fill-opacity="1" /><path clip-path="url(#clip060)" d="M2466.76 2052.23 L2479.74 2039.25 L2482.53 2042.03 L2472.57 2051.98 L2478.57 2057.97 Q2479.04 2057.01 2479.65 2056.17 Q2480.24 2055.32 2480.96 2054.6 Q2485.05 2050.51 2489.68 2050.36 Q2494.31 2050.22 2498.14 2054.05 Q2502.09 2057.99 2501.82 2062.64 Q2501.55 2067.27 2497.08 2071.74 Q2495.54 2073.28 2493.67 2074.62 Q2491.82 2075.95 2489.6 2077.12 L2486.27 2073.8 Q2488.55 2073.13 2490.51 2071.95 Q2492.48 2070.77 2494.23 2069.02 Q2497.06 2066.19 2497.23 2063.05 Q2497.39 2059.91 2494.84 2057.35 Q2492.28 2054.8 2489.14 2054.96 Q2486 2055.13 2483.17 2057.96 Q2481.84 2059.28 2480.81 2060.9 Q2479.79 2062.51 2479.04 2064.51 L2466.76 2052.23 Z" fill="#000000" fill-rule="nonzero" fill-opacity="1" /><path clip-path="url(#clip060)" d="M2799.57 2097.91 Q2797.34 2100.14 2797.55 2102.97 Q2797.78 2105.79 2800.43 2108.44 Q2803.07 2111.07 2805.9 2111.32 Q2808.73 2111.53 2810.96 2109.3 Q2813.19 2107.08 2812.96 2104.26 Q2812.73 2101.42 2810.09 2098.78 Q2807.44 2096.13 2804.61 2095.92 Q2801.79 2095.69 2799.57 2097.91 M2795.77 2080.99 L2798.78 2084 Q2796.95 2084.65 2795.36 2085.62 Q2793.79 2086.57 2792.55 2087.81 Q2789.27 2091.09 2789.75 2095.03 Q2790.24 2098.96 2794.46 2103.67 Q2794 2101.28 2794.71 2099.07 Q2795.39 2096.85 2797.14 2095.1 Q2800.83 2091.41 2805.2 2091.53 Q2809.57 2091.61 2813.41 2095.46 Q2817.18 2099.22 2817.23 2103.72 Q2817.28 2108.22 2813.58 2111.92 Q2809.34 2116.16 2803.86 2115.16 Q2798.36 2114.15 2792.19 2107.98 Q2786.39 2102.18 2785.7 2096 Q2785 2089.79 2789.63 2085.16 Q2790.88 2083.92 2792.38 2082.9 Q2793.9 2081.87 2795.77 2080.99 Z" fill="#000000" fill-rule="nonzero" fill-opacity="1" /><path clip-path="url(#clip060)" d="M2826.54 2097 L2823.53 2093.98 Q2825.36 2093.33 2826.95 2092.36 Q2828.54 2091.4 2829.77 2090.17 Q2833.04 2086.9 2832.57 2082.98 Q2832.09 2079.04 2827.85 2074.31 Q2828.31 2076.67 2827.61 2078.88 Q2826.9 2081.09 2825.13 2082.85 Q2821.47 2086.52 2817.11 2086.45 Q2812.76 2086.36 2808.91 2082.51 Q2805.15 2078.75 2805.1 2074.24 Q2805.05 2069.74 2808.75 2066.04 Q2812.99 2061.8 2818.47 2062.84 Q2823.96 2063.83 2830.14 2070.02 Q2835.92 2075.8 2836.62 2082 Q2837.33 2088.17 2832.7 2092.81 Q2831.45 2094.05 2829.93 2095.08 Q2828.41 2096.11 2826.54 2097 M2822.76 2080.05 Q2824.99 2077.83 2824.76 2075.01 Q2824.55 2072.18 2821.89 2069.53 Q2819.26 2066.89 2816.43 2066.68 Q2813.59 2066.44 2811.37 2068.66 Q2809.14 2070.89 2809.37 2073.74 Q2809.6 2076.55 2812.24 2079.19 Q2814.89 2081.84 2817.7 2082.07 Q2820.53 2082.28 2822.76 2080.05 Z" fill="#000000" fill-rule="nonzero" fill-opacity="1" /><path clip-path="url(#clip060)" d="M2848.34 2070.64 L2859.88 2059.1 L2862.67 2061.89 L2847.15 2077.4 L2844.37 2074.62 Q2844.3 2070.79 2844.27 2064.28 Q2844.24 2057.73 2844.12 2055.94 Q2843.92 2052.57 2843.32 2050.72 Q2842.71 2048.84 2841.52 2047.65 Q2839.57 2045.7 2836.97 2045.85 Q2834.38 2045.98 2832.19 2048.17 Q2830.63 2049.72 2829.44 2052 Q2828.26 2054.26 2827.39 2057.32 L2824.05 2053.98 Q2825.25 2051.18 2826.57 2049.04 Q2827.9 2046.89 2829.34 2045.45 Q2833.14 2041.66 2837.3 2041.3 Q2841.45 2040.93 2844.63 2044.11 Q2846.13 2045.62 2846.92 2047.55 Q2847.71 2049.45 2848.05 2052.77 Q2848.12 2053.65 2848.2 2058.12 Q2848.26 2062.57 2848.34 2070.64 Z" fill="#000000" fill-rule="nonzero" fill-opacity="1" /><path clip-path="url(#clip060)" d="M3155.12 2099.04 Q3152.9 2101.27 3153.11 2104.1 Q3153.34 2106.91 3155.99 2109.57 Q3158.62 2112.2 3161.46 2112.45 Q3164.29 2112.66 3166.51 2110.43 Q3168.74 2108.21 3168.51 2105.39 Q3168.28 2102.54 3165.65 2099.91 Q3163 2097.26 3160.16 2097.04 Q3157.35 2096.82 3155.12 2099.04 M3151.32 2082.12 L3154.34 2085.13 Q3152.5 2085.78 3150.92 2086.75 Q3149.34 2087.7 3148.1 2088.94 Q3144.83 2092.22 3145.3 2096.16 Q3145.79 2100.09 3150.02 2104.8 Q3149.56 2102.41 3150.26 2100.2 Q3150.95 2097.98 3152.7 2096.23 Q3156.38 2092.54 3160.75 2092.66 Q3165.12 2092.74 3168.97 2096.59 Q3172.73 2100.35 3172.78 2104.85 Q3172.83 2109.35 3169.13 2113.05 Q3164.89 2117.29 3159.41 2116.29 Q3153.91 2115.28 3147.74 2109.11 Q3141.95 2103.31 3141.26 2097.13 Q3140.55 2090.92 3145.19 2086.29 Q3146.43 2085.05 3147.94 2084.03 Q3149.46 2083 3151.32 2082.12 Z" fill="#000000" fill-rule="nonzero" fill-opacity="1" /><path clip-path="url(#clip060)" d="M3157.23 2075.13 L3172.95 2059.41 L3174.35 2060.82 L3188.51 2092.72 L3185.06 2096.18 L3171.75 2066.17 L3160.02 2077.91 L3157.23 2075.13 Z" fill="#000000" fill-rule="nonzero" fill-opacity="1" /><path clip-path="url(#clip060)" d="M3188.64 2048.07 Q3186.09 2050.62 3187.32 2054.44 Q3188.55 2058.22 3193.59 2063.26 Q3198.61 2068.29 3202.41 2069.53 Q3206.21 2070.74 3208.76 2068.19 Q3211.33 2065.62 3210.1 2061.84 Q3208.88 2058.02 3203.85 2053 Q3198.81 2047.96 3195.01 2046.75 Q3191.21 2045.5 3188.64 2048.07 M3186.03 2045.45 Q3190.13 2041.34 3195.55 2042.44 Q3200.97 2043.5 3207.16 2049.69 Q3213.33 2055.86 3214.41 2061.3 Q3215.49 2066.7 3211.38 2070.81 Q3207.27 2074.92 3201.85 2073.85 Q3196.44 2072.75 3190.26 2066.58 Q3184.08 2060.4 3183 2055 Q3181.92 2049.56 3186.03 2045.45 Z" fill="#000000" fill-rule="nonzero" fill-opacity="1" /><path clip-path="url(#clip060)" d="M3511.69 2099.16 Q3509.47 2101.38 3509.68 2104.21 Q3509.91 2107.03 3512.56 2109.68 Q3515.19 2112.32 3518.03 2112.56 Q3520.86 2112.77 3523.08 2110.55 Q3525.31 2108.32 3525.08 2105.51 Q3524.85 2102.66 3522.22 2100.02 Q3519.56 2097.37 3516.73 2097.16 Q3513.92 2096.93 3511.69 2099.16 M3507.89 2082.23 L3510.91 2085.24 Q3509.07 2085.9 3507.49 2086.86 Q3505.91 2087.81 3504.67 2089.06 Q3501.4 2092.33 3501.87 2096.28 Q3502.36 2100.2 3506.59 2104.92 Q3506.13 2102.53 3506.83 2100.32 Q3507.52 2098.09 3509.27 2096.34 Q3512.95 2092.66 3517.32 2092.77 Q3521.69 2092.85 3525.54 2096.7 Q3529.3 2100.47 3529.35 2104.97 Q3529.4 2109.47 3525.7 2113.17 Q3521.46 2117.41 3515.98 2116.41 Q3510.48 2115.39 3504.31 2109.22 Q3498.52 2103.43 3497.83 2097.24 Q3497.12 2091.04 3501.76 2086.41 Q3503 2085.16 3504.51 2084.15 Q3506.03 2083.12 3507.89 2082.23 Z" fill="#000000" fill-rule="nonzero" fill-opacity="1" /><path clip-path="url(#clip060)" d="M3526.6 2068.2 L3531.3 2089.6 L3539.65 2081.25 L3526.6 2068.2 M3522.85 2066.19 L3527.01 2062.03 L3542.94 2077.96 L3546.43 2074.47 L3549.17 2077.22 L3545.69 2080.71 L3551.45 2086.47 L3548.16 2089.76 L3542.4 2084 L3531.37 2095.03 L3528.17 2091.84 L3522.85 2066.19 Z" fill="#000000" fill-rule="nonzero" fill-opacity="1" /><path clip-path="url(#clip060)" d="M3554.35 2056.5 Q3552.12 2058.73 3552.33 2061.56 Q3552.56 2064.37 3555.21 2067.03 Q3557.85 2069.66 3560.68 2069.91 Q3563.51 2070.12 3565.74 2067.89 Q3567.97 2065.67 3567.74 2062.85 Q3567.51 2060 3564.87 2057.37 Q3562.22 2054.72 3559.39 2054.5 Q3556.57 2054.28 3554.35 2056.5 M3550.55 2039.58 L3553.56 2042.59 Q3551.73 2043.24 3550.14 2044.21 Q3548.57 2045.16 3547.33 2046.4 Q3544.05 2049.68 3544.53 2053.62 Q3545.02 2057.55 3549.24 2062.26 Q3548.78 2059.87 3549.49 2057.66 Q3550.17 2055.44 3551.92 2053.69 Q3555.61 2050 3559.98 2050.12 Q3564.35 2050.2 3568.19 2054.05 Q3571.96 2057.81 3572.01 2062.31 Q3572.06 2066.81 3568.36 2070.51 Q3564.12 2074.75 3558.64 2073.75 Q3553.14 2072.74 3546.97 2066.57 Q3541.17 2060.77 3540.48 2054.59 Q3539.78 2048.38 3544.41 2043.75 Q3545.66 2042.51 3547.16 2041.49 Q3548.68 2040.46 3550.55 2039.58 Z" fill="#000000" fill-rule="nonzero" fill-opacity="1" /><path clip-path="url(#clip060)" d="M2088.3 2195.69 L2088.3 2213.1 L2098.61 2213.1 Q2103.8 2213.1 2106.29 2210.96 Q2108.8 2208.8 2108.8 2204.38 Q2108.8 2199.92 2106.29 2197.82 Q2103.8 2195.69 2098.61 2195.69 L2088.3 2195.69 M2088.3 2176.14 L2088.3 2190.47 L2097.82 2190.47 Q2102.53 2190.47 2104.82 2188.72 Q2107.14 2186.93 2107.14 2183.3 Q2107.14 2179.71 2104.82 2177.93 Q2102.53 2176.14 2097.82 2176.14 L2088.3 2176.14 M2081.87 2170.86 L2098.3 2170.86 Q2105.65 2170.86 2109.63 2173.92 Q2113.61 2176.97 2113.61 2182.6 Q2113.61 2186.96 2111.57 2189.54 Q2109.53 2192.12 2105.58 2192.76 Q2110.33 2193.78 2112.94 2197.02 Q2115.58 2200.24 2115.58 2205.08 Q2115.58 2211.44 2111.25 2214.91 Q2106.92 2218.38 2098.93 2218.38 L2081.87 2218.38 L2081.87 2170.86 Z" fill="#000000" fill-rule="nonzero" fill-opacity="1" /><path clip-path="url(#clip060)" d="M2125.73 2204.31 L2125.73 2182.73 L2131.59 2182.73 L2131.59 2204.09 Q2131.59 2209.15 2133.56 2211.7 Q2135.54 2214.21 2139.48 2214.21 Q2144.22 2214.21 2146.96 2211.19 Q2149.73 2208.16 2149.73 2202.94 L2149.73 2182.73 L2155.59 2182.73 L2155.59 2218.38 L2149.73 2218.38 L2149.73 2212.91 Q2147.6 2216.15 2144.77 2217.74 Q2141.96 2219.3 2138.24 2219.3 Q2132.1 2219.3 2128.92 2215.48 Q2125.73 2211.66 2125.73 2204.31 M2140.47 2181.87 L2140.47 2181.87 Z" fill="#000000" fill-rule="nonzero" fill-opacity="1" /><path clip-path="url(#clip060)" d="M2190.38 2183.78 L2190.38 2189.32 Q2187.89 2188.05 2185.22 2187.41 Q2182.55 2186.77 2179.68 2186.77 Q2175.32 2186.77 2173.12 2188.11 Q2170.96 2189.45 2170.96 2192.12 Q2170.96 2194.16 2172.52 2195.34 Q2174.08 2196.48 2178.79 2197.53 L2180.8 2197.98 Q2187.03 2199.31 2189.64 2201.77 Q2192.29 2204.18 2192.29 2208.54 Q2192.29 2213.51 2188.34 2216.41 Q2184.42 2219.3 2177.55 2219.3 Q2174.68 2219.3 2171.57 2218.73 Q2168.48 2218.19 2165.04 2217.07 L2165.04 2211.03 Q2168.29 2212.71 2171.44 2213.57 Q2174.59 2214.4 2177.68 2214.4 Q2181.81 2214.4 2184.04 2213 Q2186.27 2211.57 2186.27 2208.99 Q2186.27 2206.6 2184.65 2205.33 Q2183.06 2204.06 2177.61 2202.88 L2175.58 2202.4 Q2170.13 2201.26 2167.71 2198.9 Q2165.3 2196.51 2165.3 2192.38 Q2165.3 2187.35 2168.86 2184.61 Q2172.42 2181.87 2178.98 2181.87 Q2182.23 2181.87 2185.09 2182.35 Q2187.96 2182.83 2190.38 2183.78 Z" fill="#000000" fill-rule="nonzero" fill-opacity="1" /><polyline clip-path="url(#clip060)" style="stroke:#000000; stroke-linecap:round; stroke-linejoin:round; stroke-width:4; stroke-opacity:1; fill:none" points="386.242,1992.94 386.242,171.344 "/>
<polyline clip-path="url(#clip060)" style="stroke:#000000; stroke-linecap:round; stroke-linejoin:round; stroke-width:4; stroke-opacity:1; fill:none" points="386.242,1992.94 401.396,1992.94 "/>
<polyline clip-path="url(#clip060)" style="stroke:#000000; stroke-linecap:round; stroke-linejoin:round; stroke-width:4; stroke-opacity:1; fill:none" points="386.242,1537.54 401.396,1537.54 "/>
<polyline clip-path="url(#clip060)" style="stroke:#000000; stroke-linecap:round; stroke-linejoin:round; stroke-width:4; stroke-opacity:1; fill:none" points="386.242,1082.14 401.396,1082.14 "/>
<polyline clip-path="url(#clip060)" style="stroke:#000000; stroke-linecap:round; stroke-linejoin:round; stroke-width:4; stroke-opacity:1; fill:none" points="386.242,626.743 401.396,626.743 "/>
<polyline clip-path="url(#clip060)" style="stroke:#000000; stroke-linecap:round; stroke-linejoin:round; stroke-width:4; stroke-opacity:1; fill:none" points="386.242,171.344 401.396,171.344 "/>
<path clip-path="url(#clip060)" d="M302.297 1978.74 Q298.686 1978.74 296.857 1982.3 Q295.052 1985.84 295.052 1992.97 Q295.052 2000.08 296.857 2003.65 Q298.686 2007.19 302.297 2007.19 Q305.931 2007.19 307.737 2003.65 Q309.566 2000.08 309.566 1992.97 Q309.566 1985.84 307.737 1982.3 Q305.931 1978.74 302.297 1978.74 M302.297 1975.03 Q308.107 1975.03 311.163 1979.64 Q314.242 1984.22 314.242 1992.97 Q314.242 2001.7 311.163 2006.31 Q308.107 2010.89 302.297 2010.89 Q296.487 2010.89 293.408 2006.31 Q290.353 2001.7 290.353 1992.97 Q290.353 1984.22 293.408 1979.64 Q296.487 1975.03 302.297 1975.03 Z" fill="#000000" fill-rule="nonzero" fill-opacity="1" /><path clip-path="url(#clip060)" d="M267.159 1550.89 L283.478 1550.89 L283.478 1554.82 L261.534 1554.82 L261.534 1550.89 Q264.196 1548.13 268.779 1543.5 Q273.385 1538.85 274.566 1537.51 Q276.811 1534.98 277.691 1533.25 Q278.594 1531.49 278.594 1529.8 Q278.594 1527.04 276.649 1525.31 Q274.728 1523.57 271.626 1523.57 Q269.427 1523.57 266.973 1524.33 Q264.543 1525.1 261.765 1526.65 L261.765 1521.93 Q264.589 1520.79 267.043 1520.21 Q269.496 1519.64 271.534 1519.64 Q276.904 1519.64 280.098 1522.32 Q283.293 1525.01 283.293 1529.5 Q283.293 1531.63 282.483 1533.55 Q281.696 1535.45 279.589 1538.04 Q279.01 1538.71 275.909 1541.93 Q272.807 1545.12 267.159 1550.89 Z" fill="#000000" fill-rule="nonzero" fill-opacity="1" /><path clip-path="url(#clip060)" d="M293.339 1520.26 L311.695 1520.26 L311.695 1524.2 L297.621 1524.2 L297.621 1532.67 Q298.64 1532.32 299.658 1532.16 Q300.677 1531.97 301.695 1531.97 Q307.482 1531.97 310.862 1535.14 Q314.242 1538.32 314.242 1543.73 Q314.242 1549.31 310.769 1552.41 Q307.297 1555.49 300.978 1555.49 Q298.802 1555.49 296.533 1555.12 Q294.288 1554.75 291.881 1554.01 L291.881 1549.31 Q293.964 1550.45 296.186 1551 Q298.408 1551.56 300.885 1551.56 Q304.89 1551.56 307.228 1549.45 Q309.566 1547.34 309.566 1543.73 Q309.566 1540.12 307.228 1538.01 Q304.89 1535.91 300.885 1535.91 Q299.01 1535.91 297.135 1536.33 Q295.283 1536.74 293.339 1537.62 L293.339 1520.26 Z" fill="#000000" fill-rule="nonzero" fill-opacity="1" /><path clip-path="url(#clip060)" d="M262.182 1064.86 L280.538 1064.86 L280.538 1068.8 L266.464 1068.8 L266.464 1077.27 Q267.483 1076.92 268.501 1076.76 Q269.52 1076.57 270.538 1076.57 Q276.325 1076.57 279.705 1079.75 Q283.084 1082.92 283.084 1088.33 Q283.084 1093.91 279.612 1097.01 Q276.14 1100.09 269.821 1100.09 Q267.645 1100.09 265.376 1099.72 Q263.131 1099.35 260.723 1098.61 L260.723 1093.91 Q262.807 1095.05 265.029 1095.6 Q267.251 1096.16 269.728 1096.16 Q273.733 1096.16 276.071 1094.05 Q278.408 1091.94 278.408 1088.33 Q278.408 1084.72 276.071 1082.62 Q273.733 1080.51 269.728 1080.51 Q267.853 1080.51 265.978 1080.93 Q264.126 1081.34 262.182 1082.22 L262.182 1064.86 Z" fill="#000000" fill-rule="nonzero" fill-opacity="1" /><path clip-path="url(#clip060)" d="M302.297 1067.94 Q298.686 1067.94 296.857 1071.51 Q295.052 1075.05 295.052 1082.18 Q295.052 1089.28 296.857 1092.85 Q298.686 1096.39 302.297 1096.39 Q305.931 1096.39 307.737 1092.85 Q309.566 1089.28 309.566 1082.18 Q309.566 1075.05 307.737 1071.51 Q305.931 1067.94 302.297 1067.94 M302.297 1064.24 Q308.107 1064.24 311.163 1068.84 Q314.242 1073.43 314.242 1082.18 Q314.242 1090.9 311.163 1095.51 Q308.107 1100.09 302.297 1100.09 Q296.487 1100.09 293.408 1095.51 Q290.353 1090.9 290.353 1082.18 Q290.353 1073.43 293.408 1068.84 Q296.487 1064.24 302.297 1064.24 Z" fill="#000000" fill-rule="nonzero" fill-opacity="1" /><path clip-path="url(#clip060)" d="M261.95 609.463 L284.172 609.463 L284.172 611.454 L271.626 644.023 L266.742 644.023 L278.547 613.398 L261.95 613.398 L261.95 609.463 Z" fill="#000000" fill-rule="nonzero" fill-opacity="1" /><path clip-path="url(#clip060)" d="M293.339 609.463 L311.695 609.463 L311.695 613.398 L297.621 613.398 L297.621 621.87 Q298.64 621.523 299.658 621.361 Q300.677 621.176 301.695 621.176 Q307.482 621.176 310.862 624.347 Q314.242 627.518 314.242 632.935 Q314.242 638.514 310.769 641.616 Q307.297 644.694 300.978 644.694 Q298.802 644.694 296.533 644.324 Q294.288 643.954 291.881 643.213 L291.881 638.514 Q293.964 639.648 296.186 640.204 Q298.408 640.759 300.885 640.759 Q304.89 640.759 307.228 638.653 Q309.566 636.546 309.566 632.935 Q309.566 629.324 307.228 627.218 Q304.89 625.111 300.885 625.111 Q299.01 625.111 297.135 625.528 Q295.283 625.944 293.339 626.824 L293.339 609.463 Z" fill="#000000" fill-rule="nonzero" fill-opacity="1" /><path clip-path="url(#clip060)" d="M232.784 184.689 L240.423 184.689 L240.423 158.324 L232.112 159.99 L232.112 155.731 L240.376 154.064 L245.052 154.064 L245.052 184.689 L252.691 184.689 L252.691 188.624 L232.784 188.624 L232.784 184.689 Z" fill="#000000" fill-rule="nonzero" fill-opacity="1" /><path clip-path="url(#clip060)" d="M272.135 157.143 Q268.524 157.143 266.696 160.708 Q264.89 164.249 264.89 171.379 Q264.89 178.485 266.696 182.05 Q268.524 185.592 272.135 185.592 Q275.77 185.592 277.575 182.05 Q279.404 178.485 279.404 171.379 Q279.404 164.249 277.575 160.708 Q275.77 157.143 272.135 157.143 M272.135 153.439 Q277.946 153.439 281.001 158.046 Q284.08 162.629 284.08 171.379 Q284.08 180.106 281.001 184.712 Q277.946 189.296 272.135 189.296 Q266.325 189.296 263.247 184.712 Q260.191 180.106 260.191 171.379 Q260.191 162.629 263.247 158.046 Q266.325 153.439 272.135 153.439 Z" fill="#000000" fill-rule="nonzero" fill-opacity="1" /><path clip-path="url(#clip060)" d="M302.297 157.143 Q298.686 157.143 296.857 160.708 Q295.052 164.249 295.052 171.379 Q295.052 178.485 296.857 182.05 Q298.686 185.592 302.297 185.592 Q305.931 185.592 307.737 182.05 Q309.566 178.485 309.566 171.379 Q309.566 164.249 307.737 160.708 Q305.931 157.143 302.297 157.143 M302.297 153.439 Q308.107 153.439 311.163 158.046 Q314.242 162.629 314.242 171.379 Q314.242 180.106 311.163 184.712 Q308.107 189.296 302.297 189.296 Q296.487 189.296 293.408 184.712 Q290.353 180.106 290.353 171.379 Q290.353 162.629 293.408 158.046 Q296.487 153.439 302.297 153.439 Z" fill="#000000" fill-rule="nonzero" fill-opacity="1" /><path clip-path="url(#clip060)" d="M98.3364 1345.62 L98.3364 1339.19 L140.446 1339.19 L140.446 1316.05 L145.856 1316.05 L145.856 1345.62 L98.3364 1345.62 Z" fill="#000000" fill-rule="nonzero" fill-opacity="1" /><path clip-path="url(#clip060)" d="M114.314 1296.89 Q114.314 1301.6 118.006 1304.34 Q121.667 1307.07 128.064 1307.07 Q134.462 1307.07 138.154 1304.37 Q141.814 1301.63 141.814 1296.89 Q141.814 1292.21 138.122 1289.47 Q134.43 1286.74 128.064 1286.74 Q121.73 1286.74 118.038 1289.47 Q114.314 1292.21 114.314 1296.89 M109.349 1296.89 Q109.349 1289.25 114.314 1284.89 Q119.28 1280.53 128.064 1280.53 Q136.817 1280.53 141.814 1284.89 Q146.779 1289.25 146.779 1296.89 Q146.779 1304.56 141.814 1308.92 Q136.817 1313.25 128.064 1313.25 Q119.28 1313.25 114.314 1308.92 Q109.349 1304.56 109.349 1296.89 Z" fill="#000000" fill-rule="nonzero" fill-opacity="1" /><path clip-path="url(#clip060)" d="M127.937 1254.62 Q127.937 1261.72 129.56 1264.46 Q131.183 1267.19 135.098 1267.19 Q138.218 1267.19 140.064 1265.16 Q141.878 1263.09 141.878 1259.55 Q141.878 1254.68 138.44 1251.76 Q134.971 1248.8 129.242 1248.8 L127.937 1248.8 L127.937 1254.62 M125.518 1242.94 L145.856 1242.94 L145.856 1248.8 L140.446 1248.8 Q143.692 1250.8 145.252 1253.79 Q146.779 1256.78 146.779 1261.11 Q146.779 1266.59 143.724 1269.83 Q140.637 1273.05 135.48 1273.05 Q129.465 1273.05 126.409 1269.04 Q123.354 1265 123.354 1257.01 L123.354 1248.8 L122.781 1248.8 Q118.739 1248.8 116.542 1251.47 Q114.314 1254.11 114.314 1258.92 Q114.314 1261.97 115.046 1264.87 Q115.778 1267.77 117.243 1270.44 L111.832 1270.44 Q110.59 1267.22 109.986 1264.2 Q109.349 1261.18 109.349 1258.31 Q109.349 1250.58 113.36 1246.76 Q117.37 1242.94 125.518 1242.94 Z" fill="#000000" fill-rule="nonzero" fill-opacity="1" /><path clip-path="url(#clip060)" d="M115.619 1207.42 L96.3312 1207.42 L96.3312 1201.56 L145.856 1201.56 L145.856 1207.42 L140.509 1207.42 Q143.692 1209.26 145.252 1212.1 Q146.779 1214.9 146.779 1218.85 Q146.779 1225.31 141.623 1229.38 Q136.467 1233.42 128.064 1233.42 Q119.662 1233.42 114.505 1229.38 Q109.349 1225.31 109.349 1218.85 Q109.349 1214.9 110.909 1212.1 Q112.436 1209.26 115.619 1207.42 M128.064 1227.38 Q134.525 1227.38 138.218 1224.73 Q141.878 1222.06 141.878 1217.41 Q141.878 1212.77 138.218 1210.09 Q134.525 1207.42 128.064 1207.42 Q121.603 1207.42 117.943 1210.09 Q114.251 1212.77 114.251 1217.41 Q114.251 1222.06 117.943 1224.73 Q121.603 1227.38 128.064 1227.38 Z" fill="#000000" fill-rule="nonzero" fill-opacity="1" /><path clip-path="url(#clip060)" d="M99.896 1140.04 L106.166 1140.04 Q104.416 1143.7 103.556 1146.94 Q102.697 1150.19 102.697 1153.21 Q102.697 1158.47 104.734 1161.33 Q106.771 1164.16 110.527 1164.16 Q113.678 1164.16 115.301 1162.29 Q116.892 1160.38 117.879 1155.09 L118.675 1151.21 Q120.044 1144.02 123.513 1140.61 Q126.95 1137.17 132.743 1137.17 Q139.65 1137.17 143.215 1141.82 Q146.779 1146.44 146.779 1155.38 Q146.779 1158.75 146.016 1162.57 Q145.252 1166.36 143.756 1170.43 L137.135 1170.43 Q139.332 1166.52 140.446 1162.76 Q141.56 1159.01 141.56 1155.38 Q141.56 1149.87 139.395 1146.88 Q137.231 1143.89 133.221 1143.89 Q129.719 1143.89 127.746 1146.05 Q125.773 1148.19 124.786 1153.09 L124.022 1157 Q122.59 1164.2 119.534 1167.41 Q116.479 1170.63 111.036 1170.63 Q104.734 1170.63 101.106 1166.2 Q97.4771 1161.74 97.4771 1153.95 Q97.4771 1150.6 98.0818 1147.14 Q98.6866 1143.67 99.896 1140.04 Z" fill="#000000" fill-rule="nonzero" fill-opacity="1" /><path clip-path="url(#clip060)" d="M126.568 1096.91 L129.433 1096.91 L129.433 1123.84 Q135.48 1123.46 138.663 1120.21 Q141.814 1116.93 141.814 1111.11 Q141.814 1107.73 140.987 1104.58 Q140.159 1101.4 138.504 1098.28 L144.042 1098.28 Q145.379 1101.43 146.079 1104.74 Q146.779 1108.05 146.779 1111.46 Q146.779 1119.99 141.814 1124.98 Q136.849 1129.95 128.383 1129.95 Q119.63 1129.95 114.505 1125.24 Q109.349 1120.5 109.349 1112.47 Q109.349 1105.28 113.996 1101.11 Q118.611 1096.91 126.568 1096.91 M124.85 1102.77 Q120.044 1102.83 117.179 1105.47 Q114.314 1108.08 114.314 1112.41 Q114.314 1117.31 117.083 1120.27 Q119.853 1123.2 124.881 1123.65 L124.85 1102.77 Z" fill="#000000" fill-rule="nonzero" fill-opacity="1" /><path clip-path="url(#clip060)" d="M115.683 1066.64 Q115.11 1067.63 114.855 1068.81 Q114.569 1069.95 114.569 1071.35 Q114.569 1076.32 117.816 1078.99 Q121.03 1081.63 127.078 1081.63 L145.856 1081.63 L145.856 1087.52 L110.208 1087.52 L110.208 1081.63 L115.747 1081.63 Q112.5 1079.79 110.941 1076.83 Q109.349 1073.87 109.349 1069.63 Q109.349 1069.03 109.445 1068.3 Q109.508 1067.56 109.667 1066.67 L115.683 1066.64 Z" fill="#000000" fill-rule="nonzero" fill-opacity="1" /><path clip-path="url(#clip060)" d="M110.208 1064.7 L110.208 1058.49 L140.127 1047.35 L110.208 1036.21 L110.208 1030.01 L145.856 1043.37 L145.856 1051.33 L110.208 1064.7 Z" fill="#000000" fill-rule="nonzero" fill-opacity="1" /><path clip-path="url(#clip060)" d="M126.568 991.43 L129.433 991.43 L129.433 1018.36 Q135.48 1017.98 138.663 1014.73 Q141.814 1011.45 141.814 1005.63 Q141.814 1002.25 140.987 999.101 Q140.159 995.918 138.504 992.799 L144.042 992.799 Q145.379 995.95 146.079 999.26 Q146.779 1002.57 146.779 1005.98 Q146.779 1014.51 141.814 1019.5 Q136.849 1024.47 128.383 1024.47 Q119.63 1024.47 114.505 1019.76 Q109.349 1015.02 109.349 1006.99 Q109.349 999.801 113.996 995.632 Q118.611 991.43 126.568 991.43 M124.85 997.287 Q120.044 997.351 117.179 999.992 Q114.314 1002.6 114.314 1006.93 Q114.314 1011.83 117.083 1014.79 Q119.853 1017.72 124.881 1018.17 L124.85 997.287 Z" fill="#000000" fill-rule="nonzero" fill-opacity="1" /><path clip-path="url(#clip060)" d="M115.619 958.361 L96.3312 958.361 L96.3312 952.504 L145.856 952.504 L145.856 958.361 L140.509 958.361 Q143.692 960.207 145.252 963.039 Q146.779 965.84 146.779 969.787 Q146.779 976.248 141.623 980.322 Q136.467 984.364 128.064 984.364 Q119.662 984.364 114.505 980.322 Q109.349 976.248 109.349 969.787 Q109.349 965.84 110.909 963.039 Q112.436 960.207 115.619 958.361 M128.064 978.317 Q134.525 978.317 138.218 975.675 Q141.878 973.002 141.878 968.355 Q141.878 963.708 138.218 961.034 Q134.525 958.361 128.064 958.361 Q121.603 958.361 117.943 961.034 Q114.251 963.708 114.251 968.355 Q114.251 973.002 117.943 975.675 Q121.603 978.317 128.064 978.317 Z" fill="#000000" fill-rule="nonzero" fill-opacity="1" /><path clip-path="url(#clip060)" d="M96.3949 905.653 Q103.715 909.918 110.877 911.986 Q118.038 914.055 125.391 914.055 Q132.743 914.055 139.968 911.986 Q147.161 909.886 154.45 905.653 L154.45 910.745 Q146.97 915.519 139.745 917.906 Q132.52 920.262 125.391 920.262 Q118.293 920.262 111.1 917.906 Q103.906 915.551 96.3949 910.745 L96.3949 905.653 Z" fill="#000000" fill-rule="nonzero" fill-opacity="1" /><path clip-path="url(#clip060)" d="M124.945 853.04 Q124.945 855.809 127.3 857.4 Q129.656 858.96 133.857 858.96 Q137.995 858.96 140.382 857.4 Q142.737 855.809 142.737 853.04 Q142.737 850.335 140.382 848.775 Q137.995 847.183 133.857 847.183 Q129.688 847.183 127.332 848.775 Q124.945 850.335 124.945 853.04 M120.903 853.04 Q120.903 848.011 124.404 845.051 Q127.905 842.091 133.857 842.091 Q139.809 842.091 143.31 845.083 Q146.779 848.043 146.779 853.04 Q146.779 858.133 143.31 861.093 Q139.809 864.053 133.857 864.053 Q127.873 864.053 124.404 861.093 Q120.903 858.101 120.903 853.04 M101.519 885.887 Q101.519 888.624 103.906 890.216 Q106.262 891.775 110.399 891.775 Q114.601 891.775 116.956 890.216 Q119.311 888.656 119.311 885.887 Q119.311 883.118 116.956 881.558 Q114.601 879.967 110.399 879.967 Q106.294 879.967 103.906 881.558 Q101.519 883.15 101.519 885.887 M97.4771 857.146 L97.4771 852.053 L146.779 881.781 L146.779 886.874 L97.4771 857.146 M97.4771 885.887 Q97.4771 880.858 100.978 877.866 Q104.448 874.874 110.399 874.874 Q116.415 874.874 119.884 877.866 Q123.354 880.826 123.354 885.887 Q123.354 890.948 119.884 893.908 Q116.383 896.836 110.399 896.836 Q104.479 896.836 100.978 893.876 Q97.4771 890.916 97.4771 885.887 Z" fill="#000000" fill-rule="nonzero" fill-opacity="1" /><path clip-path="url(#clip060)" d="M96.3949 833.274 L96.3949 828.182 Q103.906 823.408 111.1 821.052 Q118.293 818.665 125.391 818.665 Q132.52 818.665 139.745 821.052 Q146.97 823.408 154.45 828.182 L154.45 833.274 Q147.161 829.041 139.968 826.972 Q132.743 824.872 125.391 824.872 Q118.038 824.872 110.877 826.972 Q103.715 829.041 96.3949 833.274 Z" fill="#000000" fill-rule="nonzero" fill-opacity="1" /><path clip-path="url(#clip060)" d="M1164.23 20.1573 L1153.13 50.2555 L1175.37 50.2555 L1164.23 20.1573 M1159.62 12.096 L1168.89 12.096 L1191.94 72.576 L1183.44 72.576 L1177.93 57.061 L1150.66 57.061 L1145.15 72.576 L1136.53 72.576 L1159.62 12.096 Z" fill="#000000" fill-rule="nonzero" fill-opacity="1" /><path clip-path="url(#clip060)" d="M1231.64 28.9478 L1231.64 35.9153 Q1228.48 34.1734 1225.28 33.3227 Q1222.12 32.4315 1218.88 32.4315 Q1211.63 32.4315 1207.62 37.0496 Q1203.61 41.6271 1203.61 49.9314 Q1203.61 58.2358 1207.62 62.8538 Q1211.63 67.4314 1218.88 67.4314 Q1222.12 67.4314 1225.28 66.5807 Q1228.48 65.6895 1231.64 63.9476 L1231.64 70.8341 Q1228.52 72.2924 1225.16 73.0216 Q1221.84 73.7508 1218.07 73.7508 Q1207.82 73.7508 1201.79 67.3098 Q1195.75 60.8689 1195.75 49.9314 Q1195.75 38.832 1201.83 32.472 Q1207.94 26.1121 1218.56 26.1121 Q1222 26.1121 1225.28 26.8413 Q1228.56 27.5299 1231.64 28.9478 Z" fill="#000000" fill-rule="nonzero" fill-opacity="1" /><path clip-path="url(#clip060)" d="M1251.98 14.324 L1251.98 27.2059 L1267.33 27.2059 L1267.33 32.9987 L1251.98 32.9987 L1251.98 57.6282 Q1251.98 63.1779 1253.48 64.7578 Q1255.01 66.3376 1259.67 66.3376 L1267.33 66.3376 L1267.33 72.576 L1259.67 72.576 Q1251.05 72.576 1247.76 69.3758 Q1244.48 66.1351 1244.48 57.6282 L1244.48 32.9987 L1239.01 32.9987 L1239.01 27.2059 L1244.48 27.2059 L1244.48 14.324 L1251.98 14.324 Z" fill="#000000" fill-rule="nonzero" fill-opacity="1" /><path clip-path="url(#clip060)" d="M1277.13 27.2059 L1284.59 27.2059 L1284.59 72.576 L1277.13 72.576 L1277.13 27.2059 M1277.13 9.54393 L1284.59 9.54393 L1284.59 18.9825 L1277.13 18.9825 L1277.13 9.54393 Z" fill="#000000" fill-rule="nonzero" fill-opacity="1" /><path clip-path="url(#clip060)" d="M1294.84 27.2059 L1302.73 27.2059 L1316.91 65.2844 L1331.09 27.2059 L1338.99 27.2059 L1321.98 72.576 L1311.85 72.576 L1294.84 27.2059 Z" fill="#000000" fill-rule="nonzero" fill-opacity="1" /><path clip-path="url(#clip060)" d="M1388.09 48.0275 L1388.09 51.6733 L1353.82 51.6733 Q1354.3 59.3701 1358.43 63.421 Q1362.61 67.4314 1370.02 67.4314 Q1374.31 67.4314 1378.32 66.3781 Q1382.38 65.3249 1386.35 63.2184 L1386.35 70.267 Q1382.33 71.9684 1378.12 72.8596 Q1373.91 73.7508 1369.57 73.7508 Q1358.72 73.7508 1352.36 67.4314 Q1346.04 61.1119 1346.04 50.3365 Q1346.04 39.1965 1352.03 32.6746 Q1358.07 26.1121 1368.28 26.1121 Q1377.43 26.1121 1382.74 32.0264 Q1388.09 37.9003 1388.09 48.0275 M1380.63 45.84 Q1380.55 39.7232 1377.19 36.0774 Q1373.87 32.4315 1368.36 32.4315 Q1362.12 32.4315 1358.35 35.9558 Q1354.63 39.4801 1354.06 45.8805 L1380.63 45.84 Z" fill="#000000" fill-rule="nonzero" fill-opacity="1" /><path clip-path="url(#clip060)" d="M1435.2 18.8205 L1435.2 41.5461 L1445.49 41.5461 Q1451.2 41.5461 1454.32 38.5889 Q1457.44 35.6318 1457.44 30.163 Q1457.44 24.7348 1454.32 21.7777 Q1451.2 18.8205 1445.49 18.8205 L1435.2 18.8205 M1427.02 12.096 L1445.49 12.096 Q1455.66 12.096 1460.84 16.714 Q1466.07 21.2916 1466.07 30.163 Q1466.07 39.1155 1460.84 43.6931 Q1455.66 48.2706 1445.49 48.2706 L1435.2 48.2706 L1435.2 72.576 L1427.02 72.576 L1427.02 12.096 Z" fill="#000000" fill-rule="nonzero" fill-opacity="1" /><path clip-path="url(#clip060)" d="M1491.34 32.4315 Q1485.35 32.4315 1481.87 37.1306 Q1478.38 41.7891 1478.38 49.9314 Q1478.38 58.0738 1481.83 62.7728 Q1485.31 67.4314 1491.34 67.4314 Q1497.3 67.4314 1500.78 62.7323 Q1504.27 58.0333 1504.27 49.9314 Q1504.27 41.8701 1500.78 37.1711 Q1497.3 32.4315 1491.34 32.4315 M1491.34 26.1121 Q1501.07 26.1121 1506.62 32.4315 Q1512.17 38.7509 1512.17 49.9314 Q1512.17 61.0714 1506.62 67.4314 Q1501.07 73.7508 1491.34 73.7508 Q1481.58 73.7508 1476.03 67.4314 Q1470.52 61.0714 1470.52 49.9314 Q1470.52 38.7509 1476.03 32.4315 Q1481.58 26.1121 1491.34 26.1121 Z" fill="#000000" fill-rule="nonzero" fill-opacity="1" /><path clip-path="url(#clip060)" d="M1520.19 27.2059 L1527.64 27.2059 L1536.96 62.6108 L1546.23 27.2059 L1555.02 27.2059 L1564.34 62.6108 L1573.62 27.2059 L1581.07 27.2059 L1569.2 72.576 L1560.41 72.576 L1550.65 35.3887 L1540.85 72.576 L1532.06 72.576 L1520.19 27.2059 Z" fill="#000000" fill-rule="nonzero" fill-opacity="1" /><path clip-path="url(#clip060)" d="M1631.18 48.0275 L1631.18 51.6733 L1596.91 51.6733 Q1597.4 59.3701 1601.53 63.421 Q1605.7 67.4314 1613.11 67.4314 Q1617.41 67.4314 1621.42 66.3781 Q1625.47 65.3249 1629.44 63.2184 L1629.44 70.267 Q1625.43 71.9684 1621.22 72.8596 Q1617 73.7508 1612.67 73.7508 Q1601.81 73.7508 1595.45 67.4314 Q1589.13 61.1119 1589.13 50.3365 Q1589.13 39.1965 1595.13 32.6746 Q1601.16 26.1121 1611.37 26.1121 Q1620.53 26.1121 1625.83 32.0264 Q1631.18 37.9003 1631.18 48.0275 M1623.73 45.84 Q1623.65 39.7232 1620.29 36.0774 Q1616.96 32.4315 1611.45 32.4315 Q1605.22 32.4315 1601.45 35.9558 Q1597.72 39.4801 1597.15 45.8805 L1623.73 45.84 Z" fill="#000000" fill-rule="nonzero" fill-opacity="1" /><path clip-path="url(#clip060)" d="M1669.71 34.1734 Q1668.45 33.4443 1666.95 33.1202 Q1665.49 32.7556 1663.71 32.7556 Q1657.39 32.7556 1653.99 36.8875 Q1650.63 40.9789 1650.63 48.6757 L1650.63 72.576 L1643.13 72.576 L1643.13 27.2059 L1650.63 27.2059 L1650.63 34.2544 Q1652.98 30.1225 1656.74 28.1376 Q1660.51 26.1121 1665.9 26.1121 Q1666.67 26.1121 1667.6 26.2337 Q1668.53 26.3147 1669.67 26.5172 L1669.71 34.1734 Z" fill="#000000" fill-rule="nonzero" fill-opacity="1" /><path clip-path="url(#clip060)" d="M1704.22 12.096 L1712.4 12.096 L1712.4 65.6895 L1741.85 65.6895 L1741.85 72.576 L1704.22 72.576 L1704.22 12.096 Z" fill="#000000" fill-rule="nonzero" fill-opacity="1" /><path clip-path="url(#clip060)" d="M1766.24 32.4315 Q1760.24 32.4315 1756.76 37.1306 Q1753.28 41.7891 1753.28 49.9314 Q1753.28 58.0738 1756.72 62.7728 Q1760.2 67.4314 1766.24 67.4314 Q1772.19 67.4314 1775.68 62.7323 Q1779.16 58.0333 1779.16 49.9314 Q1779.16 41.8701 1775.68 37.1711 Q1772.19 32.4315 1766.24 32.4315 M1766.24 26.1121 Q1775.96 26.1121 1781.51 32.4315 Q1787.06 38.7509 1787.06 49.9314 Q1787.06 61.0714 1781.51 67.4314 Q1775.96 73.7508 1766.24 73.7508 Q1756.48 73.7508 1750.93 67.4314 Q1745.42 61.0714 1745.42 49.9314 Q1745.42 38.7509 1750.93 32.4315 Q1756.48 26.1121 1766.24 26.1121 Z" fill="#000000" fill-rule="nonzero" fill-opacity="1" /><path clip-path="url(#clip060)" d="M1820.04 49.7694 Q1811 49.7694 1807.52 51.8354 Q1804.03 53.9013 1804.03 58.8839 Q1804.03 62.8538 1806.63 65.2034 Q1809.26 67.5124 1813.76 67.5124 Q1819.95 67.5124 1823.68 63.1374 Q1827.45 58.7219 1827.45 51.4303 L1827.45 49.7694 L1820.04 49.7694 M1834.9 46.6907 L1834.9 72.576 L1827.45 72.576 L1827.45 65.6895 Q1824.9 69.8214 1821.09 71.8063 Q1817.28 73.7508 1811.77 73.7508 Q1804.8 73.7508 1800.67 69.8619 Q1796.58 65.9325 1796.58 59.3701 Q1796.58 51.7138 1801.68 47.825 Q1806.83 43.9361 1817 43.9361 L1827.45 43.9361 L1827.45 43.2069 Q1827.45 38.0623 1824.05 35.2672 Q1820.68 32.4315 1814.57 32.4315 Q1810.68 32.4315 1806.99 33.3632 Q1803.3 34.295 1799.9 36.1584 L1799.9 29.2718 Q1803.99 27.692 1807.84 26.9223 Q1811.69 26.1121 1815.34 26.1121 Q1825.18 26.1121 1830.04 31.2163 Q1834.9 36.3204 1834.9 46.6907 Z" fill="#000000" fill-rule="nonzero" fill-opacity="1" /><path clip-path="url(#clip060)" d="M1880.11 34.0924 L1880.11 9.54393 L1887.56 9.54393 L1887.56 72.576 L1880.11 72.576 L1880.11 65.7705 Q1877.76 69.8214 1874.16 71.8063 Q1870.59 73.7508 1865.57 73.7508 Q1857.34 73.7508 1852.16 67.1883 Q1847.01 60.6258 1847.01 49.9314 Q1847.01 39.2371 1852.16 32.6746 Q1857.34 26.1121 1865.57 26.1121 Q1870.59 26.1121 1874.16 28.0971 Q1877.76 30.0415 1880.11 34.0924 M1854.71 49.9314 Q1854.71 58.1548 1858.07 62.8538 Q1861.48 67.5124 1867.39 67.5124 Q1873.3 67.5124 1876.71 62.8538 Q1880.11 58.1548 1880.11 49.9314 Q1880.11 41.7081 1876.71 37.0496 Q1873.3 32.3505 1867.39 32.3505 Q1861.48 32.3505 1858.07 37.0496 Q1854.71 41.7081 1854.71 49.9314 Z" fill="#000000" fill-rule="nonzero" fill-opacity="1" /><path clip-path="url(#clip060)" d="M1965.87 14.0809 L1965.87 22.0612 Q1961.21 19.8332 1957.08 18.7395 Q1952.95 17.6457 1949.1 17.6457 Q1942.41 17.6457 1938.77 20.2383 Q1935.16 22.8309 1935.16 27.611 Q1935.16 31.6214 1937.55 33.6873 Q1939.98 35.7128 1946.71 36.9686 L1951.65 37.9813 Q1960.8 39.7232 1965.14 44.1387 Q1969.51 48.5136 1969.51 55.8863 Q1969.51 64.6767 1963.6 69.2137 Q1957.73 73.7508 1946.34 73.7508 Q1942.05 73.7508 1937.19 72.7785 Q1932.37 71.8063 1927.18 69.9024 L1927.18 61.4765 Q1932.16 64.2716 1936.94 65.6895 Q1941.72 67.1073 1946.34 67.1073 Q1953.35 67.1073 1957.16 64.3527 Q1960.97 61.598 1960.97 56.4939 Q1960.97 52.0379 1958.21 49.5264 Q1955.5 47.0148 1949.26 45.759 L1944.28 44.7868 Q1935.12 42.9639 1931.03 39.075 Q1926.94 35.1862 1926.94 28.2591 Q1926.94 20.2383 1932.57 15.6203 Q1938.24 11.0023 1948.17 11.0023 Q1952.42 11.0023 1956.83 11.7719 Q1961.25 12.5416 1965.87 14.0809 Z" fill="#000000" fill-rule="nonzero" fill-opacity="1" /><path clip-path="url(#clip060)" d="M2020.76 48.0275 L2020.76 51.6733 L1986.49 51.6733 Q1986.97 59.3701 1991.1 63.421 Q1995.28 67.4314 2002.69 67.4314 Q2006.98 67.4314 2010.99 66.3781 Q2015.05 65.3249 2019.02 63.2184 L2019.02 70.267 Q2015.01 71.9684 2010.79 72.8596 Q2006.58 73.7508 2002.24 73.7508 Q1991.39 73.7508 1985.03 67.4314 Q1978.71 61.1119 1978.71 50.3365 Q1978.71 39.1965 1984.7 32.6746 Q1990.74 26.1121 2000.95 26.1121 Q2010.1 26.1121 2015.41 32.0264 Q2020.76 37.9003 2020.76 48.0275 M2013.3 45.84 Q2013.22 39.7232 2009.86 36.0774 Q2006.54 32.4315 2001.03 32.4315 Q1994.79 32.4315 1991.02 35.9558 Q1987.3 39.4801 1986.73 45.8805 L2013.3 45.84 Z" fill="#000000" fill-rule="nonzero" fill-opacity="1" /><path clip-path="url(#clip060)" d="M2059.28 34.1734 Q2058.03 33.4443 2056.53 33.1202 Q2055.07 32.7556 2053.29 32.7556 Q2046.97 32.7556 2043.56 36.8875 Q2040.2 40.9789 2040.2 48.6757 L2040.2 72.576 L2032.71 72.576 L2032.71 27.2059 L2040.2 27.2059 L2040.2 34.2544 Q2042.55 30.1225 2046.32 28.1376 Q2050.09 26.1121 2055.47 26.1121 Q2056.24 26.1121 2057.18 26.2337 Q2058.11 26.3147 2059.24 26.5172 L2059.28 34.1734 Z" fill="#000000" fill-rule="nonzero" fill-opacity="1" /><path clip-path="url(#clip060)" d="M2061.75 27.2059 L2069.65 27.2059 L2083.83 65.2844 L2098.01 27.2059 L2105.91 27.2059 L2088.89 72.576 L2078.77 72.576 L2061.75 27.2059 Z" fill="#000000" fill-rule="nonzero" fill-opacity="1" /><path clip-path="url(#clip060)" d="M2155 48.0275 L2155 51.6733 L2120.73 51.6733 Q2121.22 59.3701 2125.35 63.421 Q2129.52 67.4314 2136.94 67.4314 Q2141.23 67.4314 2145.24 66.3781 Q2149.29 65.3249 2153.26 63.2184 L2153.26 70.267 Q2149.25 71.9684 2145.04 72.8596 Q2140.83 73.7508 2136.49 73.7508 Q2125.64 73.7508 2119.28 67.4314 Q2112.96 61.1119 2112.96 50.3365 Q2112.96 39.1965 2118.95 32.6746 Q2124.99 26.1121 2135.2 26.1121 Q2144.35 26.1121 2149.66 32.0264 Q2155 37.9003 2155 48.0275 M2147.55 45.84 Q2147.47 39.7232 2144.11 36.0774 Q2140.79 32.4315 2135.28 32.4315 Q2129.04 32.4315 2125.27 35.9558 Q2121.54 39.4801 2120.98 45.8805 L2147.55 45.84 Z" fill="#000000" fill-rule="nonzero" fill-opacity="1" /><path clip-path="url(#clip060)" d="M2197.09 34.0924 L2197.09 9.54393 L2204.55 9.54393 L2204.55 72.576 L2197.09 72.576 L2197.09 65.7705 Q2194.74 69.8214 2191.14 71.8063 Q2187.57 73.7508 2182.55 73.7508 Q2174.33 73.7508 2169.14 67.1883 Q2164 60.6258 2164 49.9314 Q2164 39.2371 2169.14 32.6746 Q2174.33 26.1121 2182.55 26.1121 Q2187.57 26.1121 2191.14 28.0971 Q2194.74 30.0415 2197.09 34.0924 M2171.69 49.9314 Q2171.69 58.1548 2175.06 62.8538 Q2178.46 67.5124 2184.37 67.5124 Q2190.29 67.5124 2193.69 62.8538 Q2197.09 58.1548 2197.09 49.9314 Q2197.09 41.7081 2193.69 37.0496 Q2190.29 32.3505 2184.37 32.3505 Q2178.46 32.3505 2175.06 37.0496 Q2171.69 41.7081 2171.69 49.9314 Z" fill="#000000" fill-rule="nonzero" fill-opacity="1" /><path clip-path="url(#clip060)" d="M2253.48 65.7705 L2253.48 89.8329 L2245.99 89.8329 L2245.99 27.2059 L2253.48 27.2059 L2253.48 34.0924 Q2255.83 30.0415 2259.4 28.0971 Q2263 26.1121 2267.98 26.1121 Q2276.25 26.1121 2281.39 32.6746 Q2286.58 39.2371 2286.58 49.9314 Q2286.58 60.6258 2281.39 67.1883 Q2276.25 73.7508 2267.98 73.7508 Q2263 73.7508 2259.4 71.8063 Q2255.83 69.8214 2253.48 65.7705 M2278.84 49.9314 Q2278.84 41.7081 2275.44 37.0496 Q2272.08 32.3505 2266.16 32.3505 Q2260.25 32.3505 2256.84 37.0496 Q2253.48 41.7081 2253.48 49.9314 Q2253.48 58.1548 2256.84 62.8538 Q2260.25 67.5124 2266.16 67.5124 Q2272.08 67.5124 2275.44 62.8538 Q2278.84 58.1548 2278.84 49.9314 Z" fill="#000000" fill-rule="nonzero" fill-opacity="1" /><path clip-path="url(#clip060)" d="M2337.74 48.0275 L2337.74 51.6733 L2303.47 51.6733 Q2303.96 59.3701 2308.09 63.421 Q2312.26 67.4314 2319.67 67.4314 Q2323.97 67.4314 2327.98 66.3781 Q2332.03 65.3249 2336 63.2184 L2336 70.267 Q2331.99 71.9684 2327.78 72.8596 Q2323.56 73.7508 2319.23 73.7508 Q2308.37 73.7508 2302.01 67.4314 Q2295.69 61.1119 2295.69 50.3365 Q2295.69 39.1965 2301.69 32.6746 Q2307.72 26.1121 2317.93 26.1121 Q2327.09 26.1121 2332.39 32.0264 Q2337.74 37.9003 2337.74 48.0275 M2330.29 45.84 Q2330.21 39.7232 2326.84 36.0774 Q2323.52 32.4315 2318.01 32.4315 Q2311.77 32.4315 2308.01 35.9558 Q2304.28 39.4801 2303.71 45.8805 L2330.29 45.84 Z" fill="#000000" fill-rule="nonzero" fill-opacity="1" /><path clip-path="url(#clip060)" d="M2376.26 34.1734 Q2375.01 33.4443 2373.51 33.1202 Q2372.05 32.7556 2370.27 32.7556 Q2363.95 32.7556 2360.55 36.8875 Q2357.19 40.9789 2357.19 48.6757 L2357.19 72.576 L2349.69 72.576 L2349.69 27.2059 L2357.19 27.2059 L2357.19 34.2544 Q2359.53 30.1225 2363.3 28.1376 Q2367.07 26.1121 2372.46 26.1121 Q2373.23 26.1121 2374.16 26.2337 Q2375.09 26.3147 2376.22 26.5172 L2376.26 34.1734 Z" fill="#000000" fill-rule="nonzero" fill-opacity="1" /><path clip-path="url(#clip060)" d="M2418.96 43.6931 L2418.96 65.8515 L2432.09 65.8515 Q2438.69 65.8515 2441.85 63.1374 Q2445.05 60.3828 2445.05 54.752 Q2445.05 49.0808 2441.85 46.4072 Q2438.69 43.6931 2432.09 43.6931 L2418.96 43.6931 M2418.96 18.8205 L2418.96 37.0496 L2431.07 37.0496 Q2437.07 37.0496 2439.99 34.8216 Q2442.94 32.5531 2442.94 27.935 Q2442.94 23.3575 2439.99 21.089 Q2437.07 18.8205 2431.07 18.8205 L2418.96 18.8205 M2410.78 12.096 L2431.68 12.096 Q2441.04 12.096 2446.1 15.9849 Q2451.17 19.8737 2451.17 27.0438 Q2451.17 32.5936 2448.57 35.8748 Q2445.98 39.156 2440.96 39.9662 Q2446.99 41.2625 2450.32 45.3944 Q2453.68 49.4858 2453.68 55.6432 Q2453.68 63.745 2448.17 68.1605 Q2442.66 72.576 2432.49 72.576 L2410.78 72.576 L2410.78 12.096 Z" fill="#000000" fill-rule="nonzero" fill-opacity="1" /><path clip-path="url(#clip060)" d="M2466.6 54.671 L2466.6 27.2059 L2474.05 27.2059 L2474.05 54.3874 Q2474.05 60.8284 2476.57 64.0691 Q2479.08 67.2693 2484.1 67.2693 Q2490.14 67.2693 2493.62 63.421 Q2497.14 59.5726 2497.14 52.9291 L2497.14 27.2059 L2504.6 27.2059 L2504.6 72.576 L2497.14 72.576 L2497.14 65.6084 Q2494.43 69.7404 2490.82 71.7658 Q2487.26 73.7508 2482.52 73.7508 Q2474.7 73.7508 2470.65 68.8897 Q2466.6 64.0286 2466.6 54.671 M2485.36 26.1121 L2485.36 26.1121 Z" fill="#000000" fill-rule="nonzero" fill-opacity="1" /><path clip-path="url(#clip060)" d="M2548.87 28.5427 L2548.87 35.5912 Q2545.71 33.9709 2542.31 33.1607 Q2538.91 32.3505 2535.26 32.3505 Q2529.71 32.3505 2526.92 34.0519 Q2524.16 35.7533 2524.16 39.156 Q2524.16 41.7486 2526.15 43.2475 Q2528.13 44.7058 2534.13 46.0426 L2536.68 46.6097 Q2544.62 48.3111 2547.94 51.4303 Q2551.3 54.509 2551.3 60.0587 Q2551.3 66.3781 2546.28 70.0644 Q2541.3 73.7508 2532.55 73.7508 Q2528.9 73.7508 2524.93 73.0216 Q2521 72.3329 2516.63 70.9151 L2516.63 63.2184 Q2520.76 65.3654 2524.77 66.4591 Q2528.78 67.5124 2532.71 67.5124 Q2537.98 67.5124 2540.81 65.73 Q2543.65 63.9071 2543.65 60.6258 Q2543.65 57.5877 2541.58 55.9673 Q2539.56 54.3469 2532.63 52.8481 L2530.04 52.2405 Q2523.11 50.7821 2520.03 47.7845 Q2516.95 44.7463 2516.95 39.4801 Q2516.95 33.0797 2521.49 29.5959 Q2526.03 26.1121 2534.37 26.1121 Q2538.5 26.1121 2542.15 26.7198 Q2545.8 27.3274 2548.87 28.5427 Z" fill="#000000" fill-rule="nonzero" fill-opacity="1" /><path clip-path="url(#clip060)" d="M2565.08 62.2867 L2573.62 62.2867 L2573.62 72.576 L2565.08 72.576 L2565.08 62.2867 M2565.08 29.6769 L2573.62 29.6769 L2573.62 39.9662 L2565.08 39.9662 L2565.08 29.6769 Z" fill="#000000" fill-rule="nonzero" fill-opacity="1" /><path clip-path="url(#clip060)" d="M2652.82 35.9153 Q2655.62 30.8922 2659.5 28.5022 Q2663.39 26.1121 2668.66 26.1121 Q2675.75 26.1121 2679.6 31.0947 Q2683.44 36.0368 2683.44 45.1919 L2683.44 72.576 L2675.95 72.576 L2675.95 45.4349 Q2675.95 38.913 2673.64 35.7533 Q2671.33 32.5936 2666.59 32.5936 Q2660.8 32.5936 2657.44 36.4419 Q2654.08 40.2903 2654.08 46.9338 L2654.08 72.576 L2646.58 72.576 L2646.58 45.4349 Q2646.58 38.8725 2644.27 35.7533 Q2641.96 32.5936 2637.14 32.5936 Q2631.43 32.5936 2628.07 36.4824 Q2624.71 40.3308 2624.71 46.9338 L2624.71 72.576 L2617.21 72.576 L2617.21 27.2059 L2624.71 27.2059 L2624.71 34.2544 Q2627.26 30.082 2630.82 28.0971 Q2634.39 26.1121 2639.29 26.1121 Q2644.23 26.1121 2647.68 28.6237 Q2651.16 31.1352 2652.82 35.9153 Z" fill="#000000" fill-rule="nonzero" fill-opacity="1" /><path clip-path="url(#clip060)" d="M2715.89 32.4315 Q2709.9 32.4315 2706.41 37.1306 Q2702.93 41.7891 2702.93 49.9314 Q2702.93 58.0738 2706.37 62.7728 Q2709.86 67.4314 2715.89 67.4314 Q2721.85 67.4314 2725.33 62.7323 Q2728.81 58.0333 2728.81 49.9314 Q2728.81 41.8701 2725.33 37.1711 Q2721.85 32.4315 2715.89 32.4315 M2715.89 26.1121 Q2725.61 26.1121 2731.16 32.4315 Q2736.71 38.7509 2736.71 49.9314 Q2736.71 61.0714 2731.16 67.4314 Q2725.61 73.7508 2715.89 73.7508 Q2706.13 73.7508 2700.58 67.4314 Q2695.07 61.0714 2695.07 49.9314 Q2695.07 38.7509 2700.58 32.4315 Q2706.13 26.1121 2715.89 26.1121 Z" fill="#000000" fill-rule="nonzero" fill-opacity="1" /><path clip-path="url(#clip060)" d="M2756.44 14.324 L2756.44 27.2059 L2771.8 27.2059 L2771.8 32.9987 L2756.44 32.9987 L2756.44 57.6282 Q2756.44 63.1779 2757.94 64.7578 Q2759.48 66.3376 2764.14 66.3376 L2771.8 66.3376 L2771.8 72.576 L2764.14 72.576 Q2755.51 72.576 2752.23 69.3758 Q2748.95 66.1351 2748.95 57.6282 L2748.95 32.9987 L2743.48 32.9987 L2743.48 27.2059 L2748.95 27.2059 L2748.95 14.324 L2756.44 14.324 Z" fill="#000000" fill-rule="nonzero" fill-opacity="1" /><path clip-path="url(#clip060)" d="M2781.6 27.2059 L2789.05 27.2059 L2789.05 72.576 L2781.6 72.576 L2781.6 27.2059 M2781.6 9.54393 L2789.05 9.54393 L2789.05 18.9825 L2781.6 18.9825 L2781.6 9.54393 Z" fill="#000000" fill-rule="nonzero" fill-opacity="1" /><path clip-path="url(#clip060)" d="M2799.3 27.2059 L2807.2 27.2059 L2821.38 65.2844 L2835.56 27.2059 L2843.46 27.2059 L2826.44 72.576 L2816.31 72.576 L2799.3 27.2059 Z" fill="#000000" fill-rule="nonzero" fill-opacity="1" /><path clip-path="url(#clip060)" d="M2874.36 49.7694 Q2865.33 49.7694 2861.85 51.8354 Q2858.36 53.9013 2858.36 58.8839 Q2858.36 62.8538 2860.96 65.2034 Q2863.59 67.5124 2868.09 67.5124 Q2874.28 67.5124 2878.01 63.1374 Q2881.78 58.7219 2881.78 51.4303 L2881.78 49.7694 L2874.36 49.7694 M2889.23 46.6907 L2889.23 72.576 L2881.78 72.576 L2881.78 65.6895 Q2879.23 69.8214 2875.42 71.8063 Q2871.61 73.7508 2866.1 73.7508 Q2859.13 73.7508 2855 69.8619 Q2850.91 65.9325 2850.91 59.3701 Q2850.91 51.7138 2856.01 47.825 Q2861.16 43.9361 2871.33 43.9361 L2881.78 43.9361 L2881.78 43.2069 Q2881.78 38.0623 2878.37 35.2672 Q2875.01 32.4315 2868.9 32.4315 Q2865.01 32.4315 2861.32 33.3632 Q2857.63 34.295 2854.23 36.1584 L2854.23 29.2718 Q2858.32 27.692 2862.17 26.9223 Q2866.02 26.1121 2869.66 26.1121 Q2879.51 26.1121 2884.37 31.2163 Q2889.23 36.3204 2889.23 46.6907 Z" fill="#000000" fill-rule="nonzero" fill-opacity="1" /><path clip-path="url(#clip060)" d="M2911.96 14.324 L2911.96 27.2059 L2927.31 27.2059 L2927.31 32.9987 L2911.96 32.9987 L2911.96 57.6282 Q2911.96 63.1779 2913.46 64.7578 Q2914.99 66.3376 2919.65 66.3376 L2927.31 66.3376 L2927.31 72.576 L2919.65 72.576 Q2911.02 72.576 2907.74 69.3758 Q2904.46 66.1351 2904.46 57.6282 L2904.46 32.9987 L2898.99 32.9987 L2898.99 27.2059 L2904.46 27.2059 L2904.46 14.324 L2911.96 14.324 Z" fill="#000000" fill-rule="nonzero" fill-opacity="1" /><path clip-path="url(#clip060)" d="M2937.11 27.2059 L2944.57 27.2059 L2944.57 72.576 L2937.11 72.576 L2937.11 27.2059 M2937.11 9.54393 L2944.57 9.54393 L2944.57 18.9825 L2937.11 18.9825 L2937.11 9.54393 Z" fill="#000000" fill-rule="nonzero" fill-opacity="1" /><path clip-path="url(#clip060)" d="M2977.74 32.4315 Q2971.75 32.4315 2968.26 37.1306 Q2964.78 41.7891 2964.78 49.9314 Q2964.78 58.0738 2968.22 62.7728 Q2971.71 67.4314 2977.74 67.4314 Q2983.7 67.4314 2987.18 62.7323 Q2990.67 58.0333 2990.67 49.9314 Q2990.67 41.8701 2987.18 37.1711 Q2983.7 32.4315 2977.74 32.4315 M2977.74 26.1121 Q2987.47 26.1121 2993.01 32.4315 Q2998.56 38.7509 2998.56 49.9314 Q2998.56 61.0714 2993.01 67.4314 Q2987.47 73.7508 2977.74 73.7508 Q2967.98 73.7508 2962.43 67.4314 Q2956.92 61.0714 2956.92 49.9314 Q2956.92 38.7509 2962.43 32.4315 Q2967.98 26.1121 2977.74 26.1121 Z" fill="#000000" fill-rule="nonzero" fill-opacity="1" /><path clip-path="url(#clip060)" d="M3048.63 45.1919 L3048.63 72.576 L3041.18 72.576 L3041.18 45.4349 Q3041.18 38.994 3038.67 35.7938 Q3036.16 32.5936 3031.13 32.5936 Q3025.1 32.5936 3021.61 36.4419 Q3018.13 40.2903 3018.13 46.9338 L3018.13 72.576 L3010.64 72.576 L3010.64 27.2059 L3018.13 27.2059 L3018.13 34.2544 Q3020.8 30.163 3024.41 28.1376 Q3028.06 26.1121 3032.79 26.1121 Q3040.61 26.1121 3044.62 30.9732 Q3048.63 35.7938 3048.63 45.1919 Z" fill="#000000" fill-rule="nonzero" fill-opacity="1" /><path clip-path="url(#clip060)" d="M3097.97 86.3491 L3097.97 92.1419 L3054.87 92.1419 L3054.87 86.3491 L3097.97 86.3491 Z" fill="#000000" fill-rule="nonzero" fill-opacity="1" /><path clip-path="url(#clip060)" d="M3137.63 28.9478 L3137.63 35.9153 Q3134.47 34.1734 3131.27 33.3227 Q3128.11 32.4315 3124.87 32.4315 Q3117.62 32.4315 3113.61 37.0496 Q3109.6 41.6271 3109.6 49.9314 Q3109.6 58.2358 3113.61 62.8538 Q3117.62 67.4314 3124.87 67.4314 Q3128.11 67.4314 3131.27 66.5807 Q3134.47 65.6895 3137.63 63.9476 L3137.63 70.8341 Q3134.51 72.2924 3131.15 73.0216 Q3127.83 73.7508 3124.06 73.7508 Q3113.81 73.7508 3107.78 67.3098 Q3101.74 60.8689 3101.74 49.9314 Q3101.74 38.832 3107.82 32.472 Q3113.93 26.1121 3124.55 26.1121 Q3127.99 26.1121 3131.27 26.8413 Q3134.55 27.5299 3137.63 28.9478 Z" fill="#000000" fill-rule="nonzero" fill-opacity="1" /><path clip-path="url(#clip062)" d="M574.802 171.344 L574.802 1992.94 L703.208 1992.94 L703.208 171.344 L574.802 171.344 L574.802 171.344  Z" fill="#ffa500" fill-rule="evenodd" fill-opacity="1"/>
<polyline clip-path="url(#clip062)" style="stroke:#000000; stroke-linecap:round; stroke-linejoin:round; stroke-width:4; stroke-opacity:1; fill:none" points="574.802,171.344 574.802,1992.94 703.208,1992.94 703.208,171.344 574.802,171.344 "/>
<path clip-path="url(#clip062)" d="M931.486 1992.94 L931.486 1992.94 L1059.89 1992.94 L1059.89 1992.94 L931.486 1992.94 L931.486 1992.94  Z" fill="#ffa500" fill-rule="evenodd" fill-opacity="1"/>
<polyline clip-path="url(#clip062)" style="stroke:#000000; stroke-linecap:round; stroke-linejoin:round; stroke-width:4; stroke-opacity:1; fill:none" points="931.486,1992.94 931.486,1992.94 1059.89,1992.94 1059.89,1992.94 931.486,1992.94 "/>
<path clip-path="url(#clip062)" d="M1288.17 227.512 L1288.17 1992.94 L1416.58 1992.94 L1416.58 227.512 L1288.17 227.512 L1288.17 227.512  Z" fill="#ffa500" fill-rule="evenodd" fill-opacity="1"/>
<polyline clip-path="url(#clip062)" style="stroke:#000000; stroke-linecap:round; stroke-linejoin:round; stroke-width:4; stroke-opacity:1; fill:none" points="1288.17,227.512 1288.17,1992.94 1416.58,1992.94 1416.58,227.512 1288.17,227.512 "/>
<path clip-path="url(#clip062)" d="M1644.85 1992.94 L1644.85 1992.94 L1773.26 1992.94 L1773.26 1992.94 L1644.85 1992.94 L1644.85 1992.94  Z" fill="#ffa500" fill-rule="evenodd" fill-opacity="1"/>
<polyline clip-path="url(#clip062)" style="stroke:#000000; stroke-linecap:round; stroke-linejoin:round; stroke-width:4; stroke-opacity:1; fill:none" points="1644.85,1992.94 1644.85,1992.94 1773.26,1992.94 1773.26,1992.94 1644.85,1992.94 "/>
<path clip-path="url(#clip062)" d="M2001.54 429.381 L2001.54 1992.94 L2129.95 1992.94 L2129.95 429.381 L2001.54 429.381 L2001.54 429.381  Z" fill="#ffa500" fill-rule="evenodd" fill-opacity="1"/>
<polyline clip-path="url(#clip062)" style="stroke:#000000; stroke-linecap:round; stroke-linejoin:round; stroke-width:4; stroke-opacity:1; fill:none" points="2001.54,429.381 2001.54,1992.94 2129.95,1992.94 2129.95,429.381 2001.54,429.381 "/>
<path clip-path="url(#clip062)" d="M2358.22 1206.24 L2358.22 1992.94 L2486.63 1992.94 L2486.63 1206.24 L2358.22 1206.24 L2358.22 1206.24  Z" fill="#ffa500" fill-rule="evenodd" fill-opacity="1"/>
<polyline clip-path="url(#clip062)" style="stroke:#000000; stroke-linecap:round; stroke-linejoin:round; stroke-width:4; stroke-opacity:1; fill:none" points="2358.22,1206.24 2358.22,1992.94 2486.63,1992.94 2486.63,1206.24 2358.22,1206.24 "/>
<path clip-path="url(#clip062)" d="M2714.91 1992.94 L2714.91 1992.94 L2843.31 1992.94 L2843.31 1992.94 L2714.91 1992.94 L2714.91 1992.94  Z" fill="#ffa500" fill-rule="evenodd" fill-opacity="1"/>
<polyline clip-path="url(#clip062)" style="stroke:#000000; stroke-linecap:round; stroke-linejoin:round; stroke-width:4; stroke-opacity:1; fill:none" points="2714.91,1992.94 2714.91,1992.94 2843.31,1992.94 2843.31,1992.94 2714.91,1992.94 "/>
<path clip-path="url(#clip062)" d="M3071.59 171.344 L3071.59 1992.94 L3200 1992.94 L3200 171.344 L3071.59 171.344 L3071.59 171.344  Z" fill="#ffa500" fill-rule="evenodd" fill-opacity="1"/>
<polyline clip-path="url(#clip062)" style="stroke:#000000; stroke-linecap:round; stroke-linejoin:round; stroke-width:4; stroke-opacity:1; fill:none" points="3071.59,171.344 3071.59,1992.94 3200,1992.94 3200,171.344 3071.59,171.344 "/>
<path clip-path="url(#clip062)" d="M3428.28 1992.94 L3428.28 1992.94 L3556.68 1992.94 L3556.68 1992.94 L3428.28 1992.94 L3428.28 1992.94  Z" fill="#ffa500" fill-rule="evenodd" fill-opacity="1"/>
<polyline clip-path="url(#clip062)" style="stroke:#000000; stroke-linecap:round; stroke-linejoin:round; stroke-width:4; stroke-opacity:1; fill:none" points="3428.28,1992.94 3428.28,1992.94 3556.68,1992.94 3556.68,1992.94 3428.28,1992.94 "/>
<circle clip-path="url(#clip062)" style="fill:#ffa500; stroke:none; fill-opacity:0" cx="639.005" cy="171.344" r="2"/>
<circle clip-path="url(#clip062)" style="fill:#ffa500; stroke:none; fill-opacity:0" cx="995.689" cy="1992.94" r="2"/>
<circle clip-path="url(#clip062)" style="fill:#ffa500; stroke:none; fill-opacity:0" cx="1352.37" cy="227.512" r="2"/>
<circle clip-path="url(#clip062)" style="fill:#ffa500; stroke:none; fill-opacity:0" cx="1709.06" cy="1992.94" r="2"/>
<circle clip-path="url(#clip062)" style="fill:#ffa500; stroke:none; fill-opacity:0" cx="2065.74" cy="429.381" r="2"/>
<circle clip-path="url(#clip062)" style="fill:#ffa500; stroke:none; fill-opacity:0" cx="2422.43" cy="1206.24" r="2"/>
<circle clip-path="url(#clip062)" style="fill:#ffa500; stroke:none; fill-opacity:0" cx="2779.11" cy="1992.94" r="2"/>
<circle clip-path="url(#clip062)" style="fill:#ffa500; stroke:none; fill-opacity:0" cx="3135.8" cy="171.344" r="2"/>
<circle clip-path="url(#clip062)" style="fill:#ffa500; stroke:none; fill-opacity:0" cx="3492.48" cy="1992.94" r="2"/>
<path clip-path="url(#clip062)" d="M717.476 1163.98 L717.476 1992.94 L845.882 1992.94 L845.882 1163.98 L717.476 1163.98 L717.476 1163.98  Z" fill="#800080" fill-rule="evenodd" fill-opacity="1"/>
<polyline clip-path="url(#clip062)" style="stroke:#000000; stroke-linecap:round; stroke-linejoin:round; stroke-width:4; stroke-opacity:1; fill:none" points="717.476,1163.98 717.476,1992.94 845.882,1992.94 845.882,1163.98 717.476,1163.98 "/>
<path clip-path="url(#clip062)" d="M1074.16 171.344 L1074.16 1992.94 L1202.57 1992.94 L1202.57 171.344 L1074.16 171.344 L1074.16 171.344  Z" fill="#800080" fill-rule="evenodd" fill-opacity="1"/>
<polyline clip-path="url(#clip062)" style="stroke:#000000; stroke-linecap:round; stroke-linejoin:round; stroke-width:4; stroke-opacity:1; fill:none" points="1074.16,171.344 1074.16,1992.94 1202.57,1992.94 1202.57,171.344 1074.16,171.344 "/>
<path clip-path="url(#clip062)" d="M1430.84 171.344 L1430.84 1992.94 L1559.25 1992.94 L1559.25 171.344 L1430.84 171.344 L1430.84 171.344  Z" fill="#800080" fill-rule="evenodd" fill-opacity="1"/>
<polyline clip-path="url(#clip062)" style="stroke:#000000; stroke-linecap:round; stroke-linejoin:round; stroke-width:4; stroke-opacity:1; fill:none" points="1430.84,171.344 1430.84,1992.94 1559.25,1992.94 1559.25,171.344 1430.84,171.344 "/>
<path clip-path="url(#clip062)" d="M1787.53 1232.28 L1787.53 1992.94 L1915.93 1992.94 L1915.93 1232.28 L1787.53 1232.28 L1787.53 1232.28  Z" fill="#800080" fill-rule="evenodd" fill-opacity="1"/>
<polyline clip-path="url(#clip062)" style="stroke:#000000; stroke-linecap:round; stroke-linejoin:round; stroke-width:4; stroke-opacity:1; fill:none" points="1787.53,1232.28 1787.53,1992.94 1915.93,1992.94 1915.93,1232.28 1787.53,1232.28 "/>
<path clip-path="url(#clip062)" d="M2144.21 998.234 L2144.21 1992.94 L2272.62 1992.94 L2272.62 998.234 L2144.21 998.234 L2144.21 998.234  Z" fill="#800080" fill-rule="evenodd" fill-opacity="1"/>
<polyline clip-path="url(#clip062)" style="stroke:#000000; stroke-linecap:round; stroke-linejoin:round; stroke-width:4; stroke-opacity:1; fill:none" points="2144.21,998.234 2144.21,1992.94 2272.62,1992.94 2272.62,998.234 2144.21,998.234 "/>
<path clip-path="url(#clip062)" d="M2500.9 171.344 L2500.9 1992.94 L2629.3 1992.94 L2629.3 171.344 L2500.9 171.344 L2500.9 171.344  Z" fill="#800080" fill-rule="evenodd" fill-opacity="1"/>
<polyline clip-path="url(#clip062)" style="stroke:#000000; stroke-linecap:round; stroke-linejoin:round; stroke-width:4; stroke-opacity:1; fill:none" points="2500.9,171.344 2500.9,1992.94 2629.3,1992.94 2629.3,171.344 2500.9,171.344 "/>
<path clip-path="url(#clip062)" d="M2857.58 1992.94 L2857.58 1992.94 L2985.99 1992.94 L2985.99 1992.94 L2857.58 1992.94 L2857.58 1992.94  Z" fill="#800080" fill-rule="evenodd" fill-opacity="1"/>
<polyline clip-path="url(#clip062)" style="stroke:#000000; stroke-linecap:round; stroke-linejoin:round; stroke-width:4; stroke-opacity:1; fill:none" points="2857.58,1992.94 2857.58,1992.94 2985.99,1992.94 2985.99,1992.94 2857.58,1992.94 "/>
<path clip-path="url(#clip062)" d="M3214.27 171.344 L3214.27 1992.94 L3342.67 1992.94 L3342.67 171.344 L3214.27 171.344 L3214.27 171.344  Z" fill="#800080" fill-rule="evenodd" fill-opacity="1"/>
<polyline clip-path="url(#clip062)" style="stroke:#000000; stroke-linecap:round; stroke-linejoin:round; stroke-width:4; stroke-opacity:1; fill:none" points="3214.27,171.344 3214.27,1992.94 3342.67,1992.94 3342.67,171.344 3214.27,171.344 "/>
<path clip-path="url(#clip062)" d="M3570.95 171.344 L3570.95 1992.94 L3699.36 1992.94 L3699.36 171.344 L3570.95 171.344 L3570.95 171.344  Z" fill="#800080" fill-rule="evenodd" fill-opacity="1"/>
<polyline clip-path="url(#clip062)" style="stroke:#000000; stroke-linecap:round; stroke-linejoin:round; stroke-width:4; stroke-opacity:1; fill:none" points="3570.95,171.344 3570.95,1992.94 3699.36,1992.94 3699.36,171.344 3570.95,171.344 "/>
<circle clip-path="url(#clip062)" style="fill:#800080; stroke:none; fill-opacity:0" cx="781.679" cy="1163.98" r="2"/>
<circle clip-path="url(#clip062)" style="fill:#800080; stroke:none; fill-opacity:0" cx="1138.36" cy="171.344" r="2"/>
<circle clip-path="url(#clip062)" style="fill:#800080; stroke:none; fill-opacity:0" cx="1495.05" cy="171.344" r="2"/>
<circle clip-path="url(#clip062)" style="fill:#800080; stroke:none; fill-opacity:0" cx="1851.73" cy="1232.28" r="2"/>
<circle clip-path="url(#clip062)" style="fill:#800080; stroke:none; fill-opacity:0" cx="2208.42" cy="998.234" r="2"/>
<circle clip-path="url(#clip062)" style="fill:#800080; stroke:none; fill-opacity:0" cx="2565.1" cy="171.344" r="2"/>
<circle clip-path="url(#clip062)" style="fill:#800080; stroke:none; fill-opacity:0" cx="2921.78" cy="1992.94" r="2"/>
<circle clip-path="url(#clip062)" style="fill:#800080; stroke:none; fill-opacity:0" cx="3278.47" cy="171.344" r="2"/>
<circle clip-path="url(#clip062)" style="fill:#800080; stroke:none; fill-opacity:0" cx="3635.15" cy="171.344" r="2"/>
<path clip-path="url(#clip060)" d="M4033.47 387.584 L4752.76 387.584 L4752.76 232.064 L4033.47 232.064  Z" fill="#ffffff" fill-rule="evenodd" fill-opacity="1"/>
<polyline clip-path="url(#clip060)" style="stroke:#000000; stroke-linecap:round; stroke-linejoin:round; stroke-width:4; stroke-opacity:1; fill:none" points="4033.47,387.584 4752.76,387.584 4752.76,232.064 4033.47,232.064 4033.47,387.584 "/>
<path clip-path="url(#clip060)" d="M4081.98 304.64 L4373.08 304.64 L4373.08 263.168 L4081.98 263.168 L4081.98 304.64  Z" fill="#ffa500" fill-rule="evenodd" fill-opacity="1"/>
<polyline clip-path="url(#clip060)" style="stroke:#000000; stroke-linecap:round; stroke-linejoin:round; stroke-width:4; stroke-opacity:1; fill:none" points="4081.98,304.64 4373.08,304.64 4373.08,263.168 4081.98,263.168 4081.98,304.64 "/>
<path clip-path="url(#clip060)" d="M4421.6 266.624 L4443.45 266.624 L4443.45 270.559 L4426.28 270.559 L4426.28 280.791 L4442.74 280.791 L4442.74 284.726 L4426.28 284.726 L4426.28 297.249 L4443.87 297.249 L4443.87 301.184 L4421.6 301.184 L4421.6 266.624 Z" fill="#000000" fill-rule="nonzero" fill-opacity="1" /><path clip-path="url(#clip060)" d="M4453.92 288.244 Q4453.92 292.943 4455.84 295.629 Q4457.78 298.291 4461.16 298.291 Q4464.54 298.291 4466.49 295.629 Q4468.43 292.943 4468.43 288.244 Q4468.43 283.545 4466.49 280.883 Q4464.54 278.198 4461.16 278.198 Q4457.78 278.198 4455.84 280.883 Q4453.92 283.545 4453.92 288.244 M4468.43 297.295 Q4467.09 299.61 4465.03 300.744 Q4462.99 301.855 4460.12 301.855 Q4455.42 301.855 4452.46 298.105 Q4449.52 294.355 4449.52 288.244 Q4449.52 282.133 4452.46 278.383 Q4455.42 274.633 4460.12 274.633 Q4462.99 274.633 4465.03 275.768 Q4467.09 276.879 4468.43 279.193 L4468.43 275.258 L4472.69 275.258 L4472.69 311.045 L4468.43 311.045 L4468.43 297.295 Z" fill="#000000" fill-rule="nonzero" fill-opacity="1" /><path clip-path="url(#clip060)" d="M4481.02 290.953 L4481.02 275.258 L4485.28 275.258 L4485.28 290.791 Q4485.28 294.471 4486.72 296.323 Q4488.15 298.152 4491.02 298.152 Q4494.47 298.152 4496.46 295.953 Q4498.48 293.754 4498.48 289.957 L4498.48 275.258 L4502.74 275.258 L4502.74 301.184 L4498.48 301.184 L4498.48 297.203 Q4496.93 299.564 4494.87 300.721 Q4492.83 301.855 4490.12 301.855 Q4485.65 301.855 4483.34 299.078 Q4481.02 296.3 4481.02 290.953 M4491.74 274.633 L4491.74 274.633 Z" fill="#000000" fill-rule="nonzero" fill-opacity="1" /><path clip-path="url(#clip060)" d="M4523.29 288.152 Q4518.13 288.152 4516.14 289.332 Q4514.15 290.513 4514.15 293.36 Q4514.15 295.629 4515.63 296.971 Q4517.13 298.291 4519.7 298.291 Q4523.24 298.291 4525.37 295.791 Q4527.53 293.267 4527.53 289.101 L4527.53 288.152 L4523.29 288.152 M4531.79 286.392 L4531.79 301.184 L4527.53 301.184 L4527.53 297.249 Q4526.07 299.61 4523.89 300.744 Q4521.72 301.855 4518.57 301.855 Q4514.59 301.855 4512.23 299.633 Q4509.89 297.388 4509.89 293.638 Q4509.89 289.263 4512.8 287.041 Q4515.74 284.818 4521.55 284.818 L4527.53 284.818 L4527.53 284.402 Q4527.53 281.462 4525.58 279.865 Q4523.66 278.244 4520.17 278.244 Q4517.94 278.244 4515.84 278.777 Q4513.73 279.309 4511.79 280.374 L4511.79 276.439 Q4514.12 275.536 4516.32 275.096 Q4518.52 274.633 4520.61 274.633 Q4526.23 274.633 4529.01 277.55 Q4531.79 280.467 4531.79 286.392 Z" fill="#000000" fill-rule="nonzero" fill-opacity="1" /><path clip-path="url(#clip060)" d="M4540.56 265.166 L4544.82 265.166 L4544.82 301.184 L4540.56 301.184 L4540.56 265.166 Z" fill="#000000" fill-rule="nonzero" fill-opacity="1" /><path clip-path="url(#clip060)" d="M4553.73 275.258 L4557.99 275.258 L4557.99 301.184 L4553.73 301.184 L4553.73 275.258 M4553.73 265.166 L4557.99 265.166 L4557.99 270.559 L4553.73 270.559 L4553.73 265.166 Z" fill="#000000" fill-rule="nonzero" fill-opacity="1" /><path clip-path="url(#clip060)" d="M4571.11 267.897 L4571.11 275.258 L4579.89 275.258 L4579.89 278.568 L4571.11 278.568 L4571.11 292.642 Q4571.11 295.814 4571.97 296.717 Q4572.85 297.619 4575.51 297.619 L4579.89 297.619 L4579.89 301.184 L4575.51 301.184 Q4570.58 301.184 4568.71 299.355 Q4566.83 297.504 4566.83 292.642 L4566.83 278.568 L4563.71 278.568 L4563.71 275.258 L4566.83 275.258 L4566.83 267.897 L4571.11 267.897 Z" fill="#000000" fill-rule="nonzero" fill-opacity="1" /><path clip-path="url(#clip060)" d="M4596.28 303.591 Q4594.47 308.221 4592.76 309.633 Q4591.05 311.045 4588.17 311.045 L4584.77 311.045 L4584.77 307.48 L4587.27 307.48 Q4589.03 307.48 4590 306.647 Q4590.98 305.814 4592.16 302.712 L4592.92 300.767 L4582.43 275.258 L4586.95 275.258 L4595.05 295.536 L4603.15 275.258 L4607.67 275.258 L4596.28 303.591 Z" fill="#000000" fill-rule="nonzero" fill-opacity="1" /><path clip-path="url(#clip060)" d="M4628.8 266.624 L4635.77 266.624 L4644.59 290.142 L4653.45 266.624 L4660.42 266.624 L4660.42 301.184 L4655.86 301.184 L4655.86 270.837 L4646.95 294.541 L4642.25 294.541 L4633.34 270.837 L4633.34 301.184 L4628.8 301.184 L4628.8 266.624 Z" fill="#000000" fill-rule="nonzero" fill-opacity="1" /><path clip-path="url(#clip060)" d="M4669.52 275.258 L4673.78 275.258 L4673.78 301.184 L4669.52 301.184 L4669.52 275.258 M4669.52 265.166 L4673.78 265.166 L4673.78 270.559 L4669.52 270.559 L4669.52 265.166 Z" fill="#000000" fill-rule="nonzero" fill-opacity="1" /><path clip-path="url(#clip060)" d="M4704.24 285.536 L4704.24 301.184 L4699.98 301.184 L4699.98 285.675 Q4699.98 281.994 4698.54 280.166 Q4697.11 278.337 4694.24 278.337 Q4690.79 278.337 4688.8 280.536 Q4686.81 282.735 4686.81 286.531 L4686.81 301.184 L4682.53 301.184 L4682.53 275.258 L4686.81 275.258 L4686.81 279.286 Q4688.34 276.948 4690.4 275.791 Q4692.48 274.633 4695.19 274.633 Q4699.66 274.633 4701.95 277.411 Q4704.24 280.166 4704.24 285.536 Z" fill="#000000" fill-rule="nonzero" fill-opacity="1" /><path clip-path="url(#clip060)" d="M4081.98 356.48 L4373.08 356.48 L4373.08 315.008 L4081.98 315.008 L4081.98 356.48  Z" fill="#800080" fill-rule="evenodd" fill-opacity="1"/>
<polyline clip-path="url(#clip060)" style="stroke:#000000; stroke-linecap:round; stroke-linejoin:round; stroke-width:4; stroke-opacity:1; fill:none" points="4081.98,356.48 4373.08,356.48 4373.08,315.008 4081.98,315.008 4081.98,356.48 "/>
<path clip-path="url(#clip060)" d="M4428.71 318.464 L4433.38 318.464 L4433.38 350.617 Q4433.38 356.867 4431 359.691 Q4428.64 362.515 4423.38 362.515 L4421.6 362.515 L4421.6 358.58 L4423.06 358.58 Q4426.16 358.58 4427.44 356.844 Q4428.71 355.107 4428.71 350.617 L4428.71 318.464 Z" fill="#000000" fill-rule="nonzero" fill-opacity="1" /><path clip-path="url(#clip060)" d="M4454.29 339.992 Q4449.12 339.992 4447.13 341.172 Q4445.14 342.353 4445.14 345.2 Q4445.14 347.469 4446.62 348.811 Q4448.13 350.131 4450.7 350.131 Q4454.24 350.131 4456.37 347.631 Q4458.52 345.107 4458.52 340.941 L4458.52 339.992 L4454.29 339.992 M4462.78 338.232 L4462.78 353.024 L4458.52 353.024 L4458.52 349.089 Q4457.06 351.45 4454.89 352.584 Q4452.71 353.695 4449.56 353.695 Q4445.58 353.695 4443.22 351.473 Q4440.88 349.228 4440.88 345.478 Q4440.88 341.103 4443.8 338.881 Q4446.74 336.658 4452.55 336.658 L4458.52 336.658 L4458.52 336.242 Q4458.52 333.302 4456.58 331.705 Q4454.66 330.084 4451.16 330.084 Q4448.94 330.084 4446.83 330.617 Q4444.73 331.149 4442.78 332.214 L4442.78 328.279 Q4445.12 327.376 4447.32 326.936 Q4449.52 326.473 4451.6 326.473 Q4457.23 326.473 4460 329.39 Q4462.78 332.307 4462.78 338.232 Z" fill="#000000" fill-rule="nonzero" fill-opacity="1" /><path clip-path="url(#clip060)" d="M4471.56 327.098 L4475.81 327.098 L4475.81 353.024 L4471.56 353.024 L4471.56 327.098 M4471.56 317.006 L4475.81 317.006 L4475.81 322.399 L4471.56 322.399 L4471.56 317.006 Z" fill="#000000" fill-rule="nonzero" fill-opacity="1" /><path clip-path="url(#clip060)" d="M4506.28 337.376 L4506.28 353.024 L4502.02 353.024 L4502.02 337.515 Q4502.02 333.834 4500.58 332.006 Q4499.15 330.177 4496.28 330.177 Q4492.83 330.177 4490.84 332.376 Q4488.85 334.575 4488.85 338.371 L4488.85 353.024 L4484.56 353.024 L4484.56 327.098 L4488.85 327.098 L4488.85 331.126 Q4490.37 328.788 4492.43 327.631 Q4494.52 326.473 4497.23 326.473 Q4501.69 326.473 4503.99 329.251 Q4506.28 332.006 4506.28 337.376 Z" fill="#000000" fill-rule="nonzero" fill-opacity="1" /><path clip-path="url(#clip060)" d="M4518.8 318.464 L4518.8 331.311 L4514.87 331.311 L4514.87 318.464 L4518.8 318.464 Z" fill="#000000" fill-rule="nonzero" fill-opacity="1" /><path clip-path="url(#clip060)" d="M4544.33 327.862 L4544.33 331.89 Q4542.53 330.964 4540.58 330.501 Q4538.64 330.038 4536.55 330.038 Q4533.38 330.038 4531.79 331.01 Q4530.21 331.983 4530.21 333.927 Q4530.21 335.408 4531.35 336.265 Q4532.48 337.098 4535.91 337.862 L4537.36 338.186 Q4541.9 339.158 4543.8 340.941 Q4545.72 342.7 4545.72 345.871 Q4545.72 349.482 4542.85 351.589 Q4540 353.695 4535 353.695 Q4532.92 353.695 4530.65 353.279 Q4528.41 352.885 4525.91 352.075 L4525.91 347.677 Q4528.27 348.904 4530.56 349.529 Q4532.85 350.131 4535.1 350.131 Q4538.11 350.131 4539.73 349.112 Q4541.35 348.07 4541.35 346.195 Q4541.35 344.459 4540.17 343.533 Q4539.01 342.607 4535.05 341.751 L4533.57 341.404 Q4529.61 340.57 4527.85 338.857 Q4526.09 337.121 4526.09 334.112 Q4526.09 330.455 4528.68 328.464 Q4531.28 326.473 4536.05 326.473 Q4538.41 326.473 4540.49 326.821 Q4542.57 327.168 4544.33 327.862 Z" fill="#000000" fill-rule="nonzero" fill-opacity="1" /><path clip-path="url(#clip060)" d="M4567.76 318.464 L4572.43 318.464 L4572.43 353.024 L4567.76 353.024 L4567.76 318.464 Z" fill="#000000" fill-rule="nonzero" fill-opacity="1" /><path clip-path="url(#clip060)" d="M4603.11 337.376 L4603.11 353.024 L4598.85 353.024 L4598.85 337.515 Q4598.85 333.834 4597.41 332.006 Q4595.98 330.177 4593.11 330.177 Q4589.66 330.177 4587.67 332.376 Q4585.67 334.575 4585.67 338.371 L4585.67 353.024 L4581.39 353.024 L4581.39 327.098 L4585.67 327.098 L4585.67 331.126 Q4587.2 328.788 4589.26 327.631 Q4591.35 326.473 4594.05 326.473 Q4598.52 326.473 4600.81 329.251 Q4603.11 332.006 4603.11 337.376 Z" fill="#000000" fill-rule="nonzero" fill-opacity="1" /><path clip-path="url(#clip060)" d="M4628.66 331.033 L4628.66 317.006 L4632.92 317.006 L4632.92 353.024 L4628.66 353.024 L4628.66 349.135 Q4627.32 351.45 4625.26 352.584 Q4623.22 353.695 4620.35 353.695 Q4615.65 353.695 4612.69 349.945 Q4609.75 346.195 4609.75 340.084 Q4609.75 333.973 4612.69 330.223 Q4615.65 326.473 4620.35 326.473 Q4623.22 326.473 4625.26 327.608 Q4627.32 328.719 4628.66 331.033 M4614.15 340.084 Q4614.15 344.783 4616.07 347.469 Q4618.01 350.131 4621.39 350.131 Q4624.77 350.131 4626.72 347.469 Q4628.66 344.783 4628.66 340.084 Q4628.66 335.385 4626.72 332.723 Q4624.77 330.038 4621.39 330.038 Q4618.01 330.038 4616.07 332.723 Q4614.15 335.385 4614.15 340.084 Z" fill="#000000" fill-rule="nonzero" fill-opacity="1" /><path clip-path="url(#clip060)" d="M4663.87 338.996 L4663.87 341.08 L4644.29 341.08 Q4644.56 345.478 4646.92 347.793 Q4649.31 350.084 4653.54 350.084 Q4656 350.084 4658.29 349.482 Q4660.61 348.881 4662.87 347.677 L4662.87 351.705 Q4660.58 352.677 4658.17 353.186 Q4655.77 353.695 4653.29 353.695 Q4647.09 353.695 4643.45 350.084 Q4639.84 346.473 4639.84 340.316 Q4639.84 333.95 4643.27 330.223 Q4646.72 326.473 4652.55 326.473 Q4657.78 326.473 4660.81 329.853 Q4663.87 333.209 4663.87 338.996 M4659.61 337.746 Q4659.56 334.251 4657.64 332.168 Q4655.74 330.084 4652.6 330.084 Q4649.03 330.084 4646.88 332.098 Q4644.75 334.112 4644.42 337.77 L4659.61 337.746 Z" fill="#000000" fill-rule="nonzero" fill-opacity="1" /><path clip-path="url(#clip060)" d="M4691.58 327.098 L4682.2 339.714 L4692.06 353.024 L4687.04 353.024 L4679.49 342.839 L4671.95 353.024 L4666.92 353.024 L4676.99 339.459 L4667.78 327.098 L4672.8 327.098 L4679.68 336.334 L4686.55 327.098 L4691.58 327.098 Z" fill="#000000" fill-rule="nonzero" fill-opacity="1" /></svg>
