<?xml version="1.0" encoding="utf-8"?>
<svg xmlns="http://www.w3.org/2000/svg" xmlns:xlink="http://www.w3.org/1999/xlink" width="1200" height="600" viewBox="0 0 4800 2400">
<defs>
  <clipPath id="clip620">
    <rect x="0" y="0" width="4800" height="2400"/>
  </clipPath>
</defs>
<path clip-path="url(#clip620)" d="M0 2400 L4800 2400 L4800 0 L0 0  Z" fill="#ffffff" fill-rule="evenodd" fill-opacity="1"/>
<defs>
  <clipPath id="clip621">
    <rect x="960" y="0" width="3361" height="2400"/>
  </clipPath>
</defs>
<path clip-path="url(#clip620)" d="M386.242 1992.94 L3892.82 1992.94 L3892.82 171.344 L386.242 171.344  Z" fill="#ffffff" fill-rule="evenodd" fill-opacity="1"/>
<defs>
  <clipPath id="clip622">
    <rect x="386" y="171" width="3508" height="1823"/>
  </clipPath>
</defs>
<polyline clip-path="url(#clip622)" style="stroke:#000000; stroke-linecap:round; stroke-linejoin:round; stroke-width:2; stroke-opacity:0.1; fill:none" points="707.952,1992.94 707.952,171.344 "/>
<polyline clip-path="url(#clip622)" style="stroke:#000000; stroke-linecap:round; stroke-linejoin:round; stroke-width:2; stroke-opacity:0.1; fill:none" points="1065.85,1992.94 1065.85,171.344 "/>
<polyline clip-path="url(#clip622)" style="stroke:#000000; stroke-linecap:round; stroke-linejoin:round; stroke-width:2; stroke-opacity:0.1; fill:none" points="1423.74,1992.94 1423.74,171.344 "/>
<polyline clip-path="url(#clip622)" style="stroke:#000000; stroke-linecap:round; stroke-linejoin:round; stroke-width:2; stroke-opacity:0.1; fill:none" points="1781.64,1992.94 1781.64,171.344 "/>
<polyline clip-path="url(#clip622)" style="stroke:#000000; stroke-linecap:round; stroke-linejoin:round; stroke-width:2; stroke-opacity:0.1; fill:none" points="2139.53,1992.94 2139.53,171.344 "/>
<polyline clip-path="url(#clip622)" style="stroke:#000000; stroke-linecap:round; stroke-linejoin:round; stroke-width:2; stroke-opacity:0.1; fill:none" points="2497.43,1992.94 2497.43,171.344 "/>
<polyline clip-path="url(#clip622)" style="stroke:#000000; stroke-linecap:round; stroke-linejoin:round; stroke-width:2; stroke-opacity:0.1; fill:none" points="2855.32,1992.94 2855.32,171.344 "/>
<polyline clip-path="url(#clip622)" style="stroke:#000000; stroke-linecap:round; stroke-linejoin:round; stroke-width:2; stroke-opacity:0.1; fill:none" points="3213.22,1992.94 3213.22,171.344 "/>
<polyline clip-path="url(#clip622)" style="stroke:#000000; stroke-linecap:round; stroke-linejoin:round; stroke-width:2; stroke-opacity:0.1; fill:none" points="3571.11,1992.94 3571.11,171.344 "/>
<polyline clip-path="url(#clip622)" style="stroke:#000000; stroke-linecap:round; stroke-linejoin:round; stroke-width:2; stroke-opacity:0.1; fill:none" points="386.242,1992.94 3892.82,1992.94 "/>
<polyline clip-path="url(#clip622)" style="stroke:#000000; stroke-linecap:round; stroke-linejoin:round; stroke-width:2; stroke-opacity:0.1; fill:none" points="386.242,1537.54 3892.82,1537.54 "/>
<polyline clip-path="url(#clip622)" style="stroke:#000000; stroke-linecap:round; stroke-linejoin:round; stroke-width:2; stroke-opacity:0.1; fill:none" points="386.242,1082.14 3892.82,1082.14 "/>
<polyline clip-path="url(#clip622)" style="stroke:#000000; stroke-linecap:round; stroke-linejoin:round; stroke-width:2; stroke-opacity:0.1; fill:none" points="386.242,626.743 3892.82,626.743 "/>
<polyline clip-path="url(#clip622)" style="stroke:#000000; stroke-linecap:round; stroke-linejoin:round; stroke-width:2; stroke-opacity:0.1; fill:none" points="386.242,171.344 3892.82,171.344 "/>
<polyline clip-path="url(#clip620)" style="stroke:#000000; stroke-linecap:round; stroke-linejoin:round; stroke-width:4; stroke-opacity:1; fill:none" points="386.242,1992.94 3892.82,1992.94 "/>
<polyline clip-path="url(#clip620)" style="stroke:#000000; stroke-linecap:round; stroke-linejoin:round; stroke-width:4; stroke-opacity:1; fill:none" points="707.952,1992.94 707.952,1974.04 "/>
<polyline clip-path="url(#clip620)" style="stroke:#000000; stroke-linecap:round; stroke-linejoin:round; stroke-width:4; stroke-opacity:1; fill:none" points="1065.85,1992.94 1065.85,1974.04 "/>
<polyline clip-path="url(#clip620)" style="stroke:#000000; stroke-linecap:round; stroke-linejoin:round; stroke-width:4; stroke-opacity:1; fill:none" points="1423.74,1992.94 1423.74,1974.04 "/>
<polyline clip-path="url(#clip620)" style="stroke:#000000; stroke-linecap:round; stroke-linejoin:round; stroke-width:4; stroke-opacity:1; fill:none" points="1781.64,1992.94 1781.64,1974.04 "/>
<polyline clip-path="url(#clip620)" style="stroke:#000000; stroke-linecap:round; stroke-linejoin:round; stroke-width:4; stroke-opacity:1; fill:none" points="2139.53,1992.94 2139.53,1974.04 "/>
<polyline clip-path="url(#clip620)" style="stroke:#000000; stroke-linecap:round; stroke-linejoin:round; stroke-width:4; stroke-opacity:1; fill:none" points="2497.43,1992.94 2497.43,1974.04 "/>
<polyline clip-path="url(#clip620)" style="stroke:#000000; stroke-linecap:round; stroke-linejoin:round; stroke-width:4; stroke-opacity:1; fill:none" points="2855.32,1992.94 2855.32,1974.04 "/>
<polyline clip-path="url(#clip620)" style="stroke:#000000; stroke-linecap:round; stroke-linejoin:round; stroke-width:4; stroke-opacity:1; fill:none" points="3213.22,1992.94 3213.22,1974.04 "/>
<polyline clip-path="url(#clip620)" style="stroke:#000000; stroke-linecap:round; stroke-linejoin:round; stroke-width:4; stroke-opacity:1; fill:none" points="3571.11,1992.94 3571.11,1974.04 "/>
<path clip-path="url(#clip620)" d="M656.81 2098.17 Q654.584 2100.4 654.797 2103.23 Q655.026 2106.05 657.677 2108.7 Q660.313 2111.33 663.144 2111.58 Q665.976 2111.79 668.202 2109.57 Q670.428 2107.34 670.199 2104.53 Q669.97 2101.68 667.335 2099.04 Q664.683 2096.39 661.851 2096.18 Q659.036 2095.95 656.81 2098.17 M653.013 2081.25 L656.024 2084.26 Q654.191 2084.92 652.603 2085.88 Q651.032 2086.83 649.788 2088.08 Q646.514 2091.35 646.989 2095.29 Q647.48 2099.22 651.703 2103.94 Q651.245 2101.55 651.949 2099.34 Q652.636 2097.11 654.387 2095.36 Q658.07 2091.68 662.441 2091.79 Q666.811 2091.87 670.657 2095.72 Q674.422 2099.48 674.471 2103.99 Q674.52 2108.49 670.821 2112.19 Q666.582 2116.42 661.098 2115.43 Q655.599 2114.41 649.428 2108.24 Q643.634 2102.45 642.946 2096.26 Q642.242 2090.06 646.875 2085.42 Q648.118 2084.18 649.624 2083.16 Q651.147 2082.13 653.013 2081.25 Z" fill="#000000" fill-rule="nonzero" fill-opacity="1" /><path clip-path="url(#clip620)" d="M658.921 2074.26 L674.635 2058.55 L676.043 2059.95 L690.201 2091.86 L686.747 2095.31 L673.44 2065.31 L661.704 2077.04 L658.921 2074.26 Z" fill="#000000" fill-rule="nonzero" fill-opacity="1" /><path clip-path="url(#clip620)" d="M703.312 2073.18 L708.713 2067.78 L690.07 2049.14 L685.372 2056.19 L682.361 2053.18 L687.026 2046.16 L690.332 2042.85 L711.987 2064.51 L717.388 2059.1 L720.171 2061.89 L706.094 2075.96 L703.312 2073.18 Z" fill="#000000" fill-rule="nonzero" fill-opacity="1" /><path clip-path="url(#clip620)" d="M1013.49 2099.39 Q1011.27 2101.61 1011.48 2104.44 Q1011.71 2107.26 1014.36 2109.91 Q1017 2112.55 1019.83 2112.79 Q1022.66 2113 1024.89 2110.78 Q1027.11 2108.55 1026.88 2105.74 Q1026.65 2102.89 1024.02 2100.25 Q1021.37 2097.6 1018.54 2097.39 Q1015.72 2097.16 1013.49 2099.39 M1009.7 2082.46 L1012.71 2085.47 Q1010.87 2086.13 1009.29 2087.09 Q1007.72 2088.04 1006.47 2089.29 Q1003.2 2092.56 1003.67 2096.5 Q1004.16 2100.43 1008.39 2105.15 Q1007.93 2102.76 1008.63 2100.55 Q1009.32 2098.32 1011.07 2096.57 Q1014.75 2092.89 1019.12 2093 Q1023.49 2093.08 1027.34 2096.93 Q1031.11 2100.7 1031.16 2105.2 Q1031.2 2109.7 1027.5 2113.4 Q1023.27 2117.64 1017.78 2116.64 Q1012.28 2115.62 1006.11 2109.45 Q1000.32 2103.66 999.63 2097.47 Q998.926 2091.27 1003.56 2086.63 Q1004.8 2085.39 1006.31 2084.38 Q1007.83 2083.34 1009.7 2082.46 Z" fill="#000000" fill-rule="nonzero" fill-opacity="1" /><path clip-path="url(#clip620)" d="M1037.72 2075.88 Q1040.6 2074.01 1043.53 2074.29 Q1046.48 2074.56 1048.83 2076.91 Q1052.45 2080.53 1051.94 2085 Q1051.44 2089.47 1046.85 2094.05 Q1045.31 2095.59 1043.37 2096.91 Q1041.45 2098.24 1039.11 2099.37 L1035.92 2096.18 Q1038.1 2095.6 1040.14 2094.38 Q1042.19 2093.15 1043.97 2091.37 Q1047.08 2088.26 1047.47 2085.41 Q1047.88 2082.54 1045.54 2080.2 Q1043.38 2078.04 1040.65 2078.35 Q1037.92 2078.63 1035.21 2081.33 L1032.37 2084.18 L1029.65 2081.46 L1032.63 2078.48 Q1035.07 2076.04 1035.39 2073.79 Q1035.71 2071.51 1033.87 2069.68 Q1031.99 2067.8 1029.65 2068.14 Q1027.31 2068.45 1024.82 2070.94 Q1023.46 2072.3 1022.2 2074.15 Q1020.94 2076 1019.7 2078.48 L1016.75 2075.54 Q1018.11 2073.13 1019.48 2071.23 Q1020.88 2069.32 1022.33 2067.86 Q1026.1 2064.1 1030.01 2063.62 Q1033.9 2063.13 1036.82 2066.04 Q1038.85 2068.07 1039.09 2070.64 Q1039.32 2073.2 1037.72 2075.88 Z" fill="#000000" fill-rule="nonzero" fill-opacity="1" /><path clip-path="url(#clip620)" d="M1049.73 2047.11 L1054.43 2068.5 L1062.78 2060.15 L1049.73 2047.11 M1045.98 2045.09 L1050.14 2040.93 L1066.07 2056.86 L1069.55 2053.37 L1072.3 2056.12 L1068.82 2059.61 L1074.58 2065.37 L1071.29 2068.66 L1065.53 2062.9 L1054.5 2073.93 L1051.3 2070.74 L1045.98 2045.09 Z" fill="#000000" fill-rule="nonzero" fill-opacity="1" /><path clip-path="url(#clip620)" d="M1372.86 2097.91 Q1370.64 2100.14 1370.85 2102.97 Q1371.08 2105.79 1373.73 2108.44 Q1376.36 2111.07 1379.2 2111.32 Q1382.03 2111.53 1384.25 2109.3 Q1386.48 2107.08 1386.25 2104.26 Q1386.02 2101.42 1383.39 2098.78 Q1380.74 2096.13 1377.9 2095.92 Q1375.09 2095.69 1372.86 2097.91 M1369.06 2080.99 L1372.08 2084 Q1370.24 2084.65 1368.66 2085.62 Q1367.08 2086.57 1365.84 2087.81 Q1362.57 2091.09 1363.04 2095.03 Q1363.53 2098.96 1367.76 2103.67 Q1367.3 2101.28 1368 2099.07 Q1368.69 2096.85 1370.44 2095.1 Q1374.12 2091.41 1378.49 2091.53 Q1382.86 2091.61 1386.71 2095.46 Q1390.47 2099.22 1390.52 2103.72 Q1390.57 2108.22 1386.87 2111.92 Q1382.63 2116.16 1377.15 2115.16 Q1371.65 2114.15 1365.48 2107.98 Q1359.69 2102.18 1359 2096 Q1358.29 2089.79 1362.93 2085.16 Q1364.17 2083.92 1365.68 2082.9 Q1367.2 2081.87 1369.06 2080.99 Z" fill="#000000" fill-rule="nonzero" fill-opacity="1" /><path clip-path="url(#clip620)" d="M1375.84 2073.13 L1388.82 2060.15 L1391.6 2062.93 L1381.65 2072.89 L1387.64 2078.88 Q1388.12 2077.91 1388.72 2077.08 Q1389.31 2076.22 1390.03 2075.5 Q1394.12 2071.41 1398.76 2071.27 Q1403.39 2071.12 1407.22 2074.95 Q1411.16 2078.89 1410.9 2083.54 Q1410.62 2088.17 1406.15 2092.64 Q1404.62 2094.18 1402.75 2095.52 Q1400.9 2096.85 1398.67 2098.03 L1395.35 2094.7 Q1397.63 2094.03 1399.59 2092.85 Q1401.56 2091.68 1403.31 2089.92 Q1406.14 2087.09 1406.3 2083.95 Q1406.47 2080.81 1403.91 2078.25 Q1401.36 2075.7 1398.22 2075.86 Q1395.07 2076.03 1392.24 2078.86 Q1390.92 2080.19 1389.89 2081.81 Q1388.87 2083.41 1388.12 2085.41 L1375.84 2073.13 Z" fill="#000000" fill-rule="nonzero" fill-opacity="1" /><path clip-path="url(#clip620)" d="M1421.64 2070.64 L1433.18 2059.1 L1435.96 2061.89 L1420.44 2077.4 L1417.66 2074.62 Q1417.6 2070.79 1417.56 2064.28 Q1417.53 2057.73 1417.42 2055.94 Q1417.22 2052.57 1416.61 2050.72 Q1416.01 2048.84 1414.81 2047.65 Q1412.87 2045.7 1410.26 2045.85 Q1407.68 2045.98 1405.48 2048.17 Q1403.93 2049.72 1402.73 2052 Q1401.56 2054.26 1400.69 2057.32 L1397.35 2053.98 Q1398.54 2051.18 1399.87 2049.04 Q1401.2 2046.89 1402.64 2045.45 Q1406.43 2041.66 1410.59 2041.3 Q1414.75 2040.93 1417.92 2044.11 Q1419.43 2045.62 1420.22 2047.55 Q1421 2049.45 1421.34 2052.77 Q1421.41 2053.65 1421.49 2058.12 Q1421.56 2062.57 1421.64 2070.64 Z" fill="#000000" fill-rule="nonzero" fill-opacity="1" /><path clip-path="url(#clip620)" d="M1730.33 2098.34 Q1728.11 2100.56 1728.32 2103.4 Q1728.55 2106.21 1731.2 2108.86 Q1733.83 2111.5 1736.67 2111.74 Q1739.5 2111.96 1741.72 2109.73 Q1743.95 2107.5 1743.72 2104.69 Q1743.49 2101.84 1740.86 2099.21 Q1738.2 2096.55 1735.37 2096.34 Q1732.56 2096.11 1730.33 2098.34 M1726.53 2081.41 L1729.55 2084.43 Q1727.71 2085.08 1726.13 2086.05 Q1724.55 2086.99 1723.31 2088.24 Q1720.04 2091.51 1720.51 2095.46 Q1721 2099.39 1725.22 2104.1 Q1724.77 2101.71 1725.47 2099.5 Q1726.16 2097.27 1727.91 2095.52 Q1731.59 2091.84 1735.96 2091.95 Q1740.33 2092.04 1744.18 2095.88 Q1747.94 2099.65 1747.99 2104.15 Q1748.04 2108.65 1744.34 2112.35 Q1740.1 2116.59 1734.62 2115.59 Q1729.12 2114.58 1722.95 2108.4 Q1717.16 2102.61 1716.47 2096.42 Q1715.76 2090.22 1720.4 2085.59 Q1721.64 2084.34 1723.15 2083.33 Q1724.67 2082.3 1726.53 2081.41 Z" fill="#000000" fill-rule="nonzero" fill-opacity="1" /><path clip-path="url(#clip620)" d="M1732.44 2074.42 L1748.16 2058.71 L1749.56 2060.12 L1763.72 2092.02 L1760.27 2095.47 L1746.96 2065.47 L1735.23 2077.21 L1732.44 2074.42 Z" fill="#000000" fill-rule="nonzero" fill-opacity="1" /><path clip-path="url(#clip620)" d="M1754.64 2052.23 L1767.62 2039.25 L1770.4 2042.03 L1760.45 2051.98 L1766.44 2057.97 Q1766.91 2057.01 1767.52 2056.17 Q1768.11 2055.32 1768.83 2054.6 Q1772.92 2050.51 1777.55 2050.36 Q1782.19 2050.22 1786.02 2054.05 Q1789.96 2057.99 1789.7 2062.64 Q1789.42 2067.27 1784.95 2071.74 Q1783.41 2073.28 1781.55 2074.62 Q1779.7 2075.95 1777.47 2077.12 L1774.15 2073.8 Q1776.42 2073.13 1778.39 2071.95 Q1780.35 2070.77 1782.1 2069.02 Q1784.94 2066.19 1785.1 2063.05 Q1785.26 2059.91 1782.71 2057.35 Q1780.16 2054.8 1777.01 2054.96 Q1773.87 2055.13 1771.04 2057.96 Q1769.71 2059.28 1768.68 2060.9 Q1767.67 2062.51 1766.91 2064.51 L1754.64 2052.23 Z" fill="#000000" fill-rule="nonzero" fill-opacity="1" /><path clip-path="url(#clip620)" d="M2088.39 2098.17 Q2086.16 2100.4 2086.38 2103.23 Q2086.61 2106.05 2089.26 2108.7 Q2091.89 2111.33 2094.73 2111.58 Q2097.56 2111.79 2099.78 2109.57 Q2102.01 2107.34 2101.78 2104.53 Q2101.55 2101.68 2098.92 2099.04 Q2096.26 2096.39 2093.43 2096.18 Q2090.62 2095.95 2088.39 2098.17 M2084.59 2081.25 L2087.6 2084.26 Q2085.77 2084.92 2084.18 2085.88 Q2082.61 2086.83 2081.37 2088.08 Q2078.1 2091.35 2078.57 2095.29 Q2079.06 2099.22 2083.28 2103.94 Q2082.83 2101.55 2083.53 2099.34 Q2084.22 2097.11 2085.97 2095.36 Q2089.65 2091.68 2094.02 2091.79 Q2098.39 2091.87 2102.24 2095.72 Q2106 2099.48 2106.05 2103.99 Q2106.1 2108.49 2102.4 2112.19 Q2098.16 2116.42 2092.68 2115.43 Q2087.18 2114.41 2081.01 2108.24 Q2075.21 2102.45 2074.53 2096.26 Q2073.82 2090.06 2078.46 2085.42 Q2079.7 2084.18 2081.21 2083.16 Q2082.73 2082.13 2084.59 2081.25 Z" fill="#000000" fill-rule="nonzero" fill-opacity="1" /><path clip-path="url(#clip620)" d="M2113.56 2094.51 L2118.97 2089.11 L2100.32 2070.46 L2095.63 2077.52 L2092.61 2074.51 L2097.28 2067.48 L2100.58 2064.18 L2122.24 2085.83 L2127.64 2080.43 L2130.42 2083.21 L2116.35 2097.29 L2113.56 2094.51 Z" fill="#000000" fill-rule="nonzero" fill-opacity="1" /><path clip-path="url(#clip620)" d="M2134.89 2073.18 L2140.29 2067.78 L2121.65 2049.14 L2116.95 2056.19 L2113.94 2053.18 L2118.61 2046.16 L2121.91 2042.85 L2143.57 2064.51 L2148.97 2059.1 L2151.75 2061.89 L2137.68 2075.96 L2134.89 2073.18 Z" fill="#000000" fill-rule="nonzero" fill-opacity="1" /><path clip-path="url(#clip620)" d="M2446.12 2098.34 Q2443.9 2100.56 2444.11 2103.4 Q2444.34 2106.21 2446.99 2108.86 Q2449.62 2111.5 2452.46 2111.74 Q2455.29 2111.96 2457.51 2109.73 Q2459.74 2107.5 2459.51 2104.69 Q2459.28 2101.84 2456.65 2099.21 Q2454 2096.55 2451.16 2096.34 Q2448.35 2096.11 2446.12 2098.34 M2442.32 2081.41 L2445.34 2084.43 Q2443.5 2085.08 2441.92 2086.05 Q2440.34 2086.99 2439.1 2088.24 Q2435.83 2091.51 2436.3 2095.46 Q2436.79 2099.39 2441.02 2104.1 Q2440.56 2101.71 2441.26 2099.5 Q2441.95 2097.27 2443.7 2095.52 Q2447.38 2091.84 2451.75 2091.95 Q2456.12 2092.04 2459.97 2095.88 Q2463.73 2099.65 2463.78 2104.15 Q2463.83 2108.65 2460.13 2112.35 Q2455.89 2116.59 2450.41 2115.59 Q2444.91 2114.58 2438.74 2108.4 Q2432.95 2102.61 2432.26 2096.42 Q2431.55 2090.22 2436.19 2085.59 Q2437.43 2084.34 2438.94 2083.33 Q2440.46 2082.3 2442.32 2081.41 Z" fill="#000000" fill-rule="nonzero" fill-opacity="1" /><path clip-path="url(#clip620)" d="M2461.03 2067.39 L2465.73 2088.78 L2474.08 2080.43 L2461.03 2067.39 M2457.29 2065.37 L2461.44 2061.22 L2477.37 2077.14 L2480.86 2073.65 L2483.61 2076.4 L2480.12 2079.89 L2485.88 2085.65 L2482.59 2088.94 L2476.83 2083.18 L2465.8 2094.21 L2462.6 2091.02 L2457.29 2065.37 Z" fill="#000000" fill-rule="nonzero" fill-opacity="1" /><path clip-path="url(#clip620)" d="M2470.43 2052.23 L2483.41 2039.25 L2486.19 2042.03 L2476.24 2051.98 L2482.23 2057.97 Q2482.7 2057.01 2483.31 2056.17 Q2483.9 2055.32 2484.62 2054.6 Q2488.71 2050.51 2493.34 2050.36 Q2497.98 2050.22 2501.81 2054.05 Q2505.75 2057.99 2505.49 2062.64 Q2505.21 2067.27 2500.74 2071.74 Q2499.2 2073.28 2497.34 2074.62 Q2495.49 2075.95 2493.26 2077.12 L2489.94 2073.8 Q2492.21 2073.13 2494.18 2071.95 Q2496.14 2070.77 2497.89 2069.02 Q2500.73 2066.19 2500.89 2063.05 Q2501.05 2059.91 2498.5 2057.35 Q2495.95 2054.8 2492.8 2054.96 Q2489.66 2055.13 2486.83 2057.96 Q2485.5 2059.28 2484.47 2060.9 Q2483.46 2062.51 2482.7 2064.51 L2470.43 2052.23 Z" fill="#000000" fill-rule="nonzero" fill-opacity="1" /><path clip-path="url(#clip620)" d="M2804.44 2097.91 Q2802.22 2100.14 2802.43 2102.97 Q2802.66 2105.79 2805.31 2108.44 Q2807.95 2111.07 2810.78 2111.32 Q2813.61 2111.53 2815.84 2109.3 Q2818.06 2107.08 2817.83 2104.26 Q2817.6 2101.42 2814.97 2098.78 Q2812.32 2096.13 2809.48 2095.92 Q2806.67 2095.69 2804.44 2097.91 M2800.65 2080.99 L2803.66 2084 Q2801.82 2084.65 2800.24 2085.62 Q2798.66 2086.57 2797.42 2087.81 Q2794.15 2091.09 2794.62 2095.03 Q2795.11 2098.96 2799.34 2103.67 Q2798.88 2101.28 2799.58 2099.07 Q2800.27 2096.85 2802.02 2095.1 Q2805.7 2091.41 2810.07 2091.53 Q2814.44 2091.61 2818.29 2095.46 Q2822.05 2099.22 2822.1 2103.72 Q2822.15 2108.22 2818.45 2111.92 Q2814.21 2116.16 2808.73 2115.16 Q2803.23 2114.15 2797.06 2107.98 Q2791.27 2102.18 2790.58 2096 Q2789.88 2089.79 2794.51 2085.16 Q2795.75 2083.92 2797.26 2082.9 Q2798.78 2081.87 2800.65 2080.99 Z" fill="#000000" fill-rule="nonzero" fill-opacity="1" /><path clip-path="url(#clip620)" d="M2831.42 2097 L2828.41 2093.98 Q2830.24 2093.33 2831.83 2092.36 Q2833.41 2091.4 2834.64 2090.17 Q2837.92 2086.9 2837.44 2082.98 Q2836.97 2079.04 2832.73 2074.31 Q2833.19 2076.67 2832.48 2078.88 Q2831.78 2081.09 2830.01 2082.85 Q2826.34 2086.52 2821.99 2086.45 Q2817.64 2086.36 2813.79 2082.51 Q2810.02 2078.75 2809.98 2074.24 Q2809.93 2069.74 2813.63 2066.04 Q2817.86 2061.8 2823.35 2062.84 Q2828.83 2063.83 2835.02 2070.02 Q2840.8 2075.8 2841.5 2082 Q2842.2 2088.17 2837.57 2092.81 Q2836.33 2094.05 2834.81 2095.08 Q2833.28 2096.11 2831.42 2097 M2827.64 2080.05 Q2829.86 2077.83 2829.63 2075.01 Q2829.42 2072.18 2826.77 2069.53 Q2824.13 2066.89 2821.3 2066.68 Q2818.47 2066.44 2816.24 2068.66 Q2814.02 2070.89 2814.25 2073.74 Q2814.48 2076.55 2817.11 2079.19 Q2819.76 2081.84 2822.58 2082.07 Q2825.41 2082.28 2827.64 2080.05 Z" fill="#000000" fill-rule="nonzero" fill-opacity="1" /><path clip-path="url(#clip620)" d="M2853.22 2070.64 L2864.76 2059.1 L2867.54 2061.89 L2852.02 2077.4 L2849.24 2074.62 Q2849.18 2070.79 2849.14 2064.28 Q2849.11 2057.73 2849 2055.94 Q2848.8 2052.57 2848.19 2050.72 Q2847.59 2048.84 2846.39 2047.65 Q2844.45 2045.7 2841.84 2045.85 Q2839.26 2045.98 2837.06 2048.17 Q2835.51 2049.72 2834.31 2052 Q2833.14 2054.26 2832.27 2057.32 L2828.93 2053.98 Q2830.12 2051.18 2831.45 2049.04 Q2832.78 2046.89 2834.22 2045.45 Q2838.01 2041.66 2842.17 2041.3 Q2846.33 2040.93 2849.5 2044.11 Q2851.01 2045.62 2851.8 2047.55 Q2852.58 2049.45 2852.93 2052.77 Q2852.99 2053.65 2853.07 2058.12 Q2853.14 2062.57 2853.22 2070.64 Z" fill="#000000" fill-rule="nonzero" fill-opacity="1" /><path clip-path="url(#clip620)" d="M3161.21 2099.04 Q3158.98 2101.27 3159.2 2104.1 Q3159.42 2106.91 3162.08 2109.57 Q3164.71 2112.2 3167.54 2112.45 Q3170.37 2112.66 3172.6 2110.43 Q3174.83 2108.21 3174.6 2105.39 Q3174.37 2102.54 3171.73 2099.91 Q3169.08 2097.26 3166.25 2097.04 Q3163.43 2096.82 3161.21 2099.04 M3157.41 2082.12 L3160.42 2085.13 Q3158.59 2085.78 3157 2086.75 Q3155.43 2087.7 3154.19 2088.94 Q3150.91 2092.22 3151.39 2096.16 Q3151.88 2100.09 3156.1 2104.8 Q3155.64 2102.41 3156.35 2100.2 Q3157.03 2097.98 3158.79 2096.23 Q3162.47 2092.54 3166.84 2092.66 Q3171.21 2092.74 3175.06 2096.59 Q3178.82 2100.35 3178.87 2104.85 Q3178.92 2109.35 3175.22 2113.05 Q3170.98 2117.29 3165.5 2116.29 Q3160 2115.28 3153.83 2109.11 Q3148.03 2103.31 3147.34 2097.13 Q3146.64 2090.92 3151.27 2086.29 Q3152.52 2085.05 3154.02 2084.03 Q3155.55 2083 3157.41 2082.12 Z" fill="#000000" fill-rule="nonzero" fill-opacity="1" /><path clip-path="url(#clip620)" d="M3163.32 2075.13 L3179.03 2059.41 L3180.44 2060.82 L3194.6 2092.72 L3191.15 2096.18 L3177.84 2066.17 L3166.1 2077.91 L3163.32 2075.13 Z" fill="#000000" fill-rule="nonzero" fill-opacity="1" /><path clip-path="url(#clip620)" d="M3194.73 2048.07 Q3192.18 2050.62 3193.4 2054.44 Q3194.63 2058.22 3199.67 2063.26 Q3204.7 2068.29 3208.5 2069.53 Q3212.29 2070.74 3214.85 2068.19 Q3217.42 2065.62 3216.19 2061.84 Q3214.96 2058.02 3209.94 2053 Q3204.9 2047.96 3201.1 2046.75 Q3197.3 2045.5 3194.73 2048.07 M3192.11 2045.45 Q3196.22 2041.34 3201.64 2042.44 Q3207.06 2043.5 3213.24 2049.69 Q3219.41 2055.86 3220.49 2061.3 Q3221.57 2066.7 3217.47 2070.81 Q3213.36 2074.92 3207.94 2073.85 Q3202.52 2072.75 3196.35 2066.58 Q3190.16 2060.4 3189.08 2055 Q3188 2049.56 3192.11 2045.45 Z" fill="#000000" fill-rule="nonzero" fill-opacity="1" /><path clip-path="url(#clip620)" d="M3518.99 2099.16 Q3516.76 2101.38 3516.98 2104.21 Q3517.21 2107.03 3519.86 2109.68 Q3522.49 2112.32 3525.32 2112.56 Q3528.16 2112.77 3530.38 2110.55 Q3532.61 2108.32 3532.38 2105.51 Q3532.15 2102.66 3529.51 2100.02 Q3526.86 2097.37 3524.03 2097.16 Q3521.22 2096.93 3518.99 2099.16 M3515.19 2082.23 L3518.2 2085.24 Q3516.37 2085.9 3514.78 2086.86 Q3513.21 2087.81 3511.97 2089.06 Q3508.69 2092.33 3509.17 2096.28 Q3509.66 2100.2 3513.88 2104.92 Q3513.42 2102.53 3514.13 2100.32 Q3514.82 2098.09 3516.57 2096.34 Q3520.25 2092.66 3524.62 2092.77 Q3528.99 2092.85 3532.84 2096.7 Q3536.6 2100.47 3536.65 2104.97 Q3536.7 2109.47 3533 2113.17 Q3528.76 2117.41 3523.28 2116.41 Q3517.78 2115.39 3511.61 2109.22 Q3505.81 2103.43 3505.13 2097.24 Q3504.42 2091.04 3509.05 2086.41 Q3510.3 2085.16 3511.8 2084.15 Q3513.33 2083.12 3515.19 2082.23 Z" fill="#000000" fill-rule="nonzero" fill-opacity="1" /><path clip-path="url(#clip620)" d="M3533.9 2068.2 L3538.6 2089.6 L3546.95 2081.25 L3533.9 2068.2 M3530.15 2066.19 L3534.31 2062.03 L3550.24 2077.96 L3553.72 2074.47 L3556.47 2077.22 L3552.99 2080.71 L3558.75 2086.47 L3555.46 2089.76 L3549.7 2084 L3538.66 2095.03 L3535.47 2091.84 L3530.15 2066.19 Z" fill="#000000" fill-rule="nonzero" fill-opacity="1" /><path clip-path="url(#clip620)" d="M3561.64 2056.5 Q3559.42 2058.73 3559.63 2061.56 Q3559.86 2064.37 3562.51 2067.03 Q3565.15 2069.66 3567.98 2069.91 Q3570.81 2070.12 3573.04 2067.89 Q3575.26 2065.67 3575.03 2062.85 Q3574.8 2060 3572.17 2057.37 Q3569.52 2054.72 3566.69 2054.5 Q3563.87 2054.28 3561.64 2056.5 M3557.85 2039.58 L3560.86 2042.59 Q3559.03 2043.24 3557.44 2044.21 Q3555.87 2045.16 3554.62 2046.4 Q3551.35 2049.68 3551.82 2053.62 Q3552.31 2057.55 3556.54 2062.26 Q3556.08 2059.87 3556.78 2057.66 Q3557.47 2055.44 3559.22 2053.69 Q3562.9 2050 3567.28 2050.12 Q3571.65 2050.2 3575.49 2054.05 Q3579.26 2057.81 3579.31 2062.31 Q3579.35 2066.81 3575.66 2070.51 Q3571.42 2074.75 3565.93 2073.75 Q3560.43 2072.74 3554.26 2066.57 Q3548.47 2060.77 3547.78 2054.59 Q3547.08 2048.38 3551.71 2043.75 Q3552.95 2042.51 3554.46 2041.49 Q3555.98 2040.46 3557.85 2039.58 Z" fill="#000000" fill-rule="nonzero" fill-opacity="1" /><path clip-path="url(#clip620)" d="M2090.76 2195.69 L2090.76 2213.1 L2101.07 2213.1 Q2106.26 2213.1 2108.74 2210.96 Q2111.25 2208.8 2111.25 2204.38 Q2111.25 2199.92 2108.74 2197.82 Q2106.26 2195.69 2101.07 2195.69 L2090.76 2195.69 M2090.76 2176.14 L2090.76 2190.47 L2100.27 2190.47 Q2104.98 2190.47 2107.27 2188.72 Q2109.6 2186.93 2109.6 2183.3 Q2109.6 2179.71 2107.27 2177.93 Q2104.98 2176.14 2100.27 2176.14 L2090.76 2176.14 M2084.33 2170.86 L2100.75 2170.86 Q2108.1 2170.86 2112.08 2173.92 Q2116.06 2176.97 2116.06 2182.6 Q2116.06 2186.96 2114.02 2189.54 Q2111.99 2192.12 2108.04 2192.76 Q2112.78 2193.78 2115.39 2197.02 Q2118.03 2200.24 2118.03 2205.08 Q2118.03 2211.44 2113.7 2214.91 Q2109.38 2218.38 2101.39 2218.38 L2084.33 2218.38 L2084.33 2170.86 Z" fill="#000000" fill-rule="nonzero" fill-opacity="1" /><path clip-path="url(#clip620)" d="M2128.19 2204.31 L2128.19 2182.73 L2134.04 2182.73 L2134.04 2204.09 Q2134.04 2209.15 2136.02 2211.7 Q2137.99 2214.21 2141.94 2214.21 Q2146.68 2214.21 2149.42 2211.19 Q2152.18 2208.16 2152.18 2202.94 L2152.18 2182.73 L2158.04 2182.73 L2158.04 2218.38 L2152.18 2218.38 L2152.18 2212.91 Q2150.05 2216.15 2147.22 2217.74 Q2144.42 2219.3 2140.69 2219.3 Q2134.55 2219.3 2131.37 2215.48 Q2128.19 2211.66 2128.19 2204.31 M2142.92 2181.87 L2142.92 2181.87 Z" fill="#000000" fill-rule="nonzero" fill-opacity="1" /><path clip-path="url(#clip620)" d="M2192.83 2183.78 L2192.83 2189.32 Q2190.35 2188.05 2187.67 2187.41 Q2185 2186.77 2182.14 2186.77 Q2177.77 2186.77 2175.58 2188.11 Q2173.41 2189.45 2173.41 2192.12 Q2173.41 2194.16 2174.97 2195.34 Q2176.53 2196.48 2181.24 2197.53 L2183.25 2197.98 Q2189.49 2199.31 2192.1 2201.77 Q2194.74 2204.18 2194.74 2208.54 Q2194.74 2213.51 2190.79 2216.41 Q2186.88 2219.3 2180 2219.3 Q2177.14 2219.3 2174.02 2218.73 Q2170.93 2218.19 2167.49 2217.07 L2167.49 2211.03 Q2170.74 2212.71 2173.89 2213.57 Q2177.04 2214.4 2180.13 2214.4 Q2184.27 2214.4 2186.5 2213 Q2188.72 2211.57 2188.72 2208.99 Q2188.72 2206.6 2187.1 2205.33 Q2185.51 2204.06 2180.07 2202.88 L2178.03 2202.4 Q2172.59 2201.26 2170.17 2198.9 Q2167.75 2196.51 2167.75 2192.38 Q2167.75 2187.35 2171.31 2184.61 Q2174.88 2181.87 2181.44 2181.87 Q2184.68 2181.87 2187.55 2182.35 Q2190.41 2182.83 2192.83 2183.78 Z" fill="#000000" fill-rule="nonzero" fill-opacity="1" /><polyline clip-path="url(#clip620)" style="stroke:#000000; stroke-linecap:round; stroke-linejoin:round; stroke-width:4; stroke-opacity:1; fill:none" points="386.242,1992.94 386.242,171.344 "/>
<polyline clip-path="url(#clip620)" style="stroke:#000000; stroke-linecap:round; stroke-linejoin:round; stroke-width:4; stroke-opacity:1; fill:none" points="386.242,1992.94 401.418,1992.94 "/>
<polyline clip-path="url(#clip620)" style="stroke:#000000; stroke-linecap:round; stroke-linejoin:round; stroke-width:4; stroke-opacity:1; fill:none" points="386.242,1537.54 401.418,1537.54 "/>
<polyline clip-path="url(#clip620)" style="stroke:#000000; stroke-linecap:round; stroke-linejoin:round; stroke-width:4; stroke-opacity:1; fill:none" points="386.242,1082.14 401.418,1082.14 "/>
<polyline clip-path="url(#clip620)" style="stroke:#000000; stroke-linecap:round; stroke-linejoin:round; stroke-width:4; stroke-opacity:1; fill:none" points="386.242,626.743 401.418,626.743 "/>
<polyline clip-path="url(#clip620)" style="stroke:#000000; stroke-linecap:round; stroke-linejoin:round; stroke-width:4; stroke-opacity:1; fill:none" points="386.242,171.344 401.418,171.344 "/>
<path clip-path="url(#clip620)" d="M302.297 1978.74 Q298.686 1978.74 296.857 1982.3 Q295.052 1985.84 295.052 1992.97 Q295.052 2000.08 296.857 2003.65 Q298.686 2007.19 302.297 2007.19 Q305.931 2007.19 307.737 2003.65 Q309.566 2000.08 309.566 1992.97 Q309.566 1985.84 307.737 1982.3 Q305.931 1978.74 302.297 1978.74 M302.297 1975.03 Q308.107 1975.03 311.163 1979.64 Q314.242 1984.22 314.242 1992.97 Q314.242 2001.7 311.163 2006.31 Q308.107 2010.89 302.297 2010.89 Q296.487 2010.89 293.408 2006.31 Q290.353 2001.7 290.353 1992.97 Q290.353 1984.22 293.408 1979.64 Q296.487 1975.03 302.297 1975.03 Z" fill="#000000" fill-rule="nonzero" fill-opacity="1" /><path clip-path="url(#clip620)" d="M267.159 1550.89 L283.478 1550.89 L283.478 1554.82 L261.534 1554.82 L261.534 1550.89 Q264.196 1548.13 268.779 1543.5 Q273.385 1538.85 274.566 1537.51 Q276.811 1534.98 277.691 1533.25 Q278.594 1531.49 278.594 1529.8 Q278.594 1527.04 276.649 1525.31 Q274.728 1523.57 271.626 1523.57 Q269.427 1523.57 266.973 1524.33 Q264.543 1525.1 261.765 1526.65 L261.765 1521.93 Q264.589 1520.79 267.043 1520.21 Q269.496 1519.64 271.534 1519.64 Q276.904 1519.64 280.098 1522.32 Q283.293 1525.01 283.293 1529.5 Q283.293 1531.63 282.483 1533.55 Q281.696 1535.45 279.589 1538.04 Q279.01 1538.71 275.909 1541.93 Q272.807 1545.12 267.159 1550.89 Z" fill="#000000" fill-rule="nonzero" fill-opacity="1" /><path clip-path="url(#clip620)" d="M293.339 1520.26 L311.695 1520.26 L311.695 1524.2 L297.621 1524.2 L297.621 1532.67 Q298.64 1532.32 299.658 1532.16 Q300.677 1531.97 301.695 1531.97 Q307.482 1531.97 310.862 1535.14 Q314.242 1538.32 314.242 1543.73 Q314.242 1549.31 310.769 1552.41 Q307.297 1555.49 300.978 1555.49 Q298.802 1555.49 296.533 1555.12 Q294.288 1554.75 291.881 1554.01 L291.881 1549.31 Q293.964 1550.45 296.186 1551 Q298.408 1551.56 300.885 1551.56 Q304.89 1551.56 307.228 1549.45 Q309.566 1547.34 309.566 1543.73 Q309.566 1540.12 307.228 1538.01 Q304.89 1535.91 300.885 1535.91 Q299.01 1535.91 297.135 1536.33 Q295.283 1536.74 293.339 1537.62 L293.339 1520.26 Z" fill="#000000" fill-rule="nonzero" fill-opacity="1" /><path clip-path="url(#clip620)" d="M262.182 1064.86 L280.538 1064.86 L280.538 1068.8 L266.464 1068.8 L266.464 1077.27 Q267.483 1076.92 268.501 1076.76 Q269.52 1076.57 270.538 1076.57 Q276.325 1076.57 279.705 1079.75 Q283.084 1082.92 283.084 1088.33 Q283.084 1093.91 279.612 1097.01 Q276.14 1100.09 269.821 1100.09 Q267.645 1100.09 265.376 1099.72 Q263.131 1099.35 260.723 1098.61 L260.723 1093.91 Q262.807 1095.05 265.029 1095.6 Q267.251 1096.16 269.728 1096.16 Q273.733 1096.16 276.071 1094.05 Q278.408 1091.94 278.408 1088.33 Q278.408 1084.72 276.071 1082.62 Q273.733 1080.51 269.728 1080.51 Q267.853 1080.51 265.978 1080.93 Q264.126 1081.34 262.182 1082.22 L262.182 1064.86 Z" fill="#000000" fill-rule="nonzero" fill-opacity="1" /><path clip-path="url(#clip620)" d="M302.297 1067.94 Q298.686 1067.94 296.857 1071.51 Q295.052 1075.05 295.052 1082.18 Q295.052 1089.28 296.857 1092.85 Q298.686 1096.39 302.297 1096.39 Q305.931 1096.39 307.737 1092.85 Q309.566 1089.28 309.566 1082.18 Q309.566 1075.05 307.737 1071.51 Q305.931 1067.94 302.297 1067.94 M302.297 1064.24 Q308.107 1064.24 311.163 1068.84 Q314.242 1073.43 314.242 1082.18 Q314.242 1090.9 311.163 1095.51 Q308.107 1100.09 302.297 1100.09 Q296.487 1100.09 293.408 1095.51 Q290.353 1090.9 290.353 1082.18 Q290.353 1073.43 293.408 1068.84 Q296.487 1064.24 302.297 1064.24 Z" fill="#000000" fill-rule="nonzero" fill-opacity="1" /><path clip-path="url(#clip620)" d="M261.95 609.463 L284.172 609.463 L284.172 611.454 L271.626 644.023 L266.742 644.023 L278.547 613.398 L261.95 613.398 L261.95 609.463 Z" fill="#000000" fill-rule="nonzero" fill-opacity="1" /><path clip-path="url(#clip620)" d="M293.339 609.463 L311.695 609.463 L311.695 613.398 L297.621 613.398 L297.621 621.87 Q298.64 621.523 299.658 621.361 Q300.677 621.176 301.695 621.176 Q307.482 621.176 310.862 624.347 Q314.242 627.518 314.242 632.935 Q314.242 638.514 310.769 641.616 Q307.297 644.694 300.978 644.694 Q298.802 644.694 296.533 644.324 Q294.288 643.954 291.881 643.213 L291.881 638.514 Q293.964 639.648 296.186 640.204 Q298.408 640.759 300.885 640.759 Q304.89 640.759 307.228 638.653 Q309.566 636.546 309.566 632.935 Q309.566 629.324 307.228 627.218 Q304.89 625.111 300.885 625.111 Q299.01 625.111 297.135 625.528 Q295.283 625.944 293.339 626.824 L293.339 609.463 Z" fill="#000000" fill-rule="nonzero" fill-opacity="1" /><path clip-path="url(#clip620)" d="M232.784 184.689 L240.423 184.689 L240.423 158.324 L232.112 159.99 L232.112 155.731 L240.376 154.064 L245.052 154.064 L245.052 184.689 L252.691 184.689 L252.691 188.624 L232.784 188.624 L232.784 184.689 Z" fill="#000000" fill-rule="nonzero" fill-opacity="1" /><path clip-path="url(#clip620)" d="M272.135 157.143 Q268.524 157.143 266.696 160.708 Q264.89 164.249 264.89 171.379 Q264.89 178.485 266.696 182.05 Q268.524 185.592 272.135 185.592 Q275.77 185.592 277.575 182.05 Q279.404 178.485 279.404 171.379 Q279.404 164.249 277.575 160.708 Q275.77 157.143 272.135 157.143 M272.135 153.439 Q277.946 153.439 281.001 158.046 Q284.08 162.629 284.08 171.379 Q284.08 180.106 281.001 184.712 Q277.946 189.296 272.135 189.296 Q266.325 189.296 263.247 184.712 Q260.191 180.106 260.191 171.379 Q260.191 162.629 263.247 158.046 Q266.325 153.439 272.135 153.439 Z" fill="#000000" fill-rule="nonzero" fill-opacity="1" /><path clip-path="url(#clip620)" d="M302.297 157.143 Q298.686 157.143 296.857 160.708 Q295.052 164.249 295.052 171.379 Q295.052 178.485 296.857 182.05 Q298.686 185.592 302.297 185.592 Q305.931 185.592 307.737 182.05 Q309.566 178.485 309.566 171.379 Q309.566 164.249 307.737 160.708 Q305.931 157.143 302.297 157.143 M302.297 153.439 Q308.107 153.439 311.163 158.046 Q314.242 162.629 314.242 171.379 Q314.242 180.106 311.163 184.712 Q308.107 189.296 302.297 189.296 Q296.487 189.296 293.408 184.712 Q290.353 180.106 290.353 171.379 Q290.353 162.629 293.408 158.046 Q296.487 153.439 302.297 153.439 Z" fill="#000000" fill-rule="nonzero" fill-opacity="1" /><path clip-path="url(#clip620)" d="M98.3364 1313.54 L98.3364 1307.11 L140.446 1307.11 L140.446 1283.97 L145.856 1283.97 L145.856 1313.54 L98.3364 1313.54 Z" fill="#000000" fill-rule="nonzero" fill-opacity="1" /><path clip-path="url(#clip620)" d="M114.314 1264.81 Q114.314 1269.52 118.006 1272.25 Q121.667 1274.99 128.064 1274.99 Q134.462 1274.99 138.154 1272.29 Q141.814 1269.55 141.814 1264.81 Q141.814 1260.13 138.122 1257.39 Q134.43 1254.65 128.064 1254.65 Q121.73 1254.65 118.038 1257.39 Q114.314 1260.13 114.314 1264.81 M109.349 1264.81 Q109.349 1257.17 114.314 1252.81 Q119.28 1248.45 128.064 1248.45 Q136.817 1248.45 141.814 1252.81 Q146.779 1257.17 146.779 1264.81 Q146.779 1272.48 141.814 1276.84 Q136.817 1281.17 128.064 1281.17 Q119.28 1281.17 114.314 1276.84 Q109.349 1272.48 109.349 1264.81 Z" fill="#000000" fill-rule="nonzero" fill-opacity="1" /><path clip-path="url(#clip620)" d="M127.937 1222.54 Q127.937 1229.64 129.56 1232.37 Q131.183 1235.11 135.098 1235.11 Q138.218 1235.11 140.064 1233.07 Q141.878 1231 141.878 1227.47 Q141.878 1222.6 138.44 1219.67 Q134.971 1216.71 129.242 1216.71 L127.937 1216.71 L127.937 1222.54 M125.518 1210.86 L145.856 1210.86 L145.856 1216.71 L140.446 1216.71 Q143.692 1218.72 145.252 1221.71 Q146.779 1224.7 146.779 1229.03 Q146.779 1234.5 143.724 1237.75 Q140.637 1240.97 135.48 1240.97 Q129.465 1240.97 126.409 1236.96 Q123.354 1232.91 123.354 1224.92 L123.354 1216.71 L122.781 1216.71 Q118.739 1216.71 116.542 1219.39 Q114.314 1222.03 114.314 1226.83 Q114.314 1229.89 115.046 1232.79 Q115.778 1235.68 117.243 1238.36 L111.832 1238.36 Q110.59 1235.14 109.986 1232.12 Q109.349 1229.09 109.349 1226.23 Q109.349 1218.5 113.36 1214.68 Q117.37 1210.86 125.518 1210.86 Z" fill="#000000" fill-rule="nonzero" fill-opacity="1" /><path clip-path="url(#clip620)" d="M115.619 1175.34 L96.3312 1175.34 L96.3312 1169.48 L145.856 1169.48 L145.856 1175.34 L140.509 1175.34 Q143.692 1177.18 145.252 1180.01 Q146.779 1182.82 146.779 1186.76 Q146.779 1193.22 141.623 1197.3 Q136.467 1201.34 128.064 1201.34 Q119.662 1201.34 114.505 1197.3 Q109.349 1193.22 109.349 1186.76 Q109.349 1182.82 110.909 1180.01 Q112.436 1177.18 115.619 1175.34 M128.064 1195.29 Q134.525 1195.29 138.218 1192.65 Q141.878 1189.98 141.878 1185.33 Q141.878 1180.68 138.218 1178.01 Q134.525 1175.34 128.064 1175.34 Q121.603 1175.34 117.943 1178.01 Q114.251 1180.68 114.251 1185.33 Q114.251 1189.98 117.943 1192.65 Q121.603 1195.29 128.064 1195.29 Z" fill="#000000" fill-rule="nonzero" fill-opacity="1" /><path clip-path="url(#clip620)" d="M99.896 1107.95 L106.166 1107.95 Q104.416 1111.61 103.556 1114.86 Q102.697 1118.11 102.697 1121.13 Q102.697 1126.38 104.734 1129.25 Q106.771 1132.08 110.527 1132.08 Q113.678 1132.08 115.301 1130.2 Q116.892 1128.29 117.879 1123.01 L118.675 1119.13 Q120.044 1111.93 123.513 1108.53 Q126.95 1105.09 132.743 1105.09 Q139.65 1105.09 143.215 1109.74 Q146.779 1114.35 146.779 1123.3 Q146.779 1126.67 146.016 1130.49 Q145.252 1134.28 143.756 1138.35 L137.135 1138.35 Q139.332 1134.44 140.446 1130.68 Q141.56 1126.92 141.56 1123.3 Q141.56 1117.79 139.395 1114.8 Q137.231 1111.81 133.221 1111.81 Q129.719 1111.81 127.746 1113.97 Q125.773 1116.1 124.786 1121 L124.022 1124.92 Q122.59 1132.11 119.534 1135.33 Q116.479 1138.54 111.036 1138.54 Q104.734 1138.54 101.106 1134.12 Q97.4771 1129.66 97.4771 1121.86 Q97.4771 1118.52 98.0818 1115.05 Q98.6866 1111.58 99.896 1107.95 Z" fill="#000000" fill-rule="nonzero" fill-opacity="1" /><path clip-path="url(#clip620)" d="M124.34 1065.69 L145.856 1065.69 L145.856 1071.54 L124.531 1071.54 Q119.471 1071.54 116.956 1073.52 Q114.442 1075.49 114.442 1079.44 Q114.442 1084.18 117.465 1086.92 Q120.489 1089.65 125.709 1089.65 L145.856 1089.65 L145.856 1095.54 L96.3312 1095.54 L96.3312 1089.65 L115.747 1089.65 Q112.532 1087.55 110.941 1084.72 Q109.349 1081.86 109.349 1078.13 Q109.349 1071.99 113.169 1068.84 Q116.956 1065.69 124.34 1065.69 Z" fill="#000000" fill-rule="nonzero" fill-opacity="1" /><path clip-path="url(#clip620)" d="M126.568 1023.51 L129.433 1023.51 L129.433 1050.44 Q135.48 1050.06 138.663 1046.81 Q141.814 1043.53 141.814 1037.71 Q141.814 1034.34 140.987 1031.18 Q140.159 1028 138.504 1024.88 L144.042 1024.88 Q145.379 1028.03 146.079 1031.34 Q146.779 1034.65 146.779 1038.06 Q146.779 1046.59 141.814 1051.59 Q136.849 1056.55 128.383 1056.55 Q119.63 1056.55 114.505 1051.84 Q109.349 1047.1 109.349 1039.08 Q109.349 1031.88 113.996 1027.71 Q118.611 1023.51 126.568 1023.51 M124.85 1029.37 Q120.044 1029.43 117.179 1032.08 Q114.314 1034.69 114.314 1039.01 Q114.314 1043.92 117.083 1046.88 Q119.853 1049.8 124.881 1050.25 L124.85 1029.37 Z" fill="#000000" fill-rule="nonzero" fill-opacity="1" /><path clip-path="url(#clip620)" d="M115.619 990.444 L96.3312 990.444 L96.3312 984.587 L145.856 984.587 L145.856 990.444 L140.509 990.444 Q143.692 992.29 145.252 995.123 Q146.779 997.923 146.779 1001.87 Q146.779 1008.33 141.623 1012.41 Q136.467 1016.45 128.064 1016.45 Q119.662 1016.45 114.505 1012.41 Q109.349 1008.33 109.349 1001.87 Q109.349 997.923 110.909 995.123 Q112.436 992.29 115.619 990.444 M128.064 1010.4 Q134.525 1010.4 138.218 1007.76 Q141.878 1005.08 141.878 1000.44 Q141.878 995.791 138.218 993.117 Q134.525 990.444 128.064 990.444 Q121.603 990.444 117.943 993.117 Q114.251 995.791 114.251 1000.44 Q114.251 1005.08 117.943 1007.76 Q121.603 1010.4 128.064 1010.4 Z" fill="#000000" fill-rule="nonzero" fill-opacity="1" /><path clip-path="url(#clip620)" d="M96.3949 937.736 Q103.715 942.001 110.877 944.07 Q118.038 946.138 125.391 946.138 Q132.743 946.138 139.968 944.07 Q147.161 941.969 154.45 937.736 L154.45 942.828 Q146.97 947.603 139.745 949.99 Q132.52 952.345 125.391 952.345 Q118.293 952.345 111.1 949.99 Q103.906 947.634 96.3949 942.828 L96.3949 937.736 Z" fill="#000000" fill-rule="nonzero" fill-opacity="1" /><path clip-path="url(#clip620)" d="M124.945 885.123 Q124.945 887.892 127.3 889.484 Q129.656 891.043 133.857 891.043 Q137.995 891.043 140.382 889.484 Q142.737 887.892 142.737 885.123 Q142.737 882.418 140.382 880.858 Q137.995 879.267 133.857 879.267 Q129.688 879.267 127.332 880.858 Q124.945 882.418 124.945 885.123 M120.903 885.123 Q120.903 880.094 124.404 877.134 Q127.905 874.174 133.857 874.174 Q139.809 874.174 143.31 877.166 Q146.779 880.126 146.779 885.123 Q146.779 890.216 143.31 893.176 Q139.809 896.136 133.857 896.136 Q127.873 896.136 124.404 893.176 Q120.903 890.184 120.903 885.123 M101.519 917.97 Q101.519 920.707 103.906 922.299 Q106.262 923.858 110.399 923.858 Q114.601 923.858 116.956 922.299 Q119.311 920.739 119.311 917.97 Q119.311 915.201 116.956 913.641 Q114.601 912.05 110.399 912.05 Q106.294 912.05 103.906 913.641 Q101.519 915.233 101.519 917.97 M97.4771 889.229 L97.4771 884.136 L146.779 913.864 L146.779 918.957 L97.4771 889.229 M97.4771 917.97 Q97.4771 912.941 100.978 909.949 Q104.448 906.957 110.399 906.957 Q116.415 906.957 119.884 909.949 Q123.354 912.909 123.354 917.97 Q123.354 923.031 119.884 925.991 Q116.383 928.919 110.399 928.919 Q104.479 928.919 100.978 925.959 Q97.4771 922.999 97.4771 917.97 Z" fill="#000000" fill-rule="nonzero" fill-opacity="1" /><path clip-path="url(#clip620)" d="M96.3949 865.358 L96.3949 860.265 Q103.906 855.491 111.1 853.135 Q118.293 850.748 125.391 850.748 Q132.52 850.748 139.745 853.135 Q146.97 855.491 154.45 860.265 L154.45 865.358 Q147.161 861.124 139.968 859.056 Q132.743 856.955 125.391 856.955 Q118.038 856.955 110.877 859.056 Q103.715 861.124 96.3949 865.358 Z" fill="#000000" fill-rule="nonzero" fill-opacity="1" /><path clip-path="url(#clip620)" d="M1206.1 20.1573 L1195 50.2555 L1217.24 50.2555 L1206.1 20.1573 M1201.49 12.096 L1210.76 12.096 L1233.81 72.576 L1225.3 72.576 L1219.8 57.061 L1192.53 57.061 L1187.02 72.576 L1178.4 72.576 L1201.49 12.096 Z" fill="#000000" fill-rule="nonzero" fill-opacity="1" /><path clip-path="url(#clip620)" d="M1273.51 28.9478 L1273.51 35.9153 Q1270.35 34.1734 1267.15 33.3227 Q1263.99 32.4315 1260.75 32.4315 Q1253.5 32.4315 1249.49 37.0496 Q1245.48 41.6271 1245.48 49.9314 Q1245.48 58.2358 1249.49 62.8538 Q1253.5 67.4314 1260.75 67.4314 Q1263.99 67.4314 1267.15 66.5807 Q1270.35 65.6895 1273.51 63.9476 L1273.51 70.8341 Q1270.39 72.2924 1267.03 73.0216 Q1263.71 73.7508 1259.94 73.7508 Q1249.69 73.7508 1243.66 67.3098 Q1237.62 60.8689 1237.62 49.9314 Q1237.62 38.832 1243.7 32.472 Q1249.81 26.1121 1260.43 26.1121 Q1263.87 26.1121 1267.15 26.8413 Q1270.43 27.5299 1273.51 28.9478 Z" fill="#000000" fill-rule="nonzero" fill-opacity="1" /><path clip-path="url(#clip620)" d="M1293.85 14.324 L1293.85 27.2059 L1309.2 27.2059 L1309.2 32.9987 L1293.85 32.9987 L1293.85 57.6282 Q1293.85 63.1779 1295.34 64.7578 Q1296.88 66.3376 1301.54 66.3376 L1309.2 66.3376 L1309.2 72.576 L1301.54 72.576 Q1292.91 72.576 1289.63 69.3758 Q1286.35 66.1351 1286.35 57.6282 L1286.35 32.9987 L1280.88 32.9987 L1280.88 27.2059 L1286.35 27.2059 L1286.35 14.324 L1293.85 14.324 Z" fill="#000000" fill-rule="nonzero" fill-opacity="1" /><path clip-path="url(#clip620)" d="M1319 27.2059 L1326.46 27.2059 L1326.46 72.576 L1319 72.576 L1319 27.2059 M1319 9.54393 L1326.46 9.54393 L1326.46 18.9825 L1319 18.9825 L1319 9.54393 Z" fill="#000000" fill-rule="nonzero" fill-opacity="1" /><path clip-path="url(#clip620)" d="M1336.7 27.2059 L1344.6 27.2059 L1358.78 65.2844 L1372.96 27.2059 L1380.86 27.2059 L1363.85 72.576 L1353.72 72.576 L1336.7 27.2059 Z" fill="#000000" fill-rule="nonzero" fill-opacity="1" /><path clip-path="url(#clip620)" d="M1429.96 48.0275 L1429.96 51.6733 L1395.69 51.6733 Q1396.17 59.3701 1400.3 63.421 Q1404.48 67.4314 1411.89 67.4314 Q1416.18 67.4314 1420.19 66.3781 Q1424.24 65.3249 1428.21 63.2184 L1428.21 70.267 Q1424.2 71.9684 1419.99 72.8596 Q1415.78 73.7508 1411.44 73.7508 Q1400.59 73.7508 1394.23 67.4314 Q1387.91 61.1119 1387.91 50.3365 Q1387.91 39.1965 1393.9 32.6746 Q1399.94 26.1121 1410.15 26.1121 Q1419.3 26.1121 1424.61 32.0264 Q1429.96 37.9003 1429.96 48.0275 M1422.5 45.84 Q1422.42 39.7232 1419.06 36.0774 Q1415.74 32.4315 1410.23 32.4315 Q1403.99 32.4315 1400.22 35.9558 Q1396.5 39.4801 1395.93 45.8805 L1422.5 45.84 Z" fill="#000000" fill-rule="nonzero" fill-opacity="1" /><path clip-path="url(#clip620)" d="M1477.07 18.8205 L1477.07 41.5461 L1487.36 41.5461 Q1493.07 41.5461 1496.19 38.5889 Q1499.31 35.6318 1499.31 30.163 Q1499.31 24.7348 1496.19 21.7777 Q1493.07 18.8205 1487.36 18.8205 L1477.07 18.8205 M1468.89 12.096 L1487.36 12.096 Q1497.53 12.096 1502.71 16.714 Q1507.94 21.2916 1507.94 30.163 Q1507.94 39.1155 1502.71 43.6931 Q1497.53 48.2706 1487.36 48.2706 L1477.07 48.2706 L1477.07 72.576 L1468.89 72.576 L1468.89 12.096 Z" fill="#000000" fill-rule="nonzero" fill-opacity="1" /><path clip-path="url(#clip620)" d="M1533.21 32.4315 Q1527.22 32.4315 1523.73 37.1306 Q1520.25 41.7891 1520.25 49.9314 Q1520.25 58.0738 1523.69 62.7728 Q1527.18 67.4314 1533.21 67.4314 Q1539.17 67.4314 1542.65 62.7323 Q1546.14 58.0333 1546.14 49.9314 Q1546.14 41.8701 1542.65 37.1711 Q1539.17 32.4315 1533.21 32.4315 M1533.21 26.1121 Q1542.94 26.1121 1548.49 32.4315 Q1554.04 38.7509 1554.04 49.9314 Q1554.04 61.0714 1548.49 67.4314 Q1542.94 73.7508 1533.21 73.7508 Q1523.45 73.7508 1517.9 67.4314 Q1512.39 61.0714 1512.39 49.9314 Q1512.39 38.7509 1517.9 32.4315 Q1523.45 26.1121 1533.21 26.1121 Z" fill="#000000" fill-rule="nonzero" fill-opacity="1" /><path clip-path="url(#clip620)" d="M1562.06 27.2059 L1569.51 27.2059 L1578.83 62.6108 L1588.1 27.2059 L1596.89 27.2059 L1606.21 62.6108 L1615.49 27.2059 L1622.94 27.2059 L1611.07 72.576 L1602.28 72.576 L1592.52 35.3887 L1582.72 72.576 L1573.93 72.576 L1562.06 27.2059 Z" fill="#000000" fill-rule="nonzero" fill-opacity="1" /><path clip-path="url(#clip620)" d="M1673.05 48.0275 L1673.05 51.6733 L1638.78 51.6733 Q1639.27 59.3701 1643.4 63.421 Q1647.57 67.4314 1654.98 67.4314 Q1659.28 67.4314 1663.29 66.3781 Q1667.34 65.3249 1671.31 63.2184 L1671.31 70.267 Q1667.3 71.9684 1663.09 72.8596 Q1658.87 73.7508 1654.54 73.7508 Q1643.68 73.7508 1637.32 67.4314 Q1631 61.1119 1631 50.3365 Q1631 39.1965 1637 32.6746 Q1643.03 26.1121 1653.24 26.1121 Q1662.4 26.1121 1667.7 32.0264 Q1673.05 37.9003 1673.05 48.0275 M1665.6 45.84 Q1665.52 39.7232 1662.15 36.0774 Q1658.83 32.4315 1653.32 32.4315 Q1647.08 32.4315 1643.32 35.9558 Q1639.59 39.4801 1639.02 45.8805 L1665.6 45.84 Z" fill="#000000" fill-rule="nonzero" fill-opacity="1" /><path clip-path="url(#clip620)" d="M1711.58 34.1734 Q1710.32 33.4443 1708.82 33.1202 Q1707.36 32.7556 1705.58 32.7556 Q1699.26 32.7556 1695.86 36.8875 Q1692.5 40.9789 1692.5 48.6757 L1692.5 72.576 L1685 72.576 L1685 27.2059 L1692.5 27.2059 L1692.5 34.2544 Q1694.84 30.1225 1698.61 28.1376 Q1702.38 26.1121 1707.77 26.1121 Q1708.54 26.1121 1709.47 26.2337 Q1710.4 26.3147 1711.53 26.5172 L1711.58 34.1734 Z" fill="#000000" fill-rule="nonzero" fill-opacity="1" /><path clip-path="url(#clip620)" d="M1746.09 12.096 L1754.27 12.096 L1754.27 65.6895 L1783.72 65.6895 L1783.72 72.576 L1746.09 72.576 L1746.09 12.096 Z" fill="#000000" fill-rule="nonzero" fill-opacity="1" /><path clip-path="url(#clip620)" d="M1808.11 32.4315 Q1802.11 32.4315 1798.63 37.1306 Q1795.15 41.7891 1795.15 49.9314 Q1795.15 58.0738 1798.59 62.7728 Q1802.07 67.4314 1808.11 67.4314 Q1814.06 67.4314 1817.55 62.7323 Q1821.03 58.0333 1821.03 49.9314 Q1821.03 41.8701 1817.55 37.1711 Q1814.06 32.4315 1808.11 32.4315 M1808.11 26.1121 Q1817.83 26.1121 1823.38 32.4315 Q1828.93 38.7509 1828.93 49.9314 Q1828.93 61.0714 1823.38 67.4314 Q1817.83 73.7508 1808.11 73.7508 Q1798.35 73.7508 1792.8 67.4314 Q1787.29 61.0714 1787.29 49.9314 Q1787.29 38.7509 1792.8 32.4315 Q1798.35 26.1121 1808.11 26.1121 Z" fill="#000000" fill-rule="nonzero" fill-opacity="1" /><path clip-path="url(#clip620)" d="M1861.9 49.7694 Q1852.87 49.7694 1849.39 51.8354 Q1845.9 53.9013 1845.9 58.8839 Q1845.9 62.8538 1848.5 65.2034 Q1851.13 67.5124 1855.63 67.5124 Q1861.82 67.5124 1865.55 63.1374 Q1869.32 58.7219 1869.32 51.4303 L1869.32 49.7694 L1861.9 49.7694 M1876.77 46.6907 L1876.77 72.576 L1869.32 72.576 L1869.32 65.6895 Q1866.77 69.8214 1862.96 71.8063 Q1859.15 73.7508 1853.64 73.7508 Q1846.67 73.7508 1842.54 69.8619 Q1838.45 65.9325 1838.45 59.3701 Q1838.45 51.7138 1843.55 47.825 Q1848.7 43.9361 1858.87 43.9361 L1869.32 43.9361 L1869.32 43.2069 Q1869.32 38.0623 1865.91 35.2672 Q1862.55 32.4315 1856.44 32.4315 Q1852.55 32.4315 1848.86 33.3632 Q1845.17 34.295 1841.77 36.1584 L1841.77 29.2718 Q1845.86 27.692 1849.71 26.9223 Q1853.56 26.1121 1857.21 26.1121 Q1867.05 26.1121 1871.91 31.2163 Q1876.77 36.3204 1876.77 46.6907 Z" fill="#000000" fill-rule="nonzero" fill-opacity="1" /><path clip-path="url(#clip620)" d="M1921.98 34.0924 L1921.98 9.54393 L1929.43 9.54393 L1929.43 72.576 L1921.98 72.576 L1921.98 65.7705 Q1919.63 69.8214 1916.02 71.8063 Q1912.46 73.7508 1907.44 73.7508 Q1899.21 73.7508 1894.03 67.1883 Q1888.88 60.6258 1888.88 49.9314 Q1888.88 39.2371 1894.03 32.6746 Q1899.21 26.1121 1907.44 26.1121 Q1912.46 26.1121 1916.02 28.0971 Q1919.63 30.0415 1921.98 34.0924 M1896.58 49.9314 Q1896.58 58.1548 1899.94 62.8538 Q1903.34 67.5124 1909.26 67.5124 Q1915.17 67.5124 1918.58 62.8538 Q1921.98 58.1548 1921.98 49.9314 Q1921.98 41.7081 1918.58 37.0496 Q1915.17 32.3505 1909.26 32.3505 Q1903.34 32.3505 1899.94 37.0496 Q1896.58 41.7081 1896.58 49.9314 Z" fill="#000000" fill-rule="nonzero" fill-opacity="1" /><path clip-path="url(#clip620)" d="M2007.74 14.0809 L2007.74 22.0612 Q2003.08 19.8332 1998.95 18.7395 Q1994.81 17.6457 1990.97 17.6457 Q1984.28 17.6457 1980.64 20.2383 Q1977.03 22.8309 1977.03 27.611 Q1977.03 31.6214 1979.42 33.6873 Q1981.85 35.7128 1988.58 36.9686 L1993.52 37.9813 Q2002.67 39.7232 2007.01 44.1387 Q2011.38 48.5136 2011.38 55.8863 Q2011.38 64.6767 2005.47 69.2137 Q1999.59 73.7508 1988.21 73.7508 Q1983.92 73.7508 1979.06 72.7785 Q1974.24 71.8063 1969.05 69.9024 L1969.05 61.4765 Q1974.03 64.2716 1978.81 65.6895 Q1983.59 67.1073 1988.21 67.1073 Q1995.22 67.1073 1999.03 64.3527 Q2002.84 61.598 2002.84 56.4939 Q2002.84 52.0379 2000.08 49.5264 Q1997.37 47.0148 1991.13 45.759 L1986.15 44.7868 Q1976.99 42.9639 1972.9 39.075 Q1968.81 35.1862 1968.81 28.2591 Q1968.81 20.2383 1974.44 15.6203 Q1980.11 11.0023 1990.03 11.0023 Q1994.29 11.0023 1998.7 11.7719 Q2003.12 12.5416 2007.74 14.0809 Z" fill="#000000" fill-rule="nonzero" fill-opacity="1" /><path clip-path="url(#clip620)" d="M2061.53 45.1919 L2061.53 72.576 L2054.08 72.576 L2054.08 45.4349 Q2054.08 38.994 2051.57 35.7938 Q2049.06 32.5936 2044.03 32.5936 Q2038 32.5936 2034.51 36.4419 Q2031.03 40.2903 2031.03 46.9338 L2031.03 72.576 L2023.54 72.576 L2023.54 9.54393 L2031.03 9.54393 L2031.03 34.2544 Q2033.7 30.163 2037.31 28.1376 Q2040.95 26.1121 2045.69 26.1121 Q2053.51 26.1121 2057.52 30.9732 Q2061.53 35.7938 2061.53 45.1919 Z" fill="#000000" fill-rule="nonzero" fill-opacity="1" /><path clip-path="url(#clip620)" d="M2115.21 48.0275 L2115.21 51.6733 L2080.94 51.6733 Q2081.42 59.3701 2085.55 63.421 Q2089.73 67.4314 2097.14 67.4314 Q2101.43 67.4314 2105.44 66.3781 Q2109.5 65.3249 2113.47 63.2184 L2113.47 70.267 Q2109.45 71.9684 2105.24 72.8596 Q2101.03 73.7508 2096.69 73.7508 Q2085.84 73.7508 2079.48 67.4314 Q2073.16 61.1119 2073.16 50.3365 Q2073.16 39.1965 2079.15 32.6746 Q2085.19 26.1121 2095.4 26.1121 Q2104.55 26.1121 2109.86 32.0264 Q2115.21 37.9003 2115.21 48.0275 M2107.75 45.84 Q2107.67 39.7232 2104.31 36.0774 Q2100.99 32.4315 2095.48 32.4315 Q2089.24 32.4315 2085.47 35.9558 Q2081.75 39.4801 2081.18 45.8805 L2107.75 45.84 Z" fill="#000000" fill-rule="nonzero" fill-opacity="1" /><path clip-path="url(#clip620)" d="M2157.3 34.0924 L2157.3 9.54393 L2164.75 9.54393 L2164.75 72.576 L2157.3 72.576 L2157.3 65.7705 Q2154.95 69.8214 2151.34 71.8063 Q2147.78 73.7508 2142.75 73.7508 Q2134.53 73.7508 2129.34 67.1883 Q2124.2 60.6258 2124.2 49.9314 Q2124.2 39.2371 2129.34 32.6746 Q2134.53 26.1121 2142.75 26.1121 Q2147.78 26.1121 2151.34 28.0971 Q2154.95 30.0415 2157.3 34.0924 M2131.9 49.9314 Q2131.9 58.1548 2135.26 62.8538 Q2138.66 67.5124 2144.58 67.5124 Q2150.49 67.5124 2153.89 62.8538 Q2157.3 58.1548 2157.3 49.9314 Q2157.3 41.7081 2153.89 37.0496 Q2150.49 32.3505 2144.58 32.3505 Q2138.66 32.3505 2135.26 37.0496 Q2131.9 41.7081 2131.9 49.9314 Z" fill="#000000" fill-rule="nonzero" fill-opacity="1" /><path clip-path="url(#clip620)" d="M2213.68 65.7705 L2213.68 89.8329 L2206.19 89.8329 L2206.19 27.2059 L2213.68 27.2059 L2213.68 34.0924 Q2216.03 30.0415 2219.6 28.0971 Q2223.2 26.1121 2228.19 26.1121 Q2236.45 26.1121 2241.6 32.6746 Q2246.78 39.2371 2246.78 49.9314 Q2246.78 60.6258 2241.6 67.1883 Q2236.45 73.7508 2228.19 73.7508 Q2223.2 73.7508 2219.6 71.8063 Q2216.03 69.8214 2213.68 65.7705 M2239.04 49.9314 Q2239.04 41.7081 2235.64 37.0496 Q2232.28 32.3505 2226.36 32.3505 Q2220.45 32.3505 2217.05 37.0496 Q2213.68 41.7081 2213.68 49.9314 Q2213.68 58.1548 2217.05 62.8538 Q2220.45 67.5124 2226.36 67.5124 Q2232.28 67.5124 2235.64 62.8538 Q2239.04 58.1548 2239.04 49.9314 Z" fill="#000000" fill-rule="nonzero" fill-opacity="1" /><path clip-path="url(#clip620)" d="M2297.94 48.0275 L2297.94 51.6733 L2263.67 51.6733 Q2264.16 59.3701 2268.29 63.421 Q2272.46 67.4314 2279.88 67.4314 Q2284.17 67.4314 2288.18 66.3781 Q2292.23 65.3249 2296.2 63.2184 L2296.2 70.267 Q2292.19 71.9684 2287.98 72.8596 Q2283.77 73.7508 2279.43 73.7508 Q2268.57 73.7508 2262.21 67.4314 Q2255.9 61.1119 2255.9 50.3365 Q2255.9 39.1965 2261.89 32.6746 Q2267.93 26.1121 2278.13 26.1121 Q2287.29 26.1121 2292.6 32.0264 Q2297.94 37.9003 2297.94 48.0275 M2290.49 45.84 Q2290.41 39.7232 2287.05 36.0774 Q2283.72 32.4315 2278.22 32.4315 Q2271.98 32.4315 2268.21 35.9558 Q2264.48 39.4801 2263.92 45.8805 L2290.49 45.84 Z" fill="#000000" fill-rule="nonzero" fill-opacity="1" /><path clip-path="url(#clip620)" d="M2336.47 34.1734 Q2335.21 33.4443 2333.71 33.1202 Q2332.25 32.7556 2330.47 32.7556 Q2324.15 32.7556 2320.75 36.8875 Q2317.39 40.9789 2317.39 48.6757 L2317.39 72.576 L2309.89 72.576 L2309.89 27.2059 L2317.39 27.2059 L2317.39 34.2544 Q2319.74 30.1225 2323.5 28.1376 Q2327.27 26.1121 2332.66 26.1121 Q2333.43 26.1121 2334.36 26.2337 Q2335.29 26.3147 2336.43 26.5172 L2336.47 34.1734 Z" fill="#000000" fill-rule="nonzero" fill-opacity="1" /><path clip-path="url(#clip620)" d="M2379.16 43.6931 L2379.16 65.8515 L2392.29 65.8515 Q2398.89 65.8515 2402.05 63.1374 Q2405.25 60.3828 2405.25 54.752 Q2405.25 49.0808 2402.05 46.4072 Q2398.89 43.6931 2392.29 43.6931 L2379.16 43.6931 M2379.16 18.8205 L2379.16 37.0496 L2391.28 37.0496 Q2397.27 37.0496 2400.19 34.8216 Q2403.15 32.5531 2403.15 27.935 Q2403.15 23.3575 2400.19 21.089 Q2397.27 18.8205 2391.28 18.8205 L2379.16 18.8205 M2370.98 12.096 L2391.88 12.096 Q2401.24 12.096 2406.31 15.9849 Q2411.37 19.8737 2411.37 27.0438 Q2411.37 32.5936 2408.78 35.8748 Q2406.18 39.156 2401.16 39.9662 Q2407.2 41.2625 2410.52 45.3944 Q2413.88 49.4858 2413.88 55.6432 Q2413.88 63.745 2408.37 68.1605 Q2402.86 72.576 2392.69 72.576 L2370.98 72.576 L2370.98 12.096 Z" fill="#000000" fill-rule="nonzero" fill-opacity="1" /><path clip-path="url(#clip620)" d="M2426.8 54.671 L2426.8 27.2059 L2434.26 27.2059 L2434.26 54.3874 Q2434.26 60.8284 2436.77 64.0691 Q2439.28 67.2693 2444.3 67.2693 Q2450.34 67.2693 2453.82 63.421 Q2457.35 59.5726 2457.35 52.9291 L2457.35 27.2059 L2464.8 27.2059 L2464.8 72.576 L2457.35 72.576 L2457.35 65.6084 Q2454.63 69.7404 2451.03 71.7658 Q2447.46 73.7508 2442.72 73.7508 Q2434.9 73.7508 2430.85 68.8897 Q2426.8 64.0286 2426.8 54.671 M2445.56 26.1121 L2445.56 26.1121 Z" fill="#000000" fill-rule="nonzero" fill-opacity="1" /><path clip-path="url(#clip620)" d="M2509.08 28.5427 L2509.08 35.5912 Q2505.92 33.9709 2502.51 33.1607 Q2499.11 32.3505 2495.47 32.3505 Q2489.92 32.3505 2487.12 34.0519 Q2484.37 35.7533 2484.37 39.156 Q2484.37 41.7486 2486.35 43.2475 Q2488.34 44.7058 2494.33 46.0426 L2496.88 46.6097 Q2504.82 48.3111 2508.14 51.4303 Q2511.51 54.509 2511.51 60.0587 Q2511.51 66.3781 2506.48 70.0644 Q2501.5 73.7508 2492.75 73.7508 Q2489.11 73.7508 2485.14 73.0216 Q2481.21 72.3329 2476.83 70.9151 L2476.83 63.2184 Q2480.96 65.3654 2484.97 66.4591 Q2488.98 67.5124 2492.91 67.5124 Q2498.18 67.5124 2501.02 65.73 Q2503.85 63.9071 2503.85 60.6258 Q2503.85 57.5877 2501.78 55.9673 Q2499.76 54.3469 2492.83 52.8481 L2490.24 52.2405 Q2483.31 50.7821 2480.23 47.7845 Q2477.16 44.7463 2477.16 39.4801 Q2477.16 33.0797 2481.69 29.5959 Q2486.23 26.1121 2494.57 26.1121 Q2498.71 26.1121 2502.35 26.7198 Q2506 27.3274 2509.08 28.5427 Z" fill="#000000" fill-rule="nonzero" fill-opacity="1" /><path clip-path="url(#clip620)" d="M2525.28 62.2867 L2533.83 62.2867 L2533.83 72.576 L2525.28 72.576 L2525.28 62.2867 M2525.28 29.6769 L2533.83 29.6769 L2533.83 39.9662 L2525.28 39.9662 L2525.28 29.6769 Z" fill="#000000" fill-rule="nonzero" fill-opacity="1" /><path clip-path="url(#clip620)" d="M2613.02 35.9153 Q2615.82 30.8922 2619.71 28.5022 Q2623.6 26.1121 2628.86 26.1121 Q2635.95 26.1121 2639.8 31.0947 Q2643.65 36.0368 2643.65 45.1919 L2643.65 72.576 L2636.15 72.576 L2636.15 45.4349 Q2636.15 38.913 2633.84 35.7533 Q2631.54 32.5936 2626.8 32.5936 Q2621 32.5936 2617.64 36.4419 Q2614.28 40.2903 2614.28 46.9338 L2614.28 72.576 L2606.78 72.576 L2606.78 45.4349 Q2606.78 38.8725 2604.48 35.7533 Q2602.17 32.5936 2597.35 32.5936 Q2591.63 32.5936 2588.27 36.4824 Q2584.91 40.3308 2584.91 46.9338 L2584.91 72.576 L2577.42 72.576 L2577.42 27.2059 L2584.91 27.2059 L2584.91 34.2544 Q2587.46 30.082 2591.03 28.0971 Q2594.59 26.1121 2599.49 26.1121 Q2604.43 26.1121 2607.88 28.6237 Q2611.36 31.1352 2613.02 35.9153 Z" fill="#000000" fill-rule="nonzero" fill-opacity="1" /><path clip-path="url(#clip620)" d="M2676.1 32.4315 Q2670.1 32.4315 2666.62 37.1306 Q2663.13 41.7891 2663.13 49.9314 Q2663.13 58.0738 2666.58 62.7728 Q2670.06 67.4314 2676.1 67.4314 Q2682.05 67.4314 2685.53 62.7323 Q2689.02 58.0333 2689.02 49.9314 Q2689.02 41.8701 2685.53 37.1711 Q2682.05 32.4315 2676.1 32.4315 M2676.1 26.1121 Q2685.82 26.1121 2691.37 32.4315 Q2696.92 38.7509 2696.92 49.9314 Q2696.92 61.0714 2691.37 67.4314 Q2685.82 73.7508 2676.1 73.7508 Q2666.33 73.7508 2660.78 67.4314 Q2655.27 61.0714 2655.27 49.9314 Q2655.27 38.7509 2660.78 32.4315 Q2666.33 26.1121 2676.1 26.1121 Z" fill="#000000" fill-rule="nonzero" fill-opacity="1" /><path clip-path="url(#clip620)" d="M2716.64 14.324 L2716.64 27.2059 L2732 27.2059 L2732 32.9987 L2716.64 32.9987 L2716.64 57.6282 Q2716.64 63.1779 2718.14 64.7578 Q2719.68 66.3376 2724.34 66.3376 L2732 66.3376 L2732 72.576 L2724.34 72.576 Q2715.71 72.576 2712.43 69.3758 Q2709.15 66.1351 2709.15 57.6282 L2709.15 32.9987 L2703.68 32.9987 L2703.68 27.2059 L2709.15 27.2059 L2709.15 14.324 L2716.64 14.324 Z" fill="#000000" fill-rule="nonzero" fill-opacity="1" /><path clip-path="url(#clip620)" d="M2741.8 27.2059 L2749.25 27.2059 L2749.25 72.576 L2741.8 72.576 L2741.8 27.2059 M2741.8 9.54393 L2749.25 9.54393 L2749.25 18.9825 L2741.8 18.9825 L2741.8 9.54393 Z" fill="#000000" fill-rule="nonzero" fill-opacity="1" /><path clip-path="url(#clip620)" d="M2759.5 27.2059 L2767.4 27.2059 L2781.58 65.2844 L2795.76 27.2059 L2803.66 27.2059 L2786.64 72.576 L2776.52 72.576 L2759.5 27.2059 Z" fill="#000000" fill-rule="nonzero" fill-opacity="1" /><path clip-path="url(#clip620)" d="M2834.57 49.7694 Q2825.53 49.7694 2822.05 51.8354 Q2818.57 53.9013 2818.57 58.8839 Q2818.57 62.8538 2821.16 65.2034 Q2823.79 67.5124 2828.29 67.5124 Q2834.49 67.5124 2838.21 63.1374 Q2841.98 58.7219 2841.98 51.4303 L2841.98 49.7694 L2834.57 49.7694 M2849.43 46.6907 L2849.43 72.576 L2841.98 72.576 L2841.98 65.6895 Q2839.43 69.8214 2835.62 71.8063 Q2831.81 73.7508 2826.3 73.7508 Q2819.34 73.7508 2815.2 69.8619 Q2811.11 65.9325 2811.11 59.3701 Q2811.11 51.7138 2816.22 47.825 Q2821.36 43.9361 2831.53 43.9361 L2841.98 43.9361 L2841.98 43.2069 Q2841.98 38.0623 2838.58 35.2672 Q2835.21 32.4315 2829.1 32.4315 Q2825.21 32.4315 2821.52 33.3632 Q2817.84 34.295 2814.43 36.1584 L2814.43 29.2718 Q2818.53 27.692 2822.37 26.9223 Q2826.22 26.1121 2829.87 26.1121 Q2839.71 26.1121 2844.57 31.2163 Q2849.43 36.3204 2849.43 46.6907 Z" fill="#000000" fill-rule="nonzero" fill-opacity="1" /><path clip-path="url(#clip620)" d="M2872.16 14.324 L2872.16 27.2059 L2887.51 27.2059 L2887.51 32.9987 L2872.16 32.9987 L2872.16 57.6282 Q2872.16 63.1779 2873.66 64.7578 Q2875.2 66.3376 2879.86 66.3376 L2887.51 66.3376 L2887.51 72.576 L2879.86 72.576 Q2871.23 72.576 2867.95 69.3758 Q2864.66 66.1351 2864.66 57.6282 L2864.66 32.9987 L2859.2 32.9987 L2859.2 27.2059 L2864.66 27.2059 L2864.66 14.324 L2872.16 14.324 Z" fill="#000000" fill-rule="nonzero" fill-opacity="1" /><path clip-path="url(#clip620)" d="M2897.32 27.2059 L2904.77 27.2059 L2904.77 72.576 L2897.32 72.576 L2897.32 27.2059 M2897.32 9.54393 L2904.77 9.54393 L2904.77 18.9825 L2897.32 18.9825 L2897.32 9.54393 Z" fill="#000000" fill-rule="nonzero" fill-opacity="1" /><path clip-path="url(#clip620)" d="M2937.95 32.4315 Q2931.95 32.4315 2928.47 37.1306 Q2924.98 41.7891 2924.98 49.9314 Q2924.98 58.0738 2928.43 62.7728 Q2931.91 67.4314 2937.95 67.4314 Q2943.9 67.4314 2947.38 62.7323 Q2950.87 58.0333 2950.87 49.9314 Q2950.87 41.8701 2947.38 37.1711 Q2943.9 32.4315 2937.95 32.4315 M2937.95 26.1121 Q2947.67 26.1121 2953.22 32.4315 Q2958.77 38.7509 2958.77 49.9314 Q2958.77 61.0714 2953.22 67.4314 Q2947.67 73.7508 2937.95 73.7508 Q2928.18 73.7508 2922.63 67.4314 Q2917.12 61.0714 2917.12 49.9314 Q2917.12 38.7509 2922.63 32.4315 Q2928.18 26.1121 2937.95 26.1121 Z" fill="#000000" fill-rule="nonzero" fill-opacity="1" /><path clip-path="url(#clip620)" d="M3008.84 45.1919 L3008.84 72.576 L3001.38 72.576 L3001.38 45.4349 Q3001.38 38.994 2998.87 35.7938 Q2996.36 32.5936 2991.34 32.5936 Q2985.3 32.5936 2981.82 36.4419 Q2978.33 40.2903 2978.33 46.9338 L2978.33 72.576 L2970.84 72.576 L2970.84 27.2059 L2978.33 27.2059 L2978.33 34.2544 Q2981.01 30.163 2984.61 28.1376 Q2988.26 26.1121 2993 26.1121 Q3000.82 26.1121 3004.83 30.9732 Q3008.84 35.7938 3008.84 45.1919 Z" fill="#000000" fill-rule="nonzero" fill-opacity="1" /><path clip-path="url(#clip620)" d="M3058.18 86.3491 L3058.18 92.1419 L3015.08 92.1419 L3015.08 86.3491 L3058.18 86.3491 Z" fill="#000000" fill-rule="nonzero" fill-opacity="1" /><path clip-path="url(#clip620)" d="M3085.8 49.7694 Q3076.77 49.7694 3073.29 51.8354 Q3069.8 53.9013 3069.8 58.8839 Q3069.8 62.8538 3072.4 65.2034 Q3075.03 67.5124 3079.52 67.5124 Q3085.72 67.5124 3089.45 63.1374 Q3093.22 58.7219 3093.22 51.4303 L3093.22 49.7694 L3085.8 49.7694 M3100.67 46.6907 L3100.67 72.576 L3093.22 72.576 L3093.22 65.6895 Q3090.66 69.8214 3086.86 71.8063 Q3083.05 73.7508 3077.54 73.7508 Q3070.57 73.7508 3066.44 69.8619 Q3062.35 65.9325 3062.35 59.3701 Q3062.35 51.7138 3067.45 47.825 Q3072.6 43.9361 3082.77 43.9361 L3093.22 43.9361 L3093.22 43.2069 Q3093.22 38.0623 3089.81 35.2672 Q3086.45 32.4315 3080.34 32.4315 Q3076.45 32.4315 3072.76 33.3632 Q3069.07 34.295 3065.67 36.1584 L3065.67 29.2718 Q3069.76 27.692 3073.61 26.9223 Q3077.46 26.1121 3081.1 26.1121 Q3090.95 26.1121 3095.81 31.2163 Q3100.67 36.3204 3100.67 46.6907 Z" fill="#000000" fill-rule="nonzero" fill-opacity="1" /><path clip-path="url(#clip622)" d="M579.11 1992.94 L579.11 1992.94 L836.794 1992.94 L836.794 1992.94 L579.11 1992.94 L579.11 1992.94  Z" fill="#008000" fill-rule="evenodd" fill-opacity="1"/>
<polyline clip-path="url(#clip622)" style="stroke:#000000; stroke-linecap:round; stroke-linejoin:round; stroke-width:4; stroke-opacity:1; fill:none" points="579.11,1992.94 579.11,1992.94 836.794,1992.94 836.794,1992.94 579.11,1992.94 "/>
<path clip-path="url(#clip622)" d="M937.005 1992.94 L937.005 1992.94 L1194.69 1992.94 L1194.69 1992.94 L937.005 1992.94 L937.005 1992.94  Z" fill="#008000" fill-rule="evenodd" fill-opacity="1"/>
<polyline clip-path="url(#clip622)" style="stroke:#000000; stroke-linecap:round; stroke-linejoin:round; stroke-width:4; stroke-opacity:1; fill:none" points="937.005,1992.94 937.005,1992.94 1194.69,1992.94 1194.69,1992.94 937.005,1992.94 "/>
<path clip-path="url(#clip622)" d="M1294.9 255.233 L1294.9 1992.94 L1552.58 1992.94 L1552.58 255.233 L1294.9 255.233 L1294.9 255.233  Z" fill="#008000" fill-rule="evenodd" fill-opacity="1"/>
<polyline clip-path="url(#clip622)" style="stroke:#000000; stroke-linecap:round; stroke-linejoin:round; stroke-width:4; stroke-opacity:1; fill:none" points="1294.9,255.233 1294.9,1992.94 1552.58,1992.94 1552.58,255.233 1294.9,255.233 "/>
<path clip-path="url(#clip622)" d="M1652.8 1860.24 L1652.8 1992.94 L1910.48 1992.94 L1910.48 1860.24 L1652.8 1860.24 L1652.8 1860.24  Z" fill="#008000" fill-rule="evenodd" fill-opacity="1"/>
<polyline clip-path="url(#clip622)" style="stroke:#000000; stroke-linecap:round; stroke-linejoin:round; stroke-width:4; stroke-opacity:1; fill:none" points="1652.8,1860.24 1652.8,1992.94 1910.48,1992.94 1910.48,1860.24 1652.8,1860.24 "/>
<path clip-path="url(#clip622)" d="M2010.69 171.344 L2010.69 1992.94 L2268.38 1992.94 L2268.38 171.344 L2010.69 171.344 L2010.69 171.344  Z" fill="#008000" fill-rule="evenodd" fill-opacity="1"/>
<polyline clip-path="url(#clip622)" style="stroke:#000000; stroke-linecap:round; stroke-linejoin:round; stroke-width:4; stroke-opacity:1; fill:none" points="2010.69,171.344 2010.69,1992.94 2268.38,1992.94 2268.38,171.344 2010.69,171.344 "/>
<path clip-path="url(#clip622)" d="M2368.59 463.73 L2368.59 1992.94 L2626.27 1992.94 L2626.27 463.73 L2368.59 463.73 L2368.59 463.73  Z" fill="#008000" fill-rule="evenodd" fill-opacity="1"/>
<polyline clip-path="url(#clip622)" style="stroke:#000000; stroke-linecap:round; stroke-linejoin:round; stroke-width:4; stroke-opacity:1; fill:none" points="2368.59,463.73 2368.59,1992.94 2626.27,1992.94 2626.27,463.73 2368.59,463.73 "/>
<path clip-path="url(#clip622)" d="M2726.48 171.344 L2726.48 1992.94 L2984.17 1992.94 L2984.17 171.344 L2726.48 171.344 L2726.48 171.344  Z" fill="#008000" fill-rule="evenodd" fill-opacity="1"/>
<polyline clip-path="url(#clip622)" style="stroke:#000000; stroke-linecap:round; stroke-linejoin:round; stroke-width:4; stroke-opacity:1; fill:none" points="2726.48,171.344 2726.48,1992.94 2984.17,1992.94 2984.17,171.344 2726.48,171.344 "/>
<path clip-path="url(#clip622)" d="M3084.38 968.063 L3084.38 1992.94 L3342.06 1992.94 L3342.06 968.063 L3084.38 968.063 L3084.38 968.063  Z" fill="#008000" fill-rule="evenodd" fill-opacity="1"/>
<polyline clip-path="url(#clip622)" style="stroke:#000000; stroke-linecap:round; stroke-linejoin:round; stroke-width:4; stroke-opacity:1; fill:none" points="3084.38,968.063 3084.38,1992.94 3342.06,1992.94 3342.06,968.063 3084.38,968.063 "/>
<path clip-path="url(#clip622)" d="M3442.27 1992.94 L3442.27 1992.94 L3699.96 1992.94 L3699.96 1992.94 L3442.27 1992.94 L3442.27 1992.94  Z" fill="#008000" fill-rule="evenodd" fill-opacity="1"/>
<polyline clip-path="url(#clip622)" style="stroke:#000000; stroke-linecap:round; stroke-linejoin:round; stroke-width:4; stroke-opacity:1; fill:none" points="3442.27,1992.94 3442.27,1992.94 3699.96,1992.94 3699.96,1992.94 3442.27,1992.94 "/>
<circle clip-path="url(#clip622)" style="fill:#008000; stroke:none; fill-opacity:0" cx="707.952" cy="1992.94" r="2"/>
<circle clip-path="url(#clip622)" style="fill:#008000; stroke:none; fill-opacity:0" cx="1065.85" cy="1992.94" r="2"/>
<circle clip-path="url(#clip622)" style="fill:#008000; stroke:none; fill-opacity:0" cx="1423.74" cy="255.233" r="2"/>
<circle clip-path="url(#clip622)" style="fill:#008000; stroke:none; fill-opacity:0" cx="1781.64" cy="1860.24" r="2"/>
<circle clip-path="url(#clip622)" style="fill:#008000; stroke:none; fill-opacity:0" cx="2139.53" cy="171.344" r="2"/>
<circle clip-path="url(#clip622)" style="fill:#008000; stroke:none; fill-opacity:0" cx="2497.43" cy="463.73" r="2"/>
<circle clip-path="url(#clip622)" style="fill:#008000; stroke:none; fill-opacity:0" cx="2855.32" cy="171.344" r="2"/>
<circle clip-path="url(#clip622)" style="fill:#008000; stroke:none; fill-opacity:0" cx="3213.22" cy="968.063" r="2"/>
<circle clip-path="url(#clip622)" style="fill:#008000; stroke:none; fill-opacity:0" cx="3571.11" cy="1992.94" r="2"/>
<path clip-path="url(#clip620)" d="M4038.37 335.744 L4752.76 335.744 L4752.76 232.064 L4038.37 232.064  Z" fill="#ffffff" fill-rule="evenodd" fill-opacity="1"/>
<polyline clip-path="url(#clip620)" style="stroke:#000000; stroke-linecap:round; stroke-linejoin:round; stroke-width:4; stroke-opacity:1; fill:none" points="4038.37,335.744 4752.76,335.744 4752.76,232.064 4038.37,232.064 4038.37,335.744 "/>
<path clip-path="url(#clip620)" d="M4086.89 304.64 L4377.99 304.64 L4377.99 263.168 L4086.89 263.168 L4086.89 304.64  Z" fill="#008000" fill-rule="evenodd" fill-opacity="1"/>
<polyline clip-path="url(#clip620)" style="stroke:#000000; stroke-linecap:round; stroke-linejoin:round; stroke-width:4; stroke-opacity:1; fill:none" points="4086.89,304.64 4377.99,304.64 4377.99,263.168 4086.89,263.168 4086.89,304.64 "/>
<path clip-path="url(#clip620)" d="M4431.18 270.467 L4431.18 283.453 L4437.06 283.453 Q4440.33 283.453 4442.11 281.763 Q4443.89 280.073 4443.89 276.948 Q4443.89 273.846 4442.11 272.156 Q4440.33 270.467 4437.06 270.467 L4431.18 270.467 M4426.51 266.624 L4437.06 266.624 Q4442.87 266.624 4445.84 269.263 Q4448.82 271.879 4448.82 276.948 Q4448.82 282.064 4445.84 284.68 Q4442.87 287.295 4437.06 287.295 L4431.18 287.295 L4431.18 301.184 L4426.51 301.184 L4426.51 266.624 Z" fill="#000000" fill-rule="nonzero" fill-opacity="1" /><path clip-path="url(#clip620)" d="M4469.1 279.24 Q4468.38 278.823 4467.53 278.638 Q4466.69 278.43 4465.68 278.43 Q4462.06 278.43 4460.12 280.791 Q4458.2 283.129 4458.2 287.527 L4458.2 301.184 L4453.92 301.184 L4453.92 275.258 L4458.2 275.258 L4458.2 279.286 Q4459.54 276.925 4461.69 275.791 Q4463.85 274.633 4466.93 274.633 Q4467.37 274.633 4467.9 274.703 Q4468.43 274.749 4469.08 274.865 L4469.1 279.24 Z" fill="#000000" fill-rule="nonzero" fill-opacity="1" /><path clip-path="url(#clip620)" d="M4482.57 278.244 Q4479.15 278.244 4477.16 280.93 Q4475.17 283.592 4475.17 288.244 Q4475.17 292.897 4477.13 295.582 Q4479.12 298.244 4482.57 298.244 Q4485.98 298.244 4487.97 295.559 Q4489.96 292.874 4489.96 288.244 Q4489.96 283.638 4487.97 280.953 Q4485.98 278.244 4482.57 278.244 M4482.57 274.633 Q4488.13 274.633 4491.3 278.244 Q4494.47 281.855 4494.47 288.244 Q4494.47 294.61 4491.3 298.244 Q4488.13 301.855 4482.57 301.855 Q4476.99 301.855 4473.82 298.244 Q4470.68 294.61 4470.68 288.244 Q4470.68 281.855 4473.82 278.244 Q4476.99 274.633 4482.57 274.633 Z" fill="#000000" fill-rule="nonzero" fill-opacity="1" /><path clip-path="url(#clip620)" d="M4505.65 297.295 L4505.65 311.045 L4501.37 311.045 L4501.37 275.258 L4505.65 275.258 L4505.65 279.193 Q4506.99 276.879 4509.03 275.768 Q4511.09 274.633 4513.94 274.633 Q4518.66 274.633 4521.6 278.383 Q4524.56 282.133 4524.56 288.244 Q4524.56 294.355 4521.6 298.105 Q4518.66 301.855 4513.94 301.855 Q4511.09 301.855 4509.03 300.744 Q4506.99 299.61 4505.65 297.295 M4520.14 288.244 Q4520.14 283.545 4518.2 280.883 Q4516.28 278.198 4512.9 278.198 Q4509.52 278.198 4507.57 280.883 Q4505.65 283.545 4505.65 288.244 Q4505.65 292.943 4507.57 295.629 Q4509.52 298.291 4512.9 298.291 Q4516.28 298.291 4518.2 295.629 Q4520.14 292.943 4520.14 288.244 Z" fill="#000000" fill-rule="nonzero" fill-opacity="1" /><path clip-path="url(#clip620)" d="M4541.67 278.244 Q4538.24 278.244 4536.25 280.93 Q4534.26 283.592 4534.26 288.244 Q4534.26 292.897 4536.23 295.582 Q4538.22 298.244 4541.67 298.244 Q4545.07 298.244 4547.06 295.559 Q4549.05 292.874 4549.05 288.244 Q4549.05 283.638 4547.06 280.953 Q4545.07 278.244 4541.67 278.244 M4541.67 274.633 Q4547.23 274.633 4550.4 278.244 Q4553.57 281.855 4553.57 288.244 Q4553.57 294.61 4550.4 298.244 Q4547.23 301.855 4541.67 301.855 Q4536.09 301.855 4532.92 298.244 Q4529.77 294.61 4529.77 288.244 Q4529.77 281.855 4532.92 278.244 Q4536.09 274.633 4541.67 274.633 Z" fill="#000000" fill-rule="nonzero" fill-opacity="1" /><path clip-path="url(#clip620)" d="M4575.65 279.24 Q4574.93 278.823 4574.08 278.638 Q4573.24 278.43 4572.23 278.43 Q4568.61 278.43 4566.67 280.791 Q4564.75 283.129 4564.75 287.527 L4564.75 301.184 L4560.47 301.184 L4560.47 275.258 L4564.75 275.258 L4564.75 279.286 Q4566.09 276.925 4568.24 275.791 Q4570.4 274.633 4573.48 274.633 Q4573.92 274.633 4574.45 274.703 Q4574.98 274.749 4575.63 274.865 L4575.65 279.24 Z" fill="#000000" fill-rule="nonzero" fill-opacity="1" /><path clip-path="url(#clip620)" d="M4584.33 267.897 L4584.33 275.258 L4593.11 275.258 L4593.11 278.568 L4584.33 278.568 L4584.33 292.642 Q4584.33 295.814 4585.19 296.717 Q4586.07 297.619 4588.73 297.619 L4593.11 297.619 L4593.11 301.184 L4588.73 301.184 Q4583.8 301.184 4581.92 299.355 Q4580.05 297.504 4580.05 292.642 L4580.05 278.568 L4576.92 278.568 L4576.92 275.258 L4580.05 275.258 L4580.05 267.897 L4584.33 267.897 Z" fill="#000000" fill-rule="nonzero" fill-opacity="1" /><path clip-path="url(#clip620)" d="M4598.71 275.258 L4602.97 275.258 L4602.97 301.184 L4598.71 301.184 L4598.71 275.258 M4598.71 265.166 L4602.97 265.166 L4602.97 270.559 L4598.71 270.559 L4598.71 265.166 Z" fill="#000000" fill-rule="nonzero" fill-opacity="1" /><path clip-path="url(#clip620)" d="M4621.92 278.244 Q4618.5 278.244 4616.51 280.93 Q4614.52 283.592 4614.52 288.244 Q4614.52 292.897 4616.48 295.582 Q4618.48 298.244 4621.92 298.244 Q4625.33 298.244 4627.32 295.559 Q4629.31 292.874 4629.31 288.244 Q4629.31 283.638 4627.32 280.953 Q4625.33 278.244 4621.92 278.244 M4621.92 274.633 Q4627.48 274.633 4630.65 278.244 Q4633.82 281.855 4633.82 288.244 Q4633.82 294.61 4630.65 298.244 Q4627.48 301.855 4621.92 301.855 Q4616.35 301.855 4613.17 298.244 Q4610.03 294.61 4610.03 288.244 Q4610.03 281.855 4613.17 278.244 Q4616.35 274.633 4621.92 274.633 Z" fill="#000000" fill-rule="nonzero" fill-opacity="1" /><path clip-path="url(#clip620)" d="M4662.43 285.536 L4662.43 301.184 L4658.17 301.184 L4658.17 285.675 Q4658.17 281.994 4656.74 280.166 Q4655.3 278.337 4652.43 278.337 Q4648.98 278.337 4646.99 280.536 Q4645 282.735 4645 286.531 L4645 301.184 L4640.72 301.184 L4640.72 275.258 L4645 275.258 L4645 279.286 Q4646.53 276.948 4648.59 275.791 Q4650.67 274.633 4653.38 274.633 Q4657.85 274.633 4660.14 277.411 Q4662.43 280.166 4662.43 285.536 Z" fill="#000000" fill-rule="nonzero" fill-opacity="1" /><path clip-path="url(#clip620)" d="M4682.71 288.152 Q4677.55 288.152 4675.56 289.332 Q4673.57 290.513 4673.57 293.36 Q4673.57 295.629 4675.05 296.971 Q4676.55 298.291 4679.12 298.291 Q4682.67 298.291 4684.79 295.791 Q4686.95 293.267 4686.95 289.101 L4686.95 288.152 L4682.71 288.152 M4691.21 286.392 L4691.21 301.184 L4686.95 301.184 L4686.95 297.249 Q4685.49 299.61 4683.31 300.744 Q4681.14 301.855 4677.99 301.855 Q4674.01 301.855 4671.65 299.633 Q4669.31 297.388 4669.31 293.638 Q4669.31 289.263 4672.23 287.041 Q4675.17 284.818 4680.98 284.818 L4686.95 284.818 L4686.95 284.402 Q4686.95 281.462 4685 279.865 Q4683.08 278.244 4679.59 278.244 Q4677.36 278.244 4675.26 278.777 Q4673.15 279.309 4671.21 280.374 L4671.21 276.439 Q4673.54 275.536 4675.74 275.096 Q4677.94 274.633 4680.03 274.633 Q4685.65 274.633 4688.43 277.55 Q4691.21 280.467 4691.21 286.392 Z" fill="#000000" fill-rule="nonzero" fill-opacity="1" /><path clip-path="url(#clip620)" d="M4699.98 265.166 L4704.24 265.166 L4704.24 301.184 L4699.98 301.184 L4699.98 265.166 Z" fill="#000000" fill-rule="nonzero" fill-opacity="1" /></svg>
