<?xml version="1.0" encoding="utf-8"?>
<svg xmlns="http://www.w3.org/2000/svg" xmlns:xlink="http://www.w3.org/1999/xlink" width="1200" height="600" viewBox="0 0 4800 2400">
<defs>
  <clipPath id="clip100">
    <rect x="0" y="0" width="4800" height="2400"/>
  </clipPath>
</defs>
<path clip-path="url(#clip100)" d="M0 2400 L4800 2400 L4800 0 L0 0  Z" fill="#ffffff" fill-rule="evenodd" fill-opacity="1"/>
<defs>
  <clipPath id="clip101">
    <rect x="960" y="0" width="3361" height="2400"/>
  </clipPath>
</defs>
<path clip-path="url(#clip100)" d="M386.242 1992.94 L3887.92 1992.94 L3887.92 171.344 L386.242 171.344  Z" fill="#ffffff" fill-rule="evenodd" fill-opacity="1"/>
<defs>
  <clipPath id="clip102">
    <rect x="386" y="171" width="3503" height="1823"/>
  </clipPath>
</defs>
<polyline clip-path="url(#clip102)" style="stroke:#000000; stroke-linecap:round; stroke-linejoin:round; stroke-width:2; stroke-opacity:0.1; fill:none" points="710.342,1992.94 710.342,171.344 "/>
<polyline clip-path="url(#clip102)" style="stroke:#000000; stroke-linecap:round; stroke-linejoin:round; stroke-width:2; stroke-opacity:0.1; fill:none" points="1067.03,1992.94 1067.03,171.344 "/>
<polyline clip-path="url(#clip102)" style="stroke:#000000; stroke-linecap:round; stroke-linejoin:round; stroke-width:2; stroke-opacity:0.1; fill:none" points="1423.71,1992.94 1423.71,171.344 "/>
<polyline clip-path="url(#clip102)" style="stroke:#000000; stroke-linecap:round; stroke-linejoin:round; stroke-width:2; stroke-opacity:0.1; fill:none" points="1780.39,1992.94 1780.39,171.344 "/>
<polyline clip-path="url(#clip102)" style="stroke:#000000; stroke-linecap:round; stroke-linejoin:round; stroke-width:2; stroke-opacity:0.1; fill:none" points="2137.08,1992.94 2137.08,171.344 "/>
<polyline clip-path="url(#clip102)" style="stroke:#000000; stroke-linecap:round; stroke-linejoin:round; stroke-width:2; stroke-opacity:0.1; fill:none" points="2493.76,1992.94 2493.76,171.344 "/>
<polyline clip-path="url(#clip102)" style="stroke:#000000; stroke-linecap:round; stroke-linejoin:round; stroke-width:2; stroke-opacity:0.1; fill:none" points="2850.45,1992.94 2850.45,171.344 "/>
<polyline clip-path="url(#clip102)" style="stroke:#000000; stroke-linecap:round; stroke-linejoin:round; stroke-width:2; stroke-opacity:0.1; fill:none" points="3207.13,1992.94 3207.13,171.344 "/>
<polyline clip-path="url(#clip102)" style="stroke:#000000; stroke-linecap:round; stroke-linejoin:round; stroke-width:2; stroke-opacity:0.1; fill:none" points="3563.82,1992.94 3563.82,171.344 "/>
<polyline clip-path="url(#clip102)" style="stroke:#000000; stroke-linecap:round; stroke-linejoin:round; stroke-width:2; stroke-opacity:0.1; fill:none" points="386.242,1992.94 3887.92,1992.94 "/>
<polyline clip-path="url(#clip102)" style="stroke:#000000; stroke-linecap:round; stroke-linejoin:round; stroke-width:2; stroke-opacity:0.1; fill:none" points="386.242,1537.54 3887.92,1537.54 "/>
<polyline clip-path="url(#clip102)" style="stroke:#000000; stroke-linecap:round; stroke-linejoin:round; stroke-width:2; stroke-opacity:0.1; fill:none" points="386.242,1082.14 3887.92,1082.14 "/>
<polyline clip-path="url(#clip102)" style="stroke:#000000; stroke-linecap:round; stroke-linejoin:round; stroke-width:2; stroke-opacity:0.1; fill:none" points="386.242,626.743 3887.92,626.743 "/>
<polyline clip-path="url(#clip102)" style="stroke:#000000; stroke-linecap:round; stroke-linejoin:round; stroke-width:2; stroke-opacity:0.1; fill:none" points="386.242,171.344 3887.92,171.344 "/>
<polyline clip-path="url(#clip100)" style="stroke:#000000; stroke-linecap:round; stroke-linejoin:round; stroke-width:4; stroke-opacity:1; fill:none" points="386.242,1992.94 3887.92,1992.94 "/>
<polyline clip-path="url(#clip100)" style="stroke:#000000; stroke-linecap:round; stroke-linejoin:round; stroke-width:4; stroke-opacity:1; fill:none" points="710.342,1992.94 710.342,1974.04 "/>
<polyline clip-path="url(#clip100)" style="stroke:#000000; stroke-linecap:round; stroke-linejoin:round; stroke-width:4; stroke-opacity:1; fill:none" points="1067.03,1992.94 1067.03,1974.04 "/>
<polyline clip-path="url(#clip100)" style="stroke:#000000; stroke-linecap:round; stroke-linejoin:round; stroke-width:4; stroke-opacity:1; fill:none" points="1423.71,1992.94 1423.71,1974.04 "/>
<polyline clip-path="url(#clip100)" style="stroke:#000000; stroke-linecap:round; stroke-linejoin:round; stroke-width:4; stroke-opacity:1; fill:none" points="1780.39,1992.94 1780.39,1974.04 "/>
<polyline clip-path="url(#clip100)" style="stroke:#000000; stroke-linecap:round; stroke-linejoin:round; stroke-width:4; stroke-opacity:1; fill:none" points="2137.08,1992.94 2137.08,1974.04 "/>
<polyline clip-path="url(#clip100)" style="stroke:#000000; stroke-linecap:round; stroke-linejoin:round; stroke-width:4; stroke-opacity:1; fill:none" points="2493.76,1992.94 2493.76,1974.04 "/>
<polyline clip-path="url(#clip100)" style="stroke:#000000; stroke-linecap:round; stroke-linejoin:round; stroke-width:4; stroke-opacity:1; fill:none" points="2850.45,1992.94 2850.45,1974.04 "/>
<polyline clip-path="url(#clip100)" style="stroke:#000000; stroke-linecap:round; stroke-linejoin:round; stroke-width:4; stroke-opacity:1; fill:none" points="3207.13,1992.94 3207.13,1974.04 "/>
<polyline clip-path="url(#clip100)" style="stroke:#000000; stroke-linecap:round; stroke-linejoin:round; stroke-width:4; stroke-opacity:1; fill:none" points="3563.82,1992.94 3563.82,1974.04 "/>
<path clip-path="url(#clip100)" d="M659.2 2098.17 Q656.974 2100.4 657.187 2103.23 Q657.416 2106.05 660.067 2108.7 Q662.703 2111.33 665.534 2111.58 Q668.366 2111.79 670.592 2109.57 Q672.818 2107.34 672.589 2104.53 Q672.36 2101.68 669.725 2099.04 Q667.073 2096.39 664.241 2096.18 Q661.426 2095.95 659.2 2098.17 M655.402 2081.25 L658.414 2084.26 Q656.581 2084.92 654.993 2085.88 Q653.422 2086.83 652.178 2088.08 Q648.904 2091.35 649.379 2095.29 Q649.87 2099.22 654.093 2103.94 Q653.635 2101.55 654.339 2099.34 Q655.026 2097.11 656.777 2095.36 Q660.46 2091.68 664.831 2091.79 Q669.201 2091.87 673.047 2095.72 Q676.812 2099.48 676.861 2103.99 Q676.91 2108.49 673.211 2112.19 Q668.972 2116.42 663.488 2115.43 Q657.989 2114.41 651.818 2108.24 Q646.024 2102.45 645.336 2096.26 Q644.632 2090.06 649.264 2085.42 Q650.508 2084.18 652.014 2083.16 Q653.536 2082.13 655.402 2081.25 Z" fill="#000000" fill-rule="nonzero" fill-opacity="1" /><path clip-path="url(#clip100)" d="M661.311 2074.26 L677.025 2058.55 L678.432 2059.95 L692.591 2091.86 L689.137 2095.31 L675.83 2065.31 L664.094 2077.04 L661.311 2074.26 Z" fill="#000000" fill-rule="nonzero" fill-opacity="1" /><path clip-path="url(#clip100)" d="M705.702 2073.18 L711.103 2067.78 L692.46 2049.14 L687.762 2056.19 L684.751 2053.18 L689.415 2046.16 L692.722 2042.85 L714.377 2064.51 L719.778 2059.1 L722.561 2061.89 L708.484 2075.96 L705.702 2073.18 Z" fill="#000000" fill-rule="nonzero" fill-opacity="1" /><path clip-path="url(#clip100)" d="M1014.67 2099.39 Q1012.45 2101.61 1012.66 2104.44 Q1012.89 2107.26 1015.54 2109.91 Q1018.18 2112.55 1021.01 2112.79 Q1023.84 2113 1026.07 2110.78 Q1028.29 2108.55 1028.06 2105.74 Q1027.83 2102.89 1025.2 2100.25 Q1022.55 2097.6 1019.71 2097.39 Q1016.9 2097.16 1014.67 2099.39 M1010.88 2082.46 L1013.89 2085.47 Q1012.05 2086.13 1010.47 2087.09 Q1008.89 2088.04 1007.65 2089.29 Q1004.38 2092.56 1004.85 2096.5 Q1005.34 2100.43 1009.57 2105.15 Q1009.11 2102.76 1009.81 2100.55 Q1010.5 2098.32 1012.25 2096.57 Q1015.93 2092.89 1020.3 2093 Q1024.67 2093.08 1028.52 2096.93 Q1032.28 2100.7 1032.33 2105.2 Q1032.38 2109.7 1028.68 2113.4 Q1024.44 2117.64 1018.96 2116.64 Q1013.46 2115.62 1007.29 2109.45 Q1001.5 2103.66 1000.81 2097.47 Q1000.11 2091.27 1004.74 2086.63 Q1005.98 2085.39 1007.49 2084.38 Q1009.01 2083.34 1010.88 2082.46 Z" fill="#000000" fill-rule="nonzero" fill-opacity="1" /><path clip-path="url(#clip100)" d="M1038.9 2075.88 Q1041.78 2074.01 1044.71 2074.29 Q1047.65 2074.56 1050.01 2076.91 Q1053.63 2080.53 1053.12 2085 Q1052.61 2089.47 1048.03 2094.05 Q1046.49 2095.59 1044.54 2096.91 Q1042.63 2098.24 1040.29 2099.37 L1037.1 2096.18 Q1039.27 2095.6 1041.32 2094.38 Q1043.37 2093.15 1045.15 2091.37 Q1048.26 2088.26 1048.65 2085.41 Q1049.06 2082.54 1046.72 2080.2 Q1044.56 2078.04 1041.83 2078.35 Q1039.09 2078.63 1036.39 2081.33 L1033.55 2084.18 L1030.83 2081.46 L1033.81 2078.48 Q1036.25 2076.04 1036.57 2073.79 Q1036.88 2071.51 1035.05 2069.68 Q1033.17 2067.8 1030.83 2068.14 Q1028.49 2068.45 1026 2070.94 Q1024.64 2072.3 1023.38 2074.15 Q1022.12 2076 1020.88 2078.48 L1017.93 2075.54 Q1019.29 2073.13 1020.66 2071.23 Q1022.05 2069.32 1023.51 2067.86 Q1027.28 2064.1 1031.19 2063.62 Q1035.08 2063.13 1038 2066.04 Q1040.03 2068.07 1040.27 2070.64 Q1040.5 2073.2 1038.9 2075.88 Z" fill="#000000" fill-rule="nonzero" fill-opacity="1" /><path clip-path="url(#clip100)" d="M1050.91 2047.11 L1055.61 2068.5 L1063.96 2060.15 L1050.91 2047.11 M1047.16 2045.09 L1051.32 2040.93 L1067.25 2056.86 L1070.73 2053.37 L1073.48 2056.12 L1070 2059.61 L1075.76 2065.37 L1072.47 2068.66 L1066.71 2062.9 L1055.68 2073.93 L1052.48 2070.74 L1047.16 2045.09 Z" fill="#000000" fill-rule="nonzero" fill-opacity="1" /><path clip-path="url(#clip100)" d="M1372.83 2097.91 Q1370.6 2100.14 1370.82 2102.97 Q1371.05 2105.79 1373.7 2108.44 Q1376.33 2111.07 1379.16 2111.32 Q1382 2111.53 1384.22 2109.3 Q1386.45 2107.08 1386.22 2104.26 Q1385.99 2101.42 1383.35 2098.78 Q1380.7 2096.13 1377.87 2095.92 Q1375.06 2095.69 1372.83 2097.91 M1369.03 2080.99 L1372.04 2084 Q1370.21 2084.65 1368.62 2085.62 Q1367.05 2086.57 1365.81 2087.81 Q1362.53 2091.09 1363.01 2095.03 Q1363.5 2098.96 1367.72 2103.67 Q1367.27 2101.28 1367.97 2099.07 Q1368.66 2096.85 1370.41 2095.1 Q1374.09 2091.41 1378.46 2091.53 Q1382.83 2091.61 1386.68 2095.46 Q1390.44 2099.22 1390.49 2103.72 Q1390.54 2108.22 1386.84 2111.92 Q1382.6 2116.16 1377.12 2115.16 Q1371.62 2114.15 1365.45 2107.98 Q1359.65 2102.18 1358.97 2096 Q1358.26 2089.79 1362.89 2085.16 Q1364.14 2083.92 1365.64 2082.9 Q1367.17 2081.87 1369.03 2080.99 Z" fill="#000000" fill-rule="nonzero" fill-opacity="1" /><path clip-path="url(#clip100)" d="M1375.81 2073.13 L1388.79 2060.15 L1391.57 2062.93 L1381.62 2072.89 L1387.61 2078.88 Q1388.09 2077.91 1388.69 2077.08 Q1389.28 2076.22 1390 2075.5 Q1394.09 2071.41 1398.72 2071.27 Q1403.36 2071.12 1407.19 2074.95 Q1411.13 2078.89 1410.87 2083.54 Q1410.59 2088.17 1406.12 2092.64 Q1404.58 2094.18 1402.72 2095.52 Q1400.87 2096.85 1398.64 2098.03 L1395.32 2094.7 Q1397.6 2094.03 1399.56 2092.85 Q1401.52 2091.68 1403.27 2089.92 Q1406.11 2087.09 1406.27 2083.95 Q1406.43 2080.81 1403.88 2078.25 Q1401.33 2075.7 1398.18 2075.86 Q1395.04 2076.03 1392.21 2078.86 Q1390.88 2080.19 1389.85 2081.81 Q1388.84 2083.41 1388.09 2085.41 L1375.81 2073.13 Z" fill="#000000" fill-rule="nonzero" fill-opacity="1" /><path clip-path="url(#clip100)" d="M1421.61 2070.64 L1433.15 2059.1 L1435.93 2061.89 L1420.41 2077.4 L1417.63 2074.62 Q1417.56 2070.79 1417.53 2064.28 Q1417.5 2057.73 1417.38 2055.94 Q1417.19 2052.57 1416.58 2050.72 Q1415.98 2048.84 1414.78 2047.65 Q1412.83 2045.7 1410.23 2045.85 Q1407.65 2045.98 1405.45 2048.17 Q1403.9 2049.72 1402.7 2052 Q1401.52 2054.26 1400.66 2057.32 L1397.32 2053.98 Q1398.51 2051.18 1399.84 2049.04 Q1401.16 2046.89 1402.6 2045.45 Q1406.4 2041.66 1410.56 2041.3 Q1414.72 2040.93 1417.89 2044.11 Q1419.4 2045.62 1420.18 2047.55 Q1420.97 2049.45 1421.31 2052.77 Q1421.38 2053.65 1421.46 2058.12 Q1421.53 2062.57 1421.61 2070.64 Z" fill="#000000" fill-rule="nonzero" fill-opacity="1" /><path clip-path="url(#clip100)" d="M1729.09 2098.34 Q1726.86 2100.56 1727.08 2103.4 Q1727.3 2106.21 1729.96 2108.86 Q1732.59 2111.5 1735.42 2111.74 Q1738.26 2111.96 1740.48 2109.73 Q1742.71 2107.5 1742.48 2104.69 Q1742.25 2101.84 1739.61 2099.21 Q1736.96 2096.55 1734.13 2096.34 Q1731.32 2096.11 1729.09 2098.34 M1725.29 2081.41 L1728.3 2084.43 Q1726.47 2085.08 1724.88 2086.05 Q1723.31 2086.99 1722.07 2088.24 Q1718.79 2091.51 1719.27 2095.46 Q1719.76 2099.39 1723.98 2104.1 Q1723.52 2101.71 1724.23 2099.5 Q1724.92 2097.27 1726.67 2095.52 Q1730.35 2091.84 1734.72 2091.95 Q1739.09 2092.04 1742.94 2095.88 Q1746.7 2099.65 1746.75 2104.15 Q1746.8 2108.65 1743.1 2112.35 Q1738.86 2116.59 1733.38 2115.59 Q1727.88 2114.58 1721.71 2108.4 Q1715.91 2102.61 1715.23 2096.42 Q1714.52 2090.22 1719.15 2085.59 Q1720.4 2084.34 1721.9 2083.33 Q1723.43 2082.3 1725.29 2081.41 Z" fill="#000000" fill-rule="nonzero" fill-opacity="1" /><path clip-path="url(#clip100)" d="M1731.2 2074.42 L1746.91 2058.71 L1748.32 2060.12 L1762.48 2092.02 L1759.03 2095.47 L1745.72 2065.47 L1733.98 2077.21 L1731.2 2074.42 Z" fill="#000000" fill-rule="nonzero" fill-opacity="1" /><path clip-path="url(#clip100)" d="M1753.4 2052.23 L1766.38 2039.25 L1769.16 2042.03 L1759.21 2051.98 L1765.2 2057.97 Q1765.67 2057.01 1766.28 2056.17 Q1766.87 2055.32 1767.59 2054.6 Q1771.68 2050.51 1776.31 2050.36 Q1780.94 2050.22 1784.77 2054.05 Q1788.72 2057.99 1788.46 2062.64 Q1788.18 2067.27 1783.71 2071.74 Q1782.17 2073.28 1780.3 2074.62 Q1778.46 2075.95 1776.23 2077.12 L1772.91 2073.8 Q1775.18 2073.13 1777.15 2071.95 Q1779.11 2070.77 1780.86 2069.02 Q1783.69 2066.19 1783.86 2063.05 Q1784.02 2059.91 1781.47 2057.35 Q1778.91 2054.8 1775.77 2054.96 Q1772.63 2055.13 1769.8 2057.96 Q1768.47 2059.28 1767.44 2060.9 Q1766.42 2062.51 1765.67 2064.51 L1753.4 2052.23 Z" fill="#000000" fill-rule="nonzero" fill-opacity="1" /><path clip-path="url(#clip100)" d="M2085.94 2098.17 Q2083.71 2100.4 2083.92 2103.23 Q2084.15 2106.05 2086.8 2108.7 Q2089.44 2111.33 2092.27 2111.58 Q2095.1 2111.79 2097.33 2109.57 Q2099.56 2107.34 2099.33 2104.53 Q2099.1 2101.68 2096.46 2099.04 Q2093.81 2096.39 2090.98 2096.18 Q2088.16 2095.95 2085.94 2098.17 M2082.14 2081.25 L2085.15 2084.26 Q2083.32 2084.92 2081.73 2085.88 Q2080.16 2086.83 2078.91 2088.08 Q2075.64 2091.35 2076.12 2095.29 Q2076.61 2099.22 2080.83 2103.94 Q2080.37 2101.55 2081.08 2099.34 Q2081.76 2097.11 2083.51 2095.36 Q2087.2 2091.68 2091.57 2091.79 Q2095.94 2091.87 2099.78 2095.72 Q2103.55 2099.48 2103.6 2103.99 Q2103.65 2108.49 2099.95 2112.19 Q2095.71 2116.42 2090.23 2115.43 Q2084.73 2114.41 2078.55 2108.24 Q2072.76 2102.45 2072.07 2096.26 Q2071.37 2090.06 2076 2085.42 Q2077.25 2084.18 2078.75 2083.16 Q2080.27 2082.13 2082.14 2081.25 Z" fill="#000000" fill-rule="nonzero" fill-opacity="1" /><path clip-path="url(#clip100)" d="M2111.11 2094.51 L2116.51 2089.11 L2097.87 2070.46 L2093.17 2077.52 L2090.16 2074.51 L2094.82 2067.48 L2098.13 2064.18 L2119.79 2085.83 L2125.19 2080.43 L2127.97 2083.21 L2113.89 2097.29 L2111.11 2094.51 Z" fill="#000000" fill-rule="nonzero" fill-opacity="1" /><path clip-path="url(#clip100)" d="M2132.44 2073.18 L2137.84 2067.78 L2119.2 2049.14 L2114.5 2056.19 L2111.49 2053.18 L2116.15 2046.16 L2119.46 2042.85 L2141.11 2064.51 L2146.52 2059.1 L2149.3 2061.89 L2135.22 2075.96 L2132.44 2073.18 Z" fill="#000000" fill-rule="nonzero" fill-opacity="1" /><path clip-path="url(#clip100)" d="M2442.46 2098.34 Q2440.23 2100.56 2440.44 2103.4 Q2440.67 2106.21 2443.33 2108.86 Q2445.96 2111.5 2448.79 2111.74 Q2451.62 2111.96 2453.85 2109.73 Q2456.08 2107.5 2455.85 2104.69 Q2455.62 2101.84 2452.98 2099.21 Q2450.33 2096.55 2447.5 2096.34 Q2444.68 2096.11 2442.46 2098.34 M2438.66 2081.41 L2441.67 2084.43 Q2439.84 2085.08 2438.25 2086.05 Q2436.68 2086.99 2435.44 2088.24 Q2432.16 2091.51 2432.64 2095.46 Q2433.13 2099.39 2437.35 2104.1 Q2436.89 2101.71 2437.6 2099.5 Q2438.28 2097.27 2440.04 2095.52 Q2443.72 2091.84 2448.09 2091.95 Q2452.46 2092.04 2456.3 2095.88 Q2460.07 2099.65 2460.12 2104.15 Q2460.17 2108.65 2456.47 2112.35 Q2452.23 2116.59 2446.75 2115.59 Q2441.25 2114.58 2435.08 2108.4 Q2429.28 2102.61 2428.59 2096.42 Q2427.89 2090.22 2432.52 2085.59 Q2433.77 2084.34 2435.27 2083.33 Q2436.79 2082.3 2438.66 2081.41 Z" fill="#000000" fill-rule="nonzero" fill-opacity="1" /><path clip-path="url(#clip100)" d="M2457.37 2067.39 L2462.07 2088.78 L2470.41 2080.43 L2457.37 2067.39 M2453.62 2065.37 L2457.78 2061.22 L2473.7 2077.14 L2477.19 2073.65 L2479.94 2076.4 L2476.45 2079.89 L2482.22 2085.65 L2478.93 2088.94 L2473.16 2083.18 L2462.13 2094.21 L2458.94 2091.02 L2453.62 2065.37 Z" fill="#000000" fill-rule="nonzero" fill-opacity="1" /><path clip-path="url(#clip100)" d="M2466.76 2052.23 L2479.74 2039.25 L2482.53 2042.03 L2472.57 2051.98 L2478.57 2057.97 Q2479.04 2057.01 2479.65 2056.17 Q2480.24 2055.32 2480.96 2054.6 Q2485.05 2050.51 2489.68 2050.36 Q2494.31 2050.22 2498.14 2054.05 Q2502.09 2057.99 2501.82 2062.64 Q2501.55 2067.27 2497.08 2071.74 Q2495.54 2073.28 2493.67 2074.62 Q2491.82 2075.95 2489.6 2077.12 L2486.27 2073.8 Q2488.55 2073.13 2490.51 2071.95 Q2492.48 2070.77 2494.23 2069.02 Q2497.06 2066.19 2497.23 2063.05 Q2497.39 2059.91 2494.84 2057.35 Q2492.28 2054.8 2489.14 2054.96 Q2486 2055.13 2483.17 2057.96 Q2481.84 2059.28 2480.81 2060.9 Q2479.79 2062.51 2479.04 2064.51 L2466.76 2052.23 Z" fill="#000000" fill-rule="nonzero" fill-opacity="1" /><path clip-path="url(#clip100)" d="M2799.57 2097.91 Q2797.34 2100.14 2797.55 2102.97 Q2797.78 2105.79 2800.43 2108.44 Q2803.07 2111.07 2805.9 2111.32 Q2808.73 2111.53 2810.96 2109.3 Q2813.19 2107.08 2812.96 2104.26 Q2812.73 2101.42 2810.09 2098.78 Q2807.44 2096.13 2804.61 2095.92 Q2801.79 2095.69 2799.57 2097.91 M2795.77 2080.99 L2798.78 2084 Q2796.95 2084.65 2795.36 2085.62 Q2793.79 2086.57 2792.55 2087.81 Q2789.27 2091.09 2789.75 2095.03 Q2790.24 2098.96 2794.46 2103.67 Q2794 2101.28 2794.71 2099.07 Q2795.39 2096.85 2797.14 2095.1 Q2800.83 2091.41 2805.2 2091.53 Q2809.57 2091.61 2813.41 2095.46 Q2817.18 2099.22 2817.23 2103.72 Q2817.28 2108.22 2813.58 2111.92 Q2809.34 2116.16 2803.86 2115.16 Q2798.36 2114.15 2792.19 2107.98 Q2786.39 2102.18 2785.7 2096 Q2785 2089.79 2789.63 2085.16 Q2790.88 2083.92 2792.38 2082.9 Q2793.9 2081.87 2795.77 2080.99 Z" fill="#000000" fill-rule="nonzero" fill-opacity="1" /><path clip-path="url(#clip100)" d="M2826.54 2097 L2823.53 2093.98 Q2825.36 2093.33 2826.95 2092.36 Q2828.54 2091.4 2829.77 2090.17 Q2833.04 2086.9 2832.57 2082.98 Q2832.09 2079.04 2827.85 2074.31 Q2828.31 2076.67 2827.61 2078.88 Q2826.9 2081.09 2825.13 2082.85 Q2821.47 2086.52 2817.11 2086.45 Q2812.76 2086.36 2808.91 2082.51 Q2805.15 2078.75 2805.1 2074.24 Q2805.05 2069.74 2808.75 2066.04 Q2812.99 2061.8 2818.47 2062.84 Q2823.96 2063.83 2830.14 2070.02 Q2835.92 2075.8 2836.62 2082 Q2837.33 2088.17 2832.7 2092.81 Q2831.45 2094.05 2829.93 2095.08 Q2828.41 2096.11 2826.54 2097 M2822.76 2080.05 Q2824.99 2077.83 2824.76 2075.01 Q2824.55 2072.18 2821.89 2069.53 Q2819.26 2066.89 2816.43 2066.68 Q2813.59 2066.44 2811.37 2068.66 Q2809.14 2070.89 2809.37 2073.74 Q2809.6 2076.55 2812.24 2079.19 Q2814.89 2081.84 2817.7 2082.07 Q2820.53 2082.28 2822.76 2080.05 Z" fill="#000000" fill-rule="nonzero" fill-opacity="1" /><path clip-path="url(#clip100)" d="M2848.34 2070.64 L2859.88 2059.1 L2862.67 2061.89 L2847.15 2077.4 L2844.37 2074.62 Q2844.3 2070.79 2844.27 2064.28 Q2844.24 2057.73 2844.12 2055.94 Q2843.92 2052.57 2843.32 2050.72 Q2842.71 2048.84 2841.52 2047.65 Q2839.57 2045.7 2836.97 2045.85 Q2834.38 2045.98 2832.19 2048.17 Q2830.63 2049.72 2829.44 2052 Q2828.26 2054.26 2827.39 2057.32 L2824.05 2053.98 Q2825.25 2051.18 2826.57 2049.04 Q2827.9 2046.89 2829.34 2045.45 Q2833.14 2041.66 2837.3 2041.3 Q2841.45 2040.93 2844.63 2044.11 Q2846.13 2045.62 2846.92 2047.55 Q2847.71 2049.45 2848.05 2052.77 Q2848.12 2053.65 2848.2 2058.12 Q2848.26 2062.57 2848.34 2070.64 Z" fill="#000000" fill-rule="nonzero" fill-opacity="1" /><path clip-path="url(#clip100)" d="M3155.12 2099.04 Q3152.9 2101.27 3153.11 2104.1 Q3153.34 2106.91 3155.99 2109.57 Q3158.62 2112.2 3161.46 2112.45 Q3164.29 2112.66 3166.51 2110.43 Q3168.74 2108.21 3168.51 2105.39 Q3168.28 2102.54 3165.65 2099.91 Q3163 2097.26 3160.16 2097.04 Q3157.35 2096.82 3155.12 2099.04 M3151.32 2082.12 L3154.34 2085.13 Q3152.5 2085.78 3150.92 2086.75 Q3149.34 2087.7 3148.1 2088.94 Q3144.83 2092.22 3145.3 2096.16 Q3145.79 2100.09 3150.02 2104.8 Q3149.56 2102.41 3150.26 2100.2 Q3150.95 2097.98 3152.7 2096.23 Q3156.38 2092.54 3160.75 2092.66 Q3165.12 2092.74 3168.97 2096.59 Q3172.73 2100.35 3172.78 2104.85 Q3172.83 2109.35 3169.13 2113.05 Q3164.89 2117.29 3159.41 2116.29 Q3153.91 2115.28 3147.74 2109.11 Q3141.95 2103.31 3141.26 2097.13 Q3140.55 2090.92 3145.19 2086.29 Q3146.43 2085.05 3147.94 2084.03 Q3149.46 2083 3151.32 2082.12 Z" fill="#000000" fill-rule="nonzero" fill-opacity="1" /><path clip-path="url(#clip100)" d="M3157.23 2075.13 L3172.95 2059.41 L3174.35 2060.82 L3188.51 2092.72 L3185.06 2096.18 L3171.75 2066.17 L3160.02 2077.91 L3157.23 2075.13 Z" fill="#000000" fill-rule="nonzero" fill-opacity="1" /><path clip-path="url(#clip100)" d="M3188.64 2048.07 Q3186.09 2050.62 3187.32 2054.44 Q3188.55 2058.22 3193.59 2063.26 Q3198.61 2068.29 3202.41 2069.53 Q3206.21 2070.74 3208.76 2068.19 Q3211.33 2065.62 3210.1 2061.84 Q3208.88 2058.02 3203.85 2053 Q3198.81 2047.96 3195.01 2046.75 Q3191.21 2045.5 3188.64 2048.07 M3186.03 2045.45 Q3190.13 2041.34 3195.55 2042.44 Q3200.97 2043.5 3207.16 2049.69 Q3213.33 2055.86 3214.41 2061.3 Q3215.49 2066.7 3211.38 2070.81 Q3207.27 2074.92 3201.85 2073.85 Q3196.44 2072.75 3190.26 2066.58 Q3184.08 2060.4 3183 2055 Q3181.92 2049.56 3186.03 2045.45 Z" fill="#000000" fill-rule="nonzero" fill-opacity="1" /><path clip-path="url(#clip100)" d="M3511.69 2099.16 Q3509.47 2101.38 3509.68 2104.21 Q3509.91 2107.03 3512.56 2109.68 Q3515.19 2112.32 3518.03 2112.56 Q3520.86 2112.77 3523.08 2110.55 Q3525.31 2108.32 3525.08 2105.51 Q3524.85 2102.66 3522.22 2100.02 Q3519.56 2097.37 3516.73 2097.16 Q3513.92 2096.93 3511.69 2099.16 M3507.89 2082.23 L3510.91 2085.24 Q3509.07 2085.9 3507.49 2086.86 Q3505.91 2087.81 3504.67 2089.06 Q3501.4 2092.33 3501.87 2096.28 Q3502.36 2100.2 3506.59 2104.92 Q3506.13 2102.53 3506.83 2100.32 Q3507.52 2098.09 3509.27 2096.34 Q3512.95 2092.66 3517.32 2092.77 Q3521.69 2092.85 3525.54 2096.7 Q3529.3 2100.47 3529.35 2104.97 Q3529.4 2109.47 3525.7 2113.17 Q3521.46 2117.41 3515.98 2116.41 Q3510.48 2115.39 3504.31 2109.22 Q3498.52 2103.43 3497.83 2097.24 Q3497.12 2091.04 3501.76 2086.41 Q3503 2085.16 3504.51 2084.15 Q3506.03 2083.12 3507.89 2082.23 Z" fill="#000000" fill-rule="nonzero" fill-opacity="1" /><path clip-path="url(#clip100)" d="M3526.6 2068.2 L3531.3 2089.6 L3539.65 2081.25 L3526.6 2068.2 M3522.85 2066.19 L3527.01 2062.03 L3542.94 2077.96 L3546.43 2074.47 L3549.17 2077.22 L3545.69 2080.71 L3551.45 2086.47 L3548.16 2089.76 L3542.4 2084 L3531.37 2095.03 L3528.17 2091.84 L3522.85 2066.19 Z" fill="#000000" fill-rule="nonzero" fill-opacity="1" /><path clip-path="url(#clip100)" d="M3554.35 2056.5 Q3552.12 2058.73 3552.33 2061.56 Q3552.56 2064.37 3555.21 2067.03 Q3557.85 2069.66 3560.68 2069.91 Q3563.51 2070.12 3565.74 2067.89 Q3567.97 2065.67 3567.74 2062.85 Q3567.51 2060 3564.87 2057.37 Q3562.22 2054.72 3559.39 2054.5 Q3556.57 2054.28 3554.35 2056.5 M3550.55 2039.58 L3553.56 2042.59 Q3551.73 2043.24 3550.14 2044.21 Q3548.57 2045.16 3547.33 2046.4 Q3544.05 2049.68 3544.53 2053.62 Q3545.02 2057.55 3549.24 2062.26 Q3548.78 2059.87 3549.49 2057.66 Q3550.17 2055.44 3551.92 2053.69 Q3555.61 2050 3559.98 2050.12 Q3564.35 2050.2 3568.19 2054.05 Q3571.96 2057.81 3572.01 2062.31 Q3572.06 2066.81 3568.36 2070.51 Q3564.12 2074.75 3558.64 2073.75 Q3553.14 2072.74 3546.97 2066.57 Q3541.17 2060.77 3540.48 2054.59 Q3539.78 2048.38 3544.41 2043.75 Q3545.66 2042.51 3547.16 2041.49 Q3548.68 2040.46 3550.55 2039.58 Z" fill="#000000" fill-rule="nonzero" fill-opacity="1" /><path clip-path="url(#clip100)" d="M2088.3 2195.69 L2088.3 2213.1 L2098.61 2213.1 Q2103.8 2213.1 2106.29 2210.96 Q2108.8 2208.8 2108.8 2204.38 Q2108.8 2199.92 2106.29 2197.82 Q2103.8 2195.69 2098.61 2195.69 L2088.3 2195.69 M2088.3 2176.14 L2088.3 2190.47 L2097.82 2190.47 Q2102.53 2190.47 2104.82 2188.72 Q2107.14 2186.93 2107.14 2183.3 Q2107.14 2179.71 2104.82 2177.93 Q2102.53 2176.14 2097.82 2176.14 L2088.3 2176.14 M2081.87 2170.86 L2098.3 2170.86 Q2105.65 2170.86 2109.63 2173.92 Q2113.61 2176.97 2113.61 2182.6 Q2113.61 2186.96 2111.57 2189.54 Q2109.53 2192.12 2105.58 2192.76 Q2110.33 2193.78 2112.94 2197.02 Q2115.58 2200.24 2115.58 2205.08 Q2115.58 2211.44 2111.25 2214.91 Q2106.92 2218.38 2098.93 2218.38 L2081.87 2218.38 L2081.87 2170.86 Z" fill="#000000" fill-rule="nonzero" fill-opacity="1" /><path clip-path="url(#clip100)" d="M2125.73 2204.31 L2125.73 2182.73 L2131.59 2182.73 L2131.59 2204.09 Q2131.59 2209.15 2133.56 2211.7 Q2135.54 2214.21 2139.48 2214.21 Q2144.22 2214.21 2146.96 2211.19 Q2149.73 2208.16 2149.73 2202.94 L2149.73 2182.73 L2155.59 2182.73 L2155.59 2218.38 L2149.73 2218.38 L2149.73 2212.91 Q2147.6 2216.15 2144.77 2217.74 Q2141.96 2219.3 2138.24 2219.3 Q2132.1 2219.3 2128.92 2215.48 Q2125.73 2211.66 2125.73 2204.31 M2140.47 2181.87 L2140.47 2181.87 Z" fill="#000000" fill-rule="nonzero" fill-opacity="1" /><path clip-path="url(#clip100)" d="M2190.38 2183.78 L2190.38 2189.32 Q2187.89 2188.05 2185.22 2187.41 Q2182.55 2186.77 2179.68 2186.77 Q2175.32 2186.77 2173.12 2188.11 Q2170.96 2189.45 2170.96 2192.12 Q2170.96 2194.16 2172.52 2195.34 Q2174.08 2196.48 2178.79 2197.53 L2180.8 2197.98 Q2187.03 2199.31 2189.64 2201.77 Q2192.29 2204.18 2192.29 2208.54 Q2192.29 2213.51 2188.34 2216.41 Q2184.42 2219.3 2177.55 2219.3 Q2174.68 2219.3 2171.57 2218.73 Q2168.48 2218.19 2165.04 2217.07 L2165.04 2211.03 Q2168.29 2212.71 2171.44 2213.57 Q2174.59 2214.4 2177.68 2214.4 Q2181.81 2214.4 2184.04 2213 Q2186.27 2211.57 2186.27 2208.99 Q2186.27 2206.6 2184.65 2205.33 Q2183.06 2204.06 2177.61 2202.88 L2175.58 2202.4 Q2170.13 2201.26 2167.71 2198.9 Q2165.3 2196.51 2165.3 2192.38 Q2165.3 2187.35 2168.86 2184.61 Q2172.42 2181.87 2178.98 2181.87 Q2182.23 2181.87 2185.09 2182.35 Q2187.96 2182.83 2190.38 2183.78 Z" fill="#000000" fill-rule="nonzero" fill-opacity="1" /><polyline clip-path="url(#clip100)" style="stroke:#000000; stroke-linecap:round; stroke-linejoin:round; stroke-width:4; stroke-opacity:1; fill:none" points="386.242,1992.94 386.242,171.344 "/>
<polyline clip-path="url(#clip100)" style="stroke:#000000; stroke-linecap:round; stroke-linejoin:round; stroke-width:4; stroke-opacity:1; fill:none" points="386.242,1992.94 401.396,1992.94 "/>
<polyline clip-path="url(#clip100)" style="stroke:#000000; stroke-linecap:round; stroke-linejoin:round; stroke-width:4; stroke-opacity:1; fill:none" points="386.242,1537.54 401.396,1537.54 "/>
<polyline clip-path="url(#clip100)" style="stroke:#000000; stroke-linecap:round; stroke-linejoin:round; stroke-width:4; stroke-opacity:1; fill:none" points="386.242,1082.14 401.396,1082.14 "/>
<polyline clip-path="url(#clip100)" style="stroke:#000000; stroke-linecap:round; stroke-linejoin:round; stroke-width:4; stroke-opacity:1; fill:none" points="386.242,626.743 401.396,626.743 "/>
<polyline clip-path="url(#clip100)" style="stroke:#000000; stroke-linecap:round; stroke-linejoin:round; stroke-width:4; stroke-opacity:1; fill:none" points="386.242,171.344 401.396,171.344 "/>
<path clip-path="url(#clip100)" d="M302.297 1978.74 Q298.686 1978.74 296.857 1982.3 Q295.052 1985.84 295.052 1992.97 Q295.052 2000.08 296.857 2003.65 Q298.686 2007.19 302.297 2007.19 Q305.931 2007.19 307.737 2003.65 Q309.566 2000.08 309.566 1992.97 Q309.566 1985.84 307.737 1982.3 Q305.931 1978.74 302.297 1978.74 M302.297 1975.03 Q308.107 1975.03 311.163 1979.64 Q314.242 1984.22 314.242 1992.97 Q314.242 2001.7 311.163 2006.31 Q308.107 2010.89 302.297 2010.89 Q296.487 2010.89 293.408 2006.31 Q290.353 2001.7 290.353 1992.97 Q290.353 1984.22 293.408 1979.64 Q296.487 1975.03 302.297 1975.03 Z" fill="#000000" fill-rule="nonzero" fill-opacity="1" /><path clip-path="url(#clip100)" d="M267.159 1550.89 L283.478 1550.89 L283.478 1554.82 L261.534 1554.82 L261.534 1550.89 Q264.196 1548.13 268.779 1543.5 Q273.385 1538.85 274.566 1537.51 Q276.811 1534.98 277.691 1533.25 Q278.594 1531.49 278.594 1529.8 Q278.594 1527.04 276.649 1525.31 Q274.728 1523.57 271.626 1523.57 Q269.427 1523.57 266.973 1524.33 Q264.543 1525.1 261.765 1526.65 L261.765 1521.93 Q264.589 1520.79 267.043 1520.21 Q269.496 1519.64 271.534 1519.64 Q276.904 1519.64 280.098 1522.32 Q283.293 1525.01 283.293 1529.5 Q283.293 1531.63 282.483 1533.55 Q281.696 1535.45 279.589 1538.04 Q279.01 1538.71 275.909 1541.93 Q272.807 1545.12 267.159 1550.89 Z" fill="#000000" fill-rule="nonzero" fill-opacity="1" /><path clip-path="url(#clip100)" d="M293.339 1520.26 L311.695 1520.26 L311.695 1524.2 L297.621 1524.2 L297.621 1532.67 Q298.64 1532.32 299.658 1532.16 Q300.677 1531.97 301.695 1531.97 Q307.482 1531.97 310.862 1535.14 Q314.242 1538.32 314.242 1543.73 Q314.242 1549.31 310.769 1552.41 Q307.297 1555.49 300.978 1555.49 Q298.802 1555.49 296.533 1555.12 Q294.288 1554.75 291.881 1554.01 L291.881 1549.31 Q293.964 1550.45 296.186 1551 Q298.408 1551.56 300.885 1551.56 Q304.89 1551.56 307.228 1549.45 Q309.566 1547.34 309.566 1543.73 Q309.566 1540.12 307.228 1538.01 Q304.89 1535.91 300.885 1535.91 Q299.01 1535.91 297.135 1536.33 Q295.283 1536.74 293.339 1537.62 L293.339 1520.26 Z" fill="#000000" fill-rule="nonzero" fill-opacity="1" /><path clip-path="url(#clip100)" d="M262.182 1064.86 L280.538 1064.86 L280.538 1068.8 L266.464 1068.8 L266.464 1077.27 Q267.483 1076.92 268.501 1076.76 Q269.52 1076.57 270.538 1076.57 Q276.325 1076.57 279.705 1079.75 Q283.084 1082.92 283.084 1088.33 Q283.084 1093.91 279.612 1097.01 Q276.14 1100.09 269.821 1100.09 Q267.645 1100.09 265.376 1099.72 Q263.131 1099.35 260.723 1098.61 L260.723 1093.91 Q262.807 1095.05 265.029 1095.6 Q267.251 1096.16 269.728 1096.16 Q273.733 1096.16 276.071 1094.05 Q278.408 1091.94 278.408 1088.33 Q278.408 1084.72 276.071 1082.62 Q273.733 1080.51 269.728 1080.51 Q267.853 1080.51 265.978 1080.93 Q264.126 1081.34 262.182 1082.22 L262.182 1064.86 Z" fill="#000000" fill-rule="nonzero" fill-opacity="1" /><path clip-path="url(#clip100)" d="M302.297 1067.94 Q298.686 1067.94 296.857 1071.51 Q295.052 1075.05 295.052 1082.18 Q295.052 1089.28 296.857 1092.85 Q298.686 1096.39 302.297 1096.39 Q305.931 1096.39 307.737 1092.85 Q309.566 1089.28 309.566 1082.18 Q309.566 1075.05 307.737 1071.51 Q305.931 1067.94 302.297 1067.94 M302.297 1064.24 Q308.107 1064.24 311.163 1068.84 Q314.242 1073.43 314.242 1082.18 Q314.242 1090.9 311.163 1095.51 Q308.107 1100.09 302.297 1100.09 Q296.487 1100.09 293.408 1095.51 Q290.353 1090.9 290.353 1082.18 Q290.353 1073.43 293.408 1068.84 Q296.487 1064.24 302.297 1064.24 Z" fill="#000000" fill-rule="nonzero" fill-opacity="1" /><path clip-path="url(#clip100)" d="M261.95 609.463 L284.172 609.463 L284.172 611.454 L271.626 644.023 L266.742 644.023 L278.547 613.398 L261.95 613.398 L261.95 609.463 Z" fill="#000000" fill-rule="nonzero" fill-opacity="1" /><path clip-path="url(#clip100)" d="M293.339 609.463 L311.695 609.463 L311.695 613.398 L297.621 613.398 L297.621 621.87 Q298.64 621.523 299.658 621.361 Q300.677 621.176 301.695 621.176 Q307.482 621.176 310.862 624.347 Q314.242 627.518 314.242 632.935 Q314.242 638.514 310.769 641.616 Q307.297 644.694 300.978 644.694 Q298.802 644.694 296.533 644.324 Q294.288 643.954 291.881 643.213 L291.881 638.514 Q293.964 639.648 296.186 640.204 Q298.408 640.759 300.885 640.759 Q304.89 640.759 307.228 638.653 Q309.566 636.546 309.566 632.935 Q309.566 629.324 307.228 627.218 Q304.89 625.111 300.885 625.111 Q299.01 625.111 297.135 625.528 Q295.283 625.944 293.339 626.824 L293.339 609.463 Z" fill="#000000" fill-rule="nonzero" fill-opacity="1" /><path clip-path="url(#clip100)" d="M232.784 184.689 L240.423 184.689 L240.423 158.324 L232.112 159.99 L232.112 155.731 L240.376 154.064 L245.052 154.064 L245.052 184.689 L252.691 184.689 L252.691 188.624 L232.784 188.624 L232.784 184.689 Z" fill="#000000" fill-rule="nonzero" fill-opacity="1" /><path clip-path="url(#clip100)" d="M272.135 157.143 Q268.524 157.143 266.696 160.708 Q264.89 164.249 264.89 171.379 Q264.89 178.485 266.696 182.05 Q268.524 185.592 272.135 185.592 Q275.77 185.592 277.575 182.05 Q279.404 178.485 279.404 171.379 Q279.404 164.249 277.575 160.708 Q275.77 157.143 272.135 157.143 M272.135 153.439 Q277.946 153.439 281.001 158.046 Q284.08 162.629 284.08 171.379 Q284.08 180.106 281.001 184.712 Q277.946 189.296 272.135 189.296 Q266.325 189.296 263.247 184.712 Q260.191 180.106 260.191 171.379 Q260.191 162.629 263.247 158.046 Q266.325 153.439 272.135 153.439 Z" fill="#000000" fill-rule="nonzero" fill-opacity="1" /><path clip-path="url(#clip100)" d="M302.297 157.143 Q298.686 157.143 296.857 160.708 Q295.052 164.249 295.052 171.379 Q295.052 178.485 296.857 182.05 Q298.686 185.592 302.297 185.592 Q305.931 185.592 307.737 182.05 Q309.566 178.485 309.566 171.379 Q309.566 164.249 307.737 160.708 Q305.931 157.143 302.297 157.143 M302.297 153.439 Q308.107 153.439 311.163 158.046 Q314.242 162.629 314.242 171.379 Q314.242 180.106 311.163 184.712 Q308.107 189.296 302.297 189.296 Q296.487 189.296 293.408 184.712 Q290.353 180.106 290.353 171.379 Q290.353 162.629 293.408 158.046 Q296.487 153.439 302.297 153.439 Z" fill="#000000" fill-rule="nonzero" fill-opacity="1" /><path clip-path="url(#clip100)" d="M98.3364 1313.54 L98.3364 1307.11 L140.446 1307.11 L140.446 1283.97 L145.856 1283.97 L145.856 1313.54 L98.3364 1313.54 Z" fill="#000000" fill-rule="nonzero" fill-opacity="1" /><path clip-path="url(#clip100)" d="M114.314 1264.81 Q114.314 1269.52 118.006 1272.25 Q121.667 1274.99 128.064 1274.99 Q134.462 1274.99 138.154 1272.29 Q141.814 1269.55 141.814 1264.81 Q141.814 1260.13 138.122 1257.39 Q134.43 1254.65 128.064 1254.65 Q121.73 1254.65 118.038 1257.39 Q114.314 1260.13 114.314 1264.81 M109.349 1264.81 Q109.349 1257.17 114.314 1252.81 Q119.28 1248.45 128.064 1248.45 Q136.817 1248.45 141.814 1252.81 Q146.779 1257.17 146.779 1264.81 Q146.779 1272.48 141.814 1276.84 Q136.817 1281.17 128.064 1281.17 Q119.28 1281.17 114.314 1276.84 Q109.349 1272.48 109.349 1264.81 Z" fill="#000000" fill-rule="nonzero" fill-opacity="1" /><path clip-path="url(#clip100)" d="M127.937 1222.54 Q127.937 1229.64 129.56 1232.37 Q131.183 1235.11 135.098 1235.11 Q138.218 1235.11 140.064 1233.07 Q141.878 1231 141.878 1227.47 Q141.878 1222.6 138.44 1219.67 Q134.971 1216.71 129.242 1216.71 L127.937 1216.71 L127.937 1222.54 M125.518 1210.86 L145.856 1210.86 L145.856 1216.71 L140.446 1216.71 Q143.692 1218.72 145.252 1221.71 Q146.779 1224.7 146.779 1229.03 Q146.779 1234.5 143.724 1237.75 Q140.637 1240.97 135.48 1240.97 Q129.465 1240.97 126.409 1236.96 Q123.354 1232.91 123.354 1224.92 L123.354 1216.71 L122.781 1216.71 Q118.739 1216.71 116.542 1219.39 Q114.314 1222.03 114.314 1226.83 Q114.314 1229.89 115.046 1232.79 Q115.778 1235.68 117.243 1238.36 L111.832 1238.36 Q110.59 1235.14 109.986 1232.12 Q109.349 1229.09 109.349 1226.23 Q109.349 1218.5 113.36 1214.68 Q117.37 1210.86 125.518 1210.86 Z" fill="#000000" fill-rule="nonzero" fill-opacity="1" /><path clip-path="url(#clip100)" d="M115.619 1175.34 L96.3312 1175.34 L96.3312 1169.48 L145.856 1169.48 L145.856 1175.34 L140.509 1175.34 Q143.692 1177.18 145.252 1180.01 Q146.779 1182.82 146.779 1186.76 Q146.779 1193.22 141.623 1197.3 Q136.467 1201.34 128.064 1201.34 Q119.662 1201.34 114.505 1197.3 Q109.349 1193.22 109.349 1186.76 Q109.349 1182.82 110.909 1180.01 Q112.436 1177.18 115.619 1175.34 M128.064 1195.29 Q134.525 1195.29 138.218 1192.65 Q141.878 1189.98 141.878 1185.33 Q141.878 1180.68 138.218 1178.01 Q134.525 1175.34 128.064 1175.34 Q121.603 1175.34 117.943 1178.01 Q114.251 1180.68 114.251 1185.33 Q114.251 1189.98 117.943 1192.65 Q121.603 1195.29 128.064 1195.29 Z" fill="#000000" fill-rule="nonzero" fill-opacity="1" /><path clip-path="url(#clip100)" d="M99.896 1107.95 L106.166 1107.95 Q104.416 1111.61 103.556 1114.86 Q102.697 1118.11 102.697 1121.13 Q102.697 1126.38 104.734 1129.25 Q106.771 1132.08 110.527 1132.08 Q113.678 1132.08 115.301 1130.2 Q116.892 1128.29 117.879 1123.01 L118.675 1119.13 Q120.044 1111.93 123.513 1108.53 Q126.95 1105.09 132.743 1105.09 Q139.65 1105.09 143.215 1109.74 Q146.779 1114.35 146.779 1123.3 Q146.779 1126.67 146.016 1130.49 Q145.252 1134.28 143.756 1138.35 L137.135 1138.35 Q139.332 1134.44 140.446 1130.68 Q141.56 1126.92 141.56 1123.3 Q141.56 1117.79 139.395 1114.8 Q137.231 1111.81 133.221 1111.81 Q129.719 1111.81 127.746 1113.97 Q125.773 1116.1 124.786 1121 L124.022 1124.92 Q122.59 1132.11 119.534 1135.33 Q116.479 1138.54 111.036 1138.54 Q104.734 1138.54 101.106 1134.12 Q97.4771 1129.66 97.4771 1121.86 Q97.4771 1118.52 98.0818 1115.05 Q98.6866 1111.58 99.896 1107.95 Z" fill="#000000" fill-rule="nonzero" fill-opacity="1" /><path clip-path="url(#clip100)" d="M124.34 1065.69 L145.856 1065.69 L145.856 1071.54 L124.531 1071.54 Q119.471 1071.54 116.956 1073.52 Q114.442 1075.49 114.442 1079.44 Q114.442 1084.18 117.465 1086.92 Q120.489 1089.65 125.709 1089.65 L145.856 1089.65 L145.856 1095.54 L96.3312 1095.54 L96.3312 1089.65 L115.747 1089.65 Q112.532 1087.55 110.941 1084.72 Q109.349 1081.86 109.349 1078.13 Q109.349 1071.99 113.169 1068.84 Q116.956 1065.69 124.34 1065.69 Z" fill="#000000" fill-rule="nonzero" fill-opacity="1" /><path clip-path="url(#clip100)" d="M126.568 1023.51 L129.433 1023.51 L129.433 1050.44 Q135.48 1050.06 138.663 1046.81 Q141.814 1043.53 141.814 1037.71 Q141.814 1034.34 140.987 1031.18 Q140.159 1028 138.504 1024.88 L144.042 1024.88 Q145.379 1028.03 146.079 1031.34 Q146.779 1034.65 146.779 1038.06 Q146.779 1046.59 141.814 1051.59 Q136.849 1056.55 128.383 1056.55 Q119.63 1056.55 114.505 1051.84 Q109.349 1047.1 109.349 1039.08 Q109.349 1031.88 113.996 1027.71 Q118.611 1023.51 126.568 1023.51 M124.85 1029.37 Q120.044 1029.43 117.179 1032.08 Q114.314 1034.69 114.314 1039.01 Q114.314 1043.92 117.083 1046.88 Q119.853 1049.8 124.881 1050.25 L124.85 1029.37 Z" fill="#000000" fill-rule="nonzero" fill-opacity="1" /><path clip-path="url(#clip100)" d="M115.619 990.444 L96.3312 990.444 L96.3312 984.587 L145.856 984.587 L145.856 990.444 L140.509 990.444 Q143.692 992.29 145.252 995.123 Q146.779 997.923 146.779 1001.87 Q146.779 1008.33 141.623 1012.41 Q136.467 1016.45 128.064 1016.45 Q119.662 1016.45 114.505 1012.41 Q109.349 1008.33 109.349 1001.87 Q109.349 997.923 110.909 995.123 Q112.436 992.29 115.619 990.444 M128.064 1010.4 Q134.525 1010.4 138.218 1007.76 Q141.878 1005.08 141.878 1000.44 Q141.878 995.791 138.218 993.117 Q134.525 990.444 128.064 990.444 Q121.603 990.444 117.943 993.117 Q114.251 995.791 114.251 1000.44 Q114.251 1005.08 117.943 1007.76 Q121.603 1010.4 128.064 1010.4 Z" fill="#000000" fill-rule="nonzero" fill-opacity="1" /><path clip-path="url(#clip100)" d="M96.3949 937.736 Q103.715 942.001 110.877 944.07 Q118.038 946.138 125.391 946.138 Q132.743 946.138 139.968 944.07 Q147.161 941.969 154.45 937.736 L154.45 942.828 Q146.97 947.603 139.745 949.99 Q132.52 952.345 125.391 952.345 Q118.293 952.345 111.1 949.99 Q103.906 947.634 96.3949 942.828 L96.3949 937.736 Z" fill="#000000" fill-rule="nonzero" fill-opacity="1" /><path clip-path="url(#clip100)" d="M124.945 885.123 Q124.945 887.892 127.3 889.484 Q129.656 891.043 133.857 891.043 Q137.995 891.043 140.382 889.484 Q142.737 887.892 142.737 885.123 Q142.737 882.418 140.382 880.858 Q137.995 879.267 133.857 879.267 Q129.688 879.267 127.332 880.858 Q124.945 882.418 124.945 885.123 M120.903 885.123 Q120.903 880.094 124.404 877.134 Q127.905 874.174 133.857 874.174 Q139.809 874.174 143.31 877.166 Q146.779 880.126 146.779 885.123 Q146.779 890.216 143.31 893.176 Q139.809 896.136 133.857 896.136 Q127.873 896.136 124.404 893.176 Q120.903 890.184 120.903 885.123 M101.519 917.97 Q101.519 920.707 103.906 922.299 Q106.262 923.858 110.399 923.858 Q114.601 923.858 116.956 922.299 Q119.311 920.739 119.311 917.97 Q119.311 915.201 116.956 913.641 Q114.601 912.05 110.399 912.05 Q106.294 912.05 103.906 913.641 Q101.519 915.233 101.519 917.97 M97.4771 889.229 L97.4771 884.136 L146.779 913.864 L146.779 918.957 L97.4771 889.229 M97.4771 917.97 Q97.4771 912.941 100.978 909.949 Q104.448 906.957 110.399 906.957 Q116.415 906.957 119.884 909.949 Q123.354 912.909 123.354 917.97 Q123.354 923.031 119.884 925.991 Q116.383 928.919 110.399 928.919 Q104.479 928.919 100.978 925.959 Q97.4771 922.999 97.4771 917.97 Z" fill="#000000" fill-rule="nonzero" fill-opacity="1" /><path clip-path="url(#clip100)" d="M96.3949 865.358 L96.3949 860.265 Q103.906 855.491 111.1 853.135 Q118.293 850.748 125.391 850.748 Q132.52 850.748 139.745 853.135 Q146.97 855.491 154.45 860.265 L154.45 865.358 Q147.161 861.124 139.968 859.056 Q132.743 856.955 125.391 856.955 Q118.038 856.955 110.877 859.056 Q103.715 861.124 96.3949 865.358 Z" fill="#000000" fill-rule="nonzero" fill-opacity="1" /><path clip-path="url(#clip100)" d="M1159.54 44.2197 Q1162.17 45.1109 1164.64 48.0275 Q1167.15 50.9442 1169.66 56.0483 L1177.97 72.576 L1169.18 72.576 L1161.44 57.061 Q1158.44 50.9847 1155.61 48.9997 Q1152.81 47.0148 1147.95 47.0148 L1139.04 47.0148 L1139.04 72.576 L1130.85 72.576 L1130.85 12.096 L1149.33 12.096 Q1159.7 12.096 1164.8 16.4305 Q1169.91 20.7649 1169.91 29.5149 Q1169.91 35.2267 1167.23 38.994 Q1164.6 42.7613 1159.54 44.2197 M1139.04 18.8205 L1139.04 40.2903 L1149.33 40.2903 Q1155.24 40.2903 1158.24 37.5762 Q1161.28 34.8216 1161.28 29.5149 Q1161.28 24.2082 1158.24 21.5346 Q1155.24 18.8205 1149.33 18.8205 L1139.04 18.8205 Z" fill="#000000" fill-rule="nonzero" fill-opacity="1" /><path clip-path="url(#clip100)" d="M1223.26 48.0275 L1223.26 51.6733 L1188.99 51.6733 Q1189.47 59.3701 1193.6 63.421 Q1197.78 67.4314 1205.19 67.4314 Q1209.48 67.4314 1213.49 66.3781 Q1217.54 65.3249 1221.51 63.2184 L1221.51 70.267 Q1217.5 71.9684 1213.29 72.8596 Q1209.08 73.7508 1204.74 73.7508 Q1193.89 73.7508 1187.53 67.4314 Q1181.21 61.1119 1181.21 50.3365 Q1181.21 39.1965 1187.2 32.6746 Q1193.24 26.1121 1203.45 26.1121 Q1212.6 26.1121 1217.91 32.0264 Q1223.26 37.9003 1223.26 48.0275 M1215.8 45.84 Q1215.72 39.7232 1212.36 36.0774 Q1209.04 32.4315 1203.53 32.4315 Q1197.29 32.4315 1193.52 35.9558 Q1189.8 39.4801 1189.23 45.8805 L1215.8 45.84 Z" fill="#000000" fill-rule="nonzero" fill-opacity="1" /><path clip-path="url(#clip100)" d="M1256.11 49.7694 Q1247.08 49.7694 1243.59 51.8354 Q1240.11 53.9013 1240.11 58.8839 Q1240.11 62.8538 1242.7 65.2034 Q1245.33 67.5124 1249.83 67.5124 Q1256.03 67.5124 1259.75 63.1374 Q1263.52 58.7219 1263.52 51.4303 L1263.52 49.7694 L1256.11 49.7694 M1270.98 46.6907 L1270.98 72.576 L1263.52 72.576 L1263.52 65.6895 Q1260.97 69.8214 1257.16 71.8063 Q1253.35 73.7508 1247.84 73.7508 Q1240.88 73.7508 1236.75 69.8619 Q1232.65 65.9325 1232.65 59.3701 Q1232.65 51.7138 1237.76 47.825 Q1242.9 43.9361 1253.07 43.9361 L1263.52 43.9361 L1263.52 43.2069 Q1263.52 38.0623 1260.12 35.2672 Q1256.76 32.4315 1250.64 32.4315 Q1246.75 32.4315 1243.06 33.3632 Q1239.38 34.295 1235.98 36.1584 L1235.98 29.2718 Q1240.07 27.692 1243.92 26.9223 Q1247.76 26.1121 1251.41 26.1121 Q1261.25 26.1121 1266.11 31.2163 Q1270.98 36.3204 1270.98 46.6907 Z" fill="#000000" fill-rule="nonzero" fill-opacity="1" /><path clip-path="url(#clip100)" d="M1318.98 28.9478 L1318.98 35.9153 Q1315.82 34.1734 1312.62 33.3227 Q1309.46 32.4315 1306.22 32.4315 Q1298.97 32.4315 1294.96 37.0496 Q1290.95 41.6271 1290.95 49.9314 Q1290.95 58.2358 1294.96 62.8538 Q1298.97 67.4314 1306.22 67.4314 Q1309.46 67.4314 1312.62 66.5807 Q1315.82 65.6895 1318.98 63.9476 L1318.98 70.8341 Q1315.86 72.2924 1312.5 73.0216 Q1309.18 73.7508 1305.41 73.7508 Q1295.16 73.7508 1289.12 67.3098 Q1283.09 60.8689 1283.09 49.9314 Q1283.09 38.832 1289.16 32.472 Q1295.28 26.1121 1305.89 26.1121 Q1309.34 26.1121 1312.62 26.8413 Q1315.9 27.5299 1318.98 28.9478 Z" fill="#000000" fill-rule="nonzero" fill-opacity="1" /><path clip-path="url(#clip100)" d="M1339.31 14.324 L1339.31 27.2059 L1354.67 27.2059 L1354.67 32.9987 L1339.31 32.9987 L1339.31 57.6282 Q1339.31 63.1779 1340.81 64.7578 Q1342.35 66.3376 1347.01 66.3376 L1354.67 66.3376 L1354.67 72.576 L1347.01 72.576 Q1338.38 72.576 1335.1 69.3758 Q1331.82 66.1351 1331.82 57.6282 L1331.82 32.9987 L1326.35 32.9987 L1326.35 27.2059 L1331.82 27.2059 L1331.82 14.324 L1339.31 14.324 Z" fill="#000000" fill-rule="nonzero" fill-opacity="1" /><path clip-path="url(#clip100)" d="M1364.47 27.2059 L1371.92 27.2059 L1371.92 72.576 L1364.47 72.576 L1364.47 27.2059 M1364.47 9.54393 L1371.92 9.54393 L1371.92 18.9825 L1364.47 18.9825 L1364.47 9.54393 Z" fill="#000000" fill-rule="nonzero" fill-opacity="1" /><path clip-path="url(#clip100)" d="M1382.17 27.2059 L1390.07 27.2059 L1404.25 65.2844 L1418.43 27.2059 L1426.33 27.2059 L1409.31 72.576 L1399.19 72.576 L1382.17 27.2059 Z" fill="#000000" fill-rule="nonzero" fill-opacity="1" /><path clip-path="url(#clip100)" d="M1475.42 48.0275 L1475.42 51.6733 L1441.15 51.6733 Q1441.64 59.3701 1445.77 63.421 Q1449.94 67.4314 1457.36 67.4314 Q1461.65 67.4314 1465.66 66.3781 Q1469.71 65.3249 1473.68 63.2184 L1473.68 70.267 Q1469.67 71.9684 1465.46 72.8596 Q1461.25 73.7508 1456.91 73.7508 Q1446.06 73.7508 1439.7 67.4314 Q1433.38 61.1119 1433.38 50.3365 Q1433.38 39.1965 1439.37 32.6746 Q1445.41 26.1121 1455.62 26.1121 Q1464.77 26.1121 1470.08 32.0264 Q1475.42 37.9003 1475.42 48.0275 M1467.97 45.84 Q1467.89 39.7232 1464.53 36.0774 Q1461.21 32.4315 1455.7 32.4315 Q1449.46 32.4315 1445.69 35.9558 Q1441.96 39.4801 1441.4 45.8805 L1467.97 45.84 Z" fill="#000000" fill-rule="nonzero" fill-opacity="1" /><path clip-path="url(#clip100)" d="M1522.54 18.8205 L1522.54 41.5461 L1532.83 41.5461 Q1538.54 41.5461 1541.66 38.5889 Q1544.78 35.6318 1544.78 30.163 Q1544.78 24.7348 1541.66 21.7777 Q1538.54 18.8205 1532.83 18.8205 L1522.54 18.8205 M1514.35 12.096 L1532.83 12.096 Q1542.99 12.096 1548.18 16.714 Q1553.4 21.2916 1553.4 30.163 Q1553.4 39.1155 1548.18 43.6931 Q1542.99 48.2706 1532.83 48.2706 L1522.54 48.2706 L1522.54 72.576 L1514.35 72.576 L1514.35 12.096 Z" fill="#000000" fill-rule="nonzero" fill-opacity="1" /><path clip-path="url(#clip100)" d="M1578.68 32.4315 Q1572.69 32.4315 1569.2 37.1306 Q1565.72 41.7891 1565.72 49.9314 Q1565.72 58.0738 1569.16 62.7728 Q1572.65 67.4314 1578.68 67.4314 Q1584.64 67.4314 1588.12 62.7323 Q1591.6 58.0333 1591.6 49.9314 Q1591.6 41.8701 1588.12 37.1711 Q1584.64 32.4315 1578.68 32.4315 M1578.68 26.1121 Q1588.4 26.1121 1593.95 32.4315 Q1599.5 38.7509 1599.5 49.9314 Q1599.5 61.0714 1593.95 67.4314 Q1588.4 73.7508 1578.68 73.7508 Q1568.92 73.7508 1563.37 67.4314 Q1557.86 61.0714 1557.86 49.9314 Q1557.86 38.7509 1563.37 32.4315 Q1568.92 26.1121 1578.68 26.1121 Z" fill="#000000" fill-rule="nonzero" fill-opacity="1" /><path clip-path="url(#clip100)" d="M1607.52 27.2059 L1614.98 27.2059 L1624.3 62.6108 L1633.57 27.2059 L1642.36 27.2059 L1651.68 62.6108 L1660.96 27.2059 L1668.41 27.2059 L1656.54 72.576 L1647.75 72.576 L1637.99 35.3887 L1628.18 72.576 L1619.39 72.576 L1607.52 27.2059 Z" fill="#000000" fill-rule="nonzero" fill-opacity="1" /><path clip-path="url(#clip100)" d="M1718.52 48.0275 L1718.52 51.6733 L1684.25 51.6733 Q1684.73 59.3701 1688.87 63.421 Q1693.04 67.4314 1700.45 67.4314 Q1704.75 67.4314 1708.76 66.3781 Q1712.81 65.3249 1716.78 63.2184 L1716.78 70.267 Q1712.77 71.9684 1708.55 72.8596 Q1704.34 73.7508 1700.01 73.7508 Q1689.15 73.7508 1682.79 67.4314 Q1676.47 61.1119 1676.47 50.3365 Q1676.47 39.1965 1682.47 32.6746 Q1688.5 26.1121 1698.71 26.1121 Q1707.87 26.1121 1713.17 32.0264 Q1718.52 37.9003 1718.52 48.0275 M1711.07 45.84 Q1710.98 39.7232 1707.62 36.0774 Q1704.3 32.4315 1698.79 32.4315 Q1692.55 32.4315 1688.79 35.9558 Q1685.06 39.4801 1684.49 45.8805 L1711.07 45.84 Z" fill="#000000" fill-rule="nonzero" fill-opacity="1" /><path clip-path="url(#clip100)" d="M1757.04 34.1734 Q1755.79 33.4443 1754.29 33.1202 Q1752.83 32.7556 1751.05 32.7556 Q1744.73 32.7556 1741.33 36.8875 Q1737.96 40.9789 1737.96 48.6757 L1737.96 72.576 L1730.47 72.576 L1730.47 27.2059 L1737.96 27.2059 L1737.96 34.2544 Q1740.31 30.1225 1744.08 28.1376 Q1747.85 26.1121 1753.24 26.1121 Q1754.01 26.1121 1754.94 26.2337 Q1755.87 26.3147 1757 26.5172 L1757.04 34.1734 Z" fill="#000000" fill-rule="nonzero" fill-opacity="1" /><path clip-path="url(#clip100)" d="M1791.56 12.096 L1799.74 12.096 L1799.74 65.6895 L1829.19 65.6895 L1829.19 72.576 L1791.56 72.576 L1791.56 12.096 Z" fill="#000000" fill-rule="nonzero" fill-opacity="1" /><path clip-path="url(#clip100)" d="M1853.58 32.4315 Q1847.58 32.4315 1844.1 37.1306 Q1840.61 41.7891 1840.61 49.9314 Q1840.61 58.0738 1844.06 62.7728 Q1847.54 67.4314 1853.58 67.4314 Q1859.53 67.4314 1863.02 62.7323 Q1866.5 58.0333 1866.5 49.9314 Q1866.5 41.8701 1863.02 37.1711 Q1859.53 32.4315 1853.58 32.4315 M1853.58 26.1121 Q1863.3 26.1121 1868.85 32.4315 Q1874.4 38.7509 1874.4 49.9314 Q1874.4 61.0714 1868.85 67.4314 Q1863.3 73.7508 1853.58 73.7508 Q1843.81 73.7508 1838.26 67.4314 Q1832.75 61.0714 1832.75 49.9314 Q1832.75 38.7509 1838.26 32.4315 Q1843.81 26.1121 1853.58 26.1121 Z" fill="#000000" fill-rule="nonzero" fill-opacity="1" /><path clip-path="url(#clip100)" d="M1907.37 49.7694 Q1898.34 49.7694 1894.86 51.8354 Q1891.37 53.9013 1891.37 58.8839 Q1891.37 62.8538 1893.96 65.2034 Q1896.6 67.5124 1901.09 67.5124 Q1907.29 67.5124 1911.02 63.1374 Q1914.79 58.7219 1914.79 51.4303 L1914.79 49.7694 L1907.37 49.7694 M1922.24 46.6907 L1922.24 72.576 L1914.79 72.576 L1914.79 65.6895 Q1912.23 69.8214 1908.43 71.8063 Q1904.62 73.7508 1899.11 73.7508 Q1892.14 73.7508 1888.01 69.8619 Q1883.92 65.9325 1883.92 59.3701 Q1883.92 51.7138 1889.02 47.825 Q1894.17 43.9361 1904.33 43.9361 L1914.79 43.9361 L1914.79 43.2069 Q1914.79 38.0623 1911.38 35.2672 Q1908.02 32.4315 1901.9 32.4315 Q1898.02 32.4315 1894.33 33.3632 Q1890.64 34.295 1887.24 36.1584 L1887.24 29.2718 Q1891.33 27.692 1895.18 26.9223 Q1899.03 26.1121 1902.67 26.1121 Q1912.52 26.1121 1917.38 31.2163 Q1922.24 36.3204 1922.24 46.6907 Z" fill="#000000" fill-rule="nonzero" fill-opacity="1" /><path clip-path="url(#clip100)" d="M1967.45 34.0924 L1967.45 9.54393 L1974.9 9.54393 L1974.9 72.576 L1967.45 72.576 L1967.45 65.7705 Q1965.1 69.8214 1961.49 71.8063 Q1957.93 73.7508 1952.9 73.7508 Q1944.68 73.7508 1939.5 67.1883 Q1934.35 60.6258 1934.35 49.9314 Q1934.35 39.2371 1939.5 32.6746 Q1944.68 26.1121 1952.9 26.1121 Q1957.93 26.1121 1961.49 28.0971 Q1965.1 30.0415 1967.45 34.0924 M1942.05 49.9314 Q1942.05 58.1548 1945.41 62.8538 Q1948.81 67.5124 1954.73 67.5124 Q1960.64 67.5124 1964.04 62.8538 Q1967.45 58.1548 1967.45 49.9314 Q1967.45 41.7081 1964.04 37.0496 Q1960.64 32.3505 1954.73 32.3505 Q1948.81 32.3505 1945.41 37.0496 Q1942.05 41.7081 1942.05 49.9314 Z" fill="#000000" fill-rule="nonzero" fill-opacity="1" /><path clip-path="url(#clip100)" d="M2053.21 14.0809 L2053.21 22.0612 Q2048.55 19.8332 2044.41 18.7395 Q2040.28 17.6457 2036.43 17.6457 Q2029.75 17.6457 2026.1 20.2383 Q2022.5 22.8309 2022.5 27.611 Q2022.5 31.6214 2024.89 33.6873 Q2027.32 35.7128 2034.04 36.9686 L2038.99 37.9813 Q2048.14 39.7232 2052.48 44.1387 Q2056.85 48.5136 2056.85 55.8863 Q2056.85 64.6767 2050.94 69.2137 Q2045.06 73.7508 2033.68 73.7508 Q2029.39 73.7508 2024.52 72.7785 Q2019.7 71.8063 2014.52 69.9024 L2014.52 61.4765 Q2019.5 64.2716 2024.28 65.6895 Q2029.06 67.1073 2033.68 67.1073 Q2040.69 67.1073 2044.5 64.3527 Q2048.3 61.598 2048.3 56.4939 Q2048.3 52.0379 2045.55 49.5264 Q2042.83 47.0148 2036.6 45.759 L2031.61 44.7868 Q2022.46 42.9639 2018.37 39.075 Q2014.28 35.1862 2014.28 28.2591 Q2014.28 20.2383 2019.91 15.6203 Q2025.58 11.0023 2035.5 11.0023 Q2039.76 11.0023 2044.17 11.7719 Q2048.59 12.5416 2053.21 14.0809 Z" fill="#000000" fill-rule="nonzero" fill-opacity="1" /><path clip-path="url(#clip100)" d="M2107 45.1919 L2107 72.576 L2099.55 72.576 L2099.55 45.4349 Q2099.55 38.994 2097.04 35.7938 Q2094.52 32.5936 2089.5 32.5936 Q2083.47 32.5936 2079.98 36.4419 Q2076.5 40.2903 2076.5 46.9338 L2076.5 72.576 L2069 72.576 L2069 9.54393 L2076.5 9.54393 L2076.5 34.2544 Q2079.17 30.163 2082.78 28.1376 Q2086.42 26.1121 2091.16 26.1121 Q2098.98 26.1121 2102.99 30.9732 Q2107 35.7938 2107 45.1919 Z" fill="#000000" fill-rule="nonzero" fill-opacity="1" /><path clip-path="url(#clip100)" d="M2160.68 48.0275 L2160.68 51.6733 L2126.4 51.6733 Q2126.89 59.3701 2131.02 63.421 Q2135.2 67.4314 2142.61 67.4314 Q2146.9 67.4314 2150.91 66.3781 Q2154.96 65.3249 2158.93 63.2184 L2158.93 70.267 Q2154.92 71.9684 2150.71 72.8596 Q2146.5 73.7508 2142.16 73.7508 Q2131.31 73.7508 2124.95 67.4314 Q2118.63 61.1119 2118.63 50.3365 Q2118.63 39.1965 2124.62 32.6746 Q2130.66 26.1121 2140.87 26.1121 Q2150.02 26.1121 2155.33 32.0264 Q2160.68 37.9003 2160.68 48.0275 M2153.22 45.84 Q2153.14 39.7232 2149.78 36.0774 Q2146.46 32.4315 2140.95 32.4315 Q2134.71 32.4315 2130.94 35.9558 Q2127.22 39.4801 2126.65 45.8805 L2153.22 45.84 Z" fill="#000000" fill-rule="nonzero" fill-opacity="1" /><path clip-path="url(#clip100)" d="M2202.76 34.0924 L2202.76 9.54393 L2210.22 9.54393 L2210.22 72.576 L2202.76 72.576 L2202.76 65.7705 Q2200.42 69.8214 2196.81 71.8063 Q2193.24 73.7508 2188.22 73.7508 Q2180 73.7508 2174.81 67.1883 Q2169.67 60.6258 2169.67 49.9314 Q2169.67 39.2371 2174.81 32.6746 Q2180 26.1121 2188.22 26.1121 Q2193.24 26.1121 2196.81 28.0971 Q2200.42 30.0415 2202.76 34.0924 M2177.37 49.9314 Q2177.37 58.1548 2180.73 62.8538 Q2184.13 67.5124 2190.04 67.5124 Q2195.96 67.5124 2199.36 62.8538 Q2202.76 58.1548 2202.76 49.9314 Q2202.76 41.7081 2199.36 37.0496 Q2195.96 32.3505 2190.04 32.3505 Q2184.13 32.3505 2180.73 37.0496 Q2177.37 41.7081 2177.37 49.9314 Z" fill="#000000" fill-rule="nonzero" fill-opacity="1" /><path clip-path="url(#clip100)" d="M2259.15 65.7705 L2259.15 89.8329 L2251.66 89.8329 L2251.66 27.2059 L2259.15 27.2059 L2259.15 34.0924 Q2261.5 30.0415 2265.07 28.0971 Q2268.67 26.1121 2273.66 26.1121 Q2281.92 26.1121 2287.06 32.6746 Q2292.25 39.2371 2292.25 49.9314 Q2292.25 60.6258 2287.06 67.1883 Q2281.92 73.7508 2273.66 73.7508 Q2268.67 73.7508 2265.07 71.8063 Q2261.5 69.8214 2259.15 65.7705 M2284.51 49.9314 Q2284.51 41.7081 2281.11 37.0496 Q2277.75 32.3505 2271.83 32.3505 Q2265.92 32.3505 2262.52 37.0496 Q2259.15 41.7081 2259.15 49.9314 Q2259.15 58.1548 2262.52 62.8538 Q2265.92 67.5124 2271.83 67.5124 Q2277.75 67.5124 2281.11 62.8538 Q2284.51 58.1548 2284.51 49.9314 Z" fill="#000000" fill-rule="nonzero" fill-opacity="1" /><path clip-path="url(#clip100)" d="M2343.41 48.0275 L2343.41 51.6733 L2309.14 51.6733 Q2309.63 59.3701 2313.76 63.421 Q2317.93 67.4314 2325.34 67.4314 Q2329.64 67.4314 2333.65 66.3781 Q2337.7 65.3249 2341.67 63.2184 L2341.67 70.267 Q2337.66 71.9684 2333.45 72.8596 Q2329.23 73.7508 2324.9 73.7508 Q2314.04 73.7508 2307.68 67.4314 Q2301.36 61.1119 2301.36 50.3365 Q2301.36 39.1965 2307.36 32.6746 Q2313.39 26.1121 2323.6 26.1121 Q2332.76 26.1121 2338.06 32.0264 Q2343.41 37.9003 2343.41 48.0275 M2335.96 45.84 Q2335.88 39.7232 2332.52 36.0774 Q2329.19 32.4315 2323.68 32.4315 Q2317.45 32.4315 2313.68 35.9558 Q2309.95 39.4801 2309.38 45.8805 L2335.96 45.84 Z" fill="#000000" fill-rule="nonzero" fill-opacity="1" /><path clip-path="url(#clip100)" d="M2381.94 34.1734 Q2380.68 33.4443 2379.18 33.1202 Q2377.72 32.7556 2375.94 32.7556 Q2369.62 32.7556 2366.22 36.8875 Q2362.86 40.9789 2362.86 48.6757 L2362.86 72.576 L2355.36 72.576 L2355.36 27.2059 L2362.86 27.2059 L2362.86 34.2544 Q2365.21 30.1225 2368.97 28.1376 Q2372.74 26.1121 2378.13 26.1121 Q2378.9 26.1121 2379.83 26.2337 Q2380.76 26.3147 2381.9 26.5172 L2381.94 34.1734 Z" fill="#000000" fill-rule="nonzero" fill-opacity="1" /><path clip-path="url(#clip100)" d="M2424.63 43.6931 L2424.63 65.8515 L2437.76 65.8515 Q2444.36 65.8515 2447.52 63.1374 Q2450.72 60.3828 2450.72 54.752 Q2450.72 49.0808 2447.52 46.4072 Q2444.36 43.6931 2437.76 43.6931 L2424.63 43.6931 M2424.63 18.8205 L2424.63 37.0496 L2436.74 37.0496 Q2442.74 37.0496 2445.66 34.8216 Q2448.61 32.5531 2448.61 27.935 Q2448.61 23.3575 2445.66 21.089 Q2442.74 18.8205 2436.74 18.8205 L2424.63 18.8205 M2416.45 12.096 L2437.35 12.096 Q2446.71 12.096 2451.77 15.9849 Q2456.84 19.8737 2456.84 27.0438 Q2456.84 32.5936 2454.24 35.8748 Q2451.65 39.156 2446.63 39.9662 Q2452.66 41.2625 2455.99 45.3944 Q2459.35 49.4858 2459.35 55.6432 Q2459.35 63.745 2453.84 68.1605 Q2448.33 72.576 2438.16 72.576 L2416.45 72.576 L2416.45 12.096 Z" fill="#000000" fill-rule="nonzero" fill-opacity="1" /><path clip-path="url(#clip100)" d="M2472.27 54.671 L2472.27 27.2059 L2479.72 27.2059 L2479.72 54.3874 Q2479.72 60.8284 2482.24 64.0691 Q2484.75 67.2693 2489.77 67.2693 Q2495.81 67.2693 2499.29 63.421 Q2502.82 59.5726 2502.82 52.9291 L2502.82 27.2059 L2510.27 27.2059 L2510.27 72.576 L2502.82 72.576 L2502.82 65.6084 Q2500.1 69.7404 2496.5 71.7658 Q2492.93 73.7508 2488.19 73.7508 Q2480.37 73.7508 2476.32 68.8897 Q2472.27 64.0286 2472.27 54.671 M2491.03 26.1121 L2491.03 26.1121 Z" fill="#000000" fill-rule="nonzero" fill-opacity="1" /><path clip-path="url(#clip100)" d="M2554.55 28.5427 L2554.55 35.5912 Q2551.39 33.9709 2547.98 33.1607 Q2544.58 32.3505 2540.93 32.3505 Q2535.38 32.3505 2532.59 34.0519 Q2529.83 35.7533 2529.83 39.156 Q2529.83 41.7486 2531.82 43.2475 Q2533.8 44.7058 2539.8 46.0426 L2542.35 46.6097 Q2550.29 48.3111 2553.61 51.4303 Q2556.98 54.509 2556.98 60.0587 Q2556.98 66.3781 2551.95 70.0644 Q2546.97 73.7508 2538.22 73.7508 Q2534.57 73.7508 2530.6 73.0216 Q2526.67 72.3329 2522.3 70.9151 L2522.3 63.2184 Q2526.43 65.3654 2530.44 66.4591 Q2534.45 67.5124 2538.38 67.5124 Q2543.65 67.5124 2546.48 65.73 Q2549.32 63.9071 2549.32 60.6258 Q2549.32 57.5877 2547.25 55.9673 Q2545.23 54.3469 2538.3 52.8481 L2535.71 52.2405 Q2528.78 50.7821 2525.7 47.7845 Q2522.62 44.7463 2522.62 39.4801 Q2522.62 33.0797 2527.16 29.5959 Q2531.7 26.1121 2540.04 26.1121 Q2544.17 26.1121 2547.82 26.7198 Q2551.47 27.3274 2554.55 28.5427 Z" fill="#000000" fill-rule="nonzero" fill-opacity="1" /><path clip-path="url(#clip100)" d="M2570.75 62.2867 L2579.3 62.2867 L2579.3 72.576 L2570.75 72.576 L2570.75 62.2867 M2570.75 29.6769 L2579.3 29.6769 L2579.3 39.9662 L2570.75 39.9662 L2570.75 29.6769 Z" fill="#000000" fill-rule="nonzero" fill-opacity="1" /><path clip-path="url(#clip100)" d="M2658.49 35.9153 Q2661.29 30.8922 2665.18 28.5022 Q2669.06 26.1121 2674.33 26.1121 Q2681.42 26.1121 2685.27 31.0947 Q2689.12 36.0368 2689.12 45.1919 L2689.12 72.576 L2681.62 72.576 L2681.62 45.4349 Q2681.62 38.913 2679.31 35.7533 Q2677 32.5936 2672.26 32.5936 Q2666.47 32.5936 2663.11 36.4419 Q2659.75 40.2903 2659.75 46.9338 L2659.75 72.576 L2652.25 72.576 L2652.25 45.4349 Q2652.25 38.8725 2649.94 35.7533 Q2647.63 32.5936 2642.81 32.5936 Q2637.1 32.5936 2633.74 36.4824 Q2630.38 40.3308 2630.38 46.9338 L2630.38 72.576 L2622.88 72.576 L2622.88 27.2059 L2630.38 27.2059 L2630.38 34.2544 Q2632.93 30.082 2636.49 28.0971 Q2640.06 26.1121 2644.96 26.1121 Q2649.9 26.1121 2653.35 28.6237 Q2656.83 31.1352 2658.49 35.9153 Z" fill="#000000" fill-rule="nonzero" fill-opacity="1" /><path clip-path="url(#clip100)" d="M2721.56 32.4315 Q2715.57 32.4315 2712.08 37.1306 Q2708.6 41.7891 2708.6 49.9314 Q2708.6 58.0738 2712.04 62.7728 Q2715.53 67.4314 2721.56 67.4314 Q2727.52 67.4314 2731 62.7323 Q2734.49 58.0333 2734.49 49.9314 Q2734.49 41.8701 2731 37.1711 Q2727.52 32.4315 2721.56 32.4315 M2721.56 26.1121 Q2731.29 26.1121 2736.84 32.4315 Q2742.39 38.7509 2742.39 49.9314 Q2742.39 61.0714 2736.84 67.4314 Q2731.29 73.7508 2721.56 73.7508 Q2711.8 73.7508 2706.25 67.4314 Q2700.74 61.0714 2700.74 49.9314 Q2700.74 38.7509 2706.25 32.4315 Q2711.8 26.1121 2721.56 26.1121 Z" fill="#000000" fill-rule="nonzero" fill-opacity="1" /><path clip-path="url(#clip100)" d="M2762.11 14.324 L2762.11 27.2059 L2777.47 27.2059 L2777.47 32.9987 L2762.11 32.9987 L2762.11 57.6282 Q2762.11 63.1779 2763.61 64.7578 Q2765.15 66.3376 2769.81 66.3376 L2777.47 66.3376 L2777.47 72.576 L2769.81 72.576 Q2761.18 72.576 2757.9 69.3758 Q2754.62 66.1351 2754.62 57.6282 L2754.62 32.9987 L2749.15 32.9987 L2749.15 27.2059 L2754.62 27.2059 L2754.62 14.324 L2762.11 14.324 Z" fill="#000000" fill-rule="nonzero" fill-opacity="1" /><path clip-path="url(#clip100)" d="M2787.27 27.2059 L2794.72 27.2059 L2794.72 72.576 L2787.27 72.576 L2787.27 27.2059 M2787.27 9.54393 L2794.72 9.54393 L2794.72 18.9825 L2787.27 18.9825 L2787.27 9.54393 Z" fill="#000000" fill-rule="nonzero" fill-opacity="1" /><path clip-path="url(#clip100)" d="M2804.97 27.2059 L2812.87 27.2059 L2827.05 65.2844 L2841.23 27.2059 L2849.13 27.2059 L2832.11 72.576 L2821.99 72.576 L2804.97 27.2059 Z" fill="#000000" fill-rule="nonzero" fill-opacity="1" /><path clip-path="url(#clip100)" d="M2880.04 49.7694 Q2871 49.7694 2867.52 51.8354 Q2864.03 53.9013 2864.03 58.8839 Q2864.03 62.8538 2866.63 65.2034 Q2869.26 67.5124 2873.76 67.5124 Q2879.95 67.5124 2883.68 63.1374 Q2887.45 58.7219 2887.45 51.4303 L2887.45 49.7694 L2880.04 49.7694 M2894.9 46.6907 L2894.9 72.576 L2887.45 72.576 L2887.45 65.6895 Q2884.9 69.8214 2881.09 71.8063 Q2877.28 73.7508 2871.77 73.7508 Q2864.8 73.7508 2860.67 69.8619 Q2856.58 65.9325 2856.58 59.3701 Q2856.58 51.7138 2861.68 47.825 Q2866.83 43.9361 2877 43.9361 L2887.45 43.9361 L2887.45 43.2069 Q2887.45 38.0623 2884.05 35.2672 Q2880.68 32.4315 2874.57 32.4315 Q2870.68 32.4315 2866.99 33.3632 Q2863.3 34.295 2859.9 36.1584 L2859.9 29.2718 Q2863.99 27.692 2867.84 26.9223 Q2871.69 26.1121 2875.34 26.1121 Q2885.18 26.1121 2890.04 31.2163 Q2894.9 36.3204 2894.9 46.6907 Z" fill="#000000" fill-rule="nonzero" fill-opacity="1" /><path clip-path="url(#clip100)" d="M2917.63 14.324 L2917.63 27.2059 L2932.98 27.2059 L2932.98 32.9987 L2917.63 32.9987 L2917.63 57.6282 Q2917.63 63.1779 2919.13 64.7578 Q2920.67 66.3376 2925.32 66.3376 L2932.98 66.3376 L2932.98 72.576 L2925.32 72.576 Q2916.7 72.576 2913.41 69.3758 Q2910.13 66.1351 2910.13 57.6282 L2910.13 32.9987 L2904.66 32.9987 L2904.66 27.2059 L2910.13 27.2059 L2910.13 14.324 L2917.63 14.324 Z" fill="#000000" fill-rule="nonzero" fill-opacity="1" /><path clip-path="url(#clip100)" d="M2942.78 27.2059 L2950.24 27.2059 L2950.24 72.576 L2942.78 72.576 L2942.78 27.2059 M2942.78 9.54393 L2950.24 9.54393 L2950.24 18.9825 L2942.78 18.9825 L2942.78 9.54393 Z" fill="#000000" fill-rule="nonzero" fill-opacity="1" /><path clip-path="url(#clip100)" d="M2983.41 32.4315 Q2977.42 32.4315 2973.94 37.1306 Q2970.45 41.7891 2970.45 49.9314 Q2970.45 58.0738 2973.89 62.7728 Q2977.38 67.4314 2983.41 67.4314 Q2989.37 67.4314 2992.85 62.7323 Q2996.34 58.0333 2996.34 49.9314 Q2996.34 41.8701 2992.85 37.1711 Q2989.37 32.4315 2983.41 32.4315 M2983.41 26.1121 Q2993.14 26.1121 2998.69 32.4315 Q3004.24 38.7509 3004.24 49.9314 Q3004.24 61.0714 2998.69 67.4314 Q2993.14 73.7508 2983.41 73.7508 Q2973.65 73.7508 2968.1 67.4314 Q2962.59 61.0714 2962.59 49.9314 Q2962.59 38.7509 2968.1 32.4315 Q2973.65 26.1121 2983.41 26.1121 Z" fill="#000000" fill-rule="nonzero" fill-opacity="1" /><path clip-path="url(#clip100)" d="M3054.31 45.1919 L3054.31 72.576 L3046.85 72.576 L3046.85 45.4349 Q3046.85 38.994 3044.34 35.7938 Q3041.83 32.5936 3036.81 32.5936 Q3030.77 32.5936 3027.29 36.4419 Q3023.8 40.2903 3023.8 46.9338 L3023.8 72.576 L3016.31 72.576 L3016.31 27.2059 L3023.8 27.2059 L3023.8 34.2544 Q3026.48 30.163 3030.08 28.1376 Q3033.73 26.1121 3038.47 26.1121 Q3046.28 26.1121 3050.29 30.9732 Q3054.31 35.7938 3054.31 45.1919 Z" fill="#000000" fill-rule="nonzero" fill-opacity="1" /><path clip-path="url(#clip100)" d="M3103.65 86.3491 L3103.65 92.1419 L3060.54 92.1419 L3060.54 86.3491 L3103.65 86.3491 Z" fill="#000000" fill-rule="nonzero" fill-opacity="1" /><path clip-path="url(#clip100)" d="M3143.3 28.9478 L3143.3 35.9153 Q3140.14 34.1734 3136.94 33.3227 Q3133.78 32.4315 3130.54 32.4315 Q3123.29 32.4315 3119.28 37.0496 Q3115.27 41.6271 3115.27 49.9314 Q3115.27 58.2358 3119.28 62.8538 Q3123.29 67.4314 3130.54 67.4314 Q3133.78 67.4314 3136.94 66.5807 Q3140.14 65.6895 3143.3 63.9476 L3143.3 70.8341 Q3140.18 72.2924 3136.82 73.0216 Q3133.5 73.7508 3129.73 73.7508 Q3119.48 73.7508 3113.45 67.3098 Q3107.41 60.8689 3107.41 49.9314 Q3107.41 38.832 3113.49 32.472 Q3119.61 26.1121 3130.22 26.1121 Q3133.66 26.1121 3136.94 26.8413 Q3140.22 27.5299 3143.3 28.9478 Z" fill="#000000" fill-rule="nonzero" fill-opacity="1" /><path clip-path="url(#clip102)" d="M574.802 1992.94 L574.802 1992.94 L703.208 1992.94 L703.208 1992.94 L574.802 1992.94 L574.802 1992.94  Z" fill="#ffa500" fill-rule="evenodd" fill-opacity="1"/>
<polyline clip-path="url(#clip102)" style="stroke:#000000; stroke-linecap:round; stroke-linejoin:round; stroke-width:4; stroke-opacity:1; fill:none" points="574.802,1992.94 574.802,1992.94 703.208,1992.94 703.208,1992.94 574.802,1992.94 "/>
<path clip-path="url(#clip102)" d="M931.486 171.344 L931.486 1992.94 L1059.89 1992.94 L1059.89 171.344 L931.486 171.344 L931.486 171.344  Z" fill="#ffa500" fill-rule="evenodd" fill-opacity="1"/>
<polyline clip-path="url(#clip102)" style="stroke:#000000; stroke-linecap:round; stroke-linejoin:round; stroke-width:4; stroke-opacity:1; fill:none" points="931.486,171.344 931.486,1992.94 1059.89,1992.94 1059.89,171.344 931.486,171.344 "/>
<path clip-path="url(#clip102)" d="M1288.17 1936.77 L1288.17 1992.94 L1416.58 1992.94 L1416.58 1936.77 L1288.17 1936.77 L1288.17 1936.77  Z" fill="#ffa500" fill-rule="evenodd" fill-opacity="1"/>
<polyline clip-path="url(#clip102)" style="stroke:#000000; stroke-linecap:round; stroke-linejoin:round; stroke-width:4; stroke-opacity:1; fill:none" points="1288.17,1936.77 1288.17,1992.94 1416.58,1992.94 1416.58,1936.77 1288.17,1936.77 "/>
<path clip-path="url(#clip102)" d="M1644.85 171.344 L1644.85 1992.94 L1773.26 1992.94 L1773.26 171.344 L1644.85 171.344 L1644.85 171.344  Z" fill="#ffa500" fill-rule="evenodd" fill-opacity="1"/>
<polyline clip-path="url(#clip102)" style="stroke:#000000; stroke-linecap:round; stroke-linejoin:round; stroke-width:4; stroke-opacity:1; fill:none" points="1644.85,171.344 1644.85,1992.94 1773.26,1992.94 1773.26,171.344 1644.85,171.344 "/>
<path clip-path="url(#clip102)" d="M2001.54 1734.9 L2001.54 1992.94 L2129.95 1992.94 L2129.95 1734.9 L2001.54 1734.9 L2001.54 1734.9  Z" fill="#ffa500" fill-rule="evenodd" fill-opacity="1"/>
<polyline clip-path="url(#clip102)" style="stroke:#000000; stroke-linecap:round; stroke-linejoin:round; stroke-width:4; stroke-opacity:1; fill:none" points="2001.54,1734.9 2001.54,1992.94 2129.95,1992.94 2129.95,1734.9 2001.54,1734.9 "/>
<path clip-path="url(#clip102)" d="M2358.22 958.047 L2358.22 1992.94 L2486.63 1992.94 L2486.63 958.047 L2358.22 958.047 L2358.22 958.047  Z" fill="#ffa500" fill-rule="evenodd" fill-opacity="1"/>
<polyline clip-path="url(#clip102)" style="stroke:#000000; stroke-linecap:round; stroke-linejoin:round; stroke-width:4; stroke-opacity:1; fill:none" points="2358.22,958.047 2358.22,1992.94 2486.63,1992.94 2486.63,958.047 2358.22,958.047 "/>
<path clip-path="url(#clip102)" d="M2714.91 171.344 L2714.91 1992.94 L2843.31 1992.94 L2843.31 171.344 L2714.91 171.344 L2714.91 171.344  Z" fill="#ffa500" fill-rule="evenodd" fill-opacity="1"/>
<polyline clip-path="url(#clip102)" style="stroke:#000000; stroke-linecap:round; stroke-linejoin:round; stroke-width:4; stroke-opacity:1; fill:none" points="2714.91,171.344 2714.91,1992.94 2843.31,1992.94 2843.31,171.344 2714.91,171.344 "/>
<path clip-path="url(#clip102)" d="M3071.59 1992.94 L3071.59 1992.94 L3200 1992.94 L3200 1992.94 L3071.59 1992.94 L3071.59 1992.94  Z" fill="#ffa500" fill-rule="evenodd" fill-opacity="1"/>
<polyline clip-path="url(#clip102)" style="stroke:#000000; stroke-linecap:round; stroke-linejoin:round; stroke-width:4; stroke-opacity:1; fill:none" points="3071.59,1992.94 3071.59,1992.94 3200,1992.94 3200,1992.94 3071.59,1992.94 "/>
<path clip-path="url(#clip102)" d="M3428.28 171.344 L3428.28 1992.94 L3556.68 1992.94 L3556.68 171.344 L3428.28 171.344 L3428.28 171.344  Z" fill="#ffa500" fill-rule="evenodd" fill-opacity="1"/>
<polyline clip-path="url(#clip102)" style="stroke:#000000; stroke-linecap:round; stroke-linejoin:round; stroke-width:4; stroke-opacity:1; fill:none" points="3428.28,171.344 3428.28,1992.94 3556.68,1992.94 3556.68,171.344 3428.28,171.344 "/>
<circle clip-path="url(#clip102)" style="fill:#ffa500; stroke:none; fill-opacity:0" cx="639.005" cy="1992.94" r="2"/>
<circle clip-path="url(#clip102)" style="fill:#ffa500; stroke:none; fill-opacity:0" cx="995.689" cy="171.344" r="2"/>
<circle clip-path="url(#clip102)" style="fill:#ffa500; stroke:none; fill-opacity:0" cx="1352.37" cy="1936.77" r="2"/>
<circle clip-path="url(#clip102)" style="fill:#ffa500; stroke:none; fill-opacity:0" cx="1709.06" cy="171.344" r="2"/>
<circle clip-path="url(#clip102)" style="fill:#ffa500; stroke:none; fill-opacity:0" cx="2065.74" cy="1734.9" r="2"/>
<circle clip-path="url(#clip102)" style="fill:#ffa500; stroke:none; fill-opacity:0" cx="2422.43" cy="958.047" r="2"/>
<circle clip-path="url(#clip102)" style="fill:#ffa500; stroke:none; fill-opacity:0" cx="2779.11" cy="171.344" r="2"/>
<circle clip-path="url(#clip102)" style="fill:#ffa500; stroke:none; fill-opacity:0" cx="3135.8" cy="1992.94" r="2"/>
<circle clip-path="url(#clip102)" style="fill:#ffa500; stroke:none; fill-opacity:0" cx="3492.48" cy="171.344" r="2"/>
<path clip-path="url(#clip102)" d="M717.476 1000.3 L717.476 1992.94 L845.882 1992.94 L845.882 1000.3 L717.476 1000.3 L717.476 1000.3  Z" fill="#800080" fill-rule="evenodd" fill-opacity="1"/>
<polyline clip-path="url(#clip102)" style="stroke:#000000; stroke-linecap:round; stroke-linejoin:round; stroke-width:4; stroke-opacity:1; fill:none" points="717.476,1000.3 717.476,1992.94 845.882,1992.94 845.882,1000.3 717.476,1000.3 "/>
<path clip-path="url(#clip102)" d="M1074.16 1992.94 L1074.16 1992.94 L1202.57 1992.94 L1202.57 1992.94 L1074.16 1992.94 L1074.16 1992.94  Z" fill="#800080" fill-rule="evenodd" fill-opacity="1"/>
<polyline clip-path="url(#clip102)" style="stroke:#000000; stroke-linecap:round; stroke-linejoin:round; stroke-width:4; stroke-opacity:1; fill:none" points="1074.16,1992.94 1074.16,1992.94 1202.57,1992.94 1202.57,1992.94 1074.16,1992.94 "/>
<path clip-path="url(#clip102)" d="M1430.84 1992.94 L1430.84 1992.94 L1559.25 1992.94 L1559.25 1992.94 L1430.84 1992.94 L1430.84 1992.94  Z" fill="#800080" fill-rule="evenodd" fill-opacity="1"/>
<polyline clip-path="url(#clip102)" style="stroke:#000000; stroke-linecap:round; stroke-linejoin:round; stroke-width:4; stroke-opacity:1; fill:none" points="1430.84,1992.94 1430.84,1992.94 1559.25,1992.94 1559.25,1992.94 1430.84,1992.94 "/>
<path clip-path="url(#clip102)" d="M1787.53 932 L1787.53 1992.94 L1915.93 1992.94 L1915.93 932 L1787.53 932 L1787.53 932  Z" fill="#800080" fill-rule="evenodd" fill-opacity="1"/>
<polyline clip-path="url(#clip102)" style="stroke:#000000; stroke-linecap:round; stroke-linejoin:round; stroke-width:4; stroke-opacity:1; fill:none" points="1787.53,932 1787.53,1992.94 1915.93,1992.94 1915.93,932 1787.53,932 "/>
<path clip-path="url(#clip102)" d="M2144.21 1166.05 L2144.21 1992.94 L2272.62 1992.94 L2272.62 1166.05 L2144.21 1166.05 L2144.21 1166.05  Z" fill="#800080" fill-rule="evenodd" fill-opacity="1"/>
<polyline clip-path="url(#clip102)" style="stroke:#000000; stroke-linecap:round; stroke-linejoin:round; stroke-width:4; stroke-opacity:1; fill:none" points="2144.21,1166.05 2144.21,1992.94 2272.62,1992.94 2272.62,1166.05 2144.21,1166.05 "/>
<path clip-path="url(#clip102)" d="M2500.9 1992.94 L2500.9 1992.94 L2629.3 1992.94 L2629.3 1992.94 L2500.9 1992.94 L2500.9 1992.94  Z" fill="#800080" fill-rule="evenodd" fill-opacity="1"/>
<polyline clip-path="url(#clip102)" style="stroke:#000000; stroke-linecap:round; stroke-linejoin:round; stroke-width:4; stroke-opacity:1; fill:none" points="2500.9,1992.94 2500.9,1992.94 2629.3,1992.94 2629.3,1992.94 2500.9,1992.94 "/>
<path clip-path="url(#clip102)" d="M2857.58 171.344 L2857.58 1992.94 L2985.99 1992.94 L2985.99 171.344 L2857.58 171.344 L2857.58 171.344  Z" fill="#800080" fill-rule="evenodd" fill-opacity="1"/>
<polyline clip-path="url(#clip102)" style="stroke:#000000; stroke-linecap:round; stroke-linejoin:round; stroke-width:4; stroke-opacity:1; fill:none" points="2857.58,171.344 2857.58,1992.94 2985.99,1992.94 2985.99,171.344 2857.58,171.344 "/>
<path clip-path="url(#clip102)" d="M3214.27 1992.94 L3214.27 1992.94 L3342.67 1992.94 L3342.67 1992.94 L3214.27 1992.94 L3214.27 1992.94  Z" fill="#800080" fill-rule="evenodd" fill-opacity="1"/>
<polyline clip-path="url(#clip102)" style="stroke:#000000; stroke-linecap:round; stroke-linejoin:round; stroke-width:4; stroke-opacity:1; fill:none" points="3214.27,1992.94 3214.27,1992.94 3342.67,1992.94 3342.67,1992.94 3214.27,1992.94 "/>
<path clip-path="url(#clip102)" d="M3570.95 1992.94 L3570.95 1992.94 L3699.36 1992.94 L3699.36 1992.94 L3570.95 1992.94 L3570.95 1992.94  Z" fill="#800080" fill-rule="evenodd" fill-opacity="1"/>
<polyline clip-path="url(#clip102)" style="stroke:#000000; stroke-linecap:round; stroke-linejoin:round; stroke-width:4; stroke-opacity:1; fill:none" points="3570.95,1992.94 3570.95,1992.94 3699.36,1992.94 3699.36,1992.94 3570.95,1992.94 "/>
<circle clip-path="url(#clip102)" style="fill:#800080; stroke:none; fill-opacity:0" cx="781.679" cy="1000.3" r="2"/>
<circle clip-path="url(#clip102)" style="fill:#800080; stroke:none; fill-opacity:0" cx="1138.36" cy="1992.94" r="2"/>
<circle clip-path="url(#clip102)" style="fill:#800080; stroke:none; fill-opacity:0" cx="1495.05" cy="1992.94" r="2"/>
<circle clip-path="url(#clip102)" style="fill:#800080; stroke:none; fill-opacity:0" cx="1851.73" cy="932" r="2"/>
<circle clip-path="url(#clip102)" style="fill:#800080; stroke:none; fill-opacity:0" cx="2208.42" cy="1166.05" r="2"/>
<circle clip-path="url(#clip102)" style="fill:#800080; stroke:none; fill-opacity:0" cx="2565.1" cy="1992.94" r="2"/>
<circle clip-path="url(#clip102)" style="fill:#800080; stroke:none; fill-opacity:0" cx="2921.78" cy="171.344" r="2"/>
<circle clip-path="url(#clip102)" style="fill:#800080; stroke:none; fill-opacity:0" cx="3278.47" cy="1992.94" r="2"/>
<circle clip-path="url(#clip102)" style="fill:#800080; stroke:none; fill-opacity:0" cx="3635.15" cy="1992.94" r="2"/>
<path clip-path="url(#clip100)" d="M4033.47 387.584 L4752.76 387.584 L4752.76 232.064 L4033.47 232.064  Z" fill="#ffffff" fill-rule="evenodd" fill-opacity="1"/>
<polyline clip-path="url(#clip100)" style="stroke:#000000; stroke-linecap:round; stroke-linejoin:round; stroke-width:4; stroke-opacity:1; fill:none" points="4033.47,387.584 4752.76,387.584 4752.76,232.064 4033.47,232.064 4033.47,387.584 "/>
<path clip-path="url(#clip100)" d="M4081.98 304.64 L4373.08 304.64 L4373.08 263.168 L4081.98 263.168 L4081.98 304.64  Z" fill="#ffa500" fill-rule="evenodd" fill-opacity="1"/>
<polyline clip-path="url(#clip100)" style="stroke:#000000; stroke-linecap:round; stroke-linejoin:round; stroke-width:4; stroke-opacity:1; fill:none" points="4081.98,304.64 4373.08,304.64 4373.08,263.168 4081.98,263.168 4081.98,304.64 "/>
<path clip-path="url(#clip100)" d="M4421.6 266.624 L4443.45 266.624 L4443.45 270.559 L4426.28 270.559 L4426.28 280.791 L4442.74 280.791 L4442.74 284.726 L4426.28 284.726 L4426.28 297.249 L4443.87 297.249 L4443.87 301.184 L4421.6 301.184 L4421.6 266.624 Z" fill="#000000" fill-rule="nonzero" fill-opacity="1" /><path clip-path="url(#clip100)" d="M4453.92 288.244 Q4453.92 292.943 4455.84 295.629 Q4457.78 298.291 4461.16 298.291 Q4464.54 298.291 4466.49 295.629 Q4468.43 292.943 4468.43 288.244 Q4468.43 283.545 4466.49 280.883 Q4464.54 278.198 4461.16 278.198 Q4457.78 278.198 4455.84 280.883 Q4453.92 283.545 4453.92 288.244 M4468.43 297.295 Q4467.09 299.61 4465.03 300.744 Q4462.99 301.855 4460.12 301.855 Q4455.42 301.855 4452.46 298.105 Q4449.52 294.355 4449.52 288.244 Q4449.52 282.133 4452.46 278.383 Q4455.42 274.633 4460.12 274.633 Q4462.99 274.633 4465.03 275.768 Q4467.09 276.879 4468.43 279.193 L4468.43 275.258 L4472.69 275.258 L4472.69 311.045 L4468.43 311.045 L4468.43 297.295 Z" fill="#000000" fill-rule="nonzero" fill-opacity="1" /><path clip-path="url(#clip100)" d="M4481.02 290.953 L4481.02 275.258 L4485.28 275.258 L4485.28 290.791 Q4485.28 294.471 4486.72 296.323 Q4488.15 298.152 4491.02 298.152 Q4494.47 298.152 4496.46 295.953 Q4498.48 293.754 4498.48 289.957 L4498.48 275.258 L4502.74 275.258 L4502.74 301.184 L4498.48 301.184 L4498.48 297.203 Q4496.93 299.564 4494.87 300.721 Q4492.83 301.855 4490.12 301.855 Q4485.65 301.855 4483.34 299.078 Q4481.02 296.3 4481.02 290.953 M4491.74 274.633 L4491.74 274.633 Z" fill="#000000" fill-rule="nonzero" fill-opacity="1" /><path clip-path="url(#clip100)" d="M4523.29 288.152 Q4518.13 288.152 4516.14 289.332 Q4514.15 290.513 4514.15 293.36 Q4514.15 295.629 4515.63 296.971 Q4517.13 298.291 4519.7 298.291 Q4523.24 298.291 4525.37 295.791 Q4527.53 293.267 4527.53 289.101 L4527.53 288.152 L4523.29 288.152 M4531.79 286.392 L4531.79 301.184 L4527.53 301.184 L4527.53 297.249 Q4526.07 299.61 4523.89 300.744 Q4521.72 301.855 4518.57 301.855 Q4514.59 301.855 4512.23 299.633 Q4509.89 297.388 4509.89 293.638 Q4509.89 289.263 4512.8 287.041 Q4515.74 284.818 4521.55 284.818 L4527.53 284.818 L4527.53 284.402 Q4527.53 281.462 4525.58 279.865 Q4523.66 278.244 4520.17 278.244 Q4517.94 278.244 4515.84 278.777 Q4513.73 279.309 4511.79 280.374 L4511.79 276.439 Q4514.12 275.536 4516.32 275.096 Q4518.52 274.633 4520.61 274.633 Q4526.23 274.633 4529.01 277.55 Q4531.79 280.467 4531.79 286.392 Z" fill="#000000" fill-rule="nonzero" fill-opacity="1" /><path clip-path="url(#clip100)" d="M4540.56 265.166 L4544.82 265.166 L4544.82 301.184 L4540.56 301.184 L4540.56 265.166 Z" fill="#000000" fill-rule="nonzero" fill-opacity="1" /><path clip-path="url(#clip100)" d="M4553.73 275.258 L4557.99 275.258 L4557.99 301.184 L4553.73 301.184 L4553.73 275.258 M4553.73 265.166 L4557.99 265.166 L4557.99 270.559 L4553.73 270.559 L4553.73 265.166 Z" fill="#000000" fill-rule="nonzero" fill-opacity="1" /><path clip-path="url(#clip100)" d="M4571.11 267.897 L4571.11 275.258 L4579.89 275.258 L4579.89 278.568 L4571.11 278.568 L4571.11 292.642 Q4571.11 295.814 4571.97 296.717 Q4572.85 297.619 4575.51 297.619 L4579.89 297.619 L4579.89 301.184 L4575.51 301.184 Q4570.58 301.184 4568.71 299.355 Q4566.83 297.504 4566.83 292.642 L4566.83 278.568 L4563.71 278.568 L4563.71 275.258 L4566.83 275.258 L4566.83 267.897 L4571.11 267.897 Z" fill="#000000" fill-rule="nonzero" fill-opacity="1" /><path clip-path="url(#clip100)" d="M4596.28 303.591 Q4594.47 308.221 4592.76 309.633 Q4591.05 311.045 4588.17 311.045 L4584.77 311.045 L4584.77 307.48 L4587.27 307.48 Q4589.03 307.48 4590 306.647 Q4590.98 305.814 4592.16 302.712 L4592.92 300.767 L4582.43 275.258 L4586.95 275.258 L4595.05 295.536 L4603.15 275.258 L4607.67 275.258 L4596.28 303.591 Z" fill="#000000" fill-rule="nonzero" fill-opacity="1" /><path clip-path="url(#clip100)" d="M4628.8 266.624 L4635.77 266.624 L4644.59 290.142 L4653.45 266.624 L4660.42 266.624 L4660.42 301.184 L4655.86 301.184 L4655.86 270.837 L4646.95 294.541 L4642.25 294.541 L4633.34 270.837 L4633.34 301.184 L4628.8 301.184 L4628.8 266.624 Z" fill="#000000" fill-rule="nonzero" fill-opacity="1" /><path clip-path="url(#clip100)" d="M4669.52 275.258 L4673.78 275.258 L4673.78 301.184 L4669.52 301.184 L4669.52 275.258 M4669.52 265.166 L4673.78 265.166 L4673.78 270.559 L4669.52 270.559 L4669.52 265.166 Z" fill="#000000" fill-rule="nonzero" fill-opacity="1" /><path clip-path="url(#clip100)" d="M4704.24 285.536 L4704.24 301.184 L4699.98 301.184 L4699.98 285.675 Q4699.98 281.994 4698.54 280.166 Q4697.11 278.337 4694.24 278.337 Q4690.79 278.337 4688.8 280.536 Q4686.81 282.735 4686.81 286.531 L4686.81 301.184 L4682.53 301.184 L4682.53 275.258 L4686.81 275.258 L4686.81 279.286 Q4688.34 276.948 4690.4 275.791 Q4692.48 274.633 4695.19 274.633 Q4699.66 274.633 4701.95 277.411 Q4704.24 280.166 4704.24 285.536 Z" fill="#000000" fill-rule="nonzero" fill-opacity="1" /><path clip-path="url(#clip100)" d="M4081.98 356.48 L4373.08 356.48 L4373.08 315.008 L4081.98 315.008 L4081.98 356.48  Z" fill="#800080" fill-rule="evenodd" fill-opacity="1"/>
<polyline clip-path="url(#clip100)" style="stroke:#000000; stroke-linecap:round; stroke-linejoin:round; stroke-width:4; stroke-opacity:1; fill:none" points="4081.98,356.48 4373.08,356.48 4373.08,315.008 4081.98,315.008 4081.98,356.48 "/>
<path clip-path="url(#clip100)" d="M4428.71 318.464 L4433.38 318.464 L4433.38 350.617 Q4433.38 356.867 4431 359.691 Q4428.64 362.515 4423.38 362.515 L4421.6 362.515 L4421.6 358.58 L4423.06 358.58 Q4426.16 358.58 4427.44 356.844 Q4428.71 355.107 4428.71 350.617 L4428.71 318.464 Z" fill="#000000" fill-rule="nonzero" fill-opacity="1" /><path clip-path="url(#clip100)" d="M4454.29 339.992 Q4449.12 339.992 4447.13 341.172 Q4445.14 342.353 4445.14 345.2 Q4445.14 347.469 4446.62 348.811 Q4448.13 350.131 4450.7 350.131 Q4454.24 350.131 4456.37 347.631 Q4458.52 345.107 4458.52 340.941 L4458.52 339.992 L4454.29 339.992 M4462.78 338.232 L4462.78 353.024 L4458.52 353.024 L4458.52 349.089 Q4457.06 351.45 4454.89 352.584 Q4452.71 353.695 4449.56 353.695 Q4445.58 353.695 4443.22 351.473 Q4440.88 349.228 4440.88 345.478 Q4440.88 341.103 4443.8 338.881 Q4446.74 336.658 4452.55 336.658 L4458.52 336.658 L4458.52 336.242 Q4458.52 333.302 4456.58 331.705 Q4454.66 330.084 4451.16 330.084 Q4448.94 330.084 4446.83 330.617 Q4444.73 331.149 4442.78 332.214 L4442.78 328.279 Q4445.12 327.376 4447.32 326.936 Q4449.52 326.473 4451.6 326.473 Q4457.23 326.473 4460 329.39 Q4462.78 332.307 4462.78 338.232 Z" fill="#000000" fill-rule="nonzero" fill-opacity="1" /><path clip-path="url(#clip100)" d="M4471.56 327.098 L4475.81 327.098 L4475.81 353.024 L4471.56 353.024 L4471.56 327.098 M4471.56 317.006 L4475.81 317.006 L4475.81 322.399 L4471.56 322.399 L4471.56 317.006 Z" fill="#000000" fill-rule="nonzero" fill-opacity="1" /><path clip-path="url(#clip100)" d="M4506.28 337.376 L4506.28 353.024 L4502.02 353.024 L4502.02 337.515 Q4502.02 333.834 4500.58 332.006 Q4499.15 330.177 4496.28 330.177 Q4492.83 330.177 4490.84 332.376 Q4488.85 334.575 4488.85 338.371 L4488.85 353.024 L4484.56 353.024 L4484.56 327.098 L4488.85 327.098 L4488.85 331.126 Q4490.37 328.788 4492.43 327.631 Q4494.52 326.473 4497.23 326.473 Q4501.69 326.473 4503.99 329.251 Q4506.28 332.006 4506.28 337.376 Z" fill="#000000" fill-rule="nonzero" fill-opacity="1" /><path clip-path="url(#clip100)" d="M4518.8 318.464 L4518.8 331.311 L4514.87 331.311 L4514.87 318.464 L4518.8 318.464 Z" fill="#000000" fill-rule="nonzero" fill-opacity="1" /><path clip-path="url(#clip100)" d="M4544.33 327.862 L4544.33 331.89 Q4542.53 330.964 4540.58 330.501 Q4538.64 330.038 4536.55 330.038 Q4533.38 330.038 4531.79 331.01 Q4530.21 331.983 4530.21 333.927 Q4530.21 335.408 4531.35 336.265 Q4532.48 337.098 4535.91 337.862 L4537.36 338.186 Q4541.9 339.158 4543.8 340.941 Q4545.72 342.7 4545.72 345.871 Q4545.72 349.482 4542.85 351.589 Q4540 353.695 4535 353.695 Q4532.92 353.695 4530.65 353.279 Q4528.41 352.885 4525.91 352.075 L4525.91 347.677 Q4528.27 348.904 4530.56 349.529 Q4532.85 350.131 4535.1 350.131 Q4538.11 350.131 4539.73 349.112 Q4541.35 348.07 4541.35 346.195 Q4541.35 344.459 4540.17 343.533 Q4539.01 342.607 4535.05 341.751 L4533.57 341.404 Q4529.61 340.57 4527.85 338.857 Q4526.09 337.121 4526.09 334.112 Q4526.09 330.455 4528.68 328.464 Q4531.28 326.473 4536.05 326.473 Q4538.41 326.473 4540.49 326.821 Q4542.57 327.168 4544.33 327.862 Z" fill="#000000" fill-rule="nonzero" fill-opacity="1" /><path clip-path="url(#clip100)" d="M4567.76 318.464 L4572.43 318.464 L4572.43 353.024 L4567.76 353.024 L4567.76 318.464 Z" fill="#000000" fill-rule="nonzero" fill-opacity="1" /><path clip-path="url(#clip100)" d="M4603.11 337.376 L4603.11 353.024 L4598.85 353.024 L4598.85 337.515 Q4598.85 333.834 4597.41 332.006 Q4595.98 330.177 4593.11 330.177 Q4589.66 330.177 4587.67 332.376 Q4585.67 334.575 4585.67 338.371 L4585.67 353.024 L4581.39 353.024 L4581.39 327.098 L4585.67 327.098 L4585.67 331.126 Q4587.2 328.788 4589.26 327.631 Q4591.35 326.473 4594.05 326.473 Q4598.52 326.473 4600.81 329.251 Q4603.11 332.006 4603.11 337.376 Z" fill="#000000" fill-rule="nonzero" fill-opacity="1" /><path clip-path="url(#clip100)" d="M4628.66 331.033 L4628.66 317.006 L4632.92 317.006 L4632.92 353.024 L4628.66 353.024 L4628.66 349.135 Q4627.32 351.45 4625.26 352.584 Q4623.22 353.695 4620.35 353.695 Q4615.65 353.695 4612.69 349.945 Q4609.75 346.195 4609.75 340.084 Q4609.75 333.973 4612.69 330.223 Q4615.65 326.473 4620.35 326.473 Q4623.22 326.473 4625.26 327.608 Q4627.32 328.719 4628.66 331.033 M4614.15 340.084 Q4614.15 344.783 4616.07 347.469 Q4618.01 350.131 4621.39 350.131 Q4624.77 350.131 4626.72 347.469 Q4628.66 344.783 4628.66 340.084 Q4628.66 335.385 4626.72 332.723 Q4624.77 330.038 4621.39 330.038 Q4618.01 330.038 4616.07 332.723 Q4614.15 335.385 4614.15 340.084 Z" fill="#000000" fill-rule="nonzero" fill-opacity="1" /><path clip-path="url(#clip100)" d="M4663.87 338.996 L4663.87 341.08 L4644.29 341.08 Q4644.56 345.478 4646.92 347.793 Q4649.31 350.084 4653.54 350.084 Q4656 350.084 4658.29 349.482 Q4660.61 348.881 4662.87 347.677 L4662.87 351.705 Q4660.58 352.677 4658.17 353.186 Q4655.77 353.695 4653.29 353.695 Q4647.09 353.695 4643.45 350.084 Q4639.84 346.473 4639.84 340.316 Q4639.84 333.95 4643.27 330.223 Q4646.72 326.473 4652.55 326.473 Q4657.78 326.473 4660.81 329.853 Q4663.87 333.209 4663.87 338.996 M4659.61 337.746 Q4659.56 334.251 4657.64 332.168 Q4655.74 330.084 4652.6 330.084 Q4649.03 330.084 4646.88 332.098 Q4644.75 334.112 4644.42 337.77 L4659.61 337.746 Z" fill="#000000" fill-rule="nonzero" fill-opacity="1" /><path clip-path="url(#clip100)" d="M4691.58 327.098 L4682.2 339.714 L4692.06 353.024 L4687.04 353.024 L4679.49 342.839 L4671.95 353.024 L4666.92 353.024 L4676.99 339.459 L4667.78 327.098 L4672.8 327.098 L4679.68 336.334 L4686.55 327.098 L4691.58 327.098 Z" fill="#000000" fill-rule="nonzero" fill-opacity="1" /></svg>
