<?xml version="1.0" encoding="utf-8"?>
<svg xmlns="http://www.w3.org/2000/svg" xmlns:xlink="http://www.w3.org/1999/xlink" width="600" height="400" viewBox="0 0 2400 1600">
<defs>
  <clipPath id="clip760">
    <rect x="0" y="0" width="2400" height="1600"/>
  </clipPath>
</defs>
<path clip-path="url(#clip760)" d="M0 1600 L2400 1600 L2400 0 L0 0  Z" fill="#ffffff" fill-rule="evenodd" fill-opacity="1"/>
<defs>
  <clipPath id="clip761">
    <rect x="480" y="0" width="1681" height="1600"/>
  </clipPath>
</defs>
<path clip-path="url(#clip760)" d="M174.149 1423.18 L2352.76 1423.18 L2352.76 123.472 L174.149 123.472  Z" fill="#ffffff" fill-rule="evenodd" fill-opacity="1"/>
<defs>
  <clipPath id="clip762">
    <rect x="174" y="123" width="2180" height="1301"/>
  </clipPath>
</defs>
<polyline clip-path="url(#clip762)" style="stroke:#000000; stroke-linecap:round; stroke-linejoin:round; stroke-width:2; stroke-opacity:0.1; fill:none" points="215.37,1423.18 215.37,123.472 "/>
<polyline clip-path="url(#clip762)" style="stroke:#000000; stroke-linecap:round; stroke-linejoin:round; stroke-width:2; stroke-opacity:0.1; fill:none" points="870.422,1423.18 870.422,123.472 "/>
<polyline clip-path="url(#clip762)" style="stroke:#000000; stroke-linecap:round; stroke-linejoin:round; stroke-width:2; stroke-opacity:0.1; fill:none" points="1525.47,1423.18 1525.47,123.472 "/>
<polyline clip-path="url(#clip762)" style="stroke:#000000; stroke-linecap:round; stroke-linejoin:round; stroke-width:2; stroke-opacity:0.1; fill:none" points="2180.52,1423.18 2180.52,123.472 "/>
<polyline clip-path="url(#clip762)" style="stroke:#000000; stroke-linecap:round; stroke-linejoin:round; stroke-width:2; stroke-opacity:0.1; fill:none" points="174.149,1423.18 2352.76,1423.18 "/>
<polyline clip-path="url(#clip762)" style="stroke:#000000; stroke-linecap:round; stroke-linejoin:round; stroke-width:2; stroke-opacity:0.1; fill:none" points="174.149,1033.2 2352.76,1033.2 "/>
<polyline clip-path="url(#clip762)" style="stroke:#000000; stroke-linecap:round; stroke-linejoin:round; stroke-width:2; stroke-opacity:0.1; fill:none" points="174.149,643.221 2352.76,643.221 "/>
<polyline clip-path="url(#clip762)" style="stroke:#000000; stroke-linecap:round; stroke-linejoin:round; stroke-width:2; stroke-opacity:0.1; fill:none" points="174.149,253.241 2352.76,253.241 "/>
<polyline clip-path="url(#clip760)" style="stroke:#000000; stroke-linecap:round; stroke-linejoin:round; stroke-width:4; stroke-opacity:1; fill:none" points="174.149,1423.18 2352.76,1423.18 "/>
<polyline clip-path="url(#clip760)" style="stroke:#000000; stroke-linecap:round; stroke-linejoin:round; stroke-width:4; stroke-opacity:1; fill:none" points="215.37,1423.18 215.37,1404.28 "/>
<polyline clip-path="url(#clip760)" style="stroke:#000000; stroke-linecap:round; stroke-linejoin:round; stroke-width:4; stroke-opacity:1; fill:none" points="870.422,1423.18 870.422,1404.28 "/>
<polyline clip-path="url(#clip760)" style="stroke:#000000; stroke-linecap:round; stroke-linejoin:round; stroke-width:4; stroke-opacity:1; fill:none" points="1525.47,1423.18 1525.47,1404.28 "/>
<polyline clip-path="url(#clip760)" style="stroke:#000000; stroke-linecap:round; stroke-linejoin:round; stroke-width:4; stroke-opacity:1; fill:none" points="2180.52,1423.18 2180.52,1404.28 "/>
<path clip-path="url(#clip760)" d="M215.37 1454.1 Q211.759 1454.1 209.93 1457.66 Q208.125 1461.2 208.125 1468.33 Q208.125 1475.44 209.93 1479.01 Q211.759 1482.55 215.37 1482.55 Q219.004 1482.55 220.81 1479.01 Q222.638 1475.44 222.638 1468.33 Q222.638 1461.2 220.81 1457.66 Q219.004 1454.1 215.37 1454.1 M215.37 1450.39 Q221.18 1450.39 224.236 1455 Q227.314 1459.58 227.314 1468.33 Q227.314 1477.06 224.236 1481.67 Q221.18 1486.25 215.37 1486.25 Q209.56 1486.25 206.481 1481.67 Q203.426 1477.06 203.426 1468.33 Q203.426 1459.58 206.481 1455 Q209.56 1450.39 215.37 1450.39 Z" fill="#000000" fill-rule="nonzero" fill-opacity="1" /><path clip-path="url(#clip760)" d="M860.699 1451.02 L879.056 1451.02 L879.056 1454.96 L864.982 1454.96 L864.982 1463.43 Q866 1463.08 867.019 1462.92 Q868.037 1462.73 869.056 1462.73 Q874.843 1462.73 878.222 1465.9 Q881.602 1469.08 881.602 1474.49 Q881.602 1480.07 878.13 1483.17 Q874.658 1486.25 868.338 1486.25 Q866.162 1486.25 863.894 1485.88 Q861.648 1485.51 859.241 1484.77 L859.241 1480.07 Q861.324 1481.2 863.547 1481.76 Q865.769 1482.32 868.246 1482.32 Q872.25 1482.32 874.588 1480.21 Q876.926 1478.1 876.926 1474.49 Q876.926 1470.88 874.588 1468.77 Q872.25 1466.67 868.246 1466.67 Q866.371 1466.67 864.496 1467.08 Q862.644 1467.5 860.699 1468.38 L860.699 1451.02 Z" fill="#000000" fill-rule="nonzero" fill-opacity="1" /><path clip-path="url(#clip760)" d="M1500.16 1481.64 L1507.8 1481.64 L1507.8 1455.28 L1499.49 1456.95 L1499.49 1452.69 L1507.75 1451.02 L1512.43 1451.02 L1512.43 1481.64 L1520.07 1481.64 L1520.07 1485.58 L1500.16 1485.58 L1500.16 1481.64 Z" fill="#000000" fill-rule="nonzero" fill-opacity="1" /><path clip-path="url(#clip760)" d="M1539.51 1454.1 Q1535.9 1454.1 1534.07 1457.66 Q1532.27 1461.2 1532.27 1468.33 Q1532.27 1475.44 1534.07 1479.01 Q1535.9 1482.55 1539.51 1482.55 Q1543.15 1482.55 1544.95 1479.01 Q1546.78 1475.44 1546.78 1468.33 Q1546.78 1461.2 1544.95 1457.66 Q1543.15 1454.1 1539.51 1454.1 M1539.51 1450.39 Q1545.32 1450.39 1548.38 1455 Q1551.46 1459.58 1551.46 1468.33 Q1551.46 1477.06 1548.38 1481.67 Q1545.32 1486.25 1539.51 1486.25 Q1533.7 1486.25 1530.62 1481.67 Q1527.57 1477.06 1527.57 1468.33 Q1527.57 1459.58 1530.62 1455 Q1533.7 1450.39 1539.51 1450.39 Z" fill="#000000" fill-rule="nonzero" fill-opacity="1" /><path clip-path="url(#clip760)" d="M2155.71 1481.64 L2163.35 1481.64 L2163.35 1455.28 L2155.04 1456.95 L2155.04 1452.69 L2163.3 1451.02 L2167.98 1451.02 L2167.98 1481.64 L2175.62 1481.64 L2175.62 1485.58 L2155.71 1485.58 L2155.71 1481.64 Z" fill="#000000" fill-rule="nonzero" fill-opacity="1" /><path clip-path="url(#clip760)" d="M2185.11 1451.02 L2203.46 1451.02 L2203.46 1454.96 L2189.39 1454.96 L2189.39 1463.43 Q2190.41 1463.08 2191.43 1462.92 Q2192.45 1462.73 2193.46 1462.73 Q2199.25 1462.73 2202.63 1465.9 Q2206.01 1469.08 2206.01 1474.49 Q2206.01 1480.07 2202.54 1483.17 Q2199.07 1486.25 2192.75 1486.25 Q2190.57 1486.25 2188.3 1485.88 Q2186.06 1485.51 2183.65 1484.77 L2183.65 1480.07 Q2185.73 1481.2 2187.96 1481.76 Q2190.18 1482.32 2192.65 1482.32 Q2196.66 1482.32 2199 1480.21 Q2201.33 1478.1 2201.33 1474.49 Q2201.33 1470.88 2199 1468.77 Q2196.66 1466.67 2192.65 1466.67 Q2190.78 1466.67 2188.9 1467.08 Q2187.05 1467.5 2185.11 1468.38 L2185.11 1451.02 Z" fill="#000000" fill-rule="nonzero" fill-opacity="1" /><path clip-path="url(#clip760)" d="M1145.32 1520.52 L1151.75 1520.52 L1151.75 1562.63 L1174.89 1562.63 L1174.89 1568.04 L1145.32 1568.04 L1145.32 1520.52 Z" fill="#000000" fill-rule="nonzero" fill-opacity="1" /><path clip-path="url(#clip760)" d="M1194.05 1536.5 Q1189.34 1536.5 1186.6 1540.19 Q1183.87 1543.85 1183.87 1550.25 Q1183.87 1556.65 1186.57 1560.34 Q1189.31 1564 1194.05 1564 Q1198.73 1564 1201.47 1560.31 Q1204.2 1556.62 1204.2 1550.25 Q1204.2 1543.92 1201.47 1540.23 Q1198.73 1536.5 1194.05 1536.5 M1194.05 1531.54 Q1201.69 1531.54 1206.05 1536.5 Q1210.41 1541.47 1210.41 1550.25 Q1210.41 1559 1206.05 1564 Q1201.69 1568.97 1194.05 1568.97 Q1186.38 1568.97 1182.02 1564 Q1177.69 1559 1177.69 1550.25 Q1177.69 1541.47 1182.02 1536.5 Q1186.38 1531.54 1194.05 1531.54 Z" fill="#000000" fill-rule="nonzero" fill-opacity="1" /><path clip-path="url(#clip760)" d="M1236.32 1550.12 Q1229.22 1550.12 1226.48 1551.75 Q1223.75 1553.37 1223.75 1557.29 Q1223.75 1560.4 1225.78 1562.25 Q1227.85 1564.07 1231.39 1564.07 Q1236.25 1564.07 1239.18 1560.63 Q1242.14 1557.16 1242.14 1551.43 L1242.14 1550.12 L1236.32 1550.12 M1248 1547.71 L1248 1568.04 L1242.14 1568.04 L1242.14 1562.63 Q1240.14 1565.88 1237.15 1567.44 Q1234.15 1568.97 1229.83 1568.97 Q1224.35 1568.97 1221.1 1565.91 Q1217.89 1562.82 1217.89 1557.67 Q1217.89 1551.65 1221.9 1548.6 Q1225.94 1545.54 1233.93 1545.54 L1242.14 1545.54 L1242.14 1544.97 Q1242.14 1540.93 1239.47 1538.73 Q1236.83 1536.5 1232.02 1536.5 Q1228.97 1536.5 1226.07 1537.23 Q1223.17 1537.97 1220.5 1539.43 L1220.5 1534.02 Q1223.71 1532.78 1226.74 1532.17 Q1229.76 1531.54 1232.63 1531.54 Q1240.36 1531.54 1244.18 1535.55 Q1248 1539.56 1248 1547.71 Z" fill="#000000" fill-rule="nonzero" fill-opacity="1" /><path clip-path="url(#clip760)" d="M1283.52 1537.81 L1283.52 1518.52 L1289.38 1518.52 L1289.38 1568.04 L1283.52 1568.04 L1283.52 1562.7 Q1281.67 1565.88 1278.84 1567.44 Q1276.04 1568.97 1272.09 1568.97 Q1265.63 1568.97 1261.56 1563.81 Q1257.52 1558.65 1257.52 1550.25 Q1257.52 1541.85 1261.56 1536.69 Q1265.63 1531.54 1272.09 1531.54 Q1276.04 1531.54 1278.84 1533.1 Q1281.67 1534.62 1283.52 1537.81 M1263.56 1550.25 Q1263.56 1556.71 1266.21 1560.4 Q1268.88 1564.07 1273.53 1564.07 Q1278.17 1564.07 1280.85 1560.4 Q1283.52 1556.71 1283.52 1550.25 Q1283.52 1543.79 1280.85 1540.13 Q1278.17 1536.44 1273.53 1536.44 Q1268.88 1536.44 1266.21 1540.13 Q1263.56 1543.79 1263.56 1550.25 Z" fill="#000000" fill-rule="nonzero" fill-opacity="1" /><path clip-path="url(#clip760)" d="M1322.41 1520.52 L1328.84 1520.52 L1328.84 1568.04 L1322.41 1568.04 L1322.41 1520.52 Z" fill="#000000" fill-rule="nonzero" fill-opacity="1" /><path clip-path="url(#clip760)" d="M1348.07 1525.81 L1348.07 1562.76 L1355.83 1562.76 Q1365.67 1562.76 1370.22 1558.3 Q1374.8 1553.85 1374.8 1544.24 Q1374.8 1534.69 1370.22 1530.26 Q1365.67 1525.81 1355.83 1525.81 L1348.07 1525.81 M1341.64 1520.52 L1354.85 1520.52 Q1368.66 1520.52 1375.12 1526.28 Q1381.58 1532.01 1381.58 1544.24 Q1381.58 1556.52 1375.09 1562.28 Q1368.6 1568.04 1354.85 1568.04 L1341.64 1568.04 L1341.64 1520.52 Z" fill="#000000" fill-rule="nonzero" fill-opacity="1" /><polyline clip-path="url(#clip760)" style="stroke:#000000; stroke-linecap:round; stroke-linejoin:round; stroke-width:4; stroke-opacity:1; fill:none" points="174.149,1423.18 174.149,123.472 "/>
<polyline clip-path="url(#clip760)" style="stroke:#000000; stroke-linecap:round; stroke-linejoin:round; stroke-width:4; stroke-opacity:1; fill:none" points="174.149,1423.18 193.047,1423.18 "/>
<polyline clip-path="url(#clip760)" style="stroke:#000000; stroke-linecap:round; stroke-linejoin:round; stroke-width:4; stroke-opacity:1; fill:none" points="174.149,1033.2 193.047,1033.2 "/>
<polyline clip-path="url(#clip760)" style="stroke:#000000; stroke-linecap:round; stroke-linejoin:round; stroke-width:4; stroke-opacity:1; fill:none" points="174.149,643.221 193.047,643.221 "/>
<polyline clip-path="url(#clip760)" style="stroke:#000000; stroke-linecap:round; stroke-linejoin:round; stroke-width:4; stroke-opacity:1; fill:none" points="174.149,253.241 193.047,253.241 "/>
<path clip-path="url(#clip760)" d="M126.205 1408.98 Q122.593 1408.98 120.765 1412.54 Q118.959 1416.08 118.959 1423.21 Q118.959 1430.32 120.765 1433.89 Q122.593 1437.43 126.205 1437.43 Q129.839 1437.43 131.644 1433.89 Q133.473 1430.32 133.473 1423.21 Q133.473 1416.08 131.644 1412.54 Q129.839 1408.98 126.205 1408.98 M126.205 1405.27 Q132.015 1405.27 135.07 1409.88 Q138.149 1414.46 138.149 1423.21 Q138.149 1431.94 135.07 1436.55 Q132.015 1441.13 126.205 1441.13 Q120.394 1441.13 117.316 1436.55 Q114.26 1431.94 114.26 1423.21 Q114.26 1414.46 117.316 1409.88 Q120.394 1405.27 126.205 1405.27 Z" fill="#000000" fill-rule="nonzero" fill-opacity="1" /><path clip-path="url(#clip760)" d="M118.242 1046.55 L125.88 1046.55 L125.88 1020.18 L117.57 1021.85 L117.57 1017.59 L125.834 1015.92 L130.51 1015.92 L130.51 1046.55 L138.149 1046.55 L138.149 1050.48 L118.242 1050.48 L118.242 1046.55 Z" fill="#000000" fill-rule="nonzero" fill-opacity="1" /><path clip-path="url(#clip760)" d="M121.83 656.566 L138.149 656.566 L138.149 660.501 L116.205 660.501 L116.205 656.566 Q118.867 653.811 123.45 649.181 Q128.056 644.529 129.237 643.186 Q131.482 640.663 132.362 638.927 Q133.265 637.168 133.265 635.478 Q133.265 632.723 131.32 630.987 Q129.399 629.251 126.297 629.251 Q124.098 629.251 121.644 630.015 Q119.214 630.779 116.436 632.33 L116.436 627.607 Q119.26 626.473 121.714 625.895 Q124.168 625.316 126.205 625.316 Q131.575 625.316 134.769 628.001 Q137.964 630.686 137.964 635.177 Q137.964 637.307 137.154 639.228 Q136.367 641.126 134.26 643.719 Q133.681 644.39 130.58 647.607 Q127.478 650.802 121.83 656.566 Z" fill="#000000" fill-rule="nonzero" fill-opacity="1" /><path clip-path="url(#clip760)" d="M131.019 251.887 Q134.376 252.605 136.251 254.873 Q138.149 257.142 138.149 260.475 Q138.149 265.591 134.63 268.392 Q131.112 271.193 124.63 271.193 Q122.455 271.193 120.14 270.753 Q117.848 270.336 115.394 269.48 L115.394 264.966 Q117.339 266.1 119.654 266.679 Q121.968 267.257 124.492 267.257 Q128.89 267.257 131.181 265.521 Q133.496 263.785 133.496 260.475 Q133.496 257.42 131.343 255.707 Q129.214 253.97 125.394 253.97 L121.367 253.97 L121.367 250.128 L125.58 250.128 Q129.029 250.128 130.857 248.762 Q132.686 247.373 132.686 244.781 Q132.686 242.119 130.788 240.707 Q128.913 239.271 125.394 239.271 Q123.473 239.271 121.274 239.688 Q119.075 240.105 116.436 240.984 L116.436 236.818 Q119.098 236.077 121.413 235.707 Q123.751 235.336 125.811 235.336 Q131.135 235.336 134.237 237.767 Q137.339 240.174 137.339 244.295 Q137.339 247.165 135.695 249.156 Q134.052 251.123 131.019 251.887 Z" fill="#000000" fill-rule="nonzero" fill-opacity="1" /><path clip-path="url(#clip760)" d="M16.4842 1039.99 L16.4842 1012.68 L21.895 1012.68 L21.895 1033.56 L35.8996 1033.56 L35.8996 1014.71 L41.3104 1014.71 L41.3104 1033.56 L64.0042 1033.56 L64.0042 1039.99 L16.4842 1039.99 Z" fill="#000000" fill-rule="nonzero" fill-opacity="1" /><path clip-path="url(#clip760)" d="M46.0847 992.529 Q46.0847 999.627 47.7079 1002.36 Q49.3312 1005.1 53.2461 1005.1 Q56.3653 1005.1 58.2114 1003.06 Q60.0256 1001 60.0256 997.463 Q60.0256 992.593 56.5881 989.665 Q53.1188 986.704 47.3897 986.704 L46.0847 986.704 L46.0847 992.529 M43.6657 980.848 L64.0042 980.848 L64.0042 986.704 L58.5933 986.704 Q61.8398 988.71 63.3994 991.702 Q64.9272 994.693 64.9272 999.022 Q64.9272 1004.5 61.8716 1007.74 Q58.7843 1010.96 53.6281 1010.96 Q47.6125 1010.96 44.5569 1006.95 Q41.5014 1002.91 41.5014 994.916 L41.5014 986.704 L40.9285 986.704 Q36.8862 986.704 34.6901 989.378 Q32.4621 992.02 32.4621 996.826 Q32.4621 999.881 33.1941 1002.78 Q33.9262 1005.67 35.3903 1008.35 L29.9795 1008.35 Q28.7381 1005.13 28.1334 1002.11 Q27.4968 999.086 27.4968 996.221 Q27.4968 988.487 31.5072 984.667 Q35.5176 980.848 43.6657 980.848 Z" fill="#000000" fill-rule="nonzero" fill-opacity="1" /><path clip-path="url(#clip760)" d="M28.3562 968.785 L28.3562 962.929 L64.0042 962.929 L64.0042 968.785 L28.3562 968.785 M14.479 968.785 L14.479 962.929 L21.895 962.929 L21.895 968.785 L14.479 968.785 Z" fill="#000000" fill-rule="nonzero" fill-opacity="1" /><path clip-path="url(#clip760)" d="M33.8307 930.018 Q33.2578 931.005 33.0032 932.182 Q32.7167 933.328 32.7167 934.728 Q32.7167 939.694 35.9632 942.367 Q39.1779 945.009 45.2253 945.009 L64.0042 945.009 L64.0042 950.897 L28.3562 950.897 L28.3562 945.009 L33.8944 945.009 Q30.6479 943.163 29.0883 940.203 Q27.4968 937.243 27.4968 933.01 Q27.4968 932.405 27.5923 931.673 Q27.656 930.941 27.8151 930.05 L33.8307 930.018 Z" fill="#000000" fill-rule="nonzero" fill-opacity="1" /><path clip-path="url(#clip760)" d="M16.4842 902.9 L16.4842 896.471 L58.5933 896.471 L58.5933 873.331 L64.0042 873.331 L64.0042 902.9 L16.4842 902.9 Z" fill="#000000" fill-rule="nonzero" fill-opacity="1" /><path clip-path="url(#clip760)" d="M32.4621 854.17 Q32.4621 858.881 36.1542 861.618 Q39.8145 864.356 46.212 864.356 Q52.6095 864.356 56.3017 861.65 Q59.9619 858.913 59.9619 854.17 Q59.9619 849.492 56.2698 846.754 Q52.5777 844.017 46.212 844.017 Q39.8781 844.017 36.186 846.754 Q32.4621 849.492 32.4621 854.17 M27.4968 854.17 Q27.4968 846.532 32.4621 842.171 Q37.4273 837.811 46.212 837.811 Q54.9649 837.811 59.9619 842.171 Q64.9272 846.532 64.9272 854.17 Q64.9272 861.841 59.9619 866.202 Q54.9649 870.53 46.212 870.53 Q37.4273 870.53 32.4621 866.202 Q27.4968 861.841 27.4968 854.17 Z" fill="#000000" fill-rule="nonzero" fill-opacity="1" /><path clip-path="url(#clip760)" d="M46.0847 811.902 Q46.0847 819 47.7079 821.737 Q49.3312 824.474 53.2461 824.474 Q56.3653 824.474 58.2114 822.437 Q60.0256 820.369 60.0256 816.836 Q60.0256 811.966 56.5881 809.038 Q53.1188 806.078 47.3897 806.078 L46.0847 806.078 L46.0847 811.902 M43.6657 800.221 L64.0042 800.221 L64.0042 806.078 L58.5933 806.078 Q61.8398 808.083 63.3994 811.075 Q64.9272 814.067 64.9272 818.395 Q64.9272 823.87 61.8716 827.116 Q58.7843 830.331 53.6281 830.331 Q47.6125 830.331 44.5569 826.32 Q41.5014 822.278 41.5014 814.289 L41.5014 806.078 L40.9285 806.078 Q36.8862 806.078 34.6901 808.751 Q32.4621 811.393 32.4621 816.199 Q32.4621 819.255 33.1941 822.151 Q33.9262 825.047 35.3903 827.721 L29.9795 827.721 Q28.7381 824.506 28.1334 821.483 Q27.4968 818.459 27.4968 815.594 Q27.4968 807.86 31.5072 804.041 Q35.5176 800.221 43.6657 800.221 Z" fill="#000000" fill-rule="nonzero" fill-opacity="1" /><path clip-path="url(#clip760)" d="M33.7671 764.7 L14.479 764.7 L14.479 758.844 L64.0042 758.844 L64.0042 764.7 L58.657 764.7 Q61.8398 766.547 63.3994 769.379 Q64.9272 772.18 64.9272 776.127 Q64.9272 782.588 59.771 786.662 Q54.6147 790.704 46.212 790.704 Q37.8093 790.704 32.6531 786.662 Q27.4968 782.588 27.4968 776.127 Q27.4968 772.18 29.0564 769.379 Q30.5842 766.547 33.7671 764.7 M46.212 784.657 Q52.6732 784.657 56.3653 782.015 Q60.0256 779.342 60.0256 774.695 Q60.0256 770.048 56.3653 767.374 Q52.6732 764.7 46.212 764.7 Q39.7508 764.7 36.0905 767.374 Q32.3984 770.048 32.3984 774.695 Q32.3984 779.342 36.0905 782.015 Q39.7508 784.657 46.212 784.657 Z" fill="#000000" fill-rule="nonzero" fill-opacity="1" /><path clip-path="url(#clip760)" d="M16.4842 730.039 L16.4842 723.546 L56.6518 713.552 L16.4842 703.59 L16.4842 696.365 L56.6518 686.37 L16.4842 676.408 L16.4842 669.883 L64.0042 681.819 L64.0042 689.903 L22.7544 699.929 L64.0042 710.051 L64.0042 718.135 L16.4842 730.039 Z" fill="#000000" fill-rule="nonzero" fill-opacity="1" /><path clip-path="url(#clip760)" d="M44.7161 634.936 L47.5806 634.936 L47.5806 661.862 Q53.6281 661.481 56.8109 658.234 Q59.9619 654.956 59.9619 649.131 Q59.9619 645.757 59.1344 642.606 Q58.3069 639.423 56.6518 636.304 L62.1899 636.304 Q63.5267 639.455 64.227 642.765 Q64.9272 646.076 64.9272 649.481 Q64.9272 658.011 59.9619 663.008 Q54.9967 667.974 46.5303 667.974 Q37.7774 667.974 32.6531 663.263 Q27.4968 658.52 27.4968 650.5 Q27.4968 643.306 32.1438 639.137 Q36.7589 634.936 44.7161 634.936 M42.9973 640.792 Q38.1912 640.856 35.3266 643.497 Q32.4621 646.107 32.4621 650.436 Q32.4621 655.338 35.2312 658.298 Q38.0002 661.226 43.0292 661.671 L42.9973 640.792 Z" fill="#000000" fill-rule="nonzero" fill-opacity="1" /><path clip-path="url(#clip760)" d="M28.3562 625.323 L28.3562 619.467 L64.0042 619.467 L64.0042 625.323 L28.3562 625.323 M14.479 625.323 L14.479 619.467 L21.895 619.467 L21.895 625.323 L14.479 625.323 Z" fill="#000000" fill-rule="nonzero" fill-opacity="1" /><path clip-path="url(#clip760)" d="M45.7664 583.755 Q39.4007 583.755 35.8996 586.397 Q32.3984 589.007 32.3984 593.749 Q32.3984 598.46 35.8996 601.102 Q39.4007 603.712 45.7664 603.712 Q52.1003 603.712 55.6014 601.102 Q59.1026 598.46 59.1026 593.749 Q59.1026 589.007 55.6014 586.397 Q52.1003 583.755 45.7664 583.755 M59.58 577.899 Q68.683 577.899 73.1071 581.941 Q77.5631 585.983 77.5631 594.322 Q77.5631 597.41 77.0857 600.147 Q76.6401 602.884 75.6852 605.462 L69.9879 605.462 Q71.3884 602.884 72.0568 600.37 Q72.7252 597.855 72.7252 595.245 Q72.7252 589.484 69.7015 586.62 Q66.7096 583.755 60.6303 583.755 L57.7339 583.755 Q60.885 585.569 62.4446 588.402 Q64.0042 591.235 64.0042 595.182 Q64.0042 601.738 59.0071 605.749 Q54.01 609.759 45.7664 609.759 Q37.491 609.759 32.4939 605.749 Q27.4968 601.738 27.4968 595.182 Q27.4968 591.235 29.0564 588.402 Q30.616 585.569 33.7671 583.755 L28.3562 583.755 L28.3562 577.899 L59.58 577.899 Z" fill="#000000" fill-rule="nonzero" fill-opacity="1" /><path clip-path="url(#clip760)" d="M42.4881 536.203 L64.0042 536.203 L64.0042 542.06 L42.679 542.06 Q37.6183 542.06 35.1038 544.033 Q32.5894 546.007 32.5894 549.953 Q32.5894 554.696 35.6131 557.433 Q38.6368 560.17 43.8567 560.17 L64.0042 560.17 L64.0042 566.059 L14.479 566.059 L14.479 560.17 L33.8944 560.17 Q30.6797 558.07 29.0883 555.237 Q27.4968 552.372 27.4968 548.648 Q27.4968 542.505 31.3163 539.354 Q35.1038 536.203 42.4881 536.203 Z" fill="#000000" fill-rule="nonzero" fill-opacity="1" /><path clip-path="url(#clip760)" d="M18.2347 518.73 L28.3562 518.73 L28.3562 506.667 L32.9077 506.667 L32.9077 518.73 L52.2594 518.73 Q56.6199 518.73 57.8613 517.552 Q59.1026 516.342 59.1026 512.682 L59.1026 506.667 L64.0042 506.667 L64.0042 512.682 Q64.0042 519.462 61.4897 522.04 Q58.9434 524.618 52.2594 524.618 L32.9077 524.618 L32.9077 528.915 L28.3562 528.915 L28.3562 524.618 L18.2347 524.618 L18.2347 518.73 Z" fill="#000000" fill-rule="nonzero" fill-opacity="1" /><path clip-path="url(#clip760)" d="M453.434 12.096 L488.19 12.096 L488.19 18.9825 L461.616 18.9825 L461.616 36.8065 L485.598 36.8065 L485.598 43.6931 L461.616 43.6931 L461.616 72.576 L453.434 72.576 L453.434 12.096 Z" fill="#000000" fill-rule="nonzero" fill-opacity="1" /><path clip-path="url(#clip760)" d="M513.833 49.7694 Q504.799 49.7694 501.315 51.8354 Q497.832 53.9013 497.832 58.8839 Q497.832 62.8538 500.424 65.2034 Q503.057 67.5124 507.554 67.5124 Q513.752 67.5124 517.478 63.1374 Q521.246 58.7219 521.246 51.4303 L521.246 49.7694 L513.833 49.7694 M528.699 46.6907 L528.699 72.576 L521.246 72.576 L521.246 65.6895 Q518.694 69.8214 514.886 71.8063 Q511.078 73.7508 505.569 73.7508 Q498.601 73.7508 494.469 69.8619 Q490.378 65.9325 490.378 59.3701 Q490.378 51.7138 495.482 47.825 Q500.627 43.9361 510.794 43.9361 L521.246 43.9361 L521.246 43.2069 Q521.246 38.0623 517.843 35.2672 Q514.481 32.4315 508.364 32.4315 Q504.475 32.4315 500.789 33.3632 Q497.102 34.295 493.7 36.1584 L493.7 29.2718 Q497.791 27.692 501.639 26.9223 Q505.488 26.1121 509.134 26.1121 Q518.977 26.1121 523.838 31.2163 Q528.699 36.3204 528.699 46.6907 Z" fill="#000000" fill-rule="nonzero" fill-opacity="1" /><path clip-path="url(#clip760)" d="M544.052 27.2059 L551.506 27.2059 L551.506 72.576 L544.052 72.576 L544.052 27.2059 M544.052 9.54393 L551.506 9.54393 L551.506 18.9825 L544.052 18.9825 L544.052 9.54393 Z" fill="#000000" fill-rule="nonzero" fill-opacity="1" /><path clip-path="url(#clip760)" d="M593.392 34.1734 Q592.137 33.4443 590.638 33.1202 Q589.179 32.7556 587.397 32.7556 Q581.078 32.7556 577.675 36.8875 Q574.313 40.9789 574.313 48.6757 L574.313 72.576 L566.818 72.576 L566.818 27.2059 L574.313 27.2059 L574.313 34.2544 Q576.662 30.1225 580.429 28.1376 Q584.197 26.1121 589.584 26.1121 Q590.354 26.1121 591.286 26.2337 Q592.218 26.3147 593.352 26.5172 L593.392 34.1734 Z" fill="#000000" fill-rule="nonzero" fill-opacity="1" /><path clip-path="url(#clip760)" d="M627.906 12.096 L636.089 12.096 L636.089 65.6895 L665.539 65.6895 L665.539 72.576 L627.906 72.576 L627.906 12.096 Z" fill="#000000" fill-rule="nonzero" fill-opacity="1" /><path clip-path="url(#clip760)" d="M689.925 32.4315 Q683.93 32.4315 680.446 37.1306 Q676.962 41.7891 676.962 49.9314 Q676.962 58.0738 680.406 62.7728 Q683.89 67.4314 689.925 67.4314 Q695.88 67.4314 699.364 62.7323 Q702.848 58.0333 702.848 49.9314 Q702.848 41.8701 699.364 37.1711 Q695.88 32.4315 689.925 32.4315 M689.925 26.1121 Q699.648 26.1121 705.197 32.4315 Q710.747 38.7509 710.747 49.9314 Q710.747 61.0714 705.197 67.4314 Q699.648 73.7508 689.925 73.7508 Q680.163 73.7508 674.613 67.4314 Q669.104 61.0714 669.104 49.9314 Q669.104 38.7509 674.613 32.4315 Q680.163 26.1121 689.925 26.1121 Z" fill="#000000" fill-rule="nonzero" fill-opacity="1" /><path clip-path="url(#clip760)" d="M743.721 49.7694 Q734.688 49.7694 731.204 51.8354 Q727.72 53.9013 727.72 58.8839 Q727.72 62.8538 730.313 65.2034 Q732.946 67.5124 737.442 67.5124 Q743.64 67.5124 747.367 63.1374 Q751.135 58.7219 751.135 51.4303 L751.135 49.7694 L743.721 49.7694 M758.588 46.6907 L758.588 72.576 L751.135 72.576 L751.135 65.6895 Q748.582 69.8214 744.775 71.8063 Q740.967 73.7508 735.458 73.7508 Q728.49 73.7508 724.358 69.8619 Q720.267 65.9325 720.267 59.3701 Q720.267 51.7138 725.371 47.825 Q730.515 43.9361 740.683 43.9361 L751.135 43.9361 L751.135 43.2069 Q751.135 38.0623 747.732 35.2672 Q744.37 32.4315 738.253 32.4315 Q734.364 32.4315 730.677 33.3632 Q726.991 34.295 723.588 36.1584 L723.588 29.2718 Q727.68 27.692 731.528 26.9223 Q735.377 26.1121 739.022 26.1121 Q748.866 26.1121 753.727 31.2163 Q758.588 36.3204 758.588 46.6907 Z" fill="#000000" fill-rule="nonzero" fill-opacity="1" /><path clip-path="url(#clip760)" d="M803.796 34.0924 L803.796 9.54393 L811.25 9.54393 L811.25 72.576 L803.796 72.576 L803.796 65.7705 Q801.447 69.8214 797.841 71.8063 Q794.277 73.7508 789.254 73.7508 Q781.03 73.7508 775.845 67.1883 Q770.7 60.6258 770.7 49.9314 Q770.7 39.2371 775.845 32.6746 Q781.03 26.1121 789.254 26.1121 Q794.277 26.1121 797.841 28.0971 Q801.447 30.0415 803.796 34.0924 M778.397 49.9314 Q778.397 58.1548 781.759 62.8538 Q785.162 67.5124 791.076 67.5124 Q796.991 67.5124 800.394 62.8538 Q803.796 58.1548 803.796 49.9314 Q803.796 41.7081 800.394 37.0496 Q796.991 32.3505 791.076 32.3505 Q785.162 32.3505 781.759 37.0496 Q778.397 41.7081 778.397 49.9314 Z" fill="#000000" fill-rule="nonzero" fill-opacity="1" /><path clip-path="url(#clip760)" d="M847.911 12.096 L856.175 12.096 L868.894 63.2184 L881.574 12.096 L890.769 12.096 L903.489 63.2184 L916.168 12.096 L924.473 12.096 L909.282 72.576 L898.993 72.576 L886.232 20.0763 L873.35 72.576 L863.061 72.576 L847.911 12.096 Z" fill="#000000" fill-rule="nonzero" fill-opacity="1" /><path clip-path="url(#clip760)" d="M968.952 48.0275 L968.952 51.6733 L934.681 51.6733 Q935.167 59.3701 939.299 63.421 Q943.471 67.4314 950.885 67.4314 Q955.179 67.4314 959.189 66.3781 Q963.24 65.3249 967.21 63.2184 L967.21 70.267 Q963.199 71.9684 958.986 72.8596 Q954.774 73.7508 950.439 73.7508 Q939.583 73.7508 933.223 67.4314 Q926.903 61.1119 926.903 50.3365 Q926.903 39.1965 932.899 32.6746 Q938.934 26.1121 949.143 26.1121 Q958.298 26.1121 963.604 32.0264 Q968.952 37.9003 968.952 48.0275 M961.498 45.84 Q961.417 39.7232 958.055 36.0774 Q954.733 32.4315 949.224 32.4315 Q942.985 32.4315 939.218 35.9558 Q935.491 39.4801 934.924 45.8805 L961.498 45.84 Z" fill="#000000" fill-rule="nonzero" fill-opacity="1" /><path clip-path="url(#clip760)" d="M981.185 27.2059 L988.639 27.2059 L988.639 72.576 L981.185 72.576 L981.185 27.2059 M981.185 9.54393 L988.639 9.54393 L988.639 18.9825 L981.185 18.9825 L981.185 9.54393 Z" fill="#000000" fill-rule="nonzero" fill-opacity="1" /><path clip-path="url(#clip760)" d="M1034.09 49.3643 Q1034.09 41.2625 1030.73 36.8065 Q1027.41 32.3505 1021.37 32.3505 Q1015.38 32.3505 1012.01 36.8065 Q1008.69 41.2625 1008.69 49.3643 Q1008.69 57.4256 1012.01 61.8816 Q1015.38 66.3376 1021.37 66.3376 Q1027.41 66.3376 1030.73 61.8816 Q1034.09 57.4256 1034.09 49.3643 M1041.54 66.9452 Q1041.54 78.5308 1036.4 84.1616 Q1031.25 89.8329 1020.64 89.8329 Q1016.71 89.8329 1013.23 89.2252 Q1009.74 88.6581 1006.46 87.4428 L1006.46 80.1917 Q1009.74 81.9741 1012.94 82.8248 Q1016.14 83.6755 1019.47 83.6755 Q1026.8 83.6755 1030.44 79.8271 Q1034.09 76.0193 1034.09 68.282 L1034.09 64.5957 Q1031.78 68.6061 1028.18 70.5911 Q1024.57 72.576 1019.55 72.576 Q1011.2 72.576 1006.1 66.2161 Q1000.99 59.8562 1000.99 49.3643 Q1000.99 38.832 1006.1 32.472 Q1011.2 26.1121 1019.55 26.1121 Q1024.57 26.1121 1028.18 28.0971 Q1031.78 30.082 1034.09 34.0924 L1034.09 27.2059 L1041.54 27.2059 L1041.54 66.9452 Z" fill="#000000" fill-rule="nonzero" fill-opacity="1" /><path clip-path="url(#clip760)" d="M1094.61 45.1919 L1094.61 72.576 L1087.16 72.576 L1087.16 45.4349 Q1087.16 38.994 1084.65 35.7938 Q1082.13 32.5936 1077.11 32.5936 Q1071.07 32.5936 1067.59 36.4419 Q1064.11 40.2903 1064.11 46.9338 L1064.11 72.576 L1056.61 72.576 L1056.61 9.54393 L1064.11 9.54393 L1064.11 34.2544 Q1066.78 30.163 1070.39 28.1376 Q1074.03 26.1121 1078.77 26.1121 Q1086.59 26.1121 1090.6 30.9732 Q1094.61 35.7938 1094.61 45.1919 Z" fill="#000000" fill-rule="nonzero" fill-opacity="1" /><path clip-path="url(#clip760)" d="M1116.85 14.324 L1116.85 27.2059 L1132.2 27.2059 L1132.2 32.9987 L1116.85 32.9987 L1116.85 57.6282 Q1116.85 63.1779 1118.35 64.7578 Q1119.89 66.3376 1124.55 66.3376 L1132.2 66.3376 L1132.2 72.576 L1124.55 72.576 Q1115.92 72.576 1112.64 69.3758 Q1109.36 66.1351 1109.36 57.6282 L1109.36 32.9987 L1103.89 32.9987 L1103.89 27.2059 L1109.36 27.2059 L1109.36 14.324 L1116.85 14.324 Z" fill="#000000" fill-rule="nonzero" fill-opacity="1" /><path clip-path="url(#clip760)" d="M1170.93 28.5427 L1170.93 35.5912 Q1167.77 33.9709 1164.37 33.1607 Q1160.96 32.3505 1157.32 32.3505 Q1151.77 32.3505 1148.97 34.0519 Q1146.22 35.7533 1146.22 39.156 Q1146.22 41.7486 1148.2 43.2475 Q1150.19 44.7058 1156.18 46.0426 L1158.74 46.6097 Q1166.68 48.3111 1170 51.4303 Q1173.36 54.509 1173.36 60.0587 Q1173.36 66.3781 1168.34 70.0644 Q1163.35 73.7508 1154.6 73.7508 Q1150.96 73.7508 1146.99 73.0216 Q1143.06 72.3329 1138.68 70.9151 L1138.68 63.2184 Q1142.82 65.3654 1146.83 66.4591 Q1150.84 67.5124 1154.77 67.5124 Q1160.03 67.5124 1162.87 65.73 Q1165.7 63.9071 1165.7 60.6258 Q1165.7 57.5877 1163.64 55.9673 Q1161.61 54.3469 1154.69 52.8481 L1152.09 52.2405 Q1145.17 50.7821 1142.09 47.7845 Q1139.01 44.7463 1139.01 39.4801 Q1139.01 33.0797 1143.55 29.5959 Q1148.08 26.1121 1156.43 26.1121 Q1160.56 26.1121 1164.21 26.7198 Q1167.85 27.3274 1170.93 28.5427 Z" fill="#000000" fill-rule="nonzero" fill-opacity="1" /><path clip-path="url(#clip760)" d="M1218.81 65.7705 L1218.81 89.8329 L1211.32 89.8329 L1211.32 27.2059 L1218.81 27.2059 L1218.81 34.0924 Q1221.16 30.0415 1224.73 28.0971 Q1228.33 26.1121 1233.31 26.1121 Q1241.58 26.1121 1246.72 32.6746 Q1251.91 39.2371 1251.91 49.9314 Q1251.91 60.6258 1246.72 67.1883 Q1241.58 73.7508 1233.31 73.7508 Q1228.33 73.7508 1224.73 71.8063 Q1221.16 69.8214 1218.81 65.7705 M1244.17 49.9314 Q1244.17 41.7081 1240.77 37.0496 Q1237.41 32.3505 1231.49 32.3505 Q1225.58 32.3505 1222.17 37.0496 Q1218.81 41.7081 1218.81 49.9314 Q1218.81 58.1548 1222.17 62.8538 Q1225.58 67.5124 1231.49 67.5124 Q1237.41 67.5124 1240.77 62.8538 Q1244.17 58.1548 1244.17 49.9314 Z" fill="#000000" fill-rule="nonzero" fill-opacity="1" /><path clip-path="url(#clip760)" d="M1303.07 48.0275 L1303.07 51.6733 L1268.8 51.6733 Q1269.29 59.3701 1273.42 63.421 Q1277.59 67.4314 1285 67.4314 Q1289.3 67.4314 1293.31 66.3781 Q1297.36 65.3249 1301.33 63.2184 L1301.33 70.267 Q1297.32 71.9684 1293.11 72.8596 Q1288.89 73.7508 1284.56 73.7508 Q1273.7 73.7508 1267.34 67.4314 Q1261.02 61.1119 1261.02 50.3365 Q1261.02 39.1965 1267.02 32.6746 Q1273.05 26.1121 1283.26 26.1121 Q1292.42 26.1121 1297.72 32.0264 Q1303.07 37.9003 1303.07 48.0275 M1295.62 45.84 Q1295.54 39.7232 1292.17 36.0774 Q1288.85 32.4315 1283.34 32.4315 Q1277.1 32.4315 1273.34 35.9558 Q1269.61 39.4801 1269.04 45.8805 L1295.62 45.84 Z" fill="#000000" fill-rule="nonzero" fill-opacity="1" /><path clip-path="url(#clip760)" d="M1341.59 34.1734 Q1340.34 33.4443 1338.84 33.1202 Q1337.38 32.7556 1335.6 32.7556 Q1329.28 32.7556 1325.88 36.8875 Q1322.51 40.9789 1322.51 48.6757 L1322.51 72.576 L1315.02 72.576 L1315.02 27.2059 L1322.51 27.2059 L1322.51 34.2544 Q1324.86 30.1225 1328.63 28.1376 Q1332.4 26.1121 1337.79 26.1121 Q1338.56 26.1121 1339.49 26.2337 Q1340.42 26.3147 1341.55 26.5172 L1341.59 34.1734 Z" fill="#000000" fill-rule="nonzero" fill-opacity="1" /><path clip-path="url(#clip760)" d="M1376.11 12.096 L1384.29 12.096 L1384.29 65.6895 L1413.74 65.6895 L1413.74 72.576 L1376.11 72.576 L1376.11 12.096 Z" fill="#000000" fill-rule="nonzero" fill-opacity="1" /><path clip-path="url(#clip760)" d="M1438.13 32.4315 Q1432.13 32.4315 1428.65 37.1306 Q1425.16 41.7891 1425.16 49.9314 Q1425.16 58.0738 1428.61 62.7728 Q1432.09 67.4314 1438.13 67.4314 Q1444.08 67.4314 1447.57 62.7323 Q1451.05 58.0333 1451.05 49.9314 Q1451.05 41.8701 1447.57 37.1711 Q1444.08 32.4315 1438.13 32.4315 M1438.13 26.1121 Q1447.85 26.1121 1453.4 32.4315 Q1458.95 38.7509 1458.95 49.9314 Q1458.95 61.0714 1453.4 67.4314 Q1447.85 73.7508 1438.13 73.7508 Q1428.36 73.7508 1422.81 67.4314 Q1417.31 61.0714 1417.31 49.9314 Q1417.31 38.7509 1422.81 32.4315 Q1428.36 26.1121 1438.13 26.1121 Z" fill="#000000" fill-rule="nonzero" fill-opacity="1" /><path clip-path="url(#clip760)" d="M1491.92 49.7694 Q1482.89 49.7694 1479.41 51.8354 Q1475.92 53.9013 1475.92 58.8839 Q1475.92 62.8538 1478.51 65.2034 Q1481.15 67.5124 1485.64 67.5124 Q1491.84 67.5124 1495.57 63.1374 Q1499.34 58.7219 1499.34 51.4303 L1499.34 49.7694 L1491.92 49.7694 M1506.79 46.6907 L1506.79 72.576 L1499.34 72.576 L1499.34 65.6895 Q1496.78 69.8214 1492.98 71.8063 Q1489.17 73.7508 1483.66 73.7508 Q1476.69 73.7508 1472.56 69.8619 Q1468.47 65.9325 1468.47 59.3701 Q1468.47 51.7138 1473.57 47.825 Q1478.72 43.9361 1488.89 43.9361 L1499.34 43.9361 L1499.34 43.2069 Q1499.34 38.0623 1495.93 35.2672 Q1492.57 32.4315 1486.45 32.4315 Q1482.57 32.4315 1478.88 33.3632 Q1475.19 34.295 1471.79 36.1584 L1471.79 29.2718 Q1475.88 27.692 1479.73 26.9223 Q1483.58 26.1121 1487.22 26.1121 Q1497.07 26.1121 1501.93 31.2163 Q1506.79 36.3204 1506.79 46.6907 Z" fill="#000000" fill-rule="nonzero" fill-opacity="1" /><path clip-path="url(#clip760)" d="M1552 34.0924 L1552 9.54393 L1559.45 9.54393 L1559.45 72.576 L1552 72.576 L1552 65.7705 Q1549.65 69.8214 1546.04 71.8063 Q1542.48 73.7508 1537.46 73.7508 Q1529.23 73.7508 1524.05 67.1883 Q1518.9 60.6258 1518.9 49.9314 Q1518.9 39.2371 1524.05 32.6746 Q1529.23 26.1121 1537.46 26.1121 Q1542.48 26.1121 1546.04 28.0971 Q1549.65 30.0415 1552 34.0924 M1526.6 49.9314 Q1526.6 58.1548 1529.96 62.8538 Q1533.36 67.5124 1539.28 67.5124 Q1545.19 67.5124 1548.6 62.8538 Q1552 58.1548 1552 49.9314 Q1552 41.7081 1548.6 37.0496 Q1545.19 32.3505 1539.28 32.3505 Q1533.36 32.3505 1529.96 37.0496 Q1526.6 41.7081 1526.6 49.9314 Z" fill="#000000" fill-rule="nonzero" fill-opacity="1" /><path clip-path="url(#clip760)" d="M1597.41 46.5287 L1619.24 46.5287 L1619.24 53.1722 L1597.41 53.1722 L1597.41 46.5287 Z" fill="#000000" fill-rule="nonzero" fill-opacity="1" /><path clip-path="url(#clip760)" d="M1657.81 12.096 L1665.99 12.096 L1665.99 72.576 L1657.81 72.576 L1657.81 12.096 Z" fill="#000000" fill-rule="nonzero" fill-opacity="1" /><path clip-path="url(#clip760)" d="M1689.32 14.324 L1689.32 27.2059 L1704.68 27.2059 L1704.68 32.9987 L1689.32 32.9987 L1689.32 57.6282 Q1689.32 63.1779 1690.82 64.7578 Q1692.36 66.3376 1697.02 66.3376 L1704.68 66.3376 L1704.68 72.576 L1697.02 72.576 Q1688.39 72.576 1685.11 69.3758 Q1681.83 66.1351 1681.83 57.6282 L1681.83 32.9987 L1676.36 32.9987 L1676.36 27.2059 L1681.83 27.2059 L1681.83 14.324 L1689.32 14.324 Z" fill="#000000" fill-rule="nonzero" fill-opacity="1" /><path clip-path="url(#clip760)" d="M1753.29 48.0275 L1753.29 51.6733 L1719.02 51.6733 Q1719.5 59.3701 1723.64 63.421 Q1727.81 67.4314 1735.22 67.4314 Q1739.51 67.4314 1743.53 66.3781 Q1747.58 65.3249 1751.55 63.2184 L1751.55 70.267 Q1747.54 71.9684 1743.32 72.8596 Q1739.11 73.7508 1734.78 73.7508 Q1723.92 73.7508 1717.56 67.4314 Q1711.24 61.1119 1711.24 50.3365 Q1711.24 39.1965 1717.23 32.6746 Q1723.27 26.1121 1733.48 26.1121 Q1742.63 26.1121 1747.94 32.0264 Q1753.29 37.9003 1753.29 48.0275 M1745.83 45.84 Q1745.75 39.7232 1742.39 36.0774 Q1739.07 32.4315 1733.56 32.4315 Q1727.32 32.4315 1723.55 35.9558 Q1719.83 39.4801 1719.26 45.8805 L1745.83 45.84 Z" fill="#000000" fill-rule="nonzero" fill-opacity="1" /><path clip-path="url(#clip760)" d="M1791.81 34.1734 Q1790.56 33.4443 1789.06 33.1202 Q1787.6 32.7556 1785.82 32.7556 Q1779.5 32.7556 1776.09 36.8875 Q1772.73 40.9789 1772.73 48.6757 L1772.73 72.576 L1765.24 72.576 L1765.24 27.2059 L1772.73 27.2059 L1772.73 34.2544 Q1775.08 30.1225 1778.85 28.1376 Q1782.62 26.1121 1788 26.1121 Q1788.77 26.1121 1789.71 26.2337 Q1790.64 26.3147 1791.77 26.5172 L1791.81 34.1734 Z" fill="#000000" fill-rule="nonzero" fill-opacity="1" /><path clip-path="url(#clip760)" d="M1820.25 49.7694 Q1811.22 49.7694 1807.73 51.8354 Q1804.25 53.9013 1804.25 58.8839 Q1804.25 62.8538 1806.84 65.2034 Q1809.47 67.5124 1813.97 67.5124 Q1820.17 67.5124 1823.9 63.1374 Q1827.66 58.7219 1827.66 51.4303 L1827.66 49.7694 L1820.25 49.7694 M1835.12 46.6907 L1835.12 72.576 L1827.66 72.576 L1827.66 65.6895 Q1825.11 69.8214 1821.3 71.8063 Q1817.49 73.7508 1811.99 73.7508 Q1805.02 73.7508 1800.89 69.8619 Q1796.79 65.9325 1796.79 59.3701 Q1796.79 51.7138 1801.9 47.825 Q1807.04 43.9361 1817.21 43.9361 L1827.66 43.9361 L1827.66 43.2069 Q1827.66 38.0623 1824.26 35.2672 Q1820.9 32.4315 1814.78 32.4315 Q1810.89 32.4315 1807.21 33.3632 Q1803.52 34.295 1800.12 36.1584 L1800.12 29.2718 Q1804.21 27.692 1808.06 26.9223 Q1811.9 26.1121 1815.55 26.1121 Q1825.39 26.1121 1830.25 31.2163 Q1835.12 36.3204 1835.12 46.6907 Z" fill="#000000" fill-rule="nonzero" fill-opacity="1" /><path clip-path="url(#clip760)" d="M1857.84 14.324 L1857.84 27.2059 L1873.19 27.2059 L1873.19 32.9987 L1857.84 32.9987 L1857.84 57.6282 Q1857.84 63.1779 1859.34 64.7578 Q1860.88 66.3376 1865.54 66.3376 L1873.19 66.3376 L1873.19 72.576 L1865.54 72.576 Q1856.91 72.576 1853.63 69.3758 Q1850.35 66.1351 1850.35 57.6282 L1850.35 32.9987 L1844.88 32.9987 L1844.88 27.2059 L1850.35 27.2059 L1850.35 14.324 L1857.84 14.324 Z" fill="#000000" fill-rule="nonzero" fill-opacity="1" /><path clip-path="url(#clip760)" d="M1883 27.2059 L1890.45 27.2059 L1890.45 72.576 L1883 72.576 L1883 27.2059 M1883 9.54393 L1890.45 9.54393 L1890.45 18.9825 L1883 18.9825 L1883 9.54393 Z" fill="#000000" fill-rule="nonzero" fill-opacity="1" /><path clip-path="url(#clip760)" d="M1923.63 32.4315 Q1917.63 32.4315 1914.15 37.1306 Q1910.67 41.7891 1910.67 49.9314 Q1910.67 58.0738 1914.11 62.7728 Q1917.59 67.4314 1923.63 67.4314 Q1929.58 67.4314 1933.07 62.7323 Q1936.55 58.0333 1936.55 49.9314 Q1936.55 41.8701 1933.07 37.1711 Q1929.58 32.4315 1923.63 32.4315 M1923.63 26.1121 Q1933.35 26.1121 1938.9 32.4315 Q1944.45 38.7509 1944.45 49.9314 Q1944.45 61.0714 1938.9 67.4314 Q1933.35 73.7508 1923.63 73.7508 Q1913.87 73.7508 1908.32 67.4314 Q1902.81 61.0714 1902.81 49.9314 Q1902.81 38.7509 1908.32 32.4315 Q1913.87 26.1121 1923.63 26.1121 Z" fill="#000000" fill-rule="nonzero" fill-opacity="1" /><path clip-path="url(#clip760)" d="M1994.52 45.1919 L1994.52 72.576 L1987.07 72.576 L1987.07 45.4349 Q1987.07 38.994 1984.55 35.7938 Q1982.04 32.5936 1977.02 32.5936 Q1970.98 32.5936 1967.5 36.4419 Q1964.02 40.2903 1964.02 46.9338 L1964.02 72.576 L1956.52 72.576 L1956.52 27.2059 L1964.02 27.2059 L1964.02 34.2544 Q1966.69 30.163 1970.29 28.1376 Q1973.94 26.1121 1978.68 26.1121 Q1986.5 26.1121 1990.51 30.9732 Q1994.52 35.7938 1994.52 45.1919 Z" fill="#000000" fill-rule="nonzero" fill-opacity="1" /><path clip-path="url(#clip760)" d="M2036.89 12.096 L2069.02 12.096 L2069.02 18.9825 L2044.39 18.9825 L2044.39 33.8088 Q2046.17 33.2012 2047.95 32.9176 Q2049.73 32.5936 2051.52 32.5936 Q2061.64 32.5936 2067.56 38.1433 Q2073.47 43.6931 2073.47 53.1722 Q2073.47 62.9348 2067.39 68.3631 Q2061.32 73.7508 2050.26 73.7508 Q2046.45 73.7508 2042.48 73.1026 Q2038.55 72.4545 2034.34 71.1582 L2034.34 62.9348 Q2037.99 64.9198 2041.87 65.892 Q2045.76 66.8642 2050.1 66.8642 Q2057.11 66.8642 2061.2 63.1779 Q2065.29 59.4916 2065.29 53.1722 Q2065.29 46.8528 2061.2 43.1664 Q2057.11 39.4801 2050.1 39.4801 Q2046.82 39.4801 2043.54 40.2093 Q2040.29 40.9384 2036.89 42.4778 L2036.89 12.096 Z" fill="#000000" fill-rule="nonzero" fill-opacity="1" /><path clip-path="url(#clip762)" d="M818.017 1384.18 L818.017 1423.18 L922.826 1423.18 L922.826 1384.18 L818.017 1384.18 L818.017 1384.18  Z" fill="#009af9" fill-rule="evenodd" fill-opacity="1"/>
<polyline clip-path="url(#clip762)" style="stroke:#000000; stroke-linecap:round; stroke-linejoin:round; stroke-width:4; stroke-opacity:1; fill:none" points="818.017,1384.18 818.017,1423.18 922.826,1423.18 922.826,1384.18 818.017,1384.18 "/>
<path clip-path="url(#clip762)" d="M1735.09 1384.18 L1735.09 1423.18 L1839.9 1423.18 L1839.9 1384.18 L1735.09 1384.18 L1735.09 1384.18  Z" fill="#009af9" fill-rule="evenodd" fill-opacity="1"/>
<polyline clip-path="url(#clip762)" style="stroke:#000000; stroke-linecap:round; stroke-linejoin:round; stroke-width:4; stroke-opacity:1; fill:none" points="1735.09,1384.18 1735.09,1423.18 1839.9,1423.18 1839.9,1384.18 1735.09,1384.18 "/>
<path clip-path="url(#clip762)" d="M1211.05 127.388 L1211.05 1423.18 L1315.86 1423.18 L1315.86 127.388 L1211.05 127.388 L1211.05 127.388  Z" fill="#009af9" fill-rule="evenodd" fill-opacity="1"/>
<polyline clip-path="url(#clip762)" style="stroke:#000000; stroke-linecap:round; stroke-linejoin:round; stroke-width:4; stroke-opacity:1; fill:none" points="1211.05,127.388 1211.05,1423.18 1315.86,1423.18 1315.86,127.388 1211.05,127.388 "/>
<path clip-path="url(#clip762)" d="M293.976 134.233 L293.976 1423.18 L398.784 1423.18 L398.784 134.233 L293.976 134.233 L293.976 134.233  Z" fill="#009af9" fill-rule="evenodd" fill-opacity="1"/>
<polyline clip-path="url(#clip762)" style="stroke:#000000; stroke-linecap:round; stroke-linejoin:round; stroke-width:4; stroke-opacity:1; fill:none" points="293.976,134.233 293.976,1423.18 398.784,1423.18 398.784,134.233 293.976,134.233 "/>
<path clip-path="url(#clip762)" d="M949.028 1382.96 L949.028 1423.18 L1053.84 1423.18 L1053.84 1382.96 L949.028 1382.96 L949.028 1382.96  Z" fill="#009af9" fill-rule="evenodd" fill-opacity="1"/>
<polyline clip-path="url(#clip762)" style="stroke:#000000; stroke-linecap:round; stroke-linejoin:round; stroke-width:4; stroke-opacity:1; fill:none" points="949.028,1382.96 949.028,1423.18 1053.84,1423.18 1053.84,1382.96 949.028,1382.96 "/>
<path clip-path="url(#clip762)" d="M1604.08 123.472 L1604.08 1423.18 L1708.89 1423.18 L1708.89 123.472 L1604.08 123.472 L1604.08 123.472  Z" fill="#009af9" fill-rule="evenodd" fill-opacity="1"/>
<polyline clip-path="url(#clip762)" style="stroke:#000000; stroke-linecap:round; stroke-linejoin:round; stroke-width:4; stroke-opacity:1; fill:none" points="1604.08,123.472 1604.08,1423.18 1708.89,1423.18 1708.89,123.472 1604.08,123.472 "/>
<path clip-path="url(#clip762)" d="M1342.06 130.17 L1342.06 1423.18 L1446.87 1423.18 L1446.87 130.17 L1342.06 130.17 L1342.06 130.17  Z" fill="#009af9" fill-rule="evenodd" fill-opacity="1"/>
<polyline clip-path="url(#clip762)" style="stroke:#000000; stroke-linecap:round; stroke-linejoin:round; stroke-width:4; stroke-opacity:1; fill:none" points="1342.06,130.17 1342.06,1423.18 1446.87,1423.18 1446.87,130.17 1342.06,130.17 "/>
<path clip-path="url(#clip762)" d="M1997.11 1317.25 L1997.11 1423.18 L2101.92 1423.18 L2101.92 1317.25 L1997.11 1317.25 L1997.11 1317.25  Z" fill="#009af9" fill-rule="evenodd" fill-opacity="1"/>
<polyline clip-path="url(#clip762)" style="stroke:#000000; stroke-linecap:round; stroke-linejoin:round; stroke-width:4; stroke-opacity:1; fill:none" points="1997.11,1317.25 1997.11,1423.18 2101.92,1423.18 2101.92,1317.25 1997.11,1317.25 "/>
<path clip-path="url(#clip762)" d="M555.997 1384.2 L555.997 1423.18 L660.805 1423.18 L660.805 1384.2 L555.997 1384.2 L555.997 1384.2  Z" fill="#009af9" fill-rule="evenodd" fill-opacity="1"/>
<polyline clip-path="url(#clip762)" style="stroke:#000000; stroke-linecap:round; stroke-linejoin:round; stroke-width:4; stroke-opacity:1; fill:none" points="555.997,1384.2 555.997,1423.18 660.805,1423.18 660.805,1384.2 555.997,1384.2 "/>
<path clip-path="url(#clip762)" d="M1080.04 123.645 L1080.04 1423.18 L1184.85 1423.18 L1184.85 123.645 L1080.04 123.645 L1080.04 123.645  Z" fill="#009af9" fill-rule="evenodd" fill-opacity="1"/>
<polyline clip-path="url(#clip762)" style="stroke:#000000; stroke-linecap:round; stroke-linejoin:round; stroke-width:4; stroke-opacity:1; fill:none" points="1080.04,123.645 1080.04,1423.18 1184.85,1423.18 1184.85,123.645 1080.04,123.645 "/>
<path clip-path="url(#clip762)" d="M687.007 1423.18 L687.007 1423.18 L791.815 1423.18 L791.815 1423.18 L687.007 1423.18 L687.007 1423.18  Z" fill="#009af9" fill-rule="evenodd" fill-opacity="1"/>
<polyline clip-path="url(#clip762)" style="stroke:#000000; stroke-linecap:round; stroke-linejoin:round; stroke-width:4; stroke-opacity:1; fill:none" points="687.007,1423.18 687.007,1423.18 791.815,1423.18 791.815,1423.18 687.007,1423.18 "/>
<path clip-path="url(#clip762)" d="M1866.1 1403.56 L1866.1 1423.18 L1970.91 1423.18 L1970.91 1403.56 L1866.1 1403.56 L1866.1 1403.56  Z" fill="#009af9" fill-rule="evenodd" fill-opacity="1"/>
<polyline clip-path="url(#clip762)" style="stroke:#000000; stroke-linecap:round; stroke-linejoin:round; stroke-width:4; stroke-opacity:1; fill:none" points="1866.1,1403.56 1866.1,1423.18 1970.91,1423.18 1970.91,1403.56 1866.1,1403.56 "/>
<path clip-path="url(#clip762)" d="M2128.12 1218.02 L2128.12 1423.18 L2232.93 1423.18 L2232.93 1218.02 L2128.12 1218.02 L2128.12 1218.02  Z" fill="#009af9" fill-rule="evenodd" fill-opacity="1"/>
<polyline clip-path="url(#clip762)" style="stroke:#000000; stroke-linecap:round; stroke-linejoin:round; stroke-width:4; stroke-opacity:1; fill:none" points="2128.12,1218.02 2128.12,1423.18 2232.93,1423.18 2232.93,1218.02 2128.12,1218.02 "/>
<path clip-path="url(#clip762)" d="M424.986 125.433 L424.986 1423.18 L529.795 1423.18 L529.795 125.433 L424.986 125.433 L424.986 125.433  Z" fill="#009af9" fill-rule="evenodd" fill-opacity="1"/>
<polyline clip-path="url(#clip762)" style="stroke:#000000; stroke-linecap:round; stroke-linejoin:round; stroke-width:4; stroke-opacity:1; fill:none" points="424.986,125.433 424.986,1423.18 529.795,1423.18 529.795,125.433 424.986,125.433 "/>
<path clip-path="url(#clip762)" d="M1473.07 138.789 L1473.07 1423.18 L1577.88 1423.18 L1577.88 138.789 L1473.07 138.789 L1473.07 138.789  Z" fill="#009af9" fill-rule="evenodd" fill-opacity="1"/>
<polyline clip-path="url(#clip762)" style="stroke:#000000; stroke-linecap:round; stroke-linejoin:round; stroke-width:4; stroke-opacity:1; fill:none" points="1473.07,138.789 1473.07,1423.18 1577.88,1423.18 1577.88,138.789 1473.07,138.789 "/>
<circle clip-path="url(#clip762)" style="fill:#009af9; stroke:none; fill-opacity:0" cx="870.422" cy="1384.18" r="2"/>
<circle clip-path="url(#clip762)" style="fill:#009af9; stroke:none; fill-opacity:0" cx="1787.49" cy="1384.18" r="2"/>
<circle clip-path="url(#clip762)" style="fill:#009af9; stroke:none; fill-opacity:0" cx="1263.45" cy="127.388" r="2"/>
<circle clip-path="url(#clip762)" style="fill:#009af9; stroke:none; fill-opacity:0" cx="346.38" cy="134.233" r="2"/>
<circle clip-path="url(#clip762)" style="fill:#009af9; stroke:none; fill-opacity:0" cx="1001.43" cy="1382.96" r="2"/>
<circle clip-path="url(#clip762)" style="fill:#009af9; stroke:none; fill-opacity:0" cx="1656.48" cy="123.472" r="2"/>
<circle clip-path="url(#clip762)" style="fill:#009af9; stroke:none; fill-opacity:0" cx="1394.46" cy="130.17" r="2"/>
<circle clip-path="url(#clip762)" style="fill:#009af9; stroke:none; fill-opacity:0" cx="2049.51" cy="1317.25" r="2"/>
<circle clip-path="url(#clip762)" style="fill:#009af9; stroke:none; fill-opacity:0" cx="608.401" cy="1384.2" r="2"/>
<circle clip-path="url(#clip762)" style="fill:#009af9; stroke:none; fill-opacity:0" cx="1132.44" cy="123.645" r="2"/>
<circle clip-path="url(#clip762)" style="fill:#009af9; stroke:none; fill-opacity:0" cx="739.411" cy="1423.18" r="2"/>
<circle clip-path="url(#clip762)" style="fill:#009af9; stroke:none; fill-opacity:0" cx="1918.5" cy="1403.56" r="2"/>
<circle clip-path="url(#clip762)" style="fill:#009af9; stroke:none; fill-opacity:0" cx="2180.52" cy="1218.02" r="2"/>
<circle clip-path="url(#clip762)" style="fill:#009af9; stroke:none; fill-opacity:0" cx="477.391" cy="125.433" r="2"/>
<circle clip-path="url(#clip762)" style="fill:#009af9; stroke:none; fill-opacity:0" cx="1525.47" cy="138.789" r="2"/>
</svg>
