<?xml version="1.0" encoding="utf-8"?>
<svg xmlns="http://www.w3.org/2000/svg" xmlns:xlink="http://www.w3.org/1999/xlink" width="600" height="400" viewBox="0 0 2400 1600">
<defs>
  <clipPath id="clip930">
    <rect x="0" y="0" width="2400" height="1600"/>
  </clipPath>
</defs>
<path clip-path="url(#clip930)" d="M0 1600 L2400 1600 L2400 0 L0 0  Z" fill="#ffffff" fill-rule="evenodd" fill-opacity="1"/>
<defs>
  <clipPath id="clip931">
    <rect x="480" y="0" width="1681" height="1600"/>
  </clipPath>
</defs>
<path clip-path="url(#clip930)" d="M309.866 1423.18 L2352.76 1423.18 L2352.76 123.472 L309.866 123.472  Z" fill="#ffffff" fill-rule="evenodd" fill-opacity="1"/>
<defs>
  <clipPath id="clip932">
    <rect x="309" y="123" width="2044" height="1301"/>
  </clipPath>
</defs>
<polyline clip-path="url(#clip932)" style="stroke:#000000; stroke-linecap:round; stroke-linejoin:round; stroke-width:2; stroke-opacity:0.1; fill:none" points="348.519,1423.18 348.519,123.472 "/>
<polyline clip-path="url(#clip932)" style="stroke:#000000; stroke-linecap:round; stroke-linejoin:round; stroke-width:2; stroke-opacity:0.1; fill:none" points="962.764,1423.18 962.764,123.472 "/>
<polyline clip-path="url(#clip932)" style="stroke:#000000; stroke-linecap:round; stroke-linejoin:round; stroke-width:2; stroke-opacity:0.1; fill:none" points="1577.01,1423.18 1577.01,123.472 "/>
<polyline clip-path="url(#clip932)" style="stroke:#000000; stroke-linecap:round; stroke-linejoin:round; stroke-width:2; stroke-opacity:0.1; fill:none" points="2191.25,1423.18 2191.25,123.472 "/>
<polyline clip-path="url(#clip932)" style="stroke:#000000; stroke-linecap:round; stroke-linejoin:round; stroke-width:2; stroke-opacity:0.1; fill:none" points="309.866,1423.18 2352.76,1423.18 "/>
<polyline clip-path="url(#clip932)" style="stroke:#000000; stroke-linecap:round; stroke-linejoin:round; stroke-width:2; stroke-opacity:0.1; fill:none" points="309.866,1109.07 2352.76,1109.07 "/>
<polyline clip-path="url(#clip932)" style="stroke:#000000; stroke-linecap:round; stroke-linejoin:round; stroke-width:2; stroke-opacity:0.1; fill:none" points="309.866,794.961 2352.76,794.961 "/>
<polyline clip-path="url(#clip932)" style="stroke:#000000; stroke-linecap:round; stroke-linejoin:round; stroke-width:2; stroke-opacity:0.1; fill:none" points="309.866,480.851 2352.76,480.851 "/>
<polyline clip-path="url(#clip932)" style="stroke:#000000; stroke-linecap:round; stroke-linejoin:round; stroke-width:2; stroke-opacity:0.1; fill:none" points="309.866,166.742 2352.76,166.742 "/>
<polyline clip-path="url(#clip930)" style="stroke:#000000; stroke-linecap:round; stroke-linejoin:round; stroke-width:4; stroke-opacity:1; fill:none" points="309.866,1423.18 2352.76,1423.18 "/>
<polyline clip-path="url(#clip930)" style="stroke:#000000; stroke-linecap:round; stroke-linejoin:round; stroke-width:4; stroke-opacity:1; fill:none" points="348.519,1423.18 348.519,1404.28 "/>
<polyline clip-path="url(#clip930)" style="stroke:#000000; stroke-linecap:round; stroke-linejoin:round; stroke-width:4; stroke-opacity:1; fill:none" points="962.764,1423.18 962.764,1404.28 "/>
<polyline clip-path="url(#clip930)" style="stroke:#000000; stroke-linecap:round; stroke-linejoin:round; stroke-width:4; stroke-opacity:1; fill:none" points="1577.01,1423.18 1577.01,1404.28 "/>
<polyline clip-path="url(#clip930)" style="stroke:#000000; stroke-linecap:round; stroke-linejoin:round; stroke-width:4; stroke-opacity:1; fill:none" points="2191.25,1423.18 2191.25,1404.28 "/>
<path clip-path="url(#clip930)" d="M348.519 1454.1 Q344.908 1454.1 343.079 1457.66 Q341.274 1461.2 341.274 1468.33 Q341.274 1475.44 343.079 1479.01 Q344.908 1482.55 348.519 1482.55 Q352.153 1482.55 353.959 1479.01 Q355.787 1475.44 355.787 1468.33 Q355.787 1461.2 353.959 1457.66 Q352.153 1454.1 348.519 1454.1 M348.519 1450.39 Q354.329 1450.39 357.385 1455 Q360.463 1459.58 360.463 1468.33 Q360.463 1477.06 357.385 1481.67 Q354.329 1486.25 348.519 1486.25 Q342.709 1486.25 339.63 1481.67 Q336.575 1477.06 336.575 1468.33 Q336.575 1459.58 339.63 1455 Q342.709 1450.39 348.519 1450.39 Z" fill="#000000" fill-rule="nonzero" fill-opacity="1" /><path clip-path="url(#clip930)" d="M953.042 1451.02 L971.398 1451.02 L971.398 1454.96 L957.324 1454.96 L957.324 1463.43 Q958.343 1463.08 959.361 1462.92 Q960.38 1462.73 961.398 1462.73 Q967.185 1462.73 970.565 1465.9 Q973.944 1469.08 973.944 1474.49 Q973.944 1480.07 970.472 1483.17 Q967 1486.25 960.681 1486.25 Q958.505 1486.25 956.236 1485.88 Q953.991 1485.51 951.583 1484.77 L951.583 1480.07 Q953.667 1481.2 955.889 1481.76 Q958.111 1482.32 960.588 1482.32 Q964.593 1482.32 966.931 1480.21 Q969.268 1478.1 969.268 1474.49 Q969.268 1470.88 966.931 1468.77 Q964.593 1466.67 960.588 1466.67 Q958.713 1466.67 956.838 1467.08 Q954.986 1467.5 953.042 1468.38 L953.042 1451.02 Z" fill="#000000" fill-rule="nonzero" fill-opacity="1" /><path clip-path="url(#clip930)" d="M1551.7 1481.64 L1559.34 1481.64 L1559.34 1455.28 L1551.03 1456.95 L1551.03 1452.69 L1559.29 1451.02 L1563.96 1451.02 L1563.96 1481.64 L1571.6 1481.64 L1571.6 1485.58 L1551.7 1485.58 L1551.7 1481.64 Z" fill="#000000" fill-rule="nonzero" fill-opacity="1" /><path clip-path="url(#clip930)" d="M1591.05 1454.1 Q1587.44 1454.1 1585.61 1457.66 Q1583.8 1461.2 1583.8 1468.33 Q1583.8 1475.44 1585.61 1479.01 Q1587.44 1482.55 1591.05 1482.55 Q1594.68 1482.55 1596.49 1479.01 Q1598.32 1475.44 1598.32 1468.33 Q1598.32 1461.2 1596.49 1457.66 Q1594.68 1454.1 1591.05 1454.1 M1591.05 1450.39 Q1596.86 1450.39 1599.91 1455 Q1602.99 1459.58 1602.99 1468.33 Q1602.99 1477.06 1599.91 1481.67 Q1596.86 1486.25 1591.05 1486.25 Q1585.24 1486.25 1582.16 1481.67 Q1579.1 1477.06 1579.1 1468.33 Q1579.1 1459.58 1582.16 1455 Q1585.24 1450.39 1591.05 1450.39 Z" fill="#000000" fill-rule="nonzero" fill-opacity="1" /><path clip-path="url(#clip930)" d="M2166.44 1481.64 L2174.08 1481.64 L2174.08 1455.28 L2165.77 1456.95 L2165.77 1452.69 L2174.03 1451.02 L2178.71 1451.02 L2178.71 1481.64 L2186.35 1481.64 L2186.35 1485.58 L2166.44 1485.58 L2166.44 1481.64 Z" fill="#000000" fill-rule="nonzero" fill-opacity="1" /><path clip-path="url(#clip930)" d="M2195.84 1451.02 L2214.19 1451.02 L2214.19 1454.96 L2200.12 1454.96 L2200.12 1463.43 Q2201.14 1463.08 2202.16 1462.92 Q2203.17 1462.73 2204.19 1462.73 Q2209.98 1462.73 2213.36 1465.9 Q2216.74 1469.08 2216.74 1474.49 Q2216.74 1480.07 2213.27 1483.17 Q2209.8 1486.25 2203.48 1486.25 Q2201.3 1486.25 2199.03 1485.88 Q2196.79 1485.51 2194.38 1484.77 L2194.38 1480.07 Q2196.46 1481.2 2198.68 1481.76 Q2200.91 1482.32 2203.38 1482.32 Q2207.39 1482.32 2209.73 1480.21 Q2212.06 1478.1 2212.06 1474.49 Q2212.06 1470.88 2209.73 1468.77 Q2207.39 1466.67 2203.38 1466.67 Q2201.51 1466.67 2199.63 1467.08 Q2197.78 1467.5 2195.84 1468.38 L2195.84 1451.02 Z" fill="#000000" fill-rule="nonzero" fill-opacity="1" /><path clip-path="url(#clip930)" d="M1213.18 1520.52 L1219.61 1520.52 L1219.61 1562.63 L1242.75 1562.63 L1242.75 1568.04 L1213.18 1568.04 L1213.18 1520.52 Z" fill="#000000" fill-rule="nonzero" fill-opacity="1" /><path clip-path="url(#clip930)" d="M1261.91 1536.5 Q1257.2 1536.5 1254.46 1540.19 Q1251.72 1543.85 1251.72 1550.25 Q1251.72 1556.65 1254.43 1560.34 Q1257.17 1564 1261.91 1564 Q1266.59 1564 1269.32 1560.31 Q1272.06 1556.62 1272.06 1550.25 Q1272.06 1543.92 1269.32 1540.23 Q1266.59 1536.5 1261.91 1536.5 M1261.91 1531.54 Q1269.55 1531.54 1273.91 1536.5 Q1278.27 1541.47 1278.27 1550.25 Q1278.27 1559 1273.91 1564 Q1269.55 1568.97 1261.91 1568.97 Q1254.24 1568.97 1249.88 1564 Q1245.55 1559 1245.55 1550.25 Q1245.55 1541.47 1249.88 1536.5 Q1254.24 1531.54 1261.91 1531.54 Z" fill="#000000" fill-rule="nonzero" fill-opacity="1" /><path clip-path="url(#clip930)" d="M1304.18 1550.12 Q1297.08 1550.12 1294.34 1551.75 Q1291.6 1553.37 1291.6 1557.29 Q1291.6 1560.4 1293.64 1562.25 Q1295.71 1564.07 1299.24 1564.07 Q1304.11 1564.07 1307.04 1560.63 Q1310 1557.16 1310 1551.43 L1310 1550.12 L1304.18 1550.12 M1315.86 1547.71 L1315.86 1568.04 L1310 1568.04 L1310 1562.63 Q1308 1565.88 1305 1567.44 Q1302.01 1568.97 1297.68 1568.97 Q1292.21 1568.97 1288.96 1565.91 Q1285.75 1562.82 1285.75 1557.67 Q1285.75 1551.65 1289.76 1548.6 Q1293.8 1545.54 1301.79 1545.54 L1310 1545.54 L1310 1544.97 Q1310 1540.93 1307.33 1538.73 Q1304.69 1536.5 1299.88 1536.5 Q1296.82 1536.5 1293.93 1537.23 Q1291.03 1537.97 1288.36 1539.43 L1288.36 1534.02 Q1291.57 1532.78 1294.6 1532.17 Q1297.62 1531.54 1300.48 1531.54 Q1308.22 1531.54 1312.04 1535.55 Q1315.86 1539.56 1315.86 1547.71 Z" fill="#000000" fill-rule="nonzero" fill-opacity="1" /><path clip-path="url(#clip930)" d="M1351.38 1537.81 L1351.38 1518.52 L1357.24 1518.52 L1357.24 1568.04 L1351.38 1568.04 L1351.38 1562.7 Q1349.53 1565.88 1346.7 1567.44 Q1343.9 1568.97 1339.95 1568.97 Q1333.49 1568.97 1329.42 1563.81 Q1325.37 1558.65 1325.37 1550.25 Q1325.37 1541.85 1329.42 1536.69 Q1333.49 1531.54 1339.95 1531.54 Q1343.9 1531.54 1346.7 1533.1 Q1349.53 1534.62 1351.38 1537.81 M1331.42 1550.25 Q1331.42 1556.71 1334.06 1560.4 Q1336.74 1564.07 1341.38 1564.07 Q1346.03 1564.07 1348.71 1560.4 Q1351.38 1556.71 1351.38 1550.25 Q1351.38 1543.79 1348.71 1540.13 Q1346.03 1536.44 1341.38 1536.44 Q1336.74 1536.44 1334.06 1540.13 Q1331.42 1543.79 1331.42 1550.25 Z" fill="#000000" fill-rule="nonzero" fill-opacity="1" /><path clip-path="url(#clip930)" d="M1390.27 1520.52 L1396.7 1520.52 L1396.7 1568.04 L1390.27 1568.04 L1390.27 1520.52 Z" fill="#000000" fill-rule="nonzero" fill-opacity="1" /><path clip-path="url(#clip930)" d="M1415.93 1525.81 L1415.93 1562.76 L1423.69 1562.76 Q1433.53 1562.76 1438.08 1558.3 Q1442.66 1553.85 1442.66 1544.24 Q1442.66 1534.69 1438.08 1530.26 Q1433.53 1525.81 1423.69 1525.81 L1415.93 1525.81 M1409.5 1520.52 L1422.71 1520.52 Q1436.52 1520.52 1442.98 1526.28 Q1449.44 1532.01 1449.44 1544.24 Q1449.44 1556.52 1442.95 1562.28 Q1436.46 1568.04 1422.71 1568.04 L1409.5 1568.04 L1409.5 1520.52 Z" fill="#000000" fill-rule="nonzero" fill-opacity="1" /><polyline clip-path="url(#clip930)" style="stroke:#000000; stroke-linecap:round; stroke-linejoin:round; stroke-width:4; stroke-opacity:1; fill:none" points="309.866,1423.18 309.866,123.472 "/>
<polyline clip-path="url(#clip930)" style="stroke:#000000; stroke-linecap:round; stroke-linejoin:round; stroke-width:4; stroke-opacity:1; fill:none" points="309.866,1423.18 328.763,1423.18 "/>
<polyline clip-path="url(#clip930)" style="stroke:#000000; stroke-linecap:round; stroke-linejoin:round; stroke-width:4; stroke-opacity:1; fill:none" points="309.866,1109.07 328.763,1109.07 "/>
<polyline clip-path="url(#clip930)" style="stroke:#000000; stroke-linecap:round; stroke-linejoin:round; stroke-width:4; stroke-opacity:1; fill:none" points="309.866,794.961 328.763,794.961 "/>
<polyline clip-path="url(#clip930)" style="stroke:#000000; stroke-linecap:round; stroke-linejoin:round; stroke-width:4; stroke-opacity:1; fill:none" points="309.866,480.851 328.763,480.851 "/>
<polyline clip-path="url(#clip930)" style="stroke:#000000; stroke-linecap:round; stroke-linejoin:round; stroke-width:4; stroke-opacity:1; fill:none" points="309.866,166.742 328.763,166.742 "/>
<path clip-path="url(#clip930)" d="M126.205 1408.98 Q122.593 1408.98 120.765 1412.54 Q118.959 1416.08 118.959 1423.21 Q118.959 1430.32 120.765 1433.89 Q122.593 1437.43 126.205 1437.43 Q129.839 1437.43 131.644 1433.89 Q133.473 1430.32 133.473 1423.21 Q133.473 1416.08 131.644 1412.54 Q129.839 1408.98 126.205 1408.98 M126.205 1405.27 Q132.015 1405.27 135.07 1409.88 Q138.149 1414.46 138.149 1423.21 Q138.149 1431.94 135.07 1436.55 Q132.015 1441.13 126.205 1441.13 Q120.394 1441.13 117.316 1436.55 Q114.26 1431.94 114.26 1423.21 Q114.26 1414.46 117.316 1409.88 Q120.394 1405.27 126.205 1405.27 Z" fill="#000000" fill-rule="nonzero" fill-opacity="1" /><path clip-path="url(#clip930)" d="M146.366 1434.58 L151.251 1434.58 L151.251 1440.46 L146.366 1440.46 L146.366 1434.58 Z" fill="#000000" fill-rule="nonzero" fill-opacity="1" /><path clip-path="url(#clip930)" d="M171.436 1408.98 Q167.825 1408.98 165.996 1412.54 Q164.19 1416.08 164.19 1423.21 Q164.19 1430.32 165.996 1433.89 Q167.825 1437.43 171.436 1437.43 Q175.07 1437.43 176.876 1433.89 Q178.704 1430.32 178.704 1423.21 Q178.704 1416.08 176.876 1412.54 Q175.07 1408.98 171.436 1408.98 M171.436 1405.27 Q177.246 1405.27 180.301 1409.88 Q183.38 1414.46 183.38 1423.21 Q183.38 1431.94 180.301 1436.55 Q177.246 1441.13 171.436 1441.13 Q165.626 1441.13 162.547 1436.55 Q159.491 1431.94 159.491 1423.21 Q159.491 1414.46 162.547 1409.88 Q165.626 1405.27 171.436 1405.27 Z" fill="#000000" fill-rule="nonzero" fill-opacity="1" /><path clip-path="url(#clip930)" d="M201.598 1408.98 Q197.987 1408.98 196.158 1412.54 Q194.352 1416.08 194.352 1423.21 Q194.352 1430.32 196.158 1433.89 Q197.987 1437.43 201.598 1437.43 Q205.232 1437.43 207.037 1433.89 Q208.866 1430.32 208.866 1423.21 Q208.866 1416.08 207.037 1412.54 Q205.232 1408.98 201.598 1408.98 M201.598 1405.27 Q207.408 1405.27 210.463 1409.88 Q213.542 1414.46 213.542 1423.21 Q213.542 1431.94 210.463 1436.55 Q207.408 1441.13 201.598 1441.13 Q195.787 1441.13 192.709 1436.55 Q189.653 1431.94 189.653 1423.21 Q189.653 1414.46 192.709 1409.88 Q195.787 1405.27 201.598 1405.27 Z" fill="#000000" fill-rule="nonzero" fill-opacity="1" /><path clip-path="url(#clip930)" d="M231.76 1408.98 Q228.148 1408.98 226.32 1412.54 Q224.514 1416.08 224.514 1423.21 Q224.514 1430.32 226.32 1433.89 Q228.148 1437.43 231.76 1437.43 Q235.394 1437.43 237.199 1433.89 Q239.028 1430.32 239.028 1423.21 Q239.028 1416.08 237.199 1412.54 Q235.394 1408.98 231.76 1408.98 M231.76 1405.27 Q237.57 1405.27 240.625 1409.88 Q243.704 1414.46 243.704 1423.21 Q243.704 1431.94 240.625 1436.55 Q237.57 1441.13 231.76 1441.13 Q225.949 1441.13 222.871 1436.55 Q219.815 1431.94 219.815 1423.21 Q219.815 1414.46 222.871 1409.88 Q225.949 1405.27 231.76 1405.27 Z" fill="#000000" fill-rule="nonzero" fill-opacity="1" /><path clip-path="url(#clip930)" d="M261.921 1408.98 Q258.31 1408.98 256.482 1412.54 Q254.676 1416.08 254.676 1423.21 Q254.676 1430.32 256.482 1433.89 Q258.31 1437.43 261.921 1437.43 Q265.556 1437.43 267.361 1433.89 Q269.19 1430.32 269.19 1423.21 Q269.19 1416.08 267.361 1412.54 Q265.556 1408.98 261.921 1408.98 M261.921 1405.27 Q267.732 1405.27 270.787 1409.88 Q273.866 1414.46 273.866 1423.21 Q273.866 1431.94 270.787 1436.55 Q267.732 1441.13 261.921 1441.13 Q256.111 1441.13 253.033 1436.55 Q249.977 1431.94 249.977 1423.21 Q249.977 1414.46 253.033 1409.88 Q256.111 1405.27 261.921 1405.27 Z" fill="#000000" fill-rule="nonzero" fill-opacity="1" /><path clip-path="url(#clip930)" d="M127.2 1094.87 Q123.589 1094.87 121.76 1098.43 Q119.955 1101.98 119.955 1109.11 Q119.955 1116.21 121.76 1119.78 Q123.589 1123.32 127.2 1123.32 Q130.834 1123.32 132.64 1119.78 Q134.468 1116.21 134.468 1109.11 Q134.468 1101.98 132.64 1098.43 Q130.834 1094.87 127.2 1094.87 M127.2 1091.17 Q133.01 1091.17 136.066 1095.77 Q139.144 1100.36 139.144 1109.11 Q139.144 1117.83 136.066 1122.44 Q133.01 1127.02 127.2 1127.02 Q121.39 1127.02 118.311 1122.44 Q115.256 1117.83 115.256 1109.11 Q115.256 1100.36 118.311 1095.77 Q121.39 1091.17 127.2 1091.17 Z" fill="#000000" fill-rule="nonzero" fill-opacity="1" /><path clip-path="url(#clip930)" d="M147.362 1120.47 L152.246 1120.47 L152.246 1126.35 L147.362 1126.35 L147.362 1120.47 Z" fill="#000000" fill-rule="nonzero" fill-opacity="1" /><path clip-path="url(#clip930)" d="M172.431 1094.87 Q168.82 1094.87 166.991 1098.43 Q165.186 1101.98 165.186 1109.11 Q165.186 1116.21 166.991 1119.78 Q168.82 1123.32 172.431 1123.32 Q176.065 1123.32 177.871 1119.78 Q179.7 1116.21 179.7 1109.11 Q179.7 1101.98 177.871 1098.43 Q176.065 1094.87 172.431 1094.87 M172.431 1091.17 Q178.241 1091.17 181.297 1095.77 Q184.376 1100.36 184.376 1109.11 Q184.376 1117.83 181.297 1122.44 Q178.241 1127.02 172.431 1127.02 Q166.621 1127.02 163.542 1122.44 Q160.487 1117.83 160.487 1109.11 Q160.487 1100.36 163.542 1095.77 Q166.621 1091.17 172.431 1091.17 Z" fill="#000000" fill-rule="nonzero" fill-opacity="1" /><path clip-path="url(#clip930)" d="M202.593 1094.87 Q198.982 1094.87 197.153 1098.43 Q195.348 1101.98 195.348 1109.11 Q195.348 1116.21 197.153 1119.78 Q198.982 1123.32 202.593 1123.32 Q206.227 1123.32 208.033 1119.78 Q209.861 1116.21 209.861 1109.11 Q209.861 1101.98 208.033 1098.43 Q206.227 1094.87 202.593 1094.87 M202.593 1091.17 Q208.403 1091.17 211.459 1095.77 Q214.537 1100.36 214.537 1109.11 Q214.537 1117.83 211.459 1122.44 Q208.403 1127.02 202.593 1127.02 Q196.783 1127.02 193.704 1122.44 Q190.649 1117.83 190.649 1109.11 Q190.649 1100.36 193.704 1095.77 Q196.783 1091.17 202.593 1091.17 Z" fill="#000000" fill-rule="nonzero" fill-opacity="1" /><path clip-path="url(#clip930)" d="M226.783 1122.42 L243.102 1122.42 L243.102 1126.35 L221.158 1126.35 L221.158 1122.42 Q223.82 1119.66 228.403 1115.03 Q233.01 1110.38 234.19 1109.04 Q236.435 1106.51 237.315 1104.78 Q238.218 1103.02 238.218 1101.33 Q238.218 1098.57 236.273 1096.84 Q234.352 1095.1 231.25 1095.1 Q229.051 1095.1 226.598 1095.86 Q224.167 1096.63 221.389 1098.18 L221.389 1093.46 Q224.213 1092.32 226.667 1091.74 Q229.121 1091.17 231.158 1091.17 Q236.528 1091.17 239.722 1093.85 Q242.917 1096.54 242.917 1101.03 Q242.917 1103.16 242.107 1105.08 Q241.32 1106.98 239.213 1109.57 Q238.634 1110.24 235.533 1113.46 Q232.431 1116.65 226.783 1122.42 Z" fill="#000000" fill-rule="nonzero" fill-opacity="1" /><path clip-path="url(#clip930)" d="M252.963 1091.79 L271.32 1091.79 L271.32 1095.73 L257.246 1095.73 L257.246 1104.2 Q258.264 1103.85 259.283 1103.69 Q260.301 1103.5 261.32 1103.5 Q267.107 1103.5 270.486 1106.67 Q273.866 1109.85 273.866 1115.26 Q273.866 1120.84 270.394 1123.94 Q266.921 1127.02 260.602 1127.02 Q258.426 1127.02 256.158 1126.65 Q253.912 1126.28 251.505 1125.54 L251.505 1120.84 Q253.588 1121.98 255.81 1122.53 Q258.033 1123.09 260.509 1123.09 Q264.514 1123.09 266.852 1120.98 Q269.19 1118.87 269.19 1115.26 Q269.19 1111.65 266.852 1109.54 Q264.514 1107.44 260.509 1107.44 Q258.634 1107.44 256.759 1107.86 Q254.908 1108.27 252.963 1109.15 L252.963 1091.79 Z" fill="#000000" fill-rule="nonzero" fill-opacity="1" /><path clip-path="url(#clip930)" d="M126.205 780.76 Q122.593 780.76 120.765 784.324 Q118.959 787.866 118.959 794.996 Q118.959 802.102 120.765 805.667 Q122.593 809.209 126.205 809.209 Q129.839 809.209 131.644 805.667 Q133.473 802.102 133.473 794.996 Q133.473 787.866 131.644 784.324 Q129.839 780.76 126.205 780.76 M126.205 777.056 Q132.015 777.056 135.07 781.662 Q138.149 786.246 138.149 794.996 Q138.149 803.722 135.07 808.329 Q132.015 812.912 126.205 812.912 Q120.394 812.912 117.316 808.329 Q114.26 803.722 114.26 794.996 Q114.26 786.246 117.316 781.662 Q120.394 777.056 126.205 777.056 Z" fill="#000000" fill-rule="nonzero" fill-opacity="1" /><path clip-path="url(#clip930)" d="M146.366 806.361 L151.251 806.361 L151.251 812.241 L146.366 812.241 L146.366 806.361 Z" fill="#000000" fill-rule="nonzero" fill-opacity="1" /><path clip-path="url(#clip930)" d="M171.436 780.76 Q167.825 780.76 165.996 784.324 Q164.19 787.866 164.19 794.996 Q164.19 802.102 165.996 805.667 Q167.825 809.209 171.436 809.209 Q175.07 809.209 176.876 805.667 Q178.704 802.102 178.704 794.996 Q178.704 787.866 176.876 784.324 Q175.07 780.76 171.436 780.76 M171.436 777.056 Q177.246 777.056 180.301 781.662 Q183.38 786.246 183.38 794.996 Q183.38 803.722 180.301 808.329 Q177.246 812.912 171.436 812.912 Q165.626 812.912 162.547 808.329 Q159.491 803.722 159.491 794.996 Q159.491 786.246 162.547 781.662 Q165.626 777.056 171.436 777.056 Z" fill="#000000" fill-rule="nonzero" fill-opacity="1" /><path clip-path="url(#clip930)" d="M201.598 780.76 Q197.987 780.76 196.158 784.324 Q194.352 787.866 194.352 794.996 Q194.352 802.102 196.158 805.667 Q197.987 809.209 201.598 809.209 Q205.232 809.209 207.037 805.667 Q208.866 802.102 208.866 794.996 Q208.866 787.866 207.037 784.324 Q205.232 780.76 201.598 780.76 M201.598 777.056 Q207.408 777.056 210.463 781.662 Q213.542 786.246 213.542 794.996 Q213.542 803.722 210.463 808.329 Q207.408 812.912 201.598 812.912 Q195.787 812.912 192.709 808.329 Q189.653 803.722 189.653 794.996 Q189.653 786.246 192.709 781.662 Q195.787 777.056 201.598 777.056 Z" fill="#000000" fill-rule="nonzero" fill-opacity="1" /><path clip-path="url(#clip930)" d="M221.806 777.681 L240.162 777.681 L240.162 781.616 L226.088 781.616 L226.088 790.088 Q227.107 789.741 228.125 789.579 Q229.144 789.394 230.162 789.394 Q235.949 789.394 239.329 792.565 Q242.709 795.736 242.709 801.153 Q242.709 806.732 239.236 809.834 Q235.764 812.912 229.445 812.912 Q227.269 812.912 225 812.542 Q222.755 812.172 220.348 811.431 L220.348 806.732 Q222.431 807.866 224.653 808.422 Q226.875 808.977 229.352 808.977 Q233.357 808.977 235.695 806.871 Q238.033 804.764 238.033 801.153 Q238.033 797.542 235.695 795.435 Q233.357 793.329 229.352 793.329 Q227.477 793.329 225.602 793.746 Q223.75 794.162 221.806 795.042 L221.806 777.681 Z" fill="#000000" fill-rule="nonzero" fill-opacity="1" /><path clip-path="url(#clip930)" d="M261.921 780.76 Q258.31 780.76 256.482 784.324 Q254.676 787.866 254.676 794.996 Q254.676 802.102 256.482 805.667 Q258.31 809.209 261.921 809.209 Q265.556 809.209 267.361 805.667 Q269.19 802.102 269.19 794.996 Q269.19 787.866 267.361 784.324 Q265.556 780.76 261.921 780.76 M261.921 777.056 Q267.732 777.056 270.787 781.662 Q273.866 786.246 273.866 794.996 Q273.866 803.722 270.787 808.329 Q267.732 812.912 261.921 812.912 Q256.111 812.912 253.033 808.329 Q249.977 803.722 249.977 794.996 Q249.977 786.246 253.033 781.662 Q256.111 777.056 261.921 777.056 Z" fill="#000000" fill-rule="nonzero" fill-opacity="1" /><path clip-path="url(#clip930)" d="M127.2 466.65 Q123.589 466.65 121.76 470.215 Q119.955 473.757 119.955 480.886 Q119.955 487.993 121.76 491.557 Q123.589 495.099 127.2 495.099 Q130.834 495.099 132.64 491.557 Q134.468 487.993 134.468 480.886 Q134.468 473.757 132.64 470.215 Q130.834 466.65 127.2 466.65 M127.2 462.946 Q133.01 462.946 136.066 467.553 Q139.144 472.136 139.144 480.886 Q139.144 489.613 136.066 494.219 Q133.01 498.803 127.2 498.803 Q121.39 498.803 118.311 494.219 Q115.256 489.613 115.256 480.886 Q115.256 472.136 118.311 467.553 Q121.39 462.946 127.2 462.946 Z" fill="#000000" fill-rule="nonzero" fill-opacity="1" /><path clip-path="url(#clip930)" d="M147.362 492.252 L152.246 492.252 L152.246 498.131 L147.362 498.131 L147.362 492.252 Z" fill="#000000" fill-rule="nonzero" fill-opacity="1" /><path clip-path="url(#clip930)" d="M172.431 466.65 Q168.82 466.65 166.991 470.215 Q165.186 473.757 165.186 480.886 Q165.186 487.993 166.991 491.557 Q168.82 495.099 172.431 495.099 Q176.065 495.099 177.871 491.557 Q179.7 487.993 179.7 480.886 Q179.7 473.757 177.871 470.215 Q176.065 466.65 172.431 466.65 M172.431 462.946 Q178.241 462.946 181.297 467.553 Q184.376 472.136 184.376 480.886 Q184.376 489.613 181.297 494.219 Q178.241 498.803 172.431 498.803 Q166.621 498.803 163.542 494.219 Q160.487 489.613 160.487 480.886 Q160.487 472.136 163.542 467.553 Q166.621 462.946 172.431 462.946 Z" fill="#000000" fill-rule="nonzero" fill-opacity="1" /><path clip-path="url(#clip930)" d="M202.593 466.65 Q198.982 466.65 197.153 470.215 Q195.348 473.757 195.348 480.886 Q195.348 487.993 197.153 491.557 Q198.982 495.099 202.593 495.099 Q206.227 495.099 208.033 491.557 Q209.861 487.993 209.861 480.886 Q209.861 473.757 208.033 470.215 Q206.227 466.65 202.593 466.65 M202.593 462.946 Q208.403 462.946 211.459 467.553 Q214.537 472.136 214.537 480.886 Q214.537 489.613 211.459 494.219 Q208.403 498.803 202.593 498.803 Q196.783 498.803 193.704 494.219 Q190.649 489.613 190.649 480.886 Q190.649 472.136 193.704 467.553 Q196.783 462.946 202.593 462.946 Z" fill="#000000" fill-rule="nonzero" fill-opacity="1" /><path clip-path="url(#clip930)" d="M221.574 463.571 L243.797 463.571 L243.797 465.562 L231.25 498.131 L226.366 498.131 L238.172 467.507 L221.574 467.507 L221.574 463.571 Z" fill="#000000" fill-rule="nonzero" fill-opacity="1" /><path clip-path="url(#clip930)" d="M252.963 463.571 L271.32 463.571 L271.32 467.507 L257.246 467.507 L257.246 475.979 Q258.264 475.632 259.283 475.47 Q260.301 475.284 261.32 475.284 Q267.107 475.284 270.486 478.456 Q273.866 481.627 273.866 487.044 Q273.866 492.622 270.394 495.724 Q266.921 498.803 260.602 498.803 Q258.426 498.803 256.158 498.432 Q253.912 498.062 251.505 497.321 L251.505 492.622 Q253.588 493.757 255.81 494.312 Q258.033 494.868 260.509 494.868 Q264.514 494.868 266.852 492.761 Q269.19 490.655 269.19 487.044 Q269.19 483.433 266.852 481.326 Q264.514 479.22 260.509 479.22 Q258.634 479.22 256.759 479.636 Q254.908 480.053 252.963 480.933 L252.963 463.571 Z" fill="#000000" fill-rule="nonzero" fill-opacity="1" /><path clip-path="url(#clip930)" d="M126.205 152.541 Q122.593 152.541 120.765 156.106 Q118.959 159.647 118.959 166.777 Q118.959 173.883 120.765 177.448 Q122.593 180.99 126.205 180.99 Q129.839 180.99 131.644 177.448 Q133.473 173.883 133.473 166.777 Q133.473 159.647 131.644 156.106 Q129.839 152.541 126.205 152.541 M126.205 148.837 Q132.015 148.837 135.07 153.444 Q138.149 158.027 138.149 166.777 Q138.149 175.504 135.07 180.11 Q132.015 184.693 126.205 184.693 Q120.394 184.693 117.316 180.11 Q114.26 175.504 114.26 166.777 Q114.26 158.027 117.316 153.444 Q120.394 148.837 126.205 148.837 Z" fill="#000000" fill-rule="nonzero" fill-opacity="1" /><path clip-path="url(#clip930)" d="M146.366 178.142 L151.251 178.142 L151.251 184.022 L146.366 184.022 L146.366 178.142 Z" fill="#000000" fill-rule="nonzero" fill-opacity="1" /><path clip-path="url(#clip930)" d="M171.436 152.541 Q167.825 152.541 165.996 156.106 Q164.19 159.647 164.19 166.777 Q164.19 173.883 165.996 177.448 Q167.825 180.99 171.436 180.99 Q175.07 180.99 176.876 177.448 Q178.704 173.883 178.704 166.777 Q178.704 159.647 176.876 156.106 Q175.07 152.541 171.436 152.541 M171.436 148.837 Q177.246 148.837 180.301 153.444 Q183.38 158.027 183.38 166.777 Q183.38 175.504 180.301 180.11 Q177.246 184.693 171.436 184.693 Q165.626 184.693 162.547 180.11 Q159.491 175.504 159.491 166.777 Q159.491 158.027 162.547 153.444 Q165.626 148.837 171.436 148.837 Z" fill="#000000" fill-rule="nonzero" fill-opacity="1" /><path clip-path="url(#clip930)" d="M192.408 180.087 L200.047 180.087 L200.047 153.721 L191.737 155.388 L191.737 151.129 L200 149.462 L204.676 149.462 L204.676 180.087 L212.315 180.087 L212.315 184.022 L192.408 184.022 L192.408 180.087 Z" fill="#000000" fill-rule="nonzero" fill-opacity="1" /><path clip-path="url(#clip930)" d="M231.76 152.541 Q228.148 152.541 226.32 156.106 Q224.514 159.647 224.514 166.777 Q224.514 173.883 226.32 177.448 Q228.148 180.99 231.76 180.99 Q235.394 180.99 237.199 177.448 Q239.028 173.883 239.028 166.777 Q239.028 159.647 237.199 156.106 Q235.394 152.541 231.76 152.541 M231.76 148.837 Q237.57 148.837 240.625 153.444 Q243.704 158.027 243.704 166.777 Q243.704 175.504 240.625 180.11 Q237.57 184.693 231.76 184.693 Q225.949 184.693 222.871 180.11 Q219.815 175.504 219.815 166.777 Q219.815 158.027 222.871 153.444 Q225.949 148.837 231.76 148.837 Z" fill="#000000" fill-rule="nonzero" fill-opacity="1" /><path clip-path="url(#clip930)" d="M261.921 152.541 Q258.31 152.541 256.482 156.106 Q254.676 159.647 254.676 166.777 Q254.676 173.883 256.482 177.448 Q258.31 180.99 261.921 180.99 Q265.556 180.99 267.361 177.448 Q269.19 173.883 269.19 166.777 Q269.19 159.647 267.361 156.106 Q265.556 152.541 261.921 152.541 M261.921 148.837 Q267.732 148.837 270.787 153.444 Q273.866 158.027 273.866 166.777 Q273.866 175.504 270.787 180.11 Q267.732 184.693 261.921 184.693 Q256.111 184.693 253.033 180.11 Q249.977 175.504 249.977 166.777 Q249.977 158.027 253.033 153.444 Q256.111 148.837 261.921 148.837 Z" fill="#000000" fill-rule="nonzero" fill-opacity="1" /><path clip-path="url(#clip930)" d="M16.4842 1039.99 L16.4842 1012.68 L21.895 1012.68 L21.895 1033.56 L35.8996 1033.56 L35.8996 1014.71 L41.3104 1014.71 L41.3104 1033.56 L64.0042 1033.56 L64.0042 1039.99 L16.4842 1039.99 Z" fill="#000000" fill-rule="nonzero" fill-opacity="1" /><path clip-path="url(#clip930)" d="M46.0847 992.529 Q46.0847 999.627 47.7079 1002.36 Q49.3312 1005.1 53.2461 1005.1 Q56.3653 1005.1 58.2114 1003.06 Q60.0256 1001 60.0256 997.463 Q60.0256 992.593 56.5881 989.665 Q53.1188 986.704 47.3897 986.704 L46.0847 986.704 L46.0847 992.529 M43.6657 980.848 L64.0042 980.848 L64.0042 986.704 L58.5933 986.704 Q61.8398 988.71 63.3994 991.702 Q64.9272 994.693 64.9272 999.022 Q64.9272 1004.5 61.8716 1007.74 Q58.7843 1010.96 53.6281 1010.96 Q47.6125 1010.96 44.5569 1006.95 Q41.5014 1002.91 41.5014 994.916 L41.5014 986.704 L40.9285 986.704 Q36.8862 986.704 34.6901 989.378 Q32.4621 992.02 32.4621 996.826 Q32.4621 999.881 33.1941 1002.78 Q33.9262 1005.67 35.3903 1008.35 L29.9795 1008.35 Q28.7381 1005.13 28.1334 1002.11 Q27.4968 999.086 27.4968 996.221 Q27.4968 988.487 31.5072 984.667 Q35.5176 980.848 43.6657 980.848 Z" fill="#000000" fill-rule="nonzero" fill-opacity="1" /><path clip-path="url(#clip930)" d="M28.3562 968.785 L28.3562 962.929 L64.0042 962.929 L64.0042 968.785 L28.3562 968.785 M14.479 968.785 L14.479 962.929 L21.895 962.929 L21.895 968.785 L14.479 968.785 Z" fill="#000000" fill-rule="nonzero" fill-opacity="1" /><path clip-path="url(#clip930)" d="M33.8307 930.018 Q33.2578 931.005 33.0032 932.182 Q32.7167 933.328 32.7167 934.728 Q32.7167 939.694 35.9632 942.367 Q39.1779 945.009 45.2253 945.009 L64.0042 945.009 L64.0042 950.897 L28.3562 950.897 L28.3562 945.009 L33.8944 945.009 Q30.6479 943.163 29.0883 940.203 Q27.4968 937.243 27.4968 933.01 Q27.4968 932.405 27.5923 931.673 Q27.656 930.941 27.8151 930.05 L33.8307 930.018 Z" fill="#000000" fill-rule="nonzero" fill-opacity="1" /><path clip-path="url(#clip930)" d="M16.4842 902.9 L16.4842 896.471 L58.5933 896.471 L58.5933 873.331 L64.0042 873.331 L64.0042 902.9 L16.4842 902.9 Z" fill="#000000" fill-rule="nonzero" fill-opacity="1" /><path clip-path="url(#clip930)" d="M32.4621 854.17 Q32.4621 858.881 36.1542 861.618 Q39.8145 864.356 46.212 864.356 Q52.6095 864.356 56.3017 861.65 Q59.9619 858.913 59.9619 854.17 Q59.9619 849.492 56.2698 846.754 Q52.5777 844.017 46.212 844.017 Q39.8781 844.017 36.186 846.754 Q32.4621 849.492 32.4621 854.17 M27.4968 854.17 Q27.4968 846.532 32.4621 842.171 Q37.4273 837.811 46.212 837.811 Q54.9649 837.811 59.9619 842.171 Q64.9272 846.532 64.9272 854.17 Q64.9272 861.841 59.9619 866.202 Q54.9649 870.53 46.212 870.53 Q37.4273 870.53 32.4621 866.202 Q27.4968 861.841 27.4968 854.17 Z" fill="#000000" fill-rule="nonzero" fill-opacity="1" /><path clip-path="url(#clip930)" d="M46.0847 811.902 Q46.0847 819 47.7079 821.737 Q49.3312 824.474 53.2461 824.474 Q56.3653 824.474 58.2114 822.437 Q60.0256 820.369 60.0256 816.836 Q60.0256 811.966 56.5881 809.038 Q53.1188 806.078 47.3897 806.078 L46.0847 806.078 L46.0847 811.902 M43.6657 800.221 L64.0042 800.221 L64.0042 806.078 L58.5933 806.078 Q61.8398 808.083 63.3994 811.075 Q64.9272 814.067 64.9272 818.395 Q64.9272 823.87 61.8716 827.116 Q58.7843 830.331 53.6281 830.331 Q47.6125 830.331 44.5569 826.32 Q41.5014 822.278 41.5014 814.289 L41.5014 806.078 L40.9285 806.078 Q36.8862 806.078 34.6901 808.751 Q32.4621 811.393 32.4621 816.199 Q32.4621 819.255 33.1941 822.151 Q33.9262 825.047 35.3903 827.721 L29.9795 827.721 Q28.7381 824.506 28.1334 821.483 Q27.4968 818.459 27.4968 815.594 Q27.4968 807.86 31.5072 804.041 Q35.5176 800.221 43.6657 800.221 Z" fill="#000000" fill-rule="nonzero" fill-opacity="1" /><path clip-path="url(#clip930)" d="M33.7671 764.7 L14.479 764.7 L14.479 758.844 L64.0042 758.844 L64.0042 764.7 L58.657 764.7 Q61.8398 766.547 63.3994 769.379 Q64.9272 772.18 64.9272 776.127 Q64.9272 782.588 59.771 786.662 Q54.6147 790.704 46.212 790.704 Q37.8093 790.704 32.6531 786.662 Q27.4968 782.588 27.4968 776.127 Q27.4968 772.18 29.0564 769.379 Q30.5842 766.547 33.7671 764.7 M46.212 784.657 Q52.6732 784.657 56.3653 782.015 Q60.0256 779.342 60.0256 774.695 Q60.0256 770.048 56.3653 767.374 Q52.6732 764.7 46.212 764.7 Q39.7508 764.7 36.0905 767.374 Q32.3984 770.048 32.3984 774.695 Q32.3984 779.342 36.0905 782.015 Q39.7508 784.657 46.212 784.657 Z" fill="#000000" fill-rule="nonzero" fill-opacity="1" /><path clip-path="url(#clip930)" d="M16.4842 730.039 L16.4842 723.546 L56.6518 713.552 L16.4842 703.59 L16.4842 696.365 L56.6518 686.37 L16.4842 676.408 L16.4842 669.883 L64.0042 681.819 L64.0042 689.903 L22.7544 699.929 L64.0042 710.051 L64.0042 718.135 L16.4842 730.039 Z" fill="#000000" fill-rule="nonzero" fill-opacity="1" /><path clip-path="url(#clip930)" d="M44.7161 634.936 L47.5806 634.936 L47.5806 661.862 Q53.6281 661.481 56.8109 658.234 Q59.9619 654.956 59.9619 649.131 Q59.9619 645.757 59.1344 642.606 Q58.3069 639.423 56.6518 636.304 L62.1899 636.304 Q63.5267 639.455 64.227 642.765 Q64.9272 646.076 64.9272 649.481 Q64.9272 658.011 59.9619 663.008 Q54.9967 667.974 46.5303 667.974 Q37.7774 667.974 32.6531 663.263 Q27.4968 658.52 27.4968 650.5 Q27.4968 643.306 32.1438 639.137 Q36.7589 634.936 44.7161 634.936 M42.9973 640.792 Q38.1912 640.856 35.3266 643.497 Q32.4621 646.107 32.4621 650.436 Q32.4621 655.338 35.2312 658.298 Q38.0002 661.226 43.0292 661.671 L42.9973 640.792 Z" fill="#000000" fill-rule="nonzero" fill-opacity="1" /><path clip-path="url(#clip930)" d="M28.3562 625.323 L28.3562 619.467 L64.0042 619.467 L64.0042 625.323 L28.3562 625.323 M14.479 625.323 L14.479 619.467 L21.895 619.467 L21.895 625.323 L14.479 625.323 Z" fill="#000000" fill-rule="nonzero" fill-opacity="1" /><path clip-path="url(#clip930)" d="M45.7664 583.755 Q39.4007 583.755 35.8996 586.397 Q32.3984 589.007 32.3984 593.749 Q32.3984 598.46 35.8996 601.102 Q39.4007 603.712 45.7664 603.712 Q52.1003 603.712 55.6014 601.102 Q59.1026 598.46 59.1026 593.749 Q59.1026 589.007 55.6014 586.397 Q52.1003 583.755 45.7664 583.755 M59.58 577.899 Q68.683 577.899 73.1071 581.941 Q77.5631 585.983 77.5631 594.322 Q77.5631 597.41 77.0857 600.147 Q76.6401 602.884 75.6852 605.462 L69.9879 605.462 Q71.3884 602.884 72.0568 600.37 Q72.7252 597.855 72.7252 595.245 Q72.7252 589.484 69.7015 586.62 Q66.7096 583.755 60.6303 583.755 L57.7339 583.755 Q60.885 585.569 62.4446 588.402 Q64.0042 591.235 64.0042 595.182 Q64.0042 601.738 59.0071 605.749 Q54.01 609.759 45.7664 609.759 Q37.491 609.759 32.4939 605.749 Q27.4968 601.738 27.4968 595.182 Q27.4968 591.235 29.0564 588.402 Q30.616 585.569 33.7671 583.755 L28.3562 583.755 L28.3562 577.899 L59.58 577.899 Z" fill="#000000" fill-rule="nonzero" fill-opacity="1" /><path clip-path="url(#clip930)" d="M42.4881 536.203 L64.0042 536.203 L64.0042 542.06 L42.679 542.06 Q37.6183 542.06 35.1038 544.033 Q32.5894 546.007 32.5894 549.953 Q32.5894 554.696 35.6131 557.433 Q38.6368 560.17 43.8567 560.17 L64.0042 560.17 L64.0042 566.059 L14.479 566.059 L14.479 560.17 L33.8944 560.17 Q30.6797 558.07 29.0883 555.237 Q27.4968 552.372 27.4968 548.648 Q27.4968 542.505 31.3163 539.354 Q35.1038 536.203 42.4881 536.203 Z" fill="#000000" fill-rule="nonzero" fill-opacity="1" /><path clip-path="url(#clip930)" d="M18.2347 518.73 L28.3562 518.73 L28.3562 506.667 L32.9077 506.667 L32.9077 518.73 L52.2594 518.73 Q56.6199 518.73 57.8613 517.552 Q59.1026 516.342 59.1026 512.682 L59.1026 506.667 L64.0042 506.667 L64.0042 512.682 Q64.0042 519.462 61.4897 522.04 Q58.9434 524.618 52.2594 524.618 L32.9077 524.618 L32.9077 528.915 L28.3562 528.915 L28.3562 524.618 L18.2347 524.618 L18.2347 518.73 Z" fill="#000000" fill-rule="nonzero" fill-opacity="1" /><path clip-path="url(#clip930)" d="M521.211 12.096 L555.968 12.096 L555.968 18.9825 L529.394 18.9825 L529.394 36.8065 L553.375 36.8065 L553.375 43.6931 L529.394 43.6931 L529.394 72.576 L521.211 72.576 L521.211 12.096 Z" fill="#000000" fill-rule="nonzero" fill-opacity="1" /><path clip-path="url(#clip930)" d="M581.61 49.7694 Q572.576 49.7694 569.093 51.8354 Q565.609 53.9013 565.609 58.8839 Q565.609 62.8538 568.202 65.2034 Q570.835 67.5124 575.331 67.5124 Q581.529 67.5124 585.256 63.1374 Q589.023 58.7219 589.023 51.4303 L589.023 49.7694 L581.61 49.7694 M596.477 46.6907 L596.477 72.576 L589.023 72.576 L589.023 65.6895 Q586.471 69.8214 582.663 71.8063 Q578.855 73.7508 573.346 73.7508 Q566.379 73.7508 562.247 69.8619 Q558.155 65.9325 558.155 59.3701 Q558.155 51.7138 563.259 47.825 Q568.404 43.9361 578.572 43.9361 L589.023 43.9361 L589.023 43.2069 Q589.023 38.0623 585.62 35.2672 Q582.258 32.4315 576.141 32.4315 Q572.252 32.4315 568.566 33.3632 Q564.88 34.295 561.477 36.1584 L561.477 29.2718 Q565.568 27.692 569.417 26.9223 Q573.265 26.1121 576.911 26.1121 Q586.755 26.1121 591.616 31.2163 Q596.477 36.3204 596.477 46.6907 Z" fill="#000000" fill-rule="nonzero" fill-opacity="1" /><path clip-path="url(#clip930)" d="M611.83 27.2059 L619.283 27.2059 L619.283 72.576 L611.83 72.576 L611.83 27.2059 M611.83 9.54393 L619.283 9.54393 L619.283 18.9825 L611.83 18.9825 L611.83 9.54393 Z" fill="#000000" fill-rule="nonzero" fill-opacity="1" /><path clip-path="url(#clip930)" d="M661.17 34.1734 Q659.914 33.4443 658.415 33.1202 Q656.957 32.7556 655.174 32.7556 Q648.855 32.7556 645.452 36.8875 Q642.09 40.9789 642.09 48.6757 L642.09 72.576 L634.596 72.576 L634.596 27.2059 L642.09 27.2059 L642.09 34.2544 Q644.44 30.1225 648.207 28.1376 Q651.974 26.1121 657.362 26.1121 Q658.132 26.1121 659.063 26.2337 Q659.995 26.3147 661.129 26.5172 L661.17 34.1734 Z" fill="#000000" fill-rule="nonzero" fill-opacity="1" /><path clip-path="url(#clip930)" d="M695.683 12.096 L703.866 12.096 L703.866 65.6895 L733.316 65.6895 L733.316 72.576 L695.683 72.576 L695.683 12.096 Z" fill="#000000" fill-rule="nonzero" fill-opacity="1" /><path clip-path="url(#clip930)" d="M757.703 32.4315 Q751.707 32.4315 748.224 37.1306 Q744.74 41.7891 744.74 49.9314 Q744.74 58.0738 748.183 62.7728 Q751.667 67.4314 757.703 67.4314 Q763.658 67.4314 767.141 62.7323 Q770.625 58.0333 770.625 49.9314 Q770.625 41.8701 767.141 37.1711 Q763.658 32.4315 757.703 32.4315 M757.703 26.1121 Q767.425 26.1121 772.975 32.4315 Q778.524 38.7509 778.524 49.9314 Q778.524 61.0714 772.975 67.4314 Q767.425 73.7508 757.703 73.7508 Q747.94 73.7508 742.39 67.4314 Q736.881 61.0714 736.881 49.9314 Q736.881 38.7509 742.39 32.4315 Q747.94 26.1121 757.703 26.1121 Z" fill="#000000" fill-rule="nonzero" fill-opacity="1" /><path clip-path="url(#clip930)" d="M811.499 49.7694 Q802.465 49.7694 798.982 51.8354 Q795.498 53.9013 795.498 58.8839 Q795.498 62.8538 798.09 65.2034 Q800.723 67.5124 805.22 67.5124 Q811.418 67.5124 815.145 63.1374 Q818.912 58.7219 818.912 51.4303 L818.912 49.7694 L811.499 49.7694 M826.366 46.6907 L826.366 72.576 L818.912 72.576 L818.912 65.6895 Q816.36 69.8214 812.552 71.8063 Q808.744 73.7508 803.235 73.7508 Q796.267 73.7508 792.135 69.8619 Q788.044 65.9325 788.044 59.3701 Q788.044 51.7138 793.148 47.825 Q798.293 43.9361 808.461 43.9361 L818.912 43.9361 L818.912 43.2069 Q818.912 38.0623 815.509 35.2672 Q812.147 32.4315 806.03 32.4315 Q802.141 32.4315 798.455 33.3632 Q794.769 34.295 791.366 36.1584 L791.366 29.2718 Q795.457 27.692 799.306 26.9223 Q803.154 26.1121 806.8 26.1121 Q816.643 26.1121 821.505 31.2163 Q826.366 36.3204 826.366 46.6907 Z" fill="#000000" fill-rule="nonzero" fill-opacity="1" /><path clip-path="url(#clip930)" d="M871.574 34.0924 L871.574 9.54393 L879.027 9.54393 L879.027 72.576 L871.574 72.576 L871.574 65.7705 Q869.224 69.8214 865.619 71.8063 Q862.054 73.7508 857.031 73.7508 Q848.808 73.7508 843.622 67.1883 Q838.478 60.6258 838.478 49.9314 Q838.478 39.2371 843.622 32.6746 Q848.808 26.1121 857.031 26.1121 Q862.054 26.1121 865.619 28.0971 Q869.224 30.0415 871.574 34.0924 M846.175 49.9314 Q846.175 58.1548 849.537 62.8538 Q852.94 67.5124 858.854 67.5124 Q864.768 67.5124 868.171 62.8538 Q871.574 58.1548 871.574 49.9314 Q871.574 41.7081 868.171 37.0496 Q864.768 32.3505 858.854 32.3505 Q852.94 32.3505 849.537 37.0496 Q846.175 41.7081 846.175 49.9314 Z" fill="#000000" fill-rule="nonzero" fill-opacity="1" /><path clip-path="url(#clip930)" d="M915.688 12.096 L923.952 12.096 L936.672 63.2184 L949.351 12.096 L958.547 12.096 L971.266 63.2184 L983.946 12.096 L992.25 12.096 L977.059 72.576 L966.77 72.576 L954.01 20.0763 L941.128 72.576 L930.838 72.576 L915.688 12.096 Z" fill="#000000" fill-rule="nonzero" fill-opacity="1" /><path clip-path="url(#clip930)" d="M1036.73 48.0275 L1036.73 51.6733 L1002.46 51.6733 Q1002.94 59.3701 1007.08 63.421 Q1011.25 67.4314 1018.66 67.4314 Q1022.96 67.4314 1026.97 66.3781 Q1031.02 65.3249 1034.99 63.2184 L1034.99 70.267 Q1030.98 71.9684 1026.76 72.8596 Q1022.55 73.7508 1018.22 73.7508 Q1007.36 73.7508 1001 67.4314 Q994.681 61.1119 994.681 50.3365 Q994.681 39.1965 1000.68 32.6746 Q1006.71 26.1121 1016.92 26.1121 Q1026.08 26.1121 1031.38 32.0264 Q1036.73 37.9003 1036.73 48.0275 M1029.28 45.84 Q1029.19 39.7232 1025.83 36.0774 Q1022.51 32.4315 1017 32.4315 Q1010.76 32.4315 1007 35.9558 Q1003.27 39.4801 1002.7 45.8805 L1029.28 45.84 Z" fill="#000000" fill-rule="nonzero" fill-opacity="1" /><path clip-path="url(#clip930)" d="M1048.96 27.2059 L1056.42 27.2059 L1056.42 72.576 L1048.96 72.576 L1048.96 27.2059 M1048.96 9.54393 L1056.42 9.54393 L1056.42 18.9825 L1048.96 18.9825 L1048.96 9.54393 Z" fill="#000000" fill-rule="nonzero" fill-opacity="1" /><path clip-path="url(#clip930)" d="M1101.87 49.3643 Q1101.87 41.2625 1098.51 36.8065 Q1095.18 32.3505 1089.15 32.3505 Q1083.15 32.3505 1079.79 36.8065 Q1076.47 41.2625 1076.47 49.3643 Q1076.47 57.4256 1079.79 61.8816 Q1083.15 66.3376 1089.15 66.3376 Q1095.18 66.3376 1098.51 61.8816 Q1101.87 57.4256 1101.87 49.3643 M1109.32 66.9452 Q1109.32 78.5308 1104.18 84.1616 Q1099.03 89.8329 1088.42 89.8329 Q1084.49 89.8329 1081.01 89.2252 Q1077.52 88.6581 1074.24 87.4428 L1074.24 80.1917 Q1077.52 81.9741 1080.72 82.8248 Q1083.92 83.6755 1087.24 83.6755 Q1094.58 83.6755 1098.22 79.8271 Q1101.87 76.0193 1101.87 68.282 L1101.87 64.5957 Q1099.56 68.6061 1095.95 70.5911 Q1092.35 72.576 1087.32 72.576 Q1078.98 72.576 1073.88 66.2161 Q1068.77 59.8562 1068.77 49.3643 Q1068.77 38.832 1073.88 32.472 Q1078.98 26.1121 1087.32 26.1121 Q1092.35 26.1121 1095.95 28.0971 Q1099.56 30.082 1101.87 34.0924 L1101.87 27.2059 L1109.32 27.2059 L1109.32 66.9452 Z" fill="#000000" fill-rule="nonzero" fill-opacity="1" /><path clip-path="url(#clip930)" d="M1162.39 45.1919 L1162.39 72.576 L1154.93 72.576 L1154.93 45.4349 Q1154.93 38.994 1152.42 35.7938 Q1149.91 32.5936 1144.89 32.5936 Q1138.85 32.5936 1135.37 36.4419 Q1131.88 40.2903 1131.88 46.9338 L1131.88 72.576 L1124.39 72.576 L1124.39 9.54393 L1131.88 9.54393 L1131.88 34.2544 Q1134.56 30.163 1138.16 28.1376 Q1141.81 26.1121 1146.55 26.1121 Q1154.37 26.1121 1158.38 30.9732 Q1162.39 35.7938 1162.39 45.1919 Z" fill="#000000" fill-rule="nonzero" fill-opacity="1" /><path clip-path="url(#clip930)" d="M1184.63 14.324 L1184.63 27.2059 L1199.98 27.2059 L1199.98 32.9987 L1184.63 32.9987 L1184.63 57.6282 Q1184.63 63.1779 1186.13 64.7578 Q1187.67 66.3376 1192.32 66.3376 L1199.98 66.3376 L1199.98 72.576 L1192.32 72.576 Q1183.7 72.576 1180.41 69.3758 Q1177.13 66.1351 1177.13 57.6282 L1177.13 32.9987 L1171.66 32.9987 L1171.66 27.2059 L1177.13 27.2059 L1177.13 14.324 L1184.63 14.324 Z" fill="#000000" fill-rule="nonzero" fill-opacity="1" /><path clip-path="url(#clip930)" d="M1238.71 28.5427 L1238.71 35.5912 Q1235.55 33.9709 1232.14 33.1607 Q1228.74 32.3505 1225.1 32.3505 Q1219.55 32.3505 1216.75 34.0519 Q1214 35.7533 1214 39.156 Q1214 41.7486 1215.98 43.2475 Q1217.97 44.7058 1223.96 46.0426 L1226.51 46.6097 Q1234.45 48.3111 1237.78 51.4303 Q1241.14 54.509 1241.14 60.0587 Q1241.14 66.3781 1236.11 70.0644 Q1231.13 73.7508 1222.38 73.7508 Q1218.74 73.7508 1214.77 73.0216 Q1210.84 72.3329 1206.46 70.9151 L1206.46 63.2184 Q1210.59 65.3654 1214.6 66.4591 Q1218.61 67.5124 1222.54 67.5124 Q1227.81 67.5124 1230.65 65.73 Q1233.48 63.9071 1233.48 60.6258 Q1233.48 57.5877 1231.42 55.9673 Q1229.39 54.3469 1222.46 52.8481 L1219.87 52.2405 Q1212.94 50.7821 1209.86 47.7845 Q1206.79 44.7463 1206.79 39.4801 Q1206.79 33.0797 1211.32 29.5959 Q1215.86 26.1121 1224.2 26.1121 Q1228.34 26.1121 1231.98 26.7198 Q1235.63 27.3274 1238.71 28.5427 Z" fill="#000000" fill-rule="nonzero" fill-opacity="1" /><path clip-path="url(#clip930)" d="M1286.59 65.7705 L1286.59 89.8329 L1279.09 89.8329 L1279.09 27.2059 L1286.59 27.2059 L1286.59 34.0924 Q1288.94 30.0415 1292.5 28.0971 Q1296.11 26.1121 1301.09 26.1121 Q1309.35 26.1121 1314.5 32.6746 Q1319.68 39.2371 1319.68 49.9314 Q1319.68 60.6258 1314.5 67.1883 Q1309.35 73.7508 1301.09 73.7508 Q1296.11 73.7508 1292.5 71.8063 Q1288.94 69.8214 1286.59 65.7705 M1311.95 49.9314 Q1311.95 41.7081 1308.54 37.0496 Q1305.18 32.3505 1299.27 32.3505 Q1293.35 32.3505 1289.95 37.0496 Q1286.59 41.7081 1286.59 49.9314 Q1286.59 58.1548 1289.95 62.8538 Q1293.35 67.5124 1299.27 67.5124 Q1305.18 67.5124 1308.54 62.8538 Q1311.95 58.1548 1311.95 49.9314 Z" fill="#000000" fill-rule="nonzero" fill-opacity="1" /><path clip-path="url(#clip930)" d="M1370.85 48.0275 L1370.85 51.6733 L1336.58 51.6733 Q1337.06 59.3701 1341.2 63.421 Q1345.37 67.4314 1352.78 67.4314 Q1357.07 67.4314 1361.08 66.3781 Q1365.14 65.3249 1369.11 63.2184 L1369.11 70.267 Q1365.1 71.9684 1360.88 72.8596 Q1356.67 73.7508 1352.34 73.7508 Q1341.48 73.7508 1335.12 67.4314 Q1328.8 61.1119 1328.8 50.3365 Q1328.8 39.1965 1334.79 32.6746 Q1340.83 26.1121 1351.04 26.1121 Q1360.19 26.1121 1365.5 32.0264 Q1370.85 37.9003 1370.85 48.0275 M1363.39 45.84 Q1363.31 39.7232 1359.95 36.0774 Q1356.63 32.4315 1351.12 32.4315 Q1344.88 32.4315 1341.11 35.9558 Q1337.39 39.4801 1336.82 45.8805 L1363.39 45.84 Z" fill="#000000" fill-rule="nonzero" fill-opacity="1" /><path clip-path="url(#clip930)" d="M1409.37 34.1734 Q1408.12 33.4443 1406.62 33.1202 Q1405.16 32.7556 1403.38 32.7556 Q1397.06 32.7556 1393.65 36.8875 Q1390.29 40.9789 1390.29 48.6757 L1390.29 72.576 L1382.8 72.576 L1382.8 27.2059 L1390.29 27.2059 L1390.29 34.2544 Q1392.64 30.1225 1396.41 28.1376 Q1400.18 26.1121 1405.56 26.1121 Q1406.33 26.1121 1407.27 26.2337 Q1408.2 26.3147 1409.33 26.5172 L1409.37 34.1734 Z" fill="#000000" fill-rule="nonzero" fill-opacity="1" /><path clip-path="url(#clip930)" d="M1443.89 12.096 L1452.07 12.096 L1452.07 65.6895 L1481.52 65.6895 L1481.52 72.576 L1443.89 72.576 L1443.89 12.096 Z" fill="#000000" fill-rule="nonzero" fill-opacity="1" /><path clip-path="url(#clip930)" d="M1505.9 32.4315 Q1499.91 32.4315 1496.43 37.1306 Q1492.94 41.7891 1492.94 49.9314 Q1492.94 58.0738 1496.39 62.7728 Q1499.87 67.4314 1505.9 67.4314 Q1511.86 67.4314 1515.34 62.7323 Q1518.83 58.0333 1518.83 49.9314 Q1518.83 41.8701 1515.34 37.1711 Q1511.86 32.4315 1505.9 32.4315 M1505.9 26.1121 Q1515.63 26.1121 1521.18 32.4315 Q1526.73 38.7509 1526.73 49.9314 Q1526.73 61.0714 1521.18 67.4314 Q1515.63 73.7508 1505.9 73.7508 Q1496.14 73.7508 1490.59 67.4314 Q1485.08 61.0714 1485.08 49.9314 Q1485.08 38.7509 1490.59 32.4315 Q1496.14 26.1121 1505.9 26.1121 Z" fill="#000000" fill-rule="nonzero" fill-opacity="1" /><path clip-path="url(#clip930)" d="M1559.7 49.7694 Q1550.67 49.7694 1547.18 51.8354 Q1543.7 53.9013 1543.7 58.8839 Q1543.7 62.8538 1546.29 65.2034 Q1548.93 67.5124 1553.42 67.5124 Q1559.62 67.5124 1563.35 63.1374 Q1567.11 58.7219 1567.11 51.4303 L1567.11 49.7694 L1559.7 49.7694 M1574.57 46.6907 L1574.57 72.576 L1567.11 72.576 L1567.11 65.6895 Q1564.56 69.8214 1560.75 71.8063 Q1556.95 73.7508 1551.44 73.7508 Q1544.47 73.7508 1540.34 69.8619 Q1536.25 65.9325 1536.25 59.3701 Q1536.25 51.7138 1541.35 47.825 Q1546.49 43.9361 1556.66 43.9361 L1567.11 43.9361 L1567.11 43.2069 Q1567.11 38.0623 1563.71 35.2672 Q1560.35 32.4315 1554.23 32.4315 Q1550.34 32.4315 1546.66 33.3632 Q1542.97 34.295 1539.57 36.1584 L1539.57 29.2718 Q1543.66 27.692 1547.51 26.9223 Q1551.36 26.1121 1555 26.1121 Q1564.85 26.1121 1569.71 31.2163 Q1574.57 36.3204 1574.57 46.6907 Z" fill="#000000" fill-rule="nonzero" fill-opacity="1" /><path clip-path="url(#clip930)" d="M1619.78 34.0924 L1619.78 9.54393 L1627.23 9.54393 L1627.23 72.576 L1619.78 72.576 L1619.78 65.7705 Q1617.43 69.8214 1613.82 71.8063 Q1610.26 73.7508 1605.23 73.7508 Q1597.01 73.7508 1591.82 67.1883 Q1586.68 60.6258 1586.68 49.9314 Q1586.68 39.2371 1591.82 32.6746 Q1597.01 26.1121 1605.23 26.1121 Q1610.26 26.1121 1613.82 28.0971 Q1617.43 30.0415 1619.78 34.0924 M1594.38 49.9314 Q1594.38 58.1548 1597.74 62.8538 Q1601.14 67.5124 1607.06 67.5124 Q1612.97 67.5124 1616.37 62.8538 Q1619.78 58.1548 1619.78 49.9314 Q1619.78 41.7081 1616.37 37.0496 Q1612.97 32.3505 1607.06 32.3505 Q1601.14 32.3505 1597.74 37.0496 Q1594.38 41.7081 1594.38 49.9314 Z" fill="#000000" fill-rule="nonzero" fill-opacity="1" /><path clip-path="url(#clip930)" d="M1665.19 46.5287 L1687.02 46.5287 L1687.02 53.1722 L1665.19 53.1722 L1665.19 46.5287 Z" fill="#000000" fill-rule="nonzero" fill-opacity="1" /><path clip-path="url(#clip930)" d="M1725.59 12.096 L1733.77 12.096 L1733.77 72.576 L1725.59 72.576 L1725.59 12.096 Z" fill="#000000" fill-rule="nonzero" fill-opacity="1" /><path clip-path="url(#clip930)" d="M1757.1 14.324 L1757.1 27.2059 L1772.45 27.2059 L1772.45 32.9987 L1757.1 32.9987 L1757.1 57.6282 Q1757.1 63.1779 1758.6 64.7578 Q1760.14 66.3376 1764.8 66.3376 L1772.45 66.3376 L1772.45 72.576 L1764.8 72.576 Q1756.17 72.576 1752.89 69.3758 Q1749.61 66.1351 1749.61 57.6282 L1749.61 32.9987 L1744.14 32.9987 L1744.14 27.2059 L1749.61 27.2059 L1749.61 14.324 L1757.1 14.324 Z" fill="#000000" fill-rule="nonzero" fill-opacity="1" /><path clip-path="url(#clip930)" d="M1821.07 48.0275 L1821.07 51.6733 L1786.79 51.6733 Q1787.28 59.3701 1791.41 63.421 Q1795.58 67.4314 1803 67.4314 Q1807.29 67.4314 1811.3 66.3781 Q1815.35 65.3249 1819.32 63.2184 L1819.32 70.267 Q1815.31 71.9684 1811.1 72.8596 Q1806.89 73.7508 1802.55 73.7508 Q1791.7 73.7508 1785.34 67.4314 Q1779.02 61.1119 1779.02 50.3365 Q1779.02 39.1965 1785.01 32.6746 Q1791.05 26.1121 1801.26 26.1121 Q1810.41 26.1121 1815.72 32.0264 Q1821.07 37.9003 1821.07 48.0275 M1813.61 45.84 Q1813.53 39.7232 1810.17 36.0774 Q1806.85 32.4315 1801.34 32.4315 Q1795.1 32.4315 1791.33 35.9558 Q1787.6 39.4801 1787.04 45.8805 L1813.61 45.84 Z" fill="#000000" fill-rule="nonzero" fill-opacity="1" /><path clip-path="url(#clip930)" d="M1859.59 34.1734 Q1858.33 33.4443 1856.83 33.1202 Q1855.38 32.7556 1853.59 32.7556 Q1847.27 32.7556 1843.87 36.8875 Q1840.51 40.9789 1840.51 48.6757 L1840.51 72.576 L1833.02 72.576 L1833.02 27.2059 L1840.51 27.2059 L1840.51 34.2544 Q1842.86 30.1225 1846.63 28.1376 Q1850.39 26.1121 1855.78 26.1121 Q1856.55 26.1121 1857.48 26.2337 Q1858.41 26.3147 1859.55 26.5172 L1859.59 34.1734 Z" fill="#000000" fill-rule="nonzero" fill-opacity="1" /><path clip-path="url(#clip930)" d="M1888.03 49.7694 Q1878.99 49.7694 1875.51 51.8354 Q1872.03 53.9013 1872.03 58.8839 Q1872.03 62.8538 1874.62 65.2034 Q1877.25 67.5124 1881.75 67.5124 Q1887.95 67.5124 1891.67 63.1374 Q1895.44 58.7219 1895.44 51.4303 L1895.44 49.7694 L1888.03 49.7694 M1902.89 46.6907 L1902.89 72.576 L1895.44 72.576 L1895.44 65.6895 Q1892.89 69.8214 1889.08 71.8063 Q1885.27 73.7508 1879.76 73.7508 Q1872.8 73.7508 1868.66 69.8619 Q1864.57 65.9325 1864.57 59.3701 Q1864.57 51.7138 1869.68 47.825 Q1874.82 43.9361 1884.99 43.9361 L1895.44 43.9361 L1895.44 43.2069 Q1895.44 38.0623 1892.04 35.2672 Q1888.67 32.4315 1882.56 32.4315 Q1878.67 32.4315 1874.98 33.3632 Q1871.3 34.295 1867.89 36.1584 L1867.89 29.2718 Q1871.99 27.692 1875.83 26.9223 Q1879.68 26.1121 1883.33 26.1121 Q1893.17 26.1121 1898.03 31.2163 Q1902.89 36.3204 1902.89 46.6907 Z" fill="#000000" fill-rule="nonzero" fill-opacity="1" /><path clip-path="url(#clip930)" d="M1925.62 14.324 L1925.62 27.2059 L1940.97 27.2059 L1940.97 32.9987 L1925.62 32.9987 L1925.62 57.6282 Q1925.62 63.1779 1927.12 64.7578 Q1928.66 66.3376 1933.32 66.3376 L1940.97 66.3376 L1940.97 72.576 L1933.32 72.576 Q1924.69 72.576 1921.41 69.3758 Q1918.12 66.1351 1918.12 57.6282 L1918.12 32.9987 L1912.66 32.9987 L1912.66 27.2059 L1918.12 27.2059 L1918.12 14.324 L1925.62 14.324 Z" fill="#000000" fill-rule="nonzero" fill-opacity="1" /><path clip-path="url(#clip930)" d="M1950.78 27.2059 L1958.23 27.2059 L1958.23 72.576 L1950.78 72.576 L1950.78 27.2059 M1950.78 9.54393 L1958.23 9.54393 L1958.23 18.9825 L1950.78 18.9825 L1950.78 9.54393 Z" fill="#000000" fill-rule="nonzero" fill-opacity="1" /><path clip-path="url(#clip930)" d="M1991.41 32.4315 Q1985.41 32.4315 1981.93 37.1306 Q1978.44 41.7891 1978.44 49.9314 Q1978.44 58.0738 1981.89 62.7728 Q1985.37 67.4314 1991.41 67.4314 Q1997.36 67.4314 2000.84 62.7323 Q2004.33 58.0333 2004.33 49.9314 Q2004.33 41.8701 2000.84 37.1711 Q1997.36 32.4315 1991.41 32.4315 M1991.41 26.1121 Q2001.13 26.1121 2006.68 32.4315 Q2012.23 38.7509 2012.23 49.9314 Q2012.23 61.0714 2006.68 67.4314 Q2001.13 73.7508 1991.41 73.7508 Q1981.64 73.7508 1976.09 67.4314 Q1970.58 61.0714 1970.58 49.9314 Q1970.58 38.7509 1976.09 32.4315 Q1981.64 26.1121 1991.41 26.1121 Z" fill="#000000" fill-rule="nonzero" fill-opacity="1" /><path clip-path="url(#clip930)" d="M2062.3 45.1919 L2062.3 72.576 L2054.84 72.576 L2054.84 45.4349 Q2054.84 38.994 2052.33 35.7938 Q2049.82 32.5936 2044.8 32.5936 Q2038.76 32.5936 2035.28 36.4419 Q2031.79 40.2903 2031.79 46.9338 L2031.79 72.576 L2024.3 72.576 L2024.3 27.2059 L2031.79 27.2059 L2031.79 34.2544 Q2034.47 30.163 2038.07 28.1376 Q2041.72 26.1121 2046.46 26.1121 Q2054.28 26.1121 2058.29 30.9732 Q2062.3 35.7938 2062.3 45.1919 Z" fill="#000000" fill-rule="nonzero" fill-opacity="1" /><path clip-path="url(#clip930)" d="M2102.52 12.096 L2141.41 12.096 L2141.41 15.5798 L2119.45 72.576 L2110.91 72.576 L2131.57 18.9825 L2102.52 18.9825 L2102.52 12.096 Z" fill="#000000" fill-rule="nonzero" fill-opacity="1" /><path clip-path="url(#clip932)" d="M913.624 125.743 L913.624 1423.18 L1011.9 1423.18 L1011.9 125.743 L913.624 125.743 L913.624 125.743  Z" fill="#009af9" fill-rule="evenodd" fill-opacity="1"/>
<polyline clip-path="url(#clip932)" style="stroke:#000000; stroke-linecap:round; stroke-linejoin:round; stroke-width:4; stroke-opacity:1; fill:none" points="913.624,125.743 913.624,1423.18 1011.9,1423.18 1011.9,125.743 913.624,125.743 "/>
<path clip-path="url(#clip932)" d="M1773.57 190.73 L1773.57 1423.18 L1871.85 1423.18 L1871.85 190.73 L1773.57 190.73 L1773.57 190.73  Z" fill="#009af9" fill-rule="evenodd" fill-opacity="1"/>
<polyline clip-path="url(#clip932)" style="stroke:#000000; stroke-linecap:round; stroke-linejoin:round; stroke-width:4; stroke-opacity:1; fill:none" points="1773.57,190.73 1773.57,1423.18 1871.85,1423.18 1871.85,190.73 1773.57,190.73 "/>
<path clip-path="url(#clip932)" d="M1282.17 167.758 L1282.17 1423.18 L1380.45 1423.18 L1380.45 167.758 L1282.17 167.758 L1282.17 167.758  Z" fill="#009af9" fill-rule="evenodd" fill-opacity="1"/>
<polyline clip-path="url(#clip932)" style="stroke:#000000; stroke-linecap:round; stroke-linejoin:round; stroke-width:4; stroke-opacity:1; fill:none" points="1282.17,167.758 1282.17,1423.18 1380.45,1423.18 1380.45,167.758 1282.17,167.758 "/>
<path clip-path="url(#clip932)" d="M422.228 128.818 L422.228 1423.18 L520.508 1423.18 L520.508 128.818 L422.228 128.818 L422.228 128.818  Z" fill="#009af9" fill-rule="evenodd" fill-opacity="1"/>
<polyline clip-path="url(#clip932)" style="stroke:#000000; stroke-linecap:round; stroke-linejoin:round; stroke-width:4; stroke-opacity:1; fill:none" points="422.228,128.818 422.228,1423.18 520.508,1423.18 520.508,128.818 422.228,128.818 "/>
<path clip-path="url(#clip932)" d="M1036.47 180.48 L1036.47 1423.18 L1134.75 1423.18 L1134.75 180.48 L1036.47 180.48 L1036.47 180.48  Z" fill="#009af9" fill-rule="evenodd" fill-opacity="1"/>
<polyline clip-path="url(#clip932)" style="stroke:#000000; stroke-linecap:round; stroke-linejoin:round; stroke-width:4; stroke-opacity:1; fill:none" points="1036.47,180.48 1036.47,1423.18 1134.75,1423.18 1134.75,180.48 1036.47,180.48 "/>
<path clip-path="url(#clip932)" d="M1650.72 196.403 L1650.72 1423.18 L1749 1423.18 L1749 196.403 L1650.72 196.403 L1650.72 196.403  Z" fill="#009af9" fill-rule="evenodd" fill-opacity="1"/>
<polyline clip-path="url(#clip932)" style="stroke:#000000; stroke-linecap:round; stroke-linejoin:round; stroke-width:4; stroke-opacity:1; fill:none" points="1650.72,196.403 1650.72,1423.18 1749,1423.18 1749,196.403 1650.72,196.403 "/>
<path clip-path="url(#clip932)" d="M1405.02 193.498 L1405.02 1423.18 L1503.3 1423.18 L1503.3 193.498 L1405.02 193.498 L1405.02 193.498  Z" fill="#009af9" fill-rule="evenodd" fill-opacity="1"/>
<polyline clip-path="url(#clip932)" style="stroke:#000000; stroke-linecap:round; stroke-linejoin:round; stroke-width:4; stroke-opacity:1; fill:none" points="1405.02,193.498 1405.02,1423.18 1503.3,1423.18 1503.3,193.498 1405.02,193.498 "/>
<path clip-path="url(#clip932)" d="M2019.27 216.232 L2019.27 1423.18 L2117.54 1423.18 L2117.54 216.232 L2019.27 216.232 L2019.27 216.232  Z" fill="#009af9" fill-rule="evenodd" fill-opacity="1"/>
<polyline clip-path="url(#clip932)" style="stroke:#000000; stroke-linecap:round; stroke-linejoin:round; stroke-width:4; stroke-opacity:1; fill:none" points="2019.27,216.232 2019.27,1423.18 2117.54,1423.18 2117.54,216.232 2019.27,216.232 "/>
<path clip-path="url(#clip932)" d="M667.926 161.396 L667.926 1423.18 L766.206 1423.18 L766.206 161.396 L667.926 161.396 L667.926 161.396  Z" fill="#009af9" fill-rule="evenodd" fill-opacity="1"/>
<polyline clip-path="url(#clip932)" style="stroke:#000000; stroke-linecap:round; stroke-linejoin:round; stroke-width:4; stroke-opacity:1; fill:none" points="667.926,161.396 667.926,1423.18 766.206,1423.18 766.206,161.396 667.926,161.396 "/>
<path clip-path="url(#clip932)" d="M1159.32 173.54 L1159.32 1423.18 L1257.6 1423.18 L1257.6 173.54 L1159.32 173.54 L1159.32 173.54  Z" fill="#009af9" fill-rule="evenodd" fill-opacity="1"/>
<polyline clip-path="url(#clip932)" style="stroke:#000000; stroke-linecap:round; stroke-linejoin:round; stroke-width:4; stroke-opacity:1; fill:none" points="1159.32,173.54 1159.32,1423.18 1257.6,1423.18 1257.6,173.54 1159.32,173.54 "/>
<path clip-path="url(#clip932)" d="M790.775 123.472 L790.775 1423.18 L889.055 1423.18 L889.055 123.472 L790.775 123.472 L790.775 123.472  Z" fill="#009af9" fill-rule="evenodd" fill-opacity="1"/>
<polyline clip-path="url(#clip932)" style="stroke:#000000; stroke-linecap:round; stroke-linejoin:round; stroke-width:4; stroke-opacity:1; fill:none" points="790.775,123.472 790.775,1423.18 889.055,1423.18 889.055,123.472 790.775,123.472 "/>
<path clip-path="url(#clip932)" d="M1896.42 157.351 L1896.42 1423.18 L1994.7 1423.18 L1994.7 157.351 L1896.42 157.351 L1896.42 157.351  Z" fill="#009af9" fill-rule="evenodd" fill-opacity="1"/>
<polyline clip-path="url(#clip932)" style="stroke:#000000; stroke-linecap:round; stroke-linejoin:round; stroke-width:4; stroke-opacity:1; fill:none" points="1896.42,157.351 1896.42,1423.18 1994.7,1423.18 1994.7,157.351 1896.42,157.351 "/>
<path clip-path="url(#clip932)" d="M2142.11 190.66 L2142.11 1423.18 L2240.39 1423.18 L2240.39 190.66 L2142.11 190.66 L2142.11 190.66  Z" fill="#009af9" fill-rule="evenodd" fill-opacity="1"/>
<polyline clip-path="url(#clip932)" style="stroke:#000000; stroke-linecap:round; stroke-linejoin:round; stroke-width:4; stroke-opacity:1; fill:none" points="2142.11,190.66 2142.11,1423.18 2240.39,1423.18 2240.39,190.66 2142.11,190.66 "/>
<path clip-path="url(#clip932)" d="M545.077 204.033 L545.077 1423.18 L643.357 1423.18 L643.357 204.033 L545.077 204.033 L545.077 204.033  Z" fill="#009af9" fill-rule="evenodd" fill-opacity="1"/>
<polyline clip-path="url(#clip932)" style="stroke:#000000; stroke-linecap:round; stroke-linejoin:round; stroke-width:4; stroke-opacity:1; fill:none" points="545.077,204.033 545.077,1423.18 643.357,1423.18 643.357,204.033 545.077,204.033 "/>
<path clip-path="url(#clip932)" d="M1527.87 170.484 L1527.87 1423.18 L1626.15 1423.18 L1626.15 170.484 L1527.87 170.484 L1527.87 170.484  Z" fill="#009af9" fill-rule="evenodd" fill-opacity="1"/>
<polyline clip-path="url(#clip932)" style="stroke:#000000; stroke-linecap:round; stroke-linejoin:round; stroke-width:4; stroke-opacity:1; fill:none" points="1527.87,170.484 1527.87,1423.18 1626.15,1423.18 1626.15,170.484 1527.87,170.484 "/>
<circle clip-path="url(#clip932)" style="fill:#009af9; stroke:none; fill-opacity:0" cx="962.764" cy="125.743" r="2"/>
<circle clip-path="url(#clip932)" style="fill:#009af9; stroke:none; fill-opacity:0" cx="1822.71" cy="190.73" r="2"/>
<circle clip-path="url(#clip932)" style="fill:#009af9; stroke:none; fill-opacity:0" cx="1331.31" cy="167.758" r="2"/>
<circle clip-path="url(#clip932)" style="fill:#009af9; stroke:none; fill-opacity:0" cx="471.368" cy="128.818" r="2"/>
<circle clip-path="url(#clip932)" style="fill:#009af9; stroke:none; fill-opacity:0" cx="1085.61" cy="180.48" r="2"/>
<circle clip-path="url(#clip932)" style="fill:#009af9; stroke:none; fill-opacity:0" cx="1699.86" cy="196.403" r="2"/>
<circle clip-path="url(#clip932)" style="fill:#009af9; stroke:none; fill-opacity:0" cx="1454.16" cy="193.498" r="2"/>
<circle clip-path="url(#clip932)" style="fill:#009af9; stroke:none; fill-opacity:0" cx="2068.4" cy="216.232" r="2"/>
<circle clip-path="url(#clip932)" style="fill:#009af9; stroke:none; fill-opacity:0" cx="717.066" cy="161.396" r="2"/>
<circle clip-path="url(#clip932)" style="fill:#009af9; stroke:none; fill-opacity:0" cx="1208.46" cy="173.54" r="2"/>
<circle clip-path="url(#clip932)" style="fill:#009af9; stroke:none; fill-opacity:0" cx="839.915" cy="123.472" r="2"/>
<circle clip-path="url(#clip932)" style="fill:#009af9; stroke:none; fill-opacity:0" cx="1945.56" cy="157.351" r="2"/>
<circle clip-path="url(#clip932)" style="fill:#009af9; stroke:none; fill-opacity:0" cx="2191.25" cy="190.66" r="2"/>
<circle clip-path="url(#clip932)" style="fill:#009af9; stroke:none; fill-opacity:0" cx="594.217" cy="204.033" r="2"/>
<circle clip-path="url(#clip932)" style="fill:#009af9; stroke:none; fill-opacity:0" cx="1577.01" cy="170.484" r="2"/>
</svg>
