<?xml version="1.0" encoding="utf-8"?>
<svg xmlns="http://www.w3.org/2000/svg" xmlns:xlink="http://www.w3.org/1999/xlink" width="600" height="400" viewBox="0 0 2400 1600">
<defs>
  <clipPath id="clip360">
    <rect x="0" y="0" width="2400" height="1600"/>
  </clipPath>
</defs>
<path clip-path="url(#clip360)" d="M0 1600 L2400 1600 L2400 0 L0 0  Z" fill="#ffffff" fill-rule="evenodd" fill-opacity="1"/>
<defs>
  <clipPath id="clip361">
    <rect x="480" y="0" width="1681" height="1600"/>
  </clipPath>
</defs>
<path clip-path="url(#clip360)" d="M174.149 1423.18 L2352.76 1423.18 L2352.76 123.472 L174.149 123.472  Z" fill="#ffffff" fill-rule="evenodd" fill-opacity="1"/>
<defs>
  <clipPath id="clip362">
    <rect x="174" y="123" width="2180" height="1301"/>
  </clipPath>
</defs>
<polyline clip-path="url(#clip362)" style="stroke:#000000; stroke-linecap:round; stroke-linejoin:round; stroke-width:2; stroke-opacity:0.1; fill:none" points="215.37,1423.18 215.37,123.472 "/>
<polyline clip-path="url(#clip362)" style="stroke:#000000; stroke-linecap:round; stroke-linejoin:round; stroke-width:2; stroke-opacity:0.1; fill:none" points="870.422,1423.18 870.422,123.472 "/>
<polyline clip-path="url(#clip362)" style="stroke:#000000; stroke-linecap:round; stroke-linejoin:round; stroke-width:2; stroke-opacity:0.1; fill:none" points="1525.47,1423.18 1525.47,123.472 "/>
<polyline clip-path="url(#clip362)" style="stroke:#000000; stroke-linecap:round; stroke-linejoin:round; stroke-width:2; stroke-opacity:0.1; fill:none" points="2180.52,1423.18 2180.52,123.472 "/>
<polyline clip-path="url(#clip362)" style="stroke:#000000; stroke-linecap:round; stroke-linejoin:round; stroke-width:2; stroke-opacity:0.1; fill:none" points="174.149,1423.18 2352.76,1423.18 "/>
<polyline clip-path="url(#clip362)" style="stroke:#000000; stroke-linecap:round; stroke-linejoin:round; stroke-width:2; stroke-opacity:0.1; fill:none" points="174.149,1076.62 2352.76,1076.62 "/>
<polyline clip-path="url(#clip362)" style="stroke:#000000; stroke-linecap:round; stroke-linejoin:round; stroke-width:2; stroke-opacity:0.1; fill:none" points="174.149,730.062 2352.76,730.062 "/>
<polyline clip-path="url(#clip362)" style="stroke:#000000; stroke-linecap:round; stroke-linejoin:round; stroke-width:2; stroke-opacity:0.1; fill:none" points="174.149,383.503 2352.76,383.503 "/>
<polyline clip-path="url(#clip360)" style="stroke:#000000; stroke-linecap:round; stroke-linejoin:round; stroke-width:4; stroke-opacity:1; fill:none" points="174.149,1423.18 2352.76,1423.18 "/>
<polyline clip-path="url(#clip360)" style="stroke:#000000; stroke-linecap:round; stroke-linejoin:round; stroke-width:4; stroke-opacity:1; fill:none" points="215.37,1423.18 215.37,1404.28 "/>
<polyline clip-path="url(#clip360)" style="stroke:#000000; stroke-linecap:round; stroke-linejoin:round; stroke-width:4; stroke-opacity:1; fill:none" points="870.422,1423.18 870.422,1404.28 "/>
<polyline clip-path="url(#clip360)" style="stroke:#000000; stroke-linecap:round; stroke-linejoin:round; stroke-width:4; stroke-opacity:1; fill:none" points="1525.47,1423.18 1525.47,1404.28 "/>
<polyline clip-path="url(#clip360)" style="stroke:#000000; stroke-linecap:round; stroke-linejoin:round; stroke-width:4; stroke-opacity:1; fill:none" points="2180.52,1423.18 2180.52,1404.28 "/>
<path clip-path="url(#clip360)" d="M215.37 1454.1 Q211.759 1454.1 209.93 1457.66 Q208.125 1461.2 208.125 1468.33 Q208.125 1475.44 209.93 1479.01 Q211.759 1482.55 215.37 1482.55 Q219.004 1482.55 220.81 1479.01 Q222.638 1475.44 222.638 1468.33 Q222.638 1461.2 220.81 1457.66 Q219.004 1454.1 215.37 1454.1 M215.37 1450.39 Q221.18 1450.39 224.236 1455 Q227.314 1459.58 227.314 1468.33 Q227.314 1477.06 224.236 1481.67 Q221.18 1486.25 215.37 1486.25 Q209.56 1486.25 206.481 1481.67 Q203.426 1477.06 203.426 1468.33 Q203.426 1459.58 206.481 1455 Q209.56 1450.39 215.37 1450.39 Z" fill="#000000" fill-rule="nonzero" fill-opacity="1" /><path clip-path="url(#clip360)" d="M860.699 1451.02 L879.056 1451.02 L879.056 1454.96 L864.982 1454.96 L864.982 1463.43 Q866 1463.08 867.019 1462.92 Q868.037 1462.73 869.056 1462.73 Q874.843 1462.73 878.222 1465.9 Q881.602 1469.08 881.602 1474.49 Q881.602 1480.07 878.13 1483.17 Q874.658 1486.25 868.338 1486.25 Q866.162 1486.25 863.894 1485.88 Q861.648 1485.51 859.241 1484.77 L859.241 1480.07 Q861.324 1481.2 863.547 1481.76 Q865.769 1482.32 868.246 1482.32 Q872.25 1482.32 874.588 1480.21 Q876.926 1478.1 876.926 1474.49 Q876.926 1470.88 874.588 1468.77 Q872.25 1466.67 868.246 1466.67 Q866.371 1466.67 864.496 1467.08 Q862.644 1467.5 860.699 1468.38 L860.699 1451.02 Z" fill="#000000" fill-rule="nonzero" fill-opacity="1" /><path clip-path="url(#clip360)" d="M1500.16 1481.64 L1507.8 1481.64 L1507.8 1455.28 L1499.49 1456.95 L1499.49 1452.69 L1507.75 1451.02 L1512.43 1451.02 L1512.43 1481.64 L1520.07 1481.64 L1520.07 1485.58 L1500.16 1485.58 L1500.16 1481.64 Z" fill="#000000" fill-rule="nonzero" fill-opacity="1" /><path clip-path="url(#clip360)" d="M1539.51 1454.1 Q1535.9 1454.1 1534.07 1457.66 Q1532.27 1461.2 1532.27 1468.33 Q1532.27 1475.44 1534.07 1479.01 Q1535.9 1482.55 1539.51 1482.55 Q1543.15 1482.55 1544.95 1479.01 Q1546.78 1475.44 1546.78 1468.33 Q1546.78 1461.2 1544.95 1457.66 Q1543.15 1454.1 1539.51 1454.1 M1539.51 1450.39 Q1545.32 1450.39 1548.38 1455 Q1551.46 1459.58 1551.46 1468.33 Q1551.46 1477.06 1548.38 1481.67 Q1545.32 1486.25 1539.51 1486.25 Q1533.7 1486.25 1530.62 1481.67 Q1527.57 1477.06 1527.57 1468.33 Q1527.57 1459.58 1530.62 1455 Q1533.7 1450.39 1539.51 1450.39 Z" fill="#000000" fill-rule="nonzero" fill-opacity="1" /><path clip-path="url(#clip360)" d="M2155.71 1481.64 L2163.35 1481.64 L2163.35 1455.28 L2155.04 1456.95 L2155.04 1452.69 L2163.3 1451.02 L2167.98 1451.02 L2167.98 1481.64 L2175.62 1481.64 L2175.62 1485.58 L2155.71 1485.58 L2155.71 1481.64 Z" fill="#000000" fill-rule="nonzero" fill-opacity="1" /><path clip-path="url(#clip360)" d="M2185.11 1451.02 L2203.46 1451.02 L2203.46 1454.96 L2189.39 1454.96 L2189.39 1463.43 Q2190.41 1463.08 2191.43 1462.92 Q2192.45 1462.73 2193.46 1462.73 Q2199.25 1462.73 2202.63 1465.9 Q2206.01 1469.08 2206.01 1474.49 Q2206.01 1480.07 2202.54 1483.17 Q2199.07 1486.25 2192.75 1486.25 Q2190.57 1486.25 2188.3 1485.88 Q2186.06 1485.51 2183.65 1484.77 L2183.65 1480.07 Q2185.73 1481.2 2187.96 1481.76 Q2190.18 1482.32 2192.65 1482.32 Q2196.66 1482.32 2199 1480.21 Q2201.33 1478.1 2201.33 1474.49 Q2201.33 1470.88 2199 1468.77 Q2196.66 1466.67 2192.65 1466.67 Q2190.78 1466.67 2188.9 1467.08 Q2187.05 1467.5 2185.11 1468.38 L2185.11 1451.02 Z" fill="#000000" fill-rule="nonzero" fill-opacity="1" /><path clip-path="url(#clip360)" d="M1145.32 1520.52 L1151.75 1520.52 L1151.75 1562.63 L1174.89 1562.63 L1174.89 1568.04 L1145.32 1568.04 L1145.32 1520.52 Z" fill="#000000" fill-rule="nonzero" fill-opacity="1" /><path clip-path="url(#clip360)" d="M1194.05 1536.5 Q1189.34 1536.5 1186.6 1540.19 Q1183.87 1543.85 1183.87 1550.25 Q1183.87 1556.65 1186.57 1560.34 Q1189.31 1564 1194.05 1564 Q1198.73 1564 1201.47 1560.31 Q1204.2 1556.62 1204.2 1550.25 Q1204.2 1543.92 1201.47 1540.23 Q1198.73 1536.5 1194.05 1536.5 M1194.05 1531.54 Q1201.69 1531.54 1206.05 1536.5 Q1210.41 1541.47 1210.41 1550.25 Q1210.41 1559 1206.05 1564 Q1201.69 1568.97 1194.05 1568.97 Q1186.38 1568.97 1182.02 1564 Q1177.69 1559 1177.69 1550.25 Q1177.69 1541.47 1182.02 1536.5 Q1186.38 1531.54 1194.05 1531.54 Z" fill="#000000" fill-rule="nonzero" fill-opacity="1" /><path clip-path="url(#clip360)" d="M1236.32 1550.12 Q1229.22 1550.12 1226.48 1551.75 Q1223.75 1553.37 1223.75 1557.29 Q1223.75 1560.4 1225.78 1562.25 Q1227.85 1564.07 1231.39 1564.07 Q1236.25 1564.07 1239.18 1560.63 Q1242.14 1557.16 1242.14 1551.43 L1242.14 1550.12 L1236.32 1550.12 M1248 1547.71 L1248 1568.04 L1242.14 1568.04 L1242.14 1562.63 Q1240.14 1565.88 1237.15 1567.44 Q1234.15 1568.97 1229.83 1568.97 Q1224.35 1568.97 1221.1 1565.91 Q1217.89 1562.82 1217.89 1557.67 Q1217.89 1551.65 1221.9 1548.6 Q1225.94 1545.54 1233.93 1545.54 L1242.14 1545.54 L1242.14 1544.97 Q1242.14 1540.93 1239.47 1538.73 Q1236.83 1536.5 1232.02 1536.5 Q1228.97 1536.5 1226.07 1537.23 Q1223.17 1537.97 1220.5 1539.43 L1220.5 1534.02 Q1223.71 1532.78 1226.74 1532.17 Q1229.76 1531.54 1232.63 1531.54 Q1240.36 1531.54 1244.18 1535.55 Q1248 1539.56 1248 1547.71 Z" fill="#000000" fill-rule="nonzero" fill-opacity="1" /><path clip-path="url(#clip360)" d="M1283.52 1537.81 L1283.52 1518.52 L1289.38 1518.52 L1289.38 1568.04 L1283.52 1568.04 L1283.52 1562.7 Q1281.67 1565.88 1278.84 1567.44 Q1276.04 1568.97 1272.09 1568.97 Q1265.63 1568.97 1261.56 1563.81 Q1257.52 1558.65 1257.52 1550.25 Q1257.52 1541.85 1261.56 1536.69 Q1265.63 1531.54 1272.09 1531.54 Q1276.04 1531.54 1278.84 1533.1 Q1281.67 1534.62 1283.52 1537.81 M1263.56 1550.25 Q1263.56 1556.71 1266.21 1560.4 Q1268.88 1564.07 1273.53 1564.07 Q1278.17 1564.07 1280.85 1560.4 Q1283.52 1556.71 1283.52 1550.25 Q1283.52 1543.79 1280.85 1540.13 Q1278.17 1536.44 1273.53 1536.44 Q1268.88 1536.44 1266.21 1540.13 Q1263.56 1543.79 1263.56 1550.25 Z" fill="#000000" fill-rule="nonzero" fill-opacity="1" /><path clip-path="url(#clip360)" d="M1322.41 1520.52 L1328.84 1520.52 L1328.84 1568.04 L1322.41 1568.04 L1322.41 1520.52 Z" fill="#000000" fill-rule="nonzero" fill-opacity="1" /><path clip-path="url(#clip360)" d="M1348.07 1525.81 L1348.07 1562.76 L1355.83 1562.76 Q1365.67 1562.76 1370.22 1558.3 Q1374.8 1553.85 1374.8 1544.24 Q1374.8 1534.69 1370.22 1530.26 Q1365.67 1525.81 1355.83 1525.81 L1348.07 1525.81 M1341.64 1520.52 L1354.85 1520.52 Q1368.66 1520.52 1375.12 1526.28 Q1381.58 1532.01 1381.58 1544.24 Q1381.58 1556.52 1375.09 1562.28 Q1368.6 1568.04 1354.85 1568.04 L1341.64 1568.04 L1341.64 1520.52 Z" fill="#000000" fill-rule="nonzero" fill-opacity="1" /><polyline clip-path="url(#clip360)" style="stroke:#000000; stroke-linecap:round; stroke-linejoin:round; stroke-width:4; stroke-opacity:1; fill:none" points="174.149,1423.18 174.149,123.472 "/>
<polyline clip-path="url(#clip360)" style="stroke:#000000; stroke-linecap:round; stroke-linejoin:round; stroke-width:4; stroke-opacity:1; fill:none" points="174.149,1423.18 193.047,1423.18 "/>
<polyline clip-path="url(#clip360)" style="stroke:#000000; stroke-linecap:round; stroke-linejoin:round; stroke-width:4; stroke-opacity:1; fill:none" points="174.149,1076.62 193.047,1076.62 "/>
<polyline clip-path="url(#clip360)" style="stroke:#000000; stroke-linecap:round; stroke-linejoin:round; stroke-width:4; stroke-opacity:1; fill:none" points="174.149,730.062 193.047,730.062 "/>
<polyline clip-path="url(#clip360)" style="stroke:#000000; stroke-linecap:round; stroke-linejoin:round; stroke-width:4; stroke-opacity:1; fill:none" points="174.149,383.503 193.047,383.503 "/>
<path clip-path="url(#clip360)" d="M126.205 1408.98 Q122.593 1408.98 120.765 1412.54 Q118.959 1416.08 118.959 1423.21 Q118.959 1430.32 120.765 1433.89 Q122.593 1437.43 126.205 1437.43 Q129.839 1437.43 131.644 1433.89 Q133.473 1430.32 133.473 1423.21 Q133.473 1416.08 131.644 1412.54 Q129.839 1408.98 126.205 1408.98 M126.205 1405.27 Q132.015 1405.27 135.07 1409.88 Q138.149 1414.46 138.149 1423.21 Q138.149 1431.94 135.07 1436.55 Q132.015 1441.13 126.205 1441.13 Q120.394 1441.13 117.316 1436.55 Q114.26 1431.94 114.26 1423.21 Q114.26 1414.46 117.316 1409.88 Q120.394 1405.27 126.205 1405.27 Z" fill="#000000" fill-rule="nonzero" fill-opacity="1" /><path clip-path="url(#clip360)" d="M118.242 1089.97 L125.88 1089.97 L125.88 1063.6 L117.57 1065.27 L117.57 1061.01 L125.834 1059.34 L130.51 1059.34 L130.51 1089.97 L138.149 1089.97 L138.149 1093.9 L118.242 1093.9 L118.242 1089.97 Z" fill="#000000" fill-rule="nonzero" fill-opacity="1" /><path clip-path="url(#clip360)" d="M121.83 743.407 L138.149 743.407 L138.149 747.342 L116.205 747.342 L116.205 743.407 Q118.867 740.652 123.45 736.023 Q128.056 731.37 129.237 730.027 Q131.482 727.504 132.362 725.768 Q133.265 724.009 133.265 722.319 Q133.265 719.565 131.32 717.828 Q129.399 716.092 126.297 716.092 Q124.098 716.092 121.644 716.856 Q119.214 717.62 116.436 719.171 L116.436 714.449 Q119.26 713.315 121.714 712.736 Q124.168 712.157 126.205 712.157 Q131.575 712.157 134.769 714.842 Q137.964 717.528 137.964 722.018 Q137.964 724.148 137.154 726.069 Q136.367 727.967 134.26 730.56 Q133.681 731.231 130.58 734.449 Q127.478 737.643 121.83 743.407 Z" fill="#000000" fill-rule="nonzero" fill-opacity="1" /><path clip-path="url(#clip360)" d="M131.019 382.149 Q134.376 382.867 136.251 385.135 Q138.149 387.404 138.149 390.737 Q138.149 395.853 134.63 398.654 Q131.112 401.455 124.63 401.455 Q122.455 401.455 120.14 401.015 Q117.848 400.598 115.394 399.742 L115.394 395.228 Q117.339 396.362 119.654 396.941 Q121.968 397.52 124.492 397.52 Q128.89 397.52 131.181 395.783 Q133.496 394.047 133.496 390.737 Q133.496 387.682 131.343 385.969 Q129.214 384.233 125.394 384.233 L121.367 384.233 L121.367 380.39 L125.58 380.39 Q129.029 380.39 130.857 379.024 Q132.686 377.635 132.686 375.043 Q132.686 372.381 130.788 370.969 Q128.913 369.534 125.394 369.534 Q123.473 369.534 121.274 369.95 Q119.075 370.367 116.436 371.247 L116.436 367.08 Q119.098 366.339 121.413 365.969 Q123.751 365.598 125.811 365.598 Q131.135 365.598 134.237 368.029 Q137.339 370.436 137.339 374.557 Q137.339 377.427 135.695 379.418 Q134.052 381.385 131.019 382.149 Z" fill="#000000" fill-rule="nonzero" fill-opacity="1" /><path clip-path="url(#clip360)" d="M16.4842 1039.99 L16.4842 1012.68 L21.895 1012.68 L21.895 1033.56 L35.8996 1033.56 L35.8996 1014.71 L41.3104 1014.71 L41.3104 1033.56 L64.0042 1033.56 L64.0042 1039.99 L16.4842 1039.99 Z" fill="#000000" fill-rule="nonzero" fill-opacity="1" /><path clip-path="url(#clip360)" d="M46.0847 992.529 Q46.0847 999.627 47.7079 1002.36 Q49.3312 1005.1 53.2461 1005.1 Q56.3653 1005.1 58.2114 1003.06 Q60.0256 1001 60.0256 997.463 Q60.0256 992.593 56.5881 989.665 Q53.1188 986.704 47.3897 986.704 L46.0847 986.704 L46.0847 992.529 M43.6657 980.848 L64.0042 980.848 L64.0042 986.704 L58.5933 986.704 Q61.8398 988.71 63.3994 991.702 Q64.9272 994.693 64.9272 999.022 Q64.9272 1004.5 61.8716 1007.74 Q58.7843 1010.96 53.6281 1010.96 Q47.6125 1010.96 44.5569 1006.95 Q41.5014 1002.91 41.5014 994.916 L41.5014 986.704 L40.9285 986.704 Q36.8862 986.704 34.6901 989.378 Q32.4621 992.02 32.4621 996.826 Q32.4621 999.881 33.1941 1002.78 Q33.9262 1005.67 35.3903 1008.35 L29.9795 1008.35 Q28.7381 1005.13 28.1334 1002.11 Q27.4968 999.086 27.4968 996.221 Q27.4968 988.487 31.5072 984.667 Q35.5176 980.848 43.6657 980.848 Z" fill="#000000" fill-rule="nonzero" fill-opacity="1" /><path clip-path="url(#clip360)" d="M28.3562 968.785 L28.3562 962.929 L64.0042 962.929 L64.0042 968.785 L28.3562 968.785 M14.479 968.785 L14.479 962.929 L21.895 962.929 L21.895 968.785 L14.479 968.785 Z" fill="#000000" fill-rule="nonzero" fill-opacity="1" /><path clip-path="url(#clip360)" d="M33.8307 930.018 Q33.2578 931.005 33.0032 932.182 Q32.7167 933.328 32.7167 934.728 Q32.7167 939.694 35.9632 942.367 Q39.1779 945.009 45.2253 945.009 L64.0042 945.009 L64.0042 950.897 L28.3562 950.897 L28.3562 945.009 L33.8944 945.009 Q30.6479 943.163 29.0883 940.203 Q27.4968 937.243 27.4968 933.01 Q27.4968 932.405 27.5923 931.673 Q27.656 930.941 27.8151 930.05 L33.8307 930.018 Z" fill="#000000" fill-rule="nonzero" fill-opacity="1" /><path clip-path="url(#clip360)" d="M16.4842 902.9 L16.4842 896.471 L58.5933 896.471 L58.5933 873.331 L64.0042 873.331 L64.0042 902.9 L16.4842 902.9 Z" fill="#000000" fill-rule="nonzero" fill-opacity="1" /><path clip-path="url(#clip360)" d="M32.4621 854.17 Q32.4621 858.881 36.1542 861.618 Q39.8145 864.356 46.212 864.356 Q52.6095 864.356 56.3017 861.65 Q59.9619 858.913 59.9619 854.17 Q59.9619 849.492 56.2698 846.754 Q52.5777 844.017 46.212 844.017 Q39.8781 844.017 36.186 846.754 Q32.4621 849.492 32.4621 854.17 M27.4968 854.17 Q27.4968 846.532 32.4621 842.171 Q37.4273 837.811 46.212 837.811 Q54.9649 837.811 59.9619 842.171 Q64.9272 846.532 64.9272 854.17 Q64.9272 861.841 59.9619 866.202 Q54.9649 870.53 46.212 870.53 Q37.4273 870.53 32.4621 866.202 Q27.4968 861.841 27.4968 854.17 Z" fill="#000000" fill-rule="nonzero" fill-opacity="1" /><path clip-path="url(#clip360)" d="M46.0847 811.902 Q46.0847 819 47.7079 821.737 Q49.3312 824.474 53.2461 824.474 Q56.3653 824.474 58.2114 822.437 Q60.0256 820.369 60.0256 816.836 Q60.0256 811.966 56.5881 809.038 Q53.1188 806.078 47.3897 806.078 L46.0847 806.078 L46.0847 811.902 M43.6657 800.221 L64.0042 800.221 L64.0042 806.078 L58.5933 806.078 Q61.8398 808.083 63.3994 811.075 Q64.9272 814.067 64.9272 818.395 Q64.9272 823.87 61.8716 827.116 Q58.7843 830.331 53.6281 830.331 Q47.6125 830.331 44.5569 826.32 Q41.5014 822.278 41.5014 814.289 L41.5014 806.078 L40.9285 806.078 Q36.8862 806.078 34.6901 808.751 Q32.4621 811.393 32.4621 816.199 Q32.4621 819.255 33.1941 822.151 Q33.9262 825.047 35.3903 827.721 L29.9795 827.721 Q28.7381 824.506 28.1334 821.483 Q27.4968 818.459 27.4968 815.594 Q27.4968 807.86 31.5072 804.041 Q35.5176 800.221 43.6657 800.221 Z" fill="#000000" fill-rule="nonzero" fill-opacity="1" /><path clip-path="url(#clip360)" d="M33.7671 764.7 L14.479 764.7 L14.479 758.844 L64.0042 758.844 L64.0042 764.7 L58.657 764.7 Q61.8398 766.547 63.3994 769.379 Q64.9272 772.18 64.9272 776.127 Q64.9272 782.588 59.771 786.662 Q54.6147 790.704 46.212 790.704 Q37.8093 790.704 32.6531 786.662 Q27.4968 782.588 27.4968 776.127 Q27.4968 772.18 29.0564 769.379 Q30.5842 766.547 33.7671 764.7 M46.212 784.657 Q52.6732 784.657 56.3653 782.015 Q60.0256 779.342 60.0256 774.695 Q60.0256 770.048 56.3653 767.374 Q52.6732 764.7 46.212 764.7 Q39.7508 764.7 36.0905 767.374 Q32.3984 770.048 32.3984 774.695 Q32.3984 779.342 36.0905 782.015 Q39.7508 784.657 46.212 784.657 Z" fill="#000000" fill-rule="nonzero" fill-opacity="1" /><path clip-path="url(#clip360)" d="M16.4842 730.039 L16.4842 723.546 L56.6518 713.552 L16.4842 703.59 L16.4842 696.365 L56.6518 686.37 L16.4842 676.408 L16.4842 669.883 L64.0042 681.819 L64.0042 689.903 L22.7544 699.929 L64.0042 710.051 L64.0042 718.135 L16.4842 730.039 Z" fill="#000000" fill-rule="nonzero" fill-opacity="1" /><path clip-path="url(#clip360)" d="M44.7161 634.936 L47.5806 634.936 L47.5806 661.862 Q53.6281 661.481 56.8109 658.234 Q59.9619 654.956 59.9619 649.131 Q59.9619 645.757 59.1344 642.606 Q58.3069 639.423 56.6518 636.304 L62.1899 636.304 Q63.5267 639.455 64.227 642.765 Q64.9272 646.076 64.9272 649.481 Q64.9272 658.011 59.9619 663.008 Q54.9967 667.974 46.5303 667.974 Q37.7774 667.974 32.6531 663.263 Q27.4968 658.52 27.4968 650.5 Q27.4968 643.306 32.1438 639.137 Q36.7589 634.936 44.7161 634.936 M42.9973 640.792 Q38.1912 640.856 35.3266 643.497 Q32.4621 646.107 32.4621 650.436 Q32.4621 655.338 35.2312 658.298 Q38.0002 661.226 43.0292 661.671 L42.9973 640.792 Z" fill="#000000" fill-rule="nonzero" fill-opacity="1" /><path clip-path="url(#clip360)" d="M28.3562 625.323 L28.3562 619.467 L64.0042 619.467 L64.0042 625.323 L28.3562 625.323 M14.479 625.323 L14.479 619.467 L21.895 619.467 L21.895 625.323 L14.479 625.323 Z" fill="#000000" fill-rule="nonzero" fill-opacity="1" /><path clip-path="url(#clip360)" d="M45.7664 583.755 Q39.4007 583.755 35.8996 586.397 Q32.3984 589.007 32.3984 593.749 Q32.3984 598.46 35.8996 601.102 Q39.4007 603.712 45.7664 603.712 Q52.1003 603.712 55.6014 601.102 Q59.1026 598.46 59.1026 593.749 Q59.1026 589.007 55.6014 586.397 Q52.1003 583.755 45.7664 583.755 M59.58 577.899 Q68.683 577.899 73.1071 581.941 Q77.5631 585.983 77.5631 594.322 Q77.5631 597.41 77.0857 600.147 Q76.6401 602.884 75.6852 605.462 L69.9879 605.462 Q71.3884 602.884 72.0568 600.37 Q72.7252 597.855 72.7252 595.245 Q72.7252 589.484 69.7015 586.62 Q66.7096 583.755 60.6303 583.755 L57.7339 583.755 Q60.885 585.569 62.4446 588.402 Q64.0042 591.235 64.0042 595.182 Q64.0042 601.738 59.0071 605.749 Q54.01 609.759 45.7664 609.759 Q37.491 609.759 32.4939 605.749 Q27.4968 601.738 27.4968 595.182 Q27.4968 591.235 29.0564 588.402 Q30.616 585.569 33.7671 583.755 L28.3562 583.755 L28.3562 577.899 L59.58 577.899 Z" fill="#000000" fill-rule="nonzero" fill-opacity="1" /><path clip-path="url(#clip360)" d="M42.4881 536.203 L64.0042 536.203 L64.0042 542.06 L42.679 542.06 Q37.6183 542.06 35.1038 544.033 Q32.5894 546.007 32.5894 549.953 Q32.5894 554.696 35.6131 557.433 Q38.6368 560.17 43.8567 560.17 L64.0042 560.17 L64.0042 566.059 L14.479 566.059 L14.479 560.17 L33.8944 560.17 Q30.6797 558.07 29.0883 555.237 Q27.4968 552.372 27.4968 548.648 Q27.4968 542.505 31.3163 539.354 Q35.1038 536.203 42.4881 536.203 Z" fill="#000000" fill-rule="nonzero" fill-opacity="1" /><path clip-path="url(#clip360)" d="M18.2347 518.73 L28.3562 518.73 L28.3562 506.667 L32.9077 506.667 L32.9077 518.73 L52.2594 518.73 Q56.6199 518.73 57.8613 517.552 Q59.1026 516.342 59.1026 512.682 L59.1026 506.667 L64.0042 506.667 L64.0042 512.682 Q64.0042 519.462 61.4897 522.04 Q58.9434 524.618 52.2594 524.618 L32.9077 524.618 L32.9077 528.915 L28.3562 528.915 L28.3562 524.618 L18.2347 524.618 L18.2347 518.73 Z" fill="#000000" fill-rule="nonzero" fill-opacity="1" /><path clip-path="url(#clip360)" d="M426.171 12.096 L460.928 12.096 L460.928 18.9825 L434.354 18.9825 L434.354 36.8065 L458.335 36.8065 L458.335 43.6931 L434.354 43.6931 L434.354 72.576 L426.171 72.576 L426.171 12.096 Z" fill="#000000" fill-rule="nonzero" fill-opacity="1" /><path clip-path="url(#clip360)" d="M486.57 49.7694 Q477.536 49.7694 474.053 51.8354 Q470.569 53.9013 470.569 58.8839 Q470.569 62.8538 473.162 65.2034 Q475.795 67.5124 480.291 67.5124 Q486.489 67.5124 490.216 63.1374 Q493.983 58.7219 493.983 51.4303 L493.983 49.7694 L486.57 49.7694 M501.437 46.6907 L501.437 72.576 L493.983 72.576 L493.983 65.6895 Q491.431 69.8214 487.623 71.8063 Q483.815 73.7508 478.306 73.7508 Q471.339 73.7508 467.207 69.8619 Q463.115 65.9325 463.115 59.3701 Q463.115 51.7138 468.219 47.825 Q473.364 43.9361 483.532 43.9361 L493.983 43.9361 L493.983 43.2069 Q493.983 38.0623 490.58 35.2672 Q487.218 32.4315 481.101 32.4315 Q477.212 32.4315 473.526 33.3632 Q469.84 34.295 466.437 36.1584 L466.437 29.2718 Q470.528 27.692 474.377 26.9223 Q478.225 26.1121 481.871 26.1121 Q491.715 26.1121 496.576 31.2163 Q501.437 36.3204 501.437 46.6907 Z" fill="#000000" fill-rule="nonzero" fill-opacity="1" /><path clip-path="url(#clip360)" d="M516.79 27.2059 L524.243 27.2059 L524.243 72.576 L516.79 72.576 L516.79 27.2059 M516.79 9.54393 L524.243 9.54393 L524.243 18.9825 L516.79 18.9825 L516.79 9.54393 Z" fill="#000000" fill-rule="nonzero" fill-opacity="1" /><path clip-path="url(#clip360)" d="M566.13 34.1734 Q564.874 33.4443 563.375 33.1202 Q561.917 32.7556 560.134 32.7556 Q553.815 32.7556 550.412 36.8875 Q547.05 40.9789 547.05 48.6757 L547.05 72.576 L539.556 72.576 L539.556 27.2059 L547.05 27.2059 L547.05 34.2544 Q549.4 30.1225 553.167 28.1376 Q556.934 26.1121 562.322 26.1121 Q563.092 26.1121 564.023 26.2337 Q564.955 26.3147 566.089 26.5172 L566.13 34.1734 Z" fill="#000000" fill-rule="nonzero" fill-opacity="1" /><path clip-path="url(#clip360)" d="M600.643 12.096 L608.826 12.096 L608.826 65.6895 L638.276 65.6895 L638.276 72.576 L600.643 72.576 L600.643 12.096 Z" fill="#000000" fill-rule="nonzero" fill-opacity="1" /><path clip-path="url(#clip360)" d="M662.663 32.4315 Q656.667 32.4315 653.184 37.1306 Q649.7 41.7891 649.7 49.9314 Q649.7 58.0738 653.143 62.7728 Q656.627 67.4314 662.663 67.4314 Q668.618 67.4314 672.101 62.7323 Q675.585 58.0333 675.585 49.9314 Q675.585 41.8701 672.101 37.1711 Q668.618 32.4315 662.663 32.4315 M662.663 26.1121 Q672.385 26.1121 677.935 32.4315 Q683.484 38.7509 683.484 49.9314 Q683.484 61.0714 677.935 67.4314 Q672.385 73.7508 662.663 73.7508 Q652.9 73.7508 647.35 67.4314 Q641.841 61.0714 641.841 49.9314 Q641.841 38.7509 647.35 32.4315 Q652.9 26.1121 662.663 26.1121 Z" fill="#000000" fill-rule="nonzero" fill-opacity="1" /><path clip-path="url(#clip360)" d="M716.459 49.7694 Q707.425 49.7694 703.942 51.8354 Q700.458 53.9013 700.458 58.8839 Q700.458 62.8538 703.05 65.2034 Q705.683 67.5124 710.18 67.5124 Q716.378 67.5124 720.105 63.1374 Q723.872 58.7219 723.872 51.4303 L723.872 49.7694 L716.459 49.7694 M731.326 46.6907 L731.326 72.576 L723.872 72.576 L723.872 65.6895 Q721.32 69.8214 717.512 71.8063 Q713.704 73.7508 708.195 73.7508 Q701.227 73.7508 697.095 69.8619 Q693.004 65.9325 693.004 59.3701 Q693.004 51.7138 698.108 47.825 Q703.253 43.9361 713.421 43.9361 L723.872 43.9361 L723.872 43.2069 Q723.872 38.0623 720.469 35.2672 Q717.107 32.4315 710.99 32.4315 Q707.101 32.4315 703.415 33.3632 Q699.729 34.295 696.326 36.1584 L696.326 29.2718 Q700.417 27.692 704.266 26.9223 Q708.114 26.1121 711.76 26.1121 Q721.603 26.1121 726.465 31.2163 Q731.326 36.3204 731.326 46.6907 Z" fill="#000000" fill-rule="nonzero" fill-opacity="1" /><path clip-path="url(#clip360)" d="M776.534 34.0924 L776.534 9.54393 L783.987 9.54393 L783.987 72.576 L776.534 72.576 L776.534 65.7705 Q774.184 69.8214 770.579 71.8063 Q767.014 73.7508 761.991 73.7508 Q753.768 73.7508 748.582 67.1883 Q743.438 60.6258 743.438 49.9314 Q743.438 39.2371 748.582 32.6746 Q753.768 26.1121 761.991 26.1121 Q767.014 26.1121 770.579 28.0971 Q774.184 30.0415 776.534 34.0924 M751.135 49.9314 Q751.135 58.1548 754.497 62.8538 Q757.9 67.5124 763.814 67.5124 Q769.728 67.5124 773.131 62.8538 Q776.534 58.1548 776.534 49.9314 Q776.534 41.7081 773.131 37.0496 Q769.728 32.3505 763.814 32.3505 Q757.9 32.3505 754.497 37.0496 Q751.135 41.7081 751.135 49.9314 Z" fill="#000000" fill-rule="nonzero" fill-opacity="1" /><path clip-path="url(#clip360)" d="M820.648 12.096 L828.912 12.096 L841.632 63.2184 L854.311 12.096 L863.507 12.096 L876.226 63.2184 L888.906 12.096 L897.21 12.096 L882.019 72.576 L871.73 72.576 L858.97 20.0763 L846.088 72.576 L835.798 72.576 L820.648 12.096 Z" fill="#000000" fill-rule="nonzero" fill-opacity="1" /><path clip-path="url(#clip360)" d="M941.689 48.0275 L941.689 51.6733 L907.418 51.6733 Q907.905 59.3701 912.036 63.421 Q916.209 67.4314 923.622 67.4314 Q927.916 67.4314 931.926 66.3781 Q935.977 65.3249 939.947 63.2184 L939.947 70.267 Q935.937 71.9684 931.724 72.8596 Q927.511 73.7508 923.176 73.7508 Q912.32 73.7508 905.96 67.4314 Q899.641 61.1119 899.641 50.3365 Q899.641 39.1965 905.636 32.6746 Q911.672 26.1121 921.88 26.1121 Q931.035 26.1121 936.342 32.0264 Q941.689 37.9003 941.689 48.0275 M934.235 45.84 Q934.154 39.7232 930.792 36.0774 Q927.47 32.4315 921.961 32.4315 Q915.723 32.4315 911.955 35.9558 Q908.229 39.4801 907.661 45.8805 L934.235 45.84 Z" fill="#000000" fill-rule="nonzero" fill-opacity="1" /><path clip-path="url(#clip360)" d="M953.923 27.2059 L961.376 27.2059 L961.376 72.576 L953.923 72.576 L953.923 27.2059 M953.923 9.54393 L961.376 9.54393 L961.376 18.9825 L953.923 18.9825 L953.923 9.54393 Z" fill="#000000" fill-rule="nonzero" fill-opacity="1" /><path clip-path="url(#clip360)" d="M1006.83 49.3643 Q1006.83 41.2625 1003.47 36.8065 Q1000.14 32.3505 994.108 32.3505 Q988.112 32.3505 984.75 36.8065 Q981.428 41.2625 981.428 49.3643 Q981.428 57.4256 984.75 61.8816 Q988.112 66.3376 994.108 66.3376 Q1000.14 66.3376 1003.47 61.8816 Q1006.83 57.4256 1006.83 49.3643 M1014.28 66.9452 Q1014.28 78.5308 1009.14 84.1616 Q1003.99 89.8329 993.379 89.8329 Q989.449 89.8329 985.965 89.2252 Q982.482 88.6581 979.2 87.4428 L979.2 80.1917 Q982.482 81.9741 985.682 82.8248 Q988.882 83.6755 992.204 83.6755 Q999.536 83.6755 1003.18 79.8271 Q1006.83 76.0193 1006.83 68.282 L1006.83 64.5957 Q1004.52 68.6061 1000.91 70.5911 Q997.308 72.576 992.285 72.576 Q983.94 72.576 978.836 66.2161 Q973.732 59.8562 973.732 49.3643 Q973.732 38.832 978.836 32.472 Q983.94 26.1121 992.285 26.1121 Q997.308 26.1121 1000.91 28.0971 Q1004.52 30.082 1006.83 34.0924 L1006.83 27.2059 L1014.28 27.2059 L1014.28 66.9452 Z" fill="#000000" fill-rule="nonzero" fill-opacity="1" /><path clip-path="url(#clip360)" d="M1067.35 45.1919 L1067.35 72.576 L1059.89 72.576 L1059.89 45.4349 Q1059.89 38.994 1057.38 35.7938 Q1054.87 32.5936 1049.85 32.5936 Q1043.81 32.5936 1040.33 36.4419 Q1036.84 40.2903 1036.84 46.9338 L1036.84 72.576 L1029.35 72.576 L1029.35 9.54393 L1036.84 9.54393 L1036.84 34.2544 Q1039.52 30.163 1043.12 28.1376 Q1046.77 26.1121 1051.51 26.1121 Q1059.33 26.1121 1063.34 30.9732 Q1067.35 35.7938 1067.35 45.1919 Z" fill="#000000" fill-rule="nonzero" fill-opacity="1" /><path clip-path="url(#clip360)" d="M1089.59 14.324 L1089.59 27.2059 L1104.94 27.2059 L1104.94 32.9987 L1089.59 32.9987 L1089.59 57.6282 Q1089.59 63.1779 1091.09 64.7578 Q1092.63 66.3376 1097.28 66.3376 L1104.94 66.3376 L1104.94 72.576 L1097.28 72.576 Q1088.66 72.576 1085.37 69.3758 Q1082.09 66.1351 1082.09 57.6282 L1082.09 32.9987 L1076.62 32.9987 L1076.62 27.2059 L1082.09 27.2059 L1082.09 14.324 L1089.59 14.324 Z" fill="#000000" fill-rule="nonzero" fill-opacity="1" /><path clip-path="url(#clip360)" d="M1143.67 28.5427 L1143.67 35.5912 Q1140.51 33.9709 1137.1 33.1607 Q1133.7 32.3505 1130.06 32.3505 Q1124.51 32.3505 1121.71 34.0519 Q1118.96 35.7533 1118.96 39.156 Q1118.96 41.7486 1120.94 43.2475 Q1122.93 44.7058 1128.92 46.0426 L1131.47 46.6097 Q1139.41 48.3111 1142.74 51.4303 Q1146.1 54.509 1146.1 60.0587 Q1146.1 66.3781 1141.07 70.0644 Q1136.09 73.7508 1127.34 73.7508 Q1123.7 73.7508 1119.73 73.0216 Q1115.8 72.3329 1111.42 70.9151 L1111.42 63.2184 Q1115.55 65.3654 1119.56 66.4591 Q1123.57 67.5124 1127.5 67.5124 Q1132.77 67.5124 1135.61 65.73 Q1138.44 63.9071 1138.44 60.6258 Q1138.44 57.5877 1136.38 55.9673 Q1134.35 54.3469 1127.42 52.8481 L1124.83 52.2405 Q1117.9 50.7821 1114.82 47.7845 Q1111.75 44.7463 1111.75 39.4801 Q1111.75 33.0797 1116.28 29.5959 Q1120.82 26.1121 1129.16 26.1121 Q1133.3 26.1121 1136.94 26.7198 Q1140.59 27.3274 1143.67 28.5427 Z" fill="#000000" fill-rule="nonzero" fill-opacity="1" /><path clip-path="url(#clip360)" d="M1191.55 65.7705 L1191.55 89.8329 L1184.05 89.8329 L1184.05 27.2059 L1191.55 27.2059 L1191.55 34.0924 Q1193.9 30.0415 1197.46 28.0971 Q1201.07 26.1121 1206.05 26.1121 Q1214.31 26.1121 1219.46 32.6746 Q1224.64 39.2371 1224.64 49.9314 Q1224.64 60.6258 1219.46 67.1883 Q1214.31 73.7508 1206.05 73.7508 Q1201.07 73.7508 1197.46 71.8063 Q1193.9 69.8214 1191.55 65.7705 M1216.91 49.9314 Q1216.91 41.7081 1213.5 37.0496 Q1210.14 32.3505 1204.23 32.3505 Q1198.31 32.3505 1194.91 37.0496 Q1191.55 41.7081 1191.55 49.9314 Q1191.55 58.1548 1194.91 62.8538 Q1198.31 67.5124 1204.23 67.5124 Q1210.14 67.5124 1213.5 62.8538 Q1216.91 58.1548 1216.91 49.9314 Z" fill="#000000" fill-rule="nonzero" fill-opacity="1" /><path clip-path="url(#clip360)" d="M1275.81 48.0275 L1275.81 51.6733 L1241.54 51.6733 Q1242.02 59.3701 1246.16 63.421 Q1250.33 67.4314 1257.74 67.4314 Q1262.03 67.4314 1266.04 66.3781 Q1270.1 65.3249 1274.07 63.2184 L1274.07 70.267 Q1270.06 71.9684 1265.84 72.8596 Q1261.63 73.7508 1257.3 73.7508 Q1246.44 73.7508 1240.08 67.4314 Q1233.76 61.1119 1233.76 50.3365 Q1233.76 39.1965 1239.75 32.6746 Q1245.79 26.1121 1256 26.1121 Q1265.15 26.1121 1270.46 32.0264 Q1275.81 37.9003 1275.81 48.0275 M1268.35 45.84 Q1268.27 39.7232 1264.91 36.0774 Q1261.59 32.4315 1256.08 32.4315 Q1249.84 32.4315 1246.07 35.9558 Q1242.35 39.4801 1241.78 45.8805 L1268.35 45.84 Z" fill="#000000" fill-rule="nonzero" fill-opacity="1" /><path clip-path="url(#clip360)" d="M1314.33 34.1734 Q1313.08 33.4443 1311.58 33.1202 Q1310.12 32.7556 1308.34 32.7556 Q1302.02 32.7556 1298.61 36.8875 Q1295.25 40.9789 1295.25 48.6757 L1295.25 72.576 L1287.76 72.576 L1287.76 27.2059 L1295.25 27.2059 L1295.25 34.2544 Q1297.6 30.1225 1301.37 28.1376 Q1305.14 26.1121 1310.52 26.1121 Q1311.29 26.1121 1312.23 26.2337 Q1313.16 26.3147 1314.29 26.5172 L1314.33 34.1734 Z" fill="#000000" fill-rule="nonzero" fill-opacity="1" /><path clip-path="url(#clip360)" d="M1348.85 12.096 L1357.03 12.096 L1357.03 65.6895 L1386.48 65.6895 L1386.48 72.576 L1348.85 72.576 L1348.85 12.096 Z" fill="#000000" fill-rule="nonzero" fill-opacity="1" /><path clip-path="url(#clip360)" d="M1410.86 32.4315 Q1404.87 32.4315 1401.39 37.1306 Q1397.9 41.7891 1397.9 49.9314 Q1397.9 58.0738 1401.35 62.7728 Q1404.83 67.4314 1410.86 67.4314 Q1416.82 67.4314 1420.3 62.7323 Q1423.79 58.0333 1423.79 49.9314 Q1423.79 41.8701 1420.3 37.1711 Q1416.82 32.4315 1410.86 32.4315 M1410.86 26.1121 Q1420.59 26.1121 1426.14 32.4315 Q1431.69 38.7509 1431.69 49.9314 Q1431.69 61.0714 1426.14 67.4314 Q1420.59 73.7508 1410.86 73.7508 Q1401.1 73.7508 1395.55 67.4314 Q1390.04 61.0714 1390.04 49.9314 Q1390.04 38.7509 1395.55 32.4315 Q1401.1 26.1121 1410.86 26.1121 Z" fill="#000000" fill-rule="nonzero" fill-opacity="1" /><path clip-path="url(#clip360)" d="M1464.66 49.7694 Q1455.63 49.7694 1452.14 51.8354 Q1448.66 53.9013 1448.66 58.8839 Q1448.66 62.8538 1451.25 65.2034 Q1453.89 67.5124 1458.38 67.5124 Q1464.58 67.5124 1468.31 63.1374 Q1472.07 58.7219 1472.07 51.4303 L1472.07 49.7694 L1464.66 49.7694 M1479.53 46.6907 L1479.53 72.576 L1472.07 72.576 L1472.07 65.6895 Q1469.52 69.8214 1465.71 71.8063 Q1461.91 73.7508 1456.4 73.7508 Q1449.43 73.7508 1445.3 69.8619 Q1441.21 65.9325 1441.21 59.3701 Q1441.21 51.7138 1446.31 47.825 Q1451.45 43.9361 1461.62 43.9361 L1472.07 43.9361 L1472.07 43.2069 Q1472.07 38.0623 1468.67 35.2672 Q1465.31 32.4315 1459.19 32.4315 Q1455.3 32.4315 1451.62 33.3632 Q1447.93 34.295 1444.53 36.1584 L1444.53 29.2718 Q1448.62 27.692 1452.47 26.9223 Q1456.32 26.1121 1459.96 26.1121 Q1469.81 26.1121 1474.67 31.2163 Q1479.53 36.3204 1479.53 46.6907 Z" fill="#000000" fill-rule="nonzero" fill-opacity="1" /><path clip-path="url(#clip360)" d="M1524.74 34.0924 L1524.74 9.54393 L1532.19 9.54393 L1532.19 72.576 L1524.74 72.576 L1524.74 65.7705 Q1522.39 69.8214 1518.78 71.8063 Q1515.22 73.7508 1510.19 73.7508 Q1501.97 73.7508 1496.78 67.1883 Q1491.64 60.6258 1491.64 49.9314 Q1491.64 39.2371 1496.78 32.6746 Q1501.97 26.1121 1510.19 26.1121 Q1515.22 26.1121 1518.78 28.0971 Q1522.39 30.0415 1524.74 34.0924 M1499.34 49.9314 Q1499.34 58.1548 1502.7 62.8538 Q1506.1 67.5124 1512.02 67.5124 Q1517.93 67.5124 1521.33 62.8538 Q1524.74 58.1548 1524.74 49.9314 Q1524.74 41.7081 1521.33 37.0496 Q1517.93 32.3505 1512.02 32.3505 Q1506.1 32.3505 1502.7 37.0496 Q1499.34 41.7081 1499.34 49.9314 Z" fill="#000000" fill-rule="nonzero" fill-opacity="1" /><path clip-path="url(#clip360)" d="M1570.15 46.5287 L1591.98 46.5287 L1591.98 53.1722 L1570.15 53.1722 L1570.15 46.5287 Z" fill="#000000" fill-rule="nonzero" fill-opacity="1" /><path clip-path="url(#clip360)" d="M1630.55 12.096 L1638.73 12.096 L1638.73 72.576 L1630.55 72.576 L1630.55 12.096 Z" fill="#000000" fill-rule="nonzero" fill-opacity="1" /><path clip-path="url(#clip360)" d="M1662.06 14.324 L1662.06 27.2059 L1677.41 27.2059 L1677.41 32.9987 L1662.06 32.9987 L1662.06 57.6282 Q1662.06 63.1779 1663.56 64.7578 Q1665.1 66.3376 1669.76 66.3376 L1677.41 66.3376 L1677.41 72.576 L1669.76 72.576 Q1661.13 72.576 1657.85 69.3758 Q1654.57 66.1351 1654.57 57.6282 L1654.57 32.9987 L1649.1 32.9987 L1649.1 27.2059 L1654.57 27.2059 L1654.57 14.324 L1662.06 14.324 Z" fill="#000000" fill-rule="nonzero" fill-opacity="1" /><path clip-path="url(#clip360)" d="M1726.03 48.0275 L1726.03 51.6733 L1691.75 51.6733 Q1692.24 59.3701 1696.37 63.421 Q1700.54 67.4314 1707.96 67.4314 Q1712.25 67.4314 1716.26 66.3781 Q1720.31 65.3249 1724.28 63.2184 L1724.28 70.267 Q1720.27 71.9684 1716.06 72.8596 Q1711.85 73.7508 1707.51 73.7508 Q1696.66 73.7508 1690.3 67.4314 Q1683.98 61.1119 1683.98 50.3365 Q1683.98 39.1965 1689.97 32.6746 Q1696.01 26.1121 1706.22 26.1121 Q1715.37 26.1121 1720.68 32.0264 Q1726.03 37.9003 1726.03 48.0275 M1718.57 45.84 Q1718.49 39.7232 1715.13 36.0774 Q1711.81 32.4315 1706.3 32.4315 Q1700.06 32.4315 1696.29 35.9558 Q1692.56 39.4801 1692 45.8805 L1718.57 45.84 Z" fill="#000000" fill-rule="nonzero" fill-opacity="1" /><path clip-path="url(#clip360)" d="M1764.55 34.1734 Q1763.29 33.4443 1761.79 33.1202 Q1760.34 32.7556 1758.55 32.7556 Q1752.23 32.7556 1748.83 36.8875 Q1745.47 40.9789 1745.47 48.6757 L1745.47 72.576 L1737.98 72.576 L1737.98 27.2059 L1745.47 27.2059 L1745.47 34.2544 Q1747.82 30.1225 1751.59 28.1376 Q1755.35 26.1121 1760.74 26.1121 Q1761.51 26.1121 1762.44 26.2337 Q1763.37 26.3147 1764.51 26.5172 L1764.55 34.1734 Z" fill="#000000" fill-rule="nonzero" fill-opacity="1" /><path clip-path="url(#clip360)" d="M1792.99 49.7694 Q1783.95 49.7694 1780.47 51.8354 Q1776.99 53.9013 1776.99 58.8839 Q1776.99 62.8538 1779.58 65.2034 Q1782.21 67.5124 1786.71 67.5124 Q1792.91 67.5124 1796.63 63.1374 Q1800.4 58.7219 1800.4 51.4303 L1800.4 49.7694 L1792.99 49.7694 M1807.85 46.6907 L1807.85 72.576 L1800.4 72.576 L1800.4 65.6895 Q1797.85 69.8214 1794.04 71.8063 Q1790.23 73.7508 1784.72 73.7508 Q1777.76 73.7508 1773.62 69.8619 Q1769.53 65.9325 1769.53 59.3701 Q1769.53 51.7138 1774.64 47.825 Q1779.78 43.9361 1789.95 43.9361 L1800.4 43.9361 L1800.4 43.2069 Q1800.4 38.0623 1797 35.2672 Q1793.63 32.4315 1787.52 32.4315 Q1783.63 32.4315 1779.94 33.3632 Q1776.26 34.295 1772.85 36.1584 L1772.85 29.2718 Q1776.95 27.692 1780.79 26.9223 Q1784.64 26.1121 1788.29 26.1121 Q1798.13 26.1121 1802.99 31.2163 Q1807.85 36.3204 1807.85 46.6907 Z" fill="#000000" fill-rule="nonzero" fill-opacity="1" /><path clip-path="url(#clip360)" d="M1830.58 14.324 L1830.58 27.2059 L1845.93 27.2059 L1845.93 32.9987 L1830.58 32.9987 L1830.58 57.6282 Q1830.58 63.1779 1832.08 64.7578 Q1833.62 66.3376 1838.28 66.3376 L1845.93 66.3376 L1845.93 72.576 L1838.28 72.576 Q1829.65 72.576 1826.37 69.3758 Q1823.08 66.1351 1823.08 57.6282 L1823.08 32.9987 L1817.62 32.9987 L1817.62 27.2059 L1823.08 27.2059 L1823.08 14.324 L1830.58 14.324 Z" fill="#000000" fill-rule="nonzero" fill-opacity="1" /><path clip-path="url(#clip360)" d="M1855.74 27.2059 L1863.19 27.2059 L1863.19 72.576 L1855.74 72.576 L1855.74 27.2059 M1855.74 9.54393 L1863.19 9.54393 L1863.19 18.9825 L1855.74 18.9825 L1855.74 9.54393 Z" fill="#000000" fill-rule="nonzero" fill-opacity="1" /><path clip-path="url(#clip360)" d="M1896.37 32.4315 Q1890.37 32.4315 1886.89 37.1306 Q1883.4 41.7891 1883.4 49.9314 Q1883.4 58.0738 1886.85 62.7728 Q1890.33 67.4314 1896.37 67.4314 Q1902.32 67.4314 1905.8 62.7323 Q1909.29 58.0333 1909.29 49.9314 Q1909.29 41.8701 1905.8 37.1711 Q1902.32 32.4315 1896.37 32.4315 M1896.37 26.1121 Q1906.09 26.1121 1911.64 32.4315 Q1917.19 38.7509 1917.19 49.9314 Q1917.19 61.0714 1911.64 67.4314 Q1906.09 73.7508 1896.37 73.7508 Q1886.6 73.7508 1881.05 67.4314 Q1875.54 61.0714 1875.54 49.9314 Q1875.54 38.7509 1881.05 32.4315 Q1886.6 26.1121 1896.37 26.1121 Z" fill="#000000" fill-rule="nonzero" fill-opacity="1" /><path clip-path="url(#clip360)" d="M1967.26 45.1919 L1967.26 72.576 L1959.8 72.576 L1959.8 45.4349 Q1959.8 38.994 1957.29 35.7938 Q1954.78 32.5936 1949.76 32.5936 Q1943.72 32.5936 1940.24 36.4419 Q1936.75 40.2903 1936.75 46.9338 L1936.75 72.576 L1929.26 72.576 L1929.26 27.2059 L1936.75 27.2059 L1936.75 34.2544 Q1939.43 30.163 1943.03 28.1376 Q1946.68 26.1121 1951.42 26.1121 Q1959.24 26.1121 1963.25 30.9732 Q1967.26 35.7938 1967.26 45.1919 Z" fill="#000000" fill-rule="nonzero" fill-opacity="1" /><path clip-path="url(#clip360)" d="M2010.97 65.6895 L2024.33 65.6895 L2024.33 19.5497 L2009.79 22.4663 L2009.79 15.0127 L2024.25 12.096 L2032.44 12.096 L2032.44 65.6895 L2045.8 65.6895 L2045.8 72.576 L2010.97 72.576 L2010.97 65.6895 Z" fill="#000000" fill-rule="nonzero" fill-opacity="1" /><path clip-path="url(#clip360)" d="M2079.83 17.4837 Q2073.51 17.4837 2070.31 23.7221 Q2067.15 29.92 2067.15 42.3968 Q2067.15 54.833 2070.31 61.0714 Q2073.51 67.2693 2079.83 67.2693 Q2086.19 67.2693 2089.35 61.0714 Q2092.55 54.833 2092.55 42.3968 Q2092.55 29.92 2089.35 23.7221 Q2086.19 17.4837 2079.83 17.4837 M2079.83 11.0023 Q2090 11.0023 2095.35 19.0636 Q2100.73 27.0843 2100.73 42.3968 Q2100.73 57.6687 2095.35 65.73 Q2090 73.7508 2079.83 73.7508 Q2069.66 73.7508 2064.28 65.73 Q2058.93 57.6687 2058.93 42.3968 Q2058.93 27.0843 2064.28 19.0636 Q2069.66 11.0023 2079.83 11.0023 Z" fill="#000000" fill-rule="nonzero" fill-opacity="1" /><path clip-path="url(#clip362)" d="M818.017 1220.48 L818.017 1423.18 L922.826 1423.18 L922.826 1220.48 L818.017 1220.48 L818.017 1220.48  Z" fill="#009af9" fill-rule="evenodd" fill-opacity="1"/>
<polyline clip-path="url(#clip362)" style="stroke:#000000; stroke-linecap:round; stroke-linejoin:round; stroke-width:4; stroke-opacity:1; fill:none" points="818.017,1220.48 818.017,1423.18 922.826,1423.18 922.826,1220.48 818.017,1220.48 "/>
<path clip-path="url(#clip362)" d="M1735.09 1387.77 L1735.09 1423.18 L1839.9 1423.18 L1839.9 1387.77 L1735.09 1387.77 L1735.09 1387.77  Z" fill="#009af9" fill-rule="evenodd" fill-opacity="1"/>
<polyline clip-path="url(#clip362)" style="stroke:#000000; stroke-linecap:round; stroke-linejoin:round; stroke-width:4; stroke-opacity:1; fill:none" points="1735.09,1387.77 1735.09,1423.18 1839.9,1423.18 1839.9,1387.77 1735.09,1387.77 "/>
<path clip-path="url(#clip362)" d="M1211.05 175.256 L1211.05 1423.18 L1315.86 1423.18 L1315.86 175.256 L1211.05 175.256 L1211.05 175.256  Z" fill="#009af9" fill-rule="evenodd" fill-opacity="1"/>
<polyline clip-path="url(#clip362)" style="stroke:#000000; stroke-linecap:round; stroke-linejoin:round; stroke-width:4; stroke-opacity:1; fill:none" points="1211.05,175.256 1211.05,1423.18 1315.86,1423.18 1315.86,175.256 1211.05,175.256 "/>
<path clip-path="url(#clip362)" d="M293.976 194.453 L293.976 1423.18 L398.784 1423.18 L398.784 194.453 L293.976 194.453 L293.976 194.453  Z" fill="#009af9" fill-rule="evenodd" fill-opacity="1"/>
<polyline clip-path="url(#clip362)" style="stroke:#000000; stroke-linecap:round; stroke-linejoin:round; stroke-width:4; stroke-opacity:1; fill:none" points="293.976,194.453 293.976,1423.18 398.784,1423.18 398.784,194.453 293.976,194.453 "/>
<path clip-path="url(#clip362)" d="M949.028 1353.85 L949.028 1423.18 L1053.84 1423.18 L1053.84 1353.85 L949.028 1353.85 L949.028 1353.85  Z" fill="#009af9" fill-rule="evenodd" fill-opacity="1"/>
<polyline clip-path="url(#clip362)" style="stroke:#000000; stroke-linecap:round; stroke-linejoin:round; stroke-width:4; stroke-opacity:1; fill:none" points="949.028,1353.85 949.028,1423.18 1053.84,1423.18 1053.84,1353.85 949.028,1353.85 "/>
<path clip-path="url(#clip362)" d="M1604.08 151.755 L1604.08 1423.18 L1708.89 1423.18 L1708.89 151.755 L1604.08 151.755 L1604.08 151.755  Z" fill="#009af9" fill-rule="evenodd" fill-opacity="1"/>
<polyline clip-path="url(#clip362)" style="stroke:#000000; stroke-linecap:round; stroke-linejoin:round; stroke-width:4; stroke-opacity:1; fill:none" points="1604.08,151.755 1604.08,1423.18 1708.89,1423.18 1708.89,151.755 1604.08,151.755 "/>
<path clip-path="url(#clip362)" d="M1342.06 197.982 L1342.06 1423.18 L1446.87 1423.18 L1446.87 197.982 L1342.06 197.982 L1342.06 197.982  Z" fill="#009af9" fill-rule="evenodd" fill-opacity="1"/>
<polyline clip-path="url(#clip362)" style="stroke:#000000; stroke-linecap:round; stroke-linejoin:round; stroke-width:4; stroke-opacity:1; fill:none" points="1342.06,197.982 1342.06,1423.18 1446.87,1423.18 1446.87,197.982 1342.06,197.982 "/>
<path clip-path="url(#clip362)" d="M1997.11 1308.17 L1997.11 1423.18 L2101.92 1423.18 L2101.92 1308.17 L1997.11 1308.17 L1997.11 1308.17  Z" fill="#009af9" fill-rule="evenodd" fill-opacity="1"/>
<polyline clip-path="url(#clip362)" style="stroke:#000000; stroke-linecap:round; stroke-linejoin:round; stroke-width:4; stroke-opacity:1; fill:none" points="1997.11,1308.17 1997.11,1423.18 2101.92,1423.18 2101.92,1308.17 1997.11,1308.17 "/>
<path clip-path="url(#clip362)" d="M555.997 1388.52 L555.997 1423.18 L660.805 1423.18 L660.805 1388.52 L555.997 1388.52 L555.997 1388.52  Z" fill="#009af9" fill-rule="evenodd" fill-opacity="1"/>
<polyline clip-path="url(#clip362)" style="stroke:#000000; stroke-linecap:round; stroke-linejoin:round; stroke-width:4; stroke-opacity:1; fill:none" points="555.997,1388.52 555.997,1423.18 660.805,1423.18 660.805,1388.52 555.997,1388.52 "/>
<path clip-path="url(#clip362)" d="M1080.04 123.472 L1080.04 1423.18 L1184.85 1423.18 L1184.85 123.472 L1080.04 123.472 L1080.04 123.472  Z" fill="#009af9" fill-rule="evenodd" fill-opacity="1"/>
<polyline clip-path="url(#clip362)" style="stroke:#000000; stroke-linecap:round; stroke-linejoin:round; stroke-width:4; stroke-opacity:1; fill:none" points="1080.04,123.472 1080.04,1423.18 1184.85,1423.18 1184.85,123.472 1080.04,123.472 "/>
<path clip-path="url(#clip362)" d="M687.007 1423.18 L687.007 1423.18 L791.815 1423.18 L791.815 1423.18 L687.007 1423.18 L687.007 1423.18  Z" fill="#009af9" fill-rule="evenodd" fill-opacity="1"/>
<polyline clip-path="url(#clip362)" style="stroke:#000000; stroke-linecap:round; stroke-linejoin:round; stroke-width:4; stroke-opacity:1; fill:none" points="687.007,1423.18 687.007,1423.18 791.815,1423.18 791.815,1423.18 687.007,1423.18 "/>
<path clip-path="url(#clip362)" d="M1866.1 1320.84 L1866.1 1423.18 L1970.91 1423.18 L1970.91 1320.84 L1866.1 1320.84 L1866.1 1320.84  Z" fill="#009af9" fill-rule="evenodd" fill-opacity="1"/>
<polyline clip-path="url(#clip362)" style="stroke:#000000; stroke-linecap:round; stroke-linejoin:round; stroke-width:4; stroke-opacity:1; fill:none" points="1866.1,1320.84 1866.1,1423.18 1970.91,1423.18 1970.91,1320.84 1866.1,1320.84 "/>
<path clip-path="url(#clip362)" d="M2128.12 1079.67 L2128.12 1423.18 L2232.93 1423.18 L2232.93 1079.67 L2128.12 1079.67 L2128.12 1079.67  Z" fill="#009af9" fill-rule="evenodd" fill-opacity="1"/>
<polyline clip-path="url(#clip362)" style="stroke:#000000; stroke-linecap:round; stroke-linejoin:round; stroke-width:4; stroke-opacity:1; fill:none" points="2128.12,1079.67 2128.12,1423.18 2232.93,1423.18 2232.93,1079.67 2128.12,1079.67 "/>
<path clip-path="url(#clip362)" d="M424.986 175.44 L424.986 1423.18 L529.795 1423.18 L529.795 175.44 L424.986 175.44 L424.986 175.44  Z" fill="#009af9" fill-rule="evenodd" fill-opacity="1"/>
<polyline clip-path="url(#clip362)" style="stroke:#000000; stroke-linecap:round; stroke-linejoin:round; stroke-width:4; stroke-opacity:1; fill:none" points="424.986,175.44 424.986,1423.18 529.795,1423.18 529.795,175.44 424.986,175.44 "/>
<path clip-path="url(#clip362)" d="M1473.07 207.918 L1473.07 1423.18 L1577.88 1423.18 L1577.88 207.918 L1473.07 207.918 L1473.07 207.918  Z" fill="#009af9" fill-rule="evenodd" fill-opacity="1"/>
<polyline clip-path="url(#clip362)" style="stroke:#000000; stroke-linecap:round; stroke-linejoin:round; stroke-width:4; stroke-opacity:1; fill:none" points="1473.07,207.918 1473.07,1423.18 1577.88,1423.18 1577.88,207.918 1473.07,207.918 "/>
<circle clip-path="url(#clip362)" style="fill:#009af9; stroke:none; fill-opacity:0" cx="870.422" cy="1220.48" r="2"/>
<circle clip-path="url(#clip362)" style="fill:#009af9; stroke:none; fill-opacity:0" cx="1787.49" cy="1387.77" r="2"/>
<circle clip-path="url(#clip362)" style="fill:#009af9; stroke:none; fill-opacity:0" cx="1263.45" cy="175.256" r="2"/>
<circle clip-path="url(#clip362)" style="fill:#009af9; stroke:none; fill-opacity:0" cx="346.38" cy="194.453" r="2"/>
<circle clip-path="url(#clip362)" style="fill:#009af9; stroke:none; fill-opacity:0" cx="1001.43" cy="1353.85" r="2"/>
<circle clip-path="url(#clip362)" style="fill:#009af9; stroke:none; fill-opacity:0" cx="1656.48" cy="151.755" r="2"/>
<circle clip-path="url(#clip362)" style="fill:#009af9; stroke:none; fill-opacity:0" cx="1394.46" cy="197.982" r="2"/>
<circle clip-path="url(#clip362)" style="fill:#009af9; stroke:none; fill-opacity:0" cx="2049.51" cy="1308.17" r="2"/>
<circle clip-path="url(#clip362)" style="fill:#009af9; stroke:none; fill-opacity:0" cx="608.401" cy="1388.52" r="2"/>
<circle clip-path="url(#clip362)" style="fill:#009af9; stroke:none; fill-opacity:0" cx="1132.44" cy="123.472" r="2"/>
<circle clip-path="url(#clip362)" style="fill:#009af9; stroke:none; fill-opacity:0" cx="739.411" cy="1423.18" r="2"/>
<circle clip-path="url(#clip362)" style="fill:#009af9; stroke:none; fill-opacity:0" cx="1918.5" cy="1320.84" r="2"/>
<circle clip-path="url(#clip362)" style="fill:#009af9; stroke:none; fill-opacity:0" cx="2180.52" cy="1079.67" r="2"/>
<circle clip-path="url(#clip362)" style="fill:#009af9; stroke:none; fill-opacity:0" cx="477.391" cy="175.44" r="2"/>
<circle clip-path="url(#clip362)" style="fill:#009af9; stroke:none; fill-opacity:0" cx="1525.47" cy="207.918" r="2"/>
</svg>
