<?xml version="1.0" encoding="utf-8"?>
<svg xmlns="http://www.w3.org/2000/svg" xmlns:xlink="http://www.w3.org/1999/xlink" width="600" height="400" viewBox="0 0 2400 1600">
<defs>
  <clipPath id="clip500">
    <rect x="0" y="0" width="2400" height="1600"/>
  </clipPath>
</defs>
<path clip-path="url(#clip500)" d="M0 1600 L2400 1600 L2400 0 L0 0  Z" fill="#ffffff" fill-rule="evenodd" fill-opacity="1"/>
<defs>
  <clipPath id="clip501">
    <rect x="480" y="0" width="1681" height="1600"/>
  </clipPath>
</defs>
<path clip-path="url(#clip500)" d="M407.875 1410.9 L2352.76 1410.9 L2352.76 123.472 L407.875 123.472  Z" fill="#ffffff" fill-rule="evenodd" fill-opacity="1"/>
<defs>
  <clipPath id="clip502">
    <rect x="407" y="123" width="1946" height="1288"/>
  </clipPath>
</defs>
<polyline clip-path="url(#clip502)" style="stroke:#000000; stroke-linecap:round; stroke-linejoin:round; stroke-width:2; stroke-opacity:0.1; fill:none" points="726.566,1410.9 726.566,123.472 "/>
<polyline clip-path="url(#clip502)" style="stroke:#000000; stroke-linecap:round; stroke-linejoin:round; stroke-width:2; stroke-opacity:0.1; fill:none" points="1240.35,1410.9 1240.35,123.472 "/>
<polyline clip-path="url(#clip502)" style="stroke:#000000; stroke-linecap:round; stroke-linejoin:round; stroke-width:2; stroke-opacity:0.1; fill:none" points="1754.13,1410.9 1754.13,123.472 "/>
<polyline clip-path="url(#clip502)" style="stroke:#000000; stroke-linecap:round; stroke-linejoin:round; stroke-width:2; stroke-opacity:0.1; fill:none" points="2267.91,1410.9 2267.91,123.472 "/>
<polyline clip-path="url(#clip502)" style="stroke:#000000; stroke-linecap:round; stroke-linejoin:round; stroke-width:2; stroke-opacity:0.1; fill:none" points="407.875,1199.94 2352.76,1199.94 "/>
<polyline clip-path="url(#clip502)" style="stroke:#000000; stroke-linecap:round; stroke-linejoin:round; stroke-width:2; stroke-opacity:0.1; fill:none" points="407.875,859.836 2352.76,859.836 "/>
<polyline clip-path="url(#clip502)" style="stroke:#000000; stroke-linecap:round; stroke-linejoin:round; stroke-width:2; stroke-opacity:0.1; fill:none" points="407.875,519.735 2352.76,519.735 "/>
<polyline clip-path="url(#clip502)" style="stroke:#000000; stroke-linecap:round; stroke-linejoin:round; stroke-width:2; stroke-opacity:0.1; fill:none" points="407.875,179.634 2352.76,179.634 "/>
<polyline clip-path="url(#clip500)" style="stroke:#000000; stroke-linecap:round; stroke-linejoin:round; stroke-width:4; stroke-opacity:1; fill:none" points="407.875,1410.9 2352.76,1410.9 "/>
<polyline clip-path="url(#clip500)" style="stroke:#000000; stroke-linecap:round; stroke-linejoin:round; stroke-width:4; stroke-opacity:1; fill:none" points="726.566,1410.9 726.566,1392 "/>
<polyline clip-path="url(#clip500)" style="stroke:#000000; stroke-linecap:round; stroke-linejoin:round; stroke-width:4; stroke-opacity:1; fill:none" points="1240.35,1410.9 1240.35,1392 "/>
<polyline clip-path="url(#clip500)" style="stroke:#000000; stroke-linecap:round; stroke-linejoin:round; stroke-width:4; stroke-opacity:1; fill:none" points="1754.13,1410.9 1754.13,1392 "/>
<polyline clip-path="url(#clip500)" style="stroke:#000000; stroke-linecap:round; stroke-linejoin:round; stroke-width:4; stroke-opacity:1; fill:none" points="2267.91,1410.9 2267.91,1392 "/>
<path clip-path="url(#clip500)" d="M598.906 1472.13 L628.581 1472.13 L628.581 1476.06 L598.906 1476.06 L598.906 1472.13 Z" fill="#000000" fill-rule="nonzero" fill-opacity="1" /><path clip-path="url(#clip500)" d="M639.484 1485.02 L647.123 1485.02 L647.123 1458.66 L638.813 1460.32 L638.813 1456.06 L647.077 1454.4 L651.753 1454.4 L651.753 1485.02 L659.391 1485.02 L659.391 1488.96 L639.484 1488.96 L639.484 1485.02 Z" fill="#000000" fill-rule="nonzero" fill-opacity="1" /><path clip-path="url(#clip500)" d="M668.836 1483.08 L673.72 1483.08 L673.72 1488.96 L668.836 1488.96 L668.836 1483.08 Z" fill="#000000" fill-rule="nonzero" fill-opacity="1" /><path clip-path="url(#clip500)" d="M683.951 1454.4 L702.308 1454.4 L702.308 1458.33 L688.234 1458.33 L688.234 1466.8 Q689.252 1466.46 690.271 1466.29 Q691.289 1466.11 692.308 1466.11 Q698.095 1466.11 701.475 1469.28 Q704.854 1472.45 704.854 1477.87 Q704.854 1483.45 701.382 1486.55 Q697.91 1489.63 691.59 1489.63 Q689.414 1489.63 687.146 1489.26 Q684.901 1488.89 682.493 1488.15 L682.493 1483.45 Q684.576 1484.58 686.799 1485.14 Q689.021 1485.69 691.498 1485.69 Q695.502 1485.69 697.84 1483.59 Q700.178 1481.48 700.178 1477.87 Q700.178 1474.26 697.84 1472.15 Q695.502 1470.04 691.498 1470.04 Q689.623 1470.04 687.748 1470.46 Q685.896 1470.88 683.951 1471.76 L683.951 1454.4 Z" fill="#000000" fill-rule="nonzero" fill-opacity="1" /><path clip-path="url(#clip500)" d="M724.067 1457.48 Q720.456 1457.48 718.627 1461.04 Q716.822 1464.58 716.822 1471.71 Q716.822 1478.82 718.627 1482.38 Q720.456 1485.92 724.067 1485.92 Q727.701 1485.92 729.507 1482.38 Q731.335 1478.82 731.335 1471.71 Q731.335 1464.58 729.507 1461.04 Q727.701 1457.48 724.067 1457.48 M724.067 1453.77 Q729.877 1453.77 732.933 1458.38 Q736.011 1462.96 736.011 1471.71 Q736.011 1480.44 732.933 1485.04 Q729.877 1489.63 724.067 1489.63 Q718.257 1489.63 715.178 1485.04 Q712.123 1480.44 712.123 1471.71 Q712.123 1462.96 715.178 1458.38 Q718.257 1453.77 724.067 1453.77 Z" fill="#000000" fill-rule="nonzero" fill-opacity="1" /><path clip-path="url(#clip500)" d="M772.4 1463.49 L761.821 1474.12 L772.4 1484.7 L769.645 1487.5 L759.02 1476.87 L748.396 1487.5 L745.664 1484.7 L756.22 1474.12 L745.664 1463.49 L748.396 1460.69 L759.02 1471.32 L769.645 1460.69 L772.4 1463.49 Z" fill="#000000" fill-rule="nonzero" fill-opacity="1" /><path clip-path="url(#clip500)" d="M784.761 1485.02 L792.4 1485.02 L792.4 1458.66 L784.09 1460.32 L784.09 1456.06 L792.354 1454.4 L797.03 1454.4 L797.03 1485.02 L804.668 1485.02 L804.668 1488.96 L784.761 1488.96 L784.761 1485.02 Z" fill="#000000" fill-rule="nonzero" fill-opacity="1" /><path clip-path="url(#clip500)" d="M824.113 1457.48 Q820.502 1457.48 818.673 1461.04 Q816.867 1464.58 816.867 1471.71 Q816.867 1478.82 818.673 1482.38 Q820.502 1485.92 824.113 1485.92 Q827.747 1485.92 829.553 1482.38 Q831.381 1478.82 831.381 1471.71 Q831.381 1464.58 829.553 1461.04 Q827.747 1457.48 824.113 1457.48 M824.113 1453.77 Q829.923 1453.77 832.978 1458.38 Q836.057 1462.96 836.057 1471.71 Q836.057 1480.44 832.978 1485.04 Q829.923 1489.63 824.113 1489.63 Q818.303 1489.63 815.224 1485.04 Q812.168 1480.44 812.168 1471.71 Q812.168 1462.96 815.224 1458.38 Q818.303 1453.77 824.113 1453.77 Z" fill="#000000" fill-rule="nonzero" fill-opacity="1" /><path clip-path="url(#clip500)" d="M837.242 1433.47 L852.157 1433.47 L852.157 1436.66 L840.721 1436.66 L840.721 1443.55 Q841.549 1443.27 842.377 1443.13 Q843.204 1442.98 844.032 1442.98 Q848.734 1442.98 851.479 1445.56 Q854.225 1448.14 854.225 1452.54 Q854.225 1457.07 851.404 1459.59 Q848.583 1462.09 843.449 1462.09 Q841.681 1462.09 839.837 1461.79 Q838.013 1461.49 836.057 1460.89 L836.057 1457.07 Q837.75 1457.99 839.555 1458.44 Q841.361 1458.89 843.373 1458.89 Q846.627 1458.89 848.527 1457.18 Q850.426 1455.47 850.426 1452.54 Q850.426 1449.6 848.527 1447.89 Q846.627 1446.18 843.373 1446.18 Q841.85 1446.18 840.326 1446.52 Q838.822 1446.86 837.242 1447.57 L837.242 1433.47 Z" fill="#000000" fill-rule="nonzero" fill-opacity="1" /><path clip-path="url(#clip500)" d="M1112.69 1472.13 L1142.36 1472.13 L1142.36 1476.06 L1112.69 1476.06 L1112.69 1472.13 Z" fill="#000000" fill-rule="nonzero" fill-opacity="1" /><path clip-path="url(#clip500)" d="M1153.27 1485.02 L1160.91 1485.02 L1160.91 1458.66 L1152.6 1460.32 L1152.6 1456.06 L1160.86 1454.4 L1165.54 1454.4 L1165.54 1485.02 L1173.17 1485.02 L1173.17 1488.96 L1153.27 1488.96 L1153.27 1485.02 Z" fill="#000000" fill-rule="nonzero" fill-opacity="1" /><path clip-path="url(#clip500)" d="M1182.62 1483.08 L1187.5 1483.08 L1187.5 1488.96 L1182.62 1488.96 L1182.62 1483.08 Z" fill="#000000" fill-rule="nonzero" fill-opacity="1" /><path clip-path="url(#clip500)" d="M1207.69 1457.48 Q1204.08 1457.48 1202.25 1461.04 Q1200.44 1464.58 1200.44 1471.71 Q1200.44 1478.82 1202.25 1482.38 Q1204.08 1485.92 1207.69 1485.92 Q1211.32 1485.92 1213.13 1482.38 Q1214.96 1478.82 1214.96 1471.71 Q1214.96 1464.58 1213.13 1461.04 Q1211.32 1457.48 1207.69 1457.48 M1207.69 1453.77 Q1213.5 1453.77 1216.55 1458.38 Q1219.63 1462.96 1219.63 1471.71 Q1219.63 1480.44 1216.55 1485.04 Q1213.5 1489.63 1207.69 1489.63 Q1201.88 1489.63 1198.8 1485.04 Q1195.74 1480.44 1195.74 1471.71 Q1195.74 1462.96 1198.8 1458.38 Q1201.88 1453.77 1207.69 1453.77 Z" fill="#000000" fill-rule="nonzero" fill-opacity="1" /><path clip-path="url(#clip500)" d="M1237.85 1457.48 Q1234.24 1457.48 1232.41 1461.04 Q1230.6 1464.58 1230.6 1471.71 Q1230.6 1478.82 1232.41 1482.38 Q1234.24 1485.92 1237.85 1485.92 Q1241.48 1485.92 1243.29 1482.38 Q1245.12 1478.82 1245.12 1471.71 Q1245.12 1464.58 1243.29 1461.04 Q1241.48 1457.48 1237.85 1457.48 M1237.85 1453.77 Q1243.66 1453.77 1246.72 1458.38 Q1249.79 1462.96 1249.79 1471.71 Q1249.79 1480.44 1246.72 1485.04 Q1243.66 1489.63 1237.85 1489.63 Q1232.04 1489.63 1228.96 1485.04 Q1225.91 1480.44 1225.91 1471.71 Q1225.91 1462.96 1228.96 1458.38 Q1232.04 1453.77 1237.85 1453.77 Z" fill="#000000" fill-rule="nonzero" fill-opacity="1" /><path clip-path="url(#clip500)" d="M1286.18 1463.49 L1275.6 1474.12 L1286.18 1484.7 L1283.43 1487.5 L1272.8 1476.87 L1262.18 1487.5 L1259.45 1484.7 L1270 1474.12 L1259.45 1463.49 L1262.18 1460.69 L1272.8 1471.32 L1283.43 1460.69 L1286.18 1463.49 Z" fill="#000000" fill-rule="nonzero" fill-opacity="1" /><path clip-path="url(#clip500)" d="M1298.54 1485.02 L1306.18 1485.02 L1306.18 1458.66 L1297.87 1460.32 L1297.87 1456.06 L1306.14 1454.4 L1310.81 1454.4 L1310.81 1485.02 L1318.45 1485.02 L1318.45 1488.96 L1298.54 1488.96 L1298.54 1485.02 Z" fill="#000000" fill-rule="nonzero" fill-opacity="1" /><path clip-path="url(#clip500)" d="M1337.9 1457.48 Q1334.28 1457.48 1332.46 1461.04 Q1330.65 1464.58 1330.65 1471.71 Q1330.65 1478.82 1332.46 1482.38 Q1334.28 1485.92 1337.9 1485.92 Q1341.53 1485.92 1343.34 1482.38 Q1345.16 1478.82 1345.16 1471.71 Q1345.16 1464.58 1343.34 1461.04 Q1341.53 1457.48 1337.9 1457.48 M1337.9 1453.77 Q1343.71 1453.77 1346.76 1458.38 Q1349.84 1462.96 1349.84 1471.71 Q1349.84 1480.44 1346.76 1485.04 Q1343.71 1489.63 1337.9 1489.63 Q1332.09 1489.63 1329.01 1485.04 Q1325.95 1480.44 1325.95 1471.71 Q1325.95 1462.96 1329.01 1458.38 Q1332.09 1453.77 1337.9 1453.77 Z" fill="#000000" fill-rule="nonzero" fill-opacity="1" /><path clip-path="url(#clip500)" d="M1351.02 1433.47 L1365.94 1433.47 L1365.94 1436.66 L1354.5 1436.66 L1354.5 1443.55 Q1355.33 1443.27 1356.16 1443.13 Q1356.99 1442.98 1357.81 1442.98 Q1362.52 1442.98 1365.26 1445.56 Q1368.01 1448.14 1368.01 1452.54 Q1368.01 1457.07 1365.19 1459.59 Q1362.37 1462.09 1357.23 1462.09 Q1355.46 1462.09 1353.62 1461.79 Q1351.8 1461.49 1349.84 1460.89 L1349.84 1457.07 Q1351.53 1457.99 1353.34 1458.44 Q1355.14 1458.89 1357.16 1458.89 Q1360.41 1458.89 1362.31 1457.18 Q1364.21 1455.47 1364.21 1452.54 Q1364.21 1449.6 1362.31 1447.89 Q1360.41 1446.18 1357.16 1446.18 Q1355.63 1446.18 1354.11 1446.52 Q1352.6 1446.86 1351.02 1447.57 L1351.02 1433.47 Z" fill="#000000" fill-rule="nonzero" fill-opacity="1" /><path clip-path="url(#clip500)" d="M1625.32 1472.13 L1655 1472.13 L1655 1476.06 L1625.32 1476.06 L1625.32 1472.13 Z" fill="#000000" fill-rule="nonzero" fill-opacity="1" /><path clip-path="url(#clip500)" d="M1665.14 1454.4 L1683.49 1454.4 L1683.49 1458.33 L1669.42 1458.33 L1669.42 1466.8 Q1670.44 1466.46 1671.46 1466.29 Q1672.48 1466.11 1673.49 1466.11 Q1679.28 1466.11 1682.66 1469.28 Q1686.04 1472.45 1686.04 1477.87 Q1686.04 1483.45 1682.57 1486.55 Q1679.1 1489.63 1672.78 1489.63 Q1670.6 1489.63 1668.33 1489.26 Q1666.09 1488.89 1663.68 1488.15 L1663.68 1483.45 Q1665.76 1484.58 1667.99 1485.14 Q1670.21 1485.69 1672.68 1485.69 Q1676.69 1485.69 1679.03 1483.59 Q1681.36 1481.48 1681.36 1477.87 Q1681.36 1474.26 1679.03 1472.15 Q1676.69 1470.04 1672.68 1470.04 Q1670.81 1470.04 1668.93 1470.46 Q1667.08 1470.88 1665.14 1471.76 L1665.14 1454.4 Z" fill="#000000" fill-rule="nonzero" fill-opacity="1" /><path clip-path="url(#clip500)" d="M1695.25 1483.08 L1700.14 1483.08 L1700.14 1488.96 L1695.25 1488.96 L1695.25 1483.08 Z" fill="#000000" fill-rule="nonzero" fill-opacity="1" /><path clip-path="url(#clip500)" d="M1720.32 1457.48 Q1716.71 1457.48 1714.88 1461.04 Q1713.08 1464.58 1713.08 1471.71 Q1713.08 1478.82 1714.88 1482.38 Q1716.71 1485.92 1720.32 1485.92 Q1723.96 1485.92 1725.76 1482.38 Q1727.59 1478.82 1727.59 1471.71 Q1727.59 1464.58 1725.76 1461.04 Q1723.96 1457.48 1720.32 1457.48 M1720.32 1453.77 Q1726.13 1453.77 1729.19 1458.38 Q1732.27 1462.96 1732.27 1471.71 Q1732.27 1480.44 1729.19 1485.04 Q1726.13 1489.63 1720.32 1489.63 Q1714.51 1489.63 1711.43 1485.04 Q1708.38 1480.44 1708.38 1471.71 Q1708.38 1462.96 1711.43 1458.38 Q1714.51 1453.77 1720.32 1453.77 Z" fill="#000000" fill-rule="nonzero" fill-opacity="1" /><path clip-path="url(#clip500)" d="M1750.48 1457.48 Q1746.87 1457.48 1745.05 1461.04 Q1743.24 1464.58 1743.24 1471.71 Q1743.24 1478.82 1745.05 1482.38 Q1746.87 1485.92 1750.48 1485.92 Q1754.12 1485.92 1755.92 1482.38 Q1757.75 1478.82 1757.75 1471.71 Q1757.75 1464.58 1755.92 1461.04 Q1754.12 1457.48 1750.48 1457.48 M1750.48 1453.77 Q1756.3 1453.77 1759.35 1458.38 Q1762.43 1462.96 1762.43 1471.71 Q1762.43 1480.44 1759.35 1485.04 Q1756.3 1489.63 1750.48 1489.63 Q1744.67 1489.63 1741.6 1485.04 Q1738.54 1480.44 1738.54 1471.71 Q1738.54 1462.96 1741.6 1458.38 Q1744.67 1453.77 1750.48 1453.77 Z" fill="#000000" fill-rule="nonzero" fill-opacity="1" /><path clip-path="url(#clip500)" d="M1798.82 1463.49 L1788.24 1474.12 L1798.82 1484.7 L1796.06 1487.5 L1785.44 1476.87 L1774.81 1487.5 L1772.08 1484.7 L1782.64 1474.12 L1772.08 1463.49 L1774.81 1460.69 L1785.44 1471.32 L1796.06 1460.69 L1798.82 1463.49 Z" fill="#000000" fill-rule="nonzero" fill-opacity="1" /><path clip-path="url(#clip500)" d="M1811.18 1485.02 L1818.82 1485.02 L1818.82 1458.66 L1810.51 1460.32 L1810.51 1456.06 L1818.77 1454.4 L1823.45 1454.4 L1823.45 1485.02 L1831.09 1485.02 L1831.09 1488.96 L1811.18 1488.96 L1811.18 1485.02 Z" fill="#000000" fill-rule="nonzero" fill-opacity="1" /><path clip-path="url(#clip500)" d="M1850.53 1457.48 Q1846.92 1457.48 1845.09 1461.04 Q1843.29 1464.58 1843.29 1471.71 Q1843.29 1478.82 1845.09 1482.38 Q1846.92 1485.92 1850.53 1485.92 Q1854.16 1485.92 1855.97 1482.38 Q1857.8 1478.82 1857.8 1471.71 Q1857.8 1464.58 1855.97 1461.04 Q1854.16 1457.48 1850.53 1457.48 M1850.53 1453.77 Q1856.34 1453.77 1859.4 1458.38 Q1862.48 1462.96 1862.48 1471.71 Q1862.48 1480.44 1859.4 1485.04 Q1856.34 1489.63 1850.53 1489.63 Q1844.72 1489.63 1841.64 1485.04 Q1838.59 1480.44 1838.59 1471.71 Q1838.59 1462.96 1841.64 1458.38 Q1844.72 1453.77 1850.53 1453.77 Z" fill="#000000" fill-rule="nonzero" fill-opacity="1" /><path clip-path="url(#clip500)" d="M1875.15 1436.78 L1865.56 1451.77 L1875.15 1451.77 L1875.15 1436.78 M1874.15 1433.47 L1878.93 1433.47 L1878.93 1451.77 L1882.94 1451.77 L1882.94 1454.93 L1878.93 1454.93 L1878.93 1461.55 L1875.15 1461.55 L1875.15 1454.93 L1862.48 1454.93 L1862.48 1451.26 L1874.15 1433.47 Z" fill="#000000" fill-rule="nonzero" fill-opacity="1" /><path clip-path="url(#clip500)" d="M2267.91 1441.82 Q2264.3 1441.82 2262.47 1445.38 Q2260.67 1448.92 2260.67 1456.05 Q2260.67 1463.16 2262.47 1466.72 Q2264.3 1470.26 2267.91 1470.26 Q2271.55 1470.26 2273.35 1466.72 Q2275.18 1463.16 2275.18 1456.05 Q2275.18 1448.92 2273.35 1445.38 Q2271.55 1441.82 2267.91 1441.82 M2267.91 1438.11 Q2273.72 1438.11 2276.78 1442.72 Q2279.86 1447.3 2279.86 1456.05 Q2279.86 1464.78 2276.78 1469.38 Q2273.72 1473.97 2267.91 1473.97 Q2262.1 1473.97 2259.02 1469.38 Q2255.97 1464.78 2255.97 1456.05 Q2255.97 1447.3 2259.02 1442.72 Q2262.1 1438.11 2267.91 1438.11 Z" fill="#000000" fill-rule="nonzero" fill-opacity="1" /><path clip-path="url(#clip500)" d="M925.088 1526.67 L931.517 1526.67 L931.517 1568.77 L954.656 1568.77 L954.656 1574.19 L925.088 1574.19 L925.088 1526.67 Z" fill="#000000" fill-rule="nonzero" fill-opacity="1" /><path clip-path="url(#clip500)" d="M973.817 1542.64 Q969.106 1542.64 966.369 1546.34 Q963.632 1550 963.632 1556.39 Q963.632 1562.79 966.337 1566.48 Q969.075 1570.14 973.817 1570.14 Q978.496 1570.14 981.233 1566.45 Q983.97 1562.76 983.97 1556.39 Q983.97 1550.06 981.233 1546.37 Q978.496 1542.64 973.817 1542.64 M973.817 1537.68 Q981.456 1537.68 985.816 1542.64 Q990.177 1547.61 990.177 1556.39 Q990.177 1565.15 985.816 1570.14 Q981.456 1575.11 973.817 1575.11 Q966.146 1575.11 961.786 1570.14 Q957.457 1565.15 957.457 1556.39 Q957.457 1547.61 961.786 1542.64 Q966.146 1537.68 973.817 1537.68 Z" fill="#000000" fill-rule="nonzero" fill-opacity="1" /><path clip-path="url(#clip500)" d="M996.479 1538.54 L1002.34 1538.54 L1009.66 1566.36 L1016.94 1538.54 L1023.85 1538.54 L1031.17 1566.36 L1038.46 1538.54 L1044.32 1538.54 L1034.99 1574.19 L1028.08 1574.19 L1020.41 1544.97 L1012.71 1574.19 L1005.8 1574.19 L996.479 1538.54 Z" fill="#000000" fill-rule="nonzero" fill-opacity="1" /><path clip-path="url(#clip500)" d="M1083.69 1554.9 L1083.69 1557.76 L1056.76 1557.76 Q1057.14 1563.81 1060.39 1566.99 Q1063.67 1570.14 1069.49 1570.14 Q1072.87 1570.14 1076.02 1569.32 Q1079.2 1568.49 1082.32 1566.83 L1082.32 1572.37 Q1079.17 1573.71 1075.86 1574.41 Q1072.55 1575.11 1069.14 1575.11 Q1060.61 1575.11 1055.62 1570.14 Q1050.65 1565.18 1050.65 1556.71 Q1050.65 1547.96 1055.36 1542.83 Q1060.1 1537.68 1068.13 1537.68 Q1075.32 1537.68 1079.49 1542.33 Q1083.69 1546.94 1083.69 1554.9 M1077.83 1553.18 Q1077.77 1548.37 1075.13 1545.51 Q1072.52 1542.64 1068.19 1542.64 Q1063.29 1542.64 1060.33 1545.41 Q1057.4 1548.18 1056.95 1553.21 L1077.83 1553.18 Z" fill="#000000" fill-rule="nonzero" fill-opacity="1" /><path clip-path="url(#clip500)" d="M1113.96 1544.01 Q1112.97 1543.44 1111.79 1543.18 Q1110.65 1542.9 1109.25 1542.9 Q1104.28 1542.9 1101.61 1546.14 Q1098.97 1549.36 1098.97 1555.41 L1098.97 1574.19 L1093.08 1574.19 L1093.08 1538.54 L1098.97 1538.54 L1098.97 1544.08 Q1100.81 1540.83 1103.77 1539.27 Q1106.73 1537.68 1110.97 1537.68 Q1111.57 1537.68 1112.3 1537.77 Q1113.04 1537.84 1113.93 1538 L1113.96 1544.01 Z" fill="#000000" fill-rule="nonzero" fill-opacity="1" /><path clip-path="url(#clip500)" d="M1112.97 1553.72 L1130.13 1553.72 L1130.13 1558.94 L1112.97 1558.94 L1112.97 1553.72 Z" fill="#000000" fill-rule="nonzero" fill-opacity="1" /><path clip-path="url(#clip500)" d="M1139.71 1526.67 L1146.14 1526.67 L1146.14 1568.77 L1169.28 1568.77 L1169.28 1574.19 L1139.71 1574.19 L1139.71 1526.67 Z" fill="#000000" fill-rule="nonzero" fill-opacity="1" /><path clip-path="url(#clip500)" d="M1205.12 1554.9 L1205.12 1557.76 L1178.19 1557.76 Q1178.57 1563.81 1181.82 1566.99 Q1185.09 1570.14 1190.92 1570.14 Q1194.29 1570.14 1197.44 1569.32 Q1200.63 1568.49 1203.75 1566.83 L1203.75 1572.37 Q1200.6 1573.71 1197.29 1574.41 Q1193.98 1575.11 1190.57 1575.11 Q1182.04 1575.11 1177.04 1570.14 Q1172.08 1565.18 1172.08 1556.71 Q1172.08 1547.96 1176.79 1542.83 Q1181.53 1537.68 1189.55 1537.68 Q1196.74 1537.68 1200.91 1542.33 Q1205.12 1546.94 1205.12 1554.9 M1199.26 1553.18 Q1199.19 1548.37 1196.55 1545.51 Q1193.94 1542.64 1189.61 1542.64 Q1184.71 1542.64 1181.75 1545.41 Q1178.82 1548.18 1178.38 1553.21 L1199.26 1553.18 Z" fill="#000000" fill-rule="nonzero" fill-opacity="1" /><path clip-path="url(#clip500)" d="M1210.53 1538.54 L1216.73 1538.54 L1227.87 1568.46 L1239.01 1538.54 L1245.22 1538.54 L1231.85 1574.19 L1223.89 1574.19 L1210.53 1538.54 Z" fill="#000000" fill-rule="nonzero" fill-opacity="1" /><path clip-path="url(#clip500)" d="M1283.8 1554.9 L1283.8 1557.76 L1256.87 1557.76 Q1257.25 1563.81 1260.5 1566.99 Q1263.78 1570.14 1269.6 1570.14 Q1272.97 1570.14 1276.12 1569.32 Q1279.31 1568.49 1282.43 1566.83 L1282.43 1572.37 Q1279.28 1573.71 1275.97 1574.41 Q1272.66 1575.11 1269.25 1575.11 Q1260.72 1575.11 1255.72 1570.14 Q1250.76 1565.18 1250.76 1556.71 Q1250.76 1547.96 1255.47 1542.83 Q1260.21 1537.68 1268.23 1537.68 Q1275.42 1537.68 1279.59 1542.33 Q1283.8 1546.94 1283.8 1554.9 M1277.94 1553.18 Q1277.88 1548.37 1275.23 1545.51 Q1272.62 1542.64 1268.29 1542.64 Q1263.39 1542.64 1260.43 1545.41 Q1257.5 1548.18 1257.06 1553.21 L1277.94 1553.18 Z" fill="#000000" fill-rule="nonzero" fill-opacity="1" /><path clip-path="url(#clip500)" d="M1293.41 1524.66 L1299.26 1524.66 L1299.26 1574.19 L1293.41 1574.19 L1293.41 1524.66 Z" fill="#000000" fill-rule="nonzero" fill-opacity="1" /><path clip-path="url(#clip500)" d="M1332.49 1526.67 L1338.92 1526.67 L1338.92 1568.77 L1362.06 1568.77 L1362.06 1574.19 L1332.49 1574.19 L1332.49 1526.67 Z" fill="#000000" fill-rule="nonzero" fill-opacity="1" /><path clip-path="url(#clip500)" d="M1381.22 1542.64 Q1376.51 1542.64 1373.77 1546.34 Q1371.04 1550 1371.04 1556.39 Q1371.04 1562.79 1373.74 1566.48 Q1376.48 1570.14 1381.22 1570.14 Q1385.9 1570.14 1388.64 1566.45 Q1391.38 1562.76 1391.38 1556.39 Q1391.38 1550.06 1388.64 1546.37 Q1385.9 1542.64 1381.22 1542.64 M1381.22 1537.68 Q1388.86 1537.68 1393.22 1542.64 Q1397.58 1547.61 1397.58 1556.39 Q1397.58 1565.15 1393.22 1570.14 Q1388.86 1575.11 1381.22 1575.11 Q1373.55 1575.11 1369.19 1570.14 Q1364.86 1565.15 1364.86 1556.39 Q1364.86 1547.61 1369.19 1542.64 Q1373.55 1537.68 1381.22 1537.68 Z" fill="#000000" fill-rule="nonzero" fill-opacity="1" /><path clip-path="url(#clip500)" d="M1423.49 1556.27 Q1416.39 1556.27 1413.66 1557.89 Q1410.92 1559.51 1410.92 1563.43 Q1410.92 1566.55 1412.96 1568.39 Q1415.02 1570.21 1418.56 1570.21 Q1423.43 1570.21 1426.36 1566.77 Q1429.32 1563.3 1429.32 1557.57 L1429.32 1556.27 L1423.49 1556.27 M1435.17 1553.85 L1435.17 1574.19 L1429.32 1574.19 L1429.32 1568.77 Q1427.31 1572.02 1424.32 1573.58 Q1421.33 1575.11 1417 1575.11 Q1411.52 1575.11 1408.28 1572.05 Q1405.06 1568.97 1405.06 1563.81 Q1405.06 1557.79 1409.07 1554.74 Q1413.11 1551.68 1421.1 1551.68 L1429.32 1551.68 L1429.32 1551.11 Q1429.32 1547.07 1426.64 1544.87 Q1424 1542.64 1419.19 1542.64 Q1416.14 1542.64 1413.24 1543.38 Q1410.35 1544.11 1407.67 1545.57 L1407.67 1540.16 Q1410.89 1538.92 1413.91 1538.31 Q1416.93 1537.68 1419.8 1537.68 Q1427.53 1537.68 1431.35 1541.69 Q1435.17 1545.7 1435.17 1553.85 Z" fill="#000000" fill-rule="nonzero" fill-opacity="1" /><path clip-path="url(#clip500)" d="M1470.69 1543.95 L1470.69 1524.66 L1476.55 1524.66 L1476.55 1574.19 L1470.69 1574.19 L1470.69 1568.84 Q1468.85 1572.02 1466.01 1573.58 Q1463.21 1575.11 1459.27 1575.11 Q1452.8 1575.11 1448.73 1569.95 Q1444.69 1564.8 1444.69 1556.39 Q1444.69 1547.99 1448.73 1542.83 Q1452.8 1537.68 1459.27 1537.68 Q1463.21 1537.68 1466.01 1539.24 Q1468.85 1540.77 1470.69 1543.95 M1450.74 1556.39 Q1450.74 1562.85 1453.38 1566.55 Q1456.05 1570.21 1460.7 1570.21 Q1465.35 1570.21 1468.02 1566.55 Q1470.69 1562.85 1470.69 1556.39 Q1470.69 1549.93 1468.02 1546.27 Q1465.35 1542.58 1460.7 1542.58 Q1456.05 1542.58 1453.38 1546.27 Q1450.74 1549.93 1450.74 1556.39 Z" fill="#000000" fill-rule="nonzero" fill-opacity="1" /><path clip-path="url(#clip500)" d="M1538.07 1528.23 L1538.07 1534.5 Q1534.41 1532.74 1531.17 1531.89 Q1527.92 1531.03 1524.9 1531.03 Q1519.64 1531.03 1516.78 1533.06 Q1513.95 1535.1 1513.95 1538.86 Q1513.95 1542.01 1515.83 1543.63 Q1517.73 1545.22 1523.02 1546.21 L1526.9 1547 Q1534.09 1548.37 1537.5 1551.84 Q1540.94 1555.28 1540.94 1561.07 Q1540.94 1567.98 1536.29 1571.54 Q1531.68 1575.11 1522.73 1575.11 Q1519.36 1575.11 1515.54 1574.34 Q1511.75 1573.58 1507.68 1572.08 L1507.68 1565.46 Q1511.59 1567.66 1515.35 1568.77 Q1519.1 1569.89 1522.73 1569.89 Q1528.24 1569.89 1531.23 1567.72 Q1534.22 1565.56 1534.22 1561.55 Q1534.22 1558.05 1532.06 1556.08 Q1529.93 1554.1 1525.02 1553.11 L1521.11 1552.35 Q1513.92 1550.92 1510.7 1547.86 Q1507.49 1544.81 1507.49 1539.37 Q1507.49 1533.06 1511.91 1529.43 Q1516.37 1525.81 1524.16 1525.81 Q1527.51 1525.81 1530.98 1526.41 Q1534.44 1527.02 1538.07 1528.23 Z" fill="#000000" fill-rule="nonzero" fill-opacity="1" /><path clip-path="url(#clip500)" d="M1580.34 1552.67 L1580.34 1574.19 L1574.49 1574.19 L1574.49 1552.86 Q1574.49 1547.8 1572.51 1545.29 Q1570.54 1542.77 1566.59 1542.77 Q1561.85 1542.77 1559.11 1545.79 Q1556.37 1548.82 1556.37 1554.04 L1556.37 1574.19 L1550.49 1574.19 L1550.49 1524.66 L1556.37 1524.66 L1556.37 1544.08 Q1558.48 1540.86 1561.31 1539.27 Q1564.17 1537.68 1567.9 1537.68 Q1574.04 1537.68 1577.19 1541.5 Q1580.34 1545.29 1580.34 1552.67 Z" fill="#000000" fill-rule="nonzero" fill-opacity="1" /><path clip-path="url(#clip500)" d="M1622.51 1554.9 L1622.51 1557.76 L1595.59 1557.76 Q1595.97 1563.81 1599.22 1566.99 Q1602.49 1570.14 1608.32 1570.14 Q1611.69 1570.14 1614.84 1569.32 Q1618.03 1568.49 1621.15 1566.83 L1621.15 1572.37 Q1617.99 1573.71 1614.68 1574.41 Q1611.37 1575.11 1607.97 1575.11 Q1599.44 1575.11 1594.44 1570.14 Q1589.48 1565.18 1589.48 1556.71 Q1589.48 1547.96 1594.19 1542.83 Q1598.93 1537.68 1606.95 1537.68 Q1614.14 1537.68 1618.31 1542.33 Q1622.51 1546.94 1622.51 1554.9 M1616.66 1553.18 Q1616.59 1548.37 1613.95 1545.51 Q1611.34 1542.64 1607.01 1542.64 Q1602.11 1542.64 1599.15 1545.41 Q1596.22 1548.18 1595.78 1553.21 L1616.66 1553.18 Z" fill="#000000" fill-rule="nonzero" fill-opacity="1" /><path clip-path="url(#clip500)" d="M1655.58 1543.95 L1655.58 1524.66 L1661.44 1524.66 L1661.44 1574.19 L1655.58 1574.19 L1655.58 1568.84 Q1653.74 1572.02 1650.91 1573.58 Q1648.1 1575.11 1644.16 1575.11 Q1637.7 1575.11 1633.62 1569.95 Q1629.58 1564.8 1629.58 1556.39 Q1629.58 1547.99 1633.62 1542.83 Q1637.7 1537.68 1644.16 1537.68 Q1648.1 1537.68 1650.91 1539.24 Q1653.74 1540.77 1655.58 1543.95 M1635.63 1556.39 Q1635.63 1562.85 1638.27 1566.55 Q1640.94 1570.21 1645.59 1570.21 Q1650.24 1570.21 1652.91 1566.55 Q1655.58 1562.85 1655.58 1556.39 Q1655.58 1549.93 1652.91 1546.27 Q1650.24 1542.58 1645.59 1542.58 Q1640.94 1542.58 1638.27 1546.27 Q1635.63 1549.93 1635.63 1556.39 Z" fill="#000000" fill-rule="nonzero" fill-opacity="1" /><path clip-path="url(#clip500)" d="M1708.29 1524.72 Q1704.03 1532.04 1701.96 1539.21 Q1699.89 1546.37 1699.89 1553.72 Q1699.89 1561.07 1701.96 1568.3 Q1704.06 1575.49 1708.29 1582.78 L1703.2 1582.78 Q1698.43 1575.3 1696.04 1568.07 Q1693.68 1560.85 1693.68 1553.72 Q1693.68 1546.62 1696.04 1539.43 Q1698.39 1532.24 1703.2 1524.72 L1708.29 1524.72 Z" fill="#000000" fill-rule="nonzero" fill-opacity="1" /><path clip-path="url(#clip500)" d="M1719.43 1524.66 L1725.32 1524.66 L1725.32 1553.91 L1742.79 1538.54 L1750.27 1538.54 L1731.37 1555.22 L1751.07 1574.19 L1743.43 1574.19 L1725.32 1556.78 L1725.32 1574.19 L1719.43 1574.19 L1719.43 1524.66 Z" fill="#000000" fill-rule="nonzero" fill-opacity="1" /><path clip-path="url(#clip500)" d="M1753.43 1526.67 L1759.92 1526.67 L1769.91 1566.83 L1779.87 1526.67 L1787.1 1526.67 L1797.09 1566.83 L1807.06 1526.67 L1813.58 1526.67 L1801.65 1574.19 L1793.56 1574.19 L1783.53 1532.94 L1773.41 1574.19 L1765.33 1574.19 L1753.43 1526.67 Z" fill="#000000" fill-rule="nonzero" fill-opacity="1" /><path clip-path="url(#clip500)" d="M1820.93 1524.72 L1826.03 1524.72 Q1830.8 1532.24 1833.16 1539.43 Q1835.54 1546.62 1835.54 1553.72 Q1835.54 1560.85 1833.16 1568.07 Q1830.8 1575.3 1826.03 1582.78 L1820.93 1582.78 Q1825.17 1575.49 1827.24 1568.3 Q1829.34 1561.07 1829.34 1553.72 Q1829.34 1546.37 1827.24 1539.21 Q1825.17 1532.04 1820.93 1524.72 Z" fill="#000000" fill-rule="nonzero" fill-opacity="1" /><polyline clip-path="url(#clip500)" style="stroke:#000000; stroke-linecap:round; stroke-linejoin:round; stroke-width:4; stroke-opacity:1; fill:none" points="407.875,1410.9 407.875,123.472 "/>
<polyline clip-path="url(#clip500)" style="stroke:#000000; stroke-linecap:round; stroke-linejoin:round; stroke-width:4; stroke-opacity:1; fill:none" points="407.875,1199.94 426.772,1199.94 "/>
<polyline clip-path="url(#clip500)" style="stroke:#000000; stroke-linecap:round; stroke-linejoin:round; stroke-width:4; stroke-opacity:1; fill:none" points="407.875,859.836 426.772,859.836 "/>
<polyline clip-path="url(#clip500)" style="stroke:#000000; stroke-linecap:round; stroke-linejoin:round; stroke-width:4; stroke-opacity:1; fill:none" points="407.875,519.735 426.772,519.735 "/>
<polyline clip-path="url(#clip500)" style="stroke:#000000; stroke-linecap:round; stroke-linejoin:round; stroke-width:4; stroke-opacity:1; fill:none" points="407.875,179.634 426.772,179.634 "/>
<path clip-path="url(#clip500)" d="M116.555 1206.84 L146.23 1206.84 L146.23 1210.77 L116.555 1210.77 L116.555 1206.84 Z" fill="#000000" fill-rule="nonzero" fill-opacity="1" /><path clip-path="url(#clip500)" d="M157.133 1219.73 L164.772 1219.73 L164.772 1193.36 L156.462 1195.03 L156.462 1190.77 L164.726 1189.11 L169.402 1189.11 L169.402 1219.73 L177.04 1219.73 L177.04 1223.67 L157.133 1223.67 L157.133 1219.73 Z" fill="#000000" fill-rule="nonzero" fill-opacity="1" /><path clip-path="url(#clip500)" d="M186.485 1217.79 L191.369 1217.79 L191.369 1223.67 L186.485 1223.67 L186.485 1217.79 Z" fill="#000000" fill-rule="nonzero" fill-opacity="1" /><path clip-path="url(#clip500)" d="M201.601 1189.11 L219.957 1189.11 L219.957 1193.04 L205.883 1193.04 L205.883 1201.51 Q206.901 1201.17 207.92 1201 Q208.938 1200.82 209.957 1200.82 Q215.744 1200.82 219.124 1203.99 Q222.503 1207.16 222.503 1212.58 Q222.503 1218.16 219.031 1221.26 Q215.559 1224.34 209.239 1224.34 Q207.063 1224.34 204.795 1223.97 Q202.55 1223.6 200.142 1222.85 L200.142 1218.16 Q202.226 1219.29 204.448 1219.85 Q206.67 1220.4 209.147 1220.4 Q213.151 1220.4 215.489 1218.29 Q217.827 1216.19 217.827 1212.58 Q217.827 1208.97 215.489 1206.86 Q213.151 1204.75 209.147 1204.75 Q207.272 1204.75 205.397 1205.17 Q203.545 1205.59 201.601 1206.47 L201.601 1189.11 Z" fill="#000000" fill-rule="nonzero" fill-opacity="1" /><path clip-path="url(#clip500)" d="M241.716 1192.18 Q238.105 1192.18 236.276 1195.75 Q234.471 1199.29 234.471 1206.42 Q234.471 1213.53 236.276 1217.09 Q238.105 1220.63 241.716 1220.63 Q245.35 1220.63 247.156 1217.09 Q248.985 1213.53 248.985 1206.42 Q248.985 1199.29 247.156 1195.75 Q245.35 1192.18 241.716 1192.18 M241.716 1188.48 Q247.526 1188.48 250.582 1193.09 Q253.66 1197.67 253.66 1206.42 Q253.66 1215.15 250.582 1219.75 Q247.526 1224.34 241.716 1224.34 Q235.906 1224.34 232.827 1219.75 Q229.772 1215.15 229.772 1206.42 Q229.772 1197.67 232.827 1193.09 Q235.906 1188.48 241.716 1188.48 Z" fill="#000000" fill-rule="nonzero" fill-opacity="1" /><path clip-path="url(#clip500)" d="M290.049 1198.2 L279.47 1208.83 L290.049 1219.41 L287.295 1222.21 L276.67 1211.58 L266.045 1222.21 L263.313 1219.41 L273.869 1208.83 L263.313 1198.2 L266.045 1195.4 L276.67 1206.03 L287.295 1195.4 L290.049 1198.2 Z" fill="#000000" fill-rule="nonzero" fill-opacity="1" /><path clip-path="url(#clip500)" d="M302.41 1219.73 L310.049 1219.73 L310.049 1193.36 L301.739 1195.03 L301.739 1190.77 L310.003 1189.11 L314.679 1189.11 L314.679 1219.73 L322.317 1219.73 L322.317 1223.67 L302.41 1223.67 L302.41 1219.73 Z" fill="#000000" fill-rule="nonzero" fill-opacity="1" /><path clip-path="url(#clip500)" d="M341.762 1192.18 Q338.151 1192.18 336.322 1195.75 Q334.517 1199.29 334.517 1206.42 Q334.517 1213.53 336.322 1217.09 Q338.151 1220.63 341.762 1220.63 Q345.396 1220.63 347.202 1217.09 Q349.03 1213.53 349.03 1206.42 Q349.03 1199.29 347.202 1195.75 Q345.396 1192.18 341.762 1192.18 M341.762 1188.48 Q347.572 1188.48 350.628 1193.09 Q353.706 1197.67 353.706 1206.42 Q353.706 1215.15 350.628 1219.75 Q347.572 1224.34 341.762 1224.34 Q335.952 1224.34 332.873 1219.75 Q329.817 1215.15 329.817 1206.42 Q329.817 1197.67 332.873 1193.09 Q335.952 1188.48 341.762 1188.48 Z" fill="#000000" fill-rule="nonzero" fill-opacity="1" /><path clip-path="url(#clip500)" d="M354.891 1168.17 L369.806 1168.17 L369.806 1171.37 L358.371 1171.37 L358.371 1178.26 Q359.198 1177.97 360.026 1177.84 Q360.853 1177.69 361.681 1177.69 Q366.383 1177.69 369.129 1180.27 Q371.875 1182.84 371.875 1187.25 Q371.875 1191.78 369.053 1194.3 Q366.232 1196.8 361.098 1196.8 Q359.33 1196.8 357.487 1196.5 Q355.662 1196.2 353.706 1195.6 L353.706 1191.78 Q355.399 1192.7 357.204 1193.15 Q359.01 1193.6 361.022 1193.6 Q364.276 1193.6 366.176 1191.89 Q368.075 1190.18 368.075 1187.25 Q368.075 1184.31 366.176 1182.6 Q364.276 1180.89 361.022 1180.89 Q359.499 1180.89 357.976 1181.23 Q356.471 1181.57 354.891 1182.28 L354.891 1168.17 Z" fill="#000000" fill-rule="nonzero" fill-opacity="1" /><path clip-path="url(#clip500)" d="M116.555 866.735 L146.23 866.735 L146.23 870.67 L116.555 870.67 L116.555 866.735 Z" fill="#000000" fill-rule="nonzero" fill-opacity="1" /><path clip-path="url(#clip500)" d="M157.133 879.629 L164.772 879.629 L164.772 853.263 L156.462 854.93 L156.462 850.671 L164.726 849.004 L169.402 849.004 L169.402 879.629 L177.04 879.629 L177.04 883.564 L157.133 883.564 L157.133 879.629 Z" fill="#000000" fill-rule="nonzero" fill-opacity="1" /><path clip-path="url(#clip500)" d="M186.485 877.684 L191.369 877.684 L191.369 883.564 L186.485 883.564 L186.485 877.684 Z" fill="#000000" fill-rule="nonzero" fill-opacity="1" /><path clip-path="url(#clip500)" d="M211.554 852.083 Q207.943 852.083 206.114 855.647 Q204.309 859.189 204.309 866.319 Q204.309 873.425 206.114 876.99 Q207.943 880.532 211.554 880.532 Q215.188 880.532 216.994 876.99 Q218.823 873.425 218.823 866.319 Q218.823 859.189 216.994 855.647 Q215.188 852.083 211.554 852.083 M211.554 848.379 Q217.364 848.379 220.42 852.985 Q223.499 857.569 223.499 866.319 Q223.499 875.045 220.42 879.652 Q217.364 884.235 211.554 884.235 Q205.744 884.235 202.665 879.652 Q199.61 875.045 199.61 866.319 Q199.61 857.569 202.665 852.985 Q205.744 848.379 211.554 848.379 Z" fill="#000000" fill-rule="nonzero" fill-opacity="1" /><path clip-path="url(#clip500)" d="M241.716 852.083 Q238.105 852.083 236.276 855.647 Q234.471 859.189 234.471 866.319 Q234.471 873.425 236.276 876.99 Q238.105 880.532 241.716 880.532 Q245.35 880.532 247.156 876.99 Q248.985 873.425 248.985 866.319 Q248.985 859.189 247.156 855.647 Q245.35 852.083 241.716 852.083 M241.716 848.379 Q247.526 848.379 250.582 852.985 Q253.66 857.569 253.66 866.319 Q253.66 875.045 250.582 879.652 Q247.526 884.235 241.716 884.235 Q235.906 884.235 232.827 879.652 Q229.772 875.045 229.772 866.319 Q229.772 857.569 232.827 852.985 Q235.906 848.379 241.716 848.379 Z" fill="#000000" fill-rule="nonzero" fill-opacity="1" /><path clip-path="url(#clip500)" d="M290.049 858.101 L279.47 868.726 L290.049 879.305 L287.295 882.106 L276.67 871.481 L266.045 882.106 L263.313 879.305 L273.869 868.726 L263.313 858.101 L266.045 855.3 L276.67 865.925 L287.295 855.3 L290.049 858.101 Z" fill="#000000" fill-rule="nonzero" fill-opacity="1" /><path clip-path="url(#clip500)" d="M302.41 879.629 L310.049 879.629 L310.049 853.263 L301.739 854.93 L301.739 850.671 L310.003 849.004 L314.679 849.004 L314.679 879.629 L322.317 879.629 L322.317 883.564 L302.41 883.564 L302.41 879.629 Z" fill="#000000" fill-rule="nonzero" fill-opacity="1" /><path clip-path="url(#clip500)" d="M341.762 852.083 Q338.151 852.083 336.322 855.647 Q334.517 859.189 334.517 866.319 Q334.517 873.425 336.322 876.99 Q338.151 880.532 341.762 880.532 Q345.396 880.532 347.202 876.99 Q349.03 873.425 349.03 866.319 Q349.03 859.189 347.202 855.647 Q345.396 852.083 341.762 852.083 M341.762 848.379 Q347.572 848.379 350.628 852.985 Q353.706 857.569 353.706 866.319 Q353.706 875.045 350.628 879.652 Q347.572 884.235 341.762 884.235 Q335.952 884.235 332.873 879.652 Q329.817 875.045 329.817 866.319 Q329.817 857.569 332.873 852.985 Q335.952 848.379 341.762 848.379 Z" fill="#000000" fill-rule="nonzero" fill-opacity="1" /><path clip-path="url(#clip500)" d="M354.891 828.074 L369.806 828.074 L369.806 831.271 L358.371 831.271 L358.371 838.155 Q359.198 837.872 360.026 837.741 Q360.853 837.59 361.681 837.59 Q366.383 837.59 369.129 840.167 Q371.875 842.744 371.875 847.145 Q371.875 851.677 369.053 854.198 Q366.232 856.699 361.098 856.699 Q359.33 856.699 357.487 856.398 Q355.662 856.097 353.706 855.495 L353.706 851.677 Q355.399 852.599 357.204 853.05 Q359.01 853.502 361.022 853.502 Q364.276 853.502 366.176 851.79 Q368.075 850.079 368.075 847.145 Q368.075 844.211 366.176 842.499 Q364.276 840.788 361.022 840.788 Q359.499 840.788 357.976 841.126 Q356.471 841.465 354.891 842.179 L354.891 828.074 Z" fill="#000000" fill-rule="nonzero" fill-opacity="1" /><path clip-path="url(#clip500)" d="M114.26 526.634 L143.936 526.634 L143.936 530.569 L114.26 530.569 L114.26 526.634 Z" fill="#000000" fill-rule="nonzero" fill-opacity="1" /><path clip-path="url(#clip500)" d="M154.075 508.903 L172.431 508.903 L172.431 512.838 L158.357 512.838 L158.357 521.31 Q159.376 520.963 160.394 520.801 Q161.413 520.616 162.431 520.616 Q168.218 520.616 171.598 523.787 Q174.977 526.958 174.977 532.375 Q174.977 537.954 171.505 541.055 Q168.033 544.134 161.714 544.134 Q159.538 544.134 157.269 543.764 Q155.024 543.393 152.616 542.653 L152.616 537.954 Q154.7 539.088 156.922 539.643 Q159.144 540.199 161.621 540.199 Q165.626 540.199 167.964 538.092 Q170.302 535.986 170.302 532.375 Q170.302 528.764 167.964 526.657 Q165.626 524.551 161.621 524.551 Q159.746 524.551 157.871 524.968 Q156.019 525.384 154.075 526.264 L154.075 508.903 Z" fill="#000000" fill-rule="nonzero" fill-opacity="1" /><path clip-path="url(#clip500)" d="M184.19 537.583 L189.075 537.583 L189.075 543.463 L184.19 543.463 L184.19 537.583 Z" fill="#000000" fill-rule="nonzero" fill-opacity="1" /><path clip-path="url(#clip500)" d="M209.26 511.982 Q205.649 511.982 203.82 515.546 Q202.014 519.088 202.014 526.218 Q202.014 533.324 203.82 536.889 Q205.649 540.43 209.26 540.43 Q212.894 540.43 214.699 536.889 Q216.528 533.324 216.528 526.218 Q216.528 519.088 214.699 515.546 Q212.894 511.982 209.26 511.982 M209.26 508.278 Q215.07 508.278 218.125 512.884 Q221.204 517.468 221.204 526.218 Q221.204 534.944 218.125 539.551 Q215.07 544.134 209.26 544.134 Q203.449 544.134 200.371 539.551 Q197.315 534.944 197.315 526.218 Q197.315 517.468 200.371 512.884 Q203.449 508.278 209.26 508.278 Z" fill="#000000" fill-rule="nonzero" fill-opacity="1" /><path clip-path="url(#clip500)" d="M239.422 511.982 Q235.81 511.982 233.982 515.546 Q232.176 519.088 232.176 526.218 Q232.176 533.324 233.982 536.889 Q235.81 540.43 239.422 540.43 Q243.056 540.43 244.861 536.889 Q246.69 533.324 246.69 526.218 Q246.69 519.088 244.861 515.546 Q243.056 511.982 239.422 511.982 M239.422 508.278 Q245.232 508.278 248.287 512.884 Q251.366 517.468 251.366 526.218 Q251.366 534.944 248.287 539.551 Q245.232 544.134 239.422 544.134 Q233.611 544.134 230.533 539.551 Q227.477 534.944 227.477 526.218 Q227.477 517.468 230.533 512.884 Q233.611 508.278 239.422 508.278 Z" fill="#000000" fill-rule="nonzero" fill-opacity="1" /><path clip-path="url(#clip500)" d="M287.755 518 L277.176 528.625 L287.755 539.204 L285 542.004 L274.375 531.38 L263.75 542.004 L261.019 539.204 L271.574 528.625 L261.019 518 L263.75 515.199 L274.375 525.824 L285 515.199 L287.755 518 Z" fill="#000000" fill-rule="nonzero" fill-opacity="1" /><path clip-path="url(#clip500)" d="M300.116 539.528 L307.754 539.528 L307.754 513.162 L299.444 514.829 L299.444 510.569 L307.708 508.903 L312.384 508.903 L312.384 539.528 L320.023 539.528 L320.023 543.463 L300.116 543.463 L300.116 539.528 Z" fill="#000000" fill-rule="nonzero" fill-opacity="1" /><path clip-path="url(#clip500)" d="M339.467 511.982 Q335.856 511.982 334.027 515.546 Q332.222 519.088 332.222 526.218 Q332.222 533.324 334.027 536.889 Q335.856 540.43 339.467 540.43 Q343.102 540.43 344.907 536.889 Q346.736 533.324 346.736 526.218 Q346.736 519.088 344.907 515.546 Q343.102 511.982 339.467 511.982 M339.467 508.278 Q345.277 508.278 348.333 512.884 Q351.412 517.468 351.412 526.218 Q351.412 534.944 348.333 539.551 Q345.277 544.134 339.467 544.134 Q333.657 544.134 330.578 539.551 Q327.523 534.944 327.523 526.218 Q327.523 517.468 330.578 512.884 Q333.657 508.278 339.467 508.278 Z" fill="#000000" fill-rule="nonzero" fill-opacity="1" /><path clip-path="url(#clip500)" d="M364.088 491.283 L354.496 506.272 L364.088 506.272 L364.088 491.283 M363.091 487.972 L367.868 487.972 L367.868 506.272 L371.875 506.272 L371.875 509.432 L367.868 509.432 L367.868 516.052 L364.088 516.052 L364.088 509.432 L351.412 509.432 L351.412 505.765 L363.091 487.972 Z" fill="#000000" fill-rule="nonzero" fill-opacity="1" /><path clip-path="url(#clip500)" d="M359.93 165.433 Q356.319 165.433 354.49 168.998 Q352.685 172.539 352.685 179.669 Q352.685 186.775 354.49 190.34 Q356.319 193.882 359.93 193.882 Q363.564 193.882 365.37 190.34 Q367.199 186.775 367.199 179.669 Q367.199 172.539 365.37 168.998 Q363.564 165.433 359.93 165.433 M359.93 161.729 Q365.74 161.729 368.796 166.336 Q371.875 170.919 371.875 179.669 Q371.875 188.396 368.796 193.002 Q365.74 197.585 359.93 197.585 Q354.12 197.585 351.041 193.002 Q347.986 188.396 347.986 179.669 Q347.986 170.919 351.041 166.336 Q354.12 161.729 359.93 161.729 Z" fill="#000000" fill-rule="nonzero" fill-opacity="1" /><path clip-path="url(#clip500)" d="M16.4842 1223.83 L16.4842 1217.37 L45.3526 1217.37 Q52.9915 1217.37 56.3653 1214.6 Q59.7073 1211.83 59.7073 1205.62 Q59.7073 1199.45 56.3653 1196.68 Q52.9915 1193.91 45.3526 1193.91 L16.4842 1193.91 L16.4842 1187.45 L46.1484 1187.45 Q55.4423 1187.45 60.1847 1192.06 Q64.9272 1196.65 64.9272 1205.62 Q64.9272 1214.63 60.1847 1219.25 Q55.4423 1223.83 46.1484 1223.83 L16.4842 1223.83 Z" fill="#000000" fill-rule="nonzero" fill-opacity="1" /><path clip-path="url(#clip500)" d="M58.657 1169.97 L77.5631 1169.97 L77.5631 1175.86 L28.3562 1175.86 L28.3562 1169.97 L33.7671 1169.97 Q30.5842 1168.13 29.0564 1165.33 Q27.4968 1162.49 27.4968 1158.58 Q27.4968 1152.09 32.6531 1148.04 Q37.8093 1143.97 46.212 1143.97 Q54.6147 1143.97 59.771 1148.04 Q64.9272 1152.09 64.9272 1158.58 Q64.9272 1162.49 63.3994 1165.33 Q61.8398 1168.13 58.657 1169.97 M46.212 1150.05 Q39.7508 1150.05 36.0905 1152.72 Q32.3984 1155.37 32.3984 1160.01 Q32.3984 1164.66 36.0905 1167.33 Q39.7508 1169.97 46.212 1169.97 Q52.6732 1169.97 56.3653 1167.33 Q60.0256 1164.66 60.0256 1160.01 Q60.0256 1155.37 56.3653 1152.72 Q52.6732 1150.05 46.212 1150.05 Z" fill="#000000" fill-rule="nonzero" fill-opacity="1" /><path clip-path="url(#clip500)" d="M58.657 1128.6 L77.5631 1128.6 L77.5631 1134.49 L28.3562 1134.49 L28.3562 1128.6 L33.7671 1128.6 Q30.5842 1126.75 29.0564 1123.95 Q27.4968 1121.12 27.4968 1117.2 Q27.4968 1110.71 32.6531 1106.67 Q37.8093 1102.59 46.212 1102.59 Q54.6147 1102.59 59.771 1106.67 Q64.9272 1110.71 64.9272 1117.2 Q64.9272 1121.12 63.3994 1123.95 Q61.8398 1126.75 58.657 1128.6 M46.212 1108.67 Q39.7508 1108.67 36.0905 1111.35 Q32.3984 1113.99 32.3984 1118.64 Q32.3984 1123.28 36.0905 1125.96 Q39.7508 1128.6 46.212 1128.6 Q52.6732 1128.6 56.3653 1125.96 Q60.0256 1123.28 60.0256 1118.64 Q60.0256 1113.99 56.3653 1111.35 Q52.6732 1108.67 46.212 1108.67 Z" fill="#000000" fill-rule="nonzero" fill-opacity="1" /><path clip-path="url(#clip500)" d="M44.7161 1062.39 L47.5806 1062.39 L47.5806 1089.32 Q53.6281 1088.94 56.8109 1085.69 Q59.9619 1082.41 59.9619 1076.59 Q59.9619 1073.22 59.1344 1070.06 Q58.3069 1066.88 56.6518 1063.76 L62.1899 1063.76 Q63.5267 1066.91 64.227 1070.22 Q64.9272 1073.53 64.9272 1076.94 Q64.9272 1085.47 59.9619 1090.47 Q54.9967 1095.43 46.5303 1095.43 Q37.7774 1095.43 32.6531 1090.72 Q27.4968 1085.98 27.4968 1077.96 Q27.4968 1070.76 32.1438 1066.6 Q36.7589 1062.39 44.7161 1062.39 M42.9973 1068.25 Q38.1912 1068.31 35.3266 1070.96 Q32.4621 1073.57 32.4621 1077.89 Q32.4621 1082.8 35.2312 1085.76 Q38.0002 1088.68 43.0292 1089.13 L42.9973 1068.25 Z" fill="#000000" fill-rule="nonzero" fill-opacity="1" /><path clip-path="url(#clip500)" d="M33.8307 1032.13 Q33.2578 1033.11 33.0032 1034.29 Q32.7167 1035.44 32.7167 1036.84 Q32.7167 1041.8 35.9632 1044.47 Q39.1779 1047.12 45.2253 1047.12 L64.0042 1047.12 L64.0042 1053 L28.3562 1053 L28.3562 1047.12 L33.8944 1047.12 Q30.6479 1045.27 29.0883 1042.31 Q27.4968 1039.35 27.4968 1035.12 Q27.4968 1034.51 27.5923 1033.78 Q27.656 1033.05 27.8151 1032.16 L33.8307 1032.13 Z" fill="#000000" fill-rule="nonzero" fill-opacity="1" /><path clip-path="url(#clip500)" d="M43.5384 1033.11 L43.5384 1015.96 L48.7583 1015.96 L48.7583 1033.11 L43.5384 1033.11 Z" fill="#000000" fill-rule="nonzero" fill-opacity="1" /><path clip-path="url(#clip500)" d="M16.4842 1006.38 L16.4842 999.946 L58.5933 999.946 L58.5933 976.807 L64.0042 976.807 L64.0042 1006.38 L16.4842 1006.38 Z" fill="#000000" fill-rule="nonzero" fill-opacity="1" /><path clip-path="url(#clip500)" d="M44.7161 940.968 L47.5806 940.968 L47.5806 967.895 Q53.6281 967.513 56.8109 964.267 Q59.9619 960.988 59.9619 955.164 Q59.9619 951.79 59.1344 948.639 Q58.3069 945.456 56.6518 942.337 L62.1899 942.337 Q63.5267 945.488 64.227 948.798 Q64.9272 952.108 64.9272 955.514 Q64.9272 964.044 59.9619 969.041 Q54.9967 974.006 46.5303 974.006 Q37.7774 974.006 32.6531 969.296 Q27.4968 964.553 27.4968 956.532 Q27.4968 949.339 32.1438 945.17 Q36.7589 940.968 44.7161 940.968 M42.9973 946.825 Q38.1912 946.888 35.3266 949.53 Q32.4621 952.14 32.4621 956.469 Q32.4621 961.37 35.2312 964.33 Q38.0002 967.259 43.0292 967.704 L42.9973 946.825 Z" fill="#000000" fill-rule="nonzero" fill-opacity="1" /><path clip-path="url(#clip500)" d="M28.3562 935.557 L28.3562 929.351 L58.275 918.211 L28.3562 907.071 L28.3562 900.864 L64.0042 914.232 L64.0042 922.189 L28.3562 935.557 Z" fill="#000000" fill-rule="nonzero" fill-opacity="1" /><path clip-path="url(#clip500)" d="M44.7161 862.288 L47.5806 862.288 L47.5806 889.215 Q53.6281 888.833 56.8109 885.587 Q59.9619 882.308 59.9619 876.484 Q59.9619 873.11 59.1344 869.959 Q58.3069 866.776 56.6518 863.657 L62.1899 863.657 Q63.5267 866.808 64.227 870.118 Q64.9272 873.428 64.9272 876.834 Q64.9272 885.364 59.9619 890.361 Q54.9967 895.326 46.5303 895.326 Q37.7774 895.326 32.6531 890.615 Q27.4968 885.873 27.4968 877.852 Q27.4968 870.659 32.1438 866.489 Q36.7589 862.288 44.7161 862.288 M42.9973 868.144 Q38.1912 868.208 35.3266 870.85 Q32.4621 873.46 32.4621 877.789 Q32.4621 882.69 35.2312 885.65 Q38.0002 888.578 43.0292 889.024 L42.9973 868.144 Z" fill="#000000" fill-rule="nonzero" fill-opacity="1" /><path clip-path="url(#clip500)" d="M14.479 852.676 L14.479 846.819 L64.0042 846.819 L64.0042 852.676 L14.479 852.676 Z" fill="#000000" fill-rule="nonzero" fill-opacity="1" /><path clip-path="url(#clip500)" d="M16.4842 813.59 L16.4842 807.161 L58.5933 807.161 L58.5933 784.022 L64.0042 784.022 L64.0042 813.59 L16.4842 813.59 Z" fill="#000000" fill-rule="nonzero" fill-opacity="1" /><path clip-path="url(#clip500)" d="M32.4621 764.861 Q32.4621 769.572 36.1542 772.309 Q39.8145 775.046 46.212 775.046 Q52.6095 775.046 56.3017 772.341 Q59.9619 769.603 59.9619 764.861 Q59.9619 760.182 56.2698 757.445 Q52.5777 754.708 46.212 754.708 Q39.8781 754.708 36.186 757.445 Q32.4621 760.182 32.4621 764.861 M27.4968 764.861 Q27.4968 757.222 32.4621 752.862 Q37.4273 748.501 46.212 748.501 Q54.9649 748.501 59.9619 752.862 Q64.9272 757.222 64.9272 764.861 Q64.9272 772.532 59.9619 776.892 Q54.9649 781.221 46.212 781.221 Q37.4273 781.221 32.4621 776.892 Q27.4968 772.532 27.4968 764.861 Z" fill="#000000" fill-rule="nonzero" fill-opacity="1" /><path clip-path="url(#clip500)" d="M46.0847 722.593 Q46.0847 729.69 47.7079 732.428 Q49.3312 735.165 53.2461 735.165 Q56.3653 735.165 58.2114 733.128 Q60.0256 731.059 60.0256 727.526 Q60.0256 722.656 56.5881 719.728 Q53.1188 716.768 47.3897 716.768 L46.0847 716.768 L46.0847 722.593 M43.6657 710.912 L64.0042 710.912 L64.0042 716.768 L58.5933 716.768 Q61.8398 718.773 63.3994 721.765 Q64.9272 724.757 64.9272 729.086 Q64.9272 734.56 61.8716 737.807 Q58.7843 741.021 53.6281 741.021 Q47.6125 741.021 44.5569 737.011 Q41.5014 732.969 41.5014 724.98 L41.5014 716.768 L40.9285 716.768 Q36.8862 716.768 34.6901 719.442 Q32.4621 722.083 32.4621 726.889 Q32.4621 729.945 33.1941 732.841 Q33.9262 735.738 35.3903 738.411 L29.9795 738.411 Q28.7381 735.197 28.1334 732.173 Q27.4968 729.149 27.4968 726.285 Q27.4968 718.55 31.5072 714.731 Q35.5176 710.912 43.6657 710.912 Z" fill="#000000" fill-rule="nonzero" fill-opacity="1" /><path clip-path="url(#clip500)" d="M33.7671 675.391 L14.479 675.391 L14.479 669.534 L64.0042 669.534 L64.0042 675.391 L58.657 675.391 Q61.8398 677.237 63.3994 680.07 Q64.9272 682.871 64.9272 686.817 Q64.9272 693.279 59.771 697.353 Q54.6147 701.395 46.212 701.395 Q37.8093 701.395 32.6531 697.353 Q27.4968 693.279 27.4968 686.817 Q27.4968 682.871 29.0564 680.07 Q30.5842 677.237 33.7671 675.391 M46.212 695.347 Q52.6732 695.347 56.3653 692.706 Q60.0256 690.032 60.0256 685.385 Q60.0256 680.738 56.3653 678.064 Q52.6732 675.391 46.212 675.391 Q39.7508 675.391 36.0905 678.064 Q32.3984 680.738 32.3984 685.385 Q32.3984 690.032 36.0905 692.706 Q39.7508 695.347 46.212 695.347 Z" fill="#000000" fill-rule="nonzero" fill-opacity="1" /><path clip-path="url(#clip500)" d="M18.0438 608.01 L24.314 608.01 Q22.5634 611.67 21.704 614.917 Q20.8447 618.163 20.8447 621.187 Q20.8447 626.439 22.8817 629.303 Q24.9187 632.136 28.6745 632.136 Q31.8255 632.136 33.4488 630.258 Q35.0402 628.348 36.0269 623.065 L36.8226 619.182 Q38.1912 611.988 41.6605 608.583 Q45.098 605.145 50.8908 605.145 Q57.7976 605.145 61.3624 609.792 Q64.9272 614.407 64.9272 623.351 Q64.9272 626.725 64.1633 630.544 Q63.3994 634.332 61.9035 638.406 L55.2831 638.406 Q57.4793 634.491 58.5933 630.735 Q59.7073 626.98 59.7073 623.351 Q59.7073 617.845 57.543 614.853 Q55.3786 611.861 51.3682 611.861 Q47.8671 611.861 45.8937 614.025 Q43.9204 616.158 42.9337 621.06 L42.1698 624.974 Q40.7375 632.168 37.682 635.382 Q34.6264 638.597 29.1837 638.597 Q22.8817 638.597 19.2532 634.173 Q15.6248 629.717 15.6248 621.919 Q15.6248 618.577 16.2295 615.108 Q16.8343 611.638 18.0438 608.01 Z" fill="#000000" fill-rule="nonzero" fill-opacity="1" /><path clip-path="url(#clip500)" d="M42.4881 565.742 L64.0042 565.742 L64.0042 571.598 L42.679 571.598 Q37.6183 571.598 35.1038 573.571 Q32.5894 575.545 32.5894 579.492 Q32.5894 584.234 35.6131 586.971 Q38.6368 589.708 43.8567 589.708 L64.0042 589.708 L64.0042 595.597 L14.479 595.597 L14.479 589.708 L33.8944 589.708 Q30.6797 587.608 29.0883 584.775 Q27.4968 581.91 27.4968 578.187 Q27.4968 572.044 31.3163 568.893 Q35.1038 565.742 42.4881 565.742 Z" fill="#000000" fill-rule="nonzero" fill-opacity="1" /><path clip-path="url(#clip500)" d="M44.7161 523.569 L47.5806 523.569 L47.5806 550.496 Q53.6281 550.114 56.8109 546.867 Q59.9619 543.589 59.9619 537.764 Q59.9619 534.39 59.1344 531.239 Q58.3069 528.057 56.6518 524.937 L62.1899 524.937 Q63.5267 528.088 64.227 531.399 Q64.9272 534.709 64.9272 538.114 Q64.9272 546.644 59.9619 551.642 Q54.9967 556.607 46.5303 556.607 Q37.7774 556.607 32.6531 551.896 Q27.4968 547.154 27.4968 539.133 Q27.4968 531.94 32.1438 527.77 Q36.7589 523.569 44.7161 523.569 M42.9973 529.425 Q38.1912 529.489 35.3266 532.131 Q32.4621 534.741 32.4621 539.069 Q32.4621 543.971 35.2312 546.931 Q38.0002 549.859 43.0292 550.305 L42.9973 529.425 Z" fill="#000000" fill-rule="nonzero" fill-opacity="1" /><path clip-path="url(#clip500)" d="M33.7671 490.499 L14.479 490.499 L14.479 484.642 L64.0042 484.642 L64.0042 490.499 L58.657 490.499 Q61.8398 492.345 63.3994 495.178 Q64.9272 497.979 64.9272 501.925 Q64.9272 508.387 59.771 512.461 Q54.6147 516.503 46.212 516.503 Q37.8093 516.503 32.6531 512.461 Q27.4968 508.387 27.4968 501.925 Q27.4968 497.979 29.0564 495.178 Q30.5842 492.345 33.7671 490.499 M46.212 510.455 Q52.6732 510.455 56.3653 507.814 Q60.0256 505.14 60.0256 500.493 Q60.0256 495.846 56.3653 493.173 Q52.6732 490.499 46.212 490.499 Q39.7508 490.499 36.0905 493.173 Q32.3984 495.846 32.3984 500.493 Q32.3984 505.14 36.0905 507.814 Q39.7508 510.455 46.212 510.455 Z" fill="#000000" fill-rule="nonzero" fill-opacity="1" /><path clip-path="url(#clip500)" d="M14.5426 437.791 Q21.8632 442.056 29.0246 444.125 Q36.186 446.194 43.5384 446.194 Q50.8908 446.194 58.1159 444.125 Q65.3091 442.024 72.5979 437.791 L72.5979 442.883 Q65.1182 447.658 57.8931 450.045 Q50.668 452.4 43.5384 452.4 Q36.4406 452.4 29.2474 450.045 Q22.0542 447.69 14.5426 442.883 L14.5426 437.791 Z" fill="#000000" fill-rule="nonzero" fill-opacity="1" /><path clip-path="url(#clip500)" d="M14.479 426.651 L14.479 420.763 L43.7294 420.763 L28.3562 403.289 L28.3562 395.809 L45.0344 414.715 L64.0042 395.013 L64.0042 402.652 L46.5939 420.763 L64.0042 420.763 L64.0042 426.651 L14.479 426.651 Z" fill="#000000" fill-rule="nonzero" fill-opacity="1" /><path clip-path="url(#clip500)" d="M16.4842 392.658 L16.4842 386.165 L56.6518 376.171 L16.4842 366.209 L16.4842 358.983 L56.6518 348.989 L16.4842 339.027 L16.4842 332.502 L64.0042 344.438 L64.0042 352.522 L22.7544 362.548 L64.0042 372.67 L64.0042 380.754 L16.4842 392.658 Z" fill="#000000" fill-rule="nonzero" fill-opacity="1" /><path clip-path="url(#clip500)" d="M14.5426 325.15 L14.5426 320.057 Q22.0542 315.283 29.2474 312.928 Q36.4406 310.54 43.5384 310.54 Q50.668 310.54 57.8931 312.928 Q65.1182 315.283 72.5979 320.057 L72.5979 325.15 Q65.3091 320.917 58.1159 318.848 Q50.8908 316.747 43.5384 316.747 Q36.186 316.747 29.0246 318.848 Q21.8632 320.917 14.5426 325.15 Z" fill="#000000" fill-rule="nonzero" fill-opacity="1" /><path clip-path="url(#clip500)" d="M788.924 12.096 L797.107 12.096 L797.107 65.6895 L826.557 65.6895 L826.557 72.576 L788.924 72.576 L788.924 12.096 Z" fill="#000000" fill-rule="nonzero" fill-opacity="1" /><path clip-path="url(#clip500)" d="M850.943 32.4315 Q844.948 32.4315 841.464 37.1306 Q837.98 41.7891 837.98 49.9314 Q837.98 58.0738 841.423 62.7728 Q844.907 67.4314 850.943 67.4314 Q856.898 67.4314 860.382 62.7323 Q863.865 58.0333 863.865 49.9314 Q863.865 41.8701 860.382 37.1711 Q856.898 32.4315 850.943 32.4315 M850.943 26.1121 Q860.665 26.1121 866.215 32.4315 Q871.765 38.7509 871.765 49.9314 Q871.765 61.0714 866.215 67.4314 Q860.665 73.7508 850.943 73.7508 Q841.18 73.7508 835.631 67.4314 Q830.121 61.0714 830.121 49.9314 Q830.121 38.7509 835.631 32.4315 Q841.18 26.1121 850.943 26.1121 Z" fill="#000000" fill-rule="nonzero" fill-opacity="1" /><path clip-path="url(#clip500)" d="M904.739 49.7694 Q895.706 49.7694 892.222 51.8354 Q888.738 53.9013 888.738 58.8839 Q888.738 62.8538 891.331 65.2034 Q893.964 67.5124 898.46 67.5124 Q904.658 67.5124 908.385 63.1374 Q912.152 58.7219 912.152 51.4303 L912.152 49.7694 L904.739 49.7694 M919.606 46.6907 L919.606 72.576 L912.152 72.576 L912.152 65.6895 Q909.6 69.8214 905.792 71.8063 Q901.984 73.7508 896.475 73.7508 Q889.508 73.7508 885.376 69.8619 Q881.284 65.9325 881.284 59.3701 Q881.284 51.7138 886.388 47.825 Q891.533 43.9361 901.701 43.9361 L912.152 43.9361 L912.152 43.2069 Q912.152 38.0623 908.749 35.2672 Q905.387 32.4315 899.27 32.4315 Q895.381 32.4315 891.695 33.3632 Q888.009 34.295 884.606 36.1584 L884.606 29.2718 Q888.697 27.692 892.546 26.9223 Q896.394 26.1121 900.04 26.1121 Q909.884 26.1121 914.745 31.2163 Q919.606 36.3204 919.606 46.6907 Z" fill="#000000" fill-rule="nonzero" fill-opacity="1" /><path clip-path="url(#clip500)" d="M964.814 34.0924 L964.814 9.54393 L972.268 9.54393 L972.268 72.576 L964.814 72.576 L964.814 65.7705 Q962.464 69.8214 958.859 71.8063 Q955.294 73.7508 950.271 73.7508 Q942.048 73.7508 936.863 67.1883 Q931.718 60.6258 931.718 49.9314 Q931.718 39.2371 936.863 32.6746 Q942.048 26.1121 950.271 26.1121 Q955.294 26.1121 958.859 28.0971 Q962.464 30.0415 964.814 34.0924 M939.415 49.9314 Q939.415 58.1548 942.777 62.8538 Q946.18 67.5124 952.094 67.5124 Q958.008 67.5124 961.411 62.8538 Q964.814 58.1548 964.814 49.9314 Q964.814 41.7081 961.411 37.0496 Q958.008 32.3505 952.094 32.3505 Q946.18 32.3505 942.777 37.0496 Q939.415 41.7081 939.415 49.9314 Z" fill="#000000" fill-rule="nonzero" fill-opacity="1" /><path clip-path="url(#clip500)" d="M1050.57 14.0809 L1050.57 22.0612 Q1045.91 19.8332 1041.78 18.7395 Q1037.65 17.6457 1033.8 17.6457 Q1027.12 17.6457 1023.47 20.2383 Q1019.87 22.8309 1019.87 27.611 Q1019.87 31.6214 1022.26 33.6873 Q1024.69 35.7128 1031.41 36.9686 L1036.35 37.9813 Q1045.51 39.7232 1049.84 44.1387 Q1054.22 48.5136 1054.22 55.8863 Q1054.22 64.6767 1048.3 69.2137 Q1042.43 73.7508 1031.05 73.7508 Q1026.75 73.7508 1021.89 72.7785 Q1017.07 71.8063 1011.89 69.9024 L1011.89 61.4765 Q1016.87 64.2716 1021.65 65.6895 Q1026.43 67.1073 1031.05 67.1073 Q1038.05 67.1073 1041.86 64.3527 Q1045.67 61.598 1045.67 56.4939 Q1045.67 52.0379 1042.92 49.5264 Q1040.2 47.0148 1033.96 45.759 L1028.98 44.7868 Q1019.83 42.9639 1015.73 39.075 Q1011.64 35.1862 1011.64 28.2591 Q1011.64 20.2383 1017.27 15.6203 Q1022.94 11.0023 1032.87 11.0023 Q1037.12 11.0023 1041.54 11.7719 Q1045.95 12.5416 1050.57 14.0809 Z" fill="#000000" fill-rule="nonzero" fill-opacity="1" /><path clip-path="url(#clip500)" d="M1104.37 45.1919 L1104.37 72.576 L1096.91 72.576 L1096.91 45.4349 Q1096.91 38.994 1094.4 35.7938 Q1091.89 32.5936 1086.87 32.5936 Q1080.83 32.5936 1077.35 36.4419 Q1073.86 40.2903 1073.86 46.9338 L1073.86 72.576 L1066.37 72.576 L1066.37 9.54393 L1073.86 9.54393 L1073.86 34.2544 Q1076.54 30.163 1080.14 28.1376 Q1083.79 26.1121 1088.53 26.1121 Q1096.35 26.1121 1100.36 30.9732 Q1104.37 35.7938 1104.37 45.1919 Z" fill="#000000" fill-rule="nonzero" fill-opacity="1" /><path clip-path="url(#clip500)" d="M1158.04 48.0275 L1158.04 51.6733 L1123.77 51.6733 Q1124.26 59.3701 1128.39 63.421 Q1132.56 67.4314 1139.98 67.4314 Q1144.27 67.4314 1148.28 66.3781 Q1152.33 65.3249 1156.3 63.2184 L1156.3 70.267 Q1152.29 71.9684 1148.08 72.8596 Q1143.86 73.7508 1139.53 73.7508 Q1128.67 73.7508 1122.31 67.4314 Q1115.99 61.1119 1115.99 50.3365 Q1115.99 39.1965 1121.99 32.6746 Q1128.02 26.1121 1138.23 26.1121 Q1147.39 26.1121 1152.69 32.0264 Q1158.04 37.9003 1158.04 48.0275 M1150.59 45.84 Q1150.51 39.7232 1147.15 36.0774 Q1143.82 32.4315 1138.31 32.4315 Q1132.08 32.4315 1128.31 35.9558 Q1124.58 39.4801 1124.01 45.8805 L1150.59 45.84 Z" fill="#000000" fill-rule="nonzero" fill-opacity="1" /><path clip-path="url(#clip500)" d="M1200.13 34.0924 L1200.13 9.54393 L1207.58 9.54393 L1207.58 72.576 L1200.13 72.576 L1200.13 65.7705 Q1197.78 69.8214 1194.18 71.8063 Q1190.61 73.7508 1185.59 73.7508 Q1177.36 73.7508 1172.18 67.1883 Q1167.04 60.6258 1167.04 49.9314 Q1167.04 39.2371 1172.18 32.6746 Q1177.36 26.1121 1185.59 26.1121 Q1190.61 26.1121 1194.18 28.0971 Q1197.78 30.0415 1200.13 34.0924 M1174.73 49.9314 Q1174.73 58.1548 1178.09 62.8538 Q1181.5 67.5124 1187.41 67.5124 Q1193.33 67.5124 1196.73 62.8538 Q1200.13 58.1548 1200.13 49.9314 Q1200.13 41.7081 1196.73 37.0496 Q1193.33 32.3505 1187.41 32.3505 Q1181.5 32.3505 1178.09 37.0496 Q1174.73 41.7081 1174.73 49.9314 Z" fill="#000000" fill-rule="nonzero" fill-opacity="1" /><path clip-path="url(#clip500)" d="M1294.92 16.7545 L1294.92 25.383 Q1290.79 21.5346 1286.09 19.6307 Q1281.43 17.7268 1276.17 17.7268 Q1265.8 17.7268 1260.29 24.0867 Q1254.78 30.4061 1254.78 42.3968 Q1254.78 54.3469 1260.29 60.7069 Q1265.8 67.0263 1276.17 67.0263 Q1281.43 67.0263 1286.09 65.1223 Q1290.79 63.2184 1294.92 59.3701 L1294.92 67.9175 Q1290.63 70.8341 1285.81 72.2924 Q1281.03 73.7508 1275.68 73.7508 Q1261.95 73.7508 1254.05 65.3654 Q1246.15 56.9395 1246.15 42.3968 Q1246.15 27.8135 1254.05 19.4281 Q1261.95 11.0023 1275.68 11.0023 Q1281.11 11.0023 1285.89 12.4606 Q1290.71 13.8784 1294.92 16.7545 Z" fill="#000000" fill-rule="nonzero" fill-opacity="1" /><path clip-path="url(#clip500)" d="M1324.82 32.4315 Q1318.82 32.4315 1315.34 37.1306 Q1311.85 41.7891 1311.85 49.9314 Q1311.85 58.0738 1315.3 62.7728 Q1318.78 67.4314 1324.82 67.4314 Q1330.77 67.4314 1334.26 62.7323 Q1337.74 58.0333 1337.74 49.9314 Q1337.74 41.8701 1334.26 37.1711 Q1330.77 32.4315 1324.82 32.4315 M1324.82 26.1121 Q1334.54 26.1121 1340.09 32.4315 Q1345.64 38.7509 1345.64 49.9314 Q1345.64 61.0714 1340.09 67.4314 Q1334.54 73.7508 1324.82 73.7508 Q1315.06 73.7508 1309.51 67.4314 Q1304 61.0714 1304 49.9314 Q1304 38.7509 1309.51 32.4315 Q1315.06 26.1121 1324.82 26.1121 Z" fill="#000000" fill-rule="nonzero" fill-opacity="1" /><path clip-path="url(#clip500)" d="M1393.32 35.9153 Q1396.11 30.8922 1400 28.5022 Q1403.89 26.1121 1409.16 26.1121 Q1416.25 26.1121 1420.1 31.0947 Q1423.94 36.0368 1423.94 45.1919 L1423.94 72.576 L1416.45 72.576 L1416.45 45.4349 Q1416.45 38.913 1414.14 35.7533 Q1411.83 32.5936 1407.09 32.5936 Q1401.3 32.5936 1397.94 36.4419 Q1394.57 40.2903 1394.57 46.9338 L1394.57 72.576 L1387.08 72.576 L1387.08 45.4349 Q1387.08 38.8725 1384.77 35.7533 Q1382.46 32.5936 1377.64 32.5936 Q1371.93 32.5936 1368.57 36.4824 Q1365.21 40.3308 1365.21 46.9338 L1365.21 72.576 L1357.71 72.576 L1357.71 27.2059 L1365.21 27.2059 L1365.21 34.2544 Q1367.76 30.082 1371.32 28.0971 Q1374.89 26.1121 1379.79 26.1121 Q1384.73 26.1121 1388.17 28.6237 Q1391.66 31.1352 1393.32 35.9153 Z" fill="#000000" fill-rule="nonzero" fill-opacity="1" /><path clip-path="url(#clip500)" d="M1446.02 65.7705 L1446.02 89.8329 L1438.53 89.8329 L1438.53 27.2059 L1446.02 27.2059 L1446.02 34.0924 Q1448.37 30.0415 1451.94 28.0971 Q1455.54 26.1121 1460.52 26.1121 Q1468.79 26.1121 1473.93 32.6746 Q1479.12 39.2371 1479.12 49.9314 Q1479.12 60.6258 1473.93 67.1883 Q1468.79 73.7508 1460.52 73.7508 Q1455.54 73.7508 1451.94 71.8063 Q1448.37 69.8214 1446.02 65.7705 M1471.38 49.9314 Q1471.38 41.7081 1467.98 37.0496 Q1464.61 32.3505 1458.7 32.3505 Q1452.79 32.3505 1449.38 37.0496 Q1446.02 41.7081 1446.02 49.9314 Q1446.02 58.1548 1449.38 62.8538 Q1452.79 67.5124 1458.7 67.5124 Q1464.61 67.5124 1467.98 62.8538 Q1471.38 58.1548 1471.38 49.9314 Z" fill="#000000" fill-rule="nonzero" fill-opacity="1" /><path clip-path="url(#clip500)" d="M1512.09 49.7694 Q1503.06 49.7694 1499.57 51.8354 Q1496.09 53.9013 1496.09 58.8839 Q1496.09 62.8538 1498.68 65.2034 Q1501.32 67.5124 1505.81 67.5124 Q1512.01 67.5124 1515.74 63.1374 Q1519.5 58.7219 1519.5 51.4303 L1519.5 49.7694 L1512.09 49.7694 M1526.96 46.6907 L1526.96 72.576 L1519.5 72.576 L1519.5 65.6895 Q1516.95 69.8214 1513.14 71.8063 Q1509.34 73.7508 1503.83 73.7508 Q1496.86 73.7508 1492.73 69.8619 Q1488.64 65.9325 1488.64 59.3701 Q1488.64 51.7138 1493.74 47.825 Q1498.89 43.9361 1509.05 43.9361 L1519.5 43.9361 L1519.5 43.2069 Q1519.5 38.0623 1516.1 35.2672 Q1512.74 32.4315 1506.62 32.4315 Q1502.73 32.4315 1499.05 33.3632 Q1495.36 34.295 1491.96 36.1584 L1491.96 29.2718 Q1496.05 27.692 1499.9 26.9223 Q1503.75 26.1121 1507.39 26.1121 Q1517.24 26.1121 1522.1 31.2163 Q1526.96 36.3204 1526.96 46.6907 Z" fill="#000000" fill-rule="nonzero" fill-opacity="1" /><path clip-path="url(#clip500)" d="M1568.6 34.1734 Q1567.35 33.4443 1565.85 33.1202 Q1564.39 32.7556 1562.61 32.7556 Q1556.29 32.7556 1552.88 36.8875 Q1549.52 40.9789 1549.52 48.6757 L1549.52 72.576 L1542.03 72.576 L1542.03 27.2059 L1549.52 27.2059 L1549.52 34.2544 Q1551.87 30.1225 1555.64 28.1376 Q1559.41 26.1121 1564.79 26.1121 Q1565.56 26.1121 1566.49 26.2337 Q1567.43 26.3147 1568.56 26.5172 L1568.6 34.1734 Z" fill="#000000" fill-rule="nonzero" fill-opacity="1" /><path clip-path="url(#clip500)" d="M1576.42 27.2059 L1583.87 27.2059 L1583.87 72.576 L1576.42 72.576 L1576.42 27.2059 M1576.42 9.54393 L1583.87 9.54393 L1583.87 18.9825 L1576.42 18.9825 L1576.42 9.54393 Z" fill="#000000" fill-rule="nonzero" fill-opacity="1" /><path clip-path="url(#clip500)" d="M1628.39 28.5427 L1628.39 35.5912 Q1625.23 33.9709 1621.83 33.1607 Q1618.43 32.3505 1614.78 32.3505 Q1609.23 32.3505 1606.44 34.0519 Q1603.68 35.7533 1603.68 39.156 Q1603.68 41.7486 1605.67 43.2475 Q1607.65 44.7058 1613.65 46.0426 L1616.2 46.6097 Q1624.14 48.3111 1627.46 51.4303 Q1630.82 54.509 1630.82 60.0587 Q1630.82 66.3781 1625.8 70.0644 Q1620.82 73.7508 1612.07 73.7508 Q1608.42 73.7508 1604.45 73.0216 Q1600.52 72.3329 1596.15 70.9151 L1596.15 63.2184 Q1600.28 65.3654 1604.29 66.4591 Q1608.3 67.5124 1612.23 67.5124 Q1617.5 67.5124 1620.33 65.73 Q1623.17 63.9071 1623.17 60.6258 Q1623.17 57.5877 1621.1 55.9673 Q1619.08 54.3469 1612.15 52.8481 L1609.56 52.2405 Q1602.63 50.7821 1599.55 47.7845 Q1596.47 44.7463 1596.47 39.4801 Q1596.47 33.0797 1601.01 29.5959 Q1605.55 26.1121 1613.89 26.1121 Q1618.02 26.1121 1621.67 26.7198 Q1625.31 27.3274 1628.39 28.5427 Z" fill="#000000" fill-rule="nonzero" fill-opacity="1" /><path clip-path="url(#clip500)" d="M1660.27 32.4315 Q1654.28 32.4315 1650.79 37.1306 Q1647.31 41.7891 1647.31 49.9314 Q1647.31 58.0738 1650.75 62.7728 Q1654.24 67.4314 1660.27 67.4314 Q1666.23 67.4314 1669.71 62.7323 Q1673.2 58.0333 1673.2 49.9314 Q1673.2 41.8701 1669.71 37.1711 Q1666.23 32.4315 1660.27 32.4315 M1660.27 26.1121 Q1670 26.1121 1675.55 32.4315 Q1681.09 38.7509 1681.09 49.9314 Q1681.09 61.0714 1675.55 67.4314 Q1670 73.7508 1660.27 73.7508 Q1650.51 73.7508 1644.96 67.4314 Q1639.45 61.0714 1639.45 49.9314 Q1639.45 38.7509 1644.96 32.4315 Q1650.51 26.1121 1660.27 26.1121 Z" fill="#000000" fill-rule="nonzero" fill-opacity="1" /><path clip-path="url(#clip500)" d="M1731.16 45.1919 L1731.16 72.576 L1723.71 72.576 L1723.71 45.4349 Q1723.71 38.994 1721.2 35.7938 Q1718.69 32.5936 1713.66 32.5936 Q1707.63 32.5936 1704.14 36.4419 Q1700.66 40.2903 1700.66 46.9338 L1700.66 72.576 L1693.17 72.576 L1693.17 27.2059 L1700.66 27.2059 L1700.66 34.2544 Q1703.33 30.163 1706.94 28.1376 Q1710.59 26.1121 1715.32 26.1121 Q1723.14 26.1121 1727.15 30.9732 Q1731.16 35.7938 1731.16 45.1919 Z" fill="#000000" fill-rule="nonzero" fill-opacity="1" /><path clip-path="url(#clip500)" d="M1790.31 9.62495 Q1784.88 18.942 1782.25 28.0566 Q1779.61 37.1711 1779.61 46.5287 Q1779.61 55.8863 1782.25 65.0818 Q1784.92 74.2369 1790.31 83.5134 L1783.83 83.5134 Q1777.75 73.9938 1774.71 64.7983 Q1771.71 55.6027 1771.71 46.5287 Q1771.71 37.4952 1774.71 28.3401 Q1777.71 19.1851 1783.83 9.62495 L1790.31 9.62495 Z" fill="#000000" fill-rule="nonzero" fill-opacity="1" /><path clip-path="url(#clip500)" d="M1804.77 27.2059 L1812.22 27.2059 L1812.22 73.3862 Q1812.22 82.0551 1808.9 85.944 Q1805.62 89.8329 1798.29 89.8329 L1795.45 89.8329 L1795.45 83.5134 L1797.44 83.5134 Q1801.69 83.5134 1803.23 81.5285 Q1804.77 79.5841 1804.77 73.3862 L1804.77 27.2059 M1804.77 9.54393 L1812.22 9.54393 L1812.22 18.9825 L1804.77 18.9825 L1804.77 9.54393 Z" fill="#000000" fill-rule="nonzero" fill-opacity="1" /><path clip-path="url(#clip500)" d="M1848.44 49.7694 Q1839.4 49.7694 1835.92 51.8354 Q1832.44 53.9013 1832.44 58.8839 Q1832.44 62.8538 1835.03 65.2034 Q1837.66 67.5124 1842.16 67.5124 Q1848.36 67.5124 1852.08 63.1374 Q1855.85 58.7219 1855.85 51.4303 L1855.85 49.7694 L1848.44 49.7694 M1863.3 46.6907 L1863.3 72.576 L1855.85 72.576 L1855.85 65.6895 Q1853.3 69.8214 1849.49 71.8063 Q1845.68 73.7508 1840.17 73.7508 Q1833.21 73.7508 1829.07 69.8619 Q1824.98 65.9325 1824.98 59.3701 Q1824.98 51.7138 1830.09 47.825 Q1835.23 43.9361 1845.4 43.9361 L1855.85 43.9361 L1855.85 43.2069 Q1855.85 38.0623 1852.45 35.2672 Q1849.09 32.4315 1842.97 32.4315 Q1839.08 32.4315 1835.39 33.3632 Q1831.71 34.295 1828.3 36.1584 L1828.3 29.2718 Q1832.4 27.692 1836.24 26.9223 Q1840.09 26.1121 1843.74 26.1121 Q1853.58 26.1121 1858.44 31.2163 Q1863.3 36.3204 1863.3 46.6907 Z" fill="#000000" fill-rule="nonzero" fill-opacity="1" /><path clip-path="url(#clip500)" d="M1878.66 27.2059 L1886.11 27.2059 L1886.11 72.576 L1878.66 72.576 L1878.66 27.2059 M1878.66 9.54393 L1886.11 9.54393 L1886.11 18.9825 L1878.66 18.9825 L1878.66 9.54393 Z" fill="#000000" fill-rule="nonzero" fill-opacity="1" /><path clip-path="url(#clip500)" d="M1939.42 45.1919 L1939.42 72.576 L1931.97 72.576 L1931.97 45.4349 Q1931.97 38.994 1929.46 35.7938 Q1926.94 32.5936 1921.92 32.5936 Q1915.89 32.5936 1912.4 36.4419 Q1908.92 40.2903 1908.92 46.9338 L1908.92 72.576 L1901.42 72.576 L1901.42 27.2059 L1908.92 27.2059 L1908.92 34.2544 Q1911.59 30.163 1915.2 28.1376 Q1918.84 26.1121 1923.58 26.1121 Q1931.4 26.1121 1935.41 30.9732 Q1939.42 35.7938 1939.42 45.1919 Z" fill="#000000" fill-rule="nonzero" fill-opacity="1" /><path clip-path="url(#clip500)" d="M1953.11 9.62495 L1959.59 9.62495 Q1965.67 19.1851 1968.67 28.3401 Q1971.71 37.4952 1971.71 46.5287 Q1971.71 55.6027 1968.67 64.7983 Q1965.67 73.9938 1959.59 83.5134 L1953.11 83.5134 Q1958.5 74.2369 1961.13 65.0818 Q1963.81 55.8863 1963.81 46.5287 Q1963.81 37.1711 1961.13 28.0566 Q1958.5 18.942 1953.11 9.62495 Z" fill="#000000" fill-rule="nonzero" fill-opacity="1" /><path clip-path="url(#clip502)" d="M2283.37 185.946 L2272.06 181.258 L2267.37 169.946 L2272.06 158.634 L2283.37 153.946 L2294.69 158.634 L2299.37 169.946 L2294.69 181.258 Z" fill="#009af9" fill-rule="evenodd" fill-opacity="1" stroke="#000000" stroke-opacity="1" stroke-width="3.2"/>
<path clip-path="url(#clip502)" d="M2285.15 183.341 L2273.84 178.653 L2269.15 167.341 L2273.84 156.029 L2285.15 151.341 L2296.46 156.029 L2301.15 167.341 L2296.46 178.653 Z" fill="#009af9" fill-rule="evenodd" fill-opacity="1" stroke="#000000" stroke-opacity="1" stroke-width="3.2"/>
<path clip-path="url(#clip502)" d="M2285.45 183.943 L2274.14 179.255 L2269.45 167.943 L2274.14 156.631 L2285.45 151.943 L2296.76 156.631 L2301.45 167.943 L2296.76 179.255 Z" fill="#009af9" fill-rule="evenodd" fill-opacity="1" stroke="#000000" stroke-opacity="1" stroke-width="3.2"/>
<path clip-path="url(#clip502)" d="M2286.03 183.446 L2274.71 178.758 L2270.03 167.446 L2274.71 156.134 L2286.03 151.446 L2297.34 156.134 L2302.03 167.446 L2297.34 178.758 Z" fill="#009af9" fill-rule="evenodd" fill-opacity="1" stroke="#000000" stroke-opacity="1" stroke-width="3.2"/>
<path clip-path="url(#clip502)" d="M2287.29 1390.46 L2275.98 1385.77 L2271.29 1374.46 L2275.98 1363.15 L2287.29 1358.46 L2298.61 1363.15 L2303.29 1374.46 L2298.61 1385.77 Z" fill="#009af9" fill-rule="evenodd" fill-opacity="1" stroke="#000000" stroke-opacity="1" stroke-width="3.2"/>
<path clip-path="url(#clip502)" d="M2283.85 184.147 L2272.54 179.459 L2267.85 168.147 L2272.54 156.835 L2283.85 152.147 L2295.16 156.835 L2299.85 168.147 L2295.16 179.459 Z" fill="#009af9" fill-rule="evenodd" fill-opacity="1" stroke="#000000" stroke-opacity="1" stroke-width="3.2"/>
<path clip-path="url(#clip502)" d="M2286.01 183.523 L2274.7 178.835 L2270.01 167.523 L2274.7 156.211 L2286.01 151.523 L2297.32 156.211 L2302.01 167.523 L2297.32 178.835 Z" fill="#009af9" fill-rule="evenodd" fill-opacity="1" stroke="#000000" stroke-opacity="1" stroke-width="3.2"/>
<path clip-path="url(#clip502)" d="M2285.29 183.279 L2273.98 178.591 L2269.29 167.279 L2273.98 155.967 L2285.29 151.279 L2296.61 155.967 L2301.29 167.279 L2296.61 178.591 Z" fill="#009af9" fill-rule="evenodd" fill-opacity="1" stroke="#000000" stroke-opacity="1" stroke-width="3.2"/>
<path clip-path="url(#clip502)" d="M2285.77 175.909 L2274.45 171.221 L2269.77 159.909 L2274.45 148.597 L2285.77 143.909 L2297.08 148.597 L2301.77 159.909 L2297.08 171.221 Z" fill="#009af9" fill-rule="evenodd" fill-opacity="1" stroke="#000000" stroke-opacity="1" stroke-width="3.2"/>
<path clip-path="url(#clip502)" d="M2285.07 182.883 L2273.76 178.195 L2269.07 166.883 L2273.76 155.571 L2285.07 150.883 L2296.38 155.571 L2301.07 166.883 L2296.38 178.195 Z" fill="#009af9" fill-rule="evenodd" fill-opacity="1" stroke="#000000" stroke-opacity="1" stroke-width="3.2"/>
<polyline clip-path="url(#clip502)" style="stroke:#ff0000; stroke-linecap:round; stroke-linejoin:round; stroke-width:4; stroke-opacity:1; fill:none" stroke-dasharray="16, 10" points="462.918,1374.46 481.452,1362.19 499.985,1349.92 518.518,1337.66 537.051,1325.39 555.585,1313.12 574.118,1300.85 592.651,1288.58 611.184,1276.31 629.718,1264.05 648.251,1251.78 666.784,1239.51 685.318,1227.24 703.851,1214.97 722.384,1202.71 740.917,1190.44 759.451,1178.17 777.984,1165.9 796.517,1153.63 815.05,1141.36 833.584,1129.1 852.117,1116.83 870.65,1104.56 889.184,1092.29 907.717,1080.02 926.25,1067.76 944.783,1055.49 963.317,1043.22 981.85,1030.95 1000.38,1018.68 1018.92,1006.41 1037.45,994.146 1055.98,981.878 1074.52,969.61 1093.05,957.341 1111.58,945.073 1130.12,932.805 1148.65,920.537 1167.18,908.269 1185.72,896 1204.25,883.732 1222.78,871.464 1241.32,859.196 1259.85,846.928 1278.38,834.659 1296.92,822.391 1315.45,810.123 1333.98,797.855 1352.52,785.587 1371.05,773.318 1389.58,761.05 1408.12,748.782 1426.65,736.514 1445.18,724.246 1463.71,711.978 1482.25,699.709 1500.78,687.441 1519.31,675.173 1537.85,662.905 1556.38,650.637 1574.91,638.368 1593.45,626.1 1611.98,613.832 1630.51,601.564 1649.05,589.296 1667.58,577.027 1686.11,564.759 1704.65,552.491 1723.18,540.223 1741.71,527.955 1760.25,515.686 1778.78,503.418 1797.31,491.15 1815.85,478.882 1834.38,466.614 1852.91,454.345 1871.45,442.077 1889.98,429.809 1908.51,417.541 1927.05,405.273 1945.58,393.004 1964.11,380.736 1982.65,368.468 2001.18,356.2 2019.71,343.932 2038.25,331.663 2056.78,319.395 2075.31,307.127 2093.85,294.859 2112.38,282.591 2130.91,270.322 2149.45,258.054 2167.98,245.786 2186.51,233.518 2205.05,221.25 2223.58,208.981 2242.11,196.713 2260.65,184.445 2279.18,172.177 2297.71,159.909 "/>
<path clip-path="url(#clip500)" d="M472.704 321.906 L859.598 321.906 L859.598 166.386 L472.704 166.386  Z" fill="#ffffff" fill-rule="evenodd" fill-opacity="1"/>
<polyline clip-path="url(#clip500)" style="stroke:#000000; stroke-linecap:round; stroke-linejoin:round; stroke-width:4; stroke-opacity:1; fill:none" points="472.704,321.906 859.598,321.906 859.598,166.386 472.704,166.386 472.704,321.906 "/>
<path clip-path="url(#clip500)" d="M559.143 240.982 L543.055 234.314 L536.388 218.226 L543.055 202.138 L559.143 195.471 L575.231 202.138 L581.899 218.226 L575.231 234.314 Z" fill="#009af9" fill-rule="evenodd" fill-opacity="1" stroke="#000000" stroke-opacity="1" stroke-width="4.55111"/>
<path clip-path="url(#clip500)" d="M645.582 200.946 L650.258 200.946 L650.258 235.506 L645.582 235.506 L645.582 200.946 Z" fill="#000000" fill-rule="nonzero" fill-opacity="1" /><path clip-path="url(#clip500)" d="M663.591 202.219 L663.591 209.58 L672.365 209.58 L672.365 212.891 L663.591 212.891 L663.591 226.965 Q663.591 230.136 664.448 231.039 Q665.328 231.941 667.99 231.941 L672.365 231.941 L672.365 235.506 L667.99 235.506 Q663.059 235.506 661.184 233.678 Q659.309 231.826 659.309 226.965 L659.309 212.891 L656.184 212.891 L656.184 209.58 L659.309 209.58 L659.309 202.219 L663.591 202.219 Z" fill="#000000" fill-rule="nonzero" fill-opacity="1" /><path clip-path="url(#clip500)" d="M700.142 221.479 L700.142 223.562 L680.559 223.562 Q680.837 227.96 683.198 230.275 Q685.582 232.566 689.818 232.566 Q692.272 232.566 694.563 231.965 Q696.878 231.363 699.147 230.159 L699.147 234.187 Q696.855 235.159 694.448 235.668 Q692.04 236.178 689.563 236.178 Q683.36 236.178 679.726 232.566 Q676.114 228.955 676.114 222.798 Q676.114 216.432 679.54 212.705 Q682.989 208.955 688.823 208.955 Q694.054 208.955 697.087 212.335 Q700.142 215.692 700.142 221.479 M695.883 220.229 Q695.837 216.733 693.915 214.65 Q692.017 212.567 688.869 212.567 Q685.304 212.567 683.151 214.58 Q681.022 216.594 680.698 220.252 L695.883 220.229 Z" fill="#000000" fill-rule="nonzero" fill-opacity="1" /><path clip-path="url(#clip500)" d="M722.156 213.562 Q721.438 213.145 720.582 212.96 Q719.749 212.752 718.73 212.752 Q715.119 212.752 713.174 215.113 Q711.253 217.451 711.253 221.849 L711.253 235.506 L706.971 235.506 L706.971 209.58 L711.253 209.58 L711.253 213.608 Q712.596 211.247 714.749 210.113 Q716.901 208.955 719.98 208.955 Q720.42 208.955 720.952 209.025 Q721.485 209.071 722.133 209.187 L722.156 213.562 Z" fill="#000000" fill-rule="nonzero" fill-opacity="1" /><path clip-path="url(#clip500)" d="M738.406 222.474 Q733.244 222.474 731.253 223.654 Q729.262 224.835 729.262 227.682 Q729.262 229.951 730.744 231.293 Q732.248 232.613 734.818 232.613 Q738.36 232.613 740.489 230.113 Q742.642 227.59 742.642 223.423 L742.642 222.474 L738.406 222.474 M746.901 220.715 L746.901 235.506 L742.642 235.506 L742.642 231.571 Q741.184 233.932 739.008 235.066 Q736.832 236.178 733.684 236.178 Q729.702 236.178 727.341 233.955 Q725.003 231.71 725.003 227.96 Q725.003 223.585 727.92 221.363 Q730.86 219.141 736.67 219.141 L742.642 219.141 L742.642 218.724 Q742.642 215.784 740.697 214.187 Q738.776 212.567 735.281 212.567 Q733.059 212.567 730.952 213.099 Q728.846 213.631 726.901 214.696 L726.901 210.761 Q729.239 209.858 731.438 209.418 Q733.637 208.955 735.721 208.955 Q741.346 208.955 744.123 211.872 Q746.901 214.789 746.901 220.715 Z" fill="#000000" fill-rule="nonzero" fill-opacity="1" /><path clip-path="url(#clip500)" d="M759.887 202.219 L759.887 209.58 L768.66 209.58 L768.66 212.891 L759.887 212.891 L759.887 226.965 Q759.887 230.136 760.744 231.039 Q761.623 231.941 764.285 231.941 L768.66 231.941 L768.66 235.506 L764.285 235.506 Q759.355 235.506 757.48 233.678 Q755.605 231.826 755.605 226.965 L755.605 212.891 L752.48 212.891 L752.48 209.58 L755.605 209.58 L755.605 202.219 L759.887 202.219 Z" fill="#000000" fill-rule="nonzero" fill-opacity="1" /><path clip-path="url(#clip500)" d="M774.262 209.58 L778.521 209.58 L778.521 235.506 L774.262 235.506 L774.262 209.58 M774.262 199.488 L778.521 199.488 L778.521 204.881 L774.262 204.881 L774.262 199.488 Z" fill="#000000" fill-rule="nonzero" fill-opacity="1" /><path clip-path="url(#clip500)" d="M797.48 212.567 Q794.054 212.567 792.063 215.252 Q790.072 217.914 790.072 222.567 Q790.072 227.219 792.04 229.904 Q794.031 232.566 797.48 232.566 Q800.882 232.566 802.873 229.881 Q804.864 227.196 804.864 222.567 Q804.864 217.96 802.873 215.275 Q800.882 212.567 797.48 212.567 M797.48 208.955 Q803.035 208.955 806.206 212.567 Q809.378 216.178 809.378 222.567 Q809.378 228.932 806.206 232.566 Q803.035 236.178 797.48 236.178 Q791.901 236.178 788.73 232.566 Q785.581 228.932 785.581 222.567 Q785.581 216.178 788.73 212.567 Q791.901 208.955 797.48 208.955 Z" fill="#000000" fill-rule="nonzero" fill-opacity="1" /><path clip-path="url(#clip500)" d="M837.989 219.858 L837.989 235.506 L833.729 235.506 L833.729 219.997 Q833.729 216.317 832.294 214.488 Q830.859 212.659 827.989 212.659 Q824.54 212.659 822.549 214.858 Q820.558 217.057 820.558 220.854 L820.558 235.506 L816.276 235.506 L816.276 209.58 L820.558 209.58 L820.558 213.608 Q822.086 211.27 824.146 210.113 Q826.229 208.955 828.938 208.955 Q833.405 208.955 835.697 211.733 Q837.989 214.488 837.989 219.858 Z" fill="#000000" fill-rule="nonzero" fill-opacity="1" /><polyline clip-path="url(#clip500)" style="stroke:#ff0000; stroke-linecap:round; stroke-linejoin:round; stroke-width:4; stroke-opacity:1; fill:none" stroke-dasharray="16, 10" points="494.314,270.066 623.972,270.066 "/>
<path clip-path="url(#clip500)" d="M659.425 289.754 Q657.619 294.383 655.906 295.795 Q654.193 297.207 651.323 297.207 L647.92 297.207 L647.92 293.643 L650.42 293.643 Q652.179 293.643 653.152 292.809 Q654.124 291.976 655.304 288.874 L656.068 286.93 L645.582 261.42 L650.096 261.42 L658.198 281.698 L666.3 261.42 L670.814 261.42 L659.425 289.754 Z" fill="#000000" fill-rule="nonzero" fill-opacity="1" /><path clip-path="url(#clip500)" d="M677.249 265.819 L706.925 265.819 L706.925 269.707 L677.249 269.707 L677.249 265.819 M677.249 275.263 L706.925 275.263 L706.925 279.198 L677.249 279.198 L677.249 275.263 Z" fill="#000000" fill-rule="nonzero" fill-opacity="1" /><path clip-path="url(#clip500)" d="M737.966 261.42 L728.591 274.036 L738.452 287.346 L733.429 287.346 L725.883 277.161 L718.336 287.346 L713.313 287.346 L723.383 273.782 L714.17 261.42 L719.193 261.42 L726.068 270.657 L732.943 261.42 L737.966 261.42 Z" fill="#000000" fill-rule="nonzero" fill-opacity="1" /><path clip-path="url(#clip500)" d="M2285.89 219.989 L2314.54 219.989 L2314.54 121.118 L2283.37 127.368 L2283.37 111.396 L2314.36 105.146 L2331.9 105.146 L2331.9 219.989 L2360.54 219.989 L2360.54 234.746 L2285.89 234.746 L2285.89 219.989 Z" fill="#008000" fill-rule="nonzero" fill-opacity="1" /><path clip-path="url(#clip500)" d="M2306.24 217.384 L2367.44 217.384 L2367.44 232.141 L2285.15 232.141 L2285.15 217.384 Q2295.13 207.054 2312.32 189.693 Q2329.59 172.245 2334.02 167.211 Q2342.44 157.749 2345.74 151.239 Q2349.12 144.641 2349.12 138.305 Q2349.12 127.975 2341.83 121.464 Q2334.63 114.954 2323 114.954 Q2314.75 114.954 2305.55 117.819 Q2296.43 120.683 2286.02 126.499 L2286.02 108.791 Q2296.61 104.537 2305.81 102.367 Q2315.01 100.197 2322.65 100.197 Q2342.79 100.197 2354.77 110.267 Q2366.74 120.336 2366.74 137.176 Q2366.74 145.162 2363.71 152.367 Q2360.76 159.485 2352.86 169.207 Q2350.69 171.725 2339.05 183.79 Q2327.42 195.77 2306.24 217.384 Z" fill="#008000" fill-rule="nonzero" fill-opacity="1" /><path clip-path="url(#clip500)" d="M2344.04 162.865 Q2356.63 165.555 2363.66 174.062 Q2370.78 182.569 2370.78 195.069 Q2370.78 214.253 2357.58 224.757 Q2344.39 235.26 2320.09 235.26 Q2311.93 235.26 2303.24 233.611 Q2294.65 232.048 2285.45 228.836 L2285.45 211.909 Q2292.74 216.163 2301.42 218.333 Q2310.1 220.503 2319.56 220.503 Q2336.06 220.503 2344.65 213.993 Q2353.33 207.482 2353.33 195.069 Q2353.33 183.611 2345.26 177.187 Q2337.27 170.677 2322.95 170.677 L2307.85 170.677 L2307.85 156.267 L2323.64 156.267 Q2336.58 156.267 2343.44 151.146 Q2350.29 145.938 2350.29 136.215 Q2350.29 126.233 2343.18 120.938 Q2336.14 115.556 2322.95 115.556 Q2315.74 115.556 2307.5 117.118 Q2299.25 118.681 2289.36 121.979 L2289.36 106.354 Q2299.34 103.577 2308.02 102.188 Q2316.79 100.799 2324.51 100.799 Q2344.48 100.799 2356.11 109.913 Q2367.74 118.941 2367.74 134.392 Q2367.74 145.156 2361.58 152.622 Q2355.41 160 2344.04 162.865 Z" fill="#008000" fill-rule="nonzero" fill-opacity="1" /><path clip-path="url(#clip500)" d="M2344.53 117.924 L2300.26 187.107 L2344.53 187.107 L2344.53 117.924 M2339.93 102.646 L2361.98 102.646 L2361.98 187.107 L2380.47 187.107 L2380.47 201.691 L2361.98 201.691 L2361.98 232.246 L2344.53 232.246 L2344.53 201.691 L2286.03 201.691 L2286.03 184.764 L2339.93 102.646 Z" fill="#008000" fill-rule="nonzero" fill-opacity="1" /><path clip-path="url(#clip500)" d="M2292.76 1309.66 L2361.6 1309.66 L2361.6 1324.42 L2308.82 1324.42 L2308.82 1356.19 Q2312.64 1354.89 2316.46 1354.28 Q2320.28 1353.58 2324.1 1353.58 Q2345.8 1353.58 2358.47 1365.48 Q2371.15 1377.37 2371.15 1397.68 Q2371.15 1418.6 2358.13 1430.23 Q2345.11 1441.78 2321.41 1441.78 Q2313.25 1441.78 2304.74 1440.39 Q2296.32 1439 2287.29 1436.22 L2287.29 1418.6 Q2295.11 1422.85 2303.44 1424.94 Q2311.77 1427.02 2321.06 1427.02 Q2336.08 1427.02 2344.85 1419.12 Q2353.61 1411.22 2353.61 1397.68 Q2353.61 1384.14 2344.85 1376.24 Q2336.08 1368.34 2321.06 1368.34 Q2314.03 1368.34 2307 1369.9 Q2300.05 1371.47 2292.76 1374.76 L2292.76 1309.66 Z" fill="#008000" fill-rule="nonzero" fill-opacity="1" /><path clip-path="url(#clip500)" d="M2330.11 161.16 Q2318.31 161.16 2311.36 169.232 Q2304.51 177.305 2304.51 191.368 Q2304.51 205.343 2311.36 213.503 Q2318.31 221.576 2330.11 221.576 Q2341.92 221.576 2348.78 213.503 Q2355.72 205.343 2355.72 191.368 Q2355.72 177.305 2348.78 169.232 Q2341.92 161.16 2330.11 161.16 M2364.92 106.212 L2364.92 122.184 Q2358.33 119.059 2351.56 117.41 Q2344.87 115.761 2338.27 115.761 Q2320.91 115.761 2311.71 127.479 Q2302.6 139.198 2301.3 162.896 Q2306.42 155.344 2314.14 151.351 Q2321.87 147.271 2331.16 147.271 Q2350.69 147.271 2361.97 159.163 Q2373.34 170.969 2373.34 191.368 Q2373.34 211.333 2361.54 223.399 Q2349.73 235.465 2330.11 235.465 Q2307.63 235.465 2295.74 218.277 Q2283.85 201.003 2283.85 168.278 Q2283.85 137.549 2298.43 119.32 Q2313.01 101.004 2337.58 101.004 Q2344.18 101.004 2350.86 102.306 Q2357.63 103.608 2364.92 106.212 Z" fill="#008000" fill-rule="nonzero" fill-opacity="1" /><path clip-path="url(#clip500)" d="M2286.01 102.723 L2369.34 102.723 L2369.34 110.188 L2322.29 232.323 L2303.98 232.323 L2348.25 117.48 L2286.01 117.48 L2286.01 102.723 Z" fill="#008000" fill-rule="nonzero" fill-opacity="1" /><path clip-path="url(#clip500)" d="M2329.74 170.534 Q2317.24 170.534 2310.03 177.218 Q2302.92 183.902 2302.92 195.621 Q2302.92 207.34 2310.03 214.024 Q2317.24 220.708 2329.74 220.708 Q2342.24 220.708 2349.44 214.024 Q2356.65 207.253 2356.65 195.621 Q2356.65 183.902 2349.44 177.218 Q2342.33 170.534 2329.74 170.534 M2312.2 163.069 Q2300.92 160.291 2294.58 152.566 Q2288.33 144.84 2288.33 133.729 Q2288.33 118.191 2299.36 109.163 Q2310.47 100.135 2329.74 100.135 Q2349.1 100.135 2360.12 109.163 Q2371.14 118.191 2371.14 133.729 Q2371.14 144.84 2364.81 152.566 Q2358.56 160.291 2347.36 163.069 Q2360.03 166.021 2367.06 174.614 Q2374.18 183.208 2374.18 195.621 Q2374.18 214.458 2362.64 224.527 Q2351.18 234.597 2329.74 234.597 Q2308.3 234.597 2296.75 224.527 Q2285.29 214.458 2285.29 195.621 Q2285.29 183.208 2292.41 174.614 Q2299.53 166.021 2312.2 163.069 M2305.78 135.378 Q2305.78 145.448 2312.03 151.09 Q2318.37 156.732 2329.74 156.732 Q2341.02 156.732 2347.36 151.09 Q2353.78 145.448 2353.78 135.378 Q2353.78 125.309 2347.36 119.667 Q2341.02 114.024 2329.74 114.024 Q2318.37 114.024 2312.03 119.667 Q2305.78 125.309 2305.78 135.378 Z" fill="#008000" fill-rule="nonzero" fill-opacity="1" /><path clip-path="url(#clip500)" d="M2294.1 222.018 L2294.1 206.046 Q2300.7 209.171 2307.47 210.82 Q2314.24 212.469 2320.75 212.469 Q2338.11 212.469 2347.22 200.837 Q2356.42 189.119 2357.73 165.334 Q2352.69 172.799 2344.97 176.792 Q2337.24 180.785 2327.87 180.785 Q2308.42 180.785 2297.05 169.067 Q2285.77 157.261 2285.77 136.862 Q2285.77 116.897 2297.57 104.831 Q2309.38 92.7649 2328.99 92.7649 Q2351.48 92.7649 2363.28 110.039 Q2375.17 127.227 2375.17 160.039 Q2375.17 190.681 2360.59 208.997 Q2346.09 227.226 2321.53 227.226 Q2314.93 227.226 2308.16 225.924 Q2301.39 224.622 2294.1 222.018 M2328.99 167.07 Q2340.8 167.07 2347.66 158.997 Q2354.6 150.924 2354.6 136.862 Q2354.6 122.886 2347.66 114.813 Q2340.8 106.654 2328.99 106.654 Q2317.19 106.654 2310.24 114.813 Q2303.39 122.886 2303.39 136.862 Q2303.39 150.924 2310.24 158.997 Q2317.19 167.07 2328.99 167.07 Z" fill="#008000" fill-rule="nonzero" fill-opacity="1" /><path clip-path="url(#clip500)" d="M2287.59 216.927 L2316.23 216.927 L2316.23 118.056 L2285.07 124.306 L2285.07 108.333 L2316.06 102.083 L2333.59 102.083 L2333.59 216.927 L2362.24 216.927 L2362.24 231.683 L2287.59 231.683 L2287.59 216.927 Z" fill="#008000" fill-rule="nonzero" fill-opacity="1" /><path clip-path="url(#clip500)" d="M2435.16 113.629 Q2421.61 113.629 2414.76 126.997 Q2407.99 140.278 2407.99 167.014 Q2407.99 193.663 2414.76 207.031 Q2421.61 220.312 2435.16 220.312 Q2448.78 220.312 2455.56 207.031 Q2462.41 193.663 2462.41 167.014 Q2462.41 140.278 2455.56 126.997 Q2448.78 113.629 2435.16 113.629 M2435.16 99.7398 Q2456.94 99.7398 2468.4 117.014 Q2479.95 134.201 2479.95 167.014 Q2479.95 199.739 2468.4 217.013 Q2456.94 234.201 2435.16 234.201 Q2413.37 234.201 2401.82 217.013 Q2390.36 199.739 2390.36 167.014 Q2390.36 134.201 2401.82 117.014 Q2413.37 99.7398 2435.16 99.7398 Z" fill="#008000" fill-rule="nonzero" fill-opacity="1" /></svg>
