<?xml version="1.0" encoding="utf-8"?>
<svg xmlns="http://www.w3.org/2000/svg" xmlns:xlink="http://www.w3.org/1999/xlink" width="900" height="760" viewBox="0 0 3600 3040">
<defs>
  <clipPath id="clip110">
    <rect x="0" y="0" width="3600" height="3040"/>
  </clipPath>
</defs>
<path clip-path="url(#clip110)" d="M0 3040 L3600 3040 L3600 0 L0 0  Z" fill="#ffffff" fill-rule="evenodd" fill-opacity="1"/>
<defs>
  <clipPath id="clip111">
    <rect x="720" y="0" width="2521" height="2521"/>
  </clipPath>
</defs>
<path clip-path="url(#clip110)" d="M456.242 2595.6 L3474.02 2595.6 L3474.02 157.48 L456.242 157.48  Z" fill="#ffffff" fill-rule="evenodd" fill-opacity="1"/>
<defs>
  <clipPath id="clip112">
    <rect x="456" y="157" width="3019" height="2439"/>
  </clipPath>
</defs>
<polyline clip-path="url(#clip112)" style="stroke:#000000; stroke-linecap:round; stroke-linejoin:round; stroke-width:2; stroke-opacity:0.1; fill:none" points="744.307,2595.6 744.307,157.48 "/>
<polyline clip-path="url(#clip112)" style="stroke:#000000; stroke-linecap:round; stroke-linejoin:round; stroke-width:2; stroke-opacity:0.1; fill:none" points="1049.51,2595.6 1049.51,157.48 "/>
<polyline clip-path="url(#clip112)" style="stroke:#000000; stroke-linecap:round; stroke-linejoin:round; stroke-width:2; stroke-opacity:0.1; fill:none" points="1354.72,2595.6 1354.72,157.48 "/>
<polyline clip-path="url(#clip112)" style="stroke:#000000; stroke-linecap:round; stroke-linejoin:round; stroke-width:2; stroke-opacity:0.1; fill:none" points="1659.92,2595.6 1659.92,157.48 "/>
<polyline clip-path="url(#clip112)" style="stroke:#000000; stroke-linecap:round; stroke-linejoin:round; stroke-width:2; stroke-opacity:0.1; fill:none" points="1965.13,2595.6 1965.13,157.48 "/>
<polyline clip-path="url(#clip112)" style="stroke:#000000; stroke-linecap:round; stroke-linejoin:round; stroke-width:2; stroke-opacity:0.1; fill:none" points="2270.33,2595.6 2270.33,157.48 "/>
<polyline clip-path="url(#clip112)" style="stroke:#000000; stroke-linecap:round; stroke-linejoin:round; stroke-width:2; stroke-opacity:0.1; fill:none" points="2575.54,2595.6 2575.54,157.48 "/>
<polyline clip-path="url(#clip112)" style="stroke:#000000; stroke-linecap:round; stroke-linejoin:round; stroke-width:2; stroke-opacity:0.1; fill:none" points="2880.75,2595.6 2880.75,157.48 "/>
<polyline clip-path="url(#clip112)" style="stroke:#000000; stroke-linecap:round; stroke-linejoin:round; stroke-width:2; stroke-opacity:0.1; fill:none" points="3185.95,2595.6 3185.95,157.48 "/>
<polyline clip-path="url(#clip112)" style="stroke:#000000; stroke-linecap:round; stroke-linejoin:round; stroke-width:2; stroke-opacity:0.1; fill:none" points="456.242,2595.6 3474.02,2595.6 "/>
<polyline clip-path="url(#clip112)" style="stroke:#000000; stroke-linecap:round; stroke-linejoin:round; stroke-width:2; stroke-opacity:0.1; fill:none" points="456.242,2187.05 3474.02,2187.05 "/>
<polyline clip-path="url(#clip112)" style="stroke:#000000; stroke-linecap:round; stroke-linejoin:round; stroke-width:2; stroke-opacity:0.1; fill:none" points="456.242,1778.49 3474.02,1778.49 "/>
<polyline clip-path="url(#clip112)" style="stroke:#000000; stroke-linecap:round; stroke-linejoin:round; stroke-width:2; stroke-opacity:0.1; fill:none" points="456.242,1369.94 3474.02,1369.94 "/>
<polyline clip-path="url(#clip112)" style="stroke:#000000; stroke-linecap:round; stroke-linejoin:round; stroke-width:2; stroke-opacity:0.1; fill:none" points="456.242,961.383 3474.02,961.383 "/>
<polyline clip-path="url(#clip112)" style="stroke:#000000; stroke-linecap:round; stroke-linejoin:round; stroke-width:2; stroke-opacity:0.1; fill:none" points="456.242,552.828 3474.02,552.828 "/>
<polyline clip-path="url(#clip110)" style="stroke:#000000; stroke-linecap:round; stroke-linejoin:round; stroke-width:4; stroke-opacity:1; fill:none" points="456.242,2595.6 3474.02,2595.6 "/>
<polyline clip-path="url(#clip110)" style="stroke:#000000; stroke-linecap:round; stroke-linejoin:round; stroke-width:4; stroke-opacity:1; fill:none" points="744.307,2595.6 744.307,2576.71 "/>
<polyline clip-path="url(#clip110)" style="stroke:#000000; stroke-linecap:round; stroke-linejoin:round; stroke-width:4; stroke-opacity:1; fill:none" points="1049.51,2595.6 1049.51,2576.71 "/>
<polyline clip-path="url(#clip110)" style="stroke:#000000; stroke-linecap:round; stroke-linejoin:round; stroke-width:4; stroke-opacity:1; fill:none" points="1354.72,2595.6 1354.72,2576.71 "/>
<polyline clip-path="url(#clip110)" style="stroke:#000000; stroke-linecap:round; stroke-linejoin:round; stroke-width:4; stroke-opacity:1; fill:none" points="1659.92,2595.6 1659.92,2576.71 "/>
<polyline clip-path="url(#clip110)" style="stroke:#000000; stroke-linecap:round; stroke-linejoin:round; stroke-width:4; stroke-opacity:1; fill:none" points="1965.13,2595.6 1965.13,2576.71 "/>
<polyline clip-path="url(#clip110)" style="stroke:#000000; stroke-linecap:round; stroke-linejoin:round; stroke-width:4; stroke-opacity:1; fill:none" points="2270.33,2595.6 2270.33,2576.71 "/>
<polyline clip-path="url(#clip110)" style="stroke:#000000; stroke-linecap:round; stroke-linejoin:round; stroke-width:4; stroke-opacity:1; fill:none" points="2575.54,2595.6 2575.54,2576.71 "/>
<polyline clip-path="url(#clip110)" style="stroke:#000000; stroke-linecap:round; stroke-linejoin:round; stroke-width:4; stroke-opacity:1; fill:none" points="2880.75,2595.6 2880.75,2576.71 "/>
<polyline clip-path="url(#clip110)" style="stroke:#000000; stroke-linecap:round; stroke-linejoin:round; stroke-width:4; stroke-opacity:1; fill:none" points="3185.95,2595.6 3185.95,2576.71 "/>
<path clip-path="url(#clip110)" d="M693.628 2743.2 L693.628 2738.92 Q701.033 2738.92 702.731 2738.04 Q704.429 2737.09 704.429 2732.61 L704.429 2660.26 Q704.429 2655.09 702.595 2653.8 Q700.829 2652.51 693.628 2652.51 L693.628 2648.16 L713.601 2646.67 L713.601 2732.61 Q713.601 2737.09 715.367 2738.04 Q717.133 2738.92 724.47 2738.92 L724.47 2743.2 Q722.772 2743.2 719.239 2743.07 Q715.707 2742.93 713.125 2742.86 Q710.544 2742.8 709.049 2742.8 Q707.419 2742.8 693.628 2743.2 Z" fill="#000000" fill-rule="nonzero" fill-opacity="1" /><path clip-path="url(#clip110)" d="M735.34 2677.78 L739.891 2649.18 L743.356 2649.18 Q743.763 2650.88 744.443 2651.63 Q745.19 2652.38 749.13 2652.99 Q753.138 2653.6 761.223 2653.6 L794.986 2653.6 Q794.986 2656.79 793.763 2658.49 L774.945 2684.92 Q768.967 2693.27 766.318 2708.69 Q764.755 2719.02 764.823 2731.52 L764.823 2738.58 Q764.823 2746.26 758.369 2746.26 Q751.983 2746.26 751.983 2738.58 Q751.983 2712.02 769.103 2686.27 Q770.937 2683.63 777.663 2674.18 Q784.456 2664.74 784.728 2664.33 L755.924 2664.33 Q743.288 2664.33 742.269 2665.15 Q740.91 2666.37 738.804 2677.78 L735.34 2677.78 Z" fill="#000000" fill-rule="nonzero" fill-opacity="1" /><path clip-path="url(#clip110)" d="M1000.77 2743.2 L1000.77 2738.92 Q1008.17 2738.92 1009.87 2738.04 Q1011.57 2737.09 1011.57 2732.61 L1011.57 2660.26 Q1011.57 2655.09 1009.74 2653.8 Q1007.97 2652.51 1000.77 2652.51 L1000.77 2648.16 L1020.74 2646.67 L1020.74 2732.61 Q1020.74 2737.09 1022.51 2738.04 Q1024.27 2738.92 1031.61 2738.92 L1031.61 2743.2 Q1029.91 2743.2 1026.38 2743.07 Q1022.85 2742.93 1020.27 2742.86 Q1017.69 2742.8 1016.19 2742.8 Q1014.56 2742.8 1000.77 2743.2 Z" fill="#000000" fill-rule="nonzero" fill-opacity="1" /><path clip-path="url(#clip110)" d="M1040.51 2699.25 Q1040.51 2677.38 1051.65 2663.99 Q1062.79 2650.54 1077.13 2650.54 Q1085.48 2650.54 1090.1 2654.82 Q1094.79 2659.03 1094.79 2665.55 Q1094.79 2669.16 1092.68 2670.72 Q1090.58 2672.28 1088.4 2672.28 Q1085.89 2672.28 1083.92 2670.58 Q1081.95 2668.88 1081.95 2665.83 Q1081.95 2659.58 1089.63 2659.58 Q1086.03 2654.01 1077.4 2654.01 Q1074.75 2654.01 1072.03 2654.82 Q1069.32 2655.57 1065.78 2658.15 Q1062.25 2660.73 1059.53 2664.81 Q1056.82 2668.88 1054.91 2676.56 Q1053.01 2684.24 1053.01 2694.22 L1053.01 2697.55 Q1058.72 2683.76 1070.4 2683.83 Q1082.09 2683.83 1090.17 2692.73 Q1098.26 2701.63 1098.26 2714.81 Q1098.26 2728.33 1089.83 2737.29 Q1081.41 2746.26 1069.59 2746.26 Q1064.29 2746.26 1059.46 2744.02 Q1054.71 2741.84 1050.23 2736.82 Q1045.81 2731.79 1043.16 2722.14 Q1040.51 2712.5 1040.51 2699.25 M1053.28 2711.75 Q1053.28 2725.4 1055.8 2731.93 Q1056.2 2733.01 1057.09 2734.51 Q1058.04 2736 1059.6 2737.97 Q1061.23 2739.87 1063.88 2741.17 Q1066.53 2742.39 1069.59 2742.39 Q1078.89 2742.39 1083.38 2733.35 Q1085.76 2728.33 1085.76 2714.67 Q1085.76 2700.74 1083.24 2695.65 Q1078.96 2687.02 1070.27 2687.02 Q1064.42 2687.02 1060.35 2691.03 Q1056.34 2695.04 1054.78 2700.41 Q1053.28 2705.77 1053.28 2711.75 Z" fill="#000000" fill-rule="nonzero" fill-opacity="1" /><path clip-path="url(#clip110)" d="M1305.98 2743.2 L1305.98 2738.92 Q1313.38 2738.92 1315.08 2738.04 Q1316.78 2737.09 1316.78 2732.61 L1316.78 2660.26 Q1316.78 2655.09 1314.94 2653.8 Q1313.18 2652.51 1305.98 2652.51 L1305.98 2648.16 L1325.95 2646.67 L1325.95 2732.61 Q1325.95 2737.09 1327.71 2738.04 Q1329.48 2738.92 1336.82 2738.92 L1336.82 2743.2 Q1335.12 2743.2 1331.59 2743.07 Q1328.05 2742.93 1325.47 2742.86 Q1322.89 2742.8 1321.4 2742.8 Q1319.77 2742.8 1305.98 2743.2 Z" fill="#000000" fill-rule="nonzero" fill-opacity="1" /><path clip-path="url(#clip110)" d="M1345.72 2722.21 Q1345.72 2706.66 1365.76 2696.6 Q1357.13 2690.76 1355.57 2689.06 Q1349.45 2682.27 1349.45 2673.77 Q1349.45 2664.06 1356.79 2657.33 Q1364.19 2650.54 1374.66 2650.54 Q1384.64 2650.54 1392.18 2656.32 Q1399.72 2662.09 1399.72 2671.26 Q1399.72 2684.17 1382.88 2692.86 Q1394.02 2699.79 1396.67 2702.71 Q1403.46 2710.26 1403.46 2719.83 Q1403.46 2730.98 1394.9 2738.65 Q1386.34 2746.26 1374.52 2746.26 Q1362.97 2746.26 1354.34 2739.54 Q1345.72 2732.81 1345.72 2722.21 M1352.65 2722.21 Q1352.65 2730.84 1359.1 2736.61 Q1365.62 2742.39 1374.66 2742.39 Q1383.42 2742.39 1389.94 2737.36 Q1396.53 2732.33 1396.53 2724.86 Q1396.53 2721.94 1395.51 2719.43 Q1394.56 2716.91 1392.59 2714.94 Q1390.69 2712.9 1389.47 2712.02 Q1388.31 2711.07 1386.07 2709.51 L1368.95 2698.71 Q1352.65 2707.74 1352.65 2722.21 M1355.57 2668.34 Q1355.57 2675 1362.56 2679.62 L1379.82 2690.76 Q1393.61 2682.67 1393.61 2671.26 Q1393.61 2663.86 1387.97 2658.97 Q1382.33 2654.01 1374.52 2654.01 Q1366.84 2654.01 1361.21 2658.08 Q1355.57 2662.09 1355.57 2668.34 Z" fill="#000000" fill-rule="nonzero" fill-opacity="1" /><path clip-path="url(#clip110)" d="M1611.72 2743.2 L1611.72 2738.92 Q1619.13 2738.92 1620.83 2738.04 Q1622.53 2737.09 1622.53 2732.61 L1622.53 2660.26 Q1622.53 2655.09 1620.69 2653.8 Q1618.92 2652.51 1611.72 2652.51 L1611.72 2648.16 L1631.7 2646.67 L1631.7 2732.61 Q1631.7 2737.09 1633.46 2738.04 Q1635.23 2738.92 1642.57 2738.92 L1642.57 2743.2 Q1640.87 2743.2 1637.34 2743.07 Q1633.8 2742.93 1631.22 2742.86 Q1628.64 2742.8 1627.15 2742.8 Q1625.51 2742.8 1611.72 2743.2 Z" fill="#000000" fill-rule="nonzero" fill-opacity="1" /><path clip-path="url(#clip110)" d="M1652.55 2743.2 Q1652.55 2740.69 1652.76 2739.94 Q1653.03 2739.2 1654.11 2738.04 L1680.81 2708.29 Q1695.42 2691.85 1695.42 2677.51 Q1695.42 2668.2 1690.53 2661.55 Q1685.7 2654.89 1676.8 2654.89 Q1670.69 2654.89 1665.53 2658.63 Q1660.36 2662.36 1657.99 2669.02 Q1658.39 2668.88 1659.82 2668.88 Q1663.29 2668.88 1665.19 2671.06 Q1667.16 2673.23 1667.16 2676.15 Q1667.16 2679.89 1664.71 2681.72 Q1662.33 2683.49 1659.96 2683.49 Q1659.01 2683.49 1657.72 2683.29 Q1656.49 2683.08 1654.52 2681.18 Q1652.55 2679.21 1652.55 2675.74 Q1652.55 2666.03 1659.89 2658.29 Q1667.29 2650.54 1678.57 2650.54 Q1691.34 2650.54 1699.7 2658.15 Q1708.12 2665.69 1708.12 2677.51 Q1708.12 2681.66 1706.83 2685.46 Q1705.61 2689.2 1703.91 2692.12 Q1702.28 2695.04 1697.8 2699.73 Q1693.31 2704.41 1689.71 2707.74 Q1686.11 2711.07 1678.03 2718.14 L1663.29 2732.47 L1688.35 2732.47 Q1700.58 2732.47 1701.53 2731.38 Q1702.89 2729.41 1704.59 2719.02 L1708.12 2719.02 L1704.18 2743.2 L1652.55 2743.2 Z" fill="#000000" fill-rule="nonzero" fill-opacity="1" /><path clip-path="url(#clip110)" d="M1915.4 2743.2 L1915.4 2738.92 Q1922.81 2738.92 1924.5 2738.04 Q1926.2 2737.09 1926.2 2732.61 L1926.2 2660.26 Q1926.2 2655.09 1924.37 2653.8 Q1922.6 2652.51 1915.4 2652.51 L1915.4 2648.16 L1935.37 2646.67 L1935.37 2732.61 Q1935.37 2737.09 1937.14 2738.04 Q1938.91 2738.92 1946.24 2738.92 L1946.24 2743.2 Q1944.54 2743.2 1941.01 2743.07 Q1937.48 2742.93 1934.9 2742.86 Q1932.32 2742.8 1930.82 2742.8 Q1929.19 2742.8 1915.4 2743.2 Z" fill="#000000" fill-rule="nonzero" fill-opacity="1" /><path clip-path="url(#clip110)" d="M1953.17 2720.24 L1953.17 2715.96 L1995.9 2650.68 Q1996.99 2648.98 1998.69 2649.05 Q2000.25 2649.05 2000.59 2649.66 Q2000.93 2650.27 2000.93 2652.65 L2000.93 2715.96 L2014.86 2715.96 L2014.86 2720.24 L2000.93 2720.24 L2000.93 2732.33 Q2000.93 2736.34 2002.56 2737.63 Q2004.26 2738.92 2011.46 2738.92 L2014.38 2738.92 L2014.38 2743.2 Q2008.67 2742.8 1995.5 2742.8 Q1982.38 2742.8 1976.68 2743.2 L1976.68 2738.92 L1979.6 2738.92 Q1986.8 2738.92 1988.5 2737.7 Q1990.2 2736.41 1990.2 2732.33 L1990.2 2720.24 L1953.17 2720.24 M1957.11 2715.96 L1991.01 2715.96 L1991.01 2664.06 L1957.11 2715.96 Z" fill="#000000" fill-rule="nonzero" fill-opacity="1" /><path clip-path="url(#clip110)" d="M2222.13 2743.2 L2222.13 2738.92 Q2229.54 2738.92 2231.24 2738.04 Q2232.94 2737.09 2232.94 2732.61 L2232.94 2660.26 Q2232.94 2655.09 2231.1 2653.8 Q2229.34 2652.51 2222.13 2652.51 L2222.13 2648.16 L2242.11 2646.67 L2242.11 2732.61 Q2242.11 2737.09 2243.87 2738.04 Q2245.64 2738.92 2252.98 2738.92 L2252.98 2743.2 Q2251.28 2743.2 2247.75 2743.07 Q2244.21 2742.93 2241.63 2742.86 Q2239.05 2742.8 2237.56 2742.8 Q2235.93 2742.8 2222.13 2743.2 Z" fill="#000000" fill-rule="nonzero" fill-opacity="1" /><path clip-path="url(#clip110)" d="M2262.96 2720.79 Q2262.96 2716.64 2265.21 2715.08 Q2267.45 2713.45 2269.82 2713.45 Q2273.02 2713.45 2274.85 2715.49 Q2276.75 2717.46 2276.75 2720.24 Q2276.75 2723.03 2274.85 2725.07 Q2273.02 2727.04 2269.82 2727.04 Q2268.26 2727.04 2267.45 2726.76 Q2269.28 2733.15 2274.85 2737.77 Q2280.49 2742.39 2287.9 2742.39 Q2297.2 2742.39 2302.77 2733.35 Q2306.1 2727.51 2306.1 2714.26 Q2306.1 2702.58 2303.59 2696.74 Q2299.72 2687.84 2291.77 2687.84 Q2280.49 2687.84 2273.83 2697.55 Q2273.02 2698.77 2272.07 2698.84 Q2270.71 2698.84 2270.37 2698.1 Q2270.1 2697.28 2270.1 2695.17 L2270.1 2654.01 Q2270.1 2650.68 2271.46 2650.68 Q2272 2650.68 2273.15 2651.08 Q2281.92 2654.96 2291.63 2655.03 Q2301.62 2655.03 2310.59 2650.95 Q2311.26 2650.54 2311.67 2650.54 Q2313.03 2650.54 2313.1 2652.1 Q2313.1 2652.65 2311.94 2654.28 Q2310.86 2655.84 2308.48 2657.95 Q2306.1 2659.98 2303.04 2661.95 Q2299.99 2663.92 2295.5 2665.28 Q2291.09 2666.57 2286.2 2666.57 Q2280.35 2666.57 2274.38 2664.74 L2274.38 2691.85 Q2281.58 2684.78 2292.04 2684.78 Q2303.18 2684.78 2310.86 2693.75 Q2318.53 2702.71 2318.53 2715.21 Q2318.53 2728.33 2309.43 2737.29 Q2300.4 2746.26 2288.17 2746.26 Q2277.03 2746.26 2269.96 2738.31 Q2262.96 2730.36 2262.96 2720.79 Z" fill="#000000" fill-rule="nonzero" fill-opacity="1" /><path clip-path="url(#clip110)" d="M2526.8 2743.2 L2526.8 2738.92 Q2534.2 2738.92 2535.9 2738.04 Q2537.6 2737.09 2537.6 2732.61 L2537.6 2660.26 Q2537.6 2655.09 2535.76 2653.8 Q2534 2652.51 2526.8 2652.51 L2526.8 2648.16 L2546.77 2646.67 L2546.77 2732.61 Q2546.77 2737.09 2548.54 2738.04 Q2550.3 2738.92 2557.64 2738.92 L2557.64 2743.2 Q2555.94 2743.2 2552.41 2743.07 Q2548.88 2742.93 2546.29 2742.86 Q2543.71 2742.8 2542.22 2742.8 Q2540.59 2742.8 2526.8 2743.2 Z" fill="#000000" fill-rule="nonzero" fill-opacity="1" /><path clip-path="url(#clip110)" d="M2566.54 2724.45 Q2566.54 2720.31 2568.92 2718.34 Q2571.29 2716.37 2574.35 2716.37 Q2577.54 2716.37 2579.79 2718.48 Q2582.1 2720.51 2582.1 2724.11 Q2582.1 2727.99 2579.38 2730.16 Q2576.73 2732.33 2572.92 2731.79 Q2576.25 2737.36 2582.37 2739.87 Q2588.55 2742.39 2594.26 2742.39 Q2600.23 2742.39 2605.06 2737.23 Q2609.95 2732.06 2609.95 2719.43 Q2609.95 2708.69 2605.74 2702.51 Q2601.59 2696.33 2593.37 2696.33 L2587.26 2696.33 Q2585.15 2696.33 2584.54 2696.13 Q2583.93 2695.92 2583.93 2694.77 Q2583.93 2693.41 2586.04 2693.14 Q2588.14 2693.14 2591.47 2692.73 Q2599.55 2692.46 2603.83 2685.46 Q2607.71 2678.94 2607.71 2669.63 Q2607.71 2661.14 2603.63 2657.61 Q2599.62 2654.01 2594.39 2654.01 Q2589.5 2654.01 2584.13 2656.04 Q2578.77 2658.08 2575.85 2662.63 Q2584.47 2662.63 2584.47 2669.63 Q2584.47 2672.69 2582.5 2674.73 Q2580.6 2676.7 2577.41 2676.7 Q2574.35 2676.7 2572.31 2674.79 Q2570.27 2672.82 2570.27 2669.5 Q2570.27 2661.55 2577.34 2656.04 Q2584.47 2650.54 2594.93 2650.54 Q2605.26 2650.54 2612.87 2655.98 Q2620.55 2661.41 2620.55 2669.77 Q2620.55 2677.99 2615.11 2684.71 Q2609.68 2691.44 2601.05 2694.22 Q2611.65 2696.33 2617.96 2703.53 Q2624.28 2710.66 2624.28 2719.43 Q2624.28 2730.3 2615.72 2738.31 Q2607.16 2746.26 2594.66 2746.26 Q2583.11 2746.26 2574.83 2740.01 Q2566.54 2733.76 2566.54 2724.45 Z" fill="#000000" fill-rule="nonzero" fill-opacity="1" /><path clip-path="url(#clip110)" d="M2832 2743.2 L2832 2738.92 Q2839.41 2738.92 2841.11 2738.04 Q2842.8 2737.09 2842.8 2732.61 L2842.8 2660.26 Q2842.8 2655.09 2840.97 2653.8 Q2839.2 2652.51 2832 2652.51 L2832 2648.16 L2851.98 2646.67 L2851.98 2732.61 Q2851.98 2737.09 2853.74 2738.04 Q2855.51 2738.92 2862.84 2738.92 L2862.84 2743.2 Q2861.15 2743.2 2857.61 2743.07 Q2854.08 2742.93 2851.5 2742.86 Q2848.92 2742.8 2847.42 2742.8 Q2845.79 2742.8 2832 2743.2 Z" fill="#000000" fill-rule="nonzero" fill-opacity="1" /><path clip-path="url(#clip110)" d="M2871.74 2681.86 Q2871.74 2674.45 2873.92 2669.43 Q2876.09 2664.33 2880.64 2659.3 Q2889 2650.54 2901.09 2650.54 Q2906.25 2650.54 2910.81 2652.72 Q2915.43 2654.89 2919.77 2659.85 Q2924.19 2664.74 2926.84 2674.45 Q2929.49 2684.1 2929.49 2697.42 Q2929.49 2718.95 2919.03 2732.61 Q2908.63 2746.26 2894.57 2746.26 Q2885.67 2746.26 2880.44 2742.25 Q2875.21 2738.18 2875.21 2731.25 Q2875.21 2727.65 2877.25 2726.15 Q2879.28 2724.59 2881.59 2724.59 Q2884.11 2724.59 2886.08 2726.29 Q2888.05 2727.92 2888.05 2730.98 Q2888.05 2733.49 2886.42 2735.46 Q2884.86 2737.36 2880.78 2737.36 Q2884.79 2742.39 2894.43 2742.39 Q2897.9 2742.39 2901.36 2740.83 Q2904.83 2739.2 2908.56 2735.32 Q2912.37 2731.38 2914.68 2723.16 Q2916.99 2714.94 2916.99 2703.39 L2916.99 2698.98 Q2911.42 2712.9 2899.6 2712.9 Q2887.91 2712.9 2879.83 2703.94 Q2871.74 2694.97 2871.74 2681.86 M2884.24 2681.99 Q2884.24 2695.79 2886.76 2700.88 Q2891.04 2709.64 2899.73 2709.64 Q2908.22 2709.64 2912.44 2702.1 Q2916.72 2694.49 2916.72 2684.64 Q2916.72 2670.99 2914.47 2665.01 Q2910.33 2654.01 2901.09 2654.01 Q2891.92 2654.01 2887.16 2662.77 Q2884.24 2667.93 2884.24 2681.99 Z" fill="#000000" fill-rule="nonzero" fill-opacity="1" /><path clip-path="url(#clip110)" d="M3139.86 2743.2 L3139.86 2738.92 Q3147.26 2738.92 3148.96 2738.04 Q3150.66 2737.09 3150.66 2732.61 L3150.66 2660.26 Q3150.66 2655.09 3148.82 2653.8 Q3147.06 2652.51 3139.86 2652.51 L3139.86 2648.16 L3159.83 2646.67 L3159.83 2732.61 Q3159.83 2737.09 3161.6 2738.04 Q3163.36 2738.92 3170.7 2738.92 L3170.7 2743.2 Q3169 2743.2 3165.47 2743.07 Q3161.94 2742.93 3159.35 2742.86 Q3156.77 2742.8 3155.28 2742.8 Q3153.65 2742.8 3139.86 2743.2 Z" fill="#000000" fill-rule="nonzero" fill-opacity="1" /><path clip-path="url(#clip110)" d="M3186.12 2663.79 L3186.12 2659.44 Q3202.83 2659.44 3211.46 2650.54 Q3213.84 2650.54 3214.25 2651.08 Q3214.65 2651.63 3214.65 2654.14 L3214.65 2732.2 Q3214.65 2736.34 3216.69 2737.63 Q3218.73 2738.92 3227.63 2738.92 L3232.04 2738.92 L3232.04 2743.2 Q3227.15 2742.8 3209.49 2742.8 Q3191.83 2742.8 3187 2743.2 L3187 2738.92 L3191.42 2738.92 Q3200.18 2738.92 3202.29 2737.7 Q3204.39 2736.41 3204.39 2732.2 L3204.39 2660.12 Q3197.13 2663.79 3186.12 2663.79 Z" fill="#000000" fill-rule="nonzero" fill-opacity="1" /><path clip-path="url(#clip110)" d="M1841.96 2906.21 L1841.96 2901.93 Q1849.37 2901.93 1851.07 2901.05 Q1852.77 2900.1 1852.77 2895.61 L1852.77 2823.26 Q1852.77 2818.1 1850.93 2816.81 Q1849.17 2815.52 1841.96 2815.52 L1841.96 2811.17 L1861.94 2809.68 L1861.94 2895.61 Q1861.94 2900.1 1863.7 2901.05 Q1865.47 2901.93 1872.81 2901.93 L1872.81 2906.21 Q1871.11 2906.21 1867.58 2906.08 Q1864.04 2905.94 1861.46 2905.87 Q1858.88 2905.8 1857.39 2905.8 Q1855.75 2905.8 1841.96 2906.21 Z" fill="#000000" fill-rule="nonzero" fill-opacity="1" /><path clip-path="url(#clip110)" d="M1888.91 2898.74 Q1879.74 2889.64 1879.74 2876.46 Q1879.74 2863.21 1888.7 2853.56 Q1897.74 2843.85 1910.65 2843.85 Q1923.28 2843.85 1932.32 2853.49 Q1941.42 2863.07 1941.42 2876.46 Q1941.42 2889.57 1932.25 2898.67 Q1923.15 2907.77 1910.51 2907.77 Q1898.15 2907.77 1888.91 2898.74 M1891.28 2875.3 Q1891.28 2888.82 1894.82 2894.93 Q1900.25 2904.24 1910.65 2904.24 Q1915.81 2904.24 1920.09 2901.46 Q1924.44 2898.67 1926.81 2893.98 Q1929.87 2887.87 1929.87 2875.3 Q1929.87 2861.92 1926.2 2856.01 Q1920.77 2846.97 1910.51 2846.97 Q1906.03 2846.97 1901.61 2849.35 Q1897.26 2851.66 1894.61 2856.28 Q1891.28 2862.39 1891.28 2875.3 Z" fill="#000000" fill-rule="nonzero" fill-opacity="1" /><path clip-path="url(#clip110)" d="M1951.27 2892.96 Q1951.27 2881.14 1965.2 2874.89 Q1973.55 2870.89 1990.81 2869.87 L1990.81 2864.77 Q1990.81 2856.14 1986.26 2851.59 Q1981.77 2846.97 1976.07 2846.97 Q1965.88 2846.97 1960.98 2853.36 Q1965.13 2853.49 1966.62 2855.6 Q1968.12 2857.64 1968.12 2859.74 Q1968.12 2862.53 1966.35 2864.36 Q1964.65 2866.13 1961.73 2866.13 Q1958.95 2866.13 1957.11 2864.43 Q1955.28 2862.67 1955.28 2859.61 Q1955.28 2852.82 1961.39 2848.33 Q1967.57 2843.85 1976.34 2843.85 Q1987.75 2843.85 1995.36 2851.52 Q1997.74 2853.9 1998.89 2856.96 Q2000.11 2860.02 2000.25 2862.05 Q2000.39 2864.02 2000.39 2867.96 L2000.39 2895.75 Q2000.39 2896.56 2000.66 2897.92 Q2000.93 2899.28 2002.15 2901.05 Q2003.44 2902.75 2005.55 2902.75 Q2010.58 2902.75 2010.51 2893.85 L2010.51 2886.04 L2014.04 2886.04 L2014.04 2893.85 Q2014.04 2901.25 2010.1 2904.17 Q2006.23 2907.03 2002.63 2907.03 Q1998.01 2907.03 1995.09 2903.63 Q1992.17 2900.23 1991.76 2895.61 Q1989.65 2900.91 1984.83 2904.38 Q1980.07 2907.77 1973.55 2907.77 Q1968.53 2907.77 1963.77 2906.48 Q1959.08 2905.26 1955.14 2901.8 Q1951.27 2898.26 1951.27 2892.96 M1962 2892.83 Q1962 2897.99 1965.67 2901.32 Q1969.34 2904.65 1974.5 2904.65 Q1980.35 2904.65 1985.58 2900.17 Q1990.81 2895.61 1990.81 2886.71 L1990.81 2872.79 Q1975.39 2873.33 1968.66 2879.51 Q1962 2885.63 1962 2892.83 Z" fill="#000000" fill-rule="nonzero" fill-opacity="1" /><path clip-path="url(#clip110)" d="M2019.75 2876.32 Q2019.75 2863.07 2028.99 2853.9 Q2038.23 2844.73 2050.73 2844.73 Q2061.32 2844.73 2068.25 2853.36 L2068.25 2823.26 Q2068.25 2818.1 2066.42 2816.81 Q2064.65 2815.52 2057.45 2815.52 L2057.45 2811.17 L2077.49 2809.68 L2077.49 2894.12 Q2077.49 2899.28 2079.26 2900.64 Q2081.09 2901.93 2088.29 2901.93 L2088.29 2906.21 L2067.85 2907.77 L2067.85 2898.54 Q2060.64 2907.71 2049.23 2907.77 Q2037.27 2907.77 2028.51 2898.6 Q2019.75 2889.43 2019.75 2876.32 M2031.3 2876.46 Q2031.3 2889.36 2035.3 2895.75 Q2040.88 2904.65 2049.91 2904.65 Q2060.24 2904.65 2066.35 2894.93 Q2067.91 2892.56 2067.85 2889.77 L2067.85 2861.24 Q2067.85 2858.45 2066.35 2856.14 Q2060.64 2847.79 2051.34 2847.79 Q2041.62 2847.79 2035.58 2856.69 Q2031.3 2863.35 2031.3 2876.46 Z" fill="#000000" fill-rule="nonzero" fill-opacity="1" /><polyline clip-path="url(#clip110)" style="stroke:#000000; stroke-linecap:round; stroke-linejoin:round; stroke-width:4; stroke-opacity:1; fill:none" points="456.242,2595.6 456.242,157.48 "/>
<polyline clip-path="url(#clip110)" style="stroke:#000000; stroke-linecap:round; stroke-linejoin:round; stroke-width:4; stroke-opacity:1; fill:none" points="456.242,2595.6 475.139,2595.6 "/>
<polyline clip-path="url(#clip110)" style="stroke:#000000; stroke-linecap:round; stroke-linejoin:round; stroke-width:4; stroke-opacity:1; fill:none" points="456.242,2187.05 475.139,2187.05 "/>
<polyline clip-path="url(#clip110)" style="stroke:#000000; stroke-linecap:round; stroke-linejoin:round; stroke-width:4; stroke-opacity:1; fill:none" points="456.242,1778.49 475.139,1778.49 "/>
<polyline clip-path="url(#clip110)" style="stroke:#000000; stroke-linecap:round; stroke-linejoin:round; stroke-width:4; stroke-opacity:1; fill:none" points="456.242,1369.94 475.139,1369.94 "/>
<polyline clip-path="url(#clip110)" style="stroke:#000000; stroke-linecap:round; stroke-linejoin:round; stroke-width:4; stroke-opacity:1; fill:none" points="456.242,961.383 475.139,961.383 "/>
<polyline clip-path="url(#clip110)" style="stroke:#000000; stroke-linecap:round; stroke-linejoin:round; stroke-width:4; stroke-opacity:1; fill:none" points="456.242,552.828 475.139,552.828 "/>
<path clip-path="url(#clip110)" d="M343.682 2598.63 Q343.682 2578.18 348.845 2567.04 Q356.046 2550.46 373.03 2550.46 Q376.631 2550.46 380.367 2551.48 Q384.171 2552.43 388.927 2556.17 Q393.75 2559.9 396.671 2566.02 Q402.242 2577.84 402.242 2598.63 Q402.242 2618.94 397.079 2630.01 Q389.538 2646.18 372.894 2646.18 Q366.644 2646.18 360.258 2642.99 Q353.941 2639.79 349.932 2632.12 Q343.682 2620.64 343.682 2598.63 M355.231 2596.93 Q355.231 2617.92 356.726 2626.28 Q358.424 2635.31 363.044 2639.25 Q367.731 2643.12 372.894 2643.12 Q378.465 2643.12 383.084 2638.98 Q387.772 2634.77 389.198 2625.73 Q390.761 2616.83 390.693 2596.93 Q390.693 2577.57 389.334 2569.82 Q387.5 2560.79 382.609 2557.19 Q377.785 2553.52 372.894 2553.52 Q371.06 2553.52 369.09 2554.06 Q367.188 2554.61 364.402 2556.17 Q361.617 2557.73 359.443 2561.6 Q357.337 2565.47 356.318 2571.32 Q355.231 2578.86 355.231 2596.93 Z" fill="#000000" fill-rule="nonzero" fill-opacity="1" /><path clip-path="url(#clip110)" d="M346.672 2212.15 Q346.672 2208.01 348.913 2206.44 Q351.155 2204.81 353.533 2204.81 Q356.726 2204.81 358.56 2206.85 Q360.462 2208.82 360.462 2211.61 Q360.462 2214.39 358.56 2216.43 Q356.726 2218.4 353.533 2218.4 Q351.97 2218.4 351.155 2218.13 Q352.989 2224.51 358.56 2229.13 Q364.199 2233.75 371.603 2233.75 Q380.91 2233.75 386.481 2224.72 Q389.81 2218.88 389.81 2205.63 Q389.81 2193.94 387.296 2188.1 Q383.424 2179.2 375.476 2179.2 Q364.199 2179.2 357.541 2188.92 Q356.726 2190.14 355.775 2190.21 Q354.416 2190.21 354.076 2189.46 Q353.805 2188.65 353.805 2186.54 L353.805 2145.37 Q353.805 2142.04 355.163 2142.04 Q355.707 2142.04 356.862 2142.45 Q365.625 2146.32 375.34 2146.39 Q385.326 2146.39 394.293 2142.31 Q394.973 2141.91 395.38 2141.91 Q396.739 2141.91 396.807 2143.47 Q396.807 2144.01 395.652 2145.64 Q394.565 2147.21 392.188 2149.31 Q389.81 2151.35 386.753 2153.32 Q383.696 2155.29 379.212 2156.65 Q374.796 2157.94 369.905 2157.94 Q364.063 2157.94 358.085 2156.1 L358.085 2183.21 Q365.286 2176.15 375.747 2176.15 Q386.889 2176.15 394.565 2185.11 Q402.242 2194.08 402.242 2206.58 Q402.242 2219.69 393.139 2228.66 Q384.103 2237.63 371.875 2237.63 Q360.734 2237.63 353.669 2229.68 Q346.672 2221.73 346.672 2212.15 Z" fill="#000000" fill-rule="nonzero" fill-opacity="1" /><path clip-path="url(#clip110)" d="M281.047 1746.6 L281.047 1742.25 Q297.759 1742.25 306.387 1733.35 Q308.764 1733.35 309.172 1733.89 Q309.579 1734.44 309.579 1736.95 L309.579 1815.01 Q309.579 1819.15 311.617 1820.44 Q313.656 1821.73 322.555 1821.73 L326.971 1821.73 L326.971 1826.01 Q322.079 1825.61 304.416 1825.61 Q286.754 1825.61 281.93 1826.01 L281.93 1821.73 L286.346 1821.73 Q295.109 1821.73 297.215 1820.51 Q299.321 1819.22 299.321 1815.01 L299.321 1742.93 Q292.052 1746.6 281.047 1746.6 Z" fill="#000000" fill-rule="nonzero" fill-opacity="1" /><path clip-path="url(#clip110)" d="M343.682 1781.52 Q343.682 1761.07 348.845 1749.93 Q356.046 1733.35 373.03 1733.35 Q376.631 1733.35 380.367 1734.37 Q384.171 1735.32 388.927 1739.06 Q393.75 1742.79 396.671 1748.91 Q402.242 1760.73 402.242 1781.52 Q402.242 1801.83 397.079 1812.9 Q389.538 1829.07 372.894 1829.07 Q366.644 1829.07 360.258 1825.88 Q353.941 1822.68 349.932 1815.01 Q343.682 1803.53 343.682 1781.52 M355.231 1779.82 Q355.231 1800.81 356.726 1809.17 Q358.424 1818.2 363.044 1822.14 Q367.731 1826.01 372.894 1826.01 Q378.465 1826.01 383.084 1821.87 Q387.772 1817.66 389.198 1808.62 Q390.761 1799.72 390.693 1779.82 Q390.693 1760.46 389.334 1752.71 Q387.5 1743.68 382.609 1740.08 Q377.785 1736.41 372.894 1736.41 Q371.06 1736.41 369.09 1736.95 Q367.188 1737.5 364.402 1739.06 Q361.617 1740.62 359.443 1744.49 Q357.337 1748.36 356.318 1754.21 Q355.231 1761.75 355.231 1779.82 Z" fill="#000000" fill-rule="nonzero" fill-opacity="1" /><path clip-path="url(#clip110)" d="M282.542 1338.04 L282.542 1333.7 Q299.253 1333.7 307.881 1324.8 Q310.259 1324.8 310.666 1325.34 Q311.074 1325.88 311.074 1328.4 L311.074 1406.45 Q311.074 1410.6 313.112 1411.89 Q315.15 1413.18 324.049 1413.18 L328.465 1413.18 L328.465 1417.46 Q323.574 1417.05 305.911 1417.05 Q288.248 1417.05 283.425 1417.46 L283.425 1413.18 L287.841 1413.18 Q296.604 1413.18 298.71 1411.96 Q300.816 1410.66 300.816 1406.45 L300.816 1334.37 Q293.547 1338.04 282.542 1338.04 Z" fill="#000000" fill-rule="nonzero" fill-opacity="1" /><path clip-path="url(#clip110)" d="M346.672 1395.04 Q346.672 1390.9 348.913 1389.33 Q351.155 1387.7 353.533 1387.7 Q356.726 1387.7 358.56 1389.74 Q360.462 1391.71 360.462 1394.5 Q360.462 1397.28 358.56 1399.32 Q356.726 1401.29 353.533 1401.29 Q351.97 1401.29 351.155 1401.02 Q352.989 1407.4 358.56 1412.02 Q364.199 1416.64 371.603 1416.64 Q380.91 1416.64 386.481 1407.61 Q389.81 1401.77 389.81 1388.52 Q389.81 1376.83 387.296 1370.99 Q383.424 1362.09 375.476 1362.09 Q364.199 1362.09 357.541 1371.81 Q356.726 1373.03 355.775 1373.1 Q354.416 1373.1 354.076 1372.35 Q353.805 1371.53 353.805 1369.43 L353.805 1328.26 Q353.805 1324.93 355.163 1324.93 Q355.707 1324.93 356.862 1325.34 Q365.625 1329.21 375.34 1329.28 Q385.326 1329.28 394.293 1325.2 Q394.973 1324.8 395.38 1324.8 Q396.739 1324.8 396.807 1326.36 Q396.807 1326.9 395.652 1328.53 Q394.565 1330.09 392.188 1332.2 Q389.81 1334.24 386.753 1336.21 Q383.696 1338.18 379.212 1339.54 Q374.796 1340.83 369.905 1340.83 Q364.063 1340.83 358.085 1338.99 L358.085 1366.1 Q365.286 1359.03 375.747 1359.03 Q386.889 1359.03 394.565 1368 Q402.242 1376.97 402.242 1389.47 Q402.242 1402.58 393.139 1411.55 Q384.103 1420.52 371.875 1420.52 Q360.734 1420.52 353.669 1412.57 Q346.672 1404.62 346.672 1395.04 Z" fill="#000000" fill-rule="nonzero" fill-opacity="1" /><path clip-path="url(#clip110)" d="M275.612 1008.9 Q275.612 1006.39 275.816 1005.64 Q276.088 1004.9 277.175 1003.74 L303.873 973.985 Q318.479 957.545 318.479 943.211 Q318.479 933.904 313.588 927.246 Q308.764 920.589 299.865 920.589 Q293.751 920.589 288.588 924.325 Q283.425 928.062 281.047 934.719 Q281.455 934.583 282.881 934.583 Q286.346 934.583 288.248 936.757 Q290.218 938.931 290.218 941.852 Q290.218 945.589 287.773 947.423 Q285.395 949.189 283.017 949.189 Q282.066 949.189 280.775 948.985 Q279.553 948.782 277.582 946.879 Q275.612 944.909 275.612 941.445 Q275.612 931.73 282.949 923.986 Q290.354 916.241 301.631 916.241 Q314.403 916.241 322.759 923.85 Q331.183 931.39 331.183 943.211 Q331.183 947.355 329.892 951.159 Q328.669 954.896 326.971 957.817 Q325.34 960.738 320.857 965.425 Q316.373 970.113 312.772 973.442 Q309.172 976.77 301.088 983.836 L286.346 998.17 L311.414 998.17 Q323.642 998.17 324.593 997.083 Q325.952 995.113 327.65 984.719 L331.183 984.719 L327.242 1008.9 L275.612 1008.9 Z" fill="#000000" fill-rule="nonzero" fill-opacity="1" /><path clip-path="url(#clip110)" d="M343.682 964.406 Q343.682 943.958 348.845 932.817 Q356.046 916.241 373.03 916.241 Q376.631 916.241 380.367 917.26 Q384.171 918.211 388.927 921.948 Q393.75 925.684 396.671 931.798 Q402.242 943.619 402.242 964.406 Q402.242 984.719 397.079 995.792 Q389.538 1011.96 372.894 1011.96 Q366.644 1011.96 360.258 1008.77 Q353.941 1005.57 349.932 997.898 Q343.682 986.417 343.682 964.406 M355.231 962.708 Q355.231 983.7 356.726 992.056 Q358.424 1001.09 363.044 1005.03 Q367.731 1008.9 372.894 1008.9 Q378.465 1008.9 383.084 1004.76 Q387.772 1000.55 389.198 991.512 Q390.761 982.613 390.693 962.708 Q390.693 943.347 389.334 935.602 Q387.5 926.567 382.609 922.967 Q377.785 919.298 372.894 919.298 Q371.06 919.298 369.09 919.842 Q367.188 920.385 364.402 921.948 Q361.617 923.51 359.443 927.382 Q357.337 931.255 356.318 937.097 Q355.231 944.638 355.231 962.708 Z" fill="#000000" fill-rule="nonzero" fill-opacity="1" /><path clip-path="url(#clip110)" d="M277.107 600.348 Q277.107 597.835 277.311 597.087 Q277.582 596.34 278.669 595.185 L305.368 565.43 Q319.973 548.99 319.973 534.656 Q319.973 525.349 315.082 518.691 Q310.259 512.034 301.359 512.034 Q295.245 512.034 290.082 515.77 Q284.919 519.507 282.542 526.164 Q282.949 526.028 284.376 526.028 Q287.841 526.028 289.743 528.202 Q291.713 530.376 291.713 533.297 Q291.713 537.034 289.267 538.868 Q286.889 540.634 284.512 540.634 Q283.561 540.634 282.27 540.43 Q281.047 540.226 279.077 538.324 Q277.107 536.354 277.107 532.89 Q277.107 523.175 284.444 515.43 Q291.849 507.686 303.126 507.686 Q315.897 507.686 324.253 515.295 Q332.677 522.835 332.677 534.656 Q332.677 538.8 331.386 542.604 Q330.164 546.341 328.465 549.262 Q326.835 552.183 322.351 556.87 Q317.867 561.558 314.267 564.887 Q310.666 568.215 302.582 575.281 L287.841 589.615 L312.908 589.615 Q325.136 589.615 326.087 588.528 Q327.446 586.558 329.145 576.164 L332.677 576.164 L328.737 600.348 L277.107 600.348 Z" fill="#000000" fill-rule="nonzero" fill-opacity="1" /><path clip-path="url(#clip110)" d="M346.672 577.93 Q346.672 573.786 348.913 572.223 Q351.155 570.593 353.533 570.593 Q356.726 570.593 358.56 572.631 Q360.462 574.601 360.462 577.386 Q360.462 580.172 358.56 582.21 Q356.726 584.18 353.533 584.18 Q351.97 584.18 351.155 583.908 Q352.989 590.294 358.56 594.914 Q364.199 599.533 371.603 599.533 Q380.91 599.533 386.481 590.498 Q389.81 584.655 389.81 571.408 Q389.81 559.724 387.296 553.881 Q383.424 544.982 375.476 544.982 Q364.199 544.982 357.541 554.696 Q356.726 555.919 355.775 555.987 Q354.416 555.987 354.076 555.24 Q353.805 554.425 353.805 552.319 L353.805 511.151 Q353.805 507.822 355.163 507.822 Q355.707 507.822 356.862 508.229 Q365.625 512.102 375.34 512.17 Q385.326 512.17 394.293 508.094 Q394.973 507.686 395.38 507.686 Q396.739 507.686 396.807 509.248 Q396.807 509.792 395.652 511.422 Q394.565 512.985 392.188 515.091 Q389.81 517.129 386.753 519.099 Q383.696 521.069 379.212 522.428 Q374.796 523.718 369.905 523.718 Q364.063 523.718 358.085 521.884 L358.085 548.99 Q365.286 541.925 375.747 541.925 Q386.889 541.925 394.565 550.892 Q402.242 559.859 402.242 572.359 Q402.242 585.471 393.139 594.438 Q384.103 603.405 371.875 603.405 Q360.734 603.405 353.669 595.457 Q346.672 587.509 346.672 577.93 Z" fill="#000000" fill-rule="nonzero" fill-opacity="1" /><path clip-path="url(#clip110)" d="M179.853 2145.05 Q168.033 2145.05 161.783 2131.12 Q157.775 2122.77 156.756 2105.51 L151.66 2105.51 Q143.033 2105.51 138.481 2110.06 Q133.862 2114.55 133.862 2120.25 Q133.862 2130.44 140.248 2135.33 Q140.383 2131.19 142.489 2129.69 Q144.527 2128.2 146.633 2128.2 Q149.419 2128.2 151.253 2129.97 Q153.019 2131.67 153.019 2134.59 Q153.019 2137.37 151.321 2139.21 Q149.554 2141.04 146.497 2141.04 Q139.704 2141.04 135.22 2134.93 Q130.737 2128.74 130.737 2119.98 Q130.737 2108.57 138.413 2100.96 Q140.791 2098.58 143.848 2097.43 Q146.905 2096.2 148.943 2096.07 Q150.913 2095.93 154.853 2095.93 L182.638 2095.93 Q183.454 2095.93 184.812 2095.66 Q186.171 2095.39 187.937 2094.17 Q189.636 2092.87 189.636 2090.77 Q189.636 2085.74 180.736 2085.81 L172.924 2085.81 L172.924 2082.28 L180.736 2082.28 Q188.141 2082.28 191.062 2086.22 Q193.916 2090.09 193.916 2093.69 Q193.916 2098.31 190.519 2101.23 Q187.122 2104.15 182.503 2104.56 Q187.801 2106.67 191.266 2111.49 Q194.663 2116.24 194.663 2122.77 Q194.663 2127.79 193.372 2132.55 Q192.149 2137.24 188.685 2141.18 Q185.152 2145.05 179.853 2145.05 M179.717 2134.31 Q184.88 2134.31 188.209 2130.65 Q191.538 2126.98 191.538 2121.81 Q191.538 2115.97 187.054 2110.74 Q182.503 2105.51 173.603 2105.51 L159.677 2105.51 Q160.22 2120.93 166.402 2127.66 Q172.516 2134.31 179.717 2134.31 Z" fill="#000000" fill-rule="nonzero" fill-opacity="1" /><path clip-path="url(#clip110)" d="M204.106 2077.45 Q199.622 2077.45 195.75 2074.06 Q191.878 2070.59 190.179 2064.61 Q186.307 2070.73 177.815 2070.73 Q171.293 2070.73 166.266 2066.45 Q160.832 2072.97 151.932 2072.97 Q143.712 2072.97 137.666 2066.45 Q131.62 2059.93 131.62 2050.42 Q131.62 2042.06 136.647 2035.67 Q130.125 2029.02 130.057 2020.93 Q130.057 2017.33 132.299 2015.63 Q134.541 2013.87 136.919 2013.87 Q139.025 2013.87 140.044 2015.23 Q141.063 2016.52 141.063 2017.88 Q141.063 2019.57 139.976 2020.8 Q138.821 2021.95 137.055 2021.95 Q134.133 2021.95 133.25 2019.71 Q133.114 2020.12 133.114 2021.07 Q133.114 2027.86 138.549 2033.64 Q143.848 2027.93 152.068 2027.93 Q160.288 2027.93 166.334 2034.45 Q172.38 2040.97 172.38 2050.42 Q172.38 2058.23 168.033 2064.21 Q170.818 2066.58 174.622 2066.58 Q178.087 2066.58 180.804 2064.48 Q183.522 2062.37 183.929 2059.18 Q184.065 2058.23 184.065 2048.79 Q184.065 2043.21 184.201 2040.16 Q184.337 2037.1 185.288 2032.75 Q186.171 2028.34 187.937 2024.87 Q192.964 2015.84 203.834 2015.77 Q211.782 2015.77 216.741 2024.94 Q221.769 2034.04 221.769 2046.68 Q221.769 2059.45 216.674 2068.49 Q211.646 2077.45 204.106 2077.45 M204.106 2070.18 Q209.812 2070.18 214.16 2063.46 Q218.576 2056.73 218.576 2046.54 Q218.576 2036.56 214.228 2029.83 Q209.948 2023.04 204.106 2023.04 Q199.962 2023.04 197.312 2025.42 Q194.663 2027.79 193.576 2032.68 Q192.557 2037.51 192.353 2040.9 Q192.149 2044.3 192.149 2050.55 L192.149 2058.77 Q192.421 2063.53 195.886 2066.86 Q199.35 2070.18 204.106 2070.18 M152.068 2062.58 Q169.187 2062.58 169.187 2050.42 Q169.187 2044.3 163.617 2040.57 Q159.881 2038.32 151.932 2038.32 Q134.813 2038.32 134.813 2050.42 Q134.813 2056.53 140.383 2060.33 Q144.12 2062.58 152.068 2062.58 Z" fill="#000000" fill-rule="nonzero" fill-opacity="1" /><path clip-path="url(#clip110)" d="M204.106 2007.89 Q199.622 2007.89 195.75 2004.49 Q191.878 2001.03 190.179 1995.05 Q186.307 2001.16 177.815 2001.16 Q171.293 2001.16 166.266 1996.88 Q160.832 2003.41 151.932 2003.41 Q143.712 2003.41 137.666 1996.88 Q131.62 1990.36 131.62 1980.85 Q131.62 1972.5 136.647 1966.11 Q130.125 1959.45 130.057 1951.37 Q130.057 1947.77 132.299 1946.07 Q134.541 1944.3 136.919 1944.3 Q139.025 1944.3 140.044 1945.66 Q141.063 1946.95 141.063 1948.31 Q141.063 1950.01 139.976 1951.23 Q138.821 1952.39 137.055 1952.39 Q134.133 1952.39 133.25 1950.14 Q133.114 1950.55 133.114 1951.5 Q133.114 1958.3 138.549 1964.07 Q143.848 1958.36 152.068 1958.36 Q160.288 1958.36 166.334 1964.89 Q172.38 1971.41 172.38 1980.85 Q172.38 1988.66 168.033 1994.64 Q170.818 1997.02 174.622 1997.02 Q178.087 1997.02 180.804 1994.91 Q183.522 1992.81 183.929 1989.61 Q184.065 1988.66 184.065 1979.22 Q184.065 1973.65 184.201 1970.59 Q184.337 1967.54 185.288 1963.19 Q186.171 1958.77 187.937 1955.31 Q192.964 1946.27 203.834 1946.2 Q211.782 1946.2 216.741 1955.38 Q221.769 1964.48 221.769 1977.11 Q221.769 1989.89 216.674 1998.92 Q211.646 2007.89 204.106 2007.89 M204.106 2000.62 Q209.812 2000.62 214.16 1993.89 Q218.576 1987.17 218.576 1976.98 Q218.576 1966.99 214.228 1960.27 Q209.948 1953.47 204.106 1953.47 Q199.962 1953.47 197.312 1955.85 Q194.663 1958.23 193.576 1963.12 Q192.557 1967.94 192.353 1971.34 Q192.149 1974.74 192.149 1980.99 L192.149 1989.21 Q192.421 1993.96 195.886 1997.29 Q199.35 2000.62 204.106 2000.62 M152.068 1993.01 Q169.187 1993.01 169.187 1980.85 Q169.187 1974.74 163.617 1971 Q159.881 1968.76 151.932 1968.76 Q134.813 1968.76 134.813 1980.85 Q134.813 1986.97 140.383 1990.77 Q144.12 1993.01 152.068 1993.01 Z" fill="#000000" fill-rule="nonzero" fill-opacity="1" /><path clip-path="url(#clip110)" d="M193.1 1938.32 L188.82 1938.32 Q188.82 1930.92 187.937 1929.22 Q186.986 1927.45 182.503 1927.45 L145.207 1927.45 Q140.044 1927.45 138.753 1929.29 Q137.462 1931.06 137.462 1938.32 L133.114 1938.32 L131.62 1918.96 L146.905 1918.96 Q140.927 1916.99 136.307 1912.85 Q131.62 1908.64 131.62 1901.84 Q131.62 1897.36 134.133 1894.51 Q136.647 1891.59 140.112 1891.59 Q143.169 1891.59 144.731 1893.49 Q146.226 1895.32 146.226 1897.56 Q146.226 1900.08 144.663 1901.84 Q143.033 1903.54 140.248 1903.54 Q138.549 1903.54 137.258 1902.79 Q135.9 1901.98 135.424 1901.37 Q134.949 1900.76 134.813 1900.35 Q134.677 1900.62 134.677 1901.84 Q134.677 1909.52 142.353 1913.94 Q149.962 1918.28 160.832 1918.28 L182.231 1918.28 Q186.239 1918.28 187.53 1916.65 Q188.82 1914.95 188.82 1907.69 L188.82 1904.76 L193.1 1904.76 Q192.693 1910.34 192.693 1922.43 Q192.693 1924.13 192.761 1926.78 Q192.829 1929.42 192.964 1932.89 Q193.1 1936.35 193.1 1938.32 Z" fill="#000000" fill-rule="nonzero" fill-opacity="1" /><path clip-path="url(#clip110)" d="M162.462 1883.98 Q149.351 1883.98 140.044 1875.55 Q130.737 1867.13 130.737 1855.04 Q130.737 1842.81 138.685 1836.49 Q146.633 1830.1 158.046 1830.1 Q160.152 1830.1 160.56 1830.65 Q160.967 1831.19 160.967 1833.57 L160.967 1872.43 Q175.166 1872.43 181.823 1868.22 Q191.13 1862.37 191.13 1852.52 Q191.13 1851.16 190.859 1849.53 Q190.587 1847.9 189.432 1844.57 Q188.209 1841.25 185.016 1838.32 Q181.823 1835.4 176.796 1833.71 Q174.826 1833.3 174.894 1831.94 Q174.894 1830.1 176.524 1830.1 Q177.747 1830.1 180.533 1831.46 Q183.25 1832.75 186.511 1835.27 Q189.772 1837.78 192.217 1842.67 Q194.663 1847.5 194.663 1853.34 Q194.663 1865.57 185.424 1874.81 Q176.117 1883.98 162.462 1883.98 M158.046 1872.29 L158.046 1839.28 Q155.125 1839.28 151.864 1839.82 Q148.603 1840.3 144.12 1841.79 Q139.568 1843.22 136.715 1846.61 Q133.862 1850.01 133.862 1855.04 Q133.862 1857.28 134.813 1859.72 Q135.764 1862.1 138.074 1865.02 Q140.383 1867.94 145.614 1869.98 Q150.845 1872.02 158.046 1872.29 Z" fill="#000000" fill-rule="nonzero" fill-opacity="1" /><path clip-path="url(#clip110)" d="M204.106 1822.22 Q199.622 1822.22 195.75 1818.83 Q191.878 1815.36 190.179 1809.38 Q186.307 1815.5 177.815 1815.5 Q171.293 1815.5 166.266 1811.22 Q160.832 1817.74 151.932 1817.74 Q143.712 1817.74 137.666 1811.22 Q131.62 1804.7 131.62 1795.19 Q131.62 1786.83 136.647 1780.45 Q130.125 1773.79 130.057 1765.7 Q130.057 1762.1 132.299 1760.4 Q134.541 1758.64 136.919 1758.64 Q139.025 1758.64 140.044 1760 Q141.063 1761.29 141.063 1762.65 Q141.063 1764.34 139.976 1765.57 Q138.821 1766.72 137.055 1766.72 Q134.133 1766.72 133.25 1764.48 Q133.114 1764.89 133.114 1765.84 Q133.114 1772.63 138.549 1778.41 Q143.848 1772.7 152.068 1772.7 Q160.288 1772.7 166.334 1779.22 Q172.38 1785.74 172.38 1795.19 Q172.38 1803 168.033 1808.98 Q170.818 1811.36 174.622 1811.36 Q178.087 1811.36 180.804 1809.25 Q183.522 1807.14 183.929 1803.95 Q184.065 1803 184.065 1793.56 Q184.065 1787.99 184.201 1784.93 Q184.337 1781.87 185.288 1777.52 Q186.171 1773.11 187.937 1769.64 Q192.964 1760.61 203.834 1760.54 Q211.782 1760.54 216.741 1769.71 Q221.769 1778.81 221.769 1791.45 Q221.769 1804.22 216.674 1813.26 Q211.646 1822.22 204.106 1822.22 M204.106 1814.96 Q209.812 1814.96 214.16 1808.23 Q218.576 1801.5 218.576 1791.31 Q218.576 1781.33 214.228 1774.6 Q209.948 1767.81 204.106 1767.81 Q199.962 1767.81 197.312 1770.19 Q194.663 1772.56 193.576 1777.46 Q192.557 1782.28 192.353 1785.68 Q192.149 1789.07 192.149 1795.32 L192.149 1803.54 Q192.421 1808.3 195.886 1811.63 Q199.35 1814.96 204.106 1814.96 M152.068 1807.35 Q169.187 1807.35 169.187 1795.19 Q169.187 1789.07 163.617 1785.34 Q159.881 1783.09 151.932 1783.09 Q134.813 1783.09 134.813 1795.19 Q134.813 1801.3 140.383 1805.11 Q144.12 1807.35 152.068 1807.35 Z" fill="#000000" fill-rule="nonzero" fill-opacity="1" /><path clip-path="url(#clip110)" d="M179.853 1750.69 Q168.033 1750.69 161.783 1736.76 Q157.775 1728.41 156.756 1711.15 L151.66 1711.15 Q143.033 1711.15 138.481 1715.7 Q133.862 1720.19 133.862 1725.89 Q133.862 1736.08 140.248 1740.98 Q140.383 1736.83 142.489 1735.34 Q144.527 1733.84 146.633 1733.84 Q149.419 1733.84 151.253 1735.61 Q153.019 1737.31 153.019 1740.23 Q153.019 1743.01 151.321 1744.85 Q149.554 1746.68 146.497 1746.68 Q139.704 1746.68 135.22 1740.57 Q130.737 1734.39 130.737 1725.62 Q130.737 1714.21 138.413 1706.6 Q140.791 1704.22 143.848 1703.07 Q146.905 1701.85 148.943 1701.71 Q150.913 1701.57 154.853 1701.57 L182.638 1701.57 Q183.454 1701.57 184.812 1701.3 Q186.171 1701.03 187.937 1699.81 Q189.636 1698.52 189.636 1696.41 Q189.636 1691.38 180.736 1691.45 L172.924 1691.45 L172.924 1687.92 L180.736 1687.92 Q188.141 1687.92 191.062 1691.86 Q193.916 1695.73 193.916 1699.33 Q193.916 1703.95 190.519 1706.87 Q187.122 1709.79 182.503 1710.2 Q187.801 1712.31 191.266 1717.13 Q194.663 1721.89 194.663 1728.41 Q194.663 1733.43 193.372 1738.19 Q192.149 1742.88 188.685 1746.82 Q185.152 1750.69 179.853 1750.69 M179.717 1739.96 Q184.88 1739.96 188.209 1736.29 Q191.538 1732.62 191.538 1727.46 Q191.538 1721.61 187.054 1716.38 Q182.503 1711.15 173.603 1711.15 L159.677 1711.15 Q160.22 1726.57 166.402 1733.3 Q172.516 1739.96 179.717 1739.96 Z" fill="#000000" fill-rule="nonzero" fill-opacity="1" /><path clip-path="url(#clip110)" d="M137.462 1684.32 L134.405 1684.32 Q134.133 1677.93 129.65 1673.72 Q125.098 1669.44 119.528 1668.01 Q113.957 1666.52 107.503 1666.38 L107.503 1662.92 L133.114 1662.92 L133.114 1643.01 L137.462 1643.01 L137.462 1662.92 L176.117 1662.92 Q191.13 1662.92 191.13 1653.54 Q191.13 1649.54 187.054 1646.89 Q182.91 1644.24 175.573 1644.24 L167.897 1644.24 L167.897 1640.77 L175.845 1640.77 Q183.386 1640.77 189.024 1644.24 Q194.663 1647.7 194.663 1654.56 Q194.663 1657.08 193.983 1659.59 Q193.372 1662.04 191.742 1665.3 Q190.043 1668.49 185.967 1670.53 Q181.823 1672.5 175.845 1672.5 L137.462 1672.5 L137.462 1684.32 Z" fill="#000000" fill-rule="nonzero" fill-opacity="1" /><path clip-path="url(#clip110)" d="M162.462 1629.16 Q149.351 1629.16 140.044 1620.73 Q130.737 1612.31 130.737 1600.22 Q130.737 1587.99 138.685 1581.67 Q146.633 1575.28 158.046 1575.28 Q160.152 1575.28 160.56 1575.83 Q160.967 1576.37 160.967 1578.75 L160.967 1617.61 Q175.166 1617.61 181.823 1613.39 Q191.13 1607.55 191.13 1597.7 Q191.13 1596.34 190.859 1594.71 Q190.587 1593.08 189.432 1589.75 Q188.209 1586.42 185.016 1583.5 Q181.823 1580.58 176.796 1578.88 Q174.826 1578.48 174.894 1577.12 Q174.894 1575.28 176.524 1575.28 Q177.747 1575.28 180.533 1576.64 Q183.25 1577.93 186.511 1580.45 Q189.772 1582.96 192.217 1587.85 Q194.663 1592.67 194.663 1598.52 Q194.663 1610.75 185.424 1619.98 Q176.117 1629.16 162.462 1629.16 M158.046 1617.47 L158.046 1584.45 Q155.125 1584.45 151.864 1585 Q148.603 1585.47 144.12 1586.97 Q139.568 1588.39 136.715 1591.79 Q133.862 1595.19 133.862 1600.22 Q133.862 1602.46 134.813 1604.9 Q135.764 1607.28 138.074 1610.2 Q140.383 1613.12 145.614 1615.16 Q150.845 1617.2 158.046 1617.47 Z" fill="#000000" fill-rule="nonzero" fill-opacity="1" /><path clip-path="url(#clip110)" d="M193.1 1520.39 L188.82 1520.39 Q188.82 1512.99 187.937 1511.29 Q186.986 1509.59 182.503 1509.59 L110.153 1509.59 Q104.99 1509.59 103.699 1511.43 Q102.408 1513.19 102.408 1520.39 L98.0603 1520.39 L96.5658 1500.42 L182.503 1500.42 Q186.986 1500.42 187.937 1498.65 Q188.82 1496.89 188.82 1489.55 L193.1 1489.55 Q193.1 1491.25 192.964 1494.78 Q192.829 1498.31 192.761 1500.9 Q192.693 1503.48 192.693 1504.97 Q192.693 1506.6 193.1 1520.39 Z" fill="#000000" fill-rule="nonzero" fill-opacity="1" /><path clip-path="url(#clip110)" d="M185.628 1473.45 Q176.524 1482.62 163.345 1482.62 Q150.098 1482.62 140.451 1473.65 Q130.737 1464.62 130.737 1451.71 Q130.737 1439.08 140.383 1430.04 Q149.962 1420.94 163.345 1420.94 Q176.456 1420.94 185.56 1430.11 Q194.663 1439.21 194.663 1451.85 Q194.663 1464.21 185.628 1473.45 M162.19 1471.07 Q175.709 1471.07 181.823 1467.54 Q191.13 1462.11 191.13 1451.71 Q191.13 1446.55 188.345 1442.27 Q185.56 1437.92 180.872 1435.54 Q174.758 1432.49 162.19 1432.49 Q148.807 1432.49 142.897 1436.15 Q133.862 1441.59 133.862 1451.85 Q133.862 1456.33 136.239 1460.75 Q138.549 1465.09 143.169 1467.74 Q149.283 1471.07 162.19 1471.07 Z" fill="#000000" fill-rule="nonzero" fill-opacity="1" /><path clip-path="url(#clip110)" d="M179.853 1411.09 Q168.033 1411.09 161.783 1397.16 Q157.775 1388.8 156.756 1371.55 L151.66 1371.55 Q143.033 1371.55 138.481 1376.1 Q133.862 1380.58 133.862 1386.29 Q133.862 1396.48 140.248 1401.37 Q140.383 1397.23 142.489 1395.73 Q144.527 1394.24 146.633 1394.24 Q149.419 1394.24 151.253 1396.01 Q153.019 1397.7 153.019 1400.62 Q153.019 1403.41 151.321 1405.24 Q149.554 1407.08 146.497 1407.08 Q139.704 1407.08 135.22 1400.96 Q130.737 1394.78 130.737 1386.02 Q130.737 1374.61 138.413 1367 Q140.791 1364.62 143.848 1363.46 Q146.905 1362.24 148.943 1362.11 Q150.913 1361.97 154.853 1361.97 L182.638 1361.97 Q183.454 1361.97 184.812 1361.7 Q186.171 1361.43 187.937 1360.2 Q189.636 1358.91 189.636 1356.81 Q189.636 1351.78 180.736 1351.85 L172.924 1351.85 L172.924 1348.32 L180.736 1348.32 Q188.141 1348.32 191.062 1352.26 Q193.916 1356.13 193.916 1359.73 Q193.916 1364.35 190.519 1367.27 Q187.122 1370.19 182.503 1370.6 Q187.801 1372.7 191.266 1377.53 Q194.663 1382.28 194.663 1388.8 Q194.663 1393.83 193.372 1398.59 Q192.149 1403.27 188.685 1407.21 Q185.152 1411.09 179.853 1411.09 M179.717 1400.35 Q184.88 1400.35 188.209 1396.68 Q191.538 1393.02 191.538 1387.85 Q191.538 1382.01 187.054 1376.78 Q182.503 1371.55 173.603 1371.55 L159.677 1371.55 Q160.22 1386.97 166.402 1393.7 Q172.516 1400.35 179.717 1400.35 Z" fill="#000000" fill-rule="nonzero" fill-opacity="1" /><path clip-path="url(#clip110)" d="M163.209 1342.61 Q149.962 1342.61 140.791 1333.37 Q131.62 1324.13 131.62 1311.63 Q131.62 1301.03 140.248 1294.1 L110.153 1294.1 Q104.99 1294.1 103.699 1295.94 Q102.408 1297.7 102.408 1304.91 L98.0603 1304.91 L96.5658 1284.86 L181.008 1284.86 Q186.171 1284.86 187.53 1283.1 Q188.82 1281.26 188.82 1274.06 L193.1 1274.06 L194.663 1294.51 L185.424 1294.51 Q194.595 1301.71 194.663 1313.13 Q194.663 1325.08 185.492 1333.85 Q176.321 1342.61 163.209 1342.61 M163.345 1331.06 Q176.253 1331.06 182.638 1327.05 Q191.538 1321.48 191.538 1312.45 Q191.538 1302.12 181.823 1296.01 Q179.446 1294.44 176.66 1294.51 L148.128 1294.51 Q145.343 1294.51 143.033 1296.01 Q134.677 1301.71 134.677 1311.02 Q134.677 1320.73 143.576 1326.78 Q150.234 1331.06 163.345 1331.06 Z" fill="#000000" fill-rule="nonzero" fill-opacity="1" /><path clip-path="url(#clip110)" d="M191.266 1219.31 L172.924 1219.31 Q171.361 1219.31 170.818 1219.24 Q170.274 1219.17 169.867 1218.76 Q169.459 1218.36 169.459 1217.54 Q169.459 1216.59 169.867 1216.25 Q170.274 1215.84 171.837 1215.57 Q181.416 1213.47 186.511 1208.98 Q191.538 1204.43 191.538 1196.21 Q191.538 1188.4 188.073 1184.46 Q184.609 1180.52 178.902 1180.52 Q168.712 1180.52 166.13 1194.99 Q164.432 1203.34 163.345 1206.81 Q162.19 1210.27 159.677 1213.33 Q154.785 1219.31 147.856 1219.31 Q140.927 1219.31 135.832 1214.08 Q130.737 1208.78 130.737 1197.09 Q130.737 1189.28 134.677 1183.98 Q133.454 1182.42 132.435 1181.6 Q130.737 1179.77 130.737 1178.82 Q130.737 1177.73 131.484 1177.53 Q132.163 1177.32 134.133 1177.32 L148.128 1177.32 Q149.69 1177.32 150.234 1177.39 Q150.777 1177.46 151.185 1177.87 Q151.525 1178.28 151.525 1179.16 Q151.525 1180.72 150.234 1180.79 Q133.386 1181.88 133.386 1197.09 Q133.386 1205.31 136.579 1208.98 Q139.704 1212.65 143.984 1212.65 Q146.362 1212.65 148.196 1211.56 Q149.962 1210.41 151.049 1208.98 Q152.068 1207.49 153.087 1204.77 Q154.038 1202.05 154.378 1200.42 Q154.718 1198.72 155.397 1195.53 Q157.503 1184.39 162.054 1179.7 Q167.897 1173.86 175.302 1173.86 Q183.522 1173.86 189.092 1179.43 Q194.663 1185 194.663 1196.21 Q194.663 1205.25 188.617 1211.56 Q189.432 1212.38 190.179 1212.99 Q190.859 1213.6 191.13 1213.87 Q191.402 1214.08 191.606 1214.15 Q191.742 1214.21 191.878 1214.35 Q194.663 1217.13 194.663 1217.81 Q194.663 1218.9 193.916 1219.1 Q193.236 1219.31 191.266 1219.31 Z" fill="#000000" fill-rule="nonzero" fill-opacity="1" /><path clip-path="url(#clip110)" d="M193.1 1164.69 L188.82 1164.69 Q188.82 1157.28 187.937 1155.59 Q186.986 1153.89 182.503 1153.89 L110.153 1153.89 Q104.99 1153.89 103.699 1155.72 Q102.408 1157.49 102.408 1164.69 L98.0603 1164.69 L96.5658 1144.72 L144.935 1144.72 L144.935 1144.58 Q139.908 1142.34 135.764 1137.31 Q131.62 1132.28 131.62 1124.54 Q131.62 1114.08 136.783 1109.93 Q140.248 1106.88 144.12 1106.27 Q147.992 1105.59 158.046 1105.59 L184.609 1105.59 Q187.53 1105.45 188.209 1103.21 Q188.82 1100.97 188.82 1094.72 L193.1 1094.72 Q192.693 1108.92 192.693 1110.34 Q192.693 1111.43 193.1 1126.03 L188.82 1126.03 Q188.82 1118.63 187.937 1116.93 Q186.986 1115.17 182.503 1115.17 L150.098 1115.17 Q143.033 1115.17 138.889 1117.34 Q134.677 1119.51 134.677 1125.49 Q134.677 1132.69 140.723 1138.47 Q146.769 1144.24 156.959 1144.24 L182.503 1144.24 Q186.986 1144.24 187.937 1142.54 Q188.82 1140.78 188.82 1133.44 L193.1 1133.44 Q192.693 1147.64 192.693 1149 Q192.693 1150.08 193.1 1164.69 Z" fill="#000000" fill-rule="nonzero" fill-opacity="1" /><path clip-path="url(#clip110)" d="M162.462 1088.13 Q149.351 1088.13 140.044 1079.7 Q130.737 1071.28 130.737 1059.19 Q130.737 1046.96 138.685 1040.64 Q146.633 1034.26 158.046 1034.26 Q160.152 1034.26 160.56 1034.8 Q160.967 1035.34 160.967 1037.72 L160.967 1076.58 Q175.166 1076.58 181.823 1072.37 Q191.13 1066.52 191.13 1056.67 Q191.13 1055.31 190.859 1053.68 Q190.587 1052.05 189.432 1048.73 Q188.209 1045.4 185.016 1042.48 Q181.823 1039.55 176.796 1037.86 Q174.826 1037.45 174.894 1036.09 Q174.894 1034.26 176.524 1034.26 Q177.747 1034.26 180.533 1035.61 Q183.25 1036.9 186.511 1039.42 Q189.772 1041.93 192.217 1046.82 Q194.663 1051.65 194.663 1057.49 Q194.663 1069.72 185.424 1078.96 Q176.117 1088.13 162.462 1088.13 M158.046 1076.44 L158.046 1043.43 Q155.125 1043.43 151.864 1043.97 Q148.603 1044.45 144.12 1045.94 Q139.568 1047.37 136.715 1050.76 Q133.862 1054.16 133.862 1059.19 Q133.862 1061.43 134.813 1063.87 Q135.764 1066.25 138.074 1069.17 Q140.383 1072.09 145.614 1074.13 Q150.845 1076.17 158.046 1076.44 Z" fill="#000000" fill-rule="nonzero" fill-opacity="1" /><path clip-path="url(#clip110)" d="M163.209 1025.49 Q149.962 1025.49 140.791 1016.25 Q131.62 1007.01 131.62 994.514 Q131.62 983.916 140.248 976.987 L110.153 976.987 Q104.99 976.987 103.699 978.821 Q102.408 980.587 102.408 987.788 L98.0603 987.788 L96.5658 967.748 L181.008 967.748 Q186.171 967.748 187.53 965.981 Q188.82 964.147 188.82 956.946 L193.1 956.946 L194.663 977.394 L185.424 977.394 Q194.595 984.595 194.663 996.008 Q194.663 1007.96 185.492 1016.73 Q176.321 1025.49 163.209 1025.49 M163.345 1013.94 Q176.253 1013.94 182.638 1009.93 Q191.538 1004.36 191.538 995.329 Q191.538 985.003 181.823 978.889 Q179.446 977.326 176.66 977.394 L148.128 977.394 Q145.343 977.394 143.033 978.889 Q134.677 984.595 134.677 993.902 Q134.677 1003.62 143.576 1009.66 Q150.234 1013.94 163.345 1013.94 Z" fill="#000000" fill-rule="nonzero" fill-opacity="1" /><path clip-path="url(#clip110)" d="M158.318 893.02 Q134.813 893.02 115.859 884.257 Q107.911 880.52 101.253 875.289 Q94.5957 870.058 91.6745 866.594 Q88.7534 863.129 88.7534 862.178 Q88.7534 860.819 90.112 860.751 Q90.7914 860.751 92.4897 862.586 Q115.316 885.004 158.318 884.936 Q201.456 884.936 223.399 863.129 Q225.777 860.751 226.524 860.751 Q227.883 860.751 227.883 862.178 Q227.883 863.129 225.097 866.458 Q222.312 869.787 215.926 874.95 Q209.54 880.113 201.728 883.849 Q182.774 893.02 158.318 893.02 Z" fill="#000000" fill-rule="nonzero" fill-opacity="1" /><path clip-path="url(#clip110)" d="M193.1 848.999 L188.82 848.999 Q188.82 841.594 187.937 839.895 Q186.986 838.129 182.503 838.129 L110.153 838.129 Q104.99 838.129 103.699 839.963 Q102.408 841.73 102.408 848.999 L98.0603 848.999 L96.5658 828.958 L163.345 828.958 L146.362 809.325 Q143.712 806.268 140.927 806.268 Q137.734 806.268 137.462 810.276 L133.114 810.276 Q133.522 804.434 133.522 794.719 Q133.522 789.013 133.114 785.005 L137.462 785.005 Q137.87 793.768 144.935 802.532 Q146.497 804.502 150.574 809.189 Q154.582 813.809 154.989 813.809 Q155.125 813.809 155.465 813.673 Q155.804 813.469 156.076 813.197 Q156.348 812.926 156.484 812.926 L181.416 795.263 Q186.443 791.662 187.666 789.013 Q188.82 786.363 188.82 781.744 L193.1 781.744 Q192.693 787.722 192.693 793.904 Q192.693 797.233 193.1 808.917 L188.82 808.917 Q188.82 803.89 185.56 803.89 Q183.318 803.89 167.761 815.167 Q166.674 815.983 164.296 817.817 Q161.783 819.515 160.56 820.466 L168.168 829.366 L182.503 829.366 Q186.986 829.366 187.937 827.667 Q188.82 825.901 188.82 818.496 L193.1 818.496 Q192.693 826.852 192.693 833.781 Q192.693 835.208 193.1 848.999 Z" fill="#000000" fill-rule="nonzero" fill-opacity="1" /><path clip-path="url(#clip110)" d="M102.408 788.605 L98.0603 788.605 Q98.0603 786.635 98.1962 783.102 Q98.3321 779.57 98.4 776.785 Q98.468 773.999 98.468 771.622 Q98.468 756.88 98.0603 751.853 L102.408 751.853 Q102.408 763.537 106.552 763.537 Q107.503 763.537 108.386 763.266 L176.796 740.915 L117.15 721.554 L107.367 724.611 Q103.903 725.698 103.155 728.076 Q102.408 730.453 102.408 737.111 L98.0603 737.111 Q98.0603 735.141 98.1962 731.608 Q98.3321 728.076 98.4 725.29 Q98.468 722.505 98.468 720.195 Q98.468 705.454 98.0603 700.426 L102.408 700.426 Q102.408 712.111 106.552 712.111 Q106.96 712.111 108.658 711.704 L176.796 689.421 L112.53 668.565 Q110.424 667.886 109.745 667.818 Q107.231 667.818 104.922 670.739 Q102.544 673.66 102.408 679.978 L98.0603 679.978 Q98.468 669.109 98.468 663.402 Q98.468 657.016 98.0603 650.767 L102.408 650.767 Q102.408 661.772 111.715 664.625 L193.372 691.255 Q194.459 691.527 194.935 691.731 Q195.478 691.935 195.818 692.478 Q196.157 693.022 196.157 693.973 Q196.157 695.807 193.508 696.622 L122.72 719.72 L193.372 742.682 Q194.459 742.953 194.935 743.225 Q195.478 743.429 195.818 743.972 Q196.157 744.516 196.157 745.467 Q196.157 747.301 193.508 748.116 L108.25 775.969 Q104.242 777.192 103.359 779.094 Q102.408 780.929 102.408 788.605 Z" fill="#000000" fill-rule="nonzero" fill-opacity="1" /><path clip-path="url(#clip110)" d="M226.524 640.305 Q225.845 640.305 224.146 638.538 Q201.32 616.12 158.318 616.12 Q115.18 616.12 93.3729 637.655 Q90.8593 640.305 90.112 640.305 Q88.7534 640.305 88.7534 638.946 Q88.7534 637.995 91.5387 634.666 Q94.324 631.269 100.71 626.174 Q107.096 621.011 114.908 617.207 Q133.862 608.036 158.318 608.036 Q181.823 608.036 200.777 616.799 Q208.725 620.536 215.383 625.767 Q222.04 630.998 224.962 634.462 Q227.883 637.927 227.883 638.946 Q227.883 640.305 226.524 640.305 Z" fill="#000000" fill-rule="nonzero" fill-opacity="1" /><path clip-path="url(#clip112)" d="M622.225 1937.11 L622.225 2595.6 L866.389 2595.6 L866.389 1937.11 L622.225 1937.11 L622.225 1937.11  Z" fill="#4682b4" fill-rule="evenodd" fill-opacity="1"/>
<polyline clip-path="url(#clip112)" style="stroke:#000000; stroke-linecap:round; stroke-linejoin:round; stroke-width:4; stroke-opacity:1; fill:none" points="622.225,1937.11 622.225,2595.6 866.389,2595.6 866.389,1937.11 622.225,1937.11 "/>
<path clip-path="url(#clip112)" d="M927.43 946.932 L927.43 2595.6 L1171.59 2595.6 L1171.59 946.932 L927.43 946.932 L927.43 946.932  Z" fill="#4682b4" fill-rule="evenodd" fill-opacity="1"/>
<polyline clip-path="url(#clip112)" style="stroke:#000000; stroke-linecap:round; stroke-linejoin:round; stroke-width:4; stroke-opacity:1; fill:none" points="927.43,946.932 927.43,2595.6 1171.59,2595.6 1171.59,946.932 927.43,946.932 "/>
<path clip-path="url(#clip112)" d="M1232.64 804.257 L1232.64 2595.6 L1476.8 2595.6 L1476.8 804.257 L1232.64 804.257 L1232.64 804.257  Z" fill="#4682b4" fill-rule="evenodd" fill-opacity="1"/>
<polyline clip-path="url(#clip112)" style="stroke:#000000; stroke-linecap:round; stroke-linejoin:round; stroke-width:4; stroke-opacity:1; fill:none" points="1232.64,804.257 1232.64,2595.6 1476.8,2595.6 1476.8,804.257 1232.64,804.257 "/>
<path clip-path="url(#clip112)" d="M1537.84 1662.94 L1537.84 2595.6 L1782.01 2595.6 L1782.01 1662.94 L1537.84 1662.94 L1537.84 1662.94  Z" fill="#4682b4" fill-rule="evenodd" fill-opacity="1"/>
<polyline clip-path="url(#clip112)" style="stroke:#000000; stroke-linecap:round; stroke-linejoin:round; stroke-width:4; stroke-opacity:1; fill:none" points="1537.84,1662.94 1537.84,2595.6 1782.01,2595.6 1782.01,1662.94 1537.84,1662.94 "/>
<path clip-path="url(#clip112)" d="M1843.05 2315.45 L1843.05 2595.6 L2087.21 2595.6 L2087.21 2315.45 L1843.05 2315.45 L1843.05 2315.45  Z" fill="#4682b4" fill-rule="evenodd" fill-opacity="1"/>
<polyline clip-path="url(#clip112)" style="stroke:#000000; stroke-linecap:round; stroke-linejoin:round; stroke-width:4; stroke-opacity:1; fill:none" points="1843.05,2315.45 1843.05,2595.6 2087.21,2595.6 2087.21,2315.45 1843.05,2315.45 "/>
<path clip-path="url(#clip112)" d="M2148.25 1281.74 L2148.25 2595.6 L2392.42 2595.6 L2392.42 1281.74 L2148.25 1281.74 L2148.25 1281.74  Z" fill="#4682b4" fill-rule="evenodd" fill-opacity="1"/>
<polyline clip-path="url(#clip112)" style="stroke:#000000; stroke-linecap:round; stroke-linejoin:round; stroke-width:4; stroke-opacity:1; fill:none" points="2148.25,1281.74 2148.25,2595.6 2392.42,2595.6 2392.42,1281.74 2148.25,1281.74 "/>
<path clip-path="url(#clip112)" d="M2453.46 737.272 L2453.46 2595.6 L2697.62 2595.6 L2697.62 737.272 L2453.46 737.272 L2453.46 737.272  Z" fill="#4682b4" fill-rule="evenodd" fill-opacity="1"/>
<polyline clip-path="url(#clip112)" style="stroke:#000000; stroke-linecap:round; stroke-linejoin:round; stroke-width:4; stroke-opacity:1; fill:none" points="2453.46,737.272 2453.46,2595.6 2697.62,2595.6 2697.62,737.272 2453.46,737.272 "/>
<path clip-path="url(#clip112)" d="M2758.66 2337.76 L2758.66 2595.6 L3002.83 2595.6 L3002.83 2337.76 L2758.66 2337.76 L2758.66 2337.76  Z" fill="#4682b4" fill-rule="evenodd" fill-opacity="1"/>
<polyline clip-path="url(#clip112)" style="stroke:#000000; stroke-linecap:round; stroke-linejoin:round; stroke-width:4; stroke-opacity:1; fill:none" points="2758.66,2337.76 2758.66,2595.6 3002.83,2595.6 3002.83,2337.76 2758.66,2337.76 "/>
<path clip-path="url(#clip112)" d="M3063.87 1078.15 L3063.87 2595.6 L3308.03 2595.6 L3308.03 1078.15 L3063.87 1078.15 L3063.87 1078.15  Z" fill="#4682b4" fill-rule="evenodd" fill-opacity="1"/>
<polyline clip-path="url(#clip112)" style="stroke:#000000; stroke-linecap:round; stroke-linejoin:round; stroke-width:4; stroke-opacity:1; fill:none" points="3063.87,1078.15 3063.87,2595.6 3308.03,2595.6 3308.03,1078.15 3063.87,1078.15 "/>
<circle clip-path="url(#clip112)" style="fill:#4682b4; stroke:none; fill-opacity:0" cx="744.307" cy="1937.11" r="2"/>
<circle clip-path="url(#clip112)" style="fill:#4682b4; stroke:none; fill-opacity:0" cx="1049.51" cy="946.932" r="2"/>
<circle clip-path="url(#clip112)" style="fill:#4682b4; stroke:none; fill-opacity:0" cx="1354.72" cy="804.257" r="2"/>
<circle clip-path="url(#clip112)" style="fill:#4682b4; stroke:none; fill-opacity:0" cx="1659.92" cy="1662.94" r="2"/>
<circle clip-path="url(#clip112)" style="fill:#4682b4; stroke:none; fill-opacity:0" cx="1965.13" cy="2315.45" r="2"/>
<circle clip-path="url(#clip112)" style="fill:#4682b4; stroke:none; fill-opacity:0" cx="2270.33" cy="1281.74" r="2"/>
<circle clip-path="url(#clip112)" style="fill:#4682b4; stroke:none; fill-opacity:0" cx="2575.54" cy="737.272" r="2"/>
<circle clip-path="url(#clip112)" style="fill:#4682b4; stroke:none; fill-opacity:0" cx="2880.75" cy="2337.76" r="2"/>
<circle clip-path="url(#clip112)" style="fill:#4682b4; stroke:none; fill-opacity:0" cx="3185.95" cy="1078.15" r="2"/>
</svg>
