<?xml version="1.0" encoding="utf-8"?>
<svg xmlns="http://www.w3.org/2000/svg" xmlns:xlink="http://www.w3.org/1999/xlink" width="600" height="400" viewBox="0 0 2400 1600">
<defs>
  <clipPath id="clip100">
    <rect x="0" y="0" width="2400" height="1600"/>
  </clipPath>
</defs>
<path clip-path="url(#clip100)" d="M0 1600 L2400 1600 L2400 0 L0 0  Z" fill="#ffffff" fill-rule="evenodd" fill-opacity="1"/>
<defs>
  <clipPath id="clip101">
    <rect x="480" y="0" width="1681" height="1600"/>
  </clipPath>
</defs>
<path clip-path="url(#clip100)" d="M309.866 1423.18 L2352.76 1423.18 L2352.76 123.472 L309.866 123.472  Z" fill="#ffffff" fill-rule="evenodd" fill-opacity="1"/>
<defs>
  <clipPath id="clip102">
    <rect x="309" y="123" width="2044" height="1301"/>
  </clipPath>
</defs>
<polyline clip-path="url(#clip102)" style="stroke:#000000; stroke-linecap:round; stroke-linejoin:round; stroke-width:2; stroke-opacity:0.1; fill:none" points="348.519,1423.18 348.519,123.472 "/>
<polyline clip-path="url(#clip102)" style="stroke:#000000; stroke-linecap:round; stroke-linejoin:round; stroke-width:2; stroke-opacity:0.1; fill:none" points="962.764,1423.18 962.764,123.472 "/>
<polyline clip-path="url(#clip102)" style="stroke:#000000; stroke-linecap:round; stroke-linejoin:round; stroke-width:2; stroke-opacity:0.1; fill:none" points="1577.01,1423.18 1577.01,123.472 "/>
<polyline clip-path="url(#clip102)" style="stroke:#000000; stroke-linecap:round; stroke-linejoin:round; stroke-width:2; stroke-opacity:0.1; fill:none" points="2191.25,1423.18 2191.25,123.472 "/>
<polyline clip-path="url(#clip102)" style="stroke:#000000; stroke-linecap:round; stroke-linejoin:round; stroke-width:2; stroke-opacity:0.1; fill:none" points="309.866,1423.18 2352.76,1423.18 "/>
<polyline clip-path="url(#clip102)" style="stroke:#000000; stroke-linecap:round; stroke-linejoin:round; stroke-width:2; stroke-opacity:0.1; fill:none" points="309.866,1107.13 2352.76,1107.13 "/>
<polyline clip-path="url(#clip102)" style="stroke:#000000; stroke-linecap:round; stroke-linejoin:round; stroke-width:2; stroke-opacity:0.1; fill:none" points="309.866,791.079 2352.76,791.079 "/>
<polyline clip-path="url(#clip102)" style="stroke:#000000; stroke-linecap:round; stroke-linejoin:round; stroke-width:2; stroke-opacity:0.1; fill:none" points="309.866,475.029 2352.76,475.029 "/>
<polyline clip-path="url(#clip102)" style="stroke:#000000; stroke-linecap:round; stroke-linejoin:round; stroke-width:2; stroke-opacity:0.1; fill:none" points="309.866,158.979 2352.76,158.979 "/>
<polyline clip-path="url(#clip100)" style="stroke:#000000; stroke-linecap:round; stroke-linejoin:round; stroke-width:4; stroke-opacity:1; fill:none" points="309.866,1423.18 2352.76,1423.18 "/>
<polyline clip-path="url(#clip100)" style="stroke:#000000; stroke-linecap:round; stroke-linejoin:round; stroke-width:4; stroke-opacity:1; fill:none" points="348.519,1423.18 348.519,1404.28 "/>
<polyline clip-path="url(#clip100)" style="stroke:#000000; stroke-linecap:round; stroke-linejoin:round; stroke-width:4; stroke-opacity:1; fill:none" points="962.764,1423.18 962.764,1404.28 "/>
<polyline clip-path="url(#clip100)" style="stroke:#000000; stroke-linecap:round; stroke-linejoin:round; stroke-width:4; stroke-opacity:1; fill:none" points="1577.01,1423.18 1577.01,1404.28 "/>
<polyline clip-path="url(#clip100)" style="stroke:#000000; stroke-linecap:round; stroke-linejoin:round; stroke-width:4; stroke-opacity:1; fill:none" points="2191.25,1423.18 2191.25,1404.28 "/>
<path clip-path="url(#clip100)" d="M348.519 1454.1 Q344.908 1454.1 343.079 1457.66 Q341.274 1461.2 341.274 1468.33 Q341.274 1475.44 343.079 1479.01 Q344.908 1482.55 348.519 1482.55 Q352.153 1482.55 353.959 1479.01 Q355.787 1475.44 355.787 1468.33 Q355.787 1461.2 353.959 1457.66 Q352.153 1454.1 348.519 1454.1 M348.519 1450.39 Q354.329 1450.39 357.385 1455 Q360.463 1459.58 360.463 1468.33 Q360.463 1477.06 357.385 1481.67 Q354.329 1486.25 348.519 1486.25 Q342.709 1486.25 339.63 1481.67 Q336.575 1477.06 336.575 1468.33 Q336.575 1459.58 339.63 1455 Q342.709 1450.39 348.519 1450.39 Z" fill="#000000" fill-rule="nonzero" fill-opacity="1" /><path clip-path="url(#clip100)" d="M953.042 1451.02 L971.398 1451.02 L971.398 1454.96 L957.324 1454.96 L957.324 1463.43 Q958.343 1463.08 959.361 1462.92 Q960.38 1462.73 961.398 1462.73 Q967.185 1462.73 970.565 1465.9 Q973.944 1469.08 973.944 1474.49 Q973.944 1480.07 970.472 1483.17 Q967 1486.25 960.681 1486.25 Q958.505 1486.25 956.236 1485.88 Q953.991 1485.51 951.583 1484.77 L951.583 1480.07 Q953.667 1481.2 955.889 1481.76 Q958.111 1482.32 960.588 1482.32 Q964.593 1482.32 966.931 1480.21 Q969.268 1478.1 969.268 1474.49 Q969.268 1470.88 966.931 1468.77 Q964.593 1466.67 960.588 1466.67 Q958.713 1466.67 956.838 1467.08 Q954.986 1467.5 953.042 1468.38 L953.042 1451.02 Z" fill="#000000" fill-rule="nonzero" fill-opacity="1" /><path clip-path="url(#clip100)" d="M1551.7 1481.64 L1559.34 1481.64 L1559.34 1455.28 L1551.03 1456.95 L1551.03 1452.69 L1559.29 1451.02 L1563.96 1451.02 L1563.96 1481.64 L1571.6 1481.64 L1571.6 1485.58 L1551.7 1485.58 L1551.7 1481.64 Z" fill="#000000" fill-rule="nonzero" fill-opacity="1" /><path clip-path="url(#clip100)" d="M1591.05 1454.1 Q1587.44 1454.1 1585.61 1457.66 Q1583.8 1461.2 1583.8 1468.33 Q1583.8 1475.44 1585.61 1479.01 Q1587.44 1482.55 1591.05 1482.55 Q1594.68 1482.55 1596.49 1479.01 Q1598.32 1475.44 1598.32 1468.33 Q1598.32 1461.2 1596.49 1457.66 Q1594.68 1454.1 1591.05 1454.1 M1591.05 1450.39 Q1596.86 1450.39 1599.91 1455 Q1602.99 1459.58 1602.99 1468.33 Q1602.99 1477.06 1599.91 1481.67 Q1596.86 1486.25 1591.05 1486.25 Q1585.24 1486.25 1582.16 1481.67 Q1579.1 1477.06 1579.1 1468.33 Q1579.1 1459.58 1582.16 1455 Q1585.24 1450.39 1591.05 1450.39 Z" fill="#000000" fill-rule="nonzero" fill-opacity="1" /><path clip-path="url(#clip100)" d="M2166.44 1481.64 L2174.08 1481.64 L2174.08 1455.28 L2165.77 1456.95 L2165.77 1452.69 L2174.03 1451.02 L2178.71 1451.02 L2178.71 1481.64 L2186.35 1481.64 L2186.35 1485.58 L2166.44 1485.58 L2166.44 1481.64 Z" fill="#000000" fill-rule="nonzero" fill-opacity="1" /><path clip-path="url(#clip100)" d="M2195.84 1451.02 L2214.19 1451.02 L2214.19 1454.96 L2200.12 1454.96 L2200.12 1463.43 Q2201.14 1463.08 2202.16 1462.92 Q2203.17 1462.73 2204.19 1462.73 Q2209.98 1462.73 2213.36 1465.9 Q2216.74 1469.08 2216.74 1474.49 Q2216.74 1480.07 2213.27 1483.17 Q2209.8 1486.25 2203.48 1486.25 Q2201.3 1486.25 2199.03 1485.88 Q2196.79 1485.51 2194.38 1484.77 L2194.38 1480.07 Q2196.46 1481.2 2198.68 1481.76 Q2200.91 1482.32 2203.38 1482.32 Q2207.39 1482.32 2209.73 1480.21 Q2212.06 1478.1 2212.06 1474.49 Q2212.06 1470.88 2209.73 1468.77 Q2207.39 1466.67 2203.38 1466.67 Q2201.51 1466.67 2199.63 1467.08 Q2197.78 1467.5 2195.84 1468.38 L2195.84 1451.02 Z" fill="#000000" fill-rule="nonzero" fill-opacity="1" /><path clip-path="url(#clip100)" d="M1213.18 1520.52 L1219.61 1520.52 L1219.61 1562.63 L1242.75 1562.63 L1242.75 1568.04 L1213.18 1568.04 L1213.18 1520.52 Z" fill="#000000" fill-rule="nonzero" fill-opacity="1" /><path clip-path="url(#clip100)" d="M1261.91 1536.5 Q1257.2 1536.5 1254.46 1540.19 Q1251.72 1543.85 1251.72 1550.25 Q1251.72 1556.65 1254.43 1560.34 Q1257.17 1564 1261.91 1564 Q1266.59 1564 1269.32 1560.31 Q1272.06 1556.62 1272.06 1550.25 Q1272.06 1543.92 1269.32 1540.23 Q1266.59 1536.5 1261.91 1536.5 M1261.91 1531.54 Q1269.55 1531.54 1273.91 1536.5 Q1278.27 1541.47 1278.27 1550.25 Q1278.27 1559 1273.91 1564 Q1269.55 1568.97 1261.91 1568.97 Q1254.24 1568.97 1249.88 1564 Q1245.55 1559 1245.55 1550.25 Q1245.55 1541.47 1249.88 1536.5 Q1254.24 1531.54 1261.91 1531.54 Z" fill="#000000" fill-rule="nonzero" fill-opacity="1" /><path clip-path="url(#clip100)" d="M1304.18 1550.12 Q1297.08 1550.12 1294.34 1551.75 Q1291.6 1553.37 1291.6 1557.29 Q1291.6 1560.4 1293.64 1562.25 Q1295.71 1564.07 1299.24 1564.07 Q1304.11 1564.07 1307.04 1560.63 Q1310 1557.16 1310 1551.43 L1310 1550.12 L1304.18 1550.12 M1315.86 1547.71 L1315.86 1568.04 L1310 1568.04 L1310 1562.63 Q1308 1565.88 1305 1567.44 Q1302.01 1568.97 1297.68 1568.97 Q1292.21 1568.97 1288.96 1565.91 Q1285.75 1562.82 1285.75 1557.67 Q1285.75 1551.65 1289.76 1548.6 Q1293.8 1545.54 1301.79 1545.54 L1310 1545.54 L1310 1544.97 Q1310 1540.93 1307.33 1538.73 Q1304.69 1536.5 1299.88 1536.5 Q1296.82 1536.5 1293.93 1537.23 Q1291.03 1537.97 1288.36 1539.43 L1288.36 1534.02 Q1291.57 1532.78 1294.6 1532.17 Q1297.62 1531.54 1300.48 1531.54 Q1308.22 1531.54 1312.04 1535.55 Q1315.86 1539.56 1315.86 1547.71 Z" fill="#000000" fill-rule="nonzero" fill-opacity="1" /><path clip-path="url(#clip100)" d="M1351.38 1537.81 L1351.38 1518.52 L1357.24 1518.52 L1357.24 1568.04 L1351.38 1568.04 L1351.38 1562.7 Q1349.53 1565.88 1346.7 1567.44 Q1343.9 1568.97 1339.95 1568.97 Q1333.49 1568.97 1329.42 1563.81 Q1325.37 1558.65 1325.37 1550.25 Q1325.37 1541.85 1329.42 1536.69 Q1333.49 1531.54 1339.95 1531.54 Q1343.9 1531.54 1346.7 1533.1 Q1349.53 1534.62 1351.38 1537.81 M1331.42 1550.25 Q1331.42 1556.71 1334.06 1560.4 Q1336.74 1564.07 1341.38 1564.07 Q1346.03 1564.07 1348.71 1560.4 Q1351.38 1556.71 1351.38 1550.25 Q1351.38 1543.79 1348.71 1540.13 Q1346.03 1536.44 1341.38 1536.44 Q1336.74 1536.44 1334.06 1540.13 Q1331.42 1543.79 1331.42 1550.25 Z" fill="#000000" fill-rule="nonzero" fill-opacity="1" /><path clip-path="url(#clip100)" d="M1390.27 1520.52 L1396.7 1520.52 L1396.7 1568.04 L1390.27 1568.04 L1390.27 1520.52 Z" fill="#000000" fill-rule="nonzero" fill-opacity="1" /><path clip-path="url(#clip100)" d="M1415.93 1525.81 L1415.93 1562.76 L1423.69 1562.76 Q1433.53 1562.76 1438.08 1558.3 Q1442.66 1553.85 1442.66 1544.24 Q1442.66 1534.69 1438.08 1530.26 Q1433.53 1525.81 1423.69 1525.81 L1415.93 1525.81 M1409.5 1520.52 L1422.71 1520.52 Q1436.52 1520.52 1442.98 1526.28 Q1449.44 1532.01 1449.44 1544.24 Q1449.44 1556.52 1442.95 1562.28 Q1436.46 1568.04 1422.71 1568.04 L1409.5 1568.04 L1409.5 1520.52 Z" fill="#000000" fill-rule="nonzero" fill-opacity="1" /><polyline clip-path="url(#clip100)" style="stroke:#000000; stroke-linecap:round; stroke-linejoin:round; stroke-width:4; stroke-opacity:1; fill:none" points="309.866,1423.18 309.866,123.472 "/>
<polyline clip-path="url(#clip100)" style="stroke:#000000; stroke-linecap:round; stroke-linejoin:round; stroke-width:4; stroke-opacity:1; fill:none" points="309.866,1423.18 328.763,1423.18 "/>
<polyline clip-path="url(#clip100)" style="stroke:#000000; stroke-linecap:round; stroke-linejoin:round; stroke-width:4; stroke-opacity:1; fill:none" points="309.866,1107.13 328.763,1107.13 "/>
<polyline clip-path="url(#clip100)" style="stroke:#000000; stroke-linecap:round; stroke-linejoin:round; stroke-width:4; stroke-opacity:1; fill:none" points="309.866,791.079 328.763,791.079 "/>
<polyline clip-path="url(#clip100)" style="stroke:#000000; stroke-linecap:round; stroke-linejoin:round; stroke-width:4; stroke-opacity:1; fill:none" points="309.866,475.029 328.763,475.029 "/>
<polyline clip-path="url(#clip100)" style="stroke:#000000; stroke-linecap:round; stroke-linejoin:round; stroke-width:4; stroke-opacity:1; fill:none" points="309.866,158.979 328.763,158.979 "/>
<path clip-path="url(#clip100)" d="M126.205 1408.98 Q122.593 1408.98 120.765 1412.54 Q118.959 1416.08 118.959 1423.21 Q118.959 1430.32 120.765 1433.89 Q122.593 1437.43 126.205 1437.43 Q129.839 1437.43 131.644 1433.89 Q133.473 1430.32 133.473 1423.21 Q133.473 1416.08 131.644 1412.54 Q129.839 1408.98 126.205 1408.98 M126.205 1405.27 Q132.015 1405.27 135.07 1409.88 Q138.149 1414.46 138.149 1423.21 Q138.149 1431.94 135.07 1436.55 Q132.015 1441.13 126.205 1441.13 Q120.394 1441.13 117.316 1436.55 Q114.26 1431.94 114.26 1423.21 Q114.26 1414.46 117.316 1409.88 Q120.394 1405.27 126.205 1405.27 Z" fill="#000000" fill-rule="nonzero" fill-opacity="1" /><path clip-path="url(#clip100)" d="M146.366 1434.58 L151.251 1434.58 L151.251 1440.46 L146.366 1440.46 L146.366 1434.58 Z" fill="#000000" fill-rule="nonzero" fill-opacity="1" /><path clip-path="url(#clip100)" d="M171.436 1408.98 Q167.825 1408.98 165.996 1412.54 Q164.19 1416.08 164.19 1423.21 Q164.19 1430.32 165.996 1433.89 Q167.825 1437.43 171.436 1437.43 Q175.07 1437.43 176.876 1433.89 Q178.704 1430.32 178.704 1423.21 Q178.704 1416.08 176.876 1412.54 Q175.07 1408.98 171.436 1408.98 M171.436 1405.27 Q177.246 1405.27 180.301 1409.88 Q183.38 1414.46 183.38 1423.21 Q183.38 1431.94 180.301 1436.55 Q177.246 1441.13 171.436 1441.13 Q165.626 1441.13 162.547 1436.55 Q159.491 1431.94 159.491 1423.21 Q159.491 1414.46 162.547 1409.88 Q165.626 1405.27 171.436 1405.27 Z" fill="#000000" fill-rule="nonzero" fill-opacity="1" /><path clip-path="url(#clip100)" d="M201.598 1408.98 Q197.987 1408.98 196.158 1412.54 Q194.352 1416.08 194.352 1423.21 Q194.352 1430.32 196.158 1433.89 Q197.987 1437.43 201.598 1437.43 Q205.232 1437.43 207.037 1433.89 Q208.866 1430.32 208.866 1423.21 Q208.866 1416.08 207.037 1412.54 Q205.232 1408.98 201.598 1408.98 M201.598 1405.27 Q207.408 1405.27 210.463 1409.88 Q213.542 1414.46 213.542 1423.21 Q213.542 1431.94 210.463 1436.55 Q207.408 1441.13 201.598 1441.13 Q195.787 1441.13 192.709 1436.55 Q189.653 1431.94 189.653 1423.21 Q189.653 1414.46 192.709 1409.88 Q195.787 1405.27 201.598 1405.27 Z" fill="#000000" fill-rule="nonzero" fill-opacity="1" /><path clip-path="url(#clip100)" d="M231.76 1408.98 Q228.148 1408.98 226.32 1412.54 Q224.514 1416.08 224.514 1423.21 Q224.514 1430.32 226.32 1433.89 Q228.148 1437.43 231.76 1437.43 Q235.394 1437.43 237.199 1433.89 Q239.028 1430.32 239.028 1423.21 Q239.028 1416.08 237.199 1412.54 Q235.394 1408.98 231.76 1408.98 M231.76 1405.27 Q237.57 1405.27 240.625 1409.88 Q243.704 1414.46 243.704 1423.21 Q243.704 1431.94 240.625 1436.55 Q237.57 1441.13 231.76 1441.13 Q225.949 1441.13 222.871 1436.55 Q219.815 1431.94 219.815 1423.21 Q219.815 1414.46 222.871 1409.88 Q225.949 1405.27 231.76 1405.27 Z" fill="#000000" fill-rule="nonzero" fill-opacity="1" /><path clip-path="url(#clip100)" d="M261.921 1408.98 Q258.31 1408.98 256.482 1412.54 Q254.676 1416.08 254.676 1423.21 Q254.676 1430.32 256.482 1433.89 Q258.31 1437.43 261.921 1437.43 Q265.556 1437.43 267.361 1433.89 Q269.19 1430.32 269.19 1423.21 Q269.19 1416.08 267.361 1412.54 Q265.556 1408.98 261.921 1408.98 M261.921 1405.27 Q267.732 1405.27 270.787 1409.88 Q273.866 1414.46 273.866 1423.21 Q273.866 1431.94 270.787 1436.55 Q267.732 1441.13 261.921 1441.13 Q256.111 1441.13 253.033 1436.55 Q249.977 1431.94 249.977 1423.21 Q249.977 1414.46 253.033 1409.88 Q256.111 1405.27 261.921 1405.27 Z" fill="#000000" fill-rule="nonzero" fill-opacity="1" /><path clip-path="url(#clip100)" d="M127.2 1092.93 Q123.589 1092.93 121.76 1096.49 Q119.955 1100.03 119.955 1107.16 Q119.955 1114.27 121.76 1117.84 Q123.589 1121.38 127.2 1121.38 Q130.834 1121.38 132.64 1117.84 Q134.468 1114.27 134.468 1107.16 Q134.468 1100.03 132.64 1096.49 Q130.834 1092.93 127.2 1092.93 M127.2 1089.22 Q133.01 1089.22 136.066 1093.83 Q139.144 1098.41 139.144 1107.16 Q139.144 1115.89 136.066 1120.5 Q133.01 1125.08 127.2 1125.08 Q121.39 1125.08 118.311 1120.5 Q115.256 1115.89 115.256 1107.16 Q115.256 1098.41 118.311 1093.83 Q121.39 1089.22 127.2 1089.22 Z" fill="#000000" fill-rule="nonzero" fill-opacity="1" /><path clip-path="url(#clip100)" d="M147.362 1118.53 L152.246 1118.53 L152.246 1124.41 L147.362 1124.41 L147.362 1118.53 Z" fill="#000000" fill-rule="nonzero" fill-opacity="1" /><path clip-path="url(#clip100)" d="M172.431 1092.93 Q168.82 1092.93 166.991 1096.49 Q165.186 1100.03 165.186 1107.16 Q165.186 1114.27 166.991 1117.84 Q168.82 1121.38 172.431 1121.38 Q176.065 1121.38 177.871 1117.84 Q179.7 1114.27 179.7 1107.16 Q179.7 1100.03 177.871 1096.49 Q176.065 1092.93 172.431 1092.93 M172.431 1089.22 Q178.241 1089.22 181.297 1093.83 Q184.376 1098.41 184.376 1107.16 Q184.376 1115.89 181.297 1120.5 Q178.241 1125.08 172.431 1125.08 Q166.621 1125.08 163.542 1120.5 Q160.487 1115.89 160.487 1107.16 Q160.487 1098.41 163.542 1093.83 Q166.621 1089.22 172.431 1089.22 Z" fill="#000000" fill-rule="nonzero" fill-opacity="1" /><path clip-path="url(#clip100)" d="M202.593 1092.93 Q198.982 1092.93 197.153 1096.49 Q195.348 1100.03 195.348 1107.16 Q195.348 1114.27 197.153 1117.84 Q198.982 1121.38 202.593 1121.38 Q206.227 1121.38 208.033 1117.84 Q209.861 1114.27 209.861 1107.16 Q209.861 1100.03 208.033 1096.49 Q206.227 1092.93 202.593 1092.93 M202.593 1089.22 Q208.403 1089.22 211.459 1093.83 Q214.537 1098.41 214.537 1107.16 Q214.537 1115.89 211.459 1120.5 Q208.403 1125.08 202.593 1125.08 Q196.783 1125.08 193.704 1120.5 Q190.649 1115.89 190.649 1107.16 Q190.649 1098.41 193.704 1093.83 Q196.783 1089.22 202.593 1089.22 Z" fill="#000000" fill-rule="nonzero" fill-opacity="1" /><path clip-path="url(#clip100)" d="M226.783 1120.47 L243.102 1120.47 L243.102 1124.41 L221.158 1124.41 L221.158 1120.47 Q223.82 1117.72 228.403 1113.09 Q233.01 1108.44 234.19 1107.09 Q236.435 1104.57 237.315 1102.84 Q238.218 1101.08 238.218 1099.39 Q238.218 1096.63 236.273 1094.9 Q234.352 1093.16 231.25 1093.16 Q229.051 1093.16 226.598 1093.92 Q224.167 1094.69 221.389 1096.24 L221.389 1091.52 Q224.213 1090.38 226.667 1089.8 Q229.121 1089.22 231.158 1089.22 Q236.528 1089.22 239.722 1091.91 Q242.917 1094.59 242.917 1099.09 Q242.917 1101.22 242.107 1103.14 Q241.32 1105.03 239.213 1107.63 Q238.634 1108.3 235.533 1111.52 Q232.431 1114.71 226.783 1120.47 Z" fill="#000000" fill-rule="nonzero" fill-opacity="1" /><path clip-path="url(#clip100)" d="M252.963 1089.85 L271.32 1089.85 L271.32 1093.78 L257.246 1093.78 L257.246 1102.26 Q258.264 1101.91 259.283 1101.75 Q260.301 1101.56 261.32 1101.56 Q267.107 1101.56 270.486 1104.73 Q273.866 1107.91 273.866 1113.32 Q273.866 1118.9 270.394 1122 Q266.921 1125.08 260.602 1125.08 Q258.426 1125.08 256.158 1124.71 Q253.912 1124.34 251.505 1123.6 L251.505 1118.9 Q253.588 1120.03 255.81 1120.59 Q258.033 1121.15 260.509 1121.15 Q264.514 1121.15 266.852 1119.04 Q269.19 1116.93 269.19 1113.32 Q269.19 1109.71 266.852 1107.6 Q264.514 1105.5 260.509 1105.5 Q258.634 1105.5 256.759 1105.91 Q254.908 1106.33 252.963 1107.21 L252.963 1089.85 Z" fill="#000000" fill-rule="nonzero" fill-opacity="1" /><path clip-path="url(#clip100)" d="M126.205 776.878 Q122.593 776.878 120.765 780.443 Q118.959 783.985 118.959 791.114 Q118.959 798.221 120.765 801.785 Q122.593 805.327 126.205 805.327 Q129.839 805.327 131.644 801.785 Q133.473 798.221 133.473 791.114 Q133.473 783.985 131.644 780.443 Q129.839 776.878 126.205 776.878 M126.205 773.174 Q132.015 773.174 135.07 777.781 Q138.149 782.364 138.149 791.114 Q138.149 799.841 135.07 804.447 Q132.015 809.031 126.205 809.031 Q120.394 809.031 117.316 804.447 Q114.26 799.841 114.26 791.114 Q114.26 782.364 117.316 777.781 Q120.394 773.174 126.205 773.174 Z" fill="#000000" fill-rule="nonzero" fill-opacity="1" /><path clip-path="url(#clip100)" d="M146.366 802.48 L151.251 802.48 L151.251 808.359 L146.366 808.359 L146.366 802.48 Z" fill="#000000" fill-rule="nonzero" fill-opacity="1" /><path clip-path="url(#clip100)" d="M171.436 776.878 Q167.825 776.878 165.996 780.443 Q164.19 783.985 164.19 791.114 Q164.19 798.221 165.996 801.785 Q167.825 805.327 171.436 805.327 Q175.07 805.327 176.876 801.785 Q178.704 798.221 178.704 791.114 Q178.704 783.985 176.876 780.443 Q175.07 776.878 171.436 776.878 M171.436 773.174 Q177.246 773.174 180.301 777.781 Q183.38 782.364 183.38 791.114 Q183.38 799.841 180.301 804.447 Q177.246 809.031 171.436 809.031 Q165.626 809.031 162.547 804.447 Q159.491 799.841 159.491 791.114 Q159.491 782.364 162.547 777.781 Q165.626 773.174 171.436 773.174 Z" fill="#000000" fill-rule="nonzero" fill-opacity="1" /><path clip-path="url(#clip100)" d="M201.598 776.878 Q197.987 776.878 196.158 780.443 Q194.352 783.985 194.352 791.114 Q194.352 798.221 196.158 801.785 Q197.987 805.327 201.598 805.327 Q205.232 805.327 207.037 801.785 Q208.866 798.221 208.866 791.114 Q208.866 783.985 207.037 780.443 Q205.232 776.878 201.598 776.878 M201.598 773.174 Q207.408 773.174 210.463 777.781 Q213.542 782.364 213.542 791.114 Q213.542 799.841 210.463 804.447 Q207.408 809.031 201.598 809.031 Q195.787 809.031 192.709 804.447 Q189.653 799.841 189.653 791.114 Q189.653 782.364 192.709 777.781 Q195.787 773.174 201.598 773.174 Z" fill="#000000" fill-rule="nonzero" fill-opacity="1" /><path clip-path="url(#clip100)" d="M221.806 773.799 L240.162 773.799 L240.162 777.735 L226.088 777.735 L226.088 786.207 Q227.107 785.86 228.125 785.697 Q229.144 785.512 230.162 785.512 Q235.949 785.512 239.329 788.684 Q242.709 791.855 242.709 797.271 Q242.709 802.85 239.236 805.952 Q235.764 809.031 229.445 809.031 Q227.269 809.031 225 808.66 Q222.755 808.29 220.348 807.549 L220.348 802.85 Q222.431 803.984 224.653 804.54 Q226.875 805.096 229.352 805.096 Q233.357 805.096 235.695 802.989 Q238.033 800.883 238.033 797.271 Q238.033 793.66 235.695 791.554 Q233.357 789.447 229.352 789.447 Q227.477 789.447 225.602 789.864 Q223.75 790.281 221.806 791.16 L221.806 773.799 Z" fill="#000000" fill-rule="nonzero" fill-opacity="1" /><path clip-path="url(#clip100)" d="M261.921 776.878 Q258.31 776.878 256.482 780.443 Q254.676 783.985 254.676 791.114 Q254.676 798.221 256.482 801.785 Q258.31 805.327 261.921 805.327 Q265.556 805.327 267.361 801.785 Q269.19 798.221 269.19 791.114 Q269.19 783.985 267.361 780.443 Q265.556 776.878 261.921 776.878 M261.921 773.174 Q267.732 773.174 270.787 777.781 Q273.866 782.364 273.866 791.114 Q273.866 799.841 270.787 804.447 Q267.732 809.031 261.921 809.031 Q256.111 809.031 253.033 804.447 Q249.977 799.841 249.977 791.114 Q249.977 782.364 253.033 777.781 Q256.111 773.174 261.921 773.174 Z" fill="#000000" fill-rule="nonzero" fill-opacity="1" /><path clip-path="url(#clip100)" d="M127.2 460.828 Q123.589 460.828 121.76 464.393 Q119.955 467.934 119.955 475.064 Q119.955 482.17 121.76 485.735 Q123.589 489.277 127.2 489.277 Q130.834 489.277 132.64 485.735 Q134.468 482.17 134.468 475.064 Q134.468 467.934 132.64 464.393 Q130.834 460.828 127.2 460.828 M127.2 457.124 Q133.01 457.124 136.066 461.731 Q139.144 466.314 139.144 475.064 Q139.144 483.791 136.066 488.397 Q133.01 492.98 127.2 492.98 Q121.39 492.98 118.311 488.397 Q115.256 483.791 115.256 475.064 Q115.256 466.314 118.311 461.731 Q121.39 457.124 127.2 457.124 Z" fill="#000000" fill-rule="nonzero" fill-opacity="1" /><path clip-path="url(#clip100)" d="M147.362 486.43 L152.246 486.43 L152.246 492.309 L147.362 492.309 L147.362 486.43 Z" fill="#000000" fill-rule="nonzero" fill-opacity="1" /><path clip-path="url(#clip100)" d="M172.431 460.828 Q168.82 460.828 166.991 464.393 Q165.186 467.934 165.186 475.064 Q165.186 482.17 166.991 485.735 Q168.82 489.277 172.431 489.277 Q176.065 489.277 177.871 485.735 Q179.7 482.17 179.7 475.064 Q179.7 467.934 177.871 464.393 Q176.065 460.828 172.431 460.828 M172.431 457.124 Q178.241 457.124 181.297 461.731 Q184.376 466.314 184.376 475.064 Q184.376 483.791 181.297 488.397 Q178.241 492.98 172.431 492.98 Q166.621 492.98 163.542 488.397 Q160.487 483.791 160.487 475.064 Q160.487 466.314 163.542 461.731 Q166.621 457.124 172.431 457.124 Z" fill="#000000" fill-rule="nonzero" fill-opacity="1" /><path clip-path="url(#clip100)" d="M202.593 460.828 Q198.982 460.828 197.153 464.393 Q195.348 467.934 195.348 475.064 Q195.348 482.17 197.153 485.735 Q198.982 489.277 202.593 489.277 Q206.227 489.277 208.033 485.735 Q209.861 482.17 209.861 475.064 Q209.861 467.934 208.033 464.393 Q206.227 460.828 202.593 460.828 M202.593 457.124 Q208.403 457.124 211.459 461.731 Q214.537 466.314 214.537 475.064 Q214.537 483.791 211.459 488.397 Q208.403 492.98 202.593 492.98 Q196.783 492.98 193.704 488.397 Q190.649 483.791 190.649 475.064 Q190.649 466.314 193.704 461.731 Q196.783 457.124 202.593 457.124 Z" fill="#000000" fill-rule="nonzero" fill-opacity="1" /><path clip-path="url(#clip100)" d="M221.574 457.749 L243.797 457.749 L243.797 459.74 L231.25 492.309 L226.366 492.309 L238.172 461.684 L221.574 461.684 L221.574 457.749 Z" fill="#000000" fill-rule="nonzero" fill-opacity="1" /><path clip-path="url(#clip100)" d="M252.963 457.749 L271.32 457.749 L271.32 461.684 L257.246 461.684 L257.246 470.156 Q258.264 469.809 259.283 469.647 Q260.301 469.462 261.32 469.462 Q267.107 469.462 270.486 472.633 Q273.866 475.805 273.866 481.221 Q273.866 486.8 270.394 489.902 Q266.921 492.98 260.602 492.98 Q258.426 492.98 256.158 492.61 Q253.912 492.24 251.505 491.499 L251.505 486.8 Q253.588 487.934 255.81 488.49 Q258.033 489.045 260.509 489.045 Q264.514 489.045 266.852 486.939 Q269.19 484.832 269.19 481.221 Q269.19 477.61 266.852 475.504 Q264.514 473.397 260.509 473.397 Q258.634 473.397 256.759 473.814 Q254.908 474.231 252.963 475.11 L252.963 457.749 Z" fill="#000000" fill-rule="nonzero" fill-opacity="1" /><path clip-path="url(#clip100)" d="M126.205 144.778 Q122.593 144.778 120.765 148.342 Q118.959 151.884 118.959 159.014 Q118.959 166.12 120.765 169.685 Q122.593 173.227 126.205 173.227 Q129.839 173.227 131.644 169.685 Q133.473 166.12 133.473 159.014 Q133.473 151.884 131.644 148.342 Q129.839 144.778 126.205 144.778 M126.205 141.074 Q132.015 141.074 135.07 145.68 Q138.149 150.264 138.149 159.014 Q138.149 167.74 135.07 172.347 Q132.015 176.93 126.205 176.93 Q120.394 176.93 117.316 172.347 Q114.26 167.74 114.26 159.014 Q114.26 150.264 117.316 145.68 Q120.394 141.074 126.205 141.074 Z" fill="#000000" fill-rule="nonzero" fill-opacity="1" /><path clip-path="url(#clip100)" d="M146.366 170.379 L151.251 170.379 L151.251 176.259 L146.366 176.259 L146.366 170.379 Z" fill="#000000" fill-rule="nonzero" fill-opacity="1" /><path clip-path="url(#clip100)" d="M171.436 144.778 Q167.825 144.778 165.996 148.342 Q164.19 151.884 164.19 159.014 Q164.19 166.12 165.996 169.685 Q167.825 173.227 171.436 173.227 Q175.07 173.227 176.876 169.685 Q178.704 166.12 178.704 159.014 Q178.704 151.884 176.876 148.342 Q175.07 144.778 171.436 144.778 M171.436 141.074 Q177.246 141.074 180.301 145.68 Q183.38 150.264 183.38 159.014 Q183.38 167.74 180.301 172.347 Q177.246 176.93 171.436 176.93 Q165.626 176.93 162.547 172.347 Q159.491 167.74 159.491 159.014 Q159.491 150.264 162.547 145.68 Q165.626 141.074 171.436 141.074 Z" fill="#000000" fill-rule="nonzero" fill-opacity="1" /><path clip-path="url(#clip100)" d="M192.408 172.324 L200.047 172.324 L200.047 145.958 L191.737 147.625 L191.737 143.366 L200 141.699 L204.676 141.699 L204.676 172.324 L212.315 172.324 L212.315 176.259 L192.408 176.259 L192.408 172.324 Z" fill="#000000" fill-rule="nonzero" fill-opacity="1" /><path clip-path="url(#clip100)" d="M231.76 144.778 Q228.148 144.778 226.32 148.342 Q224.514 151.884 224.514 159.014 Q224.514 166.12 226.32 169.685 Q228.148 173.227 231.76 173.227 Q235.394 173.227 237.199 169.685 Q239.028 166.12 239.028 159.014 Q239.028 151.884 237.199 148.342 Q235.394 144.778 231.76 144.778 M231.76 141.074 Q237.57 141.074 240.625 145.68 Q243.704 150.264 243.704 159.014 Q243.704 167.74 240.625 172.347 Q237.57 176.93 231.76 176.93 Q225.949 176.93 222.871 172.347 Q219.815 167.74 219.815 159.014 Q219.815 150.264 222.871 145.68 Q225.949 141.074 231.76 141.074 Z" fill="#000000" fill-rule="nonzero" fill-opacity="1" /><path clip-path="url(#clip100)" d="M261.921 144.778 Q258.31 144.778 256.482 148.342 Q254.676 151.884 254.676 159.014 Q254.676 166.12 256.482 169.685 Q258.31 173.227 261.921 173.227 Q265.556 173.227 267.361 169.685 Q269.19 166.12 269.19 159.014 Q269.19 151.884 267.361 148.342 Q265.556 144.778 261.921 144.778 M261.921 141.074 Q267.732 141.074 270.787 145.68 Q273.866 150.264 273.866 159.014 Q273.866 167.74 270.787 172.347 Q267.732 176.93 261.921 176.93 Q256.111 176.93 253.033 172.347 Q249.977 167.74 249.977 159.014 Q249.977 150.264 253.033 145.68 Q256.111 141.074 261.921 141.074 Z" fill="#000000" fill-rule="nonzero" fill-opacity="1" /><path clip-path="url(#clip100)" d="M16.4842 1039.99 L16.4842 1012.68 L21.895 1012.68 L21.895 1033.56 L35.8996 1033.56 L35.8996 1014.71 L41.3104 1014.71 L41.3104 1033.56 L64.0042 1033.56 L64.0042 1039.99 L16.4842 1039.99 Z" fill="#000000" fill-rule="nonzero" fill-opacity="1" /><path clip-path="url(#clip100)" d="M46.0847 992.529 Q46.0847 999.627 47.7079 1002.36 Q49.3312 1005.1 53.2461 1005.1 Q56.3653 1005.1 58.2114 1003.06 Q60.0256 1001 60.0256 997.463 Q60.0256 992.593 56.5881 989.665 Q53.1188 986.704 47.3897 986.704 L46.0847 986.704 L46.0847 992.529 M43.6657 980.848 L64.0042 980.848 L64.0042 986.704 L58.5933 986.704 Q61.8398 988.71 63.3994 991.702 Q64.9272 994.693 64.9272 999.022 Q64.9272 1004.5 61.8716 1007.74 Q58.7843 1010.96 53.6281 1010.96 Q47.6125 1010.96 44.5569 1006.95 Q41.5014 1002.91 41.5014 994.916 L41.5014 986.704 L40.9285 986.704 Q36.8862 986.704 34.6901 989.378 Q32.4621 992.02 32.4621 996.826 Q32.4621 999.881 33.1941 1002.78 Q33.9262 1005.67 35.3903 1008.35 L29.9795 1008.35 Q28.7381 1005.13 28.1334 1002.11 Q27.4968 999.086 27.4968 996.221 Q27.4968 988.487 31.5072 984.667 Q35.5176 980.848 43.6657 980.848 Z" fill="#000000" fill-rule="nonzero" fill-opacity="1" /><path clip-path="url(#clip100)" d="M28.3562 968.785 L28.3562 962.929 L64.0042 962.929 L64.0042 968.785 L28.3562 968.785 M14.479 968.785 L14.479 962.929 L21.895 962.929 L21.895 968.785 L14.479 968.785 Z" fill="#000000" fill-rule="nonzero" fill-opacity="1" /><path clip-path="url(#clip100)" d="M33.8307 930.018 Q33.2578 931.005 33.0032 932.182 Q32.7167 933.328 32.7167 934.728 Q32.7167 939.694 35.9632 942.367 Q39.1779 945.009 45.2253 945.009 L64.0042 945.009 L64.0042 950.897 L28.3562 950.897 L28.3562 945.009 L33.8944 945.009 Q30.6479 943.163 29.0883 940.203 Q27.4968 937.243 27.4968 933.01 Q27.4968 932.405 27.5923 931.673 Q27.656 930.941 27.8151 930.05 L33.8307 930.018 Z" fill="#000000" fill-rule="nonzero" fill-opacity="1" /><path clip-path="url(#clip100)" d="M16.4842 902.9 L16.4842 896.471 L58.5933 896.471 L58.5933 873.331 L64.0042 873.331 L64.0042 902.9 L16.4842 902.9 Z" fill="#000000" fill-rule="nonzero" fill-opacity="1" /><path clip-path="url(#clip100)" d="M32.4621 854.17 Q32.4621 858.881 36.1542 861.618 Q39.8145 864.356 46.212 864.356 Q52.6095 864.356 56.3017 861.65 Q59.9619 858.913 59.9619 854.17 Q59.9619 849.492 56.2698 846.754 Q52.5777 844.017 46.212 844.017 Q39.8781 844.017 36.186 846.754 Q32.4621 849.492 32.4621 854.17 M27.4968 854.17 Q27.4968 846.532 32.4621 842.171 Q37.4273 837.811 46.212 837.811 Q54.9649 837.811 59.9619 842.171 Q64.9272 846.532 64.9272 854.17 Q64.9272 861.841 59.9619 866.202 Q54.9649 870.53 46.212 870.53 Q37.4273 870.53 32.4621 866.202 Q27.4968 861.841 27.4968 854.17 Z" fill="#000000" fill-rule="nonzero" fill-opacity="1" /><path clip-path="url(#clip100)" d="M46.0847 811.902 Q46.0847 819 47.7079 821.737 Q49.3312 824.474 53.2461 824.474 Q56.3653 824.474 58.2114 822.437 Q60.0256 820.369 60.0256 816.836 Q60.0256 811.966 56.5881 809.038 Q53.1188 806.078 47.3897 806.078 L46.0847 806.078 L46.0847 811.902 M43.6657 800.221 L64.0042 800.221 L64.0042 806.078 L58.5933 806.078 Q61.8398 808.083 63.3994 811.075 Q64.9272 814.067 64.9272 818.395 Q64.9272 823.87 61.8716 827.116 Q58.7843 830.331 53.6281 830.331 Q47.6125 830.331 44.5569 826.32 Q41.5014 822.278 41.5014 814.289 L41.5014 806.078 L40.9285 806.078 Q36.8862 806.078 34.6901 808.751 Q32.4621 811.393 32.4621 816.199 Q32.4621 819.255 33.1941 822.151 Q33.9262 825.047 35.3903 827.721 L29.9795 827.721 Q28.7381 824.506 28.1334 821.483 Q27.4968 818.459 27.4968 815.594 Q27.4968 807.86 31.5072 804.041 Q35.5176 800.221 43.6657 800.221 Z" fill="#000000" fill-rule="nonzero" fill-opacity="1" /><path clip-path="url(#clip100)" d="M33.7671 764.7 L14.479 764.7 L14.479 758.844 L64.0042 758.844 L64.0042 764.7 L58.657 764.7 Q61.8398 766.547 63.3994 769.379 Q64.9272 772.18 64.9272 776.127 Q64.9272 782.588 59.771 786.662 Q54.6147 790.704 46.212 790.704 Q37.8093 790.704 32.6531 786.662 Q27.4968 782.588 27.4968 776.127 Q27.4968 772.18 29.0564 769.379 Q30.5842 766.547 33.7671 764.7 M46.212 784.657 Q52.6732 784.657 56.3653 782.015 Q60.0256 779.342 60.0256 774.695 Q60.0256 770.048 56.3653 767.374 Q52.6732 764.7 46.212 764.7 Q39.7508 764.7 36.0905 767.374 Q32.3984 770.048 32.3984 774.695 Q32.3984 779.342 36.0905 782.015 Q39.7508 784.657 46.212 784.657 Z" fill="#000000" fill-rule="nonzero" fill-opacity="1" /><path clip-path="url(#clip100)" d="M16.4842 730.039 L16.4842 723.546 L56.6518 713.552 L16.4842 703.59 L16.4842 696.365 L56.6518 686.37 L16.4842 676.408 L16.4842 669.883 L64.0042 681.819 L64.0042 689.903 L22.7544 699.929 L64.0042 710.051 L64.0042 718.135 L16.4842 730.039 Z" fill="#000000" fill-rule="nonzero" fill-opacity="1" /><path clip-path="url(#clip100)" d="M44.7161 634.936 L47.5806 634.936 L47.5806 661.862 Q53.6281 661.481 56.8109 658.234 Q59.9619 654.956 59.9619 649.131 Q59.9619 645.757 59.1344 642.606 Q58.3069 639.423 56.6518 636.304 L62.1899 636.304 Q63.5267 639.455 64.227 642.765 Q64.9272 646.076 64.9272 649.481 Q64.9272 658.011 59.9619 663.008 Q54.9967 667.974 46.5303 667.974 Q37.7774 667.974 32.6531 663.263 Q27.4968 658.52 27.4968 650.5 Q27.4968 643.306 32.1438 639.137 Q36.7589 634.936 44.7161 634.936 M42.9973 640.792 Q38.1912 640.856 35.3266 643.497 Q32.4621 646.107 32.4621 650.436 Q32.4621 655.338 35.2312 658.298 Q38.0002 661.226 43.0292 661.671 L42.9973 640.792 Z" fill="#000000" fill-rule="nonzero" fill-opacity="1" /><path clip-path="url(#clip100)" d="M28.3562 625.323 L28.3562 619.467 L64.0042 619.467 L64.0042 625.323 L28.3562 625.323 M14.479 625.323 L14.479 619.467 L21.895 619.467 L21.895 625.323 L14.479 625.323 Z" fill="#000000" fill-rule="nonzero" fill-opacity="1" /><path clip-path="url(#clip100)" d="M45.7664 583.755 Q39.4007 583.755 35.8996 586.397 Q32.3984 589.007 32.3984 593.749 Q32.3984 598.46 35.8996 601.102 Q39.4007 603.712 45.7664 603.712 Q52.1003 603.712 55.6014 601.102 Q59.1026 598.46 59.1026 593.749 Q59.1026 589.007 55.6014 586.397 Q52.1003 583.755 45.7664 583.755 M59.58 577.899 Q68.683 577.899 73.1071 581.941 Q77.5631 585.983 77.5631 594.322 Q77.5631 597.41 77.0857 600.147 Q76.6401 602.884 75.6852 605.462 L69.9879 605.462 Q71.3884 602.884 72.0568 600.37 Q72.7252 597.855 72.7252 595.245 Q72.7252 589.484 69.7015 586.62 Q66.7096 583.755 60.6303 583.755 L57.7339 583.755 Q60.885 585.569 62.4446 588.402 Q64.0042 591.235 64.0042 595.182 Q64.0042 601.738 59.0071 605.749 Q54.01 609.759 45.7664 609.759 Q37.491 609.759 32.4939 605.749 Q27.4968 601.738 27.4968 595.182 Q27.4968 591.235 29.0564 588.402 Q30.616 585.569 33.7671 583.755 L28.3562 583.755 L28.3562 577.899 L59.58 577.899 Z" fill="#000000" fill-rule="nonzero" fill-opacity="1" /><path clip-path="url(#clip100)" d="M42.4881 536.203 L64.0042 536.203 L64.0042 542.06 L42.679 542.06 Q37.6183 542.06 35.1038 544.033 Q32.5894 546.007 32.5894 549.953 Q32.5894 554.696 35.6131 557.433 Q38.6368 560.17 43.8567 560.17 L64.0042 560.17 L64.0042 566.059 L14.479 566.059 L14.479 560.17 L33.8944 560.17 Q30.6797 558.07 29.0883 555.237 Q27.4968 552.372 27.4968 548.648 Q27.4968 542.505 31.3163 539.354 Q35.1038 536.203 42.4881 536.203 Z" fill="#000000" fill-rule="nonzero" fill-opacity="1" /><path clip-path="url(#clip100)" d="M18.2347 518.73 L28.3562 518.73 L28.3562 506.667 L32.9077 506.667 L32.9077 518.73 L52.2594 518.73 Q56.6199 518.73 57.8613 517.552 Q59.1026 516.342 59.1026 512.682 L59.1026 506.667 L64.0042 506.667 L64.0042 512.682 Q64.0042 519.462 61.4897 522.04 Q58.9434 524.618 52.2594 524.618 L32.9077 524.618 L32.9077 528.915 L28.3562 528.915 L28.3562 524.618 L18.2347 524.618 L18.2347 518.73 Z" fill="#000000" fill-rule="nonzero" fill-opacity="1" /><path clip-path="url(#clip100)" d="M520.502 12.096 L555.259 12.096 L555.259 18.9825 L528.685 18.9825 L528.685 36.8065 L552.666 36.8065 L552.666 43.6931 L528.685 43.6931 L528.685 72.576 L520.502 72.576 L520.502 12.096 Z" fill="#000000" fill-rule="nonzero" fill-opacity="1" /><path clip-path="url(#clip100)" d="M580.901 49.7694 Q571.868 49.7694 568.384 51.8354 Q564.9 53.9013 564.9 58.8839 Q564.9 62.8538 567.493 65.2034 Q570.126 67.5124 574.622 67.5124 Q580.82 67.5124 584.547 63.1374 Q588.314 58.7219 588.314 51.4303 L588.314 49.7694 L580.901 49.7694 M595.768 46.6907 L595.768 72.576 L588.314 72.576 L588.314 65.6895 Q585.762 69.8214 581.954 71.8063 Q578.146 73.7508 572.637 73.7508 Q565.67 73.7508 561.538 69.8619 Q557.446 65.9325 557.446 59.3701 Q557.446 51.7138 562.55 47.825 Q567.695 43.9361 577.863 43.9361 L588.314 43.9361 L588.314 43.2069 Q588.314 38.0623 584.911 35.2672 Q581.549 32.4315 575.432 32.4315 Q571.544 32.4315 567.857 33.3632 Q564.171 34.295 560.768 36.1584 L560.768 29.2718 Q564.86 27.692 568.708 26.9223 Q572.556 26.1121 576.202 26.1121 Q586.046 26.1121 590.907 31.2163 Q595.768 36.3204 595.768 46.6907 Z" fill="#000000" fill-rule="nonzero" fill-opacity="1" /><path clip-path="url(#clip100)" d="M611.121 27.2059 L618.575 27.2059 L618.575 72.576 L611.121 72.576 L611.121 27.2059 M611.121 9.54393 L618.575 9.54393 L618.575 18.9825 L611.121 18.9825 L611.121 9.54393 Z" fill="#000000" fill-rule="nonzero" fill-opacity="1" /><path clip-path="url(#clip100)" d="M660.461 34.1734 Q659.205 33.4443 657.706 33.1202 Q656.248 32.7556 654.466 32.7556 Q648.146 32.7556 644.743 36.8875 Q641.381 40.9789 641.381 48.6757 L641.381 72.576 L633.887 72.576 L633.887 27.2059 L641.381 27.2059 L641.381 34.2544 Q643.731 30.1225 647.498 28.1376 Q651.265 26.1121 656.653 26.1121 Q657.423 26.1121 658.354 26.2337 Q659.286 26.3147 660.42 26.5172 L660.461 34.1734 Z" fill="#000000" fill-rule="nonzero" fill-opacity="1" /><path clip-path="url(#clip100)" d="M694.975 12.096 L703.157 12.096 L703.157 65.6895 L732.607 65.6895 L732.607 72.576 L694.975 72.576 L694.975 12.096 Z" fill="#000000" fill-rule="nonzero" fill-opacity="1" /><path clip-path="url(#clip100)" d="M756.994 32.4315 Q750.999 32.4315 747.515 37.1306 Q744.031 41.7891 744.031 49.9314 Q744.031 58.0738 747.474 62.7728 Q750.958 67.4314 756.994 67.4314 Q762.949 67.4314 766.433 62.7323 Q769.916 58.0333 769.916 49.9314 Q769.916 41.8701 766.433 37.1711 Q762.949 32.4315 756.994 32.4315 M756.994 26.1121 Q766.716 26.1121 772.266 32.4315 Q777.816 38.7509 777.816 49.9314 Q777.816 61.0714 772.266 67.4314 Q766.716 73.7508 756.994 73.7508 Q747.231 73.7508 741.681 67.4314 Q736.172 61.0714 736.172 49.9314 Q736.172 38.7509 741.681 32.4315 Q747.231 26.1121 756.994 26.1121 Z" fill="#000000" fill-rule="nonzero" fill-opacity="1" /><path clip-path="url(#clip100)" d="M810.79 49.7694 Q801.756 49.7694 798.273 51.8354 Q794.789 53.9013 794.789 58.8839 Q794.789 62.8538 797.381 65.2034 Q800.015 67.5124 804.511 67.5124 Q810.709 67.5124 814.436 63.1374 Q818.203 58.7219 818.203 51.4303 L818.203 49.7694 L810.79 49.7694 M825.657 46.6907 L825.657 72.576 L818.203 72.576 L818.203 65.6895 Q815.651 69.8214 811.843 71.8063 Q808.035 73.7508 802.526 73.7508 Q795.559 73.7508 791.427 69.8619 Q787.335 65.9325 787.335 59.3701 Q787.335 51.7138 792.439 47.825 Q797.584 43.9361 807.752 43.9361 L818.203 43.9361 L818.203 43.2069 Q818.203 38.0623 814.8 35.2672 Q811.438 32.4315 805.321 32.4315 Q801.432 32.4315 797.746 33.3632 Q794.06 34.295 790.657 36.1584 L790.657 29.2718 Q794.748 27.692 798.597 26.9223 Q802.445 26.1121 806.091 26.1121 Q815.935 26.1121 820.796 31.2163 Q825.657 36.3204 825.657 46.6907 Z" fill="#000000" fill-rule="nonzero" fill-opacity="1" /><path clip-path="url(#clip100)" d="M870.865 34.0924 L870.865 9.54393 L878.318 9.54393 L878.318 72.576 L870.865 72.576 L870.865 65.7705 Q868.515 69.8214 864.91 71.8063 Q861.345 73.7508 856.322 73.7508 Q848.099 73.7508 842.914 67.1883 Q837.769 60.6258 837.769 49.9314 Q837.769 39.2371 842.914 32.6746 Q848.099 26.1121 856.322 26.1121 Q861.345 26.1121 864.91 28.0971 Q868.515 30.0415 870.865 34.0924 M845.466 49.9314 Q845.466 58.1548 848.828 62.8538 Q852.231 67.5124 858.145 67.5124 Q864.059 67.5124 867.462 62.8538 Q870.865 58.1548 870.865 49.9314 Q870.865 41.7081 867.462 37.0496 Q864.059 32.3505 858.145 32.3505 Q852.231 32.3505 848.828 37.0496 Q845.466 41.7081 845.466 49.9314 Z" fill="#000000" fill-rule="nonzero" fill-opacity="1" /><path clip-path="url(#clip100)" d="M914.979 12.096 L923.243 12.096 L935.963 63.2184 L948.642 12.096 L957.838 12.096 L970.558 63.2184 L983.237 12.096 L991.541 12.096 L976.35 72.576 L966.061 72.576 L953.301 20.0763 L940.419 72.576 L930.13 72.576 L914.979 12.096 Z" fill="#000000" fill-rule="nonzero" fill-opacity="1" /><path clip-path="url(#clip100)" d="M1036.02 48.0275 L1036.02 51.6733 L1001.75 51.6733 Q1002.24 59.3701 1006.37 63.421 Q1010.54 67.4314 1017.95 67.4314 Q1022.25 67.4314 1026.26 66.3781 Q1030.31 65.3249 1034.28 63.2184 L1034.28 70.267 Q1030.27 71.9684 1026.05 72.8596 Q1021.84 73.7508 1017.51 73.7508 Q1006.65 73.7508 1000.29 67.4314 Q993.972 61.1119 993.972 50.3365 Q993.972 39.1965 999.967 32.6746 Q1006 26.1121 1016.21 26.1121 Q1025.37 26.1121 1030.67 32.0264 Q1036.02 37.9003 1036.02 48.0275 M1028.57 45.84 Q1028.49 39.7232 1025.12 36.0774 Q1021.8 32.4315 1016.29 32.4315 Q1010.05 32.4315 1006.29 35.9558 Q1002.56 39.4801 1001.99 45.8805 L1028.57 45.84 Z" fill="#000000" fill-rule="nonzero" fill-opacity="1" /><path clip-path="url(#clip100)" d="M1048.25 27.2059 L1055.71 27.2059 L1055.71 72.576 L1048.25 72.576 L1048.25 27.2059 M1048.25 9.54393 L1055.71 9.54393 L1055.71 18.9825 L1048.25 18.9825 L1048.25 9.54393 Z" fill="#000000" fill-rule="nonzero" fill-opacity="1" /><path clip-path="url(#clip100)" d="M1101.16 49.3643 Q1101.16 41.2625 1097.8 36.8065 Q1094.47 32.3505 1088.44 32.3505 Q1082.44 32.3505 1079.08 36.8065 Q1075.76 41.2625 1075.76 49.3643 Q1075.76 57.4256 1079.08 61.8816 Q1082.44 66.3376 1088.44 66.3376 Q1094.47 66.3376 1097.8 61.8816 Q1101.16 57.4256 1101.16 49.3643 M1108.61 66.9452 Q1108.61 78.5308 1103.47 84.1616 Q1098.32 89.8329 1087.71 89.8329 Q1083.78 89.8329 1080.3 89.2252 Q1076.81 88.6581 1073.53 87.4428 L1073.53 80.1917 Q1076.81 81.9741 1080.01 82.8248 Q1083.21 83.6755 1086.53 83.6755 Q1093.87 83.6755 1097.51 79.8271 Q1101.16 76.0193 1101.16 68.282 L1101.16 64.5957 Q1098.85 68.6061 1095.24 70.5911 Q1091.64 72.576 1086.62 72.576 Q1078.27 72.576 1073.17 66.2161 Q1068.06 59.8562 1068.06 49.3643 Q1068.06 38.832 1073.17 32.472 Q1078.27 26.1121 1086.62 26.1121 Q1091.64 26.1121 1095.24 28.0971 Q1098.85 30.082 1101.16 34.0924 L1101.16 27.2059 L1108.61 27.2059 L1108.61 66.9452 Z" fill="#000000" fill-rule="nonzero" fill-opacity="1" /><path clip-path="url(#clip100)" d="M1161.68 45.1919 L1161.68 72.576 L1154.23 72.576 L1154.23 45.4349 Q1154.23 38.994 1151.71 35.7938 Q1149.2 32.5936 1144.18 32.5936 Q1138.14 32.5936 1134.66 36.4419 Q1131.18 40.2903 1131.18 46.9338 L1131.18 72.576 L1123.68 72.576 L1123.68 9.54393 L1131.18 9.54393 L1131.18 34.2544 Q1133.85 30.163 1137.45 28.1376 Q1141.1 26.1121 1145.84 26.1121 Q1153.66 26.1121 1157.67 30.9732 Q1161.68 35.7938 1161.68 45.1919 Z" fill="#000000" fill-rule="nonzero" fill-opacity="1" /><path clip-path="url(#clip100)" d="M1183.92 14.324 L1183.92 27.2059 L1199.27 27.2059 L1199.27 32.9987 L1183.92 32.9987 L1183.92 57.6282 Q1183.92 63.1779 1185.42 64.7578 Q1186.96 66.3376 1191.62 66.3376 L1199.27 66.3376 L1199.27 72.576 L1191.62 72.576 Q1182.99 72.576 1179.71 69.3758 Q1176.42 66.1351 1176.42 57.6282 L1176.42 32.9987 L1170.96 32.9987 L1170.96 27.2059 L1176.42 27.2059 L1176.42 14.324 L1183.92 14.324 Z" fill="#000000" fill-rule="nonzero" fill-opacity="1" /><path clip-path="url(#clip100)" d="M1238 28.5427 L1238 35.5912 Q1234.84 33.9709 1231.44 33.1607 Q1228.03 32.3505 1224.39 32.3505 Q1218.84 32.3505 1216.04 34.0519 Q1213.29 35.7533 1213.29 39.156 Q1213.29 41.7486 1215.27 43.2475 Q1217.26 44.7058 1223.25 46.0426 L1225.81 46.6097 Q1233.74 48.3111 1237.07 51.4303 Q1240.43 54.509 1240.43 60.0587 Q1240.43 66.3781 1235.41 70.0644 Q1230.42 73.7508 1221.67 73.7508 Q1218.03 73.7508 1214.06 73.0216 Q1210.13 72.3329 1205.75 70.9151 L1205.75 63.2184 Q1209.88 65.3654 1213.9 66.4591 Q1217.91 67.5124 1221.84 67.5124 Q1227.1 67.5124 1229.94 65.73 Q1232.77 63.9071 1232.77 60.6258 Q1232.77 57.5877 1230.71 55.9673 Q1228.68 54.3469 1221.75 52.8481 L1219.16 52.2405 Q1212.23 50.7821 1209.16 47.7845 Q1206.08 44.7463 1206.08 39.4801 Q1206.08 33.0797 1210.61 29.5959 Q1215.15 26.1121 1223.5 26.1121 Q1227.63 26.1121 1231.27 26.7198 Q1234.92 27.3274 1238 28.5427 Z" fill="#000000" fill-rule="nonzero" fill-opacity="1" /><path clip-path="url(#clip100)" d="M1285.88 65.7705 L1285.88 89.8329 L1278.39 89.8329 L1278.39 27.2059 L1285.88 27.2059 L1285.88 34.0924 Q1288.23 30.0415 1291.79 28.0971 Q1295.4 26.1121 1300.38 26.1121 Q1308.65 26.1121 1313.79 32.6746 Q1318.98 39.2371 1318.98 49.9314 Q1318.98 60.6258 1313.79 67.1883 Q1308.65 73.7508 1300.38 73.7508 Q1295.4 73.7508 1291.79 71.8063 Q1288.23 69.8214 1285.88 65.7705 M1311.24 49.9314 Q1311.24 41.7081 1307.84 37.0496 Q1304.47 32.3505 1298.56 32.3505 Q1292.64 32.3505 1289.24 37.0496 Q1285.88 41.7081 1285.88 49.9314 Q1285.88 58.1548 1289.24 62.8538 Q1292.64 67.5124 1298.56 67.5124 Q1304.47 67.5124 1307.84 62.8538 Q1311.24 58.1548 1311.24 49.9314 Z" fill="#000000" fill-rule="nonzero" fill-opacity="1" /><path clip-path="url(#clip100)" d="M1370.14 48.0275 L1370.14 51.6733 L1335.87 51.6733 Q1336.35 59.3701 1340.49 63.421 Q1344.66 67.4314 1352.07 67.4314 Q1356.37 67.4314 1360.38 66.3781 Q1364.43 65.3249 1368.4 63.2184 L1368.4 70.267 Q1364.39 71.9684 1360.17 72.8596 Q1355.96 73.7508 1351.63 73.7508 Q1340.77 73.7508 1334.41 67.4314 Q1328.09 61.1119 1328.09 50.3365 Q1328.09 39.1965 1334.09 32.6746 Q1340.12 26.1121 1350.33 26.1121 Q1359.48 26.1121 1364.79 32.0264 Q1370.14 37.9003 1370.14 48.0275 M1362.69 45.84 Q1362.6 39.7232 1359.24 36.0774 Q1355.92 32.4315 1350.41 32.4315 Q1344.17 32.4315 1340.41 35.9558 Q1336.68 39.4801 1336.11 45.8805 L1362.69 45.84 Z" fill="#000000" fill-rule="nonzero" fill-opacity="1" /><path clip-path="url(#clip100)" d="M1408.66 34.1734 Q1407.41 33.4443 1405.91 33.1202 Q1404.45 32.7556 1402.67 32.7556 Q1396.35 32.7556 1392.95 36.8875 Q1389.58 40.9789 1389.58 48.6757 L1389.58 72.576 L1382.09 72.576 L1382.09 27.2059 L1389.58 27.2059 L1389.58 34.2544 Q1391.93 30.1225 1395.7 28.1376 Q1399.47 26.1121 1404.86 26.1121 Q1405.62 26.1121 1406.56 26.2337 Q1407.49 26.3147 1408.62 26.5172 L1408.66 34.1734 Z" fill="#000000" fill-rule="nonzero" fill-opacity="1" /><path clip-path="url(#clip100)" d="M1443.18 12.096 L1451.36 12.096 L1451.36 65.6895 L1480.81 65.6895 L1480.81 72.576 L1443.18 72.576 L1443.18 12.096 Z" fill="#000000" fill-rule="nonzero" fill-opacity="1" /><path clip-path="url(#clip100)" d="M1505.2 32.4315 Q1499.2 32.4315 1495.72 37.1306 Q1492.23 41.7891 1492.23 49.9314 Q1492.23 58.0738 1495.68 62.7728 Q1499.16 67.4314 1505.2 67.4314 Q1511.15 67.4314 1514.63 62.7323 Q1518.12 58.0333 1518.12 49.9314 Q1518.12 41.8701 1514.63 37.1711 Q1511.15 32.4315 1505.2 32.4315 M1505.2 26.1121 Q1514.92 26.1121 1520.47 32.4315 Q1526.02 38.7509 1526.02 49.9314 Q1526.02 61.0714 1520.47 67.4314 Q1514.92 73.7508 1505.2 73.7508 Q1495.43 73.7508 1489.88 67.4314 Q1484.37 61.0714 1484.37 49.9314 Q1484.37 38.7509 1489.88 32.4315 Q1495.43 26.1121 1505.2 26.1121 Z" fill="#000000" fill-rule="nonzero" fill-opacity="1" /><path clip-path="url(#clip100)" d="M1558.99 49.7694 Q1549.96 49.7694 1546.47 51.8354 Q1542.99 53.9013 1542.99 58.8839 Q1542.99 62.8538 1545.58 65.2034 Q1548.22 67.5124 1552.71 67.5124 Q1558.91 67.5124 1562.64 63.1374 Q1566.41 58.7219 1566.41 51.4303 L1566.41 49.7694 L1558.99 49.7694 M1573.86 46.6907 L1573.86 72.576 L1566.41 72.576 L1566.41 65.6895 Q1563.85 69.8214 1560.05 71.8063 Q1556.24 73.7508 1550.73 73.7508 Q1543.76 73.7508 1539.63 69.8619 Q1535.54 65.9325 1535.54 59.3701 Q1535.54 51.7138 1540.64 47.825 Q1545.79 43.9361 1555.95 43.9361 L1566.41 43.9361 L1566.41 43.2069 Q1566.41 38.0623 1563 35.2672 Q1559.64 32.4315 1553.52 32.4315 Q1549.63 32.4315 1545.95 33.3632 Q1542.26 34.295 1538.86 36.1584 L1538.86 29.2718 Q1542.95 27.692 1546.8 26.9223 Q1550.65 26.1121 1554.29 26.1121 Q1564.14 26.1121 1569 31.2163 Q1573.86 36.3204 1573.86 46.6907 Z" fill="#000000" fill-rule="nonzero" fill-opacity="1" /><path clip-path="url(#clip100)" d="M1619.07 34.0924 L1619.07 9.54393 L1626.52 9.54393 L1626.52 72.576 L1619.07 72.576 L1619.07 65.7705 Q1616.72 69.8214 1613.11 71.8063 Q1609.55 73.7508 1604.52 73.7508 Q1596.3 73.7508 1591.12 67.1883 Q1585.97 60.6258 1585.97 49.9314 Q1585.97 39.2371 1591.12 32.6746 Q1596.3 26.1121 1604.52 26.1121 Q1609.55 26.1121 1613.11 28.0971 Q1616.72 30.0415 1619.07 34.0924 M1593.67 49.9314 Q1593.67 58.1548 1597.03 62.8538 Q1600.43 67.5124 1606.35 67.5124 Q1612.26 67.5124 1615.66 62.8538 Q1619.07 58.1548 1619.07 49.9314 Q1619.07 41.7081 1615.66 37.0496 Q1612.26 32.3505 1606.35 32.3505 Q1600.43 32.3505 1597.03 37.0496 Q1593.67 41.7081 1593.67 49.9314 Z" fill="#000000" fill-rule="nonzero" fill-opacity="1" /><path clip-path="url(#clip100)" d="M1664.48 46.5287 L1686.31 46.5287 L1686.31 53.1722 L1664.48 53.1722 L1664.48 46.5287 Z" fill="#000000" fill-rule="nonzero" fill-opacity="1" /><path clip-path="url(#clip100)" d="M1724.88 12.096 L1733.06 12.096 L1733.06 72.576 L1724.88 72.576 L1724.88 12.096 Z" fill="#000000" fill-rule="nonzero" fill-opacity="1" /><path clip-path="url(#clip100)" d="M1756.39 14.324 L1756.39 27.2059 L1771.75 27.2059 L1771.75 32.9987 L1756.39 32.9987 L1756.39 57.6282 Q1756.39 63.1779 1757.89 64.7578 Q1759.43 66.3376 1764.09 66.3376 L1771.75 66.3376 L1771.75 72.576 L1764.09 72.576 Q1755.46 72.576 1752.18 69.3758 Q1748.9 66.1351 1748.9 57.6282 L1748.9 32.9987 L1743.43 32.9987 L1743.43 27.2059 L1748.9 27.2059 L1748.9 14.324 L1756.39 14.324 Z" fill="#000000" fill-rule="nonzero" fill-opacity="1" /><path clip-path="url(#clip100)" d="M1820.36 48.0275 L1820.36 51.6733 L1786.09 51.6733 Q1786.57 59.3701 1790.7 63.421 Q1794.88 67.4314 1802.29 67.4314 Q1806.58 67.4314 1810.59 66.3781 Q1814.64 65.3249 1818.61 63.2184 L1818.61 70.267 Q1814.6 71.9684 1810.39 72.8596 Q1806.18 73.7508 1801.84 73.7508 Q1790.99 73.7508 1784.63 67.4314 Q1778.31 61.1119 1778.31 50.3365 Q1778.31 39.1965 1784.3 32.6746 Q1790.34 26.1121 1800.55 26.1121 Q1809.7 26.1121 1815.01 32.0264 Q1820.36 37.9003 1820.36 48.0275 M1812.9 45.84 Q1812.82 39.7232 1809.46 36.0774 Q1806.14 32.4315 1800.63 32.4315 Q1794.39 32.4315 1790.62 35.9558 Q1786.9 39.4801 1786.33 45.8805 L1812.9 45.84 Z" fill="#000000" fill-rule="nonzero" fill-opacity="1" /><path clip-path="url(#clip100)" d="M1858.88 34.1734 Q1857.62 33.4443 1856.13 33.1202 Q1854.67 32.7556 1852.89 32.7556 Q1846.57 32.7556 1843.16 36.8875 Q1839.8 40.9789 1839.8 48.6757 L1839.8 72.576 L1832.31 72.576 L1832.31 27.2059 L1839.8 27.2059 L1839.8 34.2544 Q1842.15 30.1225 1845.92 28.1376 Q1849.68 26.1121 1855.07 26.1121 Q1855.84 26.1121 1856.77 26.2337 Q1857.71 26.3147 1858.84 26.5172 L1858.88 34.1734 Z" fill="#000000" fill-rule="nonzero" fill-opacity="1" /><path clip-path="url(#clip100)" d="M1887.32 49.7694 Q1878.28 49.7694 1874.8 51.8354 Q1871.32 53.9013 1871.32 58.8839 Q1871.32 62.8538 1873.91 65.2034 Q1876.54 67.5124 1881.04 67.5124 Q1887.24 67.5124 1890.96 63.1374 Q1894.73 58.7219 1894.73 51.4303 L1894.73 49.7694 L1887.32 49.7694 M1902.18 46.6907 L1902.18 72.576 L1894.73 72.576 L1894.73 65.6895 Q1892.18 69.8214 1888.37 71.8063 Q1884.56 73.7508 1879.05 73.7508 Q1872.09 73.7508 1867.95 69.8619 Q1863.86 65.9325 1863.86 59.3701 Q1863.86 51.7138 1868.97 47.825 Q1874.11 43.9361 1884.28 43.9361 L1894.73 43.9361 L1894.73 43.2069 Q1894.73 38.0623 1891.33 35.2672 Q1887.97 32.4315 1881.85 32.4315 Q1877.96 32.4315 1874.27 33.3632 Q1870.59 34.295 1867.18 36.1584 L1867.18 29.2718 Q1871.28 27.692 1875.12 26.9223 Q1878.97 26.1121 1882.62 26.1121 Q1892.46 26.1121 1897.32 31.2163 Q1902.18 36.3204 1902.18 46.6907 Z" fill="#000000" fill-rule="nonzero" fill-opacity="1" /><path clip-path="url(#clip100)" d="M1924.91 14.324 L1924.91 27.2059 L1940.26 27.2059 L1940.26 32.9987 L1924.91 32.9987 L1924.91 57.6282 Q1924.91 63.1779 1926.41 64.7578 Q1927.95 66.3376 1932.61 66.3376 L1940.26 66.3376 L1940.26 72.576 L1932.61 72.576 Q1923.98 72.576 1920.7 69.3758 Q1917.42 66.1351 1917.42 57.6282 L1917.42 32.9987 L1911.95 32.9987 L1911.95 27.2059 L1917.42 27.2059 L1917.42 14.324 L1924.91 14.324 Z" fill="#000000" fill-rule="nonzero" fill-opacity="1" /><path clip-path="url(#clip100)" d="M1950.07 27.2059 L1957.52 27.2059 L1957.52 72.576 L1950.07 72.576 L1950.07 27.2059 M1950.07 9.54393 L1957.52 9.54393 L1957.52 18.9825 L1950.07 18.9825 L1950.07 9.54393 Z" fill="#000000" fill-rule="nonzero" fill-opacity="1" /><path clip-path="url(#clip100)" d="M1990.7 32.4315 Q1984.7 32.4315 1981.22 37.1306 Q1977.73 41.7891 1977.73 49.9314 Q1977.73 58.0738 1981.18 62.7728 Q1984.66 67.4314 1990.7 67.4314 Q1996.65 67.4314 2000.14 62.7323 Q2003.62 58.0333 2003.62 49.9314 Q2003.62 41.8701 2000.14 37.1711 Q1996.65 32.4315 1990.7 32.4315 M1990.7 26.1121 Q2000.42 26.1121 2005.97 32.4315 Q2011.52 38.7509 2011.52 49.9314 Q2011.52 61.0714 2005.97 67.4314 Q2000.42 73.7508 1990.7 73.7508 Q1980.93 73.7508 1975.38 67.4314 Q1969.88 61.0714 1969.88 49.9314 Q1969.88 38.7509 1975.38 32.4315 Q1980.93 26.1121 1990.7 26.1121 Z" fill="#000000" fill-rule="nonzero" fill-opacity="1" /><path clip-path="url(#clip100)" d="M2061.59 45.1919 L2061.59 72.576 L2054.13 72.576 L2054.13 45.4349 Q2054.13 38.994 2051.62 35.7938 Q2049.11 32.5936 2044.09 32.5936 Q2038.05 32.5936 2034.57 36.4419 Q2031.08 40.2903 2031.08 46.9338 L2031.08 72.576 L2023.59 72.576 L2023.59 27.2059 L2031.08 27.2059 L2031.08 34.2544 Q2033.76 30.163 2037.36 28.1376 Q2041.01 26.1121 2045.75 26.1121 Q2053.57 26.1121 2057.58 30.9732 Q2061.59 35.7938 2061.59 45.1919 Z" fill="#000000" fill-rule="nonzero" fill-opacity="1" /><path clip-path="url(#clip100)" d="M2121.38 43.8551 Q2115.55 43.8551 2112.18 46.9743 Q2108.86 50.0935 2108.86 55.5622 Q2108.86 61.0309 2112.18 64.1501 Q2115.55 67.2693 2121.38 67.2693 Q2127.21 67.2693 2130.57 64.1501 Q2133.94 60.9904 2133.94 55.5622 Q2133.94 50.0935 2130.57 46.9743 Q2127.25 43.8551 2121.38 43.8551 M2113.2 40.3713 Q2107.93 39.075 2104.97 35.4697 Q2102.06 31.8644 2102.06 26.6793 Q2102.06 19.4281 2107.2 15.2152 Q2112.39 11.0023 2121.38 11.0023 Q2130.41 11.0023 2135.56 15.2152 Q2140.7 19.4281 2140.7 26.6793 Q2140.7 31.8644 2137.74 35.4697 Q2134.83 39.075 2129.6 40.3713 Q2135.52 41.7486 2138.8 45.759 Q2142.12 49.7694 2142.12 55.5622 Q2142.12 64.3527 2136.73 69.0517 Q2131.38 73.7508 2121.38 73.7508 Q2111.37 73.7508 2105.99 69.0517 Q2100.64 64.3527 2100.64 55.5622 Q2100.64 49.7694 2103.96 45.759 Q2107.28 41.7486 2113.2 40.3713 M2110.2 27.4489 Q2110.2 32.148 2113.12 34.7811 Q2116.07 37.4142 2121.38 37.4142 Q2126.65 37.4142 2129.6 34.7811 Q2132.6 32.148 2132.6 27.4489 Q2132.6 22.7499 2129.6 20.1168 Q2126.65 17.4837 2121.38 17.4837 Q2116.07 17.4837 2113.12 20.1168 Q2110.2 22.7499 2110.2 27.4489 Z" fill="#000000" fill-rule="nonzero" fill-opacity="1" /><path clip-path="url(#clip102)" d="M913.624 125.146 L913.624 1423.18 L1011.9 1423.18 L1011.9 125.146 L913.624 125.146 L913.624 125.146  Z" fill="#009af9" fill-rule="evenodd" fill-opacity="1"/>
<polyline clip-path="url(#clip102)" style="stroke:#000000; stroke-linecap:round; stroke-linejoin:round; stroke-width:4; stroke-opacity:1; fill:none" points="913.624,125.146 913.624,1423.18 1011.9,1423.18 1011.9,125.146 913.624,125.146 "/>
<path clip-path="url(#clip102)" d="M1773.57 175.83 L1773.57 1423.18 L1871.85 1423.18 L1871.85 175.83 L1773.57 175.83 L1773.57 175.83  Z" fill="#009af9" fill-rule="evenodd" fill-opacity="1"/>
<polyline clip-path="url(#clip102)" style="stroke:#000000; stroke-linecap:round; stroke-linejoin:round; stroke-width:4; stroke-opacity:1; fill:none" points="1773.57,175.83 1773.57,1423.18 1871.85,1423.18 1871.85,175.83 1773.57,175.83 "/>
<path clip-path="url(#clip102)" d="M1282.17 159.192 L1282.17 1423.18 L1380.45 1423.18 L1380.45 159.192 L1282.17 159.192 L1282.17 159.192  Z" fill="#009af9" fill-rule="evenodd" fill-opacity="1"/>
<polyline clip-path="url(#clip102)" style="stroke:#000000; stroke-linecap:round; stroke-linejoin:round; stroke-width:4; stroke-opacity:1; fill:none" points="1282.17,159.192 1282.17,1423.18 1380.45,1423.18 1380.45,159.192 1282.17,159.192 "/>
<path clip-path="url(#clip102)" d="M422.228 127.604 L422.228 1423.18 L520.508 1423.18 L520.508 127.604 L422.228 127.604 L422.228 127.604  Z" fill="#009af9" fill-rule="evenodd" fill-opacity="1"/>
<polyline clip-path="url(#clip102)" style="stroke:#000000; stroke-linecap:round; stroke-linejoin:round; stroke-width:4; stroke-opacity:1; fill:none" points="422.228,127.604 422.228,1423.18 520.508,1423.18 520.508,127.604 422.228,127.604 "/>
<path clip-path="url(#clip102)" d="M1036.47 167.837 L1036.47 1423.18 L1134.75 1423.18 L1134.75 167.837 L1036.47 167.837 L1036.47 167.837  Z" fill="#009af9" fill-rule="evenodd" fill-opacity="1"/>
<polyline clip-path="url(#clip102)" style="stroke:#000000; stroke-linecap:round; stroke-linejoin:round; stroke-width:4; stroke-opacity:1; fill:none" points="1036.47,167.837 1036.47,1423.18 1134.75,1423.18 1134.75,167.837 1036.47,167.837 "/>
<path clip-path="url(#clip102)" d="M1650.72 180.649 L1650.72 1423.18 L1749 1423.18 L1749 180.649 L1650.72 180.649 L1650.72 180.649  Z" fill="#009af9" fill-rule="evenodd" fill-opacity="1"/>
<polyline clip-path="url(#clip102)" style="stroke:#000000; stroke-linecap:round; stroke-linejoin:round; stroke-width:4; stroke-opacity:1; fill:none" points="1650.72,180.649 1650.72,1423.18 1749,1423.18 1749,180.649 1650.72,180.649 "/>
<path clip-path="url(#clip102)" d="M1405.02 177.877 L1405.02 1423.18 L1503.3 1423.18 L1503.3 177.877 L1405.02 177.877 L1405.02 177.877  Z" fill="#009af9" fill-rule="evenodd" fill-opacity="1"/>
<polyline clip-path="url(#clip102)" style="stroke:#000000; stroke-linecap:round; stroke-linejoin:round; stroke-width:4; stroke-opacity:1; fill:none" points="1405.02,177.877 1405.02,1423.18 1503.3,1423.18 1503.3,177.877 1405.02,177.877 "/>
<path clip-path="url(#clip102)" d="M2019.27 197.172 L2019.27 1423.18 L2117.54 1423.18 L2117.54 197.172 L2019.27 197.172 L2019.27 197.172  Z" fill="#009af9" fill-rule="evenodd" fill-opacity="1"/>
<polyline clip-path="url(#clip102)" style="stroke:#000000; stroke-linecap:round; stroke-linejoin:round; stroke-width:4; stroke-opacity:1; fill:none" points="2019.27,197.172 2019.27,1423.18 2117.54,1423.18 2117.54,197.172 2019.27,197.172 "/>
<path clip-path="url(#clip102)" d="M667.926 152.985 L667.926 1423.18 L766.206 1423.18 L766.206 152.985 L667.926 152.985 L667.926 152.985  Z" fill="#009af9" fill-rule="evenodd" fill-opacity="1"/>
<polyline clip-path="url(#clip102)" style="stroke:#000000; stroke-linecap:round; stroke-linejoin:round; stroke-width:4; stroke-opacity:1; fill:none" points="667.926,152.985 667.926,1423.18 766.206,1423.18 766.206,152.985 667.926,152.985 "/>
<path clip-path="url(#clip102)" d="M1159.32 162.319 L1159.32 1423.18 L1257.6 1423.18 L1257.6 162.319 L1159.32 162.319 L1159.32 162.319  Z" fill="#009af9" fill-rule="evenodd" fill-opacity="1"/>
<polyline clip-path="url(#clip102)" style="stroke:#000000; stroke-linecap:round; stroke-linejoin:round; stroke-width:4; stroke-opacity:1; fill:none" points="1159.32,162.319 1159.32,1423.18 1257.6,1423.18 1257.6,162.319 1159.32,162.319 "/>
<path clip-path="url(#clip102)" d="M790.775 123.472 L790.775 1423.18 L889.055 1423.18 L889.055 123.472 L790.775 123.472 L790.775 123.472  Z" fill="#009af9" fill-rule="evenodd" fill-opacity="1"/>
<polyline clip-path="url(#clip102)" style="stroke:#000000; stroke-linecap:round; stroke-linejoin:round; stroke-width:4; stroke-opacity:1; fill:none" points="790.775,123.472 790.775,1423.18 889.055,1423.18 889.055,123.472 790.775,123.472 "/>
<path clip-path="url(#clip102)" d="M1896.42 149.842 L1896.42 1423.18 L1994.7 1423.18 L1994.7 149.842 L1896.42 149.842 L1896.42 149.842  Z" fill="#009af9" fill-rule="evenodd" fill-opacity="1"/>
<polyline clip-path="url(#clip102)" style="stroke:#000000; stroke-linecap:round; stroke-linejoin:round; stroke-width:4; stroke-opacity:1; fill:none" points="1896.42,149.842 1896.42,1423.18 1994.7,1423.18 1994.7,149.842 1896.42,149.842 "/>
<path clip-path="url(#clip102)" d="M2142.11 175.774 L2142.11 1423.18 L2240.39 1423.18 L2240.39 175.774 L2142.11 175.774 L2142.11 175.774  Z" fill="#009af9" fill-rule="evenodd" fill-opacity="1"/>
<polyline clip-path="url(#clip102)" style="stroke:#000000; stroke-linecap:round; stroke-linejoin:round; stroke-width:4; stroke-opacity:1; fill:none" points="2142.11,175.774 2142.11,1423.18 2240.39,1423.18 2240.39,175.774 2142.11,175.774 "/>
<path clip-path="url(#clip102)" d="M545.077 188.143 L545.077 1423.18 L643.357 1423.18 L643.357 188.143 L545.077 188.143 L545.077 188.143  Z" fill="#009af9" fill-rule="evenodd" fill-opacity="1"/>
<polyline clip-path="url(#clip102)" style="stroke:#000000; stroke-linecap:round; stroke-linejoin:round; stroke-width:4; stroke-opacity:1; fill:none" points="545.077,188.143 545.077,1423.18 643.357,1423.18 643.357,188.143 545.077,188.143 "/>
<path clip-path="url(#clip102)" d="M1527.87 161.354 L1527.87 1423.18 L1626.15 1423.18 L1626.15 161.354 L1527.87 161.354 L1527.87 161.354  Z" fill="#009af9" fill-rule="evenodd" fill-opacity="1"/>
<polyline clip-path="url(#clip102)" style="stroke:#000000; stroke-linecap:round; stroke-linejoin:round; stroke-width:4; stroke-opacity:1; fill:none" points="1527.87,161.354 1527.87,1423.18 1626.15,1423.18 1626.15,161.354 1527.87,161.354 "/>
<circle clip-path="url(#clip102)" style="fill:#009af9; stroke:none; fill-opacity:0" cx="962.764" cy="125.146" r="2"/>
<circle clip-path="url(#clip102)" style="fill:#009af9; stroke:none; fill-opacity:0" cx="1822.71" cy="175.83" r="2"/>
<circle clip-path="url(#clip102)" style="fill:#009af9; stroke:none; fill-opacity:0" cx="1331.31" cy="159.192" r="2"/>
<circle clip-path="url(#clip102)" style="fill:#009af9; stroke:none; fill-opacity:0" cx="471.368" cy="127.604" r="2"/>
<circle clip-path="url(#clip102)" style="fill:#009af9; stroke:none; fill-opacity:0" cx="1085.61" cy="167.837" r="2"/>
<circle clip-path="url(#clip102)" style="fill:#009af9; stroke:none; fill-opacity:0" cx="1699.86" cy="180.649" r="2"/>
<circle clip-path="url(#clip102)" style="fill:#009af9; stroke:none; fill-opacity:0" cx="1454.16" cy="177.877" r="2"/>
<circle clip-path="url(#clip102)" style="fill:#009af9; stroke:none; fill-opacity:0" cx="2068.4" cy="197.172" r="2"/>
<circle clip-path="url(#clip102)" style="fill:#009af9; stroke:none; fill-opacity:0" cx="717.066" cy="152.985" r="2"/>
<circle clip-path="url(#clip102)" style="fill:#009af9; stroke:none; fill-opacity:0" cx="1208.46" cy="162.319" r="2"/>
<circle clip-path="url(#clip102)" style="fill:#009af9; stroke:none; fill-opacity:0" cx="839.915" cy="123.472" r="2"/>
<circle clip-path="url(#clip102)" style="fill:#009af9; stroke:none; fill-opacity:0" cx="1945.56" cy="149.842" r="2"/>
<circle clip-path="url(#clip102)" style="fill:#009af9; stroke:none; fill-opacity:0" cx="2191.25" cy="175.774" r="2"/>
<circle clip-path="url(#clip102)" style="fill:#009af9; stroke:none; fill-opacity:0" cx="594.217" cy="188.143" r="2"/>
<circle clip-path="url(#clip102)" style="fill:#009af9; stroke:none; fill-opacity:0" cx="1577.01" cy="161.354" r="2"/>
</svg>
