<?xml version="1.0" encoding="utf-8"?>
<svg xmlns="http://www.w3.org/2000/svg" xmlns:xlink="http://www.w3.org/1999/xlink" width="600" height="400" viewBox="0 0 2400 1600">
<defs>
  <clipPath id="clip500">
    <rect x="0" y="0" width="2400" height="1600"/>
  </clipPath>
</defs>
<path clip-path="url(#clip500)" d="M0 1600 L2400 1600 L2400 0 L0 0  Z" fill="#ffffff" fill-rule="evenodd" fill-opacity="1"/>
<defs>
  <clipPath id="clip501">
    <rect x="480" y="0" width="1681" height="1600"/>
  </clipPath>
</defs>
<path clip-path="url(#clip500)" d="M309.866 1423.18 L2352.76 1423.18 L2352.76 123.472 L309.866 123.472  Z" fill="#ffffff" fill-rule="evenodd" fill-opacity="1"/>
<defs>
  <clipPath id="clip502">
    <rect x="309" y="123" width="2044" height="1301"/>
  </clipPath>
</defs>
<polyline clip-path="url(#clip502)" style="stroke:#000000; stroke-linecap:round; stroke-linejoin:round; stroke-width:2; stroke-opacity:0.1; fill:none" points="348.519,1423.18 348.519,123.472 "/>
<polyline clip-path="url(#clip502)" style="stroke:#000000; stroke-linecap:round; stroke-linejoin:round; stroke-width:2; stroke-opacity:0.1; fill:none" points="962.764,1423.18 962.764,123.472 "/>
<polyline clip-path="url(#clip502)" style="stroke:#000000; stroke-linecap:round; stroke-linejoin:round; stroke-width:2; stroke-opacity:0.1; fill:none" points="1577.01,1423.18 1577.01,123.472 "/>
<polyline clip-path="url(#clip502)" style="stroke:#000000; stroke-linecap:round; stroke-linejoin:round; stroke-width:2; stroke-opacity:0.1; fill:none" points="2191.25,1423.18 2191.25,123.472 "/>
<polyline clip-path="url(#clip502)" style="stroke:#000000; stroke-linecap:round; stroke-linejoin:round; stroke-width:2; stroke-opacity:0.1; fill:none" points="309.866,1423.18 2352.76,1423.18 "/>
<polyline clip-path="url(#clip502)" style="stroke:#000000; stroke-linecap:round; stroke-linejoin:round; stroke-width:2; stroke-opacity:0.1; fill:none" points="309.866,1104.88 2352.76,1104.88 "/>
<polyline clip-path="url(#clip502)" style="stroke:#000000; stroke-linecap:round; stroke-linejoin:round; stroke-width:2; stroke-opacity:0.1; fill:none" points="309.866,786.573 2352.76,786.573 "/>
<polyline clip-path="url(#clip502)" style="stroke:#000000; stroke-linecap:round; stroke-linejoin:round; stroke-width:2; stroke-opacity:0.1; fill:none" points="309.866,468.269 2352.76,468.269 "/>
<polyline clip-path="url(#clip502)" style="stroke:#000000; stroke-linecap:round; stroke-linejoin:round; stroke-width:2; stroke-opacity:0.1; fill:none" points="309.866,149.966 2352.76,149.966 "/>
<polyline clip-path="url(#clip500)" style="stroke:#000000; stroke-linecap:round; stroke-linejoin:round; stroke-width:4; stroke-opacity:1; fill:none" points="309.866,1423.18 2352.76,1423.18 "/>
<polyline clip-path="url(#clip500)" style="stroke:#000000; stroke-linecap:round; stroke-linejoin:round; stroke-width:4; stroke-opacity:1; fill:none" points="348.519,1423.18 348.519,1404.28 "/>
<polyline clip-path="url(#clip500)" style="stroke:#000000; stroke-linecap:round; stroke-linejoin:round; stroke-width:4; stroke-opacity:1; fill:none" points="962.764,1423.18 962.764,1404.28 "/>
<polyline clip-path="url(#clip500)" style="stroke:#000000; stroke-linecap:round; stroke-linejoin:round; stroke-width:4; stroke-opacity:1; fill:none" points="1577.01,1423.18 1577.01,1404.28 "/>
<polyline clip-path="url(#clip500)" style="stroke:#000000; stroke-linecap:round; stroke-linejoin:round; stroke-width:4; stroke-opacity:1; fill:none" points="2191.25,1423.18 2191.25,1404.28 "/>
<path clip-path="url(#clip500)" d="M348.519 1454.1 Q344.908 1454.1 343.079 1457.66 Q341.274 1461.2 341.274 1468.33 Q341.274 1475.44 343.079 1479.01 Q344.908 1482.55 348.519 1482.55 Q352.153 1482.55 353.959 1479.01 Q355.787 1475.44 355.787 1468.33 Q355.787 1461.2 353.959 1457.66 Q352.153 1454.1 348.519 1454.1 M348.519 1450.39 Q354.329 1450.39 357.385 1455 Q360.463 1459.58 360.463 1468.33 Q360.463 1477.06 357.385 1481.67 Q354.329 1486.25 348.519 1486.25 Q342.709 1486.25 339.63 1481.67 Q336.575 1477.06 336.575 1468.33 Q336.575 1459.58 339.63 1455 Q342.709 1450.39 348.519 1450.39 Z" fill="#000000" fill-rule="nonzero" fill-opacity="1" /><path clip-path="url(#clip500)" d="M953.042 1451.02 L971.398 1451.02 L971.398 1454.96 L957.324 1454.96 L957.324 1463.43 Q958.343 1463.08 959.361 1462.92 Q960.38 1462.73 961.398 1462.73 Q967.185 1462.73 970.565 1465.9 Q973.944 1469.08 973.944 1474.49 Q973.944 1480.07 970.472 1483.17 Q967 1486.25 960.681 1486.25 Q958.505 1486.25 956.236 1485.88 Q953.991 1485.51 951.583 1484.77 L951.583 1480.07 Q953.667 1481.2 955.889 1481.76 Q958.111 1482.32 960.588 1482.32 Q964.593 1482.32 966.931 1480.21 Q969.268 1478.1 969.268 1474.49 Q969.268 1470.88 966.931 1468.77 Q964.593 1466.67 960.588 1466.67 Q958.713 1466.67 956.838 1467.08 Q954.986 1467.5 953.042 1468.38 L953.042 1451.02 Z" fill="#000000" fill-rule="nonzero" fill-opacity="1" /><path clip-path="url(#clip500)" d="M1551.7 1481.64 L1559.34 1481.64 L1559.34 1455.28 L1551.03 1456.95 L1551.03 1452.69 L1559.29 1451.02 L1563.96 1451.02 L1563.96 1481.64 L1571.6 1481.64 L1571.6 1485.58 L1551.7 1485.58 L1551.7 1481.64 Z" fill="#000000" fill-rule="nonzero" fill-opacity="1" /><path clip-path="url(#clip500)" d="M1591.05 1454.1 Q1587.44 1454.1 1585.61 1457.66 Q1583.8 1461.2 1583.8 1468.33 Q1583.8 1475.44 1585.61 1479.01 Q1587.44 1482.55 1591.05 1482.55 Q1594.68 1482.55 1596.49 1479.01 Q1598.32 1475.44 1598.32 1468.33 Q1598.32 1461.2 1596.49 1457.66 Q1594.68 1454.1 1591.05 1454.1 M1591.05 1450.39 Q1596.86 1450.39 1599.91 1455 Q1602.99 1459.58 1602.99 1468.33 Q1602.99 1477.06 1599.91 1481.67 Q1596.86 1486.25 1591.05 1486.25 Q1585.24 1486.25 1582.16 1481.67 Q1579.1 1477.06 1579.1 1468.33 Q1579.1 1459.58 1582.16 1455 Q1585.24 1450.39 1591.05 1450.39 Z" fill="#000000" fill-rule="nonzero" fill-opacity="1" /><path clip-path="url(#clip500)" d="M2166.44 1481.64 L2174.08 1481.64 L2174.08 1455.28 L2165.77 1456.95 L2165.77 1452.69 L2174.03 1451.02 L2178.71 1451.02 L2178.71 1481.64 L2186.35 1481.64 L2186.35 1485.58 L2166.44 1485.58 L2166.44 1481.64 Z" fill="#000000" fill-rule="nonzero" fill-opacity="1" /><path clip-path="url(#clip500)" d="M2195.84 1451.02 L2214.19 1451.02 L2214.19 1454.96 L2200.12 1454.96 L2200.12 1463.43 Q2201.14 1463.08 2202.16 1462.92 Q2203.17 1462.73 2204.19 1462.73 Q2209.98 1462.73 2213.36 1465.9 Q2216.74 1469.08 2216.74 1474.49 Q2216.74 1480.07 2213.27 1483.17 Q2209.8 1486.25 2203.48 1486.25 Q2201.3 1486.25 2199.03 1485.88 Q2196.79 1485.51 2194.38 1484.77 L2194.38 1480.07 Q2196.46 1481.2 2198.68 1481.76 Q2200.91 1482.32 2203.38 1482.32 Q2207.39 1482.32 2209.73 1480.21 Q2212.06 1478.1 2212.06 1474.49 Q2212.06 1470.88 2209.73 1468.77 Q2207.39 1466.67 2203.38 1466.67 Q2201.51 1466.67 2199.63 1467.08 Q2197.78 1467.5 2195.84 1468.38 L2195.84 1451.02 Z" fill="#000000" fill-rule="nonzero" fill-opacity="1" /><path clip-path="url(#clip500)" d="M1213.18 1520.52 L1219.61 1520.52 L1219.61 1562.63 L1242.75 1562.63 L1242.75 1568.04 L1213.18 1568.04 L1213.18 1520.52 Z" fill="#000000" fill-rule="nonzero" fill-opacity="1" /><path clip-path="url(#clip500)" d="M1261.91 1536.5 Q1257.2 1536.5 1254.46 1540.19 Q1251.72 1543.85 1251.72 1550.25 Q1251.72 1556.65 1254.43 1560.34 Q1257.17 1564 1261.91 1564 Q1266.59 1564 1269.32 1560.31 Q1272.06 1556.62 1272.06 1550.25 Q1272.06 1543.92 1269.32 1540.23 Q1266.59 1536.5 1261.91 1536.5 M1261.91 1531.54 Q1269.55 1531.54 1273.91 1536.5 Q1278.27 1541.47 1278.27 1550.25 Q1278.27 1559 1273.91 1564 Q1269.55 1568.97 1261.91 1568.97 Q1254.24 1568.97 1249.88 1564 Q1245.55 1559 1245.55 1550.25 Q1245.55 1541.47 1249.88 1536.5 Q1254.24 1531.54 1261.91 1531.54 Z" fill="#000000" fill-rule="nonzero" fill-opacity="1" /><path clip-path="url(#clip500)" d="M1304.18 1550.12 Q1297.08 1550.12 1294.34 1551.75 Q1291.6 1553.37 1291.6 1557.29 Q1291.6 1560.4 1293.64 1562.25 Q1295.71 1564.07 1299.24 1564.07 Q1304.11 1564.07 1307.04 1560.63 Q1310 1557.16 1310 1551.43 L1310 1550.12 L1304.18 1550.12 M1315.86 1547.71 L1315.86 1568.04 L1310 1568.04 L1310 1562.63 Q1308 1565.88 1305 1567.44 Q1302.01 1568.97 1297.68 1568.97 Q1292.21 1568.97 1288.96 1565.91 Q1285.75 1562.82 1285.75 1557.67 Q1285.75 1551.65 1289.76 1548.6 Q1293.8 1545.54 1301.79 1545.54 L1310 1545.54 L1310 1544.97 Q1310 1540.93 1307.33 1538.73 Q1304.69 1536.5 1299.88 1536.5 Q1296.82 1536.5 1293.93 1537.23 Q1291.03 1537.97 1288.36 1539.43 L1288.36 1534.02 Q1291.57 1532.78 1294.6 1532.17 Q1297.62 1531.54 1300.48 1531.54 Q1308.22 1531.54 1312.04 1535.55 Q1315.86 1539.56 1315.86 1547.71 Z" fill="#000000" fill-rule="nonzero" fill-opacity="1" /><path clip-path="url(#clip500)" d="M1351.38 1537.81 L1351.38 1518.52 L1357.24 1518.52 L1357.24 1568.04 L1351.38 1568.04 L1351.38 1562.7 Q1349.53 1565.88 1346.7 1567.44 Q1343.9 1568.97 1339.95 1568.97 Q1333.49 1568.97 1329.42 1563.81 Q1325.37 1558.65 1325.37 1550.25 Q1325.37 1541.85 1329.42 1536.69 Q1333.49 1531.54 1339.95 1531.54 Q1343.9 1531.54 1346.7 1533.1 Q1349.53 1534.62 1351.38 1537.81 M1331.42 1550.25 Q1331.42 1556.71 1334.06 1560.4 Q1336.74 1564.07 1341.38 1564.07 Q1346.03 1564.07 1348.71 1560.4 Q1351.38 1556.71 1351.38 1550.25 Q1351.38 1543.79 1348.71 1540.13 Q1346.03 1536.44 1341.38 1536.44 Q1336.74 1536.44 1334.06 1540.13 Q1331.42 1543.79 1331.42 1550.25 Z" fill="#000000" fill-rule="nonzero" fill-opacity="1" /><path clip-path="url(#clip500)" d="M1390.27 1520.52 L1396.7 1520.52 L1396.7 1568.04 L1390.27 1568.04 L1390.27 1520.52 Z" fill="#000000" fill-rule="nonzero" fill-opacity="1" /><path clip-path="url(#clip500)" d="M1415.93 1525.81 L1415.93 1562.76 L1423.69 1562.76 Q1433.53 1562.76 1438.08 1558.3 Q1442.66 1553.85 1442.66 1544.24 Q1442.66 1534.69 1438.08 1530.26 Q1433.53 1525.81 1423.69 1525.81 L1415.93 1525.81 M1409.5 1520.52 L1422.71 1520.52 Q1436.52 1520.52 1442.98 1526.28 Q1449.44 1532.01 1449.44 1544.24 Q1449.44 1556.52 1442.95 1562.28 Q1436.46 1568.04 1422.71 1568.04 L1409.5 1568.04 L1409.5 1520.52 Z" fill="#000000" fill-rule="nonzero" fill-opacity="1" /><polyline clip-path="url(#clip500)" style="stroke:#000000; stroke-linecap:round; stroke-linejoin:round; stroke-width:4; stroke-opacity:1; fill:none" points="309.866,1423.18 309.866,123.472 "/>
<polyline clip-path="url(#clip500)" style="stroke:#000000; stroke-linecap:round; stroke-linejoin:round; stroke-width:4; stroke-opacity:1; fill:none" points="309.866,1423.18 328.763,1423.18 "/>
<polyline clip-path="url(#clip500)" style="stroke:#000000; stroke-linecap:round; stroke-linejoin:round; stroke-width:4; stroke-opacity:1; fill:none" points="309.866,1104.88 328.763,1104.88 "/>
<polyline clip-path="url(#clip500)" style="stroke:#000000; stroke-linecap:round; stroke-linejoin:round; stroke-width:4; stroke-opacity:1; fill:none" points="309.866,786.573 328.763,786.573 "/>
<polyline clip-path="url(#clip500)" style="stroke:#000000; stroke-linecap:round; stroke-linejoin:round; stroke-width:4; stroke-opacity:1; fill:none" points="309.866,468.269 328.763,468.269 "/>
<polyline clip-path="url(#clip500)" style="stroke:#000000; stroke-linecap:round; stroke-linejoin:round; stroke-width:4; stroke-opacity:1; fill:none" points="309.866,149.966 328.763,149.966 "/>
<path clip-path="url(#clip500)" d="M126.205 1408.98 Q122.593 1408.98 120.765 1412.54 Q118.959 1416.08 118.959 1423.21 Q118.959 1430.32 120.765 1433.89 Q122.593 1437.43 126.205 1437.43 Q129.839 1437.43 131.644 1433.89 Q133.473 1430.32 133.473 1423.21 Q133.473 1416.08 131.644 1412.54 Q129.839 1408.98 126.205 1408.98 M126.205 1405.27 Q132.015 1405.27 135.07 1409.88 Q138.149 1414.46 138.149 1423.21 Q138.149 1431.94 135.07 1436.55 Q132.015 1441.13 126.205 1441.13 Q120.394 1441.13 117.316 1436.55 Q114.26 1431.94 114.26 1423.21 Q114.26 1414.46 117.316 1409.88 Q120.394 1405.27 126.205 1405.27 Z" fill="#000000" fill-rule="nonzero" fill-opacity="1" /><path clip-path="url(#clip500)" d="M146.366 1434.58 L151.251 1434.58 L151.251 1440.46 L146.366 1440.46 L146.366 1434.58 Z" fill="#000000" fill-rule="nonzero" fill-opacity="1" /><path clip-path="url(#clip500)" d="M171.436 1408.98 Q167.825 1408.98 165.996 1412.54 Q164.19 1416.08 164.19 1423.21 Q164.19 1430.32 165.996 1433.89 Q167.825 1437.43 171.436 1437.43 Q175.07 1437.43 176.876 1433.89 Q178.704 1430.32 178.704 1423.21 Q178.704 1416.08 176.876 1412.54 Q175.07 1408.98 171.436 1408.98 M171.436 1405.27 Q177.246 1405.27 180.301 1409.88 Q183.38 1414.46 183.38 1423.21 Q183.38 1431.94 180.301 1436.55 Q177.246 1441.13 171.436 1441.13 Q165.626 1441.13 162.547 1436.55 Q159.491 1431.94 159.491 1423.21 Q159.491 1414.46 162.547 1409.88 Q165.626 1405.27 171.436 1405.27 Z" fill="#000000" fill-rule="nonzero" fill-opacity="1" /><path clip-path="url(#clip500)" d="M201.598 1408.98 Q197.987 1408.98 196.158 1412.54 Q194.352 1416.08 194.352 1423.21 Q194.352 1430.32 196.158 1433.89 Q197.987 1437.43 201.598 1437.43 Q205.232 1437.43 207.037 1433.89 Q208.866 1430.32 208.866 1423.21 Q208.866 1416.08 207.037 1412.54 Q205.232 1408.98 201.598 1408.98 M201.598 1405.27 Q207.408 1405.27 210.463 1409.88 Q213.542 1414.46 213.542 1423.21 Q213.542 1431.94 210.463 1436.55 Q207.408 1441.13 201.598 1441.13 Q195.787 1441.13 192.709 1436.55 Q189.653 1431.94 189.653 1423.21 Q189.653 1414.46 192.709 1409.88 Q195.787 1405.27 201.598 1405.27 Z" fill="#000000" fill-rule="nonzero" fill-opacity="1" /><path clip-path="url(#clip500)" d="M231.76 1408.98 Q228.148 1408.98 226.32 1412.54 Q224.514 1416.08 224.514 1423.21 Q224.514 1430.32 226.32 1433.89 Q228.148 1437.43 231.76 1437.43 Q235.394 1437.43 237.199 1433.89 Q239.028 1430.32 239.028 1423.21 Q239.028 1416.08 237.199 1412.54 Q235.394 1408.98 231.76 1408.98 M231.76 1405.27 Q237.57 1405.27 240.625 1409.88 Q243.704 1414.46 243.704 1423.21 Q243.704 1431.94 240.625 1436.55 Q237.57 1441.13 231.76 1441.13 Q225.949 1441.13 222.871 1436.55 Q219.815 1431.94 219.815 1423.21 Q219.815 1414.46 222.871 1409.88 Q225.949 1405.27 231.76 1405.27 Z" fill="#000000" fill-rule="nonzero" fill-opacity="1" /><path clip-path="url(#clip500)" d="M261.921 1408.98 Q258.31 1408.98 256.482 1412.54 Q254.676 1416.08 254.676 1423.21 Q254.676 1430.32 256.482 1433.89 Q258.31 1437.43 261.921 1437.43 Q265.556 1437.43 267.361 1433.89 Q269.19 1430.32 269.19 1423.21 Q269.19 1416.08 267.361 1412.54 Q265.556 1408.98 261.921 1408.98 M261.921 1405.27 Q267.732 1405.27 270.787 1409.88 Q273.866 1414.46 273.866 1423.21 Q273.866 1431.94 270.787 1436.55 Q267.732 1441.13 261.921 1441.13 Q256.111 1441.13 253.033 1436.55 Q249.977 1431.94 249.977 1423.21 Q249.977 1414.46 253.033 1409.88 Q256.111 1405.27 261.921 1405.27 Z" fill="#000000" fill-rule="nonzero" fill-opacity="1" /><path clip-path="url(#clip500)" d="M127.2 1090.68 Q123.589 1090.68 121.76 1094.24 Q119.955 1097.78 119.955 1104.91 Q119.955 1112.02 121.76 1115.58 Q123.589 1119.12 127.2 1119.12 Q130.834 1119.12 132.64 1115.58 Q134.468 1112.02 134.468 1104.91 Q134.468 1097.78 132.64 1094.24 Q130.834 1090.68 127.2 1090.68 M127.2 1086.97 Q133.01 1086.97 136.066 1091.58 Q139.144 1096.16 139.144 1104.91 Q139.144 1113.64 136.066 1118.24 Q133.01 1122.83 127.2 1122.83 Q121.39 1122.83 118.311 1118.24 Q115.256 1113.64 115.256 1104.91 Q115.256 1096.16 118.311 1091.58 Q121.39 1086.97 127.2 1086.97 Z" fill="#000000" fill-rule="nonzero" fill-opacity="1" /><path clip-path="url(#clip500)" d="M147.362 1116.28 L152.246 1116.28 L152.246 1122.16 L147.362 1122.16 L147.362 1116.28 Z" fill="#000000" fill-rule="nonzero" fill-opacity="1" /><path clip-path="url(#clip500)" d="M172.431 1090.68 Q168.82 1090.68 166.991 1094.24 Q165.186 1097.78 165.186 1104.91 Q165.186 1112.02 166.991 1115.58 Q168.82 1119.12 172.431 1119.12 Q176.065 1119.12 177.871 1115.58 Q179.7 1112.02 179.7 1104.91 Q179.7 1097.78 177.871 1094.24 Q176.065 1090.68 172.431 1090.68 M172.431 1086.97 Q178.241 1086.97 181.297 1091.58 Q184.376 1096.16 184.376 1104.91 Q184.376 1113.64 181.297 1118.24 Q178.241 1122.83 172.431 1122.83 Q166.621 1122.83 163.542 1118.24 Q160.487 1113.64 160.487 1104.91 Q160.487 1096.16 163.542 1091.58 Q166.621 1086.97 172.431 1086.97 Z" fill="#000000" fill-rule="nonzero" fill-opacity="1" /><path clip-path="url(#clip500)" d="M202.593 1090.68 Q198.982 1090.68 197.153 1094.24 Q195.348 1097.78 195.348 1104.91 Q195.348 1112.02 197.153 1115.58 Q198.982 1119.12 202.593 1119.12 Q206.227 1119.12 208.033 1115.58 Q209.861 1112.02 209.861 1104.91 Q209.861 1097.78 208.033 1094.24 Q206.227 1090.68 202.593 1090.68 M202.593 1086.97 Q208.403 1086.97 211.459 1091.58 Q214.537 1096.16 214.537 1104.91 Q214.537 1113.64 211.459 1118.24 Q208.403 1122.83 202.593 1122.83 Q196.783 1122.83 193.704 1118.24 Q190.649 1113.64 190.649 1104.91 Q190.649 1096.16 193.704 1091.58 Q196.783 1086.97 202.593 1086.97 Z" fill="#000000" fill-rule="nonzero" fill-opacity="1" /><path clip-path="url(#clip500)" d="M226.783 1118.22 L243.102 1118.22 L243.102 1122.16 L221.158 1122.16 L221.158 1118.22 Q223.82 1115.47 228.403 1110.84 Q233.01 1106.18 234.19 1104.84 Q236.435 1102.32 237.315 1100.58 Q238.218 1098.82 238.218 1097.13 Q238.218 1094.38 236.273 1092.64 Q234.352 1090.91 231.25 1090.91 Q229.051 1090.91 226.598 1091.67 Q224.167 1092.43 221.389 1093.99 L221.389 1089.26 Q224.213 1088.13 226.667 1087.55 Q229.121 1086.97 231.158 1086.97 Q236.528 1086.97 239.722 1089.66 Q242.917 1092.34 242.917 1096.83 Q242.917 1098.96 242.107 1100.88 Q241.32 1102.78 239.213 1105.37 Q238.634 1106.05 235.533 1109.26 Q232.431 1112.46 226.783 1118.22 Z" fill="#000000" fill-rule="nonzero" fill-opacity="1" /><path clip-path="url(#clip500)" d="M252.963 1087.6 L271.32 1087.6 L271.32 1091.53 L257.246 1091.53 L257.246 1100 Q258.264 1099.66 259.283 1099.49 Q260.301 1099.31 261.32 1099.31 Q267.107 1099.31 270.486 1102.48 Q273.866 1105.65 273.866 1111.07 Q273.866 1116.65 270.394 1119.75 Q266.921 1122.83 260.602 1122.83 Q258.426 1122.83 256.158 1122.46 Q253.912 1122.09 251.505 1121.35 L251.505 1116.65 Q253.588 1117.78 255.81 1118.34 Q258.033 1118.89 260.509 1118.89 Q264.514 1118.89 266.852 1116.79 Q269.19 1114.68 269.19 1111.07 Q269.19 1107.46 266.852 1105.35 Q264.514 1103.24 260.509 1103.24 Q258.634 1103.24 256.759 1103.66 Q254.908 1104.08 252.963 1104.96 L252.963 1087.6 Z" fill="#000000" fill-rule="nonzero" fill-opacity="1" /><path clip-path="url(#clip500)" d="M126.205 772.371 Q122.593 772.371 120.765 775.936 Q118.959 779.478 118.959 786.608 Q118.959 793.714 120.765 797.279 Q122.593 800.82 126.205 800.82 Q129.839 800.82 131.644 797.279 Q133.473 793.714 133.473 786.608 Q133.473 779.478 131.644 775.936 Q129.839 772.371 126.205 772.371 M126.205 768.668 Q132.015 768.668 135.07 773.274 Q138.149 777.858 138.149 786.608 Q138.149 795.334 135.07 799.941 Q132.015 804.524 126.205 804.524 Q120.394 804.524 117.316 799.941 Q114.26 795.334 114.26 786.608 Q114.26 777.858 117.316 773.274 Q120.394 768.668 126.205 768.668 Z" fill="#000000" fill-rule="nonzero" fill-opacity="1" /><path clip-path="url(#clip500)" d="M146.366 797.973 L151.251 797.973 L151.251 803.853 L146.366 803.853 L146.366 797.973 Z" fill="#000000" fill-rule="nonzero" fill-opacity="1" /><path clip-path="url(#clip500)" d="M171.436 772.371 Q167.825 772.371 165.996 775.936 Q164.19 779.478 164.19 786.608 Q164.19 793.714 165.996 797.279 Q167.825 800.82 171.436 800.82 Q175.07 800.82 176.876 797.279 Q178.704 793.714 178.704 786.608 Q178.704 779.478 176.876 775.936 Q175.07 772.371 171.436 772.371 M171.436 768.668 Q177.246 768.668 180.301 773.274 Q183.38 777.858 183.38 786.608 Q183.38 795.334 180.301 799.941 Q177.246 804.524 171.436 804.524 Q165.626 804.524 162.547 799.941 Q159.491 795.334 159.491 786.608 Q159.491 777.858 162.547 773.274 Q165.626 768.668 171.436 768.668 Z" fill="#000000" fill-rule="nonzero" fill-opacity="1" /><path clip-path="url(#clip500)" d="M201.598 772.371 Q197.987 772.371 196.158 775.936 Q194.352 779.478 194.352 786.608 Q194.352 793.714 196.158 797.279 Q197.987 800.82 201.598 800.82 Q205.232 800.82 207.037 797.279 Q208.866 793.714 208.866 786.608 Q208.866 779.478 207.037 775.936 Q205.232 772.371 201.598 772.371 M201.598 768.668 Q207.408 768.668 210.463 773.274 Q213.542 777.858 213.542 786.608 Q213.542 795.334 210.463 799.941 Q207.408 804.524 201.598 804.524 Q195.787 804.524 192.709 799.941 Q189.653 795.334 189.653 786.608 Q189.653 777.858 192.709 773.274 Q195.787 768.668 201.598 768.668 Z" fill="#000000" fill-rule="nonzero" fill-opacity="1" /><path clip-path="url(#clip500)" d="M221.806 769.293 L240.162 769.293 L240.162 773.228 L226.088 773.228 L226.088 781.7 Q227.107 781.353 228.125 781.191 Q229.144 781.006 230.162 781.006 Q235.949 781.006 239.329 784.177 Q242.709 787.348 242.709 792.765 Q242.709 798.344 239.236 801.445 Q235.764 804.524 229.445 804.524 Q227.269 804.524 225 804.154 Q222.755 803.783 220.348 803.043 L220.348 798.344 Q222.431 799.478 224.653 800.033 Q226.875 800.589 229.352 800.589 Q233.357 800.589 235.695 798.482 Q238.033 796.376 238.033 792.765 Q238.033 789.154 235.695 787.047 Q233.357 784.941 229.352 784.941 Q227.477 784.941 225.602 785.358 Q223.75 785.774 221.806 786.654 L221.806 769.293 Z" fill="#000000" fill-rule="nonzero" fill-opacity="1" /><path clip-path="url(#clip500)" d="M261.921 772.371 Q258.31 772.371 256.482 775.936 Q254.676 779.478 254.676 786.608 Q254.676 793.714 256.482 797.279 Q258.31 800.82 261.921 800.82 Q265.556 800.82 267.361 797.279 Q269.19 793.714 269.19 786.608 Q269.19 779.478 267.361 775.936 Q265.556 772.371 261.921 772.371 M261.921 768.668 Q267.732 768.668 270.787 773.274 Q273.866 777.858 273.866 786.608 Q273.866 795.334 270.787 799.941 Q267.732 804.524 261.921 804.524 Q256.111 804.524 253.033 799.941 Q249.977 795.334 249.977 786.608 Q249.977 777.858 253.033 773.274 Q256.111 768.668 261.921 768.668 Z" fill="#000000" fill-rule="nonzero" fill-opacity="1" /><path clip-path="url(#clip500)" d="M127.2 454.068 Q123.589 454.068 121.76 457.633 Q119.955 461.174 119.955 468.304 Q119.955 475.41 121.76 478.975 Q123.589 482.517 127.2 482.517 Q130.834 482.517 132.64 478.975 Q134.468 475.41 134.468 468.304 Q134.468 461.174 132.64 457.633 Q130.834 454.068 127.2 454.068 M127.2 450.364 Q133.01 450.364 136.066 454.971 Q139.144 459.554 139.144 468.304 Q139.144 477.031 136.066 481.637 Q133.01 486.221 127.2 486.221 Q121.39 486.221 118.311 481.637 Q115.256 477.031 115.256 468.304 Q115.256 459.554 118.311 454.971 Q121.39 450.364 127.2 450.364 Z" fill="#000000" fill-rule="nonzero" fill-opacity="1" /><path clip-path="url(#clip500)" d="M147.362 479.67 L152.246 479.67 L152.246 485.549 L147.362 485.549 L147.362 479.67 Z" fill="#000000" fill-rule="nonzero" fill-opacity="1" /><path clip-path="url(#clip500)" d="M172.431 454.068 Q168.82 454.068 166.991 457.633 Q165.186 461.174 165.186 468.304 Q165.186 475.41 166.991 478.975 Q168.82 482.517 172.431 482.517 Q176.065 482.517 177.871 478.975 Q179.7 475.41 179.7 468.304 Q179.7 461.174 177.871 457.633 Q176.065 454.068 172.431 454.068 M172.431 450.364 Q178.241 450.364 181.297 454.971 Q184.376 459.554 184.376 468.304 Q184.376 477.031 181.297 481.637 Q178.241 486.221 172.431 486.221 Q166.621 486.221 163.542 481.637 Q160.487 477.031 160.487 468.304 Q160.487 459.554 163.542 454.971 Q166.621 450.364 172.431 450.364 Z" fill="#000000" fill-rule="nonzero" fill-opacity="1" /><path clip-path="url(#clip500)" d="M202.593 454.068 Q198.982 454.068 197.153 457.633 Q195.348 461.174 195.348 468.304 Q195.348 475.41 197.153 478.975 Q198.982 482.517 202.593 482.517 Q206.227 482.517 208.033 478.975 Q209.861 475.41 209.861 468.304 Q209.861 461.174 208.033 457.633 Q206.227 454.068 202.593 454.068 M202.593 450.364 Q208.403 450.364 211.459 454.971 Q214.537 459.554 214.537 468.304 Q214.537 477.031 211.459 481.637 Q208.403 486.221 202.593 486.221 Q196.783 486.221 193.704 481.637 Q190.649 477.031 190.649 468.304 Q190.649 459.554 193.704 454.971 Q196.783 450.364 202.593 450.364 Z" fill="#000000" fill-rule="nonzero" fill-opacity="1" /><path clip-path="url(#clip500)" d="M221.574 450.989 L243.797 450.989 L243.797 452.98 L231.25 485.549 L226.366 485.549 L238.172 454.924 L221.574 454.924 L221.574 450.989 Z" fill="#000000" fill-rule="nonzero" fill-opacity="1" /><path clip-path="url(#clip500)" d="M252.963 450.989 L271.32 450.989 L271.32 454.924 L257.246 454.924 L257.246 463.397 Q258.264 463.049 259.283 462.887 Q260.301 462.702 261.32 462.702 Q267.107 462.702 270.486 465.873 Q273.866 469.045 273.866 474.461 Q273.866 480.04 270.394 483.142 Q266.921 486.221 260.602 486.221 Q258.426 486.221 256.158 485.85 Q253.912 485.48 251.505 484.739 L251.505 480.04 Q253.588 481.174 255.81 481.73 Q258.033 482.285 260.509 482.285 Q264.514 482.285 266.852 480.179 Q269.19 478.072 269.19 474.461 Q269.19 470.85 266.852 468.744 Q264.514 466.637 260.509 466.637 Q258.634 466.637 256.759 467.054 Q254.908 467.471 252.963 468.35 L252.963 450.989 Z" fill="#000000" fill-rule="nonzero" fill-opacity="1" /><path clip-path="url(#clip500)" d="M126.205 135.764 Q122.593 135.764 120.765 139.329 Q118.959 142.871 118.959 150 Q118.959 157.107 120.765 160.672 Q122.593 164.213 126.205 164.213 Q129.839 164.213 131.644 160.672 Q133.473 157.107 133.473 150 Q133.473 142.871 131.644 139.329 Q129.839 135.764 126.205 135.764 M126.205 132.061 Q132.015 132.061 135.07 136.667 Q138.149 141.251 138.149 150 Q138.149 158.727 135.07 163.334 Q132.015 167.917 126.205 167.917 Q120.394 167.917 117.316 163.334 Q114.26 158.727 114.26 150 Q114.26 141.251 117.316 136.667 Q120.394 132.061 126.205 132.061 Z" fill="#000000" fill-rule="nonzero" fill-opacity="1" /><path clip-path="url(#clip500)" d="M146.366 161.366 L151.251 161.366 L151.251 167.246 L146.366 167.246 L146.366 161.366 Z" fill="#000000" fill-rule="nonzero" fill-opacity="1" /><path clip-path="url(#clip500)" d="M171.436 135.764 Q167.825 135.764 165.996 139.329 Q164.19 142.871 164.19 150 Q164.19 157.107 165.996 160.672 Q167.825 164.213 171.436 164.213 Q175.07 164.213 176.876 160.672 Q178.704 157.107 178.704 150 Q178.704 142.871 176.876 139.329 Q175.07 135.764 171.436 135.764 M171.436 132.061 Q177.246 132.061 180.301 136.667 Q183.38 141.251 183.38 150 Q183.38 158.727 180.301 163.334 Q177.246 167.917 171.436 167.917 Q165.626 167.917 162.547 163.334 Q159.491 158.727 159.491 150 Q159.491 141.251 162.547 136.667 Q165.626 132.061 171.436 132.061 Z" fill="#000000" fill-rule="nonzero" fill-opacity="1" /><path clip-path="url(#clip500)" d="M192.408 163.311 L200.047 163.311 L200.047 136.945 L191.737 138.612 L191.737 134.352 L200 132.686 L204.676 132.686 L204.676 163.311 L212.315 163.311 L212.315 167.246 L192.408 167.246 L192.408 163.311 Z" fill="#000000" fill-rule="nonzero" fill-opacity="1" /><path clip-path="url(#clip500)" d="M231.76 135.764 Q228.148 135.764 226.32 139.329 Q224.514 142.871 224.514 150 Q224.514 157.107 226.32 160.672 Q228.148 164.213 231.76 164.213 Q235.394 164.213 237.199 160.672 Q239.028 157.107 239.028 150 Q239.028 142.871 237.199 139.329 Q235.394 135.764 231.76 135.764 M231.76 132.061 Q237.57 132.061 240.625 136.667 Q243.704 141.251 243.704 150 Q243.704 158.727 240.625 163.334 Q237.57 167.917 231.76 167.917 Q225.949 167.917 222.871 163.334 Q219.815 158.727 219.815 150 Q219.815 141.251 222.871 136.667 Q225.949 132.061 231.76 132.061 Z" fill="#000000" fill-rule="nonzero" fill-opacity="1" /><path clip-path="url(#clip500)" d="M261.921 135.764 Q258.31 135.764 256.482 139.329 Q254.676 142.871 254.676 150 Q254.676 157.107 256.482 160.672 Q258.31 164.213 261.921 164.213 Q265.556 164.213 267.361 160.672 Q269.19 157.107 269.19 150 Q269.19 142.871 267.361 139.329 Q265.556 135.764 261.921 135.764 M261.921 132.061 Q267.732 132.061 270.787 136.667 Q273.866 141.251 273.866 150 Q273.866 158.727 270.787 163.334 Q267.732 167.917 261.921 167.917 Q256.111 167.917 253.033 163.334 Q249.977 158.727 249.977 150 Q249.977 141.251 253.033 136.667 Q256.111 132.061 261.921 132.061 Z" fill="#000000" fill-rule="nonzero" fill-opacity="1" /><path clip-path="url(#clip500)" d="M16.4842 1039.99 L16.4842 1012.68 L21.895 1012.68 L21.895 1033.56 L35.8996 1033.56 L35.8996 1014.71 L41.3104 1014.71 L41.3104 1033.56 L64.0042 1033.56 L64.0042 1039.99 L16.4842 1039.99 Z" fill="#000000" fill-rule="nonzero" fill-opacity="1" /><path clip-path="url(#clip500)" d="M46.0847 992.529 Q46.0847 999.627 47.7079 1002.36 Q49.3312 1005.1 53.2461 1005.1 Q56.3653 1005.1 58.2114 1003.06 Q60.0256 1001 60.0256 997.463 Q60.0256 992.593 56.5881 989.665 Q53.1188 986.704 47.3897 986.704 L46.0847 986.704 L46.0847 992.529 M43.6657 980.848 L64.0042 980.848 L64.0042 986.704 L58.5933 986.704 Q61.8398 988.71 63.3994 991.702 Q64.9272 994.693 64.9272 999.022 Q64.9272 1004.5 61.8716 1007.74 Q58.7843 1010.96 53.6281 1010.96 Q47.6125 1010.96 44.5569 1006.95 Q41.5014 1002.91 41.5014 994.916 L41.5014 986.704 L40.9285 986.704 Q36.8862 986.704 34.6901 989.378 Q32.4621 992.02 32.4621 996.826 Q32.4621 999.881 33.1941 1002.78 Q33.9262 1005.67 35.3903 1008.35 L29.9795 1008.35 Q28.7381 1005.13 28.1334 1002.11 Q27.4968 999.086 27.4968 996.221 Q27.4968 988.487 31.5072 984.667 Q35.5176 980.848 43.6657 980.848 Z" fill="#000000" fill-rule="nonzero" fill-opacity="1" /><path clip-path="url(#clip500)" d="M28.3562 968.785 L28.3562 962.929 L64.0042 962.929 L64.0042 968.785 L28.3562 968.785 M14.479 968.785 L14.479 962.929 L21.895 962.929 L21.895 968.785 L14.479 968.785 Z" fill="#000000" fill-rule="nonzero" fill-opacity="1" /><path clip-path="url(#clip500)" d="M33.8307 930.018 Q33.2578 931.005 33.0032 932.182 Q32.7167 933.328 32.7167 934.728 Q32.7167 939.694 35.9632 942.367 Q39.1779 945.009 45.2253 945.009 L64.0042 945.009 L64.0042 950.897 L28.3562 950.897 L28.3562 945.009 L33.8944 945.009 Q30.6479 943.163 29.0883 940.203 Q27.4968 937.243 27.4968 933.01 Q27.4968 932.405 27.5923 931.673 Q27.656 930.941 27.8151 930.05 L33.8307 930.018 Z" fill="#000000" fill-rule="nonzero" fill-opacity="1" /><path clip-path="url(#clip500)" d="M16.4842 902.9 L16.4842 896.471 L58.5933 896.471 L58.5933 873.331 L64.0042 873.331 L64.0042 902.9 L16.4842 902.9 Z" fill="#000000" fill-rule="nonzero" fill-opacity="1" /><path clip-path="url(#clip500)" d="M32.4621 854.17 Q32.4621 858.881 36.1542 861.618 Q39.8145 864.356 46.212 864.356 Q52.6095 864.356 56.3017 861.65 Q59.9619 858.913 59.9619 854.17 Q59.9619 849.492 56.2698 846.754 Q52.5777 844.017 46.212 844.017 Q39.8781 844.017 36.186 846.754 Q32.4621 849.492 32.4621 854.17 M27.4968 854.17 Q27.4968 846.532 32.4621 842.171 Q37.4273 837.811 46.212 837.811 Q54.9649 837.811 59.9619 842.171 Q64.9272 846.532 64.9272 854.17 Q64.9272 861.841 59.9619 866.202 Q54.9649 870.53 46.212 870.53 Q37.4273 870.53 32.4621 866.202 Q27.4968 861.841 27.4968 854.17 Z" fill="#000000" fill-rule="nonzero" fill-opacity="1" /><path clip-path="url(#clip500)" d="M46.0847 811.902 Q46.0847 819 47.7079 821.737 Q49.3312 824.474 53.2461 824.474 Q56.3653 824.474 58.2114 822.437 Q60.0256 820.369 60.0256 816.836 Q60.0256 811.966 56.5881 809.038 Q53.1188 806.078 47.3897 806.078 L46.0847 806.078 L46.0847 811.902 M43.6657 800.221 L64.0042 800.221 L64.0042 806.078 L58.5933 806.078 Q61.8398 808.083 63.3994 811.075 Q64.9272 814.067 64.9272 818.395 Q64.9272 823.87 61.8716 827.116 Q58.7843 830.331 53.6281 830.331 Q47.6125 830.331 44.5569 826.32 Q41.5014 822.278 41.5014 814.289 L41.5014 806.078 L40.9285 806.078 Q36.8862 806.078 34.6901 808.751 Q32.4621 811.393 32.4621 816.199 Q32.4621 819.255 33.1941 822.151 Q33.9262 825.047 35.3903 827.721 L29.9795 827.721 Q28.7381 824.506 28.1334 821.483 Q27.4968 818.459 27.4968 815.594 Q27.4968 807.86 31.5072 804.041 Q35.5176 800.221 43.6657 800.221 Z" fill="#000000" fill-rule="nonzero" fill-opacity="1" /><path clip-path="url(#clip500)" d="M33.7671 764.7 L14.479 764.7 L14.479 758.844 L64.0042 758.844 L64.0042 764.7 L58.657 764.7 Q61.8398 766.547 63.3994 769.379 Q64.9272 772.18 64.9272 776.127 Q64.9272 782.588 59.771 786.662 Q54.6147 790.704 46.212 790.704 Q37.8093 790.704 32.6531 786.662 Q27.4968 782.588 27.4968 776.127 Q27.4968 772.18 29.0564 769.379 Q30.5842 766.547 33.7671 764.7 M46.212 784.657 Q52.6732 784.657 56.3653 782.015 Q60.0256 779.342 60.0256 774.695 Q60.0256 770.048 56.3653 767.374 Q52.6732 764.7 46.212 764.7 Q39.7508 764.7 36.0905 767.374 Q32.3984 770.048 32.3984 774.695 Q32.3984 779.342 36.0905 782.015 Q39.7508 784.657 46.212 784.657 Z" fill="#000000" fill-rule="nonzero" fill-opacity="1" /><path clip-path="url(#clip500)" d="M16.4842 730.039 L16.4842 723.546 L56.6518 713.552 L16.4842 703.59 L16.4842 696.365 L56.6518 686.37 L16.4842 676.408 L16.4842 669.883 L64.0042 681.819 L64.0042 689.903 L22.7544 699.929 L64.0042 710.051 L64.0042 718.135 L16.4842 730.039 Z" fill="#000000" fill-rule="nonzero" fill-opacity="1" /><path clip-path="url(#clip500)" d="M44.7161 634.936 L47.5806 634.936 L47.5806 661.862 Q53.6281 661.481 56.8109 658.234 Q59.9619 654.956 59.9619 649.131 Q59.9619 645.757 59.1344 642.606 Q58.3069 639.423 56.6518 636.304 L62.1899 636.304 Q63.5267 639.455 64.227 642.765 Q64.9272 646.076 64.9272 649.481 Q64.9272 658.011 59.9619 663.008 Q54.9967 667.974 46.5303 667.974 Q37.7774 667.974 32.6531 663.263 Q27.4968 658.52 27.4968 650.5 Q27.4968 643.306 32.1438 639.137 Q36.7589 634.936 44.7161 634.936 M42.9973 640.792 Q38.1912 640.856 35.3266 643.497 Q32.4621 646.107 32.4621 650.436 Q32.4621 655.338 35.2312 658.298 Q38.0002 661.226 43.0292 661.671 L42.9973 640.792 Z" fill="#000000" fill-rule="nonzero" fill-opacity="1" /><path clip-path="url(#clip500)" d="M28.3562 625.323 L28.3562 619.467 L64.0042 619.467 L64.0042 625.323 L28.3562 625.323 M14.479 625.323 L14.479 619.467 L21.895 619.467 L21.895 625.323 L14.479 625.323 Z" fill="#000000" fill-rule="nonzero" fill-opacity="1" /><path clip-path="url(#clip500)" d="M45.7664 583.755 Q39.4007 583.755 35.8996 586.397 Q32.3984 589.007 32.3984 593.749 Q32.3984 598.46 35.8996 601.102 Q39.4007 603.712 45.7664 603.712 Q52.1003 603.712 55.6014 601.102 Q59.1026 598.46 59.1026 593.749 Q59.1026 589.007 55.6014 586.397 Q52.1003 583.755 45.7664 583.755 M59.58 577.899 Q68.683 577.899 73.1071 581.941 Q77.5631 585.983 77.5631 594.322 Q77.5631 597.41 77.0857 600.147 Q76.6401 602.884 75.6852 605.462 L69.9879 605.462 Q71.3884 602.884 72.0568 600.37 Q72.7252 597.855 72.7252 595.245 Q72.7252 589.484 69.7015 586.62 Q66.7096 583.755 60.6303 583.755 L57.7339 583.755 Q60.885 585.569 62.4446 588.402 Q64.0042 591.235 64.0042 595.182 Q64.0042 601.738 59.0071 605.749 Q54.01 609.759 45.7664 609.759 Q37.491 609.759 32.4939 605.749 Q27.4968 601.738 27.4968 595.182 Q27.4968 591.235 29.0564 588.402 Q30.616 585.569 33.7671 583.755 L28.3562 583.755 L28.3562 577.899 L59.58 577.899 Z" fill="#000000" fill-rule="nonzero" fill-opacity="1" /><path clip-path="url(#clip500)" d="M42.4881 536.203 L64.0042 536.203 L64.0042 542.06 L42.679 542.06 Q37.6183 542.06 35.1038 544.033 Q32.5894 546.007 32.5894 549.953 Q32.5894 554.696 35.6131 557.433 Q38.6368 560.17 43.8567 560.17 L64.0042 560.17 L64.0042 566.059 L14.479 566.059 L14.479 560.17 L33.8944 560.17 Q30.6797 558.07 29.0883 555.237 Q27.4968 552.372 27.4968 548.648 Q27.4968 542.505 31.3163 539.354 Q35.1038 536.203 42.4881 536.203 Z" fill="#000000" fill-rule="nonzero" fill-opacity="1" /><path clip-path="url(#clip500)" d="M18.2347 518.73 L28.3562 518.73 L28.3562 506.667 L32.9077 506.667 L32.9077 518.73 L52.2594 518.73 Q56.6199 518.73 57.8613 517.552 Q59.1026 516.342 59.1026 512.682 L59.1026 506.667 L64.0042 506.667 L64.0042 512.682 Q64.0042 519.462 61.4897 522.04 Q58.9434 524.618 52.2594 524.618 L32.9077 524.618 L32.9077 528.915 L28.3562 528.915 L28.3562 524.618 L18.2347 524.618 L18.2347 518.73 Z" fill="#000000" fill-rule="nonzero" fill-opacity="1" /><path clip-path="url(#clip500)" d="M520.988 12.096 L555.745 12.096 L555.745 18.9825 L529.171 18.9825 L529.171 36.8065 L553.152 36.8065 L553.152 43.6931 L529.171 43.6931 L529.171 72.576 L520.988 72.576 L520.988 12.096 Z" fill="#000000" fill-rule="nonzero" fill-opacity="1" /><path clip-path="url(#clip500)" d="M581.387 49.7694 Q572.354 49.7694 568.87 51.8354 Q565.386 53.9013 565.386 58.8839 Q565.386 62.8538 567.979 65.2034 Q570.612 67.5124 575.108 67.5124 Q581.306 67.5124 585.033 63.1374 Q588.8 58.7219 588.8 51.4303 L588.8 49.7694 L581.387 49.7694 M596.254 46.6907 L596.254 72.576 L588.8 72.576 L588.8 65.6895 Q586.248 69.8214 582.44 71.8063 Q578.633 73.7508 573.123 73.7508 Q566.156 73.7508 562.024 69.8619 Q557.932 65.9325 557.932 59.3701 Q557.932 51.7138 563.037 47.825 Q568.181 43.9361 578.349 43.9361 L588.8 43.9361 L588.8 43.2069 Q588.8 38.0623 585.398 35.2672 Q582.035 32.4315 575.918 32.4315 Q572.03 32.4315 568.343 33.3632 Q564.657 34.295 561.254 36.1584 L561.254 29.2718 Q565.346 27.692 569.194 26.9223 Q573.042 26.1121 576.688 26.1121 Q586.532 26.1121 591.393 31.2163 Q596.254 36.3204 596.254 46.6907 Z" fill="#000000" fill-rule="nonzero" fill-opacity="1" /><path clip-path="url(#clip500)" d="M611.607 27.2059 L619.061 27.2059 L619.061 72.576 L611.607 72.576 L611.607 27.2059 M611.607 9.54393 L619.061 9.54393 L619.061 18.9825 L611.607 18.9825 L611.607 9.54393 Z" fill="#000000" fill-rule="nonzero" fill-opacity="1" /><path clip-path="url(#clip500)" d="M660.947 34.1734 Q659.691 33.4443 658.192 33.1202 Q656.734 32.7556 654.952 32.7556 Q648.632 32.7556 645.229 36.8875 Q641.867 40.9789 641.867 48.6757 L641.867 72.576 L634.373 72.576 L634.373 27.2059 L641.867 27.2059 L641.867 34.2544 Q644.217 30.1225 647.984 28.1376 Q651.751 26.1121 657.139 26.1121 Q657.909 26.1121 658.84 26.2337 Q659.772 26.3147 660.906 26.5172 L660.947 34.1734 Z" fill="#000000" fill-rule="nonzero" fill-opacity="1" /><path clip-path="url(#clip500)" d="M695.461 12.096 L703.643 12.096 L703.643 65.6895 L733.094 65.6895 L733.094 72.576 L695.461 72.576 L695.461 12.096 Z" fill="#000000" fill-rule="nonzero" fill-opacity="1" /><path clip-path="url(#clip500)" d="M757.48 32.4315 Q751.485 32.4315 748.001 37.1306 Q744.517 41.7891 744.517 49.9314 Q744.517 58.0738 747.96 62.7728 Q751.444 67.4314 757.48 67.4314 Q763.435 67.4314 766.919 62.7323 Q770.402 58.0333 770.402 49.9314 Q770.402 41.8701 766.919 37.1711 Q763.435 32.4315 757.48 32.4315 M757.48 26.1121 Q767.202 26.1121 772.752 32.4315 Q778.302 38.7509 778.302 49.9314 Q778.302 61.0714 772.752 67.4314 Q767.202 73.7508 757.48 73.7508 Q747.717 73.7508 742.168 67.4314 Q736.658 61.0714 736.658 49.9314 Q736.658 38.7509 742.168 32.4315 Q747.717 26.1121 757.48 26.1121 Z" fill="#000000" fill-rule="nonzero" fill-opacity="1" /><path clip-path="url(#clip500)" d="M811.276 49.7694 Q802.242 49.7694 798.759 51.8354 Q795.275 53.9013 795.275 58.8839 Q795.275 62.8538 797.868 65.2034 Q800.501 67.5124 804.997 67.5124 Q811.195 67.5124 814.922 63.1374 Q818.689 58.7219 818.689 51.4303 L818.689 49.7694 L811.276 49.7694 M826.143 46.6907 L826.143 72.576 L818.689 72.576 L818.689 65.6895 Q816.137 69.8214 812.329 71.8063 Q808.521 73.7508 803.012 73.7508 Q796.045 73.7508 791.913 69.8619 Q787.821 65.9325 787.821 59.3701 Q787.821 51.7138 792.925 47.825 Q798.07 43.9361 808.238 43.9361 L818.689 43.9361 L818.689 43.2069 Q818.689 38.0623 815.286 35.2672 Q811.924 32.4315 805.807 32.4315 Q801.918 32.4315 798.232 33.3632 Q794.546 34.295 791.143 36.1584 L791.143 29.2718 Q795.234 27.692 799.083 26.9223 Q802.931 26.1121 806.577 26.1121 Q816.421 26.1121 821.282 31.2163 Q826.143 36.3204 826.143 46.6907 Z" fill="#000000" fill-rule="nonzero" fill-opacity="1" /><path clip-path="url(#clip500)" d="M871.351 34.0924 L871.351 9.54393 L878.805 9.54393 L878.805 72.576 L871.351 72.576 L871.351 65.7705 Q869.001 69.8214 865.396 71.8063 Q861.831 73.7508 856.808 73.7508 Q848.585 73.7508 843.4 67.1883 Q838.255 60.6258 838.255 49.9314 Q838.255 39.2371 843.4 32.6746 Q848.585 26.1121 856.808 26.1121 Q861.831 26.1121 865.396 28.0971 Q869.001 30.0415 871.351 34.0924 M845.952 49.9314 Q845.952 58.1548 849.314 62.8538 Q852.717 67.5124 858.631 67.5124 Q864.545 67.5124 867.948 62.8538 Q871.351 58.1548 871.351 49.9314 Q871.351 41.7081 867.948 37.0496 Q864.545 32.3505 858.631 32.3505 Q852.717 32.3505 849.314 37.0496 Q845.952 41.7081 845.952 49.9314 Z" fill="#000000" fill-rule="nonzero" fill-opacity="1" /><path clip-path="url(#clip500)" d="M915.465 12.096 L923.729 12.096 L936.449 63.2184 L949.128 12.096 L958.324 12.096 L971.044 63.2184 L983.723 12.096 L992.027 12.096 L976.836 72.576 L966.547 72.576 L953.787 20.0763 L940.905 72.576 L930.616 72.576 L915.465 12.096 Z" fill="#000000" fill-rule="nonzero" fill-opacity="1" /><path clip-path="url(#clip500)" d="M1036.51 48.0275 L1036.51 51.6733 L1002.24 51.6733 Q1002.72 59.3701 1006.85 63.421 Q1011.03 67.4314 1018.44 67.4314 Q1022.73 67.4314 1026.74 66.3781 Q1030.79 65.3249 1034.76 63.2184 L1034.76 70.267 Q1030.75 71.9684 1026.54 72.8596 Q1022.33 73.7508 1017.99 73.7508 Q1007.14 73.7508 1000.78 67.4314 Q994.458 61.1119 994.458 50.3365 Q994.458 39.1965 1000.45 32.6746 Q1006.49 26.1121 1016.7 26.1121 Q1025.85 26.1121 1031.16 32.0264 Q1036.51 37.9003 1036.51 48.0275 M1029.05 45.84 Q1028.97 39.7232 1025.61 36.0774 Q1022.29 32.4315 1016.78 32.4315 Q1010.54 32.4315 1006.77 35.9558 Q1003.05 39.4801 1002.48 45.8805 L1029.05 45.84 Z" fill="#000000" fill-rule="nonzero" fill-opacity="1" /><path clip-path="url(#clip500)" d="M1048.74 27.2059 L1056.19 27.2059 L1056.19 72.576 L1048.74 72.576 L1048.74 27.2059 M1048.74 9.54393 L1056.19 9.54393 L1056.19 18.9825 L1048.74 18.9825 L1048.74 9.54393 Z" fill="#000000" fill-rule="nonzero" fill-opacity="1" /><path clip-path="url(#clip500)" d="M1101.64 49.3643 Q1101.64 41.2625 1098.28 36.8065 Q1094.96 32.3505 1088.92 32.3505 Q1082.93 32.3505 1079.57 36.8065 Q1076.25 41.2625 1076.25 49.3643 Q1076.25 57.4256 1079.57 61.8816 Q1082.93 66.3376 1088.92 66.3376 Q1094.96 66.3376 1098.28 61.8816 Q1101.64 57.4256 1101.64 49.3643 M1109.1 66.9452 Q1109.1 78.5308 1103.95 84.1616 Q1098.81 89.8329 1088.2 89.8329 Q1084.27 89.8329 1080.78 89.2252 Q1077.3 88.6581 1074.02 87.4428 L1074.02 80.1917 Q1077.3 81.9741 1080.5 82.8248 Q1083.7 83.6755 1087.02 83.6755 Q1094.35 83.6755 1098 79.8271 Q1101.64 76.0193 1101.64 68.282 L1101.64 64.5957 Q1099.34 68.6061 1095.73 70.5911 Q1092.13 72.576 1087.1 72.576 Q1078.76 72.576 1073.65 66.2161 Q1068.55 59.8562 1068.55 49.3643 Q1068.55 38.832 1073.65 32.472 Q1078.76 26.1121 1087.1 26.1121 Q1092.13 26.1121 1095.73 28.0971 Q1099.34 30.082 1101.64 34.0924 L1101.64 27.2059 L1109.1 27.2059 L1109.1 66.9452 Z" fill="#000000" fill-rule="nonzero" fill-opacity="1" /><path clip-path="url(#clip500)" d="M1162.17 45.1919 L1162.17 72.576 L1154.71 72.576 L1154.71 45.4349 Q1154.71 38.994 1152.2 35.7938 Q1149.69 32.5936 1144.67 32.5936 Q1138.63 32.5936 1135.15 36.4419 Q1131.66 40.2903 1131.66 46.9338 L1131.66 72.576 L1124.17 72.576 L1124.17 9.54393 L1131.66 9.54393 L1131.66 34.2544 Q1134.34 30.163 1137.94 28.1376 Q1141.59 26.1121 1146.33 26.1121 Q1154.14 26.1121 1158.15 30.9732 Q1162.17 35.7938 1162.17 45.1919 Z" fill="#000000" fill-rule="nonzero" fill-opacity="1" /><path clip-path="url(#clip500)" d="M1184.4 14.324 L1184.4 27.2059 L1199.76 27.2059 L1199.76 32.9987 L1184.4 32.9987 L1184.4 57.6282 Q1184.4 63.1779 1185.9 64.7578 Q1187.44 66.3376 1192.1 66.3376 L1199.76 66.3376 L1199.76 72.576 L1192.1 72.576 Q1183.47 72.576 1180.19 69.3758 Q1176.91 66.1351 1176.91 57.6282 L1176.91 32.9987 L1171.44 32.9987 L1171.44 27.2059 L1176.91 27.2059 L1176.91 14.324 L1184.4 14.324 Z" fill="#000000" fill-rule="nonzero" fill-opacity="1" /><path clip-path="url(#clip500)" d="M1238.48 28.5427 L1238.48 35.5912 Q1235.32 33.9709 1231.92 33.1607 Q1228.52 32.3505 1224.87 32.3505 Q1219.32 32.3505 1216.53 34.0519 Q1213.77 35.7533 1213.77 39.156 Q1213.77 41.7486 1215.76 43.2475 Q1217.74 44.7058 1223.74 46.0426 L1226.29 46.6097 Q1234.23 48.3111 1237.55 51.4303 Q1240.91 54.509 1240.91 60.0587 Q1240.91 66.3781 1235.89 70.0644 Q1230.91 73.7508 1222.16 73.7508 Q1218.51 73.7508 1214.54 73.0216 Q1210.61 72.3329 1206.24 70.9151 L1206.24 63.2184 Q1210.37 65.3654 1214.38 66.4591 Q1218.39 67.5124 1222.32 67.5124 Q1227.59 67.5124 1230.42 65.73 Q1233.26 63.9071 1233.26 60.6258 Q1233.26 57.5877 1231.19 55.9673 Q1229.17 54.3469 1222.24 52.8481 L1219.65 52.2405 Q1212.72 50.7821 1209.64 47.7845 Q1206.56 44.7463 1206.56 39.4801 Q1206.56 33.0797 1211.1 29.5959 Q1215.64 26.1121 1223.98 26.1121 Q1228.11 26.1121 1231.76 26.7198 Q1235.41 27.3274 1238.48 28.5427 Z" fill="#000000" fill-rule="nonzero" fill-opacity="1" /><path clip-path="url(#clip500)" d="M1286.37 65.7705 L1286.37 89.8329 L1278.87 89.8329 L1278.87 27.2059 L1286.37 27.2059 L1286.37 34.0924 Q1288.72 30.0415 1292.28 28.0971 Q1295.89 26.1121 1300.87 26.1121 Q1309.13 26.1121 1314.28 32.6746 Q1319.46 39.2371 1319.46 49.9314 Q1319.46 60.6258 1314.28 67.1883 Q1309.13 73.7508 1300.87 73.7508 Q1295.89 73.7508 1292.28 71.8063 Q1288.72 69.8214 1286.37 65.7705 M1311.72 49.9314 Q1311.72 41.7081 1308.32 37.0496 Q1304.96 32.3505 1299.05 32.3505 Q1293.13 32.3505 1289.73 37.0496 Q1286.37 41.7081 1286.37 49.9314 Q1286.37 58.1548 1289.73 62.8538 Q1293.13 67.5124 1299.05 67.5124 Q1304.96 67.5124 1308.32 62.8538 Q1311.72 58.1548 1311.72 49.9314 Z" fill="#000000" fill-rule="nonzero" fill-opacity="1" /><path clip-path="url(#clip500)" d="M1370.62 48.0275 L1370.62 51.6733 L1336.35 51.6733 Q1336.84 59.3701 1340.97 63.421 Q1345.14 67.4314 1352.56 67.4314 Q1356.85 67.4314 1360.86 66.3781 Q1364.91 65.3249 1368.88 63.2184 L1368.88 70.267 Q1364.87 71.9684 1360.66 72.8596 Q1356.45 73.7508 1352.11 73.7508 Q1341.26 73.7508 1334.9 67.4314 Q1328.58 61.1119 1328.58 50.3365 Q1328.58 39.1965 1334.57 32.6746 Q1340.61 26.1121 1350.82 26.1121 Q1359.97 26.1121 1365.28 32.0264 Q1370.62 37.9003 1370.62 48.0275 M1363.17 45.84 Q1363.09 39.7232 1359.73 36.0774 Q1356.41 32.4315 1350.9 32.4315 Q1344.66 32.4315 1340.89 35.9558 Q1337.16 39.4801 1336.6 45.8805 L1363.17 45.84 Z" fill="#000000" fill-rule="nonzero" fill-opacity="1" /><path clip-path="url(#clip500)" d="M1409.15 34.1734 Q1407.89 33.4443 1406.39 33.1202 Q1404.94 32.7556 1403.15 32.7556 Q1396.83 32.7556 1393.43 36.8875 Q1390.07 40.9789 1390.07 48.6757 L1390.07 72.576 L1382.58 72.576 L1382.58 27.2059 L1390.07 27.2059 L1390.07 34.2544 Q1392.42 30.1225 1396.19 28.1376 Q1399.95 26.1121 1405.34 26.1121 Q1406.11 26.1121 1407.04 26.2337 Q1407.97 26.3147 1409.11 26.5172 L1409.15 34.1734 Z" fill="#000000" fill-rule="nonzero" fill-opacity="1" /><path clip-path="url(#clip500)" d="M1443.66 12.096 L1451.85 12.096 L1451.85 65.6895 L1481.3 65.6895 L1481.3 72.576 L1443.66 72.576 L1443.66 12.096 Z" fill="#000000" fill-rule="nonzero" fill-opacity="1" /><path clip-path="url(#clip500)" d="M1505.68 32.4315 Q1499.69 32.4315 1496.2 37.1306 Q1492.72 41.7891 1492.72 49.9314 Q1492.72 58.0738 1496.16 62.7728 Q1499.65 67.4314 1505.68 67.4314 Q1511.64 67.4314 1515.12 62.7323 Q1518.6 58.0333 1518.6 49.9314 Q1518.6 41.8701 1515.12 37.1711 Q1511.64 32.4315 1505.68 32.4315 M1505.68 26.1121 Q1515.4 26.1121 1520.95 32.4315 Q1526.5 38.7509 1526.5 49.9314 Q1526.5 61.0714 1520.95 67.4314 Q1515.4 73.7508 1505.68 73.7508 Q1495.92 73.7508 1490.37 67.4314 Q1484.86 61.0714 1484.86 49.9314 Q1484.86 38.7509 1490.37 32.4315 Q1495.92 26.1121 1505.68 26.1121 Z" fill="#000000" fill-rule="nonzero" fill-opacity="1" /><path clip-path="url(#clip500)" d="M1559.48 49.7694 Q1550.44 49.7694 1546.96 51.8354 Q1543.48 53.9013 1543.48 58.8839 Q1543.48 62.8538 1546.07 65.2034 Q1548.7 67.5124 1553.2 67.5124 Q1559.4 67.5124 1563.12 63.1374 Q1566.89 58.7219 1566.89 51.4303 L1566.89 49.7694 L1559.48 49.7694 M1574.34 46.6907 L1574.34 72.576 L1566.89 72.576 L1566.89 65.6895 Q1564.34 69.8214 1560.53 71.8063 Q1556.72 73.7508 1551.21 73.7508 Q1544.25 73.7508 1540.11 69.8619 Q1536.02 65.9325 1536.02 59.3701 Q1536.02 51.7138 1541.13 47.825 Q1546.27 43.9361 1556.44 43.9361 L1566.89 43.9361 L1566.89 43.2069 Q1566.89 38.0623 1563.49 35.2672 Q1560.13 32.4315 1554.01 32.4315 Q1550.12 32.4315 1546.43 33.3632 Q1542.75 34.295 1539.35 36.1584 L1539.35 29.2718 Q1543.44 27.692 1547.28 26.9223 Q1551.13 26.1121 1554.78 26.1121 Q1564.62 26.1121 1569.48 31.2163 Q1574.34 36.3204 1574.34 46.6907 Z" fill="#000000" fill-rule="nonzero" fill-opacity="1" /><path clip-path="url(#clip500)" d="M1619.55 34.0924 L1619.55 9.54393 L1627.01 9.54393 L1627.01 72.576 L1619.55 72.576 L1619.55 65.7705 Q1617.2 69.8214 1613.6 71.8063 Q1610.03 73.7508 1605.01 73.7508 Q1596.79 73.7508 1591.6 67.1883 Q1586.46 60.6258 1586.46 49.9314 Q1586.46 39.2371 1591.6 32.6746 Q1596.79 26.1121 1605.01 26.1121 Q1610.03 26.1121 1613.6 28.0971 Q1617.2 30.0415 1619.55 34.0924 M1594.15 49.9314 Q1594.15 58.1548 1597.52 62.8538 Q1600.92 67.5124 1606.83 67.5124 Q1612.75 67.5124 1616.15 62.8538 Q1619.55 58.1548 1619.55 49.9314 Q1619.55 41.7081 1616.15 37.0496 Q1612.75 32.3505 1606.83 32.3505 Q1600.92 32.3505 1597.52 37.0496 Q1594.15 41.7081 1594.15 49.9314 Z" fill="#000000" fill-rule="nonzero" fill-opacity="1" /><path clip-path="url(#clip500)" d="M1664.96 46.5287 L1686.8 46.5287 L1686.8 53.1722 L1664.96 53.1722 L1664.96 46.5287 Z" fill="#000000" fill-rule="nonzero" fill-opacity="1" /><path clip-path="url(#clip500)" d="M1725.36 12.096 L1733.55 12.096 L1733.55 72.576 L1725.36 72.576 L1725.36 12.096 Z" fill="#000000" fill-rule="nonzero" fill-opacity="1" /><path clip-path="url(#clip500)" d="M1756.88 14.324 L1756.88 27.2059 L1772.23 27.2059 L1772.23 32.9987 L1756.88 32.9987 L1756.88 57.6282 Q1756.88 63.1779 1758.38 64.7578 Q1759.92 66.3376 1764.58 66.3376 L1772.23 66.3376 L1772.23 72.576 L1764.58 72.576 Q1755.95 72.576 1752.67 69.3758 Q1749.38 66.1351 1749.38 57.6282 L1749.38 32.9987 L1743.92 32.9987 L1743.92 27.2059 L1749.38 27.2059 L1749.38 14.324 L1756.88 14.324 Z" fill="#000000" fill-rule="nonzero" fill-opacity="1" /><path clip-path="url(#clip500)" d="M1820.84 48.0275 L1820.84 51.6733 L1786.57 51.6733 Q1787.06 59.3701 1791.19 63.421 Q1795.36 67.4314 1802.78 67.4314 Q1807.07 67.4314 1811.08 66.3781 Q1815.13 65.3249 1819.1 63.2184 L1819.1 70.267 Q1815.09 71.9684 1810.88 72.8596 Q1806.66 73.7508 1802.33 73.7508 Q1791.47 73.7508 1785.11 67.4314 Q1778.79 61.1119 1778.79 50.3365 Q1778.79 39.1965 1784.79 32.6746 Q1790.83 26.1121 1801.03 26.1121 Q1810.19 26.1121 1815.5 32.0264 Q1820.84 37.9003 1820.84 48.0275 M1813.39 45.84 Q1813.31 39.7232 1809.95 36.0774 Q1806.62 32.4315 1801.11 32.4315 Q1794.88 32.4315 1791.11 35.9558 Q1787.38 39.4801 1786.81 45.8805 L1813.39 45.84 Z" fill="#000000" fill-rule="nonzero" fill-opacity="1" /><path clip-path="url(#clip500)" d="M1859.37 34.1734 Q1858.11 33.4443 1856.61 33.1202 Q1855.15 32.7556 1853.37 32.7556 Q1847.05 32.7556 1843.65 36.8875 Q1840.29 40.9789 1840.29 48.6757 L1840.29 72.576 L1832.79 72.576 L1832.79 27.2059 L1840.29 27.2059 L1840.29 34.2544 Q1842.64 30.1225 1846.4 28.1376 Q1850.17 26.1121 1855.56 26.1121 Q1856.33 26.1121 1857.26 26.2337 Q1858.19 26.3147 1859.33 26.5172 L1859.37 34.1734 Z" fill="#000000" fill-rule="nonzero" fill-opacity="1" /><path clip-path="url(#clip500)" d="M1887.8 49.7694 Q1878.77 49.7694 1875.29 51.8354 Q1871.8 53.9013 1871.8 58.8839 Q1871.8 62.8538 1874.4 65.2034 Q1877.03 67.5124 1881.52 67.5124 Q1887.72 67.5124 1891.45 63.1374 Q1895.22 58.7219 1895.22 51.4303 L1895.22 49.7694 L1887.8 49.7694 M1902.67 46.6907 L1902.67 72.576 L1895.22 72.576 L1895.22 65.6895 Q1892.66 69.8214 1888.86 71.8063 Q1885.05 73.7508 1879.54 73.7508 Q1872.57 73.7508 1868.44 69.8619 Q1864.35 65.9325 1864.35 59.3701 Q1864.35 51.7138 1869.45 47.825 Q1874.6 43.9361 1884.77 43.9361 L1895.22 43.9361 L1895.22 43.2069 Q1895.22 38.0623 1891.81 35.2672 Q1888.45 32.4315 1882.34 32.4315 Q1878.45 32.4315 1874.76 33.3632 Q1871.07 34.295 1867.67 36.1584 L1867.67 29.2718 Q1871.76 27.692 1875.61 26.9223 Q1879.46 26.1121 1883.1 26.1121 Q1892.95 26.1121 1897.81 31.2163 Q1902.67 36.3204 1902.67 46.6907 Z" fill="#000000" fill-rule="nonzero" fill-opacity="1" /><path clip-path="url(#clip500)" d="M1925.4 14.324 L1925.4 27.2059 L1940.75 27.2059 L1940.75 32.9987 L1925.4 32.9987 L1925.4 57.6282 Q1925.4 63.1779 1926.9 64.7578 Q1928.43 66.3376 1933.09 66.3376 L1940.75 66.3376 L1940.75 72.576 L1933.09 72.576 Q1924.46 72.576 1921.18 69.3758 Q1917.9 66.1351 1917.9 57.6282 L1917.9 32.9987 L1912.43 32.9987 L1912.43 27.2059 L1917.9 27.2059 L1917.9 14.324 L1925.4 14.324 Z" fill="#000000" fill-rule="nonzero" fill-opacity="1" /><path clip-path="url(#clip500)" d="M1950.55 27.2059 L1958.01 27.2059 L1958.01 72.576 L1950.55 72.576 L1950.55 27.2059 M1950.55 9.54393 L1958.01 9.54393 L1958.01 18.9825 L1950.55 18.9825 L1950.55 9.54393 Z" fill="#000000" fill-rule="nonzero" fill-opacity="1" /><path clip-path="url(#clip500)" d="M1991.18 32.4315 Q1985.19 32.4315 1981.7 37.1306 Q1978.22 41.7891 1978.22 49.9314 Q1978.22 58.0738 1981.66 62.7728 Q1985.15 67.4314 1991.18 67.4314 Q1997.14 67.4314 2000.62 62.7323 Q2004.11 58.0333 2004.11 49.9314 Q2004.11 41.8701 2000.62 37.1711 Q1997.14 32.4315 1991.18 32.4315 M1991.18 26.1121 Q2000.91 26.1121 2006.45 32.4315 Q2012 38.7509 2012 49.9314 Q2012 61.0714 2006.45 67.4314 Q2000.91 73.7508 1991.18 73.7508 Q1981.42 73.7508 1975.87 67.4314 Q1970.36 61.0714 1970.36 49.9314 Q1970.36 38.7509 1975.87 32.4315 Q1981.42 26.1121 1991.18 26.1121 Z" fill="#000000" fill-rule="nonzero" fill-opacity="1" /><path clip-path="url(#clip500)" d="M2062.07 45.1919 L2062.07 72.576 L2054.62 72.576 L2054.62 45.4349 Q2054.62 38.994 2052.11 35.7938 Q2049.6 32.5936 2044.57 32.5936 Q2038.54 32.5936 2035.05 36.4419 Q2031.57 40.2903 2031.57 46.9338 L2031.57 72.576 L2024.08 72.576 L2024.08 27.2059 L2031.57 27.2059 L2031.57 34.2544 Q2034.24 30.163 2037.85 28.1376 Q2041.5 26.1121 2046.23 26.1121 Q2054.05 26.1121 2058.06 30.9732 Q2062.07 35.7938 2062.07 45.1919 Z" fill="#000000" fill-rule="nonzero" fill-opacity="1" /><path clip-path="url(#clip500)" d="M2129.16 39.9662 Q2135.03 41.222 2138.31 45.1919 Q2141.63 49.1618 2141.63 54.9951 Q2141.63 63.9476 2135.48 68.8492 Q2129.32 73.7508 2117.98 73.7508 Q2114.17 73.7508 2110.12 72.9811 Q2106.11 72.2519 2101.81 70.7531 L2101.81 62.8538 Q2105.22 64.8388 2109.27 65.8515 Q2113.32 66.8642 2117.73 66.8642 Q2125.43 66.8642 2129.44 63.826 Q2133.49 60.7879 2133.49 54.9951 Q2133.49 49.6479 2129.72 46.6502 Q2126 43.612 2119.31 43.612 L2112.26 43.612 L2112.26 36.8875 L2119.64 36.8875 Q2125.67 36.8875 2128.87 34.4975 Q2132.07 32.067 2132.07 27.5299 Q2132.07 22.8714 2128.75 20.4004 Q2125.47 17.8888 2119.31 17.8888 Q2115.95 17.8888 2112.1 18.618 Q2108.25 19.3471 2103.64 20.8865 L2103.64 13.5948 Q2108.29 12.2985 2112.35 11.6504 Q2116.44 11.0023 2120.04 11.0023 Q2129.36 11.0023 2134.79 15.2557 Q2140.22 19.4686 2140.22 26.6793 Q2140.22 31.7024 2137.34 35.1862 Q2134.46 38.6294 2129.16 39.9662 Z" fill="#000000" fill-rule="nonzero" fill-opacity="1" /><path clip-path="url(#clip502)" d="M913.624 124.75 L913.624 1423.18 L1011.9 1423.18 L1011.9 124.75 L913.624 124.75 L913.624 124.75  Z" fill="#009af9" fill-rule="evenodd" fill-opacity="1"/>
<polyline clip-path="url(#clip502)" style="stroke:#000000; stroke-linecap:round; stroke-linejoin:round; stroke-width:4; stroke-opacity:1; fill:none" points="913.624,124.75 913.624,1423.18 1011.9,1423.18 1011.9,124.75 913.624,124.75 "/>
<path clip-path="url(#clip502)" d="M1773.57 162.5 L1773.57 1423.18 L1871.85 1423.18 L1871.85 162.5 L1773.57 162.5 L1773.57 162.5  Z" fill="#009af9" fill-rule="evenodd" fill-opacity="1"/>
<polyline clip-path="url(#clip502)" style="stroke:#000000; stroke-linecap:round; stroke-linejoin:round; stroke-width:4; stroke-opacity:1; fill:none" points="1773.57,162.5 1773.57,1423.18 1871.85,1423.18 1871.85,162.5 1773.57,162.5 "/>
<path clip-path="url(#clip502)" d="M1282.17 150.143 L1282.17 1423.18 L1380.45 1423.18 L1380.45 150.143 L1282.17 150.143 L1282.17 150.143  Z" fill="#009af9" fill-rule="evenodd" fill-opacity="1"/>
<polyline clip-path="url(#clip502)" style="stroke:#000000; stroke-linecap:round; stroke-linejoin:round; stroke-width:4; stroke-opacity:1; fill:none" points="1282.17,150.143 1282.17,1423.18 1380.45,1423.18 1380.45,150.143 1282.17,150.143 "/>
<path clip-path="url(#clip502)" d="M422.228 126.626 L422.228 1423.18 L520.508 1423.18 L520.508 126.626 L422.228 126.626 L422.228 126.626  Z" fill="#009af9" fill-rule="evenodd" fill-opacity="1"/>
<polyline clip-path="url(#clip502)" style="stroke:#000000; stroke-linecap:round; stroke-linejoin:round; stroke-width:4; stroke-opacity:1; fill:none" points="422.228,126.626 422.228,1423.18 520.508,1423.18 520.508,126.626 422.228,126.626 "/>
<path clip-path="url(#clip502)" d="M1036.47 156.539 L1036.47 1423.18 L1134.75 1423.18 L1134.75 156.539 L1036.47 156.539 L1036.47 156.539  Z" fill="#009af9" fill-rule="evenodd" fill-opacity="1"/>
<polyline clip-path="url(#clip502)" style="stroke:#000000; stroke-linecap:round; stroke-linejoin:round; stroke-width:4; stroke-opacity:1; fill:none" points="1036.47,156.539 1036.47,1423.18 1134.75,1423.18 1134.75,156.539 1036.47,156.539 "/>
<path clip-path="url(#clip502)" d="M1650.72 166.404 L1650.72 1423.18 L1749 1423.18 L1749 166.404 L1650.72 166.404 L1650.72 166.404  Z" fill="#009af9" fill-rule="evenodd" fill-opacity="1"/>
<polyline clip-path="url(#clip502)" style="stroke:#000000; stroke-linecap:round; stroke-linejoin:round; stroke-width:4; stroke-opacity:1; fill:none" points="1650.72,166.404 1650.72,1423.18 1749,1423.18 1749,166.404 1650.72,166.404 "/>
<path clip-path="url(#clip502)" d="M1405.02 163.991 L1405.02 1423.18 L1503.3 1423.18 L1503.3 163.991 L1405.02 163.991 L1405.02 163.991  Z" fill="#009af9" fill-rule="evenodd" fill-opacity="1"/>
<polyline clip-path="url(#clip502)" style="stroke:#000000; stroke-linecap:round; stroke-linejoin:round; stroke-width:4; stroke-opacity:1; fill:none" points="1405.02,163.991 1405.02,1423.18 1503.3,1423.18 1503.3,163.991 1405.02,163.991 "/>
<path clip-path="url(#clip502)" d="M2019.27 178.909 L2019.27 1423.18 L2117.54 1423.18 L2117.54 178.909 L2019.27 178.909 L2019.27 178.909  Z" fill="#009af9" fill-rule="evenodd" fill-opacity="1"/>
<polyline clip-path="url(#clip502)" style="stroke:#000000; stroke-linecap:round; stroke-linejoin:round; stroke-width:4; stroke-opacity:1; fill:none" points="2019.27,178.909 2019.27,1423.18 2117.54,1423.18 2117.54,178.909 2019.27,178.909 "/>
<path clip-path="url(#clip502)" d="M667.926 145.469 L667.926 1423.18 L766.206 1423.18 L766.206 145.469 L667.926 145.469 L667.926 145.469  Z" fill="#009af9" fill-rule="evenodd" fill-opacity="1"/>
<polyline clip-path="url(#clip502)" style="stroke:#000000; stroke-linecap:round; stroke-linejoin:round; stroke-width:4; stroke-opacity:1; fill:none" points="667.926,145.469 667.926,1423.18 766.206,1423.18 766.206,145.469 667.926,145.469 "/>
<path clip-path="url(#clip502)" d="M1159.32 152.447 L1159.32 1423.18 L1257.6 1423.18 L1257.6 152.447 L1159.32 152.447 L1159.32 152.447  Z" fill="#009af9" fill-rule="evenodd" fill-opacity="1"/>
<polyline clip-path="url(#clip502)" style="stroke:#000000; stroke-linecap:round; stroke-linejoin:round; stroke-width:4; stroke-opacity:1; fill:none" points="1159.32,152.447 1159.32,1423.18 1257.6,1423.18 1257.6,152.447 1159.32,152.447 "/>
<path clip-path="url(#clip502)" d="M790.775 123.472 L790.775 1423.18 L889.055 1423.18 L889.055 123.472 L790.775 123.472 L790.775 123.472  Z" fill="#009af9" fill-rule="evenodd" fill-opacity="1"/>
<polyline clip-path="url(#clip502)" style="stroke:#000000; stroke-linecap:round; stroke-linejoin:round; stroke-width:4; stroke-opacity:1; fill:none" points="790.775,123.472 790.775,1423.18 889.055,1423.18 889.055,123.472 790.775,123.472 "/>
<path clip-path="url(#clip502)" d="M1896.42 143.127 L1896.42 1423.18 L1994.7 1423.18 L1994.7 143.127 L1896.42 143.127 L1896.42 143.127  Z" fill="#009af9" fill-rule="evenodd" fill-opacity="1"/>
<polyline clip-path="url(#clip502)" style="stroke:#000000; stroke-linecap:round; stroke-linejoin:round; stroke-width:4; stroke-opacity:1; fill:none" points="1896.42,143.127 1896.42,1423.18 1994.7,1423.18 1994.7,143.127 1896.42,143.127 "/>
<path clip-path="url(#clip502)" d="M2142.11 162.458 L2142.11 1423.18 L2240.39 1423.18 L2240.39 162.458 L2142.11 162.458 L2142.11 162.458  Z" fill="#009af9" fill-rule="evenodd" fill-opacity="1"/>
<polyline clip-path="url(#clip502)" style="stroke:#000000; stroke-linecap:round; stroke-linejoin:round; stroke-width:4; stroke-opacity:1; fill:none" points="2142.11,162.458 2142.11,1423.18 2240.39,1423.18 2240.39,162.458 2142.11,162.458 "/>
<path clip-path="url(#clip502)" d="M545.077 172.181 L545.077 1423.18 L643.357 1423.18 L643.357 172.181 L545.077 172.181 L545.077 172.181  Z" fill="#009af9" fill-rule="evenodd" fill-opacity="1"/>
<polyline clip-path="url(#clip502)" style="stroke:#000000; stroke-linecap:round; stroke-linejoin:round; stroke-width:4; stroke-opacity:1; fill:none" points="545.077,172.181 545.077,1423.18 643.357,1423.18 643.357,172.181 545.077,172.181 "/>
<path clip-path="url(#clip502)" d="M1527.87 151.817 L1527.87 1423.18 L1626.15 1423.18 L1626.15 151.817 L1527.87 151.817 L1527.87 151.817  Z" fill="#009af9" fill-rule="evenodd" fill-opacity="1"/>
<polyline clip-path="url(#clip502)" style="stroke:#000000; stroke-linecap:round; stroke-linejoin:round; stroke-width:4; stroke-opacity:1; fill:none" points="1527.87,151.817 1527.87,1423.18 1626.15,1423.18 1626.15,151.817 1527.87,151.817 "/>
<circle clip-path="url(#clip502)" style="fill:#009af9; stroke:none; fill-opacity:0" cx="962.764" cy="124.75" r="2"/>
<circle clip-path="url(#clip502)" style="fill:#009af9; stroke:none; fill-opacity:0" cx="1822.71" cy="162.5" r="2"/>
<circle clip-path="url(#clip502)" style="fill:#009af9; stroke:none; fill-opacity:0" cx="1331.31" cy="150.143" r="2"/>
<circle clip-path="url(#clip502)" style="fill:#009af9; stroke:none; fill-opacity:0" cx="471.368" cy="126.626" r="2"/>
<circle clip-path="url(#clip502)" style="fill:#009af9; stroke:none; fill-opacity:0" cx="1085.61" cy="156.539" r="2"/>
<circle clip-path="url(#clip502)" style="fill:#009af9; stroke:none; fill-opacity:0" cx="1699.86" cy="166.404" r="2"/>
<circle clip-path="url(#clip502)" style="fill:#009af9; stroke:none; fill-opacity:0" cx="1454.16" cy="163.991" r="2"/>
<circle clip-path="url(#clip502)" style="fill:#009af9; stroke:none; fill-opacity:0" cx="2068.4" cy="178.909" r="2"/>
<circle clip-path="url(#clip502)" style="fill:#009af9; stroke:none; fill-opacity:0" cx="717.066" cy="145.469" r="2"/>
<circle clip-path="url(#clip502)" style="fill:#009af9; stroke:none; fill-opacity:0" cx="1208.46" cy="152.447" r="2"/>
<circle clip-path="url(#clip502)" style="fill:#009af9; stroke:none; fill-opacity:0" cx="839.915" cy="123.472" r="2"/>
<circle clip-path="url(#clip502)" style="fill:#009af9; stroke:none; fill-opacity:0" cx="1945.56" cy="143.127" r="2"/>
<circle clip-path="url(#clip502)" style="fill:#009af9; stroke:none; fill-opacity:0" cx="2191.25" cy="162.458" r="2"/>
<circle clip-path="url(#clip502)" style="fill:#009af9; stroke:none; fill-opacity:0" cx="594.217" cy="172.181" r="2"/>
<circle clip-path="url(#clip502)" style="fill:#009af9; stroke:none; fill-opacity:0" cx="1577.01" cy="151.817" r="2"/>
</svg>
