<?xml version="1.0" encoding="utf-8"?>
<svg xmlns="http://www.w3.org/2000/svg" xmlns:xlink="http://www.w3.org/1999/xlink" width="600" height="400" viewBox="0 0 2400 1600">
<defs>
  <clipPath id="clip920">
    <rect x="0" y="0" width="2400" height="1600"/>
  </clipPath>
</defs>
<path clip-path="url(#clip920)" d="M0 1600 L2400 1600 L2400 0 L0 0  Z" fill="#ffffff" fill-rule="evenodd" fill-opacity="1"/>
<defs>
  <clipPath id="clip921">
    <rect x="480" y="0" width="1681" height="1600"/>
  </clipPath>
</defs>
<path clip-path="url(#clip920)" d="M175.445 1423.18 L2352.76 1423.18 L2352.76 123.472 L175.445 123.472  Z" fill="#ffffff" fill-rule="evenodd" fill-opacity="1"/>
<defs>
  <clipPath id="clip922">
    <rect x="175" y="123" width="2178" height="1301"/>
  </clipPath>
</defs>
<polyline clip-path="url(#clip922)" style="stroke:#000000; stroke-linecap:round; stroke-linejoin:round; stroke-width:2; stroke-opacity:0.1; fill:none" points="216.642,1423.18 216.642,123.472 "/>
<polyline clip-path="url(#clip922)" style="stroke:#000000; stroke-linecap:round; stroke-linejoin:round; stroke-width:2; stroke-opacity:0.1; fill:none" points="871.304,1423.18 871.304,123.472 "/>
<polyline clip-path="url(#clip922)" style="stroke:#000000; stroke-linecap:round; stroke-linejoin:round; stroke-width:2; stroke-opacity:0.1; fill:none" points="1525.97,1423.18 1525.97,123.472 "/>
<polyline clip-path="url(#clip922)" style="stroke:#000000; stroke-linecap:round; stroke-linejoin:round; stroke-width:2; stroke-opacity:0.1; fill:none" points="2180.63,1423.18 2180.63,123.472 "/>
<polyline clip-path="url(#clip922)" style="stroke:#000000; stroke-linecap:round; stroke-linejoin:round; stroke-width:2; stroke-opacity:0.1; fill:none" points="175.445,1423.18 2352.76,1423.18 "/>
<polyline clip-path="url(#clip922)" style="stroke:#000000; stroke-linecap:round; stroke-linejoin:round; stroke-width:2; stroke-opacity:0.1; fill:none" points="175.445,1177.56 2352.76,1177.56 "/>
<polyline clip-path="url(#clip922)" style="stroke:#000000; stroke-linecap:round; stroke-linejoin:round; stroke-width:2; stroke-opacity:0.1; fill:none" points="175.445,931.949 2352.76,931.949 "/>
<polyline clip-path="url(#clip922)" style="stroke:#000000; stroke-linecap:round; stroke-linejoin:round; stroke-width:2; stroke-opacity:0.1; fill:none" points="175.445,686.334 2352.76,686.334 "/>
<polyline clip-path="url(#clip922)" style="stroke:#000000; stroke-linecap:round; stroke-linejoin:round; stroke-width:2; stroke-opacity:0.1; fill:none" points="175.445,440.719 2352.76,440.719 "/>
<polyline clip-path="url(#clip922)" style="stroke:#000000; stroke-linecap:round; stroke-linejoin:round; stroke-width:2; stroke-opacity:0.1; fill:none" points="175.445,195.103 2352.76,195.103 "/>
<polyline clip-path="url(#clip920)" style="stroke:#000000; stroke-linecap:round; stroke-linejoin:round; stroke-width:4; stroke-opacity:1; fill:none" points="175.445,1423.18 2352.76,1423.18 "/>
<polyline clip-path="url(#clip920)" style="stroke:#000000; stroke-linecap:round; stroke-linejoin:round; stroke-width:4; stroke-opacity:1; fill:none" points="216.642,1423.18 216.642,1404.28 "/>
<polyline clip-path="url(#clip920)" style="stroke:#000000; stroke-linecap:round; stroke-linejoin:round; stroke-width:4; stroke-opacity:1; fill:none" points="871.304,1423.18 871.304,1404.28 "/>
<polyline clip-path="url(#clip920)" style="stroke:#000000; stroke-linecap:round; stroke-linejoin:round; stroke-width:4; stroke-opacity:1; fill:none" points="1525.97,1423.18 1525.97,1404.28 "/>
<polyline clip-path="url(#clip920)" style="stroke:#000000; stroke-linecap:round; stroke-linejoin:round; stroke-width:4; stroke-opacity:1; fill:none" points="2180.63,1423.18 2180.63,1404.28 "/>
<path clip-path="url(#clip920)" d="M216.642 1454.1 Q213.031 1454.1 211.202 1457.66 Q209.396 1461.2 209.396 1468.33 Q209.396 1475.44 211.202 1479.01 Q213.031 1482.55 216.642 1482.55 Q220.276 1482.55 222.082 1479.01 Q223.91 1475.44 223.91 1468.33 Q223.91 1461.2 222.082 1457.66 Q220.276 1454.1 216.642 1454.1 M216.642 1450.39 Q222.452 1450.39 225.507 1455 Q228.586 1459.58 228.586 1468.33 Q228.586 1477.06 225.507 1481.67 Q222.452 1486.25 216.642 1486.25 Q210.832 1486.25 207.753 1481.67 Q204.697 1477.06 204.697 1468.33 Q204.697 1459.58 207.753 1455 Q210.832 1450.39 216.642 1450.39 Z" fill="#000000" fill-rule="nonzero" fill-opacity="1" /><path clip-path="url(#clip920)" d="M861.581 1451.02 L879.938 1451.02 L879.938 1454.96 L865.864 1454.96 L865.864 1463.43 Q866.882 1463.08 867.901 1462.92 Q868.919 1462.73 869.938 1462.73 Q875.725 1462.73 879.104 1465.9 Q882.484 1469.08 882.484 1474.49 Q882.484 1480.07 879.012 1483.17 Q875.54 1486.25 869.22 1486.25 Q867.044 1486.25 864.776 1485.88 Q862.53 1485.51 860.123 1484.77 L860.123 1480.07 Q862.206 1481.2 864.429 1481.76 Q866.651 1482.32 869.128 1482.32 Q873.132 1482.32 875.47 1480.21 Q877.808 1478.1 877.808 1474.49 Q877.808 1470.88 875.47 1468.77 Q873.132 1466.67 869.128 1466.67 Q867.253 1466.67 865.378 1467.08 Q863.526 1467.5 861.581 1468.38 L861.581 1451.02 Z" fill="#000000" fill-rule="nonzero" fill-opacity="1" /><path clip-path="url(#clip920)" d="M1500.65 1481.64 L1508.29 1481.64 L1508.29 1455.28 L1499.98 1456.95 L1499.98 1452.69 L1508.25 1451.02 L1512.92 1451.02 L1512.92 1481.64 L1520.56 1481.64 L1520.56 1485.58 L1500.65 1485.58 L1500.65 1481.64 Z" fill="#000000" fill-rule="nonzero" fill-opacity="1" /><path clip-path="url(#clip920)" d="M1540 1454.1 Q1536.39 1454.1 1534.56 1457.66 Q1532.76 1461.2 1532.76 1468.33 Q1532.76 1475.44 1534.56 1479.01 Q1536.39 1482.55 1540 1482.55 Q1543.64 1482.55 1545.44 1479.01 Q1547.27 1475.44 1547.27 1468.33 Q1547.27 1461.2 1545.44 1457.66 Q1543.64 1454.1 1540 1454.1 M1540 1450.39 Q1545.81 1450.39 1548.87 1455 Q1551.95 1459.58 1551.95 1468.33 Q1551.95 1477.06 1548.87 1481.67 Q1545.81 1486.25 1540 1486.25 Q1534.19 1486.25 1531.12 1481.67 Q1528.06 1477.06 1528.06 1468.33 Q1528.06 1459.58 1531.12 1455 Q1534.19 1450.39 1540 1450.39 Z" fill="#000000" fill-rule="nonzero" fill-opacity="1" /><path clip-path="url(#clip920)" d="M2155.81 1481.64 L2163.45 1481.64 L2163.45 1455.28 L2155.14 1456.95 L2155.14 1452.69 L2163.4 1451.02 L2168.08 1451.02 L2168.08 1481.64 L2175.72 1481.64 L2175.72 1485.58 L2155.81 1485.58 L2155.81 1481.64 Z" fill="#000000" fill-rule="nonzero" fill-opacity="1" /><path clip-path="url(#clip920)" d="M2185.21 1451.02 L2203.57 1451.02 L2203.57 1454.96 L2189.49 1454.96 L2189.49 1463.43 Q2190.51 1463.08 2191.53 1462.92 Q2192.55 1462.73 2193.57 1462.73 Q2199.35 1462.73 2202.73 1465.9 Q2206.11 1469.08 2206.11 1474.49 Q2206.11 1480.07 2202.64 1483.17 Q2199.17 1486.25 2192.85 1486.25 Q2190.67 1486.25 2188.4 1485.88 Q2186.16 1485.51 2183.75 1484.77 L2183.75 1480.07 Q2185.84 1481.2 2188.06 1481.76 Q2190.28 1482.32 2192.76 1482.32 Q2196.76 1482.32 2199.1 1480.21 Q2201.44 1478.1 2201.44 1474.49 Q2201.44 1470.88 2199.1 1468.77 Q2196.76 1466.67 2192.76 1466.67 Q2190.88 1466.67 2189.01 1467.08 Q2187.15 1467.5 2185.21 1468.38 L2185.21 1451.02 Z" fill="#000000" fill-rule="nonzero" fill-opacity="1" /><path clip-path="url(#clip920)" d="M1145.97 1520.52 L1152.4 1520.52 L1152.4 1562.63 L1175.54 1562.63 L1175.54 1568.04 L1145.97 1568.04 L1145.97 1520.52 Z" fill="#000000" fill-rule="nonzero" fill-opacity="1" /><path clip-path="url(#clip920)" d="M1194.7 1536.5 Q1189.99 1536.5 1187.25 1540.19 Q1184.51 1543.85 1184.51 1550.25 Q1184.51 1556.65 1187.22 1560.34 Q1189.96 1564 1194.7 1564 Q1199.38 1564 1202.11 1560.31 Q1204.85 1556.62 1204.85 1550.25 Q1204.85 1543.92 1202.11 1540.23 Q1199.38 1536.5 1194.7 1536.5 M1194.7 1531.54 Q1202.34 1531.54 1206.7 1536.5 Q1211.06 1541.47 1211.06 1550.25 Q1211.06 1559 1206.7 1564 Q1202.34 1568.97 1194.7 1568.97 Q1187.03 1568.97 1182.67 1564 Q1178.34 1559 1178.34 1550.25 Q1178.34 1541.47 1182.67 1536.5 Q1187.03 1531.54 1194.7 1531.54 Z" fill="#000000" fill-rule="nonzero" fill-opacity="1" /><path clip-path="url(#clip920)" d="M1236.97 1550.12 Q1229.87 1550.12 1227.13 1551.75 Q1224.39 1553.37 1224.39 1557.29 Q1224.39 1560.4 1226.43 1562.25 Q1228.5 1564.07 1232.03 1564.07 Q1236.9 1564.07 1239.83 1560.63 Q1242.79 1557.16 1242.79 1551.43 L1242.79 1550.12 L1236.97 1550.12 M1248.65 1547.71 L1248.65 1568.04 L1242.79 1568.04 L1242.79 1562.63 Q1240.79 1565.88 1237.79 1567.44 Q1234.8 1568.97 1230.47 1568.97 Q1225 1568.97 1221.75 1565.91 Q1218.54 1562.82 1218.54 1557.67 Q1218.54 1551.65 1222.55 1548.6 Q1226.59 1545.54 1234.58 1545.54 L1242.79 1545.54 L1242.79 1544.97 Q1242.79 1540.93 1240.12 1538.73 Q1237.48 1536.5 1232.67 1536.5 Q1229.61 1536.5 1226.72 1537.23 Q1223.82 1537.97 1221.15 1539.43 L1221.15 1534.02 Q1224.36 1532.78 1227.39 1532.17 Q1230.41 1531.54 1233.27 1531.54 Q1241.01 1531.54 1244.83 1535.55 Q1248.65 1539.56 1248.65 1547.71 Z" fill="#000000" fill-rule="nonzero" fill-opacity="1" /><path clip-path="url(#clip920)" d="M1284.17 1537.81 L1284.17 1518.52 L1290.02 1518.52 L1290.02 1568.04 L1284.17 1568.04 L1284.17 1562.7 Q1282.32 1565.88 1279.49 1567.44 Q1276.69 1568.97 1272.74 1568.97 Q1266.28 1568.97 1262.21 1563.81 Q1258.16 1558.65 1258.16 1550.25 Q1258.16 1541.85 1262.21 1536.69 Q1266.28 1531.54 1272.74 1531.54 Q1276.69 1531.54 1279.49 1533.1 Q1282.32 1534.62 1284.17 1537.81 M1264.21 1550.25 Q1264.21 1556.71 1266.85 1560.4 Q1269.53 1564.07 1274.17 1564.07 Q1278.82 1564.07 1281.49 1560.4 Q1284.17 1556.71 1284.17 1550.25 Q1284.17 1543.79 1281.49 1540.13 Q1278.82 1536.44 1274.17 1536.44 Q1269.53 1536.44 1266.85 1540.13 Q1264.21 1543.79 1264.21 1550.25 Z" fill="#000000" fill-rule="nonzero" fill-opacity="1" /><path clip-path="url(#clip920)" d="M1323.06 1520.52 L1329.49 1520.52 L1329.49 1568.04 L1323.06 1568.04 L1323.06 1520.52 Z" fill="#000000" fill-rule="nonzero" fill-opacity="1" /><path clip-path="url(#clip920)" d="M1348.72 1525.81 L1348.72 1562.76 L1356.48 1562.76 Q1366.32 1562.76 1370.87 1558.3 Q1375.45 1553.85 1375.45 1544.24 Q1375.45 1534.69 1370.87 1530.26 Q1366.32 1525.81 1356.48 1525.81 L1348.72 1525.81 M1342.29 1520.52 L1355.5 1520.52 Q1369.31 1520.52 1375.77 1526.28 Q1382.23 1532.01 1382.23 1544.24 Q1382.23 1556.52 1375.74 1562.28 Q1369.25 1568.04 1355.5 1568.04 L1342.29 1568.04 L1342.29 1520.52 Z" fill="#000000" fill-rule="nonzero" fill-opacity="1" /><polyline clip-path="url(#clip920)" style="stroke:#000000; stroke-linecap:round; stroke-linejoin:round; stroke-width:4; stroke-opacity:1; fill:none" points="175.445,1423.18 175.445,123.472 "/>
<polyline clip-path="url(#clip920)" style="stroke:#000000; stroke-linecap:round; stroke-linejoin:round; stroke-width:4; stroke-opacity:1; fill:none" points="175.445,1423.18 194.343,1423.18 "/>
<polyline clip-path="url(#clip920)" style="stroke:#000000; stroke-linecap:round; stroke-linejoin:round; stroke-width:4; stroke-opacity:1; fill:none" points="175.445,1177.56 194.343,1177.56 "/>
<polyline clip-path="url(#clip920)" style="stroke:#000000; stroke-linecap:round; stroke-linejoin:round; stroke-width:4; stroke-opacity:1; fill:none" points="175.445,931.949 194.343,931.949 "/>
<polyline clip-path="url(#clip920)" style="stroke:#000000; stroke-linecap:round; stroke-linejoin:round; stroke-width:4; stroke-opacity:1; fill:none" points="175.445,686.334 194.343,686.334 "/>
<polyline clip-path="url(#clip920)" style="stroke:#000000; stroke-linecap:round; stroke-linejoin:round; stroke-width:4; stroke-opacity:1; fill:none" points="175.445,440.719 194.343,440.719 "/>
<polyline clip-path="url(#clip920)" style="stroke:#000000; stroke-linecap:round; stroke-linejoin:round; stroke-width:4; stroke-opacity:1; fill:none" points="175.445,195.103 194.343,195.103 "/>
<path clip-path="url(#clip920)" d="M127.501 1408.98 Q123.89 1408.98 122.061 1412.54 Q120.255 1416.08 120.255 1423.21 Q120.255 1430.32 122.061 1433.89 Q123.89 1437.43 127.501 1437.43 Q131.135 1437.43 132.941 1433.89 Q134.769 1430.32 134.769 1423.21 Q134.769 1416.08 132.941 1412.54 Q131.135 1408.98 127.501 1408.98 M127.501 1405.27 Q133.311 1405.27 136.367 1409.88 Q139.445 1414.46 139.445 1423.21 Q139.445 1431.94 136.367 1436.55 Q133.311 1441.13 127.501 1441.13 Q121.691 1441.13 118.612 1436.55 Q115.556 1431.94 115.556 1423.21 Q115.556 1414.46 118.612 1409.88 Q121.691 1405.27 127.501 1405.27 Z" fill="#000000" fill-rule="nonzero" fill-opacity="1" /><path clip-path="url(#clip920)" d="M119.538 1190.91 L127.177 1190.91 L127.177 1164.54 L118.867 1166.21 L118.867 1161.95 L127.13 1160.28 L131.806 1160.28 L131.806 1190.91 L139.445 1190.91 L139.445 1194.84 L119.538 1194.84 L119.538 1190.91 Z" fill="#000000" fill-rule="nonzero" fill-opacity="1" /><path clip-path="url(#clip920)" d="M123.126 945.294 L139.445 945.294 L139.445 949.229 L117.501 949.229 L117.501 945.294 Q120.163 942.539 124.746 937.91 Q129.353 933.257 130.533 931.915 Q132.779 929.391 133.658 927.655 Q134.561 925.896 134.561 924.206 Q134.561 921.452 132.617 919.716 Q130.695 917.979 127.593 917.979 Q125.394 917.979 122.941 918.743 Q120.51 919.507 117.732 921.058 L117.732 916.336 Q120.556 915.202 123.01 914.623 Q125.464 914.044 127.501 914.044 Q132.871 914.044 136.066 916.729 Q139.26 919.415 139.26 923.905 Q139.26 926.035 138.45 927.956 Q137.663 929.854 135.556 932.447 Q134.978 933.118 131.876 936.336 Q128.774 939.53 123.126 945.294 Z" fill="#000000" fill-rule="nonzero" fill-opacity="1" /><path clip-path="url(#clip920)" d="M132.316 684.98 Q135.672 685.697 137.547 687.966 Q139.445 690.234 139.445 693.568 Q139.445 698.683 135.927 701.484 Q132.408 704.285 125.927 704.285 Q123.751 704.285 121.436 703.845 Q119.144 703.429 116.691 702.572 L116.691 698.058 Q118.635 699.193 120.95 699.771 Q123.265 700.35 125.788 700.35 Q130.186 700.35 132.478 698.614 Q134.792 696.878 134.792 693.568 Q134.792 690.512 132.64 688.799 Q130.51 687.063 126.691 687.063 L122.663 687.063 L122.663 683.221 L126.876 683.221 Q130.325 683.221 132.154 681.855 Q133.982 680.466 133.982 677.873 Q133.982 675.211 132.084 673.799 Q130.209 672.364 126.691 672.364 Q124.769 672.364 122.57 672.781 Q120.371 673.197 117.732 674.077 L117.732 669.91 Q120.394 669.17 122.709 668.799 Q125.047 668.429 127.107 668.429 Q132.431 668.429 135.533 670.859 Q138.635 673.267 138.635 677.387 Q138.635 680.258 136.992 682.248 Q135.348 684.216 132.316 684.98 Z" fill="#000000" fill-rule="nonzero" fill-opacity="1" /><path clip-path="url(#clip920)" d="M129.862 427.513 L118.056 445.962 L129.862 445.962 L129.862 427.513 M128.635 423.439 L134.515 423.439 L134.515 445.962 L139.445 445.962 L139.445 449.851 L134.515 449.851 L134.515 457.999 L129.862 457.999 L129.862 449.851 L114.26 449.851 L114.26 445.337 L128.635 423.439 Z" fill="#000000" fill-rule="nonzero" fill-opacity="1" /><path clip-path="url(#clip920)" d="M118.543 177.823 L136.899 177.823 L136.899 181.758 L122.825 181.758 L122.825 190.231 Q123.843 189.883 124.862 189.721 Q125.88 189.536 126.899 189.536 Q132.686 189.536 136.066 192.708 Q139.445 195.879 139.445 201.295 Q139.445 206.874 135.973 209.976 Q132.501 213.055 126.181 213.055 Q124.005 213.055 121.737 212.684 Q119.492 212.314 117.084 211.573 L117.084 206.874 Q119.168 208.008 121.39 208.564 Q123.612 209.119 126.089 209.119 Q130.093 209.119 132.431 207.013 Q134.769 204.907 134.769 201.295 Q134.769 197.684 132.431 195.578 Q130.093 193.471 126.089 193.471 Q124.214 193.471 122.339 193.888 Q120.487 194.305 118.543 195.184 L118.543 177.823 Z" fill="#000000" fill-rule="nonzero" fill-opacity="1" /><path clip-path="url(#clip920)" d="M16.4842 1039.99 L16.4842 1012.68 L21.895 1012.68 L21.895 1033.56 L35.8996 1033.56 L35.8996 1014.71 L41.3104 1014.71 L41.3104 1033.56 L64.0042 1033.56 L64.0042 1039.99 L16.4842 1039.99 Z" fill="#000000" fill-rule="nonzero" fill-opacity="1" /><path clip-path="url(#clip920)" d="M46.0847 992.529 Q46.0847 999.627 47.7079 1002.36 Q49.3312 1005.1 53.2461 1005.1 Q56.3653 1005.1 58.2114 1003.06 Q60.0256 1001 60.0256 997.463 Q60.0256 992.593 56.5881 989.665 Q53.1188 986.704 47.3897 986.704 L46.0847 986.704 L46.0847 992.529 M43.6657 980.848 L64.0042 980.848 L64.0042 986.704 L58.5933 986.704 Q61.8398 988.71 63.3994 991.702 Q64.9272 994.693 64.9272 999.022 Q64.9272 1004.5 61.8716 1007.74 Q58.7843 1010.96 53.6281 1010.96 Q47.6125 1010.96 44.5569 1006.95 Q41.5014 1002.91 41.5014 994.916 L41.5014 986.704 L40.9285 986.704 Q36.8862 986.704 34.6901 989.378 Q32.4621 992.02 32.4621 996.826 Q32.4621 999.881 33.1941 1002.78 Q33.9262 1005.67 35.3903 1008.35 L29.9795 1008.35 Q28.7381 1005.13 28.1334 1002.11 Q27.4968 999.086 27.4968 996.221 Q27.4968 988.487 31.5072 984.667 Q35.5176 980.848 43.6657 980.848 Z" fill="#000000" fill-rule="nonzero" fill-opacity="1" /><path clip-path="url(#clip920)" d="M28.3562 968.785 L28.3562 962.929 L64.0042 962.929 L64.0042 968.785 L28.3562 968.785 M14.479 968.785 L14.479 962.929 L21.895 962.929 L21.895 968.785 L14.479 968.785 Z" fill="#000000" fill-rule="nonzero" fill-opacity="1" /><path clip-path="url(#clip920)" d="M33.8307 930.018 Q33.2578 931.005 33.0032 932.182 Q32.7167 933.328 32.7167 934.728 Q32.7167 939.694 35.9632 942.367 Q39.1779 945.009 45.2253 945.009 L64.0042 945.009 L64.0042 950.897 L28.3562 950.897 L28.3562 945.009 L33.8944 945.009 Q30.6479 943.163 29.0883 940.203 Q27.4968 937.243 27.4968 933.01 Q27.4968 932.405 27.5923 931.673 Q27.656 930.941 27.8151 930.05 L33.8307 930.018 Z" fill="#000000" fill-rule="nonzero" fill-opacity="1" /><path clip-path="url(#clip920)" d="M16.4842 902.9 L16.4842 896.471 L58.5933 896.471 L58.5933 873.331 L64.0042 873.331 L64.0042 902.9 L16.4842 902.9 Z" fill="#000000" fill-rule="nonzero" fill-opacity="1" /><path clip-path="url(#clip920)" d="M32.4621 854.17 Q32.4621 858.881 36.1542 861.618 Q39.8145 864.356 46.212 864.356 Q52.6095 864.356 56.3017 861.65 Q59.9619 858.913 59.9619 854.17 Q59.9619 849.492 56.2698 846.754 Q52.5777 844.017 46.212 844.017 Q39.8781 844.017 36.186 846.754 Q32.4621 849.492 32.4621 854.17 M27.4968 854.17 Q27.4968 846.532 32.4621 842.171 Q37.4273 837.811 46.212 837.811 Q54.9649 837.811 59.9619 842.171 Q64.9272 846.532 64.9272 854.17 Q64.9272 861.841 59.9619 866.202 Q54.9649 870.53 46.212 870.53 Q37.4273 870.53 32.4621 866.202 Q27.4968 861.841 27.4968 854.17 Z" fill="#000000" fill-rule="nonzero" fill-opacity="1" /><path clip-path="url(#clip920)" d="M46.0847 811.902 Q46.0847 819 47.7079 821.737 Q49.3312 824.474 53.2461 824.474 Q56.3653 824.474 58.2114 822.437 Q60.0256 820.369 60.0256 816.836 Q60.0256 811.966 56.5881 809.038 Q53.1188 806.078 47.3897 806.078 L46.0847 806.078 L46.0847 811.902 M43.6657 800.221 L64.0042 800.221 L64.0042 806.078 L58.5933 806.078 Q61.8398 808.083 63.3994 811.075 Q64.9272 814.067 64.9272 818.395 Q64.9272 823.87 61.8716 827.116 Q58.7843 830.331 53.6281 830.331 Q47.6125 830.331 44.5569 826.32 Q41.5014 822.278 41.5014 814.289 L41.5014 806.078 L40.9285 806.078 Q36.8862 806.078 34.6901 808.751 Q32.4621 811.393 32.4621 816.199 Q32.4621 819.255 33.1941 822.151 Q33.9262 825.047 35.3903 827.721 L29.9795 827.721 Q28.7381 824.506 28.1334 821.483 Q27.4968 818.459 27.4968 815.594 Q27.4968 807.86 31.5072 804.041 Q35.5176 800.221 43.6657 800.221 Z" fill="#000000" fill-rule="nonzero" fill-opacity="1" /><path clip-path="url(#clip920)" d="M33.7671 764.7 L14.479 764.7 L14.479 758.844 L64.0042 758.844 L64.0042 764.7 L58.657 764.7 Q61.8398 766.547 63.3994 769.379 Q64.9272 772.18 64.9272 776.127 Q64.9272 782.588 59.771 786.662 Q54.6147 790.704 46.212 790.704 Q37.8093 790.704 32.6531 786.662 Q27.4968 782.588 27.4968 776.127 Q27.4968 772.18 29.0564 769.379 Q30.5842 766.547 33.7671 764.7 M46.212 784.657 Q52.6732 784.657 56.3653 782.015 Q60.0256 779.342 60.0256 774.695 Q60.0256 770.048 56.3653 767.374 Q52.6732 764.7 46.212 764.7 Q39.7508 764.7 36.0905 767.374 Q32.3984 770.048 32.3984 774.695 Q32.3984 779.342 36.0905 782.015 Q39.7508 784.657 46.212 784.657 Z" fill="#000000" fill-rule="nonzero" fill-opacity="1" /><path clip-path="url(#clip920)" d="M16.4842 730.039 L16.4842 723.546 L56.6518 713.552 L16.4842 703.59 L16.4842 696.365 L56.6518 686.37 L16.4842 676.408 L16.4842 669.883 L64.0042 681.819 L64.0042 689.903 L22.7544 699.929 L64.0042 710.051 L64.0042 718.135 L16.4842 730.039 Z" fill="#000000" fill-rule="nonzero" fill-opacity="1" /><path clip-path="url(#clip920)" d="M44.7161 634.936 L47.5806 634.936 L47.5806 661.862 Q53.6281 661.481 56.8109 658.234 Q59.9619 654.956 59.9619 649.131 Q59.9619 645.757 59.1344 642.606 Q58.3069 639.423 56.6518 636.304 L62.1899 636.304 Q63.5267 639.455 64.227 642.765 Q64.9272 646.076 64.9272 649.481 Q64.9272 658.011 59.9619 663.008 Q54.9967 667.974 46.5303 667.974 Q37.7774 667.974 32.6531 663.263 Q27.4968 658.52 27.4968 650.5 Q27.4968 643.306 32.1438 639.137 Q36.7589 634.936 44.7161 634.936 M42.9973 640.792 Q38.1912 640.856 35.3266 643.497 Q32.4621 646.107 32.4621 650.436 Q32.4621 655.338 35.2312 658.298 Q38.0002 661.226 43.0292 661.671 L42.9973 640.792 Z" fill="#000000" fill-rule="nonzero" fill-opacity="1" /><path clip-path="url(#clip920)" d="M28.3562 625.323 L28.3562 619.467 L64.0042 619.467 L64.0042 625.323 L28.3562 625.323 M14.479 625.323 L14.479 619.467 L21.895 619.467 L21.895 625.323 L14.479 625.323 Z" fill="#000000" fill-rule="nonzero" fill-opacity="1" /><path clip-path="url(#clip920)" d="M45.7664 583.755 Q39.4007 583.755 35.8996 586.397 Q32.3984 589.007 32.3984 593.749 Q32.3984 598.46 35.8996 601.102 Q39.4007 603.712 45.7664 603.712 Q52.1003 603.712 55.6014 601.102 Q59.1026 598.46 59.1026 593.749 Q59.1026 589.007 55.6014 586.397 Q52.1003 583.755 45.7664 583.755 M59.58 577.899 Q68.683 577.899 73.1071 581.941 Q77.5631 585.983 77.5631 594.322 Q77.5631 597.41 77.0857 600.147 Q76.6401 602.884 75.6852 605.462 L69.9879 605.462 Q71.3884 602.884 72.0568 600.37 Q72.7252 597.855 72.7252 595.245 Q72.7252 589.484 69.7015 586.62 Q66.7096 583.755 60.6303 583.755 L57.7339 583.755 Q60.885 585.569 62.4446 588.402 Q64.0042 591.235 64.0042 595.182 Q64.0042 601.738 59.0071 605.749 Q54.01 609.759 45.7664 609.759 Q37.491 609.759 32.4939 605.749 Q27.4968 601.738 27.4968 595.182 Q27.4968 591.235 29.0564 588.402 Q30.616 585.569 33.7671 583.755 L28.3562 583.755 L28.3562 577.899 L59.58 577.899 Z" fill="#000000" fill-rule="nonzero" fill-opacity="1" /><path clip-path="url(#clip920)" d="M42.4881 536.203 L64.0042 536.203 L64.0042 542.06 L42.679 542.06 Q37.6183 542.06 35.1038 544.033 Q32.5894 546.007 32.5894 549.953 Q32.5894 554.696 35.6131 557.433 Q38.6368 560.17 43.8567 560.17 L64.0042 560.17 L64.0042 566.059 L14.479 566.059 L14.479 560.17 L33.8944 560.17 Q30.6797 558.07 29.0883 555.237 Q27.4968 552.372 27.4968 548.648 Q27.4968 542.505 31.3163 539.354 Q35.1038 536.203 42.4881 536.203 Z" fill="#000000" fill-rule="nonzero" fill-opacity="1" /><path clip-path="url(#clip920)" d="M18.2347 518.73 L28.3562 518.73 L28.3562 506.667 L32.9077 506.667 L32.9077 518.73 L52.2594 518.73 Q56.6199 518.73 57.8613 517.552 Q59.1026 516.342 59.1026 512.682 L59.1026 506.667 L64.0042 506.667 L64.0042 512.682 Q64.0042 519.462 61.4897 522.04 Q58.9434 524.618 52.2594 524.618 L32.9077 524.618 L32.9077 528.915 L28.3562 528.915 L28.3562 524.618 L18.2347 524.618 L18.2347 518.73 Z" fill="#000000" fill-rule="nonzero" fill-opacity="1" /><path clip-path="url(#clip920)" d="M453.069 12.096 L487.826 12.096 L487.826 18.9825 L461.252 18.9825 L461.252 36.8065 L485.233 36.8065 L485.233 43.6931 L461.252 43.6931 L461.252 72.576 L453.069 72.576 L453.069 12.096 Z" fill="#000000" fill-rule="nonzero" fill-opacity="1" /><path clip-path="url(#clip920)" d="M513.468 49.7694 Q504.434 49.7694 500.951 51.8354 Q497.467 53.9013 497.467 58.8839 Q497.467 62.8538 500.06 65.2034 Q502.693 67.5124 507.189 67.5124 Q513.387 67.5124 517.114 63.1374 Q520.881 58.7219 520.881 51.4303 L520.881 49.7694 L513.468 49.7694 M528.335 46.6907 L528.335 72.576 L520.881 72.576 L520.881 65.6895 Q518.329 69.8214 514.521 71.8063 Q510.713 73.7508 505.204 73.7508 Q498.237 73.7508 494.105 69.8619 Q490.013 65.9325 490.013 59.3701 Q490.013 51.7138 495.117 47.825 Q500.262 43.9361 510.43 43.9361 L520.881 43.9361 L520.881 43.2069 Q520.881 38.0623 517.478 35.2672 Q514.116 32.4315 507.999 32.4315 Q504.11 32.4315 500.424 33.3632 Q496.738 34.295 493.335 36.1584 L493.335 29.2718 Q497.426 27.692 501.275 26.9223 Q505.123 26.1121 508.769 26.1121 Q518.613 26.1121 523.474 31.2163 Q528.335 36.3204 528.335 46.6907 Z" fill="#000000" fill-rule="nonzero" fill-opacity="1" /><path clip-path="url(#clip920)" d="M543.688 27.2059 L551.141 27.2059 L551.141 72.576 L543.688 72.576 L543.688 27.2059 M543.688 9.54393 L551.141 9.54393 L551.141 18.9825 L543.688 18.9825 L543.688 9.54393 Z" fill="#000000" fill-rule="nonzero" fill-opacity="1" /><path clip-path="url(#clip920)" d="M593.028 34.1734 Q591.772 33.4443 590.273 33.1202 Q588.815 32.7556 587.032 32.7556 Q580.713 32.7556 577.31 36.8875 Q573.948 40.9789 573.948 48.6757 L573.948 72.576 L566.454 72.576 L566.454 27.2059 L573.948 27.2059 L573.948 34.2544 Q576.298 30.1225 580.065 28.1376 Q583.832 26.1121 589.22 26.1121 Q589.99 26.1121 590.921 26.2337 Q591.853 26.3147 592.987 26.5172 L593.028 34.1734 Z" fill="#000000" fill-rule="nonzero" fill-opacity="1" /><path clip-path="url(#clip920)" d="M627.541 12.096 L635.724 12.096 L635.724 65.6895 L665.174 65.6895 L665.174 72.576 L627.541 72.576 L627.541 12.096 Z" fill="#000000" fill-rule="nonzero" fill-opacity="1" /><path clip-path="url(#clip920)" d="M689.561 32.4315 Q683.565 32.4315 680.082 37.1306 Q676.598 41.7891 676.598 49.9314 Q676.598 58.0738 680.041 62.7728 Q683.525 67.4314 689.561 67.4314 Q695.516 67.4314 698.999 62.7323 Q702.483 58.0333 702.483 49.9314 Q702.483 41.8701 698.999 37.1711 Q695.516 32.4315 689.561 32.4315 M689.561 26.1121 Q699.283 26.1121 704.833 32.4315 Q710.382 38.7509 710.382 49.9314 Q710.382 61.0714 704.833 67.4314 Q699.283 73.7508 689.561 73.7508 Q679.798 73.7508 674.248 67.4314 Q668.739 61.0714 668.739 49.9314 Q668.739 38.7509 674.248 32.4315 Q679.798 26.1121 689.561 26.1121 Z" fill="#000000" fill-rule="nonzero" fill-opacity="1" /><path clip-path="url(#clip920)" d="M743.357 49.7694 Q734.323 49.7694 730.84 51.8354 Q727.356 53.9013 727.356 58.8839 Q727.356 62.8538 729.948 65.2034 Q732.581 67.5124 737.078 67.5124 Q743.276 67.5124 747.003 63.1374 Q750.77 58.7219 750.77 51.4303 L750.77 49.7694 L743.357 49.7694 M758.224 46.6907 L758.224 72.576 L750.77 72.576 L750.77 65.6895 Q748.218 69.8214 744.41 71.8063 Q740.602 73.7508 735.093 73.7508 Q728.125 73.7508 723.993 69.8619 Q719.902 65.9325 719.902 59.3701 Q719.902 51.7138 725.006 47.825 Q730.151 43.9361 740.319 43.9361 L750.77 43.9361 L750.77 43.2069 Q750.77 38.0623 747.367 35.2672 Q744.005 32.4315 737.888 32.4315 Q733.999 32.4315 730.313 33.3632 Q726.627 34.295 723.224 36.1584 L723.224 29.2718 Q727.315 27.692 731.164 26.9223 Q735.012 26.1121 738.658 26.1121 Q748.501 26.1121 753.363 31.2163 Q758.224 36.3204 758.224 46.6907 Z" fill="#000000" fill-rule="nonzero" fill-opacity="1" /><path clip-path="url(#clip920)" d="M803.432 34.0924 L803.432 9.54393 L810.885 9.54393 L810.885 72.576 L803.432 72.576 L803.432 65.7705 Q801.082 69.8214 797.477 71.8063 Q793.912 73.7508 788.889 73.7508 Q780.666 73.7508 775.48 67.1883 Q770.336 60.6258 770.336 49.9314 Q770.336 39.2371 775.48 32.6746 Q780.666 26.1121 788.889 26.1121 Q793.912 26.1121 797.477 28.0971 Q801.082 30.0415 803.432 34.0924 M778.033 49.9314 Q778.033 58.1548 781.395 62.8538 Q784.798 67.5124 790.712 67.5124 Q796.626 67.5124 800.029 62.8538 Q803.432 58.1548 803.432 49.9314 Q803.432 41.7081 800.029 37.0496 Q796.626 32.3505 790.712 32.3505 Q784.798 32.3505 781.395 37.0496 Q778.033 41.7081 778.033 49.9314 Z" fill="#000000" fill-rule="nonzero" fill-opacity="1" /><path clip-path="url(#clip920)" d="M847.546 12.096 L855.81 12.096 L868.53 63.2184 L881.209 12.096 L890.405 12.096 L903.124 63.2184 L915.804 12.096 L924.108 12.096 L908.917 72.576 L898.628 72.576 L885.868 20.0763 L872.986 72.576 L862.696 72.576 L847.546 12.096 Z" fill="#000000" fill-rule="nonzero" fill-opacity="1" /><path clip-path="url(#clip920)" d="M968.587 48.0275 L968.587 51.6733 L934.316 51.6733 Q934.803 59.3701 938.934 63.421 Q943.107 67.4314 950.52 67.4314 Q954.814 67.4314 958.824 66.3781 Q962.875 65.3249 966.845 63.2184 L966.845 70.267 Q962.835 71.9684 958.622 72.8596 Q954.409 73.7508 950.074 73.7508 Q939.218 73.7508 932.858 67.4314 Q926.539 61.1119 926.539 50.3365 Q926.539 39.1965 932.534 32.6746 Q938.57 26.1121 948.778 26.1121 Q957.933 26.1121 963.24 32.0264 Q968.587 37.9003 968.587 48.0275 M961.133 45.84 Q961.052 39.7232 957.69 36.0774 Q954.368 32.4315 948.859 32.4315 Q942.621 32.4315 938.853 35.9558 Q935.127 39.4801 934.559 45.8805 L961.133 45.84 Z" fill="#000000" fill-rule="nonzero" fill-opacity="1" /><path clip-path="url(#clip920)" d="M980.821 27.2059 L988.274 27.2059 L988.274 72.576 L980.821 72.576 L980.821 27.2059 M980.821 9.54393 L988.274 9.54393 L988.274 18.9825 L980.821 18.9825 L980.821 9.54393 Z" fill="#000000" fill-rule="nonzero" fill-opacity="1" /><path clip-path="url(#clip920)" d="M1033.73 49.3643 Q1033.73 41.2625 1030.36 36.8065 Q1027.04 32.3505 1021.01 32.3505 Q1015.01 32.3505 1011.65 36.8065 Q1008.33 41.2625 1008.33 49.3643 Q1008.33 57.4256 1011.65 61.8816 Q1015.01 66.3376 1021.01 66.3376 Q1027.04 66.3376 1030.36 61.8816 Q1033.73 57.4256 1033.73 49.3643 M1041.18 66.9452 Q1041.18 78.5308 1036.03 84.1616 Q1030.89 89.8329 1020.28 89.8329 Q1016.35 89.8329 1012.86 89.2252 Q1009.38 88.6581 1006.1 87.4428 L1006.1 80.1917 Q1009.38 81.9741 1012.58 82.8248 Q1015.78 83.6755 1019.1 83.6755 Q1026.43 83.6755 1030.08 79.8271 Q1033.73 76.0193 1033.73 68.282 L1033.73 64.5957 Q1031.42 68.6061 1027.81 70.5911 Q1024.21 72.576 1019.18 72.576 Q1010.84 72.576 1005.73 66.2161 Q1000.63 59.8562 1000.63 49.3643 Q1000.63 38.832 1005.73 32.472 Q1010.84 26.1121 1019.18 26.1121 Q1024.21 26.1121 1027.81 28.0971 Q1031.42 30.082 1033.73 34.0924 L1033.73 27.2059 L1041.18 27.2059 L1041.18 66.9452 Z" fill="#000000" fill-rule="nonzero" fill-opacity="1" /><path clip-path="url(#clip920)" d="M1094.25 45.1919 L1094.25 72.576 L1086.79 72.576 L1086.79 45.4349 Q1086.79 38.994 1084.28 35.7938 Q1081.77 32.5936 1076.75 32.5936 Q1070.71 32.5936 1067.23 36.4419 Q1063.74 40.2903 1063.74 46.9338 L1063.74 72.576 L1056.25 72.576 L1056.25 9.54393 L1063.74 9.54393 L1063.74 34.2544 Q1066.42 30.163 1070.02 28.1376 Q1073.67 26.1121 1078.41 26.1121 Q1086.23 26.1121 1090.24 30.9732 Q1094.25 35.7938 1094.25 45.1919 Z" fill="#000000" fill-rule="nonzero" fill-opacity="1" /><path clip-path="url(#clip920)" d="M1116.49 14.324 L1116.49 27.2059 L1131.84 27.2059 L1131.84 32.9987 L1116.49 32.9987 L1116.49 57.6282 Q1116.49 63.1779 1117.98 64.7578 Q1119.52 66.3376 1124.18 66.3376 L1131.84 66.3376 L1131.84 72.576 L1124.18 72.576 Q1115.55 72.576 1112.27 69.3758 Q1108.99 66.1351 1108.99 57.6282 L1108.99 32.9987 L1103.52 32.9987 L1103.52 27.2059 L1108.99 27.2059 L1108.99 14.324 L1116.49 14.324 Z" fill="#000000" fill-rule="nonzero" fill-opacity="1" /><path clip-path="url(#clip920)" d="M1170.57 28.5427 L1170.57 35.5912 Q1167.41 33.9709 1164 33.1607 Q1160.6 32.3505 1156.95 32.3505 Q1151.4 32.3505 1148.61 34.0519 Q1145.85 35.7533 1145.85 39.156 Q1145.85 41.7486 1147.84 43.2475 Q1149.82 44.7058 1155.82 46.0426 L1158.37 46.6097 Q1166.31 48.3111 1169.63 51.4303 Q1173 54.509 1173 60.0587 Q1173 66.3781 1167.97 70.0644 Q1162.99 73.7508 1154.24 73.7508 Q1150.59 73.7508 1146.62 73.0216 Q1142.69 72.3329 1138.32 70.9151 L1138.32 63.2184 Q1142.45 65.3654 1146.46 66.4591 Q1150.47 67.5124 1154.4 67.5124 Q1159.67 67.5124 1162.5 65.73 Q1165.34 63.9071 1165.34 60.6258 Q1165.34 57.5877 1163.27 55.9673 Q1161.25 54.3469 1154.32 52.8481 L1151.73 52.2405 Q1144.8 50.7821 1141.72 47.7845 Q1138.64 44.7463 1138.64 39.4801 Q1138.64 33.0797 1143.18 29.5959 Q1147.72 26.1121 1156.06 26.1121 Q1160.19 26.1121 1163.84 26.7198 Q1167.49 27.3274 1170.57 28.5427 Z" fill="#000000" fill-rule="nonzero" fill-opacity="1" /><path clip-path="url(#clip920)" d="M1218.45 65.7705 L1218.45 89.8329 L1210.95 89.8329 L1210.95 27.2059 L1218.45 27.2059 L1218.45 34.0924 Q1220.8 30.0415 1224.36 28.0971 Q1227.97 26.1121 1232.95 26.1121 Q1241.21 26.1121 1246.36 32.6746 Q1251.54 39.2371 1251.54 49.9314 Q1251.54 60.6258 1246.36 67.1883 Q1241.21 73.7508 1232.95 73.7508 Q1227.97 73.7508 1224.36 71.8063 Q1220.8 69.8214 1218.45 65.7705 M1243.81 49.9314 Q1243.81 41.7081 1240.4 37.0496 Q1237.04 32.3505 1231.13 32.3505 Q1225.21 32.3505 1221.81 37.0496 Q1218.45 41.7081 1218.45 49.9314 Q1218.45 58.1548 1221.81 62.8538 Q1225.21 67.5124 1231.13 67.5124 Q1237.04 67.5124 1240.4 62.8538 Q1243.81 58.1548 1243.81 49.9314 Z" fill="#000000" fill-rule="nonzero" fill-opacity="1" /><path clip-path="url(#clip920)" d="M1302.71 48.0275 L1302.71 51.6733 L1268.44 51.6733 Q1268.92 59.3701 1273.05 63.421 Q1277.23 67.4314 1284.64 67.4314 Q1288.93 67.4314 1292.94 66.3781 Q1296.99 65.3249 1300.96 63.2184 L1300.96 70.267 Q1296.95 71.9684 1292.74 72.8596 Q1288.53 73.7508 1284.19 73.7508 Q1273.34 73.7508 1266.98 67.4314 Q1260.66 61.1119 1260.66 50.3365 Q1260.66 39.1965 1266.65 32.6746 Q1272.69 26.1121 1282.9 26.1121 Q1292.05 26.1121 1297.36 32.0264 Q1302.71 37.9003 1302.71 48.0275 M1295.25 45.84 Q1295.17 39.7232 1291.81 36.0774 Q1288.49 32.4315 1282.98 32.4315 Q1276.74 32.4315 1272.97 35.9558 Q1269.25 39.4801 1268.68 45.8805 L1295.25 45.84 Z" fill="#000000" fill-rule="nonzero" fill-opacity="1" /><path clip-path="url(#clip920)" d="M1341.23 34.1734 Q1339.97 33.4443 1338.48 33.1202 Q1337.02 32.7556 1335.23 32.7556 Q1328.92 32.7556 1325.51 36.8875 Q1322.15 40.9789 1322.15 48.6757 L1322.15 72.576 L1314.66 72.576 L1314.66 27.2059 L1322.15 27.2059 L1322.15 34.2544 Q1324.5 30.1225 1328.27 28.1376 Q1332.03 26.1121 1337.42 26.1121 Q1338.19 26.1121 1339.12 26.2337 Q1340.06 26.3147 1341.19 26.5172 L1341.23 34.1734 Z" fill="#000000" fill-rule="nonzero" fill-opacity="1" /><path clip-path="url(#clip920)" d="M1375.74 12.096 L1383.93 12.096 L1383.93 65.6895 L1413.38 65.6895 L1413.38 72.576 L1375.74 72.576 L1375.74 12.096 Z" fill="#000000" fill-rule="nonzero" fill-opacity="1" /><path clip-path="url(#clip920)" d="M1437.76 32.4315 Q1431.77 32.4315 1428.28 37.1306 Q1424.8 41.7891 1424.8 49.9314 Q1424.8 58.0738 1428.24 62.7728 Q1431.73 67.4314 1437.76 67.4314 Q1443.72 67.4314 1447.2 62.7323 Q1450.69 58.0333 1450.69 49.9314 Q1450.69 41.8701 1447.2 37.1711 Q1443.72 32.4315 1437.76 32.4315 M1437.76 26.1121 Q1447.48 26.1121 1453.03 32.4315 Q1458.58 38.7509 1458.58 49.9314 Q1458.58 61.0714 1453.03 67.4314 Q1447.48 73.7508 1437.76 73.7508 Q1428 73.7508 1422.45 67.4314 Q1416.94 61.0714 1416.94 49.9314 Q1416.94 38.7509 1422.45 32.4315 Q1428 26.1121 1437.76 26.1121 Z" fill="#000000" fill-rule="nonzero" fill-opacity="1" /><path clip-path="url(#clip920)" d="M1491.56 49.7694 Q1482.53 49.7694 1479.04 51.8354 Q1475.56 53.9013 1475.56 58.8839 Q1475.56 62.8538 1478.15 65.2034 Q1480.78 67.5124 1485.28 67.5124 Q1491.48 67.5124 1495.2 63.1374 Q1498.97 58.7219 1498.97 51.4303 L1498.97 49.7694 L1491.56 49.7694 M1506.43 46.6907 L1506.43 72.576 L1498.97 72.576 L1498.97 65.6895 Q1496.42 69.8214 1492.61 71.8063 Q1488.8 73.7508 1483.29 73.7508 Q1476.33 73.7508 1472.2 69.8619 Q1468.1 65.9325 1468.1 59.3701 Q1468.1 51.7138 1473.21 47.825 Q1478.35 43.9361 1488.52 43.9361 L1498.97 43.9361 L1498.97 43.2069 Q1498.97 38.0623 1495.57 35.2672 Q1492.21 32.4315 1486.09 32.4315 Q1482.2 32.4315 1478.51 33.3632 Q1474.83 34.295 1471.43 36.1584 L1471.43 29.2718 Q1475.52 27.692 1479.37 26.9223 Q1483.21 26.1121 1486.86 26.1121 Q1496.7 26.1121 1501.56 31.2163 Q1506.43 36.3204 1506.43 46.6907 Z" fill="#000000" fill-rule="nonzero" fill-opacity="1" /><path clip-path="url(#clip920)" d="M1551.63 34.0924 L1551.63 9.54393 L1559.09 9.54393 L1559.09 72.576 L1551.63 72.576 L1551.63 65.7705 Q1549.28 69.8214 1545.68 71.8063 Q1542.11 73.7508 1537.09 73.7508 Q1528.87 73.7508 1523.68 67.1883 Q1518.54 60.6258 1518.54 49.9314 Q1518.54 39.2371 1523.68 32.6746 Q1528.87 26.1121 1537.09 26.1121 Q1542.11 26.1121 1545.68 28.0971 Q1549.28 30.0415 1551.63 34.0924 M1526.23 49.9314 Q1526.23 58.1548 1529.6 62.8538 Q1533 67.5124 1538.91 67.5124 Q1544.83 67.5124 1548.23 62.8538 Q1551.63 58.1548 1551.63 49.9314 Q1551.63 41.7081 1548.23 37.0496 Q1544.83 32.3505 1538.91 32.3505 Q1533 32.3505 1529.6 37.0496 Q1526.23 41.7081 1526.23 49.9314 Z" fill="#000000" fill-rule="nonzero" fill-opacity="1" /><path clip-path="url(#clip920)" d="M1597.04 46.5287 L1618.88 46.5287 L1618.88 53.1722 L1597.04 53.1722 L1597.04 46.5287 Z" fill="#000000" fill-rule="nonzero" fill-opacity="1" /><path clip-path="url(#clip920)" d="M1657.44 12.096 L1665.63 12.096 L1665.63 72.576 L1657.44 72.576 L1657.44 12.096 Z" fill="#000000" fill-rule="nonzero" fill-opacity="1" /><path clip-path="url(#clip920)" d="M1688.96 14.324 L1688.96 27.2059 L1704.31 27.2059 L1704.31 32.9987 L1688.96 32.9987 L1688.96 57.6282 Q1688.96 63.1779 1690.46 64.7578 Q1692 66.3376 1696.66 66.3376 L1704.31 66.3376 L1704.31 72.576 L1696.66 72.576 Q1688.03 72.576 1684.75 69.3758 Q1681.47 66.1351 1681.47 57.6282 L1681.47 32.9987 L1676 32.9987 L1676 27.2059 L1681.47 27.2059 L1681.47 14.324 L1688.96 14.324 Z" fill="#000000" fill-rule="nonzero" fill-opacity="1" /><path clip-path="url(#clip920)" d="M1752.92 48.0275 L1752.92 51.6733 L1718.65 51.6733 Q1719.14 59.3701 1723.27 63.421 Q1727.44 67.4314 1734.86 67.4314 Q1739.15 67.4314 1743.16 66.3781 Q1747.21 65.3249 1751.18 63.2184 L1751.18 70.267 Q1747.17 71.9684 1742.96 72.8596 Q1738.75 73.7508 1734.41 73.7508 Q1723.55 73.7508 1717.19 67.4314 Q1710.87 61.1119 1710.87 50.3365 Q1710.87 39.1965 1716.87 32.6746 Q1722.91 26.1121 1733.11 26.1121 Q1742.27 26.1121 1747.58 32.0264 Q1752.92 37.9003 1752.92 48.0275 M1745.47 45.84 Q1745.39 39.7232 1742.03 36.0774 Q1738.7 32.4315 1733.2 32.4315 Q1726.96 32.4315 1723.19 35.9558 Q1719.46 39.4801 1718.9 45.8805 L1745.47 45.84 Z" fill="#000000" fill-rule="nonzero" fill-opacity="1" /><path clip-path="url(#clip920)" d="M1791.45 34.1734 Q1790.19 33.4443 1788.69 33.1202 Q1787.23 32.7556 1785.45 32.7556 Q1779.13 32.7556 1775.73 36.8875 Q1772.37 40.9789 1772.37 48.6757 L1772.37 72.576 L1764.87 72.576 L1764.87 27.2059 L1772.37 27.2059 L1772.37 34.2544 Q1774.72 30.1225 1778.48 28.1376 Q1782.25 26.1121 1787.64 26.1121 Q1788.41 26.1121 1789.34 26.2337 Q1790.27 26.3147 1791.41 26.5172 L1791.45 34.1734 Z" fill="#000000" fill-rule="nonzero" fill-opacity="1" /><path clip-path="url(#clip920)" d="M1819.88 49.7694 Q1810.85 49.7694 1807.37 51.8354 Q1803.88 53.9013 1803.88 58.8839 Q1803.88 62.8538 1806.48 65.2034 Q1809.11 67.5124 1813.61 67.5124 Q1819.8 67.5124 1823.53 63.1374 Q1827.3 58.7219 1827.3 51.4303 L1827.3 49.7694 L1819.88 49.7694 M1834.75 46.6907 L1834.75 72.576 L1827.3 72.576 L1827.3 65.6895 Q1824.75 69.8214 1820.94 71.8063 Q1817.13 73.7508 1811.62 73.7508 Q1804.65 73.7508 1800.52 69.8619 Q1796.43 65.9325 1796.43 59.3701 Q1796.43 51.7138 1801.53 47.825 Q1806.68 43.9361 1816.85 43.9361 L1827.3 43.9361 L1827.3 43.2069 Q1827.3 38.0623 1823.9 35.2672 Q1820.53 32.4315 1814.42 32.4315 Q1810.53 32.4315 1806.84 33.3632 Q1803.15 34.295 1799.75 36.1584 L1799.75 29.2718 Q1803.84 27.692 1807.69 26.9223 Q1811.54 26.1121 1815.19 26.1121 Q1825.03 26.1121 1829.89 31.2163 Q1834.75 36.3204 1834.75 46.6907 Z" fill="#000000" fill-rule="nonzero" fill-opacity="1" /><path clip-path="url(#clip920)" d="M1857.48 14.324 L1857.48 27.2059 L1872.83 27.2059 L1872.83 32.9987 L1857.48 32.9987 L1857.48 57.6282 Q1857.48 63.1779 1858.98 64.7578 Q1860.52 66.3376 1865.17 66.3376 L1872.83 66.3376 L1872.83 72.576 L1865.17 72.576 Q1856.55 72.576 1853.26 69.3758 Q1849.98 66.1351 1849.98 57.6282 L1849.98 32.9987 L1844.51 32.9987 L1844.51 27.2059 L1849.98 27.2059 L1849.98 14.324 L1857.48 14.324 Z" fill="#000000" fill-rule="nonzero" fill-opacity="1" /><path clip-path="url(#clip920)" d="M1882.63 27.2059 L1890.09 27.2059 L1890.09 72.576 L1882.63 72.576 L1882.63 27.2059 M1882.63 9.54393 L1890.09 9.54393 L1890.09 18.9825 L1882.63 18.9825 L1882.63 9.54393 Z" fill="#000000" fill-rule="nonzero" fill-opacity="1" /><path clip-path="url(#clip920)" d="M1923.26 32.4315 Q1917.27 32.4315 1913.78 37.1306 Q1910.3 41.7891 1910.3 49.9314 Q1910.3 58.0738 1913.74 62.7728 Q1917.23 67.4314 1923.26 67.4314 Q1929.22 67.4314 1932.7 62.7323 Q1936.19 58.0333 1936.19 49.9314 Q1936.19 41.8701 1932.7 37.1711 Q1929.22 32.4315 1923.26 32.4315 M1923.26 26.1121 Q1932.99 26.1121 1938.54 32.4315 Q1944.09 38.7509 1944.09 49.9314 Q1944.09 61.0714 1938.54 67.4314 Q1932.99 73.7508 1923.26 73.7508 Q1913.5 73.7508 1907.95 67.4314 Q1902.44 61.0714 1902.44 49.9314 Q1902.44 38.7509 1907.95 32.4315 Q1913.5 26.1121 1923.26 26.1121 Z" fill="#000000" fill-rule="nonzero" fill-opacity="1" /><path clip-path="url(#clip920)" d="M1994.15 45.1919 L1994.15 72.576 L1986.7 72.576 L1986.7 45.4349 Q1986.7 38.994 1984.19 35.7938 Q1981.68 32.5936 1976.65 32.5936 Q1970.62 32.5936 1967.13 36.4419 Q1963.65 40.2903 1963.65 46.9338 L1963.65 72.576 L1956.16 72.576 L1956.16 27.2059 L1963.65 27.2059 L1963.65 34.2544 Q1966.32 30.163 1969.93 28.1376 Q1973.58 26.1121 1978.32 26.1121 Q1986.13 26.1121 1990.14 30.9732 Q1994.15 35.7938 1994.15 45.1919 Z" fill="#000000" fill-rule="nonzero" fill-opacity="1" /><path clip-path="url(#clip920)" d="M2054.96 39.075 Q2049.45 39.075 2046.21 42.8424 Q2043.01 46.6097 2043.01 53.1722 Q2043.01 59.6941 2046.21 63.502 Q2049.45 67.2693 2054.96 67.2693 Q2060.47 67.2693 2063.67 63.502 Q2066.91 59.6941 2066.91 53.1722 Q2066.91 46.6097 2063.67 42.8424 Q2060.47 39.075 2054.96 39.075 M2071.2 13.4328 L2071.2 20.8865 Q2068.12 19.4281 2064.96 18.6585 Q2061.85 17.8888 2058.77 17.8888 Q2050.66 17.8888 2046.37 23.3575 Q2042.12 28.8262 2041.51 39.8852 Q2043.9 36.3609 2047.5 34.4975 Q2051.11 32.5936 2055.44 32.5936 Q2064.56 32.5936 2069.83 38.1433 Q2075.13 43.6525 2075.13 53.1722 Q2075.13 62.4892 2069.62 68.12 Q2064.11 73.7508 2054.96 73.7508 Q2044.47 73.7508 2038.92 65.73 Q2033.37 57.6687 2033.37 42.3968 Q2033.37 28.0566 2040.17 19.5497 Q2046.98 11.0023 2058.44 11.0023 Q2061.52 11.0023 2064.64 11.6099 Q2067.8 12.2175 2071.2 13.4328 Z" fill="#000000" fill-rule="nonzero" fill-opacity="1" /><path clip-path="url(#clip922)" d="M818.931 477.828 L818.931 1423.18 L923.676 1423.18 L923.676 477.828 L818.931 477.828 L818.931 477.828  Z" fill="#009af9" fill-rule="evenodd" fill-opacity="1"/>
<polyline clip-path="url(#clip922)" style="stroke:#000000; stroke-linecap:round; stroke-linejoin:round; stroke-width:4; stroke-opacity:1; fill:none" points="818.931,477.828 818.931,1423.18 923.676,1423.18 923.676,477.828 818.931,477.828 "/>
<path clip-path="url(#clip922)" d="M1735.46 435.798 L1735.46 1423.18 L1840.2 1423.18 L1840.2 435.798 L1735.46 435.798 L1735.46 435.798  Z" fill="#009af9" fill-rule="evenodd" fill-opacity="1"/>
<polyline clip-path="url(#clip922)" style="stroke:#000000; stroke-linecap:round; stroke-linejoin:round; stroke-width:4; stroke-opacity:1; fill:none" points="1735.46,435.798 1735.46,1423.18 1840.2,1423.18 1840.2,435.798 1735.46,435.798 "/>
<path clip-path="url(#clip922)" d="M1211.73 123.472 L1211.73 1423.18 L1316.47 1423.18 L1316.47 123.472 L1211.73 123.472 L1211.73 123.472  Z" fill="#009af9" fill-rule="evenodd" fill-opacity="1"/>
<polyline clip-path="url(#clip922)" style="stroke:#000000; stroke-linecap:round; stroke-linejoin:round; stroke-width:4; stroke-opacity:1; fill:none" points="1211.73,123.472 1211.73,1423.18 1316.47,1423.18 1316.47,123.472 1211.73,123.472 "/>
<path clip-path="url(#clip922)" d="M295.201 361.752 L295.201 1423.18 L399.947 1423.18 L399.947 361.752 L295.201 361.752 L295.201 361.752  Z" fill="#009af9" fill-rule="evenodd" fill-opacity="1"/>
<polyline clip-path="url(#clip922)" style="stroke:#000000; stroke-linecap:round; stroke-linejoin:round; stroke-width:4; stroke-opacity:1; fill:none" points="295.201,361.752 295.201,1423.18 399.947,1423.18 399.947,361.752 295.201,361.752 "/>
<path clip-path="url(#clip922)" d="M949.863 476.198 L949.863 1423.18 L1054.61 1423.18 L1054.61 476.198 L949.863 476.198 L949.863 476.198  Z" fill="#009af9" fill-rule="evenodd" fill-opacity="1"/>
<polyline clip-path="url(#clip922)" style="stroke:#000000; stroke-linecap:round; stroke-linejoin:round; stroke-width:4; stroke-opacity:1; fill:none" points="949.863,476.198 949.863,1423.18 1054.61,1423.18 1054.61,476.198 949.863,476.198 "/>
<path clip-path="url(#clip922)" d="M1604.52 370 L1604.52 1423.18 L1709.27 1423.18 L1709.27 370 L1604.52 370 L1604.52 370  Z" fill="#009af9" fill-rule="evenodd" fill-opacity="1"/>
<polyline clip-path="url(#clip922)" style="stroke:#000000; stroke-linecap:round; stroke-linejoin:round; stroke-width:4; stroke-opacity:1; fill:none" points="1604.52,370 1604.52,1423.18 1709.27,1423.18 1709.27,370 1604.52,370 "/>
<path clip-path="url(#clip922)" d="M1342.66 430.757 L1342.66 1423.18 L1447.41 1423.18 L1447.41 430.757 L1342.66 430.757 L1342.66 430.757  Z" fill="#009af9" fill-rule="evenodd" fill-opacity="1"/>
<polyline clip-path="url(#clip922)" style="stroke:#000000; stroke-linecap:round; stroke-linejoin:round; stroke-width:4; stroke-opacity:1; fill:none" points="1342.66,430.757 1342.66,1423.18 1447.41,1423.18 1447.41,430.757 1342.66,430.757 "/>
<path clip-path="url(#clip922)" d="M1997.32 424.996 L1997.32 1423.18 L2102.07 1423.18 L2102.07 424.996 L1997.32 424.996 L1997.32 424.996  Z" fill="#009af9" fill-rule="evenodd" fill-opacity="1"/>
<polyline clip-path="url(#clip922)" style="stroke:#000000; stroke-linecap:round; stroke-linejoin:round; stroke-width:4; stroke-opacity:1; fill:none" points="1997.32,424.996 1997.32,1423.18 2102.07,1423.18 2102.07,424.996 1997.32,424.996 "/>
<path clip-path="url(#clip922)" d="M557.066 1423.18 L557.066 1423.18 L661.812 1423.18 L661.812 1423.18 L557.066 1423.18 L557.066 1423.18  Z" fill="#009af9" fill-rule="evenodd" fill-opacity="1"/>
<polyline clip-path="url(#clip922)" style="stroke:#000000; stroke-linecap:round; stroke-linejoin:round; stroke-width:4; stroke-opacity:1; fill:none" points="557.066,1423.18 557.066,1423.18 661.812,1423.18 661.812,1423.18 557.066,1423.18 "/>
<path clip-path="url(#clip922)" d="M1080.8 522.147 L1080.8 1423.18 L1185.54 1423.18 L1185.54 522.147 L1080.8 522.147 L1080.8 522.147  Z" fill="#009af9" fill-rule="evenodd" fill-opacity="1"/>
<polyline clip-path="url(#clip922)" style="stroke:#000000; stroke-linecap:round; stroke-linejoin:round; stroke-width:4; stroke-opacity:1; fill:none" points="1080.8,522.147 1080.8,1423.18 1185.54,1423.18 1185.54,522.147 1080.8,522.147 "/>
<path clip-path="url(#clip922)" d="M687.998 212.591 L687.998 1423.18 L792.744 1423.18 L792.744 212.591 L687.998 212.591 L687.998 212.591  Z" fill="#009af9" fill-rule="evenodd" fill-opacity="1"/>
<polyline clip-path="url(#clip922)" style="stroke:#000000; stroke-linecap:round; stroke-linejoin:round; stroke-width:4; stroke-opacity:1; fill:none" points="687.998,212.591 687.998,1423.18 792.744,1423.18 792.744,212.591 687.998,212.591 "/>
<path clip-path="url(#clip922)" d="M1866.39 379.956 L1866.39 1423.18 L1971.14 1423.18 L1971.14 379.956 L1866.39 379.956 L1866.39 379.956  Z" fill="#009af9" fill-rule="evenodd" fill-opacity="1"/>
<polyline clip-path="url(#clip922)" style="stroke:#000000; stroke-linecap:round; stroke-linejoin:round; stroke-width:4; stroke-opacity:1; fill:none" points="1866.39,379.956 1866.39,1423.18 1971.14,1423.18 1971.14,379.956 1866.39,379.956 "/>
<path clip-path="url(#clip922)" d="M2128.25 535.681 L2128.25 1423.18 L2233 1423.18 L2233 535.681 L2128.25 535.681 L2128.25 535.681  Z" fill="#009af9" fill-rule="evenodd" fill-opacity="1"/>
<polyline clip-path="url(#clip922)" style="stroke:#000000; stroke-linecap:round; stroke-linejoin:round; stroke-width:4; stroke-opacity:1; fill:none" points="2128.25,535.681 2128.25,1423.18 2233,1423.18 2233,535.681 2128.25,535.681 "/>
<path clip-path="url(#clip922)" d="M426.134 440.837 L426.134 1423.18 L530.879 1423.18 L530.879 440.837 L426.134 440.837 L426.134 440.837  Z" fill="#009af9" fill-rule="evenodd" fill-opacity="1"/>
<polyline clip-path="url(#clip922)" style="stroke:#000000; stroke-linecap:round; stroke-linejoin:round; stroke-width:4; stroke-opacity:1; fill:none" points="426.134,440.837 426.134,1423.18 530.879,1423.18 530.879,440.837 426.134,440.837 "/>
<path clip-path="url(#clip922)" d="M1473.59 259.121 L1473.59 1423.18 L1578.34 1423.18 L1578.34 259.121 L1473.59 259.121 L1473.59 259.121  Z" fill="#009af9" fill-rule="evenodd" fill-opacity="1"/>
<polyline clip-path="url(#clip922)" style="stroke:#000000; stroke-linecap:round; stroke-linejoin:round; stroke-width:4; stroke-opacity:1; fill:none" points="1473.59,259.121 1473.59,1423.18 1578.34,1423.18 1578.34,259.121 1473.59,259.121 "/>
<circle clip-path="url(#clip922)" style="fill:#009af9; stroke:none; fill-opacity:0" cx="871.304" cy="477.828" r="2"/>
<circle clip-path="url(#clip922)" style="fill:#009af9; stroke:none; fill-opacity:0" cx="1787.83" cy="435.798" r="2"/>
<circle clip-path="url(#clip922)" style="fill:#009af9; stroke:none; fill-opacity:0" cx="1264.1" cy="123.472" r="2"/>
<circle clip-path="url(#clip922)" style="fill:#009af9; stroke:none; fill-opacity:0" cx="347.574" cy="361.752" r="2"/>
<circle clip-path="url(#clip922)" style="fill:#009af9; stroke:none; fill-opacity:0" cx="1002.24" cy="476.198" r="2"/>
<circle clip-path="url(#clip922)" style="fill:#009af9; stroke:none; fill-opacity:0" cx="1656.9" cy="370" r="2"/>
<circle clip-path="url(#clip922)" style="fill:#009af9; stroke:none; fill-opacity:0" cx="1395.03" cy="430.757" r="2"/>
<circle clip-path="url(#clip922)" style="fill:#009af9; stroke:none; fill-opacity:0" cx="2049.69" cy="424.996" r="2"/>
<circle clip-path="url(#clip922)" style="fill:#009af9; stroke:none; fill-opacity:0" cx="609.439" cy="1423.18" r="2"/>
<circle clip-path="url(#clip922)" style="fill:#009af9; stroke:none; fill-opacity:0" cx="1133.17" cy="522.147" r="2"/>
<circle clip-path="url(#clip922)" style="fill:#009af9; stroke:none; fill-opacity:0" cx="740.371" cy="212.591" r="2"/>
<circle clip-path="url(#clip922)" style="fill:#009af9; stroke:none; fill-opacity:0" cx="1918.76" cy="379.956" r="2"/>
<circle clip-path="url(#clip922)" style="fill:#009af9; stroke:none; fill-opacity:0" cx="2180.63" cy="535.681" r="2"/>
<circle clip-path="url(#clip922)" style="fill:#009af9; stroke:none; fill-opacity:0" cx="478.506" cy="440.837" r="2"/>
<circle clip-path="url(#clip922)" style="fill:#009af9; stroke:none; fill-opacity:0" cx="1525.97" cy="259.121" r="2"/>
</svg>
