<?xml version="1.0" encoding="utf-8"?>
<svg xmlns="http://www.w3.org/2000/svg" xmlns:xlink="http://www.w3.org/1999/xlink" width="600" height="400" viewBox="0 0 2400 1600">
<defs>
  <clipPath id="clip650">
    <rect x="0" y="0" width="2400" height="1600"/>
  </clipPath>
</defs>
<path clip-path="url(#clip650)" d="M0 1600 L2400 1600 L2400 0 L0 0  Z" fill="#ffffff" fill-rule="evenodd" fill-opacity="1"/>
<defs>
  <clipPath id="clip651">
    <rect x="480" y="0" width="1681" height="1600"/>
  </clipPath>
</defs>
<path clip-path="url(#clip650)" d="M280.19 1423.18 L2352.76 1423.18 L2352.76 123.472 L280.19 123.472  Z" fill="#ffffff" fill-rule="evenodd" fill-opacity="1"/>
<defs>
  <clipPath id="clip652">
    <rect x="280" y="123" width="2074" height="1301"/>
  </clipPath>
</defs>
<polyline clip-path="url(#clip652)" style="stroke:#000000; stroke-linecap:round; stroke-linejoin:round; stroke-width:2; stroke-opacity:0.1; fill:none" points="319.405,1423.18 319.405,123.472 "/>
<polyline clip-path="url(#clip652)" style="stroke:#000000; stroke-linecap:round; stroke-linejoin:round; stroke-width:2; stroke-opacity:0.1; fill:none" points="942.572,1423.18 942.572,123.472 "/>
<polyline clip-path="url(#clip652)" style="stroke:#000000; stroke-linecap:round; stroke-linejoin:round; stroke-width:2; stroke-opacity:0.1; fill:none" points="1565.74,1423.18 1565.74,123.472 "/>
<polyline clip-path="url(#clip652)" style="stroke:#000000; stroke-linecap:round; stroke-linejoin:round; stroke-width:2; stroke-opacity:0.1; fill:none" points="2188.91,1423.18 2188.91,123.472 "/>
<polyline clip-path="url(#clip652)" style="stroke:#000000; stroke-linecap:round; stroke-linejoin:round; stroke-width:2; stroke-opacity:0.1; fill:none" points="280.19,1423.18 2352.76,1423.18 "/>
<polyline clip-path="url(#clip652)" style="stroke:#000000; stroke-linecap:round; stroke-linejoin:round; stroke-width:2; stroke-opacity:0.1; fill:none" points="280.19,1163.24 2352.76,1163.24 "/>
<polyline clip-path="url(#clip652)" style="stroke:#000000; stroke-linecap:round; stroke-linejoin:round; stroke-width:2; stroke-opacity:0.1; fill:none" points="280.19,903.296 2352.76,903.296 "/>
<polyline clip-path="url(#clip652)" style="stroke:#000000; stroke-linecap:round; stroke-linejoin:round; stroke-width:2; stroke-opacity:0.1; fill:none" points="280.19,643.354 2352.76,643.354 "/>
<polyline clip-path="url(#clip652)" style="stroke:#000000; stroke-linecap:round; stroke-linejoin:round; stroke-width:2; stroke-opacity:0.1; fill:none" points="280.19,383.413 2352.76,383.413 "/>
<polyline clip-path="url(#clip650)" style="stroke:#000000; stroke-linecap:round; stroke-linejoin:round; stroke-width:4; stroke-opacity:1; fill:none" points="280.19,1423.18 2352.76,1423.18 "/>
<polyline clip-path="url(#clip650)" style="stroke:#000000; stroke-linecap:round; stroke-linejoin:round; stroke-width:4; stroke-opacity:1; fill:none" points="319.405,1423.18 319.405,1404.28 "/>
<polyline clip-path="url(#clip650)" style="stroke:#000000; stroke-linecap:round; stroke-linejoin:round; stroke-width:4; stroke-opacity:1; fill:none" points="942.572,1423.18 942.572,1404.28 "/>
<polyline clip-path="url(#clip650)" style="stroke:#000000; stroke-linecap:round; stroke-linejoin:round; stroke-width:4; stroke-opacity:1; fill:none" points="1565.74,1423.18 1565.74,1404.28 "/>
<polyline clip-path="url(#clip650)" style="stroke:#000000; stroke-linecap:round; stroke-linejoin:round; stroke-width:4; stroke-opacity:1; fill:none" points="2188.91,1423.18 2188.91,1404.28 "/>
<path clip-path="url(#clip650)" d="M319.405 1454.1 Q315.794 1454.1 313.965 1457.66 Q312.159 1461.2 312.159 1468.33 Q312.159 1475.44 313.965 1479.01 Q315.794 1482.55 319.405 1482.55 Q323.039 1482.55 324.844 1479.01 Q326.673 1475.44 326.673 1468.33 Q326.673 1461.2 324.844 1457.66 Q323.039 1454.1 319.405 1454.1 M319.405 1450.39 Q325.215 1450.39 328.27 1455 Q331.349 1459.58 331.349 1468.33 Q331.349 1477.06 328.27 1481.67 Q325.215 1486.25 319.405 1486.25 Q313.595 1486.25 310.516 1481.67 Q307.46 1477.06 307.46 1468.33 Q307.46 1459.58 310.516 1455 Q313.595 1450.39 319.405 1450.39 Z" fill="#000000" fill-rule="nonzero" fill-opacity="1" /><path clip-path="url(#clip650)" d="M932.85 1451.02 L951.207 1451.02 L951.207 1454.96 L937.133 1454.96 L937.133 1463.43 Q938.151 1463.08 939.17 1462.92 Q940.188 1462.73 941.207 1462.73 Q946.994 1462.73 950.373 1465.9 Q953.753 1469.08 953.753 1474.49 Q953.753 1480.07 950.281 1483.17 Q946.808 1486.25 940.489 1486.25 Q938.313 1486.25 936.045 1485.88 Q933.799 1485.51 931.392 1484.77 L931.392 1480.07 Q933.475 1481.2 935.697 1481.76 Q937.92 1482.32 940.396 1482.32 Q944.401 1482.32 946.739 1480.21 Q949.077 1478.1 949.077 1474.49 Q949.077 1470.88 946.739 1468.77 Q944.401 1466.67 940.396 1466.67 Q938.521 1466.67 936.646 1467.08 Q934.795 1467.5 932.85 1468.38 L932.85 1451.02 Z" fill="#000000" fill-rule="nonzero" fill-opacity="1" /><path clip-path="url(#clip650)" d="M1540.43 1481.64 L1548.07 1481.64 L1548.07 1455.28 L1539.76 1456.95 L1539.76 1452.69 L1548.02 1451.02 L1552.7 1451.02 L1552.7 1481.64 L1560.33 1481.64 L1560.33 1485.58 L1540.43 1485.58 L1540.43 1481.64 Z" fill="#000000" fill-rule="nonzero" fill-opacity="1" /><path clip-path="url(#clip650)" d="M1579.78 1454.1 Q1576.17 1454.1 1574.34 1457.66 Q1572.53 1461.2 1572.53 1468.33 Q1572.53 1475.44 1574.34 1479.01 Q1576.17 1482.55 1579.78 1482.55 Q1583.41 1482.55 1585.22 1479.01 Q1587.05 1475.44 1587.05 1468.33 Q1587.05 1461.2 1585.22 1457.66 Q1583.41 1454.1 1579.78 1454.1 M1579.78 1450.39 Q1585.59 1450.39 1588.64 1455 Q1591.72 1459.58 1591.72 1468.33 Q1591.72 1477.06 1588.64 1481.67 Q1585.59 1486.25 1579.78 1486.25 Q1573.97 1486.25 1570.89 1481.67 Q1567.83 1477.06 1567.83 1468.33 Q1567.83 1459.58 1570.89 1455 Q1573.97 1450.39 1579.78 1450.39 Z" fill="#000000" fill-rule="nonzero" fill-opacity="1" /><path clip-path="url(#clip650)" d="M2164.09 1481.64 L2171.73 1481.64 L2171.73 1455.28 L2163.42 1456.95 L2163.42 1452.69 L2171.69 1451.02 L2176.36 1451.02 L2176.36 1481.64 L2184 1481.64 L2184 1485.58 L2164.09 1485.58 L2164.09 1481.64 Z" fill="#000000" fill-rule="nonzero" fill-opacity="1" /><path clip-path="url(#clip650)" d="M2193.49 1451.02 L2211.85 1451.02 L2211.85 1454.96 L2197.77 1454.96 L2197.77 1463.43 Q2198.79 1463.08 2199.81 1462.92 Q2200.83 1462.73 2201.85 1462.73 Q2207.63 1462.73 2211.01 1465.9 Q2214.39 1469.08 2214.39 1474.49 Q2214.39 1480.07 2210.92 1483.17 Q2207.45 1486.25 2201.13 1486.25 Q2198.95 1486.25 2196.69 1485.88 Q2194.44 1485.51 2192.03 1484.77 L2192.03 1480.07 Q2194.12 1481.2 2196.34 1481.76 Q2198.56 1482.32 2201.04 1482.32 Q2205.04 1482.32 2207.38 1480.21 Q2209.72 1478.1 2209.72 1474.49 Q2209.72 1470.88 2207.38 1468.77 Q2205.04 1466.67 2201.04 1466.67 Q2199.16 1466.67 2197.29 1467.08 Q2195.44 1467.5 2193.49 1468.38 L2193.49 1451.02 Z" fill="#000000" fill-rule="nonzero" fill-opacity="1" /><path clip-path="url(#clip650)" d="M1198.34 1520.52 L1204.77 1520.52 L1204.77 1562.63 L1227.91 1562.63 L1227.91 1568.04 L1198.34 1568.04 L1198.34 1520.52 Z" fill="#000000" fill-rule="nonzero" fill-opacity="1" /><path clip-path="url(#clip650)" d="M1247.07 1536.5 Q1242.36 1536.5 1239.62 1540.19 Q1236.89 1543.85 1236.89 1550.25 Q1236.89 1556.65 1239.59 1560.34 Q1242.33 1564 1247.07 1564 Q1251.75 1564 1254.49 1560.31 Q1257.22 1556.62 1257.22 1550.25 Q1257.22 1543.92 1254.49 1540.23 Q1251.75 1536.5 1247.07 1536.5 M1247.07 1531.54 Q1254.71 1531.54 1259.07 1536.5 Q1263.43 1541.47 1263.43 1550.25 Q1263.43 1559 1259.07 1564 Q1254.71 1568.97 1247.07 1568.97 Q1239.4 1568.97 1235.04 1564 Q1230.71 1559 1230.71 1550.25 Q1230.71 1541.47 1235.04 1536.5 Q1239.4 1531.54 1247.07 1531.54 Z" fill="#000000" fill-rule="nonzero" fill-opacity="1" /><path clip-path="url(#clip650)" d="M1289.34 1550.12 Q1282.24 1550.12 1279.5 1551.75 Q1276.77 1553.37 1276.77 1557.29 Q1276.77 1560.4 1278.8 1562.25 Q1280.87 1564.07 1284.41 1564.07 Q1289.28 1564.07 1292.2 1560.63 Q1295.16 1557.16 1295.16 1551.43 L1295.16 1550.12 L1289.34 1550.12 M1301.02 1547.71 L1301.02 1568.04 L1295.16 1568.04 L1295.16 1562.63 Q1293.16 1565.88 1290.17 1567.44 Q1287.17 1568.97 1282.85 1568.97 Q1277.37 1568.97 1274.13 1565.91 Q1270.91 1562.82 1270.91 1557.67 Q1270.91 1551.65 1274.92 1548.6 Q1278.96 1545.54 1286.95 1545.54 L1295.16 1545.54 L1295.16 1544.97 Q1295.16 1540.93 1292.49 1538.73 Q1289.85 1536.5 1285.04 1536.5 Q1281.99 1536.5 1279.09 1537.23 Q1276.19 1537.97 1273.52 1539.43 L1273.52 1534.02 Q1276.74 1532.78 1279.76 1532.17 Q1282.78 1531.54 1285.65 1531.54 Q1293.38 1531.54 1297.2 1535.55 Q1301.02 1539.56 1301.02 1547.71 Z" fill="#000000" fill-rule="nonzero" fill-opacity="1" /><path clip-path="url(#clip650)" d="M1336.54 1537.81 L1336.54 1518.52 L1342.4 1518.52 L1342.4 1568.04 L1336.54 1568.04 L1336.54 1562.7 Q1334.69 1565.88 1331.86 1567.44 Q1329.06 1568.97 1325.11 1568.97 Q1318.65 1568.97 1314.58 1563.81 Q1310.54 1558.65 1310.54 1550.25 Q1310.54 1541.85 1314.58 1536.69 Q1318.65 1531.54 1325.11 1531.54 Q1329.06 1531.54 1331.86 1533.1 Q1334.69 1534.62 1336.54 1537.81 M1316.58 1550.25 Q1316.58 1556.71 1319.23 1560.4 Q1321.9 1564.07 1326.55 1564.07 Q1331.19 1564.07 1333.87 1560.4 Q1336.54 1556.71 1336.54 1550.25 Q1336.54 1543.79 1333.87 1540.13 Q1331.19 1536.44 1326.55 1536.44 Q1321.9 1536.44 1319.23 1540.13 Q1316.58 1543.79 1316.58 1550.25 Z" fill="#000000" fill-rule="nonzero" fill-opacity="1" /><path clip-path="url(#clip650)" d="M1375.44 1520.52 L1381.86 1520.52 L1381.86 1568.04 L1375.44 1568.04 L1375.44 1520.52 Z" fill="#000000" fill-rule="nonzero" fill-opacity="1" /><path clip-path="url(#clip650)" d="M1401.09 1525.81 L1401.09 1562.76 L1408.86 1562.76 Q1418.69 1562.76 1423.24 1558.3 Q1427.83 1553.85 1427.83 1544.24 Q1427.83 1534.69 1423.24 1530.26 Q1418.69 1525.81 1408.86 1525.81 L1401.09 1525.81 M1394.66 1520.52 L1407.87 1520.52 Q1421.68 1520.52 1428.14 1526.28 Q1434.6 1532.01 1434.6 1544.24 Q1434.6 1556.52 1428.11 1562.28 Q1421.62 1568.04 1407.87 1568.04 L1394.66 1568.04 L1394.66 1520.52 Z" fill="#000000" fill-rule="nonzero" fill-opacity="1" /><polyline clip-path="url(#clip650)" style="stroke:#000000; stroke-linecap:round; stroke-linejoin:round; stroke-width:4; stroke-opacity:1; fill:none" points="280.19,1423.18 280.19,123.472 "/>
<polyline clip-path="url(#clip650)" style="stroke:#000000; stroke-linecap:round; stroke-linejoin:round; stroke-width:4; stroke-opacity:1; fill:none" points="280.19,1423.18 299.088,1423.18 "/>
<polyline clip-path="url(#clip650)" style="stroke:#000000; stroke-linecap:round; stroke-linejoin:round; stroke-width:4; stroke-opacity:1; fill:none" points="280.19,1163.24 299.088,1163.24 "/>
<polyline clip-path="url(#clip650)" style="stroke:#000000; stroke-linecap:round; stroke-linejoin:round; stroke-width:4; stroke-opacity:1; fill:none" points="280.19,903.296 299.088,903.296 "/>
<polyline clip-path="url(#clip650)" style="stroke:#000000; stroke-linecap:round; stroke-linejoin:round; stroke-width:4; stroke-opacity:1; fill:none" points="280.19,643.354 299.088,643.354 "/>
<polyline clip-path="url(#clip650)" style="stroke:#000000; stroke-linecap:round; stroke-linejoin:round; stroke-width:4; stroke-opacity:1; fill:none" points="280.19,383.413 299.088,383.413 "/>
<path clip-path="url(#clip650)" d="M126.691 1408.98 Q123.08 1408.98 121.251 1412.54 Q119.445 1416.08 119.445 1423.21 Q119.445 1430.32 121.251 1433.89 Q123.08 1437.43 126.691 1437.43 Q130.325 1437.43 132.13 1433.89 Q133.959 1430.32 133.959 1423.21 Q133.959 1416.08 132.13 1412.54 Q130.325 1408.98 126.691 1408.98 M126.691 1405.27 Q132.501 1405.27 135.556 1409.88 Q138.635 1414.46 138.635 1423.21 Q138.635 1431.94 135.556 1436.55 Q132.501 1441.13 126.691 1441.13 Q120.88 1441.13 117.802 1436.55 Q114.746 1431.94 114.746 1423.21 Q114.746 1414.46 117.802 1409.88 Q120.88 1405.27 126.691 1405.27 Z" fill="#000000" fill-rule="nonzero" fill-opacity="1" /><path clip-path="url(#clip650)" d="M146.853 1434.58 L151.737 1434.58 L151.737 1440.46 L146.853 1440.46 L146.853 1434.58 Z" fill="#000000" fill-rule="nonzero" fill-opacity="1" /><path clip-path="url(#clip650)" d="M171.922 1408.98 Q168.311 1408.98 166.482 1412.54 Q164.677 1416.08 164.677 1423.21 Q164.677 1430.32 166.482 1433.89 Q168.311 1437.43 171.922 1437.43 Q175.556 1437.43 177.362 1433.89 Q179.19 1430.32 179.19 1423.21 Q179.19 1416.08 177.362 1412.54 Q175.556 1408.98 171.922 1408.98 M171.922 1405.27 Q177.732 1405.27 180.788 1409.88 Q183.866 1414.46 183.866 1423.21 Q183.866 1431.94 180.788 1436.55 Q177.732 1441.13 171.922 1441.13 Q166.112 1441.13 163.033 1436.55 Q159.978 1431.94 159.978 1423.21 Q159.978 1414.46 163.033 1409.88 Q166.112 1405.27 171.922 1405.27 Z" fill="#000000" fill-rule="nonzero" fill-opacity="1" /><path clip-path="url(#clip650)" d="M202.084 1408.98 Q198.473 1408.98 196.644 1412.54 Q194.838 1416.08 194.838 1423.21 Q194.838 1430.32 196.644 1433.89 Q198.473 1437.43 202.084 1437.43 Q205.718 1437.43 207.524 1433.89 Q209.352 1430.32 209.352 1423.21 Q209.352 1416.08 207.524 1412.54 Q205.718 1408.98 202.084 1408.98 M202.084 1405.27 Q207.894 1405.27 210.949 1409.88 Q214.028 1414.46 214.028 1423.21 Q214.028 1431.94 210.949 1436.55 Q207.894 1441.13 202.084 1441.13 Q196.274 1441.13 193.195 1436.55 Q190.139 1431.94 190.139 1423.21 Q190.139 1414.46 193.195 1409.88 Q196.274 1405.27 202.084 1405.27 Z" fill="#000000" fill-rule="nonzero" fill-opacity="1" /><path clip-path="url(#clip650)" d="M232.246 1408.98 Q228.635 1408.98 226.806 1412.54 Q225 1416.08 225 1423.21 Q225 1430.32 226.806 1433.89 Q228.635 1437.43 232.246 1437.43 Q235.88 1437.43 237.685 1433.89 Q239.514 1430.32 239.514 1423.21 Q239.514 1416.08 237.685 1412.54 Q235.88 1408.98 232.246 1408.98 M232.246 1405.27 Q238.056 1405.27 241.111 1409.88 Q244.19 1414.46 244.19 1423.21 Q244.19 1431.94 241.111 1436.55 Q238.056 1441.13 232.246 1441.13 Q226.435 1441.13 223.357 1436.55 Q220.301 1431.94 220.301 1423.21 Q220.301 1414.46 223.357 1409.88 Q226.435 1405.27 232.246 1405.27 Z" fill="#000000" fill-rule="nonzero" fill-opacity="1" /><path clip-path="url(#clip650)" d="M128.288 1149.04 Q124.677 1149.04 122.848 1152.6 Q121.043 1156.14 121.043 1163.27 Q121.043 1170.38 122.848 1173.94 Q124.677 1177.49 128.288 1177.49 Q131.922 1177.49 133.728 1173.94 Q135.556 1170.38 135.556 1163.27 Q135.556 1156.14 133.728 1152.6 Q131.922 1149.04 128.288 1149.04 M128.288 1145.33 Q134.098 1145.33 137.154 1149.94 Q140.232 1154.52 140.232 1163.27 Q140.232 1172 137.154 1176.61 Q134.098 1181.19 128.288 1181.19 Q122.478 1181.19 119.399 1176.61 Q116.343 1172 116.343 1163.27 Q116.343 1154.52 119.399 1149.94 Q122.478 1145.33 128.288 1145.33 Z" fill="#000000" fill-rule="nonzero" fill-opacity="1" /><path clip-path="url(#clip650)" d="M148.45 1174.64 L153.334 1174.64 L153.334 1180.52 L148.45 1180.52 L148.45 1174.64 Z" fill="#000000" fill-rule="nonzero" fill-opacity="1" /><path clip-path="url(#clip650)" d="M173.519 1149.04 Q169.908 1149.04 168.079 1152.6 Q166.274 1156.14 166.274 1163.27 Q166.274 1170.38 168.079 1173.94 Q169.908 1177.49 173.519 1177.49 Q177.153 1177.49 178.959 1173.94 Q180.788 1170.38 180.788 1163.27 Q180.788 1156.14 178.959 1152.6 Q177.153 1149.04 173.519 1149.04 M173.519 1145.33 Q179.329 1145.33 182.385 1149.94 Q185.463 1154.52 185.463 1163.27 Q185.463 1172 182.385 1176.61 Q179.329 1181.19 173.519 1181.19 Q167.709 1181.19 164.63 1176.61 Q161.575 1172 161.575 1163.27 Q161.575 1154.52 164.63 1149.94 Q167.709 1145.33 173.519 1145.33 Z" fill="#000000" fill-rule="nonzero" fill-opacity="1" /><path clip-path="url(#clip650)" d="M203.681 1149.04 Q200.07 1149.04 198.241 1152.6 Q196.436 1156.14 196.436 1163.27 Q196.436 1170.38 198.241 1173.94 Q200.07 1177.49 203.681 1177.49 Q207.315 1177.49 209.121 1173.94 Q210.949 1170.38 210.949 1163.27 Q210.949 1156.14 209.121 1152.6 Q207.315 1149.04 203.681 1149.04 M203.681 1145.33 Q209.491 1145.33 212.547 1149.94 Q215.625 1154.52 215.625 1163.27 Q215.625 1172 212.547 1176.61 Q209.491 1181.19 203.681 1181.19 Q197.871 1181.19 194.792 1176.61 Q191.737 1172 191.737 1163.27 Q191.737 1154.52 194.792 1149.94 Q197.871 1145.33 203.681 1145.33 Z" fill="#000000" fill-rule="nonzero" fill-opacity="1" /><path clip-path="url(#clip650)" d="M227.871 1176.58 L244.19 1176.58 L244.19 1180.52 L222.246 1180.52 L222.246 1176.58 Q224.908 1173.83 229.491 1169.2 Q234.097 1164.55 235.278 1163.2 Q237.523 1160.68 238.403 1158.94 Q239.306 1157.18 239.306 1155.5 Q239.306 1152.74 237.361 1151 Q235.44 1149.27 232.338 1149.27 Q230.139 1149.27 227.685 1150.03 Q225.255 1150.8 222.477 1152.35 L222.477 1147.62 Q225.301 1146.49 227.755 1145.91 Q230.209 1145.33 232.246 1145.33 Q237.616 1145.33 240.81 1148.02 Q244.005 1150.7 244.005 1155.19 Q244.005 1157.32 243.195 1159.25 Q242.408 1161.14 240.301 1163.74 Q239.722 1164.41 236.621 1167.62 Q233.519 1170.82 227.871 1176.58 Z" fill="#000000" fill-rule="nonzero" fill-opacity="1" /><path clip-path="url(#clip650)" d="M126.205 889.095 Q122.593 889.095 120.765 892.66 Q118.959 896.201 118.959 903.331 Q118.959 910.437 120.765 914.002 Q122.593 917.544 126.205 917.544 Q129.839 917.544 131.644 914.002 Q133.473 910.437 133.473 903.331 Q133.473 896.201 131.644 892.66 Q129.839 889.095 126.205 889.095 M126.205 885.391 Q132.015 885.391 135.07 889.998 Q138.149 894.581 138.149 903.331 Q138.149 912.058 135.07 916.664 Q132.015 921.248 126.205 921.248 Q120.394 921.248 117.316 916.664 Q114.26 912.058 114.26 903.331 Q114.26 894.581 117.316 889.998 Q120.394 885.391 126.205 885.391 Z" fill="#000000" fill-rule="nonzero" fill-opacity="1" /><path clip-path="url(#clip650)" d="M146.366 914.697 L151.251 914.697 L151.251 920.576 L146.366 920.576 L146.366 914.697 Z" fill="#000000" fill-rule="nonzero" fill-opacity="1" /><path clip-path="url(#clip650)" d="M171.436 889.095 Q167.825 889.095 165.996 892.66 Q164.19 896.201 164.19 903.331 Q164.19 910.437 165.996 914.002 Q167.825 917.544 171.436 917.544 Q175.07 917.544 176.876 914.002 Q178.704 910.437 178.704 903.331 Q178.704 896.201 176.876 892.66 Q175.07 889.095 171.436 889.095 M171.436 885.391 Q177.246 885.391 180.301 889.998 Q183.38 894.581 183.38 903.331 Q183.38 912.058 180.301 916.664 Q177.246 921.248 171.436 921.248 Q165.626 921.248 162.547 916.664 Q159.491 912.058 159.491 903.331 Q159.491 894.581 162.547 889.998 Q165.626 885.391 171.436 885.391 Z" fill="#000000" fill-rule="nonzero" fill-opacity="1" /><path clip-path="url(#clip650)" d="M201.598 889.095 Q197.987 889.095 196.158 892.66 Q194.352 896.201 194.352 903.331 Q194.352 910.437 196.158 914.002 Q197.987 917.544 201.598 917.544 Q205.232 917.544 207.037 914.002 Q208.866 910.437 208.866 903.331 Q208.866 896.201 207.037 892.66 Q205.232 889.095 201.598 889.095 M201.598 885.391 Q207.408 885.391 210.463 889.998 Q213.542 894.581 213.542 903.331 Q213.542 912.058 210.463 916.664 Q207.408 921.248 201.598 921.248 Q195.787 921.248 192.709 916.664 Q189.653 912.058 189.653 903.331 Q189.653 894.581 192.709 889.998 Q195.787 885.391 201.598 885.391 Z" fill="#000000" fill-rule="nonzero" fill-opacity="1" /><path clip-path="url(#clip650)" d="M234.607 890.09 L222.801 908.539 L234.607 908.539 L234.607 890.09 M233.38 886.016 L239.259 886.016 L239.259 908.539 L244.19 908.539 L244.19 912.428 L239.259 912.428 L239.259 920.576 L234.607 920.576 L234.607 912.428 L219.005 912.428 L219.005 907.914 L233.38 886.016 Z" fill="#000000" fill-rule="nonzero" fill-opacity="1" /><path clip-path="url(#clip650)" d="M126.529 629.153 Q122.918 629.153 121.089 632.718 Q119.283 636.26 119.283 643.389 Q119.283 650.496 121.089 654.06 Q122.918 657.602 126.529 657.602 Q130.163 657.602 131.968 654.06 Q133.797 650.496 133.797 643.389 Q133.797 636.26 131.968 632.718 Q130.163 629.153 126.529 629.153 M126.529 625.449 Q132.339 625.449 135.394 630.056 Q138.473 634.639 138.473 643.389 Q138.473 652.116 135.394 656.722 Q132.339 661.306 126.529 661.306 Q120.718 661.306 117.64 656.722 Q114.584 652.116 114.584 643.389 Q114.584 634.639 117.64 630.056 Q120.718 625.449 126.529 625.449 Z" fill="#000000" fill-rule="nonzero" fill-opacity="1" /><path clip-path="url(#clip650)" d="M146.691 654.755 L151.575 654.755 L151.575 660.634 L146.691 660.634 L146.691 654.755 Z" fill="#000000" fill-rule="nonzero" fill-opacity="1" /><path clip-path="url(#clip650)" d="M171.76 629.153 Q168.149 629.153 166.32 632.718 Q164.515 636.26 164.515 643.389 Q164.515 650.496 166.32 654.06 Q168.149 657.602 171.76 657.602 Q175.394 657.602 177.2 654.06 Q179.028 650.496 179.028 643.389 Q179.028 636.26 177.2 632.718 Q175.394 629.153 171.76 629.153 M171.76 625.449 Q177.57 625.449 180.626 630.056 Q183.704 634.639 183.704 643.389 Q183.704 652.116 180.626 656.722 Q177.57 661.306 171.76 661.306 Q165.95 661.306 162.871 656.722 Q159.815 652.116 159.815 643.389 Q159.815 634.639 162.871 630.056 Q165.95 625.449 171.76 625.449 Z" fill="#000000" fill-rule="nonzero" fill-opacity="1" /><path clip-path="url(#clip650)" d="M201.922 629.153 Q198.311 629.153 196.482 632.718 Q194.676 636.26 194.676 643.389 Q194.676 650.496 196.482 654.06 Q198.311 657.602 201.922 657.602 Q205.556 657.602 207.362 654.06 Q209.19 650.496 209.19 643.389 Q209.19 636.26 207.362 632.718 Q205.556 629.153 201.922 629.153 M201.922 625.449 Q207.732 625.449 210.787 630.056 Q213.866 634.639 213.866 643.389 Q213.866 652.116 210.787 656.722 Q207.732 661.306 201.922 661.306 Q196.112 661.306 193.033 656.722 Q189.977 652.116 189.977 643.389 Q189.977 634.639 193.033 630.056 Q196.112 625.449 201.922 625.449 Z" fill="#000000" fill-rule="nonzero" fill-opacity="1" /><path clip-path="url(#clip650)" d="M232.662 641.491 Q229.514 641.491 227.662 643.644 Q225.834 645.797 225.834 649.547 Q225.834 653.273 227.662 655.449 Q229.514 657.602 232.662 657.602 Q235.81 657.602 237.639 655.449 Q239.491 653.273 239.491 649.547 Q239.491 645.797 237.639 643.644 Q235.81 641.491 232.662 641.491 M241.945 626.838 L241.945 631.098 Q240.185 630.264 238.38 629.824 Q236.597 629.385 234.838 629.385 Q230.209 629.385 227.755 632.51 Q225.324 635.635 224.977 641.954 Q226.343 639.94 228.403 638.875 Q230.463 637.787 232.94 637.787 Q238.148 637.787 241.158 640.959 Q244.19 644.107 244.19 649.547 Q244.19 654.871 241.042 658.088 Q237.894 661.306 232.662 661.306 Q226.667 661.306 223.496 656.722 Q220.324 652.116 220.324 643.389 Q220.324 635.195 224.213 630.334 Q228.102 625.449 234.653 625.449 Q236.412 625.449 238.195 625.797 Q240 626.144 241.945 626.838 Z" fill="#000000" fill-rule="nonzero" fill-opacity="1" /><path clip-path="url(#clip650)" d="M126.783 369.211 Q123.172 369.211 121.343 372.776 Q119.538 376.318 119.538 383.447 Q119.538 390.554 121.343 394.119 Q123.172 397.66 126.783 397.66 Q130.417 397.66 132.223 394.119 Q134.052 390.554 134.052 383.447 Q134.052 376.318 132.223 372.776 Q130.417 369.211 126.783 369.211 M126.783 365.508 Q132.593 365.508 135.649 370.114 Q138.728 374.697 138.728 383.447 Q138.728 392.174 135.649 396.781 Q132.593 401.364 126.783 401.364 Q120.973 401.364 117.894 396.781 Q114.839 392.174 114.839 383.447 Q114.839 374.697 117.894 370.114 Q120.973 365.508 126.783 365.508 Z" fill="#000000" fill-rule="nonzero" fill-opacity="1" /><path clip-path="url(#clip650)" d="M146.945 394.813 L151.829 394.813 L151.829 400.693 L146.945 400.693 L146.945 394.813 Z" fill="#000000" fill-rule="nonzero" fill-opacity="1" /><path clip-path="url(#clip650)" d="M172.014 369.211 Q168.403 369.211 166.575 372.776 Q164.769 376.318 164.769 383.447 Q164.769 390.554 166.575 394.119 Q168.403 397.66 172.014 397.66 Q175.649 397.66 177.454 394.119 Q179.283 390.554 179.283 383.447 Q179.283 376.318 177.454 372.776 Q175.649 369.211 172.014 369.211 M172.014 365.508 Q177.825 365.508 180.88 370.114 Q183.959 374.697 183.959 383.447 Q183.959 392.174 180.88 396.781 Q177.825 401.364 172.014 401.364 Q166.204 401.364 163.126 396.781 Q160.07 392.174 160.07 383.447 Q160.07 374.697 163.126 370.114 Q166.204 365.508 172.014 365.508 Z" fill="#000000" fill-rule="nonzero" fill-opacity="1" /><path clip-path="url(#clip650)" d="M202.176 369.211 Q198.565 369.211 196.737 372.776 Q194.931 376.318 194.931 383.447 Q194.931 390.554 196.737 394.119 Q198.565 397.66 202.176 397.66 Q205.811 397.66 207.616 394.119 Q209.445 390.554 209.445 383.447 Q209.445 376.318 207.616 372.776 Q205.811 369.211 202.176 369.211 M202.176 365.508 Q207.987 365.508 211.042 370.114 Q214.121 374.697 214.121 383.447 Q214.121 392.174 211.042 396.781 Q207.987 401.364 202.176 401.364 Q196.366 401.364 193.288 396.781 Q190.232 392.174 190.232 383.447 Q190.232 374.697 193.288 370.114 Q196.366 365.508 202.176 365.508 Z" fill="#000000" fill-rule="nonzero" fill-opacity="1" /><path clip-path="url(#clip650)" d="M232.338 384.281 Q229.005 384.281 227.084 386.063 Q225.185 387.845 225.185 390.97 Q225.185 394.095 227.084 395.878 Q229.005 397.66 232.338 397.66 Q235.672 397.66 237.593 395.878 Q239.514 394.072 239.514 390.97 Q239.514 387.845 237.593 386.063 Q235.695 384.281 232.338 384.281 M227.662 382.29 Q224.653 381.549 222.963 379.489 Q221.297 377.429 221.297 374.466 Q221.297 370.322 224.236 367.915 Q227.199 365.508 232.338 365.508 Q237.5 365.508 240.44 367.915 Q243.38 370.322 243.38 374.466 Q243.38 377.429 241.69 379.489 Q240.023 381.549 237.037 382.29 Q240.417 383.077 242.292 385.369 Q244.19 387.66 244.19 390.97 Q244.19 395.994 241.111 398.679 Q238.056 401.364 232.338 401.364 Q226.621 401.364 223.542 398.679 Q220.486 395.994 220.486 390.97 Q220.486 387.66 222.385 385.369 Q224.283 383.077 227.662 382.29 M225.949 374.906 Q225.949 377.591 227.616 379.096 Q229.306 380.6 232.338 380.6 Q235.347 380.6 237.037 379.096 Q238.75 377.591 238.75 374.906 Q238.75 372.221 237.037 370.716 Q235.347 369.211 232.338 369.211 Q229.306 369.211 227.616 370.716 Q225.949 372.221 225.949 374.906 Z" fill="#000000" fill-rule="nonzero" fill-opacity="1" /><path clip-path="url(#clip650)" d="M16.4842 1039.99 L16.4842 1012.68 L21.895 1012.68 L21.895 1033.56 L35.8996 1033.56 L35.8996 1014.71 L41.3104 1014.71 L41.3104 1033.56 L64.0042 1033.56 L64.0042 1039.99 L16.4842 1039.99 Z" fill="#000000" fill-rule="nonzero" fill-opacity="1" /><path clip-path="url(#clip650)" d="M46.0847 992.529 Q46.0847 999.627 47.7079 1002.36 Q49.3312 1005.1 53.2461 1005.1 Q56.3653 1005.1 58.2114 1003.06 Q60.0256 1001 60.0256 997.463 Q60.0256 992.593 56.5881 989.665 Q53.1188 986.704 47.3897 986.704 L46.0847 986.704 L46.0847 992.529 M43.6657 980.848 L64.0042 980.848 L64.0042 986.704 L58.5933 986.704 Q61.8398 988.71 63.3994 991.702 Q64.9272 994.693 64.9272 999.022 Q64.9272 1004.5 61.8716 1007.74 Q58.7843 1010.96 53.6281 1010.96 Q47.6125 1010.96 44.5569 1006.95 Q41.5014 1002.91 41.5014 994.916 L41.5014 986.704 L40.9285 986.704 Q36.8862 986.704 34.6901 989.378 Q32.4621 992.02 32.4621 996.826 Q32.4621 999.881 33.1941 1002.78 Q33.9262 1005.67 35.3903 1008.35 L29.9795 1008.35 Q28.7381 1005.13 28.1334 1002.11 Q27.4968 999.086 27.4968 996.221 Q27.4968 988.487 31.5072 984.667 Q35.5176 980.848 43.6657 980.848 Z" fill="#000000" fill-rule="nonzero" fill-opacity="1" /><path clip-path="url(#clip650)" d="M28.3562 968.785 L28.3562 962.929 L64.0042 962.929 L64.0042 968.785 L28.3562 968.785 M14.479 968.785 L14.479 962.929 L21.895 962.929 L21.895 968.785 L14.479 968.785 Z" fill="#000000" fill-rule="nonzero" fill-opacity="1" /><path clip-path="url(#clip650)" d="M33.8307 930.018 Q33.2578 931.005 33.0032 932.182 Q32.7167 933.328 32.7167 934.728 Q32.7167 939.694 35.9632 942.367 Q39.1779 945.009 45.2253 945.009 L64.0042 945.009 L64.0042 950.897 L28.3562 950.897 L28.3562 945.009 L33.8944 945.009 Q30.6479 943.163 29.0883 940.203 Q27.4968 937.243 27.4968 933.01 Q27.4968 932.405 27.5923 931.673 Q27.656 930.941 27.8151 930.05 L33.8307 930.018 Z" fill="#000000" fill-rule="nonzero" fill-opacity="1" /><path clip-path="url(#clip650)" d="M16.4842 902.9 L16.4842 896.471 L58.5933 896.471 L58.5933 873.331 L64.0042 873.331 L64.0042 902.9 L16.4842 902.9 Z" fill="#000000" fill-rule="nonzero" fill-opacity="1" /><path clip-path="url(#clip650)" d="M32.4621 854.17 Q32.4621 858.881 36.1542 861.618 Q39.8145 864.356 46.212 864.356 Q52.6095 864.356 56.3017 861.65 Q59.9619 858.913 59.9619 854.17 Q59.9619 849.492 56.2698 846.754 Q52.5777 844.017 46.212 844.017 Q39.8781 844.017 36.186 846.754 Q32.4621 849.492 32.4621 854.17 M27.4968 854.17 Q27.4968 846.532 32.4621 842.171 Q37.4273 837.811 46.212 837.811 Q54.9649 837.811 59.9619 842.171 Q64.9272 846.532 64.9272 854.17 Q64.9272 861.841 59.9619 866.202 Q54.9649 870.53 46.212 870.53 Q37.4273 870.53 32.4621 866.202 Q27.4968 861.841 27.4968 854.17 Z" fill="#000000" fill-rule="nonzero" fill-opacity="1" /><path clip-path="url(#clip650)" d="M46.0847 811.902 Q46.0847 819 47.7079 821.737 Q49.3312 824.474 53.2461 824.474 Q56.3653 824.474 58.2114 822.437 Q60.0256 820.369 60.0256 816.836 Q60.0256 811.966 56.5881 809.038 Q53.1188 806.078 47.3897 806.078 L46.0847 806.078 L46.0847 811.902 M43.6657 800.221 L64.0042 800.221 L64.0042 806.078 L58.5933 806.078 Q61.8398 808.083 63.3994 811.075 Q64.9272 814.067 64.9272 818.395 Q64.9272 823.87 61.8716 827.116 Q58.7843 830.331 53.6281 830.331 Q47.6125 830.331 44.5569 826.32 Q41.5014 822.278 41.5014 814.289 L41.5014 806.078 L40.9285 806.078 Q36.8862 806.078 34.6901 808.751 Q32.4621 811.393 32.4621 816.199 Q32.4621 819.255 33.1941 822.151 Q33.9262 825.047 35.3903 827.721 L29.9795 827.721 Q28.7381 824.506 28.1334 821.483 Q27.4968 818.459 27.4968 815.594 Q27.4968 807.86 31.5072 804.041 Q35.5176 800.221 43.6657 800.221 Z" fill="#000000" fill-rule="nonzero" fill-opacity="1" /><path clip-path="url(#clip650)" d="M33.7671 764.7 L14.479 764.7 L14.479 758.844 L64.0042 758.844 L64.0042 764.7 L58.657 764.7 Q61.8398 766.547 63.3994 769.379 Q64.9272 772.18 64.9272 776.127 Q64.9272 782.588 59.771 786.662 Q54.6147 790.704 46.212 790.704 Q37.8093 790.704 32.6531 786.662 Q27.4968 782.588 27.4968 776.127 Q27.4968 772.18 29.0564 769.379 Q30.5842 766.547 33.7671 764.7 M46.212 784.657 Q52.6732 784.657 56.3653 782.015 Q60.0256 779.342 60.0256 774.695 Q60.0256 770.048 56.3653 767.374 Q52.6732 764.7 46.212 764.7 Q39.7508 764.7 36.0905 767.374 Q32.3984 770.048 32.3984 774.695 Q32.3984 779.342 36.0905 782.015 Q39.7508 784.657 46.212 784.657 Z" fill="#000000" fill-rule="nonzero" fill-opacity="1" /><path clip-path="url(#clip650)" d="M16.4842 730.039 L16.4842 723.546 L56.6518 713.552 L16.4842 703.59 L16.4842 696.365 L56.6518 686.37 L16.4842 676.408 L16.4842 669.883 L64.0042 681.819 L64.0042 689.903 L22.7544 699.929 L64.0042 710.051 L64.0042 718.135 L16.4842 730.039 Z" fill="#000000" fill-rule="nonzero" fill-opacity="1" /><path clip-path="url(#clip650)" d="M44.7161 634.936 L47.5806 634.936 L47.5806 661.862 Q53.6281 661.481 56.8109 658.234 Q59.9619 654.956 59.9619 649.131 Q59.9619 645.757 59.1344 642.606 Q58.3069 639.423 56.6518 636.304 L62.1899 636.304 Q63.5267 639.455 64.227 642.765 Q64.9272 646.076 64.9272 649.481 Q64.9272 658.011 59.9619 663.008 Q54.9967 667.974 46.5303 667.974 Q37.7774 667.974 32.6531 663.263 Q27.4968 658.52 27.4968 650.5 Q27.4968 643.306 32.1438 639.137 Q36.7589 634.936 44.7161 634.936 M42.9973 640.792 Q38.1912 640.856 35.3266 643.497 Q32.4621 646.107 32.4621 650.436 Q32.4621 655.338 35.2312 658.298 Q38.0002 661.226 43.0292 661.671 L42.9973 640.792 Z" fill="#000000" fill-rule="nonzero" fill-opacity="1" /><path clip-path="url(#clip650)" d="M28.3562 625.323 L28.3562 619.467 L64.0042 619.467 L64.0042 625.323 L28.3562 625.323 M14.479 625.323 L14.479 619.467 L21.895 619.467 L21.895 625.323 L14.479 625.323 Z" fill="#000000" fill-rule="nonzero" fill-opacity="1" /><path clip-path="url(#clip650)" d="M45.7664 583.755 Q39.4007 583.755 35.8996 586.397 Q32.3984 589.007 32.3984 593.749 Q32.3984 598.46 35.8996 601.102 Q39.4007 603.712 45.7664 603.712 Q52.1003 603.712 55.6014 601.102 Q59.1026 598.46 59.1026 593.749 Q59.1026 589.007 55.6014 586.397 Q52.1003 583.755 45.7664 583.755 M59.58 577.899 Q68.683 577.899 73.1071 581.941 Q77.5631 585.983 77.5631 594.322 Q77.5631 597.41 77.0857 600.147 Q76.6401 602.884 75.6852 605.462 L69.9879 605.462 Q71.3884 602.884 72.0568 600.37 Q72.7252 597.855 72.7252 595.245 Q72.7252 589.484 69.7015 586.62 Q66.7096 583.755 60.6303 583.755 L57.7339 583.755 Q60.885 585.569 62.4446 588.402 Q64.0042 591.235 64.0042 595.182 Q64.0042 601.738 59.0071 605.749 Q54.01 609.759 45.7664 609.759 Q37.491 609.759 32.4939 605.749 Q27.4968 601.738 27.4968 595.182 Q27.4968 591.235 29.0564 588.402 Q30.616 585.569 33.7671 583.755 L28.3562 583.755 L28.3562 577.899 L59.58 577.899 Z" fill="#000000" fill-rule="nonzero" fill-opacity="1" /><path clip-path="url(#clip650)" d="M42.4881 536.203 L64.0042 536.203 L64.0042 542.06 L42.679 542.06 Q37.6183 542.06 35.1038 544.033 Q32.5894 546.007 32.5894 549.953 Q32.5894 554.696 35.6131 557.433 Q38.6368 560.17 43.8567 560.17 L64.0042 560.17 L64.0042 566.059 L14.479 566.059 L14.479 560.17 L33.8944 560.17 Q30.6797 558.07 29.0883 555.237 Q27.4968 552.372 27.4968 548.648 Q27.4968 542.505 31.3163 539.354 Q35.1038 536.203 42.4881 536.203 Z" fill="#000000" fill-rule="nonzero" fill-opacity="1" /><path clip-path="url(#clip650)" d="M18.2347 518.73 L28.3562 518.73 L28.3562 506.667 L32.9077 506.667 L32.9077 518.73 L52.2594 518.73 Q56.6199 518.73 57.8613 517.552 Q59.1026 516.342 59.1026 512.682 L59.1026 506.667 L64.0042 506.667 L64.0042 512.682 Q64.0042 519.462 61.4897 522.04 Q58.9434 524.618 52.2594 524.618 L32.9077 524.618 L32.9077 528.915 L28.3562 528.915 L28.3562 524.618 L18.2347 524.618 L18.2347 518.73 Z" fill="#000000" fill-rule="nonzero" fill-opacity="1" /><path clip-path="url(#clip650)" d="M505.745 12.096 L540.502 12.096 L540.502 18.9825 L513.928 18.9825 L513.928 36.8065 L537.909 36.8065 L537.909 43.6931 L513.928 43.6931 L513.928 72.576 L505.745 72.576 L505.745 12.096 Z" fill="#000000" fill-rule="nonzero" fill-opacity="1" /><path clip-path="url(#clip650)" d="M566.144 49.7694 Q557.111 49.7694 553.627 51.8354 Q550.143 53.9013 550.143 58.8839 Q550.143 62.8538 552.736 65.2034 Q555.369 67.5124 559.865 67.5124 Q566.063 67.5124 569.79 63.1374 Q573.557 58.7219 573.557 51.4303 L573.557 49.7694 L566.144 49.7694 M581.011 46.6907 L581.011 72.576 L573.557 72.576 L573.557 65.6895 Q571.005 69.8214 567.197 71.8063 Q563.39 73.7508 557.88 73.7508 Q550.913 73.7508 546.781 69.8619 Q542.689 65.9325 542.689 59.3701 Q542.689 51.7138 547.794 47.825 Q552.938 43.9361 563.106 43.9361 L573.557 43.9361 L573.557 43.2069 Q573.557 38.0623 570.155 35.2672 Q566.792 32.4315 560.676 32.4315 Q556.787 32.4315 553.1 33.3632 Q549.414 34.295 546.011 36.1584 L546.011 29.2718 Q550.103 27.692 553.951 26.9223 Q557.799 26.1121 561.445 26.1121 Q571.289 26.1121 576.15 31.2163 Q581.011 36.3204 581.011 46.6907 Z" fill="#000000" fill-rule="nonzero" fill-opacity="1" /><path clip-path="url(#clip650)" d="M596.364 27.2059 L603.818 27.2059 L603.818 72.576 L596.364 72.576 L596.364 27.2059 M596.364 9.54393 L603.818 9.54393 L603.818 18.9825 L596.364 18.9825 L596.364 9.54393 Z" fill="#000000" fill-rule="nonzero" fill-opacity="1" /><path clip-path="url(#clip650)" d="M645.704 34.1734 Q644.448 33.4443 642.949 33.1202 Q641.491 32.7556 639.709 32.7556 Q633.389 32.7556 629.986 36.8875 Q626.624 40.9789 626.624 48.6757 L626.624 72.576 L619.13 72.576 L619.13 27.2059 L626.624 27.2059 L626.624 34.2544 Q628.974 30.1225 632.741 28.1376 Q636.508 26.1121 641.896 26.1121 Q642.666 26.1121 643.598 26.2337 Q644.529 26.3147 645.663 26.5172 L645.704 34.1734 Z" fill="#000000" fill-rule="nonzero" fill-opacity="1" /><path clip-path="url(#clip650)" d="M680.218 12.096 L688.401 12.096 L688.401 65.6895 L717.851 65.6895 L717.851 72.576 L680.218 72.576 L680.218 12.096 Z" fill="#000000" fill-rule="nonzero" fill-opacity="1" /><path clip-path="url(#clip650)" d="M742.237 32.4315 Q736.242 32.4315 732.758 37.1306 Q729.274 41.7891 729.274 49.9314 Q729.274 58.0738 732.717 62.7728 Q736.201 67.4314 742.237 67.4314 Q748.192 67.4314 751.676 62.7323 Q755.159 58.0333 755.159 49.9314 Q755.159 41.8701 751.676 37.1711 Q748.192 32.4315 742.237 32.4315 M742.237 26.1121 Q751.959 26.1121 757.509 32.4315 Q763.059 38.7509 763.059 49.9314 Q763.059 61.0714 757.509 67.4314 Q751.959 73.7508 742.237 73.7508 Q732.474 73.7508 726.925 67.4314 Q721.415 61.0714 721.415 49.9314 Q721.415 38.7509 726.925 32.4315 Q732.474 26.1121 742.237 26.1121 Z" fill="#000000" fill-rule="nonzero" fill-opacity="1" /><path clip-path="url(#clip650)" d="M796.033 49.7694 Q787 49.7694 783.516 51.8354 Q780.032 53.9013 780.032 58.8839 Q780.032 62.8538 782.625 65.2034 Q785.258 67.5124 789.754 67.5124 Q795.952 67.5124 799.679 63.1374 Q803.446 58.7219 803.446 51.4303 L803.446 49.7694 L796.033 49.7694 M810.9 46.6907 L810.9 72.576 L803.446 72.576 L803.446 65.6895 Q800.894 69.8214 797.086 71.8063 Q793.278 73.7508 787.769 73.7508 Q780.802 73.7508 776.67 69.8619 Q772.578 65.9325 772.578 59.3701 Q772.578 51.7138 777.682 47.825 Q782.827 43.9361 792.995 43.9361 L803.446 43.9361 L803.446 43.2069 Q803.446 38.0623 800.043 35.2672 Q796.681 32.4315 790.564 32.4315 Q786.675 32.4315 782.989 33.3632 Q779.303 34.295 775.9 36.1584 L775.9 29.2718 Q779.991 27.692 783.84 26.9223 Q787.688 26.1121 791.334 26.1121 Q801.178 26.1121 806.039 31.2163 Q810.9 36.3204 810.9 46.6907 Z" fill="#000000" fill-rule="nonzero" fill-opacity="1" /><path clip-path="url(#clip650)" d="M856.108 34.0924 L856.108 9.54393 L863.562 9.54393 L863.562 72.576 L856.108 72.576 L856.108 65.7705 Q853.758 69.8214 850.153 71.8063 Q846.588 73.7508 841.565 73.7508 Q833.342 73.7508 828.157 67.1883 Q823.012 60.6258 823.012 49.9314 Q823.012 39.2371 828.157 32.6746 Q833.342 26.1121 841.565 26.1121 Q846.588 26.1121 850.153 28.0971 Q853.758 30.0415 856.108 34.0924 M830.709 49.9314 Q830.709 58.1548 834.071 62.8538 Q837.474 67.5124 843.388 67.5124 Q849.302 67.5124 852.705 62.8538 Q856.108 58.1548 856.108 49.9314 Q856.108 41.7081 852.705 37.0496 Q849.302 32.3505 843.388 32.3505 Q837.474 32.3505 834.071 37.0496 Q830.709 41.7081 830.709 49.9314 Z" fill="#000000" fill-rule="nonzero" fill-opacity="1" /><path clip-path="url(#clip650)" d="M900.222 12.096 L908.486 12.096 L921.206 63.2184 L933.885 12.096 L943.081 12.096 L955.801 63.2184 L968.48 12.096 L976.784 12.096 L961.593 72.576 L951.304 72.576 L938.544 20.0763 L925.662 72.576 L915.373 72.576 L900.222 12.096 Z" fill="#000000" fill-rule="nonzero" fill-opacity="1" /><path clip-path="url(#clip650)" d="M1021.26 48.0275 L1021.26 51.6733 L986.993 51.6733 Q987.479 59.3701 991.611 63.421 Q995.783 67.4314 1003.2 67.4314 Q1007.49 67.4314 1011.5 66.3781 Q1015.55 65.3249 1019.52 63.2184 L1019.52 70.267 Q1015.51 71.9684 1011.3 72.8596 Q1007.09 73.7508 1002.75 73.7508 Q991.894 73.7508 985.534 67.4314 Q979.215 61.1119 979.215 50.3365 Q979.215 39.1965 985.21 32.6746 Q991.246 26.1121 1001.45 26.1121 Q1010.61 26.1121 1015.92 32.0264 Q1021.26 37.9003 1021.26 48.0275 M1013.81 45.84 Q1013.73 39.7232 1010.37 36.0774 Q1007.04 32.4315 1001.54 32.4315 Q995.297 32.4315 991.53 35.9558 Q987.803 39.4801 987.236 45.8805 L1013.81 45.84 Z" fill="#000000" fill-rule="nonzero" fill-opacity="1" /><path clip-path="url(#clip650)" d="M1033.5 27.2059 L1040.95 27.2059 L1040.95 72.576 L1033.5 72.576 L1033.5 27.2059 M1033.5 9.54393 L1040.95 9.54393 L1040.95 18.9825 L1033.5 18.9825 L1033.5 9.54393 Z" fill="#000000" fill-rule="nonzero" fill-opacity="1" /><path clip-path="url(#clip650)" d="M1086.4 49.3643 Q1086.4 41.2625 1083.04 36.8065 Q1079.72 32.3505 1073.68 32.3505 Q1067.69 32.3505 1064.32 36.8065 Q1061 41.2625 1061 49.3643 Q1061 57.4256 1064.32 61.8816 Q1067.69 66.3376 1073.68 66.3376 Q1079.72 66.3376 1083.04 61.8816 Q1086.4 57.4256 1086.4 49.3643 M1093.86 66.9452 Q1093.86 78.5308 1088.71 84.1616 Q1083.57 89.8329 1072.95 89.8329 Q1069.02 89.8329 1065.54 89.2252 Q1062.06 88.6581 1058.77 87.4428 L1058.77 80.1917 Q1062.06 81.9741 1065.26 82.8248 Q1068.46 83.6755 1071.78 83.6755 Q1079.11 83.6755 1082.76 79.8271 Q1086.4 76.0193 1086.4 68.282 L1086.4 64.5957 Q1084.09 68.6061 1080.49 70.5911 Q1076.88 72.576 1071.86 72.576 Q1063.51 72.576 1058.41 66.2161 Q1053.31 59.8562 1053.31 49.3643 Q1053.31 38.832 1058.41 32.472 Q1063.51 26.1121 1071.86 26.1121 Q1076.88 26.1121 1080.49 28.0971 Q1084.09 30.082 1086.4 34.0924 L1086.4 27.2059 L1093.86 27.2059 L1093.86 66.9452 Z" fill="#000000" fill-rule="nonzero" fill-opacity="1" /><path clip-path="url(#clip650)" d="M1146.92 45.1919 L1146.92 72.576 L1139.47 72.576 L1139.47 45.4349 Q1139.47 38.994 1136.96 35.7938 Q1134.45 32.5936 1129.42 32.5936 Q1123.39 32.5936 1119.9 36.4419 Q1116.42 40.2903 1116.42 46.9338 L1116.42 72.576 L1108.92 72.576 L1108.92 9.54393 L1116.42 9.54393 L1116.42 34.2544 Q1119.09 30.163 1122.7 28.1376 Q1126.34 26.1121 1131.08 26.1121 Q1138.9 26.1121 1142.91 30.9732 Q1146.92 35.7938 1146.92 45.1919 Z" fill="#000000" fill-rule="nonzero" fill-opacity="1" /><path clip-path="url(#clip650)" d="M1169.16 14.324 L1169.16 27.2059 L1184.51 27.2059 L1184.51 32.9987 L1169.16 32.9987 L1169.16 57.6282 Q1169.16 63.1779 1170.66 64.7578 Q1172.2 66.3376 1176.86 66.3376 L1184.51 66.3376 L1184.51 72.576 L1176.86 72.576 Q1168.23 72.576 1164.95 69.3758 Q1161.67 66.1351 1161.67 57.6282 L1161.67 32.9987 L1156.2 32.9987 L1156.2 27.2059 L1161.67 27.2059 L1161.67 14.324 L1169.16 14.324 Z" fill="#000000" fill-rule="nonzero" fill-opacity="1" /><path clip-path="url(#clip650)" d="M1223.24 28.5427 L1223.24 35.5912 Q1220.08 33.9709 1216.68 33.1607 Q1213.28 32.3505 1209.63 32.3505 Q1204.08 32.3505 1201.29 34.0519 Q1198.53 35.7533 1198.53 39.156 Q1198.53 41.7486 1200.52 43.2475 Q1202.5 44.7058 1208.5 46.0426 L1211.05 46.6097 Q1218.99 48.3111 1222.31 51.4303 Q1225.67 54.509 1225.67 60.0587 Q1225.67 66.3781 1220.65 70.0644 Q1215.67 73.7508 1206.92 73.7508 Q1203.27 73.7508 1199.3 73.0216 Q1195.37 72.3329 1191 70.9151 L1191 63.2184 Q1195.13 65.3654 1199.14 66.4591 Q1203.15 67.5124 1207.08 67.5124 Q1212.34 67.5124 1215.18 65.73 Q1218.02 63.9071 1218.02 60.6258 Q1218.02 57.5877 1215.95 55.9673 Q1213.92 54.3469 1207 52.8481 L1204.4 52.2405 Q1197.48 50.7821 1194.4 47.7845 Q1191.32 44.7463 1191.32 39.4801 Q1191.32 33.0797 1195.86 29.5959 Q1200.39 26.1121 1208.74 26.1121 Q1212.87 26.1121 1216.52 26.7198 Q1220.16 27.3274 1223.24 28.5427 Z" fill="#000000" fill-rule="nonzero" fill-opacity="1" /><path clip-path="url(#clip650)" d="M1271.12 65.7705 L1271.12 89.8329 L1263.63 89.8329 L1263.63 27.2059 L1271.12 27.2059 L1271.12 34.0924 Q1273.47 30.0415 1277.04 28.0971 Q1280.64 26.1121 1285.63 26.1121 Q1293.89 26.1121 1299.03 32.6746 Q1304.22 39.2371 1304.22 49.9314 Q1304.22 60.6258 1299.03 67.1883 Q1293.89 73.7508 1285.63 73.7508 Q1280.64 73.7508 1277.04 71.8063 Q1273.47 69.8214 1271.12 65.7705 M1296.48 49.9314 Q1296.48 41.7081 1293.08 37.0496 Q1289.72 32.3505 1283.8 32.3505 Q1277.89 32.3505 1274.49 37.0496 Q1271.12 41.7081 1271.12 49.9314 Q1271.12 58.1548 1274.49 62.8538 Q1277.89 67.5124 1283.8 67.5124 Q1289.72 67.5124 1293.08 62.8538 Q1296.48 58.1548 1296.48 49.9314 Z" fill="#000000" fill-rule="nonzero" fill-opacity="1" /><path clip-path="url(#clip650)" d="M1355.38 48.0275 L1355.38 51.6733 L1321.11 51.6733 Q1321.6 59.3701 1325.73 63.421 Q1329.9 67.4314 1337.31 67.4314 Q1341.61 67.4314 1345.62 66.3781 Q1349.67 65.3249 1353.64 63.2184 L1353.64 70.267 Q1349.63 71.9684 1345.42 72.8596 Q1341.2 73.7508 1336.87 73.7508 Q1326.01 73.7508 1319.65 67.4314 Q1313.33 61.1119 1313.33 50.3365 Q1313.33 39.1965 1319.33 32.6746 Q1325.36 26.1121 1335.57 26.1121 Q1344.73 26.1121 1350.03 32.0264 Q1355.38 37.9003 1355.38 48.0275 M1347.93 45.84 Q1347.85 39.7232 1344.48 36.0774 Q1341.16 32.4315 1335.65 32.4315 Q1329.42 32.4315 1325.65 35.9558 Q1321.92 39.4801 1321.35 45.8805 L1347.93 45.84 Z" fill="#000000" fill-rule="nonzero" fill-opacity="1" /><path clip-path="url(#clip650)" d="M1393.91 34.1734 Q1392.65 33.4443 1391.15 33.1202 Q1389.69 32.7556 1387.91 32.7556 Q1381.59 32.7556 1378.19 36.8875 Q1374.83 40.9789 1374.83 48.6757 L1374.83 72.576 L1367.33 72.576 L1367.33 27.2059 L1374.83 27.2059 L1374.83 34.2544 Q1377.18 30.1225 1380.94 28.1376 Q1384.71 26.1121 1390.1 26.1121 Q1390.87 26.1121 1391.8 26.2337 Q1392.73 26.3147 1393.87 26.5172 L1393.91 34.1734 Z" fill="#000000" fill-rule="nonzero" fill-opacity="1" /><path clip-path="url(#clip650)" d="M1428.42 12.096 L1436.6 12.096 L1436.6 65.6895 L1466.05 65.6895 L1466.05 72.576 L1428.42 72.576 L1428.42 12.096 Z" fill="#000000" fill-rule="nonzero" fill-opacity="1" /><path clip-path="url(#clip650)" d="M1490.44 32.4315 Q1484.44 32.4315 1480.96 37.1306 Q1477.48 41.7891 1477.48 49.9314 Q1477.48 58.0738 1480.92 62.7728 Q1484.4 67.4314 1490.44 67.4314 Q1496.39 67.4314 1499.88 62.7323 Q1503.36 58.0333 1503.36 49.9314 Q1503.36 41.8701 1499.88 37.1711 Q1496.39 32.4315 1490.44 32.4315 M1490.44 26.1121 Q1500.16 26.1121 1505.71 32.4315 Q1511.26 38.7509 1511.26 49.9314 Q1511.26 61.0714 1505.71 67.4314 Q1500.16 73.7508 1490.44 73.7508 Q1480.68 73.7508 1475.13 67.4314 Q1469.62 61.0714 1469.62 49.9314 Q1469.62 38.7509 1475.13 32.4315 Q1480.68 26.1121 1490.44 26.1121 Z" fill="#000000" fill-rule="nonzero" fill-opacity="1" /><path clip-path="url(#clip650)" d="M1544.24 49.7694 Q1535.2 49.7694 1531.72 51.8354 Q1528.23 53.9013 1528.23 58.8839 Q1528.23 62.8538 1530.83 65.2034 Q1533.46 67.5124 1537.96 67.5124 Q1544.15 67.5124 1547.88 63.1374 Q1551.65 58.7219 1551.65 51.4303 L1551.65 49.7694 L1544.24 49.7694 M1559.1 46.6907 L1559.1 72.576 L1551.65 72.576 L1551.65 65.6895 Q1549.1 69.8214 1545.29 71.8063 Q1541.48 73.7508 1535.97 73.7508 Q1529 73.7508 1524.87 69.8619 Q1520.78 65.9325 1520.78 59.3701 Q1520.78 51.7138 1525.88 47.825 Q1531.03 43.9361 1541.2 43.9361 L1551.65 43.9361 L1551.65 43.2069 Q1551.65 38.0623 1548.25 35.2672 Q1544.88 32.4315 1538.77 32.4315 Q1534.88 32.4315 1531.19 33.3632 Q1527.5 34.295 1524.1 36.1584 L1524.1 29.2718 Q1528.19 27.692 1532.04 26.9223 Q1535.89 26.1121 1539.54 26.1121 Q1549.38 26.1121 1554.24 31.2163 Q1559.1 36.3204 1559.1 46.6907 Z" fill="#000000" fill-rule="nonzero" fill-opacity="1" /><path clip-path="url(#clip650)" d="M1604.31 34.0924 L1604.31 9.54393 L1611.76 9.54393 L1611.76 72.576 L1604.31 72.576 L1604.31 65.7705 Q1601.96 69.8214 1598.36 71.8063 Q1594.79 73.7508 1589.77 73.7508 Q1581.54 73.7508 1576.36 67.1883 Q1571.21 60.6258 1571.21 49.9314 Q1571.21 39.2371 1576.36 32.6746 Q1581.54 26.1121 1589.77 26.1121 Q1594.79 26.1121 1598.36 28.0971 Q1601.96 30.0415 1604.31 34.0924 M1578.91 49.9314 Q1578.91 58.1548 1582.27 62.8538 Q1585.68 67.5124 1591.59 67.5124 Q1597.5 67.5124 1600.91 62.8538 Q1604.31 58.1548 1604.31 49.9314 Q1604.31 41.7081 1600.91 37.0496 Q1597.5 32.3505 1591.59 32.3505 Q1585.68 32.3505 1582.27 37.0496 Q1578.91 41.7081 1578.91 49.9314 Z" fill="#000000" fill-rule="nonzero" fill-opacity="1" /><path clip-path="url(#clip650)" d="M1649.72 46.5287 L1671.55 46.5287 L1671.55 53.1722 L1649.72 53.1722 L1649.72 46.5287 Z" fill="#000000" fill-rule="nonzero" fill-opacity="1" /><path clip-path="url(#clip650)" d="M1710.12 12.096 L1718.3 12.096 L1718.3 72.576 L1710.12 72.576 L1710.12 12.096 Z" fill="#000000" fill-rule="nonzero" fill-opacity="1" /><path clip-path="url(#clip650)" d="M1741.64 14.324 L1741.64 27.2059 L1756.99 27.2059 L1756.99 32.9987 L1741.64 32.9987 L1741.64 57.6282 Q1741.64 63.1779 1743.13 64.7578 Q1744.67 66.3376 1749.33 66.3376 L1756.99 66.3376 L1756.99 72.576 L1749.33 72.576 Q1740.7 72.576 1737.42 69.3758 Q1734.14 66.1351 1734.14 57.6282 L1734.14 32.9987 L1728.67 32.9987 L1728.67 27.2059 L1734.14 27.2059 L1734.14 14.324 L1741.64 14.324 Z" fill="#000000" fill-rule="nonzero" fill-opacity="1" /><path clip-path="url(#clip650)" d="M1805.6 48.0275 L1805.6 51.6733 L1771.33 51.6733 Q1771.81 59.3701 1775.95 63.421 Q1780.12 67.4314 1787.53 67.4314 Q1791.83 67.4314 1795.84 66.3781 Q1799.89 65.3249 1803.86 63.2184 L1803.86 70.267 Q1799.85 71.9684 1795.63 72.8596 Q1791.42 73.7508 1787.09 73.7508 Q1776.23 73.7508 1769.87 67.4314 Q1763.55 61.1119 1763.55 50.3365 Q1763.55 39.1965 1769.55 32.6746 Q1775.58 26.1121 1785.79 26.1121 Q1794.95 26.1121 1800.25 32.0264 Q1805.6 37.9003 1805.6 48.0275 M1798.15 45.84 Q1798.06 39.7232 1794.7 36.0774 Q1791.38 32.4315 1785.87 32.4315 Q1779.63 32.4315 1775.87 35.9558 Q1772.14 39.4801 1771.57 45.8805 L1798.15 45.84 Z" fill="#000000" fill-rule="nonzero" fill-opacity="1" /><path clip-path="url(#clip650)" d="M1844.12 34.1734 Q1842.87 33.4443 1841.37 33.1202 Q1839.91 32.7556 1838.13 32.7556 Q1831.81 32.7556 1828.41 36.8875 Q1825.04 40.9789 1825.04 48.6757 L1825.04 72.576 L1817.55 72.576 L1817.55 27.2059 L1825.04 27.2059 L1825.04 34.2544 Q1827.39 30.1225 1831.16 28.1376 Q1834.93 26.1121 1840.32 26.1121 Q1841.09 26.1121 1842.02 26.2337 Q1842.95 26.3147 1844.08 26.5172 L1844.12 34.1734 Z" fill="#000000" fill-rule="nonzero" fill-opacity="1" /><path clip-path="url(#clip650)" d="M1872.56 49.7694 Q1863.53 49.7694 1860.04 51.8354 Q1856.56 53.9013 1856.56 58.8839 Q1856.56 62.8538 1859.15 65.2034 Q1861.79 67.5124 1866.28 67.5124 Q1872.48 67.5124 1876.21 63.1374 Q1879.97 58.7219 1879.97 51.4303 L1879.97 49.7694 L1872.56 49.7694 M1887.43 46.6907 L1887.43 72.576 L1879.97 72.576 L1879.97 65.6895 Q1877.42 69.8214 1873.61 71.8063 Q1869.81 73.7508 1864.3 73.7508 Q1857.33 73.7508 1853.2 69.8619 Q1849.11 65.9325 1849.11 59.3701 Q1849.11 51.7138 1854.21 47.825 Q1859.35 43.9361 1869.52 43.9361 L1879.97 43.9361 L1879.97 43.2069 Q1879.97 38.0623 1876.57 35.2672 Q1873.21 32.4315 1867.09 32.4315 Q1863.2 32.4315 1859.52 33.3632 Q1855.83 34.295 1852.43 36.1584 L1852.43 29.2718 Q1856.52 27.692 1860.37 26.9223 Q1864.22 26.1121 1867.86 26.1121 Q1877.71 26.1121 1882.57 31.2163 Q1887.43 36.3204 1887.43 46.6907 Z" fill="#000000" fill-rule="nonzero" fill-opacity="1" /><path clip-path="url(#clip650)" d="M1910.15 14.324 L1910.15 27.2059 L1925.51 27.2059 L1925.51 32.9987 L1910.15 32.9987 L1910.15 57.6282 Q1910.15 63.1779 1911.65 64.7578 Q1913.19 66.3376 1917.85 66.3376 L1925.51 66.3376 L1925.51 72.576 L1917.85 72.576 Q1909.22 72.576 1905.94 69.3758 Q1902.66 66.1351 1902.66 57.6282 L1902.66 32.9987 L1897.19 32.9987 L1897.19 27.2059 L1902.66 27.2059 L1902.66 14.324 L1910.15 14.324 Z" fill="#000000" fill-rule="nonzero" fill-opacity="1" /><path clip-path="url(#clip650)" d="M1935.31 27.2059 L1942.76 27.2059 L1942.76 72.576 L1935.31 72.576 L1935.31 27.2059 M1935.31 9.54393 L1942.76 9.54393 L1942.76 18.9825 L1935.31 18.9825 L1935.31 9.54393 Z" fill="#000000" fill-rule="nonzero" fill-opacity="1" /><path clip-path="url(#clip650)" d="M1975.94 32.4315 Q1969.94 32.4315 1966.46 37.1306 Q1962.98 41.7891 1962.98 49.9314 Q1962.98 58.0738 1966.42 62.7728 Q1969.9 67.4314 1975.94 67.4314 Q1981.89 67.4314 1985.38 62.7323 Q1988.86 58.0333 1988.86 49.9314 Q1988.86 41.8701 1985.38 37.1711 Q1981.89 32.4315 1975.94 32.4315 M1975.94 26.1121 Q1985.66 26.1121 1991.21 32.4315 Q1996.76 38.7509 1996.76 49.9314 Q1996.76 61.0714 1991.21 67.4314 Q1985.66 73.7508 1975.94 73.7508 Q1966.18 73.7508 1960.63 67.4314 Q1955.12 61.0714 1955.12 49.9314 Q1955.12 38.7509 1960.63 32.4315 Q1966.18 26.1121 1975.94 26.1121 Z" fill="#000000" fill-rule="nonzero" fill-opacity="1" /><path clip-path="url(#clip650)" d="M2046.83 45.1919 L2046.83 72.576 L2039.38 72.576 L2039.38 45.4349 Q2039.38 38.994 2036.87 35.7938 Q2034.35 32.5936 2029.33 32.5936 Q2023.29 32.5936 2019.81 36.4419 Q2016.33 40.2903 2016.33 46.9338 L2016.33 72.576 L2008.83 72.576 L2008.83 27.2059 L2016.33 27.2059 L2016.33 34.2544 Q2019 30.163 2022.61 28.1376 Q2026.25 26.1121 2030.99 26.1121 Q2038.81 26.1121 2042.82 30.9732 Q2046.83 35.7938 2046.83 45.1919 Z" fill="#000000" fill-rule="nonzero" fill-opacity="1" /><path clip-path="url(#clip650)" d="M2089.37 71.3202 L2089.37 63.8666 Q2092.44 65.3249 2095.6 66.0946 Q2098.76 66.8642 2101.8 66.8642 Q2109.9 66.8642 2114.16 61.436 Q2118.45 55.9673 2119.06 44.8678 Q2116.71 48.3516 2113.1 50.215 Q2109.5 52.0784 2105.12 52.0784 Q2096.05 52.0784 2090.74 46.6097 Q2085.48 41.1005 2085.48 31.5808 Q2085.48 22.2638 2090.99 16.633 Q2096.49 11.0023 2105.65 11.0023 Q2116.14 11.0023 2121.65 19.0636 Q2127.2 27.0843 2127.2 42.3968 Q2127.2 56.6965 2120.4 65.2439 Q2113.63 73.7508 2102.17 73.7508 Q2099.09 73.7508 2095.93 73.1431 Q2092.77 72.5355 2089.37 71.3202 M2105.65 45.678 Q2111.16 45.678 2114.36 41.9107 Q2117.6 38.1433 2117.6 31.5808 Q2117.6 25.0589 2114.36 21.2916 Q2111.16 17.4837 2105.65 17.4837 Q2100.14 17.4837 2096.9 21.2916 Q2093.7 25.0589 2093.7 31.5808 Q2093.7 38.1433 2096.9 41.9107 Q2100.14 45.678 2105.65 45.678 Z" fill="#000000" fill-rule="nonzero" fill-opacity="1" /><path clip-path="url(#clip652)" d="M892.719 123.472 L892.719 1423.18 L992.426 1423.18 L992.426 123.472 L892.719 123.472 L892.719 123.472  Z" fill="#009af9" fill-rule="evenodd" fill-opacity="1"/>
<polyline clip-path="url(#clip652)" style="stroke:#000000; stroke-linecap:round; stroke-linejoin:round; stroke-width:4; stroke-opacity:1; fill:none" points="892.719,123.472 892.719,1423.18 992.426,1423.18 992.426,123.472 892.719,123.472 "/>
<path clip-path="url(#clip652)" d="M1765.15 123.472 L1765.15 1423.18 L1864.86 1423.18 L1864.86 123.472 L1765.15 123.472 L1765.15 123.472  Z" fill="#009af9" fill-rule="evenodd" fill-opacity="1"/>
<polyline clip-path="url(#clip652)" style="stroke:#000000; stroke-linecap:round; stroke-linejoin:round; stroke-width:4; stroke-opacity:1; fill:none" points="1765.15,123.472 1765.15,1423.18 1864.86,1423.18 1864.86,123.472 1765.15,123.472 "/>
<path clip-path="url(#clip652)" d="M1266.62 123.472 L1266.62 1423.18 L1366.33 1423.18 L1366.33 123.472 L1266.62 123.472 L1266.62 123.472  Z" fill="#009af9" fill-rule="evenodd" fill-opacity="1"/>
<polyline clip-path="url(#clip652)" style="stroke:#000000; stroke-linecap:round; stroke-linejoin:round; stroke-width:4; stroke-opacity:1; fill:none" points="1266.62,123.472 1266.62,1423.18 1366.33,1423.18 1366.33,123.472 1266.62,123.472 "/>
<path clip-path="url(#clip652)" d="M394.185 123.472 L394.185 1423.18 L493.892 1423.18 L493.892 123.472 L394.185 123.472 L394.185 123.472  Z" fill="#009af9" fill-rule="evenodd" fill-opacity="1"/>
<polyline clip-path="url(#clip652)" style="stroke:#000000; stroke-linecap:round; stroke-linejoin:round; stroke-width:4; stroke-opacity:1; fill:none" points="394.185,123.472 394.185,1423.18 493.892,1423.18 493.892,123.472 394.185,123.472 "/>
<path clip-path="url(#clip652)" d="M1017.35 123.472 L1017.35 1423.18 L1117.06 1423.18 L1117.06 123.472 L1017.35 123.472 L1017.35 123.472  Z" fill="#009af9" fill-rule="evenodd" fill-opacity="1"/>
<polyline clip-path="url(#clip652)" style="stroke:#000000; stroke-linecap:round; stroke-linejoin:round; stroke-width:4; stroke-opacity:1; fill:none" points="1017.35,123.472 1017.35,1423.18 1117.06,1423.18 1117.06,123.472 1017.35,123.472 "/>
<path clip-path="url(#clip652)" d="M1640.52 123.472 L1640.52 1423.18 L1740.23 1423.18 L1740.23 123.472 L1640.52 123.472 L1640.52 123.472  Z" fill="#009af9" fill-rule="evenodd" fill-opacity="1"/>
<polyline clip-path="url(#clip652)" style="stroke:#000000; stroke-linecap:round; stroke-linejoin:round; stroke-width:4; stroke-opacity:1; fill:none" points="1640.52,123.472 1640.52,1423.18 1740.23,1423.18 1740.23,123.472 1640.52,123.472 "/>
<path clip-path="url(#clip652)" d="M1391.25 123.472 L1391.25 1423.18 L1490.96 1423.18 L1490.96 123.472 L1391.25 123.472 L1391.25 123.472  Z" fill="#009af9" fill-rule="evenodd" fill-opacity="1"/>
<polyline clip-path="url(#clip652)" style="stroke:#000000; stroke-linecap:round; stroke-linejoin:round; stroke-width:4; stroke-opacity:1; fill:none" points="1391.25,123.472 1391.25,1423.18 1490.96,1423.18 1490.96,123.472 1391.25,123.472 "/>
<path clip-path="url(#clip652)" d="M2014.42 123.472 L2014.42 1423.18 L2114.13 1423.18 L2114.13 123.472 L2014.42 123.472 L2014.42 123.472  Z" fill="#009af9" fill-rule="evenodd" fill-opacity="1"/>
<polyline clip-path="url(#clip652)" style="stroke:#000000; stroke-linecap:round; stroke-linejoin:round; stroke-width:4; stroke-opacity:1; fill:none" points="2014.42,123.472 2014.42,1423.18 2114.13,1423.18 2114.13,123.472 2014.42,123.472 "/>
<path clip-path="url(#clip652)" d="M643.452 123.472 L643.452 1423.18 L743.159 1423.18 L743.159 123.472 L643.452 123.472 L643.452 123.472  Z" fill="#009af9" fill-rule="evenodd" fill-opacity="1"/>
<polyline clip-path="url(#clip652)" style="stroke:#000000; stroke-linecap:round; stroke-linejoin:round; stroke-width:4; stroke-opacity:1; fill:none" points="643.452,123.472 643.452,1423.18 743.159,1423.18 743.159,123.472 643.452,123.472 "/>
<path clip-path="url(#clip652)" d="M1141.99 123.472 L1141.99 1423.18 L1241.69 1423.18 L1241.69 123.472 L1141.99 123.472 L1141.99 123.472  Z" fill="#009af9" fill-rule="evenodd" fill-opacity="1"/>
<polyline clip-path="url(#clip652)" style="stroke:#000000; stroke-linecap:round; stroke-linejoin:round; stroke-width:4; stroke-opacity:1; fill:none" points="1141.99,123.472 1141.99,1423.18 1241.69,1423.18 1241.69,123.472 1141.99,123.472 "/>
<path clip-path="url(#clip652)" d="M768.085 123.472 L768.085 1423.18 L867.792 1423.18 L867.792 123.472 L768.085 123.472 L768.085 123.472  Z" fill="#009af9" fill-rule="evenodd" fill-opacity="1"/>
<polyline clip-path="url(#clip652)" style="stroke:#000000; stroke-linecap:round; stroke-linejoin:round; stroke-width:4; stroke-opacity:1; fill:none" points="768.085,123.472 768.085,1423.18 867.792,1423.18 867.792,123.472 768.085,123.472 "/>
<path clip-path="url(#clip652)" d="M1889.79 123.472 L1889.79 1423.18 L1989.49 1423.18 L1989.49 123.472 L1889.79 123.472 L1889.79 123.472  Z" fill="#009af9" fill-rule="evenodd" fill-opacity="1"/>
<polyline clip-path="url(#clip652)" style="stroke:#000000; stroke-linecap:round; stroke-linejoin:round; stroke-width:4; stroke-opacity:1; fill:none" points="1889.79,123.472 1889.79,1423.18 1989.49,1423.18 1989.49,123.472 1889.79,123.472 "/>
<path clip-path="url(#clip652)" d="M2139.05 123.472 L2139.05 1423.18 L2238.76 1423.18 L2238.76 123.472 L2139.05 123.472 L2139.05 123.472  Z" fill="#009af9" fill-rule="evenodd" fill-opacity="1"/>
<polyline clip-path="url(#clip652)" style="stroke:#000000; stroke-linecap:round; stroke-linejoin:round; stroke-width:4; stroke-opacity:1; fill:none" points="2139.05,123.472 2139.05,1423.18 2238.76,1423.18 2238.76,123.472 2139.05,123.472 "/>
<path clip-path="url(#clip652)" d="M518.818 123.472 L518.818 1423.18 L618.525 1423.18 L618.525 123.472 L518.818 123.472 L518.818 123.472  Z" fill="#009af9" fill-rule="evenodd" fill-opacity="1"/>
<polyline clip-path="url(#clip652)" style="stroke:#000000; stroke-linecap:round; stroke-linejoin:round; stroke-width:4; stroke-opacity:1; fill:none" points="518.818,123.472 518.818,1423.18 618.525,1423.18 618.525,123.472 518.818,123.472 "/>
<path clip-path="url(#clip652)" d="M1515.89 123.472 L1515.89 1423.18 L1615.59 1423.18 L1615.59 123.472 L1515.89 123.472 L1515.89 123.472  Z" fill="#009af9" fill-rule="evenodd" fill-opacity="1"/>
<polyline clip-path="url(#clip652)" style="stroke:#000000; stroke-linecap:round; stroke-linejoin:round; stroke-width:4; stroke-opacity:1; fill:none" points="1515.89,123.472 1515.89,1423.18 1615.59,1423.18 1615.59,123.472 1515.89,123.472 "/>
<circle clip-path="url(#clip652)" style="fill:#009af9; stroke:none; fill-opacity:0" cx="942.572" cy="123.472" r="2"/>
<circle clip-path="url(#clip652)" style="fill:#009af9; stroke:none; fill-opacity:0" cx="1815.01" cy="123.472" r="2"/>
<circle clip-path="url(#clip652)" style="fill:#009af9; stroke:none; fill-opacity:0" cx="1316.47" cy="123.472" r="2"/>
<circle clip-path="url(#clip652)" style="fill:#009af9; stroke:none; fill-opacity:0" cx="444.038" cy="123.472" r="2"/>
<circle clip-path="url(#clip652)" style="fill:#009af9; stroke:none; fill-opacity:0" cx="1067.21" cy="123.472" r="2"/>
<circle clip-path="url(#clip652)" style="fill:#009af9; stroke:none; fill-opacity:0" cx="1690.37" cy="123.472" r="2"/>
<circle clip-path="url(#clip652)" style="fill:#009af9; stroke:none; fill-opacity:0" cx="1441.11" cy="123.472" r="2"/>
<circle clip-path="url(#clip652)" style="fill:#009af9; stroke:none; fill-opacity:0" cx="2064.27" cy="123.472" r="2"/>
<circle clip-path="url(#clip652)" style="fill:#009af9; stroke:none; fill-opacity:0" cx="693.305" cy="123.472" r="2"/>
<circle clip-path="url(#clip652)" style="fill:#009af9; stroke:none; fill-opacity:0" cx="1191.84" cy="123.472" r="2"/>
<circle clip-path="url(#clip652)" style="fill:#009af9; stroke:none; fill-opacity:0" cx="817.939" cy="123.472" r="2"/>
<circle clip-path="url(#clip652)" style="fill:#009af9; stroke:none; fill-opacity:0" cx="1939.64" cy="123.472" r="2"/>
<circle clip-path="url(#clip652)" style="fill:#009af9; stroke:none; fill-opacity:0" cx="2188.91" cy="123.472" r="2"/>
<circle clip-path="url(#clip652)" style="fill:#009af9; stroke:none; fill-opacity:0" cx="568.672" cy="123.472" r="2"/>
<circle clip-path="url(#clip652)" style="fill:#009af9; stroke:none; fill-opacity:0" cx="1565.74" cy="123.472" r="2"/>
</svg>
