<?xml version="1.0" encoding="utf-8"?>
<svg xmlns="http://www.w3.org/2000/svg" xmlns:xlink="http://www.w3.org/1999/xlink" width="600" height="400" viewBox="0 0 2400 1600">
<defs>
  <clipPath id="clip290">
    <rect x="0" y="0" width="2400" height="1600"/>
  </clipPath>
</defs>
<path clip-path="url(#clip290)" d="M0 1600 L2400 1600 L2400 0 L0 0  Z" fill="#ffffff" fill-rule="evenodd" fill-opacity="1"/>
<defs>
  <clipPath id="clip291">
    <rect x="480" y="0" width="1681" height="1600"/>
  </clipPath>
</defs>
<path clip-path="url(#clip290)" d="M234.125 1423.18 L2352.76 1423.18 L2352.76 123.472 L234.125 123.472  Z" fill="#ffffff" fill-rule="evenodd" fill-opacity="1"/>
<defs>
  <clipPath id="clip292">
    <rect x="234" y="123" width="2120" height="1301"/>
  </clipPath>
</defs>
<polyline clip-path="url(#clip292)" style="stroke:#000000; stroke-linecap:round; stroke-linejoin:round; stroke-width:2; stroke-opacity:0.1; fill:none" points="388.346,1423.18 388.346,123.472 "/>
<polyline clip-path="url(#clip292)" style="stroke:#000000; stroke-linecap:round; stroke-linejoin:round; stroke-width:2; stroke-opacity:0.1; fill:none" points="517.645,1423.18 517.645,123.472 "/>
<polyline clip-path="url(#clip292)" style="stroke:#000000; stroke-linecap:round; stroke-linejoin:round; stroke-width:2; stroke-opacity:0.1; fill:none" points="646.944,1423.18 646.944,123.472 "/>
<polyline clip-path="url(#clip292)" style="stroke:#000000; stroke-linecap:round; stroke-linejoin:round; stroke-width:2; stroke-opacity:0.1; fill:none" points="776.244,1423.18 776.244,123.472 "/>
<polyline clip-path="url(#clip292)" style="stroke:#000000; stroke-linecap:round; stroke-linejoin:round; stroke-width:2; stroke-opacity:0.1; fill:none" points="905.543,1423.18 905.543,123.472 "/>
<polyline clip-path="url(#clip292)" style="stroke:#000000; stroke-linecap:round; stroke-linejoin:round; stroke-width:2; stroke-opacity:0.1; fill:none" points="1034.84,1423.18 1034.84,123.472 "/>
<polyline clip-path="url(#clip292)" style="stroke:#000000; stroke-linecap:round; stroke-linejoin:round; stroke-width:2; stroke-opacity:0.1; fill:none" points="1164.14,1423.18 1164.14,123.472 "/>
<polyline clip-path="url(#clip292)" style="stroke:#000000; stroke-linecap:round; stroke-linejoin:round; stroke-width:2; stroke-opacity:0.1; fill:none" points="1293.44,1423.18 1293.44,123.472 "/>
<polyline clip-path="url(#clip292)" style="stroke:#000000; stroke-linecap:round; stroke-linejoin:round; stroke-width:2; stroke-opacity:0.1; fill:none" points="1422.74,1423.18 1422.74,123.472 "/>
<polyline clip-path="url(#clip292)" style="stroke:#000000; stroke-linecap:round; stroke-linejoin:round; stroke-width:2; stroke-opacity:0.1; fill:none" points="1552.04,1423.18 1552.04,123.472 "/>
<polyline clip-path="url(#clip292)" style="stroke:#000000; stroke-linecap:round; stroke-linejoin:round; stroke-width:2; stroke-opacity:0.1; fill:none" points="1681.34,1423.18 1681.34,123.472 "/>
<polyline clip-path="url(#clip292)" style="stroke:#000000; stroke-linecap:round; stroke-linejoin:round; stroke-width:2; stroke-opacity:0.1; fill:none" points="1810.64,1423.18 1810.64,123.472 "/>
<polyline clip-path="url(#clip292)" style="stroke:#000000; stroke-linecap:round; stroke-linejoin:round; stroke-width:2; stroke-opacity:0.1; fill:none" points="1939.94,1423.18 1939.94,123.472 "/>
<polyline clip-path="url(#clip292)" style="stroke:#000000; stroke-linecap:round; stroke-linejoin:round; stroke-width:2; stroke-opacity:0.1; fill:none" points="2069.24,1423.18 2069.24,123.472 "/>
<polyline clip-path="url(#clip292)" style="stroke:#000000; stroke-linecap:round; stroke-linejoin:round; stroke-width:2; stroke-opacity:0.1; fill:none" points="2198.54,1423.18 2198.54,123.472 "/>
<polyline clip-path="url(#clip292)" style="stroke:#000000; stroke-linecap:round; stroke-linejoin:round; stroke-width:2; stroke-opacity:0.1; fill:none" points="234.125,1423.18 2352.76,1423.18 "/>
<polyline clip-path="url(#clip292)" style="stroke:#000000; stroke-linecap:round; stroke-linejoin:round; stroke-width:2; stroke-opacity:0.1; fill:none" points="234.125,1092.11 2352.76,1092.11 "/>
<polyline clip-path="url(#clip292)" style="stroke:#000000; stroke-linecap:round; stroke-linejoin:round; stroke-width:2; stroke-opacity:0.1; fill:none" points="234.125,761.045 2352.76,761.045 "/>
<polyline clip-path="url(#clip292)" style="stroke:#000000; stroke-linecap:round; stroke-linejoin:round; stroke-width:2; stroke-opacity:0.1; fill:none" points="234.125,429.977 2352.76,429.977 "/>
<polyline clip-path="url(#clip290)" style="stroke:#000000; stroke-linecap:round; stroke-linejoin:round; stroke-width:4; stroke-opacity:1; fill:none" points="234.125,1423.18 2352.76,1423.18 "/>
<polyline clip-path="url(#clip290)" style="stroke:#000000; stroke-linecap:round; stroke-linejoin:round; stroke-width:4; stroke-opacity:1; fill:none" points="388.346,1423.18 388.346,1404.28 "/>
<polyline clip-path="url(#clip290)" style="stroke:#000000; stroke-linecap:round; stroke-linejoin:round; stroke-width:4; stroke-opacity:1; fill:none" points="517.645,1423.18 517.645,1404.28 "/>
<polyline clip-path="url(#clip290)" style="stroke:#000000; stroke-linecap:round; stroke-linejoin:round; stroke-width:4; stroke-opacity:1; fill:none" points="646.944,1423.18 646.944,1404.28 "/>
<polyline clip-path="url(#clip290)" style="stroke:#000000; stroke-linecap:round; stroke-linejoin:round; stroke-width:4; stroke-opacity:1; fill:none" points="776.244,1423.18 776.244,1404.28 "/>
<polyline clip-path="url(#clip290)" style="stroke:#000000; stroke-linecap:round; stroke-linejoin:round; stroke-width:4; stroke-opacity:1; fill:none" points="905.543,1423.18 905.543,1404.28 "/>
<polyline clip-path="url(#clip290)" style="stroke:#000000; stroke-linecap:round; stroke-linejoin:round; stroke-width:4; stroke-opacity:1; fill:none" points="1034.84,1423.18 1034.84,1404.28 "/>
<polyline clip-path="url(#clip290)" style="stroke:#000000; stroke-linecap:round; stroke-linejoin:round; stroke-width:4; stroke-opacity:1; fill:none" points="1164.14,1423.18 1164.14,1404.28 "/>
<polyline clip-path="url(#clip290)" style="stroke:#000000; stroke-linecap:round; stroke-linejoin:round; stroke-width:4; stroke-opacity:1; fill:none" points="1293.44,1423.18 1293.44,1404.28 "/>
<polyline clip-path="url(#clip290)" style="stroke:#000000; stroke-linecap:round; stroke-linejoin:round; stroke-width:4; stroke-opacity:1; fill:none" points="1422.74,1423.18 1422.74,1404.28 "/>
<polyline clip-path="url(#clip290)" style="stroke:#000000; stroke-linecap:round; stroke-linejoin:round; stroke-width:4; stroke-opacity:1; fill:none" points="1552.04,1423.18 1552.04,1404.28 "/>
<polyline clip-path="url(#clip290)" style="stroke:#000000; stroke-linecap:round; stroke-linejoin:round; stroke-width:4; stroke-opacity:1; fill:none" points="1681.34,1423.18 1681.34,1404.28 "/>
<polyline clip-path="url(#clip290)" style="stroke:#000000; stroke-linecap:round; stroke-linejoin:round; stroke-width:4; stroke-opacity:1; fill:none" points="1810.64,1423.18 1810.64,1404.28 "/>
<polyline clip-path="url(#clip290)" style="stroke:#000000; stroke-linecap:round; stroke-linejoin:round; stroke-width:4; stroke-opacity:1; fill:none" points="1939.94,1423.18 1939.94,1404.28 "/>
<polyline clip-path="url(#clip290)" style="stroke:#000000; stroke-linecap:round; stroke-linejoin:round; stroke-width:4; stroke-opacity:1; fill:none" points="2069.24,1423.18 2069.24,1404.28 "/>
<polyline clip-path="url(#clip290)" style="stroke:#000000; stroke-linecap:round; stroke-linejoin:round; stroke-width:4; stroke-opacity:1; fill:none" points="2198.54,1423.18 2198.54,1404.28 "/>
<path clip-path="url(#clip290)" d="M378.728 1481.64 L386.367 1481.64 L386.367 1455.28 L378.057 1456.95 L378.057 1452.69 L386.32 1451.02 L390.996 1451.02 L390.996 1481.64 L398.635 1481.64 L398.635 1485.58 L378.728 1485.58 L378.728 1481.64 Z" fill="#000000" fill-rule="nonzero" fill-opacity="1" /><path clip-path="url(#clip290)" d="M512.298 1481.64 L528.617 1481.64 L528.617 1485.58 L506.673 1485.58 L506.673 1481.64 Q509.335 1478.89 513.918 1474.26 Q518.525 1469.61 519.705 1468.27 Q521.951 1465.74 522.83 1464.01 Q523.733 1462.25 523.733 1460.56 Q523.733 1457.8 521.789 1456.07 Q519.867 1454.33 516.765 1454.33 Q514.566 1454.33 512.113 1455.09 Q509.682 1455.86 506.904 1457.41 L506.904 1452.69 Q509.728 1451.55 512.182 1450.97 Q514.636 1450.39 516.673 1450.39 Q522.043 1450.39 525.238 1453.08 Q528.432 1455.77 528.432 1460.26 Q528.432 1462.39 527.622 1464.31 Q526.835 1466.2 524.728 1468.8 Q524.15 1469.47 521.048 1472.69 Q517.946 1475.88 512.298 1481.64 Z" fill="#000000" fill-rule="nonzero" fill-opacity="1" /><path clip-path="url(#clip290)" d="M651.192 1466.95 Q654.548 1467.66 656.423 1469.93 Q658.322 1472.2 658.322 1475.53 Q658.322 1480.65 654.803 1483.45 Q651.285 1486.25 644.803 1486.25 Q642.627 1486.25 640.312 1485.81 Q638.021 1485.39 635.567 1484.54 L635.567 1480.02 Q637.512 1481.16 639.826 1481.74 Q642.141 1482.32 644.664 1482.32 Q649.062 1482.32 651.354 1480.58 Q653.669 1478.84 653.669 1475.53 Q653.669 1472.48 651.516 1470.77 Q649.386 1469.03 645.567 1469.03 L641.539 1469.03 L641.539 1465.19 L645.752 1465.19 Q649.201 1465.19 651.03 1463.82 Q652.859 1462.43 652.859 1459.84 Q652.859 1457.18 650.961 1455.77 Q649.086 1454.33 645.567 1454.33 Q643.646 1454.33 641.447 1454.75 Q639.248 1455.16 636.609 1456.04 L636.609 1451.88 Q639.271 1451.14 641.586 1450.77 Q643.924 1450.39 645.984 1450.39 Q651.308 1450.39 654.41 1452.83 Q657.511 1455.23 657.511 1459.35 Q657.511 1462.22 655.868 1464.21 Q654.224 1466.18 651.192 1466.95 Z" fill="#000000" fill-rule="nonzero" fill-opacity="1" /><path clip-path="url(#clip290)" d="M779.253 1455.09 L767.447 1473.54 L779.253 1473.54 L779.253 1455.09 M778.026 1451.02 L783.906 1451.02 L783.906 1473.54 L788.836 1473.54 L788.836 1477.43 L783.906 1477.43 L783.906 1485.58 L779.253 1485.58 L779.253 1477.43 L763.651 1477.43 L763.651 1472.92 L778.026 1451.02 Z" fill="#000000" fill-rule="nonzero" fill-opacity="1" /><path clip-path="url(#clip290)" d="M895.821 1451.02 L914.177 1451.02 L914.177 1454.96 L900.103 1454.96 L900.103 1463.43 Q901.122 1463.08 902.14 1462.92 Q903.159 1462.73 904.177 1462.73 Q909.964 1462.73 913.344 1465.9 Q916.723 1469.08 916.723 1474.49 Q916.723 1480.07 913.251 1483.17 Q909.779 1486.25 903.46 1486.25 Q901.284 1486.25 899.015 1485.88 Q896.77 1485.51 894.362 1484.77 L894.362 1480.07 Q896.446 1481.2 898.668 1481.76 Q900.89 1482.32 903.367 1482.32 Q907.372 1482.32 909.71 1480.21 Q912.047 1478.1 912.047 1474.49 Q912.047 1470.88 909.71 1468.77 Q907.372 1466.67 903.367 1466.67 Q901.492 1466.67 899.617 1467.08 Q897.765 1467.5 895.821 1468.38 L895.821 1451.02 Z" fill="#000000" fill-rule="nonzero" fill-opacity="1" /><path clip-path="url(#clip290)" d="M1035.25 1466.44 Q1032.1 1466.44 1030.25 1468.59 Q1028.42 1470.74 1028.42 1474.49 Q1028.42 1478.22 1030.25 1480.39 Q1032.1 1482.55 1035.25 1482.55 Q1038.4 1482.55 1040.22 1480.39 Q1042.08 1478.22 1042.08 1474.49 Q1042.08 1470.74 1040.22 1468.59 Q1038.4 1466.44 1035.25 1466.44 M1044.53 1451.78 L1044.53 1456.04 Q1042.77 1455.21 1040.96 1454.77 Q1039.18 1454.33 1037.42 1454.33 Q1032.79 1454.33 1030.34 1457.45 Q1027.91 1460.58 1027.56 1466.9 Q1028.93 1464.89 1030.99 1463.82 Q1033.05 1462.73 1035.53 1462.73 Q1040.73 1462.73 1043.74 1465.9 Q1046.77 1469.05 1046.77 1474.49 Q1046.77 1479.82 1043.63 1483.03 Q1040.48 1486.25 1035.25 1486.25 Q1029.25 1486.25 1026.08 1481.67 Q1022.91 1477.06 1022.91 1468.33 Q1022.91 1460.14 1026.8 1455.28 Q1030.69 1450.39 1037.24 1450.39 Q1039 1450.39 1040.78 1450.74 Q1042.59 1451.09 1044.53 1451.78 Z" fill="#000000" fill-rule="nonzero" fill-opacity="1" /><path clip-path="url(#clip290)" d="M1153.03 1451.02 L1175.25 1451.02 L1175.25 1453.01 L1162.71 1485.58 L1157.82 1485.58 L1169.63 1454.96 L1153.03 1454.96 L1153.03 1451.02 Z" fill="#000000" fill-rule="nonzero" fill-opacity="1" /><path clip-path="url(#clip290)" d="M1293.44 1469.17 Q1290.11 1469.17 1288.19 1470.95 Q1286.29 1472.73 1286.29 1475.86 Q1286.29 1478.98 1288.19 1480.77 Q1290.11 1482.55 1293.44 1482.55 Q1296.77 1482.55 1298.7 1480.77 Q1300.62 1478.96 1300.62 1475.86 Q1300.62 1472.73 1298.7 1470.95 Q1296.8 1469.17 1293.44 1469.17 M1288.76 1467.18 Q1285.76 1466.44 1284.07 1464.38 Q1282.4 1462.32 1282.4 1459.35 Q1282.4 1455.21 1285.34 1452.8 Q1288.3 1450.39 1293.44 1450.39 Q1298.6 1450.39 1301.54 1452.8 Q1304.48 1455.21 1304.48 1459.35 Q1304.48 1462.32 1302.79 1464.38 Q1301.13 1466.44 1298.14 1467.18 Q1301.52 1467.96 1303.39 1470.26 Q1305.29 1472.55 1305.29 1475.86 Q1305.29 1480.88 1302.21 1483.57 Q1299.16 1486.25 1293.44 1486.25 Q1287.72 1486.25 1284.64 1483.57 Q1281.59 1480.88 1281.59 1475.86 Q1281.59 1472.55 1283.49 1470.26 Q1285.39 1467.96 1288.76 1467.18 M1287.05 1459.79 Q1287.05 1462.48 1288.72 1463.98 Q1290.41 1465.49 1293.44 1465.49 Q1296.45 1465.49 1298.14 1463.98 Q1299.85 1462.48 1299.85 1459.79 Q1299.85 1457.11 1298.14 1455.6 Q1296.45 1454.1 1293.44 1454.1 Q1290.41 1454.1 1288.72 1455.6 Q1287.05 1457.11 1287.05 1459.79 Z" fill="#000000" fill-rule="nonzero" fill-opacity="1" /><path clip-path="url(#clip290)" d="M1413.04 1484.86 L1413.04 1480.6 Q1414.8 1481.44 1416.61 1481.88 Q1418.41 1482.32 1420.15 1482.32 Q1424.78 1482.32 1427.21 1479.21 Q1429.66 1476.09 1430.01 1469.75 Q1428.67 1471.74 1426.61 1472.8 Q1424.55 1473.87 1422.05 1473.87 Q1416.86 1473.87 1413.83 1470.74 Q1410.82 1467.59 1410.82 1462.15 Q1410.82 1456.83 1413.97 1453.61 Q1417.11 1450.39 1422.35 1450.39 Q1428.34 1450.39 1431.49 1455 Q1434.66 1459.58 1434.66 1468.33 Q1434.66 1476.51 1430.77 1481.39 Q1426.91 1486.25 1420.36 1486.25 Q1418.6 1486.25 1416.79 1485.9 Q1414.99 1485.56 1413.04 1484.86 M1422.35 1470.21 Q1425.49 1470.21 1427.32 1468.06 Q1429.18 1465.9 1429.18 1462.15 Q1429.18 1458.43 1427.32 1456.27 Q1425.49 1454.1 1422.35 1454.1 Q1419.2 1454.1 1417.35 1456.27 Q1415.52 1458.43 1415.52 1462.15 Q1415.52 1465.9 1417.35 1468.06 Q1419.2 1470.21 1422.35 1470.21 Z" fill="#000000" fill-rule="nonzero" fill-opacity="1" /><path clip-path="url(#clip290)" d="M1526.73 1481.64 L1534.37 1481.64 L1534.37 1455.28 L1526.06 1456.95 L1526.06 1452.69 L1534.32 1451.02 L1539 1451.02 L1539 1481.64 L1546.63 1481.64 L1546.63 1485.58 L1526.73 1485.58 L1526.73 1481.64 Z" fill="#000000" fill-rule="nonzero" fill-opacity="1" /><path clip-path="url(#clip290)" d="M1566.08 1454.1 Q1562.47 1454.1 1560.64 1457.66 Q1558.83 1461.2 1558.83 1468.33 Q1558.83 1475.44 1560.64 1479.01 Q1562.47 1482.55 1566.08 1482.55 Q1569.71 1482.55 1571.52 1479.01 Q1573.35 1475.44 1573.35 1468.33 Q1573.35 1461.2 1571.52 1457.66 Q1569.71 1454.1 1566.08 1454.1 M1566.08 1450.39 Q1571.89 1450.39 1574.94 1455 Q1578.02 1459.58 1578.02 1468.33 Q1578.02 1477.06 1574.94 1481.67 Q1571.89 1486.25 1566.08 1486.25 Q1560.27 1486.25 1557.19 1481.67 Q1554.13 1477.06 1554.13 1468.33 Q1554.13 1459.58 1557.19 1455 Q1560.27 1450.39 1566.08 1450.39 Z" fill="#000000" fill-rule="nonzero" fill-opacity="1" /><path clip-path="url(#clip290)" d="M1656.64 1481.64 L1664.28 1481.64 L1664.28 1455.28 L1655.97 1456.95 L1655.97 1452.69 L1664.23 1451.02 L1668.91 1451.02 L1668.91 1481.64 L1676.55 1481.64 L1676.55 1485.58 L1656.64 1485.58 L1656.64 1481.64 Z" fill="#000000" fill-rule="nonzero" fill-opacity="1" /><path clip-path="url(#clip290)" d="M1686.8 1481.64 L1694.44 1481.64 L1694.44 1455.28 L1686.13 1456.95 L1686.13 1452.69 L1694.39 1451.02 L1699.07 1451.02 L1699.07 1481.64 L1706.71 1481.64 L1706.71 1485.58 L1686.8 1485.58 L1686.8 1481.64 Z" fill="#000000" fill-rule="nonzero" fill-opacity="1" /><path clip-path="url(#clip290)" d="M1786.12 1481.64 L1793.76 1481.64 L1793.76 1455.28 L1785.45 1456.95 L1785.45 1452.69 L1793.72 1451.02 L1798.39 1451.02 L1798.39 1481.64 L1806.03 1481.64 L1806.03 1485.58 L1786.12 1485.58 L1786.12 1481.64 Z" fill="#000000" fill-rule="nonzero" fill-opacity="1" /><path clip-path="url(#clip290)" d="M1819.5 1481.64 L1835.82 1481.64 L1835.82 1485.58 L1813.88 1485.58 L1813.88 1481.64 Q1816.54 1478.89 1821.12 1474.26 Q1825.73 1469.61 1826.91 1468.27 Q1829.16 1465.74 1830.04 1464.01 Q1830.94 1462.25 1830.94 1460.56 Q1830.94 1457.8 1828.99 1456.07 Q1827.07 1454.33 1823.97 1454.33 Q1821.77 1454.33 1819.32 1455.09 Q1816.89 1455.86 1814.11 1457.41 L1814.11 1452.69 Q1816.93 1451.55 1819.39 1450.97 Q1821.84 1450.39 1823.88 1450.39 Q1829.25 1450.39 1832.44 1453.08 Q1835.64 1455.77 1835.64 1460.26 Q1835.64 1462.39 1834.83 1464.31 Q1834.04 1466.2 1831.93 1468.8 Q1831.36 1469.47 1828.25 1472.69 Q1825.15 1475.88 1819.5 1481.64 Z" fill="#000000" fill-rule="nonzero" fill-opacity="1" /><path clip-path="url(#clip290)" d="M1914.95 1481.64 L1922.59 1481.64 L1922.59 1455.28 L1914.28 1456.95 L1914.28 1452.69 L1922.54 1451.02 L1927.22 1451.02 L1927.22 1481.64 L1934.86 1481.64 L1934.86 1485.58 L1914.95 1485.58 L1914.95 1481.64 Z" fill="#000000" fill-rule="nonzero" fill-opacity="1" /><path clip-path="url(#clip290)" d="M1958.47 1466.95 Q1961.82 1467.66 1963.7 1469.93 Q1965.6 1472.2 1965.6 1475.53 Q1965.6 1480.65 1962.08 1483.45 Q1958.56 1486.25 1952.08 1486.25 Q1949.9 1486.25 1947.59 1485.81 Q1945.3 1485.39 1942.84 1484.54 L1942.84 1480.02 Q1944.79 1481.16 1947.1 1481.74 Q1949.42 1482.32 1951.94 1482.32 Q1956.34 1482.32 1958.63 1480.58 Q1960.94 1478.84 1960.94 1475.53 Q1960.94 1472.48 1958.79 1470.77 Q1956.66 1469.03 1952.84 1469.03 L1948.81 1469.03 L1948.81 1465.19 L1953.03 1465.19 Q1956.48 1465.19 1958.3 1463.82 Q1960.13 1462.43 1960.13 1459.84 Q1960.13 1457.18 1958.24 1455.77 Q1956.36 1454.33 1952.84 1454.33 Q1950.92 1454.33 1948.72 1454.75 Q1946.52 1455.16 1943.88 1456.04 L1943.88 1451.88 Q1946.55 1451.14 1948.86 1450.77 Q1951.2 1450.39 1953.26 1450.39 Q1958.58 1450.39 1961.68 1452.83 Q1964.79 1455.23 1964.79 1459.35 Q1964.79 1462.22 1963.14 1464.21 Q1961.5 1466.18 1958.47 1466.95 Z" fill="#000000" fill-rule="nonzero" fill-opacity="1" /><path clip-path="url(#clip290)" d="M2043.68 1481.64 L2051.32 1481.64 L2051.32 1455.28 L2043.01 1456.95 L2043.01 1452.69 L2051.27 1451.02 L2055.95 1451.02 L2055.95 1481.64 L2063.59 1481.64 L2063.59 1485.58 L2043.68 1485.58 L2043.68 1481.64 Z" fill="#000000" fill-rule="nonzero" fill-opacity="1" /><path clip-path="url(#clip290)" d="M2085.88 1455.09 L2074.07 1473.54 L2085.88 1473.54 L2085.88 1455.09 M2084.65 1451.02 L2090.53 1451.02 L2090.53 1473.54 L2095.46 1473.54 L2095.46 1477.43 L2090.53 1477.43 L2090.53 1485.58 L2085.88 1485.58 L2085.88 1477.43 L2070.28 1477.43 L2070.28 1472.92 L2084.65 1451.02 Z" fill="#000000" fill-rule="nonzero" fill-opacity="1" /><path clip-path="url(#clip290)" d="M2173.72 1481.64 L2181.36 1481.64 L2181.36 1455.28 L2173.05 1456.95 L2173.05 1452.69 L2181.31 1451.02 L2185.99 1451.02 L2185.99 1481.64 L2193.63 1481.64 L2193.63 1485.58 L2173.72 1485.58 L2173.72 1481.64 Z" fill="#000000" fill-rule="nonzero" fill-opacity="1" /><path clip-path="url(#clip290)" d="M2203.12 1451.02 L2221.48 1451.02 L2221.48 1454.96 L2207.4 1454.96 L2207.4 1463.43 Q2208.42 1463.08 2209.44 1462.92 Q2210.46 1462.73 2211.48 1462.73 Q2217.26 1462.73 2220.64 1465.9 Q2224.02 1469.08 2224.02 1474.49 Q2224.02 1480.07 2220.55 1483.17 Q2217.08 1486.25 2210.76 1486.25 Q2208.58 1486.25 2206.31 1485.88 Q2204.07 1485.51 2201.66 1484.77 L2201.66 1480.07 Q2203.74 1481.2 2205.97 1481.76 Q2208.19 1482.32 2210.67 1482.32 Q2214.67 1482.32 2217.01 1480.21 Q2219.35 1478.1 2219.35 1474.49 Q2219.35 1470.88 2217.01 1468.77 Q2214.67 1466.67 2210.67 1466.67 Q2208.79 1466.67 2206.92 1467.08 Q2205.06 1467.5 2203.12 1468.38 L2203.12 1451.02 Z" fill="#000000" fill-rule="nonzero" fill-opacity="1" /><path clip-path="url(#clip290)" d="M1175.31 1520.52 L1181.74 1520.52 L1181.74 1562.63 L1204.88 1562.63 L1204.88 1568.04 L1175.31 1568.04 L1175.31 1520.52 Z" fill="#000000" fill-rule="nonzero" fill-opacity="1" /><path clip-path="url(#clip290)" d="M1224.04 1536.5 Q1219.33 1536.5 1216.59 1540.19 Q1213.85 1543.85 1213.85 1550.25 Q1213.85 1556.65 1216.56 1560.34 Q1219.3 1564 1224.04 1564 Q1228.72 1564 1231.45 1560.31 Q1234.19 1556.62 1234.19 1550.25 Q1234.19 1543.92 1231.45 1540.23 Q1228.72 1536.5 1224.04 1536.5 M1224.04 1531.54 Q1231.68 1531.54 1236.04 1536.5 Q1240.4 1541.47 1240.4 1550.25 Q1240.4 1559 1236.04 1564 Q1231.68 1568.97 1224.04 1568.97 Q1216.37 1568.97 1212.01 1564 Q1207.68 1559 1207.68 1550.25 Q1207.68 1541.47 1212.01 1536.5 Q1216.37 1531.54 1224.04 1531.54 Z" fill="#000000" fill-rule="nonzero" fill-opacity="1" /><path clip-path="url(#clip290)" d="M1266.31 1550.12 Q1259.21 1550.12 1256.47 1551.75 Q1253.73 1553.37 1253.73 1557.29 Q1253.73 1560.4 1255.77 1562.25 Q1257.84 1564.07 1261.37 1564.07 Q1266.24 1564.07 1269.17 1560.63 Q1272.13 1557.16 1272.13 1551.43 L1272.13 1550.12 L1266.31 1550.12 M1277.99 1547.71 L1277.99 1568.04 L1272.13 1568.04 L1272.13 1562.63 Q1270.13 1565.88 1267.13 1567.44 Q1264.14 1568.97 1259.81 1568.97 Q1254.34 1568.97 1251.09 1565.91 Q1247.88 1562.82 1247.88 1557.67 Q1247.88 1551.65 1251.89 1548.6 Q1255.93 1545.54 1263.92 1545.54 L1272.13 1545.54 L1272.13 1544.97 Q1272.13 1540.93 1269.46 1538.73 Q1266.82 1536.5 1262.01 1536.5 Q1258.95 1536.5 1256.06 1537.23 Q1253.16 1537.97 1250.49 1539.43 L1250.49 1534.02 Q1253.7 1532.78 1256.73 1532.17 Q1259.75 1531.54 1262.61 1531.54 Q1270.35 1531.54 1274.17 1535.55 Q1277.99 1539.56 1277.99 1547.71 Z" fill="#000000" fill-rule="nonzero" fill-opacity="1" /><path clip-path="url(#clip290)" d="M1313.51 1537.81 L1313.51 1518.52 L1319.37 1518.52 L1319.37 1568.04 L1313.51 1568.04 L1313.51 1562.7 Q1311.66 1565.88 1308.83 1567.44 Q1306.03 1568.97 1302.08 1568.97 Q1295.62 1568.97 1291.55 1563.81 Q1287.5 1558.65 1287.5 1550.25 Q1287.5 1541.85 1291.55 1536.69 Q1295.62 1531.54 1302.08 1531.54 Q1306.03 1531.54 1308.83 1533.1 Q1311.66 1534.62 1313.51 1537.81 M1293.55 1550.25 Q1293.55 1556.71 1296.19 1560.4 Q1298.87 1564.07 1303.51 1564.07 Q1308.16 1564.07 1310.83 1560.4 Q1313.51 1556.71 1313.51 1550.25 Q1313.51 1543.79 1310.83 1540.13 Q1308.16 1536.44 1303.51 1536.44 Q1298.87 1536.44 1296.19 1540.13 Q1293.55 1543.79 1293.55 1550.25 Z" fill="#000000" fill-rule="nonzero" fill-opacity="1" /><path clip-path="url(#clip290)" d="M1352.4 1520.52 L1358.83 1520.52 L1358.83 1568.04 L1352.4 1568.04 L1352.4 1520.52 Z" fill="#000000" fill-rule="nonzero" fill-opacity="1" /><path clip-path="url(#clip290)" d="M1378.06 1525.81 L1378.06 1562.76 L1385.82 1562.76 Q1395.66 1562.76 1400.21 1558.3 Q1404.79 1553.85 1404.79 1544.24 Q1404.79 1534.69 1400.21 1530.26 Q1395.66 1525.81 1385.82 1525.81 L1378.06 1525.81 M1371.63 1520.52 L1384.84 1520.52 Q1398.65 1520.52 1405.11 1526.28 Q1411.57 1532.01 1411.57 1544.24 Q1411.57 1556.52 1405.08 1562.28 Q1398.59 1568.04 1384.84 1568.04 L1371.63 1568.04 L1371.63 1520.52 Z" fill="#000000" fill-rule="nonzero" fill-opacity="1" /><polyline clip-path="url(#clip290)" style="stroke:#000000; stroke-linecap:round; stroke-linejoin:round; stroke-width:4; stroke-opacity:1; fill:none" points="234.125,1423.18 234.125,123.472 "/>
<polyline clip-path="url(#clip290)" style="stroke:#000000; stroke-linecap:round; stroke-linejoin:round; stroke-width:4; stroke-opacity:1; fill:none" points="234.125,1423.18 253.023,1423.18 "/>
<polyline clip-path="url(#clip290)" style="stroke:#000000; stroke-linecap:round; stroke-linejoin:round; stroke-width:4; stroke-opacity:1; fill:none" points="234.125,1092.11 253.023,1092.11 "/>
<polyline clip-path="url(#clip290)" style="stroke:#000000; stroke-linecap:round; stroke-linejoin:round; stroke-width:4; stroke-opacity:1; fill:none" points="234.125,761.045 253.023,761.045 "/>
<polyline clip-path="url(#clip290)" style="stroke:#000000; stroke-linecap:round; stroke-linejoin:round; stroke-width:4; stroke-opacity:1; fill:none" points="234.125,429.977 253.023,429.977 "/>
<path clip-path="url(#clip290)" d="M186.181 1408.98 Q182.57 1408.98 180.741 1412.54 Q178.936 1416.08 178.936 1423.21 Q178.936 1430.32 180.741 1433.89 Q182.57 1437.43 186.181 1437.43 Q189.815 1437.43 191.621 1433.89 Q193.45 1430.32 193.45 1423.21 Q193.45 1416.08 191.621 1412.54 Q189.815 1408.98 186.181 1408.98 M186.181 1405.27 Q191.991 1405.27 195.047 1409.88 Q198.125 1414.46 198.125 1423.21 Q198.125 1431.94 195.047 1436.55 Q191.991 1441.13 186.181 1441.13 Q180.371 1441.13 177.292 1436.55 Q174.237 1431.94 174.237 1423.21 Q174.237 1414.46 177.292 1409.88 Q180.371 1405.27 186.181 1405.27 Z" fill="#000000" fill-rule="nonzero" fill-opacity="1" /><path clip-path="url(#clip290)" d="M116.668 1105.46 L124.306 1105.46 L124.306 1079.09 L115.996 1080.76 L115.996 1076.5 L124.26 1074.83 L128.936 1074.83 L128.936 1105.46 L136.575 1105.46 L136.575 1109.39 L116.668 1109.39 L116.668 1105.46 Z" fill="#000000" fill-rule="nonzero" fill-opacity="1" /><path clip-path="url(#clip290)" d="M156.019 1077.91 Q152.408 1077.91 150.579 1081.48 Q148.774 1085.02 148.774 1092.15 Q148.774 1099.25 150.579 1102.82 Q152.408 1106.36 156.019 1106.36 Q159.653 1106.36 161.459 1102.82 Q163.288 1099.25 163.288 1092.15 Q163.288 1085.02 161.459 1081.48 Q159.653 1077.91 156.019 1077.91 M156.019 1074.21 Q161.829 1074.21 164.885 1078.81 Q167.964 1083.4 167.964 1092.15 Q167.964 1100.87 164.885 1105.48 Q161.829 1110.06 156.019 1110.06 Q150.209 1110.06 147.13 1105.48 Q144.075 1100.87 144.075 1092.15 Q144.075 1083.4 147.13 1078.81 Q150.209 1074.21 156.019 1074.21 Z" fill="#000000" fill-rule="nonzero" fill-opacity="1" /><path clip-path="url(#clip290)" d="M186.181 1077.91 Q182.57 1077.91 180.741 1081.48 Q178.936 1085.02 178.936 1092.15 Q178.936 1099.25 180.741 1102.82 Q182.57 1106.36 186.181 1106.36 Q189.815 1106.36 191.621 1102.82 Q193.45 1099.25 193.45 1092.15 Q193.45 1085.02 191.621 1081.48 Q189.815 1077.91 186.181 1077.91 M186.181 1074.21 Q191.991 1074.21 195.047 1078.81 Q198.125 1083.4 198.125 1092.15 Q198.125 1100.87 195.047 1105.48 Q191.991 1110.06 186.181 1110.06 Q180.371 1110.06 177.292 1105.48 Q174.237 1100.87 174.237 1092.15 Q174.237 1083.4 177.292 1078.81 Q180.371 1074.21 186.181 1074.21 Z" fill="#000000" fill-rule="nonzero" fill-opacity="1" /><path clip-path="url(#clip290)" d="M119.885 774.389 L136.204 774.389 L136.204 778.325 L114.26 778.325 L114.26 774.389 Q116.922 771.635 121.505 767.005 Q126.112 762.352 127.292 761.01 Q129.538 758.487 130.417 756.751 Q131.32 754.991 131.32 753.302 Q131.32 750.547 129.376 748.811 Q127.455 747.075 124.353 747.075 Q122.154 747.075 119.7 747.839 Q117.269 748.602 114.492 750.153 L114.492 745.431 Q117.316 744.297 119.769 743.718 Q122.223 743.14 124.26 743.14 Q129.63 743.14 132.825 745.825 Q136.019 748.51 136.019 753.001 Q136.019 755.13 135.209 757.051 Q134.422 758.95 132.316 761.542 Q131.737 762.214 128.635 765.431 Q125.533 768.626 119.885 774.389 Z" fill="#000000" fill-rule="nonzero" fill-opacity="1" /><path clip-path="url(#clip290)" d="M156.019 746.843 Q152.408 746.843 150.579 750.408 Q148.774 753.95 148.774 761.079 Q148.774 768.186 150.579 771.75 Q152.408 775.292 156.019 775.292 Q159.653 775.292 161.459 771.75 Q163.288 768.186 163.288 761.079 Q163.288 753.95 161.459 750.408 Q159.653 746.843 156.019 746.843 M156.019 743.14 Q161.829 743.14 164.885 747.746 Q167.964 752.329 167.964 761.079 Q167.964 769.806 164.885 774.413 Q161.829 778.996 156.019 778.996 Q150.209 778.996 147.13 774.413 Q144.075 769.806 144.075 761.079 Q144.075 752.329 147.13 747.746 Q150.209 743.14 156.019 743.14 Z" fill="#000000" fill-rule="nonzero" fill-opacity="1" /><path clip-path="url(#clip290)" d="M186.181 746.843 Q182.57 746.843 180.741 750.408 Q178.936 753.95 178.936 761.079 Q178.936 768.186 180.741 771.75 Q182.57 775.292 186.181 775.292 Q189.815 775.292 191.621 771.75 Q193.45 768.186 193.45 761.079 Q193.45 753.95 191.621 750.408 Q189.815 746.843 186.181 746.843 M186.181 743.14 Q191.991 743.14 195.047 747.746 Q198.125 752.329 198.125 761.079 Q198.125 769.806 195.047 774.413 Q191.991 778.996 186.181 778.996 Q180.371 778.996 177.292 774.413 Q174.237 769.806 174.237 761.079 Q174.237 752.329 177.292 747.746 Q180.371 743.14 186.181 743.14 Z" fill="#000000" fill-rule="nonzero" fill-opacity="1" /><path clip-path="url(#clip290)" d="M130.024 428.623 Q133.38 429.34 135.255 431.609 Q137.154 433.877 137.154 437.211 Q137.154 442.326 133.635 445.127 Q130.117 447.928 123.635 447.928 Q121.459 447.928 119.144 447.488 Q116.853 447.072 114.399 446.215 L114.399 441.701 Q116.343 442.836 118.658 443.414 Q120.973 443.993 123.496 443.993 Q127.894 443.993 130.186 442.257 Q132.501 440.521 132.501 437.211 Q132.501 434.155 130.348 432.442 Q128.218 430.706 124.399 430.706 L120.371 430.706 L120.371 426.863 L124.584 426.863 Q128.033 426.863 129.862 425.498 Q131.691 424.109 131.691 421.516 Q131.691 418.854 129.792 417.442 Q127.917 416.007 124.399 416.007 Q122.478 416.007 120.279 416.424 Q118.08 416.84 115.441 417.72 L115.441 413.553 Q118.103 412.813 120.418 412.442 Q122.755 412.072 124.816 412.072 Q130.14 412.072 133.242 414.502 Q136.343 416.91 136.343 421.03 Q136.343 423.901 134.7 425.891 Q133.056 427.859 130.024 428.623 Z" fill="#000000" fill-rule="nonzero" fill-opacity="1" /><path clip-path="url(#clip290)" d="M156.019 415.776 Q152.408 415.776 150.579 419.34 Q148.774 422.882 148.774 430.012 Q148.774 437.118 150.579 440.683 Q152.408 444.224 156.019 444.224 Q159.653 444.224 161.459 440.683 Q163.288 437.118 163.288 430.012 Q163.288 422.882 161.459 419.34 Q159.653 415.776 156.019 415.776 M156.019 412.072 Q161.829 412.072 164.885 416.678 Q167.964 421.262 167.964 430.012 Q167.964 438.738 164.885 443.345 Q161.829 447.928 156.019 447.928 Q150.209 447.928 147.13 443.345 Q144.075 438.738 144.075 430.012 Q144.075 421.262 147.13 416.678 Q150.209 412.072 156.019 412.072 Z" fill="#000000" fill-rule="nonzero" fill-opacity="1" /><path clip-path="url(#clip290)" d="M186.181 415.776 Q182.57 415.776 180.741 419.34 Q178.936 422.882 178.936 430.012 Q178.936 437.118 180.741 440.683 Q182.57 444.224 186.181 444.224 Q189.815 444.224 191.621 440.683 Q193.45 437.118 193.45 430.012 Q193.45 422.882 191.621 419.34 Q189.815 415.776 186.181 415.776 M186.181 412.072 Q191.991 412.072 195.047 416.678 Q198.125 421.262 198.125 430.012 Q198.125 438.738 195.047 443.345 Q191.991 447.928 186.181 447.928 Q180.371 447.928 177.292 443.345 Q174.237 438.738 174.237 430.012 Q174.237 421.262 177.292 416.678 Q180.371 412.072 186.181 412.072 Z" fill="#000000" fill-rule="nonzero" fill-opacity="1" /><path clip-path="url(#clip290)" d="M16.4842 1024.85 L16.4842 1018.42 L58.5933 1018.42 L58.5933 995.282 L64.0042 995.282 L64.0042 1024.85 L16.4842 1024.85 Z" fill="#000000" fill-rule="nonzero" fill-opacity="1" /><path clip-path="url(#clip290)" d="M32.4621 976.121 Q32.4621 980.832 36.1542 983.569 Q39.8145 986.307 46.212 986.307 Q52.6095 986.307 56.3017 983.601 Q59.9619 980.864 59.9619 976.121 Q59.9619 971.443 56.2698 968.705 Q52.5777 965.968 46.212 965.968 Q39.8781 965.968 36.186 968.705 Q32.4621 971.443 32.4621 976.121 M27.4968 976.121 Q27.4968 968.483 32.4621 964.122 Q37.4273 959.762 46.212 959.762 Q54.9649 959.762 59.9619 964.122 Q64.9272 968.483 64.9272 976.121 Q64.9272 983.792 59.9619 988.153 Q54.9649 992.481 46.212 992.481 Q37.4273 992.481 32.4621 988.153 Q27.4968 983.792 27.4968 976.121 Z" fill="#000000" fill-rule="nonzero" fill-opacity="1" /><path clip-path="url(#clip290)" d="M46.0847 933.853 Q46.0847 940.951 47.7079 943.688 Q49.3312 946.425 53.2461 946.425 Q56.3653 946.425 58.2114 944.388 Q60.0256 942.32 60.0256 938.787 Q60.0256 933.917 56.5881 930.989 Q53.1188 928.029 47.3897 928.029 L46.0847 928.029 L46.0847 933.853 M43.6657 922.172 L64.0042 922.172 L64.0042 928.029 L58.5933 928.029 Q61.8398 930.034 63.3994 933.026 Q64.9272 936.018 64.9272 940.346 Q64.9272 945.821 61.8716 949.067 Q58.7843 952.282 53.6281 952.282 Q47.6125 952.282 44.5569 948.272 Q41.5014 944.229 41.5014 936.24 L41.5014 928.029 L40.9285 928.029 Q36.8862 928.029 34.6901 930.702 Q32.4621 933.344 32.4621 938.15 Q32.4621 941.206 33.1941 944.102 Q33.9262 946.998 35.3903 949.672 L29.9795 949.672 Q28.7381 946.457 28.1334 943.434 Q27.4968 940.41 27.4968 937.545 Q27.4968 929.811 31.5072 925.992 Q35.5176 922.172 43.6657 922.172 Z" fill="#000000" fill-rule="nonzero" fill-opacity="1" /><path clip-path="url(#clip290)" d="M33.7671 886.651 L14.479 886.651 L14.479 880.795 L64.0042 880.795 L64.0042 886.651 L58.657 886.651 Q61.8398 888.498 63.3994 891.33 Q64.9272 894.131 64.9272 898.078 Q64.9272 904.539 59.771 908.613 Q54.6147 912.655 46.212 912.655 Q37.8093 912.655 32.6531 908.613 Q27.4968 904.539 27.4968 898.078 Q27.4968 894.131 29.0564 891.33 Q30.5842 888.498 33.7671 886.651 M46.212 906.608 Q52.6732 906.608 56.3653 903.966 Q60.0256 901.293 60.0256 896.646 Q60.0256 891.999 56.3653 889.325 Q52.6732 886.651 46.212 886.651 Q39.7508 886.651 36.0905 889.325 Q32.3984 891.999 32.3984 896.646 Q32.3984 901.293 36.0905 903.966 Q39.7508 906.608 46.212 906.608 Z" fill="#000000" fill-rule="nonzero" fill-opacity="1" /><path clip-path="url(#clip290)" d="M18.0438 819.27 L24.314 819.27 Q22.5634 822.931 21.704 826.177 Q20.8447 829.424 20.8447 832.447 Q20.8447 837.699 22.8817 840.564 Q24.9187 843.396 28.6745 843.396 Q31.8255 843.396 33.4488 841.519 Q35.0402 839.609 36.0269 834.325 L36.8226 830.442 Q38.1912 823.249 41.6605 819.843 Q45.098 816.406 50.8908 816.406 Q57.7976 816.406 61.3624 821.053 Q64.9272 825.668 64.9272 834.612 Q64.9272 837.986 64.1633 841.805 Q63.3994 845.593 61.9035 849.667 L55.2831 849.667 Q57.4793 845.752 58.5933 841.996 Q59.7073 838.24 59.7073 834.612 Q59.7073 829.105 57.543 826.114 Q55.3786 823.122 51.3682 823.122 Q47.8671 823.122 45.8937 825.286 Q43.9204 827.419 42.9337 832.32 L42.1698 836.235 Q40.7375 843.428 37.682 846.643 Q34.6264 849.858 29.1837 849.858 Q22.8817 849.858 19.2532 845.434 Q15.6248 840.978 15.6248 833.18 Q15.6248 829.838 16.2295 826.368 Q16.8343 822.899 18.0438 819.27 Z" fill="#000000" fill-rule="nonzero" fill-opacity="1" /><path clip-path="url(#clip290)" d="M42.4881 777.002 L64.0042 777.002 L64.0042 782.859 L42.679 782.859 Q37.6183 782.859 35.1038 784.832 Q32.5894 786.805 32.5894 790.752 Q32.5894 795.495 35.6131 798.232 Q38.6368 800.969 43.8567 800.969 L64.0042 800.969 L64.0042 806.857 L14.479 806.857 L14.479 800.969 L33.8944 800.969 Q30.6797 798.868 29.0883 796.036 Q27.4968 793.171 27.4968 789.447 Q27.4968 783.304 31.3163 780.153 Q35.1038 777.002 42.4881 777.002 Z" fill="#000000" fill-rule="nonzero" fill-opacity="1" /><path clip-path="url(#clip290)" d="M44.7161 734.829 L47.5806 734.829 L47.5806 761.756 Q53.6281 761.374 56.8109 758.128 Q59.9619 754.85 59.9619 749.025 Q59.9619 745.651 59.1344 742.5 Q58.3069 739.317 56.6518 736.198 L62.1899 736.198 Q63.5267 739.349 64.227 742.659 Q64.9272 745.969 64.9272 749.375 Q64.9272 757.905 59.9619 762.902 Q54.9967 767.867 46.5303 767.867 Q37.7774 767.867 32.6531 763.157 Q27.4968 758.414 27.4968 750.394 Q27.4968 743.2 32.1438 739.031 Q36.7589 734.829 44.7161 734.829 M42.9973 740.686 Q38.1912 740.749 35.3266 743.391 Q32.4621 746.001 32.4621 750.33 Q32.4621 755.231 35.2312 758.192 Q38.0002 761.12 43.0292 761.565 L42.9973 740.686 Z" fill="#000000" fill-rule="nonzero" fill-opacity="1" /><path clip-path="url(#clip290)" d="M33.7671 701.76 L14.479 701.76 L14.479 695.903 L64.0042 695.903 L64.0042 701.76 L58.657 701.76 Q61.8398 703.606 63.3994 706.438 Q64.9272 709.239 64.9272 713.186 Q64.9272 719.647 59.771 723.721 Q54.6147 727.763 46.212 727.763 Q37.8093 727.763 32.6531 723.721 Q27.4968 719.647 27.4968 713.186 Q27.4968 709.239 29.0564 706.438 Q30.5842 703.606 33.7671 701.76 M46.212 721.716 Q52.6732 721.716 56.3653 719.074 Q60.0256 716.401 60.0256 711.754 Q60.0256 707.107 56.3653 704.433 Q52.6732 701.76 46.212 701.76 Q39.7508 701.76 36.0905 704.433 Q32.3984 707.107 32.3984 711.754 Q32.3984 716.401 36.0905 719.074 Q39.7508 721.716 46.212 721.716 Z" fill="#000000" fill-rule="nonzero" fill-opacity="1" /><path clip-path="url(#clip290)" d="M14.5426 649.051 Q21.8632 653.316 29.0246 655.385 Q36.186 657.454 43.5384 657.454 Q50.8908 657.454 58.1159 655.385 Q65.3091 653.285 72.5979 649.051 L72.5979 654.144 Q65.1182 658.918 57.8931 661.305 Q50.668 663.661 43.5384 663.661 Q36.4406 663.661 29.2474 661.305 Q22.0542 658.95 14.5426 654.144 L14.5426 649.051 Z" fill="#000000" fill-rule="nonzero" fill-opacity="1" /><path clip-path="url(#clip290)" d="M14.479 637.911 L14.479 632.023 L43.7294 632.023 L28.3562 614.549 L28.3562 607.07 L45.0344 625.976 L64.0042 606.274 L64.0042 613.913 L46.5939 632.023 L64.0042 632.023 L64.0042 637.911 L14.479 637.911 Z" fill="#000000" fill-rule="nonzero" fill-opacity="1" /><path clip-path="url(#clip290)" d="M16.4842 603.919 L16.4842 597.426 L56.6518 587.431 L16.4842 577.469 L16.4842 570.244 L56.6518 560.25 L16.4842 550.288 L16.4842 543.763 L64.0042 555.698 L64.0042 563.783 L22.7544 573.809 L64.0042 583.93 L64.0042 592.015 L16.4842 603.919 Z" fill="#000000" fill-rule="nonzero" fill-opacity="1" /><path clip-path="url(#clip290)" d="M14.5426 536.41 L14.5426 531.318 Q22.0542 526.543 29.2474 524.188 Q36.4406 521.801 43.5384 521.801 Q50.668 521.801 57.8931 524.188 Q65.1182 526.543 72.5979 531.318 L72.5979 536.41 Q65.3091 532.177 58.1159 530.108 Q50.8908 528.008 43.5384 528.008 Q36.186 528.008 29.0246 530.108 Q21.8632 532.177 14.5426 536.41 Z" fill="#000000" fill-rule="nonzero" fill-opacity="1" /><path clip-path="url(#clip290)" d="M303.42 12.096 L311.603 12.096 L311.603 65.6895 L341.053 65.6895 L341.053 72.576 L303.42 72.576 L303.42 12.096 Z" fill="#000000" fill-rule="nonzero" fill-opacity="1" /><path clip-path="url(#clip290)" d="M365.439 32.4315 Q359.444 32.4315 355.96 37.1306 Q352.476 41.7891 352.476 49.9314 Q352.476 58.0738 355.92 62.7728 Q359.403 67.4314 365.439 67.4314 Q371.394 67.4314 374.878 62.7323 Q378.362 58.0333 378.362 49.9314 Q378.362 41.8701 374.878 37.1711 Q371.394 32.4315 365.439 32.4315 M365.439 26.1121 Q375.161 26.1121 380.711 32.4315 Q386.261 38.7509 386.261 49.9314 Q386.261 61.0714 380.711 67.4314 Q375.161 73.7508 365.439 73.7508 Q355.677 73.7508 350.127 67.4314 Q344.618 61.0714 344.618 49.9314 Q344.618 38.7509 350.127 32.4315 Q355.677 26.1121 365.439 26.1121 Z" fill="#000000" fill-rule="nonzero" fill-opacity="1" /><path clip-path="url(#clip290)" d="M419.235 49.7694 Q410.202 49.7694 406.718 51.8354 Q403.234 53.9013 403.234 58.8839 Q403.234 62.8538 405.827 65.2034 Q408.46 67.5124 412.956 67.5124 Q419.154 67.5124 422.881 63.1374 Q426.648 58.7219 426.648 51.4303 L426.648 49.7694 L419.235 49.7694 M434.102 46.6907 L434.102 72.576 L426.648 72.576 L426.648 65.6895 Q424.096 69.8214 420.289 71.8063 Q416.481 73.7508 410.971 73.7508 Q404.004 73.7508 399.872 69.8619 Q395.781 65.9325 395.781 59.3701 Q395.781 51.7138 400.885 47.825 Q406.029 43.9361 416.197 43.9361 L426.648 43.9361 L426.648 43.2069 Q426.648 38.0623 423.246 35.2672 Q419.883 32.4315 413.767 32.4315 Q409.878 32.4315 406.191 33.3632 Q402.505 34.295 399.102 36.1584 L399.102 29.2718 Q403.194 27.692 407.042 26.9223 Q410.89 26.1121 414.536 26.1121 Q424.38 26.1121 429.241 31.2163 Q434.102 36.3204 434.102 46.6907 Z" fill="#000000" fill-rule="nonzero" fill-opacity="1" /><path clip-path="url(#clip290)" d="M479.31 34.0924 L479.31 9.54393 L486.764 9.54393 L486.764 72.576 L479.31 72.576 L479.31 65.7705 Q476.961 69.8214 473.355 71.8063 Q469.791 73.7508 464.767 73.7508 Q456.544 73.7508 451.359 67.1883 Q446.214 60.6258 446.214 49.9314 Q446.214 39.2371 451.359 32.6746 Q456.544 26.1121 464.767 26.1121 Q469.791 26.1121 473.355 28.0971 Q476.961 30.0415 479.31 34.0924 M453.911 49.9314 Q453.911 58.1548 457.273 62.8538 Q460.676 67.5124 466.59 67.5124 Q472.505 67.5124 475.907 62.8538 Q479.31 58.1548 479.31 49.9314 Q479.31 41.7081 475.907 37.0496 Q472.505 32.3505 466.59 32.3505 Q460.676 32.3505 457.273 37.0496 Q453.911 41.7081 453.911 49.9314 Z" fill="#000000" fill-rule="nonzero" fill-opacity="1" /><path clip-path="url(#clip290)" d="M565.068 14.0809 L565.068 22.0612 Q560.409 19.8332 556.277 18.7395 Q552.145 17.6457 548.297 17.6457 Q541.613 17.6457 537.967 20.2383 Q534.362 22.8309 534.362 27.611 Q534.362 31.6214 536.752 33.6873 Q539.183 35.7128 545.907 36.9686 L550.849 37.9813 Q560.004 39.7232 564.339 44.1387 Q568.714 48.5136 568.714 55.8863 Q568.714 64.6767 562.799 69.2137 Q556.926 73.7508 545.542 73.7508 Q541.249 73.7508 536.387 72.7785 Q531.567 71.8063 526.382 69.9024 L526.382 61.4765 Q531.364 64.2716 536.144 65.6895 Q540.924 67.1073 545.542 67.1073 Q552.551 67.1073 556.358 64.3527 Q560.166 61.598 560.166 56.4939 Q560.166 52.0379 557.412 49.5264 Q554.698 47.0148 548.459 45.759 L543.477 44.7868 Q534.321 42.9639 530.23 39.075 Q526.139 35.1862 526.139 28.2591 Q526.139 20.2383 531.769 15.6203 Q537.441 11.0023 547.365 11.0023 Q551.619 11.0023 556.034 11.7719 Q560.45 12.5416 565.068 14.0809 Z" fill="#000000" fill-rule="nonzero" fill-opacity="1" /><path clip-path="url(#clip290)" d="M618.864 45.1919 L618.864 72.576 L611.41 72.576 L611.41 45.4349 Q611.41 38.994 608.899 35.7938 Q606.387 32.5936 601.364 32.5936 Q595.328 32.5936 591.844 36.4419 Q588.361 40.2903 588.361 46.9338 L588.361 72.576 L580.866 72.576 L580.866 9.54393 L588.361 9.54393 L588.361 34.2544 Q591.034 30.163 594.639 28.1376 Q598.285 26.1121 603.025 26.1121 Q610.843 26.1121 614.853 30.9732 Q618.864 35.7938 618.864 45.1919 Z" fill="#000000" fill-rule="nonzero" fill-opacity="1" /><path clip-path="url(#clip290)" d="M672.538 48.0275 L672.538 51.6733 L638.268 51.6733 Q638.754 59.3701 642.886 63.421 Q647.058 67.4314 654.471 67.4314 Q658.765 67.4314 662.776 66.3781 Q666.827 65.3249 670.796 63.2184 L670.796 70.267 Q666.786 71.9684 662.573 72.8596 Q658.36 73.7508 654.026 73.7508 Q643.169 73.7508 636.809 67.4314 Q630.49 61.1119 630.49 50.3365 Q630.49 39.1965 636.485 32.6746 Q642.521 26.1121 652.729 26.1121 Q661.884 26.1121 667.191 32.0264 Q672.538 37.9003 672.538 48.0275 M665.085 45.84 Q665.004 39.7232 661.641 36.0774 Q658.32 32.4315 652.81 32.4315 Q646.572 32.4315 642.805 35.9558 Q639.078 39.4801 638.511 45.8805 L665.085 45.84 Z" fill="#000000" fill-rule="nonzero" fill-opacity="1" /><path clip-path="url(#clip290)" d="M714.627 34.0924 L714.627 9.54393 L722.081 9.54393 L722.081 72.576 L714.627 72.576 L714.627 65.7705 Q712.278 69.8214 708.672 71.8063 Q705.108 73.7508 700.084 73.7508 Q691.861 73.7508 686.676 67.1883 Q681.531 60.6258 681.531 49.9314 Q681.531 39.2371 686.676 32.6746 Q691.861 26.1121 700.084 26.1121 Q705.108 26.1121 708.672 28.0971 Q712.278 30.0415 714.627 34.0924 M689.228 49.9314 Q689.228 58.1548 692.59 62.8538 Q695.993 67.5124 701.907 67.5124 Q707.822 67.5124 711.224 62.8538 Q714.627 58.1548 714.627 49.9314 Q714.627 41.7081 711.224 37.0496 Q707.822 32.3505 701.907 32.3505 Q695.993 32.3505 692.59 37.0496 Q689.228 41.7081 689.228 49.9314 Z" fill="#000000" fill-rule="nonzero" fill-opacity="1" /><path clip-path="url(#clip290)" d="M809.418 16.7545 L809.418 25.383 Q805.286 21.5346 800.587 19.6307 Q795.929 17.7268 790.663 17.7268 Q780.292 17.7268 774.783 24.0867 Q769.274 30.4061 769.274 42.3968 Q769.274 54.3469 774.783 60.7069 Q780.292 67.0263 790.663 67.0263 Q795.929 67.0263 800.587 65.1223 Q805.286 63.2184 809.418 59.3701 L809.418 67.9175 Q805.124 70.8341 800.304 72.2924 Q795.524 73.7508 790.177 73.7508 Q776.444 73.7508 768.545 65.3654 Q760.645 56.9395 760.645 42.3968 Q760.645 27.8135 768.545 19.4281 Q776.444 11.0023 790.177 11.0023 Q795.605 11.0023 800.385 12.4606 Q805.205 13.8784 809.418 16.7545 Z" fill="#000000" fill-rule="nonzero" fill-opacity="1" /><path clip-path="url(#clip290)" d="M839.314 32.4315 Q833.319 32.4315 829.835 37.1306 Q826.351 41.7891 826.351 49.9314 Q826.351 58.0738 829.794 62.7728 Q833.278 67.4314 839.314 67.4314 Q845.269 67.4314 848.753 62.7323 Q852.236 58.0333 852.236 49.9314 Q852.236 41.8701 848.753 37.1711 Q845.269 32.4315 839.314 32.4315 M839.314 26.1121 Q849.036 26.1121 854.586 32.4315 Q860.136 38.7509 860.136 49.9314 Q860.136 61.0714 854.586 67.4314 Q849.036 73.7508 839.314 73.7508 Q829.551 73.7508 824.002 67.4314 Q818.492 61.0714 818.492 49.9314 Q818.492 38.7509 824.002 32.4315 Q829.551 26.1121 839.314 26.1121 Z" fill="#000000" fill-rule="nonzero" fill-opacity="1" /><path clip-path="url(#clip290)" d="M907.815 35.9153 Q910.61 30.8922 914.499 28.5022 Q918.388 26.1121 923.654 26.1121 Q930.743 26.1121 934.591 31.0947 Q938.44 36.0368 938.44 45.1919 L938.44 72.576 L930.946 72.576 L930.946 45.4349 Q930.946 38.913 928.636 35.7533 Q926.327 32.5936 921.588 32.5936 Q915.795 32.5936 912.433 36.4419 Q909.071 40.2903 909.071 46.9338 L909.071 72.576 L901.576 72.576 L901.576 45.4349 Q901.576 38.8725 899.267 35.7533 Q896.958 32.5936 892.138 32.5936 Q886.426 32.5936 883.064 36.4824 Q879.702 40.3308 879.702 46.9338 L879.702 72.576 L872.207 72.576 L872.207 27.2059 L879.702 27.2059 L879.702 34.2544 Q882.254 30.082 885.818 28.0971 Q889.383 26.1121 894.285 26.1121 Q899.227 26.1121 902.67 28.6237 Q906.154 31.1352 907.815 35.9153 Z" fill="#000000" fill-rule="nonzero" fill-opacity="1" /><path clip-path="url(#clip290)" d="M960.517 65.7705 L960.517 89.8329 L953.023 89.8329 L953.023 27.2059 L960.517 27.2059 L960.517 34.0924 Q962.867 30.0415 966.431 28.0971 Q970.037 26.1121 975.019 26.1121 Q983.283 26.1121 988.428 32.6746 Q993.613 39.2371 993.613 49.9314 Q993.613 60.6258 988.428 67.1883 Q983.283 73.7508 975.019 73.7508 Q970.037 73.7508 966.431 71.8063 Q962.867 69.8214 960.517 65.7705 M985.876 49.9314 Q985.876 41.7081 982.473 37.0496 Q979.111 32.3505 973.196 32.3505 Q967.282 32.3505 963.879 37.0496 Q960.517 41.7081 960.517 49.9314 Q960.517 58.1548 963.879 62.8538 Q967.282 67.5124 973.196 67.5124 Q979.111 67.5124 982.473 62.8538 Q985.876 58.1548 985.876 49.9314 Z" fill="#000000" fill-rule="nonzero" fill-opacity="1" /><path clip-path="url(#clip290)" d="M1026.59 49.7694 Q1017.55 49.7694 1014.07 51.8354 Q1010.59 53.9013 1010.59 58.8839 Q1010.59 62.8538 1013.18 65.2034 Q1015.81 67.5124 1020.31 67.5124 Q1026.51 67.5124 1030.23 63.1374 Q1034 58.7219 1034 51.4303 L1034 49.7694 L1026.59 49.7694 M1041.45 46.6907 L1041.45 72.576 L1034 72.576 L1034 65.6895 Q1031.45 69.8214 1027.64 71.8063 Q1023.83 73.7508 1018.32 73.7508 Q1011.36 73.7508 1007.22 69.8619 Q1003.13 65.9325 1003.13 59.3701 Q1003.13 51.7138 1008.24 47.825 Q1013.38 43.9361 1023.55 43.9361 L1034 43.9361 L1034 43.2069 Q1034 38.0623 1030.6 35.2672 Q1027.24 32.4315 1021.12 32.4315 Q1017.23 32.4315 1013.54 33.3632 Q1009.86 34.295 1006.45 36.1584 L1006.45 29.2718 Q1010.55 27.692 1014.39 26.9223 Q1018.24 26.1121 1021.89 26.1121 Q1031.73 26.1121 1036.59 31.2163 Q1041.45 36.3204 1041.45 46.6907 Z" fill="#000000" fill-rule="nonzero" fill-opacity="1" /><path clip-path="url(#clip290)" d="M1083.1 34.1734 Q1081.84 33.4443 1080.34 33.1202 Q1078.88 32.7556 1077.1 32.7556 Q1070.78 32.7556 1067.38 36.8875 Q1064.02 40.9789 1064.02 48.6757 L1064.02 72.576 L1056.52 72.576 L1056.52 27.2059 L1064.02 27.2059 L1064.02 34.2544 Q1066.37 30.1225 1070.13 28.1376 Q1073.9 26.1121 1079.29 26.1121 Q1080.06 26.1121 1080.99 26.2337 Q1081.92 26.3147 1083.06 26.5172 L1083.1 34.1734 Z" fill="#000000" fill-rule="nonzero" fill-opacity="1" /><path clip-path="url(#clip290)" d="M1090.92 27.2059 L1098.37 27.2059 L1098.37 72.576 L1090.92 72.576 L1090.92 27.2059 M1090.92 9.54393 L1098.37 9.54393 L1098.37 18.9825 L1090.92 18.9825 L1090.92 9.54393 Z" fill="#000000" fill-rule="nonzero" fill-opacity="1" /><path clip-path="url(#clip290)" d="M1142.89 28.5427 L1142.89 35.5912 Q1139.73 33.9709 1136.33 33.1607 Q1132.92 32.3505 1129.28 32.3505 Q1123.73 32.3505 1120.93 34.0519 Q1118.18 35.7533 1118.18 39.156 Q1118.18 41.7486 1120.16 43.2475 Q1122.15 44.7058 1128.14 46.0426 L1130.7 46.6097 Q1138.64 48.3111 1141.96 51.4303 Q1145.32 54.509 1145.32 60.0587 Q1145.32 66.3781 1140.3 70.0644 Q1135.31 73.7508 1126.56 73.7508 Q1122.92 73.7508 1118.95 73.0216 Q1115.02 72.3329 1110.64 70.9151 L1110.64 63.2184 Q1114.78 65.3654 1118.79 66.4591 Q1122.8 67.5124 1126.73 67.5124 Q1131.99 67.5124 1134.83 65.73 Q1137.66 63.9071 1137.66 60.6258 Q1137.66 57.5877 1135.6 55.9673 Q1133.57 54.3469 1126.64 52.8481 L1124.05 52.2405 Q1117.13 50.7821 1114.05 47.7845 Q1110.97 44.7463 1110.97 39.4801 Q1110.97 33.0797 1115.5 29.5959 Q1120.04 26.1121 1128.39 26.1121 Q1132.52 26.1121 1136.16 26.7198 Q1139.81 27.3274 1142.89 28.5427 Z" fill="#000000" fill-rule="nonzero" fill-opacity="1" /><path clip-path="url(#clip290)" d="M1174.77 32.4315 Q1168.77 32.4315 1165.29 37.1306 Q1161.81 41.7891 1161.81 49.9314 Q1161.81 58.0738 1165.25 62.7728 Q1168.73 67.4314 1174.77 67.4314 Q1180.72 67.4314 1184.21 62.7323 Q1187.69 58.0333 1187.69 49.9314 Q1187.69 41.8701 1184.21 37.1711 Q1180.72 32.4315 1174.77 32.4315 M1174.77 26.1121 Q1184.49 26.1121 1190.04 32.4315 Q1195.59 38.7509 1195.59 49.9314 Q1195.59 61.0714 1190.04 67.4314 Q1184.49 73.7508 1174.77 73.7508 Q1165.01 73.7508 1159.46 67.4314 Q1153.95 61.0714 1153.95 49.9314 Q1153.95 38.7509 1159.46 32.4315 Q1165.01 26.1121 1174.77 26.1121 Z" fill="#000000" fill-rule="nonzero" fill-opacity="1" /><path clip-path="url(#clip290)" d="M1245.66 45.1919 L1245.66 72.576 L1238.21 72.576 L1238.21 45.4349 Q1238.21 38.994 1235.7 35.7938 Q1233.18 32.5936 1228.16 32.5936 Q1222.12 32.5936 1218.64 36.4419 Q1215.16 40.2903 1215.16 46.9338 L1215.16 72.576 L1207.66 72.576 L1207.66 27.2059 L1215.16 27.2059 L1215.16 34.2544 Q1217.83 30.163 1221.44 28.1376 Q1225.08 26.1121 1229.82 26.1121 Q1237.64 26.1121 1241.65 30.9732 Q1245.66 35.7938 1245.66 45.1919 Z" fill="#000000" fill-rule="nonzero" fill-opacity="1" /><path clip-path="url(#clip290)" d="M1262.43 62.2867 L1270.98 62.2867 L1270.98 72.576 L1262.43 72.576 L1262.43 62.2867 M1262.43 29.6769 L1270.98 29.6769 L1270.98 39.9662 L1262.43 39.9662 L1262.43 29.6769 Z" fill="#000000" fill-rule="nonzero" fill-opacity="1" /><path clip-path="url(#clip290)" d="M1315.17 12.096 L1353.41 12.096 L1353.41 18.9825 L1323.36 18.9825 L1323.36 36.8875 L1352.16 36.8875 L1352.16 43.7741 L1323.36 43.7741 L1323.36 65.6895 L1354.14 65.6895 L1354.14 72.576 L1315.17 72.576 L1315.17 12.096 Z" fill="#000000" fill-rule="nonzero" fill-opacity="1" /><path clip-path="url(#clip290)" d="M1371.72 49.9314 Q1371.72 58.1548 1375.09 62.8538 Q1378.49 67.5124 1384.4 67.5124 Q1390.32 67.5124 1393.72 62.8538 Q1397.12 58.1548 1397.12 49.9314 Q1397.12 41.7081 1393.72 37.0496 Q1390.32 32.3505 1384.4 32.3505 Q1378.49 32.3505 1375.09 37.0496 Q1371.72 41.7081 1371.72 49.9314 M1397.12 65.7705 Q1394.77 69.8214 1391.17 71.8063 Q1387.6 73.7508 1382.58 73.7508 Q1374.36 73.7508 1369.17 67.1883 Q1364.03 60.6258 1364.03 49.9314 Q1364.03 39.2371 1369.17 32.6746 Q1374.36 26.1121 1382.58 26.1121 Q1387.6 26.1121 1391.17 28.0971 Q1394.77 30.0415 1397.12 34.0924 L1397.12 27.2059 L1404.58 27.2059 L1404.58 89.8329 L1397.12 89.8329 L1397.12 65.7705 Z" fill="#000000" fill-rule="nonzero" fill-opacity="1" /><path clip-path="url(#clip290)" d="M1419.16 54.671 L1419.16 27.2059 L1426.61 27.2059 L1426.61 54.3874 Q1426.61 60.8284 1429.13 64.0691 Q1431.64 67.2693 1436.66 67.2693 Q1442.7 67.2693 1446.18 63.421 Q1449.7 59.5726 1449.7 52.9291 L1449.7 27.2059 L1457.16 27.2059 L1457.16 72.576 L1449.7 72.576 L1449.7 65.6084 Q1446.99 69.7404 1443.38 71.7658 Q1439.82 73.7508 1435.08 73.7508 Q1427.26 73.7508 1423.21 68.8897 Q1419.16 64.0286 1419.16 54.671 M1437.92 26.1121 L1437.92 26.1121 Z" fill="#000000" fill-rule="nonzero" fill-opacity="1" /><path clip-path="url(#clip290)" d="M1493.13 49.7694 Q1484.1 49.7694 1480.61 51.8354 Q1477.13 53.9013 1477.13 58.8839 Q1477.13 62.8538 1479.72 65.2034 Q1482.35 67.5124 1486.85 67.5124 Q1493.05 67.5124 1496.78 63.1374 Q1500.54 58.7219 1500.54 51.4303 L1500.54 49.7694 L1493.13 49.7694 M1508 46.6907 L1508 72.576 L1500.54 72.576 L1500.54 65.6895 Q1497.99 69.8214 1494.18 71.8063 Q1490.38 73.7508 1484.87 73.7508 Q1477.9 73.7508 1473.77 69.8619 Q1469.68 65.9325 1469.68 59.3701 Q1469.68 51.7138 1474.78 47.825 Q1479.92 43.9361 1490.09 43.9361 L1500.54 43.9361 L1500.54 43.2069 Q1500.54 38.0623 1497.14 35.2672 Q1493.78 32.4315 1487.66 32.4315 Q1483.77 32.4315 1480.09 33.3632 Q1476.4 34.295 1473 36.1584 L1473 29.2718 Q1477.09 27.692 1480.94 26.9223 Q1484.79 26.1121 1488.43 26.1121 Q1498.27 26.1121 1503.14 31.2163 Q1508 36.3204 1508 46.6907 Z" fill="#000000" fill-rule="nonzero" fill-opacity="1" /><path clip-path="url(#clip290)" d="M1523.35 9.54393 L1530.8 9.54393 L1530.8 72.576 L1523.35 72.576 L1523.35 9.54393 Z" fill="#000000" fill-rule="nonzero" fill-opacity="1" /><path clip-path="url(#clip290)" d="M1546.4 27.2059 L1553.85 27.2059 L1553.85 72.576 L1546.4 72.576 L1546.4 27.2059 M1546.4 9.54393 L1553.85 9.54393 L1553.85 18.9825 L1546.4 18.9825 L1546.4 9.54393 Z" fill="#000000" fill-rule="nonzero" fill-opacity="1" /><path clip-path="url(#clip290)" d="M1576.82 14.324 L1576.82 27.2059 L1592.17 27.2059 L1592.17 32.9987 L1576.82 32.9987 L1576.82 57.6282 Q1576.82 63.1779 1578.32 64.7578 Q1579.86 66.3376 1584.52 66.3376 L1592.17 66.3376 L1592.17 72.576 L1584.52 72.576 Q1575.89 72.576 1572.61 69.3758 Q1569.33 66.1351 1569.33 57.6282 L1569.33 32.9987 L1563.86 32.9987 L1563.86 27.2059 L1569.33 27.2059 L1569.33 14.324 L1576.82 14.324 Z" fill="#000000" fill-rule="nonzero" fill-opacity="1" /><path clip-path="url(#clip290)" d="M1620.86 76.7889 Q1617.7 84.8907 1614.7 87.3618 Q1611.7 89.8329 1606.68 89.8329 L1600.72 89.8329 L1600.72 83.5945 L1605.1 83.5945 Q1608.18 83.5945 1609.88 82.1361 Q1611.58 80.6778 1613.64 75.2496 L1614.98 71.8468 L1596.63 27.2059 L1604.53 27.2059 L1618.71 62.6918 L1632.89 27.2059 L1640.79 27.2059 L1620.86 76.7889 Z" fill="#000000" fill-rule="nonzero" fill-opacity="1" /><path clip-path="url(#clip290)" d="M1677.77 12.096 L1689.96 12.096 L1705.4 53.2532 L1720.91 12.096 L1733.11 12.096 L1733.11 72.576 L1725.13 72.576 L1725.13 19.4686 L1709.53 60.9499 L1701.31 60.9499 L1685.71 19.4686 L1685.71 72.576 L1677.77 72.576 L1677.77 12.096 Z" fill="#000000" fill-rule="nonzero" fill-opacity="1" /><path clip-path="url(#clip290)" d="M1749.03 27.2059 L1756.48 27.2059 L1756.48 72.576 L1749.03 72.576 L1749.03 27.2059 M1749.03 9.54393 L1756.48 9.54393 L1756.48 18.9825 L1749.03 18.9825 L1749.03 9.54393 Z" fill="#000000" fill-rule="nonzero" fill-opacity="1" /><path clip-path="url(#clip290)" d="M1809.79 45.1919 L1809.79 72.576 L1802.34 72.576 L1802.34 45.4349 Q1802.34 38.994 1799.82 35.7938 Q1797.31 32.5936 1792.29 32.5936 Q1786.25 32.5936 1782.77 36.4419 Q1779.29 40.2903 1779.29 46.9338 L1779.29 72.576 L1771.79 72.576 L1771.79 27.2059 L1779.29 27.2059 L1779.29 34.2544 Q1781.96 30.163 1785.56 28.1376 Q1789.21 26.1121 1793.95 26.1121 Q1801.77 26.1121 1805.78 30.9732 Q1809.79 35.7938 1809.79 45.1919 Z" fill="#000000" fill-rule="nonzero" fill-opacity="1" /><path clip-path="url(#clip290)" d="M1845.68 27.2059 L1853.58 27.2059 L1867.76 65.2844 L1881.94 27.2059 L1889.84 27.2059 L1872.82 72.576 L1862.69 72.576 L1845.68 27.2059 Z" fill="#000000" fill-rule="nonzero" fill-opacity="1" /><path clip-path="url(#clip290)" d="M1929.05 28.5427 L1929.05 35.5912 Q1925.89 33.9709 1922.49 33.1607 Q1919.08 32.3505 1915.44 32.3505 Q1909.89 32.3505 1907.09 34.0519 Q1904.34 35.7533 1904.34 39.156 Q1904.34 41.7486 1906.32 43.2475 Q1908.31 44.7058 1914.3 46.0426 L1916.85 46.6097 Q1924.79 48.3111 1928.12 51.4303 Q1931.48 54.509 1931.48 60.0587 Q1931.48 66.3781 1926.46 70.0644 Q1921.47 73.7508 1912.72 73.7508 Q1909.08 73.7508 1905.11 73.0216 Q1901.18 72.3329 1896.8 70.9151 L1896.8 63.2184 Q1900.93 65.3654 1904.94 66.4591 Q1908.96 67.5124 1912.88 67.5124 Q1918.15 67.5124 1920.99 65.73 Q1923.82 63.9071 1923.82 60.6258 Q1923.82 57.5877 1921.76 55.9673 Q1919.73 54.3469 1912.8 52.8481 L1910.21 52.2405 Q1903.28 50.7821 1900.21 47.7845 Q1897.13 44.7463 1897.13 39.4801 Q1897.13 33.0797 1901.66 29.5959 Q1906.2 26.1121 1914.55 26.1121 Q1918.68 26.1121 1922.32 26.7198 Q1925.97 27.3274 1929.05 28.5427 Z" fill="#000000" fill-rule="nonzero" fill-opacity="1" /><path clip-path="url(#clip290)" d="M1998.72 44.2197 Q2001.36 45.1109 2003.83 48.0275 Q2006.34 50.9442 2008.85 56.0483 L2017.15 72.576 L2008.36 72.576 L2000.63 57.061 Q1997.63 50.9847 1994.79 48.9997 Q1992 47.0148 1987.14 47.0148 L1978.23 47.0148 L1978.23 72.576 L1970.04 72.576 L1970.04 12.096 L1988.52 12.096 Q1998.89 12.096 2003.99 16.4305 Q2009.09 20.7649 2009.09 29.5149 Q2009.09 35.2267 2006.42 38.994 Q2003.79 42.7613 1998.72 44.2197 M1978.23 18.8205 L1978.23 40.2903 L1988.52 40.2903 Q1994.43 40.2903 1997.43 37.5762 Q2000.47 34.8216 2000.47 29.5149 Q2000.47 24.2082 1997.43 21.5346 Q1994.43 18.8205 1988.52 18.8205 L1978.23 18.8205 Z" fill="#000000" fill-rule="nonzero" fill-opacity="1" /><path clip-path="url(#clip290)" d="M2062.44 48.0275 L2062.44 51.6733 L2028.17 51.6733 Q2028.66 59.3701 2032.79 63.421 Q2036.96 67.4314 2044.38 67.4314 Q2048.67 67.4314 2052.68 66.3781 Q2056.73 65.3249 2060.7 63.2184 L2060.7 70.267 Q2056.69 71.9684 2052.48 72.8596 Q2048.27 73.7508 2043.93 73.7508 Q2033.08 73.7508 2026.72 67.4314 Q2020.4 61.1119 2020.4 50.3365 Q2020.4 39.1965 2026.39 32.6746 Q2032.43 26.1121 2042.64 26.1121 Q2051.79 26.1121 2057.1 32.0264 Q2062.44 37.9003 2062.44 48.0275 M2054.99 45.84 Q2054.91 39.7232 2051.55 36.0774 Q2048.23 32.4315 2042.72 32.4315 Q2036.48 32.4315 2032.71 35.9558 Q2028.98 39.4801 2028.42 45.8805 L2054.99 45.84 Z" fill="#000000" fill-rule="nonzero" fill-opacity="1" /><path clip-path="url(#clip290)" d="M2074.68 9.54393 L2082.13 9.54393 L2082.13 72.576 L2074.68 72.576 L2074.68 9.54393 Z" fill="#000000" fill-rule="nonzero" fill-opacity="1" /><path clip-path="url(#clip290)" d="M2118.35 49.7694 Q2109.31 49.7694 2105.83 51.8354 Q2102.35 53.9013 2102.35 58.8839 Q2102.35 62.8538 2104.94 65.2034 Q2107.57 67.5124 2112.07 67.5124 Q2118.27 67.5124 2121.99 63.1374 Q2125.76 58.7219 2125.76 51.4303 L2125.76 49.7694 L2118.35 49.7694 M2133.21 46.6907 L2133.21 72.576 L2125.76 72.576 L2125.76 65.6895 Q2123.21 69.8214 2119.4 71.8063 Q2115.59 73.7508 2110.08 73.7508 Q2103.12 73.7508 2098.98 69.8619 Q2094.89 65.9325 2094.89 59.3701 Q2094.89 51.7138 2100 47.825 Q2105.14 43.9361 2115.31 43.9361 L2125.76 43.9361 L2125.76 43.2069 Q2125.76 38.0623 2122.36 35.2672 Q2118.99 32.4315 2112.88 32.4315 Q2108.99 32.4315 2105.3 33.3632 Q2101.62 34.295 2098.21 36.1584 L2098.21 29.2718 Q2102.3 27.692 2106.15 26.9223 Q2110 26.1121 2113.65 26.1121 Q2123.49 26.1121 2128.35 31.2163 Q2133.21 36.3204 2133.21 46.6907 Z" fill="#000000" fill-rule="nonzero" fill-opacity="1" /><path clip-path="url(#clip290)" d="M2186.28 27.2059 L2169.87 49.2833 L2187.13 72.576 L2178.34 72.576 L2165.13 54.752 L2151.93 72.576 L2143.14 72.576 L2160.76 48.8377 L2144.64 27.2059 L2153.43 27.2059 L2165.46 43.369 L2177.49 27.2059 L2186.28 27.2059 Z" fill="#000000" fill-rule="nonzero" fill-opacity="1" /><path clip-path="url(#clip290)" d="M2233.92 48.0275 L2233.92 51.6733 L2199.65 51.6733 Q2200.13 59.3701 2204.27 63.421 Q2208.44 67.4314 2215.85 67.4314 Q2220.15 67.4314 2224.16 66.3781 Q2228.21 65.3249 2232.18 63.2184 L2232.18 70.267 Q2228.17 71.9684 2223.95 72.8596 Q2219.74 73.7508 2215.41 73.7508 Q2204.55 73.7508 2198.19 67.4314 Q2191.87 61.1119 2191.87 50.3365 Q2191.87 39.1965 2197.87 32.6746 Q2203.9 26.1121 2214.11 26.1121 Q2223.26 26.1121 2228.57 32.0264 Q2233.92 37.9003 2233.92 48.0275 M2226.47 45.84 Q2226.38 39.7232 2223.02 36.0774 Q2219.7 32.4315 2214.19 32.4315 Q2207.95 32.4315 2204.19 35.9558 Q2200.46 39.4801 2199.89 45.8805 L2226.47 45.84 Z" fill="#000000" fill-rule="nonzero" fill-opacity="1" /><path clip-path="url(#clip290)" d="M2276.01 34.0924 L2276.01 9.54393 L2283.46 9.54393 L2283.46 72.576 L2276.01 72.576 L2276.01 65.7705 Q2273.66 69.8214 2270.05 71.8063 Q2266.49 73.7508 2261.47 73.7508 Q2253.24 73.7508 2248.06 67.1883 Q2242.91 60.6258 2242.91 49.9314 Q2242.91 39.2371 2248.06 32.6746 Q2253.24 26.1121 2261.47 26.1121 Q2266.49 26.1121 2270.05 28.0971 Q2273.66 30.0415 2276.01 34.0924 M2250.61 49.9314 Q2250.61 58.1548 2253.97 62.8538 Q2257.37 67.5124 2263.29 67.5124 Q2269.2 67.5124 2272.6 62.8538 Q2276.01 58.1548 2276.01 49.9314 Q2276.01 41.7081 2272.6 37.0496 Q2269.2 32.3505 2263.29 32.3505 Q2257.37 32.3505 2253.97 37.0496 Q2250.61 41.7081 2250.61 49.9314 Z" fill="#000000" fill-rule="nonzero" fill-opacity="1" /><path clip-path="url(#clip292)" d="M349.556 893.472 L349.556 1423.18 L388.346 1423.18 L388.346 893.472 L349.556 893.472 L349.556 893.472  Z" fill="#0000ff" fill-rule="evenodd" fill-opacity="1"/>
<polyline clip-path="url(#clip292)" style="stroke:#000000; stroke-linecap:round; stroke-linejoin:round; stroke-width:4; stroke-opacity:1; fill:none" points="349.556,893.472 349.556,1423.18 388.346,1423.18 388.346,893.472 349.556,893.472 "/>
<path clip-path="url(#clip292)" d="M478.855 1198.05 L478.855 1423.18 L517.645 1423.18 L517.645 1198.05 L478.855 1198.05 L478.855 1198.05  Z" fill="#0000ff" fill-rule="evenodd" fill-opacity="1"/>
<polyline clip-path="url(#clip292)" style="stroke:#000000; stroke-linecap:round; stroke-linejoin:round; stroke-width:4; stroke-opacity:1; fill:none" points="478.855,1198.05 478.855,1423.18 517.645,1423.18 517.645,1198.05 478.855,1198.05 "/>
<path clip-path="url(#clip292)" d="M608.155 652.565 L608.155 1423.18 L646.944 1423.18 L646.944 652.565 L608.155 652.565 L608.155 652.565  Z" fill="#0000ff" fill-rule="evenodd" fill-opacity="1"/>
<polyline clip-path="url(#clip292)" style="stroke:#000000; stroke-linecap:round; stroke-linejoin:round; stroke-width:4; stroke-opacity:1; fill:none" points="608.155,652.565 608.155,1423.18 646.944,1423.18 646.944,652.565 608.155,652.565 "/>
<path clip-path="url(#clip292)" d="M737.454 652.565 L737.454 1423.18 L776.244 1423.18 L776.244 652.565 L737.454 652.565 L737.454 652.565  Z" fill="#0000ff" fill-rule="evenodd" fill-opacity="1"/>
<polyline clip-path="url(#clip292)" style="stroke:#000000; stroke-linecap:round; stroke-linejoin:round; stroke-width:4; stroke-opacity:1; fill:none" points="737.454,652.565 737.454,1423.18 776.244,1423.18 776.244,652.565 737.454,652.565 "/>
<path clip-path="url(#clip292)" d="M866.753 999.413 L866.753 1423.18 L905.543 1423.18 L905.543 999.413 L866.753 999.413 L866.753 999.413  Z" fill="#0000ff" fill-rule="evenodd" fill-opacity="1"/>
<polyline clip-path="url(#clip292)" style="stroke:#000000; stroke-linecap:round; stroke-linejoin:round; stroke-width:4; stroke-opacity:1; fill:none" points="866.753,999.413 866.753,1423.18 905.543,1423.18 905.543,999.413 866.753,999.413 "/>
<path clip-path="url(#clip292)" d="M996.052 661.724 L996.052 1423.18 L1034.84 1423.18 L1034.84 661.724 L996.052 661.724 L996.052 661.724  Z" fill="#0000ff" fill-rule="evenodd" fill-opacity="1"/>
<polyline clip-path="url(#clip292)" style="stroke:#000000; stroke-linecap:round; stroke-linejoin:round; stroke-width:4; stroke-opacity:1; fill:none" points="996.052,661.724 996.052,1423.18 1034.84,1423.18 1034.84,661.724 996.052,661.724 "/>
<path clip-path="url(#clip292)" d="M1125.35 860.365 L1125.35 1423.18 L1164.14 1423.18 L1164.14 860.365 L1125.35 860.365 L1125.35 860.365  Z" fill="#0000ff" fill-rule="evenodd" fill-opacity="1"/>
<polyline clip-path="url(#clip292)" style="stroke:#000000; stroke-linecap:round; stroke-linejoin:round; stroke-width:4; stroke-opacity:1; fill:none" points="1125.35,860.365 1125.35,1423.18 1164.14,1423.18 1164.14,860.365 1125.35,860.365 "/>
<path clip-path="url(#clip292)" d="M1254.65 1260.66 L1254.65 1423.18 L1293.44 1423.18 L1293.44 1260.66 L1254.65 1260.66 L1254.65 1260.66  Z" fill="#0000ff" fill-rule="evenodd" fill-opacity="1"/>
<polyline clip-path="url(#clip292)" style="stroke:#000000; stroke-linecap:round; stroke-linejoin:round; stroke-width:4; stroke-opacity:1; fill:none" points="1254.65,1260.66 1254.65,1423.18 1293.44,1423.18 1293.44,1260.66 1254.65,1260.66 "/>
<path clip-path="url(#clip292)" d="M1383.95 1423.16 L1383.95 1423.18 L1422.74 1423.18 L1422.74 1423.16 L1383.95 1423.16 L1383.95 1423.16  Z" fill="#0000ff" fill-rule="evenodd" fill-opacity="1"/>
<polyline clip-path="url(#clip292)" style="stroke:#000000; stroke-linecap:round; stroke-linejoin:round; stroke-width:4; stroke-opacity:1; fill:none" points="1383.95,1423.16 1383.95,1423.18 1422.74,1423.18 1422.74,1423.16 1383.95,1423.16 "/>
<path clip-path="url(#clip292)" d="M1513.25 1423.18 L1513.25 1423.18 L1552.04 1423.18 L1552.04 1423.18 L1513.25 1423.18 L1513.25 1423.18  Z" fill="#0000ff" fill-rule="evenodd" fill-opacity="1"/>
<polyline clip-path="url(#clip292)" style="stroke:#000000; stroke-linecap:round; stroke-linejoin:round; stroke-width:4; stroke-opacity:1; fill:none" points="1513.25,1423.18 1513.25,1423.18 1552.04,1423.18 1552.04,1423.18 1513.25,1423.18 "/>
<path clip-path="url(#clip292)" d="M1642.55 1025.9 L1642.55 1423.18 L1681.34 1423.18 L1681.34 1025.9 L1642.55 1025.9 L1642.55 1025.9  Z" fill="#0000ff" fill-rule="evenodd" fill-opacity="1"/>
<polyline clip-path="url(#clip292)" style="stroke:#000000; stroke-linecap:round; stroke-linejoin:round; stroke-width:4; stroke-opacity:1; fill:none" points="1642.55,1025.9 1642.55,1423.18 1681.34,1423.18 1681.34,1025.9 1642.55,1025.9 "/>
<path clip-path="url(#clip292)" d="M1771.85 1011.62 L1771.85 1423.18 L1810.64 1423.18 L1810.64 1011.62 L1771.85 1011.62 L1771.85 1011.62  Z" fill="#0000ff" fill-rule="evenodd" fill-opacity="1"/>
<polyline clip-path="url(#clip292)" style="stroke:#000000; stroke-linecap:round; stroke-linejoin:round; stroke-width:4; stroke-opacity:1; fill:none" points="1771.85,1011.62 1771.85,1423.18 1810.64,1423.18 1810.64,1011.62 1771.85,1011.62 "/>
<path clip-path="url(#clip292)" d="M1901.15 860.365 L1901.15 1423.18 L1939.94 1423.18 L1939.94 860.365 L1901.15 860.365 L1901.15 860.365  Z" fill="#0000ff" fill-rule="evenodd" fill-opacity="1"/>
<polyline clip-path="url(#clip292)" style="stroke:#000000; stroke-linecap:round; stroke-linejoin:round; stroke-width:4; stroke-opacity:1; fill:none" points="1901.15,860.365 1901.15,1423.18 1939.94,1423.18 1939.94,860.365 1901.15,860.365 "/>
<path clip-path="url(#clip292)" d="M2030.45 1366.9 L2030.45 1423.18 L2069.24 1423.18 L2069.24 1366.9 L2030.45 1366.9 L2030.45 1366.9  Z" fill="#0000ff" fill-rule="evenodd" fill-opacity="1"/>
<polyline clip-path="url(#clip292)" style="stroke:#000000; stroke-linecap:round; stroke-linejoin:round; stroke-width:4; stroke-opacity:1; fill:none" points="2030.45,1366.9 2030.45,1423.18 2069.24,1423.18 2069.24,1366.9 2030.45,1366.9 "/>
<path clip-path="url(#clip292)" d="M2159.75 982.11 L2159.75 1423.18 L2198.54 1423.18 L2198.54 982.11 L2159.75 982.11 L2159.75 982.11  Z" fill="#0000ff" fill-rule="evenodd" fill-opacity="1"/>
<polyline clip-path="url(#clip292)" style="stroke:#000000; stroke-linecap:round; stroke-linejoin:round; stroke-width:4; stroke-opacity:1; fill:none" points="2159.75,982.11 2159.75,1423.18 2198.54,1423.18 2198.54,982.11 2159.75,982.11 "/>
<circle clip-path="url(#clip292)" style="fill:#0000ff; stroke:none; fill-opacity:0" cx="368.951" cy="893.472" r="2"/>
<circle clip-path="url(#clip292)" style="fill:#0000ff; stroke:none; fill-opacity:0" cx="498.25" cy="1198.05" r="2"/>
<circle clip-path="url(#clip292)" style="fill:#0000ff; stroke:none; fill-opacity:0" cx="627.549" cy="652.565" r="2"/>
<circle clip-path="url(#clip292)" style="fill:#0000ff; stroke:none; fill-opacity:0" cx="756.849" cy="652.565" r="2"/>
<circle clip-path="url(#clip292)" style="fill:#0000ff; stroke:none; fill-opacity:0" cx="886.148" cy="999.413" r="2"/>
<circle clip-path="url(#clip292)" style="fill:#0000ff; stroke:none; fill-opacity:0" cx="1015.45" cy="661.724" r="2"/>
<circle clip-path="url(#clip292)" style="fill:#0000ff; stroke:none; fill-opacity:0" cx="1144.75" cy="860.365" r="2"/>
<circle clip-path="url(#clip292)" style="fill:#0000ff; stroke:none; fill-opacity:0" cx="1274.05" cy="1260.66" r="2"/>
<circle clip-path="url(#clip292)" style="fill:#0000ff; stroke:none; fill-opacity:0" cx="1403.35" cy="1423.16" r="2"/>
<circle clip-path="url(#clip292)" style="fill:#0000ff; stroke:none; fill-opacity:0" cx="1532.64" cy="1423.18" r="2"/>
<circle clip-path="url(#clip292)" style="fill:#0000ff; stroke:none; fill-opacity:0" cx="1661.94" cy="1025.9" r="2"/>
<circle clip-path="url(#clip292)" style="fill:#0000ff; stroke:none; fill-opacity:0" cx="1791.24" cy="1011.62" r="2"/>
<circle clip-path="url(#clip292)" style="fill:#0000ff; stroke:none; fill-opacity:0" cx="1920.54" cy="860.365" r="2"/>
<circle clip-path="url(#clip292)" style="fill:#0000ff; stroke:none; fill-opacity:0" cx="2049.84" cy="1366.9" r="2"/>
<circle clip-path="url(#clip292)" style="fill:#0000ff; stroke:none; fill-opacity:0" cx="2179.14" cy="982.11" r="2"/>
<path clip-path="url(#clip292)" d="M388.346 1422.48 L388.346 1423.18 L427.136 1423.18 L427.136 1422.48 L388.346 1422.48 L388.346 1422.48  Z" fill="#ffa500" fill-rule="evenodd" fill-opacity="1"/>
<polyline clip-path="url(#clip292)" style="stroke:#000000; stroke-linecap:round; stroke-linejoin:round; stroke-width:4; stroke-opacity:1; fill:none" points="388.346,1422.48 388.346,1423.18 427.136,1423.18 427.136,1422.48 388.346,1422.48 "/>
<path clip-path="url(#clip292)" d="M517.645 1422.88 L517.645 1423.18 L556.435 1423.18 L556.435 1422.88 L517.645 1422.88 L517.645 1422.88  Z" fill="#ffa500" fill-rule="evenodd" fill-opacity="1"/>
<polyline clip-path="url(#clip292)" style="stroke:#000000; stroke-linecap:round; stroke-linejoin:round; stroke-width:4; stroke-opacity:1; fill:none" points="517.645,1422.88 517.645,1423.18 556.435,1423.18 556.435,1422.88 517.645,1422.88 "/>
<path clip-path="url(#clip292)" d="M646.944 644.591 L646.944 1423.18 L685.734 1423.18 L685.734 644.591 L646.944 644.591 L646.944 644.591  Z" fill="#ffa500" fill-rule="evenodd" fill-opacity="1"/>
<polyline clip-path="url(#clip292)" style="stroke:#000000; stroke-linecap:round; stroke-linejoin:round; stroke-width:4; stroke-opacity:1; fill:none" points="646.944,644.591 646.944,1423.18 685.734,1423.18 685.734,644.591 646.944,644.591 "/>
<path clip-path="url(#clip292)" d="M776.244 123.472 L776.244 1423.18 L815.033 1423.18 L815.033 123.472 L776.244 123.472 L776.244 123.472  Z" fill="#ffa500" fill-rule="evenodd" fill-opacity="1"/>
<polyline clip-path="url(#clip292)" style="stroke:#000000; stroke-linecap:round; stroke-linejoin:round; stroke-width:4; stroke-opacity:1; fill:none" points="776.244,123.472 776.244,1423.18 815.033,1423.18 815.033,123.472 776.244,123.472 "/>
<path clip-path="url(#clip292)" d="M905.543 999.413 L905.543 1423.18 L944.333 1423.18 L944.333 999.413 L905.543 999.413 L905.543 999.413  Z" fill="#ffa500" fill-rule="evenodd" fill-opacity="1"/>
<polyline clip-path="url(#clip292)" style="stroke:#000000; stroke-linecap:round; stroke-linejoin:round; stroke-width:4; stroke-opacity:1; fill:none" points="905.543,999.413 905.543,1423.18 944.333,1423.18 944.333,999.413 905.543,999.413 "/>
<path clip-path="url(#clip292)" d="M1034.84 664.156 L1034.84 1423.18 L1073.63 1423.18 L1073.63 664.156 L1034.84 664.156 L1034.84 664.156  Z" fill="#ffa500" fill-rule="evenodd" fill-opacity="1"/>
<polyline clip-path="url(#clip292)" style="stroke:#000000; stroke-linecap:round; stroke-linejoin:round; stroke-width:4; stroke-opacity:1; fill:none" points="1034.84,664.156 1034.84,1423.18 1073.63,1423.18 1073.63,664.156 1034.84,664.156 "/>
<path clip-path="url(#clip292)" d="M1164.14 860.365 L1164.14 1423.18 L1202.93 1423.18 L1202.93 860.365 L1164.14 860.365 L1164.14 860.365  Z" fill="#ffa500" fill-rule="evenodd" fill-opacity="1"/>
<polyline clip-path="url(#clip292)" style="stroke:#000000; stroke-linecap:round; stroke-linejoin:round; stroke-width:4; stroke-opacity:1; fill:none" points="1164.14,860.365 1164.14,1423.18 1202.93,1423.18 1202.93,860.365 1164.14,860.365 "/>
<path clip-path="url(#clip292)" d="M1293.44 1423.18 L1293.44 1423.18 L1332.23 1423.18 L1332.23 1423.18 L1293.44 1423.18 L1293.44 1423.18  Z" fill="#ffa500" fill-rule="evenodd" fill-opacity="1"/>
<polyline clip-path="url(#clip292)" style="stroke:#000000; stroke-linecap:round; stroke-linejoin:round; stroke-width:4; stroke-opacity:1; fill:none" points="1293.44,1423.18 1293.44,1423.18 1332.23,1423.18 1332.23,1423.18 1293.44,1423.18 "/>
<path clip-path="url(#clip292)" d="M1422.74 1025.9 L1422.74 1423.18 L1461.53 1423.18 L1461.53 1025.9 L1422.74 1025.9 L1422.74 1025.9  Z" fill="#ffa500" fill-rule="evenodd" fill-opacity="1"/>
<polyline clip-path="url(#clip292)" style="stroke:#000000; stroke-linecap:round; stroke-linejoin:round; stroke-width:4; stroke-opacity:1; fill:none" points="1422.74,1025.9 1422.74,1423.18 1461.53,1423.18 1461.53,1025.9 1422.74,1025.9 "/>
<path clip-path="url(#clip292)" d="M1552.04 1423.18 L1552.04 1423.18 L1590.83 1423.18 L1590.83 1423.18 L1552.04 1423.18 L1552.04 1423.18  Z" fill="#ffa500" fill-rule="evenodd" fill-opacity="1"/>
<polyline clip-path="url(#clip292)" style="stroke:#000000; stroke-linecap:round; stroke-linejoin:round; stroke-width:4; stroke-opacity:1; fill:none" points="1552.04,1423.18 1552.04,1423.18 1590.83,1423.18 1590.83,1423.18 1552.04,1423.18 "/>
<path clip-path="url(#clip292)" d="M1681.34 1422.65 L1681.34 1423.18 L1720.13 1423.18 L1720.13 1422.65 L1681.34 1422.65 L1681.34 1422.65  Z" fill="#ffa500" fill-rule="evenodd" fill-opacity="1"/>
<polyline clip-path="url(#clip292)" style="stroke:#000000; stroke-linecap:round; stroke-linejoin:round; stroke-width:4; stroke-opacity:1; fill:none" points="1681.34,1422.65 1681.34,1423.18 1720.13,1423.18 1720.13,1422.65 1681.34,1422.65 "/>
<path clip-path="url(#clip292)" d="M1810.64 1294.75 L1810.64 1423.18 L1849.43 1423.18 L1849.43 1294.75 L1810.64 1294.75 L1810.64 1294.75  Z" fill="#ffa500" fill-rule="evenodd" fill-opacity="1"/>
<polyline clip-path="url(#clip292)" style="stroke:#000000; stroke-linecap:round; stroke-linejoin:round; stroke-width:4; stroke-opacity:1; fill:none" points="1810.64,1294.75 1810.64,1423.18 1849.43,1423.18 1849.43,1294.75 1810.64,1294.75 "/>
<path clip-path="url(#clip292)" d="M1939.94 1422.44 L1939.94 1423.18 L1978.73 1423.18 L1978.73 1422.44 L1939.94 1422.44 L1939.94 1422.44  Z" fill="#ffa500" fill-rule="evenodd" fill-opacity="1"/>
<polyline clip-path="url(#clip292)" style="stroke:#000000; stroke-linecap:round; stroke-linejoin:round; stroke-width:4; stroke-opacity:1; fill:none" points="1939.94,1422.44 1939.94,1423.18 1978.73,1423.18 1978.73,1422.44 1939.94,1422.44 "/>
<path clip-path="url(#clip292)" d="M2069.24 1423.18 L2069.24 1423.18 L2108.03 1423.18 L2108.03 1423.18 L2069.24 1423.18 L2069.24 1423.18  Z" fill="#ffa500" fill-rule="evenodd" fill-opacity="1"/>
<polyline clip-path="url(#clip292)" style="stroke:#000000; stroke-linecap:round; stroke-linejoin:round; stroke-width:4; stroke-opacity:1; fill:none" points="2069.24,1423.18 2069.24,1423.18 2108.03,1423.18 2108.03,1423.18 2069.24,1423.18 "/>
<path clip-path="url(#clip292)" d="M2198.54 984.708 L2198.54 1423.18 L2237.33 1423.18 L2237.33 984.708 L2198.54 984.708 L2198.54 984.708  Z" fill="#ffa500" fill-rule="evenodd" fill-opacity="1"/>
<polyline clip-path="url(#clip292)" style="stroke:#000000; stroke-linecap:round; stroke-linejoin:round; stroke-width:4; stroke-opacity:1; fill:none" points="2198.54,984.708 2198.54,1423.18 2237.33,1423.18 2237.33,984.708 2198.54,984.708 "/>
<circle clip-path="url(#clip292)" style="fill:#ffa500; stroke:none; fill-opacity:0" cx="407.741" cy="1422.48" r="2"/>
<circle clip-path="url(#clip292)" style="fill:#ffa500; stroke:none; fill-opacity:0" cx="537.04" cy="1422.88" r="2"/>
<circle clip-path="url(#clip292)" style="fill:#ffa500; stroke:none; fill-opacity:0" cx="666.339" cy="644.591" r="2"/>
<circle clip-path="url(#clip292)" style="fill:#ffa500; stroke:none; fill-opacity:0" cx="795.639" cy="123.472" r="2"/>
<circle clip-path="url(#clip292)" style="fill:#ffa500; stroke:none; fill-opacity:0" cx="924.938" cy="999.413" r="2"/>
<circle clip-path="url(#clip292)" style="fill:#ffa500; stroke:none; fill-opacity:0" cx="1054.24" cy="664.156" r="2"/>
<circle clip-path="url(#clip292)" style="fill:#ffa500; stroke:none; fill-opacity:0" cx="1183.54" cy="860.365" r="2"/>
<circle clip-path="url(#clip292)" style="fill:#ffa500; stroke:none; fill-opacity:0" cx="1312.84" cy="1423.18" r="2"/>
<circle clip-path="url(#clip292)" style="fill:#ffa500; stroke:none; fill-opacity:0" cx="1442.13" cy="1025.9" r="2"/>
<circle clip-path="url(#clip292)" style="fill:#ffa500; stroke:none; fill-opacity:0" cx="1571.43" cy="1423.18" r="2"/>
<circle clip-path="url(#clip292)" style="fill:#ffa500; stroke:none; fill-opacity:0" cx="1700.73" cy="1422.65" r="2"/>
<circle clip-path="url(#clip292)" style="fill:#ffa500; stroke:none; fill-opacity:0" cx="1830.03" cy="1294.75" r="2"/>
<circle clip-path="url(#clip292)" style="fill:#ffa500; stroke:none; fill-opacity:0" cx="1959.33" cy="1422.44" r="2"/>
<circle clip-path="url(#clip292)" style="fill:#ffa500; stroke:none; fill-opacity:0" cx="2088.63" cy="1423.18" r="2"/>
<circle clip-path="url(#clip292)" style="fill:#ffa500; stroke:none; fill-opacity:0" cx="2217.93" cy="984.708" r="2"/>
<path clip-path="url(#clip290)" d="M1787.63 322.316 L2282.13 322.316 L2282.13 166.796 L1787.63 166.796  Z" fill="#ffffff" fill-rule="evenodd" fill-opacity="1"/>
<polyline clip-path="url(#clip290)" style="stroke:#000000; stroke-linecap:round; stroke-linejoin:round; stroke-width:4; stroke-opacity:1; fill:none" points="1787.63,322.316 2282.13,322.316 2282.13,166.796 1787.63,166.796 1787.63,322.316 "/>
<path clip-path="url(#clip290)" d="M1811.17 239.372 L1952.42 239.372 L1952.42 197.9 L1811.17 197.9 L1811.17 239.372  Z" fill="#0000ff" fill-rule="evenodd" fill-opacity="1"/>
<polyline clip-path="url(#clip290)" style="stroke:#000000; stroke-linecap:round; stroke-linejoin:round; stroke-width:4; stroke-opacity:1; fill:none" points="1811.17,239.372 1952.42,239.372 1952.42,197.9 1811.17,197.9 1811.17,239.372 "/>
<path clip-path="url(#clip290)" d="M1975.96 201.356 L1997.81 201.356 L1997.81 205.291 L1980.63 205.291 L1980.63 215.522 L1997.09 215.522 L1997.09 219.457 L1980.63 219.457 L1980.63 231.981 L1998.23 231.981 L1998.23 235.916 L1975.96 235.916 L1975.96 201.356 Z" fill="#000000" fill-rule="nonzero" fill-opacity="1" /><path clip-path="url(#clip290)" d="M2008.27 222.976 Q2008.27 227.675 2010.19 230.36 Q2012.14 233.022 2015.52 233.022 Q2018.9 233.022 2020.84 230.36 Q2022.79 227.675 2022.79 222.976 Q2022.79 218.277 2020.84 215.615 Q2018.9 212.93 2015.52 212.93 Q2012.14 212.93 2010.19 215.615 Q2008.27 218.277 2008.27 222.976 M2022.79 232.027 Q2021.44 234.342 2019.38 235.476 Q2017.35 236.587 2014.48 236.587 Q2009.78 236.587 2006.81 232.837 Q2003.87 229.087 2003.87 222.976 Q2003.87 216.865 2006.81 213.115 Q2009.78 209.365 2014.48 209.365 Q2017.35 209.365 2019.38 210.499 Q2021.44 211.61 2022.79 213.925 L2022.79 209.99 L2027.04 209.99 L2027.04 245.777 L2022.79 245.777 L2022.79 232.027 Z" fill="#000000" fill-rule="nonzero" fill-opacity="1" /><path clip-path="url(#clip290)" d="M2035.38 225.684 L2035.38 209.99 L2039.64 209.99 L2039.64 225.522 Q2039.64 229.203 2041.07 231.055 Q2042.51 232.883 2045.38 232.883 Q2048.83 232.883 2050.82 230.684 Q2052.83 228.485 2052.83 224.689 L2052.83 209.99 L2057.09 209.99 L2057.09 235.916 L2052.83 235.916 L2052.83 231.934 Q2051.28 234.295 2049.22 235.453 Q2047.18 236.587 2044.48 236.587 Q2040.01 236.587 2037.69 233.809 Q2035.38 231.031 2035.38 225.684 M2046.1 209.365 L2046.1 209.365 Z" fill="#000000" fill-rule="nonzero" fill-opacity="1" /><path clip-path="url(#clip290)" d="M2077.65 222.883 Q2072.48 222.883 2070.49 224.064 Q2068.5 225.244 2068.5 228.092 Q2068.5 230.36 2069.98 231.703 Q2071.49 233.022 2074.06 233.022 Q2077.6 233.022 2079.73 230.522 Q2081.88 227.999 2081.88 223.832 L2081.88 222.883 L2077.65 222.883 M2086.14 221.124 L2086.14 235.916 L2081.88 235.916 L2081.88 231.981 Q2080.42 234.342 2078.25 235.476 Q2076.07 236.587 2072.92 236.587 Q2068.94 236.587 2066.58 234.365 Q2064.24 232.119 2064.24 228.369 Q2064.24 223.994 2067.16 221.772 Q2070.1 219.55 2075.91 219.55 L2081.88 219.55 L2081.88 219.133 Q2081.88 216.194 2079.94 214.596 Q2078.02 212.976 2074.52 212.976 Q2072.3 212.976 2070.19 213.508 Q2068.09 214.041 2066.14 215.106 L2066.14 211.17 Q2068.48 210.268 2070.68 209.828 Q2072.88 209.365 2074.96 209.365 Q2080.59 209.365 2083.36 212.282 Q2086.14 215.198 2086.14 221.124 Z" fill="#000000" fill-rule="nonzero" fill-opacity="1" /><path clip-path="url(#clip290)" d="M2094.91 199.897 L2099.17 199.897 L2099.17 235.916 L2094.91 235.916 L2094.91 199.897 Z" fill="#000000" fill-rule="nonzero" fill-opacity="1" /><path clip-path="url(#clip290)" d="M2108.09 209.99 L2112.35 209.99 L2112.35 235.916 L2108.09 235.916 L2108.09 209.99 M2108.09 199.897 L2112.35 199.897 L2112.35 205.291 L2108.09 205.291 L2108.09 199.897 Z" fill="#000000" fill-rule="nonzero" fill-opacity="1" /><path clip-path="url(#clip290)" d="M2125.47 202.629 L2125.47 209.99 L2134.24 209.99 L2134.24 213.3 L2125.47 213.3 L2125.47 227.374 Q2125.47 230.545 2126.33 231.448 Q2127.21 232.351 2129.87 232.351 L2134.24 232.351 L2134.24 235.916 L2129.87 235.916 Q2124.94 235.916 2123.06 234.087 Q2121.19 232.235 2121.19 227.374 L2121.19 213.3 L2118.06 213.3 L2118.06 209.99 L2121.19 209.99 L2121.19 202.629 L2125.47 202.629 Z" fill="#000000" fill-rule="nonzero" fill-opacity="1" /><path clip-path="url(#clip290)" d="M2150.63 238.323 Q2148.83 242.953 2147.11 244.365 Q2145.4 245.777 2142.53 245.777 L2139.13 245.777 L2139.13 242.212 L2141.63 242.212 Q2143.39 242.212 2144.36 241.379 Q2145.33 240.545 2146.51 237.443 L2147.28 235.499 L2136.79 209.99 L2141.3 209.99 L2149.41 230.268 L2157.51 209.99 L2162.02 209.99 L2150.63 238.323 Z" fill="#000000" fill-rule="nonzero" fill-opacity="1" /><path clip-path="url(#clip290)" d="M2183.16 201.356 L2190.12 201.356 L2198.94 224.874 L2207.81 201.356 L2214.78 201.356 L2214.78 235.916 L2210.22 235.916 L2210.22 205.569 L2201.3 229.272 L2196.6 229.272 L2187.69 205.569 L2187.69 235.916 L2183.16 235.916 L2183.16 201.356 Z" fill="#000000" fill-rule="nonzero" fill-opacity="1" /><path clip-path="url(#clip290)" d="M2223.87 209.99 L2228.13 209.99 L2228.13 235.916 L2223.87 235.916 L2223.87 209.99 M2223.87 199.897 L2228.13 199.897 L2228.13 205.291 L2223.87 205.291 L2223.87 199.897 Z" fill="#000000" fill-rule="nonzero" fill-opacity="1" /><path clip-path="url(#clip290)" d="M2258.59 220.268 L2258.59 235.916 L2254.34 235.916 L2254.34 220.407 Q2254.34 216.726 2252.9 214.897 Q2251.46 213.069 2248.59 213.069 Q2245.15 213.069 2243.15 215.268 Q2241.16 217.467 2241.16 221.263 L2241.16 235.916 L2236.88 235.916 L2236.88 209.99 L2241.16 209.99 L2241.16 214.018 Q2242.69 211.68 2244.75 210.522 Q2246.84 209.365 2249.54 209.365 Q2254.01 209.365 2256.3 212.143 Q2258.59 214.897 2258.59 220.268 Z" fill="#000000" fill-rule="nonzero" fill-opacity="1" /><path clip-path="url(#clip290)" d="M1811.17 291.212 L1952.42 291.212 L1952.42 249.74 L1811.17 249.74 L1811.17 291.212  Z" fill="#ffa500" fill-rule="evenodd" fill-opacity="1"/>
<polyline clip-path="url(#clip290)" style="stroke:#000000; stroke-linecap:round; stroke-linejoin:round; stroke-width:4; stroke-opacity:1; fill:none" points="1811.17,291.212 1952.42,291.212 1952.42,249.74 1811.17,249.74 1811.17,291.212 "/>
<path clip-path="url(#clip290)" d="M1992.35 271.552 Q1993.85 272.061 1995.26 273.728 Q1996.7 275.395 1998.13 278.311 L2002.88 287.756 L1997.86 287.756 L1993.43 278.89 Q1991.72 275.418 1990.1 274.284 Q1988.5 273.149 1985.73 273.149 L1980.63 273.149 L1980.63 287.756 L1975.96 287.756 L1975.96 253.196 L1986.51 253.196 Q1992.44 253.196 1995.36 255.673 Q1998.27 258.149 1998.27 263.149 Q1998.27 266.413 1996.74 268.566 Q1995.24 270.719 1992.35 271.552 M1980.63 257.038 L1980.63 269.307 L1986.51 269.307 Q1989.89 269.307 1991.61 267.756 Q1993.34 266.182 1993.34 263.149 Q1993.34 260.117 1991.61 258.589 Q1989.89 257.038 1986.51 257.038 L1980.63 257.038 Z" fill="#000000" fill-rule="nonzero" fill-opacity="1" /><path clip-path="url(#clip290)" d="M2028.76 273.728 L2028.76 275.811 L2009.17 275.811 Q2009.45 280.209 2011.81 282.524 Q2014.2 284.816 2018.43 284.816 Q2020.89 284.816 2023.18 284.214 Q2025.49 283.612 2027.76 282.409 L2027.76 286.436 Q2025.47 287.408 2023.06 287.918 Q2020.66 288.427 2018.18 288.427 Q2011.98 288.427 2008.34 284.816 Q2004.73 281.205 2004.73 275.047 Q2004.73 268.682 2008.16 264.955 Q2011.61 261.205 2017.44 261.205 Q2022.67 261.205 2025.7 264.585 Q2028.76 267.941 2028.76 273.728 M2024.5 272.478 Q2024.45 268.983 2022.53 266.899 Q2020.63 264.816 2017.48 264.816 Q2013.92 264.816 2011.77 266.83 Q2009.64 268.844 2009.31 272.501 L2024.5 272.478 Z" fill="#000000" fill-rule="nonzero" fill-opacity="1" /><path clip-path="url(#clip290)" d="M2035.75 251.737 L2040.01 251.737 L2040.01 287.756 L2035.75 287.756 L2035.75 251.737 Z" fill="#000000" fill-rule="nonzero" fill-opacity="1" /><path clip-path="url(#clip290)" d="M2060.7 274.723 Q2055.54 274.723 2053.55 275.904 Q2051.56 277.084 2051.56 279.932 Q2051.56 282.2 2053.04 283.543 Q2054.54 284.862 2057.11 284.862 Q2060.66 284.862 2062.79 282.362 Q2064.94 279.839 2064.94 275.672 L2064.94 274.723 L2060.7 274.723 M2069.2 272.964 L2069.2 287.756 L2064.94 287.756 L2064.94 283.821 Q2063.48 286.182 2061.3 287.316 Q2059.13 288.427 2055.98 288.427 Q2052 288.427 2049.64 286.205 Q2047.3 283.959 2047.3 280.209 Q2047.3 275.834 2050.22 273.612 Q2053.16 271.39 2058.97 271.39 L2064.94 271.39 L2064.94 270.973 Q2064.94 268.034 2062.99 266.436 Q2061.07 264.816 2057.58 264.816 Q2055.35 264.816 2053.25 265.348 Q2051.14 265.881 2049.2 266.946 L2049.2 263.01 Q2051.54 262.108 2053.73 261.668 Q2055.93 261.205 2058.02 261.205 Q2063.64 261.205 2066.42 264.122 Q2069.2 267.038 2069.2 272.964 Z" fill="#000000" fill-rule="nonzero" fill-opacity="1" /><path clip-path="url(#clip290)" d="M2099.52 261.83 L2090.15 274.446 L2100.01 287.756 L2094.98 287.756 L2087.44 277.571 L2079.89 287.756 L2074.87 287.756 L2084.94 274.191 L2075.73 261.83 L2080.75 261.83 L2087.62 271.066 L2094.5 261.83 L2099.52 261.83 Z" fill="#000000" fill-rule="nonzero" fill-opacity="1" /><path clip-path="url(#clip290)" d="M2126.74 273.728 L2126.74 275.811 L2107.16 275.811 Q2107.44 280.209 2109.8 282.524 Q2112.18 284.816 2116.42 284.816 Q2118.87 284.816 2121.16 284.214 Q2123.48 283.612 2125.75 282.409 L2125.75 286.436 Q2123.46 287.408 2121.05 287.918 Q2118.64 288.427 2116.16 288.427 Q2109.96 288.427 2106.33 284.816 Q2102.72 281.205 2102.72 275.047 Q2102.72 268.682 2106.14 264.955 Q2109.59 261.205 2115.42 261.205 Q2120.66 261.205 2123.69 264.585 Q2126.74 267.941 2126.74 273.728 M2122.48 272.478 Q2122.44 268.983 2120.52 266.899 Q2118.62 264.816 2115.47 264.816 Q2111.91 264.816 2109.75 266.83 Q2107.62 268.844 2107.3 272.501 L2122.48 272.478 Z" fill="#000000" fill-rule="nonzero" fill-opacity="1" /><path clip-path="url(#clip290)" d="M2150.79 265.765 L2150.79 251.737 L2155.05 251.737 L2155.05 287.756 L2150.79 287.756 L2150.79 283.867 Q2149.45 286.182 2147.39 287.316 Q2145.35 288.427 2142.48 288.427 Q2137.79 288.427 2134.82 284.677 Q2131.88 280.927 2131.88 274.816 Q2131.88 268.705 2134.82 264.955 Q2137.79 261.205 2142.48 261.205 Q2145.35 261.205 2147.39 262.339 Q2149.45 263.45 2150.79 265.765 M2136.28 274.816 Q2136.28 279.515 2138.2 282.2 Q2140.15 284.862 2143.53 284.862 Q2146.91 284.862 2148.85 282.2 Q2150.79 279.515 2150.79 274.816 Q2150.79 270.117 2148.85 267.455 Q2146.91 264.77 2143.53 264.77 Q2140.15 264.77 2138.2 267.455 Q2136.28 270.117 2136.28 274.816 Z" fill="#000000" fill-rule="nonzero" fill-opacity="1" /></svg>
