<?xml version="1.0" encoding="utf-8"?>
<svg xmlns="http://www.w3.org/2000/svg" xmlns:xlink="http://www.w3.org/1999/xlink" width="600" height="400" viewBox="0 0 2400 1600">
<defs>
  <clipPath id="clip830">
    <rect x="0" y="0" width="2400" height="1600"/>
  </clipPath>
</defs>
<path clip-path="url(#clip830)" d="M0 1600 L2400 1600 L2400 0 L0 0  Z" fill="#ffffff" fill-rule="evenodd" fill-opacity="1"/>
<defs>
  <clipPath id="clip831">
    <rect x="480" y="0" width="1681" height="1600"/>
  </clipPath>
</defs>
<path clip-path="url(#clip830)" d="M247.459 1423.18 L2352.76 1423.18 L2352.76 123.472 L247.459 123.472  Z" fill="#ffffff" fill-rule="evenodd" fill-opacity="1"/>
<defs>
  <clipPath id="clip832">
    <rect x="247" y="123" width="2106" height="1301"/>
  </clipPath>
</defs>
<polyline clip-path="url(#clip832)" style="stroke:#000000; stroke-linecap:round; stroke-linejoin:round; stroke-width:2; stroke-opacity:0.1; fill:none" points="448.909,1423.18 448.909,123.472 "/>
<polyline clip-path="url(#clip832)" style="stroke:#000000; stroke-linecap:round; stroke-linejoin:round; stroke-width:2; stroke-opacity:0.1; fill:none" points="732.642,1423.18 732.642,123.472 "/>
<polyline clip-path="url(#clip832)" style="stroke:#000000; stroke-linecap:round; stroke-linejoin:round; stroke-width:2; stroke-opacity:0.1; fill:none" points="1016.37,1423.18 1016.37,123.472 "/>
<polyline clip-path="url(#clip832)" style="stroke:#000000; stroke-linecap:round; stroke-linejoin:round; stroke-width:2; stroke-opacity:0.1; fill:none" points="1300.11,1423.18 1300.11,123.472 "/>
<polyline clip-path="url(#clip832)" style="stroke:#000000; stroke-linecap:round; stroke-linejoin:round; stroke-width:2; stroke-opacity:0.1; fill:none" points="1583.84,1423.18 1583.84,123.472 "/>
<polyline clip-path="url(#clip832)" style="stroke:#000000; stroke-linecap:round; stroke-linejoin:round; stroke-width:2; stroke-opacity:0.1; fill:none" points="1867.57,1423.18 1867.57,123.472 "/>
<polyline clip-path="url(#clip832)" style="stroke:#000000; stroke-linecap:round; stroke-linejoin:round; stroke-width:2; stroke-opacity:0.1; fill:none" points="2151.31,1423.18 2151.31,123.472 "/>
<polyline clip-path="url(#clip832)" style="stroke:#000000; stroke-linecap:round; stroke-linejoin:round; stroke-width:2; stroke-opacity:0.1; fill:none" points="247.459,1386.4 2352.76,1386.4 "/>
<polyline clip-path="url(#clip832)" style="stroke:#000000; stroke-linecap:round; stroke-linejoin:round; stroke-width:2; stroke-opacity:0.1; fill:none" points="247.459,1141.17 2352.76,1141.17 "/>
<polyline clip-path="url(#clip832)" style="stroke:#000000; stroke-linecap:round; stroke-linejoin:round; stroke-width:2; stroke-opacity:0.1; fill:none" points="247.459,895.94 2352.76,895.94 "/>
<polyline clip-path="url(#clip832)" style="stroke:#000000; stroke-linecap:round; stroke-linejoin:round; stroke-width:2; stroke-opacity:0.1; fill:none" points="247.459,650.712 2352.76,650.712 "/>
<polyline clip-path="url(#clip832)" style="stroke:#000000; stroke-linecap:round; stroke-linejoin:round; stroke-width:2; stroke-opacity:0.1; fill:none" points="247.459,405.484 2352.76,405.484 "/>
<polyline clip-path="url(#clip832)" style="stroke:#000000; stroke-linecap:round; stroke-linejoin:round; stroke-width:2; stroke-opacity:0.1; fill:none" points="247.459,160.256 2352.76,160.256 "/>
<polyline clip-path="url(#clip830)" style="stroke:#000000; stroke-linecap:round; stroke-linejoin:round; stroke-width:4; stroke-opacity:1; fill:none" points="247.459,1423.18 2352.76,1423.18 "/>
<polyline clip-path="url(#clip830)" style="stroke:#000000; stroke-linecap:round; stroke-linejoin:round; stroke-width:4; stroke-opacity:1; fill:none" points="448.909,1423.18 448.909,1404.28 "/>
<polyline clip-path="url(#clip830)" style="stroke:#000000; stroke-linecap:round; stroke-linejoin:round; stroke-width:4; stroke-opacity:1; fill:none" points="732.642,1423.18 732.642,1404.28 "/>
<polyline clip-path="url(#clip830)" style="stroke:#000000; stroke-linecap:round; stroke-linejoin:round; stroke-width:4; stroke-opacity:1; fill:none" points="1016.37,1423.18 1016.37,1404.28 "/>
<polyline clip-path="url(#clip830)" style="stroke:#000000; stroke-linecap:round; stroke-linejoin:round; stroke-width:4; stroke-opacity:1; fill:none" points="1300.11,1423.18 1300.11,1404.28 "/>
<polyline clip-path="url(#clip830)" style="stroke:#000000; stroke-linecap:round; stroke-linejoin:round; stroke-width:4; stroke-opacity:1; fill:none" points="1583.84,1423.18 1583.84,1404.28 "/>
<polyline clip-path="url(#clip830)" style="stroke:#000000; stroke-linecap:round; stroke-linejoin:round; stroke-width:4; stroke-opacity:1; fill:none" points="1867.57,1423.18 1867.57,1404.28 "/>
<polyline clip-path="url(#clip830)" style="stroke:#000000; stroke-linecap:round; stroke-linejoin:round; stroke-width:4; stroke-opacity:1; fill:none" points="2151.31,1423.18 2151.31,1404.28 "/>
<path clip-path="url(#clip830)" d="M443.562 1481.64 L459.881 1481.64 L459.881 1485.58 L437.937 1485.58 L437.937 1481.64 Q440.599 1478.89 445.182 1474.26 Q449.789 1469.61 450.969 1468.27 Q453.215 1465.74 454.094 1464.01 Q454.997 1462.25 454.997 1460.56 Q454.997 1457.8 453.052 1456.07 Q451.131 1454.33 448.029 1454.33 Q445.83 1454.33 443.377 1455.09 Q440.946 1455.86 438.168 1457.41 L438.168 1452.69 Q440.992 1451.55 443.446 1450.97 Q445.9 1450.39 447.937 1450.39 Q453.307 1450.39 456.502 1453.08 Q459.696 1455.77 459.696 1460.26 Q459.696 1462.39 458.886 1464.31 Q458.099 1466.2 455.992 1468.8 Q455.414 1469.47 452.312 1472.69 Q449.21 1475.88 443.562 1481.64 Z" fill="#000000" fill-rule="nonzero" fill-opacity="1" /><path clip-path="url(#clip830)" d="M735.651 1455.09 L723.846 1473.54 L735.651 1473.54 L735.651 1455.09 M734.424 1451.02 L740.304 1451.02 L740.304 1473.54 L745.234 1473.54 L745.234 1477.43 L740.304 1477.43 L740.304 1485.58 L735.651 1485.58 L735.651 1477.43 L720.049 1477.43 L720.049 1472.92 L734.424 1451.02 Z" fill="#000000" fill-rule="nonzero" fill-opacity="1" /><path clip-path="url(#clip830)" d="M1016.78 1466.44 Q1013.63 1466.44 1011.78 1468.59 Q1009.95 1470.74 1009.95 1474.49 Q1009.95 1478.22 1011.78 1480.39 Q1013.63 1482.55 1016.78 1482.55 Q1019.93 1482.55 1021.76 1480.39 Q1023.61 1478.22 1023.61 1474.49 Q1023.61 1470.74 1021.76 1468.59 Q1019.93 1466.44 1016.78 1466.44 M1026.06 1451.78 L1026.06 1456.04 Q1024.3 1455.21 1022.5 1454.77 Q1020.71 1454.33 1018.96 1454.33 Q1014.33 1454.33 1011.87 1457.45 Q1009.44 1460.58 1009.09 1466.9 Q1010.46 1464.89 1012.52 1463.82 Q1014.58 1462.73 1017.06 1462.73 Q1022.27 1462.73 1025.27 1465.9 Q1028.31 1469.05 1028.31 1474.49 Q1028.31 1479.82 1025.16 1483.03 Q1022.01 1486.25 1016.78 1486.25 Q1010.78 1486.25 1007.61 1481.67 Q1004.44 1477.06 1004.44 1468.33 Q1004.44 1460.14 1008.33 1455.28 Q1012.22 1450.39 1018.77 1450.39 Q1020.53 1450.39 1022.31 1450.74 Q1024.12 1451.09 1026.06 1451.78 Z" fill="#000000" fill-rule="nonzero" fill-opacity="1" /><path clip-path="url(#clip830)" d="M1300.11 1469.17 Q1296.77 1469.17 1294.85 1470.95 Q1292.95 1472.73 1292.95 1475.86 Q1292.95 1478.98 1294.85 1480.77 Q1296.77 1482.55 1300.11 1482.55 Q1303.44 1482.55 1305.36 1480.77 Q1307.28 1478.96 1307.28 1475.86 Q1307.28 1472.73 1305.36 1470.95 Q1303.46 1469.17 1300.11 1469.17 M1295.43 1467.18 Q1292.42 1466.44 1290.73 1464.38 Q1289.07 1462.32 1289.07 1459.35 Q1289.07 1455.21 1292.01 1452.8 Q1294.97 1450.39 1300.11 1450.39 Q1305.27 1450.39 1308.21 1452.8 Q1311.15 1455.21 1311.15 1459.35 Q1311.15 1462.32 1309.46 1464.38 Q1307.79 1466.44 1304.81 1467.18 Q1308.19 1467.96 1310.06 1470.26 Q1311.96 1472.55 1311.96 1475.86 Q1311.96 1480.88 1308.88 1483.57 Q1305.82 1486.25 1300.11 1486.25 Q1294.39 1486.25 1291.31 1483.57 Q1288.26 1480.88 1288.26 1475.86 Q1288.26 1472.55 1290.15 1470.26 Q1292.05 1467.96 1295.43 1467.18 M1293.72 1459.79 Q1293.72 1462.48 1295.39 1463.98 Q1297.07 1465.49 1300.11 1465.49 Q1303.12 1465.49 1304.81 1463.98 Q1306.52 1462.48 1306.52 1459.79 Q1306.52 1457.11 1304.81 1455.6 Q1303.12 1454.1 1300.11 1454.1 Q1297.07 1454.1 1295.39 1455.6 Q1293.72 1457.11 1293.72 1459.79 Z" fill="#000000" fill-rule="nonzero" fill-opacity="1" /><path clip-path="url(#clip830)" d="M1558.53 1481.64 L1566.17 1481.64 L1566.17 1455.28 L1557.86 1456.95 L1557.86 1452.69 L1566.12 1451.02 L1570.8 1451.02 L1570.8 1481.64 L1578.44 1481.64 L1578.44 1485.58 L1558.53 1485.58 L1558.53 1481.64 Z" fill="#000000" fill-rule="nonzero" fill-opacity="1" /><path clip-path="url(#clip830)" d="M1597.88 1454.1 Q1594.27 1454.1 1592.44 1457.66 Q1590.63 1461.2 1590.63 1468.33 Q1590.63 1475.44 1592.44 1479.01 Q1594.27 1482.55 1597.88 1482.55 Q1601.51 1482.55 1603.32 1479.01 Q1605.15 1475.44 1605.15 1468.33 Q1605.15 1461.2 1603.32 1457.66 Q1601.51 1454.1 1597.88 1454.1 M1597.88 1450.39 Q1603.69 1450.39 1606.75 1455 Q1609.82 1459.58 1609.82 1468.33 Q1609.82 1477.06 1606.75 1481.67 Q1603.69 1486.25 1597.88 1486.25 Q1592.07 1486.25 1588.99 1481.67 Q1585.93 1477.06 1585.93 1468.33 Q1585.93 1459.58 1588.99 1455 Q1592.07 1450.39 1597.88 1450.39 Z" fill="#000000" fill-rule="nonzero" fill-opacity="1" /><path clip-path="url(#clip830)" d="M1843.06 1481.64 L1850.7 1481.64 L1850.7 1455.28 L1842.39 1456.95 L1842.39 1452.69 L1850.65 1451.02 L1855.33 1451.02 L1855.33 1481.64 L1862.97 1481.64 L1862.97 1485.58 L1843.06 1485.58 L1843.06 1481.64 Z" fill="#000000" fill-rule="nonzero" fill-opacity="1" /><path clip-path="url(#clip830)" d="M1876.44 1481.64 L1892.76 1481.64 L1892.76 1485.58 L1870.81 1485.58 L1870.81 1481.64 Q1873.48 1478.89 1878.06 1474.26 Q1882.67 1469.61 1883.85 1468.27 Q1886.09 1465.74 1886.97 1464.01 Q1887.87 1462.25 1887.87 1460.56 Q1887.87 1457.8 1885.93 1456.07 Q1884.01 1454.33 1880.91 1454.33 Q1878.71 1454.33 1876.25 1455.09 Q1873.82 1455.86 1871.05 1457.41 L1871.05 1452.69 Q1873.87 1451.55 1876.32 1450.97 Q1878.78 1450.39 1880.81 1450.39 Q1886.18 1450.39 1889.38 1453.08 Q1892.57 1455.77 1892.57 1460.26 Q1892.57 1462.39 1891.76 1464.31 Q1890.98 1466.2 1888.87 1468.8 Q1888.29 1469.47 1885.19 1472.69 Q1882.09 1475.88 1876.44 1481.64 Z" fill="#000000" fill-rule="nonzero" fill-opacity="1" /><path clip-path="url(#clip830)" d="M2125.75 1481.64 L2133.39 1481.64 L2133.39 1455.28 L2125.08 1456.95 L2125.08 1452.69 L2133.34 1451.02 L2138.02 1451.02 L2138.02 1481.64 L2145.66 1481.64 L2145.66 1485.58 L2125.75 1485.58 L2125.75 1481.64 Z" fill="#000000" fill-rule="nonzero" fill-opacity="1" /><path clip-path="url(#clip830)" d="M2167.95 1455.09 L2156.14 1473.54 L2167.95 1473.54 L2167.95 1455.09 M2166.72 1451.02 L2172.6 1451.02 L2172.6 1473.54 L2177.53 1473.54 L2177.53 1477.43 L2172.6 1477.43 L2172.6 1485.58 L2167.95 1485.58 L2167.95 1477.43 L2152.35 1477.43 L2152.35 1472.92 L2166.72 1451.02 Z" fill="#000000" fill-rule="nonzero" fill-opacity="1" /><path clip-path="url(#clip830)" d="M1126.1 1520.52 L1132.53 1520.52 L1132.53 1562.63 L1155.67 1562.63 L1155.67 1568.04 L1126.1 1568.04 L1126.1 1520.52 Z" fill="#000000" fill-rule="nonzero" fill-opacity="1" /><path clip-path="url(#clip830)" d="M1174.83 1536.5 Q1170.12 1536.5 1167.38 1540.19 Q1164.65 1543.85 1164.65 1550.25 Q1164.65 1556.65 1167.35 1560.34 Q1170.09 1564 1174.83 1564 Q1179.51 1564 1182.25 1560.31 Q1184.98 1556.62 1184.98 1550.25 Q1184.98 1543.92 1182.25 1540.23 Q1179.51 1536.5 1174.83 1536.5 M1174.83 1531.54 Q1182.47 1531.54 1186.83 1536.5 Q1191.19 1541.47 1191.19 1550.25 Q1191.19 1559 1186.83 1564 Q1182.47 1568.97 1174.83 1568.97 Q1167.16 1568.97 1162.8 1564 Q1158.47 1559 1158.47 1550.25 Q1158.47 1541.47 1162.8 1536.5 Q1167.16 1531.54 1174.83 1531.54 Z" fill="#000000" fill-rule="nonzero" fill-opacity="1" /><path clip-path="url(#clip830)" d="M1217.1 1550.12 Q1210 1550.12 1207.26 1551.75 Q1204.53 1553.37 1204.53 1557.29 Q1204.53 1560.4 1206.56 1562.25 Q1208.63 1564.07 1212.17 1564.07 Q1217.03 1564.07 1219.96 1560.63 Q1222.92 1557.16 1222.92 1551.43 L1222.92 1550.12 L1217.1 1550.12 M1228.78 1547.71 L1228.78 1568.04 L1222.92 1568.04 L1222.92 1562.63 Q1220.92 1565.88 1217.93 1567.44 Q1214.93 1568.97 1210.61 1568.97 Q1205.13 1568.97 1201.88 1565.91 Q1198.67 1562.82 1198.67 1557.67 Q1198.67 1551.65 1202.68 1548.6 Q1206.72 1545.54 1214.71 1545.54 L1222.92 1545.54 L1222.92 1544.97 Q1222.92 1540.93 1220.25 1538.73 Q1217.61 1536.5 1212.8 1536.5 Q1209.75 1536.5 1206.85 1537.23 Q1203.95 1537.97 1201.28 1539.43 L1201.28 1534.02 Q1204.49 1532.78 1207.52 1532.17 Q1210.54 1531.54 1213.41 1531.54 Q1221.14 1531.54 1224.96 1535.55 Q1228.78 1539.56 1228.78 1547.71 Z" fill="#000000" fill-rule="nonzero" fill-opacity="1" /><path clip-path="url(#clip830)" d="M1264.3 1537.81 L1264.3 1518.52 L1270.16 1518.52 L1270.16 1568.04 L1264.3 1568.04 L1264.3 1562.7 Q1262.45 1565.88 1259.62 1567.44 Q1256.82 1568.97 1252.87 1568.97 Q1246.41 1568.97 1242.34 1563.81 Q1238.3 1558.65 1238.3 1550.25 Q1238.3 1541.85 1242.34 1536.69 Q1246.41 1531.54 1252.87 1531.54 Q1256.82 1531.54 1259.62 1533.1 Q1262.45 1534.62 1264.3 1537.81 M1244.34 1550.25 Q1244.34 1556.71 1246.99 1560.4 Q1249.66 1564.07 1254.31 1564.07 Q1258.95 1564.07 1261.63 1560.4 Q1264.3 1556.71 1264.3 1550.25 Q1264.3 1543.79 1261.63 1540.13 Q1258.95 1536.44 1254.31 1536.44 Q1249.66 1536.44 1246.99 1540.13 Q1244.34 1543.79 1244.34 1550.25 Z" fill="#000000" fill-rule="nonzero" fill-opacity="1" /><path clip-path="url(#clip830)" d="M1303.19 1520.52 L1309.62 1520.52 L1309.62 1568.04 L1303.19 1568.04 L1303.19 1520.52 Z" fill="#000000" fill-rule="nonzero" fill-opacity="1" /><path clip-path="url(#clip830)" d="M1351.8 1546.53 L1351.8 1568.04 L1345.94 1568.04 L1345.94 1546.72 Q1345.94 1541.66 1343.97 1539.14 Q1341.99 1536.63 1338.05 1536.63 Q1333.3 1536.63 1330.57 1539.65 Q1327.83 1542.68 1327.83 1547.9 L1327.83 1568.04 L1321.94 1568.04 L1321.94 1532.4 L1327.83 1532.4 L1327.83 1537.93 Q1329.93 1534.72 1332.76 1533.13 Q1335.63 1531.54 1339.35 1531.54 Q1345.49 1531.54 1348.65 1535.36 Q1351.8 1539.14 1351.8 1546.53 Z" fill="#000000" fill-rule="nonzero" fill-opacity="1" /><path clip-path="url(#clip830)" d="M1386.94 1537.81 L1386.94 1518.52 L1392.79 1518.52 L1392.79 1568.04 L1386.94 1568.04 L1386.94 1562.7 Q1385.09 1565.88 1382.26 1567.44 Q1379.46 1568.97 1375.51 1568.97 Q1369.05 1568.97 1364.97 1563.81 Q1360.93 1558.65 1360.93 1550.25 Q1360.93 1541.85 1364.97 1536.69 Q1369.05 1531.54 1375.51 1531.54 Q1379.46 1531.54 1382.26 1533.1 Q1385.09 1534.62 1386.94 1537.81 M1366.98 1550.25 Q1366.98 1556.71 1369.62 1560.4 Q1372.29 1564.07 1376.94 1564.07 Q1381.59 1564.07 1384.26 1560.4 Q1386.94 1556.71 1386.94 1550.25 Q1386.94 1543.79 1384.26 1540.13 Q1381.59 1536.44 1376.94 1536.44 Q1372.29 1536.44 1369.62 1540.13 Q1366.98 1543.79 1366.98 1550.25 Z" fill="#000000" fill-rule="nonzero" fill-opacity="1" /><path clip-path="url(#clip830)" d="M1435.35 1548.76 L1435.35 1551.62 L1408.42 1551.62 Q1408.8 1557.67 1412.05 1560.85 Q1415.33 1564 1421.15 1564 Q1424.53 1564 1427.68 1563.17 Q1430.86 1562.35 1433.98 1560.69 L1433.98 1566.23 Q1430.83 1567.57 1427.52 1568.27 Q1424.21 1568.97 1420.8 1568.97 Q1412.27 1568.97 1407.27 1564 Q1402.31 1559.04 1402.31 1550.57 Q1402.31 1541.82 1407.02 1536.69 Q1411.76 1531.54 1419.78 1531.54 Q1426.98 1531.54 1431.15 1536.18 Q1435.35 1540.8 1435.35 1548.76 M1429.49 1547.04 Q1429.43 1542.23 1426.78 1539.37 Q1424.17 1536.5 1419.85 1536.5 Q1414.94 1536.5 1411.98 1539.27 Q1409.06 1542.04 1408.61 1547.07 L1429.49 1547.04 Z" fill="#000000" fill-rule="nonzero" fill-opacity="1" /><path clip-path="url(#clip830)" d="M1473.45 1532.4 L1460.55 1549.74 L1474.11 1568.04 L1467.21 1568.04 L1456.83 1554.04 L1446.45 1568.04 L1439.55 1568.04 L1453.39 1549.39 L1440.73 1532.4 L1447.63 1532.4 L1457.09 1545.1 L1466.54 1532.4 L1473.45 1532.4 Z" fill="#000000" fill-rule="nonzero" fill-opacity="1" /><polyline clip-path="url(#clip830)" style="stroke:#000000; stroke-linecap:round; stroke-linejoin:round; stroke-width:4; stroke-opacity:1; fill:none" points="247.459,1423.18 247.459,123.472 "/>
<polyline clip-path="url(#clip830)" style="stroke:#000000; stroke-linecap:round; stroke-linejoin:round; stroke-width:4; stroke-opacity:1; fill:none" points="247.459,1386.4 266.356,1386.4 "/>
<polyline clip-path="url(#clip830)" style="stroke:#000000; stroke-linecap:round; stroke-linejoin:round; stroke-width:4; stroke-opacity:1; fill:none" points="247.459,1141.17 266.356,1141.17 "/>
<polyline clip-path="url(#clip830)" style="stroke:#000000; stroke-linecap:round; stroke-linejoin:round; stroke-width:4; stroke-opacity:1; fill:none" points="247.459,895.94 266.356,895.94 "/>
<polyline clip-path="url(#clip830)" style="stroke:#000000; stroke-linecap:round; stroke-linejoin:round; stroke-width:4; stroke-opacity:1; fill:none" points="247.459,650.712 266.356,650.712 "/>
<polyline clip-path="url(#clip830)" style="stroke:#000000; stroke-linecap:round; stroke-linejoin:round; stroke-width:4; stroke-opacity:1; fill:none" points="247.459,405.484 266.356,405.484 "/>
<polyline clip-path="url(#clip830)" style="stroke:#000000; stroke-linecap:round; stroke-linejoin:round; stroke-width:4; stroke-opacity:1; fill:none" points="247.459,160.256 266.356,160.256 "/>
<path clip-path="url(#clip830)" d="M145.417 1402.96 L145.417 1398.7 Q147.177 1399.53 148.982 1399.97 Q150.788 1400.41 152.524 1400.41 Q157.153 1400.41 159.584 1397.31 Q162.038 1394.18 162.385 1387.84 Q161.042 1389.83 158.982 1390.9 Q156.922 1391.96 154.422 1391.96 Q149.237 1391.96 146.204 1388.84 Q143.195 1385.69 143.195 1380.25 Q143.195 1374.93 146.343 1371.71 Q149.491 1368.49 154.723 1368.49 Q160.718 1368.49 163.866 1373.1 Q167.038 1377.68 167.038 1386.43 Q167.038 1394.6 163.149 1399.49 Q159.283 1404.35 152.732 1404.35 Q150.973 1404.35 149.167 1404 Q147.362 1403.65 145.417 1402.96 M154.723 1388.31 Q157.871 1388.31 159.7 1386.15 Q161.552 1384 161.552 1380.25 Q161.552 1376.52 159.7 1374.37 Q157.871 1372.19 154.723 1372.19 Q151.575 1372.19 149.723 1374.37 Q147.894 1376.52 147.894 1380.25 Q147.894 1384 149.723 1386.15 Q151.575 1388.31 154.723 1388.31 Z" fill="#000000" fill-rule="nonzero" fill-opacity="1" /><path clip-path="url(#clip830)" d="M175.44 1397.8 L180.325 1397.8 L180.325 1403.68 L175.44 1403.68 L175.44 1397.8 Z" fill="#000000" fill-rule="nonzero" fill-opacity="1" /><path clip-path="url(#clip830)" d="M190.556 1369.12 L208.912 1369.12 L208.912 1373.05 L194.838 1373.05 L194.838 1381.52 Q195.857 1381.18 196.875 1381.01 Q197.894 1380.83 198.912 1380.83 Q204.699 1380.83 208.079 1384 Q211.459 1387.17 211.459 1392.59 Q211.459 1398.17 207.987 1401.27 Q204.514 1404.35 198.195 1404.35 Q196.019 1404.35 193.75 1403.98 Q191.505 1403.61 189.098 1402.87 L189.098 1398.17 Q191.181 1399.3 193.403 1399.86 Q195.625 1400.41 198.102 1400.41 Q202.107 1400.41 204.445 1398.31 Q206.783 1396.2 206.783 1392.59 Q206.783 1388.98 204.445 1386.87 Q202.107 1384.76 198.102 1384.76 Q196.227 1384.76 194.352 1385.18 Q192.5 1385.6 190.556 1386.48 L190.556 1369.12 Z" fill="#000000" fill-rule="nonzero" fill-opacity="1" /><path clip-path="url(#clip830)" d="M144.26 1157.73 L144.26 1153.47 Q146.019 1154.3 147.825 1154.74 Q149.63 1155.18 151.366 1155.18 Q155.996 1155.18 158.427 1152.08 Q160.88 1148.96 161.227 1142.61 Q159.885 1144.61 157.825 1145.67 Q155.765 1146.73 153.265 1146.73 Q148.079 1146.73 145.047 1143.61 Q142.038 1140.46 142.038 1135.02 Q142.038 1129.7 145.186 1126.48 Q148.334 1123.26 153.566 1123.26 Q159.561 1123.26 162.709 1127.87 Q165.88 1132.45 165.88 1141.2 Q165.88 1149.37 161.991 1154.26 Q158.126 1159.12 151.575 1159.12 Q149.816 1159.12 148.01 1158.77 Q146.204 1158.42 144.26 1157.73 M153.566 1143.08 Q156.714 1143.08 158.542 1140.92 Q160.394 1138.77 160.394 1135.02 Q160.394 1131.3 158.542 1129.14 Q156.714 1126.97 153.566 1126.97 Q150.417 1126.97 148.566 1129.14 Q146.737 1131.3 146.737 1135.02 Q146.737 1138.77 148.566 1140.92 Q150.417 1143.08 153.566 1143.08 Z" fill="#000000" fill-rule="nonzero" fill-opacity="1" /><path clip-path="url(#clip830)" d="M174.283 1152.57 L179.167 1152.57 L179.167 1158.45 L174.283 1158.45 L174.283 1152.57 Z" fill="#000000" fill-rule="nonzero" fill-opacity="1" /><path clip-path="url(#clip830)" d="M199.931 1139.3 Q196.783 1139.3 194.931 1141.46 Q193.102 1143.61 193.102 1147.36 Q193.102 1151.09 194.931 1153.26 Q196.783 1155.42 199.931 1155.42 Q203.079 1155.42 204.908 1153.26 Q206.76 1151.09 206.76 1147.36 Q206.76 1143.61 204.908 1141.46 Q203.079 1139.3 199.931 1139.3 M209.213 1124.65 L209.213 1128.91 Q207.454 1128.08 205.649 1127.64 Q203.866 1127.2 202.107 1127.2 Q197.477 1127.2 195.024 1130.32 Q192.593 1133.45 192.246 1139.77 Q193.612 1137.75 195.672 1136.69 Q197.732 1135.6 200.209 1135.6 Q205.417 1135.6 208.426 1138.77 Q211.459 1141.92 211.459 1147.36 Q211.459 1152.68 208.311 1155.9 Q205.162 1159.12 199.931 1159.12 Q193.936 1159.12 190.764 1154.54 Q187.593 1149.93 187.593 1141.2 Q187.593 1133.01 191.482 1128.15 Q195.371 1123.26 201.922 1123.26 Q203.681 1123.26 205.463 1123.61 Q207.269 1123.96 209.213 1124.65 Z" fill="#000000" fill-rule="nonzero" fill-opacity="1" /><path clip-path="url(#clip830)" d="M145.325 912.502 L145.325 908.243 Q147.084 909.076 148.89 909.516 Q150.695 909.956 152.431 909.956 Q157.061 909.956 159.491 906.854 Q161.945 903.729 162.292 897.387 Q160.95 899.377 158.89 900.442 Q156.829 901.507 154.329 901.507 Q149.144 901.507 146.112 898.382 Q143.103 895.234 143.103 889.794 Q143.103 884.47 146.251 881.252 Q149.399 878.035 154.63 878.035 Q160.626 878.035 163.774 882.641 Q166.945 887.225 166.945 895.975 Q166.945 904.146 163.056 909.03 Q159.19 913.891 152.64 913.891 Q150.88 913.891 149.075 913.544 Q147.269 913.197 145.325 912.502 M154.63 897.85 Q157.778 897.85 159.607 895.697 Q161.459 893.544 161.459 889.794 Q161.459 886.067 159.607 883.915 Q157.778 881.739 154.63 881.739 Q151.482 881.739 149.63 883.915 Q147.802 886.067 147.802 889.794 Q147.802 893.544 149.63 895.697 Q151.482 897.85 154.63 897.85 Z" fill="#000000" fill-rule="nonzero" fill-opacity="1" /><path clip-path="url(#clip830)" d="M175.348 907.34 L180.232 907.34 L180.232 913.22 L175.348 913.22 L175.348 907.34 Z" fill="#000000" fill-rule="nonzero" fill-opacity="1" /><path clip-path="url(#clip830)" d="M189.237 878.66 L211.459 878.66 L211.459 880.651 L198.912 913.22 L194.028 913.22 L205.834 882.595 L189.237 882.595 L189.237 878.66 Z" fill="#000000" fill-rule="nonzero" fill-opacity="1" /><path clip-path="url(#clip830)" d="M144.515 667.274 L144.515 663.015 Q146.274 663.849 148.079 664.288 Q149.885 664.728 151.621 664.728 Q156.251 664.728 158.681 661.626 Q161.135 658.501 161.482 652.159 Q160.14 654.15 158.079 655.214 Q156.019 656.279 153.519 656.279 Q148.334 656.279 145.302 653.154 Q142.292 650.006 142.292 644.566 Q142.292 639.242 145.441 636.025 Q148.589 632.807 153.82 632.807 Q159.815 632.807 162.964 637.414 Q166.135 641.997 166.135 650.747 Q166.135 658.918 162.246 663.802 Q158.38 668.663 151.829 668.663 Q150.07 668.663 148.265 668.316 Q146.459 667.969 144.515 667.274 M153.82 652.622 Q156.968 652.622 158.797 650.469 Q160.649 648.316 160.649 644.566 Q160.649 640.839 158.797 638.687 Q156.968 636.511 153.82 636.511 Q150.672 636.511 148.82 638.687 Q146.991 640.839 146.991 644.566 Q146.991 648.316 148.82 650.469 Q150.672 652.622 153.82 652.622 Z" fill="#000000" fill-rule="nonzero" fill-opacity="1" /><path clip-path="url(#clip830)" d="M174.538 662.112 L179.422 662.112 L179.422 667.992 L174.538 667.992 L174.538 662.112 Z" fill="#000000" fill-rule="nonzero" fill-opacity="1" /><path clip-path="url(#clip830)" d="M199.607 651.58 Q196.274 651.58 194.352 653.362 Q192.454 655.145 192.454 658.27 Q192.454 661.395 194.352 663.177 Q196.274 664.96 199.607 664.96 Q202.94 664.96 204.862 663.177 Q206.783 661.372 206.783 658.27 Q206.783 655.145 204.862 653.362 Q202.963 651.58 199.607 651.58 M194.931 649.589 Q191.922 648.849 190.232 646.788 Q188.565 644.728 188.565 641.765 Q188.565 637.622 191.505 635.214 Q194.468 632.807 199.607 632.807 Q204.769 632.807 207.709 635.214 Q210.649 637.622 210.649 641.765 Q210.649 644.728 208.959 646.788 Q207.292 648.849 204.306 649.589 Q207.686 650.376 209.561 652.668 Q211.459 654.96 211.459 658.27 Q211.459 663.293 208.38 665.978 Q205.324 668.663 199.607 668.663 Q193.889 668.663 190.811 665.978 Q187.755 663.293 187.755 658.27 Q187.755 654.96 189.653 652.668 Q191.551 650.376 194.931 649.589 M193.218 642.205 Q193.218 644.89 194.885 646.395 Q196.575 647.9 199.607 647.9 Q202.616 647.9 204.306 646.395 Q206.019 644.89 206.019 642.205 Q206.019 639.52 204.306 638.015 Q202.616 636.511 199.607 636.511 Q196.575 636.511 194.885 638.015 Q193.218 639.52 193.218 642.205 Z" fill="#000000" fill-rule="nonzero" fill-opacity="1" /><path clip-path="url(#clip830)" d="M144.607 422.047 L144.607 417.787 Q146.366 418.621 148.172 419.06 Q149.978 419.5 151.714 419.5 Q156.343 419.5 158.774 416.398 Q161.227 413.273 161.575 406.931 Q160.232 408.922 158.172 409.986 Q156.112 411.051 153.612 411.051 Q148.427 411.051 145.394 407.926 Q142.385 404.778 142.385 399.338 Q142.385 394.014 145.533 390.797 Q148.681 387.579 153.913 387.579 Q159.908 387.579 163.056 392.186 Q166.227 396.769 166.227 405.519 Q166.227 413.69 162.339 418.574 Q158.473 423.435 151.922 423.435 Q150.163 423.435 148.357 423.088 Q146.552 422.741 144.607 422.047 M153.913 407.394 Q157.061 407.394 158.89 405.241 Q160.741 403.088 160.741 399.338 Q160.741 395.612 158.89 393.459 Q157.061 391.283 153.913 391.283 Q150.765 391.283 148.913 393.459 Q147.084 395.612 147.084 399.338 Q147.084 403.088 148.913 405.241 Q150.765 407.394 153.913 407.394 Z" fill="#000000" fill-rule="nonzero" fill-opacity="1" /><path clip-path="url(#clip830)" d="M174.63 416.885 L179.514 416.885 L179.514 422.764 L174.63 422.764 L174.63 416.885 Z" fill="#000000" fill-rule="nonzero" fill-opacity="1" /><path clip-path="url(#clip830)" d="M189.838 422.047 L189.838 417.787 Q191.598 418.621 193.403 419.06 Q195.209 419.5 196.945 419.5 Q201.575 419.5 204.005 416.398 Q206.459 413.273 206.806 406.931 Q205.463 408.922 203.403 409.986 Q201.343 411.051 198.843 411.051 Q193.658 411.051 190.625 407.926 Q187.616 404.778 187.616 399.338 Q187.616 394.014 190.764 390.797 Q193.913 387.579 199.144 387.579 Q205.139 387.579 208.287 392.186 Q211.459 396.769 211.459 405.519 Q211.459 413.69 207.57 418.574 Q203.704 423.435 197.153 423.435 Q195.394 423.435 193.588 423.088 Q191.783 422.741 189.838 422.047 M199.144 407.394 Q202.292 407.394 204.121 405.241 Q205.973 403.088 205.973 399.338 Q205.973 395.612 204.121 393.459 Q202.292 391.283 199.144 391.283 Q195.996 391.283 194.144 393.459 Q192.315 395.612 192.315 399.338 Q192.315 403.088 194.144 405.241 Q195.996 407.394 199.144 407.394 Z" fill="#000000" fill-rule="nonzero" fill-opacity="1" /><path clip-path="url(#clip830)" d="M114.931 173.601 L122.57 173.601 L122.57 147.236 L114.26 148.902 L114.26 144.643 L122.524 142.976 L127.2 142.976 L127.2 173.601 L134.839 173.601 L134.839 177.536 L114.931 177.536 L114.931 173.601 Z" fill="#000000" fill-rule="nonzero" fill-opacity="1" /><path clip-path="url(#clip830)" d="M154.283 146.055 Q150.672 146.055 148.843 149.62 Q147.038 153.161 147.038 160.291 Q147.038 167.397 148.843 170.962 Q150.672 174.504 154.283 174.504 Q157.917 174.504 159.723 170.962 Q161.552 167.397 161.552 160.291 Q161.552 153.161 159.723 149.62 Q157.917 146.055 154.283 146.055 M154.283 142.351 Q160.093 142.351 163.149 146.958 Q166.227 151.541 166.227 160.291 Q166.227 169.018 163.149 173.624 Q160.093 178.208 154.283 178.208 Q148.473 178.208 145.394 173.624 Q142.339 169.018 142.339 160.291 Q142.339 151.541 145.394 146.958 Q148.473 142.351 154.283 142.351 Z" fill="#000000" fill-rule="nonzero" fill-opacity="1" /><path clip-path="url(#clip830)" d="M174.445 171.657 L179.329 171.657 L179.329 177.536 L174.445 177.536 L174.445 171.657 Z" fill="#000000" fill-rule="nonzero" fill-opacity="1" /><path clip-path="url(#clip830)" d="M199.514 146.055 Q195.903 146.055 194.075 149.62 Q192.269 153.161 192.269 160.291 Q192.269 167.397 194.075 170.962 Q195.903 174.504 199.514 174.504 Q203.149 174.504 204.954 170.962 Q206.783 167.397 206.783 160.291 Q206.783 153.161 204.954 149.62 Q203.149 146.055 199.514 146.055 M199.514 142.351 Q205.324 142.351 208.38 146.958 Q211.459 151.541 211.459 160.291 Q211.459 169.018 208.38 173.624 Q205.324 178.208 199.514 178.208 Q193.704 178.208 190.625 173.624 Q187.57 169.018 187.57 160.291 Q187.57 151.541 190.625 146.958 Q193.704 142.351 199.514 142.351 Z" fill="#000000" fill-rule="nonzero" fill-opacity="1" /><path clip-path="url(#clip830)" d="M16.4842 1067.28 L16.4842 1039.97 L21.895 1039.97 L21.895 1060.85 L35.8996 1060.85 L35.8996 1042.01 L41.3104 1042.01 L41.3104 1060.85 L64.0042 1060.85 L64.0042 1067.28 L16.4842 1067.28 Z" fill="#000000" fill-rule="nonzero" fill-opacity="1" /><path clip-path="url(#clip830)" d="M28.3562 1034.78 L28.3562 1028.93 L64.0042 1028.93 L64.0042 1034.78 L28.3562 1034.78 M14.479 1034.78 L14.479 1028.93 L21.895 1028.93 L21.895 1034.78 L14.479 1034.78 Z" fill="#000000" fill-rule="nonzero" fill-opacity="1" /><path clip-path="url(#clip830)" d="M42.4881 987.039 L64.0042 987.039 L64.0042 992.895 L42.679 992.895 Q37.6183 992.895 35.1038 994.868 Q32.5894 996.842 32.5894 1000.79 Q32.5894 1005.53 35.6131 1008.27 Q38.6368 1011.01 43.8567 1011.01 L64.0042 1011.01 L64.0042 1016.89 L28.3562 1016.89 L28.3562 1011.01 L33.8944 1011.01 Q30.6797 1008.9 29.0883 1006.07 Q27.4968 1003.21 27.4968 999.484 Q27.4968 993.341 31.3163 990.19 Q35.1038 987.039 42.4881 987.039 Z" fill="#000000" fill-rule="nonzero" fill-opacity="1" /><path clip-path="url(#clip830)" d="M46.0847 959.157 Q46.0847 966.255 47.7079 968.992 Q49.3312 971.729 53.2461 971.729 Q56.3653 971.729 58.2114 969.692 Q60.0256 967.623 60.0256 964.09 Q60.0256 959.221 56.5881 956.292 Q53.1188 953.332 47.3897 953.332 L46.0847 953.332 L46.0847 959.157 M43.6657 947.476 L64.0042 947.476 L64.0042 953.332 L58.5933 953.332 Q61.8398 955.337 63.3994 958.329 Q64.9272 961.321 64.9272 965.65 Q64.9272 971.124 61.8716 974.371 Q58.7843 977.586 53.6281 977.586 Q47.6125 977.586 44.5569 973.575 Q41.5014 969.533 41.5014 961.544 L41.5014 953.332 L40.9285 953.332 Q36.8862 953.332 34.6901 956.006 Q32.4621 958.648 32.4621 963.454 Q32.4621 966.509 33.1941 969.406 Q33.9262 972.302 35.3903 974.976 L29.9795 974.976 Q28.7381 971.761 28.1334 968.737 Q27.4968 965.714 27.4968 962.849 Q27.4968 955.115 31.5072 951.295 Q35.5176 947.476 43.6657 947.476 Z" fill="#000000" fill-rule="nonzero" fill-opacity="1" /><path clip-path="url(#clip830)" d="M14.479 935.413 L14.479 929.556 L64.0042 929.556 L64.0042 935.413 L14.479 935.413 Z" fill="#000000" fill-rule="nonzero" fill-opacity="1" /><path clip-path="url(#clip830)" d="M16.4842 900.561 L16.4842 894.068 L56.6518 884.073 L16.4842 874.111 L16.4842 866.886 L56.6518 856.892 L16.4842 846.929 L16.4842 840.405 L64.0042 852.34 L64.0042 860.425 L22.7544 870.451 L64.0042 880.572 L64.0042 888.657 L16.4842 900.561 Z" fill="#000000" fill-rule="nonzero" fill-opacity="1" /><path clip-path="url(#clip830)" d="M44.7161 805.457 L47.5806 805.457 L47.5806 832.384 Q53.6281 832.002 56.8109 828.755 Q59.9619 825.477 59.9619 819.652 Q59.9619 816.279 59.1344 813.128 Q58.3069 809.945 56.6518 806.826 L62.1899 806.826 Q63.5267 809.977 64.227 813.287 Q64.9272 816.597 64.9272 820.003 Q64.9272 828.533 59.9619 833.53 Q54.9967 838.495 46.5303 838.495 Q37.7774 838.495 32.6531 833.784 Q27.4968 829.042 27.4968 821.021 Q27.4968 813.828 32.1438 809.658 Q36.7589 805.457 44.7161 805.457 M42.9973 811.313 Q38.1912 811.377 35.3266 814.019 Q32.4621 816.629 32.4621 820.957 Q32.4621 825.859 35.2312 828.819 Q38.0002 831.747 43.0292 832.193 L42.9973 811.313 Z" fill="#000000" fill-rule="nonzero" fill-opacity="1" /><path clip-path="url(#clip830)" d="M28.3562 795.845 L28.3562 789.988 L64.0042 789.988 L64.0042 795.845 L28.3562 795.845 M14.479 795.845 L14.479 789.988 L21.895 789.988 L21.895 795.845 L14.479 795.845 Z" fill="#000000" fill-rule="nonzero" fill-opacity="1" /><path clip-path="url(#clip830)" d="M45.7664 754.277 Q39.4007 754.277 35.8996 756.918 Q32.3984 759.528 32.3984 764.271 Q32.3984 768.981 35.8996 771.623 Q39.4007 774.233 45.7664 774.233 Q52.1003 774.233 55.6014 771.623 Q59.1026 768.981 59.1026 764.271 Q59.1026 759.528 55.6014 756.918 Q52.1003 754.277 45.7664 754.277 M59.58 748.42 Q68.683 748.42 73.1071 752.462 Q77.5631 756.505 77.5631 764.844 Q77.5631 767.931 77.0857 770.668 Q76.6401 773.406 75.6852 775.984 L69.9879 775.984 Q71.3884 773.406 72.0568 770.891 Q72.7252 768.377 72.7252 765.767 Q72.7252 760.006 69.7015 757.141 Q66.7096 754.277 60.6303 754.277 L57.7339 754.277 Q60.885 756.091 62.4446 758.924 Q64.0042 761.756 64.0042 765.703 Q64.0042 772.26 59.0071 776.27 Q54.01 780.281 45.7664 780.281 Q37.491 780.281 32.4939 776.27 Q27.4968 772.26 27.4968 765.703 Q27.4968 761.756 29.0564 758.924 Q30.616 756.091 33.7671 754.277 L28.3562 754.277 L28.3562 748.42 L59.58 748.42 Z" fill="#000000" fill-rule="nonzero" fill-opacity="1" /><path clip-path="url(#clip830)" d="M42.4881 706.725 L64.0042 706.725 L64.0042 712.581 L42.679 712.581 Q37.6183 712.581 35.1038 714.555 Q32.5894 716.528 32.5894 720.475 Q32.5894 725.217 35.6131 727.954 Q38.6368 730.692 43.8567 730.692 L64.0042 730.692 L64.0042 736.58 L14.479 736.58 L14.479 730.692 L33.8944 730.692 Q30.6797 728.591 29.0883 725.758 Q27.4968 722.894 27.4968 719.17 Q27.4968 713.027 31.3163 709.876 Q35.1038 706.725 42.4881 706.725 Z" fill="#000000" fill-rule="nonzero" fill-opacity="1" /><path clip-path="url(#clip830)" d="M18.2347 689.251 L28.3562 689.251 L28.3562 677.188 L32.9077 677.188 L32.9077 689.251 L52.2594 689.251 Q56.6199 689.251 57.8613 688.073 Q59.1026 686.864 59.1026 683.203 L59.1026 677.188 L64.0042 677.188 L64.0042 683.203 Q64.0042 689.983 61.4897 692.561 Q58.9434 695.139 52.2594 695.139 L32.9077 695.139 L32.9077 699.436 L28.3562 699.436 L28.3562 695.139 L18.2347 695.139 L18.2347 689.251 Z" fill="#000000" fill-rule="nonzero" fill-opacity="1" /><path clip-path="url(#clip830)" d="M64.0042 636.256 L16.4842 654.399 L16.4842 647.683 L56.4926 632.628 L16.4842 617.541 L16.4842 610.857 L64.0042 628.968 L64.0042 636.256 Z" fill="#000000" fill-rule="nonzero" fill-opacity="1" /><path clip-path="url(#clip830)" d="M46.0847 593.033 Q46.0847 600.131 47.7079 602.868 Q49.3312 605.606 53.2461 605.606 Q56.3653 605.606 58.2114 603.569 Q60.0256 601.5 60.0256 597.967 Q60.0256 593.097 56.5881 590.169 Q53.1188 587.209 47.3897 587.209 L46.0847 587.209 L46.0847 593.033 M43.6657 581.352 L64.0042 581.352 L64.0042 587.209 L58.5933 587.209 Q61.8398 589.214 63.3994 592.206 Q64.9272 595.198 64.9272 599.526 Q64.9272 605.001 61.8716 608.247 Q58.7843 611.462 53.6281 611.462 Q47.6125 611.462 44.5569 607.452 Q41.5014 603.409 41.5014 595.42 L41.5014 587.209 L40.9285 587.209 Q36.8862 587.209 34.6901 589.882 Q32.4621 592.524 32.4621 597.33 Q32.4621 600.386 33.1941 603.282 Q33.9262 606.178 35.3903 608.852 L29.9795 608.852 Q28.7381 605.637 28.1334 602.614 Q27.4968 599.59 27.4968 596.725 Q27.4968 588.991 31.5072 585.172 Q35.5176 581.352 43.6657 581.352 Z" fill="#000000" fill-rule="nonzero" fill-opacity="1" /><path clip-path="url(#clip830)" d="M14.479 569.289 L14.479 563.433 L64.0042 563.433 L64.0042 569.289 L14.479 569.289 Z" fill="#000000" fill-rule="nonzero" fill-opacity="1" /><path clip-path="url(#clip830)" d="M49.9359 551.783 L28.3562 551.783 L28.3562 545.927 L49.7131 545.927 Q54.7739 545.927 57.3202 543.954 Q59.8346 541.98 59.8346 538.034 Q59.8346 533.291 56.8109 530.554 Q53.7872 527.785 48.5673 527.785 L28.3562 527.785 L28.3562 521.928 L64.0042 521.928 L64.0042 527.785 L58.5296 527.785 Q61.7762 529.917 63.3676 532.75 Q64.9272 535.551 64.9272 539.275 Q64.9272 545.418 61.1078 548.601 Q57.2883 551.783 49.9359 551.783 M27.4968 537.047 L27.4968 537.047 Z" fill="#000000" fill-rule="nonzero" fill-opacity="1" /><path clip-path="url(#clip830)" d="M44.7161 479.374 L47.5806 479.374 L47.5806 506.301 Q53.6281 505.919 56.8109 502.672 Q59.9619 499.394 59.9619 493.569 Q59.9619 490.195 59.1344 487.044 Q58.3069 483.861 56.6518 480.742 L62.1899 480.742 Q63.5267 483.893 64.227 487.203 Q64.9272 490.514 64.9272 493.919 Q64.9272 502.449 59.9619 507.446 Q54.9967 512.412 46.5303 512.412 Q37.7774 512.412 32.6531 507.701 Q27.4968 502.959 27.4968 494.938 Q27.4968 487.744 32.1438 483.575 Q36.7589 479.374 44.7161 479.374 M42.9973 485.23 Q38.1912 485.294 35.3266 487.935 Q32.4621 490.545 32.4621 494.874 Q32.4621 499.776 35.2312 502.736 Q38.0002 505.664 43.0292 506.11 L42.9973 485.23 Z" fill="#000000" fill-rule="nonzero" fill-opacity="1" /><path clip-path="url(#clip830)" d="M501.31 44.2197 Q503.943 45.1109 506.414 48.0275 Q508.925 50.9442 511.437 56.0483 L519.741 72.576 L510.951 72.576 L503.213 57.061 Q500.216 50.9847 497.38 48.9997 Q494.585 47.0148 489.724 47.0148 L480.812 47.0148 L480.812 72.576 L472.629 72.576 L472.629 12.096 L491.101 12.096 Q501.472 12.096 506.576 16.4305 Q511.68 20.7649 511.68 29.5149 Q511.68 35.2267 509.006 38.994 Q506.373 42.7613 501.31 44.2197 M480.812 18.8205 L480.812 40.2903 L491.101 40.2903 Q497.016 40.2903 500.013 37.5762 Q503.051 34.8216 503.051 29.5149 Q503.051 24.2082 500.013 21.5346 Q497.016 18.8205 491.101 18.8205 L480.812 18.8205 Z" fill="#000000" fill-rule="nonzero" fill-opacity="1" /><path clip-path="url(#clip830)" d="M565.03 48.0275 L565.03 51.6733 L530.76 51.6733 Q531.246 59.3701 535.378 63.421 Q539.55 67.4314 546.963 67.4314 Q551.257 67.4314 555.268 66.3781 Q559.318 65.3249 563.288 63.2184 L563.288 70.267 Q559.278 71.9684 555.065 72.8596 Q550.852 73.7508 546.518 73.7508 Q535.661 73.7508 529.301 67.4314 Q522.982 61.1119 522.982 50.3365 Q522.982 39.1965 528.977 32.6746 Q535.013 26.1121 545.221 26.1121 Q554.376 26.1121 559.683 32.0264 Q565.03 37.9003 565.03 48.0275 M557.577 45.84 Q557.496 39.7232 554.133 36.0774 Q550.812 32.4315 545.302 32.4315 Q539.064 32.4315 535.297 35.9558 Q531.57 39.4801 531.003 45.8805 L557.577 45.84 Z" fill="#000000" fill-rule="nonzero" fill-opacity="1" /><path clip-path="url(#clip830)" d="M577.264 9.54393 L584.718 9.54393 L584.718 72.576 L577.264 72.576 L577.264 9.54393 Z" fill="#000000" fill-rule="nonzero" fill-opacity="1" /><path clip-path="url(#clip830)" d="M620.933 49.7694 Q611.899 49.7694 608.415 51.8354 Q604.932 53.9013 604.932 58.8839 Q604.932 62.8538 607.524 65.2034 Q610.157 67.5124 614.654 67.5124 Q620.852 67.5124 624.579 63.1374 Q628.346 58.7219 628.346 51.4303 L628.346 49.7694 L620.933 49.7694 M635.8 46.6907 L635.8 72.576 L628.346 72.576 L628.346 65.6895 Q625.794 69.8214 621.986 71.8063 Q618.178 73.7508 612.669 73.7508 Q605.701 73.7508 601.569 69.8619 Q597.478 65.9325 597.478 59.3701 Q597.478 51.7138 602.582 47.825 Q607.727 43.9361 617.895 43.9361 L628.346 43.9361 L628.346 43.2069 Q628.346 38.0623 624.943 35.2672 Q621.581 32.4315 615.464 32.4315 Q611.575 32.4315 607.889 33.3632 Q604.202 34.295 600.8 36.1584 L600.8 29.2718 Q604.891 27.692 608.739 26.9223 Q612.588 26.1121 616.234 26.1121 Q626.077 26.1121 630.938 31.2163 Q635.8 36.3204 635.8 46.6907 Z" fill="#000000" fill-rule="nonzero" fill-opacity="1" /><path clip-path="url(#clip830)" d="M688.866 27.2059 L672.46 49.2833 L689.717 72.576 L680.927 72.576 L667.721 54.752 L654.515 72.576 L645.724 72.576 L663.346 48.8377 L647.223 27.2059 L656.014 27.2059 L668.045 43.369 L680.076 27.2059 L688.866 27.2059 Z" fill="#000000" fill-rule="nonzero" fill-opacity="1" /><path clip-path="url(#clip830)" d="M736.505 48.0275 L736.505 51.6733 L702.234 51.6733 Q702.72 59.3701 706.852 63.421 Q711.025 67.4314 718.438 67.4314 Q722.732 67.4314 726.742 66.3781 Q730.793 65.3249 734.763 63.2184 L734.763 70.267 Q730.753 71.9684 726.54 72.8596 Q722.327 73.7508 717.992 73.7508 Q707.136 73.7508 700.776 67.4314 Q694.457 61.1119 694.457 50.3365 Q694.457 39.1965 700.452 32.6746 Q706.488 26.1121 716.696 26.1121 Q725.851 26.1121 731.158 32.0264 Q736.505 37.9003 736.505 48.0275 M729.051 45.84 Q728.97 39.7232 725.608 36.0774 Q722.286 32.4315 716.777 32.4315 Q710.539 32.4315 706.771 35.9558 Q703.045 39.4801 702.477 45.8805 L729.051 45.84 Z" fill="#000000" fill-rule="nonzero" fill-opacity="1" /><path clip-path="url(#clip830)" d="M778.594 34.0924 L778.594 9.54393 L786.048 9.54393 L786.048 72.576 L778.594 72.576 L778.594 65.7705 Q776.244 69.8214 772.639 71.8063 Q769.074 73.7508 764.051 73.7508 Q755.828 73.7508 750.643 67.1883 Q745.498 60.6258 745.498 49.9314 Q745.498 39.2371 750.643 32.6746 Q755.828 26.1121 764.051 26.1121 Q769.074 26.1121 772.639 28.0971 Q776.244 30.0415 778.594 34.0924 M753.195 49.9314 Q753.195 58.1548 756.557 62.8538 Q759.96 67.5124 765.874 67.5124 Q771.788 67.5124 775.191 62.8538 Q778.594 58.1548 778.594 49.9314 Q778.594 41.7081 775.191 37.0496 Q771.788 32.3505 765.874 32.3505 Q759.96 32.3505 756.557 37.0496 Q753.195 41.7081 753.195 49.9314 Z" fill="#000000" fill-rule="nonzero" fill-opacity="1" /><path clip-path="url(#clip830)" d="M836.279 18.8205 L836.279 41.5461 L846.568 41.5461 Q852.28 41.5461 855.399 38.5889 Q858.518 35.6318 858.518 30.163 Q858.518 24.7348 855.399 21.7777 Q852.28 18.8205 846.568 18.8205 L836.279 18.8205 M828.096 12.096 L846.568 12.096 Q856.736 12.096 861.921 16.714 Q867.147 21.2916 867.147 30.163 Q867.147 39.1155 861.921 43.6931 Q856.736 48.2706 846.568 48.2706 L836.279 48.2706 L836.279 72.576 L828.096 72.576 L828.096 12.096 Z" fill="#000000" fill-rule="nonzero" fill-opacity="1" /><path clip-path="url(#clip830)" d="M893.032 20.1573 L881.932 50.2555 L904.172 50.2555 L893.032 20.1573 M888.414 12.096 L897.69 12.096 L920.74 72.576 L912.233 72.576 L906.724 57.061 L879.461 57.061 L873.952 72.576 L865.324 72.576 L888.414 12.096 Z" fill="#000000" fill-rule="nonzero" fill-opacity="1" /><path clip-path="url(#clip830)" d="M937.754 18.8205 L937.754 65.8515 L947.638 65.8515 Q960.155 65.8515 965.948 60.1802 Q971.782 54.509 971.782 42.2752 Q971.782 30.1225 965.948 24.4918 Q960.155 18.8205 947.638 18.8205 L937.754 18.8205 M929.571 12.096 L946.382 12.096 Q963.963 12.096 972.187 19.4281 Q980.41 26.7198 980.41 42.2752 Q980.41 57.9117 972.146 65.2439 Q963.882 72.576 946.382 72.576 L929.571 72.576 L929.571 12.096 Z" fill="#000000" fill-rule="nonzero" fill-opacity="1" /><path clip-path="url(#clip830)" d="M1001.64 18.8205 L1001.64 41.5461 L1011.93 41.5461 Q1017.64 41.5461 1020.76 38.5889 Q1023.88 35.6318 1023.88 30.163 Q1023.88 24.7348 1020.76 21.7777 Q1017.64 18.8205 1011.93 18.8205 L1001.64 18.8205 M993.454 12.096 L1011.93 12.096 Q1022.09 12.096 1027.28 16.714 Q1032.5 21.2916 1032.5 30.163 Q1032.5 39.1155 1027.28 43.6931 Q1022.09 48.2706 1011.93 48.2706 L1001.64 48.2706 L1001.64 72.576 L993.454 72.576 L993.454 12.096 Z" fill="#000000" fill-rule="nonzero" fill-opacity="1" /><path clip-path="url(#clip830)" d="M1069.85 12.096 L1104.61 12.096 L1104.61 18.9825 L1078.04 18.9825 L1078.04 36.8065 L1102.02 36.8065 L1102.02 43.6931 L1078.04 43.6931 L1078.04 72.576 L1069.85 72.576 L1069.85 12.096 Z" fill="#000000" fill-rule="nonzero" fill-opacity="1" /><path clip-path="url(#clip830)" d="M1111.21 27.2059 L1118.67 27.2059 L1118.67 72.576 L1111.21 72.576 L1111.21 27.2059 M1111.21 9.54393 L1118.67 9.54393 L1118.67 18.9825 L1111.21 18.9825 L1111.21 9.54393 Z" fill="#000000" fill-rule="nonzero" fill-opacity="1" /><path clip-path="url(#clip830)" d="M1171.98 45.1919 L1171.98 72.576 L1164.52 72.576 L1164.52 45.4349 Q1164.52 38.994 1162.01 35.7938 Q1159.5 32.5936 1154.48 32.5936 Q1148.44 32.5936 1144.96 36.4419 Q1141.47 40.2903 1141.47 46.9338 L1141.47 72.576 L1133.98 72.576 L1133.98 27.2059 L1141.47 27.2059 L1141.47 34.2544 Q1144.15 30.163 1147.75 28.1376 Q1151.4 26.1121 1156.14 26.1121 Q1163.96 26.1121 1167.97 30.9732 Q1171.98 35.7938 1171.98 45.1919 Z" fill="#000000" fill-rule="nonzero" fill-opacity="1" /><path clip-path="url(#clip830)" d="M1207.46 49.7694 Q1198.43 49.7694 1194.95 51.8354 Q1191.46 53.9013 1191.46 58.8839 Q1191.46 62.8538 1194.05 65.2034 Q1196.69 67.5124 1201.18 67.5124 Q1207.38 67.5124 1211.11 63.1374 Q1214.88 58.7219 1214.88 51.4303 L1214.88 49.7694 L1207.46 49.7694 M1222.33 46.6907 L1222.33 72.576 L1214.88 72.576 L1214.88 65.6895 Q1212.32 69.8214 1208.52 71.8063 Q1204.71 73.7508 1199.2 73.7508 Q1192.23 73.7508 1188.1 69.8619 Q1184.01 65.9325 1184.01 59.3701 Q1184.01 51.7138 1189.11 47.825 Q1194.26 43.9361 1204.42 43.9361 L1214.88 43.9361 L1214.88 43.2069 Q1214.88 38.0623 1211.47 35.2672 Q1208.11 32.4315 1201.99 32.4315 Q1198.11 32.4315 1194.42 33.3632 Q1190.73 34.295 1187.33 36.1584 L1187.33 29.2718 Q1191.42 27.692 1195.27 26.9223 Q1199.12 26.1121 1202.76 26.1121 Q1212.61 26.1121 1217.47 31.2163 Q1222.33 36.3204 1222.33 46.6907 Z" fill="#000000" fill-rule="nonzero" fill-opacity="1" /><path clip-path="url(#clip830)" d="M1237.68 9.54393 L1245.14 9.54393 L1245.14 72.576 L1237.68 72.576 L1237.68 9.54393 Z" fill="#000000" fill-rule="nonzero" fill-opacity="1" /><path clip-path="url(#clip830)" d="M1282.04 12.096 L1290.3 12.096 L1303.02 63.2184 L1315.7 12.096 L1324.9 12.096 L1337.62 63.2184 L1350.3 12.096 L1358.6 12.096 L1343.41 72.576 L1333.12 72.576 L1320.36 20.0763 L1307.48 72.576 L1297.19 72.576 L1282.04 12.096 Z" fill="#000000" fill-rule="nonzero" fill-opacity="1" /><path clip-path="url(#clip830)" d="M1403.08 48.0275 L1403.08 51.6733 L1368.81 51.6733 Q1369.3 59.3701 1373.43 63.421 Q1377.6 67.4314 1385.01 67.4314 Q1389.31 67.4314 1393.32 66.3781 Q1397.37 65.3249 1401.34 63.2184 L1401.34 70.267 Q1397.33 71.9684 1393.12 72.8596 Q1388.9 73.7508 1384.57 73.7508 Q1373.71 73.7508 1367.35 67.4314 Q1361.03 61.1119 1361.03 50.3365 Q1361.03 39.1965 1367.03 32.6746 Q1373.06 26.1121 1383.27 26.1121 Q1392.43 26.1121 1397.73 32.0264 Q1403.08 37.9003 1403.08 48.0275 M1395.63 45.84 Q1395.55 39.7232 1392.18 36.0774 Q1388.86 32.4315 1383.35 32.4315 Q1377.11 32.4315 1373.35 35.9558 Q1369.62 39.4801 1369.05 45.8805 L1395.63 45.84 Z" fill="#000000" fill-rule="nonzero" fill-opacity="1" /><path clip-path="url(#clip830)" d="M1415.32 27.2059 L1422.77 27.2059 L1422.77 72.576 L1415.32 72.576 L1415.32 27.2059 M1415.32 9.54393 L1422.77 9.54393 L1422.77 18.9825 L1415.32 18.9825 L1415.32 9.54393 Z" fill="#000000" fill-rule="nonzero" fill-opacity="1" /><path clip-path="url(#clip830)" d="M1468.22 49.3643 Q1468.22 41.2625 1464.86 36.8065 Q1461.54 32.3505 1455.5 32.3505 Q1449.5 32.3505 1446.14 36.8065 Q1442.82 41.2625 1442.82 49.3643 Q1442.82 57.4256 1446.14 61.8816 Q1449.5 66.3376 1455.5 66.3376 Q1461.54 66.3376 1464.86 61.8816 Q1468.22 57.4256 1468.22 49.3643 M1475.67 66.9452 Q1475.67 78.5308 1470.53 84.1616 Q1465.38 89.8329 1454.77 89.8329 Q1450.84 89.8329 1447.36 89.2252 Q1443.87 88.6581 1440.59 87.4428 L1440.59 80.1917 Q1443.87 81.9741 1447.07 82.8248 Q1450.27 83.6755 1453.6 83.6755 Q1460.93 83.6755 1464.57 79.8271 Q1468.22 76.0193 1468.22 68.282 L1468.22 64.5957 Q1465.91 68.6061 1462.31 70.5911 Q1458.7 72.576 1453.68 72.576 Q1445.33 72.576 1440.23 66.2161 Q1435.12 59.8562 1435.12 49.3643 Q1435.12 38.832 1440.23 32.472 Q1445.33 26.1121 1453.68 26.1121 Q1458.7 26.1121 1462.31 28.0971 Q1465.91 30.082 1468.22 34.0924 L1468.22 27.2059 L1475.67 27.2059 L1475.67 66.9452 Z" fill="#000000" fill-rule="nonzero" fill-opacity="1" /><path clip-path="url(#clip830)" d="M1528.74 45.1919 L1528.74 72.576 L1521.29 72.576 L1521.29 45.4349 Q1521.29 38.994 1518.78 35.7938 Q1516.26 32.5936 1511.24 32.5936 Q1505.2 32.5936 1501.72 36.4419 Q1498.24 40.2903 1498.24 46.9338 L1498.24 72.576 L1490.74 72.576 L1490.74 9.54393 L1498.24 9.54393 L1498.24 34.2544 Q1500.91 30.163 1504.52 28.1376 Q1508.16 26.1121 1512.9 26.1121 Q1520.72 26.1121 1524.73 30.9732 Q1528.74 35.7938 1528.74 45.1919 Z" fill="#000000" fill-rule="nonzero" fill-opacity="1" /><path clip-path="url(#clip830)" d="M1550.98 14.324 L1550.98 27.2059 L1566.33 27.2059 L1566.33 32.9987 L1550.98 32.9987 L1550.98 57.6282 Q1550.98 63.1779 1552.48 64.7578 Q1554.02 66.3376 1558.68 66.3376 L1566.33 66.3376 L1566.33 72.576 L1558.68 72.576 Q1550.05 72.576 1546.77 69.3758 Q1543.49 66.1351 1543.49 57.6282 L1543.49 32.9987 L1538.02 32.9987 L1538.02 27.2059 L1543.49 27.2059 L1543.49 14.324 L1550.98 14.324 Z" fill="#000000" fill-rule="nonzero" fill-opacity="1" /><path clip-path="url(#clip830)" d="M1605.06 28.5427 L1605.06 35.5912 Q1601.9 33.9709 1598.5 33.1607 Q1595.09 32.3505 1591.45 32.3505 Q1585.9 32.3505 1583.1 34.0519 Q1580.35 35.7533 1580.35 39.156 Q1580.35 41.7486 1582.33 43.2475 Q1584.32 44.7058 1590.31 46.0426 L1592.87 46.6097 Q1600.81 48.3111 1604.13 51.4303 Q1607.49 54.509 1607.49 60.0587 Q1607.49 66.3781 1602.47 70.0644 Q1597.48 73.7508 1588.73 73.7508 Q1585.09 73.7508 1581.12 73.0216 Q1577.19 72.3329 1572.81 70.9151 L1572.81 63.2184 Q1576.95 65.3654 1580.96 66.4591 Q1584.97 67.5124 1588.9 67.5124 Q1594.16 67.5124 1597 65.73 Q1599.83 63.9071 1599.83 60.6258 Q1599.83 57.5877 1597.77 55.9673 Q1595.74 54.3469 1588.82 52.8481 L1586.22 52.2405 Q1579.3 50.7821 1576.22 47.7845 Q1573.14 44.7463 1573.14 39.4801 Q1573.14 33.0797 1577.68 29.5959 Q1582.21 26.1121 1590.56 26.1121 Q1594.69 26.1121 1598.33 26.7198 Q1601.98 27.3274 1605.06 28.5427 Z" fill="#000000" fill-rule="nonzero" fill-opacity="1" /><path clip-path="url(#clip830)" d="M1691.34 16.7545 L1691.34 25.383 Q1687.21 21.5346 1682.51 19.6307 Q1677.85 17.7268 1672.59 17.7268 Q1662.22 17.7268 1656.71 24.0867 Q1651.2 30.4061 1651.2 42.3968 Q1651.2 54.3469 1656.71 60.7069 Q1662.22 67.0263 1672.59 67.0263 Q1677.85 67.0263 1682.51 65.1223 Q1687.21 63.2184 1691.34 59.3701 L1691.34 67.9175 Q1687.05 70.8341 1682.23 72.2924 Q1677.45 73.7508 1672.1 73.7508 Q1658.37 73.7508 1650.47 65.3654 Q1642.57 56.9395 1642.57 42.3968 Q1642.57 27.8135 1650.47 19.4281 Q1658.37 11.0023 1672.1 11.0023 Q1677.53 11.0023 1682.31 12.4606 Q1687.13 13.8784 1691.34 16.7545 Z" fill="#000000" fill-rule="nonzero" fill-opacity="1" /><path clip-path="url(#clip830)" d="M1721.24 32.4315 Q1715.24 32.4315 1711.76 37.1306 Q1708.28 41.7891 1708.28 49.9314 Q1708.28 58.0738 1711.72 62.7728 Q1715.2 67.4314 1721.24 67.4314 Q1727.19 67.4314 1730.68 62.7323 Q1734.16 58.0333 1734.16 49.9314 Q1734.16 41.8701 1730.68 37.1711 Q1727.19 32.4315 1721.24 32.4315 M1721.24 26.1121 Q1730.96 26.1121 1736.51 32.4315 Q1742.06 38.7509 1742.06 49.9314 Q1742.06 61.0714 1736.51 67.4314 Q1730.96 73.7508 1721.24 73.7508 Q1711.48 73.7508 1705.93 67.4314 Q1700.42 61.0714 1700.42 49.9314 Q1700.42 38.7509 1705.93 32.4315 Q1711.48 26.1121 1721.24 26.1121 Z" fill="#000000" fill-rule="nonzero" fill-opacity="1" /><path clip-path="url(#clip830)" d="M1789.74 35.9153 Q1792.54 30.8922 1796.42 28.5022 Q1800.31 26.1121 1805.58 26.1121 Q1812.67 26.1121 1816.52 31.0947 Q1820.36 36.0368 1820.36 45.1919 L1820.36 72.576 L1812.87 72.576 L1812.87 45.4349 Q1812.87 38.913 1810.56 35.7533 Q1808.25 32.5936 1803.51 32.5936 Q1797.72 32.5936 1794.36 36.4419 Q1791 40.2903 1791 46.9338 L1791 72.576 L1783.5 72.576 L1783.5 45.4349 Q1783.5 38.8725 1781.19 35.7533 Q1778.88 32.5936 1774.06 32.5936 Q1768.35 32.5936 1764.99 36.4824 Q1761.63 40.3308 1761.63 46.9338 L1761.63 72.576 L1754.13 72.576 L1754.13 27.2059 L1761.63 27.2059 L1761.63 34.2544 Q1764.18 30.082 1767.74 28.0971 Q1771.31 26.1121 1776.21 26.1121 Q1781.15 26.1121 1784.6 28.6237 Q1788.08 31.1352 1789.74 35.9153 Z" fill="#000000" fill-rule="nonzero" fill-opacity="1" /><path clip-path="url(#clip830)" d="M1842.44 65.7705 L1842.44 89.8329 L1834.95 89.8329 L1834.95 27.2059 L1842.44 27.2059 L1842.44 34.0924 Q1844.79 30.0415 1848.36 28.0971 Q1851.96 26.1121 1856.94 26.1121 Q1865.21 26.1121 1870.35 32.6746 Q1875.54 39.2371 1875.54 49.9314 Q1875.54 60.6258 1870.35 67.1883 Q1865.21 73.7508 1856.94 73.7508 Q1851.96 73.7508 1848.36 71.8063 Q1844.79 69.8214 1842.44 65.7705 M1867.8 49.9314 Q1867.8 41.7081 1864.4 37.0496 Q1861.04 32.3505 1855.12 32.3505 Q1849.21 32.3505 1845.8 37.0496 Q1842.44 41.7081 1842.44 49.9314 Q1842.44 58.1548 1845.8 62.8538 Q1849.21 67.5124 1855.12 67.5124 Q1861.04 67.5124 1864.4 62.8538 Q1867.8 58.1548 1867.8 49.9314 Z" fill="#000000" fill-rule="nonzero" fill-opacity="1" /><path clip-path="url(#clip830)" d="M1908.51 49.7694 Q1899.48 49.7694 1896 51.8354 Q1892.51 53.9013 1892.51 58.8839 Q1892.51 62.8538 1895.1 65.2034 Q1897.74 67.5124 1902.23 67.5124 Q1908.43 67.5124 1912.16 63.1374 Q1915.93 58.7219 1915.93 51.4303 L1915.93 49.7694 L1908.51 49.7694 M1923.38 46.6907 L1923.38 72.576 L1915.93 72.576 L1915.93 65.6895 Q1913.37 69.8214 1909.57 71.8063 Q1905.76 73.7508 1900.25 73.7508 Q1893.28 73.7508 1889.15 69.8619 Q1885.06 65.9325 1885.06 59.3701 Q1885.06 51.7138 1890.16 47.825 Q1895.31 43.9361 1905.47 43.9361 L1915.93 43.9361 L1915.93 43.2069 Q1915.93 38.0623 1912.52 35.2672 Q1909.16 32.4315 1903.04 32.4315 Q1899.16 32.4315 1895.47 33.3632 Q1891.78 34.295 1888.38 36.1584 L1888.38 29.2718 Q1892.47 27.692 1896.32 26.9223 Q1900.17 26.1121 1903.81 26.1121 Q1913.66 26.1121 1918.52 31.2163 Q1923.38 36.3204 1923.38 46.6907 Z" fill="#000000" fill-rule="nonzero" fill-opacity="1" /><path clip-path="url(#clip830)" d="M1965.02 34.1734 Q1963.77 33.4443 1962.27 33.1202 Q1960.81 32.7556 1959.03 32.7556 Q1952.71 32.7556 1949.31 36.8875 Q1945.94 40.9789 1945.94 48.6757 L1945.94 72.576 L1938.45 72.576 L1938.45 27.2059 L1945.94 27.2059 L1945.94 34.2544 Q1948.29 30.1225 1952.06 28.1376 Q1955.83 26.1121 1961.21 26.1121 Q1961.98 26.1121 1962.92 26.2337 Q1963.85 26.3147 1964.98 26.5172 L1965.02 34.1734 Z" fill="#000000" fill-rule="nonzero" fill-opacity="1" /><path clip-path="url(#clip830)" d="M1972.84 27.2059 L1980.29 27.2059 L1980.29 72.576 L1972.84 72.576 L1972.84 27.2059 M1972.84 9.54393 L1980.29 9.54393 L1980.29 18.9825 L1972.84 18.9825 L1972.84 9.54393 Z" fill="#000000" fill-rule="nonzero" fill-opacity="1" /><path clip-path="url(#clip830)" d="M2024.81 28.5427 L2024.81 35.5912 Q2021.65 33.9709 2018.25 33.1607 Q2014.85 32.3505 2011.2 32.3505 Q2005.65 32.3505 2002.86 34.0519 Q2000.1 35.7533 2000.1 39.156 Q2000.1 41.7486 2002.09 43.2475 Q2004.07 44.7058 2010.07 46.0426 L2012.62 46.6097 Q2020.56 48.3111 2023.88 51.4303 Q2027.24 54.509 2027.24 60.0587 Q2027.24 66.3781 2022.22 70.0644 Q2017.24 73.7508 2008.49 73.7508 Q2004.84 73.7508 2000.87 73.0216 Q1996.94 72.3329 1992.57 70.9151 L1992.57 63.2184 Q1996.7 65.3654 2000.71 66.4591 Q2004.72 67.5124 2008.65 67.5124 Q2013.92 67.5124 2016.75 65.73 Q2019.59 63.9071 2019.59 60.6258 Q2019.59 57.5877 2017.52 55.9673 Q2015.5 54.3469 2008.57 52.8481 L2005.98 52.2405 Q1999.05 50.7821 1995.97 47.7845 Q1992.89 44.7463 1992.89 39.4801 Q1992.89 33.0797 1997.43 29.5959 Q2001.97 26.1121 2010.31 26.1121 Q2014.44 26.1121 2018.09 26.7198 Q2021.74 27.3274 2024.81 28.5427 Z" fill="#000000" fill-rule="nonzero" fill-opacity="1" /><path clip-path="url(#clip830)" d="M2056.69 32.4315 Q2050.7 32.4315 2047.22 37.1306 Q2043.73 41.7891 2043.73 49.9314 Q2043.73 58.0738 2047.18 62.7728 Q2050.66 67.4314 2056.69 67.4314 Q2062.65 67.4314 2066.13 62.7323 Q2069.62 58.0333 2069.62 49.9314 Q2069.62 41.8701 2066.13 37.1711 Q2062.65 32.4315 2056.69 32.4315 M2056.69 26.1121 Q2066.42 26.1121 2071.97 32.4315 Q2077.52 38.7509 2077.52 49.9314 Q2077.52 61.0714 2071.97 67.4314 Q2066.42 73.7508 2056.69 73.7508 Q2046.93 73.7508 2041.38 67.4314 Q2035.87 61.0714 2035.87 49.9314 Q2035.87 38.7509 2041.38 32.4315 Q2046.93 26.1121 2056.69 26.1121 Z" fill="#000000" fill-rule="nonzero" fill-opacity="1" /><path clip-path="url(#clip830)" d="M2127.59 45.1919 L2127.59 72.576 L2120.13 72.576 L2120.13 45.4349 Q2120.13 38.994 2117.62 35.7938 Q2115.11 32.5936 2110.09 32.5936 Q2104.05 32.5936 2100.57 36.4419 Q2097.08 40.2903 2097.08 46.9338 L2097.08 72.576 L2089.59 72.576 L2089.59 27.2059 L2097.08 27.2059 L2097.08 34.2544 Q2099.76 30.163 2103.36 28.1376 Q2107.01 26.1121 2111.75 26.1121 Q2119.56 26.1121 2123.58 30.9732 Q2127.59 35.7938 2127.59 45.1919 Z" fill="#000000" fill-rule="nonzero" fill-opacity="1" /><polyline clip-path="url(#clip832)" style="stroke:#009af9; stroke-linecap:round; stroke-linejoin:round; stroke-width:4; stroke-opacity:1; fill:none" points="307.043,1386.4 448.909,1386.4 590.775,1386.4 732.642,160.256 874.508,160.256 1016.37,1386.4 1158.24,1386.4 1300.11,160.256 1441.97,160.256 1583.84,160.256 1725.71,160.256 1867.57,773.846 2009.44,1386.4 2151.31,1386.4 2293.17,1386.4 "/>
<path clip-path="url(#clip830)" d="M1933.12 270.476 L2282.58 270.476 L2282.58 166.796 L1933.12 166.796  Z" fill="#ffffff" fill-rule="evenodd" fill-opacity="1"/>
<polyline clip-path="url(#clip830)" style="stroke:#000000; stroke-linecap:round; stroke-linejoin:round; stroke-width:4; stroke-opacity:1; fill:none" points="1933.12,270.476 2282.58,270.476 2282.58,166.796 1933.12,166.796 1933.12,270.476 "/>
<polyline clip-path="url(#clip830)" style="stroke:#009af9; stroke-linecap:round; stroke-linejoin:round; stroke-width:4; stroke-opacity:1; fill:none" points="1956.51,218.636 2096.86,218.636 "/>
<path clip-path="url(#clip830)" d="M2124.54 232.027 L2124.54 245.777 L2120.25 245.777 L2120.25 209.99 L2124.54 209.99 L2124.54 213.925 Q2125.88 211.61 2127.91 210.499 Q2129.97 209.365 2132.82 209.365 Q2137.54 209.365 2140.48 213.115 Q2143.45 216.865 2143.45 222.976 Q2143.45 229.087 2140.48 232.837 Q2137.54 236.587 2132.82 236.587 Q2129.97 236.587 2127.91 235.476 Q2125.88 234.342 2124.54 232.027 M2139.03 222.976 Q2139.03 218.277 2137.08 215.615 Q2135.16 212.93 2131.78 212.93 Q2128.4 212.93 2126.46 215.615 Q2124.54 218.277 2124.54 222.976 Q2124.54 227.675 2126.46 230.36 Q2128.4 233.022 2131.78 233.022 Q2135.16 233.022 2137.08 230.36 Q2139.03 227.675 2139.03 222.976 Z" fill="#000000" fill-rule="nonzero" fill-opacity="1" /><path clip-path="url(#clip830)" d="M2162.29 222.883 Q2157.13 222.883 2155.14 224.064 Q2153.15 225.244 2153.15 228.092 Q2153.15 230.36 2154.63 231.703 Q2156.13 233.022 2158.7 233.022 Q2162.24 233.022 2164.37 230.522 Q2166.53 227.999 2166.53 223.832 L2166.53 222.883 L2162.29 222.883 M2170.78 221.124 L2170.78 235.916 L2166.53 235.916 L2166.53 231.981 Q2165.07 234.342 2162.89 235.476 Q2160.72 236.587 2157.57 236.587 Q2153.59 236.587 2151.22 234.365 Q2148.89 232.119 2148.89 228.369 Q2148.89 223.994 2151.8 221.772 Q2154.74 219.55 2160.55 219.55 L2166.53 219.55 L2166.53 219.133 Q2166.53 216.194 2164.58 214.596 Q2162.66 212.976 2159.16 212.976 Q2156.94 212.976 2154.84 213.508 Q2152.73 214.041 2150.78 215.106 L2150.78 211.17 Q2153.12 210.268 2155.32 209.828 Q2157.52 209.365 2159.6 209.365 Q2165.23 209.365 2168.01 212.282 Q2170.78 215.198 2170.78 221.124 Z" fill="#000000" fill-rule="nonzero" fill-opacity="1" /><path clip-path="url(#clip830)" d="M2179.56 199.897 L2183.82 199.897 L2183.82 235.916 L2179.56 235.916 L2179.56 199.897 Z" fill="#000000" fill-rule="nonzero" fill-opacity="1" /><path clip-path="url(#clip830)" d="M2212.91 214.967 Q2214.51 212.096 2216.73 210.731 Q2218.96 209.365 2221.97 209.365 Q2226.02 209.365 2228.22 212.212 Q2230.41 215.036 2230.41 220.268 L2230.41 235.916 L2226.13 235.916 L2226.13 220.407 Q2226.13 216.68 2224.81 214.874 Q2223.49 213.069 2220.78 213.069 Q2217.47 213.069 2215.55 215.268 Q2213.63 217.467 2213.63 221.263 L2213.63 235.916 L2209.35 235.916 L2209.35 220.407 Q2209.35 216.657 2208.03 214.874 Q2206.71 213.069 2203.96 213.069 Q2200.69 213.069 2198.77 215.291 Q2196.85 217.49 2196.85 221.263 L2196.85 235.916 L2192.57 235.916 L2192.57 209.99 L2196.85 209.99 L2196.85 214.018 Q2198.31 211.633 2200.34 210.499 Q2202.38 209.365 2205.18 209.365 Q2208.01 209.365 2209.97 210.8 Q2211.97 212.235 2212.91 214.967 Z" fill="#000000" fill-rule="nonzero" fill-opacity="1" /><path clip-path="url(#clip830)" d="M2250.69 222.883 Q2245.53 222.883 2243.54 224.064 Q2241.55 225.244 2241.55 228.092 Q2241.55 230.36 2243.03 231.703 Q2244.53 233.022 2247.1 233.022 Q2250.65 233.022 2252.78 230.522 Q2254.93 227.999 2254.93 223.832 L2254.93 222.883 L2250.69 222.883 M2259.19 221.124 L2259.19 235.916 L2254.93 235.916 L2254.93 231.981 Q2253.47 234.342 2251.29 235.476 Q2249.12 236.587 2245.97 236.587 Q2241.99 236.587 2239.63 234.365 Q2237.29 232.119 2237.29 228.369 Q2237.29 223.994 2240.21 221.772 Q2243.15 219.55 2248.96 219.55 L2254.93 219.55 L2254.93 219.133 Q2254.93 216.194 2252.98 214.596 Q2251.06 212.976 2247.57 212.976 Q2245.34 212.976 2243.24 213.508 Q2241.13 214.041 2239.19 215.106 L2239.19 211.17 Q2241.53 210.268 2243.72 209.828 Q2245.92 209.365 2248.01 209.365 Q2253.63 209.365 2256.41 212.282 Q2259.19 215.198 2259.19 221.124 Z" fill="#000000" fill-rule="nonzero" fill-opacity="1" /></svg>
