<?xml version="1.0" encoding="UTF-8"?>
<svg xmlns="http://www.w3.org/2000/svg"
     xmlns:xlink="http://www.w3.org/1999/xlink"
     version="1.2"
     width="180mm" height="120mm" viewBox="0 0 180 120"
     stroke="none"
     fill="#000000"
     stroke-width="0.3"
     font-size="3.88"
>
<defs>
  <marker id="arrow" markerWidth="15" markerHeight="7" refX="5" refY="3.5" orient="auto" markerUnits="strokeWidth">
    <path d="M0,0 L15,3.5 L0,7 z" stroke="context-stroke" fill="context-stroke"/>
  </marker>
</defs>
<g stroke-width="0.3" stroke="#808080" fill="#FFFFFF" id="img-5713e41c-1">
  <g transform="translate(155.7,36.48)">
    <path d="M-23.4,-29.88 L23.4,-29.88 23.4,29.88 -23.4,29.88  z" class="primitive"/>
  </g>
</g>
<g stroke-dasharray="3,2" stroke-width="1.42" stroke="#4682B4" id="img-5713e41c-2">
  <g transform="translate(13.68,45.6)">
    <path fill="none" d="M0,-19.2 L0,19.2 " class="primitive"/>
  </g>
</g>
<g stroke-dasharray="3,2" stroke-width="1.42" stroke="#4682B4" id="img-5713e41c-3">
  <g transform="translate(119.52,45.6)">
    <path fill="none" d="M0,-19.2 L0,19.2 " class="primitive"/>
  </g>
</g>
<g stroke-dasharray="3,2" stroke-width="1.42" stroke="#4682B4" id="img-5713e41c-4">
  <g transform="translate(80.46,26.4)">
    <path fill="none" d="M-13.86,0 L13.86,0 " class="primitive"/>
  </g>
</g>
<g stroke-dasharray="3,2" stroke-width="1.42" stroke="#4682B4" id="img-5713e41c-5">
  <g transform="translate(52.74,26.4)">
    <path fill="none" d="M13.86,0 L-13.86,0 " class="primitive"/>
  </g>
</g>
<g stroke-dasharray="3,2" stroke-width="1.42" stroke="#4682B4" id="img-5713e41c-6">
  <g transform="translate(80.46,64.8)">
    <path fill="none" d="M-13.86,0 L13.86,0 " class="primitive"/>
  </g>
</g>
<g stroke-dasharray="3,2" stroke-width="1.42" stroke="#4682B4" id="img-5713e41c-7">
  <g transform="translate(66.6,55.2)">
    <path fill="none" d="M0,-9.6 L0,9.6 " class="primitive"/>
  </g>
</g>
<g stroke-width="1.42" stroke="#008B8B" id="img-5713e41c-8">
  <g transform="translate(47.7,64.8)">
    <path fill="none" d="M18.9,0 L-18.9,0 " class="primitive"/>
  </g>
</g>
<g stroke-width="1.42" stroke="#008B8B" id="img-5713e41c-9">
  <g transform="translate(66.6,16.8)">
    <path fill="none" d="M0,-9.6 L0,9.6 " class="primitive"/>
  </g>
</g>
<g stroke-width="1.42" stroke="#008B8B" id="img-5713e41c-10">
  <g transform="translate(106.92,64.8)">
    <path fill="none" d="M-12.6,0 L12.6,0 " class="primitive"/>
  </g>
</g>
<g stroke-width="1.42" stroke="#008B8B" id="img-5713e41c-11">
  <g transform="translate(28.8,75.6)">
    <path fill="none" d="M0,-10.8 L0,10.8 " class="primitive"/>
  </g>
</g>
<g stroke-width="1.42" stroke="#008B8B" id="img-5713e41c-12">
  <g transform="translate(26.28,26.4)">
    <path fill="none" d="M12.6,0 L-12.6,0 " class="primitive"/>
  </g>
</g>
<g stroke-width="1.42" stroke="#008B8B" id="img-5713e41c-13">
  <g transform="translate(106.92,26.4)">
    <path fill="none" d="M-12.6,0 L12.6,0 " class="primitive"/>
  </g>
</g>
<g stroke-width="1.42" stroke="#008B8B" id="img-5713e41c-14">
  <g transform="translate(21.24,64.8)">
    <path fill="none" d="M7.56,0 L-7.56,0 " class="primitive"/>
  </g>
</g>
<g stroke-width="1.42" stroke="#008B8B" id="img-5713e41c-15">
  <g transform="translate(66.6,36)">
    <path fill="none" d="M0,-9.6 L0,9.6 " class="primitive"/>
  </g>
</g>
<g stroke-width="1.42" stroke="#008B8B" id="img-5713e41c-16">
  <g transform="translate(74.16,75.6)">
    <path fill="none" d="M-7.56,-10.8 L7.56,10.8 " class="primitive"/>
  </g>
</g>
<g stroke="#000000" stroke-opacity="0.000" fill="#FFFFFF" id="img-5713e41c-17">
  <g transform="translate(94.32,35.88)">
    <path d="M-10.8,-0.96 L10.8,-0.96 10.8,0.96 -10.8,0.96  z" class="primitive"/>
  </g>
</g>
<g stroke="#000000" stroke-opacity="0.000" fill="#FFFFFF" id="img-5713e41c-18">
  <g transform="translate(94.32,33.48)">
    <path d="M-10.8,-0.96 L10.8,-0.96 10.8,0.96 -10.8,0.96  z" class="primitive"/>
  </g>
</g>
<g stroke="#000000" stroke-opacity="0.000" fill="#FFFFFF" id="img-5713e41c-19">
  <g transform="translate(94.32,31.08)">
    <path d="M-10.8,-0.96 L10.8,-0.96 10.8,0.96 -10.8,0.96  z" class="primitive"/>
  </g>
</g>
<g stroke="#000000" stroke-opacity="0.000" fill="#FFFFFF" id="img-5713e41c-20">
  <g transform="translate(74.52,95.88)">
    <path d="M-10.8,-0.96 L10.8,-0.96 10.8,0.96 -10.8,0.96  z" class="primitive"/>
  </g>
</g>
<g stroke="#000000" stroke-opacity="0.000" fill="#FFFFFF" id="img-5713e41c-21">
  <g transform="translate(74.52,93.48)">
    <path d="M-10.8,-0.96 L10.8,-0.96 10.8,0.96 -10.8,0.96  z" class="primitive"/>
  </g>
</g>
<g stroke="#000000" stroke-opacity="0.000" fill="#FFFFFF" id="img-5713e41c-22">
  <g transform="translate(74.52,91.08)">
    <path d="M-10.8,-0.96 L10.8,-0.96 10.8,0.96 -10.8,0.96  z" class="primitive"/>
  </g>
</g>
<g stroke="#000000" stroke-opacity="0.000" fill="#FFFFFF" id="img-5713e41c-23">
  <g transform="translate(59.4,62.28)">
    <path d="M-10.8,-0.96 L10.8,-0.96 10.8,0.96 -10.8,0.96  z" class="primitive"/>
  </g>
</g>
<g stroke="#000000" stroke-opacity="0.000" fill="#FFFFFF" id="img-5713e41c-24">
  <g transform="translate(59.4,59.88)">
    <path d="M-10.8,-0.96 L10.8,-0.96 10.8,0.96 -10.8,0.96  z" class="primitive"/>
  </g>
</g>
<g stroke="#000000" stroke-opacity="0.000" fill="#FFFFFF" id="img-5713e41c-25">
  <g transform="translate(59.4,57.48)">
    <path d="M-10.8,-0.96 L10.8,-0.96 10.8,0.96 -10.8,0.96  z" class="primitive"/>
  </g>
</g>
<g stroke="#000000" stroke-opacity="0.000" fill="#FFFFFF" id="img-5713e41c-26">
  <g transform="translate(59.4,55.08)">
    <path d="M-12.6,-0.96 L12.6,-0.96 12.6,0.96 -12.6,0.96  z" class="primitive"/>
  </g>
</g>
<g stroke="#000000" stroke-opacity="0.000" fill="#FFFFFF" id="img-5713e41c-27">
  <g transform="translate(59.4,52.68)">
    <path d="M-12.6,-0.96 L12.6,-0.96 12.6,0.96 -12.6,0.96  z" class="primitive"/>
  </g>
</g>
<g stroke="#000000" stroke-opacity="0.000" fill="#FFFFFF" id="img-5713e41c-28">
  <g transform="translate(59.4,50.28)">
    <path d="M-12.6,-0.96 L12.6,-0.96 12.6,0.96 -12.6,0.96  z" class="primitive"/>
  </g>
</g>
<g stroke="#000000" stroke-opacity="0.000" fill="#FFFFFF" id="img-5713e41c-29">
  <g transform="translate(21.6,98.28)">
    <path d="M-10.8,-0.96 L10.8,-0.96 10.8,0.96 -10.8,0.96  z" class="primitive"/>
  </g>
</g>
<g stroke="#000000" stroke-opacity="0.000" fill="#FFFFFF" id="img-5713e41c-30">
  <g transform="translate(21.6,95.88)">
    <path d="M-10.8,-0.96 L10.8,-0.96 10.8,0.96 -10.8,0.96  z" class="primitive"/>
  </g>
</g>
<g stroke="#000000" stroke-opacity="0.000" fill="#FFFFFF" id="img-5713e41c-31">
  <g transform="translate(21.6,93.48)">
    <path d="M-10.8,-0.96 L10.8,-0.96 10.8,0.96 -10.8,0.96  z" class="primitive"/>
  </g>
</g>
<g stroke="#000000" stroke-opacity="0.000" fill="#FFFFFF" id="img-5713e41c-32">
  <g transform="translate(21.6,91.08)">
    <path d="M-12.6,-0.96 L12.6,-0.96 12.6,0.96 -12.6,0.96  z" class="primitive"/>
  </g>
</g>
<g stroke="#000000" stroke-opacity="0.000" fill="#FFFFFF" id="img-5713e41c-33">
  <g transform="translate(6.48,76.68)">
    <path d="M-10.8,-0.96 L10.8,-0.96 10.8,0.96 -10.8,0.96  z" class="primitive"/>
  </g>
</g>
<g stroke="#000000" stroke-opacity="0.000" fill="#FFFFFF" id="img-5713e41c-34">
  <g transform="translate(6.48,74.28)">
    <path d="M-10.8,-0.96 L10.8,-0.96 10.8,0.96 -10.8,0.96  z" class="primitive"/>
  </g>
</g>
<g stroke="#000000" stroke-opacity="0.000" fill="#FFFFFF" id="img-5713e41c-35">
  <g transform="translate(6.48,71.88)">
    <path d="M-10.8,-0.96 L10.8,-0.96 10.8,0.96 -10.8,0.96  z" class="primitive"/>
  </g>
</g>
<g stroke="#000000" stroke-opacity="0.000" fill="#FFFFFF" id="img-5713e41c-36">
  <g transform="translate(6.48,69.48)">
    <path d="M-12.6,-0.96 L12.6,-0.96 12.6,0.96 -12.6,0.96  z" class="primitive"/>
  </g>
</g>
<g stroke="#000000" stroke-opacity="0.000" fill="#FFFFFF" id="img-5713e41c-37">
  <g transform="translate(117.18,43.08)">
    <path d="M-10.8,-0.96 L10.8,-0.96 10.8,0.96 -10.8,0.96  z" class="primitive"/>
  </g>
</g>
<g stroke="#000000" stroke-opacity="0.000" fill="#FFFFFF" id="img-5713e41c-38">
  <g transform="translate(117.18,40.68)">
    <path d="M-10.8,-0.96 L10.8,-0.96 10.8,0.96 -10.8,0.96  z" class="primitive"/>
  </g>
</g>
<g stroke="#000000" stroke-opacity="0.000" fill="#FFFFFF" id="img-5713e41c-39">
  <g transform="translate(117.18,38.28)">
    <path d="M-10.8,-0.96 L10.8,-0.96 10.8,0.96 -10.8,0.96  z" class="primitive"/>
  </g>
</g>
<g stroke="#000000" stroke-opacity="0.000" fill="#FFFFFF" id="img-5713e41c-40">
  <g transform="translate(117.18,35.88)">
    <path d="M-12.6,-0.96 L12.6,-0.96 12.6,0.96 -12.6,0.96  z" class="primitive"/>
  </g>
</g>
<g stroke="#000000" stroke-opacity="0.000" fill="#FFFFFF" id="img-5713e41c-41">
  <g transform="translate(117.18,33.48)">
    <path d="M-12.6,-0.96 L12.6,-0.96 12.6,0.96 -12.6,0.96  z" class="primitive"/>
  </g>
</g>
<g stroke="#000000" stroke-opacity="0.000" fill="#FFFFFF" id="img-5713e41c-42">
  <g transform="translate(117.18,31.08)">
    <path d="M-12.6,-0.96 L12.6,-0.96 12.6,0.96 -12.6,0.96  z" class="primitive"/>
  </g>
</g>
<g stroke="#000000" stroke-opacity="0.000" fill="#FFFFFF" id="img-5713e41c-43">
  <g transform="translate(11.34,40.68)">
    <path d="M-10.8,-0.96 L10.8,-0.96 10.8,0.96 -10.8,0.96  z" class="primitive"/>
  </g>
</g>
<g stroke="#000000" stroke-opacity="0.000" fill="#FFFFFF" id="img-5713e41c-44">
  <g transform="translate(11.34,38.28)">
    <path d="M-10.8,-0.96 L10.8,-0.96 10.8,0.96 -10.8,0.96  z" class="primitive"/>
  </g>
</g>
<g stroke="#000000" stroke-opacity="0.000" fill="#FFFFFF" id="img-5713e41c-45">
  <g transform="translate(11.34,35.88)">
    <path d="M-10.8,-0.96 L10.8,-0.96 10.8,0.96 -10.8,0.96  z" class="primitive"/>
  </g>
</g>
<g stroke="#000000" stroke-opacity="0.000" fill="#FFFFFF" id="img-5713e41c-46">
  <g transform="translate(11.34,33.48)">
    <path d="M-12.6,-0.96 L12.6,-0.96 12.6,0.96 -12.6,0.96  z" class="primitive"/>
  </g>
</g>
<g stroke="#000000" stroke-opacity="0.000" fill="#FFFFFF" id="img-5713e41c-47">
  <g transform="translate(11.34,31.08)">
    <path d="M-12.6,-0.96 L12.6,-0.96 12.6,0.96 -12.6,0.96  z" class="primitive"/>
  </g>
</g>
<g stroke="#000000" stroke-opacity="0.000" fill="#FFFFFF" id="img-5713e41c-48">
  <g transform="translate(59.4,35.88)">
    <path d="M-10.8,-0.96 L10.8,-0.96 10.8,0.96 -10.8,0.96  z" class="primitive"/>
  </g>
</g>
<g stroke="#000000" stroke-opacity="0.000" fill="#FFFFFF" id="img-5713e41c-49">
  <g transform="translate(59.4,33.48)">
    <path d="M-10.8,-0.96 L10.8,-0.96 10.8,0.96 -10.8,0.96  z" class="primitive"/>
  </g>
</g>
<g stroke="#000000" stroke-opacity="0.000" fill="#FFFFFF" id="img-5713e41c-50">
  <g transform="translate(59.4,31.08)">
    <path d="M-10.8,-0.96 L10.8,-0.96 10.8,0.96 -10.8,0.96  z" class="primitive"/>
  </g>
</g>
<g stroke="#000000" stroke-opacity="0.000" fill="#FFFFFF" id="img-5713e41c-51">
  <g transform="translate(28.8,74.28)">
    <path d="M-10.8,-0.96 L10.8,-0.96 10.8,0.96 -10.8,0.96  z" class="primitive"/>
  </g>
</g>
<g stroke="#000000" stroke-opacity="0.000" fill="#FFFFFF" id="img-5713e41c-52">
  <g transform="translate(28.8,71.88)">
    <path d="M-10.8,-0.96 L10.8,-0.96 10.8,0.96 -10.8,0.96  z" class="primitive"/>
  </g>
</g>
<g stroke="#000000" stroke-opacity="0.000" fill="#FFFFFF" id="img-5713e41c-53">
  <g transform="translate(28.8,69.48)">
    <path d="M-10.8,-0.96 L10.8,-0.96 10.8,0.96 -10.8,0.96  z" class="primitive"/>
  </g>
</g>
<g stroke="#000000" stroke-opacity="0.000" fill="#FFFFFF" id="img-5713e41c-54">
  <g transform="translate(66.6,16.68)">
    <path d="M-10.8,-0.96 L10.8,-0.96 10.8,0.96 -10.8,0.96  z" class="primitive"/>
  </g>
</g>
<g stroke="#000000" stroke-opacity="0.000" fill="#FFFFFF" id="img-5713e41c-55">
  <g transform="translate(66.6,14.28)">
    <path d="M-10.8,-0.96 L10.8,-0.96 10.8,0.96 -10.8,0.96  z" class="primitive"/>
  </g>
</g>
<g stroke="#000000" stroke-opacity="0.000" fill="#FFFFFF" id="img-5713e41c-56">
  <g transform="translate(66.6,11.88)">
    <path d="M-10.8,-0.96 L10.8,-0.96 10.8,0.96 -10.8,0.96  z" class="primitive"/>
  </g>
</g>
<g stroke="#000000" stroke-opacity="0.000" fill="#FFFFFF" id="img-5713e41c-57">
  <g transform="translate(61.92,81.48)">
    <path d="M-10.8,-0.96 L10.8,-0.96 10.8,0.96 -10.8,0.96  z" class="primitive"/>
  </g>
</g>
<g stroke="#000000" stroke-opacity="0.000" fill="#FFFFFF" id="img-5713e41c-58">
  <g transform="translate(61.92,79.08)">
    <path d="M-10.8,-0.96 L10.8,-0.96 10.8,0.96 -10.8,0.96  z" class="primitive"/>
  </g>
</g>
<g stroke="#000000" stroke-opacity="0.000" fill="#FFFFFF" id="img-5713e41c-59">
  <g transform="translate(61.92,76.68)">
    <path d="M-10.8,-0.96 L10.8,-0.96 10.8,0.96 -10.8,0.96  z" class="primitive"/>
  </g>
</g>
<g stroke="#000000" stroke-opacity="0.000" fill="#FFFFFF" id="img-5713e41c-60">
  <g transform="translate(61.92,74.28)">
    <path d="M-12.6,-0.96 L12.6,-0.96 12.6,0.96 -12.6,0.96  z" class="primitive"/>
  </g>
</g>
<g stroke="#000000" stroke-opacity="0.000" fill="#FFFFFF" id="img-5713e41c-61">
  <g transform="translate(61.92,71.88)">
    <path d="M-12.6,-0.96 L12.6,-0.96 12.6,0.96 -12.6,0.96  z" class="primitive"/>
  </g>
</g>
<g stroke="#000000" stroke-opacity="0.000" fill="#FFFFFF" id="img-5713e41c-62">
  <g transform="translate(61.92,69.48)">
    <path d="M-12.6,-0.96 L12.6,-0.96 12.6,0.96 -12.6,0.96  z" class="primitive"/>
  </g>
</g>
<g stroke="#000000" stroke-opacity="0.000" fill="#FFFFFF" id="img-5713e41c-63">
  <g transform="translate(38.88,38.28)">
    <path d="M-10.8,-0.96 L10.8,-0.96 10.8,0.96 -10.8,0.96  z" class="primitive"/>
  </g>
</g>
<g stroke="#000000" stroke-opacity="0.000" fill="#FFFFFF" id="img-5713e41c-64">
  <g transform="translate(38.88,35.88)">
    <path d="M-10.8,-0.96 L10.8,-0.96 10.8,0.96 -10.8,0.96  z" class="primitive"/>
  </g>
</g>
<g stroke="#000000" stroke-opacity="0.000" fill="#FFFFFF" id="img-5713e41c-65">
  <g transform="translate(38.88,33.48)">
    <path d="M-10.8,-0.96 L10.8,-0.96 10.8,0.96 -10.8,0.96  z" class="primitive"/>
  </g>
</g>
<g stroke="#000000" stroke-opacity="0.000" fill="#FFFFFF" id="img-5713e41c-66">
  <g transform="translate(38.88,31.08)">
    <path d="M-12.6,-0.96 L12.6,-0.96 12.6,0.96 -12.6,0.96  z" class="primitive"/>
  </g>
</g>
<g stroke="#000000" stroke-opacity="0.000" fill="#FFFFFF" id="img-5713e41c-67">
  <g transform="translate(94.32,79.08)">
    <path d="M-10.8,-0.96 L10.8,-0.96 10.8,0.96 -10.8,0.96  z" class="primitive"/>
  </g>
</g>
<g stroke="#000000" stroke-opacity="0.000" fill="#FFFFFF" id="img-5713e41c-68">
  <g transform="translate(94.32,76.68)">
    <path d="M-10.8,-0.96 L10.8,-0.96 10.8,0.96 -10.8,0.96  z" class="primitive"/>
  </g>
</g>
<g stroke="#000000" stroke-opacity="0.000" fill="#FFFFFF" id="img-5713e41c-69">
  <g transform="translate(94.32,74.28)">
    <path d="M-10.8,-0.96 L10.8,-0.96 10.8,0.96 -10.8,0.96  z" class="primitive"/>
  </g>
</g>
<g stroke="#000000" stroke-opacity="0.000" fill="#FFFFFF" id="img-5713e41c-70">
  <g transform="translate(94.32,71.88)">
    <path d="M-12.6,-0.96 L12.6,-0.96 12.6,0.96 -12.6,0.96  z" class="primitive"/>
  </g>
</g>
<g stroke="#000000" stroke-opacity="0.000" fill="#FFFFFF" id="img-5713e41c-71">
  <g transform="translate(94.32,69.48)">
    <path d="M-12.6,-0.96 L12.6,-0.96 12.6,0.96 -12.6,0.96  z" class="primitive"/>
  </g>
</g>
<g stroke="#000000" stroke-opacity="0.000" fill="#FFFFFF" id="img-5713e41c-72">
  <g transform="translate(112.32,81.48)">
    <path d="M-10.8,-0.96 L10.8,-0.96 10.8,0.96 -10.8,0.96  z" class="primitive"/>
  </g>
</g>
<g stroke="#000000" stroke-opacity="0.000" fill="#FFFFFF" id="img-5713e41c-73">
  <g transform="translate(112.32,79.08)">
    <path d="M-10.8,-0.96 L10.8,-0.96 10.8,0.96 -10.8,0.96  z" class="primitive"/>
  </g>
</g>
<g stroke="#000000" stroke-opacity="0.000" fill="#FFFFFF" id="img-5713e41c-74">
  <g transform="translate(112.32,76.68)">
    <path d="M-10.8,-0.96 L10.8,-0.96 10.8,0.96 -10.8,0.96  z" class="primitive"/>
  </g>
</g>
<g stroke="#000000" stroke-opacity="0.000" fill="#FFFFFF" id="img-5713e41c-75">
  <g transform="translate(112.32,74.28)">
    <path d="M-12.6,-0.96 L12.6,-0.96 12.6,0.96 -12.6,0.96  z" class="primitive"/>
  </g>
</g>
<g stroke="#000000" stroke-opacity="0.000" fill="#FFFFFF" id="img-5713e41c-76">
  <g transform="translate(112.32,71.88)">
    <path d="M-12.6,-0.96 L12.6,-0.96 12.6,0.96 -12.6,0.96  z" class="primitive"/>
  </g>
</g>
<g stroke="#000000" stroke-opacity="0.000" fill="#FFFFFF" id="img-5713e41c-77">
  <g transform="translate(112.32,69.48)">
    <path d="M-12.6,-0.96 L12.6,-0.96 12.6,0.96 -12.6,0.96  z" class="primitive"/>
  </g>
</g>
<g stroke="#000000" stroke-opacity="0.000" fill="#FFFFFF" id="img-5713e41c-78">
  <g transform="translate(9.18,50.4)">
    <path d="M-9,-0.96 L9,-0.96 9,0.96 -9,0.96  z" class="primitive"/>
  </g>
</g>
<g stroke="#000000" stroke-opacity="0.000" fill="#FFFFFF" id="img-5713e41c-79">
  <g transform="translate(9.18,48)">
    <path d="M-9,-0.96 L9,-0.96 9,0.96 -9,0.96  z" class="primitive"/>
  </g>
</g>
<g stroke="#000000" stroke-opacity="0.000" fill="#FFFFFF" id="img-5713e41c-80">
  <g transform="translate(9.18,45.6)">
    <path d="M-9,-0.96 L9,-0.96 9,0.96 -9,0.96  z" class="primitive"/>
  </g>
</g>
<g stroke="#000000" stroke-opacity="0.000" fill="#FFFFFF" id="img-5713e41c-81">
  <g transform="translate(115.02,50.4)">
    <path d="M-9,-0.96 L9,-0.96 9,0.96 -9,0.96  z" class="primitive"/>
  </g>
</g>
<g stroke="#000000" stroke-opacity="0.000" fill="#FFFFFF" id="img-5713e41c-82">
  <g transform="translate(115.02,48)">
    <path d="M-9,-0.96 L9,-0.96 9,0.96 -9,0.96  z" class="primitive"/>
  </g>
</g>
<g stroke="#000000" stroke-opacity="0.000" fill="#FFFFFF" id="img-5713e41c-83">
  <g transform="translate(115.02,45.6)">
    <path d="M-9,-0.96 L9,-0.96 9,0.96 -9,0.96  z" class="primitive"/>
  </g>
</g>
<g stroke="#000000" stroke-opacity="0.000" fill="#FFFFFF" id="img-5713e41c-84">
  <g transform="translate(80.46,34.2)">
    <path d="M-9,-0.96 L9,-0.96 9,0.96 -9,0.96  z" class="primitive"/>
  </g>
</g>
<g stroke="#000000" stroke-opacity="0.000" fill="#FFFFFF" id="img-5713e41c-85">
  <g transform="translate(80.46,31.8)">
    <path d="M-9,-0.96 L9,-0.96 9,0.96 -9,0.96  z" class="primitive"/>
  </g>
</g>
<g stroke="#000000" stroke-opacity="0.000" fill="#FFFFFF" id="img-5713e41c-86">
  <g transform="translate(80.46,29.4)">
    <path d="M-9,-0.96 L9,-0.96 9,0.96 -9,0.96  z" class="primitive"/>
  </g>
</g>
<g stroke="#000000" stroke-opacity="0.000" fill="#FFFFFF" id="img-5713e41c-87">
  <g transform="translate(52.74,28.2)">
    <path d="M-9,-0.96 L9,-0.96 9,0.96 -9,0.96  z" class="primitive"/>
  </g>
</g>
<g stroke="#000000" stroke-opacity="0.000" fill="#FFFFFF" id="img-5713e41c-88">
  <g transform="translate(52.74,25.8)">
    <path d="M-9,-0.96 L9,-0.96 9,0.96 -9,0.96  z" class="primitive"/>
  </g>
</g>
<g stroke="#000000" stroke-opacity="0.000" fill="#FFFFFF" id="img-5713e41c-89">
  <g transform="translate(52.74,23.4)">
    <path d="M-9,-0.96 L9,-0.96 9,0.96 -9,0.96  z" class="primitive"/>
  </g>
</g>
<g stroke="#000000" stroke-opacity="0.000" fill="#FFFFFF" id="img-5713e41c-90">
  <g transform="translate(80.46,72.6)">
    <path d="M-9,-0.96 L9,-0.96 9,0.96 -9,0.96  z" class="primitive"/>
  </g>
</g>
<g stroke="#000000" stroke-opacity="0.000" fill="#FFFFFF" id="img-5713e41c-91">
  <g transform="translate(80.46,70.2)">
    <path d="M-9,-0.96 L9,-0.96 9,0.96 -9,0.96  z" class="primitive"/>
  </g>
</g>
<g stroke="#000000" stroke-opacity="0.000" fill="#FFFFFF" id="img-5713e41c-92">
  <g transform="translate(80.46,67.8)">
    <path d="M-9,-0.96 L9,-0.96 9,0.96 -9,0.96  z" class="primitive"/>
  </g>
</g>
<g stroke="#000000" stroke-opacity="0.000" fill="#FFFFFF" id="img-5713e41c-93">
  <g transform="translate(62.1,60)">
    <path d="M-9,-0.96 L9,-0.96 9,0.96 -9,0.96  z" class="primitive"/>
  </g>
</g>
<g stroke="#000000" stroke-opacity="0.000" fill="#FFFFFF" id="img-5713e41c-94">
  <g transform="translate(62.1,57.6)">
    <path d="M-9,-0.96 L9,-0.96 9,0.96 -9,0.96  z" class="primitive"/>
  </g>
</g>
<g stroke="#000000" stroke-opacity="0.000" fill="#FFFFFF" id="img-5713e41c-95">
  <g transform="translate(62.1,55.2)">
    <path d="M-9,-0.96 L9,-0.96 9,0.96 -9,0.96  z" class="primitive"/>
  </g>
</g>
<g font-family="sans-serif" fill="#4682B4" font-size="2.12" id="img-5713e41c-96">
  <g transform="translate(94.32,35.4)">
    <g class="primitive">
      <text text-anchor="middle" dy="0.6em">V3: 0.976 pu</text>
    </g>
  </g>
</g>
<g font-family="sans-serif" fill="#4682B4" font-size="2.12" id="img-5713e41c-97">
  <g transform="translate(94.32,33)">
    <g class="primitive">
      <text text-anchor="middle" dy="0.6em">V2: 0.975 pu</text>
    </g>
  </g>
</g>
<g font-family="sans-serif" fill="#4682B4" font-size="2.12" id="img-5713e41c-98">
  <g transform="translate(94.32,30.6)">
    <g class="primitive">
      <text text-anchor="middle" dy="0.6em">V1: 0.975 pu</text>
    </g>
  </g>
</g>
<g fill="#000000" font-size="3.18" id="img-5713e41c-99">
  <g transform="translate(94.32,22.2)">
    <g class="primitive">
      <text text-anchor="middle" dy="-0em">633</text>
    </g>
  </g>
</g>
<g font-family="sans-serif" fill="#4682B4" font-size="2.12" id="img-5713e41c-100">
  <g transform="translate(74.52,95.4)">
    <g class="primitive">
      <text text-anchor="middle" dy="0.6em">V3: 0.974 pu</text>
    </g>
  </g>
</g>
<g font-family="sans-serif" fill="#4682B4" font-size="2.12" id="img-5713e41c-101">
  <g transform="translate(74.52,93)">
    <g class="primitive">
      <text text-anchor="middle" dy="0.6em">V2: 0.974 pu</text>
    </g>
  </g>
</g>
<g font-family="sans-serif" fill="#4682B4" font-size="2.12" id="img-5713e41c-102">
  <g transform="translate(74.52,90.6)">
    <g class="primitive">
      <text text-anchor="middle" dy="0.6em">V1: 0.974 pu</text>
    </g>
  </g>
</g>
<g fill="#000000" font-size="3.18" id="img-5713e41c-103">
  <g transform="translate(74.52,82.2)">
    <g class="primitive">
      <text text-anchor="middle" dy="-0em">680</text>
    </g>
  </g>
</g>
<g font-family="sans-serif" fill="#DAA520" font-size="2.12" id="img-5713e41c-104">
  <g transform="translate(59.4,61.8)">
    <g class="primitive">
      <text text-anchor="middle" dy="0.6em">V3: 0.964 pu</text>
    </g>
  </g>
</g>
<g font-family="sans-serif" fill="#4682B4" font-size="2.12" id="img-5713e41c-105">
  <g transform="translate(59.4,59.4)">
    <g class="primitive">
      <text text-anchor="middle" dy="0.6em">V2: 0.999 pu</text>
    </g>
  </g>
</g>
<g font-family="sans-serif" fill="#4682B4" font-size="2.12" id="img-5713e41c-106">
  <g transform="translate(59.4,57)">
    <g class="primitive">
      <text text-anchor="middle" dy="0.6em">V1: 0.982 pu</text>
    </g>
  </g>
</g>
<g font-family="sans-serif" fill="#000000" font-size="2.12" id="img-5713e41c-107">
  <g transform="translate(59.4,54.6)">
    <g class="primitive">
      <text text-anchor="middle" dy="0.6em">S3: 38%</text>
    </g>
  </g>
</g>
<g font-family="sans-serif" fill="#000000" font-size="2.12" id="img-5713e41c-108">
  <g transform="translate(59.4,52.2)">
    <g class="primitive">
      <text text-anchor="middle" dy="0.6em">S2: 38%</text>
    </g>
  </g>
</g>
<g font-family="sans-serif" fill="#000000" font-size="2.12" id="img-5713e41c-109">
  <g transform="translate(59.4,49.8)">
    <g class="primitive">
      <text text-anchor="middle" dy="0.6em">S1: 38%</text>
    </g>
  </g>
</g>
<g fill="#000000" font-size="3.18" id="img-5713e41c-110">
  <g transform="translate(59.4,41.4)">
    <g class="primitive">
      <text text-anchor="middle" dy="-0em">670 (L10,14,8)</text>
    </g>
  </g>
</g>
<g font-family="sans-serif" fill="#4682B4" font-size="2.12" id="img-5713e41c-111">
  <g transform="translate(21.6,97.8)">
    <g class="primitive">
      <text text-anchor="middle" dy="0.6em">V3: 0.974 pu</text>
    </g>
  </g>
</g>
<g font-family="sans-serif" fill="#4682B4" font-size="2.12" id="img-5713e41c-112">
  <g transform="translate(21.6,95.4)">
    <g class="primitive">
      <text text-anchor="middle" dy="0.6em">V2: 0.974 pu</text>
    </g>
  </g>
</g>
<g font-family="sans-serif" fill="#4682B4" font-size="2.12" id="img-5713e41c-113">
  <g transform="translate(21.6,93)">
    <g class="primitive">
      <text text-anchor="middle" dy="0.6em">V1: 0.973 pu</text>
    </g>
  </g>
</g>
<g font-family="sans-serif" fill="#000000" font-size="2.12" id="img-5713e41c-114">
  <g transform="translate(21.6,90.6)">
    <g class="primitive">
      <text text-anchor="middle" dy="0.6em">S1: 34%</text>
    </g>
  </g>
</g>
<g fill="#000000" font-size="3.18" id="img-5713e41c-115">
  <g transform="translate(21.6,82.2)">
    <g class="primitive">
      <text text-anchor="middle" dy="-0em">652 (L5)</text>
    </g>
  </g>
</g>
<g font-family="sans-serif" fill="#4682B4" font-size="2.12" id="img-5713e41c-116">
  <g transform="translate(6.48,76.2)">
    <g class="primitive">
      <text text-anchor="middle" dy="0.6em">V3: 0.975 pu</text>
    </g>
  </g>
</g>
<g font-family="sans-serif" fill="#4682B4" font-size="2.12" id="img-5713e41c-117">
  <g transform="translate(6.48,73.8)">
    <g class="primitive">
      <text text-anchor="middle" dy="0.6em">V2: 0.974 pu</text>
    </g>
  </g>
</g>
<g font-family="sans-serif" fill="#4682B4" font-size="2.12" id="img-5713e41c-118">
  <g transform="translate(6.48,71.4)">
    <g class="primitive">
      <text text-anchor="middle" dy="0.6em">V1: 0.975 pu</text>
    </g>
  </g>
</g>
<g font-family="sans-serif" fill="#000000" font-size="2.12" id="img-5713e41c-119">
  <g transform="translate(6.48,69)">
    <g class="primitive">
      <text text-anchor="middle" dy="0.6em">S3: 21%</text>
    </g>
  </g>
</g>
<g fill="#000000" font-size="3.18" id="img-5713e41c-120">
  <g transform="translate(6.48,60.6)">
    <g class="primitive">
      <text text-anchor="middle" dy="-0em">611 (L15)</text>
    </g>
  </g>
</g>
<g font-family="sans-serif" fill="#4682B4" font-size="2.12" id="img-5713e41c-121">
  <g transform="translate(117.18,42.6)">
    <g class="primitive">
      <text text-anchor="middle" dy="0.6em">V3: 0.974 pu</text>
    </g>
  </g>
</g>
<g font-family="sans-serif" fill="#4682B4" font-size="2.12" id="img-5713e41c-122">
  <g transform="translate(117.18,40.2)">
    <g class="primitive">
      <text text-anchor="middle" dy="0.6em">V2: 0.975 pu</text>
    </g>
  </g>
</g>
<g font-family="sans-serif" fill="#4682B4" font-size="2.12" id="img-5713e41c-123">
  <g transform="translate(117.18,37.8)">
    <g class="primitive">
      <text text-anchor="middle" dy="0.6em">V1: 0.974 pu</text>
    </g>
  </g>
</g>
<g font-family="sans-serif" fill="#000000" font-size="2.12" id="img-5713e41c-124">
  <g transform="translate(117.18,35.4)">
    <g class="primitive">
      <text text-anchor="middle" dy="0.6em">S3: 30%</text>
    </g>
  </g>
</g>
<g font-family="sans-serif" fill="#000000" font-size="2.12" id="img-5713e41c-125">
  <g transform="translate(117.18,33)">
    <g class="primitive">
      <text text-anchor="middle" dy="0.6em">S2: 30%</text>
    </g>
  </g>
</g>
<g font-family="sans-serif" fill="#000000" font-size="2.12" id="img-5713e41c-126">
  <g transform="translate(117.18,30.6)">
    <g class="primitive">
      <text text-anchor="middle" dy="0.6em">S1: 30%</text>
    </g>
  </g>
</g>
<g fill="#000000" font-size="3.18" id="img-5713e41c-127">
  <g transform="translate(117.18,22.2)">
    <g class="primitive">
      <text text-anchor="middle" dy="-0em">634 (L1,11,9)</text>
    </g>
  </g>
</g>
<g font-family="sans-serif" fill="#4682B4" font-size="2.12" id="img-5713e41c-128">
  <g transform="translate(11.34,40.2)">
    <g class="primitive">
      <text text-anchor="middle" dy="0.6em">V3: 0.974 pu</text>
    </g>
  </g>
</g>
<g font-family="sans-serif" fill="#4682B4" font-size="2.12" id="img-5713e41c-129">
  <g transform="translate(11.34,37.8)">
    <g class="primitive">
      <text text-anchor="middle" dy="0.6em">V2: 0.975 pu</text>
    </g>
  </g>
</g>
<g font-family="sans-serif" fill="#4682B4" font-size="2.12" id="img-5713e41c-130">
  <g transform="translate(11.34,35.4)">
    <g class="primitive">
      <text text-anchor="middle" dy="0.6em">V1: 0.974 pu</text>
    </g>
  </g>
</g>
<g font-family="sans-serif" fill="#000000" font-size="2.12" id="img-5713e41c-131">
  <g transform="translate(11.34,33)">
    <g class="primitive">
      <text text-anchor="middle" dy="0.6em">S3: 20%</text>
    </g>
  </g>
</g>
<g font-family="sans-serif" fill="#000000" font-size="2.12" id="img-5713e41c-132">
  <g transform="translate(11.34,30.6)">
    <g class="primitive">
      <text text-anchor="middle" dy="0.6em">S2: 20%</text>
    </g>
  </g>
</g>
<g fill="#000000" font-size="3.18" id="img-5713e41c-133">
  <g transform="translate(11.34,22.2)">
    <g class="primitive">
      <text text-anchor="middle" dy="-0em">646 (L6)</text>
    </g>
  </g>
</g>
<g font-family="sans-serif" fill="#DAA520" font-size="2.12" id="img-5713e41c-134">
  <g transform="translate(59.4,35.4)">
    <g class="primitive">
      <text text-anchor="middle" dy="0.6em">V3: 0.969 pu</text>
    </g>
  </g>
</g>
<g font-family="sans-serif" fill="#4682B4" font-size="2.12" id="img-5713e41c-135">
  <g transform="translate(59.4,33)">
    <g class="primitive">
      <text text-anchor="middle" dy="0.6em">V2: 1.004 pu</text>
    </g>
  </g>
</g>
<g font-family="sans-serif" fill="#4682B4" font-size="2.12" id="img-5713e41c-136">
  <g transform="translate(59.4,30.6)">
    <g class="primitive">
      <text text-anchor="middle" dy="0.6em">V1: 0.987 pu</text>
    </g>
  </g>
</g>
<g fill="#000000" font-size="3.18" id="img-5713e41c-137">
  <g transform="translate(59.4,22.2)">
    <g class="primitive">
      <text text-anchor="middle" dy="-0em">632</text>
    </g>
  </g>
</g>
<g font-family="sans-serif" fill="#4682B4" font-size="2.12" id="img-5713e41c-138">
  <g transform="translate(28.8,73.8)">
    <g class="primitive">
      <text text-anchor="middle" dy="0.6em">V3: 0.976 pu</text>
    </g>
  </g>
</g>
<g font-family="sans-serif" fill="#4682B4" font-size="2.12" id="img-5713e41c-139">
  <g transform="translate(28.8,71.4)">
    <g class="primitive">
      <text text-anchor="middle" dy="0.6em">V2: 0.976 pu</text>
    </g>
  </g>
</g>
<g font-family="sans-serif" fill="#4682B4" font-size="2.12" id="img-5713e41c-140">
  <g transform="translate(28.8,69)">
    <g class="primitive">
      <text text-anchor="middle" dy="0.6em">V1: 0.976 pu</text>
    </g>
  </g>
</g>
<g fill="#000000" font-size="3.18" id="img-5713e41c-141">
  <g transform="translate(28.8,60.6)">
    <g class="primitive">
      <text text-anchor="middle" dy="-0em">684</text>
    </g>
  </g>
</g>
<g font-family="sans-serif" fill="#228B22" font-size="2.12" id="img-5713e41c-142">
  <g transform="translate(66.6,18.6)">
    <g class="primitive">
      <text text-anchor="middle" dy="0.6em">Gen: source</text>
    </g>
  </g>
</g>
<g font-family="sans-serif" fill="#4682B4" font-size="2.12" id="img-5713e41c-143">
  <g transform="translate(66.6,16.2)">
    <g class="primitive">
      <text text-anchor="middle" dy="0.6em">V3: 1.015 pu</text>
    </g>
  </g>
</g>
<g font-family="sans-serif" fill="#4682B4" font-size="2.12" id="img-5713e41c-144">
  <g transform="translate(66.6,13.8)">
    <g class="primitive">
      <text text-anchor="middle" dy="0.6em">V2: 1.015 pu</text>
    </g>
  </g>
</g>
<g font-family="sans-serif" fill="#4682B4" font-size="2.12" id="img-5713e41c-145">
  <g transform="translate(66.6,11.4)">
    <g class="primitive">
      <text text-anchor="middle" dy="0.6em">V1: 1.015 pu</text>
    </g>
  </g>
</g>
<g fill="#000000" font-size="3.18" id="img-5713e41c-146">
  <g transform="translate(66.6,3)">
    <g class="primitive">
      <text text-anchor="middle" dy="-0em">rg60</text>
    </g>
  </g>
</g>
<g font-family="sans-serif" fill="#4682B4" font-size="2.12" id="img-5713e41c-147">
  <g transform="translate(61.92,81)">
    <g class="primitive">
      <text text-anchor="middle" dy="0.6em">V3: 0.977 pu</text>
    </g>
  </g>
</g>
<g font-family="sans-serif" fill="#4682B4" font-size="2.12" id="img-5713e41c-148">
  <g transform="translate(61.92,78.6)">
    <g class="primitive">
      <text text-anchor="middle" dy="0.6em">V2: 0.978 pu</text>
    </g>
  </g>
</g>
<g font-family="sans-serif" fill="#4682B4" font-size="2.12" id="img-5713e41c-149">
  <g transform="translate(61.92,76.2)">
    <g class="primitive">
      <text text-anchor="middle" dy="0.6em">V1: 0.977 pu</text>
    </g>
  </g>
</g>
<g font-family="sans-serif" fill="#000000" font-size="2.12" id="img-5713e41c-150">
  <g transform="translate(61.92,73.8)">
    <g class="primitive">
      <text text-anchor="middle" dy="0.6em">S3: 11%</text>
    </g>
  </g>
</g>
<g font-family="sans-serif" fill="#000000" font-size="2.12" id="img-5713e41c-151">
  <g transform="translate(61.92,71.4)">
    <g class="primitive">
      <text text-anchor="middle" dy="0.6em">S2: 11%</text>
    </g>
  </g>
</g>
<g font-family="sans-serif" fill="#000000" font-size="2.12" id="img-5713e41c-152">
  <g transform="translate(61.92,69)">
    <g class="primitive">
      <text text-anchor="middle" dy="0.6em">S1: 11%</text>
    </g>
  </g>
</g>
<g fill="#000000" font-size="3.18" id="img-5713e41c-153">
  <g transform="translate(61.92,60.6)">
    <g class="primitive">
      <text text-anchor="middle" dy="-0em">671 (L3)</text>
    </g>
  </g>
</g>
<g font-family="sans-serif" fill="#4682B4" font-size="2.12" id="img-5713e41c-154">
  <g transform="translate(38.88,37.8)">
    <g class="primitive">
      <text text-anchor="middle" dy="0.6em">V3: 0.975 pu</text>
    </g>
  </g>
</g>
<g font-family="sans-serif" fill="#4682B4" font-size="2.12" id="img-5713e41c-155">
  <g transform="translate(38.88,35.4)">
    <g class="primitive">
      <text text-anchor="middle" dy="0.6em">V2: 0.975 pu</text>
    </g>
  </g>
</g>
<g font-family="sans-serif" fill="#4682B4" font-size="2.12" id="img-5713e41c-156">
  <g transform="translate(38.88,33)">
    <g class="primitive">
      <text text-anchor="middle" dy="0.6em">V1: 0.975 pu</text>
    </g>
  </g>
</g>
<g font-family="sans-serif" fill="#000000" font-size="2.12" id="img-5713e41c-157">
  <g transform="translate(38.88,30.6)">
    <g class="primitive">
      <text text-anchor="middle" dy="0.6em">S2: 27%</text>
    </g>
  </g>
</g>
<g fill="#000000" font-size="3.18" id="img-5713e41c-158">
  <g transform="translate(38.88,22.2)">
    <g class="primitive">
      <text text-anchor="middle" dy="-0em">645 (L7)</text>
    </g>
  </g>
</g>
<g font-family="sans-serif" fill="#4682B4" font-size="2.12" id="img-5713e41c-159">
  <g transform="translate(94.32,78.6)">
    <g class="primitive">
      <text text-anchor="middle" dy="0.6em">V3: 0.976 pu</text>
    </g>
  </g>
</g>
<g font-family="sans-serif" fill="#4682B4" font-size="2.12" id="img-5713e41c-160">
  <g transform="translate(94.32,76.2)">
    <g class="primitive">
      <text text-anchor="middle" dy="0.6em">V2: 0.976 pu</text>
    </g>
  </g>
</g>
<g font-family="sans-serif" fill="#4682B4" font-size="2.12" id="img-5713e41c-161">
  <g transform="translate(94.32,73.8)">
    <g class="primitive">
      <text text-anchor="middle" dy="0.6em">V1: 0.976 pu</text>
    </g>
  </g>
</g>
<g font-family="sans-serif" fill="#000000" font-size="2.12" id="img-5713e41c-162">
  <g transform="translate(94.32,71.4)">
    <g class="primitive">
      <text text-anchor="middle" dy="0.6em">S3: 25%</text>
    </g>
  </g>
</g>
<g font-family="sans-serif" fill="#000000" font-size="2.12" id="img-5713e41c-163">
  <g transform="translate(94.32,69)">
    <g class="primitive">
      <text text-anchor="middle" dy="0.6em">S1: 25%</text>
    </g>
  </g>
</g>
<g fill="#000000" font-size="3.18" id="img-5713e41c-164">
  <g transform="translate(94.32,60.6)">
    <g class="primitive">
      <text text-anchor="middle" dy="-0em">692 (L13)</text>
    </g>
  </g>
</g>
<g font-family="sans-serif" fill="#4682B4" font-size="2.12" id="img-5713e41c-165">
  <g transform="translate(112.32,81)">
    <g class="primitive">
      <text text-anchor="middle" dy="0.6em">V3: 0.977 pu</text>
    </g>
  </g>
</g>
<g font-family="sans-serif" fill="#4682B4" font-size="2.12" id="img-5713e41c-166">
  <g transform="translate(112.32,78.6)">
    <g class="primitive">
      <text text-anchor="middle" dy="0.6em">V2: 0.976 pu</text>
    </g>
  </g>
</g>
<g font-family="sans-serif" fill="#4682B4" font-size="2.12" id="img-5713e41c-167">
  <g transform="translate(112.32,76.2)">
    <g class="primitive">
      <text text-anchor="middle" dy="0.6em">V1: 0.976 pu</text>
    </g>
  </g>
</g>
<g font-family="sans-serif" fill="#000000" font-size="2.12" id="img-5713e41c-168">
  <g transform="translate(112.32,73.8)">
    <g class="primitive">
      <text text-anchor="middle" dy="0.6em">S3: 19%</text>
    </g>
  </g>
</g>
<g font-family="sans-serif" fill="#000000" font-size="2.12" id="img-5713e41c-169">
  <g transform="translate(112.32,71.4)">
    <g class="primitive">
      <text text-anchor="middle" dy="0.6em">S2: 19%</text>
    </g>
  </g>
</g>
<g font-family="sans-serif" fill="#000000" font-size="2.12" id="img-5713e41c-170">
  <g transform="translate(112.32,69)">
    <g class="primitive">
      <text text-anchor="middle" dy="0.6em">S1: 19%</text>
    </g>
  </g>
</g>
<g fill="#000000" font-size="3.18" id="img-5713e41c-171">
  <g transform="translate(112.32,60.6)">
    <g class="primitive">
      <text text-anchor="middle" dy="-0em">675 (L12,2,4)</text>
    </g>
  </g>
</g>
<g font-family="sans-serif" fill="#4682B4" font-size="2.12" id="img-5713e41c-172">
  <g transform="translate(9.18,50.4)">
    <g class="primitive">
      <text text-anchor="middle" dy="0.35em">φ3: 4.4%</text>
    </g>
  </g>
</g>
<g font-family="sans-serif" fill="#4682B4" font-size="2.12" id="img-5713e41c-173">
  <g transform="translate(9.18,48)">
    <g class="primitive">
      <text text-anchor="middle" dy="0.35em">φ2: 1.3%</text>
    </g>
  </g>
</g>
<g font-family="sans-serif" fill="#4682B4" font-size="2.12" id="img-5713e41c-174">
  <g transform="translate(9.18,45.6)">
    <g class="primitive">
      <text text-anchor="middle" dy="0.35em">φ1: 8.3%</text>
    </g>
  </g>
</g>
<g font-family="sans-serif" fill="#4682B4" font-size="2.12" id="img-5713e41c-175">
  <g transform="translate(115.02,50.4)">
    <g class="primitive">
      <text text-anchor="middle" dy="0.35em">φ3: 2.0%</text>
    </g>
  </g>
</g>
<g font-family="sans-serif" fill="#4682B4" font-size="2.12" id="img-5713e41c-176">
  <g transform="translate(115.02,48)">
    <g class="primitive">
      <text text-anchor="middle" dy="0.35em">φ2: 0.2%</text>
    </g>
  </g>
</g>
<g font-family="sans-serif" fill="#4682B4" font-size="2.12" id="img-5713e41c-177">
  <g transform="translate(115.02,45.6)">
    <g class="primitive">
      <text text-anchor="middle" dy="0.35em">φ1: 2.4%</text>
    </g>
  </g>
</g>
<g font-family="sans-serif" fill="#4682B4" font-size="2.12" id="img-5713e41c-178">
  <g transform="translate(80.46,34.2)">
    <g class="primitive">
      <text text-anchor="middle" dy="0.35em">φ3: 19.8%</text>
    </g>
  </g>
</g>
<g font-family="sans-serif" fill="#4682B4" font-size="2.12" id="img-5713e41c-179">
  <g transform="translate(80.46,31.8)">
    <g class="primitive">
      <text text-anchor="middle" dy="0.35em">φ2: 3.2%</text>
    </g>
  </g>
</g>
<g font-family="sans-serif" fill="#4682B4" font-size="2.12" id="img-5713e41c-180">
  <g transform="translate(80.46,29.4)">
    <g class="primitive">
      <text text-anchor="middle" dy="0.35em">φ1: 24.8%</text>
    </g>
  </g>
</g>
<g font-family="sans-serif" fill="#4682B4" font-size="2.12" id="img-5713e41c-181">
  <g transform="translate(52.74,28.2)">
    <g class="primitive">
      <text text-anchor="middle" dy="0.35em">φ3: 13.2%</text>
    </g>
  </g>
</g>
<g font-family="sans-serif" fill="#4682B4" font-size="2.12" id="img-5713e41c-182">
  <g transform="translate(52.74,25.8)">
    <g class="primitive">
      <text text-anchor="middle" dy="0.35em">φ2: 7.0%</text>
    </g>
  </g>
</g>
<g font-family="sans-serif" fill="#4682B4" font-size="2.12" id="img-5713e41c-183">
  <g transform="translate(52.74,23.4)">
    <g class="primitive">
      <text text-anchor="middle" dy="0.35em">φ1: 8.1%</text>
    </g>
  </g>
</g>
<g font-family="sans-serif" fill="#4682B4" font-size="2.12" id="img-5713e41c-184">
  <g transform="translate(80.46,72.6)">
    <g class="primitive">
      <text text-anchor="middle" dy="0.35em">φ3: 3.7%</text>
    </g>
  </g>
</g>
<g font-family="sans-serif" fill="#4682B4" font-size="2.12" id="img-5713e41c-185">
  <g transform="translate(80.46,70.2)">
    <g class="primitive">
      <text text-anchor="middle" dy="0.35em">φ2: 0.1%</text>
    </g>
  </g>
</g>
<g font-family="sans-serif" fill="#4682B4" font-size="2.12" id="img-5713e41c-186">
  <g transform="translate(80.46,67.8)">
    <g class="primitive">
      <text text-anchor="middle" dy="0.35em">φ1: 13.9%</text>
    </g>
  </g>
</g>
<g font-family="sans-serif" fill="#4682B4" font-size="2.12" id="img-5713e41c-187">
  <g transform="translate(62.1,60)">
    <g class="primitive">
      <text text-anchor="middle" dy="0.35em">φ3: 14.5%</text>
    </g>
  </g>
</g>
<g font-family="sans-serif" fill="#4682B4" font-size="2.12" id="img-5713e41c-188">
  <g transform="translate(62.1,57.6)">
    <g class="primitive">
      <text text-anchor="middle" dy="0.35em">φ2: 10.9%</text>
    </g>
  </g>
</g>
<g font-family="sans-serif" fill="#4682B4" font-size="2.12" id="img-5713e41c-189">
  <g transform="translate(62.1,55.2)">
    <g class="primitive">
      <text text-anchor="middle" dy="0.35em">φ1: 15.2%</text>
    </g>
  </g>
</g>
<g fill="#000000" font-size="3.18" id="img-5713e41c-190">
  <g transform="translate(140.4,63.36)">
    <g class="primitive">
      <text dy="0.35em">75-100% shed</text>
    </g>
  </g>
</g>
<g stroke-width="0.2" stroke="#000000" fill="#ADCFEB" id="img-5713e41c-191">
  <g transform="translate(136.44,63.36)">
    <circle cx="0" cy="0" r="1.44" class="primitive"/>
  </g>
</g>
<g fill="#000000" font-size="3.18" id="img-5713e41c-192">
  <g transform="translate(140.4,59.52)">
    <g class="primitive">
      <text dy="0.35em">50-75% shed</text>
    </g>
  </g>
</g>
<g stroke-width="0.2" stroke="#000000" fill="#5C9FD6" id="img-5713e41c-193">
  <g transform="translate(136.44,59.52)">
    <circle cx="0" cy="0" r="1.44" class="primitive"/>
  </g>
</g>
<g fill="#000000" font-size="3.18" id="img-5713e41c-194">
  <g transform="translate(140.4,55.68)">
    <g class="primitive">
      <text dy="0.35em">25-50% shed</text>
    </g>
  </g>
</g>
<g stroke-width="0.2" stroke="#000000" fill="#2E7AB8" id="img-5713e41c-195">
  <g transform="translate(136.44,55.68)">
    <circle cx="0" cy="0" r="1.44" class="primitive"/>
  </g>
</g>
<g fill="#000000" font-size="3.18" id="img-5713e41c-196">
  <g transform="translate(140.4,51.84)">
    <g class="primitive">
      <text dy="0.35em">0-25% shed</text>
    </g>
  </g>
</g>
<g stroke-width="0.2" stroke="#000000" fill="#1F517A" id="img-5713e41c-197">
  <g transform="translate(136.44,51.84)">
    <circle cx="0" cy="0" r="1.44" class="primitive"/>
  </g>
</g>
<g fill="#000000" font-size="3.18" id="img-5713e41c-198">
  <g transform="translate(135,48)">
    <g class="primitive">
      <text dy="0.6em">Load Bus (% shed):</text>
    </g>
  </g>
</g>
<g fill="#000000" font-size="3.18" id="img-5713e41c-199">
  <g transform="translate(139.5,44.16)">
    <g class="primitive">
      <text dy="0.35em">Outside 0.95-1.05 pu</text>
    </g>
  </g>
</g>
<g fill="#8B008B" font-size="3.18" id="img-5713e41c-200">
  <g transform="translate(135,44.16)">
    <g class="primitive">
      <text dy="0.35em">V:</text>
    </g>
  </g>
</g>
<g fill="#000000" font-size="3.18" id="img-5713e41c-201">
  <g transform="translate(139.5,40.32)">
    <g class="primitive">
      <text dy="0.35em">0.95-0.97 or 1.03-1.05 pu</text>
    </g>
  </g>
</g>
<g fill="#DAA520" font-size="3.18" id="img-5713e41c-202">
  <g transform="translate(135,40.32)">
    <g class="primitive">
      <text dy="0.35em">V:</text>
    </g>
  </g>
</g>
<g fill="#000000" font-size="3.18" id="img-5713e41c-203">
  <g transform="translate(139.5,36.48)">
    <g class="primitive">
      <text dy="0.35em">0.97-1.03 pu (normal)</text>
    </g>
  </g>
</g>
<g fill="#4682B4" font-size="3.18" id="img-5713e41c-204">
  <g transform="translate(135,36.48)">
    <g class="primitive">
      <text dy="0.35em">V:</text>
    </g>
  </g>
</g>
<g fill="#000000" font-size="3.18" id="img-5713e41c-205">
  <g transform="translate(135,32.64)">
    <g class="primitive">
      <text dy="0.6em">Bus Voltage:</text>
    </g>
  </g>
</g>
<g fill="#000000" font-size="3.18" id="img-5713e41c-206">
  <g transform="translate(144,28.8)">
    <g class="primitive">
      <text dy="0.35em">Open</text>
    </g>
  </g>
</g>
<g stroke-dasharray="2,1" stroke-width="1.2" stroke="#808080" id="img-5713e41c-207">
  <g transform="translate(138.6,28.8)">
    <path fill="none" d="M-3.6,0 L3.6,0 " class="primitive"/>
  </g>
</g>
<g fill="#000000" font-size="3.18" id="img-5713e41c-208">
  <g transform="translate(144,24.96)">
    <g class="primitive">
      <text dy="0.35em">>100% (violation)</text>
    </g>
  </g>
</g>
<g stroke-dasharray="2,1" stroke-width="1.2" stroke="#FF0000" id="img-5713e41c-209">
  <g transform="translate(138.6,24.96)">
    <path fill="none" d="M-3.6,0 L3.6,0 " class="primitive"/>
  </g>
</g>
<g fill="#000000" font-size="3.18" id="img-5713e41c-210">
  <g transform="translate(144,21.12)">
    <g class="primitive">
      <text dy="0.35em">80-100%</text>
    </g>
  </g>
</g>
<g stroke-dasharray="2,1" stroke-width="1.2" stroke="#800080" id="img-5713e41c-211">
  <g transform="translate(138.6,21.12)">
    <path fill="none" d="M-3.6,0 L3.6,0 " class="primitive"/>
  </g>
</g>
<g fill="#000000" font-size="3.18" id="img-5713e41c-212">
  <g transform="translate(144,17.28)">
    <g class="primitive">
      <text dy="0.35em">50-80%</text>
    </g>
  </g>
</g>
<g stroke-dasharray="2,1" stroke-width="1.2" stroke="#008B8B" id="img-5713e41c-213">
  <g transform="translate(138.6,17.28)">
    <path fill="none" d="M-3.6,0 L3.6,0 " class="primitive"/>
  </g>
</g>
<g fill="#000000" font-size="3.18" id="img-5713e41c-214">
  <g transform="translate(144,13.44)">
    <g class="primitive">
      <text dy="0.35em">Under 50%</text>
    </g>
  </g>
</g>
<g stroke-dasharray="2,1" stroke-width="1.2" stroke="#4682B4" id="img-5713e41c-215">
  <g transform="translate(138.6,13.44)">
    <path fill="none" d="M-3.6,0 L3.6,0 " class="primitive"/>
  </g>
</g>
<g fill="#000000" font-size="3.18" id="img-5713e41c-216">
  <g transform="translate(135,9.6)">
    <g class="primitive">
      <text dy="0.6em">Switch Utilization:</text>
    </g>
  </g>
</g>
<g stroke="#A9A9A9" fill="#808080" id="img-5713e41c-217">
  <g transform="translate(94.32,26.4)">
    <circle cx="0" cy="0" r="2.16" class="primitive"/>
  </g>
</g>
<g stroke="#A9A9A9" fill="#808080" id="img-5713e41c-218">
  <g transform="translate(81.72,86.4)">
    <circle cx="0" cy="0" r="2.16" class="primitive"/>
  </g>
</g>
<g stroke-width="0.3" stroke="#000000" fill="#3284C7" id="img-5713e41c-219">
  <g transform="translate(66.6,45.6)">
    <circle cx="0" cy="0" r="3.24" class="primitive"/>
  </g>
</g>
<g stroke-width="0.3" stroke="#000000" fill="#307FC0" id="img-5713e41c-220">
  <g transform="translate(28.8,86.4)">
    <circle cx="0" cy="0" r="3.24" class="primitive"/>
  </g>
</g>
<g stroke-width="0.3" stroke="#000000" fill="#296EA6" id="img-5713e41c-221">
  <g transform="translate(13.68,64.8)">
    <circle cx="0" cy="0" r="3.24" class="primitive"/>
  </g>
</g>
<g stroke-width="0.3" stroke="#000000" fill="#2E7AB8" id="img-5713e41c-222">
  <g transform="translate(119.52,26.4)">
    <circle cx="0" cy="0" r="3.24" class="primitive"/>
  </g>
</g>
<g stroke-width="0.3" stroke="#000000" fill="#296CA3" id="img-5713e41c-223">
  <g transform="translate(13.68,26.4)">
    <circle cx="0" cy="0" r="3.24" class="primitive"/>
  </g>
</g>
<g stroke="#A9A9A9" fill="#808080" id="img-5713e41c-224">
  <g transform="translate(66.6,26.4)">
    <circle cx="0" cy="0" r="2.16" class="primitive"/>
  </g>
</g>
<g stroke="#A9A9A9" fill="#808080" id="img-5713e41c-225">
  <g transform="translate(28.8,64.8)">
    <circle cx="0" cy="0" r="2.16" class="primitive"/>
  </g>
</g>
<g stroke="#A9A9A9" fill="#808080" id="img-5713e41c-226">
  <g transform="translate(66.6,7.2)">
    <circle cx="0" cy="0" r="2.16" class="primitive"/>
  </g>
</g>
<g stroke-width="0.3" stroke="#000000" fill="#246090" id="img-5713e41c-227">
  <g transform="translate(66.6,64.8)">
    <circle cx="0" cy="0" r="3.24" class="primitive"/>
  </g>
</g>
<g stroke-width="0.3" stroke="#000000" fill="#2D76B2" id="img-5713e41c-228">
  <g transform="translate(38.88,26.4)">
    <circle cx="0" cy="0" r="3.24" class="primitive"/>
  </g>
</g>
<g stroke-width="0.3" stroke="#000000" fill="#2B73AE" id="img-5713e41c-229">
  <g transform="translate(94.32,64.8)">
    <circle cx="0" cy="0" r="3.24" class="primitive"/>
  </g>
</g>
<g stroke-width="0.3" stroke="#000000" fill="#286AA0" id="img-5713e41c-230">
  <g transform="translate(119.52,64.8)">
    <circle cx="0" cy="0" r="3.24" class="primitive"/>
  </g>
</g>
</svg>
