<?xml version="1.0" encoding="utf-8"?>
<svg xmlns="http://www.w3.org/2000/svg" xmlns:xlink="http://www.w3.org/1999/xlink" width="600" height="400" viewBox="0 0 2400 1600">
<defs>
  <clipPath id="clip840">
    <rect x="0" y="0" width="2400" height="1600"/>
  </clipPath>
</defs>
<path clip-path="url(#clip840)" d="M0 1600 L2400 1600 L2400 0 L0 0  Z" fill="#ffffff" fill-rule="evenodd" fill-opacity="1"/>
<defs>
  <clipPath id="clip841">
    <rect x="480" y="0" width="1681" height="1600"/>
  </clipPath>
</defs>
<path clip-path="url(#clip840)" d="M174.149 1423.18 L2352.76 1423.18 L2352.76 123.472 L174.149 123.472  Z" fill="#ffffff" fill-rule="evenodd" fill-opacity="1"/>
<defs>
  <clipPath id="clip842">
    <rect x="174" y="123" width="2180" height="1301"/>
  </clipPath>
</defs>
<polyline clip-path="url(#clip842)" style="stroke:#000000; stroke-linecap:round; stroke-linejoin:round; stroke-width:2; stroke-opacity:0.1; fill:none" points="209.674,1423.18 209.674,123.472 "/>
<polyline clip-path="url(#clip842)" style="stroke:#000000; stroke-linecap:round; stroke-linejoin:round; stroke-width:2; stroke-opacity:0.1; fill:none" points="912.193,1423.18 912.193,123.472 "/>
<polyline clip-path="url(#clip842)" style="stroke:#000000; stroke-linecap:round; stroke-linejoin:round; stroke-width:2; stroke-opacity:0.1; fill:none" points="1614.71,1423.18 1614.71,123.472 "/>
<polyline clip-path="url(#clip842)" style="stroke:#000000; stroke-linecap:round; stroke-linejoin:round; stroke-width:2; stroke-opacity:0.1; fill:none" points="2317.23,1423.18 2317.23,123.472 "/>
<polyline clip-path="url(#clip842)" style="stroke:#000000; stroke-linecap:round; stroke-linejoin:round; stroke-width:2; stroke-opacity:0.1; fill:none" points="174.149,1423.18 2352.76,1423.18 "/>
<polyline clip-path="url(#clip842)" style="stroke:#000000; stroke-linecap:round; stroke-linejoin:round; stroke-width:2; stroke-opacity:0.1; fill:none" points="174.149,1037.31 2352.76,1037.31 "/>
<polyline clip-path="url(#clip842)" style="stroke:#000000; stroke-linecap:round; stroke-linejoin:round; stroke-width:2; stroke-opacity:0.1; fill:none" points="174.149,651.441 2352.76,651.441 "/>
<polyline clip-path="url(#clip842)" style="stroke:#000000; stroke-linecap:round; stroke-linejoin:round; stroke-width:2; stroke-opacity:0.1; fill:none" points="174.149,265.572 2352.76,265.572 "/>
<polyline clip-path="url(#clip840)" style="stroke:#000000; stroke-linecap:round; stroke-linejoin:round; stroke-width:4; stroke-opacity:1; fill:none" points="174.149,1423.18 2352.76,1423.18 "/>
<polyline clip-path="url(#clip840)" style="stroke:#000000; stroke-linecap:round; stroke-linejoin:round; stroke-width:4; stroke-opacity:1; fill:none" points="209.674,1423.18 209.674,1404.28 "/>
<polyline clip-path="url(#clip840)" style="stroke:#000000; stroke-linecap:round; stroke-linejoin:round; stroke-width:4; stroke-opacity:1; fill:none" points="912.193,1423.18 912.193,1404.28 "/>
<polyline clip-path="url(#clip840)" style="stroke:#000000; stroke-linecap:round; stroke-linejoin:round; stroke-width:4; stroke-opacity:1; fill:none" points="1614.71,1423.18 1614.71,1404.28 "/>
<polyline clip-path="url(#clip840)" style="stroke:#000000; stroke-linecap:round; stroke-linejoin:round; stroke-width:4; stroke-opacity:1; fill:none" points="2317.23,1423.18 2317.23,1404.28 "/>
<path clip-path="url(#clip840)" d="M209.674 1454.1 Q206.063 1454.1 204.234 1457.66 Q202.429 1461.2 202.429 1468.33 Q202.429 1475.44 204.234 1479.01 Q206.063 1482.55 209.674 1482.55 Q213.308 1482.55 215.114 1479.01 Q216.942 1475.44 216.942 1468.33 Q216.942 1461.2 215.114 1457.66 Q213.308 1454.1 209.674 1454.1 M209.674 1450.39 Q215.484 1450.39 218.54 1455 Q221.618 1459.58 221.618 1468.33 Q221.618 1477.06 218.54 1481.67 Q215.484 1486.25 209.674 1486.25 Q203.864 1486.25 200.785 1481.67 Q197.73 1477.06 197.73 1468.33 Q197.73 1459.58 200.785 1455 Q203.864 1450.39 209.674 1450.39 Z" fill="#000000" fill-rule="nonzero" fill-opacity="1" /><path clip-path="url(#clip840)" d="M902.471 1451.02 L920.827 1451.02 L920.827 1454.96 L906.753 1454.96 L906.753 1463.43 Q907.772 1463.08 908.79 1462.92 Q909.809 1462.73 910.827 1462.73 Q916.614 1462.73 919.994 1465.9 Q923.373 1469.08 923.373 1474.49 Q923.373 1480.07 919.901 1483.17 Q916.429 1486.25 910.11 1486.25 Q907.934 1486.25 905.665 1485.88 Q903.42 1485.51 901.012 1484.77 L901.012 1480.07 Q903.096 1481.2 905.318 1481.76 Q907.54 1482.32 910.017 1482.32 Q914.022 1482.32 916.36 1480.21 Q918.698 1478.1 918.698 1474.49 Q918.698 1470.88 916.36 1468.77 Q914.022 1466.67 910.017 1466.67 Q908.142 1466.67 906.267 1467.08 Q904.415 1467.5 902.471 1468.38 L902.471 1451.02 Z" fill="#000000" fill-rule="nonzero" fill-opacity="1" /><path clip-path="url(#clip840)" d="M1589.4 1481.64 L1597.04 1481.64 L1597.04 1455.28 L1588.73 1456.95 L1588.73 1452.69 L1596.99 1451.02 L1601.67 1451.02 L1601.67 1481.64 L1609.31 1481.64 L1609.31 1485.58 L1589.4 1485.58 L1589.4 1481.64 Z" fill="#000000" fill-rule="nonzero" fill-opacity="1" /><path clip-path="url(#clip840)" d="M1628.75 1454.1 Q1625.14 1454.1 1623.31 1457.66 Q1621.51 1461.2 1621.51 1468.33 Q1621.51 1475.44 1623.31 1479.01 Q1625.14 1482.55 1628.75 1482.55 Q1632.39 1482.55 1634.19 1479.01 Q1636.02 1475.44 1636.02 1468.33 Q1636.02 1461.2 1634.19 1457.66 Q1632.39 1454.1 1628.75 1454.1 M1628.75 1450.39 Q1634.56 1450.39 1637.62 1455 Q1640.7 1459.58 1640.7 1468.33 Q1640.7 1477.06 1637.62 1481.67 Q1634.56 1486.25 1628.75 1486.25 Q1622.94 1486.25 1619.86 1481.67 Q1616.81 1477.06 1616.81 1468.33 Q1616.81 1459.58 1619.86 1455 Q1622.94 1450.39 1628.75 1450.39 Z" fill="#000000" fill-rule="nonzero" fill-opacity="1" /><path clip-path="url(#clip840)" d="M2292.42 1481.64 L2300.06 1481.64 L2300.06 1455.28 L2291.74 1456.95 L2291.74 1452.69 L2300.01 1451.02 L2304.68 1451.02 L2304.68 1481.64 L2312.32 1481.64 L2312.32 1485.58 L2292.42 1485.58 L2292.42 1481.64 Z" fill="#000000" fill-rule="nonzero" fill-opacity="1" /><path clip-path="url(#clip840)" d="M2321.81 1451.02 L2340.17 1451.02 L2340.17 1454.96 L2326.1 1454.96 L2326.1 1463.43 Q2327.12 1463.08 2328.13 1462.92 Q2329.15 1462.73 2330.17 1462.73 Q2335.96 1462.73 2339.34 1465.9 Q2342.72 1469.08 2342.72 1474.49 Q2342.72 1480.07 2339.24 1483.17 Q2335.77 1486.25 2329.45 1486.25 Q2327.28 1486.25 2325.01 1485.88 Q2322.76 1485.51 2320.36 1484.77 L2320.36 1480.07 Q2322.44 1481.2 2324.66 1481.76 Q2326.88 1482.32 2329.36 1482.32 Q2333.37 1482.32 2335.7 1480.21 Q2338.04 1478.1 2338.04 1474.49 Q2338.04 1470.88 2335.7 1468.77 Q2333.37 1466.67 2329.36 1466.67 Q2327.49 1466.67 2325.61 1467.08 Q2323.76 1467.5 2321.81 1468.38 L2321.81 1451.02 Z" fill="#000000" fill-rule="nonzero" fill-opacity="1" /><path clip-path="url(#clip840)" d="M1145.32 1520.52 L1151.75 1520.52 L1151.75 1562.63 L1174.89 1562.63 L1174.89 1568.04 L1145.32 1568.04 L1145.32 1520.52 Z" fill="#000000" fill-rule="nonzero" fill-opacity="1" /><path clip-path="url(#clip840)" d="M1194.05 1536.5 Q1189.34 1536.5 1186.6 1540.19 Q1183.87 1543.85 1183.87 1550.25 Q1183.87 1556.65 1186.57 1560.34 Q1189.31 1564 1194.05 1564 Q1198.73 1564 1201.47 1560.31 Q1204.2 1556.62 1204.2 1550.25 Q1204.2 1543.92 1201.47 1540.23 Q1198.73 1536.5 1194.05 1536.5 M1194.05 1531.54 Q1201.69 1531.54 1206.05 1536.5 Q1210.41 1541.47 1210.41 1550.25 Q1210.41 1559 1206.05 1564 Q1201.69 1568.97 1194.05 1568.97 Q1186.38 1568.97 1182.02 1564 Q1177.69 1559 1177.69 1550.25 Q1177.69 1541.47 1182.02 1536.5 Q1186.38 1531.54 1194.05 1531.54 Z" fill="#000000" fill-rule="nonzero" fill-opacity="1" /><path clip-path="url(#clip840)" d="M1236.32 1550.12 Q1229.22 1550.12 1226.48 1551.75 Q1223.75 1553.37 1223.75 1557.29 Q1223.75 1560.4 1225.78 1562.25 Q1227.85 1564.07 1231.39 1564.07 Q1236.25 1564.07 1239.18 1560.63 Q1242.14 1557.16 1242.14 1551.43 L1242.14 1550.12 L1236.32 1550.12 M1248 1547.71 L1248 1568.04 L1242.14 1568.04 L1242.14 1562.63 Q1240.14 1565.88 1237.15 1567.44 Q1234.15 1568.97 1229.83 1568.97 Q1224.35 1568.97 1221.1 1565.91 Q1217.89 1562.82 1217.89 1557.67 Q1217.89 1551.65 1221.9 1548.6 Q1225.94 1545.54 1233.93 1545.54 L1242.14 1545.54 L1242.14 1544.97 Q1242.14 1540.93 1239.47 1538.73 Q1236.83 1536.5 1232.02 1536.5 Q1228.97 1536.5 1226.07 1537.23 Q1223.17 1537.97 1220.5 1539.43 L1220.5 1534.02 Q1223.71 1532.78 1226.74 1532.17 Q1229.76 1531.54 1232.63 1531.54 Q1240.36 1531.54 1244.18 1535.55 Q1248 1539.56 1248 1547.71 Z" fill="#000000" fill-rule="nonzero" fill-opacity="1" /><path clip-path="url(#clip840)" d="M1283.52 1537.81 L1283.52 1518.52 L1289.38 1518.52 L1289.38 1568.04 L1283.52 1568.04 L1283.52 1562.7 Q1281.67 1565.88 1278.84 1567.44 Q1276.04 1568.97 1272.09 1568.97 Q1265.63 1568.97 1261.56 1563.81 Q1257.52 1558.65 1257.52 1550.25 Q1257.52 1541.85 1261.56 1536.69 Q1265.63 1531.54 1272.09 1531.54 Q1276.04 1531.54 1278.84 1533.1 Q1281.67 1534.62 1283.52 1537.81 M1263.56 1550.25 Q1263.56 1556.71 1266.21 1560.4 Q1268.88 1564.07 1273.53 1564.07 Q1278.17 1564.07 1280.85 1560.4 Q1283.52 1556.71 1283.52 1550.25 Q1283.52 1543.79 1280.85 1540.13 Q1278.17 1536.44 1273.53 1536.44 Q1268.88 1536.44 1266.21 1540.13 Q1263.56 1543.79 1263.56 1550.25 Z" fill="#000000" fill-rule="nonzero" fill-opacity="1" /><path clip-path="url(#clip840)" d="M1322.41 1520.52 L1328.84 1520.52 L1328.84 1568.04 L1322.41 1568.04 L1322.41 1520.52 Z" fill="#000000" fill-rule="nonzero" fill-opacity="1" /><path clip-path="url(#clip840)" d="M1348.07 1525.81 L1348.07 1562.76 L1355.83 1562.76 Q1365.67 1562.76 1370.22 1558.3 Q1374.8 1553.85 1374.8 1544.24 Q1374.8 1534.69 1370.22 1530.26 Q1365.67 1525.81 1355.83 1525.81 L1348.07 1525.81 M1341.64 1520.52 L1354.85 1520.52 Q1368.66 1520.52 1375.12 1526.28 Q1381.58 1532.01 1381.58 1544.24 Q1381.58 1556.52 1375.09 1562.28 Q1368.6 1568.04 1354.85 1568.04 L1341.64 1568.04 L1341.64 1520.52 Z" fill="#000000" fill-rule="nonzero" fill-opacity="1" /><polyline clip-path="url(#clip840)" style="stroke:#000000; stroke-linecap:round; stroke-linejoin:round; stroke-width:4; stroke-opacity:1; fill:none" points="174.149,1423.18 174.149,123.472 "/>
<polyline clip-path="url(#clip840)" style="stroke:#000000; stroke-linecap:round; stroke-linejoin:round; stroke-width:4; stroke-opacity:1; fill:none" points="174.149,1423.18 193.047,1423.18 "/>
<polyline clip-path="url(#clip840)" style="stroke:#000000; stroke-linecap:round; stroke-linejoin:round; stroke-width:4; stroke-opacity:1; fill:none" points="174.149,1037.31 193.047,1037.31 "/>
<polyline clip-path="url(#clip840)" style="stroke:#000000; stroke-linecap:round; stroke-linejoin:round; stroke-width:4; stroke-opacity:1; fill:none" points="174.149,651.441 193.047,651.441 "/>
<polyline clip-path="url(#clip840)" style="stroke:#000000; stroke-linecap:round; stroke-linejoin:round; stroke-width:4; stroke-opacity:1; fill:none" points="174.149,265.572 193.047,265.572 "/>
<path clip-path="url(#clip840)" d="M126.205 1408.98 Q122.593 1408.98 120.765 1412.54 Q118.959 1416.08 118.959 1423.21 Q118.959 1430.32 120.765 1433.89 Q122.593 1437.43 126.205 1437.43 Q129.839 1437.43 131.644 1433.89 Q133.473 1430.32 133.473 1423.21 Q133.473 1416.08 131.644 1412.54 Q129.839 1408.98 126.205 1408.98 M126.205 1405.27 Q132.015 1405.27 135.07 1409.88 Q138.149 1414.46 138.149 1423.21 Q138.149 1431.94 135.07 1436.55 Q132.015 1441.13 126.205 1441.13 Q120.394 1441.13 117.316 1436.55 Q114.26 1431.94 114.26 1423.21 Q114.26 1414.46 117.316 1409.88 Q120.394 1405.27 126.205 1405.27 Z" fill="#000000" fill-rule="nonzero" fill-opacity="1" /><path clip-path="url(#clip840)" d="M118.242 1050.66 L125.88 1050.66 L125.88 1024.29 L117.57 1025.96 L117.57 1021.7 L125.834 1020.03 L130.51 1020.03 L130.51 1050.66 L138.149 1050.66 L138.149 1054.59 L118.242 1054.59 L118.242 1050.66 Z" fill="#000000" fill-rule="nonzero" fill-opacity="1" /><path clip-path="url(#clip840)" d="M121.83 664.786 L138.149 664.786 L138.149 668.721 L116.205 668.721 L116.205 664.786 Q118.867 662.031 123.45 657.402 Q128.056 652.749 129.237 651.407 Q131.482 648.883 132.362 647.147 Q133.265 645.388 133.265 643.698 Q133.265 640.944 131.32 639.207 Q129.399 637.471 126.297 637.471 Q124.098 637.471 121.644 638.235 Q119.214 638.999 116.436 640.55 L116.436 635.828 Q119.26 634.694 121.714 634.115 Q124.168 633.536 126.205 633.536 Q131.575 633.536 134.769 636.221 Q137.964 638.907 137.964 643.397 Q137.964 645.527 137.154 647.448 Q136.367 649.346 134.26 651.939 Q133.681 652.61 130.58 655.828 Q127.478 659.022 121.83 664.786 Z" fill="#000000" fill-rule="nonzero" fill-opacity="1" /><path clip-path="url(#clip840)" d="M131.019 264.218 Q134.376 264.935 136.251 267.204 Q138.149 269.472 138.149 272.806 Q138.149 277.921 134.63 280.722 Q131.112 283.523 124.63 283.523 Q122.455 283.523 120.14 283.083 Q117.848 282.667 115.394 281.81 L115.394 277.296 Q117.339 278.431 119.654 279.009 Q121.968 279.588 124.492 279.588 Q128.89 279.588 131.181 277.852 Q133.496 276.116 133.496 272.806 Q133.496 269.75 131.343 268.037 Q129.214 266.301 125.394 266.301 L121.367 266.301 L121.367 262.459 L125.58 262.459 Q129.029 262.459 130.857 261.093 Q132.686 259.704 132.686 257.111 Q132.686 254.449 130.788 253.037 Q128.913 251.602 125.394 251.602 Q123.473 251.602 121.274 252.019 Q119.075 252.435 116.436 253.315 L116.436 249.148 Q119.098 248.408 121.413 248.037 Q123.751 247.667 125.811 247.667 Q131.135 247.667 134.237 250.097 Q137.339 252.505 137.339 256.625 Q137.339 259.496 135.695 261.486 Q134.052 263.454 131.019 264.218 Z" fill="#000000" fill-rule="nonzero" fill-opacity="1" /><path clip-path="url(#clip840)" d="M16.4842 1039.99 L16.4842 1012.68 L21.895 1012.68 L21.895 1033.56 L35.8996 1033.56 L35.8996 1014.71 L41.3104 1014.71 L41.3104 1033.56 L64.0042 1033.56 L64.0042 1039.99 L16.4842 1039.99 Z" fill="#000000" fill-rule="nonzero" fill-opacity="1" /><path clip-path="url(#clip840)" d="M46.0847 992.529 Q46.0847 999.627 47.7079 1002.36 Q49.3312 1005.1 53.2461 1005.1 Q56.3653 1005.1 58.2114 1003.06 Q60.0256 1001 60.0256 997.463 Q60.0256 992.593 56.5881 989.665 Q53.1188 986.704 47.3897 986.704 L46.0847 986.704 L46.0847 992.529 M43.6657 980.848 L64.0042 980.848 L64.0042 986.704 L58.5933 986.704 Q61.8398 988.71 63.3994 991.702 Q64.9272 994.693 64.9272 999.022 Q64.9272 1004.5 61.8716 1007.74 Q58.7843 1010.96 53.6281 1010.96 Q47.6125 1010.96 44.5569 1006.95 Q41.5014 1002.91 41.5014 994.916 L41.5014 986.704 L40.9285 986.704 Q36.8862 986.704 34.6901 989.378 Q32.4621 992.02 32.4621 996.826 Q32.4621 999.881 33.1941 1002.78 Q33.9262 1005.67 35.3903 1008.35 L29.9795 1008.35 Q28.7381 1005.13 28.1334 1002.11 Q27.4968 999.086 27.4968 996.221 Q27.4968 988.487 31.5072 984.667 Q35.5176 980.848 43.6657 980.848 Z" fill="#000000" fill-rule="nonzero" fill-opacity="1" /><path clip-path="url(#clip840)" d="M28.3562 968.785 L28.3562 962.929 L64.0042 962.929 L64.0042 968.785 L28.3562 968.785 M14.479 968.785 L14.479 962.929 L21.895 962.929 L21.895 968.785 L14.479 968.785 Z" fill="#000000" fill-rule="nonzero" fill-opacity="1" /><path clip-path="url(#clip840)" d="M33.8307 930.018 Q33.2578 931.005 33.0032 932.182 Q32.7167 933.328 32.7167 934.728 Q32.7167 939.694 35.9632 942.367 Q39.1779 945.009 45.2253 945.009 L64.0042 945.009 L64.0042 950.897 L28.3562 950.897 L28.3562 945.009 L33.8944 945.009 Q30.6479 943.163 29.0883 940.203 Q27.4968 937.243 27.4968 933.01 Q27.4968 932.405 27.5923 931.673 Q27.656 930.941 27.8151 930.05 L33.8307 930.018 Z" fill="#000000" fill-rule="nonzero" fill-opacity="1" /><path clip-path="url(#clip840)" d="M16.4842 902.9 L16.4842 896.471 L58.5933 896.471 L58.5933 873.331 L64.0042 873.331 L64.0042 902.9 L16.4842 902.9 Z" fill="#000000" fill-rule="nonzero" fill-opacity="1" /><path clip-path="url(#clip840)" d="M32.4621 854.17 Q32.4621 858.881 36.1542 861.618 Q39.8145 864.356 46.212 864.356 Q52.6095 864.356 56.3017 861.65 Q59.9619 858.913 59.9619 854.17 Q59.9619 849.492 56.2698 846.754 Q52.5777 844.017 46.212 844.017 Q39.8781 844.017 36.186 846.754 Q32.4621 849.492 32.4621 854.17 M27.4968 854.17 Q27.4968 846.532 32.4621 842.171 Q37.4273 837.811 46.212 837.811 Q54.9649 837.811 59.9619 842.171 Q64.9272 846.532 64.9272 854.17 Q64.9272 861.841 59.9619 866.202 Q54.9649 870.53 46.212 870.53 Q37.4273 870.53 32.4621 866.202 Q27.4968 861.841 27.4968 854.17 Z" fill="#000000" fill-rule="nonzero" fill-opacity="1" /><path clip-path="url(#clip840)" d="M46.0847 811.902 Q46.0847 819 47.7079 821.737 Q49.3312 824.474 53.2461 824.474 Q56.3653 824.474 58.2114 822.437 Q60.0256 820.369 60.0256 816.836 Q60.0256 811.966 56.5881 809.038 Q53.1188 806.078 47.3897 806.078 L46.0847 806.078 L46.0847 811.902 M43.6657 800.221 L64.0042 800.221 L64.0042 806.078 L58.5933 806.078 Q61.8398 808.083 63.3994 811.075 Q64.9272 814.067 64.9272 818.395 Q64.9272 823.87 61.8716 827.116 Q58.7843 830.331 53.6281 830.331 Q47.6125 830.331 44.5569 826.32 Q41.5014 822.278 41.5014 814.289 L41.5014 806.078 L40.9285 806.078 Q36.8862 806.078 34.6901 808.751 Q32.4621 811.393 32.4621 816.199 Q32.4621 819.255 33.1941 822.151 Q33.9262 825.047 35.3903 827.721 L29.9795 827.721 Q28.7381 824.506 28.1334 821.483 Q27.4968 818.459 27.4968 815.594 Q27.4968 807.86 31.5072 804.041 Q35.5176 800.221 43.6657 800.221 Z" fill="#000000" fill-rule="nonzero" fill-opacity="1" /><path clip-path="url(#clip840)" d="M33.7671 764.7 L14.479 764.7 L14.479 758.844 L64.0042 758.844 L64.0042 764.7 L58.657 764.7 Q61.8398 766.547 63.3994 769.379 Q64.9272 772.18 64.9272 776.127 Q64.9272 782.588 59.771 786.662 Q54.6147 790.704 46.212 790.704 Q37.8093 790.704 32.6531 786.662 Q27.4968 782.588 27.4968 776.127 Q27.4968 772.18 29.0564 769.379 Q30.5842 766.547 33.7671 764.7 M46.212 784.657 Q52.6732 784.657 56.3653 782.015 Q60.0256 779.342 60.0256 774.695 Q60.0256 770.048 56.3653 767.374 Q52.6732 764.7 46.212 764.7 Q39.7508 764.7 36.0905 767.374 Q32.3984 770.048 32.3984 774.695 Q32.3984 779.342 36.0905 782.015 Q39.7508 784.657 46.212 784.657 Z" fill="#000000" fill-rule="nonzero" fill-opacity="1" /><path clip-path="url(#clip840)" d="M16.4842 730.039 L16.4842 723.546 L56.6518 713.552 L16.4842 703.59 L16.4842 696.365 L56.6518 686.37 L16.4842 676.408 L16.4842 669.883 L64.0042 681.819 L64.0042 689.903 L22.7544 699.929 L64.0042 710.051 L64.0042 718.135 L16.4842 730.039 Z" fill="#000000" fill-rule="nonzero" fill-opacity="1" /><path clip-path="url(#clip840)" d="M44.7161 634.936 L47.5806 634.936 L47.5806 661.862 Q53.6281 661.481 56.8109 658.234 Q59.9619 654.956 59.9619 649.131 Q59.9619 645.757 59.1344 642.606 Q58.3069 639.423 56.6518 636.304 L62.1899 636.304 Q63.5267 639.455 64.227 642.765 Q64.9272 646.076 64.9272 649.481 Q64.9272 658.011 59.9619 663.008 Q54.9967 667.974 46.5303 667.974 Q37.7774 667.974 32.6531 663.263 Q27.4968 658.52 27.4968 650.5 Q27.4968 643.306 32.1438 639.137 Q36.7589 634.936 44.7161 634.936 M42.9973 640.792 Q38.1912 640.856 35.3266 643.497 Q32.4621 646.107 32.4621 650.436 Q32.4621 655.338 35.2312 658.298 Q38.0002 661.226 43.0292 661.671 L42.9973 640.792 Z" fill="#000000" fill-rule="nonzero" fill-opacity="1" /><path clip-path="url(#clip840)" d="M28.3562 625.323 L28.3562 619.467 L64.0042 619.467 L64.0042 625.323 L28.3562 625.323 M14.479 625.323 L14.479 619.467 L21.895 619.467 L21.895 625.323 L14.479 625.323 Z" fill="#000000" fill-rule="nonzero" fill-opacity="1" /><path clip-path="url(#clip840)" d="M45.7664 583.755 Q39.4007 583.755 35.8996 586.397 Q32.3984 589.007 32.3984 593.749 Q32.3984 598.46 35.8996 601.102 Q39.4007 603.712 45.7664 603.712 Q52.1003 603.712 55.6014 601.102 Q59.1026 598.46 59.1026 593.749 Q59.1026 589.007 55.6014 586.397 Q52.1003 583.755 45.7664 583.755 M59.58 577.899 Q68.683 577.899 73.1071 581.941 Q77.5631 585.983 77.5631 594.322 Q77.5631 597.41 77.0857 600.147 Q76.6401 602.884 75.6852 605.462 L69.9879 605.462 Q71.3884 602.884 72.0568 600.37 Q72.7252 597.855 72.7252 595.245 Q72.7252 589.484 69.7015 586.62 Q66.7096 583.755 60.6303 583.755 L57.7339 583.755 Q60.885 585.569 62.4446 588.402 Q64.0042 591.235 64.0042 595.182 Q64.0042 601.738 59.0071 605.749 Q54.01 609.759 45.7664 609.759 Q37.491 609.759 32.4939 605.749 Q27.4968 601.738 27.4968 595.182 Q27.4968 591.235 29.0564 588.402 Q30.616 585.569 33.7671 583.755 L28.3562 583.755 L28.3562 577.899 L59.58 577.899 Z" fill="#000000" fill-rule="nonzero" fill-opacity="1" /><path clip-path="url(#clip840)" d="M42.4881 536.203 L64.0042 536.203 L64.0042 542.06 L42.679 542.06 Q37.6183 542.06 35.1038 544.033 Q32.5894 546.007 32.5894 549.953 Q32.5894 554.696 35.6131 557.433 Q38.6368 560.17 43.8567 560.17 L64.0042 560.17 L64.0042 566.059 L14.479 566.059 L14.479 560.17 L33.8944 560.17 Q30.6797 558.07 29.0883 555.237 Q27.4968 552.372 27.4968 548.648 Q27.4968 542.505 31.3163 539.354 Q35.1038 536.203 42.4881 536.203 Z" fill="#000000" fill-rule="nonzero" fill-opacity="1" /><path clip-path="url(#clip840)" d="M18.2347 518.73 L28.3562 518.73 L28.3562 506.667 L32.9077 506.667 L32.9077 518.73 L52.2594 518.73 Q56.6199 518.73 57.8613 517.552 Q59.1026 516.342 59.1026 512.682 L59.1026 506.667 L64.0042 506.667 L64.0042 512.682 Q64.0042 519.462 61.4897 522.04 Q58.9434 524.618 52.2594 524.618 L32.9077 524.618 L32.9077 528.915 L28.3562 528.915 L28.3562 524.618 L18.2347 524.618 L18.2347 518.73 Z" fill="#000000" fill-rule="nonzero" fill-opacity="1" /><path clip-path="url(#clip840)" d="M453.636 12.096 L488.393 12.096 L488.393 18.9825 L461.819 18.9825 L461.819 36.8065 L485.8 36.8065 L485.8 43.6931 L461.819 43.6931 L461.819 72.576 L453.636 72.576 L453.636 12.096 Z" fill="#000000" fill-rule="nonzero" fill-opacity="1" /><path clip-path="url(#clip840)" d="M514.035 49.7694 Q505.002 49.7694 501.518 51.8354 Q498.034 53.9013 498.034 58.8839 Q498.034 62.8538 500.627 65.2034 Q503.26 67.5124 507.756 67.5124 Q513.954 67.5124 517.681 63.1374 Q521.448 58.7219 521.448 51.4303 L521.448 49.7694 L514.035 49.7694 M528.902 46.6907 L528.902 72.576 L521.448 72.576 L521.448 65.6895 Q518.896 69.8214 515.088 71.8063 Q511.281 73.7508 505.771 73.7508 Q498.804 73.7508 494.672 69.8619 Q490.58 65.9325 490.58 59.3701 Q490.58 51.7138 495.685 47.825 Q500.829 43.9361 510.997 43.9361 L521.448 43.9361 L521.448 43.2069 Q521.448 38.0623 518.046 35.2672 Q514.683 32.4315 508.566 32.4315 Q504.678 32.4315 500.991 33.3632 Q497.305 34.295 493.902 36.1584 L493.902 29.2718 Q497.994 27.692 501.842 26.9223 Q505.69 26.1121 509.336 26.1121 Q519.18 26.1121 524.041 31.2163 Q528.902 36.3204 528.902 46.6907 Z" fill="#000000" fill-rule="nonzero" fill-opacity="1" /><path clip-path="url(#clip840)" d="M544.255 27.2059 L551.709 27.2059 L551.709 72.576 L544.255 72.576 L544.255 27.2059 M544.255 9.54393 L551.709 9.54393 L551.709 18.9825 L544.255 18.9825 L544.255 9.54393 Z" fill="#000000" fill-rule="nonzero" fill-opacity="1" /><path clip-path="url(#clip840)" d="M593.595 34.1734 Q592.339 33.4443 590.84 33.1202 Q589.382 32.7556 587.6 32.7556 Q581.28 32.7556 577.877 36.8875 Q574.515 40.9789 574.515 48.6757 L574.515 72.576 L567.021 72.576 L567.021 27.2059 L574.515 27.2059 L574.515 34.2544 Q576.865 30.1225 580.632 28.1376 Q584.399 26.1121 589.787 26.1121 Q590.557 26.1121 591.488 26.2337 Q592.42 26.3147 593.554 26.5172 L593.595 34.1734 Z" fill="#000000" fill-rule="nonzero" fill-opacity="1" /><path clip-path="url(#clip840)" d="M628.109 12.096 L636.291 12.096 L636.291 65.6895 L665.741 65.6895 L665.741 72.576 L628.109 72.576 L628.109 12.096 Z" fill="#000000" fill-rule="nonzero" fill-opacity="1" /><path clip-path="url(#clip840)" d="M690.128 32.4315 Q684.133 32.4315 680.649 37.1306 Q677.165 41.7891 677.165 49.9314 Q677.165 58.0738 680.608 62.7728 Q684.092 67.4314 690.128 67.4314 Q696.083 67.4314 699.567 62.7323 Q703.05 58.0333 703.05 49.9314 Q703.05 41.8701 699.567 37.1711 Q696.083 32.4315 690.128 32.4315 M690.128 26.1121 Q699.85 26.1121 705.4 32.4315 Q710.95 38.7509 710.95 49.9314 Q710.95 61.0714 705.4 67.4314 Q699.85 73.7508 690.128 73.7508 Q680.365 73.7508 674.816 67.4314 Q669.306 61.0714 669.306 49.9314 Q669.306 38.7509 674.816 32.4315 Q680.365 26.1121 690.128 26.1121 Z" fill="#000000" fill-rule="nonzero" fill-opacity="1" /><path clip-path="url(#clip840)" d="M743.924 49.7694 Q734.89 49.7694 731.407 51.8354 Q727.923 53.9013 727.923 58.8839 Q727.923 62.8538 730.515 65.2034 Q733.149 67.5124 737.645 67.5124 Q743.843 67.5124 747.57 63.1374 Q751.337 58.7219 751.337 51.4303 L751.337 49.7694 L743.924 49.7694 M758.791 46.6907 L758.791 72.576 L751.337 72.576 L751.337 65.6895 Q748.785 69.8214 744.977 71.8063 Q741.169 73.7508 735.66 73.7508 Q728.693 73.7508 724.561 69.8619 Q720.469 65.9325 720.469 59.3701 Q720.469 51.7138 725.573 47.825 Q730.718 43.9361 740.886 43.9361 L751.337 43.9361 L751.337 43.2069 Q751.337 38.0623 747.934 35.2672 Q744.572 32.4315 738.455 32.4315 Q734.566 32.4315 730.88 33.3632 Q727.194 34.295 723.791 36.1584 L723.791 29.2718 Q727.882 27.692 731.731 26.9223 Q735.579 26.1121 739.225 26.1121 Q749.069 26.1121 753.93 31.2163 Q758.791 36.3204 758.791 46.6907 Z" fill="#000000" fill-rule="nonzero" fill-opacity="1" /><path clip-path="url(#clip840)" d="M803.999 34.0924 L803.999 9.54393 L811.453 9.54393 L811.453 72.576 L803.999 72.576 L803.999 65.7705 Q801.649 69.8214 798.044 71.8063 Q794.479 73.7508 789.456 73.7508 Q781.233 73.7508 776.048 67.1883 Q770.903 60.6258 770.903 49.9314 Q770.903 39.2371 776.048 32.6746 Q781.233 26.1121 789.456 26.1121 Q794.479 26.1121 798.044 28.0971 Q801.649 30.0415 803.999 34.0924 M778.6 49.9314 Q778.6 58.1548 781.962 62.8538 Q785.365 67.5124 791.279 67.5124 Q797.193 67.5124 800.596 62.8538 Q803.999 58.1548 803.999 49.9314 Q803.999 41.7081 800.596 37.0496 Q797.193 32.3505 791.279 32.3505 Q785.365 32.3505 781.962 37.0496 Q778.6 41.7081 778.6 49.9314 Z" fill="#000000" fill-rule="nonzero" fill-opacity="1" /><path clip-path="url(#clip840)" d="M848.113 12.096 L856.377 12.096 L869.097 63.2184 L881.776 12.096 L890.972 12.096 L903.692 63.2184 L916.371 12.096 L924.675 12.096 L909.484 72.576 L899.195 72.576 L886.435 20.0763 L873.553 72.576 L863.264 72.576 L848.113 12.096 Z" fill="#000000" fill-rule="nonzero" fill-opacity="1" /><path clip-path="url(#clip840)" d="M969.154 48.0275 L969.154 51.6733 L934.884 51.6733 Q935.37 59.3701 939.502 63.421 Q943.674 67.4314 951.087 67.4314 Q955.381 67.4314 959.392 66.3781 Q963.442 65.3249 967.412 63.2184 L967.412 70.267 Q963.402 71.9684 959.189 72.8596 Q954.976 73.7508 950.642 73.7508 Q939.785 73.7508 933.425 67.4314 Q927.106 61.1119 927.106 50.3365 Q927.106 39.1965 933.101 32.6746 Q939.137 26.1121 949.345 26.1121 Q958.5 26.1121 963.807 32.0264 Q969.154 37.9003 969.154 48.0275 M961.701 45.84 Q961.62 39.7232 958.257 36.0774 Q954.936 32.4315 949.426 32.4315 Q943.188 32.4315 939.421 35.9558 Q935.694 39.4801 935.127 45.8805 L961.701 45.84 Z" fill="#000000" fill-rule="nonzero" fill-opacity="1" /><path clip-path="url(#clip840)" d="M981.388 27.2059 L988.842 27.2059 L988.842 72.576 L981.388 72.576 L981.388 27.2059 M981.388 9.54393 L988.842 9.54393 L988.842 18.9825 L981.388 18.9825 L981.388 9.54393 Z" fill="#000000" fill-rule="nonzero" fill-opacity="1" /><path clip-path="url(#clip840)" d="M1034.29 49.3643 Q1034.29 41.2625 1030.93 36.8065 Q1027.61 32.3505 1021.57 32.3505 Q1015.58 32.3505 1012.22 36.8065 Q1008.89 41.2625 1008.89 49.3643 Q1008.89 57.4256 1012.22 61.8816 Q1015.58 66.3376 1021.57 66.3376 Q1027.61 66.3376 1030.93 61.8816 Q1034.29 57.4256 1034.29 49.3643 M1041.75 66.9452 Q1041.75 78.5308 1036.6 84.1616 Q1031.46 89.8329 1020.84 89.8329 Q1016.91 89.8329 1013.43 89.2252 Q1009.95 88.6581 1006.67 87.4428 L1006.67 80.1917 Q1009.95 81.9741 1013.15 82.8248 Q1016.35 83.6755 1019.67 83.6755 Q1027 83.6755 1030.65 79.8271 Q1034.29 76.0193 1034.29 68.282 L1034.29 64.5957 Q1031.98 68.6061 1028.38 70.5911 Q1024.77 72.576 1019.75 72.576 Q1011.41 72.576 1006.3 66.2161 Q1001.2 59.8562 1001.2 49.3643 Q1001.2 38.832 1006.3 32.472 Q1011.41 26.1121 1019.75 26.1121 Q1024.77 26.1121 1028.38 28.0971 Q1031.98 30.082 1034.29 34.0924 L1034.29 27.2059 L1041.75 27.2059 L1041.75 66.9452 Z" fill="#000000" fill-rule="nonzero" fill-opacity="1" /><path clip-path="url(#clip840)" d="M1094.81 45.1919 L1094.81 72.576 L1087.36 72.576 L1087.36 45.4349 Q1087.36 38.994 1084.85 35.7938 Q1082.34 32.5936 1077.31 32.5936 Q1071.28 32.5936 1067.79 36.4419 Q1064.31 40.2903 1064.31 46.9338 L1064.31 72.576 L1056.82 72.576 L1056.82 9.54393 L1064.31 9.54393 L1064.31 34.2544 Q1066.98 30.163 1070.59 28.1376 Q1074.23 26.1121 1078.97 26.1121 Q1086.79 26.1121 1090.8 30.9732 Q1094.81 35.7938 1094.81 45.1919 Z" fill="#000000" fill-rule="nonzero" fill-opacity="1" /><path clip-path="url(#clip840)" d="M1117.05 14.324 L1117.05 27.2059 L1132.41 27.2059 L1132.41 32.9987 L1117.05 32.9987 L1117.05 57.6282 Q1117.05 63.1779 1118.55 64.7578 Q1120.09 66.3376 1124.75 66.3376 L1132.41 66.3376 L1132.41 72.576 L1124.75 72.576 Q1116.12 72.576 1112.84 69.3758 Q1109.56 66.1351 1109.56 57.6282 L1109.56 32.9987 L1104.09 32.9987 L1104.09 27.2059 L1109.56 27.2059 L1109.56 14.324 L1117.05 14.324 Z" fill="#000000" fill-rule="nonzero" fill-opacity="1" /><path clip-path="url(#clip840)" d="M1171.13 28.5427 L1171.13 35.5912 Q1167.97 33.9709 1164.57 33.1607 Q1161.17 32.3505 1157.52 32.3505 Q1151.97 32.3505 1149.18 34.0519 Q1146.42 35.7533 1146.42 39.156 Q1146.42 41.7486 1148.41 43.2475 Q1150.39 44.7058 1156.39 46.0426 L1158.94 46.6097 Q1166.88 48.3111 1170.2 51.4303 Q1173.56 54.509 1173.56 60.0587 Q1173.56 66.3781 1168.54 70.0644 Q1163.56 73.7508 1154.81 73.7508 Q1151.16 73.7508 1147.19 73.0216 Q1143.26 72.3329 1138.89 70.9151 L1138.89 63.2184 Q1143.02 65.3654 1147.03 66.4591 Q1151.04 67.5124 1154.97 67.5124 Q1160.24 67.5124 1163.07 65.73 Q1165.91 63.9071 1165.91 60.6258 Q1165.91 57.5877 1163.84 55.9673 Q1161.82 54.3469 1154.89 52.8481 L1152.3 52.2405 Q1145.37 50.7821 1142.29 47.7845 Q1139.21 44.7463 1139.21 39.4801 Q1139.21 33.0797 1143.75 29.5959 Q1148.29 26.1121 1156.63 26.1121 Q1160.76 26.1121 1164.41 26.7198 Q1168.05 27.3274 1171.13 28.5427 Z" fill="#000000" fill-rule="nonzero" fill-opacity="1" /><path clip-path="url(#clip840)" d="M1219.01 65.7705 L1219.01 89.8329 L1211.52 89.8329 L1211.52 27.2059 L1219.01 27.2059 L1219.01 34.0924 Q1221.36 30.0415 1224.93 28.0971 Q1228.53 26.1121 1233.52 26.1121 Q1241.78 26.1121 1246.92 32.6746 Q1252.11 39.2371 1252.11 49.9314 Q1252.11 60.6258 1246.92 67.1883 Q1241.78 73.7508 1233.52 73.7508 Q1228.53 73.7508 1224.93 71.8063 Q1221.36 69.8214 1219.01 65.7705 M1244.37 49.9314 Q1244.37 41.7081 1240.97 37.0496 Q1237.61 32.3505 1231.69 32.3505 Q1225.78 32.3505 1222.38 37.0496 Q1219.01 41.7081 1219.01 49.9314 Q1219.01 58.1548 1222.38 62.8538 Q1225.78 67.5124 1231.69 67.5124 Q1237.61 67.5124 1240.97 62.8538 Q1244.37 58.1548 1244.37 49.9314 Z" fill="#000000" fill-rule="nonzero" fill-opacity="1" /><path clip-path="url(#clip840)" d="M1303.27 48.0275 L1303.27 51.6733 L1269 51.6733 Q1269.49 59.3701 1273.62 63.421 Q1277.79 67.4314 1285.21 67.4314 Q1289.5 67.4314 1293.51 66.3781 Q1297.56 65.3249 1301.53 63.2184 L1301.53 70.267 Q1297.52 71.9684 1293.31 72.8596 Q1289.09 73.7508 1284.76 73.7508 Q1273.9 73.7508 1267.54 67.4314 Q1261.22 61.1119 1261.22 50.3365 Q1261.22 39.1965 1267.22 32.6746 Q1273.26 26.1121 1283.46 26.1121 Q1292.62 26.1121 1297.93 32.0264 Q1303.27 37.9003 1303.27 48.0275 M1295.82 45.84 Q1295.74 39.7232 1292.38 36.0774 Q1289.05 32.4315 1283.54 32.4315 Q1277.31 32.4315 1273.54 35.9558 Q1269.81 39.4801 1269.25 45.8805 L1295.82 45.84 Z" fill="#000000" fill-rule="nonzero" fill-opacity="1" /><path clip-path="url(#clip840)" d="M1341.8 34.1734 Q1340.54 33.4443 1339.04 33.1202 Q1337.58 32.7556 1335.8 32.7556 Q1329.48 32.7556 1326.08 36.8875 Q1322.72 40.9789 1322.72 48.6757 L1322.72 72.576 L1315.22 72.576 L1315.22 27.2059 L1322.72 27.2059 L1322.72 34.2544 Q1325.07 30.1225 1328.83 28.1376 Q1332.6 26.1121 1337.99 26.1121 Q1338.76 26.1121 1339.69 26.2337 Q1340.62 26.3147 1341.76 26.5172 L1341.8 34.1734 Z" fill="#000000" fill-rule="nonzero" fill-opacity="1" /><path clip-path="url(#clip840)" d="M1376.31 12.096 L1384.49 12.096 L1384.49 65.6895 L1413.94 65.6895 L1413.94 72.576 L1376.31 72.576 L1376.31 12.096 Z" fill="#000000" fill-rule="nonzero" fill-opacity="1" /><path clip-path="url(#clip840)" d="M1438.33 32.4315 Q1432.33 32.4315 1428.85 37.1306 Q1425.37 41.7891 1425.37 49.9314 Q1425.37 58.0738 1428.81 62.7728 Q1432.29 67.4314 1438.33 67.4314 Q1444.28 67.4314 1447.77 62.7323 Q1451.25 58.0333 1451.25 49.9314 Q1451.25 41.8701 1447.77 37.1711 Q1444.28 32.4315 1438.33 32.4315 M1438.33 26.1121 Q1448.05 26.1121 1453.6 32.4315 Q1459.15 38.7509 1459.15 49.9314 Q1459.15 61.0714 1453.6 67.4314 Q1448.05 73.7508 1438.33 73.7508 Q1428.57 73.7508 1423.02 67.4314 Q1417.51 61.0714 1417.51 49.9314 Q1417.51 38.7509 1423.02 32.4315 Q1428.57 26.1121 1438.33 26.1121 Z" fill="#000000" fill-rule="nonzero" fill-opacity="1" /><path clip-path="url(#clip840)" d="M1492.13 49.7694 Q1483.09 49.7694 1479.61 51.8354 Q1476.12 53.9013 1476.12 58.8839 Q1476.12 62.8538 1478.72 65.2034 Q1481.35 67.5124 1485.85 67.5124 Q1492.04 67.5124 1495.77 63.1374 Q1499.54 58.7219 1499.54 51.4303 L1499.54 49.7694 L1492.13 49.7694 M1506.99 46.6907 L1506.99 72.576 L1499.54 72.576 L1499.54 65.6895 Q1496.99 69.8214 1493.18 71.8063 Q1489.37 73.7508 1483.86 73.7508 Q1476.89 73.7508 1472.76 69.8619 Q1468.67 65.9325 1468.67 59.3701 Q1468.67 51.7138 1473.78 47.825 Q1478.92 43.9361 1489.09 43.9361 L1499.54 43.9361 L1499.54 43.2069 Q1499.54 38.0623 1496.14 35.2672 Q1492.77 32.4315 1486.66 32.4315 Q1482.77 32.4315 1479.08 33.3632 Q1475.4 34.295 1471.99 36.1584 L1471.99 29.2718 Q1476.08 27.692 1479.93 26.9223 Q1483.78 26.1121 1487.43 26.1121 Q1497.27 26.1121 1502.13 31.2163 Q1506.99 36.3204 1506.99 46.6907 Z" fill="#000000" fill-rule="nonzero" fill-opacity="1" /><path clip-path="url(#clip840)" d="M1552.2 34.0924 L1552.2 9.54393 L1559.65 9.54393 L1559.65 72.576 L1552.2 72.576 L1552.2 65.7705 Q1549.85 69.8214 1546.25 71.8063 Q1542.68 73.7508 1537.66 73.7508 Q1529.43 73.7508 1524.25 67.1883 Q1519.1 60.6258 1519.1 49.9314 Q1519.1 39.2371 1524.25 32.6746 Q1529.43 26.1121 1537.66 26.1121 Q1542.68 26.1121 1546.25 28.0971 Q1549.85 30.0415 1552.2 34.0924 M1526.8 49.9314 Q1526.8 58.1548 1530.16 62.8538 Q1533.57 67.5124 1539.48 67.5124 Q1545.4 67.5124 1548.8 62.8538 Q1552.2 58.1548 1552.2 49.9314 Q1552.2 41.7081 1548.8 37.0496 Q1545.4 32.3505 1539.48 32.3505 Q1533.57 32.3505 1530.16 37.0496 Q1526.8 41.7081 1526.8 49.9314 Z" fill="#000000" fill-rule="nonzero" fill-opacity="1" /><path clip-path="url(#clip840)" d="M1597.61 46.5287 L1619.45 46.5287 L1619.45 53.1722 L1597.61 53.1722 L1597.61 46.5287 Z" fill="#000000" fill-rule="nonzero" fill-opacity="1" /><path clip-path="url(#clip840)" d="M1658.01 12.096 L1666.19 12.096 L1666.19 72.576 L1658.01 72.576 L1658.01 12.096 Z" fill="#000000" fill-rule="nonzero" fill-opacity="1" /><path clip-path="url(#clip840)" d="M1689.53 14.324 L1689.53 27.2059 L1704.88 27.2059 L1704.88 32.9987 L1689.53 32.9987 L1689.53 57.6282 Q1689.53 63.1779 1691.03 64.7578 Q1692.56 66.3376 1697.22 66.3376 L1704.88 66.3376 L1704.88 72.576 L1697.22 72.576 Q1688.59 72.576 1685.31 69.3758 Q1682.03 66.1351 1682.03 57.6282 L1682.03 32.9987 L1676.56 32.9987 L1676.56 27.2059 L1682.03 27.2059 L1682.03 14.324 L1689.53 14.324 Z" fill="#000000" fill-rule="nonzero" fill-opacity="1" /><path clip-path="url(#clip840)" d="M1753.49 48.0275 L1753.49 51.6733 L1719.22 51.6733 Q1719.71 59.3701 1723.84 63.421 Q1728.01 67.4314 1735.42 67.4314 Q1739.72 67.4314 1743.73 66.3781 Q1747.78 65.3249 1751.75 63.2184 L1751.75 70.267 Q1747.74 71.9684 1743.53 72.8596 Q1739.31 73.7508 1734.98 73.7508 Q1724.12 73.7508 1717.76 67.4314 Q1711.44 61.1119 1711.44 50.3365 Q1711.44 39.1965 1717.44 32.6746 Q1723.47 26.1121 1733.68 26.1121 Q1742.84 26.1121 1748.14 32.0264 Q1753.49 37.9003 1753.49 48.0275 M1746.04 45.84 Q1745.96 39.7232 1742.59 36.0774 Q1739.27 32.4315 1733.76 32.4315 Q1727.52 32.4315 1723.76 35.9558 Q1720.03 39.4801 1719.46 45.8805 L1746.04 45.84 Z" fill="#000000" fill-rule="nonzero" fill-opacity="1" /><path clip-path="url(#clip840)" d="M1792.01 34.1734 Q1790.76 33.4443 1789.26 33.1202 Q1787.8 32.7556 1786.02 32.7556 Q1779.7 32.7556 1776.3 36.8875 Q1772.93 40.9789 1772.93 48.6757 L1772.93 72.576 L1765.44 72.576 L1765.44 27.2059 L1772.93 27.2059 L1772.93 34.2544 Q1775.28 30.1225 1779.05 28.1376 Q1782.82 26.1121 1788.21 26.1121 Q1788.98 26.1121 1789.91 26.2337 Q1790.84 26.3147 1791.97 26.5172 L1792.01 34.1734 Z" fill="#000000" fill-rule="nonzero" fill-opacity="1" /><path clip-path="url(#clip840)" d="M1820.45 49.7694 Q1811.42 49.7694 1807.93 51.8354 Q1804.45 53.9013 1804.45 58.8839 Q1804.45 62.8538 1807.04 65.2034 Q1809.68 67.5124 1814.17 67.5124 Q1820.37 67.5124 1824.1 63.1374 Q1827.86 58.7219 1827.86 51.4303 L1827.86 49.7694 L1820.45 49.7694 M1835.32 46.6907 L1835.32 72.576 L1827.86 72.576 L1827.86 65.6895 Q1825.31 69.8214 1821.5 71.8063 Q1817.7 73.7508 1812.19 73.7508 Q1805.22 73.7508 1801.09 69.8619 Q1797 65.9325 1797 59.3701 Q1797 51.7138 1802.1 47.825 Q1807.25 43.9361 1817.41 43.9361 L1827.86 43.9361 L1827.86 43.2069 Q1827.86 38.0623 1824.46 35.2672 Q1821.1 32.4315 1814.98 32.4315 Q1811.09 32.4315 1807.41 33.3632 Q1803.72 34.295 1800.32 36.1584 L1800.32 29.2718 Q1804.41 27.692 1808.26 26.9223 Q1812.11 26.1121 1815.75 26.1121 Q1825.6 26.1121 1830.46 31.2163 Q1835.32 36.3204 1835.32 46.6907 Z" fill="#000000" fill-rule="nonzero" fill-opacity="1" /><path clip-path="url(#clip840)" d="M1858.04 14.324 L1858.04 27.2059 L1873.4 27.2059 L1873.4 32.9987 L1858.04 32.9987 L1858.04 57.6282 Q1858.04 63.1779 1859.54 64.7578 Q1861.08 66.3376 1865.74 66.3376 L1873.4 66.3376 L1873.4 72.576 L1865.74 72.576 Q1857.11 72.576 1853.83 69.3758 Q1850.55 66.1351 1850.55 57.6282 L1850.55 32.9987 L1845.08 32.9987 L1845.08 27.2059 L1850.55 27.2059 L1850.55 14.324 L1858.04 14.324 Z" fill="#000000" fill-rule="nonzero" fill-opacity="1" /><path clip-path="url(#clip840)" d="M1883.2 27.2059 L1890.65 27.2059 L1890.65 72.576 L1883.2 72.576 L1883.2 27.2059 M1883.2 9.54393 L1890.65 9.54393 L1890.65 18.9825 L1883.2 18.9825 L1883.2 9.54393 Z" fill="#000000" fill-rule="nonzero" fill-opacity="1" /><path clip-path="url(#clip840)" d="M1923.83 32.4315 Q1917.84 32.4315 1914.35 37.1306 Q1910.87 41.7891 1910.87 49.9314 Q1910.87 58.0738 1914.31 62.7728 Q1917.79 67.4314 1923.83 67.4314 Q1929.79 67.4314 1933.27 62.7323 Q1936.75 58.0333 1936.75 49.9314 Q1936.75 41.8701 1933.27 37.1711 Q1929.79 32.4315 1923.83 32.4315 M1923.83 26.1121 Q1933.55 26.1121 1939.1 32.4315 Q1944.65 38.7509 1944.65 49.9314 Q1944.65 61.0714 1939.1 67.4314 Q1933.55 73.7508 1923.83 73.7508 Q1914.07 73.7508 1908.52 67.4314 Q1903.01 61.0714 1903.01 49.9314 Q1903.01 38.7509 1908.52 32.4315 Q1914.07 26.1121 1923.83 26.1121 Z" fill="#000000" fill-rule="nonzero" fill-opacity="1" /><path clip-path="url(#clip840)" d="M1994.72 45.1919 L1994.72 72.576 L1987.27 72.576 L1987.27 45.4349 Q1987.27 38.994 1984.76 35.7938 Q1982.24 32.5936 1977.22 32.5936 Q1971.19 32.5936 1967.7 36.4419 Q1964.22 40.2903 1964.22 46.9338 L1964.22 72.576 L1956.72 72.576 L1956.72 27.2059 L1964.22 27.2059 L1964.22 34.2544 Q1966.89 30.163 1970.5 28.1376 Q1974.14 26.1121 1978.88 26.1121 Q1986.7 26.1121 1990.71 30.9732 Q1994.72 35.7938 1994.72 45.1919 Z" fill="#000000" fill-rule="nonzero" fill-opacity="1" /><path clip-path="url(#clip840)" d="M2038.43 65.6895 L2051.8 65.6895 L2051.8 19.5497 L2037.26 22.4663 L2037.26 15.0127 L2051.72 12.096 L2059.9 12.096 L2059.9 65.6895 L2073.27 65.6895 L2073.27 72.576 L2038.43 72.576 L2038.43 65.6895 Z" fill="#000000" fill-rule="nonzero" fill-opacity="1" /><path clip-path="url(#clip842)" d="M855.991 130.537 L855.991 1423.18 L968.394 1423.18 L968.394 130.537 L855.991 130.537 L855.991 130.537  Z" fill="#009af9" fill-rule="evenodd" fill-opacity="1"/>
<polyline clip-path="url(#clip842)" style="stroke:#000000; stroke-linecap:round; stroke-linejoin:round; stroke-width:4; stroke-opacity:1; fill:none" points="855.991,130.537 855.991,1423.18 968.394,1423.18 968.394,130.537 855.991,130.537 "/>
<path clip-path="url(#clip842)" d="M1839.52 128.277 L1839.52 1423.18 L1951.92 1423.18 L1951.92 128.277 L1839.52 128.277 L1839.52 128.277  Z" fill="#009af9" fill-rule="evenodd" fill-opacity="1"/>
<polyline clip-path="url(#clip842)" style="stroke:#000000; stroke-linecap:round; stroke-linejoin:round; stroke-width:4; stroke-opacity:1; fill:none" points="1839.52,128.277 1839.52,1423.18 1951.92,1423.18 1951.92,128.277 1839.52,128.277 "/>
<path clip-path="url(#clip842)" d="M1277.5 130.537 L1277.5 1423.18 L1389.91 1423.18 L1389.91 130.537 L1277.5 130.537 L1277.5 130.537  Z" fill="#009af9" fill-rule="evenodd" fill-opacity="1"/>
<polyline clip-path="url(#clip842)" style="stroke:#000000; stroke-linecap:round; stroke-linejoin:round; stroke-width:4; stroke-opacity:1; fill:none" points="1277.5,130.537 1277.5,1423.18 1389.91,1423.18 1389.91,130.537 1277.5,130.537 "/>
<path clip-path="url(#clip842)" d="M293.976 130.537 L293.976 1423.18 L406.379 1423.18 L406.379 130.537 L293.976 130.537 L293.976 130.537  Z" fill="#009af9" fill-rule="evenodd" fill-opacity="1"/>
<polyline clip-path="url(#clip842)" style="stroke:#000000; stroke-linecap:round; stroke-linejoin:round; stroke-width:4; stroke-opacity:1; fill:none" points="293.976,130.537 293.976,1423.18 406.379,1423.18 406.379,130.537 293.976,130.537 "/>
<path clip-path="url(#clip842)" d="M996.495 133.051 L996.495 1423.18 L1108.9 1423.18 L1108.9 133.051 L996.495 133.051 L996.495 133.051  Z" fill="#009af9" fill-rule="evenodd" fill-opacity="1"/>
<polyline clip-path="url(#clip842)" style="stroke:#000000; stroke-linecap:round; stroke-linejoin:round; stroke-width:4; stroke-opacity:1; fill:none" points="996.495,133.051 996.495,1423.18 1108.9,1423.18 1108.9,133.051 996.495,133.051 "/>
<path clip-path="url(#clip842)" d="M1699.01 131.119 L1699.01 1423.18 L1811.42 1423.18 L1811.42 131.119 L1699.01 131.119 L1699.01 131.119  Z" fill="#009af9" fill-rule="evenodd" fill-opacity="1"/>
<polyline clip-path="url(#clip842)" style="stroke:#000000; stroke-linecap:round; stroke-linejoin:round; stroke-width:4; stroke-opacity:1; fill:none" points="1699.01,131.119 1699.01,1423.18 1811.42,1423.18 1811.42,131.119 1699.01,131.119 "/>
<path clip-path="url(#clip842)" d="M1418.01 130.537 L1418.01 1423.18 L1530.41 1423.18 L1530.41 130.537 L1418.01 130.537 L1418.01 130.537  Z" fill="#009af9" fill-rule="evenodd" fill-opacity="1"/>
<polyline clip-path="url(#clip842)" style="stroke:#000000; stroke-linecap:round; stroke-linejoin:round; stroke-width:4; stroke-opacity:1; fill:none" points="1418.01,130.537 1418.01,1423.18 1530.41,1423.18 1530.41,130.537 1418.01,130.537 "/>
<path clip-path="url(#clip842)" d="M2120.53 133.288 L2120.53 1423.18 L2232.93 1423.18 L2232.93 133.288 L2120.53 133.288 L2120.53 133.288  Z" fill="#009af9" fill-rule="evenodd" fill-opacity="1"/>
<polyline clip-path="url(#clip842)" style="stroke:#000000; stroke-linecap:round; stroke-linejoin:round; stroke-width:4; stroke-opacity:1; fill:none" points="2120.53,133.288 2120.53,1423.18 2232.93,1423.18 2232.93,133.288 2120.53,133.288 "/>
<path clip-path="url(#clip842)" d="M574.984 123.472 L574.984 1423.18 L687.387 1423.18 L687.387 123.472 L574.984 123.472 L574.984 123.472  Z" fill="#009af9" fill-rule="evenodd" fill-opacity="1"/>
<polyline clip-path="url(#clip842)" style="stroke:#000000; stroke-linecap:round; stroke-linejoin:round; stroke-width:4; stroke-opacity:1; fill:none" points="574.984,123.472 574.984,1423.18 687.387,1423.18 687.387,123.472 574.984,123.472 "/>
<path clip-path="url(#clip842)" d="M1137 130.537 L1137 1423.18 L1249.4 1423.18 L1249.4 130.537 L1137 130.537 L1137 130.537  Z" fill="#009af9" fill-rule="evenodd" fill-opacity="1"/>
<polyline clip-path="url(#clip842)" style="stroke:#000000; stroke-linecap:round; stroke-linejoin:round; stroke-width:4; stroke-opacity:1; fill:none" points="1137,130.537 1137,1423.18 1249.4,1423.18 1249.4,130.537 1137,130.537 "/>
<path clip-path="url(#clip842)" d="M715.488 134.059 L715.488 1423.18 L827.891 1423.18 L827.891 134.059 L715.488 134.059 L715.488 134.059  Z" fill="#009af9" fill-rule="evenodd" fill-opacity="1"/>
<polyline clip-path="url(#clip842)" style="stroke:#000000; stroke-linecap:round; stroke-linejoin:round; stroke-width:4; stroke-opacity:1; fill:none" points="715.488,134.059 715.488,1423.18 827.891,1423.18 827.891,134.059 715.488,134.059 "/>
<path clip-path="url(#clip842)" d="M1980.02 130.537 L1980.02 1423.18 L2092.42 1423.18 L2092.42 130.537 L1980.02 130.537 L1980.02 130.537  Z" fill="#009af9" fill-rule="evenodd" fill-opacity="1"/>
<polyline clip-path="url(#clip842)" style="stroke:#000000; stroke-linecap:round; stroke-linejoin:round; stroke-width:4; stroke-opacity:1; fill:none" points="1980.02,130.537 1980.02,1423.18 2092.42,1423.18 2092.42,130.537 1980.02,130.537 "/>
<path clip-path="url(#clip842)" d="M434.48 130.537 L434.48 1423.18 L546.883 1423.18 L546.883 130.537 L434.48 130.537 L434.48 130.537  Z" fill="#009af9" fill-rule="evenodd" fill-opacity="1"/>
<polyline clip-path="url(#clip842)" style="stroke:#000000; stroke-linecap:round; stroke-linejoin:round; stroke-width:4; stroke-opacity:1; fill:none" points="434.48,130.537 434.48,1423.18 546.883,1423.18 546.883,130.537 434.48,130.537 "/>
<path clip-path="url(#clip842)" d="M1558.51 130.537 L1558.51 1423.18 L1670.91 1423.18 L1670.91 130.537 L1558.51 130.537 L1558.51 130.537  Z" fill="#009af9" fill-rule="evenodd" fill-opacity="1"/>
<polyline clip-path="url(#clip842)" style="stroke:#000000; stroke-linecap:round; stroke-linejoin:round; stroke-width:4; stroke-opacity:1; fill:none" points="1558.51,130.537 1558.51,1423.18 1670.91,1423.18 1670.91,130.537 1558.51,130.537 "/>
<circle clip-path="url(#clip842)" style="fill:#009af9; stroke:none; fill-opacity:0" cx="912.193" cy="130.537" r="2"/>
<circle clip-path="url(#clip842)" style="fill:#009af9; stroke:none; fill-opacity:0" cx="1895.72" cy="128.277" r="2"/>
<circle clip-path="url(#clip842)" style="fill:#009af9; stroke:none; fill-opacity:0" cx="1333.7" cy="130.537" r="2"/>
<circle clip-path="url(#clip842)" style="fill:#009af9; stroke:none; fill-opacity:0" cx="350.178" cy="130.537" r="2"/>
<circle clip-path="url(#clip842)" style="fill:#009af9; stroke:none; fill-opacity:0" cx="1052.7" cy="133.051" r="2"/>
<circle clip-path="url(#clip842)" style="fill:#009af9; stroke:none; fill-opacity:0" cx="1755.22" cy="131.119" r="2"/>
<circle clip-path="url(#clip842)" style="fill:#009af9; stroke:none; fill-opacity:0" cx="1474.21" cy="130.537" r="2"/>
<circle clip-path="url(#clip842)" style="fill:#009af9; stroke:none; fill-opacity:0" cx="2176.73" cy="133.288" r="2"/>
<circle clip-path="url(#clip842)" style="fill:#009af9; stroke:none; fill-opacity:0" cx="631.185" cy="123.472" r="2"/>
<circle clip-path="url(#clip842)" style="fill:#009af9; stroke:none; fill-opacity:0" cx="1193.2" cy="130.537" r="2"/>
<circle clip-path="url(#clip842)" style="fill:#009af9; stroke:none; fill-opacity:0" cx="771.689" cy="134.059" r="2"/>
<circle clip-path="url(#clip842)" style="fill:#009af9; stroke:none; fill-opacity:0" cx="2036.22" cy="130.537" r="2"/>
<circle clip-path="url(#clip842)" style="fill:#009af9; stroke:none; fill-opacity:0" cx="490.682" cy="130.537" r="2"/>
<circle clip-path="url(#clip842)" style="fill:#009af9; stroke:none; fill-opacity:0" cx="1614.71" cy="130.537" r="2"/>
</svg>
