<?xml version="1.0" encoding="utf-8"?>
<svg xmlns="http://www.w3.org/2000/svg" xmlns:xlink="http://www.w3.org/1999/xlink" width="600" height="400" viewBox="0 0 2400 1600">
<defs>
  <clipPath id="clip420">
    <rect x="0" y="0" width="2400" height="1600"/>
  </clipPath>
</defs>
<path clip-path="url(#clip420)" d="M0 1600 L2400 1600 L2400 0 L0 0  Z" fill="#ffffff" fill-rule="evenodd" fill-opacity="1"/>
<defs>
  <clipPath id="clip421">
    <rect x="480" y="0" width="1681" height="1600"/>
  </clipPath>
</defs>
<path clip-path="url(#clip420)" d="M262.551 1423.18 L2352.76 1423.18 L2352.76 123.472 L262.551 123.472  Z" fill="#ffffff" fill-rule="evenodd" fill-opacity="1"/>
<defs>
  <clipPath id="clip422">
    <rect x="262" y="123" width="2091" height="1301"/>
  </clipPath>
</defs>
<polyline clip-path="url(#clip422)" style="stroke:#000000; stroke-linecap:round; stroke-linejoin:round; stroke-width:2; stroke-opacity:0.1; fill:none" points="450.948,1423.18 450.948,123.472 "/>
<polyline clip-path="url(#clip422)" style="stroke:#000000; stroke-linecap:round; stroke-linejoin:round; stroke-width:2; stroke-opacity:0.1; fill:none" points="916.826,1423.18 916.826,123.472 "/>
<polyline clip-path="url(#clip422)" style="stroke:#000000; stroke-linecap:round; stroke-linejoin:round; stroke-width:2; stroke-opacity:0.1; fill:none" points="1382.7,1423.18 1382.7,123.472 "/>
<polyline clip-path="url(#clip422)" style="stroke:#000000; stroke-linecap:round; stroke-linejoin:round; stroke-width:2; stroke-opacity:0.1; fill:none" points="1848.58,1423.18 1848.58,123.472 "/>
<polyline clip-path="url(#clip422)" style="stroke:#000000; stroke-linecap:round; stroke-linejoin:round; stroke-width:2; stroke-opacity:0.1; fill:none" points="2314.46,1423.18 2314.46,123.472 "/>
<polyline clip-path="url(#clip422)" style="stroke:#000000; stroke-linecap:round; stroke-linejoin:round; stroke-width:2; stroke-opacity:0.1; fill:none" points="262.551,1306.03 2352.76,1306.03 "/>
<polyline clip-path="url(#clip422)" style="stroke:#000000; stroke-linecap:round; stroke-linejoin:round; stroke-width:2; stroke-opacity:0.1; fill:none" points="262.551,1016.35 2352.76,1016.35 "/>
<polyline clip-path="url(#clip422)" style="stroke:#000000; stroke-linecap:round; stroke-linejoin:round; stroke-width:2; stroke-opacity:0.1; fill:none" points="262.551,726.66 2352.76,726.66 "/>
<polyline clip-path="url(#clip422)" style="stroke:#000000; stroke-linecap:round; stroke-linejoin:round; stroke-width:2; stroke-opacity:0.1; fill:none" points="262.551,436.973 2352.76,436.973 "/>
<polyline clip-path="url(#clip422)" style="stroke:#000000; stroke-linecap:round; stroke-linejoin:round; stroke-width:2; stroke-opacity:0.1; fill:none" points="262.551,147.286 2352.76,147.286 "/>
<polyline clip-path="url(#clip420)" style="stroke:#000000; stroke-linecap:round; stroke-linejoin:round; stroke-width:4; stroke-opacity:1; fill:none" points="262.551,1423.18 2352.76,1423.18 "/>
<polyline clip-path="url(#clip420)" style="stroke:#000000; stroke-linecap:round; stroke-linejoin:round; stroke-width:4; stroke-opacity:1; fill:none" points="450.948,1423.18 450.948,1404.28 "/>
<polyline clip-path="url(#clip420)" style="stroke:#000000; stroke-linecap:round; stroke-linejoin:round; stroke-width:4; stroke-opacity:1; fill:none" points="916.826,1423.18 916.826,1404.28 "/>
<polyline clip-path="url(#clip420)" style="stroke:#000000; stroke-linecap:round; stroke-linejoin:round; stroke-width:4; stroke-opacity:1; fill:none" points="1382.7,1423.18 1382.7,1404.28 "/>
<polyline clip-path="url(#clip420)" style="stroke:#000000; stroke-linecap:round; stroke-linejoin:round; stroke-width:4; stroke-opacity:1; fill:none" points="1848.58,1423.18 1848.58,1404.28 "/>
<polyline clip-path="url(#clip420)" style="stroke:#000000; stroke-linecap:round; stroke-linejoin:round; stroke-width:4; stroke-opacity:1; fill:none" points="2314.46,1423.18 2314.46,1404.28 "/>
<path clip-path="url(#clip420)" d="M395.972 1481.64 L403.611 1481.64 L403.611 1455.28 L395.3 1456.95 L395.3 1452.69 L403.564 1451.02 L408.24 1451.02 L408.24 1481.64 L415.879 1481.64 L415.879 1485.58 L395.972 1485.58 L395.972 1481.64 Z" fill="#000000" fill-rule="nonzero" fill-opacity="1" /><path clip-path="url(#clip420)" d="M439.49 1466.95 Q442.846 1467.66 444.721 1469.93 Q446.62 1472.2 446.62 1475.53 Q446.62 1480.65 443.101 1483.45 Q439.583 1486.25 433.101 1486.25 Q430.925 1486.25 428.61 1485.81 Q426.319 1485.39 423.865 1484.54 L423.865 1480.02 Q425.81 1481.16 428.124 1481.74 Q430.439 1482.32 432.962 1482.32 Q437.36 1482.32 439.652 1480.58 Q441.967 1478.84 441.967 1475.53 Q441.967 1472.48 439.814 1470.77 Q437.684 1469.03 433.865 1469.03 L429.837 1469.03 L429.837 1465.19 L434.05 1465.19 Q437.499 1465.19 439.328 1463.82 Q441.157 1462.43 441.157 1459.84 Q441.157 1457.18 439.259 1455.77 Q437.384 1454.33 433.865 1454.33 Q431.944 1454.33 429.745 1454.75 Q427.546 1455.16 424.907 1456.04 L424.907 1451.88 Q427.569 1451.14 429.884 1450.77 Q432.222 1450.39 434.282 1450.39 Q439.606 1450.39 442.708 1452.83 Q445.809 1455.23 445.809 1459.35 Q445.809 1462.22 444.166 1464.21 Q442.522 1466.18 439.49 1466.95 Z" fill="#000000" fill-rule="nonzero" fill-opacity="1" /><path clip-path="url(#clip420)" d="M455.532 1451.02 L473.888 1451.02 L473.888 1454.96 L459.814 1454.96 L459.814 1463.43 Q460.833 1463.08 461.851 1462.92 Q462.87 1462.73 463.888 1462.73 Q469.675 1462.73 473.055 1465.9 Q476.434 1469.08 476.434 1474.49 Q476.434 1480.07 472.962 1483.17 Q469.49 1486.25 463.17 1486.25 Q460.995 1486.25 458.726 1485.88 Q456.481 1485.51 454.073 1484.77 L454.073 1480.07 Q456.157 1481.2 458.379 1481.76 Q460.601 1482.32 463.078 1482.32 Q467.082 1482.32 469.42 1480.21 Q471.758 1478.1 471.758 1474.49 Q471.758 1470.88 469.42 1468.77 Q467.082 1466.67 463.078 1466.67 Q461.203 1466.67 459.328 1467.08 Q457.476 1467.5 455.532 1468.38 L455.532 1451.02 Z" fill="#000000" fill-rule="nonzero" fill-opacity="1" /><path clip-path="url(#clip420)" d="M485.693 1451.02 L504.05 1451.02 L504.05 1454.96 L489.976 1454.96 L489.976 1463.43 Q490.994 1463.08 492.013 1462.92 Q493.031 1462.73 494.05 1462.73 Q499.837 1462.73 503.217 1465.9 Q506.596 1469.08 506.596 1474.49 Q506.596 1480.07 503.124 1483.17 Q499.652 1486.25 493.332 1486.25 Q491.156 1486.25 488.888 1485.88 Q486.643 1485.51 484.235 1484.77 L484.235 1480.07 Q486.318 1481.2 488.541 1481.76 Q490.763 1482.32 493.24 1482.32 Q497.244 1482.32 499.582 1480.21 Q501.92 1478.1 501.92 1474.49 Q501.92 1470.88 499.582 1468.77 Q497.244 1466.67 493.24 1466.67 Q491.365 1466.67 489.49 1467.08 Q487.638 1467.5 485.693 1468.38 L485.693 1451.02 Z" fill="#000000" fill-rule="nonzero" fill-opacity="1" /><path clip-path="url(#clip420)" d="M861.351 1481.64 L868.99 1481.64 L868.99 1455.28 L860.68 1456.95 L860.68 1452.69 L868.944 1451.02 L873.62 1451.02 L873.62 1481.64 L881.259 1481.64 L881.259 1485.58 L861.351 1485.58 L861.351 1481.64 Z" fill="#000000" fill-rule="nonzero" fill-opacity="1" /><path clip-path="url(#clip420)" d="M904.87 1466.95 Q908.226 1467.66 910.101 1469.93 Q911.999 1472.2 911.999 1475.53 Q911.999 1480.65 908.481 1483.45 Q904.962 1486.25 898.481 1486.25 Q896.305 1486.25 893.99 1485.81 Q891.699 1485.39 889.245 1484.54 L889.245 1480.02 Q891.189 1481.16 893.504 1481.74 Q895.819 1482.32 898.342 1482.32 Q902.74 1482.32 905.032 1480.58 Q907.347 1478.84 907.347 1475.53 Q907.347 1472.48 905.194 1470.77 Q903.064 1469.03 899.245 1469.03 L895.217 1469.03 L895.217 1465.19 L899.43 1465.19 Q902.879 1465.19 904.708 1463.82 Q906.536 1462.43 906.536 1459.84 Q906.536 1457.18 904.638 1455.77 Q902.763 1454.33 899.245 1454.33 Q897.323 1454.33 895.124 1454.75 Q892.925 1455.16 890.286 1456.04 L890.286 1451.88 Q892.949 1451.14 895.263 1450.77 Q897.601 1450.39 899.661 1450.39 Q904.985 1450.39 908.087 1452.83 Q911.189 1455.23 911.189 1459.35 Q911.189 1462.22 909.546 1464.21 Q907.902 1466.18 904.87 1466.95 Z" fill="#000000" fill-rule="nonzero" fill-opacity="1" /><path clip-path="url(#clip420)" d="M931.444 1466.44 Q928.296 1466.44 926.444 1468.59 Q924.615 1470.74 924.615 1474.49 Q924.615 1478.22 926.444 1480.39 Q928.296 1482.55 931.444 1482.55 Q934.592 1482.55 936.421 1480.39 Q938.272 1478.22 938.272 1474.49 Q938.272 1470.74 936.421 1468.59 Q934.592 1466.44 931.444 1466.44 M940.726 1451.78 L940.726 1456.04 Q938.967 1455.21 937.161 1454.77 Q935.379 1454.33 933.62 1454.33 Q928.99 1454.33 926.536 1457.45 Q924.106 1460.58 923.759 1466.9 Q925.124 1464.89 927.184 1463.82 Q929.245 1462.73 931.721 1462.73 Q936.93 1462.73 939.939 1465.9 Q942.971 1469.05 942.971 1474.49 Q942.971 1479.82 939.823 1483.03 Q936.675 1486.25 931.444 1486.25 Q925.448 1486.25 922.277 1481.67 Q919.106 1477.06 919.106 1468.33 Q919.106 1460.14 922.995 1455.28 Q926.884 1450.39 933.434 1450.39 Q935.194 1450.39 936.976 1450.74 Q938.782 1451.09 940.726 1451.78 Z" fill="#000000" fill-rule="nonzero" fill-opacity="1" /><path clip-path="url(#clip420)" d="M961.027 1454.1 Q957.416 1454.1 955.587 1457.66 Q953.782 1461.2 953.782 1468.33 Q953.782 1475.44 955.587 1479.01 Q957.416 1482.55 961.027 1482.55 Q964.661 1482.55 966.467 1479.01 Q968.295 1475.44 968.295 1468.33 Q968.295 1461.2 966.467 1457.66 Q964.661 1454.1 961.027 1454.1 M961.027 1450.39 Q966.837 1450.39 969.893 1455 Q972.971 1459.58 972.971 1468.33 Q972.971 1477.06 969.893 1481.67 Q966.837 1486.25 961.027 1486.25 Q955.217 1486.25 952.138 1481.67 Q949.082 1477.06 949.082 1468.33 Q949.082 1459.58 952.138 1455 Q955.217 1450.39 961.027 1450.39 Z" fill="#000000" fill-rule="nonzero" fill-opacity="1" /><path clip-path="url(#clip420)" d="M1327.73 1481.64 L1335.37 1481.64 L1335.37 1455.28 L1327.06 1456.95 L1327.06 1452.69 L1335.32 1451.02 L1339.99 1451.02 L1339.99 1481.64 L1347.63 1481.64 L1347.63 1485.58 L1327.73 1485.58 L1327.73 1481.64 Z" fill="#000000" fill-rule="nonzero" fill-opacity="1" /><path clip-path="url(#clip420)" d="M1371.24 1466.95 Q1374.6 1467.66 1376.48 1469.93 Q1378.37 1472.2 1378.37 1475.53 Q1378.37 1480.65 1374.86 1483.45 Q1371.34 1486.25 1364.86 1486.25 Q1362.68 1486.25 1360.37 1485.81 Q1358.07 1485.39 1355.62 1484.54 L1355.62 1480.02 Q1357.56 1481.16 1359.88 1481.74 Q1362.19 1482.32 1364.72 1482.32 Q1369.12 1482.32 1371.41 1480.58 Q1373.72 1478.84 1373.72 1475.53 Q1373.72 1472.48 1371.57 1470.77 Q1369.44 1469.03 1365.62 1469.03 L1361.59 1469.03 L1361.59 1465.19 L1365.81 1465.19 Q1369.25 1465.19 1371.08 1463.82 Q1372.91 1462.43 1372.91 1459.84 Q1372.91 1457.18 1371.01 1455.77 Q1369.14 1454.33 1365.62 1454.33 Q1363.7 1454.33 1361.5 1454.75 Q1359.3 1455.16 1356.66 1456.04 L1356.66 1451.88 Q1359.32 1451.14 1361.64 1450.77 Q1363.98 1450.39 1366.04 1450.39 Q1371.36 1450.39 1374.46 1452.83 Q1377.56 1455.23 1377.56 1459.35 Q1377.56 1462.22 1375.92 1464.21 Q1374.28 1466.18 1371.24 1466.95 Z" fill="#000000" fill-rule="nonzero" fill-opacity="1" /><path clip-path="url(#clip420)" d="M1397.82 1466.44 Q1394.67 1466.44 1392.82 1468.59 Q1390.99 1470.74 1390.99 1474.49 Q1390.99 1478.22 1392.82 1480.39 Q1394.67 1482.55 1397.82 1482.55 Q1400.97 1482.55 1402.8 1480.39 Q1404.65 1478.22 1404.65 1474.49 Q1404.65 1470.74 1402.8 1468.59 Q1400.97 1466.44 1397.82 1466.44 M1407.1 1451.78 L1407.1 1456.04 Q1405.34 1455.21 1403.54 1454.77 Q1401.75 1454.33 1399.99 1454.33 Q1395.37 1454.33 1392.91 1457.45 Q1390.48 1460.58 1390.13 1466.9 Q1391.5 1464.89 1393.56 1463.82 Q1395.62 1462.73 1398.1 1462.73 Q1403.3 1462.73 1406.31 1465.9 Q1409.35 1469.05 1409.35 1474.49 Q1409.35 1479.82 1406.2 1483.03 Q1403.05 1486.25 1397.82 1486.25 Q1391.82 1486.25 1388.65 1481.67 Q1385.48 1477.06 1385.48 1468.33 Q1385.48 1460.14 1389.37 1455.28 Q1393.26 1450.39 1399.81 1450.39 Q1401.57 1450.39 1403.35 1450.74 Q1405.16 1451.09 1407.1 1451.78 Z" fill="#000000" fill-rule="nonzero" fill-opacity="1" /><path clip-path="url(#clip420)" d="M1417.45 1451.02 L1435.8 1451.02 L1435.8 1454.96 L1421.73 1454.96 L1421.73 1463.43 Q1422.75 1463.08 1423.77 1462.92 Q1424.79 1462.73 1425.8 1462.73 Q1431.59 1462.73 1434.97 1465.9 Q1438.35 1469.08 1438.35 1474.49 Q1438.35 1480.07 1434.88 1483.17 Q1431.41 1486.25 1425.09 1486.25 Q1422.91 1486.25 1420.64 1485.88 Q1418.4 1485.51 1415.99 1484.77 L1415.99 1480.07 Q1418.07 1481.2 1420.3 1481.76 Q1422.52 1482.32 1424.99 1482.32 Q1429 1482.32 1431.34 1480.21 Q1433.68 1478.1 1433.68 1474.49 Q1433.68 1470.88 1431.34 1468.77 Q1429 1466.67 1424.99 1466.67 Q1423.12 1466.67 1421.24 1467.08 Q1419.39 1467.5 1417.45 1468.38 L1417.45 1451.02 Z" fill="#000000" fill-rule="nonzero" fill-opacity="1" /><path clip-path="url(#clip420)" d="M1793.11 1481.64 L1800.75 1481.64 L1800.75 1455.28 L1792.43 1456.95 L1792.43 1452.69 L1800.7 1451.02 L1805.37 1451.02 L1805.37 1481.64 L1813.01 1481.64 L1813.01 1485.58 L1793.11 1485.58 L1793.11 1481.64 Z" fill="#000000" fill-rule="nonzero" fill-opacity="1" /><path clip-path="url(#clip420)" d="M1836.62 1466.95 Q1839.98 1467.66 1841.86 1469.93 Q1843.75 1472.2 1843.75 1475.53 Q1843.75 1480.65 1840.24 1483.45 Q1836.72 1486.25 1830.24 1486.25 Q1828.06 1486.25 1825.74 1485.81 Q1823.45 1485.39 1821 1484.54 L1821 1480.02 Q1822.94 1481.16 1825.26 1481.74 Q1827.57 1482.32 1830.1 1482.32 Q1834.49 1482.32 1836.79 1480.58 Q1839.1 1478.84 1839.1 1475.53 Q1839.1 1472.48 1836.95 1470.77 Q1834.82 1469.03 1831 1469.03 L1826.97 1469.03 L1826.97 1465.19 L1831.18 1465.19 Q1834.63 1465.19 1836.46 1463.82 Q1838.29 1462.43 1838.29 1459.84 Q1838.29 1457.18 1836.39 1455.77 Q1834.52 1454.33 1831 1454.33 Q1829.08 1454.33 1826.88 1454.75 Q1824.68 1455.16 1822.04 1456.04 L1822.04 1451.88 Q1824.7 1451.14 1827.02 1450.77 Q1829.36 1450.39 1831.42 1450.39 Q1836.74 1450.39 1839.84 1452.83 Q1842.94 1455.23 1842.94 1459.35 Q1842.94 1462.22 1841.3 1464.21 Q1839.66 1466.18 1836.62 1466.95 Z" fill="#000000" fill-rule="nonzero" fill-opacity="1" /><path clip-path="url(#clip420)" d="M1851.44 1451.02 L1873.66 1451.02 L1873.66 1453.01 L1861.12 1485.58 L1856.23 1485.58 L1868.04 1454.96 L1851.44 1454.96 L1851.44 1451.02 Z" fill="#000000" fill-rule="nonzero" fill-opacity="1" /><path clip-path="url(#clip420)" d="M1892.78 1454.1 Q1889.17 1454.1 1887.34 1457.66 Q1885.54 1461.2 1885.54 1468.33 Q1885.54 1475.44 1887.34 1479.01 Q1889.17 1482.55 1892.78 1482.55 Q1896.42 1482.55 1898.22 1479.01 Q1900.05 1475.44 1900.05 1468.33 Q1900.05 1461.2 1898.22 1457.66 Q1896.42 1454.1 1892.78 1454.1 M1892.78 1450.39 Q1898.59 1450.39 1901.65 1455 Q1904.73 1459.58 1904.73 1468.33 Q1904.73 1477.06 1901.65 1481.67 Q1898.59 1486.25 1892.78 1486.25 Q1886.97 1486.25 1883.89 1481.67 Q1880.84 1477.06 1880.84 1468.33 Q1880.84 1459.58 1883.89 1455 Q1886.97 1450.39 1892.78 1450.39 Z" fill="#000000" fill-rule="nonzero" fill-opacity="1" /><path clip-path="url(#clip420)" d="M2259.48 1481.64 L2267.12 1481.64 L2267.12 1455.28 L2258.81 1456.95 L2258.81 1452.69 L2267.07 1451.02 L2271.75 1451.02 L2271.75 1481.64 L2279.39 1481.64 L2279.39 1485.58 L2259.48 1485.58 L2259.48 1481.64 Z" fill="#000000" fill-rule="nonzero" fill-opacity="1" /><path clip-path="url(#clip420)" d="M2303 1466.95 Q2306.36 1467.66 2308.23 1469.93 Q2310.13 1472.2 2310.13 1475.53 Q2310.13 1480.65 2306.61 1483.45 Q2303.09 1486.25 2296.61 1486.25 Q2294.43 1486.25 2292.12 1485.81 Q2289.83 1485.39 2287.37 1484.54 L2287.37 1480.02 Q2289.32 1481.16 2291.63 1481.74 Q2293.95 1482.32 2296.47 1482.32 Q2300.87 1482.32 2303.16 1480.58 Q2305.48 1478.84 2305.48 1475.53 Q2305.48 1472.48 2303.32 1470.77 Q2301.19 1469.03 2297.37 1469.03 L2293.35 1469.03 L2293.35 1465.19 L2297.56 1465.19 Q2301.01 1465.19 2302.84 1463.82 Q2304.67 1462.43 2304.67 1459.84 Q2304.67 1457.18 2302.77 1455.77 Q2300.89 1454.33 2297.37 1454.33 Q2295.45 1454.33 2293.25 1454.75 Q2291.06 1455.16 2288.42 1456.04 L2288.42 1451.88 Q2291.08 1451.14 2293.39 1450.77 Q2295.73 1450.39 2297.79 1450.39 Q2303.12 1450.39 2306.22 1452.83 Q2309.32 1455.23 2309.32 1459.35 Q2309.32 1462.22 2307.68 1464.21 Q2306.03 1466.18 2303 1466.95 Z" fill="#000000" fill-rule="nonzero" fill-opacity="1" /><path clip-path="url(#clip420)" d="M2317.81 1451.02 L2340.04 1451.02 L2340.04 1453.01 L2327.49 1485.58 L2322.61 1485.58 L2334.41 1454.96 L2317.81 1454.96 L2317.81 1451.02 Z" fill="#000000" fill-rule="nonzero" fill-opacity="1" /><path clip-path="url(#clip420)" d="M2349.2 1451.02 L2367.56 1451.02 L2367.56 1454.96 L2353.49 1454.96 L2353.49 1463.43 Q2354.5 1463.08 2355.52 1462.92 Q2356.54 1462.73 2357.56 1462.73 Q2363.35 1462.73 2366.73 1465.9 Q2370.11 1469.08 2370.11 1474.49 Q2370.11 1480.07 2366.63 1483.17 Q2363.16 1486.25 2356.84 1486.25 Q2354.67 1486.25 2352.4 1485.88 Q2350.15 1485.51 2347.74 1484.77 L2347.74 1480.07 Q2349.83 1481.2 2352.05 1481.76 Q2354.27 1482.32 2356.75 1482.32 Q2360.75 1482.32 2363.09 1480.21 Q2365.43 1478.1 2365.43 1474.49 Q2365.43 1470.88 2363.09 1468.77 Q2360.75 1466.67 2356.75 1466.67 Q2354.87 1466.67 2353 1467.08 Q2351.15 1467.5 2349.2 1468.38 L2349.2 1451.02 Z" fill="#000000" fill-rule="nonzero" fill-opacity="1" /><path clip-path="url(#clip420)" d="M852.426 1520.52 L858.855 1520.52 L858.855 1562.63 L881.995 1562.63 L881.995 1568.04 L852.426 1568.04 L852.426 1520.52 Z" fill="#000000" fill-rule="nonzero" fill-opacity="1" /><path clip-path="url(#clip420)" d="M901.155 1536.5 Q896.445 1536.5 893.708 1540.19 Q890.97 1543.85 890.97 1550.25 Q890.97 1556.65 893.676 1560.34 Q896.413 1564 901.155 1564 Q905.834 1564 908.572 1560.31 Q911.309 1556.62 911.309 1550.25 Q911.309 1543.92 908.572 1540.23 Q905.834 1536.5 901.155 1536.5 M901.155 1531.54 Q908.794 1531.54 913.155 1536.5 Q917.515 1541.47 917.515 1550.25 Q917.515 1559 913.155 1564 Q908.794 1568.97 901.155 1568.97 Q893.485 1568.97 889.124 1564 Q884.796 1559 884.796 1550.25 Q884.796 1541.47 889.124 1536.5 Q893.485 1531.54 901.155 1531.54 Z" fill="#000000" fill-rule="nonzero" fill-opacity="1" /><path clip-path="url(#clip420)" d="M923.817 1532.4 L929.674 1532.4 L936.994 1560.21 L944.283 1532.4 L951.19 1532.4 L958.51 1560.21 L965.799 1532.4 L971.656 1532.4 L962.33 1568.04 L955.423 1568.04 L947.752 1538.83 L940.05 1568.04 L933.143 1568.04 L923.817 1532.4 Z" fill="#000000" fill-rule="nonzero" fill-opacity="1" /><path clip-path="url(#clip420)" d="M1011.03 1548.76 L1011.03 1551.62 L984.101 1551.62 Q984.483 1557.67 987.729 1560.85 Q991.007 1564 996.832 1564 Q1000.21 1564 1003.36 1563.17 Q1006.54 1562.35 1009.66 1560.69 L1009.66 1566.23 Q1006.51 1567.57 1003.2 1568.27 Q999.888 1568.97 996.482 1568.97 Q987.952 1568.97 982.955 1564 Q977.99 1559.04 977.99 1550.57 Q977.99 1541.82 982.7 1536.69 Q987.443 1531.54 995.463 1531.54 Q1002.66 1531.54 1006.83 1536.18 Q1011.03 1540.8 1011.03 1548.76 M1005.17 1547.04 Q1005.11 1542.23 1002.47 1539.37 Q999.856 1536.5 995.527 1536.5 Q990.625 1536.5 987.665 1539.27 Q984.737 1542.04 984.292 1547.07 L1005.17 1547.04 Z" fill="#000000" fill-rule="nonzero" fill-opacity="1" /><path clip-path="url(#clip420)" d="M1041.3 1537.87 Q1040.31 1537.3 1039.13 1537.04 Q1037.99 1536.76 1036.59 1536.76 Q1031.62 1536.76 1028.95 1540 Q1026.31 1543.22 1026.31 1549.27 L1026.31 1568.04 L1020.42 1568.04 L1020.42 1532.4 L1026.31 1532.4 L1026.31 1537.93 Q1028.15 1534.69 1031.11 1533.13 Q1034.07 1531.54 1038.3 1531.54 Q1038.91 1531.54 1039.64 1531.63 Q1040.37 1531.7 1041.26 1531.85 L1041.3 1537.87 Z" fill="#000000" fill-rule="nonzero" fill-opacity="1" /><path clip-path="url(#clip420)" d="M1040.31 1547.58 L1057.47 1547.58 L1057.47 1552.8 L1040.31 1552.8 L1040.31 1547.58 Z" fill="#000000" fill-rule="nonzero" fill-opacity="1" /><path clip-path="url(#clip420)" d="M1067.05 1520.52 L1073.48 1520.52 L1073.48 1562.63 L1096.61 1562.63 L1096.61 1568.04 L1067.05 1568.04 L1067.05 1520.52 Z" fill="#000000" fill-rule="nonzero" fill-opacity="1" /><path clip-path="url(#clip420)" d="M1132.45 1548.76 L1132.45 1551.62 L1105.53 1551.62 Q1105.91 1557.67 1109.15 1560.85 Q1112.43 1564 1118.26 1564 Q1121.63 1564 1124.78 1563.17 Q1127.97 1562.35 1131.08 1560.69 L1131.08 1566.23 Q1127.93 1567.57 1124.62 1568.27 Q1121.31 1568.97 1117.91 1568.97 Q1109.38 1568.97 1104.38 1564 Q1099.42 1559.04 1099.42 1550.57 Q1099.42 1541.82 1104.13 1536.69 Q1108.87 1531.54 1116.89 1531.54 Q1124.08 1531.54 1128.25 1536.18 Q1132.45 1540.8 1132.45 1548.76 M1126.6 1547.04 Q1126.53 1542.23 1123.89 1539.37 Q1121.28 1536.5 1116.95 1536.5 Q1112.05 1536.5 1109.09 1539.27 Q1106.16 1542.04 1105.72 1547.07 L1126.6 1547.04 Z" fill="#000000" fill-rule="nonzero" fill-opacity="1" /><path clip-path="url(#clip420)" d="M1137.86 1532.4 L1144.07 1532.4 L1155.21 1562.31 L1166.35 1532.4 L1172.56 1532.4 L1159.19 1568.04 L1151.23 1568.04 L1137.86 1532.4 Z" fill="#000000" fill-rule="nonzero" fill-opacity="1" /><path clip-path="url(#clip420)" d="M1211.13 1548.76 L1211.13 1551.62 L1184.21 1551.62 Q1184.59 1557.67 1187.84 1560.85 Q1191.11 1564 1196.94 1564 Q1200.31 1564 1203.46 1563.17 Q1206.65 1562.35 1209.76 1560.69 L1209.76 1566.23 Q1206.61 1567.57 1203.3 1568.27 Q1199.99 1568.97 1196.59 1568.97 Q1188.06 1568.97 1183.06 1564 Q1178.1 1559.04 1178.1 1550.57 Q1178.1 1541.82 1182.81 1536.69 Q1187.55 1531.54 1195.57 1531.54 Q1202.76 1531.54 1206.93 1536.18 Q1211.13 1540.8 1211.13 1548.76 M1205.28 1547.04 Q1205.21 1542.23 1202.57 1539.37 Q1199.96 1536.5 1195.63 1536.5 Q1190.73 1536.5 1187.77 1539.27 Q1184.84 1542.04 1184.4 1547.07 L1205.28 1547.04 Z" fill="#000000" fill-rule="nonzero" fill-opacity="1" /><path clip-path="url(#clip420)" d="M1220.75 1518.52 L1226.6 1518.52 L1226.6 1568.04 L1220.75 1568.04 L1220.75 1518.52 Z" fill="#000000" fill-rule="nonzero" fill-opacity="1" /><path clip-path="url(#clip420)" d="M1259.83 1520.52 L1266.26 1520.52 L1266.26 1562.63 L1289.4 1562.63 L1289.4 1568.04 L1259.83 1568.04 L1259.83 1520.52 Z" fill="#000000" fill-rule="nonzero" fill-opacity="1" /><path clip-path="url(#clip420)" d="M1308.56 1536.5 Q1303.85 1536.5 1301.11 1540.19 Q1298.38 1543.85 1298.38 1550.25 Q1298.38 1556.65 1301.08 1560.34 Q1303.82 1564 1308.56 1564 Q1313.24 1564 1315.98 1560.31 Q1318.71 1556.62 1318.71 1550.25 Q1318.71 1543.92 1315.98 1540.23 Q1313.24 1536.5 1308.56 1536.5 M1308.56 1531.54 Q1316.2 1531.54 1320.56 1536.5 Q1324.92 1541.47 1324.92 1550.25 Q1324.92 1559 1320.56 1564 Q1316.2 1568.97 1308.56 1568.97 Q1300.89 1568.97 1296.53 1564 Q1292.2 1559 1292.2 1550.25 Q1292.2 1541.47 1296.53 1536.5 Q1300.89 1531.54 1308.56 1531.54 Z" fill="#000000" fill-rule="nonzero" fill-opacity="1" /><path clip-path="url(#clip420)" d="M1350.83 1550.12 Q1343.73 1550.12 1340.99 1551.75 Q1338.26 1553.37 1338.26 1557.29 Q1338.26 1560.4 1340.29 1562.25 Q1342.36 1564.07 1345.9 1564.07 Q1350.77 1564.07 1353.69 1560.63 Q1356.65 1557.16 1356.65 1551.43 L1356.65 1550.12 L1350.83 1550.12 M1362.51 1547.71 L1362.51 1568.04 L1356.65 1568.04 L1356.65 1562.63 Q1354.65 1565.88 1351.66 1567.44 Q1348.66 1568.97 1344.34 1568.97 Q1338.86 1568.97 1335.61 1565.91 Q1332.4 1562.82 1332.4 1557.67 Q1332.4 1551.65 1336.41 1548.6 Q1340.45 1545.54 1348.44 1545.54 L1356.65 1545.54 L1356.65 1544.97 Q1356.65 1540.93 1353.98 1538.73 Q1351.34 1536.5 1346.53 1536.5 Q1343.48 1536.5 1340.58 1537.23 Q1337.68 1537.97 1335.01 1539.43 L1335.01 1534.02 Q1338.22 1532.78 1341.25 1532.17 Q1344.27 1531.54 1347.14 1531.54 Q1354.87 1531.54 1358.69 1535.55 Q1362.51 1539.56 1362.51 1547.71 Z" fill="#000000" fill-rule="nonzero" fill-opacity="1" /><path clip-path="url(#clip420)" d="M1398.03 1537.81 L1398.03 1518.52 L1403.89 1518.52 L1403.89 1568.04 L1398.03 1568.04 L1398.03 1562.7 Q1396.18 1565.88 1393.35 1567.44 Q1390.55 1568.97 1386.6 1568.97 Q1380.14 1568.97 1376.07 1563.81 Q1372.03 1558.65 1372.03 1550.25 Q1372.03 1541.85 1376.07 1536.69 Q1380.14 1531.54 1386.6 1531.54 Q1390.55 1531.54 1393.35 1533.1 Q1396.18 1534.62 1398.03 1537.81 M1378.07 1550.25 Q1378.07 1556.71 1380.72 1560.4 Q1383.39 1564.07 1388.04 1564.07 Q1392.68 1564.07 1395.36 1560.4 Q1398.03 1556.71 1398.03 1550.25 Q1398.03 1543.79 1395.36 1540.13 Q1392.68 1536.44 1388.04 1536.44 Q1383.39 1536.44 1380.72 1540.13 Q1378.07 1543.79 1378.07 1550.25 Z" fill="#000000" fill-rule="nonzero" fill-opacity="1" /><path clip-path="url(#clip420)" d="M1465.41 1522.08 L1465.41 1528.35 Q1461.75 1526.6 1458.5 1525.74 Q1455.26 1524.88 1452.23 1524.88 Q1446.98 1524.88 1444.12 1526.92 Q1441.29 1528.96 1441.29 1532.71 Q1441.29 1535.87 1443.16 1537.49 Q1445.07 1539.08 1450.36 1540.07 L1454.24 1540.86 Q1461.43 1542.23 1464.84 1545.7 Q1468.28 1549.14 1468.28 1554.93 Q1468.28 1561.84 1463.63 1565.4 Q1459.01 1568.97 1450.07 1568.97 Q1446.7 1568.97 1442.88 1568.2 Q1439.09 1567.44 1435.02 1565.94 L1435.02 1559.32 Q1438.93 1561.52 1442.69 1562.63 Q1446.44 1563.75 1450.07 1563.75 Q1455.58 1563.75 1458.57 1561.58 Q1461.56 1559.42 1461.56 1555.41 Q1461.56 1551.91 1459.4 1549.93 Q1457.26 1547.96 1452.36 1546.97 L1448.45 1546.21 Q1441.25 1544.78 1438.04 1541.72 Q1434.82 1538.67 1434.82 1533.22 Q1434.82 1526.92 1439.25 1523.29 Q1443.7 1519.66 1451.5 1519.66 Q1454.84 1519.66 1458.31 1520.27 Q1461.78 1520.87 1465.41 1522.08 Z" fill="#000000" fill-rule="nonzero" fill-opacity="1" /><path clip-path="url(#clip420)" d="M1507.68 1546.53 L1507.68 1568.04 L1501.82 1568.04 L1501.82 1546.72 Q1501.82 1541.66 1499.85 1539.14 Q1497.88 1536.63 1493.93 1536.63 Q1489.19 1536.63 1486.45 1539.65 Q1483.71 1542.68 1483.71 1547.9 L1483.71 1568.04 L1477.82 1568.04 L1477.82 1518.52 L1483.71 1518.52 L1483.71 1537.93 Q1485.81 1534.72 1488.65 1533.13 Q1491.51 1531.54 1495.24 1531.54 Q1501.38 1531.54 1504.53 1535.36 Q1507.68 1539.14 1507.68 1546.53 Z" fill="#000000" fill-rule="nonzero" fill-opacity="1" /><path clip-path="url(#clip420)" d="M1549.85 1548.76 L1549.85 1551.62 L1522.93 1551.62 Q1523.31 1557.67 1526.55 1560.85 Q1529.83 1564 1535.66 1564 Q1539.03 1564 1542.18 1563.17 Q1545.36 1562.35 1548.48 1560.69 L1548.48 1566.23 Q1545.33 1567.57 1542.02 1568.27 Q1538.71 1568.97 1535.31 1568.97 Q1526.78 1568.97 1521.78 1564 Q1516.81 1559.04 1516.81 1550.57 Q1516.81 1541.82 1521.53 1536.69 Q1526.27 1531.54 1534.29 1531.54 Q1541.48 1531.54 1545.65 1536.18 Q1549.85 1540.8 1549.85 1548.76 M1544 1547.04 Q1543.93 1542.23 1541.29 1539.37 Q1538.68 1536.5 1534.35 1536.5 Q1529.45 1536.5 1526.49 1539.27 Q1523.56 1542.04 1523.12 1547.07 L1544 1547.04 Z" fill="#000000" fill-rule="nonzero" fill-opacity="1" /><path clip-path="url(#clip420)" d="M1582.92 1537.81 L1582.92 1518.52 L1588.78 1518.52 L1588.78 1568.04 L1582.92 1568.04 L1582.92 1562.7 Q1581.08 1565.88 1578.24 1567.44 Q1575.44 1568.97 1571.5 1568.97 Q1565.03 1568.97 1560.96 1563.81 Q1556.92 1558.65 1556.92 1550.25 Q1556.92 1541.85 1560.96 1536.69 Q1565.03 1531.54 1571.5 1531.54 Q1575.44 1531.54 1578.24 1533.1 Q1581.08 1534.62 1582.92 1537.81 M1562.97 1550.25 Q1562.97 1556.71 1565.61 1560.4 Q1568.28 1564.07 1572.93 1564.07 Q1577.58 1564.07 1580.25 1560.4 Q1582.92 1556.71 1582.92 1550.25 Q1582.92 1543.79 1580.25 1540.13 Q1577.58 1536.44 1572.93 1536.44 Q1568.28 1536.44 1565.61 1540.13 Q1562.97 1543.79 1562.97 1550.25 Z" fill="#000000" fill-rule="nonzero" fill-opacity="1" /><path clip-path="url(#clip420)" d="M1635.63 1518.58 Q1631.37 1525.9 1629.3 1533.06 Q1627.23 1540.23 1627.23 1547.58 Q1627.23 1554.93 1629.3 1562.16 Q1631.4 1569.35 1635.63 1576.64 L1630.54 1576.64 Q1625.76 1569.16 1623.38 1561.93 Q1621.02 1554.71 1621.02 1547.58 Q1621.02 1540.48 1623.38 1533.29 Q1625.73 1526.09 1630.54 1518.58 L1635.63 1518.58 Z" fill="#000000" fill-rule="nonzero" fill-opacity="1" /><path clip-path="url(#clip420)" d="M1646.77 1518.52 L1652.66 1518.52 L1652.66 1547.77 L1670.13 1532.4 L1677.61 1532.4 L1658.71 1549.07 L1678.41 1568.04 L1670.77 1568.04 L1652.66 1550.63 L1652.66 1568.04 L1646.77 1568.04 L1646.77 1518.52 Z" fill="#000000" fill-rule="nonzero" fill-opacity="1" /><path clip-path="url(#clip420)" d="M1680.76 1520.52 L1687.26 1520.52 L1697.25 1560.69 L1707.21 1520.52 L1714.44 1520.52 L1724.43 1560.69 L1734.39 1520.52 L1740.92 1520.52 L1728.98 1568.04 L1720.9 1568.04 L1710.87 1526.79 L1700.75 1568.04 L1692.67 1568.04 L1680.76 1520.52 Z" fill="#000000" fill-rule="nonzero" fill-opacity="1" /><path clip-path="url(#clip420)" d="M1748.27 1518.58 L1753.36 1518.58 Q1758.14 1526.09 1760.49 1533.29 Q1762.88 1540.48 1762.88 1547.58 Q1762.88 1554.71 1760.49 1561.93 Q1758.14 1569.16 1753.36 1576.64 L1748.27 1576.64 Q1752.51 1569.35 1754.57 1562.16 Q1756.67 1554.93 1756.67 1547.58 Q1756.67 1540.23 1754.57 1533.06 Q1752.51 1525.9 1748.27 1518.58 Z" fill="#000000" fill-rule="nonzero" fill-opacity="1" /><polyline clip-path="url(#clip420)" style="stroke:#000000; stroke-linecap:round; stroke-linejoin:round; stroke-width:4; stroke-opacity:1; fill:none" points="262.551,1423.18 262.551,123.472 "/>
<polyline clip-path="url(#clip420)" style="stroke:#000000; stroke-linecap:round; stroke-linejoin:round; stroke-width:4; stroke-opacity:1; fill:none" points="262.551,1306.03 281.449,1306.03 "/>
<polyline clip-path="url(#clip420)" style="stroke:#000000; stroke-linecap:round; stroke-linejoin:round; stroke-width:4; stroke-opacity:1; fill:none" points="262.551,1016.35 281.449,1016.35 "/>
<polyline clip-path="url(#clip420)" style="stroke:#000000; stroke-linecap:round; stroke-linejoin:round; stroke-width:4; stroke-opacity:1; fill:none" points="262.551,726.66 281.449,726.66 "/>
<polyline clip-path="url(#clip420)" style="stroke:#000000; stroke-linecap:round; stroke-linejoin:round; stroke-width:4; stroke-opacity:1; fill:none" points="262.551,436.973 281.449,436.973 "/>
<polyline clip-path="url(#clip420)" style="stroke:#000000; stroke-linecap:round; stroke-linejoin:round; stroke-width:4; stroke-opacity:1; fill:none" points="262.551,147.286 281.449,147.286 "/>
<path clip-path="url(#clip420)" d="M115.927 1319.38 L123.566 1319.38 L123.566 1293.01 L115.256 1294.68 L115.256 1290.42 L123.519 1288.75 L128.195 1288.75 L128.195 1319.38 L135.834 1319.38 L135.834 1323.31 L115.927 1323.31 L115.927 1319.38 Z" fill="#000000" fill-rule="nonzero" fill-opacity="1" /><path clip-path="url(#clip420)" d="M159.445 1304.68 Q162.802 1305.4 164.677 1307.66 Q166.575 1309.93 166.575 1313.27 Q166.575 1318.38 163.056 1321.18 Q159.538 1323.98 153.056 1323.98 Q150.88 1323.98 148.566 1323.54 Q146.274 1323.13 143.82 1322.27 L143.82 1317.76 Q145.765 1318.89 148.079 1319.47 Q150.394 1320.05 152.917 1320.05 Q157.315 1320.05 159.607 1318.31 Q161.922 1316.58 161.922 1313.27 Q161.922 1310.21 159.769 1308.5 Q157.64 1306.76 153.82 1306.76 L149.792 1306.76 L149.792 1302.92 L154.005 1302.92 Q157.454 1302.92 159.283 1301.55 Q161.112 1300.16 161.112 1297.57 Q161.112 1294.91 159.214 1293.5 Q157.339 1292.06 153.82 1292.06 Q151.899 1292.06 149.7 1292.48 Q147.501 1292.9 144.862 1293.78 L144.862 1289.61 Q147.524 1288.87 149.839 1288.5 Q152.177 1288.13 154.237 1288.13 Q159.561 1288.13 162.663 1290.56 Q165.765 1292.97 165.765 1297.09 Q165.765 1299.96 164.121 1301.95 Q162.477 1303.91 159.445 1304.68 Z" fill="#000000" fill-rule="nonzero" fill-opacity="1" /><path clip-path="url(#clip420)" d="M175.487 1288.75 L193.843 1288.75 L193.843 1292.69 L179.769 1292.69 L179.769 1301.16 Q180.788 1300.81 181.806 1300.65 Q182.825 1300.47 183.843 1300.47 Q189.63 1300.47 193.01 1303.64 Q196.389 1306.81 196.389 1312.22 Q196.389 1317.8 192.917 1320.91 Q189.445 1323.98 183.126 1323.98 Q180.95 1323.98 178.681 1323.61 Q176.436 1323.24 174.028 1322.5 L174.028 1317.8 Q176.112 1318.94 178.334 1319.49 Q180.556 1320.05 183.033 1320.05 Q187.038 1320.05 189.375 1317.94 Q191.713 1315.84 191.713 1312.22 Q191.713 1308.61 189.375 1306.51 Q187.038 1304.4 183.033 1304.4 Q181.158 1304.4 179.283 1304.82 Q177.431 1305.23 175.487 1306.11 L175.487 1288.75 Z" fill="#000000" fill-rule="nonzero" fill-opacity="1" /><path clip-path="url(#clip420)" d="M205.649 1288.75 L224.005 1288.75 L224.005 1292.69 L209.931 1292.69 L209.931 1301.16 Q210.949 1300.81 211.968 1300.65 Q212.986 1300.47 214.005 1300.47 Q219.792 1300.47 223.172 1303.64 Q226.551 1306.81 226.551 1312.22 Q226.551 1317.8 223.079 1320.91 Q219.607 1323.98 213.287 1323.98 Q211.111 1323.98 208.843 1323.61 Q206.598 1323.24 204.19 1322.5 L204.19 1317.8 Q206.274 1318.94 208.496 1319.49 Q210.718 1320.05 213.195 1320.05 Q217.199 1320.05 219.537 1317.94 Q221.875 1315.84 221.875 1312.22 Q221.875 1308.61 219.537 1306.51 Q217.199 1304.4 213.195 1304.4 Q211.32 1304.4 209.445 1304.82 Q207.593 1305.23 205.649 1306.11 L205.649 1288.75 Z" fill="#000000" fill-rule="nonzero" fill-opacity="1" /><path clip-path="url(#clip420)" d="M114.931 1029.69 L122.57 1029.69 L122.57 1003.33 L114.26 1004.99 L114.26 1000.73 L122.524 999.066 L127.2 999.066 L127.2 1029.69 L134.839 1029.69 L134.839 1033.63 L114.931 1033.63 L114.931 1029.69 Z" fill="#000000" fill-rule="nonzero" fill-opacity="1" /><path clip-path="url(#clip420)" d="M158.45 1014.99 Q161.806 1015.71 163.681 1017.98 Q165.579 1020.25 165.579 1023.58 Q165.579 1028.7 162.061 1031.5 Q158.542 1034.3 152.061 1034.3 Q149.885 1034.3 147.57 1033.86 Q145.279 1033.44 142.825 1032.58 L142.825 1028.07 Q144.769 1029.2 147.084 1029.78 Q149.399 1030.36 151.922 1030.36 Q156.32 1030.36 158.612 1028.63 Q160.927 1026.89 160.927 1023.58 Q160.927 1020.52 158.774 1018.81 Q156.644 1017.08 152.825 1017.08 L148.797 1017.08 L148.797 1013.23 L153.01 1013.23 Q156.459 1013.23 158.288 1011.87 Q160.116 1010.48 160.116 1007.89 Q160.116 1005.22 158.218 1003.81 Q156.343 1002.38 152.825 1002.38 Q150.903 1002.38 148.704 1002.79 Q146.505 1003.21 143.866 1004.09 L143.866 999.923 Q146.529 999.182 148.843 998.812 Q151.181 998.441 153.241 998.441 Q158.565 998.441 161.667 1000.87 Q164.769 1003.28 164.769 1007.4 Q164.769 1010.27 163.126 1012.26 Q161.482 1014.23 158.45 1014.99 Z" fill="#000000" fill-rule="nonzero" fill-opacity="1" /><path clip-path="url(#clip420)" d="M185.024 1014.48 Q181.876 1014.48 180.024 1016.64 Q178.195 1018.79 178.195 1022.54 Q178.195 1026.27 180.024 1028.44 Q181.876 1030.59 185.024 1030.59 Q188.172 1030.59 190 1028.44 Q191.852 1026.27 191.852 1022.54 Q191.852 1018.79 190 1016.64 Q188.172 1014.48 185.024 1014.48 M194.306 999.83 L194.306 1004.09 Q192.547 1003.26 190.741 1002.82 Q188.959 1002.38 187.2 1002.38 Q182.57 1002.38 180.116 1005.5 Q177.686 1008.63 177.339 1014.95 Q178.704 1012.93 180.764 1011.87 Q182.825 1010.78 185.301 1010.78 Q190.51 1010.78 193.519 1013.95 Q196.551 1017.1 196.551 1022.54 Q196.551 1027.86 193.403 1031.08 Q190.255 1034.3 185.024 1034.3 Q179.028 1034.3 175.857 1029.71 Q172.686 1025.11 172.686 1016.38 Q172.686 1008.19 176.575 1003.33 Q180.464 998.441 187.014 998.441 Q188.774 998.441 190.556 998.788 Q192.362 999.136 194.306 999.83 Z" fill="#000000" fill-rule="nonzero" fill-opacity="1" /><path clip-path="url(#clip420)" d="M214.607 1002.14 Q210.996 1002.14 209.167 1005.71 Q207.362 1009.25 207.362 1016.38 Q207.362 1023.49 209.167 1027.05 Q210.996 1030.59 214.607 1030.59 Q218.241 1030.59 220.047 1027.05 Q221.875 1023.49 221.875 1016.38 Q221.875 1009.25 220.047 1005.71 Q218.241 1002.14 214.607 1002.14 M214.607 998.441 Q220.417 998.441 223.473 1003.05 Q226.551 1007.63 226.551 1016.38 Q226.551 1025.11 223.473 1029.71 Q220.417 1034.3 214.607 1034.3 Q208.797 1034.3 205.718 1029.71 Q202.662 1025.11 202.662 1016.38 Q202.662 1007.63 205.718 1003.05 Q208.797 998.441 214.607 998.441 Z" fill="#000000" fill-rule="nonzero" fill-opacity="1" /><path clip-path="url(#clip420)" d="M115.927 740.004 L123.566 740.004 L123.566 713.639 L115.256 715.305 L115.256 711.046 L123.519 709.38 L128.195 709.38 L128.195 740.004 L135.834 740.004 L135.834 743.94 L115.927 743.94 L115.927 740.004 Z" fill="#000000" fill-rule="nonzero" fill-opacity="1" /><path clip-path="url(#clip420)" d="M159.445 725.305 Q162.802 726.023 164.677 728.291 Q166.575 730.56 166.575 733.893 Q166.575 739.009 163.056 741.81 Q159.538 744.611 153.056 744.611 Q150.88 744.611 148.566 744.171 Q146.274 743.754 143.82 742.898 L143.82 738.384 Q145.765 739.518 148.079 740.097 Q150.394 740.676 152.917 740.676 Q157.315 740.676 159.607 738.94 Q161.922 737.203 161.922 733.893 Q161.922 730.838 159.769 729.125 Q157.64 727.389 153.82 727.389 L149.792 727.389 L149.792 723.546 L154.005 723.546 Q157.454 723.546 159.283 722.18 Q161.112 720.791 161.112 718.199 Q161.112 715.537 159.214 714.125 Q157.339 712.69 153.82 712.69 Q151.899 712.69 149.7 713.106 Q147.501 713.523 144.862 714.403 L144.862 710.236 Q147.524 709.495 149.839 709.125 Q152.177 708.755 154.237 708.755 Q159.561 708.755 162.663 711.185 Q165.765 713.592 165.765 717.713 Q165.765 720.583 164.121 722.574 Q162.477 724.541 159.445 725.305 Z" fill="#000000" fill-rule="nonzero" fill-opacity="1" /><path clip-path="url(#clip420)" d="M186.019 724.796 Q182.871 724.796 181.019 726.949 Q179.19 729.102 179.19 732.852 Q179.19 736.578 181.019 738.754 Q182.871 740.907 186.019 740.907 Q189.167 740.907 190.996 738.754 Q192.848 736.578 192.848 732.852 Q192.848 729.102 190.996 726.949 Q189.167 724.796 186.019 724.796 M195.301 710.143 L195.301 714.403 Q193.542 713.569 191.737 713.13 Q189.954 712.69 188.195 712.69 Q183.565 712.69 181.112 715.815 Q178.681 718.94 178.334 725.259 Q179.7 723.245 181.76 722.18 Q183.82 721.092 186.297 721.092 Q191.505 721.092 194.514 724.264 Q197.547 727.412 197.547 732.852 Q197.547 738.176 194.399 741.393 Q191.25 744.611 186.019 744.611 Q180.024 744.611 176.852 740.028 Q173.681 735.421 173.681 726.694 Q173.681 718.5 177.57 713.639 Q181.459 708.755 188.01 708.755 Q189.769 708.755 191.551 709.102 Q193.357 709.449 195.301 710.143 Z" fill="#000000" fill-rule="nonzero" fill-opacity="1" /><path clip-path="url(#clip420)" d="M205.649 709.38 L224.005 709.38 L224.005 713.315 L209.931 713.315 L209.931 721.787 Q210.949 721.44 211.968 721.278 Q212.986 721.092 214.005 721.092 Q219.792 721.092 223.172 724.264 Q226.551 727.435 226.551 732.852 Q226.551 738.43 223.079 741.532 Q219.607 744.611 213.287 744.611 Q211.111 744.611 208.843 744.24 Q206.598 743.87 204.19 743.129 L204.19 738.43 Q206.274 739.565 208.496 740.12 Q210.718 740.676 213.195 740.676 Q217.199 740.676 219.537 738.569 Q221.875 736.463 221.875 732.852 Q221.875 729.241 219.537 727.134 Q217.199 725.028 213.195 725.028 Q211.32 725.028 209.445 725.444 Q207.593 725.861 205.649 726.741 L205.649 709.38 Z" fill="#000000" fill-rule="nonzero" fill-opacity="1" /><path clip-path="url(#clip420)" d="M114.931 450.318 L122.57 450.318 L122.57 423.952 L114.26 425.619 L114.26 421.36 L122.524 419.693 L127.2 419.693 L127.2 450.318 L134.839 450.318 L134.839 454.253 L114.931 454.253 L114.931 450.318 Z" fill="#000000" fill-rule="nonzero" fill-opacity="1" /><path clip-path="url(#clip420)" d="M158.45 435.619 Q161.806 436.336 163.681 438.605 Q165.579 440.873 165.579 444.207 Q165.579 449.322 162.061 452.123 Q158.542 454.924 152.061 454.924 Q149.885 454.924 147.57 454.484 Q145.279 454.068 142.825 453.211 L142.825 448.697 Q144.769 449.832 147.084 450.41 Q149.399 450.989 151.922 450.989 Q156.32 450.989 158.612 449.253 Q160.927 447.517 160.927 444.207 Q160.927 441.151 158.774 439.438 Q156.644 437.702 152.825 437.702 L148.797 437.702 L148.797 433.859 L153.01 433.859 Q156.459 433.859 158.288 432.494 Q160.116 431.105 160.116 428.512 Q160.116 425.85 158.218 424.438 Q156.343 423.003 152.825 423.003 Q150.903 423.003 148.704 423.42 Q146.505 423.836 143.866 424.716 L143.866 420.549 Q146.529 419.809 148.843 419.438 Q151.181 419.068 153.241 419.068 Q158.565 419.068 161.667 421.498 Q164.769 423.906 164.769 428.026 Q164.769 430.896 163.126 432.887 Q161.482 434.855 158.45 435.619 Z" fill="#000000" fill-rule="nonzero" fill-opacity="1" /><path clip-path="url(#clip420)" d="M173.264 419.693 L195.487 419.693 L195.487 421.684 L182.94 454.253 L178.056 454.253 L189.862 423.628 L173.264 423.628 L173.264 419.693 Z" fill="#000000" fill-rule="nonzero" fill-opacity="1" /><path clip-path="url(#clip420)" d="M214.607 422.772 Q210.996 422.772 209.167 426.336 Q207.362 429.878 207.362 437.008 Q207.362 444.114 209.167 447.679 Q210.996 451.22 214.607 451.22 Q218.241 451.22 220.047 447.679 Q221.875 444.114 221.875 437.008 Q221.875 429.878 220.047 426.336 Q218.241 422.772 214.607 422.772 M214.607 419.068 Q220.417 419.068 223.473 423.674 Q226.551 428.258 226.551 437.008 Q226.551 445.734 223.473 450.341 Q220.417 454.924 214.607 454.924 Q208.797 454.924 205.718 450.341 Q202.662 445.734 202.662 437.008 Q202.662 428.258 205.718 423.674 Q208.797 419.068 214.607 419.068 Z" fill="#000000" fill-rule="nonzero" fill-opacity="1" /><path clip-path="url(#clip420)" d="M115.927 160.631 L123.566 160.631 L123.566 134.265 L115.256 135.932 L115.256 131.673 L123.519 130.006 L128.195 130.006 L128.195 160.631 L135.834 160.631 L135.834 164.566 L115.927 164.566 L115.927 160.631 Z" fill="#000000" fill-rule="nonzero" fill-opacity="1" /><path clip-path="url(#clip420)" d="M159.445 145.932 Q162.802 146.65 164.677 148.918 Q166.575 151.187 166.575 154.52 Q166.575 159.636 163.056 162.437 Q159.538 165.237 153.056 165.237 Q150.88 165.237 148.566 164.798 Q146.274 164.381 143.82 163.525 L143.82 159.011 Q145.765 160.145 148.079 160.724 Q150.394 161.302 152.917 161.302 Q157.315 161.302 159.607 159.566 Q161.922 157.83 161.922 154.52 Q161.922 151.464 159.769 149.751 Q157.64 148.015 153.82 148.015 L149.792 148.015 L149.792 144.173 L154.005 144.173 Q157.454 144.173 159.283 142.807 Q161.112 141.418 161.112 138.826 Q161.112 136.164 159.214 134.752 Q157.339 133.316 153.82 133.316 Q151.899 133.316 149.7 133.733 Q147.501 134.15 144.862 135.029 L144.862 130.863 Q147.524 130.122 149.839 129.752 Q152.177 129.381 154.237 129.381 Q159.561 129.381 162.663 131.812 Q165.765 134.219 165.765 138.339 Q165.765 141.21 164.121 143.201 Q162.477 145.168 159.445 145.932 Z" fill="#000000" fill-rule="nonzero" fill-opacity="1" /><path clip-path="url(#clip420)" d="M174.26 130.006 L196.482 130.006 L196.482 131.997 L183.936 164.566 L179.051 164.566 L190.857 133.941 L174.26 133.941 L174.26 130.006 Z" fill="#000000" fill-rule="nonzero" fill-opacity="1" /><path clip-path="url(#clip420)" d="M205.649 130.006 L224.005 130.006 L224.005 133.941 L209.931 133.941 L209.931 142.414 Q210.949 142.066 211.968 141.904 Q212.986 141.719 214.005 141.719 Q219.792 141.719 223.172 144.89 Q226.551 148.062 226.551 153.478 Q226.551 159.057 223.079 162.159 Q219.607 165.237 213.287 165.237 Q211.111 165.237 208.843 164.867 Q206.598 164.497 204.19 163.756 L204.19 159.057 Q206.274 160.191 208.496 160.747 Q210.718 161.302 213.195 161.302 Q217.199 161.302 219.537 159.196 Q221.875 157.089 221.875 153.478 Q221.875 149.867 219.537 147.761 Q217.199 145.654 213.195 145.654 Q211.32 145.654 209.445 146.071 Q207.593 146.488 205.649 147.367 L205.649 130.006 Z" fill="#000000" fill-rule="nonzero" fill-opacity="1" /><path clip-path="url(#clip420)" d="M16.4842 1229.97 L16.4842 1223.51 L45.3526 1223.51 Q52.9915 1223.51 56.3653 1220.74 Q59.7073 1217.97 59.7073 1211.76 Q59.7073 1205.59 56.3653 1202.82 Q52.9915 1200.05 45.3526 1200.05 L16.4842 1200.05 L16.4842 1193.59 L46.1484 1193.59 Q55.4423 1193.59 60.1847 1198.21 Q64.9272 1202.79 64.9272 1211.76 Q64.9272 1220.77 60.1847 1225.39 Q55.4423 1229.97 46.1484 1229.97 L16.4842 1229.97 Z" fill="#000000" fill-rule="nonzero" fill-opacity="1" /><path clip-path="url(#clip420)" d="M58.657 1176.12 L77.5631 1176.12 L77.5631 1182 L28.3562 1182 L28.3562 1176.12 L33.7671 1176.12 Q30.5842 1174.27 29.0564 1171.47 Q27.4968 1168.64 27.4968 1164.72 Q27.4968 1158.23 32.6531 1154.19 Q37.8093 1150.11 46.212 1150.11 Q54.6147 1150.11 59.771 1154.19 Q64.9272 1158.23 64.9272 1164.72 Q64.9272 1168.64 63.3994 1171.47 Q61.8398 1174.27 58.657 1176.12 M46.212 1156.19 Q39.7508 1156.19 36.0905 1158.87 Q32.3984 1161.51 32.3984 1166.15 Q32.3984 1170.8 36.0905 1173.47 Q39.7508 1176.12 46.212 1176.12 Q52.6732 1176.12 56.3653 1173.47 Q60.0256 1170.8 60.0256 1166.15 Q60.0256 1161.51 56.3653 1158.87 Q52.6732 1156.19 46.212 1156.19 Z" fill="#000000" fill-rule="nonzero" fill-opacity="1" /><path clip-path="url(#clip420)" d="M58.657 1134.74 L77.5631 1134.74 L77.5631 1140.63 L28.3562 1140.63 L28.3562 1134.74 L33.7671 1134.74 Q30.5842 1132.89 29.0564 1130.09 Q27.4968 1127.26 27.4968 1123.34 Q27.4968 1116.85 32.6531 1112.81 Q37.8093 1108.74 46.212 1108.74 Q54.6147 1108.74 59.771 1112.81 Q64.9272 1116.85 64.9272 1123.34 Q64.9272 1127.26 63.3994 1130.09 Q61.8398 1132.89 58.657 1134.74 M46.212 1114.81 Q39.7508 1114.81 36.0905 1117.49 Q32.3984 1120.13 32.3984 1124.78 Q32.3984 1129.42 36.0905 1132.1 Q39.7508 1134.74 46.212 1134.74 Q52.6732 1134.74 56.3653 1132.1 Q60.0256 1129.42 60.0256 1124.78 Q60.0256 1120.13 56.3653 1117.49 Q52.6732 1114.81 46.212 1114.81 Z" fill="#000000" fill-rule="nonzero" fill-opacity="1" /><path clip-path="url(#clip420)" d="M44.7161 1068.54 L47.5806 1068.54 L47.5806 1095.46 Q53.6281 1095.08 56.8109 1091.83 Q59.9619 1088.56 59.9619 1082.73 Q59.9619 1079.36 59.1344 1076.21 Q58.3069 1073.02 56.6518 1069.9 L62.1899 1069.9 Q63.5267 1073.06 64.227 1076.37 Q64.9272 1079.68 64.9272 1083.08 Q64.9272 1091.61 59.9619 1096.61 Q54.9967 1101.57 46.5303 1101.57 Q37.7774 1101.57 32.6531 1096.86 Q27.4968 1092.12 27.4968 1084.1 Q27.4968 1076.91 32.1438 1072.74 Q36.7589 1068.54 44.7161 1068.54 M42.9973 1074.39 Q38.1912 1074.46 35.3266 1077.1 Q32.4621 1079.71 32.4621 1084.04 Q32.4621 1088.94 35.2312 1091.9 Q38.0002 1094.83 43.0292 1095.27 L42.9973 1074.39 Z" fill="#000000" fill-rule="nonzero" fill-opacity="1" /><path clip-path="url(#clip420)" d="M33.8307 1038.27 Q33.2578 1039.25 33.0032 1040.43 Q32.7167 1041.58 32.7167 1042.98 Q32.7167 1047.94 35.9632 1050.62 Q39.1779 1053.26 45.2253 1053.26 L64.0042 1053.26 L64.0042 1059.15 L28.3562 1059.15 L28.3562 1053.26 L33.8944 1053.26 Q30.6479 1051.41 29.0883 1048.45 Q27.4968 1045.49 27.4968 1041.26 Q27.4968 1040.65 27.5923 1039.92 Q27.656 1039.19 27.8151 1038.3 L33.8307 1038.27 Z" fill="#000000" fill-rule="nonzero" fill-opacity="1" /><path clip-path="url(#clip420)" d="M43.5384 1039.25 L43.5384 1022.1 L48.7583 1022.1 L48.7583 1039.25 L43.5384 1039.25 Z" fill="#000000" fill-rule="nonzero" fill-opacity="1" /><path clip-path="url(#clip420)" d="M16.4842 1012.52 L16.4842 1006.09 L58.5933 1006.09 L58.5933 982.949 L64.0042 982.949 L64.0042 1012.52 L16.4842 1012.52 Z" fill="#000000" fill-rule="nonzero" fill-opacity="1" /><path clip-path="url(#clip420)" d="M44.7161 947.11 L47.5806 947.11 L47.5806 974.037 Q53.6281 973.655 56.8109 970.408 Q59.9619 967.13 59.9619 961.305 Q59.9619 957.931 59.1344 954.78 Q58.3069 951.598 56.6518 948.478 L62.1899 948.478 Q63.5267 951.629 64.227 954.94 Q64.9272 958.25 64.9272 961.655 Q64.9272 970.185 59.9619 975.183 Q54.9967 980.148 46.5303 980.148 Q37.7774 980.148 32.6531 975.437 Q27.4968 970.695 27.4968 962.674 Q27.4968 955.481 32.1438 951.311 Q36.7589 947.11 44.7161 947.11 M42.9973 952.966 Q38.1912 953.03 35.3266 955.672 Q32.4621 958.282 32.4621 962.61 Q32.4621 967.512 35.2312 970.472 Q38.0002 973.4 43.0292 973.846 L42.9973 952.966 Z" fill="#000000" fill-rule="nonzero" fill-opacity="1" /><path clip-path="url(#clip420)" d="M28.3562 941.699 L28.3562 935.492 L58.275 924.352 L28.3562 913.212 L28.3562 907.006 L64.0042 920.374 L64.0042 928.331 L28.3562 941.699 Z" fill="#000000" fill-rule="nonzero" fill-opacity="1" /><path clip-path="url(#clip420)" d="M44.7161 868.43 L47.5806 868.43 L47.5806 895.357 Q53.6281 894.975 56.8109 891.728 Q59.9619 888.45 59.9619 882.625 Q59.9619 879.251 59.1344 876.1 Q58.3069 872.917 56.6518 869.798 L62.1899 869.798 Q63.5267 872.949 64.227 876.259 Q64.9272 879.57 64.9272 882.975 Q64.9272 891.505 59.9619 896.502 Q54.9967 901.468 46.5303 901.468 Q37.7774 901.468 32.6531 896.757 Q27.4968 892.015 27.4968 883.994 Q27.4968 876.801 32.1438 872.631 Q36.7589 868.43 44.7161 868.43 M42.9973 874.286 Q38.1912 874.35 35.3266 876.992 Q32.4621 879.601 32.4621 883.93 Q32.4621 888.832 35.2312 891.792 Q38.0002 894.72 43.0292 895.166 L42.9973 874.286 Z" fill="#000000" fill-rule="nonzero" fill-opacity="1" /><path clip-path="url(#clip420)" d="M14.479 858.817 L14.479 852.961 L64.0042 852.961 L64.0042 858.817 L14.479 858.817 Z" fill="#000000" fill-rule="nonzero" fill-opacity="1" /><path clip-path="url(#clip420)" d="M16.4842 819.732 L16.4842 813.303 L58.5933 813.303 L58.5933 790.163 L64.0042 790.163 L64.0042 819.732 L16.4842 819.732 Z" fill="#000000" fill-rule="nonzero" fill-opacity="1" /><path clip-path="url(#clip420)" d="M32.4621 771.003 Q32.4621 775.713 36.1542 778.45 Q39.8145 781.188 46.212 781.188 Q52.6095 781.188 56.3017 778.482 Q59.9619 775.745 59.9619 771.003 Q59.9619 766.324 56.2698 763.586 Q52.5777 760.849 46.212 760.849 Q39.8781 760.849 36.186 763.586 Q32.4621 766.324 32.4621 771.003 M27.4968 771.003 Q27.4968 763.364 32.4621 759.003 Q37.4273 754.643 46.212 754.643 Q54.9649 754.643 59.9619 759.003 Q64.9272 763.364 64.9272 771.003 Q64.9272 778.673 59.9619 783.034 Q54.9649 787.362 46.212 787.362 Q37.4273 787.362 32.4621 783.034 Q27.4968 778.673 27.4968 771.003 Z" fill="#000000" fill-rule="nonzero" fill-opacity="1" /><path clip-path="url(#clip420)" d="M46.0847 728.734 Q46.0847 735.832 47.7079 738.569 Q49.3312 741.306 53.2461 741.306 Q56.3653 741.306 58.2114 739.269 Q60.0256 737.201 60.0256 733.668 Q60.0256 728.798 56.5881 725.87 Q53.1188 722.91 47.3897 722.91 L46.0847 722.91 L46.0847 728.734 M43.6657 717.053 L64.0042 717.053 L64.0042 722.91 L58.5933 722.91 Q61.8398 724.915 63.3994 727.907 Q64.9272 730.899 64.9272 735.227 Q64.9272 740.702 61.8716 743.948 Q58.7843 747.163 53.6281 747.163 Q47.6125 747.163 44.5569 743.153 Q41.5014 739.11 41.5014 731.121 L41.5014 722.91 L40.9285 722.91 Q36.8862 722.91 34.6901 725.583 Q32.4621 728.225 32.4621 733.031 Q32.4621 736.087 33.1941 738.983 Q33.9262 741.879 35.3903 744.553 L29.9795 744.553 Q28.7381 741.338 28.1334 738.315 Q27.4968 735.291 27.4968 732.426 Q27.4968 724.692 31.5072 720.873 Q35.5176 717.053 43.6657 717.053 Z" fill="#000000" fill-rule="nonzero" fill-opacity="1" /><path clip-path="url(#clip420)" d="M33.7671 681.532 L14.479 681.532 L14.479 675.676 L64.0042 675.676 L64.0042 681.532 L58.657 681.532 Q61.8398 683.379 63.3994 686.211 Q64.9272 689.012 64.9272 692.959 Q64.9272 699.42 59.771 703.494 Q54.6147 707.536 46.212 707.536 Q37.8093 707.536 32.6531 703.494 Q27.4968 699.42 27.4968 692.959 Q27.4968 689.012 29.0564 686.211 Q30.5842 683.379 33.7671 681.532 M46.212 701.489 Q52.6732 701.489 56.3653 698.847 Q60.0256 696.174 60.0256 691.527 Q60.0256 686.88 56.3653 684.206 Q52.6732 681.532 46.212 681.532 Q39.7508 681.532 36.0905 684.206 Q32.3984 686.88 32.3984 691.527 Q32.3984 696.174 36.0905 698.847 Q39.7508 701.489 46.212 701.489 Z" fill="#000000" fill-rule="nonzero" fill-opacity="1" /><path clip-path="url(#clip420)" d="M18.0438 614.151 L24.314 614.151 Q22.5634 617.812 21.704 621.058 Q20.8447 624.305 20.8447 627.329 Q20.8447 632.58 22.8817 635.445 Q24.9187 638.278 28.6745 638.278 Q31.8255 638.278 33.4488 636.4 Q35.0402 634.49 36.0269 629.206 L36.8226 625.323 Q38.1912 618.13 41.6605 614.724 Q45.098 611.287 50.8908 611.287 Q57.7976 611.287 61.3624 615.934 Q64.9272 620.549 64.9272 629.493 Q64.9272 632.867 64.1633 636.686 Q63.3994 640.474 61.9035 644.548 L55.2831 644.548 Q57.4793 640.633 58.5933 636.877 Q59.7073 633.121 59.7073 629.493 Q59.7073 623.987 57.543 620.995 Q55.3786 618.003 51.3682 618.003 Q47.8671 618.003 45.8937 620.167 Q43.9204 622.3 42.9337 627.201 L42.1698 631.116 Q40.7375 638.309 37.682 641.524 Q34.6264 644.739 29.1837 644.739 Q22.8817 644.739 19.2532 640.315 Q15.6248 635.859 15.6248 628.061 Q15.6248 624.719 16.2295 621.249 Q16.8343 617.78 18.0438 614.151 Z" fill="#000000" fill-rule="nonzero" fill-opacity="1" /><path clip-path="url(#clip420)" d="M42.4881 571.883 L64.0042 571.883 L64.0042 577.74 L42.679 577.74 Q37.6183 577.74 35.1038 579.713 Q32.5894 581.686 32.5894 585.633 Q32.5894 590.376 35.6131 593.113 Q38.6368 595.85 43.8567 595.85 L64.0042 595.85 L64.0042 601.738 L14.479 601.738 L14.479 595.85 L33.8944 595.85 Q30.6797 593.749 29.0883 590.917 Q27.4968 588.052 27.4968 584.328 Q27.4968 578.185 31.3163 575.034 Q35.1038 571.883 42.4881 571.883 Z" fill="#000000" fill-rule="nonzero" fill-opacity="1" /><path clip-path="url(#clip420)" d="M44.7161 529.71 L47.5806 529.71 L47.5806 556.637 Q53.6281 556.255 56.8109 553.009 Q59.9619 549.731 59.9619 543.906 Q59.9619 540.532 59.1344 537.381 Q58.3069 534.198 56.6518 531.079 L62.1899 531.079 Q63.5267 534.23 64.227 537.54 Q64.9272 540.85 64.9272 544.256 Q64.9272 552.786 59.9619 557.783 Q54.9967 562.748 46.5303 562.748 Q37.7774 562.748 32.6531 558.038 Q27.4968 553.295 27.4968 545.275 Q27.4968 538.081 32.1438 533.912 Q36.7589 529.71 44.7161 529.71 M42.9973 535.567 Q38.1912 535.63 35.3266 538.272 Q32.4621 540.882 32.4621 545.211 Q32.4621 550.112 35.2312 553.073 Q38.0002 556.001 43.0292 556.446 L42.9973 535.567 Z" fill="#000000" fill-rule="nonzero" fill-opacity="1" /><path clip-path="url(#clip420)" d="M33.7671 496.641 L14.479 496.641 L14.479 490.784 L64.0042 490.784 L64.0042 496.641 L58.657 496.641 Q61.8398 498.487 63.3994 501.319 Q64.9272 504.12 64.9272 508.067 Q64.9272 514.528 59.771 518.602 Q54.6147 522.644 46.212 522.644 Q37.8093 522.644 32.6531 518.602 Q27.4968 514.528 27.4968 508.067 Q27.4968 504.12 29.0564 501.319 Q30.5842 498.487 33.7671 496.641 M46.212 516.597 Q52.6732 516.597 56.3653 513.955 Q60.0256 511.282 60.0256 506.635 Q60.0256 501.988 56.3653 499.314 Q52.6732 496.641 46.212 496.641 Q39.7508 496.641 36.0905 499.314 Q32.3984 501.988 32.3984 506.635 Q32.3984 511.282 36.0905 513.955 Q39.7508 516.597 46.212 516.597 Z" fill="#000000" fill-rule="nonzero" fill-opacity="1" /><path clip-path="url(#clip420)" d="M14.5426 443.932 Q21.8632 448.198 29.0246 450.266 Q36.186 452.335 43.5384 452.335 Q50.8908 452.335 58.1159 450.266 Q65.3091 448.166 72.5979 443.932 L72.5979 449.025 Q65.1182 453.799 57.8931 456.186 Q50.668 458.542 43.5384 458.542 Q36.4406 458.542 29.2474 456.186 Q22.0542 453.831 14.5426 449.025 L14.5426 443.932 Z" fill="#000000" fill-rule="nonzero" fill-opacity="1" /><path clip-path="url(#clip420)" d="M14.479 432.793 L14.479 426.904 L43.7294 426.904 L28.3562 409.43 L28.3562 401.951 L45.0344 420.857 L64.0042 401.155 L64.0042 408.794 L46.5939 426.904 L64.0042 426.904 L64.0042 432.793 L14.479 432.793 Z" fill="#000000" fill-rule="nonzero" fill-opacity="1" /><path clip-path="url(#clip420)" d="M16.4842 398.8 L16.4842 392.307 L56.6518 382.312 L16.4842 372.35 L16.4842 365.125 L56.6518 355.131 L16.4842 345.169 L16.4842 338.644 L64.0042 350.579 L64.0042 358.664 L22.7544 368.69 L64.0042 378.811 L64.0042 386.896 L16.4842 398.8 Z" fill="#000000" fill-rule="nonzero" fill-opacity="1" /><path clip-path="url(#clip420)" d="M14.5426 331.291 L14.5426 326.199 Q22.0542 321.424 29.2474 319.069 Q36.4406 316.682 43.5384 316.682 Q50.668 316.682 57.8931 319.069 Q65.1182 321.424 72.5979 326.199 L72.5979 331.291 Q65.3091 327.058 58.1159 324.989 Q50.8908 322.889 43.5384 322.889 Q36.186 322.889 29.0246 324.989 Q21.8632 327.058 14.5426 331.291 Z" fill="#000000" fill-rule="nonzero" fill-opacity="1" /><path clip-path="url(#clip420)" d="M601.682 12.096 L609.865 12.096 L609.865 65.6895 L639.315 65.6895 L639.315 72.576 L601.682 72.576 L601.682 12.096 Z" fill="#000000" fill-rule="nonzero" fill-opacity="1" /><path clip-path="url(#clip420)" d="M663.702 32.4315 Q657.706 32.4315 654.222 37.1306 Q650.739 41.7891 650.739 49.9314 Q650.739 58.0738 654.182 62.7728 Q657.666 67.4314 663.702 67.4314 Q669.656 67.4314 673.14 62.7323 Q676.624 58.0333 676.624 49.9314 Q676.624 41.8701 673.14 37.1711 Q669.656 32.4315 663.702 32.4315 M663.702 26.1121 Q673.424 26.1121 678.973 32.4315 Q684.523 38.7509 684.523 49.9314 Q684.523 61.0714 678.973 67.4314 Q673.424 73.7508 663.702 73.7508 Q653.939 73.7508 648.389 67.4314 Q642.88 61.0714 642.88 49.9314 Q642.88 38.7509 648.389 32.4315 Q653.939 26.1121 663.702 26.1121 Z" fill="#000000" fill-rule="nonzero" fill-opacity="1" /><path clip-path="url(#clip420)" d="M717.498 49.7694 Q708.464 49.7694 704.98 51.8354 Q701.497 53.9013 701.497 58.8839 Q701.497 62.8538 704.089 65.2034 Q706.722 67.5124 711.219 67.5124 Q717.417 67.5124 721.143 63.1374 Q724.911 58.7219 724.911 51.4303 L724.911 49.7694 L717.498 49.7694 M732.364 46.6907 L732.364 72.576 L724.911 72.576 L724.911 65.6895 Q722.359 69.8214 718.551 71.8063 Q714.743 73.7508 709.234 73.7508 Q702.266 73.7508 698.134 69.8619 Q694.043 65.9325 694.043 59.3701 Q694.043 51.7138 699.147 47.825 Q704.292 43.9361 714.459 43.9361 L724.911 43.9361 L724.911 43.2069 Q724.911 38.0623 721.508 35.2672 Q718.146 32.4315 712.029 32.4315 Q708.14 32.4315 704.454 33.3632 Q700.767 34.295 697.365 36.1584 L697.365 29.2718 Q701.456 27.692 705.304 26.9223 Q709.153 26.1121 712.799 26.1121 Q722.642 26.1121 727.503 31.2163 Q732.364 36.3204 732.364 46.6907 Z" fill="#000000" fill-rule="nonzero" fill-opacity="1" /><path clip-path="url(#clip420)" d="M777.572 34.0924 L777.572 9.54393 L785.026 9.54393 L785.026 72.576 L777.572 72.576 L777.572 65.7705 Q775.223 69.8214 771.618 71.8063 Q768.053 73.7508 763.03 73.7508 Q754.806 73.7508 749.621 67.1883 Q744.477 60.6258 744.477 49.9314 Q744.477 39.2371 749.621 32.6746 Q754.806 26.1121 763.03 26.1121 Q768.053 26.1121 771.618 28.0971 Q775.223 30.0415 777.572 34.0924 M752.173 49.9314 Q752.173 58.1548 755.536 62.8538 Q758.938 67.5124 764.853 67.5124 Q770.767 67.5124 774.17 62.8538 Q777.572 58.1548 777.572 49.9314 Q777.572 41.7081 774.17 37.0496 Q770.767 32.3505 764.853 32.3505 Q758.938 32.3505 755.536 37.0496 Q752.173 41.7081 752.173 49.9314 Z" fill="#000000" fill-rule="nonzero" fill-opacity="1" /><path clip-path="url(#clip420)" d="M863.33 14.0809 L863.33 22.0612 Q858.672 19.8332 854.54 18.7395 Q850.408 17.6457 846.559 17.6457 Q839.875 17.6457 836.23 20.2383 Q832.624 22.8309 832.624 27.611 Q832.624 31.6214 835.014 33.6873 Q837.445 35.7128 844.169 36.9686 L849.111 37.9813 Q858.267 39.7232 862.601 44.1387 Q866.976 48.5136 866.976 55.8863 Q866.976 64.6767 861.062 69.2137 Q855.188 73.7508 843.805 73.7508 Q839.511 73.7508 834.65 72.7785 Q829.829 71.8063 824.644 69.9024 L824.644 61.4765 Q829.627 64.2716 834.407 65.6895 Q839.187 67.1073 843.805 67.1073 Q850.813 67.1073 854.621 64.3527 Q858.429 61.598 858.429 56.4939 Q858.429 52.0379 855.674 49.5264 Q852.96 47.0148 846.721 45.759 L841.739 44.7868 Q832.584 42.9639 828.492 39.075 Q824.401 35.1862 824.401 28.2591 Q824.401 20.2383 830.032 15.6203 Q835.703 11.0023 845.628 11.0023 Q849.881 11.0023 854.297 11.7719 Q858.712 12.5416 863.33 14.0809 Z" fill="#000000" fill-rule="nonzero" fill-opacity="1" /><path clip-path="url(#clip420)" d="M917.126 45.1919 L917.126 72.576 L909.672 72.576 L909.672 45.4349 Q909.672 38.994 907.161 35.7938 Q904.649 32.5936 899.626 32.5936 Q893.59 32.5936 890.107 36.4419 Q886.623 40.2903 886.623 46.9338 L886.623 72.576 L879.129 72.576 L879.129 9.54393 L886.623 9.54393 L886.623 34.2544 Q889.296 30.163 892.902 28.1376 Q896.548 26.1121 901.287 26.1121 Q909.105 26.1121 913.116 30.9732 Q917.126 35.7938 917.126 45.1919 Z" fill="#000000" fill-rule="nonzero" fill-opacity="1" /><path clip-path="url(#clip420)" d="M970.801 48.0275 L970.801 51.6733 L936.53 51.6733 Q937.016 59.3701 941.148 63.421 Q945.32 67.4314 952.734 67.4314 Q957.028 67.4314 961.038 66.3781 Q965.089 65.3249 969.059 63.2184 L969.059 70.267 Q965.048 71.9684 960.835 72.8596 Q956.622 73.7508 952.288 73.7508 Q941.432 73.7508 935.072 67.4314 Q928.752 61.1119 928.752 50.3365 Q928.752 39.1965 934.748 32.6746 Q940.783 26.1121 950.992 26.1121 Q960.147 26.1121 965.453 32.0264 Q970.801 37.9003 970.801 48.0275 M963.347 45.84 Q963.266 39.7232 959.904 36.0774 Q956.582 32.4315 951.073 32.4315 Q944.834 32.4315 941.067 35.9558 Q937.34 39.4801 936.773 45.8805 L963.347 45.84 Z" fill="#000000" fill-rule="nonzero" fill-opacity="1" /><path clip-path="url(#clip420)" d="M1012.89 34.0924 L1012.89 9.54393 L1020.34 9.54393 L1020.34 72.576 L1012.89 72.576 L1012.89 65.7705 Q1010.54 69.8214 1006.93 71.8063 Q1003.37 73.7508 998.347 73.7508 Q990.123 73.7508 984.938 67.1883 Q979.794 60.6258 979.794 49.9314 Q979.794 39.2371 984.938 32.6746 Q990.123 26.1121 998.347 26.1121 Q1003.37 26.1121 1006.93 28.0971 Q1010.54 30.0415 1012.89 34.0924 M987.49 49.9314 Q987.49 58.1548 990.853 62.8538 Q994.255 67.5124 1000.17 67.5124 Q1006.08 67.5124 1009.49 62.8538 Q1012.89 58.1548 1012.89 49.9314 Q1012.89 41.7081 1009.49 37.0496 Q1006.08 32.3505 1000.17 32.3505 Q994.255 32.3505 990.853 37.0496 Q987.49 41.7081 987.49 49.9314 Z" fill="#000000" fill-rule="nonzero" fill-opacity="1" /><path clip-path="url(#clip420)" d="M1107.68 16.7545 L1107.68 25.383 Q1103.55 21.5346 1098.85 19.6307 Q1094.19 17.7268 1088.92 17.7268 Q1078.55 17.7268 1073.05 24.0867 Q1067.54 30.4061 1067.54 42.3968 Q1067.54 54.3469 1073.05 60.7069 Q1078.55 67.0263 1088.92 67.0263 Q1094.19 67.0263 1098.85 65.1223 Q1103.55 63.2184 1107.68 59.3701 L1107.68 67.9175 Q1103.39 70.8341 1098.57 72.2924 Q1093.79 73.7508 1088.44 73.7508 Q1074.71 73.7508 1066.81 65.3654 Q1058.91 56.9395 1058.91 42.3968 Q1058.91 27.8135 1066.81 19.4281 Q1074.71 11.0023 1088.44 11.0023 Q1093.87 11.0023 1098.65 12.4606 Q1103.47 13.8784 1107.68 16.7545 Z" fill="#000000" fill-rule="nonzero" fill-opacity="1" /><path clip-path="url(#clip420)" d="M1137.58 32.4315 Q1131.58 32.4315 1128.1 37.1306 Q1124.61 41.7891 1124.61 49.9314 Q1124.61 58.0738 1128.06 62.7728 Q1131.54 67.4314 1137.58 67.4314 Q1143.53 67.4314 1147.01 62.7323 Q1150.5 58.0333 1150.5 49.9314 Q1150.5 41.8701 1147.01 37.1711 Q1143.53 32.4315 1137.58 32.4315 M1137.58 26.1121 Q1147.3 26.1121 1152.85 32.4315 Q1158.4 38.7509 1158.4 49.9314 Q1158.4 61.0714 1152.85 67.4314 Q1147.3 73.7508 1137.58 73.7508 Q1127.81 73.7508 1122.26 67.4314 Q1116.75 61.0714 1116.75 49.9314 Q1116.75 38.7509 1122.26 32.4315 Q1127.81 26.1121 1137.58 26.1121 Z" fill="#000000" fill-rule="nonzero" fill-opacity="1" /><path clip-path="url(#clip420)" d="M1206.08 35.9153 Q1208.87 30.8922 1212.76 28.5022 Q1216.65 26.1121 1221.92 26.1121 Q1229.01 26.1121 1232.85 31.0947 Q1236.7 36.0368 1236.7 45.1919 L1236.7 72.576 L1229.21 72.576 L1229.21 45.4349 Q1229.21 38.913 1226.9 35.7533 Q1224.59 32.5936 1219.85 32.5936 Q1214.06 32.5936 1210.7 36.4419 Q1207.33 40.2903 1207.33 46.9338 L1207.33 72.576 L1199.84 72.576 L1199.84 45.4349 Q1199.84 38.8725 1197.53 35.7533 Q1195.22 32.5936 1190.4 32.5936 Q1184.69 32.5936 1181.33 36.4824 Q1177.96 40.3308 1177.96 46.9338 L1177.96 72.576 L1170.47 72.576 L1170.47 27.2059 L1177.96 27.2059 L1177.96 34.2544 Q1180.52 30.082 1184.08 28.0971 Q1187.65 26.1121 1192.55 26.1121 Q1197.49 26.1121 1200.93 28.6237 Q1204.42 31.1352 1206.08 35.9153 Z" fill="#000000" fill-rule="nonzero" fill-opacity="1" /><path clip-path="url(#clip420)" d="M1258.78 65.7705 L1258.78 89.8329 L1251.29 89.8329 L1251.29 27.2059 L1258.78 27.2059 L1258.78 34.0924 Q1261.13 30.0415 1264.69 28.0971 Q1268.3 26.1121 1273.28 26.1121 Q1281.55 26.1121 1286.69 32.6746 Q1291.88 39.2371 1291.88 49.9314 Q1291.88 60.6258 1286.69 67.1883 Q1281.55 73.7508 1273.28 73.7508 Q1268.3 73.7508 1264.69 71.8063 Q1261.13 69.8214 1258.78 65.7705 M1284.14 49.9314 Q1284.14 41.7081 1280.74 37.0496 Q1277.37 32.3505 1271.46 32.3505 Q1265.54 32.3505 1262.14 37.0496 Q1258.78 41.7081 1258.78 49.9314 Q1258.78 58.1548 1262.14 62.8538 Q1265.54 67.5124 1271.46 67.5124 Q1277.37 67.5124 1280.74 62.8538 Q1284.14 58.1548 1284.14 49.9314 Z" fill="#000000" fill-rule="nonzero" fill-opacity="1" /><path clip-path="url(#clip420)" d="M1324.85 49.7694 Q1315.82 49.7694 1312.33 51.8354 Q1308.85 53.9013 1308.85 58.8839 Q1308.85 62.8538 1311.44 65.2034 Q1314.07 67.5124 1318.57 67.5124 Q1324.77 67.5124 1328.5 63.1374 Q1332.26 58.7219 1332.26 51.4303 L1332.26 49.7694 L1324.85 49.7694 M1339.72 46.6907 L1339.72 72.576 L1332.26 72.576 L1332.26 65.6895 Q1329.71 69.8214 1325.9 71.8063 Q1322.1 73.7508 1316.59 73.7508 Q1309.62 73.7508 1305.49 69.8619 Q1301.39 65.9325 1301.39 59.3701 Q1301.39 51.7138 1306.5 47.825 Q1311.64 43.9361 1321.81 43.9361 L1332.26 43.9361 L1332.26 43.2069 Q1332.26 38.0623 1328.86 35.2672 Q1325.5 32.4315 1319.38 32.4315 Q1315.49 32.4315 1311.81 33.3632 Q1308.12 34.295 1304.72 36.1584 L1304.72 29.2718 Q1308.81 27.692 1312.66 26.9223 Q1316.5 26.1121 1320.15 26.1121 Q1329.99 26.1121 1334.86 31.2163 Q1339.72 36.3204 1339.72 46.6907 Z" fill="#000000" fill-rule="nonzero" fill-opacity="1" /><path clip-path="url(#clip420)" d="M1381.36 34.1734 Q1380.1 33.4443 1378.61 33.1202 Q1377.15 32.7556 1375.36 32.7556 Q1369.05 32.7556 1365.64 36.8875 Q1362.28 40.9789 1362.28 48.6757 L1362.28 72.576 L1354.79 72.576 L1354.79 27.2059 L1362.28 27.2059 L1362.28 34.2544 Q1364.63 30.1225 1368.4 28.1376 Q1372.16 26.1121 1377.55 26.1121 Q1378.32 26.1121 1379.25 26.2337 Q1380.19 26.3147 1381.32 26.5172 L1381.36 34.1734 Z" fill="#000000" fill-rule="nonzero" fill-opacity="1" /><path clip-path="url(#clip420)" d="M1389.18 27.2059 L1396.63 27.2059 L1396.63 72.576 L1389.18 72.576 L1389.18 27.2059 M1389.18 9.54393 L1396.63 9.54393 L1396.63 18.9825 L1389.18 18.9825 L1389.18 9.54393 Z" fill="#000000" fill-rule="nonzero" fill-opacity="1" /><path clip-path="url(#clip420)" d="M1441.15 28.5427 L1441.15 35.5912 Q1437.99 33.9709 1434.59 33.1607 Q1431.19 32.3505 1427.54 32.3505 Q1421.99 32.3505 1419.2 34.0519 Q1416.44 35.7533 1416.44 39.156 Q1416.44 41.7486 1418.43 43.2475 Q1420.41 44.7058 1426.41 46.0426 L1428.96 46.6097 Q1436.9 48.3111 1440.22 51.4303 Q1443.58 54.509 1443.58 60.0587 Q1443.58 66.3781 1438.56 70.0644 Q1433.58 73.7508 1424.83 73.7508 Q1421.18 73.7508 1417.21 73.0216 Q1413.28 72.3329 1408.91 70.9151 L1408.91 63.2184 Q1413.04 65.3654 1417.05 66.4591 Q1421.06 67.5124 1424.99 67.5124 Q1430.25 67.5124 1433.09 65.73 Q1435.93 63.9071 1435.93 60.6258 Q1435.93 57.5877 1433.86 55.9673 Q1431.83 54.3469 1424.91 52.8481 L1422.31 52.2405 Q1415.39 50.7821 1412.31 47.7845 Q1409.23 44.7463 1409.23 39.4801 Q1409.23 33.0797 1413.77 29.5959 Q1418.3 26.1121 1426.65 26.1121 Q1430.78 26.1121 1434.43 26.7198 Q1438.07 27.3274 1441.15 28.5427 Z" fill="#000000" fill-rule="nonzero" fill-opacity="1" /><path clip-path="url(#clip420)" d="M1473.03 32.4315 Q1467.04 32.4315 1463.55 37.1306 Q1460.07 41.7891 1460.07 49.9314 Q1460.07 58.0738 1463.51 62.7728 Q1467 67.4314 1473.03 67.4314 Q1478.99 67.4314 1482.47 62.7323 Q1485.95 58.0333 1485.95 49.9314 Q1485.95 41.8701 1482.47 37.1711 Q1478.99 32.4315 1473.03 32.4315 M1473.03 26.1121 Q1482.75 26.1121 1488.3 32.4315 Q1493.85 38.7509 1493.85 49.9314 Q1493.85 61.0714 1488.3 67.4314 Q1482.75 73.7508 1473.03 73.7508 Q1463.27 73.7508 1457.72 67.4314 Q1452.21 61.0714 1452.21 49.9314 Q1452.21 38.7509 1457.72 32.4315 Q1463.27 26.1121 1473.03 26.1121 Z" fill="#000000" fill-rule="nonzero" fill-opacity="1" /><path clip-path="url(#clip420)" d="M1543.92 45.1919 L1543.92 72.576 L1536.47 72.576 L1536.47 45.4349 Q1536.47 38.994 1533.96 35.7938 Q1531.45 32.5936 1526.42 32.5936 Q1520.39 32.5936 1516.9 36.4419 Q1513.42 40.2903 1513.42 46.9338 L1513.42 72.576 L1505.93 72.576 L1505.93 27.2059 L1513.42 27.2059 L1513.42 34.2544 Q1516.09 30.163 1519.7 28.1376 Q1523.34 26.1121 1528.08 26.1121 Q1535.9 26.1121 1539.91 30.9732 Q1543.92 35.7938 1543.92 45.1919 Z" fill="#000000" fill-rule="nonzero" fill-opacity="1" /><path clip-path="url(#clip420)" d="M1603.07 9.62495 Q1597.64 18.942 1595 28.0566 Q1592.37 37.1711 1592.37 46.5287 Q1592.37 55.8863 1595 65.0818 Q1597.68 74.2369 1603.07 83.5134 L1596.58 83.5134 Q1590.51 73.9938 1587.47 64.7983 Q1584.47 55.6027 1584.47 46.5287 Q1584.47 37.4952 1587.47 28.3401 Q1590.47 19.1851 1596.58 9.62495 L1603.07 9.62495 Z" fill="#000000" fill-rule="nonzero" fill-opacity="1" /><path clip-path="url(#clip420)" d="M1652.85 35.9153 Q1655.65 30.8922 1659.54 28.5022 Q1663.42 26.1121 1668.69 26.1121 Q1675.78 26.1121 1679.63 31.0947 Q1683.48 36.0368 1683.48 45.1919 L1683.48 72.576 L1675.98 72.576 L1675.98 45.4349 Q1675.98 38.913 1673.67 35.7533 Q1671.36 32.5936 1666.62 32.5936 Q1660.83 32.5936 1657.47 36.4419 Q1654.11 40.2903 1654.11 46.9338 L1654.11 72.576 L1646.61 72.576 L1646.61 45.4349 Q1646.61 38.8725 1644.3 35.7533 Q1641.99 32.5936 1637.17 32.5936 Q1631.46 32.5936 1628.1 36.4824 Q1624.74 40.3308 1624.74 46.9338 L1624.74 72.576 L1617.24 72.576 L1617.24 27.2059 L1624.74 27.2059 L1624.74 34.2544 Q1627.29 30.082 1630.85 28.0971 Q1634.42 26.1121 1639.32 26.1121 Q1644.26 26.1121 1647.71 28.6237 Q1651.19 31.1352 1652.85 35.9153 Z" fill="#000000" fill-rule="nonzero" fill-opacity="1" /><path clip-path="url(#clip420)" d="M1698.34 27.2059 L1705.8 27.2059 L1705.8 72.576 L1698.34 72.576 L1698.34 27.2059 M1698.34 9.54393 L1705.8 9.54393 L1705.8 18.9825 L1698.34 18.9825 L1698.34 9.54393 Z" fill="#000000" fill-rule="nonzero" fill-opacity="1" /><path clip-path="url(#clip420)" d="M1759.11 45.1919 L1759.11 72.576 L1751.65 72.576 L1751.65 45.4349 Q1751.65 38.994 1749.14 35.7938 Q1746.63 32.5936 1741.61 32.5936 Q1735.57 32.5936 1732.09 36.4419 Q1728.6 40.2903 1728.6 46.9338 L1728.6 72.576 L1721.11 72.576 L1721.11 27.2059 L1728.6 27.2059 L1728.6 34.2544 Q1731.28 30.163 1734.88 28.1376 Q1738.53 26.1121 1743.27 26.1121 Q1751.09 26.1121 1755.1 30.9732 Q1759.11 35.7938 1759.11 45.1919 Z" fill="#000000" fill-rule="nonzero" fill-opacity="1" /><path clip-path="url(#clip420)" d="M1808.45 86.3491 L1808.45 92.1419 L1765.34 92.1419 L1765.34 86.3491 L1808.45 86.3491 Z" fill="#000000" fill-rule="nonzero" fill-opacity="1" /><path clip-path="url(#clip420)" d="M1850.78 35.9153 Q1853.57 30.8922 1857.46 28.5022 Q1861.35 26.1121 1866.62 26.1121 Q1873.71 26.1121 1877.56 31.0947 Q1881.4 36.0368 1881.4 45.1919 L1881.4 72.576 L1873.91 72.576 L1873.91 45.4349 Q1873.91 38.913 1871.6 35.7533 Q1869.29 32.5936 1864.55 32.5936 Q1858.76 32.5936 1855.4 36.4419 Q1852.03 40.2903 1852.03 46.9338 L1852.03 72.576 L1844.54 72.576 L1844.54 45.4349 Q1844.54 38.8725 1842.23 35.7533 Q1839.92 32.5936 1835.1 32.5936 Q1829.39 32.5936 1826.03 36.4824 Q1822.67 40.3308 1822.67 46.9338 L1822.67 72.576 L1815.17 72.576 L1815.17 27.2059 L1822.67 27.2059 L1822.67 34.2544 Q1825.22 30.082 1828.78 28.0971 Q1832.35 26.1121 1837.25 26.1121 Q1842.19 26.1121 1845.63 28.6237 Q1849.12 31.1352 1850.78 35.9153 Z" fill="#000000" fill-rule="nonzero" fill-opacity="1" /><path clip-path="url(#clip420)" d="M1916.89 49.7694 Q1907.86 49.7694 1904.37 51.8354 Q1900.89 53.9013 1900.89 58.8839 Q1900.89 62.8538 1903.48 65.2034 Q1906.11 67.5124 1910.61 67.5124 Q1916.81 67.5124 1920.54 63.1374 Q1924.3 58.7219 1924.3 51.4303 L1924.3 49.7694 L1916.89 49.7694 M1931.76 46.6907 L1931.76 72.576 L1924.3 72.576 L1924.3 65.6895 Q1921.75 69.8214 1917.94 71.8063 Q1914.13 73.7508 1908.63 73.7508 Q1901.66 73.7508 1897.53 69.8619 Q1893.43 65.9325 1893.43 59.3701 Q1893.43 51.7138 1898.54 47.825 Q1903.68 43.9361 1913.85 43.9361 L1924.3 43.9361 L1924.3 43.2069 Q1924.3 38.0623 1920.9 35.2672 Q1917.54 32.4315 1911.42 32.4315 Q1907.53 32.4315 1903.85 33.3632 Q1900.16 34.295 1896.76 36.1584 L1896.76 29.2718 Q1900.85 27.692 1904.7 26.9223 Q1908.54 26.1121 1912.19 26.1121 Q1922.03 26.1121 1926.9 31.2163 Q1931.76 36.3204 1931.76 46.6907 Z" fill="#000000" fill-rule="nonzero" fill-opacity="1" /><path clip-path="url(#clip420)" d="M1984.82 27.2059 L1968.42 49.2833 L1985.67 72.576 L1976.88 72.576 L1963.68 54.752 L1950.47 72.576 L1941.68 72.576 L1959.3 48.8377 L1943.18 27.2059 L1951.97 27.2059 L1964 43.369 L1976.03 27.2059 L1984.82 27.2059 Z" fill="#000000" fill-rule="nonzero" fill-opacity="1" /><path clip-path="url(#clip420)" d="M1995.03 9.62495 L2001.51 9.62495 Q2007.59 19.1851 2010.59 28.3401 Q2013.62 37.4952 2013.62 46.5287 Q2013.62 55.6027 2010.59 64.7983 Q2007.59 73.9938 2001.51 83.5134 L1995.03 83.5134 Q2000.42 74.2369 2003.05 65.0818 Q2005.73 55.8863 2005.73 46.5287 Q2005.73 37.1711 2003.05 28.0566 Q2000.42 18.942 1995.03 9.62495 Z" fill="#000000" fill-rule="nonzero" fill-opacity="1" /><path clip-path="url(#clip422)" d="M2293.6 1402.4 L2282.29 1397.71 L2277.6 1386.4 L2282.29 1375.08 L2293.6 1370.4 L2304.91 1375.08 L2309.6 1386.4 L2304.91 1397.71 Z" fill="#009af9" fill-rule="evenodd" fill-opacity="1" stroke="#000000" stroke-opacity="1" stroke-width="3.2"/>
<path clip-path="url(#clip422)" d="M2293.6 1402.4 L2282.29 1397.71 L2277.6 1386.4 L2282.29 1375.08 L2293.6 1370.4 L2304.91 1375.08 L2309.6 1386.4 L2304.91 1397.71 Z" fill="#009af9" fill-rule="evenodd" fill-opacity="1" stroke="#000000" stroke-opacity="1" stroke-width="3.2"/>
<path clip-path="url(#clip422)" d="M2293.6 1402.4 L2282.29 1397.71 L2277.6 1386.4 L2282.29 1375.08 L2293.6 1370.4 L2304.91 1375.08 L2309.6 1386.4 L2304.91 1397.71 Z" fill="#009af9" fill-rule="evenodd" fill-opacity="1" stroke="#000000" stroke-opacity="1" stroke-width="3.2"/>
<path clip-path="url(#clip422)" d="M2293.6 1402.4 L2282.29 1397.71 L2277.6 1386.4 L2282.29 1375.08 L2293.6 1370.4 L2304.91 1375.08 L2309.6 1386.4 L2304.91 1397.71 Z" fill="#009af9" fill-rule="evenodd" fill-opacity="1" stroke="#000000" stroke-opacity="1" stroke-width="3.2"/>
<path clip-path="url(#clip422)" d="M2293.6 1402.4 L2282.29 1397.71 L2277.6 1386.4 L2282.29 1375.08 L2293.6 1370.4 L2304.91 1375.08 L2309.6 1386.4 L2304.91 1397.71 Z" fill="#009af9" fill-rule="evenodd" fill-opacity="1" stroke="#000000" stroke-opacity="1" stroke-width="3.2"/>
<polyline clip-path="url(#clip422)" style="stroke:#ff0000; stroke-linecap:round; stroke-linejoin:round; stroke-width:4; stroke-opacity:1; fill:none" stroke-dasharray="16, 10" points="321.708,1386.4 341.626,1374.01 361.544,1361.63 381.462,1349.24 401.38,1336.85 421.298,1324.47 441.217,1312.08 461.135,1299.7 481.053,1287.31 500.971,1274.93 520.889,1262.54 540.807,1250.16 560.725,1237.77 580.643,1225.39 600.561,1213 620.479,1200.62 640.397,1188.23 660.316,1175.85 680.234,1163.46 700.152,1151.08 720.07,1138.69 739.988,1126.31 759.906,1113.92 779.824,1101.54 799.742,1089.15 819.66,1076.76 839.578,1064.38 859.496,1051.99 879.415,1039.61 899.333,1027.22 919.251,1014.84 939.169,1002.45 959.087,990.068 979.005,977.683 998.923,965.297 1018.84,952.912 1038.76,940.527 1058.68,928.142 1078.6,915.756 1098.51,903.371 1118.43,890.986 1138.35,878.601 1158.27,866.215 1178.19,853.83 1198.1,841.445 1218.02,829.06 1237.94,816.674 1257.86,804.289 1277.78,791.904 1297.69,779.519 1317.61,767.133 1337.53,754.748 1357.45,742.363 1377.37,729.978 1397.28,717.592 1417.2,705.207 1437.12,692.822 1457.04,680.437 1476.96,668.051 1496.88,655.666 1516.79,643.281 1536.71,630.896 1556.63,618.51 1576.55,606.125 1596.47,593.74 1616.38,581.355 1636.3,568.969 1656.22,556.584 1676.14,544.199 1696.06,531.814 1715.97,519.428 1735.89,507.043 1755.81,494.658 1775.73,482.273 1795.65,469.887 1815.56,457.502 1835.48,445.117 1855.4,432.732 1875.32,420.346 1895.24,407.961 1915.16,395.576 1935.07,383.191 1954.99,370.805 1974.91,358.42 1994.83,346.035 2014.75,333.65 2034.66,321.265 2054.58,308.879 2074.5,296.494 2094.42,284.109 2114.34,271.724 2134.25,259.338 2154.17,246.953 2174.09,234.568 2194.01,222.183 2213.93,209.797 2233.84,197.412 2253.76,185.027 2273.68,172.642 2293.6,160.256 "/>
<path clip-path="url(#clip420)" d="M332.225 322.316 L733.652 322.316 L733.652 166.796 L332.225 166.796  Z" fill="#ffffff" fill-rule="evenodd" fill-opacity="1"/>
<polyline clip-path="url(#clip420)" style="stroke:#000000; stroke-linecap:round; stroke-linejoin:round; stroke-width:4; stroke-opacity:1; fill:none" points="332.225,322.316 733.652,322.316 733.652,166.796 332.225,166.796 332.225,322.316 "/>
<path clip-path="url(#clip420)" d="M425.123 241.391 L409.035 234.724 L402.367 218.636 L409.035 202.548 L425.123 195.88 L441.211 202.548 L447.878 218.636 L441.211 234.724 Z" fill="#009af9" fill-rule="evenodd" fill-opacity="1" stroke="#000000" stroke-opacity="1" stroke-width="4.55111"/>
<path clip-path="url(#clip420)" d="M518.021 201.356 L522.697 201.356 L522.697 235.916 L518.021 235.916 L518.021 201.356 Z" fill="#000000" fill-rule="nonzero" fill-opacity="1" /><path clip-path="url(#clip420)" d="M536.03 202.629 L536.03 209.99 L544.803 209.99 L544.803 213.3 L536.03 213.3 L536.03 227.374 Q536.03 230.545 536.886 231.448 Q537.766 232.351 540.428 232.351 L544.803 232.351 L544.803 235.916 L540.428 235.916 Q535.497 235.916 533.622 234.087 Q531.747 232.235 531.747 227.374 L531.747 213.3 L528.622 213.3 L528.622 209.99 L531.747 209.99 L531.747 202.629 L536.03 202.629 Z" fill="#000000" fill-rule="nonzero" fill-opacity="1" /><path clip-path="url(#clip420)" d="M572.581 221.888 L572.581 223.971 L552.997 223.971 Q553.275 228.369 555.636 230.684 Q558.02 232.976 562.257 232.976 Q564.71 232.976 567.002 232.374 Q569.317 231.772 571.585 230.569 L571.585 234.596 Q569.294 235.568 566.886 236.078 Q564.479 236.587 562.002 236.587 Q555.798 236.587 552.164 232.976 Q548.553 229.365 548.553 223.207 Q548.553 216.842 551.979 213.115 Q555.428 209.365 561.261 209.365 Q566.493 209.365 569.525 212.745 Q572.581 216.101 572.581 221.888 M568.321 220.638 Q568.275 217.143 566.354 215.059 Q564.456 212.976 561.307 212.976 Q557.743 212.976 555.59 214.99 Q553.46 217.004 553.136 220.661 L568.321 220.638 Z" fill="#000000" fill-rule="nonzero" fill-opacity="1" /><path clip-path="url(#clip420)" d="M594.594 213.971 Q593.877 213.555 593.02 213.37 Q592.187 213.161 591.168 213.161 Q587.557 213.161 585.613 215.522 Q583.692 217.86 583.692 222.258 L583.692 235.916 L579.409 235.916 L579.409 209.99 L583.692 209.99 L583.692 214.018 Q585.034 211.657 587.187 210.522 Q589.34 209.365 592.418 209.365 Q592.858 209.365 593.391 209.434 Q593.923 209.481 594.571 209.596 L594.594 213.971 Z" fill="#000000" fill-rule="nonzero" fill-opacity="1" /><path clip-path="url(#clip420)" d="M610.844 222.883 Q605.682 222.883 603.692 224.064 Q601.701 225.244 601.701 228.092 Q601.701 230.36 603.182 231.703 Q604.687 233.022 607.256 233.022 Q610.798 233.022 612.928 230.522 Q615.08 227.999 615.08 223.832 L615.08 222.883 L610.844 222.883 M619.34 221.124 L619.34 235.916 L615.08 235.916 L615.08 231.981 Q613.622 234.342 611.446 235.476 Q609.27 236.587 606.122 236.587 Q602.141 236.587 599.78 234.365 Q597.442 232.119 597.442 228.369 Q597.442 223.994 600.358 221.772 Q603.298 219.55 609.108 219.55 L615.08 219.55 L615.08 219.133 Q615.08 216.194 613.136 214.596 Q611.215 212.976 607.719 212.976 Q605.497 212.976 603.391 213.508 Q601.284 214.041 599.34 215.106 L599.34 211.17 Q601.678 210.268 603.877 209.828 Q606.076 209.365 608.159 209.365 Q613.784 209.365 616.562 212.282 Q619.34 215.198 619.34 221.124 Z" fill="#000000" fill-rule="nonzero" fill-opacity="1" /><path clip-path="url(#clip420)" d="M632.326 202.629 L632.326 209.99 L641.099 209.99 L641.099 213.3 L632.326 213.3 L632.326 227.374 Q632.326 230.545 633.182 231.448 Q634.062 232.351 636.724 232.351 L641.099 232.351 L641.099 235.916 L636.724 235.916 Q631.793 235.916 629.918 234.087 Q628.043 232.235 628.043 227.374 L628.043 213.3 L624.918 213.3 L624.918 209.99 L628.043 209.99 L628.043 202.629 L632.326 202.629 Z" fill="#000000" fill-rule="nonzero" fill-opacity="1" /><path clip-path="url(#clip420)" d="M646.701 209.99 L650.96 209.99 L650.96 235.916 L646.701 235.916 L646.701 209.99 M646.701 199.897 L650.96 199.897 L650.96 205.291 L646.701 205.291 L646.701 199.897 Z" fill="#000000" fill-rule="nonzero" fill-opacity="1" /><path clip-path="url(#clip420)" d="M669.918 212.976 Q666.492 212.976 664.501 215.661 Q662.511 218.323 662.511 222.976 Q662.511 227.629 664.478 230.314 Q666.469 232.976 669.918 232.976 Q673.321 232.976 675.312 230.291 Q677.302 227.606 677.302 222.976 Q677.302 218.37 675.312 215.684 Q673.321 212.976 669.918 212.976 M669.918 209.365 Q675.474 209.365 678.645 212.976 Q681.816 216.587 681.816 222.976 Q681.816 229.342 678.645 232.976 Q675.474 236.587 669.918 236.587 Q664.339 236.587 661.168 232.976 Q658.02 229.342 658.02 222.976 Q658.02 216.587 661.168 212.976 Q664.339 209.365 669.918 209.365 Z" fill="#000000" fill-rule="nonzero" fill-opacity="1" /><path clip-path="url(#clip420)" d="M710.427 220.268 L710.427 235.916 L706.168 235.916 L706.168 220.407 Q706.168 216.726 704.733 214.897 Q703.297 213.069 700.427 213.069 Q696.978 213.069 694.987 215.268 Q692.997 217.467 692.997 221.263 L692.997 235.916 L688.714 235.916 L688.714 209.99 L692.997 209.99 L692.997 214.018 Q694.524 211.68 696.585 210.522 Q698.668 209.365 701.376 209.365 Q705.844 209.365 708.135 212.143 Q710.427 214.897 710.427 220.268 Z" fill="#000000" fill-rule="nonzero" fill-opacity="1" /><polyline clip-path="url(#clip420)" style="stroke:#ff0000; stroke-linecap:round; stroke-linejoin:round; stroke-width:4; stroke-opacity:1; fill:none" stroke-dasharray="16, 10" points="355.449,270.476 494.796,270.476 "/>
<path clip-path="url(#clip420)" d="M531.863 290.163 Q530.058 294.793 528.345 296.205 Q526.632 297.617 523.761 297.617 L520.359 297.617 L520.359 294.052 L522.859 294.052 Q524.618 294.052 525.59 293.219 Q526.562 292.385 527.743 289.283 L528.507 287.339 L518.021 261.83 L522.535 261.83 L530.636 282.108 L538.738 261.83 L543.252 261.83 L531.863 290.163 Z" fill="#000000" fill-rule="nonzero" fill-opacity="1" /><path clip-path="url(#clip420)" d="M549.687 266.228 L579.363 266.228 L579.363 270.117 L549.687 270.117 L549.687 266.228 M549.687 275.672 L579.363 275.672 L579.363 279.608 L549.687 279.608 L549.687 275.672 Z" fill="#000000" fill-rule="nonzero" fill-opacity="1" /><path clip-path="url(#clip420)" d="M610.404 261.83 L601.029 274.446 L610.891 287.756 L605.867 287.756 L598.321 277.571 L590.775 287.756 L585.752 287.756 L595.821 274.191 L586.608 261.83 L591.631 261.83 L598.506 271.066 L605.381 261.83 L610.404 261.83 Z" fill="#000000" fill-rule="nonzero" fill-opacity="1" /><path clip-path="url(#clip420)" d="M2296.12 1436.44 L2324.76 1436.44 L2324.76 1337.57 L2293.6 1343.82 L2293.6 1327.85 L2324.59 1321.6 L2342.12 1321.6 L2342.12 1436.44 L2370.77 1436.44 L2370.77 1451.2 L2296.12 1451.2 L2296.12 1436.44 Z" fill="#008000" fill-rule="nonzero" fill-opacity="1" /><path clip-path="url(#clip420)" d="M2314.69 1436.44 L2375.89 1436.44 L2375.89 1451.2 L2293.6 1451.2 L2293.6 1436.44 Q2303.58 1426.11 2320.77 1408.75 Q2338.04 1391.3 2342.47 1386.27 Q2350.89 1376.8 2354.19 1370.29 Q2357.57 1363.7 2357.57 1357.36 Q2357.57 1347.03 2350.28 1340.52 Q2343.08 1334.01 2331.45 1334.01 Q2323.2 1334.01 2314 1336.87 Q2304.88 1339.74 2294.47 1345.55 L2294.47 1327.85 Q2305.06 1323.59 2314.26 1321.42 Q2323.46 1319.25 2331.1 1319.25 Q2351.24 1319.25 2363.22 1329.32 Q2375.2 1339.39 2375.2 1356.23 Q2375.2 1364.22 2372.16 1371.42 Q2369.21 1378.54 2361.31 1388.26 Q2359.14 1390.78 2347.51 1402.85 Q2335.87 1414.82 2314.69 1436.44 Z" fill="#008000" fill-rule="nonzero" fill-opacity="1" /><path clip-path="url(#clip420)" d="M2352.19 1381.32 Q2364.78 1384.01 2371.81 1392.52 Q2378.93 1401.02 2378.93 1413.52 Q2378.93 1432.71 2365.73 1443.21 Q2352.54 1453.71 2328.23 1453.71 Q2320.07 1453.71 2311.39 1452.06 Q2302.8 1450.5 2293.6 1447.29 L2293.6 1430.36 Q2300.89 1434.62 2309.57 1436.79 Q2318.25 1438.96 2327.71 1438.96 Q2344.21 1438.96 2352.8 1432.45 Q2361.48 1425.94 2361.48 1413.52 Q2361.48 1402.06 2353.41 1395.64 Q2345.42 1389.13 2331.1 1389.13 L2315.99 1389.13 L2315.99 1374.72 L2331.79 1374.72 Q2344.73 1374.72 2351.58 1369.6 Q2358.44 1364.39 2358.44 1354.67 Q2358.44 1344.69 2351.32 1339.39 Q2344.29 1334.01 2331.1 1334.01 Q2323.89 1334.01 2315.65 1335.57 Q2307.4 1337.13 2297.51 1340.43 L2297.51 1324.81 Q2307.49 1322.03 2316.17 1320.64 Q2324.94 1319.25 2332.66 1319.25 Q2352.63 1319.25 2364.26 1328.37 Q2375.89 1337.39 2375.89 1352.85 Q2375.89 1363.61 2369.73 1371.07 Q2363.56 1378.45 2352.19 1381.32 Z" fill="#008000" fill-rule="nonzero" fill-opacity="1" /><path clip-path="url(#clip420)" d="M2352.11 1336.87 L2307.84 1406.06 L2352.11 1406.06 L2352.11 1336.87 M2347.51 1321.6 L2369.55 1321.6 L2369.55 1406.06 L2388.04 1406.06 L2388.04 1420.64 L2369.55 1420.64 L2369.55 1451.2 L2352.11 1451.2 L2352.11 1420.64 L2293.6 1420.64 L2293.6 1403.71 L2347.51 1321.6 Z" fill="#008000" fill-rule="nonzero" fill-opacity="1" /><path clip-path="url(#clip420)" d="M2299.07 1321.6 L2367.9 1321.6 L2367.9 1336.35 L2315.13 1336.35 L2315.13 1368.12 Q2318.95 1366.82 2322.77 1366.21 Q2326.59 1365.52 2330.4 1365.52 Q2352.11 1365.52 2364.78 1377.41 Q2377.45 1389.3 2377.45 1409.62 Q2377.45 1430.54 2364.43 1442.17 Q2351.41 1453.71 2327.71 1453.71 Q2319.55 1453.71 2311.05 1452.32 Q2302.63 1450.94 2293.6 1448.16 L2293.6 1430.54 Q2301.41 1434.79 2309.74 1436.87 Q2318.08 1438.96 2327.37 1438.96 Q2342.38 1438.96 2351.15 1431.06 Q2359.92 1423.16 2359.92 1409.62 Q2359.92 1396.07 2351.15 1388.18 Q2342.38 1380.28 2327.37 1380.28 Q2320.34 1380.28 2313.3 1381.84 Q2306.36 1383.4 2299.07 1386.7 L2299.07 1321.6 Z" fill="#008000" fill-rule="nonzero" fill-opacity="1" /></svg>
