<?xml version="1.0" encoding="utf-8"?>
<svg xmlns="http://www.w3.org/2000/svg" xmlns:xlink="http://www.w3.org/1999/xlink" width="600" height="400" viewBox="0 0 2400 1600">
<defs>
  <clipPath id="clip600">
    <rect x="0" y="0" width="2400" height="1600"/>
  </clipPath>
</defs>
<path clip-path="url(#clip600)" d="M0 1600 L2400 1600 L2400 0 L0 0  Z" fill="#ffffff" fill-rule="evenodd" fill-opacity="1"/>
<defs>
  <clipPath id="clip601">
    <rect x="480" y="0" width="1681" height="1600"/>
  </clipPath>
</defs>
<path clip-path="url(#clip600)" d="M265.445 1423.18 L2352.76 1423.18 L2352.76 123.472 L265.445 123.472  Z" fill="#ffffff" fill-rule="evenodd" fill-opacity="1"/>
<defs>
  <clipPath id="clip602">
    <rect x="265" y="123" width="2088" height="1301"/>
  </clipPath>
</defs>
<polyline clip-path="url(#clip602)" style="stroke:#000000; stroke-linecap:round; stroke-linejoin:round; stroke-width:2; stroke-opacity:0.1; fill:none" points="563.005,1423.18 563.005,123.472 "/>
<polyline clip-path="url(#clip602)" style="stroke:#000000; stroke-linecap:round; stroke-linejoin:round; stroke-width:2; stroke-opacity:0.1; fill:none" points="930.017,1423.18 930.017,123.472 "/>
<polyline clip-path="url(#clip602)" style="stroke:#000000; stroke-linecap:round; stroke-linejoin:round; stroke-width:2; stroke-opacity:0.1; fill:none" points="1297.03,1423.18 1297.03,123.472 "/>
<polyline clip-path="url(#clip602)" style="stroke:#000000; stroke-linecap:round; stroke-linejoin:round; stroke-width:2; stroke-opacity:0.1; fill:none" points="1664.04,1423.18 1664.04,123.472 "/>
<polyline clip-path="url(#clip602)" style="stroke:#000000; stroke-linecap:round; stroke-linejoin:round; stroke-width:2; stroke-opacity:0.1; fill:none" points="2031.05,1423.18 2031.05,123.472 "/>
<polyline clip-path="url(#clip602)" style="stroke:#000000; stroke-linecap:round; stroke-linejoin:round; stroke-width:2; stroke-opacity:0.1; fill:none" points="265.445,1237.9 2352.76,1237.9 "/>
<polyline clip-path="url(#clip602)" style="stroke:#000000; stroke-linecap:round; stroke-linejoin:round; stroke-width:2; stroke-opacity:0.1; fill:none" points="265.445,1009.37 2352.76,1009.37 "/>
<polyline clip-path="url(#clip602)" style="stroke:#000000; stroke-linecap:round; stroke-linejoin:round; stroke-width:2; stroke-opacity:0.1; fill:none" points="265.445,780.843 2352.76,780.843 "/>
<polyline clip-path="url(#clip602)" style="stroke:#000000; stroke-linecap:round; stroke-linejoin:round; stroke-width:2; stroke-opacity:0.1; fill:none" points="265.445,552.315 2352.76,552.315 "/>
<polyline clip-path="url(#clip602)" style="stroke:#000000; stroke-linecap:round; stroke-linejoin:round; stroke-width:2; stroke-opacity:0.1; fill:none" points="265.445,323.788 2352.76,323.788 "/>
<polyline clip-path="url(#clip600)" style="stroke:#000000; stroke-linecap:round; stroke-linejoin:round; stroke-width:4; stroke-opacity:1; fill:none" points="265.445,1423.18 2352.76,1423.18 "/>
<polyline clip-path="url(#clip600)" style="stroke:#000000; stroke-linecap:round; stroke-linejoin:round; stroke-width:4; stroke-opacity:1; fill:none" points="563.005,1423.18 563.005,1404.28 "/>
<polyline clip-path="url(#clip600)" style="stroke:#000000; stroke-linecap:round; stroke-linejoin:round; stroke-width:4; stroke-opacity:1; fill:none" points="930.017,1423.18 930.017,1404.28 "/>
<polyline clip-path="url(#clip600)" style="stroke:#000000; stroke-linecap:round; stroke-linejoin:round; stroke-width:4; stroke-opacity:1; fill:none" points="1297.03,1423.18 1297.03,1404.28 "/>
<polyline clip-path="url(#clip600)" style="stroke:#000000; stroke-linecap:round; stroke-linejoin:round; stroke-width:4; stroke-opacity:1; fill:none" points="1664.04,1423.18 1664.04,1404.28 "/>
<polyline clip-path="url(#clip600)" style="stroke:#000000; stroke-linecap:round; stroke-linejoin:round; stroke-width:4; stroke-opacity:1; fill:none" points="2031.05,1423.18 2031.05,1404.28 "/>
<path clip-path="url(#clip600)" d="M511.617 1481.64 L527.936 1481.64 L527.936 1485.58 L505.992 1485.58 L505.992 1481.64 Q508.654 1478.89 513.237 1474.26 Q517.843 1469.61 519.024 1468.27 Q521.269 1465.74 522.149 1464.01 Q523.052 1462.25 523.052 1460.56 Q523.052 1457.8 521.107 1456.07 Q519.186 1454.33 516.084 1454.33 Q513.885 1454.33 511.431 1455.09 Q509.001 1455.86 506.223 1457.41 L506.223 1452.69 Q509.047 1451.55 511.501 1450.97 Q513.954 1450.39 515.991 1450.39 Q521.362 1450.39 524.556 1453.08 Q527.751 1455.77 527.751 1460.26 Q527.751 1462.39 526.94 1464.31 Q526.153 1466.2 524.047 1468.8 Q523.468 1469.47 520.366 1472.69 Q517.265 1475.88 511.617 1481.64 Z" fill="#000000" fill-rule="nonzero" fill-opacity="1" /><path clip-path="url(#clip600)" d="M547.751 1454.1 Q544.139 1454.1 542.311 1457.66 Q540.505 1461.2 540.505 1468.33 Q540.505 1475.44 542.311 1479.01 Q544.139 1482.55 547.751 1482.55 Q551.385 1482.55 553.19 1479.01 Q555.019 1475.44 555.019 1468.33 Q555.019 1461.2 553.19 1457.66 Q551.385 1454.1 547.751 1454.1 M547.751 1450.39 Q553.561 1450.39 556.616 1455 Q559.695 1459.58 559.695 1468.33 Q559.695 1477.06 556.616 1481.67 Q553.561 1486.25 547.751 1486.25 Q541.94 1486.25 538.862 1481.67 Q535.806 1477.06 535.806 1468.33 Q535.806 1459.58 538.862 1455 Q541.94 1450.39 547.751 1450.39 Z" fill="#000000" fill-rule="nonzero" fill-opacity="1" /><path clip-path="url(#clip600)" d="M577.912 1454.1 Q574.301 1454.1 572.473 1457.66 Q570.667 1461.2 570.667 1468.33 Q570.667 1475.44 572.473 1479.01 Q574.301 1482.55 577.912 1482.55 Q581.547 1482.55 583.352 1479.01 Q585.181 1475.44 585.181 1468.33 Q585.181 1461.2 583.352 1457.66 Q581.547 1454.1 577.912 1454.1 M577.912 1450.39 Q583.723 1450.39 586.778 1455 Q589.857 1459.58 589.857 1468.33 Q589.857 1477.06 586.778 1481.67 Q583.723 1486.25 577.912 1486.25 Q572.102 1486.25 569.024 1481.67 Q565.968 1477.06 565.968 1468.33 Q565.968 1459.58 569.024 1455 Q572.102 1450.39 577.912 1450.39 Z" fill="#000000" fill-rule="nonzero" fill-opacity="1" /><path clip-path="url(#clip600)" d="M608.074 1454.1 Q604.463 1454.1 602.635 1457.66 Q600.829 1461.2 600.829 1468.33 Q600.829 1475.44 602.635 1479.01 Q604.463 1482.55 608.074 1482.55 Q611.709 1482.55 613.514 1479.01 Q615.343 1475.44 615.343 1468.33 Q615.343 1461.2 613.514 1457.66 Q611.709 1454.1 608.074 1454.1 M608.074 1450.39 Q613.884 1450.39 616.94 1455 Q620.019 1459.58 620.019 1468.33 Q620.019 1477.06 616.94 1481.67 Q613.884 1486.25 608.074 1486.25 Q602.264 1486.25 599.185 1481.67 Q596.13 1477.06 596.13 1468.33 Q596.13 1459.58 599.185 1455 Q602.264 1450.39 608.074 1450.39 Z" fill="#000000" fill-rule="nonzero" fill-opacity="1" /><path clip-path="url(#clip600)" d="M878.628 1481.64 L894.948 1481.64 L894.948 1485.58 L873.003 1485.58 L873.003 1481.64 Q875.665 1478.89 880.249 1474.26 Q884.855 1469.61 886.036 1468.27 Q888.281 1465.74 889.161 1464.01 Q890.063 1462.25 890.063 1460.56 Q890.063 1457.8 888.119 1456.07 Q886.198 1454.33 883.096 1454.33 Q880.897 1454.33 878.443 1455.09 Q876.012 1455.86 873.235 1457.41 L873.235 1452.69 Q876.059 1451.55 878.512 1450.97 Q880.966 1450.39 883.003 1450.39 Q888.373 1450.39 891.568 1453.08 Q894.762 1455.77 894.762 1460.26 Q894.762 1462.39 893.952 1464.31 Q893.165 1466.2 891.059 1468.8 Q890.48 1469.47 887.378 1472.69 Q884.276 1475.88 878.628 1481.64 Z" fill="#000000" fill-rule="nonzero" fill-opacity="1" /><path clip-path="url(#clip600)" d="M904.809 1451.02 L923.165 1451.02 L923.165 1454.96 L909.091 1454.96 L909.091 1463.43 Q910.109 1463.08 911.128 1462.92 Q912.147 1462.73 913.165 1462.73 Q918.952 1462.73 922.332 1465.9 Q925.711 1469.08 925.711 1474.49 Q925.711 1480.07 922.239 1483.17 Q918.767 1486.25 912.447 1486.25 Q910.272 1486.25 908.003 1485.88 Q905.758 1485.51 903.35 1484.77 L903.35 1480.07 Q905.434 1481.2 907.656 1481.76 Q909.878 1482.32 912.355 1482.32 Q916.359 1482.32 918.697 1480.21 Q921.035 1478.1 921.035 1474.49 Q921.035 1470.88 918.697 1468.77 Q916.359 1466.67 912.355 1466.67 Q910.48 1466.67 908.605 1467.08 Q906.753 1467.5 904.809 1468.38 L904.809 1451.02 Z" fill="#000000" fill-rule="nonzero" fill-opacity="1" /><path clip-path="url(#clip600)" d="M944.924 1454.1 Q941.313 1454.1 939.484 1457.66 Q937.679 1461.2 937.679 1468.33 Q937.679 1475.44 939.484 1479.01 Q941.313 1482.55 944.924 1482.55 Q948.558 1482.55 950.364 1479.01 Q952.193 1475.44 952.193 1468.33 Q952.193 1461.2 950.364 1457.66 Q948.558 1454.1 944.924 1454.1 M944.924 1450.39 Q950.734 1450.39 953.79 1455 Q956.868 1459.58 956.868 1468.33 Q956.868 1477.06 953.79 1481.67 Q950.734 1486.25 944.924 1486.25 Q939.114 1486.25 936.035 1481.67 Q932.98 1477.06 932.98 1468.33 Q932.98 1459.58 936.035 1455 Q939.114 1450.39 944.924 1450.39 Z" fill="#000000" fill-rule="nonzero" fill-opacity="1" /><path clip-path="url(#clip600)" d="M975.086 1454.1 Q971.475 1454.1 969.646 1457.66 Q967.841 1461.2 967.841 1468.33 Q967.841 1475.44 969.646 1479.01 Q971.475 1482.55 975.086 1482.55 Q978.72 1482.55 980.526 1479.01 Q982.354 1475.44 982.354 1468.33 Q982.354 1461.2 980.526 1457.66 Q978.72 1454.1 975.086 1454.1 M975.086 1450.39 Q980.896 1450.39 983.952 1455 Q987.03 1459.58 987.03 1468.33 Q987.03 1477.06 983.952 1481.67 Q980.896 1486.25 975.086 1486.25 Q969.276 1486.25 966.197 1481.67 Q963.142 1477.06 963.142 1468.33 Q963.142 1459.58 966.197 1455 Q969.276 1450.39 975.086 1450.39 Z" fill="#000000" fill-rule="nonzero" fill-opacity="1" /><path clip-path="url(#clip600)" d="M1255.71 1466.95 Q1259.07 1467.66 1260.94 1469.93 Q1262.84 1472.2 1262.84 1475.53 Q1262.84 1480.65 1259.32 1483.45 Q1255.8 1486.25 1249.32 1486.25 Q1247.14 1486.25 1244.83 1485.81 Q1242.54 1485.39 1240.08 1484.54 L1240.08 1480.02 Q1242.03 1481.16 1244.34 1481.74 Q1246.66 1482.32 1249.18 1482.32 Q1253.58 1482.32 1255.87 1480.58 Q1258.19 1478.84 1258.19 1475.53 Q1258.19 1472.48 1256.03 1470.77 Q1253.9 1469.03 1250.08 1469.03 L1246.06 1469.03 L1246.06 1465.19 L1250.27 1465.19 Q1253.72 1465.19 1255.55 1463.82 Q1257.38 1462.43 1257.38 1459.84 Q1257.38 1457.18 1255.48 1455.77 Q1253.6 1454.33 1250.08 1454.33 Q1248.16 1454.33 1245.96 1454.75 Q1243.76 1455.16 1241.13 1456.04 L1241.13 1451.88 Q1243.79 1451.14 1246.1 1450.77 Q1248.44 1450.39 1250.5 1450.39 Q1255.82 1450.39 1258.93 1452.83 Q1262.03 1455.23 1262.03 1459.35 Q1262.03 1462.22 1260.39 1464.21 Q1258.74 1466.18 1255.71 1466.95 Z" fill="#000000" fill-rule="nonzero" fill-opacity="1" /><path clip-path="url(#clip600)" d="M1281.7 1454.1 Q1278.09 1454.1 1276.26 1457.66 Q1274.46 1461.2 1274.46 1468.33 Q1274.46 1475.44 1276.26 1479.01 Q1278.09 1482.55 1281.7 1482.55 Q1285.34 1482.55 1287.14 1479.01 Q1288.97 1475.44 1288.97 1468.33 Q1288.97 1461.2 1287.14 1457.66 Q1285.34 1454.1 1281.7 1454.1 M1281.7 1450.39 Q1287.51 1450.39 1290.57 1455 Q1293.65 1459.58 1293.65 1468.33 Q1293.65 1477.06 1290.57 1481.67 Q1287.51 1486.25 1281.7 1486.25 Q1275.89 1486.25 1272.82 1481.67 Q1269.76 1477.06 1269.76 1468.33 Q1269.76 1459.58 1272.82 1455 Q1275.89 1450.39 1281.7 1450.39 Z" fill="#000000" fill-rule="nonzero" fill-opacity="1" /><path clip-path="url(#clip600)" d="M1311.87 1454.1 Q1308.26 1454.1 1306.43 1457.66 Q1304.62 1461.2 1304.62 1468.33 Q1304.62 1475.44 1306.43 1479.01 Q1308.26 1482.55 1311.87 1482.55 Q1315.5 1482.55 1317.31 1479.01 Q1319.13 1475.44 1319.13 1468.33 Q1319.13 1461.2 1317.31 1457.66 Q1315.5 1454.1 1311.87 1454.1 M1311.87 1450.39 Q1317.68 1450.39 1320.73 1455 Q1323.81 1459.58 1323.81 1468.33 Q1323.81 1477.06 1320.73 1481.67 Q1317.68 1486.25 1311.87 1486.25 Q1306.06 1486.25 1302.98 1481.67 Q1299.92 1477.06 1299.92 1468.33 Q1299.92 1459.58 1302.98 1455 Q1306.06 1450.39 1311.87 1450.39 Z" fill="#000000" fill-rule="nonzero" fill-opacity="1" /><path clip-path="url(#clip600)" d="M1342.03 1454.1 Q1338.42 1454.1 1336.59 1457.66 Q1334.78 1461.2 1334.78 1468.33 Q1334.78 1475.44 1336.59 1479.01 Q1338.42 1482.55 1342.03 1482.55 Q1345.66 1482.55 1347.47 1479.01 Q1349.3 1475.44 1349.3 1468.33 Q1349.3 1461.2 1347.47 1457.66 Q1345.66 1454.1 1342.03 1454.1 M1342.03 1450.39 Q1347.84 1450.39 1350.89 1455 Q1353.97 1459.58 1353.97 1468.33 Q1353.97 1477.06 1350.89 1481.67 Q1347.84 1486.25 1342.03 1486.25 Q1336.22 1486.25 1333.14 1481.67 Q1330.08 1477.06 1330.08 1468.33 Q1330.08 1459.58 1333.14 1455 Q1336.22 1450.39 1342.03 1450.39 Z" fill="#000000" fill-rule="nonzero" fill-opacity="1" /><path clip-path="url(#clip600)" d="M1622.72 1466.95 Q1626.08 1467.66 1627.95 1469.93 Q1629.85 1472.2 1629.85 1475.53 Q1629.85 1480.65 1626.33 1483.45 Q1622.81 1486.25 1616.33 1486.25 Q1614.16 1486.25 1611.84 1485.81 Q1609.55 1485.39 1607.1 1484.54 L1607.1 1480.02 Q1609.04 1481.16 1611.36 1481.74 Q1613.67 1482.32 1616.19 1482.32 Q1620.59 1482.32 1622.88 1480.58 Q1625.2 1478.84 1625.2 1475.53 Q1625.2 1472.48 1623.04 1470.77 Q1620.92 1469.03 1617.1 1469.03 L1613.07 1469.03 L1613.07 1465.19 L1617.28 1465.19 Q1620.73 1465.19 1622.56 1463.82 Q1624.39 1462.43 1624.39 1459.84 Q1624.39 1457.18 1622.49 1455.77 Q1620.61 1454.33 1617.1 1454.33 Q1615.17 1454.33 1612.98 1454.75 Q1610.78 1455.16 1608.14 1456.04 L1608.14 1451.88 Q1610.8 1451.14 1613.11 1450.77 Q1615.45 1450.39 1617.51 1450.39 Q1622.84 1450.39 1625.94 1452.83 Q1629.04 1455.23 1629.04 1459.35 Q1629.04 1462.22 1627.4 1464.21 Q1625.75 1466.18 1622.72 1466.95 Z" fill="#000000" fill-rule="nonzero" fill-opacity="1" /><path clip-path="url(#clip600)" d="M1638.76 1451.02 L1657.12 1451.02 L1657.12 1454.96 L1643.04 1454.96 L1643.04 1463.43 Q1644.06 1463.08 1645.08 1462.92 Q1646.1 1462.73 1647.12 1462.73 Q1652.91 1462.73 1656.29 1465.9 Q1659.67 1469.08 1659.67 1474.49 Q1659.67 1480.07 1656.19 1483.17 Q1652.72 1486.25 1646.4 1486.25 Q1644.23 1486.25 1641.96 1485.88 Q1639.71 1485.51 1637.3 1484.77 L1637.3 1480.07 Q1639.39 1481.2 1641.61 1481.76 Q1643.83 1482.32 1646.31 1482.32 Q1650.31 1482.32 1652.65 1480.21 Q1654.99 1478.1 1654.99 1474.49 Q1654.99 1470.88 1652.65 1468.77 Q1650.31 1466.67 1646.31 1466.67 Q1644.43 1466.67 1642.56 1467.08 Q1640.71 1467.5 1638.76 1468.38 L1638.76 1451.02 Z" fill="#000000" fill-rule="nonzero" fill-opacity="1" /><path clip-path="url(#clip600)" d="M1678.88 1454.1 Q1675.27 1454.1 1673.44 1457.66 Q1671.63 1461.2 1671.63 1468.33 Q1671.63 1475.44 1673.44 1479.01 Q1675.27 1482.55 1678.88 1482.55 Q1682.51 1482.55 1684.32 1479.01 Q1686.15 1475.44 1686.15 1468.33 Q1686.15 1461.2 1684.32 1457.66 Q1682.51 1454.1 1678.88 1454.1 M1678.88 1450.39 Q1684.69 1450.39 1687.74 1455 Q1690.82 1459.58 1690.82 1468.33 Q1690.82 1477.06 1687.74 1481.67 Q1684.69 1486.25 1678.88 1486.25 Q1673.07 1486.25 1669.99 1481.67 Q1666.93 1477.06 1666.93 1468.33 Q1666.93 1459.58 1669.99 1455 Q1673.07 1450.39 1678.88 1450.39 Z" fill="#000000" fill-rule="nonzero" fill-opacity="1" /><path clip-path="url(#clip600)" d="M1709.04 1454.1 Q1705.43 1454.1 1703.6 1457.66 Q1701.79 1461.2 1701.79 1468.33 Q1701.79 1475.44 1703.6 1479.01 Q1705.43 1482.55 1709.04 1482.55 Q1712.67 1482.55 1714.48 1479.01 Q1716.31 1475.44 1716.31 1468.33 Q1716.31 1461.2 1714.48 1457.66 Q1712.67 1454.1 1709.04 1454.1 M1709.04 1450.39 Q1714.85 1450.39 1717.91 1455 Q1720.98 1459.58 1720.98 1468.33 Q1720.98 1477.06 1717.91 1481.67 Q1714.85 1486.25 1709.04 1486.25 Q1703.23 1486.25 1700.15 1481.67 Q1697.1 1477.06 1697.1 1468.33 Q1697.1 1459.58 1700.15 1455 Q1703.23 1450.39 1709.04 1450.39 Z" fill="#000000" fill-rule="nonzero" fill-opacity="1" /><path clip-path="url(#clip600)" d="M1989.06 1455.09 L1977.26 1473.54 L1989.06 1473.54 L1989.06 1455.09 M1987.83 1451.02 L1993.71 1451.02 L1993.71 1473.54 L1998.64 1473.54 L1998.64 1477.43 L1993.71 1477.43 L1993.71 1485.58 L1989.06 1485.58 L1989.06 1477.43 L1973.46 1477.43 L1973.46 1472.92 L1987.83 1451.02 Z" fill="#000000" fill-rule="nonzero" fill-opacity="1" /><path clip-path="url(#clip600)" d="M2016.38 1454.1 Q2012.76 1454.1 2010.94 1457.66 Q2009.13 1461.2 2009.13 1468.33 Q2009.13 1475.44 2010.94 1479.01 Q2012.76 1482.55 2016.38 1482.55 Q2020.01 1482.55 2021.82 1479.01 Q2023.64 1475.44 2023.64 1468.33 Q2023.64 1461.2 2021.82 1457.66 Q2020.01 1454.1 2016.38 1454.1 M2016.38 1450.39 Q2022.19 1450.39 2025.24 1455 Q2028.32 1459.58 2028.32 1468.33 Q2028.32 1477.06 2025.24 1481.67 Q2022.19 1486.25 2016.38 1486.25 Q2010.57 1486.25 2007.49 1481.67 Q2004.43 1477.06 2004.43 1468.33 Q2004.43 1459.58 2007.49 1455 Q2010.57 1450.39 2016.38 1450.39 Z" fill="#000000" fill-rule="nonzero" fill-opacity="1" /><path clip-path="url(#clip600)" d="M2046.54 1454.1 Q2042.93 1454.1 2041.1 1457.66 Q2039.29 1461.2 2039.29 1468.33 Q2039.29 1475.44 2041.1 1479.01 Q2042.93 1482.55 2046.54 1482.55 Q2050.17 1482.55 2051.98 1479.01 Q2053.81 1475.44 2053.81 1468.33 Q2053.81 1461.2 2051.98 1457.66 Q2050.17 1454.1 2046.54 1454.1 M2046.54 1450.39 Q2052.35 1450.39 2055.4 1455 Q2058.48 1459.58 2058.48 1468.33 Q2058.48 1477.06 2055.4 1481.67 Q2052.35 1486.25 2046.54 1486.25 Q2040.73 1486.25 2037.65 1481.67 Q2034.59 1477.06 2034.59 1468.33 Q2034.59 1459.58 2037.65 1455 Q2040.73 1450.39 2046.54 1450.39 Z" fill="#000000" fill-rule="nonzero" fill-opacity="1" /><path clip-path="url(#clip600)" d="M2076.7 1454.1 Q2073.09 1454.1 2071.26 1457.66 Q2069.45 1461.2 2069.45 1468.33 Q2069.45 1475.44 2071.26 1479.01 Q2073.09 1482.55 2076.7 1482.55 Q2080.33 1482.55 2082.14 1479.01 Q2083.97 1475.44 2083.97 1468.33 Q2083.97 1461.2 2082.14 1457.66 Q2080.33 1454.1 2076.7 1454.1 M2076.7 1450.39 Q2082.51 1450.39 2085.57 1455 Q2088.64 1459.58 2088.64 1468.33 Q2088.64 1477.06 2085.57 1481.67 Q2082.51 1486.25 2076.7 1486.25 Q2070.89 1486.25 2067.81 1481.67 Q2064.76 1477.06 2064.76 1468.33 Q2064.76 1459.58 2067.81 1455 Q2070.89 1450.39 2076.7 1450.39 Z" fill="#000000" fill-rule="nonzero" fill-opacity="1" /><path clip-path="url(#clip600)" d="M853.873 1520.52 L860.302 1520.52 L860.302 1562.63 L883.441 1562.63 L883.441 1568.04 L853.873 1568.04 L853.873 1520.52 Z" fill="#000000" fill-rule="nonzero" fill-opacity="1" /><path clip-path="url(#clip600)" d="M902.602 1536.5 Q897.892 1536.5 895.154 1540.19 Q892.417 1543.85 892.417 1550.25 Q892.417 1556.65 895.122 1560.34 Q897.86 1564 902.602 1564 Q907.281 1564 910.018 1560.31 Q912.756 1556.62 912.756 1550.25 Q912.756 1543.92 910.018 1540.23 Q907.281 1536.5 902.602 1536.5 M902.602 1531.54 Q910.241 1531.54 914.602 1536.5 Q918.962 1541.47 918.962 1550.25 Q918.962 1559 914.602 1564 Q910.241 1568.97 902.602 1568.97 Q894.932 1568.97 890.571 1564 Q886.242 1559 886.242 1550.25 Q886.242 1541.47 890.571 1536.5 Q894.932 1531.54 902.602 1531.54 Z" fill="#000000" fill-rule="nonzero" fill-opacity="1" /><path clip-path="url(#clip600)" d="M925.264 1532.4 L931.121 1532.4 L938.441 1560.21 L945.73 1532.4 L952.637 1532.4 L959.957 1560.21 L967.246 1532.4 L973.102 1532.4 L963.777 1568.04 L956.87 1568.04 L949.199 1538.83 L941.497 1568.04 L934.59 1568.04 L925.264 1532.4 Z" fill="#000000" fill-rule="nonzero" fill-opacity="1" /><path clip-path="url(#clip600)" d="M1012.47 1548.76 L1012.47 1551.62 L985.547 1551.62 Q985.929 1557.67 989.176 1560.85 Q992.454 1564 998.279 1564 Q1001.65 1564 1004.8 1563.17 Q1007.99 1562.35 1011.11 1560.69 L1011.11 1566.23 Q1007.95 1567.57 1004.64 1568.27 Q1001.33 1568.97 997.929 1568.97 Q989.399 1568.97 984.402 1564 Q979.436 1559.04 979.436 1550.57 Q979.436 1541.82 984.147 1536.69 Q988.889 1531.54 996.91 1531.54 Q1004.1 1531.54 1008.27 1536.18 Q1012.47 1540.8 1012.47 1548.76 M1006.62 1547.04 Q1006.55 1542.23 1003.91 1539.37 Q1001.3 1536.5 996.974 1536.5 Q992.072 1536.5 989.112 1539.27 Q986.184 1542.04 985.738 1547.07 L1006.62 1547.04 Z" fill="#000000" fill-rule="nonzero" fill-opacity="1" /><path clip-path="url(#clip600)" d="M1042.74 1537.87 Q1041.76 1537.3 1040.58 1537.04 Q1039.43 1536.76 1038.03 1536.76 Q1033.07 1536.76 1030.39 1540 Q1027.75 1543.22 1027.75 1549.27 L1027.75 1568.04 L1021.86 1568.04 L1021.86 1532.4 L1027.75 1532.4 L1027.75 1537.93 Q1029.6 1534.69 1032.56 1533.13 Q1035.52 1531.54 1039.75 1531.54 Q1040.36 1531.54 1041.09 1531.63 Q1041.82 1531.7 1042.71 1531.85 L1042.74 1537.87 Z" fill="#000000" fill-rule="nonzero" fill-opacity="1" /><path clip-path="url(#clip600)" d="M1041.76 1547.58 L1058.91 1547.58 L1058.91 1552.8 L1041.76 1552.8 L1041.76 1547.58 Z" fill="#000000" fill-rule="nonzero" fill-opacity="1" /><path clip-path="url(#clip600)" d="M1068.49 1520.52 L1074.92 1520.52 L1074.92 1562.63 L1098.06 1562.63 L1098.06 1568.04 L1068.49 1568.04 L1068.49 1520.52 Z" fill="#000000" fill-rule="nonzero" fill-opacity="1" /><path clip-path="url(#clip600)" d="M1133.9 1548.76 L1133.9 1551.62 L1106.97 1551.62 Q1107.36 1557.67 1110.6 1560.85 Q1113.88 1564 1119.7 1564 Q1123.08 1564 1126.23 1563.17 Q1129.41 1562.35 1132.53 1560.69 L1132.53 1566.23 Q1129.38 1567.57 1126.07 1568.27 Q1122.76 1568.97 1119.35 1568.97 Q1110.82 1568.97 1105.83 1564 Q1100.86 1559.04 1100.86 1550.57 Q1100.86 1541.82 1105.57 1536.69 Q1110.32 1531.54 1118.34 1531.54 Q1125.53 1531.54 1129.7 1536.18 Q1133.9 1540.8 1133.9 1548.76 M1128.04 1547.04 Q1127.98 1542.23 1125.34 1539.37 Q1122.73 1536.5 1118.4 1536.5 Q1113.5 1536.5 1110.54 1539.27 Q1107.61 1542.04 1107.16 1547.07 L1128.04 1547.04 Z" fill="#000000" fill-rule="nonzero" fill-opacity="1" /><path clip-path="url(#clip600)" d="M1139.31 1532.4 L1145.52 1532.4 L1156.66 1562.31 L1167.8 1532.4 L1174 1532.4 L1160.64 1568.04 L1152.68 1568.04 L1139.31 1532.4 Z" fill="#000000" fill-rule="nonzero" fill-opacity="1" /><path clip-path="url(#clip600)" d="M1212.58 1548.76 L1212.58 1551.62 L1185.65 1551.62 Q1186.04 1557.67 1189.28 1560.85 Q1192.56 1564 1198.38 1564 Q1201.76 1564 1204.91 1563.17 Q1208.09 1562.35 1211.21 1560.69 L1211.21 1566.23 Q1208.06 1567.57 1204.75 1568.27 Q1201.44 1568.97 1198.03 1568.97 Q1189.5 1568.97 1184.51 1564 Q1179.54 1559.04 1179.54 1550.57 Q1179.54 1541.82 1184.25 1536.69 Q1189 1531.54 1197.02 1531.54 Q1204.21 1531.54 1208.38 1536.18 Q1212.58 1540.8 1212.58 1548.76 M1206.72 1547.04 Q1206.66 1542.23 1204.02 1539.37 Q1201.41 1536.5 1197.08 1536.5 Q1192.18 1536.5 1189.22 1539.27 Q1186.29 1542.04 1185.84 1547.07 L1206.72 1547.04 Z" fill="#000000" fill-rule="nonzero" fill-opacity="1" /><path clip-path="url(#clip600)" d="M1222.19 1518.52 L1228.05 1518.52 L1228.05 1568.04 L1222.19 1568.04 L1222.19 1518.52 Z" fill="#000000" fill-rule="nonzero" fill-opacity="1" /><path clip-path="url(#clip600)" d="M1261.28 1520.52 L1267.71 1520.52 L1267.71 1562.63 L1290.85 1562.63 L1290.85 1568.04 L1261.28 1568.04 L1261.28 1520.52 Z" fill="#000000" fill-rule="nonzero" fill-opacity="1" /><path clip-path="url(#clip600)" d="M1310.01 1536.5 Q1305.3 1536.5 1302.56 1540.19 Q1299.82 1543.85 1299.82 1550.25 Q1299.82 1556.65 1302.53 1560.34 Q1305.26 1564 1310.01 1564 Q1314.69 1564 1317.42 1560.31 Q1320.16 1556.62 1320.16 1550.25 Q1320.16 1543.92 1317.42 1540.23 Q1314.69 1536.5 1310.01 1536.5 M1310.01 1531.54 Q1317.65 1531.54 1322.01 1536.5 Q1326.37 1541.47 1326.37 1550.25 Q1326.37 1559 1322.01 1564 Q1317.65 1568.97 1310.01 1568.97 Q1302.34 1568.97 1297.98 1564 Q1293.65 1559 1293.65 1550.25 Q1293.65 1541.47 1297.98 1536.5 Q1302.34 1531.54 1310.01 1531.54 Z" fill="#000000" fill-rule="nonzero" fill-opacity="1" /><path clip-path="url(#clip600)" d="M1352.28 1550.12 Q1345.18 1550.12 1342.44 1551.75 Q1339.7 1553.37 1339.7 1557.29 Q1339.7 1560.4 1341.74 1562.25 Q1343.81 1564.07 1347.34 1564.07 Q1352.21 1564.07 1355.14 1560.63 Q1358.1 1557.16 1358.1 1551.43 L1358.1 1550.12 L1352.28 1550.12 M1363.96 1547.71 L1363.96 1568.04 L1358.1 1568.04 L1358.1 1562.63 Q1356.1 1565.88 1353.1 1567.44 Q1350.11 1568.97 1345.78 1568.97 Q1340.31 1568.97 1337.06 1565.91 Q1333.85 1562.82 1333.85 1557.67 Q1333.85 1551.65 1337.86 1548.6 Q1341.9 1545.54 1349.89 1545.54 L1358.1 1545.54 L1358.1 1544.97 Q1358.1 1540.93 1355.43 1538.73 Q1352.78 1536.5 1347.98 1536.5 Q1344.92 1536.5 1342.03 1537.23 Q1339.13 1537.97 1336.46 1539.43 L1336.46 1534.02 Q1339.67 1532.78 1342.7 1532.17 Q1345.72 1531.54 1348.58 1531.54 Q1356.32 1531.54 1360.14 1535.55 Q1363.96 1539.56 1363.96 1547.71 Z" fill="#000000" fill-rule="nonzero" fill-opacity="1" /><path clip-path="url(#clip600)" d="M1399.48 1537.81 L1399.48 1518.52 L1405.33 1518.52 L1405.33 1568.04 L1399.48 1568.04 L1399.48 1562.7 Q1397.63 1565.88 1394.8 1567.44 Q1392 1568.97 1388.05 1568.97 Q1381.59 1568.97 1377.52 1563.81 Q1373.47 1558.65 1373.47 1550.25 Q1373.47 1541.85 1377.52 1536.69 Q1381.59 1531.54 1388.05 1531.54 Q1392 1531.54 1394.8 1533.1 Q1397.63 1534.62 1399.48 1537.81 M1379.52 1550.25 Q1379.52 1556.71 1382.16 1560.4 Q1384.84 1564.07 1389.48 1564.07 Q1394.13 1564.07 1396.8 1560.4 Q1399.48 1556.71 1399.48 1550.25 Q1399.48 1543.79 1396.8 1540.13 Q1394.13 1536.44 1389.48 1536.44 Q1384.84 1536.44 1382.16 1540.13 Q1379.52 1543.79 1379.52 1550.25 Z" fill="#000000" fill-rule="nonzero" fill-opacity="1" /><path clip-path="url(#clip600)" d="M1466.86 1522.08 L1466.86 1528.35 Q1463.2 1526.6 1459.95 1525.74 Q1456.71 1524.88 1453.68 1524.88 Q1448.43 1524.88 1445.57 1526.92 Q1442.73 1528.96 1442.73 1532.71 Q1442.73 1535.87 1444.61 1537.49 Q1446.52 1539.08 1451.8 1540.07 L1455.69 1540.86 Q1462.88 1542.23 1466.29 1545.7 Q1469.72 1549.14 1469.72 1554.93 Q1469.72 1561.84 1465.08 1565.4 Q1460.46 1568.97 1451.52 1568.97 Q1448.14 1568.97 1444.32 1568.2 Q1440.54 1567.44 1436.46 1565.94 L1436.46 1559.32 Q1440.38 1561.52 1444.13 1562.63 Q1447.89 1563.75 1451.52 1563.75 Q1457.02 1563.75 1460.02 1561.58 Q1463.01 1559.42 1463.01 1555.41 Q1463.01 1551.91 1460.84 1549.93 Q1458.71 1547.96 1453.81 1546.97 L1449.89 1546.21 Q1442.7 1544.78 1439.49 1541.72 Q1436.27 1538.67 1436.27 1533.22 Q1436.27 1526.92 1440.7 1523.29 Q1445.15 1519.66 1452.95 1519.66 Q1456.29 1519.66 1459.76 1520.27 Q1463.23 1520.87 1466.86 1522.08 Z" fill="#000000" fill-rule="nonzero" fill-opacity="1" /><path clip-path="url(#clip600)" d="M1509.13 1546.53 L1509.13 1568.04 L1503.27 1568.04 L1503.27 1546.72 Q1503.27 1541.66 1501.3 1539.14 Q1499.32 1536.63 1495.38 1536.63 Q1490.63 1536.63 1487.9 1539.65 Q1485.16 1542.68 1485.16 1547.9 L1485.16 1568.04 L1479.27 1568.04 L1479.27 1518.52 L1485.16 1518.52 L1485.16 1537.93 Q1487.26 1534.72 1490.09 1533.13 Q1492.96 1531.54 1496.68 1531.54 Q1502.82 1531.54 1505.98 1535.36 Q1509.13 1539.14 1509.13 1546.53 Z" fill="#000000" fill-rule="nonzero" fill-opacity="1" /><path clip-path="url(#clip600)" d="M1551.3 1548.76 L1551.3 1551.62 L1524.37 1551.62 Q1524.75 1557.67 1528 1560.85 Q1531.28 1564 1537.1 1564 Q1540.48 1564 1543.63 1563.17 Q1546.81 1562.35 1549.93 1560.69 L1549.93 1566.23 Q1546.78 1567.57 1543.47 1568.27 Q1540.16 1568.97 1536.75 1568.97 Q1528.22 1568.97 1523.23 1564 Q1518.26 1559.04 1518.26 1550.57 Q1518.26 1541.82 1522.97 1536.69 Q1527.71 1531.54 1535.74 1531.54 Q1542.93 1531.54 1547.1 1536.18 Q1551.3 1540.8 1551.3 1548.76 M1545.44 1547.04 Q1545.38 1542.23 1542.74 1539.37 Q1540.13 1536.5 1535.8 1536.5 Q1530.9 1536.5 1527.94 1539.27 Q1525.01 1542.04 1524.56 1547.07 L1545.44 1547.04 Z" fill="#000000" fill-rule="nonzero" fill-opacity="1" /><path clip-path="url(#clip600)" d="M1584.37 1537.81 L1584.37 1518.52 L1590.23 1518.52 L1590.23 1568.04 L1584.37 1568.04 L1584.37 1562.7 Q1582.52 1565.88 1579.69 1567.44 Q1576.89 1568.97 1572.94 1568.97 Q1566.48 1568.97 1562.41 1563.81 Q1558.37 1558.65 1558.37 1550.25 Q1558.37 1541.85 1562.41 1536.69 Q1566.48 1531.54 1572.94 1531.54 Q1576.89 1531.54 1579.69 1533.1 Q1582.52 1534.62 1584.37 1537.81 M1564.41 1550.25 Q1564.41 1556.71 1567.05 1560.4 Q1569.73 1564.07 1574.38 1564.07 Q1579.02 1564.07 1581.7 1560.4 Q1584.37 1556.71 1584.37 1550.25 Q1584.37 1543.79 1581.7 1540.13 Q1579.02 1536.44 1574.38 1536.44 Q1569.73 1536.44 1567.05 1540.13 Q1564.41 1543.79 1564.41 1550.25 Z" fill="#000000" fill-rule="nonzero" fill-opacity="1" /><path clip-path="url(#clip600)" d="M1637.08 1518.58 Q1632.81 1525.9 1630.74 1533.06 Q1628.67 1540.23 1628.67 1547.58 Q1628.67 1554.93 1630.74 1562.16 Q1632.84 1569.35 1637.08 1576.64 L1631.98 1576.64 Q1627.21 1569.16 1624.82 1561.93 Q1622.47 1554.71 1622.47 1547.58 Q1622.47 1540.48 1624.82 1533.29 Q1627.18 1526.09 1631.98 1518.58 L1637.08 1518.58 Z" fill="#000000" fill-rule="nonzero" fill-opacity="1" /><path clip-path="url(#clip600)" d="M1648.22 1518.52 L1654.11 1518.52 L1654.11 1547.77 L1671.58 1532.4 L1679.06 1532.4 L1660.15 1549.07 L1679.85 1568.04 L1672.22 1568.04 L1654.11 1550.63 L1654.11 1568.04 L1648.22 1568.04 L1648.22 1518.52 Z" fill="#000000" fill-rule="nonzero" fill-opacity="1" /><path clip-path="url(#clip600)" d="M1682.21 1520.52 L1688.7 1520.52 L1698.7 1560.69 L1708.66 1520.52 L1715.88 1520.52 L1725.88 1560.69 L1735.84 1520.52 L1742.37 1520.52 L1730.43 1568.04 L1722.35 1568.04 L1712.32 1526.79 L1702.2 1568.04 L1694.11 1568.04 L1682.21 1520.52 Z" fill="#000000" fill-rule="nonzero" fill-opacity="1" /><path clip-path="url(#clip600)" d="M1749.72 1518.58 L1754.81 1518.58 Q1759.59 1526.09 1761.94 1533.29 Q1764.33 1540.48 1764.33 1547.58 Q1764.33 1554.71 1761.94 1561.93 Q1759.59 1569.16 1754.81 1576.64 L1749.72 1576.64 Q1753.95 1569.35 1756.02 1562.16 Q1758.12 1554.93 1758.12 1547.58 Q1758.12 1540.23 1756.02 1533.06 Q1753.95 1525.9 1749.72 1518.58 Z" fill="#000000" fill-rule="nonzero" fill-opacity="1" /><polyline clip-path="url(#clip600)" style="stroke:#000000; stroke-linecap:round; stroke-linejoin:round; stroke-width:4; stroke-opacity:1; fill:none" points="265.445,1423.18 265.445,123.472 "/>
<polyline clip-path="url(#clip600)" style="stroke:#000000; stroke-linecap:round; stroke-linejoin:round; stroke-width:4; stroke-opacity:1; fill:none" points="265.445,1237.9 284.342,1237.9 "/>
<polyline clip-path="url(#clip600)" style="stroke:#000000; stroke-linecap:round; stroke-linejoin:round; stroke-width:4; stroke-opacity:1; fill:none" points="265.445,1009.37 284.342,1009.37 "/>
<polyline clip-path="url(#clip600)" style="stroke:#000000; stroke-linecap:round; stroke-linejoin:round; stroke-width:4; stroke-opacity:1; fill:none" points="265.445,780.843 284.342,780.843 "/>
<polyline clip-path="url(#clip600)" style="stroke:#000000; stroke-linecap:round; stroke-linejoin:round; stroke-width:4; stroke-opacity:1; fill:none" points="265.445,552.315 284.342,552.315 "/>
<polyline clip-path="url(#clip600)" style="stroke:#000000; stroke-linecap:round; stroke-linejoin:round; stroke-width:4; stroke-opacity:1; fill:none" points="265.445,323.788 284.342,323.788 "/>
<path clip-path="url(#clip600)" d="M121.043 1251.24 L137.362 1251.24 L137.362 1255.18 L115.418 1255.18 L115.418 1251.24 Q118.08 1248.49 122.663 1243.86 Q127.269 1239.21 128.45 1237.86 Q130.695 1235.34 131.575 1233.6 Q132.478 1231.84 132.478 1230.15 Q132.478 1227.4 130.533 1225.66 Q128.612 1223.93 125.51 1223.93 Q123.311 1223.93 120.857 1224.69 Q118.427 1225.46 115.649 1227.01 L115.649 1222.28 Q118.473 1221.15 120.927 1220.57 Q123.38 1219.99 125.418 1219.99 Q130.788 1219.99 133.982 1222.68 Q137.177 1225.36 137.177 1229.85 Q137.177 1231.98 136.367 1233.9 Q135.579 1235.8 133.473 1238.4 Q132.894 1239.07 129.792 1242.28 Q126.691 1245.48 121.043 1251.24 Z" fill="#000000" fill-rule="nonzero" fill-opacity="1" /><path clip-path="url(#clip600)" d="M157.177 1223.7 Q153.566 1223.7 151.737 1227.26 Q149.931 1230.8 149.931 1237.93 Q149.931 1245.04 151.737 1248.6 Q153.566 1252.15 157.177 1252.15 Q160.811 1252.15 162.616 1248.6 Q164.445 1245.04 164.445 1237.93 Q164.445 1230.8 162.616 1227.26 Q160.811 1223.7 157.177 1223.7 M157.177 1219.99 Q162.987 1219.99 166.042 1224.6 Q169.121 1229.18 169.121 1237.93 Q169.121 1246.66 166.042 1251.27 Q162.987 1255.85 157.177 1255.85 Q151.366 1255.85 148.288 1251.27 Q145.232 1246.66 145.232 1237.93 Q145.232 1229.18 148.288 1224.6 Q151.366 1219.99 157.177 1219.99 Z" fill="#000000" fill-rule="nonzero" fill-opacity="1" /><path clip-path="url(#clip600)" d="M187.338 1223.7 Q183.727 1223.7 181.899 1227.26 Q180.093 1230.8 180.093 1237.93 Q180.093 1245.04 181.899 1248.6 Q183.727 1252.15 187.338 1252.15 Q190.973 1252.15 192.778 1248.6 Q194.607 1245.04 194.607 1237.93 Q194.607 1230.8 192.778 1227.26 Q190.973 1223.7 187.338 1223.7 M187.338 1219.99 Q193.149 1219.99 196.204 1224.6 Q199.283 1229.18 199.283 1237.93 Q199.283 1246.66 196.204 1251.27 Q193.149 1255.85 187.338 1255.85 Q181.528 1255.85 178.45 1251.27 Q175.394 1246.66 175.394 1237.93 Q175.394 1229.18 178.45 1224.6 Q181.528 1219.99 187.338 1219.99 Z" fill="#000000" fill-rule="nonzero" fill-opacity="1" /><path clip-path="url(#clip600)" d="M217.5 1223.7 Q213.889 1223.7 212.061 1227.26 Q210.255 1230.8 210.255 1237.93 Q210.255 1245.04 212.061 1248.6 Q213.889 1252.15 217.5 1252.15 Q221.135 1252.15 222.94 1248.6 Q224.769 1245.04 224.769 1237.93 Q224.769 1230.8 222.94 1227.26 Q221.135 1223.7 217.5 1223.7 M217.5 1219.99 Q223.31 1219.99 226.366 1224.6 Q229.445 1229.18 229.445 1237.93 Q229.445 1246.66 226.366 1251.27 Q223.31 1255.85 217.5 1255.85 Q211.69 1255.85 208.612 1251.27 Q205.556 1246.66 205.556 1237.93 Q205.556 1229.18 208.612 1224.6 Q211.69 1219.99 217.5 1219.99 Z" fill="#000000" fill-rule="nonzero" fill-opacity="1" /><path clip-path="url(#clip600)" d="M121.043 1022.72 L137.362 1022.72 L137.362 1026.65 L115.418 1026.65 L115.418 1022.72 Q118.08 1019.96 122.663 1015.33 Q127.269 1010.68 128.45 1009.34 Q130.695 1006.81 131.575 1005.08 Q132.478 1003.32 132.478 1001.63 Q132.478 998.873 130.533 997.136 Q128.612 995.4 125.51 995.4 Q123.311 995.4 120.857 996.164 Q118.427 996.928 115.649 998.479 L115.649 993.757 Q118.473 992.623 120.927 992.044 Q123.38 991.465 125.418 991.465 Q130.788 991.465 133.982 994.15 Q137.177 996.836 137.177 1001.33 Q137.177 1003.46 136.367 1005.38 Q135.579 1007.28 133.473 1009.87 Q132.894 1010.54 129.792 1013.76 Q126.691 1016.95 121.043 1022.72 Z" fill="#000000" fill-rule="nonzero" fill-opacity="1" /><path clip-path="url(#clip600)" d="M147.223 992.09 L165.579 992.09 L165.579 996.025 L151.505 996.025 L151.505 1004.5 Q152.524 1004.15 153.542 1003.99 Q154.561 1003.8 155.579 1003.8 Q161.366 1003.8 164.746 1006.97 Q168.126 1010.15 168.126 1015.56 Q168.126 1021.14 164.653 1024.24 Q161.181 1027.32 154.862 1027.32 Q152.686 1027.32 150.417 1026.95 Q148.172 1026.58 145.765 1025.84 L145.765 1021.14 Q147.848 1022.28 150.07 1022.83 Q152.292 1023.39 154.769 1023.39 Q158.774 1023.39 161.112 1021.28 Q163.45 1019.17 163.45 1015.56 Q163.45 1011.95 161.112 1009.84 Q158.774 1007.74 154.769 1007.74 Q152.894 1007.74 151.019 1008.15 Q149.167 1008.57 147.223 1009.45 L147.223 992.09 Z" fill="#000000" fill-rule="nonzero" fill-opacity="1" /><path clip-path="url(#clip600)" d="M187.338 995.169 Q183.727 995.169 181.899 998.734 Q180.093 1002.28 180.093 1009.4 Q180.093 1016.51 181.899 1020.08 Q183.727 1023.62 187.338 1023.62 Q190.973 1023.62 192.778 1020.08 Q194.607 1016.51 194.607 1009.4 Q194.607 1002.28 192.778 998.734 Q190.973 995.169 187.338 995.169 M187.338 991.465 Q193.149 991.465 196.204 996.072 Q199.283 1000.65 199.283 1009.4 Q199.283 1018.13 196.204 1022.74 Q193.149 1027.32 187.338 1027.32 Q181.528 1027.32 178.45 1022.74 Q175.394 1018.13 175.394 1009.4 Q175.394 1000.65 178.45 996.072 Q181.528 991.465 187.338 991.465 Z" fill="#000000" fill-rule="nonzero" fill-opacity="1" /><path clip-path="url(#clip600)" d="M217.5 995.169 Q213.889 995.169 212.061 998.734 Q210.255 1002.28 210.255 1009.4 Q210.255 1016.51 212.061 1020.08 Q213.889 1023.62 217.5 1023.62 Q221.135 1023.62 222.94 1020.08 Q224.769 1016.51 224.769 1009.4 Q224.769 1002.28 222.94 998.734 Q221.135 995.169 217.5 995.169 M217.5 991.465 Q223.31 991.465 226.366 996.072 Q229.445 1000.65 229.445 1009.4 Q229.445 1018.13 226.366 1022.74 Q223.31 1027.32 217.5 1027.32 Q211.69 1027.32 208.612 1022.74 Q205.556 1018.13 205.556 1009.4 Q205.556 1000.65 208.612 996.072 Q211.69 991.465 217.5 991.465 Z" fill="#000000" fill-rule="nonzero" fill-opacity="1" /><path clip-path="url(#clip600)" d="M131.181 779.489 Q134.538 780.206 136.413 782.475 Q138.311 784.743 138.311 788.077 Q138.311 793.192 134.792 795.993 Q131.274 798.794 124.793 798.794 Q122.617 798.794 120.302 798.354 Q118.01 797.938 115.556 797.081 L115.556 792.567 Q117.501 793.702 119.816 794.28 Q122.13 794.859 124.654 794.859 Q129.052 794.859 131.343 793.123 Q133.658 791.387 133.658 788.077 Q133.658 785.021 131.505 783.308 Q129.376 781.572 125.556 781.572 L121.529 781.572 L121.529 777.729 L125.742 777.729 Q129.191 777.729 131.019 776.364 Q132.848 774.975 132.848 772.382 Q132.848 769.72 130.95 768.308 Q129.075 766.873 125.556 766.873 Q123.635 766.873 121.436 767.29 Q119.237 767.706 116.598 768.586 L116.598 764.419 Q119.26 763.679 121.575 763.308 Q123.913 762.938 125.973 762.938 Q131.297 762.938 134.399 765.368 Q137.501 767.776 137.501 771.896 Q137.501 774.766 135.857 776.757 Q134.214 778.725 131.181 779.489 Z" fill="#000000" fill-rule="nonzero" fill-opacity="1" /><path clip-path="url(#clip600)" d="M157.177 766.641 Q153.566 766.641 151.737 770.206 Q149.931 773.748 149.931 780.878 Q149.931 787.984 151.737 791.549 Q153.566 795.09 157.177 795.09 Q160.811 795.09 162.616 791.549 Q164.445 787.984 164.445 780.878 Q164.445 773.748 162.616 770.206 Q160.811 766.641 157.177 766.641 M157.177 762.938 Q162.987 762.938 166.042 767.544 Q169.121 772.128 169.121 780.878 Q169.121 789.604 166.042 794.211 Q162.987 798.794 157.177 798.794 Q151.366 798.794 148.288 794.211 Q145.232 789.604 145.232 780.878 Q145.232 772.128 148.288 767.544 Q151.366 762.938 157.177 762.938 Z" fill="#000000" fill-rule="nonzero" fill-opacity="1" /><path clip-path="url(#clip600)" d="M187.338 766.641 Q183.727 766.641 181.899 770.206 Q180.093 773.748 180.093 780.878 Q180.093 787.984 181.899 791.549 Q183.727 795.09 187.338 795.09 Q190.973 795.09 192.778 791.549 Q194.607 787.984 194.607 780.878 Q194.607 773.748 192.778 770.206 Q190.973 766.641 187.338 766.641 M187.338 762.938 Q193.149 762.938 196.204 767.544 Q199.283 772.128 199.283 780.878 Q199.283 789.604 196.204 794.211 Q193.149 798.794 187.338 798.794 Q181.528 798.794 178.45 794.211 Q175.394 789.604 175.394 780.878 Q175.394 772.128 178.45 767.544 Q181.528 762.938 187.338 762.938 Z" fill="#000000" fill-rule="nonzero" fill-opacity="1" /><path clip-path="url(#clip600)" d="M217.5 766.641 Q213.889 766.641 212.061 770.206 Q210.255 773.748 210.255 780.878 Q210.255 787.984 212.061 791.549 Q213.889 795.09 217.5 795.09 Q221.135 795.09 222.94 791.549 Q224.769 787.984 224.769 780.878 Q224.769 773.748 222.94 770.206 Q221.135 766.641 217.5 766.641 M217.5 762.938 Q223.31 762.938 226.366 767.544 Q229.445 772.128 229.445 780.878 Q229.445 789.604 226.366 794.211 Q223.31 798.794 217.5 798.794 Q211.69 798.794 208.612 794.211 Q205.556 789.604 205.556 780.878 Q205.556 772.128 208.612 767.544 Q211.69 762.938 217.5 762.938 Z" fill="#000000" fill-rule="nonzero" fill-opacity="1" /><path clip-path="url(#clip600)" d="M131.181 550.961 Q134.538 551.679 136.413 553.947 Q138.311 556.216 138.311 559.549 Q138.311 564.665 134.792 567.466 Q131.274 570.267 124.793 570.267 Q122.617 570.267 120.302 569.827 Q118.01 569.41 115.556 568.554 L115.556 564.04 Q117.501 565.174 119.816 565.753 Q122.13 566.331 124.654 566.331 Q129.052 566.331 131.343 564.595 Q133.658 562.859 133.658 559.549 Q133.658 556.494 131.505 554.781 Q129.376 553.045 125.556 553.045 L121.529 553.045 L121.529 549.202 L125.742 549.202 Q129.191 549.202 131.019 547.836 Q132.848 546.447 132.848 543.855 Q132.848 541.193 130.95 539.781 Q129.075 538.346 125.556 538.346 Q123.635 538.346 121.436 538.762 Q119.237 539.179 116.598 540.058 L116.598 535.892 Q119.26 535.151 121.575 534.781 Q123.913 534.41 125.973 534.41 Q131.297 534.41 134.399 536.841 Q137.501 539.248 137.501 543.369 Q137.501 546.239 135.857 548.23 Q134.214 550.197 131.181 550.961 Z" fill="#000000" fill-rule="nonzero" fill-opacity="1" /><path clip-path="url(#clip600)" d="M147.223 535.035 L165.579 535.035 L165.579 538.971 L151.505 538.971 L151.505 547.443 Q152.524 547.095 153.542 546.933 Q154.561 546.748 155.579 546.748 Q161.366 546.748 164.746 549.92 Q168.126 553.091 168.126 558.507 Q168.126 564.086 164.653 567.188 Q161.181 570.267 154.862 570.267 Q152.686 570.267 150.417 569.896 Q148.172 569.526 145.765 568.785 L145.765 564.086 Q147.848 565.22 150.07 565.776 Q152.292 566.331 154.769 566.331 Q158.774 566.331 161.112 564.225 Q163.45 562.119 163.45 558.507 Q163.45 554.896 161.112 552.79 Q158.774 550.683 154.769 550.683 Q152.894 550.683 151.019 551.1 Q149.167 551.517 147.223 552.396 L147.223 535.035 Z" fill="#000000" fill-rule="nonzero" fill-opacity="1" /><path clip-path="url(#clip600)" d="M187.338 538.114 Q183.727 538.114 181.899 541.679 Q180.093 545.22 180.093 552.35 Q180.093 559.457 181.899 563.021 Q183.727 566.563 187.338 566.563 Q190.973 566.563 192.778 563.021 Q194.607 559.457 194.607 552.35 Q194.607 545.22 192.778 541.679 Q190.973 538.114 187.338 538.114 M187.338 534.41 Q193.149 534.41 196.204 539.017 Q199.283 543.6 199.283 552.35 Q199.283 561.077 196.204 565.683 Q193.149 570.267 187.338 570.267 Q181.528 570.267 178.45 565.683 Q175.394 561.077 175.394 552.35 Q175.394 543.6 178.45 539.017 Q181.528 534.41 187.338 534.41 Z" fill="#000000" fill-rule="nonzero" fill-opacity="1" /><path clip-path="url(#clip600)" d="M217.5 538.114 Q213.889 538.114 212.061 541.679 Q210.255 545.22 210.255 552.35 Q210.255 559.457 212.061 563.021 Q213.889 566.563 217.5 566.563 Q221.135 566.563 222.94 563.021 Q224.769 559.457 224.769 552.35 Q224.769 545.22 222.94 541.679 Q221.135 538.114 217.5 538.114 M217.5 534.41 Q223.31 534.41 226.366 539.017 Q229.445 543.6 229.445 552.35 Q229.445 561.077 226.366 565.683 Q223.31 570.267 217.5 570.267 Q211.69 570.267 208.612 565.683 Q205.556 561.077 205.556 552.35 Q205.556 543.6 208.612 539.017 Q211.69 534.41 217.5 534.41 Z" fill="#000000" fill-rule="nonzero" fill-opacity="1" /><path clip-path="url(#clip600)" d="M129.862 310.582 L118.056 329.031 L129.862 329.031 L129.862 310.582 M128.635 306.508 L134.515 306.508 L134.515 329.031 L139.445 329.031 L139.445 332.92 L134.515 332.92 L134.515 341.068 L129.862 341.068 L129.862 332.92 L114.26 332.92 L114.26 328.406 L128.635 306.508 Z" fill="#000000" fill-rule="nonzero" fill-opacity="1" /><path clip-path="url(#clip600)" d="M157.177 309.587 Q153.566 309.587 151.737 313.151 Q149.931 316.693 149.931 323.823 Q149.931 330.929 151.737 334.494 Q153.566 338.035 157.177 338.035 Q160.811 338.035 162.616 334.494 Q164.445 330.929 164.445 323.823 Q164.445 316.693 162.616 313.151 Q160.811 309.587 157.177 309.587 M157.177 305.883 Q162.987 305.883 166.042 310.489 Q169.121 315.073 169.121 323.823 Q169.121 332.549 166.042 337.156 Q162.987 341.739 157.177 341.739 Q151.366 341.739 148.288 337.156 Q145.232 332.549 145.232 323.823 Q145.232 315.073 148.288 310.489 Q151.366 305.883 157.177 305.883 Z" fill="#000000" fill-rule="nonzero" fill-opacity="1" /><path clip-path="url(#clip600)" d="M187.338 309.587 Q183.727 309.587 181.899 313.151 Q180.093 316.693 180.093 323.823 Q180.093 330.929 181.899 334.494 Q183.727 338.035 187.338 338.035 Q190.973 338.035 192.778 334.494 Q194.607 330.929 194.607 323.823 Q194.607 316.693 192.778 313.151 Q190.973 309.587 187.338 309.587 M187.338 305.883 Q193.149 305.883 196.204 310.489 Q199.283 315.073 199.283 323.823 Q199.283 332.549 196.204 337.156 Q193.149 341.739 187.338 341.739 Q181.528 341.739 178.45 337.156 Q175.394 332.549 175.394 323.823 Q175.394 315.073 178.45 310.489 Q181.528 305.883 187.338 305.883 Z" fill="#000000" fill-rule="nonzero" fill-opacity="1" /><path clip-path="url(#clip600)" d="M217.5 309.587 Q213.889 309.587 212.061 313.151 Q210.255 316.693 210.255 323.823 Q210.255 330.929 212.061 334.494 Q213.889 338.035 217.5 338.035 Q221.135 338.035 222.94 334.494 Q224.769 330.929 224.769 323.823 Q224.769 316.693 222.94 313.151 Q221.135 309.587 217.5 309.587 M217.5 305.883 Q223.31 305.883 226.366 310.489 Q229.445 315.073 229.445 323.823 Q229.445 332.549 226.366 337.156 Q223.31 341.739 217.5 341.739 Q211.69 341.739 208.612 337.156 Q205.556 332.549 205.556 323.823 Q205.556 315.073 208.612 310.489 Q211.69 305.883 217.5 305.883 Z" fill="#000000" fill-rule="nonzero" fill-opacity="1" /><path clip-path="url(#clip600)" d="M16.4842 1229.97 L16.4842 1223.51 L45.3526 1223.51 Q52.9915 1223.51 56.3653 1220.74 Q59.7073 1217.97 59.7073 1211.76 Q59.7073 1205.59 56.3653 1202.82 Q52.9915 1200.05 45.3526 1200.05 L16.4842 1200.05 L16.4842 1193.59 L46.1484 1193.59 Q55.4423 1193.59 60.1847 1198.21 Q64.9272 1202.79 64.9272 1211.76 Q64.9272 1220.77 60.1847 1225.39 Q55.4423 1229.97 46.1484 1229.97 L16.4842 1229.97 Z" fill="#000000" fill-rule="nonzero" fill-opacity="1" /><path clip-path="url(#clip600)" d="M58.657 1176.12 L77.5631 1176.12 L77.5631 1182 L28.3562 1182 L28.3562 1176.12 L33.7671 1176.12 Q30.5842 1174.27 29.0564 1171.47 Q27.4968 1168.64 27.4968 1164.72 Q27.4968 1158.23 32.6531 1154.19 Q37.8093 1150.11 46.212 1150.11 Q54.6147 1150.11 59.771 1154.19 Q64.9272 1158.23 64.9272 1164.72 Q64.9272 1168.64 63.3994 1171.47 Q61.8398 1174.27 58.657 1176.12 M46.212 1156.19 Q39.7508 1156.19 36.0905 1158.87 Q32.3984 1161.51 32.3984 1166.15 Q32.3984 1170.8 36.0905 1173.47 Q39.7508 1176.12 46.212 1176.12 Q52.6732 1176.12 56.3653 1173.47 Q60.0256 1170.8 60.0256 1166.15 Q60.0256 1161.51 56.3653 1158.87 Q52.6732 1156.19 46.212 1156.19 Z" fill="#000000" fill-rule="nonzero" fill-opacity="1" /><path clip-path="url(#clip600)" d="M58.657 1134.74 L77.5631 1134.74 L77.5631 1140.63 L28.3562 1140.63 L28.3562 1134.74 L33.7671 1134.74 Q30.5842 1132.89 29.0564 1130.09 Q27.4968 1127.26 27.4968 1123.34 Q27.4968 1116.85 32.6531 1112.81 Q37.8093 1108.74 46.212 1108.74 Q54.6147 1108.74 59.771 1112.81 Q64.9272 1116.85 64.9272 1123.34 Q64.9272 1127.26 63.3994 1130.09 Q61.8398 1132.89 58.657 1134.74 M46.212 1114.81 Q39.7508 1114.81 36.0905 1117.49 Q32.3984 1120.13 32.3984 1124.78 Q32.3984 1129.42 36.0905 1132.1 Q39.7508 1134.74 46.212 1134.74 Q52.6732 1134.74 56.3653 1132.1 Q60.0256 1129.42 60.0256 1124.78 Q60.0256 1120.13 56.3653 1117.49 Q52.6732 1114.81 46.212 1114.81 Z" fill="#000000" fill-rule="nonzero" fill-opacity="1" /><path clip-path="url(#clip600)" d="M44.7161 1068.54 L47.5806 1068.54 L47.5806 1095.46 Q53.6281 1095.08 56.8109 1091.83 Q59.9619 1088.56 59.9619 1082.73 Q59.9619 1079.36 59.1344 1076.21 Q58.3069 1073.02 56.6518 1069.9 L62.1899 1069.9 Q63.5267 1073.06 64.227 1076.37 Q64.9272 1079.68 64.9272 1083.08 Q64.9272 1091.61 59.9619 1096.61 Q54.9967 1101.57 46.5303 1101.57 Q37.7774 1101.57 32.6531 1096.86 Q27.4968 1092.12 27.4968 1084.1 Q27.4968 1076.91 32.1438 1072.74 Q36.7589 1068.54 44.7161 1068.54 M42.9973 1074.39 Q38.1912 1074.46 35.3266 1077.1 Q32.4621 1079.71 32.4621 1084.04 Q32.4621 1088.94 35.2312 1091.9 Q38.0002 1094.83 43.0292 1095.27 L42.9973 1074.39 Z" fill="#000000" fill-rule="nonzero" fill-opacity="1" /><path clip-path="url(#clip600)" d="M33.8307 1038.27 Q33.2578 1039.25 33.0032 1040.43 Q32.7167 1041.58 32.7167 1042.98 Q32.7167 1047.94 35.9632 1050.62 Q39.1779 1053.26 45.2253 1053.26 L64.0042 1053.26 L64.0042 1059.15 L28.3562 1059.15 L28.3562 1053.26 L33.8944 1053.26 Q30.6479 1051.41 29.0883 1048.45 Q27.4968 1045.49 27.4968 1041.26 Q27.4968 1040.65 27.5923 1039.92 Q27.656 1039.19 27.8151 1038.3 L33.8307 1038.27 Z" fill="#000000" fill-rule="nonzero" fill-opacity="1" /><path clip-path="url(#clip600)" d="M43.5384 1039.25 L43.5384 1022.1 L48.7583 1022.1 L48.7583 1039.25 L43.5384 1039.25 Z" fill="#000000" fill-rule="nonzero" fill-opacity="1" /><path clip-path="url(#clip600)" d="M16.4842 1012.52 L16.4842 1006.09 L58.5933 1006.09 L58.5933 982.949 L64.0042 982.949 L64.0042 1012.52 L16.4842 1012.52 Z" fill="#000000" fill-rule="nonzero" fill-opacity="1" /><path clip-path="url(#clip600)" d="M44.7161 947.11 L47.5806 947.11 L47.5806 974.037 Q53.6281 973.655 56.8109 970.408 Q59.9619 967.13 59.9619 961.305 Q59.9619 957.931 59.1344 954.78 Q58.3069 951.598 56.6518 948.478 L62.1899 948.478 Q63.5267 951.629 64.227 954.94 Q64.9272 958.25 64.9272 961.655 Q64.9272 970.185 59.9619 975.183 Q54.9967 980.148 46.5303 980.148 Q37.7774 980.148 32.6531 975.437 Q27.4968 970.695 27.4968 962.674 Q27.4968 955.481 32.1438 951.311 Q36.7589 947.11 44.7161 947.11 M42.9973 952.966 Q38.1912 953.03 35.3266 955.672 Q32.4621 958.282 32.4621 962.61 Q32.4621 967.512 35.2312 970.472 Q38.0002 973.4 43.0292 973.846 L42.9973 952.966 Z" fill="#000000" fill-rule="nonzero" fill-opacity="1" /><path clip-path="url(#clip600)" d="M28.3562 941.699 L28.3562 935.492 L58.275 924.352 L28.3562 913.212 L28.3562 907.006 L64.0042 920.374 L64.0042 928.331 L28.3562 941.699 Z" fill="#000000" fill-rule="nonzero" fill-opacity="1" /><path clip-path="url(#clip600)" d="M44.7161 868.43 L47.5806 868.43 L47.5806 895.357 Q53.6281 894.975 56.8109 891.728 Q59.9619 888.45 59.9619 882.625 Q59.9619 879.251 59.1344 876.1 Q58.3069 872.917 56.6518 869.798 L62.1899 869.798 Q63.5267 872.949 64.227 876.259 Q64.9272 879.57 64.9272 882.975 Q64.9272 891.505 59.9619 896.502 Q54.9967 901.468 46.5303 901.468 Q37.7774 901.468 32.6531 896.757 Q27.4968 892.015 27.4968 883.994 Q27.4968 876.801 32.1438 872.631 Q36.7589 868.43 44.7161 868.43 M42.9973 874.286 Q38.1912 874.35 35.3266 876.992 Q32.4621 879.601 32.4621 883.93 Q32.4621 888.832 35.2312 891.792 Q38.0002 894.72 43.0292 895.166 L42.9973 874.286 Z" fill="#000000" fill-rule="nonzero" fill-opacity="1" /><path clip-path="url(#clip600)" d="M14.479 858.817 L14.479 852.961 L64.0042 852.961 L64.0042 858.817 L14.479 858.817 Z" fill="#000000" fill-rule="nonzero" fill-opacity="1" /><path clip-path="url(#clip600)" d="M16.4842 819.732 L16.4842 813.303 L58.5933 813.303 L58.5933 790.163 L64.0042 790.163 L64.0042 819.732 L16.4842 819.732 Z" fill="#000000" fill-rule="nonzero" fill-opacity="1" /><path clip-path="url(#clip600)" d="M32.4621 771.003 Q32.4621 775.713 36.1542 778.45 Q39.8145 781.188 46.212 781.188 Q52.6095 781.188 56.3017 778.482 Q59.9619 775.745 59.9619 771.003 Q59.9619 766.324 56.2698 763.586 Q52.5777 760.849 46.212 760.849 Q39.8781 760.849 36.186 763.586 Q32.4621 766.324 32.4621 771.003 M27.4968 771.003 Q27.4968 763.364 32.4621 759.003 Q37.4273 754.643 46.212 754.643 Q54.9649 754.643 59.9619 759.003 Q64.9272 763.364 64.9272 771.003 Q64.9272 778.673 59.9619 783.034 Q54.9649 787.362 46.212 787.362 Q37.4273 787.362 32.4621 783.034 Q27.4968 778.673 27.4968 771.003 Z" fill="#000000" fill-rule="nonzero" fill-opacity="1" /><path clip-path="url(#clip600)" d="M46.0847 728.734 Q46.0847 735.832 47.7079 738.569 Q49.3312 741.306 53.2461 741.306 Q56.3653 741.306 58.2114 739.269 Q60.0256 737.201 60.0256 733.668 Q60.0256 728.798 56.5881 725.87 Q53.1188 722.91 47.3897 722.91 L46.0847 722.91 L46.0847 728.734 M43.6657 717.053 L64.0042 717.053 L64.0042 722.91 L58.5933 722.91 Q61.8398 724.915 63.3994 727.907 Q64.9272 730.899 64.9272 735.227 Q64.9272 740.702 61.8716 743.948 Q58.7843 747.163 53.6281 747.163 Q47.6125 747.163 44.5569 743.153 Q41.5014 739.11 41.5014 731.121 L41.5014 722.91 L40.9285 722.91 Q36.8862 722.91 34.6901 725.583 Q32.4621 728.225 32.4621 733.031 Q32.4621 736.087 33.1941 738.983 Q33.9262 741.879 35.3903 744.553 L29.9795 744.553 Q28.7381 741.338 28.1334 738.315 Q27.4968 735.291 27.4968 732.426 Q27.4968 724.692 31.5072 720.873 Q35.5176 717.053 43.6657 717.053 Z" fill="#000000" fill-rule="nonzero" fill-opacity="1" /><path clip-path="url(#clip600)" d="M33.7671 681.532 L14.479 681.532 L14.479 675.676 L64.0042 675.676 L64.0042 681.532 L58.657 681.532 Q61.8398 683.379 63.3994 686.211 Q64.9272 689.012 64.9272 692.959 Q64.9272 699.42 59.771 703.494 Q54.6147 707.536 46.212 707.536 Q37.8093 707.536 32.6531 703.494 Q27.4968 699.42 27.4968 692.959 Q27.4968 689.012 29.0564 686.211 Q30.5842 683.379 33.7671 681.532 M46.212 701.489 Q52.6732 701.489 56.3653 698.847 Q60.0256 696.174 60.0256 691.527 Q60.0256 686.88 56.3653 684.206 Q52.6732 681.532 46.212 681.532 Q39.7508 681.532 36.0905 684.206 Q32.3984 686.88 32.3984 691.527 Q32.3984 696.174 36.0905 698.847 Q39.7508 701.489 46.212 701.489 Z" fill="#000000" fill-rule="nonzero" fill-opacity="1" /><path clip-path="url(#clip600)" d="M18.0438 614.151 L24.314 614.151 Q22.5634 617.812 21.704 621.058 Q20.8447 624.305 20.8447 627.329 Q20.8447 632.58 22.8817 635.445 Q24.9187 638.278 28.6745 638.278 Q31.8255 638.278 33.4488 636.4 Q35.0402 634.49 36.0269 629.206 L36.8226 625.323 Q38.1912 618.13 41.6605 614.724 Q45.098 611.287 50.8908 611.287 Q57.7976 611.287 61.3624 615.934 Q64.9272 620.549 64.9272 629.493 Q64.9272 632.867 64.1633 636.686 Q63.3994 640.474 61.9035 644.548 L55.2831 644.548 Q57.4793 640.633 58.5933 636.877 Q59.7073 633.121 59.7073 629.493 Q59.7073 623.987 57.543 620.995 Q55.3786 618.003 51.3682 618.003 Q47.8671 618.003 45.8937 620.167 Q43.9204 622.3 42.9337 627.201 L42.1698 631.116 Q40.7375 638.309 37.682 641.524 Q34.6264 644.739 29.1837 644.739 Q22.8817 644.739 19.2532 640.315 Q15.6248 635.859 15.6248 628.061 Q15.6248 624.719 16.2295 621.249 Q16.8343 617.78 18.0438 614.151 Z" fill="#000000" fill-rule="nonzero" fill-opacity="1" /><path clip-path="url(#clip600)" d="M42.4881 571.883 L64.0042 571.883 L64.0042 577.74 L42.679 577.74 Q37.6183 577.74 35.1038 579.713 Q32.5894 581.686 32.5894 585.633 Q32.5894 590.376 35.6131 593.113 Q38.6368 595.85 43.8567 595.85 L64.0042 595.85 L64.0042 601.738 L14.479 601.738 L14.479 595.85 L33.8944 595.85 Q30.6797 593.749 29.0883 590.917 Q27.4968 588.052 27.4968 584.328 Q27.4968 578.185 31.3163 575.034 Q35.1038 571.883 42.4881 571.883 Z" fill="#000000" fill-rule="nonzero" fill-opacity="1" /><path clip-path="url(#clip600)" d="M44.7161 529.71 L47.5806 529.71 L47.5806 556.637 Q53.6281 556.255 56.8109 553.009 Q59.9619 549.731 59.9619 543.906 Q59.9619 540.532 59.1344 537.381 Q58.3069 534.198 56.6518 531.079 L62.1899 531.079 Q63.5267 534.23 64.227 537.54 Q64.9272 540.85 64.9272 544.256 Q64.9272 552.786 59.9619 557.783 Q54.9967 562.748 46.5303 562.748 Q37.7774 562.748 32.6531 558.038 Q27.4968 553.295 27.4968 545.275 Q27.4968 538.081 32.1438 533.912 Q36.7589 529.71 44.7161 529.71 M42.9973 535.567 Q38.1912 535.63 35.3266 538.272 Q32.4621 540.882 32.4621 545.211 Q32.4621 550.112 35.2312 553.073 Q38.0002 556.001 43.0292 556.446 L42.9973 535.567 Z" fill="#000000" fill-rule="nonzero" fill-opacity="1" /><path clip-path="url(#clip600)" d="M33.7671 496.641 L14.479 496.641 L14.479 490.784 L64.0042 490.784 L64.0042 496.641 L58.657 496.641 Q61.8398 498.487 63.3994 501.319 Q64.9272 504.12 64.9272 508.067 Q64.9272 514.528 59.771 518.602 Q54.6147 522.644 46.212 522.644 Q37.8093 522.644 32.6531 518.602 Q27.4968 514.528 27.4968 508.067 Q27.4968 504.12 29.0564 501.319 Q30.5842 498.487 33.7671 496.641 M46.212 516.597 Q52.6732 516.597 56.3653 513.955 Q60.0256 511.282 60.0256 506.635 Q60.0256 501.988 56.3653 499.314 Q52.6732 496.641 46.212 496.641 Q39.7508 496.641 36.0905 499.314 Q32.3984 501.988 32.3984 506.635 Q32.3984 511.282 36.0905 513.955 Q39.7508 516.597 46.212 516.597 Z" fill="#000000" fill-rule="nonzero" fill-opacity="1" /><path clip-path="url(#clip600)" d="M14.5426 443.932 Q21.8632 448.198 29.0246 450.266 Q36.186 452.335 43.5384 452.335 Q50.8908 452.335 58.1159 450.266 Q65.3091 448.166 72.5979 443.932 L72.5979 449.025 Q65.1182 453.799 57.8931 456.186 Q50.668 458.542 43.5384 458.542 Q36.4406 458.542 29.2474 456.186 Q22.0542 453.831 14.5426 449.025 L14.5426 443.932 Z" fill="#000000" fill-rule="nonzero" fill-opacity="1" /><path clip-path="url(#clip600)" d="M14.479 432.793 L14.479 426.904 L43.7294 426.904 L28.3562 409.43 L28.3562 401.951 L45.0344 420.857 L64.0042 401.155 L64.0042 408.794 L46.5939 426.904 L64.0042 426.904 L64.0042 432.793 L14.479 432.793 Z" fill="#000000" fill-rule="nonzero" fill-opacity="1" /><path clip-path="url(#clip600)" d="M16.4842 398.8 L16.4842 392.307 L56.6518 382.312 L16.4842 372.35 L16.4842 365.125 L56.6518 355.131 L16.4842 345.169 L16.4842 338.644 L64.0042 350.579 L64.0042 358.664 L22.7544 368.69 L64.0042 378.811 L64.0042 386.896 L16.4842 398.8 Z" fill="#000000" fill-rule="nonzero" fill-opacity="1" /><path clip-path="url(#clip600)" d="M14.5426 331.291 L14.5426 326.199 Q22.0542 321.424 29.2474 319.069 Q36.4406 316.682 43.5384 316.682 Q50.668 316.682 57.8931 319.069 Q65.1182 321.424 72.5979 326.199 L72.5979 331.291 Q65.3091 327.058 58.1159 324.989 Q50.8908 322.889 43.5384 322.889 Q36.186 322.889 29.0246 324.989 Q21.8632 327.058 14.5426 331.291 Z" fill="#000000" fill-rule="nonzero" fill-opacity="1" /><path clip-path="url(#clip600)" d="M526.081 12.096 L534.264 12.096 L534.264 65.6895 L563.714 65.6895 L563.714 72.576 L526.081 72.576 L526.081 12.096 Z" fill="#000000" fill-rule="nonzero" fill-opacity="1" /><path clip-path="url(#clip600)" d="M588.1 32.4315 Q582.105 32.4315 578.621 37.1306 Q575.137 41.7891 575.137 49.9314 Q575.137 58.0738 578.581 62.7728 Q582.064 67.4314 588.1 67.4314 Q594.055 67.4314 597.539 62.7323 Q601.023 58.0333 601.023 49.9314 Q601.023 41.8701 597.539 37.1711 Q594.055 32.4315 588.1 32.4315 M588.1 26.1121 Q597.822 26.1121 603.372 32.4315 Q608.922 38.7509 608.922 49.9314 Q608.922 61.0714 603.372 67.4314 Q597.822 73.7508 588.1 73.7508 Q578.337 73.7508 572.788 67.4314 Q567.278 61.0714 567.278 49.9314 Q567.278 38.7509 572.788 32.4315 Q578.337 26.1121 588.1 26.1121 Z" fill="#000000" fill-rule="nonzero" fill-opacity="1" /><path clip-path="url(#clip600)" d="M641.896 49.7694 Q632.863 49.7694 629.379 51.8354 Q625.895 53.9013 625.895 58.8839 Q625.895 62.8538 628.488 65.2034 Q631.121 67.5124 635.617 67.5124 Q641.815 67.5124 645.542 63.1374 Q649.309 58.7219 649.309 51.4303 L649.309 49.7694 L641.896 49.7694 M656.763 46.6907 L656.763 72.576 L649.309 72.576 L649.309 65.6895 Q646.757 69.8214 642.949 71.8063 Q639.142 73.7508 633.632 73.7508 Q626.665 73.7508 622.533 69.8619 Q618.441 65.9325 618.441 59.3701 Q618.441 51.7138 623.546 47.825 Q628.69 43.9361 638.858 43.9361 L649.309 43.9361 L649.309 43.2069 Q649.309 38.0623 645.907 35.2672 Q642.544 32.4315 636.427 32.4315 Q632.539 32.4315 628.852 33.3632 Q625.166 34.295 621.763 36.1584 L621.763 29.2718 Q625.855 27.692 629.703 26.9223 Q633.551 26.1121 637.197 26.1121 Q647.041 26.1121 651.902 31.2163 Q656.763 36.3204 656.763 46.6907 Z" fill="#000000" fill-rule="nonzero" fill-opacity="1" /><path clip-path="url(#clip600)" d="M701.971 34.0924 L701.971 9.54393 L709.425 9.54393 L709.425 72.576 L701.971 72.576 L701.971 65.7705 Q699.622 69.8214 696.016 71.8063 Q692.451 73.7508 687.428 73.7508 Q679.205 73.7508 674.02 67.1883 Q668.875 60.6258 668.875 49.9314 Q668.875 39.2371 674.02 32.6746 Q679.205 26.1121 687.428 26.1121 Q692.451 26.1121 696.016 28.0971 Q699.622 30.0415 701.971 34.0924 M676.572 49.9314 Q676.572 58.1548 679.934 62.8538 Q683.337 67.5124 689.251 67.5124 Q695.166 67.5124 698.568 62.8538 Q701.971 58.1548 701.971 49.9314 Q701.971 41.7081 698.568 37.0496 Q695.166 32.3505 689.251 32.3505 Q683.337 32.3505 679.934 37.0496 Q676.572 41.7081 676.572 49.9314 Z" fill="#000000" fill-rule="nonzero" fill-opacity="1" /><path clip-path="url(#clip600)" d="M787.729 14.0809 L787.729 22.0612 Q783.07 19.8332 778.938 18.7395 Q774.806 17.6457 770.958 17.6457 Q764.274 17.6457 760.628 20.2383 Q757.023 22.8309 757.023 27.611 Q757.023 31.6214 759.413 33.6873 Q761.843 35.7128 768.568 36.9686 L773.51 37.9813 Q782.665 39.7232 787 44.1387 Q791.375 48.5136 791.375 55.8863 Q791.375 64.6767 785.46 69.2137 Q779.586 73.7508 768.203 73.7508 Q763.909 73.7508 759.048 72.7785 Q754.228 71.8063 749.043 69.9024 L749.043 61.4765 Q754.025 64.2716 758.805 65.6895 Q763.585 67.1073 768.203 67.1073 Q775.211 67.1073 779.019 64.3527 Q782.827 61.598 782.827 56.4939 Q782.827 52.0379 780.072 49.5264 Q777.358 47.0148 771.12 45.759 L766.137 44.7868 Q756.982 42.9639 752.891 39.075 Q748.799 35.1862 748.799 28.2591 Q748.799 20.2383 754.43 15.6203 Q760.102 11.0023 770.026 11.0023 Q774.28 11.0023 778.695 11.7719 Q783.111 12.5416 787.729 14.0809 Z" fill="#000000" fill-rule="nonzero" fill-opacity="1" /><path clip-path="url(#clip600)" d="M841.525 45.1919 L841.525 72.576 L834.071 72.576 L834.071 45.4349 Q834.071 38.994 831.559 35.7938 Q829.048 32.5936 824.025 32.5936 Q817.989 32.5936 814.505 36.4419 Q811.021 40.2903 811.021 46.9338 L811.021 72.576 L803.527 72.576 L803.527 9.54393 L811.021 9.54393 L811.021 34.2544 Q813.695 30.163 817.3 28.1376 Q820.946 26.1121 825.686 26.1121 Q833.504 26.1121 837.514 30.9732 Q841.525 35.7938 841.525 45.1919 Z" fill="#000000" fill-rule="nonzero" fill-opacity="1" /><path clip-path="url(#clip600)" d="M895.199 48.0275 L895.199 51.6733 L860.929 51.6733 Q861.415 59.3701 865.547 63.421 Q869.719 67.4314 877.132 67.4314 Q881.426 67.4314 885.436 66.3781 Q889.487 65.3249 893.457 63.2184 L893.457 70.267 Q889.447 71.9684 885.234 72.8596 Q881.021 73.7508 876.687 73.7508 Q865.83 73.7508 859.47 67.4314 Q853.151 61.1119 853.151 50.3365 Q853.151 39.1965 859.146 32.6746 Q865.182 26.1121 875.39 26.1121 Q884.545 26.1121 889.852 32.0264 Q895.199 37.9003 895.199 48.0275 M887.746 45.84 Q887.664 39.7232 884.302 36.0774 Q880.981 32.4315 875.471 32.4315 Q869.233 32.4315 865.466 35.9558 Q861.739 39.4801 861.172 45.8805 L887.746 45.84 Z" fill="#000000" fill-rule="nonzero" fill-opacity="1" /><path clip-path="url(#clip600)" d="M937.288 34.0924 L937.288 9.54393 L944.742 9.54393 L944.742 72.576 L937.288 72.576 L937.288 65.7705 Q934.939 69.8214 931.333 71.8063 Q927.768 73.7508 922.745 73.7508 Q914.522 73.7508 909.337 67.1883 Q904.192 60.6258 904.192 49.9314 Q904.192 39.2371 909.337 32.6746 Q914.522 26.1121 922.745 26.1121 Q927.768 26.1121 931.333 28.0971 Q934.939 30.0415 937.288 34.0924 M911.889 49.9314 Q911.889 58.1548 915.251 62.8538 Q918.654 67.5124 924.568 67.5124 Q930.483 67.5124 933.885 62.8538 Q937.288 58.1548 937.288 49.9314 Q937.288 41.7081 933.885 37.0496 Q930.483 32.3505 924.568 32.3505 Q918.654 32.3505 915.251 37.0496 Q911.889 41.7081 911.889 49.9314 Z" fill="#000000" fill-rule="nonzero" fill-opacity="1" /><path clip-path="url(#clip600)" d="M1032.08 16.7545 L1032.08 25.383 Q1027.95 21.5346 1023.25 19.6307 Q1018.59 17.7268 1013.32 17.7268 Q1002.95 17.7268 997.444 24.0867 Q991.935 30.4061 991.935 42.3968 Q991.935 54.3469 997.444 60.7069 Q1002.95 67.0263 1013.32 67.0263 Q1018.59 67.0263 1023.25 65.1223 Q1027.95 63.2184 1032.08 59.3701 L1032.08 67.9175 Q1027.79 70.8341 1022.96 72.2924 Q1018.18 73.7508 1012.84 73.7508 Q999.105 73.7508 991.206 65.3654 Q983.306 56.9395 983.306 42.3968 Q983.306 27.8135 991.206 19.4281 Q999.105 11.0023 1012.84 11.0023 Q1018.27 11.0023 1023.05 12.4606 Q1027.87 13.8784 1032.08 16.7545 Z" fill="#000000" fill-rule="nonzero" fill-opacity="1" /><path clip-path="url(#clip600)" d="M1061.97 32.4315 Q1055.98 32.4315 1052.5 37.1306 Q1049.01 41.7891 1049.01 49.9314 Q1049.01 58.0738 1052.46 62.7728 Q1055.94 67.4314 1061.97 67.4314 Q1067.93 67.4314 1071.41 62.7323 Q1074.9 58.0333 1074.9 49.9314 Q1074.9 41.8701 1071.41 37.1711 Q1067.93 32.4315 1061.97 32.4315 M1061.97 26.1121 Q1071.7 26.1121 1077.25 32.4315 Q1082.8 38.7509 1082.8 49.9314 Q1082.8 61.0714 1077.25 67.4314 Q1071.7 73.7508 1061.97 73.7508 Q1052.21 73.7508 1046.66 67.4314 Q1041.15 61.0714 1041.15 49.9314 Q1041.15 38.7509 1046.66 32.4315 Q1052.21 26.1121 1061.97 26.1121 Z" fill="#000000" fill-rule="nonzero" fill-opacity="1" /><path clip-path="url(#clip600)" d="M1130.48 35.9153 Q1133.27 30.8922 1137.16 28.5022 Q1141.05 26.1121 1146.31 26.1121 Q1153.4 26.1121 1157.25 31.0947 Q1161.1 36.0368 1161.1 45.1919 L1161.1 72.576 L1153.61 72.576 L1153.61 45.4349 Q1153.61 38.913 1151.3 35.7533 Q1148.99 32.5936 1144.25 32.5936 Q1138.46 32.5936 1135.09 36.4419 Q1131.73 40.2903 1131.73 46.9338 L1131.73 72.576 L1124.24 72.576 L1124.24 45.4349 Q1124.24 38.8725 1121.93 35.7533 Q1119.62 32.5936 1114.8 32.5936 Q1109.09 32.5936 1105.72 36.4824 Q1102.36 40.3308 1102.36 46.9338 L1102.36 72.576 L1094.87 72.576 L1094.87 27.2059 L1102.36 27.2059 L1102.36 34.2544 Q1104.91 30.082 1108.48 28.0971 Q1112.04 26.1121 1116.95 26.1121 Q1121.89 26.1121 1125.33 28.6237 Q1128.81 31.1352 1130.48 35.9153 Z" fill="#000000" fill-rule="nonzero" fill-opacity="1" /><path clip-path="url(#clip600)" d="M1183.18 65.7705 L1183.18 89.8329 L1175.68 89.8329 L1175.68 27.2059 L1183.18 27.2059 L1183.18 34.0924 Q1185.53 30.0415 1189.09 28.0971 Q1192.7 26.1121 1197.68 26.1121 Q1205.94 26.1121 1211.09 32.6746 Q1216.27 39.2371 1216.27 49.9314 Q1216.27 60.6258 1211.09 67.1883 Q1205.94 73.7508 1197.68 73.7508 Q1192.7 73.7508 1189.09 71.8063 Q1185.53 69.8214 1183.18 65.7705 M1208.54 49.9314 Q1208.54 41.7081 1205.13 37.0496 Q1201.77 32.3505 1195.86 32.3505 Q1189.94 32.3505 1186.54 37.0496 Q1183.18 41.7081 1183.18 49.9314 Q1183.18 58.1548 1186.54 62.8538 Q1189.94 67.5124 1195.86 67.5124 Q1201.77 67.5124 1205.13 62.8538 Q1208.54 58.1548 1208.54 49.9314 Z" fill="#000000" fill-rule="nonzero" fill-opacity="1" /><path clip-path="url(#clip600)" d="M1249.25 49.7694 Q1240.21 49.7694 1236.73 51.8354 Q1233.25 53.9013 1233.25 58.8839 Q1233.25 62.8538 1235.84 65.2034 Q1238.47 67.5124 1242.97 67.5124 Q1249.17 67.5124 1252.89 63.1374 Q1256.66 58.7219 1256.66 51.4303 L1256.66 49.7694 L1249.25 49.7694 M1264.12 46.6907 L1264.12 72.576 L1256.66 72.576 L1256.66 65.6895 Q1254.11 69.8214 1250.3 71.8063 Q1246.49 73.7508 1240.98 73.7508 Q1234.02 73.7508 1229.88 69.8619 Q1225.79 65.9325 1225.79 59.3701 Q1225.79 51.7138 1230.9 47.825 Q1236.04 43.9361 1246.21 43.9361 L1256.66 43.9361 L1256.66 43.2069 Q1256.66 38.0623 1253.26 35.2672 Q1249.9 32.4315 1243.78 32.4315 Q1239.89 32.4315 1236.2 33.3632 Q1232.52 34.295 1229.12 36.1584 L1229.12 29.2718 Q1233.21 27.692 1237.05 26.9223 Q1240.9 26.1121 1244.55 26.1121 Q1254.39 26.1121 1259.25 31.2163 Q1264.12 36.3204 1264.12 46.6907 Z" fill="#000000" fill-rule="nonzero" fill-opacity="1" /><path clip-path="url(#clip600)" d="M1305.76 34.1734 Q1304.5 33.4443 1303 33.1202 Q1301.55 32.7556 1299.76 32.7556 Q1293.44 32.7556 1290.04 36.8875 Q1286.68 40.9789 1286.68 48.6757 L1286.68 72.576 L1279.18 72.576 L1279.18 27.2059 L1286.68 27.2059 L1286.68 34.2544 Q1289.03 30.1225 1292.8 28.1376 Q1296.56 26.1121 1301.95 26.1121 Q1302.72 26.1121 1303.65 26.2337 Q1304.58 26.3147 1305.72 26.5172 L1305.76 34.1734 Z" fill="#000000" fill-rule="nonzero" fill-opacity="1" /><path clip-path="url(#clip600)" d="M1313.58 27.2059 L1321.03 27.2059 L1321.03 72.576 L1313.58 72.576 L1313.58 27.2059 M1313.58 9.54393 L1321.03 9.54393 L1321.03 18.9825 L1313.58 18.9825 L1313.58 9.54393 Z" fill="#000000" fill-rule="nonzero" fill-opacity="1" /><path clip-path="url(#clip600)" d="M1365.55 28.5427 L1365.55 35.5912 Q1362.39 33.9709 1358.99 33.1607 Q1355.58 32.3505 1351.94 32.3505 Q1346.39 32.3505 1343.59 34.0519 Q1340.84 35.7533 1340.84 39.156 Q1340.84 41.7486 1342.82 43.2475 Q1344.81 44.7058 1350.8 46.0426 L1353.36 46.6097 Q1361.3 48.3111 1364.62 51.4303 Q1367.98 54.509 1367.98 60.0587 Q1367.98 66.3781 1362.96 70.0644 Q1357.97 73.7508 1349.22 73.7508 Q1345.58 73.7508 1341.61 73.0216 Q1337.68 72.3329 1333.3 70.9151 L1333.3 63.2184 Q1337.44 65.3654 1341.45 66.4591 Q1345.46 67.5124 1349.39 67.5124 Q1354.65 67.5124 1357.49 65.73 Q1360.32 63.9071 1360.32 60.6258 Q1360.32 57.5877 1358.26 55.9673 Q1356.23 54.3469 1349.31 52.8481 L1346.71 52.2405 Q1339.79 50.7821 1336.71 47.7845 Q1333.63 44.7463 1333.63 39.4801 Q1333.63 33.0797 1338.17 29.5959 Q1342.7 26.1121 1351.05 26.1121 Q1355.18 26.1121 1358.83 26.7198 Q1362.47 27.3274 1365.55 28.5427 Z" fill="#000000" fill-rule="nonzero" fill-opacity="1" /><path clip-path="url(#clip600)" d="M1397.43 32.4315 Q1391.43 32.4315 1387.95 37.1306 Q1384.47 41.7891 1384.47 49.9314 Q1384.47 58.0738 1387.91 62.7728 Q1391.39 67.4314 1397.43 67.4314 Q1403.39 67.4314 1406.87 62.7323 Q1410.35 58.0333 1410.35 49.9314 Q1410.35 41.8701 1406.87 37.1711 Q1403.39 32.4315 1397.43 32.4315 M1397.43 26.1121 Q1407.15 26.1121 1412.7 32.4315 Q1418.25 38.7509 1418.25 49.9314 Q1418.25 61.0714 1412.7 67.4314 Q1407.15 73.7508 1397.43 73.7508 Q1387.67 73.7508 1382.12 67.4314 Q1376.61 61.0714 1376.61 49.9314 Q1376.61 38.7509 1382.12 32.4315 Q1387.67 26.1121 1397.43 26.1121 Z" fill="#000000" fill-rule="nonzero" fill-opacity="1" /><path clip-path="url(#clip600)" d="M1468.32 45.1919 L1468.32 72.576 L1460.87 72.576 L1460.87 45.4349 Q1460.87 38.994 1458.36 35.7938 Q1455.84 32.5936 1450.82 32.5936 Q1444.79 32.5936 1441.3 36.4419 Q1437.82 40.2903 1437.82 46.9338 L1437.82 72.576 L1430.32 72.576 L1430.32 27.2059 L1437.82 27.2059 L1437.82 34.2544 Q1440.49 30.163 1444.1 28.1376 Q1447.74 26.1121 1452.48 26.1121 Q1460.3 26.1121 1464.31 30.9732 Q1468.32 35.7938 1468.32 45.1919 Z" fill="#000000" fill-rule="nonzero" fill-opacity="1" /><path clip-path="url(#clip600)" d="M1527.46 9.62495 Q1522.04 18.942 1519.4 28.0566 Q1516.77 37.1711 1516.77 46.5287 Q1516.77 55.8863 1519.4 65.0818 Q1522.08 74.2369 1527.46 83.5134 L1520.98 83.5134 Q1514.91 73.9938 1511.87 64.7983 Q1508.87 55.6027 1508.87 46.5287 Q1508.87 37.4952 1511.87 28.3401 Q1514.87 19.1851 1520.98 9.62495 L1527.46 9.62495 Z" fill="#000000" fill-rule="nonzero" fill-opacity="1" /><path clip-path="url(#clip600)" d="M1580.73 48.0275 L1580.73 51.6733 L1546.46 51.6733 Q1546.95 59.3701 1551.08 63.421 Q1555.25 67.4314 1562.67 67.4314 Q1566.96 67.4314 1570.97 66.3781 Q1575.02 65.3249 1578.99 63.2184 L1578.99 70.267 Q1574.98 71.9684 1570.77 72.8596 Q1566.56 73.7508 1562.22 73.7508 Q1551.36 73.7508 1545 67.4314 Q1538.69 61.1119 1538.69 50.3365 Q1538.69 39.1965 1544.68 32.6746 Q1550.72 26.1121 1560.92 26.1121 Q1570.08 26.1121 1575.39 32.0264 Q1580.73 37.9003 1580.73 48.0275 M1573.28 45.84 Q1573.2 39.7232 1569.84 36.0774 Q1566.52 32.4315 1561.01 32.4315 Q1554.77 32.4315 1551 35.9558 Q1547.27 39.4801 1546.71 45.8805 L1573.28 45.84 Z" fill="#000000" fill-rule="nonzero" fill-opacity="1" /><path clip-path="url(#clip600)" d="M1597.42 49.9314 Q1597.42 58.1548 1600.79 62.8538 Q1604.19 67.5124 1610.1 67.5124 Q1616.02 67.5124 1619.42 62.8538 Q1622.82 58.1548 1622.82 49.9314 Q1622.82 41.7081 1619.42 37.0496 Q1616.02 32.3505 1610.1 32.3505 Q1604.19 32.3505 1600.79 37.0496 Q1597.42 41.7081 1597.42 49.9314 M1622.82 65.7705 Q1620.47 69.8214 1616.87 71.8063 Q1613.3 73.7508 1608.28 73.7508 Q1600.06 73.7508 1594.87 67.1883 Q1589.73 60.6258 1589.73 49.9314 Q1589.73 39.2371 1594.87 32.6746 Q1600.06 26.1121 1608.28 26.1121 Q1613.3 26.1121 1616.87 28.0971 Q1620.47 30.0415 1622.82 34.0924 L1622.82 27.2059 L1630.28 27.2059 L1630.28 89.8329 L1622.82 89.8329 L1622.82 65.7705 Z" fill="#000000" fill-rule="nonzero" fill-opacity="1" /><path clip-path="url(#clip600)" d="M1644.86 54.671 L1644.86 27.2059 L1652.31 27.2059 L1652.31 54.3874 Q1652.31 60.8284 1654.82 64.0691 Q1657.34 67.2693 1662.36 67.2693 Q1668.4 67.2693 1671.88 63.421 Q1675.4 59.5726 1675.4 52.9291 L1675.4 27.2059 L1682.86 27.2059 L1682.86 72.576 L1675.4 72.576 L1675.4 65.6084 Q1672.69 69.7404 1669.08 71.7658 Q1665.52 73.7508 1660.78 73.7508 Q1652.96 73.7508 1648.91 68.8897 Q1644.86 64.0286 1644.86 54.671 M1663.62 26.1121 L1663.62 26.1121 Z" fill="#000000" fill-rule="nonzero" fill-opacity="1" /><path clip-path="url(#clip600)" d="M1718.83 49.7694 Q1709.8 49.7694 1706.31 51.8354 Q1702.83 53.9013 1702.83 58.8839 Q1702.83 62.8538 1705.42 65.2034 Q1708.05 67.5124 1712.55 67.5124 Q1718.75 67.5124 1722.47 63.1374 Q1726.24 58.7219 1726.24 51.4303 L1726.24 49.7694 L1718.83 49.7694 M1733.7 46.6907 L1733.7 72.576 L1726.24 72.576 L1726.24 65.6895 Q1723.69 69.8214 1719.88 71.8063 Q1716.07 73.7508 1710.57 73.7508 Q1703.6 73.7508 1699.47 69.8619 Q1695.37 65.9325 1695.37 59.3701 Q1695.37 51.7138 1700.48 47.825 Q1705.62 43.9361 1715.79 43.9361 L1726.24 43.9361 L1726.24 43.2069 Q1726.24 38.0623 1722.84 35.2672 Q1719.48 32.4315 1713.36 32.4315 Q1709.47 32.4315 1705.79 33.3632 Q1702.1 34.295 1698.7 36.1584 L1698.7 29.2718 Q1702.79 27.692 1706.64 26.9223 Q1710.48 26.1121 1714.13 26.1121 Q1723.97 26.1121 1728.83 31.2163 Q1733.7 36.3204 1733.7 46.6907 Z" fill="#000000" fill-rule="nonzero" fill-opacity="1" /><path clip-path="url(#clip600)" d="M1749.05 9.54393 L1756.5 9.54393 L1756.5 72.576 L1749.05 72.576 L1749.05 9.54393 Z" fill="#000000" fill-rule="nonzero" fill-opacity="1" /><path clip-path="url(#clip600)" d="M1772.1 27.2059 L1779.55 27.2059 L1779.55 72.576 L1772.1 72.576 L1772.1 27.2059 M1772.1 9.54393 L1779.55 9.54393 L1779.55 18.9825 L1772.1 18.9825 L1772.1 9.54393 Z" fill="#000000" fill-rule="nonzero" fill-opacity="1" /><path clip-path="url(#clip600)" d="M1802.52 14.324 L1802.52 27.2059 L1817.87 27.2059 L1817.87 32.9987 L1802.52 32.9987 L1802.52 57.6282 Q1802.52 63.1779 1804.02 64.7578 Q1805.56 66.3376 1810.22 66.3376 L1817.87 66.3376 L1817.87 72.576 L1810.22 72.576 Q1801.59 72.576 1798.31 69.3758 Q1795.03 66.1351 1795.03 57.6282 L1795.03 32.9987 L1789.56 32.9987 L1789.56 27.2059 L1795.03 27.2059 L1795.03 14.324 L1802.52 14.324 Z" fill="#000000" fill-rule="nonzero" fill-opacity="1" /><path clip-path="url(#clip600)" d="M1846.55 76.7889 Q1843.39 84.8907 1840.4 87.3618 Q1837.4 89.8329 1832.38 89.8329 L1826.42 89.8329 L1826.42 83.5945 L1830.8 83.5945 Q1833.87 83.5945 1835.58 82.1361 Q1837.28 80.6778 1839.34 75.2496 L1840.68 71.8468 L1822.33 27.2059 L1830.23 27.2059 L1844.41 62.6918 L1858.59 27.2059 L1866.48 27.2059 L1846.55 76.7889 Z" fill="#000000" fill-rule="nonzero" fill-opacity="1" /><path clip-path="url(#clip600)" d="M1911.25 86.3491 L1911.25 92.1419 L1868.15 92.1419 L1868.15 86.3491 L1911.25 86.3491 Z" fill="#000000" fill-rule="nonzero" fill-opacity="1" /><path clip-path="url(#clip600)" d="M1953.58 35.9153 Q1956.37 30.8922 1960.26 28.5022 Q1964.15 26.1121 1969.42 26.1121 Q1976.51 26.1121 1980.36 31.0947 Q1984.2 36.0368 1984.2 45.1919 L1984.2 72.576 L1976.71 72.576 L1976.71 45.4349 Q1976.71 38.913 1974.4 35.7533 Q1972.09 32.5936 1967.35 32.5936 Q1961.56 32.5936 1958.2 36.4419 Q1954.83 40.2903 1954.83 46.9338 L1954.83 72.576 L1947.34 72.576 L1947.34 45.4349 Q1947.34 38.8725 1945.03 35.7533 Q1942.72 32.5936 1937.9 32.5936 Q1932.19 32.5936 1928.83 36.4824 Q1925.47 40.3308 1925.47 46.9338 L1925.47 72.576 L1917.97 72.576 L1917.97 27.2059 L1925.47 27.2059 L1925.47 34.2544 Q1928.02 30.082 1931.58 28.0971 Q1935.15 26.1121 1940.05 26.1121 Q1944.99 26.1121 1948.43 28.6237 Q1951.92 31.1352 1953.58 35.9153 Z" fill="#000000" fill-rule="nonzero" fill-opacity="1" /><path clip-path="url(#clip600)" d="M1999.07 27.2059 L2006.52 27.2059 L2006.52 72.576 L1999.07 72.576 L1999.07 27.2059 M1999.07 9.54393 L2006.52 9.54393 L2006.52 18.9825 L1999.07 18.9825 L1999.07 9.54393 Z" fill="#000000" fill-rule="nonzero" fill-opacity="1" /><path clip-path="url(#clip600)" d="M2059.83 45.1919 L2059.83 72.576 L2052.38 72.576 L2052.38 45.4349 Q2052.38 38.994 2049.87 35.7938 Q2047.36 32.5936 2042.33 32.5936 Q2036.3 32.5936 2032.81 36.4419 Q2029.33 40.2903 2029.33 46.9338 L2029.33 72.576 L2021.84 72.576 L2021.84 27.2059 L2029.33 27.2059 L2029.33 34.2544 Q2032 30.163 2035.61 28.1376 Q2039.26 26.1121 2044 26.1121 Q2051.81 26.1121 2055.82 30.9732 Q2059.83 35.7938 2059.83 45.1919 Z" fill="#000000" fill-rule="nonzero" fill-opacity="1" /><path clip-path="url(#clip600)" d="M2073.53 9.62495 L2080.01 9.62495 Q2086.08 19.1851 2089.08 28.3401 Q2092.12 37.4952 2092.12 46.5287 Q2092.12 55.6027 2089.08 64.7983 Q2086.08 73.9938 2080.01 83.5134 L2073.53 83.5134 Q2078.91 74.2369 2081.55 65.0818 Q2084.22 55.8863 2084.22 46.5287 Q2084.22 37.1711 2081.55 28.0566 Q2078.91 18.942 2073.53 9.62495 Z" fill="#000000" fill-rule="nonzero" fill-opacity="1" /><path clip-path="url(#clip602)" d="M327.887 1402.4 L316.575 1397.71 L311.887 1386.4 L316.575 1375.08 L327.887 1370.4 L339.199 1375.08 L343.887 1386.4 L339.199 1397.71 Z" fill="#009af9" fill-rule="evenodd" fill-opacity="1" stroke="#000000" stroke-opacity="1" stroke-width="3.2"/>
<path clip-path="url(#clip602)" d="M523.468 176.256 L512.156 171.568 L507.468 160.256 L512.156 148.944 L523.468 144.256 L534.78 148.944 L539.468 160.256 L534.78 171.568 Z" fill="#009af9" fill-rule="evenodd" fill-opacity="1" stroke="#000000" stroke-opacity="1" stroke-width="3.2"/>
<path clip-path="url(#clip602)" d="M446.712 1326.32 L435.4 1321.63 L430.712 1310.32 L435.4 1299.01 L446.712 1294.32 L458.024 1299.01 L462.712 1310.32 L458.024 1321.63 Z" fill="#009af9" fill-rule="evenodd" fill-opacity="1" stroke="#000000" stroke-opacity="1" stroke-width="3.2"/>
<path clip-path="url(#clip602)" d="M510.195 233.293 L498.883 228.605 L494.195 217.293 L498.883 205.981 L510.195 201.293 L521.507 205.981 L526.195 217.293 L521.507 228.605 Z" fill="#009af9" fill-rule="evenodd" fill-opacity="1" stroke="#000000" stroke-opacity="1" stroke-width="3.2"/>
<path clip-path="url(#clip602)" d="M446.694 1326.33 L435.382 1321.64 L430.694 1310.33 L435.382 1299.02 L446.694 1294.33 L458.006 1299.02 L462.694 1310.33 L458.006 1321.64 Z" fill="#009af9" fill-rule="evenodd" fill-opacity="1" stroke="#000000" stroke-opacity="1" stroke-width="3.2"/>
<path clip-path="url(#clip602)" d="M510.073 241.262 L498.761 236.574 L494.073 225.262 L498.761 213.95 L510.073 209.262 L521.385 213.95 L526.073 225.262 L521.385 236.574 Z" fill="#009af9" fill-rule="evenodd" fill-opacity="1" stroke="#000000" stroke-opacity="1" stroke-width="3.2"/>
<path clip-path="url(#clip602)" d="M446.693 1326.33 L435.381 1321.64 L430.693 1310.33 L435.381 1299.02 L446.693 1294.33 L458.005 1299.02 L462.693 1310.33 L458.005 1321.64 Z" fill="#009af9" fill-rule="evenodd" fill-opacity="1" stroke="#000000" stroke-opacity="1" stroke-width="3.2"/>
<path clip-path="url(#clip602)" d="M511.843 239.592 L500.531 234.904 L495.843 223.592 L500.531 212.28 L511.843 207.592 L523.155 212.28 L527.843 223.592 L523.155 234.904 Z" fill="#009af9" fill-rule="evenodd" fill-opacity="1" stroke="#000000" stroke-opacity="1" stroke-width="3.2"/>
<path clip-path="url(#clip602)" d="M571.583 1248.57 L560.271 1243.88 L555.583 1232.57 L560.271 1221.25 L571.583 1216.57 L582.895 1221.25 L587.583 1232.57 L582.895 1243.88 Z" fill="#009af9" fill-rule="evenodd" fill-opacity="1" stroke="#000000" stroke-opacity="1" stroke-width="3.2"/>
<path clip-path="url(#clip602)" d="M575.811 1245.92 L564.499 1241.24 L559.811 1229.92 L564.499 1218.61 L575.811 1213.92 L587.123 1218.61 L591.811 1229.92 L587.123 1241.24 Z" fill="#009af9" fill-rule="evenodd" fill-opacity="1" stroke="#000000" stroke-opacity="1" stroke-width="3.2"/>
<polyline clip-path="url(#clip602)" style="stroke:#ff0000; stroke-linecap:round; stroke-linejoin:round; stroke-width:4; stroke-opacity:1; fill:none" stroke-dasharray="16, 10" points="324.52,1386.4 344.41,1374.01 364.301,1361.63 384.191,1349.24 404.082,1336.85 423.972,1324.47 443.863,1312.08 463.753,1299.7 483.644,1287.31 503.534,1274.93 523.425,1262.54 543.315,1250.16 563.206,1237.77 583.096,1225.39 602.987,1213 622.877,1200.62 642.768,1188.23 662.658,1175.85 682.549,1163.46 702.439,1151.08 722.33,1138.69 742.22,1126.31 762.111,1113.92 782.002,1101.54 801.892,1089.15 821.783,1076.76 841.673,1064.38 861.564,1051.99 881.454,1039.61 901.345,1027.22 921.235,1014.84 941.126,1002.45 961.016,990.068 980.907,977.683 1000.8,965.297 1020.69,952.912 1040.58,940.527 1060.47,928.142 1080.36,915.756 1100.25,903.371 1120.14,890.986 1140.03,878.601 1159.92,866.215 1179.81,853.83 1199.7,841.445 1219.59,829.06 1239.48,816.674 1259.37,804.289 1279.26,791.904 1299.16,779.519 1319.05,767.133 1338.94,754.748 1358.83,742.363 1378.72,729.978 1398.61,717.592 1418.5,705.207 1438.39,692.822 1458.28,680.437 1478.17,668.051 1498.06,655.666 1517.95,643.281 1537.84,630.896 1557.73,618.51 1577.62,606.125 1597.51,593.74 1617.4,581.355 1637.29,568.969 1657.18,556.584 1677.07,544.199 1696.97,531.814 1716.86,519.428 1736.75,507.043 1756.64,494.658 1776.53,482.273 1796.42,469.887 1816.31,457.502 1836.2,445.117 1856.09,432.732 1875.98,420.346 1895.87,407.961 1915.76,395.576 1935.65,383.191 1955.54,370.805 1975.43,358.42 1995.32,346.035 2015.21,333.65 2035.1,321.265 2054.99,308.879 2074.89,296.494 2094.78,284.109 2114.67,271.724 2134.56,259.338 2154.45,246.953 2174.34,234.568 2194.23,222.183 2214.12,209.797 2234.01,197.412 2253.9,185.027 2273.79,172.642 2293.68,160.256 "/>
<path clip-path="url(#clip600)" d="M1882.04 1379.86 L2283.18 1379.86 L2283.18 1224.34 L1882.04 1224.34  Z" fill="#ffffff" fill-rule="evenodd" fill-opacity="1"/>
<polyline clip-path="url(#clip600)" style="stroke:#000000; stroke-linecap:round; stroke-linejoin:round; stroke-width:4; stroke-opacity:1; fill:none" points="1882.04,1379.86 2283.18,1379.86 2283.18,1224.34 1882.04,1224.34 1882.04,1379.86 "/>
<path clip-path="url(#clip600)" d="M1974.81 1298.93 L1958.72 1292.26 L1952.06 1276.18 L1958.72 1260.09 L1974.81 1253.42 L1990.9 1260.09 L1997.57 1276.18 L1990.9 1292.26 Z" fill="#009af9" fill-rule="evenodd" fill-opacity="1" stroke="#000000" stroke-opacity="1" stroke-width="4.55111"/>
<path clip-path="url(#clip600)" d="M2067.58 1258.9 L2072.26 1258.9 L2072.26 1293.46 L2067.58 1293.46 L2067.58 1258.9 Z" fill="#000000" fill-rule="nonzero" fill-opacity="1" /><path clip-path="url(#clip600)" d="M2085.59 1260.17 L2085.59 1267.53 L2094.36 1267.53 L2094.36 1270.84 L2085.59 1270.84 L2085.59 1284.91 Q2085.59 1288.09 2086.45 1288.99 Q2087.33 1289.89 2089.99 1289.89 L2094.36 1289.89 L2094.36 1293.46 L2089.99 1293.46 Q2085.06 1293.46 2083.18 1291.63 Q2081.31 1289.78 2081.31 1284.91 L2081.31 1270.84 L2078.18 1270.84 L2078.18 1267.53 L2081.31 1267.53 L2081.31 1260.17 L2085.59 1260.17 Z" fill="#000000" fill-rule="nonzero" fill-opacity="1" /><path clip-path="url(#clip600)" d="M2122.14 1279.43 L2122.14 1281.51 L2102.56 1281.51 Q2102.83 1285.91 2105.2 1288.22 Q2107.58 1290.52 2111.82 1290.52 Q2114.27 1290.52 2116.56 1289.91 Q2118.88 1289.31 2121.14 1288.11 L2121.14 1292.14 Q2118.85 1293.11 2116.45 1293.62 Q2114.04 1294.13 2111.56 1294.13 Q2105.36 1294.13 2101.72 1290.52 Q2098.11 1286.91 2098.11 1280.75 Q2098.11 1274.38 2101.54 1270.66 Q2104.99 1266.91 2110.82 1266.91 Q2116.05 1266.91 2119.08 1270.29 Q2122.14 1273.64 2122.14 1279.43 M2117.88 1278.18 Q2117.83 1274.68 2115.91 1272.6 Q2114.02 1270.52 2110.87 1270.52 Q2107.3 1270.52 2105.15 1272.53 Q2103.02 1274.54 2102.7 1278.2 L2117.88 1278.18 Z" fill="#000000" fill-rule="nonzero" fill-opacity="1" /><path clip-path="url(#clip600)" d="M2144.15 1271.51 Q2143.44 1271.1 2142.58 1270.91 Q2141.75 1270.7 2140.73 1270.7 Q2137.12 1270.7 2135.17 1273.06 Q2133.25 1275.4 2133.25 1279.8 L2133.25 1293.46 L2128.97 1293.46 L2128.97 1267.53 L2133.25 1267.53 L2133.25 1271.56 Q2134.59 1269.2 2136.75 1268.06 Q2138.9 1266.91 2141.98 1266.91 Q2142.42 1266.91 2142.95 1266.97 Q2143.48 1267.02 2144.13 1267.14 L2144.15 1271.51 Z" fill="#000000" fill-rule="nonzero" fill-opacity="1" /><path clip-path="url(#clip600)" d="M2160.4 1280.42 Q2155.24 1280.42 2153.25 1281.6 Q2151.26 1282.79 2151.26 1285.63 Q2151.26 1287.9 2152.74 1289.24 Q2154.25 1290.56 2156.82 1290.56 Q2160.36 1290.56 2162.49 1288.06 Q2164.64 1285.54 2164.64 1281.37 L2164.64 1280.42 L2160.4 1280.42 M2168.9 1278.66 L2168.9 1293.46 L2164.64 1293.46 L2164.64 1289.52 Q2163.18 1291.88 2161.01 1293.02 Q2158.83 1294.13 2155.68 1294.13 Q2151.7 1294.13 2149.34 1291.91 Q2147 1289.66 2147 1285.91 Q2147 1281.54 2149.92 1279.31 Q2152.86 1277.09 2158.67 1277.09 L2164.64 1277.09 L2164.64 1276.67 Q2164.64 1273.73 2162.7 1272.14 Q2160.77 1270.52 2157.28 1270.52 Q2155.06 1270.52 2152.95 1271.05 Q2150.84 1271.58 2148.9 1272.65 L2148.9 1268.71 Q2151.24 1267.81 2153.44 1267.37 Q2155.64 1266.91 2157.72 1266.91 Q2163.34 1266.91 2166.12 1269.82 Q2168.9 1272.74 2168.9 1278.66 Z" fill="#000000" fill-rule="nonzero" fill-opacity="1" /><path clip-path="url(#clip600)" d="M2181.89 1260.17 L2181.89 1267.53 L2190.66 1267.53 L2190.66 1270.84 L2181.89 1270.84 L2181.89 1284.91 Q2181.89 1288.09 2182.74 1288.99 Q2183.62 1289.89 2186.28 1289.89 L2190.66 1289.89 L2190.66 1293.46 L2186.28 1293.46 Q2181.35 1293.46 2179.48 1291.63 Q2177.6 1289.78 2177.6 1284.91 L2177.6 1270.84 L2174.48 1270.84 L2174.48 1267.53 L2177.6 1267.53 L2177.6 1260.17 L2181.89 1260.17 Z" fill="#000000" fill-rule="nonzero" fill-opacity="1" /><path clip-path="url(#clip600)" d="M2196.26 1267.53 L2200.52 1267.53 L2200.52 1293.46 L2196.26 1293.46 L2196.26 1267.53 M2196.26 1257.44 L2200.52 1257.44 L2200.52 1262.83 L2196.26 1262.83 L2196.26 1257.44 Z" fill="#000000" fill-rule="nonzero" fill-opacity="1" /><path clip-path="url(#clip600)" d="M2219.48 1270.52 Q2216.05 1270.52 2214.06 1273.2 Q2212.07 1275.86 2212.07 1280.52 Q2212.07 1285.17 2214.04 1287.85 Q2216.03 1290.52 2219.48 1290.52 Q2222.88 1290.52 2224.87 1287.83 Q2226.86 1285.15 2226.86 1280.52 Q2226.86 1275.91 2224.87 1273.22 Q2222.88 1270.52 2219.48 1270.52 M2219.48 1266.91 Q2225.03 1266.91 2228.2 1270.52 Q2231.38 1274.13 2231.38 1280.52 Q2231.38 1286.88 2228.2 1290.52 Q2225.03 1294.13 2219.48 1294.13 Q2213.9 1294.13 2210.73 1290.52 Q2207.58 1286.88 2207.58 1280.52 Q2207.58 1274.13 2210.73 1270.52 Q2213.9 1266.91 2219.48 1266.91 Z" fill="#000000" fill-rule="nonzero" fill-opacity="1" /><path clip-path="url(#clip600)" d="M2259.99 1277.81 L2259.99 1293.46 L2255.73 1293.46 L2255.73 1277.95 Q2255.73 1274.27 2254.29 1272.44 Q2252.86 1270.61 2249.99 1270.61 Q2246.54 1270.61 2244.55 1272.81 Q2242.56 1275.01 2242.56 1278.8 L2242.56 1293.46 L2238.27 1293.46 L2238.27 1267.53 L2242.56 1267.53 L2242.56 1271.56 Q2244.08 1269.22 2246.14 1268.06 Q2248.23 1266.91 2250.94 1266.91 Q2255.4 1266.91 2257.69 1269.68 Q2259.99 1272.44 2259.99 1277.81 Z" fill="#000000" fill-rule="nonzero" fill-opacity="1" /><polyline clip-path="url(#clip600)" style="stroke:#ff0000; stroke-linecap:round; stroke-linejoin:round; stroke-width:4; stroke-opacity:1; fill:none" stroke-dasharray="16, 10" points="1905.23,1328.02 2044.39,1328.02 "/>
<path clip-path="url(#clip600)" d="M2081.42 1347.7 Q2079.62 1352.33 2077.9 1353.75 Q2076.19 1355.16 2073.32 1355.16 L2069.92 1355.16 L2069.92 1351.59 L2072.42 1351.59 Q2074.18 1351.59 2075.15 1350.76 Q2076.12 1349.93 2077.3 1346.82 L2078.07 1344.88 L2067.58 1319.37 L2072.09 1319.37 L2080.2 1339.65 L2088.3 1319.37 L2092.81 1319.37 L2081.42 1347.7 Z" fill="#000000" fill-rule="nonzero" fill-opacity="1" /><path clip-path="url(#clip600)" d="M2099.25 1323.77 L2128.92 1323.77 L2128.92 1327.66 L2099.25 1327.66 L2099.25 1323.77 M2099.25 1333.21 L2128.92 1333.21 L2128.92 1337.15 L2099.25 1337.15 L2099.25 1333.21 Z" fill="#000000" fill-rule="nonzero" fill-opacity="1" /><path clip-path="url(#clip600)" d="M2159.96 1319.37 L2150.59 1331.99 L2160.45 1345.3 L2155.43 1345.3 L2147.88 1335.11 L2140.33 1345.3 L2135.31 1345.3 L2145.38 1331.73 L2136.17 1319.37 L2141.19 1319.37 L2148.07 1328.61 L2154.94 1319.37 L2159.96 1319.37 Z" fill="#000000" fill-rule="nonzero" fill-opacity="1" /><path clip-path="url(#clip600)" d="M330.404 1436.44 L359.05 1436.44 L359.05 1337.57 L327.887 1343.82 L327.887 1327.85 L358.876 1321.6 L376.411 1321.6 L376.411 1436.44 L405.056 1436.44 L405.056 1451.2 L330.404 1451.2 L330.404 1436.44 Z" fill="#008000" fill-rule="nonzero" fill-opacity="1" /><path clip-path="url(#clip600)" d="M544.562 210.299 L605.759 210.299 L605.759 225.056 L523.468 225.056 L523.468 210.299 Q533.451 199.97 550.638 182.609 Q567.912 165.161 572.339 160.126 Q580.76 150.664 584.058 144.154 Q587.444 137.557 587.444 131.22 Q587.444 120.89 580.152 114.38 Q572.947 107.869 561.315 107.869 Q553.069 107.869 543.867 110.734 Q534.753 113.599 524.336 119.415 L524.336 101.706 Q534.926 97.4528 544.128 95.2827 Q553.329 93.1126 560.968 93.1126 Q581.107 93.1126 593.086 103.182 Q605.065 113.251 605.065 130.092 Q605.065 138.078 602.027 145.282 Q599.075 152.4 591.176 162.123 Q589.006 164.64 577.374 176.706 Q565.742 188.685 544.562 210.299 Z" fill="#008000" fill-rule="nonzero" fill-opacity="1" /><path clip-path="url(#clip600)" d="M505.305 1305.24 Q517.892 1307.93 524.923 1316.44 Q532.041 1324.95 532.041 1337.45 Q532.041 1356.63 518.847 1367.13 Q505.652 1377.64 481.347 1377.64 Q473.187 1377.64 464.507 1375.99 Q455.913 1374.42 446.712 1371.21 L446.712 1354.29 Q454.003 1358.54 462.684 1360.71 Q471.364 1362.88 480.826 1362.88 Q497.319 1362.88 505.913 1356.37 Q514.593 1349.86 514.593 1337.45 Q514.593 1325.99 506.52 1319.56 Q498.534 1313.05 484.211 1313.05 L469.107 1313.05 L469.107 1298.64 L484.906 1298.64 Q497.84 1298.64 504.697 1293.52 Q511.555 1288.31 511.555 1278.59 Q511.555 1268.61 504.437 1263.31 Q497.406 1257.93 484.211 1257.93 Q477.006 1257.93 468.76 1259.49 Q460.514 1261.06 450.618 1264.36 L450.618 1248.73 Q460.6 1245.95 469.281 1244.56 Q478.048 1243.18 485.774 1243.18 Q505.739 1243.18 517.371 1252.29 Q529.003 1261.32 529.003 1276.77 Q529.003 1287.53 522.84 1295 Q516.676 1302.38 505.305 1305.24 Z" fill="#008000" fill-rule="nonzero" fill-opacity="1" /><path clip-path="url(#clip600)" d="M568.702 167.771 L524.431 236.955 L568.702 236.955 L568.702 167.771 M564.101 152.493 L586.15 152.493 L586.15 236.955 L604.639 236.955 L604.639 251.538 L586.15 251.538 L586.15 282.093 L568.702 282.093 L568.702 251.538 L510.195 251.538 L510.195 234.611 L564.101 152.493 Z" fill="#008000" fill-rule="nonzero" fill-opacity="1" /><path clip-path="url(#clip600)" d="M452.162 1245.53 L520.999 1245.53 L520.999 1260.29 L468.221 1260.29 L468.221 1292.06 Q472.041 1290.75 475.86 1290.15 Q479.68 1289.45 483.499 1289.45 Q505.2 1289.45 517.874 1301.34 Q530.547 1313.24 530.547 1333.55 Q530.547 1354.47 517.527 1366.1 Q504.506 1377.65 480.808 1377.65 Q472.648 1377.65 464.141 1376.26 Q455.721 1374.87 446.694 1372.09 L446.694 1354.47 Q454.506 1358.72 462.839 1360.81 Q471.173 1362.89 480.461 1362.89 Q495.478 1362.89 504.245 1354.99 Q513.013 1347.09 513.013 1333.55 Q513.013 1320.01 504.245 1312.11 Q495.478 1304.21 480.461 1304.21 Q473.43 1304.21 466.398 1305.77 Q459.454 1307.33 452.162 1310.63 L452.162 1245.53 Z" fill="#008000" fill-rule="nonzero" fill-opacity="1" /><path clip-path="url(#clip600)" d="M556.34 218.274 Q544.534 218.274 537.59 226.347 Q530.732 234.42 530.732 248.482 Q530.732 262.458 537.59 270.618 Q544.534 278.69 556.34 278.69 Q568.145 278.69 575.003 270.618 Q581.947 262.458 581.947 248.482 Q581.947 234.42 575.003 226.347 Q568.145 218.274 556.34 218.274 M591.149 163.326 L591.149 179.299 Q584.551 176.174 577.781 174.524 Q571.097 172.875 564.499 172.875 Q547.138 172.875 537.937 184.594 Q528.823 196.312 527.521 220.01 Q532.642 212.458 540.368 208.465 Q548.093 204.385 557.381 204.385 Q576.913 204.385 588.197 216.278 Q599.569 228.083 599.569 248.482 Q599.569 268.447 587.763 280.513 Q575.958 292.579 556.34 292.579 Q533.857 292.579 521.965 275.392 Q510.073 258.118 510.073 225.392 Q510.073 194.663 524.656 176.434 Q539.239 158.118 563.805 158.118 Q570.402 158.118 577.086 159.42 Q583.857 160.722 591.149 163.326 Z" fill="#008000" fill-rule="nonzero" fill-opacity="1" /><path clip-path="url(#clip600)" d="M446.693 1245.53 L530.026 1245.53 L530.026 1253 L482.978 1375.13 L464.662 1375.13 L508.932 1260.29 L446.693 1260.29 L446.693 1245.53 Z" fill="#008000" fill-rule="nonzero" fill-opacity="1" /><path clip-path="url(#clip600)" d="M556.287 226.847 Q543.787 226.847 536.582 233.531 Q529.464 240.215 529.464 251.934 Q529.464 263.653 536.582 270.337 Q543.787 277.021 556.287 277.021 Q568.787 277.021 575.992 270.337 Q583.196 263.566 583.196 251.934 Q583.196 240.215 575.992 233.531 Q568.874 226.847 556.287 226.847 M538.752 219.382 Q527.468 216.604 521.131 208.879 Q514.881 201.153 514.881 190.042 Q514.881 174.504 525.905 165.476 Q537.016 156.448 556.287 156.448 Q575.644 156.448 586.669 165.476 Q597.693 174.504 597.693 190.042 Q597.693 201.153 591.356 208.879 Q585.106 216.604 573.908 219.382 Q586.582 222.333 593.613 230.927 Q600.731 239.521 600.731 251.934 Q600.731 270.771 589.186 280.84 Q577.728 290.909 556.287 290.909 Q534.846 290.909 523.301 280.84 Q511.843 270.771 511.843 251.934 Q511.843 239.521 518.961 230.927 Q526.079 222.333 538.752 219.382 M532.329 191.691 Q532.329 201.761 538.579 207.403 Q544.915 213.045 556.287 213.045 Q567.572 213.045 573.908 207.403 Q580.332 201.761 580.332 191.691 Q580.332 181.622 573.908 175.979 Q567.572 170.337 556.287 170.337 Q544.915 170.337 538.579 175.979 Q532.329 181.622 532.329 191.691 Z" fill="#008000" fill-rule="nonzero" fill-opacity="1" /><path clip-path="url(#clip600)" d="M579.916 1294.68 L579.916 1278.7 Q586.513 1281.83 593.284 1283.48 Q600.055 1285.13 606.565 1285.13 Q623.926 1285.13 633.041 1273.5 Q642.242 1261.78 643.544 1237.99 Q638.51 1245.46 630.784 1249.45 Q623.058 1253.44 613.683 1253.44 Q594.239 1253.44 582.868 1241.72 Q571.583 1229.92 571.583 1209.52 Q571.583 1189.55 583.388 1177.49 Q595.194 1165.42 614.812 1165.42 Q637.294 1165.42 649.1 1182.7 Q660.992 1199.88 660.992 1232.7 Q660.992 1263.34 646.409 1281.65 Q631.913 1299.88 607.347 1299.88 Q600.749 1299.88 593.979 1298.58 Q587.208 1297.28 579.916 1294.68 M614.812 1239.73 Q626.617 1239.73 633.475 1231.66 Q640.419 1223.58 640.419 1209.52 Q640.419 1195.54 633.475 1187.47 Q626.617 1179.31 614.812 1179.31 Q603.006 1179.31 596.062 1187.47 Q589.204 1195.54 589.204 1209.52 Q589.204 1223.58 596.062 1231.66 Q603.006 1239.73 614.812 1239.73 Z" fill="#008000" fill-rule="nonzero" fill-opacity="1" /><path clip-path="url(#clip600)" d="M578.328 1279.97 L606.974 1279.97 L606.974 1181.1 L575.811 1187.35 L575.811 1171.37 L606.8 1165.12 L624.335 1165.12 L624.335 1279.97 L652.98 1279.97 L652.98 1294.72 L578.328 1294.72 L578.328 1279.97 Z" fill="#008000" fill-rule="nonzero" fill-opacity="1" /><path clip-path="url(#clip600)" d="M725.897 1176.67 Q712.355 1176.67 705.498 1190.04 Q698.727 1203.32 698.727 1230.05 Q698.727 1256.7 705.498 1270.07 Q712.355 1283.35 725.897 1283.35 Q739.525 1283.35 746.296 1270.07 Q753.154 1256.7 753.154 1230.05 Q753.154 1203.32 746.296 1190.04 Q739.525 1176.67 725.897 1176.67 M725.897 1162.78 Q747.685 1162.78 759.143 1180.05 Q770.688 1197.24 770.688 1230.05 Q770.688 1262.78 759.143 1280.05 Q747.685 1297.24 725.897 1297.24 Q704.109 1297.24 692.564 1280.05 Q681.105 1262.78 681.105 1230.05 Q681.105 1197.24 692.564 1180.05 Q704.109 1162.78 725.897 1162.78 Z" fill="#008000" fill-rule="nonzero" fill-opacity="1" /></svg>
