<?xml version="1.0" encoding="utf-8"?>
<svg xmlns="http://www.w3.org/2000/svg" xmlns:xlink="http://www.w3.org/1999/xlink" width="600" height="400" viewBox="0 0 2400 1600">
<defs>
  <clipPath id="clip690">
    <rect x="0" y="0" width="2400" height="1600"/>
  </clipPath>
</defs>
<path clip-path="url(#clip690)" d="M0 1600 L2400 1600 L2400 0 L0 0  Z" fill="#ffffff" fill-rule="evenodd" fill-opacity="1"/>
<defs>
  <clipPath id="clip691">
    <rect x="480" y="0" width="1681" height="1600"/>
  </clipPath>
</defs>
<path clip-path="url(#clip690)" d="M368.106 1423.18 L2352.76 1423.18 L2352.76 123.472 L368.106 123.472  Z" fill="#ffffff" fill-rule="evenodd" fill-opacity="1"/>
<defs>
  <clipPath id="clip692">
    <rect x="368" y="123" width="1986" height="1301"/>
  </clipPath>
</defs>
<polyline clip-path="url(#clip692)" style="stroke:#000000; stroke-linecap:round; stroke-linejoin:round; stroke-width:2; stroke-opacity:0.1; fill:none" points="632.31,1423.18 632.31,123.472 "/>
<polyline clip-path="url(#clip692)" style="stroke:#000000; stroke-linecap:round; stroke-linejoin:round; stroke-width:2; stroke-opacity:0.1; fill:none" points="1048.38,1423.18 1048.38,123.472 "/>
<polyline clip-path="url(#clip692)" style="stroke:#000000; stroke-linecap:round; stroke-linejoin:round; stroke-width:2; stroke-opacity:0.1; fill:none" points="1464.45,1423.18 1464.45,123.472 "/>
<polyline clip-path="url(#clip692)" style="stroke:#000000; stroke-linecap:round; stroke-linejoin:round; stroke-width:2; stroke-opacity:0.1; fill:none" points="1880.52,1423.18 1880.52,123.472 "/>
<polyline clip-path="url(#clip692)" style="stroke:#000000; stroke-linecap:round; stroke-linejoin:round; stroke-width:2; stroke-opacity:0.1; fill:none" points="2296.59,1423.18 2296.59,123.472 "/>
<polyline clip-path="url(#clip692)" style="stroke:#000000; stroke-linecap:round; stroke-linejoin:round; stroke-width:2; stroke-opacity:0.1; fill:none" points="368.106,1215.63 2352.76,1215.63 "/>
<polyline clip-path="url(#clip692)" style="stroke:#000000; stroke-linecap:round; stroke-linejoin:round; stroke-width:2; stroke-opacity:0.1; fill:none" points="368.106,941.064 2352.76,941.064 "/>
<polyline clip-path="url(#clip692)" style="stroke:#000000; stroke-linecap:round; stroke-linejoin:round; stroke-width:2; stroke-opacity:0.1; fill:none" points="368.106,666.503 2352.76,666.503 "/>
<polyline clip-path="url(#clip692)" style="stroke:#000000; stroke-linecap:round; stroke-linejoin:round; stroke-width:2; stroke-opacity:0.1; fill:none" points="368.106,391.942 2352.76,391.942 "/>
<polyline clip-path="url(#clip690)" style="stroke:#000000; stroke-linecap:round; stroke-linejoin:round; stroke-width:4; stroke-opacity:1; fill:none" points="368.106,1423.18 2352.76,1423.18 "/>
<polyline clip-path="url(#clip690)" style="stroke:#000000; stroke-linecap:round; stroke-linejoin:round; stroke-width:4; stroke-opacity:1; fill:none" points="632.31,1423.18 632.31,1404.28 "/>
<polyline clip-path="url(#clip690)" style="stroke:#000000; stroke-linecap:round; stroke-linejoin:round; stroke-width:4; stroke-opacity:1; fill:none" points="1048.38,1423.18 1048.38,1404.28 "/>
<polyline clip-path="url(#clip690)" style="stroke:#000000; stroke-linecap:round; stroke-linejoin:round; stroke-width:4; stroke-opacity:1; fill:none" points="1464.45,1423.18 1464.45,1404.28 "/>
<polyline clip-path="url(#clip690)" style="stroke:#000000; stroke-linecap:round; stroke-linejoin:round; stroke-width:4; stroke-opacity:1; fill:none" points="1880.52,1423.18 1880.52,1404.28 "/>
<polyline clip-path="url(#clip690)" style="stroke:#000000; stroke-linecap:round; stroke-linejoin:round; stroke-width:4; stroke-opacity:1; fill:none" points="2296.59,1423.18 2296.59,1404.28 "/>
<path clip-path="url(#clip690)" d="M626.963 1481.64 L643.282 1481.64 L643.282 1485.58 L621.338 1485.58 L621.338 1481.64 Q624 1478.89 628.583 1474.26 Q633.19 1469.61 634.37 1468.27 Q636.616 1465.74 637.495 1464.01 Q638.398 1462.25 638.398 1460.56 Q638.398 1457.8 636.454 1456.07 Q634.532 1454.33 631.43 1454.33 Q629.231 1454.33 626.778 1455.09 Q624.347 1455.86 621.569 1457.41 L621.569 1452.69 Q624.393 1451.55 626.847 1450.97 Q629.301 1450.39 631.338 1450.39 Q636.708 1450.39 639.903 1453.08 Q643.097 1455.77 643.097 1460.26 Q643.097 1462.39 642.287 1464.31 Q641.5 1466.2 639.393 1468.8 Q638.815 1469.47 635.713 1472.69 Q632.611 1475.88 626.963 1481.64 Z" fill="#000000" fill-rule="nonzero" fill-opacity="1" /><path clip-path="url(#clip690)" d="M1051.39 1455.09 L1039.58 1473.54 L1051.39 1473.54 L1051.39 1455.09 M1050.16 1451.02 L1056.04 1451.02 L1056.04 1473.54 L1060.97 1473.54 L1060.97 1477.43 L1056.04 1477.43 L1056.04 1485.58 L1051.39 1485.58 L1051.39 1477.43 L1035.79 1477.43 L1035.79 1472.92 L1050.16 1451.02 Z" fill="#000000" fill-rule="nonzero" fill-opacity="1" /><path clip-path="url(#clip690)" d="M1464.85 1466.44 Q1461.71 1466.44 1459.85 1468.59 Q1458.02 1470.74 1458.02 1474.49 Q1458.02 1478.22 1459.85 1480.39 Q1461.71 1482.55 1464.85 1482.55 Q1468 1482.55 1469.83 1480.39 Q1471.68 1478.22 1471.68 1474.49 Q1471.68 1470.74 1469.83 1468.59 Q1468 1466.44 1464.85 1466.44 M1474.14 1451.78 L1474.14 1456.04 Q1472.38 1455.21 1470.57 1454.77 Q1468.79 1454.33 1467.03 1454.33 Q1462.4 1454.33 1459.95 1457.45 Q1457.52 1460.58 1457.17 1466.9 Q1458.53 1464.89 1460.59 1463.82 Q1462.65 1462.73 1465.13 1462.73 Q1470.34 1462.73 1473.35 1465.9 Q1476.38 1469.05 1476.38 1474.49 Q1476.38 1479.82 1473.23 1483.03 Q1470.08 1486.25 1464.85 1486.25 Q1458.86 1486.25 1455.69 1481.67 Q1452.52 1477.06 1452.52 1468.33 Q1452.52 1460.14 1456.4 1455.28 Q1460.29 1450.39 1466.84 1450.39 Q1468.6 1450.39 1470.39 1450.74 Q1472.19 1451.09 1474.14 1451.78 Z" fill="#000000" fill-rule="nonzero" fill-opacity="1" /><path clip-path="url(#clip690)" d="M1880.52 1469.17 Q1877.18 1469.17 1875.26 1470.95 Q1873.36 1472.73 1873.36 1475.86 Q1873.36 1478.98 1875.26 1480.77 Q1877.18 1482.55 1880.52 1482.55 Q1883.85 1482.55 1885.77 1480.77 Q1887.69 1478.96 1887.69 1475.86 Q1887.69 1472.73 1885.77 1470.95 Q1883.87 1469.17 1880.52 1469.17 M1875.84 1467.18 Q1872.83 1466.44 1871.14 1464.38 Q1869.48 1462.32 1869.48 1459.35 Q1869.48 1455.21 1872.42 1452.8 Q1875.38 1450.39 1880.52 1450.39 Q1885.68 1450.39 1888.62 1452.8 Q1891.56 1455.21 1891.56 1459.35 Q1891.56 1462.32 1889.87 1464.38 Q1888.2 1466.44 1885.22 1467.18 Q1888.6 1467.96 1890.47 1470.26 Q1892.37 1472.55 1892.37 1475.86 Q1892.37 1480.88 1889.29 1483.57 Q1886.24 1486.25 1880.52 1486.25 Q1874.8 1486.25 1871.72 1483.57 Q1868.67 1480.88 1868.67 1475.86 Q1868.67 1472.55 1870.56 1470.26 Q1872.46 1467.96 1875.84 1467.18 M1874.13 1459.79 Q1874.13 1462.48 1875.8 1463.98 Q1877.49 1465.49 1880.52 1465.49 Q1883.53 1465.49 1885.22 1463.98 Q1886.93 1462.48 1886.93 1459.79 Q1886.93 1457.11 1885.22 1455.6 Q1883.53 1454.1 1880.52 1454.1 Q1877.49 1454.1 1875.8 1455.6 Q1874.13 1457.11 1874.13 1459.79 Z" fill="#000000" fill-rule="nonzero" fill-opacity="1" /><path clip-path="url(#clip690)" d="M2271.27 1481.64 L2278.91 1481.64 L2278.91 1455.28 L2270.6 1456.95 L2270.6 1452.69 L2278.87 1451.02 L2283.54 1451.02 L2283.54 1481.64 L2291.18 1481.64 L2291.18 1485.58 L2271.27 1485.58 L2271.27 1481.64 Z" fill="#000000" fill-rule="nonzero" fill-opacity="1" /><path clip-path="url(#clip690)" d="M2310.63 1454.1 Q2307.01 1454.1 2305.19 1457.66 Q2303.38 1461.2 2303.38 1468.33 Q2303.38 1475.44 2305.19 1479.01 Q2307.01 1482.55 2310.63 1482.55 Q2314.26 1482.55 2316.07 1479.01 Q2317.89 1475.44 2317.89 1468.33 Q2317.89 1461.2 2316.07 1457.66 Q2314.26 1454.1 2310.63 1454.1 M2310.63 1450.39 Q2316.44 1450.39 2319.49 1455 Q2322.57 1459.58 2322.57 1468.33 Q2322.57 1477.06 2319.49 1481.67 Q2316.44 1486.25 2310.63 1486.25 Q2304.82 1486.25 2301.74 1481.67 Q2298.68 1477.06 2298.68 1468.33 Q2298.68 1459.58 2301.74 1455 Q2304.82 1450.39 2310.63 1450.39 Z" fill="#000000" fill-rule="nonzero" fill-opacity="1" /><path clip-path="url(#clip690)" d="M1228.15 1520.52 L1234.58 1520.52 L1234.58 1568.04 L1228.15 1568.04 L1228.15 1520.52 Z" fill="#000000" fill-rule="nonzero" fill-opacity="1" /><path clip-path="url(#clip690)" d="M1252.91 1522.27 L1252.91 1532.4 L1264.98 1532.4 L1264.98 1536.95 L1252.91 1536.95 L1252.91 1556.3 Q1252.91 1560.66 1254.09 1561.9 Q1255.3 1563.14 1258.96 1563.14 L1264.98 1563.14 L1264.98 1568.04 L1258.96 1568.04 Q1252.18 1568.04 1249.6 1565.53 Q1247.03 1562.98 1247.03 1556.3 L1247.03 1536.95 L1242.73 1536.95 L1242.73 1532.4 L1247.03 1532.4 L1247.03 1522.27 L1252.91 1522.27 Z" fill="#000000" fill-rule="nonzero" fill-opacity="1" /><path clip-path="url(#clip690)" d="M1303.17 1548.76 L1303.17 1551.62 L1276.24 1551.62 Q1276.63 1557.67 1279.87 1560.85 Q1283.15 1564 1288.98 1564 Q1292.35 1564 1295.5 1563.17 Q1298.68 1562.35 1301.8 1560.69 L1301.8 1566.23 Q1298.65 1567.57 1295.34 1568.27 Q1292.03 1568.97 1288.63 1568.97 Q1280.1 1568.97 1275.1 1564 Q1270.13 1559.04 1270.13 1550.57 Q1270.13 1541.82 1274.84 1536.69 Q1279.59 1531.54 1287.61 1531.54 Q1294.8 1531.54 1298.97 1536.18 Q1303.17 1540.8 1303.17 1548.76 M1297.32 1547.04 Q1297.25 1542.23 1294.61 1539.37 Q1292 1536.5 1287.67 1536.5 Q1282.77 1536.5 1279.81 1539.27 Q1276.88 1542.04 1276.44 1547.07 L1297.32 1547.04 Z" fill="#000000" fill-rule="nonzero" fill-opacity="1" /><path clip-path="url(#clip690)" d="M1333.44 1537.87 Q1332.45 1537.3 1331.28 1537.04 Q1330.13 1536.76 1328.73 1536.76 Q1323.76 1536.76 1321.09 1540 Q1318.45 1543.22 1318.45 1549.27 L1318.45 1568.04 L1312.56 1568.04 L1312.56 1532.4 L1318.45 1532.4 L1318.45 1537.93 Q1320.3 1534.69 1323.26 1533.13 Q1326.22 1531.54 1330.45 1531.54 Q1331.05 1531.54 1331.79 1531.63 Q1332.52 1531.7 1333.41 1531.85 L1333.44 1537.87 Z" fill="#000000" fill-rule="nonzero" fill-opacity="1" /><path clip-path="url(#clip690)" d="M1355.78 1550.12 Q1348.69 1550.12 1345.95 1551.75 Q1343.21 1553.37 1343.21 1557.29 Q1343.21 1560.4 1345.25 1562.25 Q1347.32 1564.07 1350.85 1564.07 Q1355.72 1564.07 1358.65 1560.63 Q1361.61 1557.16 1361.61 1551.43 L1361.61 1550.12 L1355.78 1550.12 M1367.47 1547.71 L1367.47 1568.04 L1361.61 1568.04 L1361.61 1562.63 Q1359.6 1565.88 1356.61 1567.44 Q1353.62 1568.97 1349.29 1568.97 Q1343.82 1568.97 1340.57 1565.91 Q1337.36 1562.82 1337.36 1557.67 Q1337.36 1551.65 1341.37 1548.6 Q1345.41 1545.54 1353.4 1545.54 L1361.61 1545.54 L1361.61 1544.97 Q1361.61 1540.93 1358.94 1538.73 Q1356.29 1536.5 1351.49 1536.5 Q1348.43 1536.5 1345.54 1537.23 Q1342.64 1537.97 1339.97 1539.43 L1339.97 1534.02 Q1343.18 1532.78 1346.2 1532.17 Q1349.23 1531.54 1352.09 1531.54 Q1359.83 1531.54 1363.65 1535.55 Q1367.47 1539.56 1367.47 1547.71 Z" fill="#000000" fill-rule="nonzero" fill-opacity="1" /><path clip-path="url(#clip690)" d="M1385.32 1522.27 L1385.32 1532.4 L1397.38 1532.4 L1397.38 1536.95 L1385.32 1536.95 L1385.32 1556.3 Q1385.32 1560.66 1386.5 1561.9 Q1387.71 1563.14 1391.37 1563.14 L1397.38 1563.14 L1397.38 1568.04 L1391.37 1568.04 Q1384.59 1568.04 1382.01 1565.53 Q1379.43 1562.98 1379.43 1556.3 L1379.43 1536.95 L1375.14 1536.95 L1375.14 1532.4 L1379.43 1532.4 L1379.43 1522.27 L1385.32 1522.27 Z" fill="#000000" fill-rule="nonzero" fill-opacity="1" /><path clip-path="url(#clip690)" d="M1405.09 1532.4 L1410.94 1532.4 L1410.94 1568.04 L1405.09 1568.04 L1405.09 1532.4 M1405.09 1518.52 L1410.94 1518.52 L1410.94 1525.93 L1405.09 1525.93 L1405.09 1518.52 Z" fill="#000000" fill-rule="nonzero" fill-opacity="1" /><path clip-path="url(#clip690)" d="M1437.01 1536.5 Q1432.3 1536.5 1429.56 1540.19 Q1426.83 1543.85 1426.83 1550.25 Q1426.83 1556.65 1429.53 1560.34 Q1432.27 1564 1437.01 1564 Q1441.69 1564 1444.43 1560.31 Q1447.16 1556.62 1447.16 1550.25 Q1447.16 1543.92 1444.43 1540.23 Q1441.69 1536.5 1437.01 1536.5 M1437.01 1531.54 Q1444.65 1531.54 1449.01 1536.5 Q1453.37 1541.47 1453.37 1550.25 Q1453.37 1559 1449.01 1564 Q1444.65 1568.97 1437.01 1568.97 Q1429.34 1568.97 1424.98 1564 Q1420.65 1559 1420.65 1550.25 Q1420.65 1541.47 1424.98 1536.5 Q1429.34 1531.54 1437.01 1531.54 Z" fill="#000000" fill-rule="nonzero" fill-opacity="1" /><path clip-path="url(#clip690)" d="M1492.71 1546.53 L1492.71 1568.04 L1486.85 1568.04 L1486.85 1546.72 Q1486.85 1541.66 1484.88 1539.14 Q1482.91 1536.63 1478.96 1536.63 Q1474.22 1536.63 1471.48 1539.65 Q1468.74 1542.68 1468.74 1547.9 L1468.74 1568.04 L1462.86 1568.04 L1462.86 1532.4 L1468.74 1532.4 L1468.74 1537.93 Q1470.84 1534.72 1473.68 1533.13 Q1476.54 1531.54 1480.27 1531.54 Q1486.41 1531.54 1489.56 1535.36 Q1492.71 1539.14 1492.71 1546.53 Z" fill="#000000" fill-rule="nonzero" fill-opacity="1" /><polyline clip-path="url(#clip690)" style="stroke:#000000; stroke-linecap:round; stroke-linejoin:round; stroke-width:4; stroke-opacity:1; fill:none" points="368.106,1423.18 368.106,123.472 "/>
<polyline clip-path="url(#clip690)" style="stroke:#000000; stroke-linecap:round; stroke-linejoin:round; stroke-width:4; stroke-opacity:1; fill:none" points="368.106,1215.63 387.004,1215.63 "/>
<polyline clip-path="url(#clip690)" style="stroke:#000000; stroke-linecap:round; stroke-linejoin:round; stroke-width:4; stroke-opacity:1; fill:none" points="368.106,941.064 387.004,941.064 "/>
<polyline clip-path="url(#clip690)" style="stroke:#000000; stroke-linecap:round; stroke-linejoin:round; stroke-width:4; stroke-opacity:1; fill:none" points="368.106,666.503 387.004,666.503 "/>
<polyline clip-path="url(#clip690)" style="stroke:#000000; stroke-linecap:round; stroke-linejoin:round; stroke-width:4; stroke-opacity:1; fill:none" points="368.106,391.942 387.004,391.942 "/>
<path clip-path="url(#clip690)" d="M115.024 1228.97 L122.663 1228.97 L122.663 1202.6 L114.353 1204.27 L114.353 1200.01 L122.617 1198.35 L127.292 1198.35 L127.292 1228.97 L134.931 1228.97 L134.931 1232.91 L115.024 1232.91 L115.024 1228.97 Z" fill="#000000" fill-rule="nonzero" fill-opacity="1" /><path clip-path="url(#clip690)" d="M144.422 1198.35 L162.778 1198.35 L162.778 1202.28 L148.704 1202.28 L148.704 1210.75 Q149.723 1210.41 150.741 1210.24 Q151.76 1210.06 152.778 1210.06 Q158.565 1210.06 161.945 1213.23 Q165.325 1216.4 165.325 1221.82 Q165.325 1227.4 161.852 1230.5 Q158.38 1233.58 152.061 1233.58 Q149.885 1233.58 147.616 1233.21 Q145.371 1232.84 142.964 1232.09 L142.964 1227.4 Q145.047 1228.53 147.269 1229.09 Q149.491 1229.64 151.968 1229.64 Q155.973 1229.64 158.311 1227.53 Q160.649 1225.43 160.649 1221.82 Q160.649 1218.21 158.311 1216.1 Q155.973 1213.99 151.968 1213.99 Q150.093 1213.99 148.218 1214.41 Q146.366 1214.83 144.422 1215.71 L144.422 1198.35 Z" fill="#000000" fill-rule="nonzero" fill-opacity="1" /><path clip-path="url(#clip690)" d="M184.538 1201.42 Q180.926 1201.42 179.098 1204.99 Q177.292 1208.53 177.292 1215.66 Q177.292 1222.77 179.098 1226.33 Q180.926 1229.87 184.538 1229.87 Q188.172 1229.87 189.977 1226.33 Q191.806 1222.77 191.806 1215.66 Q191.806 1208.53 189.977 1204.99 Q188.172 1201.42 184.538 1201.42 M184.538 1197.72 Q190.348 1197.72 193.403 1202.33 Q196.482 1206.91 196.482 1215.66 Q196.482 1224.39 193.403 1228.99 Q190.348 1233.58 184.538 1233.58 Q178.727 1233.58 175.649 1228.99 Q172.593 1224.39 172.593 1215.66 Q172.593 1206.91 175.649 1202.33 Q178.727 1197.72 184.538 1197.72 Z" fill="#000000" fill-rule="nonzero" fill-opacity="1" /><path clip-path="url(#clip690)" d="M217.547 1202.42 L205.741 1220.87 L217.547 1220.87 L217.547 1202.42 M216.32 1198.35 L222.199 1198.35 L222.199 1220.87 L227.13 1220.87 L227.13 1224.76 L222.199 1224.76 L222.199 1232.91 L217.547 1232.91 L217.547 1224.76 L201.945 1224.76 L201.945 1220.24 L216.32 1198.35 Z" fill="#000000" fill-rule="nonzero" fill-opacity="1" /><path clip-path="url(#clip690)" d="M234.861 1227.03 L239.746 1227.03 L239.746 1232.91 L234.861 1232.91 L234.861 1227.03 Z" fill="#000000" fill-rule="nonzero" fill-opacity="1" /><path clip-path="url(#clip690)" d="M249.977 1198.35 L268.333 1198.35 L268.333 1202.28 L254.259 1202.28 L254.259 1210.75 Q255.278 1210.41 256.296 1210.24 Q257.315 1210.06 258.333 1210.06 Q264.12 1210.06 267.5 1213.23 Q270.88 1216.4 270.88 1221.82 Q270.88 1227.4 267.407 1230.5 Q263.935 1233.58 257.616 1233.58 Q255.44 1233.58 253.171 1233.21 Q250.926 1232.84 248.519 1232.09 L248.519 1227.4 Q250.602 1228.53 252.824 1229.09 Q255.046 1229.64 257.523 1229.64 Q261.528 1229.64 263.866 1227.53 Q266.204 1225.43 266.204 1221.82 Q266.204 1218.21 263.866 1216.1 Q261.528 1213.99 257.523 1213.99 Q255.648 1213.99 253.773 1214.41 Q251.921 1214.83 249.977 1215.71 L249.977 1198.35 Z" fill="#000000" fill-rule="nonzero" fill-opacity="1" /><path clip-path="url(#clip690)" d="M284.12 1228.97 L300.44 1228.97 L300.44 1232.91 L278.495 1232.91 L278.495 1228.97 Q281.157 1226.22 285.741 1221.59 Q290.347 1216.93 291.528 1215.59 Q293.773 1213.07 294.653 1211.33 Q295.555 1209.57 295.555 1207.88 Q295.555 1205.13 293.611 1203.39 Q291.69 1201.66 288.588 1201.66 Q286.389 1201.66 283.935 1202.42 Q281.505 1203.18 278.727 1204.73 L278.727 1200.01 Q281.551 1198.88 284.005 1198.3 Q286.458 1197.72 288.495 1197.72 Q293.866 1197.72 297.06 1200.41 Q300.255 1203.09 300.255 1207.58 Q300.255 1209.71 299.444 1211.63 Q298.657 1213.53 296.551 1216.12 Q295.972 1216.79 292.87 1220.01 Q289.768 1223.21 284.12 1228.97 Z" fill="#000000" fill-rule="nonzero" fill-opacity="1" /><path clip-path="url(#clip690)" d="M320.254 1216.49 Q316.921 1216.49 315 1218.28 Q313.102 1220.06 313.102 1223.18 Q313.102 1226.31 315 1228.09 Q316.921 1229.87 320.254 1229.87 Q323.588 1229.87 325.509 1228.09 Q327.43 1226.28 327.43 1223.18 Q327.43 1220.06 325.509 1218.28 Q323.611 1216.49 320.254 1216.49 M315.579 1214.5 Q312.569 1213.76 310.879 1211.7 Q309.213 1209.64 309.213 1206.68 Q309.213 1202.53 312.153 1200.13 Q315.116 1197.72 320.254 1197.72 Q325.416 1197.72 328.356 1200.13 Q331.296 1202.53 331.296 1206.68 Q331.296 1209.64 329.606 1211.7 Q327.94 1213.76 324.953 1214.5 Q328.333 1215.29 330.208 1217.58 Q332.106 1219.87 332.106 1223.18 Q332.106 1228.21 329.028 1230.89 Q325.972 1233.58 320.254 1233.58 Q314.537 1233.58 311.458 1230.89 Q308.403 1228.21 308.403 1223.18 Q308.403 1219.87 310.301 1217.58 Q312.199 1215.29 315.579 1214.5 M313.866 1207.12 Q313.866 1209.8 315.532 1211.31 Q317.222 1212.81 320.254 1212.81 Q323.264 1212.81 324.953 1211.31 Q326.666 1209.8 326.666 1207.12 Q326.666 1204.43 324.953 1202.93 Q323.264 1201.42 320.254 1201.42 Q317.222 1201.42 315.532 1202.93 Q313.866 1204.43 313.866 1207.12 Z" fill="#000000" fill-rule="nonzero" fill-opacity="1" /><path clip-path="url(#clip690)" d="M115.117 954.409 L122.755 954.409 L122.755 928.043 L114.445 929.71 L114.445 925.451 L122.709 923.784 L127.385 923.784 L127.385 954.409 L135.024 954.409 L135.024 958.344 L115.117 958.344 L115.117 954.409 Z" fill="#000000" fill-rule="nonzero" fill-opacity="1" /><path clip-path="url(#clip690)" d="M144.515 923.784 L162.871 923.784 L162.871 927.719 L148.797 927.719 L148.797 936.191 Q149.816 935.844 150.834 935.682 Q151.853 935.497 152.871 935.497 Q158.658 935.497 162.038 938.668 Q165.417 941.839 165.417 947.256 Q165.417 952.835 161.945 955.937 Q158.473 959.015 152.153 959.015 Q149.978 959.015 147.709 958.645 Q145.464 958.275 143.056 957.534 L143.056 952.835 Q145.14 953.969 147.362 954.525 Q149.584 955.08 152.061 955.08 Q156.065 955.08 158.403 952.974 Q160.741 950.867 160.741 947.256 Q160.741 943.645 158.403 941.539 Q156.065 939.432 152.061 939.432 Q150.186 939.432 148.311 939.849 Q146.459 940.265 144.515 941.145 L144.515 923.784 Z" fill="#000000" fill-rule="nonzero" fill-opacity="1" /><path clip-path="url(#clip690)" d="M184.63 926.863 Q181.019 926.863 179.19 930.427 Q177.385 933.969 177.385 941.099 Q177.385 948.205 179.19 951.77 Q181.019 955.312 184.63 955.312 Q188.264 955.312 190.07 951.77 Q191.899 948.205 191.899 941.099 Q191.899 933.969 190.07 930.427 Q188.264 926.863 184.63 926.863 M184.63 923.159 Q190.44 923.159 193.496 927.765 Q196.575 932.349 196.575 941.099 Q196.575 949.826 193.496 954.432 Q190.44 959.015 184.63 959.015 Q178.82 959.015 175.741 954.432 Q172.686 949.826 172.686 941.099 Q172.686 932.349 175.741 927.765 Q178.82 923.159 184.63 923.159 Z" fill="#000000" fill-rule="nonzero" fill-opacity="1" /><path clip-path="url(#clip690)" d="M217.639 927.858 L205.834 946.307 L217.639 946.307 L217.639 927.858 M216.412 923.784 L222.292 923.784 L222.292 946.307 L227.223 946.307 L227.223 950.196 L222.292 950.196 L222.292 958.344 L217.639 958.344 L217.639 950.196 L202.037 950.196 L202.037 945.682 L216.412 923.784 Z" fill="#000000" fill-rule="nonzero" fill-opacity="1" /><path clip-path="url(#clip690)" d="M234.954 952.464 L239.838 952.464 L239.838 958.344 L234.954 958.344 L234.954 952.464 Z" fill="#000000" fill-rule="nonzero" fill-opacity="1" /><path clip-path="url(#clip690)" d="M250.07 923.784 L268.426 923.784 L268.426 927.719 L254.352 927.719 L254.352 936.191 Q255.371 935.844 256.389 935.682 Q257.408 935.497 258.426 935.497 Q264.213 935.497 267.593 938.668 Q270.972 941.839 270.972 947.256 Q270.972 952.835 267.5 955.937 Q264.028 959.015 257.708 959.015 Q255.533 959.015 253.264 958.645 Q251.019 958.275 248.611 957.534 L248.611 952.835 Q250.695 953.969 252.917 954.525 Q255.139 955.08 257.616 955.08 Q261.62 955.08 263.958 952.974 Q266.296 950.867 266.296 947.256 Q266.296 943.645 263.958 941.539 Q261.62 939.432 257.616 939.432 Q255.741 939.432 253.866 939.849 Q252.014 940.265 250.07 941.145 L250.07 923.784 Z" fill="#000000" fill-rule="nonzero" fill-opacity="1" /><path clip-path="url(#clip690)" d="M284.213 954.409 L300.532 954.409 L300.532 958.344 L278.588 958.344 L278.588 954.409 Q281.25 951.654 285.833 947.025 Q290.44 942.372 291.62 941.029 Q293.866 938.506 294.745 936.77 Q295.648 935.011 295.648 933.321 Q295.648 930.566 293.704 928.83 Q291.782 927.094 288.681 927.094 Q286.481 927.094 284.028 927.858 Q281.597 928.622 278.819 930.173 L278.819 925.451 Q281.644 924.316 284.097 923.738 Q286.551 923.159 288.588 923.159 Q293.958 923.159 297.153 925.844 Q300.347 928.529 300.347 933.02 Q300.347 935.15 299.537 937.071 Q298.75 938.969 296.643 941.562 Q296.065 942.233 292.963 945.451 Q289.861 948.645 284.213 954.409 Z" fill="#000000" fill-rule="nonzero" fill-opacity="1" /><path clip-path="url(#clip690)" d="M310.486 957.626 L310.486 953.367 Q312.245 954.2 314.051 954.64 Q315.856 955.08 317.592 955.08 Q322.222 955.08 324.653 951.978 Q327.106 948.853 327.453 942.511 Q326.111 944.501 324.051 945.566 Q321.991 946.631 319.491 946.631 Q314.305 946.631 311.273 943.506 Q308.264 940.358 308.264 934.918 Q308.264 929.594 311.412 926.377 Q314.56 923.159 319.791 923.159 Q325.787 923.159 328.935 927.765 Q332.106 932.349 332.106 941.099 Q332.106 949.27 328.217 954.154 Q324.352 959.015 317.801 959.015 Q316.041 959.015 314.236 958.668 Q312.43 958.321 310.486 957.626 M319.791 942.974 Q322.94 942.974 324.768 940.821 Q326.62 938.668 326.62 934.918 Q326.62 931.191 324.768 929.039 Q322.94 926.863 319.791 926.863 Q316.643 926.863 314.791 929.039 Q312.963 931.191 312.963 934.918 Q312.963 938.668 314.791 940.821 Q316.643 942.974 319.791 942.974 Z" fill="#000000" fill-rule="nonzero" fill-opacity="1" /><path clip-path="url(#clip690)" d="M114.931 679.848 L122.57 679.848 L122.57 653.482 L114.26 655.149 L114.26 650.89 L122.524 649.223 L127.2 649.223 L127.2 679.848 L134.839 679.848 L134.839 683.783 L114.931 683.783 L114.931 679.848 Z" fill="#000000" fill-rule="nonzero" fill-opacity="1" /><path clip-path="url(#clip690)" d="M144.329 649.223 L162.686 649.223 L162.686 653.158 L148.612 653.158 L148.612 661.63 Q149.63 661.283 150.649 661.121 Q151.667 660.936 152.686 660.936 Q158.473 660.936 161.852 664.107 Q165.232 667.278 165.232 672.695 Q165.232 678.274 161.76 681.376 Q158.288 684.454 151.968 684.454 Q149.792 684.454 147.524 684.084 Q145.279 683.713 142.871 682.973 L142.871 678.274 Q144.954 679.408 147.177 679.964 Q149.399 680.519 151.876 680.519 Q155.88 680.519 158.218 678.413 Q160.556 676.306 160.556 672.695 Q160.556 669.084 158.218 666.977 Q155.88 664.871 151.876 664.871 Q150.001 664.871 148.126 665.288 Q146.274 665.704 144.329 666.584 L144.329 649.223 Z" fill="#000000" fill-rule="nonzero" fill-opacity="1" /><path clip-path="url(#clip690)" d="M184.445 652.302 Q180.834 652.302 179.005 655.866 Q177.2 659.408 177.2 666.538 Q177.2 673.644 179.005 677.209 Q180.834 680.751 184.445 680.751 Q188.079 680.751 189.885 677.209 Q191.713 673.644 191.713 666.538 Q191.713 659.408 189.885 655.866 Q188.079 652.302 184.445 652.302 M184.445 648.598 Q190.255 648.598 193.311 653.204 Q196.389 657.788 196.389 666.538 Q196.389 675.264 193.311 679.871 Q190.255 684.454 184.445 684.454 Q178.635 684.454 175.556 679.871 Q172.501 675.264 172.501 666.538 Q172.501 657.788 175.556 653.204 Q178.635 648.598 184.445 648.598 Z" fill="#000000" fill-rule="nonzero" fill-opacity="1" /><path clip-path="url(#clip690)" d="M217.454 653.297 L205.649 671.746 L217.454 671.746 L217.454 653.297 M216.227 649.223 L222.107 649.223 L222.107 671.746 L227.037 671.746 L227.037 675.635 L222.107 675.635 L222.107 683.783 L217.454 683.783 L217.454 675.635 L201.852 675.635 L201.852 671.121 L216.227 649.223 Z" fill="#000000" fill-rule="nonzero" fill-opacity="1" /><path clip-path="url(#clip690)" d="M234.769 677.903 L239.653 677.903 L239.653 683.783 L234.769 683.783 L234.769 677.903 Z" fill="#000000" fill-rule="nonzero" fill-opacity="1" /><path clip-path="url(#clip690)" d="M249.884 649.223 L268.241 649.223 L268.241 653.158 L254.167 653.158 L254.167 661.63 Q255.185 661.283 256.204 661.121 Q257.222 660.936 258.241 660.936 Q264.028 660.936 267.407 664.107 Q270.787 667.278 270.787 672.695 Q270.787 678.274 267.315 681.376 Q263.843 684.454 257.523 684.454 Q255.347 684.454 253.079 684.084 Q250.833 683.713 248.426 682.973 L248.426 678.274 Q250.509 679.408 252.732 679.964 Q254.954 680.519 257.431 680.519 Q261.435 680.519 263.773 678.413 Q266.111 676.306 266.111 672.695 Q266.111 669.084 263.773 666.977 Q261.435 664.871 257.431 664.871 Q255.556 664.871 253.681 665.288 Q251.829 665.704 249.884 666.584 L249.884 649.223 Z" fill="#000000" fill-rule="nonzero" fill-opacity="1" /><path clip-path="url(#clip690)" d="M294.167 665.149 Q297.523 665.866 299.398 668.135 Q301.296 670.403 301.296 673.737 Q301.296 678.852 297.778 681.653 Q294.259 684.454 287.778 684.454 Q285.602 684.454 283.287 684.014 Q280.995 683.598 278.542 682.741 L278.542 678.227 Q280.486 679.362 282.801 679.94 Q285.116 680.519 287.639 680.519 Q292.037 680.519 294.329 678.783 Q296.643 677.047 296.643 673.737 Q296.643 670.681 294.491 668.968 Q292.361 667.232 288.542 667.232 L284.514 667.232 L284.514 663.39 L288.727 663.39 Q292.176 663.39 294.005 662.024 Q295.833 660.635 295.833 658.042 Q295.833 655.38 293.935 653.968 Q292.06 652.533 288.542 652.533 Q286.62 652.533 284.421 652.95 Q282.222 653.366 279.583 654.246 L279.583 650.079 Q282.245 649.339 284.56 648.968 Q286.898 648.598 288.958 648.598 Q294.282 648.598 297.384 651.028 Q300.486 653.436 300.486 657.556 Q300.486 660.427 298.843 662.417 Q297.199 664.385 294.167 665.149 Z" fill="#000000" fill-rule="nonzero" fill-opacity="1" /><path clip-path="url(#clip690)" d="M320.162 652.302 Q316.551 652.302 314.722 655.866 Q312.917 659.408 312.917 666.538 Q312.917 673.644 314.722 677.209 Q316.551 680.751 320.162 680.751 Q323.796 680.751 325.602 677.209 Q327.43 673.644 327.43 666.538 Q327.43 659.408 325.602 655.866 Q323.796 652.302 320.162 652.302 M320.162 648.598 Q325.972 648.598 329.028 653.204 Q332.106 657.788 332.106 666.538 Q332.106 675.264 329.028 679.871 Q325.972 684.454 320.162 684.454 Q314.352 684.454 311.273 679.871 Q308.217 675.264 308.217 666.538 Q308.217 657.788 311.273 653.204 Q314.352 648.598 320.162 648.598 Z" fill="#000000" fill-rule="nonzero" fill-opacity="1" /><path clip-path="url(#clip690)" d="M116.158 405.287 L123.797 405.287 L123.797 378.921 L115.487 380.588 L115.487 376.329 L123.751 374.662 L128.427 374.662 L128.427 405.287 L136.066 405.287 L136.066 409.222 L116.158 409.222 L116.158 405.287 Z" fill="#000000" fill-rule="nonzero" fill-opacity="1" /><path clip-path="url(#clip690)" d="M145.556 374.662 L163.913 374.662 L163.913 378.597 L149.839 378.597 L149.839 387.069 Q150.857 386.722 151.876 386.56 Q152.894 386.375 153.913 386.375 Q159.7 386.375 163.079 389.546 Q166.459 392.717 166.459 398.134 Q166.459 403.713 162.987 406.814 Q159.515 409.893 153.195 409.893 Q151.019 409.893 148.751 409.523 Q146.505 409.152 144.098 408.412 L144.098 403.713 Q146.181 404.847 148.403 405.402 Q150.626 405.958 153.103 405.958 Q157.107 405.958 159.445 403.852 Q161.783 401.745 161.783 398.134 Q161.783 394.523 159.445 392.416 Q157.107 390.31 153.103 390.31 Q151.228 390.31 149.353 390.727 Q147.501 391.143 145.556 392.023 L145.556 374.662 Z" fill="#000000" fill-rule="nonzero" fill-opacity="1" /><path clip-path="url(#clip690)" d="M185.672 377.741 Q182.061 377.741 180.232 381.305 Q178.426 384.847 178.426 391.977 Q178.426 399.083 180.232 402.648 Q182.061 406.189 185.672 406.189 Q189.306 406.189 191.112 402.648 Q192.94 399.083 192.94 391.977 Q192.94 384.847 191.112 381.305 Q189.306 377.741 185.672 377.741 M185.672 374.037 Q191.482 374.037 194.538 378.643 Q197.616 383.227 197.616 391.977 Q197.616 400.703 194.538 405.31 Q191.482 409.893 185.672 409.893 Q179.862 409.893 176.783 405.31 Q173.727 400.703 173.727 391.977 Q173.727 383.227 176.783 378.643 Q179.862 374.037 185.672 374.037 Z" fill="#000000" fill-rule="nonzero" fill-opacity="1" /><path clip-path="url(#clip690)" d="M218.681 378.736 L206.875 397.185 L218.681 397.185 L218.681 378.736 M217.454 374.662 L223.334 374.662 L223.334 397.185 L228.264 397.185 L228.264 401.074 L223.334 401.074 L223.334 409.222 L218.681 409.222 L218.681 401.074 L203.079 401.074 L203.079 396.56 L217.454 374.662 Z" fill="#000000" fill-rule="nonzero" fill-opacity="1" /><path clip-path="url(#clip690)" d="M235.996 403.342 L240.88 403.342 L240.88 409.222 L235.996 409.222 L235.996 403.342 Z" fill="#000000" fill-rule="nonzero" fill-opacity="1" /><path clip-path="url(#clip690)" d="M251.111 374.662 L269.468 374.662 L269.468 378.597 L255.394 378.597 L255.394 387.069 Q256.412 386.722 257.431 386.56 Q258.449 386.375 259.468 386.375 Q265.255 386.375 268.634 389.546 Q272.014 392.717 272.014 398.134 Q272.014 403.713 268.542 406.814 Q265.07 409.893 258.75 409.893 Q256.574 409.893 254.306 409.523 Q252.06 409.152 249.653 408.412 L249.653 403.713 Q251.736 404.847 253.958 405.402 Q256.181 405.958 258.658 405.958 Q262.662 405.958 265 403.852 Q267.338 401.745 267.338 398.134 Q267.338 394.523 265 392.416 Q262.662 390.31 258.658 390.31 Q256.783 390.31 254.908 390.727 Q253.056 391.143 251.111 392.023 L251.111 374.662 Z" fill="#000000" fill-rule="nonzero" fill-opacity="1" /><path clip-path="url(#clip690)" d="M295.393 390.588 Q298.75 391.305 300.625 393.574 Q302.523 395.842 302.523 399.176 Q302.523 404.291 299.005 407.092 Q295.486 409.893 289.005 409.893 Q286.829 409.893 284.514 409.453 Q282.222 409.037 279.769 408.18 L279.769 403.666 Q281.713 404.801 284.028 405.379 Q286.343 405.958 288.866 405.958 Q293.264 405.958 295.555 404.222 Q297.87 402.486 297.87 399.176 Q297.87 396.12 295.718 394.407 Q293.588 392.671 289.768 392.671 L285.741 392.671 L285.741 388.828 L289.954 388.828 Q293.403 388.828 295.231 387.463 Q297.06 386.074 297.06 383.481 Q297.06 380.819 295.162 379.407 Q293.287 377.972 289.768 377.972 Q287.847 377.972 285.648 378.389 Q283.449 378.805 280.81 379.685 L280.81 375.518 Q283.472 374.778 285.787 374.407 Q288.125 374.037 290.185 374.037 Q295.509 374.037 298.611 376.467 Q301.713 378.875 301.713 382.995 Q301.713 385.866 300.069 387.856 Q298.426 389.824 295.393 390.588 Z" fill="#000000" fill-rule="nonzero" fill-opacity="1" /><path clip-path="url(#clip690)" d="M312.199 405.287 L319.838 405.287 L319.838 378.921 L311.528 380.588 L311.528 376.329 L319.791 374.662 L324.467 374.662 L324.467 405.287 L332.106 405.287 L332.106 409.222 L312.199 409.222 L312.199 405.287 Z" fill="#000000" fill-rule="nonzero" fill-opacity="1" /><path clip-path="url(#clip690)" d="M16.4842 1114.62 L16.4842 1074.42 L21.895 1074.42 L21.895 1091.29 L64.0042 1091.29 L64.0042 1097.75 L21.895 1097.75 L21.895 1114.62 L16.4842 1114.62 Z" fill="#000000" fill-rule="nonzero" fill-opacity="1" /><path clip-path="url(#clip690)" d="M32.4621 1065.73 Q32.4621 1070.45 36.1542 1073.18 Q39.8145 1075.92 46.212 1075.92 Q52.6095 1075.92 56.3017 1073.21 Q59.9619 1070.48 59.9619 1065.73 Q59.9619 1061.06 56.2698 1058.32 Q52.5777 1055.58 46.212 1055.58 Q39.8781 1055.58 36.186 1058.32 Q32.4621 1061.06 32.4621 1065.73 M27.4968 1065.73 Q27.4968 1058.1 32.4621 1053.74 Q37.4273 1049.37 46.212 1049.37 Q54.9649 1049.37 59.9619 1053.74 Q64.9272 1058.1 64.9272 1065.73 Q64.9272 1073.41 59.9619 1077.77 Q54.9649 1082.09 46.212 1082.09 Q37.4273 1082.09 32.4621 1077.77 Q27.4968 1073.41 27.4968 1065.73 Z" fill="#000000" fill-rule="nonzero" fill-opacity="1" /><path clip-path="url(#clip690)" d="M18.2347 1033.87 L28.3562 1033.87 L28.3562 1021.81 L32.9077 1021.81 L32.9077 1033.87 L52.2594 1033.87 Q56.6199 1033.87 57.8613 1032.7 Q59.1026 1031.49 59.1026 1027.83 L59.1026 1021.81 L64.0042 1021.81 L64.0042 1027.83 Q64.0042 1034.61 61.4897 1037.18 Q58.9434 1039.76 52.2594 1039.76 L32.9077 1039.76 L32.9077 1044.06 L28.3562 1044.06 L28.3562 1039.76 L18.2347 1039.76 L18.2347 1033.87 Z" fill="#000000" fill-rule="nonzero" fill-opacity="1" /><path clip-path="url(#clip690)" d="M46.0847 997.908 Q46.0847 1005.01 47.7079 1007.74 Q49.3312 1010.48 53.2461 1010.48 Q56.3653 1010.48 58.2114 1008.44 Q60.0256 1006.37 60.0256 1002.84 Q60.0256 997.972 56.5881 995.044 Q53.1188 992.083 47.3897 992.083 L46.0847 992.083 L46.0847 997.908 M43.6657 986.227 L64.0042 986.227 L64.0042 992.083 L58.5933 992.083 Q61.8398 994.089 63.3994 997.081 Q64.9272 1000.07 64.9272 1004.4 Q64.9272 1009.88 61.8716 1013.12 Q58.7843 1016.34 53.6281 1016.34 Q47.6125 1016.34 44.5569 1012.33 Q41.5014 1008.28 41.5014 1000.3 L41.5014 992.083 L40.9285 992.083 Q36.8862 992.083 34.6901 994.757 Q32.4621 997.399 32.4621 1002.2 Q32.4621 1005.26 33.1941 1008.16 Q33.9262 1011.05 35.3903 1013.73 L29.9795 1013.73 Q28.7381 1010.51 28.1334 1007.49 Q27.4968 1004.46 27.4968 1001.6 Q27.4968 993.866 31.5072 990.046 Q35.5176 986.227 43.6657 986.227 Z" fill="#000000" fill-rule="nonzero" fill-opacity="1" /><path clip-path="url(#clip690)" d="M14.479 974.164 L14.479 968.308 L64.0042 968.308 L64.0042 974.164 L14.479 974.164 Z" fill="#000000" fill-rule="nonzero" fill-opacity="1" /><path clip-path="url(#clip690)" d="M16.4842 935.079 L16.4842 928.649 L58.5933 928.649 L58.5933 905.51 L64.0042 905.51 L64.0042 935.079 L16.4842 935.079 Z" fill="#000000" fill-rule="nonzero" fill-opacity="1" /><path clip-path="url(#clip690)" d="M32.4621 886.349 Q32.4621 891.06 36.1542 893.797 Q39.8145 896.534 46.212 896.534 Q52.6095 896.534 56.3017 893.829 Q59.9619 891.092 59.9619 886.349 Q59.9619 881.67 56.2698 878.933 Q52.5777 876.196 46.212 876.196 Q39.8781 876.196 36.186 878.933 Q32.4621 881.67 32.4621 886.349 M27.4968 886.349 Q27.4968 878.71 32.4621 874.35 Q37.4273 869.989 46.212 869.989 Q54.9649 869.989 59.9619 874.35 Q64.9272 878.71 64.9272 886.349 Q64.9272 894.02 59.9619 898.38 Q54.9649 902.709 46.212 902.709 Q37.4273 902.709 32.4621 898.38 Q27.4968 894.02 27.4968 886.349 Z" fill="#000000" fill-rule="nonzero" fill-opacity="1" /><path clip-path="url(#clip690)" d="M46.0847 844.081 Q46.0847 851.179 47.7079 853.916 Q49.3312 856.653 53.2461 856.653 Q56.3653 856.653 58.2114 854.616 Q60.0256 852.547 60.0256 849.014 Q60.0256 844.144 56.5881 841.216 Q53.1188 838.256 47.3897 838.256 L46.0847 838.256 L46.0847 844.081 M43.6657 832.4 L64.0042 832.4 L64.0042 838.256 L58.5933 838.256 Q61.8398 840.261 63.3994 843.253 Q64.9272 846.245 64.9272 850.574 Q64.9272 856.048 61.8716 859.295 Q58.7843 862.51 53.6281 862.51 Q47.6125 862.51 44.5569 858.499 Q41.5014 854.457 41.5014 846.468 L41.5014 838.256 L40.9285 838.256 Q36.8862 838.256 34.6901 840.93 Q32.4621 843.572 32.4621 848.378 Q32.4621 851.433 33.1941 854.33 Q33.9262 857.226 35.3903 859.9 L29.9795 859.9 Q28.7381 856.685 28.1334 853.661 Q27.4968 850.637 27.4968 847.773 Q27.4968 840.039 31.5072 836.219 Q35.5176 832.4 43.6657 832.4 Z" fill="#000000" fill-rule="nonzero" fill-opacity="1" /><path clip-path="url(#clip690)" d="M33.7671 796.879 L14.479 796.879 L14.479 791.023 L64.0042 791.023 L64.0042 796.879 L58.657 796.879 Q61.8398 798.725 63.3994 801.558 Q64.9272 804.359 64.9272 808.306 Q64.9272 814.767 59.771 818.841 Q54.6147 822.883 46.212 822.883 Q37.8093 822.883 32.6531 818.841 Q27.4968 814.767 27.4968 808.306 Q27.4968 804.359 29.0564 801.558 Q30.5842 798.725 33.7671 796.879 M46.212 816.836 Q52.6732 816.836 56.3653 814.194 Q60.0256 811.52 60.0256 806.873 Q60.0256 802.226 56.3653 799.553 Q52.6732 796.879 46.212 796.879 Q39.7508 796.879 36.0905 799.553 Q32.3984 802.226 32.3984 806.873 Q32.3984 811.52 36.0905 814.194 Q39.7508 816.836 46.212 816.836 Z" fill="#000000" fill-rule="nonzero" fill-opacity="1" /><path clip-path="url(#clip690)" d="M18.0438 729.498 L24.314 729.498 Q22.5634 733.158 21.704 736.405 Q20.8447 739.651 20.8447 742.675 Q20.8447 747.927 22.8817 750.791 Q24.9187 753.624 28.6745 753.624 Q31.8255 753.624 33.4488 751.746 Q35.0402 749.837 36.0269 744.553 L36.8226 740.67 Q38.1912 733.477 41.6605 730.071 Q45.098 726.634 50.8908 726.634 Q57.7976 726.634 61.3624 731.28 Q64.9272 735.896 64.9272 744.839 Q64.9272 748.213 64.1633 752.033 Q63.3994 755.82 61.9035 759.894 L55.2831 759.894 Q57.4793 755.979 58.5933 752.224 Q59.7073 748.468 59.7073 744.839 Q59.7073 739.333 57.543 736.341 Q55.3786 733.349 51.3682 733.349 Q47.8671 733.349 45.8937 735.514 Q43.9204 737.646 42.9337 742.548 L42.1698 746.463 Q40.7375 753.656 37.682 756.871 Q34.6264 760.085 29.1837 760.085 Q22.8817 760.085 19.2532 755.661 Q15.6248 751.205 15.6248 743.407 Q15.6248 740.065 16.2295 736.596 Q16.8343 733.127 18.0438 729.498 Z" fill="#000000" fill-rule="nonzero" fill-opacity="1" /><path clip-path="url(#clip690)" d="M42.4881 687.23 L64.0042 687.23 L64.0042 693.086 L42.679 693.086 Q37.6183 693.086 35.1038 695.06 Q32.5894 697.033 32.5894 700.98 Q32.5894 705.722 35.6131 708.459 Q38.6368 711.197 43.8567 711.197 L64.0042 711.197 L64.0042 717.085 L14.479 717.085 L14.479 711.197 L33.8944 711.197 Q30.6797 709.096 29.0883 706.263 Q27.4968 703.399 27.4968 699.675 Q27.4968 693.532 31.3163 690.381 Q35.1038 687.23 42.4881 687.23 Z" fill="#000000" fill-rule="nonzero" fill-opacity="1" /><path clip-path="url(#clip690)" d="M44.7161 645.057 L47.5806 645.057 L47.5806 671.984 Q53.6281 671.602 56.8109 668.355 Q59.9619 665.077 59.9619 659.253 Q59.9619 655.879 59.1344 652.728 Q58.3069 649.545 56.6518 646.426 L62.1899 646.426 Q63.5267 649.577 64.227 652.887 Q64.9272 656.197 64.9272 659.603 Q64.9272 668.133 59.9619 673.13 Q54.9967 678.095 46.5303 678.095 Q37.7774 678.095 32.6531 673.384 Q27.4968 668.642 27.4968 660.621 Q27.4968 653.428 32.1438 649.258 Q36.7589 645.057 44.7161 645.057 M42.9973 650.913 Q38.1912 650.977 35.3266 653.619 Q32.4621 656.229 32.4621 660.557 Q32.4621 665.459 35.2312 668.419 Q38.0002 671.347 43.0292 671.793 L42.9973 650.913 Z" fill="#000000" fill-rule="nonzero" fill-opacity="1" /><path clip-path="url(#clip690)" d="M33.7671 611.987 L14.479 611.987 L14.479 606.131 L64.0042 606.131 L64.0042 611.987 L58.657 611.987 Q61.8398 613.833 63.3994 616.666 Q64.9272 619.467 64.9272 623.414 Q64.9272 629.875 59.771 633.949 Q54.6147 637.991 46.212 637.991 Q37.8093 637.991 32.6531 633.949 Q27.4968 629.875 27.4968 623.414 Q27.4968 619.467 29.0564 616.666 Q30.5842 613.833 33.7671 611.987 M46.212 631.944 Q52.6732 631.944 56.3653 629.302 Q60.0256 626.628 60.0256 621.981 Q60.0256 617.334 56.3653 614.661 Q52.6732 611.987 46.212 611.987 Q39.7508 611.987 36.0905 614.661 Q32.3984 617.334 32.3984 621.981 Q32.3984 626.628 36.0905 629.302 Q39.7508 631.944 46.212 631.944 Z" fill="#000000" fill-rule="nonzero" fill-opacity="1" /><path clip-path="url(#clip690)" d="M14.5426 559.279 Q21.8632 563.544 29.0246 565.613 Q36.186 567.682 43.5384 567.682 Q50.8908 567.682 58.1159 565.613 Q65.3091 563.512 72.5979 559.279 L72.5979 564.372 Q65.1182 569.146 57.8931 571.533 Q50.668 573.888 43.5384 573.888 Q36.4406 573.888 29.2474 571.533 Q22.0542 569.178 14.5426 564.372 L14.5426 559.279 Z" fill="#000000" fill-rule="nonzero" fill-opacity="1" /><path clip-path="url(#clip690)" d="M14.479 548.139 L14.479 542.251 L43.7294 542.251 L28.3562 524.777 L28.3562 517.297 L45.0344 536.203 L64.0042 516.502 L64.0042 524.14 L46.5939 542.251 L64.0042 542.251 L64.0042 548.139 L14.479 548.139 Z" fill="#000000" fill-rule="nonzero" fill-opacity="1" /><path clip-path="url(#clip690)" d="M16.4842 514.146 L16.4842 507.653 L56.6518 497.659 L16.4842 487.697 L16.4842 480.472 L56.6518 470.477 L16.4842 460.515 L16.4842 453.99 L64.0042 465.926 L64.0042 474.01 L22.7544 484.036 L64.0042 494.158 L64.0042 502.242 L16.4842 514.146 Z" fill="#000000" fill-rule="nonzero" fill-opacity="1" /><path clip-path="url(#clip690)" d="M14.5426 446.638 L14.5426 441.545 Q22.0542 436.771 29.2474 434.416 Q36.4406 432.029 43.5384 432.029 Q50.668 432.029 57.8931 434.416 Q65.1182 436.771 72.5979 441.545 L72.5979 446.638 Q65.3091 442.405 58.1159 440.336 Q50.8908 438.235 43.5384 438.235 Q36.186 438.235 29.0246 440.336 Q21.8632 442.405 14.5426 446.638 Z" fill="#000000" fill-rule="nonzero" fill-opacity="1" /><path clip-path="url(#clip690)" d="M454.021 12.096 L462.204 12.096 L462.204 65.6895 L491.654 65.6895 L491.654 72.576 L454.021 72.576 L454.021 12.096 Z" fill="#000000" fill-rule="nonzero" fill-opacity="1" /><path clip-path="url(#clip690)" d="M516.04 32.4315 Q510.045 32.4315 506.561 37.1306 Q503.077 41.7891 503.077 49.9314 Q503.077 58.0738 506.521 62.7728 Q510.004 67.4314 516.04 67.4314 Q521.995 67.4314 525.479 62.7323 Q528.963 58.0333 528.963 49.9314 Q528.963 41.8701 525.479 37.1711 Q521.995 32.4315 516.04 32.4315 M516.04 26.1121 Q525.762 26.1121 531.312 32.4315 Q536.862 38.7509 536.862 49.9314 Q536.862 61.0714 531.312 67.4314 Q525.762 73.7508 516.04 73.7508 Q506.278 73.7508 500.728 67.4314 Q495.219 61.0714 495.219 49.9314 Q495.219 38.7509 500.728 32.4315 Q506.278 26.1121 516.04 26.1121 Z" fill="#000000" fill-rule="nonzero" fill-opacity="1" /><path clip-path="url(#clip690)" d="M544.883 27.2059 L552.336 27.2059 L561.654 62.6108 L570.93 27.2059 L579.721 27.2059 L589.038 62.6108 L598.314 27.2059 L605.768 27.2059 L593.899 72.576 L585.108 72.576 L575.346 35.3887 L565.542 72.576 L556.752 72.576 L544.883 27.2059 Z" fill="#000000" fill-rule="nonzero" fill-opacity="1" /><path clip-path="url(#clip690)" d="M655.878 48.0275 L655.878 51.6733 L621.607 51.6733 Q622.093 59.3701 626.225 63.421 Q630.397 67.4314 637.811 67.4314 Q642.104 67.4314 646.115 66.3781 Q650.166 65.3249 654.136 63.2184 L654.136 70.267 Q650.125 71.9684 645.912 72.8596 Q641.699 73.7508 637.365 73.7508 Q626.508 73.7508 620.149 67.4314 Q613.829 61.1119 613.829 50.3365 Q613.829 39.1965 619.824 32.6746 Q625.86 26.1121 636.069 26.1121 Q645.224 26.1121 650.53 32.0264 Q655.878 37.9003 655.878 48.0275 M648.424 45.84 Q648.343 39.7232 644.981 36.0774 Q641.659 32.4315 636.15 32.4315 Q629.911 32.4315 626.144 35.9558 Q622.417 39.4801 621.85 45.8805 L648.424 45.84 Z" fill="#000000" fill-rule="nonzero" fill-opacity="1" /><path clip-path="url(#clip690)" d="M694.402 34.1734 Q693.146 33.4443 691.647 33.1202 Q690.189 32.7556 688.406 32.7556 Q682.087 32.7556 678.684 36.8875 Q675.322 40.9789 675.322 48.6757 L675.322 72.576 L667.828 72.576 L667.828 27.2059 L675.322 27.2059 L675.322 34.2544 Q677.671 30.1225 681.439 28.1376 Q685.206 26.1121 690.594 26.1121 Q691.363 26.1121 692.295 26.2337 Q693.227 26.3147 694.361 26.5172 L694.402 34.1734 Z" fill="#000000" fill-rule="nonzero" fill-opacity="1" /><path clip-path="url(#clip690)" d="M728.915 12.096 L737.098 12.096 L737.098 65.6895 L766.548 65.6895 L766.548 72.576 L728.915 72.576 L728.915 12.096 Z" fill="#000000" fill-rule="nonzero" fill-opacity="1" /><path clip-path="url(#clip690)" d="M812.161 48.0275 L812.161 51.6733 L777.891 51.6733 Q778.377 59.3701 782.509 63.421 Q786.681 67.4314 794.094 67.4314 Q798.388 67.4314 802.399 66.3781 Q806.45 65.3249 810.42 63.2184 L810.42 70.267 Q806.409 71.9684 802.196 72.8596 Q797.983 73.7508 793.649 73.7508 Q782.792 73.7508 776.432 67.4314 Q770.113 61.1119 770.113 50.3365 Q770.113 39.1965 776.108 32.6746 Q782.144 26.1121 792.353 26.1121 Q801.508 26.1121 806.814 32.0264 Q812.161 37.9003 812.161 48.0275 M804.708 45.84 Q804.627 39.7232 801.264 36.0774 Q797.943 32.4315 792.434 32.4315 Q786.195 32.4315 782.428 35.9558 Q778.701 39.4801 778.134 45.8805 L804.708 45.84 Z" fill="#000000" fill-rule="nonzero" fill-opacity="1" /><path clip-path="url(#clip690)" d="M819.048 27.2059 L826.947 27.2059 L841.125 65.2844 L855.304 27.2059 L863.203 27.2059 L846.189 72.576 L836.062 72.576 L819.048 27.2059 Z" fill="#000000" fill-rule="nonzero" fill-opacity="1" /><path clip-path="url(#clip690)" d="M912.3 48.0275 L912.3 51.6733 L878.029 51.6733 Q878.515 59.3701 882.647 63.421 Q886.82 67.4314 894.233 67.4314 Q898.527 67.4314 902.537 66.3781 Q906.588 65.3249 910.558 63.2184 L910.558 70.267 Q906.547 71.9684 902.335 72.8596 Q898.122 73.7508 893.787 73.7508 Q882.931 73.7508 876.571 67.4314 Q870.251 61.1119 870.251 50.3365 Q870.251 39.1965 876.247 32.6746 Q882.283 26.1121 892.491 26.1121 Q901.646 26.1121 906.953 32.0264 Q912.3 37.9003 912.3 48.0275 M904.846 45.84 Q904.765 39.7232 901.403 36.0774 Q898.081 32.4315 892.572 32.4315 Q886.333 32.4315 882.566 35.9558 Q878.839 39.4801 878.272 45.8805 L904.846 45.84 Z" fill="#000000" fill-rule="nonzero" fill-opacity="1" /><path clip-path="url(#clip690)" d="M924.534 9.54393 L931.987 9.54393 L931.987 72.576 L924.534 72.576 L924.534 9.54393 Z" fill="#000000" fill-rule="nonzero" fill-opacity="1" /><path clip-path="url(#clip690)" d="M974.279 12.096 L982.461 12.096 L982.461 65.6895 L1011.91 65.6895 L1011.91 72.576 L974.279 72.576 L974.279 12.096 Z" fill="#000000" fill-rule="nonzero" fill-opacity="1" /><path clip-path="url(#clip690)" d="M1036.3 32.4315 Q1030.3 32.4315 1026.82 37.1306 Q1023.34 41.7891 1023.34 49.9314 Q1023.34 58.0738 1026.78 62.7728 Q1030.26 67.4314 1036.3 67.4314 Q1042.25 67.4314 1045.74 62.7323 Q1049.22 58.0333 1049.22 49.9314 Q1049.22 41.8701 1045.74 37.1711 Q1042.25 32.4315 1036.3 32.4315 M1036.3 26.1121 Q1046.02 26.1121 1051.57 32.4315 Q1057.12 38.7509 1057.12 49.9314 Q1057.12 61.0714 1051.57 67.4314 Q1046.02 73.7508 1036.3 73.7508 Q1026.54 73.7508 1020.99 67.4314 Q1015.48 61.0714 1015.48 49.9314 Q1015.48 38.7509 1020.99 32.4315 Q1026.54 26.1121 1036.3 26.1121 Z" fill="#000000" fill-rule="nonzero" fill-opacity="1" /><path clip-path="url(#clip690)" d="M1090.09 49.7694 Q1081.06 49.7694 1077.58 51.8354 Q1074.09 53.9013 1074.09 58.8839 Q1074.09 62.8538 1076.69 65.2034 Q1079.32 67.5124 1083.82 67.5124 Q1090.01 67.5124 1093.74 63.1374 Q1097.51 58.7219 1097.51 51.4303 L1097.51 49.7694 L1090.09 49.7694 M1104.96 46.6907 L1104.96 72.576 L1097.51 72.576 L1097.51 65.6895 Q1094.96 69.8214 1091.15 71.8063 Q1087.34 73.7508 1081.83 73.7508 Q1074.86 73.7508 1070.73 69.8619 Q1066.64 65.9325 1066.64 59.3701 Q1066.64 51.7138 1071.74 47.825 Q1076.89 43.9361 1087.06 43.9361 L1097.51 43.9361 L1097.51 43.2069 Q1097.51 38.0623 1094.1 35.2672 Q1090.74 32.4315 1084.63 32.4315 Q1080.74 32.4315 1077.05 33.3632 Q1073.36 34.295 1069.96 36.1584 L1069.96 29.2718 Q1074.05 27.692 1077.9 26.9223 Q1081.75 26.1121 1085.39 26.1121 Q1095.24 26.1121 1100.1 31.2163 Q1104.96 36.3204 1104.96 46.6907 Z" fill="#000000" fill-rule="nonzero" fill-opacity="1" /><path clip-path="url(#clip690)" d="M1150.17 34.0924 L1150.17 9.54393 L1157.62 9.54393 L1157.62 72.576 L1150.17 72.576 L1150.17 65.7705 Q1147.82 69.8214 1144.21 71.8063 Q1140.65 73.7508 1135.63 73.7508 Q1127.4 73.7508 1122.22 67.1883 Q1117.07 60.6258 1117.07 49.9314 Q1117.07 39.2371 1122.22 32.6746 Q1127.4 26.1121 1135.63 26.1121 Q1140.65 26.1121 1144.21 28.0971 Q1147.82 30.0415 1150.17 34.0924 M1124.77 49.9314 Q1124.77 58.1548 1128.13 62.8538 Q1131.53 67.5124 1137.45 67.5124 Q1143.36 67.5124 1146.77 62.8538 Q1150.17 58.1548 1150.17 49.9314 Q1150.17 41.7081 1146.77 37.0496 Q1143.36 32.3505 1137.45 32.3505 Q1131.53 32.3505 1128.13 37.0496 Q1124.77 41.7081 1124.77 49.9314 Z" fill="#000000" fill-rule="nonzero" fill-opacity="1" /><path clip-path="url(#clip690)" d="M1235.93 14.0809 L1235.93 22.0612 Q1231.27 19.8332 1227.14 18.7395 Q1223 17.6457 1219.16 17.6457 Q1212.47 17.6457 1208.83 20.2383 Q1205.22 22.8309 1205.22 27.611 Q1205.22 31.6214 1207.61 33.6873 Q1210.04 35.7128 1216.77 36.9686 L1221.71 37.9813 Q1230.86 39.7232 1235.2 44.1387 Q1239.57 48.5136 1239.57 55.8863 Q1239.57 64.6767 1233.66 69.2137 Q1227.78 73.7508 1216.4 73.7508 Q1212.11 73.7508 1207.25 72.7785 Q1202.43 71.8063 1197.24 69.9024 L1197.24 61.4765 Q1202.22 64.2716 1207 65.6895 Q1211.78 67.1073 1216.4 67.1073 Q1223.41 67.1073 1227.22 64.3527 Q1231.02 61.598 1231.02 56.4939 Q1231.02 52.0379 1228.27 49.5264 Q1225.56 47.0148 1219.32 45.759 L1214.34 44.7868 Q1205.18 42.9639 1201.09 39.075 Q1197 35.1862 1197 28.2591 Q1197 20.2383 1202.63 15.6203 Q1208.3 11.0023 1218.22 11.0023 Q1222.48 11.0023 1226.89 11.7719 Q1231.31 12.5416 1235.93 14.0809 Z" fill="#000000" fill-rule="nonzero" fill-opacity="1" /><path clip-path="url(#clip690)" d="M1289.72 45.1919 L1289.72 72.576 L1282.27 72.576 L1282.27 45.4349 Q1282.27 38.994 1279.76 35.7938 Q1277.25 32.5936 1272.22 32.5936 Q1266.19 32.5936 1262.7 36.4419 Q1259.22 40.2903 1259.22 46.9338 L1259.22 72.576 L1251.73 72.576 L1251.73 9.54393 L1259.22 9.54393 L1259.22 34.2544 Q1261.89 30.163 1265.5 28.1376 Q1269.14 26.1121 1273.88 26.1121 Q1281.7 26.1121 1285.71 30.9732 Q1289.72 35.7938 1289.72 45.1919 Z" fill="#000000" fill-rule="nonzero" fill-opacity="1" /><path clip-path="url(#clip690)" d="M1343.4 48.0275 L1343.4 51.6733 L1309.13 51.6733 Q1309.61 59.3701 1313.74 63.421 Q1317.92 67.4314 1325.33 67.4314 Q1329.62 67.4314 1333.63 66.3781 Q1337.69 65.3249 1341.66 63.2184 L1341.66 70.267 Q1337.64 71.9684 1333.43 72.8596 Q1329.22 73.7508 1324.88 73.7508 Q1314.03 73.7508 1307.67 67.4314 Q1301.35 61.1119 1301.35 50.3365 Q1301.35 39.1965 1307.34 32.6746 Q1313.38 26.1121 1323.59 26.1121 Q1332.74 26.1121 1338.05 32.0264 Q1343.4 37.9003 1343.4 48.0275 M1335.94 45.84 Q1335.86 39.7232 1332.5 36.0774 Q1329.18 32.4315 1323.67 32.4315 Q1317.43 32.4315 1313.66 35.9558 Q1309.94 39.4801 1309.37 45.8805 L1335.94 45.84 Z" fill="#000000" fill-rule="nonzero" fill-opacity="1" /><path clip-path="url(#clip690)" d="M1385.49 34.0924 L1385.49 9.54393 L1392.94 9.54393 L1392.94 72.576 L1385.49 72.576 L1385.49 65.7705 Q1383.14 69.8214 1379.53 71.8063 Q1375.97 73.7508 1370.94 73.7508 Q1362.72 73.7508 1357.53 67.1883 Q1352.39 60.6258 1352.39 49.9314 Q1352.39 39.2371 1357.53 32.6746 Q1362.72 26.1121 1370.94 26.1121 Q1375.97 26.1121 1379.53 28.0971 Q1383.14 30.0415 1385.49 34.0924 M1360.09 49.9314 Q1360.09 58.1548 1363.45 62.8538 Q1366.85 67.5124 1372.77 67.5124 Q1378.68 67.5124 1382.08 62.8538 Q1385.49 58.1548 1385.49 49.9314 Q1385.49 41.7081 1382.08 37.0496 Q1378.68 32.3505 1372.77 32.3505 Q1366.85 32.3505 1363.45 37.0496 Q1360.09 41.7081 1360.09 49.9314 Z" fill="#000000" fill-rule="nonzero" fill-opacity="1" /><path clip-path="url(#clip690)" d="M1452.24 32.4315 Q1446.25 32.4315 1442.77 37.1306 Q1439.28 41.7891 1439.28 49.9314 Q1439.28 58.0738 1442.73 62.7728 Q1446.21 67.4314 1452.24 67.4314 Q1458.2 67.4314 1461.68 62.7323 Q1465.17 58.0333 1465.17 49.9314 Q1465.17 41.8701 1461.68 37.1711 Q1458.2 32.4315 1452.24 32.4315 M1452.24 26.1121 Q1461.97 26.1121 1467.52 32.4315 Q1473.07 38.7509 1473.07 49.9314 Q1473.07 61.0714 1467.52 67.4314 Q1461.97 73.7508 1452.24 73.7508 Q1442.48 73.7508 1436.93 67.4314 Q1431.42 61.0714 1431.42 49.9314 Q1431.42 38.7509 1436.93 32.4315 Q1442.48 26.1121 1452.24 26.1121 Z" fill="#000000" fill-rule="nonzero" fill-opacity="1" /><path clip-path="url(#clip690)" d="M1480.07 27.2059 L1487.97 27.2059 L1502.15 65.2844 L1516.33 27.2059 L1524.23 27.2059 L1507.22 72.576 L1497.09 72.576 L1480.07 27.2059 Z" fill="#000000" fill-rule="nonzero" fill-opacity="1" /><path clip-path="url(#clip690)" d="M1573.33 48.0275 L1573.33 51.6733 L1539.06 51.6733 Q1539.54 59.3701 1543.67 63.421 Q1547.85 67.4314 1555.26 67.4314 Q1559.55 67.4314 1563.56 66.3781 Q1567.61 65.3249 1571.58 63.2184 L1571.58 70.267 Q1567.57 71.9684 1563.36 72.8596 Q1559.15 73.7508 1554.81 73.7508 Q1543.96 73.7508 1537.6 67.4314 Q1531.28 61.1119 1531.28 50.3365 Q1531.28 39.1965 1537.27 32.6746 Q1543.31 26.1121 1553.52 26.1121 Q1562.67 26.1121 1567.98 32.0264 Q1573.33 37.9003 1573.33 48.0275 M1565.87 45.84 Q1565.79 39.7232 1562.43 36.0774 Q1559.11 32.4315 1553.6 32.4315 Q1547.36 32.4315 1543.59 35.9558 Q1539.87 39.4801 1539.3 45.8805 L1565.87 45.84 Z" fill="#000000" fill-rule="nonzero" fill-opacity="1" /><path clip-path="url(#clip690)" d="M1611.85 34.1734 Q1610.59 33.4443 1609.1 33.1202 Q1607.64 32.7556 1605.86 32.7556 Q1599.54 32.7556 1596.13 36.8875 Q1592.77 40.9789 1592.77 48.6757 L1592.77 72.576 L1585.28 72.576 L1585.28 27.2059 L1592.77 27.2059 L1592.77 34.2544 Q1595.12 30.1225 1598.89 28.1376 Q1602.65 26.1121 1608.04 26.1121 Q1608.81 26.1121 1609.74 26.2337 Q1610.68 26.3147 1611.81 26.5172 L1611.85 34.1734 Z" fill="#000000" fill-rule="nonzero" fill-opacity="1" /><path clip-path="url(#clip690)" d="M1646.36 12.096 L1654.55 12.096 L1654.55 72.576 L1646.36 72.576 L1646.36 12.096 Z" fill="#000000" fill-rule="nonzero" fill-opacity="1" /><path clip-path="url(#clip690)" d="M1677.88 14.324 L1677.88 27.2059 L1693.23 27.2059 L1693.23 32.9987 L1677.88 32.9987 L1677.88 57.6282 Q1677.88 63.1779 1679.38 64.7578 Q1680.92 66.3376 1685.58 66.3376 L1693.23 66.3376 L1693.23 72.576 L1685.58 72.576 Q1676.95 72.576 1673.67 69.3758 Q1670.39 66.1351 1670.39 57.6282 L1670.39 32.9987 L1664.92 32.9987 L1664.92 27.2059 L1670.39 27.2059 L1670.39 14.324 L1677.88 14.324 Z" fill="#000000" fill-rule="nonzero" fill-opacity="1" /><path clip-path="url(#clip690)" d="M1741.84 48.0275 L1741.84 51.6733 L1707.57 51.6733 Q1708.06 59.3701 1712.19 63.421 Q1716.36 67.4314 1723.78 67.4314 Q1728.07 67.4314 1732.08 66.3781 Q1736.13 65.3249 1740.1 63.2184 L1740.1 70.267 Q1736.09 71.9684 1731.88 72.8596 Q1727.67 73.7508 1723.33 73.7508 Q1712.47 73.7508 1706.11 67.4314 Q1699.8 61.1119 1699.8 50.3365 Q1699.8 39.1965 1705.79 32.6746 Q1711.83 26.1121 1722.04 26.1121 Q1731.19 26.1121 1736.5 32.0264 Q1741.84 37.9003 1741.84 48.0275 M1734.39 45.84 Q1734.31 39.7232 1730.95 36.0774 Q1727.63 32.4315 1722.12 32.4315 Q1715.88 32.4315 1712.11 35.9558 Q1708.38 39.4801 1707.82 45.8805 L1734.39 45.84 Z" fill="#000000" fill-rule="nonzero" fill-opacity="1" /><path clip-path="url(#clip690)" d="M1780.37 34.1734 Q1779.11 33.4443 1777.61 33.1202 Q1776.16 32.7556 1774.37 32.7556 Q1768.05 32.7556 1764.65 36.8875 Q1761.29 40.9789 1761.29 48.6757 L1761.29 72.576 L1753.79 72.576 L1753.79 27.2059 L1761.29 27.2059 L1761.29 34.2544 Q1763.64 30.1225 1767.41 28.1376 Q1771.17 26.1121 1776.56 26.1121 Q1777.33 26.1121 1778.26 26.2337 Q1779.19 26.3147 1780.33 26.5172 L1780.37 34.1734 Z" fill="#000000" fill-rule="nonzero" fill-opacity="1" /><path clip-path="url(#clip690)" d="M1808.81 49.7694 Q1799.77 49.7694 1796.29 51.8354 Q1792.8 53.9013 1792.8 58.8839 Q1792.8 62.8538 1795.4 65.2034 Q1798.03 67.5124 1802.53 67.5124 Q1808.72 67.5124 1812.45 63.1374 Q1816.22 58.7219 1816.22 51.4303 L1816.22 49.7694 L1808.81 49.7694 M1823.67 46.6907 L1823.67 72.576 L1816.22 72.576 L1816.22 65.6895 Q1813.67 69.8214 1809.86 71.8063 Q1806.05 73.7508 1800.54 73.7508 Q1793.57 73.7508 1789.44 69.8619 Q1785.35 65.9325 1785.35 59.3701 Q1785.35 51.7138 1790.45 47.825 Q1795.6 43.9361 1805.77 43.9361 L1816.22 43.9361 L1816.22 43.2069 Q1816.22 38.0623 1812.82 35.2672 Q1809.45 32.4315 1803.34 32.4315 Q1799.45 32.4315 1795.76 33.3632 Q1792.08 34.295 1788.67 36.1584 L1788.67 29.2718 Q1792.76 27.692 1796.61 26.9223 Q1800.46 26.1121 1804.11 26.1121 Q1813.95 26.1121 1818.81 31.2163 Q1823.67 36.3204 1823.67 46.6907 Z" fill="#000000" fill-rule="nonzero" fill-opacity="1" /><path clip-path="url(#clip690)" d="M1846.4 14.324 L1846.4 27.2059 L1861.75 27.2059 L1861.75 32.9987 L1846.4 32.9987 L1846.4 57.6282 Q1846.4 63.1779 1847.9 64.7578 Q1849.44 66.3376 1854.09 66.3376 L1861.75 66.3376 L1861.75 72.576 L1854.09 72.576 Q1845.47 72.576 1842.18 69.3758 Q1838.9 66.1351 1838.9 57.6282 L1838.9 32.9987 L1833.43 32.9987 L1833.43 27.2059 L1838.9 27.2059 L1838.9 14.324 L1846.4 14.324 Z" fill="#000000" fill-rule="nonzero" fill-opacity="1" /><path clip-path="url(#clip690)" d="M1871.55 27.2059 L1879.01 27.2059 L1879.01 72.576 L1871.55 72.576 L1871.55 27.2059 M1871.55 9.54393 L1879.01 9.54393 L1879.01 18.9825 L1871.55 18.9825 L1871.55 9.54393 Z" fill="#000000" fill-rule="nonzero" fill-opacity="1" /><path clip-path="url(#clip690)" d="M1912.18 32.4315 Q1906.19 32.4315 1902.71 37.1306 Q1899.22 41.7891 1899.22 49.9314 Q1899.22 58.0738 1902.66 62.7728 Q1906.15 67.4314 1912.18 67.4314 Q1918.14 67.4314 1921.62 62.7323 Q1925.11 58.0333 1925.11 49.9314 Q1925.11 41.8701 1921.62 37.1711 Q1918.14 32.4315 1912.18 32.4315 M1912.18 26.1121 Q1921.91 26.1121 1927.46 32.4315 Q1933.01 38.7509 1933.01 49.9314 Q1933.01 61.0714 1927.46 67.4314 Q1921.91 73.7508 1912.18 73.7508 Q1902.42 73.7508 1896.87 67.4314 Q1891.36 61.0714 1891.36 49.9314 Q1891.36 38.7509 1896.87 32.4315 Q1902.42 26.1121 1912.18 26.1121 Z" fill="#000000" fill-rule="nonzero" fill-opacity="1" /><path clip-path="url(#clip690)" d="M1983.08 45.1919 L1983.08 72.576 L1975.62 72.576 L1975.62 45.4349 Q1975.62 38.994 1973.11 35.7938 Q1970.6 32.5936 1965.58 32.5936 Q1959.54 32.5936 1956.06 36.4419 Q1952.57 40.2903 1952.57 46.9338 L1952.57 72.576 L1945.08 72.576 L1945.08 27.2059 L1952.57 27.2059 L1952.57 34.2544 Q1955.25 30.163 1958.85 28.1376 Q1962.5 26.1121 1967.24 26.1121 Q1975.05 26.1121 1979.06 30.9732 Q1983.08 35.7938 1983.08 45.1919 Z" fill="#000000" fill-rule="nonzero" fill-opacity="1" /><path clip-path="url(#clip690)" d="M2026.87 28.5427 L2026.87 35.5912 Q2023.71 33.9709 2020.3 33.1607 Q2016.9 32.3505 2013.25 32.3505 Q2007.7 32.3505 2004.91 34.0519 Q2002.16 35.7533 2002.16 39.156 Q2002.16 41.7486 2004.14 43.2475 Q2006.12 44.7058 2012.12 46.0426 L2014.67 46.6097 Q2022.61 48.3111 2025.93 51.4303 Q2029.3 54.509 2029.3 60.0587 Q2029.3 66.3781 2024.27 70.0644 Q2019.29 73.7508 2010.54 73.7508 Q2006.89 73.7508 2002.92 73.0216 Q1999 72.3329 1994.62 70.9151 L1994.62 63.2184 Q1998.75 65.3654 2002.76 66.4591 Q2006.77 67.5124 2010.7 67.5124 Q2015.97 67.5124 2018.8 65.73 Q2021.64 63.9071 2021.64 60.6258 Q2021.64 57.5877 2019.57 55.9673 Q2017.55 54.3469 2010.62 52.8481 L2008.03 52.2405 Q2001.1 50.7821 1998.02 47.7845 Q1994.94 44.7463 1994.94 39.4801 Q1994.94 33.0797 1999.48 29.5959 Q2004.02 26.1121 2012.36 26.1121 Q2016.5 26.1121 2020.14 26.7198 Q2023.79 27.3274 2026.87 28.5427 Z" fill="#000000" fill-rule="nonzero" fill-opacity="1" /><path clip-path="url(#clip690)" d="M2085.44 9.62495 Q2080.01 18.942 2077.38 28.0566 Q2074.75 37.1711 2074.75 46.5287 Q2074.75 55.8863 2077.38 65.0818 Q2080.05 74.2369 2085.44 83.5134 L2078.96 83.5134 Q2072.88 73.9938 2069.85 64.7983 Q2066.85 55.6027 2066.85 46.5287 Q2066.85 37.4952 2069.85 28.3401 Q2072.84 19.1851 2078.96 9.62495 L2085.44 9.62495 Z" fill="#000000" fill-rule="nonzero" fill-opacity="1" /><path clip-path="url(#clip690)" d="M2099.9 27.2059 L2107.36 27.2059 L2107.36 73.3862 Q2107.36 82.0551 2104.04 85.944 Q2100.75 89.8329 2093.42 89.8329 L2090.59 89.8329 L2090.59 83.5134 L2092.57 83.5134 Q2096.82 83.5134 2098.36 81.5285 Q2099.9 79.5841 2099.9 73.3862 L2099.9 27.2059 M2099.9 9.54393 L2107.36 9.54393 L2107.36 18.9825 L2099.9 18.9825 L2099.9 9.54393 Z" fill="#000000" fill-rule="nonzero" fill-opacity="1" /><path clip-path="url(#clip690)" d="M2143.57 49.7694 Q2134.54 49.7694 2131.05 51.8354 Q2127.57 53.9013 2127.57 58.8839 Q2127.57 62.8538 2130.16 65.2034 Q2132.8 67.5124 2137.29 67.5124 Q2143.49 67.5124 2147.22 63.1374 Q2150.99 58.7219 2150.99 51.4303 L2150.99 49.7694 L2143.57 49.7694 M2158.44 46.6907 L2158.44 72.576 L2150.99 72.576 L2150.99 65.6895 Q2148.43 69.8214 2144.63 71.8063 Q2140.82 73.7508 2135.31 73.7508 Q2128.34 73.7508 2124.21 69.8619 Q2120.12 65.9325 2120.12 59.3701 Q2120.12 51.7138 2125.22 47.825 Q2130.37 43.9361 2140.53 43.9361 L2150.99 43.9361 L2150.99 43.2069 Q2150.99 38.0623 2147.58 35.2672 Q2144.22 32.4315 2138.1 32.4315 Q2134.21 32.4315 2130.53 33.3632 Q2126.84 34.295 2123.44 36.1584 L2123.44 29.2718 Q2127.53 27.692 2131.38 26.9223 Q2135.23 26.1121 2138.87 26.1121 Q2148.72 26.1121 2153.58 31.2163 Q2158.44 36.3204 2158.44 46.6907 Z" fill="#000000" fill-rule="nonzero" fill-opacity="1" /><path clip-path="url(#clip690)" d="M2173.79 27.2059 L2181.25 27.2059 L2181.25 72.576 L2173.79 72.576 L2173.79 27.2059 M2173.79 9.54393 L2181.25 9.54393 L2181.25 18.9825 L2173.79 18.9825 L2173.79 9.54393 Z" fill="#000000" fill-rule="nonzero" fill-opacity="1" /><path clip-path="url(#clip690)" d="M2234.56 45.1919 L2234.56 72.576 L2227.1 72.576 L2227.1 45.4349 Q2227.1 38.994 2224.59 35.7938 Q2222.08 32.5936 2217.06 32.5936 Q2211.02 32.5936 2207.54 36.4419 Q2204.05 40.2903 2204.05 46.9338 L2204.05 72.576 L2196.56 72.576 L2196.56 27.2059 L2204.05 27.2059 L2204.05 34.2544 Q2206.73 30.163 2210.33 28.1376 Q2213.98 26.1121 2218.72 26.1121 Q2226.53 26.1121 2230.55 30.9732 Q2234.56 35.7938 2234.56 45.1919 Z" fill="#000000" fill-rule="nonzero" fill-opacity="1" /><path clip-path="url(#clip690)" d="M2248.25 9.62495 L2254.73 9.62495 Q2260.81 19.1851 2263.8 28.3401 Q2266.84 37.4952 2266.84 46.5287 Q2266.84 55.6027 2263.8 64.7983 Q2260.81 73.9938 2254.73 83.5134 L2248.25 83.5134 Q2253.64 74.2369 2256.27 65.0818 Q2258.94 55.8863 2258.94 46.5287 Q2258.94 37.1711 2256.27 28.0566 Q2253.64 18.942 2248.25 9.62495 Z" fill="#000000" fill-rule="nonzero" fill-opacity="1" /><polyline clip-path="url(#clip692)" style="stroke:#009af9; stroke-linecap:round; stroke-linejoin:round; stroke-width:4; stroke-opacity:1; fill:none" points="424.276,1386.4 632.31,1367.2 840.345,1332.11 1048.38,1335.76 1256.41,1175.71 1464.45,1026.74 1672.48,838.175 1880.52,807.241 2088.55,443.413 2296.59,160.256 "/>
<path clip-path="url(#clip692)" d="M424.276 1402.4 L412.964 1397.71 L408.276 1386.4 L412.964 1375.08 L424.276 1370.4 L435.588 1375.08 L440.276 1386.4 L435.588 1397.71 Z" fill="#009af9" fill-rule="evenodd" fill-opacity="1" stroke="#000000" stroke-opacity="1" stroke-width="3.2"/>
<path clip-path="url(#clip692)" d="M632.31 1383.2 L620.998 1378.51 L616.31 1367.2 L620.998 1355.89 L632.31 1351.2 L643.622 1355.89 L648.31 1367.2 L643.622 1378.51 Z" fill="#009af9" fill-rule="evenodd" fill-opacity="1" stroke="#000000" stroke-opacity="1" stroke-width="3.2"/>
<path clip-path="url(#clip692)" d="M840.345 1348.11 L829.033 1343.43 L824.345 1332.11 L829.033 1320.8 L840.345 1316.11 L851.657 1320.8 L856.345 1332.11 L851.657 1343.43 Z" fill="#009af9" fill-rule="evenodd" fill-opacity="1" stroke="#000000" stroke-opacity="1" stroke-width="3.2"/>
<path clip-path="url(#clip692)" d="M1048.38 1351.76 L1037.07 1347.08 L1032.38 1335.76 L1037.07 1324.45 L1048.38 1319.76 L1059.69 1324.45 L1064.38 1335.76 L1059.69 1347.08 Z" fill="#009af9" fill-rule="evenodd" fill-opacity="1" stroke="#000000" stroke-opacity="1" stroke-width="3.2"/>
<path clip-path="url(#clip692)" d="M1256.41 1191.71 L1245.1 1187.02 L1240.41 1175.71 L1245.1 1164.4 L1256.41 1159.71 L1267.73 1164.4 L1272.41 1175.71 L1267.73 1187.02 Z" fill="#009af9" fill-rule="evenodd" fill-opacity="1" stroke="#000000" stroke-opacity="1" stroke-width="3.2"/>
<path clip-path="url(#clip692)" d="M1464.45 1042.74 L1453.14 1038.05 L1448.45 1026.74 L1453.14 1015.43 L1464.45 1010.74 L1475.76 1015.43 L1480.45 1026.74 L1475.76 1038.05 Z" fill="#009af9" fill-rule="evenodd" fill-opacity="1" stroke="#000000" stroke-opacity="1" stroke-width="3.2"/>
<path clip-path="url(#clip692)" d="M1672.48 854.175 L1661.17 849.487 L1656.48 838.175 L1661.17 826.863 L1672.48 822.175 L1683.79 826.863 L1688.48 838.175 L1683.79 849.487 Z" fill="#009af9" fill-rule="evenodd" fill-opacity="1" stroke="#000000" stroke-opacity="1" stroke-width="3.2"/>
<path clip-path="url(#clip692)" d="M1880.52 823.241 L1869.21 818.553 L1864.52 807.241 L1869.21 795.929 L1880.52 791.241 L1891.83 795.929 L1896.52 807.241 L1891.83 818.553 Z" fill="#009af9" fill-rule="evenodd" fill-opacity="1" stroke="#000000" stroke-opacity="1" stroke-width="3.2"/>
<path clip-path="url(#clip692)" d="M2088.55 459.413 L2077.24 454.725 L2072.55 443.413 L2077.24 432.101 L2088.55 427.413 L2099.86 432.101 L2104.55 443.413 L2099.86 454.725 Z" fill="#009af9" fill-rule="evenodd" fill-opacity="1" stroke="#000000" stroke-opacity="1" stroke-width="3.2"/>
<path clip-path="url(#clip692)" d="M2296.59 176.256 L2285.27 171.568 L2280.59 160.256 L2285.27 148.944 L2296.59 144.256 L2307.9 148.944 L2312.59 160.256 L2307.9 171.568 Z" fill="#009af9" fill-rule="evenodd" fill-opacity="1" stroke="#000000" stroke-opacity="1" stroke-width="3.2"/>
<path clip-path="url(#clip690)" d="M434.261 270.476 L685.156 270.476 L685.156 166.796 L434.261 166.796  Z" fill="#ffffff" fill-rule="evenodd" fill-opacity="1"/>
<polyline clip-path="url(#clip690)" style="stroke:#000000; stroke-linecap:round; stroke-linejoin:round; stroke-width:4; stroke-opacity:1; fill:none" points="434.261,270.476 685.156,270.476 685.156,166.796 434.261,166.796 434.261,270.476 "/>
<polyline clip-path="url(#clip690)" style="stroke:#009af9; stroke-linecap:round; stroke-linejoin:round; stroke-width:4; stroke-opacity:1; fill:none" points="456.313,218.636 588.623,218.636 "/>
<path clip-path="url(#clip690)" d="M522.468 239.054 L508.032 233.071 L502.05 218.636 L508.032 204.2 L522.468 198.218 L536.904 204.2 L542.886 218.636 L536.904 233.071 Z" fill="#009af9" fill-rule="evenodd" fill-opacity="1" stroke="#000000" stroke-opacity="1" stroke-width="4.55111"/>
<path clip-path="url(#clip690)" d="M624.517 238.323 Q622.711 242.953 620.999 244.365 Q619.286 245.777 616.415 245.777 L613.012 245.777 L613.012 242.212 L615.512 242.212 Q617.272 242.212 618.244 241.379 Q619.216 240.545 620.397 237.443 L621.161 235.499 L610.675 209.99 L615.188 209.99 L623.29 230.268 L631.392 209.99 L635.906 209.99 L624.517 238.323 Z" fill="#000000" fill-rule="nonzero" fill-opacity="1" /><path clip-path="url(#clip690)" d="M643.197 231.981 L650.836 231.981 L650.836 205.615 L642.526 207.282 L642.526 203.022 L650.79 201.356 L655.466 201.356 L655.466 231.981 L663.105 231.981 L663.105 235.916 L643.197 235.916 L643.197 231.981 Z" fill="#000000" fill-rule="nonzero" fill-opacity="1" /></svg>
