<?xml version="1.0" encoding="utf-8"?>
<svg xmlns="http://www.w3.org/2000/svg" xmlns:xlink="http://www.w3.org/1999/xlink" width="600" height="400" viewBox="0 0 2400 1600">
<defs>
  <clipPath id="clip090">
    <rect x="0" y="0" width="2400" height="1600"/>
  </clipPath>
</defs>
<path clip-path="url(#clip090)" d="M0 1600 L2400 1600 L2400 0 L0 0  Z" fill="#ffffff" fill-rule="evenodd" fill-opacity="1"/>
<defs>
  <clipPath id="clip091">
    <rect x="480" y="0" width="1681" height="1600"/>
  </clipPath>
</defs>
<path clip-path="url(#clip090)" d="M368.106 1423.18 L2352.76 1423.18 L2352.76 123.472 L368.106 123.472  Z" fill="#ffffff" fill-rule="evenodd" fill-opacity="1"/>
<defs>
  <clipPath id="clip092">
    <rect x="368" y="123" width="1986" height="1301"/>
  </clipPath>
</defs>
<polyline clip-path="url(#clip092)" style="stroke:#000000; stroke-linecap:round; stroke-linejoin:round; stroke-width:2; stroke-opacity:0.1; fill:none" points="632.31,1423.18 632.31,123.472 "/>
<polyline clip-path="url(#clip092)" style="stroke:#000000; stroke-linecap:round; stroke-linejoin:round; stroke-width:2; stroke-opacity:0.1; fill:none" points="1048.38,1423.18 1048.38,123.472 "/>
<polyline clip-path="url(#clip092)" style="stroke:#000000; stroke-linecap:round; stroke-linejoin:round; stroke-width:2; stroke-opacity:0.1; fill:none" points="1464.45,1423.18 1464.45,123.472 "/>
<polyline clip-path="url(#clip092)" style="stroke:#000000; stroke-linecap:round; stroke-linejoin:round; stroke-width:2; stroke-opacity:0.1; fill:none" points="1880.52,1423.18 1880.52,123.472 "/>
<polyline clip-path="url(#clip092)" style="stroke:#000000; stroke-linecap:round; stroke-linejoin:round; stroke-width:2; stroke-opacity:0.1; fill:none" points="2296.59,1423.18 2296.59,123.472 "/>
<polyline clip-path="url(#clip092)" style="stroke:#000000; stroke-linecap:round; stroke-linejoin:round; stroke-width:2; stroke-opacity:0.1; fill:none" points="368.106,1237.1 2352.76,1237.1 "/>
<polyline clip-path="url(#clip092)" style="stroke:#000000; stroke-linecap:round; stroke-linejoin:round; stroke-width:2; stroke-opacity:0.1; fill:none" points="368.106,997.072 2352.76,997.072 "/>
<polyline clip-path="url(#clip092)" style="stroke:#000000; stroke-linecap:round; stroke-linejoin:round; stroke-width:2; stroke-opacity:0.1; fill:none" points="368.106,757.042 2352.76,757.042 "/>
<polyline clip-path="url(#clip092)" style="stroke:#000000; stroke-linecap:round; stroke-linejoin:round; stroke-width:2; stroke-opacity:0.1; fill:none" points="368.106,517.012 2352.76,517.012 "/>
<polyline clip-path="url(#clip092)" style="stroke:#000000; stroke-linecap:round; stroke-linejoin:round; stroke-width:2; stroke-opacity:0.1; fill:none" points="368.106,276.982 2352.76,276.982 "/>
<polyline clip-path="url(#clip090)" style="stroke:#000000; stroke-linecap:round; stroke-linejoin:round; stroke-width:4; stroke-opacity:1; fill:none" points="368.106,1423.18 2352.76,1423.18 "/>
<polyline clip-path="url(#clip090)" style="stroke:#000000; stroke-linecap:round; stroke-linejoin:round; stroke-width:4; stroke-opacity:1; fill:none" points="632.31,1423.18 632.31,1404.28 "/>
<polyline clip-path="url(#clip090)" style="stroke:#000000; stroke-linecap:round; stroke-linejoin:round; stroke-width:4; stroke-opacity:1; fill:none" points="1048.38,1423.18 1048.38,1404.28 "/>
<polyline clip-path="url(#clip090)" style="stroke:#000000; stroke-linecap:round; stroke-linejoin:round; stroke-width:4; stroke-opacity:1; fill:none" points="1464.45,1423.18 1464.45,1404.28 "/>
<polyline clip-path="url(#clip090)" style="stroke:#000000; stroke-linecap:round; stroke-linejoin:round; stroke-width:4; stroke-opacity:1; fill:none" points="1880.52,1423.18 1880.52,1404.28 "/>
<polyline clip-path="url(#clip090)" style="stroke:#000000; stroke-linecap:round; stroke-linejoin:round; stroke-width:4; stroke-opacity:1; fill:none" points="2296.59,1423.18 2296.59,1404.28 "/>
<path clip-path="url(#clip090)" d="M626.963 1481.64 L643.282 1481.64 L643.282 1485.58 L621.338 1485.58 L621.338 1481.64 Q624 1478.89 628.583 1474.26 Q633.19 1469.61 634.37 1468.27 Q636.616 1465.74 637.495 1464.01 Q638.398 1462.25 638.398 1460.56 Q638.398 1457.8 636.454 1456.07 Q634.532 1454.33 631.43 1454.33 Q629.231 1454.33 626.778 1455.09 Q624.347 1455.86 621.569 1457.41 L621.569 1452.69 Q624.393 1451.55 626.847 1450.97 Q629.301 1450.39 631.338 1450.39 Q636.708 1450.39 639.903 1453.08 Q643.097 1455.77 643.097 1460.26 Q643.097 1462.39 642.287 1464.31 Q641.5 1466.2 639.393 1468.8 Q638.815 1469.47 635.713 1472.69 Q632.611 1475.88 626.963 1481.64 Z" fill="#000000" fill-rule="nonzero" fill-opacity="1" /><path clip-path="url(#clip090)" d="M1051.39 1455.09 L1039.58 1473.54 L1051.39 1473.54 L1051.39 1455.09 M1050.16 1451.02 L1056.04 1451.02 L1056.04 1473.54 L1060.97 1473.54 L1060.97 1477.43 L1056.04 1477.43 L1056.04 1485.58 L1051.39 1485.58 L1051.39 1477.43 L1035.79 1477.43 L1035.79 1472.92 L1050.16 1451.02 Z" fill="#000000" fill-rule="nonzero" fill-opacity="1" /><path clip-path="url(#clip090)" d="M1464.85 1466.44 Q1461.71 1466.44 1459.85 1468.59 Q1458.02 1470.74 1458.02 1474.49 Q1458.02 1478.22 1459.85 1480.39 Q1461.71 1482.55 1464.85 1482.55 Q1468 1482.55 1469.83 1480.39 Q1471.68 1478.22 1471.68 1474.49 Q1471.68 1470.74 1469.83 1468.59 Q1468 1466.44 1464.85 1466.44 M1474.14 1451.78 L1474.14 1456.04 Q1472.38 1455.21 1470.57 1454.77 Q1468.79 1454.33 1467.03 1454.33 Q1462.4 1454.33 1459.95 1457.45 Q1457.52 1460.58 1457.17 1466.9 Q1458.53 1464.89 1460.59 1463.82 Q1462.65 1462.73 1465.13 1462.73 Q1470.34 1462.73 1473.35 1465.9 Q1476.38 1469.05 1476.38 1474.49 Q1476.38 1479.82 1473.23 1483.03 Q1470.08 1486.25 1464.85 1486.25 Q1458.86 1486.25 1455.69 1481.67 Q1452.52 1477.06 1452.52 1468.33 Q1452.52 1460.14 1456.4 1455.28 Q1460.29 1450.39 1466.84 1450.39 Q1468.6 1450.39 1470.39 1450.74 Q1472.19 1451.09 1474.14 1451.78 Z" fill="#000000" fill-rule="nonzero" fill-opacity="1" /><path clip-path="url(#clip090)" d="M1880.52 1469.17 Q1877.18 1469.17 1875.26 1470.95 Q1873.36 1472.73 1873.36 1475.86 Q1873.36 1478.98 1875.26 1480.77 Q1877.18 1482.55 1880.52 1482.55 Q1883.85 1482.55 1885.77 1480.77 Q1887.69 1478.96 1887.69 1475.86 Q1887.69 1472.73 1885.77 1470.95 Q1883.87 1469.17 1880.52 1469.17 M1875.84 1467.18 Q1872.83 1466.44 1871.14 1464.38 Q1869.48 1462.32 1869.48 1459.35 Q1869.48 1455.21 1872.42 1452.8 Q1875.38 1450.39 1880.52 1450.39 Q1885.68 1450.39 1888.62 1452.8 Q1891.56 1455.21 1891.56 1459.35 Q1891.56 1462.32 1889.87 1464.38 Q1888.2 1466.44 1885.22 1467.18 Q1888.6 1467.96 1890.47 1470.26 Q1892.37 1472.55 1892.37 1475.86 Q1892.37 1480.88 1889.29 1483.57 Q1886.24 1486.25 1880.52 1486.25 Q1874.8 1486.25 1871.72 1483.57 Q1868.67 1480.88 1868.67 1475.86 Q1868.67 1472.55 1870.56 1470.26 Q1872.46 1467.96 1875.84 1467.18 M1874.13 1459.79 Q1874.13 1462.48 1875.8 1463.98 Q1877.49 1465.49 1880.52 1465.49 Q1883.53 1465.49 1885.22 1463.98 Q1886.93 1462.48 1886.93 1459.79 Q1886.93 1457.11 1885.22 1455.6 Q1883.53 1454.1 1880.52 1454.1 Q1877.49 1454.1 1875.8 1455.6 Q1874.13 1457.11 1874.13 1459.79 Z" fill="#000000" fill-rule="nonzero" fill-opacity="1" /><path clip-path="url(#clip090)" d="M2271.27 1481.64 L2278.91 1481.64 L2278.91 1455.28 L2270.6 1456.95 L2270.6 1452.69 L2278.87 1451.02 L2283.54 1451.02 L2283.54 1481.64 L2291.18 1481.64 L2291.18 1485.58 L2271.27 1485.58 L2271.27 1481.64 Z" fill="#000000" fill-rule="nonzero" fill-opacity="1" /><path clip-path="url(#clip090)" d="M2310.63 1454.1 Q2307.01 1454.1 2305.19 1457.66 Q2303.38 1461.2 2303.38 1468.33 Q2303.38 1475.44 2305.19 1479.01 Q2307.01 1482.55 2310.63 1482.55 Q2314.26 1482.55 2316.07 1479.01 Q2317.89 1475.44 2317.89 1468.33 Q2317.89 1461.2 2316.07 1457.66 Q2314.26 1454.1 2310.63 1454.1 M2310.63 1450.39 Q2316.44 1450.39 2319.49 1455 Q2322.57 1459.58 2322.57 1468.33 Q2322.57 1477.06 2319.49 1481.67 Q2316.44 1486.25 2310.63 1486.25 Q2304.82 1486.25 2301.74 1481.67 Q2298.68 1477.06 2298.68 1468.33 Q2298.68 1459.58 2301.74 1455 Q2304.82 1450.39 2310.63 1450.39 Z" fill="#000000" fill-rule="nonzero" fill-opacity="1" /><path clip-path="url(#clip090)" d="M1228.15 1520.52 L1234.58 1520.52 L1234.58 1568.04 L1228.15 1568.04 L1228.15 1520.52 Z" fill="#000000" fill-rule="nonzero" fill-opacity="1" /><path clip-path="url(#clip090)" d="M1252.91 1522.27 L1252.91 1532.4 L1264.98 1532.4 L1264.98 1536.95 L1252.91 1536.95 L1252.91 1556.3 Q1252.91 1560.66 1254.09 1561.9 Q1255.3 1563.14 1258.96 1563.14 L1264.98 1563.14 L1264.98 1568.04 L1258.96 1568.04 Q1252.18 1568.04 1249.6 1565.53 Q1247.03 1562.98 1247.03 1556.3 L1247.03 1536.95 L1242.73 1536.95 L1242.73 1532.4 L1247.03 1532.4 L1247.03 1522.27 L1252.91 1522.27 Z" fill="#000000" fill-rule="nonzero" fill-opacity="1" /><path clip-path="url(#clip090)" d="M1303.17 1548.76 L1303.17 1551.62 L1276.24 1551.62 Q1276.63 1557.67 1279.87 1560.85 Q1283.15 1564 1288.98 1564 Q1292.35 1564 1295.5 1563.17 Q1298.68 1562.35 1301.8 1560.69 L1301.8 1566.23 Q1298.65 1567.57 1295.34 1568.27 Q1292.03 1568.97 1288.63 1568.97 Q1280.1 1568.97 1275.1 1564 Q1270.13 1559.04 1270.13 1550.57 Q1270.13 1541.82 1274.84 1536.69 Q1279.59 1531.54 1287.61 1531.54 Q1294.8 1531.54 1298.97 1536.18 Q1303.17 1540.8 1303.17 1548.76 M1297.32 1547.04 Q1297.25 1542.23 1294.61 1539.37 Q1292 1536.5 1287.67 1536.5 Q1282.77 1536.5 1279.81 1539.27 Q1276.88 1542.04 1276.44 1547.07 L1297.32 1547.04 Z" fill="#000000" fill-rule="nonzero" fill-opacity="1" /><path clip-path="url(#clip090)" d="M1333.44 1537.87 Q1332.45 1537.3 1331.28 1537.04 Q1330.13 1536.76 1328.73 1536.76 Q1323.76 1536.76 1321.09 1540 Q1318.45 1543.22 1318.45 1549.27 L1318.45 1568.04 L1312.56 1568.04 L1312.56 1532.4 L1318.45 1532.4 L1318.45 1537.93 Q1320.3 1534.69 1323.26 1533.13 Q1326.22 1531.54 1330.45 1531.54 Q1331.05 1531.54 1331.79 1531.63 Q1332.52 1531.7 1333.41 1531.85 L1333.44 1537.87 Z" fill="#000000" fill-rule="nonzero" fill-opacity="1" /><path clip-path="url(#clip090)" d="M1355.78 1550.12 Q1348.69 1550.12 1345.95 1551.75 Q1343.21 1553.37 1343.21 1557.29 Q1343.21 1560.4 1345.25 1562.25 Q1347.32 1564.07 1350.85 1564.07 Q1355.72 1564.07 1358.65 1560.63 Q1361.61 1557.16 1361.61 1551.43 L1361.61 1550.12 L1355.78 1550.12 M1367.47 1547.71 L1367.47 1568.04 L1361.61 1568.04 L1361.61 1562.63 Q1359.6 1565.88 1356.61 1567.44 Q1353.62 1568.97 1349.29 1568.97 Q1343.82 1568.97 1340.57 1565.91 Q1337.36 1562.82 1337.36 1557.67 Q1337.36 1551.65 1341.37 1548.6 Q1345.41 1545.54 1353.4 1545.54 L1361.61 1545.54 L1361.61 1544.97 Q1361.61 1540.93 1358.94 1538.73 Q1356.29 1536.5 1351.49 1536.5 Q1348.43 1536.5 1345.54 1537.23 Q1342.64 1537.97 1339.97 1539.43 L1339.97 1534.02 Q1343.18 1532.78 1346.2 1532.17 Q1349.23 1531.54 1352.09 1531.54 Q1359.83 1531.54 1363.65 1535.55 Q1367.47 1539.56 1367.47 1547.71 Z" fill="#000000" fill-rule="nonzero" fill-opacity="1" /><path clip-path="url(#clip090)" d="M1385.32 1522.27 L1385.32 1532.4 L1397.38 1532.4 L1397.38 1536.95 L1385.32 1536.95 L1385.32 1556.3 Q1385.32 1560.66 1386.5 1561.9 Q1387.71 1563.14 1391.37 1563.14 L1397.38 1563.14 L1397.38 1568.04 L1391.37 1568.04 Q1384.59 1568.04 1382.01 1565.53 Q1379.43 1562.98 1379.43 1556.3 L1379.43 1536.95 L1375.14 1536.95 L1375.14 1532.4 L1379.43 1532.4 L1379.43 1522.27 L1385.32 1522.27 Z" fill="#000000" fill-rule="nonzero" fill-opacity="1" /><path clip-path="url(#clip090)" d="M1405.09 1532.4 L1410.94 1532.4 L1410.94 1568.04 L1405.09 1568.04 L1405.09 1532.4 M1405.09 1518.52 L1410.94 1518.52 L1410.94 1525.93 L1405.09 1525.93 L1405.09 1518.52 Z" fill="#000000" fill-rule="nonzero" fill-opacity="1" /><path clip-path="url(#clip090)" d="M1437.01 1536.5 Q1432.3 1536.5 1429.56 1540.19 Q1426.83 1543.85 1426.83 1550.25 Q1426.83 1556.65 1429.53 1560.34 Q1432.27 1564 1437.01 1564 Q1441.69 1564 1444.43 1560.31 Q1447.16 1556.62 1447.16 1550.25 Q1447.16 1543.92 1444.43 1540.23 Q1441.69 1536.5 1437.01 1536.5 M1437.01 1531.54 Q1444.65 1531.54 1449.01 1536.5 Q1453.37 1541.47 1453.37 1550.25 Q1453.37 1559 1449.01 1564 Q1444.65 1568.97 1437.01 1568.97 Q1429.34 1568.97 1424.98 1564 Q1420.65 1559 1420.65 1550.25 Q1420.65 1541.47 1424.98 1536.5 Q1429.34 1531.54 1437.01 1531.54 Z" fill="#000000" fill-rule="nonzero" fill-opacity="1" /><path clip-path="url(#clip090)" d="M1492.71 1546.53 L1492.71 1568.04 L1486.85 1568.04 L1486.85 1546.72 Q1486.85 1541.66 1484.88 1539.14 Q1482.91 1536.63 1478.96 1536.63 Q1474.22 1536.63 1471.48 1539.65 Q1468.74 1542.68 1468.74 1547.9 L1468.74 1568.04 L1462.86 1568.04 L1462.86 1532.4 L1468.74 1532.4 L1468.74 1537.93 Q1470.84 1534.72 1473.68 1533.13 Q1476.54 1531.54 1480.27 1531.54 Q1486.41 1531.54 1489.56 1535.36 Q1492.71 1539.14 1492.71 1546.53 Z" fill="#000000" fill-rule="nonzero" fill-opacity="1" /><polyline clip-path="url(#clip090)" style="stroke:#000000; stroke-linecap:round; stroke-linejoin:round; stroke-width:4; stroke-opacity:1; fill:none" points="368.106,1423.18 368.106,123.472 "/>
<polyline clip-path="url(#clip090)" style="stroke:#000000; stroke-linecap:round; stroke-linejoin:round; stroke-width:4; stroke-opacity:1; fill:none" points="368.106,1237.1 387.004,1237.1 "/>
<polyline clip-path="url(#clip090)" style="stroke:#000000; stroke-linecap:round; stroke-linejoin:round; stroke-width:4; stroke-opacity:1; fill:none" points="368.106,997.072 387.004,997.072 "/>
<polyline clip-path="url(#clip090)" style="stroke:#000000; stroke-linecap:round; stroke-linejoin:round; stroke-width:4; stroke-opacity:1; fill:none" points="368.106,757.042 387.004,757.042 "/>
<polyline clip-path="url(#clip090)" style="stroke:#000000; stroke-linecap:round; stroke-linejoin:round; stroke-width:4; stroke-opacity:1; fill:none" points="368.106,517.012 387.004,517.012 "/>
<polyline clip-path="url(#clip090)" style="stroke:#000000; stroke-linecap:round; stroke-linejoin:round; stroke-width:4; stroke-opacity:1; fill:none" points="368.106,276.982 387.004,276.982 "/>
<path clip-path="url(#clip090)" d="M115.024 1250.45 L122.663 1250.45 L122.663 1224.08 L114.353 1225.75 L114.353 1221.49 L122.617 1219.82 L127.292 1219.82 L127.292 1250.45 L134.931 1250.45 L134.931 1254.38 L115.024 1254.38 L115.024 1250.45 Z" fill="#000000" fill-rule="nonzero" fill-opacity="1" /><path clip-path="url(#clip090)" d="M144.422 1219.82 L162.778 1219.82 L162.778 1223.76 L148.704 1223.76 L148.704 1232.23 Q149.723 1231.88 150.741 1231.72 Q151.76 1231.54 152.778 1231.54 Q158.565 1231.54 161.945 1234.71 Q165.325 1237.88 165.325 1243.29 Q165.325 1248.87 161.852 1251.98 Q158.38 1255.05 152.061 1255.05 Q149.885 1255.05 147.616 1254.68 Q145.371 1254.31 142.964 1253.57 L142.964 1248.87 Q145.047 1250.01 147.269 1250.56 Q149.491 1251.12 151.968 1251.12 Q155.973 1251.12 158.311 1249.01 Q160.649 1246.91 160.649 1243.29 Q160.649 1239.68 158.311 1237.58 Q155.973 1235.47 151.968 1235.47 Q150.093 1235.47 148.218 1235.89 Q146.366 1236.3 144.422 1237.18 L144.422 1219.82 Z" fill="#000000" fill-rule="nonzero" fill-opacity="1" /><path clip-path="url(#clip090)" d="M184.538 1222.9 Q180.926 1222.9 179.098 1226.47 Q177.292 1230.01 177.292 1237.14 Q177.292 1244.24 179.098 1247.81 Q180.926 1251.35 184.538 1251.35 Q188.172 1251.35 189.977 1247.81 Q191.806 1244.24 191.806 1237.14 Q191.806 1230.01 189.977 1226.47 Q188.172 1222.9 184.538 1222.9 M184.538 1219.2 Q190.348 1219.2 193.403 1223.8 Q196.482 1228.39 196.482 1237.14 Q196.482 1245.86 193.403 1250.47 Q190.348 1255.05 184.538 1255.05 Q178.727 1255.05 175.649 1250.47 Q172.593 1245.86 172.593 1237.14 Q172.593 1228.39 175.649 1223.8 Q178.727 1219.2 184.538 1219.2 Z" fill="#000000" fill-rule="nonzero" fill-opacity="1" /><path clip-path="url(#clip090)" d="M217.547 1223.9 L205.741 1242.35 L217.547 1242.35 L217.547 1223.9 M216.32 1219.82 L222.199 1219.82 L222.199 1242.35 L227.13 1242.35 L227.13 1246.23 L222.199 1246.23 L222.199 1254.38 L217.547 1254.38 L217.547 1246.23 L201.945 1246.23 L201.945 1241.72 L216.32 1219.82 Z" fill="#000000" fill-rule="nonzero" fill-opacity="1" /><path clip-path="url(#clip090)" d="M234.861 1248.5 L239.746 1248.5 L239.746 1254.38 L234.861 1254.38 L234.861 1248.5 Z" fill="#000000" fill-rule="nonzero" fill-opacity="1" /><path clip-path="url(#clip090)" d="M249.977 1219.82 L268.333 1219.82 L268.333 1223.76 L254.259 1223.76 L254.259 1232.23 Q255.278 1231.88 256.296 1231.72 Q257.315 1231.54 258.333 1231.54 Q264.12 1231.54 267.5 1234.71 Q270.88 1237.88 270.88 1243.29 Q270.88 1248.87 267.407 1251.98 Q263.935 1255.05 257.616 1255.05 Q255.44 1255.05 253.171 1254.68 Q250.926 1254.31 248.519 1253.57 L248.519 1248.87 Q250.602 1250.01 252.824 1250.56 Q255.046 1251.12 257.523 1251.12 Q261.528 1251.12 263.866 1249.01 Q266.204 1246.91 266.204 1243.29 Q266.204 1239.68 263.866 1237.58 Q261.528 1235.47 257.523 1235.47 Q255.648 1235.47 253.773 1235.89 Q251.921 1236.3 249.977 1237.18 L249.977 1219.82 Z" fill="#000000" fill-rule="nonzero" fill-opacity="1" /><path clip-path="url(#clip090)" d="M284.12 1250.45 L300.44 1250.45 L300.44 1254.38 L278.495 1254.38 L278.495 1250.45 Q281.157 1247.69 285.741 1243.06 Q290.347 1238.41 291.528 1237.07 Q293.773 1234.54 294.653 1232.81 Q295.555 1231.05 295.555 1229.36 Q295.555 1226.6 293.611 1224.87 Q291.69 1223.13 288.588 1223.13 Q286.389 1223.13 283.935 1223.9 Q281.505 1224.66 278.727 1226.21 L278.727 1221.49 Q281.551 1220.35 284.005 1219.78 Q286.458 1219.2 288.495 1219.2 Q293.866 1219.2 297.06 1221.88 Q300.255 1224.57 300.255 1229.06 Q300.255 1231.19 299.444 1233.11 Q298.657 1235.01 296.551 1237.6 Q295.972 1238.27 292.87 1241.49 Q289.768 1244.68 284.12 1250.45 Z" fill="#000000" fill-rule="nonzero" fill-opacity="1" /><path clip-path="url(#clip090)" d="M320.254 1237.97 Q316.921 1237.97 315 1239.75 Q313.102 1241.54 313.102 1244.66 Q313.102 1247.79 315 1249.57 Q316.921 1251.35 320.254 1251.35 Q323.588 1251.35 325.509 1249.57 Q327.43 1247.76 327.43 1244.66 Q327.43 1241.54 325.509 1239.75 Q323.611 1237.97 320.254 1237.97 M315.579 1235.98 Q312.569 1235.24 310.879 1233.18 Q309.213 1231.12 309.213 1228.16 Q309.213 1224.01 312.153 1221.6 Q315.116 1219.2 320.254 1219.2 Q325.416 1219.2 328.356 1221.6 Q331.296 1224.01 331.296 1228.16 Q331.296 1231.12 329.606 1233.18 Q327.94 1235.24 324.953 1235.98 Q328.333 1236.77 330.208 1239.06 Q332.106 1241.35 332.106 1244.66 Q332.106 1249.68 329.028 1252.37 Q325.972 1255.05 320.254 1255.05 Q314.537 1255.05 311.458 1252.37 Q308.403 1249.68 308.403 1244.66 Q308.403 1241.35 310.301 1239.06 Q312.199 1236.77 315.579 1235.98 M313.866 1228.6 Q313.866 1231.28 315.532 1232.79 Q317.222 1234.29 320.254 1234.29 Q323.264 1234.29 324.953 1232.79 Q326.666 1231.28 326.666 1228.6 Q326.666 1225.91 324.953 1224.41 Q323.264 1222.9 320.254 1222.9 Q317.222 1222.9 315.532 1224.41 Q313.866 1225.91 313.866 1228.6 Z" fill="#000000" fill-rule="nonzero" fill-opacity="1" /><path clip-path="url(#clip090)" d="M115.117 1010.42 L122.755 1010.42 L122.755 984.052 L114.445 985.718 L114.445 981.459 L122.709 979.792 L127.385 979.792 L127.385 1010.42 L135.024 1010.42 L135.024 1014.35 L115.117 1014.35 L115.117 1010.42 Z" fill="#000000" fill-rule="nonzero" fill-opacity="1" /><path clip-path="url(#clip090)" d="M144.515 979.792 L162.871 979.792 L162.871 983.728 L148.797 983.728 L148.797 992.2 Q149.816 991.852 150.834 991.69 Q151.853 991.505 152.871 991.505 Q158.658 991.505 162.038 994.677 Q165.417 997.848 165.417 1003.26 Q165.417 1008.84 161.945 1011.94 Q158.473 1015.02 152.153 1015.02 Q149.978 1015.02 147.709 1014.65 Q145.464 1014.28 143.056 1013.54 L143.056 1008.84 Q145.14 1009.98 147.362 1010.53 Q149.584 1011.09 152.061 1011.09 Q156.065 1011.09 158.403 1008.98 Q160.741 1006.88 160.741 1003.26 Q160.741 999.653 158.403 997.547 Q156.065 995.44 152.061 995.44 Q150.186 995.44 148.311 995.857 Q146.459 996.274 144.515 997.153 L144.515 979.792 Z" fill="#000000" fill-rule="nonzero" fill-opacity="1" /><path clip-path="url(#clip090)" d="M184.63 982.871 Q181.019 982.871 179.19 986.436 Q177.385 989.977 177.385 997.107 Q177.385 1004.21 179.19 1007.78 Q181.019 1011.32 184.63 1011.32 Q188.264 1011.32 190.07 1007.78 Q191.899 1004.21 191.899 997.107 Q191.899 989.977 190.07 986.436 Q188.264 982.871 184.63 982.871 M184.63 979.167 Q190.44 979.167 193.496 983.774 Q196.575 988.357 196.575 997.107 Q196.575 1005.83 193.496 1010.44 Q190.44 1015.02 184.63 1015.02 Q178.82 1015.02 175.741 1010.44 Q172.686 1005.83 172.686 997.107 Q172.686 988.357 175.741 983.774 Q178.82 979.167 184.63 979.167 Z" fill="#000000" fill-rule="nonzero" fill-opacity="1" /><path clip-path="url(#clip090)" d="M217.639 983.866 L205.834 1002.32 L217.639 1002.32 L217.639 983.866 M216.412 979.792 L222.292 979.792 L222.292 1002.32 L227.223 1002.32 L227.223 1006.2 L222.292 1006.2 L222.292 1014.35 L217.639 1014.35 L217.639 1006.2 L202.037 1006.2 L202.037 1001.69 L216.412 979.792 Z" fill="#000000" fill-rule="nonzero" fill-opacity="1" /><path clip-path="url(#clip090)" d="M234.954 1008.47 L239.838 1008.47 L239.838 1014.35 L234.954 1014.35 L234.954 1008.47 Z" fill="#000000" fill-rule="nonzero" fill-opacity="1" /><path clip-path="url(#clip090)" d="M250.07 979.792 L268.426 979.792 L268.426 983.728 L254.352 983.728 L254.352 992.2 Q255.371 991.852 256.389 991.69 Q257.408 991.505 258.426 991.505 Q264.213 991.505 267.593 994.677 Q270.972 997.848 270.972 1003.26 Q270.972 1008.84 267.5 1011.94 Q264.028 1015.02 257.708 1015.02 Q255.533 1015.02 253.264 1014.65 Q251.019 1014.28 248.611 1013.54 L248.611 1008.84 Q250.695 1009.98 252.917 1010.53 Q255.139 1011.09 257.616 1011.09 Q261.62 1011.09 263.958 1008.98 Q266.296 1006.88 266.296 1003.26 Q266.296 999.653 263.958 997.547 Q261.62 995.44 257.616 995.44 Q255.741 995.44 253.866 995.857 Q252.014 996.274 250.07 997.153 L250.07 979.792 Z" fill="#000000" fill-rule="nonzero" fill-opacity="1" /><path clip-path="url(#clip090)" d="M284.213 1010.42 L300.532 1010.42 L300.532 1014.35 L278.588 1014.35 L278.588 1010.42 Q281.25 1007.66 285.833 1003.03 Q290.44 998.38 291.62 997.038 Q293.866 994.514 294.745 992.778 Q295.648 991.019 295.648 989.329 Q295.648 986.575 293.704 984.839 Q291.782 983.103 288.681 983.103 Q286.481 983.103 284.028 983.866 Q281.597 984.63 278.819 986.181 L278.819 981.459 Q281.644 980.325 284.097 979.746 Q286.551 979.167 288.588 979.167 Q293.958 979.167 297.153 981.853 Q300.347 984.538 300.347 989.028 Q300.347 991.158 299.537 993.079 Q298.75 994.977 296.643 997.57 Q296.065 998.241 292.963 1001.46 Q289.861 1004.65 284.213 1010.42 Z" fill="#000000" fill-rule="nonzero" fill-opacity="1" /><path clip-path="url(#clip090)" d="M310.486 1013.63 L310.486 1009.38 Q312.245 1010.21 314.051 1010.65 Q315.856 1011.09 317.592 1011.09 Q322.222 1011.09 324.653 1007.99 Q327.106 1004.86 327.453 998.519 Q326.111 1000.51 324.051 1001.57 Q321.991 1002.64 319.491 1002.64 Q314.305 1002.64 311.273 999.514 Q308.264 996.366 308.264 990.927 Q308.264 985.603 311.412 982.385 Q314.56 979.167 319.791 979.167 Q325.787 979.167 328.935 983.774 Q332.106 988.357 332.106 997.107 Q332.106 1005.28 328.217 1010.16 Q324.352 1015.02 317.801 1015.02 Q316.041 1015.02 314.236 1014.68 Q312.43 1014.33 310.486 1013.63 M319.791 998.982 Q322.94 998.982 324.768 996.829 Q326.62 994.677 326.62 990.927 Q326.62 987.2 324.768 985.047 Q322.94 982.871 319.791 982.871 Q316.643 982.871 314.791 985.047 Q312.963 987.2 312.963 990.927 Q312.963 994.677 314.791 996.829 Q316.643 998.982 319.791 998.982 Z" fill="#000000" fill-rule="nonzero" fill-opacity="1" /><path clip-path="url(#clip090)" d="M114.931 770.387 L122.57 770.387 L122.57 744.021 L114.26 745.688 L114.26 741.429 L122.524 739.762 L127.2 739.762 L127.2 770.387 L134.839 770.387 L134.839 774.322 L114.931 774.322 L114.931 770.387 Z" fill="#000000" fill-rule="nonzero" fill-opacity="1" /><path clip-path="url(#clip090)" d="M144.329 739.762 L162.686 739.762 L162.686 743.697 L148.612 743.697 L148.612 752.17 Q149.63 751.822 150.649 751.66 Q151.667 751.475 152.686 751.475 Q158.473 751.475 161.852 754.646 Q165.232 757.818 165.232 763.234 Q165.232 768.813 161.76 771.915 Q158.288 774.994 151.968 774.994 Q149.792 774.994 147.524 774.623 Q145.279 774.253 142.871 773.512 L142.871 768.813 Q144.954 769.947 147.177 770.503 Q149.399 771.058 151.876 771.058 Q155.88 771.058 158.218 768.952 Q160.556 766.845 160.556 763.234 Q160.556 759.623 158.218 757.517 Q155.88 755.41 151.876 755.41 Q150.001 755.41 148.126 755.827 Q146.274 756.244 144.329 757.123 L144.329 739.762 Z" fill="#000000" fill-rule="nonzero" fill-opacity="1" /><path clip-path="url(#clip090)" d="M184.445 742.841 Q180.834 742.841 179.005 746.406 Q177.2 749.947 177.2 757.077 Q177.2 764.183 179.005 767.748 Q180.834 771.29 184.445 771.29 Q188.079 771.29 189.885 767.748 Q191.713 764.183 191.713 757.077 Q191.713 749.947 189.885 746.406 Q188.079 742.841 184.445 742.841 M184.445 739.137 Q190.255 739.137 193.311 743.744 Q196.389 748.327 196.389 757.077 Q196.389 765.804 193.311 770.41 Q190.255 774.994 184.445 774.994 Q178.635 774.994 175.556 770.41 Q172.501 765.804 172.501 757.077 Q172.501 748.327 175.556 743.744 Q178.635 739.137 184.445 739.137 Z" fill="#000000" fill-rule="nonzero" fill-opacity="1" /><path clip-path="url(#clip090)" d="M217.454 743.836 L205.649 762.285 L217.454 762.285 L217.454 743.836 M216.227 739.762 L222.107 739.762 L222.107 762.285 L227.037 762.285 L227.037 766.174 L222.107 766.174 L222.107 774.322 L217.454 774.322 L217.454 766.174 L201.852 766.174 L201.852 761.66 L216.227 739.762 Z" fill="#000000" fill-rule="nonzero" fill-opacity="1" /><path clip-path="url(#clip090)" d="M234.769 768.443 L239.653 768.443 L239.653 774.322 L234.769 774.322 L234.769 768.443 Z" fill="#000000" fill-rule="nonzero" fill-opacity="1" /><path clip-path="url(#clip090)" d="M249.884 739.762 L268.241 739.762 L268.241 743.697 L254.167 743.697 L254.167 752.17 Q255.185 751.822 256.204 751.66 Q257.222 751.475 258.241 751.475 Q264.028 751.475 267.407 754.646 Q270.787 757.818 270.787 763.234 Q270.787 768.813 267.315 771.915 Q263.843 774.994 257.523 774.994 Q255.347 774.994 253.079 774.623 Q250.833 774.253 248.426 773.512 L248.426 768.813 Q250.509 769.947 252.732 770.503 Q254.954 771.058 257.431 771.058 Q261.435 771.058 263.773 768.952 Q266.111 766.845 266.111 763.234 Q266.111 759.623 263.773 757.517 Q261.435 755.41 257.431 755.41 Q255.556 755.41 253.681 755.827 Q251.829 756.244 249.884 757.123 L249.884 739.762 Z" fill="#000000" fill-rule="nonzero" fill-opacity="1" /><path clip-path="url(#clip090)" d="M294.167 755.688 Q297.523 756.406 299.398 758.674 Q301.296 760.943 301.296 764.276 Q301.296 769.392 297.778 772.193 Q294.259 774.994 287.778 774.994 Q285.602 774.994 283.287 774.554 Q280.995 774.137 278.542 773.281 L278.542 768.767 Q280.486 769.901 282.801 770.48 Q285.116 771.058 287.639 771.058 Q292.037 771.058 294.329 769.322 Q296.643 767.586 296.643 764.276 Q296.643 761.22 294.491 759.507 Q292.361 757.771 288.542 757.771 L284.514 757.771 L284.514 753.929 L288.727 753.929 Q292.176 753.929 294.005 752.563 Q295.833 751.174 295.833 748.582 Q295.833 745.92 293.935 744.508 Q292.06 743.072 288.542 743.072 Q286.62 743.072 284.421 743.489 Q282.222 743.906 279.583 744.785 L279.583 740.619 Q282.245 739.878 284.56 739.508 Q286.898 739.137 288.958 739.137 Q294.282 739.137 297.384 741.568 Q300.486 743.975 300.486 748.096 Q300.486 750.966 298.843 752.957 Q297.199 754.924 294.167 755.688 Z" fill="#000000" fill-rule="nonzero" fill-opacity="1" /><path clip-path="url(#clip090)" d="M320.162 742.841 Q316.551 742.841 314.722 746.406 Q312.917 749.947 312.917 757.077 Q312.917 764.183 314.722 767.748 Q316.551 771.29 320.162 771.29 Q323.796 771.29 325.602 767.748 Q327.43 764.183 327.43 757.077 Q327.43 749.947 325.602 746.406 Q323.796 742.841 320.162 742.841 M320.162 739.137 Q325.972 739.137 329.028 743.744 Q332.106 748.327 332.106 757.077 Q332.106 765.804 329.028 770.41 Q325.972 774.994 320.162 774.994 Q314.352 774.994 311.273 770.41 Q308.217 765.804 308.217 757.077 Q308.217 748.327 311.273 743.744 Q314.352 739.137 320.162 739.137 Z" fill="#000000" fill-rule="nonzero" fill-opacity="1" /><path clip-path="url(#clip090)" d="M116.158 530.357 L123.797 530.357 L123.797 503.991 L115.487 505.658 L115.487 501.399 L123.751 499.732 L128.427 499.732 L128.427 530.357 L136.066 530.357 L136.066 534.292 L116.158 534.292 L116.158 530.357 Z" fill="#000000" fill-rule="nonzero" fill-opacity="1" /><path clip-path="url(#clip090)" d="M145.556 499.732 L163.913 499.732 L163.913 503.667 L149.839 503.667 L149.839 512.139 Q150.857 511.792 151.876 511.63 Q152.894 511.445 153.913 511.445 Q159.7 511.445 163.079 514.616 Q166.459 517.788 166.459 523.204 Q166.459 528.783 162.987 531.885 Q159.515 534.963 153.195 534.963 Q151.019 534.963 148.751 534.593 Q146.505 534.223 144.098 533.482 L144.098 528.783 Q146.181 529.917 148.403 530.473 Q150.626 531.028 153.103 531.028 Q157.107 531.028 159.445 528.922 Q161.783 526.815 161.783 523.204 Q161.783 519.593 159.445 517.487 Q157.107 515.38 153.103 515.38 Q151.228 515.38 149.353 515.797 Q147.501 516.214 145.556 517.093 L145.556 499.732 Z" fill="#000000" fill-rule="nonzero" fill-opacity="1" /><path clip-path="url(#clip090)" d="M185.672 502.811 Q182.061 502.811 180.232 506.376 Q178.426 509.917 178.426 517.047 Q178.426 524.153 180.232 527.718 Q182.061 531.26 185.672 531.26 Q189.306 531.26 191.112 527.718 Q192.94 524.153 192.94 517.047 Q192.94 509.917 191.112 506.376 Q189.306 502.811 185.672 502.811 M185.672 499.107 Q191.482 499.107 194.538 503.714 Q197.616 508.297 197.616 517.047 Q197.616 525.774 194.538 530.38 Q191.482 534.963 185.672 534.963 Q179.862 534.963 176.783 530.38 Q173.727 525.774 173.727 517.047 Q173.727 508.297 176.783 503.714 Q179.862 499.107 185.672 499.107 Z" fill="#000000" fill-rule="nonzero" fill-opacity="1" /><path clip-path="url(#clip090)" d="M218.681 503.806 L206.875 522.255 L218.681 522.255 L218.681 503.806 M217.454 499.732 L223.334 499.732 L223.334 522.255 L228.264 522.255 L228.264 526.144 L223.334 526.144 L223.334 534.292 L218.681 534.292 L218.681 526.144 L203.079 526.144 L203.079 521.63 L217.454 499.732 Z" fill="#000000" fill-rule="nonzero" fill-opacity="1" /><path clip-path="url(#clip090)" d="M235.996 528.413 L240.88 528.413 L240.88 534.292 L235.996 534.292 L235.996 528.413 Z" fill="#000000" fill-rule="nonzero" fill-opacity="1" /><path clip-path="url(#clip090)" d="M251.111 499.732 L269.468 499.732 L269.468 503.667 L255.394 503.667 L255.394 512.139 Q256.412 511.792 257.431 511.63 Q258.449 511.445 259.468 511.445 Q265.255 511.445 268.634 514.616 Q272.014 517.788 272.014 523.204 Q272.014 528.783 268.542 531.885 Q265.07 534.963 258.75 534.963 Q256.574 534.963 254.306 534.593 Q252.06 534.223 249.653 533.482 L249.653 528.783 Q251.736 529.917 253.958 530.473 Q256.181 531.028 258.658 531.028 Q262.662 531.028 265 528.922 Q267.338 526.815 267.338 523.204 Q267.338 519.593 265 517.487 Q262.662 515.38 258.658 515.38 Q256.783 515.38 254.908 515.797 Q253.056 516.214 251.111 517.093 L251.111 499.732 Z" fill="#000000" fill-rule="nonzero" fill-opacity="1" /><path clip-path="url(#clip090)" d="M295.393 515.658 Q298.75 516.376 300.625 518.644 Q302.523 520.913 302.523 524.246 Q302.523 529.362 299.005 532.162 Q295.486 534.963 289.005 534.963 Q286.829 534.963 284.514 534.524 Q282.222 534.107 279.769 533.25 L279.769 528.737 Q281.713 529.871 284.028 530.45 Q286.343 531.028 288.866 531.028 Q293.264 531.028 295.555 529.292 Q297.87 527.556 297.87 524.246 Q297.87 521.19 295.718 519.477 Q293.588 517.741 289.768 517.741 L285.741 517.741 L285.741 513.899 L289.954 513.899 Q293.403 513.899 295.231 512.533 Q297.06 511.144 297.06 508.552 Q297.06 505.889 295.162 504.477 Q293.287 503.042 289.768 503.042 Q287.847 503.042 285.648 503.459 Q283.449 503.876 280.81 504.755 L280.81 500.589 Q283.472 499.848 285.787 499.477 Q288.125 499.107 290.185 499.107 Q295.509 499.107 298.611 501.538 Q301.713 503.945 301.713 508.065 Q301.713 510.936 300.069 512.926 Q298.426 514.894 295.393 515.658 Z" fill="#000000" fill-rule="nonzero" fill-opacity="1" /><path clip-path="url(#clip090)" d="M312.199 530.357 L319.838 530.357 L319.838 503.991 L311.528 505.658 L311.528 501.399 L319.791 499.732 L324.467 499.732 L324.467 530.357 L332.106 530.357 L332.106 534.292 L312.199 534.292 L312.199 530.357 Z" fill="#000000" fill-rule="nonzero" fill-opacity="1" /><path clip-path="url(#clip090)" d="M116.529 290.327 L124.168 290.327 L124.168 263.961 L115.857 265.628 L115.857 261.369 L124.121 259.702 L128.797 259.702 L128.797 290.327 L136.436 290.327 L136.436 294.262 L116.529 294.262 L116.529 290.327 Z" fill="#000000" fill-rule="nonzero" fill-opacity="1" /><path clip-path="url(#clip090)" d="M145.927 259.702 L164.283 259.702 L164.283 263.637 L150.209 263.637 L150.209 272.109 Q151.228 271.762 152.246 271.6 Q153.265 271.415 154.283 271.415 Q160.07 271.415 163.45 274.586 Q166.829 277.757 166.829 283.174 Q166.829 288.753 163.357 291.855 Q159.885 294.933 153.566 294.933 Q151.39 294.933 149.121 294.563 Q146.876 294.193 144.468 293.452 L144.468 288.753 Q146.552 289.887 148.774 290.443 Q150.996 290.998 153.473 290.998 Q157.478 290.998 159.815 288.892 Q162.153 286.785 162.153 283.174 Q162.153 279.563 159.815 277.457 Q157.478 275.35 153.473 275.35 Q151.598 275.35 149.723 275.767 Q147.871 276.183 145.927 277.063 L145.927 259.702 Z" fill="#000000" fill-rule="nonzero" fill-opacity="1" /><path clip-path="url(#clip090)" d="M186.042 262.781 Q182.431 262.781 180.602 266.345 Q178.797 269.887 178.797 277.017 Q178.797 284.123 180.602 287.688 Q182.431 291.23 186.042 291.23 Q189.676 291.23 191.482 287.688 Q193.311 284.123 193.311 277.017 Q193.311 269.887 191.482 266.345 Q189.676 262.781 186.042 262.781 M186.042 259.077 Q191.852 259.077 194.908 263.683 Q197.987 268.267 197.987 277.017 Q197.987 285.744 194.908 290.35 Q191.852 294.933 186.042 294.933 Q180.232 294.933 177.153 290.35 Q174.098 285.744 174.098 277.017 Q174.098 268.267 177.153 263.683 Q180.232 259.077 186.042 259.077 Z" fill="#000000" fill-rule="nonzero" fill-opacity="1" /><path clip-path="url(#clip090)" d="M219.051 263.776 L207.246 282.225 L219.051 282.225 L219.051 263.776 M217.824 259.702 L223.704 259.702 L223.704 282.225 L228.635 282.225 L228.635 286.114 L223.704 286.114 L223.704 294.262 L219.051 294.262 L219.051 286.114 L203.449 286.114 L203.449 281.6 L217.824 259.702 Z" fill="#000000" fill-rule="nonzero" fill-opacity="1" /><path clip-path="url(#clip090)" d="M236.366 288.382 L241.25 288.382 L241.25 294.262 L236.366 294.262 L236.366 288.382 Z" fill="#000000" fill-rule="nonzero" fill-opacity="1" /><path clip-path="url(#clip090)" d="M251.482 259.702 L269.838 259.702 L269.838 263.637 L255.764 263.637 L255.764 272.109 Q256.783 271.762 257.801 271.6 Q258.82 271.415 259.838 271.415 Q265.625 271.415 269.005 274.586 Q272.384 277.757 272.384 283.174 Q272.384 288.753 268.912 291.855 Q265.44 294.933 259.12 294.933 Q256.945 294.933 254.676 294.563 Q252.431 294.193 250.023 293.452 L250.023 288.753 Q252.107 289.887 254.329 290.443 Q256.551 290.998 259.028 290.998 Q263.033 290.998 265.37 288.892 Q267.708 286.785 267.708 283.174 Q267.708 279.563 265.37 277.457 Q263.033 275.35 259.028 275.35 Q257.153 275.35 255.278 275.767 Q253.426 276.183 251.482 277.063 L251.482 259.702 Z" fill="#000000" fill-rule="nonzero" fill-opacity="1" /><path clip-path="url(#clip090)" d="M295.764 275.628 Q299.12 276.345 300.995 278.614 Q302.893 280.882 302.893 284.216 Q302.893 289.331 299.375 292.132 Q295.856 294.933 289.375 294.933 Q287.199 294.933 284.884 294.493 Q282.593 294.077 280.139 293.22 L280.139 288.706 Q282.083 289.841 284.398 290.419 Q286.713 290.998 289.236 290.998 Q293.634 290.998 295.926 289.262 Q298.241 287.526 298.241 284.216 Q298.241 281.16 296.088 279.447 Q293.958 277.711 290.139 277.711 L286.111 277.711 L286.111 273.869 L290.324 273.869 Q293.773 273.869 295.602 272.503 Q297.43 271.114 297.43 268.521 Q297.43 265.859 295.532 264.447 Q293.657 263.012 290.139 263.012 Q288.218 263.012 286.018 263.429 Q283.819 263.845 281.181 264.725 L281.181 260.558 Q283.843 259.818 286.157 259.447 Q288.495 259.077 290.556 259.077 Q295.88 259.077 298.981 261.508 Q302.083 263.915 302.083 268.035 Q302.083 270.906 300.44 272.896 Q298.796 274.864 295.764 275.628 Z" fill="#000000" fill-rule="nonzero" fill-opacity="1" /><path clip-path="url(#clip090)" d="M315.787 290.327 L332.106 290.327 L332.106 294.262 L310.162 294.262 L310.162 290.327 Q312.824 287.572 317.407 282.943 Q322.014 278.29 323.194 276.947 Q325.44 274.424 326.319 272.688 Q327.222 270.929 327.222 269.239 Q327.222 266.484 325.278 264.748 Q323.356 263.012 320.254 263.012 Q318.055 263.012 315.602 263.776 Q313.171 264.54 310.393 266.091 L310.393 261.369 Q313.217 260.234 315.671 259.656 Q318.125 259.077 320.162 259.077 Q325.532 259.077 328.727 261.762 Q331.921 264.447 331.921 268.938 Q331.921 271.068 331.111 272.989 Q330.324 274.887 328.217 277.48 Q327.639 278.151 324.537 281.369 Q321.435 284.563 315.787 290.327 Z" fill="#000000" fill-rule="nonzero" fill-opacity="1" /><path clip-path="url(#clip090)" d="M16.4842 1114.62 L16.4842 1074.42 L21.895 1074.42 L21.895 1091.29 L64.0042 1091.29 L64.0042 1097.75 L21.895 1097.75 L21.895 1114.62 L16.4842 1114.62 Z" fill="#000000" fill-rule="nonzero" fill-opacity="1" /><path clip-path="url(#clip090)" d="M32.4621 1065.73 Q32.4621 1070.45 36.1542 1073.18 Q39.8145 1075.92 46.212 1075.92 Q52.6095 1075.92 56.3017 1073.21 Q59.9619 1070.48 59.9619 1065.73 Q59.9619 1061.06 56.2698 1058.32 Q52.5777 1055.58 46.212 1055.58 Q39.8781 1055.58 36.186 1058.32 Q32.4621 1061.06 32.4621 1065.73 M27.4968 1065.73 Q27.4968 1058.1 32.4621 1053.74 Q37.4273 1049.37 46.212 1049.37 Q54.9649 1049.37 59.9619 1053.74 Q64.9272 1058.1 64.9272 1065.73 Q64.9272 1073.41 59.9619 1077.77 Q54.9649 1082.09 46.212 1082.09 Q37.4273 1082.09 32.4621 1077.77 Q27.4968 1073.41 27.4968 1065.73 Z" fill="#000000" fill-rule="nonzero" fill-opacity="1" /><path clip-path="url(#clip090)" d="M18.2347 1033.87 L28.3562 1033.87 L28.3562 1021.81 L32.9077 1021.81 L32.9077 1033.87 L52.2594 1033.87 Q56.6199 1033.87 57.8613 1032.7 Q59.1026 1031.49 59.1026 1027.83 L59.1026 1021.81 L64.0042 1021.81 L64.0042 1027.83 Q64.0042 1034.61 61.4897 1037.18 Q58.9434 1039.76 52.2594 1039.76 L32.9077 1039.76 L32.9077 1044.06 L28.3562 1044.06 L28.3562 1039.76 L18.2347 1039.76 L18.2347 1033.87 Z" fill="#000000" fill-rule="nonzero" fill-opacity="1" /><path clip-path="url(#clip090)" d="M46.0847 997.908 Q46.0847 1005.01 47.7079 1007.74 Q49.3312 1010.48 53.2461 1010.48 Q56.3653 1010.48 58.2114 1008.44 Q60.0256 1006.37 60.0256 1002.84 Q60.0256 997.972 56.5881 995.044 Q53.1188 992.083 47.3897 992.083 L46.0847 992.083 L46.0847 997.908 M43.6657 986.227 L64.0042 986.227 L64.0042 992.083 L58.5933 992.083 Q61.8398 994.089 63.3994 997.081 Q64.9272 1000.07 64.9272 1004.4 Q64.9272 1009.88 61.8716 1013.12 Q58.7843 1016.34 53.6281 1016.34 Q47.6125 1016.34 44.5569 1012.33 Q41.5014 1008.28 41.5014 1000.3 L41.5014 992.083 L40.9285 992.083 Q36.8862 992.083 34.6901 994.757 Q32.4621 997.399 32.4621 1002.2 Q32.4621 1005.26 33.1941 1008.16 Q33.9262 1011.05 35.3903 1013.73 L29.9795 1013.73 Q28.7381 1010.51 28.1334 1007.49 Q27.4968 1004.46 27.4968 1001.6 Q27.4968 993.866 31.5072 990.046 Q35.5176 986.227 43.6657 986.227 Z" fill="#000000" fill-rule="nonzero" fill-opacity="1" /><path clip-path="url(#clip090)" d="M14.479 974.164 L14.479 968.308 L64.0042 968.308 L64.0042 974.164 L14.479 974.164 Z" fill="#000000" fill-rule="nonzero" fill-opacity="1" /><path clip-path="url(#clip090)" d="M16.4842 935.079 L16.4842 928.649 L58.5933 928.649 L58.5933 905.51 L64.0042 905.51 L64.0042 935.079 L16.4842 935.079 Z" fill="#000000" fill-rule="nonzero" fill-opacity="1" /><path clip-path="url(#clip090)" d="M32.4621 886.349 Q32.4621 891.06 36.1542 893.797 Q39.8145 896.534 46.212 896.534 Q52.6095 896.534 56.3017 893.829 Q59.9619 891.092 59.9619 886.349 Q59.9619 881.67 56.2698 878.933 Q52.5777 876.196 46.212 876.196 Q39.8781 876.196 36.186 878.933 Q32.4621 881.67 32.4621 886.349 M27.4968 886.349 Q27.4968 878.71 32.4621 874.35 Q37.4273 869.989 46.212 869.989 Q54.9649 869.989 59.9619 874.35 Q64.9272 878.71 64.9272 886.349 Q64.9272 894.02 59.9619 898.38 Q54.9649 902.709 46.212 902.709 Q37.4273 902.709 32.4621 898.38 Q27.4968 894.02 27.4968 886.349 Z" fill="#000000" fill-rule="nonzero" fill-opacity="1" /><path clip-path="url(#clip090)" d="M46.0847 844.081 Q46.0847 851.179 47.7079 853.916 Q49.3312 856.653 53.2461 856.653 Q56.3653 856.653 58.2114 854.616 Q60.0256 852.547 60.0256 849.014 Q60.0256 844.144 56.5881 841.216 Q53.1188 838.256 47.3897 838.256 L46.0847 838.256 L46.0847 844.081 M43.6657 832.4 L64.0042 832.4 L64.0042 838.256 L58.5933 838.256 Q61.8398 840.261 63.3994 843.253 Q64.9272 846.245 64.9272 850.574 Q64.9272 856.048 61.8716 859.295 Q58.7843 862.51 53.6281 862.51 Q47.6125 862.51 44.5569 858.499 Q41.5014 854.457 41.5014 846.468 L41.5014 838.256 L40.9285 838.256 Q36.8862 838.256 34.6901 840.93 Q32.4621 843.572 32.4621 848.378 Q32.4621 851.433 33.1941 854.33 Q33.9262 857.226 35.3903 859.9 L29.9795 859.9 Q28.7381 856.685 28.1334 853.661 Q27.4968 850.637 27.4968 847.773 Q27.4968 840.039 31.5072 836.219 Q35.5176 832.4 43.6657 832.4 Z" fill="#000000" fill-rule="nonzero" fill-opacity="1" /><path clip-path="url(#clip090)" d="M33.7671 796.879 L14.479 796.879 L14.479 791.023 L64.0042 791.023 L64.0042 796.879 L58.657 796.879 Q61.8398 798.725 63.3994 801.558 Q64.9272 804.359 64.9272 808.306 Q64.9272 814.767 59.771 818.841 Q54.6147 822.883 46.212 822.883 Q37.8093 822.883 32.6531 818.841 Q27.4968 814.767 27.4968 808.306 Q27.4968 804.359 29.0564 801.558 Q30.5842 798.725 33.7671 796.879 M46.212 816.836 Q52.6732 816.836 56.3653 814.194 Q60.0256 811.52 60.0256 806.873 Q60.0256 802.226 56.3653 799.553 Q52.6732 796.879 46.212 796.879 Q39.7508 796.879 36.0905 799.553 Q32.3984 802.226 32.3984 806.873 Q32.3984 811.52 36.0905 814.194 Q39.7508 816.836 46.212 816.836 Z" fill="#000000" fill-rule="nonzero" fill-opacity="1" /><path clip-path="url(#clip090)" d="M18.0438 729.498 L24.314 729.498 Q22.5634 733.158 21.704 736.405 Q20.8447 739.651 20.8447 742.675 Q20.8447 747.927 22.8817 750.791 Q24.9187 753.624 28.6745 753.624 Q31.8255 753.624 33.4488 751.746 Q35.0402 749.837 36.0269 744.553 L36.8226 740.67 Q38.1912 733.477 41.6605 730.071 Q45.098 726.634 50.8908 726.634 Q57.7976 726.634 61.3624 731.28 Q64.9272 735.896 64.9272 744.839 Q64.9272 748.213 64.1633 752.033 Q63.3994 755.82 61.9035 759.894 L55.2831 759.894 Q57.4793 755.979 58.5933 752.224 Q59.7073 748.468 59.7073 744.839 Q59.7073 739.333 57.543 736.341 Q55.3786 733.349 51.3682 733.349 Q47.8671 733.349 45.8937 735.514 Q43.9204 737.646 42.9337 742.548 L42.1698 746.463 Q40.7375 753.656 37.682 756.871 Q34.6264 760.085 29.1837 760.085 Q22.8817 760.085 19.2532 755.661 Q15.6248 751.205 15.6248 743.407 Q15.6248 740.065 16.2295 736.596 Q16.8343 733.127 18.0438 729.498 Z" fill="#000000" fill-rule="nonzero" fill-opacity="1" /><path clip-path="url(#clip090)" d="M42.4881 687.23 L64.0042 687.23 L64.0042 693.086 L42.679 693.086 Q37.6183 693.086 35.1038 695.06 Q32.5894 697.033 32.5894 700.98 Q32.5894 705.722 35.6131 708.459 Q38.6368 711.197 43.8567 711.197 L64.0042 711.197 L64.0042 717.085 L14.479 717.085 L14.479 711.197 L33.8944 711.197 Q30.6797 709.096 29.0883 706.263 Q27.4968 703.399 27.4968 699.675 Q27.4968 693.532 31.3163 690.381 Q35.1038 687.23 42.4881 687.23 Z" fill="#000000" fill-rule="nonzero" fill-opacity="1" /><path clip-path="url(#clip090)" d="M44.7161 645.057 L47.5806 645.057 L47.5806 671.984 Q53.6281 671.602 56.8109 668.355 Q59.9619 665.077 59.9619 659.253 Q59.9619 655.879 59.1344 652.728 Q58.3069 649.545 56.6518 646.426 L62.1899 646.426 Q63.5267 649.577 64.227 652.887 Q64.9272 656.197 64.9272 659.603 Q64.9272 668.133 59.9619 673.13 Q54.9967 678.095 46.5303 678.095 Q37.7774 678.095 32.6531 673.384 Q27.4968 668.642 27.4968 660.621 Q27.4968 653.428 32.1438 649.258 Q36.7589 645.057 44.7161 645.057 M42.9973 650.913 Q38.1912 650.977 35.3266 653.619 Q32.4621 656.229 32.4621 660.557 Q32.4621 665.459 35.2312 668.419 Q38.0002 671.347 43.0292 671.793 L42.9973 650.913 Z" fill="#000000" fill-rule="nonzero" fill-opacity="1" /><path clip-path="url(#clip090)" d="M33.7671 611.987 L14.479 611.987 L14.479 606.131 L64.0042 606.131 L64.0042 611.987 L58.657 611.987 Q61.8398 613.833 63.3994 616.666 Q64.9272 619.467 64.9272 623.414 Q64.9272 629.875 59.771 633.949 Q54.6147 637.991 46.212 637.991 Q37.8093 637.991 32.6531 633.949 Q27.4968 629.875 27.4968 623.414 Q27.4968 619.467 29.0564 616.666 Q30.5842 613.833 33.7671 611.987 M46.212 631.944 Q52.6732 631.944 56.3653 629.302 Q60.0256 626.628 60.0256 621.981 Q60.0256 617.334 56.3653 614.661 Q52.6732 611.987 46.212 611.987 Q39.7508 611.987 36.0905 614.661 Q32.3984 617.334 32.3984 621.981 Q32.3984 626.628 36.0905 629.302 Q39.7508 631.944 46.212 631.944 Z" fill="#000000" fill-rule="nonzero" fill-opacity="1" /><path clip-path="url(#clip090)" d="M14.5426 559.279 Q21.8632 563.544 29.0246 565.613 Q36.186 567.682 43.5384 567.682 Q50.8908 567.682 58.1159 565.613 Q65.3091 563.512 72.5979 559.279 L72.5979 564.372 Q65.1182 569.146 57.8931 571.533 Q50.668 573.888 43.5384 573.888 Q36.4406 573.888 29.2474 571.533 Q22.0542 569.178 14.5426 564.372 L14.5426 559.279 Z" fill="#000000" fill-rule="nonzero" fill-opacity="1" /><path clip-path="url(#clip090)" d="M14.479 548.139 L14.479 542.251 L43.7294 542.251 L28.3562 524.777 L28.3562 517.297 L45.0344 536.203 L64.0042 516.502 L64.0042 524.14 L46.5939 542.251 L64.0042 542.251 L64.0042 548.139 L14.479 548.139 Z" fill="#000000" fill-rule="nonzero" fill-opacity="1" /><path clip-path="url(#clip090)" d="M16.4842 514.146 L16.4842 507.653 L56.6518 497.659 L16.4842 487.697 L16.4842 480.472 L56.6518 470.477 L16.4842 460.515 L16.4842 453.99 L64.0042 465.926 L64.0042 474.01 L22.7544 484.036 L64.0042 494.158 L64.0042 502.242 L16.4842 514.146 Z" fill="#000000" fill-rule="nonzero" fill-opacity="1" /><path clip-path="url(#clip090)" d="M14.5426 446.638 L14.5426 441.545 Q22.0542 436.771 29.2474 434.416 Q36.4406 432.029 43.5384 432.029 Q50.668 432.029 57.8931 434.416 Q65.1182 436.771 72.5979 441.545 L72.5979 446.638 Q65.3091 442.405 58.1159 440.336 Q50.8908 438.235 43.5384 438.235 Q36.186 438.235 29.0246 440.336 Q21.8632 442.405 14.5426 446.638 Z" fill="#000000" fill-rule="nonzero" fill-opacity="1" /><path clip-path="url(#clip090)" d="M329.03 12.096 L337.213 12.096 L337.213 65.6895 L366.663 65.6895 L366.663 72.576 L329.03 72.576 L329.03 12.096 Z" fill="#000000" fill-rule="nonzero" fill-opacity="1" /><path clip-path="url(#clip090)" d="M391.05 32.4315 Q385.054 32.4315 381.571 37.1306 Q378.087 41.7891 378.087 49.9314 Q378.087 58.0738 381.53 62.7728 Q385.014 67.4314 391.05 67.4314 Q397.005 67.4314 400.488 62.7323 Q403.972 58.0333 403.972 49.9314 Q403.972 41.8701 400.488 37.1711 Q397.005 32.4315 391.05 32.4315 M391.05 26.1121 Q400.772 26.1121 406.322 32.4315 Q411.871 38.7509 411.871 49.9314 Q411.871 61.0714 406.322 67.4314 Q400.772 73.7508 391.05 73.7508 Q381.287 73.7508 375.737 67.4314 Q370.228 61.0714 370.228 49.9314 Q370.228 38.7509 375.737 32.4315 Q381.287 26.1121 391.05 26.1121 Z" fill="#000000" fill-rule="nonzero" fill-opacity="1" /><path clip-path="url(#clip090)" d="M419.892 27.2059 L427.346 27.2059 L436.663 62.6108 L445.939 27.2059 L454.73 27.2059 L464.047 62.6108 L473.324 27.2059 L480.777 27.2059 L468.908 72.576 L460.118 72.576 L450.355 35.3887 L440.552 72.576 L431.761 72.576 L419.892 27.2059 Z" fill="#000000" fill-rule="nonzero" fill-opacity="1" /><path clip-path="url(#clip090)" d="M530.887 48.0275 L530.887 51.6733 L496.616 51.6733 Q497.102 59.3701 501.234 63.421 Q505.407 67.4314 512.82 67.4314 Q517.114 67.4314 521.124 66.3781 Q525.175 65.3249 529.145 63.2184 L529.145 70.267 Q525.135 71.9684 520.922 72.8596 Q516.709 73.7508 512.374 73.7508 Q501.518 73.7508 495.158 67.4314 Q488.839 61.1119 488.839 50.3365 Q488.839 39.1965 494.834 32.6746 Q500.87 26.1121 511.078 26.1121 Q520.233 26.1121 525.54 32.0264 Q530.887 37.9003 530.887 48.0275 M523.433 45.84 Q523.352 39.7232 519.99 36.0774 Q516.668 32.4315 511.159 32.4315 Q504.921 32.4315 501.153 35.9558 Q497.426 39.4801 496.859 45.8805 L523.433 45.84 Z" fill="#000000" fill-rule="nonzero" fill-opacity="1" /><path clip-path="url(#clip090)" d="M569.411 34.1734 Q568.155 33.4443 566.656 33.1202 Q565.198 32.7556 563.416 32.7556 Q557.096 32.7556 553.693 36.8875 Q550.331 40.9789 550.331 48.6757 L550.331 72.576 L542.837 72.576 L542.837 27.2059 L550.331 27.2059 L550.331 34.2544 Q552.681 30.1225 556.448 28.1376 Q560.215 26.1121 565.603 26.1121 Q566.373 26.1121 567.305 26.2337 Q568.236 26.3147 569.37 26.5172 L569.411 34.1734 Z" fill="#000000" fill-rule="nonzero" fill-opacity="1" /><path clip-path="url(#clip090)" d="M603.925 12.096 L612.108 12.096 L612.108 65.6895 L641.558 65.6895 L641.558 72.576 L603.925 72.576 L603.925 12.096 Z" fill="#000000" fill-rule="nonzero" fill-opacity="1" /><path clip-path="url(#clip090)" d="M687.171 48.0275 L687.171 51.6733 L652.9 51.6733 Q653.386 59.3701 657.518 63.421 Q661.691 67.4314 669.104 67.4314 Q673.398 67.4314 677.408 66.3781 Q681.459 65.3249 685.429 63.2184 L685.429 70.267 Q681.418 71.9684 677.206 72.8596 Q672.993 73.7508 668.658 73.7508 Q657.802 73.7508 651.442 67.4314 Q645.122 61.1119 645.122 50.3365 Q645.122 39.1965 651.118 32.6746 Q657.154 26.1121 667.362 26.1121 Q676.517 26.1121 681.824 32.0264 Q687.171 37.9003 687.171 48.0275 M679.717 45.84 Q679.636 39.7232 676.274 36.0774 Q672.952 32.4315 667.443 32.4315 Q661.204 32.4315 657.437 35.9558 Q653.71 39.4801 653.143 45.8805 L679.717 45.84 Z" fill="#000000" fill-rule="nonzero" fill-opacity="1" /><path clip-path="url(#clip090)" d="M694.057 27.2059 L701.957 27.2059 L716.135 65.2844 L730.313 27.2059 L738.212 27.2059 L721.198 72.576 L711.071 72.576 L694.057 27.2059 Z" fill="#000000" fill-rule="nonzero" fill-opacity="1" /><path clip-path="url(#clip090)" d="M787.309 48.0275 L787.309 51.6733 L753.038 51.6733 Q753.525 59.3701 757.657 63.421 Q761.829 67.4314 769.242 67.4314 Q773.536 67.4314 777.546 66.3781 Q781.597 65.3249 785.567 63.2184 L785.567 70.267 Q781.557 71.9684 777.344 72.8596 Q773.131 73.7508 768.796 73.7508 Q757.94 73.7508 751.58 67.4314 Q745.261 61.1119 745.261 50.3365 Q745.261 39.1965 751.256 32.6746 Q757.292 26.1121 767.5 26.1121 Q776.655 26.1121 781.962 32.0264 Q787.309 37.9003 787.309 48.0275 M779.855 45.84 Q779.774 39.7232 776.412 36.0774 Q773.09 32.4315 767.581 32.4315 Q761.343 32.4315 757.575 35.9558 Q753.849 39.4801 753.282 45.8805 L779.855 45.84 Z" fill="#000000" fill-rule="nonzero" fill-opacity="1" /><path clip-path="url(#clip090)" d="M799.543 9.54393 L806.997 9.54393 L806.997 72.576 L799.543 72.576 L799.543 9.54393 Z" fill="#000000" fill-rule="nonzero" fill-opacity="1" /><path clip-path="url(#clip090)" d="M849.288 12.096 L857.471 12.096 L857.471 65.6895 L886.921 65.6895 L886.921 72.576 L849.288 72.576 L849.288 12.096 Z" fill="#000000" fill-rule="nonzero" fill-opacity="1" /><path clip-path="url(#clip090)" d="M911.307 32.4315 Q905.312 32.4315 901.828 37.1306 Q898.344 41.7891 898.344 49.9314 Q898.344 58.0738 901.788 62.7728 Q905.271 67.4314 911.307 67.4314 Q917.262 67.4314 920.746 62.7323 Q924.23 58.0333 924.23 49.9314 Q924.23 41.8701 920.746 37.1711 Q917.262 32.4315 911.307 32.4315 M911.307 26.1121 Q921.029 26.1121 926.579 32.4315 Q932.129 38.7509 932.129 49.9314 Q932.129 61.0714 926.579 67.4314 Q921.029 73.7508 911.307 73.7508 Q901.545 73.7508 895.995 67.4314 Q890.486 61.0714 890.486 49.9314 Q890.486 38.7509 895.995 32.4315 Q901.545 26.1121 911.307 26.1121 Z" fill="#000000" fill-rule="nonzero" fill-opacity="1" /><path clip-path="url(#clip090)" d="M965.103 49.7694 Q956.07 49.7694 952.586 51.8354 Q949.102 53.9013 949.102 58.8839 Q949.102 62.8538 951.695 65.2034 Q954.328 67.5124 958.824 67.5124 Q965.022 67.5124 968.749 63.1374 Q972.516 58.7219 972.516 51.4303 L972.516 49.7694 L965.103 49.7694 M979.97 46.6907 L979.97 72.576 L972.516 72.576 L972.516 65.6895 Q969.964 69.8214 966.157 71.8063 Q962.349 73.7508 956.839 73.7508 Q949.872 73.7508 945.74 69.8619 Q941.649 65.9325 941.649 59.3701 Q941.649 51.7138 946.753 47.825 Q951.897 43.9361 962.065 43.9361 L972.516 43.9361 L972.516 43.2069 Q972.516 38.0623 969.114 35.2672 Q965.751 32.4315 959.635 32.4315 Q955.746 32.4315 952.059 33.3632 Q948.373 34.295 944.97 36.1584 L944.97 29.2718 Q949.062 27.692 952.91 26.9223 Q956.758 26.1121 960.404 26.1121 Q970.248 26.1121 975.109 31.2163 Q979.97 36.3204 979.97 46.6907 Z" fill="#000000" fill-rule="nonzero" fill-opacity="1" /><path clip-path="url(#clip090)" d="M1025.18 34.0924 L1025.18 9.54393 L1032.63 9.54393 L1032.63 72.576 L1025.18 72.576 L1025.18 65.7705 Q1022.83 69.8214 1019.22 71.8063 Q1015.66 73.7508 1010.64 73.7508 Q1002.41 73.7508 997.227 67.1883 Q992.082 60.6258 992.082 49.9314 Q992.082 39.2371 997.227 32.6746 Q1002.41 26.1121 1010.64 26.1121 Q1015.66 26.1121 1019.22 28.0971 Q1022.83 30.0415 1025.18 34.0924 M999.779 49.9314 Q999.779 58.1548 1003.14 62.8538 Q1006.54 67.5124 1012.46 67.5124 Q1018.37 67.5124 1021.78 62.8538 Q1025.18 58.1548 1025.18 49.9314 Q1025.18 41.7081 1021.78 37.0496 Q1018.37 32.3505 1012.46 32.3505 Q1006.54 32.3505 1003.14 37.0496 Q999.779 41.7081 999.779 49.9314 Z" fill="#000000" fill-rule="nonzero" fill-opacity="1" /><path clip-path="url(#clip090)" d="M1110.94 14.0809 L1110.94 22.0612 Q1106.28 19.8332 1102.15 18.7395 Q1098.01 17.6457 1094.17 17.6457 Q1087.48 17.6457 1083.84 20.2383 Q1080.23 22.8309 1080.23 27.611 Q1080.23 31.6214 1082.62 33.6873 Q1085.05 35.7128 1091.78 36.9686 L1096.72 37.9813 Q1105.87 39.7232 1110.21 44.1387 Q1114.58 48.5136 1114.58 55.8863 Q1114.58 64.6767 1108.67 69.2137 Q1102.79 73.7508 1091.41 73.7508 Q1087.12 73.7508 1082.26 72.7785 Q1077.43 71.8063 1072.25 69.9024 L1072.25 61.4765 Q1077.23 64.2716 1082.01 65.6895 Q1086.79 67.1073 1091.41 67.1073 Q1098.42 67.1073 1102.23 64.3527 Q1106.03 61.598 1106.03 56.4939 Q1106.03 52.0379 1103.28 49.5264 Q1100.57 47.0148 1094.33 45.759 L1089.34 44.7868 Q1080.19 42.9639 1076.1 39.075 Q1072.01 35.1862 1072.01 28.2591 Q1072.01 20.2383 1077.64 15.6203 Q1083.31 11.0023 1093.23 11.0023 Q1097.49 11.0023 1101.9 11.7719 Q1106.32 12.5416 1110.94 14.0809 Z" fill="#000000" fill-rule="nonzero" fill-opacity="1" /><path clip-path="url(#clip090)" d="M1164.73 45.1919 L1164.73 72.576 L1157.28 72.576 L1157.28 45.4349 Q1157.28 38.994 1154.77 35.7938 Q1152.26 32.5936 1147.23 32.5936 Q1141.2 32.5936 1137.71 36.4419 Q1134.23 40.2903 1134.23 46.9338 L1134.23 72.576 L1126.73 72.576 L1126.73 9.54393 L1134.23 9.54393 L1134.23 34.2544 Q1136.9 30.163 1140.51 28.1376 Q1144.15 26.1121 1148.89 26.1121 Q1156.71 26.1121 1160.72 30.9732 Q1164.73 35.7938 1164.73 45.1919 Z" fill="#000000" fill-rule="nonzero" fill-opacity="1" /><path clip-path="url(#clip090)" d="M1218.41 48.0275 L1218.41 51.6733 L1184.14 51.6733 Q1184.62 59.3701 1188.75 63.421 Q1192.93 67.4314 1200.34 67.4314 Q1204.63 67.4314 1208.64 66.3781 Q1212.69 65.3249 1216.66 63.2184 L1216.66 70.267 Q1212.65 71.9684 1208.44 72.8596 Q1204.23 73.7508 1199.89 73.7508 Q1189.04 73.7508 1182.68 67.4314 Q1176.36 61.1119 1176.36 50.3365 Q1176.36 39.1965 1182.35 32.6746 Q1188.39 26.1121 1198.6 26.1121 Q1207.75 26.1121 1213.06 32.0264 Q1218.41 37.9003 1218.41 48.0275 M1210.95 45.84 Q1210.87 39.7232 1207.51 36.0774 Q1204.19 32.4315 1198.68 32.4315 Q1192.44 32.4315 1188.67 35.9558 Q1184.95 39.4801 1184.38 45.8805 L1210.95 45.84 Z" fill="#000000" fill-rule="nonzero" fill-opacity="1" /><path clip-path="url(#clip090)" d="M1260.5 34.0924 L1260.5 9.54393 L1267.95 9.54393 L1267.95 72.576 L1260.5 72.576 L1260.5 65.7705 Q1258.15 69.8214 1254.54 71.8063 Q1250.98 73.7508 1245.95 73.7508 Q1237.73 73.7508 1232.54 67.1883 Q1227.4 60.6258 1227.4 49.9314 Q1227.4 39.2371 1232.54 32.6746 Q1237.73 26.1121 1245.95 26.1121 Q1250.98 26.1121 1254.54 28.0971 Q1258.15 30.0415 1260.5 34.0924 M1235.1 49.9314 Q1235.1 58.1548 1238.46 62.8538 Q1241.86 67.5124 1247.78 67.5124 Q1253.69 67.5124 1257.09 62.8538 Q1260.5 58.1548 1260.5 49.9314 Q1260.5 41.7081 1257.09 37.0496 Q1253.69 32.3505 1247.78 32.3505 Q1241.86 32.3505 1238.46 37.0496 Q1235.1 41.7081 1235.1 49.9314 Z" fill="#000000" fill-rule="nonzero" fill-opacity="1" /><path clip-path="url(#clip090)" d="M1327.25 32.4315 Q1321.26 32.4315 1317.78 37.1306 Q1314.29 41.7891 1314.29 49.9314 Q1314.29 58.0738 1317.73 62.7728 Q1321.22 67.4314 1327.25 67.4314 Q1333.21 67.4314 1336.69 62.7323 Q1340.18 58.0333 1340.18 49.9314 Q1340.18 41.8701 1336.69 37.1711 Q1333.21 32.4315 1327.25 32.4315 M1327.25 26.1121 Q1336.98 26.1121 1342.53 32.4315 Q1348.08 38.7509 1348.08 49.9314 Q1348.08 61.0714 1342.53 67.4314 Q1336.98 73.7508 1327.25 73.7508 Q1317.49 73.7508 1311.94 67.4314 Q1306.43 61.0714 1306.43 49.9314 Q1306.43 38.7509 1311.94 32.4315 Q1317.49 26.1121 1327.25 26.1121 Z" fill="#000000" fill-rule="nonzero" fill-opacity="1" /><path clip-path="url(#clip090)" d="M1355.08 27.2059 L1362.98 27.2059 L1377.16 65.2844 L1391.34 27.2059 L1399.24 27.2059 L1382.22 72.576 L1372.1 72.576 L1355.08 27.2059 Z" fill="#000000" fill-rule="nonzero" fill-opacity="1" /><path clip-path="url(#clip090)" d="M1448.34 48.0275 L1448.34 51.6733 L1414.07 51.6733 Q1414.55 59.3701 1418.68 63.421 Q1422.86 67.4314 1430.27 67.4314 Q1434.56 67.4314 1438.57 66.3781 Q1442.62 65.3249 1446.59 63.2184 L1446.59 70.267 Q1442.58 71.9684 1438.37 72.8596 Q1434.16 73.7508 1429.82 73.7508 Q1418.97 73.7508 1412.61 67.4314 Q1406.29 61.1119 1406.29 50.3365 Q1406.29 39.1965 1412.28 32.6746 Q1418.32 26.1121 1428.53 26.1121 Q1437.68 26.1121 1442.99 32.0264 Q1448.34 37.9003 1448.34 48.0275 M1440.88 45.84 Q1440.8 39.7232 1437.44 36.0774 Q1434.12 32.4315 1428.61 32.4315 Q1422.37 32.4315 1418.6 35.9558 Q1414.88 39.4801 1414.31 45.8805 L1440.88 45.84 Z" fill="#000000" fill-rule="nonzero" fill-opacity="1" /><path clip-path="url(#clip090)" d="M1486.86 34.1734 Q1485.6 33.4443 1484.11 33.1202 Q1482.65 32.7556 1480.86 32.7556 Q1474.55 32.7556 1471.14 36.8875 Q1467.78 40.9789 1467.78 48.6757 L1467.78 72.576 L1460.29 72.576 L1460.29 27.2059 L1467.78 27.2059 L1467.78 34.2544 Q1470.13 30.1225 1473.9 28.1376 Q1477.66 26.1121 1483.05 26.1121 Q1483.82 26.1121 1484.75 26.2337 Q1485.69 26.3147 1486.82 26.5172 L1486.86 34.1734 Z" fill="#000000" fill-rule="nonzero" fill-opacity="1" /><path clip-path="url(#clip090)" d="M1521.37 12.096 L1529.56 12.096 L1529.56 72.576 L1521.37 72.576 L1521.37 12.096 Z" fill="#000000" fill-rule="nonzero" fill-opacity="1" /><path clip-path="url(#clip090)" d="M1552.89 14.324 L1552.89 27.2059 L1568.24 27.2059 L1568.24 32.9987 L1552.89 32.9987 L1552.89 57.6282 Q1552.89 63.1779 1554.39 64.7578 Q1555.93 66.3376 1560.59 66.3376 L1568.24 66.3376 L1568.24 72.576 L1560.59 72.576 Q1551.96 72.576 1548.68 69.3758 Q1545.4 66.1351 1545.4 57.6282 L1545.4 32.9987 L1539.93 32.9987 L1539.93 27.2059 L1545.4 27.2059 L1545.4 14.324 L1552.89 14.324 Z" fill="#000000" fill-rule="nonzero" fill-opacity="1" /><path clip-path="url(#clip090)" d="M1616.85 48.0275 L1616.85 51.6733 L1582.58 51.6733 Q1583.07 59.3701 1587.2 63.421 Q1591.37 67.4314 1598.79 67.4314 Q1603.08 67.4314 1607.09 66.3781 Q1611.14 65.3249 1615.11 63.2184 L1615.11 70.267 Q1611.1 71.9684 1606.89 72.8596 Q1602.68 73.7508 1598.34 73.7508 Q1587.48 73.7508 1581.12 67.4314 Q1574.8 61.1119 1574.8 50.3365 Q1574.8 39.1965 1580.8 32.6746 Q1586.84 26.1121 1597.04 26.1121 Q1606.2 26.1121 1611.51 32.0264 Q1616.85 37.9003 1616.85 48.0275 M1609.4 45.84 Q1609.32 39.7232 1605.96 36.0774 Q1602.63 32.4315 1597.13 32.4315 Q1590.89 32.4315 1587.12 35.9558 Q1583.39 39.4801 1582.83 45.8805 L1609.4 45.84 Z" fill="#000000" fill-rule="nonzero" fill-opacity="1" /><path clip-path="url(#clip090)" d="M1655.38 34.1734 Q1654.12 33.4443 1652.62 33.1202 Q1651.16 32.7556 1649.38 32.7556 Q1643.06 32.7556 1639.66 36.8875 Q1636.3 40.9789 1636.3 48.6757 L1636.3 72.576 L1628.8 72.576 L1628.8 27.2059 L1636.3 27.2059 L1636.3 34.2544 Q1638.65 30.1225 1642.41 28.1376 Q1646.18 26.1121 1651.57 26.1121 Q1652.34 26.1121 1653.27 26.2337 Q1654.2 26.3147 1655.34 26.5172 L1655.38 34.1734 Z" fill="#000000" fill-rule="nonzero" fill-opacity="1" /><path clip-path="url(#clip090)" d="M1683.81 49.7694 Q1674.78 49.7694 1671.3 51.8354 Q1667.81 53.9013 1667.81 58.8839 Q1667.81 62.8538 1670.41 65.2034 Q1673.04 67.5124 1677.54 67.5124 Q1683.73 67.5124 1687.46 63.1374 Q1691.23 58.7219 1691.23 51.4303 L1691.23 49.7694 L1683.81 49.7694 M1698.68 46.6907 L1698.68 72.576 L1691.23 72.576 L1691.23 65.6895 Q1688.68 69.8214 1684.87 71.8063 Q1681.06 73.7508 1675.55 73.7508 Q1668.58 73.7508 1664.45 69.8619 Q1660.36 65.9325 1660.36 59.3701 Q1660.36 51.7138 1665.46 47.825 Q1670.61 43.9361 1680.78 43.9361 L1691.23 43.9361 L1691.23 43.2069 Q1691.23 38.0623 1687.83 35.2672 Q1684.46 32.4315 1678.35 32.4315 Q1674.46 32.4315 1670.77 33.3632 Q1667.08 34.295 1663.68 36.1584 L1663.68 29.2718 Q1667.77 27.692 1671.62 26.9223 Q1675.47 26.1121 1679.12 26.1121 Q1688.96 26.1121 1693.82 31.2163 Q1698.68 36.3204 1698.68 46.6907 Z" fill="#000000" fill-rule="nonzero" fill-opacity="1" /><path clip-path="url(#clip090)" d="M1721.41 14.324 L1721.41 27.2059 L1736.76 27.2059 L1736.76 32.9987 L1721.41 32.9987 L1721.41 57.6282 Q1721.41 63.1779 1722.91 64.7578 Q1724.45 66.3376 1729.1 66.3376 L1736.76 66.3376 L1736.76 72.576 L1729.1 72.576 Q1720.48 72.576 1717.19 69.3758 Q1713.91 66.1351 1713.91 57.6282 L1713.91 32.9987 L1708.44 32.9987 L1708.44 27.2059 L1713.91 27.2059 L1713.91 14.324 L1721.41 14.324 Z" fill="#000000" fill-rule="nonzero" fill-opacity="1" /><path clip-path="url(#clip090)" d="M1746.56 27.2059 L1754.02 27.2059 L1754.02 72.576 L1746.56 72.576 L1746.56 27.2059 M1746.56 9.54393 L1754.02 9.54393 L1754.02 18.9825 L1746.56 18.9825 L1746.56 9.54393 Z" fill="#000000" fill-rule="nonzero" fill-opacity="1" /><path clip-path="url(#clip090)" d="M1787.19 32.4315 Q1781.2 32.4315 1777.71 37.1306 Q1774.23 41.7891 1774.23 49.9314 Q1774.23 58.0738 1777.67 62.7728 Q1781.16 67.4314 1787.19 67.4314 Q1793.15 67.4314 1796.63 62.7323 Q1800.12 58.0333 1800.12 49.9314 Q1800.12 41.8701 1796.63 37.1711 Q1793.15 32.4315 1787.19 32.4315 M1787.19 26.1121 Q1796.92 26.1121 1802.47 32.4315 Q1808.02 38.7509 1808.02 49.9314 Q1808.02 61.0714 1802.47 67.4314 Q1796.92 73.7508 1787.19 73.7508 Q1777.43 73.7508 1771.88 67.4314 Q1766.37 61.0714 1766.37 49.9314 Q1766.37 38.7509 1771.88 32.4315 Q1777.43 26.1121 1787.19 26.1121 Z" fill="#000000" fill-rule="nonzero" fill-opacity="1" /><path clip-path="url(#clip090)" d="M1858.08 45.1919 L1858.08 72.576 L1850.63 72.576 L1850.63 45.4349 Q1850.63 38.994 1848.12 35.7938 Q1845.61 32.5936 1840.58 32.5936 Q1834.55 32.5936 1831.07 36.4419 Q1827.58 40.2903 1827.58 46.9338 L1827.58 72.576 L1820.09 72.576 L1820.09 27.2059 L1827.58 27.2059 L1827.58 34.2544 Q1830.25 30.163 1833.86 28.1376 Q1837.51 26.1121 1842.25 26.1121 Q1850.06 26.1121 1854.07 30.9732 Q1858.08 35.7938 1858.08 45.1919 Z" fill="#000000" fill-rule="nonzero" fill-opacity="1" /><path clip-path="url(#clip090)" d="M1901.87 28.5427 L1901.87 35.5912 Q1898.72 33.9709 1895.31 33.1607 Q1891.91 32.3505 1888.26 32.3505 Q1882.71 32.3505 1879.92 34.0519 Q1877.16 35.7533 1877.16 39.156 Q1877.16 41.7486 1879.15 43.2475 Q1881.13 44.7058 1887.13 46.0426 L1889.68 46.6097 Q1897.62 48.3111 1900.94 51.4303 Q1904.31 54.509 1904.31 60.0587 Q1904.31 66.3781 1899.28 70.0644 Q1894.3 73.7508 1885.55 73.7508 Q1881.9 73.7508 1877.93 73.0216 Q1874 72.3329 1869.63 70.9151 L1869.63 63.2184 Q1873.76 65.3654 1877.77 66.4591 Q1881.78 67.5124 1885.71 67.5124 Q1890.98 67.5124 1893.81 65.73 Q1896.65 63.9071 1896.65 60.6258 Q1896.65 57.5877 1894.58 55.9673 Q1892.56 54.3469 1885.63 52.8481 L1883.04 52.2405 Q1876.11 50.7821 1873.03 47.7845 Q1869.95 44.7463 1869.95 39.4801 Q1869.95 33.0797 1874.49 29.5959 Q1879.03 26.1121 1887.37 26.1121 Q1891.5 26.1121 1895.15 26.7198 Q1898.8 27.3274 1901.87 28.5427 Z" fill="#000000" fill-rule="nonzero" fill-opacity="1" /><path clip-path="url(#clip090)" d="M1960.45 9.62495 Q1955.02 18.942 1952.39 28.0566 Q1949.76 37.1711 1949.76 46.5287 Q1949.76 55.8863 1952.39 65.0818 Q1955.06 74.2369 1960.45 83.5134 L1953.97 83.5134 Q1947.89 73.9938 1944.86 64.7983 Q1941.86 55.6027 1941.86 46.5287 Q1941.86 37.4952 1944.86 28.3401 Q1947.85 19.1851 1953.97 9.62495 L1960.45 9.62495 Z" fill="#000000" fill-rule="nonzero" fill-opacity="1" /><path clip-path="url(#clip090)" d="M2013.72 48.0275 L2013.72 51.6733 L1979.45 51.6733 Q1979.94 59.3701 1984.07 63.421 Q1988.24 67.4314 1995.65 67.4314 Q1999.95 67.4314 2003.96 66.3781 Q2008.01 65.3249 2011.98 63.2184 L2011.98 70.267 Q2007.97 71.9684 2003.76 72.8596 Q1999.54 73.7508 1995.21 73.7508 Q1984.35 73.7508 1977.99 67.4314 Q1971.67 61.1119 1971.67 50.3365 Q1971.67 39.1965 1977.67 32.6746 Q1983.7 26.1121 1993.91 26.1121 Q2003.07 26.1121 2008.37 32.0264 Q2013.72 37.9003 2013.72 48.0275 M2006.27 45.84 Q2006.19 39.7232 2002.82 36.0774 Q1999.5 32.4315 1993.99 32.4315 Q1987.75 32.4315 1983.99 35.9558 Q1980.26 39.4801 1979.69 45.8805 L2006.27 45.84 Z" fill="#000000" fill-rule="nonzero" fill-opacity="1" /><path clip-path="url(#clip090)" d="M2048.92 9.54393 L2048.92 15.7418 L2041.79 15.7418 Q2037.78 15.7418 2036.2 17.3622 Q2034.66 18.9825 2034.66 23.1955 L2034.66 27.2059 L2046.94 27.2059 L2046.94 32.9987 L2034.66 32.9987 L2034.66 72.576 L2027.17 72.576 L2027.17 32.9987 L2020.04 32.9987 L2020.04 27.2059 L2027.17 27.2059 L2027.17 24.0462 Q2027.17 16.471 2030.69 13.0277 Q2034.22 9.54393 2041.87 9.54393 L2048.92 9.54393 Z" fill="#000000" fill-rule="nonzero" fill-opacity="1" /><path clip-path="url(#clip090)" d="M2078.13 9.54393 L2078.13 15.7418 L2071 15.7418 Q2066.99 15.7418 2065.41 17.3622 Q2063.87 18.9825 2063.87 23.1955 L2063.87 27.2059 L2076.14 27.2059 L2076.14 32.9987 L2063.87 32.9987 L2063.87 72.576 L2056.38 72.576 L2056.38 32.9987 L2049.25 32.9987 L2049.25 27.2059 L2056.38 27.2059 L2056.38 24.0462 Q2056.38 16.471 2059.9 13.0277 Q2063.42 9.54393 2071.08 9.54393 L2078.13 9.54393 Z" fill="#000000" fill-rule="nonzero" fill-opacity="1" /><path clip-path="url(#clip090)" d="M2084.37 27.2059 L2091.82 27.2059 L2091.82 72.576 L2084.37 72.576 L2084.37 27.2059 M2084.37 9.54393 L2091.82 9.54393 L2091.82 18.9825 L2084.37 18.9825 L2084.37 9.54393 Z" fill="#000000" fill-rule="nonzero" fill-opacity="1" /><path clip-path="url(#clip090)" d="M2140.07 28.9478 L2140.07 35.9153 Q2136.91 34.1734 2133.71 33.3227 Q2130.55 32.4315 2127.31 32.4315 Q2120.06 32.4315 2116.05 37.0496 Q2112.04 41.6271 2112.04 49.9314 Q2112.04 58.2358 2116.05 62.8538 Q2120.06 67.4314 2127.31 67.4314 Q2130.55 67.4314 2133.71 66.5807 Q2136.91 65.6895 2140.07 63.9476 L2140.07 70.8341 Q2136.95 72.2924 2133.59 73.0216 Q2130.26 73.7508 2126.5 73.7508 Q2116.25 73.7508 2110.21 67.3098 Q2104.18 60.8689 2104.18 49.9314 Q2104.18 38.832 2110.25 32.472 Q2116.37 26.1121 2126.98 26.1121 Q2130.43 26.1121 2133.71 26.8413 Q2136.99 27.5299 2140.07 28.9478 Z" fill="#000000" fill-rule="nonzero" fill-opacity="1" /><path clip-path="url(#clip090)" d="M2153.03 27.2059 L2160.48 27.2059 L2160.48 72.576 L2153.03 72.576 L2153.03 27.2059 M2153.03 9.54393 L2160.48 9.54393 L2160.48 18.9825 L2153.03 18.9825 L2153.03 9.54393 Z" fill="#000000" fill-rule="nonzero" fill-opacity="1" /><path clip-path="url(#clip090)" d="M2214.89 48.0275 L2214.89 51.6733 L2180.62 51.6733 Q2181.1 59.3701 2185.24 63.421 Q2189.41 67.4314 2196.82 67.4314 Q2201.12 67.4314 2205.13 66.3781 Q2209.18 65.3249 2213.15 63.2184 L2213.15 70.267 Q2209.14 71.9684 2204.92 72.8596 Q2200.71 73.7508 2196.38 73.7508 Q2185.52 73.7508 2179.16 67.4314 Q2172.84 61.1119 2172.84 50.3365 Q2172.84 39.1965 2178.84 32.6746 Q2184.87 26.1121 2195.08 26.1121 Q2204.23 26.1121 2209.54 32.0264 Q2214.89 37.9003 2214.89 48.0275 M2207.43 45.84 Q2207.35 39.7232 2203.99 36.0774 Q2200.67 32.4315 2195.16 32.4315 Q2188.92 32.4315 2185.15 35.9558 Q2181.43 39.4801 2180.86 45.8805 L2207.43 45.84 Z" fill="#000000" fill-rule="nonzero" fill-opacity="1" /><path clip-path="url(#clip090)" d="M2264.84 45.1919 L2264.84 72.576 L2257.38 72.576 L2257.38 45.4349 Q2257.38 38.994 2254.87 35.7938 Q2252.36 32.5936 2247.34 32.5936 Q2241.3 32.5936 2237.82 36.4419 Q2234.33 40.2903 2234.33 46.9338 L2234.33 72.576 L2226.84 72.576 L2226.84 27.2059 L2234.33 27.2059 L2234.33 34.2544 Q2237.01 30.163 2240.61 28.1376 Q2244.26 26.1121 2249 26.1121 Q2256.82 26.1121 2260.83 30.9732 Q2264.84 35.7938 2264.84 45.1919 Z" fill="#000000" fill-rule="nonzero" fill-opacity="1" /><path clip-path="url(#clip090)" d="M2312.35 28.9478 L2312.35 35.9153 Q2309.19 34.1734 2305.99 33.3227 Q2302.83 32.4315 2299.59 32.4315 Q2292.34 32.4315 2288.33 37.0496 Q2284.32 41.6271 2284.32 49.9314 Q2284.32 58.2358 2288.33 62.8538 Q2292.34 67.4314 2299.59 67.4314 Q2302.83 67.4314 2305.99 66.5807 Q2309.19 65.6895 2312.35 63.9476 L2312.35 70.8341 Q2309.23 72.2924 2305.87 73.0216 Q2302.55 73.7508 2298.78 73.7508 Q2288.53 73.7508 2282.5 67.3098 Q2276.46 60.8689 2276.46 49.9314 Q2276.46 38.832 2282.54 32.472 Q2288.66 26.1121 2299.27 26.1121 Q2302.71 26.1121 2305.99 26.8413 Q2309.27 27.5299 2312.35 28.9478 Z" fill="#000000" fill-rule="nonzero" fill-opacity="1" /><path clip-path="url(#clip090)" d="M2344.19 76.7889 Q2341.03 84.8907 2338.04 87.3618 Q2335.04 89.8329 2330.01 89.8329 L2324.06 89.8329 L2324.06 83.5945 L2328.44 83.5945 Q2331.51 83.5945 2333.22 82.1361 Q2334.92 80.6778 2336.98 75.2496 L2338.32 71.8468 L2319.97 27.2059 L2327.87 27.2059 L2342.05 62.6918 L2356.22 27.2059 L2364.12 27.2059 L2344.19 76.7889 Z" fill="#000000" fill-rule="nonzero" fill-opacity="1" /><path clip-path="url(#clip090)" d="M2373.24 9.62495 L2379.72 9.62495 Q2385.8 19.1851 2388.79 28.3401 Q2391.83 37.4952 2391.83 46.5287 Q2391.83 55.6027 2388.79 64.7983 Q2385.8 73.9938 2379.72 83.5134 L2373.24 83.5134 Q2378.63 74.2369 2381.26 65.0818 Q2383.93 55.8863 2383.93 46.5287 Q2383.93 37.1711 2381.26 28.0566 Q2378.63 18.942 2373.24 9.62495 Z" fill="#000000" fill-rule="nonzero" fill-opacity="1" /><polyline clip-path="url(#clip092)" style="stroke:#009af9; stroke-linecap:round; stroke-linejoin:round; stroke-width:4; stroke-opacity:1; fill:none" points="424.276,1386.4 632.31,1373.6 840.345,1336.41 1048.38,1331.71 1256.41,1187.31 1464.45,1316.4 1672.48,160.256 1880.52,801.024 2088.55,1017.56 2296.59,756.461 "/>
<path clip-path="url(#clip092)" d="M424.276 1402.4 L412.964 1397.71 L408.276 1386.4 L412.964 1375.08 L424.276 1370.4 L435.588 1375.08 L440.276 1386.4 L435.588 1397.71 Z" fill="#009af9" fill-rule="evenodd" fill-opacity="1" stroke="#000000" stroke-opacity="1" stroke-width="3.2"/>
<path clip-path="url(#clip092)" d="M632.31 1389.6 L620.998 1384.91 L616.31 1373.6 L620.998 1362.29 L632.31 1357.6 L643.622 1362.29 L648.31 1373.6 L643.622 1384.91 Z" fill="#009af9" fill-rule="evenodd" fill-opacity="1" stroke="#000000" stroke-opacity="1" stroke-width="3.2"/>
<path clip-path="url(#clip092)" d="M840.345 1352.41 L829.033 1347.73 L824.345 1336.41 L829.033 1325.1 L840.345 1320.41 L851.657 1325.1 L856.345 1336.41 L851.657 1347.73 Z" fill="#009af9" fill-rule="evenodd" fill-opacity="1" stroke="#000000" stroke-opacity="1" stroke-width="3.2"/>
<path clip-path="url(#clip092)" d="M1048.38 1347.71 L1037.07 1343.02 L1032.38 1331.71 L1037.07 1320.39 L1048.38 1315.71 L1059.69 1320.39 L1064.38 1331.71 L1059.69 1343.02 Z" fill="#009af9" fill-rule="evenodd" fill-opacity="1" stroke="#000000" stroke-opacity="1" stroke-width="3.2"/>
<path clip-path="url(#clip092)" d="M1256.41 1203.31 L1245.1 1198.62 L1240.41 1187.31 L1245.1 1176 L1256.41 1171.31 L1267.73 1176 L1272.41 1187.31 L1267.73 1198.62 Z" fill="#009af9" fill-rule="evenodd" fill-opacity="1" stroke="#000000" stroke-opacity="1" stroke-width="3.2"/>
<path clip-path="url(#clip092)" d="M1464.45 1332.4 L1453.14 1327.71 L1448.45 1316.4 L1453.14 1305.09 L1464.45 1300.4 L1475.76 1305.09 L1480.45 1316.4 L1475.76 1327.71 Z" fill="#009af9" fill-rule="evenodd" fill-opacity="1" stroke="#000000" stroke-opacity="1" stroke-width="3.2"/>
<path clip-path="url(#clip092)" d="M1672.48 176.256 L1661.17 171.568 L1656.48 160.256 L1661.17 148.944 L1672.48 144.256 L1683.79 148.944 L1688.48 160.256 L1683.79 171.568 Z" fill="#009af9" fill-rule="evenodd" fill-opacity="1" stroke="#000000" stroke-opacity="1" stroke-width="3.2"/>
<path clip-path="url(#clip092)" d="M1880.52 817.024 L1869.21 812.336 L1864.52 801.024 L1869.21 789.712 L1880.52 785.024 L1891.83 789.712 L1896.52 801.024 L1891.83 812.336 Z" fill="#009af9" fill-rule="evenodd" fill-opacity="1" stroke="#000000" stroke-opacity="1" stroke-width="3.2"/>
<path clip-path="url(#clip092)" d="M2088.55 1033.56 L2077.24 1028.87 L2072.55 1017.56 L2077.24 1006.25 L2088.55 1001.56 L2099.86 1006.25 L2104.55 1017.56 L2099.86 1028.87 Z" fill="#009af9" fill-rule="evenodd" fill-opacity="1" stroke="#000000" stroke-opacity="1" stroke-width="3.2"/>
<path clip-path="url(#clip092)" d="M2296.59 772.461 L2285.27 767.773 L2280.59 756.461 L2285.27 745.149 L2296.59 740.461 L2307.9 745.149 L2312.59 756.461 L2307.9 767.773 Z" fill="#009af9" fill-rule="evenodd" fill-opacity="1" stroke="#000000" stroke-opacity="1" stroke-width="3.2"/>
<path clip-path="url(#clip090)" d="M2035.71 270.476 L2286.6 270.476 L2286.6 166.796 L2035.71 166.796  Z" fill="#ffffff" fill-rule="evenodd" fill-opacity="1"/>
<polyline clip-path="url(#clip090)" style="stroke:#000000; stroke-linecap:round; stroke-linejoin:round; stroke-width:4; stroke-opacity:1; fill:none" points="2035.71,270.476 2286.6,270.476 2286.6,166.796 2035.71,166.796 2035.71,270.476 "/>
<polyline clip-path="url(#clip090)" style="stroke:#009af9; stroke-linecap:round; stroke-linejoin:round; stroke-width:4; stroke-opacity:1; fill:none" points="2057.76,218.636 2190.07,218.636 "/>
<path clip-path="url(#clip090)" d="M2123.91 239.054 L2109.48 233.071 L2103.49 218.636 L2109.48 204.2 L2123.91 198.218 L2138.35 204.2 L2144.33 218.636 L2138.35 233.071 Z" fill="#009af9" fill-rule="evenodd" fill-opacity="1" stroke="#000000" stroke-opacity="1" stroke-width="4.55111"/>
<path clip-path="url(#clip090)" d="M2225.96 238.323 Q2224.16 242.953 2222.44 244.365 Q2220.73 245.777 2217.86 245.777 L2214.46 245.777 L2214.46 242.212 L2216.96 242.212 Q2218.72 242.212 2219.69 241.379 Q2220.66 240.545 2221.84 237.443 L2222.61 235.499 L2212.12 209.99 L2216.63 209.99 L2224.73 230.268 L2232.84 209.99 L2237.35 209.99 L2225.96 238.323 Z" fill="#000000" fill-rule="nonzero" fill-opacity="1" /><path clip-path="url(#clip090)" d="M2244.64 231.981 L2252.28 231.981 L2252.28 205.615 L2243.97 207.282 L2243.97 203.022 L2252.23 201.356 L2256.91 201.356 L2256.91 231.981 L2264.55 231.981 L2264.55 235.916 L2244.64 235.916 L2244.64 231.981 Z" fill="#000000" fill-rule="nonzero" fill-opacity="1" /></svg>
