<?xml version="1.0" encoding="utf-8"?>
<svg xmlns="http://www.w3.org/2000/svg" xmlns:xlink="http://www.w3.org/1999/xlink" width="600" height="400" viewBox="0 0 2400 1600">
<defs>
  <clipPath id="clip820">
    <rect x="0" y="0" width="2400" height="1600"/>
  </clipPath>
</defs>
<path clip-path="url(#clip820)" d="M0 1600 L2400 1600 L2400 0 L0 0  Z" fill="#ffffff" fill-rule="evenodd" fill-opacity="1"/>
<defs>
  <clipPath id="clip821">
    <rect x="480" y="0" width="1681" height="1600"/>
  </clipPath>
</defs>
<path clip-path="url(#clip820)" d="M262.551 1423.18 L2352.76 1423.18 L2352.76 123.472 L262.551 123.472  Z" fill="#ffffff" fill-rule="evenodd" fill-opacity="1"/>
<defs>
  <clipPath id="clip822">
    <rect x="262" y="123" width="2091" height="1301"/>
  </clipPath>
</defs>
<polyline clip-path="url(#clip822)" style="stroke:#000000; stroke-linecap:round; stroke-linejoin:round; stroke-width:2; stroke-opacity:0.1; fill:none" points="707.745,1423.18 707.745,123.472 "/>
<polyline clip-path="url(#clip822)" style="stroke:#000000; stroke-linecap:round; stroke-linejoin:round; stroke-width:2; stroke-opacity:0.1; fill:none" points="1199.27,1423.18 1199.27,123.472 "/>
<polyline clip-path="url(#clip822)" style="stroke:#000000; stroke-linecap:round; stroke-linejoin:round; stroke-width:2; stroke-opacity:0.1; fill:none" points="1690.8,1423.18 1690.8,123.472 "/>
<polyline clip-path="url(#clip822)" style="stroke:#000000; stroke-linecap:round; stroke-linejoin:round; stroke-width:2; stroke-opacity:0.1; fill:none" points="2182.33,1423.18 2182.33,123.472 "/>
<polyline clip-path="url(#clip822)" style="stroke:#000000; stroke-linecap:round; stroke-linejoin:round; stroke-width:2; stroke-opacity:0.1; fill:none" points="262.551,1146.35 2352.76,1146.35 "/>
<polyline clip-path="url(#clip822)" style="stroke:#000000; stroke-linecap:round; stroke-linejoin:round; stroke-width:2; stroke-opacity:0.1; fill:none" points="262.551,840.717 2352.76,840.717 "/>
<polyline clip-path="url(#clip822)" style="stroke:#000000; stroke-linecap:round; stroke-linejoin:round; stroke-width:2; stroke-opacity:0.1; fill:none" points="262.551,535.08 2352.76,535.08 "/>
<polyline clip-path="url(#clip822)" style="stroke:#000000; stroke-linecap:round; stroke-linejoin:round; stroke-width:2; stroke-opacity:0.1; fill:none" points="262.551,229.443 2352.76,229.443 "/>
<polyline clip-path="url(#clip820)" style="stroke:#000000; stroke-linecap:round; stroke-linejoin:round; stroke-width:4; stroke-opacity:1; fill:none" points="262.551,1423.18 2352.76,1423.18 "/>
<polyline clip-path="url(#clip820)" style="stroke:#000000; stroke-linecap:round; stroke-linejoin:round; stroke-width:4; stroke-opacity:1; fill:none" points="707.745,1423.18 707.745,1404.28 "/>
<polyline clip-path="url(#clip820)" style="stroke:#000000; stroke-linecap:round; stroke-linejoin:round; stroke-width:4; stroke-opacity:1; fill:none" points="1199.27,1423.18 1199.27,1404.28 "/>
<polyline clip-path="url(#clip820)" style="stroke:#000000; stroke-linecap:round; stroke-linejoin:round; stroke-width:4; stroke-opacity:1; fill:none" points="1690.8,1423.18 1690.8,1404.28 "/>
<polyline clip-path="url(#clip820)" style="stroke:#000000; stroke-linecap:round; stroke-linejoin:round; stroke-width:4; stroke-opacity:1; fill:none" points="2182.33,1423.18 2182.33,1404.28 "/>
<path clip-path="url(#clip820)" d="M652.271 1481.64 L659.91 1481.64 L659.91 1455.28 L651.6 1456.95 L651.6 1452.69 L659.864 1451.02 L664.539 1451.02 L664.539 1481.64 L672.178 1481.64 L672.178 1485.58 L652.271 1485.58 L652.271 1481.64 Z" fill="#000000" fill-rule="nonzero" fill-opacity="1" /><path clip-path="url(#clip820)" d="M694.47 1455.09 L682.664 1473.54 L694.47 1473.54 L694.47 1455.09 M693.243 1451.02 L699.123 1451.02 L699.123 1473.54 L704.053 1473.54 L704.053 1477.43 L699.123 1477.43 L699.123 1485.58 L694.47 1485.58 L694.47 1477.43 L678.868 1477.43 L678.868 1472.92 L693.243 1451.02 Z" fill="#000000" fill-rule="nonzero" fill-opacity="1" /><path clip-path="url(#clip820)" d="M724.632 1455.09 L712.826 1473.54 L724.632 1473.54 L724.632 1455.09 M723.405 1451.02 L729.285 1451.02 L729.285 1473.54 L734.215 1473.54 L734.215 1477.43 L729.285 1477.43 L729.285 1485.58 L724.632 1485.58 L724.632 1477.43 L709.03 1477.43 L709.03 1472.92 L723.405 1451.02 Z" fill="#000000" fill-rule="nonzero" fill-opacity="1" /><path clip-path="url(#clip820)" d="M751.946 1454.1 Q748.335 1454.1 746.507 1457.66 Q744.701 1461.2 744.701 1468.33 Q744.701 1475.44 746.507 1479.01 Q748.335 1482.55 751.946 1482.55 Q755.581 1482.55 757.386 1479.01 Q759.215 1475.44 759.215 1468.33 Q759.215 1461.2 757.386 1457.66 Q755.581 1454.1 751.946 1454.1 M751.946 1450.39 Q757.757 1450.39 760.812 1455 Q763.891 1459.58 763.891 1468.33 Q763.891 1477.06 760.812 1481.67 Q757.757 1486.25 751.946 1486.25 Q746.136 1486.25 743.058 1481.67 Q740.002 1477.06 740.002 1468.33 Q740.002 1459.58 743.058 1455 Q746.136 1450.39 751.946 1450.39 Z" fill="#000000" fill-rule="nonzero" fill-opacity="1" /><path clip-path="url(#clip820)" d="M1143.8 1481.64 L1151.44 1481.64 L1151.44 1455.28 L1143.13 1456.95 L1143.13 1452.69 L1151.39 1451.02 L1156.07 1451.02 L1156.07 1481.64 L1163.71 1481.64 L1163.71 1485.58 L1143.8 1485.58 L1143.8 1481.64 Z" fill="#000000" fill-rule="nonzero" fill-opacity="1" /><path clip-path="url(#clip820)" d="M1186 1455.09 L1174.19 1473.54 L1186 1473.54 L1186 1455.09 M1184.77 1451.02 L1190.65 1451.02 L1190.65 1473.54 L1195.58 1473.54 L1195.58 1477.43 L1190.65 1477.43 L1190.65 1485.58 L1186 1485.58 L1186 1477.43 L1170.4 1477.43 L1170.4 1472.92 L1184.77 1451.02 Z" fill="#000000" fill-rule="nonzero" fill-opacity="1" /><path clip-path="url(#clip820)" d="M1213.89 1466.44 Q1210.74 1466.44 1208.89 1468.59 Q1207.06 1470.74 1207.06 1474.49 Q1207.06 1478.22 1208.89 1480.39 Q1210.74 1482.55 1213.89 1482.55 Q1217.04 1482.55 1218.87 1480.39 Q1220.72 1478.22 1220.72 1474.49 Q1220.72 1470.74 1218.87 1468.59 Q1217.04 1466.44 1213.89 1466.44 M1223.17 1451.78 L1223.17 1456.04 Q1221.42 1455.21 1219.61 1454.77 Q1217.83 1454.33 1216.07 1454.33 Q1211.44 1454.33 1208.98 1457.45 Q1206.55 1460.58 1206.21 1466.9 Q1207.57 1464.89 1209.63 1463.82 Q1211.69 1462.73 1214.17 1462.73 Q1219.38 1462.73 1222.39 1465.9 Q1225.42 1469.05 1225.42 1474.49 Q1225.42 1479.82 1222.27 1483.03 Q1219.12 1486.25 1213.89 1486.25 Q1207.9 1486.25 1204.73 1481.67 Q1201.55 1477.06 1201.55 1468.33 Q1201.55 1460.14 1205.44 1455.28 Q1209.33 1450.39 1215.88 1450.39 Q1217.64 1450.39 1219.42 1450.74 Q1221.23 1451.09 1223.17 1451.78 Z" fill="#000000" fill-rule="nonzero" fill-opacity="1" /><path clip-path="url(#clip820)" d="M1243.48 1454.1 Q1239.86 1454.1 1238.04 1457.66 Q1236.23 1461.2 1236.23 1468.33 Q1236.23 1475.44 1238.04 1479.01 Q1239.86 1482.55 1243.48 1482.55 Q1247.11 1482.55 1248.92 1479.01 Q1250.74 1475.44 1250.74 1468.33 Q1250.74 1461.2 1248.92 1457.66 Q1247.11 1454.1 1243.48 1454.1 M1243.48 1450.39 Q1249.29 1450.39 1252.34 1455 Q1255.42 1459.58 1255.42 1468.33 Q1255.42 1477.06 1252.34 1481.67 Q1249.29 1486.25 1243.48 1486.25 Q1237.67 1486.25 1234.59 1481.67 Q1231.53 1477.06 1231.53 1468.33 Q1231.53 1459.58 1234.59 1455 Q1237.67 1450.39 1243.48 1450.39 Z" fill="#000000" fill-rule="nonzero" fill-opacity="1" /><path clip-path="url(#clip820)" d="M1635.33 1481.64 L1642.97 1481.64 L1642.97 1455.28 L1634.66 1456.95 L1634.66 1452.69 L1642.92 1451.02 L1647.6 1451.02 L1647.6 1481.64 L1655.24 1481.64 L1655.24 1485.58 L1635.33 1485.58 L1635.33 1481.64 Z" fill="#000000" fill-rule="nonzero" fill-opacity="1" /><path clip-path="url(#clip820)" d="M1677.53 1455.09 L1665.72 1473.54 L1677.53 1473.54 L1677.53 1455.09 M1676.3 1451.02 L1682.18 1451.02 L1682.18 1473.54 L1687.11 1473.54 L1687.11 1477.43 L1682.18 1477.43 L1682.18 1485.58 L1677.53 1485.58 L1677.53 1477.43 L1661.93 1477.43 L1661.93 1472.92 L1676.3 1451.02 Z" fill="#000000" fill-rule="nonzero" fill-opacity="1" /><path clip-path="url(#clip820)" d="M1704.84 1469.17 Q1701.51 1469.17 1699.59 1470.95 Q1697.69 1472.73 1697.69 1475.86 Q1697.69 1478.98 1699.59 1480.77 Q1701.51 1482.55 1704.84 1482.55 Q1708.18 1482.55 1710.1 1480.77 Q1712.02 1478.96 1712.02 1475.86 Q1712.02 1472.73 1710.1 1470.95 Q1708.2 1469.17 1704.84 1469.17 M1700.17 1467.18 Q1697.16 1466.44 1695.47 1464.38 Q1693.8 1462.32 1693.8 1459.35 Q1693.8 1455.21 1696.74 1452.8 Q1699.7 1450.39 1704.84 1450.39 Q1710 1450.39 1712.94 1452.8 Q1715.88 1455.21 1715.88 1459.35 Q1715.88 1462.32 1714.19 1464.38 Q1712.53 1466.44 1709.54 1467.18 Q1712.92 1467.96 1714.8 1470.26 Q1716.69 1472.55 1716.69 1475.86 Q1716.69 1480.88 1713.62 1483.57 Q1710.56 1486.25 1704.84 1486.25 Q1699.12 1486.25 1696.05 1483.57 Q1692.99 1480.88 1692.99 1475.86 Q1692.99 1472.55 1694.89 1470.26 Q1696.79 1467.96 1700.17 1467.18 M1698.45 1459.79 Q1698.45 1462.48 1700.12 1463.98 Q1701.81 1465.49 1704.84 1465.49 Q1707.85 1465.49 1709.54 1463.98 Q1711.25 1462.48 1711.25 1459.79 Q1711.25 1457.11 1709.54 1455.6 Q1707.85 1454.1 1704.84 1454.1 Q1701.81 1454.1 1700.12 1455.6 Q1698.45 1457.11 1698.45 1459.79 Z" fill="#000000" fill-rule="nonzero" fill-opacity="1" /><path clip-path="url(#clip820)" d="M1735 1454.1 Q1731.39 1454.1 1729.56 1457.66 Q1727.76 1461.2 1727.76 1468.33 Q1727.76 1475.44 1729.56 1479.01 Q1731.39 1482.55 1735 1482.55 Q1738.64 1482.55 1740.44 1479.01 Q1742.27 1475.44 1742.27 1468.33 Q1742.27 1461.2 1740.44 1457.66 Q1738.64 1454.1 1735 1454.1 M1735 1450.39 Q1740.81 1450.39 1743.87 1455 Q1746.95 1459.58 1746.95 1468.33 Q1746.95 1477.06 1743.87 1481.67 Q1740.81 1486.25 1735 1486.25 Q1729.19 1486.25 1726.12 1481.67 Q1723.06 1477.06 1723.06 1468.33 Q1723.06 1459.58 1726.12 1455 Q1729.19 1450.39 1735 1450.39 Z" fill="#000000" fill-rule="nonzero" fill-opacity="1" /><path clip-path="url(#clip820)" d="M2126.86 1481.64 L2134.5 1481.64 L2134.5 1455.28 L2126.19 1456.95 L2126.19 1452.69 L2134.45 1451.02 L2139.13 1451.02 L2139.13 1481.64 L2146.77 1481.64 L2146.77 1485.58 L2126.86 1485.58 L2126.86 1481.64 Z" fill="#000000" fill-rule="nonzero" fill-opacity="1" /><path clip-path="url(#clip820)" d="M2156.26 1451.02 L2174.61 1451.02 L2174.61 1454.96 L2160.54 1454.96 L2160.54 1463.43 Q2161.56 1463.08 2162.58 1462.92 Q2163.59 1462.73 2164.61 1462.73 Q2170.4 1462.73 2173.78 1465.9 Q2177.16 1469.08 2177.16 1474.49 Q2177.16 1480.07 2173.69 1483.17 Q2170.21 1486.25 2163.89 1486.25 Q2161.72 1486.25 2159.45 1485.88 Q2157.21 1485.51 2154.8 1484.77 L2154.8 1480.07 Q2156.88 1481.2 2159.1 1481.76 Q2161.33 1482.32 2163.8 1482.32 Q2167.81 1482.32 2170.14 1480.21 Q2172.48 1478.1 2172.48 1474.49 Q2172.48 1470.88 2170.14 1468.77 Q2167.81 1466.67 2163.8 1466.67 Q2161.93 1466.67 2160.05 1467.08 Q2158.2 1467.5 2156.26 1468.38 L2156.26 1451.02 Z" fill="#000000" fill-rule="nonzero" fill-opacity="1" /><path clip-path="url(#clip820)" d="M2196.37 1454.1 Q2192.76 1454.1 2190.93 1457.66 Q2189.13 1461.2 2189.13 1468.33 Q2189.13 1475.44 2190.93 1479.01 Q2192.76 1482.55 2196.37 1482.55 Q2200.01 1482.55 2201.81 1479.01 Q2203.64 1475.44 2203.64 1468.33 Q2203.64 1461.2 2201.81 1457.66 Q2200.01 1454.1 2196.37 1454.1 M2196.37 1450.39 Q2202.18 1450.39 2205.24 1455 Q2208.32 1459.58 2208.32 1468.33 Q2208.32 1477.06 2205.24 1481.67 Q2202.18 1486.25 2196.37 1486.25 Q2190.56 1486.25 2187.48 1481.67 Q2184.43 1477.06 2184.43 1468.33 Q2184.43 1459.58 2187.48 1455 Q2190.56 1450.39 2196.37 1450.39 Z" fill="#000000" fill-rule="nonzero" fill-opacity="1" /><path clip-path="url(#clip820)" d="M2226.53 1454.1 Q2222.92 1454.1 2221.09 1457.66 Q2219.29 1461.2 2219.29 1468.33 Q2219.29 1475.44 2221.09 1479.01 Q2222.92 1482.55 2226.53 1482.55 Q2230.17 1482.55 2231.97 1479.01 Q2233.8 1475.44 2233.8 1468.33 Q2233.8 1461.2 2231.97 1457.66 Q2230.17 1454.1 2226.53 1454.1 M2226.53 1450.39 Q2232.34 1450.39 2235.4 1455 Q2238.48 1459.58 2238.48 1468.33 Q2238.48 1477.06 2235.4 1481.67 Q2232.34 1486.25 2226.53 1486.25 Q2220.72 1486.25 2217.64 1481.67 Q2214.59 1477.06 2214.59 1468.33 Q2214.59 1459.58 2217.64 1455 Q2220.72 1450.39 2226.53 1450.39 Z" fill="#000000" fill-rule="nonzero" fill-opacity="1" /><path clip-path="url(#clip820)" d="M852.426 1520.52 L858.855 1520.52 L858.855 1562.63 L881.995 1562.63 L881.995 1568.04 L852.426 1568.04 L852.426 1520.52 Z" fill="#000000" fill-rule="nonzero" fill-opacity="1" /><path clip-path="url(#clip820)" d="M901.155 1536.5 Q896.445 1536.5 893.708 1540.19 Q890.97 1543.85 890.97 1550.25 Q890.97 1556.65 893.676 1560.34 Q896.413 1564 901.155 1564 Q905.834 1564 908.572 1560.31 Q911.309 1556.62 911.309 1550.25 Q911.309 1543.92 908.572 1540.23 Q905.834 1536.5 901.155 1536.5 M901.155 1531.54 Q908.794 1531.54 913.155 1536.5 Q917.515 1541.47 917.515 1550.25 Q917.515 1559 913.155 1564 Q908.794 1568.97 901.155 1568.97 Q893.485 1568.97 889.124 1564 Q884.796 1559 884.796 1550.25 Q884.796 1541.47 889.124 1536.5 Q893.485 1531.54 901.155 1531.54 Z" fill="#000000" fill-rule="nonzero" fill-opacity="1" /><path clip-path="url(#clip820)" d="M923.817 1532.4 L929.674 1532.4 L936.994 1560.21 L944.283 1532.4 L951.19 1532.4 L958.51 1560.21 L965.799 1532.4 L971.656 1532.4 L962.33 1568.04 L955.423 1568.04 L947.752 1538.83 L940.05 1568.04 L933.143 1568.04 L923.817 1532.4 Z" fill="#000000" fill-rule="nonzero" fill-opacity="1" /><path clip-path="url(#clip820)" d="M1011.03 1548.76 L1011.03 1551.62 L984.101 1551.62 Q984.483 1557.67 987.729 1560.85 Q991.007 1564 996.832 1564 Q1000.21 1564 1003.36 1563.17 Q1006.54 1562.35 1009.66 1560.69 L1009.66 1566.23 Q1006.51 1567.57 1003.2 1568.27 Q999.888 1568.97 996.482 1568.97 Q987.952 1568.97 982.955 1564 Q977.99 1559.04 977.99 1550.57 Q977.99 1541.82 982.7 1536.69 Q987.443 1531.54 995.463 1531.54 Q1002.66 1531.54 1006.83 1536.18 Q1011.03 1540.8 1011.03 1548.76 M1005.17 1547.04 Q1005.11 1542.23 1002.47 1539.37 Q999.856 1536.5 995.527 1536.5 Q990.625 1536.5 987.665 1539.27 Q984.737 1542.04 984.292 1547.07 L1005.17 1547.04 Z" fill="#000000" fill-rule="nonzero" fill-opacity="1" /><path clip-path="url(#clip820)" d="M1041.3 1537.87 Q1040.31 1537.3 1039.13 1537.04 Q1037.99 1536.76 1036.59 1536.76 Q1031.62 1536.76 1028.95 1540 Q1026.31 1543.22 1026.31 1549.27 L1026.31 1568.04 L1020.42 1568.04 L1020.42 1532.4 L1026.31 1532.4 L1026.31 1537.93 Q1028.15 1534.69 1031.11 1533.13 Q1034.07 1531.54 1038.3 1531.54 Q1038.91 1531.54 1039.64 1531.63 Q1040.37 1531.7 1041.26 1531.85 L1041.3 1537.87 Z" fill="#000000" fill-rule="nonzero" fill-opacity="1" /><path clip-path="url(#clip820)" d="M1040.31 1547.58 L1057.47 1547.58 L1057.47 1552.8 L1040.31 1552.8 L1040.31 1547.58 Z" fill="#000000" fill-rule="nonzero" fill-opacity="1" /><path clip-path="url(#clip820)" d="M1067.05 1520.52 L1073.48 1520.52 L1073.48 1562.63 L1096.61 1562.63 L1096.61 1568.04 L1067.05 1568.04 L1067.05 1520.52 Z" fill="#000000" fill-rule="nonzero" fill-opacity="1" /><path clip-path="url(#clip820)" d="M1132.45 1548.76 L1132.45 1551.62 L1105.53 1551.62 Q1105.91 1557.67 1109.15 1560.85 Q1112.43 1564 1118.26 1564 Q1121.63 1564 1124.78 1563.17 Q1127.97 1562.35 1131.08 1560.69 L1131.08 1566.23 Q1127.93 1567.57 1124.62 1568.27 Q1121.31 1568.97 1117.91 1568.97 Q1109.38 1568.97 1104.38 1564 Q1099.42 1559.04 1099.42 1550.57 Q1099.42 1541.82 1104.13 1536.69 Q1108.87 1531.54 1116.89 1531.54 Q1124.08 1531.54 1128.25 1536.18 Q1132.45 1540.8 1132.45 1548.76 M1126.6 1547.04 Q1126.53 1542.23 1123.89 1539.37 Q1121.28 1536.5 1116.95 1536.5 Q1112.05 1536.5 1109.09 1539.27 Q1106.16 1542.04 1105.72 1547.07 L1126.6 1547.04 Z" fill="#000000" fill-rule="nonzero" fill-opacity="1" /><path clip-path="url(#clip820)" d="M1137.86 1532.4 L1144.07 1532.4 L1155.21 1562.31 L1166.35 1532.4 L1172.56 1532.4 L1159.19 1568.04 L1151.23 1568.04 L1137.86 1532.4 Z" fill="#000000" fill-rule="nonzero" fill-opacity="1" /><path clip-path="url(#clip820)" d="M1211.13 1548.76 L1211.13 1551.62 L1184.21 1551.62 Q1184.59 1557.67 1187.84 1560.85 Q1191.11 1564 1196.94 1564 Q1200.31 1564 1203.46 1563.17 Q1206.65 1562.35 1209.76 1560.69 L1209.76 1566.23 Q1206.61 1567.57 1203.3 1568.27 Q1199.99 1568.97 1196.59 1568.97 Q1188.06 1568.97 1183.06 1564 Q1178.1 1559.04 1178.1 1550.57 Q1178.1 1541.82 1182.81 1536.69 Q1187.55 1531.54 1195.57 1531.54 Q1202.76 1531.54 1206.93 1536.18 Q1211.13 1540.8 1211.13 1548.76 M1205.28 1547.04 Q1205.21 1542.23 1202.57 1539.37 Q1199.96 1536.5 1195.63 1536.5 Q1190.73 1536.5 1187.77 1539.27 Q1184.84 1542.04 1184.4 1547.07 L1205.28 1547.04 Z" fill="#000000" fill-rule="nonzero" fill-opacity="1" /><path clip-path="url(#clip820)" d="M1220.75 1518.52 L1226.6 1518.52 L1226.6 1568.04 L1220.75 1568.04 L1220.75 1518.52 Z" fill="#000000" fill-rule="nonzero" fill-opacity="1" /><path clip-path="url(#clip820)" d="M1259.83 1520.52 L1266.26 1520.52 L1266.26 1562.63 L1289.4 1562.63 L1289.4 1568.04 L1259.83 1568.04 L1259.83 1520.52 Z" fill="#000000" fill-rule="nonzero" fill-opacity="1" /><path clip-path="url(#clip820)" d="M1308.56 1536.5 Q1303.85 1536.5 1301.11 1540.19 Q1298.38 1543.85 1298.38 1550.25 Q1298.38 1556.65 1301.08 1560.34 Q1303.82 1564 1308.56 1564 Q1313.24 1564 1315.98 1560.31 Q1318.71 1556.62 1318.71 1550.25 Q1318.71 1543.92 1315.98 1540.23 Q1313.24 1536.5 1308.56 1536.5 M1308.56 1531.54 Q1316.2 1531.54 1320.56 1536.5 Q1324.92 1541.47 1324.92 1550.25 Q1324.92 1559 1320.56 1564 Q1316.2 1568.97 1308.56 1568.97 Q1300.89 1568.97 1296.53 1564 Q1292.2 1559 1292.2 1550.25 Q1292.2 1541.47 1296.53 1536.5 Q1300.89 1531.54 1308.56 1531.54 Z" fill="#000000" fill-rule="nonzero" fill-opacity="1" /><path clip-path="url(#clip820)" d="M1350.83 1550.12 Q1343.73 1550.12 1340.99 1551.75 Q1338.26 1553.37 1338.26 1557.29 Q1338.26 1560.4 1340.29 1562.25 Q1342.36 1564.07 1345.9 1564.07 Q1350.77 1564.07 1353.69 1560.63 Q1356.65 1557.16 1356.65 1551.43 L1356.65 1550.12 L1350.83 1550.12 M1362.51 1547.71 L1362.51 1568.04 L1356.65 1568.04 L1356.65 1562.63 Q1354.65 1565.88 1351.66 1567.44 Q1348.66 1568.97 1344.34 1568.97 Q1338.86 1568.97 1335.61 1565.91 Q1332.4 1562.82 1332.4 1557.67 Q1332.4 1551.65 1336.41 1548.6 Q1340.45 1545.54 1348.44 1545.54 L1356.65 1545.54 L1356.65 1544.97 Q1356.65 1540.93 1353.98 1538.73 Q1351.34 1536.5 1346.53 1536.5 Q1343.48 1536.5 1340.58 1537.23 Q1337.68 1537.97 1335.01 1539.43 L1335.01 1534.02 Q1338.22 1532.78 1341.25 1532.17 Q1344.27 1531.54 1347.14 1531.54 Q1354.87 1531.54 1358.69 1535.55 Q1362.51 1539.56 1362.51 1547.71 Z" fill="#000000" fill-rule="nonzero" fill-opacity="1" /><path clip-path="url(#clip820)" d="M1398.03 1537.81 L1398.03 1518.52 L1403.89 1518.52 L1403.89 1568.04 L1398.03 1568.04 L1398.03 1562.7 Q1396.18 1565.88 1393.35 1567.44 Q1390.55 1568.97 1386.6 1568.97 Q1380.14 1568.97 1376.07 1563.81 Q1372.03 1558.65 1372.03 1550.25 Q1372.03 1541.85 1376.07 1536.69 Q1380.14 1531.54 1386.6 1531.54 Q1390.55 1531.54 1393.35 1533.1 Q1396.18 1534.62 1398.03 1537.81 M1378.07 1550.25 Q1378.07 1556.71 1380.72 1560.4 Q1383.39 1564.07 1388.04 1564.07 Q1392.68 1564.07 1395.36 1560.4 Q1398.03 1556.71 1398.03 1550.25 Q1398.03 1543.79 1395.36 1540.13 Q1392.68 1536.44 1388.04 1536.44 Q1383.39 1536.44 1380.72 1540.13 Q1378.07 1543.79 1378.07 1550.25 Z" fill="#000000" fill-rule="nonzero" fill-opacity="1" /><path clip-path="url(#clip820)" d="M1465.41 1522.08 L1465.41 1528.35 Q1461.75 1526.6 1458.5 1525.74 Q1455.26 1524.88 1452.23 1524.88 Q1446.98 1524.88 1444.12 1526.92 Q1441.29 1528.96 1441.29 1532.71 Q1441.29 1535.87 1443.16 1537.49 Q1445.07 1539.08 1450.36 1540.07 L1454.24 1540.86 Q1461.43 1542.23 1464.84 1545.7 Q1468.28 1549.14 1468.28 1554.93 Q1468.28 1561.84 1463.63 1565.4 Q1459.01 1568.97 1450.07 1568.97 Q1446.7 1568.97 1442.88 1568.2 Q1439.09 1567.44 1435.02 1565.94 L1435.02 1559.32 Q1438.93 1561.52 1442.69 1562.63 Q1446.44 1563.75 1450.07 1563.75 Q1455.58 1563.75 1458.57 1561.58 Q1461.56 1559.42 1461.56 1555.41 Q1461.56 1551.91 1459.4 1549.93 Q1457.26 1547.96 1452.36 1546.97 L1448.45 1546.21 Q1441.25 1544.78 1438.04 1541.72 Q1434.82 1538.67 1434.82 1533.22 Q1434.82 1526.92 1439.25 1523.29 Q1443.7 1519.66 1451.5 1519.66 Q1454.84 1519.66 1458.31 1520.27 Q1461.78 1520.87 1465.41 1522.08 Z" fill="#000000" fill-rule="nonzero" fill-opacity="1" /><path clip-path="url(#clip820)" d="M1507.68 1546.53 L1507.68 1568.04 L1501.82 1568.04 L1501.82 1546.72 Q1501.82 1541.66 1499.85 1539.14 Q1497.88 1536.63 1493.93 1536.63 Q1489.19 1536.63 1486.45 1539.65 Q1483.71 1542.68 1483.71 1547.9 L1483.71 1568.04 L1477.82 1568.04 L1477.82 1518.52 L1483.71 1518.52 L1483.71 1537.93 Q1485.81 1534.72 1488.65 1533.13 Q1491.51 1531.54 1495.24 1531.54 Q1501.38 1531.54 1504.53 1535.36 Q1507.68 1539.14 1507.68 1546.53 Z" fill="#000000" fill-rule="nonzero" fill-opacity="1" /><path clip-path="url(#clip820)" d="M1549.85 1548.76 L1549.85 1551.62 L1522.93 1551.62 Q1523.31 1557.67 1526.55 1560.85 Q1529.83 1564 1535.66 1564 Q1539.03 1564 1542.18 1563.17 Q1545.36 1562.35 1548.48 1560.69 L1548.48 1566.23 Q1545.33 1567.57 1542.02 1568.27 Q1538.71 1568.97 1535.31 1568.97 Q1526.78 1568.97 1521.78 1564 Q1516.81 1559.04 1516.81 1550.57 Q1516.81 1541.82 1521.53 1536.69 Q1526.27 1531.54 1534.29 1531.54 Q1541.48 1531.54 1545.65 1536.18 Q1549.85 1540.8 1549.85 1548.76 M1544 1547.04 Q1543.93 1542.23 1541.29 1539.37 Q1538.68 1536.5 1534.35 1536.5 Q1529.45 1536.5 1526.49 1539.27 Q1523.56 1542.04 1523.12 1547.07 L1544 1547.04 Z" fill="#000000" fill-rule="nonzero" fill-opacity="1" /><path clip-path="url(#clip820)" d="M1582.92 1537.81 L1582.92 1518.52 L1588.78 1518.52 L1588.78 1568.04 L1582.92 1568.04 L1582.92 1562.7 Q1581.08 1565.88 1578.24 1567.44 Q1575.44 1568.97 1571.5 1568.97 Q1565.03 1568.97 1560.96 1563.81 Q1556.92 1558.65 1556.92 1550.25 Q1556.92 1541.85 1560.96 1536.69 Q1565.03 1531.54 1571.5 1531.54 Q1575.44 1531.54 1578.24 1533.1 Q1581.08 1534.62 1582.92 1537.81 M1562.97 1550.25 Q1562.97 1556.71 1565.61 1560.4 Q1568.28 1564.07 1572.93 1564.07 Q1577.58 1564.07 1580.25 1560.4 Q1582.92 1556.71 1582.92 1550.25 Q1582.92 1543.79 1580.25 1540.13 Q1577.58 1536.44 1572.93 1536.44 Q1568.28 1536.44 1565.61 1540.13 Q1562.97 1543.79 1562.97 1550.25 Z" fill="#000000" fill-rule="nonzero" fill-opacity="1" /><path clip-path="url(#clip820)" d="M1635.63 1518.58 Q1631.37 1525.9 1629.3 1533.06 Q1627.23 1540.23 1627.23 1547.58 Q1627.23 1554.93 1629.3 1562.16 Q1631.4 1569.35 1635.63 1576.64 L1630.54 1576.64 Q1625.76 1569.16 1623.38 1561.93 Q1621.02 1554.71 1621.02 1547.58 Q1621.02 1540.48 1623.38 1533.29 Q1625.73 1526.09 1630.54 1518.58 L1635.63 1518.58 Z" fill="#000000" fill-rule="nonzero" fill-opacity="1" /><path clip-path="url(#clip820)" d="M1646.77 1518.52 L1652.66 1518.52 L1652.66 1547.77 L1670.13 1532.4 L1677.61 1532.4 L1658.71 1549.07 L1678.41 1568.04 L1670.77 1568.04 L1652.66 1550.63 L1652.66 1568.04 L1646.77 1568.04 L1646.77 1518.52 Z" fill="#000000" fill-rule="nonzero" fill-opacity="1" /><path clip-path="url(#clip820)" d="M1680.76 1520.52 L1687.26 1520.52 L1697.25 1560.69 L1707.21 1520.52 L1714.44 1520.52 L1724.43 1560.69 L1734.39 1520.52 L1740.92 1520.52 L1728.98 1568.04 L1720.9 1568.04 L1710.87 1526.79 L1700.75 1568.04 L1692.67 1568.04 L1680.76 1520.52 Z" fill="#000000" fill-rule="nonzero" fill-opacity="1" /><path clip-path="url(#clip820)" d="M1748.27 1518.58 L1753.36 1518.58 Q1758.14 1526.09 1760.49 1533.29 Q1762.88 1540.48 1762.88 1547.58 Q1762.88 1554.71 1760.49 1561.93 Q1758.14 1569.16 1753.36 1576.64 L1748.27 1576.64 Q1752.51 1569.35 1754.57 1562.16 Q1756.67 1554.93 1756.67 1547.58 Q1756.67 1540.23 1754.57 1533.06 Q1752.51 1525.9 1748.27 1518.58 Z" fill="#000000" fill-rule="nonzero" fill-opacity="1" /><polyline clip-path="url(#clip820)" style="stroke:#000000; stroke-linecap:round; stroke-linejoin:round; stroke-width:4; stroke-opacity:1; fill:none" points="262.551,1423.18 262.551,123.472 "/>
<polyline clip-path="url(#clip820)" style="stroke:#000000; stroke-linecap:round; stroke-linejoin:round; stroke-width:4; stroke-opacity:1; fill:none" points="262.551,1146.35 281.449,1146.35 "/>
<polyline clip-path="url(#clip820)" style="stroke:#000000; stroke-linecap:round; stroke-linejoin:round; stroke-width:4; stroke-opacity:1; fill:none" points="262.551,840.717 281.449,840.717 "/>
<polyline clip-path="url(#clip820)" style="stroke:#000000; stroke-linecap:round; stroke-linejoin:round; stroke-width:4; stroke-opacity:1; fill:none" points="262.551,535.08 281.449,535.08 "/>
<polyline clip-path="url(#clip820)" style="stroke:#000000; stroke-linecap:round; stroke-linejoin:round; stroke-width:4; stroke-opacity:1; fill:none" points="262.551,229.443 281.449,229.443 "/>
<path clip-path="url(#clip820)" d="M114.931 1159.7 L122.57 1159.7 L122.57 1133.33 L114.26 1135 L114.26 1130.74 L122.524 1129.07 L127.2 1129.07 L127.2 1159.7 L134.839 1159.7 L134.839 1163.63 L114.931 1163.63 L114.931 1159.7 Z" fill="#000000" fill-rule="nonzero" fill-opacity="1" /><path clip-path="url(#clip820)" d="M157.13 1133.15 L145.325 1151.6 L157.13 1151.6 L157.13 1133.15 M155.903 1129.07 L161.783 1129.07 L161.783 1151.6 L166.714 1151.6 L166.714 1155.49 L161.783 1155.49 L161.783 1163.63 L157.13 1163.63 L157.13 1155.49 L141.529 1155.49 L141.529 1150.97 L155.903 1129.07 Z" fill="#000000" fill-rule="nonzero" fill-opacity="1" /><path clip-path="url(#clip820)" d="M187.292 1133.15 L175.487 1151.6 L187.292 1151.6 L187.292 1133.15 M186.065 1129.07 L191.945 1129.07 L191.945 1151.6 L196.875 1151.6 L196.875 1155.49 L191.945 1155.49 L191.945 1163.63 L187.292 1163.63 L187.292 1155.49 L171.69 1155.49 L171.69 1150.97 L186.065 1129.07 Z" fill="#000000" fill-rule="nonzero" fill-opacity="1" /><path clip-path="url(#clip820)" d="M214.607 1132.15 Q210.996 1132.15 209.167 1135.72 Q207.362 1139.26 207.362 1146.39 Q207.362 1153.5 209.167 1157.06 Q210.996 1160.6 214.607 1160.6 Q218.241 1160.6 220.047 1157.06 Q221.875 1153.5 221.875 1146.39 Q221.875 1139.26 220.047 1135.72 Q218.241 1132.15 214.607 1132.15 M214.607 1128.45 Q220.417 1128.45 223.473 1133.06 Q226.551 1137.64 226.551 1146.39 Q226.551 1155.12 223.473 1159.72 Q220.417 1164.31 214.607 1164.31 Q208.797 1164.31 205.718 1159.72 Q202.662 1155.12 202.662 1146.39 Q202.662 1137.64 205.718 1133.06 Q208.797 1128.45 214.607 1128.45 Z" fill="#000000" fill-rule="nonzero" fill-opacity="1" /><path clip-path="url(#clip820)" d="M114.931 854.062 L122.57 854.062 L122.57 827.696 L114.26 829.363 L114.26 825.104 L122.524 823.437 L127.2 823.437 L127.2 854.062 L134.839 854.062 L134.839 857.997 L114.931 857.997 L114.931 854.062 Z" fill="#000000" fill-rule="nonzero" fill-opacity="1" /><path clip-path="url(#clip820)" d="M157.13 827.511 L145.325 845.96 L157.13 845.96 L157.13 827.511 M155.903 823.437 L161.783 823.437 L161.783 845.96 L166.714 845.96 L166.714 849.849 L161.783 849.849 L161.783 857.997 L157.13 857.997 L157.13 849.849 L141.529 849.849 L141.529 845.335 L155.903 823.437 Z" fill="#000000" fill-rule="nonzero" fill-opacity="1" /><path clip-path="url(#clip820)" d="M185.024 838.854 Q181.876 838.854 180.024 841.007 Q178.195 843.159 178.195 846.909 Q178.195 850.636 180.024 852.812 Q181.876 854.965 185.024 854.965 Q188.172 854.965 190 852.812 Q191.852 850.636 191.852 846.909 Q191.852 843.159 190 841.007 Q188.172 838.854 185.024 838.854 M194.306 824.201 L194.306 828.46 Q192.547 827.627 190.741 827.187 Q188.959 826.747 187.2 826.747 Q182.57 826.747 180.116 829.872 Q177.686 832.997 177.339 839.317 Q178.704 837.303 180.764 836.238 Q182.825 835.15 185.301 835.15 Q190.51 835.15 193.519 838.321 Q196.551 841.469 196.551 846.909 Q196.551 852.233 193.403 855.451 Q190.255 858.668 185.024 858.668 Q179.028 858.668 175.857 854.085 Q172.686 849.479 172.686 840.752 Q172.686 832.558 176.575 827.696 Q180.464 822.812 187.014 822.812 Q188.774 822.812 190.556 823.159 Q192.362 823.507 194.306 824.201 Z" fill="#000000" fill-rule="nonzero" fill-opacity="1" /><path clip-path="url(#clip820)" d="M214.607 826.516 Q210.996 826.516 209.167 830.081 Q207.362 833.622 207.362 840.752 Q207.362 847.858 209.167 851.423 Q210.996 854.965 214.607 854.965 Q218.241 854.965 220.047 851.423 Q221.875 847.858 221.875 840.752 Q221.875 833.622 220.047 830.081 Q218.241 826.516 214.607 826.516 M214.607 822.812 Q220.417 822.812 223.473 827.419 Q226.551 832.002 226.551 840.752 Q226.551 849.479 223.473 854.085 Q220.417 858.668 214.607 858.668 Q208.797 858.668 205.718 854.085 Q202.662 849.479 202.662 840.752 Q202.662 832.002 205.718 827.419 Q208.797 822.812 214.607 822.812 Z" fill="#000000" fill-rule="nonzero" fill-opacity="1" /><path clip-path="url(#clip820)" d="M114.931 548.425 L122.57 548.425 L122.57 522.059 L114.26 523.726 L114.26 519.467 L122.524 517.8 L127.2 517.8 L127.2 548.425 L134.839 548.425 L134.839 552.36 L114.931 552.36 L114.931 548.425 Z" fill="#000000" fill-rule="nonzero" fill-opacity="1" /><path clip-path="url(#clip820)" d="M157.13 521.874 L145.325 540.323 L157.13 540.323 L157.13 521.874 M155.903 517.8 L161.783 517.8 L161.783 540.323 L166.714 540.323 L166.714 544.212 L161.783 544.212 L161.783 552.36 L157.13 552.36 L157.13 544.212 L141.529 544.212 L141.529 539.698 L155.903 517.8 Z" fill="#000000" fill-rule="nonzero" fill-opacity="1" /><path clip-path="url(#clip820)" d="M184.445 535.948 Q181.112 535.948 179.19 537.731 Q177.292 539.513 177.292 542.638 Q177.292 545.763 179.19 547.545 Q181.112 549.328 184.445 549.328 Q187.778 549.328 189.7 547.545 Q191.621 545.74 191.621 542.638 Q191.621 539.513 189.7 537.731 Q187.801 535.948 184.445 535.948 M179.769 533.957 Q176.76 533.217 175.07 531.157 Q173.403 529.096 173.403 526.133 Q173.403 521.99 176.343 519.583 Q179.306 517.175 184.445 517.175 Q189.607 517.175 192.547 519.583 Q195.487 521.99 195.487 526.133 Q195.487 529.096 193.797 531.157 Q192.13 533.217 189.144 533.957 Q192.524 534.744 194.399 537.036 Q196.297 539.328 196.297 542.638 Q196.297 547.661 193.218 550.346 Q190.163 553.031 184.445 553.031 Q178.727 553.031 175.649 550.346 Q172.593 547.661 172.593 542.638 Q172.593 539.328 174.491 537.036 Q176.389 534.744 179.769 533.957 M178.056 526.573 Q178.056 529.258 179.723 530.763 Q181.413 532.268 184.445 532.268 Q187.454 532.268 189.144 530.763 Q190.857 529.258 190.857 526.573 Q190.857 523.888 189.144 522.383 Q187.454 520.879 184.445 520.879 Q181.413 520.879 179.723 522.383 Q178.056 523.888 178.056 526.573 Z" fill="#000000" fill-rule="nonzero" fill-opacity="1" /><path clip-path="url(#clip820)" d="M214.607 520.879 Q210.996 520.879 209.167 524.444 Q207.362 527.985 207.362 535.115 Q207.362 542.221 209.167 545.786 Q210.996 549.328 214.607 549.328 Q218.241 549.328 220.047 545.786 Q221.875 542.221 221.875 535.115 Q221.875 527.985 220.047 524.444 Q218.241 520.879 214.607 520.879 M214.607 517.175 Q220.417 517.175 223.473 521.782 Q226.551 526.365 226.551 535.115 Q226.551 543.842 223.473 548.448 Q220.417 553.031 214.607 553.031 Q208.797 553.031 205.718 548.448 Q202.662 543.842 202.662 535.115 Q202.662 526.365 205.718 521.782 Q208.797 517.175 214.607 517.175 Z" fill="#000000" fill-rule="nonzero" fill-opacity="1" /><path clip-path="url(#clip820)" d="M114.931 242.788 L122.57 242.788 L122.57 216.422 L114.26 218.089 L114.26 213.83 L122.524 212.163 L127.2 212.163 L127.2 242.788 L134.839 242.788 L134.839 246.723 L114.931 246.723 L114.931 242.788 Z" fill="#000000" fill-rule="nonzero" fill-opacity="1" /><path clip-path="url(#clip820)" d="M144.329 212.163 L162.686 212.163 L162.686 216.098 L148.612 216.098 L148.612 224.57 Q149.63 224.223 150.649 224.061 Q151.667 223.876 152.686 223.876 Q158.473 223.876 161.852 227.047 Q165.232 230.218 165.232 235.635 Q165.232 241.214 161.76 244.316 Q158.288 247.394 151.968 247.394 Q149.792 247.394 147.524 247.024 Q145.279 246.654 142.871 245.913 L142.871 241.214 Q144.954 242.348 147.177 242.904 Q149.399 243.459 151.876 243.459 Q155.88 243.459 158.218 241.353 Q160.556 239.246 160.556 235.635 Q160.556 232.024 158.218 229.918 Q155.88 227.811 151.876 227.811 Q150.001 227.811 148.126 228.228 Q146.274 228.644 144.329 229.524 L144.329 212.163 Z" fill="#000000" fill-rule="nonzero" fill-opacity="1" /><path clip-path="url(#clip820)" d="M184.445 215.242 Q180.834 215.242 179.005 218.807 Q177.2 222.348 177.2 229.478 Q177.2 236.584 179.005 240.149 Q180.834 243.691 184.445 243.691 Q188.079 243.691 189.885 240.149 Q191.713 236.584 191.713 229.478 Q191.713 222.348 189.885 218.807 Q188.079 215.242 184.445 215.242 M184.445 211.538 Q190.255 211.538 193.311 216.144 Q196.389 220.728 196.389 229.478 Q196.389 238.205 193.311 242.811 Q190.255 247.394 184.445 247.394 Q178.635 247.394 175.556 242.811 Q172.501 238.205 172.501 229.478 Q172.501 220.728 175.556 216.144 Q178.635 211.538 184.445 211.538 Z" fill="#000000" fill-rule="nonzero" fill-opacity="1" /><path clip-path="url(#clip820)" d="M214.607 215.242 Q210.996 215.242 209.167 218.807 Q207.362 222.348 207.362 229.478 Q207.362 236.584 209.167 240.149 Q210.996 243.691 214.607 243.691 Q218.241 243.691 220.047 240.149 Q221.875 236.584 221.875 229.478 Q221.875 222.348 220.047 218.807 Q218.241 215.242 214.607 215.242 M214.607 211.538 Q220.417 211.538 223.473 216.144 Q226.551 220.728 226.551 229.478 Q226.551 238.205 223.473 242.811 Q220.417 247.394 214.607 247.394 Q208.797 247.394 205.718 242.811 Q202.662 238.205 202.662 229.478 Q202.662 220.728 205.718 216.144 Q208.797 211.538 214.607 211.538 Z" fill="#000000" fill-rule="nonzero" fill-opacity="1" /><path clip-path="url(#clip820)" d="M16.4842 1229.97 L16.4842 1223.51 L45.3526 1223.51 Q52.9915 1223.51 56.3653 1220.74 Q59.7073 1217.97 59.7073 1211.76 Q59.7073 1205.59 56.3653 1202.82 Q52.9915 1200.05 45.3526 1200.05 L16.4842 1200.05 L16.4842 1193.59 L46.1484 1193.59 Q55.4423 1193.59 60.1847 1198.21 Q64.9272 1202.79 64.9272 1211.76 Q64.9272 1220.77 60.1847 1225.39 Q55.4423 1229.97 46.1484 1229.97 L16.4842 1229.97 Z" fill="#000000" fill-rule="nonzero" fill-opacity="1" /><path clip-path="url(#clip820)" d="M58.657 1176.12 L77.5631 1176.12 L77.5631 1182 L28.3562 1182 L28.3562 1176.12 L33.7671 1176.12 Q30.5842 1174.27 29.0564 1171.47 Q27.4968 1168.64 27.4968 1164.72 Q27.4968 1158.23 32.6531 1154.19 Q37.8093 1150.11 46.212 1150.11 Q54.6147 1150.11 59.771 1154.19 Q64.9272 1158.23 64.9272 1164.72 Q64.9272 1168.64 63.3994 1171.47 Q61.8398 1174.27 58.657 1176.12 M46.212 1156.19 Q39.7508 1156.19 36.0905 1158.87 Q32.3984 1161.51 32.3984 1166.15 Q32.3984 1170.8 36.0905 1173.47 Q39.7508 1176.12 46.212 1176.12 Q52.6732 1176.12 56.3653 1173.47 Q60.0256 1170.8 60.0256 1166.15 Q60.0256 1161.51 56.3653 1158.87 Q52.6732 1156.19 46.212 1156.19 Z" fill="#000000" fill-rule="nonzero" fill-opacity="1" /><path clip-path="url(#clip820)" d="M58.657 1134.74 L77.5631 1134.74 L77.5631 1140.63 L28.3562 1140.63 L28.3562 1134.74 L33.7671 1134.74 Q30.5842 1132.89 29.0564 1130.09 Q27.4968 1127.26 27.4968 1123.34 Q27.4968 1116.85 32.6531 1112.81 Q37.8093 1108.74 46.212 1108.74 Q54.6147 1108.74 59.771 1112.81 Q64.9272 1116.85 64.9272 1123.34 Q64.9272 1127.26 63.3994 1130.09 Q61.8398 1132.89 58.657 1134.74 M46.212 1114.81 Q39.7508 1114.81 36.0905 1117.49 Q32.3984 1120.13 32.3984 1124.78 Q32.3984 1129.42 36.0905 1132.1 Q39.7508 1134.74 46.212 1134.74 Q52.6732 1134.74 56.3653 1132.1 Q60.0256 1129.42 60.0256 1124.78 Q60.0256 1120.13 56.3653 1117.49 Q52.6732 1114.81 46.212 1114.81 Z" fill="#000000" fill-rule="nonzero" fill-opacity="1" /><path clip-path="url(#clip820)" d="M44.7161 1068.54 L47.5806 1068.54 L47.5806 1095.46 Q53.6281 1095.08 56.8109 1091.83 Q59.9619 1088.56 59.9619 1082.73 Q59.9619 1079.36 59.1344 1076.21 Q58.3069 1073.02 56.6518 1069.9 L62.1899 1069.9 Q63.5267 1073.06 64.227 1076.37 Q64.9272 1079.68 64.9272 1083.08 Q64.9272 1091.61 59.9619 1096.61 Q54.9967 1101.57 46.5303 1101.57 Q37.7774 1101.57 32.6531 1096.86 Q27.4968 1092.12 27.4968 1084.1 Q27.4968 1076.91 32.1438 1072.74 Q36.7589 1068.54 44.7161 1068.54 M42.9973 1074.39 Q38.1912 1074.46 35.3266 1077.1 Q32.4621 1079.71 32.4621 1084.04 Q32.4621 1088.94 35.2312 1091.9 Q38.0002 1094.83 43.0292 1095.27 L42.9973 1074.39 Z" fill="#000000" fill-rule="nonzero" fill-opacity="1" /><path clip-path="url(#clip820)" d="M33.8307 1038.27 Q33.2578 1039.25 33.0032 1040.43 Q32.7167 1041.58 32.7167 1042.98 Q32.7167 1047.94 35.9632 1050.62 Q39.1779 1053.26 45.2253 1053.26 L64.0042 1053.26 L64.0042 1059.15 L28.3562 1059.15 L28.3562 1053.26 L33.8944 1053.26 Q30.6479 1051.41 29.0883 1048.45 Q27.4968 1045.49 27.4968 1041.26 Q27.4968 1040.65 27.5923 1039.92 Q27.656 1039.19 27.8151 1038.3 L33.8307 1038.27 Z" fill="#000000" fill-rule="nonzero" fill-opacity="1" /><path clip-path="url(#clip820)" d="M43.5384 1039.25 L43.5384 1022.1 L48.7583 1022.1 L48.7583 1039.25 L43.5384 1039.25 Z" fill="#000000" fill-rule="nonzero" fill-opacity="1" /><path clip-path="url(#clip820)" d="M16.4842 1012.52 L16.4842 1006.09 L58.5933 1006.09 L58.5933 982.949 L64.0042 982.949 L64.0042 1012.52 L16.4842 1012.52 Z" fill="#000000" fill-rule="nonzero" fill-opacity="1" /><path clip-path="url(#clip820)" d="M44.7161 947.11 L47.5806 947.11 L47.5806 974.037 Q53.6281 973.655 56.8109 970.408 Q59.9619 967.13 59.9619 961.305 Q59.9619 957.931 59.1344 954.78 Q58.3069 951.598 56.6518 948.478 L62.1899 948.478 Q63.5267 951.629 64.227 954.94 Q64.9272 958.25 64.9272 961.655 Q64.9272 970.185 59.9619 975.183 Q54.9967 980.148 46.5303 980.148 Q37.7774 980.148 32.6531 975.437 Q27.4968 970.695 27.4968 962.674 Q27.4968 955.481 32.1438 951.311 Q36.7589 947.11 44.7161 947.11 M42.9973 952.966 Q38.1912 953.03 35.3266 955.672 Q32.4621 958.282 32.4621 962.61 Q32.4621 967.512 35.2312 970.472 Q38.0002 973.4 43.0292 973.846 L42.9973 952.966 Z" fill="#000000" fill-rule="nonzero" fill-opacity="1" /><path clip-path="url(#clip820)" d="M28.3562 941.699 L28.3562 935.492 L58.275 924.352 L28.3562 913.212 L28.3562 907.006 L64.0042 920.374 L64.0042 928.331 L28.3562 941.699 Z" fill="#000000" fill-rule="nonzero" fill-opacity="1" /><path clip-path="url(#clip820)" d="M44.7161 868.43 L47.5806 868.43 L47.5806 895.357 Q53.6281 894.975 56.8109 891.728 Q59.9619 888.45 59.9619 882.625 Q59.9619 879.251 59.1344 876.1 Q58.3069 872.917 56.6518 869.798 L62.1899 869.798 Q63.5267 872.949 64.227 876.259 Q64.9272 879.57 64.9272 882.975 Q64.9272 891.505 59.9619 896.502 Q54.9967 901.468 46.5303 901.468 Q37.7774 901.468 32.6531 896.757 Q27.4968 892.015 27.4968 883.994 Q27.4968 876.801 32.1438 872.631 Q36.7589 868.43 44.7161 868.43 M42.9973 874.286 Q38.1912 874.35 35.3266 876.992 Q32.4621 879.601 32.4621 883.93 Q32.4621 888.832 35.2312 891.792 Q38.0002 894.72 43.0292 895.166 L42.9973 874.286 Z" fill="#000000" fill-rule="nonzero" fill-opacity="1" /><path clip-path="url(#clip820)" d="M14.479 858.817 L14.479 852.961 L64.0042 852.961 L64.0042 858.817 L14.479 858.817 Z" fill="#000000" fill-rule="nonzero" fill-opacity="1" /><path clip-path="url(#clip820)" d="M16.4842 819.732 L16.4842 813.303 L58.5933 813.303 L58.5933 790.163 L64.0042 790.163 L64.0042 819.732 L16.4842 819.732 Z" fill="#000000" fill-rule="nonzero" fill-opacity="1" /><path clip-path="url(#clip820)" d="M32.4621 771.003 Q32.4621 775.713 36.1542 778.45 Q39.8145 781.188 46.212 781.188 Q52.6095 781.188 56.3017 778.482 Q59.9619 775.745 59.9619 771.003 Q59.9619 766.324 56.2698 763.586 Q52.5777 760.849 46.212 760.849 Q39.8781 760.849 36.186 763.586 Q32.4621 766.324 32.4621 771.003 M27.4968 771.003 Q27.4968 763.364 32.4621 759.003 Q37.4273 754.643 46.212 754.643 Q54.9649 754.643 59.9619 759.003 Q64.9272 763.364 64.9272 771.003 Q64.9272 778.673 59.9619 783.034 Q54.9649 787.362 46.212 787.362 Q37.4273 787.362 32.4621 783.034 Q27.4968 778.673 27.4968 771.003 Z" fill="#000000" fill-rule="nonzero" fill-opacity="1" /><path clip-path="url(#clip820)" d="M46.0847 728.734 Q46.0847 735.832 47.7079 738.569 Q49.3312 741.306 53.2461 741.306 Q56.3653 741.306 58.2114 739.269 Q60.0256 737.201 60.0256 733.668 Q60.0256 728.798 56.5881 725.87 Q53.1188 722.91 47.3897 722.91 L46.0847 722.91 L46.0847 728.734 M43.6657 717.053 L64.0042 717.053 L64.0042 722.91 L58.5933 722.91 Q61.8398 724.915 63.3994 727.907 Q64.9272 730.899 64.9272 735.227 Q64.9272 740.702 61.8716 743.948 Q58.7843 747.163 53.6281 747.163 Q47.6125 747.163 44.5569 743.153 Q41.5014 739.11 41.5014 731.121 L41.5014 722.91 L40.9285 722.91 Q36.8862 722.91 34.6901 725.583 Q32.4621 728.225 32.4621 733.031 Q32.4621 736.087 33.1941 738.983 Q33.9262 741.879 35.3903 744.553 L29.9795 744.553 Q28.7381 741.338 28.1334 738.315 Q27.4968 735.291 27.4968 732.426 Q27.4968 724.692 31.5072 720.873 Q35.5176 717.053 43.6657 717.053 Z" fill="#000000" fill-rule="nonzero" fill-opacity="1" /><path clip-path="url(#clip820)" d="M33.7671 681.532 L14.479 681.532 L14.479 675.676 L64.0042 675.676 L64.0042 681.532 L58.657 681.532 Q61.8398 683.379 63.3994 686.211 Q64.9272 689.012 64.9272 692.959 Q64.9272 699.42 59.771 703.494 Q54.6147 707.536 46.212 707.536 Q37.8093 707.536 32.6531 703.494 Q27.4968 699.42 27.4968 692.959 Q27.4968 689.012 29.0564 686.211 Q30.5842 683.379 33.7671 681.532 M46.212 701.489 Q52.6732 701.489 56.3653 698.847 Q60.0256 696.174 60.0256 691.527 Q60.0256 686.88 56.3653 684.206 Q52.6732 681.532 46.212 681.532 Q39.7508 681.532 36.0905 684.206 Q32.3984 686.88 32.3984 691.527 Q32.3984 696.174 36.0905 698.847 Q39.7508 701.489 46.212 701.489 Z" fill="#000000" fill-rule="nonzero" fill-opacity="1" /><path clip-path="url(#clip820)" d="M18.0438 614.151 L24.314 614.151 Q22.5634 617.812 21.704 621.058 Q20.8447 624.305 20.8447 627.329 Q20.8447 632.58 22.8817 635.445 Q24.9187 638.278 28.6745 638.278 Q31.8255 638.278 33.4488 636.4 Q35.0402 634.49 36.0269 629.206 L36.8226 625.323 Q38.1912 618.13 41.6605 614.724 Q45.098 611.287 50.8908 611.287 Q57.7976 611.287 61.3624 615.934 Q64.9272 620.549 64.9272 629.493 Q64.9272 632.867 64.1633 636.686 Q63.3994 640.474 61.9035 644.548 L55.2831 644.548 Q57.4793 640.633 58.5933 636.877 Q59.7073 633.121 59.7073 629.493 Q59.7073 623.987 57.543 620.995 Q55.3786 618.003 51.3682 618.003 Q47.8671 618.003 45.8937 620.167 Q43.9204 622.3 42.9337 627.201 L42.1698 631.116 Q40.7375 638.309 37.682 641.524 Q34.6264 644.739 29.1837 644.739 Q22.8817 644.739 19.2532 640.315 Q15.6248 635.859 15.6248 628.061 Q15.6248 624.719 16.2295 621.249 Q16.8343 617.78 18.0438 614.151 Z" fill="#000000" fill-rule="nonzero" fill-opacity="1" /><path clip-path="url(#clip820)" d="M42.4881 571.883 L64.0042 571.883 L64.0042 577.74 L42.679 577.74 Q37.6183 577.74 35.1038 579.713 Q32.5894 581.686 32.5894 585.633 Q32.5894 590.376 35.6131 593.113 Q38.6368 595.85 43.8567 595.85 L64.0042 595.85 L64.0042 601.738 L14.479 601.738 L14.479 595.85 L33.8944 595.85 Q30.6797 593.749 29.0883 590.917 Q27.4968 588.052 27.4968 584.328 Q27.4968 578.185 31.3163 575.034 Q35.1038 571.883 42.4881 571.883 Z" fill="#000000" fill-rule="nonzero" fill-opacity="1" /><path clip-path="url(#clip820)" d="M44.7161 529.71 L47.5806 529.71 L47.5806 556.637 Q53.6281 556.255 56.8109 553.009 Q59.9619 549.731 59.9619 543.906 Q59.9619 540.532 59.1344 537.381 Q58.3069 534.198 56.6518 531.079 L62.1899 531.079 Q63.5267 534.23 64.227 537.54 Q64.9272 540.85 64.9272 544.256 Q64.9272 552.786 59.9619 557.783 Q54.9967 562.748 46.5303 562.748 Q37.7774 562.748 32.6531 558.038 Q27.4968 553.295 27.4968 545.275 Q27.4968 538.081 32.1438 533.912 Q36.7589 529.71 44.7161 529.71 M42.9973 535.567 Q38.1912 535.63 35.3266 538.272 Q32.4621 540.882 32.4621 545.211 Q32.4621 550.112 35.2312 553.073 Q38.0002 556.001 43.0292 556.446 L42.9973 535.567 Z" fill="#000000" fill-rule="nonzero" fill-opacity="1" /><path clip-path="url(#clip820)" d="M33.7671 496.641 L14.479 496.641 L14.479 490.784 L64.0042 490.784 L64.0042 496.641 L58.657 496.641 Q61.8398 498.487 63.3994 501.319 Q64.9272 504.12 64.9272 508.067 Q64.9272 514.528 59.771 518.602 Q54.6147 522.644 46.212 522.644 Q37.8093 522.644 32.6531 518.602 Q27.4968 514.528 27.4968 508.067 Q27.4968 504.12 29.0564 501.319 Q30.5842 498.487 33.7671 496.641 M46.212 516.597 Q52.6732 516.597 56.3653 513.955 Q60.0256 511.282 60.0256 506.635 Q60.0256 501.988 56.3653 499.314 Q52.6732 496.641 46.212 496.641 Q39.7508 496.641 36.0905 499.314 Q32.3984 501.988 32.3984 506.635 Q32.3984 511.282 36.0905 513.955 Q39.7508 516.597 46.212 516.597 Z" fill="#000000" fill-rule="nonzero" fill-opacity="1" /><path clip-path="url(#clip820)" d="M14.5426 443.932 Q21.8632 448.198 29.0246 450.266 Q36.186 452.335 43.5384 452.335 Q50.8908 452.335 58.1159 450.266 Q65.3091 448.166 72.5979 443.932 L72.5979 449.025 Q65.1182 453.799 57.8931 456.186 Q50.668 458.542 43.5384 458.542 Q36.4406 458.542 29.2474 456.186 Q22.0542 453.831 14.5426 449.025 L14.5426 443.932 Z" fill="#000000" fill-rule="nonzero" fill-opacity="1" /><path clip-path="url(#clip820)" d="M14.479 432.793 L14.479 426.904 L43.7294 426.904 L28.3562 409.43 L28.3562 401.951 L45.0344 420.857 L64.0042 401.155 L64.0042 408.794 L46.5939 426.904 L64.0042 426.904 L64.0042 432.793 L14.479 432.793 Z" fill="#000000" fill-rule="nonzero" fill-opacity="1" /><path clip-path="url(#clip820)" d="M16.4842 398.8 L16.4842 392.307 L56.6518 382.312 L16.4842 372.35 L16.4842 365.125 L56.6518 355.131 L16.4842 345.169 L16.4842 338.644 L64.0042 350.579 L64.0042 358.664 L22.7544 368.69 L64.0042 378.811 L64.0042 386.896 L16.4842 398.8 Z" fill="#000000" fill-rule="nonzero" fill-opacity="1" /><path clip-path="url(#clip820)" d="M14.5426 331.291 L14.5426 326.199 Q22.0542 321.424 29.2474 319.069 Q36.4406 316.682 43.5384 316.682 Q50.668 316.682 57.8931 319.069 Q65.1182 321.424 72.5979 326.199 L72.5979 331.291 Q65.3091 327.058 58.1159 324.989 Q50.8908 322.889 43.5384 322.889 Q36.186 322.889 29.0246 324.989 Q21.8632 327.058 14.5426 331.291 Z" fill="#000000" fill-rule="nonzero" fill-opacity="1" /><path clip-path="url(#clip820)" d="M716.262 12.096 L724.445 12.096 L724.445 65.6895 L753.895 65.6895 L753.895 72.576 L716.262 72.576 L716.262 12.096 Z" fill="#000000" fill-rule="nonzero" fill-opacity="1" /><path clip-path="url(#clip820)" d="M778.281 32.4315 Q772.286 32.4315 768.802 37.1306 Q765.319 41.7891 765.319 49.9314 Q765.319 58.0738 768.762 62.7728 Q772.246 67.4314 778.281 67.4314 Q784.236 67.4314 787.72 62.7323 Q791.204 58.0333 791.204 49.9314 Q791.204 41.8701 787.72 37.1711 Q784.236 32.4315 778.281 32.4315 M778.281 26.1121 Q788.004 26.1121 793.553 32.4315 Q799.103 38.7509 799.103 49.9314 Q799.103 61.0714 793.553 67.4314 Q788.004 73.7508 778.281 73.7508 Q768.519 73.7508 762.969 67.4314 Q757.46 61.0714 757.46 49.9314 Q757.46 38.7509 762.969 32.4315 Q768.519 26.1121 778.281 26.1121 Z" fill="#000000" fill-rule="nonzero" fill-opacity="1" /><path clip-path="url(#clip820)" d="M832.077 49.7694 Q823.044 49.7694 819.56 51.8354 Q816.076 53.9013 816.076 58.8839 Q816.076 62.8538 818.669 65.2034 Q821.302 67.5124 825.799 67.5124 Q831.996 67.5124 835.723 63.1374 Q839.491 58.7219 839.491 51.4303 L839.491 49.7694 L832.077 49.7694 M846.944 46.6907 L846.944 72.576 L839.491 72.576 L839.491 65.6895 Q836.938 69.8214 833.131 71.8063 Q829.323 73.7508 823.814 73.7508 Q816.846 73.7508 812.714 69.8619 Q808.623 65.9325 808.623 59.3701 Q808.623 51.7138 813.727 47.825 Q818.871 43.9361 829.039 43.9361 L839.491 43.9361 L839.491 43.2069 Q839.491 38.0623 836.088 35.2672 Q832.726 32.4315 826.609 32.4315 Q822.72 32.4315 819.033 33.3632 Q815.347 34.295 811.944 36.1584 L811.944 29.2718 Q816.036 27.692 819.884 26.9223 Q823.733 26.1121 827.378 26.1121 Q837.222 26.1121 842.083 31.2163 Q846.944 36.3204 846.944 46.6907 Z" fill="#000000" fill-rule="nonzero" fill-opacity="1" /><path clip-path="url(#clip820)" d="M892.152 34.0924 L892.152 9.54393 L899.606 9.54393 L899.606 72.576 L892.152 72.576 L892.152 65.7705 Q889.803 69.8214 886.197 71.8063 Q882.633 73.7508 877.61 73.7508 Q869.386 73.7508 864.201 67.1883 Q859.056 60.6258 859.056 49.9314 Q859.056 39.2371 864.201 32.6746 Q869.386 26.1121 877.61 26.1121 Q882.633 26.1121 886.197 28.0971 Q889.803 30.0415 892.152 34.0924 M866.753 49.9314 Q866.753 58.1548 870.115 62.8538 Q873.518 67.5124 879.432 67.5124 Q885.347 67.5124 888.75 62.8538 Q892.152 58.1548 892.152 49.9314 Q892.152 41.7081 888.75 37.0496 Q885.347 32.3505 879.432 32.3505 Q873.518 32.3505 870.115 37.0496 Q866.753 41.7081 866.753 49.9314 Z" fill="#000000" fill-rule="nonzero" fill-opacity="1" /><path clip-path="url(#clip820)" d="M977.91 14.0809 L977.91 22.0612 Q973.251 19.8332 969.119 18.7395 Q964.988 17.6457 961.139 17.6457 Q954.455 17.6457 950.809 20.2383 Q947.204 22.8309 947.204 27.611 Q947.204 31.6214 949.594 33.6873 Q952.025 35.7128 958.749 36.9686 L963.691 37.9813 Q972.846 39.7232 977.181 44.1387 Q981.556 48.5136 981.556 55.8863 Q981.556 64.6767 975.641 69.2137 Q969.768 73.7508 958.385 73.7508 Q954.091 73.7508 949.23 72.7785 Q944.409 71.8063 939.224 69.9024 L939.224 61.4765 Q944.206 64.2716 948.987 65.6895 Q953.767 67.1073 958.385 67.1073 Q965.393 67.1073 969.201 64.3527 Q973.008 61.598 973.008 56.4939 Q973.008 52.0379 970.254 49.5264 Q967.54 47.0148 961.301 45.759 L956.319 44.7868 Q947.164 42.9639 943.072 39.075 Q938.981 35.1862 938.981 28.2591 Q938.981 20.2383 944.612 15.6203 Q950.283 11.0023 960.208 11.0023 Q964.461 11.0023 968.876 11.7719 Q973.292 12.5416 977.91 14.0809 Z" fill="#000000" fill-rule="nonzero" fill-opacity="1" /><path clip-path="url(#clip820)" d="M1031.71 45.1919 L1031.71 72.576 L1024.25 72.576 L1024.25 45.4349 Q1024.25 38.994 1021.74 35.7938 Q1019.23 32.5936 1014.21 32.5936 Q1008.17 32.5936 1004.69 36.4419 Q1001.2 40.2903 1001.2 46.9338 L1001.2 72.576 L993.708 72.576 L993.708 9.54393 L1001.2 9.54393 L1001.2 34.2544 Q1003.88 30.163 1007.48 28.1376 Q1011.13 26.1121 1015.87 26.1121 Q1023.69 26.1121 1027.7 30.9732 Q1031.71 35.7938 1031.71 45.1919 Z" fill="#000000" fill-rule="nonzero" fill-opacity="1" /><path clip-path="url(#clip820)" d="M1085.38 48.0275 L1085.38 51.6733 L1051.11 51.6733 Q1051.6 59.3701 1055.73 63.421 Q1059.9 67.4314 1067.31 67.4314 Q1071.61 67.4314 1075.62 66.3781 Q1079.67 65.3249 1083.64 63.2184 L1083.64 70.267 Q1079.63 71.9684 1075.42 72.8596 Q1071.2 73.7508 1066.87 73.7508 Q1056.01 73.7508 1049.65 67.4314 Q1043.33 61.1119 1043.33 50.3365 Q1043.33 39.1965 1049.33 32.6746 Q1055.36 26.1121 1065.57 26.1121 Q1074.73 26.1121 1080.03 32.0264 Q1085.38 37.9003 1085.38 48.0275 M1077.93 45.84 Q1077.85 39.7232 1074.48 36.0774 Q1071.16 32.4315 1065.65 32.4315 Q1059.41 32.4315 1055.65 35.9558 Q1051.92 39.4801 1051.35 45.8805 L1077.93 45.84 Z" fill="#000000" fill-rule="nonzero" fill-opacity="1" /><path clip-path="url(#clip820)" d="M1127.47 34.0924 L1127.47 9.54393 L1134.92 9.54393 L1134.92 72.576 L1127.47 72.576 L1127.47 65.7705 Q1125.12 69.8214 1121.51 71.8063 Q1117.95 73.7508 1112.93 73.7508 Q1104.7 73.7508 1099.52 67.1883 Q1094.37 60.6258 1094.37 49.9314 Q1094.37 39.2371 1099.52 32.6746 Q1104.7 26.1121 1112.93 26.1121 Q1117.95 26.1121 1121.51 28.0971 Q1125.12 30.0415 1127.47 34.0924 M1102.07 49.9314 Q1102.07 58.1548 1105.43 62.8538 Q1108.84 67.5124 1114.75 67.5124 Q1120.66 67.5124 1124.07 62.8538 Q1127.47 58.1548 1127.47 49.9314 Q1127.47 41.7081 1124.07 37.0496 Q1120.66 32.3505 1114.75 32.3505 Q1108.84 32.3505 1105.43 37.0496 Q1102.07 41.7081 1102.07 49.9314 Z" fill="#000000" fill-rule="nonzero" fill-opacity="1" /><path clip-path="url(#clip820)" d="M1222.26 16.7545 L1222.26 25.383 Q1218.13 21.5346 1213.43 19.6307 Q1208.77 17.7268 1203.5 17.7268 Q1193.13 17.7268 1187.63 24.0867 Q1182.12 30.4061 1182.12 42.3968 Q1182.12 54.3469 1187.63 60.7069 Q1193.13 67.0263 1203.5 67.0263 Q1208.77 67.0263 1213.43 65.1223 Q1218.13 63.2184 1222.26 59.3701 L1222.26 67.9175 Q1217.97 70.8341 1213.15 72.2924 Q1208.37 73.7508 1203.02 73.7508 Q1189.29 73.7508 1181.39 65.3654 Q1173.49 56.9395 1173.49 42.3968 Q1173.49 27.8135 1181.39 19.4281 Q1189.29 11.0023 1203.02 11.0023 Q1208.45 11.0023 1213.23 12.4606 Q1218.05 13.8784 1222.26 16.7545 Z" fill="#000000" fill-rule="nonzero" fill-opacity="1" /><path clip-path="url(#clip820)" d="M1252.16 32.4315 Q1246.16 32.4315 1242.68 37.1306 Q1239.19 41.7891 1239.19 49.9314 Q1239.19 58.0738 1242.64 62.7728 Q1246.12 67.4314 1252.16 67.4314 Q1258.11 67.4314 1261.59 62.7323 Q1265.08 58.0333 1265.08 49.9314 Q1265.08 41.8701 1261.59 37.1711 Q1258.11 32.4315 1252.16 32.4315 M1252.16 26.1121 Q1261.88 26.1121 1267.43 32.4315 Q1272.98 38.7509 1272.98 49.9314 Q1272.98 61.0714 1267.43 67.4314 Q1261.88 73.7508 1252.16 73.7508 Q1242.39 73.7508 1236.84 67.4314 Q1231.33 61.0714 1231.33 49.9314 Q1231.33 38.7509 1236.84 32.4315 Q1242.39 26.1121 1252.16 26.1121 Z" fill="#000000" fill-rule="nonzero" fill-opacity="1" /><path clip-path="url(#clip820)" d="M1320.66 35.9153 Q1323.45 30.8922 1327.34 28.5022 Q1331.23 26.1121 1336.5 26.1121 Q1343.59 26.1121 1347.43 31.0947 Q1351.28 36.0368 1351.28 45.1919 L1351.28 72.576 L1343.79 72.576 L1343.79 45.4349 Q1343.79 38.913 1341.48 35.7533 Q1339.17 32.5936 1334.43 32.5936 Q1328.64 32.5936 1325.27 36.4419 Q1321.91 40.2903 1321.91 46.9338 L1321.91 72.576 L1314.42 72.576 L1314.42 45.4349 Q1314.42 38.8725 1312.11 35.7533 Q1309.8 32.5936 1304.98 32.5936 Q1299.27 32.5936 1295.91 36.4824 Q1292.54 40.3308 1292.54 46.9338 L1292.54 72.576 L1285.05 72.576 L1285.05 27.2059 L1292.54 27.2059 L1292.54 34.2544 Q1295.1 30.082 1298.66 28.0971 Q1302.23 26.1121 1307.13 26.1121 Q1312.07 26.1121 1315.51 28.6237 Q1319 31.1352 1320.66 35.9153 Z" fill="#000000" fill-rule="nonzero" fill-opacity="1" /><path clip-path="url(#clip820)" d="M1373.36 65.7705 L1373.36 89.8329 L1365.87 89.8329 L1365.87 27.2059 L1373.36 27.2059 L1373.36 34.0924 Q1375.71 30.0415 1379.27 28.0971 Q1382.88 26.1121 1387.86 26.1121 Q1396.13 26.1121 1401.27 32.6746 Q1406.46 39.2371 1406.46 49.9314 Q1406.46 60.6258 1401.27 67.1883 Q1396.13 73.7508 1387.86 73.7508 Q1382.88 73.7508 1379.27 71.8063 Q1375.71 69.8214 1373.36 65.7705 M1398.72 49.9314 Q1398.72 41.7081 1395.32 37.0496 Q1391.95 32.3505 1386.04 32.3505 Q1380.12 32.3505 1376.72 37.0496 Q1373.36 41.7081 1373.36 49.9314 Q1373.36 58.1548 1376.72 62.8538 Q1380.12 67.5124 1386.04 67.5124 Q1391.95 67.5124 1395.32 62.8538 Q1398.72 58.1548 1398.72 49.9314 Z" fill="#000000" fill-rule="nonzero" fill-opacity="1" /><path clip-path="url(#clip820)" d="M1439.43 49.7694 Q1430.4 49.7694 1426.91 51.8354 Q1423.43 53.9013 1423.43 58.8839 Q1423.43 62.8538 1426.02 65.2034 Q1428.65 67.5124 1433.15 67.5124 Q1439.35 67.5124 1443.08 63.1374 Q1446.84 58.7219 1446.84 51.4303 L1446.84 49.7694 L1439.43 49.7694 M1454.3 46.6907 L1454.3 72.576 L1446.84 72.576 L1446.84 65.6895 Q1444.29 69.8214 1440.48 71.8063 Q1436.67 73.7508 1431.17 73.7508 Q1424.2 73.7508 1420.07 69.8619 Q1415.97 65.9325 1415.97 59.3701 Q1415.97 51.7138 1421.08 47.825 Q1426.22 43.9361 1436.39 43.9361 L1446.84 43.9361 L1446.84 43.2069 Q1446.84 38.0623 1443.44 35.2672 Q1440.08 32.4315 1433.96 32.4315 Q1430.07 32.4315 1426.39 33.3632 Q1422.7 34.295 1419.3 36.1584 L1419.3 29.2718 Q1423.39 27.692 1427.24 26.9223 Q1431.08 26.1121 1434.73 26.1121 Q1444.57 26.1121 1449.44 31.2163 Q1454.3 36.3204 1454.3 46.6907 Z" fill="#000000" fill-rule="nonzero" fill-opacity="1" /><path clip-path="url(#clip820)" d="M1495.94 34.1734 Q1494.68 33.4443 1493.18 33.1202 Q1491.73 32.7556 1489.94 32.7556 Q1483.62 32.7556 1480.22 36.8875 Q1476.86 40.9789 1476.86 48.6757 L1476.86 72.576 L1469.37 72.576 L1469.37 27.2059 L1476.86 27.2059 L1476.86 34.2544 Q1479.21 30.1225 1482.98 28.1376 Q1486.74 26.1121 1492.13 26.1121 Q1492.9 26.1121 1493.83 26.2337 Q1494.76 26.3147 1495.9 26.5172 L1495.94 34.1734 Z" fill="#000000" fill-rule="nonzero" fill-opacity="1" /><path clip-path="url(#clip820)" d="M1503.76 27.2059 L1511.21 27.2059 L1511.21 72.576 L1503.76 72.576 L1503.76 27.2059 M1503.76 9.54393 L1511.21 9.54393 L1511.21 18.9825 L1503.76 18.9825 L1503.76 9.54393 Z" fill="#000000" fill-rule="nonzero" fill-opacity="1" /><path clip-path="url(#clip820)" d="M1555.73 28.5427 L1555.73 35.5912 Q1552.57 33.9709 1549.17 33.1607 Q1545.77 32.3505 1542.12 32.3505 Q1536.57 32.3505 1533.78 34.0519 Q1531.02 35.7533 1531.02 39.156 Q1531.02 41.7486 1533.01 43.2475 Q1534.99 44.7058 1540.99 46.0426 L1543.54 46.6097 Q1551.48 48.3111 1554.8 51.4303 Q1558.16 54.509 1558.16 60.0587 Q1558.16 66.3781 1553.14 70.0644 Q1548.16 73.7508 1539.41 73.7508 Q1535.76 73.7508 1531.79 73.0216 Q1527.86 72.3329 1523.49 70.9151 L1523.49 63.2184 Q1527.62 65.3654 1531.63 66.4591 Q1535.64 67.5124 1539.57 67.5124 Q1544.83 67.5124 1547.67 65.73 Q1550.51 63.9071 1550.51 60.6258 Q1550.51 57.5877 1548.44 55.9673 Q1546.41 54.3469 1539.49 52.8481 L1536.89 52.2405 Q1529.97 50.7821 1526.89 47.7845 Q1523.81 44.7463 1523.81 39.4801 Q1523.81 33.0797 1528.35 29.5959 Q1532.88 26.1121 1541.23 26.1121 Q1545.36 26.1121 1549.01 26.7198 Q1552.65 27.3274 1555.73 28.5427 Z" fill="#000000" fill-rule="nonzero" fill-opacity="1" /><path clip-path="url(#clip820)" d="M1587.61 32.4315 Q1581.62 32.4315 1578.13 37.1306 Q1574.65 41.7891 1574.65 49.9314 Q1574.65 58.0738 1578.09 62.7728 Q1581.58 67.4314 1587.61 67.4314 Q1593.57 67.4314 1597.05 62.7323 Q1600.53 58.0333 1600.53 49.9314 Q1600.53 41.8701 1597.05 37.1711 Q1593.57 32.4315 1587.61 32.4315 M1587.61 26.1121 Q1597.33 26.1121 1602.88 32.4315 Q1608.43 38.7509 1608.43 49.9314 Q1608.43 61.0714 1602.88 67.4314 Q1597.33 73.7508 1587.61 73.7508 Q1577.85 73.7508 1572.3 67.4314 Q1566.79 61.0714 1566.79 49.9314 Q1566.79 38.7509 1572.3 32.4315 Q1577.85 26.1121 1587.61 26.1121 Z" fill="#000000" fill-rule="nonzero" fill-opacity="1" /><path clip-path="url(#clip820)" d="M1658.5 45.1919 L1658.5 72.576 L1651.05 72.576 L1651.05 45.4349 Q1651.05 38.994 1648.54 35.7938 Q1646.03 32.5936 1641 32.5936 Q1634.97 32.5936 1631.48 36.4419 Q1628 40.2903 1628 46.9338 L1628 72.576 L1620.5 72.576 L1620.5 27.2059 L1628 27.2059 L1628 34.2544 Q1630.67 30.163 1634.28 28.1376 Q1637.92 26.1121 1642.66 26.1121 Q1650.48 26.1121 1654.49 30.9732 Q1658.5 35.7938 1658.5 45.1919 Z" fill="#000000" fill-rule="nonzero" fill-opacity="1" /><path clip-path="url(#clip820)" d="M1717.65 9.62495 Q1712.22 18.942 1709.58 28.0566 Q1706.95 37.1711 1706.95 46.5287 Q1706.95 55.8863 1709.58 65.0818 Q1712.26 74.2369 1717.65 83.5134 L1711.16 83.5134 Q1705.09 73.9938 1702.05 64.7983 Q1699.05 55.6027 1699.05 46.5287 Q1699.05 37.4952 1702.05 28.3401 Q1705.05 19.1851 1711.16 9.62495 L1717.65 9.62495 Z" fill="#000000" fill-rule="nonzero" fill-opacity="1" /><path clip-path="url(#clip820)" d="M1732.11 27.2059 L1739.56 27.2059 L1739.56 73.3862 Q1739.56 82.0551 1736.24 85.944 Q1732.96 89.8329 1725.63 89.8329 L1722.79 89.8329 L1722.79 83.5134 L1724.78 83.5134 Q1729.03 83.5134 1730.57 81.5285 Q1732.11 79.5841 1732.11 73.3862 L1732.11 27.2059 M1732.11 9.54393 L1739.56 9.54393 L1739.56 18.9825 L1732.11 18.9825 L1732.11 9.54393 Z" fill="#000000" fill-rule="nonzero" fill-opacity="1" /><path clip-path="url(#clip820)" d="M1775.78 49.7694 Q1766.74 49.7694 1763.26 51.8354 Q1759.77 53.9013 1759.77 58.8839 Q1759.77 62.8538 1762.37 65.2034 Q1765 67.5124 1769.5 67.5124 Q1775.7 67.5124 1779.42 63.1374 Q1783.19 58.7219 1783.19 51.4303 L1783.19 49.7694 L1775.78 49.7694 M1790.64 46.6907 L1790.64 72.576 L1783.19 72.576 L1783.19 65.6895 Q1780.64 69.8214 1776.83 71.8063 Q1773.02 73.7508 1767.51 73.7508 Q1760.54 73.7508 1756.41 69.8619 Q1752.32 65.9325 1752.32 59.3701 Q1752.32 51.7138 1757.43 47.825 Q1762.57 43.9361 1772.74 43.9361 L1783.19 43.9361 L1783.19 43.2069 Q1783.19 38.0623 1779.79 35.2672 Q1776.42 32.4315 1770.31 32.4315 Q1766.42 32.4315 1762.73 33.3632 Q1759.05 34.295 1755.64 36.1584 L1755.64 29.2718 Q1759.73 27.692 1763.58 26.9223 Q1767.43 26.1121 1771.08 26.1121 Q1780.92 26.1121 1785.78 31.2163 Q1790.64 36.3204 1790.64 46.6907 Z" fill="#000000" fill-rule="nonzero" fill-opacity="1" /><path clip-path="url(#clip820)" d="M1806 27.2059 L1813.45 27.2059 L1813.45 72.576 L1806 72.576 L1806 27.2059 M1806 9.54393 L1813.45 9.54393 L1813.45 18.9825 L1806 18.9825 L1806 9.54393 Z" fill="#000000" fill-rule="nonzero" fill-opacity="1" /><path clip-path="url(#clip820)" d="M1866.76 45.1919 L1866.76 72.576 L1859.31 72.576 L1859.31 45.4349 Q1859.31 38.994 1856.79 35.7938 Q1854.28 32.5936 1849.26 32.5936 Q1843.22 32.5936 1839.74 36.4419 Q1836.26 40.2903 1836.26 46.9338 L1836.26 72.576 L1828.76 72.576 L1828.76 27.2059 L1836.26 27.2059 L1836.26 34.2544 Q1838.93 30.163 1842.53 28.1376 Q1846.18 26.1121 1850.92 26.1121 Q1858.74 26.1121 1862.75 30.9732 Q1866.76 35.7938 1866.76 45.1919 Z" fill="#000000" fill-rule="nonzero" fill-opacity="1" /><path clip-path="url(#clip820)" d="M1880.45 9.62495 L1886.93 9.62495 Q1893.01 19.1851 1896.01 28.3401 Q1899.05 37.4952 1899.05 46.5287 Q1899.05 55.6027 1896.01 64.7983 Q1893.01 73.9938 1886.93 83.5134 L1880.45 83.5134 Q1885.84 74.2369 1888.47 65.0818 Q1891.15 55.8863 1891.15 46.5287 Q1891.15 37.1711 1888.47 28.0566 Q1885.84 18.942 1880.45 9.62495 Z" fill="#000000" fill-rule="nonzero" fill-opacity="1" /><path clip-path="url(#clip822)" d="M2293.6 1402.4 L2282.29 1397.71 L2277.6 1386.4 L2282.29 1375.08 L2293.6 1370.4 L2304.91 1375.08 L2309.6 1386.4 L2304.91 1397.71 Z" fill="#009af9" fill-rule="evenodd" fill-opacity="1" stroke="#000000" stroke-opacity="1" stroke-width="3.2"/>
<path clip-path="url(#clip822)" d="M2293.6 1402.4 L2282.29 1397.71 L2277.6 1386.4 L2282.29 1375.08 L2293.6 1370.4 L2304.91 1375.08 L2309.6 1386.4 L2304.91 1397.71 Z" fill="#009af9" fill-rule="evenodd" fill-opacity="1" stroke="#000000" stroke-opacity="1" stroke-width="3.2"/>
<path clip-path="url(#clip822)" d="M2293.6 1402.4 L2282.29 1397.71 L2277.6 1386.4 L2282.29 1375.08 L2293.6 1370.4 L2304.91 1375.08 L2309.6 1386.4 L2304.91 1397.71 Z" fill="#009af9" fill-rule="evenodd" fill-opacity="1" stroke="#000000" stroke-opacity="1" stroke-width="3.2"/>
<path clip-path="url(#clip822)" d="M2293.6 1402.4 L2282.29 1397.71 L2277.6 1386.4 L2282.29 1375.08 L2293.6 1370.4 L2304.91 1375.08 L2309.6 1386.4 L2304.91 1397.71 Z" fill="#009af9" fill-rule="evenodd" fill-opacity="1" stroke="#000000" stroke-opacity="1" stroke-width="3.2"/>
<path clip-path="url(#clip822)" d="M2293.6 1402.4 L2282.29 1397.71 L2277.6 1386.4 L2282.29 1375.08 L2293.6 1370.4 L2304.91 1375.08 L2309.6 1386.4 L2304.91 1397.71 Z" fill="#009af9" fill-rule="evenodd" fill-opacity="1" stroke="#000000" stroke-opacity="1" stroke-width="3.2"/>
<polyline clip-path="url(#clip822)" style="stroke:#ff0000; stroke-linecap:round; stroke-linejoin:round; stroke-width:4; stroke-opacity:1; fill:none" stroke-dasharray="16, 10" points="321.708,1386.4 341.626,1374.01 361.544,1361.63 381.462,1349.24 401.38,1336.85 421.298,1324.47 441.217,1312.08 461.135,1299.7 481.053,1287.31 500.971,1274.93 520.889,1262.54 540.807,1250.16 560.725,1237.77 580.643,1225.39 600.561,1213 620.479,1200.62 640.397,1188.23 660.316,1175.85 680.234,1163.46 700.152,1151.08 720.07,1138.69 739.988,1126.31 759.906,1113.92 779.824,1101.54 799.742,1089.15 819.66,1076.76 839.578,1064.38 859.496,1051.99 879.415,1039.61 899.333,1027.22 919.251,1014.84 939.169,1002.45 959.087,990.068 979.005,977.683 998.923,965.297 1018.84,952.912 1038.76,940.527 1058.68,928.142 1078.6,915.756 1098.51,903.371 1118.43,890.986 1138.35,878.601 1158.27,866.215 1178.19,853.83 1198.1,841.445 1218.02,829.06 1237.94,816.674 1257.86,804.289 1277.78,791.904 1297.69,779.519 1317.61,767.133 1337.53,754.748 1357.45,742.363 1377.37,729.978 1397.28,717.592 1417.2,705.207 1437.12,692.822 1457.04,680.437 1476.96,668.051 1496.88,655.666 1516.79,643.281 1536.71,630.896 1556.63,618.51 1576.55,606.125 1596.47,593.74 1616.38,581.355 1636.3,568.969 1656.22,556.584 1676.14,544.199 1696.06,531.814 1715.97,519.428 1735.89,507.043 1755.81,494.658 1775.73,482.273 1795.65,469.887 1815.56,457.502 1835.48,445.117 1855.4,432.732 1875.32,420.346 1895.24,407.961 1915.16,395.576 1935.07,383.191 1954.99,370.805 1974.91,358.42 1994.83,346.035 2014.75,333.65 2034.66,321.265 2054.58,308.879 2074.5,296.494 2094.42,284.109 2114.34,271.724 2134.25,259.338 2154.17,246.953 2174.09,234.568 2194.01,222.183 2213.93,209.797 2233.84,197.412 2253.76,185.027 2273.68,172.642 2293.6,160.256 "/>
<path clip-path="url(#clip820)" d="M332.225 322.316 L733.652 322.316 L733.652 166.796 L332.225 166.796  Z" fill="#ffffff" fill-rule="evenodd" fill-opacity="1"/>
<polyline clip-path="url(#clip820)" style="stroke:#000000; stroke-linecap:round; stroke-linejoin:round; stroke-width:4; stroke-opacity:1; fill:none" points="332.225,322.316 733.652,322.316 733.652,166.796 332.225,166.796 332.225,322.316 "/>
<path clip-path="url(#clip820)" d="M425.123 241.391 L409.035 234.724 L402.367 218.636 L409.035 202.548 L425.123 195.88 L441.211 202.548 L447.878 218.636 L441.211 234.724 Z" fill="#009af9" fill-rule="evenodd" fill-opacity="1" stroke="#000000" stroke-opacity="1" stroke-width="4.55111"/>
<path clip-path="url(#clip820)" d="M518.021 201.356 L522.697 201.356 L522.697 235.916 L518.021 235.916 L518.021 201.356 Z" fill="#000000" fill-rule="nonzero" fill-opacity="1" /><path clip-path="url(#clip820)" d="M536.03 202.629 L536.03 209.99 L544.803 209.99 L544.803 213.3 L536.03 213.3 L536.03 227.374 Q536.03 230.545 536.886 231.448 Q537.766 232.351 540.428 232.351 L544.803 232.351 L544.803 235.916 L540.428 235.916 Q535.497 235.916 533.622 234.087 Q531.747 232.235 531.747 227.374 L531.747 213.3 L528.622 213.3 L528.622 209.99 L531.747 209.99 L531.747 202.629 L536.03 202.629 Z" fill="#000000" fill-rule="nonzero" fill-opacity="1" /><path clip-path="url(#clip820)" d="M572.581 221.888 L572.581 223.971 L552.997 223.971 Q553.275 228.369 555.636 230.684 Q558.02 232.976 562.257 232.976 Q564.71 232.976 567.002 232.374 Q569.317 231.772 571.585 230.569 L571.585 234.596 Q569.294 235.568 566.886 236.078 Q564.479 236.587 562.002 236.587 Q555.798 236.587 552.164 232.976 Q548.553 229.365 548.553 223.207 Q548.553 216.842 551.979 213.115 Q555.428 209.365 561.261 209.365 Q566.493 209.365 569.525 212.745 Q572.581 216.101 572.581 221.888 M568.321 220.638 Q568.275 217.143 566.354 215.059 Q564.456 212.976 561.307 212.976 Q557.743 212.976 555.59 214.99 Q553.46 217.004 553.136 220.661 L568.321 220.638 Z" fill="#000000" fill-rule="nonzero" fill-opacity="1" /><path clip-path="url(#clip820)" d="M594.594 213.971 Q593.877 213.555 593.02 213.37 Q592.187 213.161 591.168 213.161 Q587.557 213.161 585.613 215.522 Q583.692 217.86 583.692 222.258 L583.692 235.916 L579.409 235.916 L579.409 209.99 L583.692 209.99 L583.692 214.018 Q585.034 211.657 587.187 210.522 Q589.34 209.365 592.418 209.365 Q592.858 209.365 593.391 209.434 Q593.923 209.481 594.571 209.596 L594.594 213.971 Z" fill="#000000" fill-rule="nonzero" fill-opacity="1" /><path clip-path="url(#clip820)" d="M610.844 222.883 Q605.682 222.883 603.692 224.064 Q601.701 225.244 601.701 228.092 Q601.701 230.36 603.182 231.703 Q604.687 233.022 607.256 233.022 Q610.798 233.022 612.928 230.522 Q615.08 227.999 615.08 223.832 L615.08 222.883 L610.844 222.883 M619.34 221.124 L619.34 235.916 L615.08 235.916 L615.08 231.981 Q613.622 234.342 611.446 235.476 Q609.27 236.587 606.122 236.587 Q602.141 236.587 599.78 234.365 Q597.442 232.119 597.442 228.369 Q597.442 223.994 600.358 221.772 Q603.298 219.55 609.108 219.55 L615.08 219.55 L615.08 219.133 Q615.08 216.194 613.136 214.596 Q611.215 212.976 607.719 212.976 Q605.497 212.976 603.391 213.508 Q601.284 214.041 599.34 215.106 L599.34 211.17 Q601.678 210.268 603.877 209.828 Q606.076 209.365 608.159 209.365 Q613.784 209.365 616.562 212.282 Q619.34 215.198 619.34 221.124 Z" fill="#000000" fill-rule="nonzero" fill-opacity="1" /><path clip-path="url(#clip820)" d="M632.326 202.629 L632.326 209.99 L641.099 209.99 L641.099 213.3 L632.326 213.3 L632.326 227.374 Q632.326 230.545 633.182 231.448 Q634.062 232.351 636.724 232.351 L641.099 232.351 L641.099 235.916 L636.724 235.916 Q631.793 235.916 629.918 234.087 Q628.043 232.235 628.043 227.374 L628.043 213.3 L624.918 213.3 L624.918 209.99 L628.043 209.99 L628.043 202.629 L632.326 202.629 Z" fill="#000000" fill-rule="nonzero" fill-opacity="1" /><path clip-path="url(#clip820)" d="M646.701 209.99 L650.96 209.99 L650.96 235.916 L646.701 235.916 L646.701 209.99 M646.701 199.897 L650.96 199.897 L650.96 205.291 L646.701 205.291 L646.701 199.897 Z" fill="#000000" fill-rule="nonzero" fill-opacity="1" /><path clip-path="url(#clip820)" d="M669.918 212.976 Q666.492 212.976 664.501 215.661 Q662.511 218.323 662.511 222.976 Q662.511 227.629 664.478 230.314 Q666.469 232.976 669.918 232.976 Q673.321 232.976 675.312 230.291 Q677.302 227.606 677.302 222.976 Q677.302 218.37 675.312 215.684 Q673.321 212.976 669.918 212.976 M669.918 209.365 Q675.474 209.365 678.645 212.976 Q681.816 216.587 681.816 222.976 Q681.816 229.342 678.645 232.976 Q675.474 236.587 669.918 236.587 Q664.339 236.587 661.168 232.976 Q658.02 229.342 658.02 222.976 Q658.02 216.587 661.168 212.976 Q664.339 209.365 669.918 209.365 Z" fill="#000000" fill-rule="nonzero" fill-opacity="1" /><path clip-path="url(#clip820)" d="M710.427 220.268 L710.427 235.916 L706.168 235.916 L706.168 220.407 Q706.168 216.726 704.733 214.897 Q703.297 213.069 700.427 213.069 Q696.978 213.069 694.987 215.268 Q692.997 217.467 692.997 221.263 L692.997 235.916 L688.714 235.916 L688.714 209.99 L692.997 209.99 L692.997 214.018 Q694.524 211.68 696.585 210.522 Q698.668 209.365 701.376 209.365 Q705.844 209.365 708.135 212.143 Q710.427 214.897 710.427 220.268 Z" fill="#000000" fill-rule="nonzero" fill-opacity="1" /><polyline clip-path="url(#clip820)" style="stroke:#ff0000; stroke-linecap:round; stroke-linejoin:round; stroke-width:4; stroke-opacity:1; fill:none" stroke-dasharray="16, 10" points="355.449,270.476 494.796,270.476 "/>
<path clip-path="url(#clip820)" d="M531.863 290.163 Q530.058 294.793 528.345 296.205 Q526.632 297.617 523.761 297.617 L520.359 297.617 L520.359 294.052 L522.859 294.052 Q524.618 294.052 525.59 293.219 Q526.562 292.385 527.743 289.283 L528.507 287.339 L518.021 261.83 L522.535 261.83 L530.636 282.108 L538.738 261.83 L543.252 261.83 L531.863 290.163 Z" fill="#000000" fill-rule="nonzero" fill-opacity="1" /><path clip-path="url(#clip820)" d="M549.687 266.228 L579.363 266.228 L579.363 270.117 L549.687 270.117 L549.687 266.228 M549.687 275.672 L579.363 275.672 L579.363 279.608 L549.687 279.608 L549.687 275.672 Z" fill="#000000" fill-rule="nonzero" fill-opacity="1" /><path clip-path="url(#clip820)" d="M610.404 261.83 L601.029 274.446 L610.891 287.756 L605.867 287.756 L598.321 277.571 L590.775 287.756 L585.752 287.756 L595.821 274.191 L586.608 261.83 L591.631 261.83 L598.506 271.066 L605.381 261.83 L610.404 261.83 Z" fill="#000000" fill-rule="nonzero" fill-opacity="1" /><path clip-path="url(#clip820)" d="M2296.12 1436.44 L2324.76 1436.44 L2324.76 1337.57 L2293.6 1343.82 L2293.6 1327.85 L2324.59 1321.6 L2342.12 1321.6 L2342.12 1436.44 L2370.77 1436.44 L2370.77 1451.2 L2296.12 1451.2 L2296.12 1436.44 Z" fill="#008000" fill-rule="nonzero" fill-opacity="1" /><path clip-path="url(#clip820)" d="M2314.69 1436.44 L2375.89 1436.44 L2375.89 1451.2 L2293.6 1451.2 L2293.6 1436.44 Q2303.58 1426.11 2320.77 1408.75 Q2338.04 1391.3 2342.47 1386.27 Q2350.89 1376.8 2354.19 1370.29 Q2357.57 1363.7 2357.57 1357.36 Q2357.57 1347.03 2350.28 1340.52 Q2343.08 1334.01 2331.45 1334.01 Q2323.2 1334.01 2314 1336.87 Q2304.88 1339.74 2294.47 1345.55 L2294.47 1327.85 Q2305.06 1323.59 2314.26 1321.42 Q2323.46 1319.25 2331.1 1319.25 Q2351.24 1319.25 2363.22 1329.32 Q2375.2 1339.39 2375.2 1356.23 Q2375.2 1364.22 2372.16 1371.42 Q2369.21 1378.54 2361.31 1388.26 Q2359.14 1390.78 2347.51 1402.85 Q2335.87 1414.82 2314.69 1436.44 Z" fill="#008000" fill-rule="nonzero" fill-opacity="1" /><path clip-path="url(#clip820)" d="M2352.19 1381.32 Q2364.78 1384.01 2371.81 1392.52 Q2378.93 1401.02 2378.93 1413.52 Q2378.93 1432.71 2365.73 1443.21 Q2352.54 1453.71 2328.23 1453.71 Q2320.07 1453.71 2311.39 1452.06 Q2302.8 1450.5 2293.6 1447.29 L2293.6 1430.36 Q2300.89 1434.62 2309.57 1436.79 Q2318.25 1438.96 2327.71 1438.96 Q2344.21 1438.96 2352.8 1432.45 Q2361.48 1425.94 2361.48 1413.52 Q2361.48 1402.06 2353.41 1395.64 Q2345.42 1389.13 2331.1 1389.13 L2315.99 1389.13 L2315.99 1374.72 L2331.79 1374.72 Q2344.73 1374.72 2351.58 1369.6 Q2358.44 1364.39 2358.44 1354.67 Q2358.44 1344.69 2351.32 1339.39 Q2344.29 1334.01 2331.1 1334.01 Q2323.89 1334.01 2315.65 1335.57 Q2307.4 1337.13 2297.51 1340.43 L2297.51 1324.81 Q2307.49 1322.03 2316.17 1320.64 Q2324.94 1319.25 2332.66 1319.25 Q2352.63 1319.25 2364.26 1328.37 Q2375.89 1337.39 2375.89 1352.85 Q2375.89 1363.61 2369.73 1371.07 Q2363.56 1378.45 2352.19 1381.32 Z" fill="#008000" fill-rule="nonzero" fill-opacity="1" /><path clip-path="url(#clip820)" d="M2352.11 1336.87 L2307.84 1406.06 L2352.11 1406.06 L2352.11 1336.87 M2347.51 1321.6 L2369.55 1321.6 L2369.55 1406.06 L2388.04 1406.06 L2388.04 1420.64 L2369.55 1420.64 L2369.55 1451.2 L2352.11 1451.2 L2352.11 1420.64 L2293.6 1420.64 L2293.6 1403.71 L2347.51 1321.6 Z" fill="#008000" fill-rule="nonzero" fill-opacity="1" /><path clip-path="url(#clip820)" d="M2299.07 1321.6 L2367.9 1321.6 L2367.9 1336.35 L2315.13 1336.35 L2315.13 1368.12 Q2318.95 1366.82 2322.77 1366.21 Q2326.59 1365.52 2330.4 1365.52 Q2352.11 1365.52 2364.78 1377.41 Q2377.45 1389.3 2377.45 1409.62 Q2377.45 1430.54 2364.43 1442.17 Q2351.41 1453.71 2327.71 1453.71 Q2319.55 1453.71 2311.05 1452.32 Q2302.63 1450.94 2293.6 1448.16 L2293.6 1430.54 Q2301.41 1434.79 2309.74 1436.87 Q2318.08 1438.96 2327.37 1438.96 Q2342.38 1438.96 2351.15 1431.06 Q2359.92 1423.16 2359.92 1409.62 Q2359.92 1396.07 2351.15 1388.18 Q2342.38 1380.28 2327.37 1380.28 Q2320.34 1380.28 2313.3 1381.84 Q2306.36 1383.4 2299.07 1386.7 L2299.07 1321.6 Z" fill="#008000" fill-rule="nonzero" fill-opacity="1" /></svg>
