<?xml version="1.0" encoding="utf-8"?>
<svg xmlns="http://www.w3.org/2000/svg" xmlns:xlink="http://www.w3.org/1999/xlink" width="600" height="400" viewBox="0 0 2400 1600">
<defs>
  <clipPath id="clip600">
    <rect x="0" y="0" width="2400" height="1600"/>
  </clipPath>
</defs>
<path clip-path="url(#clip600)" d="M0 1600 L2400 1600 L2400 0 L0 0  Z" fill="#ffffff" fill-rule="evenodd" fill-opacity="1"/>
<defs>
  <clipPath id="clip601">
    <rect x="480" y="0" width="1681" height="1600"/>
  </clipPath>
</defs>
<path clip-path="url(#clip600)" d="M262.551 1423.18 L2352.76 1423.18 L2352.76 123.472 L262.551 123.472  Z" fill="#ffffff" fill-rule="evenodd" fill-opacity="1"/>
<defs>
  <clipPath id="clip602">
    <rect x="262" y="123" width="2091" height="1301"/>
  </clipPath>
</defs>
<polyline clip-path="url(#clip602)" style="stroke:#000000; stroke-linecap:round; stroke-linejoin:round; stroke-width:2; stroke-opacity:0.1; fill:none" points="454.3,1423.18 454.3,123.472 "/>
<polyline clip-path="url(#clip602)" style="stroke:#000000; stroke-linecap:round; stroke-linejoin:round; stroke-width:2; stroke-opacity:0.1; fill:none" points="763.155,1423.18 763.155,123.472 "/>
<polyline clip-path="url(#clip602)" style="stroke:#000000; stroke-linecap:round; stroke-linejoin:round; stroke-width:2; stroke-opacity:0.1; fill:none" points="1072.01,1423.18 1072.01,123.472 "/>
<polyline clip-path="url(#clip602)" style="stroke:#000000; stroke-linecap:round; stroke-linejoin:round; stroke-width:2; stroke-opacity:0.1; fill:none" points="1380.86,1423.18 1380.86,123.472 "/>
<polyline clip-path="url(#clip602)" style="stroke:#000000; stroke-linecap:round; stroke-linejoin:round; stroke-width:2; stroke-opacity:0.1; fill:none" points="1689.72,1423.18 1689.72,123.472 "/>
<polyline clip-path="url(#clip602)" style="stroke:#000000; stroke-linecap:round; stroke-linejoin:round; stroke-width:2; stroke-opacity:0.1; fill:none" points="1998.57,1423.18 1998.57,123.472 "/>
<polyline clip-path="url(#clip602)" style="stroke:#000000; stroke-linecap:round; stroke-linejoin:round; stroke-width:2; stroke-opacity:0.1; fill:none" points="2307.43,1423.18 2307.43,123.472 "/>
<polyline clip-path="url(#clip602)" style="stroke:#000000; stroke-linecap:round; stroke-linejoin:round; stroke-width:2; stroke-opacity:0.1; fill:none" points="262.551,1303.95 2352.76,1303.95 "/>
<polyline clip-path="url(#clip602)" style="stroke:#000000; stroke-linecap:round; stroke-linejoin:round; stroke-width:2; stroke-opacity:0.1; fill:none" points="262.551,1111.9 2352.76,1111.9 "/>
<polyline clip-path="url(#clip602)" style="stroke:#000000; stroke-linecap:round; stroke-linejoin:round; stroke-width:2; stroke-opacity:0.1; fill:none" points="262.551,919.852 2352.76,919.852 "/>
<polyline clip-path="url(#clip602)" style="stroke:#000000; stroke-linecap:round; stroke-linejoin:round; stroke-width:2; stroke-opacity:0.1; fill:none" points="262.551,727.803 2352.76,727.803 "/>
<polyline clip-path="url(#clip602)" style="stroke:#000000; stroke-linecap:round; stroke-linejoin:round; stroke-width:2; stroke-opacity:0.1; fill:none" points="262.551,535.755 2352.76,535.755 "/>
<polyline clip-path="url(#clip602)" style="stroke:#000000; stroke-linecap:round; stroke-linejoin:round; stroke-width:2; stroke-opacity:0.1; fill:none" points="262.551,343.706 2352.76,343.706 "/>
<polyline clip-path="url(#clip602)" style="stroke:#000000; stroke-linecap:round; stroke-linejoin:round; stroke-width:2; stroke-opacity:0.1; fill:none" points="262.551,151.658 2352.76,151.658 "/>
<polyline clip-path="url(#clip600)" style="stroke:#000000; stroke-linecap:round; stroke-linejoin:round; stroke-width:4; stroke-opacity:1; fill:none" points="262.551,1423.18 2352.76,1423.18 "/>
<polyline clip-path="url(#clip600)" style="stroke:#000000; stroke-linecap:round; stroke-linejoin:round; stroke-width:4; stroke-opacity:1; fill:none" points="454.3,1423.18 454.3,1404.28 "/>
<polyline clip-path="url(#clip600)" style="stroke:#000000; stroke-linecap:round; stroke-linejoin:round; stroke-width:4; stroke-opacity:1; fill:none" points="763.155,1423.18 763.155,1404.28 "/>
<polyline clip-path="url(#clip600)" style="stroke:#000000; stroke-linecap:round; stroke-linejoin:round; stroke-width:4; stroke-opacity:1; fill:none" points="1072.01,1423.18 1072.01,1404.28 "/>
<polyline clip-path="url(#clip600)" style="stroke:#000000; stroke-linecap:round; stroke-linejoin:round; stroke-width:4; stroke-opacity:1; fill:none" points="1380.86,1423.18 1380.86,1404.28 "/>
<polyline clip-path="url(#clip600)" style="stroke:#000000; stroke-linecap:round; stroke-linejoin:round; stroke-width:4; stroke-opacity:1; fill:none" points="1689.72,1423.18 1689.72,1404.28 "/>
<polyline clip-path="url(#clip600)" style="stroke:#000000; stroke-linecap:round; stroke-linejoin:round; stroke-width:4; stroke-opacity:1; fill:none" points="1998.57,1423.18 1998.57,1404.28 "/>
<polyline clip-path="url(#clip600)" style="stroke:#000000; stroke-linecap:round; stroke-linejoin:round; stroke-width:4; stroke-opacity:1; fill:none" points="2307.43,1423.18 2307.43,1404.28 "/>
<path clip-path="url(#clip600)" d="M399.323 1481.64 L406.962 1481.64 L406.962 1455.28 L398.652 1456.95 L398.652 1452.69 L406.916 1451.02 L411.592 1451.02 L411.592 1481.64 L419.231 1481.64 L419.231 1485.58 L399.323 1485.58 L399.323 1481.64 Z" fill="#000000" fill-rule="nonzero" fill-opacity="1" /><path clip-path="url(#clip600)" d="M442.842 1466.95 Q446.198 1467.66 448.073 1469.93 Q449.971 1472.2 449.971 1475.53 Q449.971 1480.65 446.453 1483.45 Q442.934 1486.25 436.453 1486.25 Q434.277 1486.25 431.962 1485.81 Q429.671 1485.39 427.217 1484.54 L427.217 1480.02 Q429.161 1481.16 431.476 1481.74 Q433.791 1482.32 436.314 1482.32 Q440.712 1482.32 443.004 1480.58 Q445.319 1478.84 445.319 1475.53 Q445.319 1472.48 443.166 1470.77 Q441.036 1469.03 437.217 1469.03 L433.189 1469.03 L433.189 1465.19 L437.402 1465.19 Q440.851 1465.19 442.68 1463.82 Q444.508 1462.43 444.508 1459.84 Q444.508 1457.18 442.61 1455.77 Q440.735 1454.33 437.217 1454.33 Q435.296 1454.33 433.096 1454.75 Q430.897 1455.16 428.259 1456.04 L428.259 1451.88 Q430.921 1451.14 433.235 1450.77 Q435.573 1450.39 437.633 1450.39 Q442.957 1450.39 446.059 1452.83 Q449.161 1455.23 449.161 1459.35 Q449.161 1462.22 447.518 1464.21 Q445.874 1466.18 442.842 1466.95 Z" fill="#000000" fill-rule="nonzero" fill-opacity="1" /><path clip-path="url(#clip600)" d="M471.684 1455.09 L459.879 1473.54 L471.684 1473.54 L471.684 1455.09 M470.457 1451.02 L476.337 1451.02 L476.337 1473.54 L481.267 1473.54 L481.267 1477.43 L476.337 1477.43 L476.337 1485.58 L471.684 1485.58 L471.684 1477.43 L456.082 1477.43 L456.082 1472.92 L470.457 1451.02 Z" fill="#000000" fill-rule="nonzero" fill-opacity="1" /><path clip-path="url(#clip600)" d="M489.045 1451.02 L507.402 1451.02 L507.402 1454.96 L493.328 1454.96 L493.328 1463.43 Q494.346 1463.08 495.365 1462.92 Q496.383 1462.73 497.402 1462.73 Q503.189 1462.73 506.568 1465.9 Q509.948 1469.08 509.948 1474.49 Q509.948 1480.07 506.476 1483.17 Q503.003 1486.25 496.684 1486.25 Q494.508 1486.25 492.24 1485.88 Q489.994 1485.51 487.587 1484.77 L487.587 1480.07 Q489.67 1481.2 491.892 1481.76 Q494.115 1482.32 496.591 1482.32 Q500.596 1482.32 502.934 1480.21 Q505.272 1478.1 505.272 1474.49 Q505.272 1470.88 502.934 1468.77 Q500.596 1466.67 496.591 1466.67 Q494.716 1466.67 492.841 1467.08 Q490.99 1467.5 489.045 1468.38 L489.045 1451.02 Z" fill="#000000" fill-rule="nonzero" fill-opacity="1" /><path clip-path="url(#clip600)" d="M707.68 1481.64 L715.319 1481.64 L715.319 1455.28 L707.009 1456.95 L707.009 1452.69 L715.273 1451.02 L719.949 1451.02 L719.949 1481.64 L727.588 1481.64 L727.588 1485.58 L707.68 1485.58 L707.68 1481.64 Z" fill="#000000" fill-rule="nonzero" fill-opacity="1" /><path clip-path="url(#clip600)" d="M751.199 1466.95 Q754.555 1467.66 756.43 1469.93 Q758.328 1472.2 758.328 1475.53 Q758.328 1480.65 754.81 1483.45 Q751.291 1486.25 744.81 1486.25 Q742.634 1486.25 740.319 1485.81 Q738.027 1485.39 735.574 1484.54 L735.574 1480.02 Q737.518 1481.16 739.833 1481.74 Q742.148 1482.32 744.671 1482.32 Q749.069 1482.32 751.361 1480.58 Q753.675 1478.84 753.675 1475.53 Q753.675 1472.48 751.523 1470.77 Q749.393 1469.03 745.574 1469.03 L741.546 1469.03 L741.546 1465.19 L745.759 1465.19 Q749.208 1465.19 751.037 1463.82 Q752.865 1462.43 752.865 1459.84 Q752.865 1457.18 750.967 1455.77 Q749.092 1454.33 745.574 1454.33 Q743.652 1454.33 741.453 1454.75 Q739.254 1455.16 736.615 1456.04 L736.615 1451.88 Q739.277 1451.14 741.592 1450.77 Q743.93 1450.39 745.99 1450.39 Q751.314 1450.39 754.416 1452.83 Q757.518 1455.23 757.518 1459.35 Q757.518 1462.22 755.875 1464.21 Q754.231 1466.18 751.199 1466.95 Z" fill="#000000" fill-rule="nonzero" fill-opacity="1" /><path clip-path="url(#clip600)" d="M767.24 1451.02 L785.597 1451.02 L785.597 1454.96 L771.523 1454.96 L771.523 1463.43 Q772.541 1463.08 773.56 1462.92 Q774.578 1462.73 775.597 1462.73 Q781.384 1462.73 784.763 1465.9 Q788.143 1469.08 788.143 1474.49 Q788.143 1480.07 784.671 1483.17 Q781.198 1486.25 774.879 1486.25 Q772.703 1486.25 770.435 1485.88 Q768.189 1485.51 765.782 1484.77 L765.782 1480.07 Q767.865 1481.2 770.087 1481.76 Q772.31 1482.32 774.786 1482.32 Q778.791 1482.32 781.129 1480.21 Q783.467 1478.1 783.467 1474.49 Q783.467 1470.88 781.129 1468.77 Q778.791 1466.67 774.786 1466.67 Q772.912 1466.67 771.037 1467.08 Q769.185 1467.5 767.24 1468.38 L767.24 1451.02 Z" fill="#000000" fill-rule="nonzero" fill-opacity="1" /><path clip-path="url(#clip600)" d="M807.356 1454.1 Q803.745 1454.1 801.916 1457.66 Q800.11 1461.2 800.11 1468.33 Q800.11 1475.44 801.916 1479.01 Q803.745 1482.55 807.356 1482.55 Q810.99 1482.55 812.796 1479.01 Q814.624 1475.44 814.624 1468.33 Q814.624 1461.2 812.796 1457.66 Q810.99 1454.1 807.356 1454.1 M807.356 1450.39 Q813.166 1450.39 816.221 1455 Q819.3 1459.58 819.3 1468.33 Q819.3 1477.06 816.221 1481.67 Q813.166 1486.25 807.356 1486.25 Q801.546 1486.25 798.467 1481.67 Q795.411 1477.06 795.411 1468.33 Q795.411 1459.58 798.467 1455 Q801.546 1450.39 807.356 1450.39 Z" fill="#000000" fill-rule="nonzero" fill-opacity="1" /><path clip-path="url(#clip600)" d="M1017.03 1481.64 L1024.67 1481.64 L1024.67 1455.28 L1016.36 1456.95 L1016.36 1452.69 L1024.63 1451.02 L1029.3 1451.02 L1029.3 1481.64 L1036.94 1481.64 L1036.94 1485.58 L1017.03 1485.58 L1017.03 1481.64 Z" fill="#000000" fill-rule="nonzero" fill-opacity="1" /><path clip-path="url(#clip600)" d="M1060.55 1466.95 Q1063.91 1467.66 1065.78 1469.93 Q1067.68 1472.2 1067.68 1475.53 Q1067.68 1480.65 1064.16 1483.45 Q1060.64 1486.25 1054.16 1486.25 Q1051.99 1486.25 1049.67 1485.81 Q1047.38 1485.39 1044.93 1484.54 L1044.93 1480.02 Q1046.87 1481.16 1049.19 1481.74 Q1051.5 1482.32 1054.02 1482.32 Q1058.42 1482.32 1060.71 1480.58 Q1063.03 1478.84 1063.03 1475.53 Q1063.03 1472.48 1060.87 1470.77 Q1058.75 1469.03 1054.93 1469.03 L1050.9 1469.03 L1050.9 1465.19 L1055.11 1465.19 Q1058.56 1465.19 1060.39 1463.82 Q1062.22 1462.43 1062.22 1459.84 Q1062.22 1457.18 1060.32 1455.77 Q1058.44 1454.33 1054.93 1454.33 Q1053 1454.33 1050.81 1454.75 Q1048.61 1455.16 1045.97 1456.04 L1045.97 1451.88 Q1048.63 1451.14 1050.94 1450.77 Q1053.28 1450.39 1055.34 1450.39 Q1060.67 1450.39 1063.77 1452.83 Q1066.87 1455.23 1066.87 1459.35 Q1066.87 1462.22 1065.23 1464.21 Q1063.58 1466.18 1060.55 1466.95 Z" fill="#000000" fill-rule="nonzero" fill-opacity="1" /><path clip-path="url(#clip600)" d="M1076.59 1451.02 L1094.95 1451.02 L1094.95 1454.96 L1080.87 1454.96 L1080.87 1463.43 Q1081.89 1463.08 1082.91 1462.92 Q1083.93 1462.73 1084.95 1462.73 Q1090.74 1462.73 1094.12 1465.9 Q1097.5 1469.08 1097.5 1474.49 Q1097.5 1480.07 1094.02 1483.17 Q1090.55 1486.25 1084.23 1486.25 Q1082.06 1486.25 1079.79 1485.88 Q1077.54 1485.51 1075.13 1484.77 L1075.13 1480.07 Q1077.22 1481.2 1079.44 1481.76 Q1081.66 1482.32 1084.14 1482.32 Q1088.14 1482.32 1090.48 1480.21 Q1092.82 1478.1 1092.82 1474.49 Q1092.82 1470.88 1090.48 1468.77 Q1088.14 1466.67 1084.14 1466.67 Q1082.26 1466.67 1080.39 1467.08 Q1078.54 1467.5 1076.59 1468.38 L1076.59 1451.02 Z" fill="#000000" fill-rule="nonzero" fill-opacity="1" /><path clip-path="url(#clip600)" d="M1106.75 1451.02 L1125.11 1451.02 L1125.11 1454.96 L1111.04 1454.96 L1111.04 1463.43 Q1112.06 1463.08 1113.07 1462.92 Q1114.09 1462.73 1115.11 1462.73 Q1120.9 1462.73 1124.28 1465.9 Q1127.66 1469.08 1127.66 1474.49 Q1127.66 1480.07 1124.18 1483.17 Q1120.71 1486.25 1114.39 1486.25 Q1112.22 1486.25 1109.95 1485.88 Q1107.7 1485.51 1105.3 1484.77 L1105.3 1480.07 Q1107.38 1481.2 1109.6 1481.76 Q1111.82 1482.32 1114.3 1482.32 Q1118.31 1482.32 1120.64 1480.21 Q1122.98 1478.1 1122.98 1474.49 Q1122.98 1470.88 1120.64 1468.77 Q1118.31 1466.67 1114.3 1466.67 Q1112.43 1466.67 1110.55 1467.08 Q1108.7 1467.5 1106.75 1468.38 L1106.75 1451.02 Z" fill="#000000" fill-rule="nonzero" fill-opacity="1" /><path clip-path="url(#clip600)" d="M1325.39 1481.64 L1333.03 1481.64 L1333.03 1455.28 L1324.72 1456.95 L1324.72 1452.69 L1332.98 1451.02 L1337.66 1451.02 L1337.66 1481.64 L1345.3 1481.64 L1345.3 1485.58 L1325.39 1485.58 L1325.39 1481.64 Z" fill="#000000" fill-rule="nonzero" fill-opacity="1" /><path clip-path="url(#clip600)" d="M1368.91 1466.95 Q1372.26 1467.66 1374.14 1469.93 Q1376.04 1472.2 1376.04 1475.53 Q1376.04 1480.65 1372.52 1483.45 Q1369 1486.25 1362.52 1486.25 Q1360.34 1486.25 1358.03 1485.81 Q1355.74 1485.39 1353.28 1484.54 L1353.28 1480.02 Q1355.23 1481.16 1357.54 1481.74 Q1359.86 1482.32 1362.38 1482.32 Q1366.78 1482.32 1369.07 1480.58 Q1371.38 1478.84 1371.38 1475.53 Q1371.38 1472.48 1369.23 1470.77 Q1367.1 1469.03 1363.28 1469.03 L1359.26 1469.03 L1359.26 1465.19 L1363.47 1465.19 Q1366.92 1465.19 1368.75 1463.82 Q1370.57 1462.43 1370.57 1459.84 Q1370.57 1457.18 1368.68 1455.77 Q1366.8 1454.33 1363.28 1454.33 Q1361.36 1454.33 1359.16 1454.75 Q1356.96 1455.16 1354.32 1456.04 L1354.32 1451.88 Q1356.99 1451.14 1359.3 1450.77 Q1361.64 1450.39 1363.7 1450.39 Q1369.02 1450.39 1372.13 1452.83 Q1375.23 1455.23 1375.23 1459.35 Q1375.23 1462.22 1373.58 1464.21 Q1371.94 1466.18 1368.91 1466.95 Z" fill="#000000" fill-rule="nonzero" fill-opacity="1" /><path clip-path="url(#clip600)" d="M1395.48 1466.44 Q1392.33 1466.44 1390.48 1468.59 Q1388.65 1470.74 1388.65 1474.49 Q1388.65 1478.22 1390.48 1480.39 Q1392.33 1482.55 1395.48 1482.55 Q1398.63 1482.55 1400.46 1480.39 Q1402.31 1478.22 1402.31 1474.49 Q1402.31 1470.74 1400.46 1468.59 Q1398.63 1466.44 1395.48 1466.44 M1404.76 1451.78 L1404.76 1456.04 Q1403 1455.21 1401.2 1454.77 Q1399.42 1454.33 1397.66 1454.33 Q1393.03 1454.33 1390.57 1457.45 Q1388.14 1460.58 1387.8 1466.9 Q1389.16 1464.89 1391.22 1463.82 Q1393.28 1462.73 1395.76 1462.73 Q1400.97 1462.73 1403.98 1465.9 Q1407.01 1469.05 1407.01 1474.49 Q1407.01 1479.82 1403.86 1483.03 Q1400.71 1486.25 1395.48 1486.25 Q1389.49 1486.25 1386.32 1481.67 Q1383.14 1477.06 1383.14 1468.33 Q1383.14 1460.14 1387.03 1455.28 Q1390.92 1450.39 1397.47 1450.39 Q1399.23 1450.39 1401.01 1450.74 Q1402.82 1451.09 1404.76 1451.78 Z" fill="#000000" fill-rule="nonzero" fill-opacity="1" /><path clip-path="url(#clip600)" d="M1425.06 1454.1 Q1421.45 1454.1 1419.63 1457.66 Q1417.82 1461.2 1417.82 1468.33 Q1417.82 1475.44 1419.63 1479.01 Q1421.45 1482.55 1425.06 1482.55 Q1428.7 1482.55 1430.5 1479.01 Q1432.33 1475.44 1432.33 1468.33 Q1432.33 1461.2 1430.5 1457.66 Q1428.7 1454.1 1425.06 1454.1 M1425.06 1450.39 Q1430.88 1450.39 1433.93 1455 Q1437.01 1459.58 1437.01 1468.33 Q1437.01 1477.06 1433.93 1481.67 Q1430.88 1486.25 1425.06 1486.25 Q1419.25 1486.25 1416.18 1481.67 Q1413.12 1477.06 1413.12 1468.33 Q1413.12 1459.58 1416.18 1455 Q1419.25 1450.39 1425.06 1450.39 Z" fill="#000000" fill-rule="nonzero" fill-opacity="1" /><path clip-path="url(#clip600)" d="M1634.74 1481.64 L1642.38 1481.64 L1642.38 1455.28 L1634.07 1456.95 L1634.07 1452.69 L1642.33 1451.02 L1647.01 1451.02 L1647.01 1481.64 L1654.65 1481.64 L1654.65 1485.58 L1634.74 1485.58 L1634.74 1481.64 Z" fill="#000000" fill-rule="nonzero" fill-opacity="1" /><path clip-path="url(#clip600)" d="M1678.26 1466.95 Q1681.62 1467.66 1683.49 1469.93 Q1685.39 1472.2 1685.39 1475.53 Q1685.39 1480.65 1681.87 1483.45 Q1678.35 1486.25 1671.87 1486.25 Q1669.7 1486.25 1667.38 1485.81 Q1665.09 1485.39 1662.64 1484.54 L1662.64 1480.02 Q1664.58 1481.16 1666.89 1481.74 Q1669.21 1482.32 1671.73 1482.32 Q1676.13 1482.32 1678.42 1480.58 Q1680.74 1478.84 1680.74 1475.53 Q1680.74 1472.48 1678.58 1470.77 Q1676.45 1469.03 1672.64 1469.03 L1668.61 1469.03 L1668.61 1465.19 L1672.82 1465.19 Q1676.27 1465.19 1678.1 1463.82 Q1679.93 1462.43 1679.93 1459.84 Q1679.93 1457.18 1678.03 1455.77 Q1676.15 1454.33 1672.64 1454.33 Q1670.71 1454.33 1668.51 1454.75 Q1666.32 1455.16 1663.68 1456.04 L1663.68 1451.88 Q1666.34 1451.14 1668.65 1450.77 Q1670.99 1450.39 1673.05 1450.39 Q1678.38 1450.39 1681.48 1452.83 Q1684.58 1455.23 1684.58 1459.35 Q1684.58 1462.22 1682.94 1464.21 Q1681.29 1466.18 1678.26 1466.95 Z" fill="#000000" fill-rule="nonzero" fill-opacity="1" /><path clip-path="url(#clip600)" d="M1704.83 1466.44 Q1701.69 1466.44 1699.83 1468.59 Q1698.01 1470.74 1698.01 1474.49 Q1698.01 1478.22 1699.83 1480.39 Q1701.69 1482.55 1704.83 1482.55 Q1707.98 1482.55 1709.81 1480.39 Q1711.66 1478.22 1711.66 1474.49 Q1711.66 1470.74 1709.81 1468.59 Q1707.98 1466.44 1704.83 1466.44 M1714.12 1451.78 L1714.12 1456.04 Q1712.36 1455.21 1710.55 1454.77 Q1708.77 1454.33 1707.01 1454.33 Q1702.38 1454.33 1699.93 1457.45 Q1697.5 1460.58 1697.15 1466.9 Q1698.51 1464.89 1700.57 1463.82 Q1702.63 1462.73 1705.11 1462.73 Q1710.32 1462.73 1713.33 1465.9 Q1716.36 1469.05 1716.36 1474.49 Q1716.36 1479.82 1713.21 1483.03 Q1710.07 1486.25 1704.83 1486.25 Q1698.84 1486.25 1695.67 1481.67 Q1692.5 1477.06 1692.5 1468.33 Q1692.5 1460.14 1696.38 1455.28 Q1700.27 1450.39 1706.82 1450.39 Q1708.58 1450.39 1710.37 1450.74 Q1712.17 1451.09 1714.12 1451.78 Z" fill="#000000" fill-rule="nonzero" fill-opacity="1" /><path clip-path="url(#clip600)" d="M1724.46 1451.02 L1742.82 1451.02 L1742.82 1454.96 L1728.75 1454.96 L1728.75 1463.43 Q1729.76 1463.08 1730.78 1462.92 Q1731.8 1462.73 1732.82 1462.73 Q1738.61 1462.73 1741.99 1465.9 Q1745.37 1469.08 1745.37 1474.49 Q1745.37 1480.07 1741.89 1483.17 Q1738.42 1486.25 1732.1 1486.25 Q1729.93 1486.25 1727.66 1485.88 Q1725.41 1485.51 1723.01 1484.77 L1723.01 1480.07 Q1725.09 1481.2 1727.31 1481.76 Q1729.53 1482.32 1732.01 1482.32 Q1736.01 1482.32 1738.35 1480.21 Q1740.69 1478.1 1740.69 1474.49 Q1740.69 1470.88 1738.35 1468.77 Q1736.01 1466.67 1732.01 1466.67 Q1730.13 1466.67 1728.26 1467.08 Q1726.41 1467.5 1724.46 1468.38 L1724.46 1451.02 Z" fill="#000000" fill-rule="nonzero" fill-opacity="1" /><path clip-path="url(#clip600)" d="M1943.1 1481.64 L1950.74 1481.64 L1950.74 1455.28 L1942.43 1456.95 L1942.43 1452.69 L1950.69 1451.02 L1955.37 1451.02 L1955.37 1481.64 L1963.01 1481.64 L1963.01 1485.58 L1943.1 1485.58 L1943.1 1481.64 Z" fill="#000000" fill-rule="nonzero" fill-opacity="1" /><path clip-path="url(#clip600)" d="M1986.62 1466.95 Q1989.97 1467.66 1991.85 1469.93 Q1993.75 1472.2 1993.75 1475.53 Q1993.75 1480.65 1990.23 1483.45 Q1986.71 1486.25 1980.23 1486.25 Q1978.05 1486.25 1975.74 1485.81 Q1973.45 1485.39 1970.99 1484.54 L1970.99 1480.02 Q1972.94 1481.16 1975.25 1481.74 Q1977.57 1482.32 1980.09 1482.32 Q1984.49 1482.32 1986.78 1480.58 Q1989.09 1478.84 1989.09 1475.53 Q1989.09 1472.48 1986.94 1470.77 Q1984.81 1469.03 1980.99 1469.03 L1976.96 1469.03 L1976.96 1465.19 L1981.18 1465.19 Q1984.63 1465.19 1986.45 1463.82 Q1988.28 1462.43 1988.28 1459.84 Q1988.28 1457.18 1986.39 1455.77 Q1984.51 1454.33 1980.99 1454.33 Q1979.07 1454.33 1976.87 1454.75 Q1974.67 1455.16 1972.03 1456.04 L1972.03 1451.88 Q1974.7 1451.14 1977.01 1450.77 Q1979.35 1450.39 1981.41 1450.39 Q1986.73 1450.39 1989.83 1452.83 Q1992.94 1455.23 1992.94 1459.35 Q1992.94 1462.22 1991.29 1464.21 Q1989.65 1466.18 1986.62 1466.95 Z" fill="#000000" fill-rule="nonzero" fill-opacity="1" /><path clip-path="url(#clip600)" d="M2001.43 1451.02 L2023.65 1451.02 L2023.65 1453.01 L2011.11 1485.58 L2006.22 1485.58 L2018.03 1454.96 L2001.43 1454.96 L2001.43 1451.02 Z" fill="#000000" fill-rule="nonzero" fill-opacity="1" /><path clip-path="url(#clip600)" d="M2042.77 1454.1 Q2039.16 1454.1 2037.33 1457.66 Q2035.53 1461.2 2035.53 1468.33 Q2035.53 1475.44 2037.33 1479.01 Q2039.16 1482.55 2042.77 1482.55 Q2046.41 1482.55 2048.21 1479.01 Q2050.04 1475.44 2050.04 1468.33 Q2050.04 1461.2 2048.21 1457.66 Q2046.41 1454.1 2042.77 1454.1 M2042.77 1450.39 Q2048.58 1450.39 2051.64 1455 Q2054.72 1459.58 2054.72 1468.33 Q2054.72 1477.06 2051.64 1481.67 Q2048.58 1486.25 2042.77 1486.25 Q2036.96 1486.25 2033.89 1481.67 Q2030.83 1477.06 2030.83 1468.33 Q2030.83 1459.58 2033.89 1455 Q2036.96 1450.39 2042.77 1450.39 Z" fill="#000000" fill-rule="nonzero" fill-opacity="1" /><path clip-path="url(#clip600)" d="M2252.45 1481.64 L2260.09 1481.64 L2260.09 1455.28 L2251.78 1456.95 L2251.78 1452.69 L2260.04 1451.02 L2264.72 1451.02 L2264.72 1481.64 L2272.36 1481.64 L2272.36 1485.58 L2252.45 1485.58 L2252.45 1481.64 Z" fill="#000000" fill-rule="nonzero" fill-opacity="1" /><path clip-path="url(#clip600)" d="M2295.97 1466.95 Q2299.33 1467.66 2301.2 1469.93 Q2303.1 1472.2 2303.1 1475.53 Q2303.1 1480.65 2299.58 1483.45 Q2296.06 1486.25 2289.58 1486.25 Q2287.4 1486.25 2285.09 1485.81 Q2282.8 1485.39 2280.34 1484.54 L2280.34 1480.02 Q2282.29 1481.16 2284.6 1481.74 Q2286.92 1482.32 2289.44 1482.32 Q2293.84 1482.32 2296.13 1480.58 Q2298.45 1478.84 2298.45 1475.53 Q2298.45 1472.48 2296.29 1470.77 Q2294.16 1469.03 2290.34 1469.03 L2286.32 1469.03 L2286.32 1465.19 L2290.53 1465.19 Q2293.98 1465.19 2295.81 1463.82 Q2297.64 1462.43 2297.64 1459.84 Q2297.64 1457.18 2295.74 1455.77 Q2293.86 1454.33 2290.34 1454.33 Q2288.42 1454.33 2286.22 1454.75 Q2284.02 1455.16 2281.39 1456.04 L2281.39 1451.88 Q2284.05 1451.14 2286.36 1450.77 Q2288.7 1450.39 2290.76 1450.39 Q2296.08 1450.39 2299.19 1452.83 Q2302.29 1455.23 2302.29 1459.35 Q2302.29 1462.22 2300.65 1464.21 Q2299 1466.18 2295.97 1466.95 Z" fill="#000000" fill-rule="nonzero" fill-opacity="1" /><path clip-path="url(#clip600)" d="M2310.78 1451.02 L2333.01 1451.02 L2333.01 1453.01 L2320.46 1485.58 L2315.58 1485.58 L2327.38 1454.96 L2310.78 1454.96 L2310.78 1451.02 Z" fill="#000000" fill-rule="nonzero" fill-opacity="1" /><path clip-path="url(#clip600)" d="M2342.17 1451.02 L2360.53 1451.02 L2360.53 1454.96 L2346.46 1454.96 L2346.46 1463.43 Q2347.47 1463.08 2348.49 1462.92 Q2349.51 1462.73 2350.53 1462.73 Q2356.32 1462.73 2359.7 1465.9 Q2363.08 1469.08 2363.08 1474.49 Q2363.08 1480.07 2359.6 1483.17 Q2356.13 1486.25 2349.81 1486.25 Q2347.64 1486.25 2345.37 1485.88 Q2343.12 1485.51 2340.71 1484.77 L2340.71 1480.07 Q2342.8 1481.2 2345.02 1481.76 Q2347.24 1482.32 2349.72 1482.32 Q2353.72 1482.32 2356.06 1480.21 Q2358.4 1478.1 2358.4 1474.49 Q2358.4 1470.88 2356.06 1468.77 Q2353.72 1466.67 2349.72 1466.67 Q2347.84 1466.67 2345.97 1467.08 Q2344.12 1467.5 2342.17 1468.38 L2342.17 1451.02 Z" fill="#000000" fill-rule="nonzero" fill-opacity="1" /><path clip-path="url(#clip600)" d="M852.426 1520.52 L858.855 1520.52 L858.855 1562.63 L881.995 1562.63 L881.995 1568.04 L852.426 1568.04 L852.426 1520.52 Z" fill="#000000" fill-rule="nonzero" fill-opacity="1" /><path clip-path="url(#clip600)" d="M901.155 1536.5 Q896.445 1536.5 893.708 1540.19 Q890.97 1543.85 890.97 1550.25 Q890.97 1556.65 893.676 1560.34 Q896.413 1564 901.155 1564 Q905.834 1564 908.572 1560.31 Q911.309 1556.62 911.309 1550.25 Q911.309 1543.92 908.572 1540.23 Q905.834 1536.5 901.155 1536.5 M901.155 1531.54 Q908.794 1531.54 913.155 1536.5 Q917.515 1541.47 917.515 1550.25 Q917.515 1559 913.155 1564 Q908.794 1568.97 901.155 1568.97 Q893.485 1568.97 889.124 1564 Q884.796 1559 884.796 1550.25 Q884.796 1541.47 889.124 1536.5 Q893.485 1531.54 901.155 1531.54 Z" fill="#000000" fill-rule="nonzero" fill-opacity="1" /><path clip-path="url(#clip600)" d="M923.817 1532.4 L929.674 1532.4 L936.994 1560.21 L944.283 1532.4 L951.19 1532.4 L958.51 1560.21 L965.799 1532.4 L971.656 1532.4 L962.33 1568.04 L955.423 1568.04 L947.752 1538.83 L940.05 1568.04 L933.143 1568.04 L923.817 1532.4 Z" fill="#000000" fill-rule="nonzero" fill-opacity="1" /><path clip-path="url(#clip600)" d="M1011.03 1548.76 L1011.03 1551.62 L984.101 1551.62 Q984.483 1557.67 987.729 1560.85 Q991.007 1564 996.832 1564 Q1000.21 1564 1003.36 1563.17 Q1006.54 1562.35 1009.66 1560.69 L1009.66 1566.23 Q1006.51 1567.57 1003.2 1568.27 Q999.888 1568.97 996.482 1568.97 Q987.952 1568.97 982.955 1564 Q977.99 1559.04 977.99 1550.57 Q977.99 1541.82 982.7 1536.69 Q987.443 1531.54 995.463 1531.54 Q1002.66 1531.54 1006.83 1536.18 Q1011.03 1540.8 1011.03 1548.76 M1005.17 1547.04 Q1005.11 1542.23 1002.47 1539.37 Q999.856 1536.5 995.527 1536.5 Q990.625 1536.5 987.665 1539.27 Q984.737 1542.04 984.292 1547.07 L1005.17 1547.04 Z" fill="#000000" fill-rule="nonzero" fill-opacity="1" /><path clip-path="url(#clip600)" d="M1041.3 1537.87 Q1040.31 1537.3 1039.13 1537.04 Q1037.99 1536.76 1036.59 1536.76 Q1031.62 1536.76 1028.95 1540 Q1026.31 1543.22 1026.31 1549.27 L1026.31 1568.04 L1020.42 1568.04 L1020.42 1532.4 L1026.31 1532.4 L1026.31 1537.93 Q1028.15 1534.69 1031.11 1533.13 Q1034.07 1531.54 1038.3 1531.54 Q1038.91 1531.54 1039.64 1531.63 Q1040.37 1531.7 1041.26 1531.85 L1041.3 1537.87 Z" fill="#000000" fill-rule="nonzero" fill-opacity="1" /><path clip-path="url(#clip600)" d="M1040.31 1547.58 L1057.47 1547.58 L1057.47 1552.8 L1040.31 1552.8 L1040.31 1547.58 Z" fill="#000000" fill-rule="nonzero" fill-opacity="1" /><path clip-path="url(#clip600)" d="M1067.05 1520.52 L1073.48 1520.52 L1073.48 1562.63 L1096.61 1562.63 L1096.61 1568.04 L1067.05 1568.04 L1067.05 1520.52 Z" fill="#000000" fill-rule="nonzero" fill-opacity="1" /><path clip-path="url(#clip600)" d="M1132.45 1548.76 L1132.45 1551.62 L1105.53 1551.62 Q1105.91 1557.67 1109.15 1560.85 Q1112.43 1564 1118.26 1564 Q1121.63 1564 1124.78 1563.17 Q1127.97 1562.35 1131.08 1560.69 L1131.08 1566.23 Q1127.93 1567.57 1124.62 1568.27 Q1121.31 1568.97 1117.91 1568.97 Q1109.38 1568.97 1104.38 1564 Q1099.42 1559.04 1099.42 1550.57 Q1099.42 1541.82 1104.13 1536.69 Q1108.87 1531.54 1116.89 1531.54 Q1124.08 1531.54 1128.25 1536.18 Q1132.45 1540.8 1132.45 1548.76 M1126.6 1547.04 Q1126.53 1542.23 1123.89 1539.37 Q1121.28 1536.5 1116.95 1536.5 Q1112.05 1536.5 1109.09 1539.27 Q1106.16 1542.04 1105.72 1547.07 L1126.6 1547.04 Z" fill="#000000" fill-rule="nonzero" fill-opacity="1" /><path clip-path="url(#clip600)" d="M1137.86 1532.4 L1144.07 1532.4 L1155.21 1562.31 L1166.35 1532.4 L1172.56 1532.4 L1159.19 1568.04 L1151.23 1568.04 L1137.86 1532.4 Z" fill="#000000" fill-rule="nonzero" fill-opacity="1" /><path clip-path="url(#clip600)" d="M1211.13 1548.76 L1211.13 1551.62 L1184.21 1551.62 Q1184.59 1557.67 1187.84 1560.85 Q1191.11 1564 1196.94 1564 Q1200.31 1564 1203.46 1563.17 Q1206.65 1562.35 1209.76 1560.69 L1209.76 1566.23 Q1206.61 1567.57 1203.3 1568.27 Q1199.99 1568.97 1196.59 1568.97 Q1188.06 1568.97 1183.06 1564 Q1178.1 1559.04 1178.1 1550.57 Q1178.1 1541.82 1182.81 1536.69 Q1187.55 1531.54 1195.57 1531.54 Q1202.76 1531.54 1206.93 1536.18 Q1211.13 1540.8 1211.13 1548.76 M1205.28 1547.04 Q1205.21 1542.23 1202.57 1539.37 Q1199.96 1536.5 1195.63 1536.5 Q1190.73 1536.5 1187.77 1539.27 Q1184.84 1542.04 1184.4 1547.07 L1205.28 1547.04 Z" fill="#000000" fill-rule="nonzero" fill-opacity="1" /><path clip-path="url(#clip600)" d="M1220.75 1518.52 L1226.6 1518.52 L1226.6 1568.04 L1220.75 1568.04 L1220.75 1518.52 Z" fill="#000000" fill-rule="nonzero" fill-opacity="1" /><path clip-path="url(#clip600)" d="M1259.83 1520.52 L1266.26 1520.52 L1266.26 1562.63 L1289.4 1562.63 L1289.4 1568.04 L1259.83 1568.04 L1259.83 1520.52 Z" fill="#000000" fill-rule="nonzero" fill-opacity="1" /><path clip-path="url(#clip600)" d="M1308.56 1536.5 Q1303.85 1536.5 1301.11 1540.19 Q1298.38 1543.85 1298.38 1550.25 Q1298.38 1556.65 1301.08 1560.34 Q1303.82 1564 1308.56 1564 Q1313.24 1564 1315.98 1560.31 Q1318.71 1556.62 1318.71 1550.25 Q1318.71 1543.92 1315.98 1540.23 Q1313.24 1536.5 1308.56 1536.5 M1308.56 1531.54 Q1316.2 1531.54 1320.56 1536.5 Q1324.92 1541.47 1324.92 1550.25 Q1324.92 1559 1320.56 1564 Q1316.2 1568.97 1308.56 1568.97 Q1300.89 1568.97 1296.53 1564 Q1292.2 1559 1292.2 1550.25 Q1292.2 1541.47 1296.53 1536.5 Q1300.89 1531.54 1308.56 1531.54 Z" fill="#000000" fill-rule="nonzero" fill-opacity="1" /><path clip-path="url(#clip600)" d="M1350.83 1550.12 Q1343.73 1550.12 1340.99 1551.75 Q1338.26 1553.37 1338.26 1557.29 Q1338.26 1560.4 1340.29 1562.25 Q1342.36 1564.07 1345.9 1564.07 Q1350.77 1564.07 1353.69 1560.63 Q1356.65 1557.16 1356.65 1551.43 L1356.65 1550.12 L1350.83 1550.12 M1362.51 1547.71 L1362.51 1568.04 L1356.65 1568.04 L1356.65 1562.63 Q1354.65 1565.88 1351.66 1567.44 Q1348.66 1568.97 1344.34 1568.97 Q1338.86 1568.97 1335.61 1565.91 Q1332.4 1562.82 1332.4 1557.67 Q1332.4 1551.65 1336.41 1548.6 Q1340.45 1545.54 1348.44 1545.54 L1356.65 1545.54 L1356.65 1544.97 Q1356.65 1540.93 1353.98 1538.73 Q1351.34 1536.5 1346.53 1536.5 Q1343.48 1536.5 1340.58 1537.23 Q1337.68 1537.97 1335.01 1539.43 L1335.01 1534.02 Q1338.22 1532.78 1341.25 1532.17 Q1344.27 1531.54 1347.14 1531.54 Q1354.87 1531.54 1358.69 1535.55 Q1362.51 1539.56 1362.51 1547.71 Z" fill="#000000" fill-rule="nonzero" fill-opacity="1" /><path clip-path="url(#clip600)" d="M1398.03 1537.81 L1398.03 1518.52 L1403.89 1518.52 L1403.89 1568.04 L1398.03 1568.04 L1398.03 1562.7 Q1396.18 1565.88 1393.35 1567.44 Q1390.55 1568.97 1386.6 1568.97 Q1380.14 1568.97 1376.07 1563.81 Q1372.03 1558.65 1372.03 1550.25 Q1372.03 1541.85 1376.07 1536.69 Q1380.14 1531.54 1386.6 1531.54 Q1390.55 1531.54 1393.35 1533.1 Q1396.18 1534.62 1398.03 1537.81 M1378.07 1550.25 Q1378.07 1556.71 1380.72 1560.4 Q1383.39 1564.07 1388.04 1564.07 Q1392.68 1564.07 1395.36 1560.4 Q1398.03 1556.71 1398.03 1550.25 Q1398.03 1543.79 1395.36 1540.13 Q1392.68 1536.44 1388.04 1536.44 Q1383.39 1536.44 1380.72 1540.13 Q1378.07 1543.79 1378.07 1550.25 Z" fill="#000000" fill-rule="nonzero" fill-opacity="1" /><path clip-path="url(#clip600)" d="M1465.41 1522.08 L1465.41 1528.35 Q1461.75 1526.6 1458.5 1525.74 Q1455.26 1524.88 1452.23 1524.88 Q1446.98 1524.88 1444.12 1526.92 Q1441.29 1528.96 1441.29 1532.71 Q1441.29 1535.87 1443.16 1537.49 Q1445.07 1539.08 1450.36 1540.07 L1454.24 1540.86 Q1461.43 1542.23 1464.84 1545.7 Q1468.28 1549.14 1468.28 1554.93 Q1468.28 1561.84 1463.63 1565.4 Q1459.01 1568.97 1450.07 1568.97 Q1446.7 1568.97 1442.88 1568.2 Q1439.09 1567.44 1435.02 1565.94 L1435.02 1559.32 Q1438.93 1561.52 1442.69 1562.63 Q1446.44 1563.75 1450.07 1563.75 Q1455.58 1563.75 1458.57 1561.58 Q1461.56 1559.42 1461.56 1555.41 Q1461.56 1551.91 1459.4 1549.93 Q1457.26 1547.96 1452.36 1546.97 L1448.45 1546.21 Q1441.25 1544.78 1438.04 1541.72 Q1434.82 1538.67 1434.82 1533.22 Q1434.82 1526.92 1439.25 1523.29 Q1443.7 1519.66 1451.5 1519.66 Q1454.84 1519.66 1458.31 1520.27 Q1461.78 1520.87 1465.41 1522.08 Z" fill="#000000" fill-rule="nonzero" fill-opacity="1" /><path clip-path="url(#clip600)" d="M1507.68 1546.53 L1507.68 1568.04 L1501.82 1568.04 L1501.82 1546.72 Q1501.82 1541.66 1499.85 1539.14 Q1497.88 1536.63 1493.93 1536.63 Q1489.19 1536.63 1486.45 1539.65 Q1483.71 1542.68 1483.71 1547.9 L1483.71 1568.04 L1477.82 1568.04 L1477.82 1518.52 L1483.71 1518.52 L1483.71 1537.93 Q1485.81 1534.72 1488.65 1533.13 Q1491.51 1531.54 1495.24 1531.54 Q1501.38 1531.54 1504.53 1535.36 Q1507.68 1539.14 1507.68 1546.53 Z" fill="#000000" fill-rule="nonzero" fill-opacity="1" /><path clip-path="url(#clip600)" d="M1549.85 1548.76 L1549.85 1551.62 L1522.93 1551.62 Q1523.31 1557.67 1526.55 1560.85 Q1529.83 1564 1535.66 1564 Q1539.03 1564 1542.18 1563.17 Q1545.36 1562.35 1548.48 1560.69 L1548.48 1566.23 Q1545.33 1567.57 1542.02 1568.27 Q1538.71 1568.97 1535.31 1568.97 Q1526.78 1568.97 1521.78 1564 Q1516.81 1559.04 1516.81 1550.57 Q1516.81 1541.82 1521.53 1536.69 Q1526.27 1531.54 1534.29 1531.54 Q1541.48 1531.54 1545.65 1536.18 Q1549.85 1540.8 1549.85 1548.76 M1544 1547.04 Q1543.93 1542.23 1541.29 1539.37 Q1538.68 1536.5 1534.35 1536.5 Q1529.45 1536.5 1526.49 1539.27 Q1523.56 1542.04 1523.12 1547.07 L1544 1547.04 Z" fill="#000000" fill-rule="nonzero" fill-opacity="1" /><path clip-path="url(#clip600)" d="M1582.92 1537.81 L1582.92 1518.52 L1588.78 1518.52 L1588.78 1568.04 L1582.92 1568.04 L1582.92 1562.7 Q1581.08 1565.88 1578.24 1567.44 Q1575.44 1568.97 1571.5 1568.97 Q1565.03 1568.97 1560.96 1563.81 Q1556.92 1558.65 1556.92 1550.25 Q1556.92 1541.85 1560.96 1536.69 Q1565.03 1531.54 1571.5 1531.54 Q1575.44 1531.54 1578.24 1533.1 Q1581.08 1534.62 1582.92 1537.81 M1562.97 1550.25 Q1562.97 1556.71 1565.61 1560.4 Q1568.28 1564.07 1572.93 1564.07 Q1577.58 1564.07 1580.25 1560.4 Q1582.92 1556.71 1582.92 1550.25 Q1582.92 1543.79 1580.25 1540.13 Q1577.58 1536.44 1572.93 1536.44 Q1568.28 1536.44 1565.61 1540.13 Q1562.97 1543.79 1562.97 1550.25 Z" fill="#000000" fill-rule="nonzero" fill-opacity="1" /><path clip-path="url(#clip600)" d="M1635.63 1518.58 Q1631.37 1525.9 1629.3 1533.06 Q1627.23 1540.23 1627.23 1547.58 Q1627.23 1554.93 1629.3 1562.16 Q1631.4 1569.35 1635.63 1576.64 L1630.54 1576.64 Q1625.76 1569.16 1623.38 1561.93 Q1621.02 1554.71 1621.02 1547.58 Q1621.02 1540.48 1623.38 1533.29 Q1625.73 1526.09 1630.54 1518.58 L1635.63 1518.58 Z" fill="#000000" fill-rule="nonzero" fill-opacity="1" /><path clip-path="url(#clip600)" d="M1646.77 1518.52 L1652.66 1518.52 L1652.66 1547.77 L1670.13 1532.4 L1677.61 1532.4 L1658.71 1549.07 L1678.41 1568.04 L1670.77 1568.04 L1652.66 1550.63 L1652.66 1568.04 L1646.77 1568.04 L1646.77 1518.52 Z" fill="#000000" fill-rule="nonzero" fill-opacity="1" /><path clip-path="url(#clip600)" d="M1680.76 1520.52 L1687.26 1520.52 L1697.25 1560.69 L1707.21 1520.52 L1714.44 1520.52 L1724.43 1560.69 L1734.39 1520.52 L1740.92 1520.52 L1728.98 1568.04 L1720.9 1568.04 L1710.87 1526.79 L1700.75 1568.04 L1692.67 1568.04 L1680.76 1520.52 Z" fill="#000000" fill-rule="nonzero" fill-opacity="1" /><path clip-path="url(#clip600)" d="M1748.27 1518.58 L1753.36 1518.58 Q1758.14 1526.09 1760.49 1533.29 Q1762.88 1540.48 1762.88 1547.58 Q1762.88 1554.71 1760.49 1561.93 Q1758.14 1569.16 1753.36 1576.64 L1748.27 1576.64 Q1752.51 1569.35 1754.57 1562.16 Q1756.67 1554.93 1756.67 1547.58 Q1756.67 1540.23 1754.57 1533.06 Q1752.51 1525.9 1748.27 1518.58 Z" fill="#000000" fill-rule="nonzero" fill-opacity="1" /><polyline clip-path="url(#clip600)" style="stroke:#000000; stroke-linecap:round; stroke-linejoin:round; stroke-width:4; stroke-opacity:1; fill:none" points="262.551,1423.18 262.551,123.472 "/>
<polyline clip-path="url(#clip600)" style="stroke:#000000; stroke-linecap:round; stroke-linejoin:round; stroke-width:4; stroke-opacity:1; fill:none" points="262.551,1303.95 281.449,1303.95 "/>
<polyline clip-path="url(#clip600)" style="stroke:#000000; stroke-linecap:round; stroke-linejoin:round; stroke-width:4; stroke-opacity:1; fill:none" points="262.551,1111.9 281.449,1111.9 "/>
<polyline clip-path="url(#clip600)" style="stroke:#000000; stroke-linecap:round; stroke-linejoin:round; stroke-width:4; stroke-opacity:1; fill:none" points="262.551,919.852 281.449,919.852 "/>
<polyline clip-path="url(#clip600)" style="stroke:#000000; stroke-linecap:round; stroke-linejoin:round; stroke-width:4; stroke-opacity:1; fill:none" points="262.551,727.803 281.449,727.803 "/>
<polyline clip-path="url(#clip600)" style="stroke:#000000; stroke-linecap:round; stroke-linejoin:round; stroke-width:4; stroke-opacity:1; fill:none" points="262.551,535.755 281.449,535.755 "/>
<polyline clip-path="url(#clip600)" style="stroke:#000000; stroke-linecap:round; stroke-linejoin:round; stroke-width:4; stroke-opacity:1; fill:none" points="262.551,343.706 281.449,343.706 "/>
<polyline clip-path="url(#clip600)" style="stroke:#000000; stroke-linecap:round; stroke-linejoin:round; stroke-width:4; stroke-opacity:1; fill:none" points="262.551,151.658 281.449,151.658 "/>
<path clip-path="url(#clip600)" d="M115.927 1317.29 L123.566 1317.29 L123.566 1290.93 L115.256 1292.59 L115.256 1288.34 L123.519 1286.67 L128.195 1286.67 L128.195 1317.29 L135.834 1317.29 L135.834 1321.23 L115.927 1321.23 L115.927 1317.29 Z" fill="#000000" fill-rule="nonzero" fill-opacity="1" /><path clip-path="url(#clip600)" d="M159.445 1302.59 Q162.802 1303.31 164.677 1305.58 Q166.575 1307.85 166.575 1311.18 Q166.575 1316.3 163.056 1319.1 Q159.538 1321.9 153.056 1321.9 Q150.88 1321.9 148.566 1321.46 Q146.274 1321.04 143.82 1320.19 L143.82 1315.67 Q145.765 1316.81 148.079 1317.39 Q150.394 1317.96 152.917 1317.96 Q157.315 1317.96 159.607 1316.23 Q161.922 1314.49 161.922 1311.18 Q161.922 1308.13 159.769 1306.41 Q157.64 1304.68 153.82 1304.68 L149.792 1304.68 L149.792 1300.84 L154.005 1300.84 Q157.454 1300.84 159.283 1299.47 Q161.112 1298.08 161.112 1295.49 Q161.112 1292.83 159.214 1291.41 Q157.339 1289.98 153.82 1289.98 Q151.899 1289.98 149.7 1290.4 Q147.501 1290.81 144.862 1291.69 L144.862 1287.53 Q147.524 1286.78 149.839 1286.41 Q152.177 1286.04 154.237 1286.04 Q159.561 1286.04 162.663 1288.47 Q165.765 1290.88 165.765 1295 Q165.765 1297.87 164.121 1299.86 Q162.477 1301.83 159.445 1302.59 Z" fill="#000000" fill-rule="nonzero" fill-opacity="1" /><path clip-path="url(#clip600)" d="M188.288 1290.74 L176.482 1309.19 L188.288 1309.19 L188.288 1290.74 M187.061 1286.67 L192.94 1286.67 L192.94 1309.19 L197.871 1309.19 L197.871 1313.08 L192.94 1313.08 L192.94 1321.23 L188.288 1321.23 L188.288 1313.08 L172.686 1313.08 L172.686 1308.57 L187.061 1286.67 Z" fill="#000000" fill-rule="nonzero" fill-opacity="1" /><path clip-path="url(#clip600)" d="M205.649 1286.67 L224.005 1286.67 L224.005 1290.6 L209.931 1290.6 L209.931 1299.08 Q210.949 1298.73 211.968 1298.57 Q212.986 1298.38 214.005 1298.38 Q219.792 1298.38 223.172 1301.55 Q226.551 1304.72 226.551 1310.14 Q226.551 1315.72 223.079 1318.82 Q219.607 1321.9 213.287 1321.9 Q211.111 1321.9 208.843 1321.53 Q206.598 1321.16 204.19 1320.42 L204.19 1315.72 Q206.274 1316.85 208.496 1317.41 Q210.718 1317.96 213.195 1317.96 Q217.199 1317.96 219.537 1315.86 Q221.875 1313.75 221.875 1310.14 Q221.875 1306.53 219.537 1304.42 Q217.199 1302.32 213.195 1302.32 Q211.32 1302.32 209.445 1302.73 Q207.593 1303.15 205.649 1304.03 L205.649 1286.67 Z" fill="#000000" fill-rule="nonzero" fill-opacity="1" /><path clip-path="url(#clip600)" d="M114.931 1125.25 L122.57 1125.25 L122.57 1098.88 L114.26 1100.55 L114.26 1096.29 L122.524 1094.62 L127.2 1094.62 L127.2 1125.25 L134.839 1125.25 L134.839 1129.18 L114.931 1129.18 L114.931 1125.25 Z" fill="#000000" fill-rule="nonzero" fill-opacity="1" /><path clip-path="url(#clip600)" d="M158.45 1110.55 Q161.806 1111.26 163.681 1113.53 Q165.579 1115.8 165.579 1119.13 Q165.579 1124.25 162.061 1127.05 Q158.542 1129.85 152.061 1129.85 Q149.885 1129.85 147.57 1129.41 Q145.279 1129 142.825 1128.14 L142.825 1123.62 Q144.769 1124.76 147.084 1125.34 Q149.399 1125.92 151.922 1125.92 Q156.32 1125.92 158.612 1124.18 Q160.927 1122.44 160.927 1119.13 Q160.927 1116.08 158.774 1114.37 Q156.644 1112.63 152.825 1112.63 L148.797 1112.63 L148.797 1108.79 L153.01 1108.79 Q156.459 1108.79 158.288 1107.42 Q160.116 1106.03 160.116 1103.44 Q160.116 1100.78 158.218 1099.37 Q156.343 1097.93 152.825 1097.93 Q150.903 1097.93 148.704 1098.35 Q146.505 1098.76 143.866 1099.64 L143.866 1095.48 Q146.529 1094.74 148.843 1094.37 Q151.181 1094 153.241 1094 Q158.565 1094 161.667 1096.43 Q164.769 1098.83 164.769 1102.95 Q164.769 1105.82 163.126 1107.81 Q161.482 1109.78 158.45 1110.55 Z" fill="#000000" fill-rule="nonzero" fill-opacity="1" /><path clip-path="url(#clip600)" d="M174.491 1094.62 L192.848 1094.62 L192.848 1098.56 L178.774 1098.56 L178.774 1107.03 Q179.792 1106.68 180.811 1106.52 Q181.829 1106.33 182.848 1106.33 Q188.635 1106.33 192.014 1109.5 Q195.394 1112.68 195.394 1118.09 Q195.394 1123.67 191.922 1126.77 Q188.45 1129.85 182.13 1129.85 Q179.954 1129.85 177.686 1129.48 Q175.44 1129.11 173.033 1128.37 L173.033 1123.67 Q175.116 1124.81 177.339 1125.36 Q179.561 1125.92 182.038 1125.92 Q186.042 1125.92 188.38 1123.81 Q190.718 1121.7 190.718 1118.09 Q190.718 1114.48 188.38 1112.37 Q186.042 1110.27 182.038 1110.27 Q180.163 1110.27 178.288 1110.68 Q176.436 1111.1 174.491 1111.98 L174.491 1094.62 Z" fill="#000000" fill-rule="nonzero" fill-opacity="1" /><path clip-path="url(#clip600)" d="M214.607 1097.7 Q210.996 1097.7 209.167 1101.26 Q207.362 1104.81 207.362 1111.93 Q207.362 1119.04 209.167 1122.61 Q210.996 1126.15 214.607 1126.15 Q218.241 1126.15 220.047 1122.61 Q221.875 1119.04 221.875 1111.93 Q221.875 1104.81 220.047 1101.26 Q218.241 1097.7 214.607 1097.7 M214.607 1094 Q220.417 1094 223.473 1098.6 Q226.551 1103.19 226.551 1111.93 Q226.551 1120.66 223.473 1125.27 Q220.417 1129.85 214.607 1129.85 Q208.797 1129.85 205.718 1125.27 Q202.662 1120.66 202.662 1111.93 Q202.662 1103.19 205.718 1098.6 Q208.797 1094 214.607 1094 Z" fill="#000000" fill-rule="nonzero" fill-opacity="1" /><path clip-path="url(#clip600)" d="M115.927 933.197 L123.566 933.197 L123.566 906.831 L115.256 908.498 L115.256 904.238 L123.519 902.572 L128.195 902.572 L128.195 933.197 L135.834 933.197 L135.834 937.132 L115.927 937.132 L115.927 933.197 Z" fill="#000000" fill-rule="nonzero" fill-opacity="1" /><path clip-path="url(#clip600)" d="M159.445 918.498 Q162.802 919.215 164.677 921.484 Q166.575 923.752 166.575 927.085 Q166.575 932.201 163.056 935.002 Q159.538 937.803 153.056 937.803 Q150.88 937.803 148.566 937.363 Q146.274 936.947 143.82 936.09 L143.82 931.576 Q145.765 932.71 148.079 933.289 Q150.394 933.868 152.917 933.868 Q157.315 933.868 159.607 932.132 Q161.922 930.396 161.922 927.085 Q161.922 924.03 159.769 922.317 Q157.64 920.581 153.82 920.581 L149.792 920.581 L149.792 916.738 L154.005 916.738 Q157.454 916.738 159.283 915.373 Q161.112 913.984 161.112 911.391 Q161.112 908.729 159.214 907.317 Q157.339 905.882 153.82 905.882 Q151.899 905.882 149.7 906.299 Q147.501 906.715 144.862 907.595 L144.862 903.428 Q147.524 902.687 149.839 902.317 Q152.177 901.947 154.237 901.947 Q159.561 901.947 162.663 904.377 Q165.765 906.785 165.765 910.905 Q165.765 913.775 164.121 915.766 Q162.477 917.734 159.445 918.498 Z" fill="#000000" fill-rule="nonzero" fill-opacity="1" /><path clip-path="url(#clip600)" d="M175.487 902.572 L193.843 902.572 L193.843 906.507 L179.769 906.507 L179.769 914.979 Q180.788 914.632 181.806 914.47 Q182.825 914.285 183.843 914.285 Q189.63 914.285 193.01 917.456 Q196.389 920.627 196.389 926.044 Q196.389 931.623 192.917 934.724 Q189.445 937.803 183.126 937.803 Q180.95 937.803 178.681 937.433 Q176.436 937.062 174.028 936.322 L174.028 931.623 Q176.112 932.757 178.334 933.312 Q180.556 933.868 183.033 933.868 Q187.038 933.868 189.375 931.761 Q191.713 929.655 191.713 926.044 Q191.713 922.433 189.375 920.326 Q187.038 918.22 183.033 918.22 Q181.158 918.22 179.283 918.636 Q177.431 919.053 175.487 919.933 L175.487 902.572 Z" fill="#000000" fill-rule="nonzero" fill-opacity="1" /><path clip-path="url(#clip600)" d="M205.649 902.572 L224.005 902.572 L224.005 906.507 L209.931 906.507 L209.931 914.979 Q210.949 914.632 211.968 914.47 Q212.986 914.285 214.005 914.285 Q219.792 914.285 223.172 917.456 Q226.551 920.627 226.551 926.044 Q226.551 931.623 223.079 934.724 Q219.607 937.803 213.287 937.803 Q211.111 937.803 208.843 937.433 Q206.598 937.062 204.19 936.322 L204.19 931.623 Q206.274 932.757 208.496 933.312 Q210.718 933.868 213.195 933.868 Q217.199 933.868 219.537 931.761 Q221.875 929.655 221.875 926.044 Q221.875 922.433 219.537 920.326 Q217.199 918.22 213.195 918.22 Q211.32 918.22 209.445 918.636 Q207.593 919.053 205.649 919.933 L205.649 902.572 Z" fill="#000000" fill-rule="nonzero" fill-opacity="1" /><path clip-path="url(#clip600)" d="M114.931 741.148 L122.57 741.148 L122.57 714.782 L114.26 716.449 L114.26 712.19 L122.524 710.523 L127.2 710.523 L127.2 741.148 L134.839 741.148 L134.839 745.083 L114.931 745.083 L114.931 741.148 Z" fill="#000000" fill-rule="nonzero" fill-opacity="1" /><path clip-path="url(#clip600)" d="M158.45 726.449 Q161.806 727.167 163.681 729.435 Q165.579 731.704 165.579 735.037 Q165.579 740.153 162.061 742.954 Q158.542 745.755 152.061 745.755 Q149.885 745.755 147.57 745.315 Q145.279 744.898 142.825 744.042 L142.825 739.528 Q144.769 740.662 147.084 741.241 Q149.399 741.819 151.922 741.819 Q156.32 741.819 158.612 740.083 Q160.927 738.347 160.927 735.037 Q160.927 731.981 158.774 730.268 Q156.644 728.532 152.825 728.532 L148.797 728.532 L148.797 724.69 L153.01 724.69 Q156.459 724.69 158.288 723.324 Q160.116 721.935 160.116 719.343 Q160.116 716.681 158.218 715.269 Q156.343 713.833 152.825 713.833 Q150.903 713.833 148.704 714.25 Q146.505 714.667 143.866 715.546 L143.866 711.38 Q146.529 710.639 148.843 710.269 Q151.181 709.898 153.241 709.898 Q158.565 709.898 161.667 712.329 Q164.769 714.736 164.769 718.857 Q164.769 721.727 163.126 723.718 Q161.482 725.685 158.45 726.449 Z" fill="#000000" fill-rule="nonzero" fill-opacity="1" /><path clip-path="url(#clip600)" d="M185.024 725.94 Q181.876 725.94 180.024 728.093 Q178.195 730.245 178.195 733.995 Q178.195 737.722 180.024 739.898 Q181.876 742.051 185.024 742.051 Q188.172 742.051 190 739.898 Q191.852 737.722 191.852 733.995 Q191.852 730.245 190 728.093 Q188.172 725.94 185.024 725.94 M194.306 711.287 L194.306 715.546 Q192.547 714.713 190.741 714.273 Q188.959 713.833 187.2 713.833 Q182.57 713.833 180.116 716.958 Q177.686 720.083 177.339 726.403 Q178.704 724.389 180.764 723.324 Q182.825 722.236 185.301 722.236 Q190.51 722.236 193.519 725.407 Q196.551 728.556 196.551 733.995 Q196.551 739.319 193.403 742.537 Q190.255 745.755 185.024 745.755 Q179.028 745.755 175.857 741.171 Q172.686 736.565 172.686 727.838 Q172.686 719.644 176.575 714.782 Q180.464 709.898 187.014 709.898 Q188.774 709.898 190.556 710.245 Q192.362 710.593 194.306 711.287 Z" fill="#000000" fill-rule="nonzero" fill-opacity="1" /><path clip-path="url(#clip600)" d="M214.607 713.602 Q210.996 713.602 209.167 717.167 Q207.362 720.708 207.362 727.838 Q207.362 734.944 209.167 738.509 Q210.996 742.051 214.607 742.051 Q218.241 742.051 220.047 738.509 Q221.875 734.944 221.875 727.838 Q221.875 720.708 220.047 717.167 Q218.241 713.602 214.607 713.602 M214.607 709.898 Q220.417 709.898 223.473 714.505 Q226.551 719.088 226.551 727.838 Q226.551 736.565 223.473 741.171 Q220.417 745.755 214.607 745.755 Q208.797 745.755 205.718 741.171 Q202.662 736.565 202.662 727.838 Q202.662 719.088 205.718 714.505 Q208.797 709.898 214.607 709.898 Z" fill="#000000" fill-rule="nonzero" fill-opacity="1" /><path clip-path="url(#clip600)" d="M115.927 549.1 L123.566 549.1 L123.566 522.734 L115.256 524.401 L115.256 520.141 L123.519 518.475 L128.195 518.475 L128.195 549.1 L135.834 549.1 L135.834 553.035 L115.927 553.035 L115.927 549.1 Z" fill="#000000" fill-rule="nonzero" fill-opacity="1" /><path clip-path="url(#clip600)" d="M159.445 534.401 Q162.802 535.118 164.677 537.387 Q166.575 539.655 166.575 542.988 Q166.575 548.104 163.056 550.905 Q159.538 553.706 153.056 553.706 Q150.88 553.706 148.566 553.266 Q146.274 552.85 143.82 551.993 L143.82 547.479 Q145.765 548.613 148.079 549.192 Q150.394 549.771 152.917 549.771 Q157.315 549.771 159.607 548.035 Q161.922 546.299 161.922 542.988 Q161.922 539.933 159.769 538.22 Q157.64 536.484 153.82 536.484 L149.792 536.484 L149.792 532.641 L154.005 532.641 Q157.454 532.641 159.283 531.276 Q161.112 529.887 161.112 527.294 Q161.112 524.632 159.214 523.22 Q157.339 521.785 153.82 521.785 Q151.899 521.785 149.7 522.202 Q147.501 522.618 144.862 523.498 L144.862 519.331 Q147.524 518.59 149.839 518.22 Q152.177 517.85 154.237 517.85 Q159.561 517.85 162.663 520.28 Q165.765 522.688 165.765 526.808 Q165.765 529.678 164.121 531.669 Q162.477 533.637 159.445 534.401 Z" fill="#000000" fill-rule="nonzero" fill-opacity="1" /><path clip-path="url(#clip600)" d="M186.019 533.891 Q182.871 533.891 181.019 536.044 Q179.19 538.197 179.19 541.947 Q179.19 545.674 181.019 547.85 Q182.871 550.002 186.019 550.002 Q189.167 550.002 190.996 547.85 Q192.848 545.674 192.848 541.947 Q192.848 538.197 190.996 536.044 Q189.167 533.891 186.019 533.891 M195.301 519.239 L195.301 523.498 Q193.542 522.665 191.737 522.225 Q189.954 521.785 188.195 521.785 Q183.565 521.785 181.112 524.91 Q178.681 528.035 178.334 534.354 Q179.7 532.34 181.76 531.276 Q183.82 530.188 186.297 530.188 Q191.505 530.188 194.514 533.359 Q197.547 536.507 197.547 541.947 Q197.547 547.271 194.399 550.488 Q191.25 553.706 186.019 553.706 Q180.024 553.706 176.852 549.123 Q173.681 544.516 173.681 535.789 Q173.681 527.595 177.57 522.734 Q181.459 517.85 188.01 517.85 Q189.769 517.85 191.551 518.197 Q193.357 518.544 195.301 519.239 Z" fill="#000000" fill-rule="nonzero" fill-opacity="1" /><path clip-path="url(#clip600)" d="M205.649 518.475 L224.005 518.475 L224.005 522.41 L209.931 522.41 L209.931 530.882 Q210.949 530.535 211.968 530.373 Q212.986 530.188 214.005 530.188 Q219.792 530.188 223.172 533.359 Q226.551 536.53 226.551 541.947 Q226.551 547.525 223.079 550.627 Q219.607 553.706 213.287 553.706 Q211.111 553.706 208.843 553.336 Q206.598 552.965 204.19 552.225 L204.19 547.525 Q206.274 548.66 208.496 549.215 Q210.718 549.771 213.195 549.771 Q217.199 549.771 219.537 547.664 Q221.875 545.558 221.875 541.947 Q221.875 538.336 219.537 536.229 Q217.199 534.123 213.195 534.123 Q211.32 534.123 209.445 534.539 Q207.593 534.956 205.649 535.836 L205.649 518.475 Z" fill="#000000" fill-rule="nonzero" fill-opacity="1" /><path clip-path="url(#clip600)" d="M114.931 357.051 L122.57 357.051 L122.57 330.685 L114.26 332.352 L114.26 328.093 L122.524 326.426 L127.2 326.426 L127.2 357.051 L134.839 357.051 L134.839 360.986 L114.931 360.986 L114.931 357.051 Z" fill="#000000" fill-rule="nonzero" fill-opacity="1" /><path clip-path="url(#clip600)" d="M158.45 342.352 Q161.806 343.07 163.681 345.338 Q165.579 347.607 165.579 350.94 Q165.579 356.056 162.061 358.857 Q158.542 361.658 152.061 361.658 Q149.885 361.658 147.57 361.218 Q145.279 360.801 142.825 359.945 L142.825 355.431 Q144.769 356.565 147.084 357.144 Q149.399 357.722 151.922 357.722 Q156.32 357.722 158.612 355.986 Q160.927 354.25 160.927 350.94 Q160.927 347.884 158.774 346.171 Q156.644 344.435 152.825 344.435 L148.797 344.435 L148.797 340.593 L153.01 340.593 Q156.459 340.593 158.288 339.227 Q160.116 337.838 160.116 335.246 Q160.116 332.584 158.218 331.172 Q156.343 329.736 152.825 329.736 Q150.903 329.736 148.704 330.153 Q146.505 330.57 143.866 331.449 L143.866 327.283 Q146.529 326.542 148.843 326.172 Q151.181 325.801 153.241 325.801 Q158.565 325.801 161.667 328.232 Q164.769 330.639 164.769 334.76 Q164.769 337.63 163.126 339.621 Q161.482 341.588 158.45 342.352 Z" fill="#000000" fill-rule="nonzero" fill-opacity="1" /><path clip-path="url(#clip600)" d="M173.264 326.426 L195.487 326.426 L195.487 328.417 L182.94 360.986 L178.056 360.986 L189.862 330.361 L173.264 330.361 L173.264 326.426 Z" fill="#000000" fill-rule="nonzero" fill-opacity="1" /><path clip-path="url(#clip600)" d="M214.607 329.505 Q210.996 329.505 209.167 333.07 Q207.362 336.611 207.362 343.741 Q207.362 350.847 209.167 354.412 Q210.996 357.954 214.607 357.954 Q218.241 357.954 220.047 354.412 Q221.875 350.847 221.875 343.741 Q221.875 336.611 220.047 333.07 Q218.241 329.505 214.607 329.505 M214.607 325.801 Q220.417 325.801 223.473 330.408 Q226.551 334.991 226.551 343.741 Q226.551 352.468 223.473 357.074 Q220.417 361.658 214.607 361.658 Q208.797 361.658 205.718 357.074 Q202.662 352.468 202.662 343.741 Q202.662 334.991 205.718 330.408 Q208.797 325.801 214.607 325.801 Z" fill="#000000" fill-rule="nonzero" fill-opacity="1" /><path clip-path="url(#clip600)" d="M115.927 165.003 L123.566 165.003 L123.566 138.637 L115.256 140.304 L115.256 136.044 L123.519 134.378 L128.195 134.378 L128.195 165.003 L135.834 165.003 L135.834 168.938 L115.927 168.938 L115.927 165.003 Z" fill="#000000" fill-rule="nonzero" fill-opacity="1" /><path clip-path="url(#clip600)" d="M159.445 150.304 Q162.802 151.021 164.677 153.29 Q166.575 155.558 166.575 158.891 Q166.575 164.007 163.056 166.808 Q159.538 169.609 153.056 169.609 Q150.88 169.609 148.566 169.169 Q146.274 168.753 143.82 167.896 L143.82 163.382 Q145.765 164.516 148.079 165.095 Q150.394 165.674 152.917 165.674 Q157.315 165.674 159.607 163.938 Q161.922 162.202 161.922 158.891 Q161.922 155.836 159.769 154.123 Q157.64 152.387 153.82 152.387 L149.792 152.387 L149.792 148.544 L154.005 148.544 Q157.454 148.544 159.283 147.179 Q161.112 145.79 161.112 143.197 Q161.112 140.535 159.214 139.123 Q157.339 137.688 153.82 137.688 Q151.899 137.688 149.7 138.105 Q147.501 138.521 144.862 139.401 L144.862 135.234 Q147.524 134.493 149.839 134.123 Q152.177 133.753 154.237 133.753 Q159.561 133.753 162.663 136.183 Q165.765 138.591 165.765 142.711 Q165.765 145.581 164.121 147.572 Q162.477 149.54 159.445 150.304 Z" fill="#000000" fill-rule="nonzero" fill-opacity="1" /><path clip-path="url(#clip600)" d="M174.26 134.378 L196.482 134.378 L196.482 136.368 L183.936 168.938 L179.051 168.938 L190.857 138.313 L174.26 138.313 L174.26 134.378 Z" fill="#000000" fill-rule="nonzero" fill-opacity="1" /><path clip-path="url(#clip600)" d="M205.649 134.378 L224.005 134.378 L224.005 138.313 L209.931 138.313 L209.931 146.785 Q210.949 146.438 211.968 146.276 Q212.986 146.091 214.005 146.091 Q219.792 146.091 223.172 149.262 Q226.551 152.433 226.551 157.85 Q226.551 163.428 223.079 166.53 Q219.607 169.609 213.287 169.609 Q211.111 169.609 208.843 169.239 Q206.598 168.868 204.19 168.128 L204.19 163.428 Q206.274 164.563 208.496 165.118 Q210.718 165.674 213.195 165.674 Q217.199 165.674 219.537 163.567 Q221.875 161.461 221.875 157.85 Q221.875 154.239 219.537 152.132 Q217.199 150.026 213.195 150.026 Q211.32 150.026 209.445 150.442 Q207.593 150.859 205.649 151.739 L205.649 134.378 Z" fill="#000000" fill-rule="nonzero" fill-opacity="1" /><path clip-path="url(#clip600)" d="M16.4842 1229.97 L16.4842 1223.51 L45.3526 1223.51 Q52.9915 1223.51 56.3653 1220.74 Q59.7073 1217.97 59.7073 1211.76 Q59.7073 1205.59 56.3653 1202.82 Q52.9915 1200.05 45.3526 1200.05 L16.4842 1200.05 L16.4842 1193.59 L46.1484 1193.59 Q55.4423 1193.59 60.1847 1198.21 Q64.9272 1202.79 64.9272 1211.76 Q64.9272 1220.77 60.1847 1225.39 Q55.4423 1229.97 46.1484 1229.97 L16.4842 1229.97 Z" fill="#000000" fill-rule="nonzero" fill-opacity="1" /><path clip-path="url(#clip600)" d="M58.657 1176.12 L77.5631 1176.12 L77.5631 1182 L28.3562 1182 L28.3562 1176.12 L33.7671 1176.12 Q30.5842 1174.27 29.0564 1171.47 Q27.4968 1168.64 27.4968 1164.72 Q27.4968 1158.23 32.6531 1154.19 Q37.8093 1150.11 46.212 1150.11 Q54.6147 1150.11 59.771 1154.19 Q64.9272 1158.23 64.9272 1164.72 Q64.9272 1168.64 63.3994 1171.47 Q61.8398 1174.27 58.657 1176.12 M46.212 1156.19 Q39.7508 1156.19 36.0905 1158.87 Q32.3984 1161.51 32.3984 1166.15 Q32.3984 1170.8 36.0905 1173.47 Q39.7508 1176.12 46.212 1176.12 Q52.6732 1176.12 56.3653 1173.47 Q60.0256 1170.8 60.0256 1166.15 Q60.0256 1161.51 56.3653 1158.87 Q52.6732 1156.19 46.212 1156.19 Z" fill="#000000" fill-rule="nonzero" fill-opacity="1" /><path clip-path="url(#clip600)" d="M58.657 1134.74 L77.5631 1134.74 L77.5631 1140.63 L28.3562 1140.63 L28.3562 1134.74 L33.7671 1134.74 Q30.5842 1132.89 29.0564 1130.09 Q27.4968 1127.26 27.4968 1123.34 Q27.4968 1116.85 32.6531 1112.81 Q37.8093 1108.74 46.212 1108.74 Q54.6147 1108.74 59.771 1112.81 Q64.9272 1116.85 64.9272 1123.34 Q64.9272 1127.26 63.3994 1130.09 Q61.8398 1132.89 58.657 1134.74 M46.212 1114.81 Q39.7508 1114.81 36.0905 1117.49 Q32.3984 1120.13 32.3984 1124.78 Q32.3984 1129.42 36.0905 1132.1 Q39.7508 1134.74 46.212 1134.74 Q52.6732 1134.74 56.3653 1132.1 Q60.0256 1129.42 60.0256 1124.78 Q60.0256 1120.13 56.3653 1117.49 Q52.6732 1114.81 46.212 1114.81 Z" fill="#000000" fill-rule="nonzero" fill-opacity="1" /><path clip-path="url(#clip600)" d="M44.7161 1068.54 L47.5806 1068.54 L47.5806 1095.46 Q53.6281 1095.08 56.8109 1091.83 Q59.9619 1088.56 59.9619 1082.73 Q59.9619 1079.36 59.1344 1076.21 Q58.3069 1073.02 56.6518 1069.9 L62.1899 1069.9 Q63.5267 1073.06 64.227 1076.37 Q64.9272 1079.68 64.9272 1083.08 Q64.9272 1091.61 59.9619 1096.61 Q54.9967 1101.57 46.5303 1101.57 Q37.7774 1101.57 32.6531 1096.86 Q27.4968 1092.12 27.4968 1084.1 Q27.4968 1076.91 32.1438 1072.74 Q36.7589 1068.54 44.7161 1068.54 M42.9973 1074.39 Q38.1912 1074.46 35.3266 1077.1 Q32.4621 1079.71 32.4621 1084.04 Q32.4621 1088.94 35.2312 1091.9 Q38.0002 1094.83 43.0292 1095.27 L42.9973 1074.39 Z" fill="#000000" fill-rule="nonzero" fill-opacity="1" /><path clip-path="url(#clip600)" d="M33.8307 1038.27 Q33.2578 1039.25 33.0032 1040.43 Q32.7167 1041.58 32.7167 1042.98 Q32.7167 1047.94 35.9632 1050.62 Q39.1779 1053.26 45.2253 1053.26 L64.0042 1053.26 L64.0042 1059.15 L28.3562 1059.15 L28.3562 1053.26 L33.8944 1053.26 Q30.6479 1051.41 29.0883 1048.45 Q27.4968 1045.49 27.4968 1041.26 Q27.4968 1040.65 27.5923 1039.92 Q27.656 1039.19 27.8151 1038.3 L33.8307 1038.27 Z" fill="#000000" fill-rule="nonzero" fill-opacity="1" /><path clip-path="url(#clip600)" d="M43.5384 1039.25 L43.5384 1022.1 L48.7583 1022.1 L48.7583 1039.25 L43.5384 1039.25 Z" fill="#000000" fill-rule="nonzero" fill-opacity="1" /><path clip-path="url(#clip600)" d="M16.4842 1012.52 L16.4842 1006.09 L58.5933 1006.09 L58.5933 982.949 L64.0042 982.949 L64.0042 1012.52 L16.4842 1012.52 Z" fill="#000000" fill-rule="nonzero" fill-opacity="1" /><path clip-path="url(#clip600)" d="M44.7161 947.11 L47.5806 947.11 L47.5806 974.037 Q53.6281 973.655 56.8109 970.408 Q59.9619 967.13 59.9619 961.305 Q59.9619 957.931 59.1344 954.78 Q58.3069 951.598 56.6518 948.478 L62.1899 948.478 Q63.5267 951.629 64.227 954.94 Q64.9272 958.25 64.9272 961.655 Q64.9272 970.185 59.9619 975.183 Q54.9967 980.148 46.5303 980.148 Q37.7774 980.148 32.6531 975.437 Q27.4968 970.695 27.4968 962.674 Q27.4968 955.481 32.1438 951.311 Q36.7589 947.11 44.7161 947.11 M42.9973 952.966 Q38.1912 953.03 35.3266 955.672 Q32.4621 958.282 32.4621 962.61 Q32.4621 967.512 35.2312 970.472 Q38.0002 973.4 43.0292 973.846 L42.9973 952.966 Z" fill="#000000" fill-rule="nonzero" fill-opacity="1" /><path clip-path="url(#clip600)" d="M28.3562 941.699 L28.3562 935.492 L58.275 924.352 L28.3562 913.212 L28.3562 907.006 L64.0042 920.374 L64.0042 928.331 L28.3562 941.699 Z" fill="#000000" fill-rule="nonzero" fill-opacity="1" /><path clip-path="url(#clip600)" d="M44.7161 868.43 L47.5806 868.43 L47.5806 895.357 Q53.6281 894.975 56.8109 891.728 Q59.9619 888.45 59.9619 882.625 Q59.9619 879.251 59.1344 876.1 Q58.3069 872.917 56.6518 869.798 L62.1899 869.798 Q63.5267 872.949 64.227 876.259 Q64.9272 879.57 64.9272 882.975 Q64.9272 891.505 59.9619 896.502 Q54.9967 901.468 46.5303 901.468 Q37.7774 901.468 32.6531 896.757 Q27.4968 892.015 27.4968 883.994 Q27.4968 876.801 32.1438 872.631 Q36.7589 868.43 44.7161 868.43 M42.9973 874.286 Q38.1912 874.35 35.3266 876.992 Q32.4621 879.601 32.4621 883.93 Q32.4621 888.832 35.2312 891.792 Q38.0002 894.72 43.0292 895.166 L42.9973 874.286 Z" fill="#000000" fill-rule="nonzero" fill-opacity="1" /><path clip-path="url(#clip600)" d="M14.479 858.817 L14.479 852.961 L64.0042 852.961 L64.0042 858.817 L14.479 858.817 Z" fill="#000000" fill-rule="nonzero" fill-opacity="1" /><path clip-path="url(#clip600)" d="M16.4842 819.732 L16.4842 813.303 L58.5933 813.303 L58.5933 790.163 L64.0042 790.163 L64.0042 819.732 L16.4842 819.732 Z" fill="#000000" fill-rule="nonzero" fill-opacity="1" /><path clip-path="url(#clip600)" d="M32.4621 771.003 Q32.4621 775.713 36.1542 778.45 Q39.8145 781.188 46.212 781.188 Q52.6095 781.188 56.3017 778.482 Q59.9619 775.745 59.9619 771.003 Q59.9619 766.324 56.2698 763.586 Q52.5777 760.849 46.212 760.849 Q39.8781 760.849 36.186 763.586 Q32.4621 766.324 32.4621 771.003 M27.4968 771.003 Q27.4968 763.364 32.4621 759.003 Q37.4273 754.643 46.212 754.643 Q54.9649 754.643 59.9619 759.003 Q64.9272 763.364 64.9272 771.003 Q64.9272 778.673 59.9619 783.034 Q54.9649 787.362 46.212 787.362 Q37.4273 787.362 32.4621 783.034 Q27.4968 778.673 27.4968 771.003 Z" fill="#000000" fill-rule="nonzero" fill-opacity="1" /><path clip-path="url(#clip600)" d="M46.0847 728.734 Q46.0847 735.832 47.7079 738.569 Q49.3312 741.306 53.2461 741.306 Q56.3653 741.306 58.2114 739.269 Q60.0256 737.201 60.0256 733.668 Q60.0256 728.798 56.5881 725.87 Q53.1188 722.91 47.3897 722.91 L46.0847 722.91 L46.0847 728.734 M43.6657 717.053 L64.0042 717.053 L64.0042 722.91 L58.5933 722.91 Q61.8398 724.915 63.3994 727.907 Q64.9272 730.899 64.9272 735.227 Q64.9272 740.702 61.8716 743.948 Q58.7843 747.163 53.6281 747.163 Q47.6125 747.163 44.5569 743.153 Q41.5014 739.11 41.5014 731.121 L41.5014 722.91 L40.9285 722.91 Q36.8862 722.91 34.6901 725.583 Q32.4621 728.225 32.4621 733.031 Q32.4621 736.087 33.1941 738.983 Q33.9262 741.879 35.3903 744.553 L29.9795 744.553 Q28.7381 741.338 28.1334 738.315 Q27.4968 735.291 27.4968 732.426 Q27.4968 724.692 31.5072 720.873 Q35.5176 717.053 43.6657 717.053 Z" fill="#000000" fill-rule="nonzero" fill-opacity="1" /><path clip-path="url(#clip600)" d="M33.7671 681.532 L14.479 681.532 L14.479 675.676 L64.0042 675.676 L64.0042 681.532 L58.657 681.532 Q61.8398 683.379 63.3994 686.211 Q64.9272 689.012 64.9272 692.959 Q64.9272 699.42 59.771 703.494 Q54.6147 707.536 46.212 707.536 Q37.8093 707.536 32.6531 703.494 Q27.4968 699.42 27.4968 692.959 Q27.4968 689.012 29.0564 686.211 Q30.5842 683.379 33.7671 681.532 M46.212 701.489 Q52.6732 701.489 56.3653 698.847 Q60.0256 696.174 60.0256 691.527 Q60.0256 686.88 56.3653 684.206 Q52.6732 681.532 46.212 681.532 Q39.7508 681.532 36.0905 684.206 Q32.3984 686.88 32.3984 691.527 Q32.3984 696.174 36.0905 698.847 Q39.7508 701.489 46.212 701.489 Z" fill="#000000" fill-rule="nonzero" fill-opacity="1" /><path clip-path="url(#clip600)" d="M18.0438 614.151 L24.314 614.151 Q22.5634 617.812 21.704 621.058 Q20.8447 624.305 20.8447 627.329 Q20.8447 632.58 22.8817 635.445 Q24.9187 638.278 28.6745 638.278 Q31.8255 638.278 33.4488 636.4 Q35.0402 634.49 36.0269 629.206 L36.8226 625.323 Q38.1912 618.13 41.6605 614.724 Q45.098 611.287 50.8908 611.287 Q57.7976 611.287 61.3624 615.934 Q64.9272 620.549 64.9272 629.493 Q64.9272 632.867 64.1633 636.686 Q63.3994 640.474 61.9035 644.548 L55.2831 644.548 Q57.4793 640.633 58.5933 636.877 Q59.7073 633.121 59.7073 629.493 Q59.7073 623.987 57.543 620.995 Q55.3786 618.003 51.3682 618.003 Q47.8671 618.003 45.8937 620.167 Q43.9204 622.3 42.9337 627.201 L42.1698 631.116 Q40.7375 638.309 37.682 641.524 Q34.6264 644.739 29.1837 644.739 Q22.8817 644.739 19.2532 640.315 Q15.6248 635.859 15.6248 628.061 Q15.6248 624.719 16.2295 621.249 Q16.8343 617.78 18.0438 614.151 Z" fill="#000000" fill-rule="nonzero" fill-opacity="1" /><path clip-path="url(#clip600)" d="M42.4881 571.883 L64.0042 571.883 L64.0042 577.74 L42.679 577.74 Q37.6183 577.74 35.1038 579.713 Q32.5894 581.686 32.5894 585.633 Q32.5894 590.376 35.6131 593.113 Q38.6368 595.85 43.8567 595.85 L64.0042 595.85 L64.0042 601.738 L14.479 601.738 L14.479 595.85 L33.8944 595.85 Q30.6797 593.749 29.0883 590.917 Q27.4968 588.052 27.4968 584.328 Q27.4968 578.185 31.3163 575.034 Q35.1038 571.883 42.4881 571.883 Z" fill="#000000" fill-rule="nonzero" fill-opacity="1" /><path clip-path="url(#clip600)" d="M44.7161 529.71 L47.5806 529.71 L47.5806 556.637 Q53.6281 556.255 56.8109 553.009 Q59.9619 549.731 59.9619 543.906 Q59.9619 540.532 59.1344 537.381 Q58.3069 534.198 56.6518 531.079 L62.1899 531.079 Q63.5267 534.23 64.227 537.54 Q64.9272 540.85 64.9272 544.256 Q64.9272 552.786 59.9619 557.783 Q54.9967 562.748 46.5303 562.748 Q37.7774 562.748 32.6531 558.038 Q27.4968 553.295 27.4968 545.275 Q27.4968 538.081 32.1438 533.912 Q36.7589 529.71 44.7161 529.71 M42.9973 535.567 Q38.1912 535.63 35.3266 538.272 Q32.4621 540.882 32.4621 545.211 Q32.4621 550.112 35.2312 553.073 Q38.0002 556.001 43.0292 556.446 L42.9973 535.567 Z" fill="#000000" fill-rule="nonzero" fill-opacity="1" /><path clip-path="url(#clip600)" d="M33.7671 496.641 L14.479 496.641 L14.479 490.784 L64.0042 490.784 L64.0042 496.641 L58.657 496.641 Q61.8398 498.487 63.3994 501.319 Q64.9272 504.12 64.9272 508.067 Q64.9272 514.528 59.771 518.602 Q54.6147 522.644 46.212 522.644 Q37.8093 522.644 32.6531 518.602 Q27.4968 514.528 27.4968 508.067 Q27.4968 504.12 29.0564 501.319 Q30.5842 498.487 33.7671 496.641 M46.212 516.597 Q52.6732 516.597 56.3653 513.955 Q60.0256 511.282 60.0256 506.635 Q60.0256 501.988 56.3653 499.314 Q52.6732 496.641 46.212 496.641 Q39.7508 496.641 36.0905 499.314 Q32.3984 501.988 32.3984 506.635 Q32.3984 511.282 36.0905 513.955 Q39.7508 516.597 46.212 516.597 Z" fill="#000000" fill-rule="nonzero" fill-opacity="1" /><path clip-path="url(#clip600)" d="M14.5426 443.932 Q21.8632 448.198 29.0246 450.266 Q36.186 452.335 43.5384 452.335 Q50.8908 452.335 58.1159 450.266 Q65.3091 448.166 72.5979 443.932 L72.5979 449.025 Q65.1182 453.799 57.8931 456.186 Q50.668 458.542 43.5384 458.542 Q36.4406 458.542 29.2474 456.186 Q22.0542 453.831 14.5426 449.025 L14.5426 443.932 Z" fill="#000000" fill-rule="nonzero" fill-opacity="1" /><path clip-path="url(#clip600)" d="M14.479 432.793 L14.479 426.904 L43.7294 426.904 L28.3562 409.43 L28.3562 401.951 L45.0344 420.857 L64.0042 401.155 L64.0042 408.794 L46.5939 426.904 L64.0042 426.904 L64.0042 432.793 L14.479 432.793 Z" fill="#000000" fill-rule="nonzero" fill-opacity="1" /><path clip-path="url(#clip600)" d="M16.4842 398.8 L16.4842 392.307 L56.6518 382.312 L16.4842 372.35 L16.4842 365.125 L56.6518 355.131 L16.4842 345.169 L16.4842 338.644 L64.0042 350.579 L64.0042 358.664 L22.7544 368.69 L64.0042 378.811 L64.0042 386.896 L16.4842 398.8 Z" fill="#000000" fill-rule="nonzero" fill-opacity="1" /><path clip-path="url(#clip600)" d="M14.5426 331.291 L14.5426 326.199 Q22.0542 321.424 29.2474 319.069 Q36.4406 316.682 43.5384 316.682 Q50.668 316.682 57.8931 319.069 Q65.1182 321.424 72.5979 326.199 L72.5979 331.291 Q65.3091 327.058 58.1159 324.989 Q50.8908 322.889 43.5384 322.889 Q36.186 322.889 29.0246 324.989 Q21.8632 327.058 14.5426 331.291 Z" fill="#000000" fill-rule="nonzero" fill-opacity="1" /><path clip-path="url(#clip600)" d="M538.002 12.096 L546.185 12.096 L546.185 65.6895 L575.635 65.6895 L575.635 72.576 L538.002 72.576 L538.002 12.096 Z" fill="#000000" fill-rule="nonzero" fill-opacity="1" /><path clip-path="url(#clip600)" d="M600.021 32.4315 Q594.026 32.4315 590.542 37.1306 Q587.058 41.7891 587.058 49.9314 Q587.058 58.0738 590.502 62.7728 Q593.986 67.4314 600.021 67.4314 Q605.976 67.4314 609.46 62.7323 Q612.944 58.0333 612.944 49.9314 Q612.944 41.8701 609.46 37.1711 Q605.976 32.4315 600.021 32.4315 M600.021 26.1121 Q609.744 26.1121 615.293 32.4315 Q620.843 38.7509 620.843 49.9314 Q620.843 61.0714 615.293 67.4314 Q609.744 73.7508 600.021 73.7508 Q590.259 73.7508 584.709 67.4314 Q579.2 61.0714 579.2 49.9314 Q579.2 38.7509 584.709 32.4315 Q590.259 26.1121 600.021 26.1121 Z" fill="#000000" fill-rule="nonzero" fill-opacity="1" /><path clip-path="url(#clip600)" d="M653.817 49.7694 Q644.784 49.7694 641.3 51.8354 Q637.816 53.9013 637.816 58.8839 Q637.816 62.8538 640.409 65.2034 Q643.042 67.5124 647.538 67.5124 Q653.736 67.5124 657.463 63.1374 Q661.231 58.7219 661.231 51.4303 L661.231 49.7694 L653.817 49.7694 M668.684 46.6907 L668.684 72.576 L661.231 72.576 L661.231 65.6895 Q658.678 69.8214 654.871 71.8063 Q651.063 73.7508 645.554 73.7508 Q638.586 73.7508 634.454 69.8619 Q630.363 65.9325 630.363 59.3701 Q630.363 51.7138 635.467 47.825 Q640.611 43.9361 650.779 43.9361 L661.231 43.9361 L661.231 43.2069 Q661.231 38.0623 657.828 35.2672 Q654.466 32.4315 648.349 32.4315 Q644.46 32.4315 640.773 33.3632 Q637.087 34.295 633.684 36.1584 L633.684 29.2718 Q637.776 27.692 641.624 26.9223 Q645.473 26.1121 649.118 26.1121 Q658.962 26.1121 663.823 31.2163 Q668.684 36.3204 668.684 46.6907 Z" fill="#000000" fill-rule="nonzero" fill-opacity="1" /><path clip-path="url(#clip600)" d="M713.892 34.0924 L713.892 9.54393 L721.346 9.54393 L721.346 72.576 L713.892 72.576 L713.892 65.7705 Q711.543 69.8214 707.937 71.8063 Q704.373 73.7508 699.35 73.7508 Q691.126 73.7508 685.941 67.1883 Q680.796 60.6258 680.796 49.9314 Q680.796 39.2371 685.941 32.6746 Q691.126 26.1121 699.35 26.1121 Q704.373 26.1121 707.937 28.0971 Q711.543 30.0415 713.892 34.0924 M688.493 49.9314 Q688.493 58.1548 691.855 62.8538 Q695.258 67.5124 701.172 67.5124 Q707.087 67.5124 710.49 62.8538 Q713.892 58.1548 713.892 49.9314 Q713.892 41.7081 710.49 37.0496 Q707.087 32.3505 701.172 32.3505 Q695.258 32.3505 691.855 37.0496 Q688.493 41.7081 688.493 49.9314 Z" fill="#000000" fill-rule="nonzero" fill-opacity="1" /><path clip-path="url(#clip600)" d="M799.65 14.0809 L799.65 22.0612 Q794.991 19.8332 790.859 18.7395 Q786.728 17.6457 782.879 17.6457 Q776.195 17.6457 772.549 20.2383 Q768.944 22.8309 768.944 27.611 Q768.944 31.6214 771.334 33.6873 Q773.765 35.7128 780.489 36.9686 L785.431 37.9813 Q794.586 39.7232 798.921 44.1387 Q803.296 48.5136 803.296 55.8863 Q803.296 64.6767 797.381 69.2137 Q791.508 73.7508 780.125 73.7508 Q775.831 73.7508 770.97 72.7785 Q766.149 71.8063 760.964 69.9024 L760.964 61.4765 Q765.946 64.2716 770.726 65.6895 Q775.507 67.1073 780.125 67.1073 Q787.133 67.1073 790.94 64.3527 Q794.748 61.598 794.748 56.4939 Q794.748 52.0379 791.994 49.5264 Q789.28 47.0148 783.041 45.759 L778.059 44.7868 Q768.904 42.9639 764.812 39.075 Q760.721 35.1862 760.721 28.2591 Q760.721 20.2383 766.351 15.6203 Q772.023 11.0023 781.947 11.0023 Q786.201 11.0023 790.616 11.7719 Q795.032 12.5416 799.65 14.0809 Z" fill="#000000" fill-rule="nonzero" fill-opacity="1" /><path clip-path="url(#clip600)" d="M853.446 45.1919 L853.446 72.576 L845.992 72.576 L845.992 45.4349 Q845.992 38.994 843.481 35.7938 Q840.969 32.5936 835.946 32.5936 Q829.91 32.5936 826.426 36.4419 Q822.943 40.2903 822.943 46.9338 L822.943 72.576 L815.448 72.576 L815.448 9.54393 L822.943 9.54393 L822.943 34.2544 Q825.616 30.163 829.222 28.1376 Q832.867 26.1121 837.607 26.1121 Q845.425 26.1121 849.436 30.9732 Q853.446 35.7938 853.446 45.1919 Z" fill="#000000" fill-rule="nonzero" fill-opacity="1" /><path clip-path="url(#clip600)" d="M907.12 48.0275 L907.12 51.6733 L872.85 51.6733 Q873.336 59.3701 877.468 63.421 Q881.64 67.4314 889.053 67.4314 Q893.347 67.4314 897.358 66.3781 Q901.409 65.3249 905.379 63.2184 L905.379 70.267 Q901.368 71.9684 897.155 72.8596 Q892.942 73.7508 888.608 73.7508 Q877.751 73.7508 871.391 67.4314 Q865.072 61.1119 865.072 50.3365 Q865.072 39.1965 871.067 32.6746 Q877.103 26.1121 887.311 26.1121 Q896.467 26.1121 901.773 32.0264 Q907.12 37.9003 907.12 48.0275 M899.667 45.84 Q899.586 39.7232 896.223 36.0774 Q892.902 32.4315 887.393 32.4315 Q881.154 32.4315 877.387 35.9558 Q873.66 39.4801 873.093 45.8805 L899.667 45.84 Z" fill="#000000" fill-rule="nonzero" fill-opacity="1" /><path clip-path="url(#clip600)" d="M949.209 34.0924 L949.209 9.54393 L956.663 9.54393 L956.663 72.576 L949.209 72.576 L949.209 65.7705 Q946.86 69.8214 943.254 71.8063 Q939.69 73.7508 934.667 73.7508 Q926.443 73.7508 921.258 67.1883 Q916.113 60.6258 916.113 49.9314 Q916.113 39.2371 921.258 32.6746 Q926.443 26.1121 934.667 26.1121 Q939.69 26.1121 943.254 28.0971 Q946.86 30.0415 949.209 34.0924 M923.81 49.9314 Q923.81 58.1548 927.172 62.8538 Q930.575 67.5124 936.489 67.5124 Q942.404 67.5124 945.807 62.8538 Q949.209 58.1548 949.209 49.9314 Q949.209 41.7081 945.807 37.0496 Q942.404 32.3505 936.489 32.3505 Q930.575 32.3505 927.172 37.0496 Q923.81 41.7081 923.81 49.9314 Z" fill="#000000" fill-rule="nonzero" fill-opacity="1" /><path clip-path="url(#clip600)" d="M1044 16.7545 L1044 25.383 Q1039.87 21.5346 1035.17 19.6307 Q1030.51 17.7268 1025.24 17.7268 Q1014.87 17.7268 1009.37 24.0867 Q1003.86 30.4061 1003.86 42.3968 Q1003.86 54.3469 1009.37 60.7069 Q1014.87 67.0263 1025.24 67.0263 Q1030.51 67.0263 1035.17 65.1223 Q1039.87 63.2184 1044 59.3701 L1044 67.9175 Q1039.71 70.8341 1034.89 72.2924 Q1030.11 73.7508 1024.76 73.7508 Q1011.03 73.7508 1003.13 65.3654 Q995.228 56.9395 995.228 42.3968 Q995.228 27.8135 1003.13 19.4281 Q1011.03 11.0023 1024.76 11.0023 Q1030.19 11.0023 1034.97 12.4606 Q1039.79 13.8784 1044 16.7545 Z" fill="#000000" fill-rule="nonzero" fill-opacity="1" /><path clip-path="url(#clip600)" d="M1073.9 32.4315 Q1067.9 32.4315 1064.42 37.1306 Q1060.93 41.7891 1060.93 49.9314 Q1060.93 58.0738 1064.38 62.7728 Q1067.86 67.4314 1073.9 67.4314 Q1079.85 67.4314 1083.33 62.7323 Q1086.82 58.0333 1086.82 49.9314 Q1086.82 41.8701 1083.33 37.1711 Q1079.85 32.4315 1073.9 32.4315 M1073.9 26.1121 Q1083.62 26.1121 1089.17 32.4315 Q1094.72 38.7509 1094.72 49.9314 Q1094.72 61.0714 1089.17 67.4314 Q1083.62 73.7508 1073.9 73.7508 Q1064.13 73.7508 1058.58 67.4314 Q1053.07 61.0714 1053.07 49.9314 Q1053.07 38.7509 1058.58 32.4315 Q1064.13 26.1121 1073.9 26.1121 Z" fill="#000000" fill-rule="nonzero" fill-opacity="1" /><path clip-path="url(#clip600)" d="M1142.4 35.9153 Q1145.19 30.8922 1149.08 28.5022 Q1152.97 26.1121 1158.24 26.1121 Q1165.33 26.1121 1169.17 31.0947 Q1173.02 36.0368 1173.02 45.1919 L1173.02 72.576 L1165.53 72.576 L1165.53 45.4349 Q1165.53 38.913 1163.22 35.7533 Q1160.91 32.5936 1156.17 32.5936 Q1150.38 32.5936 1147.01 36.4419 Q1143.65 40.2903 1143.65 46.9338 L1143.65 72.576 L1136.16 72.576 L1136.16 45.4349 Q1136.16 38.8725 1133.85 35.7533 Q1131.54 32.5936 1126.72 32.5936 Q1121.01 32.5936 1117.65 36.4824 Q1114.28 40.3308 1114.28 46.9338 L1114.28 72.576 L1106.79 72.576 L1106.79 27.2059 L1114.28 27.2059 L1114.28 34.2544 Q1116.84 30.082 1120.4 28.0971 Q1123.97 26.1121 1128.87 26.1121 Q1133.81 26.1121 1137.25 28.6237 Q1140.74 31.1352 1142.4 35.9153 Z" fill="#000000" fill-rule="nonzero" fill-opacity="1" /><path clip-path="url(#clip600)" d="M1195.1 65.7705 L1195.1 89.8329 L1187.61 89.8329 L1187.61 27.2059 L1195.1 27.2059 L1195.1 34.0924 Q1197.45 30.0415 1201.01 28.0971 Q1204.62 26.1121 1209.6 26.1121 Q1217.87 26.1121 1223.01 32.6746 Q1228.2 39.2371 1228.2 49.9314 Q1228.2 60.6258 1223.01 67.1883 Q1217.87 73.7508 1209.6 73.7508 Q1204.62 73.7508 1201.01 71.8063 Q1197.45 69.8214 1195.1 65.7705 M1220.46 49.9314 Q1220.46 41.7081 1217.06 37.0496 Q1213.69 32.3505 1207.78 32.3505 Q1201.86 32.3505 1198.46 37.0496 Q1195.1 41.7081 1195.1 49.9314 Q1195.1 58.1548 1198.46 62.8538 Q1201.86 67.5124 1207.78 67.5124 Q1213.69 67.5124 1217.06 62.8538 Q1220.46 58.1548 1220.46 49.9314 Z" fill="#000000" fill-rule="nonzero" fill-opacity="1" /><path clip-path="url(#clip600)" d="M1261.17 49.7694 Q1252.14 49.7694 1248.65 51.8354 Q1245.17 53.9013 1245.17 58.8839 Q1245.17 62.8538 1247.76 65.2034 Q1250.39 67.5124 1254.89 67.5124 Q1261.09 67.5124 1264.82 63.1374 Q1268.58 58.7219 1268.58 51.4303 L1268.58 49.7694 L1261.17 49.7694 M1276.04 46.6907 L1276.04 72.576 L1268.58 72.576 L1268.58 65.6895 Q1266.03 69.8214 1262.22 71.8063 Q1258.41 73.7508 1252.91 73.7508 Q1245.94 73.7508 1241.81 69.8619 Q1237.71 65.9325 1237.71 59.3701 Q1237.71 51.7138 1242.82 47.825 Q1247.96 43.9361 1258.13 43.9361 L1268.58 43.9361 L1268.58 43.2069 Q1268.58 38.0623 1265.18 35.2672 Q1261.82 32.4315 1255.7 32.4315 Q1251.81 32.4315 1248.13 33.3632 Q1244.44 34.295 1241.04 36.1584 L1241.04 29.2718 Q1245.13 27.692 1248.98 26.9223 Q1252.82 26.1121 1256.47 26.1121 Q1266.31 26.1121 1271.18 31.2163 Q1276.04 36.3204 1276.04 46.6907 Z" fill="#000000" fill-rule="nonzero" fill-opacity="1" /><path clip-path="url(#clip600)" d="M1317.68 34.1734 Q1316.42 33.4443 1314.92 33.1202 Q1313.47 32.7556 1311.68 32.7556 Q1305.36 32.7556 1301.96 36.8875 Q1298.6 40.9789 1298.6 48.6757 L1298.6 72.576 L1291.11 72.576 L1291.11 27.2059 L1298.6 27.2059 L1298.6 34.2544 Q1300.95 30.1225 1304.72 28.1376 Q1308.48 26.1121 1313.87 26.1121 Q1314.64 26.1121 1315.57 26.2337 Q1316.5 26.3147 1317.64 26.5172 L1317.68 34.1734 Z" fill="#000000" fill-rule="nonzero" fill-opacity="1" /><path clip-path="url(#clip600)" d="M1325.5 27.2059 L1332.95 27.2059 L1332.95 72.576 L1325.5 72.576 L1325.5 27.2059 M1325.5 9.54393 L1332.95 9.54393 L1332.95 18.9825 L1325.5 18.9825 L1325.5 9.54393 Z" fill="#000000" fill-rule="nonzero" fill-opacity="1" /><path clip-path="url(#clip600)" d="M1377.47 28.5427 L1377.47 35.5912 Q1374.31 33.9709 1370.91 33.1607 Q1367.51 32.3505 1363.86 32.3505 Q1358.31 32.3505 1355.51 34.0519 Q1352.76 35.7533 1352.76 39.156 Q1352.76 41.7486 1354.75 43.2475 Q1356.73 44.7058 1362.73 46.0426 L1365.28 46.6097 Q1373.22 48.3111 1376.54 51.4303 Q1379.9 54.509 1379.9 60.0587 Q1379.9 66.3781 1374.88 70.0644 Q1369.9 73.7508 1361.15 73.7508 Q1357.5 73.7508 1353.53 73.0216 Q1349.6 72.3329 1345.23 70.9151 L1345.23 63.2184 Q1349.36 65.3654 1353.37 66.4591 Q1357.38 67.5124 1361.31 67.5124 Q1366.57 67.5124 1369.41 65.73 Q1372.25 63.9071 1372.25 60.6258 Q1372.25 57.5877 1370.18 55.9673 Q1368.15 54.3469 1361.23 52.8481 L1358.63 52.2405 Q1351.71 50.7821 1348.63 47.7845 Q1345.55 44.7463 1345.55 39.4801 Q1345.55 33.0797 1350.09 29.5959 Q1354.62 26.1121 1362.97 26.1121 Q1367.1 26.1121 1370.75 26.7198 Q1374.39 27.3274 1377.47 28.5427 Z" fill="#000000" fill-rule="nonzero" fill-opacity="1" /><path clip-path="url(#clip600)" d="M1409.35 32.4315 Q1403.36 32.4315 1399.87 37.1306 Q1396.39 41.7891 1396.39 49.9314 Q1396.39 58.0738 1399.83 62.7728 Q1403.32 67.4314 1409.35 67.4314 Q1415.31 67.4314 1418.79 62.7323 Q1422.27 58.0333 1422.27 49.9314 Q1422.27 41.8701 1418.79 37.1711 Q1415.31 32.4315 1409.35 32.4315 M1409.35 26.1121 Q1419.07 26.1121 1424.62 32.4315 Q1430.17 38.7509 1430.17 49.9314 Q1430.17 61.0714 1424.62 67.4314 Q1419.07 73.7508 1409.35 73.7508 Q1399.59 73.7508 1394.04 67.4314 Q1388.53 61.0714 1388.53 49.9314 Q1388.53 38.7509 1394.04 32.4315 Q1399.59 26.1121 1409.35 26.1121 Z" fill="#000000" fill-rule="nonzero" fill-opacity="1" /><path clip-path="url(#clip600)" d="M1480.24 45.1919 L1480.24 72.576 L1472.79 72.576 L1472.79 45.4349 Q1472.79 38.994 1470.28 35.7938 Q1467.77 32.5936 1462.74 32.5936 Q1456.71 32.5936 1453.22 36.4419 Q1449.74 40.2903 1449.74 46.9338 L1449.74 72.576 L1442.24 72.576 L1442.24 27.2059 L1449.74 27.2059 L1449.74 34.2544 Q1452.41 30.163 1456.02 28.1376 Q1459.66 26.1121 1464.4 26.1121 Q1472.22 26.1121 1476.23 30.9732 Q1480.24 35.7938 1480.24 45.1919 Z" fill="#000000" fill-rule="nonzero" fill-opacity="1" /><path clip-path="url(#clip600)" d="M1539.39 9.62495 Q1533.96 18.942 1531.32 28.0566 Q1528.69 37.1711 1528.69 46.5287 Q1528.69 55.8863 1531.32 65.0818 Q1534 74.2369 1539.39 83.5134 L1532.9 83.5134 Q1526.83 73.9938 1523.79 64.7983 Q1520.79 55.6027 1520.79 46.5287 Q1520.79 37.4952 1523.79 28.3401 Q1526.79 19.1851 1532.9 9.62495 L1539.39 9.62495 Z" fill="#000000" fill-rule="nonzero" fill-opacity="1" /><path clip-path="url(#clip600)" d="M1561.06 65.7705 L1561.06 89.8329 L1553.56 89.8329 L1553.56 27.2059 L1561.06 27.2059 L1561.06 34.0924 Q1563.41 30.0415 1566.97 28.0971 Q1570.58 26.1121 1575.56 26.1121 Q1583.82 26.1121 1588.97 32.6746 Q1594.15 39.2371 1594.15 49.9314 Q1594.15 60.6258 1588.97 67.1883 Q1583.82 73.7508 1575.56 73.7508 Q1570.58 73.7508 1566.97 71.8063 Q1563.41 69.8214 1561.06 65.7705 M1586.42 49.9314 Q1586.42 41.7081 1583.01 37.0496 Q1579.65 32.3505 1573.74 32.3505 Q1567.82 32.3505 1564.42 37.0496 Q1561.06 41.7081 1561.06 49.9314 Q1561.06 58.1548 1564.42 62.8538 Q1567.82 67.5124 1573.74 67.5124 Q1579.65 67.5124 1583.01 62.8538 Q1586.42 58.1548 1586.42 49.9314 Z" fill="#000000" fill-rule="nonzero" fill-opacity="1" /><path clip-path="url(#clip600)" d="M1632.8 34.1734 Q1631.54 33.4443 1630.04 33.1202 Q1628.59 32.7556 1626.8 32.7556 Q1620.48 32.7556 1617.08 36.8875 Q1613.72 40.9789 1613.72 48.6757 L1613.72 72.576 L1606.23 72.576 L1606.23 27.2059 L1613.72 27.2059 L1613.72 34.2544 Q1616.07 30.1225 1619.84 28.1376 Q1623.6 26.1121 1628.99 26.1121 Q1629.76 26.1121 1630.69 26.2337 Q1631.62 26.3147 1632.76 26.5172 L1632.8 34.1734 Z" fill="#000000" fill-rule="nonzero" fill-opacity="1" /><path clip-path="url(#clip600)" d="M1656.38 32.4315 Q1650.38 32.4315 1646.9 37.1306 Q1643.41 41.7891 1643.41 49.9314 Q1643.41 58.0738 1646.86 62.7728 Q1650.34 67.4314 1656.38 67.4314 Q1662.33 67.4314 1665.81 62.7323 Q1669.3 58.0333 1669.3 49.9314 Q1669.3 41.8701 1665.81 37.1711 Q1662.33 32.4315 1656.38 32.4315 M1656.38 26.1121 Q1666.1 26.1121 1671.65 32.4315 Q1677.2 38.7509 1677.2 49.9314 Q1677.2 61.0714 1671.65 67.4314 Q1666.1 73.7508 1656.38 73.7508 Q1646.61 73.7508 1641.06 67.4314 Q1635.55 61.0714 1635.55 49.9314 Q1635.55 38.7509 1641.06 32.4315 Q1646.61 26.1121 1656.38 26.1121 Z" fill="#000000" fill-rule="nonzero" fill-opacity="1" /><path clip-path="url(#clip600)" d="M1696.76 65.7705 L1696.76 89.8329 L1689.27 89.8329 L1689.27 27.2059 L1696.76 27.2059 L1696.76 34.0924 Q1699.11 30.0415 1702.68 28.0971 Q1706.28 26.1121 1711.27 26.1121 Q1719.53 26.1121 1724.67 32.6746 Q1729.86 39.2371 1729.86 49.9314 Q1729.86 60.6258 1724.67 67.1883 Q1719.53 73.7508 1711.27 73.7508 Q1706.28 73.7508 1702.68 71.8063 Q1699.11 69.8214 1696.76 65.7705 M1722.12 49.9314 Q1722.12 41.7081 1718.72 37.0496 Q1715.36 32.3505 1709.44 32.3505 Q1703.53 32.3505 1700.13 37.0496 Q1696.76 41.7081 1696.76 49.9314 Q1696.76 58.1548 1700.13 62.8538 Q1703.53 67.5124 1709.44 67.5124 Q1715.36 67.5124 1718.72 62.8538 Q1722.12 58.1548 1722.12 49.9314 Z" fill="#000000" fill-rule="nonzero" fill-opacity="1" /><path clip-path="url(#clip600)" d="M1759.8 32.4315 Q1753.8 32.4315 1750.32 37.1306 Q1746.83 41.7891 1746.83 49.9314 Q1746.83 58.0738 1750.28 62.7728 Q1753.76 67.4314 1759.8 67.4314 Q1765.75 67.4314 1769.23 62.7323 Q1772.72 58.0333 1772.72 49.9314 Q1772.72 41.8701 1769.23 37.1711 Q1765.75 32.4315 1759.8 32.4315 M1759.8 26.1121 Q1769.52 26.1121 1775.07 32.4315 Q1780.62 38.7509 1780.62 49.9314 Q1780.62 61.0714 1775.07 67.4314 Q1769.52 73.7508 1759.8 73.7508 Q1750.03 73.7508 1744.48 67.4314 Q1738.97 61.0714 1738.97 49.9314 Q1738.97 38.7509 1744.48 32.4315 Q1750.03 26.1121 1759.8 26.1121 Z" fill="#000000" fill-rule="nonzero" fill-opacity="1" /><path clip-path="url(#clip600)" d="M1819.26 34.1734 Q1818.01 33.4443 1816.51 33.1202 Q1815.05 32.7556 1813.27 32.7556 Q1806.95 32.7556 1803.55 36.8875 Q1800.18 40.9789 1800.18 48.6757 L1800.18 72.576 L1792.69 72.576 L1792.69 27.2059 L1800.18 27.2059 L1800.18 34.2544 Q1802.53 30.1225 1806.3 28.1376 Q1810.07 26.1121 1815.45 26.1121 Q1816.22 26.1121 1817.16 26.2337 Q1818.09 26.3147 1819.22 26.5172 L1819.26 34.1734 Z" fill="#000000" fill-rule="nonzero" fill-opacity="1" /><path clip-path="url(#clip600)" d="M1834.45 14.324 L1834.45 27.2059 L1849.81 27.2059 L1849.81 32.9987 L1834.45 32.9987 L1834.45 57.6282 Q1834.45 63.1779 1835.95 64.7578 Q1837.49 66.3376 1842.15 66.3376 L1849.81 66.3376 L1849.81 72.576 L1842.15 72.576 Q1833.52 72.576 1830.24 69.3758 Q1826.96 66.1351 1826.96 57.6282 L1826.96 32.9987 L1821.49 32.9987 L1821.49 27.2059 L1826.96 27.2059 L1826.96 14.324 L1834.45 14.324 Z" fill="#000000" fill-rule="nonzero" fill-opacity="1" /><path clip-path="url(#clip600)" d="M1859.61 27.2059 L1867.06 27.2059 L1867.06 72.576 L1859.61 72.576 L1859.61 27.2059 M1859.61 9.54393 L1867.06 9.54393 L1867.06 18.9825 L1859.61 18.9825 L1859.61 9.54393 Z" fill="#000000" fill-rule="nonzero" fill-opacity="1" /><path clip-path="url(#clip600)" d="M1900.24 32.4315 Q1894.24 32.4315 1890.76 37.1306 Q1887.28 41.7891 1887.28 49.9314 Q1887.28 58.0738 1890.72 62.7728 Q1894.2 67.4314 1900.24 67.4314 Q1906.19 67.4314 1909.68 62.7323 Q1913.16 58.0333 1913.16 49.9314 Q1913.16 41.8701 1909.68 37.1711 Q1906.19 32.4315 1900.24 32.4315 M1900.24 26.1121 Q1909.96 26.1121 1915.51 32.4315 Q1921.06 38.7509 1921.06 49.9314 Q1921.06 61.0714 1915.51 67.4314 Q1909.96 73.7508 1900.24 73.7508 Q1890.48 73.7508 1884.93 67.4314 Q1879.42 61.0714 1879.42 49.9314 Q1879.42 38.7509 1884.93 32.4315 Q1890.48 26.1121 1900.24 26.1121 Z" fill="#000000" fill-rule="nonzero" fill-opacity="1" /><path clip-path="url(#clip600)" d="M1971.13 45.1919 L1971.13 72.576 L1963.68 72.576 L1963.68 45.4349 Q1963.68 38.994 1961.17 35.7938 Q1958.65 32.5936 1953.63 32.5936 Q1947.6 32.5936 1944.11 36.4419 Q1940.63 40.2903 1940.63 46.9338 L1940.63 72.576 L1933.13 72.576 L1933.13 27.2059 L1940.63 27.2059 L1940.63 34.2544 Q1943.3 30.163 1946.91 28.1376 Q1950.55 26.1121 1955.29 26.1121 Q1963.11 26.1121 1967.12 30.9732 Q1971.13 35.7938 1971.13 45.1919 Z" fill="#000000" fill-rule="nonzero" fill-opacity="1" /><path clip-path="url(#clip600)" d="M2006.62 49.7694 Q1997.58 49.7694 1994.1 51.8354 Q1990.62 53.9013 1990.62 58.8839 Q1990.62 62.8538 1993.21 65.2034 Q1995.84 67.5124 2000.34 67.5124 Q2006.54 67.5124 2010.26 63.1374 Q2014.03 58.7219 2014.03 51.4303 L2014.03 49.7694 L2006.62 49.7694 M2021.48 46.6907 L2021.48 72.576 L2014.03 72.576 L2014.03 65.6895 Q2011.48 69.8214 2007.67 71.8063 Q2003.86 73.7508 1998.35 73.7508 Q1991.39 73.7508 1987.25 69.8619 Q1983.16 65.9325 1983.16 59.3701 Q1983.16 51.7138 1988.27 47.825 Q1993.41 43.9361 2003.58 43.9361 L2014.03 43.9361 L2014.03 43.2069 Q2014.03 38.0623 2010.63 35.2672 Q2007.26 32.4315 2001.15 32.4315 Q1997.26 32.4315 1993.57 33.3632 Q1989.89 34.295 1986.48 36.1584 L1986.48 29.2718 Q1990.58 27.692 1994.42 26.9223 Q1998.27 26.1121 2001.92 26.1121 Q2011.76 26.1121 2016.62 31.2163 Q2021.48 36.3204 2021.48 46.6907 Z" fill="#000000" fill-rule="nonzero" fill-opacity="1" /><path clip-path="url(#clip600)" d="M2036.84 9.54393 L2044.29 9.54393 L2044.29 72.576 L2036.84 72.576 L2036.84 9.54393 Z" fill="#000000" fill-rule="nonzero" fill-opacity="1" /><path clip-path="url(#clip600)" d="M2058.71 9.62495 L2065.19 9.62495 Q2071.27 19.1851 2074.27 28.3401 Q2077.31 37.4952 2077.31 46.5287 Q2077.31 55.6027 2074.27 64.7983 Q2071.27 73.9938 2065.19 83.5134 L2058.71 83.5134 Q2064.1 74.2369 2066.73 65.0818 Q2069.41 55.8863 2069.41 46.5287 Q2069.41 37.1711 2066.73 28.0566 Q2064.1 18.942 2058.71 9.62495 Z" fill="#000000" fill-rule="nonzero" fill-opacity="1" /><path clip-path="url(#clip602)" d="M2293.6 1402.4 L2282.29 1397.71 L2277.6 1386.4 L2282.29 1375.08 L2293.6 1370.4 L2304.91 1375.08 L2309.6 1386.4 L2304.91 1397.71 Z" fill="#009af9" fill-rule="evenodd" fill-opacity="1" stroke="#000000" stroke-opacity="1" stroke-width="3.2"/>
<polyline clip-path="url(#clip602)" style="stroke:#ff0000; stroke-linecap:round; stroke-linejoin:round; stroke-width:4; stroke-opacity:1; fill:none" stroke-dasharray="16, 10" points="321.708,1386.4 341.626,1374.01 361.544,1361.63 381.462,1349.24 401.38,1336.85 421.298,1324.47 441.217,1312.08 461.135,1299.7 481.053,1287.31 500.971,1274.93 520.889,1262.54 540.807,1250.16 560.725,1237.77 580.643,1225.39 600.561,1213 620.479,1200.62 640.397,1188.23 660.316,1175.85 680.234,1163.46 700.152,1151.08 720.07,1138.69 739.988,1126.31 759.906,1113.92 779.824,1101.54 799.742,1089.15 819.66,1076.76 839.578,1064.38 859.496,1051.99 879.415,1039.61 899.333,1027.22 919.251,1014.84 939.169,1002.45 959.087,990.068 979.005,977.683 998.923,965.297 1018.84,952.912 1038.76,940.527 1058.68,928.142 1078.6,915.756 1098.51,903.371 1118.43,890.986 1138.35,878.601 1158.27,866.215 1178.19,853.83 1198.1,841.445 1218.02,829.06 1237.94,816.674 1257.86,804.289 1277.78,791.904 1297.69,779.519 1317.61,767.133 1337.53,754.748 1357.45,742.363 1377.37,729.978 1397.28,717.592 1417.2,705.207 1437.12,692.822 1457.04,680.437 1476.96,668.051 1496.88,655.666 1516.79,643.281 1536.71,630.896 1556.63,618.51 1576.55,606.125 1596.47,593.74 1616.38,581.355 1636.3,568.969 1656.22,556.584 1676.14,544.199 1696.06,531.814 1715.97,519.428 1735.89,507.043 1755.81,494.658 1775.73,482.273 1795.65,469.887 1815.56,457.502 1835.48,445.117 1855.4,432.732 1875.32,420.346 1895.24,407.961 1915.16,395.576 1935.07,383.191 1954.99,370.805 1974.91,358.42 1994.83,346.035 2014.75,333.65 2034.66,321.265 2054.58,308.879 2074.5,296.494 2094.42,284.109 2114.34,271.724 2134.25,259.338 2154.17,246.953 2174.09,234.568 2194.01,222.183 2213.93,209.797 2233.84,197.412 2253.76,185.027 2273.68,172.642 2293.6,160.256 "/>
<path clip-path="url(#clip600)" d="M332.225 322.316 L733.652 322.316 L733.652 166.796 L332.225 166.796  Z" fill="#ffffff" fill-rule="evenodd" fill-opacity="1"/>
<polyline clip-path="url(#clip600)" style="stroke:#000000; stroke-linecap:round; stroke-linejoin:round; stroke-width:4; stroke-opacity:1; fill:none" points="332.225,322.316 733.652,322.316 733.652,166.796 332.225,166.796 332.225,322.316 "/>
<path clip-path="url(#clip600)" d="M425.123 241.391 L409.035 234.724 L402.367 218.636 L409.035 202.548 L425.123 195.88 L441.211 202.548 L447.878 218.636 L441.211 234.724 Z" fill="#009af9" fill-rule="evenodd" fill-opacity="1" stroke="#000000" stroke-opacity="1" stroke-width="4.55111"/>
<path clip-path="url(#clip600)" d="M518.021 201.356 L522.697 201.356 L522.697 235.916 L518.021 235.916 L518.021 201.356 Z" fill="#000000" fill-rule="nonzero" fill-opacity="1" /><path clip-path="url(#clip600)" d="M536.03 202.629 L536.03 209.99 L544.803 209.99 L544.803 213.3 L536.03 213.3 L536.03 227.374 Q536.03 230.545 536.886 231.448 Q537.766 232.351 540.428 232.351 L544.803 232.351 L544.803 235.916 L540.428 235.916 Q535.497 235.916 533.622 234.087 Q531.747 232.235 531.747 227.374 L531.747 213.3 L528.622 213.3 L528.622 209.99 L531.747 209.99 L531.747 202.629 L536.03 202.629 Z" fill="#000000" fill-rule="nonzero" fill-opacity="1" /><path clip-path="url(#clip600)" d="M572.581 221.888 L572.581 223.971 L552.997 223.971 Q553.275 228.369 555.636 230.684 Q558.02 232.976 562.257 232.976 Q564.71 232.976 567.002 232.374 Q569.317 231.772 571.585 230.569 L571.585 234.596 Q569.294 235.568 566.886 236.078 Q564.479 236.587 562.002 236.587 Q555.798 236.587 552.164 232.976 Q548.553 229.365 548.553 223.207 Q548.553 216.842 551.979 213.115 Q555.428 209.365 561.261 209.365 Q566.493 209.365 569.525 212.745 Q572.581 216.101 572.581 221.888 M568.321 220.638 Q568.275 217.143 566.354 215.059 Q564.456 212.976 561.307 212.976 Q557.743 212.976 555.59 214.99 Q553.46 217.004 553.136 220.661 L568.321 220.638 Z" fill="#000000" fill-rule="nonzero" fill-opacity="1" /><path clip-path="url(#clip600)" d="M594.594 213.971 Q593.877 213.555 593.02 213.37 Q592.187 213.161 591.168 213.161 Q587.557 213.161 585.613 215.522 Q583.692 217.86 583.692 222.258 L583.692 235.916 L579.409 235.916 L579.409 209.99 L583.692 209.99 L583.692 214.018 Q585.034 211.657 587.187 210.522 Q589.34 209.365 592.418 209.365 Q592.858 209.365 593.391 209.434 Q593.923 209.481 594.571 209.596 L594.594 213.971 Z" fill="#000000" fill-rule="nonzero" fill-opacity="1" /><path clip-path="url(#clip600)" d="M610.844 222.883 Q605.682 222.883 603.692 224.064 Q601.701 225.244 601.701 228.092 Q601.701 230.36 603.182 231.703 Q604.687 233.022 607.256 233.022 Q610.798 233.022 612.928 230.522 Q615.08 227.999 615.08 223.832 L615.08 222.883 L610.844 222.883 M619.34 221.124 L619.34 235.916 L615.08 235.916 L615.08 231.981 Q613.622 234.342 611.446 235.476 Q609.27 236.587 606.122 236.587 Q602.141 236.587 599.78 234.365 Q597.442 232.119 597.442 228.369 Q597.442 223.994 600.358 221.772 Q603.298 219.55 609.108 219.55 L615.08 219.55 L615.08 219.133 Q615.08 216.194 613.136 214.596 Q611.215 212.976 607.719 212.976 Q605.497 212.976 603.391 213.508 Q601.284 214.041 599.34 215.106 L599.34 211.17 Q601.678 210.268 603.877 209.828 Q606.076 209.365 608.159 209.365 Q613.784 209.365 616.562 212.282 Q619.34 215.198 619.34 221.124 Z" fill="#000000" fill-rule="nonzero" fill-opacity="1" /><path clip-path="url(#clip600)" d="M632.326 202.629 L632.326 209.99 L641.099 209.99 L641.099 213.3 L632.326 213.3 L632.326 227.374 Q632.326 230.545 633.182 231.448 Q634.062 232.351 636.724 232.351 L641.099 232.351 L641.099 235.916 L636.724 235.916 Q631.793 235.916 629.918 234.087 Q628.043 232.235 628.043 227.374 L628.043 213.3 L624.918 213.3 L624.918 209.99 L628.043 209.99 L628.043 202.629 L632.326 202.629 Z" fill="#000000" fill-rule="nonzero" fill-opacity="1" /><path clip-path="url(#clip600)" d="M646.701 209.99 L650.96 209.99 L650.96 235.916 L646.701 235.916 L646.701 209.99 M646.701 199.897 L650.96 199.897 L650.96 205.291 L646.701 205.291 L646.701 199.897 Z" fill="#000000" fill-rule="nonzero" fill-opacity="1" /><path clip-path="url(#clip600)" d="M669.918 212.976 Q666.492 212.976 664.501 215.661 Q662.511 218.323 662.511 222.976 Q662.511 227.629 664.478 230.314 Q666.469 232.976 669.918 232.976 Q673.321 232.976 675.312 230.291 Q677.302 227.606 677.302 222.976 Q677.302 218.37 675.312 215.684 Q673.321 212.976 669.918 212.976 M669.918 209.365 Q675.474 209.365 678.645 212.976 Q681.816 216.587 681.816 222.976 Q681.816 229.342 678.645 232.976 Q675.474 236.587 669.918 236.587 Q664.339 236.587 661.168 232.976 Q658.02 229.342 658.02 222.976 Q658.02 216.587 661.168 212.976 Q664.339 209.365 669.918 209.365 Z" fill="#000000" fill-rule="nonzero" fill-opacity="1" /><path clip-path="url(#clip600)" d="M710.427 220.268 L710.427 235.916 L706.168 235.916 L706.168 220.407 Q706.168 216.726 704.733 214.897 Q703.297 213.069 700.427 213.069 Q696.978 213.069 694.987 215.268 Q692.997 217.467 692.997 221.263 L692.997 235.916 L688.714 235.916 L688.714 209.99 L692.997 209.99 L692.997 214.018 Q694.524 211.68 696.585 210.522 Q698.668 209.365 701.376 209.365 Q705.844 209.365 708.135 212.143 Q710.427 214.897 710.427 220.268 Z" fill="#000000" fill-rule="nonzero" fill-opacity="1" /><polyline clip-path="url(#clip600)" style="stroke:#ff0000; stroke-linecap:round; stroke-linejoin:round; stroke-width:4; stroke-opacity:1; fill:none" stroke-dasharray="16, 10" points="355.449,270.476 494.796,270.476 "/>
<path clip-path="url(#clip600)" d="M531.863 290.163 Q530.058 294.793 528.345 296.205 Q526.632 297.617 523.761 297.617 L520.359 297.617 L520.359 294.052 L522.859 294.052 Q524.618 294.052 525.59 293.219 Q526.562 292.385 527.743 289.283 L528.507 287.339 L518.021 261.83 L522.535 261.83 L530.636 282.108 L538.738 261.83 L543.252 261.83 L531.863 290.163 Z" fill="#000000" fill-rule="nonzero" fill-opacity="1" /><path clip-path="url(#clip600)" d="M549.687 266.228 L579.363 266.228 L579.363 270.117 L549.687 270.117 L549.687 266.228 M549.687 275.672 L579.363 275.672 L579.363 279.608 L549.687 279.608 L549.687 275.672 Z" fill="#000000" fill-rule="nonzero" fill-opacity="1" /><path clip-path="url(#clip600)" d="M610.404 261.83 L601.029 274.446 L610.891 287.756 L605.867 287.756 L598.321 277.571 L590.775 287.756 L585.752 287.756 L595.821 274.191 L586.608 261.83 L591.631 261.83 L598.506 271.066 L605.381 261.83 L610.404 261.83 Z" fill="#000000" fill-rule="nonzero" fill-opacity="1" /><path clip-path="url(#clip600)" d="M2296.12 1436.44 L2324.76 1436.44 L2324.76 1337.57 L2293.6 1343.82 L2293.6 1327.85 L2324.59 1321.6 L2342.12 1321.6 L2342.12 1436.44 L2370.77 1436.44 L2370.77 1451.2 L2296.12 1451.2 L2296.12 1436.44 Z" fill="#008000" fill-rule="nonzero" fill-opacity="1" /></svg>
