<?xml version="1.0" encoding="utf-8"?>
<svg xmlns="http://www.w3.org/2000/svg" xmlns:xlink="http://www.w3.org/1999/xlink" width="1100" height="500" viewBox="0 0 4400 2000">
<defs>
  <clipPath id="clip570">
    <rect x="0" y="0" width="4400" height="2000"/>
  </clipPath>
</defs>
<path clip-path="url(#clip570)" d="M0 2000 L4400 2000 L4400 0 L0 0  Z" fill="#ffffff" fill-rule="evenodd" fill-opacity="1"/>
<defs>
  <clipPath id="clip571">
    <rect x="880" y="0" width="3081" height="2000"/>
  </clipPath>
</defs>
<path clip-path="url(#clip570)" d="M224.746 1845.3 L3802.35 1845.3 L3802.35 104.228 L224.746 104.228  Z" fill="#ffffff" fill-rule="evenodd" fill-opacity="1"/>
<defs>
  <clipPath id="clip572">
    <rect x="224" y="104" width="3579" height="1742"/>
  </clipPath>
</defs>
<polyline clip-path="url(#clip572)" style="stroke:#000000; stroke-linecap:round; stroke-linejoin:round; stroke-width:2; stroke-opacity:0.1; fill:none" points="3802.35,1845.3 3802.35,104.228 "/>
<polyline clip-path="url(#clip572)" style="stroke:#000000; stroke-linecap:round; stroke-linejoin:round; stroke-width:2; stroke-opacity:0.1; fill:none" points="224.746,1845.3 3802.35,1845.3 "/>
<polyline clip-path="url(#clip572)" style="stroke:#000000; stroke-linecap:round; stroke-linejoin:round; stroke-width:2; stroke-opacity:0.1; fill:none" points="224.746,1497.08 3802.35,1497.08 "/>
<polyline clip-path="url(#clip572)" style="stroke:#000000; stroke-linecap:round; stroke-linejoin:round; stroke-width:2; stroke-opacity:0.1; fill:none" points="224.746,1148.87 3802.35,1148.87 "/>
<polyline clip-path="url(#clip572)" style="stroke:#000000; stroke-linecap:round; stroke-linejoin:round; stroke-width:2; stroke-opacity:0.1; fill:none" points="224.746,800.656 3802.35,800.656 "/>
<polyline clip-path="url(#clip572)" style="stroke:#000000; stroke-linecap:round; stroke-linejoin:round; stroke-width:2; stroke-opacity:0.1; fill:none" points="224.746,452.442 3802.35,452.442 "/>
<polyline clip-path="url(#clip572)" style="stroke:#000000; stroke-linecap:round; stroke-linejoin:round; stroke-width:2; stroke-opacity:0.1; fill:none" points="224.746,104.228 3802.35,104.228 "/>
<polyline clip-path="url(#clip570)" style="stroke:#000000; stroke-linecap:round; stroke-linejoin:round; stroke-width:4; stroke-opacity:1; fill:none" points="224.746,1845.3 3802.35,1845.3 "/>
<polyline clip-path="url(#clip570)" style="stroke:#000000; stroke-linecap:round; stroke-linejoin:round; stroke-width:4; stroke-opacity:1; fill:none" points="3802.35,1845.3 3802.35,1826.4 "/>
<path clip-path="url(#clip570)" d="M3792.74 1919.76 L3800.38 1919.76 L3800.38 1893.4 L3792.07 1895.06 L3792.07 1890.8 L3800.33 1889.14 L3805.01 1889.14 L3805.01 1919.76 L3812.64 1919.76 L3812.64 1923.7 L3792.74 1923.7 L3792.74 1919.76 Z" fill="#000000" fill-rule="nonzero" fill-opacity="1" /><path clip-path="url(#clip570)" d="M1895.42 1972.64 L1901.85 1972.64 L1901.85 2014.75 L1924.99 2014.75 L1924.99 2020.16 L1895.42 2020.16 L1895.42 1972.64 Z" fill="#000000" fill-rule="nonzero" fill-opacity="1" /><path clip-path="url(#clip570)" d="M1944.15 1988.62 Q1939.44 1988.62 1936.7 1992.31 Q1933.96 1995.97 1933.96 2002.37 Q1933.96 2008.77 1936.67 2012.46 Q1939.41 2016.12 1944.15 2016.12 Q1948.83 2016.12 1951.56 2012.43 Q1954.3 2008.73 1954.3 2002.37 Q1954.3 1996.03 1951.56 1992.34 Q1948.83 1988.62 1944.15 1988.62 M1944.15 1983.65 Q1951.79 1983.65 1956.15 1988.62 Q1960.51 1993.58 1960.51 2002.37 Q1960.51 2011.12 1956.15 2016.12 Q1951.79 2021.08 1944.15 2021.08 Q1936.48 2021.08 1932.12 2016.12 Q1927.79 2011.12 1927.79 2002.37 Q1927.79 1993.58 1932.12 1988.62 Q1936.48 1983.65 1944.15 1983.65 Z" fill="#000000" fill-rule="nonzero" fill-opacity="1" /><path clip-path="url(#clip570)" d="M1986.42 2002.24 Q1979.32 2002.24 1976.58 2003.86 Q1973.84 2005.49 1973.84 2009.4 Q1973.84 2012.52 1975.88 2014.37 Q1977.95 2016.18 1981.48 2016.18 Q1986.35 2016.18 1989.28 2012.74 Q1992.24 2009.27 1992.24 2003.55 L1992.24 2002.24 L1986.42 2002.24 M1998.1 1999.82 L1998.1 2020.16 L1992.24 2020.16 L1992.24 2014.75 Q1990.24 2018 1987.24 2019.56 Q1984.25 2021.08 1979.92 2021.08 Q1974.45 2021.08 1971.2 2018.03 Q1967.99 2014.94 1967.99 2009.78 Q1967.99 2003.77 1972 2000.71 Q1976.04 1997.66 1984.03 1997.66 L1992.24 1997.66 L1992.24 1997.08 Q1992.24 1993.04 1989.57 1990.85 Q1986.93 1988.62 1982.12 1988.62 Q1979.06 1988.62 1976.17 1989.35 Q1973.27 1990.08 1970.6 1991.55 L1970.6 1986.14 Q1973.81 1984.89 1976.84 1984.29 Q1979.86 1983.65 1982.72 1983.65 Q1990.46 1983.65 1994.28 1987.66 Q1998.1 1991.67 1998.1 1999.82 Z" fill="#000000" fill-rule="nonzero" fill-opacity="1" /><path clip-path="url(#clip570)" d="M2033.62 1989.92 L2033.62 1970.64 L2039.47 1970.64 L2039.47 2020.16 L2033.62 2020.16 L2033.62 2014.81 Q2031.77 2018 2028.94 2019.56 Q2026.14 2021.08 2022.19 2021.08 Q2015.73 2021.08 2011.66 2015.93 Q2007.61 2010.77 2007.61 2002.37 Q2007.61 1993.97 2011.66 1988.81 Q2015.73 1983.65 2022.19 1983.65 Q2026.14 1983.65 2028.94 1985.21 Q2031.77 1986.74 2033.62 1989.92 M2013.66 2002.37 Q2013.66 2008.83 2016.3 2012.52 Q2018.98 2016.18 2023.62 2016.18 Q2028.27 2016.18 2030.94 2012.52 Q2033.62 2008.83 2033.62 2002.37 Q2033.62 1995.91 2030.94 1992.25 Q2028.27 1988.55 2023.62 1988.55 Q2018.98 1988.55 2016.3 1992.25 Q2013.66 1995.91 2013.66 2002.37 Z" fill="#000000" fill-rule="nonzero" fill-opacity="1" /><path clip-path="url(#clip570)" d="M2072.51 1972.64 L2078.94 1972.64 L2078.94 2020.16 L2072.51 2020.16 L2072.51 1972.64 Z" fill="#000000" fill-rule="nonzero" fill-opacity="1" /><path clip-path="url(#clip570)" d="M2098.17 1977.92 L2098.17 2014.88 L2105.93 2014.88 Q2115.77 2014.88 2120.32 2010.42 Q2124.9 2005.96 2124.9 1996.35 Q2124.9 1986.8 2120.32 1982.38 Q2115.77 1977.92 2105.93 1977.92 L2098.17 1977.92 M2091.74 1972.64 L2104.95 1972.64 Q2118.76 1972.64 2125.22 1978.4 Q2131.68 1984.13 2131.68 1996.35 Q2131.68 2008.64 2125.19 2014.4 Q2118.7 2020.16 2104.95 2020.16 L2091.74 2020.16 L2091.74 1972.64 Z" fill="#000000" fill-rule="nonzero" fill-opacity="1" /><polyline clip-path="url(#clip570)" style="stroke:#000000; stroke-linecap:round; stroke-linejoin:round; stroke-width:4; stroke-opacity:1; fill:none" points="224.746,1845.3 224.746,104.228 "/>
<polyline clip-path="url(#clip570)" style="stroke:#000000; stroke-linecap:round; stroke-linejoin:round; stroke-width:4; stroke-opacity:1; fill:none" points="224.746,1845.3 241.124,1845.3 "/>
<polyline clip-path="url(#clip570)" style="stroke:#000000; stroke-linecap:round; stroke-linejoin:round; stroke-width:4; stroke-opacity:1; fill:none" points="224.746,1497.08 241.124,1497.08 "/>
<polyline clip-path="url(#clip570)" style="stroke:#000000; stroke-linecap:round; stroke-linejoin:round; stroke-width:4; stroke-opacity:1; fill:none" points="224.746,1148.87 241.124,1148.87 "/>
<polyline clip-path="url(#clip570)" style="stroke:#000000; stroke-linecap:round; stroke-linejoin:round; stroke-width:4; stroke-opacity:1; fill:none" points="224.746,800.656 241.124,800.656 "/>
<polyline clip-path="url(#clip570)" style="stroke:#000000; stroke-linecap:round; stroke-linejoin:round; stroke-width:4; stroke-opacity:1; fill:none" points="224.746,452.442 241.124,452.442 "/>
<polyline clip-path="url(#clip570)" style="stroke:#000000; stroke-linecap:round; stroke-linejoin:round; stroke-width:4; stroke-opacity:1; fill:none" points="224.746,104.228 241.124,104.228 "/>
<path clip-path="url(#clip570)" d="M101.571 1831.09 Q97.9596 1831.09 96.1309 1834.66 Q94.3253 1838.2 94.3253 1845.33 Q94.3253 1852.44 96.1309 1856 Q97.9596 1859.54 101.571 1859.54 Q105.205 1859.54 107.01 1856 Q108.839 1852.44 108.839 1845.33 Q108.839 1838.2 107.01 1834.66 Q105.205 1831.09 101.571 1831.09 M101.571 1827.39 Q107.381 1827.39 110.436 1832 Q113.515 1836.58 113.515 1845.33 Q113.515 1854.06 110.436 1858.66 Q107.381 1863.25 101.571 1863.25 Q95.7605 1863.25 92.6818 1858.66 Q89.6263 1854.06 89.6263 1845.33 Q89.6263 1836.58 92.6818 1832 Q95.7605 1827.39 101.571 1827.39 Z" fill="#000000" fill-rule="nonzero" fill-opacity="1" /><path clip-path="url(#clip570)" d="M121.733 1856.7 L126.617 1856.7 L126.617 1862.58 L121.733 1862.58 L121.733 1856.7 Z" fill="#000000" fill-rule="nonzero" fill-opacity="1" /><path clip-path="url(#clip570)" d="M146.802 1831.09 Q143.191 1831.09 141.362 1834.66 Q139.557 1838.2 139.557 1845.33 Q139.557 1852.44 141.362 1856 Q143.191 1859.54 146.802 1859.54 Q150.436 1859.54 152.242 1856 Q154.07 1852.44 154.07 1845.33 Q154.07 1838.2 152.242 1834.66 Q150.436 1831.09 146.802 1831.09 M146.802 1827.39 Q152.612 1827.39 155.668 1832 Q158.746 1836.58 158.746 1845.33 Q158.746 1854.06 155.668 1858.66 Q152.612 1863.25 146.802 1863.25 Q140.992 1863.25 137.913 1858.66 Q134.858 1854.06 134.858 1845.33 Q134.858 1836.58 137.913 1832 Q140.992 1827.39 146.802 1827.39 Z" fill="#000000" fill-rule="nonzero" fill-opacity="1" /><path clip-path="url(#clip570)" d="M103.168 1482.88 Q99.5568 1482.88 97.7281 1486.45 Q95.9225 1489.99 95.9225 1497.12 Q95.9225 1504.22 97.7281 1507.79 Q99.5568 1511.33 103.168 1511.33 Q106.802 1511.33 108.608 1507.79 Q110.436 1504.22 110.436 1497.12 Q110.436 1489.99 108.608 1486.45 Q106.802 1482.88 103.168 1482.88 M103.168 1479.18 Q108.978 1479.18 112.034 1483.78 Q115.112 1488.37 115.112 1497.12 Q115.112 1505.84 112.034 1510.45 Q108.978 1515.03 103.168 1515.03 Q97.3577 1515.03 94.279 1510.45 Q91.2235 1505.84 91.2235 1497.12 Q91.2235 1488.37 94.279 1483.78 Q97.3577 1479.18 103.168 1479.18 Z" fill="#000000" fill-rule="nonzero" fill-opacity="1" /><path clip-path="url(#clip570)" d="M123.33 1508.48 L128.214 1508.48 L128.214 1514.36 L123.33 1514.36 L123.33 1508.48 Z" fill="#000000" fill-rule="nonzero" fill-opacity="1" /><path clip-path="url(#clip570)" d="M142.427 1510.43 L158.746 1510.43 L158.746 1514.36 L136.802 1514.36 L136.802 1510.43 Q139.464 1507.67 144.047 1503.04 Q148.654 1498.39 149.834 1497.05 Q152.08 1494.52 152.959 1492.79 Q153.862 1491.03 153.862 1489.34 Q153.862 1486.59 151.918 1484.85 Q149.996 1483.11 146.894 1483.11 Q144.695 1483.11 142.242 1483.88 Q139.811 1484.64 137.033 1486.19 L137.033 1481.47 Q139.857 1480.34 142.311 1479.76 Q144.765 1479.18 146.802 1479.18 Q152.172 1479.18 155.367 1481.86 Q158.561 1484.55 158.561 1489.04 Q158.561 1491.17 157.751 1493.09 Q156.964 1494.99 154.857 1497.58 Q154.279 1498.25 151.177 1501.47 Q148.075 1504.66 142.427 1510.43 Z" fill="#000000" fill-rule="nonzero" fill-opacity="1" /><path clip-path="url(#clip570)" d="M101.085 1134.67 Q97.4734 1134.67 95.6448 1138.23 Q93.8392 1141.77 93.8392 1148.9 Q93.8392 1156.01 95.6448 1159.58 Q97.4734 1163.12 101.085 1163.12 Q104.719 1163.12 106.524 1159.58 Q108.353 1156.01 108.353 1148.9 Q108.353 1141.77 106.524 1138.23 Q104.719 1134.67 101.085 1134.67 M101.085 1130.96 Q106.895 1130.96 109.95 1135.57 Q113.029 1140.15 113.029 1148.9 Q113.029 1157.63 109.95 1162.24 Q106.895 1166.82 101.085 1166.82 Q95.2744 1166.82 92.1957 1162.24 Q89.1402 1157.63 89.1402 1148.9 Q89.1402 1140.15 92.1957 1135.57 Q95.2744 1130.96 101.085 1130.96 Z" fill="#000000" fill-rule="nonzero" fill-opacity="1" /><path clip-path="url(#clip570)" d="M121.246 1160.27 L126.131 1160.27 L126.131 1166.15 L121.246 1166.15 L121.246 1160.27 Z" fill="#000000" fill-rule="nonzero" fill-opacity="1" /><path clip-path="url(#clip570)" d="M149.163 1135.66 L137.357 1154.11 L149.163 1154.11 L149.163 1135.66 M147.936 1131.59 L153.816 1131.59 L153.816 1154.11 L158.746 1154.11 L158.746 1158 L153.816 1158 L153.816 1166.15 L149.163 1166.15 L149.163 1158 L133.561 1158 L133.561 1153.49 L147.936 1131.59 Z" fill="#000000" fill-rule="nonzero" fill-opacity="1" /><path clip-path="url(#clip570)" d="M101.409 786.454 Q97.7975 786.454 95.9688 790.019 Q94.1633 793.561 94.1633 800.69 Q94.1633 807.797 95.9688 811.362 Q97.7975 814.903 101.409 814.903 Q105.043 814.903 106.848 811.362 Q108.677 807.797 108.677 800.69 Q108.677 793.561 106.848 790.019 Q105.043 786.454 101.409 786.454 M101.409 782.751 Q107.219 782.751 110.274 787.357 Q113.353 791.94 113.353 800.69 Q113.353 809.417 110.274 814.024 Q107.219 818.607 101.409 818.607 Q95.5985 818.607 92.5198 814.024 Q89.4642 809.417 89.4642 800.69 Q89.4642 791.94 92.5198 787.357 Q95.5985 782.751 101.409 782.751 Z" fill="#000000" fill-rule="nonzero" fill-opacity="1" /><path clip-path="url(#clip570)" d="M121.571 812.056 L126.455 812.056 L126.455 817.936 L121.571 817.936 L121.571 812.056 Z" fill="#000000" fill-rule="nonzero" fill-opacity="1" /><path clip-path="url(#clip570)" d="M147.219 798.792 Q144.07 798.792 142.219 800.945 Q140.39 803.098 140.39 806.848 Q140.39 810.575 142.219 812.75 Q144.07 814.903 147.219 814.903 Q150.367 814.903 152.195 812.75 Q154.047 810.575 154.047 806.848 Q154.047 803.098 152.195 800.945 Q150.367 798.792 147.219 798.792 M156.501 784.139 L156.501 788.399 Q154.742 787.565 152.936 787.126 Q151.154 786.686 149.394 786.686 Q144.765 786.686 142.311 789.811 Q139.881 792.936 139.533 799.255 Q140.899 797.241 142.959 796.176 Q145.019 795.088 147.496 795.088 Q152.705 795.088 155.714 798.26 Q158.746 801.408 158.746 806.848 Q158.746 812.172 155.598 815.389 Q152.45 818.607 147.219 818.607 Q141.223 818.607 138.052 814.024 Q134.881 809.417 134.881 800.69 Q134.881 792.496 138.77 787.635 Q142.658 782.751 149.209 782.751 Q150.969 782.751 152.751 783.098 Q154.556 783.445 156.501 784.139 Z" fill="#000000" fill-rule="nonzero" fill-opacity="1" /><path clip-path="url(#clip570)" d="M101.663 438.241 Q98.0521 438.241 96.2235 441.806 Q94.4179 445.347 94.4179 452.477 Q94.4179 459.583 96.2235 463.148 Q98.0521 466.69 101.663 466.69 Q105.297 466.69 107.103 463.148 Q108.932 459.583 108.932 452.477 Q108.932 445.347 107.103 441.806 Q105.297 438.241 101.663 438.241 M101.663 434.537 Q107.473 434.537 110.529 439.143 Q113.608 443.727 113.608 452.477 Q113.608 461.204 110.529 465.81 Q107.473 470.393 101.663 470.393 Q95.8531 470.393 92.7744 465.81 Q89.7189 461.204 89.7189 452.477 Q89.7189 443.727 92.7744 439.143 Q95.8531 434.537 101.663 434.537 Z" fill="#000000" fill-rule="nonzero" fill-opacity="1" /><path clip-path="url(#clip570)" d="M121.825 463.842 L126.709 463.842 L126.709 469.722 L121.825 469.722 L121.825 463.842 Z" fill="#000000" fill-rule="nonzero" fill-opacity="1" /><path clip-path="url(#clip570)" d="M146.894 453.31 Q143.561 453.31 141.64 455.092 Q139.742 456.875 139.742 460 Q139.742 463.125 141.64 464.907 Q143.561 466.69 146.894 466.69 Q150.228 466.69 152.149 464.907 Q154.07 463.102 154.07 460 Q154.07 456.875 152.149 455.092 Q150.251 453.31 146.894 453.31 M142.219 451.319 Q139.209 450.579 137.52 448.518 Q135.853 446.458 135.853 443.495 Q135.853 439.352 138.793 436.944 Q141.756 434.537 146.894 434.537 Q152.056 434.537 154.996 436.944 Q157.936 439.352 157.936 443.495 Q157.936 446.458 156.246 448.518 Q154.58 450.579 151.594 451.319 Q154.973 452.106 156.848 454.398 Q158.746 456.69 158.746 460 Q158.746 465.023 155.668 467.708 Q152.612 470.393 146.894 470.393 Q141.177 470.393 138.098 467.708 Q135.043 465.023 135.043 460 Q135.043 456.69 136.941 454.398 Q138.839 452.106 142.219 451.319 M140.506 443.935 Q140.506 446.62 142.172 448.125 Q143.862 449.63 146.894 449.63 Q149.904 449.63 151.594 448.125 Q153.306 446.62 153.306 443.935 Q153.306 441.25 151.594 439.745 Q149.904 438.241 146.894 438.241 Q143.862 438.241 142.172 439.745 Q140.506 441.25 140.506 443.935 Z" fill="#000000" fill-rule="nonzero" fill-opacity="1" /><path clip-path="url(#clip570)" d="M92.3809 117.573 L100.02 117.573 L100.02 91.2077 L91.7096 92.8744 L91.7096 88.6151 L99.9734 86.9485 L104.649 86.9485 L104.649 117.573 L112.288 117.573 L112.288 121.508 L92.3809 121.508 L92.3809 117.573 Z" fill="#000000" fill-rule="nonzero" fill-opacity="1" /><path clip-path="url(#clip570)" d="M121.733 115.629 L126.617 115.629 L126.617 121.508 L121.733 121.508 L121.733 115.629 Z" fill="#000000" fill-rule="nonzero" fill-opacity="1" /><path clip-path="url(#clip570)" d="M146.802 90.0272 Q143.191 90.0272 141.362 93.592 Q139.557 97.1336 139.557 104.263 Q139.557 111.37 141.362 114.934 Q143.191 118.476 146.802 118.476 Q150.436 118.476 152.242 114.934 Q154.07 111.37 154.07 104.263 Q154.07 97.1336 152.242 93.592 Q150.436 90.0272 146.802 90.0272 M146.802 86.3235 Q152.612 86.3235 155.668 90.9299 Q158.746 95.5133 158.746 104.263 Q158.746 112.99 155.668 117.596 Q152.612 122.18 146.802 122.18 Q140.992 122.18 137.913 117.596 Q134.858 112.99 134.858 104.263 Q134.858 95.5133 137.913 90.9299 Q140.992 86.3235 146.802 86.3235 Z" fill="#000000" fill-rule="nonzero" fill-opacity="1" /><path clip-path="url(#clip570)" d="M-38.6358 1169.81 L-38.6358 1142.5 L-33.225 1142.5 L-33.225 1163.38 L-19.2204 1163.38 L-19.2204 1144.54 L-13.8096 1144.54 L-13.8096 1163.38 L8.88416 1163.38 L8.88416 1169.81 L-38.6358 1169.81 Z" fill="#000000" fill-rule="nonzero" fill-opacity="1" /><path clip-path="url(#clip570)" d="M-26.7638 1137.31 L-26.7638 1131.45 L8.88416 1131.45 L8.88416 1137.31 L-26.7638 1137.31 M-40.641 1137.31 L-40.641 1131.45 L-33.225 1131.45 L-33.225 1137.31 L-40.641 1137.31 Z" fill="#000000" fill-rule="nonzero" fill-opacity="1" /><path clip-path="url(#clip570)" d="M-12.6319 1089.57 L8.88416 1089.57 L8.88416 1095.42 L-12.441 1095.42 Q-17.5017 1095.42 -20.0162 1097.4 Q-22.5306 1099.37 -22.5306 1103.32 Q-22.5306 1108.06 -19.5069 1110.8 Q-16.4832 1113.53 -11.2633 1113.53 L8.88416 1113.53 L8.88416 1119.42 L-26.7638 1119.42 L-26.7638 1113.53 L-21.2256 1113.53 Q-24.4403 1111.43 -26.0317 1108.6 Q-27.6232 1105.74 -27.6232 1102.01 Q-27.6232 1095.87 -23.8037 1092.72 Q-20.0162 1089.57 -12.6319 1089.57 Z" fill="#000000" fill-rule="nonzero" fill-opacity="1" /><path clip-path="url(#clip570)" d="M-9.03531 1061.69 Q-9.03531 1068.78 -7.41205 1071.52 Q-5.7888 1074.26 -1.87389 1074.26 Q1.24531 1074.26 3.09136 1072.22 Q4.90559 1070.15 4.90559 1066.62 Q4.90559 1061.75 1.46811 1058.82 Q-2.0012 1055.86 -7.73034 1055.86 L-9.03531 1055.86 L-9.03531 1061.69 M-11.4543 1050.01 L8.88416 1050.01 L8.88416 1055.86 L3.47331 1055.86 Q6.71982 1057.87 8.27942 1060.86 Q9.80718 1063.85 9.80718 1068.18 Q9.80718 1073.65 6.75165 1076.9 Q3.66428 1080.11 -1.49194 1080.11 Q-7.50754 1080.11 -10.5631 1076.1 Q-13.6186 1072.06 -13.6186 1064.07 L-13.6186 1055.86 L-14.1915 1055.86 Q-18.2338 1055.86 -20.4299 1058.54 Q-22.6579 1061.18 -22.6579 1065.98 Q-22.6579 1069.04 -21.9259 1071.93 Q-21.1938 1074.83 -19.7297 1077.5 L-25.1405 1077.5 Q-26.3819 1074.29 -26.9866 1071.27 Q-27.6232 1068.24 -27.6232 1065.38 Q-27.6232 1057.64 -23.6128 1053.82 Q-19.6024 1050.01 -11.4543 1050.01 Z" fill="#000000" fill-rule="nonzero" fill-opacity="1" /><path clip-path="url(#clip570)" d="M-40.641 1037.94 L-40.641 1032.09 L8.88416 1032.09 L8.88416 1037.94 L-40.641 1037.94 Z" fill="#000000" fill-rule="nonzero" fill-opacity="1" /><path clip-path="url(#clip570)" d="M-38.6358 1003.09 L-38.6358 996.597 L1.53177 986.603 L-38.6358 976.64 L-38.6358 969.415 L1.53177 959.421 L-38.6358 949.459 L-38.6358 942.934 L8.88416 954.87 L8.88416 962.954 L-32.3656 972.98 L8.88416 983.101 L8.88416 991.186 L-38.6358 1003.09 Z" fill="#000000" fill-rule="nonzero" fill-opacity="1" /><path clip-path="url(#clip570)" d="M-10.4039 907.986 L-7.53937 907.986 L-7.53937 934.913 Q-1.49194 934.531 1.69091 931.285 Q4.84193 928.006 4.84193 922.182 Q4.84193 918.808 4.01439 915.657 Q3.18685 912.474 1.53177 909.355 L7.06993 909.355 Q8.40673 912.506 9.10696 915.816 Q9.80718 919.126 9.80718 922.532 Q9.80718 931.062 4.84193 936.059 Q-0.123317 941.024 -8.58971 941.024 Q-17.3426 941.024 -22.4669 936.313 Q-27.6232 931.571 -27.6232 923.55 Q-27.6232 916.357 -22.9762 912.187 Q-18.3611 907.986 -10.4039 907.986 M-12.1227 913.843 Q-16.9288 913.906 -19.7934 916.548 Q-22.6579 919.158 -22.6579 923.487 Q-22.6579 928.388 -19.8888 931.348 Q-17.1198 934.276 -12.0908 934.722 L-12.1227 913.843 Z" fill="#000000" fill-rule="nonzero" fill-opacity="1" /><path clip-path="url(#clip570)" d="M-26.7638 898.374 L-26.7638 892.517 L8.88416 892.517 L8.88416 898.374 L-26.7638 898.374 M-40.641 898.374 L-40.641 892.517 L-33.225 892.517 L-33.225 898.374 L-40.641 898.374 Z" fill="#000000" fill-rule="nonzero" fill-opacity="1" /><path clip-path="url(#clip570)" d="M-9.35359 856.806 Q-15.7193 856.806 -19.2204 859.448 Q-22.7216 862.058 -22.7216 866.8 Q-22.7216 871.511 -19.2204 874.152 Q-15.7193 876.762 -9.35359 876.762 Q-3.01971 876.762 0.481425 874.152 Q3.98256 871.511 3.98256 866.8 Q3.98256 862.058 0.481425 859.448 Q-3.01971 856.806 -9.35359 856.806 M4.45999 850.949 Q13.563 850.949 17.9871 854.992 Q22.4431 859.034 22.4431 867.373 Q22.4431 870.46 21.9657 873.197 Q21.5201 875.935 20.5652 878.513 L14.8679 878.513 Q16.2684 875.935 16.9368 873.42 Q17.6052 870.906 17.6052 868.296 Q17.6052 862.535 14.5815 859.67 Q11.5896 856.806 5.51033 856.806 L2.61394 856.806 Q5.76496 858.62 7.32456 861.453 Q8.88416 864.286 8.88416 868.232 Q8.88416 874.789 3.88708 878.799 Q-1.11 882.81 -9.35359 882.81 Q-17.629 882.81 -22.6261 878.799 Q-27.6232 874.789 -27.6232 868.232 Q-27.6232 864.286 -26.0636 861.453 Q-24.504 858.62 -21.3529 856.806 L-26.7638 856.806 L-26.7638 850.949 L4.45999 850.949 Z" fill="#000000" fill-rule="nonzero" fill-opacity="1" /><path clip-path="url(#clip570)" d="M-12.6319 809.254 L8.88416 809.254 L8.88416 815.11 L-12.441 815.11 Q-17.5017 815.11 -20.0162 817.084 Q-22.5306 819.057 -22.5306 823.004 Q-22.5306 827.746 -19.5069 830.484 Q-16.4832 833.221 -11.2633 833.221 L8.88416 833.221 L8.88416 839.109 L-40.641 839.109 L-40.641 833.221 L-21.2256 833.221 Q-24.4403 831.12 -26.0317 828.287 Q-27.6232 825.423 -27.6232 821.699 Q-27.6232 815.556 -23.8037 812.405 Q-20.0162 809.254 -12.6319 809.254 Z" fill="#000000" fill-rule="nonzero" fill-opacity="1" /><path clip-path="url(#clip570)" d="M-36.8853 791.78 L-26.7638 791.78 L-26.7638 779.717 L-22.2123 779.717 L-22.2123 791.78 L-2.86057 791.78 Q1.49994 791.78 2.74125 790.602 Q3.98256 789.393 3.98256 785.733 L3.98256 779.717 L8.88416 779.717 L8.88416 785.733 Q8.88416 792.512 6.3697 795.09 Q3.82342 797.668 -2.86057 797.668 L-22.2123 797.668 L-22.2123 801.965 L-26.7638 801.965 L-26.7638 797.668 L-36.8853 797.668 L-36.8853 791.78 Z" fill="#000000" fill-rule="nonzero" fill-opacity="1" /><path clip-path="url(#clip570)" d="M1450.15 12.096 L1484.91 12.096 L1484.91 18.9825 L1458.33 18.9825 L1458.33 36.8065 L1482.31 36.8065 L1482.31 43.6931 L1458.33 43.6931 L1458.33 72.576 L1450.15 72.576 L1450.15 12.096 Z" fill="#000000" fill-rule="nonzero" fill-opacity="1" /><path clip-path="url(#clip570)" d="M1491.51 27.2059 L1498.96 27.2059 L1498.96 72.576 L1491.51 72.576 L1491.51 27.2059 M1491.51 9.54393 L1498.96 9.54393 L1498.96 18.9825 L1491.51 18.9825 L1491.51 9.54393 Z" fill="#000000" fill-rule="nonzero" fill-opacity="1" /><path clip-path="url(#clip570)" d="M1552.27 45.1919 L1552.27 72.576 L1544.82 72.576 L1544.82 45.4349 Q1544.82 38.994 1542.31 35.7938 Q1539.8 32.5936 1534.77 32.5936 Q1528.74 32.5936 1525.25 36.4419 Q1521.77 40.2903 1521.77 46.9338 L1521.77 72.576 L1514.28 72.576 L1514.28 27.2059 L1521.77 27.2059 L1521.77 34.2544 Q1524.44 30.163 1528.05 28.1376 Q1531.7 26.1121 1536.43 26.1121 Q1544.25 26.1121 1548.26 30.9732 Q1552.27 35.7938 1552.27 45.1919 Z" fill="#000000" fill-rule="nonzero" fill-opacity="1" /><path clip-path="url(#clip570)" d="M1587.76 49.7694 Q1578.73 49.7694 1575.24 51.8354 Q1571.76 53.9013 1571.76 58.8839 Q1571.76 62.8538 1574.35 65.2034 Q1576.98 67.5124 1581.48 67.5124 Q1587.68 67.5124 1591.41 63.1374 Q1595.17 58.7219 1595.17 51.4303 L1595.17 49.7694 L1587.76 49.7694 M1602.63 46.6907 L1602.63 72.576 L1595.17 72.576 L1595.17 65.6895 Q1592.62 69.8214 1588.81 71.8063 Q1585.01 73.7508 1579.5 73.7508 Q1572.53 73.7508 1568.4 69.8619 Q1564.31 65.9325 1564.31 59.3701 Q1564.31 51.7138 1569.41 47.825 Q1574.55 43.9361 1584.72 43.9361 L1595.17 43.9361 L1595.17 43.2069 Q1595.17 38.0623 1591.77 35.2672 Q1588.41 32.4315 1582.29 32.4315 Q1578.4 32.4315 1574.72 33.3632 Q1571.03 34.295 1567.63 36.1584 L1567.63 29.2718 Q1571.72 27.692 1575.57 26.9223 Q1579.42 26.1121 1583.06 26.1121 Q1592.9 26.1121 1597.77 31.2163 Q1602.63 36.3204 1602.63 46.6907 Z" fill="#000000" fill-rule="nonzero" fill-opacity="1" /><path clip-path="url(#clip570)" d="M1617.98 9.54393 L1625.43 9.54393 L1625.43 72.576 L1617.98 72.576 L1617.98 9.54393 Z" fill="#000000" fill-rule="nonzero" fill-opacity="1" /><path clip-path="url(#clip570)" d="M1662.34 12.096 L1670.6 12.096 L1683.32 63.2184 L1696 12.096 L1705.2 12.096 L1717.92 63.2184 L1730.59 12.096 L1738.9 12.096 L1723.71 72.576 L1713.42 72.576 L1700.66 20.0763 L1687.78 72.576 L1677.49 72.576 L1662.34 12.096 Z" fill="#000000" fill-rule="nonzero" fill-opacity="1" /><path clip-path="url(#clip570)" d="M1783.38 48.0275 L1783.38 51.6733 L1749.11 51.6733 Q1749.59 59.3701 1753.73 63.421 Q1757.9 67.4314 1765.31 67.4314 Q1769.6 67.4314 1773.62 66.3781 Q1777.67 65.3249 1781.64 63.2184 L1781.64 70.267 Q1777.63 71.9684 1773.41 72.8596 Q1769.2 73.7508 1764.87 73.7508 Q1754.01 73.7508 1747.65 67.4314 Q1741.33 61.1119 1741.33 50.3365 Q1741.33 39.1965 1747.33 32.6746 Q1753.36 26.1121 1763.57 26.1121 Q1772.72 26.1121 1778.03 32.0264 Q1783.38 37.9003 1783.38 48.0275 M1775.92 45.84 Q1775.84 39.7232 1772.48 36.0774 Q1769.16 32.4315 1763.65 32.4315 Q1757.41 32.4315 1753.64 35.9558 Q1749.92 39.4801 1749.35 45.8805 L1775.92 45.84 Z" fill="#000000" fill-rule="nonzero" fill-opacity="1" /><path clip-path="url(#clip570)" d="M1795.61 27.2059 L1803.07 27.2059 L1803.07 72.576 L1795.61 72.576 L1795.61 27.2059 M1795.61 9.54393 L1803.07 9.54393 L1803.07 18.9825 L1795.61 18.9825 L1795.61 9.54393 Z" fill="#000000" fill-rule="nonzero" fill-opacity="1" /><path clip-path="url(#clip570)" d="M1848.52 49.3643 Q1848.52 41.2625 1845.15 36.8065 Q1841.83 32.3505 1835.8 32.3505 Q1829.8 32.3505 1826.44 36.8065 Q1823.12 41.2625 1823.12 49.3643 Q1823.12 57.4256 1826.44 61.8816 Q1829.8 66.3376 1835.8 66.3376 Q1841.83 66.3376 1845.15 61.8816 Q1848.52 57.4256 1848.52 49.3643 M1855.97 66.9452 Q1855.97 78.5308 1850.83 84.1616 Q1845.68 89.8329 1835.07 89.8329 Q1831.14 89.8329 1827.65 89.2252 Q1824.17 88.6581 1820.89 87.4428 L1820.89 80.1917 Q1824.17 81.9741 1827.37 82.8248 Q1830.57 83.6755 1833.89 83.6755 Q1841.22 83.6755 1844.87 79.8271 Q1848.52 76.0193 1848.52 68.282 L1848.52 64.5957 Q1846.21 68.6061 1842.6 70.5911 Q1839 72.576 1833.97 72.576 Q1825.63 72.576 1820.52 66.2161 Q1815.42 59.8562 1815.42 49.3643 Q1815.42 38.832 1820.52 32.472 Q1825.63 26.1121 1833.97 26.1121 Q1839 26.1121 1842.6 28.0971 Q1846.21 30.082 1848.52 34.0924 L1848.52 27.2059 L1855.97 27.2059 L1855.97 66.9452 Z" fill="#000000" fill-rule="nonzero" fill-opacity="1" /><path clip-path="url(#clip570)" d="M1909.04 45.1919 L1909.04 72.576 L1901.58 72.576 L1901.58 45.4349 Q1901.58 38.994 1899.07 35.7938 Q1896.56 32.5936 1891.54 32.5936 Q1885.5 32.5936 1882.02 36.4419 Q1878.53 40.2903 1878.53 46.9338 L1878.53 72.576 L1871.04 72.576 L1871.04 9.54393 L1878.53 9.54393 L1878.53 34.2544 Q1881.21 30.163 1884.81 28.1376 Q1888.46 26.1121 1893.2 26.1121 Q1901.02 26.1121 1905.03 30.9732 Q1909.04 35.7938 1909.04 45.1919 Z" fill="#000000" fill-rule="nonzero" fill-opacity="1" /><path clip-path="url(#clip570)" d="M1931.28 14.324 L1931.28 27.2059 L1946.63 27.2059 L1946.63 32.9987 L1931.28 32.9987 L1931.28 57.6282 Q1931.28 63.1779 1932.78 64.7578 Q1934.31 66.3376 1938.97 66.3376 L1946.63 66.3376 L1946.63 72.576 L1938.97 72.576 Q1930.34 72.576 1927.06 69.3758 Q1923.78 66.1351 1923.78 57.6282 L1923.78 32.9987 L1918.31 32.9987 L1918.31 27.2059 L1923.78 27.2059 L1923.78 14.324 L1931.28 14.324 Z" fill="#000000" fill-rule="nonzero" fill-opacity="1" /><path clip-path="url(#clip570)" d="M1985.36 28.5427 L1985.36 35.5912 Q1982.2 33.9709 1978.79 33.1607 Q1975.39 32.3505 1971.75 32.3505 Q1966.2 32.3505 1963.4 34.0519 Q1960.65 35.7533 1960.65 39.156 Q1960.65 41.7486 1962.63 43.2475 Q1964.62 44.7058 1970.61 46.0426 L1973.16 46.6097 Q1981.1 48.3111 1984.42 51.4303 Q1987.79 54.509 1987.79 60.0587 Q1987.79 66.3781 1982.76 70.0644 Q1977.78 73.7508 1969.03 73.7508 Q1965.39 73.7508 1961.42 73.0216 Q1957.49 72.3329 1953.11 70.9151 L1953.11 63.2184 Q1957.24 65.3654 1961.25 66.4591 Q1965.26 67.5124 1969.19 67.5124 Q1974.46 67.5124 1977.29 65.73 Q1980.13 63.9071 1980.13 60.6258 Q1980.13 57.5877 1978.06 55.9673 Q1976.04 54.3469 1969.11 52.8481 L1966.52 52.2405 Q1959.59 50.7821 1956.51 47.7845 Q1953.44 44.7463 1953.44 39.4801 Q1953.44 33.0797 1957.97 29.5959 Q1962.51 26.1121 1970.85 26.1121 Q1974.99 26.1121 1978.63 26.7198 Q1982.28 27.3274 1985.36 28.5427 Z" fill="#000000" fill-rule="nonzero" fill-opacity="1" /><path clip-path="url(#clip570)" d="M2001.56 62.2867 L2010.11 62.2867 L2010.11 72.576 L2001.56 72.576 L2001.56 62.2867 M2001.56 29.6769 L2010.11 29.6769 L2010.11 39.9662 L2001.56 39.9662 L2001.56 29.6769 Z" fill="#000000" fill-rule="nonzero" fill-opacity="1" /><path clip-path="url(#clip570)" d="M2089.3 35.9153 Q2092.1 30.8922 2095.99 28.5022 Q2099.88 26.1121 2105.14 26.1121 Q2112.23 26.1121 2116.08 31.0947 Q2119.93 36.0368 2119.93 45.1919 L2119.93 72.576 L2112.43 72.576 L2112.43 45.4349 Q2112.43 38.913 2110.12 35.7533 Q2107.81 32.5936 2103.08 32.5936 Q2097.28 32.5936 2093.92 36.4419 Q2090.56 40.2903 2090.56 46.9338 L2090.56 72.576 L2083.06 72.576 L2083.06 45.4349 Q2083.06 38.8725 2080.75 35.7533 Q2078.45 32.5936 2073.63 32.5936 Q2067.91 32.5936 2064.55 36.4824 Q2061.19 40.3308 2061.19 46.9338 L2061.19 72.576 L2053.69 72.576 L2053.69 27.2059 L2061.19 27.2059 L2061.19 34.2544 Q2063.74 30.082 2067.31 28.0971 Q2070.87 26.1121 2075.77 26.1121 Q2080.71 26.1121 2084.16 28.6237 Q2087.64 31.1352 2089.3 35.9153 Z" fill="#000000" fill-rule="nonzero" fill-opacity="1" /><path clip-path="url(#clip570)" d="M2152.37 32.4315 Q2146.38 32.4315 2142.9 37.1306 Q2139.41 41.7891 2139.41 49.9314 Q2139.41 58.0738 2142.86 62.7728 Q2146.34 67.4314 2152.37 67.4314 Q2158.33 67.4314 2161.81 62.7323 Q2165.3 58.0333 2165.3 49.9314 Q2165.3 41.8701 2161.81 37.1711 Q2158.33 32.4315 2152.37 32.4315 M2152.37 26.1121 Q2162.1 26.1121 2167.65 32.4315 Q2173.2 38.7509 2173.2 49.9314 Q2173.2 61.0714 2167.65 67.4314 Q2162.1 73.7508 2152.37 73.7508 Q2142.61 73.7508 2137.06 67.4314 Q2131.55 61.0714 2131.55 49.9314 Q2131.55 38.7509 2137.06 32.4315 Q2142.61 26.1121 2152.37 26.1121 Z" fill="#000000" fill-rule="nonzero" fill-opacity="1" /><path clip-path="url(#clip570)" d="M2192.92 14.324 L2192.92 27.2059 L2208.28 27.2059 L2208.28 32.9987 L2192.92 32.9987 L2192.92 57.6282 Q2192.92 63.1779 2194.42 64.7578 Q2195.96 66.3376 2200.62 66.3376 L2208.28 66.3376 L2208.28 72.576 L2200.62 72.576 Q2191.99 72.576 2188.71 69.3758 Q2185.43 66.1351 2185.43 57.6282 L2185.43 32.9987 L2179.96 32.9987 L2179.96 27.2059 L2185.43 27.2059 L2185.43 14.324 L2192.92 14.324 Z" fill="#000000" fill-rule="nonzero" fill-opacity="1" /><path clip-path="url(#clip570)" d="M2218.08 27.2059 L2225.53 27.2059 L2225.53 72.576 L2218.08 72.576 L2218.08 27.2059 M2218.08 9.54393 L2225.53 9.54393 L2225.53 18.9825 L2218.08 18.9825 L2218.08 9.54393 Z" fill="#000000" fill-rule="nonzero" fill-opacity="1" /><path clip-path="url(#clip570)" d="M2235.78 27.2059 L2243.68 27.2059 L2257.86 65.2844 L2272.04 27.2059 L2279.94 27.2059 L2262.92 72.576 L2252.8 72.576 L2235.78 27.2059 Z" fill="#000000" fill-rule="nonzero" fill-opacity="1" /><path clip-path="url(#clip570)" d="M2310.85 49.7694 Q2301.81 49.7694 2298.33 51.8354 Q2294.85 53.9013 2294.85 58.8839 Q2294.85 62.8538 2297.44 65.2034 Q2300.07 67.5124 2304.57 67.5124 Q2310.77 67.5124 2314.49 63.1374 Q2318.26 58.7219 2318.26 51.4303 L2318.26 49.7694 L2310.85 49.7694 M2325.71 46.6907 L2325.71 72.576 L2318.26 72.576 L2318.26 65.6895 Q2315.71 69.8214 2311.9 71.8063 Q2308.09 73.7508 2302.58 73.7508 Q2295.61 73.7508 2291.48 69.8619 Q2287.39 65.9325 2287.39 59.3701 Q2287.39 51.7138 2292.5 47.825 Q2297.64 43.9361 2307.81 43.9361 L2318.26 43.9361 L2318.26 43.2069 Q2318.26 38.0623 2314.86 35.2672 Q2311.49 32.4315 2305.38 32.4315 Q2301.49 32.4315 2297.8 33.3632 Q2294.12 34.295 2290.71 36.1584 L2290.71 29.2718 Q2294.8 27.692 2298.65 26.9223 Q2302.5 26.1121 2306.15 26.1121 Q2315.99 26.1121 2320.85 31.2163 Q2325.71 36.3204 2325.71 46.6907 Z" fill="#000000" fill-rule="nonzero" fill-opacity="1" /><path clip-path="url(#clip570)" d="M2348.44 14.324 L2348.44 27.2059 L2363.79 27.2059 L2363.79 32.9987 L2348.44 32.9987 L2348.44 57.6282 Q2348.44 63.1779 2349.94 64.7578 Q2351.48 66.3376 2356.14 66.3376 L2363.79 66.3376 L2363.79 72.576 L2356.14 72.576 Q2347.51 72.576 2344.23 69.3758 Q2340.94 66.1351 2340.94 57.6282 L2340.94 32.9987 L2335.48 32.9987 L2335.48 27.2059 L2340.94 27.2059 L2340.94 14.324 L2348.44 14.324 Z" fill="#000000" fill-rule="nonzero" fill-opacity="1" /><path clip-path="url(#clip570)" d="M2373.59 27.2059 L2381.05 27.2059 L2381.05 72.576 L2373.59 72.576 L2373.59 27.2059 M2373.59 9.54393 L2381.05 9.54393 L2381.05 18.9825 L2373.59 18.9825 L2373.59 9.54393 Z" fill="#000000" fill-rule="nonzero" fill-opacity="1" /><path clip-path="url(#clip570)" d="M2414.23 32.4315 Q2408.23 32.4315 2404.75 37.1306 Q2401.26 41.7891 2401.26 49.9314 Q2401.26 58.0738 2404.71 62.7728 Q2408.19 67.4314 2414.23 67.4314 Q2420.18 67.4314 2423.66 62.7323 Q2427.15 58.0333 2427.15 49.9314 Q2427.15 41.8701 2423.66 37.1711 Q2420.18 32.4315 2414.23 32.4315 M2414.23 26.1121 Q2423.95 26.1121 2429.5 32.4315 Q2435.05 38.7509 2435.05 49.9314 Q2435.05 61.0714 2429.5 67.4314 Q2423.95 73.7508 2414.23 73.7508 Q2404.46 73.7508 2398.91 67.4314 Q2393.4 61.0714 2393.4 49.9314 Q2393.4 38.7509 2398.91 32.4315 Q2404.46 26.1121 2414.23 26.1121 Z" fill="#000000" fill-rule="nonzero" fill-opacity="1" /><path clip-path="url(#clip570)" d="M2485.12 45.1919 L2485.12 72.576 L2477.66 72.576 L2477.66 45.4349 Q2477.66 38.994 2475.15 35.7938 Q2472.64 32.5936 2467.62 32.5936 Q2461.58 32.5936 2458.1 36.4419 Q2454.61 40.2903 2454.61 46.9338 L2454.61 72.576 L2447.12 72.576 L2447.12 27.2059 L2454.61 27.2059 L2454.61 34.2544 Q2457.29 30.163 2460.89 28.1376 Q2464.54 26.1121 2469.28 26.1121 Q2477.1 26.1121 2481.11 30.9732 Q2485.12 35.7938 2485.12 45.1919 Z" fill="#000000" fill-rule="nonzero" fill-opacity="1" /><path clip-path="url(#clip570)" d="M2534.46 86.3491 L2534.46 92.1419 L2491.35 92.1419 L2491.35 86.3491 L2534.46 86.3491 Z" fill="#000000" fill-rule="nonzero" fill-opacity="1" /><path clip-path="url(#clip570)" d="M2562.08 49.7694 Q2553.05 49.7694 2549.57 51.8354 Q2546.08 53.9013 2546.08 58.8839 Q2546.08 62.8538 2548.67 65.2034 Q2551.31 67.5124 2555.8 67.5124 Q2562 67.5124 2565.73 63.1374 Q2569.5 58.7219 2569.5 51.4303 L2569.5 49.7694 L2562.08 49.7694 M2576.95 46.6907 L2576.95 72.576 L2569.5 72.576 L2569.5 65.6895 Q2566.94 69.8214 2563.14 71.8063 Q2559.33 73.7508 2553.82 73.7508 Q2546.85 73.7508 2542.72 69.8619 Q2538.63 65.9325 2538.63 59.3701 Q2538.63 51.7138 2543.73 47.825 Q2548.88 43.9361 2559.05 43.9361 L2569.5 43.9361 L2569.5 43.2069 Q2569.5 38.0623 2566.09 35.2672 Q2562.73 32.4315 2556.61 32.4315 Q2552.73 32.4315 2549.04 33.3632 Q2545.35 34.295 2541.95 36.1584 L2541.95 29.2718 Q2546.04 27.692 2549.89 26.9223 Q2553.74 26.1121 2557.38 26.1121 Q2567.23 26.1121 2572.09 31.2163 Q2576.95 36.3204 2576.95 46.6907 Z" fill="#000000" fill-rule="nonzero" fill-opacity="1" /></svg>
