<?xml version="1.0" encoding="utf-8"?>
<svg xmlns="http://www.w3.org/2000/svg" xmlns:xlink="http://www.w3.org/1999/xlink" width="1100" height="500" viewBox="0 0 4400 2000">
<defs>
  <clipPath id="clip530">
    <rect x="0" y="0" width="4400" height="2000"/>
  </clipPath>
</defs>
<path clip-path="url(#clip530)" d="M0 2000 L4400 2000 L4400 0 L0 0  Z" fill="#ffffff" fill-rule="evenodd" fill-opacity="1"/>
<defs>
  <clipPath id="clip531">
    <rect x="880" y="0" width="3081" height="2000"/>
  </clipPath>
</defs>
<path clip-path="url(#clip530)" d="M224.746 1845.3 L3802.35 1845.3 L3802.35 104.228 L224.746 104.228  Z" fill="#ffffff" fill-rule="evenodd" fill-opacity="1"/>
<defs>
  <clipPath id="clip532">
    <rect x="224" y="104" width="3579" height="1742"/>
  </clipPath>
</defs>
<polyline clip-path="url(#clip532)" style="stroke:#000000; stroke-linecap:round; stroke-linejoin:round; stroke-width:2; stroke-opacity:0.1; fill:none" points="3802.35,1845.3 3802.35,104.228 "/>
<polyline clip-path="url(#clip532)" style="stroke:#000000; stroke-linecap:round; stroke-linejoin:round; stroke-width:2; stroke-opacity:0.1; fill:none" points="224.746,1845.3 3802.35,1845.3 "/>
<polyline clip-path="url(#clip532)" style="stroke:#000000; stroke-linecap:round; stroke-linejoin:round; stroke-width:2; stroke-opacity:0.1; fill:none" points="224.746,1497.08 3802.35,1497.08 "/>
<polyline clip-path="url(#clip532)" style="stroke:#000000; stroke-linecap:round; stroke-linejoin:round; stroke-width:2; stroke-opacity:0.1; fill:none" points="224.746,1148.87 3802.35,1148.87 "/>
<polyline clip-path="url(#clip532)" style="stroke:#000000; stroke-linecap:round; stroke-linejoin:round; stroke-width:2; stroke-opacity:0.1; fill:none" points="224.746,800.656 3802.35,800.656 "/>
<polyline clip-path="url(#clip532)" style="stroke:#000000; stroke-linecap:round; stroke-linejoin:round; stroke-width:2; stroke-opacity:0.1; fill:none" points="224.746,452.442 3802.35,452.442 "/>
<polyline clip-path="url(#clip532)" style="stroke:#000000; stroke-linecap:round; stroke-linejoin:round; stroke-width:2; stroke-opacity:0.1; fill:none" points="224.746,104.228 3802.35,104.228 "/>
<polyline clip-path="url(#clip530)" style="stroke:#000000; stroke-linecap:round; stroke-linejoin:round; stroke-width:4; stroke-opacity:1; fill:none" points="224.746,1845.3 3802.35,1845.3 "/>
<polyline clip-path="url(#clip530)" style="stroke:#000000; stroke-linecap:round; stroke-linejoin:round; stroke-width:4; stroke-opacity:1; fill:none" points="3802.35,1845.3 3802.35,1826.4 "/>
<path clip-path="url(#clip530)" d="M3792.74 1919.76 L3800.38 1919.76 L3800.38 1893.4 L3792.07 1895.06 L3792.07 1890.8 L3800.33 1889.14 L3805.01 1889.14 L3805.01 1919.76 L3812.64 1919.76 L3812.64 1923.7 L3792.74 1923.7 L3792.74 1919.76 Z" fill="#000000" fill-rule="nonzero" fill-opacity="1" /><path clip-path="url(#clip530)" d="M1895.42 1972.64 L1901.85 1972.64 L1901.85 2014.75 L1924.99 2014.75 L1924.99 2020.16 L1895.42 2020.16 L1895.42 1972.64 Z" fill="#000000" fill-rule="nonzero" fill-opacity="1" /><path clip-path="url(#clip530)" d="M1944.15 1988.62 Q1939.44 1988.62 1936.7 1992.31 Q1933.96 1995.97 1933.96 2002.37 Q1933.96 2008.77 1936.67 2012.46 Q1939.41 2016.12 1944.15 2016.12 Q1948.83 2016.12 1951.56 2012.43 Q1954.3 2008.73 1954.3 2002.37 Q1954.3 1996.03 1951.56 1992.34 Q1948.83 1988.62 1944.15 1988.62 M1944.15 1983.65 Q1951.79 1983.65 1956.15 1988.62 Q1960.51 1993.58 1960.51 2002.37 Q1960.51 2011.12 1956.15 2016.12 Q1951.79 2021.08 1944.15 2021.08 Q1936.48 2021.08 1932.12 2016.12 Q1927.79 2011.12 1927.79 2002.37 Q1927.79 1993.58 1932.12 1988.62 Q1936.48 1983.65 1944.15 1983.65 Z" fill="#000000" fill-rule="nonzero" fill-opacity="1" /><path clip-path="url(#clip530)" d="M1986.42 2002.24 Q1979.32 2002.24 1976.58 2003.86 Q1973.84 2005.49 1973.84 2009.4 Q1973.84 2012.52 1975.88 2014.37 Q1977.95 2016.18 1981.48 2016.18 Q1986.35 2016.18 1989.28 2012.74 Q1992.24 2009.27 1992.24 2003.55 L1992.24 2002.24 L1986.42 2002.24 M1998.1 1999.82 L1998.1 2020.16 L1992.24 2020.16 L1992.24 2014.75 Q1990.24 2018 1987.24 2019.56 Q1984.25 2021.08 1979.92 2021.08 Q1974.45 2021.08 1971.2 2018.03 Q1967.99 2014.94 1967.99 2009.78 Q1967.99 2003.77 1972 2000.71 Q1976.04 1997.66 1984.03 1997.66 L1992.24 1997.66 L1992.24 1997.08 Q1992.24 1993.04 1989.57 1990.85 Q1986.93 1988.62 1982.12 1988.62 Q1979.06 1988.62 1976.17 1989.35 Q1973.27 1990.08 1970.6 1991.55 L1970.6 1986.14 Q1973.81 1984.89 1976.84 1984.29 Q1979.86 1983.65 1982.72 1983.65 Q1990.46 1983.65 1994.28 1987.66 Q1998.1 1991.67 1998.1 1999.82 Z" fill="#000000" fill-rule="nonzero" fill-opacity="1" /><path clip-path="url(#clip530)" d="M2033.62 1989.92 L2033.62 1970.64 L2039.47 1970.64 L2039.47 2020.16 L2033.62 2020.16 L2033.62 2014.81 Q2031.77 2018 2028.94 2019.56 Q2026.14 2021.08 2022.19 2021.08 Q2015.73 2021.08 2011.66 2015.93 Q2007.61 2010.77 2007.61 2002.37 Q2007.61 1993.97 2011.66 1988.81 Q2015.73 1983.65 2022.19 1983.65 Q2026.14 1983.65 2028.94 1985.21 Q2031.77 1986.74 2033.62 1989.92 M2013.66 2002.37 Q2013.66 2008.83 2016.3 2012.52 Q2018.98 2016.18 2023.62 2016.18 Q2028.27 2016.18 2030.94 2012.52 Q2033.62 2008.83 2033.62 2002.37 Q2033.62 1995.91 2030.94 1992.25 Q2028.27 1988.55 2023.62 1988.55 Q2018.98 1988.55 2016.3 1992.25 Q2013.66 1995.91 2013.66 2002.37 Z" fill="#000000" fill-rule="nonzero" fill-opacity="1" /><path clip-path="url(#clip530)" d="M2072.51 1972.64 L2078.94 1972.64 L2078.94 2020.16 L2072.51 2020.16 L2072.51 1972.64 Z" fill="#000000" fill-rule="nonzero" fill-opacity="1" /><path clip-path="url(#clip530)" d="M2098.17 1977.92 L2098.17 2014.88 L2105.93 2014.88 Q2115.77 2014.88 2120.32 2010.42 Q2124.9 2005.96 2124.9 1996.35 Q2124.9 1986.8 2120.32 1982.38 Q2115.77 1977.92 2105.93 1977.92 L2098.17 1977.92 M2091.74 1972.64 L2104.95 1972.64 Q2118.76 1972.64 2125.22 1978.4 Q2131.68 1984.13 2131.68 1996.35 Q2131.68 2008.64 2125.19 2014.4 Q2118.7 2020.16 2104.95 2020.16 L2091.74 2020.16 L2091.74 1972.64 Z" fill="#000000" fill-rule="nonzero" fill-opacity="1" /><polyline clip-path="url(#clip530)" style="stroke:#000000; stroke-linecap:round; stroke-linejoin:round; stroke-width:4; stroke-opacity:1; fill:none" points="224.746,1845.3 224.746,104.228 "/>
<polyline clip-path="url(#clip530)" style="stroke:#000000; stroke-linecap:round; stroke-linejoin:round; stroke-width:4; stroke-opacity:1; fill:none" points="224.746,1845.3 241.124,1845.3 "/>
<polyline clip-path="url(#clip530)" style="stroke:#000000; stroke-linecap:round; stroke-linejoin:round; stroke-width:4; stroke-opacity:1; fill:none" points="224.746,1497.08 241.124,1497.08 "/>
<polyline clip-path="url(#clip530)" style="stroke:#000000; stroke-linecap:round; stroke-linejoin:round; stroke-width:4; stroke-opacity:1; fill:none" points="224.746,1148.87 241.124,1148.87 "/>
<polyline clip-path="url(#clip530)" style="stroke:#000000; stroke-linecap:round; stroke-linejoin:round; stroke-width:4; stroke-opacity:1; fill:none" points="224.746,800.656 241.124,800.656 "/>
<polyline clip-path="url(#clip530)" style="stroke:#000000; stroke-linecap:round; stroke-linejoin:round; stroke-width:4; stroke-opacity:1; fill:none" points="224.746,452.442 241.124,452.442 "/>
<polyline clip-path="url(#clip530)" style="stroke:#000000; stroke-linecap:round; stroke-linejoin:round; stroke-width:4; stroke-opacity:1; fill:none" points="224.746,104.228 241.124,104.228 "/>
<path clip-path="url(#clip530)" d="M101.571 1831.09 Q97.9596 1831.09 96.1309 1834.66 Q94.3253 1838.2 94.3253 1845.33 Q94.3253 1852.44 96.1309 1856 Q97.9596 1859.54 101.571 1859.54 Q105.205 1859.54 107.01 1856 Q108.839 1852.44 108.839 1845.33 Q108.839 1838.2 107.01 1834.66 Q105.205 1831.09 101.571 1831.09 M101.571 1827.39 Q107.381 1827.39 110.436 1832 Q113.515 1836.58 113.515 1845.33 Q113.515 1854.06 110.436 1858.66 Q107.381 1863.25 101.571 1863.25 Q95.7605 1863.25 92.6818 1858.66 Q89.6263 1854.06 89.6263 1845.33 Q89.6263 1836.58 92.6818 1832 Q95.7605 1827.39 101.571 1827.39 Z" fill="#000000" fill-rule="nonzero" fill-opacity="1" /><path clip-path="url(#clip530)" d="M121.733 1856.7 L126.617 1856.7 L126.617 1862.58 L121.733 1862.58 L121.733 1856.7 Z" fill="#000000" fill-rule="nonzero" fill-opacity="1" /><path clip-path="url(#clip530)" d="M146.802 1831.09 Q143.191 1831.09 141.362 1834.66 Q139.557 1838.2 139.557 1845.33 Q139.557 1852.44 141.362 1856 Q143.191 1859.54 146.802 1859.54 Q150.436 1859.54 152.242 1856 Q154.07 1852.44 154.07 1845.33 Q154.07 1838.2 152.242 1834.66 Q150.436 1831.09 146.802 1831.09 M146.802 1827.39 Q152.612 1827.39 155.668 1832 Q158.746 1836.58 158.746 1845.33 Q158.746 1854.06 155.668 1858.66 Q152.612 1863.25 146.802 1863.25 Q140.992 1863.25 137.913 1858.66 Q134.858 1854.06 134.858 1845.33 Q134.858 1836.58 137.913 1832 Q140.992 1827.39 146.802 1827.39 Z" fill="#000000" fill-rule="nonzero" fill-opacity="1" /><path clip-path="url(#clip530)" d="M103.168 1482.88 Q99.5568 1482.88 97.7281 1486.45 Q95.9225 1489.99 95.9225 1497.12 Q95.9225 1504.22 97.7281 1507.79 Q99.5568 1511.33 103.168 1511.33 Q106.802 1511.33 108.608 1507.79 Q110.436 1504.22 110.436 1497.12 Q110.436 1489.99 108.608 1486.45 Q106.802 1482.88 103.168 1482.88 M103.168 1479.18 Q108.978 1479.18 112.034 1483.78 Q115.112 1488.37 115.112 1497.12 Q115.112 1505.84 112.034 1510.45 Q108.978 1515.03 103.168 1515.03 Q97.3577 1515.03 94.279 1510.45 Q91.2235 1505.84 91.2235 1497.12 Q91.2235 1488.37 94.279 1483.78 Q97.3577 1479.18 103.168 1479.18 Z" fill="#000000" fill-rule="nonzero" fill-opacity="1" /><path clip-path="url(#clip530)" d="M123.33 1508.48 L128.214 1508.48 L128.214 1514.36 L123.33 1514.36 L123.33 1508.48 Z" fill="#000000" fill-rule="nonzero" fill-opacity="1" /><path clip-path="url(#clip530)" d="M142.427 1510.43 L158.746 1510.43 L158.746 1514.36 L136.802 1514.36 L136.802 1510.43 Q139.464 1507.67 144.047 1503.04 Q148.654 1498.39 149.834 1497.05 Q152.08 1494.52 152.959 1492.79 Q153.862 1491.03 153.862 1489.34 Q153.862 1486.59 151.918 1484.85 Q149.996 1483.11 146.894 1483.11 Q144.695 1483.11 142.242 1483.88 Q139.811 1484.64 137.033 1486.19 L137.033 1481.47 Q139.857 1480.34 142.311 1479.76 Q144.765 1479.18 146.802 1479.18 Q152.172 1479.18 155.367 1481.86 Q158.561 1484.55 158.561 1489.04 Q158.561 1491.17 157.751 1493.09 Q156.964 1494.99 154.857 1497.58 Q154.279 1498.25 151.177 1501.47 Q148.075 1504.66 142.427 1510.43 Z" fill="#000000" fill-rule="nonzero" fill-opacity="1" /><path clip-path="url(#clip530)" d="M101.085 1134.67 Q97.4734 1134.67 95.6448 1138.23 Q93.8392 1141.77 93.8392 1148.9 Q93.8392 1156.01 95.6448 1159.58 Q97.4734 1163.12 101.085 1163.12 Q104.719 1163.12 106.524 1159.58 Q108.353 1156.01 108.353 1148.9 Q108.353 1141.77 106.524 1138.23 Q104.719 1134.67 101.085 1134.67 M101.085 1130.96 Q106.895 1130.96 109.95 1135.57 Q113.029 1140.15 113.029 1148.9 Q113.029 1157.63 109.95 1162.24 Q106.895 1166.82 101.085 1166.82 Q95.2744 1166.82 92.1957 1162.24 Q89.1402 1157.63 89.1402 1148.9 Q89.1402 1140.15 92.1957 1135.57 Q95.2744 1130.96 101.085 1130.96 Z" fill="#000000" fill-rule="nonzero" fill-opacity="1" /><path clip-path="url(#clip530)" d="M121.246 1160.27 L126.131 1160.27 L126.131 1166.15 L121.246 1166.15 L121.246 1160.27 Z" fill="#000000" fill-rule="nonzero" fill-opacity="1" /><path clip-path="url(#clip530)" d="M149.163 1135.66 L137.357 1154.11 L149.163 1154.11 L149.163 1135.66 M147.936 1131.59 L153.816 1131.59 L153.816 1154.11 L158.746 1154.11 L158.746 1158 L153.816 1158 L153.816 1166.15 L149.163 1166.15 L149.163 1158 L133.561 1158 L133.561 1153.49 L147.936 1131.59 Z" fill="#000000" fill-rule="nonzero" fill-opacity="1" /><path clip-path="url(#clip530)" d="M101.409 786.454 Q97.7975 786.454 95.9688 790.019 Q94.1633 793.561 94.1633 800.69 Q94.1633 807.797 95.9688 811.362 Q97.7975 814.903 101.409 814.903 Q105.043 814.903 106.848 811.362 Q108.677 807.797 108.677 800.69 Q108.677 793.561 106.848 790.019 Q105.043 786.454 101.409 786.454 M101.409 782.751 Q107.219 782.751 110.274 787.357 Q113.353 791.94 113.353 800.69 Q113.353 809.417 110.274 814.024 Q107.219 818.607 101.409 818.607 Q95.5985 818.607 92.5198 814.024 Q89.4642 809.417 89.4642 800.69 Q89.4642 791.94 92.5198 787.357 Q95.5985 782.751 101.409 782.751 Z" fill="#000000" fill-rule="nonzero" fill-opacity="1" /><path clip-path="url(#clip530)" d="M121.571 812.056 L126.455 812.056 L126.455 817.936 L121.571 817.936 L121.571 812.056 Z" fill="#000000" fill-rule="nonzero" fill-opacity="1" /><path clip-path="url(#clip530)" d="M147.219 798.792 Q144.07 798.792 142.219 800.945 Q140.39 803.098 140.39 806.848 Q140.39 810.575 142.219 812.75 Q144.07 814.903 147.219 814.903 Q150.367 814.903 152.195 812.75 Q154.047 810.575 154.047 806.848 Q154.047 803.098 152.195 800.945 Q150.367 798.792 147.219 798.792 M156.501 784.139 L156.501 788.399 Q154.742 787.565 152.936 787.126 Q151.154 786.686 149.394 786.686 Q144.765 786.686 142.311 789.811 Q139.881 792.936 139.533 799.255 Q140.899 797.241 142.959 796.176 Q145.019 795.088 147.496 795.088 Q152.705 795.088 155.714 798.26 Q158.746 801.408 158.746 806.848 Q158.746 812.172 155.598 815.389 Q152.45 818.607 147.219 818.607 Q141.223 818.607 138.052 814.024 Q134.881 809.417 134.881 800.69 Q134.881 792.496 138.77 787.635 Q142.658 782.751 149.209 782.751 Q150.969 782.751 152.751 783.098 Q154.556 783.445 156.501 784.139 Z" fill="#000000" fill-rule="nonzero" fill-opacity="1" /><path clip-path="url(#clip530)" d="M101.663 438.241 Q98.0521 438.241 96.2235 441.806 Q94.4179 445.347 94.4179 452.477 Q94.4179 459.583 96.2235 463.148 Q98.0521 466.69 101.663 466.69 Q105.297 466.69 107.103 463.148 Q108.932 459.583 108.932 452.477 Q108.932 445.347 107.103 441.806 Q105.297 438.241 101.663 438.241 M101.663 434.537 Q107.473 434.537 110.529 439.143 Q113.608 443.727 113.608 452.477 Q113.608 461.204 110.529 465.81 Q107.473 470.393 101.663 470.393 Q95.8531 470.393 92.7744 465.81 Q89.7189 461.204 89.7189 452.477 Q89.7189 443.727 92.7744 439.143 Q95.8531 434.537 101.663 434.537 Z" fill="#000000" fill-rule="nonzero" fill-opacity="1" /><path clip-path="url(#clip530)" d="M121.825 463.842 L126.709 463.842 L126.709 469.722 L121.825 469.722 L121.825 463.842 Z" fill="#000000" fill-rule="nonzero" fill-opacity="1" /><path clip-path="url(#clip530)" d="M146.894 453.31 Q143.561 453.31 141.64 455.092 Q139.742 456.875 139.742 460 Q139.742 463.125 141.64 464.907 Q143.561 466.69 146.894 466.69 Q150.228 466.69 152.149 464.907 Q154.07 463.102 154.07 460 Q154.07 456.875 152.149 455.092 Q150.251 453.31 146.894 453.31 M142.219 451.319 Q139.209 450.579 137.52 448.518 Q135.853 446.458 135.853 443.495 Q135.853 439.352 138.793 436.944 Q141.756 434.537 146.894 434.537 Q152.056 434.537 154.996 436.944 Q157.936 439.352 157.936 443.495 Q157.936 446.458 156.246 448.518 Q154.58 450.579 151.594 451.319 Q154.973 452.106 156.848 454.398 Q158.746 456.69 158.746 460 Q158.746 465.023 155.668 467.708 Q152.612 470.393 146.894 470.393 Q141.177 470.393 138.098 467.708 Q135.043 465.023 135.043 460 Q135.043 456.69 136.941 454.398 Q138.839 452.106 142.219 451.319 M140.506 443.935 Q140.506 446.62 142.172 448.125 Q143.862 449.63 146.894 449.63 Q149.904 449.63 151.594 448.125 Q153.306 446.62 153.306 443.935 Q153.306 441.25 151.594 439.745 Q149.904 438.241 146.894 438.241 Q143.862 438.241 142.172 439.745 Q140.506 441.25 140.506 443.935 Z" fill="#000000" fill-rule="nonzero" fill-opacity="1" /><path clip-path="url(#clip530)" d="M92.3809 117.573 L100.02 117.573 L100.02 91.2077 L91.7096 92.8744 L91.7096 88.6151 L99.9734 86.9485 L104.649 86.9485 L104.649 117.573 L112.288 117.573 L112.288 121.508 L92.3809 121.508 L92.3809 117.573 Z" fill="#000000" fill-rule="nonzero" fill-opacity="1" /><path clip-path="url(#clip530)" d="M121.733 115.629 L126.617 115.629 L126.617 121.508 L121.733 121.508 L121.733 115.629 Z" fill="#000000" fill-rule="nonzero" fill-opacity="1" /><path clip-path="url(#clip530)" d="M146.802 90.0272 Q143.191 90.0272 141.362 93.592 Q139.557 97.1336 139.557 104.263 Q139.557 111.37 141.362 114.934 Q143.191 118.476 146.802 118.476 Q150.436 118.476 152.242 114.934 Q154.07 111.37 154.07 104.263 Q154.07 97.1336 152.242 93.592 Q150.436 90.0272 146.802 90.0272 M146.802 86.3235 Q152.612 86.3235 155.668 90.9299 Q158.746 95.5133 158.746 104.263 Q158.746 112.99 155.668 117.596 Q152.612 122.18 146.802 122.18 Q140.992 122.18 137.913 117.596 Q134.858 112.99 134.858 104.263 Q134.858 95.5133 137.913 90.9299 Q140.992 86.3235 146.802 86.3235 Z" fill="#000000" fill-rule="nonzero" fill-opacity="1" /><path clip-path="url(#clip530)" d="M-38.6358 1169.81 L-38.6358 1142.5 L-33.225 1142.5 L-33.225 1163.38 L-19.2204 1163.38 L-19.2204 1144.54 L-13.8096 1144.54 L-13.8096 1163.38 L8.88416 1163.38 L8.88416 1169.81 L-38.6358 1169.81 Z" fill="#000000" fill-rule="nonzero" fill-opacity="1" /><path clip-path="url(#clip530)" d="M-26.7638 1137.31 L-26.7638 1131.45 L8.88416 1131.45 L8.88416 1137.31 L-26.7638 1137.31 M-40.641 1137.31 L-40.641 1131.45 L-33.225 1131.45 L-33.225 1137.31 L-40.641 1137.31 Z" fill="#000000" fill-rule="nonzero" fill-opacity="1" /><path clip-path="url(#clip530)" d="M-12.6319 1089.57 L8.88416 1089.57 L8.88416 1095.42 L-12.441 1095.42 Q-17.5017 1095.42 -20.0162 1097.4 Q-22.5306 1099.37 -22.5306 1103.32 Q-22.5306 1108.06 -19.5069 1110.8 Q-16.4832 1113.53 -11.2633 1113.53 L8.88416 1113.53 L8.88416 1119.42 L-26.7638 1119.42 L-26.7638 1113.53 L-21.2256 1113.53 Q-24.4403 1111.43 -26.0317 1108.6 Q-27.6232 1105.74 -27.6232 1102.01 Q-27.6232 1095.87 -23.8037 1092.72 Q-20.0162 1089.57 -12.6319 1089.57 Z" fill="#000000" fill-rule="nonzero" fill-opacity="1" /><path clip-path="url(#clip530)" d="M-9.03531 1061.69 Q-9.03531 1068.78 -7.41205 1071.52 Q-5.7888 1074.26 -1.87389 1074.26 Q1.24531 1074.26 3.09136 1072.22 Q4.90559 1070.15 4.90559 1066.62 Q4.90559 1061.75 1.46811 1058.82 Q-2.0012 1055.86 -7.73034 1055.86 L-9.03531 1055.86 L-9.03531 1061.69 M-11.4543 1050.01 L8.88416 1050.01 L8.88416 1055.86 L3.47331 1055.86 Q6.71982 1057.87 8.27942 1060.86 Q9.80718 1063.85 9.80718 1068.18 Q9.80718 1073.65 6.75165 1076.9 Q3.66428 1080.11 -1.49194 1080.11 Q-7.50754 1080.11 -10.5631 1076.1 Q-13.6186 1072.06 -13.6186 1064.07 L-13.6186 1055.86 L-14.1915 1055.86 Q-18.2338 1055.86 -20.4299 1058.54 Q-22.6579 1061.18 -22.6579 1065.98 Q-22.6579 1069.04 -21.9259 1071.93 Q-21.1938 1074.83 -19.7297 1077.5 L-25.1405 1077.5 Q-26.3819 1074.29 -26.9866 1071.27 Q-27.6232 1068.24 -27.6232 1065.38 Q-27.6232 1057.64 -23.6128 1053.82 Q-19.6024 1050.01 -11.4543 1050.01 Z" fill="#000000" fill-rule="nonzero" fill-opacity="1" /><path clip-path="url(#clip530)" d="M-40.641 1037.94 L-40.641 1032.09 L8.88416 1032.09 L8.88416 1037.94 L-40.641 1037.94 Z" fill="#000000" fill-rule="nonzero" fill-opacity="1" /><path clip-path="url(#clip530)" d="M-38.6358 1003.09 L-38.6358 996.597 L1.53177 986.603 L-38.6358 976.64 L-38.6358 969.415 L1.53177 959.421 L-38.6358 949.459 L-38.6358 942.934 L8.88416 954.87 L8.88416 962.954 L-32.3656 972.98 L8.88416 983.101 L8.88416 991.186 L-38.6358 1003.09 Z" fill="#000000" fill-rule="nonzero" fill-opacity="1" /><path clip-path="url(#clip530)" d="M-10.4039 907.986 L-7.53937 907.986 L-7.53937 934.913 Q-1.49194 934.531 1.69091 931.285 Q4.84193 928.006 4.84193 922.182 Q4.84193 918.808 4.01439 915.657 Q3.18685 912.474 1.53177 909.355 L7.06993 909.355 Q8.40673 912.506 9.10696 915.816 Q9.80718 919.126 9.80718 922.532 Q9.80718 931.062 4.84193 936.059 Q-0.123317 941.024 -8.58971 941.024 Q-17.3426 941.024 -22.4669 936.313 Q-27.6232 931.571 -27.6232 923.55 Q-27.6232 916.357 -22.9762 912.187 Q-18.3611 907.986 -10.4039 907.986 M-12.1227 913.843 Q-16.9288 913.906 -19.7934 916.548 Q-22.6579 919.158 -22.6579 923.487 Q-22.6579 928.388 -19.8888 931.348 Q-17.1198 934.276 -12.0908 934.722 L-12.1227 913.843 Z" fill="#000000" fill-rule="nonzero" fill-opacity="1" /><path clip-path="url(#clip530)" d="M-26.7638 898.374 L-26.7638 892.517 L8.88416 892.517 L8.88416 898.374 L-26.7638 898.374 M-40.641 898.374 L-40.641 892.517 L-33.225 892.517 L-33.225 898.374 L-40.641 898.374 Z" fill="#000000" fill-rule="nonzero" fill-opacity="1" /><path clip-path="url(#clip530)" d="M-9.35359 856.806 Q-15.7193 856.806 -19.2204 859.448 Q-22.7216 862.058 -22.7216 866.8 Q-22.7216 871.511 -19.2204 874.152 Q-15.7193 876.762 -9.35359 876.762 Q-3.01971 876.762 0.481425 874.152 Q3.98256 871.511 3.98256 866.8 Q3.98256 862.058 0.481425 859.448 Q-3.01971 856.806 -9.35359 856.806 M4.45999 850.949 Q13.563 850.949 17.9871 854.992 Q22.4431 859.034 22.4431 867.373 Q22.4431 870.46 21.9657 873.197 Q21.5201 875.935 20.5652 878.513 L14.8679 878.513 Q16.2684 875.935 16.9368 873.42 Q17.6052 870.906 17.6052 868.296 Q17.6052 862.535 14.5815 859.67 Q11.5896 856.806 5.51033 856.806 L2.61394 856.806 Q5.76496 858.62 7.32456 861.453 Q8.88416 864.286 8.88416 868.232 Q8.88416 874.789 3.88708 878.799 Q-1.11 882.81 -9.35359 882.81 Q-17.629 882.81 -22.6261 878.799 Q-27.6232 874.789 -27.6232 868.232 Q-27.6232 864.286 -26.0636 861.453 Q-24.504 858.62 -21.3529 856.806 L-26.7638 856.806 L-26.7638 850.949 L4.45999 850.949 Z" fill="#000000" fill-rule="nonzero" fill-opacity="1" /><path clip-path="url(#clip530)" d="M-12.6319 809.254 L8.88416 809.254 L8.88416 815.11 L-12.441 815.11 Q-17.5017 815.11 -20.0162 817.084 Q-22.5306 819.057 -22.5306 823.004 Q-22.5306 827.746 -19.5069 830.484 Q-16.4832 833.221 -11.2633 833.221 L8.88416 833.221 L8.88416 839.109 L-40.641 839.109 L-40.641 833.221 L-21.2256 833.221 Q-24.4403 831.12 -26.0317 828.287 Q-27.6232 825.423 -27.6232 821.699 Q-27.6232 815.556 -23.8037 812.405 Q-20.0162 809.254 -12.6319 809.254 Z" fill="#000000" fill-rule="nonzero" fill-opacity="1" /><path clip-path="url(#clip530)" d="M-36.8853 791.78 L-26.7638 791.78 L-26.7638 779.717 L-22.2123 779.717 L-22.2123 791.78 L-2.86057 791.78 Q1.49994 791.78 2.74125 790.602 Q3.98256 789.393 3.98256 785.733 L3.98256 779.717 L8.88416 779.717 L8.88416 785.733 Q8.88416 792.512 6.3697 795.09 Q3.82342 797.668 -2.86057 797.668 L-22.2123 797.668 L-22.2123 801.965 L-26.7638 801.965 L-26.7638 797.668 L-36.8853 797.668 L-36.8853 791.78 Z" fill="#000000" fill-rule="nonzero" fill-opacity="1" /><path clip-path="url(#clip530)" d="M1451.57 12.096 L1486.33 12.096 L1486.33 18.9825 L1459.75 18.9825 L1459.75 36.8065 L1483.73 36.8065 L1483.73 43.6931 L1459.75 43.6931 L1459.75 72.576 L1451.57 72.576 L1451.57 12.096 Z" fill="#000000" fill-rule="nonzero" fill-opacity="1" /><path clip-path="url(#clip530)" d="M1492.93 27.2059 L1500.38 27.2059 L1500.38 72.576 L1492.93 72.576 L1492.93 27.2059 M1492.93 9.54393 L1500.38 9.54393 L1500.38 18.9825 L1492.93 18.9825 L1492.93 9.54393 Z" fill="#000000" fill-rule="nonzero" fill-opacity="1" /><path clip-path="url(#clip530)" d="M1553.69 45.1919 L1553.69 72.576 L1546.24 72.576 L1546.24 45.4349 Q1546.24 38.994 1543.73 35.7938 Q1541.22 32.5936 1536.19 32.5936 Q1530.16 32.5936 1526.67 36.4419 Q1523.19 40.2903 1523.19 46.9338 L1523.19 72.576 L1515.69 72.576 L1515.69 27.2059 L1523.19 27.2059 L1523.19 34.2544 Q1525.86 30.163 1529.47 28.1376 Q1533.11 26.1121 1537.85 26.1121 Q1545.67 26.1121 1549.68 30.9732 Q1553.69 35.7938 1553.69 45.1919 Z" fill="#000000" fill-rule="nonzero" fill-opacity="1" /><path clip-path="url(#clip530)" d="M1589.18 49.7694 Q1580.14 49.7694 1576.66 51.8354 Q1573.18 53.9013 1573.18 58.8839 Q1573.18 62.8538 1575.77 65.2034 Q1578.4 67.5124 1582.9 67.5124 Q1589.1 67.5124 1592.82 63.1374 Q1596.59 58.7219 1596.59 51.4303 L1596.59 49.7694 L1589.18 49.7694 M1604.04 46.6907 L1604.04 72.576 L1596.59 72.576 L1596.59 65.6895 Q1594.04 69.8214 1590.23 71.8063 Q1586.42 73.7508 1580.91 73.7508 Q1573.95 73.7508 1569.81 69.8619 Q1565.72 65.9325 1565.72 59.3701 Q1565.72 51.7138 1570.83 47.825 Q1575.97 43.9361 1586.14 43.9361 L1596.59 43.9361 L1596.59 43.2069 Q1596.59 38.0623 1593.19 35.2672 Q1589.83 32.4315 1583.71 32.4315 Q1579.82 32.4315 1576.13 33.3632 Q1572.45 34.295 1569.04 36.1584 L1569.04 29.2718 Q1573.14 27.692 1576.98 26.9223 Q1580.83 26.1121 1584.48 26.1121 Q1594.32 26.1121 1599.18 31.2163 Q1604.04 36.3204 1604.04 46.6907 Z" fill="#000000" fill-rule="nonzero" fill-opacity="1" /><path clip-path="url(#clip530)" d="M1619.4 9.54393 L1626.85 9.54393 L1626.85 72.576 L1619.4 72.576 L1619.4 9.54393 Z" fill="#000000" fill-rule="nonzero" fill-opacity="1" /><path clip-path="url(#clip530)" d="M1663.75 12.096 L1672.02 12.096 L1684.74 63.2184 L1697.42 12.096 L1706.61 12.096 L1719.33 63.2184 L1732.01 12.096 L1740.32 12.096 L1725.13 72.576 L1714.84 72.576 L1702.08 20.0763 L1689.19 72.576 L1678.91 72.576 L1663.75 12.096 Z" fill="#000000" fill-rule="nonzero" fill-opacity="1" /><path clip-path="url(#clip530)" d="M1784.8 48.0275 L1784.8 51.6733 L1750.53 51.6733 Q1751.01 59.3701 1755.14 63.421 Q1759.32 67.4314 1766.73 67.4314 Q1771.02 67.4314 1775.03 66.3781 Q1779.08 65.3249 1783.05 63.2184 L1783.05 70.267 Q1779.04 71.9684 1774.83 72.8596 Q1770.62 73.7508 1766.28 73.7508 Q1755.43 73.7508 1749.07 67.4314 Q1742.75 61.1119 1742.75 50.3365 Q1742.75 39.1965 1748.74 32.6746 Q1754.78 26.1121 1764.99 26.1121 Q1774.14 26.1121 1779.45 32.0264 Q1784.8 37.9003 1784.8 48.0275 M1777.34 45.84 Q1777.26 39.7232 1773.9 36.0774 Q1770.58 32.4315 1765.07 32.4315 Q1758.83 32.4315 1755.06 35.9558 Q1751.34 39.4801 1750.77 45.8805 L1777.34 45.84 Z" fill="#000000" fill-rule="nonzero" fill-opacity="1" /><path clip-path="url(#clip530)" d="M1797.03 27.2059 L1804.48 27.2059 L1804.48 72.576 L1797.03 72.576 L1797.03 27.2059 M1797.03 9.54393 L1804.48 9.54393 L1804.48 18.9825 L1797.03 18.9825 L1797.03 9.54393 Z" fill="#000000" fill-rule="nonzero" fill-opacity="1" /><path clip-path="url(#clip530)" d="M1849.93 49.3643 Q1849.93 41.2625 1846.57 36.8065 Q1843.25 32.3505 1837.21 32.3505 Q1831.22 32.3505 1827.86 36.8065 Q1824.54 41.2625 1824.54 49.3643 Q1824.54 57.4256 1827.86 61.8816 Q1831.22 66.3376 1837.21 66.3376 Q1843.25 66.3376 1846.57 61.8816 Q1849.93 57.4256 1849.93 49.3643 M1857.39 66.9452 Q1857.39 78.5308 1852.24 84.1616 Q1847.1 89.8329 1836.49 89.8329 Q1832.56 89.8329 1829.07 89.2252 Q1825.59 88.6581 1822.31 87.4428 L1822.31 80.1917 Q1825.59 81.9741 1828.79 82.8248 Q1831.99 83.6755 1835.31 83.6755 Q1842.64 83.6755 1846.29 79.8271 Q1849.93 76.0193 1849.93 68.282 L1849.93 64.5957 Q1847.63 68.6061 1844.02 70.5911 Q1840.41 72.576 1835.39 72.576 Q1827.05 72.576 1821.94 66.2161 Q1816.84 59.8562 1816.84 49.3643 Q1816.84 38.832 1821.94 32.472 Q1827.05 26.1121 1835.39 26.1121 Q1840.41 26.1121 1844.02 28.0971 Q1847.63 30.082 1849.93 34.0924 L1849.93 27.2059 L1857.39 27.2059 L1857.39 66.9452 Z" fill="#000000" fill-rule="nonzero" fill-opacity="1" /><path clip-path="url(#clip530)" d="M1910.45 45.1919 L1910.45 72.576 L1903 72.576 L1903 45.4349 Q1903 38.994 1900.49 35.7938 Q1897.98 32.5936 1892.96 32.5936 Q1886.92 32.5936 1883.44 36.4419 Q1879.95 40.2903 1879.95 46.9338 L1879.95 72.576 L1872.46 72.576 L1872.46 9.54393 L1879.95 9.54393 L1879.95 34.2544 Q1882.63 30.163 1886.23 28.1376 Q1889.88 26.1121 1894.62 26.1121 Q1902.43 26.1121 1906.44 30.9732 Q1910.45 35.7938 1910.45 45.1919 Z" fill="#000000" fill-rule="nonzero" fill-opacity="1" /><path clip-path="url(#clip530)" d="M1932.69 14.324 L1932.69 27.2059 L1948.05 27.2059 L1948.05 32.9987 L1932.69 32.9987 L1932.69 57.6282 Q1932.69 63.1779 1934.19 64.7578 Q1935.73 66.3376 1940.39 66.3376 L1948.05 66.3376 L1948.05 72.576 L1940.39 72.576 Q1931.76 72.576 1928.48 69.3758 Q1925.2 66.1351 1925.2 57.6282 L1925.2 32.9987 L1919.73 32.9987 L1919.73 27.2059 L1925.2 27.2059 L1925.2 14.324 L1932.69 14.324 Z" fill="#000000" fill-rule="nonzero" fill-opacity="1" /><path clip-path="url(#clip530)" d="M1986.77 28.5427 L1986.77 35.5912 Q1983.61 33.9709 1980.21 33.1607 Q1976.81 32.3505 1973.16 32.3505 Q1967.61 32.3505 1964.82 34.0519 Q1962.06 35.7533 1962.06 39.156 Q1962.06 41.7486 1964.05 43.2475 Q1966.03 44.7058 1972.03 46.0426 L1974.58 46.6097 Q1982.52 48.3111 1985.84 51.4303 Q1989.2 54.509 1989.2 60.0587 Q1989.2 66.3781 1984.18 70.0644 Q1979.2 73.7508 1970.45 73.7508 Q1966.8 73.7508 1962.83 73.0216 Q1958.9 72.3329 1954.53 70.9151 L1954.53 63.2184 Q1958.66 65.3654 1962.67 66.4591 Q1966.68 67.5124 1970.61 67.5124 Q1975.88 67.5124 1978.71 65.73 Q1981.55 63.9071 1981.55 60.6258 Q1981.55 57.5877 1979.48 55.9673 Q1977.46 54.3469 1970.53 52.8481 L1967.94 52.2405 Q1961.01 50.7821 1957.93 47.7845 Q1954.85 44.7463 1954.85 39.4801 Q1954.85 33.0797 1959.39 29.5959 Q1963.93 26.1121 1972.27 26.1121 Q1976.4 26.1121 1980.05 26.7198 Q1983.7 27.3274 1986.77 28.5427 Z" fill="#000000" fill-rule="nonzero" fill-opacity="1" /><path clip-path="url(#clip530)" d="M2002.98 62.2867 L2011.52 62.2867 L2011.52 72.576 L2002.98 72.576 L2002.98 62.2867 M2002.98 29.6769 L2011.52 29.6769 L2011.52 39.9662 L2002.98 39.9662 L2002.98 29.6769 Z" fill="#000000" fill-rule="nonzero" fill-opacity="1" /><path clip-path="url(#clip530)" d="M2090.72 35.9153 Q2093.52 30.8922 2097.4 28.5022 Q2101.29 26.1121 2106.56 26.1121 Q2113.65 26.1121 2117.5 31.0947 Q2121.35 36.0368 2121.35 45.1919 L2121.35 72.576 L2113.85 72.576 L2113.85 45.4349 Q2113.85 38.913 2111.54 35.7533 Q2109.23 32.5936 2104.49 32.5936 Q2098.7 32.5936 2095.34 36.4419 Q2091.98 40.2903 2091.98 46.9338 L2091.98 72.576 L2084.48 72.576 L2084.48 45.4349 Q2084.48 38.8725 2082.17 35.7533 Q2079.86 32.5936 2075.04 32.5936 Q2069.33 32.5936 2065.97 36.4824 Q2062.61 40.3308 2062.61 46.9338 L2062.61 72.576 L2055.11 72.576 L2055.11 27.2059 L2062.61 27.2059 L2062.61 34.2544 Q2065.16 30.082 2068.72 28.0971 Q2072.29 26.1121 2077.19 26.1121 Q2082.13 26.1121 2085.58 28.6237 Q2089.06 31.1352 2090.72 35.9153 Z" fill="#000000" fill-rule="nonzero" fill-opacity="1" /><path clip-path="url(#clip530)" d="M2153.79 32.4315 Q2147.8 32.4315 2144.31 37.1306 Q2140.83 41.7891 2140.83 49.9314 Q2140.83 58.0738 2144.27 62.7728 Q2147.76 67.4314 2153.79 67.4314 Q2159.75 67.4314 2163.23 62.7323 Q2166.72 58.0333 2166.72 49.9314 Q2166.72 41.8701 2163.23 37.1711 Q2159.75 32.4315 2153.79 32.4315 M2153.79 26.1121 Q2163.51 26.1121 2169.06 32.4315 Q2174.61 38.7509 2174.61 49.9314 Q2174.61 61.0714 2169.06 67.4314 Q2163.51 73.7508 2153.79 73.7508 Q2144.03 73.7508 2138.48 67.4314 Q2132.97 61.0714 2132.97 49.9314 Q2132.97 38.7509 2138.48 32.4315 Q2144.03 26.1121 2153.79 26.1121 Z" fill="#000000" fill-rule="nonzero" fill-opacity="1" /><path clip-path="url(#clip530)" d="M2194.34 14.324 L2194.34 27.2059 L2209.7 27.2059 L2209.7 32.9987 L2194.34 32.9987 L2194.34 57.6282 Q2194.34 63.1779 2195.84 64.7578 Q2197.38 66.3376 2202.04 66.3376 L2209.7 66.3376 L2209.7 72.576 L2202.04 72.576 Q2193.41 72.576 2190.13 69.3758 Q2186.85 66.1351 2186.85 57.6282 L2186.85 32.9987 L2181.38 32.9987 L2181.38 27.2059 L2186.85 27.2059 L2186.85 14.324 L2194.34 14.324 Z" fill="#000000" fill-rule="nonzero" fill-opacity="1" /><path clip-path="url(#clip530)" d="M2219.5 27.2059 L2226.95 27.2059 L2226.95 72.576 L2219.5 72.576 L2219.5 27.2059 M2219.5 9.54393 L2226.95 9.54393 L2226.95 18.9825 L2219.5 18.9825 L2219.5 9.54393 Z" fill="#000000" fill-rule="nonzero" fill-opacity="1" /><path clip-path="url(#clip530)" d="M2237.2 27.2059 L2245.1 27.2059 L2259.28 65.2844 L2273.46 27.2059 L2281.36 27.2059 L2264.34 72.576 L2254.21 72.576 L2237.2 27.2059 Z" fill="#000000" fill-rule="nonzero" fill-opacity="1" /><path clip-path="url(#clip530)" d="M2312.26 49.7694 Q2303.23 49.7694 2299.75 51.8354 Q2296.26 53.9013 2296.26 58.8839 Q2296.26 62.8538 2298.86 65.2034 Q2301.49 67.5124 2305.99 67.5124 Q2312.18 67.5124 2315.91 63.1374 Q2319.68 58.7219 2319.68 51.4303 L2319.68 49.7694 L2312.26 49.7694 M2327.13 46.6907 L2327.13 72.576 L2319.68 72.576 L2319.68 65.6895 Q2317.13 69.8214 2313.32 71.8063 Q2309.51 73.7508 2304 73.7508 Q2297.03 73.7508 2292.9 69.8619 Q2288.81 65.9325 2288.81 59.3701 Q2288.81 51.7138 2293.91 47.825 Q2299.06 43.9361 2309.23 43.9361 L2319.68 43.9361 L2319.68 43.2069 Q2319.68 38.0623 2316.27 35.2672 Q2312.91 32.4315 2306.8 32.4315 Q2302.91 32.4315 2299.22 33.3632 Q2295.53 34.295 2292.13 36.1584 L2292.13 29.2718 Q2296.22 27.692 2300.07 26.9223 Q2303.92 26.1121 2307.57 26.1121 Q2317.41 26.1121 2322.27 31.2163 Q2327.13 36.3204 2327.13 46.6907 Z" fill="#000000" fill-rule="nonzero" fill-opacity="1" /><path clip-path="url(#clip530)" d="M2349.86 14.324 L2349.86 27.2059 L2365.21 27.2059 L2365.21 32.9987 L2349.86 32.9987 L2349.86 57.6282 Q2349.86 63.1779 2351.36 64.7578 Q2352.89 66.3376 2357.55 66.3376 L2365.21 66.3376 L2365.21 72.576 L2357.55 72.576 Q2348.92 72.576 2345.64 69.3758 Q2342.36 66.1351 2342.36 57.6282 L2342.36 32.9987 L2336.89 32.9987 L2336.89 27.2059 L2342.36 27.2059 L2342.36 14.324 L2349.86 14.324 Z" fill="#000000" fill-rule="nonzero" fill-opacity="1" /><path clip-path="url(#clip530)" d="M2375.01 27.2059 L2382.47 27.2059 L2382.47 72.576 L2375.01 72.576 L2375.01 27.2059 M2375.01 9.54393 L2382.47 9.54393 L2382.47 18.9825 L2375.01 18.9825 L2375.01 9.54393 Z" fill="#000000" fill-rule="nonzero" fill-opacity="1" /><path clip-path="url(#clip530)" d="M2415.64 32.4315 Q2409.65 32.4315 2406.16 37.1306 Q2402.68 41.7891 2402.68 49.9314 Q2402.68 58.0738 2406.12 62.7728 Q2409.61 67.4314 2415.64 67.4314 Q2421.6 67.4314 2425.08 62.7323 Q2428.57 58.0333 2428.57 49.9314 Q2428.57 41.8701 2425.08 37.1711 Q2421.6 32.4315 2415.64 32.4315 M2415.64 26.1121 Q2425.37 26.1121 2430.92 32.4315 Q2436.46 38.7509 2436.46 49.9314 Q2436.46 61.0714 2430.92 67.4314 Q2425.37 73.7508 2415.64 73.7508 Q2405.88 73.7508 2400.33 67.4314 Q2394.82 61.0714 2394.82 49.9314 Q2394.82 38.7509 2400.33 32.4315 Q2405.88 26.1121 2415.64 26.1121 Z" fill="#000000" fill-rule="nonzero" fill-opacity="1" /><path clip-path="url(#clip530)" d="M2486.53 45.1919 L2486.53 72.576 L2479.08 72.576 L2479.08 45.4349 Q2479.08 38.994 2476.57 35.7938 Q2474.06 32.5936 2469.03 32.5936 Q2463 32.5936 2459.51 36.4419 Q2456.03 40.2903 2456.03 46.9338 L2456.03 72.576 L2448.54 72.576 L2448.54 27.2059 L2456.03 27.2059 L2456.03 34.2544 Q2458.7 30.163 2462.31 28.1376 Q2465.96 26.1121 2470.69 26.1121 Q2478.51 26.1121 2482.52 30.9732 Q2486.53 35.7938 2486.53 45.1919 Z" fill="#000000" fill-rule="nonzero" fill-opacity="1" /><path clip-path="url(#clip530)" d="M2535.87 86.3491 L2535.87 92.1419 L2492.77 92.1419 L2492.77 86.3491 L2535.87 86.3491 Z" fill="#000000" fill-rule="nonzero" fill-opacity="1" /><path clip-path="url(#clip530)" d="M2575.53 28.9478 L2575.53 35.9153 Q2572.37 34.1734 2569.17 33.3227 Q2566.01 32.4315 2562.77 32.4315 Q2555.52 32.4315 2551.51 37.0496 Q2547.5 41.6271 2547.5 49.9314 Q2547.5 58.2358 2551.51 62.8538 Q2555.52 67.4314 2562.77 67.4314 Q2566.01 67.4314 2569.17 66.5807 Q2572.37 65.6895 2575.53 63.9476 L2575.53 70.8341 Q2572.41 72.2924 2569.05 73.0216 Q2565.73 73.7508 2561.96 73.7508 Q2551.71 73.7508 2545.68 67.3098 Q2539.64 60.8689 2539.64 49.9314 Q2539.64 38.832 2545.72 32.472 Q2551.83 26.1121 2562.45 26.1121 Q2565.89 26.1121 2569.17 26.8413 Q2572.45 27.5299 2575.53 28.9478 Z" fill="#000000" fill-rule="nonzero" fill-opacity="1" /></svg>
