<?xml version="1.0" encoding="utf-8"?>
<svg xmlns="http://www.w3.org/2000/svg" xmlns:xlink="http://www.w3.org/1999/xlink" width="600" height="400" viewBox="0 0 2400 1600">
<defs>
  <clipPath id="clip490">
    <rect x="0" y="0" width="2400" height="1600"/>
  </clipPath>
</defs>
<path clip-path="url(#clip490)" d="M0 1600 L2400 1600 L2400 0 L0 0  Z" fill="#ffffff" fill-rule="evenodd" fill-opacity="1"/>
<defs>
  <clipPath id="clip491">
    <rect x="480" y="0" width="1681" height="1600"/>
  </clipPath>
</defs>
<path clip-path="url(#clip490)" d="M309.866 1423.18 L2352.76 1423.18 L2352.76 123.472 L309.866 123.472  Z" fill="#ffffff" fill-rule="evenodd" fill-opacity="1"/>
<defs>
  <clipPath id="clip492">
    <rect x="309" y="123" width="2044" height="1301"/>
  </clipPath>
</defs>
<polyline clip-path="url(#clip492)" style="stroke:#000000; stroke-linecap:round; stroke-linejoin:round; stroke-width:2; stroke-opacity:0.1; fill:none" points="348.519,1423.18 348.519,123.472 "/>
<polyline clip-path="url(#clip492)" style="stroke:#000000; stroke-linecap:round; stroke-linejoin:round; stroke-width:2; stroke-opacity:0.1; fill:none" points="962.764,1423.18 962.764,123.472 "/>
<polyline clip-path="url(#clip492)" style="stroke:#000000; stroke-linecap:round; stroke-linejoin:round; stroke-width:2; stroke-opacity:0.1; fill:none" points="1577.01,1423.18 1577.01,123.472 "/>
<polyline clip-path="url(#clip492)" style="stroke:#000000; stroke-linecap:round; stroke-linejoin:round; stroke-width:2; stroke-opacity:0.1; fill:none" points="2191.25,1423.18 2191.25,123.472 "/>
<polyline clip-path="url(#clip492)" style="stroke:#000000; stroke-linecap:round; stroke-linejoin:round; stroke-width:2; stroke-opacity:0.1; fill:none" points="309.866,1423.18 2352.76,1423.18 "/>
<polyline clip-path="url(#clip492)" style="stroke:#000000; stroke-linecap:round; stroke-linejoin:round; stroke-width:2; stroke-opacity:0.1; fill:none" points="309.866,1101.08 2352.76,1101.08 "/>
<polyline clip-path="url(#clip492)" style="stroke:#000000; stroke-linecap:round; stroke-linejoin:round; stroke-width:2; stroke-opacity:0.1; fill:none" points="309.866,778.989 2352.76,778.989 "/>
<polyline clip-path="url(#clip492)" style="stroke:#000000; stroke-linecap:round; stroke-linejoin:round; stroke-width:2; stroke-opacity:0.1; fill:none" points="309.866,456.894 2352.76,456.894 "/>
<polyline clip-path="url(#clip492)" style="stroke:#000000; stroke-linecap:round; stroke-linejoin:round; stroke-width:2; stroke-opacity:0.1; fill:none" points="309.866,134.799 2352.76,134.799 "/>
<polyline clip-path="url(#clip490)" style="stroke:#000000; stroke-linecap:round; stroke-linejoin:round; stroke-width:4; stroke-opacity:1; fill:none" points="309.866,1423.18 2352.76,1423.18 "/>
<polyline clip-path="url(#clip490)" style="stroke:#000000; stroke-linecap:round; stroke-linejoin:round; stroke-width:4; stroke-opacity:1; fill:none" points="348.519,1423.18 348.519,1404.28 "/>
<polyline clip-path="url(#clip490)" style="stroke:#000000; stroke-linecap:round; stroke-linejoin:round; stroke-width:4; stroke-opacity:1; fill:none" points="962.764,1423.18 962.764,1404.28 "/>
<polyline clip-path="url(#clip490)" style="stroke:#000000; stroke-linecap:round; stroke-linejoin:round; stroke-width:4; stroke-opacity:1; fill:none" points="1577.01,1423.18 1577.01,1404.28 "/>
<polyline clip-path="url(#clip490)" style="stroke:#000000; stroke-linecap:round; stroke-linejoin:round; stroke-width:4; stroke-opacity:1; fill:none" points="2191.25,1423.18 2191.25,1404.28 "/>
<path clip-path="url(#clip490)" d="M348.519 1454.1 Q344.908 1454.1 343.079 1457.66 Q341.274 1461.2 341.274 1468.33 Q341.274 1475.44 343.079 1479.01 Q344.908 1482.55 348.519 1482.55 Q352.153 1482.55 353.959 1479.01 Q355.787 1475.44 355.787 1468.33 Q355.787 1461.2 353.959 1457.66 Q352.153 1454.1 348.519 1454.1 M348.519 1450.39 Q354.329 1450.39 357.385 1455 Q360.463 1459.58 360.463 1468.33 Q360.463 1477.06 357.385 1481.67 Q354.329 1486.25 348.519 1486.25 Q342.709 1486.25 339.63 1481.67 Q336.575 1477.06 336.575 1468.33 Q336.575 1459.58 339.63 1455 Q342.709 1450.39 348.519 1450.39 Z" fill="#000000" fill-rule="nonzero" fill-opacity="1" /><path clip-path="url(#clip490)" d="M953.042 1451.02 L971.398 1451.02 L971.398 1454.96 L957.324 1454.96 L957.324 1463.43 Q958.343 1463.08 959.361 1462.92 Q960.38 1462.73 961.398 1462.73 Q967.185 1462.73 970.565 1465.9 Q973.944 1469.08 973.944 1474.49 Q973.944 1480.07 970.472 1483.17 Q967 1486.25 960.681 1486.25 Q958.505 1486.25 956.236 1485.88 Q953.991 1485.51 951.583 1484.77 L951.583 1480.07 Q953.667 1481.2 955.889 1481.76 Q958.111 1482.32 960.588 1482.32 Q964.593 1482.32 966.931 1480.21 Q969.268 1478.1 969.268 1474.49 Q969.268 1470.88 966.931 1468.77 Q964.593 1466.67 960.588 1466.67 Q958.713 1466.67 956.838 1467.08 Q954.986 1467.5 953.042 1468.38 L953.042 1451.02 Z" fill="#000000" fill-rule="nonzero" fill-opacity="1" /><path clip-path="url(#clip490)" d="M1551.7 1481.64 L1559.34 1481.64 L1559.34 1455.28 L1551.03 1456.95 L1551.03 1452.69 L1559.29 1451.02 L1563.96 1451.02 L1563.96 1481.64 L1571.6 1481.64 L1571.6 1485.58 L1551.7 1485.58 L1551.7 1481.64 Z" fill="#000000" fill-rule="nonzero" fill-opacity="1" /><path clip-path="url(#clip490)" d="M1591.05 1454.1 Q1587.44 1454.1 1585.61 1457.66 Q1583.8 1461.2 1583.8 1468.33 Q1583.8 1475.44 1585.61 1479.01 Q1587.44 1482.55 1591.05 1482.55 Q1594.68 1482.55 1596.49 1479.01 Q1598.32 1475.44 1598.32 1468.33 Q1598.32 1461.2 1596.49 1457.66 Q1594.68 1454.1 1591.05 1454.1 M1591.05 1450.39 Q1596.86 1450.39 1599.91 1455 Q1602.99 1459.58 1602.99 1468.33 Q1602.99 1477.06 1599.91 1481.67 Q1596.86 1486.25 1591.05 1486.25 Q1585.24 1486.25 1582.16 1481.67 Q1579.1 1477.06 1579.1 1468.33 Q1579.1 1459.58 1582.16 1455 Q1585.24 1450.39 1591.05 1450.39 Z" fill="#000000" fill-rule="nonzero" fill-opacity="1" /><path clip-path="url(#clip490)" d="M2166.44 1481.64 L2174.08 1481.64 L2174.08 1455.28 L2165.77 1456.95 L2165.77 1452.69 L2174.03 1451.02 L2178.71 1451.02 L2178.71 1481.64 L2186.35 1481.64 L2186.35 1485.58 L2166.44 1485.58 L2166.44 1481.64 Z" fill="#000000" fill-rule="nonzero" fill-opacity="1" /><path clip-path="url(#clip490)" d="M2195.84 1451.02 L2214.19 1451.02 L2214.19 1454.96 L2200.12 1454.96 L2200.12 1463.43 Q2201.14 1463.08 2202.16 1462.92 Q2203.17 1462.73 2204.19 1462.73 Q2209.98 1462.73 2213.36 1465.9 Q2216.74 1469.08 2216.74 1474.49 Q2216.74 1480.07 2213.27 1483.17 Q2209.8 1486.25 2203.48 1486.25 Q2201.3 1486.25 2199.03 1485.88 Q2196.79 1485.51 2194.38 1484.77 L2194.38 1480.07 Q2196.46 1481.2 2198.68 1481.76 Q2200.91 1482.32 2203.38 1482.32 Q2207.39 1482.32 2209.73 1480.21 Q2212.06 1478.1 2212.06 1474.49 Q2212.06 1470.88 2209.73 1468.77 Q2207.39 1466.67 2203.38 1466.67 Q2201.51 1466.67 2199.63 1467.08 Q2197.78 1467.5 2195.84 1468.38 L2195.84 1451.02 Z" fill="#000000" fill-rule="nonzero" fill-opacity="1" /><path clip-path="url(#clip490)" d="M1213.18 1520.52 L1219.61 1520.52 L1219.61 1562.63 L1242.75 1562.63 L1242.75 1568.04 L1213.18 1568.04 L1213.18 1520.52 Z" fill="#000000" fill-rule="nonzero" fill-opacity="1" /><path clip-path="url(#clip490)" d="M1261.91 1536.5 Q1257.2 1536.5 1254.46 1540.19 Q1251.72 1543.85 1251.72 1550.25 Q1251.72 1556.65 1254.43 1560.34 Q1257.17 1564 1261.91 1564 Q1266.59 1564 1269.32 1560.31 Q1272.06 1556.62 1272.06 1550.25 Q1272.06 1543.92 1269.32 1540.23 Q1266.59 1536.5 1261.91 1536.5 M1261.91 1531.54 Q1269.55 1531.54 1273.91 1536.5 Q1278.27 1541.47 1278.27 1550.25 Q1278.27 1559 1273.91 1564 Q1269.55 1568.97 1261.91 1568.97 Q1254.24 1568.97 1249.88 1564 Q1245.55 1559 1245.55 1550.25 Q1245.55 1541.47 1249.88 1536.5 Q1254.24 1531.54 1261.91 1531.54 Z" fill="#000000" fill-rule="nonzero" fill-opacity="1" /><path clip-path="url(#clip490)" d="M1304.18 1550.12 Q1297.08 1550.12 1294.34 1551.75 Q1291.6 1553.37 1291.6 1557.29 Q1291.6 1560.4 1293.64 1562.25 Q1295.71 1564.07 1299.24 1564.07 Q1304.11 1564.07 1307.04 1560.63 Q1310 1557.16 1310 1551.43 L1310 1550.12 L1304.18 1550.12 M1315.86 1547.71 L1315.86 1568.04 L1310 1568.04 L1310 1562.63 Q1308 1565.88 1305 1567.44 Q1302.01 1568.97 1297.68 1568.97 Q1292.21 1568.97 1288.96 1565.91 Q1285.75 1562.82 1285.75 1557.67 Q1285.75 1551.65 1289.76 1548.6 Q1293.8 1545.54 1301.79 1545.54 L1310 1545.54 L1310 1544.97 Q1310 1540.93 1307.33 1538.73 Q1304.69 1536.5 1299.88 1536.5 Q1296.82 1536.5 1293.93 1537.23 Q1291.03 1537.97 1288.36 1539.43 L1288.36 1534.02 Q1291.57 1532.78 1294.6 1532.17 Q1297.62 1531.54 1300.48 1531.54 Q1308.22 1531.54 1312.04 1535.55 Q1315.86 1539.56 1315.86 1547.71 Z" fill="#000000" fill-rule="nonzero" fill-opacity="1" /><path clip-path="url(#clip490)" d="M1351.38 1537.81 L1351.38 1518.52 L1357.24 1518.52 L1357.24 1568.04 L1351.38 1568.04 L1351.38 1562.7 Q1349.53 1565.88 1346.7 1567.44 Q1343.9 1568.97 1339.95 1568.97 Q1333.49 1568.97 1329.42 1563.81 Q1325.37 1558.65 1325.37 1550.25 Q1325.37 1541.85 1329.42 1536.69 Q1333.49 1531.54 1339.95 1531.54 Q1343.9 1531.54 1346.7 1533.1 Q1349.53 1534.62 1351.38 1537.81 M1331.42 1550.25 Q1331.42 1556.71 1334.06 1560.4 Q1336.74 1564.07 1341.38 1564.07 Q1346.03 1564.07 1348.71 1560.4 Q1351.38 1556.71 1351.38 1550.25 Q1351.38 1543.79 1348.71 1540.13 Q1346.03 1536.44 1341.38 1536.44 Q1336.74 1536.44 1334.06 1540.13 Q1331.42 1543.79 1331.42 1550.25 Z" fill="#000000" fill-rule="nonzero" fill-opacity="1" /><path clip-path="url(#clip490)" d="M1390.27 1520.52 L1396.7 1520.52 L1396.7 1568.04 L1390.27 1568.04 L1390.27 1520.52 Z" fill="#000000" fill-rule="nonzero" fill-opacity="1" /><path clip-path="url(#clip490)" d="M1415.93 1525.81 L1415.93 1562.76 L1423.69 1562.76 Q1433.53 1562.76 1438.08 1558.3 Q1442.66 1553.85 1442.66 1544.24 Q1442.66 1534.69 1438.08 1530.26 Q1433.53 1525.81 1423.69 1525.81 L1415.93 1525.81 M1409.5 1520.52 L1422.71 1520.52 Q1436.52 1520.52 1442.98 1526.28 Q1449.44 1532.01 1449.44 1544.24 Q1449.44 1556.52 1442.95 1562.28 Q1436.46 1568.04 1422.71 1568.04 L1409.5 1568.04 L1409.5 1520.52 Z" fill="#000000" fill-rule="nonzero" fill-opacity="1" /><polyline clip-path="url(#clip490)" style="stroke:#000000; stroke-linecap:round; stroke-linejoin:round; stroke-width:4; stroke-opacity:1; fill:none" points="309.866,1423.18 309.866,123.472 "/>
<polyline clip-path="url(#clip490)" style="stroke:#000000; stroke-linecap:round; stroke-linejoin:round; stroke-width:4; stroke-opacity:1; fill:none" points="309.866,1423.18 328.763,1423.18 "/>
<polyline clip-path="url(#clip490)" style="stroke:#000000; stroke-linecap:round; stroke-linejoin:round; stroke-width:4; stroke-opacity:1; fill:none" points="309.866,1101.08 328.763,1101.08 "/>
<polyline clip-path="url(#clip490)" style="stroke:#000000; stroke-linecap:round; stroke-linejoin:round; stroke-width:4; stroke-opacity:1; fill:none" points="309.866,778.989 328.763,778.989 "/>
<polyline clip-path="url(#clip490)" style="stroke:#000000; stroke-linecap:round; stroke-linejoin:round; stroke-width:4; stroke-opacity:1; fill:none" points="309.866,456.894 328.763,456.894 "/>
<polyline clip-path="url(#clip490)" style="stroke:#000000; stroke-linecap:round; stroke-linejoin:round; stroke-width:4; stroke-opacity:1; fill:none" points="309.866,134.799 328.763,134.799 "/>
<path clip-path="url(#clip490)" d="M126.205 1408.98 Q122.593 1408.98 120.765 1412.54 Q118.959 1416.08 118.959 1423.21 Q118.959 1430.32 120.765 1433.89 Q122.593 1437.43 126.205 1437.43 Q129.839 1437.43 131.644 1433.89 Q133.473 1430.32 133.473 1423.21 Q133.473 1416.08 131.644 1412.54 Q129.839 1408.98 126.205 1408.98 M126.205 1405.27 Q132.015 1405.27 135.07 1409.88 Q138.149 1414.46 138.149 1423.21 Q138.149 1431.94 135.07 1436.55 Q132.015 1441.13 126.205 1441.13 Q120.394 1441.13 117.316 1436.55 Q114.26 1431.94 114.26 1423.21 Q114.26 1414.46 117.316 1409.88 Q120.394 1405.27 126.205 1405.27 Z" fill="#000000" fill-rule="nonzero" fill-opacity="1" /><path clip-path="url(#clip490)" d="M146.366 1434.58 L151.251 1434.58 L151.251 1440.46 L146.366 1440.46 L146.366 1434.58 Z" fill="#000000" fill-rule="nonzero" fill-opacity="1" /><path clip-path="url(#clip490)" d="M171.436 1408.98 Q167.825 1408.98 165.996 1412.54 Q164.19 1416.08 164.19 1423.21 Q164.19 1430.32 165.996 1433.89 Q167.825 1437.43 171.436 1437.43 Q175.07 1437.43 176.876 1433.89 Q178.704 1430.32 178.704 1423.21 Q178.704 1416.08 176.876 1412.54 Q175.07 1408.98 171.436 1408.98 M171.436 1405.27 Q177.246 1405.27 180.301 1409.88 Q183.38 1414.46 183.38 1423.21 Q183.38 1431.94 180.301 1436.55 Q177.246 1441.13 171.436 1441.13 Q165.626 1441.13 162.547 1436.55 Q159.491 1431.94 159.491 1423.21 Q159.491 1414.46 162.547 1409.88 Q165.626 1405.27 171.436 1405.27 Z" fill="#000000" fill-rule="nonzero" fill-opacity="1" /><path clip-path="url(#clip490)" d="M201.598 1408.98 Q197.987 1408.98 196.158 1412.54 Q194.352 1416.08 194.352 1423.21 Q194.352 1430.32 196.158 1433.89 Q197.987 1437.43 201.598 1437.43 Q205.232 1437.43 207.037 1433.89 Q208.866 1430.32 208.866 1423.21 Q208.866 1416.08 207.037 1412.54 Q205.232 1408.98 201.598 1408.98 M201.598 1405.27 Q207.408 1405.27 210.463 1409.88 Q213.542 1414.46 213.542 1423.21 Q213.542 1431.94 210.463 1436.55 Q207.408 1441.13 201.598 1441.13 Q195.787 1441.13 192.709 1436.55 Q189.653 1431.94 189.653 1423.21 Q189.653 1414.46 192.709 1409.88 Q195.787 1405.27 201.598 1405.27 Z" fill="#000000" fill-rule="nonzero" fill-opacity="1" /><path clip-path="url(#clip490)" d="M231.76 1408.98 Q228.148 1408.98 226.32 1412.54 Q224.514 1416.08 224.514 1423.21 Q224.514 1430.32 226.32 1433.89 Q228.148 1437.43 231.76 1437.43 Q235.394 1437.43 237.199 1433.89 Q239.028 1430.32 239.028 1423.21 Q239.028 1416.08 237.199 1412.54 Q235.394 1408.98 231.76 1408.98 M231.76 1405.27 Q237.57 1405.27 240.625 1409.88 Q243.704 1414.46 243.704 1423.21 Q243.704 1431.94 240.625 1436.55 Q237.57 1441.13 231.76 1441.13 Q225.949 1441.13 222.871 1436.55 Q219.815 1431.94 219.815 1423.21 Q219.815 1414.46 222.871 1409.88 Q225.949 1405.27 231.76 1405.27 Z" fill="#000000" fill-rule="nonzero" fill-opacity="1" /><path clip-path="url(#clip490)" d="M261.921 1408.98 Q258.31 1408.98 256.482 1412.54 Q254.676 1416.08 254.676 1423.21 Q254.676 1430.32 256.482 1433.89 Q258.31 1437.43 261.921 1437.43 Q265.556 1437.43 267.361 1433.89 Q269.19 1430.32 269.19 1423.21 Q269.19 1416.08 267.361 1412.54 Q265.556 1408.98 261.921 1408.98 M261.921 1405.27 Q267.732 1405.27 270.787 1409.88 Q273.866 1414.46 273.866 1423.21 Q273.866 1431.94 270.787 1436.55 Q267.732 1441.13 261.921 1441.13 Q256.111 1441.13 253.033 1436.55 Q249.977 1431.94 249.977 1423.21 Q249.977 1414.46 253.033 1409.88 Q256.111 1405.27 261.921 1405.27 Z" fill="#000000" fill-rule="nonzero" fill-opacity="1" /><path clip-path="url(#clip490)" d="M127.2 1086.88 Q123.589 1086.88 121.76 1090.45 Q119.955 1093.99 119.955 1101.12 Q119.955 1108.23 121.76 1111.79 Q123.589 1115.33 127.2 1115.33 Q130.834 1115.33 132.64 1111.79 Q134.468 1108.23 134.468 1101.12 Q134.468 1093.99 132.64 1090.45 Q130.834 1086.88 127.2 1086.88 M127.2 1083.18 Q133.01 1083.18 136.066 1087.79 Q139.144 1092.37 139.144 1101.12 Q139.144 1109.85 136.066 1114.45 Q133.01 1119.04 127.2 1119.04 Q121.39 1119.04 118.311 1114.45 Q115.256 1109.85 115.256 1101.12 Q115.256 1092.37 118.311 1087.79 Q121.39 1083.18 127.2 1083.18 Z" fill="#000000" fill-rule="nonzero" fill-opacity="1" /><path clip-path="url(#clip490)" d="M147.362 1112.49 L152.246 1112.49 L152.246 1118.36 L147.362 1118.36 L147.362 1112.49 Z" fill="#000000" fill-rule="nonzero" fill-opacity="1" /><path clip-path="url(#clip490)" d="M172.431 1086.88 Q168.82 1086.88 166.991 1090.45 Q165.186 1093.99 165.186 1101.12 Q165.186 1108.23 166.991 1111.79 Q168.82 1115.33 172.431 1115.33 Q176.065 1115.33 177.871 1111.79 Q179.7 1108.23 179.7 1101.12 Q179.7 1093.99 177.871 1090.45 Q176.065 1086.88 172.431 1086.88 M172.431 1083.18 Q178.241 1083.18 181.297 1087.79 Q184.376 1092.37 184.376 1101.12 Q184.376 1109.85 181.297 1114.45 Q178.241 1119.04 172.431 1119.04 Q166.621 1119.04 163.542 1114.45 Q160.487 1109.85 160.487 1101.12 Q160.487 1092.37 163.542 1087.79 Q166.621 1083.18 172.431 1083.18 Z" fill="#000000" fill-rule="nonzero" fill-opacity="1" /><path clip-path="url(#clip490)" d="M202.593 1086.88 Q198.982 1086.88 197.153 1090.45 Q195.348 1093.99 195.348 1101.12 Q195.348 1108.23 197.153 1111.79 Q198.982 1115.33 202.593 1115.33 Q206.227 1115.33 208.033 1111.79 Q209.861 1108.23 209.861 1101.12 Q209.861 1093.99 208.033 1090.45 Q206.227 1086.88 202.593 1086.88 M202.593 1083.18 Q208.403 1083.18 211.459 1087.79 Q214.537 1092.37 214.537 1101.12 Q214.537 1109.85 211.459 1114.45 Q208.403 1119.04 202.593 1119.04 Q196.783 1119.04 193.704 1114.45 Q190.649 1109.85 190.649 1101.12 Q190.649 1092.37 193.704 1087.79 Q196.783 1083.18 202.593 1083.18 Z" fill="#000000" fill-rule="nonzero" fill-opacity="1" /><path clip-path="url(#clip490)" d="M226.783 1114.43 L243.102 1114.43 L243.102 1118.36 L221.158 1118.36 L221.158 1114.43 Q223.82 1111.67 228.403 1107.05 Q233.01 1102.39 234.19 1101.05 Q236.435 1098.53 237.315 1096.79 Q238.218 1095.03 238.218 1093.34 Q238.218 1090.59 236.273 1088.85 Q234.352 1087.11 231.25 1087.11 Q229.051 1087.11 226.598 1087.88 Q224.167 1088.64 221.389 1090.19 L221.389 1085.47 Q224.213 1084.34 226.667 1083.76 Q229.121 1083.18 231.158 1083.18 Q236.528 1083.18 239.722 1085.86 Q242.917 1088.55 242.917 1093.04 Q242.917 1095.17 242.107 1097.09 Q241.32 1098.99 239.213 1101.58 Q238.634 1102.25 235.533 1105.47 Q232.431 1108.67 226.783 1114.43 Z" fill="#000000" fill-rule="nonzero" fill-opacity="1" /><path clip-path="url(#clip490)" d="M252.963 1083.8 L271.32 1083.8 L271.32 1087.74 L257.246 1087.74 L257.246 1096.21 Q258.264 1095.86 259.283 1095.7 Q260.301 1095.52 261.32 1095.52 Q267.107 1095.52 270.486 1098.69 Q273.866 1101.86 273.866 1107.28 Q273.866 1112.86 270.394 1115.96 Q266.921 1119.04 260.602 1119.04 Q258.426 1119.04 256.158 1118.67 Q253.912 1118.3 251.505 1117.55 L251.505 1112.86 Q253.588 1113.99 255.81 1114.55 Q258.033 1115.1 260.509 1115.1 Q264.514 1115.1 266.852 1112.99 Q269.19 1110.89 269.19 1107.28 Q269.19 1103.67 266.852 1101.56 Q264.514 1099.45 260.509 1099.45 Q258.634 1099.45 256.759 1099.87 Q254.908 1100.29 252.963 1101.17 L252.963 1083.8 Z" fill="#000000" fill-rule="nonzero" fill-opacity="1" /><path clip-path="url(#clip490)" d="M126.205 764.788 Q122.593 764.788 120.765 768.353 Q118.959 771.895 118.959 779.024 Q118.959 786.131 120.765 789.695 Q122.593 793.237 126.205 793.237 Q129.839 793.237 131.644 789.695 Q133.473 786.131 133.473 779.024 Q133.473 771.895 131.644 768.353 Q129.839 764.788 126.205 764.788 M126.205 761.084 Q132.015 761.084 135.07 765.691 Q138.149 770.274 138.149 779.024 Q138.149 787.751 135.07 792.357 Q132.015 796.941 126.205 796.941 Q120.394 796.941 117.316 792.357 Q114.26 787.751 114.26 779.024 Q114.26 770.274 117.316 765.691 Q120.394 761.084 126.205 761.084 Z" fill="#000000" fill-rule="nonzero" fill-opacity="1" /><path clip-path="url(#clip490)" d="M146.366 790.39 L151.251 790.39 L151.251 796.269 L146.366 796.269 L146.366 790.39 Z" fill="#000000" fill-rule="nonzero" fill-opacity="1" /><path clip-path="url(#clip490)" d="M171.436 764.788 Q167.825 764.788 165.996 768.353 Q164.19 771.895 164.19 779.024 Q164.19 786.131 165.996 789.695 Q167.825 793.237 171.436 793.237 Q175.07 793.237 176.876 789.695 Q178.704 786.131 178.704 779.024 Q178.704 771.895 176.876 768.353 Q175.07 764.788 171.436 764.788 M171.436 761.084 Q177.246 761.084 180.301 765.691 Q183.38 770.274 183.38 779.024 Q183.38 787.751 180.301 792.357 Q177.246 796.941 171.436 796.941 Q165.626 796.941 162.547 792.357 Q159.491 787.751 159.491 779.024 Q159.491 770.274 162.547 765.691 Q165.626 761.084 171.436 761.084 Z" fill="#000000" fill-rule="nonzero" fill-opacity="1" /><path clip-path="url(#clip490)" d="M201.598 764.788 Q197.987 764.788 196.158 768.353 Q194.352 771.895 194.352 779.024 Q194.352 786.131 196.158 789.695 Q197.987 793.237 201.598 793.237 Q205.232 793.237 207.037 789.695 Q208.866 786.131 208.866 779.024 Q208.866 771.895 207.037 768.353 Q205.232 764.788 201.598 764.788 M201.598 761.084 Q207.408 761.084 210.463 765.691 Q213.542 770.274 213.542 779.024 Q213.542 787.751 210.463 792.357 Q207.408 796.941 201.598 796.941 Q195.787 796.941 192.709 792.357 Q189.653 787.751 189.653 779.024 Q189.653 770.274 192.709 765.691 Q195.787 761.084 201.598 761.084 Z" fill="#000000" fill-rule="nonzero" fill-opacity="1" /><path clip-path="url(#clip490)" d="M221.806 761.709 L240.162 761.709 L240.162 765.645 L226.088 765.645 L226.088 774.117 Q227.107 773.77 228.125 773.608 Q229.144 773.422 230.162 773.422 Q235.949 773.422 239.329 776.594 Q242.709 779.765 242.709 785.182 Q242.709 790.76 239.236 793.862 Q235.764 796.941 229.445 796.941 Q227.269 796.941 225 796.57 Q222.755 796.2 220.348 795.459 L220.348 790.76 Q222.431 791.894 224.653 792.45 Q226.875 793.006 229.352 793.006 Q233.357 793.006 235.695 790.899 Q238.033 788.793 238.033 785.182 Q238.033 781.57 235.695 779.464 Q233.357 777.357 229.352 777.357 Q227.477 777.357 225.602 777.774 Q223.75 778.191 221.806 779.07 L221.806 761.709 Z" fill="#000000" fill-rule="nonzero" fill-opacity="1" /><path clip-path="url(#clip490)" d="M261.921 764.788 Q258.31 764.788 256.482 768.353 Q254.676 771.895 254.676 779.024 Q254.676 786.131 256.482 789.695 Q258.31 793.237 261.921 793.237 Q265.556 793.237 267.361 789.695 Q269.19 786.131 269.19 779.024 Q269.19 771.895 267.361 768.353 Q265.556 764.788 261.921 764.788 M261.921 761.084 Q267.732 761.084 270.787 765.691 Q273.866 770.274 273.866 779.024 Q273.866 787.751 270.787 792.357 Q267.732 796.941 261.921 796.941 Q256.111 796.941 253.033 792.357 Q249.977 787.751 249.977 779.024 Q249.977 770.274 253.033 765.691 Q256.111 761.084 261.921 761.084 Z" fill="#000000" fill-rule="nonzero" fill-opacity="1" /><path clip-path="url(#clip490)" d="M127.2 442.693 Q123.589 442.693 121.76 446.258 Q119.955 449.799 119.955 456.929 Q119.955 464.035 121.76 467.6 Q123.589 471.142 127.2 471.142 Q130.834 471.142 132.64 467.6 Q134.468 464.035 134.468 456.929 Q134.468 449.799 132.64 446.258 Q130.834 442.693 127.2 442.693 M127.2 438.989 Q133.01 438.989 136.066 443.596 Q139.144 448.179 139.144 456.929 Q139.144 465.656 136.066 470.262 Q133.01 474.846 127.2 474.846 Q121.39 474.846 118.311 470.262 Q115.256 465.656 115.256 456.929 Q115.256 448.179 118.311 443.596 Q121.39 438.989 127.2 438.989 Z" fill="#000000" fill-rule="nonzero" fill-opacity="1" /><path clip-path="url(#clip490)" d="M147.362 468.295 L152.246 468.295 L152.246 474.174 L147.362 474.174 L147.362 468.295 Z" fill="#000000" fill-rule="nonzero" fill-opacity="1" /><path clip-path="url(#clip490)" d="M172.431 442.693 Q168.82 442.693 166.991 446.258 Q165.186 449.799 165.186 456.929 Q165.186 464.035 166.991 467.6 Q168.82 471.142 172.431 471.142 Q176.065 471.142 177.871 467.6 Q179.7 464.035 179.7 456.929 Q179.7 449.799 177.871 446.258 Q176.065 442.693 172.431 442.693 M172.431 438.989 Q178.241 438.989 181.297 443.596 Q184.376 448.179 184.376 456.929 Q184.376 465.656 181.297 470.262 Q178.241 474.846 172.431 474.846 Q166.621 474.846 163.542 470.262 Q160.487 465.656 160.487 456.929 Q160.487 448.179 163.542 443.596 Q166.621 438.989 172.431 438.989 Z" fill="#000000" fill-rule="nonzero" fill-opacity="1" /><path clip-path="url(#clip490)" d="M202.593 442.693 Q198.982 442.693 197.153 446.258 Q195.348 449.799 195.348 456.929 Q195.348 464.035 197.153 467.6 Q198.982 471.142 202.593 471.142 Q206.227 471.142 208.033 467.6 Q209.861 464.035 209.861 456.929 Q209.861 449.799 208.033 446.258 Q206.227 442.693 202.593 442.693 M202.593 438.989 Q208.403 438.989 211.459 443.596 Q214.537 448.179 214.537 456.929 Q214.537 465.656 211.459 470.262 Q208.403 474.846 202.593 474.846 Q196.783 474.846 193.704 470.262 Q190.649 465.656 190.649 456.929 Q190.649 448.179 193.704 443.596 Q196.783 438.989 202.593 438.989 Z" fill="#000000" fill-rule="nonzero" fill-opacity="1" /><path clip-path="url(#clip490)" d="M221.574 439.614 L243.797 439.614 L243.797 441.605 L231.25 474.174 L226.366 474.174 L238.172 443.549 L221.574 443.549 L221.574 439.614 Z" fill="#000000" fill-rule="nonzero" fill-opacity="1" /><path clip-path="url(#clip490)" d="M252.963 439.614 L271.32 439.614 L271.32 443.549 L257.246 443.549 L257.246 452.022 Q258.264 451.674 259.283 451.512 Q260.301 451.327 261.32 451.327 Q267.107 451.327 270.486 454.498 Q273.866 457.67 273.866 463.086 Q273.866 468.665 270.394 471.767 Q266.921 474.846 260.602 474.846 Q258.426 474.846 256.158 474.475 Q253.912 474.105 251.505 473.364 L251.505 468.665 Q253.588 469.799 255.81 470.355 Q258.033 470.91 260.509 470.91 Q264.514 470.91 266.852 468.804 Q269.19 466.697 269.19 463.086 Q269.19 459.475 266.852 457.369 Q264.514 455.262 260.509 455.262 Q258.634 455.262 256.759 455.679 Q254.908 456.096 252.963 456.975 L252.963 439.614 Z" fill="#000000" fill-rule="nonzero" fill-opacity="1" /><path clip-path="url(#clip490)" d="M126.205 120.598 Q122.593 120.598 120.765 124.162 Q118.959 127.704 118.959 134.834 Q118.959 141.94 120.765 145.505 Q122.593 149.047 126.205 149.047 Q129.839 149.047 131.644 145.505 Q133.473 141.94 133.473 134.834 Q133.473 127.704 131.644 124.162 Q129.839 120.598 126.205 120.598 M126.205 116.894 Q132.015 116.894 135.07 121.5 Q138.149 126.084 138.149 134.834 Q138.149 143.561 135.07 148.167 Q132.015 152.75 126.205 152.75 Q120.394 152.75 117.316 148.167 Q114.26 143.561 114.26 134.834 Q114.26 126.084 117.316 121.5 Q120.394 116.894 126.205 116.894 Z" fill="#000000" fill-rule="nonzero" fill-opacity="1" /><path clip-path="url(#clip490)" d="M146.366 146.199 L151.251 146.199 L151.251 152.079 L146.366 152.079 L146.366 146.199 Z" fill="#000000" fill-rule="nonzero" fill-opacity="1" /><path clip-path="url(#clip490)" d="M171.436 120.598 Q167.825 120.598 165.996 124.162 Q164.19 127.704 164.19 134.834 Q164.19 141.94 165.996 145.505 Q167.825 149.047 171.436 149.047 Q175.07 149.047 176.876 145.505 Q178.704 141.94 178.704 134.834 Q178.704 127.704 176.876 124.162 Q175.07 120.598 171.436 120.598 M171.436 116.894 Q177.246 116.894 180.301 121.5 Q183.38 126.084 183.38 134.834 Q183.38 143.561 180.301 148.167 Q177.246 152.75 171.436 152.75 Q165.626 152.75 162.547 148.167 Q159.491 143.561 159.491 134.834 Q159.491 126.084 162.547 121.5 Q165.626 116.894 171.436 116.894 Z" fill="#000000" fill-rule="nonzero" fill-opacity="1" /><path clip-path="url(#clip490)" d="M192.408 148.144 L200.047 148.144 L200.047 121.778 L191.737 123.445 L191.737 119.186 L200 117.519 L204.676 117.519 L204.676 148.144 L212.315 148.144 L212.315 152.079 L192.408 152.079 L192.408 148.144 Z" fill="#000000" fill-rule="nonzero" fill-opacity="1" /><path clip-path="url(#clip490)" d="M231.76 120.598 Q228.148 120.598 226.32 124.162 Q224.514 127.704 224.514 134.834 Q224.514 141.94 226.32 145.505 Q228.148 149.047 231.76 149.047 Q235.394 149.047 237.199 145.505 Q239.028 141.94 239.028 134.834 Q239.028 127.704 237.199 124.162 Q235.394 120.598 231.76 120.598 M231.76 116.894 Q237.57 116.894 240.625 121.5 Q243.704 126.084 243.704 134.834 Q243.704 143.561 240.625 148.167 Q237.57 152.75 231.76 152.75 Q225.949 152.75 222.871 148.167 Q219.815 143.561 219.815 134.834 Q219.815 126.084 222.871 121.5 Q225.949 116.894 231.76 116.894 Z" fill="#000000" fill-rule="nonzero" fill-opacity="1" /><path clip-path="url(#clip490)" d="M261.921 120.598 Q258.31 120.598 256.482 124.162 Q254.676 127.704 254.676 134.834 Q254.676 141.94 256.482 145.505 Q258.31 149.047 261.921 149.047 Q265.556 149.047 267.361 145.505 Q269.19 141.94 269.19 134.834 Q269.19 127.704 267.361 124.162 Q265.556 120.598 261.921 120.598 M261.921 116.894 Q267.732 116.894 270.787 121.5 Q273.866 126.084 273.866 134.834 Q273.866 143.561 270.787 148.167 Q267.732 152.75 261.921 152.75 Q256.111 152.75 253.033 148.167 Q249.977 143.561 249.977 134.834 Q249.977 126.084 253.033 121.5 Q256.111 116.894 261.921 116.894 Z" fill="#000000" fill-rule="nonzero" fill-opacity="1" /><path clip-path="url(#clip490)" d="M16.4842 1039.99 L16.4842 1012.68 L21.895 1012.68 L21.895 1033.56 L35.8996 1033.56 L35.8996 1014.71 L41.3104 1014.71 L41.3104 1033.56 L64.0042 1033.56 L64.0042 1039.99 L16.4842 1039.99 Z" fill="#000000" fill-rule="nonzero" fill-opacity="1" /><path clip-path="url(#clip490)" d="M46.0847 992.529 Q46.0847 999.627 47.7079 1002.36 Q49.3312 1005.1 53.2461 1005.1 Q56.3653 1005.1 58.2114 1003.06 Q60.0256 1001 60.0256 997.463 Q60.0256 992.593 56.5881 989.665 Q53.1188 986.704 47.3897 986.704 L46.0847 986.704 L46.0847 992.529 M43.6657 980.848 L64.0042 980.848 L64.0042 986.704 L58.5933 986.704 Q61.8398 988.71 63.3994 991.702 Q64.9272 994.693 64.9272 999.022 Q64.9272 1004.5 61.8716 1007.74 Q58.7843 1010.96 53.6281 1010.96 Q47.6125 1010.96 44.5569 1006.95 Q41.5014 1002.91 41.5014 994.916 L41.5014 986.704 L40.9285 986.704 Q36.8862 986.704 34.6901 989.378 Q32.4621 992.02 32.4621 996.826 Q32.4621 999.881 33.1941 1002.78 Q33.9262 1005.67 35.3903 1008.35 L29.9795 1008.35 Q28.7381 1005.13 28.1334 1002.11 Q27.4968 999.086 27.4968 996.221 Q27.4968 988.487 31.5072 984.667 Q35.5176 980.848 43.6657 980.848 Z" fill="#000000" fill-rule="nonzero" fill-opacity="1" /><path clip-path="url(#clip490)" d="M28.3562 968.785 L28.3562 962.929 L64.0042 962.929 L64.0042 968.785 L28.3562 968.785 M14.479 968.785 L14.479 962.929 L21.895 962.929 L21.895 968.785 L14.479 968.785 Z" fill="#000000" fill-rule="nonzero" fill-opacity="1" /><path clip-path="url(#clip490)" d="M33.8307 930.018 Q33.2578 931.005 33.0032 932.182 Q32.7167 933.328 32.7167 934.728 Q32.7167 939.694 35.9632 942.367 Q39.1779 945.009 45.2253 945.009 L64.0042 945.009 L64.0042 950.897 L28.3562 950.897 L28.3562 945.009 L33.8944 945.009 Q30.6479 943.163 29.0883 940.203 Q27.4968 937.243 27.4968 933.01 Q27.4968 932.405 27.5923 931.673 Q27.656 930.941 27.8151 930.05 L33.8307 930.018 Z" fill="#000000" fill-rule="nonzero" fill-opacity="1" /><path clip-path="url(#clip490)" d="M16.4842 902.9 L16.4842 896.471 L58.5933 896.471 L58.5933 873.331 L64.0042 873.331 L64.0042 902.9 L16.4842 902.9 Z" fill="#000000" fill-rule="nonzero" fill-opacity="1" /><path clip-path="url(#clip490)" d="M32.4621 854.17 Q32.4621 858.881 36.1542 861.618 Q39.8145 864.356 46.212 864.356 Q52.6095 864.356 56.3017 861.65 Q59.9619 858.913 59.9619 854.17 Q59.9619 849.492 56.2698 846.754 Q52.5777 844.017 46.212 844.017 Q39.8781 844.017 36.186 846.754 Q32.4621 849.492 32.4621 854.17 M27.4968 854.17 Q27.4968 846.532 32.4621 842.171 Q37.4273 837.811 46.212 837.811 Q54.9649 837.811 59.9619 842.171 Q64.9272 846.532 64.9272 854.17 Q64.9272 861.841 59.9619 866.202 Q54.9649 870.53 46.212 870.53 Q37.4273 870.53 32.4621 866.202 Q27.4968 861.841 27.4968 854.17 Z" fill="#000000" fill-rule="nonzero" fill-opacity="1" /><path clip-path="url(#clip490)" d="M46.0847 811.902 Q46.0847 819 47.7079 821.737 Q49.3312 824.474 53.2461 824.474 Q56.3653 824.474 58.2114 822.437 Q60.0256 820.369 60.0256 816.836 Q60.0256 811.966 56.5881 809.038 Q53.1188 806.078 47.3897 806.078 L46.0847 806.078 L46.0847 811.902 M43.6657 800.221 L64.0042 800.221 L64.0042 806.078 L58.5933 806.078 Q61.8398 808.083 63.3994 811.075 Q64.9272 814.067 64.9272 818.395 Q64.9272 823.87 61.8716 827.116 Q58.7843 830.331 53.6281 830.331 Q47.6125 830.331 44.5569 826.32 Q41.5014 822.278 41.5014 814.289 L41.5014 806.078 L40.9285 806.078 Q36.8862 806.078 34.6901 808.751 Q32.4621 811.393 32.4621 816.199 Q32.4621 819.255 33.1941 822.151 Q33.9262 825.047 35.3903 827.721 L29.9795 827.721 Q28.7381 824.506 28.1334 821.483 Q27.4968 818.459 27.4968 815.594 Q27.4968 807.86 31.5072 804.041 Q35.5176 800.221 43.6657 800.221 Z" fill="#000000" fill-rule="nonzero" fill-opacity="1" /><path clip-path="url(#clip490)" d="M33.7671 764.7 L14.479 764.7 L14.479 758.844 L64.0042 758.844 L64.0042 764.7 L58.657 764.7 Q61.8398 766.547 63.3994 769.379 Q64.9272 772.18 64.9272 776.127 Q64.9272 782.588 59.771 786.662 Q54.6147 790.704 46.212 790.704 Q37.8093 790.704 32.6531 786.662 Q27.4968 782.588 27.4968 776.127 Q27.4968 772.18 29.0564 769.379 Q30.5842 766.547 33.7671 764.7 M46.212 784.657 Q52.6732 784.657 56.3653 782.015 Q60.0256 779.342 60.0256 774.695 Q60.0256 770.048 56.3653 767.374 Q52.6732 764.7 46.212 764.7 Q39.7508 764.7 36.0905 767.374 Q32.3984 770.048 32.3984 774.695 Q32.3984 779.342 36.0905 782.015 Q39.7508 784.657 46.212 784.657 Z" fill="#000000" fill-rule="nonzero" fill-opacity="1" /><path clip-path="url(#clip490)" d="M16.4842 730.039 L16.4842 723.546 L56.6518 713.552 L16.4842 703.59 L16.4842 696.365 L56.6518 686.37 L16.4842 676.408 L16.4842 669.883 L64.0042 681.819 L64.0042 689.903 L22.7544 699.929 L64.0042 710.051 L64.0042 718.135 L16.4842 730.039 Z" fill="#000000" fill-rule="nonzero" fill-opacity="1" /><path clip-path="url(#clip490)" d="M44.7161 634.936 L47.5806 634.936 L47.5806 661.862 Q53.6281 661.481 56.8109 658.234 Q59.9619 654.956 59.9619 649.131 Q59.9619 645.757 59.1344 642.606 Q58.3069 639.423 56.6518 636.304 L62.1899 636.304 Q63.5267 639.455 64.227 642.765 Q64.9272 646.076 64.9272 649.481 Q64.9272 658.011 59.9619 663.008 Q54.9967 667.974 46.5303 667.974 Q37.7774 667.974 32.6531 663.263 Q27.4968 658.52 27.4968 650.5 Q27.4968 643.306 32.1438 639.137 Q36.7589 634.936 44.7161 634.936 M42.9973 640.792 Q38.1912 640.856 35.3266 643.497 Q32.4621 646.107 32.4621 650.436 Q32.4621 655.338 35.2312 658.298 Q38.0002 661.226 43.0292 661.671 L42.9973 640.792 Z" fill="#000000" fill-rule="nonzero" fill-opacity="1" /><path clip-path="url(#clip490)" d="M28.3562 625.323 L28.3562 619.467 L64.0042 619.467 L64.0042 625.323 L28.3562 625.323 M14.479 625.323 L14.479 619.467 L21.895 619.467 L21.895 625.323 L14.479 625.323 Z" fill="#000000" fill-rule="nonzero" fill-opacity="1" /><path clip-path="url(#clip490)" d="M45.7664 583.755 Q39.4007 583.755 35.8996 586.397 Q32.3984 589.007 32.3984 593.749 Q32.3984 598.46 35.8996 601.102 Q39.4007 603.712 45.7664 603.712 Q52.1003 603.712 55.6014 601.102 Q59.1026 598.46 59.1026 593.749 Q59.1026 589.007 55.6014 586.397 Q52.1003 583.755 45.7664 583.755 M59.58 577.899 Q68.683 577.899 73.1071 581.941 Q77.5631 585.983 77.5631 594.322 Q77.5631 597.41 77.0857 600.147 Q76.6401 602.884 75.6852 605.462 L69.9879 605.462 Q71.3884 602.884 72.0568 600.37 Q72.7252 597.855 72.7252 595.245 Q72.7252 589.484 69.7015 586.62 Q66.7096 583.755 60.6303 583.755 L57.7339 583.755 Q60.885 585.569 62.4446 588.402 Q64.0042 591.235 64.0042 595.182 Q64.0042 601.738 59.0071 605.749 Q54.01 609.759 45.7664 609.759 Q37.491 609.759 32.4939 605.749 Q27.4968 601.738 27.4968 595.182 Q27.4968 591.235 29.0564 588.402 Q30.616 585.569 33.7671 583.755 L28.3562 583.755 L28.3562 577.899 L59.58 577.899 Z" fill="#000000" fill-rule="nonzero" fill-opacity="1" /><path clip-path="url(#clip490)" d="M42.4881 536.203 L64.0042 536.203 L64.0042 542.06 L42.679 542.06 Q37.6183 542.06 35.1038 544.033 Q32.5894 546.007 32.5894 549.953 Q32.5894 554.696 35.6131 557.433 Q38.6368 560.17 43.8567 560.17 L64.0042 560.17 L64.0042 566.059 L14.479 566.059 L14.479 560.17 L33.8944 560.17 Q30.6797 558.07 29.0883 555.237 Q27.4968 552.372 27.4968 548.648 Q27.4968 542.505 31.3163 539.354 Q35.1038 536.203 42.4881 536.203 Z" fill="#000000" fill-rule="nonzero" fill-opacity="1" /><path clip-path="url(#clip490)" d="M18.2347 518.73 L28.3562 518.73 L28.3562 506.667 L32.9077 506.667 L32.9077 518.73 L52.2594 518.73 Q56.6199 518.73 57.8613 517.552 Q59.1026 516.342 59.1026 512.682 L59.1026 506.667 L64.0042 506.667 L64.0042 512.682 Q64.0042 519.462 61.4897 522.04 Q58.9434 524.618 52.2594 524.618 L32.9077 524.618 L32.9077 528.915 L28.3562 528.915 L28.3562 524.618 L18.2347 524.618 L18.2347 518.73 Z" fill="#000000" fill-rule="nonzero" fill-opacity="1" /><path clip-path="url(#clip490)" d="M520.583 12.096 L555.34 12.096 L555.34 18.9825 L528.766 18.9825 L528.766 36.8065 L552.747 36.8065 L552.747 43.6931 L528.766 43.6931 L528.766 72.576 L520.583 72.576 L520.583 12.096 Z" fill="#000000" fill-rule="nonzero" fill-opacity="1" /><path clip-path="url(#clip490)" d="M580.982 49.7694 Q571.949 49.7694 568.465 51.8354 Q564.981 53.9013 564.981 58.8839 Q564.981 62.8538 567.574 65.2034 Q570.207 67.5124 574.703 67.5124 Q580.901 67.5124 584.628 63.1374 Q588.395 58.7219 588.395 51.4303 L588.395 49.7694 L580.982 49.7694 M595.849 46.6907 L595.849 72.576 L588.395 72.576 L588.395 65.6895 Q585.843 69.8214 582.035 71.8063 Q578.227 73.7508 572.718 73.7508 Q565.751 73.7508 561.619 69.8619 Q557.527 65.9325 557.527 59.3701 Q557.527 51.7138 562.632 47.825 Q567.776 43.9361 577.944 43.9361 L588.395 43.9361 L588.395 43.2069 Q588.395 38.0623 584.993 35.2672 Q581.63 32.4315 575.513 32.4315 Q571.625 32.4315 567.938 33.3632 Q564.252 34.295 560.849 36.1584 L560.849 29.2718 Q564.941 27.692 568.789 26.9223 Q572.637 26.1121 576.283 26.1121 Q586.127 26.1121 590.988 31.2163 Q595.849 36.3204 595.849 46.6907 Z" fill="#000000" fill-rule="nonzero" fill-opacity="1" /><path clip-path="url(#clip490)" d="M611.202 27.2059 L618.656 27.2059 L618.656 72.576 L611.202 72.576 L611.202 27.2059 M611.202 9.54393 L618.656 9.54393 L618.656 18.9825 L611.202 18.9825 L611.202 9.54393 Z" fill="#000000" fill-rule="nonzero" fill-opacity="1" /><path clip-path="url(#clip490)" d="M660.542 34.1734 Q659.286 33.4443 657.787 33.1202 Q656.329 32.7556 654.547 32.7556 Q648.227 32.7556 644.824 36.8875 Q641.462 40.9789 641.462 48.6757 L641.462 72.576 L633.968 72.576 L633.968 27.2059 L641.462 27.2059 L641.462 34.2544 Q643.812 30.1225 647.579 28.1376 Q651.346 26.1121 656.734 26.1121 Q657.504 26.1121 658.435 26.2337 Q659.367 26.3147 660.501 26.5172 L660.542 34.1734 Z" fill="#000000" fill-rule="nonzero" fill-opacity="1" /><path clip-path="url(#clip490)" d="M695.056 12.096 L703.238 12.096 L703.238 65.6895 L732.688 65.6895 L732.688 72.576 L695.056 72.576 L695.056 12.096 Z" fill="#000000" fill-rule="nonzero" fill-opacity="1" /><path clip-path="url(#clip490)" d="M757.075 32.4315 Q751.08 32.4315 747.596 37.1306 Q744.112 41.7891 744.112 49.9314 Q744.112 58.0738 747.555 62.7728 Q751.039 67.4314 757.075 67.4314 Q763.03 67.4314 766.514 62.7323 Q769.997 58.0333 769.997 49.9314 Q769.997 41.8701 766.514 37.1711 Q763.03 32.4315 757.075 32.4315 M757.075 26.1121 Q766.797 26.1121 772.347 32.4315 Q777.897 38.7509 777.897 49.9314 Q777.897 61.0714 772.347 67.4314 Q766.797 73.7508 757.075 73.7508 Q747.312 73.7508 741.762 67.4314 Q736.253 61.0714 736.253 49.9314 Q736.253 38.7509 741.762 32.4315 Q747.312 26.1121 757.075 26.1121 Z" fill="#000000" fill-rule="nonzero" fill-opacity="1" /><path clip-path="url(#clip490)" d="M810.871 49.7694 Q801.837 49.7694 798.354 51.8354 Q794.87 53.9013 794.87 58.8839 Q794.87 62.8538 797.462 65.2034 Q800.096 67.5124 804.592 67.5124 Q810.79 67.5124 814.517 63.1374 Q818.284 58.7219 818.284 51.4303 L818.284 49.7694 L810.871 49.7694 M825.738 46.6907 L825.738 72.576 L818.284 72.576 L818.284 65.6895 Q815.732 69.8214 811.924 71.8063 Q808.116 73.7508 802.607 73.7508 Q795.64 73.7508 791.508 69.8619 Q787.416 65.9325 787.416 59.3701 Q787.416 51.7138 792.52 47.825 Q797.665 43.9361 807.833 43.9361 L818.284 43.9361 L818.284 43.2069 Q818.284 38.0623 814.881 35.2672 Q811.519 32.4315 805.402 32.4315 Q801.513 32.4315 797.827 33.3632 Q794.141 34.295 790.738 36.1584 L790.738 29.2718 Q794.829 27.692 798.678 26.9223 Q802.526 26.1121 806.172 26.1121 Q816.016 26.1121 820.877 31.2163 Q825.738 36.3204 825.738 46.6907 Z" fill="#000000" fill-rule="nonzero" fill-opacity="1" /><path clip-path="url(#clip490)" d="M870.946 34.0924 L870.946 9.54393 L878.399 9.54393 L878.399 72.576 L870.946 72.576 L870.946 65.7705 Q868.596 69.8214 864.991 71.8063 Q861.426 73.7508 856.403 73.7508 Q848.18 73.7508 842.995 67.1883 Q837.85 60.6258 837.85 49.9314 Q837.85 39.2371 842.995 32.6746 Q848.18 26.1121 856.403 26.1121 Q861.426 26.1121 864.991 28.0971 Q868.596 30.0415 870.946 34.0924 M845.547 49.9314 Q845.547 58.1548 848.909 62.8538 Q852.312 67.5124 858.226 67.5124 Q864.14 67.5124 867.543 62.8538 Q870.946 58.1548 870.946 49.9314 Q870.946 41.7081 867.543 37.0496 Q864.14 32.3505 858.226 32.3505 Q852.312 32.3505 848.909 37.0496 Q845.547 41.7081 845.547 49.9314 Z" fill="#000000" fill-rule="nonzero" fill-opacity="1" /><path clip-path="url(#clip490)" d="M915.06 12.096 L923.324 12.096 L936.044 63.2184 L948.723 12.096 L957.919 12.096 L970.639 63.2184 L983.318 12.096 L991.622 12.096 L976.431 72.576 L966.142 72.576 L953.382 20.0763 L940.5 72.576 L930.211 72.576 L915.06 12.096 Z" fill="#000000" fill-rule="nonzero" fill-opacity="1" /><path clip-path="url(#clip490)" d="M1036.1 48.0275 L1036.1 51.6733 L1001.83 51.6733 Q1002.32 59.3701 1006.45 63.421 Q1010.62 67.4314 1018.03 67.4314 Q1022.33 67.4314 1026.34 66.3781 Q1030.39 65.3249 1034.36 63.2184 L1034.36 70.267 Q1030.35 71.9684 1026.14 72.8596 Q1021.92 73.7508 1017.59 73.7508 Q1006.73 73.7508 1000.37 67.4314 Q994.053 61.1119 994.053 50.3365 Q994.053 39.1965 1000.05 32.6746 Q1006.08 26.1121 1016.29 26.1121 Q1025.45 26.1121 1030.75 32.0264 Q1036.1 37.9003 1036.1 48.0275 M1028.65 45.84 Q1028.57 39.7232 1025.2 36.0774 Q1021.88 32.4315 1016.37 32.4315 Q1010.13 32.4315 1006.37 35.9558 Q1002.64 39.4801 1002.07 45.8805 L1028.65 45.84 Z" fill="#000000" fill-rule="nonzero" fill-opacity="1" /><path clip-path="url(#clip490)" d="M1048.33 27.2059 L1055.79 27.2059 L1055.79 72.576 L1048.33 72.576 L1048.33 27.2059 M1048.33 9.54393 L1055.79 9.54393 L1055.79 18.9825 L1048.33 18.9825 L1048.33 9.54393 Z" fill="#000000" fill-rule="nonzero" fill-opacity="1" /><path clip-path="url(#clip490)" d="M1101.24 49.3643 Q1101.24 41.2625 1097.88 36.8065 Q1094.56 32.3505 1088.52 32.3505 Q1082.52 32.3505 1079.16 36.8065 Q1075.84 41.2625 1075.84 49.3643 Q1075.84 57.4256 1079.16 61.8816 Q1082.52 66.3376 1088.52 66.3376 Q1094.56 66.3376 1097.88 61.8816 Q1101.24 57.4256 1101.24 49.3643 M1108.69 66.9452 Q1108.69 78.5308 1103.55 84.1616 Q1098.4 89.8329 1087.79 89.8329 Q1083.86 89.8329 1080.38 89.2252 Q1076.89 88.6581 1073.61 87.4428 L1073.61 80.1917 Q1076.89 81.9741 1080.09 82.8248 Q1083.29 83.6755 1086.62 83.6755 Q1093.95 83.6755 1097.59 79.8271 Q1101.24 76.0193 1101.24 68.282 L1101.24 64.5957 Q1098.93 68.6061 1095.33 70.5911 Q1091.72 72.576 1086.7 72.576 Q1078.35 72.576 1073.25 66.2161 Q1068.14 59.8562 1068.14 49.3643 Q1068.14 38.832 1073.25 32.472 Q1078.35 26.1121 1086.7 26.1121 Q1091.72 26.1121 1095.33 28.0971 Q1098.93 30.082 1101.24 34.0924 L1101.24 27.2059 L1108.69 27.2059 L1108.69 66.9452 Z" fill="#000000" fill-rule="nonzero" fill-opacity="1" /><path clip-path="url(#clip490)" d="M1161.76 45.1919 L1161.76 72.576 L1154.31 72.576 L1154.31 45.4349 Q1154.31 38.994 1151.8 35.7938 Q1149.28 32.5936 1144.26 32.5936 Q1138.22 32.5936 1134.74 36.4419 Q1131.26 40.2903 1131.26 46.9338 L1131.26 72.576 L1123.76 72.576 L1123.76 9.54393 L1131.26 9.54393 L1131.26 34.2544 Q1133.93 30.163 1137.54 28.1376 Q1141.18 26.1121 1145.92 26.1121 Q1153.74 26.1121 1157.75 30.9732 Q1161.76 35.7938 1161.76 45.1919 Z" fill="#000000" fill-rule="nonzero" fill-opacity="1" /><path clip-path="url(#clip490)" d="M1184 14.324 L1184 27.2059 L1199.35 27.2059 L1199.35 32.9987 L1184 32.9987 L1184 57.6282 Q1184 63.1779 1185.5 64.7578 Q1187.04 66.3376 1191.7 66.3376 L1199.35 66.3376 L1199.35 72.576 L1191.7 72.576 Q1183.07 72.576 1179.79 69.3758 Q1176.51 66.1351 1176.51 57.6282 L1176.51 32.9987 L1171.04 32.9987 L1171.04 27.2059 L1176.51 27.2059 L1176.51 14.324 L1184 14.324 Z" fill="#000000" fill-rule="nonzero" fill-opacity="1" /><path clip-path="url(#clip490)" d="M1238.08 28.5427 L1238.08 35.5912 Q1234.92 33.9709 1231.52 33.1607 Q1228.11 32.3505 1224.47 32.3505 Q1218.92 32.3505 1216.12 34.0519 Q1213.37 35.7533 1213.37 39.156 Q1213.37 41.7486 1215.35 43.2475 Q1217.34 44.7058 1223.33 46.0426 L1225.89 46.6097 Q1233.83 48.3111 1237.15 51.4303 Q1240.51 54.509 1240.51 60.0587 Q1240.51 66.3781 1235.49 70.0644 Q1230.5 73.7508 1221.75 73.7508 Q1218.11 73.7508 1214.14 73.0216 Q1210.21 72.3329 1205.83 70.9151 L1205.83 63.2184 Q1209.97 65.3654 1213.98 66.4591 Q1217.99 67.5124 1221.92 67.5124 Q1227.18 67.5124 1230.02 65.73 Q1232.85 63.9071 1232.85 60.6258 Q1232.85 57.5877 1230.79 55.9673 Q1228.76 54.3469 1221.84 52.8481 L1219.24 52.2405 Q1212.32 50.7821 1209.24 47.7845 Q1206.16 44.7463 1206.16 39.4801 Q1206.16 33.0797 1210.7 29.5959 Q1215.23 26.1121 1223.58 26.1121 Q1227.71 26.1121 1231.35 26.7198 Q1235 27.3274 1238.08 28.5427 Z" fill="#000000" fill-rule="nonzero" fill-opacity="1" /><path clip-path="url(#clip490)" d="M1285.96 65.7705 L1285.96 89.8329 L1278.47 89.8329 L1278.47 27.2059 L1285.96 27.2059 L1285.96 34.0924 Q1288.31 30.0415 1291.88 28.0971 Q1295.48 26.1121 1300.46 26.1121 Q1308.73 26.1121 1313.87 32.6746 Q1319.06 39.2371 1319.06 49.9314 Q1319.06 60.6258 1313.87 67.1883 Q1308.73 73.7508 1300.46 73.7508 Q1295.48 73.7508 1291.88 71.8063 Q1288.31 69.8214 1285.96 65.7705 M1311.32 49.9314 Q1311.32 41.7081 1307.92 37.0496 Q1304.55 32.3505 1298.64 32.3505 Q1292.73 32.3505 1289.32 37.0496 Q1285.96 41.7081 1285.96 49.9314 Q1285.96 58.1548 1289.32 62.8538 Q1292.73 67.5124 1298.64 67.5124 Q1304.55 67.5124 1307.92 62.8538 Q1311.32 58.1548 1311.32 49.9314 Z" fill="#000000" fill-rule="nonzero" fill-opacity="1" /><path clip-path="url(#clip490)" d="M1370.22 48.0275 L1370.22 51.6733 L1335.95 51.6733 Q1336.44 59.3701 1340.57 63.421 Q1344.74 67.4314 1352.15 67.4314 Q1356.45 67.4314 1360.46 66.3781 Q1364.51 65.3249 1368.48 63.2184 L1368.48 70.267 Q1364.47 71.9684 1360.25 72.8596 Q1356.04 73.7508 1351.71 73.7508 Q1340.85 73.7508 1334.49 67.4314 Q1328.17 61.1119 1328.17 50.3365 Q1328.17 39.1965 1334.17 32.6746 Q1340.2 26.1121 1350.41 26.1121 Q1359.57 26.1121 1364.87 32.0264 Q1370.22 37.9003 1370.22 48.0275 M1362.77 45.84 Q1362.69 39.7232 1359.32 36.0774 Q1356 32.4315 1350.49 32.4315 Q1344.25 32.4315 1340.49 35.9558 Q1336.76 39.4801 1336.19 45.8805 L1362.77 45.84 Z" fill="#000000" fill-rule="nonzero" fill-opacity="1" /><path clip-path="url(#clip490)" d="M1408.74 34.1734 Q1407.49 33.4443 1405.99 33.1202 Q1404.53 32.7556 1402.75 32.7556 Q1396.43 32.7556 1393.03 36.8875 Q1389.66 40.9789 1389.66 48.6757 L1389.66 72.576 L1382.17 72.576 L1382.17 27.2059 L1389.66 27.2059 L1389.66 34.2544 Q1392.01 30.1225 1395.78 28.1376 Q1399.55 26.1121 1404.94 26.1121 Q1405.71 26.1121 1406.64 26.2337 Q1407.57 26.3147 1408.7 26.5172 L1408.74 34.1734 Z" fill="#000000" fill-rule="nonzero" fill-opacity="1" /><path clip-path="url(#clip490)" d="M1443.26 12.096 L1451.44 12.096 L1451.44 65.6895 L1480.89 65.6895 L1480.89 72.576 L1443.26 72.576 L1443.26 12.096 Z" fill="#000000" fill-rule="nonzero" fill-opacity="1" /><path clip-path="url(#clip490)" d="M1505.28 32.4315 Q1499.28 32.4315 1495.8 37.1306 Q1492.31 41.7891 1492.31 49.9314 Q1492.31 58.0738 1495.76 62.7728 Q1499.24 67.4314 1505.28 67.4314 Q1511.23 67.4314 1514.72 62.7323 Q1518.2 58.0333 1518.2 49.9314 Q1518.2 41.8701 1514.72 37.1711 Q1511.23 32.4315 1505.28 32.4315 M1505.28 26.1121 Q1515 26.1121 1520.55 32.4315 Q1526.1 38.7509 1526.1 49.9314 Q1526.1 61.0714 1520.55 67.4314 Q1515 73.7508 1505.28 73.7508 Q1495.51 73.7508 1489.96 67.4314 Q1484.46 61.0714 1484.46 49.9314 Q1484.46 38.7509 1489.96 32.4315 Q1495.51 26.1121 1505.28 26.1121 Z" fill="#000000" fill-rule="nonzero" fill-opacity="1" /><path clip-path="url(#clip490)" d="M1559.07 49.7694 Q1550.04 49.7694 1546.56 51.8354 Q1543.07 53.9013 1543.07 58.8839 Q1543.07 62.8538 1545.66 65.2034 Q1548.3 67.5124 1552.79 67.5124 Q1558.99 67.5124 1562.72 63.1374 Q1566.49 58.7219 1566.49 51.4303 L1566.49 49.7694 L1559.07 49.7694 M1573.94 46.6907 L1573.94 72.576 L1566.49 72.576 L1566.49 65.6895 Q1563.93 69.8214 1560.13 71.8063 Q1556.32 73.7508 1550.81 73.7508 Q1543.84 73.7508 1539.71 69.8619 Q1535.62 65.9325 1535.62 59.3701 Q1535.62 51.7138 1540.72 47.825 Q1545.87 43.9361 1556.03 43.9361 L1566.49 43.9361 L1566.49 43.2069 Q1566.49 38.0623 1563.08 35.2672 Q1559.72 32.4315 1553.6 32.4315 Q1549.72 32.4315 1546.03 33.3632 Q1542.34 34.295 1538.94 36.1584 L1538.94 29.2718 Q1543.03 27.692 1546.88 26.9223 Q1550.73 26.1121 1554.37 26.1121 Q1564.22 26.1121 1569.08 31.2163 Q1573.94 36.3204 1573.94 46.6907 Z" fill="#000000" fill-rule="nonzero" fill-opacity="1" /><path clip-path="url(#clip490)" d="M1619.15 34.0924 L1619.15 9.54393 L1626.6 9.54393 L1626.6 72.576 L1619.15 72.576 L1619.15 65.7705 Q1616.8 69.8214 1613.19 71.8063 Q1609.63 73.7508 1604.61 73.7508 Q1596.38 73.7508 1591.2 67.1883 Q1586.05 60.6258 1586.05 49.9314 Q1586.05 39.2371 1591.2 32.6746 Q1596.38 26.1121 1604.61 26.1121 Q1609.63 26.1121 1613.19 28.0971 Q1616.8 30.0415 1619.15 34.0924 M1593.75 49.9314 Q1593.75 58.1548 1597.11 62.8538 Q1600.51 67.5124 1606.43 67.5124 Q1612.34 67.5124 1615.75 62.8538 Q1619.15 58.1548 1619.15 49.9314 Q1619.15 41.7081 1615.75 37.0496 Q1612.34 32.3505 1606.43 32.3505 Q1600.51 32.3505 1597.11 37.0496 Q1593.75 41.7081 1593.75 49.9314 Z" fill="#000000" fill-rule="nonzero" fill-opacity="1" /><path clip-path="url(#clip490)" d="M1664.56 46.5287 L1686.39 46.5287 L1686.39 53.1722 L1664.56 53.1722 L1664.56 46.5287 Z" fill="#000000" fill-rule="nonzero" fill-opacity="1" /><path clip-path="url(#clip490)" d="M1724.96 12.096 L1733.14 12.096 L1733.14 72.576 L1724.96 72.576 L1724.96 12.096 Z" fill="#000000" fill-rule="nonzero" fill-opacity="1" /><path clip-path="url(#clip490)" d="M1756.47 14.324 L1756.47 27.2059 L1771.83 27.2059 L1771.83 32.9987 L1756.47 32.9987 L1756.47 57.6282 Q1756.47 63.1779 1757.97 64.7578 Q1759.51 66.3376 1764.17 66.3376 L1771.83 66.3376 L1771.83 72.576 L1764.17 72.576 Q1755.54 72.576 1752.26 69.3758 Q1748.98 66.1351 1748.98 57.6282 L1748.98 32.9987 L1743.51 32.9987 L1743.51 27.2059 L1748.98 27.2059 L1748.98 14.324 L1756.47 14.324 Z" fill="#000000" fill-rule="nonzero" fill-opacity="1" /><path clip-path="url(#clip490)" d="M1820.44 48.0275 L1820.44 51.6733 L1786.17 51.6733 Q1786.65 59.3701 1790.78 63.421 Q1794.96 67.4314 1802.37 67.4314 Q1806.66 67.4314 1810.67 66.3781 Q1814.73 65.3249 1818.7 63.2184 L1818.7 70.267 Q1814.68 71.9684 1810.47 72.8596 Q1806.26 73.7508 1801.92 73.7508 Q1791.07 73.7508 1784.71 67.4314 Q1778.39 61.1119 1778.39 50.3365 Q1778.39 39.1965 1784.38 32.6746 Q1790.42 26.1121 1800.63 26.1121 Q1809.78 26.1121 1815.09 32.0264 Q1820.44 37.9003 1820.44 48.0275 M1812.98 45.84 Q1812.9 39.7232 1809.54 36.0774 Q1806.22 32.4315 1800.71 32.4315 Q1794.47 32.4315 1790.7 35.9558 Q1786.98 39.4801 1786.41 45.8805 L1812.98 45.84 Z" fill="#000000" fill-rule="nonzero" fill-opacity="1" /><path clip-path="url(#clip490)" d="M1858.96 34.1734 Q1857.71 33.4443 1856.21 33.1202 Q1854.75 32.7556 1852.97 32.7556 Q1846.65 32.7556 1843.24 36.8875 Q1839.88 40.9789 1839.88 48.6757 L1839.88 72.576 L1832.39 72.576 L1832.39 27.2059 L1839.88 27.2059 L1839.88 34.2544 Q1842.23 30.1225 1846 28.1376 Q1849.77 26.1121 1855.15 26.1121 Q1855.92 26.1121 1856.85 26.2337 Q1857.79 26.3147 1858.92 26.5172 L1858.96 34.1734 Z" fill="#000000" fill-rule="nonzero" fill-opacity="1" /><path clip-path="url(#clip490)" d="M1887.4 49.7694 Q1878.37 49.7694 1874.88 51.8354 Q1871.4 53.9013 1871.4 58.8839 Q1871.4 62.8538 1873.99 65.2034 Q1876.62 67.5124 1881.12 67.5124 Q1887.32 67.5124 1891.04 63.1374 Q1894.81 58.7219 1894.81 51.4303 L1894.81 49.7694 L1887.4 49.7694 M1902.27 46.6907 L1902.27 72.576 L1894.81 72.576 L1894.81 65.6895 Q1892.26 69.8214 1888.45 71.8063 Q1884.64 73.7508 1879.13 73.7508 Q1872.17 73.7508 1868.04 69.8619 Q1863.94 65.9325 1863.94 59.3701 Q1863.94 51.7138 1869.05 47.825 Q1874.19 43.9361 1884.36 43.9361 L1894.81 43.9361 L1894.81 43.2069 Q1894.81 38.0623 1891.41 35.2672 Q1888.05 32.4315 1881.93 32.4315 Q1878.04 32.4315 1874.35 33.3632 Q1870.67 34.295 1867.27 36.1584 L1867.27 29.2718 Q1871.36 27.692 1875.21 26.9223 Q1879.05 26.1121 1882.7 26.1121 Q1892.54 26.1121 1897.4 31.2163 Q1902.27 36.3204 1902.27 46.6907 Z" fill="#000000" fill-rule="nonzero" fill-opacity="1" /><path clip-path="url(#clip490)" d="M1924.99 14.324 L1924.99 27.2059 L1940.34 27.2059 L1940.34 32.9987 L1924.99 32.9987 L1924.99 57.6282 Q1924.99 63.1779 1926.49 64.7578 Q1928.03 66.3376 1932.69 66.3376 L1940.34 66.3376 L1940.34 72.576 L1932.69 72.576 Q1924.06 72.576 1920.78 69.3758 Q1917.5 66.1351 1917.5 57.6282 L1917.5 32.9987 L1912.03 32.9987 L1912.03 27.2059 L1917.5 27.2059 L1917.5 14.324 L1924.99 14.324 Z" fill="#000000" fill-rule="nonzero" fill-opacity="1" /><path clip-path="url(#clip490)" d="M1950.15 27.2059 L1957.6 27.2059 L1957.6 72.576 L1950.15 72.576 L1950.15 27.2059 M1950.15 9.54393 L1957.6 9.54393 L1957.6 18.9825 L1950.15 18.9825 L1950.15 9.54393 Z" fill="#000000" fill-rule="nonzero" fill-opacity="1" /><path clip-path="url(#clip490)" d="M1990.78 32.4315 Q1984.78 32.4315 1981.3 37.1306 Q1977.81 41.7891 1977.81 49.9314 Q1977.81 58.0738 1981.26 62.7728 Q1984.74 67.4314 1990.78 67.4314 Q1996.73 67.4314 2000.22 62.7323 Q2003.7 58.0333 2003.7 49.9314 Q2003.7 41.8701 2000.22 37.1711 Q1996.73 32.4315 1990.78 32.4315 M1990.78 26.1121 Q2000.5 26.1121 2006.05 32.4315 Q2011.6 38.7509 2011.6 49.9314 Q2011.6 61.0714 2006.05 67.4314 Q2000.5 73.7508 1990.78 73.7508 Q1981.02 73.7508 1975.47 67.4314 Q1969.96 61.0714 1969.96 49.9314 Q1969.96 38.7509 1975.47 32.4315 Q1981.02 26.1121 1990.78 26.1121 Z" fill="#000000" fill-rule="nonzero" fill-opacity="1" /><path clip-path="url(#clip490)" d="M2061.67 45.1919 L2061.67 72.576 L2054.21 72.576 L2054.21 45.4349 Q2054.21 38.994 2051.7 35.7938 Q2049.19 32.5936 2044.17 32.5936 Q2038.13 32.5936 2034.65 36.4419 Q2031.17 40.2903 2031.17 46.9338 L2031.17 72.576 L2023.67 72.576 L2023.67 27.2059 L2031.17 27.2059 L2031.17 34.2544 Q2033.84 30.163 2037.44 28.1376 Q2041.09 26.1121 2045.83 26.1121 Q2053.65 26.1121 2057.66 30.9732 Q2061.67 35.7938 2061.67 45.1919 Z" fill="#000000" fill-rule="nonzero" fill-opacity="1" /><path clip-path="url(#clip490)" d="M2104.2 71.3202 L2104.2 63.8666 Q2107.28 65.3249 2110.44 66.0946 Q2113.6 66.8642 2116.64 66.8642 Q2124.74 66.8642 2128.99 61.436 Q2133.29 55.9673 2133.9 44.8678 Q2131.55 48.3516 2127.94 50.215 Q2124.34 52.0784 2119.96 52.0784 Q2110.89 52.0784 2105.58 46.6097 Q2100.31 41.1005 2100.31 31.5808 Q2100.31 22.2638 2105.82 16.633 Q2111.33 11.0023 2120.49 11.0023 Q2130.98 11.0023 2136.49 19.0636 Q2142.04 27.0843 2142.04 42.3968 Q2142.04 56.6965 2135.23 65.2439 Q2128.47 73.7508 2117 73.7508 Q2113.93 73.7508 2110.77 73.1431 Q2107.61 72.5355 2104.2 71.3202 M2120.49 45.678 Q2126 45.678 2129.2 41.9107 Q2132.44 38.1433 2132.44 31.5808 Q2132.44 25.0589 2129.2 21.2916 Q2126 17.4837 2120.49 17.4837 Q2114.98 17.4837 2111.74 21.2916 Q2108.54 25.0589 2108.54 31.5808 Q2108.54 38.1433 2111.74 41.9107 Q2114.98 45.678 2120.49 45.678 Z" fill="#000000" fill-rule="nonzero" fill-opacity="1" /><path clip-path="url(#clip492)" d="M913.624 194.806 L913.624 1423.18 L1011.9 1423.18 L1011.9 194.806 L913.624 194.806 L913.624 194.806  Z" fill="#009af9" fill-rule="evenodd" fill-opacity="1"/>
<polyline clip-path="url(#clip492)" style="stroke:#000000; stroke-linecap:round; stroke-linejoin:round; stroke-width:4; stroke-opacity:1; fill:none" points="913.624,194.806 913.624,1423.18 1011.9,1423.18 1011.9,194.806 913.624,194.806 "/>
<path clip-path="url(#clip492)" d="M1773.57 123.472 L1773.57 1423.18 L1871.85 1423.18 L1871.85 123.472 L1773.57 123.472 L1773.57 123.472  Z" fill="#009af9" fill-rule="evenodd" fill-opacity="1"/>
<polyline clip-path="url(#clip492)" style="stroke:#000000; stroke-linecap:round; stroke-linejoin:round; stroke-width:4; stroke-opacity:1; fill:none" points="1773.57,123.472 1773.57,1423.18 1871.85,1423.18 1871.85,123.472 1773.57,123.472 "/>
<path clip-path="url(#clip492)" d="M1282.17 131.122 L1282.17 1423.18 L1380.45 1423.18 L1380.45 131.122 L1282.17 131.122 L1282.17 131.122  Z" fill="#009af9" fill-rule="evenodd" fill-opacity="1"/>
<polyline clip-path="url(#clip492)" style="stroke:#000000; stroke-linecap:round; stroke-linejoin:round; stroke-width:4; stroke-opacity:1; fill:none" points="1282.17,131.122 1282.17,1423.18 1380.45,1423.18 1380.45,131.122 1282.17,131.122 "/>
<path clip-path="url(#clip492)" d="M422.228 129.949 L422.228 1423.18 L520.508 1423.18 L520.508 129.949 L422.228 129.949 L422.228 129.949  Z" fill="#009af9" fill-rule="evenodd" fill-opacity="1"/>
<polyline clip-path="url(#clip492)" style="stroke:#000000; stroke-linecap:round; stroke-linejoin:round; stroke-width:4; stroke-opacity:1; fill:none" points="422.228,129.949 422.228,1423.18 520.508,1423.18 520.508,129.949 422.228,129.949 "/>
<path clip-path="url(#clip492)" d="M1036.47 140.762 L1036.47 1423.18 L1134.75 1423.18 L1134.75 140.762 L1036.47 140.762 L1036.47 140.762  Z" fill="#009af9" fill-rule="evenodd" fill-opacity="1"/>
<polyline clip-path="url(#clip492)" style="stroke:#000000; stroke-linecap:round; stroke-linejoin:round; stroke-width:4; stroke-opacity:1; fill:none" points="1036.47,140.762 1036.47,1423.18 1134.75,1423.18 1134.75,140.762 1036.47,140.762 "/>
<path clip-path="url(#clip492)" d="M1650.72 165.457 L1650.72 1423.18 L1749 1423.18 L1749 165.457 L1650.72 165.457 L1650.72 165.457  Z" fill="#009af9" fill-rule="evenodd" fill-opacity="1"/>
<polyline clip-path="url(#clip492)" style="stroke:#000000; stroke-linecap:round; stroke-linejoin:round; stroke-width:4; stroke-opacity:1; fill:none" points="1650.72,165.457 1650.72,1423.18 1749,1423.18 1749,165.457 1650.72,165.457 "/>
<path clip-path="url(#clip492)" d="M1405.02 126.256 L1405.02 1423.18 L1503.3 1423.18 L1503.3 126.256 L1405.02 126.256 L1405.02 126.256  Z" fill="#009af9" fill-rule="evenodd" fill-opacity="1"/>
<polyline clip-path="url(#clip492)" style="stroke:#000000; stroke-linecap:round; stroke-linejoin:round; stroke-width:4; stroke-opacity:1; fill:none" points="1405.02,126.256 1405.02,1423.18 1503.3,1423.18 1503.3,126.256 1405.02,126.256 "/>
<path clip-path="url(#clip492)" d="M2019.27 184.892 L2019.27 1423.18 L2117.54 1423.18 L2117.54 184.892 L2019.27 184.892 L2019.27 184.892  Z" fill="#009af9" fill-rule="evenodd" fill-opacity="1"/>
<polyline clip-path="url(#clip492)" style="stroke:#000000; stroke-linecap:round; stroke-linejoin:round; stroke-width:4; stroke-opacity:1; fill:none" points="2019.27,184.892 2019.27,1423.18 2117.54,1423.18 2117.54,184.892 2019.27,184.892 "/>
<path clip-path="url(#clip492)" d="M667.926 133.272 L667.926 1423.18 L766.206 1423.18 L766.206 133.272 L667.926 133.272 L667.926 133.272  Z" fill="#009af9" fill-rule="evenodd" fill-opacity="1"/>
<polyline clip-path="url(#clip492)" style="stroke:#000000; stroke-linecap:round; stroke-linejoin:round; stroke-width:4; stroke-opacity:1; fill:none" points="667.926,133.272 667.926,1423.18 766.206,1423.18 766.206,133.272 667.926,133.272 "/>
<path clip-path="url(#clip492)" d="M1159.32 142.08 L1159.32 1423.18 L1257.6 1423.18 L1257.6 142.08 L1159.32 142.08 L1159.32 142.08  Z" fill="#009af9" fill-rule="evenodd" fill-opacity="1"/>
<polyline clip-path="url(#clip492)" style="stroke:#000000; stroke-linecap:round; stroke-linejoin:round; stroke-width:4; stroke-opacity:1; fill:none" points="1159.32,142.08 1159.32,1423.18 1257.6,1423.18 1257.6,142.08 1159.32,142.08 "/>
<path clip-path="url(#clip492)" d="M790.775 124.351 L790.775 1423.18 L889.055 1423.18 L889.055 124.351 L790.775 124.351 L790.775 124.351  Z" fill="#009af9" fill-rule="evenodd" fill-opacity="1"/>
<polyline clip-path="url(#clip492)" style="stroke:#000000; stroke-linecap:round; stroke-linejoin:round; stroke-width:4; stroke-opacity:1; fill:none" points="790.775,124.351 790.775,1423.18 889.055,1423.18 889.055,124.351 790.775,124.351 "/>
<path clip-path="url(#clip492)" d="M1896.42 123.892 L1896.42 1423.18 L1994.7 1423.18 L1994.7 123.892 L1896.42 123.892 L1896.42 123.892  Z" fill="#009af9" fill-rule="evenodd" fill-opacity="1"/>
<polyline clip-path="url(#clip492)" style="stroke:#000000; stroke-linecap:round; stroke-linejoin:round; stroke-width:4; stroke-opacity:1; fill:none" points="1896.42,123.892 1896.42,1423.18 1994.7,1423.18 1994.7,123.892 1896.42,123.892 "/>
<path clip-path="url(#clip492)" d="M2142.11 131.742 L2142.11 1423.18 L2240.39 1423.18 L2240.39 131.742 L2142.11 131.742 L2142.11 131.742  Z" fill="#009af9" fill-rule="evenodd" fill-opacity="1"/>
<polyline clip-path="url(#clip492)" style="stroke:#000000; stroke-linecap:round; stroke-linejoin:round; stroke-width:4; stroke-opacity:1; fill:none" points="2142.11,131.742 2142.11,1423.18 2240.39,1423.18 2240.39,131.742 2142.11,131.742 "/>
<path clip-path="url(#clip492)" d="M545.077 178.028 L545.077 1423.18 L643.357 1423.18 L643.357 178.028 L545.077 178.028 L545.077 178.028  Z" fill="#009af9" fill-rule="evenodd" fill-opacity="1"/>
<polyline clip-path="url(#clip492)" style="stroke:#000000; stroke-linecap:round; stroke-linejoin:round; stroke-width:4; stroke-opacity:1; fill:none" points="545.077,178.028 545.077,1423.18 643.357,1423.18 643.357,178.028 545.077,178.028 "/>
<path clip-path="url(#clip492)" d="M1527.87 136.716 L1527.87 1423.18 L1626.15 1423.18 L1626.15 136.716 L1527.87 136.716 L1527.87 136.716  Z" fill="#009af9" fill-rule="evenodd" fill-opacity="1"/>
<polyline clip-path="url(#clip492)" style="stroke:#000000; stroke-linecap:round; stroke-linejoin:round; stroke-width:4; stroke-opacity:1; fill:none" points="1527.87,136.716 1527.87,1423.18 1626.15,1423.18 1626.15,136.716 1527.87,136.716 "/>
<circle clip-path="url(#clip492)" style="fill:#009af9; stroke:none; fill-opacity:0" cx="962.764" cy="194.806" r="2"/>
<circle clip-path="url(#clip492)" style="fill:#009af9; stroke:none; fill-opacity:0" cx="1822.71" cy="123.472" r="2"/>
<circle clip-path="url(#clip492)" style="fill:#009af9; stroke:none; fill-opacity:0" cx="1331.31" cy="131.122" r="2"/>
<circle clip-path="url(#clip492)" style="fill:#009af9; stroke:none; fill-opacity:0" cx="471.368" cy="129.949" r="2"/>
<circle clip-path="url(#clip492)" style="fill:#009af9; stroke:none; fill-opacity:0" cx="1085.61" cy="140.762" r="2"/>
<circle clip-path="url(#clip492)" style="fill:#009af9; stroke:none; fill-opacity:0" cx="1699.86" cy="165.457" r="2"/>
<circle clip-path="url(#clip492)" style="fill:#009af9; stroke:none; fill-opacity:0" cx="1454.16" cy="126.256" r="2"/>
<circle clip-path="url(#clip492)" style="fill:#009af9; stroke:none; fill-opacity:0" cx="2068.4" cy="184.892" r="2"/>
<circle clip-path="url(#clip492)" style="fill:#009af9; stroke:none; fill-opacity:0" cx="717.066" cy="133.272" r="2"/>
<circle clip-path="url(#clip492)" style="fill:#009af9; stroke:none; fill-opacity:0" cx="1208.46" cy="142.08" r="2"/>
<circle clip-path="url(#clip492)" style="fill:#009af9; stroke:none; fill-opacity:0" cx="839.915" cy="124.351" r="2"/>
<circle clip-path="url(#clip492)" style="fill:#009af9; stroke:none; fill-opacity:0" cx="1945.56" cy="123.892" r="2"/>
<circle clip-path="url(#clip492)" style="fill:#009af9; stroke:none; fill-opacity:0" cx="2191.25" cy="131.742" r="2"/>
<circle clip-path="url(#clip492)" style="fill:#009af9; stroke:none; fill-opacity:0" cx="594.217" cy="178.028" r="2"/>
<circle clip-path="url(#clip492)" style="fill:#009af9; stroke:none; fill-opacity:0" cx="1577.01" cy="136.716" r="2"/>
</svg>
