<?xml version="1.0" encoding="utf-8"?>
<svg xmlns="http://www.w3.org/2000/svg" xmlns:xlink="http://www.w3.org/1999/xlink" width="600" height="400" viewBox="0 0 2400 1600">
<defs>
  <clipPath id="clip110">
    <rect x="0" y="0" width="2400" height="1600"/>
  </clipPath>
</defs>
<path clip-path="url(#clip110)" d="M0 1600 L2400 1600 L2400 0 L0 0  Z" fill="#ffffff" fill-rule="evenodd" fill-opacity="1"/>
<defs>
  <clipPath id="clip111">
    <rect x="480" y="0" width="1681" height="1600"/>
  </clipPath>
</defs>
<path clip-path="url(#clip110)" d="M398.268 1423.18 L2352.76 1423.18 L2352.76 123.472 L398.268 123.472  Z" fill="#ffffff" fill-rule="evenodd" fill-opacity="1"/>
<defs>
  <clipPath id="clip112">
    <rect x="398" y="123" width="1955" height="1301"/>
  </clipPath>
</defs>
<polyline clip-path="url(#clip112)" style="stroke:#000000; stroke-linecap:round; stroke-linejoin:round; stroke-width:2; stroke-opacity:0.1; fill:none" points="453.584,1423.18 453.584,123.472 "/>
<polyline clip-path="url(#clip112)" style="stroke:#000000; stroke-linecap:round; stroke-linejoin:round; stroke-width:2; stroke-opacity:0.1; fill:none" points="914.548,1423.18 914.548,123.472 "/>
<polyline clip-path="url(#clip112)" style="stroke:#000000; stroke-linecap:round; stroke-linejoin:round; stroke-width:2; stroke-opacity:0.1; fill:none" points="1375.51,1423.18 1375.51,123.472 "/>
<polyline clip-path="url(#clip112)" style="stroke:#000000; stroke-linecap:round; stroke-linejoin:round; stroke-width:2; stroke-opacity:0.1; fill:none" points="1836.48,1423.18 1836.48,123.472 "/>
<polyline clip-path="url(#clip112)" style="stroke:#000000; stroke-linecap:round; stroke-linejoin:round; stroke-width:2; stroke-opacity:0.1; fill:none" points="2297.44,1423.18 2297.44,123.472 "/>
<polyline clip-path="url(#clip112)" style="stroke:#000000; stroke-linecap:round; stroke-linejoin:round; stroke-width:2; stroke-opacity:0.1; fill:none" points="398.268,1289.8 2352.76,1289.8 "/>
<polyline clip-path="url(#clip112)" style="stroke:#000000; stroke-linecap:round; stroke-linejoin:round; stroke-width:2; stroke-opacity:0.1; fill:none" points="398.268,1017.09 2352.76,1017.09 "/>
<polyline clip-path="url(#clip112)" style="stroke:#000000; stroke-linecap:round; stroke-linejoin:round; stroke-width:2; stroke-opacity:0.1; fill:none" points="398.268,744.377 2352.76,744.377 "/>
<polyline clip-path="url(#clip112)" style="stroke:#000000; stroke-linecap:round; stroke-linejoin:round; stroke-width:2; stroke-opacity:0.1; fill:none" points="398.268,471.667 2352.76,471.667 "/>
<polyline clip-path="url(#clip112)" style="stroke:#000000; stroke-linecap:round; stroke-linejoin:round; stroke-width:2; stroke-opacity:0.1; fill:none" points="398.268,198.957 2352.76,198.957 "/>
<polyline clip-path="url(#clip110)" style="stroke:#000000; stroke-linecap:round; stroke-linejoin:round; stroke-width:4; stroke-opacity:1; fill:none" points="398.268,1423.18 2352.76,1423.18 "/>
<polyline clip-path="url(#clip110)" style="stroke:#000000; stroke-linecap:round; stroke-linejoin:round; stroke-width:4; stroke-opacity:1; fill:none" points="453.584,1423.18 453.584,1404.28 "/>
<polyline clip-path="url(#clip110)" style="stroke:#000000; stroke-linecap:round; stroke-linejoin:round; stroke-width:4; stroke-opacity:1; fill:none" points="914.548,1423.18 914.548,1404.28 "/>
<polyline clip-path="url(#clip110)" style="stroke:#000000; stroke-linecap:round; stroke-linejoin:round; stroke-width:4; stroke-opacity:1; fill:none" points="1375.51,1423.18 1375.51,1404.28 "/>
<polyline clip-path="url(#clip110)" style="stroke:#000000; stroke-linecap:round; stroke-linejoin:round; stroke-width:4; stroke-opacity:1; fill:none" points="1836.48,1423.18 1836.48,1404.28 "/>
<polyline clip-path="url(#clip110)" style="stroke:#000000; stroke-linecap:round; stroke-linejoin:round; stroke-width:4; stroke-opacity:1; fill:none" points="2297.44,1423.18 2297.44,1404.28 "/>
<path clip-path="url(#clip110)" d="M405.656 1481.64 L413.295 1481.64 L413.295 1455.28 L404.985 1456.95 L404.985 1452.69 L413.248 1451.02 L417.924 1451.02 L417.924 1481.64 L425.563 1481.64 L425.563 1485.58 L405.656 1485.58 L405.656 1481.64 Z" fill="#000000" fill-rule="nonzero" fill-opacity="1" /><path clip-path="url(#clip110)" d="M435.007 1479.7 L439.892 1479.7 L439.892 1485.58 L435.007 1485.58 L435.007 1479.7 Z" fill="#000000" fill-rule="nonzero" fill-opacity="1" /><path clip-path="url(#clip110)" d="M460.077 1454.1 Q456.466 1454.1 454.637 1457.66 Q452.831 1461.2 452.831 1468.33 Q452.831 1475.44 454.637 1479.01 Q456.466 1482.55 460.077 1482.55 Q463.711 1482.55 465.517 1479.01 Q467.345 1475.44 467.345 1468.33 Q467.345 1461.2 465.517 1457.66 Q463.711 1454.1 460.077 1454.1 M460.077 1450.39 Q465.887 1450.39 468.942 1455 Q472.021 1459.58 472.021 1468.33 Q472.021 1477.06 468.942 1481.67 Q465.887 1486.25 460.077 1486.25 Q454.267 1486.25 451.188 1481.67 Q448.132 1477.06 448.132 1468.33 Q448.132 1459.58 451.188 1455 Q454.267 1450.39 460.077 1450.39 Z" fill="#000000" fill-rule="nonzero" fill-opacity="1" /><path clip-path="url(#clip110)" d="M490.239 1454.1 Q486.628 1454.1 484.799 1457.66 Q482.993 1461.2 482.993 1468.33 Q482.993 1475.44 484.799 1479.01 Q486.628 1482.55 490.239 1482.55 Q493.873 1482.55 495.678 1479.01 Q497.507 1475.44 497.507 1468.33 Q497.507 1461.2 495.678 1457.66 Q493.873 1454.1 490.239 1454.1 M490.239 1450.39 Q496.049 1450.39 499.104 1455 Q502.183 1459.58 502.183 1468.33 Q502.183 1477.06 499.104 1481.67 Q496.049 1486.25 490.239 1486.25 Q484.429 1486.25 481.35 1481.67 Q478.294 1477.06 478.294 1468.33 Q478.294 1459.58 481.35 1455 Q484.429 1450.39 490.239 1450.39 Z" fill="#000000" fill-rule="nonzero" fill-opacity="1" /><path clip-path="url(#clip110)" d="M867.118 1481.64 L874.756 1481.64 L874.756 1455.28 L866.446 1456.95 L866.446 1452.69 L874.71 1451.02 L879.386 1451.02 L879.386 1481.64 L887.025 1481.64 L887.025 1485.58 L867.118 1485.58 L867.118 1481.64 Z" fill="#000000" fill-rule="nonzero" fill-opacity="1" /><path clip-path="url(#clip110)" d="M896.469 1479.7 L901.354 1479.7 L901.354 1485.58 L896.469 1485.58 L896.469 1479.7 Z" fill="#000000" fill-rule="nonzero" fill-opacity="1" /><path clip-path="url(#clip110)" d="M915.566 1481.64 L931.886 1481.64 L931.886 1485.58 L909.941 1485.58 L909.941 1481.64 Q912.603 1478.89 917.187 1474.26 Q921.793 1469.61 922.974 1468.27 Q925.219 1465.74 926.099 1464.01 Q927.002 1462.25 927.002 1460.56 Q927.002 1457.8 925.057 1456.07 Q923.136 1454.33 920.034 1454.33 Q917.835 1454.33 915.381 1455.09 Q912.951 1455.86 910.173 1457.41 L910.173 1452.69 Q912.997 1451.55 915.451 1450.97 Q917.904 1450.39 919.941 1450.39 Q925.312 1450.39 928.506 1453.08 Q931.701 1455.77 931.701 1460.26 Q931.701 1462.39 930.89 1464.31 Q930.103 1466.2 927.997 1468.8 Q927.418 1469.47 924.316 1472.69 Q921.215 1475.88 915.566 1481.64 Z" fill="#000000" fill-rule="nonzero" fill-opacity="1" /><path clip-path="url(#clip110)" d="M941.747 1451.02 L960.103 1451.02 L960.103 1454.96 L946.029 1454.96 L946.029 1463.43 Q947.048 1463.08 948.066 1462.92 Q949.085 1462.73 950.103 1462.73 Q955.89 1462.73 959.27 1465.9 Q962.649 1469.08 962.649 1474.49 Q962.649 1480.07 959.177 1483.17 Q955.705 1486.25 949.386 1486.25 Q947.21 1486.25 944.941 1485.88 Q942.696 1485.51 940.288 1484.77 L940.288 1480.07 Q942.372 1481.2 944.594 1481.76 Q946.816 1482.32 949.293 1482.32 Q953.298 1482.32 955.636 1480.21 Q957.974 1478.1 957.974 1474.49 Q957.974 1470.88 955.636 1468.77 Q953.298 1466.67 949.293 1466.67 Q947.418 1466.67 945.543 1467.08 Q943.691 1467.5 941.747 1468.38 L941.747 1451.02 Z" fill="#000000" fill-rule="nonzero" fill-opacity="1" /><path clip-path="url(#clip110)" d="M1327.58 1481.64 L1335.22 1481.64 L1335.22 1455.28 L1326.91 1456.95 L1326.91 1452.69 L1335.18 1451.02 L1339.85 1451.02 L1339.85 1481.64 L1347.49 1481.64 L1347.49 1485.58 L1327.58 1485.58 L1327.58 1481.64 Z" fill="#000000" fill-rule="nonzero" fill-opacity="1" /><path clip-path="url(#clip110)" d="M1356.94 1479.7 L1361.82 1479.7 L1361.82 1485.58 L1356.94 1485.58 L1356.94 1479.7 Z" fill="#000000" fill-rule="nonzero" fill-opacity="1" /><path clip-path="url(#clip110)" d="M1372.05 1451.02 L1390.41 1451.02 L1390.41 1454.96 L1376.33 1454.96 L1376.33 1463.43 Q1377.35 1463.08 1378.37 1462.92 Q1379.39 1462.73 1380.41 1462.73 Q1386.19 1462.73 1389.57 1465.9 Q1392.95 1469.08 1392.95 1474.49 Q1392.95 1480.07 1389.48 1483.17 Q1386.01 1486.25 1379.69 1486.25 Q1377.51 1486.25 1375.25 1485.88 Q1373 1485.51 1370.59 1484.77 L1370.59 1480.07 Q1372.68 1481.2 1374.9 1481.76 Q1377.12 1482.32 1379.6 1482.32 Q1383.6 1482.32 1385.94 1480.21 Q1388.28 1478.1 1388.28 1474.49 Q1388.28 1470.88 1385.94 1468.77 Q1383.6 1466.67 1379.6 1466.67 Q1377.72 1466.67 1375.85 1467.08 Q1374 1467.5 1372.05 1468.38 L1372.05 1451.02 Z" fill="#000000" fill-rule="nonzero" fill-opacity="1" /><path clip-path="url(#clip110)" d="M1412.17 1454.1 Q1408.56 1454.1 1406.73 1457.66 Q1404.92 1461.2 1404.92 1468.33 Q1404.92 1475.44 1406.73 1479.01 Q1408.56 1482.55 1412.17 1482.55 Q1415.8 1482.55 1417.61 1479.01 Q1419.44 1475.44 1419.44 1468.33 Q1419.44 1461.2 1417.61 1457.66 Q1415.8 1454.1 1412.17 1454.1 M1412.17 1450.39 Q1417.98 1450.39 1421.03 1455 Q1424.11 1459.58 1424.11 1468.33 Q1424.11 1477.06 1421.03 1481.67 Q1417.98 1486.25 1412.17 1486.25 Q1406.36 1486.25 1403.28 1481.67 Q1400.22 1477.06 1400.22 1468.33 Q1400.22 1459.58 1403.28 1455 Q1406.36 1450.39 1412.17 1450.39 Z" fill="#000000" fill-rule="nonzero" fill-opacity="1" /><path clip-path="url(#clip110)" d="M1789.05 1481.64 L1796.68 1481.64 L1796.68 1455.28 L1788.37 1456.95 L1788.37 1452.69 L1796.64 1451.02 L1801.31 1451.02 L1801.31 1481.64 L1808.95 1481.64 L1808.95 1485.58 L1789.05 1485.58 L1789.05 1481.64 Z" fill="#000000" fill-rule="nonzero" fill-opacity="1" /><path clip-path="url(#clip110)" d="M1818.4 1479.7 L1823.28 1479.7 L1823.28 1485.58 L1818.4 1485.58 L1818.4 1479.7 Z" fill="#000000" fill-rule="nonzero" fill-opacity="1" /><path clip-path="url(#clip110)" d="M1832.29 1451.02 L1854.51 1451.02 L1854.51 1453.01 L1841.96 1485.58 L1837.08 1485.58 L1848.88 1454.96 L1832.29 1454.96 L1832.29 1451.02 Z" fill="#000000" fill-rule="nonzero" fill-opacity="1" /><path clip-path="url(#clip110)" d="M1863.68 1451.02 L1882.03 1451.02 L1882.03 1454.96 L1867.96 1454.96 L1867.96 1463.43 Q1868.98 1463.08 1869.99 1462.92 Q1871.01 1462.73 1872.03 1462.73 Q1877.82 1462.73 1881.2 1465.9 Q1884.58 1469.08 1884.58 1474.49 Q1884.58 1480.07 1881.11 1483.17 Q1877.63 1486.25 1871.31 1486.25 Q1869.14 1486.25 1866.87 1485.88 Q1864.62 1485.51 1862.22 1484.77 L1862.22 1480.07 Q1864.3 1481.2 1866.52 1481.76 Q1868.74 1482.32 1871.22 1482.32 Q1875.23 1482.32 1877.56 1480.21 Q1879.9 1478.1 1879.9 1474.49 Q1879.9 1470.88 1877.56 1468.77 Q1875.23 1466.67 1871.22 1466.67 Q1869.35 1466.67 1867.47 1467.08 Q1865.62 1467.5 1863.68 1468.38 L1863.68 1451.02 Z" fill="#000000" fill-rule="nonzero" fill-opacity="1" /><path clip-path="url(#clip110)" d="M2253.6 1481.64 L2269.92 1481.64 L2269.92 1485.58 L2247.97 1485.58 L2247.97 1481.64 Q2250.63 1478.89 2255.22 1474.26 Q2259.82 1469.61 2261.01 1468.27 Q2263.25 1465.74 2264.13 1464.01 Q2265.03 1462.25 2265.03 1460.56 Q2265.03 1457.8 2263.09 1456.07 Q2261.17 1454.33 2258.07 1454.33 Q2255.87 1454.33 2253.41 1455.09 Q2250.98 1455.86 2248.2 1457.41 L2248.2 1452.69 Q2251.03 1451.55 2253.48 1450.97 Q2255.94 1450.39 2257.97 1450.39 Q2263.34 1450.39 2266.54 1453.08 Q2269.73 1455.77 2269.73 1460.26 Q2269.73 1462.39 2268.92 1464.31 Q2268.13 1466.2 2266.03 1468.8 Q2265.45 1469.47 2262.35 1472.69 Q2259.25 1475.88 2253.6 1481.64 Z" fill="#000000" fill-rule="nonzero" fill-opacity="1" /><path clip-path="url(#clip110)" d="M2279.73 1479.7 L2284.62 1479.7 L2284.62 1485.58 L2279.73 1485.58 L2279.73 1479.7 Z" fill="#000000" fill-rule="nonzero" fill-opacity="1" /><path clip-path="url(#clip110)" d="M2304.8 1454.1 Q2301.19 1454.1 2299.36 1457.66 Q2297.56 1461.2 2297.56 1468.33 Q2297.56 1475.44 2299.36 1479.01 Q2301.19 1482.55 2304.8 1482.55 Q2308.44 1482.55 2310.24 1479.01 Q2312.07 1475.44 2312.07 1468.33 Q2312.07 1461.2 2310.24 1457.66 Q2308.44 1454.1 2304.8 1454.1 M2304.8 1450.39 Q2310.61 1450.39 2313.67 1455 Q2316.75 1459.58 2316.75 1468.33 Q2316.75 1477.06 2313.67 1481.67 Q2310.61 1486.25 2304.8 1486.25 Q2298.99 1486.25 2295.91 1481.67 Q2292.86 1477.06 2292.86 1468.33 Q2292.86 1459.58 2295.91 1455 Q2298.99 1450.39 2304.8 1450.39 Z" fill="#000000" fill-rule="nonzero" fill-opacity="1" /><path clip-path="url(#clip110)" d="M2334.96 1454.1 Q2331.35 1454.1 2329.52 1457.66 Q2327.72 1461.2 2327.72 1468.33 Q2327.72 1475.44 2329.52 1479.01 Q2331.35 1482.55 2334.96 1482.55 Q2338.6 1482.55 2340.4 1479.01 Q2342.23 1475.44 2342.23 1468.33 Q2342.23 1461.2 2340.4 1457.66 Q2338.6 1454.1 2334.96 1454.1 M2334.96 1450.39 Q2340.77 1450.39 2343.83 1455 Q2346.91 1459.58 2346.91 1468.33 Q2346.91 1477.06 2343.83 1481.67 Q2340.77 1486.25 2334.96 1486.25 Q2329.15 1486.25 2326.07 1481.67 Q2323.02 1477.06 2323.02 1468.33 Q2323.02 1459.58 2326.07 1455 Q2329.15 1450.39 2334.96 1450.39 Z" fill="#000000" fill-rule="nonzero" fill-opacity="1" /><path clip-path="url(#clip110)" d="M1243.23 1520.52 L1249.66 1520.52 L1249.66 1568.04 L1243.23 1568.04 L1243.23 1520.52 Z" fill="#000000" fill-rule="nonzero" fill-opacity="1" /><path clip-path="url(#clip110)" d="M1268 1522.27 L1268 1532.4 L1280.06 1532.4 L1280.06 1536.95 L1268 1536.95 L1268 1556.3 Q1268 1560.66 1269.17 1561.9 Q1270.38 1563.14 1274.04 1563.14 L1280.06 1563.14 L1280.06 1568.04 L1274.04 1568.04 Q1267.26 1568.04 1264.69 1565.53 Q1262.11 1562.98 1262.11 1556.3 L1262.11 1536.95 L1257.81 1536.95 L1257.81 1532.4 L1262.11 1532.4 L1262.11 1522.27 L1268 1522.27 Z" fill="#000000" fill-rule="nonzero" fill-opacity="1" /><path clip-path="url(#clip110)" d="M1318.25 1548.76 L1318.25 1551.62 L1291.33 1551.62 Q1291.71 1557.67 1294.95 1560.85 Q1298.23 1564 1304.06 1564 Q1307.43 1564 1310.58 1563.17 Q1313.76 1562.35 1316.88 1560.69 L1316.88 1566.23 Q1313.73 1567.57 1310.42 1568.27 Q1307.11 1568.97 1303.71 1568.97 Q1295.18 1568.97 1290.18 1564 Q1285.21 1559.04 1285.21 1550.57 Q1285.21 1541.82 1289.93 1536.69 Q1294.67 1531.54 1302.69 1531.54 Q1309.88 1531.54 1314.05 1536.18 Q1318.25 1540.8 1318.25 1548.76 M1312.4 1547.04 Q1312.33 1542.23 1309.69 1539.37 Q1307.08 1536.5 1302.75 1536.5 Q1297.85 1536.5 1294.89 1539.27 Q1291.96 1542.04 1291.52 1547.07 L1312.4 1547.04 Z" fill="#000000" fill-rule="nonzero" fill-opacity="1" /><path clip-path="url(#clip110)" d="M1348.52 1537.87 Q1347.53 1537.3 1346.36 1537.04 Q1345.21 1536.76 1343.81 1536.76 Q1338.85 1536.76 1336.17 1540 Q1333.53 1543.22 1333.53 1549.27 L1333.53 1568.04 L1327.64 1568.04 L1327.64 1532.4 L1333.53 1532.4 L1333.53 1537.93 Q1335.38 1534.69 1338.34 1533.13 Q1341.3 1531.54 1345.53 1531.54 Q1346.13 1531.54 1346.87 1531.63 Q1347.6 1531.7 1348.49 1531.85 L1348.52 1537.87 Z" fill="#000000" fill-rule="nonzero" fill-opacity="1" /><path clip-path="url(#clip110)" d="M1370.87 1550.12 Q1363.77 1550.12 1361.03 1551.75 Q1358.29 1553.37 1358.29 1557.29 Q1358.29 1560.4 1360.33 1562.25 Q1362.4 1564.07 1365.93 1564.07 Q1370.8 1564.07 1373.73 1560.63 Q1376.69 1557.16 1376.69 1551.43 L1376.69 1550.12 L1370.87 1550.12 M1382.55 1547.71 L1382.55 1568.04 L1376.69 1568.04 L1376.69 1562.63 Q1374.68 1565.88 1371.69 1567.44 Q1368.7 1568.97 1364.37 1568.97 Q1358.9 1568.97 1355.65 1565.91 Q1352.44 1562.82 1352.44 1557.67 Q1352.44 1551.65 1356.45 1548.6 Q1360.49 1545.54 1368.48 1545.54 L1376.69 1545.54 L1376.69 1544.97 Q1376.69 1540.93 1374.02 1538.73 Q1371.37 1536.5 1366.57 1536.5 Q1363.51 1536.5 1360.62 1537.23 Q1357.72 1537.97 1355.05 1539.43 L1355.05 1534.02 Q1358.26 1532.78 1361.28 1532.17 Q1364.31 1531.54 1367.17 1531.54 Q1374.91 1531.54 1378.73 1535.55 Q1382.55 1539.56 1382.55 1547.71 Z" fill="#000000" fill-rule="nonzero" fill-opacity="1" /><path clip-path="url(#clip110)" d="M1400.4 1522.27 L1400.4 1532.4 L1412.46 1532.4 L1412.46 1536.95 L1400.4 1536.95 L1400.4 1556.3 Q1400.4 1560.66 1401.58 1561.9 Q1402.79 1563.14 1406.45 1563.14 L1412.46 1563.14 L1412.46 1568.04 L1406.45 1568.04 Q1399.67 1568.04 1397.09 1565.53 Q1394.51 1562.98 1394.51 1556.3 L1394.51 1536.95 L1390.22 1536.95 L1390.22 1532.4 L1394.51 1532.4 L1394.51 1522.27 L1400.4 1522.27 Z" fill="#000000" fill-rule="nonzero" fill-opacity="1" /><path clip-path="url(#clip110)" d="M1420.17 1532.4 L1426.02 1532.4 L1426.02 1568.04 L1420.17 1568.04 L1420.17 1532.4 M1420.17 1518.52 L1426.02 1518.52 L1426.02 1525.93 L1420.17 1525.93 L1420.17 1518.52 Z" fill="#000000" fill-rule="nonzero" fill-opacity="1" /><path clip-path="url(#clip110)" d="M1452.09 1536.5 Q1447.38 1536.5 1444.64 1540.19 Q1441.91 1543.85 1441.91 1550.25 Q1441.91 1556.65 1444.61 1560.34 Q1447.35 1564 1452.09 1564 Q1456.77 1564 1459.51 1560.31 Q1462.24 1556.62 1462.24 1550.25 Q1462.24 1543.92 1459.51 1540.23 Q1456.77 1536.5 1452.09 1536.5 M1452.09 1531.54 Q1459.73 1531.54 1464.09 1536.5 Q1468.45 1541.47 1468.45 1550.25 Q1468.45 1559 1464.09 1564 Q1459.73 1568.97 1452.09 1568.97 Q1444.42 1568.97 1440.06 1564 Q1435.73 1559 1435.73 1550.25 Q1435.73 1541.47 1440.06 1536.5 Q1444.42 1531.54 1452.09 1531.54 Z" fill="#000000" fill-rule="nonzero" fill-opacity="1" /><path clip-path="url(#clip110)" d="M1507.79 1546.53 L1507.79 1568.04 L1501.93 1568.04 L1501.93 1546.72 Q1501.93 1541.66 1499.96 1539.14 Q1497.99 1536.63 1494.04 1536.63 Q1489.3 1536.63 1486.56 1539.65 Q1483.82 1542.68 1483.82 1547.9 L1483.82 1568.04 L1477.94 1568.04 L1477.94 1532.4 L1483.82 1532.4 L1483.82 1537.93 Q1485.93 1534.72 1488.76 1533.13 Q1491.62 1531.54 1495.35 1531.54 Q1501.49 1531.54 1504.64 1535.36 Q1507.79 1539.14 1507.79 1546.53 Z" fill="#000000" fill-rule="nonzero" fill-opacity="1" /><polyline clip-path="url(#clip110)" style="stroke:#000000; stroke-linecap:round; stroke-linejoin:round; stroke-width:4; stroke-opacity:1; fill:none" points="398.268,1423.18 398.268,123.472 "/>
<polyline clip-path="url(#clip110)" style="stroke:#000000; stroke-linecap:round; stroke-linejoin:round; stroke-width:4; stroke-opacity:1; fill:none" points="398.268,1289.8 417.166,1289.8 "/>
<polyline clip-path="url(#clip110)" style="stroke:#000000; stroke-linecap:round; stroke-linejoin:round; stroke-width:4; stroke-opacity:1; fill:none" points="398.268,1017.09 417.166,1017.09 "/>
<polyline clip-path="url(#clip110)" style="stroke:#000000; stroke-linecap:round; stroke-linejoin:round; stroke-width:4; stroke-opacity:1; fill:none" points="398.268,744.377 417.166,744.377 "/>
<polyline clip-path="url(#clip110)" style="stroke:#000000; stroke-linecap:round; stroke-linejoin:round; stroke-width:4; stroke-opacity:1; fill:none" points="398.268,471.667 417.166,471.667 "/>
<polyline clip-path="url(#clip110)" style="stroke:#000000; stroke-linecap:round; stroke-linejoin:round; stroke-width:4; stroke-opacity:1; fill:none" points="398.268,198.957 417.166,198.957 "/>
<path clip-path="url(#clip110)" d="M114.931 1303.14 L122.57 1303.14 L122.57 1276.78 L114.26 1278.44 L114.26 1274.18 L122.524 1272.52 L127.2 1272.52 L127.2 1303.14 L134.839 1303.14 L134.839 1307.08 L114.931 1307.08 L114.931 1303.14 Z" fill="#000000" fill-rule="nonzero" fill-opacity="1" /><path clip-path="url(#clip110)" d="M154.862 1287.93 Q151.714 1287.93 149.862 1290.09 Q148.033 1292.24 148.033 1295.99 Q148.033 1299.71 149.862 1301.89 Q151.714 1304.04 154.862 1304.04 Q158.01 1304.04 159.839 1301.89 Q161.69 1299.71 161.69 1295.99 Q161.69 1292.24 159.839 1290.09 Q158.01 1287.93 154.862 1287.93 M164.144 1273.28 L164.144 1277.54 Q162.385 1276.71 160.579 1276.27 Q158.797 1275.83 157.038 1275.83 Q152.408 1275.83 149.954 1278.95 Q147.524 1282.08 147.177 1288.4 Q148.542 1286.38 150.603 1285.32 Q152.663 1284.23 155.14 1284.23 Q160.348 1284.23 163.357 1287.4 Q166.39 1290.55 166.39 1295.99 Q166.39 1301.31 163.241 1304.53 Q160.093 1307.75 154.862 1307.75 Q148.866 1307.75 145.695 1303.16 Q142.524 1298.56 142.524 1289.83 Q142.524 1281.64 146.413 1276.78 Q150.302 1271.89 156.853 1271.89 Q158.612 1271.89 160.394 1272.24 Q162.2 1272.59 164.144 1273.28 Z" fill="#000000" fill-rule="nonzero" fill-opacity="1" /><path clip-path="url(#clip110)" d="M178.473 1303.14 L194.792 1303.14 L194.792 1307.08 L172.848 1307.08 L172.848 1303.14 Q175.51 1300.39 180.093 1295.76 Q184.7 1291.1 185.88 1289.76 Q188.126 1287.24 189.005 1285.5 Q189.908 1283.74 189.908 1282.05 Q189.908 1279.3 187.963 1277.56 Q186.042 1275.83 182.94 1275.83 Q180.741 1275.83 178.288 1276.59 Q175.857 1277.35 173.079 1278.9 L173.079 1274.18 Q175.903 1273.05 178.357 1272.47 Q180.811 1271.89 182.848 1271.89 Q188.218 1271.89 191.413 1274.58 Q194.607 1277.26 194.607 1281.75 Q194.607 1283.88 193.797 1285.8 Q193.01 1287.7 190.903 1290.29 Q190.325 1290.96 187.223 1294.18 Q184.121 1297.38 178.473 1303.14 Z" fill="#000000" fill-rule="nonzero" fill-opacity="1" /><path clip-path="url(#clip110)" d="M208.635 1303.14 L224.954 1303.14 L224.954 1307.08 L203.01 1307.08 L203.01 1303.14 Q205.672 1300.39 210.255 1295.76 Q214.861 1291.1 216.042 1289.76 Q218.287 1287.24 219.167 1285.5 Q220.07 1283.74 220.07 1282.05 Q220.07 1279.3 218.125 1277.56 Q216.204 1275.83 213.102 1275.83 Q210.903 1275.83 208.449 1276.59 Q206.019 1277.35 203.241 1278.9 L203.241 1274.18 Q206.065 1273.05 208.519 1272.47 Q210.973 1271.89 213.01 1271.89 Q218.38 1271.89 221.574 1274.58 Q224.769 1277.26 224.769 1281.75 Q224.769 1283.88 223.959 1285.8 Q223.172 1287.7 221.065 1290.29 Q220.486 1290.96 217.385 1294.18 Q214.283 1297.38 208.635 1303.14 Z" fill="#000000" fill-rule="nonzero" fill-opacity="1" /><path clip-path="url(#clip110)" d="M234.769 1301.2 L239.653 1301.2 L239.653 1307.08 L234.769 1307.08 L234.769 1301.2 Z" fill="#000000" fill-rule="nonzero" fill-opacity="1" /><path clip-path="url(#clip110)" d="M262.685 1276.59 L250.88 1295.04 L262.685 1295.04 L262.685 1276.59 M261.458 1272.52 L267.338 1272.52 L267.338 1295.04 L272.269 1295.04 L272.269 1298.93 L267.338 1298.93 L267.338 1307.08 L262.685 1307.08 L262.685 1298.93 L247.084 1298.93 L247.084 1294.41 L261.458 1272.52 Z" fill="#000000" fill-rule="nonzero" fill-opacity="1" /><path clip-path="url(#clip110)" d="M290 1290.66 Q286.667 1290.66 284.745 1292.45 Q282.847 1294.23 282.847 1297.35 Q282.847 1300.48 284.745 1302.26 Q286.667 1304.04 290 1304.04 Q293.333 1304.04 295.255 1302.26 Q297.176 1300.46 297.176 1297.35 Q297.176 1294.23 295.255 1292.45 Q293.356 1290.66 290 1290.66 M285.324 1288.67 Q282.315 1287.93 280.625 1285.87 Q278.958 1283.81 278.958 1280.85 Q278.958 1276.71 281.898 1274.3 Q284.861 1271.89 290 1271.89 Q295.162 1271.89 298.102 1274.3 Q301.042 1276.71 301.042 1280.85 Q301.042 1283.81 299.352 1285.87 Q297.685 1287.93 294.699 1288.67 Q298.079 1289.46 299.954 1291.75 Q301.852 1294.04 301.852 1297.35 Q301.852 1302.38 298.773 1305.06 Q295.718 1307.75 290 1307.75 Q284.282 1307.75 281.204 1305.06 Q278.148 1302.38 278.148 1297.35 Q278.148 1294.04 280.046 1291.75 Q281.944 1289.46 285.324 1288.67 M283.611 1281.29 Q283.611 1283.97 285.278 1285.48 Q286.968 1286.98 290 1286.98 Q293.009 1286.98 294.699 1285.48 Q296.412 1283.97 296.412 1281.29 Q296.412 1278.6 294.699 1277.1 Q293.009 1275.59 290 1275.59 Q286.968 1275.59 285.278 1277.1 Q283.611 1278.6 283.611 1281.29 Z" fill="#000000" fill-rule="nonzero" fill-opacity="1" /><path clip-path="url(#clip110)" d="M320.741 1287.93 Q317.592 1287.93 315.741 1290.09 Q313.912 1292.24 313.912 1295.99 Q313.912 1299.71 315.741 1301.89 Q317.592 1304.04 320.741 1304.04 Q323.889 1304.04 325.717 1301.89 Q327.569 1299.71 327.569 1295.99 Q327.569 1292.24 325.717 1290.09 Q323.889 1287.93 320.741 1287.93 M330.023 1273.28 L330.023 1277.54 Q328.264 1276.71 326.458 1276.27 Q324.676 1275.83 322.916 1275.83 Q318.287 1275.83 315.833 1278.95 Q313.403 1282.08 313.055 1288.4 Q314.421 1286.38 316.481 1285.32 Q318.541 1284.23 321.018 1284.23 Q326.227 1284.23 329.236 1287.4 Q332.268 1290.55 332.268 1295.99 Q332.268 1301.31 329.12 1304.53 Q325.972 1307.75 320.741 1307.75 Q314.745 1307.75 311.574 1303.16 Q308.403 1298.56 308.403 1289.83 Q308.403 1281.64 312.292 1276.78 Q316.18 1271.89 322.731 1271.89 Q324.491 1271.89 326.273 1272.24 Q328.078 1272.59 330.023 1273.28 Z" fill="#000000" fill-rule="nonzero" fill-opacity="1" /><path clip-path="url(#clip110)" d="M350.324 1275.59 Q346.713 1275.59 344.884 1279.16 Q343.078 1282.7 343.078 1289.83 Q343.078 1296.94 344.884 1300.5 Q346.713 1304.04 350.324 1304.04 Q353.958 1304.04 355.763 1300.5 Q357.592 1296.94 357.592 1289.83 Q357.592 1282.7 355.763 1279.16 Q353.958 1275.59 350.324 1275.59 M350.324 1271.89 Q356.134 1271.89 359.189 1276.5 Q362.268 1281.08 362.268 1289.83 Q362.268 1298.56 359.189 1303.16 Q356.134 1307.75 350.324 1307.75 Q344.514 1307.75 341.435 1303.16 Q338.379 1298.56 338.379 1289.83 Q338.379 1281.08 341.435 1276.5 Q344.514 1271.89 350.324 1271.89 Z" fill="#000000" fill-rule="nonzero" fill-opacity="1" /><path clip-path="url(#clip110)" d="M116.529 1030.43 L124.168 1030.43 L124.168 1004.07 L115.857 1005.73 L115.857 1001.47 L124.121 999.806 L128.797 999.806 L128.797 1030.43 L136.436 1030.43 L136.436 1034.37 L116.529 1034.37 L116.529 1030.43 Z" fill="#000000" fill-rule="nonzero" fill-opacity="1" /><path clip-path="url(#clip110)" d="M156.459 1015.22 Q153.311 1015.22 151.459 1017.38 Q149.63 1019.53 149.63 1023.28 Q149.63 1027.01 151.459 1029.18 Q153.311 1031.33 156.459 1031.33 Q159.607 1031.33 161.436 1029.18 Q163.288 1027.01 163.288 1023.28 Q163.288 1019.53 161.436 1017.38 Q159.607 1015.22 156.459 1015.22 M165.741 1000.57 L165.741 1004.83 Q163.982 1004 162.177 1003.56 Q160.394 1003.12 158.635 1003.12 Q154.005 1003.12 151.552 1006.24 Q149.121 1009.37 148.774 1015.69 Q150.14 1013.67 152.2 1012.61 Q154.26 1011.52 156.737 1011.52 Q161.945 1011.52 164.954 1014.69 Q167.987 1017.84 167.987 1023.28 Q167.987 1028.6 164.839 1031.82 Q161.69 1035.04 156.459 1035.04 Q150.464 1035.04 147.292 1030.45 Q144.121 1025.85 144.121 1017.12 Q144.121 1008.93 148.01 1004.07 Q151.899 999.181 158.45 999.181 Q160.209 999.181 161.991 999.528 Q163.797 999.876 165.741 1000.57 Z" fill="#000000" fill-rule="nonzero" fill-opacity="1" /><path clip-path="url(#clip110)" d="M180.07 1030.43 L196.389 1030.43 L196.389 1034.37 L174.445 1034.37 L174.445 1030.43 Q177.107 1027.68 181.69 1023.05 Q186.297 1018.39 187.477 1017.05 Q189.723 1014.53 190.602 1012.79 Q191.505 1011.03 191.505 1009.34 Q191.505 1006.59 189.561 1004.85 Q187.639 1003.12 184.538 1003.12 Q182.338 1003.12 179.885 1003.88 Q177.454 1004.64 174.677 1006.2 L174.677 1001.47 Q177.501 1000.34 179.954 999.76 Q182.408 999.181 184.445 999.181 Q189.815 999.181 193.01 1001.87 Q196.204 1004.55 196.204 1009.04 Q196.204 1011.17 195.394 1013.09 Q194.607 1014.99 192.5 1017.58 Q191.922 1018.26 188.82 1021.47 Q185.718 1024.67 180.07 1030.43 Z" fill="#000000" fill-rule="nonzero" fill-opacity="1" /><path clip-path="url(#clip110)" d="M210.232 1030.43 L226.551 1030.43 L226.551 1034.37 L204.607 1034.37 L204.607 1030.43 Q207.269 1027.68 211.852 1023.05 Q216.459 1018.39 217.639 1017.05 Q219.885 1014.53 220.764 1012.79 Q221.667 1011.03 221.667 1009.34 Q221.667 1006.59 219.723 1004.85 Q217.801 1003.12 214.699 1003.12 Q212.5 1003.12 210.047 1003.88 Q207.616 1004.64 204.838 1006.2 L204.838 1001.47 Q207.662 1000.34 210.116 999.76 Q212.57 999.181 214.607 999.181 Q219.977 999.181 223.172 1001.87 Q226.366 1004.55 226.366 1009.04 Q226.366 1011.17 225.556 1013.09 Q224.769 1014.99 222.662 1017.58 Q222.084 1018.26 218.982 1021.47 Q215.88 1024.67 210.232 1030.43 Z" fill="#000000" fill-rule="nonzero" fill-opacity="1" /><path clip-path="url(#clip110)" d="M236.366 1028.49 L241.25 1028.49 L241.25 1034.37 L236.366 1034.37 L236.366 1028.49 Z" fill="#000000" fill-rule="nonzero" fill-opacity="1" /><path clip-path="url(#clip110)" d="M264.283 1003.88 L252.477 1022.33 L264.283 1022.33 L264.283 1003.88 M263.056 999.806 L268.935 999.806 L268.935 1022.33 L273.866 1022.33 L273.866 1026.22 L268.935 1026.22 L268.935 1034.37 L264.283 1034.37 L264.283 1026.22 L248.681 1026.22 L248.681 1021.7 L263.056 999.806 Z" fill="#000000" fill-rule="nonzero" fill-opacity="1" /><path clip-path="url(#clip110)" d="M291.597 1017.95 Q288.264 1017.95 286.343 1019.74 Q284.444 1021.52 284.444 1024.64 Q284.444 1027.77 286.343 1029.55 Q288.264 1031.33 291.597 1031.33 Q294.93 1031.33 296.852 1029.55 Q298.773 1027.75 298.773 1024.64 Q298.773 1021.52 296.852 1019.74 Q294.954 1017.95 291.597 1017.95 M286.921 1015.96 Q283.912 1015.22 282.222 1013.16 Q280.556 1011.1 280.556 1008.14 Q280.556 1004 283.495 1001.59 Q286.458 999.181 291.597 999.181 Q296.759 999.181 299.699 1001.59 Q302.639 1004 302.639 1008.14 Q302.639 1011.1 300.949 1013.16 Q299.282 1015.22 296.296 1015.96 Q299.676 1016.75 301.551 1019.04 Q303.449 1021.33 303.449 1024.64 Q303.449 1029.67 300.37 1032.35 Q297.315 1035.04 291.597 1035.04 Q285.88 1035.04 282.801 1032.35 Q279.745 1029.67 279.745 1024.64 Q279.745 1021.33 281.644 1019.04 Q283.542 1016.75 286.921 1015.96 M285.208 1008.58 Q285.208 1011.26 286.875 1012.77 Q288.565 1014.27 291.597 1014.27 Q294.606 1014.27 296.296 1012.77 Q298.009 1011.26 298.009 1008.58 Q298.009 1005.89 296.296 1004.39 Q294.606 1002.88 291.597 1002.88 Q288.565 1002.88 286.875 1004.39 Q285.208 1005.89 285.208 1008.58 Z" fill="#000000" fill-rule="nonzero" fill-opacity="1" /><path clip-path="url(#clip110)" d="M322.338 1015.22 Q319.19 1015.22 317.338 1017.38 Q315.509 1019.53 315.509 1023.28 Q315.509 1027.01 317.338 1029.18 Q319.19 1031.33 322.338 1031.33 Q325.486 1031.33 327.315 1029.18 Q329.166 1027.01 329.166 1023.28 Q329.166 1019.53 327.315 1017.38 Q325.486 1015.22 322.338 1015.22 M331.62 1000.57 L331.62 1004.83 Q329.861 1004 328.055 1003.56 Q326.273 1003.12 324.514 1003.12 Q319.884 1003.12 317.43 1006.24 Q315 1009.37 314.653 1015.69 Q316.018 1013.67 318.079 1012.61 Q320.139 1011.52 322.616 1011.52 Q327.824 1011.52 330.833 1014.69 Q333.865 1017.84 333.865 1023.28 Q333.865 1028.6 330.717 1031.82 Q327.569 1035.04 322.338 1035.04 Q316.342 1035.04 313.171 1030.45 Q310 1025.85 310 1017.12 Q310 1008.93 313.889 1004.07 Q317.778 999.181 324.328 999.181 Q326.088 999.181 327.87 999.528 Q329.676 999.876 331.62 1000.57 Z" fill="#000000" fill-rule="nonzero" fill-opacity="1" /><path clip-path="url(#clip110)" d="M345.949 1030.43 L362.268 1030.43 L362.268 1034.37 L340.324 1034.37 L340.324 1030.43 Q342.986 1027.68 347.569 1023.05 Q352.176 1018.39 353.356 1017.05 Q355.601 1014.53 356.481 1012.79 Q357.384 1011.03 357.384 1009.34 Q357.384 1006.59 355.439 1004.85 Q353.518 1003.12 350.416 1003.12 Q348.217 1003.12 345.764 1003.88 Q343.333 1004.64 340.555 1006.2 L340.555 1001.47 Q343.379 1000.34 345.833 999.76 Q348.287 999.181 350.324 999.181 Q355.694 999.181 358.888 1001.87 Q362.083 1004.55 362.083 1009.04 Q362.083 1011.17 361.273 1013.09 Q360.486 1014.99 358.379 1017.58 Q357.801 1018.26 354.699 1021.47 Q351.597 1024.67 345.949 1030.43 Z" fill="#000000" fill-rule="nonzero" fill-opacity="1" /><path clip-path="url(#clip110)" d="M115.927 757.721 L123.566 757.721 L123.566 731.356 L115.256 733.022 L115.256 728.763 L123.519 727.097 L128.195 727.097 L128.195 757.721 L135.834 757.721 L135.834 761.657 L115.927 761.657 L115.927 757.721 Z" fill="#000000" fill-rule="nonzero" fill-opacity="1" /><path clip-path="url(#clip110)" d="M155.857 742.513 Q152.709 742.513 150.857 744.666 Q149.028 746.819 149.028 750.569 Q149.028 754.295 150.857 756.471 Q152.709 758.624 155.857 758.624 Q159.005 758.624 160.834 756.471 Q162.686 754.295 162.686 750.569 Q162.686 746.819 160.834 744.666 Q159.005 742.513 155.857 742.513 M165.14 727.86 L165.14 732.12 Q163.38 731.286 161.575 730.847 Q159.792 730.407 158.033 730.407 Q153.403 730.407 150.95 733.532 Q148.519 736.657 148.172 742.976 Q149.538 740.962 151.598 739.897 Q153.658 738.809 156.135 738.809 Q161.343 738.809 164.352 741.981 Q167.385 745.129 167.385 750.569 Q167.385 755.893 164.237 759.11 Q161.089 762.328 155.857 762.328 Q149.862 762.328 146.691 757.745 Q143.519 753.138 143.519 744.411 Q143.519 736.217 147.408 731.356 Q151.297 726.472 157.848 726.472 Q159.607 726.472 161.39 726.819 Q163.195 727.166 165.14 727.86 Z" fill="#000000" fill-rule="nonzero" fill-opacity="1" /><path clip-path="url(#clip110)" d="M179.468 757.721 L195.787 757.721 L195.787 761.657 L173.843 761.657 L173.843 757.721 Q176.505 754.967 181.089 750.337 Q185.695 745.684 186.876 744.342 Q189.121 741.819 190 740.083 Q190.903 738.323 190.903 736.634 Q190.903 733.879 188.959 732.143 Q187.038 730.407 183.936 730.407 Q181.737 730.407 179.283 731.171 Q176.852 731.934 174.075 733.485 L174.075 728.763 Q176.899 727.629 179.352 727.05 Q181.806 726.472 183.843 726.472 Q189.213 726.472 192.408 729.157 Q195.602 731.842 195.602 736.333 Q195.602 738.462 194.792 740.384 Q194.005 742.282 191.899 744.874 Q191.32 745.546 188.218 748.763 Q185.116 751.958 179.468 757.721 Z" fill="#000000" fill-rule="nonzero" fill-opacity="1" /><path clip-path="url(#clip110)" d="M209.63 757.721 L225.949 757.721 L225.949 761.657 L204.005 761.657 L204.005 757.721 Q206.667 754.967 211.25 750.337 Q215.857 745.684 217.037 744.342 Q219.283 741.819 220.162 740.083 Q221.065 738.323 221.065 736.634 Q221.065 733.879 219.121 732.143 Q217.199 730.407 214.098 730.407 Q211.899 730.407 209.445 731.171 Q207.014 731.934 204.237 733.485 L204.237 728.763 Q207.061 727.629 209.514 727.05 Q211.968 726.472 214.005 726.472 Q219.375 726.472 222.57 729.157 Q225.764 731.842 225.764 736.333 Q225.764 738.462 224.954 740.384 Q224.167 742.282 222.061 744.874 Q221.482 745.546 218.38 748.763 Q215.278 751.958 209.63 757.721 Z" fill="#000000" fill-rule="nonzero" fill-opacity="1" /><path clip-path="url(#clip110)" d="M235.764 755.777 L240.648 755.777 L240.648 761.657 L235.764 761.657 L235.764 755.777 Z" fill="#000000" fill-rule="nonzero" fill-opacity="1" /><path clip-path="url(#clip110)" d="M263.681 731.171 L251.875 749.62 L263.681 749.62 L263.681 731.171 M262.454 727.097 L268.333 727.097 L268.333 749.62 L273.264 749.62 L273.264 753.508 L268.333 753.508 L268.333 761.657 L263.681 761.657 L263.681 753.508 L248.079 753.508 L248.079 748.995 L262.454 727.097 Z" fill="#000000" fill-rule="nonzero" fill-opacity="1" /><path clip-path="url(#clip110)" d="M290.995 745.245 Q287.662 745.245 285.741 747.027 Q283.843 748.809 283.843 751.934 Q283.843 755.059 285.741 756.842 Q287.662 758.624 290.995 758.624 Q294.329 758.624 296.25 756.842 Q298.171 755.036 298.171 751.934 Q298.171 748.809 296.25 747.027 Q294.352 745.245 290.995 745.245 M286.319 743.254 Q283.31 742.513 281.62 740.453 Q279.954 738.393 279.954 735.43 Q279.954 731.286 282.894 728.879 Q285.856 726.472 290.995 726.472 Q296.157 726.472 299.097 728.879 Q302.037 731.286 302.037 735.43 Q302.037 738.393 300.347 740.453 Q298.68 742.513 295.694 743.254 Q299.074 744.041 300.949 746.333 Q302.847 748.624 302.847 751.934 Q302.847 756.958 299.768 759.643 Q296.713 762.328 290.995 762.328 Q285.278 762.328 282.199 759.643 Q279.144 756.958 279.144 751.934 Q279.144 748.624 281.042 746.333 Q282.94 744.041 286.319 743.254 M284.606 735.87 Q284.606 738.555 286.273 740.059 Q287.963 741.564 290.995 741.564 Q294.005 741.564 295.694 740.059 Q297.407 738.555 297.407 735.87 Q297.407 733.184 295.694 731.68 Q294.005 730.175 290.995 730.175 Q287.963 730.175 286.273 731.68 Q284.606 733.184 284.606 735.87 Z" fill="#000000" fill-rule="nonzero" fill-opacity="1" /><path clip-path="url(#clip110)" d="M321.736 742.513 Q318.588 742.513 316.736 744.666 Q314.907 746.819 314.907 750.569 Q314.907 754.295 316.736 756.471 Q318.588 758.624 321.736 758.624 Q324.884 758.624 326.713 756.471 Q328.565 754.295 328.565 750.569 Q328.565 746.819 326.713 744.666 Q324.884 742.513 321.736 742.513 M331.018 727.86 L331.018 732.12 Q329.259 731.286 327.453 730.847 Q325.671 730.407 323.912 730.407 Q319.282 730.407 316.829 733.532 Q314.398 736.657 314.051 742.976 Q315.416 740.962 317.477 739.897 Q319.537 738.809 322.014 738.809 Q327.222 738.809 330.231 741.981 Q333.264 745.129 333.264 750.569 Q333.264 755.893 330.115 759.11 Q326.967 762.328 321.736 762.328 Q315.741 762.328 312.569 757.745 Q309.398 753.138 309.398 744.411 Q309.398 736.217 313.287 731.356 Q317.176 726.472 323.727 726.472 Q325.486 726.472 327.268 726.819 Q329.074 727.166 331.018 727.86 Z" fill="#000000" fill-rule="nonzero" fill-opacity="1" /><path clip-path="url(#clip110)" d="M341.365 727.097 L359.722 727.097 L359.722 731.032 L345.648 731.032 L345.648 739.504 Q346.666 739.157 347.685 738.995 Q348.703 738.809 349.722 738.809 Q355.509 738.809 358.888 741.981 Q362.268 745.152 362.268 750.569 Q362.268 756.147 358.796 759.249 Q355.324 762.328 349.004 762.328 Q346.828 762.328 344.56 761.957 Q342.314 761.587 339.907 760.846 L339.907 756.147 Q341.99 757.282 344.213 757.837 Q346.435 758.393 348.912 758.393 Q352.916 758.393 355.254 756.286 Q357.592 754.18 357.592 750.569 Q357.592 746.958 355.254 744.851 Q352.916 742.745 348.912 742.745 Q347.037 742.745 345.162 743.161 Q343.31 743.578 341.365 744.458 L341.365 727.097 Z" fill="#000000" fill-rule="nonzero" fill-opacity="1" /><path clip-path="url(#clip110)" d="M115.024 485.012 L122.663 485.012 L122.663 458.646 L114.353 460.313 L114.353 456.054 L122.617 454.387 L127.292 454.387 L127.292 485.012 L134.931 485.012 L134.931 488.947 L115.024 488.947 L115.024 485.012 Z" fill="#000000" fill-rule="nonzero" fill-opacity="1" /><path clip-path="url(#clip110)" d="M154.954 469.803 Q151.806 469.803 149.954 471.956 Q148.126 474.109 148.126 477.859 Q148.126 481.586 149.954 483.762 Q151.806 485.914 154.954 485.914 Q158.103 485.914 159.931 483.762 Q161.783 481.586 161.783 477.859 Q161.783 474.109 159.931 471.956 Q158.103 469.803 154.954 469.803 M164.237 455.151 L164.237 459.41 Q162.477 458.577 160.672 458.137 Q158.89 457.697 157.13 457.697 Q152.501 457.697 150.047 460.822 Q147.616 463.947 147.269 470.266 Q148.635 468.253 150.695 467.188 Q152.755 466.1 155.232 466.1 Q160.44 466.1 163.45 469.271 Q166.482 472.419 166.482 477.859 Q166.482 483.183 163.334 486.401 Q160.186 489.618 154.954 489.618 Q148.959 489.618 145.788 485.035 Q142.616 480.428 142.616 471.702 Q142.616 463.507 146.505 458.646 Q150.394 453.762 156.945 453.762 Q158.704 453.762 160.487 454.109 Q162.292 454.456 164.237 455.151 Z" fill="#000000" fill-rule="nonzero" fill-opacity="1" /><path clip-path="url(#clip110)" d="M178.565 485.012 L194.885 485.012 L194.885 488.947 L172.94 488.947 L172.94 485.012 Q175.602 482.257 180.186 477.627 Q184.792 472.975 185.973 471.632 Q188.218 469.109 189.098 467.373 Q190 465.614 190 463.924 Q190 461.169 188.056 459.433 Q186.135 457.697 183.033 457.697 Q180.834 457.697 178.38 458.461 Q175.95 459.225 173.172 460.776 L173.172 456.054 Q175.996 454.919 178.45 454.341 Q180.903 453.762 182.94 453.762 Q188.311 453.762 191.505 456.447 Q194.7 459.132 194.7 463.623 Q194.7 465.753 193.889 467.674 Q193.102 469.572 190.996 472.165 Q190.417 472.836 187.315 476.053 Q184.213 479.248 178.565 485.012 Z" fill="#000000" fill-rule="nonzero" fill-opacity="1" /><path clip-path="url(#clip110)" d="M208.727 485.012 L225.047 485.012 L225.047 488.947 L203.102 488.947 L203.102 485.012 Q205.764 482.257 210.348 477.627 Q214.954 472.975 216.135 471.632 Q218.38 469.109 219.26 467.373 Q220.162 465.614 220.162 463.924 Q220.162 461.169 218.218 459.433 Q216.297 457.697 213.195 457.697 Q210.996 457.697 208.542 458.461 Q206.112 459.225 203.334 460.776 L203.334 456.054 Q206.158 454.919 208.612 454.341 Q211.065 453.762 213.102 453.762 Q218.473 453.762 221.667 456.447 Q224.861 459.132 224.861 463.623 Q224.861 465.753 224.051 467.674 Q223.264 469.572 221.158 472.165 Q220.579 472.836 217.477 476.053 Q214.375 479.248 208.727 485.012 Z" fill="#000000" fill-rule="nonzero" fill-opacity="1" /><path clip-path="url(#clip110)" d="M234.861 483.067 L239.746 483.067 L239.746 488.947 L234.861 488.947 L234.861 483.067 Z" fill="#000000" fill-rule="nonzero" fill-opacity="1" /><path clip-path="url(#clip110)" d="M262.778 458.461 L250.972 476.91 L262.778 476.91 L262.778 458.461 M261.551 454.387 L267.431 454.387 L267.431 476.91 L272.361 476.91 L272.361 480.799 L267.431 480.799 L267.431 488.947 L262.778 488.947 L262.778 480.799 L247.176 480.799 L247.176 476.285 L261.551 454.387 Z" fill="#000000" fill-rule="nonzero" fill-opacity="1" /><path clip-path="url(#clip110)" d="M290.093 472.535 Q286.759 472.535 284.838 474.317 Q282.94 476.1 282.94 479.225 Q282.94 482.35 284.838 484.132 Q286.759 485.914 290.093 485.914 Q293.426 485.914 295.347 484.132 Q297.268 482.327 297.268 479.225 Q297.268 476.1 295.347 474.317 Q293.449 472.535 290.093 472.535 M285.417 470.544 Q282.407 469.803 280.718 467.743 Q279.051 465.683 279.051 462.72 Q279.051 458.577 281.991 456.169 Q284.954 453.762 290.093 453.762 Q295.255 453.762 298.194 456.169 Q301.134 458.577 301.134 462.72 Q301.134 465.683 299.444 467.743 Q297.778 469.803 294.792 470.544 Q298.171 471.331 300.046 473.623 Q301.944 475.915 301.944 479.225 Q301.944 484.248 298.866 486.933 Q295.81 489.618 290.093 489.618 Q284.375 489.618 281.296 486.933 Q278.241 484.248 278.241 479.225 Q278.241 475.915 280.139 473.623 Q282.037 471.331 285.417 470.544 M283.704 463.16 Q283.704 465.845 285.37 467.35 Q287.06 468.854 290.093 468.854 Q293.102 468.854 294.792 467.35 Q296.505 465.845 296.505 463.16 Q296.505 460.475 294.792 458.97 Q293.102 457.466 290.093 457.466 Q287.06 457.466 285.37 458.97 Q283.704 460.475 283.704 463.16 Z" fill="#000000" fill-rule="nonzero" fill-opacity="1" /><path clip-path="url(#clip110)" d="M320.833 469.803 Q317.685 469.803 315.833 471.956 Q314.004 474.109 314.004 477.859 Q314.004 481.586 315.833 483.762 Q317.685 485.914 320.833 485.914 Q323.981 485.914 325.81 483.762 Q327.662 481.586 327.662 477.859 Q327.662 474.109 325.81 471.956 Q323.981 469.803 320.833 469.803 M330.115 455.151 L330.115 459.41 Q328.356 458.577 326.551 458.137 Q324.768 457.697 323.009 457.697 Q318.379 457.697 315.926 460.822 Q313.495 463.947 313.148 470.266 Q314.514 468.253 316.574 467.188 Q318.634 466.1 321.111 466.1 Q326.319 466.1 329.328 469.271 Q332.361 472.419 332.361 477.859 Q332.361 483.183 329.213 486.401 Q326.065 489.618 320.833 489.618 Q314.838 489.618 311.667 485.035 Q308.495 480.428 308.495 471.702 Q308.495 463.507 312.384 458.646 Q316.273 453.762 322.824 453.762 Q324.583 453.762 326.366 454.109 Q328.171 454.456 330.115 455.151 Z" fill="#000000" fill-rule="nonzero" fill-opacity="1" /><path clip-path="url(#clip110)" d="M350.416 472.535 Q347.083 472.535 345.162 474.317 Q343.264 476.1 343.264 479.225 Q343.264 482.35 345.162 484.132 Q347.083 485.914 350.416 485.914 Q353.75 485.914 355.671 484.132 Q357.592 482.327 357.592 479.225 Q357.592 476.1 355.671 474.317 Q353.773 472.535 350.416 472.535 M345.74 470.544 Q342.731 469.803 341.041 467.743 Q339.375 465.683 339.375 462.72 Q339.375 458.577 342.314 456.169 Q345.277 453.762 350.416 453.762 Q355.578 453.762 358.518 456.169 Q361.458 458.577 361.458 462.72 Q361.458 465.683 359.768 467.743 Q358.101 469.803 355.115 470.544 Q358.495 471.331 360.37 473.623 Q362.268 475.915 362.268 479.225 Q362.268 484.248 359.189 486.933 Q356.134 489.618 350.416 489.618 Q344.699 489.618 341.62 486.933 Q338.565 484.248 338.565 479.225 Q338.565 475.915 340.463 473.623 Q342.361 471.331 345.74 470.544 M344.027 463.16 Q344.027 465.845 345.694 467.35 Q347.384 468.854 350.416 468.854 Q353.426 468.854 355.115 467.35 Q356.828 465.845 356.828 463.16 Q356.828 460.475 355.115 458.97 Q353.426 457.466 350.416 457.466 Q347.384 457.466 345.694 458.97 Q344.027 460.475 344.027 463.16 Z" fill="#000000" fill-rule="nonzero" fill-opacity="1" /><path clip-path="url(#clip110)" d="M114.931 212.302 L122.57 212.302 L122.57 185.936 L114.26 187.603 L114.26 183.344 L122.524 181.677 L127.2 181.677 L127.2 212.302 L134.839 212.302 L134.839 216.237 L114.931 216.237 L114.931 212.302 Z" fill="#000000" fill-rule="nonzero" fill-opacity="1" /><path clip-path="url(#clip110)" d="M154.862 197.094 Q151.714 197.094 149.862 199.247 Q148.033 201.399 148.033 205.149 Q148.033 208.876 149.862 211.052 Q151.714 213.205 154.862 213.205 Q158.01 213.205 159.839 211.052 Q161.69 208.876 161.69 205.149 Q161.69 201.399 159.839 199.247 Q158.01 197.094 154.862 197.094 M164.144 182.441 L164.144 186.7 Q162.385 185.867 160.579 185.427 Q158.797 184.987 157.038 184.987 Q152.408 184.987 149.954 188.112 Q147.524 191.237 147.177 197.557 Q148.542 195.543 150.603 194.478 Q152.663 193.39 155.14 193.39 Q160.348 193.39 163.357 196.561 Q166.39 199.709 166.39 205.149 Q166.39 210.473 163.241 213.691 Q160.093 216.908 154.862 216.908 Q148.866 216.908 145.695 212.325 Q142.524 207.719 142.524 198.992 Q142.524 190.797 146.413 185.936 Q150.302 181.052 156.853 181.052 Q158.612 181.052 160.394 181.399 Q162.2 181.747 164.144 182.441 Z" fill="#000000" fill-rule="nonzero" fill-opacity="1" /><path clip-path="url(#clip110)" d="M178.473 212.302 L194.792 212.302 L194.792 216.237 L172.848 216.237 L172.848 212.302 Q175.51 209.547 180.093 204.918 Q184.7 200.265 185.88 198.922 Q188.126 196.399 189.005 194.663 Q189.908 192.904 189.908 191.214 Q189.908 188.46 187.963 186.723 Q186.042 184.987 182.94 184.987 Q180.741 184.987 178.288 185.751 Q175.857 186.515 173.079 188.066 L173.079 183.344 Q175.903 182.21 178.357 181.631 Q180.811 181.052 182.848 181.052 Q188.218 181.052 191.413 183.737 Q194.607 186.423 194.607 190.913 Q194.607 193.043 193.797 194.964 Q193.01 196.862 190.903 199.455 Q190.325 200.126 187.223 203.344 Q184.121 206.538 178.473 212.302 Z" fill="#000000" fill-rule="nonzero" fill-opacity="1" /><path clip-path="url(#clip110)" d="M208.635 212.302 L224.954 212.302 L224.954 216.237 L203.01 216.237 L203.01 212.302 Q205.672 209.547 210.255 204.918 Q214.861 200.265 216.042 198.922 Q218.287 196.399 219.167 194.663 Q220.07 192.904 220.07 191.214 Q220.07 188.46 218.125 186.723 Q216.204 184.987 213.102 184.987 Q210.903 184.987 208.449 185.751 Q206.019 186.515 203.241 188.066 L203.241 183.344 Q206.065 182.21 208.519 181.631 Q210.973 181.052 213.01 181.052 Q218.38 181.052 221.574 183.737 Q224.769 186.423 224.769 190.913 Q224.769 193.043 223.959 194.964 Q223.172 196.862 221.065 199.455 Q220.486 200.126 217.385 203.344 Q214.283 206.538 208.635 212.302 Z" fill="#000000" fill-rule="nonzero" fill-opacity="1" /><path clip-path="url(#clip110)" d="M234.769 210.358 L239.653 210.358 L239.653 216.237 L234.769 216.237 L234.769 210.358 Z" fill="#000000" fill-rule="nonzero" fill-opacity="1" /><path clip-path="url(#clip110)" d="M262.685 185.751 L250.88 204.2 L262.685 204.2 L262.685 185.751 M261.458 181.677 L267.338 181.677 L267.338 204.2 L272.269 204.2 L272.269 208.089 L267.338 208.089 L267.338 216.237 L262.685 216.237 L262.685 208.089 L247.084 208.089 L247.084 203.575 L261.458 181.677 Z" fill="#000000" fill-rule="nonzero" fill-opacity="1" /><path clip-path="url(#clip110)" d="M290 199.825 Q286.667 199.825 284.745 201.608 Q282.847 203.39 282.847 206.515 Q282.847 209.64 284.745 211.422 Q286.667 213.205 290 213.205 Q293.333 213.205 295.255 211.422 Q297.176 209.617 297.176 206.515 Q297.176 203.39 295.255 201.608 Q293.356 199.825 290 199.825 M285.324 197.834 Q282.315 197.094 280.625 195.034 Q278.958 192.973 278.958 190.01 Q278.958 185.867 281.898 183.46 Q284.861 181.052 290 181.052 Q295.162 181.052 298.102 183.46 Q301.042 185.867 301.042 190.01 Q301.042 192.973 299.352 195.034 Q297.685 197.094 294.699 197.834 Q298.079 198.622 299.954 200.913 Q301.852 203.205 301.852 206.515 Q301.852 211.538 298.773 214.223 Q295.718 216.908 290 216.908 Q284.282 216.908 281.204 214.223 Q278.148 211.538 278.148 206.515 Q278.148 203.205 280.046 200.913 Q281.944 198.622 285.324 197.834 M283.611 190.45 Q283.611 193.135 285.278 194.64 Q286.968 196.145 290 196.145 Q293.009 196.145 294.699 194.64 Q296.412 193.135 296.412 190.45 Q296.412 187.765 294.699 186.26 Q293.009 184.756 290 184.756 Q286.968 184.756 285.278 186.26 Q283.611 187.765 283.611 190.45 Z" fill="#000000" fill-rule="nonzero" fill-opacity="1" /><path clip-path="url(#clip110)" d="M308.981 181.677 L331.203 181.677 L331.203 183.668 L318.657 216.237 L313.773 216.237 L325.578 185.612 L308.981 185.612 L308.981 181.677 Z" fill="#000000" fill-rule="nonzero" fill-opacity="1" /><path clip-path="url(#clip110)" d="M350.324 184.756 Q346.713 184.756 344.884 188.321 Q343.078 191.862 343.078 198.992 Q343.078 206.098 344.884 209.663 Q346.713 213.205 350.324 213.205 Q353.958 213.205 355.763 209.663 Q357.592 206.098 357.592 198.992 Q357.592 191.862 355.763 188.321 Q353.958 184.756 350.324 184.756 M350.324 181.052 Q356.134 181.052 359.189 185.659 Q362.268 190.242 362.268 198.992 Q362.268 207.719 359.189 212.325 Q356.134 216.908 350.324 216.908 Q344.514 216.908 341.435 212.325 Q338.379 207.719 338.379 198.992 Q338.379 190.242 341.435 185.659 Q344.514 181.052 350.324 181.052 Z" fill="#000000" fill-rule="nonzero" fill-opacity="1" /><path clip-path="url(#clip110)" d="M16.4842 1114.62 L16.4842 1074.42 L21.895 1074.42 L21.895 1091.29 L64.0042 1091.29 L64.0042 1097.75 L21.895 1097.75 L21.895 1114.62 L16.4842 1114.62 Z" fill="#000000" fill-rule="nonzero" fill-opacity="1" /><path clip-path="url(#clip110)" d="M32.4621 1065.73 Q32.4621 1070.45 36.1542 1073.18 Q39.8145 1075.92 46.212 1075.92 Q52.6095 1075.92 56.3017 1073.21 Q59.9619 1070.48 59.9619 1065.73 Q59.9619 1061.06 56.2698 1058.32 Q52.5777 1055.58 46.212 1055.58 Q39.8781 1055.58 36.186 1058.32 Q32.4621 1061.06 32.4621 1065.73 M27.4968 1065.73 Q27.4968 1058.1 32.4621 1053.74 Q37.4273 1049.37 46.212 1049.37 Q54.9649 1049.37 59.9619 1053.74 Q64.9272 1058.1 64.9272 1065.73 Q64.9272 1073.41 59.9619 1077.77 Q54.9649 1082.09 46.212 1082.09 Q37.4273 1082.09 32.4621 1077.77 Q27.4968 1073.41 27.4968 1065.73 Z" fill="#000000" fill-rule="nonzero" fill-opacity="1" /><path clip-path="url(#clip110)" d="M18.2347 1033.87 L28.3562 1033.87 L28.3562 1021.81 L32.9077 1021.81 L32.9077 1033.87 L52.2594 1033.87 Q56.6199 1033.87 57.8613 1032.7 Q59.1026 1031.49 59.1026 1027.83 L59.1026 1021.81 L64.0042 1021.81 L64.0042 1027.83 Q64.0042 1034.61 61.4897 1037.18 Q58.9434 1039.76 52.2594 1039.76 L32.9077 1039.76 L32.9077 1044.06 L28.3562 1044.06 L28.3562 1039.76 L18.2347 1039.76 L18.2347 1033.87 Z" fill="#000000" fill-rule="nonzero" fill-opacity="1" /><path clip-path="url(#clip110)" d="M46.0847 997.908 Q46.0847 1005.01 47.7079 1007.74 Q49.3312 1010.48 53.2461 1010.48 Q56.3653 1010.48 58.2114 1008.44 Q60.0256 1006.37 60.0256 1002.84 Q60.0256 997.972 56.5881 995.044 Q53.1188 992.083 47.3897 992.083 L46.0847 992.083 L46.0847 997.908 M43.6657 986.227 L64.0042 986.227 L64.0042 992.083 L58.5933 992.083 Q61.8398 994.089 63.3994 997.081 Q64.9272 1000.07 64.9272 1004.4 Q64.9272 1009.88 61.8716 1013.12 Q58.7843 1016.34 53.6281 1016.34 Q47.6125 1016.34 44.5569 1012.33 Q41.5014 1008.28 41.5014 1000.3 L41.5014 992.083 L40.9285 992.083 Q36.8862 992.083 34.6901 994.757 Q32.4621 997.399 32.4621 1002.2 Q32.4621 1005.26 33.1941 1008.16 Q33.9262 1011.05 35.3903 1013.73 L29.9795 1013.73 Q28.7381 1010.51 28.1334 1007.49 Q27.4968 1004.46 27.4968 1001.6 Q27.4968 993.866 31.5072 990.046 Q35.5176 986.227 43.6657 986.227 Z" fill="#000000" fill-rule="nonzero" fill-opacity="1" /><path clip-path="url(#clip110)" d="M14.479 974.164 L14.479 968.308 L64.0042 968.308 L64.0042 974.164 L14.479 974.164 Z" fill="#000000" fill-rule="nonzero" fill-opacity="1" /><path clip-path="url(#clip110)" d="M16.4842 935.079 L16.4842 928.649 L58.5933 928.649 L58.5933 905.51 L64.0042 905.51 L64.0042 935.079 L16.4842 935.079 Z" fill="#000000" fill-rule="nonzero" fill-opacity="1" /><path clip-path="url(#clip110)" d="M32.4621 886.349 Q32.4621 891.06 36.1542 893.797 Q39.8145 896.534 46.212 896.534 Q52.6095 896.534 56.3017 893.829 Q59.9619 891.092 59.9619 886.349 Q59.9619 881.67 56.2698 878.933 Q52.5777 876.196 46.212 876.196 Q39.8781 876.196 36.186 878.933 Q32.4621 881.67 32.4621 886.349 M27.4968 886.349 Q27.4968 878.71 32.4621 874.35 Q37.4273 869.989 46.212 869.989 Q54.9649 869.989 59.9619 874.35 Q64.9272 878.71 64.9272 886.349 Q64.9272 894.02 59.9619 898.38 Q54.9649 902.709 46.212 902.709 Q37.4273 902.709 32.4621 898.38 Q27.4968 894.02 27.4968 886.349 Z" fill="#000000" fill-rule="nonzero" fill-opacity="1" /><path clip-path="url(#clip110)" d="M46.0847 844.081 Q46.0847 851.179 47.7079 853.916 Q49.3312 856.653 53.2461 856.653 Q56.3653 856.653 58.2114 854.616 Q60.0256 852.547 60.0256 849.014 Q60.0256 844.144 56.5881 841.216 Q53.1188 838.256 47.3897 838.256 L46.0847 838.256 L46.0847 844.081 M43.6657 832.4 L64.0042 832.4 L64.0042 838.256 L58.5933 838.256 Q61.8398 840.261 63.3994 843.253 Q64.9272 846.245 64.9272 850.574 Q64.9272 856.048 61.8716 859.295 Q58.7843 862.51 53.6281 862.51 Q47.6125 862.51 44.5569 858.499 Q41.5014 854.457 41.5014 846.468 L41.5014 838.256 L40.9285 838.256 Q36.8862 838.256 34.6901 840.93 Q32.4621 843.572 32.4621 848.378 Q32.4621 851.433 33.1941 854.33 Q33.9262 857.226 35.3903 859.9 L29.9795 859.9 Q28.7381 856.685 28.1334 853.661 Q27.4968 850.637 27.4968 847.773 Q27.4968 840.039 31.5072 836.219 Q35.5176 832.4 43.6657 832.4 Z" fill="#000000" fill-rule="nonzero" fill-opacity="1" /><path clip-path="url(#clip110)" d="M33.7671 796.879 L14.479 796.879 L14.479 791.023 L64.0042 791.023 L64.0042 796.879 L58.657 796.879 Q61.8398 798.725 63.3994 801.558 Q64.9272 804.359 64.9272 808.306 Q64.9272 814.767 59.771 818.841 Q54.6147 822.883 46.212 822.883 Q37.8093 822.883 32.6531 818.841 Q27.4968 814.767 27.4968 808.306 Q27.4968 804.359 29.0564 801.558 Q30.5842 798.725 33.7671 796.879 M46.212 816.836 Q52.6732 816.836 56.3653 814.194 Q60.0256 811.52 60.0256 806.873 Q60.0256 802.226 56.3653 799.553 Q52.6732 796.879 46.212 796.879 Q39.7508 796.879 36.0905 799.553 Q32.3984 802.226 32.3984 806.873 Q32.3984 811.52 36.0905 814.194 Q39.7508 816.836 46.212 816.836 Z" fill="#000000" fill-rule="nonzero" fill-opacity="1" /><path clip-path="url(#clip110)" d="M18.0438 729.498 L24.314 729.498 Q22.5634 733.158 21.704 736.405 Q20.8447 739.651 20.8447 742.675 Q20.8447 747.927 22.8817 750.791 Q24.9187 753.624 28.6745 753.624 Q31.8255 753.624 33.4488 751.746 Q35.0402 749.837 36.0269 744.553 L36.8226 740.67 Q38.1912 733.477 41.6605 730.071 Q45.098 726.634 50.8908 726.634 Q57.7976 726.634 61.3624 731.28 Q64.9272 735.896 64.9272 744.839 Q64.9272 748.213 64.1633 752.033 Q63.3994 755.82 61.9035 759.894 L55.2831 759.894 Q57.4793 755.979 58.5933 752.224 Q59.7073 748.468 59.7073 744.839 Q59.7073 739.333 57.543 736.341 Q55.3786 733.349 51.3682 733.349 Q47.8671 733.349 45.8937 735.514 Q43.9204 737.646 42.9337 742.548 L42.1698 746.463 Q40.7375 753.656 37.682 756.871 Q34.6264 760.085 29.1837 760.085 Q22.8817 760.085 19.2532 755.661 Q15.6248 751.205 15.6248 743.407 Q15.6248 740.065 16.2295 736.596 Q16.8343 733.127 18.0438 729.498 Z" fill="#000000" fill-rule="nonzero" fill-opacity="1" /><path clip-path="url(#clip110)" d="M42.4881 687.23 L64.0042 687.23 L64.0042 693.086 L42.679 693.086 Q37.6183 693.086 35.1038 695.06 Q32.5894 697.033 32.5894 700.98 Q32.5894 705.722 35.6131 708.459 Q38.6368 711.197 43.8567 711.197 L64.0042 711.197 L64.0042 717.085 L14.479 717.085 L14.479 711.197 L33.8944 711.197 Q30.6797 709.096 29.0883 706.263 Q27.4968 703.399 27.4968 699.675 Q27.4968 693.532 31.3163 690.381 Q35.1038 687.23 42.4881 687.23 Z" fill="#000000" fill-rule="nonzero" fill-opacity="1" /><path clip-path="url(#clip110)" d="M44.7161 645.057 L47.5806 645.057 L47.5806 671.984 Q53.6281 671.602 56.8109 668.355 Q59.9619 665.077 59.9619 659.253 Q59.9619 655.879 59.1344 652.728 Q58.3069 649.545 56.6518 646.426 L62.1899 646.426 Q63.5267 649.577 64.227 652.887 Q64.9272 656.197 64.9272 659.603 Q64.9272 668.133 59.9619 673.13 Q54.9967 678.095 46.5303 678.095 Q37.7774 678.095 32.6531 673.384 Q27.4968 668.642 27.4968 660.621 Q27.4968 653.428 32.1438 649.258 Q36.7589 645.057 44.7161 645.057 M42.9973 650.913 Q38.1912 650.977 35.3266 653.619 Q32.4621 656.229 32.4621 660.557 Q32.4621 665.459 35.2312 668.419 Q38.0002 671.347 43.0292 671.793 L42.9973 650.913 Z" fill="#000000" fill-rule="nonzero" fill-opacity="1" /><path clip-path="url(#clip110)" d="M33.7671 611.987 L14.479 611.987 L14.479 606.131 L64.0042 606.131 L64.0042 611.987 L58.657 611.987 Q61.8398 613.833 63.3994 616.666 Q64.9272 619.467 64.9272 623.414 Q64.9272 629.875 59.771 633.949 Q54.6147 637.991 46.212 637.991 Q37.8093 637.991 32.6531 633.949 Q27.4968 629.875 27.4968 623.414 Q27.4968 619.467 29.0564 616.666 Q30.5842 613.833 33.7671 611.987 M46.212 631.944 Q52.6732 631.944 56.3653 629.302 Q60.0256 626.628 60.0256 621.981 Q60.0256 617.334 56.3653 614.661 Q52.6732 611.987 46.212 611.987 Q39.7508 611.987 36.0905 614.661 Q32.3984 617.334 32.3984 621.981 Q32.3984 626.628 36.0905 629.302 Q39.7508 631.944 46.212 631.944 Z" fill="#000000" fill-rule="nonzero" fill-opacity="1" /><path clip-path="url(#clip110)" d="M14.5426 559.279 Q21.8632 563.544 29.0246 565.613 Q36.186 567.682 43.5384 567.682 Q50.8908 567.682 58.1159 565.613 Q65.3091 563.512 72.5979 559.279 L72.5979 564.372 Q65.1182 569.146 57.8931 571.533 Q50.668 573.888 43.5384 573.888 Q36.4406 573.888 29.2474 571.533 Q22.0542 569.178 14.5426 564.372 L14.5426 559.279 Z" fill="#000000" fill-rule="nonzero" fill-opacity="1" /><path clip-path="url(#clip110)" d="M14.479 548.139 L14.479 542.251 L43.7294 542.251 L28.3562 524.777 L28.3562 517.297 L45.0344 536.203 L64.0042 516.502 L64.0042 524.14 L46.5939 542.251 L64.0042 542.251 L64.0042 548.139 L14.479 548.139 Z" fill="#000000" fill-rule="nonzero" fill-opacity="1" /><path clip-path="url(#clip110)" d="M16.4842 514.146 L16.4842 507.653 L56.6518 497.659 L16.4842 487.697 L16.4842 480.472 L56.6518 470.477 L16.4842 460.515 L16.4842 453.99 L64.0042 465.926 L64.0042 474.01 L22.7544 484.036 L64.0042 494.158 L64.0042 502.242 L16.4842 514.146 Z" fill="#000000" fill-rule="nonzero" fill-opacity="1" /><path clip-path="url(#clip110)" d="M14.5426 446.638 L14.5426 441.545 Q22.0542 436.771 29.2474 434.416 Q36.4406 432.029 43.5384 432.029 Q50.668 432.029 57.8931 434.416 Q65.1182 436.771 72.5979 441.545 L72.5979 446.638 Q65.3091 442.405 58.1159 440.336 Q50.8908 438.235 43.5384 438.235 Q36.186 438.235 29.0246 440.336 Q21.8632 442.405 14.5426 446.638 Z" fill="#000000" fill-rule="nonzero" fill-opacity="1" /><path clip-path="url(#clip110)" d="M354.522 12.096 L362.705 12.096 L362.705 65.6895 L392.155 65.6895 L392.155 72.576 L354.522 72.576 L354.522 12.096 Z" fill="#000000" fill-rule="nonzero" fill-opacity="1" /><path clip-path="url(#clip110)" d="M416.541 32.4315 Q410.546 32.4315 407.062 37.1306 Q403.579 41.7891 403.579 49.9314 Q403.579 58.0738 407.022 62.7728 Q410.506 67.4314 416.541 67.4314 Q422.496 67.4314 425.98 62.7323 Q429.464 58.0333 429.464 49.9314 Q429.464 41.8701 425.98 37.1711 Q422.496 32.4315 416.541 32.4315 M416.541 26.1121 Q426.264 26.1121 431.813 32.4315 Q437.363 38.7509 437.363 49.9314 Q437.363 61.0714 431.813 67.4314 Q426.264 73.7508 416.541 73.7508 Q406.779 73.7508 401.229 67.4314 Q395.72 61.0714 395.72 49.9314 Q395.72 38.7509 401.229 32.4315 Q406.779 26.1121 416.541 26.1121 Z" fill="#000000" fill-rule="nonzero" fill-opacity="1" /><path clip-path="url(#clip110)" d="M445.384 27.2059 L452.838 27.2059 L462.155 62.6108 L471.431 27.2059 L480.222 27.2059 L489.539 62.6108 L498.815 27.2059 L506.269 27.2059 L494.4 72.576 L485.609 72.576 L475.847 35.3887 L466.043 72.576 L457.253 72.576 L445.384 27.2059 Z" fill="#000000" fill-rule="nonzero" fill-opacity="1" /><path clip-path="url(#clip110)" d="M556.379 48.0275 L556.379 51.6733 L522.108 51.6733 Q522.594 59.3701 526.726 63.421 Q530.898 67.4314 538.312 67.4314 Q542.606 67.4314 546.616 66.3781 Q550.667 65.3249 554.637 63.2184 L554.637 70.267 Q550.626 71.9684 546.413 72.8596 Q542.2 73.7508 537.866 73.7508 Q527.01 73.7508 520.65 67.4314 Q514.33 61.1119 514.33 50.3365 Q514.33 39.1965 520.326 32.6746 Q526.361 26.1121 536.57 26.1121 Q545.725 26.1121 551.031 32.0264 Q556.379 37.9003 556.379 48.0275 M548.925 45.84 Q548.844 39.7232 545.482 36.0774 Q542.16 32.4315 536.651 32.4315 Q530.412 32.4315 526.645 35.9558 Q522.918 39.4801 522.351 45.8805 L548.925 45.84 Z" fill="#000000" fill-rule="nonzero" fill-opacity="1" /><path clip-path="url(#clip110)" d="M594.903 34.1734 Q593.647 33.4443 592.148 33.1202 Q590.69 32.7556 588.907 32.7556 Q582.588 32.7556 579.185 36.8875 Q575.823 40.9789 575.823 48.6757 L575.823 72.576 L568.329 72.576 L568.329 27.2059 L575.823 27.2059 L575.823 34.2544 Q578.173 30.1225 581.94 28.1376 Q585.707 26.1121 591.095 26.1121 Q591.865 26.1121 592.796 26.2337 Q593.728 26.3147 594.862 26.5172 L594.903 34.1734 Z" fill="#000000" fill-rule="nonzero" fill-opacity="1" /><path clip-path="url(#clip110)" d="M629.416 12.096 L637.599 12.096 L637.599 65.6895 L667.049 65.6895 L667.049 72.576 L629.416 72.576 L629.416 12.096 Z" fill="#000000" fill-rule="nonzero" fill-opacity="1" /><path clip-path="url(#clip110)" d="M712.663 48.0275 L712.663 51.6733 L678.392 51.6733 Q678.878 59.3701 683.01 63.421 Q687.182 67.4314 694.596 67.4314 Q698.889 67.4314 702.9 66.3781 Q706.951 65.3249 710.921 63.2184 L710.921 70.267 Q706.91 71.9684 702.697 72.8596 Q698.484 73.7508 694.15 73.7508 Q683.293 73.7508 676.934 67.4314 Q670.614 61.1119 670.614 50.3365 Q670.614 39.1965 676.609 32.6746 Q682.645 26.1121 692.854 26.1121 Q702.009 26.1121 707.315 32.0264 Q712.663 37.9003 712.663 48.0275 M705.209 45.84 Q705.128 39.7232 701.766 36.0774 Q698.444 32.4315 692.935 32.4315 Q686.696 32.4315 682.929 35.9558 Q679.202 39.4801 678.635 45.8805 L705.209 45.84 Z" fill="#000000" fill-rule="nonzero" fill-opacity="1" /><path clip-path="url(#clip110)" d="M719.549 27.2059 L727.448 27.2059 L741.627 65.2844 L755.805 27.2059 L763.704 27.2059 L746.69 72.576 L736.563 72.576 L719.549 27.2059 Z" fill="#000000" fill-rule="nonzero" fill-opacity="1" /><path clip-path="url(#clip110)" d="M812.801 48.0275 L812.801 51.6733 L778.53 51.6733 Q779.016 59.3701 783.148 63.421 Q787.321 67.4314 794.734 67.4314 Q799.028 67.4314 803.038 66.3781 Q807.089 65.3249 811.059 63.2184 L811.059 70.267 Q807.049 71.9684 802.836 72.8596 Q798.623 73.7508 794.288 73.7508 Q783.432 73.7508 777.072 67.4314 Q770.753 61.1119 770.753 50.3365 Q770.753 39.1965 776.748 32.6746 Q782.784 26.1121 792.992 26.1121 Q802.147 26.1121 807.454 32.0264 Q812.801 37.9003 812.801 48.0275 M805.347 45.84 Q805.266 39.7232 801.904 36.0774 Q798.582 32.4315 793.073 32.4315 Q786.835 32.4315 783.067 35.9558 Q779.34 39.4801 778.773 45.8805 L805.347 45.84 Z" fill="#000000" fill-rule="nonzero" fill-opacity="1" /><path clip-path="url(#clip110)" d="M825.035 9.54393 L832.488 9.54393 L832.488 72.576 L825.035 72.576 L825.035 9.54393 Z" fill="#000000" fill-rule="nonzero" fill-opacity="1" /><path clip-path="url(#clip110)" d="M874.78 12.096 L882.963 12.096 L882.963 65.6895 L912.413 65.6895 L912.413 72.576 L874.78 72.576 L874.78 12.096 Z" fill="#000000" fill-rule="nonzero" fill-opacity="1" /><path clip-path="url(#clip110)" d="M936.799 32.4315 Q930.804 32.4315 927.32 37.1306 Q923.836 41.7891 923.836 49.9314 Q923.836 58.0738 927.279 62.7728 Q930.763 67.4314 936.799 67.4314 Q942.754 67.4314 946.238 62.7323 Q949.721 58.0333 949.721 49.9314 Q949.721 41.8701 946.238 37.1711 Q942.754 32.4315 936.799 32.4315 M936.799 26.1121 Q946.521 26.1121 952.071 32.4315 Q957.621 38.7509 957.621 49.9314 Q957.621 61.0714 952.071 67.4314 Q946.521 73.7508 936.799 73.7508 Q927.036 73.7508 921.487 67.4314 Q915.977 61.0714 915.977 49.9314 Q915.977 38.7509 921.487 32.4315 Q927.036 26.1121 936.799 26.1121 Z" fill="#000000" fill-rule="nonzero" fill-opacity="1" /><path clip-path="url(#clip110)" d="M990.595 49.7694 Q981.562 49.7694 978.078 51.8354 Q974.594 53.9013 974.594 58.8839 Q974.594 62.8538 977.187 65.2034 Q979.82 67.5124 984.316 67.5124 Q990.514 67.5124 994.241 63.1374 Q998.008 58.7219 998.008 51.4303 L998.008 49.7694 L990.595 49.7694 M1005.46 46.6907 L1005.46 72.576 L998.008 72.576 L998.008 65.6895 Q995.456 69.8214 991.648 71.8063 Q987.84 73.7508 982.331 73.7508 Q975.364 73.7508 971.232 69.8619 Q967.14 65.9325 967.14 59.3701 Q967.14 51.7138 972.244 47.825 Q977.389 43.9361 987.557 43.9361 L998.008 43.9361 L998.008 43.2069 Q998.008 38.0623 994.605 35.2672 Q991.243 32.4315 985.126 32.4315 Q981.237 32.4315 977.551 33.3632 Q973.865 34.295 970.462 36.1584 L970.462 29.2718 Q974.553 27.692 978.402 26.9223 Q982.25 26.1121 985.896 26.1121 Q995.74 26.1121 1000.6 31.2163 Q1005.46 36.3204 1005.46 46.6907 Z" fill="#000000" fill-rule="nonzero" fill-opacity="1" /><path clip-path="url(#clip110)" d="M1050.67 34.0924 L1050.67 9.54393 L1058.12 9.54393 L1058.12 72.576 L1050.67 72.576 L1050.67 65.7705 Q1048.32 69.8214 1044.72 71.8063 Q1041.15 73.7508 1036.13 73.7508 Q1027.9 73.7508 1022.72 67.1883 Q1017.57 60.6258 1017.57 49.9314 Q1017.57 39.2371 1022.72 32.6746 Q1027.9 26.1121 1036.13 26.1121 Q1041.15 26.1121 1044.72 28.0971 Q1048.32 30.0415 1050.67 34.0924 M1025.27 49.9314 Q1025.27 58.1548 1028.63 62.8538 Q1032.04 67.5124 1037.95 67.5124 Q1043.86 67.5124 1047.27 62.8538 Q1050.67 58.1548 1050.67 49.9314 Q1050.67 41.7081 1047.27 37.0496 Q1043.86 32.3505 1037.95 32.3505 Q1032.04 32.3505 1028.63 37.0496 Q1025.27 41.7081 1025.27 49.9314 Z" fill="#000000" fill-rule="nonzero" fill-opacity="1" /><path clip-path="url(#clip110)" d="M1136.43 14.0809 L1136.43 22.0612 Q1131.77 19.8332 1127.64 18.7395 Q1123.51 17.6457 1119.66 17.6457 Q1112.97 17.6457 1109.33 20.2383 Q1105.72 22.8309 1105.72 27.611 Q1105.72 31.6214 1108.11 33.6873 Q1110.54 35.7128 1117.27 36.9686 L1122.21 37.9813 Q1131.36 39.7232 1135.7 44.1387 Q1140.07 48.5136 1140.07 55.8863 Q1140.07 64.6767 1134.16 69.2137 Q1128.29 73.7508 1116.9 73.7508 Q1112.61 73.7508 1107.75 72.7785 Q1102.93 71.8063 1097.74 69.9024 L1097.74 61.4765 Q1102.72 64.2716 1107.5 65.6895 Q1112.28 67.1073 1116.9 67.1073 Q1123.91 67.1073 1127.72 64.3527 Q1131.53 61.598 1131.53 56.4939 Q1131.53 52.0379 1128.77 49.5264 Q1126.06 47.0148 1119.82 45.759 L1114.84 44.7868 Q1105.68 42.9639 1101.59 39.075 Q1097.5 35.1862 1097.5 28.2591 Q1097.5 20.2383 1103.13 15.6203 Q1108.8 11.0023 1118.73 11.0023 Q1122.98 11.0023 1127.39 11.7719 Q1131.81 12.5416 1136.43 14.0809 Z" fill="#000000" fill-rule="nonzero" fill-opacity="1" /><path clip-path="url(#clip110)" d="M1190.22 45.1919 L1190.22 72.576 L1182.77 72.576 L1182.77 45.4349 Q1182.77 38.994 1180.26 35.7938 Q1177.75 32.5936 1172.72 32.5936 Q1166.69 32.5936 1163.2 36.4419 Q1159.72 40.2903 1159.72 46.9338 L1159.72 72.576 L1152.23 72.576 L1152.23 9.54393 L1159.72 9.54393 L1159.72 34.2544 Q1162.39 30.163 1166 28.1376 Q1169.65 26.1121 1174.38 26.1121 Q1182.2 26.1121 1186.21 30.9732 Q1190.22 35.7938 1190.22 45.1919 Z" fill="#000000" fill-rule="nonzero" fill-opacity="1" /><path clip-path="url(#clip110)" d="M1243.9 48.0275 L1243.9 51.6733 L1209.63 51.6733 Q1210.11 59.3701 1214.25 63.421 Q1218.42 67.4314 1225.83 67.4314 Q1230.13 67.4314 1234.14 66.3781 Q1238.19 65.3249 1242.16 63.2184 L1242.16 70.267 Q1238.15 71.9684 1233.93 72.8596 Q1229.72 73.7508 1225.39 73.7508 Q1214.53 73.7508 1208.17 67.4314 Q1201.85 61.1119 1201.85 50.3365 Q1201.85 39.1965 1207.85 32.6746 Q1213.88 26.1121 1224.09 26.1121 Q1233.24 26.1121 1238.55 32.0264 Q1243.9 37.9003 1243.9 48.0275 M1236.44 45.84 Q1236.36 39.7232 1233 36.0774 Q1229.68 32.4315 1224.17 32.4315 Q1217.93 32.4315 1214.16 35.9558 Q1210.44 39.4801 1209.87 45.8805 L1236.44 45.84 Z" fill="#000000" fill-rule="nonzero" fill-opacity="1" /><path clip-path="url(#clip110)" d="M1285.99 34.0924 L1285.99 9.54393 L1293.44 9.54393 L1293.44 72.576 L1285.99 72.576 L1285.99 65.7705 Q1283.64 69.8214 1280.03 71.8063 Q1276.47 73.7508 1271.44 73.7508 Q1263.22 73.7508 1258.04 67.1883 Q1252.89 60.6258 1252.89 49.9314 Q1252.89 39.2371 1258.04 32.6746 Q1263.22 26.1121 1271.44 26.1121 Q1276.47 26.1121 1280.03 28.0971 Q1283.64 30.0415 1285.99 34.0924 M1260.59 49.9314 Q1260.59 58.1548 1263.95 62.8538 Q1267.35 67.5124 1273.27 67.5124 Q1279.18 67.5124 1282.58 62.8538 Q1285.99 58.1548 1285.99 49.9314 Q1285.99 41.7081 1282.58 37.0496 Q1279.18 32.3505 1273.27 32.3505 Q1267.35 32.3505 1263.95 37.0496 Q1260.59 41.7081 1260.59 49.9314 Z" fill="#000000" fill-rule="nonzero" fill-opacity="1" /><path clip-path="url(#clip110)" d="M1352.75 32.4315 Q1346.75 32.4315 1343.27 37.1306 Q1339.78 41.7891 1339.78 49.9314 Q1339.78 58.0738 1343.23 62.7728 Q1346.71 67.4314 1352.75 67.4314 Q1358.7 67.4314 1362.18 62.7323 Q1365.67 58.0333 1365.67 49.9314 Q1365.67 41.8701 1362.18 37.1711 Q1358.7 32.4315 1352.75 32.4315 M1352.75 26.1121 Q1362.47 26.1121 1368.02 32.4315 Q1373.57 38.7509 1373.57 49.9314 Q1373.57 61.0714 1368.02 67.4314 Q1362.47 73.7508 1352.75 73.7508 Q1342.98 73.7508 1337.43 67.4314 Q1331.92 61.0714 1331.92 49.9314 Q1331.92 38.7509 1337.43 32.4315 Q1342.98 26.1121 1352.75 26.1121 Z" fill="#000000" fill-rule="nonzero" fill-opacity="1" /><path clip-path="url(#clip110)" d="M1380.58 27.2059 L1388.47 27.2059 L1402.65 65.2844 L1416.83 27.2059 L1424.73 27.2059 L1407.72 72.576 L1397.59 72.576 L1380.58 27.2059 Z" fill="#000000" fill-rule="nonzero" fill-opacity="1" /><path clip-path="url(#clip110)" d="M1473.83 48.0275 L1473.83 51.6733 L1439.56 51.6733 Q1440.04 59.3701 1444.17 63.421 Q1448.35 67.4314 1455.76 67.4314 Q1460.05 67.4314 1464.06 66.3781 Q1468.12 65.3249 1472.09 63.2184 L1472.09 70.267 Q1468.08 71.9684 1463.86 72.8596 Q1459.65 73.7508 1455.31 73.7508 Q1444.46 73.7508 1438.1 67.4314 Q1431.78 61.1119 1431.78 50.3365 Q1431.78 39.1965 1437.77 32.6746 Q1443.81 26.1121 1454.02 26.1121 Q1463.17 26.1121 1468.48 32.0264 Q1473.83 37.9003 1473.83 48.0275 M1466.37 45.84 Q1466.29 39.7232 1462.93 36.0774 Q1459.61 32.4315 1454.1 32.4315 Q1447.86 32.4315 1444.09 35.9558 Q1440.37 39.4801 1439.8 45.8805 L1466.37 45.84 Z" fill="#000000" fill-rule="nonzero" fill-opacity="1" /><path clip-path="url(#clip110)" d="M1512.35 34.1734 Q1511.1 33.4443 1509.6 33.1202 Q1508.14 32.7556 1506.36 32.7556 Q1500.04 32.7556 1496.63 36.8875 Q1493.27 40.9789 1493.27 48.6757 L1493.27 72.576 L1485.78 72.576 L1485.78 27.2059 L1493.27 27.2059 L1493.27 34.2544 Q1495.62 30.1225 1499.39 28.1376 Q1503.16 26.1121 1508.54 26.1121 Q1509.31 26.1121 1510.25 26.2337 Q1511.18 26.3147 1512.31 26.5172 L1512.35 34.1734 Z" fill="#000000" fill-rule="nonzero" fill-opacity="1" /><path clip-path="url(#clip110)" d="M1546.87 12.096 L1555.05 12.096 L1555.05 72.576 L1546.87 72.576 L1546.87 12.096 Z" fill="#000000" fill-rule="nonzero" fill-opacity="1" /><path clip-path="url(#clip110)" d="M1578.38 14.324 L1578.38 27.2059 L1593.73 27.2059 L1593.73 32.9987 L1578.38 32.9987 L1578.38 57.6282 Q1578.38 63.1779 1579.88 64.7578 Q1581.42 66.3376 1586.08 66.3376 L1593.73 66.3376 L1593.73 72.576 L1586.08 72.576 Q1577.45 72.576 1574.17 69.3758 Q1570.89 66.1351 1570.89 57.6282 L1570.89 32.9987 L1565.42 32.9987 L1565.42 27.2059 L1570.89 27.2059 L1570.89 14.324 L1578.38 14.324 Z" fill="#000000" fill-rule="nonzero" fill-opacity="1" /><path clip-path="url(#clip110)" d="M1642.35 48.0275 L1642.35 51.6733 L1608.07 51.6733 Q1608.56 59.3701 1612.69 63.421 Q1616.86 67.4314 1624.28 67.4314 Q1628.57 67.4314 1632.58 66.3781 Q1636.63 65.3249 1640.6 63.2184 L1640.6 70.267 Q1636.59 71.9684 1632.38 72.8596 Q1628.17 73.7508 1623.83 73.7508 Q1612.98 73.7508 1606.62 67.4314 Q1600.3 61.1119 1600.3 50.3365 Q1600.3 39.1965 1606.29 32.6746 Q1612.33 26.1121 1622.54 26.1121 Q1631.69 26.1121 1637 32.0264 Q1642.35 37.9003 1642.35 48.0275 M1634.89 45.84 Q1634.81 39.7232 1631.45 36.0774 Q1628.13 32.4315 1622.62 32.4315 Q1616.38 32.4315 1612.61 35.9558 Q1608.88 39.4801 1608.32 45.8805 L1634.89 45.84 Z" fill="#000000" fill-rule="nonzero" fill-opacity="1" /><path clip-path="url(#clip110)" d="M1680.87 34.1734 Q1679.61 33.4443 1678.11 33.1202 Q1676.66 32.7556 1674.87 32.7556 Q1668.55 32.7556 1665.15 36.8875 Q1661.79 40.9789 1661.79 48.6757 L1661.79 72.576 L1654.3 72.576 L1654.3 27.2059 L1661.79 27.2059 L1661.79 34.2544 Q1664.14 30.1225 1667.91 28.1376 Q1671.67 26.1121 1677.06 26.1121 Q1677.83 26.1121 1678.76 26.2337 Q1679.69 26.3147 1680.83 26.5172 L1680.87 34.1734 Z" fill="#000000" fill-rule="nonzero" fill-opacity="1" /><path clip-path="url(#clip110)" d="M1709.31 49.7694 Q1700.27 49.7694 1696.79 51.8354 Q1693.31 53.9013 1693.31 58.8839 Q1693.31 62.8538 1695.9 65.2034 Q1698.53 67.5124 1703.03 67.5124 Q1709.23 67.5124 1712.95 63.1374 Q1716.72 58.7219 1716.72 51.4303 L1716.72 49.7694 L1709.31 49.7694 M1724.17 46.6907 L1724.17 72.576 L1716.72 72.576 L1716.72 65.6895 Q1714.17 69.8214 1710.36 71.8063 Q1706.55 73.7508 1701.04 73.7508 Q1694.08 73.7508 1689.94 69.8619 Q1685.85 65.9325 1685.85 59.3701 Q1685.85 51.7138 1690.96 47.825 Q1696.1 43.9361 1706.27 43.9361 L1716.72 43.9361 L1716.72 43.2069 Q1716.72 38.0623 1713.32 35.2672 Q1709.95 32.4315 1703.84 32.4315 Q1699.95 32.4315 1696.26 33.3632 Q1692.58 34.295 1689.17 36.1584 L1689.17 29.2718 Q1693.26 27.692 1697.11 26.9223 Q1700.96 26.1121 1704.61 26.1121 Q1714.45 26.1121 1719.31 31.2163 Q1724.17 36.3204 1724.17 46.6907 Z" fill="#000000" fill-rule="nonzero" fill-opacity="1" /><path clip-path="url(#clip110)" d="M1746.9 14.324 L1746.9 27.2059 L1762.25 27.2059 L1762.25 32.9987 L1746.9 32.9987 L1746.9 57.6282 Q1746.9 63.1779 1748.4 64.7578 Q1749.94 66.3376 1754.6 66.3376 L1762.25 66.3376 L1762.25 72.576 L1754.6 72.576 Q1745.97 72.576 1742.69 69.3758 Q1739.4 66.1351 1739.4 57.6282 L1739.4 32.9987 L1733.94 32.9987 L1733.94 27.2059 L1739.4 27.2059 L1739.4 14.324 L1746.9 14.324 Z" fill="#000000" fill-rule="nonzero" fill-opacity="1" /><path clip-path="url(#clip110)" d="M1772.06 27.2059 L1779.51 27.2059 L1779.51 72.576 L1772.06 72.576 L1772.06 27.2059 M1772.06 9.54393 L1779.51 9.54393 L1779.51 18.9825 L1772.06 18.9825 L1772.06 9.54393 Z" fill="#000000" fill-rule="nonzero" fill-opacity="1" /><path clip-path="url(#clip110)" d="M1812.69 32.4315 Q1806.69 32.4315 1803.21 37.1306 Q1799.72 41.7891 1799.72 49.9314 Q1799.72 58.0738 1803.17 62.7728 Q1806.65 67.4314 1812.69 67.4314 Q1818.64 67.4314 1822.12 62.7323 Q1825.61 58.0333 1825.61 49.9314 Q1825.61 41.8701 1822.12 37.1711 Q1818.64 32.4315 1812.69 32.4315 M1812.69 26.1121 Q1822.41 26.1121 1827.96 32.4315 Q1833.51 38.7509 1833.51 49.9314 Q1833.51 61.0714 1827.96 67.4314 Q1822.41 73.7508 1812.69 73.7508 Q1802.92 73.7508 1797.37 67.4314 Q1791.86 61.0714 1791.86 49.9314 Q1791.86 38.7509 1797.37 32.4315 Q1802.92 26.1121 1812.69 26.1121 Z" fill="#000000" fill-rule="nonzero" fill-opacity="1" /><path clip-path="url(#clip110)" d="M1883.58 45.1919 L1883.58 72.576 L1876.12 72.576 L1876.12 45.4349 Q1876.12 38.994 1873.61 35.7938 Q1871.1 32.5936 1866.08 32.5936 Q1860.04 32.5936 1856.56 36.4419 Q1853.07 40.2903 1853.07 46.9338 L1853.07 72.576 L1845.58 72.576 L1845.58 27.2059 L1853.07 27.2059 L1853.07 34.2544 Q1855.75 30.163 1859.35 28.1376 Q1863 26.1121 1867.74 26.1121 Q1875.56 26.1121 1879.57 30.9732 Q1883.58 35.7938 1883.58 45.1919 Z" fill="#000000" fill-rule="nonzero" fill-opacity="1" /><path clip-path="url(#clip110)" d="M1927.37 28.5427 L1927.37 35.5912 Q1924.21 33.9709 1920.8 33.1607 Q1917.4 32.3505 1913.76 32.3505 Q1908.21 32.3505 1905.41 34.0519 Q1902.66 35.7533 1902.66 39.156 Q1902.66 41.7486 1904.64 43.2475 Q1906.63 44.7058 1912.62 46.0426 L1915.17 46.6097 Q1923.11 48.3111 1926.43 51.4303 Q1929.8 54.509 1929.8 60.0587 Q1929.8 66.3781 1924.77 70.0644 Q1919.79 73.7508 1911.04 73.7508 Q1907.4 73.7508 1903.43 73.0216 Q1899.5 72.3329 1895.12 70.9151 L1895.12 63.2184 Q1899.25 65.3654 1903.26 66.4591 Q1907.27 67.5124 1911.2 67.5124 Q1916.47 67.5124 1919.31 65.73 Q1922.14 63.9071 1922.14 60.6258 Q1922.14 57.5877 1920.08 55.9673 Q1918.05 54.3469 1911.12 52.8481 L1908.53 52.2405 Q1901.6 50.7821 1898.52 47.7845 Q1895.45 44.7463 1895.45 39.4801 Q1895.45 33.0797 1899.98 29.5959 Q1904.52 26.1121 1912.86 26.1121 Q1917 26.1121 1920.64 26.7198 Q1924.29 27.3274 1927.37 28.5427 Z" fill="#000000" fill-rule="nonzero" fill-opacity="1" /><path clip-path="url(#clip110)" d="M1985.94 9.62495 Q1980.51 18.942 1977.88 28.0566 Q1975.25 37.1711 1975.25 46.5287 Q1975.25 55.8863 1977.88 65.0818 Q1980.56 74.2369 1985.94 83.5134 L1979.46 83.5134 Q1973.38 73.9938 1970.35 64.7983 Q1967.35 55.6027 1967.35 46.5287 Q1967.35 37.4952 1970.35 28.3401 Q1973.34 19.1851 1979.46 9.62495 L1985.94 9.62495 Z" fill="#000000" fill-rule="nonzero" fill-opacity="1" /><path clip-path="url(#clip110)" d="M2035.73 35.9153 Q2038.52 30.8922 2042.41 28.5022 Q2046.3 26.1121 2051.57 26.1121 Q2058.66 26.1121 2062.5 31.0947 Q2066.35 36.0368 2066.35 45.1919 L2066.35 72.576 L2058.86 72.576 L2058.86 45.4349 Q2058.86 38.913 2056.55 35.7533 Q2054.24 32.5936 2049.5 32.5936 Q2043.71 32.5936 2040.35 36.4419 Q2036.98 40.2903 2036.98 46.9338 L2036.98 72.576 L2029.49 72.576 L2029.49 45.4349 Q2029.49 38.8725 2027.18 35.7533 Q2024.87 32.5936 2020.05 32.5936 Q2014.34 32.5936 2010.98 36.4824 Q2007.62 40.3308 2007.62 46.9338 L2007.62 72.576 L2000.12 72.576 L2000.12 27.2059 L2007.62 27.2059 L2007.62 34.2544 Q2010.17 30.082 2013.73 28.0971 Q2017.3 26.1121 2022.2 26.1121 Q2027.14 26.1121 2030.58 28.6237 Q2034.07 31.1352 2035.73 35.9153 Z" fill="#000000" fill-rule="nonzero" fill-opacity="1" /><path clip-path="url(#clip110)" d="M2081.22 27.2059 L2088.67 27.2059 L2088.67 72.576 L2081.22 72.576 L2081.22 27.2059 M2081.22 9.54393 L2088.67 9.54393 L2088.67 18.9825 L2081.22 18.9825 L2081.22 9.54393 Z" fill="#000000" fill-rule="nonzero" fill-opacity="1" /><path clip-path="url(#clip110)" d="M2141.98 45.1919 L2141.98 72.576 L2134.53 72.576 L2134.53 45.4349 Q2134.53 38.994 2132.02 35.7938 Q2129.51 32.5936 2124.48 32.5936 Q2118.45 32.5936 2114.96 36.4419 Q2111.48 40.2903 2111.48 46.9338 L2111.48 72.576 L2103.99 72.576 L2103.99 27.2059 L2111.48 27.2059 L2111.48 34.2544 Q2114.15 30.163 2117.76 28.1376 Q2121.4 26.1121 2126.14 26.1121 Q2133.96 26.1121 2137.97 30.9732 Q2141.98 35.7938 2141.98 45.1919 Z" fill="#000000" fill-rule="nonzero" fill-opacity="1" /><path clip-path="url(#clip110)" d="M2191.32 86.3491 L2191.32 92.1419 L2148.22 92.1419 L2148.22 86.3491 L2191.32 86.3491 Z" fill="#000000" fill-rule="nonzero" fill-opacity="1" /><path clip-path="url(#clip110)" d="M2233.66 35.9153 Q2236.45 30.8922 2240.34 28.5022 Q2244.23 26.1121 2249.49 26.1121 Q2256.58 26.1121 2260.43 31.0947 Q2264.28 36.0368 2264.28 45.1919 L2264.28 72.576 L2256.79 72.576 L2256.79 45.4349 Q2256.79 38.913 2254.48 35.7533 Q2252.17 32.5936 2247.43 32.5936 Q2241.64 32.5936 2238.27 36.4419 Q2234.91 40.2903 2234.91 46.9338 L2234.91 72.576 L2227.42 72.576 L2227.42 45.4349 Q2227.42 38.8725 2225.11 35.7533 Q2222.8 32.5936 2217.98 32.5936 Q2212.27 32.5936 2208.9 36.4824 Q2205.54 40.3308 2205.54 46.9338 L2205.54 72.576 L2198.05 72.576 L2198.05 27.2059 L2205.54 27.2059 L2205.54 34.2544 Q2208.09 30.082 2211.66 28.0971 Q2215.22 26.1121 2220.13 26.1121 Q2225.07 26.1121 2228.51 28.6237 Q2231.99 31.1352 2233.66 35.9153 Z" fill="#000000" fill-rule="nonzero" fill-opacity="1" /><path clip-path="url(#clip110)" d="M2299.77 49.7694 Q2290.73 49.7694 2287.25 51.8354 Q2283.77 53.9013 2283.77 58.8839 Q2283.77 62.8538 2286.36 65.2034 Q2288.99 67.5124 2293.49 67.5124 Q2299.69 67.5124 2303.41 63.1374 Q2307.18 58.7219 2307.18 51.4303 L2307.18 49.7694 L2299.77 49.7694 M2314.63 46.6907 L2314.63 72.576 L2307.18 72.576 L2307.18 65.6895 Q2304.63 69.8214 2300.82 71.8063 Q2297.01 73.7508 2291.5 73.7508 Q2284.53 73.7508 2280.4 69.8619 Q2276.31 65.9325 2276.31 59.3701 Q2276.31 51.7138 2281.42 47.825 Q2286.56 43.9361 2296.73 43.9361 L2307.18 43.9361 L2307.18 43.2069 Q2307.18 38.0623 2303.78 35.2672 Q2300.41 32.4315 2294.3 32.4315 Q2290.41 32.4315 2286.72 33.3632 Q2283.04 34.295 2279.63 36.1584 L2279.63 29.2718 Q2283.72 27.692 2287.57 26.9223 Q2291.42 26.1121 2295.07 26.1121 Q2304.91 26.1121 2309.77 31.2163 Q2314.63 36.3204 2314.63 46.6907 Z" fill="#000000" fill-rule="nonzero" fill-opacity="1" /><path clip-path="url(#clip110)" d="M2367.7 27.2059 L2351.29 49.2833 L2368.55 72.576 L2359.76 72.576 L2346.55 54.752 L2333.35 72.576 L2324.56 72.576 L2342.18 48.8377 L2326.06 27.2059 L2334.85 27.2059 L2346.88 43.369 L2358.91 27.2059 L2367.7 27.2059 Z" fill="#000000" fill-rule="nonzero" fill-opacity="1" /><path clip-path="url(#clip110)" d="M2377.91 9.62495 L2384.39 9.62495 Q2390.47 19.1851 2393.46 28.3401 Q2396.5 37.4952 2396.5 46.5287 Q2396.5 55.6027 2393.46 64.7983 Q2390.47 73.9938 2384.39 83.5134 L2377.91 83.5134 Q2383.3 74.2369 2385.93 65.0818 Q2388.6 55.8863 2388.6 46.5287 Q2388.6 37.1711 2385.93 28.0566 Q2383.3 18.942 2377.91 9.62495 Z" fill="#000000" fill-rule="nonzero" fill-opacity="1" /><polyline clip-path="url(#clip112)" style="stroke:#009af9; stroke-linecap:round; stroke-linejoin:round; stroke-width:4; stroke-opacity:1; fill:none" points="453.584,1386.4 2297.44,160.256 "/>
<path clip-path="url(#clip112)" d="M453.584 1402.4 L442.272 1397.71 L437.584 1386.4 L442.272 1375.08 L453.584 1370.4 L464.896 1375.08 L469.584 1386.4 L464.896 1397.71 Z" fill="#009af9" fill-rule="evenodd" fill-opacity="1" stroke="#000000" stroke-opacity="1" stroke-width="3.2"/>
<path clip-path="url(#clip112)" d="M2297.44 176.256 L2286.13 171.568 L2281.44 160.256 L2286.13 148.944 L2297.44 144.256 L2308.75 148.944 L2313.44 160.256 L2308.75 171.568 Z" fill="#009af9" fill-rule="evenodd" fill-opacity="1" stroke="#000000" stroke-opacity="1" stroke-width="3.2"/>
<path clip-path="url(#clip110)" d="M463.418 270.476 L711.297 270.476 L711.297 166.796 L463.418 166.796  Z" fill="#ffffff" fill-rule="evenodd" fill-opacity="1"/>
<polyline clip-path="url(#clip110)" style="stroke:#000000; stroke-linecap:round; stroke-linejoin:round; stroke-width:4; stroke-opacity:1; fill:none" points="463.418,270.476 711.297,270.476 711.297,166.796 463.418,166.796 463.418,270.476 "/>
<polyline clip-path="url(#clip110)" style="stroke:#009af9; stroke-linecap:round; stroke-linejoin:round; stroke-width:4; stroke-opacity:1; fill:none" points="485.134,218.636 615.433,218.636 "/>
<path clip-path="url(#clip110)" d="M550.284 238.744 L536.068 232.852 L530.176 218.636 L536.068 204.419 L550.284 198.528 L564.5 204.419 L570.392 218.636 L564.5 232.852 Z" fill="#009af9" fill-rule="evenodd" fill-opacity="1" stroke="#000000" stroke-opacity="1" stroke-width="4.55111"/>
<path clip-path="url(#clip110)" d="M650.992 238.323 Q649.187 242.953 647.474 244.365 Q645.761 245.777 642.891 245.777 L639.488 245.777 L639.488 242.212 L641.988 242.212 Q643.747 242.212 644.719 241.379 Q645.692 240.545 646.872 237.443 L647.636 235.499 L637.15 209.99 L641.664 209.99 L649.766 230.268 L657.867 209.99 L662.381 209.99 L650.992 238.323 Z" fill="#000000" fill-rule="nonzero" fill-opacity="1" /><path clip-path="url(#clip110)" d="M669.673 231.981 L677.312 231.981 L677.312 205.615 L669.002 207.282 L669.002 203.022 L677.265 201.356 L681.941 201.356 L681.941 231.981 L689.58 231.981 L689.58 235.916 L669.673 235.916 L669.673 231.981 Z" fill="#000000" fill-rule="nonzero" fill-opacity="1" /></svg>
