<?xml version="1.0" encoding="utf-8"?>
<svg xmlns="http://www.w3.org/2000/svg" xmlns:xlink="http://www.w3.org/1999/xlink" width="600" height="400" viewBox="0 0 2400 1600">
<defs>
  <clipPath id="clip080">
    <rect x="0" y="0" width="2400" height="1600"/>
  </clipPath>
</defs>
<path clip-path="url(#clip080)" d="M0 1600 L2400 1600 L2400 0 L0 0  Z" fill="#ffffff" fill-rule="evenodd" fill-opacity="1"/>
<defs>
  <clipPath id="clip081">
    <rect x="480" y="0" width="1681" height="1600"/>
  </clipPath>
</defs>
<path clip-path="url(#clip080)" d="M205.121 1423.18 L2352.76 1423.18 L2352.76 123.472 L205.121 123.472  Z" fill="#ffffff" fill-rule="evenodd" fill-opacity="1"/>
<defs>
  <clipPath id="clip082">
    <rect x="205" y="123" width="2149" height="1301"/>
  </clipPath>
</defs>
<polyline clip-path="url(#clip082)" style="stroke:#000000; stroke-linecap:round; stroke-linejoin:round; stroke-width:2; stroke-opacity:0.1; fill:none" points="240.141,1423.18 240.141,123.472 "/>
<polyline clip-path="url(#clip082)" style="stroke:#000000; stroke-linecap:round; stroke-linejoin:round; stroke-width:2; stroke-opacity:0.1; fill:none" points="932.673,1423.18 932.673,123.472 "/>
<polyline clip-path="url(#clip082)" style="stroke:#000000; stroke-linecap:round; stroke-linejoin:round; stroke-width:2; stroke-opacity:0.1; fill:none" points="1625.2,1423.18 1625.2,123.472 "/>
<polyline clip-path="url(#clip082)" style="stroke:#000000; stroke-linecap:round; stroke-linejoin:round; stroke-width:2; stroke-opacity:0.1; fill:none" points="2317.74,1423.18 2317.74,123.472 "/>
<polyline clip-path="url(#clip082)" style="stroke:#000000; stroke-linecap:round; stroke-linejoin:round; stroke-width:2; stroke-opacity:0.1; fill:none" points="205.121,1423.18 2352.76,1423.18 "/>
<polyline clip-path="url(#clip082)" style="stroke:#000000; stroke-linecap:round; stroke-linejoin:round; stroke-width:2; stroke-opacity:0.1; fill:none" points="205.121,1137.42 2352.76,1137.42 "/>
<polyline clip-path="url(#clip082)" style="stroke:#000000; stroke-linecap:round; stroke-linejoin:round; stroke-width:2; stroke-opacity:0.1; fill:none" points="205.121,851.658 2352.76,851.658 "/>
<polyline clip-path="url(#clip082)" style="stroke:#000000; stroke-linecap:round; stroke-linejoin:round; stroke-width:2; stroke-opacity:0.1; fill:none" points="205.121,565.897 2352.76,565.897 "/>
<polyline clip-path="url(#clip082)" style="stroke:#000000; stroke-linecap:round; stroke-linejoin:round; stroke-width:2; stroke-opacity:0.1; fill:none" points="205.121,280.137 2352.76,280.137 "/>
<polyline clip-path="url(#clip080)" style="stroke:#000000; stroke-linecap:round; stroke-linejoin:round; stroke-width:4; stroke-opacity:1; fill:none" points="205.121,1423.18 2352.76,1423.18 "/>
<polyline clip-path="url(#clip080)" style="stroke:#000000; stroke-linecap:round; stroke-linejoin:round; stroke-width:4; stroke-opacity:1; fill:none" points="240.141,1423.18 240.141,1404.28 "/>
<polyline clip-path="url(#clip080)" style="stroke:#000000; stroke-linecap:round; stroke-linejoin:round; stroke-width:4; stroke-opacity:1; fill:none" points="932.673,1423.18 932.673,1404.28 "/>
<polyline clip-path="url(#clip080)" style="stroke:#000000; stroke-linecap:round; stroke-linejoin:round; stroke-width:4; stroke-opacity:1; fill:none" points="1625.2,1423.18 1625.2,1404.28 "/>
<polyline clip-path="url(#clip080)" style="stroke:#000000; stroke-linecap:round; stroke-linejoin:round; stroke-width:4; stroke-opacity:1; fill:none" points="2317.74,1423.18 2317.74,1404.28 "/>
<path clip-path="url(#clip080)" d="M240.141 1454.1 Q236.53 1454.1 234.701 1457.66 Q232.896 1461.2 232.896 1468.33 Q232.896 1475.44 234.701 1479.01 Q236.53 1482.55 240.141 1482.55 Q243.775 1482.55 245.581 1479.01 Q247.409 1475.44 247.409 1468.33 Q247.409 1461.2 245.581 1457.66 Q243.775 1454.1 240.141 1454.1 M240.141 1450.39 Q245.951 1450.39 249.007 1455 Q252.085 1459.58 252.085 1468.33 Q252.085 1477.06 249.007 1481.67 Q245.951 1486.25 240.141 1486.25 Q234.331 1486.25 231.252 1481.67 Q228.197 1477.06 228.197 1468.33 Q228.197 1459.58 231.252 1455 Q234.331 1450.39 240.141 1450.39 Z" fill="#000000" fill-rule="nonzero" fill-opacity="1" /><path clip-path="url(#clip080)" d="M922.95 1451.02 L941.307 1451.02 L941.307 1454.96 L927.233 1454.96 L927.233 1463.43 Q928.251 1463.08 929.27 1462.92 Q930.288 1462.73 931.307 1462.73 Q937.094 1462.73 940.473 1465.9 Q943.853 1469.08 943.853 1474.49 Q943.853 1480.07 940.381 1483.17 Q936.909 1486.25 930.589 1486.25 Q928.413 1486.25 926.145 1485.88 Q923.899 1485.51 921.492 1484.77 L921.492 1480.07 Q923.575 1481.2 925.798 1481.76 Q928.02 1482.32 930.497 1482.32 Q934.501 1482.32 936.839 1480.21 Q939.177 1478.1 939.177 1474.49 Q939.177 1470.88 936.839 1468.77 Q934.501 1466.67 930.497 1466.67 Q928.622 1466.67 926.747 1467.08 Q924.895 1467.5 922.95 1468.38 L922.95 1451.02 Z" fill="#000000" fill-rule="nonzero" fill-opacity="1" /><path clip-path="url(#clip080)" d="M1599.89 1481.64 L1607.53 1481.64 L1607.53 1455.28 L1599.22 1456.95 L1599.22 1452.69 L1607.48 1451.02 L1612.16 1451.02 L1612.16 1481.64 L1619.8 1481.64 L1619.8 1485.58 L1599.89 1485.58 L1599.89 1481.64 Z" fill="#000000" fill-rule="nonzero" fill-opacity="1" /><path clip-path="url(#clip080)" d="M1639.24 1454.1 Q1635.63 1454.1 1633.8 1457.66 Q1632 1461.2 1632 1468.33 Q1632 1475.44 1633.8 1479.01 Q1635.63 1482.55 1639.24 1482.55 Q1642.88 1482.55 1644.68 1479.01 Q1646.51 1475.44 1646.51 1468.33 Q1646.51 1461.2 1644.68 1457.66 Q1642.88 1454.1 1639.24 1454.1 M1639.24 1450.39 Q1645.05 1450.39 1648.11 1455 Q1651.19 1459.58 1651.19 1468.33 Q1651.19 1477.06 1648.11 1481.67 Q1645.05 1486.25 1639.24 1486.25 Q1633.43 1486.25 1630.35 1481.67 Q1627.3 1477.06 1627.3 1468.33 Q1627.3 1459.58 1630.35 1455 Q1633.43 1450.39 1639.24 1450.39 Z" fill="#000000" fill-rule="nonzero" fill-opacity="1" /><path clip-path="url(#clip080)" d="M2292.92 1481.64 L2300.56 1481.64 L2300.56 1455.28 L2292.25 1456.95 L2292.25 1452.69 L2300.51 1451.02 L2305.19 1451.02 L2305.19 1481.64 L2312.83 1481.64 L2312.83 1485.58 L2292.92 1485.58 L2292.92 1481.64 Z" fill="#000000" fill-rule="nonzero" fill-opacity="1" /><path clip-path="url(#clip080)" d="M2322.32 1451.02 L2340.68 1451.02 L2340.68 1454.96 L2326.6 1454.96 L2326.6 1463.43 Q2327.62 1463.08 2328.64 1462.92 Q2329.66 1462.73 2330.68 1462.73 Q2336.46 1462.73 2339.84 1465.9 Q2343.22 1469.08 2343.22 1474.49 Q2343.22 1480.07 2339.75 1483.17 Q2336.28 1486.25 2329.96 1486.25 Q2327.78 1486.25 2325.51 1485.88 Q2323.27 1485.51 2320.86 1484.77 L2320.86 1480.07 Q2322.94 1481.2 2325.17 1481.76 Q2327.39 1482.32 2329.87 1482.32 Q2333.87 1482.32 2336.21 1480.21 Q2338.55 1478.1 2338.55 1474.49 Q2338.55 1470.88 2336.21 1468.77 Q2333.87 1466.67 2329.87 1466.67 Q2327.99 1466.67 2326.12 1467.08 Q2324.26 1467.5 2322.32 1468.38 L2322.32 1451.02 Z" fill="#000000" fill-rule="nonzero" fill-opacity="1" /><path clip-path="url(#clip080)" d="M1160.81 1520.52 L1167.24 1520.52 L1167.24 1562.63 L1190.38 1562.63 L1190.38 1568.04 L1160.81 1568.04 L1160.81 1520.52 Z" fill="#000000" fill-rule="nonzero" fill-opacity="1" /><path clip-path="url(#clip080)" d="M1209.54 1536.5 Q1204.83 1536.5 1202.09 1540.19 Q1199.35 1543.85 1199.35 1550.25 Q1199.35 1556.65 1202.06 1560.34 Q1204.79 1564 1209.54 1564 Q1214.22 1564 1216.95 1560.31 Q1219.69 1556.62 1219.69 1550.25 Q1219.69 1543.92 1216.95 1540.23 Q1214.22 1536.5 1209.54 1536.5 M1209.54 1531.54 Q1217.18 1531.54 1221.54 1536.5 Q1225.9 1541.47 1225.9 1550.25 Q1225.9 1559 1221.54 1564 Q1217.18 1568.97 1209.54 1568.97 Q1201.87 1568.97 1197.51 1564 Q1193.18 1559 1193.18 1550.25 Q1193.18 1541.47 1197.51 1536.5 Q1201.87 1531.54 1209.54 1531.54 Z" fill="#000000" fill-rule="nonzero" fill-opacity="1" /><path clip-path="url(#clip080)" d="M1251.8 1550.12 Q1244.71 1550.12 1241.97 1551.75 Q1239.23 1553.37 1239.23 1557.29 Q1239.23 1560.4 1241.27 1562.25 Q1243.34 1564.07 1246.87 1564.07 Q1251.74 1564.07 1254.67 1560.63 Q1257.63 1557.16 1257.63 1551.43 L1257.63 1550.12 L1251.8 1550.12 M1263.49 1547.71 L1263.49 1568.04 L1257.63 1568.04 L1257.63 1562.63 Q1255.62 1565.88 1252.63 1567.44 Q1249.64 1568.97 1245.31 1568.97 Q1239.84 1568.97 1236.59 1565.91 Q1233.38 1562.82 1233.38 1557.67 Q1233.38 1551.65 1237.39 1548.6 Q1241.43 1545.54 1249.42 1545.54 L1257.63 1545.54 L1257.63 1544.97 Q1257.63 1540.93 1254.96 1538.73 Q1252.31 1536.5 1247.51 1536.5 Q1244.45 1536.5 1241.56 1537.23 Q1238.66 1537.97 1235.99 1539.43 L1235.99 1534.02 Q1239.2 1532.78 1242.22 1532.17 Q1245.25 1531.54 1248.11 1531.54 Q1255.85 1531.54 1259.67 1535.55 Q1263.49 1539.56 1263.49 1547.71 Z" fill="#000000" fill-rule="nonzero" fill-opacity="1" /><path clip-path="url(#clip080)" d="M1299.01 1537.81 L1299.01 1518.52 L1304.86 1518.52 L1304.86 1568.04 L1299.01 1568.04 L1299.01 1562.7 Q1297.16 1565.88 1294.33 1567.44 Q1291.53 1568.97 1287.58 1568.97 Q1281.12 1568.97 1277.04 1563.81 Q1273 1558.65 1273 1550.25 Q1273 1541.85 1277.04 1536.69 Q1281.12 1531.54 1287.58 1531.54 Q1291.53 1531.54 1294.33 1533.1 Q1297.16 1534.62 1299.01 1537.81 M1279.05 1550.25 Q1279.05 1556.71 1281.69 1560.4 Q1284.37 1564.07 1289.01 1564.07 Q1293.66 1564.07 1296.33 1560.4 Q1299.01 1556.71 1299.01 1550.25 Q1299.01 1543.79 1296.33 1540.13 Q1293.66 1536.44 1289.01 1536.44 Q1284.37 1536.44 1281.69 1540.13 Q1279.05 1543.79 1279.05 1550.25 Z" fill="#000000" fill-rule="nonzero" fill-opacity="1" /><path clip-path="url(#clip080)" d="M1337.9 1520.52 L1344.33 1520.52 L1344.33 1568.04 L1337.9 1568.04 L1337.9 1520.52 Z" fill="#000000" fill-rule="nonzero" fill-opacity="1" /><path clip-path="url(#clip080)" d="M1363.55 1525.81 L1363.55 1562.76 L1371.32 1562.76 Q1381.16 1562.76 1385.71 1558.3 Q1390.29 1553.85 1390.29 1544.24 Q1390.29 1534.69 1385.71 1530.26 Q1381.16 1525.81 1371.32 1525.81 L1363.55 1525.81 M1357.13 1520.52 L1370.33 1520.52 Q1384.15 1520.52 1390.61 1526.28 Q1397.07 1532.01 1397.07 1544.24 Q1397.07 1556.52 1390.58 1562.28 Q1384.08 1568.04 1370.33 1568.04 L1357.13 1568.04 L1357.13 1520.52 Z" fill="#000000" fill-rule="nonzero" fill-opacity="1" /><polyline clip-path="url(#clip080)" style="stroke:#000000; stroke-linecap:round; stroke-linejoin:round; stroke-width:4; stroke-opacity:1; fill:none" points="205.121,1423.18 205.121,123.472 "/>
<polyline clip-path="url(#clip080)" style="stroke:#000000; stroke-linecap:round; stroke-linejoin:round; stroke-width:4; stroke-opacity:1; fill:none" points="205.121,1423.18 224.019,1423.18 "/>
<polyline clip-path="url(#clip080)" style="stroke:#000000; stroke-linecap:round; stroke-linejoin:round; stroke-width:4; stroke-opacity:1; fill:none" points="205.121,1137.42 224.019,1137.42 "/>
<polyline clip-path="url(#clip080)" style="stroke:#000000; stroke-linecap:round; stroke-linejoin:round; stroke-width:4; stroke-opacity:1; fill:none" points="205.121,851.658 224.019,851.658 "/>
<polyline clip-path="url(#clip080)" style="stroke:#000000; stroke-linecap:round; stroke-linejoin:round; stroke-width:4; stroke-opacity:1; fill:none" points="205.121,565.897 224.019,565.897 "/>
<polyline clip-path="url(#clip080)" style="stroke:#000000; stroke-linecap:round; stroke-linejoin:round; stroke-width:4; stroke-opacity:1; fill:none" points="205.121,280.137 224.019,280.137 "/>
<path clip-path="url(#clip080)" d="M157.177 1408.98 Q153.566 1408.98 151.737 1412.54 Q149.931 1416.08 149.931 1423.21 Q149.931 1430.32 151.737 1433.89 Q153.566 1437.43 157.177 1437.43 Q160.811 1437.43 162.616 1433.89 Q164.445 1430.32 164.445 1423.21 Q164.445 1416.08 162.616 1412.54 Q160.811 1408.98 157.177 1408.98 M157.177 1405.27 Q162.987 1405.27 166.042 1409.88 Q169.121 1414.46 169.121 1423.21 Q169.121 1431.94 166.042 1436.55 Q162.987 1441.13 157.177 1441.13 Q151.366 1441.13 148.288 1436.55 Q145.232 1431.94 145.232 1423.21 Q145.232 1414.46 148.288 1409.88 Q151.366 1405.27 157.177 1405.27 Z" fill="#000000" fill-rule="nonzero" fill-opacity="1" /><path clip-path="url(#clip080)" d="M117.825 1150.76 L125.464 1150.76 L125.464 1124.4 L117.154 1126.06 L117.154 1121.81 L125.418 1120.14 L130.093 1120.14 L130.093 1150.76 L137.732 1150.76 L137.732 1154.7 L117.825 1154.7 L117.825 1150.76 Z" fill="#000000" fill-rule="nonzero" fill-opacity="1" /><path clip-path="url(#clip080)" d="M157.177 1123.22 Q153.566 1123.22 151.737 1126.78 Q149.931 1130.32 149.931 1137.45 Q149.931 1144.56 151.737 1148.12 Q153.566 1151.67 157.177 1151.67 Q160.811 1151.67 162.616 1148.12 Q164.445 1144.56 164.445 1137.45 Q164.445 1130.32 162.616 1126.78 Q160.811 1123.22 157.177 1123.22 M157.177 1119.51 Q162.987 1119.51 166.042 1124.12 Q169.121 1128.7 169.121 1137.45 Q169.121 1146.18 166.042 1150.79 Q162.987 1155.37 157.177 1155.37 Q151.366 1155.37 148.288 1150.79 Q145.232 1146.18 145.232 1137.45 Q145.232 1128.7 148.288 1124.12 Q151.366 1119.51 157.177 1119.51 Z" fill="#000000" fill-rule="nonzero" fill-opacity="1" /><path clip-path="url(#clip080)" d="M121.043 865.003 L137.362 865.003 L137.362 868.938 L115.418 868.938 L115.418 865.003 Q118.08 862.248 122.663 857.619 Q127.269 852.966 128.45 851.623 Q130.695 849.1 131.575 847.364 Q132.478 845.605 132.478 843.915 Q132.478 841.161 130.533 839.424 Q128.612 837.688 125.51 837.688 Q123.311 837.688 120.857 838.452 Q118.427 839.216 115.649 840.767 L115.649 836.045 Q118.473 834.911 120.927 834.332 Q123.38 833.753 125.418 833.753 Q130.788 833.753 133.982 836.438 Q137.177 839.124 137.177 843.614 Q137.177 845.744 136.367 847.665 Q135.579 849.563 133.473 852.156 Q132.894 852.827 129.792 856.045 Q126.691 859.239 121.043 865.003 Z" fill="#000000" fill-rule="nonzero" fill-opacity="1" /><path clip-path="url(#clip080)" d="M157.177 837.457 Q153.566 837.457 151.737 841.022 Q149.931 844.563 149.931 851.693 Q149.931 858.799 151.737 862.364 Q153.566 865.906 157.177 865.906 Q160.811 865.906 162.616 862.364 Q164.445 858.799 164.445 851.693 Q164.445 844.563 162.616 841.022 Q160.811 837.457 157.177 837.457 M157.177 833.753 Q162.987 833.753 166.042 838.36 Q169.121 842.943 169.121 851.693 Q169.121 860.42 166.042 865.026 Q162.987 869.609 157.177 869.609 Q151.366 869.609 148.288 865.026 Q145.232 860.42 145.232 851.693 Q145.232 842.943 148.288 838.36 Q151.366 833.753 157.177 833.753 Z" fill="#000000" fill-rule="nonzero" fill-opacity="1" /><path clip-path="url(#clip080)" d="M131.181 564.543 Q134.538 565.261 136.413 567.529 Q138.311 569.798 138.311 573.131 Q138.311 578.247 134.792 581.048 Q131.274 583.849 124.793 583.849 Q122.617 583.849 120.302 583.409 Q118.01 582.992 115.556 582.136 L115.556 577.622 Q117.501 578.756 119.816 579.335 Q122.13 579.913 124.654 579.913 Q129.052 579.913 131.343 578.177 Q133.658 576.441 133.658 573.131 Q133.658 570.076 131.505 568.363 Q129.376 566.626 125.556 566.626 L121.529 566.626 L121.529 562.784 L125.742 562.784 Q129.191 562.784 131.019 561.418 Q132.848 560.029 132.848 557.437 Q132.848 554.775 130.95 553.363 Q129.075 551.928 125.556 551.928 Q123.635 551.928 121.436 552.344 Q119.237 552.761 116.598 553.64 L116.598 549.474 Q119.26 548.733 121.575 548.363 Q123.913 547.992 125.973 547.992 Q131.297 547.992 134.399 550.423 Q137.501 552.83 137.501 556.951 Q137.501 559.821 135.857 561.812 Q134.214 563.779 131.181 564.543 Z" fill="#000000" fill-rule="nonzero" fill-opacity="1" /><path clip-path="url(#clip080)" d="M157.177 551.696 Q153.566 551.696 151.737 555.261 Q149.931 558.802 149.931 565.932 Q149.931 573.039 151.737 576.603 Q153.566 580.145 157.177 580.145 Q160.811 580.145 162.616 576.603 Q164.445 573.039 164.445 565.932 Q164.445 558.802 162.616 555.261 Q160.811 551.696 157.177 551.696 M157.177 547.992 Q162.987 547.992 166.042 552.599 Q169.121 557.182 169.121 565.932 Q169.121 574.659 166.042 579.265 Q162.987 583.849 157.177 583.849 Q151.366 583.849 148.288 579.265 Q145.232 574.659 145.232 565.932 Q145.232 557.182 148.288 552.599 Q151.366 547.992 157.177 547.992 Z" fill="#000000" fill-rule="nonzero" fill-opacity="1" /><path clip-path="url(#clip080)" d="M129.862 266.931 L118.056 285.38 L129.862 285.38 L129.862 266.931 M128.635 262.857 L134.515 262.857 L134.515 285.38 L139.445 285.38 L139.445 289.268 L134.515 289.268 L134.515 297.417 L129.862 297.417 L129.862 289.268 L114.26 289.268 L114.26 284.755 L128.635 262.857 Z" fill="#000000" fill-rule="nonzero" fill-opacity="1" /><path clip-path="url(#clip080)" d="M157.177 265.935 Q153.566 265.935 151.737 269.5 Q149.931 273.042 149.931 280.171 Q149.931 287.278 151.737 290.842 Q153.566 294.384 157.177 294.384 Q160.811 294.384 162.616 290.842 Q164.445 287.278 164.445 280.171 Q164.445 273.042 162.616 269.5 Q160.811 265.935 157.177 265.935 M157.177 262.232 Q162.987 262.232 166.042 266.838 Q169.121 271.421 169.121 280.171 Q169.121 288.898 166.042 293.504 Q162.987 298.088 157.177 298.088 Q151.366 298.088 148.288 293.504 Q145.232 288.898 145.232 280.171 Q145.232 271.421 148.288 266.838 Q151.366 262.232 157.177 262.232 Z" fill="#000000" fill-rule="nonzero" fill-opacity="1" /><path clip-path="url(#clip080)" d="M16.4842 1039.99 L16.4842 1012.68 L21.895 1012.68 L21.895 1033.56 L35.8996 1033.56 L35.8996 1014.71 L41.3104 1014.71 L41.3104 1033.56 L64.0042 1033.56 L64.0042 1039.99 L16.4842 1039.99 Z" fill="#000000" fill-rule="nonzero" fill-opacity="1" /><path clip-path="url(#clip080)" d="M46.0847 992.529 Q46.0847 999.627 47.7079 1002.36 Q49.3312 1005.1 53.2461 1005.1 Q56.3653 1005.1 58.2114 1003.06 Q60.0256 1001 60.0256 997.463 Q60.0256 992.593 56.5881 989.665 Q53.1188 986.704 47.3897 986.704 L46.0847 986.704 L46.0847 992.529 M43.6657 980.848 L64.0042 980.848 L64.0042 986.704 L58.5933 986.704 Q61.8398 988.71 63.3994 991.702 Q64.9272 994.693 64.9272 999.022 Q64.9272 1004.5 61.8716 1007.74 Q58.7843 1010.96 53.6281 1010.96 Q47.6125 1010.96 44.5569 1006.95 Q41.5014 1002.91 41.5014 994.916 L41.5014 986.704 L40.9285 986.704 Q36.8862 986.704 34.6901 989.378 Q32.4621 992.02 32.4621 996.826 Q32.4621 999.881 33.1941 1002.78 Q33.9262 1005.67 35.3903 1008.35 L29.9795 1008.35 Q28.7381 1005.13 28.1334 1002.11 Q27.4968 999.086 27.4968 996.221 Q27.4968 988.487 31.5072 984.667 Q35.5176 980.848 43.6657 980.848 Z" fill="#000000" fill-rule="nonzero" fill-opacity="1" /><path clip-path="url(#clip080)" d="M28.3562 968.785 L28.3562 962.929 L64.0042 962.929 L64.0042 968.785 L28.3562 968.785 M14.479 968.785 L14.479 962.929 L21.895 962.929 L21.895 968.785 L14.479 968.785 Z" fill="#000000" fill-rule="nonzero" fill-opacity="1" /><path clip-path="url(#clip080)" d="M33.8307 930.018 Q33.2578 931.005 33.0032 932.182 Q32.7167 933.328 32.7167 934.728 Q32.7167 939.694 35.9632 942.367 Q39.1779 945.009 45.2253 945.009 L64.0042 945.009 L64.0042 950.897 L28.3562 950.897 L28.3562 945.009 L33.8944 945.009 Q30.6479 943.163 29.0883 940.203 Q27.4968 937.243 27.4968 933.01 Q27.4968 932.405 27.5923 931.673 Q27.656 930.941 27.8151 930.05 L33.8307 930.018 Z" fill="#000000" fill-rule="nonzero" fill-opacity="1" /><path clip-path="url(#clip080)" d="M16.4842 902.9 L16.4842 896.471 L58.5933 896.471 L58.5933 873.331 L64.0042 873.331 L64.0042 902.9 L16.4842 902.9 Z" fill="#000000" fill-rule="nonzero" fill-opacity="1" /><path clip-path="url(#clip080)" d="M32.4621 854.17 Q32.4621 858.881 36.1542 861.618 Q39.8145 864.356 46.212 864.356 Q52.6095 864.356 56.3017 861.65 Q59.9619 858.913 59.9619 854.17 Q59.9619 849.492 56.2698 846.754 Q52.5777 844.017 46.212 844.017 Q39.8781 844.017 36.186 846.754 Q32.4621 849.492 32.4621 854.17 M27.4968 854.17 Q27.4968 846.532 32.4621 842.171 Q37.4273 837.811 46.212 837.811 Q54.9649 837.811 59.9619 842.171 Q64.9272 846.532 64.9272 854.17 Q64.9272 861.841 59.9619 866.202 Q54.9649 870.53 46.212 870.53 Q37.4273 870.53 32.4621 866.202 Q27.4968 861.841 27.4968 854.17 Z" fill="#000000" fill-rule="nonzero" fill-opacity="1" /><path clip-path="url(#clip080)" d="M46.0847 811.902 Q46.0847 819 47.7079 821.737 Q49.3312 824.474 53.2461 824.474 Q56.3653 824.474 58.2114 822.437 Q60.0256 820.369 60.0256 816.836 Q60.0256 811.966 56.5881 809.038 Q53.1188 806.078 47.3897 806.078 L46.0847 806.078 L46.0847 811.902 M43.6657 800.221 L64.0042 800.221 L64.0042 806.078 L58.5933 806.078 Q61.8398 808.083 63.3994 811.075 Q64.9272 814.067 64.9272 818.395 Q64.9272 823.87 61.8716 827.116 Q58.7843 830.331 53.6281 830.331 Q47.6125 830.331 44.5569 826.32 Q41.5014 822.278 41.5014 814.289 L41.5014 806.078 L40.9285 806.078 Q36.8862 806.078 34.6901 808.751 Q32.4621 811.393 32.4621 816.199 Q32.4621 819.255 33.1941 822.151 Q33.9262 825.047 35.3903 827.721 L29.9795 827.721 Q28.7381 824.506 28.1334 821.483 Q27.4968 818.459 27.4968 815.594 Q27.4968 807.86 31.5072 804.041 Q35.5176 800.221 43.6657 800.221 Z" fill="#000000" fill-rule="nonzero" fill-opacity="1" /><path clip-path="url(#clip080)" d="M33.7671 764.7 L14.479 764.7 L14.479 758.844 L64.0042 758.844 L64.0042 764.7 L58.657 764.7 Q61.8398 766.547 63.3994 769.379 Q64.9272 772.18 64.9272 776.127 Q64.9272 782.588 59.771 786.662 Q54.6147 790.704 46.212 790.704 Q37.8093 790.704 32.6531 786.662 Q27.4968 782.588 27.4968 776.127 Q27.4968 772.18 29.0564 769.379 Q30.5842 766.547 33.7671 764.7 M46.212 784.657 Q52.6732 784.657 56.3653 782.015 Q60.0256 779.342 60.0256 774.695 Q60.0256 770.048 56.3653 767.374 Q52.6732 764.7 46.212 764.7 Q39.7508 764.7 36.0905 767.374 Q32.3984 770.048 32.3984 774.695 Q32.3984 779.342 36.0905 782.015 Q39.7508 784.657 46.212 784.657 Z" fill="#000000" fill-rule="nonzero" fill-opacity="1" /><path clip-path="url(#clip080)" d="M16.4842 730.039 L16.4842 723.546 L56.6518 713.552 L16.4842 703.59 L16.4842 696.365 L56.6518 686.37 L16.4842 676.408 L16.4842 669.883 L64.0042 681.819 L64.0042 689.903 L22.7544 699.929 L64.0042 710.051 L64.0042 718.135 L16.4842 730.039 Z" fill="#000000" fill-rule="nonzero" fill-opacity="1" /><path clip-path="url(#clip080)" d="M44.7161 634.936 L47.5806 634.936 L47.5806 661.862 Q53.6281 661.481 56.8109 658.234 Q59.9619 654.956 59.9619 649.131 Q59.9619 645.757 59.1344 642.606 Q58.3069 639.423 56.6518 636.304 L62.1899 636.304 Q63.5267 639.455 64.227 642.765 Q64.9272 646.076 64.9272 649.481 Q64.9272 658.011 59.9619 663.008 Q54.9967 667.974 46.5303 667.974 Q37.7774 667.974 32.6531 663.263 Q27.4968 658.52 27.4968 650.5 Q27.4968 643.306 32.1438 639.137 Q36.7589 634.936 44.7161 634.936 M42.9973 640.792 Q38.1912 640.856 35.3266 643.497 Q32.4621 646.107 32.4621 650.436 Q32.4621 655.338 35.2312 658.298 Q38.0002 661.226 43.0292 661.671 L42.9973 640.792 Z" fill="#000000" fill-rule="nonzero" fill-opacity="1" /><path clip-path="url(#clip080)" d="M28.3562 625.323 L28.3562 619.467 L64.0042 619.467 L64.0042 625.323 L28.3562 625.323 M14.479 625.323 L14.479 619.467 L21.895 619.467 L21.895 625.323 L14.479 625.323 Z" fill="#000000" fill-rule="nonzero" fill-opacity="1" /><path clip-path="url(#clip080)" d="M45.7664 583.755 Q39.4007 583.755 35.8996 586.397 Q32.3984 589.007 32.3984 593.749 Q32.3984 598.46 35.8996 601.102 Q39.4007 603.712 45.7664 603.712 Q52.1003 603.712 55.6014 601.102 Q59.1026 598.46 59.1026 593.749 Q59.1026 589.007 55.6014 586.397 Q52.1003 583.755 45.7664 583.755 M59.58 577.899 Q68.683 577.899 73.1071 581.941 Q77.5631 585.983 77.5631 594.322 Q77.5631 597.41 77.0857 600.147 Q76.6401 602.884 75.6852 605.462 L69.9879 605.462 Q71.3884 602.884 72.0568 600.37 Q72.7252 597.855 72.7252 595.245 Q72.7252 589.484 69.7015 586.62 Q66.7096 583.755 60.6303 583.755 L57.7339 583.755 Q60.885 585.569 62.4446 588.402 Q64.0042 591.235 64.0042 595.182 Q64.0042 601.738 59.0071 605.749 Q54.01 609.759 45.7664 609.759 Q37.491 609.759 32.4939 605.749 Q27.4968 601.738 27.4968 595.182 Q27.4968 591.235 29.0564 588.402 Q30.616 585.569 33.7671 583.755 L28.3562 583.755 L28.3562 577.899 L59.58 577.899 Z" fill="#000000" fill-rule="nonzero" fill-opacity="1" /><path clip-path="url(#clip080)" d="M42.4881 536.203 L64.0042 536.203 L64.0042 542.06 L42.679 542.06 Q37.6183 542.06 35.1038 544.033 Q32.5894 546.007 32.5894 549.953 Q32.5894 554.696 35.6131 557.433 Q38.6368 560.17 43.8567 560.17 L64.0042 560.17 L64.0042 566.059 L14.479 566.059 L14.479 560.17 L33.8944 560.17 Q30.6797 558.07 29.0883 555.237 Q27.4968 552.372 27.4968 548.648 Q27.4968 542.505 31.3163 539.354 Q35.1038 536.203 42.4881 536.203 Z" fill="#000000" fill-rule="nonzero" fill-opacity="1" /><path clip-path="url(#clip080)" d="M18.2347 518.73 L28.3562 518.73 L28.3562 506.667 L32.9077 506.667 L32.9077 518.73 L52.2594 518.73 Q56.6199 518.73 57.8613 517.552 Q59.1026 516.342 59.1026 512.682 L59.1026 506.667 L64.0042 506.667 L64.0042 512.682 Q64.0042 519.462 61.4897 522.04 Q58.9434 524.618 52.2594 524.618 L32.9077 524.618 L32.9077 528.915 L28.3562 528.915 L28.3562 524.618 L18.2347 524.618 L18.2347 518.73 Z" fill="#000000" fill-rule="nonzero" fill-opacity="1" /><path clip-path="url(#clip080)" d="M468.13 12.096 L502.886 12.096 L502.886 18.9825 L476.313 18.9825 L476.313 36.8065 L500.294 36.8065 L500.294 43.6931 L476.313 43.6931 L476.313 72.576 L468.13 72.576 L468.13 12.096 Z" fill="#000000" fill-rule="nonzero" fill-opacity="1" /><path clip-path="url(#clip080)" d="M528.529 49.7694 Q519.495 49.7694 516.011 51.8354 Q512.528 53.9013 512.528 58.8839 Q512.528 62.8538 515.12 65.2034 Q517.753 67.5124 522.25 67.5124 Q528.448 67.5124 532.175 63.1374 Q535.942 58.7219 535.942 51.4303 L535.942 49.7694 L528.529 49.7694 M543.396 46.6907 L543.396 72.576 L535.942 72.576 L535.942 65.6895 Q533.39 69.8214 529.582 71.8063 Q525.774 73.7508 520.265 73.7508 Q513.297 73.7508 509.165 69.8619 Q505.074 65.9325 505.074 59.3701 Q505.074 51.7138 510.178 47.825 Q515.323 43.9361 525.491 43.9361 L535.942 43.9361 L535.942 43.2069 Q535.942 38.0623 532.539 35.2672 Q529.177 32.4315 523.06 32.4315 Q519.171 32.4315 515.485 33.3632 Q511.798 34.295 508.396 36.1584 L508.396 29.2718 Q512.487 27.692 516.335 26.9223 Q520.184 26.1121 523.83 26.1121 Q533.673 26.1121 538.534 31.2163 Q543.396 36.3204 543.396 46.6907 Z" fill="#000000" fill-rule="nonzero" fill-opacity="1" /><path clip-path="url(#clip080)" d="M558.748 27.2059 L566.202 27.2059 L566.202 72.576 L558.748 72.576 L558.748 27.2059 M558.748 9.54393 L566.202 9.54393 L566.202 18.9825 L558.748 18.9825 L558.748 9.54393 Z" fill="#000000" fill-rule="nonzero" fill-opacity="1" /><path clip-path="url(#clip080)" d="M608.088 34.1734 Q606.833 33.4443 605.334 33.1202 Q603.876 32.7556 602.093 32.7556 Q595.774 32.7556 592.371 36.8875 Q589.009 40.9789 589.009 48.6757 L589.009 72.576 L581.515 72.576 L581.515 27.2059 L589.009 27.2059 L589.009 34.2544 Q591.358 30.1225 595.126 28.1376 Q598.893 26.1121 604.281 26.1121 Q605.05 26.1121 605.982 26.2337 Q606.914 26.3147 608.048 26.5172 L608.088 34.1734 Z" fill="#000000" fill-rule="nonzero" fill-opacity="1" /><path clip-path="url(#clip080)" d="M642.602 12.096 L650.785 12.096 L650.785 65.6895 L680.235 65.6895 L680.235 72.576 L642.602 72.576 L642.602 12.096 Z" fill="#000000" fill-rule="nonzero" fill-opacity="1" /><path clip-path="url(#clip080)" d="M704.621 32.4315 Q698.626 32.4315 695.142 37.1306 Q691.659 41.7891 691.659 49.9314 Q691.659 58.0738 695.102 62.7728 Q698.586 67.4314 704.621 67.4314 Q710.576 67.4314 714.06 62.7323 Q717.544 58.0333 717.544 49.9314 Q717.544 41.8701 714.06 37.1711 Q710.576 32.4315 704.621 32.4315 M704.621 26.1121 Q714.344 26.1121 719.893 32.4315 Q725.443 38.7509 725.443 49.9314 Q725.443 61.0714 719.893 67.4314 Q714.344 73.7508 704.621 73.7508 Q694.859 73.7508 689.309 67.4314 Q683.8 61.0714 683.8 49.9314 Q683.8 38.7509 689.309 32.4315 Q694.859 26.1121 704.621 26.1121 Z" fill="#000000" fill-rule="nonzero" fill-opacity="1" /><path clip-path="url(#clip080)" d="M758.418 49.7694 Q749.384 49.7694 745.9 51.8354 Q742.416 53.9013 742.416 58.8839 Q742.416 62.8538 745.009 65.2034 Q747.642 67.5124 752.139 67.5124 Q758.336 67.5124 762.063 63.1374 Q765.831 58.7219 765.831 51.4303 L765.831 49.7694 L758.418 49.7694 M773.284 46.6907 L773.284 72.576 L765.831 72.576 L765.831 65.6895 Q763.279 69.8214 759.471 71.8063 Q755.663 73.7508 750.154 73.7508 Q743.186 73.7508 739.054 69.8619 Q734.963 65.9325 734.963 59.3701 Q734.963 51.7138 740.067 47.825 Q745.212 43.9361 755.379 43.9361 L765.831 43.9361 L765.831 43.2069 Q765.831 38.0623 762.428 35.2672 Q759.066 32.4315 752.949 32.4315 Q749.06 32.4315 745.374 33.3632 Q741.687 34.295 738.285 36.1584 L738.285 29.2718 Q742.376 27.692 746.224 26.9223 Q750.073 26.1121 753.718 26.1121 Q763.562 26.1121 768.423 31.2163 Q773.284 36.3204 773.284 46.6907 Z" fill="#000000" fill-rule="nonzero" fill-opacity="1" /><path clip-path="url(#clip080)" d="M818.492 34.0924 L818.492 9.54393 L825.946 9.54393 L825.946 72.576 L818.492 72.576 L818.492 65.7705 Q816.143 69.8214 812.538 71.8063 Q808.973 73.7508 803.95 73.7508 Q795.726 73.7508 790.541 67.1883 Q785.397 60.6258 785.397 49.9314 Q785.397 39.2371 790.541 32.6746 Q795.726 26.1121 803.95 26.1121 Q808.973 26.1121 812.538 28.0971 Q816.143 30.0415 818.492 34.0924 M793.093 49.9314 Q793.093 58.1548 796.455 62.8538 Q799.858 67.5124 805.773 67.5124 Q811.687 67.5124 815.09 62.8538 Q818.492 58.1548 818.492 49.9314 Q818.492 41.7081 815.09 37.0496 Q811.687 32.3505 805.773 32.3505 Q799.858 32.3505 796.455 37.0496 Q793.093 41.7081 793.093 49.9314 Z" fill="#000000" fill-rule="nonzero" fill-opacity="1" /><path clip-path="url(#clip080)" d="M862.607 12.096 L870.871 12.096 L883.59 63.2184 L896.27 12.096 L905.465 12.096 L918.185 63.2184 L930.864 12.096 L939.169 12.096 L923.978 72.576 L913.689 72.576 L900.928 20.0763 L888.046 72.576 L877.757 72.576 L862.607 12.096 Z" fill="#000000" fill-rule="nonzero" fill-opacity="1" /><path clip-path="url(#clip080)" d="M983.648 48.0275 L983.648 51.6733 L949.377 51.6733 Q949.863 59.3701 953.995 63.421 Q958.168 67.4314 965.581 67.4314 Q969.875 67.4314 973.885 66.3781 Q977.936 65.3249 981.906 63.2184 L981.906 70.267 Q977.895 71.9684 973.683 72.8596 Q969.47 73.7508 965.135 73.7508 Q954.279 73.7508 947.919 67.4314 Q941.599 61.1119 941.599 50.3365 Q941.599 39.1965 947.595 32.6746 Q953.631 26.1121 963.839 26.1121 Q972.994 26.1121 978.301 32.0264 Q983.648 37.9003 983.648 48.0275 M976.194 45.84 Q976.113 39.7232 972.751 36.0774 Q969.429 32.4315 963.92 32.4315 Q957.681 32.4315 953.914 35.9558 Q950.187 39.4801 949.62 45.8805 L976.194 45.84 Z" fill="#000000" fill-rule="nonzero" fill-opacity="1" /><path clip-path="url(#clip080)" d="M995.882 27.2059 L1003.34 27.2059 L1003.34 72.576 L995.882 72.576 L995.882 27.2059 M995.882 9.54393 L1003.34 9.54393 L1003.34 18.9825 L995.882 18.9825 L995.882 9.54393 Z" fill="#000000" fill-rule="nonzero" fill-opacity="1" /><path clip-path="url(#clip080)" d="M1048.79 49.3643 Q1048.79 41.2625 1045.42 36.8065 Q1042.1 32.3505 1036.07 32.3505 Q1030.07 32.3505 1026.71 36.8065 Q1023.39 41.2625 1023.39 49.3643 Q1023.39 57.4256 1026.71 61.8816 Q1030.07 66.3376 1036.07 66.3376 Q1042.1 66.3376 1045.42 61.8816 Q1048.79 57.4256 1048.79 49.3643 M1056.24 66.9452 Q1056.24 78.5308 1051.1 84.1616 Q1045.95 89.8329 1035.34 89.8329 Q1031.41 89.8329 1027.92 89.2252 Q1024.44 88.6581 1021.16 87.4428 L1021.16 80.1917 Q1024.44 81.9741 1027.64 82.8248 Q1030.84 83.6755 1034.16 83.6755 Q1041.49 83.6755 1045.14 79.8271 Q1048.79 76.0193 1048.79 68.282 L1048.79 64.5957 Q1046.48 68.6061 1042.87 70.5911 Q1039.27 72.576 1034.24 72.576 Q1025.9 72.576 1020.79 66.2161 Q1015.69 59.8562 1015.69 49.3643 Q1015.69 38.832 1020.79 32.472 Q1025.9 26.1121 1034.24 26.1121 Q1039.27 26.1121 1042.87 28.0971 Q1046.48 30.082 1048.79 34.0924 L1048.79 27.2059 L1056.24 27.2059 L1056.24 66.9452 Z" fill="#000000" fill-rule="nonzero" fill-opacity="1" /><path clip-path="url(#clip080)" d="M1109.31 45.1919 L1109.31 72.576 L1101.85 72.576 L1101.85 45.4349 Q1101.85 38.994 1099.34 35.7938 Q1096.83 32.5936 1091.81 32.5936 Q1085.77 32.5936 1082.29 36.4419 Q1078.8 40.2903 1078.8 46.9338 L1078.8 72.576 L1071.31 72.576 L1071.31 9.54393 L1078.8 9.54393 L1078.8 34.2544 Q1081.48 30.163 1085.08 28.1376 Q1088.73 26.1121 1093.47 26.1121 Q1101.29 26.1121 1105.3 30.9732 Q1109.31 35.7938 1109.31 45.1919 Z" fill="#000000" fill-rule="nonzero" fill-opacity="1" /><path clip-path="url(#clip080)" d="M1131.55 14.324 L1131.55 27.2059 L1146.9 27.2059 L1146.9 32.9987 L1131.55 32.9987 L1131.55 57.6282 Q1131.55 63.1779 1133.05 64.7578 Q1134.58 66.3376 1139.24 66.3376 L1146.9 66.3376 L1146.9 72.576 L1139.24 72.576 Q1130.61 72.576 1127.33 69.3758 Q1124.05 66.1351 1124.05 57.6282 L1124.05 32.9987 L1118.58 32.9987 L1118.58 27.2059 L1124.05 27.2059 L1124.05 14.324 L1131.55 14.324 Z" fill="#000000" fill-rule="nonzero" fill-opacity="1" /><path clip-path="url(#clip080)" d="M1185.63 28.5427 L1185.63 35.5912 Q1182.47 33.9709 1179.06 33.1607 Q1175.66 32.3505 1172.01 32.3505 Q1166.47 32.3505 1163.67 34.0519 Q1160.92 35.7533 1160.92 39.156 Q1160.92 41.7486 1162.9 43.2475 Q1164.89 44.7058 1170.88 46.0426 L1173.43 46.6097 Q1181.37 48.3111 1184.69 51.4303 Q1188.06 54.509 1188.06 60.0587 Q1188.06 66.3781 1183.03 70.0644 Q1178.05 73.7508 1169.3 73.7508 Q1165.65 73.7508 1161.69 73.0216 Q1157.76 72.3329 1153.38 70.9151 L1153.38 63.2184 Q1157.51 65.3654 1161.52 66.4591 Q1165.53 67.5124 1169.46 67.5124 Q1174.73 67.5124 1177.56 65.73 Q1180.4 63.9071 1180.4 60.6258 Q1180.4 57.5877 1178.33 55.9673 Q1176.31 54.3469 1169.38 52.8481 L1166.79 52.2405 Q1159.86 50.7821 1156.78 47.7845 Q1153.7 44.7463 1153.7 39.4801 Q1153.7 33.0797 1158.24 29.5959 Q1162.78 26.1121 1171.12 26.1121 Q1175.26 26.1121 1178.9 26.7198 Q1182.55 27.3274 1185.63 28.5427 Z" fill="#000000" fill-rule="nonzero" fill-opacity="1" /><path clip-path="url(#clip080)" d="M1233.51 65.7705 L1233.51 89.8329 L1226.01 89.8329 L1226.01 27.2059 L1233.51 27.2059 L1233.51 34.0924 Q1235.86 30.0415 1239.42 28.0971 Q1243.03 26.1121 1248.01 26.1121 Q1256.27 26.1121 1261.42 32.6746 Q1266.6 39.2371 1266.6 49.9314 Q1266.6 60.6258 1261.42 67.1883 Q1256.27 73.7508 1248.01 73.7508 Q1243.03 73.7508 1239.42 71.8063 Q1235.86 69.8214 1233.51 65.7705 M1258.87 49.9314 Q1258.87 41.7081 1255.46 37.0496 Q1252.1 32.3505 1246.19 32.3505 Q1240.27 32.3505 1236.87 37.0496 Q1233.51 41.7081 1233.51 49.9314 Q1233.51 58.1548 1236.87 62.8538 Q1240.27 67.5124 1246.19 67.5124 Q1252.1 67.5124 1255.46 62.8538 Q1258.87 58.1548 1258.87 49.9314 Z" fill="#000000" fill-rule="nonzero" fill-opacity="1" /><path clip-path="url(#clip080)" d="M1317.77 48.0275 L1317.77 51.6733 L1283.5 51.6733 Q1283.98 59.3701 1288.11 63.421 Q1292.29 67.4314 1299.7 67.4314 Q1303.99 67.4314 1308 66.3781 Q1312.05 65.3249 1316.02 63.2184 L1316.02 70.267 Q1312.01 71.9684 1307.8 72.8596 Q1303.59 73.7508 1299.25 73.7508 Q1288.4 73.7508 1282.04 67.4314 Q1275.72 61.1119 1275.72 50.3365 Q1275.72 39.1965 1281.71 32.6746 Q1287.75 26.1121 1297.96 26.1121 Q1307.11 26.1121 1312.42 32.0264 Q1317.77 37.9003 1317.77 48.0275 M1310.31 45.84 Q1310.23 39.7232 1306.87 36.0774 Q1303.55 32.4315 1298.04 32.4315 Q1291.8 32.4315 1288.03 35.9558 Q1284.31 39.4801 1283.74 45.8805 L1310.31 45.84 Z" fill="#000000" fill-rule="nonzero" fill-opacity="1" /><path clip-path="url(#clip080)" d="M1356.29 34.1734 Q1355.03 33.4443 1353.54 33.1202 Q1352.08 32.7556 1350.3 32.7556 Q1343.98 32.7556 1340.57 36.8875 Q1337.21 40.9789 1337.21 48.6757 L1337.21 72.576 L1329.72 72.576 L1329.72 27.2059 L1337.21 27.2059 L1337.21 34.2544 Q1339.56 30.1225 1343.33 28.1376 Q1347.09 26.1121 1352.48 26.1121 Q1353.25 26.1121 1354.18 26.2337 Q1355.12 26.3147 1356.25 26.5172 L1356.29 34.1734 Z" fill="#000000" fill-rule="nonzero" fill-opacity="1" /><path clip-path="url(#clip080)" d="M1390.8 12.096 L1398.99 12.096 L1398.99 65.6895 L1428.44 65.6895 L1428.44 72.576 L1390.8 72.576 L1390.8 12.096 Z" fill="#000000" fill-rule="nonzero" fill-opacity="1" /><path clip-path="url(#clip080)" d="M1452.82 32.4315 Q1446.83 32.4315 1443.34 37.1306 Q1439.86 41.7891 1439.86 49.9314 Q1439.86 58.0738 1443.3 62.7728 Q1446.79 67.4314 1452.82 67.4314 Q1458.78 67.4314 1462.26 62.7323 Q1465.75 58.0333 1465.75 49.9314 Q1465.75 41.8701 1462.26 37.1711 Q1458.78 32.4315 1452.82 32.4315 M1452.82 26.1121 Q1462.55 26.1121 1468.1 32.4315 Q1473.65 38.7509 1473.65 49.9314 Q1473.65 61.0714 1468.1 67.4314 Q1462.55 73.7508 1452.82 73.7508 Q1443.06 73.7508 1437.51 67.4314 Q1432 61.0714 1432 49.9314 Q1432 38.7509 1437.51 32.4315 Q1443.06 26.1121 1452.82 26.1121 Z" fill="#000000" fill-rule="nonzero" fill-opacity="1" /><path clip-path="url(#clip080)" d="M1506.62 49.7694 Q1497.59 49.7694 1494.1 51.8354 Q1490.62 53.9013 1490.62 58.8839 Q1490.62 62.8538 1493.21 65.2034 Q1495.84 67.5124 1500.34 67.5124 Q1506.54 67.5124 1510.27 63.1374 Q1514.03 58.7219 1514.03 51.4303 L1514.03 49.7694 L1506.62 49.7694 M1521.49 46.6907 L1521.49 72.576 L1514.03 72.576 L1514.03 65.6895 Q1511.48 69.8214 1507.67 71.8063 Q1503.86 73.7508 1498.36 73.7508 Q1491.39 73.7508 1487.26 69.8619 Q1483.16 65.9325 1483.16 59.3701 Q1483.16 51.7138 1488.27 47.825 Q1493.41 43.9361 1503.58 43.9361 L1514.03 43.9361 L1514.03 43.2069 Q1514.03 38.0623 1510.63 35.2672 Q1507.27 32.4315 1501.15 32.4315 Q1497.26 32.4315 1493.58 33.3632 Q1489.89 34.295 1486.49 36.1584 L1486.49 29.2718 Q1490.58 27.692 1494.43 26.9223 Q1498.27 26.1121 1501.92 26.1121 Q1511.76 26.1121 1516.63 31.2163 Q1521.49 36.3204 1521.49 46.6907 Z" fill="#000000" fill-rule="nonzero" fill-opacity="1" /><path clip-path="url(#clip080)" d="M1566.69 34.0924 L1566.69 9.54393 L1574.15 9.54393 L1574.15 72.576 L1566.69 72.576 L1566.69 65.7705 Q1564.34 69.8214 1560.74 71.8063 Q1557.17 73.7508 1552.15 73.7508 Q1543.93 73.7508 1538.74 67.1883 Q1533.6 60.6258 1533.6 49.9314 Q1533.6 39.2371 1538.74 32.6746 Q1543.93 26.1121 1552.15 26.1121 Q1557.17 26.1121 1560.74 28.0971 Q1564.34 30.0415 1566.69 34.0924 M1541.3 49.9314 Q1541.3 58.1548 1544.66 62.8538 Q1548.06 67.5124 1553.97 67.5124 Q1559.89 67.5124 1563.29 62.8538 Q1566.69 58.1548 1566.69 49.9314 Q1566.69 41.7081 1563.29 37.0496 Q1559.89 32.3505 1553.97 32.3505 Q1548.06 32.3505 1544.66 37.0496 Q1541.3 41.7081 1541.3 49.9314 Z" fill="#000000" fill-rule="nonzero" fill-opacity="1" /><path clip-path="url(#clip080)" d="M1612.11 46.5287 L1633.94 46.5287 L1633.94 53.1722 L1612.11 53.1722 L1612.11 46.5287 Z" fill="#000000" fill-rule="nonzero" fill-opacity="1" /><path clip-path="url(#clip080)" d="M1672.5 12.096 L1680.69 12.096 L1680.69 72.576 L1672.5 72.576 L1672.5 12.096 Z" fill="#000000" fill-rule="nonzero" fill-opacity="1" /><path clip-path="url(#clip080)" d="M1704.02 14.324 L1704.02 27.2059 L1719.37 27.2059 L1719.37 32.9987 L1704.02 32.9987 L1704.02 57.6282 Q1704.02 63.1779 1705.52 64.7578 Q1707.06 66.3376 1711.72 66.3376 L1719.37 66.3376 L1719.37 72.576 L1711.72 72.576 Q1703.09 72.576 1699.81 69.3758 Q1696.53 66.1351 1696.53 57.6282 L1696.53 32.9987 L1691.06 32.9987 L1691.06 27.2059 L1696.53 27.2059 L1696.53 14.324 L1704.02 14.324 Z" fill="#000000" fill-rule="nonzero" fill-opacity="1" /><path clip-path="url(#clip080)" d="M1767.98 48.0275 L1767.98 51.6733 L1733.71 51.6733 Q1734.2 59.3701 1738.33 63.421 Q1742.5 67.4314 1749.92 67.4314 Q1754.21 67.4314 1758.22 66.3781 Q1762.27 65.3249 1766.24 63.2184 L1766.24 70.267 Q1762.23 71.9684 1758.02 72.8596 Q1753.81 73.7508 1749.47 73.7508 Q1738.61 73.7508 1732.25 67.4314 Q1725.94 61.1119 1725.94 50.3365 Q1725.94 39.1965 1731.93 32.6746 Q1737.97 26.1121 1748.17 26.1121 Q1757.33 26.1121 1762.64 32.0264 Q1767.98 37.9003 1767.98 48.0275 M1760.53 45.84 Q1760.45 39.7232 1757.09 36.0774 Q1753.77 32.4315 1748.26 32.4315 Q1742.02 32.4315 1738.25 35.9558 Q1734.52 39.4801 1733.96 45.8805 L1760.53 45.84 Z" fill="#000000" fill-rule="nonzero" fill-opacity="1" /><path clip-path="url(#clip080)" d="M1806.51 34.1734 Q1805.25 33.4443 1803.75 33.1202 Q1802.3 32.7556 1800.51 32.7556 Q1794.19 32.7556 1790.79 36.8875 Q1787.43 40.9789 1787.43 48.6757 L1787.43 72.576 L1779.93 72.576 L1779.93 27.2059 L1787.43 27.2059 L1787.43 34.2544 Q1789.78 30.1225 1793.55 28.1376 Q1797.31 26.1121 1802.7 26.1121 Q1803.47 26.1121 1804.4 26.2337 Q1805.33 26.3147 1806.47 26.5172 L1806.51 34.1734 Z" fill="#000000" fill-rule="nonzero" fill-opacity="1" /><path clip-path="url(#clip080)" d="M1834.95 49.7694 Q1825.91 49.7694 1822.43 51.8354 Q1818.94 53.9013 1818.94 58.8839 Q1818.94 62.8538 1821.54 65.2034 Q1824.17 67.5124 1828.67 67.5124 Q1834.86 67.5124 1838.59 63.1374 Q1842.36 58.7219 1842.36 51.4303 L1842.36 49.7694 L1834.95 49.7694 M1849.81 46.6907 L1849.81 72.576 L1842.36 72.576 L1842.36 65.6895 Q1839.81 69.8214 1836 71.8063 Q1832.19 73.7508 1826.68 73.7508 Q1819.71 73.7508 1815.58 69.8619 Q1811.49 65.9325 1811.49 59.3701 Q1811.49 51.7138 1816.59 47.825 Q1821.74 43.9361 1831.91 43.9361 L1842.36 43.9361 L1842.36 43.2069 Q1842.36 38.0623 1838.96 35.2672 Q1835.59 32.4315 1829.48 32.4315 Q1825.59 32.4315 1821.9 33.3632 Q1818.22 34.295 1814.81 36.1584 L1814.81 29.2718 Q1818.9 27.692 1822.75 26.9223 Q1826.6 26.1121 1830.25 26.1121 Q1840.09 26.1121 1844.95 31.2163 Q1849.81 36.3204 1849.81 46.6907 Z" fill="#000000" fill-rule="nonzero" fill-opacity="1" /><path clip-path="url(#clip080)" d="M1872.54 14.324 L1872.54 27.2059 L1887.89 27.2059 L1887.89 32.9987 L1872.54 32.9987 L1872.54 57.6282 Q1872.54 63.1779 1874.04 64.7578 Q1875.58 66.3376 1880.23 66.3376 L1887.89 66.3376 L1887.89 72.576 L1880.23 72.576 Q1871.61 72.576 1868.32 69.3758 Q1865.04 66.1351 1865.04 57.6282 L1865.04 32.9987 L1859.57 32.9987 L1859.57 27.2059 L1865.04 27.2059 L1865.04 14.324 L1872.54 14.324 Z" fill="#000000" fill-rule="nonzero" fill-opacity="1" /><path clip-path="url(#clip080)" d="M1897.69 27.2059 L1905.15 27.2059 L1905.15 72.576 L1897.69 72.576 L1897.69 27.2059 M1897.69 9.54393 L1905.15 9.54393 L1905.15 18.9825 L1897.69 18.9825 L1897.69 9.54393 Z" fill="#000000" fill-rule="nonzero" fill-opacity="1" /><path clip-path="url(#clip080)" d="M1938.32 32.4315 Q1932.33 32.4315 1928.85 37.1306 Q1925.36 41.7891 1925.36 49.9314 Q1925.36 58.0738 1928.8 62.7728 Q1932.29 67.4314 1938.32 67.4314 Q1944.28 67.4314 1947.76 62.7323 Q1951.25 58.0333 1951.25 49.9314 Q1951.25 41.8701 1947.76 37.1711 Q1944.28 32.4315 1938.32 32.4315 M1938.32 26.1121 Q1948.05 26.1121 1953.6 32.4315 Q1959.15 38.7509 1959.15 49.9314 Q1959.15 61.0714 1953.6 67.4314 Q1948.05 73.7508 1938.32 73.7508 Q1928.56 73.7508 1923.01 67.4314 Q1917.5 61.0714 1917.5 49.9314 Q1917.5 38.7509 1923.01 32.4315 Q1928.56 26.1121 1938.32 26.1121 Z" fill="#000000" fill-rule="nonzero" fill-opacity="1" /><path clip-path="url(#clip080)" d="M2009.22 45.1919 L2009.22 72.576 L2001.76 72.576 L2001.76 45.4349 Q2001.76 38.994 1999.25 35.7938 Q1996.74 32.5936 1991.72 32.5936 Q1985.68 32.5936 1982.2 36.4419 Q1978.71 40.2903 1978.71 46.9338 L1978.71 72.576 L1971.22 72.576 L1971.22 27.2059 L1978.71 27.2059 L1978.71 34.2544 Q1981.39 30.163 1984.99 28.1376 Q1988.64 26.1121 1993.38 26.1121 Q2001.19 26.1121 2005.2 30.9732 Q2009.22 35.7938 2009.22 45.1919 Z" fill="#000000" fill-rule="nonzero" fill-opacity="1" /><path clip-path="url(#clip080)" d="M2069.01 43.8551 Q2063.17 43.8551 2059.81 46.9743 Q2056.49 50.0935 2056.49 55.5622 Q2056.49 61.0309 2059.81 64.1501 Q2063.17 67.2693 2069.01 67.2693 Q2074.84 67.2693 2078.2 64.1501 Q2081.56 60.9904 2081.56 55.5622 Q2081.56 50.0935 2078.2 46.9743 Q2074.88 43.8551 2069.01 43.8551 M2060.82 40.3713 Q2055.56 39.075 2052.6 35.4697 Q2049.68 31.8644 2049.68 26.6793 Q2049.68 19.4281 2054.83 15.2152 Q2060.01 11.0023 2069.01 11.0023 Q2078.04 11.0023 2083.18 15.2152 Q2088.33 19.4281 2088.33 26.6793 Q2088.33 31.8644 2085.37 35.4697 Q2082.46 39.075 2077.23 40.3713 Q2083.14 41.7486 2086.43 45.759 Q2089.75 49.7694 2089.75 55.5622 Q2089.75 64.3527 2084.36 69.0517 Q2079.01 73.7508 2069.01 73.7508 Q2059 73.7508 2053.61 69.0517 Q2048.27 64.3527 2048.27 55.5622 Q2048.27 49.7694 2051.59 45.759 Q2054.91 41.7486 2060.82 40.3713 M2057.83 27.4489 Q2057.83 32.148 2060.74 34.7811 Q2063.7 37.4142 2069.01 37.4142 Q2074.27 37.4142 2077.23 34.7811 Q2080.23 32.148 2080.23 27.4489 Q2080.23 22.7499 2077.23 20.1168 Q2074.27 17.4837 2069.01 17.4837 Q2063.7 17.4837 2060.74 20.1168 Q2057.83 22.7499 2057.83 27.4489 Z" fill="#000000" fill-rule="nonzero" fill-opacity="1" /><path clip-path="url(#clip082)" d="M877.27 1423.18 L877.27 1423.18 L988.075 1423.18 L988.075 1423.18 L877.27 1423.18 L877.27 1423.18  Z" fill="#009af9" fill-rule="evenodd" fill-opacity="1"/>
<polyline clip-path="url(#clip082)" style="stroke:#000000; stroke-linecap:round; stroke-linejoin:round; stroke-width:4; stroke-opacity:1; fill:none" points="877.27,1423.18 877.27,1423.18 988.075,1423.18 988.075,1423.18 877.27,1423.18 "/>
<path clip-path="url(#clip082)" d="M1846.81 759.739 L1846.81 1423.18 L1957.62 1423.18 L1957.62 759.739 L1846.81 759.739 L1846.81 759.739  Z" fill="#009af9" fill-rule="evenodd" fill-opacity="1"/>
<polyline clip-path="url(#clip082)" style="stroke:#000000; stroke-linecap:round; stroke-linejoin:round; stroke-width:4; stroke-opacity:1; fill:none" points="1846.81,759.739 1846.81,1423.18 1957.62,1423.18 1957.62,759.739 1846.81,759.739 "/>
<path clip-path="url(#clip082)" d="M1292.79 1423.18 L1292.79 1423.18 L1403.59 1423.18 L1403.59 1423.18 L1292.79 1423.18 L1292.79 1423.18  Z" fill="#009af9" fill-rule="evenodd" fill-opacity="1"/>
<polyline clip-path="url(#clip082)" style="stroke:#000000; stroke-linecap:round; stroke-linejoin:round; stroke-width:4; stroke-opacity:1; fill:none" points="1292.79,1423.18 1292.79,1423.18 1403.59,1423.18 1403.59,1423.18 1292.79,1423.18 "/>
<path clip-path="url(#clip082)" d="M323.245 123.472 L323.245 1423.18 L434.05 1423.18 L434.05 123.472 L323.245 123.472 L323.245 123.472  Z" fill="#009af9" fill-rule="evenodd" fill-opacity="1"/>
<polyline clip-path="url(#clip082)" style="stroke:#000000; stroke-linecap:round; stroke-linejoin:round; stroke-width:4; stroke-opacity:1; fill:none" points="323.245,123.472 323.245,1423.18 434.05,1423.18 434.05,123.472 323.245,123.472 "/>
<path clip-path="url(#clip082)" d="M1015.78 1423.18 L1015.78 1423.18 L1126.58 1423.18 L1126.58 1423.18 L1015.78 1423.18 L1015.78 1423.18  Z" fill="#009af9" fill-rule="evenodd" fill-opacity="1"/>
<polyline clip-path="url(#clip082)" style="stroke:#000000; stroke-linecap:round; stroke-linejoin:round; stroke-width:4; stroke-opacity:1; fill:none" points="1015.78,1423.18 1015.78,1423.18 1126.58,1423.18 1126.58,1423.18 1015.78,1423.18 "/>
<path clip-path="url(#clip082)" d="M1708.31 1419.88 L1708.31 1423.18 L1819.11 1423.18 L1819.11 1419.88 L1708.31 1419.88 L1708.31 1419.88  Z" fill="#009af9" fill-rule="evenodd" fill-opacity="1"/>
<polyline clip-path="url(#clip082)" style="stroke:#000000; stroke-linecap:round; stroke-linejoin:round; stroke-width:4; stroke-opacity:1; fill:none" points="1708.31,1419.88 1708.31,1423.18 1819.11,1423.18 1819.11,1419.88 1708.31,1419.88 "/>
<path clip-path="url(#clip082)" d="M1431.3 1423.18 L1431.3 1423.18 L1542.1 1423.18 L1542.1 1423.18 L1431.3 1423.18 L1431.3 1423.18  Z" fill="#009af9" fill-rule="evenodd" fill-opacity="1"/>
<polyline clip-path="url(#clip082)" style="stroke:#000000; stroke-linecap:round; stroke-linejoin:round; stroke-width:4; stroke-opacity:1; fill:none" points="1431.3,1423.18 1431.3,1423.18 1542.1,1423.18 1542.1,1423.18 1431.3,1423.18 "/>
<path clip-path="url(#clip082)" d="M2123.83 1423.18 L2123.83 1423.18 L2234.63 1423.18 L2234.63 1423.18 L2123.83 1423.18 L2123.83 1423.18  Z" fill="#009af9" fill-rule="evenodd" fill-opacity="1"/>
<polyline clip-path="url(#clip082)" style="stroke:#000000; stroke-linecap:round; stroke-linejoin:round; stroke-width:4; stroke-opacity:1; fill:none" points="2123.83,1423.18 2123.83,1423.18 2234.63,1423.18 2234.63,1423.18 2123.83,1423.18 "/>
<path clip-path="url(#clip082)" d="M600.257 1423.18 L600.257 1423.18 L711.062 1423.18 L711.062 1423.18 L600.257 1423.18 L600.257 1423.18  Z" fill="#009af9" fill-rule="evenodd" fill-opacity="1"/>
<polyline clip-path="url(#clip082)" style="stroke:#000000; stroke-linecap:round; stroke-linejoin:round; stroke-width:4; stroke-opacity:1; fill:none" points="600.257,1423.18 600.257,1423.18 711.062,1423.18 711.062,1423.18 600.257,1423.18 "/>
<path clip-path="url(#clip082)" d="M1154.28 1423.18 L1154.28 1423.18 L1265.09 1423.18 L1265.09 1423.18 L1154.28 1423.18 L1154.28 1423.18  Z" fill="#009af9" fill-rule="evenodd" fill-opacity="1"/>
<polyline clip-path="url(#clip082)" style="stroke:#000000; stroke-linecap:round; stroke-linejoin:round; stroke-width:4; stroke-opacity:1; fill:none" points="1154.28,1423.18 1154.28,1423.18 1265.09,1423.18 1265.09,1423.18 1154.28,1423.18 "/>
<path clip-path="url(#clip082)" d="M738.764 1423.18 L738.764 1423.18 L849.569 1423.18 L849.569 1423.18 L738.764 1423.18 L738.764 1423.18  Z" fill="#009af9" fill-rule="evenodd" fill-opacity="1"/>
<polyline clip-path="url(#clip082)" style="stroke:#000000; stroke-linecap:round; stroke-linejoin:round; stroke-width:4; stroke-opacity:1; fill:none" points="738.764,1423.18 738.764,1423.18 849.569,1423.18 849.569,1423.18 738.764,1423.18 "/>
<path clip-path="url(#clip082)" d="M1985.32 1423.18 L1985.32 1423.18 L2096.13 1423.18 L2096.13 1423.18 L1985.32 1423.18 L1985.32 1423.18  Z" fill="#009af9" fill-rule="evenodd" fill-opacity="1"/>
<polyline clip-path="url(#clip082)" style="stroke:#000000; stroke-linecap:round; stroke-linejoin:round; stroke-width:4; stroke-opacity:1; fill:none" points="1985.32,1423.18 1985.32,1423.18 2096.13,1423.18 2096.13,1423.18 1985.32,1423.18 "/>
<path clip-path="url(#clip082)" d="M461.751 1420.32 L461.751 1423.18 L572.556 1423.18 L572.556 1420.32 L461.751 1420.32 L461.751 1420.32  Z" fill="#009af9" fill-rule="evenodd" fill-opacity="1"/>
<polyline clip-path="url(#clip082)" style="stroke:#000000; stroke-linecap:round; stroke-linejoin:round; stroke-width:4; stroke-opacity:1; fill:none" points="461.751,1420.32 461.751,1423.18 572.556,1423.18 572.556,1420.32 461.751,1420.32 "/>
<path clip-path="url(#clip082)" d="M1569.8 1423.14 L1569.8 1423.18 L1680.61 1423.18 L1680.61 1423.14 L1569.8 1423.14 L1569.8 1423.14  Z" fill="#009af9" fill-rule="evenodd" fill-opacity="1"/>
<polyline clip-path="url(#clip082)" style="stroke:#000000; stroke-linecap:round; stroke-linejoin:round; stroke-width:4; stroke-opacity:1; fill:none" points="1569.8,1423.14 1569.8,1423.18 1680.61,1423.18 1680.61,1423.14 1569.8,1423.14 "/>
<circle clip-path="url(#clip082)" style="fill:#009af9; stroke:none; fill-opacity:0" cx="932.673" cy="1423.18" r="2"/>
<circle clip-path="url(#clip082)" style="fill:#009af9; stroke:none; fill-opacity:0" cx="1902.22" cy="759.739" r="2"/>
<circle clip-path="url(#clip082)" style="fill:#009af9; stroke:none; fill-opacity:0" cx="1348.19" cy="1423.18" r="2"/>
<circle clip-path="url(#clip082)" style="fill:#009af9; stroke:none; fill-opacity:0" cx="378.647" cy="123.472" r="2"/>
<circle clip-path="url(#clip082)" style="fill:#009af9; stroke:none; fill-opacity:0" cx="1071.18" cy="1423.18" r="2"/>
<circle clip-path="url(#clip082)" style="fill:#009af9; stroke:none; fill-opacity:0" cx="1763.71" cy="1419.88" r="2"/>
<circle clip-path="url(#clip082)" style="fill:#009af9; stroke:none; fill-opacity:0" cx="1486.7" cy="1423.18" r="2"/>
<circle clip-path="url(#clip082)" style="fill:#009af9; stroke:none; fill-opacity:0" cx="2179.23" cy="1423.18" r="2"/>
<circle clip-path="url(#clip082)" style="fill:#009af9; stroke:none; fill-opacity:0" cx="655.66" cy="1423.18" r="2"/>
<circle clip-path="url(#clip082)" style="fill:#009af9; stroke:none; fill-opacity:0" cx="1209.69" cy="1423.18" r="2"/>
<circle clip-path="url(#clip082)" style="fill:#009af9; stroke:none; fill-opacity:0" cx="794.166" cy="1423.18" r="2"/>
<circle clip-path="url(#clip082)" style="fill:#009af9; stroke:none; fill-opacity:0" cx="2040.72" cy="1423.18" r="2"/>
<circle clip-path="url(#clip082)" style="fill:#009af9; stroke:none; fill-opacity:0" cx="517.154" cy="1420.32" r="2"/>
<circle clip-path="url(#clip082)" style="fill:#009af9; stroke:none; fill-opacity:0" cx="1625.2" cy="1423.14" r="2"/>
</svg>
