<?xml version="1.0" encoding="utf-8"?>
<svg xmlns="http://www.w3.org/2000/svg" xmlns:xlink="http://www.w3.org/1999/xlink" width="900" height="500" viewBox="0 0 3600 2000">
<defs>
  <clipPath id="clip690">
    <rect x="0" y="0" width="3600" height="2000"/>
  </clipPath>
</defs>
<path clip-path="url(#clip690)" d="M0 2000 L3600 2000 L3600 0 L0 0  Z" fill="#ffffff" fill-rule="evenodd" fill-opacity="1"/>
<defs>
  <clipPath id="clip691">
    <rect x="720" y="0" width="2521" height="2000"/>
  </clipPath>
</defs>
<path clip-path="url(#clip690)" d="M266.631 1832.86 L2831.97 1832.86 L2831.97 113.392 L266.631 113.392  Z" fill="#ffffff" fill-rule="evenodd" fill-opacity="1"/>
<defs>
  <clipPath id="clip692">
    <rect x="266" y="113" width="2566" height="1720"/>
  </clipPath>
</defs>
<polyline clip-path="url(#clip692)" style="stroke:#000000; stroke-linecap:round; stroke-linejoin:round; stroke-width:2; stroke-opacity:0.1; fill:none" points="339.235,1832.86 339.235,113.392 "/>
<polyline clip-path="url(#clip692)" style="stroke:#000000; stroke-linecap:round; stroke-linejoin:round; stroke-width:2; stroke-opacity:0.1; fill:none" points="944.268,1832.86 944.268,113.392 "/>
<polyline clip-path="url(#clip692)" style="stroke:#000000; stroke-linecap:round; stroke-linejoin:round; stroke-width:2; stroke-opacity:0.1; fill:none" points="1549.3,1832.86 1549.3,113.392 "/>
<polyline clip-path="url(#clip692)" style="stroke:#000000; stroke-linecap:round; stroke-linejoin:round; stroke-width:2; stroke-opacity:0.1; fill:none" points="2154.33,1832.86 2154.33,113.392 "/>
<polyline clip-path="url(#clip692)" style="stroke:#000000; stroke-linecap:round; stroke-linejoin:round; stroke-width:2; stroke-opacity:0.1; fill:none" points="2759.36,1832.86 2759.36,113.392 "/>
<polyline clip-path="url(#clip692)" style="stroke:#000000; stroke-linecap:round; stroke-linejoin:round; stroke-width:2; stroke-opacity:0.1; fill:none" points="266.631,1765.78 2831.97,1765.78 "/>
<polyline clip-path="url(#clip692)" style="stroke:#000000; stroke-linecap:round; stroke-linejoin:round; stroke-width:2; stroke-opacity:0.1; fill:none" points="266.631,1416.88 2831.97,1416.88 "/>
<polyline clip-path="url(#clip692)" style="stroke:#000000; stroke-linecap:round; stroke-linejoin:round; stroke-width:2; stroke-opacity:0.1; fill:none" points="266.631,1067.99 2831.97,1067.99 "/>
<polyline clip-path="url(#clip692)" style="stroke:#000000; stroke-linecap:round; stroke-linejoin:round; stroke-width:2; stroke-opacity:0.1; fill:none" points="266.631,719.094 2831.97,719.094 "/>
<polyline clip-path="url(#clip692)" style="stroke:#000000; stroke-linecap:round; stroke-linejoin:round; stroke-width:2; stroke-opacity:0.1; fill:none" points="266.631,370.201 2831.97,370.201 "/>
<polyline clip-path="url(#clip690)" style="stroke:#000000; stroke-linecap:round; stroke-linejoin:round; stroke-width:4; stroke-opacity:1; fill:none" points="266.631,1832.86 2831.97,1832.86 "/>
<polyline clip-path="url(#clip690)" style="stroke:#000000; stroke-linecap:round; stroke-linejoin:round; stroke-width:4; stroke-opacity:1; fill:none" points="339.235,1832.86 339.235,1813.96 "/>
<polyline clip-path="url(#clip690)" style="stroke:#000000; stroke-linecap:round; stroke-linejoin:round; stroke-width:4; stroke-opacity:1; fill:none" points="944.268,1832.86 944.268,1813.96 "/>
<polyline clip-path="url(#clip690)" style="stroke:#000000; stroke-linecap:round; stroke-linejoin:round; stroke-width:4; stroke-opacity:1; fill:none" points="1549.3,1832.86 1549.3,1813.96 "/>
<polyline clip-path="url(#clip690)" style="stroke:#000000; stroke-linecap:round; stroke-linejoin:round; stroke-width:4; stroke-opacity:1; fill:none" points="2154.33,1832.86 2154.33,1813.96 "/>
<polyline clip-path="url(#clip690)" style="stroke:#000000; stroke-linecap:round; stroke-linejoin:round; stroke-width:4; stroke-opacity:1; fill:none" points="2759.36,1832.86 2759.36,1813.96 "/>
<path clip-path="url(#clip690)" d="M301.539 1873.38 Q297.927 1873.38 296.099 1876.94 Q294.293 1880.48 294.293 1887.61 Q294.293 1894.72 296.099 1898.29 Q297.927 1901.83 301.539 1901.83 Q305.173 1901.83 306.978 1898.29 Q308.807 1894.72 308.807 1887.61 Q308.807 1880.48 306.978 1876.94 Q305.173 1873.38 301.539 1873.38 M301.539 1869.67 Q307.349 1869.67 310.404 1874.28 Q313.483 1878.86 313.483 1887.61 Q313.483 1896.34 310.404 1900.95 Q307.349 1905.53 301.539 1905.53 Q295.728 1905.53 292.65 1900.95 Q289.594 1896.34 289.594 1887.61 Q289.594 1878.86 292.65 1874.28 Q295.728 1869.67 301.539 1869.67 Z" fill="#000000" fill-rule="nonzero" fill-opacity="1" /><path clip-path="url(#clip690)" d="M321.7 1898.98 L326.585 1898.98 L326.585 1904.86 L321.7 1904.86 L321.7 1898.98 Z" fill="#000000" fill-rule="nonzero" fill-opacity="1" /><path clip-path="url(#clip690)" d="M336.909 1904.14 L336.909 1899.88 Q338.668 1900.72 340.474 1901.16 Q342.279 1901.6 344.015 1901.6 Q348.645 1901.6 351.075 1898.49 Q353.529 1895.37 353.876 1889.03 Q352.534 1891.02 350.473 1892.08 Q348.413 1893.15 345.913 1893.15 Q340.728 1893.15 337.696 1890.02 Q334.687 1886.87 334.687 1881.43 Q334.687 1876.11 337.835 1872.89 Q340.983 1869.67 346.214 1869.67 Q352.21 1869.67 355.358 1874.28 Q358.529 1878.86 358.529 1887.61 Q358.529 1895.79 354.64 1900.67 Q350.774 1905.53 344.224 1905.53 Q342.464 1905.53 340.659 1905.18 Q338.853 1904.84 336.909 1904.14 M346.214 1889.49 Q349.362 1889.49 351.191 1887.34 Q353.043 1885.18 353.043 1881.43 Q353.043 1877.71 351.191 1875.55 Q349.362 1873.38 346.214 1873.38 Q343.066 1873.38 341.214 1875.55 Q339.386 1877.71 339.386 1881.43 Q339.386 1885.18 341.214 1887.34 Q343.066 1889.49 346.214 1889.49 Z" fill="#000000" fill-rule="nonzero" fill-opacity="1" /><path clip-path="url(#clip690)" d="M376.932 1873.38 Q373.321 1873.38 371.492 1876.94 Q369.686 1880.48 369.686 1887.61 Q369.686 1894.72 371.492 1898.29 Q373.321 1901.83 376.932 1901.83 Q380.566 1901.83 382.371 1898.29 Q384.2 1894.72 384.2 1887.61 Q384.2 1880.48 382.371 1876.94 Q380.566 1873.38 376.932 1873.38 M376.932 1869.67 Q382.742 1869.67 385.797 1874.28 Q388.876 1878.86 388.876 1887.61 Q388.876 1896.34 385.797 1900.95 Q382.742 1905.53 376.932 1905.53 Q371.122 1905.53 368.043 1900.95 Q364.987 1896.34 364.987 1887.61 Q364.987 1878.86 368.043 1874.28 Q371.122 1869.67 376.932 1869.67 Z" fill="#000000" fill-rule="nonzero" fill-opacity="1" /><path clip-path="url(#clip690)" d="M907.069 1873.38 Q903.458 1873.38 901.629 1876.94 Q899.823 1880.48 899.823 1887.61 Q899.823 1894.72 901.629 1898.29 Q903.458 1901.83 907.069 1901.83 Q910.703 1901.83 912.508 1898.29 Q914.337 1894.72 914.337 1887.61 Q914.337 1880.48 912.508 1876.94 Q910.703 1873.38 907.069 1873.38 M907.069 1869.67 Q912.879 1869.67 915.934 1874.28 Q919.013 1878.86 919.013 1887.61 Q919.013 1896.34 915.934 1900.95 Q912.879 1905.53 907.069 1905.53 Q901.258 1905.53 898.18 1900.95 Q895.124 1896.34 895.124 1887.61 Q895.124 1878.86 898.18 1874.28 Q901.258 1869.67 907.069 1869.67 Z" fill="#000000" fill-rule="nonzero" fill-opacity="1" /><path clip-path="url(#clip690)" d="M927.231 1898.98 L932.115 1898.98 L932.115 1904.86 L927.231 1904.86 L927.231 1898.98 Z" fill="#000000" fill-rule="nonzero" fill-opacity="1" /><path clip-path="url(#clip690)" d="M942.439 1904.14 L942.439 1899.88 Q944.198 1900.72 946.004 1901.16 Q947.809 1901.6 949.545 1901.6 Q954.175 1901.6 956.605 1898.49 Q959.059 1895.37 959.406 1889.03 Q958.064 1891.02 956.004 1892.08 Q953.943 1893.15 951.443 1893.15 Q946.258 1893.15 943.226 1890.02 Q940.217 1886.87 940.217 1881.43 Q940.217 1876.11 943.365 1872.89 Q946.513 1869.67 951.744 1869.67 Q957.74 1869.67 960.888 1874.28 Q964.059 1878.86 964.059 1887.61 Q964.059 1895.79 960.17 1900.67 Q956.304 1905.53 949.754 1905.53 Q947.994 1905.53 946.189 1905.18 Q944.383 1904.84 942.439 1904.14 M951.744 1889.49 Q954.892 1889.49 956.721 1887.34 Q958.573 1885.18 958.573 1881.43 Q958.573 1877.71 956.721 1875.55 Q954.892 1873.38 951.744 1873.38 Q948.596 1873.38 946.744 1875.55 Q944.916 1877.71 944.916 1881.43 Q944.916 1885.18 946.744 1887.34 Q948.596 1889.49 951.744 1889.49 Z" fill="#000000" fill-rule="nonzero" fill-opacity="1" /><path clip-path="url(#clip690)" d="M972.508 1870.3 L990.864 1870.3 L990.864 1874.24 L976.79 1874.24 L976.79 1882.71 Q977.809 1882.36 978.828 1882.2 Q979.846 1882.01 980.865 1882.01 Q986.652 1882.01 990.031 1885.18 Q993.411 1888.36 993.411 1893.77 Q993.411 1899.35 989.939 1902.45 Q986.466 1905.53 980.147 1905.53 Q977.971 1905.53 975.703 1905.16 Q973.457 1904.79 971.05 1904.05 L971.05 1899.35 Q973.133 1900.48 975.355 1901.04 Q977.578 1901.6 980.054 1901.6 Q984.059 1901.6 986.397 1899.49 Q988.735 1897.38 988.735 1893.77 Q988.735 1890.16 986.397 1888.05 Q984.059 1885.95 980.054 1885.95 Q978.179 1885.95 976.304 1886.36 Q974.453 1886.78 972.508 1887.66 L972.508 1870.3 Z" fill="#000000" fill-rule="nonzero" fill-opacity="1" /><path clip-path="url(#clip690)" d="M1501.37 1900.92 L1509.01 1900.92 L1509.01 1874.56 L1500.7 1876.23 L1500.7 1871.97 L1508.96 1870.3 L1513.64 1870.3 L1513.64 1900.92 L1521.28 1900.92 L1521.28 1904.86 L1501.37 1904.86 L1501.37 1900.92 Z" fill="#000000" fill-rule="nonzero" fill-opacity="1" /><path clip-path="url(#clip690)" d="M1530.72 1898.98 L1535.61 1898.98 L1535.61 1904.86 L1530.72 1904.86 L1530.72 1898.98 Z" fill="#000000" fill-rule="nonzero" fill-opacity="1" /><path clip-path="url(#clip690)" d="M1555.79 1873.38 Q1552.18 1873.38 1550.35 1876.94 Q1548.55 1880.48 1548.55 1887.61 Q1548.55 1894.72 1550.35 1898.29 Q1552.18 1901.83 1555.79 1901.83 Q1559.43 1901.83 1561.23 1898.29 Q1563.06 1894.72 1563.06 1887.61 Q1563.06 1880.48 1561.23 1876.94 Q1559.43 1873.38 1555.79 1873.38 M1555.79 1869.67 Q1561.6 1869.67 1564.66 1874.28 Q1567.74 1878.86 1567.74 1887.61 Q1567.74 1896.34 1564.66 1900.95 Q1561.6 1905.53 1555.79 1905.53 Q1549.98 1905.53 1546.9 1900.95 Q1543.85 1896.34 1543.85 1887.61 Q1543.85 1878.86 1546.9 1874.28 Q1549.98 1869.67 1555.79 1869.67 Z" fill="#000000" fill-rule="nonzero" fill-opacity="1" /><path clip-path="url(#clip690)" d="M1585.95 1873.38 Q1582.34 1873.38 1580.52 1876.94 Q1578.71 1880.48 1578.71 1887.61 Q1578.71 1894.72 1580.52 1898.29 Q1582.34 1901.83 1585.95 1901.83 Q1589.59 1901.83 1591.39 1898.29 Q1593.22 1894.72 1593.22 1887.61 Q1593.22 1880.48 1591.39 1876.94 Q1589.59 1873.38 1585.95 1873.38 M1585.95 1869.67 Q1591.76 1869.67 1594.82 1874.28 Q1597.9 1878.86 1597.9 1887.61 Q1597.9 1896.34 1594.82 1900.95 Q1591.76 1905.53 1585.95 1905.53 Q1580.14 1905.53 1577.07 1900.95 Q1574.01 1896.34 1574.01 1887.61 Q1574.01 1878.86 1577.07 1874.28 Q1580.14 1869.67 1585.95 1869.67 Z" fill="#000000" fill-rule="nonzero" fill-opacity="1" /><path clip-path="url(#clip690)" d="M2106.9 1900.92 L2114.54 1900.92 L2114.54 1874.56 L2106.23 1876.23 L2106.23 1871.97 L2114.49 1870.3 L2119.17 1870.3 L2119.17 1900.92 L2126.81 1900.92 L2126.81 1904.86 L2106.9 1904.86 L2106.9 1900.92 Z" fill="#000000" fill-rule="nonzero" fill-opacity="1" /><path clip-path="url(#clip690)" d="M2136.25 1898.98 L2141.14 1898.98 L2141.14 1904.86 L2136.25 1904.86 L2136.25 1898.98 Z" fill="#000000" fill-rule="nonzero" fill-opacity="1" /><path clip-path="url(#clip690)" d="M2161.32 1873.38 Q2157.71 1873.38 2155.88 1876.94 Q2154.08 1880.48 2154.08 1887.61 Q2154.08 1894.72 2155.88 1898.29 Q2157.71 1901.83 2161.32 1901.83 Q2164.96 1901.83 2166.76 1898.29 Q2168.59 1894.72 2168.59 1887.61 Q2168.59 1880.48 2166.76 1876.94 Q2164.96 1873.38 2161.32 1873.38 M2161.32 1869.67 Q2167.13 1869.67 2170.19 1874.28 Q2173.27 1878.86 2173.27 1887.61 Q2173.27 1896.34 2170.19 1900.95 Q2167.13 1905.53 2161.32 1905.53 Q2155.51 1905.53 2152.43 1900.95 Q2149.38 1896.34 2149.38 1887.61 Q2149.38 1878.86 2152.43 1874.28 Q2155.51 1869.67 2161.32 1869.67 Z" fill="#000000" fill-rule="nonzero" fill-opacity="1" /><path clip-path="url(#clip690)" d="M2181.53 1870.3 L2199.89 1870.3 L2199.89 1874.24 L2185.81 1874.24 L2185.81 1882.71 Q2186.83 1882.36 2187.85 1882.2 Q2188.87 1882.01 2189.89 1882.01 Q2195.67 1882.01 2199.05 1885.18 Q2202.43 1888.36 2202.43 1893.77 Q2202.43 1899.35 2198.96 1902.45 Q2195.49 1905.53 2189.17 1905.53 Q2186.99 1905.53 2184.73 1905.16 Q2182.48 1904.79 2180.07 1904.05 L2180.07 1899.35 Q2182.16 1900.48 2184.38 1901.04 Q2186.6 1901.6 2189.08 1901.6 Q2193.08 1901.6 2195.42 1899.49 Q2197.76 1897.38 2197.76 1893.77 Q2197.76 1890.16 2195.42 1888.05 Q2193.08 1885.95 2189.08 1885.95 Q2187.2 1885.95 2185.33 1886.36 Q2183.48 1886.78 2181.53 1887.66 L2181.53 1870.3 Z" fill="#000000" fill-rule="nonzero" fill-opacity="1" /><path clip-path="url(#clip690)" d="M2711.44 1900.92 L2719.08 1900.92 L2719.08 1874.56 L2710.77 1876.23 L2710.77 1871.97 L2719.03 1870.3 L2723.71 1870.3 L2723.71 1900.92 L2731.34 1900.92 L2731.34 1904.86 L2711.44 1904.86 L2711.44 1900.92 Z" fill="#000000" fill-rule="nonzero" fill-opacity="1" /><path clip-path="url(#clip690)" d="M2740.79 1898.98 L2745.67 1898.98 L2745.67 1904.86 L2740.79 1904.86 L2740.79 1898.98 Z" fill="#000000" fill-rule="nonzero" fill-opacity="1" /><path clip-path="url(#clip690)" d="M2756.67 1900.92 L2764.31 1900.92 L2764.31 1874.56 L2756 1876.23 L2756 1871.97 L2764.26 1870.3 L2768.94 1870.3 L2768.94 1900.92 L2776.58 1900.92 L2776.58 1904.86 L2756.67 1904.86 L2756.67 1900.92 Z" fill="#000000" fill-rule="nonzero" fill-opacity="1" /><path clip-path="url(#clip690)" d="M2796.02 1873.38 Q2792.41 1873.38 2790.58 1876.94 Q2788.77 1880.48 2788.77 1887.61 Q2788.77 1894.72 2790.58 1898.29 Q2792.41 1901.83 2796.02 1901.83 Q2799.65 1901.83 2801.46 1898.29 Q2803.29 1894.72 2803.29 1887.61 Q2803.29 1880.48 2801.46 1876.94 Q2799.65 1873.38 2796.02 1873.38 M2796.02 1869.67 Q2801.83 1869.67 2804.89 1874.28 Q2807.96 1878.86 2807.96 1887.61 Q2807.96 1896.34 2804.89 1900.95 Q2801.83 1905.53 2796.02 1905.53 Q2790.21 1905.53 2787.13 1900.95 Q2784.08 1896.34 2784.08 1887.61 Q2784.08 1878.86 2787.13 1874.28 Q2790.21 1869.67 2796.02 1869.67 Z" fill="#000000" fill-rule="nonzero" fill-opacity="1" /><path clip-path="url(#clip690)" d="M1263.15 1949.76 L1263.15 1956.03 Q1259.49 1954.28 1256.24 1953.42 Q1252.99 1952.56 1249.97 1952.56 Q1244.72 1952.56 1241.85 1954.6 Q1239.02 1956.64 1239.02 1960.39 Q1239.02 1963.55 1240.9 1965.17 Q1242.81 1966.76 1248.09 1967.75 L1251.97 1968.54 Q1259.17 1969.91 1262.57 1973.38 Q1266.01 1976.82 1266.01 1982.61 Q1266.01 1989.52 1261.36 1993.08 Q1256.75 1996.65 1247.8 1996.65 Q1244.43 1996.65 1240.61 1995.88 Q1236.82 1995.12 1232.75 1993.62 L1232.75 1987 Q1236.66 1989.2 1240.42 1990.31 Q1244.18 1991.43 1247.8 1991.43 Q1253.31 1991.43 1256.3 1989.26 Q1259.29 1987.1 1259.29 1983.09 Q1259.29 1979.59 1257.13 1977.61 Q1255 1975.64 1250.1 1974.65 L1246.18 1973.89 Q1238.99 1972.46 1235.77 1969.4 Q1232.56 1966.35 1232.56 1960.9 Q1232.56 1954.6 1236.98 1950.97 Q1241.44 1947.34 1249.24 1947.34 Q1252.58 1947.34 1256.05 1947.95 Q1259.52 1948.55 1263.15 1949.76 Z" fill="#000000" fill-rule="nonzero" fill-opacity="1" /><path clip-path="url(#clip690)" d="M1289.59 1964.18 Q1284.88 1964.18 1282.15 1967.87 Q1279.41 1971.53 1279.41 1977.93 Q1279.41 1984.33 1282.12 1988.02 Q1284.85 1991.68 1289.59 1991.68 Q1294.27 1991.68 1297.01 1987.99 Q1299.75 1984.3 1299.75 1977.93 Q1299.75 1971.6 1297.01 1967.91 Q1294.27 1964.18 1289.59 1964.18 M1289.59 1959.22 Q1297.23 1959.22 1301.59 1964.18 Q1305.95 1969.15 1305.95 1977.93 Q1305.95 1986.68 1301.59 1991.68 Q1297.23 1996.65 1289.59 1996.65 Q1281.92 1996.65 1277.56 1991.68 Q1273.24 1986.68 1273.24 1977.93 Q1273.24 1969.15 1277.56 1964.18 Q1281.92 1959.22 1289.59 1959.22 Z" fill="#000000" fill-rule="nonzero" fill-opacity="1" /><path clip-path="url(#clip690)" d="M1315.06 1981.66 L1315.06 1960.08 L1320.91 1960.08 L1320.91 1981.43 Q1320.91 1986.49 1322.89 1989.04 Q1324.86 1991.55 1328.81 1991.55 Q1333.55 1991.55 1336.29 1988.53 Q1339.06 1985.51 1339.06 1980.29 L1339.06 1960.08 L1344.91 1960.08 L1344.91 1995.72 L1339.06 1995.72 L1339.06 1990.25 Q1336.92 1993.5 1334.09 1995.09 Q1331.29 1996.65 1327.57 1996.65 Q1321.42 1996.65 1318.24 1992.83 Q1315.06 1989.01 1315.06 1981.66 M1329.79 1959.22 L1329.79 1959.22 Z" fill="#000000" fill-rule="nonzero" fill-opacity="1" /><path clip-path="url(#clip690)" d="M1377.63 1965.55 Q1376.65 1964.98 1375.47 1964.72 Q1374.32 1964.44 1372.92 1964.44 Q1367.96 1964.44 1365.28 1967.68 Q1362.64 1970.9 1362.64 1976.95 L1362.64 1995.72 L1356.75 1995.72 L1356.75 1960.08 L1362.64 1960.08 L1362.64 1965.61 Q1364.49 1962.37 1367.45 1960.81 Q1370.41 1959.22 1374.64 1959.22 Q1375.25 1959.22 1375.98 1959.31 Q1376.71 1959.38 1377.6 1959.53 L1377.63 1965.55 Z" fill="#000000" fill-rule="nonzero" fill-opacity="1" /><path clip-path="url(#clip690)" d="M1408 1961.44 L1408 1966.92 Q1405.51 1965.55 1403 1964.88 Q1400.52 1964.18 1397.97 1964.18 Q1392.27 1964.18 1389.12 1967.81 Q1385.97 1971.41 1385.97 1977.93 Q1385.97 1984.46 1389.12 1988.08 Q1392.27 1991.68 1397.97 1991.68 Q1400.52 1991.68 1403 1991.01 Q1405.51 1990.31 1408 1988.94 L1408 1994.36 Q1405.55 1995.5 1402.9 1996.07 Q1400.29 1996.65 1397.33 1996.65 Q1389.28 1996.65 1384.54 1991.59 Q1379.8 1986.53 1379.8 1977.93 Q1379.8 1969.21 1384.57 1964.21 Q1389.38 1959.22 1397.72 1959.22 Q1400.42 1959.22 1403 1959.79 Q1405.58 1960.33 1408 1961.44 Z" fill="#000000" fill-rule="nonzero" fill-opacity="1" /><path clip-path="url(#clip690)" d="M1448.67 1976.44 L1448.67 1979.3 L1421.75 1979.3 Q1422.13 1985.35 1425.38 1988.53 Q1428.65 1991.68 1434.48 1991.68 Q1437.85 1991.68 1441 1990.85 Q1444.19 1990.03 1447.31 1988.37 L1447.31 1993.91 Q1444.15 1995.25 1440.84 1995.95 Q1437.53 1996.65 1434.13 1996.65 Q1425.6 1996.65 1420.6 1991.68 Q1415.64 1986.72 1415.64 1978.25 Q1415.64 1969.5 1420.35 1964.37 Q1425.09 1959.22 1433.11 1959.22 Q1440.3 1959.22 1444.47 1963.86 Q1448.67 1968.48 1448.67 1976.44 M1442.82 1974.72 Q1442.75 1969.91 1440.11 1967.05 Q1437.5 1964.18 1433.17 1964.18 Q1428.27 1964.18 1425.31 1966.95 Q1422.38 1969.72 1421.94 1974.75 L1442.82 1974.72 Z" fill="#000000" fill-rule="nonzero" fill-opacity="1" /><path clip-path="url(#clip690)" d="M1491.52 1995.72 L1473.37 1948.2 L1480.09 1948.2 L1495.14 1988.21 L1510.23 1948.2 L1516.91 1948.2 L1498.8 1995.72 L1491.52 1995.72 Z" fill="#000000" fill-rule="nonzero" fill-opacity="1" /><path clip-path="url(#clip690)" d="M1532.35 1964.18 Q1527.64 1964.18 1524.9 1967.87 Q1522.17 1971.53 1522.17 1977.93 Q1522.17 1984.33 1524.87 1988.02 Q1527.61 1991.68 1532.35 1991.68 Q1537.03 1991.68 1539.77 1987.99 Q1542.5 1984.3 1542.5 1977.93 Q1542.5 1971.6 1539.77 1967.91 Q1537.03 1964.18 1532.35 1964.18 M1532.35 1959.22 Q1539.99 1959.22 1544.35 1964.18 Q1548.71 1969.15 1548.71 1977.93 Q1548.71 1986.68 1544.35 1991.68 Q1539.99 1996.65 1532.35 1996.65 Q1524.68 1996.65 1520.32 1991.68 Q1515.99 1986.68 1515.99 1977.93 Q1515.99 1969.15 1520.32 1964.18 Q1524.68 1959.22 1532.35 1959.22 Z" fill="#000000" fill-rule="nonzero" fill-opacity="1" /><path clip-path="url(#clip690)" d="M1558.42 1946.2 L1564.28 1946.2 L1564.28 1995.72 L1558.42 1995.72 L1558.42 1946.2 Z" fill="#000000" fill-rule="nonzero" fill-opacity="1" /><path clip-path="url(#clip690)" d="M1582.32 1949.95 L1582.32 1960.08 L1594.39 1960.08 L1594.39 1964.63 L1582.32 1964.63 L1582.32 1983.98 Q1582.32 1988.34 1583.5 1989.58 Q1584.71 1990.82 1588.37 1990.82 L1594.39 1990.82 L1594.39 1995.72 L1588.37 1995.72 Q1581.59 1995.72 1579.01 1993.21 Q1576.43 1990.66 1576.43 1983.98 L1576.43 1964.63 L1572.14 1964.63 L1572.14 1960.08 L1576.43 1960.08 L1576.43 1949.95 L1582.32 1949.95 Z" fill="#000000" fill-rule="nonzero" fill-opacity="1" /><path clip-path="url(#clip690)" d="M1618.29 1977.8 Q1611.19 1977.8 1608.45 1979.43 Q1605.72 1981.05 1605.72 1984.97 Q1605.72 1988.08 1607.75 1989.93 Q1609.82 1991.75 1613.35 1991.75 Q1618.22 1991.75 1621.15 1988.31 Q1624.11 1984.84 1624.11 1979.11 L1624.11 1977.8 L1618.29 1977.8 M1629.97 1975.39 L1629.97 1995.72 L1624.11 1995.72 L1624.11 1990.31 Q1622.11 1993.56 1619.12 1995.12 Q1616.12 1996.65 1611.8 1996.65 Q1606.32 1996.65 1603.07 1993.59 Q1599.86 1990.5 1599.86 1985.35 Q1599.86 1979.33 1603.87 1976.28 Q1607.91 1973.22 1615.9 1973.22 L1624.11 1973.22 L1624.11 1972.65 Q1624.11 1968.61 1621.44 1966.41 Q1618.8 1964.18 1613.99 1964.18 Q1610.94 1964.18 1608.04 1964.91 Q1605.14 1965.65 1602.47 1967.11 L1602.47 1961.7 Q1605.68 1960.46 1608.71 1959.85 Q1611.73 1959.22 1614.6 1959.22 Q1622.33 1959.22 1626.15 1963.23 Q1629.97 1967.24 1629.97 1975.39 Z" fill="#000000" fill-rule="nonzero" fill-opacity="1" /><path clip-path="url(#clip690)" d="M1665.49 1977.49 Q1665.49 1971.12 1662.85 1967.62 Q1660.24 1964.12 1655.5 1964.12 Q1650.79 1964.12 1648.14 1967.62 Q1645.53 1971.12 1645.53 1977.49 Q1645.53 1983.82 1648.14 1987.32 Q1650.79 1990.82 1655.5 1990.82 Q1660.24 1990.82 1662.85 1987.32 Q1665.49 1983.82 1665.49 1977.49 M1671.35 1991.3 Q1671.35 2000.4 1667.3 2004.83 Q1663.26 2009.28 1654.92 2009.28 Q1651.84 2009.28 1649.1 2008.81 Q1646.36 2008.36 1643.78 2007.4 L1643.78 2001.71 Q1646.36 2003.11 1648.88 2003.78 Q1651.39 2004.44 1654 2004.44 Q1659.76 2004.44 1662.63 2001.42 Q1665.49 1998.43 1665.49 1992.35 L1665.49 1989.45 Q1663.68 1992.6 1660.84 1994.16 Q1658.01 1995.72 1654.06 1995.72 Q1647.51 1995.72 1643.5 1990.73 Q1639.49 1985.73 1639.49 1977.49 Q1639.49 1969.21 1643.5 1964.21 Q1647.51 1959.22 1654.06 1959.22 Q1658.01 1959.22 1660.84 1960.78 Q1663.68 1962.34 1665.49 1965.49 L1665.49 1960.08 L1671.35 1960.08 L1671.35 1991.3 Z" fill="#000000" fill-rule="nonzero" fill-opacity="1" /><path clip-path="url(#clip690)" d="M1713.9 1976.44 L1713.9 1979.3 L1686.97 1979.3 Q1687.36 1985.35 1690.6 1988.53 Q1693.88 1991.68 1699.71 1991.68 Q1703.08 1991.68 1706.23 1990.85 Q1709.41 1990.03 1712.53 1988.37 L1712.53 1993.91 Q1709.38 1995.25 1706.07 1995.95 Q1702.76 1996.65 1699.36 1996.65 Q1690.83 1996.65 1685.83 1991.68 Q1680.86 1986.72 1680.86 1978.25 Q1680.86 1969.5 1685.57 1964.37 Q1690.32 1959.22 1698.34 1959.22 Q1705.53 1959.22 1709.7 1963.86 Q1713.9 1968.48 1713.9 1976.44 M1708.04 1974.72 Q1707.98 1969.91 1705.34 1967.05 Q1702.73 1964.18 1698.4 1964.18 Q1693.5 1964.18 1690.54 1966.95 Q1687.61 1969.72 1687.17 1974.75 L1708.04 1974.72 Z" fill="#000000" fill-rule="nonzero" fill-opacity="1" /><path clip-path="url(#clip690)" d="M1758.3 1946.26 Q1754.04 1953.58 1751.97 1960.74 Q1749.9 1967.91 1749.9 1975.26 Q1749.9 1982.61 1751.97 1989.84 Q1754.07 1997.03 1758.3 2004.32 L1753.21 2004.32 Q1748.44 1996.84 1746.05 1989.61 Q1743.69 1982.39 1743.69 1975.26 Q1743.69 1968.16 1746.05 1960.97 Q1748.4 1953.77 1753.21 1946.26 L1758.3 1946.26 Z" fill="#000000" fill-rule="nonzero" fill-opacity="1" /><path clip-path="url(#clip690)" d="M1775.33 1990.38 L1775.33 2009.28 L1769.44 2009.28 L1769.44 1960.08 L1775.33 1960.08 L1775.33 1965.49 Q1777.18 1962.3 1779.98 1960.78 Q1782.81 1959.22 1786.72 1959.22 Q1793.22 1959.22 1797.26 1964.37 Q1801.33 1969.53 1801.33 1977.93 Q1801.33 1986.33 1797.26 1991.49 Q1793.22 1996.65 1786.72 1996.65 Q1782.81 1996.65 1779.98 1995.12 Q1777.18 1993.56 1775.33 1990.38 M1795.25 1977.93 Q1795.25 1971.47 1792.58 1967.81 Q1789.94 1964.12 1785.29 1964.12 Q1780.65 1964.12 1777.97 1967.81 Q1775.33 1971.47 1775.33 1977.93 Q1775.33 1984.39 1777.97 1988.08 Q1780.65 1991.75 1785.29 1991.75 Q1789.94 1991.75 1792.58 1988.08 Q1795.25 1984.39 1795.25 1977.93 Z" fill="#000000" fill-rule="nonzero" fill-opacity="1" /><path clip-path="url(#clip690)" d="M1810.44 1981.66 L1810.44 1960.08 L1816.29 1960.08 L1816.29 1981.43 Q1816.29 1986.49 1818.27 1989.04 Q1820.24 1991.55 1824.19 1991.55 Q1828.93 1991.55 1831.67 1988.53 Q1834.44 1985.51 1834.44 1980.29 L1834.44 1960.08 L1840.29 1960.08 L1840.29 1995.72 L1834.44 1995.72 L1834.44 1990.25 Q1832.3 1993.5 1829.47 1995.09 Q1826.67 1996.65 1822.95 1996.65 Q1816.8 1996.65 1813.62 1992.83 Q1810.44 1989.01 1810.44 1981.66 M1825.17 1959.22 L1825.17 1959.22 Z" fill="#000000" fill-rule="nonzero" fill-opacity="1" /><path clip-path="url(#clip690)" d="M1851.43 1946.26 L1856.52 1946.26 Q1861.3 1953.77 1863.65 1960.97 Q1866.04 1968.16 1866.04 1975.26 Q1866.04 1982.39 1863.65 1989.61 Q1861.3 1996.84 1856.52 2004.32 L1851.43 2004.32 Q1855.67 1997.03 1857.73 1989.84 Q1859.83 1982.61 1859.83 1975.26 Q1859.83 1967.91 1857.73 1960.74 Q1855.67 1953.58 1851.43 1946.26 Z" fill="#000000" fill-rule="nonzero" fill-opacity="1" /><polyline clip-path="url(#clip690)" style="stroke:#000000; stroke-linecap:round; stroke-linejoin:round; stroke-width:4; stroke-opacity:1; fill:none" points="266.631,1832.86 266.631,113.392 "/>
<polyline clip-path="url(#clip690)" style="stroke:#000000; stroke-linecap:round; stroke-linejoin:round; stroke-width:4; stroke-opacity:1; fill:none" points="266.631,1765.78 281.384,1765.78 "/>
<polyline clip-path="url(#clip690)" style="stroke:#000000; stroke-linecap:round; stroke-linejoin:round; stroke-width:4; stroke-opacity:1; fill:none" points="266.631,1416.88 281.384,1416.88 "/>
<polyline clip-path="url(#clip690)" style="stroke:#000000; stroke-linecap:round; stroke-linejoin:round; stroke-width:4; stroke-opacity:1; fill:none" points="266.631,1067.99 281.384,1067.99 "/>
<polyline clip-path="url(#clip690)" style="stroke:#000000; stroke-linecap:round; stroke-linejoin:round; stroke-width:4; stroke-opacity:1; fill:none" points="266.631,719.094 281.384,719.094 "/>
<polyline clip-path="url(#clip690)" style="stroke:#000000; stroke-linecap:round; stroke-linejoin:round; stroke-width:4; stroke-opacity:1; fill:none" points="266.631,370.201 281.384,370.201 "/>
<path clip-path="url(#clip690)" d="M101.011 1779.12 L108.65 1779.12 L108.65 1752.76 L100.34 1754.42 L100.34 1750.16 L108.604 1748.5 L113.28 1748.5 L113.28 1779.12 L120.919 1779.12 L120.919 1783.06 L101.011 1783.06 L101.011 1779.12 Z" fill="#000000" fill-rule="nonzero" fill-opacity="1" /><path clip-path="url(#clip690)" d="M143.21 1752.57 L131.405 1771.02 L143.21 1771.02 L143.21 1752.57 M141.983 1748.5 L147.863 1748.5 L147.863 1771.02 L152.794 1771.02 L152.794 1774.91 L147.863 1774.91 L147.863 1783.06 L143.21 1783.06 L143.21 1774.91 L127.609 1774.91 L127.609 1770.39 L141.983 1748.5 Z" fill="#000000" fill-rule="nonzero" fill-opacity="1" /><path clip-path="url(#clip690)" d="M160.571 1748.5 L178.928 1748.5 L178.928 1752.43 L164.854 1752.43 L164.854 1760.9 Q165.872 1760.56 166.891 1760.39 Q167.909 1760.21 168.928 1760.21 Q174.715 1760.21 178.094 1763.38 Q181.474 1766.55 181.474 1771.97 Q181.474 1777.55 178.002 1780.65 Q174.53 1783.73 168.21 1783.73 Q166.034 1783.73 163.766 1783.36 Q161.52 1782.99 159.113 1782.25 L159.113 1777.55 Q161.196 1778.68 163.419 1779.24 Q165.641 1779.79 168.118 1779.79 Q172.122 1779.79 174.46 1777.69 Q176.798 1775.58 176.798 1771.97 Q176.798 1768.36 174.46 1766.25 Q172.122 1764.14 168.118 1764.14 Q166.243 1764.14 164.368 1764.56 Q162.516 1764.98 160.571 1765.86 L160.571 1748.5 Z" fill="#000000" fill-rule="nonzero" fill-opacity="1" /><path clip-path="url(#clip690)" d="M200.687 1751.57 Q197.076 1751.57 195.247 1755.14 Q193.442 1758.68 193.442 1765.81 Q193.442 1772.92 195.247 1776.48 Q197.076 1780.02 200.687 1780.02 Q204.321 1780.02 206.127 1776.48 Q207.955 1772.92 207.955 1765.81 Q207.955 1758.68 206.127 1755.14 Q204.321 1751.57 200.687 1751.57 M200.687 1747.87 Q206.497 1747.87 209.553 1752.48 Q212.631 1757.06 212.631 1765.81 Q212.631 1774.54 209.553 1779.14 Q206.497 1783.73 200.687 1783.73 Q194.877 1783.73 191.798 1779.14 Q188.742 1774.54 188.742 1765.81 Q188.742 1757.06 191.798 1752.48 Q194.877 1747.87 200.687 1747.87 Z" fill="#000000" fill-rule="nonzero" fill-opacity="1" /><path clip-path="url(#clip690)" d="M101.011 1430.23 L108.65 1430.23 L108.65 1403.86 L100.34 1405.53 L100.34 1401.27 L108.604 1399.6 L113.28 1399.6 L113.28 1430.23 L120.919 1430.23 L120.919 1434.16 L101.011 1434.16 L101.011 1430.23 Z" fill="#000000" fill-rule="nonzero" fill-opacity="1" /><path clip-path="url(#clip690)" d="M130.409 1399.6 L148.766 1399.6 L148.766 1403.54 L134.692 1403.54 L134.692 1412.01 Q135.71 1411.66 136.729 1411.5 Q137.747 1411.32 138.766 1411.32 Q144.553 1411.32 147.932 1414.49 Q151.312 1417.66 151.312 1423.07 Q151.312 1428.65 147.84 1431.75 Q144.368 1434.83 138.048 1434.83 Q135.872 1434.83 133.604 1434.46 Q131.359 1434.09 128.951 1433.35 L128.951 1428.65 Q131.034 1429.79 133.257 1430.34 Q135.479 1430.9 137.956 1430.9 Q141.96 1430.9 144.298 1428.79 Q146.636 1426.69 146.636 1423.07 Q146.636 1419.46 144.298 1417.36 Q141.96 1415.25 137.956 1415.25 Q136.081 1415.25 134.206 1415.67 Q132.354 1416.08 130.409 1416.96 L130.409 1399.6 Z" fill="#000000" fill-rule="nonzero" fill-opacity="1" /><path clip-path="url(#clip690)" d="M170.525 1402.68 Q166.914 1402.68 165.085 1406.25 Q163.28 1409.79 163.28 1416.92 Q163.28 1424.02 165.085 1427.59 Q166.914 1431.13 170.525 1431.13 Q174.159 1431.13 175.965 1427.59 Q177.793 1424.02 177.793 1416.92 Q177.793 1409.79 175.965 1406.25 Q174.159 1402.68 170.525 1402.68 M170.525 1398.98 Q176.335 1398.98 179.391 1403.58 Q182.469 1408.17 182.469 1416.92 Q182.469 1425.64 179.391 1430.25 Q176.335 1434.83 170.525 1434.83 Q164.715 1434.83 161.636 1430.25 Q158.581 1425.64 158.581 1416.92 Q158.581 1408.17 161.636 1403.58 Q164.715 1398.98 170.525 1398.98 Z" fill="#000000" fill-rule="nonzero" fill-opacity="1" /><path clip-path="url(#clip690)" d="M200.687 1402.68 Q197.076 1402.68 195.247 1406.25 Q193.442 1409.79 193.442 1416.92 Q193.442 1424.02 195.247 1427.59 Q197.076 1431.13 200.687 1431.13 Q204.321 1431.13 206.127 1427.59 Q207.955 1424.02 207.955 1416.92 Q207.955 1409.79 206.127 1406.25 Q204.321 1402.68 200.687 1402.68 M200.687 1398.98 Q206.497 1398.98 209.553 1403.58 Q212.631 1408.17 212.631 1416.92 Q212.631 1425.64 209.553 1430.25 Q206.497 1434.83 200.687 1434.83 Q194.877 1434.83 191.798 1430.25 Q188.742 1425.64 188.742 1416.92 Q188.742 1408.17 191.798 1403.58 Q194.877 1398.98 200.687 1398.98 Z" fill="#000000" fill-rule="nonzero" fill-opacity="1" /><path clip-path="url(#clip690)" d="M101.011 1081.33 L108.65 1081.33 L108.65 1054.97 L100.34 1056.63 L100.34 1052.37 L108.604 1050.71 L113.28 1050.71 L113.28 1081.33 L120.919 1081.33 L120.919 1085.27 L101.011 1085.27 L101.011 1081.33 Z" fill="#000000" fill-rule="nonzero" fill-opacity="1" /><path clip-path="url(#clip690)" d="M130.409 1050.71 L148.766 1050.71 L148.766 1054.64 L134.692 1054.64 L134.692 1063.12 Q135.71 1062.77 136.729 1062.61 Q137.747 1062.42 138.766 1062.42 Q144.553 1062.42 147.932 1065.59 Q151.312 1068.76 151.312 1074.18 Q151.312 1079.76 147.84 1082.86 Q144.368 1085.94 138.048 1085.94 Q135.872 1085.94 133.604 1085.57 Q131.359 1085.2 128.951 1084.46 L128.951 1079.76 Q131.034 1080.89 133.257 1081.45 Q135.479 1082 137.956 1082 Q141.96 1082 144.298 1079.9 Q146.636 1077.79 146.636 1074.18 Q146.636 1070.57 144.298 1068.46 Q141.96 1066.36 137.956 1066.36 Q136.081 1066.36 134.206 1066.77 Q132.354 1067.19 130.409 1068.07 L130.409 1050.71 Z" fill="#000000" fill-rule="nonzero" fill-opacity="1" /><path clip-path="url(#clip690)" d="M160.571 1050.71 L178.928 1050.71 L178.928 1054.64 L164.854 1054.64 L164.854 1063.12 Q165.872 1062.77 166.891 1062.61 Q167.909 1062.42 168.928 1062.42 Q174.715 1062.42 178.094 1065.59 Q181.474 1068.76 181.474 1074.18 Q181.474 1079.76 178.002 1082.86 Q174.53 1085.94 168.21 1085.94 Q166.034 1085.94 163.766 1085.57 Q161.52 1085.2 159.113 1084.46 L159.113 1079.76 Q161.196 1080.89 163.419 1081.45 Q165.641 1082 168.118 1082 Q172.122 1082 174.46 1079.9 Q176.798 1077.79 176.798 1074.18 Q176.798 1070.57 174.46 1068.46 Q172.122 1066.36 168.118 1066.36 Q166.243 1066.36 164.368 1066.77 Q162.516 1067.19 160.571 1068.07 L160.571 1050.71 Z" fill="#000000" fill-rule="nonzero" fill-opacity="1" /><path clip-path="url(#clip690)" d="M200.687 1053.79 Q197.076 1053.79 195.247 1057.35 Q193.442 1060.89 193.442 1068.02 Q193.442 1075.13 195.247 1078.69 Q197.076 1082.24 200.687 1082.24 Q204.321 1082.24 206.127 1078.69 Q207.955 1075.13 207.955 1068.02 Q207.955 1060.89 206.127 1057.35 Q204.321 1053.79 200.687 1053.79 M200.687 1050.08 Q206.497 1050.08 209.553 1054.69 Q212.631 1059.27 212.631 1068.02 Q212.631 1076.75 209.553 1081.36 Q206.497 1085.94 200.687 1085.94 Q194.877 1085.94 191.798 1081.36 Q188.742 1076.75 188.742 1068.02 Q188.742 1059.27 191.798 1054.69 Q194.877 1050.08 200.687 1050.08 Z" fill="#000000" fill-rule="nonzero" fill-opacity="1" /><path clip-path="url(#clip690)" d="M101.011 732.439 L108.65 732.439 L108.65 706.074 L100.34 707.74 L100.34 703.481 L108.604 701.814 L113.28 701.814 L113.28 732.439 L120.919 732.439 L120.919 736.374 L101.011 736.374 L101.011 732.439 Z" fill="#000000" fill-rule="nonzero" fill-opacity="1" /><path clip-path="url(#clip690)" d="M140.942 717.231 Q137.794 717.231 135.942 719.384 Q134.113 721.537 134.113 725.287 Q134.113 729.013 135.942 731.189 Q137.794 733.342 140.942 733.342 Q144.09 733.342 145.919 731.189 Q147.77 729.013 147.77 725.287 Q147.77 721.537 145.919 719.384 Q144.09 717.231 140.942 717.231 M150.224 702.578 L150.224 706.838 Q148.465 706.004 146.659 705.564 Q144.877 705.125 143.118 705.125 Q138.488 705.125 136.034 708.25 Q133.604 711.375 133.257 717.694 Q134.622 715.68 136.683 714.615 Q138.743 713.527 141.22 713.527 Q146.428 713.527 149.437 716.699 Q152.47 719.847 152.47 725.287 Q152.47 730.611 149.321 733.828 Q146.173 737.046 140.942 737.046 Q134.946 737.046 131.775 732.462 Q128.604 727.856 128.604 719.129 Q128.604 710.935 132.493 706.074 Q136.382 701.189 142.933 701.189 Q144.692 701.189 146.474 701.537 Q148.28 701.884 150.224 702.578 Z" fill="#000000" fill-rule="nonzero" fill-opacity="1" /><path clip-path="url(#clip690)" d="M170.525 704.893 Q166.914 704.893 165.085 708.458 Q163.28 712 163.28 719.129 Q163.28 726.236 165.085 729.8 Q166.914 733.342 170.525 733.342 Q174.159 733.342 175.965 729.8 Q177.793 726.236 177.793 719.129 Q177.793 712 175.965 708.458 Q174.159 704.893 170.525 704.893 M170.525 701.189 Q176.335 701.189 179.391 705.796 Q182.469 710.379 182.469 719.129 Q182.469 727.856 179.391 732.462 Q176.335 737.046 170.525 737.046 Q164.715 737.046 161.636 732.462 Q158.581 727.856 158.581 719.129 Q158.581 710.379 161.636 705.796 Q164.715 701.189 170.525 701.189 Z" fill="#000000" fill-rule="nonzero" fill-opacity="1" /><path clip-path="url(#clip690)" d="M200.687 704.893 Q197.076 704.893 195.247 708.458 Q193.442 712 193.442 719.129 Q193.442 726.236 195.247 729.8 Q197.076 733.342 200.687 733.342 Q204.321 733.342 206.127 729.8 Q207.955 726.236 207.955 719.129 Q207.955 712 206.127 708.458 Q204.321 704.893 200.687 704.893 M200.687 701.189 Q206.497 701.189 209.553 705.796 Q212.631 710.379 212.631 719.129 Q212.631 727.856 209.553 732.462 Q206.497 737.046 200.687 737.046 Q194.877 737.046 191.798 732.462 Q188.742 727.856 188.742 719.129 Q188.742 710.379 191.798 705.796 Q194.877 701.189 200.687 701.189 Z" fill="#000000" fill-rule="nonzero" fill-opacity="1" /><path clip-path="url(#clip690)" d="M101.011 383.545 L108.65 383.545 L108.65 357.18 L100.34 358.846 L100.34 354.587 L108.604 352.921 L113.28 352.921 L113.28 383.545 L120.919 383.545 L120.919 387.481 L101.011 387.481 L101.011 383.545 Z" fill="#000000" fill-rule="nonzero" fill-opacity="1" /><path clip-path="url(#clip690)" d="M140.942 368.337 Q137.794 368.337 135.942 370.49 Q134.113 372.643 134.113 376.393 Q134.113 380.119 135.942 382.295 Q137.794 384.448 140.942 384.448 Q144.09 384.448 145.919 382.295 Q147.77 380.119 147.77 376.393 Q147.77 372.643 145.919 370.49 Q144.09 368.337 140.942 368.337 M150.224 353.684 L150.224 357.944 Q148.465 357.11 146.659 356.671 Q144.877 356.231 143.118 356.231 Q138.488 356.231 136.034 359.356 Q133.604 362.481 133.257 368.8 Q134.622 366.786 136.683 365.721 Q138.743 364.633 141.22 364.633 Q146.428 364.633 149.437 367.805 Q152.47 370.953 152.47 376.393 Q152.47 381.717 149.321 384.934 Q146.173 388.152 140.942 388.152 Q134.946 388.152 131.775 383.569 Q128.604 378.962 128.604 370.235 Q128.604 362.041 132.493 357.18 Q136.382 352.296 142.933 352.296 Q144.692 352.296 146.474 352.643 Q148.28 352.99 150.224 353.684 Z" fill="#000000" fill-rule="nonzero" fill-opacity="1" /><path clip-path="url(#clip690)" d="M160.571 352.921 L178.928 352.921 L178.928 356.856 L164.854 356.856 L164.854 365.328 Q165.872 364.981 166.891 364.819 Q167.909 364.633 168.928 364.633 Q174.715 364.633 178.094 367.805 Q181.474 370.976 181.474 376.393 Q181.474 381.971 178.002 385.073 Q174.53 388.152 168.21 388.152 Q166.034 388.152 163.766 387.781 Q161.52 387.411 159.113 386.67 L159.113 381.971 Q161.196 383.106 163.419 383.661 Q165.641 384.217 168.118 384.217 Q172.122 384.217 174.46 382.11 Q176.798 380.004 176.798 376.393 Q176.798 372.782 174.46 370.675 Q172.122 368.569 168.118 368.569 Q166.243 368.569 164.368 368.985 Q162.516 369.402 160.571 370.282 L160.571 352.921 Z" fill="#000000" fill-rule="nonzero" fill-opacity="1" /><path clip-path="url(#clip690)" d="M200.687 355.999 Q197.076 355.999 195.247 359.564 Q193.442 363.106 193.442 370.235 Q193.442 377.342 195.247 380.907 Q197.076 384.448 200.687 384.448 Q204.321 384.448 206.127 380.907 Q207.955 377.342 207.955 370.235 Q207.955 363.106 206.127 359.564 Q204.321 355.999 200.687 355.999 M200.687 352.296 Q206.497 352.296 209.553 356.902 Q212.631 361.485 212.631 370.235 Q212.631 378.962 209.553 383.569 Q206.497 388.152 200.687 388.152 Q194.877 388.152 191.798 383.569 Q188.742 378.962 188.742 370.235 Q188.742 361.485 191.798 356.902 Q194.877 352.296 200.687 352.296 Z" fill="#000000" fill-rule="nonzero" fill-opacity="1" /><path clip-path="url(#clip690)" d="M-15.4358 1314.42 L-15.4358 1274.22 L-10.025 1274.22 L-10.025 1291.09 L32.0842 1291.09 L32.0842 1297.55 L-10.025 1297.55 L-10.025 1314.42 L-15.4358 1314.42 Z" fill="#000000" fill-rule="nonzero" fill-opacity="1" /><path clip-path="url(#clip690)" d="M0.542081 1265.53 Q0.542081 1270.25 4.23419 1272.98 Q7.89447 1275.72 14.292 1275.72 Q20.6895 1275.72 24.3817 1273.01 Q28.0419 1270.28 28.0419 1265.53 Q28.0419 1260.86 24.3498 1258.12 Q20.6577 1255.38 14.292 1255.38 Q7.95813 1255.38 4.26602 1258.12 Q0.542081 1260.86 0.542081 1265.53 M-4.42317 1265.53 Q-4.42317 1257.9 0.542081 1253.54 Q5.50733 1249.17 14.292 1249.17 Q23.0449 1249.17 28.0419 1253.54 Q33.0072 1257.9 33.0072 1265.53 Q33.0072 1273.21 28.0419 1277.57 Q23.0449 1281.89 14.292 1281.89 Q5.50733 1281.89 0.542081 1277.57 Q-4.42317 1273.21 -4.42317 1265.53 Z" fill="#000000" fill-rule="nonzero" fill-opacity="1" /><path clip-path="url(#clip690)" d="M-13.6853 1233.67 L-3.5638 1233.67 L-3.5638 1221.61 L0.987681 1221.61 L0.987681 1233.67 L20.3394 1233.67 Q24.6999 1233.67 25.9413 1232.5 Q27.1826 1231.29 27.1826 1227.63 L27.1826 1221.61 L32.0842 1221.61 L32.0842 1227.63 Q32.0842 1234.41 29.5697 1236.98 Q27.0234 1239.56 20.3394 1239.56 L0.987681 1239.56 L0.987681 1243.86 L-3.5638 1243.86 L-3.5638 1239.56 L-13.6853 1239.56 L-13.6853 1233.67 Z" fill="#000000" fill-rule="nonzero" fill-opacity="1" /><path clip-path="url(#clip690)" d="M14.1647 1197.71 Q14.1647 1204.81 15.7879 1207.54 Q17.4112 1210.28 21.3261 1210.28 Q24.4453 1210.28 26.2914 1208.24 Q28.1056 1206.17 28.1056 1202.64 Q28.1056 1197.77 24.6681 1194.84 Q21.1988 1191.88 15.4697 1191.88 L14.1647 1191.88 L14.1647 1197.71 M11.7457 1186.03 L32.0842 1186.03 L32.0842 1191.88 L26.6733 1191.88 Q29.9198 1193.89 31.4794 1196.88 Q33.0072 1199.87 33.0072 1204.2 Q33.0072 1209.68 29.9516 1212.92 Q26.8643 1216.14 21.7081 1216.14 Q15.6925 1216.14 12.6369 1212.13 Q9.58138 1208.08 9.58138 1200.1 L9.58138 1191.88 L9.00847 1191.88 Q4.96625 1191.88 2.77008 1194.56 Q0.542081 1197.2 0.542081 1202 Q0.542081 1205.06 1.27414 1207.96 Q2.00619 1210.85 3.47031 1213.53 L-1.94054 1213.53 Q-3.18186 1210.31 -3.7866 1207.29 Q-4.42317 1204.26 -4.42317 1201.4 Q-4.42317 1193.67 -0.412775 1189.85 Q3.59762 1186.03 11.7457 1186.03 Z" fill="#000000" fill-rule="nonzero" fill-opacity="1" /><path clip-path="url(#clip690)" d="M-17.441 1173.96 L-17.441 1168.11 L32.0842 1168.11 L32.0842 1173.96 L-17.441 1173.96 Z" fill="#000000" fill-rule="nonzero" fill-opacity="1" /><path clip-path="url(#clip690)" d="M-15.4358 1134.88 L-15.4358 1128.45 L26.6733 1128.45 L26.6733 1105.31 L32.0842 1105.31 L32.0842 1134.88 L-15.4358 1134.88 Z" fill="#000000" fill-rule="nonzero" fill-opacity="1" /><path clip-path="url(#clip690)" d="M0.542081 1086.15 Q0.542081 1090.86 4.23419 1093.6 Q7.89447 1096.33 14.292 1096.33 Q20.6895 1096.33 24.3817 1093.63 Q28.0419 1090.89 28.0419 1086.15 Q28.0419 1081.47 24.3498 1078.73 Q20.6577 1076 14.292 1076 Q7.95813 1076 4.26602 1078.73 Q0.542081 1081.47 0.542081 1086.15 M-4.42317 1086.15 Q-4.42317 1078.51 0.542081 1074.15 Q5.50733 1069.79 14.292 1069.79 Q23.0449 1069.79 28.0419 1074.15 Q33.0072 1078.51 33.0072 1086.15 Q33.0072 1093.82 28.0419 1098.18 Q23.0449 1102.51 14.292 1102.51 Q5.50733 1102.51 0.542081 1098.18 Q-4.42317 1093.82 -4.42317 1086.15 Z" fill="#000000" fill-rule="nonzero" fill-opacity="1" /><path clip-path="url(#clip690)" d="M14.1647 1043.88 Q14.1647 1050.98 15.7879 1053.72 Q17.4112 1056.45 21.3261 1056.45 Q24.4453 1056.45 26.2914 1054.42 Q28.1056 1052.35 28.1056 1048.81 Q28.1056 1043.94 24.6681 1041.02 Q21.1988 1038.06 15.4697 1038.06 L14.1647 1038.06 L14.1647 1043.88 M11.7457 1032.2 L32.0842 1032.2 L32.0842 1038.06 L26.6733 1038.06 Q29.9198 1040.06 31.4794 1043.05 Q33.0072 1046.05 33.0072 1050.37 Q33.0072 1055.85 29.9516 1059.09 Q26.8643 1062.31 21.7081 1062.31 Q15.6925 1062.31 12.6369 1058.3 Q9.58138 1054.26 9.58138 1046.27 L9.58138 1038.06 L9.00847 1038.06 Q4.96625 1038.06 2.77008 1040.73 Q0.542081 1043.37 0.542081 1048.18 Q0.542081 1051.23 1.27414 1054.13 Q2.00619 1057.03 3.47031 1059.7 L-1.94054 1059.7 Q-3.18186 1056.48 -3.7866 1053.46 Q-4.42317 1050.44 -4.42317 1047.57 Q-4.42317 1039.84 -0.412775 1036.02 Q3.59762 1032.2 11.7457 1032.2 Z" fill="#000000" fill-rule="nonzero" fill-opacity="1" /><path clip-path="url(#clip690)" d="M1.84705 996.679 L-17.441 996.679 L-17.441 990.823 L32.0842 990.823 L32.0842 996.679 L26.737 996.679 Q29.9198 998.525 31.4794 1001.36 Q33.0072 1004.16 33.0072 1008.11 Q33.0072 1014.57 27.851 1018.64 Q22.6947 1022.68 14.292 1022.68 Q5.88927 1022.68 0.733052 1018.64 Q-4.42317 1014.57 -4.42317 1008.11 Q-4.42317 1004.16 -2.86357 1001.36 Q-1.3358 998.525 1.84705 996.679 M14.292 1016.64 Q20.7532 1016.64 24.4453 1013.99 Q28.1056 1011.32 28.1056 1006.67 Q28.1056 1002.03 24.4453 999.353 Q20.7532 996.679 14.292 996.679 Q7.83082 996.679 4.17053 999.353 Q0.478424 1002.03 0.478424 1006.67 Q0.478424 1011.32 4.17053 1013.99 Q7.83082 1016.64 14.292 1016.64 Z" fill="#000000" fill-rule="nonzero" fill-opacity="1" /><path clip-path="url(#clip690)" d="M-13.8762 929.298 L-7.60602 929.298 Q-9.35659 932.958 -10.216 936.205 Q-11.0753 939.451 -11.0753 942.475 Q-11.0753 947.727 -9.03831 950.591 Q-7.00128 953.424 -3.24551 953.424 Q-0.0944895 953.424 1.52877 951.546 Q3.12019 949.637 4.10688 944.353 L4.90259 940.47 Q6.27122 933.277 9.74053 929.871 Q13.178 926.434 18.9708 926.434 Q25.8776 926.434 29.4424 931.08 Q33.0072 935.696 33.0072 944.639 Q33.0072 948.013 32.2433 951.833 Q31.4794 955.62 29.9835 959.694 L23.3631 959.694 Q25.5593 955.779 26.6733 952.024 Q27.7873 948.268 27.7873 944.639 Q27.7873 939.133 25.623 936.141 Q23.4586 933.149 19.4482 933.149 Q15.9471 933.149 13.9737 935.314 Q12.0004 937.446 11.0137 942.348 L10.2498 946.263 Q8.8175 953.456 5.76196 956.671 Q2.70642 959.885 -2.73626 959.885 Q-9.03831 959.885 -12.6668 955.461 Q-16.2952 951.005 -16.2952 943.207 Q-16.2952 939.865 -15.6905 936.396 Q-15.0857 932.927 -13.8762 929.298 Z" fill="#000000" fill-rule="nonzero" fill-opacity="1" /><path clip-path="url(#clip690)" d="M10.5681 887.03 L32.0842 887.03 L32.0842 892.886 L10.759 892.886 Q5.6983 892.886 3.18385 894.86 Q0.669395 896.833 0.669395 900.78 Q0.669395 905.522 3.69311 908.259 Q6.71682 910.997 11.9367 910.997 L32.0842 910.997 L32.0842 916.885 L-17.441 916.885 L-17.441 910.997 L1.97437 910.997 Q-1.24032 908.896 -2.83174 906.063 Q-4.42317 903.199 -4.42317 899.475 Q-4.42317 893.332 -0.603746 890.181 Q3.18385 887.03 10.5681 887.03 Z" fill="#000000" fill-rule="nonzero" fill-opacity="1" /><path clip-path="url(#clip690)" d="M12.7961 844.857 L15.6606 844.857 L15.6606 871.784 Q21.7081 871.402 24.8909 868.155 Q28.0419 864.877 28.0419 859.053 Q28.0419 855.679 27.2144 852.528 Q26.3869 849.345 24.7318 846.226 L30.2699 846.226 Q31.6067 849.377 32.307 852.687 Q33.0072 855.997 33.0072 859.403 Q33.0072 867.933 28.0419 872.93 Q23.0767 877.895 14.6103 877.895 Q5.85745 877.895 0.733052 873.184 Q-4.42317 868.442 -4.42317 860.421 Q-4.42317 853.228 0.223796 849.058 Q4.83893 844.857 12.7961 844.857 M11.0773 850.713 Q6.27122 850.777 3.40665 853.419 Q0.542081 856.029 0.542081 860.357 Q0.542081 865.259 3.31116 868.219 Q6.08025 871.147 11.1092 871.593 L11.0773 850.713 Z" fill="#000000" fill-rule="nonzero" fill-opacity="1" /><path clip-path="url(#clip690)" d="M1.84705 811.787 L-17.441 811.787 L-17.441 805.931 L32.0842 805.931 L32.0842 811.787 L26.737 811.787 Q29.9198 813.633 31.4794 816.466 Q33.0072 819.267 33.0072 823.214 Q33.0072 829.675 27.851 833.749 Q22.6947 837.791 14.292 837.791 Q5.88927 837.791 0.733052 833.749 Q-4.42317 829.675 -4.42317 823.214 Q-4.42317 819.267 -2.86357 816.466 Q-1.3358 813.633 1.84705 811.787 M14.292 831.744 Q20.7532 831.744 24.4453 829.102 Q28.1056 826.428 28.1056 821.781 Q28.1056 817.134 24.4453 814.461 Q20.7532 811.787 14.292 811.787 Q7.83082 811.787 4.17053 814.461 Q0.478424 817.134 0.478424 821.781 Q0.478424 826.428 4.17053 829.102 Q7.83082 831.744 14.292 831.744 Z" fill="#000000" fill-rule="nonzero" fill-opacity="1" /><path clip-path="url(#clip690)" d="M-17.3774 759.079 Q-10.0568 763.344 -2.8954 765.413 Q4.26602 767.482 11.6184 767.482 Q18.9708 767.482 26.1959 765.413 Q33.3891 763.312 40.6779 759.079 L40.6779 764.172 Q33.1982 768.946 25.9731 771.333 Q18.748 773.688 11.6184 773.688 Q4.52065 773.688 -2.6726 771.333 Q-9.86585 768.978 -17.3774 764.172 L-17.3774 759.079 Z" fill="#000000" fill-rule="nonzero" fill-opacity="1" /><path clip-path="url(#clip690)" d="M-17.441 747.939 L-17.441 742.051 L11.8094 742.051 L-3.5638 724.577 L-3.5638 717.097 L13.1144 736.003 L32.0842 716.302 L32.0842 723.94 L14.6739 742.051 L32.0842 742.051 L32.0842 747.939 L-17.441 747.939 Z" fill="#000000" fill-rule="nonzero" fill-opacity="1" /><path clip-path="url(#clip690)" d="M-15.4358 713.946 L-15.4358 707.453 L24.7318 697.459 L-15.4358 687.497 L-15.4358 680.272 L24.7318 670.277 L-15.4358 660.315 L-15.4358 653.79 L32.0842 665.726 L32.0842 673.81 L-9.16562 683.836 L32.0842 693.958 L32.0842 702.042 L-15.4358 713.946 Z" fill="#000000" fill-rule="nonzero" fill-opacity="1" /><path clip-path="url(#clip690)" d="M-17.3774 646.438 L-17.3774 641.345 Q-9.86585 636.571 -2.6726 634.216 Q4.52065 631.829 11.6184 631.829 Q18.748 631.829 25.9731 634.216 Q33.1982 636.571 40.6779 641.345 L40.6779 646.438 Q33.3891 642.205 26.1959 640.136 Q18.9708 638.035 11.6184 638.035 Q4.26602 638.035 -2.8954 640.136 Q-10.0568 642.205 -17.3774 646.438 Z" fill="#000000" fill-rule="nonzero" fill-opacity="1" /><path clip-path="url(#clip690)" d="M840.371 12.096 L891.534 12.096 L891.534 18.9825 L870.065 18.9825 L870.065 72.576 L861.841 72.576 L861.841 18.9825 L840.371 18.9825 L840.371 12.096 Z" fill="#000000" fill-rule="nonzero" fill-opacity="1" /><path clip-path="url(#clip690)" d="M902.593 32.4315 Q896.598 32.4315 893.114 37.1306 Q889.63 41.7891 889.63 49.9314 Q889.63 58.0738 893.074 62.7728 Q896.557 67.4314 902.593 67.4314 Q908.548 67.4314 912.032 62.7323 Q915.516 58.0333 915.516 49.9314 Q915.516 41.8701 912.032 37.1711 Q908.548 32.4315 902.593 32.4315 M902.593 26.1121 Q912.315 26.1121 917.865 32.4315 Q923.415 38.7509 923.415 49.9314 Q923.415 61.0714 917.865 67.4314 Q912.315 73.7508 902.593 73.7508 Q892.831 73.7508 887.281 67.4314 Q881.772 61.0714 881.772 49.9314 Q881.772 38.7509 887.281 32.4315 Q892.831 26.1121 902.593 26.1121 Z" fill="#000000" fill-rule="nonzero" fill-opacity="1" /><path clip-path="url(#clip690)" d="M943.143 14.324 L943.143 27.2059 L958.496 27.2059 L958.496 32.9987 L943.143 32.9987 L943.143 57.6282 Q943.143 63.1779 944.642 64.7578 Q946.181 66.3376 950.84 66.3376 L958.496 66.3376 L958.496 72.576 L950.84 72.576 Q942.211 72.576 938.93 69.3758 Q935.649 66.1351 935.649 57.6282 L935.649 32.9987 L930.18 32.9987 L930.18 27.2059 L935.649 27.2059 L935.649 14.324 L943.143 14.324 Z" fill="#000000" fill-rule="nonzero" fill-opacity="1" /><path clip-path="url(#clip690)" d="M988.918 49.7694 Q979.885 49.7694 976.401 51.8354 Q972.917 53.9013 972.917 58.8839 Q972.917 62.8538 975.51 65.2034 Q978.143 67.5124 982.639 67.5124 Q988.837 67.5124 992.564 63.1374 Q996.331 58.7219 996.331 51.4303 L996.331 49.7694 L988.918 49.7694 M1003.78 46.6907 L1003.78 72.576 L996.331 72.576 L996.331 65.6895 Q993.779 69.8214 989.971 71.8063 Q986.163 73.7508 980.654 73.7508 Q973.687 73.7508 969.555 69.8619 Q965.463 65.9325 965.463 59.3701 Q965.463 51.7138 970.567 47.825 Q975.712 43.9361 985.88 43.9361 L996.331 43.9361 L996.331 43.2069 Q996.331 38.0623 992.928 35.2672 Q989.566 32.4315 983.449 32.4315 Q979.56 32.4315 975.874 33.3632 Q972.188 34.295 968.785 36.1584 L968.785 29.2718 Q972.876 27.692 976.725 26.9223 Q980.573 26.1121 984.219 26.1121 Q994.063 26.1121 998.924 31.2163 Q1003.78 36.3204 1003.78 46.6907 Z" fill="#000000" fill-rule="nonzero" fill-opacity="1" /><path clip-path="url(#clip690)" d="M1019.14 9.54393 L1026.59 9.54393 L1026.59 72.576 L1019.14 72.576 L1019.14 9.54393 Z" fill="#000000" fill-rule="nonzero" fill-opacity="1" /><path clip-path="url(#clip690)" d="M1068.88 12.096 L1077.07 12.096 L1077.07 65.6895 L1106.52 65.6895 L1106.52 72.576 L1068.88 72.576 L1068.88 12.096 Z" fill="#000000" fill-rule="nonzero" fill-opacity="1" /><path clip-path="url(#clip690)" d="M1130.9 32.4315 Q1124.91 32.4315 1121.42 37.1306 Q1117.94 41.7891 1117.94 49.9314 Q1117.94 58.0738 1121.38 62.7728 Q1124.87 67.4314 1130.9 67.4314 Q1136.86 67.4314 1140.34 62.7323 Q1143.82 58.0333 1143.82 49.9314 Q1143.82 41.8701 1140.34 37.1711 Q1136.86 32.4315 1130.9 32.4315 M1130.9 26.1121 Q1140.62 26.1121 1146.17 32.4315 Q1151.72 38.7509 1151.72 49.9314 Q1151.72 61.0714 1146.17 67.4314 Q1140.62 73.7508 1130.9 73.7508 Q1121.14 73.7508 1115.59 67.4314 Q1110.08 61.0714 1110.08 49.9314 Q1110.08 38.7509 1115.59 32.4315 Q1121.14 26.1121 1130.9 26.1121 Z" fill="#000000" fill-rule="nonzero" fill-opacity="1" /><path clip-path="url(#clip690)" d="M1184.7 49.7694 Q1175.66 49.7694 1172.18 51.8354 Q1168.7 53.9013 1168.7 58.8839 Q1168.7 62.8538 1171.29 65.2034 Q1173.92 67.5124 1178.42 67.5124 Q1184.62 67.5124 1188.34 63.1374 Q1192.11 58.7219 1192.11 51.4303 L1192.11 49.7694 L1184.7 49.7694 M1199.57 46.6907 L1199.57 72.576 L1192.11 72.576 L1192.11 65.6895 Q1189.56 69.8214 1185.75 71.8063 Q1181.94 73.7508 1176.43 73.7508 Q1169.47 73.7508 1165.33 69.8619 Q1161.24 65.9325 1161.24 59.3701 Q1161.24 51.7138 1166.35 47.825 Q1171.49 43.9361 1181.66 43.9361 L1192.11 43.9361 L1192.11 43.2069 Q1192.11 38.0623 1188.71 35.2672 Q1185.35 32.4315 1179.23 32.4315 Q1175.34 32.4315 1171.65 33.3632 Q1167.97 34.295 1164.57 36.1584 L1164.57 29.2718 Q1168.66 27.692 1172.51 26.9223 Q1176.35 26.1121 1180 26.1121 Q1189.84 26.1121 1194.7 31.2163 Q1199.57 36.3204 1199.57 46.6907 Z" fill="#000000" fill-rule="nonzero" fill-opacity="1" /><path clip-path="url(#clip690)" d="M1244.77 34.0924 L1244.77 9.54393 L1252.23 9.54393 L1252.23 72.576 L1244.77 72.576 L1244.77 65.7705 Q1242.42 69.8214 1238.82 71.8063 Q1235.25 73.7508 1230.23 73.7508 Q1222.01 73.7508 1216.82 67.1883 Q1211.68 60.6258 1211.68 49.9314 Q1211.68 39.2371 1216.82 32.6746 Q1222.01 26.1121 1230.23 26.1121 Q1235.25 26.1121 1238.82 28.0971 Q1242.42 30.0415 1244.77 34.0924 M1219.37 49.9314 Q1219.37 58.1548 1222.74 62.8538 Q1226.14 67.5124 1232.05 67.5124 Q1237.97 67.5124 1241.37 62.8538 Q1244.77 58.1548 1244.77 49.9314 Q1244.77 41.7081 1241.37 37.0496 Q1237.97 32.3505 1232.05 32.3505 Q1226.14 32.3505 1222.74 37.0496 Q1219.37 41.7081 1219.37 49.9314 Z" fill="#000000" fill-rule="nonzero" fill-opacity="1" /><path clip-path="url(#clip690)" d="M1330.53 14.0809 L1330.53 22.0612 Q1325.87 19.8332 1321.74 18.7395 Q1317.61 17.6457 1313.76 17.6457 Q1307.08 17.6457 1303.43 20.2383 Q1299.82 22.8309 1299.82 27.611 Q1299.82 31.6214 1302.21 33.6873 Q1304.65 35.7128 1311.37 36.9686 L1316.31 37.9813 Q1325.47 39.7232 1329.8 44.1387 Q1334.18 48.5136 1334.18 55.8863 Q1334.18 64.6767 1328.26 69.2137 Q1322.39 73.7508 1311.01 73.7508 Q1306.71 73.7508 1301.85 72.7785 Q1297.03 71.8063 1291.84 69.9024 L1291.84 61.4765 Q1296.83 64.2716 1301.61 65.6895 Q1306.39 67.1073 1311.01 67.1073 Q1318.01 67.1073 1321.82 64.3527 Q1325.63 61.598 1325.63 56.4939 Q1325.63 52.0379 1322.87 49.5264 Q1320.16 47.0148 1313.92 45.759 L1308.94 44.7868 Q1299.78 42.9639 1295.69 39.075 Q1291.6 35.1862 1291.6 28.2591 Q1291.6 20.2383 1297.23 15.6203 Q1302.9 11.0023 1312.83 11.0023 Q1317.08 11.0023 1321.5 11.7719 Q1325.91 12.5416 1330.53 14.0809 Z" fill="#000000" fill-rule="nonzero" fill-opacity="1" /><path clip-path="url(#clip690)" d="M1384.33 45.1919 L1384.33 72.576 L1376.87 72.576 L1376.87 45.4349 Q1376.87 38.994 1374.36 35.7938 Q1371.85 32.5936 1366.83 32.5936 Q1360.79 32.5936 1357.31 36.4419 Q1353.82 40.2903 1353.82 46.9338 L1353.82 72.576 L1346.33 72.576 L1346.33 9.54393 L1353.82 9.54393 L1353.82 34.2544 Q1356.5 30.163 1360.1 28.1376 Q1363.75 26.1121 1368.49 26.1121 Q1376.31 26.1121 1380.32 30.9732 Q1384.33 35.7938 1384.33 45.1919 Z" fill="#000000" fill-rule="nonzero" fill-opacity="1" /><path clip-path="url(#clip690)" d="M1438 48.0275 L1438 51.6733 L1403.73 51.6733 Q1404.22 59.3701 1408.35 63.421 Q1412.52 67.4314 1419.93 67.4314 Q1424.23 67.4314 1428.24 66.3781 Q1432.29 65.3249 1436.26 63.2184 L1436.26 70.267 Q1432.25 71.9684 1428.04 72.8596 Q1423.82 73.7508 1419.49 73.7508 Q1408.63 73.7508 1402.27 67.4314 Q1395.95 61.1119 1395.95 50.3365 Q1395.95 39.1965 1401.95 32.6746 Q1407.98 26.1121 1418.19 26.1121 Q1427.35 26.1121 1432.65 32.0264 Q1438 37.9003 1438 48.0275 M1430.55 45.84 Q1430.47 39.7232 1427.1 36.0774 Q1423.78 32.4315 1418.27 32.4315 Q1412.04 32.4315 1408.27 35.9558 Q1404.54 39.4801 1403.97 45.8805 L1430.55 45.84 Z" fill="#000000" fill-rule="nonzero" fill-opacity="1" /><path clip-path="url(#clip690)" d="M1480.09 34.0924 L1480.09 9.54393 L1487.54 9.54393 L1487.54 72.576 L1480.09 72.576 L1480.09 65.7705 Q1477.74 69.8214 1474.14 71.8063 Q1470.57 73.7508 1465.55 73.7508 Q1457.32 73.7508 1452.14 67.1883 Q1446.99 60.6258 1446.99 49.9314 Q1446.99 39.2371 1452.14 32.6746 Q1457.32 26.1121 1465.55 26.1121 Q1470.57 26.1121 1474.14 28.0971 Q1477.74 30.0415 1480.09 34.0924 M1454.69 49.9314 Q1454.69 58.1548 1458.05 62.8538 Q1461.46 67.5124 1467.37 67.5124 Q1473.28 67.5124 1476.69 62.8538 Q1480.09 58.1548 1480.09 49.9314 Q1480.09 41.7081 1476.69 37.0496 Q1473.28 32.3505 1467.37 32.3505 Q1461.46 32.3505 1458.05 37.0496 Q1454.69 41.7081 1454.69 49.9314 Z" fill="#000000" fill-rule="nonzero" fill-opacity="1" /><path clip-path="url(#clip690)" d="M1523.92 27.2059 L1531.82 27.2059 L1546 65.2844 L1560.18 27.2059 L1568.08 27.2059 L1551.06 72.576 L1540.93 72.576 L1523.92 27.2059 Z" fill="#000000" fill-rule="nonzero" fill-opacity="1" /><path clip-path="url(#clip690)" d="M1607.29 28.5427 L1607.29 35.5912 Q1604.13 33.9709 1600.73 33.1607 Q1597.32 32.3505 1593.68 32.3505 Q1588.13 32.3505 1585.33 34.0519 Q1582.58 35.7533 1582.58 39.156 Q1582.58 41.7486 1584.56 43.2475 Q1586.55 44.7058 1592.54 46.0426 L1595.1 46.6097 Q1603.04 48.3111 1606.36 51.4303 Q1609.72 54.509 1609.72 60.0587 Q1609.72 66.3781 1604.7 70.0644 Q1599.71 73.7508 1590.96 73.7508 Q1587.32 73.7508 1583.35 73.0216 Q1579.42 72.3329 1575.04 70.9151 L1575.04 63.2184 Q1579.18 65.3654 1583.19 66.4591 Q1587.2 67.5124 1591.13 67.5124 Q1596.39 67.5124 1599.23 65.73 Q1602.06 63.9071 1602.06 60.6258 Q1602.06 57.5877 1600 55.9673 Q1597.97 54.3469 1591.04 52.8481 L1588.45 52.2405 Q1581.52 50.7821 1578.45 47.7845 Q1575.37 44.7463 1575.37 39.4801 Q1575.37 33.0797 1579.9 29.5959 Q1584.44 26.1121 1592.79 26.1121 Q1596.92 26.1121 1600.56 26.7198 Q1604.21 27.3274 1607.29 28.5427 Z" fill="#000000" fill-rule="nonzero" fill-opacity="1" /><path clip-path="url(#clip690)" d="M1684.54 14.0809 L1684.54 22.0612 Q1679.88 19.8332 1675.75 18.7395 Q1671.62 17.6457 1667.77 17.6457 Q1661.08 17.6457 1657.44 20.2383 Q1653.83 22.8309 1653.83 27.611 Q1653.83 31.6214 1656.22 33.6873 Q1658.65 35.7128 1665.38 36.9686 L1670.32 37.9813 Q1679.48 39.7232 1683.81 44.1387 Q1688.19 48.5136 1688.19 55.8863 Q1688.19 64.6767 1682.27 69.2137 Q1676.4 73.7508 1665.01 73.7508 Q1660.72 73.7508 1655.86 72.7785 Q1651.04 71.8063 1645.85 69.9024 L1645.85 61.4765 Q1650.84 64.2716 1655.62 65.6895 Q1660.4 67.1073 1665.01 67.1073 Q1672.02 67.1073 1675.83 64.3527 Q1679.64 61.598 1679.64 56.4939 Q1679.64 52.0379 1676.88 49.5264 Q1674.17 47.0148 1667.93 45.759 L1662.95 44.7868 Q1653.79 42.9639 1649.7 39.075 Q1645.61 35.1862 1645.61 28.2591 Q1645.61 20.2383 1651.24 15.6203 Q1656.91 11.0023 1666.84 11.0023 Q1671.09 11.0023 1675.51 11.7719 Q1679.92 12.5416 1684.54 14.0809 Z" fill="#000000" fill-rule="nonzero" fill-opacity="1" /><path clip-path="url(#clip690)" d="M1718.2 32.4315 Q1712.21 32.4315 1708.72 37.1306 Q1705.24 41.7891 1705.24 49.9314 Q1705.24 58.0738 1708.68 62.7728 Q1712.17 67.4314 1718.2 67.4314 Q1724.16 67.4314 1727.64 62.7323 Q1731.12 58.0333 1731.12 49.9314 Q1731.12 41.8701 1727.64 37.1711 Q1724.16 32.4315 1718.2 32.4315 M1718.2 26.1121 Q1727.92 26.1121 1733.47 32.4315 Q1739.02 38.7509 1739.02 49.9314 Q1739.02 61.0714 1733.47 67.4314 Q1727.92 73.7508 1718.2 73.7508 Q1708.44 73.7508 1702.89 67.4314 Q1697.38 61.0714 1697.38 49.9314 Q1697.38 38.7509 1702.89 32.4315 Q1708.44 26.1121 1718.2 26.1121 Z" fill="#000000" fill-rule="nonzero" fill-opacity="1" /><path clip-path="url(#clip690)" d="M1750.61 54.671 L1750.61 27.2059 L1758.06 27.2059 L1758.06 54.3874 Q1758.06 60.8284 1760.57 64.0691 Q1763.09 67.2693 1768.11 67.2693 Q1774.15 67.2693 1777.63 63.421 Q1781.15 59.5726 1781.15 52.9291 L1781.15 27.2059 L1788.61 27.2059 L1788.61 72.576 L1781.15 72.576 L1781.15 65.6084 Q1778.44 69.7404 1774.83 71.7658 Q1771.27 73.7508 1766.53 73.7508 Q1758.71 73.7508 1754.66 68.8897 Q1750.61 64.0286 1750.61 54.671 M1769.37 26.1121 L1769.37 26.1121 Z" fill="#000000" fill-rule="nonzero" fill-opacity="1" /><path clip-path="url(#clip690)" d="M1830.25 34.1734 Q1828.99 33.4443 1827.5 33.1202 Q1826.04 32.7556 1824.26 32.7556 Q1817.94 32.7556 1814.53 36.8875 Q1811.17 40.9789 1811.17 48.6757 L1811.17 72.576 L1803.68 72.576 L1803.68 27.2059 L1811.17 27.2059 L1811.17 34.2544 Q1813.52 30.1225 1817.29 28.1376 Q1821.05 26.1121 1826.44 26.1121 Q1827.21 26.1121 1828.14 26.2337 Q1829.08 26.3147 1830.21 26.5172 L1830.25 34.1734 Z" fill="#000000" fill-rule="nonzero" fill-opacity="1" /><path clip-path="url(#clip690)" d="M1868.9 28.9478 L1868.9 35.9153 Q1865.74 34.1734 1862.54 33.3227 Q1859.38 32.4315 1856.14 32.4315 Q1848.88 32.4315 1844.87 37.0496 Q1840.86 41.6271 1840.86 49.9314 Q1840.86 58.2358 1844.87 62.8538 Q1848.88 67.4314 1856.14 67.4314 Q1859.38 67.4314 1862.54 66.5807 Q1865.74 65.6895 1868.9 63.9476 L1868.9 70.8341 Q1865.78 72.2924 1862.41 73.0216 Q1859.09 73.7508 1855.33 73.7508 Q1845.08 73.7508 1839.04 67.3098 Q1833 60.8689 1833 49.9314 Q1833 38.832 1839.08 32.472 Q1845.2 26.1121 1855.81 26.1121 Q1859.25 26.1121 1862.54 26.8413 Q1865.82 27.5299 1868.9 28.9478 Z" fill="#000000" fill-rule="nonzero" fill-opacity="1" /><path clip-path="url(#clip690)" d="M1920.67 48.0275 L1920.67 51.6733 L1886.4 51.6733 Q1886.88 59.3701 1891.01 63.421 Q1895.19 67.4314 1902.6 67.4314 Q1906.89 67.4314 1910.9 66.3781 Q1914.95 65.3249 1918.92 63.2184 L1918.92 70.267 Q1914.91 71.9684 1910.7 72.8596 Q1906.49 73.7508 1902.15 73.7508 Q1891.3 73.7508 1884.94 67.4314 Q1878.62 61.1119 1878.62 50.3365 Q1878.62 39.1965 1884.61 32.6746 Q1890.65 26.1121 1900.86 26.1121 Q1910.01 26.1121 1915.32 32.0264 Q1920.67 37.9003 1920.67 48.0275 M1913.21 45.84 Q1913.13 39.7232 1909.77 36.0774 Q1906.45 32.4315 1900.94 32.4315 Q1894.7 32.4315 1890.93 35.9558 Q1887.21 39.4801 1886.64 45.8805 L1913.21 45.84 Z" fill="#000000" fill-rule="nonzero" fill-opacity="1" /><path clip-path="url(#clip690)" d="M1975.19 72.576 L1952.1 12.096 L1960.65 12.096 L1979.81 63.0159 L1999.01 12.096 L2007.52 12.096 L1984.47 72.576 L1975.19 72.576 Z" fill="#000000" fill-rule="nonzero" fill-opacity="1" /><path clip-path="url(#clip690)" d="M2027.16 32.4315 Q2021.17 32.4315 2017.69 37.1306 Q2014.2 41.7891 2014.2 49.9314 Q2014.2 58.0738 2017.65 62.7728 Q2021.13 67.4314 2027.16 67.4314 Q2033.12 67.4314 2036.6 62.7323 Q2040.09 58.0333 2040.09 49.9314 Q2040.09 41.8701 2036.6 37.1711 Q2033.12 32.4315 2027.16 32.4315 M2027.16 26.1121 Q2036.89 26.1121 2042.44 32.4315 Q2047.99 38.7509 2047.99 49.9314 Q2047.99 61.0714 2042.44 67.4314 Q2036.89 73.7508 2027.16 73.7508 Q2017.4 73.7508 2011.85 67.4314 Q2006.34 61.0714 2006.34 49.9314 Q2006.34 38.7509 2011.85 32.4315 Q2017.4 26.1121 2027.16 26.1121 Z" fill="#000000" fill-rule="nonzero" fill-opacity="1" /><path clip-path="url(#clip690)" d="M2060.34 9.54393 L2067.8 9.54393 L2067.8 72.576 L2060.34 72.576 L2060.34 9.54393 Z" fill="#000000" fill-rule="nonzero" fill-opacity="1" /><path clip-path="url(#clip690)" d="M2090.76 14.324 L2090.76 27.2059 L2106.12 27.2059 L2106.12 32.9987 L2090.76 32.9987 L2090.76 57.6282 Q2090.76 63.1779 2092.26 64.7578 Q2093.8 66.3376 2098.46 66.3376 L2106.12 66.3376 L2106.12 72.576 L2098.46 72.576 Q2089.83 72.576 2086.55 69.3758 Q2083.27 66.1351 2083.27 57.6282 L2083.27 32.9987 L2077.8 32.9987 L2077.8 27.2059 L2083.27 27.2059 L2083.27 14.324 L2090.76 14.324 Z" fill="#000000" fill-rule="nonzero" fill-opacity="1" /><path clip-path="url(#clip690)" d="M2136.54 49.7694 Q2127.51 49.7694 2124.02 51.8354 Q2120.54 53.9013 2120.54 58.8839 Q2120.54 62.8538 2123.13 65.2034 Q2125.76 67.5124 2130.26 67.5124 Q2136.46 67.5124 2140.19 63.1374 Q2143.95 58.7219 2143.95 51.4303 L2143.95 49.7694 L2136.54 49.7694 M2151.41 46.6907 L2151.41 72.576 L2143.95 72.576 L2143.95 65.6895 Q2141.4 69.8214 2137.59 71.8063 Q2133.78 73.7508 2128.28 73.7508 Q2121.31 73.7508 2117.18 69.8619 Q2113.08 65.9325 2113.08 59.3701 Q2113.08 51.7138 2118.19 47.825 Q2123.33 43.9361 2133.5 43.9361 L2143.95 43.9361 L2143.95 43.2069 Q2143.95 38.0623 2140.55 35.2672 Q2137.19 32.4315 2131.07 32.4315 Q2127.18 32.4315 2123.5 33.3632 Q2119.81 34.295 2116.41 36.1584 L2116.41 29.2718 Q2120.5 27.692 2124.35 26.9223 Q2128.19 26.1121 2131.84 26.1121 Q2141.68 26.1121 2146.54 31.2163 Q2151.41 36.3204 2151.41 46.6907 Z" fill="#000000" fill-rule="nonzero" fill-opacity="1" /><path clip-path="url(#clip690)" d="M2196.61 49.3643 Q2196.61 41.2625 2193.25 36.8065 Q2189.93 32.3505 2183.89 32.3505 Q2177.9 32.3505 2174.54 36.8065 Q2171.21 41.2625 2171.21 49.3643 Q2171.21 57.4256 2174.54 61.8816 Q2177.9 66.3376 2183.89 66.3376 Q2189.93 66.3376 2193.25 61.8816 Q2196.61 57.4256 2196.61 49.3643 M2204.07 66.9452 Q2204.07 78.5308 2198.92 84.1616 Q2193.78 89.8329 2183.17 89.8329 Q2179.24 89.8329 2175.75 89.2252 Q2172.27 88.6581 2168.99 87.4428 L2168.99 80.1917 Q2172.27 81.9741 2175.47 82.8248 Q2178.67 83.6755 2181.99 83.6755 Q2189.32 83.6755 2192.97 79.8271 Q2196.61 76.0193 2196.61 68.282 L2196.61 64.5957 Q2194.31 68.6061 2190.7 70.5911 Q2187.09 72.576 2182.07 72.576 Q2173.73 72.576 2168.62 66.2161 Q2163.52 59.8562 2163.52 49.3643 Q2163.52 38.832 2168.62 32.472 Q2173.73 26.1121 2182.07 26.1121 Q2187.09 26.1121 2190.7 28.0971 Q2194.31 30.082 2196.61 34.0924 L2196.61 27.2059 L2204.07 27.2059 L2204.07 66.9452 Z" fill="#000000" fill-rule="nonzero" fill-opacity="1" /><path clip-path="url(#clip690)" d="M2258.23 48.0275 L2258.23 51.6733 L2223.96 51.6733 Q2224.44 59.3701 2228.58 63.421 Q2232.75 67.4314 2240.16 67.4314 Q2244.46 67.4314 2248.47 66.3781 Q2252.52 65.3249 2256.49 63.2184 L2256.49 70.267 Q2252.48 71.9684 2248.26 72.8596 Q2244.05 73.7508 2239.72 73.7508 Q2228.86 73.7508 2222.5 67.4314 Q2216.18 61.1119 2216.18 50.3365 Q2216.18 39.1965 2222.18 32.6746 Q2228.21 26.1121 2238.42 26.1121 Q2247.57 26.1121 2252.88 32.0264 Q2258.23 37.9003 2258.23 48.0275 M2250.77 45.84 Q2250.69 39.7232 2247.33 36.0774 Q2244.01 32.4315 2238.5 32.4315 Q2232.26 32.4315 2228.49 35.9558 Q2224.77 39.4801 2224.2 45.8805 L2250.77 45.84 Z" fill="#000000" fill-rule="nonzero" fill-opacity="1" /><polyline clip-path="url(#clip692)" style="stroke:#008000; stroke-linecap:round; stroke-linejoin:round; stroke-width:8; stroke-opacity:1; fill:none" points="339.235,1784.2 944.268,1784.2 1246.78,1784.2 1549.3,1784.2 1851.82,1784.2 2154.33,1784.2 2759.36,1784.2 "/>
<circle clip-path="url(#clip692)" cx="339.235" cy="1784.2" r="14.4" fill="#008000" fill-rule="evenodd" fill-opacity="1" stroke="#000000" stroke-opacity="1" stroke-width="4"/>
<circle clip-path="url(#clip692)" cx="944.268" cy="1784.2" r="14.4" fill="#008000" fill-rule="evenodd" fill-opacity="1" stroke="#000000" stroke-opacity="1" stroke-width="4"/>
<circle clip-path="url(#clip692)" cx="1246.78" cy="1784.2" r="14.4" fill="#008000" fill-rule="evenodd" fill-opacity="1" stroke="#000000" stroke-opacity="1" stroke-width="4"/>
<circle clip-path="url(#clip692)" cx="1549.3" cy="1784.2" r="14.4" fill="#008000" fill-rule="evenodd" fill-opacity="1" stroke="#000000" stroke-opacity="1" stroke-width="4"/>
<circle clip-path="url(#clip692)" cx="1851.82" cy="1784.2" r="14.4" fill="#008000" fill-rule="evenodd" fill-opacity="1" stroke="#000000" stroke-opacity="1" stroke-width="4"/>
<circle clip-path="url(#clip692)" cx="2154.33" cy="1784.2" r="14.4" fill="#008000" fill-rule="evenodd" fill-opacity="1" stroke="#000000" stroke-opacity="1" stroke-width="4"/>
<circle clip-path="url(#clip692)" cx="2759.36" cy="1784.2" r="14.4" fill="#008000" fill-rule="evenodd" fill-opacity="1" stroke="#000000" stroke-opacity="1" stroke-width="4"/>
<polyline clip-path="url(#clip692)" style="stroke:#0000ff; stroke-linecap:round; stroke-linejoin:round; stroke-width:8; stroke-opacity:1; fill:none" points="339.235,1658.74 944.268,1658.74 1246.78,1658.74 1549.3,1658.74 1851.82,1658.74 2154.33,1658.74 2759.36,1658.74 "/>
<circle clip-path="url(#clip692)" cx="339.235" cy="1658.74" r="14.4" fill="#0000ff" fill-rule="evenodd" fill-opacity="1" stroke="#000000" stroke-opacity="1" stroke-width="4"/>
<circle clip-path="url(#clip692)" cx="944.268" cy="1658.74" r="14.4" fill="#0000ff" fill-rule="evenodd" fill-opacity="1" stroke="#000000" stroke-opacity="1" stroke-width="4"/>
<circle clip-path="url(#clip692)" cx="1246.78" cy="1658.74" r="14.4" fill="#0000ff" fill-rule="evenodd" fill-opacity="1" stroke="#000000" stroke-opacity="1" stroke-width="4"/>
<circle clip-path="url(#clip692)" cx="1549.3" cy="1658.74" r="14.4" fill="#0000ff" fill-rule="evenodd" fill-opacity="1" stroke="#000000" stroke-opacity="1" stroke-width="4"/>
<circle clip-path="url(#clip692)" cx="1851.82" cy="1658.74" r="14.4" fill="#0000ff" fill-rule="evenodd" fill-opacity="1" stroke="#000000" stroke-opacity="1" stroke-width="4"/>
<circle clip-path="url(#clip692)" cx="2154.33" cy="1658.74" r="14.4" fill="#0000ff" fill-rule="evenodd" fill-opacity="1" stroke="#000000" stroke-opacity="1" stroke-width="4"/>
<circle clip-path="url(#clip692)" cx="2759.36" cy="1658.74" r="14.4" fill="#0000ff" fill-rule="evenodd" fill-opacity="1" stroke="#000000" stroke-opacity="1" stroke-width="4"/>
<polyline clip-path="url(#clip692)" style="stroke:#ff0000; stroke-linecap:round; stroke-linejoin:round; stroke-width:8; stroke-opacity:1; fill:none" points="339.235,162.056 944.268,162.056 1246.78,162.056 1549.3,162.056 1851.82,162.056 2154.33,162.056 2759.36,162.056 "/>
<circle clip-path="url(#clip692)" cx="339.235" cy="162.056" r="14.4" fill="#ff0000" fill-rule="evenodd" fill-opacity="1" stroke="#000000" stroke-opacity="1" stroke-width="4"/>
<circle clip-path="url(#clip692)" cx="944.268" cy="162.056" r="14.4" fill="#ff0000" fill-rule="evenodd" fill-opacity="1" stroke="#000000" stroke-opacity="1" stroke-width="4"/>
<circle clip-path="url(#clip692)" cx="1246.78" cy="162.056" r="14.4" fill="#ff0000" fill-rule="evenodd" fill-opacity="1" stroke="#000000" stroke-opacity="1" stroke-width="4"/>
<circle clip-path="url(#clip692)" cx="1549.3" cy="162.056" r="14.4" fill="#ff0000" fill-rule="evenodd" fill-opacity="1" stroke="#000000" stroke-opacity="1" stroke-width="4"/>
<circle clip-path="url(#clip692)" cx="1851.82" cy="162.056" r="14.4" fill="#ff0000" fill-rule="evenodd" fill-opacity="1" stroke="#000000" stroke-opacity="1" stroke-width="4"/>
<circle clip-path="url(#clip692)" cx="2154.33" cy="162.056" r="14.4" fill="#ff0000" fill-rule="evenodd" fill-opacity="1" stroke="#000000" stroke-opacity="1" stroke-width="4"/>
<circle clip-path="url(#clip692)" cx="2759.36" cy="162.056" r="14.4" fill="#ff0000" fill-rule="evenodd" fill-opacity="1" stroke="#000000" stroke-opacity="1" stroke-width="4"/>
<polyline clip-path="url(#clip692)" style="stroke:#ffa500; stroke-linecap:round; stroke-linejoin:round; stroke-width:8; stroke-opacity:1; fill:none" points="339.235,1696.54 944.268,1696.54 1246.78,1696.54 1549.3,1696.54 1851.82,1696.54 2154.33,1696.54 2759.36,1696.54 "/>
<circle clip-path="url(#clip692)" cx="339.235" cy="1696.54" r="14.4" fill="#ffa500" fill-rule="evenodd" fill-opacity="1" stroke="#000000" stroke-opacity="1" stroke-width="4"/>
<circle clip-path="url(#clip692)" cx="944.268" cy="1696.54" r="14.4" fill="#ffa500" fill-rule="evenodd" fill-opacity="1" stroke="#000000" stroke-opacity="1" stroke-width="4"/>
<circle clip-path="url(#clip692)" cx="1246.78" cy="1696.54" r="14.4" fill="#ffa500" fill-rule="evenodd" fill-opacity="1" stroke="#000000" stroke-opacity="1" stroke-width="4"/>
<circle clip-path="url(#clip692)" cx="1549.3" cy="1696.54" r="14.4" fill="#ffa500" fill-rule="evenodd" fill-opacity="1" stroke="#000000" stroke-opacity="1" stroke-width="4"/>
<circle clip-path="url(#clip692)" cx="1851.82" cy="1696.54" r="14.4" fill="#ffa500" fill-rule="evenodd" fill-opacity="1" stroke="#000000" stroke-opacity="1" stroke-width="4"/>
<circle clip-path="url(#clip692)" cx="2154.33" cy="1696.54" r="14.4" fill="#ffa500" fill-rule="evenodd" fill-opacity="1" stroke="#000000" stroke-opacity="1" stroke-width="4"/>
<circle clip-path="url(#clip692)" cx="2759.36" cy="1696.54" r="14.4" fill="#ffa500" fill-rule="evenodd" fill-opacity="1" stroke="#000000" stroke-opacity="1" stroke-width="4"/>
<polyline clip-path="url(#clip692)" style="stroke:#800080; stroke-linecap:round; stroke-linejoin:round; stroke-width:8; stroke-opacity:1; fill:none" points="339.235,1697.99 944.268,1697.99 1246.78,1697.99 1549.3,1697.99 1851.82,1697.99 2154.33,1697.99 2759.36,1697.99 "/>
<circle clip-path="url(#clip692)" cx="339.235" cy="1697.99" r="14.4" fill="#800080" fill-rule="evenodd" fill-opacity="1" stroke="#000000" stroke-opacity="1" stroke-width="4"/>
<circle clip-path="url(#clip692)" cx="944.268" cy="1697.99" r="14.4" fill="#800080" fill-rule="evenodd" fill-opacity="1" stroke="#000000" stroke-opacity="1" stroke-width="4"/>
<circle clip-path="url(#clip692)" cx="1246.78" cy="1697.99" r="14.4" fill="#800080" fill-rule="evenodd" fill-opacity="1" stroke="#000000" stroke-opacity="1" stroke-width="4"/>
<circle clip-path="url(#clip692)" cx="1549.3" cy="1697.99" r="14.4" fill="#800080" fill-rule="evenodd" fill-opacity="1" stroke="#000000" stroke-opacity="1" stroke-width="4"/>
<circle clip-path="url(#clip692)" cx="1851.82" cy="1697.99" r="14.4" fill="#800080" fill-rule="evenodd" fill-opacity="1" stroke="#000000" stroke-opacity="1" stroke-width="4"/>
<circle clip-path="url(#clip692)" cx="2154.33" cy="1697.99" r="14.4" fill="#800080" fill-rule="evenodd" fill-opacity="1" stroke="#000000" stroke-opacity="1" stroke-width="4"/>
<circle clip-path="url(#clip692)" cx="2759.36" cy="1697.99" r="14.4" fill="#800080" fill-rule="evenodd" fill-opacity="1" stroke="#000000" stroke-opacity="1" stroke-width="4"/>
<path clip-path="url(#clip690)" d="M2941.51 481.748 L3552.76 481.748 L3552.76 170.708 L2941.51 170.708  Z" fill="#ffffff" fill-rule="evenodd" fill-opacity="1"/>
<polyline clip-path="url(#clip690)" style="stroke:#000000; stroke-linecap:round; stroke-linejoin:round; stroke-width:4; stroke-opacity:1; fill:none" points="2941.51,481.748 3552.76,481.748 3552.76,170.708 2941.51,170.708 2941.51,481.748 "/>
<polyline clip-path="url(#clip690)" style="stroke:#008000; stroke-linecap:round; stroke-linejoin:round; stroke-width:8; stroke-opacity:1; fill:none" points="2978.02,222.548 3197.09,222.548 "/>
<circle clip-path="url(#clip690)" cx="3087.56" cy="222.548" r="20.48" fill="#008000" fill-rule="evenodd" fill-opacity="1" stroke="#000000" stroke-opacity="1" stroke-width="5.68889"/>
<path clip-path="url(#clip690)" d="M3238.28 209.11 L3238.28 222.096 L3244.16 222.096 Q3247.43 222.096 3249.21 220.407 Q3250.99 218.717 3250.99 215.592 Q3250.99 212.49 3249.21 210.8 Q3247.43 209.11 3244.16 209.11 L3238.28 209.11 M3233.61 205.268 L3244.16 205.268 Q3249.97 205.268 3252.93 207.907 Q3255.92 210.522 3255.92 215.592 Q3255.92 220.707 3252.93 223.323 Q3249.97 225.939 3244.16 225.939 L3238.28 225.939 L3238.28 239.828 L3233.61 239.828 L3233.61 205.268 Z" fill="#000000" fill-rule="nonzero" fill-opacity="1" /><path clip-path="url(#clip690)" d="M3276.2 217.883 Q3275.48 217.467 3274.62 217.282 Q3273.79 217.073 3272.77 217.073 Q3269.16 217.073 3267.22 219.434 Q3265.3 221.772 3265.3 226.17 L3265.3 239.828 L3261.01 239.828 L3261.01 213.902 L3265.3 213.902 L3265.3 217.93 Q3266.64 215.569 3268.79 214.434 Q3270.94 213.277 3274.02 213.277 Q3274.46 213.277 3274.99 213.346 Q3275.53 213.393 3276.18 213.508 L3276.2 217.883 Z" fill="#000000" fill-rule="nonzero" fill-opacity="1" /><path clip-path="url(#clip690)" d="M3289.67 216.888 Q3286.24 216.888 3284.25 219.573 Q3282.26 222.235 3282.26 226.888 Q3282.26 231.541 3284.23 234.226 Q3286.22 236.888 3289.67 236.888 Q3293.07 236.888 3295.06 234.203 Q3297.05 231.518 3297.05 226.888 Q3297.05 222.282 3295.06 219.596 Q3293.07 216.888 3289.67 216.888 M3289.67 213.277 Q3295.23 213.277 3298.4 216.888 Q3301.57 220.499 3301.57 226.888 Q3301.57 233.254 3298.4 236.888 Q3295.23 240.499 3289.67 240.499 Q3284.09 240.499 3280.92 236.888 Q3277.77 233.254 3277.77 226.888 Q3277.77 220.499 3280.92 216.888 Q3284.09 213.277 3289.67 213.277 Z" fill="#000000" fill-rule="nonzero" fill-opacity="1" /><path clip-path="url(#clip690)" d="M3312.75 235.939 L3312.75 249.689 L3308.47 249.689 L3308.47 213.902 L3312.75 213.902 L3312.75 217.837 Q3314.09 215.522 3316.13 214.411 Q3318.19 213.277 3321.04 213.277 Q3325.76 213.277 3328.7 217.027 Q3331.66 220.777 3331.66 226.888 Q3331.66 232.999 3328.7 236.749 Q3325.76 240.499 3321.04 240.499 Q3318.19 240.499 3316.13 239.388 Q3314.09 238.254 3312.75 235.939 M3327.24 226.888 Q3327.24 222.189 3325.3 219.527 Q3323.37 216.842 3319.99 216.842 Q3316.61 216.842 3314.67 219.527 Q3312.75 222.189 3312.75 226.888 Q3312.75 231.587 3314.67 234.272 Q3316.61 236.934 3319.99 236.934 Q3323.37 236.934 3325.3 234.272 Q3327.24 231.587 3327.24 226.888 Z" fill="#000000" fill-rule="nonzero" fill-opacity="1" /><path clip-path="url(#clip690)" d="M3348.77 216.888 Q3345.34 216.888 3343.35 219.573 Q3341.36 222.235 3341.36 226.888 Q3341.36 231.541 3343.33 234.226 Q3345.32 236.888 3348.77 236.888 Q3352.17 236.888 3354.16 234.203 Q3356.15 231.518 3356.15 226.888 Q3356.15 222.282 3354.16 219.596 Q3352.17 216.888 3348.77 216.888 M3348.77 213.277 Q3354.32 213.277 3357.49 216.888 Q3360.67 220.499 3360.67 226.888 Q3360.67 233.254 3357.49 236.888 Q3354.32 240.499 3348.77 240.499 Q3343.19 240.499 3340.02 236.888 Q3336.87 233.254 3336.87 226.888 Q3336.87 220.499 3340.02 216.888 Q3343.19 213.277 3348.77 213.277 Z" fill="#000000" fill-rule="nonzero" fill-opacity="1" /><path clip-path="url(#clip690)" d="M3382.75 217.883 Q3382.03 217.467 3381.17 217.282 Q3380.34 217.073 3379.32 217.073 Q3375.71 217.073 3373.77 219.434 Q3371.85 221.772 3371.85 226.17 L3371.85 239.828 L3367.56 239.828 L3367.56 213.902 L3371.85 213.902 L3371.85 217.93 Q3373.19 215.569 3375.34 214.434 Q3377.49 213.277 3380.57 213.277 Q3381.01 213.277 3381.55 213.346 Q3382.08 213.393 3382.73 213.508 L3382.75 217.883 Z" fill="#000000" fill-rule="nonzero" fill-opacity="1" /><path clip-path="url(#clip690)" d="M3391.43 206.541 L3391.43 213.902 L3400.2 213.902 L3400.2 217.212 L3391.43 217.212 L3391.43 231.286 Q3391.43 234.457 3392.29 235.36 Q3393.17 236.263 3395.83 236.263 L3400.2 236.263 L3400.2 239.828 L3395.83 239.828 Q3390.9 239.828 3389.02 237.999 Q3387.15 236.147 3387.15 231.286 L3387.15 217.212 L3384.02 217.212 L3384.02 213.902 L3387.15 213.902 L3387.15 206.541 L3391.43 206.541 Z" fill="#000000" fill-rule="nonzero" fill-opacity="1" /><path clip-path="url(#clip690)" d="M3405.8 213.902 L3410.06 213.902 L3410.06 239.828 L3405.8 239.828 L3405.8 213.902 M3405.8 203.809 L3410.06 203.809 L3410.06 209.203 L3405.8 209.203 L3405.8 203.809 Z" fill="#000000" fill-rule="nonzero" fill-opacity="1" /><path clip-path="url(#clip690)" d="M3429.02 216.888 Q3425.6 216.888 3423.61 219.573 Q3421.61 222.235 3421.61 226.888 Q3421.61 231.541 3423.58 234.226 Q3425.57 236.888 3429.02 236.888 Q3432.42 236.888 3434.42 234.203 Q3436.41 231.518 3436.41 226.888 Q3436.41 222.282 3434.42 219.596 Q3432.42 216.888 3429.02 216.888 M3429.02 213.277 Q3434.58 213.277 3437.75 216.888 Q3440.92 220.499 3440.92 226.888 Q3440.92 233.254 3437.75 236.888 Q3434.58 240.499 3429.02 240.499 Q3423.44 240.499 3420.27 236.888 Q3417.12 233.254 3417.12 226.888 Q3417.12 220.499 3420.27 216.888 Q3423.44 213.277 3429.02 213.277 Z" fill="#000000" fill-rule="nonzero" fill-opacity="1" /><path clip-path="url(#clip690)" d="M3469.53 224.18 L3469.53 239.828 L3465.27 239.828 L3465.27 224.319 Q3465.27 220.638 3463.84 218.809 Q3462.4 216.981 3459.53 216.981 Q3456.08 216.981 3454.09 219.18 Q3452.1 221.379 3452.1 225.175 L3452.1 239.828 L3447.82 239.828 L3447.82 213.902 L3452.1 213.902 L3452.1 217.93 Q3453.63 215.592 3455.69 214.434 Q3457.77 213.277 3460.48 213.277 Q3464.95 213.277 3467.24 216.055 Q3469.53 218.809 3469.53 224.18 Z" fill="#000000" fill-rule="nonzero" fill-opacity="1" /><path clip-path="url(#clip690)" d="M3489.81 226.795 Q3484.65 226.795 3482.66 227.976 Q3480.66 229.156 3480.66 232.004 Q3480.66 234.272 3482.15 235.615 Q3483.65 236.934 3486.22 236.934 Q3489.76 236.934 3491.89 234.434 Q3494.04 231.911 3494.04 227.744 L3494.04 226.795 L3489.81 226.795 M3498.3 225.036 L3498.3 239.828 L3494.04 239.828 L3494.04 235.893 Q3492.59 238.254 3490.41 239.388 Q3488.23 240.499 3485.09 240.499 Q3481.1 240.499 3478.74 238.277 Q3476.41 236.031 3476.41 232.281 Q3476.41 227.906 3479.32 225.684 Q3482.26 223.462 3488.07 223.462 L3494.04 223.462 L3494.04 223.045 Q3494.04 220.106 3492.1 218.508 Q3490.18 216.888 3486.68 216.888 Q3484.46 216.888 3482.35 217.42 Q3480.25 217.953 3478.3 219.018 L3478.3 215.082 Q3480.64 214.18 3482.84 213.74 Q3485.04 213.277 3487.12 213.277 Q3492.75 213.277 3495.53 216.194 Q3498.3 219.11 3498.3 225.036 Z" fill="#000000" fill-rule="nonzero" fill-opacity="1" /><path clip-path="url(#clip690)" d="M3507.08 203.809 L3511.34 203.809 L3511.34 239.828 L3507.08 239.828 L3507.08 203.809 Z" fill="#000000" fill-rule="nonzero" fill-opacity="1" /><polyline clip-path="url(#clip690)" style="stroke:#0000ff; stroke-linecap:round; stroke-linejoin:round; stroke-width:8; stroke-opacity:1; fill:none" points="2978.02,274.388 3197.09,274.388 "/>
<circle clip-path="url(#clip690)" cx="3087.56" cy="274.388" r="20.48" fill="#0000ff" fill-rule="evenodd" fill-opacity="1" stroke="#000000" stroke-opacity="1" stroke-width="5.68889"/>
<path clip-path="url(#clip690)" d="M3233.61 257.108 L3255.46 257.108 L3255.46 261.043 L3238.28 261.043 L3238.28 271.274 L3254.74 271.274 L3254.74 275.209 L3238.28 275.209 L3238.28 287.733 L3255.87 287.733 L3255.87 291.668 L3233.61 291.668 L3233.61 257.108 Z" fill="#000000" fill-rule="nonzero" fill-opacity="1" /><path clip-path="url(#clip690)" d="M3276.5 255.649 L3276.5 259.191 L3272.43 259.191 Q3270.13 259.191 3269.23 260.117 Q3268.35 261.043 3268.35 263.45 L3268.35 265.742 L3275.37 265.742 L3275.37 269.052 L3268.35 269.052 L3268.35 291.668 L3264.07 291.668 L3264.07 269.052 L3259.99 269.052 L3259.99 265.742 L3264.07 265.742 L3264.07 263.936 Q3264.07 259.608 3266.08 257.64 Q3268.1 255.649 3272.47 255.649 L3276.5 255.649 Z" fill="#000000" fill-rule="nonzero" fill-opacity="1" /><path clip-path="url(#clip690)" d="M3293.19 255.649 L3293.19 259.191 L3289.11 259.191 Q3286.82 259.191 3285.92 260.117 Q3285.04 261.043 3285.04 263.45 L3285.04 265.742 L3292.05 265.742 L3292.05 269.052 L3285.04 269.052 L3285.04 291.668 L3280.76 291.668 L3280.76 269.052 L3276.68 269.052 L3276.68 265.742 L3280.76 265.742 L3280.76 263.936 Q3280.76 259.608 3282.77 257.64 Q3284.79 255.649 3289.16 255.649 L3293.19 255.649 Z" fill="#000000" fill-rule="nonzero" fill-opacity="1" /><path clip-path="url(#clip690)" d="M3296.75 265.742 L3301.01 265.742 L3301.01 291.668 L3296.75 291.668 L3296.75 265.742 M3296.75 255.649 L3301.01 255.649 L3301.01 261.043 L3296.75 261.043 L3296.75 255.649 Z" fill="#000000" fill-rule="nonzero" fill-opacity="1" /><path clip-path="url(#clip690)" d="M3328.58 266.737 L3328.58 270.719 Q3326.78 269.723 3324.95 269.237 Q3323.14 268.728 3321.29 268.728 Q3317.15 268.728 3314.86 271.367 Q3312.56 273.983 3312.56 278.728 Q3312.56 283.473 3314.86 286.112 Q3317.15 288.728 3321.29 288.728 Q3323.14 288.728 3324.95 288.242 Q3326.78 287.733 3328.58 286.737 L3328.58 290.672 Q3326.8 291.506 3324.88 291.922 Q3322.98 292.339 3320.83 292.339 Q3314.97 292.339 3311.52 288.658 Q3308.07 284.978 3308.07 278.728 Q3308.07 272.385 3311.55 268.751 Q3315.04 265.117 3321.11 265.117 Q3323.07 265.117 3324.95 265.534 Q3326.82 265.927 3328.58 266.737 Z" fill="#000000" fill-rule="nonzero" fill-opacity="1" /><path clip-path="url(#clip690)" d="M3335.99 265.742 L3340.25 265.742 L3340.25 291.668 L3335.99 291.668 L3335.99 265.742 M3335.99 255.649 L3340.25 255.649 L3340.25 261.043 L3335.99 261.043 L3335.99 255.649 Z" fill="#000000" fill-rule="nonzero" fill-opacity="1" /><path clip-path="url(#clip690)" d="M3371.34 277.64 L3371.34 279.723 L3351.75 279.723 Q3352.03 284.121 3354.39 286.436 Q3356.78 288.728 3361.01 288.728 Q3363.47 288.728 3365.76 288.126 Q3368.07 287.524 3370.34 286.321 L3370.34 290.348 Q3368.05 291.32 3365.64 291.83 Q3363.23 292.339 3360.76 292.339 Q3354.55 292.339 3350.92 288.728 Q3347.31 285.117 3347.31 278.959 Q3347.31 272.594 3350.74 268.867 Q3354.18 265.117 3360.02 265.117 Q3365.25 265.117 3368.28 268.497 Q3371.34 271.853 3371.34 277.64 M3367.08 276.39 Q3367.03 272.895 3365.11 270.811 Q3363.21 268.728 3360.06 268.728 Q3356.5 268.728 3354.35 270.742 Q3352.22 272.756 3351.89 276.413 L3367.08 276.39 Z" fill="#000000" fill-rule="nonzero" fill-opacity="1" /><path clip-path="url(#clip690)" d="M3399.88 276.02 L3399.88 291.668 L3395.62 291.668 L3395.62 276.159 Q3395.62 272.478 3394.18 270.649 Q3392.75 268.821 3389.88 268.821 Q3386.43 268.821 3384.44 271.02 Q3382.45 273.219 3382.45 277.015 L3382.45 291.668 L3378.17 291.668 L3378.17 265.742 L3382.45 265.742 L3382.45 269.77 Q3383.98 267.432 3386.04 266.274 Q3388.12 265.117 3390.83 265.117 Q3395.29 265.117 3397.59 267.895 Q3399.88 270.649 3399.88 276.02 Z" fill="#000000" fill-rule="nonzero" fill-opacity="1" /><path clip-path="url(#clip690)" d="M3427.03 266.737 L3427.03 270.719 Q3425.23 269.723 3423.4 269.237 Q3421.59 268.728 3419.74 268.728 Q3415.6 268.728 3413.3 271.367 Q3411.01 273.983 3411.01 278.728 Q3411.01 283.473 3413.3 286.112 Q3415.6 288.728 3419.74 288.728 Q3421.59 288.728 3423.4 288.242 Q3425.23 287.733 3427.03 286.737 L3427.03 290.672 Q3425.25 291.506 3423.33 291.922 Q3421.43 292.339 3419.28 292.339 Q3413.42 292.339 3409.97 288.658 Q3406.52 284.978 3406.52 278.728 Q3406.52 272.385 3409.99 268.751 Q3413.49 265.117 3419.55 265.117 Q3421.52 265.117 3423.4 265.534 Q3425.27 265.927 3427.03 266.737 Z" fill="#000000" fill-rule="nonzero" fill-opacity="1" /><path clip-path="url(#clip690)" d="M3445.23 294.075 Q3443.42 298.705 3441.71 300.117 Q3439.99 301.529 3437.12 301.529 L3433.72 301.529 L3433.72 297.964 L3436.22 297.964 Q3437.98 297.964 3438.95 297.131 Q3439.92 296.297 3441.1 293.195 L3441.87 291.251 L3431.38 265.742 L3435.9 265.742 L3444 286.02 L3452.1 265.742 L3456.61 265.742 L3445.23 294.075 Z" fill="#000000" fill-rule="nonzero" fill-opacity="1" /><polyline clip-path="url(#clip690)" style="stroke:#ff0000; stroke-linecap:round; stroke-linejoin:round; stroke-width:8; stroke-opacity:1; fill:none" points="2978.02,326.228 3197.09,326.228 "/>
<circle clip-path="url(#clip690)" cx="3087.56" cy="326.228" r="20.48" fill="#ff0000" fill-rule="evenodd" fill-opacity="1" stroke="#000000" stroke-opacity="1" stroke-width="5.68889"/>
<path clip-path="url(#clip690)" d="M3233.61 308.948 L3240.57 308.948 L3249.39 332.466 L3258.26 308.948 L3265.23 308.948 L3265.23 343.508 L3260.67 343.508 L3260.67 313.161 L3251.75 336.864 L3247.06 336.864 L3238.14 313.161 L3238.14 343.508 L3233.61 343.508 L3233.61 308.948 Z" fill="#000000" fill-rule="nonzero" fill-opacity="1" /><path clip-path="url(#clip690)" d="M3274.32 317.582 L3278.58 317.582 L3278.58 343.508 L3274.32 343.508 L3274.32 317.582 M3274.32 307.489 L3278.58 307.489 L3278.58 312.883 L3274.32 312.883 L3274.32 307.489 Z" fill="#000000" fill-rule="nonzero" fill-opacity="1" /><path clip-path="url(#clip690)" d="M3309.05 327.86 L3309.05 343.508 L3304.79 343.508 L3304.79 327.999 Q3304.79 324.318 3303.35 322.489 Q3301.92 320.661 3299.05 320.661 Q3295.6 320.661 3293.61 322.86 Q3291.61 325.059 3291.61 328.855 L3291.61 343.508 L3287.33 343.508 L3287.33 317.582 L3291.61 317.582 L3291.61 321.61 Q3293.14 319.272 3295.2 318.114 Q3297.29 316.957 3299.99 316.957 Q3304.46 316.957 3306.75 319.735 Q3309.05 322.489 3309.05 327.86 Z" fill="#000000" fill-rule="nonzero" fill-opacity="1" /><path clip-path="url(#clip690)" d="M3315.39 328.624 L3327.86 328.624 L3327.86 332.42 L3315.39 332.42 L3315.39 328.624 Z" fill="#000000" fill-rule="nonzero" fill-opacity="1" /><path clip-path="url(#clip690)" d="M3334.83 308.948 L3341.8 308.948 L3350.62 332.466 L3359.48 308.948 L3366.45 308.948 L3366.45 343.508 L3361.89 343.508 L3361.89 313.161 L3352.98 336.864 L3348.28 336.864 L3339.37 313.161 L3339.37 343.508 L3334.83 343.508 L3334.83 308.948 Z" fill="#000000" fill-rule="nonzero" fill-opacity="1" /><path clip-path="url(#clip690)" d="M3387.33 330.475 Q3382.17 330.475 3380.18 331.656 Q3378.19 332.836 3378.19 335.684 Q3378.19 337.952 3379.67 339.295 Q3381.17 340.614 3383.74 340.614 Q3387.29 340.614 3389.42 338.114 Q3391.57 335.591 3391.57 331.424 L3391.57 330.475 L3387.33 330.475 M3395.83 328.716 L3395.83 343.508 L3391.57 343.508 L3391.57 339.573 Q3390.11 341.934 3387.93 343.068 Q3385.76 344.179 3382.61 344.179 Q3378.63 344.179 3376.27 341.957 Q3373.93 339.711 3373.93 335.961 Q3373.93 331.586 3376.85 329.364 Q3379.79 327.142 3385.6 327.142 L3391.57 327.142 L3391.57 326.725 Q3391.57 323.786 3389.62 322.188 Q3387.7 320.568 3384.21 320.568 Q3381.98 320.568 3379.88 321.1 Q3377.77 321.633 3375.83 322.698 L3375.83 318.762 Q3378.17 317.86 3380.36 317.42 Q3382.56 316.957 3384.65 316.957 Q3390.27 316.957 3393.05 319.874 Q3395.83 322.79 3395.83 328.716 Z" fill="#000000" fill-rule="nonzero" fill-opacity="1" /><path clip-path="url(#clip690)" d="M3426.15 317.582 L3416.78 330.198 L3426.64 343.508 L3421.61 343.508 L3414.07 333.323 L3406.52 343.508 L3401.5 343.508 L3411.57 329.943 L3402.36 317.582 L3407.38 317.582 L3414.25 326.818 L3421.13 317.582 L3426.15 317.582 Z" fill="#000000" fill-rule="nonzero" fill-opacity="1" /><polyline clip-path="url(#clip690)" style="stroke:#ffa500; stroke-linecap:round; stroke-linejoin:round; stroke-width:8; stroke-opacity:1; fill:none" points="2978.02,378.068 3197.09,378.068 "/>
<circle clip-path="url(#clip690)" cx="3087.56" cy="378.068" r="20.48" fill="#ffa500" fill-rule="evenodd" fill-opacity="1" stroke="#000000" stroke-opacity="1" stroke-width="5.68889"/>
<path clip-path="url(#clip690)" d="M3233.61 360.788 L3255.46 360.788 L3255.46 364.723 L3238.28 364.723 L3238.28 374.954 L3254.74 374.954 L3254.74 378.889 L3238.28 378.889 L3238.28 391.413 L3255.87 391.413 L3255.87 395.348 L3233.61 395.348 L3233.61 360.788 Z" fill="#000000" fill-rule="nonzero" fill-opacity="1" /><path clip-path="url(#clip690)" d="M3265.92 382.408 Q3265.92 387.107 3267.84 389.792 Q3269.79 392.454 3273.17 392.454 Q3276.55 392.454 3278.49 389.792 Q3280.43 387.107 3280.43 382.408 Q3280.43 377.709 3278.49 375.047 Q3276.55 372.362 3273.17 372.362 Q3269.79 372.362 3267.84 375.047 Q3265.92 377.709 3265.92 382.408 M3280.43 391.459 Q3279.09 393.774 3277.03 394.908 Q3274.99 396.019 3272.12 396.019 Q3267.43 396.019 3264.46 392.269 Q3261.52 388.519 3261.52 382.408 Q3261.52 376.297 3264.46 372.547 Q3267.43 368.797 3272.12 368.797 Q3274.99 368.797 3277.03 369.931 Q3279.09 371.042 3280.43 373.357 L3280.43 369.422 L3284.69 369.422 L3284.69 405.209 L3280.43 405.209 L3280.43 391.459 Z" fill="#000000" fill-rule="nonzero" fill-opacity="1" /><path clip-path="url(#clip690)" d="M3293.03 385.116 L3293.03 369.422 L3297.29 369.422 L3297.29 384.954 Q3297.29 388.635 3298.72 390.487 Q3300.16 392.315 3303.03 392.315 Q3306.48 392.315 3308.47 390.116 Q3310.48 387.917 3310.48 384.121 L3310.48 369.422 L3314.74 369.422 L3314.74 395.348 L3310.48 395.348 L3310.48 391.366 Q3308.93 393.727 3306.87 394.885 Q3304.83 396.019 3302.12 396.019 Q3297.66 396.019 3295.34 393.241 Q3293.03 390.463 3293.03 385.116 M3303.74 368.797 L3303.74 368.797 Z" fill="#000000" fill-rule="nonzero" fill-opacity="1" /><path clip-path="url(#clip690)" d="M3335.3 382.315 Q3330.13 382.315 3328.14 383.496 Q3326.15 384.676 3326.15 387.524 Q3326.15 389.792 3327.63 391.135 Q3329.14 392.454 3331.71 392.454 Q3335.25 392.454 3337.38 389.954 Q3339.53 387.431 3339.53 383.264 L3339.53 382.315 L3335.3 382.315 M3343.79 380.556 L3343.79 395.348 L3339.53 395.348 L3339.53 391.413 Q3338.07 393.774 3335.9 394.908 Q3333.72 396.019 3330.57 396.019 Q3326.59 396.019 3324.23 393.797 Q3321.89 391.551 3321.89 387.801 Q3321.89 383.426 3324.81 381.204 Q3327.75 378.982 3333.56 378.982 L3339.53 378.982 L3339.53 378.565 Q3339.53 375.626 3337.59 374.028 Q3335.67 372.408 3332.17 372.408 Q3329.95 372.408 3327.84 372.94 Q3325.74 373.473 3323.79 374.538 L3323.79 370.602 Q3326.13 369.7 3328.33 369.26 Q3330.53 368.797 3332.61 368.797 Q3338.24 368.797 3341.01 371.714 Q3343.79 374.63 3343.79 380.556 Z" fill="#000000" fill-rule="nonzero" fill-opacity="1" /><path clip-path="url(#clip690)" d="M3352.56 359.329 L3356.82 359.329 L3356.82 395.348 L3352.56 395.348 L3352.56 359.329 Z" fill="#000000" fill-rule="nonzero" fill-opacity="1" /><path clip-path="url(#clip690)" d="M3365.73 369.422 L3369.99 369.422 L3369.99 395.348 L3365.73 395.348 L3365.73 369.422 M3365.73 359.329 L3369.99 359.329 L3369.99 364.723 L3365.73 364.723 L3365.73 359.329 Z" fill="#000000" fill-rule="nonzero" fill-opacity="1" /><path clip-path="url(#clip690)" d="M3383.12 362.061 L3383.12 369.422 L3391.89 369.422 L3391.89 372.732 L3383.12 372.732 L3383.12 386.806 Q3383.12 389.977 3383.98 390.88 Q3384.86 391.783 3387.52 391.783 L3391.89 391.783 L3391.89 395.348 L3387.52 395.348 Q3382.59 395.348 3380.71 393.519 Q3378.84 391.667 3378.84 386.806 L3378.84 372.732 L3375.71 372.732 L3375.71 369.422 L3378.84 369.422 L3378.84 362.061 L3383.12 362.061 Z" fill="#000000" fill-rule="nonzero" fill-opacity="1" /><path clip-path="url(#clip690)" d="M3408.28 397.755 Q3406.48 402.385 3404.76 403.797 Q3403.05 405.209 3400.18 405.209 L3396.78 405.209 L3396.78 401.644 L3399.28 401.644 Q3401.04 401.644 3402.01 400.811 Q3402.98 399.977 3404.16 396.875 L3404.92 394.931 L3394.44 369.422 L3398.95 369.422 L3407.05 389.7 L3415.16 369.422 L3419.67 369.422 L3408.28 397.755 Z" fill="#000000" fill-rule="nonzero" fill-opacity="1" /><path clip-path="url(#clip690)" d="M3440.8 360.788 L3447.77 360.788 L3456.59 384.306 L3465.46 360.788 L3472.42 360.788 L3472.42 395.348 L3467.86 395.348 L3467.86 365.001 L3458.95 388.704 L3454.25 388.704 L3445.34 365.001 L3445.34 395.348 L3440.8 395.348 L3440.8 360.788 Z" fill="#000000" fill-rule="nonzero" fill-opacity="1" /><path clip-path="url(#clip690)" d="M3481.52 369.422 L3485.78 369.422 L3485.78 395.348 L3481.52 395.348 L3481.52 369.422 M3481.52 359.329 L3485.78 359.329 L3485.78 364.723 L3481.52 364.723 L3481.52 359.329 Z" fill="#000000" fill-rule="nonzero" fill-opacity="1" /><path clip-path="url(#clip690)" d="M3516.24 379.7 L3516.24 395.348 L3511.98 395.348 L3511.98 379.839 Q3511.98 376.158 3510.55 374.329 Q3509.11 372.501 3506.24 372.501 Q3502.79 372.501 3500.8 374.7 Q3498.81 376.899 3498.81 380.695 L3498.81 395.348 L3494.53 395.348 L3494.53 369.422 L3498.81 369.422 L3498.81 373.45 Q3500.34 371.112 3502.4 369.954 Q3504.48 368.797 3507.19 368.797 Q3511.66 368.797 3513.95 371.575 Q3516.24 374.329 3516.24 379.7 Z" fill="#000000" fill-rule="nonzero" fill-opacity="1" /><polyline clip-path="url(#clip690)" style="stroke:#800080; stroke-linecap:round; stroke-linejoin:round; stroke-width:8; stroke-opacity:1; fill:none" points="2978.02,429.908 3197.09,429.908 "/>
<circle clip-path="url(#clip690)" cx="3087.56" cy="429.908" r="20.48" fill="#800080" fill-rule="evenodd" fill-opacity="1" stroke="#000000" stroke-opacity="1" stroke-width="5.68889"/>
<path clip-path="url(#clip690)" d="M3240.71 412.628 L3245.39 412.628 L3245.39 444.78 Q3245.39 451.03 3243 453.854 Q3240.64 456.678 3235.39 456.678 L3233.61 456.678 L3233.61 452.743 L3235.06 452.743 Q3238.17 452.743 3239.44 451.007 Q3240.71 449.271 3240.71 444.78 L3240.71 412.628 Z" fill="#000000" fill-rule="nonzero" fill-opacity="1" /><path clip-path="url(#clip690)" d="M3266.29 434.155 Q3261.13 434.155 3259.14 435.336 Q3257.15 436.516 3257.15 439.364 Q3257.15 441.632 3258.63 442.975 Q3260.13 444.294 3262.7 444.294 Q3266.24 444.294 3268.37 441.794 Q3270.53 439.271 3270.53 435.104 L3270.53 434.155 L3266.29 434.155 M3274.79 432.396 L3274.79 447.188 L3270.53 447.188 L3270.53 443.253 Q3269.07 445.614 3266.89 446.748 Q3264.72 447.859 3261.57 447.859 Q3257.59 447.859 3255.23 445.637 Q3252.89 443.391 3252.89 439.641 Q3252.89 435.266 3255.8 433.044 Q3258.74 430.822 3264.55 430.822 L3270.53 430.822 L3270.53 430.405 Q3270.53 427.466 3268.58 425.868 Q3266.66 424.248 3263.17 424.248 Q3260.94 424.248 3258.84 424.78 Q3256.73 425.313 3254.79 426.378 L3254.79 422.442 Q3257.12 421.54 3259.32 421.1 Q3261.52 420.637 3263.61 420.637 Q3269.23 420.637 3272.01 423.554 Q3274.79 426.47 3274.79 432.396 Z" fill="#000000" fill-rule="nonzero" fill-opacity="1" /><path clip-path="url(#clip690)" d="M3283.56 421.262 L3287.82 421.262 L3287.82 447.188 L3283.56 447.188 L3283.56 421.262 M3283.56 411.169 L3287.82 411.169 L3287.82 416.563 L3283.56 416.563 L3283.56 411.169 Z" fill="#000000" fill-rule="nonzero" fill-opacity="1" /><path clip-path="url(#clip690)" d="M3318.28 431.54 L3318.28 447.188 L3314.02 447.188 L3314.02 431.679 Q3314.02 427.998 3312.59 426.169 Q3311.15 424.341 3308.28 424.341 Q3304.83 424.341 3302.84 426.54 Q3300.85 428.739 3300.85 432.535 L3300.85 447.188 L3296.57 447.188 L3296.57 421.262 L3300.85 421.262 L3300.85 425.29 Q3302.38 422.952 3304.44 421.794 Q3306.52 420.637 3309.23 420.637 Q3313.7 420.637 3315.99 423.415 Q3318.28 426.169 3318.28 431.54 Z" fill="#000000" fill-rule="nonzero" fill-opacity="1" /><path clip-path="url(#clip690)" d="M3330.8 412.628 L3330.8 425.475 L3326.87 425.475 L3326.87 412.628 L3330.8 412.628 Z" fill="#000000" fill-rule="nonzero" fill-opacity="1" /><path clip-path="url(#clip690)" d="M3356.34 422.026 L3356.34 426.054 Q3354.53 425.128 3352.59 424.665 Q3350.64 424.202 3348.56 424.202 Q3345.39 424.202 3343.79 425.174 Q3342.22 426.146 3342.22 428.091 Q3342.22 429.572 3343.35 430.429 Q3344.49 431.262 3347.91 432.026 L3349.37 432.35 Q3353.91 433.322 3355.8 435.104 Q3357.73 436.864 3357.73 440.035 Q3357.73 443.646 3354.86 445.753 Q3352.01 447.859 3347.01 447.859 Q3344.92 447.859 3342.66 447.442 Q3340.41 447.049 3337.91 446.239 L3337.91 441.841 Q3340.27 443.067 3342.56 443.692 Q3344.86 444.294 3347.1 444.294 Q3350.11 444.294 3351.73 443.276 Q3353.35 442.234 3353.35 440.359 Q3353.35 438.623 3352.17 437.697 Q3351.01 436.771 3347.05 435.915 L3345.57 435.567 Q3341.61 434.734 3339.86 433.021 Q3338.1 431.285 3338.1 428.276 Q3338.1 424.618 3340.69 422.628 Q3343.28 420.637 3348.05 420.637 Q3350.41 420.637 3352.49 420.984 Q3354.58 421.331 3356.34 422.026 Z" fill="#000000" fill-rule="nonzero" fill-opacity="1" /><path clip-path="url(#clip690)" d="M3379.76 412.628 L3384.44 412.628 L3384.44 447.188 L3379.76 447.188 L3379.76 412.628 Z" fill="#000000" fill-rule="nonzero" fill-opacity="1" /><path clip-path="url(#clip690)" d="M3415.11 431.54 L3415.11 447.188 L3410.85 447.188 L3410.85 431.679 Q3410.85 427.998 3409.42 426.169 Q3407.98 424.341 3405.11 424.341 Q3401.66 424.341 3399.67 426.54 Q3397.68 428.739 3397.68 432.535 L3397.68 447.188 L3393.4 447.188 L3393.4 421.262 L3397.68 421.262 L3397.68 425.29 Q3399.21 422.952 3401.27 421.794 Q3403.35 420.637 3406.06 420.637 Q3410.53 420.637 3412.82 423.415 Q3415.11 426.169 3415.11 431.54 Z" fill="#000000" fill-rule="nonzero" fill-opacity="1" /><path clip-path="url(#clip690)" d="M3440.67 425.197 L3440.67 411.169 L3444.92 411.169 L3444.92 447.188 L3440.67 447.188 L3440.67 443.299 Q3439.32 445.614 3437.26 446.748 Q3435.23 447.859 3432.35 447.859 Q3427.66 447.859 3424.69 444.109 Q3421.75 440.359 3421.75 434.248 Q3421.75 428.137 3424.69 424.387 Q3427.66 420.637 3432.35 420.637 Q3435.23 420.637 3437.26 421.771 Q3439.32 422.882 3440.67 425.197 M3426.15 434.248 Q3426.15 438.947 3428.07 441.632 Q3430.02 444.294 3433.4 444.294 Q3436.78 444.294 3438.72 441.632 Q3440.67 438.947 3440.67 434.248 Q3440.67 429.549 3438.72 426.887 Q3436.78 424.202 3433.4 424.202 Q3430.02 424.202 3428.07 426.887 Q3426.15 429.549 3426.15 434.248 Z" fill="#000000" fill-rule="nonzero" fill-opacity="1" /><path clip-path="url(#clip690)" d="M3475.87 433.16 L3475.87 435.243 L3456.29 435.243 Q3456.57 439.641 3458.93 441.956 Q3461.31 444.248 3465.55 444.248 Q3468 444.248 3470.29 443.646 Q3472.61 443.044 3474.88 441.841 L3474.88 445.868 Q3472.59 446.84 3470.18 447.35 Q3467.77 447.859 3465.29 447.859 Q3459.09 447.859 3455.46 444.248 Q3451.85 440.637 3451.85 434.479 Q3451.85 428.114 3455.27 424.387 Q3458.72 420.637 3464.55 420.637 Q3469.79 420.637 3472.82 424.017 Q3475.87 427.373 3475.87 433.16 M3471.61 431.91 Q3471.57 428.415 3469.65 426.331 Q3467.75 424.248 3464.6 424.248 Q3461.04 424.248 3458.88 426.262 Q3456.75 428.276 3456.43 431.933 L3471.61 431.91 Z" fill="#000000" fill-rule="nonzero" fill-opacity="1" /><path clip-path="url(#clip690)" d="M3503.58 421.262 L3494.21 433.878 L3504.07 447.188 L3499.04 447.188 L3491.5 437.003 L3483.95 447.188 L3478.93 447.188 L3489 433.623 L3479.79 421.262 L3484.81 421.262 L3491.68 430.498 L3498.56 421.262 L3503.58 421.262 Z" fill="#000000" fill-rule="nonzero" fill-opacity="1" /></svg>
