<?xml version="1.0" encoding="utf-8"?>
<svg xmlns="http://www.w3.org/2000/svg" xmlns:xlink="http://www.w3.org/1999/xlink" width="900" height="500" viewBox="0 0 3600 2000">
<defs>
  <clipPath id="clip530">
    <rect x="0" y="0" width="3600" height="2000"/>
  </clipPath>
</defs>
<path clip-path="url(#clip530)" d="M0 2000 L3600 2000 L3600 0 L0 0  Z" fill="#ffffff" fill-rule="evenodd" fill-opacity="1"/>
<defs>
  <clipPath id="clip531">
    <rect x="720" y="0" width="2521" height="2000"/>
  </clipPath>
</defs>
<path clip-path="url(#clip530)" d="M208.344 1832.86 L2824.2 1832.86 L2824.2 113.392 L208.344 113.392  Z" fill="#ffffff" fill-rule="evenodd" fill-opacity="1"/>
<defs>
  <clipPath id="clip532">
    <rect x="208" y="113" width="2617" height="1720"/>
  </clipPath>
</defs>
<polyline clip-path="url(#clip532)" style="stroke:#000000; stroke-linecap:round; stroke-linejoin:round; stroke-width:2; stroke-opacity:0.1; fill:none" points="282.378,1832.86 282.378,113.392 "/>
<polyline clip-path="url(#clip532)" style="stroke:#000000; stroke-linecap:round; stroke-linejoin:round; stroke-width:2; stroke-opacity:0.1; fill:none" points="899.324,1832.86 899.324,113.392 "/>
<polyline clip-path="url(#clip532)" style="stroke:#000000; stroke-linecap:round; stroke-linejoin:round; stroke-width:2; stroke-opacity:0.1; fill:none" points="1516.27,1832.86 1516.27,113.392 "/>
<polyline clip-path="url(#clip532)" style="stroke:#000000; stroke-linecap:round; stroke-linejoin:round; stroke-width:2; stroke-opacity:0.1; fill:none" points="2133.22,1832.86 2133.22,113.392 "/>
<polyline clip-path="url(#clip532)" style="stroke:#000000; stroke-linecap:round; stroke-linejoin:round; stroke-width:2; stroke-opacity:0.1; fill:none" points="2750.16,1832.86 2750.16,113.392 "/>
<polyline clip-path="url(#clip532)" style="stroke:#000000; stroke-linecap:round; stroke-linejoin:round; stroke-width:2; stroke-opacity:0.1; fill:none" points="208.344,1671.51 2824.2,1671.51 "/>
<polyline clip-path="url(#clip532)" style="stroke:#000000; stroke-linecap:round; stroke-linejoin:round; stroke-width:2; stroke-opacity:0.1; fill:none" points="208.344,1429.66 2824.2,1429.66 "/>
<polyline clip-path="url(#clip532)" style="stroke:#000000; stroke-linecap:round; stroke-linejoin:round; stroke-width:2; stroke-opacity:0.1; fill:none" points="208.344,1187.8 2824.2,1187.8 "/>
<polyline clip-path="url(#clip532)" style="stroke:#000000; stroke-linecap:round; stroke-linejoin:round; stroke-width:2; stroke-opacity:0.1; fill:none" points="208.344,945.949 2824.2,945.949 "/>
<polyline clip-path="url(#clip532)" style="stroke:#000000; stroke-linecap:round; stroke-linejoin:round; stroke-width:2; stroke-opacity:0.1; fill:none" points="208.344,704.096 2824.2,704.096 "/>
<polyline clip-path="url(#clip532)" style="stroke:#000000; stroke-linecap:round; stroke-linejoin:round; stroke-width:2; stroke-opacity:0.1; fill:none" points="208.344,462.243 2824.2,462.243 "/>
<polyline clip-path="url(#clip532)" style="stroke:#000000; stroke-linecap:round; stroke-linejoin:round; stroke-width:2; stroke-opacity:0.1; fill:none" points="208.344,220.389 2824.2,220.389 "/>
<polyline clip-path="url(#clip530)" style="stroke:#000000; stroke-linecap:round; stroke-linejoin:round; stroke-width:4; stroke-opacity:1; fill:none" points="208.344,1832.86 2824.2,1832.86 "/>
<polyline clip-path="url(#clip530)" style="stroke:#000000; stroke-linecap:round; stroke-linejoin:round; stroke-width:4; stroke-opacity:1; fill:none" points="282.378,1832.86 282.378,1813.96 "/>
<polyline clip-path="url(#clip530)" style="stroke:#000000; stroke-linecap:round; stroke-linejoin:round; stroke-width:4; stroke-opacity:1; fill:none" points="899.324,1832.86 899.324,1813.96 "/>
<polyline clip-path="url(#clip530)" style="stroke:#000000; stroke-linecap:round; stroke-linejoin:round; stroke-width:4; stroke-opacity:1; fill:none" points="1516.27,1832.86 1516.27,1813.96 "/>
<polyline clip-path="url(#clip530)" style="stroke:#000000; stroke-linecap:round; stroke-linejoin:round; stroke-width:4; stroke-opacity:1; fill:none" points="2133.22,1832.86 2133.22,1813.96 "/>
<polyline clip-path="url(#clip530)" style="stroke:#000000; stroke-linecap:round; stroke-linejoin:round; stroke-width:4; stroke-opacity:1; fill:none" points="2750.16,1832.86 2750.16,1813.96 "/>
<path clip-path="url(#clip530)" d="M244.682 1873.38 Q241.07 1873.38 239.242 1876.94 Q237.436 1880.48 237.436 1887.61 Q237.436 1894.72 239.242 1898.29 Q241.07 1901.83 244.682 1901.83 Q248.316 1901.83 250.121 1898.29 Q251.95 1894.72 251.95 1887.61 Q251.95 1880.48 250.121 1876.94 Q248.316 1873.38 244.682 1873.38 M244.682 1869.67 Q250.492 1869.67 253.547 1874.28 Q256.626 1878.86 256.626 1887.61 Q256.626 1896.34 253.547 1900.95 Q250.492 1905.53 244.682 1905.53 Q238.871 1905.53 235.793 1900.95 Q232.737 1896.34 232.737 1887.61 Q232.737 1878.86 235.793 1874.28 Q238.871 1869.67 244.682 1869.67 Z" fill="#000000" fill-rule="nonzero" fill-opacity="1" /><path clip-path="url(#clip530)" d="M264.843 1898.98 L269.728 1898.98 L269.728 1904.86 L264.843 1904.86 L264.843 1898.98 Z" fill="#000000" fill-rule="nonzero" fill-opacity="1" /><path clip-path="url(#clip530)" d="M280.052 1904.14 L280.052 1899.88 Q281.811 1900.72 283.616 1901.16 Q285.422 1901.6 287.158 1901.6 Q291.788 1901.6 294.218 1898.49 Q296.672 1895.37 297.019 1889.03 Q295.677 1891.02 293.616 1892.08 Q291.556 1893.15 289.056 1893.15 Q283.871 1893.15 280.839 1890.02 Q277.829 1886.87 277.829 1881.43 Q277.829 1876.11 280.978 1872.89 Q284.126 1869.67 289.357 1869.67 Q295.353 1869.67 298.501 1874.28 Q301.672 1878.86 301.672 1887.61 Q301.672 1895.79 297.783 1900.67 Q293.917 1905.53 287.366 1905.53 Q285.607 1905.53 283.802 1905.18 Q281.996 1904.84 280.052 1904.14 M289.357 1889.49 Q292.505 1889.49 294.334 1887.34 Q296.186 1885.18 296.186 1881.43 Q296.186 1877.71 294.334 1875.55 Q292.505 1873.38 289.357 1873.38 Q286.209 1873.38 284.357 1875.55 Q282.529 1877.71 282.529 1881.43 Q282.529 1885.18 284.357 1887.34 Q286.209 1889.49 289.357 1889.49 Z" fill="#000000" fill-rule="nonzero" fill-opacity="1" /><path clip-path="url(#clip530)" d="M320.075 1873.38 Q316.464 1873.38 314.635 1876.94 Q312.829 1880.48 312.829 1887.61 Q312.829 1894.72 314.635 1898.29 Q316.464 1901.83 320.075 1901.83 Q323.709 1901.83 325.514 1898.29 Q327.343 1894.72 327.343 1887.61 Q327.343 1880.48 325.514 1876.94 Q323.709 1873.38 320.075 1873.38 M320.075 1869.67 Q325.885 1869.67 328.94 1874.28 Q332.019 1878.86 332.019 1887.61 Q332.019 1896.34 328.94 1900.95 Q325.885 1905.53 320.075 1905.53 Q314.264 1905.53 311.186 1900.95 Q308.13 1896.34 308.13 1887.61 Q308.13 1878.86 311.186 1874.28 Q314.264 1869.67 320.075 1869.67 Z" fill="#000000" fill-rule="nonzero" fill-opacity="1" /><path clip-path="url(#clip530)" d="M862.126 1873.38 Q858.514 1873.38 856.686 1876.94 Q854.88 1880.48 854.88 1887.61 Q854.88 1894.72 856.686 1898.29 Q858.514 1901.83 862.126 1901.83 Q865.76 1901.83 867.565 1898.29 Q869.394 1894.72 869.394 1887.61 Q869.394 1880.48 867.565 1876.94 Q865.76 1873.38 862.126 1873.38 M862.126 1869.67 Q867.936 1869.67 870.991 1874.28 Q874.07 1878.86 874.07 1887.61 Q874.07 1896.34 870.991 1900.95 Q867.936 1905.53 862.126 1905.53 Q856.315 1905.53 853.237 1900.95 Q850.181 1896.34 850.181 1887.61 Q850.181 1878.86 853.237 1874.28 Q856.315 1869.67 862.126 1869.67 Z" fill="#000000" fill-rule="nonzero" fill-opacity="1" /><path clip-path="url(#clip530)" d="M882.287 1898.98 L887.172 1898.98 L887.172 1904.86 L882.287 1904.86 L882.287 1898.98 Z" fill="#000000" fill-rule="nonzero" fill-opacity="1" /><path clip-path="url(#clip530)" d="M897.496 1904.14 L897.496 1899.88 Q899.255 1900.72 901.061 1901.16 Q902.866 1901.6 904.602 1901.6 Q909.232 1901.6 911.662 1898.49 Q914.116 1895.37 914.463 1889.03 Q913.121 1891.02 911.06 1892.08 Q909 1893.15 906.5 1893.15 Q901.315 1893.15 898.283 1890.02 Q895.274 1886.87 895.274 1881.43 Q895.274 1876.11 898.422 1872.89 Q901.57 1869.67 906.801 1869.67 Q912.797 1869.67 915.945 1874.28 Q919.116 1878.86 919.116 1887.61 Q919.116 1895.79 915.227 1900.67 Q911.361 1905.53 904.81 1905.53 Q903.051 1905.53 901.246 1905.18 Q899.44 1904.84 897.496 1904.14 M906.801 1889.49 Q909.949 1889.49 911.778 1887.34 Q913.63 1885.18 913.63 1881.43 Q913.63 1877.71 911.778 1875.55 Q909.949 1873.38 906.801 1873.38 Q903.653 1873.38 901.801 1875.55 Q899.973 1877.71 899.973 1881.43 Q899.973 1885.18 901.801 1887.34 Q903.653 1889.49 906.801 1889.49 Z" fill="#000000" fill-rule="nonzero" fill-opacity="1" /><path clip-path="url(#clip530)" d="M927.565 1870.3 L945.921 1870.3 L945.921 1874.24 L931.847 1874.24 L931.847 1882.71 Q932.866 1882.36 933.884 1882.2 Q934.903 1882.01 935.921 1882.01 Q941.708 1882.01 945.088 1885.18 Q948.468 1888.36 948.468 1893.77 Q948.468 1899.35 944.995 1902.45 Q941.523 1905.53 935.204 1905.53 Q933.028 1905.53 930.759 1905.16 Q928.514 1904.79 926.107 1904.05 L926.107 1899.35 Q928.19 1900.48 930.412 1901.04 Q932.634 1901.6 935.111 1901.6 Q939.116 1901.6 941.454 1899.49 Q943.792 1897.38 943.792 1893.77 Q943.792 1890.16 941.454 1888.05 Q939.116 1885.95 935.111 1885.95 Q933.236 1885.95 931.361 1886.36 Q929.509 1886.78 927.565 1887.66 L927.565 1870.3 Z" fill="#000000" fill-rule="nonzero" fill-opacity="1" /><path clip-path="url(#clip530)" d="M1468.34 1900.92 L1475.98 1900.92 L1475.98 1874.56 L1467.67 1876.23 L1467.67 1871.97 L1475.94 1870.3 L1480.61 1870.3 L1480.61 1900.92 L1488.25 1900.92 L1488.25 1904.86 L1468.34 1904.86 L1468.34 1900.92 Z" fill="#000000" fill-rule="nonzero" fill-opacity="1" /><path clip-path="url(#clip530)" d="M1497.69 1898.98 L1502.58 1898.98 L1502.58 1904.86 L1497.69 1904.86 L1497.69 1898.98 Z" fill="#000000" fill-rule="nonzero" fill-opacity="1" /><path clip-path="url(#clip530)" d="M1522.76 1873.38 Q1519.15 1873.38 1517.32 1876.94 Q1515.52 1880.48 1515.52 1887.61 Q1515.52 1894.72 1517.32 1898.29 Q1519.15 1901.83 1522.76 1901.83 Q1526.4 1901.83 1528.2 1898.29 Q1530.03 1894.72 1530.03 1887.61 Q1530.03 1880.48 1528.2 1876.94 Q1526.4 1873.38 1522.76 1873.38 M1522.76 1869.67 Q1528.57 1869.67 1531.63 1874.28 Q1534.71 1878.86 1534.71 1887.61 Q1534.71 1896.34 1531.63 1900.95 Q1528.57 1905.53 1522.76 1905.53 Q1516.95 1905.53 1513.87 1900.95 Q1510.82 1896.34 1510.82 1887.61 Q1510.82 1878.86 1513.87 1874.28 Q1516.95 1869.67 1522.76 1869.67 Z" fill="#000000" fill-rule="nonzero" fill-opacity="1" /><path clip-path="url(#clip530)" d="M1552.93 1873.38 Q1549.31 1873.38 1547.49 1876.94 Q1545.68 1880.48 1545.68 1887.61 Q1545.68 1894.72 1547.49 1898.29 Q1549.31 1901.83 1552.93 1901.83 Q1556.56 1901.83 1558.37 1898.29 Q1560.19 1894.72 1560.19 1887.61 Q1560.19 1880.48 1558.37 1876.94 Q1556.56 1873.38 1552.93 1873.38 M1552.93 1869.67 Q1558.74 1869.67 1561.79 1874.28 Q1564.87 1878.86 1564.87 1887.61 Q1564.87 1896.34 1561.79 1900.95 Q1558.74 1905.53 1552.93 1905.53 Q1547.12 1905.53 1544.04 1900.95 Q1540.98 1896.34 1540.98 1887.61 Q1540.98 1878.86 1544.04 1874.28 Q1547.12 1869.67 1552.93 1869.67 Z" fill="#000000" fill-rule="nonzero" fill-opacity="1" /><path clip-path="url(#clip530)" d="M2085.79 1900.92 L2093.43 1900.92 L2093.43 1874.56 L2085.12 1876.23 L2085.12 1871.97 L2093.38 1870.3 L2098.06 1870.3 L2098.06 1900.92 L2105.69 1900.92 L2105.69 1904.86 L2085.79 1904.86 L2085.79 1900.92 Z" fill="#000000" fill-rule="nonzero" fill-opacity="1" /><path clip-path="url(#clip530)" d="M2115.14 1898.98 L2120.02 1898.98 L2120.02 1904.86 L2115.14 1904.86 L2115.14 1898.98 Z" fill="#000000" fill-rule="nonzero" fill-opacity="1" /><path clip-path="url(#clip530)" d="M2140.21 1873.38 Q2136.6 1873.38 2134.77 1876.94 Q2132.96 1880.48 2132.96 1887.61 Q2132.96 1894.72 2134.77 1898.29 Q2136.6 1901.83 2140.21 1901.83 Q2143.84 1901.83 2145.65 1898.29 Q2147.48 1894.72 2147.48 1887.61 Q2147.48 1880.48 2145.65 1876.94 Q2143.84 1873.38 2140.21 1873.38 M2140.21 1869.67 Q2146.02 1869.67 2149.07 1874.28 Q2152.15 1878.86 2152.15 1887.61 Q2152.15 1896.34 2149.07 1900.95 Q2146.02 1905.53 2140.21 1905.53 Q2134.4 1905.53 2131.32 1900.95 Q2128.26 1896.34 2128.26 1887.61 Q2128.26 1878.86 2131.32 1874.28 Q2134.4 1869.67 2140.21 1869.67 Z" fill="#000000" fill-rule="nonzero" fill-opacity="1" /><path clip-path="url(#clip530)" d="M2160.42 1870.3 L2178.77 1870.3 L2178.77 1874.24 L2164.7 1874.24 L2164.7 1882.71 Q2165.72 1882.36 2166.74 1882.2 Q2167.75 1882.01 2168.77 1882.01 Q2174.56 1882.01 2177.94 1885.18 Q2181.32 1888.36 2181.32 1893.77 Q2181.32 1899.35 2177.85 1902.45 Q2174.37 1905.53 2168.05 1905.53 Q2165.88 1905.53 2163.61 1905.16 Q2161.37 1904.79 2158.96 1904.05 L2158.96 1899.35 Q2161.04 1900.48 2163.26 1901.04 Q2165.49 1901.6 2167.96 1901.6 Q2171.97 1901.6 2174.3 1899.49 Q2176.64 1897.38 2176.64 1893.77 Q2176.64 1890.16 2174.3 1888.05 Q2171.97 1885.95 2167.96 1885.95 Q2166.09 1885.95 2164.21 1886.36 Q2162.36 1886.78 2160.42 1887.66 L2160.42 1870.3 Z" fill="#000000" fill-rule="nonzero" fill-opacity="1" /><path clip-path="url(#clip530)" d="M2702.24 1900.92 L2709.87 1900.92 L2709.87 1874.56 L2701.56 1876.23 L2701.56 1871.97 L2709.83 1870.3 L2714.5 1870.3 L2714.5 1900.92 L2722.14 1900.92 L2722.14 1904.86 L2702.24 1904.86 L2702.24 1900.92 Z" fill="#000000" fill-rule="nonzero" fill-opacity="1" /><path clip-path="url(#clip530)" d="M2731.59 1898.98 L2736.47 1898.98 L2736.47 1904.86 L2731.59 1904.86 L2731.59 1898.98 Z" fill="#000000" fill-rule="nonzero" fill-opacity="1" /><path clip-path="url(#clip530)" d="M2747.47 1900.92 L2755.11 1900.92 L2755.11 1874.56 L2746.8 1876.23 L2746.8 1871.97 L2755.06 1870.3 L2759.74 1870.3 L2759.74 1900.92 L2767.37 1900.92 L2767.37 1904.86 L2747.47 1904.86 L2747.47 1900.92 Z" fill="#000000" fill-rule="nonzero" fill-opacity="1" /><path clip-path="url(#clip530)" d="M2786.82 1873.38 Q2783.21 1873.38 2781.38 1876.94 Q2779.57 1880.48 2779.57 1887.61 Q2779.57 1894.72 2781.38 1898.29 Q2783.21 1901.83 2786.82 1901.83 Q2790.45 1901.83 2792.26 1898.29 Q2794.09 1894.72 2794.09 1887.61 Q2794.09 1880.48 2792.26 1876.94 Q2790.45 1873.38 2786.82 1873.38 M2786.82 1869.67 Q2792.63 1869.67 2795.68 1874.28 Q2798.76 1878.86 2798.76 1887.61 Q2798.76 1896.34 2795.68 1900.95 Q2792.63 1905.53 2786.82 1905.53 Q2781.01 1905.53 2777.93 1900.95 Q2774.87 1896.34 2774.87 1887.61 Q2774.87 1878.86 2777.93 1874.28 Q2781.01 1869.67 2786.82 1869.67 Z" fill="#000000" fill-rule="nonzero" fill-opacity="1" /><path clip-path="url(#clip530)" d="M1230.12 1949.76 L1230.12 1956.03 Q1226.46 1954.28 1223.21 1953.42 Q1219.96 1952.56 1216.94 1952.56 Q1211.69 1952.56 1208.82 1954.6 Q1205.99 1956.64 1205.99 1960.39 Q1205.99 1963.55 1207.87 1965.17 Q1209.78 1966.76 1215.06 1967.75 L1218.94 1968.54 Q1226.14 1969.91 1229.54 1973.38 Q1232.98 1976.82 1232.98 1982.61 Q1232.98 1989.52 1228.33 1993.08 Q1223.72 1996.65 1214.77 1996.65 Q1211.4 1996.65 1207.58 1995.88 Q1203.79 1995.12 1199.72 1993.62 L1199.72 1987 Q1203.63 1989.2 1207.39 1990.31 Q1211.15 1991.43 1214.77 1991.43 Q1220.28 1991.43 1223.27 1989.26 Q1226.27 1987.1 1226.27 1983.09 Q1226.27 1979.59 1224.1 1977.61 Q1221.97 1975.64 1217.07 1974.65 L1213.15 1973.89 Q1205.96 1972.46 1202.74 1969.4 Q1199.53 1966.35 1199.53 1960.9 Q1199.53 1954.6 1203.95 1950.97 Q1208.41 1947.34 1216.21 1947.34 Q1219.55 1947.34 1223.02 1947.95 Q1226.49 1948.55 1230.12 1949.76 Z" fill="#000000" fill-rule="nonzero" fill-opacity="1" /><path clip-path="url(#clip530)" d="M1256.57 1964.18 Q1251.86 1964.18 1249.12 1967.87 Q1246.38 1971.53 1246.38 1977.93 Q1246.38 1984.33 1249.09 1988.02 Q1251.82 1991.68 1256.57 1991.68 Q1261.24 1991.68 1263.98 1987.99 Q1266.72 1984.3 1266.72 1977.93 Q1266.72 1971.6 1263.98 1967.91 Q1261.24 1964.18 1256.57 1964.18 M1256.57 1959.22 Q1264.2 1959.22 1268.57 1964.18 Q1272.93 1969.15 1272.93 1977.93 Q1272.93 1986.68 1268.57 1991.68 Q1264.2 1996.65 1256.57 1996.65 Q1248.9 1996.65 1244.53 1991.68 Q1240.21 1986.68 1240.21 1977.93 Q1240.21 1969.15 1244.53 1964.18 Q1248.9 1959.22 1256.57 1959.22 Z" fill="#000000" fill-rule="nonzero" fill-opacity="1" /><path clip-path="url(#clip530)" d="M1282.03 1981.66 L1282.03 1960.08 L1287.89 1960.08 L1287.89 1981.43 Q1287.89 1986.49 1289.86 1989.04 Q1291.83 1991.55 1295.78 1991.55 Q1300.52 1991.55 1303.26 1988.53 Q1306.03 1985.51 1306.03 1980.29 L1306.03 1960.08 L1311.88 1960.08 L1311.88 1995.72 L1306.03 1995.72 L1306.03 1990.25 Q1303.89 1993.5 1301.06 1995.09 Q1298.26 1996.65 1294.54 1996.65 Q1288.39 1996.65 1285.21 1992.83 Q1282.03 1989.01 1282.03 1981.66 M1296.77 1959.22 L1296.77 1959.22 Z" fill="#000000" fill-rule="nonzero" fill-opacity="1" /><path clip-path="url(#clip530)" d="M1344.6 1965.55 Q1343.62 1964.98 1342.44 1964.72 Q1341.29 1964.44 1339.89 1964.44 Q1334.93 1964.44 1332.25 1967.68 Q1329.61 1970.9 1329.61 1976.95 L1329.61 1995.72 L1323.72 1995.72 L1323.72 1960.08 L1329.61 1960.08 L1329.61 1965.61 Q1331.46 1962.37 1334.42 1960.81 Q1337.38 1959.22 1341.61 1959.22 Q1342.22 1959.22 1342.95 1959.31 Q1343.68 1959.38 1344.57 1959.53 L1344.6 1965.55 Z" fill="#000000" fill-rule="nonzero" fill-opacity="1" /><path clip-path="url(#clip530)" d="M1374.97 1961.44 L1374.97 1966.92 Q1372.49 1965.55 1369.97 1964.88 Q1367.49 1964.18 1364.94 1964.18 Q1359.24 1964.18 1356.09 1967.81 Q1352.94 1971.41 1352.94 1977.93 Q1352.94 1984.46 1356.09 1988.08 Q1359.24 1991.68 1364.94 1991.68 Q1367.49 1991.68 1369.97 1991.01 Q1372.49 1990.31 1374.97 1988.94 L1374.97 1994.36 Q1372.52 1995.5 1369.88 1996.07 Q1367.27 1996.65 1364.31 1996.65 Q1356.25 1996.65 1351.51 1991.59 Q1346.77 1986.53 1346.77 1977.93 Q1346.77 1969.21 1351.54 1964.21 Q1356.35 1959.22 1364.69 1959.22 Q1367.39 1959.22 1369.97 1959.79 Q1372.55 1960.33 1374.97 1961.44 Z" fill="#000000" fill-rule="nonzero" fill-opacity="1" /><path clip-path="url(#clip530)" d="M1415.64 1976.44 L1415.64 1979.3 L1388.72 1979.3 Q1389.1 1985.35 1392.35 1988.53 Q1395.62 1991.68 1401.45 1991.68 Q1404.82 1991.68 1407.97 1990.85 Q1411.16 1990.03 1414.28 1988.37 L1414.28 1993.91 Q1411.13 1995.25 1407.82 1995.95 Q1404.5 1996.65 1401.1 1996.65 Q1392.57 1996.65 1387.57 1991.68 Q1382.61 1986.72 1382.61 1978.25 Q1382.61 1969.5 1387.32 1964.37 Q1392.06 1959.22 1400.08 1959.22 Q1407.27 1959.22 1411.44 1963.86 Q1415.64 1968.48 1415.64 1976.44 M1409.79 1974.72 Q1409.72 1969.91 1407.08 1967.05 Q1404.47 1964.18 1400.14 1964.18 Q1395.24 1964.18 1392.28 1966.95 Q1389.35 1969.72 1388.91 1974.75 L1409.79 1974.72 Z" fill="#000000" fill-rule="nonzero" fill-opacity="1" /><path clip-path="url(#clip530)" d="M1458.49 1995.72 L1440.34 1948.2 L1447.06 1948.2 L1462.11 1988.21 L1477.2 1948.2 L1483.89 1948.2 L1465.77 1995.72 L1458.49 1995.72 Z" fill="#000000" fill-rule="nonzero" fill-opacity="1" /><path clip-path="url(#clip530)" d="M1499.32 1964.18 Q1494.61 1964.18 1491.87 1967.87 Q1489.14 1971.53 1489.14 1977.93 Q1489.14 1984.33 1491.84 1988.02 Q1494.58 1991.68 1499.32 1991.68 Q1504 1991.68 1506.74 1987.99 Q1509.48 1984.3 1509.48 1977.93 Q1509.48 1971.6 1506.74 1967.91 Q1504 1964.18 1499.32 1964.18 M1499.32 1959.22 Q1506.96 1959.22 1511.32 1964.18 Q1515.68 1969.15 1515.68 1977.93 Q1515.68 1986.68 1511.32 1991.68 Q1506.96 1996.65 1499.32 1996.65 Q1491.65 1996.65 1487.29 1991.68 Q1482.96 1986.68 1482.96 1977.93 Q1482.96 1969.15 1487.29 1964.18 Q1491.65 1959.22 1499.32 1959.22 Z" fill="#000000" fill-rule="nonzero" fill-opacity="1" /><path clip-path="url(#clip530)" d="M1525.39 1946.2 L1531.25 1946.2 L1531.25 1995.72 L1525.39 1995.72 L1525.39 1946.2 Z" fill="#000000" fill-rule="nonzero" fill-opacity="1" /><path clip-path="url(#clip530)" d="M1549.29 1949.95 L1549.29 1960.08 L1561.36 1960.08 L1561.36 1964.63 L1549.29 1964.63 L1549.29 1983.98 Q1549.29 1988.34 1550.47 1989.58 Q1551.68 1990.82 1555.34 1990.82 L1561.36 1990.82 L1561.36 1995.72 L1555.34 1995.72 Q1548.56 1995.72 1545.98 1993.21 Q1543.4 1990.66 1543.4 1983.98 L1543.4 1964.63 L1539.11 1964.63 L1539.11 1960.08 L1543.4 1960.08 L1543.4 1949.95 L1549.29 1949.95 Z" fill="#000000" fill-rule="nonzero" fill-opacity="1" /><path clip-path="url(#clip530)" d="M1585.26 1977.8 Q1578.16 1977.8 1575.42 1979.43 Q1572.69 1981.05 1572.69 1984.97 Q1572.69 1988.08 1574.72 1989.93 Q1576.79 1991.75 1580.33 1991.75 Q1585.2 1991.75 1588.12 1988.31 Q1591.08 1984.84 1591.08 1979.11 L1591.08 1977.8 L1585.26 1977.8 M1596.94 1975.39 L1596.94 1995.72 L1591.08 1995.72 L1591.08 1990.31 Q1589.08 1993.56 1586.09 1995.12 Q1583.09 1996.65 1578.77 1996.65 Q1573.29 1996.65 1570.05 1993.59 Q1566.83 1990.5 1566.83 1985.35 Q1566.83 1979.33 1570.84 1976.28 Q1574.88 1973.22 1582.87 1973.22 L1591.08 1973.22 L1591.08 1972.65 Q1591.08 1968.61 1588.41 1966.41 Q1585.77 1964.18 1580.96 1964.18 Q1577.91 1964.18 1575.01 1964.91 Q1572.11 1965.65 1569.44 1967.11 L1569.44 1961.7 Q1572.66 1960.46 1575.68 1959.85 Q1578.7 1959.22 1581.57 1959.22 Q1589.3 1959.22 1593.12 1963.23 Q1596.94 1967.24 1596.94 1975.39 Z" fill="#000000" fill-rule="nonzero" fill-opacity="1" /><path clip-path="url(#clip530)" d="M1632.46 1977.49 Q1632.46 1971.12 1629.82 1967.62 Q1627.21 1964.12 1622.47 1964.12 Q1617.76 1964.12 1615.11 1967.62 Q1612.5 1971.12 1612.5 1977.49 Q1612.5 1983.82 1615.11 1987.32 Q1617.76 1990.82 1622.47 1990.82 Q1627.21 1990.82 1629.82 1987.32 Q1632.46 1983.82 1632.46 1977.49 M1638.32 1991.3 Q1638.32 2000.4 1634.28 2004.83 Q1630.23 2009.28 1621.89 2009.28 Q1618.81 2009.28 1616.07 2008.81 Q1613.33 2008.36 1610.75 2007.4 L1610.75 2001.71 Q1613.33 2003.11 1615.85 2003.78 Q1618.36 2004.44 1620.97 2004.44 Q1626.73 2004.44 1629.6 2001.42 Q1632.46 1998.43 1632.46 1992.35 L1632.46 1989.45 Q1630.65 1992.6 1627.81 1994.16 Q1624.98 1995.72 1621.03 1995.72 Q1614.48 1995.72 1610.47 1990.73 Q1606.46 1985.73 1606.46 1977.49 Q1606.46 1969.21 1610.47 1964.21 Q1614.48 1959.22 1621.03 1959.22 Q1624.98 1959.22 1627.81 1960.78 Q1630.65 1962.34 1632.46 1965.49 L1632.46 1960.08 L1638.32 1960.08 L1638.32 1991.3 Z" fill="#000000" fill-rule="nonzero" fill-opacity="1" /><path clip-path="url(#clip530)" d="M1680.87 1976.44 L1680.87 1979.3 L1653.95 1979.3 Q1654.33 1985.35 1657.57 1988.53 Q1660.85 1991.68 1666.68 1991.68 Q1670.05 1991.68 1673.2 1990.85 Q1676.38 1990.03 1679.5 1988.37 L1679.5 1993.91 Q1676.35 1995.25 1673.04 1995.95 Q1669.73 1996.65 1666.33 1996.65 Q1657.8 1996.65 1652.8 1991.68 Q1647.83 1986.72 1647.83 1978.25 Q1647.83 1969.5 1652.54 1964.37 Q1657.29 1959.22 1665.31 1959.22 Q1672.5 1959.22 1676.67 1963.86 Q1680.87 1968.48 1680.87 1976.44 M1675.02 1974.72 Q1674.95 1969.91 1672.31 1967.05 Q1669.7 1964.18 1665.37 1964.18 Q1660.47 1964.18 1657.51 1966.95 Q1654.58 1969.72 1654.14 1974.75 L1675.02 1974.72 Z" fill="#000000" fill-rule="nonzero" fill-opacity="1" /><path clip-path="url(#clip530)" d="M1725.27 1946.26 Q1721.01 1953.58 1718.94 1960.74 Q1716.87 1967.91 1716.87 1975.26 Q1716.87 1982.61 1718.94 1989.84 Q1721.04 1997.03 1725.27 2004.32 L1720.18 2004.32 Q1715.41 1996.84 1713.02 1989.61 Q1710.66 1982.39 1710.66 1975.26 Q1710.66 1968.16 1713.02 1960.97 Q1715.37 1953.77 1720.18 1946.26 L1725.27 1946.26 Z" fill="#000000" fill-rule="nonzero" fill-opacity="1" /><path clip-path="url(#clip530)" d="M1742.3 1990.38 L1742.3 2009.28 L1736.41 2009.28 L1736.41 1960.08 L1742.3 1960.08 L1742.3 1965.49 Q1744.15 1962.3 1746.95 1960.78 Q1749.78 1959.22 1753.7 1959.22 Q1760.19 1959.22 1764.23 1964.37 Q1768.3 1969.53 1768.3 1977.93 Q1768.3 1986.33 1764.23 1991.49 Q1760.19 1996.65 1753.7 1996.65 Q1749.78 1996.65 1746.95 1995.12 Q1744.15 1993.56 1742.3 1990.38 M1762.23 1977.93 Q1762.23 1971.47 1759.55 1967.81 Q1756.91 1964.12 1752.26 1964.12 Q1747.62 1964.12 1744.94 1967.81 Q1742.3 1971.47 1742.3 1977.93 Q1742.3 1984.39 1744.94 1988.08 Q1747.62 1991.75 1752.26 1991.75 Q1756.91 1991.75 1759.55 1988.08 Q1762.23 1984.39 1762.23 1977.93 Z" fill="#000000" fill-rule="nonzero" fill-opacity="1" /><path clip-path="url(#clip530)" d="M1777.41 1981.66 L1777.41 1960.08 L1783.26 1960.08 L1783.26 1981.43 Q1783.26 1986.49 1785.24 1989.04 Q1787.21 1991.55 1791.16 1991.55 Q1795.9 1991.55 1798.64 1988.53 Q1801.41 1985.51 1801.41 1980.29 L1801.41 1960.08 L1807.26 1960.08 L1807.26 1995.72 L1801.41 1995.72 L1801.41 1990.25 Q1799.27 1993.5 1796.44 1995.09 Q1793.64 1996.65 1789.92 1996.65 Q1783.77 1996.65 1780.59 1992.83 Q1777.41 1989.01 1777.41 1981.66 M1792.14 1959.22 L1792.14 1959.22 Z" fill="#000000" fill-rule="nonzero" fill-opacity="1" /><path clip-path="url(#clip530)" d="M1818.4 1946.26 L1823.5 1946.26 Q1828.27 1953.77 1830.63 1960.97 Q1833.01 1968.16 1833.01 1975.26 Q1833.01 1982.39 1830.63 1989.61 Q1828.27 1996.84 1823.5 2004.32 L1818.4 2004.32 Q1822.64 1997.03 1824.71 1989.84 Q1826.81 1982.61 1826.81 1975.26 Q1826.81 1967.91 1824.71 1960.74 Q1822.64 1953.58 1818.4 1946.26 Z" fill="#000000" fill-rule="nonzero" fill-opacity="1" /><polyline clip-path="url(#clip530)" style="stroke:#000000; stroke-linecap:round; stroke-linejoin:round; stroke-width:4; stroke-opacity:1; fill:none" points="208.344,1832.86 208.344,113.392 "/>
<polyline clip-path="url(#clip530)" style="stroke:#000000; stroke-linecap:round; stroke-linejoin:round; stroke-width:4; stroke-opacity:1; fill:none" points="208.344,1671.51 223.125,1671.51 "/>
<polyline clip-path="url(#clip530)" style="stroke:#000000; stroke-linecap:round; stroke-linejoin:round; stroke-width:4; stroke-opacity:1; fill:none" points="208.344,1429.66 223.125,1429.66 "/>
<polyline clip-path="url(#clip530)" style="stroke:#000000; stroke-linecap:round; stroke-linejoin:round; stroke-width:4; stroke-opacity:1; fill:none" points="208.344,1187.8 223.125,1187.8 "/>
<polyline clip-path="url(#clip530)" style="stroke:#000000; stroke-linecap:round; stroke-linejoin:round; stroke-width:4; stroke-opacity:1; fill:none" points="208.344,945.949 223.125,945.949 "/>
<polyline clip-path="url(#clip530)" style="stroke:#000000; stroke-linecap:round; stroke-linejoin:round; stroke-width:4; stroke-opacity:1; fill:none" points="208.344,704.096 223.125,704.096 "/>
<polyline clip-path="url(#clip530)" style="stroke:#000000; stroke-linecap:round; stroke-linejoin:round; stroke-width:4; stroke-opacity:1; fill:none" points="208.344,462.243 223.125,462.243 "/>
<polyline clip-path="url(#clip530)" style="stroke:#000000; stroke-linecap:round; stroke-linejoin:round; stroke-width:4; stroke-opacity:1; fill:none" points="208.344,220.389 223.125,220.389 "/>
<path clip-path="url(#clip530)" d="M103.882 1654.23 L122.238 1654.23 L122.238 1658.16 L108.164 1658.16 L108.164 1666.64 Q109.183 1666.29 110.201 1666.13 Q111.22 1665.94 112.238 1665.94 Q118.025 1665.94 121.405 1669.11 Q124.784 1672.28 124.784 1677.7 Q124.784 1683.28 121.312 1686.38 Q117.84 1689.46 111.521 1689.46 Q109.345 1689.46 107.076 1689.09 Q104.831 1688.72 102.423 1687.98 L102.423 1683.28 Q104.507 1684.41 106.729 1684.97 Q108.951 1685.52 111.428 1685.52 Q115.433 1685.52 117.771 1683.42 Q120.109 1681.31 120.109 1677.7 Q120.109 1674.09 117.771 1671.98 Q115.433 1669.88 111.428 1669.88 Q109.553 1669.88 107.678 1670.29 Q105.826 1670.71 103.882 1671.59 L103.882 1654.23 Z" fill="#000000" fill-rule="nonzero" fill-opacity="1" /><path clip-path="url(#clip530)" d="M138.025 1684.85 L154.344 1684.85 L154.344 1688.79 L132.4 1688.79 L132.4 1684.85 Q135.062 1682.1 139.646 1677.47 Q144.252 1672.82 145.433 1671.47 Q147.678 1668.95 148.557 1667.21 Q149.46 1665.46 149.46 1663.77 Q149.46 1661.01 147.516 1659.28 Q145.595 1657.54 142.493 1657.54 Q140.294 1657.54 137.84 1658.3 Q135.409 1659.07 132.632 1660.62 L132.632 1655.9 Q135.456 1654.76 137.909 1654.18 Q140.363 1653.6 142.4 1653.6 Q147.77 1653.6 150.965 1656.29 Q154.159 1658.97 154.159 1663.46 Q154.159 1665.59 153.349 1667.52 Q152.562 1669.41 150.456 1672.01 Q149.877 1672.68 146.775 1675.9 Q143.673 1679.09 138.025 1684.85 Z" fill="#000000" fill-rule="nonzero" fill-opacity="1" /><path clip-path="url(#clip530)" d="M102.933 1412.38 L121.289 1412.38 L121.289 1416.31 L107.215 1416.31 L107.215 1424.78 Q108.234 1424.44 109.252 1424.27 Q110.271 1424.09 111.289 1424.09 Q117.076 1424.09 120.456 1427.26 Q123.835 1430.43 123.835 1435.85 Q123.835 1441.43 120.363 1444.53 Q116.891 1447.61 110.572 1447.61 Q108.396 1447.61 106.127 1447.24 Q103.882 1446.87 101.474 1446.13 L101.474 1441.43 Q103.558 1442.56 105.78 1443.12 Q108.002 1443.67 110.479 1443.67 Q114.484 1443.67 116.822 1441.57 Q119.16 1439.46 119.16 1435.85 Q119.16 1432.24 116.822 1430.13 Q114.484 1428.02 110.479 1428.02 Q108.604 1428.02 106.729 1428.44 Q104.877 1428.86 102.933 1429.74 L102.933 1412.38 Z" fill="#000000" fill-rule="nonzero" fill-opacity="1" /><path clip-path="url(#clip530)" d="M147.215 1428.3 Q150.571 1429.02 152.446 1431.29 Q154.344 1433.56 154.344 1436.89 Q154.344 1442.01 150.826 1444.81 Q147.307 1447.61 140.826 1447.61 Q138.65 1447.61 136.335 1447.17 Q134.044 1446.75 131.59 1445.89 L131.59 1441.38 Q133.534 1442.51 135.849 1443.09 Q138.164 1443.67 140.687 1443.67 Q145.085 1443.67 147.377 1441.94 Q149.692 1440.2 149.692 1436.89 Q149.692 1433.83 147.539 1432.12 Q145.409 1430.38 141.59 1430.38 L137.562 1430.38 L137.562 1426.54 L141.775 1426.54 Q145.224 1426.54 147.053 1425.18 Q148.882 1423.79 148.882 1421.19 Q148.882 1418.53 146.983 1417.12 Q145.108 1415.69 141.59 1415.69 Q139.669 1415.69 137.47 1416.1 Q135.271 1416.52 132.632 1417.4 L132.632 1413.23 Q135.294 1412.49 137.608 1412.12 Q139.946 1411.75 142.007 1411.75 Q147.331 1411.75 150.432 1414.18 Q153.534 1416.59 153.534 1420.71 Q153.534 1423.58 151.891 1425.57 Q150.247 1427.54 147.215 1428.3 Z" fill="#000000" fill-rule="nonzero" fill-opacity="1" /><path clip-path="url(#clip530)" d="M101.798 1170.52 L120.155 1170.52 L120.155 1174.46 L106.081 1174.46 L106.081 1182.93 Q107.099 1182.58 108.118 1182.42 Q109.136 1182.24 110.155 1182.24 Q115.942 1182.24 119.322 1185.41 Q122.701 1188.58 122.701 1193.99 Q122.701 1199.57 119.229 1202.67 Q115.757 1205.75 109.437 1205.75 Q107.261 1205.75 104.993 1205.38 Q102.748 1205.01 100.34 1204.27 L100.34 1199.57 Q102.423 1200.71 104.646 1201.26 Q106.868 1201.82 109.345 1201.82 Q113.349 1201.82 115.687 1199.71 Q118.025 1197.61 118.025 1193.99 Q118.025 1190.38 115.687 1188.28 Q113.349 1186.17 109.345 1186.17 Q107.47 1186.17 105.595 1186.59 Q103.743 1187 101.798 1187.88 L101.798 1170.52 Z" fill="#000000" fill-rule="nonzero" fill-opacity="1" /><path clip-path="url(#clip530)" d="M144.761 1174.6 L132.956 1193.05 L144.761 1193.05 L144.761 1174.6 M143.534 1170.52 L149.414 1170.52 L149.414 1193.05 L154.344 1193.05 L154.344 1196.93 L149.414 1196.93 L149.414 1205.08 L144.761 1205.08 L144.761 1196.93 L129.159 1196.93 L129.159 1192.42 L143.534 1170.52 Z" fill="#000000" fill-rule="nonzero" fill-opacity="1" /><path clip-path="url(#clip530)" d="M103.28 928.669 L121.636 928.669 L121.636 932.604 L107.562 932.604 L107.562 941.076 Q108.581 940.729 109.599 940.567 Q110.618 940.382 111.636 940.382 Q117.423 940.382 120.803 943.553 Q124.183 946.725 124.183 952.141 Q124.183 957.72 120.71 960.822 Q117.238 963.9 110.919 963.9 Q108.743 963.9 106.474 963.53 Q104.229 963.16 101.822 962.419 L101.822 957.72 Q103.905 958.854 106.127 959.41 Q108.349 959.965 110.826 959.965 Q114.831 959.965 117.169 957.859 Q119.507 955.752 119.507 952.141 Q119.507 948.53 117.169 946.424 Q114.831 944.317 110.826 944.317 Q108.951 944.317 107.076 944.734 Q105.224 945.151 103.28 946.03 L103.28 928.669 Z" fill="#000000" fill-rule="nonzero" fill-opacity="1" /><path clip-path="url(#clip530)" d="M133.442 928.669 L151.798 928.669 L151.798 932.604 L137.724 932.604 L137.724 941.076 Q138.743 940.729 139.761 940.567 Q140.78 940.382 141.798 940.382 Q147.585 940.382 150.965 943.553 Q154.344 946.725 154.344 952.141 Q154.344 957.72 150.872 960.822 Q147.4 963.9 141.081 963.9 Q138.905 963.9 136.636 963.53 Q134.391 963.16 131.984 962.419 L131.984 957.72 Q134.067 958.854 136.289 959.41 Q138.511 959.965 140.988 959.965 Q144.993 959.965 147.331 957.859 Q149.669 955.752 149.669 952.141 Q149.669 948.53 147.331 946.424 Q144.993 944.317 140.988 944.317 Q139.113 944.317 137.238 944.734 Q135.386 945.151 133.442 946.03 L133.442 928.669 Z" fill="#000000" fill-rule="nonzero" fill-opacity="1" /><path clip-path="url(#clip530)" d="M102.123 686.816 L120.479 686.816 L120.479 690.751 L106.405 690.751 L106.405 699.223 Q107.423 698.876 108.442 698.714 Q109.46 698.529 110.479 698.529 Q116.266 698.529 119.646 701.7 Q123.025 704.871 123.025 710.288 Q123.025 715.867 119.553 718.969 Q116.081 722.047 109.761 722.047 Q107.585 722.047 105.317 721.677 Q103.072 721.306 100.664 720.566 L100.664 715.867 Q102.748 717.001 104.97 717.556 Q107.192 718.112 109.669 718.112 Q113.673 718.112 116.011 716.006 Q118.349 713.899 118.349 710.288 Q118.349 706.677 116.011 704.57 Q113.673 702.464 109.669 702.464 Q107.794 702.464 105.919 702.881 Q104.067 703.297 102.123 704.177 L102.123 686.816 Z" fill="#000000" fill-rule="nonzero" fill-opacity="1" /><path clip-path="url(#clip530)" d="M142.817 702.232 Q139.669 702.232 137.817 704.385 Q135.988 706.538 135.988 710.288 Q135.988 714.015 137.817 716.191 Q139.669 718.344 142.817 718.344 Q145.965 718.344 147.794 716.191 Q149.645 714.015 149.645 710.288 Q149.645 706.538 147.794 704.385 Q145.965 702.232 142.817 702.232 M152.099 687.58 L152.099 691.839 Q150.34 691.006 148.534 690.566 Q146.752 690.126 144.993 690.126 Q140.363 690.126 137.909 693.251 Q135.479 696.376 135.132 702.695 Q136.497 700.682 138.558 699.617 Q140.618 698.529 143.095 698.529 Q148.303 698.529 151.312 701.7 Q154.344 704.848 154.344 710.288 Q154.344 715.612 151.196 718.83 Q148.048 722.047 142.817 722.047 Q136.821 722.047 133.65 717.464 Q130.479 712.857 130.479 704.131 Q130.479 695.936 134.368 691.075 Q138.257 686.191 144.808 686.191 Q146.567 686.191 148.349 686.538 Q150.155 686.885 152.099 687.58 Z" fill="#000000" fill-rule="nonzero" fill-opacity="1" /><path clip-path="url(#clip530)" d="M103.187 444.963 L121.544 444.963 L121.544 448.898 L107.47 448.898 L107.47 457.37 Q108.488 457.023 109.507 456.861 Q110.525 456.676 111.544 456.676 Q117.331 456.676 120.71 459.847 Q124.09 463.018 124.09 468.435 Q124.09 474.013 120.618 477.115 Q117.146 480.194 110.826 480.194 Q108.65 480.194 106.382 479.824 Q104.136 479.453 101.729 478.713 L101.729 474.013 Q103.812 475.148 106.035 475.703 Q108.257 476.259 110.734 476.259 Q114.738 476.259 117.076 474.152 Q119.414 472.046 119.414 468.435 Q119.414 464.824 117.076 462.717 Q114.738 460.611 110.734 460.611 Q108.859 460.611 106.984 461.027 Q105.132 461.444 103.187 462.324 L103.187 444.963 Z" fill="#000000" fill-rule="nonzero" fill-opacity="1" /><path clip-path="url(#clip530)" d="M132.122 444.963 L154.344 444.963 L154.344 446.953 L141.798 479.523 L136.914 479.523 L148.72 448.898 L132.122 448.898 L132.122 444.963 Z" fill="#000000" fill-rule="nonzero" fill-opacity="1" /><path clip-path="url(#clip530)" d="M102.377 203.109 L120.734 203.109 L120.734 207.045 L106.66 207.045 L106.66 215.517 Q107.678 215.17 108.697 215.008 Q109.715 214.822 110.734 214.822 Q116.521 214.822 119.9 217.994 Q123.28 221.165 123.28 226.582 Q123.28 232.16 119.808 235.262 Q116.335 238.341 110.016 238.341 Q107.84 238.341 105.572 237.97 Q103.326 237.6 100.919 236.859 L100.919 232.16 Q103.002 233.294 105.224 233.85 Q107.447 234.406 109.923 234.406 Q113.928 234.406 116.266 232.299 Q118.604 230.193 118.604 226.582 Q118.604 222.97 116.266 220.864 Q113.928 218.758 109.923 218.758 Q108.048 218.758 106.173 219.174 Q104.322 219.591 102.377 220.47 L102.377 203.109 Z" fill="#000000" fill-rule="nonzero" fill-opacity="1" /><path clip-path="url(#clip530)" d="M142.493 221.258 Q139.159 221.258 137.238 223.04 Q135.34 224.822 135.34 227.947 Q135.34 231.072 137.238 232.855 Q139.159 234.637 142.493 234.637 Q145.826 234.637 147.747 232.855 Q149.669 231.049 149.669 227.947 Q149.669 224.822 147.747 223.04 Q145.849 221.258 142.493 221.258 M137.817 219.267 Q134.808 218.526 133.118 216.466 Q131.451 214.406 131.451 211.443 Q131.451 207.299 134.391 204.892 Q137.354 202.484 142.493 202.484 Q147.655 202.484 150.595 204.892 Q153.534 207.299 153.534 211.443 Q153.534 214.406 151.845 216.466 Q150.178 218.526 147.192 219.267 Q150.571 220.054 152.446 222.345 Q154.344 224.637 154.344 227.947 Q154.344 232.97 151.266 235.656 Q148.21 238.341 142.493 238.341 Q136.775 238.341 133.696 235.656 Q130.641 232.97 130.641 227.947 Q130.641 224.637 132.539 222.345 Q134.437 220.054 137.817 219.267 M136.104 211.883 Q136.104 214.568 137.771 216.072 Q139.46 217.577 142.493 217.577 Q145.502 217.577 147.192 216.072 Q148.905 214.568 148.905 211.883 Q148.905 209.197 147.192 207.693 Q145.502 206.188 142.493 206.188 Q139.46 206.188 137.771 207.693 Q136.104 209.197 136.104 211.883 Z" fill="#000000" fill-rule="nonzero" fill-opacity="1" /><path clip-path="url(#clip530)" d="M-10.1523 1274.62 L7.7035 1274.62 L7.7035 1266.54 Q7.7035 1262.05 5.38002 1259.6 Q3.05654 1257.15 -1.24032 1257.15 Q-5.50534 1257.15 -7.82882 1259.6 Q-10.1523 1262.05 -10.1523 1266.54 L-10.1523 1274.62 M-15.4358 1281.05 L-15.4358 1266.54 Q-15.4358 1258.55 -11.8074 1254.47 Q-8.21077 1250.37 -1.24032 1250.37 Q5.79379 1250.37 9.39041 1254.47 Q12.987 1258.55 12.987 1266.54 L12.987 1274.62 L32.0842 1274.62 L32.0842 1281.05 L-15.4358 1281.05 Z" fill="#000000" fill-rule="nonzero" fill-opacity="1" /><path clip-path="url(#clip530)" d="M12.7961 1213.83 L15.6606 1213.83 L15.6606 1240.76 Q21.7081 1240.37 24.8909 1237.13 Q28.0419 1233.85 28.0419 1228.02 Q28.0419 1224.65 27.2144 1221.5 Q26.3869 1218.32 24.7318 1215.2 L30.2699 1215.2 Q31.6067 1218.35 32.307 1221.66 Q33.0072 1224.97 33.0072 1228.37 Q33.0072 1236.9 28.0419 1241.9 Q23.0767 1246.87 14.6103 1246.87 Q5.85745 1246.87 0.733052 1242.16 Q-4.42317 1237.41 -4.42317 1229.39 Q-4.42317 1222.2 0.223796 1218.03 Q4.83893 1213.83 12.7961 1213.83 M11.0773 1219.69 Q6.27122 1219.75 3.40665 1222.39 Q0.542081 1225 0.542081 1229.33 Q0.542081 1234.23 3.31116 1237.19 Q6.08025 1240.12 11.1092 1240.57 L11.0773 1219.69 Z" fill="#000000" fill-rule="nonzero" fill-opacity="1" /><path clip-path="url(#clip530)" d="M1.91071 1183.56 Q1.33779 1184.55 1.08317 1185.72 Q0.796709 1186.87 0.796709 1188.27 Q0.796709 1193.24 4.04322 1195.91 Q7.2579 1198.55 13.3053 1198.55 L32.0842 1198.55 L32.0842 1204.44 L-3.5638 1204.44 L-3.5638 1198.55 L1.97437 1198.55 Q-1.27215 1196.71 -2.83174 1193.75 Q-4.42317 1190.79 -4.42317 1186.55 Q-4.42317 1185.95 -4.32768 1185.22 Q-4.26403 1184.48 -4.10488 1183.59 L1.91071 1183.56 Z" fill="#000000" fill-rule="nonzero" fill-opacity="1" /><path clip-path="url(#clip530)" d="M-2.19517 1153.2 L3.27933 1153.2 Q1.91071 1155.68 1.24231 1158.19 Q0.542081 1160.68 0.542081 1163.22 Q0.542081 1168.92 4.17053 1172.07 Q7.76716 1175.22 14.292 1175.22 Q20.8169 1175.22 24.4453 1172.07 Q28.0419 1168.92 28.0419 1163.22 Q28.0419 1160.68 27.3735 1158.19 Q26.6733 1155.68 25.3047 1153.2 L30.7155 1153.2 Q31.8614 1155.65 32.4343 1158.29 Q33.0072 1160.9 33.0072 1163.86 Q33.0072 1171.91 27.9464 1176.65 Q22.8857 1181.4 14.292 1181.4 Q5.57099 1181.4 0.57391 1176.62 Q-4.42317 1171.82 -4.42317 1163.48 Q-4.42317 1160.77 -3.85026 1158.19 Q-3.30917 1155.61 -2.19517 1153.2 Z" fill="#000000" fill-rule="nonzero" fill-opacity="1" /><path clip-path="url(#clip530)" d="M12.7961 1112.52 L15.6606 1112.52 L15.6606 1139.45 Q21.7081 1139.06 24.8909 1135.82 Q28.0419 1132.54 28.0419 1126.71 Q28.0419 1123.34 27.2144 1120.19 Q26.3869 1117.01 24.7318 1113.89 L30.2699 1113.89 Q31.6067 1117.04 32.307 1120.35 Q33.0072 1123.66 33.0072 1127.06 Q33.0072 1135.59 28.0419 1140.59 Q23.0767 1145.56 14.6103 1145.56 Q5.85745 1145.56 0.733052 1140.85 Q-4.42317 1136.1 -4.42317 1128.08 Q-4.42317 1120.89 0.223796 1116.72 Q4.83893 1112.52 12.7961 1112.52 M11.0773 1118.38 Q6.27122 1118.44 3.40665 1121.08 Q0.542081 1123.69 0.542081 1128.02 Q0.542081 1132.92 3.31116 1135.88 Q6.08025 1138.81 11.1092 1139.26 L11.0773 1118.38 Z" fill="#000000" fill-rule="nonzero" fill-opacity="1" /><path clip-path="url(#clip530)" d="M10.5681 1073.27 L32.0842 1073.27 L32.0842 1079.13 L10.759 1079.13 Q5.6983 1079.13 3.18385 1081.1 Q0.669395 1083.08 0.669395 1087.02 Q0.669395 1091.77 3.69311 1094.5 Q6.71682 1097.24 11.9367 1097.24 L32.0842 1097.24 L32.0842 1103.13 L-3.5638 1103.13 L-3.5638 1097.24 L1.97437 1097.24 Q-1.24032 1095.14 -2.83174 1092.31 Q-4.42317 1089.44 -4.42317 1085.72 Q-4.42317 1079.58 -0.603746 1076.43 Q3.18385 1073.27 10.5681 1073.27 Z" fill="#000000" fill-rule="nonzero" fill-opacity="1" /><path clip-path="url(#clip530)" d="M-13.6853 1055.8 L-3.5638 1055.8 L-3.5638 1043.74 L0.987681 1043.74 L0.987681 1055.8 L20.3394 1055.8 Q24.6999 1055.8 25.9413 1054.62 Q27.1826 1053.41 27.1826 1049.75 L27.1826 1043.74 L32.0842 1043.74 L32.0842 1049.75 Q32.0842 1056.53 29.5697 1059.11 Q27.0234 1061.69 20.3394 1061.69 L0.987681 1061.69 L0.987681 1065.99 L-3.5638 1065.99 L-3.5638 1061.69 L-13.6853 1061.69 L-13.6853 1055.8 Z" fill="#000000" fill-rule="nonzero" fill-opacity="1" /><path clip-path="url(#clip530)" d="M-13.8762 986.574 L-7.60602 986.574 Q-9.35659 990.234 -10.216 993.48 Q-11.0753 996.727 -11.0753 999.751 Q-11.0753 1005 -9.03831 1007.87 Q-7.00128 1010.7 -3.24551 1010.7 Q-0.0944895 1010.7 1.52877 1008.82 Q3.12019 1006.91 4.10688 1001.63 L4.90259 997.745 Q6.27122 990.552 9.74053 987.146 Q13.178 983.709 18.9708 983.709 Q25.8776 983.709 29.4424 988.356 Q33.0072 992.971 33.0072 1001.91 Q33.0072 1005.29 32.2433 1009.11 Q31.4794 1012.9 29.9835 1016.97 L23.3631 1016.97 Q25.5593 1013.05 26.6733 1009.3 Q27.7873 1005.54 27.7873 1001.91 Q27.7873 996.409 25.623 993.417 Q23.4586 990.425 19.4482 990.425 Q15.9471 990.425 13.9737 992.589 Q12.0004 994.722 11.0137 999.623 L10.2498 1003.54 Q8.8175 1010.73 5.76196 1013.95 Q2.70642 1017.16 -2.73626 1017.16 Q-9.03831 1017.16 -12.6668 1012.74 Q-16.2952 1008.28 -16.2952 1000.48 Q-16.2952 997.141 -15.6905 993.671 Q-15.0857 990.202 -13.8762 986.574 Z" fill="#000000" fill-rule="nonzero" fill-opacity="1" /><path clip-path="url(#clip530)" d="M12.7961 943.446 L15.6606 943.446 L15.6606 970.373 Q21.7081 969.991 24.8909 966.744 Q28.0419 963.466 28.0419 957.641 Q28.0419 954.268 27.2144 951.117 Q26.3869 947.934 24.7318 944.815 L30.2699 944.815 Q31.6067 947.966 32.307 951.276 Q33.0072 954.586 33.0072 957.992 Q33.0072 966.522 28.0419 971.519 Q23.0767 976.484 14.6103 976.484 Q5.85745 976.484 0.733052 971.773 Q-4.42317 967.031 -4.42317 959.01 Q-4.42317 951.817 0.223796 947.647 Q4.83893 943.446 12.7961 943.446 M11.0773 949.302 Q6.27122 949.366 3.40665 952.008 Q0.542081 954.618 0.542081 958.946 Q0.542081 963.848 3.31116 966.808 Q6.08025 969.736 11.1092 970.182 L11.0773 949.302 Z" fill="#000000" fill-rule="nonzero" fill-opacity="1" /><path clip-path="url(#clip530)" d="M1.91071 913.177 Q1.33779 914.164 1.08317 915.341 Q0.796709 916.487 0.796709 917.888 Q0.796709 922.853 4.04322 925.526 Q7.2579 928.168 13.3053 928.168 L32.0842 928.168 L32.0842 934.056 L-3.5638 934.056 L-3.5638 928.168 L1.97437 928.168 Q-1.27215 926.322 -2.83174 923.362 Q-4.42317 920.402 -4.42317 916.169 Q-4.42317 915.564 -4.32768 914.832 Q-4.26403 914.1 -4.10488 913.209 L1.91071 913.177 Z" fill="#000000" fill-rule="nonzero" fill-opacity="1" /><path clip-path="url(#clip530)" d="M-3.5638 911.235 L-3.5638 905.029 L26.355 893.889 L-3.5638 882.749 L-3.5638 876.542 L32.0842 889.91 L32.0842 897.867 L-3.5638 911.235 Z" fill="#000000" fill-rule="nonzero" fill-opacity="1" /><path clip-path="url(#clip530)" d="M12.7961 837.966 L15.6606 837.966 L15.6606 864.893 Q21.7081 864.511 24.8909 861.265 Q28.0419 857.986 28.0419 852.162 Q28.0419 848.788 27.2144 845.637 Q26.3869 842.454 24.7318 839.335 L30.2699 839.335 Q31.6067 842.486 32.307 845.796 Q33.0072 849.106 33.0072 852.512 Q33.0072 861.042 28.0419 866.039 Q23.0767 871.004 14.6103 871.004 Q5.85745 871.004 0.733052 866.294 Q-4.42317 861.551 -4.42317 853.53 Q-4.42317 846.337 0.223796 842.167 Q4.83893 837.966 12.7961 837.966 M11.0773 843.823 Q6.27122 843.886 3.40665 846.528 Q0.542081 849.138 0.542081 853.467 Q0.542081 858.368 3.31116 861.328 Q6.08025 864.256 11.1092 864.702 L11.0773 843.823 Z" fill="#000000" fill-rule="nonzero" fill-opacity="1" /><path clip-path="url(#clip530)" d="M1.84705 804.896 L-17.441 804.896 L-17.441 799.04 L32.0842 799.04 L32.0842 804.896 L26.737 804.896 Q29.9198 806.742 31.4794 809.575 Q33.0072 812.376 33.0072 816.323 Q33.0072 822.784 27.851 826.858 Q22.6947 830.9 14.292 830.9 Q5.88927 830.9 0.733052 826.858 Q-4.42317 822.784 -4.42317 816.323 Q-4.42317 812.376 -2.86357 809.575 Q-1.3358 806.742 1.84705 804.896 M14.292 824.853 Q20.7532 824.853 24.4453 822.211 Q28.1056 819.537 28.1056 814.89 Q28.1056 810.243 24.4453 807.57 Q20.7532 804.896 14.292 804.896 Q7.83082 804.896 4.17053 807.57 Q0.478424 810.243 0.478424 814.89 Q0.478424 819.537 4.17053 822.211 Q7.83082 824.853 14.292 824.853 Z" fill="#000000" fill-rule="nonzero" fill-opacity="1" /><path clip-path="url(#clip530)" d="M-17.3774 752.188 Q-10.0568 756.453 -2.8954 758.522 Q4.26602 760.591 11.6184 760.591 Q18.9708 760.591 26.1959 758.522 Q33.3891 756.421 40.6779 752.188 L40.6779 757.281 Q33.1982 762.055 25.9731 764.442 Q18.748 766.798 11.6184 766.798 Q4.52065 766.798 -2.6726 764.442 Q-9.86585 762.087 -17.3774 757.281 L-17.3774 752.188 Z" fill="#000000" fill-rule="nonzero" fill-opacity="1" /><path clip-path="url(#clip530)" d="M11.1728 699.576 Q11.1728 702.345 13.5281 703.936 Q15.8834 705.496 20.0848 705.496 Q24.2225 705.496 26.6096 703.936 Q28.965 702.345 28.965 699.576 Q28.965 696.87 26.6096 695.311 Q24.2225 693.719 20.0848 693.719 Q15.9153 693.719 13.56 695.311 Q11.1728 696.87 11.1728 699.576 M7.13059 699.576 Q7.13059 694.547 10.6317 691.587 Q14.1329 688.627 20.0848 688.627 Q26.0367 688.627 29.5379 691.619 Q33.0072 694.579 33.0072 699.576 Q33.0072 704.668 29.5379 707.628 Q26.0367 710.588 20.0848 710.588 Q14.101 710.588 10.6317 707.628 Q7.13059 704.636 7.13059 699.576 M-12.253 732.423 Q-12.253 735.16 -9.86585 736.751 Q-7.51054 738.311 -3.37283 738.311 Q0.828538 738.311 3.18385 736.751 Q5.53916 735.192 5.53916 732.423 Q5.53916 729.654 3.18385 728.094 Q0.828538 726.503 -3.37283 726.503 Q-7.47871 726.503 -9.86585 728.094 Q-12.253 729.685 -12.253 732.423 M-16.2952 703.682 L-16.2952 698.589 L33.0072 728.317 L33.0072 733.409 L-16.2952 703.682 M-16.2952 732.423 Q-16.2952 727.394 -12.7941 724.402 Q-9.32476 721.41 -3.37283 721.41 Q2.64276 721.41 6.11207 724.402 Q9.58138 727.362 9.58138 732.423 Q9.58138 737.483 6.11207 740.443 Q2.61094 743.372 -3.37283 743.372 Q-9.29294 743.372 -12.7941 740.412 Q-16.2952 737.452 -16.2952 732.423 Z" fill="#000000" fill-rule="nonzero" fill-opacity="1" /><path clip-path="url(#clip530)" d="M-17.3774 679.81 L-17.3774 674.718 Q-9.86585 669.943 -2.6726 667.588 Q4.52065 665.201 11.6184 665.201 Q18.748 665.201 25.9731 667.588 Q33.1982 669.943 40.6779 674.718 L40.6779 679.81 Q33.3891 675.577 26.1959 673.508 Q18.9708 671.407 11.6184 671.407 Q4.26602 671.407 -2.8954 673.508 Q-10.0568 675.577 -17.3774 679.81 Z" fill="#000000" fill-rule="nonzero" fill-opacity="1" /><path clip-path="url(#clip530)" d="M880.765 12.096 L888.948 12.096 L888.948 65.6895 L918.398 65.6895 L918.398 72.576 L880.765 72.576 L880.765 12.096 Z" fill="#000000" fill-rule="nonzero" fill-opacity="1" /><path clip-path="url(#clip530)" d="M942.784 32.4315 Q936.789 32.4315 933.305 37.1306 Q929.821 41.7891 929.821 49.9314 Q929.821 58.0738 933.265 62.7728 Q936.748 67.4314 942.784 67.4314 Q948.739 67.4314 952.223 62.7323 Q955.707 58.0333 955.707 49.9314 Q955.707 41.8701 952.223 37.1711 Q948.739 32.4315 942.784 32.4315 M942.784 26.1121 Q952.506 26.1121 958.056 32.4315 Q963.606 38.7509 963.606 49.9314 Q963.606 61.0714 958.056 67.4314 Q952.506 73.7508 942.784 73.7508 Q933.022 73.7508 927.472 67.4314 Q921.963 61.0714 921.963 49.9314 Q921.963 38.7509 927.472 32.4315 Q933.022 26.1121 942.784 26.1121 Z" fill="#000000" fill-rule="nonzero" fill-opacity="1" /><path clip-path="url(#clip530)" d="M996.58 49.7694 Q987.547 49.7694 984.063 51.8354 Q980.579 53.9013 980.579 58.8839 Q980.579 62.8538 983.172 65.2034 Q985.805 67.5124 990.301 67.5124 Q996.499 67.5124 1000.23 63.1374 Q1003.99 58.7219 1003.99 51.4303 L1003.99 49.7694 L996.58 49.7694 M1011.45 46.6907 L1011.45 72.576 L1003.99 72.576 L1003.99 65.6895 Q1001.44 69.8214 997.633 71.8063 Q993.826 73.7508 988.316 73.7508 Q981.349 73.7508 977.217 69.8619 Q973.126 65.9325 973.126 59.3701 Q973.126 51.7138 978.23 47.825 Q983.374 43.9361 993.542 43.9361 L1003.99 43.9361 L1003.99 43.2069 Q1003.99 38.0623 1000.59 35.2672 Q997.228 32.4315 991.112 32.4315 Q987.223 32.4315 983.536 33.3632 Q979.85 34.295 976.447 36.1584 L976.447 29.2718 Q980.539 27.692 984.387 26.9223 Q988.235 26.1121 991.881 26.1121 Q1001.72 26.1121 1006.59 31.2163 Q1011.45 36.3204 1011.45 46.6907 Z" fill="#000000" fill-rule="nonzero" fill-opacity="1" /><path clip-path="url(#clip530)" d="M1056.66 34.0924 L1056.66 9.54393 L1064.11 9.54393 L1064.11 72.576 L1056.66 72.576 L1056.66 65.7705 Q1054.31 69.8214 1050.7 71.8063 Q1047.14 73.7508 1042.11 73.7508 Q1033.89 73.7508 1028.7 67.1883 Q1023.56 60.6258 1023.56 49.9314 Q1023.56 39.2371 1028.7 32.6746 Q1033.89 26.1121 1042.11 26.1121 Q1047.14 26.1121 1050.7 28.0971 Q1054.31 30.0415 1056.66 34.0924 M1031.26 49.9314 Q1031.26 58.1548 1034.62 62.8538 Q1038.02 67.5124 1043.94 67.5124 Q1049.85 67.5124 1053.25 62.8538 Q1056.66 58.1548 1056.66 49.9314 Q1056.66 41.7081 1053.25 37.0496 Q1049.85 32.3505 1043.94 32.3505 Q1038.02 32.3505 1034.62 37.0496 Q1031.26 41.7081 1031.26 49.9314 Z" fill="#000000" fill-rule="nonzero" fill-opacity="1" /><path clip-path="url(#clip530)" d="M1142.41 14.0809 L1142.41 22.0612 Q1137.75 19.8332 1133.62 18.7395 Q1129.49 17.6457 1125.64 17.6457 Q1118.96 17.6457 1115.31 20.2383 Q1111.71 22.8309 1111.71 27.611 Q1111.71 31.6214 1114.1 33.6873 Q1116.53 35.7128 1123.25 36.9686 L1128.19 37.9813 Q1137.35 39.7232 1141.68 44.1387 Q1146.06 48.5136 1146.06 55.8863 Q1146.06 64.6767 1140.14 69.2137 Q1134.27 73.7508 1122.89 73.7508 Q1118.59 73.7508 1113.73 72.7785 Q1108.91 71.8063 1103.73 69.9024 L1103.73 61.4765 Q1108.71 64.2716 1113.49 65.6895 Q1118.27 67.1073 1122.89 67.1073 Q1129.9 67.1073 1133.7 64.3527 Q1137.51 61.598 1137.51 56.4939 Q1137.51 52.0379 1134.76 49.5264 Q1132.04 47.0148 1125.8 45.759 L1120.82 44.7868 Q1111.67 42.9639 1107.58 39.075 Q1103.48 35.1862 1103.48 28.2591 Q1103.48 20.2383 1109.11 15.6203 Q1114.79 11.0023 1124.71 11.0023 Q1128.96 11.0023 1133.38 11.7719 Q1137.79 12.5416 1142.41 14.0809 Z" fill="#000000" fill-rule="nonzero" fill-opacity="1" /><path clip-path="url(#clip530)" d="M1197.3 48.0275 L1197.3 51.6733 L1163.03 51.6733 Q1163.52 59.3701 1167.65 63.421 Q1171.82 67.4314 1179.24 67.4314 Q1183.53 67.4314 1187.54 66.3781 Q1191.59 65.3249 1195.56 63.2184 L1195.56 70.267 Q1191.55 71.9684 1187.34 72.8596 Q1183.12 73.7508 1178.79 73.7508 Q1167.93 73.7508 1161.57 67.4314 Q1155.25 61.1119 1155.25 50.3365 Q1155.25 39.1965 1161.25 32.6746 Q1167.29 26.1121 1177.49 26.1121 Q1186.65 26.1121 1191.96 32.0264 Q1197.3 37.9003 1197.3 48.0275 M1189.85 45.84 Q1189.77 39.7232 1186.41 36.0774 Q1183.08 32.4315 1177.57 32.4315 Q1171.34 32.4315 1167.57 35.9558 Q1163.84 39.4801 1163.27 45.8805 L1189.85 45.84 Z" fill="#000000" fill-rule="nonzero" fill-opacity="1" /><path clip-path="url(#clip530)" d="M1235.83 34.1734 Q1234.57 33.4443 1233.07 33.1202 Q1231.61 32.7556 1229.83 32.7556 Q1223.51 32.7556 1220.11 36.8875 Q1216.75 40.9789 1216.75 48.6757 L1216.75 72.576 L1209.25 72.576 L1209.25 27.2059 L1216.75 27.2059 L1216.75 34.2544 Q1219.1 30.1225 1222.86 28.1376 Q1226.63 26.1121 1232.02 26.1121 Q1232.79 26.1121 1233.72 26.2337 Q1234.65 26.3147 1235.79 26.5172 L1235.83 34.1734 Z" fill="#000000" fill-rule="nonzero" fill-opacity="1" /><path clip-path="url(#clip530)" d="M1238.3 27.2059 L1246.2 27.2059 L1260.38 65.2844 L1274.55 27.2059 L1282.45 27.2059 L1265.44 72.576 L1255.31 72.576 L1238.3 27.2059 Z" fill="#000000" fill-rule="nonzero" fill-opacity="1" /><path clip-path="url(#clip530)" d="M1331.55 48.0275 L1331.55 51.6733 L1297.28 51.6733 Q1297.76 59.3701 1301.9 63.421 Q1306.07 67.4314 1313.48 67.4314 Q1317.78 67.4314 1321.79 66.3781 Q1325.84 65.3249 1329.81 63.2184 L1329.81 70.267 Q1325.8 71.9684 1321.58 72.8596 Q1317.37 73.7508 1313.04 73.7508 Q1302.18 73.7508 1295.82 67.4314 Q1289.5 61.1119 1289.5 50.3365 Q1289.5 39.1965 1295.5 32.6746 Q1301.53 26.1121 1311.74 26.1121 Q1320.9 26.1121 1326.2 32.0264 Q1331.55 37.9003 1331.55 48.0275 M1324.1 45.84 Q1324.01 39.7232 1320.65 36.0774 Q1317.33 32.4315 1311.82 32.4315 Q1305.58 32.4315 1301.82 35.9558 Q1298.09 39.4801 1297.52 45.8805 L1324.1 45.84 Z" fill="#000000" fill-rule="nonzero" fill-opacity="1" /><path clip-path="url(#clip530)" d="M1373.64 34.0924 L1373.64 9.54393 L1381.09 9.54393 L1381.09 72.576 L1373.64 72.576 L1373.64 65.7705 Q1371.29 69.8214 1367.68 71.8063 Q1364.12 73.7508 1359.1 73.7508 Q1350.87 73.7508 1345.69 67.1883 Q1340.54 60.6258 1340.54 49.9314 Q1340.54 39.2371 1345.69 32.6746 Q1350.87 26.1121 1359.1 26.1121 Q1364.12 26.1121 1367.68 28.0971 Q1371.29 30.0415 1373.64 34.0924 M1348.24 49.9314 Q1348.24 58.1548 1351.6 62.8538 Q1355 67.5124 1360.92 67.5124 Q1366.83 67.5124 1370.24 62.8538 Q1373.64 58.1548 1373.64 49.9314 Q1373.64 41.7081 1370.24 37.0496 Q1366.83 32.3505 1360.92 32.3505 Q1355 32.3505 1351.6 37.0496 Q1348.24 41.7081 1348.24 49.9314 Z" fill="#000000" fill-rule="nonzero" fill-opacity="1" /><path clip-path="url(#clip530)" d="M1417.47 27.2059 L1425.37 27.2059 L1439.55 65.2844 L1453.72 27.2059 L1461.62 27.2059 L1444.61 72.576 L1434.48 72.576 L1417.47 27.2059 Z" fill="#000000" fill-rule="nonzero" fill-opacity="1" /><path clip-path="url(#clip530)" d="M1500.84 28.5427 L1500.84 35.5912 Q1497.68 33.9709 1494.27 33.1607 Q1490.87 32.3505 1487.23 32.3505 Q1481.68 32.3505 1478.88 34.0519 Q1476.13 35.7533 1476.13 39.156 Q1476.13 41.7486 1478.11 43.2475 Q1480.1 44.7058 1486.09 46.0426 L1488.64 46.6097 Q1496.58 48.3111 1499.91 51.4303 Q1503.27 54.509 1503.27 60.0587 Q1503.27 66.3781 1498.24 70.0644 Q1493.26 73.7508 1484.51 73.7508 Q1480.87 73.7508 1476.9 73.0216 Q1472.97 72.3329 1468.59 70.9151 L1468.59 63.2184 Q1472.72 65.3654 1476.73 66.4591 Q1480.74 67.5124 1484.67 67.5124 Q1489.94 67.5124 1492.78 65.73 Q1495.61 63.9071 1495.61 60.6258 Q1495.61 57.5877 1493.55 55.9673 Q1491.52 54.3469 1484.59 52.8481 L1482 52.2405 Q1475.07 50.7821 1471.99 47.7845 Q1468.92 44.7463 1468.92 39.4801 Q1468.92 33.0797 1473.45 29.5959 Q1477.99 26.1121 1486.33 26.1121 Q1490.47 26.1121 1494.11 26.7198 Q1497.76 27.3274 1500.84 28.5427 Z" fill="#000000" fill-rule="nonzero" fill-opacity="1" /><path clip-path="url(#clip530)" d="M1578.09 14.0809 L1578.09 22.0612 Q1573.43 19.8332 1569.3 18.7395 Q1565.17 17.6457 1561.32 17.6457 Q1554.63 17.6457 1550.99 20.2383 Q1547.38 22.8309 1547.38 27.611 Q1547.38 31.6214 1549.77 33.6873 Q1552.2 35.7128 1558.93 36.9686 L1563.87 37.9813 Q1573.02 39.7232 1577.36 44.1387 Q1581.73 48.5136 1581.73 55.8863 Q1581.73 64.6767 1575.82 69.2137 Q1569.95 73.7508 1558.56 73.7508 Q1554.27 73.7508 1549.41 72.7785 Q1544.59 71.8063 1539.4 69.9024 L1539.4 61.4765 Q1544.38 64.2716 1549.16 65.6895 Q1553.94 67.1073 1558.56 67.1073 Q1565.57 67.1073 1569.38 64.3527 Q1573.19 61.598 1573.19 56.4939 Q1573.19 52.0379 1570.43 49.5264 Q1567.72 47.0148 1561.48 45.759 L1556.5 44.7868 Q1547.34 42.9639 1543.25 39.075 Q1539.16 35.1862 1539.16 28.2591 Q1539.16 20.2383 1544.79 15.6203 Q1550.46 11.0023 1560.39 11.0023 Q1564.64 11.0023 1569.05 11.7719 Q1573.47 12.5416 1578.09 14.0809 Z" fill="#000000" fill-rule="nonzero" fill-opacity="1" /><path clip-path="url(#clip530)" d="M1611.75 32.4315 Q1605.76 32.4315 1602.27 37.1306 Q1598.79 41.7891 1598.79 49.9314 Q1598.79 58.0738 1602.23 62.7728 Q1605.71 67.4314 1611.75 67.4314 Q1617.71 67.4314 1621.19 62.7323 Q1624.67 58.0333 1624.67 49.9314 Q1624.67 41.8701 1621.19 37.1711 Q1617.71 32.4315 1611.75 32.4315 M1611.75 26.1121 Q1621.47 26.1121 1627.02 32.4315 Q1632.57 38.7509 1632.57 49.9314 Q1632.57 61.0714 1627.02 67.4314 Q1621.47 73.7508 1611.75 73.7508 Q1601.99 73.7508 1596.44 67.4314 Q1590.93 61.0714 1590.93 49.9314 Q1590.93 38.7509 1596.44 32.4315 Q1601.99 26.1121 1611.75 26.1121 Z" fill="#000000" fill-rule="nonzero" fill-opacity="1" /><path clip-path="url(#clip530)" d="M1644.16 54.671 L1644.16 27.2059 L1651.61 27.2059 L1651.61 54.3874 Q1651.61 60.8284 1654.12 64.0691 Q1656.63 67.2693 1661.66 67.2693 Q1667.69 67.2693 1671.18 63.421 Q1674.7 59.5726 1674.7 52.9291 L1674.7 27.2059 L1682.16 27.2059 L1682.16 72.576 L1674.7 72.576 L1674.7 65.6084 Q1671.99 69.7404 1668.38 71.7658 Q1664.82 73.7508 1660.08 73.7508 Q1652.26 73.7508 1648.21 68.8897 Q1644.16 64.0286 1644.16 54.671 M1662.91 26.1121 L1662.91 26.1121 Z" fill="#000000" fill-rule="nonzero" fill-opacity="1" /><path clip-path="url(#clip530)" d="M1723.8 34.1734 Q1722.54 33.4443 1721.04 33.1202 Q1719.59 32.7556 1717.8 32.7556 Q1711.48 32.7556 1708.08 36.8875 Q1704.72 40.9789 1704.72 48.6757 L1704.72 72.576 L1697.22 72.576 L1697.22 27.2059 L1704.72 27.2059 L1704.72 34.2544 Q1707.07 30.1225 1710.84 28.1376 Q1714.6 26.1121 1719.99 26.1121 Q1720.76 26.1121 1721.69 26.2337 Q1722.62 26.3147 1723.76 26.5172 L1723.8 34.1734 Z" fill="#000000" fill-rule="nonzero" fill-opacity="1" /><path clip-path="url(#clip530)" d="M1762.44 28.9478 L1762.44 35.9153 Q1759.28 34.1734 1756.08 33.3227 Q1752.92 32.4315 1749.68 32.4315 Q1742.43 32.4315 1738.42 37.0496 Q1734.41 41.6271 1734.41 49.9314 Q1734.41 58.2358 1738.42 62.8538 Q1742.43 67.4314 1749.68 67.4314 Q1752.92 67.4314 1756.08 66.5807 Q1759.28 65.6895 1762.44 63.9476 L1762.44 70.8341 Q1759.33 72.2924 1755.96 73.0216 Q1752.64 73.7508 1748.87 73.7508 Q1738.62 73.7508 1732.59 67.3098 Q1726.55 60.8689 1726.55 49.9314 Q1726.55 38.832 1732.63 32.472 Q1738.75 26.1121 1749.36 26.1121 Q1752.8 26.1121 1756.08 26.8413 Q1759.37 27.5299 1762.44 28.9478 Z" fill="#000000" fill-rule="nonzero" fill-opacity="1" /><path clip-path="url(#clip530)" d="M1814.21 48.0275 L1814.21 51.6733 L1779.94 51.6733 Q1780.43 59.3701 1784.56 63.421 Q1788.73 67.4314 1796.15 67.4314 Q1800.44 67.4314 1804.45 66.3781 Q1808.5 65.3249 1812.47 63.2184 L1812.47 70.267 Q1808.46 71.9684 1804.25 72.8596 Q1800.04 73.7508 1795.7 73.7508 Q1784.85 73.7508 1778.49 67.4314 Q1772.17 61.1119 1772.17 50.3365 Q1772.17 39.1965 1778.16 32.6746 Q1784.2 26.1121 1794.41 26.1121 Q1803.56 26.1121 1808.87 32.0264 Q1814.21 37.9003 1814.21 48.0275 M1806.76 45.84 Q1806.68 39.7232 1803.32 36.0774 Q1800 32.4315 1794.49 32.4315 Q1788.25 32.4315 1784.48 35.9558 Q1780.75 39.4801 1780.19 45.8805 L1806.76 45.84 Z" fill="#000000" fill-rule="nonzero" fill-opacity="1" /><path clip-path="url(#clip530)" d="M1868.74 72.576 L1845.65 12.096 L1854.2 12.096 L1873.36 63.0159 L1892.56 12.096 L1901.07 12.096 L1878.02 72.576 L1868.74 72.576 Z" fill="#000000" fill-rule="nonzero" fill-opacity="1" /><path clip-path="url(#clip530)" d="M1920.71 32.4315 Q1914.72 32.4315 1911.23 37.1306 Q1907.75 41.7891 1907.75 49.9314 Q1907.75 58.0738 1911.19 62.7728 Q1914.68 67.4314 1920.71 67.4314 Q1926.67 67.4314 1930.15 62.7323 Q1933.64 58.0333 1933.64 49.9314 Q1933.64 41.8701 1930.15 37.1711 Q1926.67 32.4315 1920.71 32.4315 M1920.71 26.1121 Q1930.44 26.1121 1935.98 32.4315 Q1941.53 38.7509 1941.53 49.9314 Q1941.53 61.0714 1935.98 67.4314 Q1930.44 73.7508 1920.71 73.7508 Q1910.95 73.7508 1905.4 67.4314 Q1899.89 61.0714 1899.89 49.9314 Q1899.89 38.7509 1905.4 32.4315 Q1910.95 26.1121 1920.71 26.1121 Z" fill="#000000" fill-rule="nonzero" fill-opacity="1" /><path clip-path="url(#clip530)" d="M1953.89 9.54393 L1961.34 9.54393 L1961.34 72.576 L1953.89 72.576 L1953.89 9.54393 Z" fill="#000000" fill-rule="nonzero" fill-opacity="1" /><path clip-path="url(#clip530)" d="M1984.31 14.324 L1984.31 27.2059 L1999.67 27.2059 L1999.67 32.9987 L1984.31 32.9987 L1984.31 57.6282 Q1984.31 63.1779 1985.81 64.7578 Q1987.35 66.3376 1992.01 66.3376 L1999.67 66.3376 L1999.67 72.576 L1992.01 72.576 Q1983.38 72.576 1980.1 69.3758 Q1976.82 66.1351 1976.82 57.6282 L1976.82 32.9987 L1971.35 32.9987 L1971.35 27.2059 L1976.82 27.2059 L1976.82 14.324 L1984.31 14.324 Z" fill="#000000" fill-rule="nonzero" fill-opacity="1" /><path clip-path="url(#clip530)" d="M2030.09 49.7694 Q2021.05 49.7694 2017.57 51.8354 Q2014.09 53.9013 2014.09 58.8839 Q2014.09 62.8538 2016.68 65.2034 Q2019.31 67.5124 2023.81 67.5124 Q2030.01 67.5124 2033.73 63.1374 Q2037.5 58.7219 2037.5 51.4303 L2037.5 49.7694 L2030.09 49.7694 M2044.95 46.6907 L2044.95 72.576 L2037.5 72.576 L2037.5 65.6895 Q2034.95 69.8214 2031.14 71.8063 Q2027.33 73.7508 2021.82 73.7508 Q2014.86 73.7508 2010.72 69.8619 Q2006.63 65.9325 2006.63 59.3701 Q2006.63 51.7138 2011.74 47.825 Q2016.88 43.9361 2027.05 43.9361 L2037.5 43.9361 L2037.5 43.2069 Q2037.5 38.0623 2034.1 35.2672 Q2030.74 32.4315 2024.62 32.4315 Q2020.73 32.4315 2017.04 33.3632 Q2013.36 34.295 2009.95 36.1584 L2009.95 29.2718 Q2014.05 27.692 2017.89 26.9223 Q2021.74 26.1121 2025.39 26.1121 Q2035.23 26.1121 2040.09 31.2163 Q2044.95 36.3204 2044.95 46.6907 Z" fill="#000000" fill-rule="nonzero" fill-opacity="1" /><path clip-path="url(#clip530)" d="M2090.16 49.3643 Q2090.16 41.2625 2086.8 36.8065 Q2083.48 32.3505 2077.44 32.3505 Q2071.45 32.3505 2068.08 36.8065 Q2064.76 41.2625 2064.76 49.3643 Q2064.76 57.4256 2068.08 61.8816 Q2071.45 66.3376 2077.44 66.3376 Q2083.48 66.3376 2086.8 61.8816 Q2090.16 57.4256 2090.16 49.3643 M2097.62 66.9452 Q2097.62 78.5308 2092.47 84.1616 Q2087.33 89.8329 2076.71 89.8329 Q2072.78 89.8329 2069.3 89.2252 Q2065.82 88.6581 2062.54 87.4428 L2062.54 80.1917 Q2065.82 81.9741 2069.02 82.8248 Q2072.22 83.6755 2075.54 83.6755 Q2082.87 83.6755 2086.52 79.8271 Q2090.16 76.0193 2090.16 68.282 L2090.16 64.5957 Q2087.85 68.6061 2084.25 70.5911 Q2080.64 72.576 2075.62 72.576 Q2067.27 72.576 2062.17 66.2161 Q2057.07 59.8562 2057.07 49.3643 Q2057.07 38.832 2062.17 32.472 Q2067.27 26.1121 2075.62 26.1121 Q2080.64 26.1121 2084.25 28.0971 Q2087.85 30.082 2090.16 34.0924 L2090.16 27.2059 L2097.62 27.2059 L2097.62 66.9452 Z" fill="#000000" fill-rule="nonzero" fill-opacity="1" /><path clip-path="url(#clip530)" d="M2151.78 48.0275 L2151.78 51.6733 L2117.51 51.6733 Q2117.99 59.3701 2122.12 63.421 Q2126.3 67.4314 2133.71 67.4314 Q2138 67.4314 2142.01 66.3781 Q2146.06 65.3249 2150.03 63.2184 L2150.03 70.267 Q2146.02 71.9684 2141.81 72.8596 Q2137.6 73.7508 2133.26 73.7508 Q2122.41 73.7508 2116.05 67.4314 Q2109.73 61.1119 2109.73 50.3365 Q2109.73 39.1965 2115.72 32.6746 Q2121.76 26.1121 2131.97 26.1121 Q2141.12 26.1121 2146.43 32.0264 Q2151.78 37.9003 2151.78 48.0275 M2144.32 45.84 Q2144.24 39.7232 2140.88 36.0774 Q2137.56 32.4315 2132.05 32.4315 Q2125.81 32.4315 2122.04 35.9558 Q2118.32 39.4801 2117.75 45.8805 L2144.32 45.84 Z" fill="#000000" fill-rule="nonzero" fill-opacity="1" /><polyline clip-path="url(#clip532)" style="stroke:#008000; stroke-linecap:round; stroke-linejoin:round; stroke-width:8; stroke-opacity:1; fill:none" points="282.378,162.056 899.324,162.056 1207.8,162.056 1516.27,162.056 1824.74,162.056 2133.22,162.056 2750.16,162.056 "/>
<circle clip-path="url(#clip532)" cx="282.378" cy="162.056" r="14.4" fill="#008000" fill-rule="evenodd" fill-opacity="1" stroke="#000000" stroke-opacity="1" stroke-width="4"/>
<circle clip-path="url(#clip532)" cx="899.324" cy="162.056" r="14.4" fill="#008000" fill-rule="evenodd" fill-opacity="1" stroke="#000000" stroke-opacity="1" stroke-width="4"/>
<circle clip-path="url(#clip532)" cx="1207.8" cy="162.056" r="14.4" fill="#008000" fill-rule="evenodd" fill-opacity="1" stroke="#000000" stroke-opacity="1" stroke-width="4"/>
<circle clip-path="url(#clip532)" cx="1516.27" cy="162.056" r="14.4" fill="#008000" fill-rule="evenodd" fill-opacity="1" stroke="#000000" stroke-opacity="1" stroke-width="4"/>
<circle clip-path="url(#clip532)" cx="1824.74" cy="162.056" r="14.4" fill="#008000" fill-rule="evenodd" fill-opacity="1" stroke="#000000" stroke-opacity="1" stroke-width="4"/>
<circle clip-path="url(#clip532)" cx="2133.22" cy="162.056" r="14.4" fill="#008000" fill-rule="evenodd" fill-opacity="1" stroke="#000000" stroke-opacity="1" stroke-width="4"/>
<circle clip-path="url(#clip532)" cx="2750.16" cy="162.056" r="14.4" fill="#008000" fill-rule="evenodd" fill-opacity="1" stroke="#000000" stroke-opacity="1" stroke-width="4"/>
<polyline clip-path="url(#clip532)" style="stroke:#0000ff; stroke-linecap:round; stroke-linejoin:round; stroke-width:8; stroke-opacity:1; fill:none" points="282.378,287.515 899.324,287.515 1207.8,287.515 1516.27,287.515 1824.74,287.515 2133.22,287.515 2750.16,287.515 "/>
<circle clip-path="url(#clip532)" cx="282.378" cy="287.515" r="14.4" fill="#0000ff" fill-rule="evenodd" fill-opacity="1" stroke="#000000" stroke-opacity="1" stroke-width="4"/>
<circle clip-path="url(#clip532)" cx="899.324" cy="287.515" r="14.4" fill="#0000ff" fill-rule="evenodd" fill-opacity="1" stroke="#000000" stroke-opacity="1" stroke-width="4"/>
<circle clip-path="url(#clip532)" cx="1207.8" cy="287.515" r="14.4" fill="#0000ff" fill-rule="evenodd" fill-opacity="1" stroke="#000000" stroke-opacity="1" stroke-width="4"/>
<circle clip-path="url(#clip532)" cx="1516.27" cy="287.515" r="14.4" fill="#0000ff" fill-rule="evenodd" fill-opacity="1" stroke="#000000" stroke-opacity="1" stroke-width="4"/>
<circle clip-path="url(#clip532)" cx="1824.74" cy="287.515" r="14.4" fill="#0000ff" fill-rule="evenodd" fill-opacity="1" stroke="#000000" stroke-opacity="1" stroke-width="4"/>
<circle clip-path="url(#clip532)" cx="2133.22" cy="287.515" r="14.4" fill="#0000ff" fill-rule="evenodd" fill-opacity="1" stroke="#000000" stroke-opacity="1" stroke-width="4"/>
<circle clip-path="url(#clip532)" cx="2750.16" cy="287.515" r="14.4" fill="#0000ff" fill-rule="evenodd" fill-opacity="1" stroke="#000000" stroke-opacity="1" stroke-width="4"/>
<polyline clip-path="url(#clip532)" style="stroke:#ff0000; stroke-linecap:round; stroke-linejoin:round; stroke-width:8; stroke-opacity:1; fill:none" points="282.378,1784.2 899.324,1784.2 1207.8,1784.2 1516.27,1784.2 1824.74,1784.2 2133.22,1784.2 2750.16,1784.2 "/>
<circle clip-path="url(#clip532)" cx="282.378" cy="1784.2" r="14.4" fill="#ff0000" fill-rule="evenodd" fill-opacity="1" stroke="#000000" stroke-opacity="1" stroke-width="4"/>
<circle clip-path="url(#clip532)" cx="899.324" cy="1784.2" r="14.4" fill="#ff0000" fill-rule="evenodd" fill-opacity="1" stroke="#000000" stroke-opacity="1" stroke-width="4"/>
<circle clip-path="url(#clip532)" cx="1207.8" cy="1784.2" r="14.4" fill="#ff0000" fill-rule="evenodd" fill-opacity="1" stroke="#000000" stroke-opacity="1" stroke-width="4"/>
<circle clip-path="url(#clip532)" cx="1516.27" cy="1784.2" r="14.4" fill="#ff0000" fill-rule="evenodd" fill-opacity="1" stroke="#000000" stroke-opacity="1" stroke-width="4"/>
<circle clip-path="url(#clip532)" cx="1824.74" cy="1784.2" r="14.4" fill="#ff0000" fill-rule="evenodd" fill-opacity="1" stroke="#000000" stroke-opacity="1" stroke-width="4"/>
<circle clip-path="url(#clip532)" cx="2133.22" cy="1784.2" r="14.4" fill="#ff0000" fill-rule="evenodd" fill-opacity="1" stroke="#000000" stroke-opacity="1" stroke-width="4"/>
<circle clip-path="url(#clip532)" cx="2750.16" cy="1784.2" r="14.4" fill="#ff0000" fill-rule="evenodd" fill-opacity="1" stroke="#000000" stroke-opacity="1" stroke-width="4"/>
<polyline clip-path="url(#clip532)" style="stroke:#ffa500; stroke-linecap:round; stroke-linejoin:round; stroke-width:8; stroke-opacity:1; fill:none" points="282.378,249.713 899.324,249.713 1207.8,249.713 1516.27,249.713 1824.74,249.713 2133.22,249.713 2750.16,249.713 "/>
<circle clip-path="url(#clip532)" cx="282.378" cy="249.713" r="14.4" fill="#ffa500" fill-rule="evenodd" fill-opacity="1" stroke="#000000" stroke-opacity="1" stroke-width="4"/>
<circle clip-path="url(#clip532)" cx="899.324" cy="249.713" r="14.4" fill="#ffa500" fill-rule="evenodd" fill-opacity="1" stroke="#000000" stroke-opacity="1" stroke-width="4"/>
<circle clip-path="url(#clip532)" cx="1207.8" cy="249.713" r="14.4" fill="#ffa500" fill-rule="evenodd" fill-opacity="1" stroke="#000000" stroke-opacity="1" stroke-width="4"/>
<circle clip-path="url(#clip532)" cx="1516.27" cy="249.713" r="14.4" fill="#ffa500" fill-rule="evenodd" fill-opacity="1" stroke="#000000" stroke-opacity="1" stroke-width="4"/>
<circle clip-path="url(#clip532)" cx="1824.74" cy="249.713" r="14.4" fill="#ffa500" fill-rule="evenodd" fill-opacity="1" stroke="#000000" stroke-opacity="1" stroke-width="4"/>
<circle clip-path="url(#clip532)" cx="2133.22" cy="249.713" r="14.4" fill="#ffa500" fill-rule="evenodd" fill-opacity="1" stroke="#000000" stroke-opacity="1" stroke-width="4"/>
<circle clip-path="url(#clip532)" cx="2750.16" cy="249.713" r="14.4" fill="#ffa500" fill-rule="evenodd" fill-opacity="1" stroke="#000000" stroke-opacity="1" stroke-width="4"/>
<polyline clip-path="url(#clip532)" style="stroke:#800080; stroke-linecap:round; stroke-linejoin:round; stroke-width:8; stroke-opacity:1; fill:none" points="282.378,248.263 899.324,248.263 1207.8,248.263 1516.27,248.263 1824.74,248.263 2133.22,248.263 2750.16,248.263 "/>
<circle clip-path="url(#clip532)" cx="282.378" cy="248.263" r="14.4" fill="#800080" fill-rule="evenodd" fill-opacity="1" stroke="#000000" stroke-opacity="1" stroke-width="4"/>
<circle clip-path="url(#clip532)" cx="899.324" cy="248.263" r="14.4" fill="#800080" fill-rule="evenodd" fill-opacity="1" stroke="#000000" stroke-opacity="1" stroke-width="4"/>
<circle clip-path="url(#clip532)" cx="1207.8" cy="248.263" r="14.4" fill="#800080" fill-rule="evenodd" fill-opacity="1" stroke="#000000" stroke-opacity="1" stroke-width="4"/>
<circle clip-path="url(#clip532)" cx="1516.27" cy="248.263" r="14.4" fill="#800080" fill-rule="evenodd" fill-opacity="1" stroke="#000000" stroke-opacity="1" stroke-width="4"/>
<circle clip-path="url(#clip532)" cx="1824.74" cy="248.263" r="14.4" fill="#800080" fill-rule="evenodd" fill-opacity="1" stroke="#000000" stroke-opacity="1" stroke-width="4"/>
<circle clip-path="url(#clip532)" cx="2133.22" cy="248.263" r="14.4" fill="#800080" fill-rule="evenodd" fill-opacity="1" stroke="#000000" stroke-opacity="1" stroke-width="4"/>
<circle clip-path="url(#clip532)" cx="2750.16" cy="248.263" r="14.4" fill="#800080" fill-rule="evenodd" fill-opacity="1" stroke="#000000" stroke-opacity="1" stroke-width="4"/>
<path clip-path="url(#clip530)" d="M2935.68 481.748 L3552.76 481.748 L3552.76 170.708 L2935.68 170.708  Z" fill="#ffffff" fill-rule="evenodd" fill-opacity="1"/>
<polyline clip-path="url(#clip530)" style="stroke:#000000; stroke-linecap:round; stroke-linejoin:round; stroke-width:4; stroke-opacity:1; fill:none" points="2935.68,481.748 3552.76,481.748 3552.76,170.708 2935.68,170.708 2935.68,481.748 "/>
<polyline clip-path="url(#clip530)" style="stroke:#008000; stroke-linecap:round; stroke-linejoin:round; stroke-width:8; stroke-opacity:1; fill:none" points="2972.84,222.548 3195.8,222.548 "/>
<circle clip-path="url(#clip530)" cx="3084.32" cy="222.548" r="20.48" fill="#008000" fill-rule="evenodd" fill-opacity="1" stroke="#000000" stroke-opacity="1" stroke-width="5.68889"/>
<path clip-path="url(#clip530)" d="M3237.63 209.11 L3237.63 222.096 L3243.51 222.096 Q3246.78 222.096 3248.56 220.407 Q3250.34 218.717 3250.34 215.592 Q3250.34 212.49 3248.56 210.8 Q3246.78 209.11 3243.51 209.11 L3237.63 209.11 M3232.96 205.268 L3243.51 205.268 Q3249.32 205.268 3252.29 207.907 Q3255.27 210.522 3255.27 215.592 Q3255.27 220.707 3252.29 223.323 Q3249.32 225.939 3243.51 225.939 L3237.63 225.939 L3237.63 239.828 L3232.96 239.828 L3232.96 205.268 Z" fill="#000000" fill-rule="nonzero" fill-opacity="1" /><path clip-path="url(#clip530)" d="M3275.55 217.883 Q3274.83 217.467 3273.98 217.282 Q3273.14 217.073 3272.12 217.073 Q3268.51 217.073 3266.57 219.434 Q3264.65 221.772 3264.65 226.17 L3264.65 239.828 L3260.37 239.828 L3260.37 213.902 L3264.65 213.902 L3264.65 217.93 Q3265.99 215.569 3268.14 214.434 Q3270.3 213.277 3273.37 213.277 Q3273.81 213.277 3274.35 213.346 Q3274.88 213.393 3275.53 213.508 L3275.55 217.883 Z" fill="#000000" fill-rule="nonzero" fill-opacity="1" /><path clip-path="url(#clip530)" d="M3289.02 216.888 Q3285.6 216.888 3283.61 219.573 Q3281.62 222.235 3281.62 226.888 Q3281.62 231.541 3283.58 234.226 Q3285.57 236.888 3289.02 236.888 Q3292.43 236.888 3294.42 234.203 Q3296.41 231.518 3296.41 226.888 Q3296.41 222.282 3294.42 219.596 Q3292.43 216.888 3289.02 216.888 M3289.02 213.277 Q3294.58 213.277 3297.75 216.888 Q3300.92 220.499 3300.92 226.888 Q3300.92 233.254 3297.75 236.888 Q3294.58 240.499 3289.02 240.499 Q3283.44 240.499 3280.27 236.888 Q3277.12 233.254 3277.12 226.888 Q3277.12 220.499 3280.27 216.888 Q3283.44 213.277 3289.02 213.277 Z" fill="#000000" fill-rule="nonzero" fill-opacity="1" /><path clip-path="url(#clip530)" d="M3312.1 235.939 L3312.1 249.689 L3307.82 249.689 L3307.82 213.902 L3312.1 213.902 L3312.1 217.837 Q3313.44 215.522 3315.48 214.411 Q3317.54 213.277 3320.39 213.277 Q3325.11 213.277 3328.05 217.027 Q3331.01 220.777 3331.01 226.888 Q3331.01 232.999 3328.05 236.749 Q3325.11 240.499 3320.39 240.499 Q3317.54 240.499 3315.48 239.388 Q3313.44 238.254 3312.1 235.939 M3326.59 226.888 Q3326.59 222.189 3324.65 219.527 Q3322.73 216.842 3319.35 216.842 Q3315.97 216.842 3314.02 219.527 Q3312.1 222.189 3312.1 226.888 Q3312.1 231.587 3314.02 234.272 Q3315.97 236.934 3319.35 236.934 Q3322.73 236.934 3324.65 234.272 Q3326.59 231.587 3326.59 226.888 Z" fill="#000000" fill-rule="nonzero" fill-opacity="1" /><path clip-path="url(#clip530)" d="M3348.12 216.888 Q3344.69 216.888 3342.7 219.573 Q3340.71 222.235 3340.71 226.888 Q3340.71 231.541 3342.68 234.226 Q3344.67 236.888 3348.12 236.888 Q3351.52 236.888 3353.51 234.203 Q3355.5 231.518 3355.5 226.888 Q3355.5 222.282 3353.51 219.596 Q3351.52 216.888 3348.12 216.888 M3348.12 213.277 Q3353.68 213.277 3356.85 216.888 Q3360.02 220.499 3360.02 226.888 Q3360.02 233.254 3356.85 236.888 Q3353.68 240.499 3348.12 240.499 Q3342.54 240.499 3339.37 236.888 Q3336.22 233.254 3336.22 226.888 Q3336.22 220.499 3339.37 216.888 Q3342.54 213.277 3348.12 213.277 Z" fill="#000000" fill-rule="nonzero" fill-opacity="1" /><path clip-path="url(#clip530)" d="M3382.1 217.883 Q3381.38 217.467 3380.53 217.282 Q3379.69 217.073 3378.68 217.073 Q3375.06 217.073 3373.12 219.434 Q3371.2 221.772 3371.2 226.17 L3371.2 239.828 L3366.92 239.828 L3366.92 213.902 L3371.2 213.902 L3371.2 217.93 Q3372.54 215.569 3374.69 214.434 Q3376.85 213.277 3379.93 213.277 Q3380.37 213.277 3380.9 213.346 Q3381.43 213.393 3382.08 213.508 L3382.1 217.883 Z" fill="#000000" fill-rule="nonzero" fill-opacity="1" /><path clip-path="url(#clip530)" d="M3390.78 206.541 L3390.78 213.902 L3399.55 213.902 L3399.55 217.212 L3390.78 217.212 L3390.78 231.286 Q3390.78 234.457 3391.64 235.36 Q3392.52 236.263 3395.18 236.263 L3399.55 236.263 L3399.55 239.828 L3395.18 239.828 Q3390.25 239.828 3388.37 237.999 Q3386.5 236.147 3386.5 231.286 L3386.5 217.212 L3383.37 217.212 L3383.37 213.902 L3386.5 213.902 L3386.5 206.541 L3390.78 206.541 Z" fill="#000000" fill-rule="nonzero" fill-opacity="1" /><path clip-path="url(#clip530)" d="M3405.16 213.902 L3409.42 213.902 L3409.42 239.828 L3405.16 239.828 L3405.16 213.902 M3405.16 203.809 L3409.42 203.809 L3409.42 209.203 L3405.16 209.203 L3405.16 203.809 Z" fill="#000000" fill-rule="nonzero" fill-opacity="1" /><path clip-path="url(#clip530)" d="M3428.37 216.888 Q3424.95 216.888 3422.96 219.573 Q3420.97 222.235 3420.97 226.888 Q3420.97 231.541 3422.93 234.226 Q3424.92 236.888 3428.37 236.888 Q3431.78 236.888 3433.77 234.203 Q3435.76 231.518 3435.76 226.888 Q3435.76 222.282 3433.77 219.596 Q3431.78 216.888 3428.37 216.888 M3428.37 213.277 Q3433.93 213.277 3437.1 216.888 Q3440.27 220.499 3440.27 226.888 Q3440.27 233.254 3437.1 236.888 Q3433.93 240.499 3428.37 240.499 Q3422.8 240.499 3419.62 236.888 Q3416.48 233.254 3416.48 226.888 Q3416.48 220.499 3419.62 216.888 Q3422.8 213.277 3428.37 213.277 Z" fill="#000000" fill-rule="nonzero" fill-opacity="1" /><path clip-path="url(#clip530)" d="M3468.88 224.18 L3468.88 239.828 L3464.62 239.828 L3464.62 224.319 Q3464.62 220.638 3463.19 218.809 Q3461.75 216.981 3458.88 216.981 Q3455.43 216.981 3453.44 219.18 Q3451.45 221.379 3451.45 225.175 L3451.45 239.828 L3447.17 239.828 L3447.17 213.902 L3451.45 213.902 L3451.45 217.93 Q3452.98 215.592 3455.04 214.434 Q3457.12 213.277 3459.83 213.277 Q3464.3 213.277 3466.59 216.055 Q3468.88 218.809 3468.88 224.18 Z" fill="#000000" fill-rule="nonzero" fill-opacity="1" /><path clip-path="url(#clip530)" d="M3489.16 226.795 Q3484 226.795 3482.01 227.976 Q3480.02 229.156 3480.02 232.004 Q3480.02 234.272 3481.5 235.615 Q3483 236.934 3485.57 236.934 Q3489.11 236.934 3491.24 234.434 Q3493.4 231.911 3493.4 227.744 L3493.4 226.795 L3489.16 226.795 M3497.66 225.036 L3497.66 239.828 L3493.4 239.828 L3493.4 235.893 Q3491.94 238.254 3489.76 239.388 Q3487.59 240.499 3484.44 240.499 Q3480.46 240.499 3478.1 238.277 Q3475.76 236.031 3475.76 232.281 Q3475.76 227.906 3478.67 225.684 Q3481.61 223.462 3487.42 223.462 L3493.4 223.462 L3493.4 223.045 Q3493.4 220.106 3491.45 218.508 Q3489.53 216.888 3486.04 216.888 Q3483.81 216.888 3481.71 217.42 Q3479.6 217.953 3477.66 219.018 L3477.66 215.082 Q3479.99 214.18 3482.19 213.74 Q3484.39 213.277 3486.48 213.277 Q3492.1 213.277 3494.88 216.194 Q3497.66 219.11 3497.66 225.036 Z" fill="#000000" fill-rule="nonzero" fill-opacity="1" /><path clip-path="url(#clip530)" d="M3506.43 203.809 L3510.69 203.809 L3510.69 239.828 L3506.43 239.828 L3506.43 203.809 Z" fill="#000000" fill-rule="nonzero" fill-opacity="1" /><polyline clip-path="url(#clip530)" style="stroke:#0000ff; stroke-linecap:round; stroke-linejoin:round; stroke-width:8; stroke-opacity:1; fill:none" points="2972.84,274.388 3195.8,274.388 "/>
<circle clip-path="url(#clip530)" cx="3084.32" cy="274.388" r="20.48" fill="#0000ff" fill-rule="evenodd" fill-opacity="1" stroke="#000000" stroke-opacity="1" stroke-width="5.68889"/>
<path clip-path="url(#clip530)" d="M3232.96 257.108 L3254.81 257.108 L3254.81 261.043 L3237.63 261.043 L3237.63 271.274 L3254.09 271.274 L3254.09 275.209 L3237.63 275.209 L3237.63 287.733 L3255.23 287.733 L3255.23 291.668 L3232.96 291.668 L3232.96 257.108 Z" fill="#000000" fill-rule="nonzero" fill-opacity="1" /><path clip-path="url(#clip530)" d="M3275.85 255.649 L3275.85 259.191 L3271.78 259.191 Q3269.49 259.191 3268.58 260.117 Q3267.7 261.043 3267.7 263.45 L3267.7 265.742 L3274.72 265.742 L3274.72 269.052 L3267.7 269.052 L3267.7 291.668 L3263.42 291.668 L3263.42 269.052 L3259.35 269.052 L3259.35 265.742 L3263.42 265.742 L3263.42 263.936 Q3263.42 259.608 3265.44 257.64 Q3267.45 255.649 3271.82 255.649 L3275.85 255.649 Z" fill="#000000" fill-rule="nonzero" fill-opacity="1" /><path clip-path="url(#clip530)" d="M3292.54 255.649 L3292.54 259.191 L3288.47 259.191 Q3286.18 259.191 3285.27 260.117 Q3284.39 261.043 3284.39 263.45 L3284.39 265.742 L3291.41 265.742 L3291.41 269.052 L3284.39 269.052 L3284.39 291.668 L3280.11 291.668 L3280.11 269.052 L3276.04 269.052 L3276.04 265.742 L3280.11 265.742 L3280.11 263.936 Q3280.11 259.608 3282.12 257.64 Q3284.14 255.649 3288.51 255.649 L3292.54 255.649 Z" fill="#000000" fill-rule="nonzero" fill-opacity="1" /><path clip-path="url(#clip530)" d="M3296.11 265.742 L3300.37 265.742 L3300.37 291.668 L3296.11 291.668 L3296.11 265.742 M3296.11 255.649 L3300.37 255.649 L3300.37 261.043 L3296.11 261.043 L3296.11 255.649 Z" fill="#000000" fill-rule="nonzero" fill-opacity="1" /><path clip-path="url(#clip530)" d="M3327.93 266.737 L3327.93 270.719 Q3326.13 269.723 3324.3 269.237 Q3322.49 268.728 3320.64 268.728 Q3316.5 268.728 3314.21 271.367 Q3311.92 273.983 3311.92 278.728 Q3311.92 283.473 3314.21 286.112 Q3316.5 288.728 3320.64 288.728 Q3322.49 288.728 3324.3 288.242 Q3326.13 287.733 3327.93 286.737 L3327.93 290.672 Q3326.15 291.506 3324.23 291.922 Q3322.33 292.339 3320.18 292.339 Q3314.32 292.339 3310.87 288.658 Q3307.43 284.978 3307.43 278.728 Q3307.43 272.385 3310.9 268.751 Q3314.39 265.117 3320.46 265.117 Q3322.43 265.117 3324.3 265.534 Q3326.18 265.927 3327.93 266.737 Z" fill="#000000" fill-rule="nonzero" fill-opacity="1" /><path clip-path="url(#clip530)" d="M3335.34 265.742 L3339.6 265.742 L3339.6 291.668 L3335.34 291.668 L3335.34 265.742 M3335.34 255.649 L3339.6 255.649 L3339.6 261.043 L3335.34 261.043 L3335.34 255.649 Z" fill="#000000" fill-rule="nonzero" fill-opacity="1" /><path clip-path="url(#clip530)" d="M3370.69 277.64 L3370.69 279.723 L3351.11 279.723 Q3351.38 284.121 3353.74 286.436 Q3356.13 288.728 3360.37 288.728 Q3362.82 288.728 3365.11 288.126 Q3367.43 287.524 3369.69 286.321 L3369.69 290.348 Q3367.4 291.32 3364.99 291.83 Q3362.59 292.339 3360.11 292.339 Q3353.91 292.339 3350.27 288.728 Q3346.66 285.117 3346.66 278.959 Q3346.66 272.594 3350.09 268.867 Q3353.54 265.117 3359.37 265.117 Q3364.6 265.117 3367.63 268.497 Q3370.69 271.853 3370.69 277.64 M3366.43 276.39 Q3366.38 272.895 3364.46 270.811 Q3362.56 268.728 3359.42 268.728 Q3355.85 268.728 3353.7 270.742 Q3351.57 272.756 3351.24 276.413 L3366.43 276.39 Z" fill="#000000" fill-rule="nonzero" fill-opacity="1" /><path clip-path="url(#clip530)" d="M3399.23 276.02 L3399.23 291.668 L3394.97 291.668 L3394.97 276.159 Q3394.97 272.478 3393.54 270.649 Q3392.1 268.821 3389.23 268.821 Q3385.78 268.821 3383.79 271.02 Q3381.8 273.219 3381.8 277.015 L3381.8 291.668 L3377.52 291.668 L3377.52 265.742 L3381.8 265.742 L3381.8 269.77 Q3383.33 267.432 3385.39 266.274 Q3387.47 265.117 3390.18 265.117 Q3394.65 265.117 3396.94 267.895 Q3399.23 270.649 3399.23 276.02 Z" fill="#000000" fill-rule="nonzero" fill-opacity="1" /><path clip-path="url(#clip530)" d="M3426.38 266.737 L3426.38 270.719 Q3424.58 269.723 3422.75 269.237 Q3420.94 268.728 3419.09 268.728 Q3414.95 268.728 3412.66 271.367 Q3410.36 273.983 3410.36 278.728 Q3410.36 283.473 3412.66 286.112 Q3414.95 288.728 3419.09 288.728 Q3420.94 288.728 3422.75 288.242 Q3424.58 287.733 3426.38 286.737 L3426.38 290.672 Q3424.6 291.506 3422.68 291.922 Q3420.78 292.339 3418.63 292.339 Q3412.77 292.339 3409.32 288.658 Q3405.87 284.978 3405.87 278.728 Q3405.87 272.385 3409.35 268.751 Q3412.84 265.117 3418.91 265.117 Q3420.87 265.117 3422.75 265.534 Q3424.62 265.927 3426.38 266.737 Z" fill="#000000" fill-rule="nonzero" fill-opacity="1" /><path clip-path="url(#clip530)" d="M3444.58 294.075 Q3442.77 298.705 3441.06 300.117 Q3439.35 301.529 3436.48 301.529 L3433.07 301.529 L3433.07 297.964 L3435.57 297.964 Q3437.33 297.964 3438.3 297.131 Q3439.28 296.297 3440.46 293.195 L3441.22 291.251 L3430.74 265.742 L3435.25 265.742 L3443.35 286.02 L3451.45 265.742 L3455.97 265.742 L3444.58 294.075 Z" fill="#000000" fill-rule="nonzero" fill-opacity="1" /><polyline clip-path="url(#clip530)" style="stroke:#ff0000; stroke-linecap:round; stroke-linejoin:round; stroke-width:8; stroke-opacity:1; fill:none" points="2972.84,326.228 3195.8,326.228 "/>
<circle clip-path="url(#clip530)" cx="3084.32" cy="326.228" r="20.48" fill="#ff0000" fill-rule="evenodd" fill-opacity="1" stroke="#000000" stroke-opacity="1" stroke-width="5.68889"/>
<path clip-path="url(#clip530)" d="M3232.96 308.948 L3239.93 308.948 L3248.75 332.466 L3257.61 308.948 L3264.58 308.948 L3264.58 343.508 L3260.02 343.508 L3260.02 313.161 L3251.11 336.864 L3246.41 336.864 L3237.5 313.161 L3237.5 343.508 L3232.96 343.508 L3232.96 308.948 Z" fill="#000000" fill-rule="nonzero" fill-opacity="1" /><path clip-path="url(#clip530)" d="M3273.68 317.582 L3277.94 317.582 L3277.94 343.508 L3273.68 343.508 L3273.68 317.582 M3273.68 307.489 L3277.94 307.489 L3277.94 312.883 L3273.68 312.883 L3273.68 307.489 Z" fill="#000000" fill-rule="nonzero" fill-opacity="1" /><path clip-path="url(#clip530)" d="M3308.4 327.86 L3308.4 343.508 L3304.14 343.508 L3304.14 327.999 Q3304.14 324.318 3302.7 322.489 Q3301.27 320.661 3298.4 320.661 Q3294.95 320.661 3292.96 322.86 Q3290.97 325.059 3290.97 328.855 L3290.97 343.508 L3286.68 343.508 L3286.68 317.582 L3290.97 317.582 L3290.97 321.61 Q3292.5 319.272 3294.56 318.114 Q3296.64 316.957 3299.35 316.957 Q3303.81 316.957 3306.11 319.735 Q3308.4 322.489 3308.4 327.86 Z" fill="#000000" fill-rule="nonzero" fill-opacity="1" /><path clip-path="url(#clip530)" d="M3314.74 328.624 L3327.22 328.624 L3327.22 332.42 L3314.74 332.42 L3314.74 328.624 Z" fill="#000000" fill-rule="nonzero" fill-opacity="1" /><path clip-path="url(#clip530)" d="M3334.18 308.948 L3341.15 308.948 L3349.97 332.466 L3358.84 308.948 L3365.8 308.948 L3365.8 343.508 L3361.24 343.508 L3361.24 313.161 L3352.33 336.864 L3347.63 336.864 L3338.72 313.161 L3338.72 343.508 L3334.18 343.508 L3334.18 308.948 Z" fill="#000000" fill-rule="nonzero" fill-opacity="1" /><path clip-path="url(#clip530)" d="M3386.68 330.475 Q3381.52 330.475 3379.53 331.656 Q3377.54 332.836 3377.54 335.684 Q3377.54 337.952 3379.02 339.295 Q3380.53 340.614 3383.1 340.614 Q3386.64 340.614 3388.77 338.114 Q3390.92 335.591 3390.92 331.424 L3390.92 330.475 L3386.68 330.475 M3395.18 328.716 L3395.18 343.508 L3390.92 343.508 L3390.92 339.573 Q3389.46 341.934 3387.29 343.068 Q3385.11 344.179 3381.96 344.179 Q3377.98 344.179 3375.62 341.957 Q3373.28 339.711 3373.28 335.961 Q3373.28 331.586 3376.2 329.364 Q3379.14 327.142 3384.95 327.142 L3390.92 327.142 L3390.92 326.725 Q3390.92 323.786 3388.98 322.188 Q3387.05 320.568 3383.56 320.568 Q3381.34 320.568 3379.23 321.1 Q3377.12 321.633 3375.18 322.698 L3375.18 318.762 Q3377.52 317.86 3379.72 317.42 Q3381.92 316.957 3384 316.957 Q3389.62 316.957 3392.4 319.874 Q3395.18 322.79 3395.18 328.716 Z" fill="#000000" fill-rule="nonzero" fill-opacity="1" /><path clip-path="url(#clip530)" d="M3425.5 317.582 L3416.13 330.198 L3425.99 343.508 L3420.97 343.508 L3413.42 333.323 L3405.87 343.508 L3400.85 343.508 L3410.92 329.943 L3401.71 317.582 L3406.73 317.582 L3413.61 326.818 L3420.48 317.582 L3425.5 317.582 Z" fill="#000000" fill-rule="nonzero" fill-opacity="1" /><polyline clip-path="url(#clip530)" style="stroke:#ffa500; stroke-linecap:round; stroke-linejoin:round; stroke-width:8; stroke-opacity:1; fill:none" points="2972.84,378.068 3195.8,378.068 "/>
<circle clip-path="url(#clip530)" cx="3084.32" cy="378.068" r="20.48" fill="#ffa500" fill-rule="evenodd" fill-opacity="1" stroke="#000000" stroke-opacity="1" stroke-width="5.68889"/>
<path clip-path="url(#clip530)" d="M3232.96 360.788 L3254.81 360.788 L3254.81 364.723 L3237.63 364.723 L3237.63 374.954 L3254.09 374.954 L3254.09 378.889 L3237.63 378.889 L3237.63 391.413 L3255.23 391.413 L3255.23 395.348 L3232.96 395.348 L3232.96 360.788 Z" fill="#000000" fill-rule="nonzero" fill-opacity="1" /><path clip-path="url(#clip530)" d="M3265.27 382.408 Q3265.27 387.107 3267.19 389.792 Q3269.14 392.454 3272.52 392.454 Q3275.9 392.454 3277.84 389.792 Q3279.79 387.107 3279.79 382.408 Q3279.79 377.709 3277.84 375.047 Q3275.9 372.362 3272.52 372.362 Q3269.14 372.362 3267.19 375.047 Q3265.27 377.709 3265.27 382.408 M3279.79 391.459 Q3278.44 393.774 3276.38 394.908 Q3274.35 396.019 3271.48 396.019 Q3266.78 396.019 3263.81 392.269 Q3260.87 388.519 3260.87 382.408 Q3260.87 376.297 3263.81 372.547 Q3266.78 368.797 3271.48 368.797 Q3274.35 368.797 3276.38 369.931 Q3278.44 371.042 3279.79 373.357 L3279.79 369.422 L3284.05 369.422 L3284.05 405.209 L3279.79 405.209 L3279.79 391.459 Z" fill="#000000" fill-rule="nonzero" fill-opacity="1" /><path clip-path="url(#clip530)" d="M3292.38 385.116 L3292.38 369.422 L3296.64 369.422 L3296.64 384.954 Q3296.64 388.635 3298.07 390.487 Q3299.51 392.315 3302.38 392.315 Q3305.83 392.315 3307.82 390.116 Q3309.83 387.917 3309.83 384.121 L3309.83 369.422 L3314.09 369.422 L3314.09 395.348 L3309.83 395.348 L3309.83 391.366 Q3308.28 393.727 3306.22 394.885 Q3304.18 396.019 3301.48 396.019 Q3297.01 396.019 3294.69 393.241 Q3292.38 390.463 3292.38 385.116 M3303.1 368.797 L3303.1 368.797 Z" fill="#000000" fill-rule="nonzero" fill-opacity="1" /><path clip-path="url(#clip530)" d="M3334.65 382.315 Q3329.49 382.315 3327.49 383.496 Q3325.5 384.676 3325.5 387.524 Q3325.5 389.792 3326.99 391.135 Q3328.49 392.454 3331.06 392.454 Q3334.6 392.454 3336.73 389.954 Q3338.88 387.431 3338.88 383.264 L3338.88 382.315 L3334.65 382.315 M3343.14 380.556 L3343.14 395.348 L3338.88 395.348 L3338.88 391.413 Q3337.43 393.774 3335.25 394.908 Q3333.07 396.019 3329.93 396.019 Q3325.94 396.019 3323.58 393.797 Q3321.24 391.551 3321.24 387.801 Q3321.24 383.426 3324.16 381.204 Q3327.1 378.982 3332.91 378.982 L3338.88 378.982 L3338.88 378.565 Q3338.88 375.626 3336.94 374.028 Q3335.02 372.408 3331.52 372.408 Q3329.3 372.408 3327.19 372.94 Q3325.09 373.473 3323.14 374.538 L3323.14 370.602 Q3325.48 369.7 3327.68 369.26 Q3329.88 368.797 3331.96 368.797 Q3337.59 368.797 3340.37 371.714 Q3343.14 374.63 3343.14 380.556 Z" fill="#000000" fill-rule="nonzero" fill-opacity="1" /><path clip-path="url(#clip530)" d="M3351.92 359.329 L3356.18 359.329 L3356.18 395.348 L3351.92 395.348 L3351.92 359.329 Z" fill="#000000" fill-rule="nonzero" fill-opacity="1" /><path clip-path="url(#clip530)" d="M3365.09 369.422 L3369.35 369.422 L3369.35 395.348 L3365.09 395.348 L3365.09 369.422 M3365.09 359.329 L3369.35 359.329 L3369.35 364.723 L3365.09 364.723 L3365.09 359.329 Z" fill="#000000" fill-rule="nonzero" fill-opacity="1" /><path clip-path="url(#clip530)" d="M3382.47 362.061 L3382.47 369.422 L3391.24 369.422 L3391.24 372.732 L3382.47 372.732 L3382.47 386.806 Q3382.47 389.977 3383.33 390.88 Q3384.21 391.783 3386.87 391.783 L3391.24 391.783 L3391.24 395.348 L3386.87 395.348 Q3381.94 395.348 3380.06 393.519 Q3378.19 391.667 3378.19 386.806 L3378.19 372.732 L3375.06 372.732 L3375.06 369.422 L3378.19 369.422 L3378.19 362.061 L3382.47 362.061 Z" fill="#000000" fill-rule="nonzero" fill-opacity="1" /><path clip-path="url(#clip530)" d="M3407.63 397.755 Q3405.83 402.385 3404.11 403.797 Q3402.4 405.209 3399.53 405.209 L3396.13 405.209 L3396.13 401.644 L3398.63 401.644 Q3400.39 401.644 3401.36 400.811 Q3402.33 399.977 3403.51 396.875 L3404.28 394.931 L3393.79 369.422 L3398.3 369.422 L3406.41 389.7 L3414.51 369.422 L3419.02 369.422 L3407.63 397.755 Z" fill="#000000" fill-rule="nonzero" fill-opacity="1" /><path clip-path="url(#clip530)" d="M3440.16 360.788 L3447.12 360.788 L3455.94 384.306 L3464.81 360.788 L3471.78 360.788 L3471.78 395.348 L3467.22 395.348 L3467.22 365.001 L3458.3 388.704 L3453.61 388.704 L3444.69 365.001 L3444.69 395.348 L3440.16 395.348 L3440.16 360.788 Z" fill="#000000" fill-rule="nonzero" fill-opacity="1" /><path clip-path="url(#clip530)" d="M3480.87 369.422 L3485.13 369.422 L3485.13 395.348 L3480.87 395.348 L3480.87 369.422 M3480.87 359.329 L3485.13 359.329 L3485.13 364.723 L3480.87 364.723 L3480.87 359.329 Z" fill="#000000" fill-rule="nonzero" fill-opacity="1" /><path clip-path="url(#clip530)" d="M3515.6 379.7 L3515.6 395.348 L3511.34 395.348 L3511.34 379.839 Q3511.34 376.158 3509.9 374.329 Q3508.47 372.501 3505.6 372.501 Q3502.15 372.501 3500.16 374.7 Q3498.17 376.899 3498.17 380.695 L3498.17 395.348 L3493.88 395.348 L3493.88 369.422 L3498.17 369.422 L3498.17 373.45 Q3499.69 371.112 3501.75 369.954 Q3503.84 368.797 3506.54 368.797 Q3511.01 368.797 3513.3 371.575 Q3515.6 374.329 3515.6 379.7 Z" fill="#000000" fill-rule="nonzero" fill-opacity="1" /><polyline clip-path="url(#clip530)" style="stroke:#800080; stroke-linecap:round; stroke-linejoin:round; stroke-width:8; stroke-opacity:1; fill:none" points="2972.84,429.908 3195.8,429.908 "/>
<circle clip-path="url(#clip530)" cx="3084.32" cy="429.908" r="20.48" fill="#800080" fill-rule="evenodd" fill-opacity="1" stroke="#000000" stroke-opacity="1" stroke-width="5.68889"/>
<path clip-path="url(#clip530)" d="M3240.06 412.628 L3244.74 412.628 L3244.74 444.78 Q3244.74 451.03 3242.36 453.854 Q3240 456.678 3234.74 456.678 L3232.96 456.678 L3232.96 452.743 L3234.42 452.743 Q3237.52 452.743 3238.79 451.007 Q3240.06 449.271 3240.06 444.78 L3240.06 412.628 Z" fill="#000000" fill-rule="nonzero" fill-opacity="1" /><path clip-path="url(#clip530)" d="M3265.64 434.155 Q3260.48 434.155 3258.49 435.336 Q3256.5 436.516 3256.5 439.364 Q3256.5 441.632 3257.98 442.975 Q3259.49 444.294 3262.06 444.294 Q3265.6 444.294 3267.73 441.794 Q3269.88 439.271 3269.88 435.104 L3269.88 434.155 L3265.64 434.155 M3274.14 432.396 L3274.14 447.188 L3269.88 447.188 L3269.88 443.253 Q3268.42 445.614 3266.25 446.748 Q3264.07 447.859 3260.92 447.859 Q3256.94 447.859 3254.58 445.637 Q3252.24 443.391 3252.24 439.641 Q3252.24 435.266 3255.16 433.044 Q3258.1 430.822 3263.91 430.822 L3269.88 430.822 L3269.88 430.405 Q3269.88 427.466 3267.94 425.868 Q3266.01 424.248 3262.52 424.248 Q3260.3 424.248 3258.19 424.78 Q3256.08 425.313 3254.14 426.378 L3254.14 422.442 Q3256.48 421.54 3258.68 421.1 Q3260.87 420.637 3262.96 420.637 Q3268.58 420.637 3271.36 423.554 Q3274.14 426.47 3274.14 432.396 Z" fill="#000000" fill-rule="nonzero" fill-opacity="1" /><path clip-path="url(#clip530)" d="M3282.91 421.262 L3287.17 421.262 L3287.17 447.188 L3282.91 447.188 L3282.91 421.262 M3282.91 411.169 L3287.17 411.169 L3287.17 416.563 L3282.91 416.563 L3282.91 411.169 Z" fill="#000000" fill-rule="nonzero" fill-opacity="1" /><path clip-path="url(#clip530)" d="M3317.63 431.54 L3317.63 447.188 L3313.37 447.188 L3313.37 431.679 Q3313.37 427.998 3311.94 426.169 Q3310.5 424.341 3307.63 424.341 Q3304.18 424.341 3302.19 426.54 Q3300.2 428.739 3300.2 432.535 L3300.2 447.188 L3295.92 447.188 L3295.92 421.262 L3300.2 421.262 L3300.2 425.29 Q3301.73 422.952 3303.79 421.794 Q3305.87 420.637 3308.58 420.637 Q3313.05 420.637 3315.34 423.415 Q3317.63 426.169 3317.63 431.54 Z" fill="#000000" fill-rule="nonzero" fill-opacity="1" /><path clip-path="url(#clip530)" d="M3330.16 412.628 L3330.16 425.475 L3326.22 425.475 L3326.22 412.628 L3330.16 412.628 Z" fill="#000000" fill-rule="nonzero" fill-opacity="1" /><path clip-path="url(#clip530)" d="M3355.69 422.026 L3355.69 426.054 Q3353.88 425.128 3351.94 424.665 Q3349.99 424.202 3347.91 424.202 Q3344.74 424.202 3343.14 425.174 Q3341.57 426.146 3341.57 428.091 Q3341.57 429.572 3342.7 430.429 Q3343.84 431.262 3347.26 432.026 L3348.72 432.35 Q3353.26 433.322 3355.16 435.104 Q3357.08 436.864 3357.08 440.035 Q3357.08 443.646 3354.21 445.753 Q3351.36 447.859 3346.36 447.859 Q3344.28 447.859 3342.01 447.442 Q3339.76 447.049 3337.26 446.239 L3337.26 441.841 Q3339.62 443.067 3341.92 443.692 Q3344.21 444.294 3346.45 444.294 Q3349.46 444.294 3351.08 443.276 Q3352.7 442.234 3352.7 440.359 Q3352.7 438.623 3351.52 437.697 Q3350.37 436.771 3346.41 435.915 L3344.93 435.567 Q3340.97 434.734 3339.21 433.021 Q3337.45 431.285 3337.45 428.276 Q3337.45 424.618 3340.04 422.628 Q3342.63 420.637 3347.4 420.637 Q3349.76 420.637 3351.85 420.984 Q3353.93 421.331 3355.69 422.026 Z" fill="#000000" fill-rule="nonzero" fill-opacity="1" /><path clip-path="url(#clip530)" d="M3379.12 412.628 L3383.79 412.628 L3383.79 447.188 L3379.12 447.188 L3379.12 412.628 Z" fill="#000000" fill-rule="nonzero" fill-opacity="1" /><path clip-path="url(#clip530)" d="M3414.46 431.54 L3414.46 447.188 L3410.2 447.188 L3410.2 431.679 Q3410.2 427.998 3408.77 426.169 Q3407.33 424.341 3404.46 424.341 Q3401.01 424.341 3399.02 426.54 Q3397.03 428.739 3397.03 432.535 L3397.03 447.188 L3392.75 447.188 L3392.75 421.262 L3397.03 421.262 L3397.03 425.29 Q3398.56 422.952 3400.62 421.794 Q3402.7 420.637 3405.41 420.637 Q3409.88 420.637 3412.17 423.415 Q3414.46 426.169 3414.46 431.54 Z" fill="#000000" fill-rule="nonzero" fill-opacity="1" /><path clip-path="url(#clip530)" d="M3440.02 425.197 L3440.02 411.169 L3444.28 411.169 L3444.28 447.188 L3440.02 447.188 L3440.02 443.299 Q3438.67 445.614 3436.61 446.748 Q3434.58 447.859 3431.71 447.859 Q3427.01 447.859 3424.05 444.109 Q3421.11 440.359 3421.11 434.248 Q3421.11 428.137 3424.05 424.387 Q3427.01 420.637 3431.71 420.637 Q3434.58 420.637 3436.61 421.771 Q3438.67 422.882 3440.02 425.197 M3425.5 434.248 Q3425.5 438.947 3427.42 441.632 Q3429.37 444.294 3432.75 444.294 Q3436.13 444.294 3438.07 441.632 Q3440.02 438.947 3440.02 434.248 Q3440.02 429.549 3438.07 426.887 Q3436.13 424.202 3432.75 424.202 Q3429.37 424.202 3427.42 426.887 Q3425.5 429.549 3425.5 434.248 Z" fill="#000000" fill-rule="nonzero" fill-opacity="1" /><path clip-path="url(#clip530)" d="M3475.23 433.16 L3475.23 435.243 L3455.64 435.243 Q3455.92 439.641 3458.28 441.956 Q3460.67 444.248 3464.9 444.248 Q3467.36 444.248 3469.65 443.646 Q3471.96 443.044 3474.23 441.841 L3474.23 445.868 Q3471.94 446.84 3469.53 447.35 Q3467.12 447.859 3464.65 447.859 Q3458.44 447.859 3454.81 444.248 Q3451.2 440.637 3451.2 434.479 Q3451.2 428.114 3454.62 424.387 Q3458.07 420.637 3463.91 420.637 Q3469.14 420.637 3472.17 424.017 Q3475.23 427.373 3475.23 433.16 M3470.97 431.91 Q3470.92 428.415 3469 426.331 Q3467.1 424.248 3463.95 424.248 Q3460.39 424.248 3458.23 426.262 Q3456.11 428.276 3455.78 431.933 L3470.97 431.91 Z" fill="#000000" fill-rule="nonzero" fill-opacity="1" /><path clip-path="url(#clip530)" d="M3502.93 421.262 L3493.56 433.878 L3503.42 447.188 L3498.4 447.188 L3490.85 437.003 L3483.3 447.188 L3478.28 447.188 L3488.35 433.623 L3479.14 421.262 L3484.16 421.262 L3491.04 430.498 L3497.91 421.262 L3502.93 421.262 Z" fill="#000000" fill-rule="nonzero" fill-opacity="1" /></svg>
