<?xml version="1.0" encoding="utf-8"?>
<svg xmlns="http://www.w3.org/2000/svg" xmlns:xlink="http://www.w3.org/1999/xlink" width="600" height="400" viewBox="0 0 2400 1600">
<defs>
  <clipPath id="clip650">
    <rect x="0" y="0" width="2400" height="1600"/>
  </clipPath>
</defs>
<path clip-path="url(#clip650)" d="M0 1600 L2400 1600 L2400 0 L0 0  Z" fill="#ffffff" fill-rule="evenodd" fill-opacity="1"/>
<defs>
  <clipPath id="clip651">
    <rect x="480" y="0" width="1681" height="1600"/>
  </clipPath>
</defs>
<path clip-path="url(#clip650)" d="M202.227 1423.18 L2352.76 1423.18 L2352.76 123.472 L202.227 123.472  Z" fill="#ffffff" fill-rule="evenodd" fill-opacity="1"/>
<defs>
  <clipPath id="clip652">
    <rect x="202" y="123" width="2152" height="1301"/>
  </clipPath>
</defs>
<polyline clip-path="url(#clip652)" style="stroke:#000000; stroke-linecap:round; stroke-linejoin:round; stroke-width:2; stroke-opacity:0.1; fill:none" points="242.917,1423.18 242.917,123.472 "/>
<polyline clip-path="url(#clip652)" style="stroke:#000000; stroke-linecap:round; stroke-linejoin:round; stroke-width:2; stroke-opacity:0.1; fill:none" points="889.526,1423.18 889.526,123.472 "/>
<polyline clip-path="url(#clip652)" style="stroke:#000000; stroke-linecap:round; stroke-linejoin:round; stroke-width:2; stroke-opacity:0.1; fill:none" points="1536.14,1423.18 1536.14,123.472 "/>
<polyline clip-path="url(#clip652)" style="stroke:#000000; stroke-linecap:round; stroke-linejoin:round; stroke-width:2; stroke-opacity:0.1; fill:none" points="2182.74,1423.18 2182.74,123.472 "/>
<polyline clip-path="url(#clip652)" style="stroke:#000000; stroke-linecap:round; stroke-linejoin:round; stroke-width:2; stroke-opacity:0.1; fill:none" points="202.227,1423.18 2352.76,1423.18 "/>
<polyline clip-path="url(#clip652)" style="stroke:#000000; stroke-linecap:round; stroke-linejoin:round; stroke-width:2; stroke-opacity:0.1; fill:none" points="202.227,1163.24 2352.76,1163.24 "/>
<polyline clip-path="url(#clip652)" style="stroke:#000000; stroke-linecap:round; stroke-linejoin:round; stroke-width:2; stroke-opacity:0.1; fill:none" points="202.227,903.297 2352.76,903.297 "/>
<polyline clip-path="url(#clip652)" style="stroke:#000000; stroke-linecap:round; stroke-linejoin:round; stroke-width:2; stroke-opacity:0.1; fill:none" points="202.227,643.355 2352.76,643.355 "/>
<polyline clip-path="url(#clip652)" style="stroke:#000000; stroke-linecap:round; stroke-linejoin:round; stroke-width:2; stroke-opacity:0.1; fill:none" points="202.227,383.414 2352.76,383.414 "/>
<polyline clip-path="url(#clip652)" style="stroke:#000000; stroke-linecap:round; stroke-linejoin:round; stroke-width:2; stroke-opacity:0.1; fill:none" points="202.227,123.472 2352.76,123.472 "/>
<polyline clip-path="url(#clip650)" style="stroke:#000000; stroke-linecap:round; stroke-linejoin:round; stroke-width:4; stroke-opacity:1; fill:none" points="202.227,1423.18 2352.76,1423.18 "/>
<polyline clip-path="url(#clip650)" style="stroke:#000000; stroke-linecap:round; stroke-linejoin:round; stroke-width:4; stroke-opacity:1; fill:none" points="242.917,1423.18 242.917,1404.28 "/>
<polyline clip-path="url(#clip650)" style="stroke:#000000; stroke-linecap:round; stroke-linejoin:round; stroke-width:4; stroke-opacity:1; fill:none" points="889.526,1423.18 889.526,1404.28 "/>
<polyline clip-path="url(#clip650)" style="stroke:#000000; stroke-linecap:round; stroke-linejoin:round; stroke-width:4; stroke-opacity:1; fill:none" points="1536.14,1423.18 1536.14,1404.28 "/>
<polyline clip-path="url(#clip650)" style="stroke:#000000; stroke-linecap:round; stroke-linejoin:round; stroke-width:4; stroke-opacity:1; fill:none" points="2182.74,1423.18 2182.74,1404.28 "/>
<path clip-path="url(#clip650)" d="M242.917 1454.1 Q239.306 1454.1 237.477 1457.66 Q235.672 1461.2 235.672 1468.33 Q235.672 1475.44 237.477 1479.01 Q239.306 1482.55 242.917 1482.55 Q246.552 1482.55 248.357 1479.01 Q250.186 1475.44 250.186 1468.33 Q250.186 1461.2 248.357 1457.66 Q246.552 1454.1 242.917 1454.1 M242.917 1450.39 Q248.727 1450.39 251.783 1455 Q254.862 1459.58 254.862 1468.33 Q254.862 1477.06 251.783 1481.67 Q248.727 1486.25 242.917 1486.25 Q237.107 1486.25 234.028 1481.67 Q230.973 1477.06 230.973 1468.33 Q230.973 1459.58 234.028 1455 Q237.107 1450.39 242.917 1450.39 Z" fill="#000000" fill-rule="nonzero" fill-opacity="1" /><path clip-path="url(#clip650)" d="M879.804 1451.02 L898.16 1451.02 L898.16 1454.96 L884.087 1454.96 L884.087 1463.43 Q885.105 1463.08 886.124 1462.92 Q887.142 1462.73 888.161 1462.73 Q893.948 1462.73 897.327 1465.9 Q900.707 1469.08 900.707 1474.49 Q900.707 1480.07 897.235 1483.17 Q893.762 1486.25 887.443 1486.25 Q885.267 1486.25 882.999 1485.88 Q880.753 1485.51 878.346 1484.77 L878.346 1480.07 Q880.429 1481.2 882.651 1481.76 Q884.874 1482.32 887.35 1482.32 Q891.355 1482.32 893.693 1480.21 Q896.031 1478.1 896.031 1474.49 Q896.031 1470.88 893.693 1468.77 Q891.355 1466.67 887.35 1466.67 Q885.475 1466.67 883.6 1467.08 Q881.749 1467.5 879.804 1468.38 L879.804 1451.02 Z" fill="#000000" fill-rule="nonzero" fill-opacity="1" /><path clip-path="url(#clip650)" d="M1510.82 1481.64 L1518.46 1481.64 L1518.46 1455.28 L1510.15 1456.95 L1510.15 1452.69 L1518.42 1451.02 L1523.09 1451.02 L1523.09 1481.64 L1530.73 1481.64 L1530.73 1485.58 L1510.82 1485.58 L1510.82 1481.64 Z" fill="#000000" fill-rule="nonzero" fill-opacity="1" /><path clip-path="url(#clip650)" d="M1550.17 1454.1 Q1546.56 1454.1 1544.73 1457.66 Q1542.93 1461.2 1542.93 1468.33 Q1542.93 1475.44 1544.73 1479.01 Q1546.56 1482.55 1550.17 1482.55 Q1553.81 1482.55 1555.61 1479.01 Q1557.44 1475.44 1557.44 1468.33 Q1557.44 1461.2 1555.61 1457.66 Q1553.81 1454.1 1550.17 1454.1 M1550.17 1450.39 Q1555.98 1450.39 1559.04 1455 Q1562.12 1459.58 1562.12 1468.33 Q1562.12 1477.06 1559.04 1481.67 Q1555.98 1486.25 1550.17 1486.25 Q1544.36 1486.25 1541.29 1481.67 Q1538.23 1477.06 1538.23 1468.33 Q1538.23 1459.58 1541.29 1455 Q1544.36 1450.39 1550.17 1450.39 Z" fill="#000000" fill-rule="nonzero" fill-opacity="1" /><path clip-path="url(#clip650)" d="M2157.93 1481.64 L2165.57 1481.64 L2165.57 1455.28 L2157.26 1456.95 L2157.26 1452.69 L2165.52 1451.02 L2170.2 1451.02 L2170.2 1481.64 L2177.84 1481.64 L2177.84 1485.58 L2157.93 1485.58 L2157.93 1481.64 Z" fill="#000000" fill-rule="nonzero" fill-opacity="1" /><path clip-path="url(#clip650)" d="M2187.33 1451.02 L2205.68 1451.02 L2205.68 1454.96 L2191.61 1454.96 L2191.61 1463.43 Q2192.63 1463.08 2193.65 1462.92 Q2194.67 1462.73 2195.68 1462.73 Q2201.47 1462.73 2204.85 1465.9 Q2208.23 1469.08 2208.23 1474.49 Q2208.23 1480.07 2204.76 1483.17 Q2201.29 1486.25 2194.97 1486.25 Q2192.79 1486.25 2190.52 1485.88 Q2188.28 1485.51 2185.87 1484.77 L2185.87 1480.07 Q2187.95 1481.2 2190.17 1481.76 Q2192.4 1482.32 2194.87 1482.32 Q2198.88 1482.32 2201.22 1480.21 Q2203.55 1478.1 2203.55 1474.49 Q2203.55 1470.88 2201.22 1468.77 Q2198.88 1466.67 2194.87 1466.67 Q2193 1466.67 2191.12 1467.08 Q2189.27 1467.5 2187.33 1468.38 L2187.33 1451.02 Z" fill="#000000" fill-rule="nonzero" fill-opacity="1" /><path clip-path="url(#clip650)" d="M1159.36 1520.52 L1165.79 1520.52 L1165.79 1562.63 L1188.93 1562.63 L1188.93 1568.04 L1159.36 1568.04 L1159.36 1520.52 Z" fill="#000000" fill-rule="nonzero" fill-opacity="1" /><path clip-path="url(#clip650)" d="M1208.09 1536.5 Q1203.38 1536.5 1200.64 1540.19 Q1197.9 1543.85 1197.9 1550.25 Q1197.9 1556.65 1200.61 1560.34 Q1203.35 1564 1208.09 1564 Q1212.77 1564 1215.51 1560.31 Q1218.24 1556.62 1218.24 1550.25 Q1218.24 1543.92 1215.51 1540.23 Q1212.77 1536.5 1208.09 1536.5 M1208.09 1531.54 Q1215.73 1531.54 1220.09 1536.5 Q1224.45 1541.47 1224.45 1550.25 Q1224.45 1559 1220.09 1564 Q1215.73 1568.97 1208.09 1568.97 Q1200.42 1568.97 1196.06 1564 Q1191.73 1559 1191.73 1550.25 Q1191.73 1541.47 1196.06 1536.5 Q1200.42 1531.54 1208.09 1531.54 Z" fill="#000000" fill-rule="nonzero" fill-opacity="1" /><path clip-path="url(#clip650)" d="M1250.36 1550.12 Q1243.26 1550.12 1240.52 1551.75 Q1237.79 1553.37 1237.79 1557.29 Q1237.79 1560.4 1239.82 1562.25 Q1241.89 1564.07 1245.42 1564.07 Q1250.29 1564.07 1253.22 1560.63 Q1256.18 1557.16 1256.18 1551.43 L1256.18 1550.12 L1250.36 1550.12 M1262.04 1547.71 L1262.04 1568.04 L1256.18 1568.04 L1256.18 1562.63 Q1254.18 1565.88 1251.19 1567.44 Q1248.19 1568.97 1243.86 1568.97 Q1238.39 1568.97 1235.14 1565.91 Q1231.93 1562.82 1231.93 1557.67 Q1231.93 1551.65 1235.94 1548.6 Q1239.98 1545.54 1247.97 1545.54 L1256.18 1545.54 L1256.18 1544.97 Q1256.18 1540.93 1253.51 1538.73 Q1250.87 1536.5 1246.06 1536.5 Q1243.01 1536.5 1240.11 1537.23 Q1237.21 1537.97 1234.54 1539.43 L1234.54 1534.02 Q1237.75 1532.78 1240.78 1532.17 Q1243.8 1531.54 1246.67 1531.54 Q1254.4 1531.54 1258.22 1535.55 Q1262.04 1539.56 1262.04 1547.71 Z" fill="#000000" fill-rule="nonzero" fill-opacity="1" /><path clip-path="url(#clip650)" d="M1297.56 1537.81 L1297.56 1518.52 L1303.42 1518.52 L1303.42 1568.04 L1297.56 1568.04 L1297.56 1562.7 Q1295.71 1565.88 1292.88 1567.44 Q1290.08 1568.97 1286.13 1568.97 Q1279.67 1568.97 1275.6 1563.81 Q1271.56 1558.65 1271.56 1550.25 Q1271.56 1541.85 1275.6 1536.69 Q1279.67 1531.54 1286.13 1531.54 Q1290.08 1531.54 1292.88 1533.1 Q1295.71 1534.62 1297.56 1537.81 M1277.6 1550.25 Q1277.6 1556.71 1280.24 1560.4 Q1282.92 1564.07 1287.57 1564.07 Q1292.21 1564.07 1294.89 1560.4 Q1297.56 1556.71 1297.56 1550.25 Q1297.56 1543.79 1294.89 1540.13 Q1292.21 1536.44 1287.57 1536.44 Q1282.92 1536.44 1280.24 1540.13 Q1277.6 1543.79 1277.6 1550.25 Z" fill="#000000" fill-rule="nonzero" fill-opacity="1" /><path clip-path="url(#clip650)" d="M1336.45 1520.52 L1342.88 1520.52 L1342.88 1568.04 L1336.45 1568.04 L1336.45 1520.52 Z" fill="#000000" fill-rule="nonzero" fill-opacity="1" /><path clip-path="url(#clip650)" d="M1362.11 1525.81 L1362.11 1562.76 L1369.87 1562.76 Q1379.71 1562.76 1384.26 1558.3 Q1388.84 1553.85 1388.84 1544.24 Q1388.84 1534.69 1384.26 1530.26 Q1379.71 1525.81 1369.87 1525.81 L1362.11 1525.81 M1355.68 1520.52 L1368.89 1520.52 Q1382.7 1520.52 1389.16 1526.28 Q1395.62 1532.01 1395.62 1544.24 Q1395.62 1556.52 1389.13 1562.28 Q1382.64 1568.04 1368.89 1568.04 L1355.68 1568.04 L1355.68 1520.52 Z" fill="#000000" fill-rule="nonzero" fill-opacity="1" /><polyline clip-path="url(#clip650)" style="stroke:#000000; stroke-linecap:round; stroke-linejoin:round; stroke-width:4; stroke-opacity:1; fill:none" points="202.227,1423.18 202.227,123.472 "/>
<polyline clip-path="url(#clip650)" style="stroke:#000000; stroke-linecap:round; stroke-linejoin:round; stroke-width:4; stroke-opacity:1; fill:none" points="202.227,1423.18 221.125,1423.18 "/>
<polyline clip-path="url(#clip650)" style="stroke:#000000; stroke-linecap:round; stroke-linejoin:round; stroke-width:4; stroke-opacity:1; fill:none" points="202.227,1163.24 221.125,1163.24 "/>
<polyline clip-path="url(#clip650)" style="stroke:#000000; stroke-linecap:round; stroke-linejoin:round; stroke-width:4; stroke-opacity:1; fill:none" points="202.227,903.297 221.125,903.297 "/>
<polyline clip-path="url(#clip650)" style="stroke:#000000; stroke-linecap:round; stroke-linejoin:round; stroke-width:4; stroke-opacity:1; fill:none" points="202.227,643.355 221.125,643.355 "/>
<polyline clip-path="url(#clip650)" style="stroke:#000000; stroke-linecap:round; stroke-linejoin:round; stroke-width:4; stroke-opacity:1; fill:none" points="202.227,383.414 221.125,383.414 "/>
<polyline clip-path="url(#clip650)" style="stroke:#000000; stroke-linecap:round; stroke-linejoin:round; stroke-width:4; stroke-opacity:1; fill:none" points="202.227,123.472 221.125,123.472 "/>
<path clip-path="url(#clip650)" d="M154.283 1408.98 Q150.672 1408.98 148.843 1412.54 Q147.038 1416.08 147.038 1423.21 Q147.038 1430.32 148.843 1433.89 Q150.672 1437.43 154.283 1437.43 Q157.917 1437.43 159.723 1433.89 Q161.552 1430.32 161.552 1423.21 Q161.552 1416.08 159.723 1412.54 Q157.917 1408.98 154.283 1408.98 M154.283 1405.27 Q160.093 1405.27 163.149 1409.88 Q166.227 1414.46 166.227 1423.21 Q166.227 1431.94 163.149 1436.55 Q160.093 1441.13 154.283 1441.13 Q148.473 1441.13 145.394 1436.55 Q142.339 1431.94 142.339 1423.21 Q142.339 1414.46 145.394 1409.88 Q148.473 1405.27 154.283 1405.27 Z" fill="#000000" fill-rule="nonzero" fill-opacity="1" /><path clip-path="url(#clip650)" d="M149.908 1176.58 L166.227 1176.58 L166.227 1180.52 L144.283 1180.52 L144.283 1176.58 Q146.945 1173.83 151.528 1169.2 Q156.135 1164.55 157.315 1163.2 Q159.561 1160.68 160.44 1158.94 Q161.343 1157.19 161.343 1155.5 Q161.343 1152.74 159.399 1151 Q157.478 1149.27 154.376 1149.27 Q152.177 1149.27 149.723 1150.03 Q147.292 1150.8 144.515 1152.35 L144.515 1147.62 Q147.339 1146.49 149.792 1145.91 Q152.246 1145.33 154.283 1145.33 Q159.653 1145.33 162.848 1148.02 Q166.042 1150.7 166.042 1155.19 Q166.042 1157.32 165.232 1159.25 Q164.445 1161.14 162.339 1163.74 Q161.76 1164.41 158.658 1167.62 Q155.556 1170.82 149.908 1176.58 Z" fill="#000000" fill-rule="nonzero" fill-opacity="1" /><path clip-path="url(#clip650)" d="M156.644 890.091 L144.839 908.54 L156.644 908.54 L156.644 890.091 M155.417 886.017 L161.297 886.017 L161.297 908.54 L166.227 908.54 L166.227 912.429 L161.297 912.429 L161.297 920.577 L156.644 920.577 L156.644 912.429 L141.042 912.429 L141.042 907.915 L155.417 886.017 Z" fill="#000000" fill-rule="nonzero" fill-opacity="1" /><path clip-path="url(#clip650)" d="M154.7 641.492 Q151.552 641.492 149.7 643.645 Q147.871 645.797 147.871 649.547 Q147.871 653.274 149.7 655.45 Q151.552 657.603 154.7 657.603 Q157.848 657.603 159.677 655.45 Q161.528 653.274 161.528 649.547 Q161.528 645.797 159.677 643.645 Q157.848 641.492 154.7 641.492 M163.982 626.839 L163.982 631.098 Q162.223 630.265 160.417 629.825 Q158.635 629.385 156.876 629.385 Q152.246 629.385 149.792 632.51 Q147.362 635.635 147.015 641.955 Q148.38 639.941 150.441 638.876 Q152.501 637.788 154.978 637.788 Q160.186 637.788 163.195 640.959 Q166.227 644.108 166.227 649.547 Q166.227 654.871 163.079 658.089 Q159.931 661.307 154.7 661.307 Q148.704 661.307 145.533 656.723 Q142.362 652.117 142.362 643.39 Q142.362 635.196 146.251 630.334 Q150.14 625.45 156.69 625.45 Q158.45 625.45 160.232 625.797 Q162.038 626.145 163.982 626.839 Z" fill="#000000" fill-rule="nonzero" fill-opacity="1" /><path clip-path="url(#clip650)" d="M154.376 384.282 Q151.042 384.282 149.121 386.064 Q147.223 387.847 147.223 390.971 Q147.223 394.096 149.121 395.879 Q151.042 397.661 154.376 397.661 Q157.709 397.661 159.63 395.879 Q161.552 394.073 161.552 390.971 Q161.552 387.847 159.63 386.064 Q157.732 384.282 154.376 384.282 M149.7 382.291 Q146.691 381.55 145.001 379.49 Q143.334 377.43 143.334 374.467 Q143.334 370.323 146.274 367.916 Q149.237 365.509 154.376 365.509 Q159.538 365.509 162.477 367.916 Q165.417 370.323 165.417 374.467 Q165.417 377.43 163.727 379.49 Q162.061 381.55 159.075 382.291 Q162.454 383.078 164.329 385.37 Q166.227 387.661 166.227 390.971 Q166.227 395.995 163.149 398.68 Q160.093 401.365 154.376 401.365 Q148.658 401.365 145.579 398.68 Q142.524 395.995 142.524 390.971 Q142.524 387.661 144.422 385.37 Q146.32 383.078 149.7 382.291 M147.987 374.907 Q147.987 377.592 149.653 379.097 Q151.343 380.601 154.376 380.601 Q157.385 380.601 159.075 379.097 Q160.788 377.592 160.788 374.907 Q160.788 372.222 159.075 370.717 Q157.385 369.212 154.376 369.212 Q151.343 369.212 149.653 370.717 Q147.987 372.222 147.987 374.907 Z" fill="#000000" fill-rule="nonzero" fill-opacity="1" /><path clip-path="url(#clip650)" d="M114.931 136.817 L122.57 136.817 L122.57 110.451 L114.26 112.118 L114.26 107.859 L122.524 106.192 L127.2 106.192 L127.2 136.817 L134.839 136.817 L134.839 140.752 L114.931 140.752 L114.931 136.817 Z" fill="#000000" fill-rule="nonzero" fill-opacity="1" /><path clip-path="url(#clip650)" d="M154.283 109.271 Q150.672 109.271 148.843 112.836 Q147.038 116.377 147.038 123.507 Q147.038 130.613 148.843 134.178 Q150.672 137.72 154.283 137.72 Q157.917 137.72 159.723 134.178 Q161.552 130.613 161.552 123.507 Q161.552 116.377 159.723 112.836 Q157.917 109.271 154.283 109.271 M154.283 105.567 Q160.093 105.567 163.149 110.174 Q166.227 114.757 166.227 123.507 Q166.227 132.234 163.149 136.84 Q160.093 141.423 154.283 141.423 Q148.473 141.423 145.394 136.84 Q142.339 132.234 142.339 123.507 Q142.339 114.757 145.394 110.174 Q148.473 105.567 154.283 105.567 Z" fill="#000000" fill-rule="nonzero" fill-opacity="1" /><path clip-path="url(#clip650)" d="M16.4842 1039.99 L16.4842 1012.68 L21.895 1012.68 L21.895 1033.56 L35.8996 1033.56 L35.8996 1014.71 L41.3104 1014.71 L41.3104 1033.56 L64.0042 1033.56 L64.0042 1039.99 L16.4842 1039.99 Z" fill="#000000" fill-rule="nonzero" fill-opacity="1" /><path clip-path="url(#clip650)" d="M46.0847 992.529 Q46.0847 999.627 47.7079 1002.36 Q49.3312 1005.1 53.2461 1005.1 Q56.3653 1005.1 58.2114 1003.06 Q60.0256 1001 60.0256 997.463 Q60.0256 992.593 56.5881 989.665 Q53.1188 986.704 47.3897 986.704 L46.0847 986.704 L46.0847 992.529 M43.6657 980.848 L64.0042 980.848 L64.0042 986.704 L58.5933 986.704 Q61.8398 988.71 63.3994 991.702 Q64.9272 994.693 64.9272 999.022 Q64.9272 1004.5 61.8716 1007.74 Q58.7843 1010.96 53.6281 1010.96 Q47.6125 1010.96 44.5569 1006.95 Q41.5014 1002.91 41.5014 994.916 L41.5014 986.704 L40.9285 986.704 Q36.8862 986.704 34.6901 989.378 Q32.4621 992.02 32.4621 996.826 Q32.4621 999.881 33.1941 1002.78 Q33.9262 1005.67 35.3903 1008.35 L29.9795 1008.35 Q28.7381 1005.13 28.1334 1002.11 Q27.4968 999.086 27.4968 996.221 Q27.4968 988.487 31.5072 984.667 Q35.5176 980.848 43.6657 980.848 Z" fill="#000000" fill-rule="nonzero" fill-opacity="1" /><path clip-path="url(#clip650)" d="M28.3562 968.785 L28.3562 962.929 L64.0042 962.929 L64.0042 968.785 L28.3562 968.785 M14.479 968.785 L14.479 962.929 L21.895 962.929 L21.895 968.785 L14.479 968.785 Z" fill="#000000" fill-rule="nonzero" fill-opacity="1" /><path clip-path="url(#clip650)" d="M33.8307 930.018 Q33.2578 931.005 33.0032 932.182 Q32.7167 933.328 32.7167 934.728 Q32.7167 939.694 35.9632 942.367 Q39.1779 945.009 45.2253 945.009 L64.0042 945.009 L64.0042 950.897 L28.3562 950.897 L28.3562 945.009 L33.8944 945.009 Q30.6479 943.163 29.0883 940.203 Q27.4968 937.243 27.4968 933.01 Q27.4968 932.405 27.5923 931.673 Q27.656 930.941 27.8151 930.05 L33.8307 930.018 Z" fill="#000000" fill-rule="nonzero" fill-opacity="1" /><path clip-path="url(#clip650)" d="M16.4842 902.9 L16.4842 896.471 L58.5933 896.471 L58.5933 873.331 L64.0042 873.331 L64.0042 902.9 L16.4842 902.9 Z" fill="#000000" fill-rule="nonzero" fill-opacity="1" /><path clip-path="url(#clip650)" d="M32.4621 854.17 Q32.4621 858.881 36.1542 861.618 Q39.8145 864.356 46.212 864.356 Q52.6095 864.356 56.3017 861.65 Q59.9619 858.913 59.9619 854.17 Q59.9619 849.492 56.2698 846.754 Q52.5777 844.017 46.212 844.017 Q39.8781 844.017 36.186 846.754 Q32.4621 849.492 32.4621 854.17 M27.4968 854.17 Q27.4968 846.532 32.4621 842.171 Q37.4273 837.811 46.212 837.811 Q54.9649 837.811 59.9619 842.171 Q64.9272 846.532 64.9272 854.17 Q64.9272 861.841 59.9619 866.202 Q54.9649 870.53 46.212 870.53 Q37.4273 870.53 32.4621 866.202 Q27.4968 861.841 27.4968 854.17 Z" fill="#000000" fill-rule="nonzero" fill-opacity="1" /><path clip-path="url(#clip650)" d="M46.0847 811.902 Q46.0847 819 47.7079 821.737 Q49.3312 824.474 53.2461 824.474 Q56.3653 824.474 58.2114 822.437 Q60.0256 820.369 60.0256 816.836 Q60.0256 811.966 56.5881 809.038 Q53.1188 806.078 47.3897 806.078 L46.0847 806.078 L46.0847 811.902 M43.6657 800.221 L64.0042 800.221 L64.0042 806.078 L58.5933 806.078 Q61.8398 808.083 63.3994 811.075 Q64.9272 814.067 64.9272 818.395 Q64.9272 823.87 61.8716 827.116 Q58.7843 830.331 53.6281 830.331 Q47.6125 830.331 44.5569 826.32 Q41.5014 822.278 41.5014 814.289 L41.5014 806.078 L40.9285 806.078 Q36.8862 806.078 34.6901 808.751 Q32.4621 811.393 32.4621 816.199 Q32.4621 819.255 33.1941 822.151 Q33.9262 825.047 35.3903 827.721 L29.9795 827.721 Q28.7381 824.506 28.1334 821.483 Q27.4968 818.459 27.4968 815.594 Q27.4968 807.86 31.5072 804.041 Q35.5176 800.221 43.6657 800.221 Z" fill="#000000" fill-rule="nonzero" fill-opacity="1" /><path clip-path="url(#clip650)" d="M33.7671 764.7 L14.479 764.7 L14.479 758.844 L64.0042 758.844 L64.0042 764.7 L58.657 764.7 Q61.8398 766.547 63.3994 769.379 Q64.9272 772.18 64.9272 776.127 Q64.9272 782.588 59.771 786.662 Q54.6147 790.704 46.212 790.704 Q37.8093 790.704 32.6531 786.662 Q27.4968 782.588 27.4968 776.127 Q27.4968 772.18 29.0564 769.379 Q30.5842 766.547 33.7671 764.7 M46.212 784.657 Q52.6732 784.657 56.3653 782.015 Q60.0256 779.342 60.0256 774.695 Q60.0256 770.048 56.3653 767.374 Q52.6732 764.7 46.212 764.7 Q39.7508 764.7 36.0905 767.374 Q32.3984 770.048 32.3984 774.695 Q32.3984 779.342 36.0905 782.015 Q39.7508 784.657 46.212 784.657 Z" fill="#000000" fill-rule="nonzero" fill-opacity="1" /><path clip-path="url(#clip650)" d="M16.4842 730.039 L16.4842 723.546 L56.6518 713.552 L16.4842 703.59 L16.4842 696.365 L56.6518 686.37 L16.4842 676.408 L16.4842 669.883 L64.0042 681.819 L64.0042 689.903 L22.7544 699.929 L64.0042 710.051 L64.0042 718.135 L16.4842 730.039 Z" fill="#000000" fill-rule="nonzero" fill-opacity="1" /><path clip-path="url(#clip650)" d="M44.7161 634.936 L47.5806 634.936 L47.5806 661.862 Q53.6281 661.481 56.8109 658.234 Q59.9619 654.956 59.9619 649.131 Q59.9619 645.757 59.1344 642.606 Q58.3069 639.423 56.6518 636.304 L62.1899 636.304 Q63.5267 639.455 64.227 642.765 Q64.9272 646.076 64.9272 649.481 Q64.9272 658.011 59.9619 663.008 Q54.9967 667.974 46.5303 667.974 Q37.7774 667.974 32.6531 663.263 Q27.4968 658.52 27.4968 650.5 Q27.4968 643.306 32.1438 639.137 Q36.7589 634.936 44.7161 634.936 M42.9973 640.792 Q38.1912 640.856 35.3266 643.497 Q32.4621 646.107 32.4621 650.436 Q32.4621 655.338 35.2312 658.298 Q38.0002 661.226 43.0292 661.671 L42.9973 640.792 Z" fill="#000000" fill-rule="nonzero" fill-opacity="1" /><path clip-path="url(#clip650)" d="M28.3562 625.323 L28.3562 619.467 L64.0042 619.467 L64.0042 625.323 L28.3562 625.323 M14.479 625.323 L14.479 619.467 L21.895 619.467 L21.895 625.323 L14.479 625.323 Z" fill="#000000" fill-rule="nonzero" fill-opacity="1" /><path clip-path="url(#clip650)" d="M45.7664 583.755 Q39.4007 583.755 35.8996 586.397 Q32.3984 589.007 32.3984 593.749 Q32.3984 598.46 35.8996 601.102 Q39.4007 603.712 45.7664 603.712 Q52.1003 603.712 55.6014 601.102 Q59.1026 598.46 59.1026 593.749 Q59.1026 589.007 55.6014 586.397 Q52.1003 583.755 45.7664 583.755 M59.58 577.899 Q68.683 577.899 73.1071 581.941 Q77.5631 585.983 77.5631 594.322 Q77.5631 597.41 77.0857 600.147 Q76.6401 602.884 75.6852 605.462 L69.9879 605.462 Q71.3884 602.884 72.0568 600.37 Q72.7252 597.855 72.7252 595.245 Q72.7252 589.484 69.7015 586.62 Q66.7096 583.755 60.6303 583.755 L57.7339 583.755 Q60.885 585.569 62.4446 588.402 Q64.0042 591.235 64.0042 595.182 Q64.0042 601.738 59.0071 605.749 Q54.01 609.759 45.7664 609.759 Q37.491 609.759 32.4939 605.749 Q27.4968 601.738 27.4968 595.182 Q27.4968 591.235 29.0564 588.402 Q30.616 585.569 33.7671 583.755 L28.3562 583.755 L28.3562 577.899 L59.58 577.899 Z" fill="#000000" fill-rule="nonzero" fill-opacity="1" /><path clip-path="url(#clip650)" d="M42.4881 536.203 L64.0042 536.203 L64.0042 542.06 L42.679 542.06 Q37.6183 542.06 35.1038 544.033 Q32.5894 546.007 32.5894 549.953 Q32.5894 554.696 35.6131 557.433 Q38.6368 560.17 43.8567 560.17 L64.0042 560.17 L64.0042 566.059 L14.479 566.059 L14.479 560.17 L33.8944 560.17 Q30.6797 558.07 29.0883 555.237 Q27.4968 552.372 27.4968 548.648 Q27.4968 542.505 31.3163 539.354 Q35.1038 536.203 42.4881 536.203 Z" fill="#000000" fill-rule="nonzero" fill-opacity="1" /><path clip-path="url(#clip650)" d="M18.2347 518.73 L28.3562 518.73 L28.3562 506.667 L32.9077 506.667 L32.9077 518.73 L52.2594 518.73 Q56.6199 518.73 57.8613 517.552 Q59.1026 516.342 59.1026 512.682 L59.1026 506.667 L64.0042 506.667 L64.0042 512.682 Q64.0042 519.462 61.4897 522.04 Q58.9434 524.618 52.2594 524.618 L32.9077 524.618 L32.9077 528.915 L28.3562 528.915 L28.3562 524.618 L18.2347 524.618 L18.2347 518.73 Z" fill="#000000" fill-rule="nonzero" fill-opacity="1" /><path clip-path="url(#clip650)" d="M467.473 12.096 L502.23 12.096 L502.23 18.9825 L475.656 18.9825 L475.656 36.8065 L499.637 36.8065 L499.637 43.6931 L475.656 43.6931 L475.656 72.576 L467.473 72.576 L467.473 12.096 Z" fill="#000000" fill-rule="nonzero" fill-opacity="1" /><path clip-path="url(#clip650)" d="M527.872 49.7694 Q518.838 49.7694 515.355 51.8354 Q511.871 53.9013 511.871 58.8839 Q511.871 62.8538 514.463 65.2034 Q517.096 67.5124 521.593 67.5124 Q527.791 67.5124 531.518 63.1374 Q535.285 58.7219 535.285 51.4303 L535.285 49.7694 L527.872 49.7694 M542.739 46.6907 L542.739 72.576 L535.285 72.576 L535.285 65.6895 Q532.733 69.8214 528.925 71.8063 Q525.117 73.7508 519.608 73.7508 Q512.64 73.7508 508.509 69.8619 Q504.417 65.9325 504.417 59.3701 Q504.417 51.7138 509.521 47.825 Q514.666 43.9361 524.834 43.9361 L535.285 43.9361 L535.285 43.2069 Q535.285 38.0623 531.882 35.2672 Q528.52 32.4315 522.403 32.4315 Q518.514 32.4315 514.828 33.3632 Q511.142 34.295 507.739 36.1584 L507.739 29.2718 Q511.83 27.692 515.679 26.9223 Q519.527 26.1121 523.173 26.1121 Q533.017 26.1121 537.878 31.2163 Q542.739 36.3204 542.739 46.6907 Z" fill="#000000" fill-rule="nonzero" fill-opacity="1" /><path clip-path="url(#clip650)" d="M558.092 27.2059 L565.545 27.2059 L565.545 72.576 L558.092 72.576 L558.092 27.2059 M558.092 9.54393 L565.545 9.54393 L565.545 18.9825 L558.092 18.9825 L558.092 9.54393 Z" fill="#000000" fill-rule="nonzero" fill-opacity="1" /><path clip-path="url(#clip650)" d="M607.432 34.1734 Q606.176 33.4443 604.677 33.1202 Q603.219 32.7556 601.436 32.7556 Q595.117 32.7556 591.714 36.8875 Q588.352 40.9789 588.352 48.6757 L588.352 72.576 L580.858 72.576 L580.858 27.2059 L588.352 27.2059 L588.352 34.2544 Q590.701 30.1225 594.469 28.1376 Q598.236 26.1121 603.624 26.1121 Q604.393 26.1121 605.325 26.2337 Q606.257 26.3147 607.391 26.5172 L607.432 34.1734 Z" fill="#000000" fill-rule="nonzero" fill-opacity="1" /><path clip-path="url(#clip650)" d="M641.945 12.096 L650.128 12.096 L650.128 65.6895 L679.578 65.6895 L679.578 72.576 L641.945 72.576 L641.945 12.096 Z" fill="#000000" fill-rule="nonzero" fill-opacity="1" /><path clip-path="url(#clip650)" d="M703.965 32.4315 Q697.969 32.4315 694.486 37.1306 Q691.002 41.7891 691.002 49.9314 Q691.002 58.0738 694.445 62.7728 Q697.929 67.4314 703.965 67.4314 Q709.919 67.4314 713.403 62.7323 Q716.887 58.0333 716.887 49.9314 Q716.887 41.8701 713.403 37.1711 Q709.919 32.4315 703.965 32.4315 M703.965 26.1121 Q713.687 26.1121 719.237 32.4315 Q724.786 38.7509 724.786 49.9314 Q724.786 61.0714 719.237 67.4314 Q713.687 73.7508 703.965 73.7508 Q694.202 73.7508 688.652 67.4314 Q683.143 61.0714 683.143 49.9314 Q683.143 38.7509 688.652 32.4315 Q694.202 26.1121 703.965 26.1121 Z" fill="#000000" fill-rule="nonzero" fill-opacity="1" /><path clip-path="url(#clip650)" d="M757.761 49.7694 Q748.727 49.7694 745.243 51.8354 Q741.76 53.9013 741.76 58.8839 Q741.76 62.8538 744.352 65.2034 Q746.985 67.5124 751.482 67.5124 Q757.68 67.5124 761.406 63.1374 Q765.174 58.7219 765.174 51.4303 L765.174 49.7694 L757.761 49.7694 M772.627 46.6907 L772.627 72.576 L765.174 72.576 L765.174 65.6895 Q762.622 69.8214 758.814 71.8063 Q755.006 73.7508 749.497 73.7508 Q742.529 73.7508 738.397 69.8619 Q734.306 65.9325 734.306 59.3701 Q734.306 51.7138 739.41 47.825 Q744.555 43.9361 754.722 43.9361 L765.174 43.9361 L765.174 43.2069 Q765.174 38.0623 761.771 35.2672 Q758.409 32.4315 752.292 32.4315 Q748.403 32.4315 744.717 33.3632 Q741.03 34.295 737.628 36.1584 L737.628 29.2718 Q741.719 27.692 745.567 26.9223 Q749.416 26.1121 753.062 26.1121 Q762.905 26.1121 767.766 31.2163 Q772.627 36.3204 772.627 46.6907 Z" fill="#000000" fill-rule="nonzero" fill-opacity="1" /><path clip-path="url(#clip650)" d="M817.836 34.0924 L817.836 9.54393 L825.289 9.54393 L825.289 72.576 L817.836 72.576 L817.836 65.7705 Q815.486 69.8214 811.881 71.8063 Q808.316 73.7508 803.293 73.7508 Q795.07 73.7508 789.884 67.1883 Q784.74 60.6258 784.74 49.9314 Q784.74 39.2371 789.884 32.6746 Q795.07 26.1121 803.293 26.1121 Q808.316 26.1121 811.881 28.0971 Q815.486 30.0415 817.836 34.0924 M792.436 49.9314 Q792.436 58.1548 795.799 62.8538 Q799.201 67.5124 805.116 67.5124 Q811.03 67.5124 814.433 62.8538 Q817.836 58.1548 817.836 49.9314 Q817.836 41.7081 814.433 37.0496 Q811.03 32.3505 805.116 32.3505 Q799.201 32.3505 795.799 37.0496 Q792.436 41.7081 792.436 49.9314 Z" fill="#000000" fill-rule="nonzero" fill-opacity="1" /><path clip-path="url(#clip650)" d="M861.95 12.096 L870.214 12.096 L882.934 63.2184 L895.613 12.096 L904.809 12.096 L917.528 63.2184 L930.208 12.096 L938.512 12.096 L923.321 72.576 L913.032 72.576 L900.271 20.0763 L887.39 72.576 L877.1 72.576 L861.95 12.096 Z" fill="#000000" fill-rule="nonzero" fill-opacity="1" /><path clip-path="url(#clip650)" d="M982.991 48.0275 L982.991 51.6733 L948.72 51.6733 Q949.206 59.3701 953.338 63.421 Q957.511 67.4314 964.924 67.4314 Q969.218 67.4314 973.228 66.3781 Q977.279 65.3249 981.249 63.2184 L981.249 70.267 Q977.239 71.9684 973.026 72.8596 Q968.813 73.7508 964.478 73.7508 Q953.622 73.7508 947.262 67.4314 Q940.943 61.1119 940.943 50.3365 Q940.943 39.1965 946.938 32.6746 Q952.974 26.1121 963.182 26.1121 Q972.337 26.1121 977.644 32.0264 Q982.991 37.9003 982.991 48.0275 M975.537 45.84 Q975.456 39.7232 972.094 36.0774 Q968.772 32.4315 963.263 32.4315 Q957.025 32.4315 953.257 35.9558 Q949.53 39.4801 948.963 45.8805 L975.537 45.84 Z" fill="#000000" fill-rule="nonzero" fill-opacity="1" /><path clip-path="url(#clip650)" d="M995.225 27.2059 L1002.68 27.2059 L1002.68 72.576 L995.225 72.576 L995.225 27.2059 M995.225 9.54393 L1002.68 9.54393 L1002.68 18.9825 L995.225 18.9825 L995.225 9.54393 Z" fill="#000000" fill-rule="nonzero" fill-opacity="1" /><path clip-path="url(#clip650)" d="M1048.13 49.3643 Q1048.13 41.2625 1044.77 36.8065 Q1041.45 32.3505 1035.41 32.3505 Q1029.41 32.3505 1026.05 36.8065 Q1022.73 41.2625 1022.73 49.3643 Q1022.73 57.4256 1026.05 61.8816 Q1029.41 66.3376 1035.41 66.3376 Q1041.45 66.3376 1044.77 61.8816 Q1048.13 57.4256 1048.13 49.3643 M1055.58 66.9452 Q1055.58 78.5308 1050.44 84.1616 Q1045.29 89.8329 1034.68 89.8329 Q1030.75 89.8329 1027.27 89.2252 Q1023.78 88.6581 1020.5 87.4428 L1020.5 80.1917 Q1023.78 81.9741 1026.98 82.8248 Q1030.18 83.6755 1033.51 83.6755 Q1040.84 83.6755 1044.48 79.8271 Q1048.13 76.0193 1048.13 68.282 L1048.13 64.5957 Q1045.82 68.6061 1042.22 70.5911 Q1038.61 72.576 1033.59 72.576 Q1025.24 72.576 1020.14 66.2161 Q1015.03 59.8562 1015.03 49.3643 Q1015.03 38.832 1020.14 32.472 Q1025.24 26.1121 1033.59 26.1121 Q1038.61 26.1121 1042.22 28.0971 Q1045.82 30.082 1048.13 34.0924 L1048.13 27.2059 L1055.58 27.2059 L1055.58 66.9452 Z" fill="#000000" fill-rule="nonzero" fill-opacity="1" /><path clip-path="url(#clip650)" d="M1108.65 45.1919 L1108.65 72.576 L1101.2 72.576 L1101.2 45.4349 Q1101.2 38.994 1098.68 35.7938 Q1096.17 32.5936 1091.15 32.5936 Q1085.11 32.5936 1081.63 36.4419 Q1078.15 40.2903 1078.15 46.9338 L1078.15 72.576 L1070.65 72.576 L1070.65 9.54393 L1078.15 9.54393 L1078.15 34.2544 Q1080.82 30.163 1084.43 28.1376 Q1088.07 26.1121 1092.81 26.1121 Q1100.63 26.1121 1104.64 30.9732 Q1108.65 35.7938 1108.65 45.1919 Z" fill="#000000" fill-rule="nonzero" fill-opacity="1" /><path clip-path="url(#clip650)" d="M1130.89 14.324 L1130.89 27.2059 L1146.24 27.2059 L1146.24 32.9987 L1130.89 32.9987 L1130.89 57.6282 Q1130.89 63.1779 1132.39 64.7578 Q1133.93 66.3376 1138.59 66.3376 L1146.24 66.3376 L1146.24 72.576 L1138.59 72.576 Q1129.96 72.576 1126.68 69.3758 Q1123.4 66.1351 1123.4 57.6282 L1123.4 32.9987 L1117.93 32.9987 L1117.93 27.2059 L1123.4 27.2059 L1123.4 14.324 L1130.89 14.324 Z" fill="#000000" fill-rule="nonzero" fill-opacity="1" /><path clip-path="url(#clip650)" d="M1184.97 28.5427 L1184.97 35.5912 Q1181.81 33.9709 1178.41 33.1607 Q1175 32.3505 1171.36 32.3505 Q1165.81 32.3505 1163.01 34.0519 Q1160.26 35.7533 1160.26 39.156 Q1160.26 41.7486 1162.24 43.2475 Q1164.23 44.7058 1170.22 46.0426 L1172.78 46.6097 Q1180.72 48.3111 1184.04 51.4303 Q1187.4 54.509 1187.4 60.0587 Q1187.4 66.3781 1182.38 70.0644 Q1177.39 73.7508 1168.64 73.7508 Q1165 73.7508 1161.03 73.0216 Q1157.1 72.3329 1152.72 70.9151 L1152.72 63.2184 Q1156.86 65.3654 1160.87 66.4591 Q1164.88 67.5124 1168.81 67.5124 Q1174.07 67.5124 1176.91 65.73 Q1179.74 63.9071 1179.74 60.6258 Q1179.74 57.5877 1177.68 55.9673 Q1175.65 54.3469 1168.72 52.8481 L1166.13 52.2405 Q1159.21 50.7821 1156.13 47.7845 Q1153.05 44.7463 1153.05 39.4801 Q1153.05 33.0797 1157.58 29.5959 Q1162.12 26.1121 1170.47 26.1121 Q1174.6 26.1121 1178.24 26.7198 Q1181.89 27.3274 1184.97 28.5427 Z" fill="#000000" fill-rule="nonzero" fill-opacity="1" /><path clip-path="url(#clip650)" d="M1232.85 65.7705 L1232.85 89.8329 L1225.36 89.8329 L1225.36 27.2059 L1232.85 27.2059 L1232.85 34.0924 Q1235.2 30.0415 1238.77 28.0971 Q1242.37 26.1121 1247.35 26.1121 Q1255.62 26.1121 1260.76 32.6746 Q1265.95 39.2371 1265.95 49.9314 Q1265.95 60.6258 1260.76 67.1883 Q1255.62 73.7508 1247.35 73.7508 Q1242.37 73.7508 1238.77 71.8063 Q1235.2 69.8214 1232.85 65.7705 M1258.21 49.9314 Q1258.21 41.7081 1254.81 37.0496 Q1251.44 32.3505 1245.53 32.3505 Q1239.62 32.3505 1236.21 37.0496 Q1232.85 41.7081 1232.85 49.9314 Q1232.85 58.1548 1236.21 62.8538 Q1239.62 67.5124 1245.53 67.5124 Q1251.44 67.5124 1254.81 62.8538 Q1258.21 58.1548 1258.21 49.9314 Z" fill="#000000" fill-rule="nonzero" fill-opacity="1" /><path clip-path="url(#clip650)" d="M1317.11 48.0275 L1317.11 51.6733 L1282.84 51.6733 Q1283.32 59.3701 1287.46 63.421 Q1291.63 67.4314 1299.04 67.4314 Q1303.34 67.4314 1307.35 66.3781 Q1311.4 65.3249 1315.37 63.2184 L1315.37 70.267 Q1311.36 71.9684 1307.14 72.8596 Q1302.93 73.7508 1298.6 73.7508 Q1287.74 73.7508 1281.38 67.4314 Q1275.06 61.1119 1275.06 50.3365 Q1275.06 39.1965 1281.06 32.6746 Q1287.09 26.1121 1297.3 26.1121 Q1306.46 26.1121 1311.76 32.0264 Q1317.11 37.9003 1317.11 48.0275 M1309.66 45.84 Q1309.57 39.7232 1306.21 36.0774 Q1302.89 32.4315 1297.38 32.4315 Q1291.14 32.4315 1287.38 35.9558 Q1283.65 39.4801 1283.08 45.8805 L1309.66 45.84 Z" fill="#000000" fill-rule="nonzero" fill-opacity="1" /><path clip-path="url(#clip650)" d="M1355.63 34.1734 Q1354.38 33.4443 1352.88 33.1202 Q1351.42 32.7556 1349.64 32.7556 Q1343.32 32.7556 1339.92 36.8875 Q1336.55 40.9789 1336.55 48.6757 L1336.55 72.576 L1329.06 72.576 L1329.06 27.2059 L1336.55 27.2059 L1336.55 34.2544 Q1338.9 30.1225 1342.67 28.1376 Q1346.44 26.1121 1351.83 26.1121 Q1352.6 26.1121 1353.53 26.2337 Q1354.46 26.3147 1355.59 26.5172 L1355.63 34.1734 Z" fill="#000000" fill-rule="nonzero" fill-opacity="1" /><path clip-path="url(#clip650)" d="M1390.15 12.096 L1398.33 12.096 L1398.33 65.6895 L1427.78 65.6895 L1427.78 72.576 L1390.15 72.576 L1390.15 12.096 Z" fill="#000000" fill-rule="nonzero" fill-opacity="1" /><path clip-path="url(#clip650)" d="M1452.17 32.4315 Q1446.17 32.4315 1442.69 37.1306 Q1439.2 41.7891 1439.2 49.9314 Q1439.2 58.0738 1442.65 62.7728 Q1446.13 67.4314 1452.17 67.4314 Q1458.12 67.4314 1461.61 62.7323 Q1465.09 58.0333 1465.09 49.9314 Q1465.09 41.8701 1461.61 37.1711 Q1458.12 32.4315 1452.17 32.4315 M1452.17 26.1121 Q1461.89 26.1121 1467.44 32.4315 Q1472.99 38.7509 1472.99 49.9314 Q1472.99 61.0714 1467.44 67.4314 Q1461.89 73.7508 1452.17 73.7508 Q1442.4 73.7508 1436.85 67.4314 Q1431.35 61.0714 1431.35 49.9314 Q1431.35 38.7509 1436.85 32.4315 Q1442.4 26.1121 1452.17 26.1121 Z" fill="#000000" fill-rule="nonzero" fill-opacity="1" /><path clip-path="url(#clip650)" d="M1505.96 49.7694 Q1496.93 49.7694 1493.45 51.8354 Q1489.96 53.9013 1489.96 58.8839 Q1489.96 62.8538 1492.55 65.2034 Q1495.19 67.5124 1499.68 67.5124 Q1505.88 67.5124 1509.61 63.1374 Q1513.38 58.7219 1513.38 51.4303 L1513.38 49.7694 L1505.96 49.7694 M1520.83 46.6907 L1520.83 72.576 L1513.38 72.576 L1513.38 65.6895 Q1510.82 69.8214 1507.02 71.8063 Q1503.21 73.7508 1497.7 73.7508 Q1490.73 73.7508 1486.6 69.8619 Q1482.51 65.9325 1482.51 59.3701 Q1482.51 51.7138 1487.61 47.825 Q1492.76 43.9361 1502.92 43.9361 L1513.38 43.9361 L1513.38 43.2069 Q1513.38 38.0623 1509.97 35.2672 Q1506.61 32.4315 1500.49 32.4315 Q1496.61 32.4315 1492.92 33.3632 Q1489.23 34.295 1485.83 36.1584 L1485.83 29.2718 Q1489.92 27.692 1493.77 26.9223 Q1497.62 26.1121 1501.26 26.1121 Q1511.11 26.1121 1515.97 31.2163 Q1520.83 36.3204 1520.83 46.6907 Z" fill="#000000" fill-rule="nonzero" fill-opacity="1" /><path clip-path="url(#clip650)" d="M1566.04 34.0924 L1566.04 9.54393 L1573.49 9.54393 L1573.49 72.576 L1566.04 72.576 L1566.04 65.7705 Q1563.69 69.8214 1560.08 71.8063 Q1556.52 73.7508 1551.49 73.7508 Q1543.27 73.7508 1538.09 67.1883 Q1532.94 60.6258 1532.94 49.9314 Q1532.94 39.2371 1538.09 32.6746 Q1543.27 26.1121 1551.49 26.1121 Q1556.52 26.1121 1560.08 28.0971 Q1563.69 30.0415 1566.04 34.0924 M1540.64 49.9314 Q1540.64 58.1548 1544 62.8538 Q1547.4 67.5124 1553.32 67.5124 Q1559.23 67.5124 1562.63 62.8538 Q1566.04 58.1548 1566.04 49.9314 Q1566.04 41.7081 1562.63 37.0496 Q1559.23 32.3505 1553.32 32.3505 Q1547.4 32.3505 1544 37.0496 Q1540.64 41.7081 1540.64 49.9314 Z" fill="#000000" fill-rule="nonzero" fill-opacity="1" /><path clip-path="url(#clip650)" d="M1611.45 46.5287 L1633.28 46.5287 L1633.28 53.1722 L1611.45 53.1722 L1611.45 46.5287 Z" fill="#000000" fill-rule="nonzero" fill-opacity="1" /><path clip-path="url(#clip650)" d="M1671.85 12.096 L1680.03 12.096 L1680.03 72.576 L1671.85 72.576 L1671.85 12.096 Z" fill="#000000" fill-rule="nonzero" fill-opacity="1" /><path clip-path="url(#clip650)" d="M1703.36 14.324 L1703.36 27.2059 L1718.72 27.2059 L1718.72 32.9987 L1703.36 32.9987 L1703.36 57.6282 Q1703.36 63.1779 1704.86 64.7578 Q1706.4 66.3376 1711.06 66.3376 L1718.72 66.3376 L1718.72 72.576 L1711.06 72.576 Q1702.43 72.576 1699.15 69.3758 Q1695.87 66.1351 1695.87 57.6282 L1695.87 32.9987 L1690.4 32.9987 L1690.4 27.2059 L1695.87 27.2059 L1695.87 14.324 L1703.36 14.324 Z" fill="#000000" fill-rule="nonzero" fill-opacity="1" /><path clip-path="url(#clip650)" d="M1767.33 48.0275 L1767.33 51.6733 L1733.06 51.6733 Q1733.54 59.3701 1737.67 63.421 Q1741.85 67.4314 1749.26 67.4314 Q1753.55 67.4314 1757.56 66.3781 Q1761.62 65.3249 1765.59 63.2184 L1765.59 70.267 Q1761.57 71.9684 1757.36 72.8596 Q1753.15 73.7508 1748.81 73.7508 Q1737.96 73.7508 1731.6 67.4314 Q1725.28 61.1119 1725.28 50.3365 Q1725.28 39.1965 1731.27 32.6746 Q1737.31 26.1121 1747.52 26.1121 Q1756.67 26.1121 1761.98 32.0264 Q1767.33 37.9003 1767.33 48.0275 M1759.87 45.84 Q1759.79 39.7232 1756.43 36.0774 Q1753.11 32.4315 1747.6 32.4315 Q1741.36 32.4315 1737.59 35.9558 Q1733.87 39.4801 1733.3 45.8805 L1759.87 45.84 Z" fill="#000000" fill-rule="nonzero" fill-opacity="1" /><path clip-path="url(#clip650)" d="M1805.85 34.1734 Q1804.6 33.4443 1803.1 33.1202 Q1801.64 32.7556 1799.86 32.7556 Q1793.54 32.7556 1790.13 36.8875 Q1786.77 40.9789 1786.77 48.6757 L1786.77 72.576 L1779.28 72.576 L1779.28 27.2059 L1786.77 27.2059 L1786.77 34.2544 Q1789.12 30.1225 1792.89 28.1376 Q1796.66 26.1121 1802.04 26.1121 Q1802.81 26.1121 1803.74 26.2337 Q1804.68 26.3147 1805.81 26.5172 L1805.85 34.1734 Z" fill="#000000" fill-rule="nonzero" fill-opacity="1" /><path clip-path="url(#clip650)" d="M1834.29 49.7694 Q1825.25 49.7694 1821.77 51.8354 Q1818.29 53.9013 1818.29 58.8839 Q1818.29 62.8538 1820.88 65.2034 Q1823.51 67.5124 1828.01 67.5124 Q1834.21 67.5124 1837.93 63.1374 Q1841.7 58.7219 1841.7 51.4303 L1841.7 49.7694 L1834.29 49.7694 M1849.16 46.6907 L1849.16 72.576 L1841.7 72.576 L1841.7 65.6895 Q1839.15 69.8214 1835.34 71.8063 Q1831.53 73.7508 1826.02 73.7508 Q1819.06 73.7508 1814.93 69.8619 Q1810.83 65.9325 1810.83 59.3701 Q1810.83 51.7138 1815.94 47.825 Q1821.08 43.9361 1831.25 43.9361 L1841.7 43.9361 L1841.7 43.2069 Q1841.7 38.0623 1838.3 35.2672 Q1834.94 32.4315 1828.82 32.4315 Q1824.93 32.4315 1821.24 33.3632 Q1817.56 34.295 1814.16 36.1584 L1814.16 29.2718 Q1818.25 27.692 1822.1 26.9223 Q1825.94 26.1121 1829.59 26.1121 Q1839.43 26.1121 1844.29 31.2163 Q1849.16 36.3204 1849.16 46.6907 Z" fill="#000000" fill-rule="nonzero" fill-opacity="1" /><path clip-path="url(#clip650)" d="M1871.88 14.324 L1871.88 27.2059 L1887.23 27.2059 L1887.23 32.9987 L1871.88 32.9987 L1871.88 57.6282 Q1871.88 63.1779 1873.38 64.7578 Q1874.92 66.3376 1879.58 66.3376 L1887.23 66.3376 L1887.23 72.576 L1879.58 72.576 Q1870.95 72.576 1867.67 69.3758 Q1864.39 66.1351 1864.39 57.6282 L1864.39 32.9987 L1858.92 32.9987 L1858.92 27.2059 L1864.39 27.2059 L1864.39 14.324 L1871.88 14.324 Z" fill="#000000" fill-rule="nonzero" fill-opacity="1" /><path clip-path="url(#clip650)" d="M1897.04 27.2059 L1904.49 27.2059 L1904.49 72.576 L1897.04 72.576 L1897.04 27.2059 M1897.04 9.54393 L1904.49 9.54393 L1904.49 18.9825 L1897.04 18.9825 L1897.04 9.54393 Z" fill="#000000" fill-rule="nonzero" fill-opacity="1" /><path clip-path="url(#clip650)" d="M1937.67 32.4315 Q1931.67 32.4315 1928.19 37.1306 Q1924.7 41.7891 1924.7 49.9314 Q1924.7 58.0738 1928.15 62.7728 Q1931.63 67.4314 1937.67 67.4314 Q1943.62 67.4314 1947.11 62.7323 Q1950.59 58.0333 1950.59 49.9314 Q1950.59 41.8701 1947.11 37.1711 Q1943.62 32.4315 1937.67 32.4315 M1937.67 26.1121 Q1947.39 26.1121 1952.94 32.4315 Q1958.49 38.7509 1958.49 49.9314 Q1958.49 61.0714 1952.94 67.4314 Q1947.39 73.7508 1937.67 73.7508 Q1927.9 73.7508 1922.36 67.4314 Q1916.85 61.0714 1916.85 49.9314 Q1916.85 38.7509 1922.36 32.4315 Q1927.9 26.1121 1937.67 26.1121 Z" fill="#000000" fill-rule="nonzero" fill-opacity="1" /><path clip-path="url(#clip650)" d="M2008.56 45.1919 L2008.56 72.576 L2001.1 72.576 L2001.1 45.4349 Q2001.1 38.994 1998.59 35.7938 Q1996.08 32.5936 1991.06 32.5936 Q1985.02 32.5936 1981.54 36.4419 Q1978.06 40.2903 1978.06 46.9338 L1978.06 72.576 L1970.56 72.576 L1970.56 27.2059 L1978.06 27.2059 L1978.06 34.2544 Q1980.73 30.163 1984.33 28.1376 Q1987.98 26.1121 1992.72 26.1121 Q2000.54 26.1121 2004.55 30.9732 Q2008.56 35.7938 2008.56 45.1919 Z" fill="#000000" fill-rule="nonzero" fill-opacity="1" /><path clip-path="url(#clip650)" d="M2050.93 12.096 L2083.05 12.096 L2083.05 18.9825 L2058.43 18.9825 L2058.43 33.8088 Q2060.21 33.2012 2061.99 32.9176 Q2063.77 32.5936 2065.55 32.5936 Q2075.68 32.5936 2081.6 38.1433 Q2087.51 43.6931 2087.51 53.1722 Q2087.51 62.9348 2081.43 68.3631 Q2075.36 73.7508 2064.3 73.7508 Q2060.49 73.7508 2056.52 73.1026 Q2052.59 72.4545 2048.38 71.1582 L2048.38 62.9348 Q2052.02 64.9198 2055.91 65.892 Q2059.8 66.8642 2064.14 66.8642 Q2071.14 66.8642 2075.24 63.1779 Q2079.33 59.4916 2079.33 53.1722 Q2079.33 46.8528 2075.24 43.1664 Q2071.14 39.4801 2064.14 39.4801 Q2060.86 39.4801 2057.57 40.2093 Q2054.33 40.9384 2050.93 42.4778 L2050.93 12.096 Z" fill="#000000" fill-rule="nonzero" fill-opacity="1" /><path clip-path="url(#clip652)" d="M837.798 188.458 L837.798 1423.18 L941.255 1423.18 L941.255 188.458 L837.798 188.458 L837.798 188.458  Z" fill="#009af9" fill-rule="evenodd" fill-opacity="1"/>
<polyline clip-path="url(#clip652)" style="stroke:#000000; stroke-linecap:round; stroke-linejoin:round; stroke-width:4; stroke-opacity:1; fill:none" points="837.798,188.458 837.798,1423.18 941.255,1423.18 941.255,188.458 837.798,188.458 "/>
<path clip-path="url(#clip652)" d="M1743.05 188.458 L1743.05 1423.18 L1846.51 1423.18 L1846.51 188.458 L1743.05 188.458 L1743.05 188.458  Z" fill="#009af9" fill-rule="evenodd" fill-opacity="1"/>
<polyline clip-path="url(#clip652)" style="stroke:#000000; stroke-linecap:round; stroke-linejoin:round; stroke-width:4; stroke-opacity:1; fill:none" points="1743.05,188.458 1743.05,1423.18 1846.51,1423.18 1846.51,188.458 1743.05,188.458 "/>
<path clip-path="url(#clip652)" d="M1225.76 188.458 L1225.76 1423.18 L1329.22 1423.18 L1329.22 188.458 L1225.76 188.458 L1225.76 188.458  Z" fill="#009af9" fill-rule="evenodd" fill-opacity="1"/>
<polyline clip-path="url(#clip652)" style="stroke:#000000; stroke-linecap:round; stroke-linejoin:round; stroke-width:4; stroke-opacity:1; fill:none" points="1225.76,188.458 1225.76,1423.18 1329.22,1423.18 1329.22,188.458 1225.76,188.458 "/>
<path clip-path="url(#clip652)" d="M320.51 123.472 L320.51 1423.18 L423.968 1423.18 L423.968 123.472 L320.51 123.472 L320.51 123.472  Z" fill="#009af9" fill-rule="evenodd" fill-opacity="1"/>
<polyline clip-path="url(#clip652)" style="stroke:#000000; stroke-linecap:round; stroke-linejoin:round; stroke-width:4; stroke-opacity:1; fill:none" points="320.51,123.472 320.51,1423.18 423.968,1423.18 423.968,123.472 320.51,123.472 "/>
<path clip-path="url(#clip652)" d="M967.119 123.472 L967.119 1423.18 L1070.58 1423.18 L1070.58 123.472 L967.119 123.472 L967.119 123.472  Z" fill="#009af9" fill-rule="evenodd" fill-opacity="1"/>
<polyline clip-path="url(#clip652)" style="stroke:#000000; stroke-linecap:round; stroke-linejoin:round; stroke-width:4; stroke-opacity:1; fill:none" points="967.119,123.472 967.119,1423.18 1070.58,1423.18 1070.58,123.472 967.119,123.472 "/>
<path clip-path="url(#clip652)" d="M1613.73 188.458 L1613.73 1423.18 L1717.19 1423.18 L1717.19 188.458 L1613.73 188.458 L1613.73 188.458  Z" fill="#009af9" fill-rule="evenodd" fill-opacity="1"/>
<polyline clip-path="url(#clip652)" style="stroke:#000000; stroke-linecap:round; stroke-linejoin:round; stroke-width:4; stroke-opacity:1; fill:none" points="1613.73,188.458 1613.73,1423.18 1717.19,1423.18 1717.19,188.458 1613.73,188.458 "/>
<path clip-path="url(#clip652)" d="M1355.08 188.458 L1355.08 1423.18 L1458.54 1423.18 L1458.54 188.458 L1355.08 188.458 L1355.08 188.458  Z" fill="#009af9" fill-rule="evenodd" fill-opacity="1"/>
<polyline clip-path="url(#clip652)" style="stroke:#000000; stroke-linecap:round; stroke-linejoin:round; stroke-width:4; stroke-opacity:1; fill:none" points="1355.08,188.458 1355.08,1423.18 1458.54,1423.18 1458.54,188.458 1355.08,188.458 "/>
<path clip-path="url(#clip652)" d="M2001.69 123.472 L2001.69 1423.18 L2105.15 1423.18 L2105.15 123.472 L2001.69 123.472 L2001.69 123.472  Z" fill="#009af9" fill-rule="evenodd" fill-opacity="1"/>
<polyline clip-path="url(#clip652)" style="stroke:#000000; stroke-linecap:round; stroke-linejoin:round; stroke-width:4; stroke-opacity:1; fill:none" points="2001.69,123.472 2001.69,1423.18 2105.15,1423.18 2105.15,123.472 2001.69,123.472 "/>
<path clip-path="url(#clip652)" d="M579.154 123.472 L579.154 1423.18 L682.611 1423.18 L682.611 123.472 L579.154 123.472 L579.154 123.472  Z" fill="#009af9" fill-rule="evenodd" fill-opacity="1"/>
<polyline clip-path="url(#clip652)" style="stroke:#000000; stroke-linecap:round; stroke-linejoin:round; stroke-width:4; stroke-opacity:1; fill:none" points="579.154,123.472 579.154,1423.18 682.611,1423.18 682.611,123.472 579.154,123.472 "/>
<path clip-path="url(#clip652)" d="M1096.44 123.472 L1096.44 1423.18 L1199.9 1423.18 L1199.9 123.472 L1096.44 123.472 L1096.44 123.472  Z" fill="#009af9" fill-rule="evenodd" fill-opacity="1"/>
<polyline clip-path="url(#clip652)" style="stroke:#000000; stroke-linecap:round; stroke-linejoin:round; stroke-width:4; stroke-opacity:1; fill:none" points="1096.44,123.472 1096.44,1423.18 1199.9,1423.18 1199.9,123.472 1096.44,123.472 "/>
<path clip-path="url(#clip652)" d="M708.476 123.472 L708.476 1423.18 L811.933 1423.18 L811.933 123.472 L708.476 123.472 L708.476 123.472  Z" fill="#009af9" fill-rule="evenodd" fill-opacity="1"/>
<polyline clip-path="url(#clip652)" style="stroke:#000000; stroke-linecap:round; stroke-linejoin:round; stroke-width:4; stroke-opacity:1; fill:none" points="708.476,123.472 708.476,1423.18 811.933,1423.18 811.933,123.472 708.476,123.472 "/>
<path clip-path="url(#clip652)" d="M1872.37 155.992 L1872.37 1423.18 L1975.83 1423.18 L1975.83 155.992 L1872.37 155.992 L1872.37 155.992  Z" fill="#009af9" fill-rule="evenodd" fill-opacity="1"/>
<polyline clip-path="url(#clip652)" style="stroke:#000000; stroke-linecap:round; stroke-linejoin:round; stroke-width:4; stroke-opacity:1; fill:none" points="1872.37,155.992 1872.37,1423.18 1975.83,1423.18 1975.83,155.992 1872.37,155.992 "/>
<path clip-path="url(#clip652)" d="M2131.02 188.458 L2131.02 1423.18 L2234.47 1423.18 L2234.47 188.458 L2131.02 188.458 L2131.02 188.458  Z" fill="#009af9" fill-rule="evenodd" fill-opacity="1"/>
<polyline clip-path="url(#clip652)" style="stroke:#000000; stroke-linecap:round; stroke-linejoin:round; stroke-width:4; stroke-opacity:1; fill:none" points="2131.02,188.458 2131.02,1423.18 2234.47,1423.18 2234.47,188.458 2131.02,188.458 "/>
<path clip-path="url(#clip652)" d="M449.832 188.458 L449.832 1423.18 L553.29 1423.18 L553.29 188.458 L449.832 188.458 L449.832 188.458  Z" fill="#009af9" fill-rule="evenodd" fill-opacity="1"/>
<polyline clip-path="url(#clip652)" style="stroke:#000000; stroke-linecap:round; stroke-linejoin:round; stroke-width:4; stroke-opacity:1; fill:none" points="449.832,188.458 449.832,1423.18 553.29,1423.18 553.29,188.458 449.832,188.458 "/>
<path clip-path="url(#clip652)" d="M1484.41 188.458 L1484.41 1423.18 L1587.86 1423.18 L1587.86 188.458 L1484.41 188.458 L1484.41 188.458  Z" fill="#009af9" fill-rule="evenodd" fill-opacity="1"/>
<polyline clip-path="url(#clip652)" style="stroke:#000000; stroke-linecap:round; stroke-linejoin:round; stroke-width:4; stroke-opacity:1; fill:none" points="1484.41,188.458 1484.41,1423.18 1587.86,1423.18 1587.86,188.458 1484.41,188.458 "/>
<circle clip-path="url(#clip652)" style="fill:#009af9; stroke:none; fill-opacity:0" cx="889.526" cy="188.458" r="2"/>
<circle clip-path="url(#clip652)" style="fill:#009af9; stroke:none; fill-opacity:0" cx="1794.78" cy="188.458" r="2"/>
<circle clip-path="url(#clip652)" style="fill:#009af9; stroke:none; fill-opacity:0" cx="1277.49" cy="188.458" r="2"/>
<circle clip-path="url(#clip652)" style="fill:#009af9; stroke:none; fill-opacity:0" cx="372.239" cy="123.472" r="2"/>
<circle clip-path="url(#clip652)" style="fill:#009af9; stroke:none; fill-opacity:0" cx="1018.85" cy="123.472" r="2"/>
<circle clip-path="url(#clip652)" style="fill:#009af9; stroke:none; fill-opacity:0" cx="1665.46" cy="188.458" r="2"/>
<circle clip-path="url(#clip652)" style="fill:#009af9; stroke:none; fill-opacity:0" cx="1406.81" cy="188.458" r="2"/>
<circle clip-path="url(#clip652)" style="fill:#009af9; stroke:none; fill-opacity:0" cx="2053.42" cy="123.472" r="2"/>
<circle clip-path="url(#clip652)" style="fill:#009af9; stroke:none; fill-opacity:0" cx="630.883" cy="123.472" r="2"/>
<circle clip-path="url(#clip652)" style="fill:#009af9; stroke:none; fill-opacity:0" cx="1148.17" cy="123.472" r="2"/>
<circle clip-path="url(#clip652)" style="fill:#009af9; stroke:none; fill-opacity:0" cx="760.204" cy="123.472" r="2"/>
<circle clip-path="url(#clip652)" style="fill:#009af9; stroke:none; fill-opacity:0" cx="1924.1" cy="155.992" r="2"/>
<circle clip-path="url(#clip652)" style="fill:#009af9; stroke:none; fill-opacity:0" cx="2182.74" cy="188.458" r="2"/>
<circle clip-path="url(#clip652)" style="fill:#009af9; stroke:none; fill-opacity:0" cx="501.561" cy="188.458" r="2"/>
<circle clip-path="url(#clip652)" style="fill:#009af9; stroke:none; fill-opacity:0" cx="1536.14" cy="188.458" r="2"/>
</svg>
