<?xml version="1.0" encoding="utf-8"?>
<svg xmlns="http://www.w3.org/2000/svg" xmlns:xlink="http://www.w3.org/1999/xlink" width="600" height="400" viewBox="0 0 2400 1600">
<defs>
  <clipPath id="clip460">
    <rect x="0" y="0" width="2400" height="1600"/>
  </clipPath>
</defs>
<path clip-path="url(#clip460)" d="M0 1600 L2400 1600 L2400 0 L0 0  Z" fill="#ffffff" fill-rule="evenodd" fill-opacity="1"/>
<defs>
  <clipPath id="clip461">
    <rect x="480" y="0" width="1681" height="1600"/>
  </clipPath>
</defs>
<path clip-path="url(#clip460)" d="M174.149 1423.18 L2352.76 1423.18 L2352.76 123.472 L174.149 123.472  Z" fill="#ffffff" fill-rule="evenodd" fill-opacity="1"/>
<defs>
  <clipPath id="clip462">
    <rect x="174" y="123" width="2180" height="1301"/>
  </clipPath>
</defs>
<polyline clip-path="url(#clip462)" style="stroke:#000000; stroke-linecap:round; stroke-linejoin:round; stroke-width:2; stroke-opacity:0.1; fill:none" points="215.37,1423.18 215.37,123.472 "/>
<polyline clip-path="url(#clip462)" style="stroke:#000000; stroke-linecap:round; stroke-linejoin:round; stroke-width:2; stroke-opacity:0.1; fill:none" points="870.422,1423.18 870.422,123.472 "/>
<polyline clip-path="url(#clip462)" style="stroke:#000000; stroke-linecap:round; stroke-linejoin:round; stroke-width:2; stroke-opacity:0.1; fill:none" points="1525.47,1423.18 1525.47,123.472 "/>
<polyline clip-path="url(#clip462)" style="stroke:#000000; stroke-linecap:round; stroke-linejoin:round; stroke-width:2; stroke-opacity:0.1; fill:none" points="2180.52,1423.18 2180.52,123.472 "/>
<polyline clip-path="url(#clip462)" style="stroke:#000000; stroke-linecap:round; stroke-linejoin:round; stroke-width:2; stroke-opacity:0.1; fill:none" points="174.149,1423.18 2352.76,1423.18 "/>
<polyline clip-path="url(#clip462)" style="stroke:#000000; stroke-linecap:round; stroke-linejoin:round; stroke-width:2; stroke-opacity:0.1; fill:none" points="174.149,1036.34 2352.76,1036.34 "/>
<polyline clip-path="url(#clip462)" style="stroke:#000000; stroke-linecap:round; stroke-linejoin:round; stroke-width:2; stroke-opacity:0.1; fill:none" points="174.149,649.504 2352.76,649.504 "/>
<polyline clip-path="url(#clip462)" style="stroke:#000000; stroke-linecap:round; stroke-linejoin:round; stroke-width:2; stroke-opacity:0.1; fill:none" points="174.149,262.667 2352.76,262.667 "/>
<polyline clip-path="url(#clip460)" style="stroke:#000000; stroke-linecap:round; stroke-linejoin:round; stroke-width:4; stroke-opacity:1; fill:none" points="174.149,1423.18 2352.76,1423.18 "/>
<polyline clip-path="url(#clip460)" style="stroke:#000000; stroke-linecap:round; stroke-linejoin:round; stroke-width:4; stroke-opacity:1; fill:none" points="215.37,1423.18 215.37,1404.28 "/>
<polyline clip-path="url(#clip460)" style="stroke:#000000; stroke-linecap:round; stroke-linejoin:round; stroke-width:4; stroke-opacity:1; fill:none" points="870.422,1423.18 870.422,1404.28 "/>
<polyline clip-path="url(#clip460)" style="stroke:#000000; stroke-linecap:round; stroke-linejoin:round; stroke-width:4; stroke-opacity:1; fill:none" points="1525.47,1423.18 1525.47,1404.28 "/>
<polyline clip-path="url(#clip460)" style="stroke:#000000; stroke-linecap:round; stroke-linejoin:round; stroke-width:4; stroke-opacity:1; fill:none" points="2180.52,1423.18 2180.52,1404.28 "/>
<path clip-path="url(#clip460)" d="M215.37 1454.1 Q211.759 1454.1 209.93 1457.66 Q208.125 1461.2 208.125 1468.33 Q208.125 1475.44 209.93 1479.01 Q211.759 1482.55 215.37 1482.55 Q219.004 1482.55 220.81 1479.01 Q222.638 1475.44 222.638 1468.33 Q222.638 1461.2 220.81 1457.66 Q219.004 1454.1 215.37 1454.1 M215.37 1450.39 Q221.18 1450.39 224.236 1455 Q227.314 1459.58 227.314 1468.33 Q227.314 1477.06 224.236 1481.67 Q221.18 1486.25 215.37 1486.25 Q209.56 1486.25 206.481 1481.67 Q203.426 1477.06 203.426 1468.33 Q203.426 1459.58 206.481 1455 Q209.56 1450.39 215.37 1450.39 Z" fill="#000000" fill-rule="nonzero" fill-opacity="1" /><path clip-path="url(#clip460)" d="M860.699 1451.02 L879.056 1451.02 L879.056 1454.96 L864.982 1454.96 L864.982 1463.43 Q866 1463.08 867.019 1462.92 Q868.037 1462.73 869.056 1462.73 Q874.843 1462.73 878.222 1465.9 Q881.602 1469.08 881.602 1474.49 Q881.602 1480.07 878.13 1483.17 Q874.658 1486.25 868.338 1486.25 Q866.162 1486.25 863.894 1485.88 Q861.648 1485.51 859.241 1484.77 L859.241 1480.07 Q861.324 1481.2 863.547 1481.76 Q865.769 1482.32 868.246 1482.32 Q872.25 1482.32 874.588 1480.21 Q876.926 1478.1 876.926 1474.49 Q876.926 1470.88 874.588 1468.77 Q872.25 1466.67 868.246 1466.67 Q866.371 1466.67 864.496 1467.08 Q862.644 1467.5 860.699 1468.38 L860.699 1451.02 Z" fill="#000000" fill-rule="nonzero" fill-opacity="1" /><path clip-path="url(#clip460)" d="M1500.16 1481.64 L1507.8 1481.64 L1507.8 1455.28 L1499.49 1456.95 L1499.49 1452.69 L1507.75 1451.02 L1512.43 1451.02 L1512.43 1481.64 L1520.07 1481.64 L1520.07 1485.58 L1500.16 1485.58 L1500.16 1481.64 Z" fill="#000000" fill-rule="nonzero" fill-opacity="1" /><path clip-path="url(#clip460)" d="M1539.51 1454.1 Q1535.9 1454.1 1534.07 1457.66 Q1532.27 1461.2 1532.27 1468.33 Q1532.27 1475.44 1534.07 1479.01 Q1535.9 1482.55 1539.51 1482.55 Q1543.15 1482.55 1544.95 1479.01 Q1546.78 1475.44 1546.78 1468.33 Q1546.78 1461.2 1544.95 1457.66 Q1543.15 1454.1 1539.51 1454.1 M1539.51 1450.39 Q1545.32 1450.39 1548.38 1455 Q1551.46 1459.58 1551.46 1468.33 Q1551.46 1477.06 1548.38 1481.67 Q1545.32 1486.25 1539.51 1486.25 Q1533.7 1486.25 1530.62 1481.67 Q1527.57 1477.06 1527.57 1468.33 Q1527.57 1459.58 1530.62 1455 Q1533.7 1450.39 1539.51 1450.39 Z" fill="#000000" fill-rule="nonzero" fill-opacity="1" /><path clip-path="url(#clip460)" d="M2155.71 1481.64 L2163.35 1481.64 L2163.35 1455.28 L2155.04 1456.95 L2155.04 1452.69 L2163.3 1451.02 L2167.98 1451.02 L2167.98 1481.64 L2175.62 1481.64 L2175.62 1485.58 L2155.71 1485.58 L2155.71 1481.64 Z" fill="#000000" fill-rule="nonzero" fill-opacity="1" /><path clip-path="url(#clip460)" d="M2185.11 1451.02 L2203.46 1451.02 L2203.46 1454.96 L2189.39 1454.96 L2189.39 1463.43 Q2190.41 1463.08 2191.43 1462.92 Q2192.45 1462.73 2193.46 1462.73 Q2199.25 1462.73 2202.63 1465.9 Q2206.01 1469.08 2206.01 1474.49 Q2206.01 1480.07 2202.54 1483.17 Q2199.07 1486.25 2192.75 1486.25 Q2190.57 1486.25 2188.3 1485.88 Q2186.06 1485.51 2183.65 1484.77 L2183.65 1480.07 Q2185.73 1481.2 2187.96 1481.76 Q2190.18 1482.32 2192.65 1482.32 Q2196.66 1482.32 2199 1480.21 Q2201.33 1478.1 2201.33 1474.49 Q2201.33 1470.88 2199 1468.77 Q2196.66 1466.67 2192.65 1466.67 Q2190.78 1466.67 2188.9 1467.08 Q2187.05 1467.5 2185.11 1468.38 L2185.11 1451.02 Z" fill="#000000" fill-rule="nonzero" fill-opacity="1" /><path clip-path="url(#clip460)" d="M1145.32 1520.52 L1151.75 1520.52 L1151.75 1562.63 L1174.89 1562.63 L1174.89 1568.04 L1145.32 1568.04 L1145.32 1520.52 Z" fill="#000000" fill-rule="nonzero" fill-opacity="1" /><path clip-path="url(#clip460)" d="M1194.05 1536.5 Q1189.34 1536.5 1186.6 1540.19 Q1183.87 1543.85 1183.87 1550.25 Q1183.87 1556.65 1186.57 1560.34 Q1189.31 1564 1194.05 1564 Q1198.73 1564 1201.47 1560.31 Q1204.2 1556.62 1204.2 1550.25 Q1204.2 1543.92 1201.47 1540.23 Q1198.73 1536.5 1194.05 1536.5 M1194.05 1531.54 Q1201.69 1531.54 1206.05 1536.5 Q1210.41 1541.47 1210.41 1550.25 Q1210.41 1559 1206.05 1564 Q1201.69 1568.97 1194.05 1568.97 Q1186.38 1568.97 1182.02 1564 Q1177.69 1559 1177.69 1550.25 Q1177.69 1541.47 1182.02 1536.5 Q1186.38 1531.54 1194.05 1531.54 Z" fill="#000000" fill-rule="nonzero" fill-opacity="1" /><path clip-path="url(#clip460)" d="M1236.32 1550.12 Q1229.22 1550.12 1226.48 1551.75 Q1223.75 1553.37 1223.75 1557.29 Q1223.75 1560.4 1225.78 1562.25 Q1227.85 1564.07 1231.39 1564.07 Q1236.25 1564.07 1239.18 1560.63 Q1242.14 1557.16 1242.14 1551.43 L1242.14 1550.12 L1236.32 1550.12 M1248 1547.71 L1248 1568.04 L1242.14 1568.04 L1242.14 1562.63 Q1240.14 1565.88 1237.15 1567.44 Q1234.15 1568.97 1229.83 1568.97 Q1224.35 1568.97 1221.1 1565.91 Q1217.89 1562.82 1217.89 1557.67 Q1217.89 1551.65 1221.9 1548.6 Q1225.94 1545.54 1233.93 1545.54 L1242.14 1545.54 L1242.14 1544.97 Q1242.14 1540.93 1239.47 1538.73 Q1236.83 1536.5 1232.02 1536.5 Q1228.97 1536.5 1226.07 1537.23 Q1223.17 1537.97 1220.5 1539.43 L1220.5 1534.02 Q1223.71 1532.78 1226.74 1532.17 Q1229.76 1531.54 1232.63 1531.54 Q1240.36 1531.54 1244.18 1535.55 Q1248 1539.56 1248 1547.71 Z" fill="#000000" fill-rule="nonzero" fill-opacity="1" /><path clip-path="url(#clip460)" d="M1283.52 1537.81 L1283.52 1518.52 L1289.38 1518.52 L1289.38 1568.04 L1283.52 1568.04 L1283.52 1562.7 Q1281.67 1565.88 1278.84 1567.44 Q1276.04 1568.97 1272.09 1568.97 Q1265.63 1568.97 1261.56 1563.81 Q1257.52 1558.65 1257.52 1550.25 Q1257.52 1541.85 1261.56 1536.69 Q1265.63 1531.54 1272.09 1531.54 Q1276.04 1531.54 1278.84 1533.1 Q1281.67 1534.62 1283.52 1537.81 M1263.56 1550.25 Q1263.56 1556.71 1266.21 1560.4 Q1268.88 1564.07 1273.53 1564.07 Q1278.17 1564.07 1280.85 1560.4 Q1283.52 1556.71 1283.52 1550.25 Q1283.52 1543.79 1280.85 1540.13 Q1278.17 1536.44 1273.53 1536.44 Q1268.88 1536.44 1266.21 1540.13 Q1263.56 1543.79 1263.56 1550.25 Z" fill="#000000" fill-rule="nonzero" fill-opacity="1" /><path clip-path="url(#clip460)" d="M1322.41 1520.52 L1328.84 1520.52 L1328.84 1568.04 L1322.41 1568.04 L1322.41 1520.52 Z" fill="#000000" fill-rule="nonzero" fill-opacity="1" /><path clip-path="url(#clip460)" d="M1348.07 1525.81 L1348.07 1562.76 L1355.83 1562.76 Q1365.67 1562.76 1370.22 1558.3 Q1374.8 1553.85 1374.8 1544.24 Q1374.8 1534.69 1370.22 1530.26 Q1365.67 1525.81 1355.83 1525.81 L1348.07 1525.81 M1341.64 1520.52 L1354.85 1520.52 Q1368.66 1520.52 1375.12 1526.28 Q1381.58 1532.01 1381.58 1544.24 Q1381.58 1556.52 1375.09 1562.28 Q1368.6 1568.04 1354.85 1568.04 L1341.64 1568.04 L1341.64 1520.52 Z" fill="#000000" fill-rule="nonzero" fill-opacity="1" /><polyline clip-path="url(#clip460)" style="stroke:#000000; stroke-linecap:round; stroke-linejoin:round; stroke-width:4; stroke-opacity:1; fill:none" points="174.149,1423.18 174.149,123.472 "/>
<polyline clip-path="url(#clip460)" style="stroke:#000000; stroke-linecap:round; stroke-linejoin:round; stroke-width:4; stroke-opacity:1; fill:none" points="174.149,1423.18 193.047,1423.18 "/>
<polyline clip-path="url(#clip460)" style="stroke:#000000; stroke-linecap:round; stroke-linejoin:round; stroke-width:4; stroke-opacity:1; fill:none" points="174.149,1036.34 193.047,1036.34 "/>
<polyline clip-path="url(#clip460)" style="stroke:#000000; stroke-linecap:round; stroke-linejoin:round; stroke-width:4; stroke-opacity:1; fill:none" points="174.149,649.504 193.047,649.504 "/>
<polyline clip-path="url(#clip460)" style="stroke:#000000; stroke-linecap:round; stroke-linejoin:round; stroke-width:4; stroke-opacity:1; fill:none" points="174.149,262.667 193.047,262.667 "/>
<path clip-path="url(#clip460)" d="M126.205 1408.98 Q122.593 1408.98 120.765 1412.54 Q118.959 1416.08 118.959 1423.21 Q118.959 1430.32 120.765 1433.89 Q122.593 1437.43 126.205 1437.43 Q129.839 1437.43 131.644 1433.89 Q133.473 1430.32 133.473 1423.21 Q133.473 1416.08 131.644 1412.54 Q129.839 1408.98 126.205 1408.98 M126.205 1405.27 Q132.015 1405.27 135.07 1409.88 Q138.149 1414.46 138.149 1423.21 Q138.149 1431.94 135.07 1436.55 Q132.015 1441.13 126.205 1441.13 Q120.394 1441.13 117.316 1436.55 Q114.26 1431.94 114.26 1423.21 Q114.26 1414.46 117.316 1409.88 Q120.394 1405.27 126.205 1405.27 Z" fill="#000000" fill-rule="nonzero" fill-opacity="1" /><path clip-path="url(#clip460)" d="M118.242 1049.69 L125.88 1049.69 L125.88 1023.32 L117.57 1024.99 L117.57 1020.73 L125.834 1019.06 L130.51 1019.06 L130.51 1049.69 L138.149 1049.69 L138.149 1053.62 L118.242 1053.62 L118.242 1049.69 Z" fill="#000000" fill-rule="nonzero" fill-opacity="1" /><path clip-path="url(#clip460)" d="M121.83 662.849 L138.149 662.849 L138.149 666.784 L116.205 666.784 L116.205 662.849 Q118.867 660.095 123.45 655.465 Q128.056 650.812 129.237 649.47 Q131.482 646.947 132.362 645.21 Q133.265 643.451 133.265 641.761 Q133.265 639.007 131.32 637.271 Q129.399 635.535 126.297 635.535 Q124.098 635.535 121.644 636.299 Q119.214 637.062 116.436 638.613 L116.436 633.891 Q119.26 632.757 121.714 632.178 Q124.168 631.599 126.205 631.599 Q131.575 631.599 134.769 634.285 Q137.964 636.97 137.964 641.461 Q137.964 643.59 137.154 645.511 Q136.367 647.41 134.26 650.002 Q133.681 650.673 130.58 653.891 Q127.478 657.085 121.83 662.849 Z" fill="#000000" fill-rule="nonzero" fill-opacity="1" /><path clip-path="url(#clip460)" d="M131.019 261.313 Q134.376 262.03 136.251 264.299 Q138.149 266.567 138.149 269.901 Q138.149 275.016 134.63 277.817 Q131.112 280.618 124.63 280.618 Q122.455 280.618 120.14 280.178 Q117.848 279.762 115.394 278.905 L115.394 274.391 Q117.339 275.525 119.654 276.104 Q121.968 276.683 124.492 276.683 Q128.89 276.683 131.181 274.947 Q133.496 273.211 133.496 269.901 Q133.496 266.845 131.343 265.132 Q129.214 263.396 125.394 263.396 L121.367 263.396 L121.367 259.553 L125.58 259.553 Q129.029 259.553 130.857 258.188 Q132.686 256.799 132.686 254.206 Q132.686 251.544 130.788 250.132 Q128.913 248.697 125.394 248.697 Q123.473 248.697 121.274 249.114 Q119.075 249.53 116.436 250.41 L116.436 246.243 Q119.098 245.502 121.413 245.132 Q123.751 244.762 125.811 244.762 Q131.135 244.762 134.237 247.192 Q137.339 249.6 137.339 253.72 Q137.339 256.59 135.695 258.581 Q134.052 260.549 131.019 261.313 Z" fill="#000000" fill-rule="nonzero" fill-opacity="1" /><path clip-path="url(#clip460)" d="M16.4842 1039.99 L16.4842 1012.68 L21.895 1012.68 L21.895 1033.56 L35.8996 1033.56 L35.8996 1014.71 L41.3104 1014.71 L41.3104 1033.56 L64.0042 1033.56 L64.0042 1039.99 L16.4842 1039.99 Z" fill="#000000" fill-rule="nonzero" fill-opacity="1" /><path clip-path="url(#clip460)" d="M46.0847 992.529 Q46.0847 999.627 47.7079 1002.36 Q49.3312 1005.1 53.2461 1005.1 Q56.3653 1005.1 58.2114 1003.06 Q60.0256 1001 60.0256 997.463 Q60.0256 992.593 56.5881 989.665 Q53.1188 986.704 47.3897 986.704 L46.0847 986.704 L46.0847 992.529 M43.6657 980.848 L64.0042 980.848 L64.0042 986.704 L58.5933 986.704 Q61.8398 988.71 63.3994 991.702 Q64.9272 994.693 64.9272 999.022 Q64.9272 1004.5 61.8716 1007.74 Q58.7843 1010.96 53.6281 1010.96 Q47.6125 1010.96 44.5569 1006.95 Q41.5014 1002.91 41.5014 994.916 L41.5014 986.704 L40.9285 986.704 Q36.8862 986.704 34.6901 989.378 Q32.4621 992.02 32.4621 996.826 Q32.4621 999.881 33.1941 1002.78 Q33.9262 1005.67 35.3903 1008.35 L29.9795 1008.35 Q28.7381 1005.13 28.1334 1002.11 Q27.4968 999.086 27.4968 996.221 Q27.4968 988.487 31.5072 984.667 Q35.5176 980.848 43.6657 980.848 Z" fill="#000000" fill-rule="nonzero" fill-opacity="1" /><path clip-path="url(#clip460)" d="M28.3562 968.785 L28.3562 962.929 L64.0042 962.929 L64.0042 968.785 L28.3562 968.785 M14.479 968.785 L14.479 962.929 L21.895 962.929 L21.895 968.785 L14.479 968.785 Z" fill="#000000" fill-rule="nonzero" fill-opacity="1" /><path clip-path="url(#clip460)" d="M33.8307 930.018 Q33.2578 931.005 33.0032 932.182 Q32.7167 933.328 32.7167 934.728 Q32.7167 939.694 35.9632 942.367 Q39.1779 945.009 45.2253 945.009 L64.0042 945.009 L64.0042 950.897 L28.3562 950.897 L28.3562 945.009 L33.8944 945.009 Q30.6479 943.163 29.0883 940.203 Q27.4968 937.243 27.4968 933.01 Q27.4968 932.405 27.5923 931.673 Q27.656 930.941 27.8151 930.05 L33.8307 930.018 Z" fill="#000000" fill-rule="nonzero" fill-opacity="1" /><path clip-path="url(#clip460)" d="M16.4842 902.9 L16.4842 896.471 L58.5933 896.471 L58.5933 873.331 L64.0042 873.331 L64.0042 902.9 L16.4842 902.9 Z" fill="#000000" fill-rule="nonzero" fill-opacity="1" /><path clip-path="url(#clip460)" d="M32.4621 854.17 Q32.4621 858.881 36.1542 861.618 Q39.8145 864.356 46.212 864.356 Q52.6095 864.356 56.3017 861.65 Q59.9619 858.913 59.9619 854.17 Q59.9619 849.492 56.2698 846.754 Q52.5777 844.017 46.212 844.017 Q39.8781 844.017 36.186 846.754 Q32.4621 849.492 32.4621 854.17 M27.4968 854.17 Q27.4968 846.532 32.4621 842.171 Q37.4273 837.811 46.212 837.811 Q54.9649 837.811 59.9619 842.171 Q64.9272 846.532 64.9272 854.17 Q64.9272 861.841 59.9619 866.202 Q54.9649 870.53 46.212 870.53 Q37.4273 870.53 32.4621 866.202 Q27.4968 861.841 27.4968 854.17 Z" fill="#000000" fill-rule="nonzero" fill-opacity="1" /><path clip-path="url(#clip460)" d="M46.0847 811.902 Q46.0847 819 47.7079 821.737 Q49.3312 824.474 53.2461 824.474 Q56.3653 824.474 58.2114 822.437 Q60.0256 820.369 60.0256 816.836 Q60.0256 811.966 56.5881 809.038 Q53.1188 806.078 47.3897 806.078 L46.0847 806.078 L46.0847 811.902 M43.6657 800.221 L64.0042 800.221 L64.0042 806.078 L58.5933 806.078 Q61.8398 808.083 63.3994 811.075 Q64.9272 814.067 64.9272 818.395 Q64.9272 823.87 61.8716 827.116 Q58.7843 830.331 53.6281 830.331 Q47.6125 830.331 44.5569 826.32 Q41.5014 822.278 41.5014 814.289 L41.5014 806.078 L40.9285 806.078 Q36.8862 806.078 34.6901 808.751 Q32.4621 811.393 32.4621 816.199 Q32.4621 819.255 33.1941 822.151 Q33.9262 825.047 35.3903 827.721 L29.9795 827.721 Q28.7381 824.506 28.1334 821.483 Q27.4968 818.459 27.4968 815.594 Q27.4968 807.86 31.5072 804.041 Q35.5176 800.221 43.6657 800.221 Z" fill="#000000" fill-rule="nonzero" fill-opacity="1" /><path clip-path="url(#clip460)" d="M33.7671 764.7 L14.479 764.7 L14.479 758.844 L64.0042 758.844 L64.0042 764.7 L58.657 764.7 Q61.8398 766.547 63.3994 769.379 Q64.9272 772.18 64.9272 776.127 Q64.9272 782.588 59.771 786.662 Q54.6147 790.704 46.212 790.704 Q37.8093 790.704 32.6531 786.662 Q27.4968 782.588 27.4968 776.127 Q27.4968 772.18 29.0564 769.379 Q30.5842 766.547 33.7671 764.7 M46.212 784.657 Q52.6732 784.657 56.3653 782.015 Q60.0256 779.342 60.0256 774.695 Q60.0256 770.048 56.3653 767.374 Q52.6732 764.7 46.212 764.7 Q39.7508 764.7 36.0905 767.374 Q32.3984 770.048 32.3984 774.695 Q32.3984 779.342 36.0905 782.015 Q39.7508 784.657 46.212 784.657 Z" fill="#000000" fill-rule="nonzero" fill-opacity="1" /><path clip-path="url(#clip460)" d="M16.4842 730.039 L16.4842 723.546 L56.6518 713.552 L16.4842 703.59 L16.4842 696.365 L56.6518 686.37 L16.4842 676.408 L16.4842 669.883 L64.0042 681.819 L64.0042 689.903 L22.7544 699.929 L64.0042 710.051 L64.0042 718.135 L16.4842 730.039 Z" fill="#000000" fill-rule="nonzero" fill-opacity="1" /><path clip-path="url(#clip460)" d="M44.7161 634.936 L47.5806 634.936 L47.5806 661.862 Q53.6281 661.481 56.8109 658.234 Q59.9619 654.956 59.9619 649.131 Q59.9619 645.757 59.1344 642.606 Q58.3069 639.423 56.6518 636.304 L62.1899 636.304 Q63.5267 639.455 64.227 642.765 Q64.9272 646.076 64.9272 649.481 Q64.9272 658.011 59.9619 663.008 Q54.9967 667.974 46.5303 667.974 Q37.7774 667.974 32.6531 663.263 Q27.4968 658.52 27.4968 650.5 Q27.4968 643.306 32.1438 639.137 Q36.7589 634.936 44.7161 634.936 M42.9973 640.792 Q38.1912 640.856 35.3266 643.497 Q32.4621 646.107 32.4621 650.436 Q32.4621 655.338 35.2312 658.298 Q38.0002 661.226 43.0292 661.671 L42.9973 640.792 Z" fill="#000000" fill-rule="nonzero" fill-opacity="1" /><path clip-path="url(#clip460)" d="M28.3562 625.323 L28.3562 619.467 L64.0042 619.467 L64.0042 625.323 L28.3562 625.323 M14.479 625.323 L14.479 619.467 L21.895 619.467 L21.895 625.323 L14.479 625.323 Z" fill="#000000" fill-rule="nonzero" fill-opacity="1" /><path clip-path="url(#clip460)" d="M45.7664 583.755 Q39.4007 583.755 35.8996 586.397 Q32.3984 589.007 32.3984 593.749 Q32.3984 598.46 35.8996 601.102 Q39.4007 603.712 45.7664 603.712 Q52.1003 603.712 55.6014 601.102 Q59.1026 598.46 59.1026 593.749 Q59.1026 589.007 55.6014 586.397 Q52.1003 583.755 45.7664 583.755 M59.58 577.899 Q68.683 577.899 73.1071 581.941 Q77.5631 585.983 77.5631 594.322 Q77.5631 597.41 77.0857 600.147 Q76.6401 602.884 75.6852 605.462 L69.9879 605.462 Q71.3884 602.884 72.0568 600.37 Q72.7252 597.855 72.7252 595.245 Q72.7252 589.484 69.7015 586.62 Q66.7096 583.755 60.6303 583.755 L57.7339 583.755 Q60.885 585.569 62.4446 588.402 Q64.0042 591.235 64.0042 595.182 Q64.0042 601.738 59.0071 605.749 Q54.01 609.759 45.7664 609.759 Q37.491 609.759 32.4939 605.749 Q27.4968 601.738 27.4968 595.182 Q27.4968 591.235 29.0564 588.402 Q30.616 585.569 33.7671 583.755 L28.3562 583.755 L28.3562 577.899 L59.58 577.899 Z" fill="#000000" fill-rule="nonzero" fill-opacity="1" /><path clip-path="url(#clip460)" d="M42.4881 536.203 L64.0042 536.203 L64.0042 542.06 L42.679 542.06 Q37.6183 542.06 35.1038 544.033 Q32.5894 546.007 32.5894 549.953 Q32.5894 554.696 35.6131 557.433 Q38.6368 560.17 43.8567 560.17 L64.0042 560.17 L64.0042 566.059 L14.479 566.059 L14.479 560.17 L33.8944 560.17 Q30.6797 558.07 29.0883 555.237 Q27.4968 552.372 27.4968 548.648 Q27.4968 542.505 31.3163 539.354 Q35.1038 536.203 42.4881 536.203 Z" fill="#000000" fill-rule="nonzero" fill-opacity="1" /><path clip-path="url(#clip460)" d="M18.2347 518.73 L28.3562 518.73 L28.3562 506.667 L32.9077 506.667 L32.9077 518.73 L52.2594 518.73 Q56.6199 518.73 57.8613 517.552 Q59.1026 516.342 59.1026 512.682 L59.1026 506.667 L64.0042 506.667 L64.0042 512.682 Q64.0042 519.462 61.4897 522.04 Q58.9434 524.618 52.2594 524.618 L32.9077 524.618 L32.9077 528.915 L28.3562 528.915 L28.3562 524.618 L18.2347 524.618 L18.2347 518.73 Z" fill="#000000" fill-rule="nonzero" fill-opacity="1" /><path clip-path="url(#clip460)" d="M453.96 12.096 L488.717 12.096 L488.717 18.9825 L462.143 18.9825 L462.143 36.8065 L486.124 36.8065 L486.124 43.6931 L462.143 43.6931 L462.143 72.576 L453.96 72.576 L453.96 12.096 Z" fill="#000000" fill-rule="nonzero" fill-opacity="1" /><path clip-path="url(#clip460)" d="M514.359 49.7694 Q505.326 49.7694 501.842 51.8354 Q498.358 53.9013 498.358 58.8839 Q498.358 62.8538 500.951 65.2034 Q503.584 67.5124 508.08 67.5124 Q514.278 67.5124 518.005 63.1374 Q521.772 58.7219 521.772 51.4303 L521.772 49.7694 L514.359 49.7694 M529.226 46.6907 L529.226 72.576 L521.772 72.576 L521.772 65.6895 Q519.22 69.8214 515.412 71.8063 Q511.605 73.7508 506.095 73.7508 Q499.128 73.7508 494.996 69.8619 Q490.904 65.9325 490.904 59.3701 Q490.904 51.7138 496.009 47.825 Q501.153 43.9361 511.321 43.9361 L521.772 43.9361 L521.772 43.2069 Q521.772 38.0623 518.37 35.2672 Q515.007 32.4315 508.89 32.4315 Q505.002 32.4315 501.315 33.3632 Q497.629 34.295 494.226 36.1584 L494.226 29.2718 Q498.318 27.692 502.166 26.9223 Q506.014 26.1121 509.66 26.1121 Q519.504 26.1121 524.365 31.2163 Q529.226 36.3204 529.226 46.6907 Z" fill="#000000" fill-rule="nonzero" fill-opacity="1" /><path clip-path="url(#clip460)" d="M544.579 27.2059 L552.033 27.2059 L552.033 72.576 L544.579 72.576 L544.579 27.2059 M544.579 9.54393 L552.033 9.54393 L552.033 18.9825 L544.579 18.9825 L544.579 9.54393 Z" fill="#000000" fill-rule="nonzero" fill-opacity="1" /><path clip-path="url(#clip460)" d="M593.919 34.1734 Q592.663 33.4443 591.164 33.1202 Q589.706 32.7556 587.924 32.7556 Q581.604 32.7556 578.201 36.8875 Q574.839 40.9789 574.839 48.6757 L574.839 72.576 L567.345 72.576 L567.345 27.2059 L574.839 27.2059 L574.839 34.2544 Q577.189 30.1225 580.956 28.1376 Q584.723 26.1121 590.111 26.1121 Q590.881 26.1121 591.812 26.2337 Q592.744 26.3147 593.878 26.5172 L593.919 34.1734 Z" fill="#000000" fill-rule="nonzero" fill-opacity="1" /><path clip-path="url(#clip460)" d="M628.433 12.096 L636.615 12.096 L636.615 65.6895 L666.066 65.6895 L666.066 72.576 L628.433 72.576 L628.433 12.096 Z" fill="#000000" fill-rule="nonzero" fill-opacity="1" /><path clip-path="url(#clip460)" d="M690.452 32.4315 Q684.457 32.4315 680.973 37.1306 Q677.489 41.7891 677.489 49.9314 Q677.489 58.0738 680.932 62.7728 Q684.416 67.4314 690.452 67.4314 Q696.407 67.4314 699.891 62.7323 Q703.374 58.0333 703.374 49.9314 Q703.374 41.8701 699.891 37.1711 Q696.407 32.4315 690.452 32.4315 M690.452 26.1121 Q700.174 26.1121 705.724 32.4315 Q711.274 38.7509 711.274 49.9314 Q711.274 61.0714 705.724 67.4314 Q700.174 73.7508 690.452 73.7508 Q680.689 73.7508 675.14 67.4314 Q669.63 61.0714 669.63 49.9314 Q669.63 38.7509 675.14 32.4315 Q680.689 26.1121 690.452 26.1121 Z" fill="#000000" fill-rule="nonzero" fill-opacity="1" /><path clip-path="url(#clip460)" d="M744.248 49.7694 Q735.215 49.7694 731.731 51.8354 Q728.247 53.9013 728.247 58.8839 Q728.247 62.8538 730.84 65.2034 Q733.473 67.5124 737.969 67.5124 Q744.167 67.5124 747.894 63.1374 Q751.661 58.7219 751.661 51.4303 L751.661 49.7694 L744.248 49.7694 M759.115 46.6907 L759.115 72.576 L751.661 72.576 L751.661 65.6895 Q749.109 69.8214 745.301 71.8063 Q741.493 73.7508 735.984 73.7508 Q729.017 73.7508 724.885 69.8619 Q720.793 65.9325 720.793 59.3701 Q720.793 51.7138 725.897 47.825 Q731.042 43.9361 741.21 43.9361 L751.661 43.9361 L751.661 43.2069 Q751.661 38.0623 748.258 35.2672 Q744.896 32.4315 738.779 32.4315 Q734.89 32.4315 731.204 33.3632 Q727.518 34.295 724.115 36.1584 L724.115 29.2718 Q728.206 27.692 732.055 26.9223 Q735.903 26.1121 739.549 26.1121 Q749.393 26.1121 754.254 31.2163 Q759.115 36.3204 759.115 46.6907 Z" fill="#000000" fill-rule="nonzero" fill-opacity="1" /><path clip-path="url(#clip460)" d="M804.323 34.0924 L804.323 9.54393 L811.777 9.54393 L811.777 72.576 L804.323 72.576 L804.323 65.7705 Q801.973 69.8214 798.368 71.8063 Q794.803 73.7508 789.78 73.7508 Q781.557 73.7508 776.372 67.1883 Q771.227 60.6258 771.227 49.9314 Q771.227 39.2371 776.372 32.6746 Q781.557 26.1121 789.78 26.1121 Q794.803 26.1121 798.368 28.0971 Q801.973 30.0415 804.323 34.0924 M778.924 49.9314 Q778.924 58.1548 782.286 62.8538 Q785.689 67.5124 791.603 67.5124 Q797.517 67.5124 800.92 62.8538 Q804.323 58.1548 804.323 49.9314 Q804.323 41.7081 800.92 37.0496 Q797.517 32.3505 791.603 32.3505 Q785.689 32.3505 782.286 37.0496 Q778.924 41.7081 778.924 49.9314 Z" fill="#000000" fill-rule="nonzero" fill-opacity="1" /><path clip-path="url(#clip460)" d="M848.437 12.096 L856.701 12.096 L869.421 63.2184 L882.1 12.096 L891.296 12.096 L904.016 63.2184 L916.695 12.096 L924.999 12.096 L909.808 72.576 L899.519 72.576 L886.759 20.0763 L873.877 72.576 L863.588 72.576 L848.437 12.096 Z" fill="#000000" fill-rule="nonzero" fill-opacity="1" /><path clip-path="url(#clip460)" d="M969.478 48.0275 L969.478 51.6733 L935.208 51.6733 Q935.694 59.3701 939.826 63.421 Q943.998 67.4314 951.411 67.4314 Q955.705 67.4314 959.716 66.3781 Q963.767 65.3249 967.736 63.2184 L967.736 70.267 Q963.726 71.9684 959.513 72.8596 Q955.3 73.7508 950.966 73.7508 Q940.109 73.7508 933.749 67.4314 Q927.43 61.1119 927.43 50.3365 Q927.43 39.1965 933.425 32.6746 Q939.461 26.1121 949.669 26.1121 Q958.824 26.1121 964.131 32.0264 Q969.478 37.9003 969.478 48.0275 M962.025 45.84 Q961.944 39.7232 958.581 36.0774 Q955.26 32.4315 949.75 32.4315 Q943.512 32.4315 939.745 35.9558 Q936.018 39.4801 935.451 45.8805 L962.025 45.84 Z" fill="#000000" fill-rule="nonzero" fill-opacity="1" /><path clip-path="url(#clip460)" d="M981.712 27.2059 L989.166 27.2059 L989.166 72.576 L981.712 72.576 L981.712 27.2059 M981.712 9.54393 L989.166 9.54393 L989.166 18.9825 L981.712 18.9825 L981.712 9.54393 Z" fill="#000000" fill-rule="nonzero" fill-opacity="1" /><path clip-path="url(#clip460)" d="M1034.62 49.3643 Q1034.62 41.2625 1031.25 36.8065 Q1027.93 32.3505 1021.9 32.3505 Q1015.9 32.3505 1012.54 36.8065 Q1009.22 41.2625 1009.22 49.3643 Q1009.22 57.4256 1012.54 61.8816 Q1015.9 66.3376 1021.9 66.3376 Q1027.93 66.3376 1031.25 61.8816 Q1034.62 57.4256 1034.62 49.3643 M1042.07 66.9452 Q1042.07 78.5308 1036.93 84.1616 Q1031.78 89.8329 1021.17 89.8329 Q1017.24 89.8329 1013.75 89.2252 Q1010.27 88.6581 1006.99 87.4428 L1006.99 80.1917 Q1010.27 81.9741 1013.47 82.8248 Q1016.67 83.6755 1019.99 83.6755 Q1027.33 83.6755 1030.97 79.8271 Q1034.62 76.0193 1034.62 68.282 L1034.62 64.5957 Q1032.31 68.6061 1028.7 70.5911 Q1025.1 72.576 1020.07 72.576 Q1011.73 72.576 1006.63 66.2161 Q1001.52 59.8562 1001.52 49.3643 Q1001.52 38.832 1006.63 32.472 Q1011.73 26.1121 1020.07 26.1121 Q1025.1 26.1121 1028.7 28.0971 Q1032.31 30.082 1034.62 34.0924 L1034.62 27.2059 L1042.07 27.2059 L1042.07 66.9452 Z" fill="#000000" fill-rule="nonzero" fill-opacity="1" /><path clip-path="url(#clip460)" d="M1095.14 45.1919 L1095.14 72.576 L1087.68 72.576 L1087.68 45.4349 Q1087.68 38.994 1085.17 35.7938 Q1082.66 32.5936 1077.64 32.5936 Q1071.6 32.5936 1068.12 36.4419 Q1064.63 40.2903 1064.63 46.9338 L1064.63 72.576 L1057.14 72.576 L1057.14 9.54393 L1064.63 9.54393 L1064.63 34.2544 Q1067.31 30.163 1070.91 28.1376 Q1074.56 26.1121 1079.3 26.1121 Q1087.12 26.1121 1091.13 30.9732 Q1095.14 35.7938 1095.14 45.1919 Z" fill="#000000" fill-rule="nonzero" fill-opacity="1" /><path clip-path="url(#clip460)" d="M1117.38 14.324 L1117.38 27.2059 L1132.73 27.2059 L1132.73 32.9987 L1117.38 32.9987 L1117.38 57.6282 Q1117.38 63.1779 1118.88 64.7578 Q1120.41 66.3376 1125.07 66.3376 L1132.73 66.3376 L1132.73 72.576 L1125.07 72.576 Q1116.45 72.576 1113.16 69.3758 Q1109.88 66.1351 1109.88 57.6282 L1109.88 32.9987 L1104.41 32.9987 L1104.41 27.2059 L1109.88 27.2059 L1109.88 14.324 L1117.38 14.324 Z" fill="#000000" fill-rule="nonzero" fill-opacity="1" /><path clip-path="url(#clip460)" d="M1171.46 28.5427 L1171.46 35.5912 Q1168.3 33.9709 1164.89 33.1607 Q1161.49 32.3505 1157.85 32.3505 Q1152.3 32.3505 1149.5 34.0519 Q1146.75 35.7533 1146.75 39.156 Q1146.75 41.7486 1148.73 43.2475 Q1150.72 44.7058 1156.71 46.0426 L1159.26 46.6097 Q1167.2 48.3111 1170.52 51.4303 Q1173.89 54.509 1173.89 60.0587 Q1173.89 66.3781 1168.86 70.0644 Q1163.88 73.7508 1155.13 73.7508 Q1151.49 73.7508 1147.52 73.0216 Q1143.59 72.3329 1139.21 70.9151 L1139.21 63.2184 Q1143.34 65.3654 1147.35 66.4591 Q1151.36 67.5124 1155.29 67.5124 Q1160.56 67.5124 1163.4 65.73 Q1166.23 63.9071 1166.23 60.6258 Q1166.23 57.5877 1164.16 55.9673 Q1162.14 54.3469 1155.21 52.8481 L1152.62 52.2405 Q1145.69 50.7821 1142.61 47.7845 Q1139.54 44.7463 1139.54 39.4801 Q1139.54 33.0797 1144.07 29.5959 Q1148.61 26.1121 1156.95 26.1121 Q1161.09 26.1121 1164.73 26.7198 Q1168.38 27.3274 1171.46 28.5427 Z" fill="#000000" fill-rule="nonzero" fill-opacity="1" /><path clip-path="url(#clip460)" d="M1219.34 65.7705 L1219.34 89.8329 L1211.84 89.8329 L1211.84 27.2059 L1219.34 27.2059 L1219.34 34.0924 Q1221.69 30.0415 1225.25 28.0971 Q1228.86 26.1121 1233.84 26.1121 Q1242.1 26.1121 1247.25 32.6746 Q1252.43 39.2371 1252.43 49.9314 Q1252.43 60.6258 1247.25 67.1883 Q1242.1 73.7508 1233.84 73.7508 Q1228.86 73.7508 1225.25 71.8063 Q1221.69 69.8214 1219.34 65.7705 M1244.7 49.9314 Q1244.7 41.7081 1241.29 37.0496 Q1237.93 32.3505 1232.02 32.3505 Q1226.1 32.3505 1222.7 37.0496 Q1219.34 41.7081 1219.34 49.9314 Q1219.34 58.1548 1222.7 62.8538 Q1226.1 67.5124 1232.02 67.5124 Q1237.93 67.5124 1241.29 62.8538 Q1244.7 58.1548 1244.7 49.9314 Z" fill="#000000" fill-rule="nonzero" fill-opacity="1" /><path clip-path="url(#clip460)" d="M1303.6 48.0275 L1303.6 51.6733 L1269.33 51.6733 Q1269.81 59.3701 1273.94 63.421 Q1278.12 67.4314 1285.53 67.4314 Q1289.82 67.4314 1293.83 66.3781 Q1297.89 65.3249 1301.85 63.2184 L1301.85 70.267 Q1297.84 71.9684 1293.63 72.8596 Q1289.42 73.7508 1285.08 73.7508 Q1274.23 73.7508 1267.87 67.4314 Q1261.55 61.1119 1261.55 50.3365 Q1261.55 39.1965 1267.54 32.6746 Q1273.58 26.1121 1283.79 26.1121 Q1292.94 26.1121 1298.25 32.0264 Q1303.6 37.9003 1303.6 48.0275 M1296.14 45.84 Q1296.06 39.7232 1292.7 36.0774 Q1289.38 32.4315 1283.87 32.4315 Q1277.63 32.4315 1273.86 35.9558 Q1270.14 39.4801 1269.57 45.8805 L1296.14 45.84 Z" fill="#000000" fill-rule="nonzero" fill-opacity="1" /><path clip-path="url(#clip460)" d="M1342.12 34.1734 Q1340.87 33.4443 1339.37 33.1202 Q1337.91 32.7556 1336.13 32.7556 Q1329.81 32.7556 1326.4 36.8875 Q1323.04 40.9789 1323.04 48.6757 L1323.04 72.576 L1315.55 72.576 L1315.55 27.2059 L1323.04 27.2059 L1323.04 34.2544 Q1325.39 30.1225 1329.16 28.1376 Q1332.93 26.1121 1338.31 26.1121 Q1339.08 26.1121 1340.01 26.2337 Q1340.95 26.3147 1342.08 26.5172 L1342.12 34.1734 Z" fill="#000000" fill-rule="nonzero" fill-opacity="1" /><path clip-path="url(#clip460)" d="M1376.63 12.096 L1384.82 12.096 L1384.82 65.6895 L1414.27 65.6895 L1414.27 72.576 L1376.63 72.576 L1376.63 12.096 Z" fill="#000000" fill-rule="nonzero" fill-opacity="1" /><path clip-path="url(#clip460)" d="M1438.65 32.4315 Q1432.66 32.4315 1429.17 37.1306 Q1425.69 41.7891 1425.69 49.9314 Q1425.69 58.0738 1429.13 62.7728 Q1432.62 67.4314 1438.65 67.4314 Q1444.61 67.4314 1448.09 62.7323 Q1451.58 58.0333 1451.58 49.9314 Q1451.58 41.8701 1448.09 37.1711 Q1444.61 32.4315 1438.65 32.4315 M1438.65 26.1121 Q1448.38 26.1121 1453.93 32.4315 Q1459.48 38.7509 1459.48 49.9314 Q1459.48 61.0714 1453.93 67.4314 Q1448.38 73.7508 1438.65 73.7508 Q1428.89 73.7508 1423.34 67.4314 Q1417.83 61.0714 1417.83 49.9314 Q1417.83 38.7509 1423.34 32.4315 Q1428.89 26.1121 1438.65 26.1121 Z" fill="#000000" fill-rule="nonzero" fill-opacity="1" /><path clip-path="url(#clip460)" d="M1492.45 49.7694 Q1483.42 49.7694 1479.93 51.8354 Q1476.45 53.9013 1476.45 58.8839 Q1476.45 62.8538 1479.04 65.2034 Q1481.67 67.5124 1486.17 67.5124 Q1492.37 67.5124 1496.1 63.1374 Q1499.86 58.7219 1499.86 51.4303 L1499.86 49.7694 L1492.45 49.7694 M1507.32 46.6907 L1507.32 72.576 L1499.86 72.576 L1499.86 65.6895 Q1497.31 69.8214 1493.5 71.8063 Q1489.7 73.7508 1484.19 73.7508 Q1477.22 73.7508 1473.09 69.8619 Q1469 65.9325 1469 59.3701 Q1469 51.7138 1474.1 47.825 Q1479.24 43.9361 1489.41 43.9361 L1499.86 43.9361 L1499.86 43.2069 Q1499.86 38.0623 1496.46 35.2672 Q1493.1 32.4315 1486.98 32.4315 Q1483.09 32.4315 1479.41 33.3632 Q1475.72 34.295 1472.32 36.1584 L1472.32 29.2718 Q1476.41 27.692 1480.26 26.9223 Q1484.11 26.1121 1487.75 26.1121 Q1497.59 26.1121 1502.46 31.2163 Q1507.32 36.3204 1507.32 46.6907 Z" fill="#000000" fill-rule="nonzero" fill-opacity="1" /><path clip-path="url(#clip460)" d="M1552.52 34.0924 L1552.52 9.54393 L1559.98 9.54393 L1559.98 72.576 L1552.52 72.576 L1552.52 65.7705 Q1550.18 69.8214 1546.57 71.8063 Q1543.01 73.7508 1537.98 73.7508 Q1529.76 73.7508 1524.57 67.1883 Q1519.43 60.6258 1519.43 49.9314 Q1519.43 39.2371 1524.57 32.6746 Q1529.76 26.1121 1537.98 26.1121 Q1543.01 26.1121 1546.57 28.0971 Q1550.18 30.0415 1552.52 34.0924 M1527.13 49.9314 Q1527.13 58.1548 1530.49 62.8538 Q1533.89 67.5124 1539.81 67.5124 Q1545.72 67.5124 1549.12 62.8538 Q1552.52 58.1548 1552.52 49.9314 Q1552.52 41.7081 1549.12 37.0496 Q1545.72 32.3505 1539.81 32.3505 Q1533.89 32.3505 1530.49 37.0496 Q1527.13 41.7081 1527.13 49.9314 Z" fill="#000000" fill-rule="nonzero" fill-opacity="1" /><path clip-path="url(#clip460)" d="M1597.94 46.5287 L1619.77 46.5287 L1619.77 53.1722 L1597.94 53.1722 L1597.94 46.5287 Z" fill="#000000" fill-rule="nonzero" fill-opacity="1" /><path clip-path="url(#clip460)" d="M1658.33 12.096 L1666.52 12.096 L1666.52 72.576 L1658.33 72.576 L1658.33 12.096 Z" fill="#000000" fill-rule="nonzero" fill-opacity="1" /><path clip-path="url(#clip460)" d="M1689.85 14.324 L1689.85 27.2059 L1705.2 27.2059 L1705.2 32.9987 L1689.85 32.9987 L1689.85 57.6282 Q1689.85 63.1779 1691.35 64.7578 Q1692.89 66.3376 1697.55 66.3376 L1705.2 66.3376 L1705.2 72.576 L1697.55 72.576 Q1688.92 72.576 1685.64 69.3758 Q1682.36 66.1351 1682.36 57.6282 L1682.36 32.9987 L1676.89 32.9987 L1676.89 27.2059 L1682.36 27.2059 L1682.36 14.324 L1689.85 14.324 Z" fill="#000000" fill-rule="nonzero" fill-opacity="1" /><path clip-path="url(#clip460)" d="M1753.81 48.0275 L1753.81 51.6733 L1719.54 51.6733 Q1720.03 59.3701 1724.16 63.421 Q1728.33 67.4314 1735.75 67.4314 Q1740.04 67.4314 1744.05 66.3781 Q1748.1 65.3249 1752.07 63.2184 L1752.07 70.267 Q1748.06 71.9684 1743.85 72.8596 Q1739.64 73.7508 1735.3 73.7508 Q1724.45 73.7508 1718.09 67.4314 Q1711.77 61.1119 1711.77 50.3365 Q1711.77 39.1965 1717.76 32.6746 Q1723.8 26.1121 1734.01 26.1121 Q1743.16 26.1121 1748.47 32.0264 Q1753.81 37.9003 1753.81 48.0275 M1746.36 45.84 Q1746.28 39.7232 1742.92 36.0774 Q1739.6 32.4315 1734.09 32.4315 Q1727.85 32.4315 1724.08 35.9558 Q1720.35 39.4801 1719.79 45.8805 L1746.36 45.84 Z" fill="#000000" fill-rule="nonzero" fill-opacity="1" /><path clip-path="url(#clip460)" d="M1792.34 34.1734 Q1791.08 33.4443 1789.58 33.1202 Q1788.13 32.7556 1786.34 32.7556 Q1780.02 32.7556 1776.62 36.8875 Q1773.26 40.9789 1773.26 48.6757 L1773.26 72.576 L1765.76 72.576 L1765.76 27.2059 L1773.26 27.2059 L1773.26 34.2544 Q1775.61 30.1225 1779.38 28.1376 Q1783.14 26.1121 1788.53 26.1121 Q1789.3 26.1121 1790.23 26.2337 Q1791.16 26.3147 1792.3 26.5172 L1792.34 34.1734 Z" fill="#000000" fill-rule="nonzero" fill-opacity="1" /><path clip-path="url(#clip460)" d="M1820.78 49.7694 Q1811.74 49.7694 1808.26 51.8354 Q1804.77 53.9013 1804.77 58.8839 Q1804.77 62.8538 1807.37 65.2034 Q1810 67.5124 1814.5 67.5124 Q1820.69 67.5124 1824.42 63.1374 Q1828.19 58.7219 1828.19 51.4303 L1828.19 49.7694 L1820.78 49.7694 M1835.64 46.6907 L1835.64 72.576 L1828.19 72.576 L1828.19 65.6895 Q1825.64 69.8214 1821.83 71.8063 Q1818.02 73.7508 1812.51 73.7508 Q1805.54 73.7508 1801.41 69.8619 Q1797.32 65.9325 1797.32 59.3701 Q1797.32 51.7138 1802.43 47.825 Q1807.57 43.9361 1817.74 43.9361 L1828.19 43.9361 L1828.19 43.2069 Q1828.19 38.0623 1824.79 35.2672 Q1821.42 32.4315 1815.31 32.4315 Q1811.42 32.4315 1807.73 33.3632 Q1804.05 34.295 1800.64 36.1584 L1800.64 29.2718 Q1804.73 27.692 1808.58 26.9223 Q1812.43 26.1121 1816.08 26.1121 Q1825.92 26.1121 1830.78 31.2163 Q1835.64 36.3204 1835.64 46.6907 Z" fill="#000000" fill-rule="nonzero" fill-opacity="1" /><path clip-path="url(#clip460)" d="M1858.37 14.324 L1858.37 27.2059 L1873.72 27.2059 L1873.72 32.9987 L1858.37 32.9987 L1858.37 57.6282 Q1858.37 63.1779 1859.87 64.7578 Q1861.41 66.3376 1866.06 66.3376 L1873.72 66.3376 L1873.72 72.576 L1866.06 72.576 Q1857.44 72.576 1854.16 69.3758 Q1850.87 66.1351 1850.87 57.6282 L1850.87 32.9987 L1845.41 32.9987 L1845.41 27.2059 L1850.87 27.2059 L1850.87 14.324 L1858.37 14.324 Z" fill="#000000" fill-rule="nonzero" fill-opacity="1" /><path clip-path="url(#clip460)" d="M1883.52 27.2059 L1890.98 27.2059 L1890.98 72.576 L1883.52 72.576 L1883.52 27.2059 M1883.52 9.54393 L1890.98 9.54393 L1890.98 18.9825 L1883.52 18.9825 L1883.52 9.54393 Z" fill="#000000" fill-rule="nonzero" fill-opacity="1" /><path clip-path="url(#clip460)" d="M1924.15 32.4315 Q1918.16 32.4315 1914.68 37.1306 Q1911.19 41.7891 1911.19 49.9314 Q1911.19 58.0738 1914.64 62.7728 Q1918.12 67.4314 1924.15 67.4314 Q1930.11 67.4314 1933.59 62.7323 Q1937.08 58.0333 1937.08 49.9314 Q1937.08 41.8701 1933.59 37.1711 Q1930.11 32.4315 1924.15 32.4315 M1924.15 26.1121 Q1933.88 26.1121 1939.43 32.4315 Q1944.98 38.7509 1944.98 49.9314 Q1944.98 61.0714 1939.43 67.4314 Q1933.88 73.7508 1924.15 73.7508 Q1914.39 73.7508 1908.84 67.4314 Q1903.33 61.0714 1903.33 49.9314 Q1903.33 38.7509 1908.84 32.4315 Q1914.39 26.1121 1924.15 26.1121 Z" fill="#000000" fill-rule="nonzero" fill-opacity="1" /><path clip-path="url(#clip460)" d="M1995.05 45.1919 L1995.05 72.576 L1987.59 72.576 L1987.59 45.4349 Q1987.59 38.994 1985.08 35.7938 Q1982.57 32.5936 1977.55 32.5936 Q1971.51 32.5936 1968.03 36.4419 Q1964.54 40.2903 1964.54 46.9338 L1964.54 72.576 L1957.05 72.576 L1957.05 27.2059 L1964.54 27.2059 L1964.54 34.2544 Q1967.22 30.163 1970.82 28.1376 Q1974.47 26.1121 1979.21 26.1121 Q1987.02 26.1121 1991.04 30.9732 Q1995.05 35.7938 1995.05 45.1919 Z" fill="#000000" fill-rule="nonzero" fill-opacity="1" /><path clip-path="url(#clip460)" d="M2044.39 65.6895 L2072.94 65.6895 L2072.94 72.576 L2034.54 72.576 L2034.54 65.6895 Q2039.2 60.8689 2047.22 52.7671 Q2055.28 44.6248 2057.35 42.2752 Q2061.28 37.8598 2062.82 34.8216 Q2064.4 31.7429 2064.4 28.7857 Q2064.4 23.9651 2060.99 20.927 Q2057.63 17.8888 2052.2 17.8888 Q2048.36 17.8888 2044.06 19.2256 Q2039.81 20.5624 2034.95 23.2765 L2034.95 15.0127 Q2039.89 13.0277 2044.18 12.015 Q2048.48 11.0023 2052.04 11.0023 Q2061.44 11.0023 2067.03 15.7013 Q2072.62 20.4004 2072.62 28.2591 Q2072.62 31.9859 2071.2 35.3482 Q2069.83 38.6699 2066.14 43.2069 Q2065.13 44.3817 2059.7 50.0125 Q2054.27 55.6027 2044.39 65.6895 Z" fill="#000000" fill-rule="nonzero" fill-opacity="1" /><path clip-path="url(#clip462)" d="M818.017 127.293 L818.017 1423.18 L922.826 1423.18 L922.826 127.293 L818.017 127.293 L818.017 127.293  Z" fill="#009af9" fill-rule="evenodd" fill-opacity="1"/>
<polyline clip-path="url(#clip462)" style="stroke:#000000; stroke-linecap:round; stroke-linejoin:round; stroke-width:4; stroke-opacity:1; fill:none" points="818.017,127.293 818.017,1423.18 922.826,1423.18 922.826,127.293 818.017,127.293 "/>
<path clip-path="url(#clip462)" d="M1735.09 123.526 L1735.09 1423.18 L1839.9 1423.18 L1839.9 123.526 L1735.09 123.526 L1735.09 123.526  Z" fill="#009af9" fill-rule="evenodd" fill-opacity="1"/>
<polyline clip-path="url(#clip462)" style="stroke:#000000; stroke-linecap:round; stroke-linejoin:round; stroke-width:4; stroke-opacity:1; fill:none" points="1735.09,123.526 1735.09,1423.18 1839.9,1423.18 1839.9,123.526 1735.09,123.526 "/>
<path clip-path="url(#clip462)" d="M1211.05 127.293 L1211.05 1423.18 L1315.86 1423.18 L1315.86 127.293 L1211.05 127.293 L1211.05 127.293  Z" fill="#009af9" fill-rule="evenodd" fill-opacity="1"/>
<polyline clip-path="url(#clip462)" style="stroke:#000000; stroke-linecap:round; stroke-linejoin:round; stroke-width:4; stroke-opacity:1; fill:none" points="1211.05,127.293 1211.05,1423.18 1315.86,1423.18 1315.86,127.293 1211.05,127.293 "/>
<path clip-path="url(#clip462)" d="M293.976 127.293 L293.976 1423.18 L398.784 1423.18 L398.784 127.293 L293.976 127.293 L293.976 127.293  Z" fill="#009af9" fill-rule="evenodd" fill-opacity="1"/>
<polyline clip-path="url(#clip462)" style="stroke:#000000; stroke-linecap:round; stroke-linejoin:round; stroke-width:4; stroke-opacity:1; fill:none" points="293.976,127.293 293.976,1423.18 398.784,1423.18 398.784,127.293 293.976,127.293 "/>
<path clip-path="url(#clip462)" d="M949.028 126.617 L949.028 1423.18 L1053.84 1423.18 L1053.84 126.617 L949.028 126.617 L949.028 126.617  Z" fill="#009af9" fill-rule="evenodd" fill-opacity="1"/>
<polyline clip-path="url(#clip462)" style="stroke:#000000; stroke-linecap:round; stroke-linejoin:round; stroke-width:4; stroke-opacity:1; fill:none" points="949.028,126.617 949.028,1423.18 1053.84,1423.18 1053.84,126.617 949.028,126.617 "/>
<path clip-path="url(#clip462)" d="M1604.08 127.293 L1604.08 1423.18 L1708.89 1423.18 L1708.89 127.293 L1604.08 127.293 L1604.08 127.293  Z" fill="#009af9" fill-rule="evenodd" fill-opacity="1"/>
<polyline clip-path="url(#clip462)" style="stroke:#000000; stroke-linecap:round; stroke-linejoin:round; stroke-width:4; stroke-opacity:1; fill:none" points="1604.08,127.293 1604.08,1423.18 1708.89,1423.18 1708.89,127.293 1604.08,127.293 "/>
<path clip-path="url(#clip462)" d="M1342.06 127.293 L1342.06 1423.18 L1446.87 1423.18 L1446.87 127.293 L1342.06 127.293 L1342.06 127.293  Z" fill="#009af9" fill-rule="evenodd" fill-opacity="1"/>
<polyline clip-path="url(#clip462)" style="stroke:#000000; stroke-linecap:round; stroke-linejoin:round; stroke-width:4; stroke-opacity:1; fill:none" points="1342.06,127.293 1342.06,1423.18 1446.87,1423.18 1446.87,127.293 1342.06,127.293 "/>
<path clip-path="url(#clip462)" d="M1997.11 127.293 L1997.11 1423.18 L2101.92 1423.18 L2101.92 127.293 L1997.11 127.293 L1997.11 127.293  Z" fill="#009af9" fill-rule="evenodd" fill-opacity="1"/>
<polyline clip-path="url(#clip462)" style="stroke:#000000; stroke-linecap:round; stroke-linejoin:round; stroke-width:4; stroke-opacity:1; fill:none" points="1997.11,127.293 1997.11,1423.18 2101.92,1423.18 2101.92,127.293 1997.11,127.293 "/>
<path clip-path="url(#clip462)" d="M555.997 127.378 L555.997 1423.18 L660.805 1423.18 L660.805 127.378 L555.997 127.378 L555.997 127.378  Z" fill="#009af9" fill-rule="evenodd" fill-opacity="1"/>
<polyline clip-path="url(#clip462)" style="stroke:#000000; stroke-linecap:round; stroke-linejoin:round; stroke-width:4; stroke-opacity:1; fill:none" points="555.997,127.378 555.997,1423.18 660.805,1423.18 660.805,127.378 555.997,127.378 "/>
<path clip-path="url(#clip462)" d="M1080.04 127.293 L1080.04 1423.18 L1184.85 1423.18 L1184.85 127.293 L1080.04 127.293 L1080.04 127.293  Z" fill="#009af9" fill-rule="evenodd" fill-opacity="1"/>
<polyline clip-path="url(#clip462)" style="stroke:#000000; stroke-linecap:round; stroke-linejoin:round; stroke-width:4; stroke-opacity:1; fill:none" points="1080.04,127.293 1080.04,1423.18 1184.85,1423.18 1184.85,127.293 1080.04,127.293 "/>
<path clip-path="url(#clip462)" d="M687.007 123.472 L687.007 1423.18 L791.815 1423.18 L791.815 123.472 L687.007 123.472 L687.007 123.472  Z" fill="#009af9" fill-rule="evenodd" fill-opacity="1"/>
<polyline clip-path="url(#clip462)" style="stroke:#000000; stroke-linecap:round; stroke-linejoin:round; stroke-width:4; stroke-opacity:1; fill:none" points="687.007,123.472 687.007,1423.18 791.815,1423.18 791.815,123.472 687.007,123.472 "/>
<path clip-path="url(#clip462)" d="M1866.1 135.005 L1866.1 1423.18 L1970.91 1423.18 L1970.91 135.005 L1866.1 135.005 L1866.1 135.005  Z" fill="#009af9" fill-rule="evenodd" fill-opacity="1"/>
<polyline clip-path="url(#clip462)" style="stroke:#000000; stroke-linecap:round; stroke-linejoin:round; stroke-width:4; stroke-opacity:1; fill:none" points="1866.1,135.005 1866.1,1423.18 1970.91,1423.18 1970.91,135.005 1866.1,135.005 "/>
<path clip-path="url(#clip462)" d="M2128.12 127.647 L2128.12 1423.18 L2232.93 1423.18 L2232.93 127.647 L2128.12 127.647 L2128.12 127.647  Z" fill="#009af9" fill-rule="evenodd" fill-opacity="1"/>
<polyline clip-path="url(#clip462)" style="stroke:#000000; stroke-linecap:round; stroke-linejoin:round; stroke-width:4; stroke-opacity:1; fill:none" points="2128.12,127.647 2128.12,1423.18 2232.93,1423.18 2232.93,127.647 2128.12,127.647 "/>
<path clip-path="url(#clip462)" d="M424.986 127.293 L424.986 1423.18 L529.795 1423.18 L529.795 127.293 L424.986 127.293 L424.986 127.293  Z" fill="#009af9" fill-rule="evenodd" fill-opacity="1"/>
<polyline clip-path="url(#clip462)" style="stroke:#000000; stroke-linecap:round; stroke-linejoin:round; stroke-width:4; stroke-opacity:1; fill:none" points="424.986,127.293 424.986,1423.18 529.795,1423.18 529.795,127.293 424.986,127.293 "/>
<path clip-path="url(#clip462)" d="M1473.07 127.293 L1473.07 1423.18 L1577.88 1423.18 L1577.88 127.293 L1473.07 127.293 L1473.07 127.293  Z" fill="#009af9" fill-rule="evenodd" fill-opacity="1"/>
<polyline clip-path="url(#clip462)" style="stroke:#000000; stroke-linecap:round; stroke-linejoin:round; stroke-width:4; stroke-opacity:1; fill:none" points="1473.07,127.293 1473.07,1423.18 1577.88,1423.18 1577.88,127.293 1473.07,127.293 "/>
<circle clip-path="url(#clip462)" style="fill:#009af9; stroke:none; fill-opacity:0" cx="870.422" cy="127.293" r="2"/>
<circle clip-path="url(#clip462)" style="fill:#009af9; stroke:none; fill-opacity:0" cx="1787.49" cy="123.526" r="2"/>
<circle clip-path="url(#clip462)" style="fill:#009af9; stroke:none; fill-opacity:0" cx="1263.45" cy="127.293" r="2"/>
<circle clip-path="url(#clip462)" style="fill:#009af9; stroke:none; fill-opacity:0" cx="346.38" cy="127.293" r="2"/>
<circle clip-path="url(#clip462)" style="fill:#009af9; stroke:none; fill-opacity:0" cx="1001.43" cy="126.617" r="2"/>
<circle clip-path="url(#clip462)" style="fill:#009af9; stroke:none; fill-opacity:0" cx="1656.48" cy="127.293" r="2"/>
<circle clip-path="url(#clip462)" style="fill:#009af9; stroke:none; fill-opacity:0" cx="1394.46" cy="127.293" r="2"/>
<circle clip-path="url(#clip462)" style="fill:#009af9; stroke:none; fill-opacity:0" cx="2049.51" cy="127.293" r="2"/>
<circle clip-path="url(#clip462)" style="fill:#009af9; stroke:none; fill-opacity:0" cx="608.401" cy="127.378" r="2"/>
<circle clip-path="url(#clip462)" style="fill:#009af9; stroke:none; fill-opacity:0" cx="1132.44" cy="127.293" r="2"/>
<circle clip-path="url(#clip462)" style="fill:#009af9; stroke:none; fill-opacity:0" cx="739.411" cy="123.472" r="2"/>
<circle clip-path="url(#clip462)" style="fill:#009af9; stroke:none; fill-opacity:0" cx="1918.5" cy="135.005" r="2"/>
<circle clip-path="url(#clip462)" style="fill:#009af9; stroke:none; fill-opacity:0" cx="2180.52" cy="127.647" r="2"/>
<circle clip-path="url(#clip462)" style="fill:#009af9; stroke:none; fill-opacity:0" cx="477.391" cy="127.293" r="2"/>
<circle clip-path="url(#clip462)" style="fill:#009af9; stroke:none; fill-opacity:0" cx="1525.47" cy="127.293" r="2"/>
</svg>
