<?xml version="1.0" encoding="utf-8"?>
<svg xmlns="http://www.w3.org/2000/svg" xmlns:xlink="http://www.w3.org/1999/xlink" width="1400" height="600" viewBox="0 0 5600 2400">
<defs>
  <clipPath id="clip610">
    <rect x="0" y="0" width="5600" height="2400"/>
  </clipPath>
</defs>
<path clip-path="url(#clip610)" d="M0 2400 L5600 2400 L5600 0 L0 0  Z" fill="#ffffff" fill-rule="evenodd" fill-opacity="1"/>
<defs>
  <clipPath id="clip611">
    <rect x="1120" y="0" width="3921" height="2400"/>
  </clipPath>
</defs>
<path clip-path="url(#clip610)" d="M389.15 2004.92 L4330.82 2004.92 L4330.82 164.864 L389.15 164.864  Z" fill="#ffffff" fill-rule="evenodd" fill-opacity="1"/>
<defs>
  <clipPath id="clip612">
    <rect x="389" y="164" width="3943" height="1841"/>
  </clipPath>
</defs>
<polyline clip-path="url(#clip612)" style="stroke:#000000; stroke-linecap:round; stroke-linejoin:round; stroke-width:2; stroke-opacity:0.1; fill:none" points="673.674,2004.92 673.674,164.864 "/>
<polyline clip-path="url(#clip612)" style="stroke:#000000; stroke-linecap:round; stroke-linejoin:round; stroke-width:2; stroke-opacity:0.1; fill:none" points="1075.18,2004.92 1075.18,164.864 "/>
<polyline clip-path="url(#clip612)" style="stroke:#000000; stroke-linecap:round; stroke-linejoin:round; stroke-width:2; stroke-opacity:0.1; fill:none" points="1476.68,2004.92 1476.68,164.864 "/>
<polyline clip-path="url(#clip612)" style="stroke:#000000; stroke-linecap:round; stroke-linejoin:round; stroke-width:2; stroke-opacity:0.1; fill:none" points="1878.18,2004.92 1878.18,164.864 "/>
<polyline clip-path="url(#clip612)" style="stroke:#000000; stroke-linecap:round; stroke-linejoin:round; stroke-width:2; stroke-opacity:0.1; fill:none" points="2279.68,2004.92 2279.68,164.864 "/>
<polyline clip-path="url(#clip612)" style="stroke:#000000; stroke-linecap:round; stroke-linejoin:round; stroke-width:2; stroke-opacity:0.1; fill:none" points="2681.18,2004.92 2681.18,164.864 "/>
<polyline clip-path="url(#clip612)" style="stroke:#000000; stroke-linecap:round; stroke-linejoin:round; stroke-width:2; stroke-opacity:0.1; fill:none" points="3082.69,2004.92 3082.69,164.864 "/>
<polyline clip-path="url(#clip612)" style="stroke:#000000; stroke-linecap:round; stroke-linejoin:round; stroke-width:2; stroke-opacity:0.1; fill:none" points="3484.19,2004.92 3484.19,164.864 "/>
<polyline clip-path="url(#clip612)" style="stroke:#000000; stroke-linecap:round; stroke-linejoin:round; stroke-width:2; stroke-opacity:0.1; fill:none" points="3885.69,2004.92 3885.69,164.864 "/>
<polyline clip-path="url(#clip612)" style="stroke:#000000; stroke-linecap:round; stroke-linejoin:round; stroke-width:2; stroke-opacity:0.1; fill:none" points="389.15,2004.92 4330.82,2004.92 "/>
<polyline clip-path="url(#clip612)" style="stroke:#000000; stroke-linecap:round; stroke-linejoin:round; stroke-width:2; stroke-opacity:0.1; fill:none" points="389.15,1636.91 4330.82,1636.91 "/>
<polyline clip-path="url(#clip612)" style="stroke:#000000; stroke-linecap:round; stroke-linejoin:round; stroke-width:2; stroke-opacity:0.1; fill:none" points="389.15,1268.9 4330.82,1268.9 "/>
<polyline clip-path="url(#clip612)" style="stroke:#000000; stroke-linecap:round; stroke-linejoin:round; stroke-width:2; stroke-opacity:0.1; fill:none" points="389.15,900.886 4330.82,900.886 "/>
<polyline clip-path="url(#clip612)" style="stroke:#000000; stroke-linecap:round; stroke-linejoin:round; stroke-width:2; stroke-opacity:0.1; fill:none" points="389.15,532.875 4330.82,532.875 "/>
<polyline clip-path="url(#clip612)" style="stroke:#000000; stroke-linecap:round; stroke-linejoin:round; stroke-width:2; stroke-opacity:0.1; fill:none" points="389.15,164.864 4330.82,164.864 "/>
<polyline clip-path="url(#clip610)" style="stroke:#000000; stroke-linecap:round; stroke-linejoin:round; stroke-width:4; stroke-opacity:1; fill:none" points="389.15,2004.92 4330.82,2004.92 "/>
<polyline clip-path="url(#clip610)" style="stroke:#000000; stroke-linecap:round; stroke-linejoin:round; stroke-width:4; stroke-opacity:1; fill:none" points="673.674,2004.92 673.674,1986.02 "/>
<polyline clip-path="url(#clip610)" style="stroke:#000000; stroke-linecap:round; stroke-linejoin:round; stroke-width:4; stroke-opacity:1; fill:none" points="1075.18,2004.92 1075.18,1986.02 "/>
<polyline clip-path="url(#clip610)" style="stroke:#000000; stroke-linecap:round; stroke-linejoin:round; stroke-width:4; stroke-opacity:1; fill:none" points="1476.68,2004.92 1476.68,1986.02 "/>
<polyline clip-path="url(#clip610)" style="stroke:#000000; stroke-linecap:round; stroke-linejoin:round; stroke-width:4; stroke-opacity:1; fill:none" points="1878.18,2004.92 1878.18,1986.02 "/>
<polyline clip-path="url(#clip610)" style="stroke:#000000; stroke-linecap:round; stroke-linejoin:round; stroke-width:4; stroke-opacity:1; fill:none" points="2279.68,2004.92 2279.68,1986.02 "/>
<polyline clip-path="url(#clip610)" style="stroke:#000000; stroke-linecap:round; stroke-linejoin:round; stroke-width:4; stroke-opacity:1; fill:none" points="2681.18,2004.92 2681.18,1986.02 "/>
<polyline clip-path="url(#clip610)" style="stroke:#000000; stroke-linecap:round; stroke-linejoin:round; stroke-width:4; stroke-opacity:1; fill:none" points="3082.69,2004.92 3082.69,1986.02 "/>
<polyline clip-path="url(#clip610)" style="stroke:#000000; stroke-linecap:round; stroke-linejoin:round; stroke-width:4; stroke-opacity:1; fill:none" points="3484.19,2004.92 3484.19,1986.02 "/>
<polyline clip-path="url(#clip610)" style="stroke:#000000; stroke-linecap:round; stroke-linejoin:round; stroke-width:4; stroke-opacity:1; fill:none" points="3885.69,2004.92 3885.69,1986.02 "/>
<path clip-path="url(#clip610)" d="M622.532 2116.55 Q620.306 2118.78 620.518 2121.61 Q620.748 2124.43 623.399 2127.08 Q626.034 2129.71 628.866 2129.96 Q631.698 2130.17 633.924 2127.94 Q636.15 2125.72 635.921 2122.9 Q635.692 2120.06 633.056 2117.42 Q630.405 2114.77 627.573 2114.56 Q624.758 2114.33 622.532 2116.55 M618.734 2099.63 L621.746 2102.64 Q619.913 2103.29 618.325 2104.26 Q616.754 2105.21 615.51 2106.45 Q612.236 2109.73 612.711 2113.67 Q613.202 2117.6 617.425 2122.31 Q616.967 2119.92 617.67 2117.71 Q618.358 2115.49 620.109 2113.74 Q623.792 2110.05 628.162 2110.17 Q632.533 2110.25 636.379 2114.1 Q640.144 2117.86 640.193 2122.36 Q640.242 2126.86 636.543 2130.56 Q632.303 2134.8 626.82 2133.8 Q621.32 2132.79 615.15 2126.62 Q609.355 2120.82 608.668 2114.64 Q607.964 2108.43 612.596 2103.8 Q613.84 2102.56 615.346 2101.54 Q616.868 2100.51 618.734 2099.63 Z" fill="#000000" fill-rule="nonzero" fill-opacity="1" /><path clip-path="url(#clip610)" d="M647.706 2112.89 L653.107 2107.48 L634.464 2088.84 L629.766 2095.9 L626.755 2092.88 L631.42 2085.86 L634.726 2082.56 L656.381 2104.21 L661.782 2098.81 L664.565 2101.59 L650.488 2115.67 L647.706 2112.89 Z" fill="#000000" fill-rule="nonzero" fill-opacity="1" /><path clip-path="url(#clip610)" d="M669.034 2091.56 L674.435 2086.16 L655.792 2067.51 L651.094 2074.57 L648.082 2071.56 L652.747 2064.53 L656.054 2061.23 L677.709 2082.88 L683.11 2077.48 L685.893 2080.26 L671.816 2094.34 L669.034 2091.56 Z" fill="#000000" fill-rule="nonzero" fill-opacity="1" /><path clip-path="url(#clip610)" d="M1022.82 2117.76 Q1020.6 2119.99 1020.81 2122.82 Q1021.04 2125.64 1023.69 2128.29 Q1026.33 2130.92 1029.16 2131.17 Q1031.99 2131.38 1034.21 2129.16 Q1036.44 2126.93 1036.21 2124.11 Q1035.98 2121.27 1033.35 2118.63 Q1030.7 2115.98 1027.86 2115.77 Q1025.05 2115.54 1022.82 2117.76 M1019.03 2100.84 L1022.04 2103.85 Q1020.2 2104.51 1018.62 2105.47 Q1017.04 2106.42 1015.8 2107.66 Q1012.53 2110.94 1013 2114.88 Q1013.49 2118.81 1017.72 2123.53 Q1017.26 2121.14 1017.96 2118.93 Q1018.65 2116.7 1020.4 2114.95 Q1024.08 2111.27 1028.45 2111.38 Q1032.82 2111.46 1036.67 2115.31 Q1040.43 2119.07 1040.48 2123.57 Q1040.53 2128.08 1036.83 2131.78 Q1032.59 2136.01 1027.11 2135.02 Q1021.61 2134 1015.44 2127.83 Q1009.65 2122.04 1008.96 2115.85 Q1008.25 2109.65 1012.89 2105.01 Q1014.13 2103.77 1015.64 2102.75 Q1017.16 2101.72 1019.03 2100.84 Z" fill="#000000" fill-rule="nonzero" fill-opacity="1" /><path clip-path="url(#clip610)" d="M1047.05 2094.26 Q1049.93 2092.39 1052.86 2092.67 Q1055.8 2092.93 1058.16 2095.29 Q1061.78 2098.91 1061.27 2103.38 Q1060.76 2107.84 1056.18 2112.43 Q1054.64 2113.97 1052.69 2115.29 Q1050.78 2116.62 1048.44 2117.75 L1045.25 2114.56 Q1047.42 2113.98 1049.47 2112.76 Q1051.52 2111.53 1053.3 2109.74 Q1056.41 2106.63 1056.8 2103.79 Q1057.21 2100.92 1054.87 2098.58 Q1052.71 2096.42 1049.98 2096.73 Q1047.24 2097.01 1044.54 2099.71 L1041.7 2102.56 L1038.98 2099.84 L1041.96 2096.86 Q1044.4 2094.42 1044.72 2092.16 Q1045.03 2089.89 1043.2 2088.06 Q1041.32 2086.17 1038.98 2086.52 Q1036.64 2086.83 1034.15 2089.32 Q1032.79 2090.67 1031.53 2092.52 Q1030.27 2094.37 1029.03 2096.86 L1026.08 2093.92 Q1027.44 2091.51 1028.81 2089.61 Q1030.2 2087.7 1031.66 2086.24 Q1035.43 2082.47 1039.34 2082 Q1043.23 2081.51 1046.15 2084.42 Q1048.18 2086.45 1048.42 2089.02 Q1048.65 2091.57 1047.05 2094.26 Z" fill="#000000" fill-rule="nonzero" fill-opacity="1" /><path clip-path="url(#clip610)" d="M1059.06 2065.48 L1063.76 2086.88 L1072.11 2078.53 L1059.06 2065.48 M1055.31 2063.47 L1059.47 2059.31 L1075.4 2075.24 L1078.88 2071.75 L1081.63 2074.5 L1078.15 2077.99 L1083.91 2083.75 L1080.62 2087.04 L1074.86 2081.28 L1063.82 2092.31 L1060.63 2089.12 L1055.31 2063.47 Z" fill="#000000" fill-rule="nonzero" fill-opacity="1" /><path clip-path="url(#clip610)" d="M1425.37 2116.72 Q1423.15 2118.94 1423.36 2121.77 Q1423.59 2124.59 1426.24 2127.24 Q1428.88 2129.88 1431.71 2130.12 Q1434.54 2130.33 1436.76 2128.11 Q1438.99 2125.88 1438.76 2123.07 Q1438.53 2120.22 1435.9 2117.58 Q1433.25 2114.93 1430.41 2114.72 Q1427.6 2114.49 1425.37 2116.72 M1421.57 2099.79 L1424.59 2102.8 Q1422.75 2103.46 1421.17 2104.42 Q1419.59 2105.37 1418.35 2106.62 Q1415.08 2109.89 1415.55 2113.84 Q1416.04 2117.76 1420.27 2122.48 Q1419.81 2120.09 1420.51 2117.88 Q1421.2 2115.65 1422.95 2113.9 Q1426.63 2110.22 1431 2110.33 Q1435.37 2110.41 1439.22 2114.26 Q1442.98 2118.03 1443.03 2122.53 Q1443.08 2127.03 1439.38 2130.73 Q1435.14 2134.97 1429.66 2133.97 Q1424.16 2132.95 1417.99 2126.78 Q1412.2 2120.99 1411.51 2114.8 Q1410.8 2108.6 1415.44 2103.97 Q1416.68 2102.72 1418.19 2101.71 Q1419.71 2100.68 1421.57 2099.79 Z" fill="#000000" fill-rule="nonzero" fill-opacity="1" /><path clip-path="url(#clip610)" d="M1440.28 2085.76 L1444.98 2107.16 L1453.33 2098.81 L1440.28 2085.76 M1436.54 2083.75 L1440.69 2079.59 L1456.62 2095.52 L1460.11 2092.03 L1462.86 2094.78 L1459.37 2098.27 L1465.13 2104.03 L1461.84 2107.32 L1456.08 2101.56 L1445.05 2112.59 L1441.85 2109.4 L1436.54 2083.75 Z" fill="#000000" fill-rule="nonzero" fill-opacity="1" /><path clip-path="url(#clip610)" d="M1449.68 2070.61 L1462.66 2057.63 L1465.44 2060.41 L1455.49 2070.36 L1461.48 2076.35 Q1461.96 2075.39 1462.56 2074.55 Q1463.15 2073.7 1463.87 2072.98 Q1467.96 2068.89 1472.59 2068.74 Q1477.23 2068.59 1481.06 2072.42 Q1485 2076.37 1484.74 2081.02 Q1484.46 2085.65 1479.99 2090.12 Q1478.45 2091.66 1476.59 2093 Q1474.74 2094.32 1472.51 2095.5 L1469.19 2092.18 Q1471.46 2091.51 1473.43 2090.33 Q1475.39 2089.15 1477.14 2087.4 Q1479.98 2084.57 1480.14 2081.43 Q1480.3 2078.28 1477.75 2075.73 Q1475.2 2073.18 1472.05 2073.34 Q1468.91 2073.5 1466.08 2076.34 Q1464.75 2077.66 1463.72 2079.28 Q1462.71 2080.89 1461.96 2082.88 L1449.68 2070.61 Z" fill="#000000" fill-rule="nonzero" fill-opacity="1" /><path clip-path="url(#clip610)" d="M1826.06 2117.53 Q1823.83 2119.76 1824.04 2122.59 Q1824.27 2125.41 1826.92 2128.06 Q1829.56 2130.69 1832.39 2130.94 Q1835.22 2131.15 1837.45 2128.93 Q1839.67 2126.7 1839.45 2123.89 Q1839.22 2121.04 1836.58 2118.4 Q1833.93 2115.75 1831.1 2115.54 Q1828.28 2115.31 1826.06 2117.53 M1822.26 2100.61 L1825.27 2103.62 Q1823.44 2104.28 1821.85 2105.24 Q1820.28 2106.19 1819.03 2107.44 Q1815.76 2110.71 1816.24 2114.65 Q1816.73 2118.58 1820.95 2123.3 Q1820.49 2120.91 1821.19 2118.7 Q1821.88 2116.47 1823.63 2114.72 Q1827.32 2111.04 1831.69 2111.15 Q1836.06 2111.23 1839.9 2115.08 Q1843.67 2118.84 1843.72 2123.35 Q1843.77 2127.85 1840.07 2131.55 Q1835.83 2135.79 1830.34 2134.79 Q1824.84 2133.77 1818.67 2127.6 Q1812.88 2121.81 1812.19 2115.62 Q1811.49 2109.42 1816.12 2104.78 Q1817.36 2103.54 1818.87 2102.53 Q1820.39 2101.49 1822.26 2100.61 Z" fill="#000000" fill-rule="nonzero" fill-opacity="1" /><path clip-path="url(#clip610)" d="M1840.97 2086.58 L1845.67 2107.98 L1854.01 2099.63 L1840.97 2086.58 M1837.22 2084.57 L1841.38 2080.41 L1857.3 2096.34 L1860.79 2092.85 L1863.54 2095.6 L1860.05 2099.09 L1865.81 2104.85 L1862.52 2108.14 L1856.76 2102.38 L1845.73 2113.41 L1842.54 2110.22 L1837.22 2084.57 Z" fill="#000000" fill-rule="nonzero" fill-opacity="1" /><path clip-path="url(#clip610)" d="M1868.71 2074.88 Q1866.49 2077.11 1866.7 2079.94 Q1866.93 2082.75 1869.58 2085.4 Q1872.21 2088.04 1875.05 2088.28 Q1877.88 2088.5 1880.1 2086.27 Q1882.33 2084.05 1882.1 2081.23 Q1881.87 2078.38 1879.24 2075.75 Q1876.58 2073.1 1873.75 2072.88 Q1870.94 2072.65 1868.71 2074.88 M1864.91 2057.95 L1867.93 2060.97 Q1866.09 2061.62 1864.5 2062.59 Q1862.93 2063.54 1861.69 2064.78 Q1858.42 2068.05 1858.89 2072 Q1859.38 2075.93 1863.6 2080.64 Q1863.15 2078.25 1863.85 2076.04 Q1864.54 2073.82 1866.29 2072.06 Q1869.97 2068.38 1874.34 2068.5 Q1878.71 2068.58 1882.56 2072.42 Q1886.32 2076.19 1886.37 2080.69 Q1886.42 2085.19 1882.72 2088.89 Q1878.48 2093.13 1873 2092.13 Q1867.5 2091.12 1861.33 2084.95 Q1855.53 2079.15 1854.85 2072.96 Q1854.14 2066.76 1858.78 2062.13 Q1860.02 2060.88 1861.53 2059.87 Q1863.05 2058.84 1864.91 2057.95 Z" fill="#000000" fill-rule="nonzero" fill-opacity="1" /><path clip-path="url(#clip610)" d="M2228.8 2116.29 Q2226.58 2118.52 2226.79 2121.35 Q2227.02 2124.16 2229.67 2126.82 Q2232.3 2129.45 2235.14 2129.7 Q2237.97 2129.91 2240.19 2127.68 Q2242.42 2125.46 2242.19 2122.64 Q2241.96 2119.79 2239.33 2117.16 Q2236.68 2114.51 2233.84 2114.29 Q2231.03 2114.06 2228.8 2116.29 M2225 2099.37 L2228.02 2102.38 Q2226.18 2103.03 2224.6 2104 Q2223.02 2104.95 2221.78 2106.19 Q2218.51 2109.47 2218.98 2113.41 Q2219.47 2117.34 2223.7 2122.05 Q2223.24 2119.66 2223.94 2117.45 Q2224.63 2115.23 2226.38 2113.48 Q2230.06 2109.79 2234.43 2109.91 Q2238.8 2109.99 2242.65 2113.84 Q2246.41 2117.6 2246.46 2122.1 Q2246.51 2126.6 2242.81 2130.3 Q2238.57 2134.54 2233.09 2133.54 Q2227.59 2132.53 2221.42 2126.36 Q2215.63 2120.56 2214.94 2114.38 Q2214.23 2108.17 2218.87 2103.54 Q2220.11 2102.3 2221.62 2101.28 Q2223.14 2100.25 2225 2099.37 Z" fill="#000000" fill-rule="nonzero" fill-opacity="1" /><path clip-path="url(#clip610)" d="M2231.78 2091.51 L2244.76 2078.53 L2247.54 2081.31 L2237.59 2091.26 L2243.58 2097.25 Q2244.06 2096.29 2244.66 2095.45 Q2245.25 2094.6 2245.97 2093.88 Q2250.06 2089.79 2254.7 2089.64 Q2259.33 2089.5 2263.16 2093.33 Q2267.1 2097.27 2266.84 2101.92 Q2266.56 2106.55 2262.09 2111.02 Q2260.56 2112.56 2258.69 2113.9 Q2256.84 2115.23 2254.61 2116.41 L2251.29 2113.08 Q2253.57 2112.41 2255.53 2111.23 Q2257.5 2110.05 2259.25 2108.3 Q2262.08 2105.47 2262.24 2102.33 Q2262.41 2099.19 2259.85 2096.63 Q2257.3 2094.08 2254.16 2094.24 Q2251.01 2094.41 2248.18 2097.24 Q2246.86 2098.56 2245.82 2100.18 Q2244.81 2101.79 2244.06 2103.79 L2231.78 2091.51 Z" fill="#000000" fill-rule="nonzero" fill-opacity="1" /><path clip-path="url(#clip610)" d="M2277.58 2089.02 L2289.12 2077.48 L2291.9 2080.26 L2276.38 2095.78 L2273.6 2093 Q2273.54 2089.17 2273.5 2082.65 Q2273.47 2076.11 2273.36 2074.32 Q2273.16 2070.95 2272.55 2069.1 Q2271.95 2067.22 2270.75 2066.02 Q2268.81 2064.08 2266.2 2064.22 Q2263.62 2064.35 2261.42 2066.55 Q2259.87 2068.1 2258.67 2070.38 Q2257.5 2072.64 2256.63 2075.7 L2253.29 2072.36 Q2254.48 2069.56 2255.81 2067.42 Q2257.14 2065.27 2258.58 2063.83 Q2262.37 2060.03 2266.53 2059.67 Q2270.69 2059.31 2273.86 2062.49 Q2275.37 2063.99 2276.16 2065.93 Q2276.94 2067.82 2277.28 2071.15 Q2277.35 2072.03 2277.43 2076.5 Q2277.5 2080.95 2277.58 2089.02 Z" fill="#000000" fill-rule="nonzero" fill-opacity="1" /><path clip-path="url(#clip610)" d="M2629.17 2117.42 Q2626.95 2119.65 2627.16 2122.48 Q2627.39 2125.29 2630.04 2127.94 Q2632.68 2130.58 2635.51 2130.83 Q2638.34 2131.04 2640.57 2128.81 Q2642.79 2126.59 2642.56 2123.77 Q2642.33 2120.92 2639.7 2118.29 Q2637.05 2115.64 2634.22 2115.42 Q2631.4 2115.19 2629.17 2117.42 M2625.38 2100.5 L2628.39 2103.51 Q2626.56 2104.16 2624.97 2105.13 Q2623.4 2106.08 2622.15 2107.32 Q2618.88 2110.59 2619.35 2114.54 Q2619.85 2118.47 2624.07 2123.18 Q2623.61 2120.79 2624.31 2118.58 Q2625 2116.36 2626.75 2114.6 Q2630.44 2110.92 2634.81 2111.04 Q2639.18 2111.12 2643.02 2114.96 Q2646.79 2118.73 2646.84 2123.23 Q2646.89 2127.73 2643.19 2131.43 Q2638.95 2135.67 2633.46 2134.67 Q2627.96 2133.66 2621.79 2127.49 Q2616 2121.69 2615.31 2115.51 Q2614.61 2109.3 2619.24 2104.67 Q2620.48 2103.43 2621.99 2102.41 Q2623.51 2101.38 2625.38 2100.5 Z" fill="#000000" fill-rule="nonzero" fill-opacity="1" /><path clip-path="url(#clip610)" d="M2631.29 2093.51 L2647 2077.79 L2648.41 2079.2 L2662.57 2111.1 L2659.11 2114.56 L2645.8 2084.55 L2634.07 2096.29 L2631.29 2093.51 Z" fill="#000000" fill-rule="nonzero" fill-opacity="1" /><path clip-path="url(#clip610)" d="M2662.7 2066.45 Q2660.14 2069 2661.37 2072.82 Q2662.6 2076.6 2667.64 2081.64 Q2672.66 2086.66 2676.46 2087.91 Q2680.26 2089.12 2682.81 2086.57 Q2685.38 2084 2684.16 2080.22 Q2682.93 2076.4 2677.9 2071.38 Q2672.86 2066.34 2669.06 2065.12 Q2665.27 2063.88 2662.7 2066.45 M2660.08 2063.83 Q2664.19 2059.72 2669.6 2060.82 Q2675.02 2061.88 2681.21 2068.07 Q2687.38 2074.24 2688.46 2079.68 Q2689.54 2085.08 2685.43 2089.19 Q2681.32 2093.29 2675.91 2092.23 Q2670.49 2091.13 2664.32 2084.96 Q2658.13 2078.78 2657.05 2073.37 Q2655.97 2067.94 2660.08 2063.83 Z" fill="#000000" fill-rule="nonzero" fill-opacity="1" /><path clip-path="url(#clip610)" d="M3031.54 2116.55 Q3029.32 2118.78 3029.53 2121.61 Q3029.76 2124.43 3032.41 2127.08 Q3035.05 2129.71 3037.88 2129.96 Q3040.71 2130.17 3042.94 2127.94 Q3045.16 2125.72 3044.93 2122.9 Q3044.7 2120.06 3042.07 2117.42 Q3039.42 2114.77 3036.59 2114.56 Q3033.77 2114.33 3031.54 2116.55 M3027.75 2099.63 L3030.76 2102.64 Q3028.93 2103.29 3027.34 2104.26 Q3025.77 2105.21 3024.52 2106.45 Q3021.25 2109.73 3021.72 2113.67 Q3022.21 2117.6 3026.44 2122.31 Q3025.98 2119.92 3026.68 2117.71 Q3027.37 2115.49 3029.12 2113.74 Q3032.8 2110.05 3037.18 2110.17 Q3041.55 2110.25 3045.39 2114.1 Q3049.16 2117.86 3049.21 2122.36 Q3049.25 2126.86 3045.56 2130.56 Q3041.32 2134.8 3035.83 2133.8 Q3030.33 2132.79 3024.16 2126.62 Q3018.37 2120.82 3017.68 2114.64 Q3016.98 2108.43 3021.61 2103.8 Q3022.85 2102.56 3024.36 2101.54 Q3025.88 2100.51 3027.75 2099.63 Z" fill="#000000" fill-rule="nonzero" fill-opacity="1" /><path clip-path="url(#clip610)" d="M3033.66 2092.64 L3049.37 2076.93 L3050.78 2078.33 L3064.94 2110.23 L3061.48 2113.69 L3048.17 2083.69 L3036.44 2095.42 L3033.66 2092.64 Z" fill="#000000" fill-rule="nonzero" fill-opacity="1" /><path clip-path="url(#clip610)" d="M3078.05 2091.56 L3083.45 2086.16 L3064.8 2067.51 L3060.11 2074.57 L3057.1 2071.56 L3061.76 2064.53 L3065.07 2061.23 L3086.72 2082.88 L3092.12 2077.48 L3094.91 2080.26 L3080.83 2094.34 L3078.05 2091.56 Z" fill="#000000" fill-rule="nonzero" fill-opacity="1" /><path clip-path="url(#clip610)" d="M3432.88 2116.72 Q3430.66 2118.94 3430.87 2121.77 Q3431.1 2124.59 3433.75 2127.24 Q3436.39 2129.88 3439.22 2130.12 Q3442.05 2130.33 3444.28 2128.11 Q3446.5 2125.88 3446.27 2123.07 Q3446.04 2120.22 3443.41 2117.58 Q3440.76 2114.93 3437.92 2114.72 Q3435.11 2114.49 3432.88 2116.72 M3429.09 2099.79 L3432.1 2102.8 Q3430.26 2103.46 3428.68 2104.42 Q3427.1 2105.37 3425.86 2106.62 Q3422.59 2109.89 3423.06 2113.84 Q3423.55 2117.76 3427.78 2122.48 Q3427.32 2120.09 3428.02 2117.88 Q3428.71 2115.65 3430.46 2113.9 Q3434.14 2110.22 3438.51 2110.33 Q3442.88 2110.41 3446.73 2114.26 Q3450.5 2118.03 3450.54 2122.53 Q3450.59 2127.03 3446.89 2130.73 Q3442.65 2134.97 3437.17 2133.97 Q3431.67 2132.95 3425.5 2126.78 Q3419.71 2120.99 3419.02 2114.8 Q3418.32 2108.6 3422.95 2103.97 Q3424.19 2102.72 3425.7 2101.71 Q3427.22 2100.68 3429.09 2099.79 Z" fill="#000000" fill-rule="nonzero" fill-opacity="1" /><path clip-path="url(#clip610)" d="M3434.99 2092.8 L3450.71 2077.09 L3452.12 2078.5 L3466.27 2110.4 L3462.82 2113.85 L3449.51 2083.85 L3437.78 2095.59 L3434.99 2092.8 Z" fill="#000000" fill-rule="nonzero" fill-opacity="1" /><path clip-path="url(#clip610)" d="M3457.19 2070.61 L3470.17 2057.63 L3472.95 2060.41 L3463 2070.36 L3468.99 2076.35 Q3469.47 2075.39 3470.07 2074.55 Q3470.66 2073.7 3471.38 2072.98 Q3475.47 2068.89 3480.1 2068.74 Q3484.74 2068.59 3488.57 2072.42 Q3492.51 2076.37 3492.25 2081.02 Q3491.97 2085.65 3487.5 2090.12 Q3485.96 2091.66 3484.1 2093 Q3482.25 2094.32 3480.02 2095.5 L3476.7 2092.18 Q3478.98 2091.51 3480.94 2090.33 Q3482.9 2089.15 3484.66 2087.4 Q3487.49 2084.57 3487.65 2081.43 Q3487.81 2078.28 3485.26 2075.73 Q3482.71 2073.18 3479.56 2073.34 Q3476.42 2073.5 3473.59 2076.34 Q3472.26 2077.66 3471.23 2079.28 Q3470.22 2080.89 3469.47 2082.88 L3457.19 2070.61 Z" fill="#000000" fill-rule="nonzero" fill-opacity="1" /><path clip-path="url(#clip610)" d="M3834.81 2116.29 Q3832.58 2118.52 3832.8 2121.35 Q3833.03 2124.16 3835.68 2126.82 Q3838.31 2129.45 3841.15 2129.7 Q3843.98 2129.91 3846.2 2127.68 Q3848.43 2125.46 3848.2 2122.64 Q3847.97 2119.79 3845.34 2117.16 Q3842.68 2114.51 3839.85 2114.29 Q3837.04 2114.06 3834.81 2116.29 M3831.01 2099.37 L3834.02 2102.38 Q3832.19 2103.03 3830.6 2104 Q3829.03 2104.95 3827.79 2106.19 Q3824.52 2109.47 3824.99 2113.41 Q3825.48 2117.34 3829.7 2122.05 Q3829.25 2119.66 3829.95 2117.45 Q3830.64 2115.23 3832.39 2113.48 Q3836.07 2109.79 3840.44 2109.91 Q3844.81 2109.99 3848.66 2113.84 Q3852.42 2117.6 3852.47 2122.1 Q3852.52 2126.6 3848.82 2130.3 Q3844.58 2134.54 3839.1 2133.54 Q3833.6 2132.53 3827.43 2126.36 Q3821.63 2120.56 3820.95 2114.38 Q3820.24 2108.17 3824.88 2103.54 Q3826.12 2102.3 3827.63 2101.28 Q3829.15 2100.25 3831.01 2099.37 Z" fill="#000000" fill-rule="nonzero" fill-opacity="1" /><path clip-path="url(#clip610)" d="M3861.79 2115.37 L3858.77 2112.36 Q3860.61 2111.71 3862.19 2110.74 Q3863.78 2109.78 3865.01 2108.55 Q3868.28 2105.28 3867.81 2101.36 Q3867.33 2097.42 3863.09 2092.69 Q3863.55 2095.04 3862.85 2097.25 Q3862.15 2099.46 3860.38 2101.23 Q3856.71 2104.9 3852.36 2104.83 Q3848 2104.73 3844.16 2100.89 Q3840.39 2097.12 3840.34 2092.62 Q3840.29 2088.12 3843.99 2084.42 Q3848.23 2080.18 3853.72 2081.21 Q3859.2 2082.21 3865.39 2088.4 Q3871.16 2094.18 3871.87 2100.38 Q3872.57 2106.55 3867.94 2111.18 Q3866.7 2112.43 3865.17 2113.46 Q3863.65 2114.49 3861.79 2115.37 M3858 2098.43 Q3860.23 2096.21 3860 2093.39 Q3859.79 2090.56 3857.14 2087.91 Q3854.5 2085.27 3851.67 2085.06 Q3848.84 2084.81 3846.61 2087.04 Q3844.39 2089.27 3844.62 2092.12 Q3844.84 2094.93 3847.48 2097.57 Q3850.13 2100.22 3852.95 2100.45 Q3855.78 2100.66 3858 2098.43 Z" fill="#000000" fill-rule="nonzero" fill-opacity="1" /><path clip-path="url(#clip610)" d="M3883.59 2089.02 L3895.13 2077.48 L3897.91 2080.26 L3882.39 2095.78 L3879.61 2093 Q3879.54 2089.17 3879.51 2082.65 Q3879.48 2076.11 3879.36 2074.32 Q3879.17 2070.95 3878.56 2069.1 Q3877.96 2067.22 3876.76 2066.02 Q3874.81 2064.08 3872.21 2064.22 Q3869.63 2064.35 3867.43 2066.55 Q3865.88 2068.1 3864.68 2070.38 Q3863.5 2072.64 3862.64 2075.7 L3859.3 2072.36 Q3860.49 2069.56 3861.82 2067.42 Q3863.14 2065.27 3864.58 2063.83 Q3868.38 2060.03 3872.54 2059.67 Q3876.7 2059.31 3879.87 2062.49 Q3881.38 2063.99 3882.16 2065.93 Q3882.95 2067.82 3883.29 2071.15 Q3883.36 2072.03 3883.44 2076.5 Q3883.51 2080.95 3883.59 2089.02 Z" fill="#000000" fill-rule="nonzero" fill-opacity="1" /><path clip-path="url(#clip610)" d="M2311.21 2219.66 L2311.21 2237.07 L2321.52 2237.07 Q2326.71 2237.07 2329.19 2234.94 Q2331.7 2232.78 2331.7 2228.35 Q2331.7 2223.9 2329.19 2221.8 Q2326.71 2219.66 2321.52 2219.66 L2311.21 2219.66 M2311.21 2200.12 L2311.21 2214.44 L2320.72 2214.44 Q2325.43 2214.44 2327.72 2212.69 Q2330.05 2210.91 2330.05 2207.28 Q2330.05 2203.69 2327.72 2201.9 Q2325.43 2200.12 2320.72 2200.12 L2311.21 2200.12 M2304.78 2194.84 L2321.2 2194.84 Q2328.55 2194.84 2332.53 2197.89 Q2336.51 2200.95 2336.51 2206.58 Q2336.51 2210.94 2334.47 2213.52 Q2332.44 2216.1 2328.49 2216.74 Q2333.23 2217.75 2335.84 2221 Q2338.48 2224.22 2338.48 2229.05 Q2338.48 2235.42 2334.15 2238.89 Q2329.83 2242.36 2321.84 2242.36 L2304.78 2242.36 L2304.78 2194.84 Z" fill="#000000" fill-rule="nonzero" fill-opacity="1" /><path clip-path="url(#clip610)" d="M2348.64 2228.29 L2348.64 2206.71 L2354.49 2206.71 L2354.49 2228.07 Q2354.49 2233.13 2356.47 2235.67 Q2358.44 2238.19 2362.39 2238.19 Q2367.13 2238.19 2369.87 2235.16 Q2372.63 2232.14 2372.63 2226.92 L2372.63 2206.71 L2378.49 2206.71 L2378.49 2242.36 L2372.63 2242.36 L2372.63 2236.88 Q2370.5 2240.13 2367.67 2241.72 Q2364.87 2243.28 2361.14 2243.28 Q2355 2243.28 2351.82 2239.46 Q2348.64 2235.64 2348.64 2228.29 M2363.37 2205.85 L2363.37 2205.85 Z" fill="#000000" fill-rule="nonzero" fill-opacity="1" /><path clip-path="url(#clip610)" d="M2413.28 2207.76 L2413.28 2213.3 Q2410.8 2212.03 2408.12 2211.39 Q2405.45 2210.75 2402.59 2210.75 Q2398.22 2210.75 2396.03 2212.09 Q2393.86 2213.43 2393.86 2216.1 Q2393.86 2218.14 2395.42 2219.31 Q2396.98 2220.46 2401.69 2221.51 L2403.7 2221.96 Q2409.94 2223.29 2412.55 2225.74 Q2415.19 2228.16 2415.19 2232.52 Q2415.19 2237.49 2411.24 2240.38 Q2407.33 2243.28 2400.45 2243.28 Q2397.59 2243.28 2394.47 2242.71 Q2391.38 2242.17 2387.94 2241.05 L2387.94 2235.01 Q2391.19 2236.69 2394.34 2237.55 Q2397.49 2238.38 2400.58 2238.38 Q2404.72 2238.38 2406.95 2236.98 Q2409.17 2235.55 2409.17 2232.97 Q2409.17 2230.58 2407.55 2229.31 Q2405.96 2228.04 2400.52 2226.86 L2398.48 2226.38 Q2393.04 2225.23 2390.62 2222.88 Q2388.2 2220.49 2388.2 2216.35 Q2388.2 2211.33 2391.76 2208.59 Q2395.33 2205.85 2401.89 2205.85 Q2405.13 2205.85 2408 2206.33 Q2410.86 2206.81 2413.28 2207.76 Z" fill="#000000" fill-rule="nonzero" fill-opacity="1" /><polyline clip-path="url(#clip610)" style="stroke:#000000; stroke-linecap:round; stroke-linejoin:round; stroke-width:4; stroke-opacity:1; fill:none" points="389.15,2004.92 389.15,164.864 "/>
<polyline clip-path="url(#clip610)" style="stroke:#000000; stroke-linecap:round; stroke-linejoin:round; stroke-width:4; stroke-opacity:1; fill:none" points="389.15,2004.92 404.463,2004.92 "/>
<polyline clip-path="url(#clip610)" style="stroke:#000000; stroke-linecap:round; stroke-linejoin:round; stroke-width:4; stroke-opacity:1; fill:none" points="389.15,1636.91 404.463,1636.91 "/>
<polyline clip-path="url(#clip610)" style="stroke:#000000; stroke-linecap:round; stroke-linejoin:round; stroke-width:4; stroke-opacity:1; fill:none" points="389.15,1268.9 404.463,1268.9 "/>
<polyline clip-path="url(#clip610)" style="stroke:#000000; stroke-linecap:round; stroke-linejoin:round; stroke-width:4; stroke-opacity:1; fill:none" points="389.15,900.886 404.463,900.886 "/>
<polyline clip-path="url(#clip610)" style="stroke:#000000; stroke-linecap:round; stroke-linejoin:round; stroke-width:4; stroke-opacity:1; fill:none" points="389.15,532.875 404.463,532.875 "/>
<polyline clip-path="url(#clip610)" style="stroke:#000000; stroke-linecap:round; stroke-linejoin:round; stroke-width:4; stroke-opacity:1; fill:none" points="389.15,164.864 404.463,164.864 "/>
<path clip-path="url(#clip610)" d="M293.206 1990.72 Q289.595 1990.72 287.766 1994.28 Q285.96 1997.82 285.96 2004.95 Q285.96 2012.06 287.766 2015.62 Q289.595 2019.17 293.206 2019.17 Q296.84 2019.17 298.646 2015.62 Q300.474 2012.06 300.474 2004.95 Q300.474 1997.82 298.646 1994.28 Q296.84 1990.72 293.206 1990.72 M293.206 1987.01 Q299.016 1987.01 302.072 1991.62 Q305.15 1996.2 305.15 2004.95 Q305.15 2013.68 302.072 2018.29 Q299.016 2022.87 293.206 2022.87 Q287.396 2022.87 284.317 2018.29 Q281.261 2013.68 281.261 2004.95 Q281.261 1996.2 284.317 1991.62 Q287.396 1987.01 293.206 1987.01 Z" fill="#000000" fill-rule="nonzero" fill-opacity="1" /><path clip-path="url(#clip610)" d="M257.072 1650.25 L273.391 1650.25 L273.391 1654.19 L251.447 1654.19 L251.447 1650.25 Q254.109 1647.5 258.692 1642.87 Q263.299 1638.21 264.479 1636.87 Q266.724 1634.35 267.604 1632.61 Q268.507 1630.85 268.507 1629.16 Q268.507 1626.41 266.562 1624.67 Q264.641 1622.94 261.539 1622.94 Q259.34 1622.94 256.887 1623.7 Q254.456 1624.46 251.678 1626.02 L251.678 1621.29 Q254.502 1620.16 256.956 1619.58 Q259.41 1619 261.447 1619 Q266.817 1619 270.012 1621.69 Q273.206 1624.37 273.206 1628.86 Q273.206 1630.99 272.396 1632.91 Q271.609 1634.81 269.502 1637.4 Q268.924 1638.08 265.822 1641.29 Q262.72 1644.49 257.072 1650.25 Z" fill="#000000" fill-rule="nonzero" fill-opacity="1" /><path clip-path="url(#clip610)" d="M293.206 1622.71 Q289.595 1622.71 287.766 1626.27 Q285.96 1629.81 285.96 1636.94 Q285.96 1644.05 287.766 1647.61 Q289.595 1651.15 293.206 1651.15 Q296.84 1651.15 298.646 1647.61 Q300.474 1644.05 300.474 1636.94 Q300.474 1629.81 298.646 1626.27 Q296.84 1622.71 293.206 1622.71 M293.206 1619 Q299.016 1619 302.072 1623.61 Q305.15 1628.19 305.15 1636.94 Q305.15 1645.67 302.072 1650.27 Q299.016 1654.86 293.206 1654.86 Q287.396 1654.86 284.317 1650.27 Q281.261 1645.67 281.261 1636.94 Q281.261 1628.19 284.317 1623.61 Q287.396 1619 293.206 1619 Z" fill="#000000" fill-rule="nonzero" fill-opacity="1" /><path clip-path="url(#clip610)" d="M265.891 1255.69 L254.086 1274.14 L265.891 1274.14 L265.891 1255.69 M264.664 1251.62 L270.544 1251.62 L270.544 1274.14 L275.474 1274.14 L275.474 1278.03 L270.544 1278.03 L270.544 1286.18 L265.891 1286.18 L265.891 1278.03 L250.289 1278.03 L250.289 1273.51 L264.664 1251.62 Z" fill="#000000" fill-rule="nonzero" fill-opacity="1" /><path clip-path="url(#clip610)" d="M293.206 1254.69 Q289.595 1254.69 287.766 1258.26 Q285.96 1261.8 285.96 1268.93 Q285.96 1276.04 287.766 1279.6 Q289.595 1283.14 293.206 1283.14 Q296.84 1283.14 298.646 1279.6 Q300.474 1276.04 300.474 1268.93 Q300.474 1261.8 298.646 1258.26 Q296.84 1254.69 293.206 1254.69 M293.206 1250.99 Q299.016 1250.99 302.072 1255.6 Q305.15 1260.18 305.15 1268.93 Q305.15 1277.66 302.072 1282.26 Q299.016 1286.85 293.206 1286.85 Q287.396 1286.85 284.317 1282.26 Q281.261 1277.66 281.261 1268.93 Q281.261 1260.18 284.317 1255.6 Q287.396 1250.99 293.206 1250.99 Z" fill="#000000" fill-rule="nonzero" fill-opacity="1" /><path clip-path="url(#clip610)" d="M263.623 899.022 Q260.475 899.022 258.623 901.175 Q256.794 903.328 256.794 907.078 Q256.794 910.804 258.623 912.98 Q260.475 915.133 263.623 915.133 Q266.771 915.133 268.599 912.98 Q270.451 910.804 270.451 907.078 Q270.451 903.328 268.599 901.175 Q266.771 899.022 263.623 899.022 M272.905 884.369 L272.905 888.629 Q271.146 887.795 269.34 887.356 Q267.558 886.916 265.799 886.916 Q261.169 886.916 258.715 890.041 Q256.285 893.166 255.938 899.485 Q257.303 897.471 259.363 896.406 Q261.424 895.318 263.9 895.318 Q269.109 895.318 272.118 898.49 Q275.15 901.638 275.15 907.078 Q275.15 912.402 272.002 915.619 Q268.854 918.837 263.623 918.837 Q257.627 918.837 254.456 914.254 Q251.285 909.647 251.285 900.92 Q251.285 892.726 255.174 887.865 Q259.062 882.981 265.613 882.981 Q267.373 882.981 269.155 883.328 Q270.961 883.675 272.905 884.369 Z" fill="#000000" fill-rule="nonzero" fill-opacity="1" /><path clip-path="url(#clip610)" d="M293.206 886.684 Q289.595 886.684 287.766 890.249 Q285.96 893.791 285.96 900.92 Q285.96 908.027 287.766 911.592 Q289.595 915.133 293.206 915.133 Q296.84 915.133 298.646 911.592 Q300.474 908.027 300.474 900.92 Q300.474 893.791 298.646 890.249 Q296.84 886.684 293.206 886.684 M293.206 882.981 Q299.016 882.981 302.072 887.587 Q305.15 892.17 305.15 900.92 Q305.15 909.647 302.072 914.254 Q299.016 918.837 293.206 918.837 Q287.396 918.837 284.317 914.254 Q281.261 909.647 281.261 900.92 Q281.261 892.17 284.317 887.587 Q287.396 882.981 293.206 882.981 Z" fill="#000000" fill-rule="nonzero" fill-opacity="1" /><path clip-path="url(#clip610)" d="M263.044 533.743 Q259.711 533.743 257.789 535.525 Q255.891 537.308 255.891 540.433 Q255.891 543.558 257.789 545.34 Q259.711 547.123 263.044 547.123 Q266.377 547.123 268.299 545.34 Q270.22 543.535 270.22 540.433 Q270.22 537.308 268.299 535.525 Q266.4 533.743 263.044 533.743 M258.368 531.752 Q255.359 531.011 253.669 528.951 Q252.002 526.891 252.002 523.928 Q252.002 519.785 254.942 517.377 Q257.905 514.97 263.044 514.97 Q268.206 514.97 271.146 517.377 Q274.086 519.785 274.086 523.928 Q274.086 526.891 272.396 528.951 Q270.729 531.011 267.743 531.752 Q271.123 532.539 272.998 534.831 Q274.896 537.123 274.896 540.433 Q274.896 545.456 271.817 548.141 Q268.762 550.826 263.044 550.826 Q257.326 550.826 254.248 548.141 Q251.192 545.456 251.192 540.433 Q251.192 537.123 253.09 534.831 Q254.988 532.539 258.368 531.752 M256.655 524.368 Q256.655 527.053 258.322 528.558 Q260.012 530.062 263.044 530.062 Q266.053 530.062 267.743 528.558 Q269.456 527.053 269.456 524.368 Q269.456 521.683 267.743 520.178 Q266.053 518.674 263.044 518.674 Q260.012 518.674 258.322 520.178 Q256.655 521.683 256.655 524.368 Z" fill="#000000" fill-rule="nonzero" fill-opacity="1" /><path clip-path="url(#clip610)" d="M293.206 518.674 Q289.595 518.674 287.766 522.238 Q285.96 525.78 285.96 532.91 Q285.96 540.016 287.766 543.581 Q289.595 547.123 293.206 547.123 Q296.84 547.123 298.646 543.581 Q300.474 540.016 300.474 532.91 Q300.474 525.78 298.646 522.238 Q296.84 518.674 293.206 518.674 M293.206 514.97 Q299.016 514.97 302.072 519.576 Q305.15 524.16 305.15 532.91 Q305.15 541.636 302.072 546.243 Q299.016 550.826 293.206 550.826 Q287.396 550.826 284.317 546.243 Q281.261 541.636 281.261 532.91 Q281.261 524.16 284.317 519.576 Q287.396 514.97 293.206 514.97 Z" fill="#000000" fill-rule="nonzero" fill-opacity="1" /><path clip-path="url(#clip610)" d="M223.692 178.209 L231.331 178.209 L231.331 151.843 L223.021 153.51 L223.021 149.251 L231.285 147.584 L235.961 147.584 L235.961 178.209 L243.6 178.209 L243.6 182.144 L223.692 182.144 L223.692 178.209 Z" fill="#000000" fill-rule="nonzero" fill-opacity="1" /><path clip-path="url(#clip610)" d="M263.044 150.663 Q259.433 150.663 257.604 154.228 Q255.799 157.769 255.799 164.899 Q255.799 172.005 257.604 175.57 Q259.433 179.112 263.044 179.112 Q266.678 179.112 268.484 175.57 Q270.312 172.005 270.312 164.899 Q270.312 157.769 268.484 154.228 Q266.678 150.663 263.044 150.663 M263.044 146.959 Q268.854 146.959 271.91 151.566 Q274.988 156.149 274.988 164.899 Q274.988 173.626 271.91 178.232 Q268.854 182.816 263.044 182.816 Q257.234 182.816 254.155 178.232 Q251.1 173.626 251.1 164.899 Q251.1 156.149 254.155 151.566 Q257.234 146.959 263.044 146.959 Z" fill="#000000" fill-rule="nonzero" fill-opacity="1" /><path clip-path="url(#clip610)" d="M293.206 150.663 Q289.595 150.663 287.766 154.228 Q285.96 157.769 285.96 164.899 Q285.96 172.005 287.766 175.57 Q289.595 179.112 293.206 179.112 Q296.84 179.112 298.646 175.57 Q300.474 172.005 300.474 164.899 Q300.474 157.769 298.646 154.228 Q296.84 150.663 293.206 150.663 M293.206 146.959 Q299.016 146.959 302.072 151.566 Q305.15 156.149 305.15 164.899 Q305.15 173.626 302.072 178.232 Q299.016 182.816 293.206 182.816 Q287.396 182.816 284.317 178.232 Q281.261 173.626 281.261 164.899 Q281.261 156.149 284.317 151.566 Q287.396 146.959 293.206 146.959 Z" fill="#000000" fill-rule="nonzero" fill-opacity="1" /><path clip-path="url(#clip610)" d="M77.245 1316.28 L77.245 1309.85 L119.354 1309.85 L119.354 1286.72 L124.765 1286.72 L124.765 1316.28 L77.245 1316.28 Z" fill="#000000" fill-rule="nonzero" fill-opacity="1" /><path clip-path="url(#clip610)" d="M93.2229 1267.55 Q93.2229 1272.27 96.915 1275 Q100.575 1277.74 106.973 1277.74 Q113.37 1277.74 117.063 1275.03 Q120.723 1272.3 120.723 1267.55 Q120.723 1262.88 117.031 1260.14 Q113.339 1257.4 106.973 1257.4 Q100.639 1257.4 96.9469 1260.14 Q93.2229 1262.88 93.2229 1267.55 M88.2577 1267.55 Q88.2577 1259.92 93.2229 1255.56 Q98.1882 1251.19 106.973 1251.19 Q115.726 1251.19 120.723 1255.56 Q125.688 1259.92 125.688 1267.55 Q125.688 1275.23 120.723 1279.59 Q115.726 1283.91 106.973 1283.91 Q98.1882 1283.91 93.2229 1279.59 Q88.2577 1275.23 88.2577 1267.55 Z" fill="#000000" fill-rule="nonzero" fill-opacity="1" /><path clip-path="url(#clip610)" d="M106.846 1225.29 Q106.846 1232.38 108.469 1235.12 Q110.092 1237.86 114.007 1237.86 Q117.126 1237.86 118.972 1235.82 Q120.786 1233.75 120.786 1230.22 Q120.786 1225.35 117.349 1222.42 Q113.88 1219.46 108.151 1219.46 L106.846 1219.46 L106.846 1225.29 M104.427 1213.61 L124.765 1213.61 L124.765 1219.46 L119.354 1219.46 Q122.601 1221.47 124.16 1224.46 Q125.688 1227.45 125.688 1231.78 Q125.688 1237.25 122.633 1240.5 Q119.545 1243.72 114.389 1243.72 Q108.373 1243.72 105.318 1239.7 Q102.262 1235.66 102.262 1227.67 L102.262 1219.46 L101.689 1219.46 Q97.6471 1219.46 95.4509 1222.14 Q93.2229 1224.78 93.2229 1229.58 Q93.2229 1232.64 93.955 1235.54 Q94.687 1238.43 96.1512 1241.11 L90.7403 1241.11 Q89.499 1237.89 88.8943 1234.87 Q88.2577 1231.84 88.2577 1228.98 Q88.2577 1221.24 92.2681 1217.42 Q96.2785 1213.61 104.427 1213.61 Z" fill="#000000" fill-rule="nonzero" fill-opacity="1" /><path clip-path="url(#clip610)" d="M94.5279 1178.08 L75.2398 1178.08 L75.2398 1172.23 L124.765 1172.23 L124.765 1178.08 L119.418 1178.08 Q122.601 1179.93 124.16 1182.76 Q125.688 1185.56 125.688 1189.51 Q125.688 1195.97 120.532 1200.05 Q115.376 1204.09 106.973 1204.09 Q98.5701 1204.09 93.4139 1200.05 Q88.2577 1195.97 88.2577 1189.51 Q88.2577 1185.56 89.8173 1182.76 Q91.3451 1179.93 94.5279 1178.08 M106.973 1198.04 Q113.434 1198.04 117.126 1195.4 Q120.786 1192.73 120.786 1188.08 Q120.786 1183.43 117.126 1180.76 Q113.434 1178.08 106.973 1178.08 Q100.512 1178.08 96.8514 1180.76 Q93.1593 1183.43 93.1593 1188.08 Q93.1593 1192.73 96.8514 1195.4 Q100.512 1198.04 106.973 1198.04 Z" fill="#000000" fill-rule="nonzero" fill-opacity="1" /><path clip-path="url(#clip610)" d="M78.8046 1110.7 L85.0748 1110.7 Q83.3243 1114.36 82.4649 1117.61 Q81.6055 1120.86 81.6055 1123.88 Q81.6055 1129.13 83.6425 1132 Q85.6796 1134.83 89.4353 1134.83 Q92.5864 1134.83 94.2096 1132.95 Q95.801 1131.04 96.7877 1125.76 L97.5834 1121.88 Q98.9521 1114.68 102.421 1111.28 Q105.859 1107.84 111.652 1107.84 Q118.558 1107.84 122.123 1112.49 Q125.688 1117.1 125.688 1126.05 Q125.688 1129.42 124.924 1133.24 Q124.16 1137.03 122.664 1141.1 L116.044 1141.1 Q118.24 1137.19 119.354 1133.43 Q120.468 1129.67 120.468 1126.05 Q120.468 1120.54 118.304 1117.55 Q116.139 1114.56 112.129 1114.56 Q108.628 1114.56 106.655 1116.72 Q104.681 1118.85 103.695 1123.75 L102.931 1127.67 Q101.498 1134.86 98.4428 1138.08 Q95.3873 1141.29 89.9446 1141.29 Q83.6425 1141.29 80.0141 1136.87 Q76.3856 1132.41 76.3856 1124.61 Q76.3856 1121.27 76.9904 1117.8 Q77.5951 1114.33 78.8046 1110.7 Z" fill="#000000" fill-rule="nonzero" fill-opacity="1" /><path clip-path="url(#clip610)" d="M103.249 1068.44 L124.765 1068.44 L124.765 1074.29 L103.44 1074.29 Q98.3792 1074.29 95.8647 1076.27 Q93.3503 1078.24 93.3503 1082.19 Q93.3503 1086.93 96.374 1089.67 Q99.3977 1092.4 104.618 1092.4 L124.765 1092.4 L124.765 1098.29 L75.2398 1098.29 L75.2398 1092.4 L94.6552 1092.4 Q91.4405 1090.3 89.8491 1087.47 Q88.2577 1084.6 88.2577 1080.88 Q88.2577 1074.74 92.0771 1071.59 Q95.8647 1068.44 103.249 1068.44 Z" fill="#000000" fill-rule="nonzero" fill-opacity="1" /><path clip-path="url(#clip610)" d="M105.477 1026.26 L108.341 1026.26 L108.341 1053.19 Q114.389 1052.81 117.572 1049.56 Q120.723 1046.28 120.723 1040.46 Q120.723 1037.08 119.895 1033.93 Q119.068 1030.75 117.413 1027.63 L122.951 1027.63 Q124.288 1030.78 124.988 1034.09 Q125.688 1037.4 125.688 1040.81 Q125.688 1049.34 120.723 1054.34 Q115.758 1059.3 107.291 1059.3 Q98.5383 1059.3 93.4139 1054.59 Q88.2577 1049.85 88.2577 1041.83 Q88.2577 1034.63 92.9047 1030.46 Q97.5198 1026.26 105.477 1026.26 M103.758 1032.12 Q98.9521 1032.18 96.0875 1034.82 Q93.2229 1037.43 93.2229 1041.76 Q93.2229 1046.66 95.992 1049.62 Q98.7611 1052.55 103.79 1053 L103.758 1032.12 Z" fill="#000000" fill-rule="nonzero" fill-opacity="1" /><path clip-path="url(#clip610)" d="M94.5279 993.193 L75.2398 993.193 L75.2398 987.336 L124.765 987.336 L124.765 993.193 L119.418 993.193 Q122.601 995.039 124.16 997.872 Q125.688 1000.67 125.688 1004.62 Q125.688 1011.08 120.532 1015.15 Q115.376 1019.2 106.973 1019.2 Q98.5701 1019.2 93.4139 1015.15 Q88.2577 1011.08 88.2577 1004.62 Q88.2577 1000.67 89.8173 997.872 Q91.3451 995.039 94.5279 993.193 M106.973 1013.15 Q113.434 1013.15 117.126 1010.51 Q120.786 1007.83 120.786 1003.19 Q120.786 998.54 117.126 995.866 Q113.434 993.193 106.973 993.193 Q100.512 993.193 96.8514 995.866 Q93.1593 998.54 93.1593 1003.19 Q93.1593 1007.83 96.8514 1010.51 Q100.512 1013.15 106.973 1013.15 Z" fill="#000000" fill-rule="nonzero" fill-opacity="1" /><path clip-path="url(#clip610)" d="M75.3035 940.485 Q82.624 944.75 89.7855 946.819 Q96.9469 948.888 104.299 948.888 Q111.652 948.888 118.877 946.819 Q126.07 944.718 133.359 940.485 L133.359 945.577 Q125.879 950.352 118.654 952.739 Q111.429 955.094 104.299 955.094 Q97.2015 955.094 90.0083 952.739 Q82.815 950.383 75.3035 945.577 L75.3035 940.485 Z" fill="#000000" fill-rule="nonzero" fill-opacity="1" /><path clip-path="url(#clip610)" d="M103.854 887.872 Q103.854 890.641 106.209 892.233 Q108.564 893.792 112.766 893.792 Q116.903 893.792 119.291 892.233 Q121.646 890.641 121.646 887.872 Q121.646 885.167 119.291 883.607 Q116.903 882.016 112.766 882.016 Q108.596 882.016 106.241 883.607 Q103.854 885.167 103.854 887.872 M99.8114 887.872 Q99.8114 882.843 103.313 879.883 Q106.814 876.923 112.766 876.923 Q118.718 876.923 122.219 879.915 Q125.688 882.875 125.688 887.872 Q125.688 892.965 122.219 895.925 Q118.718 898.885 112.766 898.885 Q106.782 898.885 103.313 895.925 Q99.8114 892.933 99.8114 887.872 M80.4279 920.719 Q80.4279 923.457 82.815 925.048 Q85.1703 926.608 89.308 926.608 Q93.5094 926.608 95.8647 925.048 Q98.22 923.488 98.22 920.719 Q98.22 917.95 95.8647 916.391 Q93.5094 914.799 89.308 914.799 Q85.2021 914.799 82.815 916.391 Q80.4279 917.982 80.4279 920.719 M76.3856 891.978 L76.3856 886.886 L125.688 916.613 L125.688 921.706 L76.3856 891.978 M76.3856 920.719 Q76.3856 915.69 79.8868 912.699 Q83.3561 909.707 89.308 909.707 Q95.3236 909.707 98.7929 912.699 Q102.262 915.659 102.262 920.719 Q102.262 925.78 98.7929 928.74 Q95.2918 931.668 89.308 931.668 Q83.3879 931.668 79.8868 928.708 Q76.3856 925.748 76.3856 920.719 Z" fill="#000000" fill-rule="nonzero" fill-opacity="1" /><path clip-path="url(#clip610)" d="M75.3035 868.107 L75.3035 863.014 Q82.815 858.24 90.0083 855.885 Q97.2015 853.497 104.299 853.497 Q111.429 853.497 118.654 855.885 Q125.879 858.24 133.359 863.014 L133.359 868.107 Q126.07 863.874 118.877 861.805 Q111.652 859.704 104.299 859.704 Q96.9469 859.704 89.7855 861.805 Q82.624 863.874 75.3035 868.107 Z" fill="#000000" fill-rule="nonzero" fill-opacity="1" /><path clip-path="url(#clip610)" d="M1490.72 12.096 L1498.9 12.096 L1498.9 65.6895 L1528.35 65.6895 L1528.35 72.576 L1490.72 72.576 L1490.72 12.096 Z" fill="#000000" fill-rule="nonzero" fill-opacity="1" /><path clip-path="url(#clip610)" d="M1552.74 32.4315 Q1546.74 32.4315 1543.26 37.1306 Q1539.78 41.7891 1539.78 49.9314 Q1539.78 58.0738 1543.22 62.7728 Q1546.7 67.4314 1552.74 67.4314 Q1558.69 67.4314 1562.18 62.7323 Q1565.66 58.0333 1565.66 49.9314 Q1565.66 41.8701 1562.18 37.1711 Q1558.69 32.4315 1552.74 32.4315 M1552.74 26.1121 Q1562.46 26.1121 1568.01 32.4315 Q1573.56 38.7509 1573.56 49.9314 Q1573.56 61.0714 1568.01 67.4314 Q1562.46 73.7508 1552.74 73.7508 Q1542.98 73.7508 1537.43 67.4314 Q1531.92 61.0714 1531.92 49.9314 Q1531.92 38.7509 1537.43 32.4315 Q1542.98 26.1121 1552.74 26.1121 Z" fill="#000000" fill-rule="nonzero" fill-opacity="1" /><path clip-path="url(#clip610)" d="M1606.53 49.7694 Q1597.5 49.7694 1594.02 51.8354 Q1590.53 53.9013 1590.53 58.8839 Q1590.53 62.8538 1593.13 65.2034 Q1595.76 67.5124 1600.26 67.5124 Q1606.45 67.5124 1610.18 63.1374 Q1613.95 58.7219 1613.95 51.4303 L1613.95 49.7694 L1606.53 49.7694 M1621.4 46.6907 L1621.4 72.576 L1613.95 72.576 L1613.95 65.6895 Q1611.4 69.8214 1607.59 71.8063 Q1603.78 73.7508 1598.27 73.7508 Q1591.3 73.7508 1587.17 69.8619 Q1583.08 65.9325 1583.08 59.3701 Q1583.08 51.7138 1588.18 47.825 Q1593.33 43.9361 1603.5 43.9361 L1613.95 43.9361 L1613.95 43.2069 Q1613.95 38.0623 1610.55 35.2672 Q1607.18 32.4315 1601.07 32.4315 Q1597.18 32.4315 1593.49 33.3632 Q1589.8 34.295 1586.4 36.1584 L1586.4 29.2718 Q1590.49 27.692 1594.34 26.9223 Q1598.19 26.1121 1601.84 26.1121 Q1611.68 26.1121 1616.54 31.2163 Q1621.4 36.3204 1621.4 46.6907 Z" fill="#000000" fill-rule="nonzero" fill-opacity="1" /><path clip-path="url(#clip610)" d="M1666.61 34.0924 L1666.61 9.54393 L1674.06 9.54393 L1674.06 72.576 L1666.61 72.576 L1666.61 65.7705 Q1664.26 69.8214 1660.66 71.8063 Q1657.09 73.7508 1652.07 73.7508 Q1643.84 73.7508 1638.66 67.1883 Q1633.51 60.6258 1633.51 49.9314 Q1633.51 39.2371 1638.66 32.6746 Q1643.84 26.1121 1652.07 26.1121 Q1657.09 26.1121 1660.66 28.0971 Q1664.26 30.0415 1666.61 34.0924 M1641.21 49.9314 Q1641.21 58.1548 1644.57 62.8538 Q1647.98 67.5124 1653.89 67.5124 Q1659.8 67.5124 1663.21 62.8538 Q1666.61 58.1548 1666.61 49.9314 Q1666.61 41.7081 1663.21 37.0496 Q1659.8 32.3505 1653.89 32.3505 Q1647.98 32.3505 1644.57 37.0496 Q1641.21 41.7081 1641.21 49.9314 Z" fill="#000000" fill-rule="nonzero" fill-opacity="1" /><path clip-path="url(#clip610)" d="M1752.37 14.0809 L1752.37 22.0612 Q1747.71 19.8332 1743.58 18.7395 Q1739.45 17.6457 1735.6 17.6457 Q1728.91 17.6457 1725.27 20.2383 Q1721.66 22.8309 1721.66 27.611 Q1721.66 31.6214 1724.05 33.6873 Q1726.48 35.7128 1733.21 36.9686 L1738.15 37.9813 Q1747.3 39.7232 1751.64 44.1387 Q1756.01 48.5136 1756.01 55.8863 Q1756.01 64.6767 1750.1 69.2137 Q1744.23 73.7508 1732.84 73.7508 Q1728.55 73.7508 1723.69 72.7785 Q1718.87 71.8063 1713.68 69.9024 L1713.68 61.4765 Q1718.66 64.2716 1723.44 65.6895 Q1728.22 67.1073 1732.84 67.1073 Q1739.85 67.1073 1743.66 64.3527 Q1747.47 61.598 1747.47 56.4939 Q1747.47 52.0379 1744.71 49.5264 Q1742 47.0148 1735.76 45.759 L1730.78 44.7868 Q1721.62 42.9639 1717.53 39.075 Q1713.44 35.1862 1713.44 28.2591 Q1713.44 20.2383 1719.07 15.6203 Q1724.74 11.0023 1734.67 11.0023 Q1738.92 11.0023 1743.33 11.7719 Q1747.75 12.5416 1752.37 14.0809 Z" fill="#000000" fill-rule="nonzero" fill-opacity="1" /><path clip-path="url(#clip610)" d="M1806.16 45.1919 L1806.16 72.576 L1798.71 72.576 L1798.71 45.4349 Q1798.71 38.994 1796.2 35.7938 Q1793.69 32.5936 1788.66 32.5936 Q1782.63 32.5936 1779.14 36.4419 Q1775.66 40.2903 1775.66 46.9338 L1775.66 72.576 L1768.17 72.576 L1768.17 9.54393 L1775.66 9.54393 L1775.66 34.2544 Q1778.33 30.163 1781.94 28.1376 Q1785.58 26.1121 1790.32 26.1121 Q1798.14 26.1121 1802.15 30.9732 Q1806.16 35.7938 1806.16 45.1919 Z" fill="#000000" fill-rule="nonzero" fill-opacity="1" /><path clip-path="url(#clip610)" d="M1859.84 48.0275 L1859.84 51.6733 L1825.57 51.6733 Q1826.05 59.3701 1830.19 63.421 Q1834.36 67.4314 1841.77 67.4314 Q1846.06 67.4314 1850.08 66.3781 Q1854.13 65.3249 1858.1 63.2184 L1858.1 70.267 Q1854.09 71.9684 1849.87 72.8596 Q1845.66 73.7508 1841.33 73.7508 Q1830.47 73.7508 1824.11 67.4314 Q1817.79 61.1119 1817.79 50.3365 Q1817.79 39.1965 1823.78 32.6746 Q1829.82 26.1121 1840.03 26.1121 Q1849.18 26.1121 1854.49 32.0264 Q1859.84 37.9003 1859.84 48.0275 M1852.38 45.84 Q1852.3 39.7232 1848.94 36.0774 Q1845.62 32.4315 1840.11 32.4315 Q1833.87 32.4315 1830.1 35.9558 Q1826.38 39.4801 1825.81 45.8805 L1852.38 45.84 Z" fill="#000000" fill-rule="nonzero" fill-opacity="1" /><path clip-path="url(#clip610)" d="M1901.93 34.0924 L1901.93 9.54393 L1909.38 9.54393 L1909.38 72.576 L1901.93 72.576 L1901.93 65.7705 Q1899.58 69.8214 1895.97 71.8063 Q1892.41 73.7508 1887.38 73.7508 Q1879.16 73.7508 1873.98 67.1883 Q1868.83 60.6258 1868.83 49.9314 Q1868.83 39.2371 1873.98 32.6746 Q1879.16 26.1121 1887.38 26.1121 Q1892.41 26.1121 1895.97 28.0971 Q1899.58 30.0415 1901.93 34.0924 M1876.53 49.9314 Q1876.53 58.1548 1879.89 62.8538 Q1883.29 67.5124 1889.21 67.5124 Q1895.12 67.5124 1898.52 62.8538 Q1901.93 58.1548 1901.93 49.9314 Q1901.93 41.7081 1898.52 37.0496 Q1895.12 32.3505 1889.21 32.3505 Q1883.29 32.3505 1879.89 37.0496 Q1876.53 41.7081 1876.53 49.9314 Z" fill="#000000" fill-rule="nonzero" fill-opacity="1" /><path clip-path="url(#clip610)" d="M1959.61 18.8205 L1959.61 41.5461 L1969.9 41.5461 Q1975.61 41.5461 1978.73 38.5889 Q1981.85 35.6318 1981.85 30.163 Q1981.85 24.7348 1978.73 21.7777 Q1975.61 18.8205 1969.9 18.8205 L1959.61 18.8205 M1951.43 12.096 L1969.9 12.096 Q1980.07 12.096 1985.25 16.714 Q1990.48 21.2916 1990.48 30.163 Q1990.48 39.1155 1985.25 43.6931 Q1980.07 48.2706 1969.9 48.2706 L1959.61 48.2706 L1959.61 72.576 L1951.43 72.576 L1951.43 12.096 Z" fill="#000000" fill-rule="nonzero" fill-opacity="1" /><path clip-path="url(#clip610)" d="M2036.98 48.0275 L2036.98 51.6733 L2002.71 51.6733 Q2003.2 59.3701 2007.33 63.421 Q2011.5 67.4314 2018.92 67.4314 Q2023.21 67.4314 2027.22 66.3781 Q2031.27 65.3249 2035.24 63.2184 L2035.24 70.267 Q2031.23 71.9684 2027.02 72.8596 Q2022.81 73.7508 2018.47 73.7508 Q2007.61 73.7508 2001.26 67.4314 Q1994.94 61.1119 1994.94 50.3365 Q1994.94 39.1965 2000.93 32.6746 Q2006.97 26.1121 2017.18 26.1121 Q2026.33 26.1121 2031.64 32.0264 Q2036.98 37.9003 2036.98 48.0275 M2029.53 45.84 Q2029.45 39.7232 2026.09 36.0774 Q2022.77 32.4315 2017.26 32.4315 Q2011.02 32.4315 2007.25 35.9558 Q2003.52 39.4801 2002.96 45.8805 L2029.53 45.84 Z" fill="#000000" fill-rule="nonzero" fill-opacity="1" /><path clip-path="url(#clip610)" d="M2075.51 34.1734 Q2074.25 33.4443 2072.75 33.1202 Q2071.3 32.7556 2069.51 32.7556 Q2063.19 32.7556 2059.79 36.8875 Q2056.43 40.9789 2056.43 48.6757 L2056.43 72.576 L2048.93 72.576 L2048.93 27.2059 L2056.43 27.2059 L2056.43 34.2544 Q2058.78 30.1225 2062.55 28.1376 Q2066.31 26.1121 2071.7 26.1121 Q2072.47 26.1121 2073.4 26.2337 Q2074.33 26.3147 2075.47 26.5172 L2075.51 34.1734 Z" fill="#000000" fill-rule="nonzero" fill-opacity="1" /><path clip-path="url(#clip610)" d="M2118.2 43.6931 L2118.2 65.8515 L2131.33 65.8515 Q2137.93 65.8515 2141.09 63.1374 Q2144.29 60.3828 2144.29 54.752 Q2144.29 49.0808 2141.09 46.4072 Q2137.93 43.6931 2131.33 43.6931 L2118.2 43.6931 M2118.2 18.8205 L2118.2 37.0496 L2130.32 37.0496 Q2136.31 37.0496 2139.23 34.8216 Q2142.19 32.5531 2142.19 27.935 Q2142.19 23.3575 2139.23 21.089 Q2136.31 18.8205 2130.32 18.8205 L2118.2 18.8205 M2110.02 12.096 L2130.92 12.096 Q2140.28 12.096 2145.35 15.9849 Q2150.41 19.8737 2150.41 27.0438 Q2150.41 32.5936 2147.82 35.8748 Q2145.22 39.156 2140.2 39.9662 Q2146.24 41.2625 2149.56 45.3944 Q2152.92 49.4858 2152.92 55.6432 Q2152.92 63.745 2147.41 68.1605 Q2141.9 72.576 2131.73 72.576 L2110.02 72.576 L2110.02 12.096 Z" fill="#000000" fill-rule="nonzero" fill-opacity="1" /><path clip-path="url(#clip610)" d="M2165.84 54.671 L2165.84 27.2059 L2173.3 27.2059 L2173.3 54.3874 Q2173.3 60.8284 2175.81 64.0691 Q2178.32 67.2693 2183.34 67.2693 Q2189.38 67.2693 2192.86 63.421 Q2196.39 59.5726 2196.39 52.9291 L2196.39 27.2059 L2203.84 27.2059 L2203.84 72.576 L2196.39 72.576 L2196.39 65.6084 Q2193.67 69.7404 2190.07 71.7658 Q2186.5 73.7508 2181.76 73.7508 Q2173.95 73.7508 2169.89 68.8897 Q2165.84 64.0286 2165.84 54.671 M2184.6 26.1121 L2184.6 26.1121 Z" fill="#000000" fill-rule="nonzero" fill-opacity="1" /><path clip-path="url(#clip610)" d="M2248.12 28.5427 L2248.12 35.5912 Q2244.96 33.9709 2241.55 33.1607 Q2238.15 32.3505 2234.51 32.3505 Q2228.96 32.3505 2226.16 34.0519 Q2223.41 35.7533 2223.41 39.156 Q2223.41 41.7486 2225.39 43.2475 Q2227.38 44.7058 2233.37 46.0426 L2235.92 46.6097 Q2243.86 48.3111 2247.19 51.4303 Q2250.55 54.509 2250.55 60.0587 Q2250.55 66.3781 2245.52 70.0644 Q2240.54 73.7508 2231.79 73.7508 Q2228.15 73.7508 2224.18 73.0216 Q2220.25 72.3329 2215.87 70.9151 L2215.87 63.2184 Q2220 65.3654 2224.01 66.4591 Q2228.02 67.5124 2231.95 67.5124 Q2237.22 67.5124 2240.06 65.73 Q2242.89 63.9071 2242.89 60.6258 Q2242.89 57.5877 2240.83 55.9673 Q2238.8 54.3469 2231.87 52.8481 L2229.28 52.2405 Q2222.35 50.7821 2219.27 47.7845 Q2216.2 44.7463 2216.2 39.4801 Q2216.2 33.0797 2220.73 29.5959 Q2225.27 26.1121 2233.61 26.1121 Q2237.75 26.1121 2241.39 26.7198 Q2245.04 27.3274 2248.12 28.5427 Z" fill="#000000" fill-rule="nonzero" fill-opacity="1" /><path clip-path="url(#clip610)" d="M2306.69 9.62495 Q2301.26 18.942 2298.63 28.0566 Q2296 37.1711 2296 46.5287 Q2296 55.8863 2298.63 65.0818 Q2301.31 74.2369 2306.69 83.5134 L2300.21 83.5134 Q2294.14 73.9938 2291.1 64.7983 Q2288.1 55.6027 2288.1 46.5287 Q2288.1 37.4952 2291.1 28.3401 Q2294.09 19.1851 2300.21 9.62495 L2306.69 9.62495 Z" fill="#000000" fill-rule="nonzero" fill-opacity="1" /><path clip-path="url(#clip610)" d="M2321.48 12.096 L2329.66 12.096 L2329.66 72.576 L2321.48 72.576 L2321.48 12.096 Z" fill="#000000" fill-rule="nonzero" fill-opacity="1" /><path clip-path="url(#clip610)" d="M2383.34 45.1919 L2383.34 72.576 L2375.88 72.576 L2375.88 45.4349 Q2375.88 38.994 2373.37 35.7938 Q2370.86 32.5936 2365.84 32.5936 Q2359.8 32.5936 2356.32 36.4419 Q2352.83 40.2903 2352.83 46.9338 L2352.83 72.576 L2345.34 72.576 L2345.34 27.2059 L2352.83 27.2059 L2352.83 34.2544 Q2355.51 30.163 2359.11 28.1376 Q2362.76 26.1121 2367.5 26.1121 Q2375.32 26.1121 2379.33 30.9732 Q2383.34 35.7938 2383.34 45.1919 Z" fill="#000000" fill-rule="nonzero" fill-opacity="1" /><path clip-path="url(#clip610)" d="M2405.58 14.324 L2405.58 27.2059 L2420.93 27.2059 L2420.93 32.9987 L2405.58 32.9987 L2405.58 57.6282 Q2405.58 63.1779 2407.07 64.7578 Q2408.61 66.3376 2413.27 66.3376 L2420.93 66.3376 L2420.93 72.576 L2413.27 72.576 Q2404.64 72.576 2401.36 69.3758 Q2398.08 66.1351 2398.08 57.6282 L2398.08 32.9987 L2392.61 32.9987 L2392.61 27.2059 L2398.08 27.2059 L2398.08 14.324 L2405.58 14.324 Z" fill="#000000" fill-rule="nonzero" fill-opacity="1" /><path clip-path="url(#clip610)" d="M2469.54 48.0275 L2469.54 51.6733 L2435.27 51.6733 Q2435.76 59.3701 2439.89 63.421 Q2444.06 67.4314 2451.47 67.4314 Q2455.77 67.4314 2459.78 66.3781 Q2463.83 65.3249 2467.8 63.2184 L2467.8 70.267 Q2463.79 71.9684 2459.57 72.8596 Q2455.36 73.7508 2451.03 73.7508 Q2440.17 73.7508 2433.81 67.4314 Q2427.49 61.1119 2427.49 50.3365 Q2427.49 39.1965 2433.49 32.6746 Q2439.52 26.1121 2449.73 26.1121 Q2458.89 26.1121 2464.19 32.0264 Q2469.54 37.9003 2469.54 48.0275 M2462.09 45.84 Q2462 39.7232 2458.64 36.0774 Q2455.32 32.4315 2449.81 32.4315 Q2443.57 32.4315 2439.81 35.9558 Q2436.08 39.4801 2435.51 45.8805 L2462.09 45.84 Z" fill="#000000" fill-rule="nonzero" fill-opacity="1" /><path clip-path="url(#clip610)" d="M2511.63 49.3643 Q2511.63 41.2625 2508.27 36.8065 Q2504.94 32.3505 2498.91 32.3505 Q2492.91 32.3505 2489.55 36.8065 Q2486.23 41.2625 2486.23 49.3643 Q2486.23 57.4256 2489.55 61.8816 Q2492.91 66.3376 2498.91 66.3376 Q2504.94 66.3376 2508.27 61.8816 Q2511.63 57.4256 2511.63 49.3643 M2519.08 66.9452 Q2519.08 78.5308 2513.94 84.1616 Q2508.79 89.8329 2498.18 89.8329 Q2494.25 89.8329 2490.77 89.2252 Q2487.28 88.6581 2484 87.4428 L2484 80.1917 Q2487.28 81.9741 2490.48 82.8248 Q2493.68 83.6755 2497 83.6755 Q2504.34 83.6755 2507.98 79.8271 Q2511.63 76.0193 2511.63 68.282 L2511.63 64.5957 Q2509.32 68.6061 2505.71 70.5911 Q2502.11 72.576 2497.09 72.576 Q2488.74 72.576 2483.64 66.2161 Q2478.53 59.8562 2478.53 49.3643 Q2478.53 38.832 2483.64 32.472 Q2488.74 26.1121 2497.09 26.1121 Q2502.11 26.1121 2505.71 28.0971 Q2509.32 30.082 2511.63 34.0924 L2511.63 27.2059 L2519.08 27.2059 L2519.08 66.9452 Z" fill="#000000" fill-rule="nonzero" fill-opacity="1" /><path clip-path="url(#clip610)" d="M2573.24 48.0275 L2573.24 51.6733 L2538.97 51.6733 Q2539.46 59.3701 2543.59 63.421 Q2547.76 67.4314 2555.18 67.4314 Q2559.47 67.4314 2563.48 66.3781 Q2567.53 65.3249 2571.5 63.2184 L2571.5 70.267 Q2567.49 71.9684 2563.28 72.8596 Q2559.06 73.7508 2554.73 73.7508 Q2543.87 73.7508 2537.51 67.4314 Q2531.19 61.1119 2531.19 50.3365 Q2531.19 39.1965 2537.19 32.6746 Q2543.23 26.1121 2553.43 26.1121 Q2562.59 26.1121 2567.9 32.0264 Q2573.24 37.9003 2573.24 48.0275 M2565.79 45.84 Q2565.71 39.7232 2562.35 36.0774 Q2559.02 32.4315 2553.51 32.4315 Q2547.28 32.4315 2543.51 35.9558 Q2539.78 39.4801 2539.22 45.8805 L2565.79 45.84 Z" fill="#000000" fill-rule="nonzero" fill-opacity="1" /><path clip-path="url(#clip610)" d="M2611.77 34.1734 Q2610.51 33.4443 2609.01 33.1202 Q2607.55 32.7556 2605.77 32.7556 Q2599.45 32.7556 2596.05 36.8875 Q2592.69 40.9789 2592.69 48.6757 L2592.69 72.576 L2585.19 72.576 L2585.19 27.2059 L2592.69 27.2059 L2592.69 34.2544 Q2595.04 30.1225 2598.8 28.1376 Q2602.57 26.1121 2607.96 26.1121 Q2608.73 26.1121 2609.66 26.2337 Q2610.59 26.3147 2611.73 26.5172 L2611.77 34.1734 Z" fill="#000000" fill-rule="nonzero" fill-opacity="1" /><path clip-path="url(#clip610)" d="M2618.41 9.62495 L2624.89 9.62495 Q2630.97 19.1851 2633.97 28.3401 Q2637 37.4952 2637 46.5287 Q2637 55.6027 2633.97 64.7983 Q2630.97 73.9938 2624.89 83.5134 L2618.41 83.5134 Q2623.8 74.2369 2626.43 65.0818 Q2629.1 55.8863 2629.1 46.5287 Q2629.1 37.1711 2626.43 28.0566 Q2623.8 18.942 2618.41 9.62495 Z" fill="#000000" fill-rule="nonzero" fill-opacity="1" /><path clip-path="url(#clip610)" d="M2653.86 62.2867 L2662.4 62.2867 L2662.4 72.576 L2653.86 72.576 L2653.86 62.2867 M2653.86 29.6769 L2662.4 29.6769 L2662.4 39.9662 L2653.86 39.9662 L2653.86 29.6769 Z" fill="#000000" fill-rule="nonzero" fill-opacity="1" /><path clip-path="url(#clip610)" d="M2741.6 35.9153 Q2744.39 30.8922 2748.28 28.5022 Q2752.17 26.1121 2757.44 26.1121 Q2764.53 26.1121 2768.37 31.0947 Q2772.22 36.0368 2772.22 45.1919 L2772.22 72.576 L2764.73 72.576 L2764.73 45.4349 Q2764.73 38.913 2762.42 35.7533 Q2760.11 32.5936 2755.37 32.5936 Q2749.58 32.5936 2746.22 36.4419 Q2742.85 40.2903 2742.85 46.9338 L2742.85 72.576 L2735.36 72.576 L2735.36 45.4349 Q2735.36 38.8725 2733.05 35.7533 Q2730.74 32.5936 2725.92 32.5936 Q2720.21 32.5936 2716.85 36.4824 Q2713.49 40.3308 2713.49 46.9338 L2713.49 72.576 L2705.99 72.576 L2705.99 27.2059 L2713.49 27.2059 L2713.49 34.2544 Q2716.04 30.082 2719.6 28.0971 Q2723.17 26.1121 2728.07 26.1121 Q2733.01 26.1121 2736.45 28.6237 Q2739.94 31.1352 2741.6 35.9153 Z" fill="#000000" fill-rule="nonzero" fill-opacity="1" /><path clip-path="url(#clip610)" d="M2804.67 32.4315 Q2798.68 32.4315 2795.19 37.1306 Q2791.71 41.7891 2791.71 49.9314 Q2791.71 58.0738 2795.15 62.7728 Q2798.64 67.4314 2804.67 67.4314 Q2810.63 67.4314 2814.11 62.7323 Q2817.59 58.0333 2817.59 49.9314 Q2817.59 41.8701 2814.11 37.1711 Q2810.63 32.4315 2804.67 32.4315 M2804.67 26.1121 Q2814.39 26.1121 2819.94 32.4315 Q2825.49 38.7509 2825.49 49.9314 Q2825.49 61.0714 2819.94 67.4314 Q2814.39 73.7508 2804.67 73.7508 Q2794.91 73.7508 2789.36 67.4314 Q2783.85 61.0714 2783.85 49.9314 Q2783.85 38.7509 2789.36 32.4315 Q2794.91 26.1121 2804.67 26.1121 Z" fill="#000000" fill-rule="nonzero" fill-opacity="1" /><path clip-path="url(#clip610)" d="M2845.22 14.324 L2845.22 27.2059 L2860.57 27.2059 L2860.57 32.9987 L2845.22 32.9987 L2845.22 57.6282 Q2845.22 63.1779 2846.72 64.7578 Q2848.26 66.3376 2852.92 66.3376 L2860.57 66.3376 L2860.57 72.576 L2852.92 72.576 Q2844.29 72.576 2841.01 69.3758 Q2837.73 66.1351 2837.73 57.6282 L2837.73 32.9987 L2832.26 32.9987 L2832.26 27.2059 L2837.73 27.2059 L2837.73 14.324 L2845.22 14.324 Z" fill="#000000" fill-rule="nonzero" fill-opacity="1" /><path clip-path="url(#clip610)" d="M2870.38 27.2059 L2877.83 27.2059 L2877.83 72.576 L2870.38 72.576 L2870.38 27.2059 M2870.38 9.54393 L2877.83 9.54393 L2877.83 18.9825 L2870.38 18.9825 L2870.38 9.54393 Z" fill="#000000" fill-rule="nonzero" fill-opacity="1" /><path clip-path="url(#clip610)" d="M2888.08 27.2059 L2895.98 27.2059 L2910.16 65.2844 L2924.33 27.2059 L2932.23 27.2059 L2915.22 72.576 L2905.09 72.576 L2888.08 27.2059 Z" fill="#000000" fill-rule="nonzero" fill-opacity="1" /><path clip-path="url(#clip610)" d="M2963.14 49.7694 Q2954.11 49.7694 2950.62 51.8354 Q2947.14 53.9013 2947.14 58.8839 Q2947.14 62.8538 2949.73 65.2034 Q2952.37 67.5124 2956.86 67.5124 Q2963.06 67.5124 2966.79 63.1374 Q2970.56 58.7219 2970.56 51.4303 L2970.56 49.7694 L2963.14 49.7694 M2978.01 46.6907 L2978.01 72.576 L2970.56 72.576 L2970.56 65.6895 Q2968 69.8214 2964.2 71.8063 Q2960.39 73.7508 2954.88 73.7508 Q2947.91 73.7508 2943.78 69.8619 Q2939.69 65.9325 2939.69 59.3701 Q2939.69 51.7138 2944.79 47.825 Q2949.94 43.9361 2960.1 43.9361 L2970.56 43.9361 L2970.56 43.2069 Q2970.56 38.0623 2967.15 35.2672 Q2963.79 32.4315 2957.67 32.4315 Q2953.78 32.4315 2950.1 33.3632 Q2946.41 34.295 2943.01 36.1584 L2943.01 29.2718 Q2947.1 27.692 2950.95 26.9223 Q2954.8 26.1121 2958.44 26.1121 Q2968.29 26.1121 2973.15 31.2163 Q2978.01 36.3204 2978.01 46.6907 Z" fill="#000000" fill-rule="nonzero" fill-opacity="1" /><path clip-path="url(#clip610)" d="M3000.73 14.324 L3000.73 27.2059 L3016.09 27.2059 L3016.09 32.9987 L3000.73 32.9987 L3000.73 57.6282 Q3000.73 63.1779 3002.23 64.7578 Q3003.77 66.3376 3008.43 66.3376 L3016.09 66.3376 L3016.09 72.576 L3008.43 72.576 Q2999.8 72.576 2996.52 69.3758 Q2993.24 66.1351 2993.24 57.6282 L2993.24 32.9987 L2987.77 32.9987 L2987.77 27.2059 L2993.24 27.2059 L2993.24 14.324 L3000.73 14.324 Z" fill="#000000" fill-rule="nonzero" fill-opacity="1" /><path clip-path="url(#clip610)" d="M3025.89 27.2059 L3033.34 27.2059 L3033.34 72.576 L3025.89 72.576 L3025.89 27.2059 M3025.89 9.54393 L3033.34 9.54393 L3033.34 18.9825 L3025.89 18.9825 L3025.89 9.54393 Z" fill="#000000" fill-rule="nonzero" fill-opacity="1" /><path clip-path="url(#clip610)" d="M3066.52 32.4315 Q3060.53 32.4315 3057.04 37.1306 Q3053.56 41.7891 3053.56 49.9314 Q3053.56 58.0738 3057 62.7728 Q3060.49 67.4314 3066.52 67.4314 Q3072.48 67.4314 3075.96 62.7323 Q3079.44 58.0333 3079.44 49.9314 Q3079.44 41.8701 3075.96 37.1711 Q3072.48 32.4315 3066.52 32.4315 M3066.52 26.1121 Q3076.24 26.1121 3081.79 32.4315 Q3087.34 38.7509 3087.34 49.9314 Q3087.34 61.0714 3081.79 67.4314 Q3076.24 73.7508 3066.52 73.7508 Q3056.76 73.7508 3051.21 67.4314 Q3045.7 61.0714 3045.7 49.9314 Q3045.7 38.7509 3051.21 32.4315 Q3056.76 26.1121 3066.52 26.1121 Z" fill="#000000" fill-rule="nonzero" fill-opacity="1" /><path clip-path="url(#clip610)" d="M3137.41 45.1919 L3137.41 72.576 L3129.96 72.576 L3129.96 45.4349 Q3129.96 38.994 3127.45 35.7938 Q3124.94 32.5936 3119.91 32.5936 Q3113.88 32.5936 3110.39 36.4419 Q3106.91 40.2903 3106.91 46.9338 L3106.91 72.576 L3099.41 72.576 L3099.41 27.2059 L3106.91 27.2059 L3106.91 34.2544 Q3109.58 30.163 3113.19 28.1376 Q3116.83 26.1121 3121.57 26.1121 Q3129.39 26.1121 3133.4 30.9732 Q3137.41 35.7938 3137.41 45.1919 Z" fill="#000000" fill-rule="nonzero" fill-opacity="1" /><path clip-path="url(#clip610)" d="M3186.75 86.3491 L3186.75 92.1419 L3143.65 92.1419 L3143.65 86.3491 L3186.75 86.3491 Z" fill="#000000" fill-rule="nonzero" fill-opacity="1" /><path clip-path="url(#clip610)" d="M3214.38 49.7694 Q3205.35 49.7694 3201.86 51.8354 Q3198.38 53.9013 3198.38 58.8839 Q3198.38 62.8538 3200.97 65.2034 Q3203.6 67.5124 3208.1 67.5124 Q3214.3 67.5124 3218.03 63.1374 Q3221.79 58.7219 3221.79 51.4303 L3221.79 49.7694 L3214.38 49.7694 M3229.25 46.6907 L3229.25 72.576 L3221.79 72.576 L3221.79 65.6895 Q3219.24 69.8214 3215.43 71.8063 Q3211.62 73.7508 3206.12 73.7508 Q3199.15 73.7508 3195.02 69.8619 Q3190.92 65.9325 3190.92 59.3701 Q3190.92 51.7138 3196.03 47.825 Q3201.17 43.9361 3211.34 43.9361 L3221.79 43.9361 L3221.79 43.2069 Q3221.79 38.0623 3218.39 35.2672 Q3215.03 32.4315 3208.91 32.4315 Q3205.02 32.4315 3201.34 33.3632 Q3197.65 34.295 3194.25 36.1584 L3194.25 29.2718 Q3198.34 27.692 3202.19 26.9223 Q3206.03 26.1121 3209.68 26.1121 Q3219.52 26.1121 3224.39 31.2163 Q3229.25 36.3204 3229.25 46.6907 Z" fill="#000000" fill-rule="nonzero" fill-opacity="1" /><path clip-path="url(#clip612)" d="M601.404 164.864 L601.404 2004.92 L745.944 2004.92 L745.944 164.864 L601.404 164.864 L601.404 164.864  Z" fill="#0000ff" fill-rule="evenodd" fill-opacity="1"/>
<polyline clip-path="url(#clip612)" style="stroke:#000000; stroke-linecap:round; stroke-linejoin:round; stroke-width:4; stroke-opacity:1; fill:none" points="601.404,164.864 601.404,2004.92 745.944,2004.92 745.944,164.864 601.404,164.864 "/>
<path clip-path="url(#clip612)" d="M1002.91 2004.92 L1002.91 2004.92 L1147.45 2004.92 L1147.45 2004.92 L1002.91 2004.92 L1002.91 2004.92  Z" fill="#0000ff" fill-rule="evenodd" fill-opacity="1"/>
<polyline clip-path="url(#clip612)" style="stroke:#000000; stroke-linecap:round; stroke-linejoin:round; stroke-width:4; stroke-opacity:1; fill:none" points="1002.91,2004.92 1002.91,2004.92 1147.45,2004.92 1002.91,2004.92 "/>
<path clip-path="url(#clip612)" d="M1404.41 460.253 L1404.41 2004.92 L1548.95 2004.92 L1548.95 460.253 L1404.41 460.253 L1404.41 460.253  Z" fill="#0000ff" fill-rule="evenodd" fill-opacity="1"/>
<polyline clip-path="url(#clip612)" style="stroke:#000000; stroke-linecap:round; stroke-linejoin:round; stroke-width:4; stroke-opacity:1; fill:none" points="1404.41,460.253 1404.41,2004.92 1548.95,2004.92 1548.95,460.253 1404.41,460.253 "/>
<path clip-path="url(#clip612)" d="M1805.91 2004.92 L1805.91 2004.92 L1950.45 2004.92 L1950.45 2004.92 L1805.91 2004.92 L1805.91 2004.92  Z" fill="#0000ff" fill-rule="evenodd" fill-opacity="1"/>
<polyline clip-path="url(#clip612)" style="stroke:#000000; stroke-linecap:round; stroke-linejoin:round; stroke-width:4; stroke-opacity:1; fill:none" points="1805.91,2004.92 1805.91,2004.92 1950.45,2004.92 1805.91,2004.92 "/>
<path clip-path="url(#clip612)" d="M2207.41 249.593 L2207.41 2004.92 L2351.95 2004.92 L2351.95 249.593 L2207.41 249.593 L2207.41 249.593  Z" fill="#0000ff" fill-rule="evenodd" fill-opacity="1"/>
<polyline clip-path="url(#clip612)" style="stroke:#000000; stroke-linecap:round; stroke-linejoin:round; stroke-width:4; stroke-opacity:1; fill:none" points="2207.41,249.593 2207.41,2004.92 2351.95,2004.92 2351.95,249.593 2207.41,249.593 "/>
<path clip-path="url(#clip612)" d="M2608.91 969.543 L2608.91 2004.92 L2753.45 2004.92 L2753.45 969.543 L2608.91 969.543 L2608.91 969.543  Z" fill="#0000ff" fill-rule="evenodd" fill-opacity="1"/>
<polyline clip-path="url(#clip612)" style="stroke:#000000; stroke-linecap:round; stroke-linejoin:round; stroke-width:4; stroke-opacity:1; fill:none" points="2608.91,969.543 2608.91,2004.92 2753.45,2004.92 2753.45,969.543 2608.91,969.543 "/>
<path clip-path="url(#clip612)" d="M3010.42 2004.92 L3010.42 2004.92 L3154.96 2004.92 L3154.96 2004.92 L3010.42 2004.92 L3010.42 2004.92  Z" fill="#0000ff" fill-rule="evenodd" fill-opacity="1"/>
<polyline clip-path="url(#clip612)" style="stroke:#000000; stroke-linecap:round; stroke-linejoin:round; stroke-width:4; stroke-opacity:1; fill:none" points="3010.42,2004.92 3010.42,2004.92 3154.96,2004.92 3010.42,2004.92 "/>
<path clip-path="url(#clip612)" d="M3411.92 1870.88 L3411.92 2004.92 L3556.46 2004.92 L3556.46 1870.88 L3411.92 1870.88 L3411.92 1870.88  Z" fill="#0000ff" fill-rule="evenodd" fill-opacity="1"/>
<polyline clip-path="url(#clip612)" style="stroke:#000000; stroke-linecap:round; stroke-linejoin:round; stroke-width:4; stroke-opacity:1; fill:none" points="3411.92,1870.88 3411.92,2004.92 3556.46,2004.92 3556.46,1870.88 3411.92,1870.88 "/>
<path clip-path="url(#clip612)" d="M3813.42 164.864 L3813.42 2004.92 L3957.96 2004.92 L3957.96 164.864 L3813.42 164.864 L3813.42 164.864  Z" fill="#0000ff" fill-rule="evenodd" fill-opacity="1"/>
<polyline clip-path="url(#clip612)" style="stroke:#000000; stroke-linecap:round; stroke-linejoin:round; stroke-width:4; stroke-opacity:1; fill:none" points="3813.42,164.864 3813.42,2004.92 3957.96,2004.92 3957.96,164.864 3813.42,164.864 "/>
<circle clip-path="url(#clip612)" style="fill:#0000ff; stroke:none; fill-opacity:0" cx="673.674" cy="164.864" r="2"/>
<circle clip-path="url(#clip612)" style="fill:#0000ff; stroke:none; fill-opacity:0" cx="1075.18" cy="2004.92" r="2"/>
<circle clip-path="url(#clip612)" style="fill:#0000ff; stroke:none; fill-opacity:0" cx="1476.68" cy="460.253" r="2"/>
<circle clip-path="url(#clip612)" style="fill:#0000ff; stroke:none; fill-opacity:0" cx="1878.18" cy="2004.92" r="2"/>
<circle clip-path="url(#clip612)" style="fill:#0000ff; stroke:none; fill-opacity:0" cx="2279.68" cy="249.593" r="2"/>
<circle clip-path="url(#clip612)" style="fill:#0000ff; stroke:none; fill-opacity:0" cx="2681.18" cy="969.543" r="2"/>
<circle clip-path="url(#clip612)" style="fill:#0000ff; stroke:none; fill-opacity:0" cx="3082.69" cy="2004.92" r="2"/>
<circle clip-path="url(#clip612)" style="fill:#0000ff; stroke:none; fill-opacity:0" cx="3484.19" cy="1870.88" r="2"/>
<circle clip-path="url(#clip612)" style="fill:#0000ff; stroke:none; fill-opacity:0" cx="3885.69" cy="164.864" r="2"/>
<path clip-path="url(#clip612)" d="M762.004 164.864 L762.004 2004.92 L906.545 2004.92 L906.545 164.864 L762.004 164.864 L762.004 164.864  Z" fill="#0000ff" fill-rule="evenodd" fill-opacity="0.4"/>
<polyline clip-path="url(#clip612)" style="stroke:#000000; stroke-linecap:round; stroke-linejoin:round; stroke-width:4; stroke-opacity:0.4; fill:none" points="762.004,164.864 762.004,2004.92 906.545,2004.92 906.545,164.864 762.004,164.864 "/>
<path clip-path="url(#clip612)" d="M1163.51 2004.92 L1163.51 2004.92 L1308.05 2004.92 L1308.05 2004.92 L1163.51 2004.92 L1163.51 2004.92  Z" fill="#0000ff" fill-rule="evenodd" fill-opacity="0.4"/>
<polyline clip-path="url(#clip612)" style="stroke:#000000; stroke-linecap:round; stroke-linejoin:round; stroke-width:4; stroke-opacity:0.4; fill:none" points="1163.51,2004.92 1163.51,2004.92 1308.05,2004.92 1163.51,2004.92 "/>
<path clip-path="url(#clip612)" d="M1565.01 460.253 L1565.01 2004.92 L1709.55 2004.92 L1709.55 460.253 L1565.01 460.253 L1565.01 460.253  Z" fill="#0000ff" fill-rule="evenodd" fill-opacity="0.4"/>
<polyline clip-path="url(#clip612)" style="stroke:#000000; stroke-linecap:round; stroke-linejoin:round; stroke-width:4; stroke-opacity:0.4; fill:none" points="1565.01,460.253 1565.01,2004.92 1709.55,2004.92 1709.55,460.253 1565.01,460.253 "/>
<path clip-path="url(#clip612)" d="M1966.51 2004.92 L1966.51 2004.92 L2111.05 2004.92 L2111.05 2004.92 L1966.51 2004.92 L1966.51 2004.92  Z" fill="#0000ff" fill-rule="evenodd" fill-opacity="0.4"/>
<polyline clip-path="url(#clip612)" style="stroke:#000000; stroke-linecap:round; stroke-linejoin:round; stroke-width:4; stroke-opacity:0.4; fill:none" points="1966.51,2004.92 1966.51,2004.92 2111.05,2004.92 1966.51,2004.92 "/>
<path clip-path="url(#clip612)" d="M2368.01 249.593 L2368.01 2004.92 L2512.55 2004.92 L2512.55 249.593 L2368.01 249.593 L2368.01 249.593  Z" fill="#0000ff" fill-rule="evenodd" fill-opacity="0.4"/>
<polyline clip-path="url(#clip612)" style="stroke:#000000; stroke-linecap:round; stroke-linejoin:round; stroke-width:4; stroke-opacity:0.4; fill:none" points="2368.01,249.593 2368.01,2004.92 2512.55,2004.92 2512.55,249.593 2368.01,249.593 "/>
<path clip-path="url(#clip612)" d="M2769.52 969.543 L2769.52 2004.92 L2914.06 2004.92 L2914.06 969.543 L2769.52 969.543 L2769.52 969.543  Z" fill="#0000ff" fill-rule="evenodd" fill-opacity="0.4"/>
<polyline clip-path="url(#clip612)" style="stroke:#000000; stroke-linecap:round; stroke-linejoin:round; stroke-width:4; stroke-opacity:0.4; fill:none" points="2769.52,969.543 2769.52,2004.92 2914.06,2004.92 2914.06,969.543 2769.52,969.543 "/>
<path clip-path="url(#clip612)" d="M3171.02 2004.92 L3171.02 2004.92 L3315.56 2004.92 L3315.56 2004.92 L3171.02 2004.92 L3171.02 2004.92  Z" fill="#0000ff" fill-rule="evenodd" fill-opacity="0.4"/>
<polyline clip-path="url(#clip612)" style="stroke:#000000; stroke-linecap:round; stroke-linejoin:round; stroke-width:4; stroke-opacity:0.4; fill:none" points="3171.02,2004.92 3171.02,2004.92 3315.56,2004.92 3171.02,2004.92 "/>
<path clip-path="url(#clip612)" d="M3572.52 1870.88 L3572.52 2004.92 L3717.06 2004.92 L3717.06 1870.88 L3572.52 1870.88 L3572.52 1870.88  Z" fill="#0000ff" fill-rule="evenodd" fill-opacity="0.4"/>
<polyline clip-path="url(#clip612)" style="stroke:#000000; stroke-linecap:round; stroke-linejoin:round; stroke-width:4; stroke-opacity:0.4; fill:none" points="3572.52,1870.88 3572.52,2004.92 3717.06,2004.92 3717.06,1870.88 3572.52,1870.88 "/>
<path clip-path="url(#clip612)" d="M3974.02 164.864 L3974.02 2004.92 L4118.56 2004.92 L4118.56 164.864 L3974.02 164.864 L3974.02 164.864  Z" fill="#0000ff" fill-rule="evenodd" fill-opacity="0.4"/>
<polyline clip-path="url(#clip612)" style="stroke:#000000; stroke-linecap:round; stroke-linejoin:round; stroke-width:4; stroke-opacity:0.4; fill:none" points="3974.02,164.864 3974.02,2004.92 4118.56,2004.92 4118.56,164.864 3974.02,164.864 "/>
<circle clip-path="url(#clip612)" style="fill:#0000ff; stroke:none; fill-opacity:0" cx="834.275" cy="164.864" r="2"/>
<circle clip-path="url(#clip612)" style="fill:#0000ff; stroke:none; fill-opacity:0" cx="1235.78" cy="2004.92" r="2"/>
<circle clip-path="url(#clip612)" style="fill:#0000ff; stroke:none; fill-opacity:0" cx="1637.28" cy="460.253" r="2"/>
<circle clip-path="url(#clip612)" style="fill:#0000ff; stroke:none; fill-opacity:0" cx="2038.78" cy="2004.92" r="2"/>
<circle clip-path="url(#clip612)" style="fill:#0000ff; stroke:none; fill-opacity:0" cx="2440.28" cy="249.593" r="2"/>
<circle clip-path="url(#clip612)" style="fill:#0000ff; stroke:none; fill-opacity:0" cx="2841.79" cy="969.543" r="2"/>
<circle clip-path="url(#clip612)" style="fill:#0000ff; stroke:none; fill-opacity:0" cx="3243.29" cy="2004.92" r="2"/>
<circle clip-path="url(#clip612)" style="fill:#0000ff; stroke:none; fill-opacity:0" cx="3644.79" cy="1870.88" r="2"/>
<circle clip-path="url(#clip612)" style="fill:#0000ff; stroke:none; fill-opacity:0" cx="4046.29" cy="164.864" r="2"/>
<path clip-path="url(#clip610)" d="M4492.96 381.719 L5253.54 381.719 L5253.54 226.199 L4492.96 226.199  Z" fill="#ffffff" fill-rule="evenodd" fill-opacity="1"/>
<polyline clip-path="url(#clip610)" style="stroke:#000000; stroke-linecap:round; stroke-linejoin:round; stroke-width:4; stroke-opacity:1; fill:none" points="4492.96,381.719 5253.54,381.719 5253.54,226.199 4492.96,226.199 4492.96,381.719 "/>
<path clip-path="url(#clip610)" d="M4547.01 298.775 L4871.3 298.775 L4871.3 257.303 L4547.01 257.303 L4547.01 298.775  Z" fill="#0000ff" fill-rule="evenodd" fill-opacity="1"/>
<polyline clip-path="url(#clip610)" style="stroke:#000000; stroke-linecap:round; stroke-linejoin:round; stroke-width:4; stroke-opacity:1; fill:none" points="4547.01,298.775 4871.3,298.775 4871.3,257.303 4547.01,257.303 4547.01,298.775 "/>
<path clip-path="url(#clip610)" d="M4925.35 260.759 L4947.2 260.759 L4947.2 264.695 L4930.03 264.695 L4930.03 274.926 L4946.49 274.926 L4946.49 278.861 L4930.03 278.861 L4930.03 291.384 L4947.62 291.384 L4947.62 295.319 L4925.35 295.319 L4925.35 260.759 Z" fill="#000000" fill-rule="nonzero" fill-opacity="1" /><path clip-path="url(#clip610)" d="M4968.25 259.301 L4968.25 262.843 L4964.17 262.843 Q4961.88 262.843 4960.98 263.769 Q4960.1 264.695 4960.1 267.102 L4960.1 269.394 L4967.11 269.394 L4967.11 272.704 L4960.1 272.704 L4960.1 295.319 L4955.82 295.319 L4955.82 272.704 L4951.74 272.704 L4951.74 269.394 L4955.82 269.394 L4955.82 267.588 Q4955.82 263.259 4957.83 261.292 Q4959.84 259.301 4964.22 259.301 L4968.25 259.301 Z" fill="#000000" fill-rule="nonzero" fill-opacity="1" /><path clip-path="url(#clip610)" d="M4984.94 259.301 L4984.94 262.843 L4980.86 262.843 Q4978.57 262.843 4977.67 263.769 Q4976.79 264.695 4976.79 267.102 L4976.79 269.394 L4983.8 269.394 L4983.8 272.704 L4976.79 272.704 L4976.79 295.319 L4972.5 295.319 L4972.5 272.704 L4968.43 272.704 L4968.43 269.394 L4972.5 269.394 L4972.5 267.588 Q4972.5 263.259 4974.52 261.292 Q4976.53 259.301 4980.91 259.301 L4984.94 259.301 Z" fill="#000000" fill-rule="nonzero" fill-opacity="1" /><path clip-path="url(#clip610)" d="M4988.5 269.394 L4992.76 269.394 L4992.76 295.319 L4988.5 295.319 L4988.5 269.394 M4988.5 259.301 L4992.76 259.301 L4992.76 264.695 L4988.5 264.695 L4988.5 259.301 Z" fill="#000000" fill-rule="nonzero" fill-opacity="1" /><path clip-path="url(#clip610)" d="M5020.33 270.389 L5020.33 274.37 Q5018.52 273.375 5016.69 272.889 Q5014.89 272.38 5013.04 272.38 Q5008.89 272.38 5006.6 275.019 Q5004.31 277.634 5004.31 282.38 Q5004.31 287.125 5006.6 289.764 Q5008.89 292.38 5013.04 292.38 Q5014.89 292.38 5016.69 291.893 Q5018.52 291.384 5020.33 290.389 L5020.33 294.324 Q5018.55 295.157 5016.63 295.574 Q5014.73 295.991 5012.57 295.991 Q5006.72 295.991 5003.27 292.31 Q4999.82 288.63 4999.82 282.38 Q4999.82 276.037 5003.29 272.403 Q5006.79 268.769 5012.85 268.769 Q5014.82 268.769 5016.69 269.185 Q5018.57 269.579 5020.33 270.389 Z" fill="#000000" fill-rule="nonzero" fill-opacity="1" /><path clip-path="url(#clip610)" d="M5027.74 269.394 L5032 269.394 L5032 295.319 L5027.74 295.319 L5027.74 269.394 M5027.74 259.301 L5032 259.301 L5032 264.695 L5027.74 264.695 L5027.74 259.301 Z" fill="#000000" fill-rule="nonzero" fill-opacity="1" /><path clip-path="url(#clip610)" d="M5063.08 281.292 L5063.08 283.375 L5043.5 283.375 Q5043.78 287.773 5046.14 290.088 Q5048.52 292.38 5052.76 292.38 Q5055.21 292.38 5057.5 291.778 Q5059.82 291.176 5062.09 289.972 L5062.09 294 Q5059.8 294.972 5057.39 295.481 Q5054.98 295.991 5052.5 295.991 Q5046.3 295.991 5042.67 292.38 Q5039.06 288.768 5039.06 282.611 Q5039.06 276.245 5042.48 272.519 Q5045.93 268.769 5051.76 268.769 Q5057 268.769 5060.03 272.148 Q5063.08 275.505 5063.08 281.292 M5058.82 280.042 Q5058.78 276.546 5056.86 274.463 Q5054.96 272.38 5051.81 272.38 Q5048.25 272.38 5046.09 274.394 Q5043.96 276.407 5043.64 280.065 L5058.82 280.042 Z" fill="#000000" fill-rule="nonzero" fill-opacity="1" /><path clip-path="url(#clip610)" d="M5091.62 279.671 L5091.62 295.319 L5087.37 295.319 L5087.37 279.81 Q5087.37 276.13 5085.93 274.301 Q5084.5 272.472 5081.62 272.472 Q5078.18 272.472 5076.18 274.671 Q5074.19 276.87 5074.19 280.667 L5074.19 295.319 L5069.91 295.319 L5069.91 269.394 L5074.19 269.394 L5074.19 273.421 Q5075.72 271.083 5077.78 269.926 Q5079.87 268.769 5082.57 268.769 Q5087.04 268.769 5089.33 271.546 Q5091.62 274.301 5091.62 279.671 Z" fill="#000000" fill-rule="nonzero" fill-opacity="1" /><path clip-path="url(#clip610)" d="M5118.78 270.389 L5118.78 274.37 Q5116.97 273.375 5115.14 272.889 Q5113.34 272.38 5111.49 272.38 Q5107.34 272.38 5105.05 275.019 Q5102.76 277.634 5102.76 282.38 Q5102.76 287.125 5105.05 289.764 Q5107.34 292.38 5111.49 292.38 Q5113.34 292.38 5115.14 291.893 Q5116.97 291.384 5118.78 290.389 L5118.78 294.324 Q5116.99 295.157 5115.07 295.574 Q5113.18 295.991 5111.02 295.991 Q5105.17 295.991 5101.72 292.31 Q5098.27 288.63 5098.27 282.38 Q5098.27 276.037 5101.74 272.403 Q5105.24 268.769 5111.3 268.769 Q5113.27 268.769 5115.14 269.185 Q5117.02 269.579 5118.78 270.389 Z" fill="#000000" fill-rule="nonzero" fill-opacity="1" /><path clip-path="url(#clip610)" d="M5136.97 297.727 Q5135.17 302.356 5133.45 303.768 Q5131.74 305.18 5128.87 305.18 L5125.47 305.18 L5125.47 301.616 L5127.97 301.616 Q5129.73 301.616 5130.7 300.782 Q5131.67 299.949 5132.85 296.847 L5133.62 294.903 L5123.13 269.394 L5127.64 269.394 L5135.74 289.671 L5143.85 269.394 L5148.36 269.394 L5136.97 297.727 Z" fill="#000000" fill-rule="nonzero" fill-opacity="1" /><path clip-path="url(#clip610)" d="M5174.17 264.602 L5174.17 277.588 L5180.05 277.588 Q5183.31 277.588 5185.1 275.898 Q5186.88 274.208 5186.88 271.083 Q5186.88 267.982 5185.1 266.292 Q5183.31 264.602 5180.05 264.602 L5174.17 264.602 M5169.49 260.759 L5180.05 260.759 Q5185.86 260.759 5188.82 263.398 Q5191.81 266.014 5191.81 271.083 Q5191.81 276.199 5188.82 278.815 Q5185.86 281.431 5180.05 281.431 L5174.17 281.431 L5174.17 295.319 L5169.49 295.319 L5169.49 260.759 Z" fill="#000000" fill-rule="nonzero" fill-opacity="1" /><path clip-path="url(#clip610)" d="M4547.01 350.615 L4871.3 350.615 L4871.3 309.143 L4547.01 309.143 L4547.01 350.615  Z" fill="#0000ff" fill-rule="evenodd" fill-opacity="0.4"/>
<polyline clip-path="url(#clip610)" style="stroke:#000000; stroke-linecap:round; stroke-linejoin:round; stroke-width:4; stroke-opacity:1; fill:none" points="4547.01,350.615 4871.3,350.615 4871.3,309.143 4547.01,309.143 4547.01,350.615 "/>
<path clip-path="url(#clip610)" d="M4925.35 312.599 L4947.2 312.599 L4947.2 316.535 L4930.03 316.535 L4930.03 326.766 L4946.49 326.766 L4946.49 330.701 L4930.03 330.701 L4930.03 343.224 L4947.62 343.224 L4947.62 347.159 L4925.35 347.159 L4925.35 312.599 Z" fill="#000000" fill-rule="nonzero" fill-opacity="1" /><path clip-path="url(#clip610)" d="M4968.25 311.141 L4968.25 314.683 L4964.17 314.683 Q4961.88 314.683 4960.98 315.609 Q4960.1 316.535 4960.1 318.942 L4960.1 321.234 L4967.11 321.234 L4967.11 324.544 L4960.1 324.544 L4960.1 347.159 L4955.82 347.159 L4955.82 324.544 L4951.74 324.544 L4951.74 321.234 L4955.82 321.234 L4955.82 319.428 Q4955.82 315.099 4957.83 313.132 Q4959.84 311.141 4964.22 311.141 L4968.25 311.141 Z" fill="#000000" fill-rule="nonzero" fill-opacity="1" /><path clip-path="url(#clip610)" d="M4984.94 311.141 L4984.94 314.683 L4980.86 314.683 Q4978.57 314.683 4977.67 315.609 Q4976.79 316.535 4976.79 318.942 L4976.79 321.234 L4983.8 321.234 L4983.8 324.544 L4976.79 324.544 L4976.79 347.159 L4972.5 347.159 L4972.5 324.544 L4968.43 324.544 L4968.43 321.234 L4972.5 321.234 L4972.5 319.428 Q4972.5 315.099 4974.52 313.132 Q4976.53 311.141 4980.91 311.141 L4984.94 311.141 Z" fill="#000000" fill-rule="nonzero" fill-opacity="1" /><path clip-path="url(#clip610)" d="M4988.5 321.234 L4992.76 321.234 L4992.76 347.159 L4988.5 347.159 L4988.5 321.234 M4988.5 311.141 L4992.76 311.141 L4992.76 316.535 L4988.5 316.535 L4988.5 311.141 Z" fill="#000000" fill-rule="nonzero" fill-opacity="1" /><path clip-path="url(#clip610)" d="M5020.33 322.229 L5020.33 326.21 Q5018.52 325.215 5016.69 324.729 Q5014.89 324.22 5013.04 324.22 Q5008.89 324.22 5006.6 326.859 Q5004.31 329.474 5004.31 334.22 Q5004.31 338.965 5006.6 341.604 Q5008.89 344.22 5013.04 344.22 Q5014.89 344.22 5016.69 343.733 Q5018.52 343.224 5020.33 342.229 L5020.33 346.164 Q5018.55 346.997 5016.63 347.414 Q5014.73 347.831 5012.57 347.831 Q5006.72 347.831 5003.27 344.15 Q4999.82 340.47 4999.82 334.22 Q4999.82 327.877 5003.29 324.243 Q5006.79 320.609 5012.85 320.609 Q5014.82 320.609 5016.69 321.025 Q5018.57 321.419 5020.33 322.229 Z" fill="#000000" fill-rule="nonzero" fill-opacity="1" /><path clip-path="url(#clip610)" d="M5027.74 321.234 L5032 321.234 L5032 347.159 L5027.74 347.159 L5027.74 321.234 M5027.74 311.141 L5032 311.141 L5032 316.535 L5027.74 316.535 L5027.74 311.141 Z" fill="#000000" fill-rule="nonzero" fill-opacity="1" /><path clip-path="url(#clip610)" d="M5063.08 333.132 L5063.08 335.215 L5043.5 335.215 Q5043.78 339.613 5046.14 341.928 Q5048.52 344.22 5052.76 344.22 Q5055.21 344.22 5057.5 343.618 Q5059.82 343.016 5062.09 341.812 L5062.09 345.84 Q5059.8 346.812 5057.39 347.321 Q5054.98 347.831 5052.5 347.831 Q5046.3 347.831 5042.67 344.22 Q5039.06 340.608 5039.06 334.451 Q5039.06 328.085 5042.48 324.359 Q5045.93 320.609 5051.76 320.609 Q5057 320.609 5060.03 323.988 Q5063.08 327.345 5063.08 333.132 M5058.82 331.882 Q5058.78 328.386 5056.86 326.303 Q5054.96 324.22 5051.81 324.22 Q5048.25 324.22 5046.09 326.234 Q5043.96 328.247 5043.64 331.905 L5058.82 331.882 Z" fill="#000000" fill-rule="nonzero" fill-opacity="1" /><path clip-path="url(#clip610)" d="M5091.62 331.511 L5091.62 347.159 L5087.37 347.159 L5087.37 331.65 Q5087.37 327.97 5085.93 326.141 Q5084.5 324.312 5081.62 324.312 Q5078.18 324.312 5076.18 326.511 Q5074.19 328.71 5074.19 332.507 L5074.19 347.159 L5069.91 347.159 L5069.91 321.234 L5074.19 321.234 L5074.19 325.261 Q5075.72 322.923 5077.78 321.766 Q5079.87 320.609 5082.57 320.609 Q5087.04 320.609 5089.33 323.386 Q5091.62 326.141 5091.62 331.511 Z" fill="#000000" fill-rule="nonzero" fill-opacity="1" /><path clip-path="url(#clip610)" d="M5118.78 322.229 L5118.78 326.21 Q5116.97 325.215 5115.14 324.729 Q5113.34 324.22 5111.49 324.22 Q5107.34 324.22 5105.05 326.859 Q5102.76 329.474 5102.76 334.22 Q5102.76 338.965 5105.05 341.604 Q5107.34 344.22 5111.49 344.22 Q5113.34 344.22 5115.14 343.733 Q5116.97 343.224 5118.78 342.229 L5118.78 346.164 Q5116.99 346.997 5115.07 347.414 Q5113.18 347.831 5111.02 347.831 Q5105.17 347.831 5101.72 344.15 Q5098.27 340.47 5098.27 334.22 Q5098.27 327.877 5101.74 324.243 Q5105.24 320.609 5111.3 320.609 Q5113.27 320.609 5115.14 321.025 Q5117.02 321.419 5118.78 322.229 Z" fill="#000000" fill-rule="nonzero" fill-opacity="1" /><path clip-path="url(#clip610)" d="M5136.97 349.567 Q5135.17 354.196 5133.45 355.608 Q5131.74 357.02 5128.87 357.02 L5125.47 357.02 L5125.47 353.456 L5127.97 353.456 Q5129.73 353.456 5130.7 352.622 Q5131.67 351.789 5132.85 348.687 L5133.62 346.743 L5123.13 321.234 L5127.64 321.234 L5135.74 341.511 L5143.85 321.234 L5148.36 321.234 L5136.97 349.567 Z" fill="#000000" fill-rule="nonzero" fill-opacity="1" /><path clip-path="url(#clip610)" d="M5183.52 315.771 Q5178.43 315.771 5175.42 319.567 Q5172.43 323.363 5172.43 329.914 Q5172.43 336.442 5175.42 340.238 Q5178.43 344.034 5183.52 344.034 Q5188.61 344.034 5191.58 340.238 Q5194.56 336.442 5194.56 329.914 Q5194.56 323.363 5191.58 319.567 Q5188.61 315.771 5183.52 315.771 M5190.07 346.534 L5196.23 353.27 L5190.58 353.27 L5185.47 347.738 Q5184.7 347.784 5184.29 347.808 Q5183.89 347.831 5183.52 347.831 Q5176.23 347.831 5171.86 342.97 Q5167.5 338.085 5167.5 329.914 Q5167.5 321.72 5171.86 316.859 Q5176.23 311.974 5183.52 311.974 Q5190.79 311.974 5195.14 316.859 Q5199.49 321.72 5199.49 329.914 Q5199.49 335.933 5197.06 340.215 Q5194.66 344.497 5190.07 346.534 Z" fill="#000000" fill-rule="nonzero" fill-opacity="1" /></svg>
