<?xml version="1.0" encoding="utf-8"?>
<svg xmlns="http://www.w3.org/2000/svg" xmlns:xlink="http://www.w3.org/1999/xlink" width="600" height="400" viewBox="0 0 2400 1600">
<defs>
  <clipPath id="clip240">
    <rect x="0" y="0" width="2400" height="1600"/>
  </clipPath>
</defs>
<path clip-path="url(#clip240)" d="M0 1600 L2400 1600 L2400 0 L0 0  Z" fill="#ffffff" fill-rule="evenodd" fill-opacity="1"/>
<defs>
  <clipPath id="clip241">
    <rect x="480" y="0" width="1681" height="1600"/>
  </clipPath>
</defs>
<path clip-path="url(#clip240)" d="M249.542 1423.18 L2352.76 1423.18 L2352.76 123.472 L249.542 123.472  Z" fill="#ffffff" fill-rule="evenodd" fill-opacity="1"/>
<defs>
  <clipPath id="clip242">
    <rect x="249" y="123" width="2104" height="1301"/>
  </clipPath>
</defs>
<polyline clip-path="url(#clip242)" style="stroke:#000000; stroke-linecap:round; stroke-linejoin:round; stroke-width:2; stroke-opacity:0.1; fill:none" points="289.337,1423.18 289.337,123.472 "/>
<polyline clip-path="url(#clip242)" style="stroke:#000000; stroke-linecap:round; stroke-linejoin:round; stroke-width:2; stroke-opacity:0.1; fill:none" points="921.719,1423.18 921.719,123.472 "/>
<polyline clip-path="url(#clip242)" style="stroke:#000000; stroke-linecap:round; stroke-linejoin:round; stroke-width:2; stroke-opacity:0.1; fill:none" points="1554.1,1423.18 1554.1,123.472 "/>
<polyline clip-path="url(#clip242)" style="stroke:#000000; stroke-linecap:round; stroke-linejoin:round; stroke-width:2; stroke-opacity:0.1; fill:none" points="2186.48,1423.18 2186.48,123.472 "/>
<polyline clip-path="url(#clip242)" style="stroke:#000000; stroke-linecap:round; stroke-linejoin:round; stroke-width:2; stroke-opacity:0.1; fill:none" points="249.542,1423.18 2352.76,1423.18 "/>
<polyline clip-path="url(#clip242)" style="stroke:#000000; stroke-linecap:round; stroke-linejoin:round; stroke-width:2; stroke-opacity:0.1; fill:none" points="249.542,1189.45 2352.76,1189.45 "/>
<polyline clip-path="url(#clip242)" style="stroke:#000000; stroke-linecap:round; stroke-linejoin:round; stroke-width:2; stroke-opacity:0.1; fill:none" points="249.542,955.728 2352.76,955.728 "/>
<polyline clip-path="url(#clip242)" style="stroke:#000000; stroke-linecap:round; stroke-linejoin:round; stroke-width:2; stroke-opacity:0.1; fill:none" points="249.542,722.003 2352.76,722.003 "/>
<polyline clip-path="url(#clip242)" style="stroke:#000000; stroke-linecap:round; stroke-linejoin:round; stroke-width:2; stroke-opacity:0.1; fill:none" points="249.542,488.277 2352.76,488.277 "/>
<polyline clip-path="url(#clip242)" style="stroke:#000000; stroke-linecap:round; stroke-linejoin:round; stroke-width:2; stroke-opacity:0.1; fill:none" points="249.542,254.551 2352.76,254.551 "/>
<polyline clip-path="url(#clip240)" style="stroke:#000000; stroke-linecap:round; stroke-linejoin:round; stroke-width:4; stroke-opacity:1; fill:none" points="249.542,1423.18 2352.76,1423.18 "/>
<polyline clip-path="url(#clip240)" style="stroke:#000000; stroke-linecap:round; stroke-linejoin:round; stroke-width:4; stroke-opacity:1; fill:none" points="289.337,1423.18 289.337,1404.28 "/>
<polyline clip-path="url(#clip240)" style="stroke:#000000; stroke-linecap:round; stroke-linejoin:round; stroke-width:4; stroke-opacity:1; fill:none" points="921.719,1423.18 921.719,1404.28 "/>
<polyline clip-path="url(#clip240)" style="stroke:#000000; stroke-linecap:round; stroke-linejoin:round; stroke-width:4; stroke-opacity:1; fill:none" points="1554.1,1423.18 1554.1,1404.28 "/>
<polyline clip-path="url(#clip240)" style="stroke:#000000; stroke-linecap:round; stroke-linejoin:round; stroke-width:4; stroke-opacity:1; fill:none" points="2186.48,1423.18 2186.48,1404.28 "/>
<path clip-path="url(#clip240)" d="M289.337 1454.1 Q285.726 1454.1 283.897 1457.66 Q282.091 1461.2 282.091 1468.33 Q282.091 1475.44 283.897 1479.01 Q285.726 1482.55 289.337 1482.55 Q292.971 1482.55 294.776 1479.01 Q296.605 1475.44 296.605 1468.33 Q296.605 1461.2 294.776 1457.66 Q292.971 1454.1 289.337 1454.1 M289.337 1450.39 Q295.147 1450.39 298.202 1455 Q301.281 1459.58 301.281 1468.33 Q301.281 1477.06 298.202 1481.67 Q295.147 1486.25 289.337 1486.25 Q283.526 1486.25 280.448 1481.67 Q277.392 1477.06 277.392 1468.33 Q277.392 1459.58 280.448 1455 Q283.526 1450.39 289.337 1450.39 Z" fill="#000000" fill-rule="nonzero" fill-opacity="1" /><path clip-path="url(#clip240)" d="M911.997 1451.02 L930.354 1451.02 L930.354 1454.96 L916.28 1454.96 L916.28 1463.43 Q917.298 1463.08 918.317 1462.92 Q919.335 1462.73 920.354 1462.73 Q926.141 1462.73 929.52 1465.9 Q932.9 1469.08 932.9 1474.49 Q932.9 1480.07 929.428 1483.17 Q925.955 1486.25 919.636 1486.25 Q917.46 1486.25 915.192 1485.88 Q912.946 1485.51 910.539 1484.77 L910.539 1480.07 Q912.622 1481.2 914.844 1481.76 Q917.067 1482.32 919.543 1482.32 Q923.548 1482.32 925.886 1480.21 Q928.224 1478.1 928.224 1474.49 Q928.224 1470.88 925.886 1468.77 Q923.548 1466.67 919.543 1466.67 Q917.668 1466.67 915.793 1467.08 Q913.942 1467.5 911.997 1468.38 L911.997 1451.02 Z" fill="#000000" fill-rule="nonzero" fill-opacity="1" /><path clip-path="url(#clip240)" d="M1528.79 1481.64 L1536.43 1481.64 L1536.43 1455.28 L1528.12 1456.95 L1528.12 1452.69 L1536.38 1451.02 L1541.06 1451.02 L1541.06 1481.64 L1548.7 1481.64 L1548.7 1485.58 L1528.79 1485.58 L1528.79 1481.64 Z" fill="#000000" fill-rule="nonzero" fill-opacity="1" /><path clip-path="url(#clip240)" d="M1568.14 1454.1 Q1564.53 1454.1 1562.7 1457.66 Q1560.9 1461.2 1560.9 1468.33 Q1560.9 1475.44 1562.7 1479.01 Q1564.53 1482.55 1568.14 1482.55 Q1571.78 1482.55 1573.58 1479.01 Q1575.41 1475.44 1575.41 1468.33 Q1575.41 1461.2 1573.58 1457.66 Q1571.78 1454.1 1568.14 1454.1 M1568.14 1450.39 Q1573.95 1450.39 1577.01 1455 Q1580.09 1459.58 1580.09 1468.33 Q1580.09 1477.06 1577.01 1481.67 Q1573.95 1486.25 1568.14 1486.25 Q1562.33 1486.25 1559.25 1481.67 Q1556.2 1477.06 1556.2 1468.33 Q1556.2 1459.58 1559.25 1455 Q1562.33 1450.39 1568.14 1450.39 Z" fill="#000000" fill-rule="nonzero" fill-opacity="1" /><path clip-path="url(#clip240)" d="M2161.67 1481.64 L2169.31 1481.64 L2169.31 1455.28 L2161 1456.95 L2161 1452.69 L2169.26 1451.02 L2173.94 1451.02 L2173.94 1481.64 L2181.58 1481.64 L2181.58 1485.58 L2161.67 1485.58 L2161.67 1481.64 Z" fill="#000000" fill-rule="nonzero" fill-opacity="1" /><path clip-path="url(#clip240)" d="M2191.07 1451.02 L2209.42 1451.02 L2209.42 1454.96 L2195.35 1454.96 L2195.35 1463.43 Q2196.37 1463.08 2197.39 1462.92 Q2198.41 1462.73 2199.42 1462.73 Q2205.21 1462.73 2208.59 1465.9 Q2211.97 1469.08 2211.97 1474.49 Q2211.97 1480.07 2208.5 1483.17 Q2205.03 1486.25 2198.71 1486.25 Q2196.53 1486.25 2194.26 1485.88 Q2192.02 1485.51 2189.61 1484.77 L2189.61 1480.07 Q2191.69 1481.2 2193.92 1481.76 Q2196.14 1482.32 2198.61 1482.32 Q2202.62 1482.32 2204.96 1480.21 Q2207.29 1478.1 2207.29 1474.49 Q2207.29 1470.88 2204.96 1468.77 Q2202.62 1466.67 2198.61 1466.67 Q2196.74 1466.67 2194.86 1467.08 Q2193.01 1467.5 2191.07 1468.38 L2191.07 1451.02 Z" fill="#000000" fill-rule="nonzero" fill-opacity="1" /><path clip-path="url(#clip240)" d="M1183.02 1520.52 L1189.45 1520.52 L1189.45 1562.63 L1212.59 1562.63 L1212.59 1568.04 L1183.02 1568.04 L1183.02 1520.52 Z" fill="#000000" fill-rule="nonzero" fill-opacity="1" /><path clip-path="url(#clip240)" d="M1231.75 1536.5 Q1227.04 1536.5 1224.3 1540.19 Q1221.56 1543.85 1221.56 1550.25 Q1221.56 1556.65 1224.27 1560.34 Q1227 1564 1231.75 1564 Q1236.43 1564 1239.16 1560.31 Q1241.9 1556.62 1241.9 1550.25 Q1241.9 1543.92 1239.16 1540.23 Q1236.43 1536.5 1231.75 1536.5 M1231.75 1531.54 Q1239.39 1531.54 1243.75 1536.5 Q1248.11 1541.47 1248.11 1550.25 Q1248.11 1559 1243.75 1564 Q1239.39 1568.97 1231.75 1568.97 Q1224.08 1568.97 1219.72 1564 Q1215.39 1559 1215.39 1550.25 Q1215.39 1541.47 1219.72 1536.5 Q1224.08 1531.54 1231.75 1531.54 Z" fill="#000000" fill-rule="nonzero" fill-opacity="1" /><path clip-path="url(#clip240)" d="M1274.02 1550.12 Q1266.92 1550.12 1264.18 1551.75 Q1261.44 1553.37 1261.44 1557.29 Q1261.44 1560.4 1263.48 1562.25 Q1265.55 1564.07 1269.08 1564.07 Q1273.95 1564.07 1276.88 1560.63 Q1279.84 1557.16 1279.84 1551.43 L1279.84 1550.12 L1274.02 1550.12 M1285.7 1547.71 L1285.7 1568.04 L1279.84 1568.04 L1279.84 1562.63 Q1277.83 1565.88 1274.84 1567.44 Q1271.85 1568.97 1267.52 1568.97 Q1262.05 1568.97 1258.8 1565.91 Q1255.59 1562.82 1255.59 1557.67 Q1255.59 1551.65 1259.6 1548.6 Q1263.64 1545.54 1271.63 1545.54 L1279.84 1545.54 L1279.84 1544.97 Q1279.84 1540.93 1277.17 1538.73 Q1274.52 1536.5 1269.72 1536.5 Q1266.66 1536.5 1263.77 1537.23 Q1260.87 1537.97 1258.2 1539.43 L1258.2 1534.02 Q1261.41 1532.78 1264.43 1532.17 Q1267.46 1531.54 1270.32 1531.54 Q1278.06 1531.54 1281.88 1535.55 Q1285.7 1539.56 1285.7 1547.71 Z" fill="#000000" fill-rule="nonzero" fill-opacity="1" /><path clip-path="url(#clip240)" d="M1321.22 1537.81 L1321.22 1518.52 L1327.07 1518.52 L1327.07 1568.04 L1321.22 1568.04 L1321.22 1562.7 Q1319.37 1565.88 1316.54 1567.44 Q1313.74 1568.97 1309.79 1568.97 Q1303.33 1568.97 1299.26 1563.81 Q1295.21 1558.65 1295.21 1550.25 Q1295.21 1541.85 1299.26 1536.69 Q1303.33 1531.54 1309.79 1531.54 Q1313.74 1531.54 1316.54 1533.1 Q1319.37 1534.62 1321.22 1537.81 M1301.26 1550.25 Q1301.26 1556.71 1303.9 1560.4 Q1306.58 1564.07 1311.22 1564.07 Q1315.87 1564.07 1318.54 1560.4 Q1321.22 1556.71 1321.22 1550.25 Q1321.22 1543.79 1318.54 1540.13 Q1315.87 1536.44 1311.22 1536.44 Q1306.58 1536.44 1303.9 1540.13 Q1301.26 1543.79 1301.26 1550.25 Z" fill="#000000" fill-rule="nonzero" fill-opacity="1" /><path clip-path="url(#clip240)" d="M1360.11 1520.52 L1366.54 1520.52 L1366.54 1568.04 L1360.11 1568.04 L1360.11 1520.52 Z" fill="#000000" fill-rule="nonzero" fill-opacity="1" /><path clip-path="url(#clip240)" d="M1385.77 1525.81 L1385.77 1562.76 L1393.53 1562.76 Q1403.37 1562.76 1407.92 1558.3 Q1412.5 1553.85 1412.5 1544.24 Q1412.5 1534.69 1407.92 1530.26 Q1403.37 1525.81 1393.53 1525.81 L1385.77 1525.81 M1379.34 1520.52 L1392.54 1520.52 Q1406.36 1520.52 1412.82 1526.28 Q1419.28 1532.01 1419.28 1544.24 Q1419.28 1556.52 1412.79 1562.28 Q1406.29 1568.04 1392.54 1568.04 L1379.34 1568.04 L1379.34 1520.52 Z" fill="#000000" fill-rule="nonzero" fill-opacity="1" /><polyline clip-path="url(#clip240)" style="stroke:#000000; stroke-linecap:round; stroke-linejoin:round; stroke-width:4; stroke-opacity:1; fill:none" points="249.542,1423.18 249.542,123.472 "/>
<polyline clip-path="url(#clip240)" style="stroke:#000000; stroke-linecap:round; stroke-linejoin:round; stroke-width:4; stroke-opacity:1; fill:none" points="249.542,1423.18 268.44,1423.18 "/>
<polyline clip-path="url(#clip240)" style="stroke:#000000; stroke-linecap:round; stroke-linejoin:round; stroke-width:4; stroke-opacity:1; fill:none" points="249.542,1189.45 268.44,1189.45 "/>
<polyline clip-path="url(#clip240)" style="stroke:#000000; stroke-linecap:round; stroke-linejoin:round; stroke-width:4; stroke-opacity:1; fill:none" points="249.542,955.728 268.44,955.728 "/>
<polyline clip-path="url(#clip240)" style="stroke:#000000; stroke-linecap:round; stroke-linejoin:round; stroke-width:4; stroke-opacity:1; fill:none" points="249.542,722.003 268.44,722.003 "/>
<polyline clip-path="url(#clip240)" style="stroke:#000000; stroke-linecap:round; stroke-linejoin:round; stroke-width:4; stroke-opacity:1; fill:none" points="249.542,488.277 268.44,488.277 "/>
<polyline clip-path="url(#clip240)" style="stroke:#000000; stroke-linecap:round; stroke-linejoin:round; stroke-width:4; stroke-opacity:1; fill:none" points="249.542,254.551 268.44,254.551 "/>
<path clip-path="url(#clip240)" d="M126.205 1408.98 Q122.593 1408.98 120.765 1412.54 Q118.959 1416.08 118.959 1423.21 Q118.959 1430.32 120.765 1433.89 Q122.593 1437.43 126.205 1437.43 Q129.839 1437.43 131.644 1433.89 Q133.473 1430.32 133.473 1423.21 Q133.473 1416.08 131.644 1412.54 Q129.839 1408.98 126.205 1408.98 M126.205 1405.27 Q132.015 1405.27 135.07 1409.88 Q138.149 1414.46 138.149 1423.21 Q138.149 1431.94 135.07 1436.55 Q132.015 1441.13 126.205 1441.13 Q120.394 1441.13 117.316 1436.55 Q114.26 1431.94 114.26 1423.21 Q114.26 1414.46 117.316 1409.88 Q120.394 1405.27 126.205 1405.27 Z" fill="#000000" fill-rule="nonzero" fill-opacity="1" /><path clip-path="url(#clip240)" d="M146.366 1434.58 L151.251 1434.58 L151.251 1440.46 L146.366 1440.46 L146.366 1434.58 Z" fill="#000000" fill-rule="nonzero" fill-opacity="1" /><path clip-path="url(#clip240)" d="M171.436 1408.98 Q167.825 1408.98 165.996 1412.54 Q164.19 1416.08 164.19 1423.21 Q164.19 1430.32 165.996 1433.89 Q167.825 1437.43 171.436 1437.43 Q175.07 1437.43 176.876 1433.89 Q178.704 1430.32 178.704 1423.21 Q178.704 1416.08 176.876 1412.54 Q175.07 1408.98 171.436 1408.98 M171.436 1405.27 Q177.246 1405.27 180.301 1409.88 Q183.38 1414.46 183.38 1423.21 Q183.38 1431.94 180.301 1436.55 Q177.246 1441.13 171.436 1441.13 Q165.626 1441.13 162.547 1436.55 Q159.491 1431.94 159.491 1423.21 Q159.491 1414.46 162.547 1409.88 Q165.626 1405.27 171.436 1405.27 Z" fill="#000000" fill-rule="nonzero" fill-opacity="1" /><path clip-path="url(#clip240)" d="M201.598 1408.98 Q197.987 1408.98 196.158 1412.54 Q194.352 1416.08 194.352 1423.21 Q194.352 1430.32 196.158 1433.89 Q197.987 1437.43 201.598 1437.43 Q205.232 1437.43 207.037 1433.89 Q208.866 1430.32 208.866 1423.21 Q208.866 1416.08 207.037 1412.54 Q205.232 1408.98 201.598 1408.98 M201.598 1405.27 Q207.408 1405.27 210.463 1409.88 Q213.542 1414.46 213.542 1423.21 Q213.542 1431.94 210.463 1436.55 Q207.408 1441.13 201.598 1441.13 Q195.787 1441.13 192.709 1436.55 Q189.653 1431.94 189.653 1423.21 Q189.653 1414.46 192.709 1409.88 Q195.787 1405.27 201.598 1405.27 Z" fill="#000000" fill-rule="nonzero" fill-opacity="1" /><path clip-path="url(#clip240)" d="M127.2 1175.25 Q123.589 1175.25 121.76 1178.82 Q119.955 1182.36 119.955 1189.49 Q119.955 1196.6 121.76 1200.16 Q123.589 1203.7 127.2 1203.7 Q130.834 1203.7 132.64 1200.16 Q134.468 1196.6 134.468 1189.49 Q134.468 1182.36 132.64 1178.82 Q130.834 1175.25 127.2 1175.25 M127.2 1171.55 Q133.01 1171.55 136.066 1176.16 Q139.144 1180.74 139.144 1189.49 Q139.144 1198.22 136.066 1202.82 Q133.01 1207.41 127.2 1207.41 Q121.39 1207.41 118.311 1202.82 Q115.256 1198.22 115.256 1189.49 Q115.256 1180.74 118.311 1176.16 Q121.39 1171.55 127.2 1171.55 Z" fill="#000000" fill-rule="nonzero" fill-opacity="1" /><path clip-path="url(#clip240)" d="M147.362 1200.85 L152.246 1200.85 L152.246 1206.73 L147.362 1206.73 L147.362 1200.85 Z" fill="#000000" fill-rule="nonzero" fill-opacity="1" /><path clip-path="url(#clip240)" d="M172.431 1175.25 Q168.82 1175.25 166.991 1178.82 Q165.186 1182.36 165.186 1189.49 Q165.186 1196.6 166.991 1200.16 Q168.82 1203.7 172.431 1203.7 Q176.065 1203.7 177.871 1200.16 Q179.7 1196.6 179.7 1189.49 Q179.7 1182.36 177.871 1178.82 Q176.065 1175.25 172.431 1175.25 M172.431 1171.55 Q178.241 1171.55 181.297 1176.16 Q184.376 1180.74 184.376 1189.49 Q184.376 1198.22 181.297 1202.82 Q178.241 1207.41 172.431 1207.41 Q166.621 1207.41 163.542 1202.82 Q160.487 1198.22 160.487 1189.49 Q160.487 1180.74 163.542 1176.16 Q166.621 1171.55 172.431 1171.55 Z" fill="#000000" fill-rule="nonzero" fill-opacity="1" /><path clip-path="url(#clip240)" d="M192.639 1172.17 L210.996 1172.17 L210.996 1176.11 L196.922 1176.11 L196.922 1184.58 Q197.94 1184.23 198.959 1184.07 Q199.977 1183.89 200.996 1183.89 Q206.783 1183.89 210.162 1187.06 Q213.542 1190.23 213.542 1195.65 Q213.542 1201.22 210.07 1204.33 Q206.598 1207.41 200.278 1207.41 Q198.102 1207.41 195.834 1207.04 Q193.588 1206.66 191.181 1205.92 L191.181 1201.22 Q193.264 1202.36 195.487 1202.91 Q197.709 1203.47 200.186 1203.47 Q204.19 1203.47 206.528 1201.36 Q208.866 1199.26 208.866 1195.65 Q208.866 1192.04 206.528 1189.93 Q204.19 1187.82 200.186 1187.82 Q198.311 1187.82 196.436 1188.24 Q194.584 1188.66 192.639 1189.54 L192.639 1172.17 Z" fill="#000000" fill-rule="nonzero" fill-opacity="1" /><path clip-path="url(#clip240)" d="M126.205 941.527 Q122.593 941.527 120.765 945.092 Q118.959 948.634 118.959 955.763 Q118.959 962.87 120.765 966.434 Q122.593 969.976 126.205 969.976 Q129.839 969.976 131.644 966.434 Q133.473 962.87 133.473 955.763 Q133.473 948.634 131.644 945.092 Q129.839 941.527 126.205 941.527 M126.205 937.823 Q132.015 937.823 135.07 942.43 Q138.149 947.013 138.149 955.763 Q138.149 964.49 135.07 969.096 Q132.015 973.68 126.205 973.68 Q120.394 973.68 117.316 969.096 Q114.26 964.49 114.26 955.763 Q114.26 947.013 117.316 942.43 Q120.394 937.823 126.205 937.823 Z" fill="#000000" fill-rule="nonzero" fill-opacity="1" /><path clip-path="url(#clip240)" d="M146.366 967.129 L151.251 967.129 L151.251 973.008 L146.366 973.008 L146.366 967.129 Z" fill="#000000" fill-rule="nonzero" fill-opacity="1" /><path clip-path="url(#clip240)" d="M162.246 969.073 L169.885 969.073 L169.885 942.708 L161.575 944.374 L161.575 940.115 L169.839 938.448 L174.514 938.448 L174.514 969.073 L182.153 969.073 L182.153 973.008 L162.246 973.008 L162.246 969.073 Z" fill="#000000" fill-rule="nonzero" fill-opacity="1" /><path clip-path="url(#clip240)" d="M201.598 941.527 Q197.987 941.527 196.158 945.092 Q194.352 948.634 194.352 955.763 Q194.352 962.87 196.158 966.434 Q197.987 969.976 201.598 969.976 Q205.232 969.976 207.037 966.434 Q208.866 962.87 208.866 955.763 Q208.866 948.634 207.037 945.092 Q205.232 941.527 201.598 941.527 M201.598 937.823 Q207.408 937.823 210.463 942.43 Q213.542 947.013 213.542 955.763 Q213.542 964.49 210.463 969.096 Q207.408 973.68 201.598 973.68 Q195.787 973.68 192.709 969.096 Q189.653 964.49 189.653 955.763 Q189.653 947.013 192.709 942.43 Q195.787 937.823 201.598 937.823 Z" fill="#000000" fill-rule="nonzero" fill-opacity="1" /><path clip-path="url(#clip240)" d="M127.2 707.801 Q123.589 707.801 121.76 711.366 Q119.955 714.908 119.955 722.037 Q119.955 729.144 121.76 732.709 Q123.589 736.25 127.2 736.25 Q130.834 736.25 132.64 732.709 Q134.468 729.144 134.468 722.037 Q134.468 714.908 132.64 711.366 Q130.834 707.801 127.2 707.801 M127.2 704.098 Q133.01 704.098 136.066 708.704 Q139.144 713.287 139.144 722.037 Q139.144 730.764 136.066 735.371 Q133.01 739.954 127.2 739.954 Q121.39 739.954 118.311 735.371 Q115.256 730.764 115.256 722.037 Q115.256 713.287 118.311 708.704 Q121.39 704.098 127.2 704.098 Z" fill="#000000" fill-rule="nonzero" fill-opacity="1" /><path clip-path="url(#clip240)" d="M147.362 733.403 L152.246 733.403 L152.246 739.283 L147.362 739.283 L147.362 733.403 Z" fill="#000000" fill-rule="nonzero" fill-opacity="1" /><path clip-path="url(#clip240)" d="M163.241 735.348 L170.88 735.348 L170.88 708.982 L162.57 710.649 L162.57 706.389 L170.834 704.723 L175.51 704.723 L175.51 735.348 L183.149 735.348 L183.149 739.283 L163.241 739.283 L163.241 735.348 Z" fill="#000000" fill-rule="nonzero" fill-opacity="1" /><path clip-path="url(#clip240)" d="M192.639 704.723 L210.996 704.723 L210.996 708.658 L196.922 708.658 L196.922 717.13 Q197.94 716.783 198.959 716.621 Q199.977 716.436 200.996 716.436 Q206.783 716.436 210.162 719.607 Q213.542 722.778 213.542 728.195 Q213.542 733.773 210.07 736.875 Q206.598 739.954 200.278 739.954 Q198.102 739.954 195.834 739.584 Q193.588 739.213 191.181 738.472 L191.181 733.773 Q193.264 734.908 195.487 735.463 Q197.709 736.019 200.186 736.019 Q204.19 736.019 206.528 733.912 Q208.866 731.806 208.866 728.195 Q208.866 724.584 206.528 722.477 Q204.19 720.371 200.186 720.371 Q198.311 720.371 196.436 720.787 Q194.584 721.204 192.639 722.084 L192.639 704.723 Z" fill="#000000" fill-rule="nonzero" fill-opacity="1" /><path clip-path="url(#clip240)" d="M126.205 474.076 Q122.593 474.076 120.765 477.64 Q118.959 481.182 118.959 488.312 Q118.959 495.418 120.765 498.983 Q122.593 502.525 126.205 502.525 Q129.839 502.525 131.644 498.983 Q133.473 495.418 133.473 488.312 Q133.473 481.182 131.644 477.64 Q129.839 474.076 126.205 474.076 M126.205 470.372 Q132.015 470.372 135.07 474.978 Q138.149 479.562 138.149 488.312 Q138.149 497.038 135.07 501.645 Q132.015 506.228 126.205 506.228 Q120.394 506.228 117.316 501.645 Q114.26 497.038 114.26 488.312 Q114.26 479.562 117.316 474.978 Q120.394 470.372 126.205 470.372 Z" fill="#000000" fill-rule="nonzero" fill-opacity="1" /><path clip-path="url(#clip240)" d="M146.366 499.677 L151.251 499.677 L151.251 505.557 L146.366 505.557 L146.366 499.677 Z" fill="#000000" fill-rule="nonzero" fill-opacity="1" /><path clip-path="url(#clip240)" d="M165.464 501.622 L181.783 501.622 L181.783 505.557 L159.839 505.557 L159.839 501.622 Q162.501 498.867 167.084 494.238 Q171.69 489.585 172.871 488.242 Q175.116 485.719 175.996 483.983 Q176.899 482.224 176.899 480.534 Q176.899 477.779 174.954 476.043 Q173.033 474.307 169.931 474.307 Q167.732 474.307 165.278 475.071 Q162.848 475.835 160.07 477.386 L160.07 472.664 Q162.894 471.529 165.348 470.951 Q167.802 470.372 169.839 470.372 Q175.209 470.372 178.403 473.057 Q181.598 475.742 181.598 480.233 Q181.598 482.363 180.788 484.284 Q180.001 486.182 177.894 488.775 Q177.315 489.446 174.214 492.664 Q171.112 495.858 165.464 501.622 Z" fill="#000000" fill-rule="nonzero" fill-opacity="1" /><path clip-path="url(#clip240)" d="M201.598 474.076 Q197.987 474.076 196.158 477.64 Q194.352 481.182 194.352 488.312 Q194.352 495.418 196.158 498.983 Q197.987 502.525 201.598 502.525 Q205.232 502.525 207.037 498.983 Q208.866 495.418 208.866 488.312 Q208.866 481.182 207.037 477.64 Q205.232 474.076 201.598 474.076 M201.598 470.372 Q207.408 470.372 210.463 474.978 Q213.542 479.562 213.542 488.312 Q213.542 497.038 210.463 501.645 Q207.408 506.228 201.598 506.228 Q195.787 506.228 192.709 501.645 Q189.653 497.038 189.653 488.312 Q189.653 479.562 192.709 474.978 Q195.787 470.372 201.598 470.372 Z" fill="#000000" fill-rule="nonzero" fill-opacity="1" /><path clip-path="url(#clip240)" d="M127.2 240.35 Q123.589 240.35 121.76 243.915 Q119.955 247.456 119.955 254.586 Q119.955 261.692 121.76 265.257 Q123.589 268.799 127.2 268.799 Q130.834 268.799 132.64 265.257 Q134.468 261.692 134.468 254.586 Q134.468 247.456 132.64 243.915 Q130.834 240.35 127.2 240.35 M127.2 236.646 Q133.01 236.646 136.066 241.253 Q139.144 245.836 139.144 254.586 Q139.144 263.313 136.066 267.919 Q133.01 272.503 127.2 272.503 Q121.39 272.503 118.311 267.919 Q115.256 263.313 115.256 254.586 Q115.256 245.836 118.311 241.253 Q121.39 236.646 127.2 236.646 Z" fill="#000000" fill-rule="nonzero" fill-opacity="1" /><path clip-path="url(#clip240)" d="M147.362 265.952 L152.246 265.952 L152.246 271.831 L147.362 271.831 L147.362 265.952 Z" fill="#000000" fill-rule="nonzero" fill-opacity="1" /><path clip-path="url(#clip240)" d="M166.459 267.896 L182.778 267.896 L182.778 271.831 L160.834 271.831 L160.834 267.896 Q163.496 265.141 168.079 260.512 Q172.686 255.859 173.866 254.517 Q176.112 251.993 176.991 250.257 Q177.894 248.498 177.894 246.808 Q177.894 244.054 175.95 242.318 Q174.028 240.581 170.927 240.581 Q168.727 240.581 166.274 241.345 Q163.843 242.109 161.065 243.66 L161.065 238.938 Q163.89 237.804 166.343 237.225 Q168.797 236.646 170.834 236.646 Q176.204 236.646 179.399 239.331 Q182.593 242.017 182.593 246.507 Q182.593 248.637 181.783 250.558 Q180.996 252.456 178.889 255.049 Q178.311 255.72 175.209 258.938 Q172.107 262.132 166.459 267.896 Z" fill="#000000" fill-rule="nonzero" fill-opacity="1" /><path clip-path="url(#clip240)" d="M192.639 237.271 L210.996 237.271 L210.996 241.206 L196.922 241.206 L196.922 249.679 Q197.94 249.331 198.959 249.169 Q199.977 248.984 200.996 248.984 Q206.783 248.984 210.162 252.155 Q213.542 255.327 213.542 260.743 Q213.542 266.322 210.07 269.424 Q206.598 272.503 200.278 272.503 Q198.102 272.503 195.834 272.132 Q193.588 271.762 191.181 271.021 L191.181 266.322 Q193.264 267.456 195.487 268.012 Q197.709 268.567 200.186 268.567 Q204.19 268.567 206.528 266.461 Q208.866 264.354 208.866 260.743 Q208.866 257.132 206.528 255.026 Q204.19 252.919 200.186 252.919 Q198.311 252.919 196.436 253.336 Q194.584 253.753 192.639 254.632 L192.639 237.271 Z" fill="#000000" fill-rule="nonzero" fill-opacity="1" /><path clip-path="url(#clip240)" d="M16.4842 1039.99 L16.4842 1012.68 L21.895 1012.68 L21.895 1033.56 L35.8996 1033.56 L35.8996 1014.71 L41.3104 1014.71 L41.3104 1033.56 L64.0042 1033.56 L64.0042 1039.99 L16.4842 1039.99 Z" fill="#000000" fill-rule="nonzero" fill-opacity="1" /><path clip-path="url(#clip240)" d="M46.0847 992.529 Q46.0847 999.627 47.7079 1002.36 Q49.3312 1005.1 53.2461 1005.1 Q56.3653 1005.1 58.2114 1003.06 Q60.0256 1001 60.0256 997.463 Q60.0256 992.593 56.5881 989.665 Q53.1188 986.704 47.3897 986.704 L46.0847 986.704 L46.0847 992.529 M43.6657 980.848 L64.0042 980.848 L64.0042 986.704 L58.5933 986.704 Q61.8398 988.71 63.3994 991.702 Q64.9272 994.693 64.9272 999.022 Q64.9272 1004.5 61.8716 1007.74 Q58.7843 1010.96 53.6281 1010.96 Q47.6125 1010.96 44.5569 1006.95 Q41.5014 1002.91 41.5014 994.916 L41.5014 986.704 L40.9285 986.704 Q36.8862 986.704 34.6901 989.378 Q32.4621 992.02 32.4621 996.826 Q32.4621 999.881 33.1941 1002.78 Q33.9262 1005.67 35.3903 1008.35 L29.9795 1008.35 Q28.7381 1005.13 28.1334 1002.11 Q27.4968 999.086 27.4968 996.221 Q27.4968 988.487 31.5072 984.667 Q35.5176 980.848 43.6657 980.848 Z" fill="#000000" fill-rule="nonzero" fill-opacity="1" /><path clip-path="url(#clip240)" d="M28.3562 968.785 L28.3562 962.929 L64.0042 962.929 L64.0042 968.785 L28.3562 968.785 M14.479 968.785 L14.479 962.929 L21.895 962.929 L21.895 968.785 L14.479 968.785 Z" fill="#000000" fill-rule="nonzero" fill-opacity="1" /><path clip-path="url(#clip240)" d="M33.8307 930.018 Q33.2578 931.005 33.0032 932.182 Q32.7167 933.328 32.7167 934.728 Q32.7167 939.694 35.9632 942.367 Q39.1779 945.009 45.2253 945.009 L64.0042 945.009 L64.0042 950.897 L28.3562 950.897 L28.3562 945.009 L33.8944 945.009 Q30.6479 943.163 29.0883 940.203 Q27.4968 937.243 27.4968 933.01 Q27.4968 932.405 27.5923 931.673 Q27.656 930.941 27.8151 930.05 L33.8307 930.018 Z" fill="#000000" fill-rule="nonzero" fill-opacity="1" /><path clip-path="url(#clip240)" d="M16.4842 902.9 L16.4842 896.471 L58.5933 896.471 L58.5933 873.331 L64.0042 873.331 L64.0042 902.9 L16.4842 902.9 Z" fill="#000000" fill-rule="nonzero" fill-opacity="1" /><path clip-path="url(#clip240)" d="M32.4621 854.17 Q32.4621 858.881 36.1542 861.618 Q39.8145 864.356 46.212 864.356 Q52.6095 864.356 56.3017 861.65 Q59.9619 858.913 59.9619 854.17 Q59.9619 849.492 56.2698 846.754 Q52.5777 844.017 46.212 844.017 Q39.8781 844.017 36.186 846.754 Q32.4621 849.492 32.4621 854.17 M27.4968 854.17 Q27.4968 846.532 32.4621 842.171 Q37.4273 837.811 46.212 837.811 Q54.9649 837.811 59.9619 842.171 Q64.9272 846.532 64.9272 854.17 Q64.9272 861.841 59.9619 866.202 Q54.9649 870.53 46.212 870.53 Q37.4273 870.53 32.4621 866.202 Q27.4968 861.841 27.4968 854.17 Z" fill="#000000" fill-rule="nonzero" fill-opacity="1" /><path clip-path="url(#clip240)" d="M46.0847 811.902 Q46.0847 819 47.7079 821.737 Q49.3312 824.474 53.2461 824.474 Q56.3653 824.474 58.2114 822.437 Q60.0256 820.369 60.0256 816.836 Q60.0256 811.966 56.5881 809.038 Q53.1188 806.078 47.3897 806.078 L46.0847 806.078 L46.0847 811.902 M43.6657 800.221 L64.0042 800.221 L64.0042 806.078 L58.5933 806.078 Q61.8398 808.083 63.3994 811.075 Q64.9272 814.067 64.9272 818.395 Q64.9272 823.87 61.8716 827.116 Q58.7843 830.331 53.6281 830.331 Q47.6125 830.331 44.5569 826.32 Q41.5014 822.278 41.5014 814.289 L41.5014 806.078 L40.9285 806.078 Q36.8862 806.078 34.6901 808.751 Q32.4621 811.393 32.4621 816.199 Q32.4621 819.255 33.1941 822.151 Q33.9262 825.047 35.3903 827.721 L29.9795 827.721 Q28.7381 824.506 28.1334 821.483 Q27.4968 818.459 27.4968 815.594 Q27.4968 807.86 31.5072 804.041 Q35.5176 800.221 43.6657 800.221 Z" fill="#000000" fill-rule="nonzero" fill-opacity="1" /><path clip-path="url(#clip240)" d="M33.7671 764.7 L14.479 764.7 L14.479 758.844 L64.0042 758.844 L64.0042 764.7 L58.657 764.7 Q61.8398 766.547 63.3994 769.379 Q64.9272 772.18 64.9272 776.127 Q64.9272 782.588 59.771 786.662 Q54.6147 790.704 46.212 790.704 Q37.8093 790.704 32.6531 786.662 Q27.4968 782.588 27.4968 776.127 Q27.4968 772.18 29.0564 769.379 Q30.5842 766.547 33.7671 764.7 M46.212 784.657 Q52.6732 784.657 56.3653 782.015 Q60.0256 779.342 60.0256 774.695 Q60.0256 770.048 56.3653 767.374 Q52.6732 764.7 46.212 764.7 Q39.7508 764.7 36.0905 767.374 Q32.3984 770.048 32.3984 774.695 Q32.3984 779.342 36.0905 782.015 Q39.7508 784.657 46.212 784.657 Z" fill="#000000" fill-rule="nonzero" fill-opacity="1" /><path clip-path="url(#clip240)" d="M16.4842 730.039 L16.4842 723.546 L56.6518 713.552 L16.4842 703.59 L16.4842 696.365 L56.6518 686.37 L16.4842 676.408 L16.4842 669.883 L64.0042 681.819 L64.0042 689.903 L22.7544 699.929 L64.0042 710.051 L64.0042 718.135 L16.4842 730.039 Z" fill="#000000" fill-rule="nonzero" fill-opacity="1" /><path clip-path="url(#clip240)" d="M44.7161 634.936 L47.5806 634.936 L47.5806 661.862 Q53.6281 661.481 56.8109 658.234 Q59.9619 654.956 59.9619 649.131 Q59.9619 645.757 59.1344 642.606 Q58.3069 639.423 56.6518 636.304 L62.1899 636.304 Q63.5267 639.455 64.227 642.765 Q64.9272 646.076 64.9272 649.481 Q64.9272 658.011 59.9619 663.008 Q54.9967 667.974 46.5303 667.974 Q37.7774 667.974 32.6531 663.263 Q27.4968 658.52 27.4968 650.5 Q27.4968 643.306 32.1438 639.137 Q36.7589 634.936 44.7161 634.936 M42.9973 640.792 Q38.1912 640.856 35.3266 643.497 Q32.4621 646.107 32.4621 650.436 Q32.4621 655.338 35.2312 658.298 Q38.0002 661.226 43.0292 661.671 L42.9973 640.792 Z" fill="#000000" fill-rule="nonzero" fill-opacity="1" /><path clip-path="url(#clip240)" d="M28.3562 625.323 L28.3562 619.467 L64.0042 619.467 L64.0042 625.323 L28.3562 625.323 M14.479 625.323 L14.479 619.467 L21.895 619.467 L21.895 625.323 L14.479 625.323 Z" fill="#000000" fill-rule="nonzero" fill-opacity="1" /><path clip-path="url(#clip240)" d="M45.7664 583.755 Q39.4007 583.755 35.8996 586.397 Q32.3984 589.007 32.3984 593.749 Q32.3984 598.46 35.8996 601.102 Q39.4007 603.712 45.7664 603.712 Q52.1003 603.712 55.6014 601.102 Q59.1026 598.46 59.1026 593.749 Q59.1026 589.007 55.6014 586.397 Q52.1003 583.755 45.7664 583.755 M59.58 577.899 Q68.683 577.899 73.1071 581.941 Q77.5631 585.983 77.5631 594.322 Q77.5631 597.41 77.0857 600.147 Q76.6401 602.884 75.6852 605.462 L69.9879 605.462 Q71.3884 602.884 72.0568 600.37 Q72.7252 597.855 72.7252 595.245 Q72.7252 589.484 69.7015 586.62 Q66.7096 583.755 60.6303 583.755 L57.7339 583.755 Q60.885 585.569 62.4446 588.402 Q64.0042 591.235 64.0042 595.182 Q64.0042 601.738 59.0071 605.749 Q54.01 609.759 45.7664 609.759 Q37.491 609.759 32.4939 605.749 Q27.4968 601.738 27.4968 595.182 Q27.4968 591.235 29.0564 588.402 Q30.616 585.569 33.7671 583.755 L28.3562 583.755 L28.3562 577.899 L59.58 577.899 Z" fill="#000000" fill-rule="nonzero" fill-opacity="1" /><path clip-path="url(#clip240)" d="M42.4881 536.203 L64.0042 536.203 L64.0042 542.06 L42.679 542.06 Q37.6183 542.06 35.1038 544.033 Q32.5894 546.007 32.5894 549.953 Q32.5894 554.696 35.6131 557.433 Q38.6368 560.17 43.8567 560.17 L64.0042 560.17 L64.0042 566.059 L14.479 566.059 L14.479 560.17 L33.8944 560.17 Q30.6797 558.07 29.0883 555.237 Q27.4968 552.372 27.4968 548.648 Q27.4968 542.505 31.3163 539.354 Q35.1038 536.203 42.4881 536.203 Z" fill="#000000" fill-rule="nonzero" fill-opacity="1" /><path clip-path="url(#clip240)" d="M18.2347 518.73 L28.3562 518.73 L28.3562 506.667 L32.9077 506.667 L32.9077 518.73 L52.2594 518.73 Q56.6199 518.73 57.8613 517.552 Q59.1026 516.342 59.1026 512.682 L59.1026 506.667 L64.0042 506.667 L64.0042 512.682 Q64.0042 519.462 61.4897 522.04 Q58.9434 524.618 52.2594 524.618 L32.9077 524.618 L32.9077 528.915 L28.3562 528.915 L28.3562 524.618 L18.2347 524.618 L18.2347 518.73 Z" fill="#000000" fill-rule="nonzero" fill-opacity="1" /><path clip-path="url(#clip240)" d="M491.657 12.096 L526.414 12.096 L526.414 18.9825 L499.84 18.9825 L499.84 36.8065 L523.821 36.8065 L523.821 43.6931 L499.84 43.6931 L499.84 72.576 L491.657 72.576 L491.657 12.096 Z" fill="#000000" fill-rule="nonzero" fill-opacity="1" /><path clip-path="url(#clip240)" d="M552.056 49.7694 Q543.022 49.7694 539.538 51.8354 Q536.055 53.9013 536.055 58.8839 Q536.055 62.8538 538.647 65.2034 Q541.28 67.5124 545.777 67.5124 Q551.975 67.5124 555.702 63.1374 Q559.469 58.7219 559.469 51.4303 L559.469 49.7694 L552.056 49.7694 M566.923 46.6907 L566.923 72.576 L559.469 72.576 L559.469 65.6895 Q556.917 69.8214 553.109 71.8063 Q549.301 73.7508 543.792 73.7508 Q536.824 73.7508 532.692 69.8619 Q528.601 65.9325 528.601 59.3701 Q528.601 51.7138 533.705 47.825 Q538.85 43.9361 549.018 43.9361 L559.469 43.9361 L559.469 43.2069 Q559.469 38.0623 556.066 35.2672 Q552.704 32.4315 546.587 32.4315 Q542.698 32.4315 539.012 33.3632 Q535.326 34.295 531.923 36.1584 L531.923 29.2718 Q536.014 27.692 539.863 26.9223 Q543.711 26.1121 547.357 26.1121 Q557.2 26.1121 562.061 31.2163 Q566.923 36.3204 566.923 46.6907 Z" fill="#000000" fill-rule="nonzero" fill-opacity="1" /><path clip-path="url(#clip240)" d="M582.276 27.2059 L589.729 27.2059 L589.729 72.576 L582.276 72.576 L582.276 27.2059 M582.276 9.54393 L589.729 9.54393 L589.729 18.9825 L582.276 18.9825 L582.276 9.54393 Z" fill="#000000" fill-rule="nonzero" fill-opacity="1" /><path clip-path="url(#clip240)" d="M631.616 34.1734 Q630.36 33.4443 628.861 33.1202 Q627.403 32.7556 625.62 32.7556 Q619.301 32.7556 615.898 36.8875 Q612.536 40.9789 612.536 48.6757 L612.536 72.576 L605.042 72.576 L605.042 27.2059 L612.536 27.2059 L612.536 34.2544 Q614.885 30.1225 618.653 28.1376 Q622.42 26.1121 627.808 26.1121 Q628.577 26.1121 629.509 26.2337 Q630.441 26.3147 631.575 26.5172 L631.616 34.1734 Z" fill="#000000" fill-rule="nonzero" fill-opacity="1" /><path clip-path="url(#clip240)" d="M666.129 12.096 L674.312 12.096 L674.312 65.6895 L703.762 65.6895 L703.762 72.576 L666.129 72.576 L666.129 12.096 Z" fill="#000000" fill-rule="nonzero" fill-opacity="1" /><path clip-path="url(#clip240)" d="M728.149 32.4315 Q722.153 32.4315 718.669 37.1306 Q715.186 41.7891 715.186 49.9314 Q715.186 58.0738 718.629 62.7728 Q722.113 67.4314 728.149 67.4314 Q734.103 67.4314 737.587 62.7323 Q741.071 58.0333 741.071 49.9314 Q741.071 41.8701 737.587 37.1711 Q734.103 32.4315 728.149 32.4315 M728.149 26.1121 Q737.871 26.1121 743.42 32.4315 Q748.97 38.7509 748.97 49.9314 Q748.97 61.0714 743.42 67.4314 Q737.871 73.7508 728.149 73.7508 Q718.386 73.7508 712.836 67.4314 Q707.327 61.0714 707.327 49.9314 Q707.327 38.7509 712.836 32.4315 Q718.386 26.1121 728.149 26.1121 Z" fill="#000000" fill-rule="nonzero" fill-opacity="1" /><path clip-path="url(#clip240)" d="M781.945 49.7694 Q772.911 49.7694 769.427 51.8354 Q765.944 53.9013 765.944 58.8839 Q765.944 62.8538 768.536 65.2034 Q771.169 67.5124 775.666 67.5124 Q781.864 67.5124 785.59 63.1374 Q789.358 58.7219 789.358 51.4303 L789.358 49.7694 L781.945 49.7694 M796.811 46.6907 L796.811 72.576 L789.358 72.576 L789.358 65.6895 Q786.806 69.8214 782.998 71.8063 Q779.19 73.7508 773.681 73.7508 Q766.713 73.7508 762.581 69.8619 Q758.49 65.9325 758.49 59.3701 Q758.49 51.7138 763.594 47.825 Q768.739 43.9361 778.906 43.9361 L789.358 43.9361 L789.358 43.2069 Q789.358 38.0623 785.955 35.2672 Q782.593 32.4315 776.476 32.4315 Q772.587 32.4315 768.901 33.3632 Q765.214 34.295 761.812 36.1584 L761.812 29.2718 Q765.903 27.692 769.751 26.9223 Q773.6 26.1121 777.246 26.1121 Q787.089 26.1121 791.95 31.2163 Q796.811 36.3204 796.811 46.6907 Z" fill="#000000" fill-rule="nonzero" fill-opacity="1" /><path clip-path="url(#clip240)" d="M842.019 34.0924 L842.019 9.54393 L849.473 9.54393 L849.473 72.576 L842.019 72.576 L842.019 65.7705 Q839.67 69.8214 836.065 71.8063 Q832.5 73.7508 827.477 73.7508 Q819.253 73.7508 814.068 67.1883 Q808.924 60.6258 808.924 49.9314 Q808.924 39.2371 814.068 32.6746 Q819.253 26.1121 827.477 26.1121 Q832.5 26.1121 836.065 28.0971 Q839.67 30.0415 842.019 34.0924 M816.62 49.9314 Q816.62 58.1548 819.983 62.8538 Q823.385 67.5124 829.3 67.5124 Q835.214 67.5124 838.617 62.8538 Q842.019 58.1548 842.019 49.9314 Q842.019 41.7081 838.617 37.0496 Q835.214 32.3505 829.3 32.3505 Q823.385 32.3505 819.983 37.0496 Q816.62 41.7081 816.62 49.9314 Z" fill="#000000" fill-rule="nonzero" fill-opacity="1" /><path clip-path="url(#clip240)" d="M886.134 12.096 L894.398 12.096 L907.118 63.2184 L919.797 12.096 L928.992 12.096 L941.712 63.2184 L954.392 12.096 L962.696 12.096 L947.505 72.576 L937.216 72.576 L924.455 20.0763 L911.574 72.576 L901.284 72.576 L886.134 12.096 Z" fill="#000000" fill-rule="nonzero" fill-opacity="1" /><path clip-path="url(#clip240)" d="M1007.17 48.0275 L1007.17 51.6733 L972.904 51.6733 Q973.39 59.3701 977.522 63.421 Q981.695 67.4314 989.108 67.4314 Q993.402 67.4314 997.412 66.3781 Q1001.46 65.3249 1005.43 63.2184 L1005.43 70.267 Q1001.42 71.9684 997.21 72.8596 Q992.997 73.7508 988.662 73.7508 Q977.806 73.7508 971.446 67.4314 Q965.126 61.1119 965.126 50.3365 Q965.126 39.1965 971.122 32.6746 Q977.158 26.1121 987.366 26.1121 Q996.521 26.1121 1001.83 32.0264 Q1007.17 37.9003 1007.17 48.0275 M999.721 45.84 Q999.64 39.7232 996.278 36.0774 Q992.956 32.4315 987.447 32.4315 Q981.209 32.4315 977.441 35.9558 Q973.714 39.4801 973.147 45.8805 L999.721 45.84 Z" fill="#000000" fill-rule="nonzero" fill-opacity="1" /><path clip-path="url(#clip240)" d="M1019.41 27.2059 L1026.86 27.2059 L1026.86 72.576 L1019.41 72.576 L1019.41 27.2059 M1019.41 9.54393 L1026.86 9.54393 L1026.86 18.9825 L1019.41 18.9825 L1019.41 9.54393 Z" fill="#000000" fill-rule="nonzero" fill-opacity="1" /><path clip-path="url(#clip240)" d="M1072.31 49.3643 Q1072.31 41.2625 1068.95 36.8065 Q1065.63 32.3505 1059.59 32.3505 Q1053.6 32.3505 1050.24 36.8065 Q1046.91 41.2625 1046.91 49.3643 Q1046.91 57.4256 1050.24 61.8816 Q1053.6 66.3376 1059.59 66.3376 Q1065.63 66.3376 1068.95 61.8816 Q1072.31 57.4256 1072.31 49.3643 M1079.77 66.9452 Q1079.77 78.5308 1074.62 84.1616 Q1069.48 89.8329 1058.86 89.8329 Q1054.94 89.8329 1051.45 89.2252 Q1047.97 88.6581 1044.69 87.4428 L1044.69 80.1917 Q1047.97 81.9741 1051.17 82.8248 Q1054.37 83.6755 1057.69 83.6755 Q1065.02 83.6755 1068.67 79.8271 Q1072.31 76.0193 1072.31 68.282 L1072.31 64.5957 Q1070 68.6061 1066.4 70.5911 Q1062.79 72.576 1057.77 72.576 Q1049.43 72.576 1044.32 66.2161 Q1039.22 59.8562 1039.22 49.3643 Q1039.22 38.832 1044.32 32.472 Q1049.43 26.1121 1057.77 26.1121 Q1062.79 26.1121 1066.4 28.0971 Q1070 30.082 1072.31 34.0924 L1072.31 27.2059 L1079.77 27.2059 L1079.77 66.9452 Z" fill="#000000" fill-rule="nonzero" fill-opacity="1" /><path clip-path="url(#clip240)" d="M1132.83 45.1919 L1132.83 72.576 L1125.38 72.576 L1125.38 45.4349 Q1125.38 38.994 1122.87 35.7938 Q1120.36 32.5936 1115.33 32.5936 Q1109.3 32.5936 1105.81 36.4419 Q1102.33 40.2903 1102.33 46.9338 L1102.33 72.576 L1094.84 72.576 L1094.84 9.54393 L1102.33 9.54393 L1102.33 34.2544 Q1105 30.163 1108.61 28.1376 Q1112.26 26.1121 1116.99 26.1121 Q1124.81 26.1121 1128.82 30.9732 Q1132.83 35.7938 1132.83 45.1919 Z" fill="#000000" fill-rule="nonzero" fill-opacity="1" /><path clip-path="url(#clip240)" d="M1155.07 14.324 L1155.07 27.2059 L1170.43 27.2059 L1170.43 32.9987 L1155.07 32.9987 L1155.07 57.6282 Q1155.07 63.1779 1156.57 64.7578 Q1158.11 66.3376 1162.77 66.3376 L1170.43 66.3376 L1170.43 72.576 L1162.77 72.576 Q1154.14 72.576 1150.86 69.3758 Q1147.58 66.1351 1147.58 57.6282 L1147.58 32.9987 L1142.11 32.9987 L1142.11 27.2059 L1147.58 27.2059 L1147.58 14.324 L1155.07 14.324 Z" fill="#000000" fill-rule="nonzero" fill-opacity="1" /><path clip-path="url(#clip240)" d="M1209.15 28.5427 L1209.15 35.5912 Q1205.99 33.9709 1202.59 33.1607 Q1199.19 32.3505 1195.54 32.3505 Q1189.99 32.3505 1187.2 34.0519 Q1184.44 35.7533 1184.44 39.156 Q1184.44 41.7486 1186.43 43.2475 Q1188.41 44.7058 1194.41 46.0426 L1196.96 46.6097 Q1204.9 48.3111 1208.22 51.4303 Q1211.58 54.509 1211.58 60.0587 Q1211.58 66.3781 1206.56 70.0644 Q1201.58 73.7508 1192.83 73.7508 Q1189.18 73.7508 1185.21 73.0216 Q1181.28 72.3329 1176.91 70.9151 L1176.91 63.2184 Q1181.04 65.3654 1185.05 66.4591 Q1189.06 67.5124 1192.99 67.5124 Q1198.26 67.5124 1201.09 65.73 Q1203.93 63.9071 1203.93 60.6258 Q1203.93 57.5877 1201.86 55.9673 Q1199.84 54.3469 1192.91 52.8481 L1190.32 52.2405 Q1183.39 50.7821 1180.31 47.7845 Q1177.23 44.7463 1177.23 39.4801 Q1177.23 33.0797 1181.77 29.5959 Q1186.31 26.1121 1194.65 26.1121 Q1198.78 26.1121 1202.43 26.7198 Q1206.07 27.3274 1209.15 28.5427 Z" fill="#000000" fill-rule="nonzero" fill-opacity="1" /><path clip-path="url(#clip240)" d="M1257.03 65.7705 L1257.03 89.8329 L1249.54 89.8329 L1249.54 27.2059 L1257.03 27.2059 L1257.03 34.0924 Q1259.38 30.0415 1262.95 28.0971 Q1266.55 26.1121 1271.54 26.1121 Q1279.8 26.1121 1284.95 32.6746 Q1290.13 39.2371 1290.13 49.9314 Q1290.13 60.6258 1284.95 67.1883 Q1279.8 73.7508 1271.54 73.7508 Q1266.55 73.7508 1262.95 71.8063 Q1259.38 69.8214 1257.03 65.7705 M1282.39 49.9314 Q1282.39 41.7081 1278.99 37.0496 Q1275.63 32.3505 1269.71 32.3505 Q1263.8 32.3505 1260.4 37.0496 Q1257.03 41.7081 1257.03 49.9314 Q1257.03 58.1548 1260.4 62.8538 Q1263.8 67.5124 1269.71 67.5124 Q1275.63 67.5124 1278.99 62.8538 Q1282.39 58.1548 1282.39 49.9314 Z" fill="#000000" fill-rule="nonzero" fill-opacity="1" /><path clip-path="url(#clip240)" d="M1341.29 48.0275 L1341.29 51.6733 L1307.02 51.6733 Q1307.51 59.3701 1311.64 63.421 Q1315.81 67.4314 1323.23 67.4314 Q1327.52 67.4314 1331.53 66.3781 Q1335.58 65.3249 1339.55 63.2184 L1339.55 70.267 Q1335.54 71.9684 1331.33 72.8596 Q1327.12 73.7508 1322.78 73.7508 Q1311.92 73.7508 1305.56 67.4314 Q1299.25 61.1119 1299.25 50.3365 Q1299.25 39.1965 1305.24 32.6746 Q1311.28 26.1121 1321.48 26.1121 Q1330.64 26.1121 1335.95 32.0264 Q1341.29 37.9003 1341.29 48.0275 M1333.84 45.84 Q1333.76 39.7232 1330.4 36.0774 Q1327.07 32.4315 1321.57 32.4315 Q1315.33 32.4315 1311.56 35.9558 Q1307.83 39.4801 1307.27 45.8805 L1333.84 45.84 Z" fill="#000000" fill-rule="nonzero" fill-opacity="1" /><path clip-path="url(#clip240)" d="M1379.82 34.1734 Q1378.56 33.4443 1377.06 33.1202 Q1375.6 32.7556 1373.82 32.7556 Q1367.5 32.7556 1364.1 36.8875 Q1360.74 40.9789 1360.74 48.6757 L1360.74 72.576 L1353.24 72.576 L1353.24 27.2059 L1360.74 27.2059 L1360.74 34.2544 Q1363.09 30.1225 1366.85 28.1376 Q1370.62 26.1121 1376.01 26.1121 Q1376.78 26.1121 1377.71 26.2337 Q1378.64 26.3147 1379.78 26.5172 L1379.82 34.1734 Z" fill="#000000" fill-rule="nonzero" fill-opacity="1" /><path clip-path="url(#clip240)" d="M1414.33 12.096 L1422.51 12.096 L1422.51 65.6895 L1451.96 65.6895 L1451.96 72.576 L1414.33 72.576 L1414.33 12.096 Z" fill="#000000" fill-rule="nonzero" fill-opacity="1" /><path clip-path="url(#clip240)" d="M1476.35 32.4315 Q1470.36 32.4315 1466.87 37.1306 Q1463.39 41.7891 1463.39 49.9314 Q1463.39 58.0738 1466.83 62.7728 Q1470.31 67.4314 1476.35 67.4314 Q1482.31 67.4314 1485.79 62.7323 Q1489.27 58.0333 1489.27 49.9314 Q1489.27 41.8701 1485.79 37.1711 Q1482.31 32.4315 1476.35 32.4315 M1476.35 26.1121 Q1486.07 26.1121 1491.62 32.4315 Q1497.17 38.7509 1497.17 49.9314 Q1497.17 61.0714 1491.62 67.4314 Q1486.07 73.7508 1476.35 73.7508 Q1466.59 73.7508 1461.04 67.4314 Q1455.53 61.0714 1455.53 49.9314 Q1455.53 38.7509 1461.04 32.4315 Q1466.59 26.1121 1476.35 26.1121 Z" fill="#000000" fill-rule="nonzero" fill-opacity="1" /><path clip-path="url(#clip240)" d="M1530.15 49.7694 Q1521.11 49.7694 1517.63 51.8354 Q1514.15 53.9013 1514.15 58.8839 Q1514.15 62.8538 1516.74 65.2034 Q1519.37 67.5124 1523.87 67.5124 Q1530.07 67.5124 1533.79 63.1374 Q1537.56 58.7219 1537.56 51.4303 L1537.56 49.7694 L1530.15 49.7694 M1545.01 46.6907 L1545.01 72.576 L1537.56 72.576 L1537.56 65.6895 Q1535.01 69.8214 1531.2 71.8063 Q1527.39 73.7508 1521.88 73.7508 Q1514.92 73.7508 1510.78 69.8619 Q1506.69 65.9325 1506.69 59.3701 Q1506.69 51.7138 1511.8 47.825 Q1516.94 43.9361 1527.11 43.9361 L1537.56 43.9361 L1537.56 43.2069 Q1537.56 38.0623 1534.16 35.2672 Q1530.79 32.4315 1524.68 32.4315 Q1520.79 32.4315 1517.1 33.3632 Q1513.42 34.295 1510.01 36.1584 L1510.01 29.2718 Q1514.11 27.692 1517.95 26.9223 Q1521.8 26.1121 1525.45 26.1121 Q1535.29 26.1121 1540.15 31.2163 Q1545.01 36.3204 1545.01 46.6907 Z" fill="#000000" fill-rule="nonzero" fill-opacity="1" /><path clip-path="url(#clip240)" d="M1590.22 34.0924 L1590.22 9.54393 L1597.68 9.54393 L1597.68 72.576 L1590.22 72.576 L1590.22 65.7705 Q1587.87 69.8214 1584.27 71.8063 Q1580.7 73.7508 1575.68 73.7508 Q1567.46 73.7508 1562.27 67.1883 Q1557.13 60.6258 1557.13 49.9314 Q1557.13 39.2371 1562.27 32.6746 Q1567.46 26.1121 1575.68 26.1121 Q1580.7 26.1121 1584.27 28.0971 Q1587.87 30.0415 1590.22 34.0924 M1564.82 49.9314 Q1564.82 58.1548 1568.18 62.8538 Q1571.59 67.5124 1577.5 67.5124 Q1583.42 67.5124 1586.82 62.8538 Q1590.22 58.1548 1590.22 49.9314 Q1590.22 41.7081 1586.82 37.0496 Q1583.42 32.3505 1577.5 32.3505 Q1571.59 32.3505 1568.18 37.0496 Q1564.82 41.7081 1564.82 49.9314 Z" fill="#000000" fill-rule="nonzero" fill-opacity="1" /><path clip-path="url(#clip240)" d="M1635.63 46.5287 L1657.47 46.5287 L1657.47 53.1722 L1635.63 53.1722 L1635.63 46.5287 Z" fill="#000000" fill-rule="nonzero" fill-opacity="1" /><path clip-path="url(#clip240)" d="M1696.03 12.096 L1704.21 12.096 L1704.21 72.576 L1696.03 72.576 L1696.03 12.096 Z" fill="#000000" fill-rule="nonzero" fill-opacity="1" /><path clip-path="url(#clip240)" d="M1727.55 14.324 L1727.55 27.2059 L1742.9 27.2059 L1742.9 32.9987 L1727.55 32.9987 L1727.55 57.6282 Q1727.55 63.1779 1729.05 64.7578 Q1730.59 66.3376 1735.24 66.3376 L1742.9 66.3376 L1742.9 72.576 L1735.24 72.576 Q1726.62 72.576 1723.33 69.3758 Q1720.05 66.1351 1720.05 57.6282 L1720.05 32.9987 L1714.58 32.9987 L1714.58 27.2059 L1720.05 27.2059 L1720.05 14.324 L1727.55 14.324 Z" fill="#000000" fill-rule="nonzero" fill-opacity="1" /><path clip-path="url(#clip240)" d="M1791.51 48.0275 L1791.51 51.6733 L1757.24 51.6733 Q1757.73 59.3701 1761.86 63.421 Q1766.03 67.4314 1773.44 67.4314 Q1777.74 67.4314 1781.75 66.3781 Q1785.8 65.3249 1789.77 63.2184 L1789.77 70.267 Q1785.76 71.9684 1781.55 72.8596 Q1777.33 73.7508 1773 73.7508 Q1762.14 73.7508 1755.78 67.4314 Q1749.46 61.1119 1749.46 50.3365 Q1749.46 39.1965 1755.46 32.6746 Q1761.49 26.1121 1771.7 26.1121 Q1780.86 26.1121 1786.16 32.0264 Q1791.51 37.9003 1791.51 48.0275 M1784.06 45.84 Q1783.98 39.7232 1780.61 36.0774 Q1777.29 32.4315 1771.78 32.4315 Q1765.54 32.4315 1761.78 35.9558 Q1758.05 39.4801 1757.48 45.8805 L1784.06 45.84 Z" fill="#000000" fill-rule="nonzero" fill-opacity="1" /><path clip-path="url(#clip240)" d="M1830.04 34.1734 Q1828.78 33.4443 1827.28 33.1202 Q1825.82 32.7556 1824.04 32.7556 Q1817.72 32.7556 1814.32 36.8875 Q1810.96 40.9789 1810.96 48.6757 L1810.96 72.576 L1803.46 72.576 L1803.46 27.2059 L1810.96 27.2059 L1810.96 34.2544 Q1813.3 30.1225 1817.07 28.1376 Q1820.84 26.1121 1826.23 26.1121 Q1827 26.1121 1827.93 26.2337 Q1828.86 26.3147 1829.99 26.5172 L1830.04 34.1734 Z" fill="#000000" fill-rule="nonzero" fill-opacity="1" /><path clip-path="url(#clip240)" d="M1858.47 49.7694 Q1849.44 49.7694 1845.96 51.8354 Q1842.47 53.9013 1842.47 58.8839 Q1842.47 62.8538 1845.06 65.2034 Q1847.7 67.5124 1852.19 67.5124 Q1858.39 67.5124 1862.12 63.1374 Q1865.89 58.7219 1865.89 51.4303 L1865.89 49.7694 L1858.47 49.7694 M1873.34 46.6907 L1873.34 72.576 L1865.89 72.576 L1865.89 65.6895 Q1863.33 69.8214 1859.53 71.8063 Q1855.72 73.7508 1850.21 73.7508 Q1843.24 73.7508 1839.11 69.8619 Q1835.02 65.9325 1835.02 59.3701 Q1835.02 51.7138 1840.12 47.825 Q1845.27 43.9361 1855.43 43.9361 L1865.89 43.9361 L1865.89 43.2069 Q1865.89 38.0623 1862.48 35.2672 Q1859.12 32.4315 1853 32.4315 Q1849.11 32.4315 1845.43 33.3632 Q1841.74 34.295 1838.34 36.1584 L1838.34 29.2718 Q1842.43 27.692 1846.28 26.9223 Q1850.13 26.1121 1853.77 26.1121 Q1863.62 26.1121 1868.48 31.2163 Q1873.34 36.3204 1873.34 46.6907 Z" fill="#000000" fill-rule="nonzero" fill-opacity="1" /><path clip-path="url(#clip240)" d="M1896.06 14.324 L1896.06 27.2059 L1911.42 27.2059 L1911.42 32.9987 L1896.06 32.9987 L1896.06 57.6282 Q1896.06 63.1779 1897.56 64.7578 Q1899.1 66.3376 1903.76 66.3376 L1911.42 66.3376 L1911.42 72.576 L1903.76 72.576 Q1895.13 72.576 1891.85 69.3758 Q1888.57 66.1351 1888.57 57.6282 L1888.57 32.9987 L1883.1 32.9987 L1883.1 27.2059 L1888.57 27.2059 L1888.57 14.324 L1896.06 14.324 Z" fill="#000000" fill-rule="nonzero" fill-opacity="1" /><path clip-path="url(#clip240)" d="M1921.22 27.2059 L1928.67 27.2059 L1928.67 72.576 L1921.22 72.576 L1921.22 27.2059 M1921.22 9.54393 L1928.67 9.54393 L1928.67 18.9825 L1921.22 18.9825 L1921.22 9.54393 Z" fill="#000000" fill-rule="nonzero" fill-opacity="1" /><path clip-path="url(#clip240)" d="M1961.85 32.4315 Q1955.86 32.4315 1952.37 37.1306 Q1948.89 41.7891 1948.89 49.9314 Q1948.89 58.0738 1952.33 62.7728 Q1955.82 67.4314 1961.85 67.4314 Q1967.81 67.4314 1971.29 62.7323 Q1974.77 58.0333 1974.77 49.9314 Q1974.77 41.8701 1971.29 37.1711 Q1967.81 32.4315 1961.85 32.4315 M1961.85 26.1121 Q1971.57 26.1121 1977.12 32.4315 Q1982.67 38.7509 1982.67 49.9314 Q1982.67 61.0714 1977.12 67.4314 Q1971.57 73.7508 1961.85 73.7508 Q1952.09 73.7508 1946.54 67.4314 Q1941.03 61.0714 1941.03 49.9314 Q1941.03 38.7509 1946.54 32.4315 Q1952.09 26.1121 1961.85 26.1121 Z" fill="#000000" fill-rule="nonzero" fill-opacity="1" /><path clip-path="url(#clip240)" d="M2032.74 45.1919 L2032.74 72.576 L2025.29 72.576 L2025.29 45.4349 Q2025.29 38.994 2022.78 35.7938 Q2020.27 32.5936 2015.24 32.5936 Q2009.21 32.5936 2005.72 36.4419 Q2002.24 40.2903 2002.24 46.9338 L2002.24 72.576 L1994.74 72.576 L1994.74 27.2059 L2002.24 27.2059 L2002.24 34.2544 Q2004.91 30.163 2008.52 28.1376 Q2012.16 26.1121 2016.9 26.1121 Q2024.72 26.1121 2028.73 30.9732 Q2032.74 35.7938 2032.74 45.1919 Z" fill="#000000" fill-rule="nonzero" fill-opacity="1" /><path clip-path="url(#clip240)" d="M2082.08 65.6895 L2110.64 65.6895 L2110.64 72.576 L2072.24 72.576 L2072.24 65.6895 Q2076.9 60.8689 2084.92 52.7671 Q2092.98 44.6248 2095.05 42.2752 Q2098.97 37.8598 2100.51 34.8216 Q2102.09 31.7429 2102.09 28.7857 Q2102.09 23.9651 2098.69 20.927 Q2095.33 17.8888 2089.9 17.8888 Q2086.05 17.8888 2081.76 19.2256 Q2077.5 20.5624 2072.64 23.2765 L2072.64 15.0127 Q2077.59 13.0277 2081.88 12.015 Q2086.17 11.0023 2089.74 11.0023 Q2099.14 11.0023 2104.73 15.7013 Q2110.32 20.4004 2110.32 28.2591 Q2110.32 31.9859 2108.9 35.3482 Q2107.52 38.6699 2103.84 43.2069 Q2102.82 44.3817 2097.39 50.0125 Q2091.97 55.6027 2082.08 65.6895 Z" fill="#000000" fill-rule="nonzero" fill-opacity="1" /><path clip-path="url(#clip242)" d="M871.129 1423.18 L871.129 1423.18 L972.31 1423.18 L972.31 1423.18 L871.129 1423.18 L871.129 1423.18  Z" fill="#009af9" fill-rule="evenodd" fill-opacity="1"/>
<polyline clip-path="url(#clip242)" style="stroke:#000000; stroke-linecap:round; stroke-linejoin:round; stroke-width:4; stroke-opacity:1; fill:none" points="871.129,1423.18 871.129,1423.18 972.31,1423.18 972.31,1423.18 871.129,1423.18 "/>
<path clip-path="url(#clip242)" d="M1756.46 1423.18 L1756.46 1423.18 L1857.65 1423.18 L1857.65 1423.18 L1756.46 1423.18 L1756.46 1423.18  Z" fill="#009af9" fill-rule="evenodd" fill-opacity="1"/>
<polyline clip-path="url(#clip242)" style="stroke:#000000; stroke-linecap:round; stroke-linejoin:round; stroke-width:4; stroke-opacity:1; fill:none" points="1756.46,1423.18 1756.46,1423.18 1857.65,1423.18 1857.65,1423.18 1756.46,1423.18 "/>
<path clip-path="url(#clip242)" d="M1250.56 1423.1 L1250.56 1423.18 L1351.74 1423.18 L1351.74 1423.1 L1250.56 1423.1 L1250.56 1423.1  Z" fill="#009af9" fill-rule="evenodd" fill-opacity="1"/>
<polyline clip-path="url(#clip242)" style="stroke:#000000; stroke-linecap:round; stroke-linejoin:round; stroke-width:4; stroke-opacity:1; fill:none" points="1250.56,1423.1 1250.56,1423.18 1351.74,1423.18 1351.74,1423.1 1250.56,1423.1 "/>
<path clip-path="url(#clip242)" d="M365.223 1391.43 L365.223 1423.18 L466.404 1423.18 L466.404 1391.43 L365.223 1391.43 L365.223 1391.43  Z" fill="#009af9" fill-rule="evenodd" fill-opacity="1"/>
<polyline clip-path="url(#clip242)" style="stroke:#000000; stroke-linecap:round; stroke-linejoin:round; stroke-width:4; stroke-opacity:1; fill:none" points="365.223,1391.43 365.223,1423.18 466.404,1423.18 466.404,1391.43 365.223,1391.43 "/>
<path clip-path="url(#clip242)" d="M997.605 123.472 L997.605 1423.18 L1098.79 1423.18 L1098.79 123.472 L997.605 123.472 L997.605 123.472  Z" fill="#009af9" fill-rule="evenodd" fill-opacity="1"/>
<polyline clip-path="url(#clip242)" style="stroke:#000000; stroke-linecap:round; stroke-linejoin:round; stroke-width:4; stroke-opacity:1; fill:none" points="997.605,123.472 997.605,1423.18 1098.79,1423.18 1098.79,123.472 997.605,123.472 "/>
<path clip-path="url(#clip242)" d="M1629.99 1423.17 L1629.99 1423.18 L1731.17 1423.18 L1731.17 1423.17 L1629.99 1423.17 L1629.99 1423.17  Z" fill="#009af9" fill-rule="evenodd" fill-opacity="1"/>
<polyline clip-path="url(#clip242)" style="stroke:#000000; stroke-linecap:round; stroke-linejoin:round; stroke-width:4; stroke-opacity:1; fill:none" points="1629.99,1423.17 1629.99,1423.18 1731.17,1423.18 1731.17,1423.17 1629.99,1423.17 "/>
<path clip-path="url(#clip242)" d="M1377.03 1395.31 L1377.03 1423.18 L1478.22 1423.18 L1478.22 1395.31 L1377.03 1395.31 L1377.03 1395.31  Z" fill="#009af9" fill-rule="evenodd" fill-opacity="1"/>
<polyline clip-path="url(#clip242)" style="stroke:#000000; stroke-linecap:round; stroke-linejoin:round; stroke-width:4; stroke-opacity:1; fill:none" points="1377.03,1395.31 1377.03,1423.18 1478.22,1423.18 1478.22,1395.31 1377.03,1395.31 "/>
<path clip-path="url(#clip242)" d="M2009.42 1419.5 L2009.42 1423.18 L2110.6 1423.18 L2110.6 1419.5 L2009.42 1419.5 L2009.42 1419.5  Z" fill="#009af9" fill-rule="evenodd" fill-opacity="1"/>
<polyline clip-path="url(#clip242)" style="stroke:#000000; stroke-linecap:round; stroke-linejoin:round; stroke-width:4; stroke-opacity:1; fill:none" points="2009.42,1419.5 2009.42,1423.18 2110.6,1423.18 2110.6,1419.5 2009.42,1419.5 "/>
<path clip-path="url(#clip242)" d="M618.176 1423.18 L618.176 1423.18 L719.357 1423.18 L719.357 1423.18 L618.176 1423.18 L618.176 1423.18  Z" fill="#009af9" fill-rule="evenodd" fill-opacity="1"/>
<polyline clip-path="url(#clip242)" style="stroke:#000000; stroke-linecap:round; stroke-linejoin:round; stroke-width:4; stroke-opacity:1; fill:none" points="618.176,1423.18 618.176,1423.18 719.357,1423.18 719.357,1423.18 618.176,1423.18 "/>
<path clip-path="url(#clip242)" d="M1124.08 499.061 L1124.08 1423.18 L1225.26 1423.18 L1225.26 499.061 L1124.08 499.061 L1124.08 499.061  Z" fill="#009af9" fill-rule="evenodd" fill-opacity="1"/>
<polyline clip-path="url(#clip242)" style="stroke:#000000; stroke-linecap:round; stroke-linejoin:round; stroke-width:4; stroke-opacity:1; fill:none" points="1124.08,499.061 1124.08,1423.18 1225.26,1423.18 1225.26,499.061 1124.08,499.061 "/>
<path clip-path="url(#clip242)" d="M744.652 1423.18 L744.652 1423.18 L845.833 1423.18 L845.833 1423.18 L744.652 1423.18 L744.652 1423.18  Z" fill="#009af9" fill-rule="evenodd" fill-opacity="1"/>
<polyline clip-path="url(#clip242)" style="stroke:#000000; stroke-linecap:round; stroke-linejoin:round; stroke-width:4; stroke-opacity:1; fill:none" points="744.652,1423.18 744.652,1423.18 845.833,1423.18 845.833,1423.18 744.652,1423.18 "/>
<path clip-path="url(#clip242)" d="M1882.94 1399.35 L1882.94 1423.18 L1984.12 1423.18 L1984.12 1399.35 L1882.94 1399.35 L1882.94 1399.35  Z" fill="#009af9" fill-rule="evenodd" fill-opacity="1"/>
<polyline clip-path="url(#clip242)" style="stroke:#000000; stroke-linecap:round; stroke-linejoin:round; stroke-width:4; stroke-opacity:1; fill:none" points="1882.94,1399.35 1882.94,1423.18 1984.12,1423.18 1984.12,1399.35 1882.94,1399.35 "/>
<path clip-path="url(#clip242)" d="M2135.89 1423.18 L2135.89 1423.18 L2237.08 1423.18 L2237.08 1423.18 L2135.89 1423.18 L2135.89 1423.18  Z" fill="#009af9" fill-rule="evenodd" fill-opacity="1"/>
<polyline clip-path="url(#clip242)" style="stroke:#000000; stroke-linecap:round; stroke-linejoin:round; stroke-width:4; stroke-opacity:1; fill:none" points="2135.89,1423.18 2135.89,1423.18 2237.08,1423.18 2237.08,1423.18 2135.89,1423.18 "/>
<path clip-path="url(#clip242)" d="M491.699 1423.14 L491.699 1423.18 L592.88 1423.18 L592.88 1423.14 L491.699 1423.14 L491.699 1423.14  Z" fill="#009af9" fill-rule="evenodd" fill-opacity="1"/>
<polyline clip-path="url(#clip242)" style="stroke:#000000; stroke-linecap:round; stroke-linejoin:round; stroke-width:4; stroke-opacity:1; fill:none" points="491.699,1423.14 491.699,1423.18 592.88,1423.18 592.88,1423.14 491.699,1423.14 "/>
<path clip-path="url(#clip242)" d="M1503.51 1422.98 L1503.51 1423.18 L1604.69 1423.18 L1604.69 1422.98 L1503.51 1422.98 L1503.51 1422.98  Z" fill="#009af9" fill-rule="evenodd" fill-opacity="1"/>
<polyline clip-path="url(#clip242)" style="stroke:#000000; stroke-linecap:round; stroke-linejoin:round; stroke-width:4; stroke-opacity:1; fill:none" points="1503.51,1422.98 1503.51,1423.18 1604.69,1423.18 1604.69,1422.98 1503.51,1422.98 "/>
<circle clip-path="url(#clip242)" style="fill:#009af9; stroke:none; fill-opacity:0" cx="921.719" cy="1423.18" r="2"/>
<circle clip-path="url(#clip242)" style="fill:#009af9; stroke:none; fill-opacity:0" cx="1807.06" cy="1423.18" r="2"/>
<circle clip-path="url(#clip242)" style="fill:#009af9; stroke:none; fill-opacity:0" cx="1301.15" cy="1423.1" r="2"/>
<circle clip-path="url(#clip242)" style="fill:#009af9; stroke:none; fill-opacity:0" cx="415.813" cy="1391.43" r="2"/>
<circle clip-path="url(#clip242)" style="fill:#009af9; stroke:none; fill-opacity:0" cx="1048.2" cy="123.472" r="2"/>
<circle clip-path="url(#clip242)" style="fill:#009af9; stroke:none; fill-opacity:0" cx="1680.58" cy="1423.17" r="2"/>
<circle clip-path="url(#clip242)" style="fill:#009af9; stroke:none; fill-opacity:0" cx="1427.63" cy="1395.31" r="2"/>
<circle clip-path="url(#clip242)" style="fill:#009af9; stroke:none; fill-opacity:0" cx="2060.01" cy="1419.5" r="2"/>
<circle clip-path="url(#clip242)" style="fill:#009af9; stroke:none; fill-opacity:0" cx="668.766" cy="1423.18" r="2"/>
<circle clip-path="url(#clip242)" style="fill:#009af9; stroke:none; fill-opacity:0" cx="1174.67" cy="499.061" r="2"/>
<circle clip-path="url(#clip242)" style="fill:#009af9; stroke:none; fill-opacity:0" cx="795.243" cy="1423.18" r="2"/>
<circle clip-path="url(#clip242)" style="fill:#009af9; stroke:none; fill-opacity:0" cx="1933.53" cy="1399.35" r="2"/>
<circle clip-path="url(#clip242)" style="fill:#009af9; stroke:none; fill-opacity:0" cx="2186.48" cy="1423.18" r="2"/>
<circle clip-path="url(#clip242)" style="fill:#009af9; stroke:none; fill-opacity:0" cx="542.29" cy="1423.14" r="2"/>
<circle clip-path="url(#clip242)" style="fill:#009af9; stroke:none; fill-opacity:0" cx="1554.1" cy="1422.98" r="2"/>
</svg>
