<?xml version="1.0" encoding="utf-8"?>
<svg xmlns="http://www.w3.org/2000/svg" xmlns:xlink="http://www.w3.org/1999/xlink" width="600" height="400" viewBox="0 0 2400 1600">
<defs>
  <clipPath id="clip400">
    <rect x="0" y="0" width="2400" height="1600"/>
  </clipPath>
</defs>
<path clip-path="url(#clip400)" d="M0 1600 L2400 1600 L2400 0 L0 0  Z" fill="#ffffff" fill-rule="evenodd" fill-opacity="1"/>
<defs>
  <clipPath id="clip401">
    <rect x="480" y="0" width="1681" height="1600"/>
  </clipPath>
</defs>
<path clip-path="url(#clip400)" d="M279.704 1423.18 L2352.76 1423.18 L2352.76 123.472 L279.704 123.472  Z" fill="#ffffff" fill-rule="evenodd" fill-opacity="1"/>
<defs>
  <clipPath id="clip402">
    <rect x="279" y="123" width="2074" height="1301"/>
  </clipPath>
</defs>
<polyline clip-path="url(#clip402)" style="stroke:#000000; stroke-linecap:round; stroke-linejoin:round; stroke-width:2; stroke-opacity:0.1; fill:none" points="318.928,1423.18 318.928,123.472 "/>
<polyline clip-path="url(#clip402)" style="stroke:#000000; stroke-linecap:round; stroke-linejoin:round; stroke-width:2; stroke-opacity:0.1; fill:none" points="942.242,1423.18 942.242,123.472 "/>
<polyline clip-path="url(#clip402)" style="stroke:#000000; stroke-linecap:round; stroke-linejoin:round; stroke-width:2; stroke-opacity:0.1; fill:none" points="1565.56,1423.18 1565.56,123.472 "/>
<polyline clip-path="url(#clip402)" style="stroke:#000000; stroke-linecap:round; stroke-linejoin:round; stroke-width:2; stroke-opacity:0.1; fill:none" points="2188.87,1423.18 2188.87,123.472 "/>
<polyline clip-path="url(#clip402)" style="stroke:#000000; stroke-linecap:round; stroke-linejoin:round; stroke-width:2; stroke-opacity:0.1; fill:none" points="279.704,1423.18 2352.76,1423.18 "/>
<polyline clip-path="url(#clip402)" style="stroke:#000000; stroke-linecap:round; stroke-linejoin:round; stroke-width:2; stroke-opacity:0.1; fill:none" points="279.704,1127.79 2352.76,1127.79 "/>
<polyline clip-path="url(#clip402)" style="stroke:#000000; stroke-linecap:round; stroke-linejoin:round; stroke-width:2; stroke-opacity:0.1; fill:none" points="279.704,832.404 2352.76,832.404 "/>
<polyline clip-path="url(#clip402)" style="stroke:#000000; stroke-linecap:round; stroke-linejoin:round; stroke-width:2; stroke-opacity:0.1; fill:none" points="279.704,537.015 2352.76,537.015 "/>
<polyline clip-path="url(#clip402)" style="stroke:#000000; stroke-linecap:round; stroke-linejoin:round; stroke-width:2; stroke-opacity:0.1; fill:none" points="279.704,241.627 2352.76,241.627 "/>
<polyline clip-path="url(#clip400)" style="stroke:#000000; stroke-linecap:round; stroke-linejoin:round; stroke-width:4; stroke-opacity:1; fill:none" points="279.704,1423.18 2352.76,1423.18 "/>
<polyline clip-path="url(#clip400)" style="stroke:#000000; stroke-linecap:round; stroke-linejoin:round; stroke-width:4; stroke-opacity:1; fill:none" points="318.928,1423.18 318.928,1404.28 "/>
<polyline clip-path="url(#clip400)" style="stroke:#000000; stroke-linecap:round; stroke-linejoin:round; stroke-width:4; stroke-opacity:1; fill:none" points="942.242,1423.18 942.242,1404.28 "/>
<polyline clip-path="url(#clip400)" style="stroke:#000000; stroke-linecap:round; stroke-linejoin:round; stroke-width:4; stroke-opacity:1; fill:none" points="1565.56,1423.18 1565.56,1404.28 "/>
<polyline clip-path="url(#clip400)" style="stroke:#000000; stroke-linecap:round; stroke-linejoin:round; stroke-width:4; stroke-opacity:1; fill:none" points="2188.87,1423.18 2188.87,1404.28 "/>
<path clip-path="url(#clip400)" d="M318.928 1454.1 Q315.317 1454.1 313.488 1457.66 Q311.682 1461.2 311.682 1468.33 Q311.682 1475.44 313.488 1479.01 Q315.317 1482.55 318.928 1482.55 Q322.562 1482.55 324.368 1479.01 Q326.196 1475.44 326.196 1468.33 Q326.196 1461.2 324.368 1457.66 Q322.562 1454.1 318.928 1454.1 M318.928 1450.39 Q324.738 1450.39 327.793 1455 Q330.872 1459.58 330.872 1468.33 Q330.872 1477.06 327.793 1481.67 Q324.738 1486.25 318.928 1486.25 Q313.118 1486.25 310.039 1481.67 Q306.983 1477.06 306.983 1468.33 Q306.983 1459.58 310.039 1455 Q313.118 1450.39 318.928 1450.39 Z" fill="#000000" fill-rule="nonzero" fill-opacity="1" /><path clip-path="url(#clip400)" d="M932.519 1451.02 L950.876 1451.02 L950.876 1454.96 L936.802 1454.96 L936.802 1463.43 Q937.82 1463.08 938.839 1462.92 Q939.857 1462.73 940.876 1462.73 Q946.663 1462.73 950.043 1465.9 Q953.422 1469.08 953.422 1474.49 Q953.422 1480.07 949.95 1483.17 Q946.478 1486.25 940.158 1486.25 Q937.982 1486.25 935.714 1485.88 Q933.469 1485.51 931.061 1484.77 L931.061 1480.07 Q933.144 1481.2 935.367 1481.76 Q937.589 1482.32 940.066 1482.32 Q944.07 1482.32 946.408 1480.21 Q948.746 1478.1 948.746 1474.49 Q948.746 1470.88 946.408 1468.77 Q944.07 1466.67 940.066 1466.67 Q938.191 1466.67 936.316 1467.08 Q934.464 1467.5 932.519 1468.38 L932.519 1451.02 Z" fill="#000000" fill-rule="nonzero" fill-opacity="1" /><path clip-path="url(#clip400)" d="M1540.24 1481.64 L1547.88 1481.64 L1547.88 1455.28 L1539.57 1456.95 L1539.57 1452.69 L1547.84 1451.02 L1552.51 1451.02 L1552.51 1481.64 L1560.15 1481.64 L1560.15 1485.58 L1540.24 1485.58 L1540.24 1481.64 Z" fill="#000000" fill-rule="nonzero" fill-opacity="1" /><path clip-path="url(#clip400)" d="M1579.59 1454.1 Q1575.98 1454.1 1574.15 1457.66 Q1572.35 1461.2 1572.35 1468.33 Q1572.35 1475.44 1574.15 1479.01 Q1575.98 1482.55 1579.59 1482.55 Q1583.23 1482.55 1585.03 1479.01 Q1586.86 1475.44 1586.86 1468.33 Q1586.86 1461.2 1585.03 1457.66 Q1583.23 1454.1 1579.59 1454.1 M1579.59 1450.39 Q1585.4 1450.39 1588.46 1455 Q1591.54 1459.58 1591.54 1468.33 Q1591.54 1477.06 1588.46 1481.67 Q1585.4 1486.25 1579.59 1486.25 Q1573.78 1486.25 1570.71 1481.67 Q1567.65 1477.06 1567.65 1468.33 Q1567.65 1459.58 1570.71 1455 Q1573.78 1450.39 1579.59 1450.39 Z" fill="#000000" fill-rule="nonzero" fill-opacity="1" /><path clip-path="url(#clip400)" d="M2164.05 1481.64 L2171.69 1481.64 L2171.69 1455.28 L2163.38 1456.95 L2163.38 1452.69 L2171.65 1451.02 L2176.32 1451.02 L2176.32 1481.64 L2183.96 1481.64 L2183.96 1485.58 L2164.05 1485.58 L2164.05 1481.64 Z" fill="#000000" fill-rule="nonzero" fill-opacity="1" /><path clip-path="url(#clip400)" d="M2193.45 1451.02 L2211.81 1451.02 L2211.81 1454.96 L2197.73 1454.96 L2197.73 1463.43 Q2198.75 1463.08 2199.77 1462.92 Q2200.79 1462.73 2201.81 1462.73 Q2207.6 1462.73 2210.98 1465.9 Q2214.36 1469.08 2214.36 1474.49 Q2214.36 1480.07 2210.88 1483.17 Q2207.41 1486.25 2201.09 1486.25 Q2198.92 1486.25 2196.65 1485.88 Q2194.4 1485.51 2191.99 1484.77 L2191.99 1480.07 Q2194.08 1481.2 2196.3 1481.76 Q2198.52 1482.32 2201 1482.32 Q2205 1482.32 2207.34 1480.21 Q2209.68 1478.1 2209.68 1474.49 Q2209.68 1470.88 2207.34 1468.77 Q2205 1466.67 2201 1466.67 Q2199.12 1466.67 2197.25 1467.08 Q2195.4 1467.5 2193.45 1468.38 L2193.45 1451.02 Z" fill="#000000" fill-rule="nonzero" fill-opacity="1" /><path clip-path="url(#clip400)" d="M1198.1 1520.52 L1204.53 1520.52 L1204.53 1562.63 L1227.67 1562.63 L1227.67 1568.04 L1198.1 1568.04 L1198.1 1520.52 Z" fill="#000000" fill-rule="nonzero" fill-opacity="1" /><path clip-path="url(#clip400)" d="M1246.83 1536.5 Q1242.12 1536.5 1239.38 1540.19 Q1236.64 1543.85 1236.64 1550.25 Q1236.64 1556.65 1239.35 1560.34 Q1242.09 1564 1246.83 1564 Q1251.51 1564 1254.24 1560.31 Q1256.98 1556.62 1256.98 1550.25 Q1256.98 1543.92 1254.24 1540.23 Q1251.51 1536.5 1246.83 1536.5 M1246.83 1531.54 Q1254.47 1531.54 1258.83 1536.5 Q1263.19 1541.47 1263.19 1550.25 Q1263.19 1559 1258.83 1564 Q1254.47 1568.97 1246.83 1568.97 Q1239.16 1568.97 1234.8 1564 Q1230.47 1559 1230.47 1550.25 Q1230.47 1541.47 1234.8 1536.5 Q1239.16 1531.54 1246.83 1531.54 Z" fill="#000000" fill-rule="nonzero" fill-opacity="1" /><path clip-path="url(#clip400)" d="M1289.1 1550.12 Q1282 1550.12 1279.26 1551.75 Q1276.52 1553.37 1276.52 1557.29 Q1276.52 1560.4 1278.56 1562.25 Q1280.63 1564.07 1284.16 1564.07 Q1289.03 1564.07 1291.96 1560.63 Q1294.92 1557.16 1294.92 1551.43 L1294.92 1550.12 L1289.1 1550.12 M1300.78 1547.71 L1300.78 1568.04 L1294.92 1568.04 L1294.92 1562.63 Q1292.92 1565.88 1289.92 1567.44 Q1286.93 1568.97 1282.6 1568.97 Q1277.13 1568.97 1273.88 1565.91 Q1270.67 1562.82 1270.67 1557.67 Q1270.67 1551.65 1274.68 1548.6 Q1278.72 1545.54 1286.71 1545.54 L1294.92 1545.54 L1294.92 1544.97 Q1294.92 1540.93 1292.25 1538.73 Q1289.61 1536.5 1284.8 1536.5 Q1281.74 1536.5 1278.85 1537.23 Q1275.95 1537.97 1273.28 1539.43 L1273.28 1534.02 Q1276.49 1532.78 1279.52 1532.17 Q1282.54 1531.54 1285.4 1531.54 Q1293.14 1531.54 1296.96 1535.55 Q1300.78 1539.56 1300.78 1547.71 Z" fill="#000000" fill-rule="nonzero" fill-opacity="1" /><path clip-path="url(#clip400)" d="M1336.3 1537.81 L1336.3 1518.52 L1342.15 1518.52 L1342.15 1568.04 L1336.3 1568.04 L1336.3 1562.7 Q1334.45 1565.88 1331.62 1567.44 Q1328.82 1568.97 1324.87 1568.97 Q1318.41 1568.97 1314.34 1563.81 Q1310.29 1558.65 1310.29 1550.25 Q1310.29 1541.85 1314.34 1536.69 Q1318.41 1531.54 1324.87 1531.54 Q1328.82 1531.54 1331.62 1533.1 Q1334.45 1534.62 1336.3 1537.81 M1316.34 1550.25 Q1316.34 1556.71 1318.98 1560.4 Q1321.66 1564.07 1326.3 1564.07 Q1330.95 1564.07 1333.62 1560.4 Q1336.3 1556.71 1336.3 1550.25 Q1336.3 1543.79 1333.62 1540.13 Q1330.95 1536.44 1326.3 1536.44 Q1321.66 1536.44 1318.98 1540.13 Q1316.34 1543.79 1316.34 1550.25 Z" fill="#000000" fill-rule="nonzero" fill-opacity="1" /><path clip-path="url(#clip400)" d="M1375.19 1520.52 L1381.62 1520.52 L1381.62 1568.04 L1375.19 1568.04 L1375.19 1520.52 Z" fill="#000000" fill-rule="nonzero" fill-opacity="1" /><path clip-path="url(#clip400)" d="M1400.85 1525.81 L1400.85 1562.76 L1408.61 1562.76 Q1418.45 1562.76 1423 1558.3 Q1427.58 1553.85 1427.58 1544.24 Q1427.58 1534.69 1423 1530.26 Q1418.45 1525.81 1408.61 1525.81 L1400.85 1525.81 M1394.42 1520.52 L1407.63 1520.52 Q1421.44 1520.52 1427.9 1526.28 Q1434.36 1532.01 1434.36 1544.24 Q1434.36 1556.52 1427.87 1562.28 Q1421.38 1568.04 1407.63 1568.04 L1394.42 1568.04 L1394.42 1520.52 Z" fill="#000000" fill-rule="nonzero" fill-opacity="1" /><polyline clip-path="url(#clip400)" style="stroke:#000000; stroke-linecap:round; stroke-linejoin:round; stroke-width:4; stroke-opacity:1; fill:none" points="279.704,1423.18 279.704,123.472 "/>
<polyline clip-path="url(#clip400)" style="stroke:#000000; stroke-linecap:round; stroke-linejoin:round; stroke-width:4; stroke-opacity:1; fill:none" points="279.704,1423.18 298.602,1423.18 "/>
<polyline clip-path="url(#clip400)" style="stroke:#000000; stroke-linecap:round; stroke-linejoin:round; stroke-width:4; stroke-opacity:1; fill:none" points="279.704,1127.79 298.602,1127.79 "/>
<polyline clip-path="url(#clip400)" style="stroke:#000000; stroke-linecap:round; stroke-linejoin:round; stroke-width:4; stroke-opacity:1; fill:none" points="279.704,832.404 298.602,832.404 "/>
<polyline clip-path="url(#clip400)" style="stroke:#000000; stroke-linecap:round; stroke-linejoin:round; stroke-width:4; stroke-opacity:1; fill:none" points="279.704,537.015 298.602,537.015 "/>
<polyline clip-path="url(#clip400)" style="stroke:#000000; stroke-linecap:round; stroke-linejoin:round; stroke-width:4; stroke-opacity:1; fill:none" points="279.704,241.627 298.602,241.627 "/>
<path clip-path="url(#clip400)" d="M126.205 1408.98 Q122.593 1408.98 120.765 1412.54 Q118.959 1416.08 118.959 1423.21 Q118.959 1430.32 120.765 1433.89 Q122.593 1437.43 126.205 1437.43 Q129.839 1437.43 131.644 1433.89 Q133.473 1430.32 133.473 1423.21 Q133.473 1416.08 131.644 1412.54 Q129.839 1408.98 126.205 1408.98 M126.205 1405.27 Q132.015 1405.27 135.07 1409.88 Q138.149 1414.46 138.149 1423.21 Q138.149 1431.94 135.07 1436.55 Q132.015 1441.13 126.205 1441.13 Q120.394 1441.13 117.316 1436.55 Q114.26 1431.94 114.26 1423.21 Q114.26 1414.46 117.316 1409.88 Q120.394 1405.27 126.205 1405.27 Z" fill="#000000" fill-rule="nonzero" fill-opacity="1" /><path clip-path="url(#clip400)" d="M146.366 1434.58 L151.251 1434.58 L151.251 1440.46 L146.366 1440.46 L146.366 1434.58 Z" fill="#000000" fill-rule="nonzero" fill-opacity="1" /><path clip-path="url(#clip400)" d="M171.436 1408.98 Q167.825 1408.98 165.996 1412.54 Q164.19 1416.08 164.19 1423.21 Q164.19 1430.32 165.996 1433.89 Q167.825 1437.43 171.436 1437.43 Q175.07 1437.43 176.876 1433.89 Q178.704 1430.32 178.704 1423.21 Q178.704 1416.08 176.876 1412.54 Q175.07 1408.98 171.436 1408.98 M171.436 1405.27 Q177.246 1405.27 180.301 1409.88 Q183.38 1414.46 183.38 1423.21 Q183.38 1431.94 180.301 1436.55 Q177.246 1441.13 171.436 1441.13 Q165.626 1441.13 162.547 1436.55 Q159.491 1431.94 159.491 1423.21 Q159.491 1414.46 162.547 1409.88 Q165.626 1405.27 171.436 1405.27 Z" fill="#000000" fill-rule="nonzero" fill-opacity="1" /><path clip-path="url(#clip400)" d="M201.598 1408.98 Q197.987 1408.98 196.158 1412.54 Q194.352 1416.08 194.352 1423.21 Q194.352 1430.32 196.158 1433.89 Q197.987 1437.43 201.598 1437.43 Q205.232 1437.43 207.037 1433.89 Q208.866 1430.32 208.866 1423.21 Q208.866 1416.08 207.037 1412.54 Q205.232 1408.98 201.598 1408.98 M201.598 1405.27 Q207.408 1405.27 210.463 1409.88 Q213.542 1414.46 213.542 1423.21 Q213.542 1431.94 210.463 1436.55 Q207.408 1441.13 201.598 1441.13 Q195.787 1441.13 192.709 1436.55 Q189.653 1431.94 189.653 1423.21 Q189.653 1414.46 192.709 1409.88 Q195.787 1405.27 201.598 1405.27 Z" fill="#000000" fill-rule="nonzero" fill-opacity="1" /><path clip-path="url(#clip400)" d="M231.76 1408.98 Q228.148 1408.98 226.32 1412.54 Q224.514 1416.08 224.514 1423.21 Q224.514 1430.32 226.32 1433.89 Q228.148 1437.43 231.76 1437.43 Q235.394 1437.43 237.199 1433.89 Q239.028 1430.32 239.028 1423.21 Q239.028 1416.08 237.199 1412.54 Q235.394 1408.98 231.76 1408.98 M231.76 1405.27 Q237.57 1405.27 240.625 1409.88 Q243.704 1414.46 243.704 1423.21 Q243.704 1431.94 240.625 1436.55 Q237.57 1441.13 231.76 1441.13 Q225.949 1441.13 222.871 1436.55 Q219.815 1431.94 219.815 1423.21 Q219.815 1414.46 222.871 1409.88 Q225.949 1405.27 231.76 1405.27 Z" fill="#000000" fill-rule="nonzero" fill-opacity="1" /><path clip-path="url(#clip400)" d="M127.2 1113.59 Q123.589 1113.59 121.76 1117.16 Q119.955 1120.7 119.955 1127.83 Q119.955 1134.93 121.76 1138.5 Q123.589 1142.04 127.2 1142.04 Q130.834 1142.04 132.64 1138.5 Q134.468 1134.93 134.468 1127.83 Q134.468 1120.7 132.64 1117.16 Q130.834 1113.59 127.2 1113.59 M127.2 1109.89 Q133.01 1109.89 136.066 1114.49 Q139.144 1119.08 139.144 1127.83 Q139.144 1136.55 136.066 1141.16 Q133.01 1145.74 127.2 1145.74 Q121.39 1145.74 118.311 1141.16 Q115.256 1136.55 115.256 1127.83 Q115.256 1119.08 118.311 1114.49 Q121.39 1109.89 127.2 1109.89 Z" fill="#000000" fill-rule="nonzero" fill-opacity="1" /><path clip-path="url(#clip400)" d="M147.362 1139.19 L152.246 1139.19 L152.246 1145.07 L147.362 1145.07 L147.362 1139.19 Z" fill="#000000" fill-rule="nonzero" fill-opacity="1" /><path clip-path="url(#clip400)" d="M172.431 1113.59 Q168.82 1113.59 166.991 1117.16 Q165.186 1120.7 165.186 1127.83 Q165.186 1134.93 166.991 1138.5 Q168.82 1142.04 172.431 1142.04 Q176.065 1142.04 177.871 1138.5 Q179.7 1134.93 179.7 1127.83 Q179.7 1120.7 177.871 1117.16 Q176.065 1113.59 172.431 1113.59 M172.431 1109.89 Q178.241 1109.89 181.297 1114.49 Q184.376 1119.08 184.376 1127.83 Q184.376 1136.55 181.297 1141.16 Q178.241 1145.74 172.431 1145.74 Q166.621 1145.74 163.542 1141.16 Q160.487 1136.55 160.487 1127.83 Q160.487 1119.08 163.542 1114.49 Q166.621 1109.89 172.431 1109.89 Z" fill="#000000" fill-rule="nonzero" fill-opacity="1" /><path clip-path="url(#clip400)" d="M196.621 1141.14 L212.94 1141.14 L212.94 1145.07 L190.996 1145.07 L190.996 1141.14 Q193.658 1138.38 198.241 1133.75 Q202.848 1129.1 204.028 1127.76 Q206.274 1125.23 207.153 1123.5 Q208.056 1121.74 208.056 1120.05 Q208.056 1117.29 206.112 1115.56 Q204.19 1113.82 201.088 1113.82 Q198.889 1113.82 196.436 1114.59 Q194.005 1115.35 191.227 1116.9 L191.227 1112.18 Q194.051 1111.04 196.505 1110.47 Q198.959 1109.89 200.996 1109.89 Q206.366 1109.89 209.561 1112.57 Q212.755 1115.26 212.755 1119.75 Q212.755 1121.88 211.945 1123.8 Q211.158 1125.7 209.051 1128.29 Q208.473 1128.96 205.371 1132.18 Q202.269 1135.37 196.621 1141.14 Z" fill="#000000" fill-rule="nonzero" fill-opacity="1" /><path clip-path="url(#clip400)" d="M222.801 1110.51 L241.158 1110.51 L241.158 1114.45 L227.084 1114.45 L227.084 1122.92 Q228.102 1122.57 229.121 1122.41 Q230.139 1122.22 231.158 1122.22 Q236.945 1122.22 240.324 1125.4 Q243.704 1128.57 243.704 1133.98 Q243.704 1139.56 240.232 1142.66 Q236.76 1145.74 230.44 1145.74 Q228.264 1145.74 225.996 1145.37 Q223.75 1145 221.343 1144.26 L221.343 1139.56 Q223.426 1140.7 225.648 1141.25 Q227.871 1141.81 230.347 1141.81 Q234.352 1141.81 236.69 1139.7 Q239.028 1137.59 239.028 1133.98 Q239.028 1130.37 236.69 1128.27 Q234.352 1126.16 230.347 1126.16 Q228.473 1126.16 226.598 1126.58 Q224.746 1126.99 222.801 1127.87 L222.801 1110.51 Z" fill="#000000" fill-rule="nonzero" fill-opacity="1" /><path clip-path="url(#clip400)" d="M126.205 818.202 Q122.593 818.202 120.765 821.767 Q118.959 825.309 118.959 832.438 Q118.959 839.545 120.765 843.11 Q122.593 846.651 126.205 846.651 Q129.839 846.651 131.644 843.11 Q133.473 839.545 133.473 832.438 Q133.473 825.309 131.644 821.767 Q129.839 818.202 126.205 818.202 M126.205 814.499 Q132.015 814.499 135.07 819.105 Q138.149 823.688 138.149 832.438 Q138.149 841.165 135.07 845.772 Q132.015 850.355 126.205 850.355 Q120.394 850.355 117.316 845.772 Q114.26 841.165 114.26 832.438 Q114.26 823.688 117.316 819.105 Q120.394 814.499 126.205 814.499 Z" fill="#000000" fill-rule="nonzero" fill-opacity="1" /><path clip-path="url(#clip400)" d="M146.366 843.804 L151.251 843.804 L151.251 849.684 L146.366 849.684 L146.366 843.804 Z" fill="#000000" fill-rule="nonzero" fill-opacity="1" /><path clip-path="url(#clip400)" d="M171.436 818.202 Q167.825 818.202 165.996 821.767 Q164.19 825.309 164.19 832.438 Q164.19 839.545 165.996 843.11 Q167.825 846.651 171.436 846.651 Q175.07 846.651 176.876 843.11 Q178.704 839.545 178.704 832.438 Q178.704 825.309 176.876 821.767 Q175.07 818.202 171.436 818.202 M171.436 814.499 Q177.246 814.499 180.301 819.105 Q183.38 823.688 183.38 832.438 Q183.38 841.165 180.301 845.772 Q177.246 850.355 171.436 850.355 Q165.626 850.355 162.547 845.772 Q159.491 841.165 159.491 832.438 Q159.491 823.688 162.547 819.105 Q165.626 814.499 171.436 814.499 Z" fill="#000000" fill-rule="nonzero" fill-opacity="1" /><path clip-path="url(#clip400)" d="M191.644 815.124 L210 815.124 L210 819.059 L195.926 819.059 L195.926 827.531 Q196.945 827.184 197.963 827.022 Q198.982 826.836 200 826.836 Q205.787 826.836 209.167 830.008 Q212.547 833.179 212.547 838.596 Q212.547 844.174 209.074 847.276 Q205.602 850.355 199.283 850.355 Q197.107 850.355 194.838 849.984 Q192.593 849.614 190.186 848.873 L190.186 844.174 Q192.269 845.309 194.491 845.864 Q196.713 846.42 199.19 846.42 Q203.195 846.42 205.533 844.313 Q207.871 842.207 207.871 838.596 Q207.871 834.985 205.533 832.878 Q203.195 830.772 199.19 830.772 Q197.315 830.772 195.44 831.188 Q193.588 831.605 191.644 832.485 L191.644 815.124 Z" fill="#000000" fill-rule="nonzero" fill-opacity="1" /><path clip-path="url(#clip400)" d="M231.76 818.202 Q228.148 818.202 226.32 821.767 Q224.514 825.309 224.514 832.438 Q224.514 839.545 226.32 843.11 Q228.148 846.651 231.76 846.651 Q235.394 846.651 237.199 843.11 Q239.028 839.545 239.028 832.438 Q239.028 825.309 237.199 821.767 Q235.394 818.202 231.76 818.202 M231.76 814.499 Q237.57 814.499 240.625 819.105 Q243.704 823.688 243.704 832.438 Q243.704 841.165 240.625 845.772 Q237.57 850.355 231.76 850.355 Q225.949 850.355 222.871 845.772 Q219.815 841.165 219.815 832.438 Q219.815 823.688 222.871 819.105 Q225.949 814.499 231.76 814.499 Z" fill="#000000" fill-rule="nonzero" fill-opacity="1" /><path clip-path="url(#clip400)" d="M127.2 522.814 Q123.589 522.814 121.76 526.379 Q119.955 529.921 119.955 537.05 Q119.955 544.157 121.76 547.721 Q123.589 551.263 127.2 551.263 Q130.834 551.263 132.64 547.721 Q134.468 544.157 134.468 537.05 Q134.468 529.921 132.64 526.379 Q130.834 522.814 127.2 522.814 M127.2 519.11 Q133.01 519.11 136.066 523.717 Q139.144 528.3 139.144 537.05 Q139.144 545.777 136.066 550.383 Q133.01 554.967 127.2 554.967 Q121.39 554.967 118.311 550.383 Q115.256 545.777 115.256 537.05 Q115.256 528.3 118.311 523.717 Q121.39 519.11 127.2 519.11 Z" fill="#000000" fill-rule="nonzero" fill-opacity="1" /><path clip-path="url(#clip400)" d="M147.362 548.416 L152.246 548.416 L152.246 554.295 L147.362 554.295 L147.362 548.416 Z" fill="#000000" fill-rule="nonzero" fill-opacity="1" /><path clip-path="url(#clip400)" d="M172.431 522.814 Q168.82 522.814 166.991 526.379 Q165.186 529.921 165.186 537.05 Q165.186 544.157 166.991 547.721 Q168.82 551.263 172.431 551.263 Q176.065 551.263 177.871 547.721 Q179.7 544.157 179.7 537.05 Q179.7 529.921 177.871 526.379 Q176.065 522.814 172.431 522.814 M172.431 519.11 Q178.241 519.11 181.297 523.717 Q184.376 528.3 184.376 537.05 Q184.376 545.777 181.297 550.383 Q178.241 554.967 172.431 554.967 Q166.621 554.967 163.542 550.383 Q160.487 545.777 160.487 537.05 Q160.487 528.3 163.542 523.717 Q166.621 519.11 172.431 519.11 Z" fill="#000000" fill-rule="nonzero" fill-opacity="1" /><path clip-path="url(#clip400)" d="M191.413 519.735 L213.635 519.735 L213.635 521.726 L201.088 554.295 L196.204 554.295 L208.01 523.671 L191.413 523.671 L191.413 519.735 Z" fill="#000000" fill-rule="nonzero" fill-opacity="1" /><path clip-path="url(#clip400)" d="M222.801 519.735 L241.158 519.735 L241.158 523.671 L227.084 523.671 L227.084 532.143 Q228.102 531.796 229.121 531.634 Q230.139 531.448 231.158 531.448 Q236.945 531.448 240.324 534.62 Q243.704 537.791 243.704 543.208 Q243.704 548.786 240.232 551.888 Q236.76 554.967 230.44 554.967 Q228.264 554.967 225.996 554.596 Q223.75 554.226 221.343 553.485 L221.343 548.786 Q223.426 549.92 225.648 550.476 Q227.871 551.032 230.347 551.032 Q234.352 551.032 236.69 548.925 Q239.028 546.819 239.028 543.208 Q239.028 539.596 236.69 537.49 Q234.352 535.384 230.347 535.384 Q228.473 535.384 226.598 535.8 Q224.746 536.217 222.801 537.096 L222.801 519.735 Z" fill="#000000" fill-rule="nonzero" fill-opacity="1" /><path clip-path="url(#clip400)" d="M126.205 227.426 Q122.593 227.426 120.765 230.991 Q118.959 234.532 118.959 241.662 Q118.959 248.769 120.765 252.333 Q122.593 255.875 126.205 255.875 Q129.839 255.875 131.644 252.333 Q133.473 248.769 133.473 241.662 Q133.473 234.532 131.644 230.991 Q129.839 227.426 126.205 227.426 M126.205 223.722 Q132.015 223.722 135.07 228.329 Q138.149 232.912 138.149 241.662 Q138.149 250.389 135.07 254.995 Q132.015 259.579 126.205 259.579 Q120.394 259.579 117.316 254.995 Q114.26 250.389 114.26 241.662 Q114.26 232.912 117.316 228.329 Q120.394 223.722 126.205 223.722 Z" fill="#000000" fill-rule="nonzero" fill-opacity="1" /><path clip-path="url(#clip400)" d="M146.366 253.028 L151.251 253.028 L151.251 258.907 L146.366 258.907 L146.366 253.028 Z" fill="#000000" fill-rule="nonzero" fill-opacity="1" /><path clip-path="url(#clip400)" d="M162.246 254.972 L169.885 254.972 L169.885 228.607 L161.575 230.273 L161.575 226.014 L169.839 224.347 L174.514 224.347 L174.514 254.972 L182.153 254.972 L182.153 258.907 L162.246 258.907 L162.246 254.972 Z" fill="#000000" fill-rule="nonzero" fill-opacity="1" /><path clip-path="url(#clip400)" d="M201.598 227.426 Q197.987 227.426 196.158 230.991 Q194.352 234.532 194.352 241.662 Q194.352 248.769 196.158 252.333 Q197.987 255.875 201.598 255.875 Q205.232 255.875 207.037 252.333 Q208.866 248.769 208.866 241.662 Q208.866 234.532 207.037 230.991 Q205.232 227.426 201.598 227.426 M201.598 223.722 Q207.408 223.722 210.463 228.329 Q213.542 232.912 213.542 241.662 Q213.542 250.389 210.463 254.995 Q207.408 259.579 201.598 259.579 Q195.787 259.579 192.709 254.995 Q189.653 250.389 189.653 241.662 Q189.653 232.912 192.709 228.329 Q195.787 223.722 201.598 223.722 Z" fill="#000000" fill-rule="nonzero" fill-opacity="1" /><path clip-path="url(#clip400)" d="M231.76 227.426 Q228.148 227.426 226.32 230.991 Q224.514 234.532 224.514 241.662 Q224.514 248.769 226.32 252.333 Q228.148 255.875 231.76 255.875 Q235.394 255.875 237.199 252.333 Q239.028 248.769 239.028 241.662 Q239.028 234.532 237.199 230.991 Q235.394 227.426 231.76 227.426 M231.76 223.722 Q237.57 223.722 240.625 228.329 Q243.704 232.912 243.704 241.662 Q243.704 250.389 240.625 254.995 Q237.57 259.579 231.76 259.579 Q225.949 259.579 222.871 254.995 Q219.815 250.389 219.815 241.662 Q219.815 232.912 222.871 228.329 Q225.949 223.722 231.76 223.722 Z" fill="#000000" fill-rule="nonzero" fill-opacity="1" /><path clip-path="url(#clip400)" d="M16.4842 1039.99 L16.4842 1012.68 L21.895 1012.68 L21.895 1033.56 L35.8996 1033.56 L35.8996 1014.71 L41.3104 1014.71 L41.3104 1033.56 L64.0042 1033.56 L64.0042 1039.99 L16.4842 1039.99 Z" fill="#000000" fill-rule="nonzero" fill-opacity="1" /><path clip-path="url(#clip400)" d="M46.0847 992.529 Q46.0847 999.627 47.7079 1002.36 Q49.3312 1005.1 53.2461 1005.1 Q56.3653 1005.1 58.2114 1003.06 Q60.0256 1001 60.0256 997.463 Q60.0256 992.593 56.5881 989.665 Q53.1188 986.704 47.3897 986.704 L46.0847 986.704 L46.0847 992.529 M43.6657 980.848 L64.0042 980.848 L64.0042 986.704 L58.5933 986.704 Q61.8398 988.71 63.3994 991.702 Q64.9272 994.693 64.9272 999.022 Q64.9272 1004.5 61.8716 1007.74 Q58.7843 1010.96 53.6281 1010.96 Q47.6125 1010.96 44.5569 1006.95 Q41.5014 1002.91 41.5014 994.916 L41.5014 986.704 L40.9285 986.704 Q36.8862 986.704 34.6901 989.378 Q32.4621 992.02 32.4621 996.826 Q32.4621 999.881 33.1941 1002.78 Q33.9262 1005.67 35.3903 1008.35 L29.9795 1008.35 Q28.7381 1005.13 28.1334 1002.11 Q27.4968 999.086 27.4968 996.221 Q27.4968 988.487 31.5072 984.667 Q35.5176 980.848 43.6657 980.848 Z" fill="#000000" fill-rule="nonzero" fill-opacity="1" /><path clip-path="url(#clip400)" d="M28.3562 968.785 L28.3562 962.929 L64.0042 962.929 L64.0042 968.785 L28.3562 968.785 M14.479 968.785 L14.479 962.929 L21.895 962.929 L21.895 968.785 L14.479 968.785 Z" fill="#000000" fill-rule="nonzero" fill-opacity="1" /><path clip-path="url(#clip400)" d="M33.8307 930.018 Q33.2578 931.005 33.0032 932.182 Q32.7167 933.328 32.7167 934.728 Q32.7167 939.694 35.9632 942.367 Q39.1779 945.009 45.2253 945.009 L64.0042 945.009 L64.0042 950.897 L28.3562 950.897 L28.3562 945.009 L33.8944 945.009 Q30.6479 943.163 29.0883 940.203 Q27.4968 937.243 27.4968 933.01 Q27.4968 932.405 27.5923 931.673 Q27.656 930.941 27.8151 930.05 L33.8307 930.018 Z" fill="#000000" fill-rule="nonzero" fill-opacity="1" /><path clip-path="url(#clip400)" d="M16.4842 902.9 L16.4842 896.471 L58.5933 896.471 L58.5933 873.331 L64.0042 873.331 L64.0042 902.9 L16.4842 902.9 Z" fill="#000000" fill-rule="nonzero" fill-opacity="1" /><path clip-path="url(#clip400)" d="M32.4621 854.17 Q32.4621 858.881 36.1542 861.618 Q39.8145 864.356 46.212 864.356 Q52.6095 864.356 56.3017 861.65 Q59.9619 858.913 59.9619 854.17 Q59.9619 849.492 56.2698 846.754 Q52.5777 844.017 46.212 844.017 Q39.8781 844.017 36.186 846.754 Q32.4621 849.492 32.4621 854.17 M27.4968 854.17 Q27.4968 846.532 32.4621 842.171 Q37.4273 837.811 46.212 837.811 Q54.9649 837.811 59.9619 842.171 Q64.9272 846.532 64.9272 854.17 Q64.9272 861.841 59.9619 866.202 Q54.9649 870.53 46.212 870.53 Q37.4273 870.53 32.4621 866.202 Q27.4968 861.841 27.4968 854.17 Z" fill="#000000" fill-rule="nonzero" fill-opacity="1" /><path clip-path="url(#clip400)" d="M46.0847 811.902 Q46.0847 819 47.7079 821.737 Q49.3312 824.474 53.2461 824.474 Q56.3653 824.474 58.2114 822.437 Q60.0256 820.369 60.0256 816.836 Q60.0256 811.966 56.5881 809.038 Q53.1188 806.078 47.3897 806.078 L46.0847 806.078 L46.0847 811.902 M43.6657 800.221 L64.0042 800.221 L64.0042 806.078 L58.5933 806.078 Q61.8398 808.083 63.3994 811.075 Q64.9272 814.067 64.9272 818.395 Q64.9272 823.87 61.8716 827.116 Q58.7843 830.331 53.6281 830.331 Q47.6125 830.331 44.5569 826.32 Q41.5014 822.278 41.5014 814.289 L41.5014 806.078 L40.9285 806.078 Q36.8862 806.078 34.6901 808.751 Q32.4621 811.393 32.4621 816.199 Q32.4621 819.255 33.1941 822.151 Q33.9262 825.047 35.3903 827.721 L29.9795 827.721 Q28.7381 824.506 28.1334 821.483 Q27.4968 818.459 27.4968 815.594 Q27.4968 807.86 31.5072 804.041 Q35.5176 800.221 43.6657 800.221 Z" fill="#000000" fill-rule="nonzero" fill-opacity="1" /><path clip-path="url(#clip400)" d="M33.7671 764.7 L14.479 764.7 L14.479 758.844 L64.0042 758.844 L64.0042 764.7 L58.657 764.7 Q61.8398 766.547 63.3994 769.379 Q64.9272 772.18 64.9272 776.127 Q64.9272 782.588 59.771 786.662 Q54.6147 790.704 46.212 790.704 Q37.8093 790.704 32.6531 786.662 Q27.4968 782.588 27.4968 776.127 Q27.4968 772.18 29.0564 769.379 Q30.5842 766.547 33.7671 764.7 M46.212 784.657 Q52.6732 784.657 56.3653 782.015 Q60.0256 779.342 60.0256 774.695 Q60.0256 770.048 56.3653 767.374 Q52.6732 764.7 46.212 764.7 Q39.7508 764.7 36.0905 767.374 Q32.3984 770.048 32.3984 774.695 Q32.3984 779.342 36.0905 782.015 Q39.7508 784.657 46.212 784.657 Z" fill="#000000" fill-rule="nonzero" fill-opacity="1" /><path clip-path="url(#clip400)" d="M16.4842 730.039 L16.4842 723.546 L56.6518 713.552 L16.4842 703.59 L16.4842 696.365 L56.6518 686.37 L16.4842 676.408 L16.4842 669.883 L64.0042 681.819 L64.0042 689.903 L22.7544 699.929 L64.0042 710.051 L64.0042 718.135 L16.4842 730.039 Z" fill="#000000" fill-rule="nonzero" fill-opacity="1" /><path clip-path="url(#clip400)" d="M44.7161 634.936 L47.5806 634.936 L47.5806 661.862 Q53.6281 661.481 56.8109 658.234 Q59.9619 654.956 59.9619 649.131 Q59.9619 645.757 59.1344 642.606 Q58.3069 639.423 56.6518 636.304 L62.1899 636.304 Q63.5267 639.455 64.227 642.765 Q64.9272 646.076 64.9272 649.481 Q64.9272 658.011 59.9619 663.008 Q54.9967 667.974 46.5303 667.974 Q37.7774 667.974 32.6531 663.263 Q27.4968 658.52 27.4968 650.5 Q27.4968 643.306 32.1438 639.137 Q36.7589 634.936 44.7161 634.936 M42.9973 640.792 Q38.1912 640.856 35.3266 643.497 Q32.4621 646.107 32.4621 650.436 Q32.4621 655.338 35.2312 658.298 Q38.0002 661.226 43.0292 661.671 L42.9973 640.792 Z" fill="#000000" fill-rule="nonzero" fill-opacity="1" /><path clip-path="url(#clip400)" d="M28.3562 625.323 L28.3562 619.467 L64.0042 619.467 L64.0042 625.323 L28.3562 625.323 M14.479 625.323 L14.479 619.467 L21.895 619.467 L21.895 625.323 L14.479 625.323 Z" fill="#000000" fill-rule="nonzero" fill-opacity="1" /><path clip-path="url(#clip400)" d="M45.7664 583.755 Q39.4007 583.755 35.8996 586.397 Q32.3984 589.007 32.3984 593.749 Q32.3984 598.46 35.8996 601.102 Q39.4007 603.712 45.7664 603.712 Q52.1003 603.712 55.6014 601.102 Q59.1026 598.46 59.1026 593.749 Q59.1026 589.007 55.6014 586.397 Q52.1003 583.755 45.7664 583.755 M59.58 577.899 Q68.683 577.899 73.1071 581.941 Q77.5631 585.983 77.5631 594.322 Q77.5631 597.41 77.0857 600.147 Q76.6401 602.884 75.6852 605.462 L69.9879 605.462 Q71.3884 602.884 72.0568 600.37 Q72.7252 597.855 72.7252 595.245 Q72.7252 589.484 69.7015 586.62 Q66.7096 583.755 60.6303 583.755 L57.7339 583.755 Q60.885 585.569 62.4446 588.402 Q64.0042 591.235 64.0042 595.182 Q64.0042 601.738 59.0071 605.749 Q54.01 609.759 45.7664 609.759 Q37.491 609.759 32.4939 605.749 Q27.4968 601.738 27.4968 595.182 Q27.4968 591.235 29.0564 588.402 Q30.616 585.569 33.7671 583.755 L28.3562 583.755 L28.3562 577.899 L59.58 577.899 Z" fill="#000000" fill-rule="nonzero" fill-opacity="1" /><path clip-path="url(#clip400)" d="M42.4881 536.203 L64.0042 536.203 L64.0042 542.06 L42.679 542.06 Q37.6183 542.06 35.1038 544.033 Q32.5894 546.007 32.5894 549.953 Q32.5894 554.696 35.6131 557.433 Q38.6368 560.17 43.8567 560.17 L64.0042 560.17 L64.0042 566.059 L14.479 566.059 L14.479 560.17 L33.8944 560.17 Q30.6797 558.07 29.0883 555.237 Q27.4968 552.372 27.4968 548.648 Q27.4968 542.505 31.3163 539.354 Q35.1038 536.203 42.4881 536.203 Z" fill="#000000" fill-rule="nonzero" fill-opacity="1" /><path clip-path="url(#clip400)" d="M18.2347 518.73 L28.3562 518.73 L28.3562 506.667 L32.9077 506.667 L32.9077 518.73 L52.2594 518.73 Q56.6199 518.73 57.8613 517.552 Q59.1026 516.342 59.1026 512.682 L59.1026 506.667 L64.0042 506.667 L64.0042 512.682 Q64.0042 519.462 61.4897 522.04 Q58.9434 524.618 52.2594 524.618 L32.9077 524.618 L32.9077 528.915 L28.3562 528.915 L28.3562 524.618 L18.2347 524.618 L18.2347 518.73 Z" fill="#000000" fill-rule="nonzero" fill-opacity="1" /><path clip-path="url(#clip400)" d="M506.414 12.096 L541.17 12.096 L541.17 18.9825 L514.596 18.9825 L514.596 36.8065 L538.578 36.8065 L538.578 43.6931 L514.596 43.6931 L514.596 72.576 L506.414 72.576 L506.414 12.096 Z" fill="#000000" fill-rule="nonzero" fill-opacity="1" /><path clip-path="url(#clip400)" d="M566.813 49.7694 Q557.779 49.7694 554.295 51.8354 Q550.812 53.9013 550.812 58.8839 Q550.812 62.8538 553.404 65.2034 Q556.037 67.5124 560.534 67.5124 Q566.732 67.5124 570.458 63.1374 Q574.226 58.7219 574.226 51.4303 L574.226 49.7694 L566.813 49.7694 M581.679 46.6907 L581.679 72.576 L574.226 72.576 L574.226 65.6895 Q571.674 69.8214 567.866 71.8063 Q564.058 73.7508 558.549 73.7508 Q551.581 73.7508 547.449 69.8619 Q543.358 65.9325 543.358 59.3701 Q543.358 51.7138 548.462 47.825 Q553.607 43.9361 563.774 43.9361 L574.226 43.9361 L574.226 43.2069 Q574.226 38.0623 570.823 35.2672 Q567.461 32.4315 561.344 32.4315 Q557.455 32.4315 553.769 33.3632 Q550.082 34.295 546.68 36.1584 L546.68 29.2718 Q550.771 27.692 554.619 26.9223 Q558.468 26.1121 562.114 26.1121 Q571.957 26.1121 576.818 31.2163 Q581.679 36.3204 581.679 46.6907 Z" fill="#000000" fill-rule="nonzero" fill-opacity="1" /><path clip-path="url(#clip400)" d="M597.032 27.2059 L604.486 27.2059 L604.486 72.576 L597.032 72.576 L597.032 27.2059 M597.032 9.54393 L604.486 9.54393 L604.486 18.9825 L597.032 18.9825 L597.032 9.54393 Z" fill="#000000" fill-rule="nonzero" fill-opacity="1" /><path clip-path="url(#clip400)" d="M646.372 34.1734 Q645.117 33.4443 643.618 33.1202 Q642.159 32.7556 640.377 32.7556 Q634.058 32.7556 630.655 36.8875 Q627.293 40.9789 627.293 48.6757 L627.293 72.576 L619.798 72.576 L619.798 27.2059 L627.293 27.2059 L627.293 34.2544 Q629.642 30.1225 633.409 28.1376 Q637.177 26.1121 642.565 26.1121 Q643.334 26.1121 644.266 26.2337 Q645.198 26.3147 646.332 26.5172 L646.372 34.1734 Z" fill="#000000" fill-rule="nonzero" fill-opacity="1" /><path clip-path="url(#clip400)" d="M680.886 12.096 L689.069 12.096 L689.069 65.6895 L718.519 65.6895 L718.519 72.576 L680.886 72.576 L680.886 12.096 Z" fill="#000000" fill-rule="nonzero" fill-opacity="1" /><path clip-path="url(#clip400)" d="M742.905 32.4315 Q736.91 32.4315 733.426 37.1306 Q729.943 41.7891 729.943 49.9314 Q729.943 58.0738 733.386 62.7728 Q736.87 67.4314 742.905 67.4314 Q748.86 67.4314 752.344 62.7323 Q755.828 58.0333 755.828 49.9314 Q755.828 41.8701 752.344 37.1711 Q748.86 32.4315 742.905 32.4315 M742.905 26.1121 Q752.628 26.1121 758.177 32.4315 Q763.727 38.7509 763.727 49.9314 Q763.727 61.0714 758.177 67.4314 Q752.628 73.7508 742.905 73.7508 Q733.143 73.7508 727.593 67.4314 Q722.084 61.0714 722.084 49.9314 Q722.084 38.7509 727.593 32.4315 Q733.143 26.1121 742.905 26.1121 Z" fill="#000000" fill-rule="nonzero" fill-opacity="1" /><path clip-path="url(#clip400)" d="M796.701 49.7694 Q787.668 49.7694 784.184 51.8354 Q780.7 53.9013 780.7 58.8839 Q780.7 62.8538 783.293 65.2034 Q785.926 67.5124 790.423 67.5124 Q796.62 67.5124 800.347 63.1374 Q804.115 58.7219 804.115 51.4303 L804.115 49.7694 L796.701 49.7694 M811.568 46.6907 L811.568 72.576 L804.115 72.576 L804.115 65.6895 Q801.563 69.8214 797.755 71.8063 Q793.947 73.7508 788.438 73.7508 Q781.47 73.7508 777.338 69.8619 Q773.247 65.9325 773.247 59.3701 Q773.247 51.7138 778.351 47.825 Q783.495 43.9361 793.663 43.9361 L804.115 43.9361 L804.115 43.2069 Q804.115 38.0623 800.712 35.2672 Q797.35 32.4315 791.233 32.4315 Q787.344 32.4315 783.658 33.3632 Q779.971 34.295 776.568 36.1584 L776.568 29.2718 Q780.66 27.692 784.508 26.9223 Q788.357 26.1121 792.002 26.1121 Q801.846 26.1121 806.707 31.2163 Q811.568 36.3204 811.568 46.6907 Z" fill="#000000" fill-rule="nonzero" fill-opacity="1" /><path clip-path="url(#clip400)" d="M856.776 34.0924 L856.776 9.54393 L864.23 9.54393 L864.23 72.576 L856.776 72.576 L856.776 65.7705 Q854.427 69.8214 850.822 71.8063 Q847.257 73.7508 842.234 73.7508 Q834.01 73.7508 828.825 67.1883 Q823.68 60.6258 823.68 49.9314 Q823.68 39.2371 828.825 32.6746 Q834.01 26.1121 842.234 26.1121 Q847.257 26.1121 850.822 28.0971 Q854.427 30.0415 856.776 34.0924 M831.377 49.9314 Q831.377 58.1548 834.739 62.8538 Q838.142 67.5124 844.057 67.5124 Q849.971 67.5124 853.374 62.8538 Q856.776 58.1548 856.776 49.9314 Q856.776 41.7081 853.374 37.0496 Q849.971 32.3505 844.057 32.3505 Q838.142 32.3505 834.739 37.0496 Q831.377 41.7081 831.377 49.9314 Z" fill="#000000" fill-rule="nonzero" fill-opacity="1" /><path clip-path="url(#clip400)" d="M900.891 12.096 L909.155 12.096 L921.874 63.2184 L934.554 12.096 L943.749 12.096 L956.469 63.2184 L969.148 12.096 L977.453 12.096 L962.262 72.576 L951.973 72.576 L939.212 20.0763 L926.33 72.576 L916.041 72.576 L900.891 12.096 Z" fill="#000000" fill-rule="nonzero" fill-opacity="1" /><path clip-path="url(#clip400)" d="M1021.93 48.0275 L1021.93 51.6733 L987.661 51.6733 Q988.147 59.3701 992.279 63.421 Q996.452 67.4314 1003.86 67.4314 Q1008.16 67.4314 1012.17 66.3781 Q1016.22 65.3249 1020.19 63.2184 L1020.19 70.267 Q1016.18 71.9684 1011.97 72.8596 Q1007.75 73.7508 1003.42 73.7508 Q992.563 73.7508 986.203 67.4314 Q979.883 61.1119 979.883 50.3365 Q979.883 39.1965 985.879 32.6746 Q991.915 26.1121 1002.12 26.1121 Q1011.28 26.1121 1016.58 32.0264 Q1021.93 37.9003 1021.93 48.0275 M1014.48 45.84 Q1014.4 39.7232 1011.03 36.0774 Q1007.71 32.4315 1002.2 32.4315 Q995.965 32.4315 992.198 35.9558 Q988.471 39.4801 987.904 45.8805 L1014.48 45.84 Z" fill="#000000" fill-rule="nonzero" fill-opacity="1" /><path clip-path="url(#clip400)" d="M1034.17 27.2059 L1041.62 27.2059 L1041.62 72.576 L1034.17 72.576 L1034.17 27.2059 M1034.17 9.54393 L1041.62 9.54393 L1041.62 18.9825 L1034.17 18.9825 L1034.17 9.54393 Z" fill="#000000" fill-rule="nonzero" fill-opacity="1" /><path clip-path="url(#clip400)" d="M1087.07 49.3643 Q1087.07 41.2625 1083.71 36.8065 Q1080.39 32.3505 1074.35 32.3505 Q1068.36 32.3505 1064.99 36.8065 Q1061.67 41.2625 1061.67 49.3643 Q1061.67 57.4256 1064.99 61.8816 Q1068.36 66.3376 1074.35 66.3376 Q1080.39 66.3376 1083.71 61.8816 Q1087.07 57.4256 1087.07 49.3643 M1094.52 66.9452 Q1094.52 78.5308 1089.38 84.1616 Q1084.23 89.8329 1073.62 89.8329 Q1069.69 89.8329 1066.21 89.2252 Q1062.72 88.6581 1059.44 87.4428 L1059.44 80.1917 Q1062.72 81.9741 1065.92 82.8248 Q1069.12 83.6755 1072.45 83.6755 Q1079.78 83.6755 1083.42 79.8271 Q1087.07 76.0193 1087.07 68.282 L1087.07 64.5957 Q1084.76 68.6061 1081.16 70.5911 Q1077.55 72.576 1072.53 72.576 Q1064.18 72.576 1059.08 66.2161 Q1053.97 59.8562 1053.97 49.3643 Q1053.97 38.832 1059.08 32.472 Q1064.18 26.1121 1072.53 26.1121 Q1077.55 26.1121 1081.16 28.0971 Q1084.76 30.082 1087.07 34.0924 L1087.07 27.2059 L1094.52 27.2059 L1094.52 66.9452 Z" fill="#000000" fill-rule="nonzero" fill-opacity="1" /><path clip-path="url(#clip400)" d="M1147.59 45.1919 L1147.59 72.576 L1140.14 72.576 L1140.14 45.4349 Q1140.14 38.994 1137.63 35.7938 Q1135.11 32.5936 1130.09 32.5936 Q1124.06 32.5936 1120.57 36.4419 Q1117.09 40.2903 1117.09 46.9338 L1117.09 72.576 L1109.59 72.576 L1109.59 9.54393 L1117.09 9.54393 L1117.09 34.2544 Q1119.76 30.163 1123.37 28.1376 Q1127.01 26.1121 1131.75 26.1121 Q1139.57 26.1121 1143.58 30.9732 Q1147.59 35.7938 1147.59 45.1919 Z" fill="#000000" fill-rule="nonzero" fill-opacity="1" /><path clip-path="url(#clip400)" d="M1169.83 14.324 L1169.83 27.2059 L1185.18 27.2059 L1185.18 32.9987 L1169.83 32.9987 L1169.83 57.6282 Q1169.83 63.1779 1171.33 64.7578 Q1172.87 66.3376 1177.53 66.3376 L1185.18 66.3376 L1185.18 72.576 L1177.53 72.576 Q1168.9 72.576 1165.62 69.3758 Q1162.34 66.1351 1162.34 57.6282 L1162.34 32.9987 L1156.87 32.9987 L1156.87 27.2059 L1162.34 27.2059 L1162.34 14.324 L1169.83 14.324 Z" fill="#000000" fill-rule="nonzero" fill-opacity="1" /><path clip-path="url(#clip400)" d="M1223.91 28.5427 L1223.91 35.5912 Q1220.75 33.9709 1217.35 33.1607 Q1213.94 32.3505 1210.3 32.3505 Q1204.75 32.3505 1201.95 34.0519 Q1199.2 35.7533 1199.2 39.156 Q1199.2 41.7486 1201.18 43.2475 Q1203.17 44.7058 1209.16 46.0426 L1211.72 46.6097 Q1219.66 48.3111 1222.98 51.4303 Q1226.34 54.509 1226.34 60.0587 Q1226.34 66.3781 1221.32 70.0644 Q1216.33 73.7508 1207.58 73.7508 Q1203.94 73.7508 1199.97 73.0216 Q1196.04 72.3329 1191.66 70.9151 L1191.66 63.2184 Q1195.8 65.3654 1199.81 66.4591 Q1203.82 67.5124 1207.75 67.5124 Q1213.01 67.5124 1215.85 65.73 Q1218.68 63.9071 1218.68 60.6258 Q1218.68 57.5877 1216.62 55.9673 Q1214.59 54.3469 1207.67 52.8481 L1205.07 52.2405 Q1198.15 50.7821 1195.07 47.7845 Q1191.99 44.7463 1191.99 39.4801 Q1191.99 33.0797 1196.53 29.5959 Q1201.06 26.1121 1209.41 26.1121 Q1213.54 26.1121 1217.19 26.7198 Q1220.83 27.3274 1223.91 28.5427 Z" fill="#000000" fill-rule="nonzero" fill-opacity="1" /><path clip-path="url(#clip400)" d="M1271.79 65.7705 L1271.79 89.8329 L1264.3 89.8329 L1264.3 27.2059 L1271.79 27.2059 L1271.79 34.0924 Q1274.14 30.0415 1277.71 28.0971 Q1281.31 26.1121 1286.29 26.1121 Q1294.56 26.1121 1299.7 32.6746 Q1304.89 39.2371 1304.89 49.9314 Q1304.89 60.6258 1299.7 67.1883 Q1294.56 73.7508 1286.29 73.7508 Q1281.31 73.7508 1277.71 71.8063 Q1274.14 69.8214 1271.79 65.7705 M1297.15 49.9314 Q1297.15 41.7081 1293.75 37.0496 Q1290.39 32.3505 1284.47 32.3505 Q1278.56 32.3505 1275.15 37.0496 Q1271.79 41.7081 1271.79 49.9314 Q1271.79 58.1548 1275.15 62.8538 Q1278.56 67.5124 1284.47 67.5124 Q1290.39 67.5124 1293.75 62.8538 Q1297.15 58.1548 1297.15 49.9314 Z" fill="#000000" fill-rule="nonzero" fill-opacity="1" /><path clip-path="url(#clip400)" d="M1356.05 48.0275 L1356.05 51.6733 L1321.78 51.6733 Q1322.27 59.3701 1326.4 63.421 Q1330.57 67.4314 1337.98 67.4314 Q1342.28 67.4314 1346.29 66.3781 Q1350.34 65.3249 1354.31 63.2184 L1354.31 70.267 Q1350.3 71.9684 1346.09 72.8596 Q1341.87 73.7508 1337.54 73.7508 Q1326.68 73.7508 1320.32 67.4314 Q1314 61.1119 1314 50.3365 Q1314 39.1965 1320 32.6746 Q1326.03 26.1121 1336.24 26.1121 Q1345.4 26.1121 1350.7 32.0264 Q1356.05 37.9003 1356.05 48.0275 M1348.6 45.84 Q1348.52 39.7232 1345.15 36.0774 Q1341.83 32.4315 1336.32 32.4315 Q1330.08 32.4315 1326.32 35.9558 Q1322.59 39.4801 1322.02 45.8805 L1348.6 45.84 Z" fill="#000000" fill-rule="nonzero" fill-opacity="1" /><path clip-path="url(#clip400)" d="M1394.57 34.1734 Q1393.32 33.4443 1391.82 33.1202 Q1390.36 32.7556 1388.58 32.7556 Q1382.26 32.7556 1378.86 36.8875 Q1375.49 40.9789 1375.49 48.6757 L1375.49 72.576 L1368 72.576 L1368 27.2059 L1375.49 27.2059 L1375.49 34.2544 Q1377.84 30.1225 1381.61 28.1376 Q1385.38 26.1121 1390.77 26.1121 Q1391.54 26.1121 1392.47 26.2337 Q1393.4 26.3147 1394.53 26.5172 L1394.57 34.1734 Z" fill="#000000" fill-rule="nonzero" fill-opacity="1" /><path clip-path="url(#clip400)" d="M1429.09 12.096 L1437.27 12.096 L1437.27 65.6895 L1466.72 65.6895 L1466.72 72.576 L1429.09 72.576 L1429.09 12.096 Z" fill="#000000" fill-rule="nonzero" fill-opacity="1" /><path clip-path="url(#clip400)" d="M1491.11 32.4315 Q1485.11 32.4315 1481.63 37.1306 Q1478.14 41.7891 1478.14 49.9314 Q1478.14 58.0738 1481.59 62.7728 Q1485.07 67.4314 1491.11 67.4314 Q1497.06 67.4314 1500.55 62.7323 Q1504.03 58.0333 1504.03 49.9314 Q1504.03 41.8701 1500.55 37.1711 Q1497.06 32.4315 1491.11 32.4315 M1491.11 26.1121 Q1500.83 26.1121 1506.38 32.4315 Q1511.93 38.7509 1511.93 49.9314 Q1511.93 61.0714 1506.38 67.4314 Q1500.83 73.7508 1491.11 73.7508 Q1481.34 73.7508 1475.8 67.4314 Q1470.29 61.0714 1470.29 49.9314 Q1470.29 38.7509 1475.8 32.4315 Q1481.34 26.1121 1491.11 26.1121 Z" fill="#000000" fill-rule="nonzero" fill-opacity="1" /><path clip-path="url(#clip400)" d="M1544.9 49.7694 Q1535.87 49.7694 1532.39 51.8354 Q1528.9 53.9013 1528.9 58.8839 Q1528.9 62.8538 1531.49 65.2034 Q1534.13 67.5124 1538.62 67.5124 Q1544.82 67.5124 1548.55 63.1374 Q1552.32 58.7219 1552.32 51.4303 L1552.32 49.7694 L1544.9 49.7694 M1559.77 46.6907 L1559.77 72.576 L1552.32 72.576 L1552.32 65.6895 Q1549.76 69.8214 1545.96 71.8063 Q1542.15 73.7508 1536.64 73.7508 Q1529.67 73.7508 1525.54 69.8619 Q1521.45 65.9325 1521.45 59.3701 Q1521.45 51.7138 1526.55 47.825 Q1531.7 43.9361 1541.87 43.9361 L1552.32 43.9361 L1552.32 43.2069 Q1552.32 38.0623 1548.91 35.2672 Q1545.55 32.4315 1539.43 32.4315 Q1535.55 32.4315 1531.86 33.3632 Q1528.17 34.295 1524.77 36.1584 L1524.77 29.2718 Q1528.86 27.692 1532.71 26.9223 Q1536.56 26.1121 1540.2 26.1121 Q1550.05 26.1121 1554.91 31.2163 Q1559.77 36.3204 1559.77 46.6907 Z" fill="#000000" fill-rule="nonzero" fill-opacity="1" /><path clip-path="url(#clip400)" d="M1604.98 34.0924 L1604.98 9.54393 L1612.43 9.54393 L1612.43 72.576 L1604.98 72.576 L1604.98 65.7705 Q1602.63 69.8214 1599.02 71.8063 Q1595.46 73.7508 1590.44 73.7508 Q1582.21 73.7508 1577.03 67.1883 Q1571.88 60.6258 1571.88 49.9314 Q1571.88 39.2371 1577.03 32.6746 Q1582.21 26.1121 1590.44 26.1121 Q1595.46 26.1121 1599.02 28.0971 Q1602.63 30.0415 1604.98 34.0924 M1579.58 49.9314 Q1579.58 58.1548 1582.94 62.8538 Q1586.34 67.5124 1592.26 67.5124 Q1598.17 67.5124 1601.58 62.8538 Q1604.98 58.1548 1604.98 49.9314 Q1604.98 41.7081 1601.58 37.0496 Q1598.17 32.3505 1592.26 32.3505 Q1586.34 32.3505 1582.94 37.0496 Q1579.58 41.7081 1579.58 49.9314 Z" fill="#000000" fill-rule="nonzero" fill-opacity="1" /><path clip-path="url(#clip400)" d="M1650.39 46.5287 L1672.22 46.5287 L1672.22 53.1722 L1650.39 53.1722 L1650.39 46.5287 Z" fill="#000000" fill-rule="nonzero" fill-opacity="1" /><path clip-path="url(#clip400)" d="M1710.79 12.096 L1718.97 12.096 L1718.97 72.576 L1710.79 72.576 L1710.79 12.096 Z" fill="#000000" fill-rule="nonzero" fill-opacity="1" /><path clip-path="url(#clip400)" d="M1742.3 14.324 L1742.3 27.2059 L1757.66 27.2059 L1757.66 32.9987 L1742.3 32.9987 L1742.3 57.6282 Q1742.3 63.1779 1743.8 64.7578 Q1745.34 66.3376 1750 66.3376 L1757.66 66.3376 L1757.66 72.576 L1750 72.576 Q1741.37 72.576 1738.09 69.3758 Q1734.81 66.1351 1734.81 57.6282 L1734.81 32.9987 L1729.34 32.9987 L1729.34 27.2059 L1734.81 27.2059 L1734.81 14.324 L1742.3 14.324 Z" fill="#000000" fill-rule="nonzero" fill-opacity="1" /><path clip-path="url(#clip400)" d="M1806.27 48.0275 L1806.27 51.6733 L1772 51.6733 Q1772.48 59.3701 1776.62 63.421 Q1780.79 67.4314 1788.2 67.4314 Q1792.49 67.4314 1796.51 66.3781 Q1800.56 65.3249 1804.53 63.2184 L1804.53 70.267 Q1800.52 71.9684 1796.3 72.8596 Q1792.09 73.7508 1787.76 73.7508 Q1776.9 73.7508 1770.54 67.4314 Q1764.22 61.1119 1764.22 50.3365 Q1764.22 39.1965 1770.21 32.6746 Q1776.25 26.1121 1786.46 26.1121 Q1795.61 26.1121 1800.92 32.0264 Q1806.27 37.9003 1806.27 48.0275 M1798.81 45.84 Q1798.73 39.7232 1795.37 36.0774 Q1792.05 32.4315 1786.54 32.4315 Q1780.3 32.4315 1776.53 35.9558 Q1772.81 39.4801 1772.24 45.8805 L1798.81 45.84 Z" fill="#000000" fill-rule="nonzero" fill-opacity="1" /><path clip-path="url(#clip400)" d="M1844.79 34.1734 Q1843.54 33.4443 1842.04 33.1202 Q1840.58 32.7556 1838.8 32.7556 Q1832.48 32.7556 1829.07 36.8875 Q1825.71 40.9789 1825.71 48.6757 L1825.71 72.576 L1818.22 72.576 L1818.22 27.2059 L1825.71 27.2059 L1825.71 34.2544 Q1828.06 30.1225 1831.83 28.1376 Q1835.6 26.1121 1840.98 26.1121 Q1841.75 26.1121 1842.69 26.2337 Q1843.62 26.3147 1844.75 26.5172 L1844.79 34.1734 Z" fill="#000000" fill-rule="nonzero" fill-opacity="1" /><path clip-path="url(#clip400)" d="M1873.23 49.7694 Q1864.2 49.7694 1860.71 51.8354 Q1857.23 53.9013 1857.23 58.8839 Q1857.23 62.8538 1859.82 65.2034 Q1862.45 67.5124 1866.95 67.5124 Q1873.15 67.5124 1876.88 63.1374 Q1880.64 58.7219 1880.64 51.4303 L1880.64 49.7694 L1873.23 49.7694 M1888.1 46.6907 L1888.1 72.576 L1880.64 72.576 L1880.64 65.6895 Q1878.09 69.8214 1874.28 71.8063 Q1870.47 73.7508 1864.97 73.7508 Q1858 73.7508 1853.87 69.8619 Q1849.77 65.9325 1849.77 59.3701 Q1849.77 51.7138 1854.88 47.825 Q1860.02 43.9361 1870.19 43.9361 L1880.64 43.9361 L1880.64 43.2069 Q1880.64 38.0623 1877.24 35.2672 Q1873.88 32.4315 1867.76 32.4315 Q1863.87 32.4315 1860.19 33.3632 Q1856.5 34.295 1853.1 36.1584 L1853.1 29.2718 Q1857.19 27.692 1861.04 26.9223 Q1864.88 26.1121 1868.53 26.1121 Q1878.37 26.1121 1883.23 31.2163 Q1888.1 36.3204 1888.1 46.6907 Z" fill="#000000" fill-rule="nonzero" fill-opacity="1" /><path clip-path="url(#clip400)" d="M1910.82 14.324 L1910.82 27.2059 L1926.17 27.2059 L1926.17 32.9987 L1910.82 32.9987 L1910.82 57.6282 Q1910.82 63.1779 1912.32 64.7578 Q1913.86 66.3376 1918.52 66.3376 L1926.17 66.3376 L1926.17 72.576 L1918.52 72.576 Q1909.89 72.576 1906.61 69.3758 Q1903.33 66.1351 1903.33 57.6282 L1903.33 32.9987 L1897.86 32.9987 L1897.86 27.2059 L1903.33 27.2059 L1903.33 14.324 L1910.82 14.324 Z" fill="#000000" fill-rule="nonzero" fill-opacity="1" /><path clip-path="url(#clip400)" d="M1935.98 27.2059 L1943.43 27.2059 L1943.43 72.576 L1935.98 72.576 L1935.98 27.2059 M1935.98 9.54393 L1943.43 9.54393 L1943.43 18.9825 L1935.98 18.9825 L1935.98 9.54393 Z" fill="#000000" fill-rule="nonzero" fill-opacity="1" /><path clip-path="url(#clip400)" d="M1976.61 32.4315 Q1970.61 32.4315 1967.13 37.1306 Q1963.65 41.7891 1963.65 49.9314 Q1963.65 58.0738 1967.09 62.7728 Q1970.57 67.4314 1976.61 67.4314 Q1982.56 67.4314 1986.05 62.7323 Q1989.53 58.0333 1989.53 49.9314 Q1989.53 41.8701 1986.05 37.1711 Q1982.56 32.4315 1976.61 32.4315 M1976.61 26.1121 Q1986.33 26.1121 1991.88 32.4315 Q1997.43 38.7509 1997.43 49.9314 Q1997.43 61.0714 1991.88 67.4314 Q1986.33 73.7508 1976.61 73.7508 Q1966.85 73.7508 1961.3 67.4314 Q1955.79 61.0714 1955.79 49.9314 Q1955.79 38.7509 1961.3 32.4315 Q1966.85 26.1121 1976.61 26.1121 Z" fill="#000000" fill-rule="nonzero" fill-opacity="1" /><path clip-path="url(#clip400)" d="M2047.5 45.1919 L2047.5 72.576 L2040.05 72.576 L2040.05 45.4349 Q2040.05 38.994 2037.53 35.7938 Q2035.02 32.5936 2030 32.5936 Q2023.96 32.5936 2020.48 36.4419 Q2017 40.2903 2017 46.9338 L2017 72.576 L2009.5 72.576 L2009.5 27.2059 L2017 27.2059 L2017 34.2544 Q2019.67 30.163 2023.27 28.1376 Q2026.92 26.1121 2031.66 26.1121 Q2039.48 26.1121 2043.49 30.9732 Q2047.5 35.7938 2047.5 45.1919 Z" fill="#000000" fill-rule="nonzero" fill-opacity="1" /><path clip-path="url(#clip400)" d="M2091.21 65.6895 L2104.58 65.6895 L2104.58 19.5497 L2090.03 22.4663 L2090.03 15.0127 L2104.5 12.096 L2112.68 12.096 L2112.68 65.6895 L2126.05 65.6895 L2126.05 72.576 L2091.21 72.576 L2091.21 65.6895 Z" fill="#000000" fill-rule="nonzero" fill-opacity="1" /><path clip-path="url(#clip402)" d="M892.377 1423.18 L892.377 1423.18 L992.107 1423.18 L992.107 1423.18 L892.377 1423.18 L892.377 1423.18  Z" fill="#009af9" fill-rule="evenodd" fill-opacity="1"/>
<polyline clip-path="url(#clip402)" style="stroke:#000000; stroke-linecap:round; stroke-linejoin:round; stroke-width:4; stroke-opacity:1; fill:none" points="892.377,1423.18 892.377,1423.18 992.107,1423.18 992.107,1423.18 892.377,1423.18 "/>
<path clip-path="url(#clip402)" d="M1765.02 1423.18 L1765.02 1423.18 L1864.75 1423.18 L1864.75 1423.18 L1765.02 1423.18 L1765.02 1423.18  Z" fill="#009af9" fill-rule="evenodd" fill-opacity="1"/>
<polyline clip-path="url(#clip402)" style="stroke:#000000; stroke-linecap:round; stroke-linejoin:round; stroke-width:4; stroke-opacity:1; fill:none" points="1765.02,1423.18 1765.02,1423.18 1864.75,1423.18 1864.75,1423.18 1765.02,1423.18 "/>
<path clip-path="url(#clip402)" d="M1266.36 1423.18 L1266.36 1423.18 L1366.1 1423.18 L1366.1 1423.18 L1266.36 1423.18 L1266.36 1423.18  Z" fill="#009af9" fill-rule="evenodd" fill-opacity="1"/>
<polyline clip-path="url(#clip402)" style="stroke:#000000; stroke-linecap:round; stroke-linejoin:round; stroke-width:4; stroke-opacity:1; fill:none" points="1266.36,1423.18 1266.36,1423.18 1366.1,1423.18 1366.1,1423.18 1266.36,1423.18 "/>
<path clip-path="url(#clip402)" d="M393.725 1423.18 L393.725 1423.18 L493.456 1423.18 L493.456 1423.18 L393.725 1423.18 L393.725 1423.18  Z" fill="#009af9" fill-rule="evenodd" fill-opacity="1"/>
<polyline clip-path="url(#clip402)" style="stroke:#000000; stroke-linecap:round; stroke-linejoin:round; stroke-width:4; stroke-opacity:1; fill:none" points="393.725,1423.18 393.725,1423.18 493.456,1423.18 493.456,1423.18 393.725,1423.18 "/>
<path clip-path="url(#clip402)" d="M1017.04 123.472 L1017.04 1423.18 L1116.77 1423.18 L1116.77 123.472 L1017.04 123.472 L1017.04 123.472  Z" fill="#009af9" fill-rule="evenodd" fill-opacity="1"/>
<polyline clip-path="url(#clip402)" style="stroke:#000000; stroke-linecap:round; stroke-linejoin:round; stroke-width:4; stroke-opacity:1; fill:none" points="1017.04,123.472 1017.04,1423.18 1116.77,1423.18 1116.77,123.472 1017.04,123.472 "/>
<path clip-path="url(#clip402)" d="M1640.35 1423.18 L1640.35 1423.18 L1740.08 1423.18 L1740.08 1423.18 L1640.35 1423.18 L1640.35 1423.18  Z" fill="#009af9" fill-rule="evenodd" fill-opacity="1"/>
<polyline clip-path="url(#clip402)" style="stroke:#000000; stroke-linecap:round; stroke-linejoin:round; stroke-width:4; stroke-opacity:1; fill:none" points="1640.35,1423.18 1640.35,1423.18 1740.08,1423.18 1740.08,1423.18 1640.35,1423.18 "/>
<path clip-path="url(#clip402)" d="M1391.03 1423.18 L1391.03 1423.18 L1490.76 1423.18 L1490.76 1423.18 L1391.03 1423.18 L1391.03 1423.18  Z" fill="#009af9" fill-rule="evenodd" fill-opacity="1"/>
<polyline clip-path="url(#clip402)" style="stroke:#000000; stroke-linecap:round; stroke-linejoin:round; stroke-width:4; stroke-opacity:1; fill:none" points="1391.03,1423.18 1391.03,1423.18 1490.76,1423.18 1490.76,1423.18 1391.03,1423.18 "/>
<path clip-path="url(#clip402)" d="M2014.34 1423.18 L2014.34 1423.18 L2114.07 1423.18 L2114.07 1423.18 L2014.34 1423.18 L2014.34 1423.18  Z" fill="#009af9" fill-rule="evenodd" fill-opacity="1"/>
<polyline clip-path="url(#clip402)" style="stroke:#000000; stroke-linecap:round; stroke-linejoin:round; stroke-width:4; stroke-opacity:1; fill:none" points="2014.34,1423.18 2014.34,1423.18 2114.07,1423.18 2114.07,1423.18 2014.34,1423.18 "/>
<path clip-path="url(#clip402)" d="M643.051 1423.18 L643.051 1423.18 L742.781 1423.18 L742.781 1423.18 L643.051 1423.18 L643.051 1423.18  Z" fill="#009af9" fill-rule="evenodd" fill-opacity="1"/>
<polyline clip-path="url(#clip402)" style="stroke:#000000; stroke-linecap:round; stroke-linejoin:round; stroke-width:4; stroke-opacity:1; fill:none" points="643.051,1423.18 643.051,1423.18 742.781,1423.18 742.781,1423.18 643.051,1423.18 "/>
<path clip-path="url(#clip402)" d="M1141.7 1423.18 L1141.7 1423.18 L1241.43 1423.18 L1241.43 1423.18 L1141.7 1423.18 L1141.7 1423.18  Z" fill="#009af9" fill-rule="evenodd" fill-opacity="1"/>
<polyline clip-path="url(#clip402)" style="stroke:#000000; stroke-linecap:round; stroke-linejoin:round; stroke-width:4; stroke-opacity:1; fill:none" points="1141.7,1423.18 1141.7,1423.18 1241.43,1423.18 1241.43,1423.18 1141.7,1423.18 "/>
<path clip-path="url(#clip402)" d="M767.714 1423.18 L767.714 1423.18 L867.444 1423.18 L867.444 1423.18 L767.714 1423.18 L767.714 1423.18  Z" fill="#009af9" fill-rule="evenodd" fill-opacity="1"/>
<polyline clip-path="url(#clip402)" style="stroke:#000000; stroke-linecap:round; stroke-linejoin:round; stroke-width:4; stroke-opacity:1; fill:none" points="767.714,1423.18 767.714,1423.18 867.444,1423.18 867.444,1423.18 767.714,1423.18 "/>
<path clip-path="url(#clip402)" d="M1889.68 1423.18 L1889.68 1423.18 L1989.41 1423.18 L1989.41 1423.18 L1889.68 1423.18 L1889.68 1423.18  Z" fill="#009af9" fill-rule="evenodd" fill-opacity="1"/>
<polyline clip-path="url(#clip402)" style="stroke:#000000; stroke-linecap:round; stroke-linejoin:round; stroke-width:4; stroke-opacity:1; fill:none" points="1889.68,1423.18 1889.68,1423.18 1989.41,1423.18 1989.41,1423.18 1889.68,1423.18 "/>
<path clip-path="url(#clip402)" d="M2139 1423.18 L2139 1423.18 L2238.73 1423.18 L2238.73 1423.18 L2139 1423.18 L2139 1423.18  Z" fill="#009af9" fill-rule="evenodd" fill-opacity="1"/>
<polyline clip-path="url(#clip402)" style="stroke:#000000; stroke-linecap:round; stroke-linejoin:round; stroke-width:4; stroke-opacity:1; fill:none" points="2139,1423.18 2139,1423.18 2238.73,1423.18 2238.73,1423.18 2139,1423.18 "/>
<path clip-path="url(#clip402)" d="M518.388 1423.18 L518.388 1423.18 L618.118 1423.18 L618.118 1423.18 L518.388 1423.18 L518.388 1423.18  Z" fill="#009af9" fill-rule="evenodd" fill-opacity="1"/>
<polyline clip-path="url(#clip402)" style="stroke:#000000; stroke-linecap:round; stroke-linejoin:round; stroke-width:4; stroke-opacity:1; fill:none" points="518.388,1423.18 518.388,1423.18 618.118,1423.18 618.118,1423.18 518.388,1423.18 "/>
<path clip-path="url(#clip402)" d="M1515.69 1423.18 L1515.69 1423.18 L1615.42 1423.18 L1615.42 1423.18 L1515.69 1423.18 L1515.69 1423.18  Z" fill="#009af9" fill-rule="evenodd" fill-opacity="1"/>
<polyline clip-path="url(#clip402)" style="stroke:#000000; stroke-linecap:round; stroke-linejoin:round; stroke-width:4; stroke-opacity:1; fill:none" points="1515.69,1423.18 1515.69,1423.18 1615.42,1423.18 1615.42,1423.18 1515.69,1423.18 "/>
<circle clip-path="url(#clip402)" style="fill:#009af9; stroke:none; fill-opacity:0" cx="942.242" cy="1423.18" r="2"/>
<circle clip-path="url(#clip402)" style="fill:#009af9; stroke:none; fill-opacity:0" cx="1814.88" cy="1423.18" r="2"/>
<circle clip-path="url(#clip402)" style="fill:#009af9; stroke:none; fill-opacity:0" cx="1316.23" cy="1423.18" r="2"/>
<circle clip-path="url(#clip402)" style="fill:#009af9; stroke:none; fill-opacity:0" cx="443.591" cy="1423.18" r="2"/>
<circle clip-path="url(#clip402)" style="fill:#009af9; stroke:none; fill-opacity:0" cx="1066.9" cy="123.472" r="2"/>
<circle clip-path="url(#clip402)" style="fill:#009af9; stroke:none; fill-opacity:0" cx="1690.22" cy="1423.18" r="2"/>
<circle clip-path="url(#clip402)" style="fill:#009af9; stroke:none; fill-opacity:0" cx="1440.89" cy="1423.18" r="2"/>
<circle clip-path="url(#clip402)" style="fill:#009af9; stroke:none; fill-opacity:0" cx="2064.21" cy="1423.18" r="2"/>
<circle clip-path="url(#clip402)" style="fill:#009af9; stroke:none; fill-opacity:0" cx="692.916" cy="1423.18" r="2"/>
<circle clip-path="url(#clip402)" style="fill:#009af9; stroke:none; fill-opacity:0" cx="1191.57" cy="1423.18" r="2"/>
<circle clip-path="url(#clip402)" style="fill:#009af9; stroke:none; fill-opacity:0" cx="817.579" cy="1423.18" r="2"/>
<circle clip-path="url(#clip402)" style="fill:#009af9; stroke:none; fill-opacity:0" cx="1939.54" cy="1423.18" r="2"/>
<circle clip-path="url(#clip402)" style="fill:#009af9; stroke:none; fill-opacity:0" cx="2188.87" cy="1423.18" r="2"/>
<circle clip-path="url(#clip402)" style="fill:#009af9; stroke:none; fill-opacity:0" cx="568.253" cy="1423.18" r="2"/>
<circle clip-path="url(#clip402)" style="fill:#009af9; stroke:none; fill-opacity:0" cx="1565.56" cy="1423.18" r="2"/>
</svg>
